%FSLAX24Y24*%
%MOIN*%
G70*
G01*
G75*
G04 Layer_Color=128*
%ADD10C,0.0500*%
%ADD11C,0.0100*%
%ADD12C,0.0150*%
%ADD13R,0.0300X0.0300*%
%ADD14R,0.0740X0.0450*%
%ADD15R,0.0300X0.0300*%
%ADD16O,0.0240X0.0800*%
%ADD17R,0.0360X0.0500*%
%ADD18R,0.0360X0.0360*%
%ADD19R,0.0236X0.1000*%
%ADD20R,0.0236X0.0900*%
%ADD21R,0.0700X0.0236*%
%ADD22R,0.0900X0.0236*%
%ADD23O,0.0160X0.0600*%
%ADD24R,0.0138X0.0354*%
%ADD25R,0.0138X0.0354*%
%ADD26R,0.0236X0.0236*%
%ADD27O,0.0160X0.0600*%
%ADD28R,0.0200X0.0500*%
%ADD29R,0.0748X0.0433*%
%ADD30C,0.0120*%
%ADD31C,0.0080*%
%ADD32C,0.0250*%
%ADD33C,0.0200*%
%ADD34C,0.0120*%
%ADD35C,0.0160*%
%ADD36C,0.0140*%
%ADD37C,0.0260*%
%ADD38C,0.0060*%
%ADD39C,0.0050*%
%ADD40C,0.0090*%
%ADD41C,0.1180*%
%ADD42C,0.0700*%
%ADD43R,0.0500X0.0500*%
%ADD44R,0.0394X0.0433*%
%ADD45C,0.0650*%
%ADD46C,0.0200*%
%ADD47R,0.1398X0.1398*%
%ADD48R,0.2000X0.1000*%
%ADD49R,0.1600X0.1800*%
%ADD50C,0.0300*%
%ADD51R,0.0650X0.0650*%
%ADD52C,0.0098*%
G36*
X8779Y6950D02*
X8619D01*
Y6440D01*
X8539D01*
X7439Y7540D01*
X7129D01*
Y8010D01*
X8779D01*
Y6950D01*
D02*
G37*
G36*
X2579Y7700D02*
X1569Y6690D01*
X1159D01*
Y6980D01*
X889D01*
Y8110D01*
X2579D01*
Y7700D01*
D02*
G37*
G36*
X20259Y6950D02*
X20099D01*
Y6440D01*
X20019D01*
X18919Y7540D01*
X18609D01*
Y8010D01*
X20259D01*
Y6950D01*
D02*
G37*
G36*
X14059Y7700D02*
X13049Y6690D01*
X12639D01*
Y6980D01*
X12369D01*
Y8110D01*
X14059D01*
Y7700D01*
D02*
G37*
G36*
X31739Y6950D02*
X31579D01*
Y6440D01*
X31499D01*
X30399Y7540D01*
X30089D01*
Y8010D01*
X31739D01*
Y6950D01*
D02*
G37*
G36*
X25539Y7700D02*
X24529Y6690D01*
X24119D01*
Y6980D01*
X23849D01*
Y8110D01*
X25539D01*
Y7700D01*
D02*
G37*
G36*
X8779Y17540D02*
X8619D01*
Y17030D01*
X8539D01*
X7439Y18130D01*
X7129D01*
Y18600D01*
X8779D01*
Y17540D01*
D02*
G37*
G36*
X2579Y18290D02*
X1569Y17280D01*
X1159D01*
Y17570D01*
X889D01*
Y18700D01*
X2579D01*
Y18290D01*
D02*
G37*
G36*
X20259Y17540D02*
X20099D01*
Y17030D01*
X20019D01*
X18919Y18130D01*
X18609D01*
Y18600D01*
X20259D01*
Y17540D01*
D02*
G37*
G36*
X14059Y18290D02*
X13049Y17280D01*
X12639D01*
Y17570D01*
X12369D01*
Y18700D01*
X14059D01*
Y18290D01*
D02*
G37*
G36*
X31739Y17540D02*
X31579D01*
Y17030D01*
X31499D01*
X30399Y18130D01*
X30089D01*
Y18600D01*
X31739D01*
Y17540D01*
D02*
G37*
G36*
X25539Y18290D02*
X24529Y17280D01*
X24119D01*
Y17570D01*
X23849D01*
Y18700D01*
X25539D01*
Y18290D01*
D02*
G37*
G36*
X8779Y28130D02*
X8619D01*
Y27620D01*
X8539D01*
X7439Y28720D01*
X7129D01*
Y29190D01*
X8779D01*
Y28130D01*
D02*
G37*
G36*
X2579Y28880D02*
X1569Y27870D01*
X1159D01*
Y28160D01*
X889D01*
Y29290D01*
X2579D01*
Y28880D01*
D02*
G37*
G36*
X20259Y28130D02*
X20099D01*
Y27620D01*
X20019D01*
X18919Y28720D01*
X18609D01*
Y29190D01*
X20259D01*
Y28130D01*
D02*
G37*
G36*
X14059Y28880D02*
X13049Y27870D01*
X12639D01*
Y28160D01*
X12369D01*
Y29290D01*
X14059D01*
Y28880D01*
D02*
G37*
G36*
X31739Y28130D02*
X31579D01*
Y27620D01*
X31499D01*
X30399Y28720D01*
X30089D01*
Y29190D01*
X31739D01*
Y28130D01*
D02*
G37*
G36*
X25539Y28880D02*
X24529Y27870D01*
X24119D01*
Y28160D01*
X23849D01*
Y29290D01*
X25539D01*
Y28880D01*
D02*
G37*
D11*
X19250Y-20860D02*
Y-21500D01*
Y-20860D02*
X19524D01*
X19616Y-20891D01*
X19646Y-20921D01*
X19677Y-20982D01*
Y-21043D01*
X19646Y-21104D01*
X19616Y-21134D01*
X19524Y-21165D01*
X19250D02*
X19524D01*
X19616Y-21195D01*
X19646Y-21226D01*
X19677Y-21287D01*
Y-21378D01*
X19646Y-21439D01*
X19616Y-21470D01*
X19524Y-21500D01*
X19250D01*
X19972Y-21073D02*
X19911Y-21104D01*
X19850Y-21165D01*
X19820Y-21256D01*
Y-21317D01*
X19850Y-21409D01*
X19911Y-21470D01*
X19972Y-21500D01*
X20064D01*
X20124Y-21470D01*
X20185Y-21409D01*
X20216Y-21317D01*
Y-21256D01*
X20185Y-21165D01*
X20124Y-21104D01*
X20064Y-21073D01*
X19972D01*
X20447Y-20860D02*
Y-21378D01*
X20478Y-21470D01*
X20539Y-21500D01*
X20600D01*
X20356Y-21073D02*
X20569D01*
X20783Y-20860D02*
Y-21378D01*
X20813Y-21470D01*
X20874Y-21500D01*
X20935D01*
X20691Y-21073D02*
X20905D01*
X21179D02*
X21118Y-21104D01*
X21057Y-21165D01*
X21026Y-21256D01*
Y-21317D01*
X21057Y-21409D01*
X21118Y-21470D01*
X21179Y-21500D01*
X21270D01*
X21331Y-21470D01*
X21392Y-21409D01*
X21422Y-21317D01*
Y-21256D01*
X21392Y-21165D01*
X21331Y-21104D01*
X21270Y-21073D01*
X21179D01*
X21563D02*
Y-21500D01*
Y-21195D02*
X21654Y-21104D01*
X21715Y-21073D01*
X21806D01*
X21867Y-21104D01*
X21898Y-21195D01*
Y-21500D01*
Y-21195D02*
X21989Y-21104D01*
X22050Y-21073D01*
X22142D01*
X22203Y-21104D01*
X22233Y-21195D01*
Y-21500D01*
X22434Y-21195D02*
X22708D01*
X22800Y-21165D01*
X22830Y-21134D01*
X22861Y-21073D01*
Y-20982D01*
X22830Y-20921D01*
X22800Y-20891D01*
X22708Y-20860D01*
X22434D01*
Y-21500D01*
X23370Y-21073D02*
Y-21500D01*
Y-21165D02*
X23309Y-21104D01*
X23248Y-21073D01*
X23156D01*
X23095Y-21104D01*
X23034Y-21165D01*
X23004Y-21256D01*
Y-21317D01*
X23034Y-21409D01*
X23095Y-21470D01*
X23156Y-21500D01*
X23248D01*
X23309Y-21470D01*
X23370Y-21409D01*
X23875Y-21165D02*
X23845Y-21104D01*
X23753Y-21073D01*
X23662D01*
X23571Y-21104D01*
X23540Y-21165D01*
X23571Y-21226D01*
X23632Y-21256D01*
X23784Y-21287D01*
X23845Y-21317D01*
X23875Y-21378D01*
Y-21409D01*
X23845Y-21470D01*
X23753Y-21500D01*
X23662D01*
X23571Y-21470D01*
X23540Y-21409D01*
X24101Y-20860D02*
Y-21378D01*
X24131Y-21470D01*
X24192Y-21500D01*
X24253D01*
X24009Y-21073D02*
X24223D01*
X24345Y-21256D02*
X24710D01*
Y-21195D01*
X24680Y-21134D01*
X24649Y-21104D01*
X24588Y-21073D01*
X24497D01*
X24436Y-21104D01*
X24375Y-21165D01*
X24345Y-21256D01*
Y-21317D01*
X24375Y-21409D01*
X24436Y-21470D01*
X24497Y-21500D01*
X24588D01*
X24649Y-21470D01*
X24710Y-21409D01*
X-370Y9030D02*
G03*
X-670Y8730I0J-300D01*
G01*
X10110D02*
G03*
X9810Y9030I-300J0D01*
G01*
Y-860D02*
G03*
X10110Y-560I0J300D01*
G01*
X-670D02*
G03*
X-370Y-860I300J0D01*
G01*
X-670Y-560D02*
Y8730D01*
X-370Y9030D02*
X9810D01*
X10110Y-560D02*
Y8730D01*
X-370Y-860D02*
X9810D01*
X11110Y9030D02*
G03*
X10810Y8730I0J-300D01*
G01*
X21590D02*
G03*
X21290Y9030I-300J0D01*
G01*
Y-860D02*
G03*
X21590Y-560I0J300D01*
G01*
X10810D02*
G03*
X11110Y-860I300J0D01*
G01*
X10810Y-560D02*
Y8730D01*
X11110Y9030D02*
X21290D01*
X21590Y-560D02*
Y8730D01*
X11110Y-860D02*
X21290D01*
X22590Y9030D02*
G03*
X22290Y8730I0J-300D01*
G01*
X33070D02*
G03*
X32770Y9030I-300J0D01*
G01*
Y-860D02*
G03*
X33070Y-560I0J300D01*
G01*
X22290D02*
G03*
X22590Y-860I300J0D01*
G01*
X22290Y-560D02*
Y8730D01*
X22590Y9030D02*
X32770D01*
X33070Y-560D02*
Y8730D01*
X22590Y-860D02*
X32770D01*
X-370Y19620D02*
G03*
X-670Y19320I0J-300D01*
G01*
X10110D02*
G03*
X9810Y19620I-300J0D01*
G01*
Y9730D02*
G03*
X10110Y10030I0J300D01*
G01*
X-670D02*
G03*
X-370Y9730I300J0D01*
G01*
X-670Y10030D02*
Y19320D01*
X-370Y19620D02*
X9810D01*
X10110Y10030D02*
Y19320D01*
X-370Y9730D02*
X9810D01*
X11110Y19620D02*
G03*
X10810Y19320I0J-300D01*
G01*
X21590D02*
G03*
X21290Y19620I-300J0D01*
G01*
Y9730D02*
G03*
X21590Y10030I0J300D01*
G01*
X10810D02*
G03*
X11110Y9730I300J0D01*
G01*
X10810Y10030D02*
Y19320D01*
X11110Y19620D02*
X21290D01*
X21590Y10030D02*
Y19320D01*
X11110Y9730D02*
X21290D01*
X22590Y19620D02*
G03*
X22290Y19320I0J-300D01*
G01*
X33070D02*
G03*
X32770Y19620I-300J0D01*
G01*
Y9730D02*
G03*
X33070Y10030I0J300D01*
G01*
X22290D02*
G03*
X22590Y9730I300J0D01*
G01*
X22290Y10030D02*
Y19320D01*
X22590Y19620D02*
X32770D01*
X33070Y10030D02*
Y19320D01*
X22590Y9730D02*
X32770D01*
X-370Y30210D02*
G03*
X-670Y29910I0J-300D01*
G01*
X10110D02*
G03*
X9810Y30210I-300J0D01*
G01*
Y20320D02*
G03*
X10110Y20620I0J300D01*
G01*
X-670D02*
G03*
X-370Y20320I300J0D01*
G01*
X-670Y20620D02*
Y29910D01*
X-370Y30210D02*
X9810D01*
X10110Y20620D02*
Y29910D01*
X-370Y20320D02*
X9810D01*
X11110Y30210D02*
G03*
X10810Y29910I0J-300D01*
G01*
X21590D02*
G03*
X21290Y30210I-300J0D01*
G01*
Y20320D02*
G03*
X21590Y20620I0J300D01*
G01*
X10810D02*
G03*
X11110Y20320I300J0D01*
G01*
X10810Y20620D02*
Y29910D01*
X11110Y30210D02*
X21290D01*
X21590Y20620D02*
Y29910D01*
X11110Y20320D02*
X21290D01*
X22590Y30210D02*
G03*
X22290Y29910I0J-300D01*
G01*
X33070D02*
G03*
X32770Y30210I-300J0D01*
G01*
Y20320D02*
G03*
X33070Y20620I0J300D01*
G01*
X22290D02*
G03*
X22590Y20320I300J0D01*
G01*
X22290Y20620D02*
Y29910D01*
X22590Y30210D02*
X32770D01*
X33070Y20620D02*
Y29910D01*
X22590Y20320D02*
X32770D01*
X39659Y-18022D02*
G03*
X39169Y-17532I-490J0D01*
G01*
X28159D02*
G03*
X27659Y-18032I0J-500D01*
G01*
X39159Y-17032D02*
G03*
X39659Y-16532I0J500D01*
G01*
X27659D02*
G03*
X28159Y-17032I500J0D01*
G01*
X-2841Y-9782D02*
G03*
X-3841Y-10782I0J-1000D01*
G01*
Y-21772D02*
G03*
X-2848Y-22782I1010J0D01*
G01*
X39159Y-22782D02*
G03*
X40159Y-21782I0J1000D01*
G01*
Y-10782D02*
G03*
X39159Y-9782I-1000J0D01*
G01*
X39659Y-10772D02*
G03*
X39152Y-10282I-490J0D01*
G01*
X39159Y-19782D02*
G03*
X39659Y-19282I0J500D01*
G01*
X39659Y-20773D02*
G03*
X39159Y-20282I-500J-9D01*
G01*
Y-22282D02*
G03*
X39659Y-21782I0J500D01*
G01*
X26659Y-19782D02*
G03*
X27159Y-19282I0J500D01*
G01*
X27659Y-19292D02*
G03*
X28158Y-19782I490J0D01*
G01*
X27159Y-18022D02*
G03*
X26669Y-17532I-490J0D01*
G01*
X-3341Y-21782D02*
G03*
X-2850Y-22282I500J0D01*
G01*
X26668Y-17032D02*
G03*
X27159Y-16532I-9J500D01*
G01*
X-2841Y-20282D02*
G03*
X-3341Y-20782I0J-500D01*
G01*
X27159Y-13282D02*
G03*
X26659Y-12782I-500J0D01*
G01*
Y-12282D02*
G03*
X27159Y-11782I0J500D01*
G01*
X28159Y-10282D02*
G03*
X27659Y-10782I0J-500D01*
G01*
X27159D02*
G03*
X26659Y-10282I-500J0D01*
G01*
X-2841D02*
G03*
X-3341Y-10782I0J-500D01*
G01*
Y-11782D02*
G03*
X-2841Y-12282I500J0D01*
G01*
Y-12782D02*
G03*
X-3341Y-13282I0J-500D01*
G01*
Y-15532D02*
G03*
X-2841Y-16032I500J0D01*
G01*
Y-16532D02*
G03*
X-3341Y-17032I0J-500D01*
G01*
Y-19282D02*
G03*
X-2850Y-19782I500J0D01*
G01*
X6159Y-12782D02*
G03*
X5659Y-13282I0J-500D01*
G01*
X6159Y-17532D02*
G03*
X5659Y-18032I0J-500D01*
G01*
X23639Y-17532D02*
G03*
X23160Y-18037I0J-480D01*
G01*
X23159Y-19272D02*
G03*
X23660Y-19782I510J0D01*
G01*
X22169Y-19782D02*
G03*
X22659Y-19283I0J490D01*
G01*
X22659Y-18022D02*
G03*
X22169Y-17532I-490J0D01*
G01*
X4669Y-19782D02*
G03*
X5159Y-19292I0J490D01*
G01*
X5659D02*
G03*
X6149Y-19782I490J0D01*
G01*
X5659Y-16542D02*
G03*
X6149Y-17032I490J0D01*
G01*
X5159Y-17022D02*
G03*
X4652Y-16532I-490J0D01*
G01*
X4679Y-16032D02*
G03*
X5159Y-15552I0J480D01*
G01*
Y-13272D02*
G03*
X4669Y-12782I-490J0D01*
G01*
X33659Y-20282D02*
G03*
X33159Y-20782I0J-500D01*
G01*
Y-21792D02*
G03*
X33658Y-22282I490J0D01*
G01*
X32171Y-22282D02*
G03*
X32659Y-21785I8J480D01*
G01*
X32659Y-20782D02*
G03*
X32159Y-20282I-500J0D01*
G01*
X14909Y-21782D02*
G03*
X15400Y-22282I500J0D01*
G01*
X15409Y-20282D02*
G03*
X14909Y-20782I0J-500D01*
G01*
X13921Y-22282D02*
G03*
X14409Y-21785I8J480D01*
G01*
X14409Y-20782D02*
G03*
X13909Y-20282I-500J0D01*
G01*
X39659Y-19282D02*
Y-18022D01*
X27659Y-19282D02*
Y-18032D01*
X39659Y-16532D02*
Y-10782D01*
X27659Y-16532D02*
Y-10782D01*
X-3841Y-21782D02*
Y-10782D01*
X-3341Y-21782D02*
Y-20782D01*
X39659Y-21782D02*
Y-20782D01*
X27159Y-19282D02*
Y-18032D01*
X23159Y-19282D02*
Y-18032D01*
X5659Y-19282D02*
Y-18032D01*
X22659Y-19282D02*
Y-18032D01*
X5659Y-16532D02*
Y-13282D01*
X27159Y-16532D02*
Y-13282D01*
Y-11782D02*
Y-10782D01*
X-3341Y-11782D02*
Y-10782D01*
X5159Y-15532D02*
Y-13282D01*
X-3341Y-15532D02*
Y-13282D01*
X5159Y-19282D02*
Y-17032D01*
X-3341Y-19282D02*
Y-17032D01*
X40159Y-21782D02*
Y-10782D01*
X33159Y-21782D02*
Y-20782D01*
X32659Y-21782D02*
Y-20782D01*
X14909Y-21782D02*
Y-20782D01*
X14409Y-21782D02*
Y-20782D01*
X28159Y-17532D02*
X39159D01*
X28159Y-17032D02*
X39159D01*
X6159D02*
X26659D01*
X28159Y-10282D02*
X39159D01*
X28159Y-19782D02*
X39159D01*
X23659Y-17532D02*
X26659D01*
X23659Y-19782D02*
X26659D01*
X6159D02*
X22159D01*
X6159Y-17532D02*
X22159D01*
X6159Y-12782D02*
X26659D01*
X-2841Y-12282D02*
X26659D01*
X-2841Y-12782D02*
X4659D01*
X-2841Y-16032D02*
X4659D01*
X-2841Y-16532D02*
X4659D01*
X-2841Y-19782D02*
X4659D01*
X-2841Y-9782D02*
X39159D01*
X-2841Y-22782D02*
X39159D01*
X-2841Y-10282D02*
X26659D01*
X33659Y-20282D02*
X39159D01*
X33659Y-22282D02*
X39159D01*
X15409Y-20282D02*
X32159D01*
X-2841D02*
X13909D01*
X-2841Y-22282D02*
X13909D01*
X15409D02*
X32159D01*
X31487Y-13572D02*
X31426Y-13511D01*
X31334Y-13480D01*
X31212D01*
X31121Y-13511D01*
X31060Y-13572D01*
Y-13632D01*
X31090Y-13693D01*
X31121Y-13724D01*
X31182Y-13754D01*
X31365Y-13815D01*
X31426Y-13846D01*
X31456Y-13876D01*
X31487Y-13937D01*
Y-14029D01*
X31426Y-14090D01*
X31334Y-14120D01*
X31212D01*
X31121Y-14090D01*
X31060Y-14029D01*
X31630Y-13693D02*
Y-13998D01*
X31660Y-14090D01*
X31721Y-14120D01*
X31813D01*
X31874Y-14090D01*
X31965Y-13998D01*
Y-13693D02*
Y-14120D01*
X32193Y-13480D02*
X32224Y-13511D01*
X32254Y-13480D01*
X32224Y-13450D01*
X32193Y-13480D01*
X32224Y-13693D02*
Y-14120D01*
X32459Y-13480D02*
Y-13998D01*
X32489Y-14090D01*
X32550Y-14120D01*
X32611D01*
X32367Y-13693D02*
X32580D01*
X32702Y-13876D02*
X33068D01*
Y-13815D01*
X33037Y-13754D01*
X33007Y-13724D01*
X32946Y-13693D01*
X32855D01*
X32794Y-13724D01*
X32733Y-13785D01*
X32702Y-13876D01*
Y-13937D01*
X32733Y-14029D01*
X32794Y-14090D01*
X32855Y-14120D01*
X32946D01*
X33007Y-14090D01*
X33068Y-14029D01*
X33708Y-13602D02*
X33769Y-13572D01*
X33860Y-13480D01*
Y-14120D01*
X34177Y-13602D02*
X34238Y-13572D01*
X34329Y-13480D01*
Y-14120D01*
X34799Y-13480D02*
X34707Y-13511D01*
X34677Y-13572D01*
Y-13632D01*
X34707Y-13693D01*
X34768Y-13724D01*
X34890Y-13754D01*
X34981Y-13785D01*
X35042Y-13846D01*
X35073Y-13907D01*
Y-13998D01*
X35042Y-14059D01*
X35012Y-14090D01*
X34920Y-14120D01*
X34799D01*
X34707Y-14090D01*
X34677Y-14059D01*
X34646Y-13998D01*
Y-13907D01*
X34677Y-13846D01*
X34738Y-13785D01*
X34829Y-13754D01*
X34951Y-13724D01*
X35012Y-13693D01*
X35042Y-13632D01*
Y-13572D01*
X35012Y-13511D01*
X34920Y-13480D01*
X34799D01*
X30466Y-15670D02*
X30161D01*
X30130Y-15944D01*
X30161Y-15914D01*
X30252Y-15883D01*
X30344D01*
X30435Y-15914D01*
X30496Y-15975D01*
X30527Y-16066D01*
Y-16127D01*
X30496Y-16219D01*
X30435Y-16280D01*
X30344Y-16310D01*
X30252D01*
X30161Y-16280D01*
X30130Y-16249D01*
X30100Y-16188D01*
X31035Y-15762D02*
X31005Y-15701D01*
X30914Y-15670D01*
X30853D01*
X30761Y-15701D01*
X30700Y-15792D01*
X30670Y-15944D01*
Y-16097D01*
X30700Y-16219D01*
X30761Y-16280D01*
X30853Y-16310D01*
X30883D01*
X30974Y-16280D01*
X31035Y-16219D01*
X31066Y-16127D01*
Y-16097D01*
X31035Y-16005D01*
X30974Y-15944D01*
X30883Y-15914D01*
X30853D01*
X30761Y-15944D01*
X30700Y-16005D01*
X30670Y-16097D01*
X31206Y-15792D02*
X31267Y-15762D01*
X31358Y-15670D01*
Y-16310D01*
X31675Y-16036D02*
X32224D01*
X32809Y-15883D02*
X32778Y-15975D01*
X32717Y-16036D01*
X32626Y-16066D01*
X32595D01*
X32504Y-16036D01*
X32443Y-15975D01*
X32413Y-15883D01*
Y-15853D01*
X32443Y-15762D01*
X32504Y-15701D01*
X32595Y-15670D01*
X32626D01*
X32717Y-15701D01*
X32778Y-15762D01*
X32809Y-15883D01*
Y-16036D01*
X32778Y-16188D01*
X32717Y-16280D01*
X32626Y-16310D01*
X32565D01*
X32474Y-16280D01*
X32443Y-16219D01*
X33379Y-15883D02*
X33348Y-15975D01*
X33287Y-16036D01*
X33196Y-16066D01*
X33165D01*
X33074Y-16036D01*
X33013Y-15975D01*
X32982Y-15883D01*
Y-15853D01*
X33013Y-15762D01*
X33074Y-15701D01*
X33165Y-15670D01*
X33196D01*
X33287Y-15701D01*
X33348Y-15762D01*
X33379Y-15883D01*
Y-16036D01*
X33348Y-16188D01*
X33287Y-16280D01*
X33196Y-16310D01*
X33135D01*
X33043Y-16280D01*
X33013Y-16219D01*
X33948Y-15883D02*
X33918Y-15975D01*
X33857Y-16036D01*
X33765Y-16066D01*
X33735D01*
X33644Y-16036D01*
X33583Y-15975D01*
X33552Y-15883D01*
Y-15853D01*
X33583Y-15762D01*
X33644Y-15701D01*
X33735Y-15670D01*
X33765D01*
X33857Y-15701D01*
X33918Y-15762D01*
X33948Y-15883D01*
Y-16036D01*
X33918Y-16188D01*
X33857Y-16280D01*
X33765Y-16310D01*
X33705D01*
X33613Y-16280D01*
X33583Y-16219D01*
X34122Y-16036D02*
X34670D01*
X35255Y-15883D02*
X35225Y-15975D01*
X35164Y-16036D01*
X35073Y-16066D01*
X35042D01*
X34951Y-16036D01*
X34890Y-15975D01*
X34859Y-15883D01*
Y-15853D01*
X34890Y-15762D01*
X34951Y-15701D01*
X35042Y-15670D01*
X35073D01*
X35164Y-15701D01*
X35225Y-15762D01*
X35255Y-15883D01*
Y-16036D01*
X35225Y-16188D01*
X35164Y-16280D01*
X35073Y-16310D01*
X35012D01*
X34920Y-16280D01*
X34890Y-16219D01*
X35734Y-15670D02*
X35429Y-16097D01*
X35886D01*
X35734Y-15670D02*
Y-16310D01*
X36029Y-15822D02*
Y-15792D01*
X36060Y-15731D01*
X36090Y-15701D01*
X36151Y-15670D01*
X36273D01*
X36334Y-15701D01*
X36365Y-15731D01*
X36395Y-15792D01*
Y-15853D01*
X36365Y-15914D01*
X36304Y-16005D01*
X35999Y-16310D01*
X36425D01*
X36599Y-15822D02*
Y-15792D01*
X36630Y-15731D01*
X36660Y-15701D01*
X36721Y-15670D01*
X36843D01*
X36904Y-15701D01*
X36934Y-15731D01*
X36965Y-15792D01*
Y-15853D01*
X36934Y-15914D01*
X36873Y-16005D01*
X36569Y-16310D01*
X36995D01*
X29346Y-12663D02*
X29316Y-12755D01*
X29255Y-12816D01*
X29163Y-12846D01*
X29133D01*
X29041Y-12816D01*
X28980Y-12755D01*
X28950Y-12663D01*
Y-12633D01*
X28980Y-12542D01*
X29041Y-12481D01*
X29133Y-12450D01*
X29163D01*
X29255Y-12481D01*
X29316Y-12542D01*
X29346Y-12663D01*
Y-12816D01*
X29316Y-12968D01*
X29255Y-13060D01*
X29163Y-13090D01*
X29102D01*
X29011Y-13060D01*
X28980Y-12999D01*
X29703Y-12450D02*
X29611Y-12481D01*
X29550Y-12572D01*
X29520Y-12724D01*
Y-12816D01*
X29550Y-12968D01*
X29611Y-13060D01*
X29703Y-13090D01*
X29764D01*
X29855Y-13060D01*
X29916Y-12968D01*
X29946Y-12816D01*
Y-12724D01*
X29916Y-12572D01*
X29855Y-12481D01*
X29764Y-12450D01*
X29703D01*
X30120Y-12602D02*
Y-12572D01*
X30150Y-12511D01*
X30181Y-12481D01*
X30242Y-12450D01*
X30364D01*
X30425Y-12481D01*
X30455Y-12511D01*
X30486Y-12572D01*
Y-12633D01*
X30455Y-12694D01*
X30394Y-12785D01*
X30090Y-13090D01*
X30516D01*
X31619Y-12602D02*
X31589Y-12542D01*
X31528Y-12481D01*
X31467Y-12450D01*
X31345D01*
X31284Y-12481D01*
X31223Y-12542D01*
X31193Y-12602D01*
X31162Y-12694D01*
Y-12846D01*
X31193Y-12938D01*
X31223Y-12999D01*
X31284Y-13060D01*
X31345Y-13090D01*
X31467D01*
X31528Y-13060D01*
X31589Y-12999D01*
X31619Y-12938D01*
X31799Y-12450D02*
Y-13090D01*
X31994Y-12450D02*
X32024Y-12481D01*
X32055Y-12450D01*
X32024Y-12420D01*
X31994Y-12450D01*
X32024Y-12663D02*
Y-13090D01*
X32168Y-12663D02*
Y-13090D01*
Y-12785D02*
X32259Y-12694D01*
X32320Y-12663D01*
X32411D01*
X32472Y-12694D01*
X32503Y-12785D01*
Y-13090D01*
X32762Y-12450D02*
Y-12968D01*
X32792Y-13060D01*
X32853Y-13090D01*
X32914D01*
X32670Y-12663D02*
X32884D01*
X33508Y-12450D02*
Y-13090D01*
Y-12450D02*
X33752Y-13090D01*
X33996Y-12450D02*
X33752Y-13090D01*
X33996Y-12450D02*
Y-13090D01*
X34331Y-12663D02*
X34270Y-12694D01*
X34209Y-12755D01*
X34179Y-12846D01*
Y-12907D01*
X34209Y-12999D01*
X34270Y-13060D01*
X34331Y-13090D01*
X34422D01*
X34483Y-13060D01*
X34544Y-12999D01*
X34575Y-12907D01*
Y-12846D01*
X34544Y-12755D01*
X34483Y-12694D01*
X34422Y-12663D01*
X34331D01*
X34867D02*
X34806Y-12694D01*
X34745Y-12755D01*
X34715Y-12846D01*
Y-12907D01*
X34745Y-12999D01*
X34806Y-13060D01*
X34867Y-13090D01*
X34959D01*
X35020Y-13060D01*
X35080Y-12999D01*
X35111Y-12907D01*
Y-12846D01*
X35080Y-12755D01*
X35020Y-12694D01*
X34959Y-12663D01*
X34867D01*
X35251D02*
Y-13090D01*
Y-12846D02*
X35282Y-12755D01*
X35343Y-12694D01*
X35403Y-12663D01*
X35495D01*
X35553Y-12846D02*
X35918D01*
Y-12785D01*
X35888Y-12724D01*
X35857Y-12694D01*
X35797Y-12663D01*
X35705D01*
X35644Y-12694D01*
X35583Y-12755D01*
X35553Y-12846D01*
Y-12907D01*
X35583Y-12999D01*
X35644Y-13060D01*
X35705Y-13090D01*
X35797D01*
X35857Y-13060D01*
X35918Y-12999D01*
X36558Y-12450D02*
Y-13090D01*
Y-12450D02*
X36832D01*
X36924Y-12481D01*
X36954Y-12511D01*
X36985Y-12572D01*
Y-12633D01*
X36954Y-12694D01*
X36924Y-12724D01*
X36832Y-12755D01*
X36558D01*
X36772D02*
X36985Y-13090D01*
X37494Y-12450D02*
Y-13090D01*
Y-12755D02*
X37433Y-12694D01*
X37372Y-12663D01*
X37280D01*
X37219Y-12694D01*
X37159Y-12755D01*
X37128Y-12846D01*
Y-12907D01*
X37159Y-12999D01*
X37219Y-13060D01*
X37280Y-13090D01*
X37372D01*
X37433Y-13060D01*
X37494Y-12999D01*
X37695Y-13029D02*
X37664Y-13060D01*
X37695Y-13090D01*
X37725Y-13060D01*
X37695Y-13029D01*
X29810Y-14420D02*
Y-15060D01*
Y-14420D02*
X30084D01*
X30176Y-14451D01*
X30206Y-14481D01*
X30237Y-14542D01*
Y-14603D01*
X30206Y-14664D01*
X30176Y-14694D01*
X30084Y-14725D01*
X29810D02*
X30084D01*
X30176Y-14755D01*
X30206Y-14786D01*
X30237Y-14847D01*
Y-14938D01*
X30206Y-14999D01*
X30176Y-15030D01*
X30084Y-15060D01*
X29810D01*
X30532Y-14633D02*
X30471Y-14664D01*
X30410Y-14725D01*
X30380Y-14816D01*
Y-14877D01*
X30410Y-14969D01*
X30471Y-15030D01*
X30532Y-15060D01*
X30624D01*
X30684Y-15030D01*
X30745Y-14969D01*
X30776Y-14877D01*
Y-14816D01*
X30745Y-14725D01*
X30684Y-14664D01*
X30624Y-14633D01*
X30532D01*
X31282Y-14725D02*
X31221Y-14664D01*
X31160Y-14633D01*
X31068D01*
X31007Y-14664D01*
X30947Y-14725D01*
X30916Y-14816D01*
Y-14877D01*
X30947Y-14969D01*
X31007Y-15030D01*
X31068Y-15060D01*
X31160D01*
X31221Y-15030D01*
X31282Y-14969D01*
X31784Y-14633D02*
Y-15060D01*
Y-14725D02*
X31723Y-14664D01*
X31663Y-14633D01*
X31571D01*
X31510Y-14664D01*
X31449Y-14725D01*
X31419Y-14816D01*
Y-14877D01*
X31449Y-14969D01*
X31510Y-15030D01*
X31571Y-15060D01*
X31663D01*
X31723Y-15030D01*
X31784Y-14969D01*
X32458Y-14420D02*
Y-15060D01*
Y-14420D02*
X32732D01*
X32823Y-14451D01*
X32854Y-14481D01*
X32884Y-14542D01*
Y-14603D01*
X32854Y-14664D01*
X32823Y-14694D01*
X32732Y-14725D01*
X32458D01*
X32671D02*
X32884Y-15060D01*
X33393Y-14633D02*
Y-15060D01*
Y-14725D02*
X33332Y-14664D01*
X33271Y-14633D01*
X33180D01*
X33119Y-14664D01*
X33058Y-14725D01*
X33028Y-14816D01*
Y-14877D01*
X33058Y-14969D01*
X33119Y-15030D01*
X33180Y-15060D01*
X33271D01*
X33332Y-15030D01*
X33393Y-14969D01*
X33655Y-14420D02*
Y-14938D01*
X33686Y-15030D01*
X33747Y-15060D01*
X33808D01*
X33564Y-14633D02*
X33777D01*
X34051D02*
X33990Y-14664D01*
X33930Y-14725D01*
X33899Y-14816D01*
Y-14877D01*
X33930Y-14969D01*
X33990Y-15030D01*
X34051Y-15060D01*
X34143D01*
X34204Y-15030D01*
X34265Y-14969D01*
X34295Y-14877D01*
Y-14816D01*
X34265Y-14725D01*
X34204Y-14664D01*
X34143Y-14633D01*
X34051D01*
X34435D02*
Y-15060D01*
Y-14755D02*
X34527Y-14664D01*
X34588Y-14633D01*
X34679D01*
X34740Y-14664D01*
X34770Y-14755D01*
Y-15060D01*
X35441Y-14420D02*
Y-15060D01*
Y-14420D02*
X35837D01*
X35441Y-14725D02*
X35685D01*
X35910Y-14420D02*
Y-15060D01*
X36276D01*
X36376Y-14999D02*
X36346Y-15030D01*
X36376Y-15060D01*
X36407Y-15030D01*
X36376Y-14999D01*
D12*
X29892Y-11980D02*
X29511Y-10980D01*
X29130Y-11980D01*
X29273Y-11647D02*
X29749D01*
X30696Y-11456D02*
X30601Y-11361D01*
X30506Y-11313D01*
X30363D01*
X30268Y-11361D01*
X30173Y-11456D01*
X30125Y-11599D01*
Y-11694D01*
X30173Y-11837D01*
X30268Y-11932D01*
X30363Y-11980D01*
X30506D01*
X30601Y-11932D01*
X30696Y-11837D01*
X31053Y-10980D02*
Y-11790D01*
X31101Y-11932D01*
X31196Y-11980D01*
X31291D01*
X30911Y-11313D02*
X31244D01*
X31529Y-10980D02*
X31577Y-11028D01*
X31625Y-10980D01*
X31577Y-10933D01*
X31529Y-10980D01*
X31577Y-11313D02*
Y-11980D01*
X31801Y-11313D02*
X32087Y-11980D01*
X32372Y-11313D02*
X32087Y-11980D01*
X32534Y-11599D02*
X33105D01*
Y-11504D01*
X33058Y-11409D01*
X33010Y-11361D01*
X32915Y-11313D01*
X32772D01*
X32677Y-11361D01*
X32582Y-11456D01*
X32534Y-11599D01*
Y-11694D01*
X32582Y-11837D01*
X32677Y-11932D01*
X32772Y-11980D01*
X32915D01*
X33010Y-11932D01*
X33105Y-11837D01*
X34105Y-10980D02*
X34343Y-11980D01*
X34581Y-10980D02*
X34343Y-11980D01*
X34581Y-10980D02*
X34819Y-11980D01*
X35057Y-10980D02*
X34819Y-11980D01*
X35829Y-11313D02*
Y-11980D01*
Y-11456D02*
X35733Y-11361D01*
X35638Y-11313D01*
X35495D01*
X35400Y-11361D01*
X35305Y-11456D01*
X35257Y-11599D01*
Y-11694D01*
X35305Y-11837D01*
X35400Y-11932D01*
X35495Y-11980D01*
X35638D01*
X35733Y-11932D01*
X35829Y-11837D01*
X36095Y-11313D02*
X36381Y-11980D01*
X36666Y-11313D02*
X36381Y-11980D01*
X36828Y-11599D02*
X37400D01*
Y-11504D01*
X37352Y-11409D01*
X37304Y-11361D01*
X37209Y-11313D01*
X37066D01*
X36971Y-11361D01*
X36876Y-11456D01*
X36828Y-11599D01*
Y-11694D01*
X36876Y-11837D01*
X36971Y-11932D01*
X37066Y-11980D01*
X37209D01*
X37304Y-11932D01*
X37400Y-11837D01*
D31*
X1243Y-17059D02*
Y-17465D01*
X1217Y-17542D01*
X1192Y-17567D01*
X1141Y-17592D01*
X1090D01*
X1040Y-17567D01*
X1014Y-17542D01*
X989Y-17465D01*
Y-17415D01*
X1405Y-17542D02*
X1380Y-17567D01*
X1405Y-17592D01*
X1431Y-17567D01*
X1405Y-17542D01*
X1547Y-17059D02*
Y-17592D01*
Y-17059D02*
X1903Y-17592D01*
Y-17059D02*
Y-17592D01*
D39*
X-1610Y-2390D02*
G03*
X-1610Y-2390I-590J0D01*
G01*
X35190D02*
G03*
X35190Y-2390I-590J0D01*
G01*
Y31740D02*
G03*
X35190Y31740I-590J0D01*
G01*
X1080Y31960D02*
G03*
X1080Y31960I-250J0D01*
G01*
X31820D02*
G03*
X31820Y31960I-250J0D01*
G01*
X1080Y-2610D02*
G03*
X1080Y-2610I-250J0D01*
G01*
X31820D02*
G03*
X31820Y-2610I-250J0D01*
G01*
X97Y0D02*
G03*
X97Y0I-97J0D01*
G01*
X-1070Y30910D02*
G03*
X-1370Y30610I0J-300D01*
G01*
X-370Y30210D02*
G03*
X-670Y29910I0J-300D01*
G01*
X10110D02*
G03*
X9810Y30210I-300J0D01*
G01*
X11110D02*
G03*
X10810Y29910I0J-300D01*
G01*
X9810Y20320D02*
G03*
X10110Y20620I0J300D01*
G01*
X10810D02*
G03*
X11110Y20320I300J0D01*
G01*
Y19620D02*
G03*
X10810Y19320I0J-300D01*
G01*
X10110D02*
G03*
X9810Y19620I-300J0D01*
G01*
X22290Y20620D02*
G03*
X22590Y20320I300J0D01*
G01*
X21290D02*
G03*
X21590Y20620I0J300D01*
G01*
Y19320D02*
G03*
X21290Y19620I-300J0D01*
G01*
X22590D02*
G03*
X22290Y19320I0J-300D01*
G01*
X32770Y20320D02*
G03*
X33070Y20620I0J300D01*
G01*
Y19320D02*
G03*
X32770Y19620I-300J0D01*
G01*
X33770Y30610D02*
G03*
X33470Y30910I-300J0D01*
G01*
X33070Y29910D02*
G03*
X32770Y30210I-300J0D01*
G01*
X21590Y29910D02*
G03*
X21290Y30210I-300J0D01*
G01*
X22590D02*
G03*
X22290Y29910I0J-300D01*
G01*
X-670Y20620D02*
G03*
X-370Y20320I300J0D01*
G01*
Y19620D02*
G03*
X-670Y19320I0J-300D01*
G01*
Y10030D02*
G03*
X-370Y9730I300J0D01*
G01*
Y9030D02*
G03*
X-670Y8730I0J-300D01*
G01*
Y-560D02*
G03*
X-370Y-860I300J0D01*
G01*
X-1370Y-1260D02*
G03*
X-1070Y-1560I300J0D01*
G01*
X9810Y-860D02*
G03*
X10110Y-560I0J300D01*
G01*
X10810D02*
G03*
X11110Y-860I300J0D01*
G01*
X21290D02*
G03*
X21590Y-560I0J300D01*
G01*
X22290D02*
G03*
X22590Y-860I300J0D01*
G01*
X32770D02*
G03*
X33070Y-560I0J300D01*
G01*
X33470Y-1560D02*
G03*
X33770Y-1260I0J300D01*
G01*
X32770Y9730D02*
G03*
X33070Y10030I0J300D01*
G01*
Y8730D02*
G03*
X32770Y9030I-300J0D01*
G01*
X21290Y9730D02*
G03*
X21590Y10030I0J300D01*
G01*
X22290D02*
G03*
X22590Y9730I300J0D01*
G01*
Y9030D02*
G03*
X22290Y8730I0J-300D01*
G01*
X21590D02*
G03*
X21290Y9030I-300J0D01*
G01*
X10810Y10030D02*
G03*
X11110Y9730I300J0D01*
G01*
X9810D02*
G03*
X10110Y10030I0J300D01*
G01*
Y8730D02*
G03*
X9810Y9030I-300J0D01*
G01*
X11110D02*
G03*
X10810Y8730I0J-300D01*
G01*
X-4170Y-4360D02*
X36570D01*
Y33710D01*
X-4170D02*
X36570D01*
X-4170Y-4360D02*
Y33710D01*
X-670Y20620D02*
Y29910D01*
X-370Y-860D02*
X9810D01*
X22590Y30210D02*
X32770D01*
X33070Y-560D02*
Y8730D01*
X-1070Y30910D02*
X33470D01*
X-1070Y-1560D02*
X33470D01*
X-1370Y-1260D02*
Y30610D01*
X33770Y-1260D02*
Y30610D01*
X-370Y30210D02*
X9810D01*
X11110Y20320D02*
X21290D01*
X-370D02*
X9810D01*
X-670Y10030D02*
Y19320D01*
X-370Y19620D02*
X9810D01*
X10110Y20620D02*
Y29910D01*
X10810Y20620D02*
Y29910D01*
X21590Y20620D02*
Y29910D01*
X22290Y20620D02*
Y29910D01*
X11110Y30210D02*
X21290D01*
X10810Y10030D02*
Y19320D01*
X11110Y19620D02*
X21290D01*
X10110Y10030D02*
Y19320D01*
X21590Y10030D02*
Y19320D01*
X22590Y20320D02*
X32770D01*
X22590Y19620D02*
X32770D01*
X22290Y10030D02*
Y19320D01*
X33070Y20620D02*
Y29910D01*
Y10030D02*
Y19320D01*
X22290Y-560D02*
Y8730D01*
X22590Y9730D02*
X32770D01*
X21590Y-560D02*
Y8730D01*
X22590Y9030D02*
X32770D01*
X11110Y9730D02*
X21290D01*
X10110Y-560D02*
Y8730D01*
X11110Y9030D02*
X21290D01*
X10810Y-560D02*
Y8730D01*
X11110Y-860D02*
X21290D01*
X22590D02*
X32770D01*
X-370Y9730D02*
X9810D01*
X-670Y-560D02*
Y8730D01*
X-370Y9030D02*
X9810D01*
X1928Y-21217D02*
Y-21750D01*
X1750Y-21217D02*
X2105D01*
X2474Y-21395D02*
Y-21750D01*
Y-21471D02*
X2423Y-21420D01*
X2372Y-21395D01*
X2296D01*
X2245Y-21420D01*
X2194Y-21471D01*
X2169Y-21547D01*
Y-21598D01*
X2194Y-21674D01*
X2245Y-21725D01*
X2296Y-21750D01*
X2372D01*
X2423Y-21725D01*
X2474Y-21674D01*
X2921Y-21395D02*
Y-21801D01*
X2895Y-21877D01*
X2870Y-21902D01*
X2819Y-21928D01*
X2743D01*
X2692Y-21902D01*
X2921Y-21471D02*
X2870Y-21420D01*
X2819Y-21395D01*
X2743D01*
X2692Y-21420D01*
X2641Y-21471D01*
X2616Y-21547D01*
Y-21598D01*
X2641Y-21674D01*
X2692Y-21725D01*
X2743Y-21750D01*
X2819D01*
X2870Y-21725D01*
X2921Y-21674D01*
X3063Y-21318D02*
X3114Y-21293D01*
X3190Y-21217D01*
Y-21750D01*
X3606Y-21217D02*
X3530Y-21242D01*
X3479Y-21318D01*
X3454Y-21445D01*
Y-21521D01*
X3479Y-21648D01*
X3530Y-21725D01*
X3606Y-21750D01*
X3657D01*
X3733Y-21725D01*
X3784Y-21648D01*
X3809Y-21521D01*
Y-21445D01*
X3784Y-21318D01*
X3733Y-21242D01*
X3657Y-21217D01*
X3606D01*
X3979D02*
X4259D01*
X4106Y-21420D01*
X4183D01*
X4233Y-21445D01*
X4259Y-21471D01*
X4284Y-21547D01*
Y-21598D01*
X4259Y-21674D01*
X4208Y-21725D01*
X4132Y-21750D01*
X4056D01*
X3979Y-21725D01*
X3954Y-21699D01*
X3929Y-21648D01*
X4403Y-21521D02*
X4860D01*
X5018Y-21217D02*
Y-21750D01*
Y-21217D02*
X5246D01*
X5323Y-21242D01*
X5348Y-21268D01*
X5373Y-21318D01*
Y-21369D01*
X5348Y-21420D01*
X5323Y-21445D01*
X5246Y-21471D01*
X5018D01*
X5196D02*
X5373Y-21750D01*
X5493Y-21547D02*
X5797D01*
Y-21496D01*
X5772Y-21445D01*
X5747Y-21420D01*
X5696Y-21395D01*
X5620D01*
X5569Y-21420D01*
X5518Y-21471D01*
X5493Y-21547D01*
Y-21598D01*
X5518Y-21674D01*
X5569Y-21725D01*
X5620Y-21750D01*
X5696D01*
X5747Y-21725D01*
X5797Y-21674D01*
X5912Y-21395D02*
X6064Y-21750D01*
X6216Y-21395D02*
X6064Y-21750D01*
X6328Y-21344D02*
Y-21318D01*
X6353Y-21268D01*
X6379Y-21242D01*
X6430Y-21217D01*
X6531D01*
X6582Y-21242D01*
X6607Y-21268D01*
X6633Y-21318D01*
Y-21369D01*
X6607Y-21420D01*
X6557Y-21496D01*
X6303Y-21750D01*
X6658D01*
X6930Y-21217D02*
X6854Y-21242D01*
X6803Y-21318D01*
X6778Y-21445D01*
Y-21521D01*
X6803Y-21648D01*
X6854Y-21725D01*
X6930Y-21750D01*
X6981D01*
X7057Y-21725D01*
X7108Y-21648D01*
X7133Y-21521D01*
Y-21445D01*
X7108Y-21318D01*
X7057Y-21242D01*
X6981Y-21217D01*
X6930D01*
X7252D02*
Y-21750D01*
Y-21217D02*
X7582D01*
X7252Y-21471D02*
X7455D01*
X7694Y-21217D02*
X7720Y-21242D01*
X7745Y-21217D01*
X7720Y-21191D01*
X7694Y-21217D01*
X7720Y-21395D02*
Y-21750D01*
X7839Y-21395D02*
Y-21750D01*
Y-21496D02*
X7915Y-21420D01*
X7966Y-21395D01*
X8042D01*
X8093Y-21420D01*
X8118Y-21496D01*
Y-21750D01*
X8563Y-21395D02*
Y-21750D01*
Y-21471D02*
X8512Y-21420D01*
X8461Y-21395D01*
X8385D01*
X8334Y-21420D01*
X8283Y-21471D01*
X8258Y-21547D01*
Y-21598D01*
X8283Y-21674D01*
X8334Y-21725D01*
X8385Y-21750D01*
X8461D01*
X8512Y-21725D01*
X8563Y-21674D01*
X8705Y-21217D02*
Y-21750D01*
X8816Y-21521D02*
X9274D01*
X9431Y-21496D02*
X9659D01*
X9736Y-21471D01*
X9761Y-21445D01*
X9786Y-21395D01*
Y-21318D01*
X9761Y-21268D01*
X9736Y-21242D01*
X9659Y-21217D01*
X9431D01*
Y-21750D01*
X10210Y-21395D02*
Y-21750D01*
Y-21471D02*
X10160Y-21420D01*
X10109Y-21395D01*
X10033D01*
X9982Y-21420D01*
X9931Y-21471D01*
X9906Y-21547D01*
Y-21598D01*
X9931Y-21674D01*
X9982Y-21725D01*
X10033Y-21750D01*
X10109D01*
X10160Y-21725D01*
X10210Y-21674D01*
X10353Y-21395D02*
Y-21750D01*
Y-21496D02*
X10429Y-21420D01*
X10480Y-21395D01*
X10556D01*
X10607Y-21420D01*
X10632Y-21496D01*
Y-21750D01*
X10772Y-21547D02*
X11076D01*
Y-21496D01*
X11051Y-21445D01*
X11026Y-21420D01*
X10975Y-21395D01*
X10899D01*
X10848Y-21420D01*
X10797Y-21471D01*
X10772Y-21547D01*
Y-21598D01*
X10797Y-21674D01*
X10848Y-21725D01*
X10899Y-21750D01*
X10975D01*
X11026Y-21725D01*
X11076Y-21674D01*
X11191Y-21217D02*
Y-21750D01*
X11328Y-21699D02*
X11302Y-21725D01*
X11328Y-21750D01*
X11353Y-21725D01*
X11328Y-21699D01*
X11470Y-21496D02*
X11698D01*
X11775Y-21471D01*
X11800Y-21445D01*
X11825Y-21395D01*
Y-21318D01*
X11800Y-21268D01*
X11775Y-21242D01*
X11698Y-21217D01*
X11470D01*
Y-21750D01*
X12326Y-21344D02*
X12300Y-21293D01*
X12249Y-21242D01*
X12199Y-21217D01*
X12097D01*
X12046Y-21242D01*
X11995Y-21293D01*
X11970Y-21344D01*
X11945Y-21420D01*
Y-21547D01*
X11970Y-21623D01*
X11995Y-21674D01*
X12046Y-21725D01*
X12097Y-21750D01*
X12199D01*
X12249Y-21725D01*
X12300Y-21674D01*
X12326Y-21623D01*
X12475Y-21217D02*
Y-21750D01*
Y-21217D02*
X12704D01*
X12780Y-21242D01*
X12805Y-21268D01*
X12831Y-21318D01*
Y-21369D01*
X12805Y-21420D01*
X12780Y-21445D01*
X12704Y-21471D01*
X12475D02*
X12704D01*
X12780Y-21496D01*
X12805Y-21521D01*
X12831Y-21572D01*
Y-21648D01*
X12805Y-21699D01*
X12780Y-21725D01*
X12704Y-21750D01*
X12475D01*
X28159Y-17874D02*
Y-18407D01*
Y-17874D02*
X28337D01*
X28413Y-17899D01*
X28464Y-17950D01*
X28489Y-18001D01*
X28515Y-18077D01*
Y-18204D01*
X28489Y-18280D01*
X28464Y-18331D01*
X28413Y-18381D01*
X28337Y-18407D01*
X28159D01*
X29040D02*
X28837Y-17874D01*
X28634Y-18407D01*
X28710Y-18229D02*
X28964D01*
X29342Y-17874D02*
Y-18407D01*
X29165Y-17874D02*
X29520D01*
X29914D02*
X29584D01*
Y-18407D01*
X29914D01*
X29584Y-18127D02*
X29787D01*
X30028Y-18051D02*
X30003Y-18077D01*
X30028Y-18102D01*
X30053Y-18077D01*
X30028Y-18051D01*
Y-18356D02*
X30003Y-18381D01*
X30028Y-18407D01*
X30053Y-18381D01*
X30028Y-18356D01*
X23534Y-17874D02*
Y-18407D01*
Y-17874D02*
X23763D01*
X23839Y-17899D01*
X23864Y-17924D01*
X23890Y-17975D01*
Y-18026D01*
X23864Y-18077D01*
X23839Y-18102D01*
X23763Y-18127D01*
X23534D01*
X23712D02*
X23890Y-18407D01*
X24339Y-17874D02*
X24009D01*
Y-18407D01*
X24339D01*
X24009Y-18127D02*
X24212D01*
X24428Y-17874D02*
X24631Y-18407D01*
X24834Y-17874D02*
X24631Y-18407D01*
X24928Y-18051D02*
X24903Y-18077D01*
X24928Y-18102D01*
X24954Y-18077D01*
X24928Y-18051D01*
Y-18356D02*
X24903Y-18381D01*
X24928Y-18407D01*
X24954Y-18381D01*
X24928Y-18356D01*
X-2841Y-15419D02*
X-2627D01*
X-2555Y-15395D01*
X-2531Y-15371D01*
X-2508Y-15324D01*
Y-15252D01*
X-2531Y-15204D01*
X-2555Y-15181D01*
X-2627Y-15157D01*
X-2841D01*
Y-15657D01*
X-2396Y-15157D02*
Y-15657D01*
X-2062Y-15157D02*
Y-15657D01*
X-2396Y-15395D02*
X-2062D01*
X-1781Y-15157D02*
X-1829Y-15181D01*
X-1877Y-15228D01*
X-1901Y-15276D01*
X-1924Y-15347D01*
Y-15466D01*
X-1901Y-15538D01*
X-1877Y-15585D01*
X-1829Y-15633D01*
X-1781Y-15657D01*
X-1686D01*
X-1639Y-15633D01*
X-1591Y-15585D01*
X-1567Y-15538D01*
X-1543Y-15466D01*
Y-15347D01*
X-1567Y-15276D01*
X-1591Y-15228D01*
X-1639Y-15181D01*
X-1686Y-15157D01*
X-1781D01*
X-1427D02*
Y-15657D01*
Y-15157D02*
X-1094Y-15657D01*
Y-15157D02*
Y-15657D01*
X-646Y-15157D02*
X-955D01*
Y-15657D01*
X-646D01*
X-955Y-15395D02*
X-765D01*
X-539Y-15324D02*
X-563Y-15347D01*
X-539Y-15371D01*
X-515Y-15347D01*
X-539Y-15324D01*
Y-15609D02*
X-563Y-15633D01*
X-539Y-15657D01*
X-515Y-15633D01*
X-539Y-15609D01*
X-2841Y-19169D02*
X-2627D01*
X-2555Y-19145D01*
X-2531Y-19121D01*
X-2508Y-19074D01*
Y-19002D01*
X-2531Y-18954D01*
X-2555Y-18931D01*
X-2627Y-18907D01*
X-2841D01*
Y-19407D01*
X-2396Y-18907D02*
Y-19407D01*
X-2062Y-18907D02*
Y-19407D01*
X-2396Y-19145D02*
X-2062D01*
X-1781Y-18907D02*
X-1829Y-18931D01*
X-1877Y-18978D01*
X-1901Y-19026D01*
X-1924Y-19097D01*
Y-19216D01*
X-1901Y-19288D01*
X-1877Y-19335D01*
X-1829Y-19383D01*
X-1781Y-19407D01*
X-1686D01*
X-1639Y-19383D01*
X-1591Y-19335D01*
X-1567Y-19288D01*
X-1543Y-19216D01*
Y-19097D01*
X-1567Y-19026D01*
X-1591Y-18978D01*
X-1639Y-18931D01*
X-1686Y-18907D01*
X-1781D01*
X-1427D02*
Y-19407D01*
Y-18907D02*
X-1094Y-19407D01*
Y-18907D02*
Y-19407D01*
X-646Y-18907D02*
X-955D01*
Y-19407D01*
X-646D01*
X-955Y-19145D02*
X-765D01*
X-539Y-19074D02*
X-563Y-19097D01*
X-539Y-19121D01*
X-515Y-19097D01*
X-539Y-19074D01*
Y-19359D02*
X-563Y-19383D01*
X-539Y-19407D01*
X-515Y-19383D01*
X-539Y-19359D01*
X15559Y-20649D02*
Y-21182D01*
X15864D01*
X16329D02*
X16125Y-20649D01*
X15922Y-21182D01*
X15998Y-21004D02*
X16252D01*
X16453Y-20649D02*
X16656Y-20902D01*
Y-21182D01*
X16859Y-20649D02*
X16656Y-20902D01*
X17258Y-20649D02*
X16928D01*
Y-21182D01*
X17258D01*
X16928Y-20902D02*
X17131D01*
X17347Y-20649D02*
Y-21182D01*
Y-20649D02*
X17575D01*
X17651Y-20674D01*
X17677Y-20699D01*
X17702Y-20750D01*
Y-20801D01*
X17677Y-20852D01*
X17651Y-20877D01*
X17575Y-20902D01*
X17347D01*
X17524D02*
X17702Y-21182D01*
X17847Y-20826D02*
X17822Y-20852D01*
X17847Y-20877D01*
X17872Y-20852D01*
X17847Y-20826D01*
Y-21131D02*
X17822Y-21156D01*
X17847Y-21182D01*
X17872Y-21156D01*
X17847Y-21131D01*
X-2511Y-13249D02*
X-2841D01*
Y-13782D01*
X-2511D01*
X-2841Y-13502D02*
X-2638D01*
X-2422Y-13249D02*
Y-13782D01*
Y-13249D02*
X-2066Y-13782D01*
Y-13249D02*
Y-13782D01*
X-1538Y-13376D02*
X-1564Y-13325D01*
X-1614Y-13274D01*
X-1665Y-13249D01*
X-1767D01*
X-1818Y-13274D01*
X-1868Y-13325D01*
X-1894Y-13376D01*
X-1919Y-13452D01*
Y-13579D01*
X-1894Y-13655D01*
X-1868Y-13706D01*
X-1818Y-13756D01*
X-1767Y-13782D01*
X-1665D01*
X-1614Y-13756D01*
X-1564Y-13706D01*
X-1538Y-13655D01*
Y-13579D01*
X-1665D02*
X-1538D01*
X-1416Y-13249D02*
Y-13782D01*
X-1305Y-13249D02*
Y-13782D01*
Y-13249D02*
X-949Y-13782D01*
Y-13249D02*
Y-13782D01*
X-472Y-13249D02*
X-802D01*
Y-13782D01*
X-472D01*
X-802Y-13502D02*
X-599D01*
X-53Y-13249D02*
X-383D01*
Y-13782D01*
X-53D01*
X-383Y-13502D02*
X-180D01*
X36Y-13249D02*
Y-13782D01*
Y-13249D02*
X265D01*
X341Y-13274D01*
X366Y-13299D01*
X392Y-13350D01*
Y-13401D01*
X366Y-13452D01*
X341Y-13477D01*
X265Y-13502D01*
X36D01*
X214D02*
X392Y-13782D01*
X536Y-13426D02*
X511Y-13452D01*
X536Y-13477D01*
X562Y-13452D01*
X536Y-13426D01*
Y-13731D02*
X511Y-13756D01*
X536Y-13782D01*
X562Y-13756D01*
X536Y-13731D01*
X6159Y-18153D02*
X6388D01*
X6464Y-18127D01*
X6489Y-18102D01*
X6515Y-18051D01*
Y-17975D01*
X6489Y-17924D01*
X6464Y-17899D01*
X6388Y-17874D01*
X6159D01*
Y-18407D01*
X7040D02*
X6837Y-17874D01*
X6634Y-18407D01*
X6710Y-18229D02*
X6964D01*
X7165Y-17874D02*
Y-18407D01*
Y-17874D02*
X7393D01*
X7469Y-17899D01*
X7495Y-17924D01*
X7520Y-17975D01*
Y-18026D01*
X7495Y-18077D01*
X7469Y-18102D01*
X7393Y-18127D01*
X7165D01*
X7342D02*
X7520Y-18407D01*
X7817Y-17874D02*
Y-18407D01*
X7640Y-17874D02*
X7995D01*
X8477D02*
Y-18407D01*
Y-17874D02*
X8833Y-18407D01*
Y-17874D02*
Y-18407D01*
X9133Y-17874D02*
X9082Y-17899D01*
X9031Y-17950D01*
X9006Y-18001D01*
X8980Y-18077D01*
Y-18204D01*
X9006Y-18280D01*
X9031Y-18331D01*
X9082Y-18381D01*
X9133Y-18407D01*
X9234D01*
X9285Y-18381D01*
X9336Y-18331D01*
X9361Y-18280D01*
X9386Y-18204D01*
Y-18077D01*
X9361Y-18001D01*
X9336Y-17950D01*
X9285Y-17899D01*
X9234Y-17874D01*
X9133D01*
X9536Y-18356D02*
X9511Y-18381D01*
X9536Y-18407D01*
X9562Y-18381D01*
X9536Y-18356D01*
X9704Y-18051D02*
X9678Y-18077D01*
X9704Y-18102D01*
X9729Y-18077D01*
X9704Y-18051D01*
Y-18356D02*
X9678Y-18381D01*
X9704Y-18407D01*
X9729Y-18381D01*
X9704Y-18356D01*
X6212Y-13124D02*
Y-13657D01*
X6034Y-13124D02*
X6390D01*
X6453D02*
Y-13657D01*
X6743Y-13124D02*
Y-13657D01*
X6565Y-13124D02*
X6920D01*
X6984D02*
Y-13657D01*
X7289D01*
X7677Y-13124D02*
X7347D01*
Y-13657D01*
X7677D01*
X7347Y-13377D02*
X7550D01*
X7791Y-13301D02*
X7766Y-13327D01*
X7791Y-13352D01*
X7817Y-13327D01*
X7791Y-13301D01*
Y-13606D02*
X7766Y-13631D01*
X7791Y-13657D01*
X7817Y-13631D01*
X7791Y-13606D01*
X-2841Y-17049D02*
Y-17582D01*
Y-17049D02*
X-2663D01*
X-2587Y-17074D01*
X-2536Y-17125D01*
X-2511Y-17176D01*
X-2485Y-17252D01*
Y-17379D01*
X-2511Y-17455D01*
X-2536Y-17506D01*
X-2587Y-17556D01*
X-2663Y-17582D01*
X-2841D01*
X-2366Y-17226D02*
Y-17582D01*
Y-17379D02*
X-2341Y-17302D01*
X-2290Y-17252D01*
X-2239Y-17226D01*
X-2163D01*
X-1810D02*
Y-17582D01*
Y-17302D02*
X-1861Y-17252D01*
X-1911Y-17226D01*
X-1988D01*
X-2038Y-17252D01*
X-2089Y-17302D01*
X-2115Y-17379D01*
Y-17429D01*
X-2089Y-17506D01*
X-2038Y-17556D01*
X-1988Y-17582D01*
X-1911D01*
X-1861Y-17556D01*
X-1810Y-17506D01*
X-1668Y-17226D02*
X-1566Y-17582D01*
X-1465Y-17226D02*
X-1566Y-17582D01*
X-1465Y-17226D02*
X-1363Y-17582D01*
X-1261Y-17226D02*
X-1363Y-17582D01*
X-1137Y-17226D02*
Y-17582D01*
Y-17328D02*
X-1061Y-17252D01*
X-1010Y-17226D01*
X-934D01*
X-883Y-17252D01*
X-858Y-17328D01*
Y-17582D01*
X-299Y-17049D02*
Y-17582D01*
Y-17302D02*
X-248Y-17252D01*
X-198Y-17226D01*
X-121D01*
X-71Y-17252D01*
X-20Y-17302D01*
X6Y-17379D01*
Y-17429D01*
X-20Y-17506D01*
X-71Y-17556D01*
X-121Y-17582D01*
X-198D01*
X-248Y-17556D01*
X-299Y-17506D01*
X145Y-17226D02*
X298Y-17582D01*
X450Y-17226D02*
X298Y-17582D01*
X247Y-17683D01*
X196Y-17734D01*
X145Y-17760D01*
X120D01*
X564Y-17226D02*
X539Y-17252D01*
X564Y-17277D01*
X590Y-17252D01*
X564Y-17226D01*
Y-17531D02*
X539Y-17556D01*
X564Y-17582D01*
X590Y-17556D01*
X564Y-17531D01*
X-2841Y-20649D02*
Y-21182D01*
Y-20649D02*
X-2511D01*
X-2841Y-20902D02*
X-2638D01*
X-2450Y-20649D02*
Y-21182D01*
X-2338Y-20649D02*
Y-21182D01*
X-2033D01*
X-1645Y-20649D02*
X-1975D01*
Y-21182D01*
X-1645D01*
X-1975Y-20902D02*
X-1772D01*
X-1137Y-20649D02*
Y-21182D01*
Y-20649D02*
X-782Y-21182D01*
Y-20649D02*
Y-21182D01*
X-228D02*
X-431Y-20649D01*
X-634Y-21182D01*
X-558Y-21004D02*
X-304D01*
X-104Y-20649D02*
Y-21182D01*
Y-20649D02*
X100Y-21182D01*
X303Y-20649D02*
X100Y-21182D01*
X303Y-20649D02*
Y-21182D01*
X785Y-20649D02*
X455D01*
Y-21182D01*
X785D01*
X455Y-20902D02*
X658D01*
X899Y-20826D02*
X874Y-20852D01*
X899Y-20877D01*
X925Y-20852D01*
X899Y-20826D01*
Y-21131D02*
X874Y-21156D01*
X899Y-21182D01*
X925Y-21156D01*
X899Y-21131D01*
X34140Y-20776D02*
X34115Y-20725D01*
X34064Y-20674D01*
X34013Y-20649D01*
X33912D01*
X33861Y-20674D01*
X33810Y-20725D01*
X33785Y-20776D01*
X33759Y-20852D01*
Y-20979D01*
X33785Y-21055D01*
X33810Y-21106D01*
X33861Y-21156D01*
X33912Y-21182D01*
X34013D01*
X34064Y-21156D01*
X34115Y-21106D01*
X34140Y-21055D01*
Y-20979D01*
X34013D02*
X34140D01*
X34592Y-20649D02*
X34262D01*
Y-21182D01*
X34592D01*
X34262Y-20902D02*
X34465D01*
X34681Y-20649D02*
Y-21182D01*
Y-20649D02*
X34909D01*
X34986Y-20674D01*
X35011Y-20699D01*
X35036Y-20750D01*
Y-20801D01*
X35011Y-20852D01*
X34986Y-20877D01*
X34909Y-20902D01*
X34681D01*
X34859D02*
X35036Y-21182D01*
X35156Y-20649D02*
Y-21182D01*
Y-20649D02*
X35384D01*
X35460Y-20674D01*
X35486Y-20699D01*
X35511Y-20750D01*
Y-20801D01*
X35486Y-20852D01*
X35460Y-20877D01*
X35384Y-20902D01*
X35156D02*
X35384D01*
X35460Y-20928D01*
X35486Y-20953D01*
X35511Y-21004D01*
Y-21080D01*
X35486Y-21131D01*
X35460Y-21156D01*
X35384Y-21182D01*
X35156D01*
X35961Y-20649D02*
X35631D01*
Y-21182D01*
X35961D01*
X35631Y-20902D02*
X35834D01*
X36050Y-20649D02*
Y-21182D01*
Y-20649D02*
X36278D01*
X36354Y-20674D01*
X36380Y-20699D01*
X36405Y-20750D01*
Y-20801D01*
X36380Y-20852D01*
X36354Y-20877D01*
X36278Y-20902D01*
X36050D01*
X36227D02*
X36405Y-21182D01*
X36550Y-20826D02*
X36524Y-20852D01*
X36550Y-20877D01*
X36575Y-20852D01*
X36550Y-20826D01*
Y-21131D02*
X36524Y-21156D01*
X36550Y-21182D01*
X36575Y-21156D01*
X36550Y-21131D01*
D40*
X32307Y-18505D02*
X32358Y-18479D01*
X32434Y-18403D01*
Y-18936D01*
X32723Y-18530D02*
Y-18505D01*
X32749Y-18454D01*
X32774Y-18429D01*
X32825Y-18403D01*
X32926D01*
X32977Y-18429D01*
X33003Y-18454D01*
X33028Y-18505D01*
Y-18555D01*
X33003Y-18606D01*
X32952Y-18682D01*
X32698Y-18936D01*
X33053D01*
X33173Y-19013D02*
X33528Y-18403D01*
X33589Y-18530D02*
Y-18505D01*
X33615Y-18454D01*
X33640Y-18429D01*
X33691Y-18403D01*
X33792D01*
X33843Y-18429D01*
X33869Y-18454D01*
X33894Y-18505D01*
Y-18555D01*
X33869Y-18606D01*
X33818Y-18682D01*
X33564Y-18936D01*
X33919D01*
X34039Y-18505D02*
X34089Y-18479D01*
X34166Y-18403D01*
Y-18936D01*
X34430Y-19013D02*
X34785Y-18403D01*
X34846Y-18530D02*
Y-18505D01*
X34871Y-18454D01*
X34897Y-18429D01*
X34948Y-18403D01*
X35049D01*
X35100Y-18429D01*
X35125Y-18454D01*
X35151Y-18505D01*
Y-18555D01*
X35125Y-18606D01*
X35075Y-18682D01*
X34821Y-18936D01*
X35176D01*
X35448Y-18403D02*
X35372Y-18429D01*
X35321Y-18505D01*
X35296Y-18632D01*
Y-18708D01*
X35321Y-18835D01*
X35372Y-18911D01*
X35448Y-18936D01*
X35499D01*
X35575Y-18911D01*
X35626Y-18835D01*
X35651Y-18708D01*
Y-18632D01*
X35626Y-18505D01*
X35575Y-18429D01*
X35499Y-18403D01*
X35448D01*
X35770Y-18505D02*
X35821Y-18479D01*
X35897Y-18403D01*
Y-18936D01*
X36314Y-18403D02*
X36238Y-18429D01*
X36187Y-18505D01*
X36161Y-18632D01*
Y-18708D01*
X36187Y-18835D01*
X36238Y-18911D01*
X36314Y-18936D01*
X36365D01*
X36441Y-18911D01*
X36491Y-18835D01*
X36517Y-18708D01*
Y-18632D01*
X36491Y-18505D01*
X36441Y-18429D01*
X36365Y-18403D01*
X36314D01*
X25310Y-18750D02*
Y-18725D01*
X25335Y-18674D01*
X25360Y-18649D01*
X25411Y-18624D01*
X25513D01*
X25563Y-18649D01*
X25589Y-18674D01*
X25614Y-18725D01*
Y-18776D01*
X25589Y-18827D01*
X25538Y-18903D01*
X25284Y-19157D01*
X25640D01*
X25911Y-18624D02*
X25835Y-18649D01*
X25784Y-18725D01*
X25759Y-18852D01*
Y-18928D01*
X25784Y-19055D01*
X25835Y-19131D01*
X25911Y-19157D01*
X25962D01*
X26038Y-19131D01*
X26089Y-19055D01*
X26114Y-18928D01*
Y-18852D01*
X26089Y-18725D01*
X26038Y-18649D01*
X25962Y-18624D01*
X25911D01*
X26539Y-18877D02*
X26488Y-18827D01*
X26437Y-18801D01*
X26361D01*
X26310Y-18827D01*
X26259Y-18877D01*
X26234Y-18954D01*
Y-19004D01*
X26259Y-19081D01*
X26310Y-19131D01*
X26361Y-19157D01*
X26437D01*
X26488Y-19131D01*
X26539Y-19081D01*
X8190Y-11732D02*
X7825Y-10772D01*
X7459Y-11732D01*
X7596Y-11412D02*
X8053D01*
X8963Y-11229D02*
X8871Y-11138D01*
X8780Y-11092D01*
X8643D01*
X8552Y-11138D01*
X8460Y-11229D01*
X8414Y-11366D01*
Y-11458D01*
X8460Y-11595D01*
X8552Y-11686D01*
X8643Y-11732D01*
X8780D01*
X8871Y-11686D01*
X8963Y-11595D01*
X9306Y-10772D02*
Y-11549D01*
X9351Y-11686D01*
X9443Y-11732D01*
X9534D01*
X9169Y-11092D02*
X9488D01*
X9763Y-10772D02*
X9808Y-10818D01*
X9854Y-10772D01*
X9808Y-10726D01*
X9763Y-10772D01*
X9808Y-11092D02*
Y-11732D01*
X10023Y-11092D02*
X10297Y-11732D01*
X10572Y-11092D02*
X10297Y-11732D01*
X10727Y-11366D02*
X11276D01*
Y-11275D01*
X11230Y-11183D01*
X11184Y-11138D01*
X11093Y-11092D01*
X10956D01*
X10864Y-11138D01*
X10773Y-11229D01*
X10727Y-11366D01*
Y-11458D01*
X10773Y-11595D01*
X10864Y-11686D01*
X10956Y-11732D01*
X11093D01*
X11184Y-11686D01*
X11276Y-11595D01*
X12235Y-10772D02*
X12464Y-11732D01*
X12692Y-10772D02*
X12464Y-11732D01*
X12692Y-10772D02*
X12921Y-11732D01*
X13149Y-10772D02*
X12921Y-11732D01*
X13890Y-11092D02*
Y-11732D01*
Y-11229D02*
X13798Y-11138D01*
X13707Y-11092D01*
X13570D01*
X13478Y-11138D01*
X13387Y-11229D01*
X13341Y-11366D01*
Y-11458D01*
X13387Y-11595D01*
X13478Y-11686D01*
X13570Y-11732D01*
X13707D01*
X13798Y-11686D01*
X13890Y-11595D01*
X14146Y-11092D02*
X14420Y-11732D01*
X14694Y-11092D02*
X14420Y-11732D01*
X14850Y-11366D02*
X15398D01*
Y-11275D01*
X15352Y-11183D01*
X15307Y-11138D01*
X15215Y-11092D01*
X15078D01*
X14987Y-11138D01*
X14895Y-11229D01*
X14850Y-11366D01*
Y-11458D01*
X14895Y-11595D01*
X14987Y-11686D01*
X15078Y-11732D01*
X15215D01*
X15307Y-11686D01*
X15398Y-11595D01*
X14160Y-14400D02*
Y-15360D01*
X13840Y-14400D02*
X14480D01*
X15143Y-14720D02*
Y-15360D01*
Y-14857D02*
X15051Y-14766D01*
X14960Y-14720D01*
X14823D01*
X14731Y-14766D01*
X14640Y-14857D01*
X14594Y-14994D01*
Y-15086D01*
X14640Y-15223D01*
X14731Y-15314D01*
X14823Y-15360D01*
X14960D01*
X15051Y-15314D01*
X15143Y-15223D01*
X15947Y-14720D02*
Y-15451D01*
X15901Y-15589D01*
X15856Y-15634D01*
X15764Y-15680D01*
X15627D01*
X15536Y-15634D01*
X15947Y-14857D02*
X15856Y-14766D01*
X15764Y-14720D01*
X15627D01*
X15536Y-14766D01*
X15444Y-14857D01*
X15399Y-14994D01*
Y-15086D01*
X15444Y-15223D01*
X15536Y-15314D01*
X15627Y-15360D01*
X15764D01*
X15856Y-15314D01*
X15947Y-15223D01*
X16203Y-14583D02*
X16294Y-14537D01*
X16431Y-14400D01*
Y-15360D01*
X17181Y-14400D02*
X17044Y-14446D01*
X16952Y-14583D01*
X16907Y-14812D01*
Y-14949D01*
X16952Y-15177D01*
X17044Y-15314D01*
X17181Y-15360D01*
X17272D01*
X17410Y-15314D01*
X17501Y-15177D01*
X17547Y-14949D01*
Y-14812D01*
X17501Y-14583D01*
X17410Y-14446D01*
X17272Y-14400D01*
X17181D01*
X17853D02*
X18356D01*
X18081Y-14766D01*
X18218D01*
X18310Y-14812D01*
X18356Y-14857D01*
X18401Y-14994D01*
Y-15086D01*
X18356Y-15223D01*
X18264Y-15314D01*
X18127Y-15360D01*
X17990D01*
X17853Y-15314D01*
X17807Y-15269D01*
X17761Y-15177D01*
D46*
X1689Y7590D02*
D03*
X7989Y7540D02*
D03*
X13169Y7590D02*
D03*
X19469Y7540D02*
D03*
X24649Y7590D02*
D03*
X30949Y7540D02*
D03*
X1689Y18180D02*
D03*
X7989Y18130D02*
D03*
X13169Y18180D02*
D03*
X19469Y18130D02*
D03*
X24649Y18180D02*
D03*
X30949Y18130D02*
D03*
X1689Y28770D02*
D03*
X7989Y28720D02*
D03*
X13169Y28770D02*
D03*
X19469Y28720D02*
D03*
X24649Y28770D02*
D03*
X30949Y28720D02*
D03*
D47*
X609Y3690D02*
D03*
X9074D02*
D03*
X12089D02*
D03*
X20554D02*
D03*
X23569D02*
D03*
X32034D02*
D03*
X609Y14280D02*
D03*
X9074D02*
D03*
X12089D02*
D03*
X20554D02*
D03*
X23569D02*
D03*
X32034D02*
D03*
X609Y24870D02*
D03*
X9074D02*
D03*
X12089D02*
D03*
X20554D02*
D03*
X23569D02*
D03*
X32034D02*
D03*
D48*
X4839Y8390D02*
D03*
X16319D02*
D03*
X27799D02*
D03*
X4839Y18980D02*
D03*
X16319D02*
D03*
X27799D02*
D03*
X4839Y29570D02*
D03*
X16319D02*
D03*
X27799D02*
D03*
D49*
X4119Y2890D02*
D03*
X15599D02*
D03*
X27079D02*
D03*
X4119Y13480D02*
D03*
X15599D02*
D03*
X27079D02*
D03*
X4119Y24070D02*
D03*
X15599D02*
D03*
X27079D02*
D03*
M02*
