%FSLAX25Y25*%
%MOIN*%
G70*
G01*
G75*
G04 Layer_Color=8388736*
%ADD10R,0.03000X0.03000*%
%ADD11C,0.05000*%
%ADD12R,0.01550X0.05000*%
G04:AMPARAMS|DCode=13|XSize=39.37mil|YSize=9.84mil|CornerRadius=2.46mil|HoleSize=0mil|Usage=FLASHONLY|Rotation=0.000|XOffset=0mil|YOffset=0mil|HoleType=Round|Shape=RoundedRectangle|*
%AMROUNDEDRECTD13*
21,1,0.03937,0.00492,0,0,0.0*
21,1,0.03445,0.00984,0,0,0.0*
1,1,0.00492,0.01722,-0.00246*
1,1,0.00492,-0.01722,-0.00246*
1,1,0.00492,-0.01722,0.00246*
1,1,0.00492,0.01722,0.00246*
%
%ADD13ROUNDEDRECTD13*%
G04:AMPARAMS|DCode=14|XSize=39.37mil|YSize=9.84mil|CornerRadius=2.46mil|HoleSize=0mil|Usage=FLASHONLY|Rotation=90.000|XOffset=0mil|YOffset=0mil|HoleType=Round|Shape=RoundedRectangle|*
%AMROUNDEDRECTD14*
21,1,0.03937,0.00492,0,0,90.0*
21,1,0.03445,0.00984,0,0,90.0*
1,1,0.00492,0.00246,0.01722*
1,1,0.00492,0.00246,-0.01722*
1,1,0.00492,-0.00246,-0.01722*
1,1,0.00492,-0.00246,0.01722*
%
%ADD14ROUNDEDRECTD14*%
G04:AMPARAMS|DCode=15|XSize=25.59mil|YSize=9.84mil|CornerRadius=0mil|HoleSize=0mil|Usage=FLASHONLY|Rotation=90.000|XOffset=0mil|YOffset=0mil|HoleType=Round|Shape=Octagon|*
%AMOCTAGOND15*
4,1,8,0.00246,0.01280,-0.00246,0.01280,-0.00492,0.01034,-0.00492,-0.01034,-0.00246,-0.01280,0.00246,-0.01280,0.00492,-0.01034,0.00492,0.01034,0.00246,0.01280,0.0*
%
%ADD15OCTAGOND15*%

G04:AMPARAMS|DCode=16|XSize=25.59mil|YSize=9.84mil|CornerRadius=0mil|HoleSize=0mil|Usage=FLASHONLY|Rotation=180.000|XOffset=0mil|YOffset=0mil|HoleType=Round|Shape=Octagon|*
%AMOCTAGOND16*
4,1,8,-0.01280,0.00246,-0.01280,-0.00246,-0.01034,-0.00492,0.01034,-0.00492,0.01280,-0.00246,0.01280,0.00246,0.01034,0.00492,-0.01034,0.00492,-0.01280,0.00246,0.0*
%
%ADD16OCTAGOND16*%

%ADD17C,0.01000*%
%ADD18C,0.00800*%
%ADD19C,0.01200*%
%ADD20C,0.02000*%
%ADD21C,0.00500*%
%ADD22C,0.01500*%
%ADD23C,0.00900*%
%ADD24C,0.05200*%
%ADD25R,0.04000X0.06200*%
%ADD26O,0.04000X0.06200*%
%ADD27C,0.05500*%
%ADD28C,0.02600*%
%ADD29R,0.13000X0.34000*%
%ADD30C,0.06000*%
%ADD31C,0.07000*%
%ADD32R,0.03800X0.03800*%
%ADD33C,0.05800*%
%ADD34R,0.01850X0.05300*%
G04:AMPARAMS|DCode=35|XSize=43.37mil|YSize=13.84mil|CornerRadius=4.46mil|HoleSize=0mil|Usage=FLASHONLY|Rotation=0.000|XOffset=0mil|YOffset=0mil|HoleType=Round|Shape=RoundedRectangle|*
%AMROUNDEDRECTD35*
21,1,0.04337,0.00492,0,0,0.0*
21,1,0.03445,0.01384,0,0,0.0*
1,1,0.00892,0.01722,-0.00246*
1,1,0.00892,-0.01722,-0.00246*
1,1,0.00892,-0.01722,0.00246*
1,1,0.00892,0.01722,0.00246*
%
%ADD35ROUNDEDRECTD35*%
G04:AMPARAMS|DCode=36|XSize=43.37mil|YSize=13.84mil|CornerRadius=4.46mil|HoleSize=0mil|Usage=FLASHONLY|Rotation=90.000|XOffset=0mil|YOffset=0mil|HoleType=Round|Shape=RoundedRectangle|*
%AMROUNDEDRECTD36*
21,1,0.04337,0.00492,0,0,90.0*
21,1,0.03445,0.01384,0,0,90.0*
1,1,0.00892,0.00246,0.01722*
1,1,0.00892,0.00246,-0.01722*
1,1,0.00892,-0.00246,-0.01722*
1,1,0.00892,-0.00246,0.01722*
%
%ADD36ROUNDEDRECTD36*%
G04:AMPARAMS|DCode=37|XSize=29.19mil|YSize=13.44mil|CornerRadius=0mil|HoleSize=0mil|Usage=FLASHONLY|Rotation=90.000|XOffset=0mil|YOffset=0mil|HoleType=Round|Shape=Octagon|*
%AMOCTAGOND37*
4,1,8,0.00336,0.01460,-0.00336,0.01460,-0.00672,0.01124,-0.00672,-0.01124,-0.00336,-0.01460,0.00336,-0.01460,0.00672,-0.01124,0.00672,0.01124,0.00336,0.01460,0.0*
%
%ADD37OCTAGOND37*%

G04:AMPARAMS|DCode=38|XSize=29.19mil|YSize=13.44mil|CornerRadius=0mil|HoleSize=0mil|Usage=FLASHONLY|Rotation=180.000|XOffset=0mil|YOffset=0mil|HoleType=Round|Shape=Octagon|*
%AMOCTAGOND38*
4,1,8,-0.01460,0.00336,-0.01460,-0.00336,-0.01124,-0.00672,0.01124,-0.00672,0.01460,-0.00336,0.01460,0.00336,0.01124,0.00672,-0.01124,0.00672,-0.01460,0.00336,0.0*
%
%ADD38OCTAGOND38*%

%ADD39R,0.04400X0.06600*%
%ADD40O,0.04400X0.06600*%
%ADD41C,0.06300*%
%ADD42C,0.08000*%
%ADD43R,0.13800X0.34800*%
%ADD44C,0.00600*%
D17*
X348900Y-10300D02*
X364900Y-9800D01*
X348900Y-10300D02*
X364900Y-9800D01*
X348900Y-10300D02*
X364900Y-9800D01*
X348900Y-10300D02*
X364900Y-9800D01*
X348900Y-10300D02*
X364900Y-9800D01*
X348900Y-10300D02*
X354960Y-12112D01*
X348900Y-10300D02*
X354835Y-8114D01*
X347900Y308100D02*
X363900Y308600D01*
X347900Y308100D02*
X363900Y308600D01*
X347900Y308100D02*
X363900Y308600D01*
X347900Y308100D02*
X363900Y308600D01*
X347900Y308100D02*
X363900Y308600D01*
X347900Y308100D02*
X353959Y306288D01*
X347900Y308100D02*
X353835Y310286D01*
X-39200Y307700D02*
X-24700D01*
X-39200D02*
X-24700D01*
X-39200D02*
X-24700D01*
X-39200D02*
X-24700D01*
X-39200D02*
X-24700D01*
X-30700Y309700D02*
X-24700Y307700D01*
X-30700Y305700D02*
X-24700Y307700D01*
X-39200Y-11300D02*
X-24700D01*
X-39200D02*
X-24700D01*
X-39200D02*
X-24700D01*
X-39200D02*
X-24700D01*
X-39200D02*
X-24700D01*
X-30700Y-9300D02*
X-24700Y-11300D01*
X-30700Y-13300D02*
X-24700Y-11300D01*
X-40200Y22500D02*
X-25200D01*
X-40200D02*
X-25200D01*
X-40200D02*
X-25200D01*
X-40200D02*
X-25200D01*
X-40200D02*
X-25200D01*
X-31200Y24500D02*
X-25200Y22500D01*
X-31200Y20500D02*
X-25200Y22500D01*
X-40200Y272600D02*
X-25200D01*
X-40200D02*
X-25200D01*
X-40200D02*
X-25200D01*
X-40200D02*
X-25200D01*
X-40200D02*
X-25200D01*
X-31200Y274600D02*
X-25200Y272600D01*
X-31200Y270600D02*
X-25200Y272600D01*
X349200Y272999D02*
X367700D01*
X349200D02*
X367700D01*
X349200D02*
X367700D01*
X349200D02*
X367700D01*
X349200D02*
X367700D01*
X349200D02*
X355200Y270999D01*
X349200Y272999D02*
X355200Y274999D01*
X349500Y23700D02*
X368000D01*
X349500D02*
X368000D01*
X349500D02*
X368000D01*
X349500D02*
X368000D01*
X349500D02*
X368000D01*
X349500D02*
X355500Y21700D01*
X349500Y23700D02*
X355500Y25700D01*
X369000Y98700D02*
X369700D01*
X347700D02*
X369000D01*
X369700D01*
X369000D02*
X369700D01*
X369000D02*
X369700D01*
X369000D02*
X369700D01*
X347700D02*
X353700Y96700D01*
X347700Y98700D02*
X353700Y100700D01*
X323479Y-141828D02*
X318718D01*
X318242Y-146113D01*
X318718Y-145637D01*
X320147Y-145161D01*
X321575D01*
X323003Y-145637D01*
X323955Y-146589D01*
X324431Y-148017D01*
Y-148969D01*
X323955Y-150398D01*
X323003Y-151350D01*
X321575Y-151826D01*
X320147D01*
X318718Y-151350D01*
X318242Y-150874D01*
X317766Y-149922D01*
X326669Y-139924D02*
X327621Y-140876D01*
X328573Y-142304D01*
X329525Y-144209D01*
X330002Y-146589D01*
Y-148493D01*
X329525Y-150874D01*
X328573Y-152778D01*
X327621Y-154206D01*
X326669Y-155159D01*
X327621Y-140876D02*
X328573Y-142780D01*
X329049Y-144209D01*
X329525Y-146589D01*
Y-148493D01*
X329049Y-150874D01*
X328573Y-152302D01*
X327621Y-154206D01*
X340285Y-147065D02*
X344570D01*
X345998Y-146589D01*
X346474Y-146113D01*
X346950Y-145161D01*
Y-143733D01*
X346474Y-142780D01*
X345998Y-142304D01*
X344570Y-141828D01*
X340285D01*
Y-151826D01*
X354901Y-145161D02*
Y-151826D01*
Y-146589D02*
X353949Y-145637D01*
X352997Y-145161D01*
X351568D01*
X350616Y-145637D01*
X349664Y-146589D01*
X349188Y-148017D01*
Y-148969D01*
X349664Y-150398D01*
X350616Y-151350D01*
X351568Y-151826D01*
X352997D01*
X353949Y-151350D01*
X354901Y-150398D01*
X357567Y-145161D02*
Y-151826D01*
Y-147065D02*
X358995Y-145637D01*
X359948Y-145161D01*
X361376D01*
X362328Y-145637D01*
X362804Y-147065D01*
Y-151826D01*
X365423Y-148017D02*
X371136D01*
Y-147065D01*
X370660Y-146113D01*
X370183Y-145637D01*
X369231Y-145161D01*
X367803D01*
X366851Y-145637D01*
X365899Y-146589D01*
X365423Y-148017D01*
Y-148969D01*
X365899Y-150398D01*
X366851Y-151350D01*
X367803Y-151826D01*
X369231D01*
X370183Y-151350D01*
X371136Y-150398D01*
X373278Y-141828D02*
Y-151826D01*
X383228Y-141828D02*
Y-151826D01*
Y-141828D02*
X389418D01*
X383228Y-146589D02*
X387037D01*
X391512Y-141828D02*
X391988Y-142304D01*
X392464Y-141828D01*
X391988Y-141352D01*
X391512Y-141828D01*
X391988Y-145161D02*
Y-151826D01*
X399939Y-141828D02*
Y-151826D01*
Y-146589D02*
X398987Y-145637D01*
X398035Y-145161D01*
X396606D01*
X395654Y-145637D01*
X394702Y-146589D01*
X394226Y-148017D01*
Y-148969D01*
X394702Y-150398D01*
X395654Y-151350D01*
X396606Y-151826D01*
X398035D01*
X398987Y-151350D01*
X399939Y-150398D01*
X402605Y-145161D02*
Y-149922D01*
X403081Y-151350D01*
X404033Y-151826D01*
X405462D01*
X406414Y-151350D01*
X407842Y-149922D01*
Y-145161D02*
Y-151826D01*
X416174Y-146589D02*
X415222Y-145637D01*
X414269Y-145161D01*
X412841D01*
X411889Y-145637D01*
X410937Y-146589D01*
X410461Y-148017D01*
Y-148969D01*
X410937Y-150398D01*
X411889Y-151350D01*
X412841Y-151826D01*
X414269D01*
X415222Y-151350D01*
X416174Y-150398D01*
X419268Y-141828D02*
X419744Y-142304D01*
X420220Y-141828D01*
X419744Y-141352D01*
X419268Y-141828D01*
X419744Y-145161D02*
Y-151826D01*
X427695Y-145161D02*
Y-151826D01*
Y-146589D02*
X426743Y-145637D01*
X425791Y-145161D01*
X424362D01*
X423410Y-145637D01*
X422458Y-146589D01*
X421982Y-148017D01*
Y-148969D01*
X422458Y-150398D01*
X423410Y-151350D01*
X424362Y-151826D01*
X425791D01*
X426743Y-151350D01*
X427695Y-150398D01*
X430361Y-141828D02*
Y-151826D01*
X441263Y-141828D02*
X441740Y-142304D01*
X442216Y-141828D01*
X441740Y-141352D01*
X441263Y-141828D01*
X441740Y-145161D02*
Y-151826D01*
X449214Y-146589D02*
X448738Y-145637D01*
X447310Y-145161D01*
X445882D01*
X444453Y-145637D01*
X443977Y-146589D01*
X444453Y-147541D01*
X445405Y-148017D01*
X447786Y-148493D01*
X448738Y-148969D01*
X449214Y-149922D01*
Y-150398D01*
X448738Y-151350D01*
X447310Y-151826D01*
X445882D01*
X444453Y-151350D01*
X443977Y-150398D01*
X465830Y-141828D02*
X461069Y-151826D01*
X459164Y-141828D02*
X465830D01*
X473780D02*
X469019D01*
X468543Y-146113D01*
X469019Y-145637D01*
X470448Y-145161D01*
X471876D01*
X473304Y-145637D01*
X474256Y-146589D01*
X474732Y-148017D01*
Y-148969D01*
X474256Y-150398D01*
X473304Y-151350D01*
X471876Y-151826D01*
X470448D01*
X469019Y-151350D01*
X468543Y-150874D01*
X468067Y-149922D01*
X476970Y-145161D02*
Y-151826D01*
Y-147065D02*
X478398Y-145637D01*
X479351Y-145161D01*
X480779D01*
X481731Y-145637D01*
X482207Y-147065D01*
Y-151826D01*
Y-147065D02*
X483635Y-145637D01*
X484587Y-145161D01*
X486016D01*
X486968Y-145637D01*
X487444Y-147065D01*
Y-151826D01*
X491538Y-141828D02*
X492015Y-142304D01*
X492491Y-141828D01*
X492015Y-141352D01*
X491538Y-141828D01*
X492015Y-145161D02*
Y-151826D01*
X494252Y-141828D02*
Y-151826D01*
X504202Y-141828D02*
Y-151826D01*
Y-141828D02*
X507535D01*
X508963Y-142304D01*
X509915Y-143256D01*
X510392Y-144209D01*
X510868Y-145637D01*
Y-148017D01*
X510392Y-149445D01*
X509915Y-150398D01*
X508963Y-151350D01*
X507535Y-151826D01*
X504202D01*
X527626Y-143256D02*
X526674Y-142304D01*
X525246Y-141828D01*
X523341D01*
X521913Y-142304D01*
X520961Y-143256D01*
Y-144209D01*
X521437Y-145161D01*
X521913Y-145637D01*
X522865Y-146113D01*
X525722Y-147065D01*
X526674Y-147541D01*
X527150Y-148017D01*
X527626Y-148969D01*
Y-150398D01*
X526674Y-151350D01*
X525246Y-151826D01*
X523341D01*
X521913Y-151350D01*
X520961Y-150398D01*
X529864Y-141828D02*
Y-151826D01*
Y-141828D02*
X533672Y-151826D01*
X537481Y-141828D02*
X533672Y-151826D01*
X537481Y-141828D02*
Y-151826D01*
X543670Y-141828D02*
Y-151826D01*
X540338Y-141828D02*
X547003D01*
X556048Y-145161D02*
Y-151826D01*
Y-148017D02*
X556525Y-146589D01*
X557477Y-145637D01*
X558429Y-145161D01*
X559857D01*
X563142D02*
X562190Y-145637D01*
X561238Y-146589D01*
X560762Y-148017D01*
Y-148969D01*
X561238Y-150398D01*
X562190Y-151350D01*
X563142Y-151826D01*
X564570D01*
X565523Y-151350D01*
X566475Y-150398D01*
X566951Y-148969D01*
Y-148017D01*
X566475Y-146589D01*
X565523Y-145637D01*
X564570Y-145161D01*
X563142D01*
X569141D02*
Y-149922D01*
X569617Y-151350D01*
X570569Y-151826D01*
X571997D01*
X572950Y-151350D01*
X574378Y-149922D01*
Y-145161D02*
Y-151826D01*
X576996Y-145161D02*
Y-151826D01*
Y-147065D02*
X578425Y-145637D01*
X579377Y-145161D01*
X580805D01*
X581757Y-145637D01*
X582233Y-147065D01*
Y-151826D01*
X590565Y-141828D02*
Y-151826D01*
Y-146589D02*
X589613Y-145637D01*
X588660Y-145161D01*
X587232D01*
X586280Y-145637D01*
X585328Y-146589D01*
X584852Y-148017D01*
Y-148969D01*
X585328Y-150398D01*
X586280Y-151350D01*
X587232Y-151826D01*
X588660D01*
X589613Y-151350D01*
X590565Y-150398D01*
X601086Y-145161D02*
Y-155159D01*
Y-146589D02*
X602039Y-145637D01*
X602991Y-145161D01*
X604419D01*
X605371Y-145637D01*
X606323Y-146589D01*
X606799Y-148017D01*
Y-148969D01*
X606323Y-150398D01*
X605371Y-151350D01*
X604419Y-151826D01*
X602991D01*
X602039Y-151350D01*
X601086Y-150398D01*
X614655Y-145161D02*
Y-151826D01*
Y-146589D02*
X613703Y-145637D01*
X612751Y-145161D01*
X611322D01*
X610370Y-145637D01*
X609418Y-146589D01*
X608942Y-148017D01*
Y-148969D01*
X609418Y-150398D01*
X610370Y-151350D01*
X611322Y-151826D01*
X612751D01*
X613703Y-151350D01*
X614655Y-150398D01*
X623034Y-141828D02*
Y-151826D01*
Y-146589D02*
X622082Y-145637D01*
X621130Y-145161D01*
X619701D01*
X618749Y-145637D01*
X617797Y-146589D01*
X617321Y-148017D01*
Y-148969D01*
X617797Y-150398D01*
X618749Y-151350D01*
X619701Y-151826D01*
X621130D01*
X622082Y-151350D01*
X623034Y-150398D01*
X635936Y-145161D02*
X634984Y-145637D01*
X634032Y-146589D01*
X633556Y-148017D01*
Y-148969D01*
X634032Y-150398D01*
X634984Y-151350D01*
X635936Y-151826D01*
X637364D01*
X638316Y-151350D01*
X639269Y-150398D01*
X639745Y-148969D01*
Y-148017D01*
X639269Y-146589D01*
X638316Y-145637D01*
X637364Y-145161D01*
X635936D01*
X641935D02*
Y-151826D01*
Y-147065D02*
X643363Y-145637D01*
X644315Y-145161D01*
X645744D01*
X646696Y-145637D01*
X647172Y-147065D01*
Y-151826D01*
X657646Y-141828D02*
Y-151826D01*
Y-146589D02*
X658598Y-145637D01*
X659550Y-145161D01*
X660978D01*
X661931Y-145637D01*
X662883Y-146589D01*
X663359Y-148017D01*
Y-148969D01*
X662883Y-150398D01*
X661931Y-151350D01*
X660978Y-151826D01*
X659550D01*
X658598Y-151350D01*
X657646Y-150398D01*
X667882Y-145161D02*
X666929Y-145637D01*
X665977Y-146589D01*
X665501Y-148017D01*
Y-148969D01*
X665977Y-150398D01*
X666929Y-151350D01*
X667882Y-151826D01*
X669310D01*
X670262Y-151350D01*
X671214Y-150398D01*
X671690Y-148969D01*
Y-148017D01*
X671214Y-146589D01*
X670262Y-145637D01*
X669310Y-145161D01*
X667882D01*
X675309Y-141828D02*
Y-149922D01*
X675785Y-151350D01*
X676737Y-151826D01*
X677689D01*
X673880Y-145161D02*
X677213D01*
X679117Y-141828D02*
Y-151826D01*
Y-147065D02*
X680546Y-145637D01*
X681498Y-145161D01*
X682926D01*
X683878Y-145637D01*
X684354Y-147065D01*
Y-151826D01*
X700065Y-146589D02*
X699589Y-145637D01*
X698161Y-145161D01*
X696733D01*
X695304Y-145637D01*
X694828Y-146589D01*
X695304Y-147541D01*
X696256Y-148017D01*
X698637Y-148493D01*
X699589Y-148969D01*
X700065Y-149922D01*
Y-150398D01*
X699589Y-151350D01*
X698161Y-151826D01*
X696733D01*
X695304Y-151350D01*
X694828Y-150398D01*
X703112Y-141828D02*
X703588Y-142304D01*
X704064Y-141828D01*
X703588Y-141352D01*
X703112Y-141828D01*
X703588Y-145161D02*
Y-151826D01*
X711539Y-141828D02*
Y-151826D01*
Y-146589D02*
X710587Y-145637D01*
X709635Y-145161D01*
X708206D01*
X707254Y-145637D01*
X706302Y-146589D01*
X705826Y-148017D01*
Y-148969D01*
X706302Y-150398D01*
X707254Y-151350D01*
X708206Y-151826D01*
X709635D01*
X710587Y-151350D01*
X711539Y-150398D01*
X714205Y-148017D02*
X719918D01*
Y-147065D01*
X719442Y-146113D01*
X718966Y-145637D01*
X718014Y-145161D01*
X716585D01*
X715633Y-145637D01*
X714681Y-146589D01*
X714205Y-148017D01*
Y-148969D01*
X714681Y-150398D01*
X715633Y-151350D01*
X716585Y-151826D01*
X718014D01*
X718966Y-151350D01*
X719918Y-150398D01*
X727297Y-146589D02*
X726821Y-145637D01*
X725393Y-145161D01*
X723965D01*
X722537Y-145637D01*
X722060Y-146589D01*
X722537Y-147541D01*
X723489Y-148017D01*
X725869Y-148493D01*
X726821Y-148969D01*
X727297Y-149922D01*
Y-150398D01*
X726821Y-151350D01*
X725393Y-151826D01*
X723965D01*
X722537Y-151350D01*
X722060Y-150398D01*
X341647Y-166161D02*
X340694Y-166637D01*
X339742Y-167589D01*
X339266Y-169017D01*
Y-169969D01*
X339742Y-171398D01*
X340694Y-172350D01*
X341647Y-172826D01*
X343075D01*
X344027Y-172350D01*
X344979Y-171398D01*
X345455Y-169969D01*
Y-169017D01*
X344979Y-167589D01*
X344027Y-166637D01*
X343075Y-166161D01*
X341647D01*
X351454Y-162828D02*
X350502D01*
X349550Y-163304D01*
X349074Y-164733D01*
Y-172826D01*
X347645Y-166161D02*
X350978D01*
X360738Y-168065D02*
X365022D01*
X366451Y-167589D01*
X366927Y-167113D01*
X367403Y-166161D01*
Y-164733D01*
X366927Y-163780D01*
X366451Y-163304D01*
X365022Y-162828D01*
X360738D01*
Y-172826D01*
X376782Y-165209D02*
X376306Y-164256D01*
X375354Y-163304D01*
X374401Y-162828D01*
X372497D01*
X371545Y-163304D01*
X370593Y-164256D01*
X370117Y-165209D01*
X369641Y-166637D01*
Y-169017D01*
X370117Y-170446D01*
X370593Y-171398D01*
X371545Y-172350D01*
X372497Y-172826D01*
X374401D01*
X375354Y-172350D01*
X376306Y-171398D01*
X376782Y-170446D01*
X379591Y-162828D02*
Y-172826D01*
Y-162828D02*
X383876D01*
X385304Y-163304D01*
X385780Y-163780D01*
X386256Y-164733D01*
Y-165685D01*
X385780Y-166637D01*
X385304Y-167113D01*
X383876Y-167589D01*
X379591D02*
X383876D01*
X385304Y-168065D01*
X385780Y-168541D01*
X386256Y-169493D01*
Y-170922D01*
X385780Y-171874D01*
X385304Y-172350D01*
X383876Y-172826D01*
X379591D01*
X396349Y-166161D02*
X398253Y-172826D01*
X400158Y-166161D02*
X398253Y-172826D01*
X400158Y-166161D02*
X402062Y-172826D01*
X403967Y-166161D02*
X402062Y-172826D01*
X407252Y-162828D02*
X407728Y-163304D01*
X408204Y-162828D01*
X407728Y-162352D01*
X407252Y-162828D01*
X407728Y-166161D02*
Y-172826D01*
X411393Y-162828D02*
Y-170922D01*
X411870Y-172350D01*
X412822Y-172826D01*
X413774D01*
X409965Y-166161D02*
X413298D01*
X415202Y-162828D02*
Y-172826D01*
Y-168065D02*
X416631Y-166637D01*
X417583Y-166161D01*
X419011D01*
X419963Y-166637D01*
X420439Y-168065D01*
Y-172826D01*
X430913Y-164733D02*
X431865Y-164256D01*
X433294Y-162828D01*
Y-172826D01*
X443958Y-162828D02*
X439197D01*
X438721Y-167113D01*
X439197Y-166637D01*
X440625Y-166161D01*
X442054D01*
X443482Y-166637D01*
X444434Y-167589D01*
X444910Y-169017D01*
Y-169969D01*
X444434Y-171398D01*
X443482Y-172350D01*
X442054Y-172826D01*
X440625D01*
X439197Y-172350D01*
X438721Y-171874D01*
X438245Y-170922D01*
X450004Y-162828D02*
X448576Y-163304D01*
X447624Y-164733D01*
X447148Y-167113D01*
Y-168541D01*
X447624Y-170922D01*
X448576Y-172350D01*
X450004Y-172826D01*
X450956D01*
X452385Y-172350D01*
X453337Y-170922D01*
X453813Y-168541D01*
Y-167113D01*
X453337Y-164733D01*
X452385Y-163304D01*
X450956Y-162828D01*
X450004D01*
X456051Y-166161D02*
Y-172826D01*
Y-168065D02*
X457479Y-166637D01*
X458431Y-166161D01*
X459859D01*
X460812Y-166637D01*
X461288Y-168065D01*
Y-172826D01*
Y-168065D02*
X462716Y-166637D01*
X463668Y-166161D01*
X465096D01*
X466048Y-166637D01*
X466525Y-168065D01*
Y-172826D01*
X470619Y-162828D02*
X471095Y-163304D01*
X471571Y-162828D01*
X471095Y-162352D01*
X470619Y-162828D01*
X471095Y-166161D02*
Y-172826D01*
X473333Y-162828D02*
Y-172826D01*
X483283Y-162828D02*
Y-172826D01*
Y-162828D02*
X486616D01*
X488044Y-163304D01*
X488996Y-164256D01*
X489472Y-165209D01*
X489948Y-166637D01*
Y-169017D01*
X489472Y-170446D01*
X488996Y-171398D01*
X488044Y-172350D01*
X486616Y-172826D01*
X483283D01*
X505278Y-167589D02*
X504802Y-166637D01*
X503374Y-166161D01*
X501946D01*
X500517Y-166637D01*
X500041Y-167589D01*
X500517Y-168541D01*
X501470Y-169017D01*
X503850Y-169493D01*
X504802Y-169969D01*
X505278Y-170922D01*
Y-171398D01*
X504802Y-172350D01*
X503374Y-172826D01*
X501946D01*
X500517Y-172350D01*
X500041Y-171398D01*
X509753Y-166161D02*
X508801Y-166637D01*
X507849Y-167589D01*
X507373Y-169017D01*
Y-169969D01*
X507849Y-171398D01*
X508801Y-172350D01*
X509753Y-172826D01*
X511182D01*
X512134Y-172350D01*
X513086Y-171398D01*
X513562Y-169969D01*
Y-169017D01*
X513086Y-167589D01*
X512134Y-166637D01*
X511182Y-166161D01*
X509753D01*
X515752Y-162828D02*
Y-172826D01*
X523560Y-162828D02*
Y-172826D01*
Y-167589D02*
X522608Y-166637D01*
X521656Y-166161D01*
X520227D01*
X519275Y-166637D01*
X518323Y-167589D01*
X517847Y-169017D01*
Y-169969D01*
X518323Y-171398D01*
X519275Y-172350D01*
X520227Y-172826D01*
X521656D01*
X522608Y-172350D01*
X523560Y-171398D01*
X526226Y-169017D02*
X531939D01*
Y-168065D01*
X531463Y-167113D01*
X530987Y-166637D01*
X530035Y-166161D01*
X528607D01*
X527654Y-166637D01*
X526702Y-167589D01*
X526226Y-169017D01*
Y-169969D01*
X526702Y-171398D01*
X527654Y-172350D01*
X528607Y-172826D01*
X530035D01*
X530987Y-172350D01*
X531939Y-171398D01*
X534082Y-166161D02*
Y-172826D01*
Y-169017D02*
X534558Y-167589D01*
X535510Y-166637D01*
X536462Y-166161D01*
X537890D01*
X546650D02*
Y-172826D01*
Y-168065D02*
X548078Y-166637D01*
X549031Y-166161D01*
X550459D01*
X551411Y-166637D01*
X551887Y-168065D01*
Y-172826D01*
Y-168065D02*
X553315Y-166637D01*
X554268Y-166161D01*
X555696D01*
X556648Y-166637D01*
X557124Y-168065D01*
Y-172826D01*
X565979Y-166161D02*
Y-172826D01*
Y-167589D02*
X565027Y-166637D01*
X564075Y-166161D01*
X562647D01*
X561695Y-166637D01*
X560743Y-167589D01*
X560266Y-169017D01*
Y-169969D01*
X560743Y-171398D01*
X561695Y-172350D01*
X562647Y-172826D01*
X564075D01*
X565027Y-172350D01*
X565979Y-171398D01*
X573882Y-167589D02*
X573406Y-166637D01*
X571978Y-166161D01*
X570550D01*
X569122Y-166637D01*
X568646Y-167589D01*
X569122Y-168541D01*
X570074Y-169017D01*
X572454Y-169493D01*
X573406Y-169969D01*
X573882Y-170922D01*
Y-171398D01*
X573406Y-172350D01*
X571978Y-172826D01*
X570550D01*
X569122Y-172350D01*
X568646Y-171398D01*
X575977Y-162828D02*
Y-172826D01*
X580738Y-166161D02*
X575977Y-170922D01*
X577882Y-169017D02*
X581214Y-172826D01*
X596354Y-167589D02*
X595402Y-166637D01*
X594450Y-166161D01*
X593021D01*
X592069Y-166637D01*
X591117Y-167589D01*
X590641Y-169017D01*
Y-169969D01*
X591117Y-171398D01*
X592069Y-172350D01*
X593021Y-172826D01*
X594450D01*
X595402Y-172350D01*
X596354Y-171398D01*
X598496Y-162828D02*
Y-172826D01*
X600591Y-169017D02*
X606304D01*
Y-168065D01*
X605828Y-167113D01*
X605352Y-166637D01*
X604400Y-166161D01*
X602972D01*
X602019Y-166637D01*
X601067Y-167589D01*
X600591Y-169017D01*
Y-169969D01*
X601067Y-171398D01*
X602019Y-172350D01*
X602972Y-172826D01*
X604400D01*
X605352Y-172350D01*
X606304Y-171398D01*
X614160Y-166161D02*
Y-172826D01*
Y-167589D02*
X613207Y-166637D01*
X612255Y-166161D01*
X610827D01*
X609875Y-166637D01*
X608923Y-167589D01*
X608447Y-169017D01*
Y-169969D01*
X608923Y-171398D01*
X609875Y-172350D01*
X610827Y-172826D01*
X612255D01*
X613207Y-172350D01*
X614160Y-171398D01*
X616826Y-166161D02*
Y-172826D01*
Y-169017D02*
X617302Y-167589D01*
X618254Y-166637D01*
X619206Y-166161D01*
X620634D01*
X627252D02*
Y-172826D01*
Y-167589D02*
X626300Y-166637D01*
X625348Y-166161D01*
X623919D01*
X622967Y-166637D01*
X622015Y-167589D01*
X621539Y-169017D01*
Y-169969D01*
X622015Y-171398D01*
X622967Y-172350D01*
X623919Y-172826D01*
X625348D01*
X626300Y-172350D01*
X627252Y-171398D01*
X629918Y-166161D02*
Y-172826D01*
Y-168065D02*
X631346Y-166637D01*
X632299Y-166161D01*
X633727D01*
X634679Y-166637D01*
X635155Y-168065D01*
Y-172826D01*
X643487Y-167589D02*
X642534Y-166637D01*
X641582Y-166161D01*
X640154D01*
X639202Y-166637D01*
X638250Y-167589D01*
X637774Y-169017D01*
Y-169969D01*
X638250Y-171398D01*
X639202Y-172350D01*
X640154Y-172826D01*
X641582D01*
X642534Y-172350D01*
X643487Y-171398D01*
X645629Y-169017D02*
X651342D01*
Y-168065D01*
X650866Y-167113D01*
X650390Y-166637D01*
X649438Y-166161D01*
X648009D01*
X647057Y-166637D01*
X646105Y-167589D01*
X645629Y-169017D01*
Y-169969D01*
X646105Y-171398D01*
X647057Y-172350D01*
X648009Y-172826D01*
X649438D01*
X650390Y-172350D01*
X651342Y-171398D01*
X111000Y-174500D02*
Y-164503D01*
X115998D01*
X117665Y-166169D01*
Y-169502D01*
X115998Y-171168D01*
X111000D01*
X122663Y-167835D02*
X125995D01*
X127661Y-169502D01*
Y-174500D01*
X122663D01*
X120997Y-172834D01*
X122663Y-171168D01*
X127661D01*
X130993Y-174500D02*
Y-167835D01*
X135992D01*
X137658Y-169502D01*
Y-174500D01*
X145989D02*
X142656D01*
X140990Y-172834D01*
Y-169502D01*
X142656Y-167835D01*
X145989D01*
X147655Y-169502D01*
Y-171168D01*
X140990D01*
X150987Y-174500D02*
X154319D01*
X152653D01*
Y-164503D01*
X150987D01*
X0Y98803D02*
X107753D01*
Y-100D02*
Y98803D01*
X114695Y-172498D02*
X118632D01*
X0Y-100D02*
Y98800D01*
Y-100D02*
X107753D01*
X288306Y-137340D02*
G03*
X283406Y-132440I-4900J0D01*
G01*
X173240Y-132514D02*
G03*
X168240Y-137514I0J-5000D01*
G01*
X283306Y-127440D02*
G03*
X288306Y-122440I0J5000D01*
G01*
X168240Y-122514D02*
G03*
X173240Y-127514I5000J0D01*
G01*
X-136760Y-55014D02*
G03*
X-146760Y-65014I0J-10000D01*
G01*
Y-174914D02*
G03*
X-136837Y-185012I10100J0D01*
G01*
X293238Y-64957D02*
G03*
X283238Y-54957I-10000J0D01*
G01*
X288238Y-64857D02*
G03*
X283167Y-59960I-4900J0D01*
G01*
X283306Y-154940D02*
G03*
X288306Y-149940I0J5000D01*
G01*
X288240Y-164927D02*
G03*
X283240Y-160013I-5000J-87D01*
G01*
X158240Y-155014D02*
G03*
X163240Y-150014I0J5000D01*
G01*
X168240Y-150114D02*
G03*
X173225Y-155013I4900J0D01*
G01*
X163240Y-137414D02*
G03*
X158340Y-132514I-4900J0D01*
G01*
X-141760Y-175014D02*
G03*
X-136848Y-180013I5000J0D01*
G01*
X158327Y-127514D02*
G03*
X163241Y-122514I-87J5000D01*
G01*
X-136760Y-160014D02*
G03*
X-141760Y-165014I0J-5000D01*
G01*
X163240Y-90014D02*
G03*
X158240Y-85014I-5000J0D01*
G01*
Y-80014D02*
G03*
X163240Y-75014I0J5000D01*
G01*
X173240Y-60014D02*
G03*
X168240Y-65014I0J-5000D01*
G01*
X163240Y-65014D02*
G03*
X158240Y-60014I-5000J0D01*
G01*
X-136760Y-60014D02*
G03*
X-141760Y-65014I0J-5000D01*
G01*
Y-75014D02*
G03*
X-136760Y-80014I5000J0D01*
G01*
Y-85014D02*
G03*
X-141760Y-90014I0J-5000D01*
G01*
Y-112514D02*
G03*
X-136760Y-117514I5000J0D01*
G01*
Y-122514D02*
G03*
X-141760Y-127514I0J-5000D01*
G01*
X-141760Y-150014D02*
G03*
X-136848Y-155013I5000J0D01*
G01*
X-46760Y-85014D02*
G03*
X-51760Y-90014I0J-5000D01*
G01*
X-46760Y-132514D02*
G03*
X-51760Y-137514I0J-5000D01*
G01*
X128040Y-132514D02*
G03*
X123246Y-137565I0J-4800D01*
G01*
X123240Y-149914D02*
G03*
X128251Y-155013I5100J0D01*
G01*
X113340Y-155014D02*
G03*
X118239Y-150029I0J4900D01*
G01*
X118240Y-137414D02*
G03*
X113340Y-132514I-4900J0D01*
G01*
X-61660Y-155014D02*
G03*
X-56760Y-150114I0J4900D01*
G01*
X-51760D02*
G03*
X-46860Y-155014I4900J0D01*
G01*
X-51760Y-122614D02*
G03*
X-46860Y-127514I4900J0D01*
G01*
X-56760Y-127414D02*
G03*
X-61831Y-122517I-4900J0D01*
G01*
X-61560Y-117514D02*
G03*
X-56760Y-112714I0J4800D01*
G01*
Y-89914D02*
G03*
X-61660Y-85014I-4900J0D01*
G01*
X228240Y-160014D02*
G03*
X223240Y-165014I0J-5000D01*
G01*
Y-175114D02*
G03*
X228225Y-180013I4900J0D01*
G01*
X213356Y-180014D02*
G03*
X218238Y-175047I84J4800D01*
G01*
X218240Y-165014D02*
G03*
X213240Y-160014I-5000J0D01*
G01*
X40740Y-175014D02*
G03*
X45652Y-180013I5000J0D01*
G01*
X45740Y-160014D02*
G03*
X40740Y-165014I0J-5000D01*
G01*
X30856Y-180014D02*
G03*
X35738Y-175047I84J4800D01*
G01*
X35740Y-165014D02*
G03*
X30740Y-160014I-5000J0D01*
G01*
X283240Y-180014D02*
G03*
X288240Y-175014I0J5000D01*
G01*
X283240Y-185014D02*
G03*
X293240Y-175014I0J10000D01*
G01*
X45740Y-180014D02*
X213240D01*
X-136760Y-180014D02*
X30740D01*
X-136760Y-160014D02*
X30740D01*
X45740D02*
X213240D01*
X228240Y-180014D02*
X283240D01*
X228240Y-160014D02*
X283240D01*
X-136760Y-60014D02*
X158240D01*
X-136760Y-185014D02*
X283240D01*
X-136760Y-155014D02*
X-61760D01*
X-136760Y-122514D02*
X-61760D01*
X-136760Y-117514D02*
X-61760D01*
X-136760Y-85014D02*
X-61760D01*
X-136760Y-80014D02*
X158240D01*
X-46760Y-85014D02*
X158240D01*
X-46760Y-132514D02*
X113240D01*
X-46760Y-155014D02*
X113240D01*
X128240D02*
X158240D01*
X128240Y-132514D02*
X158240D01*
X173240Y-155014D02*
X283240D01*
X173240Y-60014D02*
X283240D01*
X-46760Y-127514D02*
X158240D01*
X173240D02*
X283240D01*
X173240Y-132514D02*
X283240D01*
X35740Y-175014D02*
Y-165014D01*
X40740Y-175014D02*
Y-165014D01*
X218240Y-175014D02*
Y-165014D01*
X223240Y-175014D02*
Y-165014D01*
X293240Y-175014D02*
Y-65014D01*
X-141760Y-150014D02*
Y-127514D01*
X-56760Y-150014D02*
Y-127514D01*
X-141760Y-112514D02*
Y-90014D01*
X-56760Y-112514D02*
Y-90014D01*
X-141760Y-75014D02*
Y-65014D01*
X163240Y-75014D02*
Y-65014D01*
Y-122514D02*
Y-90014D01*
X-51760Y-122514D02*
Y-90014D01*
X118240Y-150014D02*
Y-137514D01*
X-51760Y-150014D02*
Y-137514D01*
X123240Y-150014D02*
Y-137514D01*
X163240Y-150014D02*
Y-137514D01*
X-141760Y-175014D02*
Y-165014D01*
X-146760Y-175014D02*
Y-65014D01*
X168240Y-122514D02*
Y-65014D01*
X288240Y-122514D02*
Y-65014D01*
X168240Y-150014D02*
Y-137514D01*
X288306Y-149940D02*
Y-137340D01*
X-136760Y-55014D02*
X283240D01*
X288240Y-175014D02*
Y-165014D01*
X323027Y-120328D02*
X318266Y-126993D01*
X325408D01*
X323027Y-120328D02*
Y-130326D01*
X327169Y-118424D02*
X328121Y-119376D01*
X329073Y-120804D01*
X330026Y-122709D01*
X330502Y-125089D01*
Y-126993D01*
X330026Y-129374D01*
X329073Y-131278D01*
X328121Y-132706D01*
X327169Y-133659D01*
X328121Y-119376D02*
X329073Y-121280D01*
X329549Y-122709D01*
X330026Y-125089D01*
Y-126993D01*
X329549Y-129374D01*
X329073Y-130802D01*
X328121Y-132706D01*
X347926Y-122709D02*
X347450Y-121756D01*
X346498Y-120804D01*
X345546Y-120328D01*
X343642D01*
X342689Y-120804D01*
X341737Y-121756D01*
X341261Y-122709D01*
X340785Y-124137D01*
Y-126517D01*
X341261Y-127945D01*
X341737Y-128898D01*
X342689Y-129850D01*
X343642Y-130326D01*
X345546D01*
X346498Y-129850D01*
X347450Y-128898D01*
X347926Y-127945D01*
Y-126517D01*
X345546D02*
X347926D01*
X350212Y-123661D02*
Y-130326D01*
Y-126517D02*
X350688Y-125089D01*
X351640Y-124137D01*
X352592Y-123661D01*
X354020D01*
X354925Y-126517D02*
X360638D01*
Y-125565D01*
X360162Y-124613D01*
X359686Y-124137D01*
X358734Y-123661D01*
X357305D01*
X356353Y-124137D01*
X355401Y-125089D01*
X354925Y-126517D01*
Y-127470D01*
X355401Y-128898D01*
X356353Y-129850D01*
X357305Y-130326D01*
X358734D01*
X359686Y-129850D01*
X360638Y-128898D01*
X362780Y-126517D02*
X368494D01*
Y-125565D01*
X368017Y-124613D01*
X367541Y-124137D01*
X366589Y-123661D01*
X365161D01*
X364209Y-124137D01*
X363257Y-125089D01*
X362780Y-126517D01*
Y-127470D01*
X363257Y-128898D01*
X364209Y-129850D01*
X365161Y-130326D01*
X366589D01*
X367541Y-129850D01*
X368494Y-128898D01*
X370636Y-123661D02*
Y-130326D01*
Y-125565D02*
X372064Y-124137D01*
X373016Y-123661D01*
X374445D01*
X375397Y-124137D01*
X375873Y-125565D01*
Y-130326D01*
X393012Y-121756D02*
X392060Y-120804D01*
X390632Y-120328D01*
X388727D01*
X387299Y-120804D01*
X386347Y-121756D01*
Y-122709D01*
X386823Y-123661D01*
X387299Y-124137D01*
X388251Y-124613D01*
X391108Y-125565D01*
X392060Y-126041D01*
X392536Y-126517D01*
X393012Y-127470D01*
Y-128898D01*
X392060Y-129850D01*
X390632Y-130326D01*
X388727D01*
X387299Y-129850D01*
X386347Y-128898D01*
X397630Y-123661D02*
X396678Y-124137D01*
X395726Y-125089D01*
X395250Y-126517D01*
Y-127470D01*
X395726Y-128898D01*
X396678Y-129850D01*
X397630Y-130326D01*
X399058D01*
X400010Y-129850D01*
X400963Y-128898D01*
X401439Y-127470D01*
Y-126517D01*
X400963Y-125089D01*
X400010Y-124137D01*
X399058Y-123661D01*
X397630D01*
X403629Y-120328D02*
Y-130326D01*
X411437Y-120328D02*
Y-130326D01*
Y-125089D02*
X410485Y-124137D01*
X409532Y-123661D01*
X408104D01*
X407152Y-124137D01*
X406200Y-125089D01*
X405724Y-126517D01*
Y-127470D01*
X406200Y-128898D01*
X407152Y-129850D01*
X408104Y-130326D01*
X409532D01*
X410485Y-129850D01*
X411437Y-128898D01*
X414103Y-126517D02*
X419816D01*
Y-125565D01*
X419340Y-124613D01*
X418864Y-124137D01*
X417911Y-123661D01*
X416483D01*
X415531Y-124137D01*
X414579Y-125089D01*
X414103Y-126517D01*
Y-127470D01*
X414579Y-128898D01*
X415531Y-129850D01*
X416483Y-130326D01*
X417911D01*
X418864Y-129850D01*
X419816Y-128898D01*
X421958Y-123661D02*
Y-130326D01*
Y-126517D02*
X422434Y-125089D01*
X423386Y-124137D01*
X424339Y-123661D01*
X425767D01*
X434527Y-120328D02*
Y-130326D01*
Y-120328D02*
X438336Y-130326D01*
X442144Y-120328D02*
X438336Y-130326D01*
X442144Y-120328D02*
Y-130326D01*
X450714Y-123661D02*
Y-130326D01*
Y-125089D02*
X449762Y-124137D01*
X448810Y-123661D01*
X447381D01*
X446429Y-124137D01*
X445477Y-125089D01*
X445001Y-126517D01*
Y-127470D01*
X445477Y-128898D01*
X446429Y-129850D01*
X447381Y-130326D01*
X448810D01*
X449762Y-129850D01*
X450714Y-128898D01*
X458617Y-125089D02*
X458141Y-124137D01*
X456713Y-123661D01*
X455284D01*
X453856Y-124137D01*
X453380Y-125089D01*
X453856Y-126041D01*
X454808Y-126517D01*
X457189Y-126993D01*
X458141Y-127470D01*
X458617Y-128422D01*
Y-128898D01*
X458141Y-129850D01*
X456713Y-130326D01*
X455284D01*
X453856Y-129850D01*
X453380Y-128898D01*
X460712Y-120328D02*
Y-130326D01*
X465473Y-123661D02*
X460712Y-128422D01*
X462616Y-126517D02*
X465949Y-130326D01*
X475375Y-120328D02*
Y-130326D01*
Y-120328D02*
X479660D01*
X481088Y-120804D01*
X481565Y-121280D01*
X482041Y-122232D01*
Y-123185D01*
X481565Y-124137D01*
X481088Y-124613D01*
X479660Y-125089D01*
X475375D02*
X479660D01*
X481088Y-125565D01*
X481565Y-126041D01*
X482041Y-126993D01*
Y-128422D01*
X481565Y-129374D01*
X481088Y-129850D01*
X479660Y-130326D01*
X475375D01*
X486659Y-123661D02*
X485707Y-124137D01*
X484754Y-125089D01*
X484278Y-126517D01*
Y-127470D01*
X484754Y-128898D01*
X485707Y-129850D01*
X486659Y-130326D01*
X488087D01*
X489039Y-129850D01*
X489991Y-128898D01*
X490467Y-127470D01*
Y-126517D01*
X489991Y-125089D01*
X489039Y-124137D01*
X488087Y-123661D01*
X486659D01*
X494086Y-120328D02*
Y-128422D01*
X494562Y-129850D01*
X495514Y-130326D01*
X496466D01*
X492657Y-123661D02*
X495990D01*
X497894Y-120328D02*
Y-130326D01*
Y-125565D02*
X499323Y-124137D01*
X500275Y-123661D01*
X501703D01*
X502655Y-124137D01*
X503131Y-125565D01*
Y-130326D01*
X520270Y-121756D02*
X519318Y-120804D01*
X517890Y-120328D01*
X515986D01*
X514557Y-120804D01*
X513605Y-121756D01*
Y-122709D01*
X514081Y-123661D01*
X514557Y-124137D01*
X515510Y-124613D01*
X518366Y-125565D01*
X519318Y-126041D01*
X519794Y-126517D01*
X520270Y-127470D01*
Y-128898D01*
X519318Y-129850D01*
X517890Y-130326D01*
X515986D01*
X514557Y-129850D01*
X513605Y-128898D01*
X523460Y-120328D02*
X523936Y-120804D01*
X524412Y-120328D01*
X523936Y-119852D01*
X523460Y-120328D01*
X523936Y-123661D02*
Y-130326D01*
X531887Y-120328D02*
Y-130326D01*
Y-125089D02*
X530935Y-124137D01*
X529983Y-123661D01*
X528554D01*
X527602Y-124137D01*
X526650Y-125089D01*
X526174Y-126517D01*
Y-127470D01*
X526650Y-128898D01*
X527602Y-129850D01*
X528554Y-130326D01*
X529983D01*
X530935Y-129850D01*
X531887Y-128898D01*
X534553Y-126517D02*
X540266D01*
Y-125565D01*
X539790Y-124613D01*
X539314Y-124137D01*
X538362Y-123661D01*
X536934D01*
X535981Y-124137D01*
X535029Y-125089D01*
X534553Y-126517D01*
Y-127470D01*
X535029Y-128898D01*
X535981Y-129850D01*
X536934Y-130326D01*
X538362D01*
X539314Y-129850D01*
X540266Y-128898D01*
X547646Y-125089D02*
X547169Y-124137D01*
X545741Y-123661D01*
X544313D01*
X542885Y-124137D01*
X542409Y-125089D01*
X542885Y-126041D01*
X543837Y-126517D01*
X546217Y-126993D01*
X547169Y-127470D01*
X547646Y-128422D01*
Y-128898D01*
X547169Y-129850D01*
X545741Y-130326D01*
X544313D01*
X542885Y-129850D01*
X542409Y-128898D01*
X400874Y-37626D02*
Y-27629D01*
X407538Y-37626D01*
Y-27629D01*
X412537Y-37626D02*
X415869D01*
X417535Y-35960D01*
Y-32628D01*
X415869Y-30962D01*
X412537D01*
X410871Y-32628D01*
Y-35960D01*
X412537Y-37626D01*
X422533Y-29295D02*
Y-30962D01*
X420867D01*
X424199D01*
X422533D01*
Y-35960D01*
X424199Y-37626D01*
X434196D02*
X430864D01*
X429198Y-35960D01*
Y-32628D01*
X430864Y-30962D01*
X434196D01*
X435862Y-32628D01*
Y-34294D01*
X429198D01*
X439195Y-37626D02*
X444193D01*
X445859Y-35960D01*
X444193Y-34294D01*
X440861D01*
X439195Y-32628D01*
X440861Y-30962D01*
X445859D01*
X449192D02*
X450858D01*
Y-32628D01*
X449192D01*
Y-30962D01*
Y-35960D02*
X450858D01*
Y-37626D01*
X449192D01*
Y-35960D01*
X319372Y-60042D02*
X320324Y-59566D01*
X321753Y-58138D01*
Y-68135D01*
X326704Y-56233D02*
X327656Y-57185D01*
X328608Y-58614D01*
X329560Y-60518D01*
X330037Y-62898D01*
Y-64803D01*
X329560Y-67183D01*
X328608Y-69087D01*
X327656Y-70516D01*
X326704Y-71468D01*
X327656Y-57185D02*
X328608Y-59090D01*
X329084Y-60518D01*
X329560Y-62898D01*
Y-64803D01*
X329084Y-67183D01*
X328608Y-68611D01*
X327656Y-70516D01*
X343177Y-58138D02*
X341748Y-58614D01*
X340796Y-60042D01*
X340320Y-62422D01*
Y-63850D01*
X340796Y-66231D01*
X341748Y-67659D01*
X343177Y-68135D01*
X344129D01*
X345557Y-67659D01*
X346509Y-66231D01*
X346985Y-63850D01*
Y-62422D01*
X346509Y-60042D01*
X345557Y-58614D01*
X344129Y-58138D01*
X343177D01*
X349699Y-67183D02*
X349223Y-67659D01*
X349699Y-68135D01*
X350175Y-67659D01*
X349699Y-67183D01*
X355222Y-58138D02*
X353793Y-58614D01*
X352841Y-60042D01*
X352365Y-62422D01*
Y-63850D01*
X352841Y-66231D01*
X353793Y-67659D01*
X355222Y-68135D01*
X356174D01*
X357602Y-67659D01*
X358554Y-66231D01*
X359030Y-63850D01*
Y-62422D01*
X358554Y-60042D01*
X357602Y-58614D01*
X356174Y-58138D01*
X355222D01*
X362220D02*
X367457D01*
X364601Y-61946D01*
X366029D01*
X366981Y-62422D01*
X367457Y-62898D01*
X367933Y-64327D01*
Y-65279D01*
X367457Y-66707D01*
X366505Y-67659D01*
X365077Y-68135D01*
X363648D01*
X362220Y-67659D01*
X361744Y-67183D01*
X361268Y-66231D01*
X370171Y-60042D02*
X371123Y-59566D01*
X372551Y-58138D01*
Y-68135D01*
X377979Y-58138D02*
X377503Y-58614D01*
Y-61470D01*
X377979Y-58614D02*
X377503Y-61470D01*
X377979Y-58138D02*
X378455Y-58614D01*
X377503Y-61470D01*
X382263Y-58138D02*
X381787Y-58614D01*
Y-61470D01*
X382263Y-58614D02*
X381787Y-61470D01*
X382263Y-58138D02*
X382740Y-58614D01*
X381787Y-61470D01*
X396022Y-58138D02*
Y-68135D01*
X392690Y-58138D02*
X399355D01*
X400545D02*
Y-68135D01*
Y-63374D02*
X401973Y-61946D01*
X402926Y-61470D01*
X404354D01*
X405306Y-61946D01*
X405782Y-63374D01*
Y-68135D01*
X409353Y-58138D02*
X409829Y-58614D01*
X410305Y-58138D01*
X409829Y-57661D01*
X409353Y-58138D01*
X409829Y-61470D02*
Y-68135D01*
X417780Y-62898D02*
X416827Y-61946D01*
X415875Y-61470D01*
X414447D01*
X413495Y-61946D01*
X412543Y-62898D01*
X412067Y-64327D01*
Y-65279D01*
X412543Y-66707D01*
X413495Y-67659D01*
X414447Y-68135D01*
X415875D01*
X416827Y-67659D01*
X417780Y-66707D01*
X419922Y-58138D02*
Y-68135D01*
X424683Y-61470D02*
X419922Y-66231D01*
X421826Y-64327D02*
X425159Y-68135D01*
X435062Y-60518D02*
Y-60042D01*
X435538Y-59090D01*
X436014Y-58614D01*
X436966Y-58138D01*
X438870D01*
X439823Y-58614D01*
X440299Y-59090D01*
X440775Y-60042D01*
Y-60994D01*
X440299Y-61946D01*
X439347Y-63374D01*
X434586Y-68135D01*
X441251D01*
X451344Y-58138D02*
Y-68135D01*
X457057D01*
X463865Y-61470D02*
Y-68135D01*
Y-62898D02*
X462913Y-61946D01*
X461961Y-61470D01*
X460532D01*
X459580Y-61946D01*
X458628Y-62898D01*
X458152Y-64327D01*
Y-65279D01*
X458628Y-66707D01*
X459580Y-67659D01*
X460532Y-68135D01*
X461961D01*
X462913Y-67659D01*
X463865Y-66707D01*
X467007Y-61470D02*
X469864Y-68135D01*
X472720Y-61470D02*
X469864Y-68135D01*
X468912Y-70040D01*
X467959Y-70992D01*
X467007Y-71468D01*
X466531D01*
X474387Y-64327D02*
X480100D01*
Y-63374D01*
X479624Y-62422D01*
X479147Y-61946D01*
X478195Y-61470D01*
X476767D01*
X475815Y-61946D01*
X474863Y-62898D01*
X474387Y-64327D01*
Y-65279D01*
X474863Y-66707D01*
X475815Y-67659D01*
X476767Y-68135D01*
X478195D01*
X479147Y-67659D01*
X480100Y-66707D01*
X482242Y-61470D02*
Y-68135D01*
Y-64327D02*
X482718Y-62898D01*
X483670Y-61946D01*
X484622Y-61470D01*
X486051D01*
X501476Y-59566D02*
X500524Y-58614D01*
X499096Y-58138D01*
X497191D01*
X495763Y-58614D01*
X494811Y-59566D01*
Y-60518D01*
X495287Y-61470D01*
X495763Y-61946D01*
X496715Y-62422D01*
X499572Y-63374D01*
X500524Y-63850D01*
X501000Y-64327D01*
X501476Y-65279D01*
Y-66707D01*
X500524Y-67659D01*
X499096Y-68135D01*
X497191D01*
X495763Y-67659D01*
X494811Y-66707D01*
X509427Y-62898D02*
X508474Y-61946D01*
X507522Y-61470D01*
X506094D01*
X505142Y-61946D01*
X504190Y-62898D01*
X503714Y-64327D01*
Y-65279D01*
X504190Y-66707D01*
X505142Y-67659D01*
X506094Y-68135D01*
X507522D01*
X508474Y-67659D01*
X509427Y-66707D01*
X513949Y-61470D02*
X512997Y-61946D01*
X512045Y-62898D01*
X511569Y-64327D01*
Y-65279D01*
X512045Y-66707D01*
X512997Y-67659D01*
X513949Y-68135D01*
X515378D01*
X516330Y-67659D01*
X517282Y-66707D01*
X517758Y-65279D01*
Y-64327D01*
X517282Y-62898D01*
X516330Y-61946D01*
X515378Y-61470D01*
X513949D01*
X519948D02*
Y-68135D01*
Y-64327D02*
X520424Y-62898D01*
X521377Y-61946D01*
X522329Y-61470D01*
X523757D01*
X524661Y-64327D02*
X530375D01*
Y-63374D01*
X529899Y-62422D01*
X529422Y-61946D01*
X528470Y-61470D01*
X527042D01*
X526090Y-61946D01*
X525138Y-62898D01*
X524661Y-64327D01*
Y-65279D01*
X525138Y-66707D01*
X526090Y-67659D01*
X527042Y-68135D01*
X528470D01*
X529422Y-67659D01*
X530375Y-66707D01*
X538230Y-58138D02*
Y-68135D01*
Y-62898D02*
X537278Y-61946D01*
X536326Y-61470D01*
X534898D01*
X533945Y-61946D01*
X532993Y-62898D01*
X532517Y-64327D01*
Y-65279D01*
X532993Y-66707D01*
X533945Y-67659D01*
X534898Y-68135D01*
X536326D01*
X537278Y-67659D01*
X538230Y-66707D01*
X548752Y-63374D02*
X553036D01*
X554465Y-62898D01*
X554941Y-62422D01*
X555417Y-61470D01*
Y-60042D01*
X554941Y-59090D01*
X554465Y-58614D01*
X553036Y-58138D01*
X548752D01*
Y-68135D01*
X563368Y-61470D02*
Y-68135D01*
Y-62898D02*
X562415Y-61946D01*
X561463Y-61470D01*
X560035D01*
X559083Y-61946D01*
X558131Y-62898D01*
X557654Y-64327D01*
Y-65279D01*
X558131Y-66707D01*
X559083Y-67659D01*
X560035Y-68135D01*
X561463D01*
X562415Y-67659D01*
X563368Y-66707D01*
X566034Y-61470D02*
Y-68135D01*
Y-63374D02*
X567462Y-61946D01*
X568414Y-61470D01*
X569842D01*
X570794Y-61946D01*
X571271Y-63374D01*
Y-68135D01*
X573889Y-64327D02*
X579602D01*
Y-63374D01*
X579126Y-62422D01*
X578650Y-61946D01*
X577698Y-61470D01*
X576269D01*
X575317Y-61946D01*
X574365Y-62898D01*
X573889Y-64327D01*
Y-65279D01*
X574365Y-66707D01*
X575317Y-67659D01*
X576269Y-68135D01*
X577698D01*
X578650Y-67659D01*
X579602Y-66707D01*
X581745Y-58138D02*
Y-68135D01*
X318352Y-97802D02*
X323589D01*
X320733Y-101611D01*
X322161D01*
X323113Y-102087D01*
X323589Y-102563D01*
X324065Y-103991D01*
Y-104944D01*
X323589Y-106372D01*
X322637Y-107324D01*
X321209Y-107800D01*
X319780D01*
X318352Y-107324D01*
X317876Y-106848D01*
X317400Y-105896D01*
X326303Y-95898D02*
X327255Y-96850D01*
X328207Y-98278D01*
X329159Y-100183D01*
X329636Y-102563D01*
Y-104467D01*
X329159Y-106848D01*
X328207Y-108752D01*
X327255Y-110180D01*
X326303Y-111133D01*
X327255Y-96850D02*
X328207Y-98754D01*
X328683Y-100183D01*
X329159Y-102563D01*
Y-104467D01*
X328683Y-106848D01*
X328207Y-108276D01*
X327255Y-110180D01*
X347536Y-107800D02*
X343728Y-97802D01*
X339919Y-107800D01*
X341347Y-104467D02*
X346108D01*
X355582Y-97802D02*
Y-107800D01*
Y-102563D02*
X354630Y-101611D01*
X353678Y-101135D01*
X352250D01*
X351297Y-101611D01*
X350345Y-102563D01*
X349869Y-103991D01*
Y-104944D01*
X350345Y-106372D01*
X351297Y-107324D01*
X352250Y-107800D01*
X353678D01*
X354630Y-107324D01*
X355582Y-106372D01*
X363962Y-97802D02*
Y-107800D01*
Y-102563D02*
X363009Y-101611D01*
X362057Y-101135D01*
X360629D01*
X359677Y-101611D01*
X358724Y-102563D01*
X358248Y-103991D01*
Y-104944D01*
X358724Y-106372D01*
X359677Y-107324D01*
X360629Y-107800D01*
X362057D01*
X363009Y-107324D01*
X363962Y-106372D01*
X374483Y-97802D02*
X376864Y-107800D01*
X379244Y-97802D02*
X376864Y-107800D01*
X379244Y-97802D02*
X381624Y-107800D01*
X384005Y-97802D02*
X381624Y-107800D01*
X386004Y-97802D02*
Y-107800D01*
Y-103039D02*
X387433Y-101611D01*
X388385Y-101135D01*
X389813D01*
X390765Y-101611D01*
X391241Y-103039D01*
Y-107800D01*
X394812Y-97802D02*
X395288Y-98278D01*
X395764Y-97802D01*
X395288Y-97326D01*
X394812Y-97802D01*
X395288Y-101135D02*
Y-107800D01*
X398954Y-97802D02*
Y-105896D01*
X399430Y-107324D01*
X400382Y-107800D01*
X401334D01*
X397526Y-101135D02*
X400858D01*
X402763Y-103991D02*
X408476D01*
Y-103039D01*
X408000Y-102087D01*
X407523Y-101611D01*
X406571Y-101135D01*
X405143D01*
X404191Y-101611D01*
X403239Y-102563D01*
X402763Y-103991D01*
Y-104944D01*
X403239Y-106372D01*
X404191Y-107324D01*
X405143Y-107800D01*
X406571D01*
X407523Y-107324D01*
X408476Y-106372D01*
X425139Y-99230D02*
X424187Y-98278D01*
X422758Y-97802D01*
X420854D01*
X419426Y-98278D01*
X418474Y-99230D01*
Y-100183D01*
X418950Y-101135D01*
X419426Y-101611D01*
X420378Y-102087D01*
X423235Y-103039D01*
X424187Y-103515D01*
X424663Y-103991D01*
X425139Y-104944D01*
Y-106372D01*
X424187Y-107324D01*
X422758Y-107800D01*
X420854D01*
X419426Y-107324D01*
X418474Y-106372D01*
X428329Y-97802D02*
X428805Y-98278D01*
X429281Y-97802D01*
X428805Y-97326D01*
X428329Y-97802D01*
X428805Y-101135D02*
Y-107800D01*
X431042Y-97802D02*
Y-107800D01*
X433137Y-97802D02*
Y-107800D01*
X437898Y-101135D02*
X433137Y-105896D01*
X435041Y-103991D02*
X438374Y-107800D01*
X454466Y-99230D02*
X453514Y-98278D01*
X452085Y-97802D01*
X450181D01*
X448753Y-98278D01*
X447801Y-99230D01*
Y-100183D01*
X448277Y-101135D01*
X448753Y-101611D01*
X449705Y-102087D01*
X452562Y-103039D01*
X453514Y-103515D01*
X453990Y-103991D01*
X454466Y-104944D01*
Y-106372D01*
X453514Y-107324D01*
X452085Y-107800D01*
X450181D01*
X448753Y-107324D01*
X447801Y-106372D01*
X462417Y-102563D02*
X461464Y-101611D01*
X460512Y-101135D01*
X459084D01*
X458132Y-101611D01*
X457180Y-102563D01*
X456704Y-103991D01*
Y-104944D01*
X457180Y-106372D01*
X458132Y-107324D01*
X459084Y-107800D01*
X460512D01*
X461464Y-107324D01*
X462417Y-106372D01*
X464559Y-101135D02*
Y-107800D01*
Y-103991D02*
X465035Y-102563D01*
X465987Y-101611D01*
X466939Y-101135D01*
X468368D01*
X469272Y-103991D02*
X474985D01*
Y-103039D01*
X474509Y-102087D01*
X474033Y-101611D01*
X473081Y-101135D01*
X471653D01*
X470701Y-101611D01*
X469748Y-102563D01*
X469272Y-103991D01*
Y-104944D01*
X469748Y-106372D01*
X470701Y-107324D01*
X471653Y-107800D01*
X473081D01*
X474033Y-107324D01*
X474985Y-106372D01*
X477128Y-103991D02*
X482841D01*
Y-103039D01*
X482365Y-102087D01*
X481889Y-101611D01*
X480936Y-101135D01*
X479508D01*
X478556Y-101611D01*
X477604Y-102563D01*
X477128Y-103991D01*
Y-104944D01*
X477604Y-106372D01*
X478556Y-107324D01*
X479508Y-107800D01*
X480936D01*
X481889Y-107324D01*
X482841Y-106372D01*
X484983Y-101135D02*
Y-107800D01*
Y-103039D02*
X486411Y-101611D01*
X487364Y-101135D01*
X488792D01*
X489744Y-101611D01*
X490220Y-103039D01*
Y-107800D01*
X503551Y-97802D02*
X502598Y-98278D01*
X501646Y-99230D01*
X501170Y-100183D01*
X500694Y-101611D01*
Y-103991D01*
X501170Y-105420D01*
X501646Y-106372D01*
X502598Y-107324D01*
X503551Y-107800D01*
X505455D01*
X506407Y-107324D01*
X507359Y-106372D01*
X507835Y-105420D01*
X508312Y-103991D01*
Y-101611D01*
X507835Y-100183D01*
X507359Y-99230D01*
X506407Y-98278D01*
X505455Y-97802D01*
X503551D01*
X510644Y-101135D02*
X513501Y-107800D01*
X516357Y-101135D02*
X513501Y-107800D01*
X517976Y-103991D02*
X523689D01*
Y-103039D01*
X523213Y-102087D01*
X522737Y-101611D01*
X521785Y-101135D01*
X520357D01*
X519404Y-101611D01*
X518452Y-102563D01*
X517976Y-103991D01*
Y-104944D01*
X518452Y-106372D01*
X519404Y-107324D01*
X520357Y-107800D01*
X521785D01*
X522737Y-107324D01*
X523689Y-106372D01*
X525832Y-101135D02*
Y-107800D01*
Y-103991D02*
X526308Y-102563D01*
X527260Y-101611D01*
X528212Y-101135D01*
X529640D01*
X541733Y-97802D02*
Y-107800D01*
X538400Y-97802D02*
X545065D01*
X546256Y-103991D02*
X551969D01*
Y-103039D01*
X551493Y-102087D01*
X551017Y-101611D01*
X550064Y-101135D01*
X548636D01*
X547684Y-101611D01*
X546732Y-102563D01*
X546256Y-103991D01*
Y-104944D01*
X546732Y-106372D01*
X547684Y-107324D01*
X548636Y-107800D01*
X550064D01*
X551017Y-107324D01*
X551969Y-106372D01*
X554111Y-101135D02*
Y-107800D01*
Y-103039D02*
X555540Y-101611D01*
X556492Y-101135D01*
X557920D01*
X558872Y-101611D01*
X559348Y-103039D01*
Y-107800D01*
X563395Y-97802D02*
Y-105896D01*
X563871Y-107324D01*
X564823Y-107800D01*
X565775D01*
X561967Y-101135D02*
X565299D01*
X567204Y-103991D02*
X572917D01*
Y-103039D01*
X572441Y-102087D01*
X571965Y-101611D01*
X571012Y-101135D01*
X569584D01*
X568632Y-101611D01*
X567680Y-102563D01*
X567204Y-103991D01*
Y-104944D01*
X567680Y-106372D01*
X568632Y-107324D01*
X569584Y-107800D01*
X571012D01*
X571965Y-107324D01*
X572917Y-106372D01*
X580772Y-97802D02*
Y-107800D01*
Y-102563D02*
X579820Y-101611D01*
X578868Y-101135D01*
X577439D01*
X576487Y-101611D01*
X575535Y-102563D01*
X575059Y-103991D01*
Y-104944D01*
X575535Y-106372D01*
X576487Y-107324D01*
X577439Y-107800D01*
X578868D01*
X579820Y-107324D01*
X580772Y-106372D01*
X591294Y-97802D02*
X595102Y-107800D01*
X598911Y-97802D02*
X595102Y-107800D01*
X601149Y-97802D02*
X601625Y-98278D01*
X602101Y-97802D01*
X601625Y-97326D01*
X601149Y-97802D01*
X601625Y-101135D02*
Y-107800D01*
X609576Y-101135D02*
Y-107800D01*
Y-102563D02*
X608623Y-101611D01*
X607671Y-101135D01*
X606243D01*
X605291Y-101611D01*
X604339Y-102563D01*
X603862Y-103991D01*
Y-104944D01*
X604339Y-106372D01*
X605291Y-107324D01*
X606243Y-107800D01*
X607671D01*
X608623Y-107324D01*
X609576Y-106372D01*
X617479Y-102563D02*
X617002Y-101611D01*
X615574Y-101135D01*
X614146D01*
X612718Y-101611D01*
X612242Y-102563D01*
X612718Y-103515D01*
X613670Y-103991D01*
X616050Y-104467D01*
X617002Y-104944D01*
X617479Y-105896D01*
Y-106372D01*
X617002Y-107324D01*
X615574Y-107800D01*
X614146D01*
X612718Y-107324D01*
X612242Y-106372D01*
X322463Y-88942D02*
X315798D01*
X322463Y-82278D01*
Y-80612D01*
X320797Y-78946D01*
X317465D01*
X315798Y-80612D01*
X325795Y-88942D02*
X329128Y-85610D01*
Y-82278D01*
X325795Y-78946D01*
X344123Y-88942D02*
Y-78946D01*
X349121D01*
X350787Y-80612D01*
Y-83944D01*
X349121Y-85610D01*
X344123D01*
X347455D02*
X350787Y-88942D01*
X355785D02*
X359118D01*
X360784Y-87276D01*
Y-83944D01*
X359118Y-82278D01*
X355785D01*
X354119Y-83944D01*
Y-87276D01*
X355785Y-88942D01*
X364116Y-78946D02*
Y-88942D01*
Y-83944D01*
X370781D01*
Y-78946D01*
Y-88942D01*
X380777Y-80612D02*
X379111Y-78946D01*
X375779D01*
X374113Y-80612D01*
Y-82278D01*
X375779Y-83944D01*
X379111D01*
X380777Y-85610D01*
Y-87276D01*
X379111Y-88942D01*
X375779D01*
X374113Y-87276D01*
X400771Y-80612D02*
X399105Y-78946D01*
X395773D01*
X394107Y-80612D01*
Y-87276D01*
X395773Y-88942D01*
X399105D01*
X400771Y-87276D01*
X405769Y-88942D02*
X409102D01*
X410768Y-87276D01*
Y-83944D01*
X409102Y-82278D01*
X405769D01*
X404103Y-83944D01*
Y-87276D01*
X405769Y-88942D01*
X414100D02*
Y-82278D01*
X415766D01*
X417432Y-83944D01*
Y-88942D01*
Y-83944D01*
X419098Y-82278D01*
X420764Y-83944D01*
Y-88942D01*
X424097Y-92275D02*
Y-82278D01*
X429095D01*
X430761Y-83944D01*
Y-87276D01*
X429095Y-88942D01*
X424097D01*
X434094D02*
X437426D01*
X435760D01*
Y-78946D01*
X434094D01*
X442424Y-88942D02*
X445756D01*
X444090D01*
Y-82278D01*
X442424D01*
X452421D02*
X455753D01*
X457419Y-83944D01*
Y-88942D01*
X452421D01*
X450755Y-87276D01*
X452421Y-85610D01*
X457419D01*
X460752Y-88942D02*
Y-82278D01*
X465750D01*
X467416Y-83944D01*
Y-88942D01*
X472414Y-80612D02*
Y-82278D01*
X470748D01*
X474081D01*
X472414D01*
Y-87276D01*
X474081Y-88942D01*
X495740Y-78946D02*
X489076D01*
Y-83944D01*
X492408D01*
X489076D01*
Y-88942D01*
X499073D02*
Y-78946D01*
X504071D01*
X505737Y-80612D01*
Y-83944D01*
X504071Y-85610D01*
X499073D01*
X502405D02*
X505737Y-88942D01*
X514068D02*
Y-78946D01*
X509069Y-83944D01*
X515734D01*
X529063Y-88942D02*
Y-82278D01*
X530729D01*
X532395Y-83944D01*
Y-88942D01*
Y-83944D01*
X534061Y-82278D01*
X535727Y-83944D01*
Y-88942D01*
X540726Y-82278D02*
X544058D01*
X545724Y-83944D01*
Y-88942D01*
X540726D01*
X539060Y-87276D01*
X540726Y-85610D01*
X545724D01*
X550723Y-80612D02*
Y-82278D01*
X549056D01*
X552389D01*
X550723D01*
Y-87276D01*
X552389Y-88942D01*
X562385D02*
X559053D01*
X557387Y-87276D01*
Y-83944D01*
X559053Y-82278D01*
X562385D01*
X564051Y-83944D01*
Y-85610D01*
X557387D01*
X567384Y-82278D02*
Y-88942D01*
Y-85610D01*
X569050Y-83944D01*
X570716Y-82278D01*
X572382D01*
X577381Y-88942D02*
X580713D01*
X579047D01*
Y-82278D01*
X577381D01*
X587377D02*
X590710D01*
X592376Y-83944D01*
Y-88942D01*
X587377D01*
X585711Y-87276D01*
X587377Y-85610D01*
X592376D01*
X595708Y-88942D02*
X599040D01*
X597374D01*
Y-78946D01*
X595708D01*
X614035Y-88942D02*
X620700Y-82278D01*
X624032D02*
Y-87276D01*
X625698Y-88942D01*
X627364Y-87276D01*
X629031Y-88942D01*
X630697Y-87276D01*
Y-82278D01*
X644026Y-88942D02*
X647358D01*
X645692D01*
Y-78946D01*
X644026Y-80612D01*
X654023Y-88942D02*
X657355D01*
X659021Y-87276D01*
Y-83944D01*
X657355Y-82278D01*
X654023D01*
X652356Y-83944D01*
Y-87276D01*
X654023Y-88942D01*
X662353Y-82278D02*
X669018D01*
X662353Y-88942D01*
X669018D01*
X672350D02*
Y-87276D01*
X674016D01*
Y-88942D01*
X672350D01*
X697342Y-82278D02*
X692343D01*
X690677Y-83944D01*
Y-87276D01*
X692343Y-88942D01*
X697342D01*
X702340D02*
X705672D01*
X707339Y-87276D01*
Y-83944D01*
X705672Y-82278D01*
X702340D01*
X700674Y-83944D01*
Y-87276D01*
X702340Y-88942D01*
X710671Y-92275D02*
Y-82278D01*
X715669D01*
X717335Y-83944D01*
Y-87276D01*
X715669Y-88942D01*
X710671D01*
X720668Y-92275D02*
Y-82278D01*
X725666D01*
X727332Y-83944D01*
Y-87276D01*
X725666Y-88942D01*
X720668D01*
X735663D02*
X732331D01*
X730664Y-87276D01*
Y-83944D01*
X732331Y-82278D01*
X735663D01*
X737329Y-83944D01*
Y-85610D01*
X730664D01*
X740661Y-82278D02*
Y-88942D01*
Y-85610D01*
X742327Y-83944D01*
X743993Y-82278D01*
X745659D01*
D18*
X217303Y-140947D02*
X216589Y-141185D01*
X216113Y-141900D01*
X215875Y-143090D01*
Y-143804D01*
X216113Y-144994D01*
X216589Y-145708D01*
X217303Y-145946D01*
X217779D01*
X218493Y-145708D01*
X218969Y-144994D01*
X219207Y-143804D01*
Y-143090D01*
X218969Y-141900D01*
X218493Y-141185D01*
X217779Y-140947D01*
X217303D01*
X221516D02*
X220802Y-141185D01*
X220564Y-141661D01*
Y-142138D01*
X220802Y-142614D01*
X221278Y-142852D01*
X222230Y-143090D01*
X222944Y-143328D01*
X223421Y-143804D01*
X223659Y-144280D01*
Y-144994D01*
X223421Y-145470D01*
X223183Y-145708D01*
X222468Y-145946D01*
X221516D01*
X220802Y-145708D01*
X220564Y-145470D01*
X220326Y-144994D01*
Y-144280D01*
X220564Y-143804D01*
X221040Y-143328D01*
X221754Y-143090D01*
X222707Y-142852D01*
X223183Y-142614D01*
X223421Y-142138D01*
Y-141661D01*
X223183Y-141185D01*
X222468Y-140947D01*
X221516D01*
X224778Y-146660D02*
X228110Y-140947D01*
X228443Y-141900D02*
X228919Y-141661D01*
X229634Y-140947D01*
Y-145946D01*
X233299Y-140947D02*
X232585Y-141185D01*
X232347Y-141661D01*
Y-142138D01*
X232585Y-142614D01*
X233061Y-142852D01*
X234014Y-143090D01*
X234728Y-143328D01*
X235204Y-143804D01*
X235442Y-144280D01*
Y-144994D01*
X235204Y-145470D01*
X234966Y-145708D01*
X234252Y-145946D01*
X233299D01*
X232585Y-145708D01*
X232347Y-145470D01*
X232109Y-144994D01*
Y-144280D01*
X232347Y-143804D01*
X232823Y-143328D01*
X233538Y-143090D01*
X234490Y-142852D01*
X234966Y-142614D01*
X235204Y-142138D01*
Y-141661D01*
X234966Y-141185D01*
X234252Y-140947D01*
X233299D01*
X236561Y-146660D02*
X239893Y-140947D01*
X240465Y-142138D02*
Y-141900D01*
X240703Y-141423D01*
X240941Y-141185D01*
X241417Y-140947D01*
X242369D01*
X242845Y-141185D01*
X243083Y-141423D01*
X243321Y-141900D01*
Y-142376D01*
X243083Y-142852D01*
X242607Y-143566D01*
X240227Y-145946D01*
X243559D01*
X246106Y-140947D02*
X245392Y-141185D01*
X244916Y-141900D01*
X244678Y-143090D01*
Y-143804D01*
X244916Y-144994D01*
X245392Y-145708D01*
X246106Y-145946D01*
X246582D01*
X247297Y-145708D01*
X247773Y-144994D01*
X248011Y-143804D01*
Y-143090D01*
X247773Y-141900D01*
X247297Y-141185D01*
X246582Y-140947D01*
X246106D01*
X249129Y-141900D02*
X249605Y-141661D01*
X250320Y-140947D01*
Y-145946D01*
X252795Y-141900D02*
X253271Y-141661D01*
X253986Y-140947D01*
Y-145946D01*
X-87520Y-128501D02*
Y-132310D01*
X-87758Y-133024D01*
X-87996Y-133262D01*
X-88472Y-133500D01*
X-88948D01*
X-89424Y-133262D01*
X-89662Y-133024D01*
X-89900Y-132310D01*
Y-131834D01*
X-82664Y-129691D02*
X-82902Y-129215D01*
X-83378Y-128739D01*
X-83854Y-128501D01*
X-84806D01*
X-85282Y-128739D01*
X-85758Y-129215D01*
X-85996Y-129691D01*
X-86234Y-130405D01*
Y-131596D01*
X-85996Y-132310D01*
X-85758Y-132786D01*
X-85282Y-133262D01*
X-84806Y-133500D01*
X-83854D01*
X-83378Y-133262D01*
X-82902Y-132786D01*
X-82664Y-132310D01*
X-81259Y-128501D02*
Y-133500D01*
Y-128501D02*
X-79355Y-133500D01*
X-77450Y-128501D02*
X-79355Y-133500D01*
X-77450Y-128501D02*
Y-133500D01*
X-72094Y-128501D02*
Y-133500D01*
X-71047Y-128501D02*
Y-133500D01*
X-96520Y-90501D02*
Y-94310D01*
X-96758Y-95024D01*
X-96996Y-95262D01*
X-97472Y-95500D01*
X-97948D01*
X-98424Y-95262D01*
X-98662Y-95024D01*
X-98900Y-94310D01*
Y-93834D01*
X-91663Y-91691D02*
X-91901Y-91215D01*
X-92378Y-90739D01*
X-92854Y-90501D01*
X-93806D01*
X-94282Y-90739D01*
X-94758Y-91215D01*
X-94996Y-91691D01*
X-95234Y-92405D01*
Y-93596D01*
X-94996Y-94310D01*
X-94758Y-94786D01*
X-94282Y-95262D01*
X-93806Y-95500D01*
X-92854D01*
X-92378Y-95262D01*
X-91901Y-94786D01*
X-91663Y-94310D01*
X-90259Y-90501D02*
Y-95500D01*
Y-90501D02*
X-88355Y-95500D01*
X-86450Y-90501D02*
X-88355Y-95500D01*
X-86450Y-90501D02*
Y-95500D01*
X-81094Y-90501D02*
Y-95500D01*
X-80047Y-90501D02*
Y-95500D01*
X398372Y-42569D02*
X455872D01*
D21*
X-5100Y23000D02*
G03*
X-5100Y23000I-6000J0D01*
G01*
X340500D02*
G03*
X340500Y23000I-6000J0D01*
G01*
Y273500D02*
G03*
X340500Y273500I-6000J0D01*
G01*
X-5100D02*
G03*
X-5100Y273500I-6000J0D01*
G01*
Y-11200D02*
G03*
X-5100Y-11200I-6000J0D01*
G01*
Y307700D02*
G03*
X-5100Y307700I-6000J0D01*
G01*
X340500D02*
G03*
X340500Y307700I-6000J0D01*
G01*
Y-11200D02*
G03*
X340500Y-11200I-6000J0D01*
G01*
X0Y98867D02*
X107753D01*
Y-33D02*
Y98867D01*
X-47Y-33D02*
Y98867D01*
X0Y-33D02*
X107800D01*
X323400Y197700D02*
Y296600D01*
X215600D02*
X323400D01*
X215600Y197700D02*
Y296600D01*
X107800D02*
X215600D01*
X107800Y197700D02*
Y296600D01*
X0Y197700D02*
Y296600D01*
X107800D01*
X323400Y98800D02*
Y197700D01*
X215600D02*
X323400D01*
X215600Y98800D02*
Y197700D01*
X107800D02*
X215600D01*
X107800Y98800D02*
Y197700D01*
X0Y98800D02*
Y197700D01*
X107800D01*
X323400Y-100D02*
Y98800D01*
X215600Y-100D02*
X323400D01*
X215600Y98800D02*
X323400D01*
X215600Y-100D02*
Y98800D01*
X107800Y-100D02*
X215600D01*
X107800Y98800D02*
X215600D01*
X107800Y-100D02*
Y98800D01*
X0Y-100D02*
X107800D01*
X0D02*
Y98800D01*
X107800D01*
X-22200Y-22300D02*
Y318800D01*
X345600D01*
Y-22300D02*
Y318800D01*
X-22200Y-22300D02*
X345600D01*
X-22167Y98867D02*
X-47D01*
X-22200Y197700D02*
X0D01*
X-22200Y296600D02*
X0D01*
Y318800D01*
X107800Y296600D02*
Y318800D01*
X215600Y296600D02*
Y318800D01*
X323400Y296600D02*
Y318800D01*
Y296600D02*
X345600D01*
X323400Y197700D02*
X345600D01*
X323400Y98800D02*
X345500D01*
X323400Y-100D02*
X345600D01*
X323400Y-22300D02*
Y-100D01*
X215600Y-22300D02*
Y-100D01*
X107800Y-22300D02*
Y-100D01*
X0Y-22300D02*
Y-100D01*
X-22167Y-33D02*
X0D01*
X173240Y-136265D02*
Y-141264D01*
Y-136265D02*
X174906D01*
X175620Y-136503D01*
X176096Y-136979D01*
X176334Y-137455D01*
X176572Y-138170D01*
Y-139360D01*
X176334Y-140074D01*
X176096Y-140550D01*
X175620Y-141026D01*
X174906Y-141264D01*
X173240D01*
X181500D02*
X179595Y-136265D01*
X177691Y-141264D01*
X178405Y-139598D02*
X180786D01*
X184333Y-136265D02*
Y-141264D01*
X182666Y-136265D02*
X185999D01*
X189689D02*
X186594D01*
Y-141264D01*
X189689D01*
X186594Y-138646D02*
X188498D01*
X190760Y-137931D02*
X190522Y-138170D01*
X190760Y-138408D01*
X190998Y-138170D01*
X190760Y-137931D01*
Y-140788D02*
X190522Y-141026D01*
X190760Y-141264D01*
X190998Y-141026D01*
X190760Y-140788D01*
X126990Y-136265D02*
Y-141264D01*
Y-136265D02*
X129132D01*
X129846Y-136503D01*
X130084Y-136741D01*
X130322Y-137217D01*
Y-137693D01*
X130084Y-138170D01*
X129846Y-138408D01*
X129132Y-138646D01*
X126990D01*
X128656D02*
X130322Y-141264D01*
X134536Y-136265D02*
X131441D01*
Y-141264D01*
X134536D01*
X131441Y-138646D02*
X133345D01*
X135369Y-136265D02*
X137273Y-141264D01*
X139178Y-136265D02*
X137273Y-141264D01*
X140058Y-137931D02*
X139820Y-138170D01*
X140058Y-138408D01*
X140296Y-138170D01*
X140058Y-137931D01*
Y-140788D02*
X139820Y-141026D01*
X140058Y-141264D01*
X140296Y-141026D01*
X140058Y-140788D01*
X-136760Y-111384D02*
X-134618D01*
X-133904Y-111146D01*
X-133666Y-110907D01*
X-133428Y-110431D01*
Y-109717D01*
X-133666Y-109241D01*
X-133904Y-109003D01*
X-134618Y-108765D01*
X-136760D01*
Y-113764D01*
X-132309Y-108765D02*
Y-113764D01*
X-128976Y-108765D02*
Y-113764D01*
X-132309Y-111146D02*
X-128976D01*
X-126167Y-108765D02*
X-126644Y-109003D01*
X-127120Y-109479D01*
X-127358Y-109955D01*
X-127596Y-110670D01*
Y-111860D01*
X-127358Y-112574D01*
X-127120Y-113050D01*
X-126644Y-113526D01*
X-126167Y-113764D01*
X-125215D01*
X-124739Y-113526D01*
X-124263Y-113050D01*
X-124025Y-112574D01*
X-123787Y-111860D01*
Y-110670D01*
X-124025Y-109955D01*
X-124263Y-109479D01*
X-124739Y-109003D01*
X-125215Y-108765D01*
X-126167D01*
X-122621D02*
Y-113764D01*
Y-108765D02*
X-119288Y-113764D01*
Y-108765D02*
Y-113764D01*
X-114813Y-108765D02*
X-117907D01*
Y-113764D01*
X-114813D01*
X-117907Y-111146D02*
X-116003D01*
X-113742Y-110431D02*
X-113980Y-110670D01*
X-113742Y-110907D01*
X-113504Y-110670D01*
X-113742Y-110431D01*
Y-113288D02*
X-113980Y-113526D01*
X-113742Y-113764D01*
X-113504Y-113526D01*
X-113742Y-113288D01*
X-136760Y-148884D02*
X-134618D01*
X-133904Y-148646D01*
X-133666Y-148407D01*
X-133428Y-147931D01*
Y-147217D01*
X-133666Y-146741D01*
X-133904Y-146503D01*
X-134618Y-146265D01*
X-136760D01*
Y-151264D01*
X-132309Y-146265D02*
Y-151264D01*
X-128976Y-146265D02*
Y-151264D01*
X-132309Y-148646D02*
X-128976D01*
X-126167Y-146265D02*
X-126644Y-146503D01*
X-127120Y-146979D01*
X-127358Y-147455D01*
X-127596Y-148170D01*
Y-149360D01*
X-127358Y-150074D01*
X-127120Y-150550D01*
X-126644Y-151026D01*
X-126167Y-151264D01*
X-125215D01*
X-124739Y-151026D01*
X-124263Y-150550D01*
X-124025Y-150074D01*
X-123787Y-149360D01*
Y-148170D01*
X-124025Y-147455D01*
X-124263Y-146979D01*
X-124739Y-146503D01*
X-125215Y-146265D01*
X-126167D01*
X-122621D02*
Y-151264D01*
Y-146265D02*
X-119288Y-151264D01*
Y-146265D02*
Y-151264D01*
X-114813Y-146265D02*
X-117907D01*
Y-151264D01*
X-114813D01*
X-117907Y-148646D02*
X-116003D01*
X-113742Y-147931D02*
X-113980Y-148170D01*
X-113742Y-148407D01*
X-113504Y-148170D01*
X-113742Y-147931D01*
Y-150788D02*
X-113980Y-151026D01*
X-113742Y-151264D01*
X-113504Y-151026D01*
X-113742Y-150788D01*
X47240Y-164015D02*
Y-169014D01*
X50096D01*
X54452D02*
X52548Y-164015D01*
X50644Y-169014D01*
X51358Y-167348D02*
X53738D01*
X55619Y-164015D02*
X57523Y-166396D01*
Y-169014D01*
X59427Y-164015D02*
X57523Y-166396D01*
X63165Y-164015D02*
X60070D01*
Y-169014D01*
X63165D01*
X60070Y-166396D02*
X61975D01*
X63998Y-164015D02*
Y-169014D01*
Y-164015D02*
X66140D01*
X66854Y-164253D01*
X67093Y-164491D01*
X67330Y-164967D01*
Y-165443D01*
X67093Y-165919D01*
X66854Y-166157D01*
X66140Y-166396D01*
X63998D01*
X65664D02*
X67330Y-169014D01*
X68687Y-165681D02*
X68449Y-165919D01*
X68687Y-166157D01*
X68925Y-165919D01*
X68687Y-165681D01*
Y-168538D02*
X68449Y-168776D01*
X68687Y-169014D01*
X68925Y-168776D01*
X68687Y-168538D01*
X-133666Y-90015D02*
X-136760D01*
Y-95014D01*
X-133666D01*
X-136760Y-92396D02*
X-134856D01*
X-132833Y-90015D02*
Y-95014D01*
Y-90015D02*
X-129500Y-95014D01*
Y-90015D02*
Y-95014D01*
X-124549Y-91205D02*
X-124787Y-90729D01*
X-125263Y-90253D01*
X-125739Y-90015D01*
X-126691D01*
X-127167Y-90253D01*
X-127643Y-90729D01*
X-127881Y-91205D01*
X-128119Y-91919D01*
Y-93110D01*
X-127881Y-93824D01*
X-127643Y-94300D01*
X-127167Y-94776D01*
X-126691Y-95014D01*
X-125739D01*
X-125263Y-94776D01*
X-124787Y-94300D01*
X-124549Y-93824D01*
Y-93110D01*
X-125739D02*
X-124549D01*
X-123406Y-90015D02*
Y-95014D01*
X-122359Y-90015D02*
Y-95014D01*
Y-90015D02*
X-119026Y-95014D01*
Y-90015D02*
Y-95014D01*
X-114551Y-90015D02*
X-117645D01*
Y-95014D01*
X-114551D01*
X-117645Y-92396D02*
X-115741D01*
X-110623Y-90015D02*
X-113718D01*
Y-95014D01*
X-110623D01*
X-113718Y-92396D02*
X-111813D01*
X-109790Y-90015D02*
Y-95014D01*
Y-90015D02*
X-107648D01*
X-106933Y-90253D01*
X-106695Y-90491D01*
X-106457Y-90967D01*
Y-91443D01*
X-106695Y-91919D01*
X-106933Y-92158D01*
X-107648Y-92396D01*
X-109790D01*
X-108124D02*
X-106457Y-95014D01*
X-105101Y-91681D02*
X-105339Y-91919D01*
X-105101Y-92158D01*
X-104862Y-91919D01*
X-105101Y-91681D01*
Y-94538D02*
X-105339Y-94776D01*
X-105101Y-95014D01*
X-104862Y-94776D01*
X-105101Y-94538D01*
X-42952Y-141264D02*
X-44856Y-136265D01*
X-46760Y-141264D01*
X-46046Y-139598D02*
X-43666D01*
X-41785Y-137931D02*
Y-142930D01*
Y-138646D02*
X-41309Y-138170D01*
X-40833Y-137931D01*
X-40119D01*
X-39643Y-138170D01*
X-39167Y-138646D01*
X-38929Y-139360D01*
Y-139836D01*
X-39167Y-140550D01*
X-39643Y-141026D01*
X-40119Y-141264D01*
X-40833D01*
X-41309Y-141026D01*
X-41785Y-140550D01*
X-37858Y-137931D02*
Y-142930D01*
Y-138646D02*
X-37382Y-138170D01*
X-36905Y-137931D01*
X-36191D01*
X-35715Y-138170D01*
X-35239Y-138646D01*
X-35001Y-139360D01*
Y-139836D01*
X-35239Y-140550D01*
X-35715Y-141026D01*
X-36191Y-141264D01*
X-36905D01*
X-37382Y-141026D01*
X-37858Y-140550D01*
X-33930Y-137931D02*
Y-141264D01*
Y-139360D02*
X-33692Y-138646D01*
X-33216Y-138170D01*
X-32740Y-137931D01*
X-32026D01*
X-30383D02*
X-30859Y-138170D01*
X-31335Y-138646D01*
X-31573Y-139360D01*
Y-139836D01*
X-31335Y-140550D01*
X-30859Y-141026D01*
X-30383Y-141264D01*
X-29669D01*
X-29193Y-141026D01*
X-28717Y-140550D01*
X-28479Y-139836D01*
Y-139360D01*
X-28717Y-138646D01*
X-29193Y-138170D01*
X-29669Y-137931D01*
X-30383D01*
X-27384D02*
X-25955Y-141264D01*
X-24527Y-137931D02*
X-25955Y-141264D01*
X-20861Y-137931D02*
Y-141264D01*
Y-138646D02*
X-21337Y-138170D01*
X-21813Y-137931D01*
X-22528D01*
X-23004Y-138170D01*
X-23480Y-138646D01*
X-23718Y-139360D01*
Y-139836D01*
X-23480Y-140550D01*
X-23004Y-141026D01*
X-22528Y-141264D01*
X-21813D01*
X-21337Y-141026D01*
X-20861Y-140550D01*
X-19528Y-136265D02*
Y-141264D01*
X-46344Y-88765D02*
Y-93764D01*
X-48010Y-88765D02*
X-44678D01*
X-44083D02*
Y-93764D01*
X-41369Y-88765D02*
Y-93764D01*
X-43035Y-88765D02*
X-39703D01*
X-39107D02*
Y-93764D01*
X-36251D01*
X-32609Y-88765D02*
X-35704D01*
Y-93764D01*
X-32609D01*
X-35704Y-91146D02*
X-33799D01*
X-31538Y-90431D02*
X-31776Y-90670D01*
X-31538Y-90908D01*
X-31300Y-90670D01*
X-31538Y-90431D01*
Y-93288D02*
X-31776Y-93526D01*
X-31538Y-93764D01*
X-31300Y-93526D01*
X-31538Y-93288D01*
X-136760Y-128015D02*
Y-133014D01*
Y-128015D02*
X-135094D01*
X-134380Y-128253D01*
X-133904Y-128729D01*
X-133666Y-129205D01*
X-133428Y-129920D01*
Y-131110D01*
X-133666Y-131824D01*
X-133904Y-132300D01*
X-134380Y-132776D01*
X-135094Y-133014D01*
X-136760D01*
X-132309Y-128015D02*
Y-133014D01*
Y-128015D02*
X-130166D01*
X-129452Y-128253D01*
X-129214Y-128491D01*
X-128976Y-128967D01*
Y-129443D01*
X-129214Y-129920D01*
X-129452Y-130157D01*
X-130166Y-130396D01*
X-132309D01*
X-130643D02*
X-128976Y-133014D01*
X-124049D02*
X-125953Y-128015D01*
X-127857Y-133014D01*
X-127143Y-131348D02*
X-124763D01*
X-122882Y-128015D02*
X-121692Y-133014D01*
X-120502Y-128015D02*
X-121692Y-133014D01*
X-120502Y-128015D02*
X-119312Y-133014D01*
X-118122Y-128015D02*
X-119312Y-133014D01*
X-117122Y-128015D02*
Y-133014D01*
Y-128015D02*
X-113789Y-133014D01*
Y-128015D02*
Y-133014D01*
X-108481Y-128015D02*
Y-133014D01*
Y-130396D02*
X-108005Y-129920D01*
X-107528Y-129681D01*
X-106814D01*
X-106338Y-129920D01*
X-105862Y-130396D01*
X-105624Y-131110D01*
Y-131586D01*
X-105862Y-132300D01*
X-106338Y-132776D01*
X-106814Y-133014D01*
X-107528D01*
X-108005Y-132776D01*
X-108481Y-132300D01*
X-104315Y-129681D02*
X-102887Y-133014D01*
X-101458Y-129681D02*
X-102887Y-133014D01*
X-103363Y-133966D01*
X-103839Y-134442D01*
X-104315Y-134680D01*
X-104553D01*
X-96460Y-129681D02*
X-96697Y-129920D01*
X-96460Y-130157D01*
X-96221Y-129920D01*
X-96460Y-129681D01*
Y-132538D02*
X-96697Y-132776D01*
X-96460Y-133014D01*
X-96221Y-132776D01*
X-96460Y-132538D01*
X-136760Y-164015D02*
Y-169014D01*
Y-164015D02*
X-133666D01*
X-136760Y-166396D02*
X-134856D01*
X-133095Y-164015D02*
Y-169014D01*
X-132047Y-164015D02*
Y-169014D01*
X-129191D01*
X-125549Y-164015D02*
X-128643D01*
Y-169014D01*
X-125549D01*
X-128643Y-166396D02*
X-126739D01*
X-120788Y-164015D02*
Y-169014D01*
Y-164015D02*
X-117455Y-169014D01*
Y-164015D02*
Y-169014D01*
X-112266D02*
X-114170Y-164015D01*
X-116074Y-169014D01*
X-115360Y-167348D02*
X-112980D01*
X-111099Y-164015D02*
Y-169014D01*
Y-164015D02*
X-109195Y-169014D01*
X-107290Y-164015D02*
X-109195Y-169014D01*
X-107290Y-164015D02*
Y-169014D01*
X-102768Y-164015D02*
X-105862D01*
Y-169014D01*
X-102768D01*
X-105862Y-166396D02*
X-103958D01*
X-101697Y-165681D02*
X-101935Y-165919D01*
X-101697Y-166157D01*
X-101459Y-165919D01*
X-101697Y-165681D01*
Y-168538D02*
X-101935Y-168776D01*
X-101697Y-169014D01*
X-101459Y-168776D01*
X-101697Y-168538D01*
X232810Y-165205D02*
X232572Y-164729D01*
X232096Y-164253D01*
X231620Y-164015D01*
X230668D01*
X230192Y-164253D01*
X229716Y-164729D01*
X229478Y-165205D01*
X229240Y-165919D01*
Y-167110D01*
X229478Y-167824D01*
X229716Y-168300D01*
X230192Y-168776D01*
X230668Y-169014D01*
X231620D01*
X232096Y-168776D01*
X232572Y-168300D01*
X232810Y-167824D01*
Y-167110D01*
X231620D02*
X232810D01*
X237048Y-164015D02*
X233953D01*
Y-169014D01*
X237048D01*
X233953Y-166396D02*
X235857D01*
X237881Y-164015D02*
Y-169014D01*
Y-164015D02*
X240023D01*
X240737Y-164253D01*
X240975Y-164491D01*
X241213Y-164967D01*
Y-165443D01*
X240975Y-165919D01*
X240737Y-166157D01*
X240023Y-166396D01*
X237881D01*
X239547D02*
X241213Y-169014D01*
X242332Y-164015D02*
Y-169014D01*
Y-164015D02*
X244474D01*
X245189Y-164253D01*
X245427Y-164491D01*
X245665Y-164967D01*
Y-165443D01*
X245427Y-165919D01*
X245189Y-166157D01*
X244474Y-166396D01*
X242332D02*
X244474D01*
X245189Y-166634D01*
X245427Y-166872D01*
X245665Y-167348D01*
Y-168062D01*
X245427Y-168538D01*
X245189Y-168776D01*
X244474Y-169014D01*
X242332D01*
X249878Y-164015D02*
X246783D01*
Y-169014D01*
X249878D01*
X246783Y-166396D02*
X248688D01*
X250711Y-164015D02*
Y-169014D01*
Y-164015D02*
X252854D01*
X253568Y-164253D01*
X253806Y-164491D01*
X254044Y-164967D01*
Y-165443D01*
X253806Y-165919D01*
X253568Y-166157D01*
X252854Y-166396D01*
X250711D01*
X252378D02*
X254044Y-169014D01*
X255401Y-165681D02*
X255163Y-165919D01*
X255401Y-166157D01*
X255639Y-165919D01*
X255401Y-165681D01*
Y-168538D02*
X255163Y-168776D01*
X255401Y-169014D01*
X255639Y-168776D01*
X255401Y-168538D01*
D22*
X-16467Y-103503D02*
Y-115000D01*
X-20300Y-103503D02*
X-12635D01*
X-2506Y-115000D02*
X-6886Y-103503D01*
X-11266Y-115000D01*
X-9624Y-111168D02*
X-4149D01*
X8389Y-106240D02*
X7842Y-105145D01*
X6747Y-104050D01*
X5652Y-103503D01*
X3462D01*
X2367Y-104050D01*
X1272Y-105145D01*
X724Y-106240D01*
X177Y-107882D01*
Y-110620D01*
X724Y-112262D01*
X1272Y-113357D01*
X2367Y-114453D01*
X3462Y-115000D01*
X5652D01*
X6747Y-114453D01*
X7842Y-113357D01*
X8389Y-112262D01*
Y-110620D01*
X5652D02*
X8389D01*
X11565Y-106240D02*
Y-105693D01*
X12112Y-104597D01*
X12660Y-104050D01*
X13755Y-103503D01*
X15945D01*
X17040Y-104050D01*
X17587Y-104597D01*
X18135Y-105693D01*
Y-106788D01*
X17587Y-107882D01*
X16492Y-109525D01*
X11017Y-115000D01*
X18682D01*
X24540Y-103503D02*
X22898Y-104050D01*
X21803Y-105693D01*
X21255Y-108430D01*
Y-110073D01*
X21803Y-112810D01*
X22898Y-114453D01*
X24540Y-115000D01*
X25635D01*
X27278Y-114453D01*
X28373Y-112810D01*
X28920Y-110073D01*
Y-108430D01*
X28373Y-105693D01*
X27278Y-104050D01*
X25635Y-103503D01*
X24540D01*
X31494Y-105693D02*
X32589Y-105145D01*
X34231Y-103503D01*
Y-115000D01*
D23*
X-45444Y-75000D02*
X-48872Y-66002D01*
X-52300Y-75000D01*
X-51015Y-72001D02*
X-46730D01*
X-38203Y-70287D02*
X-39060Y-69430D01*
X-39917Y-69001D01*
X-41202D01*
X-42059Y-69430D01*
X-42916Y-70287D01*
X-43345Y-71572D01*
Y-72429D01*
X-42916Y-73715D01*
X-42059Y-74572D01*
X-41202Y-75000D01*
X-39917D01*
X-39060Y-74572D01*
X-38203Y-73715D01*
X-34989Y-66002D02*
Y-73286D01*
X-34561Y-74572D01*
X-33704Y-75000D01*
X-32847D01*
X-36275Y-69001D02*
X-33275D01*
X-30705Y-66002D02*
X-30276Y-66430D01*
X-29848Y-66002D01*
X-30276Y-65574D01*
X-30705Y-66002D01*
X-30276Y-69001D02*
Y-75000D01*
X-28262Y-69001D02*
X-25691Y-75000D01*
X-23121Y-69001D02*
X-25691Y-75000D01*
X-21664Y-71572D02*
X-16522D01*
Y-70715D01*
X-16950Y-69858D01*
X-17379Y-69430D01*
X-18236Y-69001D01*
X-19521D01*
X-20378Y-69430D01*
X-21235Y-70287D01*
X-21664Y-71572D01*
Y-72429D01*
X-21235Y-73715D01*
X-20378Y-74572D01*
X-19521Y-75000D01*
X-18236D01*
X-17379Y-74572D01*
X-16522Y-73715D01*
X-7524Y-66002D02*
X-5381Y-75000D01*
X-3239Y-66002D02*
X-5381Y-75000D01*
X-3239Y-66002D02*
X-1097Y-75000D01*
X1046Y-66002D02*
X-1097Y-75000D01*
X7987Y-69001D02*
Y-75000D01*
Y-70287D02*
X7130Y-69430D01*
X6273Y-69001D01*
X4988D01*
X4131Y-69430D01*
X3274Y-70287D01*
X2845Y-71572D01*
Y-72429D01*
X3274Y-73715D01*
X4131Y-74572D01*
X4988Y-75000D01*
X6273D01*
X7130Y-74572D01*
X7987Y-73715D01*
X10387Y-69001D02*
X12957Y-75000D01*
X15528Y-69001D02*
X12957Y-75000D01*
X16985Y-71572D02*
X22127D01*
Y-70715D01*
X21698Y-69858D01*
X21270Y-69430D01*
X20413Y-69001D01*
X19128D01*
X18271Y-69430D01*
X17414Y-70287D01*
X16985Y-71572D01*
Y-72429D01*
X17414Y-73715D01*
X18271Y-74572D01*
X19128Y-75000D01*
X20413D01*
X21270Y-74572D01*
X22127Y-73715D01*
X144728Y-144955D02*
Y-144717D01*
X144966Y-144241D01*
X145204Y-144003D01*
X145680Y-143765D01*
X146632D01*
X147108Y-144003D01*
X147346Y-144241D01*
X147584Y-144717D01*
Y-145193D01*
X147346Y-145669D01*
X146870Y-146384D01*
X144490Y-148764D01*
X147822D01*
X149179Y-148288D02*
X148941Y-148526D01*
X149179Y-148764D01*
X149417Y-148526D01*
X149179Y-148288D01*
X151941Y-143765D02*
X151226Y-144003D01*
X150750Y-144717D01*
X150512Y-145908D01*
Y-146622D01*
X150750Y-147812D01*
X151226Y-148526D01*
X151941Y-148764D01*
X152417D01*
X153131Y-148526D01*
X153607Y-147812D01*
X153845Y-146622D01*
Y-145908D01*
X153607Y-144717D01*
X153131Y-144003D01*
X152417Y-143765D01*
X151941D01*
D44*
X367400Y-7302D02*
X368400Y-6302D01*
X370399D01*
X371399Y-7302D01*
Y-11300D01*
X370399Y-12300D01*
X368400D01*
X367400Y-11300D01*
Y-7302D01*
X373398Y-12300D02*
Y-11300D01*
X374398D01*
Y-12300D01*
X373398D01*
X378396D02*
X380396D01*
X379396D01*
Y-6302D01*
X378396Y-7302D01*
X387393Y-12300D02*
X383395D01*
X387393Y-8301D01*
Y-7302D01*
X386394Y-6302D01*
X384395D01*
X383395Y-7302D01*
X389393D02*
X390393Y-6302D01*
X392392D01*
X393392Y-7302D01*
Y-11300D01*
X392392Y-12300D01*
X390393D01*
X389393Y-11300D01*
Y-7302D01*
X401389Y-6302D02*
Y-12300D01*
X404388D01*
X405388Y-11300D01*
Y-7302D01*
X404388Y-6302D01*
X401389D01*
X413385D02*
X417384D01*
X415384D01*
Y-12300D01*
X420383D02*
X422382D01*
X423382Y-11300D01*
Y-9301D01*
X422382Y-8301D01*
X420383D01*
X419383Y-9301D01*
Y-11300D01*
X420383Y-12300D01*
X426381D02*
X428380D01*
X429380Y-11300D01*
Y-9301D01*
X428380Y-8301D01*
X426381D01*
X425381Y-9301D01*
Y-11300D01*
X426381Y-12300D01*
X431379D02*
X433379D01*
X432379D01*
Y-6302D01*
X431379D01*
X436378Y-12300D02*
X438377D01*
X437377D01*
Y-8301D01*
X436378D01*
X441376Y-12300D02*
Y-8301D01*
X444375D01*
X445375Y-9301D01*
Y-12300D01*
X449373Y-14299D02*
X450373D01*
X451373Y-13300D01*
Y-8301D01*
X448374D01*
X447374Y-9301D01*
Y-11300D01*
X448374Y-12300D01*
X451373D01*
X459370Y-6302D02*
Y-12300D01*
Y-9301D01*
X463369D01*
Y-6302D01*
Y-12300D01*
X466368D02*
X468367D01*
X469367Y-11300D01*
Y-9301D01*
X468367Y-8301D01*
X466368D01*
X465368Y-9301D01*
Y-11300D01*
X466368Y-12300D01*
X471366D02*
X473366D01*
X472366D01*
Y-6302D01*
X471366D01*
X479364Y-12300D02*
X477364D01*
X476365Y-11300D01*
Y-9301D01*
X477364Y-8301D01*
X479364D01*
X480364Y-9301D01*
Y-10301D01*
X476365D01*
X366400Y311098D02*
X367400Y312098D01*
X369399D01*
X370399Y311098D01*
Y307100D01*
X369399Y306100D01*
X367400D01*
X366400Y307100D01*
Y311098D01*
X372398Y306100D02*
Y307100D01*
X373398D01*
Y306100D01*
X372398D01*
X377396D02*
X379396D01*
X378396D01*
Y312098D01*
X377396Y311098D01*
X386393Y306100D02*
X382395D01*
X386393Y310099D01*
Y311098D01*
X385394Y312098D01*
X383395D01*
X382395Y311098D01*
X388393D02*
X389393Y312098D01*
X391392D01*
X392392Y311098D01*
Y307100D01*
X391392Y306100D01*
X389393D01*
X388393Y307100D01*
Y311098D01*
X400389Y312098D02*
Y306100D01*
X403388D01*
X404388Y307100D01*
Y311098D01*
X403388Y312098D01*
X400389D01*
X412385D02*
X416384D01*
X414385D01*
Y306100D01*
X419383D02*
X421382D01*
X422382Y307100D01*
Y309099D01*
X421382Y310099D01*
X419383D01*
X418383Y309099D01*
Y307100D01*
X419383Y306100D01*
X425381D02*
X427380D01*
X428380Y307100D01*
Y309099D01*
X427380Y310099D01*
X425381D01*
X424381Y309099D01*
Y307100D01*
X425381Y306100D01*
X430379D02*
X432379D01*
X431379D01*
Y312098D01*
X430379D01*
X435378Y306100D02*
X437377D01*
X436377D01*
Y310099D01*
X435378D01*
X440376Y306100D02*
Y310099D01*
X443375D01*
X444375Y309099D01*
Y306100D01*
X448374Y304101D02*
X449373D01*
X450373Y305100D01*
Y310099D01*
X447374D01*
X446374Y309099D01*
Y307100D01*
X447374Y306100D01*
X450373D01*
X458370Y312098D02*
Y306100D01*
Y309099D01*
X462369D01*
Y312098D01*
Y306100D01*
X465368D02*
X467367D01*
X468367Y307100D01*
Y309099D01*
X467367Y310099D01*
X465368D01*
X464368Y309099D01*
Y307100D01*
X465368Y306100D01*
X470366D02*
X472366D01*
X471366D01*
Y312098D01*
X470366D01*
X478364Y306100D02*
X476364D01*
X475365Y307100D01*
Y309099D01*
X476364Y310099D01*
X478364D01*
X479363Y309099D01*
Y308099D01*
X475365D01*
X-154363Y308100D02*
X-153364Y309099D01*
X-151364D01*
X-150365Y308100D01*
Y304101D01*
X-151364Y303101D01*
X-153364D01*
X-154363Y304101D01*
Y308100D01*
X-148365Y303101D02*
Y304101D01*
X-147366D01*
Y303101D01*
X-148365D01*
X-143367D02*
X-141368D01*
X-142367D01*
Y309099D01*
X-143367Y308100D01*
X-134370Y303101D02*
X-138369D01*
X-134370Y307100D01*
Y308100D01*
X-135370Y309099D01*
X-137369D01*
X-138369Y308100D01*
X-132371D02*
X-131371Y309099D01*
X-129372D01*
X-128372Y308100D01*
Y304101D01*
X-129372Y303101D01*
X-131371D01*
X-132371Y304101D01*
Y308100D01*
X-120375Y309099D02*
Y303101D01*
X-117375D01*
X-116376Y304101D01*
Y308100D01*
X-117375Y309099D01*
X-120375D01*
X-108378D02*
X-104380D01*
X-106379D01*
Y303101D01*
X-101381D02*
X-99381D01*
X-98382Y304101D01*
Y306100D01*
X-99381Y307100D01*
X-101381D01*
X-102380Y306100D01*
Y304101D01*
X-101381Y303101D01*
X-95382D02*
X-93383D01*
X-92383Y304101D01*
Y306100D01*
X-93383Y307100D01*
X-95382D01*
X-96382Y306100D01*
Y304101D01*
X-95382Y303101D01*
X-90384D02*
X-88385D01*
X-89385D01*
Y309099D01*
X-90384D01*
X-85386Y303101D02*
X-83386D01*
X-84386D01*
Y307100D01*
X-85386D01*
X-80387Y303101D02*
Y307100D01*
X-77388D01*
X-76389Y306100D01*
Y303101D01*
X-72390Y301102D02*
X-71390D01*
X-70391Y302102D01*
Y307100D01*
X-73390D01*
X-74389Y306100D01*
Y304101D01*
X-73390Y303101D01*
X-70391D01*
X-62393Y309099D02*
Y303101D01*
Y306100D01*
X-58394D01*
Y309099D01*
Y303101D01*
X-55396D02*
X-53396D01*
X-52396Y304101D01*
Y306100D01*
X-53396Y307100D01*
X-55396D01*
X-56395Y306100D01*
Y304101D01*
X-55396Y303101D01*
X-50397D02*
X-48398D01*
X-49397D01*
Y309099D01*
X-50397D01*
X-42400Y303101D02*
X-44399D01*
X-45399Y304101D01*
Y306100D01*
X-44399Y307100D01*
X-42400D01*
X-41400Y306100D01*
Y305101D01*
X-45399D01*
X-154363Y-10900D02*
X-153364Y-9901D01*
X-151364D01*
X-150365Y-10900D01*
Y-14899D01*
X-151364Y-15899D01*
X-153364D01*
X-154363Y-14899D01*
Y-10900D01*
X-148365Y-15899D02*
Y-14899D01*
X-147366D01*
Y-15899D01*
X-148365D01*
X-143367D02*
X-141368D01*
X-142367D01*
Y-9901D01*
X-143367Y-10900D01*
X-134370Y-15899D02*
X-138369D01*
X-134370Y-11900D01*
Y-10900D01*
X-135370Y-9901D01*
X-137369D01*
X-138369Y-10900D01*
X-132371D02*
X-131371Y-9901D01*
X-129372D01*
X-128372Y-10900D01*
Y-14899D01*
X-129372Y-15899D01*
X-131371D01*
X-132371Y-14899D01*
Y-10900D01*
X-120375Y-9901D02*
Y-15899D01*
X-117375D01*
X-116376Y-14899D01*
Y-10900D01*
X-117375Y-9901D01*
X-120375D01*
X-108378D02*
X-104380D01*
X-106379D01*
Y-15899D01*
X-101381D02*
X-99381D01*
X-98382Y-14899D01*
Y-12900D01*
X-99381Y-11900D01*
X-101381D01*
X-102380Y-12900D01*
Y-14899D01*
X-101381Y-15899D01*
X-95382D02*
X-93383D01*
X-92383Y-14899D01*
Y-12900D01*
X-93383Y-11900D01*
X-95382D01*
X-96382Y-12900D01*
Y-14899D01*
X-95382Y-15899D01*
X-90384D02*
X-88385D01*
X-89385D01*
Y-9901D01*
X-90384D01*
X-85386Y-15899D02*
X-83386D01*
X-84386D01*
Y-11900D01*
X-85386D01*
X-80387Y-15899D02*
Y-11900D01*
X-77388D01*
X-76389Y-12900D01*
Y-15899D01*
X-72390Y-17898D02*
X-71390D01*
X-70391Y-16898D01*
Y-11900D01*
X-73390D01*
X-74389Y-12900D01*
Y-14899D01*
X-73390Y-15899D01*
X-70391D01*
X-62393Y-9901D02*
Y-15899D01*
Y-12900D01*
X-58394D01*
Y-9901D01*
Y-15899D01*
X-55396D02*
X-53396D01*
X-52396Y-14899D01*
Y-12900D01*
X-53396Y-11900D01*
X-55396D01*
X-56395Y-12900D01*
Y-14899D01*
X-55396Y-15899D01*
X-50397D02*
X-48398D01*
X-49397D01*
Y-9901D01*
X-50397D01*
X-42400Y-15899D02*
X-44399D01*
X-45399Y-14899D01*
Y-12900D01*
X-44399Y-11900D01*
X-42400D01*
X-41400Y-12900D01*
Y-13899D01*
X-45399D01*
X-119375Y18901D02*
Y24899D01*
X-116376D01*
X-115376Y23899D01*
Y21900D01*
X-116376Y20900D01*
X-119375D01*
X-112377Y22900D02*
X-110378D01*
X-109378Y21900D01*
Y18901D01*
X-112377D01*
X-113377Y19901D01*
X-112377Y20900D01*
X-109378D01*
X-107379Y18901D02*
Y22900D01*
X-104380D01*
X-103380Y21900D01*
Y18901D01*
X-98382D02*
X-100381D01*
X-101381Y19901D01*
Y21900D01*
X-100381Y22900D01*
X-98382D01*
X-97382Y21900D01*
Y20900D01*
X-101381D01*
X-95383Y18901D02*
X-93384D01*
X-94383D01*
Y24899D01*
X-95383D01*
X-80388D02*
X-84386D01*
Y21900D01*
X-82387D01*
X-84386D01*
Y18901D01*
X-78388D02*
X-76389D01*
X-77389D01*
Y22900D01*
X-78388D01*
X-69391Y24899D02*
Y18901D01*
X-72390D01*
X-73390Y19901D01*
Y21900D01*
X-72390Y22900D01*
X-69391D01*
X-67392D02*
Y19901D01*
X-66392Y18901D01*
X-63393D01*
Y22900D01*
X-57395D02*
X-60394D01*
X-61394Y21900D01*
Y19901D01*
X-60394Y18901D01*
X-57395D01*
X-55396D02*
X-53396D01*
X-54396D01*
Y22900D01*
X-55396D01*
X-49398D02*
X-47398D01*
X-46399Y21900D01*
Y18901D01*
X-49398D01*
X-50397Y19901D01*
X-49398Y20900D01*
X-46399D01*
X-44399Y18901D02*
X-42400D01*
X-43400D01*
Y24899D01*
X-44399D01*
X-119375Y269001D02*
Y274999D01*
X-116376D01*
X-115376Y273999D01*
Y272000D01*
X-116376Y271000D01*
X-119375D01*
X-112377Y273000D02*
X-110378D01*
X-109378Y272000D01*
Y269001D01*
X-112377D01*
X-113377Y270001D01*
X-112377Y271000D01*
X-109378D01*
X-107379Y269001D02*
Y273000D01*
X-104380D01*
X-103380Y272000D01*
Y269001D01*
X-98382D02*
X-100381D01*
X-101381Y270001D01*
Y272000D01*
X-100381Y273000D01*
X-98382D01*
X-97382Y272000D01*
Y271000D01*
X-101381D01*
X-95383Y269001D02*
X-93384D01*
X-94383D01*
Y274999D01*
X-95383D01*
X-80388D02*
X-84386D01*
Y272000D01*
X-82387D01*
X-84386D01*
Y269001D01*
X-78388D02*
X-76389D01*
X-77389D01*
Y273000D01*
X-78388D01*
X-69391Y274999D02*
Y269001D01*
X-72390D01*
X-73390Y270001D01*
Y272000D01*
X-72390Y273000D01*
X-69391D01*
X-67392D02*
Y270001D01*
X-66392Y269001D01*
X-63393D01*
Y273000D01*
X-57395D02*
X-60394D01*
X-61394Y272000D01*
Y270001D01*
X-60394Y269001D01*
X-57395D01*
X-55396D02*
X-53396D01*
X-54396D01*
Y273000D01*
X-55396D01*
X-49398D02*
X-47398D01*
X-46399Y272000D01*
Y269001D01*
X-49398D01*
X-50397Y270001D01*
X-49398Y271000D01*
X-46399D01*
X-44399Y269001D02*
X-42400D01*
X-43400D01*
Y274999D01*
X-44399D01*
X368700Y269400D02*
Y275398D01*
X371699D01*
X372699Y274398D01*
Y272399D01*
X371699Y271399D01*
X368700D01*
X375698Y273399D02*
X377697D01*
X378697Y272399D01*
Y269400D01*
X375698D01*
X374698Y270400D01*
X375698Y271399D01*
X378697D01*
X380696Y269400D02*
Y273399D01*
X383695D01*
X384695Y272399D01*
Y269400D01*
X389693D02*
X387694D01*
X386694Y270400D01*
Y272399D01*
X387694Y273399D01*
X389693D01*
X390693Y272399D01*
Y271399D01*
X386694D01*
X392692Y269400D02*
X394692D01*
X393692D01*
Y275398D01*
X392692D01*
X401689D02*
X397691D01*
Y272399D01*
X399690D01*
X397691D01*
Y269400D01*
X403689D02*
X405688D01*
X404688D01*
Y273399D01*
X403689D01*
X412686Y275398D02*
Y269400D01*
X409687D01*
X408687Y270400D01*
Y272399D01*
X409687Y273399D01*
X412686D01*
X414685D02*
Y270400D01*
X415685Y269400D01*
X418684D01*
Y273399D01*
X424682D02*
X421683D01*
X420683Y272399D01*
Y270400D01*
X421683Y269400D01*
X424682D01*
X426681D02*
X428681D01*
X427681D01*
Y273399D01*
X426681D01*
X432679D02*
X434679D01*
X435678Y272399D01*
Y269400D01*
X432679D01*
X431680Y270400D01*
X432679Y271399D01*
X435678D01*
X437678Y269400D02*
X439677D01*
X438677D01*
Y275398D01*
X437678D01*
X369000Y20101D02*
Y26099D01*
X371999D01*
X372999Y25099D01*
Y23100D01*
X371999Y22100D01*
X369000D01*
X375998Y24100D02*
X377997D01*
X378997Y23100D01*
Y20101D01*
X375998D01*
X374998Y21101D01*
X375998Y22100D01*
X378997D01*
X380996Y20101D02*
Y24100D01*
X383995D01*
X384995Y23100D01*
Y20101D01*
X389993D02*
X387994D01*
X386994Y21101D01*
Y23100D01*
X387994Y24100D01*
X389993D01*
X390993Y23100D01*
Y22100D01*
X386994D01*
X392992Y20101D02*
X394992D01*
X393992D01*
Y26099D01*
X392992D01*
X401989D02*
X397991D01*
Y23100D01*
X399990D01*
X397991D01*
Y20101D01*
X403989D02*
X405988D01*
X404988D01*
Y24100D01*
X403989D01*
X412986Y26099D02*
Y20101D01*
X409987D01*
X408987Y21101D01*
Y23100D01*
X409987Y24100D01*
X412986D01*
X414985D02*
Y21101D01*
X415985Y20101D01*
X418984D01*
Y24100D01*
X424982D02*
X421983D01*
X420983Y23100D01*
Y21101D01*
X421983Y20101D01*
X424982D01*
X426981D02*
X428981D01*
X427981D01*
Y24100D01*
X426981D01*
X432979D02*
X434979D01*
X435978Y23100D01*
Y20101D01*
X432979D01*
X431980Y21101D01*
X432979Y22100D01*
X435978D01*
X437978Y20101D02*
X439977D01*
X438977D01*
Y26099D01*
X437978D01*
X370700Y100099D02*
Y96101D01*
X372699Y94101D01*
X374699Y96101D01*
Y100099D01*
X376698Y97100D02*
X380697D01*
X386695Y99100D02*
X385695Y100099D01*
X383696D01*
X382696Y99100D01*
Y98100D01*
X383696Y97100D01*
X385695D01*
X386695Y96101D01*
Y95101D01*
X385695Y94101D01*
X383696D01*
X382696Y95101D01*
X392693Y98100D02*
X389694D01*
X388694Y97100D01*
Y95101D01*
X389694Y94101D01*
X392693D01*
X395692D02*
X397691D01*
X398691Y95101D01*
Y97100D01*
X397691Y98100D01*
X395692D01*
X394692Y97100D01*
Y95101D01*
X395692Y94101D01*
X400690Y98100D02*
Y94101D01*
Y96101D01*
X401690Y97100D01*
X402690Y98100D01*
X403689D01*
X409687Y94101D02*
X407688D01*
X406688Y95101D01*
Y97100D01*
X407688Y98100D01*
X409687D01*
X410687Y97100D01*
Y96101D01*
X406688D01*
X418684Y100099D02*
X422683D01*
X420684D01*
Y94101D01*
X424683Y98100D02*
Y95101D01*
X425682Y94101D01*
X428681D01*
Y93102D01*
X427682Y92102D01*
X426682D01*
X428681Y94101D02*
Y98100D01*
X430681Y92102D02*
Y98100D01*
X433680D01*
X434679Y97100D01*
Y95101D01*
X433680Y94101D01*
X430681D01*
M02*
