%FSLAX25Y25*%
%MOIN*%
G70*
G01*
G75*
G04 Layer_Physical_Order=1*
G04 Layer_Color=255*
%ADD10R,0.03000X0.03000*%
%ADD11C,0.05000*%
%ADD12R,0.01550X0.05000*%
G04:AMPARAMS|DCode=13|XSize=39.37mil|YSize=9.84mil|CornerRadius=2.46mil|HoleSize=0mil|Usage=FLASHONLY|Rotation=0.000|XOffset=0mil|YOffset=0mil|HoleType=Round|Shape=RoundedRectangle|*
%AMROUNDEDRECTD13*
21,1,0.03937,0.00492,0,0,0.0*
21,1,0.03445,0.00984,0,0,0.0*
1,1,0.00492,0.01722,-0.00246*
1,1,0.00492,-0.01722,-0.00246*
1,1,0.00492,-0.01722,0.00246*
1,1,0.00492,0.01722,0.00246*
%
%ADD13ROUNDEDRECTD13*%
G04:AMPARAMS|DCode=14|XSize=39.37mil|YSize=9.84mil|CornerRadius=2.46mil|HoleSize=0mil|Usage=FLASHONLY|Rotation=90.000|XOffset=0mil|YOffset=0mil|HoleType=Round|Shape=RoundedRectangle|*
%AMROUNDEDRECTD14*
21,1,0.03937,0.00492,0,0,90.0*
21,1,0.03445,0.00984,0,0,90.0*
1,1,0.00492,0.00246,0.01722*
1,1,0.00492,0.00246,-0.01722*
1,1,0.00492,-0.00246,-0.01722*
1,1,0.00492,-0.00246,0.01722*
%
%ADD14ROUNDEDRECTD14*%
G04:AMPARAMS|DCode=15|XSize=25.59mil|YSize=9.84mil|CornerRadius=0mil|HoleSize=0mil|Usage=FLASHONLY|Rotation=90.000|XOffset=0mil|YOffset=0mil|HoleType=Round|Shape=Octagon|*
%AMOCTAGOND15*
4,1,8,0.00246,0.01280,-0.00246,0.01280,-0.00492,0.01034,-0.00492,-0.01034,-0.00246,-0.01280,0.00246,-0.01280,0.00492,-0.01034,0.00492,0.01034,0.00246,0.01280,0.0*
%
%ADD15OCTAGOND15*%

G04:AMPARAMS|DCode=16|XSize=25.59mil|YSize=9.84mil|CornerRadius=0mil|HoleSize=0mil|Usage=FLASHONLY|Rotation=180.000|XOffset=0mil|YOffset=0mil|HoleType=Round|Shape=Octagon|*
%AMOCTAGOND16*
4,1,8,-0.01280,0.00246,-0.01280,-0.00246,-0.01034,-0.00492,0.01034,-0.00492,0.01280,-0.00246,0.01280,0.00246,0.01034,0.00492,-0.01034,0.00492,-0.01280,0.00246,0.0*
%
%ADD16OCTAGOND16*%

%ADD17C,0.01000*%
%ADD18C,0.00800*%
%ADD19C,0.01200*%
%ADD20C,0.02000*%
%ADD21C,0.00500*%
%ADD22C,0.01500*%
%ADD23C,0.00900*%
%ADD24C,0.05200*%
%ADD25R,0.04000X0.06200*%
%ADD26O,0.04000X0.06200*%
%ADD27C,0.05500*%
%ADD28C,0.02600*%
D10*
X6500Y23500D02*
D03*
Y17500D02*
D03*
X12500D02*
D03*
Y23500D02*
D03*
X69000Y66500D02*
D03*
Y60500D02*
D03*
X77900Y38000D02*
D03*
Y32000D02*
D03*
X78000Y50000D02*
D03*
Y44000D02*
D03*
Y56000D02*
D03*
Y62000D02*
D03*
X65900Y32000D02*
D03*
Y38000D02*
D03*
X36400Y48000D02*
D03*
Y54000D02*
D03*
X71900Y32000D02*
D03*
Y38000D02*
D03*
X36500Y42000D02*
D03*
Y36000D02*
D03*
X36400Y67700D02*
D03*
Y61700D02*
D03*
D11*
X10000Y75000D02*
D03*
D12*
X48160Y45000D02*
D03*
X50750D02*
D03*
X53250D02*
D03*
X55840D02*
D03*
Y21000D02*
D03*
X53250D02*
D03*
X50750D02*
D03*
X48160D02*
D03*
D13*
X43900Y59500D02*
D03*
Y61468D02*
D03*
Y57531D02*
D03*
X54805Y61468D02*
D03*
Y59500D02*
D03*
Y57531D02*
D03*
D14*
X51368Y64906D02*
D03*
X49400D02*
D03*
X47431D02*
D03*
X51368Y54000D02*
D03*
X47431D02*
D03*
X49400D02*
D03*
D15*
X53337Y65602D02*
D03*
X45463D02*
D03*
X53337Y53398D02*
D03*
X45463D02*
D03*
D16*
X55502Y63437D02*
D03*
X43298D02*
D03*
X55502Y55563D02*
D03*
X43298D02*
D03*
D17*
X47431Y49931D02*
Y54000D01*
X77900Y27500D02*
Y32000D01*
X47000Y49500D02*
X47431Y49931D01*
X77900Y62100D02*
Y66500D01*
Y62100D02*
X78000Y62000D01*
X101200Y-165503D02*
X107864D01*
X104532D01*
Y-175500D01*
X116195Y-165503D02*
X112863D01*
X111197Y-167169D01*
Y-173834D01*
X112863Y-175500D01*
X116195D01*
X117861Y-173834D01*
Y-167169D01*
X116195Y-165503D01*
X121194Y-175500D02*
Y-165503D01*
X126192D01*
X127858Y-167169D01*
Y-170502D01*
X126192Y-172168D01*
X121194D01*
X141187Y-165503D02*
Y-175500D01*
X147852D01*
X151184D02*
Y-168835D01*
X154516Y-165503D01*
X157848Y-168835D01*
Y-175500D01*
Y-170502D01*
X151184D01*
X161181Y-165503D02*
Y-167169D01*
X164513Y-170502D01*
X167845Y-167169D01*
Y-165503D01*
X164513Y-170502D02*
Y-175500D01*
X177842Y-165503D02*
X171177D01*
Y-175500D01*
X177842D01*
X171177Y-170502D02*
X174510D01*
X181174Y-175500D02*
Y-165503D01*
X186172D01*
X187839Y-167169D01*
Y-170502D01*
X186172Y-172168D01*
X181174D01*
X184506D02*
X187839Y-175500D01*
X0Y98803D02*
X107753D01*
Y-100D02*
Y98803D01*
X114695Y-172498D02*
X118632D01*
X0Y-100D02*
Y98800D01*
Y-100D02*
X107753D01*
X288306Y-137340D02*
G03*
X283406Y-132440I-4900J0D01*
G01*
X173240Y-132514D02*
G03*
X168240Y-137514I0J-5000D01*
G01*
X283306Y-127440D02*
G03*
X288306Y-122440I0J5000D01*
G01*
X168240Y-122514D02*
G03*
X173240Y-127514I5000J0D01*
G01*
X-136760Y-55014D02*
G03*
X-146760Y-65014I0J-10000D01*
G01*
Y-174914D02*
G03*
X-136837Y-185012I10100J0D01*
G01*
X293238Y-64957D02*
G03*
X283238Y-54957I-10000J0D01*
G01*
X288238Y-64857D02*
G03*
X283167Y-59960I-4900J0D01*
G01*
X283306Y-154940D02*
G03*
X288306Y-149940I0J5000D01*
G01*
X288240Y-164927D02*
G03*
X283240Y-160013I-5000J-87D01*
G01*
X158240Y-155014D02*
G03*
X163240Y-150014I0J5000D01*
G01*
X168240Y-150114D02*
G03*
X173225Y-155013I4900J0D01*
G01*
X163240Y-137414D02*
G03*
X158340Y-132514I-4900J0D01*
G01*
X-141760Y-175014D02*
G03*
X-136848Y-180013I5000J0D01*
G01*
X158327Y-127514D02*
G03*
X163241Y-122514I-87J5000D01*
G01*
X-136760Y-160014D02*
G03*
X-141760Y-165014I0J-5000D01*
G01*
X163240Y-90014D02*
G03*
X158240Y-85014I-5000J0D01*
G01*
Y-80014D02*
G03*
X163240Y-75014I0J5000D01*
G01*
X173240Y-60014D02*
G03*
X168240Y-65014I0J-5000D01*
G01*
X163240Y-65014D02*
G03*
X158240Y-60014I-5000J0D01*
G01*
X-136760Y-60014D02*
G03*
X-141760Y-65014I0J-5000D01*
G01*
Y-75014D02*
G03*
X-136760Y-80014I5000J0D01*
G01*
Y-85014D02*
G03*
X-141760Y-90014I0J-5000D01*
G01*
Y-112514D02*
G03*
X-136760Y-117514I5000J0D01*
G01*
Y-122514D02*
G03*
X-141760Y-127514I0J-5000D01*
G01*
X-141760Y-150014D02*
G03*
X-136848Y-155013I5000J0D01*
G01*
X-46760Y-85014D02*
G03*
X-51760Y-90014I0J-5000D01*
G01*
X-46760Y-132514D02*
G03*
X-51760Y-137514I0J-5000D01*
G01*
X128040Y-132514D02*
G03*
X123246Y-137565I0J-4800D01*
G01*
X123240Y-149914D02*
G03*
X128251Y-155013I5100J0D01*
G01*
X113340Y-155014D02*
G03*
X118239Y-150029I0J4900D01*
G01*
X118240Y-137414D02*
G03*
X113340Y-132514I-4900J0D01*
G01*
X-61660Y-155014D02*
G03*
X-56760Y-150114I0J4900D01*
G01*
X-51760D02*
G03*
X-46860Y-155014I4900J0D01*
G01*
X-51760Y-122614D02*
G03*
X-46860Y-127514I4900J0D01*
G01*
X-56760Y-127414D02*
G03*
X-61831Y-122517I-4900J0D01*
G01*
X-61560Y-117514D02*
G03*
X-56760Y-112714I0J4800D01*
G01*
Y-89914D02*
G03*
X-61660Y-85014I-4900J0D01*
G01*
X228240Y-160014D02*
G03*
X223240Y-165014I0J-5000D01*
G01*
Y-175114D02*
G03*
X228225Y-180013I4900J0D01*
G01*
X213356Y-180014D02*
G03*
X218238Y-175047I84J4800D01*
G01*
X218240Y-165014D02*
G03*
X213240Y-160014I-5000J0D01*
G01*
X40740Y-175014D02*
G03*
X45652Y-180013I5000J0D01*
G01*
X45740Y-160014D02*
G03*
X40740Y-165014I0J-5000D01*
G01*
X30856Y-180014D02*
G03*
X35738Y-175047I84J4800D01*
G01*
X35740Y-165014D02*
G03*
X30740Y-160014I-5000J0D01*
G01*
X283240Y-180014D02*
G03*
X288240Y-175014I0J5000D01*
G01*
X283240Y-185014D02*
G03*
X293240Y-175014I0J10000D01*
G01*
X45740Y-180014D02*
X213240D01*
X-136760Y-180014D02*
X30740D01*
X-136760Y-160014D02*
X30740D01*
X45740D02*
X213240D01*
X228240Y-180014D02*
X283240D01*
X228240Y-160014D02*
X283240D01*
X-136760Y-60014D02*
X158240D01*
X-136760Y-185014D02*
X283240D01*
X-136760Y-155014D02*
X-61760D01*
X-136760Y-122514D02*
X-61760D01*
X-136760Y-117514D02*
X-61760D01*
X-136760Y-85014D02*
X-61760D01*
X-136760Y-80014D02*
X158240D01*
X-46760Y-85014D02*
X158240D01*
X-46760Y-132514D02*
X113240D01*
X-46760Y-155014D02*
X113240D01*
X128240D02*
X158240D01*
X128240Y-132514D02*
X158240D01*
X173240Y-155014D02*
X283240D01*
X173240Y-60014D02*
X283240D01*
X-46760Y-127514D02*
X158240D01*
X173240D02*
X283240D01*
X173240Y-132514D02*
X283240D01*
X35740Y-175014D02*
Y-165014D01*
X40740Y-175014D02*
Y-165014D01*
X218240Y-175014D02*
Y-165014D01*
X223240Y-175014D02*
Y-165014D01*
X293240Y-175014D02*
Y-65014D01*
X-141760Y-150014D02*
Y-127514D01*
X-56760Y-150014D02*
Y-127514D01*
X-141760Y-112514D02*
Y-90014D01*
X-56760Y-112514D02*
Y-90014D01*
X-141760Y-75014D02*
Y-65014D01*
X163240Y-75014D02*
Y-65014D01*
Y-122514D02*
Y-90014D01*
X-51760Y-122514D02*
Y-90014D01*
X118240Y-150014D02*
Y-137514D01*
X-51760Y-150014D02*
Y-137514D01*
X123240Y-150014D02*
Y-137514D01*
X163240Y-150014D02*
Y-137514D01*
X-141760Y-175014D02*
Y-165014D01*
X-146760Y-175014D02*
Y-65014D01*
X168240Y-122514D02*
Y-65014D01*
X288240Y-122514D02*
Y-65014D01*
X168240Y-150014D02*
Y-137514D01*
X288306Y-149940D02*
Y-137340D01*
X-136760Y-55014D02*
X283240D01*
X288240Y-175014D02*
Y-165014D01*
X323027Y-120328D02*
X318266Y-126993D01*
X325408D01*
X323027Y-120328D02*
Y-130326D01*
X327169Y-118424D02*
X328121Y-119376D01*
X329073Y-120804D01*
X330026Y-122709D01*
X330502Y-125089D01*
Y-126993D01*
X330026Y-129374D01*
X329073Y-131278D01*
X328121Y-132706D01*
X327169Y-133659D01*
X328121Y-119376D02*
X329073Y-121280D01*
X329549Y-122709D01*
X330026Y-125089D01*
Y-126993D01*
X329549Y-129374D01*
X329073Y-130802D01*
X328121Y-132706D01*
X347926Y-122709D02*
X347450Y-121756D01*
X346498Y-120804D01*
X345546Y-120328D01*
X343642D01*
X342689Y-120804D01*
X341737Y-121756D01*
X341261Y-122709D01*
X340785Y-124137D01*
Y-126517D01*
X341261Y-127945D01*
X341737Y-128898D01*
X342689Y-129850D01*
X343642Y-130326D01*
X345546D01*
X346498Y-129850D01*
X347450Y-128898D01*
X347926Y-127945D01*
Y-126517D01*
X345546D02*
X347926D01*
X350212Y-123661D02*
Y-130326D01*
Y-126517D02*
X350688Y-125089D01*
X351640Y-124137D01*
X352592Y-123661D01*
X354020D01*
X354925Y-126517D02*
X360638D01*
Y-125565D01*
X360162Y-124613D01*
X359686Y-124137D01*
X358734Y-123661D01*
X357305D01*
X356353Y-124137D01*
X355401Y-125089D01*
X354925Y-126517D01*
Y-127470D01*
X355401Y-128898D01*
X356353Y-129850D01*
X357305Y-130326D01*
X358734D01*
X359686Y-129850D01*
X360638Y-128898D01*
X362780Y-126517D02*
X368494D01*
Y-125565D01*
X368017Y-124613D01*
X367541Y-124137D01*
X366589Y-123661D01*
X365161D01*
X364209Y-124137D01*
X363257Y-125089D01*
X362780Y-126517D01*
Y-127470D01*
X363257Y-128898D01*
X364209Y-129850D01*
X365161Y-130326D01*
X366589D01*
X367541Y-129850D01*
X368494Y-128898D01*
X370636Y-123661D02*
Y-130326D01*
Y-125565D02*
X372064Y-124137D01*
X373016Y-123661D01*
X374445D01*
X375397Y-124137D01*
X375873Y-125565D01*
Y-130326D01*
X393012Y-121756D02*
X392060Y-120804D01*
X390632Y-120328D01*
X388727D01*
X387299Y-120804D01*
X386347Y-121756D01*
Y-122709D01*
X386823Y-123661D01*
X387299Y-124137D01*
X388251Y-124613D01*
X391108Y-125565D01*
X392060Y-126041D01*
X392536Y-126517D01*
X393012Y-127470D01*
Y-128898D01*
X392060Y-129850D01*
X390632Y-130326D01*
X388727D01*
X387299Y-129850D01*
X386347Y-128898D01*
X397630Y-123661D02*
X396678Y-124137D01*
X395726Y-125089D01*
X395250Y-126517D01*
Y-127470D01*
X395726Y-128898D01*
X396678Y-129850D01*
X397630Y-130326D01*
X399058D01*
X400010Y-129850D01*
X400963Y-128898D01*
X401439Y-127470D01*
Y-126517D01*
X400963Y-125089D01*
X400010Y-124137D01*
X399058Y-123661D01*
X397630D01*
X403629Y-120328D02*
Y-130326D01*
X411437Y-120328D02*
Y-130326D01*
Y-125089D02*
X410485Y-124137D01*
X409532Y-123661D01*
X408104D01*
X407152Y-124137D01*
X406200Y-125089D01*
X405724Y-126517D01*
Y-127470D01*
X406200Y-128898D01*
X407152Y-129850D01*
X408104Y-130326D01*
X409532D01*
X410485Y-129850D01*
X411437Y-128898D01*
X414103Y-126517D02*
X419816D01*
Y-125565D01*
X419340Y-124613D01*
X418864Y-124137D01*
X417911Y-123661D01*
X416483D01*
X415531Y-124137D01*
X414579Y-125089D01*
X414103Y-126517D01*
Y-127470D01*
X414579Y-128898D01*
X415531Y-129850D01*
X416483Y-130326D01*
X417911D01*
X418864Y-129850D01*
X419816Y-128898D01*
X421958Y-123661D02*
Y-130326D01*
Y-126517D02*
X422434Y-125089D01*
X423386Y-124137D01*
X424339Y-123661D01*
X425767D01*
X434527Y-120328D02*
Y-130326D01*
Y-120328D02*
X438336Y-130326D01*
X442144Y-120328D02*
X438336Y-130326D01*
X442144Y-120328D02*
Y-130326D01*
X450714Y-123661D02*
Y-130326D01*
Y-125089D02*
X449762Y-124137D01*
X448810Y-123661D01*
X447381D01*
X446429Y-124137D01*
X445477Y-125089D01*
X445001Y-126517D01*
Y-127470D01*
X445477Y-128898D01*
X446429Y-129850D01*
X447381Y-130326D01*
X448810D01*
X449762Y-129850D01*
X450714Y-128898D01*
X458617Y-125089D02*
X458141Y-124137D01*
X456713Y-123661D01*
X455284D01*
X453856Y-124137D01*
X453380Y-125089D01*
X453856Y-126041D01*
X454808Y-126517D01*
X457189Y-126993D01*
X458141Y-127470D01*
X458617Y-128422D01*
Y-128898D01*
X458141Y-129850D01*
X456713Y-130326D01*
X455284D01*
X453856Y-129850D01*
X453380Y-128898D01*
X460712Y-120328D02*
Y-130326D01*
X465473Y-123661D02*
X460712Y-128422D01*
X462616Y-126517D02*
X465949Y-130326D01*
X475375Y-120328D02*
Y-130326D01*
Y-120328D02*
X479660D01*
X481088Y-120804D01*
X481565Y-121280D01*
X482041Y-122232D01*
Y-123185D01*
X481565Y-124137D01*
X481088Y-124613D01*
X479660Y-125089D01*
X475375D02*
X479660D01*
X481088Y-125565D01*
X481565Y-126041D01*
X482041Y-126993D01*
Y-128422D01*
X481565Y-129374D01*
X481088Y-129850D01*
X479660Y-130326D01*
X475375D01*
X486659Y-123661D02*
X485707Y-124137D01*
X484754Y-125089D01*
X484278Y-126517D01*
Y-127470D01*
X484754Y-128898D01*
X485707Y-129850D01*
X486659Y-130326D01*
X488087D01*
X489039Y-129850D01*
X489991Y-128898D01*
X490467Y-127470D01*
Y-126517D01*
X489991Y-125089D01*
X489039Y-124137D01*
X488087Y-123661D01*
X486659D01*
X494086Y-120328D02*
Y-128422D01*
X494562Y-129850D01*
X495514Y-130326D01*
X496466D01*
X492657Y-123661D02*
X495990D01*
X497894Y-120328D02*
Y-130326D01*
Y-125565D02*
X499323Y-124137D01*
X500275Y-123661D01*
X501703D01*
X502655Y-124137D01*
X503131Y-125565D01*
Y-130326D01*
X520270Y-121756D02*
X519318Y-120804D01*
X517890Y-120328D01*
X515986D01*
X514557Y-120804D01*
X513605Y-121756D01*
Y-122709D01*
X514081Y-123661D01*
X514557Y-124137D01*
X515510Y-124613D01*
X518366Y-125565D01*
X519318Y-126041D01*
X519794Y-126517D01*
X520270Y-127470D01*
Y-128898D01*
X519318Y-129850D01*
X517890Y-130326D01*
X515986D01*
X514557Y-129850D01*
X513605Y-128898D01*
X523460Y-120328D02*
X523936Y-120804D01*
X524412Y-120328D01*
X523936Y-119852D01*
X523460Y-120328D01*
X523936Y-123661D02*
Y-130326D01*
X531887Y-120328D02*
Y-130326D01*
Y-125089D02*
X530935Y-124137D01*
X529983Y-123661D01*
X528554D01*
X527602Y-124137D01*
X526650Y-125089D01*
X526174Y-126517D01*
Y-127470D01*
X526650Y-128898D01*
X527602Y-129850D01*
X528554Y-130326D01*
X529983D01*
X530935Y-129850D01*
X531887Y-128898D01*
X534553Y-126517D02*
X540266D01*
Y-125565D01*
X539790Y-124613D01*
X539314Y-124137D01*
X538362Y-123661D01*
X536934D01*
X535981Y-124137D01*
X535029Y-125089D01*
X534553Y-126517D01*
Y-127470D01*
X535029Y-128898D01*
X535981Y-129850D01*
X536934Y-130326D01*
X538362D01*
X539314Y-129850D01*
X540266Y-128898D01*
X547646Y-125089D02*
X547169Y-124137D01*
X545741Y-123661D01*
X544313D01*
X542885Y-124137D01*
X542409Y-125089D01*
X542885Y-126041D01*
X543837Y-126517D01*
X546217Y-126993D01*
X547169Y-127470D01*
X547646Y-128422D01*
Y-128898D01*
X547169Y-129850D01*
X545741Y-130326D01*
X544313D01*
X542885Y-129850D01*
X542409Y-128898D01*
X400874Y-37626D02*
Y-27629D01*
X407538Y-37626D01*
Y-27629D01*
X412537Y-37626D02*
X415869D01*
X417535Y-35960D01*
Y-32628D01*
X415869Y-30962D01*
X412537D01*
X410871Y-32628D01*
Y-35960D01*
X412537Y-37626D01*
X422533Y-29295D02*
Y-30962D01*
X420867D01*
X424199D01*
X422533D01*
Y-35960D01*
X424199Y-37626D01*
X434196D02*
X430864D01*
X429198Y-35960D01*
Y-32628D01*
X430864Y-30962D01*
X434196D01*
X435862Y-32628D01*
Y-34294D01*
X429198D01*
X439195Y-37626D02*
X444193D01*
X445859Y-35960D01*
X444193Y-34294D01*
X440861D01*
X439195Y-32628D01*
X440861Y-30962D01*
X445859D01*
X449192D02*
X450858D01*
Y-32628D01*
X449192D01*
Y-30962D01*
Y-35960D02*
X450858D01*
Y-37626D01*
X449192D01*
Y-35960D01*
X319372Y-60042D02*
X320324Y-59566D01*
X321753Y-58138D01*
Y-68135D01*
X326704Y-56233D02*
X327656Y-57185D01*
X328608Y-58614D01*
X329560Y-60518D01*
X330037Y-62898D01*
Y-64803D01*
X329560Y-67183D01*
X328608Y-69087D01*
X327656Y-70516D01*
X326704Y-71468D01*
X327656Y-57185D02*
X328608Y-59090D01*
X329084Y-60518D01*
X329560Y-62898D01*
Y-64803D01*
X329084Y-67183D01*
X328608Y-68611D01*
X327656Y-70516D01*
X343177Y-58138D02*
X341748Y-58614D01*
X340796Y-60042D01*
X340320Y-62422D01*
Y-63850D01*
X340796Y-66231D01*
X341748Y-67659D01*
X343177Y-68135D01*
X344129D01*
X345557Y-67659D01*
X346509Y-66231D01*
X346985Y-63850D01*
Y-62422D01*
X346509Y-60042D01*
X345557Y-58614D01*
X344129Y-58138D01*
X343177D01*
X349699Y-67183D02*
X349223Y-67659D01*
X349699Y-68135D01*
X350175Y-67659D01*
X349699Y-67183D01*
X355222Y-58138D02*
X353793Y-58614D01*
X352841Y-60042D01*
X352365Y-62422D01*
Y-63850D01*
X352841Y-66231D01*
X353793Y-67659D01*
X355222Y-68135D01*
X356174D01*
X357602Y-67659D01*
X358554Y-66231D01*
X359030Y-63850D01*
Y-62422D01*
X358554Y-60042D01*
X357602Y-58614D01*
X356174Y-58138D01*
X355222D01*
X362220D02*
X367457D01*
X364601Y-61946D01*
X366029D01*
X366981Y-62422D01*
X367457Y-62898D01*
X367933Y-64327D01*
Y-65279D01*
X367457Y-66707D01*
X366505Y-67659D01*
X365077Y-68135D01*
X363648D01*
X362220Y-67659D01*
X361744Y-67183D01*
X361268Y-66231D01*
X370171Y-60042D02*
X371123Y-59566D01*
X372551Y-58138D01*
Y-68135D01*
X377979Y-58138D02*
X377503Y-58614D01*
Y-61470D01*
X377979Y-58614D02*
X377503Y-61470D01*
X377979Y-58138D02*
X378455Y-58614D01*
X377503Y-61470D01*
X382263Y-58138D02*
X381787Y-58614D01*
Y-61470D01*
X382263Y-58614D02*
X381787Y-61470D01*
X382263Y-58138D02*
X382740Y-58614D01*
X381787Y-61470D01*
X396022Y-58138D02*
Y-68135D01*
X392690Y-58138D02*
X399355D01*
X400545D02*
Y-68135D01*
Y-63374D02*
X401973Y-61946D01*
X402926Y-61470D01*
X404354D01*
X405306Y-61946D01*
X405782Y-63374D01*
Y-68135D01*
X409353Y-58138D02*
X409829Y-58614D01*
X410305Y-58138D01*
X409829Y-57661D01*
X409353Y-58138D01*
X409829Y-61470D02*
Y-68135D01*
X417780Y-62898D02*
X416827Y-61946D01*
X415875Y-61470D01*
X414447D01*
X413495Y-61946D01*
X412543Y-62898D01*
X412067Y-64327D01*
Y-65279D01*
X412543Y-66707D01*
X413495Y-67659D01*
X414447Y-68135D01*
X415875D01*
X416827Y-67659D01*
X417780Y-66707D01*
X419922Y-58138D02*
Y-68135D01*
X424683Y-61470D02*
X419922Y-66231D01*
X421826Y-64327D02*
X425159Y-68135D01*
X435062Y-60518D02*
Y-60042D01*
X435538Y-59090D01*
X436014Y-58614D01*
X436966Y-58138D01*
X438870D01*
X439823Y-58614D01*
X440299Y-59090D01*
X440775Y-60042D01*
Y-60994D01*
X440299Y-61946D01*
X439347Y-63374D01*
X434586Y-68135D01*
X441251D01*
X451344Y-58138D02*
Y-68135D01*
X457057D01*
X463865Y-61470D02*
Y-68135D01*
Y-62898D02*
X462913Y-61946D01*
X461961Y-61470D01*
X460532D01*
X459580Y-61946D01*
X458628Y-62898D01*
X458152Y-64327D01*
Y-65279D01*
X458628Y-66707D01*
X459580Y-67659D01*
X460532Y-68135D01*
X461961D01*
X462913Y-67659D01*
X463865Y-66707D01*
X467007Y-61470D02*
X469864Y-68135D01*
X472720Y-61470D02*
X469864Y-68135D01*
X468912Y-70040D01*
X467959Y-70992D01*
X467007Y-71468D01*
X466531D01*
X474387Y-64327D02*
X480100D01*
Y-63374D01*
X479624Y-62422D01*
X479147Y-61946D01*
X478195Y-61470D01*
X476767D01*
X475815Y-61946D01*
X474863Y-62898D01*
X474387Y-64327D01*
Y-65279D01*
X474863Y-66707D01*
X475815Y-67659D01*
X476767Y-68135D01*
X478195D01*
X479147Y-67659D01*
X480100Y-66707D01*
X482242Y-61470D02*
Y-68135D01*
Y-64327D02*
X482718Y-62898D01*
X483670Y-61946D01*
X484622Y-61470D01*
X486051D01*
X501476Y-59566D02*
X500524Y-58614D01*
X499096Y-58138D01*
X497191D01*
X495763Y-58614D01*
X494811Y-59566D01*
Y-60518D01*
X495287Y-61470D01*
X495763Y-61946D01*
X496715Y-62422D01*
X499572Y-63374D01*
X500524Y-63850D01*
X501000Y-64327D01*
X501476Y-65279D01*
Y-66707D01*
X500524Y-67659D01*
X499096Y-68135D01*
X497191D01*
X495763Y-67659D01*
X494811Y-66707D01*
X509427Y-62898D02*
X508474Y-61946D01*
X507522Y-61470D01*
X506094D01*
X505142Y-61946D01*
X504190Y-62898D01*
X503714Y-64327D01*
Y-65279D01*
X504190Y-66707D01*
X505142Y-67659D01*
X506094Y-68135D01*
X507522D01*
X508474Y-67659D01*
X509427Y-66707D01*
X513949Y-61470D02*
X512997Y-61946D01*
X512045Y-62898D01*
X511569Y-64327D01*
Y-65279D01*
X512045Y-66707D01*
X512997Y-67659D01*
X513949Y-68135D01*
X515378D01*
X516330Y-67659D01*
X517282Y-66707D01*
X517758Y-65279D01*
Y-64327D01*
X517282Y-62898D01*
X516330Y-61946D01*
X515378Y-61470D01*
X513949D01*
X519948D02*
Y-68135D01*
Y-64327D02*
X520424Y-62898D01*
X521377Y-61946D01*
X522329Y-61470D01*
X523757D01*
X524661Y-64327D02*
X530375D01*
Y-63374D01*
X529899Y-62422D01*
X529422Y-61946D01*
X528470Y-61470D01*
X527042D01*
X526090Y-61946D01*
X525138Y-62898D01*
X524661Y-64327D01*
Y-65279D01*
X525138Y-66707D01*
X526090Y-67659D01*
X527042Y-68135D01*
X528470D01*
X529422Y-67659D01*
X530375Y-66707D01*
X538230Y-58138D02*
Y-68135D01*
Y-62898D02*
X537278Y-61946D01*
X536326Y-61470D01*
X534898D01*
X533945Y-61946D01*
X532993Y-62898D01*
X532517Y-64327D01*
Y-65279D01*
X532993Y-66707D01*
X533945Y-67659D01*
X534898Y-68135D01*
X536326D01*
X537278Y-67659D01*
X538230Y-66707D01*
X548752Y-63374D02*
X553036D01*
X554465Y-62898D01*
X554941Y-62422D01*
X555417Y-61470D01*
Y-60042D01*
X554941Y-59090D01*
X554465Y-58614D01*
X553036Y-58138D01*
X548752D01*
Y-68135D01*
X563368Y-61470D02*
Y-68135D01*
Y-62898D02*
X562415Y-61946D01*
X561463Y-61470D01*
X560035D01*
X559083Y-61946D01*
X558131Y-62898D01*
X557654Y-64327D01*
Y-65279D01*
X558131Y-66707D01*
X559083Y-67659D01*
X560035Y-68135D01*
X561463D01*
X562415Y-67659D01*
X563368Y-66707D01*
X566034Y-61470D02*
Y-68135D01*
Y-63374D02*
X567462Y-61946D01*
X568414Y-61470D01*
X569842D01*
X570794Y-61946D01*
X571271Y-63374D01*
Y-68135D01*
X573889Y-64327D02*
X579602D01*
Y-63374D01*
X579126Y-62422D01*
X578650Y-61946D01*
X577698Y-61470D01*
X576269D01*
X575317Y-61946D01*
X574365Y-62898D01*
X573889Y-64327D01*
Y-65279D01*
X574365Y-66707D01*
X575317Y-67659D01*
X576269Y-68135D01*
X577698D01*
X578650Y-67659D01*
X579602Y-66707D01*
X581745Y-58138D02*
Y-68135D01*
X318352Y-97802D02*
X323589D01*
X320733Y-101611D01*
X322161D01*
X323113Y-102087D01*
X323589Y-102563D01*
X324065Y-103991D01*
Y-104944D01*
X323589Y-106372D01*
X322637Y-107324D01*
X321209Y-107800D01*
X319780D01*
X318352Y-107324D01*
X317876Y-106848D01*
X317400Y-105896D01*
X326303Y-95898D02*
X327255Y-96850D01*
X328207Y-98278D01*
X329159Y-100183D01*
X329636Y-102563D01*
Y-104467D01*
X329159Y-106848D01*
X328207Y-108752D01*
X327255Y-110180D01*
X326303Y-111133D01*
X327255Y-96850D02*
X328207Y-98754D01*
X328683Y-100183D01*
X329159Y-102563D01*
Y-104467D01*
X328683Y-106848D01*
X328207Y-108276D01*
X327255Y-110180D01*
X347536Y-107800D02*
X343728Y-97802D01*
X339919Y-107800D01*
X341347Y-104467D02*
X346108D01*
X355582Y-97802D02*
Y-107800D01*
Y-102563D02*
X354630Y-101611D01*
X353678Y-101135D01*
X352250D01*
X351297Y-101611D01*
X350345Y-102563D01*
X349869Y-103991D01*
Y-104944D01*
X350345Y-106372D01*
X351297Y-107324D01*
X352250Y-107800D01*
X353678D01*
X354630Y-107324D01*
X355582Y-106372D01*
X363962Y-97802D02*
Y-107800D01*
Y-102563D02*
X363009Y-101611D01*
X362057Y-101135D01*
X360629D01*
X359677Y-101611D01*
X358724Y-102563D01*
X358248Y-103991D01*
Y-104944D01*
X358724Y-106372D01*
X359677Y-107324D01*
X360629Y-107800D01*
X362057D01*
X363009Y-107324D01*
X363962Y-106372D01*
X374483Y-97802D02*
X376864Y-107800D01*
X379244Y-97802D02*
X376864Y-107800D01*
X379244Y-97802D02*
X381624Y-107800D01*
X384005Y-97802D02*
X381624Y-107800D01*
X386004Y-97802D02*
Y-107800D01*
Y-103039D02*
X387433Y-101611D01*
X388385Y-101135D01*
X389813D01*
X390765Y-101611D01*
X391241Y-103039D01*
Y-107800D01*
X394812Y-97802D02*
X395288Y-98278D01*
X395764Y-97802D01*
X395288Y-97326D01*
X394812Y-97802D01*
X395288Y-101135D02*
Y-107800D01*
X398954Y-97802D02*
Y-105896D01*
X399430Y-107324D01*
X400382Y-107800D01*
X401334D01*
X397526Y-101135D02*
X400858D01*
X402763Y-103991D02*
X408476D01*
Y-103039D01*
X408000Y-102087D01*
X407523Y-101611D01*
X406571Y-101135D01*
X405143D01*
X404191Y-101611D01*
X403239Y-102563D01*
X402763Y-103991D01*
Y-104944D01*
X403239Y-106372D01*
X404191Y-107324D01*
X405143Y-107800D01*
X406571D01*
X407523Y-107324D01*
X408476Y-106372D01*
X425139Y-99230D02*
X424187Y-98278D01*
X422758Y-97802D01*
X420854D01*
X419426Y-98278D01*
X418474Y-99230D01*
Y-100183D01*
X418950Y-101135D01*
X419426Y-101611D01*
X420378Y-102087D01*
X423235Y-103039D01*
X424187Y-103515D01*
X424663Y-103991D01*
X425139Y-104944D01*
Y-106372D01*
X424187Y-107324D01*
X422758Y-107800D01*
X420854D01*
X419426Y-107324D01*
X418474Y-106372D01*
X428329Y-97802D02*
X428805Y-98278D01*
X429281Y-97802D01*
X428805Y-97326D01*
X428329Y-97802D01*
X428805Y-101135D02*
Y-107800D01*
X431042Y-97802D02*
Y-107800D01*
X433137Y-97802D02*
Y-107800D01*
X437898Y-101135D02*
X433137Y-105896D01*
X435041Y-103991D02*
X438374Y-107800D01*
X454466Y-99230D02*
X453514Y-98278D01*
X452085Y-97802D01*
X450181D01*
X448753Y-98278D01*
X447801Y-99230D01*
Y-100183D01*
X448277Y-101135D01*
X448753Y-101611D01*
X449705Y-102087D01*
X452562Y-103039D01*
X453514Y-103515D01*
X453990Y-103991D01*
X454466Y-104944D01*
Y-106372D01*
X453514Y-107324D01*
X452085Y-107800D01*
X450181D01*
X448753Y-107324D01*
X447801Y-106372D01*
X462417Y-102563D02*
X461464Y-101611D01*
X460512Y-101135D01*
X459084D01*
X458132Y-101611D01*
X457180Y-102563D01*
X456704Y-103991D01*
Y-104944D01*
X457180Y-106372D01*
X458132Y-107324D01*
X459084Y-107800D01*
X460512D01*
X461464Y-107324D01*
X462417Y-106372D01*
X464559Y-101135D02*
Y-107800D01*
Y-103991D02*
X465035Y-102563D01*
X465987Y-101611D01*
X466939Y-101135D01*
X468368D01*
X469272Y-103991D02*
X474985D01*
Y-103039D01*
X474509Y-102087D01*
X474033Y-101611D01*
X473081Y-101135D01*
X471653D01*
X470701Y-101611D01*
X469748Y-102563D01*
X469272Y-103991D01*
Y-104944D01*
X469748Y-106372D01*
X470701Y-107324D01*
X471653Y-107800D01*
X473081D01*
X474033Y-107324D01*
X474985Y-106372D01*
X477128Y-103991D02*
X482841D01*
Y-103039D01*
X482365Y-102087D01*
X481889Y-101611D01*
X480936Y-101135D01*
X479508D01*
X478556Y-101611D01*
X477604Y-102563D01*
X477128Y-103991D01*
Y-104944D01*
X477604Y-106372D01*
X478556Y-107324D01*
X479508Y-107800D01*
X480936D01*
X481889Y-107324D01*
X482841Y-106372D01*
X484983Y-101135D02*
Y-107800D01*
Y-103039D02*
X486411Y-101611D01*
X487364Y-101135D01*
X488792D01*
X489744Y-101611D01*
X490220Y-103039D01*
Y-107800D01*
X503551Y-97802D02*
X502598Y-98278D01*
X501646Y-99230D01*
X501170Y-100183D01*
X500694Y-101611D01*
Y-103991D01*
X501170Y-105420D01*
X501646Y-106372D01*
X502598Y-107324D01*
X503551Y-107800D01*
X505455D01*
X506407Y-107324D01*
X507359Y-106372D01*
X507835Y-105420D01*
X508312Y-103991D01*
Y-101611D01*
X507835Y-100183D01*
X507359Y-99230D01*
X506407Y-98278D01*
X505455Y-97802D01*
X503551D01*
X510644Y-101135D02*
X513501Y-107800D01*
X516357Y-101135D02*
X513501Y-107800D01*
X517976Y-103991D02*
X523689D01*
Y-103039D01*
X523213Y-102087D01*
X522737Y-101611D01*
X521785Y-101135D01*
X520357D01*
X519404Y-101611D01*
X518452Y-102563D01*
X517976Y-103991D01*
Y-104944D01*
X518452Y-106372D01*
X519404Y-107324D01*
X520357Y-107800D01*
X521785D01*
X522737Y-107324D01*
X523689Y-106372D01*
X525832Y-101135D02*
Y-107800D01*
Y-103991D02*
X526308Y-102563D01*
X527260Y-101611D01*
X528212Y-101135D01*
X529640D01*
X541733Y-97802D02*
Y-107800D01*
X538400Y-97802D02*
X545065D01*
X546256Y-103991D02*
X551969D01*
Y-103039D01*
X551493Y-102087D01*
X551017Y-101611D01*
X550064Y-101135D01*
X548636D01*
X547684Y-101611D01*
X546732Y-102563D01*
X546256Y-103991D01*
Y-104944D01*
X546732Y-106372D01*
X547684Y-107324D01*
X548636Y-107800D01*
X550064D01*
X551017Y-107324D01*
X551969Y-106372D01*
X554111Y-101135D02*
Y-107800D01*
Y-103039D02*
X555540Y-101611D01*
X556492Y-101135D01*
X557920D01*
X558872Y-101611D01*
X559348Y-103039D01*
Y-107800D01*
X563395Y-97802D02*
Y-105896D01*
X563871Y-107324D01*
X564823Y-107800D01*
X565775D01*
X561967Y-101135D02*
X565299D01*
X567204Y-103991D02*
X572917D01*
Y-103039D01*
X572441Y-102087D01*
X571965Y-101611D01*
X571012Y-101135D01*
X569584D01*
X568632Y-101611D01*
X567680Y-102563D01*
X567204Y-103991D01*
Y-104944D01*
X567680Y-106372D01*
X568632Y-107324D01*
X569584Y-107800D01*
X571012D01*
X571965Y-107324D01*
X572917Y-106372D01*
X580772Y-97802D02*
Y-107800D01*
Y-102563D02*
X579820Y-101611D01*
X578868Y-101135D01*
X577439D01*
X576487Y-101611D01*
X575535Y-102563D01*
X575059Y-103991D01*
Y-104944D01*
X575535Y-106372D01*
X576487Y-107324D01*
X577439Y-107800D01*
X578868D01*
X579820Y-107324D01*
X580772Y-106372D01*
X591294Y-97802D02*
X595102Y-107800D01*
X598911Y-97802D02*
X595102Y-107800D01*
X601149Y-97802D02*
X601625Y-98278D01*
X602101Y-97802D01*
X601625Y-97326D01*
X601149Y-97802D01*
X601625Y-101135D02*
Y-107800D01*
X609576Y-101135D02*
Y-107800D01*
Y-102563D02*
X608623Y-101611D01*
X607671Y-101135D01*
X606243D01*
X605291Y-101611D01*
X604339Y-102563D01*
X603862Y-103991D01*
Y-104944D01*
X604339Y-106372D01*
X605291Y-107324D01*
X606243Y-107800D01*
X607671D01*
X608623Y-107324D01*
X609576Y-106372D01*
X617479Y-102563D02*
X617002Y-101611D01*
X615574Y-101135D01*
X614146D01*
X612718Y-101611D01*
X612242Y-102563D01*
X612718Y-103515D01*
X613670Y-103991D01*
X616050Y-104467D01*
X617002Y-104944D01*
X617479Y-105896D01*
Y-106372D01*
X617002Y-107324D01*
X615574Y-107800D01*
X614146D01*
X612718Y-107324D01*
X612242Y-106372D01*
X322463Y-88942D02*
X315798D01*
X322463Y-82278D01*
Y-80612D01*
X320797Y-78946D01*
X317465D01*
X315798Y-80612D01*
X325795Y-88942D02*
X329128Y-85610D01*
Y-82278D01*
X325795Y-78946D01*
X344123Y-88942D02*
Y-78946D01*
X349121D01*
X350787Y-80612D01*
Y-83944D01*
X349121Y-85610D01*
X344123D01*
X347455D02*
X350787Y-88942D01*
X355785D02*
X359118D01*
X360784Y-87276D01*
Y-83944D01*
X359118Y-82278D01*
X355785D01*
X354119Y-83944D01*
Y-87276D01*
X355785Y-88942D01*
X364116Y-78946D02*
Y-88942D01*
Y-83944D01*
X370781D01*
Y-78946D01*
Y-88942D01*
X380777Y-80612D02*
X379111Y-78946D01*
X375779D01*
X374113Y-80612D01*
Y-82278D01*
X375779Y-83944D01*
X379111D01*
X380777Y-85610D01*
Y-87276D01*
X379111Y-88942D01*
X375779D01*
X374113Y-87276D01*
X400771Y-80612D02*
X399105Y-78946D01*
X395773D01*
X394107Y-80612D01*
Y-87276D01*
X395773Y-88942D01*
X399105D01*
X400771Y-87276D01*
X405769Y-88942D02*
X409102D01*
X410768Y-87276D01*
Y-83944D01*
X409102Y-82278D01*
X405769D01*
X404103Y-83944D01*
Y-87276D01*
X405769Y-88942D01*
X414100D02*
Y-82278D01*
X415766D01*
X417432Y-83944D01*
Y-88942D01*
Y-83944D01*
X419098Y-82278D01*
X420764Y-83944D01*
Y-88942D01*
X424097Y-92275D02*
Y-82278D01*
X429095D01*
X430761Y-83944D01*
Y-87276D01*
X429095Y-88942D01*
X424097D01*
X434094D02*
X437426D01*
X435760D01*
Y-78946D01*
X434094D01*
X442424Y-88942D02*
X445756D01*
X444090D01*
Y-82278D01*
X442424D01*
X452421D02*
X455753D01*
X457419Y-83944D01*
Y-88942D01*
X452421D01*
X450755Y-87276D01*
X452421Y-85610D01*
X457419D01*
X460752Y-88942D02*
Y-82278D01*
X465750D01*
X467416Y-83944D01*
Y-88942D01*
X472414Y-80612D02*
Y-82278D01*
X470748D01*
X474081D01*
X472414D01*
Y-87276D01*
X474081Y-88942D01*
X495740Y-78946D02*
X489076D01*
Y-83944D01*
X492408D01*
X489076D01*
Y-88942D01*
X499073D02*
Y-78946D01*
X504071D01*
X505737Y-80612D01*
Y-83944D01*
X504071Y-85610D01*
X499073D01*
X502405D02*
X505737Y-88942D01*
X514068D02*
Y-78946D01*
X509069Y-83944D01*
X515734D01*
X529063Y-88942D02*
Y-82278D01*
X530729D01*
X532395Y-83944D01*
Y-88942D01*
Y-83944D01*
X534061Y-82278D01*
X535727Y-83944D01*
Y-88942D01*
X540726Y-82278D02*
X544058D01*
X545724Y-83944D01*
Y-88942D01*
X540726D01*
X539060Y-87276D01*
X540726Y-85610D01*
X545724D01*
X550723Y-80612D02*
Y-82278D01*
X549056D01*
X552389D01*
X550723D01*
Y-87276D01*
X552389Y-88942D01*
X562385D02*
X559053D01*
X557387Y-87276D01*
Y-83944D01*
X559053Y-82278D01*
X562385D01*
X564051Y-83944D01*
Y-85610D01*
X557387D01*
X567384Y-82278D02*
Y-88942D01*
Y-85610D01*
X569050Y-83944D01*
X570716Y-82278D01*
X572382D01*
X577381Y-88942D02*
X580713D01*
X579047D01*
Y-82278D01*
X577381D01*
X587377D02*
X590710D01*
X592376Y-83944D01*
Y-88942D01*
X587377D01*
X585711Y-87276D01*
X587377Y-85610D01*
X592376D01*
X595708Y-88942D02*
X599040D01*
X597374D01*
Y-78946D01*
X595708D01*
X614035Y-88942D02*
X620700Y-82278D01*
X624032D02*
Y-87276D01*
X625698Y-88942D01*
X627364Y-87276D01*
X629031Y-88942D01*
X630697Y-87276D01*
Y-82278D01*
X644026Y-88942D02*
X647358D01*
X645692D01*
Y-78946D01*
X644026Y-80612D01*
X654023Y-88942D02*
X657355D01*
X659021Y-87276D01*
Y-83944D01*
X657355Y-82278D01*
X654023D01*
X652356Y-83944D01*
Y-87276D01*
X654023Y-88942D01*
X662353Y-82278D02*
X669018D01*
X662353Y-88942D01*
X669018D01*
X672350D02*
Y-87276D01*
X674016D01*
Y-88942D01*
X672350D01*
X697342Y-82278D02*
X692343D01*
X690677Y-83944D01*
Y-87276D01*
X692343Y-88942D01*
X697342D01*
X702340D02*
X705672D01*
X707339Y-87276D01*
Y-83944D01*
X705672Y-82278D01*
X702340D01*
X700674Y-83944D01*
Y-87276D01*
X702340Y-88942D01*
X710671Y-92275D02*
Y-82278D01*
X715669D01*
X717335Y-83944D01*
Y-87276D01*
X715669Y-88942D01*
X710671D01*
X720668Y-92275D02*
Y-82278D01*
X725666D01*
X727332Y-83944D01*
Y-87276D01*
X725666Y-88942D01*
X720668D01*
X735663D02*
X732331D01*
X730664Y-87276D01*
Y-83944D01*
X732331Y-82278D01*
X735663D01*
X737329Y-83944D01*
Y-85610D01*
X730664D01*
X740661Y-82278D02*
Y-88942D01*
Y-85610D01*
X742327Y-83944D01*
X743993Y-82278D01*
X745659D01*
D18*
X47000Y49500D02*
X48900D01*
X49400Y50000D01*
Y54000D01*
X71900Y38000D02*
Y41200D01*
X65900Y32000D02*
X71900D01*
X55840Y41360D02*
X59200Y38000D01*
X65900D01*
X53337Y51563D02*
Y53398D01*
Y51563D02*
X53900Y51000D01*
X55700Y32000D02*
X65900D01*
X50900Y36800D02*
X55700Y32000D01*
X39968Y57531D02*
X43900D01*
X39600Y57900D02*
X39968Y57531D01*
X36400Y57900D02*
X39600D01*
X40863Y55563D02*
X43298D01*
Y63437D02*
Y68102D01*
X42400Y69000D02*
X43298Y68102D01*
X51000Y59500D02*
X54805D01*
X50000Y58500D02*
X51000Y59500D01*
X47000Y28000D02*
Y34300D01*
Y28000D02*
X48160Y26840D01*
Y21000D02*
Y26840D01*
X55840Y41360D02*
Y45000D01*
X42000Y42000D02*
X43500Y43500D01*
X45463Y65602D02*
Y67963D01*
X47000Y69500D01*
X50000D01*
X51000Y70500D01*
Y75000D01*
X71763Y55563D02*
X73000Y56800D01*
Y65600D01*
X76000Y68600D01*
Y75000D01*
X36400Y30100D02*
X36500Y30000D01*
X36400Y48000D02*
X38400D01*
X39500Y46900D01*
Y39900D02*
Y46900D01*
X50750Y42150D02*
Y45000D01*
X48160Y41960D02*
Y45000D01*
X47400Y41200D02*
X48160Y41960D01*
X32700Y31600D02*
X33200Y32100D01*
X32700Y27400D02*
Y31600D01*
Y27400D02*
X33900Y26200D01*
X38100D01*
X43500Y49800D02*
X45463Y51763D01*
Y53398D01*
X43500Y43500D02*
Y49800D01*
X48000Y39400D02*
X50750Y42150D01*
X40100Y39300D02*
X43000D01*
X44900Y41200D01*
X47400D01*
X42300Y36000D02*
X45700Y39400D01*
X48000D01*
X41500Y24000D02*
X44500Y21000D01*
X48160D01*
X38100Y26200D02*
X43200Y31300D01*
X59500Y51000D02*
X59600Y51100D01*
X61000Y66500D02*
Y75000D01*
Y66500D02*
X67000Y60500D01*
X69000D01*
X55502Y63437D02*
X58363D01*
X64700Y57100D01*
X65900Y38000D02*
Y41300D01*
X66400Y57900D02*
Y57900D01*
X58698Y65602D02*
X66400Y57900D01*
X53337Y65602D02*
X58698D01*
X67200Y45900D02*
X71900Y41200D01*
X66400Y57900D02*
X67200Y57100D01*
Y45900D02*
Y57100D01*
X64700Y57100D02*
X65500Y56300D01*
X71900Y35500D02*
Y38000D01*
X53250Y37850D02*
Y45000D01*
X71400Y35000D02*
X71900Y35500D01*
X53250Y37850D02*
X56100Y35000D01*
X71400D01*
X65500Y41700D02*
X65900Y41300D01*
X65500Y41700D02*
Y56300D01*
X69700Y55563D02*
X71763D01*
X59900Y57300D02*
Y58500D01*
X55502Y55563D02*
X58163D01*
X59900Y57300D01*
X74700Y50400D02*
X75100Y50000D01*
X69800Y50400D02*
X74700D01*
X75100Y50000D02*
X78000D01*
Y56000D01*
X53900Y51000D02*
X59500D01*
X36500Y36000D02*
X42300D01*
X36400Y30100D02*
Y36000D01*
X45900Y36800D02*
X50900D01*
X43200Y34100D02*
X45900Y36800D01*
X43200Y31300D02*
Y34100D01*
X33200Y32100D02*
Y37600D01*
X34500Y38900D01*
X38500D01*
X39500Y39900D01*
X40100Y39300D01*
X217303Y-140947D02*
X216589Y-141185D01*
X216113Y-141900D01*
X215875Y-143090D01*
Y-143804D01*
X216113Y-144994D01*
X216589Y-145708D01*
X217303Y-145946D01*
X217779D01*
X218493Y-145708D01*
X218969Y-144994D01*
X219207Y-143804D01*
Y-143090D01*
X218969Y-141900D01*
X218493Y-141185D01*
X217779Y-140947D01*
X217303D01*
X221516D02*
X220802Y-141185D01*
X220564Y-141661D01*
Y-142138D01*
X220802Y-142614D01*
X221278Y-142852D01*
X222230Y-143090D01*
X222944Y-143328D01*
X223421Y-143804D01*
X223659Y-144280D01*
Y-144994D01*
X223421Y-145470D01*
X223183Y-145708D01*
X222468Y-145946D01*
X221516D01*
X220802Y-145708D01*
X220564Y-145470D01*
X220326Y-144994D01*
Y-144280D01*
X220564Y-143804D01*
X221040Y-143328D01*
X221754Y-143090D01*
X222707Y-142852D01*
X223183Y-142614D01*
X223421Y-142138D01*
Y-141661D01*
X223183Y-141185D01*
X222468Y-140947D01*
X221516D01*
X224778Y-146660D02*
X228110Y-140947D01*
X228443Y-141900D02*
X228919Y-141661D01*
X229634Y-140947D01*
Y-145946D01*
X233299Y-140947D02*
X232585Y-141185D01*
X232347Y-141661D01*
Y-142138D01*
X232585Y-142614D01*
X233061Y-142852D01*
X234014Y-143090D01*
X234728Y-143328D01*
X235204Y-143804D01*
X235442Y-144280D01*
Y-144994D01*
X235204Y-145470D01*
X234966Y-145708D01*
X234252Y-145946D01*
X233299D01*
X232585Y-145708D01*
X232347Y-145470D01*
X232109Y-144994D01*
Y-144280D01*
X232347Y-143804D01*
X232823Y-143328D01*
X233538Y-143090D01*
X234490Y-142852D01*
X234966Y-142614D01*
X235204Y-142138D01*
Y-141661D01*
X234966Y-141185D01*
X234252Y-140947D01*
X233299D01*
X236561Y-146660D02*
X239893Y-140947D01*
X240465Y-142138D02*
Y-141900D01*
X240703Y-141423D01*
X240941Y-141185D01*
X241417Y-140947D01*
X242369D01*
X242845Y-141185D01*
X243083Y-141423D01*
X243321Y-141900D01*
Y-142376D01*
X243083Y-142852D01*
X242607Y-143566D01*
X240227Y-145946D01*
X243559D01*
X246106Y-140947D02*
X245392Y-141185D01*
X244916Y-141900D01*
X244678Y-143090D01*
Y-143804D01*
X244916Y-144994D01*
X245392Y-145708D01*
X246106Y-145946D01*
X246582D01*
X247297Y-145708D01*
X247773Y-144994D01*
X248011Y-143804D01*
Y-143090D01*
X247773Y-141900D01*
X247297Y-141185D01*
X246582Y-140947D01*
X246106D01*
X249129Y-141900D02*
X249605Y-141661D01*
X250320Y-140947D01*
Y-145946D01*
X252795Y-141900D02*
X253271Y-141661D01*
X253986Y-140947D01*
Y-145946D01*
X-87520Y-128501D02*
Y-132310D01*
X-87758Y-133024D01*
X-87996Y-133262D01*
X-88472Y-133500D01*
X-88948D01*
X-89424Y-133262D01*
X-89662Y-133024D01*
X-89900Y-132310D01*
Y-131834D01*
X-82664Y-129691D02*
X-82902Y-129215D01*
X-83378Y-128739D01*
X-83854Y-128501D01*
X-84806D01*
X-85282Y-128739D01*
X-85758Y-129215D01*
X-85996Y-129691D01*
X-86234Y-130405D01*
Y-131596D01*
X-85996Y-132310D01*
X-85758Y-132786D01*
X-85282Y-133262D01*
X-84806Y-133500D01*
X-83854D01*
X-83378Y-133262D01*
X-82902Y-132786D01*
X-82664Y-132310D01*
X-81259Y-128501D02*
Y-133500D01*
Y-128501D02*
X-79355Y-133500D01*
X-77450Y-128501D02*
X-79355Y-133500D01*
X-77450Y-128501D02*
Y-133500D01*
X-72094Y-128501D02*
Y-133500D01*
X-71047Y-128501D02*
Y-133500D01*
X-96520Y-90501D02*
Y-94310D01*
X-96758Y-95024D01*
X-96996Y-95262D01*
X-97472Y-95500D01*
X-97948D01*
X-98424Y-95262D01*
X-98662Y-95024D01*
X-98900Y-94310D01*
Y-93834D01*
X-91663Y-91691D02*
X-91901Y-91215D01*
X-92378Y-90739D01*
X-92854Y-90501D01*
X-93806D01*
X-94282Y-90739D01*
X-94758Y-91215D01*
X-94996Y-91691D01*
X-95234Y-92405D01*
Y-93596D01*
X-94996Y-94310D01*
X-94758Y-94786D01*
X-94282Y-95262D01*
X-93806Y-95500D01*
X-92854D01*
X-92378Y-95262D01*
X-91901Y-94786D01*
X-91663Y-94310D01*
X-90259Y-90501D02*
Y-95500D01*
Y-90501D02*
X-88355Y-95500D01*
X-86450Y-90501D02*
X-88355Y-95500D01*
X-86450Y-90501D02*
Y-95500D01*
X-81094Y-90501D02*
Y-95500D01*
X-80047Y-90501D02*
Y-95500D01*
X398372Y-42569D02*
X455872D01*
D19*
X40400Y55100D02*
X40863Y55563D01*
X36400Y54000D02*
Y57900D01*
Y61700D01*
X33200Y67100D02*
X33800Y67700D01*
X36400D01*
Y71122D01*
X75800Y38000D02*
X77900D01*
X74900Y37100D02*
X75800Y38000D01*
X74900Y28800D02*
Y37100D01*
X67100Y21000D02*
X74900Y28800D01*
X40400Y51100D02*
Y55100D01*
X53250Y16750D02*
Y21000D01*
Y16750D02*
X54000Y16000D01*
X54500D01*
X49500D02*
X50750Y17250D01*
Y21000D01*
X40278Y75000D02*
X46000D01*
X36400Y71122D02*
X40278Y75000D01*
X55840Y21000D02*
X59500D01*
X67100D01*
X12600Y23400D02*
X17100D01*
X12500Y23500D02*
X12600Y23400D01*
X6500Y23500D02*
X12500D01*
X6500Y17500D02*
X12500D01*
X17900D01*
X17100Y23400D02*
X18000Y24300D01*
X87100Y12900D02*
Y85600D01*
X27400D02*
X87100D01*
X27400Y10700D02*
Y85600D01*
Y10700D02*
X89300D01*
Y87800D01*
X25100D02*
X89300D01*
X25100Y8500D02*
Y87800D01*
Y8500D02*
X91500D01*
Y90000D01*
X22900D02*
X91500D01*
X22900Y6300D02*
Y90000D01*
Y6300D02*
X93700D01*
Y92200D01*
X20600D02*
X93700D01*
X20600Y4100D02*
Y92200D01*
Y4100D02*
X95900D01*
Y94400D01*
X18000Y24400D02*
Y94400D01*
X95900D01*
X84900Y15100D02*
Y83400D01*
X55400Y15100D02*
X84900D01*
X54500Y16000D02*
X55400Y15100D01*
X33500Y51100D02*
X40400D01*
X32700Y51900D02*
X33500Y51100D01*
X32700Y51900D02*
Y66600D01*
X33800Y67700D01*
X32700Y50300D02*
X33500Y51100D01*
X32700Y43900D02*
Y50300D01*
X29600Y12900D02*
Y83400D01*
X84900D01*
X29600Y12900D02*
X87100D01*
X77900Y38000D02*
Y43900D01*
X78000Y44000D01*
X34600Y42000D02*
X36500D01*
X32700Y43900D02*
X34600Y42000D01*
D20*
X71000Y71200D02*
Y75000D01*
X69100Y69300D02*
X71000Y71200D01*
X69100Y66600D02*
Y69300D01*
X69000Y66500D02*
X69100Y66600D01*
D21*
X173240Y-136265D02*
Y-141264D01*
Y-136265D02*
X174906D01*
X175620Y-136503D01*
X176096Y-136979D01*
X176334Y-137455D01*
X176572Y-138170D01*
Y-139360D01*
X176334Y-140074D01*
X176096Y-140550D01*
X175620Y-141026D01*
X174906Y-141264D01*
X173240D01*
X181500D02*
X179595Y-136265D01*
X177691Y-141264D01*
X178405Y-139598D02*
X180786D01*
X184333Y-136265D02*
Y-141264D01*
X182666Y-136265D02*
X185999D01*
X189689D02*
X186594D01*
Y-141264D01*
X189689D01*
X186594Y-138646D02*
X188498D01*
X190760Y-137931D02*
X190522Y-138170D01*
X190760Y-138408D01*
X190998Y-138170D01*
X190760Y-137931D01*
Y-140788D02*
X190522Y-141026D01*
X190760Y-141264D01*
X190998Y-141026D01*
X190760Y-140788D01*
X126990Y-136265D02*
Y-141264D01*
Y-136265D02*
X129132D01*
X129846Y-136503D01*
X130084Y-136741D01*
X130322Y-137217D01*
Y-137693D01*
X130084Y-138170D01*
X129846Y-138408D01*
X129132Y-138646D01*
X126990D01*
X128656D02*
X130322Y-141264D01*
X134536Y-136265D02*
X131441D01*
Y-141264D01*
X134536D01*
X131441Y-138646D02*
X133345D01*
X135369Y-136265D02*
X137273Y-141264D01*
X139178Y-136265D02*
X137273Y-141264D01*
X140058Y-137931D02*
X139820Y-138170D01*
X140058Y-138408D01*
X140296Y-138170D01*
X140058Y-137931D01*
Y-140788D02*
X139820Y-141026D01*
X140058Y-141264D01*
X140296Y-141026D01*
X140058Y-140788D01*
X-136760Y-111384D02*
X-134618D01*
X-133904Y-111146D01*
X-133666Y-110907D01*
X-133428Y-110431D01*
Y-109717D01*
X-133666Y-109241D01*
X-133904Y-109003D01*
X-134618Y-108765D01*
X-136760D01*
Y-113764D01*
X-132309Y-108765D02*
Y-113764D01*
X-128976Y-108765D02*
Y-113764D01*
X-132309Y-111146D02*
X-128976D01*
X-126167Y-108765D02*
X-126644Y-109003D01*
X-127120Y-109479D01*
X-127358Y-109955D01*
X-127596Y-110670D01*
Y-111860D01*
X-127358Y-112574D01*
X-127120Y-113050D01*
X-126644Y-113526D01*
X-126167Y-113764D01*
X-125215D01*
X-124739Y-113526D01*
X-124263Y-113050D01*
X-124025Y-112574D01*
X-123787Y-111860D01*
Y-110670D01*
X-124025Y-109955D01*
X-124263Y-109479D01*
X-124739Y-109003D01*
X-125215Y-108765D01*
X-126167D01*
X-122621D02*
Y-113764D01*
Y-108765D02*
X-119288Y-113764D01*
Y-108765D02*
Y-113764D01*
X-114813Y-108765D02*
X-117907D01*
Y-113764D01*
X-114813D01*
X-117907Y-111146D02*
X-116003D01*
X-113742Y-110431D02*
X-113980Y-110670D01*
X-113742Y-110907D01*
X-113504Y-110670D01*
X-113742Y-110431D01*
Y-113288D02*
X-113980Y-113526D01*
X-113742Y-113764D01*
X-113504Y-113526D01*
X-113742Y-113288D01*
X-136760Y-148884D02*
X-134618D01*
X-133904Y-148646D01*
X-133666Y-148407D01*
X-133428Y-147931D01*
Y-147217D01*
X-133666Y-146741D01*
X-133904Y-146503D01*
X-134618Y-146265D01*
X-136760D01*
Y-151264D01*
X-132309Y-146265D02*
Y-151264D01*
X-128976Y-146265D02*
Y-151264D01*
X-132309Y-148646D02*
X-128976D01*
X-126167Y-146265D02*
X-126644Y-146503D01*
X-127120Y-146979D01*
X-127358Y-147455D01*
X-127596Y-148170D01*
Y-149360D01*
X-127358Y-150074D01*
X-127120Y-150550D01*
X-126644Y-151026D01*
X-126167Y-151264D01*
X-125215D01*
X-124739Y-151026D01*
X-124263Y-150550D01*
X-124025Y-150074D01*
X-123787Y-149360D01*
Y-148170D01*
X-124025Y-147455D01*
X-124263Y-146979D01*
X-124739Y-146503D01*
X-125215Y-146265D01*
X-126167D01*
X-122621D02*
Y-151264D01*
Y-146265D02*
X-119288Y-151264D01*
Y-146265D02*
Y-151264D01*
X-114813Y-146265D02*
X-117907D01*
Y-151264D01*
X-114813D01*
X-117907Y-148646D02*
X-116003D01*
X-113742Y-147931D02*
X-113980Y-148170D01*
X-113742Y-148407D01*
X-113504Y-148170D01*
X-113742Y-147931D01*
Y-150788D02*
X-113980Y-151026D01*
X-113742Y-151264D01*
X-113504Y-151026D01*
X-113742Y-150788D01*
X47240Y-164015D02*
Y-169014D01*
X50096D01*
X54452D02*
X52548Y-164015D01*
X50644Y-169014D01*
X51358Y-167348D02*
X53738D01*
X55619Y-164015D02*
X57523Y-166396D01*
Y-169014D01*
X59427Y-164015D02*
X57523Y-166396D01*
X63165Y-164015D02*
X60070D01*
Y-169014D01*
X63165D01*
X60070Y-166396D02*
X61975D01*
X63998Y-164015D02*
Y-169014D01*
Y-164015D02*
X66140D01*
X66854Y-164253D01*
X67093Y-164491D01*
X67330Y-164967D01*
Y-165443D01*
X67093Y-165919D01*
X66854Y-166157D01*
X66140Y-166396D01*
X63998D01*
X65664D02*
X67330Y-169014D01*
X68687Y-165681D02*
X68449Y-165919D01*
X68687Y-166157D01*
X68925Y-165919D01*
X68687Y-165681D01*
Y-168538D02*
X68449Y-168776D01*
X68687Y-169014D01*
X68925Y-168776D01*
X68687Y-168538D01*
X-133666Y-90015D02*
X-136760D01*
Y-95014D01*
X-133666D01*
X-136760Y-92396D02*
X-134856D01*
X-132833Y-90015D02*
Y-95014D01*
Y-90015D02*
X-129500Y-95014D01*
Y-90015D02*
Y-95014D01*
X-124549Y-91205D02*
X-124787Y-90729D01*
X-125263Y-90253D01*
X-125739Y-90015D01*
X-126691D01*
X-127167Y-90253D01*
X-127643Y-90729D01*
X-127881Y-91205D01*
X-128119Y-91919D01*
Y-93110D01*
X-127881Y-93824D01*
X-127643Y-94300D01*
X-127167Y-94776D01*
X-126691Y-95014D01*
X-125739D01*
X-125263Y-94776D01*
X-124787Y-94300D01*
X-124549Y-93824D01*
Y-93110D01*
X-125739D02*
X-124549D01*
X-123406Y-90015D02*
Y-95014D01*
X-122359Y-90015D02*
Y-95014D01*
Y-90015D02*
X-119026Y-95014D01*
Y-90015D02*
Y-95014D01*
X-114551Y-90015D02*
X-117645D01*
Y-95014D01*
X-114551D01*
X-117645Y-92396D02*
X-115741D01*
X-110623Y-90015D02*
X-113718D01*
Y-95014D01*
X-110623D01*
X-113718Y-92396D02*
X-111813D01*
X-109790Y-90015D02*
Y-95014D01*
Y-90015D02*
X-107648D01*
X-106933Y-90253D01*
X-106695Y-90491D01*
X-106457Y-90967D01*
Y-91443D01*
X-106695Y-91919D01*
X-106933Y-92158D01*
X-107648Y-92396D01*
X-109790D01*
X-108124D02*
X-106457Y-95014D01*
X-105101Y-91681D02*
X-105339Y-91919D01*
X-105101Y-92158D01*
X-104862Y-91919D01*
X-105101Y-91681D01*
Y-94538D02*
X-105339Y-94776D01*
X-105101Y-95014D01*
X-104862Y-94776D01*
X-105101Y-94538D01*
X-42952Y-141264D02*
X-44856Y-136265D01*
X-46760Y-141264D01*
X-46046Y-139598D02*
X-43666D01*
X-41785Y-137931D02*
Y-142930D01*
Y-138646D02*
X-41309Y-138170D01*
X-40833Y-137931D01*
X-40119D01*
X-39643Y-138170D01*
X-39167Y-138646D01*
X-38929Y-139360D01*
Y-139836D01*
X-39167Y-140550D01*
X-39643Y-141026D01*
X-40119Y-141264D01*
X-40833D01*
X-41309Y-141026D01*
X-41785Y-140550D01*
X-37858Y-137931D02*
Y-142930D01*
Y-138646D02*
X-37382Y-138170D01*
X-36905Y-137931D01*
X-36191D01*
X-35715Y-138170D01*
X-35239Y-138646D01*
X-35001Y-139360D01*
Y-139836D01*
X-35239Y-140550D01*
X-35715Y-141026D01*
X-36191Y-141264D01*
X-36905D01*
X-37382Y-141026D01*
X-37858Y-140550D01*
X-33930Y-137931D02*
Y-141264D01*
Y-139360D02*
X-33692Y-138646D01*
X-33216Y-138170D01*
X-32740Y-137931D01*
X-32026D01*
X-30383D02*
X-30859Y-138170D01*
X-31335Y-138646D01*
X-31573Y-139360D01*
Y-139836D01*
X-31335Y-140550D01*
X-30859Y-141026D01*
X-30383Y-141264D01*
X-29669D01*
X-29193Y-141026D01*
X-28717Y-140550D01*
X-28479Y-139836D01*
Y-139360D01*
X-28717Y-138646D01*
X-29193Y-138170D01*
X-29669Y-137931D01*
X-30383D01*
X-27384D02*
X-25955Y-141264D01*
X-24527Y-137931D02*
X-25955Y-141264D01*
X-20861Y-137931D02*
Y-141264D01*
Y-138646D02*
X-21337Y-138170D01*
X-21813Y-137931D01*
X-22528D01*
X-23004Y-138170D01*
X-23480Y-138646D01*
X-23718Y-139360D01*
Y-139836D01*
X-23480Y-140550D01*
X-23004Y-141026D01*
X-22528Y-141264D01*
X-21813D01*
X-21337Y-141026D01*
X-20861Y-140550D01*
X-19528Y-136265D02*
Y-141264D01*
X-46344Y-88765D02*
Y-93764D01*
X-48010Y-88765D02*
X-44678D01*
X-44083D02*
Y-93764D01*
X-41369Y-88765D02*
Y-93764D01*
X-43035Y-88765D02*
X-39703D01*
X-39107D02*
Y-93764D01*
X-36251D01*
X-32609Y-88765D02*
X-35704D01*
Y-93764D01*
X-32609D01*
X-35704Y-91146D02*
X-33799D01*
X-31538Y-90431D02*
X-31776Y-90670D01*
X-31538Y-90908D01*
X-31300Y-90670D01*
X-31538Y-90431D01*
Y-93288D02*
X-31776Y-93526D01*
X-31538Y-93764D01*
X-31300Y-93526D01*
X-31538Y-93288D01*
X-136760Y-128015D02*
Y-133014D01*
Y-128015D02*
X-135094D01*
X-134380Y-128253D01*
X-133904Y-128729D01*
X-133666Y-129205D01*
X-133428Y-129920D01*
Y-131110D01*
X-133666Y-131824D01*
X-133904Y-132300D01*
X-134380Y-132776D01*
X-135094Y-133014D01*
X-136760D01*
X-132309Y-128015D02*
Y-133014D01*
Y-128015D02*
X-130166D01*
X-129452Y-128253D01*
X-129214Y-128491D01*
X-128976Y-128967D01*
Y-129443D01*
X-129214Y-129920D01*
X-129452Y-130157D01*
X-130166Y-130396D01*
X-132309D01*
X-130643D02*
X-128976Y-133014D01*
X-124049D02*
X-125953Y-128015D01*
X-127857Y-133014D01*
X-127143Y-131348D02*
X-124763D01*
X-122882Y-128015D02*
X-121692Y-133014D01*
X-120502Y-128015D02*
X-121692Y-133014D01*
X-120502Y-128015D02*
X-119312Y-133014D01*
X-118122Y-128015D02*
X-119312Y-133014D01*
X-117122Y-128015D02*
Y-133014D01*
Y-128015D02*
X-113789Y-133014D01*
Y-128015D02*
Y-133014D01*
X-108481Y-128015D02*
Y-133014D01*
Y-130396D02*
X-108005Y-129920D01*
X-107528Y-129681D01*
X-106814D01*
X-106338Y-129920D01*
X-105862Y-130396D01*
X-105624Y-131110D01*
Y-131586D01*
X-105862Y-132300D01*
X-106338Y-132776D01*
X-106814Y-133014D01*
X-107528D01*
X-108005Y-132776D01*
X-108481Y-132300D01*
X-104315Y-129681D02*
X-102887Y-133014D01*
X-101458Y-129681D02*
X-102887Y-133014D01*
X-103363Y-133966D01*
X-103839Y-134442D01*
X-104315Y-134680D01*
X-104553D01*
X-96460Y-129681D02*
X-96697Y-129920D01*
X-96460Y-130157D01*
X-96221Y-129920D01*
X-96460Y-129681D01*
Y-132538D02*
X-96697Y-132776D01*
X-96460Y-133014D01*
X-96221Y-132776D01*
X-96460Y-132538D01*
X-136760Y-164015D02*
Y-169014D01*
Y-164015D02*
X-133666D01*
X-136760Y-166396D02*
X-134856D01*
X-133095Y-164015D02*
Y-169014D01*
X-132047Y-164015D02*
Y-169014D01*
X-129191D01*
X-125549Y-164015D02*
X-128643D01*
Y-169014D01*
X-125549D01*
X-128643Y-166396D02*
X-126739D01*
X-120788Y-164015D02*
Y-169014D01*
Y-164015D02*
X-117455Y-169014D01*
Y-164015D02*
Y-169014D01*
X-112266D02*
X-114170Y-164015D01*
X-116074Y-169014D01*
X-115360Y-167348D02*
X-112980D01*
X-111099Y-164015D02*
Y-169014D01*
Y-164015D02*
X-109195Y-169014D01*
X-107290Y-164015D02*
X-109195Y-169014D01*
X-107290Y-164015D02*
Y-169014D01*
X-102768Y-164015D02*
X-105862D01*
Y-169014D01*
X-102768D01*
X-105862Y-166396D02*
X-103958D01*
X-101697Y-165681D02*
X-101935Y-165919D01*
X-101697Y-166157D01*
X-101459Y-165919D01*
X-101697Y-165681D01*
Y-168538D02*
X-101935Y-168776D01*
X-101697Y-169014D01*
X-101459Y-168776D01*
X-101697Y-168538D01*
X232810Y-165205D02*
X232572Y-164729D01*
X232096Y-164253D01*
X231620Y-164015D01*
X230668D01*
X230192Y-164253D01*
X229716Y-164729D01*
X229478Y-165205D01*
X229240Y-165919D01*
Y-167110D01*
X229478Y-167824D01*
X229716Y-168300D01*
X230192Y-168776D01*
X230668Y-169014D01*
X231620D01*
X232096Y-168776D01*
X232572Y-168300D01*
X232810Y-167824D01*
Y-167110D01*
X231620D02*
X232810D01*
X237048Y-164015D02*
X233953D01*
Y-169014D01*
X237048D01*
X233953Y-166396D02*
X235857D01*
X237881Y-164015D02*
Y-169014D01*
Y-164015D02*
X240023D01*
X240737Y-164253D01*
X240975Y-164491D01*
X241213Y-164967D01*
Y-165443D01*
X240975Y-165919D01*
X240737Y-166157D01*
X240023Y-166396D01*
X237881D01*
X239547D02*
X241213Y-169014D01*
X242332Y-164015D02*
Y-169014D01*
Y-164015D02*
X244474D01*
X245189Y-164253D01*
X245427Y-164491D01*
X245665Y-164967D01*
Y-165443D01*
X245427Y-165919D01*
X245189Y-166157D01*
X244474Y-166396D01*
X242332D02*
X244474D01*
X245189Y-166634D01*
X245427Y-166872D01*
X245665Y-167348D01*
Y-168062D01*
X245427Y-168538D01*
X245189Y-168776D01*
X244474Y-169014D01*
X242332D01*
X249878Y-164015D02*
X246783D01*
Y-169014D01*
X249878D01*
X246783Y-166396D02*
X248688D01*
X250711Y-164015D02*
Y-169014D01*
Y-164015D02*
X252854D01*
X253568Y-164253D01*
X253806Y-164491D01*
X254044Y-164967D01*
Y-165443D01*
X253806Y-165919D01*
X253568Y-166157D01*
X252854Y-166396D01*
X250711D01*
X252378D02*
X254044Y-169014D01*
X255401Y-165681D02*
X255163Y-165919D01*
X255401Y-166157D01*
X255639Y-165919D01*
X255401Y-165681D01*
Y-168538D02*
X255163Y-168776D01*
X255401Y-169014D01*
X255639Y-168776D01*
X255401Y-168538D01*
D22*
X-16467Y-103503D02*
Y-115000D01*
X-20300Y-103503D02*
X-12635D01*
X-2506Y-115000D02*
X-6886Y-103503D01*
X-11266Y-115000D01*
X-9624Y-111168D02*
X-4149D01*
X8389Y-106240D02*
X7842Y-105145D01*
X6747Y-104050D01*
X5652Y-103503D01*
X3462D01*
X2367Y-104050D01*
X1272Y-105145D01*
X724Y-106240D01*
X177Y-107882D01*
Y-110620D01*
X724Y-112262D01*
X1272Y-113357D01*
X2367Y-114453D01*
X3462Y-115000D01*
X5652D01*
X6747Y-114453D01*
X7842Y-113357D01*
X8389Y-112262D01*
Y-110620D01*
X5652D02*
X8389D01*
X11565Y-106240D02*
Y-105693D01*
X12112Y-104597D01*
X12660Y-104050D01*
X13755Y-103503D01*
X15945D01*
X17040Y-104050D01*
X17587Y-104597D01*
X18135Y-105693D01*
Y-106788D01*
X17587Y-107882D01*
X16492Y-109525D01*
X11017Y-115000D01*
X18682D01*
X24540Y-103503D02*
X22898Y-104050D01*
X21803Y-105693D01*
X21255Y-108430D01*
Y-110073D01*
X21803Y-112810D01*
X22898Y-114453D01*
X24540Y-115000D01*
X25635D01*
X27278Y-114453D01*
X28373Y-112810D01*
X28920Y-110073D01*
Y-108430D01*
X28373Y-105693D01*
X27278Y-104050D01*
X25635Y-103503D01*
X24540D01*
X31494Y-105693D02*
X32589Y-105145D01*
X34231Y-103503D01*
Y-115000D01*
D23*
X-45444Y-75000D02*
X-48872Y-66002D01*
X-52300Y-75000D01*
X-51015Y-72001D02*
X-46730D01*
X-38203Y-70287D02*
X-39060Y-69430D01*
X-39917Y-69001D01*
X-41202D01*
X-42059Y-69430D01*
X-42916Y-70287D01*
X-43345Y-71572D01*
Y-72429D01*
X-42916Y-73715D01*
X-42059Y-74572D01*
X-41202Y-75000D01*
X-39917D01*
X-39060Y-74572D01*
X-38203Y-73715D01*
X-34989Y-66002D02*
Y-73286D01*
X-34561Y-74572D01*
X-33704Y-75000D01*
X-32847D01*
X-36275Y-69001D02*
X-33275D01*
X-30705Y-66002D02*
X-30276Y-66430D01*
X-29848Y-66002D01*
X-30276Y-65574D01*
X-30705Y-66002D01*
X-30276Y-69001D02*
Y-75000D01*
X-28262Y-69001D02*
X-25691Y-75000D01*
X-23121Y-69001D02*
X-25691Y-75000D01*
X-21664Y-71572D02*
X-16522D01*
Y-70715D01*
X-16950Y-69858D01*
X-17379Y-69430D01*
X-18236Y-69001D01*
X-19521D01*
X-20378Y-69430D01*
X-21235Y-70287D01*
X-21664Y-71572D01*
Y-72429D01*
X-21235Y-73715D01*
X-20378Y-74572D01*
X-19521Y-75000D01*
X-18236D01*
X-17379Y-74572D01*
X-16522Y-73715D01*
X-7524Y-66002D02*
X-5381Y-75000D01*
X-3239Y-66002D02*
X-5381Y-75000D01*
X-3239Y-66002D02*
X-1097Y-75000D01*
X1046Y-66002D02*
X-1097Y-75000D01*
X7987Y-69001D02*
Y-75000D01*
Y-70287D02*
X7130Y-69430D01*
X6273Y-69001D01*
X4988D01*
X4131Y-69430D01*
X3274Y-70287D01*
X2845Y-71572D01*
Y-72429D01*
X3274Y-73715D01*
X4131Y-74572D01*
X4988Y-75000D01*
X6273D01*
X7130Y-74572D01*
X7987Y-73715D01*
X10387Y-69001D02*
X12957Y-75000D01*
X15528Y-69001D02*
X12957Y-75000D01*
X16985Y-71572D02*
X22127D01*
Y-70715D01*
X21698Y-69858D01*
X21270Y-69430D01*
X20413Y-69001D01*
X19128D01*
X18271Y-69430D01*
X17414Y-70287D01*
X16985Y-71572D01*
Y-72429D01*
X17414Y-73715D01*
X18271Y-74572D01*
X19128Y-75000D01*
X20413D01*
X21270Y-74572D01*
X22127Y-73715D01*
X144728Y-144955D02*
Y-144717D01*
X144966Y-144241D01*
X145204Y-144003D01*
X145680Y-143765D01*
X146632D01*
X147108Y-144003D01*
X147346Y-144241D01*
X147584Y-144717D01*
Y-145193D01*
X147346Y-145669D01*
X146870Y-146384D01*
X144490Y-148764D01*
X147822D01*
X149179Y-148288D02*
X148941Y-148526D01*
X149179Y-148764D01*
X149417Y-148526D01*
X149179Y-148288D01*
X151941Y-143765D02*
X151226Y-144003D01*
X150750Y-144717D01*
X150512Y-145908D01*
Y-146622D01*
X150750Y-147812D01*
X151226Y-148526D01*
X151941Y-148764D01*
X152417D01*
X153131Y-148526D01*
X153607Y-147812D01*
X153845Y-146622D01*
Y-145908D01*
X153607Y-144717D01*
X153131Y-144003D01*
X152417Y-143765D01*
X151941D01*
D24*
X61500Y53000D02*
D03*
X36500Y30000D02*
D03*
X41500Y24000D02*
D03*
D25*
X46000Y75000D02*
D03*
X71000D02*
D03*
D26*
X51000D02*
D03*
X56000D02*
D03*
X61000D02*
D03*
X76000D02*
D03*
D27*
X101700Y87500D02*
D03*
X6700Y8500D02*
D03*
X8900Y86000D02*
D03*
X101700Y13500D02*
D03*
D28*
X69800Y50400D02*
D03*
X50900Y36800D02*
D03*
X50000Y58500D02*
D03*
X77900Y27500D02*
D03*
X47000Y34300D02*
D03*
X36400Y57900D02*
D03*
X59500Y21000D02*
D03*
X42400Y69000D02*
D03*
X40400Y51100D02*
D03*
X17900Y24400D02*
D03*
X49500Y16000D02*
D03*
X42000Y42000D02*
D03*
X54500Y16000D02*
D03*
X17900Y17400D02*
D03*
X69700Y55563D02*
D03*
X77900Y66500D02*
D03*
X47000Y49500D02*
D03*
X59900Y58500D02*
D03*
M02*
