%FSLAX25Y25*%
%MOIN*%
G70*
G01*
G75*
G04 Layer_Color=65535*
%ADD10R,0.08000X0.03500*%
%ADD11R,0.05000X0.03600*%
%ADD12R,0.03600X0.03600*%
%ADD13R,0.03000X0.03000*%
%ADD14R,0.02362X0.02362*%
%ADD15R,0.03000X0.03000*%
%ADD16C,0.04000*%
%ADD17R,0.07400X0.04500*%
%ADD18C,0.01200*%
%ADD19R,0.10000X0.10000*%
%ADD20R,0.10000X0.07000*%
%ADD21O,0.02400X0.08000*%
%ADD22R,0.03600X0.03600*%
%ADD23R,0.03600X0.05000*%
%ADD24R,0.02362X0.10000*%
%ADD25R,0.02362X0.09000*%
%ADD26R,0.07000X0.02362*%
%ADD27R,0.09000X0.02362*%
%ADD28O,0.01600X0.06000*%
%ADD29R,0.06299X0.05118*%
%ADD30O,0.01600X0.06000*%
%ADD31R,0.02000X0.05000*%
%ADD32R,0.11000X0.04500*%
%ADD33R,0.11811X0.23622*%
%ADD34R,0.01378X0.03543*%
%ADD35R,0.01378X0.03543*%
%ADD36R,0.11024X0.05512*%
%ADD37R,0.07000X0.10000*%
%ADD38R,0.08000X0.12000*%
%ADD39C,0.02500*%
%ADD40C,0.04000*%
%ADD41C,0.01500*%
%ADD42C,0.00800*%
%ADD43C,0.01000*%
%ADD44C,0.01200*%
%ADD45C,0.02000*%
%ADD46C,0.01600*%
%ADD47C,0.01400*%
%ADD48C,0.07400*%
%ADD49C,0.00600*%
%ADD50C,0.00500*%
%ADD51C,0.00900*%
%ADD52C,0.06200*%
%ADD53R,0.06200X0.06200*%
%ADD54R,0.05000X0.05000*%
%ADD55C,0.07000*%
%ADD56C,0.12200*%
%ADD57C,0.07800*%
%ADD58C,0.19500*%
%ADD59C,0.02800*%
%ADD60R,0.07000X0.07000*%
%ADD61C,0.03000*%
%ADD62C,0.00984*%
%ADD63C,0.00598*%
G36*
X181012Y167493D02*
X95400D01*
Y180120D01*
X181012D01*
Y167493D01*
D02*
G37*
%LPC*%
G36*
X146019Y177012D02*
X144653D01*
X142164Y170600D01*
X143530D01*
X144057Y172054D01*
X146644D01*
X147190Y170600D01*
X148596D01*
X146019Y177012D01*
D02*
G37*
G36*
X159995D02*
X155252D01*
Y170600D01*
X160122D01*
Y171683D01*
X156550D01*
Y173421D01*
X159751D01*
Y174504D01*
X156550D01*
Y175929D01*
X159995D01*
Y177012D01*
D02*
G37*
G36*
X164973D02*
X163675D01*
Y170600D01*
X164973D01*
Y177012D01*
D02*
G37*
G36*
X130647D02*
X125904D01*
Y170600D01*
X130774D01*
Y171683D01*
X127202D01*
Y173421D01*
X130403D01*
Y174504D01*
X127202D01*
Y175929D01*
X130647D01*
Y177012D01*
D02*
G37*
G36*
X102255D02*
X100889D01*
X98400Y170600D01*
X99766D01*
X100293Y172054D01*
X102880D01*
X103426Y170600D01*
X104832D01*
X102255Y177012D01*
D02*
G37*
G36*
X116593D02*
X111527D01*
Y175929D01*
X113411D01*
Y170600D01*
X114709D01*
Y175929D01*
X116593D01*
Y177012D01*
D02*
G37*
G36*
X118701D02*
X117403D01*
Y170600D01*
X118701D01*
Y177012D01*
D02*
G37*
G36*
X171297D02*
X170097D01*
Y172708D01*
X167452Y177012D01*
X166203D01*
Y170600D01*
X167403D01*
Y174807D01*
X169999Y170600D01*
X171297D01*
Y177012D01*
D02*
G37*
G36*
X108394Y177120D02*
X108277D01*
X108033Y177110D01*
X107799Y177081D01*
X107574Y177042D01*
X107369Y176983D01*
X107174Y176915D01*
X106999Y176837D01*
X106833Y176759D01*
X106686Y176681D01*
X106550Y176593D01*
X106432Y176515D01*
X106335Y176436D01*
X106247Y176368D01*
X106188Y176310D01*
X106140Y176271D01*
X106110Y176241D01*
X106101Y176232D01*
X105954Y176056D01*
X105827Y175870D01*
X105720Y175675D01*
X105622Y175470D01*
X105544Y175265D01*
X105486Y175051D01*
X105427Y174855D01*
X105388Y174650D01*
X105349Y174465D01*
X105320Y174299D01*
X105310Y174143D01*
X105291Y174006D01*
Y173899D01*
X105281Y173811D01*
Y173762D01*
Y173743D01*
X105291Y173469D01*
X105320Y173206D01*
X105359Y172962D01*
X105408Y172737D01*
X105476Y172523D01*
X105544Y172327D01*
X105613Y172142D01*
X105691Y171986D01*
X105769Y171839D01*
X105837Y171713D01*
X105915Y171605D01*
X105974Y171517D01*
X106023Y171449D01*
X106062Y171400D01*
X106091Y171371D01*
X106101Y171361D01*
X106257Y171205D01*
X106423Y171078D01*
X106598Y170961D01*
X106774Y170863D01*
X106950Y170776D01*
X107125Y170707D01*
X107291Y170649D01*
X107457Y170600D01*
X107613Y170561D01*
X107750Y170541D01*
X107877Y170522D01*
X107984Y170502D01*
X108072D01*
X108141Y170493D01*
X108199D01*
X108385Y170502D01*
X108570Y170512D01*
X108736Y170541D01*
X108902Y170571D01*
X109048Y170610D01*
X109185Y170649D01*
X109312Y170698D01*
X109429Y170746D01*
X109536Y170795D01*
X109634Y170844D01*
X109712Y170883D01*
X109780Y170922D01*
X109829Y170951D01*
X109868Y170981D01*
X109888Y170990D01*
X109897Y171000D01*
X110024Y171098D01*
X110132Y171215D01*
X110336Y171459D01*
X110502Y171722D01*
X110629Y171976D01*
X110688Y172093D01*
X110737Y172210D01*
X110776Y172308D01*
X110805Y172396D01*
X110834Y172474D01*
X110854Y172523D01*
X110863Y172562D01*
Y172572D01*
X109605Y172962D01*
X109536Y172708D01*
X109448Y172503D01*
X109361Y172318D01*
X109273Y172171D01*
X109195Y172064D01*
X109126Y171976D01*
X109087Y171937D01*
X109068Y171918D01*
X108921Y171810D01*
X108775Y171732D01*
X108628Y171674D01*
X108482Y171635D01*
X108365Y171615D01*
X108267Y171605D01*
X108228Y171596D01*
X108179D01*
X108053Y171605D01*
X107936Y171615D01*
X107711Y171674D01*
X107516Y171752D01*
X107350Y171849D01*
X107223Y171947D01*
X107125Y172025D01*
X107067Y172083D01*
X107057Y172093D01*
X107047Y172103D01*
X106969Y172210D01*
X106911Y172327D01*
X106852Y172454D01*
X106803Y172591D01*
X106725Y172884D01*
X106676Y173167D01*
X106657Y173303D01*
X106637Y173430D01*
X106628Y173538D01*
Y173645D01*
X106618Y173723D01*
Y173792D01*
Y173831D01*
Y173840D01*
X106628Y174045D01*
X106637Y174241D01*
X106657Y174426D01*
X106686Y174582D01*
X106716Y174738D01*
X106755Y174875D01*
X106794Y174992D01*
X106842Y175099D01*
X106881Y175197D01*
X106921Y175275D01*
X106959Y175343D01*
X106989Y175402D01*
X107018Y175441D01*
X107038Y175480D01*
X107057Y175490D01*
Y175499D01*
X107145Y175587D01*
X107233Y175675D01*
X107330Y175743D01*
X107418Y175802D01*
X107613Y175890D01*
X107799Y175949D01*
X107965Y175988D01*
X108033Y175997D01*
X108092Y176007D01*
X108141Y176017D01*
X108209D01*
X108394Y176007D01*
X108560Y175968D01*
X108716Y175929D01*
X108843Y175870D01*
X108951Y175822D01*
X109019Y175773D01*
X109068Y175734D01*
X109087Y175724D01*
X109214Y175607D01*
X109312Y175480D01*
X109399Y175353D01*
X109458Y175226D01*
X109507Y175109D01*
X109546Y175021D01*
X109556Y174963D01*
X109565Y174953D01*
Y174943D01*
X110844Y175246D01*
X110756Y175519D01*
X110649Y175753D01*
X110532Y175949D01*
X110424Y176114D01*
X110327Y176251D01*
X110249Y176339D01*
X110200Y176397D01*
X110190Y176417D01*
X110180D01*
X110034Y176544D01*
X109888Y176651D01*
X109731Y176739D01*
X109575Y176827D01*
X109419Y176895D01*
X109253Y176944D01*
X109107Y176993D01*
X108951Y177032D01*
X108814Y177061D01*
X108687Y177081D01*
X108570Y177100D01*
X108472Y177110D01*
X108394Y177120D01*
D02*
G37*
G36*
X175543D02*
X175426D01*
X175182Y177110D01*
X174948Y177081D01*
X174723Y177042D01*
X174518Y176983D01*
X174323Y176915D01*
X174147Y176837D01*
X173981Y176759D01*
X173835Y176681D01*
X173698Y176593D01*
X173581Y176515D01*
X173484Y176436D01*
X173396Y176368D01*
X173337Y176310D01*
X173289Y176271D01*
X173259Y176241D01*
X173249Y176232D01*
X173103Y176056D01*
X172976Y175870D01*
X172869Y175675D01*
X172771Y175470D01*
X172693Y175265D01*
X172635Y175051D01*
X172576Y174855D01*
X172537Y174650D01*
X172498Y174465D01*
X172469Y174299D01*
X172459Y174143D01*
X172439Y174006D01*
Y173899D01*
X172430Y173811D01*
Y173762D01*
Y173743D01*
X172439Y173469D01*
X172469Y173206D01*
X172508Y172962D01*
X172556Y172737D01*
X172625Y172523D01*
X172693Y172327D01*
X172761Y172142D01*
X172839Y171986D01*
X172918Y171839D01*
X172986Y171713D01*
X173064Y171605D01*
X173123Y171517D01*
X173171Y171449D01*
X173210Y171400D01*
X173240Y171371D01*
X173249Y171361D01*
X173406Y171205D01*
X173572Y171078D01*
X173747Y170961D01*
X173923Y170863D01*
X174099Y170776D01*
X174274Y170707D01*
X174440Y170649D01*
X174606Y170600D01*
X174762Y170561D01*
X174899Y170541D01*
X175026Y170522D01*
X175133Y170502D01*
X175221D01*
X175289Y170493D01*
X175348D01*
X175533Y170502D01*
X175719Y170512D01*
X175885Y170541D01*
X176051Y170571D01*
X176197Y170610D01*
X176334Y170649D01*
X176461Y170698D01*
X176578Y170746D01*
X176685Y170795D01*
X176783Y170844D01*
X176861Y170883D01*
X176929Y170922D01*
X176978Y170951D01*
X177017Y170981D01*
X177036Y170990D01*
X177046Y171000D01*
X177173Y171098D01*
X177280Y171215D01*
X177485Y171459D01*
X177651Y171722D01*
X177778Y171976D01*
X177837Y172093D01*
X177885Y172210D01*
X177925Y172308D01*
X177954Y172396D01*
X177983Y172474D01*
X178003Y172523D01*
X178012Y172562D01*
Y172572D01*
X176753Y172962D01*
X176685Y172708D01*
X176597Y172503D01*
X176509Y172318D01*
X176421Y172171D01*
X176343Y172064D01*
X176275Y171976D01*
X176236Y171937D01*
X176216Y171918D01*
X176070Y171810D01*
X175924Y171732D01*
X175777Y171674D01*
X175631Y171635D01*
X175514Y171615D01*
X175416Y171605D01*
X175377Y171596D01*
X175328D01*
X175201Y171605D01*
X175084Y171615D01*
X174860Y171674D01*
X174665Y171752D01*
X174499Y171849D01*
X174372Y171947D01*
X174274Y172025D01*
X174216Y172083D01*
X174206Y172093D01*
X174196Y172103D01*
X174118Y172210D01*
X174059Y172327D01*
X174001Y172454D01*
X173952Y172591D01*
X173874Y172884D01*
X173825Y173167D01*
X173806Y173303D01*
X173786Y173430D01*
X173776Y173538D01*
Y173645D01*
X173767Y173723D01*
Y173792D01*
Y173831D01*
Y173840D01*
X173776Y174045D01*
X173786Y174241D01*
X173806Y174426D01*
X173835Y174582D01*
X173864Y174738D01*
X173903Y174875D01*
X173942Y174992D01*
X173991Y175099D01*
X174030Y175197D01*
X174069Y175275D01*
X174108Y175343D01*
X174138Y175402D01*
X174167Y175441D01*
X174186Y175480D01*
X174206Y175490D01*
Y175499D01*
X174294Y175587D01*
X174382Y175675D01*
X174479Y175743D01*
X174567Y175802D01*
X174762Y175890D01*
X174948Y175949D01*
X175114Y175988D01*
X175182Y175997D01*
X175241Y176007D01*
X175289Y176017D01*
X175358D01*
X175543Y176007D01*
X175709Y175968D01*
X175865Y175929D01*
X175992Y175870D01*
X176099Y175822D01*
X176168Y175773D01*
X176216Y175734D01*
X176236Y175724D01*
X176363Y175607D01*
X176461Y175480D01*
X176548Y175353D01*
X176607Y175226D01*
X176656Y175109D01*
X176695Y175021D01*
X176705Y174963D01*
X176714Y174953D01*
Y174943D01*
X177993Y175246D01*
X177905Y175519D01*
X177798Y175753D01*
X177681Y175949D01*
X177573Y176114D01*
X177476Y176251D01*
X177397Y176339D01*
X177349Y176397D01*
X177339Y176417D01*
X177329D01*
X177183Y176544D01*
X177036Y176651D01*
X176880Y176739D01*
X176724Y176827D01*
X176568Y176895D01*
X176402Y176944D01*
X176256Y176993D01*
X176099Y177032D01*
X175963Y177061D01*
X175836Y177081D01*
X175719Y177100D01*
X175621Y177110D01*
X175543Y177120D01*
D02*
G37*
G36*
X154598Y177012D02*
X153212D01*
X151651Y172269D01*
X150021Y177012D01*
X148625D01*
X150919Y170600D01*
X152314D01*
X154598Y177012D01*
D02*
G37*
G36*
X125250D02*
X123864D01*
X122302Y172269D01*
X120672Y177012D01*
X119277D01*
X121570Y170600D01*
X122966D01*
X125250Y177012D01*
D02*
G37*
G36*
X142135D02*
X140827D01*
X139851Y172532D01*
X138719Y177012D01*
X137186D01*
X136015Y172601D01*
X135068Y177012D01*
X133741D01*
X135234Y170600D01*
X136659D01*
X137928Y175392D01*
X139207Y170600D01*
X140593D01*
X142135Y177012D01*
D02*
G37*
%LPD*%
G36*
X102460Y173138D02*
X100694D01*
X101562Y175519D01*
X102460Y173138D01*
D02*
G37*
G36*
X146224D02*
X144457D01*
X145326Y175519D01*
X146224Y173138D01*
D02*
G37*
D39*
X-1040Y457050D02*
X49960D01*
D41*
X293352Y-70690D02*
Y-64025D01*
X296685Y-60693D01*
X300017Y-64025D01*
Y-70690D01*
Y-65691D01*
X293352D01*
X310014Y-64025D02*
X305015D01*
X303349Y-65691D01*
Y-69024D01*
X305015Y-70690D01*
X310014D01*
X315012Y-62359D02*
Y-64025D01*
X313346D01*
X316678D01*
X315012D01*
Y-69024D01*
X316678Y-70690D01*
X321676D02*
X325009D01*
X323342D01*
Y-64025D01*
X321676D01*
X330007D02*
X333339Y-70690D01*
X336672Y-64025D01*
X345002Y-70690D02*
X341670D01*
X340004Y-69024D01*
Y-65691D01*
X341670Y-64025D01*
X345002D01*
X346668Y-65691D01*
Y-67357D01*
X340004D01*
X359997Y-60693D02*
Y-70690D01*
X363330Y-67357D01*
X366662Y-70690D01*
Y-60693D01*
X371660Y-64025D02*
X374992D01*
X376659Y-65691D01*
Y-70690D01*
X371660D01*
X369994Y-69024D01*
X371660Y-67357D01*
X376659D01*
X379991Y-64025D02*
X383323Y-70690D01*
X386655Y-64025D01*
X394986Y-70690D02*
X391654D01*
X389988Y-69024D01*
Y-65691D01*
X391654Y-64025D01*
X394986D01*
X396652Y-65691D01*
Y-67357D01*
X389988D01*
D42*
X12200Y50000D02*
G03*
X12200Y50000I-4500J0D01*
G01*
X14400Y127400D02*
G03*
X14400Y127400I-4500J0D01*
G01*
X262263Y74602D02*
X262302Y64202D01*
X247302D02*
X262302D01*
X224302D02*
Y74602D01*
X209402Y64202D02*
X224302D01*
Y85602D02*
X247302D01*
X262246Y94125D02*
X262263Y74602D01*
X224302D02*
Y85602D01*
X209340Y74602D02*
X209402Y64202D01*
X209320Y94175D02*
X209340Y74602D01*
X247302D02*
Y85602D01*
Y64202D02*
Y74602D01*
X110366Y55832D02*
X109699Y56499D01*
X108367D01*
X107700Y55832D01*
Y53166D01*
X108367Y52500D01*
X109699D01*
X110366Y53166D01*
Y54499D01*
X109033D01*
X111699Y52500D02*
Y56499D01*
X114365Y52500D01*
Y56499D01*
X115697D02*
Y52500D01*
X117697D01*
X118363Y53166D01*
Y55832D01*
X117697Y56499D01*
X115697D01*
X101600Y41832D02*
X102266Y42499D01*
X103599D01*
X104266Y41832D01*
Y41166D01*
X103599Y40499D01*
X102933D01*
X103599D01*
X104266Y39833D01*
Y39166D01*
X103599Y38500D01*
X102266D01*
X101600Y39166D01*
X105599Y38500D02*
Y39166D01*
X106265D01*
Y38500D01*
X105599D01*
X108931Y41832D02*
X109597Y42499D01*
X110930D01*
X111597Y41832D01*
Y41166D01*
X110930Y40499D01*
X110264D01*
X110930D01*
X111597Y39833D01*
Y39166D01*
X110930Y38500D01*
X109597D01*
X108931Y39166D01*
X112930Y42499D02*
Y39833D01*
X114263Y38500D01*
X115595Y39833D01*
Y42499D01*
X20028Y-120491D02*
Y-124554D01*
X19774Y-125315D01*
X19520Y-125569D01*
X19012Y-125823D01*
X18504D01*
X17996Y-125569D01*
X17742Y-125315D01*
X17489Y-124554D01*
Y-124046D01*
X21653Y-125315D02*
X21399Y-125569D01*
X21653Y-125823D01*
X21907Y-125569D01*
X21653Y-125315D01*
X23075Y-120491D02*
Y-125823D01*
Y-120491D02*
X26629Y-125823D01*
Y-120491D02*
Y-125823D01*
D43*
X58800Y57546D02*
G03*
X58800Y62954I0J2704D01*
G01*
X60600Y79600D02*
G03*
X60600Y79600I-1000J0D01*
G01*
X94446Y59298D02*
G03*
X94446Y51817I0J-3740D01*
G01*
X82639Y117970D02*
G03*
X82639Y108521I0J-4724D01*
G01*
X235802Y173832D02*
G03*
X209320Y94175I0J-44230D01*
G01*
X262246Y94125D02*
G03*
X235802Y173850I-26445J35477D01*
G01*
X132432Y126000D02*
X182432D01*
Y136000D01*
X132432D02*
X182432D01*
X132432Y126000D02*
Y136000D01*
X150555Y20689D02*
X182445D01*
X150555Y44311D02*
X182445D01*
X150555Y40055D02*
Y44311D01*
Y20689D02*
Y24945D01*
X182445Y20689D02*
Y24945D01*
Y40055D02*
Y44311D01*
X51930Y132931D02*
X79764D01*
X82639D01*
Y128206D02*
Y132931D01*
X189472Y64197D02*
X219000D01*
X189472Y13803D02*
X219000D01*
X248921D01*
X219000Y64197D02*
X248921D01*
Y13803D02*
Y64197D01*
X189472Y14000D02*
Y64197D01*
X219000D01*
X189472Y14000D02*
Y64197D01*
X219000D01*
X168000Y91000D02*
X182000D01*
Y119000D01*
X168000D02*
X182000D01*
X168000Y91000D02*
Y119000D01*
X216800Y-158603D02*
X223464D01*
X220132D01*
Y-168600D01*
X231795Y-158603D02*
X228463D01*
X226797Y-160269D01*
Y-166934D01*
X228463Y-168600D01*
X231795D01*
X233461Y-166934D01*
Y-160269D01*
X231795Y-158603D01*
X236793Y-168600D02*
Y-158603D01*
X241792D01*
X243458Y-160269D01*
Y-163602D01*
X241792Y-165268D01*
X236793D01*
X263452Y-160269D02*
X261786Y-158603D01*
X258453D01*
X256787Y-160269D01*
Y-161935D01*
X258453Y-163602D01*
X261786D01*
X263452Y-165268D01*
Y-166934D01*
X261786Y-168600D01*
X258453D01*
X256787Y-166934D01*
X266784Y-158603D02*
X270116D01*
X268450D01*
Y-168600D01*
X266784D01*
X270116D01*
X275114Y-158603D02*
Y-168600D01*
X281779D01*
X285111Y-158603D02*
Y-168600D01*
Y-165268D01*
X291776Y-158603D01*
X286777Y-163602D01*
X291776Y-168600D01*
X314500Y186500D02*
X321600D01*
X314500Y-5000D02*
X321600D01*
X320600Y108744D02*
Y186500D01*
Y-5000D02*
Y69556D01*
X318600Y180500D02*
X320600Y186500D01*
X322600Y180500D01*
X320600Y-5000D02*
X322600Y1000D01*
X318600D02*
X320600Y-5000D01*
X313000Y-14900D02*
Y-6500D01*
X-5000Y-14900D02*
Y-6500D01*
X172494Y-13900D02*
X313000D01*
X-5000D02*
X132306D01*
X307000Y-11900D02*
X313000Y-13900D01*
X307000Y-15900D02*
X313000Y-13900D01*
X-5000D02*
X1000Y-15900D01*
X-5000Y-13900D02*
X1000Y-11900D01*
X258500Y79700D02*
G03*
X260800Y82000I0J2300D01*
G01*
X249300D02*
G03*
X251600Y79700I2300J0D01*
G01*
X260785Y95320D02*
G03*
X249300Y89401I-24985J34380D01*
G01*
X-5000Y-5000D02*
X313000D01*
X290500Y130000D02*
X313000D01*
X290500Y51400D02*
X313000D01*
X-5000Y-5000D02*
Y186500D01*
X313000Y-5000D02*
Y51400D01*
X290500D02*
Y130000D01*
X313000D02*
Y186500D01*
X-5000D02*
X313000D01*
X260800Y82000D02*
Y95300D01*
X251600Y79700D02*
X258500D01*
X249300Y82000D02*
Y89400D01*
X151692Y-157718D02*
G03*
X146692Y-152718I-5000J0D01*
G01*
X146808Y-172718D02*
G03*
X151690Y-167750I84J4800D01*
G01*
X161692Y-152718D02*
G03*
X156692Y-157718I0J-5000D01*
G01*
Y-167718D02*
G03*
X161605Y-172717I5000J0D01*
G01*
X334192Y-157718D02*
G03*
X329192Y-152718I-5000J0D01*
G01*
X329308Y-172718D02*
G03*
X334190Y-167750I84J4800D01*
G01*
X339192Y-167818D02*
G03*
X344178Y-172717I4900J0D01*
G01*
X344192Y-152718D02*
G03*
X339192Y-157718I0J-5000D01*
G01*
X59192Y-82618D02*
G03*
X54292Y-77718I-4900J0D01*
G01*
X54392Y-110218D02*
G03*
X59192Y-105418I0J4800D01*
G01*
Y-120118D02*
G03*
X54121Y-115221I-4900J0D01*
G01*
X64192Y-115318D02*
G03*
X69092Y-120218I4900J0D01*
G01*
X64192Y-142818D02*
G03*
X69092Y-147718I4900J0D01*
G01*
X54292D02*
G03*
X59192Y-142818I0J4900D01*
G01*
X234192Y-130118D02*
G03*
X229292Y-125218I-4900J0D01*
G01*
Y-147718D02*
G03*
X234191Y-142732I0J4900D01*
G01*
X239192Y-142618D02*
G03*
X244203Y-147717I5100J0D01*
G01*
X243992Y-125218D02*
G03*
X239199Y-130269I0J-4800D01*
G01*
X69192Y-125218D02*
G03*
X64192Y-130218I0J-5000D01*
G01*
X69192Y-77718D02*
G03*
X64192Y-82718I0J-5000D01*
G01*
X-25808Y-142718D02*
G03*
X-20895Y-147717I5000J0D01*
G01*
X-20808Y-115218D02*
G03*
X-25808Y-120218I0J-5000D01*
G01*
Y-105218D02*
G03*
X-20808Y-110218I5000J0D01*
G01*
Y-77718D02*
G03*
X-25808Y-82718I0J-5000D01*
G01*
Y-67718D02*
G03*
X-20808Y-72718I5000J0D01*
G01*
Y-52718D02*
G03*
X-25808Y-57718I0J-5000D01*
G01*
X279192D02*
G03*
X274192Y-52718I-5000J0D01*
G01*
X289192D02*
G03*
X284192Y-57718I0J-5000D01*
G01*
X274192Y-72718D02*
G03*
X279192Y-67718I0J5000D01*
G01*
Y-82718D02*
G03*
X274192Y-77718I-5000J0D01*
G01*
X-20808Y-152718D02*
G03*
X-25808Y-157718I0J-5000D01*
G01*
X274279Y-120218D02*
G03*
X279193Y-115218I-87J5000D01*
G01*
X-25808Y-167718D02*
G03*
X-20895Y-172717I5000J0D01*
G01*
X279192Y-130118D02*
G03*
X274292Y-125218I-4900J0D01*
G01*
X284192Y-142818D02*
G03*
X289177Y-147717I4900J0D01*
G01*
X274192Y-147718D02*
G03*
X279192Y-142718I0J5000D01*
G01*
X399192Y-172718D02*
G03*
X404192Y-167718I0J5000D01*
G01*
X404192Y-157630D02*
G03*
X399192Y-152717I-5000J-87D01*
G01*
Y-147718D02*
G03*
X404192Y-142718I0J5000D01*
G01*
Y-57618D02*
G03*
X399121Y-52721I-4900J0D01*
G01*
X409192Y-57718D02*
G03*
X399192Y-47718I-10000J0D01*
G01*
Y-177718D02*
G03*
X409192Y-167718I0J10000D01*
G01*
X-30808Y-167618D02*
G03*
X-20884Y-177716I10100J0D01*
G01*
X-20808Y-47718D02*
G03*
X-30808Y-57718I0J-10000D01*
G01*
X284192Y-115218D02*
G03*
X289192Y-120218I5000J0D01*
G01*
X399192D02*
G03*
X404192Y-115218I0J5000D01*
G01*
X289192Y-125218D02*
G03*
X284192Y-130218I0J-5000D01*
G01*
X404192Y-130118D02*
G03*
X399292Y-125218I-4900J0D01*
G01*
X161692Y-172718D02*
X329192D01*
X-20808D02*
X146692D01*
X-20808Y-152718D02*
X146692D01*
X161692D02*
X329192D01*
X344192Y-172718D02*
X399192D01*
X344192Y-152718D02*
X399192D01*
X-20808Y-52718D02*
X274192D01*
X-20808Y-177718D02*
X399192D01*
X-20808Y-47718D02*
X399192D01*
X-20808Y-147718D02*
X54192D01*
X-20808Y-115218D02*
X54192D01*
X-20808Y-110218D02*
X54192D01*
X-20808Y-77718D02*
X54192D01*
X-20808Y-72718D02*
X274192D01*
X69192Y-77718D02*
X274192D01*
X69192Y-125218D02*
X229192D01*
X69192Y-147718D02*
X229192D01*
X244192D02*
X274192D01*
X244192Y-125218D02*
X274192D01*
X289192Y-147718D02*
X399192D01*
X289192Y-52718D02*
X399192D01*
X69192Y-120218D02*
X274192D01*
X289192D02*
X399192D01*
X289192Y-125218D02*
X399192D01*
X151692Y-167718D02*
Y-157718D01*
X156692Y-167718D02*
Y-157718D01*
X334192Y-167718D02*
Y-157718D01*
X339192Y-167718D02*
Y-157718D01*
X409192Y-167718D02*
Y-57718D01*
X-25808Y-142718D02*
Y-120218D01*
X59192Y-142718D02*
Y-120218D01*
X-25808Y-105218D02*
Y-82718D01*
X59192Y-105218D02*
Y-82718D01*
X-25808Y-67718D02*
Y-57718D01*
X279192Y-67718D02*
Y-57718D01*
Y-115218D02*
Y-82718D01*
X64192Y-115218D02*
Y-82718D01*
X234192Y-142718D02*
Y-130218D01*
X64192Y-142718D02*
Y-130218D01*
X239192Y-142718D02*
Y-130218D01*
X279192Y-142718D02*
Y-130218D01*
X404192Y-167718D02*
Y-157718D01*
X-25808Y-167718D02*
Y-157718D01*
X-30808Y-167718D02*
Y-57718D01*
X284192Y-115218D02*
Y-57718D01*
X404192Y-115218D02*
Y-57718D01*
X284192Y-142718D02*
Y-130218D01*
X404192Y-142718D02*
Y-130118D01*
X304352Y-94792D02*
Y-101190D01*
X307551D01*
X308617Y-100123D01*
Y-99057D01*
X307551Y-97991D01*
X304352D01*
X307551D01*
X308617Y-96925D01*
Y-95858D01*
X307551Y-94792D01*
X304352D01*
X311817Y-101190D02*
X313949D01*
X315016Y-100123D01*
Y-97991D01*
X313949Y-96925D01*
X311817D01*
X310750Y-97991D01*
Y-100123D01*
X311817Y-101190D01*
X321413Y-96925D02*
X318214D01*
X317148Y-97991D01*
Y-100123D01*
X318214Y-101190D01*
X321413D01*
X324612Y-96925D02*
X326745D01*
X327811Y-97991D01*
Y-101190D01*
X324612D01*
X323546Y-100123D01*
X324612Y-99057D01*
X327811D01*
X336342Y-101190D02*
Y-94792D01*
X339541D01*
X340607Y-95858D01*
Y-97991D01*
X339541Y-99057D01*
X336342D01*
X338474D02*
X340607Y-101190D01*
X343806Y-96925D02*
X345939D01*
X347005Y-97991D01*
Y-101190D01*
X343806D01*
X342740Y-100123D01*
X343806Y-99057D01*
X347005D01*
X350204Y-95858D02*
Y-96925D01*
X349138D01*
X351270D01*
X350204D01*
Y-100123D01*
X351270Y-101190D01*
X355536D02*
X357668D01*
X358735Y-100123D01*
Y-97991D01*
X357668Y-96925D01*
X355536D01*
X354469Y-97991D01*
Y-100123D01*
X355536Y-101190D01*
X360867D02*
Y-96925D01*
X364066D01*
X365133Y-97991D01*
Y-101190D01*
X377928Y-94792D02*
X373663D01*
Y-97991D01*
X375796D01*
X373663D01*
Y-101190D01*
X380061Y-94792D02*
Y-101190D01*
X384326D01*
X386459D02*
Y-100123D01*
X387525D01*
Y-101190D01*
X386459D01*
X288352Y-80123D02*
X289419Y-81190D01*
X291551D01*
X292618Y-80123D01*
Y-75858D01*
X291551Y-74792D01*
X289419D01*
X288352Y-75858D01*
Y-76925D01*
X289419Y-77991D01*
X292618D01*
X294750Y-75858D02*
X295816Y-74792D01*
X297949D01*
X299015Y-75858D01*
Y-80123D01*
X297949Y-81190D01*
X295816D01*
X294750Y-80123D01*
Y-75858D01*
X305413Y-81190D02*
X301148D01*
X305413Y-76925D01*
Y-75858D01*
X304347Y-74792D01*
X302214D01*
X301148Y-75858D01*
X318209D02*
X317143Y-74792D01*
X315010D01*
X313944Y-75858D01*
Y-80123D01*
X315010Y-81190D01*
X317143D01*
X318209Y-80123D01*
X320342Y-81190D02*
X322475D01*
X321408D01*
Y-74792D01*
X320342D01*
X325674Y-81190D02*
X327806D01*
X326740D01*
Y-76925D01*
X325674D01*
X331005Y-81190D02*
Y-76925D01*
X334204D01*
X335270Y-77991D01*
Y-81190D01*
X338469Y-75858D02*
Y-76925D01*
X337403D01*
X339536D01*
X338469D01*
Y-80123D01*
X339536Y-81190D01*
X349133D02*
Y-74792D01*
X351265Y-76925D01*
X353398Y-74792D01*
Y-81190D01*
X356597D02*
X358730D01*
X359796Y-80123D01*
Y-77991D01*
X358730Y-76925D01*
X356597D01*
X355531Y-77991D01*
Y-80123D01*
X356597Y-81190D01*
X362995D02*
X365127D01*
X366194Y-80123D01*
Y-77991D01*
X365127Y-76925D01*
X362995D01*
X361928Y-77991D01*
Y-80123D01*
X362995Y-81190D01*
X368326Y-76925D02*
Y-81190D01*
Y-79057D01*
X369393Y-77991D01*
X370459Y-76925D01*
X371525D01*
X377923Y-81190D02*
X375791D01*
X374724Y-80123D01*
Y-77991D01*
X375791Y-76925D01*
X377923D01*
X378990Y-77991D01*
Y-79057D01*
X374724D01*
X387520Y-81190D02*
Y-74792D01*
X390719D01*
X391785Y-75858D01*
Y-77991D01*
X390719Y-79057D01*
X387520D01*
X389653D02*
X391785Y-81190D01*
X398183Y-74792D02*
Y-81190D01*
X394984D01*
X393918Y-80123D01*
Y-77991D01*
X394984Y-76925D01*
X398183D01*
X400316Y-81190D02*
Y-80123D01*
X401382D01*
Y-81190D01*
X400316D01*
X314118Y-106792D02*
X309852D01*
Y-109991D01*
X311985Y-108924D01*
X313051D01*
X314118Y-109991D01*
Y-112123D01*
X313051Y-113190D01*
X310919D01*
X309852Y-112123D01*
X320515Y-106792D02*
X318383Y-107858D01*
X316250Y-109991D01*
Y-112123D01*
X317317Y-113190D01*
X319449D01*
X320515Y-112123D01*
Y-111057D01*
X319449Y-109991D01*
X316250D01*
X322648Y-113190D02*
X324781D01*
X323714D01*
Y-106792D01*
X322648Y-107858D01*
X327980Y-109991D02*
X332245D01*
X334378Y-112123D02*
X335444Y-113190D01*
X337577D01*
X338643Y-112123D01*
Y-107858D01*
X337577Y-106792D01*
X335444D01*
X334378Y-107858D01*
Y-108924D01*
X335444Y-109991D01*
X338643D01*
X340776Y-112123D02*
X341842Y-113190D01*
X343974D01*
X345041Y-112123D01*
Y-107858D01*
X343974Y-106792D01*
X341842D01*
X340776Y-107858D01*
Y-108924D01*
X341842Y-109991D01*
X345041D01*
X347174Y-112123D02*
X348240Y-113190D01*
X350373D01*
X351439Y-112123D01*
Y-107858D01*
X350373Y-106792D01*
X348240D01*
X347174Y-107858D01*
Y-108924D01*
X348240Y-109991D01*
X351439D01*
X353571D02*
X357837D01*
X359969Y-112123D02*
X361036Y-113190D01*
X363168D01*
X364235Y-112123D01*
Y-107858D01*
X363168Y-106792D01*
X361036D01*
X359969Y-107858D01*
Y-108924D01*
X361036Y-109991D01*
X364235D01*
X369566Y-113190D02*
Y-106792D01*
X366367Y-109991D01*
X370633D01*
X377030Y-113190D02*
X372765D01*
X377030Y-108924D01*
Y-107858D01*
X375964Y-106792D01*
X373832D01*
X372765Y-107858D01*
X383428Y-113190D02*
X379163D01*
X383428Y-108924D01*
Y-107858D01*
X382362Y-106792D01*
X380229D01*
X379163Y-107858D01*
X322117Y-86358D02*
X321051Y-85292D01*
X318919D01*
X317852Y-86358D01*
Y-87424D01*
X318919Y-88491D01*
X321051D01*
X322117Y-89557D01*
Y-90623D01*
X321051Y-91690D01*
X318919D01*
X317852Y-90623D01*
X324250Y-87424D02*
Y-90623D01*
X325317Y-91690D01*
X328516D01*
Y-87424D01*
X330648Y-91690D02*
X332781D01*
X331714D01*
Y-87424D01*
X330648D01*
X337046Y-86358D02*
Y-87424D01*
X335980D01*
X338112D01*
X337046D01*
Y-90623D01*
X338112Y-91690D01*
X344510D02*
X342378D01*
X341311Y-90623D01*
Y-88491D01*
X342378Y-87424D01*
X344510D01*
X345577Y-88491D01*
Y-89557D01*
X341311D01*
X354107Y-91690D02*
X356240D01*
X355173D01*
Y-85292D01*
X354107Y-86358D01*
X359439Y-91690D02*
X361571D01*
X360505D01*
Y-85292D01*
X359439Y-86358D01*
X364770D02*
X365837Y-85292D01*
X367969D01*
X369036Y-86358D01*
Y-87424D01*
X367969Y-88491D01*
X369036Y-89557D01*
Y-90623D01*
X367969Y-91690D01*
X365837D01*
X364770Y-90623D01*
Y-89557D01*
X365837Y-88491D01*
X364770Y-87424D01*
Y-86358D01*
X365837Y-88491D02*
X367969D01*
X1060Y209034D02*
X1917Y209463D01*
X3202Y210748D01*
Y201750D01*
X8515Y210748D02*
X13228D01*
X10658Y207320D01*
X11943D01*
X12800Y206892D01*
X13228Y206463D01*
X13657Y205178D01*
Y204321D01*
X13228Y203035D01*
X12371Y202179D01*
X11086Y201750D01*
X9801D01*
X8515Y202179D01*
X8087Y202607D01*
X7658Y203464D01*
X15671Y212462D02*
X16528Y211605D01*
X17385Y210320D01*
X18242Y208606D01*
X18670Y206463D01*
Y204749D01*
X18242Y202607D01*
X17385Y200893D01*
X16528Y199608D01*
X15671Y198751D01*
X16528Y211605D02*
X17385Y209891D01*
X17813Y208606D01*
X18242Y206463D01*
Y204749D01*
X17813Y202607D01*
X17385Y201322D01*
X16528Y199608D01*
X27925Y210748D02*
Y201750D01*
Y210748D02*
X30925D01*
X32210Y210320D01*
X33067Y209463D01*
X33496Y208606D01*
X33924Y207320D01*
Y205178D01*
X33496Y203892D01*
X33067Y203035D01*
X32210Y202179D01*
X30925Y201750D01*
X27925D01*
X35938Y210748D02*
Y201750D01*
X43822Y209463D02*
X42965Y210320D01*
X41679Y210748D01*
X39966D01*
X38680Y210320D01*
X37823Y209463D01*
Y208606D01*
X38252Y207749D01*
X38680Y207320D01*
X39537Y206892D01*
X42108Y206035D01*
X42965Y205606D01*
X43393Y205178D01*
X43822Y204321D01*
Y203035D01*
X42965Y202179D01*
X41679Y201750D01*
X39966D01*
X38680Y202179D01*
X37823Y203035D01*
X48835Y210748D02*
Y201750D01*
X45836Y210748D02*
X51834D01*
X59761Y201750D02*
X56334Y210748D01*
X52906Y201750D01*
X54191Y204749D02*
X58476D01*
X61861Y210748D02*
Y201750D01*
Y210748D02*
X67860Y201750D01*
Y210748D02*
Y201750D01*
X76772Y208606D02*
X76344Y209463D01*
X75486Y210320D01*
X74629Y210748D01*
X72916D01*
X72059Y210320D01*
X71202Y209463D01*
X70773Y208606D01*
X70345Y207320D01*
Y205178D01*
X70773Y203892D01*
X71202Y203035D01*
X72059Y202179D01*
X72916Y201750D01*
X74629D01*
X75486Y202179D01*
X76344Y203035D01*
X76772Y203892D01*
X84870Y210748D02*
X79300D01*
Y201750D01*
X84870D01*
X79300Y206463D02*
X82728D01*
X93440Y210748D02*
Y201750D01*
Y210748D02*
X97296D01*
X98582Y210320D01*
X99010Y209891D01*
X99439Y209034D01*
Y208177D01*
X99010Y207320D01*
X98582Y206892D01*
X97296Y206463D01*
X93440D02*
X97296D01*
X98582Y206035D01*
X99010Y205606D01*
X99439Y204749D01*
Y203464D01*
X99010Y202607D01*
X98582Y202179D01*
X97296Y201750D01*
X93440D01*
X107023Y210748D02*
X101452D01*
Y201750D01*
X107023D01*
X101452Y206463D02*
X104880D01*
X111522Y210748D02*
Y201750D01*
X108522Y210748D02*
X114521D01*
X115592D02*
X117735Y201750D01*
X119877Y210748D02*
X117735Y201750D01*
X119877Y210748D02*
X122019Y201750D01*
X124162Y210748D02*
X122019Y201750D01*
X131532Y210748D02*
X125961D01*
Y201750D01*
X131532D01*
X125961Y206463D02*
X129389D01*
X138602Y210748D02*
X133031D01*
Y201750D01*
X138602D01*
X133031Y206463D02*
X136459D01*
X140101Y210748D02*
Y201750D01*
Y210748D02*
X146100Y201750D01*
Y210748D02*
Y201750D01*
X158654Y210748D02*
Y201750D01*
X155655Y210748D02*
X161654D01*
X165296D02*
X164439Y210320D01*
X163582Y209463D01*
X163153Y208606D01*
X162725Y207320D01*
Y205178D01*
X163153Y203892D01*
X163582Y203035D01*
X164439Y202179D01*
X165296Y201750D01*
X167010D01*
X167867Y202179D01*
X168724Y203035D01*
X169152Y203892D01*
X169581Y205178D01*
Y207320D01*
X169152Y208606D01*
X168724Y209463D01*
X167867Y210320D01*
X167010Y210748D01*
X165296D01*
X174251D02*
X173394Y210320D01*
X172537Y209463D01*
X172109Y208606D01*
X171680Y207320D01*
Y205178D01*
X172109Y203892D01*
X172537Y203035D01*
X173394Y202179D01*
X174251Y201750D01*
X175965D01*
X176822Y202179D01*
X177679Y203035D01*
X178107Y203892D01*
X178536Y205178D01*
Y207320D01*
X178107Y208606D01*
X177679Y209463D01*
X176822Y210320D01*
X175965Y210748D01*
X174251D01*
X180635D02*
Y201750D01*
X185777D01*
X186763Y210748D02*
Y201750D01*
X188648Y210748D02*
Y201750D01*
Y210748D02*
X194647Y201750D01*
Y210748D02*
Y201750D01*
X203559Y208606D02*
X203131Y209463D01*
X202274Y210320D01*
X201417Y210748D01*
X199703D01*
X198846Y210320D01*
X197989Y209463D01*
X197560Y208606D01*
X197132Y207320D01*
Y205178D01*
X197560Y203892D01*
X197989Y203035D01*
X198846Y202179D01*
X199703Y201750D01*
X201417D01*
X202274Y202179D01*
X203131Y203035D01*
X203559Y203892D01*
Y205178D01*
X201417D02*
X203559D01*
X212686Y210748D02*
Y201750D01*
X218684Y210748D02*
Y201750D01*
X212686Y206463D02*
X218684D01*
X223740Y210748D02*
X222884Y210320D01*
X222026Y209463D01*
X221598Y208606D01*
X221169Y207320D01*
Y205178D01*
X221598Y203892D01*
X222026Y203035D01*
X222884Y202179D01*
X223740Y201750D01*
X225454D01*
X226311Y202179D01*
X227168Y203035D01*
X227597Y203892D01*
X228025Y205178D01*
Y207320D01*
X227597Y208606D01*
X227168Y209463D01*
X226311Y210320D01*
X225454Y210748D01*
X223740D01*
X230125D02*
Y201750D01*
X235266D01*
X241822Y210748D02*
X236252D01*
Y201750D01*
X241822D01*
X236252Y206463D02*
X239680D01*
X249321Y209463D02*
X248464Y210320D01*
X247178Y210748D01*
X245464D01*
X244179Y210320D01*
X243322Y209463D01*
Y208606D01*
X243750Y207749D01*
X244179Y207320D01*
X245036Y206892D01*
X247607Y206035D01*
X248464Y205606D01*
X248892Y205178D01*
X249321Y204321D01*
Y203035D01*
X248464Y202179D01*
X247178Y201750D01*
X245464D01*
X244179Y202179D01*
X243322Y203035D01*
X264403Y209463D02*
X263546Y210320D01*
X262261Y210748D01*
X260547D01*
X259261Y210320D01*
X258404Y209463D01*
Y208606D01*
X258833Y207749D01*
X259261Y207320D01*
X260118Y206892D01*
X262689Y206035D01*
X263546Y205606D01*
X263975Y205178D01*
X264403Y204321D01*
Y203035D01*
X263546Y202179D01*
X262261Y201750D01*
X260547D01*
X259261Y202179D01*
X258404Y203035D01*
X266417Y210748D02*
Y201750D01*
X272416Y210748D02*
Y201750D01*
X266417Y206463D02*
X272416D01*
X281757Y201750D02*
X278329Y210748D01*
X274901Y201750D01*
X276186Y204749D02*
X280471D01*
X283856Y210748D02*
Y201750D01*
X288998D01*
X289983Y210748D02*
Y201750D01*
X295125D01*
X303181Y210748D02*
Y201750D01*
Y210748D02*
X307037D01*
X308322Y210320D01*
X308751Y209891D01*
X309179Y209034D01*
Y208177D01*
X308751Y207320D01*
X308322Y206892D01*
X307037Y206463D01*
X303181D02*
X307037D01*
X308322Y206035D01*
X308751Y205606D01*
X309179Y204749D01*
Y203464D01*
X308751Y202607D01*
X308322Y202179D01*
X307037Y201750D01*
X303181D01*
X316763Y210748D02*
X311193D01*
Y201750D01*
X316763D01*
X311193Y206463D02*
X314621D01*
X333260Y210748D02*
X337973D01*
X335402Y207320D01*
X336688D01*
X337545Y206892D01*
X337973Y206463D01*
X338402Y205178D01*
Y204321D01*
X337973Y203035D01*
X337116Y202179D01*
X335831Y201750D01*
X334545D01*
X333260Y202179D01*
X332831Y202607D01*
X332403Y203464D01*
X347485Y210748D02*
Y201750D01*
Y210748D02*
X350913Y201750D01*
X354341Y210748D02*
X350913Y201750D01*
X354341Y210748D02*
Y201750D01*
X356912Y210748D02*
Y201750D01*
X358797Y210748D02*
Y201750D01*
X363939D01*
X370923Y209463D02*
X370066Y210320D01*
X368781Y210748D01*
X367067D01*
X365781Y210320D01*
X364924Y209463D01*
Y208606D01*
X365353Y207749D01*
X365781Y207320D01*
X366638Y206892D01*
X369209Y206035D01*
X370066Y205606D01*
X370495Y205178D01*
X370923Y204321D01*
Y203035D01*
X370066Y202179D01*
X368781Y201750D01*
X367067D01*
X365781Y202179D01*
X364924Y203035D01*
X960Y248834D02*
X1817Y249263D01*
X3102Y250548D01*
Y241550D01*
X7558Y248834D02*
X8415Y249263D01*
X9701Y250548D01*
Y241550D01*
X14157Y252262D02*
X15014Y251405D01*
X15871Y250120D01*
X16728Y248406D01*
X17156Y246263D01*
Y244549D01*
X16728Y242407D01*
X15871Y240693D01*
X15014Y239408D01*
X14157Y238551D01*
X15014Y251405D02*
X15871Y249691D01*
X16299Y248406D01*
X16728Y246263D01*
Y244549D01*
X16299Y242407D01*
X15871Y241122D01*
X15014Y239408D01*
X26411Y250548D02*
Y241550D01*
X32410Y250548D02*
Y241550D01*
X26411Y246263D02*
X32410D01*
X41751Y241550D02*
X38323Y250548D01*
X34895Y241550D01*
X36181Y244549D02*
X40465D01*
X49849Y249263D02*
X48992Y250120D01*
X47707Y250548D01*
X45993D01*
X44707Y250120D01*
X43850Y249263D01*
Y248406D01*
X44279Y247549D01*
X44707Y247120D01*
X45564Y246692D01*
X48135Y245835D01*
X48992Y245406D01*
X49421Y244978D01*
X49849Y244121D01*
Y242835D01*
X48992Y241979D01*
X47707Y241550D01*
X45993D01*
X44707Y241979D01*
X43850Y242835D01*
X51863Y250548D02*
Y241550D01*
X57005D01*
X67631Y250548D02*
X66774Y250120D01*
X65917Y249263D01*
X65489Y248406D01*
X65060Y247120D01*
Y244978D01*
X65489Y243692D01*
X65917Y242835D01*
X66774Y241979D01*
X67631Y241550D01*
X69345D01*
X70202Y241979D01*
X71059Y242835D01*
X71487Y243692D01*
X71916Y244978D01*
Y247120D01*
X71487Y248406D01*
X71059Y249263D01*
X70202Y250120D01*
X69345Y250548D01*
X67631D01*
X74015D02*
Y241550D01*
Y250548D02*
X80014Y241550D01*
Y250548D02*
Y241550D01*
X96425D02*
X92997Y250548D01*
X89569Y241550D01*
X90855Y244549D02*
X95139D01*
X98524Y250548D02*
Y241550D01*
X103666D01*
X104652Y250548D02*
Y241550D01*
X109793D01*
X117849Y245835D02*
X121705D01*
X122991Y246263D01*
X123419Y246692D01*
X123847Y247549D01*
Y248834D01*
X123419Y249691D01*
X122991Y250120D01*
X121705Y250548D01*
X117849D01*
Y241550D01*
X132717D02*
X129289Y250548D01*
X125861Y241550D01*
X127147Y244549D02*
X131432D01*
X134817Y250548D02*
Y241550D01*
Y250548D02*
X137816D01*
X139101Y250120D01*
X139958Y249263D01*
X140387Y248406D01*
X140815Y247120D01*
Y244978D01*
X140387Y243692D01*
X139958Y242835D01*
X139101Y241979D01*
X137816Y241550D01*
X134817D01*
X148828Y249263D02*
X147971Y250120D01*
X146686Y250548D01*
X144972D01*
X143686Y250120D01*
X142829Y249263D01*
Y248406D01*
X143258Y247549D01*
X143686Y247120D01*
X144543Y246692D01*
X147114Y245835D01*
X147971Y245406D01*
X148399Y244978D01*
X148828Y244121D01*
Y242835D01*
X147971Y241979D01*
X146686Y241550D01*
X144972D01*
X143686Y241979D01*
X142829Y242835D01*
X164767Y241550D02*
X161339Y250548D01*
X157912Y241550D01*
X159197Y244549D02*
X163482D01*
X166867Y250548D02*
Y241550D01*
Y250548D02*
X172866Y241550D01*
Y250548D02*
Y241550D01*
X175351Y250548D02*
Y241550D01*
Y250548D02*
X178350D01*
X179636Y250120D01*
X180493Y249263D01*
X180921Y248406D01*
X181350Y247120D01*
Y244978D01*
X180921Y243692D01*
X180493Y242835D01*
X179636Y241979D01*
X178350Y241550D01*
X175351D01*
X190433Y250548D02*
X193861Y241550D01*
X197289Y250548D02*
X193861Y241550D01*
X198446Y250548D02*
Y241550D01*
X207187D02*
X203759Y250548D01*
X200331Y241550D01*
X201617Y244549D02*
X205901D01*
X215285Y249263D02*
X214428Y250120D01*
X213143Y250548D01*
X211429D01*
X210143Y250120D01*
X209286Y249263D01*
Y248406D01*
X209715Y247549D01*
X210143Y247120D01*
X211000Y246692D01*
X213571Y245835D01*
X214428Y245406D01*
X214857Y244978D01*
X215285Y244121D01*
Y242835D01*
X214428Y241979D01*
X213143Y241550D01*
X211429D01*
X210143Y241979D01*
X209286Y242835D01*
X1388Y428406D02*
Y428834D01*
X1817Y429691D01*
X2245Y430120D01*
X3102Y430548D01*
X4816D01*
X5673Y430120D01*
X6101Y429691D01*
X6530Y428834D01*
Y427977D01*
X6101Y427120D01*
X5244Y425835D01*
X960Y421550D01*
X6958D01*
X8972Y432262D02*
X9829Y431405D01*
X10686Y430120D01*
X11543Y428406D01*
X11971Y426263D01*
Y424549D01*
X11543Y422407D01*
X10686Y420693D01*
X9829Y419408D01*
X8972Y418551D01*
X9829Y431405D02*
X10686Y429691D01*
X11115Y428406D01*
X11543Y426263D01*
Y424549D01*
X11115Y422407D01*
X10686Y421122D01*
X9829Y419408D01*
X21227Y430548D02*
Y421550D01*
Y430548D02*
X24655Y421550D01*
X28082Y430548D02*
X24655Y421550D01*
X28082Y430548D02*
Y421550D01*
X37509D02*
X34081Y430548D01*
X30653Y421550D01*
X31939Y424549D02*
X36224D01*
X42608Y430548D02*
Y421550D01*
X39608Y430548D02*
X45607D01*
X52249D02*
X46678D01*
Y421550D01*
X52249D01*
X46678Y426263D02*
X50106D01*
X53748Y430548D02*
Y421550D01*
Y430548D02*
X57605D01*
X58890Y430120D01*
X59319Y429691D01*
X59747Y428834D01*
Y427977D01*
X59319Y427120D01*
X58890Y426692D01*
X57605Y426263D01*
X53748D01*
X56748D02*
X59747Y421550D01*
X61761Y430548D02*
Y421550D01*
X70502D02*
X67074Y430548D01*
X63646Y421550D01*
X64932Y424549D02*
X69216D01*
X72601Y430548D02*
Y421550D01*
X77743D01*
X85799Y430548D02*
Y421550D01*
X93683Y429263D02*
X92826Y430120D01*
X91540Y430548D01*
X89826D01*
X88541Y430120D01*
X87684Y429263D01*
Y428406D01*
X88112Y427549D01*
X88541Y427120D01*
X89398Y426692D01*
X91969Y425835D01*
X92826Y425406D01*
X93254Y424978D01*
X93683Y424121D01*
Y422835D01*
X92826Y421979D01*
X91540Y421550D01*
X89826D01*
X88541Y421979D01*
X87684Y422835D01*
X103195Y422407D02*
X102766Y421979D01*
X103195Y421550D01*
X103623Y421979D01*
X103195Y422407D01*
X108165Y430548D02*
X106880Y430120D01*
X106023Y428834D01*
X105594Y426692D01*
Y425406D01*
X106023Y423264D01*
X106880Y421979D01*
X108165Y421550D01*
X109022D01*
X110308Y421979D01*
X111164Y423264D01*
X111593Y425406D01*
Y426692D01*
X111164Y428834D01*
X110308Y430120D01*
X109022Y430548D01*
X108165D01*
X114464D02*
X119177D01*
X116606Y427120D01*
X117892D01*
X118749Y426692D01*
X119177Y426263D01*
X119606Y424978D01*
Y424121D01*
X119177Y422835D01*
X118320Y421979D01*
X117035Y421550D01*
X115749D01*
X114464Y421979D01*
X114035Y422407D01*
X113607Y423264D01*
X121619Y428834D02*
X122476Y429263D01*
X123762Y430548D01*
Y421550D01*
X138287Y430548D02*
Y421550D01*
X135288Y430548D02*
X141287D01*
X142358D02*
Y421550D01*
X148357Y430548D02*
Y421550D01*
X142358Y426263D02*
X148357D01*
X150842Y430548D02*
Y421550D01*
X159154Y428406D02*
X158726Y429263D01*
X157869Y430120D01*
X157012Y430548D01*
X155298D01*
X154441Y430120D01*
X153584Y429263D01*
X153156Y428406D01*
X152727Y427120D01*
Y424978D01*
X153156Y423692D01*
X153584Y422835D01*
X154441Y421979D01*
X155298Y421550D01*
X157012D01*
X157869Y421979D01*
X158726Y422835D01*
X159154Y423692D01*
X161682Y430548D02*
Y421550D01*
X167681Y430548D02*
X161682Y424549D01*
X163825Y426692D02*
X167681Y421550D01*
X176765Y430548D02*
Y421550D01*
Y430548D02*
X182335D01*
X176765Y426263D02*
X180193D01*
X183363Y430548D02*
Y421550D01*
Y430548D02*
X187220D01*
X188505Y430120D01*
X188934Y429691D01*
X189362Y428834D01*
Y427977D01*
X188934Y427120D01*
X188505Y426692D01*
X187220Y426263D01*
X183363D01*
X186363D02*
X189362Y421550D01*
X195661Y430548D02*
X191376Y424549D01*
X197803D01*
X195661Y430548D02*
Y421550D01*
X6530Y287549D02*
X6101Y286263D01*
X5244Y285406D01*
X3959Y284978D01*
X3531D01*
X2245Y285406D01*
X1388Y286263D01*
X960Y287549D01*
Y287977D01*
X1388Y289263D01*
X2245Y290120D01*
X3531Y290548D01*
X3959D01*
X5244Y290120D01*
X6101Y289263D01*
X6530Y287549D01*
Y285406D01*
X6101Y283264D01*
X5244Y281979D01*
X3959Y281550D01*
X3102D01*
X1817Y281979D01*
X1388Y282835D01*
X8972Y292262D02*
X9829Y291405D01*
X10686Y290120D01*
X11543Y288406D01*
X11971Y286263D01*
Y284549D01*
X11543Y282407D01*
X10686Y280693D01*
X9829Y279408D01*
X8972Y278551D01*
X9829Y291405D02*
X10686Y289691D01*
X11115Y288406D01*
X11543Y286263D01*
Y284549D01*
X11115Y282407D01*
X10686Y281121D01*
X9829Y279408D01*
X21227Y290548D02*
Y281550D01*
Y290548D02*
X27225Y281550D01*
Y290548D02*
Y281550D01*
X32282Y290548D02*
X31424Y290120D01*
X30567Y289263D01*
X30139Y288406D01*
X29711Y287120D01*
Y284978D01*
X30139Y283692D01*
X30567Y282835D01*
X31424Y281979D01*
X32282Y281550D01*
X33995D01*
X34852Y281979D01*
X35709Y282835D01*
X36138Y283692D01*
X36566Y284978D01*
Y287120D01*
X36138Y288406D01*
X35709Y289263D01*
X34852Y290120D01*
X33995Y290548D01*
X32282D01*
X51734Y289263D02*
X50877Y290120D01*
X49592Y290548D01*
X47878D01*
X46593Y290120D01*
X45736Y289263D01*
Y288406D01*
X46164Y287549D01*
X46593Y287120D01*
X47450Y286692D01*
X50020Y285835D01*
X50877Y285406D01*
X51306Y284978D01*
X51734Y284121D01*
Y282835D01*
X50877Y281979D01*
X49592Y281550D01*
X47878D01*
X46593Y281979D01*
X45736Y282835D01*
X53748Y290548D02*
Y281550D01*
X55634Y290548D02*
Y281550D01*
X60775D01*
X61761Y290548D02*
Y281550D01*
X67760Y290548D02*
X61761Y284549D01*
X63903Y286692D02*
X67760Y281550D01*
X75772Y289263D02*
X74915Y290120D01*
X73630Y290548D01*
X71916D01*
X70630Y290120D01*
X69773Y289263D01*
Y288406D01*
X70202Y287549D01*
X70630Y287120D01*
X71487Y286692D01*
X74058Y285835D01*
X74915Y285406D01*
X75344Y284978D01*
X75772Y284121D01*
Y282835D01*
X74915Y281979D01*
X73630Y281550D01*
X71916D01*
X70630Y281979D01*
X69773Y282835D01*
X84213Y288406D02*
X83785Y289263D01*
X82928Y290120D01*
X82071Y290548D01*
X80357D01*
X79500Y290120D01*
X78643Y289263D01*
X78215Y288406D01*
X77786Y287120D01*
Y284978D01*
X78215Y283692D01*
X78643Y282835D01*
X79500Y281979D01*
X80357Y281550D01*
X82071D01*
X82928Y281979D01*
X83785Y282835D01*
X84213Y283692D01*
X86741Y290548D02*
Y281550D01*
Y290548D02*
X90597D01*
X91883Y290120D01*
X92311Y289691D01*
X92740Y288834D01*
Y287977D01*
X92311Y287120D01*
X91883Y286692D01*
X90597Y286263D01*
X86741D01*
X89741D02*
X92740Y281550D01*
X100324Y290548D02*
X94754D01*
Y281550D01*
X100324D01*
X94754Y286263D02*
X98182D01*
X107394Y290548D02*
X101824D01*
Y281550D01*
X107394D01*
X101824Y286263D02*
X105252D01*
X108894Y290548D02*
Y281550D01*
Y290548D02*
X114892Y281550D01*
Y290548D02*
Y281550D01*
X127018Y290548D02*
X126161Y290120D01*
X125304Y289263D01*
X124876Y288406D01*
X124447Y287120D01*
Y284978D01*
X124876Y283692D01*
X125304Y282835D01*
X126161Y281979D01*
X127018Y281550D01*
X128732D01*
X129589Y281979D01*
X130446Y282835D01*
X130875Y283692D01*
X131303Y284978D01*
Y287120D01*
X130875Y288406D01*
X130446Y289263D01*
X129589Y290120D01*
X128732Y290548D01*
X127018D01*
X133403D02*
Y281550D01*
Y290548D02*
X139401Y281550D01*
Y290548D02*
Y281550D01*
X148956Y285835D02*
X152813D01*
X154098Y286263D01*
X154527Y286692D01*
X154955Y287549D01*
Y288834D01*
X154527Y289691D01*
X154098Y290120D01*
X152813Y290548D01*
X148956D01*
Y281550D01*
X163825D02*
X160397Y290548D01*
X156969Y281550D01*
X158254Y284549D02*
X162539D01*
X165924Y290548D02*
Y281550D01*
Y290548D02*
X168924D01*
X170209Y290120D01*
X171066Y289263D01*
X171494Y288406D01*
X171923Y287120D01*
Y284978D01*
X171494Y283692D01*
X171066Y282835D01*
X170209Y281979D01*
X168924Y281550D01*
X165924D01*
X179936Y289263D02*
X179079Y290120D01*
X177793Y290548D01*
X176079D01*
X174794Y290120D01*
X173937Y289263D01*
Y288406D01*
X174365Y287549D01*
X174794Y287120D01*
X175651Y286692D01*
X178222Y285835D01*
X179079Y285406D01*
X179507Y284978D01*
X179936Y284121D01*
Y282835D01*
X179079Y281979D01*
X177793Y281550D01*
X176079D01*
X174794Y281979D01*
X173937Y282835D01*
X3102Y310548D02*
X1817Y310120D01*
X1388Y309263D01*
Y308406D01*
X1817Y307549D01*
X2674Y307120D01*
X4387Y306692D01*
X5673Y306263D01*
X6530Y305406D01*
X6958Y304549D01*
Y303264D01*
X6530Y302407D01*
X6101Y301978D01*
X4816Y301550D01*
X3102D01*
X1817Y301978D01*
X1388Y302407D01*
X960Y303264D01*
Y304549D01*
X1388Y305406D01*
X2245Y306263D01*
X3531Y306692D01*
X5244Y307120D01*
X6101Y307549D01*
X6530Y308406D01*
Y309263D01*
X6101Y310120D01*
X4816Y310548D01*
X3102D01*
X8972Y312262D02*
X9829Y311405D01*
X10686Y310120D01*
X11543Y308406D01*
X11971Y306263D01*
Y304549D01*
X11543Y302407D01*
X10686Y300693D01*
X9829Y299408D01*
X8972Y298551D01*
X9829Y311405D02*
X10686Y309691D01*
X11115Y308406D01*
X11543Y306263D01*
Y304549D01*
X11115Y302407D01*
X10686Y301121D01*
X9829Y299408D01*
X28082Y301550D02*
X24655Y310548D01*
X21227Y301550D01*
X22512Y304549D02*
X26797D01*
X30182Y310548D02*
Y301550D01*
Y310548D02*
X33181D01*
X34467Y310120D01*
X35324Y309263D01*
X35752Y308406D01*
X36181Y307120D01*
Y304978D01*
X35752Y303692D01*
X35324Y302835D01*
X34467Y301978D01*
X33181Y301550D01*
X30182D01*
X38195Y310548D02*
Y301550D01*
Y310548D02*
X41194D01*
X42479Y310120D01*
X43336Y309263D01*
X43765Y308406D01*
X44193Y307120D01*
Y304978D01*
X43765Y303692D01*
X43336Y302835D01*
X42479Y301978D01*
X41194Y301550D01*
X38195D01*
X59276Y309263D02*
X58419Y310120D01*
X57133Y310548D01*
X55419D01*
X54134Y310120D01*
X53277Y309263D01*
Y308406D01*
X53705Y307549D01*
X54134Y307120D01*
X54991Y306692D01*
X57562Y305835D01*
X58419Y305406D01*
X58847Y304978D01*
X59276Y304121D01*
Y302835D01*
X58419Y301978D01*
X57133Y301550D01*
X55419D01*
X54134Y301978D01*
X53277Y302835D01*
X61290Y310548D02*
Y301550D01*
X63175Y310548D02*
Y301550D01*
X68317D01*
X69302Y310548D02*
Y301550D01*
X75301Y310548D02*
X69302Y304549D01*
X71444Y306692D02*
X75301Y301550D01*
X83313Y309263D02*
X82456Y310120D01*
X81171Y310548D01*
X79457D01*
X78172Y310120D01*
X77315Y309263D01*
Y308406D01*
X77743Y307549D01*
X78172Y307120D01*
X79029Y306692D01*
X81599Y305835D01*
X82456Y305406D01*
X82885Y304978D01*
X83313Y304121D01*
Y302835D01*
X82456Y301978D01*
X81171Y301550D01*
X79457D01*
X78172Y301978D01*
X77315Y302835D01*
X91754Y308406D02*
X91326Y309263D01*
X90469Y310120D01*
X89612Y310548D01*
X87898D01*
X87041Y310120D01*
X86184Y309263D01*
X85756Y308406D01*
X85327Y307120D01*
Y304978D01*
X85756Y303692D01*
X86184Y302835D01*
X87041Y301978D01*
X87898Y301550D01*
X89612D01*
X90469Y301978D01*
X91326Y302835D01*
X91754Y303692D01*
X94282Y310548D02*
Y301550D01*
Y310548D02*
X98139D01*
X99424Y310120D01*
X99853Y309691D01*
X100281Y308834D01*
Y307977D01*
X99853Y307120D01*
X99424Y306692D01*
X98139Y306263D01*
X94282D01*
X97282D02*
X100281Y301550D01*
X107865Y310548D02*
X102295D01*
Y301550D01*
X107865D01*
X102295Y306263D02*
X105723D01*
X114935Y310548D02*
X109365D01*
Y301550D01*
X114935D01*
X109365Y306263D02*
X112793D01*
X116435Y310548D02*
Y301550D01*
Y310548D02*
X122433Y301550D01*
Y310548D02*
Y301550D01*
X6958Y330548D02*
X2674Y321550D01*
X960Y330548D02*
X6958D01*
X8972Y332262D02*
X9829Y331405D01*
X10686Y330120D01*
X11543Y328406D01*
X11971Y326263D01*
Y324549D01*
X11543Y322407D01*
X10686Y320693D01*
X9829Y319408D01*
X8972Y318551D01*
X9829Y331405D02*
X10686Y329691D01*
X11115Y328406D01*
X11543Y326263D01*
Y324549D01*
X11115Y322407D01*
X10686Y321122D01*
X9829Y319408D01*
X21227Y330548D02*
Y321550D01*
Y330548D02*
X25083D01*
X26368Y330120D01*
X26797Y329691D01*
X27225Y328834D01*
Y327977D01*
X26797Y327120D01*
X26368Y326692D01*
X25083Y326263D01*
X21227D01*
X24226D02*
X27225Y321550D01*
X31810Y330548D02*
X30953Y330120D01*
X30096Y329263D01*
X29668Y328406D01*
X29239Y327120D01*
Y324978D01*
X29668Y323692D01*
X30096Y322835D01*
X30953Y321978D01*
X31810Y321550D01*
X33524D01*
X34381Y321978D01*
X35238Y322835D01*
X35666Y323692D01*
X36095Y324978D01*
Y327120D01*
X35666Y328406D01*
X35238Y329263D01*
X34381Y330120D01*
X33524Y330548D01*
X31810D01*
X38195D02*
Y324121D01*
X38623Y322835D01*
X39480Y321978D01*
X40765Y321550D01*
X41622D01*
X42908Y321978D01*
X43765Y322835D01*
X44193Y324121D01*
Y330548D01*
X49678D02*
Y321550D01*
X46678Y330548D02*
X52677D01*
X59319D02*
X53748D01*
Y321550D01*
X59319D01*
X53748Y326263D02*
X57176D01*
X70888Y330548D02*
Y321550D01*
X67888Y330548D02*
X73887D01*
X77529D02*
X76672Y330120D01*
X75815Y329263D01*
X75387Y328406D01*
X74958Y327120D01*
Y324978D01*
X75387Y323692D01*
X75815Y322835D01*
X76672Y321978D01*
X77529Y321550D01*
X79243D01*
X80100Y321978D01*
X80957Y322835D01*
X81385Y323692D01*
X81814Y324978D01*
Y327120D01*
X81385Y328406D01*
X80957Y329263D01*
X80100Y330120D01*
X79243Y330548D01*
X77529D01*
X90983D02*
Y321550D01*
Y330548D02*
X94840D01*
X96125Y330120D01*
X96553Y329691D01*
X96982Y328834D01*
Y327977D01*
X96553Y327120D01*
X96125Y326692D01*
X94840Y326263D01*
X90983D02*
X94840D01*
X96125Y325835D01*
X96553Y325406D01*
X96982Y324549D01*
Y323264D01*
X96553Y322407D01*
X96125Y321978D01*
X94840Y321550D01*
X90983D01*
X101567Y330548D02*
X100710Y330120D01*
X99853Y329263D01*
X99424Y328406D01*
X98996Y327120D01*
Y324978D01*
X99424Y323692D01*
X99853Y322835D01*
X100710Y321978D01*
X101567Y321550D01*
X103280D01*
X104138Y321978D01*
X104994Y322835D01*
X105423Y323692D01*
X105851Y324978D01*
Y327120D01*
X105423Y328406D01*
X104994Y329263D01*
X104138Y330120D01*
X103280Y330548D01*
X101567D01*
X114807Y321550D02*
X111379Y330548D01*
X107951Y321550D01*
X109236Y324549D02*
X113521D01*
X116906Y330548D02*
Y321550D01*
Y330548D02*
X120763D01*
X122048Y330120D01*
X122476Y329691D01*
X122905Y328834D01*
Y327977D01*
X122476Y327120D01*
X122048Y326692D01*
X120763Y326263D01*
X116906D01*
X119905D02*
X122905Y321550D01*
X124919Y330548D02*
Y321550D01*
Y330548D02*
X127918D01*
X129203Y330120D01*
X130061Y329263D01*
X130489Y328406D01*
X130917Y327120D01*
Y324978D01*
X130489Y323692D01*
X130061Y322835D01*
X129203Y321978D01*
X127918Y321550D01*
X124919D01*
X142572Y330548D02*
X141715Y330120D01*
X140858Y329263D01*
X140430Y328406D01*
X140001Y327120D01*
Y324978D01*
X140430Y323692D01*
X140858Y322835D01*
X141715Y321978D01*
X142572Y321550D01*
X144286D01*
X145143Y321978D01*
X146000Y322835D01*
X146428Y323692D01*
X146857Y324978D01*
Y327120D01*
X146428Y328406D01*
X146000Y329263D01*
X145143Y330120D01*
X144286Y330548D01*
X142572D01*
X148956D02*
Y324121D01*
X149385Y322835D01*
X150242Y321978D01*
X151527Y321550D01*
X152384D01*
X153670Y321978D01*
X154527Y322835D01*
X154955Y324121D01*
Y330548D01*
X160440D02*
Y321550D01*
X157440Y330548D02*
X163439D01*
X164510D02*
Y321550D01*
X169652D01*
X170638Y330548D02*
Y321550D01*
X172523Y330548D02*
Y321550D01*
Y330548D02*
X178522Y321550D01*
Y330548D02*
Y321550D01*
X186577Y330548D02*
X181007D01*
Y321550D01*
X186577D01*
X181007Y326263D02*
X184434D01*
X6101Y349263D02*
X5673Y350120D01*
X4387Y350548D01*
X3531D01*
X2245Y350120D01*
X1388Y348834D01*
X960Y346692D01*
Y344549D01*
X1388Y342835D01*
X2245Y341979D01*
X3531Y341550D01*
X3959D01*
X5244Y341979D01*
X6101Y342835D01*
X6530Y344121D01*
Y344549D01*
X6101Y345835D01*
X5244Y346692D01*
X3959Y347120D01*
X3531D01*
X2245Y346692D01*
X1388Y345835D01*
X960Y344549D01*
X8501Y352262D02*
X9358Y351405D01*
X10215Y350120D01*
X11072Y348406D01*
X11500Y346263D01*
Y344549D01*
X11072Y342407D01*
X10215Y340693D01*
X9358Y339408D01*
X8501Y338551D01*
X9358Y351405D02*
X10215Y349691D01*
X10643Y348406D01*
X11072Y346263D01*
Y344549D01*
X10643Y342407D01*
X10215Y341122D01*
X9358Y339408D01*
X20755Y350548D02*
Y341550D01*
Y350548D02*
X24612D01*
X25897Y350120D01*
X26326Y349691D01*
X26754Y348834D01*
Y347977D01*
X26326Y347120D01*
X25897Y346692D01*
X24612Y346263D01*
X20755D01*
X23755D02*
X26754Y341550D01*
X34338Y350548D02*
X28768D01*
Y341550D01*
X34338D01*
X28768Y346263D02*
X32196D01*
X42265Y348406D02*
X41837Y349263D01*
X40980Y350120D01*
X40123Y350548D01*
X38409D01*
X37552Y350120D01*
X36695Y349263D01*
X36266Y348406D01*
X35838Y347120D01*
Y344978D01*
X36266Y343692D01*
X36695Y342835D01*
X37552Y341979D01*
X38409Y341550D01*
X40123D01*
X40980Y341979D01*
X41837Y342835D01*
X42265Y343692D01*
X47792Y350548D02*
Y341550D01*
X44793Y350548D02*
X50792D01*
X58719Y341550D02*
X55291Y350548D01*
X51863Y341550D01*
X53148Y344549D02*
X57433D01*
X60818Y350548D02*
Y341550D01*
Y350548D02*
X66817Y341550D01*
Y350548D02*
Y341550D01*
X75729Y348406D02*
X75301Y349263D01*
X74444Y350120D01*
X73587Y350548D01*
X71873D01*
X71016Y350120D01*
X70159Y349263D01*
X69731Y348406D01*
X69302Y347120D01*
Y344978D01*
X69731Y343692D01*
X70159Y342835D01*
X71016Y341979D01*
X71873Y341550D01*
X73587D01*
X74444Y341979D01*
X75301Y342835D01*
X75729Y343692D01*
Y344978D01*
X73587D02*
X75729D01*
X77786Y350548D02*
Y344121D01*
X78215Y342835D01*
X79071Y341979D01*
X80357Y341550D01*
X81214D01*
X82499Y341979D01*
X83356Y342835D01*
X83785Y344121D01*
Y350548D01*
X86270D02*
Y341550D01*
X91412D01*
X99253D02*
X95825Y350548D01*
X92397Y341550D01*
X93683Y344549D02*
X97967D01*
X101352Y350548D02*
Y341550D01*
Y350548D02*
X105209D01*
X106494Y350120D01*
X106923Y349691D01*
X107351Y348834D01*
Y347977D01*
X106923Y347120D01*
X106494Y346692D01*
X105209Y346263D01*
X101352D01*
X104352D02*
X107351Y341550D01*
X116435Y350548D02*
Y341550D01*
Y350548D02*
X120291D01*
X121577Y350120D01*
X122005Y349691D01*
X122433Y348834D01*
Y347977D01*
X122005Y347120D01*
X121577Y346692D01*
X120291Y346263D01*
X116435D02*
X120291D01*
X121577Y345835D01*
X122005Y345406D01*
X122433Y344549D01*
Y343264D01*
X122005Y342407D01*
X121577Y341979D01*
X120291Y341550D01*
X116435D01*
X127018Y350548D02*
X126161Y350120D01*
X125304Y349263D01*
X124876Y348406D01*
X124447Y347120D01*
Y344978D01*
X124876Y343692D01*
X125304Y342835D01*
X126161Y341979D01*
X127018Y341550D01*
X128732D01*
X129589Y341979D01*
X130446Y342835D01*
X130875Y343692D01*
X131303Y344978D01*
Y347120D01*
X130875Y348406D01*
X130446Y349263D01*
X129589Y350120D01*
X128732Y350548D01*
X127018D01*
X140258Y341550D02*
X136830Y350548D01*
X133403Y341550D01*
X134688Y344549D02*
X138973D01*
X142358Y350548D02*
Y341550D01*
Y350548D02*
X146214D01*
X147500Y350120D01*
X147928Y349691D01*
X148357Y348834D01*
Y347977D01*
X147928Y347120D01*
X147500Y346692D01*
X146214Y346263D01*
X142358D01*
X145357D02*
X148357Y341550D01*
X150370Y350548D02*
Y341550D01*
Y350548D02*
X153370D01*
X154655Y350120D01*
X155512Y349263D01*
X155941Y348406D01*
X156369Y347120D01*
Y344978D01*
X155941Y343692D01*
X155512Y342835D01*
X154655Y341979D01*
X153370Y341550D01*
X150370D01*
X165453Y350548D02*
X167595Y341550D01*
X169738Y350548D02*
X167595Y341550D01*
X169738Y350548D02*
X171880Y341550D01*
X174022Y350548D02*
X171880Y341550D01*
X175822Y350548D02*
Y341550D01*
X180707Y350548D02*
Y341550D01*
X177707Y350548D02*
X183706D01*
X184777D02*
Y341550D01*
X190776Y350548D02*
Y341550D01*
X184777Y346263D02*
X190776D01*
X206758Y348406D02*
X206330Y349263D01*
X205473Y350120D01*
X204616Y350548D01*
X202902D01*
X202045Y350120D01*
X201188Y349263D01*
X200760Y348406D01*
X200331Y347120D01*
Y344978D01*
X200760Y343692D01*
X201188Y342835D01*
X202045Y341979D01*
X202902Y341550D01*
X204616D01*
X205473Y341979D01*
X206330Y342835D01*
X206758Y343692D01*
X209286Y350548D02*
Y344121D01*
X209715Y342835D01*
X210572Y341979D01*
X211857Y341550D01*
X212714D01*
X214000Y341979D01*
X214857Y342835D01*
X215285Y344121D01*
Y350548D01*
X220770D02*
Y341550D01*
X217770Y350548D02*
X223769D01*
X227411D02*
X226554Y350120D01*
X225697Y349263D01*
X225269Y348406D01*
X224840Y347120D01*
Y344978D01*
X225269Y343692D01*
X225697Y342835D01*
X226554Y341979D01*
X227411Y341550D01*
X229125D01*
X229982Y341979D01*
X230839Y342835D01*
X231267Y343692D01*
X231696Y344978D01*
Y347120D01*
X231267Y348406D01*
X230839Y349263D01*
X229982Y350120D01*
X229125Y350548D01*
X227411D01*
X233795D02*
Y344121D01*
X234224Y342835D01*
X235081Y341979D01*
X236366Y341550D01*
X237223D01*
X238509Y341979D01*
X239366Y342835D01*
X239794Y344121D01*
Y350548D01*
X245279D02*
Y341550D01*
X242279Y350548D02*
X248278D01*
X258990D02*
X258133Y350120D01*
X257276Y349263D01*
X256848Y348406D01*
X256419Y347120D01*
Y344978D01*
X256848Y343692D01*
X257276Y342835D01*
X258133Y341979D01*
X258990Y341550D01*
X260704D01*
X261561Y341979D01*
X262418Y342835D01*
X262846Y343692D01*
X263275Y344978D01*
Y347120D01*
X262846Y348406D01*
X262418Y349263D01*
X261561Y350120D01*
X260704Y350548D01*
X258990D01*
X265374D02*
Y341550D01*
Y350548D02*
X271373Y341550D01*
Y350548D02*
Y341550D01*
X280928Y350548D02*
Y341550D01*
Y350548D02*
X284785D01*
X286070Y350120D01*
X286498Y349691D01*
X286927Y348834D01*
Y347977D01*
X286498Y347120D01*
X286070Y346692D01*
X284785Y346263D01*
X280928D01*
X283927D02*
X286927Y341550D01*
X288941Y350548D02*
Y341550D01*
X297253Y348406D02*
X296825Y349263D01*
X295968Y350120D01*
X295111Y350548D01*
X293397D01*
X292540Y350120D01*
X291683Y349263D01*
X291254Y348406D01*
X290826Y347120D01*
Y344978D01*
X291254Y343692D01*
X291683Y342835D01*
X292540Y341979D01*
X293397Y341550D01*
X295111D01*
X295968Y341979D01*
X296825Y342835D01*
X297253Y343692D01*
Y344978D01*
X295111D02*
X297253D01*
X299310Y350548D02*
Y341550D01*
X305309Y350548D02*
Y341550D01*
X299310Y346263D02*
X305309D01*
X310793Y350548D02*
Y341550D01*
X307794Y350548D02*
X313792D01*
X327932Y349263D02*
X327075Y350120D01*
X325790Y350548D01*
X324076D01*
X322791Y350120D01*
X321934Y349263D01*
Y348406D01*
X322362Y347549D01*
X322791Y347120D01*
X323648Y346692D01*
X326218Y345835D01*
X327075Y345406D01*
X327504Y344978D01*
X327932Y344121D01*
Y342835D01*
X327075Y341979D01*
X325790Y341550D01*
X324076D01*
X322791Y341979D01*
X321934Y342835D01*
X329946Y350548D02*
Y341550D01*
X331832Y350548D02*
Y341550D01*
Y350548D02*
X334831D01*
X336116Y350120D01*
X336973Y349263D01*
X337402Y348406D01*
X337830Y347120D01*
Y344978D01*
X337402Y343692D01*
X336973Y342835D01*
X336116Y341979D01*
X334831Y341550D01*
X331832D01*
X345414Y350548D02*
X339844D01*
Y341550D01*
X345414D01*
X339844Y346263D02*
X343272D01*
X6101Y370548D02*
X1817D01*
X1388Y366692D01*
X1817Y367120D01*
X3102Y367549D01*
X4387D01*
X5673Y367120D01*
X6530Y366263D01*
X6958Y364978D01*
Y364121D01*
X6530Y362835D01*
X5673Y361979D01*
X4387Y361550D01*
X3102D01*
X1817Y361979D01*
X1388Y362407D01*
X960Y363264D01*
X8972Y372262D02*
X9829Y371405D01*
X10686Y370120D01*
X11543Y368406D01*
X11971Y366263D01*
Y364549D01*
X11543Y362407D01*
X10686Y360693D01*
X9829Y359408D01*
X8972Y358551D01*
X9829Y371405D02*
X10686Y369691D01*
X11115Y368406D01*
X11543Y366263D01*
Y364549D01*
X11115Y362407D01*
X10686Y361122D01*
X9829Y359408D01*
X21227Y370548D02*
Y361550D01*
Y370548D02*
X26797D01*
X21227Y366263D02*
X24655D01*
X27825Y370548D02*
Y361550D01*
X29711Y370548D02*
Y361550D01*
Y370548D02*
X35709Y361550D01*
Y370548D02*
Y361550D01*
X38195Y370548D02*
Y361550D01*
X46079Y369263D02*
X45222Y370120D01*
X43936Y370548D01*
X42222D01*
X40937Y370120D01*
X40080Y369263D01*
Y368406D01*
X40508Y367549D01*
X40937Y367120D01*
X41794Y366692D01*
X44365Y365835D01*
X45222Y365406D01*
X45650Y364978D01*
X46079Y364121D01*
Y362835D01*
X45222Y361979D01*
X43936Y361550D01*
X42222D01*
X40937Y361979D01*
X40080Y362835D01*
X48092Y370548D02*
Y361550D01*
X54091Y370548D02*
Y361550D01*
X48092Y366263D02*
X54091D01*
X63646Y370548D02*
Y361550D01*
X71530Y369263D02*
X70673Y370120D01*
X69388Y370548D01*
X67674D01*
X66388Y370120D01*
X65531Y369263D01*
Y368406D01*
X65960Y367549D01*
X66388Y367120D01*
X67245Y366692D01*
X69816Y365835D01*
X70673Y365406D01*
X71102Y364978D01*
X71530Y364121D01*
Y362835D01*
X70673Y361979D01*
X69388Y361550D01*
X67674D01*
X66388Y361979D01*
X65531Y362835D01*
X86613Y369263D02*
X85756Y370120D01*
X84470Y370548D01*
X82756D01*
X81471Y370120D01*
X80614Y369263D01*
Y368406D01*
X81042Y367549D01*
X81471Y367120D01*
X82328Y366692D01*
X84899Y365835D01*
X85756Y365406D01*
X86184Y364978D01*
X86613Y364121D01*
Y362835D01*
X85756Y361979D01*
X84470Y361550D01*
X82756D01*
X81471Y361979D01*
X80614Y362835D01*
X88626Y370548D02*
Y361550D01*
Y370548D02*
X92054Y361550D01*
X95482Y370548D02*
X92054Y361550D01*
X95482Y370548D02*
Y361550D01*
X100624Y370548D02*
X99767Y370120D01*
X98910Y369263D01*
X98482Y368406D01*
X98053Y367120D01*
Y364978D01*
X98482Y363692D01*
X98910Y362835D01*
X99767Y361979D01*
X100624Y361550D01*
X102338D01*
X103195Y361979D01*
X104052Y362835D01*
X104480Y363692D01*
X104909Y364978D01*
Y367120D01*
X104480Y368406D01*
X104052Y369263D01*
X103195Y370120D01*
X102338Y370548D01*
X100624D01*
X107008D02*
Y361550D01*
Y370548D02*
X110865D01*
X112150Y370120D01*
X112578Y369691D01*
X113007Y368834D01*
Y367977D01*
X112578Y367120D01*
X112150Y366692D01*
X110865Y366263D01*
X107008D02*
X110865D01*
X112150Y365835D01*
X112578Y365406D01*
X113007Y364549D01*
Y363264D01*
X112578Y362407D01*
X112150Y361979D01*
X110865Y361550D01*
X107008D01*
X121448Y368406D02*
X121020Y369263D01*
X120163Y370120D01*
X119306Y370548D01*
X117592D01*
X116735Y370120D01*
X115878Y369263D01*
X115449Y368406D01*
X115021Y367120D01*
Y364978D01*
X115449Y363692D01*
X115878Y362835D01*
X116735Y361979D01*
X117592Y361550D01*
X119306D01*
X120163Y361979D01*
X121020Y362835D01*
X121448Y363692D01*
X5244Y390548D02*
X960Y384549D01*
X7387D01*
X5244Y390548D02*
Y381550D01*
X8972Y392262D02*
X9829Y391405D01*
X10686Y390120D01*
X11543Y388406D01*
X11971Y386263D01*
Y384549D01*
X11543Y382407D01*
X10686Y380693D01*
X9829Y379408D01*
X8972Y378551D01*
X9829Y391405D02*
X10686Y389691D01*
X11115Y388406D01*
X11543Y386263D01*
Y384549D01*
X11115Y382407D01*
X10686Y381121D01*
X9829Y379408D01*
X27654Y388406D02*
X27225Y389263D01*
X26368Y390120D01*
X25512Y390548D01*
X23798D01*
X22941Y390120D01*
X22084Y389263D01*
X21655Y388406D01*
X21227Y387120D01*
Y384978D01*
X21655Y383692D01*
X22084Y382835D01*
X22941Y381979D01*
X23798Y381550D01*
X25512D01*
X26368Y381979D01*
X27225Y382835D01*
X27654Y383692D01*
X32753Y390548D02*
X31896Y390120D01*
X31039Y389263D01*
X30610Y388406D01*
X30182Y387120D01*
Y384978D01*
X30610Y383692D01*
X31039Y382835D01*
X31896Y381979D01*
X32753Y381550D01*
X34467D01*
X35324Y381979D01*
X36181Y382835D01*
X36609Y383692D01*
X37038Y384978D01*
Y387120D01*
X36609Y388406D01*
X36181Y389263D01*
X35324Y390120D01*
X34467Y390548D01*
X32753D01*
X39137Y385835D02*
X42993D01*
X44279Y386263D01*
X44707Y386692D01*
X45136Y387549D01*
Y388834D01*
X44707Y389691D01*
X44279Y390120D01*
X42993Y390548D01*
X39137D01*
Y381550D01*
X47150Y385835D02*
X51006D01*
X52291Y386263D01*
X52720Y386692D01*
X53148Y387549D01*
Y388834D01*
X52720Y389691D01*
X52291Y390120D01*
X51006Y390548D01*
X47150D01*
Y381550D01*
X60733Y390548D02*
X55162D01*
Y381550D01*
X60733D01*
X55162Y386263D02*
X58590D01*
X62232Y390548D02*
Y381550D01*
Y390548D02*
X66088D01*
X67374Y390120D01*
X67802Y389691D01*
X68231Y388834D01*
Y387977D01*
X67802Y387120D01*
X67374Y386692D01*
X66088Y386263D01*
X62232D01*
X65232D02*
X68231Y381550D01*
X77315Y390548D02*
X79457Y381550D01*
X81599Y390548D02*
X79457Y381550D01*
X81599Y390548D02*
X83742Y381550D01*
X85884Y390548D02*
X83742Y381550D01*
X93254Y390548D02*
X87684D01*
Y381550D01*
X93254D01*
X87684Y386263D02*
X91112D01*
X94754Y390548D02*
Y381550D01*
X103066Y388406D02*
X102638Y389263D01*
X101781Y390120D01*
X100924Y390548D01*
X99210D01*
X98353Y390120D01*
X97496Y389263D01*
X97068Y388406D01*
X96639Y387120D01*
Y384978D01*
X97068Y383692D01*
X97496Y382835D01*
X98353Y381979D01*
X99210Y381550D01*
X100924D01*
X101781Y381979D01*
X102638Y382835D01*
X103066Y383692D01*
Y384978D01*
X100924D02*
X103066D01*
X105123Y390548D02*
Y381550D01*
X111122Y390548D02*
Y381550D01*
X105123Y386263D02*
X111122D01*
X116606Y390548D02*
Y381550D01*
X113607Y390548D02*
X119606D01*
X127747D02*
Y381550D01*
X135631Y389263D02*
X134774Y390120D01*
X133488Y390548D01*
X131774D01*
X130489Y390120D01*
X129632Y389263D01*
Y388406D01*
X130061Y387549D01*
X130489Y387120D01*
X131346Y386692D01*
X133917Y385835D01*
X134774Y385406D01*
X135202Y384978D01*
X135631Y384121D01*
Y382835D01*
X134774Y381979D01*
X133488Y381550D01*
X131774D01*
X130489Y381979D01*
X129632Y382835D01*
X144714Y388834D02*
X145571Y389263D01*
X146857Y390548D01*
Y381550D01*
X160954Y390548D02*
X160097Y390120D01*
X159240Y389263D01*
X158811Y388406D01*
X158383Y387120D01*
Y384978D01*
X158811Y383692D01*
X159240Y382835D01*
X160097Y381979D01*
X160954Y381550D01*
X162668D01*
X163525Y381979D01*
X164382Y382835D01*
X164810Y383692D01*
X165239Y384978D01*
Y387120D01*
X164810Y388406D01*
X164382Y389263D01*
X163525Y390120D01*
X162668Y390548D01*
X160954D01*
X167338D02*
Y384121D01*
X167767Y382835D01*
X168624Y381979D01*
X169909Y381550D01*
X170766D01*
X172052Y381979D01*
X172908Y382835D01*
X173337Y384121D01*
Y390548D01*
X175822D02*
Y381550D01*
Y390548D02*
X181821Y381550D01*
Y390548D02*
Y381550D01*
X190733Y388406D02*
X190305Y389263D01*
X189448Y390120D01*
X188591Y390548D01*
X186877D01*
X186020Y390120D01*
X185163Y389263D01*
X184734Y388406D01*
X184306Y387120D01*
Y384978D01*
X184734Y383692D01*
X185163Y382835D01*
X186020Y381979D01*
X186877Y381550D01*
X188591D01*
X189448Y381979D01*
X190305Y382835D01*
X190733Y383692D01*
X198831Y390548D02*
X193261D01*
Y381550D01*
X198831D01*
X193261Y386263D02*
X196689D01*
X1817Y410548D02*
X6530D01*
X3959Y407120D01*
X5244D01*
X6101Y406692D01*
X6530Y406263D01*
X6958Y404978D01*
Y404121D01*
X6530Y402835D01*
X5673Y401978D01*
X4388Y401550D01*
X3102D01*
X1817Y401978D01*
X1388Y402407D01*
X960Y403264D01*
X8972Y412262D02*
X9829Y411405D01*
X10686Y410120D01*
X11543Y408406D01*
X11972Y406263D01*
Y404549D01*
X11543Y402407D01*
X10686Y400693D01*
X9829Y399408D01*
X8972Y398551D01*
X9829Y411405D02*
X10686Y409691D01*
X11115Y408406D01*
X11543Y406263D01*
Y404549D01*
X11115Y402407D01*
X10686Y401122D01*
X9829Y399408D01*
X21655Y408406D02*
Y408834D01*
X22084Y409691D01*
X22512Y410120D01*
X23369Y410548D01*
X25083D01*
X25940Y410120D01*
X26368Y409691D01*
X26797Y408834D01*
Y407977D01*
X26368Y407120D01*
X25512Y405835D01*
X21227Y401550D01*
X27225D01*
X36309Y410548D02*
Y401550D01*
X41451D01*
X49292D02*
X45864Y410548D01*
X42437Y401550D01*
X43722Y404549D02*
X48007D01*
X51392Y410548D02*
X54820Y406263D01*
Y401550D01*
X58247Y410548D02*
X54820Y406263D01*
X64974Y410548D02*
X59404D01*
Y401550D01*
X64974D01*
X59404Y406263D02*
X62832D01*
X66474Y410548D02*
Y401550D01*
Y410548D02*
X70331D01*
X71616Y410120D01*
X72044Y409691D01*
X72473Y408834D01*
Y407977D01*
X72044Y407120D01*
X71616Y406692D01*
X70331Y406263D01*
X66474D01*
X69473D02*
X72473Y401550D01*
X81557Y410548D02*
Y401550D01*
Y410548D02*
X85413D01*
X86698Y410120D01*
X87127Y409691D01*
X87555Y408834D01*
Y407977D01*
X87127Y407120D01*
X86698Y406692D01*
X85413Y406263D01*
X81557D02*
X85413D01*
X86698Y405835D01*
X87127Y405406D01*
X87555Y404549D01*
Y403264D01*
X87127Y402407D01*
X86698Y401978D01*
X85413Y401550D01*
X81557D01*
X92140Y410548D02*
X91283Y410120D01*
X90426Y409263D01*
X89998Y408406D01*
X89569Y407120D01*
Y404978D01*
X89998Y403692D01*
X90426Y402835D01*
X91283Y401978D01*
X92140Y401550D01*
X93854D01*
X94711Y401978D01*
X95568Y402835D01*
X95996Y403692D01*
X96425Y404978D01*
Y407120D01*
X95996Y408406D01*
X95568Y409263D01*
X94711Y410120D01*
X93854Y410548D01*
X92140D01*
X105380Y401550D02*
X101952Y410548D01*
X98524Y401550D01*
X99810Y404549D02*
X104095D01*
X107480Y410548D02*
Y401550D01*
Y410548D02*
X111336D01*
X112621Y410120D01*
X113050Y409691D01*
X113478Y408834D01*
Y407977D01*
X113050Y407120D01*
X112621Y406692D01*
X111336Y406263D01*
X107480D01*
X110479D02*
X113478Y401550D01*
X115492Y410548D02*
Y401550D01*
Y410548D02*
X118492D01*
X119777Y410120D01*
X120634Y409263D01*
X121062Y408406D01*
X121491Y407120D01*
Y404978D01*
X121062Y403692D01*
X120634Y402835D01*
X119777Y401978D01*
X118492Y401550D01*
X115492D01*
X960Y268834D02*
X1817Y269263D01*
X3102Y270548D01*
Y261550D01*
X10129Y270548D02*
X8844Y270120D01*
X7987Y268834D01*
X7558Y266692D01*
Y265406D01*
X7987Y263264D01*
X8844Y261979D01*
X10129Y261550D01*
X10986D01*
X12271Y261979D01*
X13128Y263264D01*
X13557Y265406D01*
Y266692D01*
X13128Y268834D01*
X12271Y270120D01*
X10986Y270548D01*
X10129D01*
X15571Y272262D02*
X16428Y271405D01*
X17285Y270120D01*
X18142Y268406D01*
X18570Y266263D01*
Y264549D01*
X18142Y262407D01*
X17285Y260693D01*
X16428Y259408D01*
X15571Y258551D01*
X16428Y271405D02*
X17285Y269691D01*
X17713Y268406D01*
X18142Y266263D01*
Y264549D01*
X17713Y262407D01*
X17285Y261122D01*
X16428Y259408D01*
X34253Y268406D02*
X33824Y269263D01*
X32967Y270120D01*
X32110Y270548D01*
X30396D01*
X29539Y270120D01*
X28682Y269263D01*
X28254Y268406D01*
X27825Y267120D01*
Y264978D01*
X28254Y263692D01*
X28682Y262835D01*
X29539Y261979D01*
X30396Y261550D01*
X32110D01*
X32967Y261979D01*
X33824Y262835D01*
X34253Y263692D01*
Y264978D01*
X32110D02*
X34253D01*
X36309Y270548D02*
Y261550D01*
Y270548D02*
X40165D01*
X41451Y270120D01*
X41879Y269691D01*
X42308Y268834D01*
Y267977D01*
X41879Y267120D01*
X41451Y266692D01*
X40165Y266263D01*
X36309D01*
X39309D02*
X42308Y261550D01*
X49892Y270548D02*
X44322D01*
Y261550D01*
X49892D01*
X44322Y266263D02*
X47750D01*
X56962Y270548D02*
X51392D01*
Y261550D01*
X56962D01*
X51392Y266263D02*
X54820D01*
X58462Y270548D02*
Y261550D01*
Y270548D02*
X64460Y261550D01*
Y270548D02*
Y261550D01*
X80014Y269263D02*
X79157Y270120D01*
X77872Y270548D01*
X76158D01*
X74872Y270120D01*
X74015Y269263D01*
Y268406D01*
X74444Y267549D01*
X74872Y267120D01*
X75729Y266692D01*
X78300Y265835D01*
X79157Y265406D01*
X79586Y264978D01*
X80014Y264121D01*
Y262835D01*
X79157Y261979D01*
X77872Y261550D01*
X76158D01*
X74872Y261979D01*
X74015Y262835D01*
X84599Y270548D02*
X83742Y270120D01*
X82885Y269263D01*
X82456Y268406D01*
X82028Y267120D01*
Y264978D01*
X82456Y263692D01*
X82885Y262835D01*
X83742Y261979D01*
X84599Y261550D01*
X86313D01*
X87170Y261979D01*
X88027Y262835D01*
X88455Y263692D01*
X88884Y264978D01*
Y267120D01*
X88455Y268406D01*
X88027Y269263D01*
X87170Y270120D01*
X86313Y270548D01*
X84599D01*
X90983D02*
Y261550D01*
X96125D01*
X97110Y270548D02*
Y261550D01*
Y270548D02*
X100110D01*
X101395Y270120D01*
X102252Y269263D01*
X102681Y268406D01*
X103109Y267120D01*
Y264978D01*
X102681Y263692D01*
X102252Y262835D01*
X101395Y261979D01*
X100110Y261550D01*
X97110D01*
X110693Y270548D02*
X105123D01*
Y261550D01*
X110693D01*
X105123Y266263D02*
X108551D01*
X112193Y270548D02*
Y261550D01*
Y270548D02*
X116049D01*
X117335Y270120D01*
X117763Y269691D01*
X118192Y268834D01*
Y267977D01*
X117763Y267120D01*
X117335Y266692D01*
X116049Y266263D01*
X112193D01*
X115192D02*
X118192Y261550D01*
X127275Y270548D02*
Y261550D01*
Y270548D02*
X130703Y261550D01*
X134131Y270548D02*
X130703Y261550D01*
X134131Y270548D02*
Y261550D01*
X143558D02*
X140130Y270548D01*
X136702Y261550D01*
X137987Y264549D02*
X142272D01*
X151656Y269263D02*
X150799Y270120D01*
X149513Y270548D01*
X147800D01*
X146514Y270120D01*
X145657Y269263D01*
Y268406D01*
X146086Y267549D01*
X146514Y267120D01*
X147371Y266692D01*
X149942Y265835D01*
X150799Y265406D01*
X151227Y264978D01*
X151656Y264121D01*
Y262835D01*
X150799Y261979D01*
X149513Y261550D01*
X147800D01*
X146514Y261979D01*
X145657Y262835D01*
X153670Y270548D02*
Y261550D01*
X159668Y270548D02*
X153670Y264549D01*
X155812Y266692D02*
X159668Y261550D01*
X168752Y270548D02*
Y261550D01*
Y270548D02*
X172608D01*
X173894Y270120D01*
X174322Y269691D01*
X174751Y268834D01*
Y267977D01*
X174322Y267120D01*
X173894Y266692D01*
X172608Y266263D01*
X168752D02*
X172608D01*
X173894Y265835D01*
X174322Y265406D01*
X174751Y264549D01*
Y263264D01*
X174322Y262407D01*
X173894Y261979D01*
X172608Y261550D01*
X168752D01*
X179336Y270548D02*
X178479Y270120D01*
X177622Y269263D01*
X177193Y268406D01*
X176765Y267120D01*
Y264978D01*
X177193Y263692D01*
X177622Y262835D01*
X178479Y261979D01*
X179336Y261550D01*
X181050D01*
X181906Y261979D01*
X182764Y262835D01*
X183192Y263692D01*
X183620Y264978D01*
Y267120D01*
X183192Y268406D01*
X182764Y269263D01*
X181906Y270120D01*
X181050Y270548D01*
X179336D01*
X188719D02*
Y261550D01*
X185720Y270548D02*
X191719D01*
X192790D02*
Y261550D01*
X198789Y270548D02*
Y261550D01*
X192790Y266263D02*
X198789D01*
X214342Y269263D02*
X213486Y270120D01*
X212200Y270548D01*
X210486D01*
X209201Y270120D01*
X208344Y269263D01*
Y268406D01*
X208772Y267549D01*
X209201Y267120D01*
X210058Y266692D01*
X212629Y265835D01*
X213486Y265406D01*
X213914Y264978D01*
X214342Y264121D01*
Y262835D01*
X213486Y261979D01*
X212200Y261550D01*
X210486D01*
X209201Y261979D01*
X208344Y262835D01*
X216356Y270548D02*
Y261550D01*
X218242Y270548D02*
Y261550D01*
Y270548D02*
X221241D01*
X222526Y270120D01*
X223383Y269263D01*
X223812Y268406D01*
X224240Y267120D01*
Y264978D01*
X223812Y263692D01*
X223383Y262835D01*
X222526Y261979D01*
X221241Y261550D01*
X218242D01*
X231824Y270548D02*
X226254D01*
Y261550D01*
X231824D01*
X226254Y266263D02*
X229682D01*
X239323Y269263D02*
X238466Y270120D01*
X237180Y270548D01*
X235467D01*
X234181Y270120D01*
X233324Y269263D01*
Y268406D01*
X233753Y267549D01*
X234181Y267120D01*
X235038Y266692D01*
X237609Y265835D01*
X238466Y265406D01*
X238894Y264978D01*
X239323Y264121D01*
Y262835D01*
X238466Y261979D01*
X237180Y261550D01*
X235467D01*
X234181Y261979D01*
X233324Y262835D01*
X960Y470548D02*
Y461550D01*
Y470548D02*
X6958Y461550D01*
Y470548D02*
Y461550D01*
X12014Y470548D02*
X11157Y470120D01*
X10300Y469263D01*
X9872Y468406D01*
X9443Y467120D01*
Y464978D01*
X9872Y463692D01*
X10300Y462835D01*
X11157Y461978D01*
X12014Y461550D01*
X13728D01*
X14585Y461978D01*
X15442Y462835D01*
X15871Y463692D01*
X16299Y464978D01*
Y467120D01*
X15871Y468406D01*
X15442Y469263D01*
X14585Y470120D01*
X13728Y470548D01*
X12014D01*
X21398D02*
Y461550D01*
X18399Y470548D02*
X24397D01*
X31039D02*
X25469D01*
Y461550D01*
X31039D01*
X25469Y466263D02*
X28896D01*
X38537Y469263D02*
X37680Y470120D01*
X36395Y470548D01*
X34681D01*
X33395Y470120D01*
X32539Y469263D01*
Y468406D01*
X32967Y467549D01*
X33395Y467120D01*
X34253Y466692D01*
X36823Y465835D01*
X37680Y465406D01*
X38109Y464978D01*
X38537Y464121D01*
Y462835D01*
X37680Y461978D01*
X36395Y461550D01*
X34681D01*
X33395Y461978D01*
X32539Y462835D01*
X960Y448834D02*
X1817Y449263D01*
X3102Y450548D01*
Y441550D01*
X7558Y452262D02*
X8415Y451405D01*
X9272Y450120D01*
X10129Y448406D01*
X10558Y446263D01*
Y444549D01*
X10129Y442407D01*
X9272Y440693D01*
X8415Y439408D01*
X7558Y438551D01*
X8415Y451405D02*
X9272Y449691D01*
X9701Y448406D01*
X10129Y446263D01*
Y444549D01*
X9701Y442407D01*
X9272Y441121D01*
X8415Y439408D01*
X19813Y450548D02*
Y441550D01*
Y450548D02*
X23669D01*
X24954Y450120D01*
X25383Y449691D01*
X25811Y448834D01*
Y447977D01*
X25383Y447120D01*
X24954Y446692D01*
X23669Y446263D01*
X19813D02*
X23669D01*
X24954Y445835D01*
X25383Y445406D01*
X25811Y444549D01*
Y443264D01*
X25383Y442407D01*
X24954Y441979D01*
X23669Y441550D01*
X19813D01*
X30396Y450548D02*
X29539Y450120D01*
X28682Y449263D01*
X28254Y448406D01*
X27825Y447120D01*
Y444978D01*
X28254Y443692D01*
X28682Y442835D01*
X29539Y441979D01*
X30396Y441550D01*
X32110D01*
X32967Y441979D01*
X33824Y442835D01*
X34253Y443692D01*
X34681Y444978D01*
Y447120D01*
X34253Y448406D01*
X33824Y449263D01*
X32967Y450120D01*
X32110Y450548D01*
X30396D01*
X43636Y441550D02*
X40208Y450548D01*
X36781Y441550D01*
X38066Y444549D02*
X42351D01*
X45736Y450548D02*
Y441550D01*
Y450548D02*
X49592D01*
X50877Y450120D01*
X51306Y449691D01*
X51734Y448834D01*
Y447977D01*
X51306Y447120D01*
X50877Y446692D01*
X49592Y446263D01*
X45736D01*
X48735D02*
X51734Y441550D01*
X53748Y450548D02*
Y441550D01*
Y450548D02*
X56748D01*
X58033Y450120D01*
X58890Y449263D01*
X59319Y448406D01*
X59747Y447120D01*
Y444978D01*
X59319Y443692D01*
X58890Y442835D01*
X58033Y441979D01*
X56748Y441550D01*
X53748D01*
X68831Y450548D02*
Y441550D01*
Y450548D02*
X72259Y441550D01*
X75686Y450548D02*
X72259Y441550D01*
X75686Y450548D02*
Y441550D01*
X83828Y450548D02*
X78257D01*
Y441550D01*
X83828D01*
X78257Y446263D02*
X81685D01*
X92183Y441550D02*
X88755Y450548D01*
X85327Y441550D01*
X86613Y444549D02*
X90898D01*
X100281Y449263D02*
X99424Y450120D01*
X98139Y450548D01*
X96425D01*
X95139Y450120D01*
X94282Y449263D01*
Y448406D01*
X94711Y447549D01*
X95139Y447120D01*
X95996Y446692D01*
X98567Y445835D01*
X99424Y445406D01*
X99853Y444978D01*
X100281Y444121D01*
Y442835D01*
X99424Y441979D01*
X98139Y441550D01*
X96425D01*
X95139Y441979D01*
X94282Y442835D01*
X102295Y450548D02*
Y444121D01*
X102724Y442835D01*
X103580Y441979D01*
X104866Y441550D01*
X105723D01*
X107008Y441979D01*
X107865Y442835D01*
X108294Y444121D01*
Y450548D01*
X110779D02*
Y441550D01*
Y450548D02*
X114635D01*
X115921Y450120D01*
X116349Y449691D01*
X116778Y448834D01*
Y447977D01*
X116349Y447120D01*
X115921Y446692D01*
X114635Y446263D01*
X110779D01*
X113778D02*
X116778Y441550D01*
X124362Y450548D02*
X118791D01*
Y441550D01*
X124362D01*
X118791Y446263D02*
X122219D01*
X131860Y449263D02*
X131003Y450120D01*
X129718Y450548D01*
X128004D01*
X126718Y450120D01*
X125861Y449263D01*
Y448406D01*
X126290Y447549D01*
X126718Y447120D01*
X127575Y446692D01*
X130146Y445835D01*
X131003Y445406D01*
X131432Y444978D01*
X131860Y444121D01*
Y442835D01*
X131003Y441979D01*
X129718Y441550D01*
X128004D01*
X126718Y441979D01*
X125861Y442835D01*
X140944Y448834D02*
X141801Y449263D01*
X143086Y450548D01*
Y441550D01*
X147971Y442407D02*
X147543Y441979D01*
X147971Y441550D01*
X148399Y441979D01*
X147971Y442407D01*
X155941Y447549D02*
X155512Y446263D01*
X154655Y445406D01*
X153370Y444978D01*
X152941D01*
X151656Y445406D01*
X150799Y446263D01*
X150370Y447549D01*
Y447977D01*
X150799Y449263D01*
X151656Y450120D01*
X152941Y450548D01*
X153370D01*
X154655Y450120D01*
X155512Y449263D01*
X155941Y447549D01*
Y445406D01*
X155512Y443264D01*
X154655Y441979D01*
X153370Y441550D01*
X152513D01*
X151227Y441979D01*
X150799Y442835D01*
X158383Y448834D02*
X159240Y449263D01*
X160525Y450548D01*
Y441550D01*
X170123Y450548D02*
X165839D01*
X165410Y446692D01*
X165839Y447120D01*
X167124Y447549D01*
X168409D01*
X169695Y447120D01*
X170552Y446263D01*
X170980Y444978D01*
Y444121D01*
X170552Y442835D01*
X169695Y441979D01*
X168409Y441550D01*
X167124D01*
X165839Y441979D01*
X165410Y442407D01*
X164982Y443264D01*
X180064Y450548D02*
X186063Y441550D01*
Y450548D02*
X180064Y441550D01*
X203073Y450548D02*
X207787D01*
X205216Y447120D01*
X206501D01*
X207358Y446692D01*
X207787Y446263D01*
X208215Y444978D01*
Y444121D01*
X207787Y442835D01*
X206930Y441979D01*
X205644Y441550D01*
X204359D01*
X203073Y441979D01*
X202645Y442407D01*
X202217Y443264D01*
X210658Y442407D02*
X210229Y441979D01*
X210658Y441550D01*
X211086Y441979D01*
X210658Y442407D01*
X213057Y448834D02*
X213914Y449263D01*
X215199Y450548D01*
Y441550D01*
X221798Y450548D02*
X220513Y450120D01*
X220084Y449263D01*
Y448406D01*
X220513Y447549D01*
X221370Y447120D01*
X223083Y446692D01*
X224369Y446263D01*
X225226Y445406D01*
X225654Y444549D01*
Y443264D01*
X225226Y442407D01*
X224797Y441979D01*
X223512Y441550D01*
X221798D01*
X220513Y441979D01*
X220084Y442407D01*
X219656Y443264D01*
Y444549D01*
X220084Y445406D01*
X220941Y446263D01*
X222227Y446692D01*
X223940Y447120D01*
X224797Y447549D01*
X225226Y448406D01*
Y449263D01*
X224797Y450120D01*
X223512Y450548D01*
X221798D01*
X230239D02*
X228954Y450120D01*
X228097Y448834D01*
X227668Y446692D01*
Y445406D01*
X228097Y443264D01*
X228954Y441979D01*
X230239Y441550D01*
X231096D01*
X232381Y441979D01*
X233238Y443264D01*
X233667Y445406D01*
Y446692D01*
X233238Y448834D01*
X232381Y450120D01*
X231096Y450548D01*
X230239D01*
X242751D02*
Y441550D01*
X244636Y450548D02*
Y441550D01*
Y450548D02*
X250635Y441550D01*
Y450548D02*
Y441550D01*
X1060Y228934D02*
X1917Y229363D01*
X3202Y230648D01*
Y221650D01*
X8087Y228506D02*
Y228934D01*
X8515Y229791D01*
X8944Y230220D01*
X9801Y230648D01*
X11514D01*
X12371Y230220D01*
X12800Y229791D01*
X13228Y228934D01*
Y228077D01*
X12800Y227220D01*
X11943Y225935D01*
X7658Y221650D01*
X13657D01*
X15671Y232362D02*
X16528Y231505D01*
X17385Y230220D01*
X18242Y228506D01*
X18670Y226363D01*
Y224649D01*
X18242Y222507D01*
X17385Y220793D01*
X16528Y219508D01*
X15671Y218651D01*
X16528Y231505D02*
X17385Y229791D01*
X17813Y228506D01*
X18242Y226363D01*
Y224649D01*
X17813Y222507D01*
X17385Y221221D01*
X16528Y219508D01*
X28354Y222507D02*
X27925Y222078D01*
X28354Y221650D01*
X28782Y222078D01*
X28354Y222507D01*
X30753Y228934D02*
X31610Y229363D01*
X32896Y230648D01*
Y221650D01*
X37780Y228506D02*
Y228934D01*
X38209Y229791D01*
X38637Y230220D01*
X39494Y230648D01*
X41208D01*
X42065Y230220D01*
X42494Y229791D01*
X42922Y228934D01*
Y228077D01*
X42494Y227220D01*
X41637Y225935D01*
X37352Y221650D01*
X43351D01*
X45793Y228506D02*
Y228934D01*
X46221Y229791D01*
X46650Y230220D01*
X47507Y230648D01*
X49221D01*
X50078Y230220D01*
X50506Y229791D01*
X50935Y228934D01*
Y228077D01*
X50506Y227220D01*
X49649Y225935D01*
X45364Y221650D01*
X51363D01*
X60447Y230648D02*
Y221650D01*
Y230648D02*
X63875Y221650D01*
X67303Y230648D02*
X63875Y221650D01*
X67303Y230648D02*
Y221650D01*
X69873Y230648D02*
Y221650D01*
X71759Y230648D02*
Y221650D01*
X76901D01*
X87955Y230648D02*
Y221650D01*
X84956Y230648D02*
X90955D01*
X94597D02*
X93740Y230220D01*
X92883Y229363D01*
X92454Y228506D01*
X92026Y227220D01*
Y225078D01*
X92454Y223792D01*
X92883Y222935D01*
X93740Y222078D01*
X94597Y221650D01*
X96311D01*
X97168Y222078D01*
X98025Y222935D01*
X98453Y223792D01*
X98882Y225078D01*
Y227220D01*
X98453Y228506D01*
X98025Y229363D01*
X97168Y230220D01*
X96311Y230648D01*
X94597D01*
X103552D02*
X102695Y230220D01*
X101838Y229363D01*
X101410Y228506D01*
X100981Y227220D01*
Y225078D01*
X101410Y223792D01*
X101838Y222935D01*
X102695Y222078D01*
X103552Y221650D01*
X105266D01*
X106123Y222078D01*
X106980Y222935D01*
X107408Y223792D01*
X107837Y225078D01*
Y227220D01*
X107408Y228506D01*
X106980Y229363D01*
X106123Y230220D01*
X105266Y230648D01*
X103552D01*
X109936D02*
Y221650D01*
X115078D01*
X116064Y230648D02*
Y221650D01*
X117949Y230648D02*
Y221650D01*
Y230648D02*
X123948Y221650D01*
Y230648D02*
Y221650D01*
X132860Y228506D02*
X132431Y229363D01*
X131574Y230220D01*
X130718Y230648D01*
X129004D01*
X128147Y230220D01*
X127290Y229363D01*
X126861Y228506D01*
X126433Y227220D01*
Y225078D01*
X126861Y223792D01*
X127290Y222935D01*
X128147Y222078D01*
X129004Y221650D01*
X130718D01*
X131574Y222078D01*
X132431Y222935D01*
X132860Y223792D01*
Y225078D01*
X130718D02*
X132860D01*
X141987Y230648D02*
Y221650D01*
X147985Y230648D02*
Y221650D01*
X141987Y226363D02*
X147985D01*
X153041Y230648D02*
X152184Y230220D01*
X151327Y229363D01*
X150899Y228506D01*
X150470Y227220D01*
Y225078D01*
X150899Y223792D01*
X151327Y222935D01*
X152184Y222078D01*
X153041Y221650D01*
X154755D01*
X155612Y222078D01*
X156469Y222935D01*
X156898Y223792D01*
X157326Y225078D01*
Y227220D01*
X156898Y228506D01*
X156469Y229363D01*
X155612Y230220D01*
X154755Y230648D01*
X153041D01*
X159426D02*
Y221650D01*
X164567D01*
X171123Y230648D02*
X165553D01*
Y221650D01*
X171123D01*
X165553Y226363D02*
X168981D01*
X178622Y229363D02*
X177765Y230220D01*
X176479Y230648D01*
X174765D01*
X173480Y230220D01*
X172623Y229363D01*
Y228506D01*
X173051Y227649D01*
X173480Y227220D01*
X174337Y226792D01*
X176908Y225935D01*
X177765Y225506D01*
X178193Y225078D01*
X178622Y224221D01*
Y222935D01*
X177765Y222078D01*
X176479Y221650D01*
X174765D01*
X173480Y222078D01*
X172623Y222935D01*
X193704Y229363D02*
X192847Y230220D01*
X191562Y230648D01*
X189848D01*
X188562Y230220D01*
X187705Y229363D01*
Y228506D01*
X188134Y227649D01*
X188562Y227220D01*
X189419Y226792D01*
X191990Y225935D01*
X192847Y225506D01*
X193276Y225078D01*
X193704Y224221D01*
Y222935D01*
X192847Y222078D01*
X191562Y221650D01*
X189848D01*
X188562Y222078D01*
X187705Y222935D01*
X195718Y230648D02*
Y221650D01*
X201717Y230648D02*
Y221650D01*
X195718Y226363D02*
X201717D01*
X211057Y221650D02*
X207630Y230648D01*
X204202Y221650D01*
X205487Y224649D02*
X209772D01*
X213157Y230648D02*
Y221650D01*
X218299D01*
X219284Y230648D02*
Y221650D01*
X224426D01*
X232482Y230648D02*
Y221650D01*
Y230648D02*
X236338D01*
X237623Y230220D01*
X238052Y229791D01*
X238480Y228934D01*
Y228077D01*
X238052Y227220D01*
X237623Y226792D01*
X236338Y226363D01*
X232482D02*
X236338D01*
X237623Y225935D01*
X238052Y225506D01*
X238480Y224649D01*
Y223364D01*
X238052Y222507D01*
X237623Y222078D01*
X236338Y221650D01*
X232482D01*
X246064Y230648D02*
X240494D01*
Y221650D01*
X246064D01*
X240494Y226363D02*
X243922D01*
X258490Y229363D02*
Y221650D01*
X254634Y225506D02*
X262347D01*
X265860Y230648D02*
X270573D01*
X268002Y227220D01*
X269288D01*
X270145Y226792D01*
X270573Y226363D01*
X271002Y225078D01*
Y224221D01*
X270573Y222935D01*
X269716Y222078D01*
X268431Y221650D01*
X267145D01*
X265860Y222078D01*
X265432Y222507D01*
X265003Y223364D01*
X273016Y225506D02*
X280728D01*
X285956Y230648D02*
X284670Y230220D01*
X283813Y228934D01*
X283385Y226792D01*
Y225506D01*
X283813Y223364D01*
X284670Y222078D01*
X285956Y221650D01*
X286813D01*
X288098Y222078D01*
X288955Y223364D01*
X289384Y225506D01*
Y226792D01*
X288955Y228934D01*
X288098Y230220D01*
X286813Y230648D01*
X285956D01*
X298467D02*
Y221650D01*
Y230648D02*
X301895Y221650D01*
X305323Y230648D02*
X301895Y221650D01*
X305323Y230648D02*
Y221650D01*
X307894Y230648D02*
Y221650D01*
X309779Y230648D02*
Y221650D01*
X314921D01*
X321905Y229363D02*
X321048Y230220D01*
X319763Y230648D01*
X318049D01*
X316763Y230220D01*
X315906Y229363D01*
Y228506D01*
X316335Y227649D01*
X316763Y227220D01*
X317620Y226792D01*
X320191Y225935D01*
X321048Y225506D01*
X321477Y225078D01*
X321905Y224221D01*
Y222935D01*
X321048Y222078D01*
X319763Y221650D01*
X318049D01*
X316763Y222078D01*
X315906Y222935D01*
X333988Y230648D02*
Y221650D01*
X330989Y230648D02*
X336988D01*
X340630D02*
X339773Y230220D01*
X338916Y229363D01*
X338487Y228506D01*
X338059Y227220D01*
Y225078D01*
X338487Y223792D01*
X338916Y222935D01*
X339773Y222078D01*
X340630Y221650D01*
X342344D01*
X343201Y222078D01*
X344057Y222935D01*
X344486Y223792D01*
X344915Y225078D01*
Y227220D01*
X344486Y228506D01*
X344057Y229363D01*
X343201Y230220D01*
X342344Y230648D01*
X340630D01*
X347014D02*
Y221650D01*
X352156D01*
X353570Y222507D02*
X353141Y222078D01*
X353570Y221650D01*
X353998Y222078D01*
X353570Y222507D01*
D44*
X118000Y81200D02*
X130800D01*
X118000D02*
Y99800D01*
X130800D01*
Y81200D02*
Y99800D01*
D49*
X176699Y124199D02*
X175700D01*
X176199D01*
Y121700D01*
X175700Y121200D01*
X175200D01*
X174700Y121700D01*
X179698Y121200D02*
X177699D01*
X179698Y123199D01*
Y123699D01*
X179199Y124199D01*
X178199D01*
X177699Y123699D01*
X120200Y79799D02*
Y76800D01*
Y79799D02*
X121200D01*
X121628Y79656D01*
X121914Y79371D01*
X122057Y79085D01*
X122200Y78657D01*
Y77943D01*
X122057Y77514D01*
X121914Y77228D01*
X121628Y76943D01*
X121200Y76800D01*
X120200D01*
X124870Y79371D02*
X124585Y79656D01*
X124156Y79799D01*
X123585D01*
X123156Y79656D01*
X122871Y79371D01*
Y79085D01*
X123014Y78800D01*
X123156Y78657D01*
X123442Y78514D01*
X124299Y78228D01*
X124585Y78085D01*
X124728Y77943D01*
X124870Y77657D01*
Y77228D01*
X124585Y76943D01*
X124156Y76800D01*
X123585D01*
X123156Y76943D01*
X122871Y77228D01*
X125684Y79085D02*
Y79228D01*
X125827Y79514D01*
X125970Y79656D01*
X126256Y79799D01*
X126827D01*
X127113Y79656D01*
X127256Y79514D01*
X127399Y79228D01*
Y78942D01*
X127256Y78657D01*
X126970Y78228D01*
X125542Y76800D01*
X127541D01*
X138500Y78499D02*
Y76357D01*
X138643Y75928D01*
X138928Y75643D01*
X139357Y75500D01*
X139643D01*
X140071Y75643D01*
X140357Y75928D01*
X140500Y76357D01*
Y78499D01*
X143327D02*
X141899Y75500D01*
X141328Y78499D02*
X143327D01*
X35900Y141599D02*
Y139457D01*
X36043Y139029D01*
X36329Y138743D01*
X36757Y138600D01*
X37043D01*
X37471Y138743D01*
X37757Y139029D01*
X37900Y139457D01*
Y141599D01*
X40442D02*
X39014D01*
X38871Y140314D01*
X39014Y140457D01*
X39442Y140600D01*
X39871D01*
X40299Y140457D01*
X40585Y140171D01*
X40727Y139743D01*
Y139457D01*
X40585Y139029D01*
X40299Y138743D01*
X39871Y138600D01*
X39442D01*
X39014Y138743D01*
X38871Y138886D01*
X38728Y139171D01*
X84071Y105330D02*
X86213D01*
X86642Y105473D01*
X86927Y105758D01*
X87070Y106187D01*
Y106472D01*
X86927Y106901D01*
X86642Y107186D01*
X86213Y107329D01*
X84071D01*
X84642Y108158D02*
X84499Y108443D01*
X84071Y108872D01*
X87070D01*
X23357Y42999D02*
X23071Y42856D01*
X22786Y42571D01*
X22643Y42285D01*
X22500Y41857D01*
Y41143D01*
X22643Y40714D01*
X22786Y40429D01*
X23071Y40143D01*
X23357Y40000D01*
X23928D01*
X24214Y40143D01*
X24500Y40429D01*
X24642Y40714D01*
X24785Y41143D01*
Y41857D01*
X24642Y42285D01*
X24500Y42571D01*
X24214Y42856D01*
X23928Y42999D01*
X23357D01*
X23785Y40571D02*
X24642Y39714D01*
X25485Y42428D02*
X25771Y42571D01*
X26199Y42999D01*
Y40000D01*
X85501Y94800D02*
X87643D01*
X88072Y94943D01*
X88357Y95228D01*
X88500Y95657D01*
Y95943D01*
X88357Y96371D01*
X88072Y96657D01*
X87643Y96800D01*
X85501D01*
X86215Y97771D02*
X86072D01*
X85786Y97914D01*
X85644Y98056D01*
X85501Y98342D01*
Y98913D01*
X85644Y99199D01*
X85786Y99342D01*
X86072Y99485D01*
X86358D01*
X86643Y99342D01*
X87072Y99056D01*
X88500Y97628D01*
Y99628D01*
X109501Y84600D02*
X111643D01*
X112072Y84743D01*
X112357Y85028D01*
X112500Y85457D01*
Y85743D01*
X112357Y86171D01*
X112072Y86457D01*
X111643Y86600D01*
X109501D01*
X109929Y89142D02*
X109643Y88999D01*
X109501Y88571D01*
Y88285D01*
X109643Y87856D01*
X110072Y87571D01*
X110786Y87428D01*
X111500D01*
X112072Y87571D01*
X112357Y87856D01*
X112500Y88285D01*
Y88428D01*
X112357Y88856D01*
X112072Y89142D01*
X111643Y89285D01*
X111500D01*
X111072Y89142D01*
X110786Y88856D01*
X110643Y88428D01*
Y88285D01*
X110786Y87856D01*
X111072Y87571D01*
X111500Y87428D01*
X149700Y106999D02*
Y104000D01*
Y106999D02*
X150700D01*
X151128Y106857D01*
X151414Y106571D01*
X151557Y106285D01*
X151700Y105857D01*
Y105143D01*
X151557Y104714D01*
X151414Y104429D01*
X151128Y104143D01*
X150700Y104000D01*
X149700D01*
X154370Y106571D02*
X154085Y106857D01*
X153656Y106999D01*
X153085D01*
X152656Y106857D01*
X152371Y106571D01*
Y106285D01*
X152514Y106000D01*
X152656Y105857D01*
X152942Y105714D01*
X153799Y105428D01*
X154085Y105285D01*
X154228Y105143D01*
X154370Y104857D01*
Y104429D01*
X154085Y104143D01*
X153656Y104000D01*
X153085D01*
X152656Y104143D01*
X152371Y104429D01*
X155042Y106428D02*
X155327Y106571D01*
X155756Y106999D01*
Y104000D01*
X125857Y51999D02*
X125571Y51856D01*
X125286Y51571D01*
X125143Y51285D01*
X125000Y50857D01*
Y50143D01*
X125143Y49714D01*
X125286Y49428D01*
X125571Y49143D01*
X125857Y49000D01*
X126428D01*
X126714Y49143D01*
X127000Y49428D01*
X127142Y49714D01*
X127285Y50143D01*
Y50857D01*
X127142Y51285D01*
X127000Y51571D01*
X126714Y51856D01*
X126428Y51999D01*
X125857D01*
X126285Y49571D02*
X127142Y48714D01*
X129413Y51999D02*
X127985Y50000D01*
X130128D01*
X129413Y51999D02*
Y49000D01*
X86000Y40499D02*
Y38357D01*
X86143Y37929D01*
X86428Y37643D01*
X86857Y37500D01*
X87143D01*
X87571Y37643D01*
X87857Y37929D01*
X88000Y38357D01*
Y40499D01*
X89114D02*
X90685D01*
X89828Y39357D01*
X90256D01*
X90542Y39214D01*
X90685Y39071D01*
X90828Y38643D01*
Y38357D01*
X90685Y37929D01*
X90399Y37643D01*
X89971Y37500D01*
X89542D01*
X89114Y37643D01*
X88971Y37786D01*
X88828Y38071D01*
X17742Y86285D02*
X17600Y86571D01*
X17314Y86857D01*
X17028Y86999D01*
X16457D01*
X16171Y86857D01*
X15886Y86571D01*
X15743Y86285D01*
X15600Y85857D01*
Y85143D01*
X15743Y84714D01*
X15886Y84429D01*
X16171Y84143D01*
X16457Y84000D01*
X17028D01*
X17314Y84143D01*
X17600Y84429D01*
X17742Y84714D01*
X18728Y86285D02*
Y86428D01*
X18871Y86714D01*
X19014Y86857D01*
X19299Y86999D01*
X19871D01*
X20156Y86857D01*
X20299Y86714D01*
X20442Y86428D01*
Y86142D01*
X20299Y85857D01*
X20013Y85428D01*
X18585Y84000D01*
X20585D01*
X21542Y86999D02*
X23113D01*
X22256Y85857D01*
X22684D01*
X22970Y85714D01*
X23113Y85571D01*
X23256Y85143D01*
Y84857D01*
X23113Y84429D01*
X22827Y84143D01*
X22399Y84000D01*
X21970D01*
X21542Y84143D01*
X21399Y84286D01*
X21256Y84571D01*
X-385Y77242D02*
X-671Y77100D01*
X-957Y76814D01*
X-1099Y76528D01*
Y75957D01*
X-957Y75671D01*
X-671Y75386D01*
X-385Y75243D01*
X43Y75100D01*
X757D01*
X1186Y75243D01*
X1472Y75386D01*
X1757Y75671D01*
X1900Y75957D01*
Y76528D01*
X1757Y76814D01*
X1472Y77100D01*
X1186Y77242D01*
X-385Y78228D02*
X-528D01*
X-814Y78371D01*
X-957Y78513D01*
X-1099Y78799D01*
Y79370D01*
X-957Y79656D01*
X-814Y79799D01*
X-528Y79942D01*
X-242D01*
X43Y79799D01*
X472Y79513D01*
X1900Y78085D01*
Y80085D01*
X-385Y80899D02*
X-528D01*
X-814Y81042D01*
X-957Y81184D01*
X-1099Y81470D01*
Y82041D01*
X-957Y82327D01*
X-814Y82470D01*
X-528Y82613D01*
X-242D01*
X43Y82470D01*
X472Y82184D01*
X1900Y80756D01*
Y82756D01*
X89700Y95399D02*
Y92400D01*
Y95399D02*
X90985D01*
X91414Y95257D01*
X91557Y95114D01*
X91700Y94828D01*
Y94542D01*
X91557Y94257D01*
X91414Y94114D01*
X90985Y93971D01*
X89700D01*
X90700D02*
X91700Y92400D01*
X92371Y94828D02*
X92656Y94971D01*
X93085Y95399D01*
Y92400D01*
X96427Y94400D02*
X96284Y93971D01*
X95999Y93685D01*
X95570Y93543D01*
X95427D01*
X94999Y93685D01*
X94713Y93971D01*
X94570Y94400D01*
Y94542D01*
X94713Y94971D01*
X94999Y95257D01*
X95427Y95399D01*
X95570D01*
X95999Y95257D01*
X96284Y94971D01*
X96427Y94400D01*
Y93685D01*
X96284Y92971D01*
X95999Y92543D01*
X95570Y92400D01*
X95284D01*
X94856Y92543D01*
X94713Y92829D01*
X96500Y69499D02*
Y66500D01*
Y69499D02*
X97785D01*
X98214Y69357D01*
X98357Y69214D01*
X98500Y68928D01*
Y68642D01*
X98357Y68357D01*
X98214Y68214D01*
X97785Y68071D01*
X96500D01*
X97500D02*
X98500Y66500D01*
X100885Y69499D02*
X99457D01*
X99314Y68214D01*
X99457Y68357D01*
X99885Y68500D01*
X100313D01*
X100742Y68357D01*
X101028Y68071D01*
X101170Y67643D01*
Y67357D01*
X101028Y66928D01*
X100742Y66643D01*
X100313Y66500D01*
X99885D01*
X99457Y66643D01*
X99314Y66786D01*
X99171Y67071D01*
X49500Y140499D02*
Y137500D01*
Y140499D02*
X50785D01*
X51214Y140357D01*
X51357Y140214D01*
X51500Y139928D01*
Y139642D01*
X51357Y139357D01*
X51214Y139214D01*
X50785Y139071D01*
X49500D01*
X50500D02*
X51500Y137500D01*
X53599Y140499D02*
X52171Y138500D01*
X54313D01*
X53599Y140499D02*
Y137500D01*
X73900Y143199D02*
Y140200D01*
Y143199D02*
X75185D01*
X75614Y143056D01*
X75757Y142914D01*
X75900Y142628D01*
Y142342D01*
X75757Y142057D01*
X75614Y141914D01*
X75185Y141771D01*
X73900D01*
X74900D02*
X75900Y140200D01*
X76856Y143199D02*
X78428D01*
X77571Y142057D01*
X77999D01*
X78285Y141914D01*
X78428Y141771D01*
X78570Y141343D01*
Y141057D01*
X78428Y140629D01*
X78142Y140343D01*
X77714Y140200D01*
X77285D01*
X76856Y140343D01*
X76714Y140486D01*
X76571Y140771D01*
X89900Y102999D02*
Y100000D01*
Y102999D02*
X91185D01*
X91614Y102857D01*
X91757Y102714D01*
X91900Y102428D01*
Y102142D01*
X91757Y101857D01*
X91614Y101714D01*
X91185Y101571D01*
X89900D01*
X90900D02*
X91900Y100000D01*
X92571Y102428D02*
X92857Y102571D01*
X93285Y102999D01*
Y100000D01*
X96484Y102999D02*
X95056D01*
X94913Y101714D01*
X95056Y101857D01*
X95485Y102000D01*
X95913D01*
X96342Y101857D01*
X96627Y101571D01*
X96770Y101143D01*
Y100857D01*
X96627Y100428D01*
X96342Y100143D01*
X95913Y100000D01*
X95485D01*
X95056Y100143D01*
X94913Y100286D01*
X94770Y100571D01*
X107801Y101800D02*
X110800D01*
X107801D02*
Y103085D01*
X107943Y103514D01*
X108086Y103657D01*
X108372Y103800D01*
X108658D01*
X108943Y103657D01*
X109086Y103514D01*
X109229Y103085D01*
Y101800D01*
Y102800D02*
X110800Y103800D01*
X108800Y106328D02*
X109229Y106185D01*
X109515Y105899D01*
X109657Y105471D01*
Y105328D01*
X109515Y104899D01*
X109229Y104614D01*
X108800Y104471D01*
X108658D01*
X108229Y104614D01*
X107943Y104899D01*
X107801Y105328D01*
Y105471D01*
X107943Y105899D01*
X108229Y106185D01*
X108800Y106328D01*
X109515D01*
X110229Y106185D01*
X110657Y105899D01*
X110800Y105471D01*
Y105185D01*
X110657Y104756D01*
X110371Y104614D01*
X121000Y137999D02*
Y135000D01*
Y137999D02*
X122285D01*
X122714Y137856D01*
X122857Y137714D01*
X123000Y137428D01*
Y137142D01*
X122857Y136857D01*
X122714Y136714D01*
X122285Y136571D01*
X121000D01*
X122000D02*
X123000Y135000D01*
X123814Y137285D02*
Y137428D01*
X123957Y137714D01*
X124099Y137856D01*
X124385Y137999D01*
X124956D01*
X125242Y137856D01*
X125385Y137714D01*
X125528Y137428D01*
Y137142D01*
X125385Y136857D01*
X125099Y136428D01*
X123671Y135000D01*
X125670D01*
X127056Y137999D02*
X126627Y137856D01*
X126485Y137571D01*
Y137285D01*
X126627Y137000D01*
X126913Y136857D01*
X127484Y136714D01*
X127913Y136571D01*
X128199Y136285D01*
X128341Y136000D01*
Y135571D01*
X128199Y135286D01*
X128056Y135143D01*
X127627Y135000D01*
X127056D01*
X126627Y135143D01*
X126485Y135286D01*
X126342Y135571D01*
Y136000D01*
X126485Y136285D01*
X126770Y136571D01*
X127199Y136714D01*
X127770Y136857D01*
X128056Y137000D01*
X128199Y137285D01*
Y137571D01*
X128056Y137856D01*
X127627Y137999D01*
X127056D01*
X42715Y36642D02*
X42429Y36500D01*
X42143Y36214D01*
X42001Y35928D01*
Y35357D01*
X42143Y35071D01*
X42429Y34786D01*
X42715Y34643D01*
X43143Y34500D01*
X43857D01*
X44286Y34643D01*
X44572Y34786D01*
X44857Y35071D01*
X45000Y35357D01*
Y35928D01*
X44857Y36214D01*
X44572Y36500D01*
X44286Y36642D01*
X42572Y37485D02*
X42429Y37771D01*
X42001Y38199D01*
X45000D01*
X42715Y39827D02*
X42572D01*
X42286Y39970D01*
X42143Y40113D01*
X42001Y40399D01*
Y40970D01*
X42143Y41256D01*
X42286Y41399D01*
X42572Y41541D01*
X42858D01*
X43143Y41399D01*
X43572Y41113D01*
X45000Y39685D01*
Y41684D01*
X96299Y132800D02*
X93300D01*
X96299D02*
Y131515D01*
X96157Y131086D01*
X96014Y130943D01*
X95728Y130800D01*
X95442D01*
X95157Y130943D01*
X95014Y131086D01*
X94871Y131515D01*
Y132800D01*
Y131800D02*
X93300Y130800D01*
X95585Y129986D02*
X95728D01*
X96014Y129843D01*
X96157Y129701D01*
X96299Y129415D01*
Y128844D01*
X96157Y128558D01*
X96014Y128415D01*
X95728Y128272D01*
X95442D01*
X95157Y128415D01*
X94728Y128701D01*
X93300Y130129D01*
Y128130D01*
X96299Y127173D02*
Y125601D01*
X95157Y126459D01*
Y126030D01*
X95014Y125744D01*
X94871Y125601D01*
X94443Y125459D01*
X94157D01*
X93729Y125601D01*
X93443Y125887D01*
X93300Y126316D01*
Y126744D01*
X93443Y127173D01*
X93586Y127315D01*
X93871Y127458D01*
X31000Y42999D02*
Y40000D01*
X32714D01*
X33185Y42285D02*
Y42428D01*
X33328Y42714D01*
X33471Y42856D01*
X33757Y42999D01*
X34328D01*
X34613Y42856D01*
X34756Y42714D01*
X34899Y42428D01*
Y42142D01*
X34756Y41857D01*
X34471Y41428D01*
X33042Y40000D01*
X35042D01*
X19357Y91499D02*
X19071Y91356D01*
X18786Y91071D01*
X18643Y90785D01*
X18500Y90357D01*
Y89643D01*
X18643Y89214D01*
X18786Y88929D01*
X19071Y88643D01*
X19357Y88500D01*
X19928D01*
X20214Y88643D01*
X20500Y88929D01*
X20642Y89214D01*
X20785Y89643D01*
Y90357D01*
X20642Y90785D01*
X20500Y91071D01*
X20214Y91356D01*
X19928Y91499D01*
X19357D01*
X19785Y89071D02*
X20642Y88214D01*
X21771Y91499D02*
X23342D01*
X22485Y90357D01*
X22913D01*
X23199Y90214D01*
X23342Y90071D01*
X23485Y89643D01*
Y89357D01*
X23342Y88929D01*
X23056Y88643D01*
X22628Y88500D01*
X22199D01*
X21771Y88643D01*
X21628Y88786D01*
X21485Y89071D01*
X68000Y41999D02*
Y39857D01*
X68143Y39428D01*
X68428Y39143D01*
X68857Y39000D01*
X69143D01*
X69571Y39143D01*
X69857Y39428D01*
X70000Y39857D01*
Y41999D01*
X72256D02*
X70828Y40000D01*
X72970D01*
X72256Y41999D02*
Y39000D01*
X50501Y37500D02*
X53500D01*
X50501D02*
Y38785D01*
X50643Y39214D01*
X50786Y39357D01*
X51072Y39500D01*
X51358D01*
X51643Y39357D01*
X51786Y39214D01*
X51929Y38785D01*
Y37500D01*
Y38500D02*
X53500Y39500D01*
X50929Y41885D02*
X50643Y41742D01*
X50501Y41313D01*
Y41028D01*
X50643Y40599D01*
X51072Y40314D01*
X51786Y40171D01*
X52500D01*
X53071Y40314D01*
X53357Y40599D01*
X53500Y41028D01*
Y41171D01*
X53357Y41599D01*
X53071Y41885D01*
X52643Y42028D01*
X52500D01*
X52072Y41885D01*
X51786Y41599D01*
X51643Y41171D01*
Y41028D01*
X51786Y40599D01*
X52072Y40314D01*
X52500Y40171D01*
X146501Y66500D02*
X149500D01*
X146501D02*
Y67785D01*
X146643Y68214D01*
X146786Y68357D01*
X147072Y68500D01*
X147358D01*
X147643Y68357D01*
X147786Y68214D01*
X147929Y67785D01*
Y66500D01*
Y67500D02*
X149500Y68500D01*
X147215Y69314D02*
X147072D01*
X146786Y69456D01*
X146643Y69599D01*
X146501Y69885D01*
Y70456D01*
X146643Y70742D01*
X146786Y70885D01*
X147072Y71028D01*
X147358D01*
X147643Y70885D01*
X148072Y70599D01*
X149500Y69171D01*
Y71170D01*
X147215Y71985D02*
X147072D01*
X146786Y72127D01*
X146643Y72270D01*
X146501Y72556D01*
Y73127D01*
X146643Y73413D01*
X146786Y73556D01*
X147072Y73699D01*
X147358D01*
X147643Y73556D01*
X148072Y73270D01*
X149500Y71842D01*
Y73841D01*
X-185Y89942D02*
X-471Y89800D01*
X-757Y89514D01*
X-899Y89228D01*
Y88657D01*
X-757Y88371D01*
X-471Y88086D01*
X-185Y87943D01*
X243Y87800D01*
X957D01*
X1386Y87943D01*
X1671Y88086D01*
X1957Y88371D01*
X2100Y88657D01*
Y89228D01*
X1957Y89514D01*
X1671Y89800D01*
X1386Y89942D01*
X-185Y90928D02*
X-328D01*
X-614Y91071D01*
X-757Y91214D01*
X-899Y91499D01*
Y92071D01*
X-757Y92356D01*
X-614Y92499D01*
X-328Y92642D01*
X-42D01*
X243Y92499D01*
X672Y92213D01*
X2100Y90785D01*
Y92785D01*
X-328Y93456D02*
X-471Y93742D01*
X-899Y94170D01*
X2100D01*
X15915Y40842D02*
X15629Y40700D01*
X15344Y40414D01*
X15201Y40128D01*
Y39557D01*
X15344Y39271D01*
X15629Y38986D01*
X15915Y38843D01*
X16343Y38700D01*
X17057D01*
X17486Y38843D01*
X17772Y38986D01*
X18057Y39271D01*
X18200Y39557D01*
Y40128D01*
X18057Y40414D01*
X17772Y40700D01*
X17486Y40842D01*
X15915Y41828D02*
X15772D01*
X15486Y41971D01*
X15344Y42114D01*
X15201Y42399D01*
Y42970D01*
X15344Y43256D01*
X15486Y43399D01*
X15772Y43542D01*
X16058D01*
X16343Y43399D01*
X16772Y43113D01*
X18200Y41685D01*
Y43685D01*
X95385Y118858D02*
X95671Y119000D01*
X95956Y119286D01*
X96099Y119572D01*
Y120143D01*
X95956Y120429D01*
X95671Y120714D01*
X95385Y120857D01*
X94957Y121000D01*
X94243D01*
X93814Y120857D01*
X93528Y120714D01*
X93243Y120429D01*
X93100Y120143D01*
Y119572D01*
X93243Y119286D01*
X93528Y119000D01*
X93814Y118858D01*
X95385Y117872D02*
X95528D01*
X95814Y117729D01*
X95956Y117586D01*
X96099Y117301D01*
Y116729D01*
X95956Y116444D01*
X95814Y116301D01*
X95528Y116158D01*
X95242D01*
X94957Y116301D01*
X94528Y116587D01*
X93100Y118015D01*
Y116015D01*
X96099Y113345D02*
X93100Y114773D01*
X96099Y115344D02*
Y113345D01*
X108815Y115942D02*
X108529Y115800D01*
X108244Y115514D01*
X108101Y115228D01*
Y114657D01*
X108244Y114371D01*
X108529Y114086D01*
X108815Y113943D01*
X109243Y113800D01*
X109957D01*
X110386Y113943D01*
X110671Y114086D01*
X110957Y114371D01*
X111100Y114657D01*
Y115228D01*
X110957Y115514D01*
X110671Y115800D01*
X110386Y115942D01*
X108101Y118213D02*
X110100Y116785D01*
Y118928D01*
X108101Y118213D02*
X111100D01*
X3115Y112042D02*
X2829Y111900D01*
X2544Y111614D01*
X2401Y111328D01*
Y110757D01*
X2544Y110471D01*
X2829Y110186D01*
X3115Y110043D01*
X3543Y109900D01*
X4257D01*
X4686Y110043D01*
X4972Y110186D01*
X5257Y110471D01*
X5400Y110757D01*
Y111328D01*
X5257Y111614D01*
X4972Y111900D01*
X4686Y112042D01*
X3400Y114742D02*
X3829Y114599D01*
X4115Y114313D01*
X4257Y113885D01*
Y113742D01*
X4115Y113314D01*
X3829Y113028D01*
X3400Y112885D01*
X3258D01*
X2829Y113028D01*
X2544Y113314D01*
X2401Y113742D01*
Y113885D01*
X2544Y114313D01*
X2829Y114599D01*
X3400Y114742D01*
X4115D01*
X4829Y114599D01*
X5257Y114313D01*
X5400Y113885D01*
Y113599D01*
X5257Y113171D01*
X4972Y113028D01*
X5615Y72142D02*
X5329Y72000D01*
X5043Y71714D01*
X4901Y71428D01*
Y70857D01*
X5043Y70571D01*
X5329Y70286D01*
X5615Y70143D01*
X6043Y70000D01*
X6757D01*
X7186Y70143D01*
X7472Y70286D01*
X7757Y70571D01*
X7900Y70857D01*
Y71428D01*
X7757Y71714D01*
X7472Y72000D01*
X7186Y72142D01*
X5329Y74699D02*
X5043Y74556D01*
X4901Y74128D01*
Y73842D01*
X5043Y73413D01*
X5472Y73128D01*
X6186Y72985D01*
X6900D01*
X7472Y73128D01*
X7757Y73413D01*
X7900Y73842D01*
Y73985D01*
X7757Y74413D01*
X7472Y74699D01*
X7043Y74842D01*
X6900D01*
X6472Y74699D01*
X6186Y74413D01*
X6043Y73985D01*
Y73842D01*
X6186Y73413D01*
X6472Y73128D01*
X6900Y72985D01*
X2501Y97300D02*
X5500D01*
X2501D02*
Y98585D01*
X2644Y99014D01*
X2786Y99157D01*
X3072Y99300D01*
X3358D01*
X3643Y99157D01*
X3786Y99014D01*
X3929Y98585D01*
Y97300D01*
Y98300D02*
X5500Y99300D01*
X3072Y99971D02*
X2929Y100257D01*
X2501Y100685D01*
X5500D01*
X2501Y102456D02*
Y104027D01*
X3643Y103170D01*
Y103599D01*
X3786Y103884D01*
X3929Y104027D01*
X4357Y104170D01*
X4643D01*
X5071Y104027D01*
X5357Y103742D01*
X5500Y103313D01*
Y102884D01*
X5357Y102456D01*
X5214Y102313D01*
X4929Y102170D01*
X16001Y115700D02*
X19000D01*
X16001D02*
Y116985D01*
X16143Y117414D01*
X16286Y117557D01*
X16572Y117700D01*
X16858D01*
X17143Y117557D01*
X17286Y117414D01*
X17429Y116985D01*
Y115700D01*
Y116700D02*
X19000Y117700D01*
X16572Y118371D02*
X16429Y118657D01*
X16001Y119085D01*
X19000D01*
X16715Y120713D02*
X16572D01*
X16286Y120856D01*
X16143Y120999D01*
X16001Y121284D01*
Y121856D01*
X16143Y122142D01*
X16286Y122284D01*
X16572Y122427D01*
X16858D01*
X17143Y122284D01*
X17572Y121999D01*
X19000Y120570D01*
Y122570D01*
X3701Y59700D02*
X6700D01*
Y61414D01*
X3701Y62028D02*
Y63599D01*
X4843Y62742D01*
Y63171D01*
X4986Y63456D01*
X5129Y63599D01*
X5557Y63742D01*
X5843D01*
X6272Y63599D01*
X6557Y63314D01*
X6700Y62885D01*
Y62457D01*
X6557Y62028D01*
X6414Y61885D01*
X6129Y61742D01*
X96715Y39242D02*
X96429Y39100D01*
X96144Y38814D01*
X96001Y38528D01*
Y37957D01*
X96144Y37671D01*
X96429Y37386D01*
X96715Y37243D01*
X97143Y37100D01*
X97857D01*
X98286Y37243D01*
X98571Y37386D01*
X98857Y37671D01*
X99000Y37957D01*
Y38528D01*
X98857Y38814D01*
X98571Y39100D01*
X98286Y39242D01*
X96572Y40085D02*
X96429Y40371D01*
X96001Y40799D01*
X99000D01*
X96001Y42999D02*
X96144Y42570D01*
X96429Y42427D01*
X96715D01*
X97000Y42570D01*
X97143Y42856D01*
X97286Y43427D01*
X97429Y43856D01*
X97715Y44141D01*
X98000Y44284D01*
X98429D01*
X98714Y44141D01*
X98857Y43999D01*
X99000Y43570D01*
Y42999D01*
X98857Y42570D01*
X98714Y42427D01*
X98429Y42285D01*
X98000D01*
X97715Y42427D01*
X97429Y42713D01*
X97286Y43142D01*
X97143Y43713D01*
X97000Y43999D01*
X96715Y44141D01*
X96429D01*
X96144Y43999D01*
X96001Y43570D01*
Y42999D01*
X138099Y109265D02*
X137956Y109551D01*
X137670Y109837D01*
X137384Y109979D01*
X136813D01*
X136527Y109837D01*
X136242Y109551D01*
X136099Y109265D01*
X135956Y108837D01*
Y108123D01*
X136099Y107694D01*
X136242Y107409D01*
X136527Y107123D01*
X136813Y106980D01*
X137384D01*
X137670Y107123D01*
X137956Y107409D01*
X138099Y107694D01*
X138941Y109408D02*
X139227Y109551D01*
X139655Y109979D01*
Y106980D01*
X179342Y54985D02*
X179200Y55271D01*
X178914Y55556D01*
X178628Y55699D01*
X178057D01*
X177771Y55556D01*
X177486Y55271D01*
X177343Y54985D01*
X177200Y54557D01*
Y53843D01*
X177343Y53414D01*
X177486Y53128D01*
X177771Y52843D01*
X178057Y52700D01*
X178628D01*
X178914Y52843D01*
X179200Y53128D01*
X179342Y53414D01*
X181899Y55699D02*
X180471D01*
X180328Y54414D01*
X180471Y54557D01*
X180899Y54700D01*
X181328D01*
X181756Y54557D01*
X182042Y54271D01*
X182185Y53843D01*
Y53557D01*
X182042Y53128D01*
X181756Y52843D01*
X181328Y52700D01*
X180899D01*
X180471Y52843D01*
X180328Y52986D01*
X180185Y53271D01*
X270000Y8571D02*
X269714Y8856D01*
X269285Y8999D01*
X268714D01*
X268286Y8856D01*
X268000Y8571D01*
Y8285D01*
X268143Y8000D01*
X268286Y7857D01*
X268571Y7714D01*
X269428Y7428D01*
X269714Y7285D01*
X269857Y7143D01*
X270000Y6857D01*
Y6429D01*
X269714Y6143D01*
X269285Y6000D01*
X268714D01*
X268286Y6143D01*
X268000Y6429D01*
X270671Y8999D02*
X271385Y6000D01*
X272099Y8999D02*
X271385Y6000D01*
X272099Y8999D02*
X272813Y6000D01*
X273527Y8999D02*
X272813Y6000D01*
X274127Y8428D02*
X274413Y8571D01*
X274841Y8999D01*
Y6000D01*
X157001Y108500D02*
X160000D01*
X157001D02*
Y109785D01*
X157143Y110214D01*
X157286Y110357D01*
X157572Y110500D01*
X157858D01*
X158143Y110357D01*
X158286Y110214D01*
X158429Y109785D01*
Y108500D01*
Y109500D02*
X160000Y110500D01*
X157715Y111314D02*
X157572D01*
X157286Y111457D01*
X157143Y111599D01*
X157001Y111885D01*
Y112456D01*
X157143Y112742D01*
X157286Y112885D01*
X157572Y113028D01*
X157858D01*
X158143Y112885D01*
X158572Y112599D01*
X160000Y111171D01*
Y113170D01*
X157001Y115556D02*
Y114127D01*
X158286Y113985D01*
X158143Y114127D01*
X158000Y114556D01*
Y114984D01*
X158143Y115413D01*
X158429Y115699D01*
X158857Y115841D01*
X159143D01*
X159572Y115699D01*
X159857Y115413D01*
X160000Y114984D01*
Y114556D01*
X159857Y114127D01*
X159714Y113985D01*
X159429Y113842D01*
X185429Y37000D02*
X185143Y36714D01*
X185001Y36285D01*
Y35714D01*
X185143Y35286D01*
X185429Y35000D01*
X185715D01*
X186000Y35143D01*
X186143Y35286D01*
X186286Y35571D01*
X186572Y36428D01*
X186715Y36714D01*
X186857Y36857D01*
X187143Y37000D01*
X187572D01*
X187857Y36714D01*
X188000Y36285D01*
Y35714D01*
X187857Y35286D01*
X187572Y35000D01*
X186572Y37671D02*
Y38956D01*
X186429Y39385D01*
X186286Y39528D01*
X186000Y39670D01*
X185572D01*
X185286Y39528D01*
X185143Y39385D01*
X185001Y38956D01*
Y37671D01*
X188000D01*
X185572Y40342D02*
X185429Y40627D01*
X185001Y41056D01*
X188000D01*
X185142Y119285D02*
X185000Y119571D01*
X184714Y119857D01*
X184428Y119999D01*
X183857D01*
X183571Y119857D01*
X183286Y119571D01*
X183143Y119285D01*
X183000Y118857D01*
Y118143D01*
X183143Y117714D01*
X183286Y117429D01*
X183571Y117143D01*
X183857Y117000D01*
X184428D01*
X184714Y117143D01*
X185000Y117429D01*
X185142Y117714D01*
X186128Y119285D02*
Y119428D01*
X186271Y119714D01*
X186414Y119857D01*
X186699Y119999D01*
X187270D01*
X187556Y119857D01*
X187699Y119714D01*
X187842Y119428D01*
Y119142D01*
X187699Y118857D01*
X187413Y118428D01*
X185985Y117000D01*
X187985D01*
X190370Y119999D02*
X188942D01*
X188799Y118714D01*
X188942Y118857D01*
X189370Y119000D01*
X189798D01*
X190227Y118857D01*
X190513Y118571D01*
X190656Y118143D01*
Y117857D01*
X190513Y117429D01*
X190227Y117143D01*
X189798Y117000D01*
X189370D01*
X188942Y117143D01*
X188799Y117286D01*
X188656Y117571D01*
X1557Y128899D02*
X-300D01*
Y125900D01*
X1557D01*
X-300Y127471D02*
X843D01*
X2342Y128899D02*
X3913D01*
X3056Y127757D01*
X3485D01*
X3771Y127614D01*
X3913Y127471D01*
X4056Y127043D01*
Y126757D01*
X3913Y126329D01*
X3628Y126043D01*
X3199Y125900D01*
X2771D01*
X2342Y126043D01*
X2200Y126186D01*
X2057Y126471D01*
X-43Y51699D02*
X-1900D01*
Y48700D01*
X-43D01*
X-1900Y50271D02*
X-757D01*
X599Y50985D02*
Y51128D01*
X742Y51414D01*
X885Y51556D01*
X1171Y51699D01*
X1742D01*
X2028Y51556D01*
X2171Y51414D01*
X2313Y51128D01*
Y50842D01*
X2171Y50557D01*
X1885Y50128D01*
X457Y48700D01*
X2456D01*
X118000Y44300D02*
X120999D01*
Y42801D01*
X120499Y42301D01*
X119500D01*
X119000Y42801D01*
Y44300D01*
Y43300D02*
X118000Y42301D01*
Y39302D02*
Y41301D01*
X119999Y39302D01*
X120499D01*
X120999Y39801D01*
Y40801D01*
X120499Y41301D01*
X118500Y38302D02*
X118000Y37802D01*
Y36802D01*
X118500Y36303D01*
X120499D01*
X120999Y36802D01*
Y37802D01*
X120499Y38302D01*
X119999D01*
X119500Y37802D01*
Y36303D01*
X171600Y48799D02*
Y45800D01*
X173599D01*
X176099D02*
Y48799D01*
X174599Y47300D01*
X176598D01*
X172699Y88899D02*
X172199Y89399D01*
X171200D01*
X170700Y88899D01*
Y88399D01*
X171200Y87900D01*
X172199D01*
X172699Y87400D01*
Y86900D01*
X172199Y86400D01*
X171200D01*
X170700Y86900D01*
X173699Y89399D02*
Y86400D01*
X174699Y87400D01*
X175698Y86400D01*
Y89399D01*
X178697Y86400D02*
X176698D01*
X178697Y88399D01*
Y88899D01*
X178198Y89399D01*
X177198D01*
X176698Y88899D01*
X269800Y156028D02*
X270086Y156171D01*
X270514Y156599D01*
Y153600D01*
X138214Y140999D02*
X136786D01*
X136643Y139714D01*
X136786Y139857D01*
X137214Y140000D01*
X137643D01*
X138071Y139857D01*
X138357Y139571D01*
X138500Y139143D01*
Y138857D01*
X138357Y138428D01*
X138071Y138143D01*
X137643Y138000D01*
X137214D01*
X136786Y138143D01*
X136643Y138286D01*
X136500Y138571D01*
X179000Y140428D02*
X179286Y140571D01*
X179714Y140999D01*
Y138000D01*
X115533Y164299D02*
Y160300D01*
X114200Y164299D02*
X116866D01*
X120389Y160300D02*
X118866Y164299D01*
X117342Y160300D01*
X117913Y161633D02*
X119818D01*
X124179Y163347D02*
X123988Y163728D01*
X123608Y164109D01*
X123227Y164299D01*
X122465D01*
X122084Y164109D01*
X121703Y163728D01*
X121513Y163347D01*
X121322Y162776D01*
Y161823D01*
X121513Y161252D01*
X121703Y160871D01*
X122084Y160490D01*
X122465Y160300D01*
X123227D01*
X123608Y160490D01*
X123988Y160871D01*
X124179Y161252D01*
Y161823D01*
X123227D02*
X124179D01*
X125093Y163537D02*
X125474Y163728D01*
X126045Y164299D01*
Y160300D01*
X129168Y164299D02*
X128597Y164109D01*
X128216Y163537D01*
X128026Y162585D01*
Y162014D01*
X128216Y161062D01*
X128597Y160490D01*
X129168Y160300D01*
X129549D01*
X130120Y160490D01*
X130501Y161062D01*
X130692Y162014D01*
Y162585D01*
X130501Y163537D01*
X130120Y164109D01*
X129549Y164299D01*
X129168D01*
X131587Y163537D02*
X131968Y163728D01*
X132539Y164299D01*
Y160300D01*
X137662Y164299D02*
Y160300D01*
Y164299D02*
X139376D01*
X139947Y164109D01*
X140137Y163918D01*
X140328Y163537D01*
Y163156D01*
X140137Y162776D01*
X139947Y162585D01*
X139376Y162395D01*
X137662D01*
X138995D02*
X140328Y160300D01*
X143698Y164299D02*
X141223D01*
Y160300D01*
X143698D01*
X141223Y162395D02*
X142746D01*
X144365Y164299D02*
X145888Y160300D01*
X147412Y164299D02*
X145888Y160300D01*
X151259Y163347D02*
Y163537D01*
X151449Y163918D01*
X151640Y164109D01*
X152021Y164299D01*
X152782D01*
X153163Y164109D01*
X153354Y163918D01*
X153544Y163537D01*
Y163156D01*
X153354Y162776D01*
X152973Y162204D01*
X151068Y160300D01*
X153734D01*
X154629Y163537D02*
X155010Y163728D01*
X155582Y164299D01*
Y160300D01*
X324199Y71156D02*
Y73155D01*
Y72155D01*
X318201D01*
X319201Y71156D01*
X324199Y76154D02*
X323199D01*
Y77154D01*
X324199D01*
Y76154D01*
X323199Y81153D02*
X324199Y82152D01*
Y84152D01*
X323199Y85151D01*
X319201D01*
X318201Y84152D01*
Y82152D01*
X319201Y81153D01*
X320200D01*
X321200Y82152D01*
Y85151D01*
X324199Y87151D02*
Y89150D01*
Y88150D01*
X318201D01*
X319201Y87151D01*
X318201Y96148D02*
Y92149D01*
X321200D01*
X320200Y94148D01*
Y95148D01*
X321200Y96148D01*
X323199D01*
X324199Y95148D01*
Y93149D01*
X323199Y92149D01*
X324199Y98147D02*
Y100146D01*
Y99147D01*
X320200D01*
Y98147D01*
X324199Y103146D02*
X320200D01*
Y106144D01*
X321200Y107144D01*
X324199D01*
X133906Y-12501D02*
X134906Y-11501D01*
X136905D01*
X137905Y-12501D01*
Y-13500D01*
X136905Y-14500D01*
X135905D01*
X136905D01*
X137905Y-15500D01*
Y-16499D01*
X136905Y-17499D01*
X134906D01*
X133906Y-16499D01*
X139904Y-17499D02*
Y-16499D01*
X140904D01*
Y-17499D01*
X139904D01*
X144902D02*
X146902D01*
X145902D01*
Y-11501D01*
X144902Y-12501D01*
X149901D02*
X150900Y-11501D01*
X152900D01*
X153900Y-12501D01*
Y-13500D01*
X152900Y-14500D01*
X153900Y-15500D01*
Y-16499D01*
X152900Y-17499D01*
X150900D01*
X149901Y-16499D01*
Y-15500D01*
X150900Y-14500D01*
X149901Y-13500D01*
Y-12501D01*
X150900Y-14500D02*
X152900D01*
X155899Y-12501D02*
X156898Y-11501D01*
X158898D01*
X159898Y-12501D01*
Y-16499D01*
X158898Y-17499D01*
X156898D01*
X155899Y-16499D01*
Y-12501D01*
X161897Y-17499D02*
X163896D01*
X162897D01*
Y-13500D01*
X161897D01*
X166895Y-17499D02*
Y-13500D01*
X169894D01*
X170894Y-14500D01*
Y-17499D01*
D50*
X27277Y-163168D02*
Y-168500D01*
X25500Y-163168D02*
X29055D01*
X32737Y-164945D02*
Y-168500D01*
Y-165707D02*
X32229Y-165199D01*
X31721Y-164945D01*
X30959D01*
X30451Y-165199D01*
X29943Y-165707D01*
X29690Y-166469D01*
Y-166976D01*
X29943Y-167738D01*
X30451Y-168246D01*
X30959Y-168500D01*
X31721D01*
X32229Y-168246D01*
X32737Y-167738D01*
X37205Y-164945D02*
Y-169008D01*
X36952Y-169770D01*
X36698Y-170024D01*
X36190Y-170277D01*
X35428D01*
X34920Y-170024D01*
X37205Y-165707D02*
X36698Y-165199D01*
X36190Y-164945D01*
X35428D01*
X34920Y-165199D01*
X34412Y-165707D01*
X34159Y-166469D01*
Y-166976D01*
X34412Y-167738D01*
X34920Y-168246D01*
X35428Y-168500D01*
X36190D01*
X36698Y-168246D01*
X37205Y-167738D01*
X38627Y-164183D02*
X39135Y-163929D01*
X39897Y-163168D01*
Y-168500D01*
X44061Y-163168D02*
X43299Y-163422D01*
X42792Y-164183D01*
X42538Y-165453D01*
Y-166215D01*
X42792Y-167484D01*
X43299Y-168246D01*
X44061Y-168500D01*
X44569D01*
X45331Y-168246D01*
X45839Y-167484D01*
X46093Y-166215D01*
Y-165453D01*
X45839Y-164183D01*
X45331Y-163422D01*
X44569Y-163168D01*
X44061D01*
X47286Y-164183D02*
X47794Y-163929D01*
X48555Y-163168D01*
Y-168500D01*
X55386Y-163168D02*
Y-168500D01*
Y-163168D02*
X57671D01*
X58433Y-163422D01*
X58687Y-163676D01*
X58941Y-164183D01*
Y-164691D01*
X58687Y-165199D01*
X58433Y-165453D01*
X57671Y-165707D01*
X55386D01*
X57163D02*
X58941Y-168500D01*
X60134Y-166469D02*
X63181D01*
Y-165961D01*
X62927Y-165453D01*
X62673Y-165199D01*
X62165Y-164945D01*
X61404D01*
X60896Y-165199D01*
X60388Y-165707D01*
X60134Y-166469D01*
Y-166976D01*
X60388Y-167738D01*
X60896Y-168246D01*
X61404Y-168500D01*
X62165D01*
X62673Y-168246D01*
X63181Y-167738D01*
X64324Y-164945D02*
X65847Y-168500D01*
X67371Y-164945D02*
X65847Y-168500D01*
X68488Y-164437D02*
Y-164183D01*
X68742Y-163676D01*
X68996Y-163422D01*
X69503Y-163168D01*
X70519D01*
X71027Y-163422D01*
X71281Y-163676D01*
X71535Y-164183D01*
Y-164691D01*
X71281Y-165199D01*
X70773Y-165961D01*
X68234Y-168500D01*
X71789D01*
X72982Y-164183D02*
X73490Y-163929D01*
X74252Y-163168D01*
Y-168500D01*
X76892Y-164945D02*
Y-168500D01*
Y-165961D02*
X77654Y-165199D01*
X78162Y-164945D01*
X78924D01*
X79432Y-165199D01*
X79685Y-165961D01*
Y-168500D01*
X81082Y-166469D02*
X84129D01*
Y-165961D01*
X83875Y-165453D01*
X83621Y-165199D01*
X83113Y-164945D01*
X82352D01*
X81844Y-165199D01*
X81336Y-165707D01*
X81082Y-166469D01*
Y-166976D01*
X81336Y-167738D01*
X81844Y-168246D01*
X82352Y-168500D01*
X83113D01*
X83621Y-168246D01*
X84129Y-167738D01*
X85272Y-164945D02*
X86287Y-168500D01*
X87303Y-164945D02*
X86287Y-168500D01*
X87303Y-164945D02*
X88319Y-168500D01*
X89334Y-164945D02*
X88319Y-168500D01*
X90832Y-167992D02*
X90578Y-168246D01*
X90832Y-168500D01*
X91086Y-168246D01*
X90832Y-167992D01*
X92254Y-165961D02*
X94539D01*
X95301Y-165707D01*
X95555Y-165453D01*
X95809Y-164945D01*
Y-164183D01*
X95555Y-163676D01*
X95301Y-163422D01*
X94539Y-163168D01*
X92254D01*
Y-168500D01*
X100811Y-164437D02*
X100557Y-163929D01*
X100049Y-163422D01*
X99542Y-163168D01*
X98526D01*
X98018Y-163422D01*
X97510Y-163929D01*
X97256Y-164437D01*
X97003Y-165199D01*
Y-166469D01*
X97256Y-167230D01*
X97510Y-167738D01*
X98018Y-168246D01*
X98526Y-168500D01*
X99542D01*
X100049Y-168246D01*
X100557Y-167738D01*
X100811Y-167230D01*
X102309Y-163168D02*
Y-168500D01*
Y-163168D02*
X104595D01*
X105356Y-163422D01*
X105610Y-163676D01*
X105864Y-164183D01*
Y-164691D01*
X105610Y-165199D01*
X105356Y-165453D01*
X104595Y-165707D01*
X102309D02*
X104595D01*
X105356Y-165961D01*
X105610Y-166215D01*
X105864Y-166723D01*
Y-167484D01*
X105610Y-167992D01*
X105356Y-168246D01*
X104595Y-168500D01*
X102309D01*
X349001Y-157655D02*
X348747Y-157147D01*
X348239Y-156639D01*
X347731Y-156386D01*
X346715D01*
X346208Y-156639D01*
X345700Y-157147D01*
X345446Y-157655D01*
X345192Y-158417D01*
Y-159686D01*
X345446Y-160448D01*
X345700Y-160956D01*
X346208Y-161464D01*
X346715Y-161718D01*
X347731D01*
X348239Y-161464D01*
X348747Y-160956D01*
X349001Y-160448D01*
Y-159686D01*
X347731D02*
X349001D01*
X353520Y-156386D02*
X350219D01*
Y-161718D01*
X353520D01*
X350219Y-158925D02*
X352251D01*
X354409Y-156386D02*
Y-161718D01*
Y-156386D02*
X356694D01*
X357456Y-156639D01*
X357710Y-156893D01*
X357964Y-157401D01*
Y-157909D01*
X357710Y-158417D01*
X357456Y-158671D01*
X356694Y-158925D01*
X354409D01*
X356187D02*
X357964Y-161718D01*
X359157Y-156386D02*
Y-161718D01*
Y-156386D02*
X361443D01*
X362204Y-156639D01*
X362458Y-156893D01*
X362712Y-157401D01*
Y-157909D01*
X362458Y-158417D01*
X362204Y-158671D01*
X361443Y-158925D01*
X359157D02*
X361443D01*
X362204Y-159178D01*
X362458Y-159432D01*
X362712Y-159940D01*
Y-160702D01*
X362458Y-161210D01*
X362204Y-161464D01*
X361443Y-161718D01*
X359157D01*
X367206Y-156386D02*
X363906D01*
Y-161718D01*
X367206D01*
X363906Y-158925D02*
X365937D01*
X368095Y-156386D02*
Y-161718D01*
Y-156386D02*
X370380D01*
X371142Y-156639D01*
X371396Y-156893D01*
X371650Y-157401D01*
Y-157909D01*
X371396Y-158417D01*
X371142Y-158671D01*
X370380Y-158925D01*
X368095D01*
X369873D02*
X371650Y-161718D01*
X373097Y-158163D02*
X372843Y-158417D01*
X373097Y-158671D01*
X373351Y-158417D01*
X373097Y-158163D01*
Y-161210D02*
X372843Y-161464D01*
X373097Y-161718D01*
X373351Y-161464D01*
X373097Y-161210D01*
X-20808Y-156386D02*
Y-161718D01*
Y-156386D02*
X-17507D01*
X-20808Y-158925D02*
X-18777D01*
X-16898Y-156386D02*
Y-161718D01*
X-15780Y-156386D02*
Y-161718D01*
X-12733D01*
X-8849Y-156386D02*
X-12150D01*
Y-161718D01*
X-8849D01*
X-12150Y-158925D02*
X-10118D01*
X-3770Y-156386D02*
Y-161718D01*
Y-156386D02*
X-216Y-161718D01*
Y-156386D02*
Y-161718D01*
X5320D02*
X3289Y-156386D01*
X1257Y-161718D01*
X2019Y-159940D02*
X4558D01*
X6564Y-156386D02*
Y-161718D01*
Y-156386D02*
X8595Y-161718D01*
X10627Y-156386D02*
X8595Y-161718D01*
X10627Y-156386D02*
Y-161718D01*
X15451Y-156386D02*
X12150D01*
Y-161718D01*
X15451D01*
X12150Y-158925D02*
X14182D01*
X16594Y-158163D02*
X16340Y-158417D01*
X16594Y-158671D01*
X16848Y-158417D01*
X16594Y-158163D01*
Y-161210D02*
X16340Y-161464D01*
X16594Y-161718D01*
X16848Y-161464D01*
X16594Y-161210D01*
X-20808Y-120386D02*
Y-125718D01*
Y-120386D02*
X-19031D01*
X-18269Y-120639D01*
X-17761Y-121147D01*
X-17507Y-121655D01*
X-17253Y-122417D01*
Y-123686D01*
X-17507Y-124448D01*
X-17761Y-124956D01*
X-18269Y-125464D01*
X-19031Y-125718D01*
X-20808D01*
X-16060Y-122163D02*
Y-125718D01*
Y-123686D02*
X-15806Y-122925D01*
X-15298Y-122417D01*
X-14790Y-122163D01*
X-14029D01*
X-10499D02*
Y-125718D01*
Y-122925D02*
X-11007Y-122417D01*
X-11515Y-122163D01*
X-12276D01*
X-12784Y-122417D01*
X-13292Y-122925D01*
X-13546Y-123686D01*
Y-124194D01*
X-13292Y-124956D01*
X-12784Y-125464D01*
X-12276Y-125718D01*
X-11515D01*
X-11007Y-125464D01*
X-10499Y-124956D01*
X-9077Y-122163D02*
X-8061Y-125718D01*
X-7046Y-122163D02*
X-8061Y-125718D01*
X-7046Y-122163D02*
X-6030Y-125718D01*
X-5015Y-122163D02*
X-6030Y-125718D01*
X-3770Y-122163D02*
Y-125718D01*
Y-123179D02*
X-3008Y-122417D01*
X-2501Y-122163D01*
X-1739D01*
X-1231Y-122417D01*
X-977Y-123179D01*
Y-125718D01*
X4609Y-120386D02*
Y-125718D01*
Y-122925D02*
X5117Y-122417D01*
X5625Y-122163D01*
X6386D01*
X6894Y-122417D01*
X7402Y-122925D01*
X7656Y-123686D01*
Y-124194D01*
X7402Y-124956D01*
X6894Y-125464D01*
X6386Y-125718D01*
X5625D01*
X5117Y-125464D01*
X4609Y-124956D01*
X9052Y-122163D02*
X10576Y-125718D01*
X12099Y-122163D02*
X10576Y-125718D01*
X10068Y-126733D01*
X9560Y-127241D01*
X9052Y-127495D01*
X8799D01*
X13242Y-122163D02*
X12988Y-122417D01*
X13242Y-122671D01*
X13496Y-122417D01*
X13242Y-122163D01*
Y-125210D02*
X12988Y-125464D01*
X13242Y-125718D01*
X13496Y-125464D01*
X13242Y-125210D01*
X69719Y-81135D02*
Y-86468D01*
X67942Y-81135D02*
X71497D01*
X72132D02*
Y-86468D01*
X75026Y-81135D02*
Y-86468D01*
X73249Y-81135D02*
X76804D01*
X77438D02*
Y-86468D01*
X80485D01*
X84370Y-81135D02*
X81069D01*
Y-86468D01*
X84370D01*
X81069Y-83675D02*
X83101D01*
X85513Y-82913D02*
X85259Y-83167D01*
X85513Y-83421D01*
X85767Y-83167D01*
X85513Y-82913D01*
Y-85960D02*
X85259Y-86214D01*
X85513Y-86468D01*
X85767Y-86214D01*
X85513Y-85960D01*
X69192Y-131429D02*
X71477D01*
X72239Y-131175D01*
X72493Y-130921D01*
X72747Y-130413D01*
Y-129651D01*
X72493Y-129143D01*
X72239Y-128889D01*
X71477Y-128636D01*
X69192D01*
Y-133968D01*
X78003D02*
X75972Y-128636D01*
X73940Y-133968D01*
X74702Y-132190D02*
X77241D01*
X79247Y-128636D02*
Y-133968D01*
Y-128636D02*
X81532D01*
X82294Y-128889D01*
X82548Y-129143D01*
X82802Y-129651D01*
Y-130159D01*
X82548Y-130667D01*
X82294Y-130921D01*
X81532Y-131175D01*
X79247D01*
X81024D02*
X82802Y-133968D01*
X85773Y-128636D02*
Y-133968D01*
X83995Y-128636D02*
X87550D01*
X92374D02*
Y-133968D01*
Y-128636D02*
X95929Y-133968D01*
Y-128636D02*
Y-133968D01*
X98926Y-128636D02*
X98418Y-128889D01*
X97910Y-129397D01*
X97656Y-129905D01*
X97402Y-130667D01*
Y-131936D01*
X97656Y-132698D01*
X97910Y-133206D01*
X98418Y-133714D01*
X98926Y-133968D01*
X99941D01*
X100449Y-133714D01*
X100957Y-133206D01*
X101211Y-132698D01*
X101465Y-131936D01*
Y-130667D01*
X101211Y-129905D01*
X100957Y-129397D01*
X100449Y-128889D01*
X99941Y-128636D01*
X98926D01*
X102963Y-133460D02*
X102709Y-133714D01*
X102963Y-133968D01*
X103217Y-133714D01*
X102963Y-133460D01*
X104639Y-130413D02*
X104385Y-130667D01*
X104639Y-130921D01*
X104893Y-130667D01*
X104639Y-130413D01*
Y-133460D02*
X104385Y-133714D01*
X104639Y-133968D01*
X104893Y-133714D01*
X104639Y-133460D01*
X-17507Y-82385D02*
X-20808D01*
Y-87718D01*
X-17507D01*
X-20808Y-84925D02*
X-18777D01*
X-16618Y-82385D02*
Y-87718D01*
Y-82385D02*
X-13064Y-87718D01*
Y-82385D02*
Y-87718D01*
X-7782Y-83655D02*
X-8036Y-83147D01*
X-8544Y-82639D01*
X-9052Y-82385D01*
X-10067D01*
X-10575Y-82639D01*
X-11083Y-83147D01*
X-11337Y-83655D01*
X-11591Y-84417D01*
Y-85686D01*
X-11337Y-86448D01*
X-11083Y-86956D01*
X-10575Y-87464D01*
X-10067Y-87718D01*
X-9052D01*
X-8544Y-87464D01*
X-8036Y-86956D01*
X-7782Y-86448D01*
Y-85686D01*
X-9052D02*
X-7782D01*
X-6563Y-82385D02*
Y-87718D01*
X-5446Y-82385D02*
Y-87718D01*
Y-82385D02*
X-1891Y-87718D01*
Y-82385D02*
Y-87718D01*
X2882Y-82385D02*
X-419D01*
Y-87718D01*
X2882D01*
X-419Y-84925D02*
X1613D01*
X7072Y-82385D02*
X3771D01*
Y-87718D01*
X7072D01*
X3771Y-84925D02*
X5802D01*
X7961Y-82385D02*
Y-87718D01*
Y-82385D02*
X10246D01*
X11008Y-82639D01*
X11261Y-82893D01*
X11515Y-83401D01*
Y-83909D01*
X11261Y-84417D01*
X11008Y-84671D01*
X10246Y-84925D01*
X7961D01*
X9738D02*
X11515Y-87718D01*
X12963Y-84163D02*
X12709Y-84417D01*
X12963Y-84671D01*
X13217Y-84417D01*
X12963Y-84163D01*
Y-87210D02*
X12709Y-87464D01*
X12963Y-87718D01*
X13217Y-87464D01*
X12963Y-87210D01*
X163192Y-156386D02*
Y-161718D01*
X166239D01*
X170886D02*
X168854Y-156386D01*
X166823Y-161718D01*
X167585Y-159940D02*
X170124D01*
X172130Y-156386D02*
X174161Y-158925D01*
Y-161718D01*
X176192Y-156386D02*
X174161Y-158925D01*
X180179Y-156386D02*
X176878D01*
Y-161718D01*
X180179D01*
X176878Y-158925D02*
X178909D01*
X181068Y-156386D02*
Y-161718D01*
Y-156386D02*
X183353D01*
X184115Y-156639D01*
X184369Y-156893D01*
X184622Y-157401D01*
Y-157909D01*
X184369Y-158417D01*
X184115Y-158671D01*
X183353Y-158925D01*
X181068D01*
X182845D02*
X184622Y-161718D01*
X186070Y-158163D02*
X185816Y-158417D01*
X186070Y-158671D01*
X186324Y-158417D01*
X186070Y-158163D01*
Y-161210D02*
X185816Y-161464D01*
X186070Y-161718D01*
X186324Y-161464D01*
X186070Y-161210D01*
X-20808Y-141428D02*
X-18523D01*
X-17761Y-141175D01*
X-17507Y-140921D01*
X-17253Y-140413D01*
Y-139651D01*
X-17507Y-139143D01*
X-17761Y-138889D01*
X-18523Y-138636D01*
X-20808D01*
Y-143968D01*
X-16060Y-138636D02*
Y-143968D01*
X-12505Y-138636D02*
Y-143968D01*
X-16060Y-141175D02*
X-12505D01*
X-9509Y-138636D02*
X-10017Y-138889D01*
X-10524Y-139397D01*
X-10778Y-139905D01*
X-11032Y-140667D01*
Y-141936D01*
X-10778Y-142698D01*
X-10524Y-143206D01*
X-10017Y-143714D01*
X-9509Y-143968D01*
X-8493D01*
X-7985Y-143714D01*
X-7478Y-143206D01*
X-7224Y-142698D01*
X-6970Y-141936D01*
Y-140667D01*
X-7224Y-139905D01*
X-7478Y-139397D01*
X-7985Y-138889D01*
X-8493Y-138636D01*
X-9509D01*
X-5725D02*
Y-143968D01*
Y-138636D02*
X-2171Y-143968D01*
Y-138636D02*
Y-143968D01*
X2603Y-138636D02*
X-698D01*
Y-143968D01*
X2603D01*
X-698Y-141175D02*
X1333D01*
X3746Y-140413D02*
X3492Y-140667D01*
X3746Y-140921D01*
X3999Y-140667D01*
X3746Y-140413D01*
Y-143460D02*
X3492Y-143714D01*
X3746Y-143968D01*
X3999Y-143714D01*
X3746Y-143460D01*
X-20808Y-103928D02*
X-18523D01*
X-17761Y-103675D01*
X-17507Y-103421D01*
X-17253Y-102913D01*
Y-102151D01*
X-17507Y-101643D01*
X-17761Y-101389D01*
X-18523Y-101136D01*
X-20808D01*
Y-106468D01*
X-16060Y-101136D02*
Y-106468D01*
X-12505Y-101136D02*
Y-106468D01*
X-16060Y-103675D02*
X-12505D01*
X-9509Y-101136D02*
X-10017Y-101389D01*
X-10524Y-101897D01*
X-10778Y-102405D01*
X-11032Y-103167D01*
Y-104436D01*
X-10778Y-105198D01*
X-10524Y-105706D01*
X-10017Y-106214D01*
X-9509Y-106468D01*
X-8493D01*
X-7985Y-106214D01*
X-7478Y-105706D01*
X-7224Y-105198D01*
X-6970Y-104436D01*
Y-103167D01*
X-7224Y-102405D01*
X-7478Y-101897D01*
X-7985Y-101389D01*
X-8493Y-101136D01*
X-9509D01*
X-5725D02*
Y-106468D01*
Y-101136D02*
X-2171Y-106468D01*
Y-101136D02*
Y-106468D01*
X2603Y-101136D02*
X-698D01*
Y-106468D01*
X2603D01*
X-698Y-103675D02*
X1333D01*
X3746Y-102913D02*
X3492Y-103167D01*
X3746Y-103421D01*
X3999Y-103167D01*
X3746Y-102913D01*
Y-105960D02*
X3492Y-106214D01*
X3746Y-106468D01*
X3999Y-106214D01*
X3746Y-105960D01*
X242942Y-128636D02*
Y-133968D01*
Y-128636D02*
X245227D01*
X245989Y-128889D01*
X246243Y-129143D01*
X246497Y-129651D01*
Y-130159D01*
X246243Y-130667D01*
X245989Y-130921D01*
X245227Y-131175D01*
X242942D01*
X244719D02*
X246497Y-133968D01*
X250991Y-128636D02*
X247690D01*
Y-133968D01*
X250991D01*
X247690Y-131175D02*
X249722D01*
X251880Y-128636D02*
X253911Y-133968D01*
X255943Y-128636D02*
X253911Y-133968D01*
X256882Y-130413D02*
X256628Y-130667D01*
X256882Y-130921D01*
X257136Y-130667D01*
X256882Y-130413D01*
Y-133460D02*
X256628Y-133714D01*
X256882Y-133968D01*
X257136Y-133714D01*
X256882Y-133460D01*
X289192Y-128636D02*
Y-133968D01*
Y-128636D02*
X290969D01*
X291731Y-128889D01*
X292239Y-129397D01*
X292493Y-129905D01*
X292747Y-130667D01*
Y-131936D01*
X292493Y-132698D01*
X292239Y-133206D01*
X291731Y-133714D01*
X290969Y-133968D01*
X289192D01*
X298003D02*
X295971Y-128636D01*
X293940Y-133968D01*
X294702Y-132190D02*
X297241D01*
X301024Y-128636D02*
Y-133968D01*
X299247Y-128636D02*
X302802D01*
X306737D02*
X303437D01*
Y-133968D01*
X306737D01*
X303437Y-131175D02*
X305468D01*
X307880Y-130413D02*
X307626Y-130667D01*
X307880Y-130921D01*
X308134Y-130667D01*
X307880Y-130413D01*
Y-133460D02*
X307626Y-133714D01*
X307880Y-133968D01*
X308134Y-133714D01*
X307880Y-133460D01*
D51*
X149199Y-93902D02*
Y-103500D01*
X146000Y-93902D02*
X152399D01*
X159026Y-97101D02*
Y-103500D01*
Y-98472D02*
X158112Y-97558D01*
X157198Y-97101D01*
X155826D01*
X154912Y-97558D01*
X153998Y-98472D01*
X153541Y-99844D01*
Y-100758D01*
X153998Y-102129D01*
X154912Y-103043D01*
X155826Y-103500D01*
X157198D01*
X158112Y-103043D01*
X159026Y-102129D01*
X167070Y-97101D02*
Y-104414D01*
X166613Y-105785D01*
X166156Y-106242D01*
X165242Y-106699D01*
X163871D01*
X162956Y-106242D01*
X167070Y-98472D02*
X166156Y-97558D01*
X165242Y-97101D01*
X163871D01*
X162956Y-97558D01*
X162042Y-98472D01*
X161585Y-99844D01*
Y-100758D01*
X162042Y-102129D01*
X162956Y-103043D01*
X163871Y-103500D01*
X165242D01*
X166156Y-103043D01*
X167070Y-102129D01*
X169629Y-95730D02*
X170543Y-95273D01*
X171914Y-93902D01*
Y-103500D01*
X179410Y-93902D02*
X178039Y-94359D01*
X177125Y-95730D01*
X176668Y-98015D01*
Y-99387D01*
X177125Y-101672D01*
X178039Y-103043D01*
X179410Y-103500D01*
X180324D01*
X181695Y-103043D01*
X182609Y-101672D01*
X183066Y-99387D01*
Y-98015D01*
X182609Y-95730D01*
X181695Y-94359D01*
X180324Y-93902D01*
X179410D01*
X185214Y-95730D02*
X186128Y-95273D01*
X187500Y-93902D01*
Y-103500D01*
X89505Y-67218D02*
X85848Y-57620D01*
X82192Y-67218D01*
X83563Y-64018D02*
X88134D01*
X97229Y-62190D02*
X96315Y-61276D01*
X95401Y-60819D01*
X94029D01*
X93115Y-61276D01*
X92201Y-62190D01*
X91744Y-63561D01*
Y-64475D01*
X92201Y-65847D01*
X93115Y-66761D01*
X94029Y-67218D01*
X95401D01*
X96315Y-66761D01*
X97229Y-65847D01*
X100656Y-57620D02*
Y-65390D01*
X101114Y-66761D01*
X102028Y-67218D01*
X102942D01*
X99285Y-60819D02*
X102485D01*
X105227Y-57620D02*
X105684Y-58077D01*
X106141Y-57620D01*
X105684Y-57163D01*
X105227Y-57620D01*
X105684Y-60819D02*
Y-67218D01*
X107832Y-60819D02*
X110574Y-67218D01*
X113317Y-60819D02*
X110574Y-67218D01*
X114871Y-63561D02*
X120355D01*
Y-62647D01*
X119898Y-61733D01*
X119441Y-61276D01*
X118527Y-60819D01*
X117156D01*
X116242Y-61276D01*
X115328Y-62190D01*
X114871Y-63561D01*
Y-64475D01*
X115328Y-65847D01*
X116242Y-66761D01*
X117156Y-67218D01*
X118527D01*
X119441Y-66761D01*
X120355Y-65847D01*
X129953Y-57620D02*
X132238Y-67218D01*
X134523Y-57620D02*
X132238Y-67218D01*
X134523Y-57620D02*
X136809Y-67218D01*
X139094Y-57620D02*
X136809Y-67218D01*
X146498Y-60819D02*
Y-67218D01*
Y-62190D02*
X145584Y-61276D01*
X144670Y-60819D01*
X143299D01*
X142385Y-61276D01*
X141471Y-62190D01*
X141014Y-63561D01*
Y-64475D01*
X141471Y-65847D01*
X142385Y-66761D01*
X143299Y-67218D01*
X144670D01*
X145584Y-66761D01*
X146498Y-65847D01*
X149058Y-60819D02*
X151800Y-67218D01*
X154542Y-60819D02*
X151800Y-67218D01*
X156096Y-63561D02*
X161581D01*
Y-62647D01*
X161124Y-61733D01*
X160667Y-61276D01*
X159752Y-60819D01*
X158381D01*
X157467Y-61276D01*
X156553Y-62190D01*
X156096Y-63561D01*
Y-64475D01*
X156553Y-65847D01*
X157467Y-66761D01*
X158381Y-67218D01*
X159752D01*
X160667Y-66761D01*
X161581Y-65847D01*
X260696Y-137405D02*
Y-137151D01*
X260950Y-136643D01*
X261204Y-136389D01*
X261712Y-136135D01*
X262727D01*
X263235Y-136389D01*
X263489Y-136643D01*
X263743Y-137151D01*
Y-137659D01*
X263489Y-138167D01*
X262981Y-138928D01*
X260442Y-141468D01*
X263997D01*
X265190Y-137151D02*
X265698Y-136897D01*
X266460Y-136135D01*
Y-141468D01*
X331939Y-133931D02*
X331177Y-134185D01*
X330923Y-134693D01*
Y-135201D01*
X331177Y-135709D01*
X331685Y-135963D01*
X332700Y-136217D01*
X333462Y-136470D01*
X333970Y-136978D01*
X334224Y-137486D01*
Y-138248D01*
X333970Y-138756D01*
X333716Y-139010D01*
X332954Y-139264D01*
X331939D01*
X331177Y-139010D01*
X330923Y-138756D01*
X330669Y-138248D01*
Y-137486D01*
X330923Y-136978D01*
X331431Y-136470D01*
X332193Y-136217D01*
X333208Y-135963D01*
X333716Y-135709D01*
X333970Y-135201D01*
Y-134693D01*
X333716Y-134185D01*
X332954Y-133931D01*
X331939D01*
X335417Y-140025D02*
X338972Y-133931D01*
X342375Y-134693D02*
X342121Y-134185D01*
X341359Y-133931D01*
X340851D01*
X340089Y-134185D01*
X339582Y-134947D01*
X339328Y-136217D01*
Y-137486D01*
X339582Y-138502D01*
X340089Y-139010D01*
X340851Y-139264D01*
X341105D01*
X341867Y-139010D01*
X342375Y-138502D01*
X342629Y-137740D01*
Y-137486D01*
X342375Y-136724D01*
X341867Y-136217D01*
X341105Y-135963D01*
X340851D01*
X340089Y-136217D01*
X339582Y-136724D01*
X339328Y-137486D01*
X343797Y-140025D02*
X347352Y-133931D01*
X347961Y-135201D02*
Y-134947D01*
X348215Y-134439D01*
X348469Y-134185D01*
X348976Y-133931D01*
X349992D01*
X350500Y-134185D01*
X350754Y-134439D01*
X351008Y-134947D01*
Y-135455D01*
X350754Y-135963D01*
X350246Y-136724D01*
X347707Y-139264D01*
X351262D01*
X353979Y-133931D02*
X353217Y-134185D01*
X352709Y-134947D01*
X352455Y-136217D01*
Y-136978D01*
X352709Y-138248D01*
X353217Y-139010D01*
X353979Y-139264D01*
X354486D01*
X355248Y-139010D01*
X355756Y-138248D01*
X356010Y-136978D01*
Y-136217D01*
X355756Y-134947D01*
X355248Y-134185D01*
X354486Y-133931D01*
X353979D01*
X357203Y-134947D02*
X357711Y-134693D01*
X358473Y-133931D01*
Y-139264D01*
X361622Y-133931D02*
X364415D01*
X362891Y-135963D01*
X363653D01*
X364161Y-136217D01*
X364415Y-136470D01*
X364669Y-137232D01*
Y-137740D01*
X364415Y-138502D01*
X363907Y-139010D01*
X363145Y-139264D01*
X362383D01*
X361622Y-139010D01*
X361368Y-138756D01*
X361114Y-138248D01*
D62*
X144900Y36700D02*
Y41400D01*
Y43200D01*
X141900D02*
X144900D01*
X141900D02*
Y47700D01*
X129400D02*
X141900D01*
X129400Y32200D02*
Y47700D01*
Y32200D02*
X141900D01*
Y36700D01*
X144900D01*
X26100Y67600D02*
X29100D01*
Y79600D01*
X23100D02*
X29100D01*
X23100Y67600D02*
Y79600D01*
Y67600D02*
X26100D01*
X12500Y66500D02*
X15500D01*
Y78500D01*
X9500D02*
X15500D01*
X9500Y66500D02*
Y78500D01*
Y66500D02*
X12500D01*
X56600Y92600D02*
X59600D01*
X56600Y80600D02*
Y92600D01*
Y80600D02*
X62600D01*
Y92600D01*
X59600D02*
X62600D01*
X38600Y93800D02*
X41600D01*
X38600Y81800D02*
Y93800D01*
Y81800D02*
X44600D01*
Y93800D01*
X41600D02*
X44600D01*
X23109Y94823D02*
X28228D01*
X21141Y96791D02*
Y105059D01*
X30196Y96791D02*
Y105059D01*
X23109Y94823D02*
Y96791D01*
X21141D02*
X23109D01*
X28228Y94823D02*
Y96791D01*
X30196D01*
X29999Y105059D02*
X30196D01*
X21141D02*
X29999D01*
X3400Y85500D02*
Y88500D01*
X15400D01*
Y82500D02*
Y88500D01*
X3400Y82500D02*
X15400D01*
X3400D02*
Y85500D01*
Y80500D02*
Y83500D01*
X15400D01*
Y77500D02*
Y83500D01*
X3400Y77500D02*
X15400D01*
X3400D02*
Y80500D01*
X85000Y81500D02*
Y84500D01*
X97000D01*
Y78500D02*
Y84500D01*
X85000Y78500D02*
X97000D01*
X85000D02*
Y81500D01*
Y88500D02*
Y91500D01*
X97000D01*
Y85500D02*
Y91500D01*
X85000Y85500D02*
X97000D01*
X85000D02*
Y88500D01*
X56500Y82000D02*
Y85000D01*
X44500Y82000D02*
X56500D01*
X44500D02*
Y88000D01*
X56500D01*
Y85000D02*
Y88000D01*
X15600Y68100D02*
X18600D01*
X15600D02*
Y80100D01*
X21600D01*
Y68100D02*
Y80100D01*
X18600Y68100D02*
X21600D01*
X25100Y128100D02*
Y131100D01*
X37100D01*
Y125100D02*
Y131100D01*
X25100Y125100D02*
X37100D01*
X25100D02*
Y128100D01*
X15500Y56100D02*
X18500D01*
X15500D02*
Y68100D01*
X21500D01*
Y56100D02*
Y68100D01*
X18500Y56100D02*
X21500D01*
X30000Y57100D02*
X33000D01*
X30000D02*
Y69100D01*
X36000D01*
Y57100D02*
Y69100D01*
X33000Y57100D02*
X36000D01*
X100000Y70500D02*
Y73500D01*
X88000Y70500D02*
X100000D01*
X88000D02*
Y76500D01*
X100000D01*
Y73500D02*
Y76500D01*
X55000Y136000D02*
Y139000D01*
X67000D01*
Y133000D02*
Y139000D01*
X55000Y133000D02*
X67000D01*
X55000D02*
Y136000D01*
X69100Y136100D02*
Y139100D01*
X81100D01*
Y133100D02*
Y139100D01*
X69100Y133100D02*
X81100D01*
X69100D02*
Y136100D01*
X100600Y104100D02*
Y107100D01*
X88600Y104100D02*
X100600D01*
X88600D02*
Y110100D01*
X100600D01*
Y107100D02*
Y110100D01*
X117000Y131000D02*
Y134000D01*
X129000D01*
Y128000D02*
Y134000D01*
X117000Y128000D02*
X129000D01*
X117000D02*
Y131000D01*
X15000Y108800D02*
Y111800D01*
X27000D01*
Y105800D02*
Y111800D01*
X15000Y105800D02*
X27000D01*
X15000D02*
Y108800D01*
X40041Y43659D02*
X43041D01*
X40041D02*
Y55659D01*
X46041D01*
Y43659D02*
Y55659D01*
X43041Y43659D02*
X46041D01*
X86000Y123500D02*
X89000D01*
X86000D02*
Y135500D01*
X92000D01*
Y123500D02*
Y135500D01*
X89000Y123500D02*
X92000D01*
X39041Y44659D02*
Y47659D01*
X27041Y44659D02*
X39041D01*
X27041D02*
Y50659D01*
X39041D01*
Y47659D02*
Y50659D01*
X74500Y82500D02*
Y85500D01*
X62500Y82500D02*
X74500D01*
X62500D02*
Y88500D01*
X74500D01*
Y85500D02*
Y88500D01*
X49041Y43659D02*
X52041D01*
X49041D02*
Y55659D01*
X55041D01*
Y43659D02*
Y55659D01*
X52041Y43659D02*
X55041D01*
X3400Y90400D02*
Y93400D01*
X15400D01*
Y87400D02*
Y93400D01*
X3400Y87400D02*
X15400D01*
X3400D02*
Y90400D01*
X14100Y45100D02*
X17100D01*
X14100D02*
Y57100D01*
X20100D01*
Y45100D02*
Y57100D01*
X17100Y45100D02*
X20100D01*
X74500Y77500D02*
Y80500D01*
X62500Y77500D02*
X74500D01*
X62500D02*
Y83500D01*
X74500D01*
Y80500D02*
Y83500D01*
X86000Y111000D02*
X89000D01*
X86000D02*
Y123000D01*
X92000D01*
Y111000D02*
Y123000D01*
X89000Y111000D02*
X92000D01*
X25200Y108500D02*
Y111500D01*
X37200D01*
Y105500D02*
Y111500D01*
X25200Y105500D02*
X37200D01*
X25200D02*
Y108500D01*
X26900Y53400D02*
Y56400D01*
X38900D01*
Y50400D02*
Y56400D01*
X26900Y50400D02*
X38900D01*
X26900D02*
Y53400D01*
X37200Y111500D02*
Y114500D01*
X25200Y111500D02*
X37200D01*
X25200D02*
Y117500D01*
X37200D01*
Y114500D02*
Y117500D01*
X19900Y111700D02*
X22900D01*
X19900D02*
Y123700D01*
X25900D01*
Y111700D02*
Y123700D01*
X22900Y111700D02*
X25900D01*
X37200Y117300D02*
Y120300D01*
X25200Y117300D02*
X37200D01*
X25200D02*
Y123300D01*
X37200D01*
Y120300D02*
Y123300D01*
X31200Y94500D02*
X34200D01*
X31200D02*
Y106500D01*
X37200D01*
Y94500D02*
Y106500D01*
X34200Y94500D02*
X37200D01*
X24900Y125100D02*
Y128100D01*
X12900Y125100D02*
X24900D01*
X12900D02*
Y131100D01*
X24900D01*
Y128100D02*
Y131100D01*
X93087Y46300D02*
X96087D01*
X93087D02*
Y58300D01*
X99087D01*
Y46300D02*
Y58300D01*
X96087Y46300D02*
X99087D01*
X44600Y90600D02*
Y93600D01*
X56600D01*
Y87600D02*
Y93600D01*
X44600Y87600D02*
X56600D01*
X44600D02*
Y90600D01*
X187000Y57000D02*
Y60000D01*
X175000Y57000D02*
X187000D01*
X175000D02*
Y63000D01*
X187000D01*
Y60000D02*
Y63000D01*
X38600Y108600D02*
Y111600D01*
X50600D01*
Y105600D02*
Y111600D01*
X38600Y105600D02*
X50600D01*
X38600D02*
Y108600D01*
X164000Y115500D02*
X167000D01*
Y103500D02*
Y115500D01*
X161000Y103500D02*
X167000D01*
X161000D02*
Y115500D01*
X164000D01*
X183500Y103500D02*
X186500D01*
X183500D02*
Y115500D01*
X189500D01*
Y103500D02*
Y115500D01*
X186500Y103500D02*
X189500D01*
X38600Y93600D02*
X41600D01*
X38600D02*
Y105600D01*
X44600D01*
Y93600D02*
Y105600D01*
X41600Y93600D02*
X44600D01*
X141500Y98000D02*
X144500D01*
X141500D02*
Y110000D01*
X147500D01*
Y98000D02*
Y110000D01*
X144500Y98000D02*
X147500D01*
X33100Y79600D02*
X36100D01*
Y67600D02*
Y79600D01*
X30100Y67600D02*
X36100D01*
X30100D02*
Y79600D01*
X33100D01*
X11100Y67694D02*
X14100D01*
Y55694D02*
Y67694D01*
X8100Y55694D02*
X14100D01*
X8100D02*
Y67694D01*
X11100D01*
X9900Y106200D02*
X12900D01*
Y94200D02*
Y106200D01*
X6900Y94200D02*
X12900D01*
X6900D02*
Y106200D01*
X9900D01*
Y118200D02*
X12900D01*
Y106200D02*
Y118200D01*
X6900Y106200D02*
X12900D01*
X6900D02*
Y118200D01*
X9900D01*
X103500Y123600D02*
X106500D01*
Y111600D02*
Y123600D01*
X100500Y111600D02*
X106500D01*
X100500D02*
Y123600D01*
X103500D01*
X12900Y94200D02*
X15900D01*
X12900D02*
Y106200D01*
X18900D01*
Y94200D02*
Y106200D01*
X15900Y94200D02*
X18900D01*
X154000Y77000D02*
X157000D01*
Y65000D02*
Y77000D01*
X151000Y65000D02*
X157000D01*
X151000D02*
Y77000D01*
X154000D01*
X47600Y105600D02*
X50600D01*
Y93600D02*
Y105600D01*
X44600Y93600D02*
X50600D01*
X44600D02*
Y105600D01*
X47600D01*
X100600Y98100D02*
X103600D01*
X100600D02*
Y110100D01*
X106600D01*
Y98100D02*
Y110100D01*
X103600Y98100D02*
X106600D01*
X26100Y68500D02*
X29100D01*
Y56500D02*
Y68500D01*
X23100Y56500D02*
X29100D01*
X23100D02*
Y68500D01*
X26100D01*
X63000Y88500D02*
X74000D01*
X63000D02*
Y93500D01*
X74000D01*
Y88500D02*
Y93500D01*
X287500Y11500D02*
Y40000D01*
X271000Y11500D02*
X287500D01*
Y40000D02*
Y68500D01*
X271000D02*
X287500D01*
X254500Y40000D02*
Y68500D01*
X271000D01*
X254500Y11500D02*
Y40000D01*
Y11500D02*
X271000D01*
X58800Y43500D02*
Y57546D01*
Y62954D02*
Y77500D01*
Y43500D02*
X81800D01*
Y77500D01*
X58800D02*
X81800D01*
X28600Y78800D02*
Y81800D01*
X24100D02*
X28600D01*
X24100D02*
Y94300D01*
X39600D01*
Y81800D02*
Y94300D01*
X35100Y81800D02*
X39600D01*
X35100Y78800D02*
Y81800D01*
X33300Y78800D02*
X35100D01*
X28600D02*
X33300D01*
X94446Y59298D02*
Y69337D01*
Y41778D02*
Y51817D01*
X83620Y41778D02*
X94446D01*
X80076Y69337D02*
X90903D01*
X80076Y50046D02*
Y69337D01*
X90903D02*
X94446D01*
X80076Y41778D02*
X83620D01*
X80076D02*
Y50046D01*
X149684Y80857D02*
X158345Y80857D01*
X149684Y100542D02*
X158345D01*
Y80857D02*
Y100542D01*
X149684Y80857D02*
Y100542D01*
X158345D02*
Y102511D01*
X149684D02*
X158345D01*
X149684Y100542D02*
Y102511D01*
X19541Y55859D02*
X28399D01*
X28596D01*
X26628Y47591D02*
X28596D01*
X26628Y45623D02*
Y47591D01*
X19541D02*
X21509D01*
Y45623D02*
Y47591D01*
X28596D02*
Y55859D01*
X19541Y47591D02*
Y55859D01*
X21509Y45623D02*
X26628D01*
X51930Y133061D02*
X82639D01*
X51930Y93561D02*
Y101435D01*
Y132931D01*
X82639Y100253D02*
Y108521D01*
Y117970D02*
Y133061D01*
Y93561D02*
Y100253D01*
X51930Y93561D02*
X82639D01*
X37600Y115100D02*
X48600D01*
X37600D02*
Y133100D01*
X52100D01*
Y115100D02*
Y133100D01*
X48600Y115100D02*
X52100D01*
X137560Y81051D02*
X142260D01*
X137560D02*
Y84051D01*
X133060D02*
X137560D01*
X133060D02*
Y98000D01*
X148560D01*
Y84051D02*
Y98000D01*
X144060Y84051D02*
X148560D01*
X144060Y81051D02*
Y84051D01*
X142260Y81051D02*
X144060D01*
X122500Y46000D02*
X127500D01*
X122500Y35000D02*
Y46000D01*
Y35000D02*
X127500D01*
Y46000D01*
X97300Y78650D02*
Y86100D01*
Y78650D02*
X102600D01*
X107900D02*
Y86100D01*
X102600Y78650D02*
X107900D01*
Y86100D02*
Y93550D01*
X102600D02*
X107900D01*
X97300Y86100D02*
Y93550D01*
X102600D01*
X74600D02*
X79900D01*
X74600Y86100D02*
Y93550D01*
X79900D02*
X85200D01*
Y86100D02*
Y93550D01*
X79900Y78650D02*
X85200D01*
Y86100D01*
X74600Y78650D02*
X79900D01*
X74600D02*
Y86100D01*
D63*
X234498Y84199D02*
Y80200D01*
Y84199D02*
X236212D01*
X236784Y84009D01*
X236974Y83818D01*
X237164Y83437D01*
Y83056D01*
X236974Y82676D01*
X236784Y82485D01*
X236212Y82295D01*
X234498D02*
X236212D01*
X236784Y82104D01*
X236974Y81914D01*
X237164Y81533D01*
Y80962D01*
X236974Y80581D01*
X236784Y80390D01*
X236212Y80200D01*
X234498D01*
X238059Y83437D02*
X238440Y83628D01*
X239012Y84199D01*
Y80200D01*
M02*
