M48
;Layer_Color=9474304
;FILE_FORMAT=2:5
INCH,LZ
;TYPE=PLATED
T1F00S00C0.02800
T2F00S00C0.03300
T3F00S00C0.03500
T4F00S00C0.04300
T5F00S00C0.04800
T6F00S00C0.06200
T7F00S00C0.06300
T8F00S00C0.07000
T9F00S00C0.07100
T10F00S00C0.07800
;TYPE=NON_PLATED
T11F00S00C0.12000
T12F00S00C0.23800
%
T01
X09379Y002
Y00375
Y0055
Y00725
X09879
Y0055
Y00375
Y002
X08879
Y00375
Y0055
Y00725
X08379
Y0055
Y00375
Y002
X07879Y00725
X07379
Y00375
Y002
X06879Y00725
X06379
Y00375
X05879
Y002
X05379
Y00375
Y0055
X05199Y00425
X04879Y00375
Y002
Y0055
Y00725
X04499Y0065
X04379Y0055
X04249Y0065
X03879Y002
X03379
X02879
X02874Y00375
X02879Y0055
Y00725
X02379
Y0055
Y00375
Y002
X01879
Y00375
Y0055
Y00725
X01379
Y0055
Y00375
Y002
X00879
Y00375
Y0055
Y00725
X00379
Y0055
Y00375
Y009
X00629Y01122
X00909Y01172
X00954Y01312
Y01532
Y01812
Y02032
Y02312
X00629Y02112
X00559
Y02027
X00629
X00399Y01962
Y01852
Y01462
Y01352
X00559Y01527
X00629
Y01612
X00559
X00879Y009
X01379
X01879
X019865Y01172
X020315Y01312
Y01532
Y01812
Y02032
Y02312
X017065Y02112
X016365
Y02027
X017065
X014765Y01962
Y01852
X01359Y02032
Y01532
X014765Y01462
Y01352
X016365Y01527
X017065
Y01612
X016365
X017065Y01122
X02379Y009
X02554Y01352
Y01462
X024365Y01532
X02714Y01527
Y01612
X02554Y01852
Y01962
X024365Y02032
X02714Y02027
Y02112
X02784
Y02027
X03109Y02032
Y01812
Y01532
Y01312
X03064Y01172
X02784Y01122
X02879Y009
X03379
X03879
X038615Y01122
X041415Y01172
X041865Y01312
Y01532
Y01812
Y02032
Y02312
X038615Y02112
X037915
Y02027
X038615
X036315Y01962
Y01852
X03514Y02032
Y01532
X036315Y01462
Y01352
X037915Y01527
X038615
Y01612
X037915
X02784
Y01527
X03109Y02312
X04199Y0095
Y0085
X04249Y0076
X04299Y0085
Y0095
X04399
X04499
Y0085
Y0076
X04399Y0085
X04604
Y0095
X04704
Y0085
X04994Y00907
X05044
X05094
X05144
X05219Y01172
X05264Y01312
Y01532
Y01812
Y02032
Y02312
X04939Y02112
X04869
Y02027
X04939
X04709Y01962
Y01852
X045915Y02032
Y01532
X04709Y01462
Y01352
X04869Y01527
X04939
Y01612
X04869
X04939Y01122
X057865Y01352
Y01462
X05669Y01532
X057865Y01852
Y01962
X05669Y02032
X059465Y02027
X060165
Y02112
X059465
X063415Y02032
Y01812
Y01532
Y01312
X062965Y01172
X060165Y01122
X05879Y009
X06379
X06879
X07094Y01122
X07374Y01172
X07419Y01312
Y01532
Y01812
Y02032
Y02312
X07094Y02112
X07024
Y02027
X07094
X06864Y01962
Y01852
X067465Y02032
Y01532
X06864Y01462
Y01352
X07024Y01527
X07094
Y01612
X07024
X060165
X059465
Y01527
X060165
X063415Y02312
X07379Y009
X07879
X08379
X084515Y01172
X084965Y01312
Y01532
Y01812
Y02032
Y02312
X081715Y02112
X081015
Y02027
X081715
X079415Y01962
Y01852
X07824Y02032
Y01532
X079415Y01462
Y01352
X081015Y01527
X081715
Y01612
X081015
X081715Y01122
X08879Y009
X089015Y01532
Y02032
X09019Y01962
Y01852
X09179Y02027
X09249
Y02112
X09179
X09574Y02032
Y01812
Y01532
Y01312
X09529Y01172
X09249Y01122
X09379Y009
X09879
X09979Y01532
Y02032
X09574Y02312
X09249Y01612
X09179
Y01527
X09249
X09019Y01462
Y01352
Y02352
Y02462
X09179Y02527
X09249
Y02612
X09179
X09019Y02852
Y02962
X09179Y03027
X09249
Y03112
X09179
X09019Y03352
Y03462
X09179Y03527
X09249
Y03612
X09179
X09019Y03852
X09574Y03812
Y03532
Y03312
Y03032
Y02812
Y02532
X09979
Y03032
Y03532
X089015
X084965
Y03312
Y03032
Y02812
Y02532
X081715Y02527
X081015
Y02612
X081715
X079415Y02462
Y02352
X07824Y02532
X079415Y02852
Y02962
X07824Y03032
X081015Y03027
X081715
Y03112
X081015
X079415Y03352
Y03462
X07824Y03532
X081015Y03527
X081715
Y03612
X081015
X079415Y03852
X084965Y03812
X089015Y03032
Y02532
X07419
Y02812
Y03032
Y03312
Y03532
Y03812
X07094Y03612
X07024
Y03527
X07094
X06864Y03462
Y03352
X067465Y03532
X063415
Y03312
Y03032
Y02812
Y02532
X060165Y02527
X059465
Y02612
X060165
Y03027
X059465
Y03112
X060165
Y03527
X059465
Y03612
X060165
X063415Y03812
X06864Y03852
Y02962
Y02852
X067465Y03032
X07024Y03027
X07094
Y03112
X07024
Y02612
X07094
Y02527
X07024
X06864Y02462
Y02352
X067465Y02532
X057865Y02462
Y02352
X05669Y02532
X05264
Y02812
Y03032
Y03312
Y03532
Y03812
X04939Y03612
X04869
Y03527
X04939
X04709Y03462
Y03352
X045915Y03532
X04709Y03852
Y02962
Y02852
X045915Y03032
X04869Y03027
X04939
Y03112
X04869
Y02612
X04939
Y02527
X04869
X04709Y02462
Y02352
X045915Y02532
X057865Y02852
Y02962
X05669Y03032
X057865Y03352
Y03462
X05669Y03532
X057865Y03852
X041865Y03812
Y03532
Y03312
Y03032
Y02812
Y02532
X038615Y02527
X037915
Y02612
X038615
X036315Y02462
Y02352
X03514Y02532
X03109
Y02812
Y03032
Y03312
Y03532
Y03812
X02784Y03612
Y03527
Y03112
Y03027
Y02612
Y02527
X036315Y02852
Y02962
X03514Y03032
X037915Y03027
X038615
Y03112
X037915
X036315Y03352
Y03462
X03514Y03532
X037915Y03527
X038615
Y03612
X037915
X036315Y03852
X02554
Y03462
Y03352
X024365Y03532
X02714Y03527
Y03612
Y03112
Y03027
X02554Y02962
Y02852
X024365Y03032
X020315
Y02812
Y02532
X017065Y02527
X016365
Y02612
X017065
X014765Y02462
Y02352
X01359Y02532
X014765Y02852
Y02962
X01359Y03032
X016365Y03027
X017065
Y03112
X016365
X014765Y03352
Y03462
X01359Y03532
X016365Y03527
X017065
Y03612
X016365
X014765Y03852
X020315Y03812
Y03532
Y03312
X024365Y02532
X02554Y02462
Y02352
X02714Y02527
Y02612
X00954Y02532
Y02812
Y03032
Y03312
Y03532
Y03812
X00629Y03612
X00559
Y03527
X00629
X00399Y03462
Y03352
Y02962
Y02852
X00559Y03027
X00629
Y03112
X00559
Y02612
X00629
Y02527
X00559
X00399Y02462
Y02352
Y03852
Y03962
X00559Y04027
X00629
Y04112
X00559
X00954Y04032
X00649Y05142
X017265
X017065Y04112
X016365
Y04027
X017065
X014765Y03962
X01359Y04032
X020315
X024365
X02554Y03962
X02714Y04027
Y04112
X02784
Y04027
X03109Y04032
X03514
X036315Y03962
X037915Y04027
X038615
Y04112
X037915
X041865Y04032
X038815Y05142
X02804
X04959
X04939Y04112
X04869
Y04027
X04939
X04709Y03962
X045915Y04032
X05264
X05669
X057865Y03962
X059465Y04027
X060165
Y04112
X059465
X063415Y04032
X067465
X06864Y03962
X07024Y04027
X07094
Y04112
X07024
X07419Y04032
X07114Y05142
X060365
X081915
X081715Y04112
X081015
Y04027
X081715
X079415Y03962
X07824Y04032
X084965
X089015
X09019Y03962
X09179Y04027
X09249
Y04112
X09179
X09574Y04032
X09979
X09269Y05142
Y06131
X081915
X07114
X060365
X04959
X038815
X02804
X017265
X00649
X006485Y06308
Y06358
X00649Y0712
Y08109
X017265
Y0712
X02804
Y08109
X038815
Y0712
X04959
Y08109
X060365
Y0712
X07114
Y08109
X081915
Y0712
X09269
Y08109
Y09098
Y10087
X081915
Y09098
X07114
Y10087
X060365
Y09098
X04959
Y10087
X038815
Y09098
X02804
Y10087
X017265
Y09098
X00649
Y10087
T02
X02091Y04835
X04246Y06813
X01063Y058785
X01012Y058225
X06401Y08791
T03
X04139Y0045
Y0055
Y0065
X01074Y0469102
X010135Y04835
X010645Y04891
X010745Y05225
Y05275
Y05325
Y05375
X006485Y05369
Y05319
X00654Y0469102
X0173077
X0215077
X02142Y04891
X02152Y05225
Y05275
Y05325
Y05375
X01726Y05369
Y05319
X028035
Y05369
X032295Y05375
Y05325
Y05275
Y05225
X032195Y04891
X0316859Y0483502
X0322951Y0469102
X0280951
X0388825
X04246Y04835
X04297Y04891
X03881Y05319
Y05369
X04307Y05375
Y05325
Y05275
Y05225
X0430825Y0469102
X0496601
X0538601
X053235Y04835
X053745Y04891
X053845Y05225
Y05275
Y05325
Y05375
X049585Y05369
Y05319
X06036
Y05369
X06462Y05375
Y05325
Y05275
Y05225
X06452Y04891
X06401Y04835
X0646376Y0469102
X0604376
X0712152
X071135Y05319
Y05369
X075395Y05375
Y05325
Y05275
Y05225
X075295Y04891
X074785Y04835
X0754152Y0469102
X0820026
X0862026
X08556Y04835
X08607Y04891
X08617Y05225
Y05275
Y05325
Y05375
X08191Y05369
Y05319
X092685
Y05369
X096945Y05375
Y05325
Y05275
Y05225
X096845Y04891
X096335Y04835
X0969802Y0469102
X0927802
Y0548604
X09279Y0568019
X09699
X0969802Y0548604
X096335Y05824
X096845Y0588
X096945Y06214
Y06264
Y06314
Y06364
X09699Y0647522
X09699Y0666936
X096335Y06813
X096845Y06869
X09279Y0666936
Y0647522
X092685Y06358
Y06308
X08617Y06314
Y06264
Y06214
Y06364
X0862124Y0647522
X0862124Y0666936
X08556Y06813
X08607Y06869
X0820124Y0666936
Y0647522
X08191Y06358
Y06308
X0820124Y0568019
X0820026Y0548604
X0862026
X0862124Y0568019
X08556Y05824
X08607Y0588
X075295
X074785Y05824
X075425Y0568019
X0754152Y0548604
X075395Y06214
Y06264
Y06314
Y06364
X075425Y0647522
X075425Y0666936
X074785Y06813
X075295Y06869
X071225Y0666936
Y0647522
X071135Y06358
Y06308
X071225Y0568019
X0712152Y0548604
X0646376
X0646475Y0568019
X06401Y05824
X06452Y0588
X06462Y06214
Y06264
Y06314
Y06364
X0646475Y0647522
X0646475Y0666936
X06401Y06813
X06452Y06869
X0604475Y0666936
Y0647522
X06036Y06358
Y06308
X0604475Y0568019
X0604376Y0548604
X0538601
X0538699Y0568019
X053235Y05824
X053745Y0588
X053845Y06214
Y06264
Y06314
Y06364
X0538699Y0647522
X0538699Y0666936
X053235Y06813
X053745Y06869
X0496699Y0666936
Y0647522
X049585Y06358
Y06308
X0496699Y0568019
X0496601Y0548604
X0430825
X0430924Y0568019
X04307Y06214
Y06264
Y06314
Y06364
X0430924Y0647522
X0430924Y0666936
X04297Y06869
X0388924Y0666936
Y0647522
X03881Y06358
Y06308
X0388924Y0568019
X0388825Y0548604
X0322951
X032305Y0568019
X031685Y05824
X032195Y0588
X032295Y06214
Y06264
Y06314
Y06364
X032305Y0647522
X032305Y0666936
X031685Y06813
X032195Y06869
X028105Y0666936
Y0647522
X028035Y06358
Y06308
X028105Y0568019
X0280951Y0548604
X04246Y05824
X04297Y0588
X02142
X02091Y05824
X0215176Y0568019
X0215077Y0548604
X0173077
X0173176Y0568019
X01726Y06308
Y06358
X0173176Y0647522
Y0666936
X0215176
X0215176Y0647522
X02152Y06364
Y06314
Y06264
Y06214
X02091Y06813
X02142Y06869
X010645
X010135Y06813
X01074Y0666936
X01074Y0647522
X010745Y06364
Y06314
Y06264
Y06214
X01074Y0568019
X01074Y0548604
X00654
Y0568019
Y0647522
Y0666936
X006485Y07297
Y07347
X00654Y0746439
Y0765755
X01074
X01074Y0746439
X010745Y07353
Y07303
Y07253
Y07203
X010135Y07802
X010645Y07858
X010745Y08192
Y08242
Y08292
Y08342
X01074Y0845258
X00654
X006485Y08336
Y08286
X01726
Y08336
X0173176Y0845258
X0215176
X02152Y08342
Y08292
Y08242
Y08192
X02142Y07858
X02091Y07802
X0215176Y0765755
X0215176Y0746439
X02152Y07353
Y07303
Y07253
Y07203
X01726Y07297
Y07347
X0173176Y0746439
Y0765755
X028105
Y0746439
X028035Y07347
Y07297
X032295Y07303
Y07253
Y07203
Y07353
X032305Y0746439
X032305Y0765755
X031685Y07802
X032195Y07858
X032295Y08192
Y08242
Y08292
Y08342
X032305Y0845258
X028105
X028035Y08336
Y08286
X03881
Y08336
X0388924Y0845258
Y0765755
Y0746439
X03881Y07347
Y07297
X04246Y07802
X04297Y07858
X0430924Y0765755
X0430924Y0746439
X04307Y07353
Y07303
Y07253
Y07203
X049585Y07297
Y07347
X0496699Y0746439
Y0765755
X0538699
X0538699Y0746439
X053845Y07353
Y07303
Y07253
Y07203
X053235Y07802
X053745Y07858
X053845Y08192
Y08242
Y08292
Y08342
X0538699Y0845258
X0496699
X049585Y08336
Y08286
X04307Y08292
Y08242
Y08192
Y08342
X0430924Y0845258
X0604475
X06036Y08336
Y08286
X06462Y08292
Y08242
Y08192
Y08342
X0646475Y0845258
X06452Y07858
X06401Y07802
X0646475Y0765755
X0646475Y0746439
X06462Y07353
Y07303
Y07253
Y07203
X06036Y07297
Y07347
X0604475Y0746439
Y0765755
X071225
Y0746439
X071135Y07347
Y07297
Y08286
Y08336
X071225Y0845258
X075425
X075395Y08342
Y08292
Y08242
Y08192
X075295Y07858
X074785Y07802
X075425Y0765755
X075425Y0746439
X075395Y07353
Y07303
Y07253
Y07203
X08191Y07297
Y07347
X0820124Y0746439
Y0765755
X0862124
X0862124Y0746439
X08617Y07353
Y07303
Y07253
Y07203
X08556Y07802
X08607Y07858
X08617Y08192
Y08242
Y08292
Y08342
X0862124Y0845258
X0820124
X08191Y08336
Y08286
X092685
Y08336
X09279Y0845258
X09699
X096945Y08342
Y08292
Y08242
Y08192
X096845Y07858
X096335Y07802
X09699Y0765755
X09699Y0746439
X096945Y07353
Y07303
Y07253
Y07203
X092685Y07297
Y07347
X09279Y0746439
Y0765755
X0927998Y0864672
X0969998
X096335Y08791
X096845Y08847
X096945Y09181
Y09231
Y09281
Y09331
X0969998Y0944175
X0969998Y0963491
X096335Y0978
X096845Y09836
X0927998Y0963491
Y0944175
X092685Y09325
Y09275
X08617Y09281
Y09231
Y09181
Y09331
X0862223Y0944175
X0862223Y0963491
X08556Y0978
X08607Y09836
X0820223Y0963491
Y0944175
X08191Y09325
Y09275
X0820223Y0864672
X0862223
X08556Y08791
X08607Y08847
X075295
X074785Y08791
X0754349Y0864672
X075395Y09181
Y09231
Y09281
Y09331
X0754349Y0944175
X0754349Y0963491
X074785Y0978
X075295Y09836
X0712349Y0963491
Y0944175
X071135Y09325
Y09275
X0712349Y0864672
X0646573
X06452Y08847
X06462Y09181
Y09231
Y09281
Y09331
X0646573Y0944175
X0646573Y0963491
X06401Y0978
X06452Y09836
X0604573Y0963491
Y0944175
X06036Y09325
Y09275
X0604573Y0864672
X0538798
X053235Y08791
X053745Y08847
X053845Y09181
Y09231
Y09281
Y09331
X0538798Y0944175
X0538798Y0963491
X053235Y0978
X053745Y09836
X0496798Y0963491
Y0944175
X049585Y09325
Y09275
X0496798Y0864672
X0431022
X04307Y09181
Y09231
Y09281
Y09331
X0431022Y0944175
X0431022Y0963491
X04246Y0978
X04297Y09836
X0389022Y0963491
Y0944175
X03881Y09325
Y09275
X0389022Y0864672
X04246Y08791
X04297Y08847
X032195
X031685Y08791
X0323148Y0864672
X0281148
X028035Y09275
Y09325
X0281148Y0944175
Y0963491
X0323148
X0323148Y0944175
X032295Y09331
Y09281
Y09231
Y09181
X031685Y0978
X032195Y09836
X02142
X02091Y0978
X0215274Y0963491
X0215274Y0944175
X02152Y09331
Y09281
Y09231
Y09181
X02142Y08847
X02091Y08791
X0215274Y0864672
X0173274
X01726Y09275
Y09325
X0173274Y0944175
Y0963491
X0107499
X0107498Y0944175
X010745Y09331
Y09281
Y09231
Y09181
X010645Y08847
X010135Y08791
X0107499Y0864672
X0065498
X006485Y09275
Y09325
X0065498Y0944175
Y0963491
X010135Y0978
X010645Y09836
X010745Y1017
Y1022
Y1027
Y1032
X0107498Y1042994
X0065498
X006485Y10314
Y10264
X01726
Y10314
X0173274Y1042994
X0215274
X02152Y1032
Y1027
Y1022
Y1017
X028035Y10264
Y10314
X0281148Y1042994
X0323148
X032295Y1032
Y1027
Y1022
Y1017
X03881Y10264
Y10314
X0389022Y1042994
X0431022
X04307Y1032
Y1027
Y1022
Y1017
X049585Y10264
Y10314
X0496798Y1042994
X0538798
X053845Y1032
Y1027
Y1022
Y1017
X06036Y10264
Y10314
X0604573Y1042994
X0646573
X06462Y1032
Y1027
Y1022
Y1017
X071135Y10264
Y10314
X0712349Y1042994
X0754349
X075395Y1032
Y1027
Y1022
Y1017
X08191Y10264
Y10314
X0820223Y1042994
X0862223
X08617Y1032
Y1027
Y1022
Y1017
X092685Y10264
Y10314
X0927998Y1042994
X0969998
X096945Y1032
Y1027
Y1022
Y1017
T04
X05939Y0052
Y0062
Y0072
T05
X01059Y01242
Y01342
Y01442
Y01742
Y01842
Y01942
Y02242
X01359
Y01942
Y01842
Y01742
Y01442
Y01342
Y01242
X021365
Y01342
Y01442
X024365
Y01342
Y01242
Y01742
Y01842
Y01942
X021365
Y01842
Y01742
Y02242
X024365
X03214
Y01942
Y01842
Y01742
Y01442
Y01342
Y01242
X03514
Y01342
Y01442
Y01742
Y01842
Y01942
Y02242
X042915
Y01942
Y01842
Y01742
Y01442
Y01342
Y01242
X045915
Y01342
Y01442
Y01742
Y01842
Y01942
Y02242
X05369
Y01942
Y01842
Y01742
Y01442
Y01342
Y01242
X05669
Y01342
Y01442
Y01742
Y01842
Y01942
Y02242
X064465
Y01942
Y01842
Y01742
Y01442
Y01342
Y01242
X067465
Y01342
Y01442
Y01742
Y01842
Y01942
Y02242
X07524
Y01942
Y01842
Y01742
Y01442
Y01342
Y01242
X07824
Y01342
Y01442
Y01742
Y01842
Y01942
Y02242
X086015
Y01942
Y01842
Y01742
Y01442
Y01342
Y01242
X089015
Y01342
Y01442
Y01742
Y01842
Y01942
Y02242
X09679
Y01942
Y01842
Y01742
Y01442
Y01342
Y01242
X09979
Y01342
Y01442
Y01742
Y01842
Y01942
Y02242
Y02342
Y02442
X09679
Y02342
Y02742
Y02842
Y02942
X09979
Y02842
Y02742
Y03242
Y03342
Y03442
Y03742
Y03842
X09679
Y03742
Y03442
Y03342
Y03242
X089015
Y03342
Y03442
Y03742
Y03842
X086015
Y03742
Y03442
Y03342
Y03242
Y02942
Y02842
Y02742
Y02442
Y02342
X089015
Y02442
Y02742
Y02842
Y02942
X07824
Y02842
Y02742
Y02442
Y02342
X07524
Y02442
Y02742
Y02842
Y02942
Y03242
Y03342
Y03442
Y03742
Y03842
X07824
Y03742
Y03442
Y03342
Y03242
X067465
Y03342
Y03442
Y03742
Y03842
X064465
Y03742
Y03442
Y03342
Y03242
Y02942
Y02842
Y02742
Y02442
Y02342
X067465
Y02442
Y02742
Y02842
Y02942
X05669
Y02842
Y02742
Y02442
Y02342
X05369
Y02442
Y02742
Y02842
Y02942
Y03242
Y03342
Y03442
Y03742
Y03842
X05669
Y03742
Y03442
Y03342
Y03242
X045915
Y03342
Y03442
Y03742
Y03842
Y02942
Y02842
Y02742
Y02442
Y02342
X042915
Y02442
Y02742
Y02842
Y02942
Y03242
Y03342
Y03442
Y03742
Y03842
X03514
Y03742
X03214
Y03842
Y03442
Y03342
Y03242
Y02942
Y02842
Y02742
Y02442
Y02342
X03514
Y02442
Y02742
Y02842
Y02942
Y03242
Y03342
Y03442
X024365
Y03342
Y03242
Y02942
Y02842
Y02742
Y02442
Y02342
X021365
Y02442
Y02742
Y02842
Y02942
Y03242
Y03342
Y03442
Y03742
Y03842
X024365
Y03742
X01359
Y03842
Y03442
Y03342
Y03242
Y02942
Y02842
Y02742
Y02442
Y02342
X01059
Y02442
Y02742
Y02842
Y02942
Y03242
Y03342
Y03442
Y03742
Y03842
Y03942
X01359
X021365
X024365
X03214
X03514
X042915
X045915
X05369
X05669
X064465
X067465
X07524
X07824
X086015
X089015
X09679
X09979
T06
X04809Y0089
X05379Y009
T07
X07034Y0017
T08
X03284Y00445
Y00655
T09
X07034Y00367
T10
X07959Y00154
Y0039
X08144Y00272
T11
X101595Y002
X08604
X06454
X04304
X02129
X0024
X101595Y025
X0024
X02129Y04483
X04304
X06454
X08604
X101595Y065
X0024
X05229Y076
X101595Y0875
X0024
X02129Y10639
X04304
X06454
X08604
T12
X0024Y04483
X101595
X0024Y10639
X101595
M30
