%FSLAX25Y25*%
%MOIN*%
G70*
G01*
G75*
G04 Layer_Physical_Order=1*
G04 Layer_Color=255*
%ADD10C,0.03000*%
%ADD11R,0.03600X0.03600*%
%ADD12R,0.05000X0.03600*%
%ADD13R,0.08000X0.06000*%
%ADD14R,0.02362X0.02362*%
%ADD15C,0.04000*%
%ADD16R,0.07400X0.04500*%
%ADD17R,0.03600X0.03600*%
%ADD18R,0.03600X0.05000*%
%ADD19R,0.02000X0.05000*%
%ADD20R,0.06299X0.05906*%
%ADD21R,0.02362X0.10000*%
%ADD22R,0.02362X0.09000*%
%ADD23R,0.07000X0.02362*%
%ADD24R,0.09000X0.02362*%
%ADD25O,0.02400X0.08000*%
%ADD26R,0.01378X0.03543*%
%ADD27R,0.01378X0.03543*%
%ADD28O,0.01600X0.06000*%
%ADD29O,0.01600X0.06000*%
%ADD30R,0.03000X0.03000*%
%ADD31R,0.03000X0.03000*%
%ADD32C,0.01000*%
%ADD33C,0.01228*%
%ADD34C,0.02000*%
%ADD35C,0.01200*%
%ADD36C,0.00800*%
%ADD37C,0.01400*%
%ADD38C,0.01500*%
%ADD39C,0.02500*%
%ADD40C,0.01600*%
%ADD41C,0.00600*%
%ADD42C,0.00900*%
%ADD43C,0.00500*%
%ADD44C,0.12200*%
%ADD45C,0.07000*%
%ADD46O,0.04000X0.06000*%
%ADD47C,0.06200*%
%ADD48R,0.06200X0.06200*%
%ADD49C,0.06000*%
%ADD50C,0.02800*%
D10*
X-1400Y10000D02*
G03*
X-6400Y15000I-5000J0D01*
G01*
Y5000D02*
G03*
X-1400Y10000I0J5000D01*
G01*
X-50500Y5000D02*
G03*
X-55500Y0I0J-5000D01*
G01*
D02*
G03*
X-50500Y-5000I5000J0D01*
G01*
X-1400Y-10000D02*
G03*
X-6400Y-5000I-5000J0D01*
G01*
Y-77300D02*
G03*
X-1400Y-72300I0J5000D01*
G01*
X-71400Y15000D02*
X-6400D01*
X-50500Y5000D02*
X-6400D01*
X-50500Y-5000D02*
X-6400D01*
X-1400Y-72300D02*
Y-10000D01*
X-14600Y-77300D02*
X-6400D01*
D11*
X-69200Y-59500D02*
D03*
Y-52000D02*
D03*
D12*
X-77200Y-55700D02*
D03*
D13*
X-29000Y-44500D02*
D03*
X-43000D02*
D03*
X-31000Y-55000D02*
D03*
X-45000D02*
D03*
D14*
X-164200Y-69300D02*
D03*
X-160263D02*
D03*
X-162232Y-74418D02*
D03*
X-160632Y-25218D02*
D03*
X-158663Y-20100D02*
D03*
X-162600D02*
D03*
D15*
X0Y0D02*
D03*
X-128700Y-72400D02*
D03*
D16*
X-101700Y-50800D02*
D03*
D17*
X-65200Y-34500D02*
D03*
X-72680D02*
D03*
X-158200Y-31800D02*
D03*
X-150700D02*
D03*
D18*
X-68940Y-43949D02*
D03*
X-154500Y-39800D02*
D03*
D19*
X-145200Y-3500D02*
D03*
Y6500D02*
D03*
X-137700D02*
D03*
X-141500Y-3500D02*
D03*
X-137700D02*
D03*
D20*
X-56800Y-45600D02*
D03*
Y-29600D02*
D03*
D21*
X-139200Y-61406D02*
D03*
X-134200D02*
D03*
X-134300Y-45100D02*
D03*
X-139200Y-45200D02*
D03*
X-144200D02*
D03*
D22*
Y-60906D02*
D03*
D23*
X-131993Y-53568D02*
D03*
D24*
X-146193Y-53568D02*
D03*
D25*
X-108500Y-73100D02*
D03*
X-118500Y-51100D02*
D03*
X-108500D02*
D03*
X-113500D02*
D03*
X-123500D02*
D03*
X-113500Y-73100D02*
D03*
X-118500D02*
D03*
X-123500D02*
D03*
D26*
X-108959Y-32169D02*
D03*
X-106400D02*
D03*
X-108959Y-40831D02*
D03*
X-103841D02*
D03*
X-81141D02*
D03*
X-86259D02*
D03*
X-83700Y-32169D02*
D03*
X-86259D02*
D03*
D27*
X-103841Y-32169D02*
D03*
X-81141D02*
D03*
D28*
X-122854Y-24709D02*
D03*
X-117736Y6000D02*
D03*
X-107500Y-24709D02*
D03*
X-122854Y6000D02*
D03*
X-112618D02*
D03*
X-120295Y-24709D02*
D03*
X-117736D02*
D03*
X-115177Y6000D02*
D03*
X-112618Y-24709D02*
D03*
X-110059D02*
D03*
X-107500Y6000D02*
D03*
X-130532D02*
D03*
X-127972Y-24709D02*
D03*
X-120295Y6000D02*
D03*
X-110059D02*
D03*
X-125413D02*
D03*
X-127972D02*
D03*
X-130532Y-24709D02*
D03*
X-115177D02*
D03*
X-125413D02*
D03*
D29*
X-102877Y-57200D02*
D03*
X-100318Y-75885D02*
D03*
X-97759D02*
D03*
X-102877D02*
D03*
X-95200Y-57200D02*
D03*
X-97759D02*
D03*
X-95200Y-75885D02*
D03*
X-100318Y-57200D02*
D03*
D30*
X-56700Y-62000D02*
D03*
Y-56000D02*
D03*
X-173900Y-77400D02*
D03*
Y-71400D02*
D03*
X-167700Y-45500D02*
D03*
Y-51500D02*
D03*
X-160200Y-46000D02*
D03*
Y-52000D02*
D03*
X-167800Y-63500D02*
D03*
Y-57500D02*
D03*
X-153300Y-56500D02*
D03*
Y-62500D02*
D03*
X-160200Y-57100D02*
D03*
Y-63100D02*
D03*
X-82700Y-15500D02*
D03*
Y-21500D02*
D03*
X-138700Y-26000D02*
D03*
Y-20000D02*
D03*
X-143259Y-69941D02*
D03*
Y-75941D02*
D03*
X-127500Y-39000D02*
D03*
Y-33000D02*
D03*
X-134259Y-75941D02*
D03*
Y-69941D02*
D03*
X-48700Y-28000D02*
D03*
Y-34000D02*
D03*
X-170400Y-19400D02*
D03*
Y-25400D02*
D03*
X-169200Y-74500D02*
D03*
Y-68500D02*
D03*
X-99600Y4100D02*
D03*
Y-1900D02*
D03*
X-82800Y-8000D02*
D03*
Y-2000D02*
D03*
X-176400Y-13400D02*
D03*
Y-7400D02*
D03*
X-173900Y-47100D02*
D03*
Y-53100D02*
D03*
X-176400Y-25400D02*
D03*
Y-19400D02*
D03*
X-163400Y-7900D02*
D03*
Y-1900D02*
D03*
X-144700Y-37800D02*
D03*
Y-31800D02*
D03*
X-152100Y-19100D02*
D03*
Y-25100D02*
D03*
X-175200Y-57906D02*
D03*
Y-63906D02*
D03*
X-90213Y-73300D02*
D03*
Y-67300D02*
D03*
X-153200Y-52000D02*
D03*
Y-46000D02*
D03*
X-144700Y-20000D02*
D03*
Y-26000D02*
D03*
X-35000Y-34500D02*
D03*
Y-28500D02*
D03*
X-28000D02*
D03*
Y-34500D02*
D03*
X-11500Y-60000D02*
D03*
Y-54000D02*
D03*
X-18500D02*
D03*
Y-60000D02*
D03*
D31*
X-179900Y-37100D02*
D03*
X-173900D02*
D03*
Y-42100D02*
D03*
X-179900D02*
D03*
X-98300Y-41100D02*
D03*
X-92300D02*
D03*
Y-34100D02*
D03*
X-98300D02*
D03*
X-138700Y-37500D02*
D03*
X-132700D02*
D03*
X-152200Y5500D02*
D03*
X-158200D02*
D03*
X-95200Y-49000D02*
D03*
X-89200D02*
D03*
X-122300Y13400D02*
D03*
X-128300D02*
D03*
X-114200Y13500D02*
D03*
X-108200D02*
D03*
X-94700Y-15500D02*
D03*
X-88700D02*
D03*
X-114800Y-31300D02*
D03*
X-120800D02*
D03*
X-162300Y-13800D02*
D03*
X-168300D02*
D03*
X-101300Y-8500D02*
D03*
X-95300D02*
D03*
X-156259Y-74941D02*
D03*
X-150259D02*
D03*
X-114700Y-37000D02*
D03*
X-120700D02*
D03*
X-179900Y-32200D02*
D03*
X-173900D02*
D03*
X-114700Y-42000D02*
D03*
X-120700D02*
D03*
X-158100Y-14100D02*
D03*
X-152100D02*
D03*
X-156400Y-69200D02*
D03*
X-150400D02*
D03*
X-158100Y-8100D02*
D03*
X-152100D02*
D03*
X-158100Y-2300D02*
D03*
X-152100D02*
D03*
X-164200Y5500D02*
D03*
X-170200D02*
D03*
X-65700Y-28500D02*
D03*
X-71700D02*
D03*
X-132700Y-32000D02*
D03*
X-138700D02*
D03*
X-144700Y-14000D02*
D03*
X-138700D02*
D03*
D32*
X-78500Y-35500D02*
Y-35000D01*
Y-36500D02*
Y-35500D01*
X-82800D02*
X-78500D01*
X-74900Y-47100D02*
Y-44000D01*
X-77100Y-41800D02*
X-74900Y-44000D01*
X-77100Y-41800D02*
Y-37900D01*
X-78500Y-36500D02*
X-77100Y-37900D01*
X-79100Y-47200D02*
Y-38500D01*
X-79900Y-37700D02*
X-79100Y-38500D01*
X-86600Y-37700D02*
X-79900D01*
X-69600Y-66700D02*
X-54600D01*
X-73000Y-63300D02*
X-69600Y-66700D01*
X-73000Y-63300D02*
Y-53300D01*
X-31000Y-56500D02*
Y-55000D01*
X-34500Y-60000D02*
X-31000Y-56500D01*
X-47900Y-60000D02*
X-34500D01*
X-79100Y-47200D02*
X-73000Y-53300D01*
X-81000Y-49000D02*
Y-40972D01*
X-103841Y-42000D02*
X-102300D01*
X-105800D02*
X-103841D01*
X-102300D02*
X-99800Y-44500D01*
X-109000Y-45200D02*
X-105800Y-42000D01*
X-86400Y-49000D02*
Y-46900D01*
X-87200Y-46100D02*
X-86400Y-46900D01*
X-91000Y-46100D02*
X-87200D01*
X-84900Y-50500D02*
X-82500D01*
X-86400Y-49000D02*
X-84900Y-50500D01*
X-82500D02*
X-81000Y-49000D01*
X-81141Y-40831D02*
X-81000Y-40972D01*
X-71900Y-38100D02*
X-69200D01*
X-72680Y-37320D02*
X-71900Y-38100D01*
X-72680Y-37320D02*
Y-34500D01*
X-69200Y-38100D02*
X-69000Y-37900D01*
X-135000Y200D02*
Y11300D01*
X-137700Y-2500D02*
X-135000Y200D01*
X-137700Y-3500D02*
Y-2500D01*
X-159400Y-42400D02*
X-156800Y-39800D01*
X-164600Y-42400D02*
X-159400D01*
X-167700Y-45500D02*
X-164600Y-42400D01*
X-103772Y-33100D02*
X-98300D01*
X-142000Y6700D02*
Y9200D01*
X-170400Y4700D02*
Y5500D01*
Y5800D01*
Y4700D02*
X-167700Y2000D01*
X-138700Y-26000D02*
X-135600D01*
X-134542Y-22458D02*
Y-18388D01*
X-133800Y-17646D01*
X-136700Y-29000D02*
X-133900D01*
X-134542Y-22458D02*
X-132800Y-24200D01*
Y-27900D02*
Y-24200D01*
X-133900Y-29000D02*
X-132800Y-27900D01*
X-141900Y-29000D02*
X-136700D01*
X-166400Y-20100D02*
X-162600D01*
X-169700D02*
X-166400D01*
Y-31900D02*
X-163400Y-34900D01*
X-158200Y-31800D02*
X-158200Y-31800D01*
X-162400Y-31800D02*
X-158200D01*
X-83900Y-54100D02*
X-82300Y-55700D01*
X-77200D01*
X-64300Y-59500D02*
X-61800Y-62000D01*
X-56700D01*
X-69200Y-59500D02*
X-64300D01*
X-43000Y-40000D02*
X-40500D01*
X-64100Y-42400D02*
X-61700Y-40000D01*
X-54600Y-66700D02*
X-47900Y-60000D01*
X-84000Y-67300D02*
X-83700Y-67600D01*
X-45000Y-55000D02*
X-43000Y-53000D01*
Y-44500D01*
X-28000Y-37000D02*
Y-34500D01*
X-29500Y-38500D02*
X-28000Y-37000D01*
X-34000Y-38500D02*
X-29500D01*
X-40000Y-44500D02*
X-34000Y-38500D01*
X-43000Y-44500D02*
X-40000D01*
X-40500Y-40000D02*
X-35000Y-34500D01*
X-30500Y-55000D02*
X-25500Y-60000D01*
X-31000Y-55000D02*
X-30500D01*
X-170400Y-28100D02*
X-170100Y-28400D01*
X-170400Y-28100D02*
Y-25400D01*
X-160632Y-28368D02*
X-160600Y-28400D01*
X-160632Y-28368D02*
Y-25218D01*
Y-28368D02*
X-160600Y-28400D01*
X-135900Y-10900D02*
X-133000Y-8000D01*
X-135900Y-17200D02*
Y-10900D01*
X-137500Y-3500D02*
X-133000Y-8000D01*
X-137700Y-3500D02*
X-137500D01*
X-138700Y-20000D02*
X-135900Y-17200D01*
X-133800Y-17646D02*
Y-14000D01*
X-129300Y-9500D01*
Y-3500D01*
X-122854Y-24709D02*
Y-21646D01*
Y2354D02*
X-113500Y-7000D01*
X-122854Y2354D02*
Y6000D01*
X-131500Y-19300D02*
X-130532Y-20268D01*
Y-24709D02*
Y-20268D01*
X-132000Y-37500D02*
X-127500Y-33000D01*
X-132700Y-37500D02*
X-132000D01*
X-127500Y-33000D02*
X-125500D01*
X-121500Y-37000D01*
X-120700D01*
X-173900Y-47100D02*
X-171100D01*
X-169700Y-48500D01*
X-165600D01*
X-164900Y-49200D01*
Y-54600D02*
Y-49200D01*
X-167800Y-57500D02*
X-164900Y-54600D01*
X-163000Y-60300D02*
Y-46700D01*
X-167700Y-45500D02*
X-164200D01*
X-163000Y-46700D01*
Y-60300D02*
X-160200Y-63100D01*
X-95200Y-74100D02*
X-93213D01*
X-144800Y5800D02*
X-142900D01*
X-141100D02*
X-138000D01*
X-142900D02*
X-142000Y6700D01*
X-141100Y5800D01*
X-139441Y-69941D02*
X-134600Y-65100D01*
Y-64700D02*
X-134200Y-64300D01*
X-134600Y-65100D02*
Y-64700D01*
X-143259Y-69941D02*
X-139441D01*
X-132800Y-4000D02*
Y9100D01*
X-130532Y-2269D02*
Y6000D01*
Y-2269D02*
X-129300Y-3500D01*
X-115600Y-11500D02*
X-111800D01*
X-116200Y-10900D02*
X-115600Y-11500D01*
X-122754Y-10900D02*
X-116200D01*
X-123500Y-11646D02*
X-122754Y-10900D01*
X-82700Y-15800D02*
Y-15500D01*
X-118495Y-20405D02*
X-117736Y-21164D01*
Y-24709D02*
Y-21164D01*
X-120295Y-24709D02*
Y-20605D01*
X-127972Y-24709D02*
Y-18428D01*
X-130800Y-15600D02*
X-127972Y-18428D01*
X-111800Y-11500D02*
X-110900Y-12400D01*
X-108500D01*
X-122300Y10900D02*
X-120295Y8895D01*
X-122300Y10900D02*
Y13400D01*
X-120295Y6000D02*
Y8895D01*
X-128300Y11400D02*
Y13400D01*
X-129200Y10500D02*
X-128300Y11400D01*
X-131400Y10500D02*
X-129200D01*
X-132800Y9100D02*
X-131400Y10500D01*
X-83700Y-34600D02*
X-82800Y-35500D01*
X-83700Y-34600D02*
Y-32169D01*
X-85500Y-44000D02*
X-83700Y-45800D01*
Y-47500D02*
Y-45800D01*
X-89400Y-44000D02*
X-85500D01*
X-87828Y-39800D02*
X-86300D01*
X-89328Y-38300D02*
X-87828Y-39800D01*
X-92300Y-37100D02*
X-91100Y-38300D01*
X-89328D01*
X-125413Y513D02*
X-123800Y-1100D01*
X-125413Y513D02*
Y6000D01*
X-127972Y-928D02*
Y6000D01*
X-92413Y-73300D02*
X-90213D01*
X-120300Y-30800D02*
X-119100D01*
X-120800Y-31300D02*
X-120300Y-30800D01*
X-114800Y-31300D02*
X-112618Y-29118D01*
X-116700Y-34100D02*
X-112000D01*
X-111100Y-33200D01*
X-109000Y-32210D02*
X-108959Y-32169D01*
X-109000Y-33200D02*
Y-32210D01*
X-111100Y-33200D02*
X-109000D01*
X-117800Y-35200D02*
X-116700Y-34100D01*
X-117800Y-38900D02*
Y-35200D01*
X-92300Y-37100D02*
Y-34100D01*
X-93300Y-38100D02*
X-92300Y-37100D01*
X-94200Y-38100D02*
X-93300D01*
X-97200Y-41100D02*
X-94200Y-38100D01*
X-98300Y-41100D02*
X-97200D01*
X-95200Y-36500D02*
Y-31700D01*
X-104700Y-37200D02*
X-95900D01*
X-95200Y-36500D01*
X-94600Y-31100D02*
X-86300D01*
X-95200Y-31700D02*
X-94600Y-31100D01*
X-86300Y-32128D02*
X-86259Y-32169D01*
X-86300Y-32128D02*
Y-31100D01*
X-107300Y-39800D02*
X-104700Y-37200D01*
X-92300Y-41100D02*
X-89400Y-44000D01*
X-103000Y-46700D02*
X-97500D01*
X-104800Y-44900D02*
X-103000Y-46700D01*
X-97500D02*
X-95200Y-49000D01*
X-144700Y-31800D02*
X-141900Y-29000D01*
X-114700Y-37000D02*
X-111900Y-39800D01*
X-117800Y-38900D02*
X-114700Y-42000D01*
X-108500Y-51100D02*
Y-48600D01*
X-120700Y-42000D02*
Y-37000D01*
X-163400Y-34900D02*
X-141600D01*
X-138700Y-32000D01*
X-138200Y-37500D02*
X-132700Y-32000D01*
X-138700Y-37500D02*
X-138200D01*
X-170400Y-19400D02*
X-169700Y-20100D01*
X-152400Y6300D02*
Y8900D01*
X-145100Y-13600D02*
Y-9800D01*
Y-13600D02*
X-144700Y-14000D01*
X-176400Y-28700D02*
Y-25400D01*
X-168300Y-13900D02*
Y-13800D01*
X-138000Y5700D02*
X-137900Y5800D01*
X-164200Y5500D02*
X-163400Y4800D01*
Y-7900D02*
X-162600Y-8700D01*
Y-13500D02*
Y-8700D01*
X-162000Y-14100D02*
X-158100D01*
X-158663Y-14663D02*
X-158100Y-14100D01*
X-158663Y-20100D02*
Y-14663D01*
X-162600Y-20600D02*
X-160600Y-22600D01*
X-154600D02*
X-152100Y-25100D01*
X-162600Y-20600D02*
Y-20100D01*
X-144700Y-37800D02*
X-144213Y-38287D01*
X-93213Y-74100D02*
X-92413Y-73300D01*
X-147259Y-74941D02*
X-146259Y-75941D01*
X-150259Y-74941D02*
X-147259D01*
X-156782Y-74418D02*
X-156259Y-74941D01*
X-145700Y6000D02*
X-145400Y6300D01*
X-153200Y-52000D02*
X-149400D01*
X-153200Y-46000D02*
X-153200Y-46000D01*
X-160200Y-57100D02*
Y-52000D01*
X-153900Y-57100D02*
X-153300Y-56500D01*
X-160200Y-57100D02*
X-153900D01*
X-156400Y-65600D02*
X-153300Y-62500D01*
X-139200Y-65300D02*
Y-63406D01*
X-140700Y-66800D02*
X-139200Y-65300D01*
X-148000Y-66800D02*
X-140700D01*
X-150400Y-69200D02*
X-148000Y-66800D01*
X-97759Y-75885D02*
Y-70385D01*
X-176400Y-25400D02*
X-173572Y-22572D01*
Y-17588D01*
X-172391Y-16407D01*
X-170907D01*
X-168300Y-13800D01*
X-163400Y2554D02*
Y4800D01*
Y851D02*
X-162548Y1703D01*
X-163400Y2554D02*
X-162548Y1703D01*
X-163400Y-1900D02*
Y851D01*
X-164200Y5500D02*
X-158200D01*
X-162548Y1703D02*
X-160289D01*
X-160186Y1600D01*
X-115177Y9923D02*
X-114500Y10600D01*
Y13200D01*
X-114200Y13500D01*
X-108200D02*
X-107500Y12800D01*
X-110059Y-24709D02*
Y-21759D01*
X-112618Y-20418D02*
X-111900Y-19700D01*
X-126300Y-45200D02*
X-109000D01*
X-108500Y-48600D02*
X-104800Y-44900D01*
X-88700Y-18200D02*
Y-15500D01*
X-89300Y-18800D02*
X-88700Y-18200D01*
X-90200Y-18800D02*
X-89300D01*
X-107500Y10200D02*
Y12800D01*
Y8200D02*
X-106500Y9200D01*
X-107500Y10200D02*
X-106500Y9200D01*
X-95200Y-57200D02*
Y-49000D01*
X-103800Y-24300D02*
X-103100Y-25000D01*
X-88600Y-35700D02*
X-86600Y-37700D01*
X-115177Y-24709D02*
Y-19923D01*
X-115600Y-19500D02*
X-115177Y-19923D01*
X-127000Y-12000D02*
X-126000Y-13000D01*
X-127500Y-12000D02*
X-127000D01*
X-126000Y-18500D02*
X-122854Y-21646D01*
X-126000Y-18500D02*
Y-13000D01*
X-123500Y-17400D02*
X-120295Y-20605D01*
X-123500Y-17400D02*
Y-11646D01*
X-118495Y-20405D02*
Y-19805D01*
X-119600Y-18700D02*
Y-14200D01*
Y-18700D02*
X-118495Y-19805D01*
X-107500Y6000D02*
Y8200D01*
X-51104Y-34000D02*
X-48700D01*
X-54000Y-31104D02*
X-51104Y-34000D01*
X-56800Y-31104D02*
X-54000D01*
X-62500Y-28400D02*
X-62100Y-28000D01*
X-92600Y-44500D02*
X-91000Y-46100D01*
X-99800Y-44500D02*
X-92600D01*
X-102877Y-75885D02*
Y-71877D01*
X-101500Y-70500D01*
X-100374D01*
X-100259Y-70385D02*
X-97759D01*
X-69900Y-2000D02*
X-68000Y-100D01*
X-62000D01*
X-82800Y-2000D02*
X-69900D01*
X-106500Y9200D02*
X-105400D01*
X-103841Y-33031D02*
Y-32169D01*
X-65723Y-28400D02*
X-65700D01*
X-62500D01*
X-115177Y5958D02*
Y6000D01*
Y9923D01*
X-145400Y6300D02*
X-144800Y5700D01*
X-145400Y6300D02*
Y6500D01*
Y7600D01*
X-137900Y5800D02*
Y6200D01*
Y6500D01*
Y7600D01*
Y6200D02*
X-137700Y6000D01*
X-119100Y-30800D02*
X-118350Y-30050D01*
X-118300Y-30000D01*
X-146259Y-75941D02*
X-143259D01*
X-134259D01*
X-160263Y-69300D02*
X-156400D01*
Y-69200D01*
Y-65600D01*
X-149400Y-52000D02*
X-149200Y-51800D01*
X-144213Y-41800D02*
Y-38287D01*
X-158100Y-8100D02*
Y-5100D01*
Y-2300D01*
X-139200Y-41800D02*
X-138713Y-41313D01*
X-100318Y-75885D02*
Y-70444D01*
X-100374Y-70500D02*
X-100318Y-70444D01*
X-100259Y-70385D01*
X-162300Y-13800D02*
X-162000Y-14100D01*
X-162600Y-13500D02*
X-162300Y-13800D01*
X-179900Y-33900D02*
Y-32200D01*
Y-28700D01*
X-152100Y-19100D02*
Y-14100D01*
Y-11200D01*
Y-8100D01*
Y-2300D01*
X-160600Y-22600D02*
X-155500D01*
X-154600D01*
X-94700Y-9500D02*
X-94500Y-9300D01*
X-112618Y-29118D02*
Y-24709D01*
Y-20418D01*
X-144700Y-26000D02*
X-138700D01*
X-111900Y-39800D02*
X-108959D01*
X-107300D01*
X-25500Y-60000D02*
X-18500D01*
X-11500D01*
X-35000Y-28500D02*
X-28000D01*
X-18000D01*
X-87100Y-8000D02*
X-82800D01*
X-95200Y-8400D02*
Y-4600D01*
X-95300Y-8500D02*
X-95200Y-8400D01*
X-103400Y-8500D02*
X-101300D01*
X-112618Y718D02*
Y6000D01*
X-101500Y-8700D02*
X-100700Y-9500D01*
X-104100Y-3100D02*
X-102900Y-1900D01*
X-99600D01*
X-102500Y1200D02*
X-99600Y4100D01*
X-105600Y1200D02*
X-102500D01*
X-109263Y-2463D02*
X-105600Y1200D01*
X-109437Y-2463D02*
X-109263D01*
X-109437D02*
X-103400Y-8500D01*
X-112618Y718D02*
X-109437Y-2463D01*
X-200000Y17800D02*
X-186900D01*
X-200000Y-81100D02*
X-186900D01*
X-199000Y-20838D02*
Y17800D01*
Y-81100D02*
Y-45662D01*
X-201000Y11800D02*
X-199000Y17800D01*
X-197000Y11800D01*
X-199000Y-81100D02*
X-197000Y-75100D01*
X-201000D02*
X-199000Y-81100D01*
X4800Y19300D02*
Y36000D01*
X-185400Y19300D02*
Y36000D01*
X-79817Y35000D02*
X4800D01*
X-185400D02*
X-103983D01*
X-1200Y37000D02*
X4800Y35000D01*
X-1200Y33000D02*
X4800Y35000D01*
X-185400D02*
X-179400Y33000D01*
X-185400Y35000D02*
X-179400Y37000D01*
X4800Y-81100D02*
Y17800D01*
X-185400D02*
X4800D01*
X-185400Y-81100D02*
X4800D01*
X-185400D02*
Y17800D01*
X-70600Y-85201D02*
Y-91200D01*
X-72600Y-85201D02*
X-68601D01*
X-63316Y-91200D02*
X-65601Y-85201D01*
X-67887Y-91200D01*
X-67030Y-89200D02*
X-64173D01*
X-57632Y-86629D02*
X-57917Y-86058D01*
X-58489Y-85487D01*
X-59060Y-85201D01*
X-60203D01*
X-60774Y-85487D01*
X-61345Y-86058D01*
X-61631Y-86629D01*
X-61917Y-87486D01*
Y-88915D01*
X-61631Y-89772D01*
X-61345Y-90343D01*
X-60774Y-90914D01*
X-60203Y-91200D01*
X-59060D01*
X-58489Y-90914D01*
X-57917Y-90343D01*
X-57632Y-89772D01*
Y-88915D01*
X-59060D02*
X-57632D01*
X-51547Y-86344D02*
X-50976Y-86058D01*
X-50119Y-85201D01*
Y-91200D01*
X-45434Y-85201D02*
X-46291Y-85487D01*
X-46863Y-86344D01*
X-47148Y-87772D01*
Y-88629D01*
X-46863Y-90057D01*
X-46291Y-90914D01*
X-45434Y-91200D01*
X-44863D01*
X-44006Y-90914D01*
X-43435Y-90057D01*
X-43149Y-88629D01*
Y-87772D01*
X-43435Y-86344D01*
X-44006Y-85487D01*
X-44863Y-85201D01*
X-45434D01*
X-41521Y-86629D02*
Y-86344D01*
X-41235Y-85773D01*
X-40950Y-85487D01*
X-40378Y-85201D01*
X-39236D01*
X-38664Y-85487D01*
X-38379Y-85773D01*
X-38093Y-86344D01*
Y-86915D01*
X-38379Y-87486D01*
X-38950Y-88344D01*
X-41807Y-91200D01*
X-37808D01*
X-31752Y-85201D02*
Y-91200D01*
Y-85201D02*
X-29181D01*
X-28324Y-85487D01*
X-28038Y-85773D01*
X-27753Y-86344D01*
Y-86915D01*
X-28038Y-87486D01*
X-28324Y-87772D01*
X-29181Y-88058D01*
X-31752D01*
X-29752D02*
X-27753Y-91200D01*
X-22696Y-85201D02*
X-26410D01*
Y-91200D01*
X-22696D01*
X-26410Y-88058D02*
X-24125D01*
X-21697Y-85201D02*
X-19411Y-91200D01*
X-17126Y-85201D02*
X-19411Y-91200D01*
X-16069Y-90629D02*
X-16355Y-90914D01*
X-16069Y-91200D01*
X-15784Y-90914D01*
X-16069Y-90629D01*
X-14184Y-86629D02*
Y-86344D01*
X-13898Y-85773D01*
X-13613Y-85487D01*
X-13041Y-85201D01*
X-11899D01*
X-11327Y-85487D01*
X-11042Y-85773D01*
X-10756Y-86344D01*
Y-86915D01*
X-11042Y-87486D01*
X-11613Y-88344D01*
X-14470Y-91200D01*
X-10470D01*
X-7414Y-85201D02*
X-8271Y-85487D01*
X-8842Y-86344D01*
X-9128Y-87772D01*
Y-88629D01*
X-8842Y-90057D01*
X-8271Y-90914D01*
X-7414Y-91200D01*
X-6843D01*
X-5986Y-90914D01*
X-5414Y-90057D01*
X-5129Y-88629D01*
Y-87772D01*
X-5414Y-86344D01*
X-5986Y-85487D01*
X-6843Y-85201D01*
X-7414D01*
X-14008Y-229618D02*
G03*
X-19008Y-224618I-5000J0D01*
G01*
X-18892Y-244618D02*
G03*
X-14010Y-239650I84J4800D01*
G01*
X-4008Y-224618D02*
G03*
X-9008Y-229618I0J-5000D01*
G01*
Y-239618D02*
G03*
X-4095Y-244617I5000J0D01*
G01*
X168492Y-229618D02*
G03*
X163492Y-224618I-5000J0D01*
G01*
X163608Y-244618D02*
G03*
X168490Y-239650I84J4800D01*
G01*
X173492Y-239718D02*
G03*
X178478Y-244617I4900J0D01*
G01*
X178492Y-224618D02*
G03*
X173492Y-229618I0J-5000D01*
G01*
X-106508Y-154518D02*
G03*
X-111408Y-149618I-4900J0D01*
G01*
X-111308Y-182118D02*
G03*
X-106508Y-177318I0J4800D01*
G01*
Y-192018D02*
G03*
X-111579Y-187121I-4900J0D01*
G01*
X-101508Y-187218D02*
G03*
X-96608Y-192118I4900J0D01*
G01*
X-101508Y-214718D02*
G03*
X-96608Y-219618I4900J0D01*
G01*
X-111408D02*
G03*
X-106508Y-214718I0J4900D01*
G01*
X68492Y-202018D02*
G03*
X63592Y-197118I-4900J0D01*
G01*
Y-219618D02*
G03*
X68491Y-214632I0J4900D01*
G01*
X73492Y-214518D02*
G03*
X78503Y-219617I5100J0D01*
G01*
X78292Y-197118D02*
G03*
X73499Y-202169I0J-4800D01*
G01*
X-96508Y-197118D02*
G03*
X-101508Y-202118I0J-5000D01*
G01*
X-96508Y-149618D02*
G03*
X-101508Y-154618I0J-5000D01*
G01*
X-191508Y-214618D02*
G03*
X-186595Y-219617I5000J0D01*
G01*
X-186508Y-187118D02*
G03*
X-191508Y-192118I0J-5000D01*
G01*
Y-177118D02*
G03*
X-186508Y-182118I5000J0D01*
G01*
Y-149618D02*
G03*
X-191508Y-154618I0J-5000D01*
G01*
Y-139618D02*
G03*
X-186508Y-144618I5000J0D01*
G01*
Y-124618D02*
G03*
X-191508Y-129618I0J-5000D01*
G01*
X113492D02*
G03*
X108492Y-124618I-5000J0D01*
G01*
X123492D02*
G03*
X118492Y-129618I0J-5000D01*
G01*
X108492Y-144618D02*
G03*
X113492Y-139618I0J5000D01*
G01*
Y-154618D02*
G03*
X108492Y-149618I-5000J0D01*
G01*
X-186508Y-224618D02*
G03*
X-191508Y-229618I0J-5000D01*
G01*
X108579Y-192118D02*
G03*
X113493Y-187118I-87J5000D01*
G01*
X-191508Y-239618D02*
G03*
X-186595Y-244617I5000J0D01*
G01*
X113492Y-202018D02*
G03*
X108592Y-197118I-4900J0D01*
G01*
X118492Y-214718D02*
G03*
X123477Y-219617I4900J0D01*
G01*
X108492Y-219618D02*
G03*
X113492Y-214618I0J5000D01*
G01*
X233492Y-244618D02*
G03*
X238492Y-239618I0J5000D01*
G01*
X238492Y-229530D02*
G03*
X233492Y-224617I-5000J-87D01*
G01*
Y-219618D02*
G03*
X238492Y-214618I0J5000D01*
G01*
Y-129518D02*
G03*
X233421Y-124621I-4900J0D01*
G01*
X243492Y-129618D02*
G03*
X233492Y-119618I-10000J0D01*
G01*
Y-249618D02*
G03*
X243492Y-239618I0J10000D01*
G01*
X-196508Y-239518D02*
G03*
X-186584Y-249616I10100J0D01*
G01*
X-186508Y-119618D02*
G03*
X-196508Y-129618I0J-10000D01*
G01*
X118492Y-187118D02*
G03*
X123492Y-192118I5000J0D01*
G01*
X233492D02*
G03*
X238492Y-187118I0J5000D01*
G01*
X123492Y-197118D02*
G03*
X118492Y-202118I0J-5000D01*
G01*
X238492Y-202018D02*
G03*
X233592Y-197118I-4900J0D01*
G01*
X-4008Y-244618D02*
X163492D01*
X-186508D02*
X-19008D01*
X-186508Y-224618D02*
X-19008D01*
X-4008D02*
X163492D01*
X178492Y-244618D02*
X233492D01*
X178492Y-224618D02*
X233492D01*
X-186508Y-124618D02*
X108492D01*
X-186508Y-249618D02*
X233492D01*
X-186508Y-119618D02*
X233492D01*
X-186508Y-219618D02*
X-111508D01*
X-186508Y-187118D02*
X-111508D01*
X-186508Y-182118D02*
X-111508D01*
X-186508Y-149618D02*
X-111508D01*
X-186508Y-144618D02*
X108492D01*
X-96508Y-149618D02*
X108492D01*
X-96508Y-197118D02*
X63492D01*
X-96508Y-219618D02*
X63492D01*
X78492D02*
X108492D01*
X78492Y-197118D02*
X108492D01*
X123492Y-219618D02*
X233492D01*
X123492Y-124618D02*
X233492D01*
X-96508Y-192118D02*
X108492D01*
X123492D02*
X233492D01*
X123492Y-197118D02*
X233492D01*
X-14008Y-239618D02*
Y-229618D01*
X-9008Y-239618D02*
Y-229618D01*
X168492Y-239618D02*
Y-229618D01*
X173492Y-239618D02*
Y-229618D01*
X243492Y-239618D02*
Y-129618D01*
X-191508Y-214618D02*
Y-192118D01*
X-106508Y-214618D02*
Y-192118D01*
X-191508Y-177118D02*
Y-154618D01*
X-106508Y-177118D02*
Y-154618D01*
X-191508Y-139618D02*
Y-129618D01*
X113492Y-139618D02*
Y-129618D01*
Y-187118D02*
Y-154618D01*
X-101508Y-187118D02*
Y-154618D01*
X68492Y-214618D02*
Y-202118D01*
X-101508Y-214618D02*
Y-202118D01*
X73492Y-214618D02*
Y-202118D01*
X113492Y-214618D02*
Y-202118D01*
X238492Y-239618D02*
Y-229618D01*
X-191508Y-239618D02*
Y-229618D01*
X-196508Y-239618D02*
Y-129618D01*
X118492Y-187118D02*
Y-129618D01*
X238492Y-187118D02*
Y-129618D01*
X118492Y-214618D02*
Y-202118D01*
X238492Y-214618D02*
Y-202018D01*
X138652Y-166692D02*
Y-173090D01*
X141851D01*
X142918Y-172023D01*
Y-170957D01*
X141851Y-169891D01*
X138652D01*
X141851D01*
X142918Y-168825D01*
Y-167758D01*
X141851Y-166692D01*
X138652D01*
X146116Y-173090D02*
X148249D01*
X149316Y-172023D01*
Y-169891D01*
X148249Y-168825D01*
X146116D01*
X145050Y-169891D01*
Y-172023D01*
X146116Y-173090D01*
X155713Y-168825D02*
X152514D01*
X151448Y-169891D01*
Y-172023D01*
X152514Y-173090D01*
X155713D01*
X158912Y-168825D02*
X161045D01*
X162111Y-169891D01*
Y-173090D01*
X158912D01*
X157846Y-172023D01*
X158912Y-170957D01*
X162111D01*
X170642Y-173090D02*
Y-166692D01*
X173841D01*
X174907Y-167758D01*
Y-169891D01*
X173841Y-170957D01*
X170642D01*
X172775D02*
X174907Y-173090D01*
X178106Y-168825D02*
X180239D01*
X181305Y-169891D01*
Y-173090D01*
X178106D01*
X177040Y-172023D01*
X178106Y-170957D01*
X181305D01*
X184504Y-167758D02*
Y-168825D01*
X183438D01*
X185570D01*
X184504D01*
Y-172023D01*
X185570Y-173090D01*
X189836D02*
X191968D01*
X193035Y-172023D01*
Y-169891D01*
X191968Y-168825D01*
X189836D01*
X188769Y-169891D01*
Y-172023D01*
X189836Y-173090D01*
X195167D02*
Y-168825D01*
X198366D01*
X199433Y-169891D01*
Y-173090D01*
X212228Y-166692D02*
X207963D01*
Y-169891D01*
X210096D01*
X207963D01*
Y-173090D01*
X214361Y-166692D02*
Y-173090D01*
X218626D01*
X220759D02*
Y-172023D01*
X221825D01*
Y-173090D01*
X220759D01*
X122652Y-152023D02*
X123719Y-153090D01*
X125851D01*
X126918Y-152023D01*
Y-147758D01*
X125851Y-146692D01*
X123719D01*
X122652Y-147758D01*
Y-148825D01*
X123719Y-149891D01*
X126918D01*
X129050Y-147758D02*
X130116Y-146692D01*
X132249D01*
X133316Y-147758D01*
Y-152023D01*
X132249Y-153090D01*
X130116D01*
X129050Y-152023D01*
Y-147758D01*
X139713Y-153090D02*
X135448D01*
X139713Y-148825D01*
Y-147758D01*
X138647Y-146692D01*
X136514D01*
X135448Y-147758D01*
X152509D02*
X151443Y-146692D01*
X149310D01*
X148244Y-147758D01*
Y-152023D01*
X149310Y-153090D01*
X151443D01*
X152509Y-152023D01*
X154642Y-153090D02*
X156774D01*
X155708D01*
Y-146692D01*
X154642D01*
X159974Y-153090D02*
X162106D01*
X161040D01*
Y-148825D01*
X159974D01*
X165305Y-153090D02*
Y-148825D01*
X168504D01*
X169570Y-149891D01*
Y-153090D01*
X172769Y-147758D02*
Y-148825D01*
X171703D01*
X173836D01*
X172769D01*
Y-152023D01*
X173836Y-153090D01*
X183433D02*
Y-146692D01*
X185565Y-148825D01*
X187698Y-146692D01*
Y-153090D01*
X190897D02*
X193029D01*
X194096Y-152023D01*
Y-149891D01*
X193029Y-148825D01*
X190897D01*
X189831Y-149891D01*
Y-152023D01*
X190897Y-153090D01*
X197295D02*
X199427D01*
X200494Y-152023D01*
Y-149891D01*
X199427Y-148825D01*
X197295D01*
X196228Y-149891D01*
Y-152023D01*
X197295Y-153090D01*
X202626Y-148825D02*
Y-153090D01*
Y-150957D01*
X203693Y-149891D01*
X204759Y-148825D01*
X205825D01*
X212223Y-153090D02*
X210091D01*
X209024Y-152023D01*
Y-149891D01*
X210091Y-148825D01*
X212223D01*
X213290Y-149891D01*
Y-150957D01*
X209024D01*
X221820Y-153090D02*
Y-146692D01*
X225019D01*
X226085Y-147758D01*
Y-149891D01*
X225019Y-150957D01*
X221820D01*
X223953D02*
X226085Y-153090D01*
X232483Y-146692D02*
Y-153090D01*
X229284D01*
X228218Y-152023D01*
Y-149891D01*
X229284Y-148825D01*
X232483D01*
X234616Y-153090D02*
Y-152023D01*
X235682D01*
Y-153090D01*
X234616D01*
X148417Y-178692D02*
X144152D01*
Y-181891D01*
X146285Y-180824D01*
X147351D01*
X148417Y-181891D01*
Y-184023D01*
X147351Y-185090D01*
X145219D01*
X144152Y-184023D01*
X154815Y-178692D02*
X152683Y-179758D01*
X150550Y-181891D01*
Y-184023D01*
X151617Y-185090D01*
X153749D01*
X154815Y-184023D01*
Y-182957D01*
X153749Y-181891D01*
X150550D01*
X156948Y-185090D02*
X159081D01*
X158014D01*
Y-178692D01*
X156948Y-179758D01*
X162280Y-181891D02*
X166545D01*
X168678Y-184023D02*
X169744Y-185090D01*
X171877D01*
X172943Y-184023D01*
Y-179758D01*
X171877Y-178692D01*
X169744D01*
X168678Y-179758D01*
Y-180824D01*
X169744Y-181891D01*
X172943D01*
X175076Y-184023D02*
X176142Y-185090D01*
X178275D01*
X179341Y-184023D01*
Y-179758D01*
X178275Y-178692D01*
X176142D01*
X175076Y-179758D01*
Y-180824D01*
X176142Y-181891D01*
X179341D01*
X181474Y-184023D02*
X182540Y-185090D01*
X184672D01*
X185739Y-184023D01*
Y-179758D01*
X184672Y-178692D01*
X182540D01*
X181474Y-179758D01*
Y-180824D01*
X182540Y-181891D01*
X185739D01*
X187871D02*
X192137D01*
X194269Y-184023D02*
X195336Y-185090D01*
X197468D01*
X198535Y-184023D01*
Y-179758D01*
X197468Y-178692D01*
X195336D01*
X194269Y-179758D01*
Y-180824D01*
X195336Y-181891D01*
X198535D01*
X203866Y-185090D02*
Y-178692D01*
X200667Y-181891D01*
X204933D01*
X211331Y-185090D02*
X207065D01*
X211331Y-180824D01*
Y-179758D01*
X210264Y-178692D01*
X208132D01*
X207065Y-179758D01*
X217728Y-185090D02*
X213463D01*
X217728Y-180824D01*
Y-179758D01*
X216662Y-178692D01*
X214529D01*
X213463Y-179758D01*
X156418Y-158258D02*
X155351Y-157192D01*
X153219D01*
X152152Y-158258D01*
Y-159325D01*
X153219Y-160391D01*
X155351D01*
X156418Y-161457D01*
Y-162523D01*
X155351Y-163590D01*
X153219D01*
X152152Y-162523D01*
X158550Y-159325D02*
Y-162523D01*
X159616Y-163590D01*
X162815D01*
Y-159325D01*
X164948Y-163590D02*
X167081D01*
X166014D01*
Y-159325D01*
X164948D01*
X171346Y-158258D02*
Y-159325D01*
X170280D01*
X172412D01*
X171346D01*
Y-162523D01*
X172412Y-163590D01*
X178810D02*
X176678D01*
X175611Y-162523D01*
Y-160391D01*
X176678Y-159325D01*
X178810D01*
X179877Y-160391D01*
Y-161457D01*
X175611D01*
X188407Y-163590D02*
X190540D01*
X189473D01*
Y-157192D01*
X188407Y-158258D01*
X193739Y-163590D02*
X195871D01*
X194805D01*
Y-157192D01*
X193739Y-158258D01*
X199070D02*
X200137Y-157192D01*
X202269D01*
X203336Y-158258D01*
Y-159325D01*
X202269Y-160391D01*
X203336Y-161457D01*
Y-162523D01*
X202269Y-163590D01*
X200137D01*
X199070Y-162523D01*
Y-161457D01*
X200137Y-160391D01*
X199070Y-159325D01*
Y-158258D01*
X200137Y-160391D02*
X202269D01*
X-185400Y-81100D02*
Y17800D01*
Y-81100D02*
X4800D01*
X-185400Y17800D02*
X4800D01*
Y-81100D02*
Y17800D01*
D33*
X-141500Y-3500D02*
Y300D01*
X-140400Y1400D01*
X-138500D01*
D34*
X-167900Y-39700D02*
X-166000Y-37800D01*
X-159800D01*
X-108500Y-73100D02*
Y-72000D01*
X-107000Y-70500D02*
X-105000D01*
X-108500Y-72000D02*
X-107000Y-70500D01*
D35*
X-156800Y-39800D02*
X-154500D01*
X-169200Y-68500D02*
X-167800Y-67100D01*
Y-63500D01*
X-150700Y-31800D02*
X-144700D01*
X-174000Y-66300D02*
X-171000Y-69300D01*
X-168300Y-63000D02*
X-167800Y-63500D01*
X-174000Y-63000D02*
X-168300D01*
Y-52100D02*
X-167700Y-51500D01*
X-144700Y-37800D02*
X-144200Y-37300D01*
X-174300Y-58600D02*
Y-57906D01*
Y-53100D01*
Y-52700D01*
X-173900Y-52100D02*
X-168300D01*
X-171000Y-69300D02*
X-169200D01*
X-164200D01*
X-174000Y-66300D02*
Y-63906D01*
Y-63000D01*
X-177400Y-47200D02*
X-173900D01*
D36*
X-137600Y13900D02*
X-135000Y11300D01*
X-139100Y13900D02*
X-137600D01*
X-139100D02*
X-137700D01*
X-140700D02*
X-139100D01*
X-63000Y-36700D02*
X-45400D01*
X-65200Y-34500D02*
X-63000Y-36700D01*
X-61700Y-40000D02*
X-43000D01*
X-113500Y-51100D02*
X-113500Y-51100D01*
X-113500Y-57000D02*
Y-51100D01*
Y-57000D02*
X-112000Y-58500D01*
X-108500D01*
X-105000Y-62000D01*
X-99759D01*
X-41400Y-27250D02*
X-33750Y-19600D01*
X-139500Y12000D02*
Y15500D01*
X-140700Y14400D02*
X-137700D01*
X-140700Y12900D02*
X-137700D01*
X-140500Y12000D02*
Y15500D01*
X-140000Y12000D02*
Y15500D01*
X-138000Y12000D02*
Y15500D01*
X-137700Y12000D02*
Y15500D01*
X-139000Y12000D02*
Y15500D01*
X-138500Y12000D02*
Y15500D01*
X-140700Y14900D02*
X-137700D01*
X-140700Y15500D02*
X-137700D01*
X-140700Y15400D02*
X-137700D01*
X-140700Y13400D02*
X-137700D01*
X-140700Y12400D02*
X-137700D01*
X-140700Y12000D02*
Y15500D01*
Y12000D02*
X-137700D01*
X-61300Y-10400D02*
X-58800Y-12900D01*
X-60600Y-6800D02*
X-57700Y-9700D01*
X-64300Y-8700D02*
X-63200Y-7600D01*
Y-6000D01*
X-82700Y-15500D02*
X-80700D01*
X-82600Y-21500D02*
X-79700Y-18600D01*
X-103800Y-24300D02*
Y-21700D01*
X-107700Y-19400D02*
X-106100D01*
X-110059Y-21759D02*
X-107700Y-19400D01*
X-106100D02*
X-103800Y-21700D01*
X-49500Y-27200D02*
X-48700Y-28000D01*
X-48000Y-22900D02*
X-44500Y-26400D01*
X-48000Y-22900D02*
Y-16700D01*
X-51800Y-12900D02*
X-48000Y-16700D01*
X-58800Y-12900D02*
X-51800D01*
X-115600Y-19500D02*
X-112831Y-16731D01*
X-104831D01*
X-80700Y-32300D02*
X-77700D01*
X-80700D02*
Y-28800D01*
Y-32100D02*
X-77700D01*
X-80700Y-31100D02*
X-77700D01*
X-80700Y-29100D02*
X-78263D01*
X-80700Y-28800D02*
X-78563D01*
X-80700Y-30600D02*
X-77700D01*
X-80700Y-29600D02*
X-77763D01*
X-80700Y-30100D02*
X-77700D01*
X-80000Y-32300D02*
Y-28800D01*
X-80500Y-32300D02*
Y-28800D01*
X-79000Y-32300D02*
Y-28800D01*
X-79500Y-32300D02*
Y-28800D01*
X-78000Y-32300D02*
Y-29363D01*
X-78500Y-32300D02*
Y-28863D01*
X-80700Y-31600D02*
X-77700D01*
X-78563Y-28800D02*
X-77700Y-29663D01*
Y-32300D02*
Y-29663D01*
X-44500Y-35800D02*
Y-26400D01*
X-65700Y-34000D02*
Y-28500D01*
X-45400Y-36700D02*
X-44500Y-35800D01*
X-97759Y-60000D02*
Y-57200D01*
X-99759Y-62000D02*
X-97759Y-60000D01*
X-79700Y-18600D02*
Y-16800D01*
X-80700Y-15500D02*
X-73900Y-8700D01*
X-64300D01*
X-79700Y-16800D02*
X-73300Y-10400D01*
X-61300D01*
X-73600Y-6100D02*
X-66800D01*
X-85600Y-21500D02*
X-82700D01*
X-82600D01*
X-65700Y-34000D02*
X-65200Y-34500D01*
X-95100Y-15500D02*
X-94700D01*
X-103100Y-25000D02*
X-95700D01*
X-102700Y-18600D02*
X-99200D01*
X-97500Y-20300D01*
X-95200D01*
X-88500Y-21300D02*
X-82700Y-15500D01*
X-58963Y-15000D02*
X-52200D01*
X-49500Y-17700D01*
Y-27200D02*
Y-17700D01*
X-61863Y-12100D02*
X-58963Y-15000D01*
X-78100Y-17600D02*
X-72600Y-12100D01*
X-61863D01*
X-78100Y-21800D02*
Y-17600D01*
X-96700Y-18500D02*
X-94454D01*
X-91654Y-21300D01*
X-88500D01*
X-81300Y-25000D02*
X-78100Y-21800D01*
X-87300Y-23200D02*
X-85600Y-21500D01*
X-95200Y-20300D02*
X-94200Y-21300D01*
X-92300Y-23200D01*
X-87300D01*
X-99500Y-22500D02*
X-95601D01*
X-93101Y-25000D01*
X-81300D01*
X-95700D02*
X-94200Y-26500D01*
X-99500Y-27700D02*
X-95800D01*
X-95200Y-28300D01*
X-84000D01*
X-83300Y-29000D01*
X-82100D01*
X-64100Y-38300D02*
X-44300D01*
X-41400Y-35400D01*
Y-27250D01*
X-66100Y-40300D02*
X-64100Y-38300D01*
X-75800Y-36800D02*
X-72300Y-40300D01*
X-66100D01*
X-75800Y-36800D02*
Y-29300D01*
X-94200Y-26500D02*
X-82100D01*
X-78000Y-27100D02*
X-75800Y-29300D01*
X-82100Y-26500D02*
X-81500Y-27100D01*
X-78000D01*
X-81141Y-32169D02*
Y-29959D01*
X-82100Y-29000D02*
X-81141Y-29959D01*
X-58800Y-4900D02*
X-52600Y-11100D01*
X-47100D01*
X-43750Y-14450D01*
Y-19600D02*
Y-14450D01*
X-58800Y-4900D02*
Y1800D01*
X-68300Y3500D02*
X-60500D01*
X-58800Y1800D01*
X-71500Y300D02*
X-68300Y3500D01*
X-78000Y1900D02*
X-76400Y300D01*
X-71500D01*
X-78000Y1900D02*
Y9700D01*
X-80400Y12100D02*
X-78000Y9700D01*
X-88300Y8100D02*
Y10900D01*
X-87100Y12100D01*
X-80400D01*
X-103800Y4800D02*
X-101500Y7100D01*
X-95500D02*
X-94600Y6200D01*
X-101500Y7100D02*
X-95500D01*
X-90200Y6200D02*
X-88300Y8100D01*
X-94600Y6200D02*
X-90200D01*
X-69300Y-60500D02*
Y-56000D01*
X-60600Y-6800D02*
Y-4100D01*
X-69500D02*
X-68500Y-3100D01*
X-61600D01*
X-60600Y-4100D01*
X-79300Y-5500D02*
X-77900Y-4100D01*
X-69500D01*
X-79300Y-9200D02*
Y-5500D01*
X-80300Y-12800D02*
X-73600Y-6100D01*
X-81300Y-11200D02*
X-79300Y-9200D01*
X-96200Y-14400D02*
X-95100Y-15500D01*
X-110900Y-15100D02*
X-105800D01*
X-105100Y-14400D01*
X-120100Y-13600D02*
X-119800Y-13300D01*
X-112700D01*
X-110900Y-15100D01*
X-99200Y-16000D02*
X-96700Y-18500D01*
X-104831Y-16731D02*
X-104100Y-16000D01*
X-99200D01*
X-105100Y-14400D02*
X-96200D01*
X-104100Y-12800D02*
X-80300D01*
X-117736Y836D02*
Y6000D01*
Y836D02*
X-104100Y-12800D01*
X-103437Y-11200D02*
X-81300D01*
X-115135Y498D02*
Y5958D01*
Y498D02*
X-103437Y-11200D01*
X-138134Y-86502D02*
Y-94500D01*
X-140800Y-86502D02*
X-135468D01*
X-132611Y-89168D02*
X-133373Y-89549D01*
X-134135Y-90310D01*
X-134516Y-91453D01*
Y-92215D01*
X-134135Y-93357D01*
X-133373Y-94119D01*
X-132611Y-94500D01*
X-131469D01*
X-130707Y-94119D01*
X-129945Y-93357D01*
X-129564Y-92215D01*
Y-91453D01*
X-129945Y-90310D01*
X-130707Y-89549D01*
X-131469Y-89168D01*
X-132611D01*
X-127812D02*
Y-97166D01*
Y-90310D02*
X-127051Y-89549D01*
X-126289Y-89168D01*
X-125146D01*
X-124384Y-89549D01*
X-123623Y-90310D01*
X-123242Y-91453D01*
Y-92215D01*
X-123623Y-93357D01*
X-124384Y-94119D01*
X-125146Y-94500D01*
X-126289D01*
X-127051Y-94119D01*
X-127812Y-93357D01*
X-121528Y-86502D02*
Y-94500D01*
X-116957D01*
X-111511Y-89168D02*
Y-94500D01*
Y-90310D02*
X-112273Y-89549D01*
X-113034Y-89168D01*
X-114177D01*
X-114939Y-89549D01*
X-115701Y-90310D01*
X-116082Y-91453D01*
Y-92215D01*
X-115701Y-93357D01*
X-114939Y-94119D01*
X-114177Y-94500D01*
X-113034D01*
X-112273Y-94119D01*
X-111511Y-93357D01*
X-108997Y-89168D02*
X-106712Y-94500D01*
X-104427Y-89168D02*
X-106712Y-94500D01*
X-107474Y-96023D01*
X-108236Y-96785D01*
X-108997Y-97166D01*
X-109378D01*
X-103094Y-91453D02*
X-98523D01*
Y-90691D01*
X-98904Y-89929D01*
X-99285Y-89549D01*
X-100047Y-89168D01*
X-101189D01*
X-101951Y-89549D01*
X-102713Y-90310D01*
X-103094Y-91453D01*
Y-92215D01*
X-102713Y-93357D01*
X-101951Y-94119D01*
X-101189Y-94500D01*
X-100047D01*
X-99285Y-94119D01*
X-98523Y-93357D01*
X-96809Y-89168D02*
Y-94500D01*
Y-91453D02*
X-96429Y-90310D01*
X-95667Y-89549D01*
X-94905Y-89168D01*
X-93762D01*
X-145672Y-192391D02*
Y-196454D01*
X-145926Y-197215D01*
X-146180Y-197469D01*
X-146688Y-197723D01*
X-147196D01*
X-147704Y-197469D01*
X-147958Y-197215D01*
X-148212Y-196454D01*
Y-195946D01*
X-144047Y-197215D02*
X-144301Y-197469D01*
X-144047Y-197723D01*
X-143793Y-197469D01*
X-144047Y-197215D01*
X-142625Y-192391D02*
Y-197723D01*
Y-192391D02*
X-139070Y-197723D01*
Y-192391D02*
Y-197723D01*
D37*
X-176400Y-13400D02*
X-172200D01*
X-173900Y-32200D02*
X-170100Y-28400D01*
X-174900Y-1900D02*
X-163400D01*
X-176400Y-3400D02*
X-174900Y-1900D01*
X-176400Y-7400D02*
Y-3400D01*
X-179900Y-10900D02*
X-176400Y-7400D01*
X-179900Y-15900D02*
Y-10900D01*
Y-15900D02*
X-176400Y-19400D01*
X-168900Y-7900D02*
X-163400D01*
X-179900Y-42100D02*
Y-37100D01*
Y-32200D01*
X-173900Y-42100D02*
Y-37100D01*
Y-32200D01*
D38*
X-129700Y-48500D02*
Y-41800D01*
X-127500Y-39600D01*
Y-39000D01*
X-107500Y-27500D02*
X-106400Y-28600D01*
X-107500Y-27500D02*
Y-24709D01*
X-141500Y-6900D02*
Y-3500D01*
X-138700Y-9900D02*
X-138600Y-9800D01*
X-138700Y-14000D02*
Y-9900D01*
X-141500Y-6900D02*
X-138600Y-9800D01*
X-91500Y-57300D02*
X-91500Y-53400D01*
X-145400Y-2400D02*
Y1800D01*
X-118500Y-57300D02*
X-118500Y-57300D01*
Y-51100D01*
X-144700Y-20000D02*
X-138700Y-14000D01*
X-83800Y6400D02*
X-82800Y5400D01*
X-91500Y-53400D02*
X-89700Y-51600D01*
Y-49500D02*
X-89200Y-49000D01*
X-89700Y-51600D02*
Y-49500D01*
X-82800Y-2000D02*
Y5400D01*
X-109700Y-36500D02*
X-107900D01*
X-106400Y-35000D01*
X-71700Y-28500D02*
Y-25800D01*
X-68350Y-24200D02*
X-63750Y-19600D01*
X-70100Y-24200D02*
X-68350D01*
X-71700Y-25800D02*
X-70100Y-24200D01*
X-171000Y-74500D02*
X-169200D01*
X-173900Y-77400D02*
X-171000Y-74500D01*
X-177600Y-71400D02*
X-173900D01*
X-160200Y-46000D02*
X-156700D01*
X-153200D01*
X-156700Y-48900D02*
Y-46000D01*
X-169200Y-74418D02*
X-162232D01*
X-156782D01*
X-149200Y-64300D02*
X-144200D01*
X-149200D02*
Y-53568D01*
Y-51800D01*
Y-41800D01*
X-139200Y-43800D02*
Y-41800D01*
X-134200Y-64300D02*
X-129700D01*
X-147393Y-53568D02*
X-146193D01*
X-139200D01*
X-131993D01*
X-131176D01*
X-129700Y-64300D02*
Y-53568D01*
Y-48500D01*
X-149200Y-41800D02*
X-144213D01*
X-144200D01*
X-139200D01*
X-134300D01*
X-129700D01*
X-106400Y-35000D02*
Y-32169D01*
Y-28600D01*
X127652Y-142590D02*
Y-135925D01*
X130984Y-132593D01*
X134317Y-135925D01*
Y-142590D01*
Y-137591D01*
X127652D01*
X144314Y-135925D02*
X139315D01*
X137649Y-137591D01*
Y-140924D01*
X139315Y-142590D01*
X144314D01*
X149312Y-134259D02*
Y-135925D01*
X147646D01*
X150978D01*
X149312D01*
Y-140924D01*
X150978Y-142590D01*
X155976D02*
X159309D01*
X157643D01*
Y-135925D01*
X155976D01*
X164307D02*
X167639Y-142590D01*
X170972Y-135925D01*
X179302Y-142590D02*
X175970D01*
X174304Y-140924D01*
Y-137591D01*
X175970Y-135925D01*
X179302D01*
X180968Y-137591D01*
Y-139258D01*
X174304D01*
X194297Y-132593D02*
Y-142590D01*
X197630Y-139258D01*
X200962Y-142590D01*
Y-132593D01*
X205960Y-135925D02*
X209293D01*
X210959Y-137591D01*
Y-142590D01*
X205960D01*
X204294Y-140924D01*
X205960Y-139258D01*
X210959D01*
X214291Y-135925D02*
X217623Y-142590D01*
X220955Y-135925D01*
X229286Y-142590D02*
X225954D01*
X224288Y-140924D01*
Y-137591D01*
X225954Y-135925D01*
X229286D01*
X230952Y-137591D01*
Y-139258D01*
X224288D01*
D39*
X-69200Y-52000D02*
X-64000D01*
X-61500Y-49500D01*
X-68940Y-51740D02*
Y-43949D01*
X-69200Y-52000D02*
X-68940Y-51740D01*
X-56800Y-44096D02*
X-56700Y-44196D01*
X-90213Y-67300D02*
X-84000D01*
X-15098Y-44500D02*
X-11500Y-48098D01*
X-18500Y-47902D02*
X-15098Y-44500D01*
X-18500Y-54000D02*
Y-47902D01*
X-11500Y-54000D02*
Y-48098D01*
X-126811Y-70511D02*
Y-66992D01*
X-131159Y-69941D02*
X-128700Y-72400D01*
X-126811Y-66992D02*
X-123500Y-63682D01*
X-128700Y-72400D02*
X-126811Y-70511D01*
X-134259Y-69941D02*
X-131159D01*
X-93900Y-69613D02*
X-90213Y-73300D01*
X-93900Y-64241D02*
X-91500Y-61841D01*
X-123500Y-63682D02*
Y-51100D01*
X-91500Y-61841D02*
Y-57300D01*
X-123500Y-63682D02*
X-117218D01*
X-78600Y15100D02*
X-74400Y10900D01*
Y3400D02*
Y10900D01*
X-90900Y13400D02*
X-89200Y15100D01*
X-90900Y9200D02*
Y13400D01*
X-89200Y15100D02*
X-78600D01*
X-75500Y-24700D02*
X-71700Y-28500D01*
X-117218Y-63682D02*
X-114400Y-66500D01*
X-93900D01*
Y-69613D02*
Y-66500D01*
Y-64241D01*
X-61500Y-49500D02*
X-56700D01*
Y-56000D02*
Y-49500D01*
Y-44196D01*
X-29000Y-44500D02*
X-22000D01*
X-15098D01*
X-77000Y-24700D02*
X-75500D01*
D40*
X-170100Y-28400D02*
X-160600D01*
X-148700D01*
X-102877Y-57200D02*
Y-50800D01*
X-101700D01*
X-182400Y-28700D02*
Y15200D01*
X-148700Y-28400D02*
Y11900D01*
X-182400Y-28700D02*
X-179900D01*
X-176400D01*
X-182400Y15200D02*
X-178300D01*
X-176300D01*
X-174300D01*
X-172300D01*
X-170300D01*
X-168300D01*
X-166300D01*
X-164300D01*
X-162300D01*
X-160300D01*
X-158300D01*
X-156300D01*
X-154300D01*
X-152300D01*
X-152000D01*
X-178300Y11900D02*
X-176300D01*
X-174300D01*
X-172300D01*
X-170300D01*
X-168300D01*
X-166300D01*
X-164300D01*
X-162300D01*
X-160300D01*
X-158300D01*
X-156300D01*
X-154300D01*
X-152300D01*
X-148700D01*
D41*
X-178300D02*
Y15200D01*
X-176300Y11900D02*
Y15200D01*
X-174300Y11900D02*
Y15200D01*
X-172300Y11900D02*
Y15200D01*
X-168300Y11900D02*
Y15200D01*
X-164300Y11900D02*
Y15200D01*
X-162300Y11900D02*
Y15200D01*
X-170300Y11900D02*
Y15200D01*
X-166300Y11900D02*
Y15200D01*
X-154300Y11900D02*
Y15200D01*
X-152300Y11900D02*
Y15200D01*
X-160300Y11900D02*
Y15200D01*
X-156300Y11900D02*
Y15200D01*
X-158300Y11900D02*
Y15200D01*
X-201399Y-42348D02*
X-201114Y-43205D01*
X-200257Y-43776D01*
X-198828Y-44062D01*
X-197971D01*
X-196543Y-43776D01*
X-195686Y-43205D01*
X-195401Y-42348D01*
Y-41777D01*
X-195686Y-40920D01*
X-196543Y-40349D01*
X-197971Y-40063D01*
X-198828D01*
X-200257Y-40349D01*
X-201114Y-40920D01*
X-201399Y-41777D01*
Y-42348D01*
X-195972Y-38435D02*
X-195686Y-38720D01*
X-195401Y-38435D01*
X-195686Y-38149D01*
X-195972Y-38435D01*
X-199400Y-33121D02*
X-198543Y-33407D01*
X-197971Y-33978D01*
X-197686Y-34835D01*
Y-35121D01*
X-197971Y-35978D01*
X-198543Y-36549D01*
X-199400Y-36835D01*
X-199685D01*
X-200542Y-36549D01*
X-201114Y-35978D01*
X-201399Y-35121D01*
Y-34835D01*
X-201114Y-33978D01*
X-200542Y-33407D01*
X-199400Y-33121D01*
X-197971D01*
X-196543Y-33407D01*
X-195686Y-33978D01*
X-195401Y-34835D01*
Y-35407D01*
X-195686Y-36264D01*
X-196258Y-36549D01*
X-201399Y-30065D02*
X-201114Y-30922D01*
X-200542Y-31208D01*
X-199971D01*
X-199400Y-30922D01*
X-199114Y-30351D01*
X-198828Y-29208D01*
X-198543Y-28351D01*
X-197971Y-27780D01*
X-197400Y-27494D01*
X-196543D01*
X-195972Y-27780D01*
X-195686Y-28065D01*
X-195401Y-28922D01*
Y-30065D01*
X-195686Y-30922D01*
X-195972Y-31208D01*
X-196543Y-31493D01*
X-197400D01*
X-197971Y-31208D01*
X-198543Y-30636D01*
X-198828Y-29779D01*
X-199114Y-28637D01*
X-199400Y-28065D01*
X-199971Y-27780D01*
X-200542D01*
X-201114Y-28065D01*
X-201399Y-28922D01*
Y-30065D01*
X-199400Y-22438D02*
X-198543Y-22724D01*
X-197971Y-23295D01*
X-197686Y-24152D01*
Y-24438D01*
X-197971Y-25295D01*
X-198543Y-25866D01*
X-199400Y-26151D01*
X-199685D01*
X-200542Y-25866D01*
X-201114Y-25295D01*
X-201399Y-24438D01*
Y-24152D01*
X-201114Y-23295D01*
X-200542Y-22724D01*
X-199400Y-22438D01*
X-197971D01*
X-196543Y-22724D01*
X-195686Y-23295D01*
X-195401Y-24152D01*
Y-24723D01*
X-195686Y-25580D01*
X-196258Y-25866D01*
X-102383Y36257D02*
X-101812Y36542D01*
X-100955Y37399D01*
Y31401D01*
X-97699Y31972D02*
X-97984Y31686D01*
X-97699Y31401D01*
X-97413Y31686D01*
X-97699Y31972D01*
X-92386Y35400D02*
X-92671Y34543D01*
X-93243Y33972D01*
X-94099Y33686D01*
X-94385D01*
X-95242Y33972D01*
X-95814Y34543D01*
X-96099Y35400D01*
Y35685D01*
X-95814Y36542D01*
X-95242Y37114D01*
X-94385Y37399D01*
X-94099D01*
X-93243Y37114D01*
X-92671Y36542D01*
X-92386Y35400D01*
Y33972D01*
X-92671Y32543D01*
X-93243Y31686D01*
X-94099Y31401D01*
X-94671D01*
X-95528Y31686D01*
X-95814Y32258D01*
X-89043Y37399D02*
X-89900Y37114D01*
X-90472Y36257D01*
X-90757Y34828D01*
Y33972D01*
X-90472Y32543D01*
X-89900Y31686D01*
X-89043Y31401D01*
X-88472D01*
X-87615Y31686D01*
X-87044Y32543D01*
X-86758Y33972D01*
Y34828D01*
X-87044Y36257D01*
X-87615Y37114D01*
X-88472Y37399D01*
X-89043D01*
X-85130Y35971D02*
Y36257D01*
X-84844Y36828D01*
X-84559Y37114D01*
X-83987Y37399D01*
X-82845D01*
X-82274Y37114D01*
X-81988Y36828D01*
X-81702Y36257D01*
Y35685D01*
X-81988Y35114D01*
X-82559Y34257D01*
X-85416Y31401D01*
X-81416D01*
D42*
X-16501Y-165802D02*
Y-175400D01*
X-19700Y-165802D02*
X-13301D01*
X-6674Y-169001D02*
Y-175400D01*
Y-170372D02*
X-7588Y-169458D01*
X-8502Y-169001D01*
X-9873D01*
X-10788Y-169458D01*
X-11702Y-170372D01*
X-12159Y-171744D01*
Y-172658D01*
X-11702Y-174029D01*
X-10788Y-174943D01*
X-9873Y-175400D01*
X-8502D01*
X-7588Y-174943D01*
X-6674Y-174029D01*
X1370Y-169001D02*
Y-176314D01*
X913Y-177685D01*
X456Y-178142D01*
X-458Y-178599D01*
X-1830D01*
X-2744Y-178142D01*
X1370Y-170372D02*
X456Y-169458D01*
X-458Y-169001D01*
X-1830D01*
X-2744Y-169458D01*
X-3658Y-170372D01*
X-4115Y-171744D01*
Y-172658D01*
X-3658Y-174029D01*
X-2744Y-174943D01*
X-1830Y-175400D01*
X-458D01*
X456Y-174943D01*
X1370Y-174029D01*
X3929Y-167630D02*
X4843Y-167173D01*
X6214Y-165802D01*
Y-175400D01*
X13710Y-165802D02*
X12339Y-166259D01*
X11425Y-167630D01*
X10968Y-169915D01*
Y-171287D01*
X11425Y-173572D01*
X12339Y-174943D01*
X13710Y-175400D01*
X14624D01*
X15995Y-174943D01*
X16909Y-173572D01*
X17366Y-171287D01*
Y-169915D01*
X16909Y-167630D01*
X15995Y-166259D01*
X14624Y-165802D01*
X13710D01*
X19972Y-168087D02*
Y-167630D01*
X20428Y-166716D01*
X20886Y-166259D01*
X21800Y-165802D01*
X23628D01*
X24542Y-166259D01*
X24999Y-166716D01*
X25456Y-167630D01*
Y-168544D01*
X24999Y-169458D01*
X24085Y-170829D01*
X19514Y-175400D01*
X25913D01*
X-76195Y-139118D02*
X-79852Y-129520D01*
X-83508Y-139118D01*
X-82137Y-135918D02*
X-77566D01*
X-68471Y-134090D02*
X-69385Y-133176D01*
X-70300Y-132719D01*
X-71671D01*
X-72585Y-133176D01*
X-73499Y-134090D01*
X-73956Y-135461D01*
Y-136375D01*
X-73499Y-137747D01*
X-72585Y-138661D01*
X-71671Y-139118D01*
X-70300D01*
X-69385Y-138661D01*
X-68471Y-137747D01*
X-65043Y-129520D02*
Y-137290D01*
X-64586Y-138661D01*
X-63672Y-139118D01*
X-62758D01*
X-66415Y-132719D02*
X-63215D01*
X-60473Y-129520D02*
X-60016Y-129977D01*
X-59559Y-129520D01*
X-60016Y-129063D01*
X-60473Y-129520D01*
X-60016Y-132719D02*
Y-139118D01*
X-57868Y-132719D02*
X-55126Y-139118D01*
X-52383Y-132719D02*
X-55126Y-139118D01*
X-50829Y-135461D02*
X-45345D01*
Y-134547D01*
X-45802Y-133633D01*
X-46259Y-133176D01*
X-47173Y-132719D01*
X-48544D01*
X-49458Y-133176D01*
X-50372Y-134090D01*
X-50829Y-135461D01*
Y-136375D01*
X-50372Y-137747D01*
X-49458Y-138661D01*
X-48544Y-139118D01*
X-47173D01*
X-46259Y-138661D01*
X-45345Y-137747D01*
X-35747Y-129520D02*
X-33462Y-139118D01*
X-31176Y-129520D02*
X-33462Y-139118D01*
X-31176Y-129520D02*
X-28891Y-139118D01*
X-26606Y-129520D02*
X-28891Y-139118D01*
X-19202Y-132719D02*
Y-139118D01*
Y-134090D02*
X-20116Y-133176D01*
X-21030Y-132719D01*
X-22401D01*
X-23315Y-133176D01*
X-24229Y-134090D01*
X-24686Y-135461D01*
Y-136375D01*
X-24229Y-137747D01*
X-23315Y-138661D01*
X-22401Y-139118D01*
X-21030D01*
X-20116Y-138661D01*
X-19202Y-137747D01*
X-16642Y-132719D02*
X-13900Y-139118D01*
X-11158Y-132719D02*
X-13900Y-139118D01*
X-9604Y-135461D02*
X-4119D01*
Y-134547D01*
X-4576Y-133633D01*
X-5034Y-133176D01*
X-5948Y-132719D01*
X-7319D01*
X-8233Y-133176D01*
X-9147Y-134090D01*
X-9604Y-135461D01*
Y-136375D01*
X-9147Y-137747D01*
X-8233Y-138661D01*
X-7319Y-139118D01*
X-5948D01*
X-5034Y-138661D01*
X-4119Y-137747D01*
X94996Y-209305D02*
Y-209051D01*
X95250Y-208543D01*
X95504Y-208289D01*
X96012Y-208035D01*
X97027D01*
X97535Y-208289D01*
X97789Y-208543D01*
X98043Y-209051D01*
Y-209559D01*
X97789Y-210067D01*
X97281Y-210828D01*
X94742Y-213368D01*
X98297D01*
X101014Y-208035D02*
X100252Y-208289D01*
X99744Y-209051D01*
X99490Y-210321D01*
Y-211083D01*
X99744Y-212352D01*
X100252Y-213114D01*
X101014Y-213368D01*
X101522D01*
X102283Y-213114D01*
X102791Y-212352D01*
X103045Y-211083D01*
Y-210321D01*
X102791Y-209051D01*
X102283Y-208289D01*
X101522Y-208035D01*
X101014D01*
X168016Y-205831D02*
X165477D01*
X165223Y-208117D01*
X165477Y-207863D01*
X166239Y-207609D01*
X167000D01*
X167762Y-207863D01*
X168270Y-208370D01*
X168524Y-209132D01*
Y-209640D01*
X168270Y-210402D01*
X167762Y-210910D01*
X167000Y-211164D01*
X166239D01*
X165477Y-210910D01*
X165223Y-210656D01*
X164969Y-210148D01*
X169717Y-211925D02*
X173272Y-205831D01*
X173882Y-207101D02*
Y-206847D01*
X174135Y-206339D01*
X174389Y-206085D01*
X174897Y-205831D01*
X175913D01*
X176421Y-206085D01*
X176675Y-206339D01*
X176929Y-206847D01*
Y-207355D01*
X176675Y-207863D01*
X176167Y-208624D01*
X173628Y-211164D01*
X177182D01*
X181423Y-205831D02*
X178884D01*
X178630Y-208117D01*
X178884Y-207863D01*
X179646Y-207609D01*
X180407D01*
X181169Y-207863D01*
X181677Y-208370D01*
X181931Y-209132D01*
Y-209640D01*
X181677Y-210402D01*
X181169Y-210910D01*
X180407Y-211164D01*
X179646D01*
X178884Y-210910D01*
X178630Y-210656D01*
X178376Y-210148D01*
X183124Y-211925D02*
X186679Y-205831D01*
X187288Y-207101D02*
Y-206847D01*
X187542Y-206339D01*
X187796Y-206085D01*
X188304Y-205831D01*
X189320D01*
X189828Y-206085D01*
X190082Y-206339D01*
X190335Y-206847D01*
Y-207355D01*
X190082Y-207863D01*
X189574Y-208624D01*
X187034Y-211164D01*
X190589D01*
X193306Y-205831D02*
X192544Y-206085D01*
X192037Y-206847D01*
X191783Y-208117D01*
Y-208878D01*
X192037Y-210148D01*
X192544Y-210910D01*
X193306Y-211164D01*
X193814D01*
X194576Y-210910D01*
X195084Y-210148D01*
X195338Y-208878D01*
Y-208117D01*
X195084Y-206847D01*
X194576Y-206085D01*
X193814Y-205831D01*
X193306D01*
X196531Y-206847D02*
X197039Y-206593D01*
X197801Y-205831D01*
Y-211164D01*
X200695Y-207101D02*
Y-206847D01*
X200949Y-206339D01*
X201203Y-206085D01*
X201711Y-205831D01*
X202727D01*
X203234Y-206085D01*
X203488Y-206339D01*
X203742Y-206847D01*
Y-207355D01*
X203488Y-207863D01*
X202980Y-208624D01*
X200441Y-211164D01*
X203996D01*
D43*
X183301Y-229555D02*
X183047Y-229047D01*
X182539Y-228539D01*
X182031Y-228286D01*
X181016D01*
X180508Y-228539D01*
X180000Y-229047D01*
X179746Y-229555D01*
X179492Y-230317D01*
Y-231586D01*
X179746Y-232348D01*
X180000Y-232856D01*
X180508Y-233364D01*
X181016Y-233618D01*
X182031D01*
X182539Y-233364D01*
X183047Y-232856D01*
X183301Y-232348D01*
Y-231586D01*
X182031D02*
X183301D01*
X187820Y-228286D02*
X184520D01*
Y-233618D01*
X187820D01*
X184520Y-230825D02*
X186551D01*
X188709Y-228286D02*
Y-233618D01*
Y-228286D02*
X190994D01*
X191756Y-228539D01*
X192010Y-228793D01*
X192264Y-229301D01*
Y-229809D01*
X192010Y-230317D01*
X191756Y-230571D01*
X190994Y-230825D01*
X188709D01*
X190487D02*
X192264Y-233618D01*
X193457Y-228286D02*
Y-233618D01*
Y-228286D02*
X195743D01*
X196504Y-228539D01*
X196758Y-228793D01*
X197012Y-229301D01*
Y-229809D01*
X196758Y-230317D01*
X196504Y-230571D01*
X195743Y-230825D01*
X193457D02*
X195743D01*
X196504Y-231079D01*
X196758Y-231332D01*
X197012Y-231840D01*
Y-232602D01*
X196758Y-233110D01*
X196504Y-233364D01*
X195743Y-233618D01*
X193457D01*
X201506Y-228286D02*
X198205D01*
Y-233618D01*
X201506D01*
X198205Y-230825D02*
X200237D01*
X202395Y-228286D02*
Y-233618D01*
Y-228286D02*
X204680D01*
X205442Y-228539D01*
X205696Y-228793D01*
X205950Y-229301D01*
Y-229809D01*
X205696Y-230317D01*
X205442Y-230571D01*
X204680Y-230825D01*
X202395D01*
X204173D02*
X205950Y-233618D01*
X207397Y-230063D02*
X207143Y-230317D01*
X207397Y-230571D01*
X207651Y-230317D01*
X207397Y-230063D01*
Y-233110D02*
X207143Y-233364D01*
X207397Y-233618D01*
X207651Y-233364D01*
X207397Y-233110D01*
X-186508Y-228286D02*
Y-233618D01*
Y-228286D02*
X-183207D01*
X-186508Y-230825D02*
X-184477D01*
X-182598Y-228286D02*
Y-233618D01*
X-181481Y-228286D02*
Y-233618D01*
X-178434D01*
X-174549Y-228286D02*
X-177849D01*
Y-233618D01*
X-174549D01*
X-177849Y-230825D02*
X-175818D01*
X-169470Y-228286D02*
Y-233618D01*
Y-228286D02*
X-165916Y-233618D01*
Y-228286D02*
Y-233618D01*
X-160380D02*
X-162411Y-228286D01*
X-164443Y-233618D01*
X-163681Y-231840D02*
X-161142D01*
X-159136Y-228286D02*
Y-233618D01*
Y-228286D02*
X-157105Y-233618D01*
X-155073Y-228286D02*
X-157105Y-233618D01*
X-155073Y-228286D02*
Y-233618D01*
X-150249Y-228286D02*
X-153550D01*
Y-233618D01*
X-150249D01*
X-153550Y-230825D02*
X-151518D01*
X-149106Y-230063D02*
X-149360Y-230317D01*
X-149106Y-230571D01*
X-148852Y-230317D01*
X-149106Y-230063D01*
Y-233110D02*
X-149360Y-233364D01*
X-149106Y-233618D01*
X-148852Y-233364D01*
X-149106Y-233110D01*
X-186508Y-192286D02*
Y-197618D01*
Y-192286D02*
X-184731D01*
X-183969Y-192539D01*
X-183461Y-193047D01*
X-183207Y-193555D01*
X-182953Y-194317D01*
Y-195586D01*
X-183207Y-196348D01*
X-183461Y-196856D01*
X-183969Y-197364D01*
X-184731Y-197618D01*
X-186508D01*
X-181760Y-194063D02*
Y-197618D01*
Y-195586D02*
X-181506Y-194825D01*
X-180998Y-194317D01*
X-180490Y-194063D01*
X-179728D01*
X-176199D02*
Y-197618D01*
Y-194825D02*
X-176707Y-194317D01*
X-177215Y-194063D01*
X-177976D01*
X-178484Y-194317D01*
X-178992Y-194825D01*
X-179246Y-195586D01*
Y-196094D01*
X-178992Y-196856D01*
X-178484Y-197364D01*
X-177976Y-197618D01*
X-177215D01*
X-176707Y-197364D01*
X-176199Y-196856D01*
X-174777Y-194063D02*
X-173761Y-197618D01*
X-172746Y-194063D02*
X-173761Y-197618D01*
X-172746Y-194063D02*
X-171730Y-197618D01*
X-170714Y-194063D02*
X-171730Y-197618D01*
X-169470Y-194063D02*
Y-197618D01*
Y-195079D02*
X-168709Y-194317D01*
X-168201Y-194063D01*
X-167439D01*
X-166931Y-194317D01*
X-166677Y-195079D01*
Y-197618D01*
X-161091Y-192286D02*
Y-197618D01*
Y-194825D02*
X-160583Y-194317D01*
X-160075Y-194063D01*
X-159314D01*
X-158806Y-194317D01*
X-158298Y-194825D01*
X-158044Y-195586D01*
Y-196094D01*
X-158298Y-196856D01*
X-158806Y-197364D01*
X-159314Y-197618D01*
X-160075D01*
X-160583Y-197364D01*
X-161091Y-196856D01*
X-156648Y-194063D02*
X-155124Y-197618D01*
X-153601Y-194063D02*
X-155124Y-197618D01*
X-155632Y-198633D01*
X-156140Y-199141D01*
X-156648Y-199395D01*
X-156902D01*
X-152458Y-194063D02*
X-152712Y-194317D01*
X-152458Y-194571D01*
X-152204Y-194317D01*
X-152458Y-194063D01*
Y-197110D02*
X-152712Y-197364D01*
X-152458Y-197618D01*
X-152204Y-197364D01*
X-152458Y-197110D01*
X-95981Y-153035D02*
Y-158368D01*
X-97758Y-153035D02*
X-94203D01*
X-93568D02*
Y-158368D01*
X-90674Y-153035D02*
Y-158368D01*
X-92451Y-153035D02*
X-88896D01*
X-88262D02*
Y-158368D01*
X-85215D01*
X-81330Y-153035D02*
X-84631D01*
Y-158368D01*
X-81330D01*
X-84631Y-155575D02*
X-82599D01*
X-80187Y-154813D02*
X-80441Y-155067D01*
X-80187Y-155321D01*
X-79933Y-155067D01*
X-80187Y-154813D01*
Y-157860D02*
X-80441Y-158114D01*
X-80187Y-158368D01*
X-79933Y-158114D01*
X-80187Y-157860D01*
X-96508Y-203328D02*
X-94223D01*
X-93461Y-203075D01*
X-93207Y-202821D01*
X-92953Y-202313D01*
Y-201551D01*
X-93207Y-201043D01*
X-93461Y-200789D01*
X-94223Y-200535D01*
X-96508D01*
Y-205868D01*
X-87697D02*
X-89728Y-200535D01*
X-91760Y-205868D01*
X-90998Y-204090D02*
X-88459D01*
X-86453Y-200535D02*
Y-205868D01*
Y-200535D02*
X-84168D01*
X-83406Y-200789D01*
X-83152Y-201043D01*
X-82898Y-201551D01*
Y-202059D01*
X-83152Y-202567D01*
X-83406Y-202821D01*
X-84168Y-203075D01*
X-86453D01*
X-84676D02*
X-82898Y-205868D01*
X-79927Y-200535D02*
Y-205868D01*
X-81705Y-200535D02*
X-78150D01*
X-73326D02*
Y-205868D01*
Y-200535D02*
X-69771Y-205868D01*
Y-200535D02*
Y-205868D01*
X-66774Y-200535D02*
X-67282Y-200789D01*
X-67790Y-201297D01*
X-68044Y-201805D01*
X-68298Y-202567D01*
Y-203836D01*
X-68044Y-204598D01*
X-67790Y-205106D01*
X-67282Y-205614D01*
X-66774Y-205868D01*
X-65759D01*
X-65251Y-205614D01*
X-64743Y-205106D01*
X-64489Y-204598D01*
X-64235Y-203836D01*
Y-202567D01*
X-64489Y-201805D01*
X-64743Y-201297D01*
X-65251Y-200789D01*
X-65759Y-200535D01*
X-66774D01*
X-62737Y-205360D02*
X-62991Y-205614D01*
X-62737Y-205868D01*
X-62483Y-205614D01*
X-62737Y-205360D01*
X-61061Y-202313D02*
X-61315Y-202567D01*
X-61061Y-202821D01*
X-60808Y-202567D01*
X-61061Y-202313D01*
Y-205360D02*
X-61315Y-205614D01*
X-61061Y-205868D01*
X-60808Y-205614D01*
X-61061Y-205360D01*
X-183207Y-154286D02*
X-186508D01*
Y-159618D01*
X-183207D01*
X-186508Y-156825D02*
X-184477D01*
X-182318Y-154286D02*
Y-159618D01*
Y-154286D02*
X-178764Y-159618D01*
Y-154286D02*
Y-159618D01*
X-173482Y-155555D02*
X-173736Y-155047D01*
X-174244Y-154539D01*
X-174752Y-154286D01*
X-175767D01*
X-176275Y-154539D01*
X-176783Y-155047D01*
X-177037Y-155555D01*
X-177291Y-156317D01*
Y-157586D01*
X-177037Y-158348D01*
X-176783Y-158856D01*
X-176275Y-159364D01*
X-175767Y-159618D01*
X-174752D01*
X-174244Y-159364D01*
X-173736Y-158856D01*
X-173482Y-158348D01*
Y-157586D01*
X-174752D02*
X-173482D01*
X-172263Y-154286D02*
Y-159618D01*
X-171146Y-154286D02*
Y-159618D01*
Y-154286D02*
X-167591Y-159618D01*
Y-154286D02*
Y-159618D01*
X-162818Y-154286D02*
X-166119D01*
Y-159618D01*
X-162818D01*
X-166119Y-156825D02*
X-164087D01*
X-158628Y-154286D02*
X-161929D01*
Y-159618D01*
X-158628D01*
X-161929Y-156825D02*
X-159898D01*
X-157739Y-154286D02*
Y-159618D01*
Y-154286D02*
X-155454D01*
X-154692Y-154539D01*
X-154438Y-154793D01*
X-154185Y-155301D01*
Y-155809D01*
X-154438Y-156317D01*
X-154692Y-156571D01*
X-155454Y-156825D01*
X-157739D01*
X-155962D02*
X-154185Y-159618D01*
X-152737Y-156063D02*
X-152991Y-156317D01*
X-152737Y-156571D01*
X-152483Y-156317D01*
X-152737Y-156063D01*
Y-159110D02*
X-152991Y-159364D01*
X-152737Y-159618D01*
X-152483Y-159364D01*
X-152737Y-159110D01*
X-2508Y-228286D02*
Y-233618D01*
X539D01*
X5186D02*
X3154Y-228286D01*
X1123Y-233618D01*
X1885Y-231840D02*
X4424D01*
X6430Y-228286D02*
X8461Y-230825D01*
Y-233618D01*
X10492Y-228286D02*
X8461Y-230825D01*
X14479Y-228286D02*
X11178D01*
Y-233618D01*
X14479D01*
X11178Y-230825D02*
X13209D01*
X15368Y-228286D02*
Y-233618D01*
Y-228286D02*
X17653D01*
X18415Y-228539D01*
X18668Y-228793D01*
X18922Y-229301D01*
Y-229809D01*
X18668Y-230317D01*
X18415Y-230571D01*
X17653Y-230825D01*
X15368D01*
X17145D02*
X18922Y-233618D01*
X20370Y-230063D02*
X20116Y-230317D01*
X20370Y-230571D01*
X20624Y-230317D01*
X20370Y-230063D01*
Y-233110D02*
X20116Y-233364D01*
X20370Y-233618D01*
X20624Y-233364D01*
X20370Y-233110D01*
X-186508Y-213329D02*
X-184223D01*
X-183461Y-213075D01*
X-183207Y-212821D01*
X-182953Y-212313D01*
Y-211551D01*
X-183207Y-211043D01*
X-183461Y-210789D01*
X-184223Y-210536D01*
X-186508D01*
Y-215868D01*
X-181760Y-210536D02*
Y-215868D01*
X-178205Y-210536D02*
Y-215868D01*
X-181760Y-213075D02*
X-178205D01*
X-175209Y-210536D02*
X-175717Y-210789D01*
X-176224Y-211297D01*
X-176478Y-211805D01*
X-176732Y-212567D01*
Y-213836D01*
X-176478Y-214598D01*
X-176224Y-215106D01*
X-175717Y-215614D01*
X-175209Y-215868D01*
X-174193D01*
X-173685Y-215614D01*
X-173178Y-215106D01*
X-172924Y-214598D01*
X-172670Y-213836D01*
Y-212567D01*
X-172924Y-211805D01*
X-173178Y-211297D01*
X-173685Y-210789D01*
X-174193Y-210536D01*
X-175209D01*
X-171425D02*
Y-215868D01*
Y-210536D02*
X-167871Y-215868D01*
Y-210536D02*
Y-215868D01*
X-163097Y-210536D02*
X-166398D01*
Y-215868D01*
X-163097D01*
X-166398Y-213075D02*
X-164367D01*
X-161954Y-212313D02*
X-162208Y-212567D01*
X-161954Y-212821D01*
X-161700Y-212567D01*
X-161954Y-212313D01*
Y-215360D02*
X-162208Y-215614D01*
X-161954Y-215868D01*
X-161700Y-215614D01*
X-161954Y-215360D01*
X-186508Y-175829D02*
X-184223D01*
X-183461Y-175575D01*
X-183207Y-175321D01*
X-182953Y-174813D01*
Y-174051D01*
X-183207Y-173543D01*
X-183461Y-173289D01*
X-184223Y-173036D01*
X-186508D01*
Y-178368D01*
X-181760Y-173036D02*
Y-178368D01*
X-178205Y-173036D02*
Y-178368D01*
X-181760Y-175575D02*
X-178205D01*
X-175209Y-173036D02*
X-175717Y-173289D01*
X-176224Y-173797D01*
X-176478Y-174305D01*
X-176732Y-175067D01*
Y-176336D01*
X-176478Y-177098D01*
X-176224Y-177606D01*
X-175717Y-178114D01*
X-175209Y-178368D01*
X-174193D01*
X-173685Y-178114D01*
X-173178Y-177606D01*
X-172924Y-177098D01*
X-172670Y-176336D01*
Y-175067D01*
X-172924Y-174305D01*
X-173178Y-173797D01*
X-173685Y-173289D01*
X-174193Y-173036D01*
X-175209D01*
X-171425D02*
Y-178368D01*
Y-173036D02*
X-167871Y-178368D01*
Y-173036D02*
Y-178368D01*
X-163097Y-173036D02*
X-166398D01*
Y-178368D01*
X-163097D01*
X-166398Y-175575D02*
X-164367D01*
X-161954Y-174813D02*
X-162208Y-175067D01*
X-161954Y-175321D01*
X-161700Y-175067D01*
X-161954Y-174813D01*
Y-177860D02*
X-162208Y-178114D01*
X-161954Y-178368D01*
X-161700Y-178114D01*
X-161954Y-177860D01*
X77242Y-200535D02*
Y-205868D01*
Y-200535D02*
X79527D01*
X80289Y-200789D01*
X80543Y-201043D01*
X80797Y-201551D01*
Y-202059D01*
X80543Y-202567D01*
X80289Y-202821D01*
X79527Y-203075D01*
X77242D01*
X79019D02*
X80797Y-205868D01*
X85291Y-200535D02*
X81990D01*
Y-205868D01*
X85291D01*
X81990Y-203075D02*
X84022D01*
X86180Y-200535D02*
X88211Y-205868D01*
X90242Y-200535D02*
X88211Y-205868D01*
X91182Y-202313D02*
X90928Y-202567D01*
X91182Y-202821D01*
X91436Y-202567D01*
X91182Y-202313D01*
Y-205360D02*
X90928Y-205614D01*
X91182Y-205868D01*
X91436Y-205614D01*
X91182Y-205360D01*
X123492Y-200535D02*
Y-205868D01*
Y-200535D02*
X125269D01*
X126031Y-200789D01*
X126539Y-201297D01*
X126793Y-201805D01*
X127047Y-202567D01*
Y-203836D01*
X126793Y-204598D01*
X126539Y-205106D01*
X126031Y-205614D01*
X125269Y-205868D01*
X123492D01*
X132303D02*
X130271Y-200535D01*
X128240Y-205868D01*
X129002Y-204090D02*
X131541D01*
X135325Y-200535D02*
Y-205868D01*
X133547Y-200535D02*
X137102D01*
X141037D02*
X137737D01*
Y-205868D01*
X141037D01*
X137737Y-203075D02*
X139768D01*
X142180Y-202313D02*
X141926Y-202567D01*
X142180Y-202821D01*
X142434Y-202567D01*
X142180Y-202313D01*
Y-205360D02*
X141926Y-205614D01*
X142180Y-205868D01*
X142434Y-205614D01*
X142180Y-205360D01*
X-138823Y-233968D02*
Y-239300D01*
X-140600Y-233968D02*
X-137045D01*
X-133363Y-235745D02*
Y-239300D01*
Y-236507D02*
X-133871Y-235999D01*
X-134379Y-235745D01*
X-135141D01*
X-135649Y-235999D01*
X-136156Y-236507D01*
X-136410Y-237269D01*
Y-237776D01*
X-136156Y-238538D01*
X-135649Y-239046D01*
X-135141Y-239300D01*
X-134379D01*
X-133871Y-239046D01*
X-133363Y-238538D01*
X-128894Y-235745D02*
Y-239808D01*
X-129148Y-240570D01*
X-129402Y-240824D01*
X-129910Y-241077D01*
X-130672D01*
X-131180Y-240824D01*
X-128894Y-236507D02*
X-129402Y-235999D01*
X-129910Y-235745D01*
X-130672D01*
X-131180Y-235999D01*
X-131688Y-236507D01*
X-131941Y-237269D01*
Y-237776D01*
X-131688Y-238538D01*
X-131180Y-239046D01*
X-130672Y-239300D01*
X-129910D01*
X-129402Y-239046D01*
X-128894Y-238538D01*
X-127473Y-234983D02*
X-126965Y-234730D01*
X-126203Y-233968D01*
Y-239300D01*
X-122039Y-233968D02*
X-122801Y-234222D01*
X-123308Y-234983D01*
X-123562Y-236253D01*
Y-237015D01*
X-123308Y-238284D01*
X-122801Y-239046D01*
X-122039Y-239300D01*
X-121531D01*
X-120769Y-239046D01*
X-120261Y-238284D01*
X-120008Y-237015D01*
Y-236253D01*
X-120261Y-234983D01*
X-120769Y-234222D01*
X-121531Y-233968D01*
X-122039D01*
X-118560Y-235237D02*
Y-234983D01*
X-118306Y-234476D01*
X-118052Y-234222D01*
X-117544Y-233968D01*
X-116529D01*
X-116021Y-234222D01*
X-115767Y-234476D01*
X-115513Y-234983D01*
Y-235491D01*
X-115767Y-235999D01*
X-116275Y-236761D01*
X-118814Y-239300D01*
X-115259D01*
X-109876Y-233968D02*
Y-239300D01*
Y-233968D02*
X-107591D01*
X-106829Y-234222D01*
X-106575Y-234476D01*
X-106322Y-234983D01*
Y-235491D01*
X-106575Y-235999D01*
X-106829Y-236253D01*
X-107591Y-236507D01*
X-109876D01*
X-108099D02*
X-106322Y-239300D01*
X-105128Y-237269D02*
X-102081D01*
Y-236761D01*
X-102335Y-236253D01*
X-102589Y-235999D01*
X-103097Y-235745D01*
X-103858D01*
X-104366Y-235999D01*
X-104874Y-236507D01*
X-105128Y-237269D01*
Y-237776D01*
X-104874Y-238538D01*
X-104366Y-239046D01*
X-103858Y-239300D01*
X-103097D01*
X-102589Y-239046D01*
X-102081Y-238538D01*
X-100938Y-235745D02*
X-99415Y-239300D01*
X-97891Y-235745D02*
X-99415Y-239300D01*
X-96774Y-235237D02*
Y-234983D01*
X-96520Y-234476D01*
X-96266Y-234222D01*
X-95759Y-233968D01*
X-94743D01*
X-94235Y-234222D01*
X-93981Y-234476D01*
X-93727Y-234983D01*
Y-235491D01*
X-93981Y-235999D01*
X-94489Y-236761D01*
X-97028Y-239300D01*
X-93473D01*
X-90756Y-233968D02*
X-91518Y-234222D01*
X-92026Y-234983D01*
X-92280Y-236253D01*
Y-237015D01*
X-92026Y-238284D01*
X-91518Y-239046D01*
X-90756Y-239300D01*
X-90249D01*
X-89487Y-239046D01*
X-88979Y-238284D01*
X-88725Y-237015D01*
Y-236253D01*
X-88979Y-234983D01*
X-89487Y-234222D01*
X-90249Y-233968D01*
X-90756D01*
X-87278Y-238792D02*
X-87532Y-239046D01*
X-87278Y-239300D01*
X-87024Y-239046D01*
X-87278Y-238792D01*
X-85856Y-236761D02*
X-83571D01*
X-82809Y-236507D01*
X-82555Y-236253D01*
X-82301Y-235745D01*
Y-234983D01*
X-82555Y-234476D01*
X-82809Y-234222D01*
X-83571Y-233968D01*
X-85856D01*
Y-239300D01*
X-78061Y-236507D02*
X-78569Y-235999D01*
X-79076Y-235745D01*
X-79838D01*
X-80346Y-235999D01*
X-80854Y-236507D01*
X-81108Y-237269D01*
Y-237776D01*
X-80854Y-238538D01*
X-80346Y-239046D01*
X-79838Y-239300D01*
X-79076D01*
X-78569Y-239046D01*
X-78061Y-238538D01*
X-76918Y-233968D02*
Y-239300D01*
Y-236507D02*
X-76410Y-235999D01*
X-75902Y-235745D01*
X-75141D01*
X-74633Y-235999D01*
X-74125Y-236507D01*
X-73871Y-237269D01*
Y-237776D01*
X-74125Y-238538D01*
X-74633Y-239046D01*
X-75141Y-239300D01*
X-75902D01*
X-76410Y-239046D01*
X-76918Y-238538D01*
X-72729Y-233968D02*
Y-239300D01*
Y-233968D02*
X-70951D01*
X-70189Y-234222D01*
X-69682Y-234730D01*
X-69428Y-235237D01*
X-69174Y-235999D01*
Y-237269D01*
X-69428Y-238030D01*
X-69682Y-238538D01*
X-70189Y-239046D01*
X-70951Y-239300D01*
X-72729D01*
X-66711Y-235745D02*
X-67219Y-235999D01*
X-67726Y-236507D01*
X-67980Y-237269D01*
Y-237776D01*
X-67726Y-238538D01*
X-67219Y-239046D01*
X-66711Y-239300D01*
X-65949D01*
X-65441Y-239046D01*
X-64933Y-238538D01*
X-64679Y-237776D01*
Y-237269D01*
X-64933Y-236507D01*
X-65441Y-235999D01*
X-65949Y-235745D01*
X-66711D01*
X-60464Y-236507D02*
X-60972Y-235999D01*
X-61480Y-235745D01*
X-62242D01*
X-62750Y-235999D01*
X-63257Y-236507D01*
X-63511Y-237269D01*
Y-237776D01*
X-63257Y-238538D01*
X-62750Y-239046D01*
X-62242Y-239300D01*
X-61480D01*
X-60972Y-239046D01*
X-60464Y-238538D01*
D44*
X-41700Y-67700D02*
D03*
D45*
X-83800Y6400D02*
D03*
X-176500Y4900D02*
D03*
X-83700Y-67600D02*
D03*
D46*
X-178700Y-72500D02*
D03*
D47*
X-73750Y-19600D02*
D03*
X-63750D02*
D03*
X-43750D02*
D03*
X-53750D02*
D03*
D48*
X-33750D02*
D03*
D49*
X-213100Y34600D02*
D03*
D50*
X-74700Y-47900D02*
D03*
X-75000Y-44400D02*
D03*
X-138500Y1400D02*
D03*
X-167900Y-39700D02*
D03*
X-159800Y-37800D02*
D03*
X-135000Y11300D02*
D03*
X-142000Y9200D02*
D03*
X-172200Y-13400D02*
D03*
X-167700Y2000D02*
D03*
X-129700Y-48500D02*
D03*
X-83900Y-54100D02*
D03*
X-18000Y-28500D02*
D03*
X-22000Y-44500D02*
D03*
X-127500Y-12000D02*
D03*
X-133000Y-8000D02*
D03*
X-71400Y15000D02*
D03*
X-90900Y9200D02*
D03*
X-105400D02*
D03*
X-149200Y-41800D02*
D03*
X-132700Y-4100D02*
D03*
X-119600Y-6300D02*
D03*
X-115600Y-19500D02*
D03*
X-131500Y-19300D02*
D03*
X-120100Y-13600D02*
D03*
X-78500Y-35000D02*
D03*
X-88600Y-35700D02*
D03*
X-130800Y-15600D02*
D03*
X-123800Y-1100D02*
D03*
X-127800D02*
D03*
X-83700Y-47500D02*
D03*
X-145400Y1800D02*
D03*
X-135600Y-26000D02*
D03*
X-126300Y-45200D02*
D03*
X-109700Y-36500D02*
D03*
X-166400Y-31900D02*
D03*
X-156700Y-48900D02*
D03*
X-118500Y-57300D02*
D03*
X-152400Y8900D02*
D03*
X-138600Y-9800D02*
D03*
X-145100D02*
D03*
X-177400Y-47200D02*
D03*
X-176400Y-28700D02*
D03*
X-168900Y-7900D02*
D03*
X-160186Y1600D02*
D03*
X-158100Y-5100D02*
D03*
X-166400Y-20100D02*
D03*
X-162400Y-31800D02*
D03*
X-108500Y-58500D02*
D03*
X-139200Y-53568D02*
D03*
X-105000Y-70500D02*
D03*
X-97759Y-70385D02*
D03*
X-95200Y-4600D02*
D03*
X-102700Y-18600D02*
D03*
X-111900Y-19700D02*
D03*
X-113500Y-7000D02*
D03*
X-104800Y-44900D02*
D03*
X-108500Y-12400D02*
D03*
X-90200Y-18800D02*
D03*
X-91500Y-57300D02*
D03*
X-103100Y-25000D02*
D03*
X-152100Y-11200D02*
D03*
X-61500Y-49500D02*
D03*
X-69300Y-56000D02*
D03*
X-66800Y-6100D02*
D03*
X-63200Y-6000D02*
D03*
X-57700Y-9700D02*
D03*
X-61800Y-300D02*
D03*
X-74400Y3400D02*
D03*
X-64100Y-42400D02*
D03*
X-62100Y-28000D02*
D03*
X-99000Y-52000D02*
D03*
X-69200Y-37700D02*
D03*
X-118700Y-29700D02*
D03*
X-87100Y-8000D02*
D03*
X-101400Y-33200D02*
D03*
X-95200Y-30900D02*
D03*
X-99500Y-27700D02*
D03*
Y-22500D02*
D03*
X-77000Y-24700D02*
D03*
X-103800Y4800D02*
D03*
X-104100Y-3100D02*
D03*
M02*
