M48
;Layer_Color=9474304
;FILE_FORMAT=2:5
INCH,LZ
;TYPE=PLATED
T1F00S00C0.01500
T2F00S00C0.01700
T3F00S00C0.03000
T4F00S00C0.03300
T5F00S00C0.03500
T6F00S00C0.12200
%
T01
X-0099Y-0052
X-00641Y-00424
X-00621Y-0028
X-0018Y-00285
X-0022Y-00445
X-01275Y-0012
X-0133Y-0008
T02
X-01774Y-00472
X-01764Y-00287
X-01664Y-00319
X-01624Y-00318
X-01598Y-00378
X-01679Y-00397
X-01567Y-00489
X-01492Y-00418
X-01392Y-0053568
X-01297Y-00485
X-01263Y-00452
X-01185Y-00573
X-01085Y-00585
X-0105Y-00705
X-0097759Y-0070385
X-00915Y-00573
X-00839Y-00541
X-00837Y-00475
X-00747Y-00479
X-0075Y-00444
X-00692Y-00377
X-00785Y-0035
X-00886Y-00357
X-00952Y-00309
X-00995Y-00277
Y-00225
X-01031Y-0025
X-01027Y-00186
X-01119Y-00197
X-01156Y-00195
X-01201Y-00136
X-01308Y-00156
X-01315Y-00193
X-01356Y-0026
X-01386Y-00098
X-01451
X-01521Y-00112
X-01722Y-00134
X-01664Y-00201
X-01187Y-00297
X-01097Y-00365
X-01014Y-00332
X-01048Y-00449
X-01085Y-00124
X-00902Y-00188
X-0077Y-00247
X-00577Y-00097
X-00615Y-00495
X-00693Y-0056
X-01287Y-00724
X-01278Y-00011
X-01238
X-01196Y-00063
X-01135Y-0007
X-01041Y-00031
X-01038Y00048
X-01054Y00092
X-00909
X-00952Y-00046
X-00871Y-0008
X-00668Y-00061
X-00632Y-0006
X-00618Y-00003
X-00744Y00034
X-00714Y0015
X-0135Y00113
X-0142Y00092
X-01524Y00089
X-01454Y00018
X-01385Y00014
X-01327Y-00041
X-01581Y-00051
X-0160186Y00016
X-01677Y0002
X-01689Y-00079
T03
X-02131Y00346
T04
X-01787Y-00725
X-00837Y-00676
X-00838Y00064
X-01765Y00049
T05
X-007375Y-00196
X-006375
X-005375
X-004375
X-003375
T06
X-00417Y-00677
M30
