%FSLAX25Y25*%
%MOIN*%
G70*
G01*
G75*
G04 Layer_Physical_Order=1*
G04 Layer_Color=255*
%ADD10R,0.01378X0.03543*%
%ADD11R,0.01378X0.03543*%
%ADD12R,0.05700X0.03500*%
%ADD13R,0.23622X0.11811*%
%ADD14R,0.03000X0.03000*%
%ADD15R,0.05000X0.03600*%
%ADD16R,0.03600X0.03600*%
%ADD17R,0.11000X0.04500*%
%ADD18R,0.03600X0.03600*%
%ADD19R,0.03600X0.05000*%
%ADD20R,0.02000X0.05000*%
%ADD21O,0.01600X0.06000*%
%ADD22R,0.02362X0.02362*%
%ADD23R,0.06299X0.05118*%
%ADD24O,0.01600X0.06000*%
%ADD25R,0.09000X0.02362*%
%ADD26R,0.02362X0.10000*%
%ADD27R,0.07000X0.02362*%
%ADD28R,0.02362X0.09000*%
%ADD29O,0.02400X0.08000*%
%ADD30R,0.10000X0.07000*%
%ADD31R,0.10000X0.10000*%
%ADD32C,0.02000*%
%ADD33R,0.20000X0.10000*%
%ADD34R,0.16000X0.18000*%
%ADD35R,0.09055X0.06693*%
%ADD36R,0.08000X0.06000*%
%ADD37C,0.01200*%
%ADD38R,0.07000X0.11000*%
%ADD39R,0.03000X0.03000*%
%ADD40R,0.03937X0.02165*%
%ADD41C,0.04000*%
%ADD42R,0.07400X0.04500*%
%ADD43C,0.04000*%
%ADD44C,0.01500*%
%ADD45C,0.02500*%
%ADD46C,0.00600*%
%ADD47C,0.01600*%
%ADD48C,0.01000*%
%ADD49C,0.01400*%
%ADD50C,0.00800*%
%ADD51C,0.02000*%
%ADD52C,0.03000*%
%ADD53C,0.07400*%
%ADD54C,0.01200*%
%ADD55C,0.00984*%
%ADD56C,0.00900*%
%ADD57C,0.00500*%
%ADD58C,0.06200*%
%ADD59R,0.06200X0.06200*%
%ADD60C,0.19500*%
%ADD61C,0.07000*%
%ADD62C,0.07800*%
%ADD63C,0.12200*%
%ADD64R,0.05000X0.05000*%
%ADD65C,0.02800*%
G36*
X217253Y93412D02*
Y89312D01*
X200354D01*
Y100612D01*
X203053D01*
Y103512D01*
X207154D01*
X217253Y93412D01*
D02*
G37*
G36*
X277654Y100912D02*
X279254D01*
Y90312D01*
X262754D01*
Y95012D01*
X265854D01*
X276853Y106012D01*
X277654D01*
Y100912D01*
D02*
G37*
D10*
X82459Y90431D02*
D03*
X105159D02*
D03*
D11*
X82459Y81769D02*
D03*
X77341D02*
D03*
X79900Y90431D02*
D03*
X77341D02*
D03*
X100041D02*
D03*
X102600D02*
D03*
X100041Y81769D02*
D03*
X105159D02*
D03*
D12*
X177800Y28750D02*
D03*
Y36450D02*
D03*
X155200Y28550D02*
D03*
Y36450D02*
D03*
D13*
X213500Y62047D02*
D03*
Y17953D02*
D03*
D14*
X125000Y37500D02*
D03*
Y43500D02*
D03*
X34900Y149559D02*
D03*
Y155559D02*
D03*
X26100Y65500D02*
D03*
Y59500D02*
D03*
X103600Y101100D02*
D03*
Y107100D02*
D03*
X47600Y102600D02*
D03*
Y96600D02*
D03*
X154000Y74000D02*
D03*
Y68000D02*
D03*
X15900Y97200D02*
D03*
Y103200D02*
D03*
X103500Y120600D02*
D03*
Y114600D02*
D03*
X9900Y115200D02*
D03*
Y109200D02*
D03*
Y103200D02*
D03*
Y97200D02*
D03*
X11100Y64694D02*
D03*
Y58694D02*
D03*
X33100Y76600D02*
D03*
Y70600D02*
D03*
X144500Y101000D02*
D03*
Y107000D02*
D03*
X41600Y96600D02*
D03*
Y102600D02*
D03*
X186500Y99500D02*
D03*
Y93500D02*
D03*
Y106500D02*
D03*
Y112500D02*
D03*
X164000Y99500D02*
D03*
Y93500D02*
D03*
Y112500D02*
D03*
Y106500D02*
D03*
X96087Y49300D02*
D03*
Y55300D02*
D03*
X34200Y97500D02*
D03*
Y103500D02*
D03*
X22900Y114700D02*
D03*
Y120700D02*
D03*
X89000Y114000D02*
D03*
Y120000D02*
D03*
X17100Y48100D02*
D03*
Y54100D02*
D03*
X52041Y46659D02*
D03*
Y52659D02*
D03*
X89000Y126500D02*
D03*
Y132500D02*
D03*
X43041Y46659D02*
D03*
Y52659D02*
D03*
X33000Y60100D02*
D03*
Y66100D02*
D03*
X18500Y59100D02*
D03*
Y65100D02*
D03*
X18600Y71100D02*
D03*
Y77100D02*
D03*
X51500Y160000D02*
D03*
Y166000D02*
D03*
X74000Y160000D02*
D03*
Y166000D02*
D03*
X84000Y160000D02*
D03*
Y166000D02*
D03*
X89000Y160000D02*
D03*
Y166000D02*
D03*
X41600Y84800D02*
D03*
Y90800D02*
D03*
X59600Y83600D02*
D03*
Y89600D02*
D03*
X12500Y75500D02*
D03*
Y69500D02*
D03*
X26100Y76600D02*
D03*
Y70600D02*
D03*
X42500Y155500D02*
D03*
Y149500D02*
D03*
X51500Y149000D02*
D03*
Y155000D02*
D03*
D15*
X66500Y160700D02*
D03*
X140900Y39900D02*
D03*
D16*
X58500Y157000D02*
D03*
Y164500D02*
D03*
X132900Y43700D02*
D03*
Y36200D02*
D03*
D17*
X124500Y84500D02*
D03*
Y96500D02*
D03*
D18*
X144500Y94500D02*
D03*
X137020D02*
D03*
X28100Y90800D02*
D03*
X35600D02*
D03*
D19*
X140760Y85051D02*
D03*
X31800Y82800D02*
D03*
D20*
X48600Y119100D02*
D03*
X44800D02*
D03*
X48600Y129100D02*
D03*
X41100D02*
D03*
Y119100D02*
D03*
D21*
X60887Y97891D02*
D03*
X71123D02*
D03*
X58328Y128600D02*
D03*
X60887D02*
D03*
X76241D02*
D03*
X66005D02*
D03*
X58328Y97891D02*
D03*
X55769Y128600D02*
D03*
X78800D02*
D03*
X76241Y97891D02*
D03*
X73682D02*
D03*
X71123Y128600D02*
D03*
X68564Y97891D02*
D03*
X66005D02*
D03*
X73682Y128600D02*
D03*
X63446D02*
D03*
X78800Y97891D02*
D03*
X68564Y128600D02*
D03*
X63446Y97891D02*
D03*
X55769D02*
D03*
D22*
X22100Y53300D02*
D03*
X26037D02*
D03*
X24069Y48182D02*
D03*
X25668Y97382D02*
D03*
X27637Y102500D02*
D03*
X23700D02*
D03*
D23*
X154015Y84204D02*
D03*
Y97196D02*
D03*
D24*
X85982Y65400D02*
D03*
X91100Y46715D02*
D03*
X88541Y65400D02*
D03*
X91100D02*
D03*
X83423Y46715D02*
D03*
X88541D02*
D03*
X85982D02*
D03*
X83423Y65400D02*
D03*
D25*
X40107Y69032D02*
D03*
D26*
X42100Y77400D02*
D03*
X47100D02*
D03*
X52000Y77500D02*
D03*
X52100Y61194D02*
D03*
X47100D02*
D03*
D27*
X54307Y69032D02*
D03*
D28*
X42100Y61694D02*
D03*
D29*
X77800Y49500D02*
D03*
X67800Y71500D02*
D03*
X77800D02*
D03*
X72800D02*
D03*
X62800D02*
D03*
X72800Y49500D02*
D03*
X67800D02*
D03*
X62800D02*
D03*
D30*
X261000Y62000D02*
D03*
D31*
Y18000D02*
D03*
X281000D02*
D03*
Y62000D02*
D03*
D32*
X208353Y94512D02*
D03*
X271354Y95012D02*
D03*
D33*
X239854Y86512D02*
D03*
D34*
Y138900D02*
D03*
D35*
X175000Y120098D02*
D03*
Y94902D02*
D03*
D36*
X169000Y72500D02*
D03*
X183000D02*
D03*
X181000Y83500D02*
D03*
X167000D02*
D03*
D37*
X37600Y134500D02*
D03*
X3900Y137800D02*
D03*
D38*
X137700Y162500D02*
D03*
X97300D02*
D03*
D39*
X71500Y91000D02*
D03*
X65500D02*
D03*
X56500Y171000D02*
D03*
X62500D02*
D03*
X74500Y150500D02*
D03*
X68500D02*
D03*
X63500D02*
D03*
X57500D02*
D03*
X41600Y108600D02*
D03*
X47600D02*
D03*
X184000Y60000D02*
D03*
X178000D02*
D03*
X47600Y90600D02*
D03*
X53600D02*
D03*
X21900Y128100D02*
D03*
X15900D02*
D03*
X34200Y120300D02*
D03*
X28200D02*
D03*
X34200Y114500D02*
D03*
X28200D02*
D03*
X29900Y53400D02*
D03*
X35900D02*
D03*
X28200Y108500D02*
D03*
X34200D02*
D03*
X71500Y80500D02*
D03*
X65500D02*
D03*
X6400Y90400D02*
D03*
X12400D02*
D03*
X71500Y85500D02*
D03*
X65500D02*
D03*
X36041Y47659D02*
D03*
X30041D02*
D03*
X18000Y108800D02*
D03*
X24000D02*
D03*
X120000Y131000D02*
D03*
X126000D02*
D03*
X97600Y107100D02*
D03*
X91600D02*
D03*
X72100Y136100D02*
D03*
X78100D02*
D03*
X58000Y136000D02*
D03*
X64000D02*
D03*
X97000Y73500D02*
D03*
X91000D02*
D03*
X28100Y128100D02*
D03*
X34100D02*
D03*
X53500Y85000D02*
D03*
X47500D02*
D03*
X88000Y88500D02*
D03*
X94000D02*
D03*
X88000Y81500D02*
D03*
X94000D02*
D03*
X6400Y80500D02*
D03*
X12400D02*
D03*
X6400Y85500D02*
D03*
X12400D02*
D03*
D40*
X44894Y166000D02*
D03*
X34106D02*
D03*
D41*
X0Y0D02*
D03*
X308000Y181500D02*
D03*
X0D02*
D03*
X308000Y0D02*
D03*
X41900Y136400D02*
D03*
X46700D02*
D03*
X57600Y50200D02*
D03*
D42*
X84600Y71800D02*
D03*
D43*
X181000Y66000D02*
X185250Y70250D01*
X168000Y61500D02*
X172500Y66000D01*
X178100D01*
X181000D01*
X187237Y72237D02*
X193300Y78300D01*
Y93500D01*
X102600Y55000D02*
X120400D01*
X161500D01*
X193300Y128700D02*
X203500Y138900D01*
X239854D01*
X269654Y81012D02*
X271354Y82712D01*
Y95012D01*
X208500Y84000D02*
Y94365D01*
X208353Y94512D02*
X208500Y94365D01*
Y84000D02*
X211488Y81012D01*
X161500Y55000D02*
X168000Y61500D01*
X193300Y93500D02*
Y112500D01*
Y121500D01*
Y128700D01*
X211488Y81012D02*
X269654D01*
D44*
X178000Y65900D02*
X178100Y66000D01*
X186974Y72500D02*
X187237Y72237D01*
X183000Y72500D02*
X186974D01*
X128900Y43500D02*
X129100Y43700D01*
X125000Y43500D02*
X128900D01*
X129100Y43700D02*
X132900D01*
X122200Y37500D02*
X125000D01*
X120400Y39300D02*
X122200Y37500D01*
X128300D02*
X129600Y36200D01*
X125000Y37500D02*
X128300D01*
X129600Y36200D02*
X132900D01*
X44894Y166000D02*
X51500D01*
X56500Y171000D01*
X120400Y39300D02*
Y55000D01*
X164000Y99500D02*
Y106500D01*
X170402Y99500D02*
X175000Y94902D01*
X164000Y99500D02*
X170402D01*
X154015Y98700D02*
Y105000D01*
Y98700D02*
X154315Y99000D01*
X154015Y109000D02*
Y119515D01*
X78800Y95100D02*
X79900Y94000D01*
X78800Y95100D02*
Y97891D01*
X44800Y115700D02*
Y119100D01*
X47600Y112700D02*
X47700Y112800D01*
X47600Y108600D02*
Y112700D01*
X44800Y115700D02*
X47700Y112800D01*
X94800Y65300D02*
X94800Y69200D01*
X152015Y107000D02*
X154015Y109000D01*
X152015Y107000D02*
X154015Y105000D01*
X144500Y107000D02*
X152015D01*
X40900Y120200D02*
Y124400D01*
X67800Y65300D02*
X67800Y65300D01*
Y71500D01*
X41600Y102600D02*
X47600Y108600D01*
X102500Y129000D02*
X103500Y128000D01*
X94800Y69200D02*
X96600Y71000D01*
Y73100D01*
X140760Y85051D02*
X140800Y85011D01*
Y78100D02*
Y85011D01*
X103500Y120600D02*
Y128000D01*
X132900Y43700D02*
Y49600D01*
X118100Y76300D02*
X129800D01*
X77800Y49500D02*
Y53700D01*
X78900Y54800D01*
X80600D01*
X155500Y143600D02*
X157500Y141600D01*
Y131000D02*
Y141600D01*
X72100Y136100D02*
Y141700D01*
X147500Y121300D02*
Y131000D01*
Y121300D02*
X149285Y119515D01*
X154015D01*
X156000Y121500D01*
X24069Y48182D02*
X29518D01*
X37100Y70800D02*
Y80800D01*
X47100Y78800D02*
Y80800D01*
X56600Y74100D02*
Y80800D01*
X38907Y69032D02*
X40107D01*
X47100D01*
X37100Y80800D02*
X42087D01*
X79900Y87600D02*
Y90431D01*
Y94000D01*
X186500Y93500D02*
X193300D01*
X186500Y112500D02*
X193300D01*
X72100Y141700D02*
X74000Y143600D01*
X155500D01*
X110200Y89500D02*
X113500D01*
X120500Y96500D01*
X124500D01*
X55769Y97891D02*
Y100232D01*
X53500Y102500D02*
X55769Y100232D01*
X154015Y74015D02*
Y84204D01*
X154000Y74000D02*
X154015Y74015D01*
X147500Y74000D02*
X154000D01*
X144000Y77500D02*
X147500Y74000D01*
X124500Y84500D02*
X132500D01*
X51500Y155000D02*
Y160000D01*
X63500Y150500D02*
X68500D01*
X79000D02*
Y160000D01*
X74500Y150500D02*
X79000D01*
X29600Y73700D02*
Y76600D01*
X26100D02*
X29600D01*
X33100D01*
X57500Y139300D02*
Y150500D01*
X89000D02*
Y160000D01*
X137700Y153000D02*
Y162500D01*
Y153000D02*
X139928Y150772D01*
X148872D01*
X89000Y150500D02*
X135200D01*
X137700Y153000D01*
X34106Y156352D02*
Y166000D01*
Y156352D02*
X34900Y155559D01*
X52200Y160700D02*
X66500D01*
X51500Y160000D02*
X52200Y160700D01*
X58500Y157000D02*
X60500D01*
X63500Y154000D01*
Y150500D02*
Y154000D01*
X62500Y143000D02*
X66100Y146600D01*
X170800D01*
X177500Y139900D01*
Y131000D02*
Y139900D01*
X78400Y86100D02*
X79900Y87600D01*
X78200Y86100D02*
X78400D01*
X9518Y48182D02*
X17100D01*
X24069D01*
X96600Y73100D02*
X97000Y73500D01*
X97100Y73600D01*
X37100Y58300D02*
X42100D01*
X37100D02*
Y69032D01*
Y70800D01*
X42087Y80800D02*
X42100D01*
X47100D01*
X52100Y58300D02*
X56600D01*
Y69032D01*
Y74100D01*
X47100Y69032D02*
X54307D01*
X55124D01*
X47100Y80800D02*
X52000D01*
X56600D01*
X107800Y87100D02*
X108050Y87350D01*
X110200Y89500D01*
X156000Y121500D02*
X175000D01*
X193300D01*
X98800Y114600D02*
X103500D01*
X95200Y118200D02*
X98800Y114600D01*
X89000Y132500D02*
Y137400D01*
X93400Y111300D02*
X97600Y107100D01*
X92800Y111300D02*
X93400D01*
X293352Y-70690D02*
Y-64025D01*
X296685Y-60693D01*
X300017Y-64025D01*
Y-70690D01*
Y-65691D01*
X293352D01*
X310014Y-64025D02*
X305015D01*
X303349Y-65691D01*
Y-69024D01*
X305015Y-70690D01*
X310014D01*
X315012Y-62359D02*
Y-64025D01*
X313346D01*
X316678D01*
X315012D01*
Y-69024D01*
X316678Y-70690D01*
X321676D02*
X325009D01*
X323342D01*
Y-64025D01*
X321676D01*
X330007D02*
X333339Y-70690D01*
X336672Y-64025D01*
X345002Y-70690D02*
X341670D01*
X340004Y-69024D01*
Y-65691D01*
X341670Y-64025D01*
X345002D01*
X346668Y-65691D01*
Y-67357D01*
X340004D01*
X359997Y-60693D02*
Y-70690D01*
X363330Y-67357D01*
X366662Y-70690D01*
Y-60693D01*
X371660Y-64025D02*
X374992D01*
X376659Y-65691D01*
Y-70690D01*
X371660D01*
X369994Y-69024D01*
X371660Y-67357D01*
X376659D01*
X379991Y-64025D02*
X383323Y-70690D01*
X386655Y-64025D01*
X394986Y-70690D02*
X391654D01*
X389988Y-69024D01*
Y-65691D01*
X391654Y-64025D01*
X394986D01*
X396652Y-65691D01*
Y-67357D01*
X389988D01*
D45*
X178000Y60000D02*
Y65900D01*
X183800Y59800D02*
X184000Y60000D01*
X183800Y49900D02*
Y59800D01*
X179800Y45900D02*
X183800Y49900D01*
X160500Y45900D02*
X179800D01*
X155200Y40600D02*
X160500Y45900D01*
X155200Y36450D02*
Y40600D01*
X140900Y31800D02*
X144150Y28550D01*
X155200D01*
X140900Y31800D02*
Y39900D01*
X212353Y19100D02*
X213500Y17953D01*
X195100Y19100D02*
X212353D01*
X185450Y28750D02*
X195100Y19100D01*
X177800Y28750D02*
X185450D01*
X229747Y62047D02*
X232254Y64553D01*
Y71112D01*
X213500Y62047D02*
X229747D01*
X184000Y60000D02*
X194600D01*
X196647Y62047D01*
X213500D01*
X102400Y46500D02*
X126800Y22100D01*
X159500D01*
X163500Y26100D01*
Y34100D01*
X161150Y36450D02*
X163500Y34100D01*
X155200Y36450D02*
X161150D01*
X284500Y71500D02*
X286500Y73500D01*
X284500Y65500D02*
Y71500D01*
X281000Y62000D02*
X284500Y65500D01*
X277000Y70900D02*
Y80900D01*
Y75900D02*
X282000D01*
X272000D02*
X277000D01*
X258300Y138800D02*
X268300D01*
X92400Y52987D02*
Y58359D01*
X94800Y60759D01*
X62800Y58918D02*
Y71500D01*
X94800Y60759D02*
Y65300D01*
X62800Y58918D02*
X69082D01*
X70000Y58000D01*
X77082D01*
X80000Y60918D01*
Y65300D01*
X98887Y46500D02*
X102400D01*
X52041Y52659D02*
X55141D01*
X57600Y50200D01*
X59300Y55418D02*
X62800Y58918D01*
X59300Y51900D02*
Y55418D01*
X57600Y50200D02*
X59300Y51900D01*
X96087Y49300D02*
X98887Y46500D01*
X92400Y52987D02*
X96087Y49300D01*
X286500Y73500D02*
Y80500D01*
Y84500D01*
X126000Y131000D02*
X137500D01*
X126000Y112000D02*
Y131000D01*
X74000Y155000D02*
Y160000D01*
X47000Y149000D02*
X51500D01*
D46*
X15500Y134500D02*
Y137800D01*
X13500Y134500D02*
Y137800D01*
X17500Y134500D02*
Y137800D01*
X9500Y134500D02*
Y137800D01*
X7500Y134500D02*
Y137800D01*
X11500Y134500D02*
Y137800D01*
X25500Y134500D02*
Y137800D01*
X23500Y134500D02*
Y137800D01*
X27500Y134500D02*
Y137800D01*
X19500Y134500D02*
Y137800D01*
X21500Y134500D02*
Y137800D01*
X29500Y134500D02*
Y137800D01*
X33500Y134500D02*
Y137800D01*
X31500Y134500D02*
Y137800D01*
X50947Y26000D02*
X49424Y29999D01*
X47900Y26000D01*
X48471Y27333D02*
X50376D01*
X54737Y29047D02*
X54546Y29428D01*
X54165Y29809D01*
X53785Y29999D01*
X53023D01*
X52642Y29809D01*
X52261Y29428D01*
X52070Y29047D01*
X51880Y28476D01*
Y27523D01*
X52070Y26952D01*
X52261Y26571D01*
X52642Y26190D01*
X53023Y26000D01*
X53785D01*
X54165Y26190D01*
X54546Y26571D01*
X54737Y26952D01*
X57193Y29999D02*
Y26000D01*
X55860Y29999D02*
X58526D01*
X59002D02*
Y26000D01*
X59840Y29999D02*
X61364Y26000D01*
X62887Y29999D02*
X61364Y26000D01*
X65877Y29999D02*
X63401D01*
Y26000D01*
X65877D01*
X63401Y28095D02*
X64925D01*
X66544Y29999D02*
X67496Y26000D01*
X68448Y29999D02*
X67496Y26000D01*
X68448Y29999D02*
X69400Y26000D01*
X70352Y29999D02*
X69400Y26000D01*
X74199D02*
X72676Y29999D01*
X71152Y26000D01*
X71724Y27333D02*
X73628D01*
X75132Y29999D02*
X76656Y26000D01*
X78179Y29999D02*
X76656Y26000D01*
X81169Y29999D02*
X78693D01*
Y26000D01*
X81169D01*
X78693Y28095D02*
X80217D01*
X81836Y29999D02*
Y26000D01*
X82674Y29999D02*
Y26000D01*
Y29999D02*
X85340Y26000D01*
Y29999D02*
Y26000D01*
X89301Y29047D02*
X89110Y29428D01*
X88729Y29809D01*
X88349Y29999D01*
X87587D01*
X87206Y29809D01*
X86825Y29428D01*
X86635Y29047D01*
X86444Y28476D01*
Y27523D01*
X86635Y26952D01*
X86825Y26571D01*
X87206Y26190D01*
X87587Y26000D01*
X88349D01*
X88729Y26190D01*
X89110Y26571D01*
X89301Y26952D01*
X90615Y26381D02*
X90424Y26190D01*
X90615Y26000D01*
X90805Y26190D01*
X90615Y26381D01*
X94538Y29047D02*
X94347Y29428D01*
X93966Y29809D01*
X93585Y29999D01*
X92824D01*
X92443Y29809D01*
X92062Y29428D01*
X91872Y29047D01*
X91681Y28476D01*
Y27523D01*
X91872Y26952D01*
X92062Y26571D01*
X92443Y26190D01*
X92824Y26000D01*
X93585D01*
X93966Y26190D01*
X94347Y26571D01*
X94538Y26952D01*
X96804Y29999D02*
X96423Y29809D01*
X96042Y29428D01*
X95852Y29047D01*
X95661Y28476D01*
Y27523D01*
X95852Y26952D01*
X96042Y26571D01*
X96423Y26190D01*
X96804Y26000D01*
X97566D01*
X97946Y26190D01*
X98327Y26571D01*
X98518Y26952D01*
X98708Y27523D01*
Y28476D01*
X98518Y29047D01*
X98327Y29428D01*
X97946Y29809D01*
X97566Y29999D01*
X96804D01*
X99641D02*
Y26000D01*
Y29999D02*
X101165Y26000D01*
X102688Y29999D02*
X101165Y26000D01*
X102688Y29999D02*
Y26000D01*
X54533Y22999D02*
Y19000D01*
X53200Y22999D02*
X55866D01*
X59389Y19000D02*
X57866Y22999D01*
X56342Y19000D01*
X56914Y20333D02*
X58818D01*
X63179Y22047D02*
X62988Y22428D01*
X62608Y22809D01*
X62227Y22999D01*
X61465D01*
X61084Y22809D01*
X60703Y22428D01*
X60513Y22047D01*
X60322Y21476D01*
Y20524D01*
X60513Y19952D01*
X60703Y19571D01*
X61084Y19190D01*
X61465Y19000D01*
X62227D01*
X62608Y19190D01*
X62988Y19571D01*
X63179Y19952D01*
Y20524D01*
X62227D02*
X63179D01*
X64093Y22237D02*
X64474Y22428D01*
X65045Y22999D01*
Y19000D01*
X68168Y22999D02*
X67597Y22809D01*
X67216Y22237D01*
X67026Y21285D01*
Y20714D01*
X67216Y19762D01*
X67597Y19190D01*
X68168Y19000D01*
X68549D01*
X69120Y19190D01*
X69501Y19762D01*
X69692Y20714D01*
Y21285D01*
X69501Y22237D01*
X69120Y22809D01*
X68549Y22999D01*
X68168D01*
X72872D02*
X70968D01*
X70777Y21285D01*
X70968Y21476D01*
X71539Y21666D01*
X72110D01*
X72681Y21476D01*
X73062Y21095D01*
X73253Y20524D01*
Y20143D01*
X73062Y19571D01*
X72681Y19190D01*
X72110Y19000D01*
X71539D01*
X70968Y19190D01*
X70777Y19381D01*
X70587Y19762D01*
X77290Y22999D02*
Y19000D01*
Y22999D02*
X79004D01*
X79575Y22809D01*
X79766Y22618D01*
X79956Y22237D01*
Y21857D01*
X79766Y21476D01*
X79575Y21285D01*
X79004Y21095D01*
X77290D01*
X78623D02*
X79956Y19000D01*
X83327Y22999D02*
X80851D01*
Y19000D01*
X83327D01*
X80851Y21095D02*
X82375D01*
X83993Y22999D02*
X85517Y19000D01*
X87040Y22999D02*
X85517Y19000D01*
X90887Y22047D02*
Y22237D01*
X91078Y22618D01*
X91268Y22809D01*
X91649Y22999D01*
X92411D01*
X92791Y22809D01*
X92982Y22618D01*
X93172Y22237D01*
Y21857D01*
X92982Y21476D01*
X92601Y20904D01*
X90697Y19000D01*
X93363D01*
X95401Y22999D02*
X94829Y22809D01*
X94448Y22237D01*
X94258Y21285D01*
Y20714D01*
X94448Y19762D01*
X94829Y19190D01*
X95401Y19000D01*
X95781D01*
X96353Y19190D01*
X96733Y19762D01*
X96924Y20714D01*
Y21285D01*
X96733Y22237D01*
X96353Y22809D01*
X95781Y22999D01*
X95401D01*
X164501Y-8097D02*
Y-14100D01*
X162500Y-8097D02*
X166502D01*
X171790Y-14100D02*
X169503Y-8097D01*
X167216Y-14100D01*
X168074Y-12099D02*
X170932D01*
X177478Y-9527D02*
X177192Y-8955D01*
X176620Y-8383D01*
X176049Y-8097D01*
X174906D01*
X174334Y-8383D01*
X173762Y-8955D01*
X173476Y-9527D01*
X173190Y-10384D01*
Y-11813D01*
X173476Y-12671D01*
X173762Y-13242D01*
X174334Y-13814D01*
X174906Y-14100D01*
X176049D01*
X176620Y-13814D01*
X177192Y-13242D01*
X177478Y-12671D01*
Y-11813D01*
X176049D02*
X177478D01*
X178850Y-9241D02*
X179422Y-8955D01*
X180279Y-8097D01*
Y-14100D01*
X184967Y-8097D02*
X184109Y-8383D01*
X183538Y-9241D01*
X183252Y-10670D01*
Y-11527D01*
X183538Y-12957D01*
X184109Y-13814D01*
X184967Y-14100D01*
X185539D01*
X186396Y-13814D01*
X186968Y-12957D01*
X187254Y-11527D01*
Y-10670D01*
X186968Y-9241D01*
X186396Y-8383D01*
X185539Y-8097D01*
X184967D01*
X192027D02*
X189169D01*
X188883Y-10670D01*
X189169Y-10384D01*
X190026Y-10098D01*
X190884D01*
X191742Y-10384D01*
X192313Y-10956D01*
X192599Y-11813D01*
Y-12385D01*
X192313Y-13242D01*
X191742Y-13814D01*
X190884Y-14100D01*
X190026D01*
X189169Y-13814D01*
X188883Y-13528D01*
X188597Y-12957D01*
X198659Y-8097D02*
Y-14100D01*
Y-8097D02*
X201231D01*
X202089Y-8383D01*
X202375Y-8669D01*
X202661Y-9241D01*
Y-9812D01*
X202375Y-10384D01*
X202089Y-10670D01*
X201231Y-10956D01*
X198659D01*
X200660D02*
X202661Y-14100D01*
X207720Y-8097D02*
X204004D01*
Y-14100D01*
X207720D01*
X204004Y-10956D02*
X206291D01*
X208720Y-8097D02*
X211007Y-14100D01*
X213294Y-8097D02*
X211007Y-14100D01*
X219068Y-9527D02*
Y-9241D01*
X219354Y-8669D01*
X219639Y-8383D01*
X220211Y-8097D01*
X221355D01*
X221926Y-8383D01*
X222212Y-8669D01*
X222498Y-9241D01*
Y-9812D01*
X222212Y-10384D01*
X221640Y-11242D01*
X218782Y-14100D01*
X222784D01*
X225842Y-8097D02*
X224985Y-8383D01*
X224413Y-9241D01*
X224127Y-10670D01*
Y-11527D01*
X224413Y-12957D01*
X224985Y-13814D01*
X225842Y-14100D01*
X226414D01*
X227272Y-13814D01*
X227843Y-12957D01*
X228129Y-11527D01*
Y-10670D01*
X227843Y-9241D01*
X227272Y-8383D01*
X226414Y-8097D01*
X225842D01*
D47*
X3900Y137800D02*
X7500D01*
X9500D01*
X11500D01*
X13500D01*
X15500D01*
X17500D01*
X19500D01*
X21500D01*
X23500D01*
X25500D01*
X27500D01*
X29500D01*
X31500D01*
X33500D01*
X7200Y134500D02*
X7500D01*
X9500D01*
X11500D01*
X13500D01*
X15500D01*
X17500D01*
X19500D01*
X21500D01*
X23500D01*
X25500D01*
X27500D01*
X29500D01*
X31500D01*
X33500D01*
X37600D01*
Y94200D02*
Y134500D01*
X83423Y65400D02*
Y71800D01*
X84600D01*
X3900Y93900D02*
Y137800D01*
Y93900D02*
X6400D01*
X9900D01*
X15300Y94300D02*
X37200D01*
D48*
X66400Y91000D02*
X68000Y92600D01*
X65500Y91000D02*
X66400D01*
X41100Y129100D02*
X48600D01*
X140000Y103000D02*
X142000Y101000D01*
X144500D01*
X133500D02*
X142000D01*
X103950Y107100D02*
X106900D01*
X103600D02*
X103950D01*
X106600Y109750D01*
X115500Y131000D02*
X120000D01*
X73900Y88100D02*
X75200Y89400D01*
X69544Y88100D02*
X73900D01*
X68500Y87056D02*
X69544Y88100D01*
X68500Y83700D02*
Y87056D01*
X62500Y167000D02*
X63500Y166000D01*
X62500Y167000D02*
Y171000D01*
X62000Y164500D02*
X63500Y166000D01*
X58500Y164500D02*
X62000D01*
X63500Y166000D02*
X74000D01*
X78800Y128600D02*
Y130800D01*
X41100Y129100D02*
Y132900D01*
X87100Y89400D02*
X88000Y88500D01*
X84900Y89400D02*
X87100D01*
X83869Y90431D02*
X84900Y89400D01*
X82459Y90431D02*
X83869D01*
X112500Y106800D02*
Y120000D01*
X157500Y112000D02*
X158000Y112500D01*
X164000D01*
X182087Y114587D02*
X185500Y118000D01*
X182087Y107500D02*
Y114587D01*
Y107500D02*
X183087Y106500D01*
X186500D01*
X182500Y85000D02*
Y97000D01*
X185000Y99500D01*
X181000Y83500D02*
X182500Y85000D01*
X185000Y99500D02*
X186500D01*
Y106500D01*
X164000Y86500D02*
X167000Y83500D01*
X164000Y86500D02*
Y93500D01*
X167000Y74500D02*
Y83500D01*
Y74500D02*
X169000Y72500D01*
X55500Y106000D02*
X58328Y103172D01*
Y97891D02*
Y103172D01*
X50400Y105400D02*
Y108900D01*
X53000Y111500D01*
X50400Y114000D02*
Y114100D01*
X50500Y114000D02*
X53000Y111500D01*
X57987Y112487D02*
X58013D01*
X140000Y103000D02*
Y109500D01*
X142500Y112000D01*
X106900Y107100D02*
X110000Y104000D01*
X261000Y62000D02*
Y73000D01*
X63446Y125100D02*
Y128600D01*
X103600Y106800D02*
Y107100D01*
X41100Y132900D02*
X41900Y133700D01*
Y136400D01*
X102600Y88000D02*
X103500Y87100D01*
X102600Y88000D02*
Y90431D01*
X97700Y86900D02*
X99800D01*
X101800Y84900D01*
X100800Y78600D02*
X102600Y76800D01*
Y73100D02*
Y76800D01*
X96900Y78600D02*
X100800D01*
Y70000D02*
X104300D01*
X90746Y76500D02*
X99100D01*
X99900Y75700D01*
X105159Y81769D02*
X105300Y81628D01*
Y71000D02*
Y81628D01*
X104300Y70000D02*
X105300Y71000D01*
X99900Y70900D02*
X100800Y70000D01*
X99900Y70900D02*
Y75700D01*
X98472Y82800D02*
X100000D01*
X96972Y84300D02*
X98472Y82800D01*
X94000Y85500D02*
X95200Y84300D01*
X96972D01*
X60887Y123113D02*
X62500Y121500D01*
X60887Y123113D02*
Y128600D01*
X58328Y121672D02*
Y128600D01*
X91100Y48500D02*
X93087D01*
X77300Y90390D02*
X77341Y90431D01*
X77300Y89400D02*
Y90390D01*
X75200Y89400D02*
X77300D01*
X94000Y85500D02*
Y88500D01*
X93000Y84500D02*
X94000Y85500D01*
X92100Y84500D02*
X93000D01*
X89100Y81500D02*
X92100Y84500D01*
X88000Y81500D02*
X89100D01*
X91100Y86100D02*
Y90900D01*
X81600Y85400D02*
X90400D01*
X91100Y86100D01*
X91700Y91500D02*
X100000D01*
X91100Y90900D02*
X91700Y91500D01*
X100000Y90472D02*
X100041Y90431D01*
X100000Y90472D02*
Y91500D01*
X79000Y82800D02*
X81600Y85400D01*
X77300Y77400D02*
X80500Y80600D01*
X86500Y78100D02*
X89146D01*
X84000Y80600D02*
X86500Y78100D01*
X94000Y81500D02*
X96900Y78600D01*
X89146Y78100D02*
X90746Y76500D01*
X83300Y75900D02*
X88800D01*
X81500Y77700D02*
X83300Y75900D01*
X48600Y115900D02*
X50400Y114100D01*
X72800Y62400D02*
X72800Y71500D01*
X77800D02*
Y74000D01*
X59600Y82000D02*
X61000Y80600D01*
X59600Y82000D02*
Y83600D01*
X31900Y87800D02*
X32000Y87700D01*
X44700D01*
X47600Y90600D01*
X48100Y85100D02*
X53600Y90600D01*
X47600Y85100D02*
X48100D01*
X16600Y102500D02*
X23700D01*
X15900Y103200D02*
X16600Y102500D01*
X47600Y102600D02*
X50400Y105400D01*
X33900Y128900D02*
Y131500D01*
X41200Y109000D02*
Y112800D01*
Y109000D02*
X41600Y108600D01*
X9900Y93900D02*
Y97200D01*
X18000Y108700D02*
Y108800D01*
X15900Y127300D02*
X18600Y124600D01*
X22100Y128100D02*
X22900Y127400D01*
Y114700D02*
X23700Y113900D01*
Y109100D02*
Y113900D01*
X24300Y108500D02*
X28200D01*
X27637Y107937D02*
X28200Y108500D01*
X27637Y102500D02*
Y107937D01*
X23700Y102000D02*
X25700Y100000D01*
X31700D02*
X34200Y97500D01*
X23700Y102000D02*
Y102500D01*
X25700Y88400D02*
X28100Y90800D01*
X25700Y87000D02*
Y88400D01*
X41600Y84800D02*
X42087Y84313D01*
X93087Y48500D02*
X93887Y49300D01*
X43041Y52659D02*
X47041D01*
X39041Y47659D02*
X40041Y46659D01*
X36041Y47659D02*
X39041D01*
X29518Y48182D02*
X30041Y47659D01*
X88541Y59659D02*
Y65400D01*
X33100Y70600D02*
X36900D01*
X33100Y76600D02*
X33100Y76600D01*
X26100Y65500D02*
Y70600D01*
X32400Y65500D02*
X33000Y66100D01*
X26100Y65500D02*
X32400D01*
X29900Y57000D02*
X33000Y60100D01*
X47100Y57300D02*
Y59194D01*
X45600Y55800D02*
X47100Y57300D01*
X38300Y55800D02*
X45600D01*
X35900Y53400D02*
X38300Y55800D01*
X88541Y46715D02*
Y52215D01*
X85982Y46715D02*
Y52156D01*
X144500Y94500D02*
Y101000D01*
X9900Y97200D02*
X12728Y100028D01*
Y105012D01*
X13909Y106193D01*
X15393D01*
X18000Y108800D01*
X22900Y125154D02*
Y127400D01*
Y123451D02*
X23752Y124303D01*
X22900Y125154D02*
X23752Y124303D01*
X22900Y120700D02*
Y123451D01*
X22100Y128100D02*
X28100D01*
X23752Y124303D02*
X26011D01*
X26114Y124200D01*
X71800Y133200D02*
Y135800D01*
X72100Y136100D01*
X78100D02*
X78800Y135400D01*
X137020Y94500D02*
Y98280D01*
X137000Y98300D02*
X137020Y98280D01*
X142600Y68000D02*
X154000D01*
X137200Y73400D02*
X142600Y68000D01*
X137200Y73400D02*
Y88000D01*
X60000Y77400D02*
X77300D01*
X77800Y74000D02*
X81500Y77700D01*
X54200Y84500D02*
X56300D01*
X57200Y83600D01*
X59600D01*
X57100Y88100D02*
X58600Y89600D01*
X59600D01*
X103500Y120600D02*
X106600Y117500D01*
Y109750D02*
Y117500D01*
X79800Y131800D02*
X81700D01*
X78800Y132800D02*
Y135400D01*
Y130800D02*
X79800Y131800D01*
X78800Y132800D02*
X79800Y131800D01*
X103600Y101100D02*
X103700Y101000D01*
X100700Y101100D02*
X103600D01*
X140760Y73940D02*
Y85051D01*
Y73940D02*
X143600Y71100D01*
X158400D01*
X152600Y128000D02*
Y138500D01*
Y128000D02*
X155200Y125400D01*
X151000Y140100D02*
X152600Y138500D01*
X34200Y103500D02*
Y108500D01*
Y111400D01*
Y114500D01*
Y120300D01*
X24000Y108800D02*
X24300Y108500D01*
X23700Y109100D02*
X24000Y108800D01*
X40041Y46659D02*
X43041D01*
X52041D01*
X6400Y88700D02*
Y90400D01*
Y93900D01*
X25700Y100000D02*
X30800D01*
X31700D01*
X29900Y53300D02*
Y53400D01*
Y57000D01*
X48600Y115900D02*
Y119100D01*
Y124400D01*
X41600Y96600D02*
X44600D01*
X47600D01*
X93887Y49300D02*
X96087D01*
X36900Y70600D02*
X37100Y70800D01*
X42087Y80800D02*
Y84313D01*
X83423Y46715D02*
Y52215D01*
Y65400D01*
X47100Y80800D02*
X47587Y81287D01*
X15900Y127300D02*
Y128100D01*
Y128400D01*
X28200Y114500D02*
Y117500D01*
Y120300D01*
X85982Y52156D02*
X86041Y52215D01*
X83423D02*
X86041D01*
X88541D01*
X158400Y71100D02*
X168000Y61500D01*
X113000Y126500D02*
Y135500D01*
X117600Y140100D01*
X151000D01*
X118500Y108500D02*
X130000D01*
X114000Y104000D02*
X118500Y108500D01*
X110000Y104000D02*
X114000D01*
X130000Y108500D02*
X134200Y104300D01*
X137000D01*
X119500Y106500D02*
X128000D01*
X103700Y101000D02*
X114000D01*
X119500Y106500D01*
X128000D02*
X133500Y101000D01*
X127500Y104000D02*
X132135Y99365D01*
X119300Y104000D02*
X127500D01*
X132135Y93065D02*
Y99365D01*
Y93065D02*
X137200Y88000D01*
X121000Y112000D02*
Y118500D01*
X113000Y126500D02*
X121000Y118500D01*
X119500Y101500D02*
X121500D01*
X74000Y166000D02*
X79000D01*
X84000Y160000D02*
Y161000D01*
X79000Y166000D02*
X84000Y161000D01*
Y166000D02*
X89000D01*
X93800D01*
X97300Y162500D01*
X34900Y149559D02*
X37559D01*
X38500Y150500D01*
Y154500D02*
X39500Y155500D01*
X38500Y150500D02*
Y154500D01*
X39500Y155500D02*
X42500D01*
X65500Y80500D02*
Y80600D01*
Y85500D01*
X155200Y125400D02*
X161900D01*
X167500Y131000D01*
X42500Y145500D02*
Y149500D01*
X26037Y53300D02*
X29900D01*
X48400Y119100D02*
Y120200D01*
X80500Y80600D02*
X82459D01*
X84000D01*
X68500Y83700D02*
X71600Y80600D01*
Y85600D02*
X74400Y82800D01*
X77341D01*
X79000D01*
X76241Y97891D02*
Y102541D01*
X68500Y128536D02*
X68564Y128600D01*
X103600Y106750D02*
X103775Y106925D01*
X103950Y107100D01*
X66005Y97891D02*
Y101995D01*
X80600Y102800D02*
X84300Y99100D01*
X105159Y90431D02*
Y92641D01*
X91100Y65400D02*
Y73500D01*
Y73600D01*
X113900Y84900D02*
X115300Y86300D01*
X101800Y84900D02*
X113900D01*
X60000Y83200D02*
X62600D01*
X59600Y83600D02*
X60000Y83200D01*
X53600Y85100D02*
X54200Y84500D01*
X61000Y80600D02*
X65500D01*
X65600D01*
X103500Y87100D02*
X107800D01*
X89000Y120000D02*
Y126500D01*
X91700Y117000D02*
X97800Y110900D01*
X100600D01*
X73682Y124818D02*
Y128600D01*
Y124818D02*
X74600Y123900D01*
X87000Y120100D02*
X88900D01*
X74600Y123900D02*
X83200D01*
X87000Y120100D01*
X86600Y117000D02*
X91700D01*
X81900Y121700D02*
X86600Y117000D01*
X88800Y75900D02*
X91100Y73600D01*
X71123Y128600D02*
Y132523D01*
X71800Y133200D01*
X64000Y133500D02*
Y136000D01*
Y133500D02*
X66005Y131495D01*
Y128600D02*
Y131495D01*
X71900Y121700D02*
X81900D01*
X68564Y125036D02*
Y128600D01*
Y125036D02*
X71900Y121700D01*
X66610Y123990D02*
X73600Y117000D01*
X63446Y125100D02*
X64555Y123990D01*
X66610D01*
X104200Y93600D02*
X105159Y92641D01*
X113500Y95500D02*
X119500Y101500D01*
X84300Y99100D02*
X86600D01*
X83300Y106200D02*
X84800D01*
X88700Y102300D01*
X99500D01*
X100700Y101100D01*
X100200Y95500D02*
X113500D01*
X114300Y99000D02*
X119300Y104000D01*
X108700Y99000D02*
X114300D01*
X101300Y97300D02*
X107000D01*
X108700Y99000D01*
X98935Y99665D02*
X101300Y97300D01*
X89835Y99665D02*
X98935D01*
X98700Y97000D02*
X100200Y95500D01*
X86600Y99100D02*
X88700Y97000D01*
X98700D01*
X99000Y93600D02*
X104200D01*
X97700Y94900D02*
X99000Y93600D01*
X82400Y95800D02*
X83300Y94900D01*
X97700D01*
X64487Y103513D02*
X66005Y101995D01*
X64487Y103513D02*
Y106813D01*
X75300Y114300D02*
X77600Y116600D01*
X64400Y113400D02*
X68300D01*
X63500Y107800D02*
X64487Y106813D01*
X63500Y107800D02*
Y112500D01*
X64400Y113400D01*
X68300D02*
X69200Y114300D01*
X75300D01*
X-5000Y186500D02*
X313000D01*
Y130000D02*
Y186500D01*
X290500Y62000D02*
Y122900D01*
X313000Y-5000D02*
Y51400D01*
X-5000Y-5000D02*
X313000D01*
X-5000D02*
Y186500D01*
X299000Y51400D02*
X313000D01*
X290500D02*
Y63000D01*
Y51400D02*
X302000D01*
X290500Y121500D02*
Y130000D01*
X313000D01*
X404192Y-130118D02*
G03*
X399292Y-125218I-4900J0D01*
G01*
X289192D02*
G03*
X284192Y-130218I0J-5000D01*
G01*
X399192Y-120218D02*
G03*
X404192Y-115218I0J5000D01*
G01*
X284192D02*
G03*
X289192Y-120218I5000J0D01*
G01*
X-20808Y-47718D02*
G03*
X-30808Y-57718I0J-10000D01*
G01*
Y-167618D02*
G03*
X-20884Y-177716I10100J0D01*
G01*
X399192Y-177718D02*
G03*
X409192Y-167718I0J10000D01*
G01*
Y-57718D02*
G03*
X399192Y-47718I-10000J0D01*
G01*
X404192Y-57618D02*
G03*
X399121Y-52721I-4900J0D01*
G01*
X399192Y-147718D02*
G03*
X404192Y-142718I0J5000D01*
G01*
X404192Y-157630D02*
G03*
X399192Y-152717I-5000J-87D01*
G01*
Y-172718D02*
G03*
X404192Y-167718I0J5000D01*
G01*
X274192Y-147718D02*
G03*
X279192Y-142718I0J5000D01*
G01*
X284192Y-142818D02*
G03*
X289177Y-147717I4900J0D01*
G01*
X279192Y-130118D02*
G03*
X274292Y-125218I-4900J0D01*
G01*
X-25808Y-167718D02*
G03*
X-20895Y-172717I5000J0D01*
G01*
X274279Y-120218D02*
G03*
X279193Y-115218I-87J5000D01*
G01*
X-20808Y-152718D02*
G03*
X-25808Y-157718I0J-5000D01*
G01*
X279192Y-82718D02*
G03*
X274192Y-77718I-5000J0D01*
G01*
Y-72718D02*
G03*
X279192Y-67718I0J5000D01*
G01*
X289192Y-52718D02*
G03*
X284192Y-57718I0J-5000D01*
G01*
X279192D02*
G03*
X274192Y-52718I-5000J0D01*
G01*
X-20808D02*
G03*
X-25808Y-57718I0J-5000D01*
G01*
Y-67718D02*
G03*
X-20808Y-72718I5000J0D01*
G01*
Y-77718D02*
G03*
X-25808Y-82718I0J-5000D01*
G01*
Y-105218D02*
G03*
X-20808Y-110218I5000J0D01*
G01*
Y-115218D02*
G03*
X-25808Y-120218I0J-5000D01*
G01*
Y-142718D02*
G03*
X-20895Y-147717I5000J0D01*
G01*
X69192Y-77718D02*
G03*
X64192Y-82718I0J-5000D01*
G01*
X69192Y-125218D02*
G03*
X64192Y-130218I0J-5000D01*
G01*
X243992Y-125218D02*
G03*
X239199Y-130269I0J-4800D01*
G01*
X239192Y-142618D02*
G03*
X244203Y-147717I5100J0D01*
G01*
X229292Y-147718D02*
G03*
X234191Y-142732I0J4900D01*
G01*
X234192Y-130118D02*
G03*
X229292Y-125218I-4900J0D01*
G01*
X54292Y-147718D02*
G03*
X59192Y-142818I0J4900D01*
G01*
X64192D02*
G03*
X69092Y-147718I4900J0D01*
G01*
X64192Y-115318D02*
G03*
X69092Y-120218I4900J0D01*
G01*
X59192Y-120118D02*
G03*
X54121Y-115221I-4900J0D01*
G01*
X54392Y-110218D02*
G03*
X59192Y-105418I0J4800D01*
G01*
Y-82618D02*
G03*
X54292Y-77718I-4900J0D01*
G01*
X344192Y-152718D02*
G03*
X339192Y-157718I0J-5000D01*
G01*
Y-167818D02*
G03*
X344178Y-172717I4900J0D01*
G01*
X329308Y-172718D02*
G03*
X334190Y-167750I84J4800D01*
G01*
X334192Y-157718D02*
G03*
X329192Y-152718I-5000J0D01*
G01*
X156692Y-167718D02*
G03*
X161605Y-172717I5000J0D01*
G01*
X161692Y-152718D02*
G03*
X156692Y-157718I0J-5000D01*
G01*
X146808Y-172718D02*
G03*
X151690Y-167750I84J4800D01*
G01*
X151692Y-157718D02*
G03*
X146692Y-152718I-5000J0D01*
G01*
X404192Y-142718D02*
Y-130118D01*
X284192Y-142718D02*
Y-130218D01*
X404192Y-115218D02*
Y-57718D01*
X284192Y-115218D02*
Y-57718D01*
X-30808Y-167718D02*
Y-57718D01*
X-25808Y-167718D02*
Y-157718D01*
X404192Y-167718D02*
Y-157718D01*
X279192Y-142718D02*
Y-130218D01*
X239192Y-142718D02*
Y-130218D01*
X64192Y-142718D02*
Y-130218D01*
X234192Y-142718D02*
Y-130218D01*
X64192Y-115218D02*
Y-82718D01*
X279192Y-115218D02*
Y-82718D01*
Y-67718D02*
Y-57718D01*
X-25808Y-67718D02*
Y-57718D01*
X59192Y-105218D02*
Y-82718D01*
X-25808Y-105218D02*
Y-82718D01*
X59192Y-142718D02*
Y-120218D01*
X-25808Y-142718D02*
Y-120218D01*
X409192Y-167718D02*
Y-57718D01*
X339192Y-167718D02*
Y-157718D01*
X334192Y-167718D02*
Y-157718D01*
X156692Y-167718D02*
Y-157718D01*
X151692Y-167718D02*
Y-157718D01*
X289192Y-125218D02*
X399192D01*
X289192Y-120218D02*
X399192D01*
X69192D02*
X274192D01*
X289192Y-52718D02*
X399192D01*
X289192Y-147718D02*
X399192D01*
X244192Y-125218D02*
X274192D01*
X244192Y-147718D02*
X274192D01*
X69192D02*
X229192D01*
X69192Y-125218D02*
X229192D01*
X69192Y-77718D02*
X274192D01*
X-20808Y-72718D02*
X274192D01*
X-20808Y-77718D02*
X54192D01*
X-20808Y-110218D02*
X54192D01*
X-20808Y-115218D02*
X54192D01*
X-20808Y-147718D02*
X54192D01*
X-20808Y-47718D02*
X399192D01*
X-20808Y-177718D02*
X399192D01*
X-20808Y-52718D02*
X274192D01*
X344192Y-152718D02*
X399192D01*
X344192Y-172718D02*
X399192D01*
X161692Y-152718D02*
X329192D01*
X-20808D02*
X146692D01*
X-20808Y-172718D02*
X146692D01*
X161692D02*
X329192D01*
X322117Y-86358D02*
X321051Y-85292D01*
X318919D01*
X317852Y-86358D01*
Y-87424D01*
X318919Y-88491D01*
X321051D01*
X322117Y-89557D01*
Y-90623D01*
X321051Y-91690D01*
X318919D01*
X317852Y-90623D01*
X324250Y-87424D02*
Y-90623D01*
X325317Y-91690D01*
X328516D01*
Y-87424D01*
X330648Y-91690D02*
X332781D01*
X331714D01*
Y-87424D01*
X330648D01*
X337046Y-86358D02*
Y-87424D01*
X335980D01*
X338112D01*
X337046D01*
Y-90623D01*
X338112Y-91690D01*
X344510D02*
X342378D01*
X341311Y-90623D01*
Y-88491D01*
X342378Y-87424D01*
X344510D01*
X345577Y-88491D01*
Y-89557D01*
X341311D01*
X354107Y-91690D02*
X356240D01*
X355173D01*
Y-85292D01*
X354107Y-86358D01*
X359439Y-91690D02*
X361571D01*
X360505D01*
Y-85292D01*
X359439Y-86358D01*
X364770D02*
X365837Y-85292D01*
X367969D01*
X369036Y-86358D01*
Y-87424D01*
X367969Y-88491D01*
X369036Y-89557D01*
Y-90623D01*
X367969Y-91690D01*
X365837D01*
X364770Y-90623D01*
Y-89557D01*
X365837Y-88491D01*
X364770Y-87424D01*
Y-86358D01*
X365837Y-88491D02*
X367969D01*
X314118Y-106792D02*
X309852D01*
Y-109991D01*
X311985Y-108924D01*
X313051D01*
X314118Y-109991D01*
Y-112123D01*
X313051Y-113190D01*
X310919D01*
X309852Y-112123D01*
X320515Y-106792D02*
X318383Y-107858D01*
X316250Y-109991D01*
Y-112123D01*
X317317Y-113190D01*
X319449D01*
X320515Y-112123D01*
Y-111057D01*
X319449Y-109991D01*
X316250D01*
X322648Y-113190D02*
X324781D01*
X323714D01*
Y-106792D01*
X322648Y-107858D01*
X327980Y-109991D02*
X332245D01*
X334378Y-112123D02*
X335444Y-113190D01*
X337577D01*
X338643Y-112123D01*
Y-107858D01*
X337577Y-106792D01*
X335444D01*
X334378Y-107858D01*
Y-108924D01*
X335444Y-109991D01*
X338643D01*
X340776Y-112123D02*
X341842Y-113190D01*
X343974D01*
X345041Y-112123D01*
Y-107858D01*
X343974Y-106792D01*
X341842D01*
X340776Y-107858D01*
Y-108924D01*
X341842Y-109991D01*
X345041D01*
X347174Y-112123D02*
X348240Y-113190D01*
X350373D01*
X351439Y-112123D01*
Y-107858D01*
X350373Y-106792D01*
X348240D01*
X347174Y-107858D01*
Y-108924D01*
X348240Y-109991D01*
X351439D01*
X353571D02*
X357837D01*
X359969Y-112123D02*
X361036Y-113190D01*
X363168D01*
X364235Y-112123D01*
Y-107858D01*
X363168Y-106792D01*
X361036D01*
X359969Y-107858D01*
Y-108924D01*
X361036Y-109991D01*
X364235D01*
X369566Y-113190D02*
Y-106792D01*
X366367Y-109991D01*
X370633D01*
X377030Y-113190D02*
X372765D01*
X377030Y-108924D01*
Y-107858D01*
X375964Y-106792D01*
X373832D01*
X372765Y-107858D01*
X383428Y-113190D02*
X379163D01*
X383428Y-108924D01*
Y-107858D01*
X382362Y-106792D01*
X380229D01*
X379163Y-107858D01*
X288352Y-80123D02*
X289419Y-81190D01*
X291551D01*
X292618Y-80123D01*
Y-75858D01*
X291551Y-74792D01*
X289419D01*
X288352Y-75858D01*
Y-76925D01*
X289419Y-77991D01*
X292618D01*
X294750Y-75858D02*
X295816Y-74792D01*
X297949D01*
X299015Y-75858D01*
Y-80123D01*
X297949Y-81190D01*
X295816D01*
X294750Y-80123D01*
Y-75858D01*
X305413Y-81190D02*
X301148D01*
X305413Y-76925D01*
Y-75858D01*
X304347Y-74792D01*
X302214D01*
X301148Y-75858D01*
X318209D02*
X317143Y-74792D01*
X315010D01*
X313944Y-75858D01*
Y-80123D01*
X315010Y-81190D01*
X317143D01*
X318209Y-80123D01*
X320342Y-81190D02*
X322475D01*
X321408D01*
Y-74792D01*
X320342D01*
X325674Y-81190D02*
X327806D01*
X326740D01*
Y-76925D01*
X325674D01*
X331005Y-81190D02*
Y-76925D01*
X334204D01*
X335270Y-77991D01*
Y-81190D01*
X338469Y-75858D02*
Y-76925D01*
X337403D01*
X339536D01*
X338469D01*
Y-80123D01*
X339536Y-81190D01*
X349133D02*
Y-74792D01*
X351265Y-76925D01*
X353398Y-74792D01*
Y-81190D01*
X356597D02*
X358730D01*
X359796Y-80123D01*
Y-77991D01*
X358730Y-76925D01*
X356597D01*
X355531Y-77991D01*
Y-80123D01*
X356597Y-81190D01*
X362995D02*
X365127D01*
X366194Y-80123D01*
Y-77991D01*
X365127Y-76925D01*
X362995D01*
X361928Y-77991D01*
Y-80123D01*
X362995Y-81190D01*
X368326Y-76925D02*
Y-81190D01*
Y-79057D01*
X369393Y-77991D01*
X370459Y-76925D01*
X371525D01*
X377923Y-81190D02*
X375791D01*
X374724Y-80123D01*
Y-77991D01*
X375791Y-76925D01*
X377923D01*
X378990Y-77991D01*
Y-79057D01*
X374724D01*
X387520Y-81190D02*
Y-74792D01*
X390719D01*
X391785Y-75858D01*
Y-77991D01*
X390719Y-79057D01*
X387520D01*
X389653D02*
X391785Y-81190D01*
X398183Y-74792D02*
Y-81190D01*
X394984D01*
X393918Y-80123D01*
Y-77991D01*
X394984Y-76925D01*
X398183D01*
X400316Y-81190D02*
Y-80123D01*
X401382D01*
Y-81190D01*
X400316D01*
X304352Y-94792D02*
Y-101190D01*
X307551D01*
X308617Y-100123D01*
Y-99057D01*
X307551Y-97991D01*
X304352D01*
X307551D01*
X308617Y-96925D01*
Y-95858D01*
X307551Y-94792D01*
X304352D01*
X311817Y-101190D02*
X313949D01*
X315016Y-100123D01*
Y-97991D01*
X313949Y-96925D01*
X311817D01*
X310750Y-97991D01*
Y-100123D01*
X311817Y-101190D01*
X321413Y-96925D02*
X318214D01*
X317148Y-97991D01*
Y-100123D01*
X318214Y-101190D01*
X321413D01*
X324612Y-96925D02*
X326745D01*
X327811Y-97991D01*
Y-101190D01*
X324612D01*
X323546Y-100123D01*
X324612Y-99057D01*
X327811D01*
X336342Y-101190D02*
Y-94792D01*
X339541D01*
X340607Y-95858D01*
Y-97991D01*
X339541Y-99057D01*
X336342D01*
X338474D02*
X340607Y-101190D01*
X343806Y-96925D02*
X345939D01*
X347005Y-97991D01*
Y-101190D01*
X343806D01*
X342740Y-100123D01*
X343806Y-99057D01*
X347005D01*
X350204Y-95858D02*
Y-96925D01*
X349138D01*
X351270D01*
X350204D01*
Y-100123D01*
X351270Y-101190D01*
X355536D02*
X357668D01*
X358735Y-100123D01*
Y-97991D01*
X357668Y-96925D01*
X355536D01*
X354469Y-97991D01*
Y-100123D01*
X355536Y-101190D01*
X360867D02*
Y-96925D01*
X364066D01*
X365133Y-97991D01*
Y-101190D01*
X377928Y-94792D02*
X373663D01*
Y-97991D01*
X375796D01*
X373663D01*
Y-101190D01*
X380061Y-94792D02*
Y-101190D01*
X384326D01*
X386459D02*
Y-100123D01*
X387525D01*
Y-101190D01*
X386459D01*
X290500Y130000D02*
X313000D01*
Y-5000D02*
Y51400D01*
X-5000Y-5000D02*
X313000D01*
X-5000D02*
Y186500D01*
X290500Y65600D02*
Y130000D01*
X313000D02*
Y186500D01*
X-5000D02*
X313000D01*
X294000Y51400D02*
X313000D01*
X290500D02*
Y65600D01*
Y51400D02*
X294000D01*
D49*
X12400Y90400D02*
Y91400D01*
Y85500D02*
Y90400D01*
Y80500D02*
Y85500D01*
X9900Y109200D02*
X14100D01*
X11400Y120700D02*
X22900D01*
X9900Y119200D02*
X11400Y120700D01*
X9900Y115200D02*
Y119200D01*
X6400Y111700D02*
X9900Y115200D01*
X6400Y106700D02*
Y111700D01*
Y106700D02*
X9900Y103200D01*
X25668Y94569D02*
Y97382D01*
X15900Y94900D02*
Y97200D01*
X17400Y114700D02*
X22900D01*
X6400Y80500D02*
Y85500D01*
Y90400D01*
X12400Y91400D02*
X15300Y94300D01*
X15900Y94900D01*
D50*
X57693Y107807D02*
Y112193D01*
Y107807D02*
X60887Y104613D01*
X58000Y112474D02*
X58013Y112487D01*
X57693Y112193D02*
X57987Y112487D01*
X60887Y97891D02*
Y104613D01*
X60500Y107500D02*
X62500Y105500D01*
X60500Y107500D02*
Y109500D01*
X62500Y102000D02*
Y105500D01*
X55500Y110500D02*
Y113400D01*
X52500Y107500D02*
X55500Y110500D01*
Y113400D02*
X57000Y114900D01*
X52500Y104954D02*
Y107500D01*
X62500Y102000D02*
X63446Y101054D01*
Y97891D02*
Y101054D01*
X52300Y123300D02*
Y133500D01*
X51000Y122000D02*
X52300Y123300D01*
X51000Y116800D02*
Y122000D01*
Y116800D02*
X52900Y114900D01*
X53600D01*
X53900Y118800D02*
Y132100D01*
X53600Y118500D02*
X53900Y118800D01*
Y132100D02*
X54900Y133100D01*
X57100D01*
X58000Y134000D01*
Y136000D01*
X50600Y125900D02*
Y132500D01*
X49100Y124400D02*
X50600Y125900D01*
X46700Y136400D02*
X50600Y132500D01*
X48600Y124400D02*
X49100D01*
X41600Y90800D02*
X44400Y93600D01*
X49600D01*
X50700Y94700D01*
Y103154D01*
X52500Y104954D01*
X55769Y120332D02*
Y128600D01*
Y120332D02*
X57000Y119100D01*
Y114900D02*
Y119100D01*
X50500Y135300D02*
Y145000D01*
Y135300D02*
X52300Y133500D01*
X73682Y93182D02*
Y97891D01*
X71500Y91000D02*
X73682Y93182D01*
X78800Y114000D02*
X89000D01*
X77300Y112500D02*
X78800Y114000D01*
X89800Y107100D02*
X91600D01*
X86200Y110700D02*
X89800Y107100D01*
X80600Y102800D02*
Y104900D01*
X79700Y105800D02*
X80600Y104900D01*
X73682Y97891D02*
Y103982D01*
X75500Y105800D01*
X79700D01*
X84800Y109000D02*
X89600Y104200D01*
X100700D01*
X103600Y107100D01*
X75900Y109000D02*
X84800D01*
X71123Y104223D02*
X75900Y109000D01*
X71123Y97891D02*
Y104223D01*
X74900Y110700D02*
X86200D01*
X67400Y104700D02*
X68900D01*
X74900Y110700D01*
X67400Y103164D02*
Y104700D01*
X68564Y97891D02*
Y102000D01*
X67400Y103164D02*
X68564Y102000D01*
X71700Y112500D02*
X77300D01*
X68500Y109300D02*
X71700Y112500D01*
X262738Y2309D02*
Y2547D01*
X262976Y3023D01*
X263214Y3261D01*
X263690Y3499D01*
X264642D01*
X265119Y3261D01*
X265356Y3023D01*
X265595Y2547D01*
Y2071D01*
X265356Y1595D01*
X264880Y880D01*
X262500Y-1500D01*
X265833D01*
X270284Y3499D02*
X267904Y-1500D01*
X266951Y3499D02*
X270284D01*
X271403Y2547D02*
X271879Y2785D01*
X272593Y3499D01*
Y-1500D01*
X275307Y2309D02*
Y2547D01*
X275545Y3023D01*
X275783Y3261D01*
X276259Y3499D01*
X277211D01*
X277687Y3261D01*
X277925Y3023D01*
X278163Y2547D01*
Y2071D01*
X277925Y1595D01*
X277449Y880D01*
X275069Y-1500D01*
X278401D01*
X255700Y150499D02*
Y145500D01*
Y150499D02*
X257842D01*
X258557Y150261D01*
X258795Y150023D01*
X259033Y149547D01*
Y149071D01*
X258795Y148595D01*
X258557Y148356D01*
X257842Y148118D01*
X255700D01*
X257366D02*
X259033Y145500D01*
X260151Y147404D02*
X263008D01*
Y147880D01*
X262770Y148356D01*
X262532Y148595D01*
X262056Y148833D01*
X261342D01*
X260866Y148595D01*
X260389Y148118D01*
X260151Y147404D01*
Y146928D01*
X260389Y146214D01*
X260866Y145738D01*
X261342Y145500D01*
X262056D01*
X262532Y145738D01*
X263008Y146214D01*
X264079Y148833D02*
X265507Y145500D01*
X266936Y148833D02*
X265507Y145500D01*
X267983Y149309D02*
Y149547D01*
X268221Y150023D01*
X268459Y150261D01*
X268935Y150499D01*
X269887D01*
X270363Y150261D01*
X270602Y150023D01*
X270840Y149547D01*
Y149071D01*
X270602Y148595D01*
X270126Y147880D01*
X267745Y145500D01*
X271078D01*
X273625Y150499D02*
X272911Y150261D01*
X272434Y149547D01*
X272197Y148356D01*
Y147642D01*
X272434Y146452D01*
X272911Y145738D01*
X273625Y145500D01*
X274101D01*
X274815Y145738D01*
X275291Y146452D01*
X275529Y147642D01*
Y148356D01*
X275291Y149547D01*
X274815Y150261D01*
X274101Y150499D01*
X273625D01*
X20028Y-120491D02*
Y-124554D01*
X19774Y-125315D01*
X19520Y-125569D01*
X19012Y-125823D01*
X18504D01*
X17996Y-125569D01*
X17742Y-125315D01*
X17489Y-124554D01*
Y-124046D01*
X21653Y-125315D02*
X21399Y-125569D01*
X21653Y-125823D01*
X21907Y-125569D01*
X21653Y-125315D01*
X23075Y-120491D02*
Y-125823D01*
Y-120491D02*
X26629Y-125823D01*
Y-120491D02*
Y-125823D01*
D51*
X68500Y133900D02*
Y137200D01*
X66400Y139300D02*
X68500Y137200D01*
X53300Y137500D02*
X55100Y139300D01*
X7500Y50000D02*
X7600Y50100D01*
X96087Y55300D02*
X101307D01*
X55100Y139300D02*
X57500D01*
X66400D01*
D52*
X232254Y71112D02*
Y81012D01*
Y71112D02*
X247754D01*
Y81012D01*
D53*
X21742Y5958D02*
X248842D01*
X7600Y20100D02*
X21742Y5958D01*
X7600Y20100D02*
Y50100D01*
D54*
X17100Y54100D02*
X18500Y55500D01*
Y59100D01*
X35600Y90800D02*
X41600D01*
X12300Y56300D02*
X15300Y53300D01*
X18000Y59600D02*
X18500Y59100D01*
X12300Y59600D02*
X18000D01*
X15100Y65100D02*
X18500D01*
X18000Y70500D02*
X18600Y71100D01*
X41600Y84800D02*
X42100Y85300D01*
X18600Y77100D02*
X22600Y73100D01*
Y63000D02*
Y73100D01*
Y63000D02*
X26100Y59500D01*
X18600Y77100D02*
Y82800D01*
X31800D01*
X8900Y75400D02*
X12400D01*
X15300Y53300D02*
X17100D01*
X22100D01*
X12300Y56300D02*
Y58694D01*
Y59600D01*
X12000Y64000D02*
Y64694D01*
Y69500D01*
Y69900D01*
X12400Y70500D02*
X12500D01*
X18000D01*
D55*
X10501Y-10097D02*
Y-16100D01*
X8500Y-10097D02*
X12502D01*
X14646Y-12098D02*
X14074Y-12384D01*
X13502Y-12956D01*
X13216Y-13813D01*
Y-14385D01*
X13502Y-15243D01*
X14074Y-15814D01*
X14646Y-16100D01*
X15503D01*
X16075Y-15814D01*
X16646Y-15243D01*
X16932Y-14385D01*
Y-13813D01*
X16646Y-12956D01*
X16075Y-12384D01*
X15503Y-12098D01*
X14646D01*
X18247D02*
Y-18101D01*
Y-12956D02*
X18819Y-12384D01*
X19390Y-12098D01*
X20248D01*
X20820Y-12384D01*
X21391Y-12956D01*
X21677Y-13813D01*
Y-14385D01*
X21391Y-15243D01*
X20820Y-15814D01*
X20248Y-16100D01*
X19390D01*
X18819Y-15814D01*
X18247Y-15243D01*
X22964Y-10097D02*
Y-16100D01*
X26394D01*
X30481Y-12098D02*
Y-16100D01*
Y-12956D02*
X29910Y-12384D01*
X29338Y-12098D01*
X28480D01*
X27909Y-12384D01*
X27337Y-12956D01*
X27051Y-13813D01*
Y-14385D01*
X27337Y-15243D01*
X27909Y-15814D01*
X28480Y-16100D01*
X29338D01*
X29910Y-15814D01*
X30481Y-15243D01*
X32368Y-12098D02*
X34083Y-16100D01*
X35798Y-12098D02*
X34083Y-16100D01*
X33511Y-17243D01*
X32939Y-17815D01*
X32368Y-18101D01*
X32082D01*
X36798Y-13813D02*
X40228D01*
Y-13242D01*
X39942Y-12670D01*
X39657Y-12384D01*
X39085Y-12098D01*
X38227D01*
X37656Y-12384D01*
X37084Y-12956D01*
X36798Y-13813D01*
Y-14385D01*
X37084Y-15243D01*
X37656Y-15814D01*
X38227Y-16100D01*
X39085D01*
X39657Y-15814D01*
X40228Y-15243D01*
X41515Y-12098D02*
Y-16100D01*
Y-13813D02*
X41800Y-12956D01*
X42372Y-12384D01*
X42944Y-12098D01*
X43801D01*
D56*
X330923Y-135201D02*
Y-134947D01*
X331177Y-134439D01*
X331431Y-134185D01*
X331939Y-133931D01*
X332954D01*
X333462Y-134185D01*
X333716Y-134439D01*
X333970Y-134947D01*
Y-135455D01*
X333716Y-135963D01*
X333208Y-136724D01*
X330669Y-139264D01*
X334224D01*
X335417Y-140025D02*
X338972Y-133931D01*
X342882D02*
X340343Y-139264D01*
X339328Y-133931D02*
X342882D01*
X344076Y-140025D02*
X347631Y-133931D01*
X348240Y-135201D02*
Y-134947D01*
X348494Y-134439D01*
X348748Y-134185D01*
X349256Y-133931D01*
X350272D01*
X350779Y-134185D01*
X351033Y-134439D01*
X351287Y-134947D01*
Y-135455D01*
X351033Y-135963D01*
X350525Y-136724D01*
X347986Y-139264D01*
X351541D01*
X354258Y-133931D02*
X353496Y-134185D01*
X352988Y-134947D01*
X352734Y-136217D01*
Y-136978D01*
X352988Y-138248D01*
X353496Y-139010D01*
X354258Y-139264D01*
X354766D01*
X355528Y-139010D01*
X356035Y-138248D01*
X356289Y-136978D01*
Y-136217D01*
X356035Y-134947D01*
X355528Y-134185D01*
X354766Y-133931D01*
X354258D01*
X357483Y-134947D02*
X357991Y-134693D01*
X358752Y-133931D01*
Y-139264D01*
X361647Y-135201D02*
Y-134947D01*
X361901Y-134439D01*
X362155Y-134185D01*
X362663Y-133931D01*
X363678D01*
X364186Y-134185D01*
X364440Y-134439D01*
X364694Y-134947D01*
Y-135455D01*
X364440Y-135963D01*
X363932Y-136724D01*
X361393Y-139264D01*
X364948D01*
X260696Y-137405D02*
Y-137151D01*
X260950Y-136643D01*
X261204Y-136389D01*
X261712Y-136135D01*
X262727D01*
X263235Y-136389D01*
X263489Y-136643D01*
X263743Y-137151D01*
Y-137659D01*
X263489Y-138167D01*
X262981Y-138928D01*
X260442Y-141468D01*
X263997D01*
X266714Y-136135D02*
X265952Y-136389D01*
X265444Y-137151D01*
X265190Y-138421D01*
Y-139182D01*
X265444Y-140452D01*
X265952Y-141214D01*
X266714Y-141468D01*
X267221D01*
X267983Y-141214D01*
X268491Y-140452D01*
X268745Y-139182D01*
Y-138421D01*
X268491Y-137151D01*
X267983Y-136389D01*
X267221Y-136135D01*
X266714D01*
X89505Y-67218D02*
X85848Y-57620D01*
X82192Y-67218D01*
X83563Y-64018D02*
X88134D01*
X97229Y-62190D02*
X96315Y-61276D01*
X95401Y-60819D01*
X94029D01*
X93115Y-61276D01*
X92201Y-62190D01*
X91744Y-63561D01*
Y-64475D01*
X92201Y-65847D01*
X93115Y-66761D01*
X94029Y-67218D01*
X95401D01*
X96315Y-66761D01*
X97229Y-65847D01*
X100656Y-57620D02*
Y-65390D01*
X101114Y-66761D01*
X102028Y-67218D01*
X102942D01*
X99285Y-60819D02*
X102485D01*
X105227Y-57620D02*
X105684Y-58077D01*
X106141Y-57620D01*
X105684Y-57163D01*
X105227Y-57620D01*
X105684Y-60819D02*
Y-67218D01*
X107832Y-60819D02*
X110574Y-67218D01*
X113317Y-60819D02*
X110574Y-67218D01*
X114871Y-63561D02*
X120355D01*
Y-62647D01*
X119898Y-61733D01*
X119441Y-61276D01*
X118527Y-60819D01*
X117156D01*
X116242Y-61276D01*
X115328Y-62190D01*
X114871Y-63561D01*
Y-64475D01*
X115328Y-65847D01*
X116242Y-66761D01*
X117156Y-67218D01*
X118527D01*
X119441Y-66761D01*
X120355Y-65847D01*
X129953Y-57620D02*
X132238Y-67218D01*
X134523Y-57620D02*
X132238Y-67218D01*
X134523Y-57620D02*
X136809Y-67218D01*
X139094Y-57620D02*
X136809Y-67218D01*
X146498Y-60819D02*
Y-67218D01*
Y-62190D02*
X145584Y-61276D01*
X144670Y-60819D01*
X143299D01*
X142385Y-61276D01*
X141471Y-62190D01*
X141014Y-63561D01*
Y-64475D01*
X141471Y-65847D01*
X142385Y-66761D01*
X143299Y-67218D01*
X144670D01*
X145584Y-66761D01*
X146498Y-65847D01*
X149058Y-60819D02*
X151800Y-67218D01*
X154542Y-60819D02*
X151800Y-67218D01*
X156096Y-63561D02*
X161581D01*
Y-62647D01*
X161124Y-61733D01*
X160667Y-61276D01*
X159752Y-60819D01*
X158381D01*
X157467Y-61276D01*
X156553Y-62190D01*
X156096Y-63561D01*
Y-64475D01*
X156553Y-65847D01*
X157467Y-66761D01*
X158381Y-67218D01*
X159752D01*
X160667Y-66761D01*
X161581Y-65847D01*
X149199Y-93902D02*
Y-103500D01*
X146000Y-93902D02*
X152399D01*
X159026Y-97101D02*
Y-103500D01*
Y-98472D02*
X158112Y-97558D01*
X157198Y-97101D01*
X155826D01*
X154912Y-97558D01*
X153998Y-98472D01*
X153541Y-99844D01*
Y-100758D01*
X153998Y-102129D01*
X154912Y-103043D01*
X155826Y-103500D01*
X157198D01*
X158112Y-103043D01*
X159026Y-102129D01*
X167070Y-97101D02*
Y-104414D01*
X166613Y-105785D01*
X166156Y-106242D01*
X165242Y-106699D01*
X163871D01*
X162956Y-106242D01*
X167070Y-98472D02*
X166156Y-97558D01*
X165242Y-97101D01*
X163871D01*
X162956Y-97558D01*
X162042Y-98472D01*
X161585Y-99844D01*
Y-100758D01*
X162042Y-102129D01*
X162956Y-103043D01*
X163871Y-103500D01*
X165242D01*
X166156Y-103043D01*
X167070Y-102129D01*
X169629Y-95730D02*
X170543Y-95273D01*
X171914Y-93902D01*
Y-103500D01*
X179410Y-93902D02*
X178039Y-94359D01*
X177125Y-95730D01*
X176668Y-98015D01*
Y-99387D01*
X177125Y-101672D01*
X178039Y-103043D01*
X179410Y-103500D01*
X180324D01*
X181695Y-103043D01*
X182609Y-101672D01*
X183066Y-99387D01*
Y-98015D01*
X182609Y-95730D01*
X181695Y-94359D01*
X180324Y-93902D01*
X179410D01*
X190699D02*
X186128D01*
X185671Y-98015D01*
X186128Y-97558D01*
X187500Y-97101D01*
X188871D01*
X190242Y-97558D01*
X191156Y-98472D01*
X191613Y-99844D01*
Y-100758D01*
X191156Y-102129D01*
X190242Y-103043D01*
X188871Y-103500D01*
X187500D01*
X186128Y-103043D01*
X185671Y-102586D01*
X185214Y-101672D01*
D57*
X289192Y-128636D02*
Y-133968D01*
Y-128636D02*
X290969D01*
X291731Y-128889D01*
X292239Y-129397D01*
X292493Y-129905D01*
X292747Y-130667D01*
Y-131936D01*
X292493Y-132698D01*
X292239Y-133206D01*
X291731Y-133714D01*
X290969Y-133968D01*
X289192D01*
X298003D02*
X295971Y-128636D01*
X293940Y-133968D01*
X294702Y-132190D02*
X297241D01*
X301024Y-128636D02*
Y-133968D01*
X299247Y-128636D02*
X302802D01*
X306737D02*
X303437D01*
Y-133968D01*
X306737D01*
X303437Y-131175D02*
X305468D01*
X307880Y-130413D02*
X307626Y-130667D01*
X307880Y-130921D01*
X308134Y-130667D01*
X307880Y-130413D01*
Y-133460D02*
X307626Y-133714D01*
X307880Y-133968D01*
X308134Y-133714D01*
X307880Y-133460D01*
X242942Y-128636D02*
Y-133968D01*
Y-128636D02*
X245227D01*
X245989Y-128889D01*
X246243Y-129143D01*
X246497Y-129651D01*
Y-130159D01*
X246243Y-130667D01*
X245989Y-130921D01*
X245227Y-131175D01*
X242942D01*
X244719D02*
X246497Y-133968D01*
X250991Y-128636D02*
X247690D01*
Y-133968D01*
X250991D01*
X247690Y-131175D02*
X249722D01*
X251880Y-128636D02*
X253911Y-133968D01*
X255943Y-128636D02*
X253911Y-133968D01*
X256882Y-130413D02*
X256628Y-130667D01*
X256882Y-130921D01*
X257136Y-130667D01*
X256882Y-130413D01*
Y-133460D02*
X256628Y-133714D01*
X256882Y-133968D01*
X257136Y-133714D01*
X256882Y-133460D01*
X-20808Y-103928D02*
X-18523D01*
X-17761Y-103675D01*
X-17507Y-103421D01*
X-17253Y-102913D01*
Y-102151D01*
X-17507Y-101643D01*
X-17761Y-101389D01*
X-18523Y-101136D01*
X-20808D01*
Y-106468D01*
X-16060Y-101136D02*
Y-106468D01*
X-12505Y-101136D02*
Y-106468D01*
X-16060Y-103675D02*
X-12505D01*
X-9509Y-101136D02*
X-10017Y-101389D01*
X-10524Y-101897D01*
X-10778Y-102405D01*
X-11032Y-103167D01*
Y-104436D01*
X-10778Y-105198D01*
X-10524Y-105706D01*
X-10017Y-106214D01*
X-9509Y-106468D01*
X-8493D01*
X-7985Y-106214D01*
X-7478Y-105706D01*
X-7224Y-105198D01*
X-6970Y-104436D01*
Y-103167D01*
X-7224Y-102405D01*
X-7478Y-101897D01*
X-7985Y-101389D01*
X-8493Y-101136D01*
X-9509D01*
X-5725D02*
Y-106468D01*
Y-101136D02*
X-2171Y-106468D01*
Y-101136D02*
Y-106468D01*
X2603Y-101136D02*
X-698D01*
Y-106468D01*
X2603D01*
X-698Y-103675D02*
X1333D01*
X3746Y-102913D02*
X3492Y-103167D01*
X3746Y-103421D01*
X3999Y-103167D01*
X3746Y-102913D01*
Y-105960D02*
X3492Y-106214D01*
X3746Y-106468D01*
X3999Y-106214D01*
X3746Y-105960D01*
X-20808Y-141428D02*
X-18523D01*
X-17761Y-141175D01*
X-17507Y-140921D01*
X-17253Y-140413D01*
Y-139651D01*
X-17507Y-139143D01*
X-17761Y-138889D01*
X-18523Y-138636D01*
X-20808D01*
Y-143968D01*
X-16060Y-138636D02*
Y-143968D01*
X-12505Y-138636D02*
Y-143968D01*
X-16060Y-141175D02*
X-12505D01*
X-9509Y-138636D02*
X-10017Y-138889D01*
X-10524Y-139397D01*
X-10778Y-139905D01*
X-11032Y-140667D01*
Y-141936D01*
X-10778Y-142698D01*
X-10524Y-143206D01*
X-10017Y-143714D01*
X-9509Y-143968D01*
X-8493D01*
X-7985Y-143714D01*
X-7478Y-143206D01*
X-7224Y-142698D01*
X-6970Y-141936D01*
Y-140667D01*
X-7224Y-139905D01*
X-7478Y-139397D01*
X-7985Y-138889D01*
X-8493Y-138636D01*
X-9509D01*
X-5725D02*
Y-143968D01*
Y-138636D02*
X-2171Y-143968D01*
Y-138636D02*
Y-143968D01*
X2603Y-138636D02*
X-698D01*
Y-143968D01*
X2603D01*
X-698Y-141175D02*
X1333D01*
X3746Y-140413D02*
X3492Y-140667D01*
X3746Y-140921D01*
X3999Y-140667D01*
X3746Y-140413D01*
Y-143460D02*
X3492Y-143714D01*
X3746Y-143968D01*
X3999Y-143714D01*
X3746Y-143460D01*
X163192Y-156386D02*
Y-161718D01*
X166239D01*
X170886D02*
X168854Y-156386D01*
X166823Y-161718D01*
X167585Y-159940D02*
X170124D01*
X172130Y-156386D02*
X174161Y-158925D01*
Y-161718D01*
X176192Y-156386D02*
X174161Y-158925D01*
X180179Y-156386D02*
X176878D01*
Y-161718D01*
X180179D01*
X176878Y-158925D02*
X178909D01*
X181068Y-156386D02*
Y-161718D01*
Y-156386D02*
X183353D01*
X184115Y-156639D01*
X184369Y-156893D01*
X184622Y-157401D01*
Y-157909D01*
X184369Y-158417D01*
X184115Y-158671D01*
X183353Y-158925D01*
X181068D01*
X182845D02*
X184622Y-161718D01*
X186070Y-158163D02*
X185816Y-158417D01*
X186070Y-158671D01*
X186324Y-158417D01*
X186070Y-158163D01*
Y-161210D02*
X185816Y-161464D01*
X186070Y-161718D01*
X186324Y-161464D01*
X186070Y-161210D01*
X-17507Y-82385D02*
X-20808D01*
Y-87718D01*
X-17507D01*
X-20808Y-84925D02*
X-18777D01*
X-16618Y-82385D02*
Y-87718D01*
Y-82385D02*
X-13064Y-87718D01*
Y-82385D02*
Y-87718D01*
X-7782Y-83655D02*
X-8036Y-83147D01*
X-8544Y-82639D01*
X-9052Y-82385D01*
X-10067D01*
X-10575Y-82639D01*
X-11083Y-83147D01*
X-11337Y-83655D01*
X-11591Y-84417D01*
Y-85686D01*
X-11337Y-86448D01*
X-11083Y-86956D01*
X-10575Y-87464D01*
X-10067Y-87718D01*
X-9052D01*
X-8544Y-87464D01*
X-8036Y-86956D01*
X-7782Y-86448D01*
Y-85686D01*
X-9052D02*
X-7782D01*
X-6563Y-82385D02*
Y-87718D01*
X-5446Y-82385D02*
Y-87718D01*
Y-82385D02*
X-1891Y-87718D01*
Y-82385D02*
Y-87718D01*
X2882Y-82385D02*
X-419D01*
Y-87718D01*
X2882D01*
X-419Y-84925D02*
X1613D01*
X7072Y-82385D02*
X3771D01*
Y-87718D01*
X7072D01*
X3771Y-84925D02*
X5802D01*
X7961Y-82385D02*
Y-87718D01*
Y-82385D02*
X10246D01*
X11008Y-82639D01*
X11261Y-82893D01*
X11515Y-83401D01*
Y-83909D01*
X11261Y-84417D01*
X11008Y-84671D01*
X10246Y-84925D01*
X7961D01*
X9738D02*
X11515Y-87718D01*
X12963Y-84163D02*
X12709Y-84417D01*
X12963Y-84671D01*
X13217Y-84417D01*
X12963Y-84163D01*
Y-87210D02*
X12709Y-87464D01*
X12963Y-87718D01*
X13217Y-87464D01*
X12963Y-87210D01*
X69192Y-131429D02*
X71477D01*
X72239Y-131175D01*
X72493Y-130921D01*
X72747Y-130413D01*
Y-129651D01*
X72493Y-129143D01*
X72239Y-128889D01*
X71477Y-128636D01*
X69192D01*
Y-133968D01*
X78003D02*
X75972Y-128636D01*
X73940Y-133968D01*
X74702Y-132190D02*
X77241D01*
X79247Y-128636D02*
Y-133968D01*
Y-128636D02*
X81532D01*
X82294Y-128889D01*
X82548Y-129143D01*
X82802Y-129651D01*
Y-130159D01*
X82548Y-130667D01*
X82294Y-130921D01*
X81532Y-131175D01*
X79247D01*
X81024D02*
X82802Y-133968D01*
X85773Y-128636D02*
Y-133968D01*
X83995Y-128636D02*
X87550D01*
X92374D02*
Y-133968D01*
Y-128636D02*
X95929Y-133968D01*
Y-128636D02*
Y-133968D01*
X98926Y-128636D02*
X98418Y-128889D01*
X97910Y-129397D01*
X97656Y-129905D01*
X97402Y-130667D01*
Y-131936D01*
X97656Y-132698D01*
X97910Y-133206D01*
X98418Y-133714D01*
X98926Y-133968D01*
X99941D01*
X100449Y-133714D01*
X100957Y-133206D01*
X101211Y-132698D01*
X101465Y-131936D01*
Y-130667D01*
X101211Y-129905D01*
X100957Y-129397D01*
X100449Y-128889D01*
X99941Y-128636D01*
X98926D01*
X102963Y-133460D02*
X102709Y-133714D01*
X102963Y-133968D01*
X103217Y-133714D01*
X102963Y-133460D01*
X104639Y-130413D02*
X104385Y-130667D01*
X104639Y-130921D01*
X104893Y-130667D01*
X104639Y-130413D01*
Y-133460D02*
X104385Y-133714D01*
X104639Y-133968D01*
X104893Y-133714D01*
X104639Y-133460D01*
X69719Y-81135D02*
Y-86468D01*
X67942Y-81135D02*
X71497D01*
X72132D02*
Y-86468D01*
X75026Y-81135D02*
Y-86468D01*
X73249Y-81135D02*
X76804D01*
X77438D02*
Y-86468D01*
X80485D01*
X84370Y-81135D02*
X81069D01*
Y-86468D01*
X84370D01*
X81069Y-83675D02*
X83101D01*
X85513Y-82913D02*
X85259Y-83167D01*
X85513Y-83421D01*
X85767Y-83167D01*
X85513Y-82913D01*
Y-85960D02*
X85259Y-86214D01*
X85513Y-86468D01*
X85767Y-86214D01*
X85513Y-85960D01*
X-20808Y-120386D02*
Y-125718D01*
Y-120386D02*
X-19031D01*
X-18269Y-120639D01*
X-17761Y-121147D01*
X-17507Y-121655D01*
X-17253Y-122417D01*
Y-123686D01*
X-17507Y-124448D01*
X-17761Y-124956D01*
X-18269Y-125464D01*
X-19031Y-125718D01*
X-20808D01*
X-16060Y-122163D02*
Y-125718D01*
Y-123686D02*
X-15806Y-122925D01*
X-15298Y-122417D01*
X-14790Y-122163D01*
X-14029D01*
X-10499D02*
Y-125718D01*
Y-122925D02*
X-11007Y-122417D01*
X-11515Y-122163D01*
X-12276D01*
X-12784Y-122417D01*
X-13292Y-122925D01*
X-13546Y-123686D01*
Y-124194D01*
X-13292Y-124956D01*
X-12784Y-125464D01*
X-12276Y-125718D01*
X-11515D01*
X-11007Y-125464D01*
X-10499Y-124956D01*
X-9077Y-122163D02*
X-8061Y-125718D01*
X-7046Y-122163D02*
X-8061Y-125718D01*
X-7046Y-122163D02*
X-6030Y-125718D01*
X-5015Y-122163D02*
X-6030Y-125718D01*
X-3770Y-122163D02*
Y-125718D01*
Y-123179D02*
X-3008Y-122417D01*
X-2501Y-122163D01*
X-1739D01*
X-1231Y-122417D01*
X-977Y-123179D01*
Y-125718D01*
X4609Y-120386D02*
Y-125718D01*
Y-122925D02*
X5117Y-122417D01*
X5625Y-122163D01*
X6386D01*
X6894Y-122417D01*
X7402Y-122925D01*
X7656Y-123686D01*
Y-124194D01*
X7402Y-124956D01*
X6894Y-125464D01*
X6386Y-125718D01*
X5625D01*
X5117Y-125464D01*
X4609Y-124956D01*
X9052Y-122163D02*
X10576Y-125718D01*
X12099Y-122163D02*
X10576Y-125718D01*
X10068Y-126733D01*
X9560Y-127241D01*
X9052Y-127495D01*
X8799D01*
X13242Y-122163D02*
X12988Y-122417D01*
X13242Y-122671D01*
X13496Y-122417D01*
X13242Y-122163D01*
Y-125210D02*
X12988Y-125464D01*
X13242Y-125718D01*
X13496Y-125464D01*
X13242Y-125210D01*
X-20808Y-156386D02*
Y-161718D01*
Y-156386D02*
X-17507D01*
X-20808Y-158925D02*
X-18777D01*
X-16898Y-156386D02*
Y-161718D01*
X-15780Y-156386D02*
Y-161718D01*
X-12733D01*
X-8849Y-156386D02*
X-12150D01*
Y-161718D01*
X-8849D01*
X-12150Y-158925D02*
X-10118D01*
X-3770Y-156386D02*
Y-161718D01*
Y-156386D02*
X-216Y-161718D01*
Y-156386D02*
Y-161718D01*
X5320D02*
X3289Y-156386D01*
X1257Y-161718D01*
X2019Y-159940D02*
X4558D01*
X6564Y-156386D02*
Y-161718D01*
Y-156386D02*
X8595Y-161718D01*
X10627Y-156386D02*
X8595Y-161718D01*
X10627Y-156386D02*
Y-161718D01*
X15451Y-156386D02*
X12150D01*
Y-161718D01*
X15451D01*
X12150Y-158925D02*
X14182D01*
X16594Y-158163D02*
X16340Y-158417D01*
X16594Y-158671D01*
X16848Y-158417D01*
X16594Y-158163D01*
Y-161210D02*
X16340Y-161464D01*
X16594Y-161718D01*
X16848Y-161464D01*
X16594Y-161210D01*
X349001Y-157655D02*
X348747Y-157147D01*
X348239Y-156639D01*
X347731Y-156386D01*
X346715D01*
X346208Y-156639D01*
X345700Y-157147D01*
X345446Y-157655D01*
X345192Y-158417D01*
Y-159686D01*
X345446Y-160448D01*
X345700Y-160956D01*
X346208Y-161464D01*
X346715Y-161718D01*
X347731D01*
X348239Y-161464D01*
X348747Y-160956D01*
X349001Y-160448D01*
Y-159686D01*
X347731D02*
X349001D01*
X353520Y-156386D02*
X350219D01*
Y-161718D01*
X353520D01*
X350219Y-158925D02*
X352251D01*
X354409Y-156386D02*
Y-161718D01*
Y-156386D02*
X356694D01*
X357456Y-156639D01*
X357710Y-156893D01*
X357964Y-157401D01*
Y-157909D01*
X357710Y-158417D01*
X357456Y-158671D01*
X356694Y-158925D01*
X354409D01*
X356187D02*
X357964Y-161718D01*
X359157Y-156386D02*
Y-161718D01*
Y-156386D02*
X361443D01*
X362204Y-156639D01*
X362458Y-156893D01*
X362712Y-157401D01*
Y-157909D01*
X362458Y-158417D01*
X362204Y-158671D01*
X361443Y-158925D01*
X359157D02*
X361443D01*
X362204Y-159178D01*
X362458Y-159432D01*
X362712Y-159940D01*
Y-160702D01*
X362458Y-161210D01*
X362204Y-161464D01*
X361443Y-161718D01*
X359157D01*
X367206Y-156386D02*
X363906D01*
Y-161718D01*
X367206D01*
X363906Y-158925D02*
X365937D01*
X368095Y-156386D02*
Y-161718D01*
Y-156386D02*
X370380D01*
X371142Y-156639D01*
X371396Y-156893D01*
X371650Y-157401D01*
Y-157909D01*
X371396Y-158417D01*
X371142Y-158671D01*
X370380Y-158925D01*
X368095D01*
X369873D02*
X371650Y-161718D01*
X373097Y-158163D02*
X372843Y-158417D01*
X373097Y-158671D01*
X373351Y-158417D01*
X373097Y-158163D01*
Y-161210D02*
X372843Y-161464D01*
X373097Y-161718D01*
X373351Y-161464D01*
X373097Y-161210D01*
X27277Y-163168D02*
Y-168500D01*
X25500Y-163168D02*
X29055D01*
X32737Y-164945D02*
Y-168500D01*
Y-165707D02*
X32229Y-165199D01*
X31721Y-164945D01*
X30959D01*
X30451Y-165199D01*
X29943Y-165707D01*
X29690Y-166469D01*
Y-166976D01*
X29943Y-167738D01*
X30451Y-168246D01*
X30959Y-168500D01*
X31721D01*
X32229Y-168246D01*
X32737Y-167738D01*
X37205Y-164945D02*
Y-169008D01*
X36952Y-169770D01*
X36698Y-170024D01*
X36190Y-170277D01*
X35428D01*
X34920Y-170024D01*
X37205Y-165707D02*
X36698Y-165199D01*
X36190Y-164945D01*
X35428D01*
X34920Y-165199D01*
X34412Y-165707D01*
X34159Y-166469D01*
Y-166976D01*
X34412Y-167738D01*
X34920Y-168246D01*
X35428Y-168500D01*
X36190D01*
X36698Y-168246D01*
X37205Y-167738D01*
X38627Y-164183D02*
X39135Y-163929D01*
X39897Y-163168D01*
Y-168500D01*
X44061Y-163168D02*
X43299Y-163422D01*
X42792Y-164183D01*
X42538Y-165453D01*
Y-166215D01*
X42792Y-167484D01*
X43299Y-168246D01*
X44061Y-168500D01*
X44569D01*
X45331Y-168246D01*
X45839Y-167484D01*
X46093Y-166215D01*
Y-165453D01*
X45839Y-164183D01*
X45331Y-163422D01*
X44569Y-163168D01*
X44061D01*
X50333D02*
X47794D01*
X47540Y-165453D01*
X47794Y-165199D01*
X48555Y-164945D01*
X49317D01*
X50079Y-165199D01*
X50587Y-165707D01*
X50841Y-166469D01*
Y-166976D01*
X50587Y-167738D01*
X50079Y-168246D01*
X49317Y-168500D01*
X48555D01*
X47794Y-168246D01*
X47540Y-167992D01*
X47286Y-167484D01*
X56224Y-163168D02*
Y-168500D01*
Y-163168D02*
X58509D01*
X59271Y-163422D01*
X59525Y-163676D01*
X59778Y-164183D01*
Y-164691D01*
X59525Y-165199D01*
X59271Y-165453D01*
X58509Y-165707D01*
X56224D01*
X58001D02*
X59778Y-168500D01*
X60972Y-166469D02*
X64019D01*
Y-165961D01*
X63765Y-165453D01*
X63511Y-165199D01*
X63003Y-164945D01*
X62242D01*
X61734Y-165199D01*
X61226Y-165707D01*
X60972Y-166469D01*
Y-166976D01*
X61226Y-167738D01*
X61734Y-168246D01*
X62242Y-168500D01*
X63003D01*
X63511Y-168246D01*
X64019Y-167738D01*
X65162Y-164945D02*
X66685Y-168500D01*
X68208Y-164945D02*
X66685Y-168500D01*
X69326Y-164437D02*
Y-164183D01*
X69580Y-163676D01*
X69834Y-163422D01*
X70341Y-163168D01*
X71357D01*
X71865Y-163422D01*
X72119Y-163676D01*
X72373Y-164183D01*
Y-164691D01*
X72119Y-165199D01*
X71611Y-165961D01*
X69072Y-168500D01*
X72627D01*
X75344Y-163168D02*
X74582Y-163422D01*
X74074Y-164183D01*
X73820Y-165453D01*
Y-166215D01*
X74074Y-167484D01*
X74582Y-168246D01*
X75344Y-168500D01*
X75851D01*
X76613Y-168246D01*
X77121Y-167484D01*
X77375Y-166215D01*
Y-165453D01*
X77121Y-164183D01*
X76613Y-163422D01*
X75851Y-163168D01*
X75344D01*
X78822Y-167992D02*
X78568Y-168246D01*
X78822Y-168500D01*
X79076Y-168246D01*
X78822Y-167992D01*
X80244Y-165961D02*
X82529D01*
X83291Y-165707D01*
X83545Y-165453D01*
X83799Y-164945D01*
Y-164183D01*
X83545Y-163676D01*
X83291Y-163422D01*
X82529Y-163168D01*
X80244D01*
Y-168500D01*
X88801Y-164437D02*
X88547Y-163929D01*
X88039Y-163422D01*
X87531Y-163168D01*
X86516D01*
X86008Y-163422D01*
X85500Y-163929D01*
X85246Y-164437D01*
X84992Y-165199D01*
Y-166469D01*
X85246Y-167230D01*
X85500Y-167738D01*
X86008Y-168246D01*
X86516Y-168500D01*
X87531D01*
X88039Y-168246D01*
X88547Y-167738D01*
X88801Y-167230D01*
X90299Y-163168D02*
Y-168500D01*
Y-163168D02*
X92584D01*
X93346Y-163422D01*
X93600Y-163676D01*
X93854Y-164183D01*
Y-164691D01*
X93600Y-165199D01*
X93346Y-165453D01*
X92584Y-165707D01*
X90299D02*
X92584D01*
X93346Y-165961D01*
X93600Y-166215D01*
X93854Y-166723D01*
Y-167484D01*
X93600Y-167992D01*
X93346Y-168246D01*
X92584Y-168500D01*
X90299D01*
D58*
X240000Y159500D02*
D03*
X250000D02*
D03*
X230000D02*
D03*
X220000D02*
D03*
X167500Y131000D02*
D03*
X247754Y71112D02*
D03*
X232254D02*
D03*
X147500Y131000D02*
D03*
X157500D02*
D03*
X137500D02*
D03*
D59*
X260000Y159500D02*
D03*
X177500Y131000D02*
D03*
D60*
X271000Y40000D02*
D03*
D61*
X9800Y127500D02*
D03*
X7600Y50100D02*
D03*
X102500Y129000D02*
D03*
X102600Y55000D02*
D03*
D62*
X154015Y90700D02*
D03*
D63*
X303200Y153300D02*
D03*
X24932Y25484D02*
D03*
D64*
X102400Y46500D02*
D03*
D65*
X68000Y92600D02*
D03*
X50500Y145000D02*
D03*
X40900Y124400D02*
D03*
X112500Y106800D02*
D03*
Y120000D02*
D03*
X185500Y118000D02*
D03*
X53000Y111500D02*
D03*
X60500Y109500D02*
D03*
X142500Y112000D02*
D03*
X157500D02*
D03*
X53600Y114900D02*
D03*
X58013Y112487D02*
D03*
X37100Y80800D02*
D03*
X53600Y118500D02*
D03*
X66700Y116300D02*
D03*
X53500Y102500D02*
D03*
X67400Y104700D02*
D03*
X53300Y137500D02*
D03*
X68500Y133900D02*
D03*
X115300Y86300D02*
D03*
X107800Y87600D02*
D03*
X97700Y86900D02*
D03*
X55500Y106000D02*
D03*
X62500Y121500D02*
D03*
X58500D02*
D03*
X286500Y80500D02*
D03*
Y84500D02*
D03*
X261000Y73000D02*
D03*
X102600Y73100D02*
D03*
X84900Y89400D02*
D03*
X44600Y96600D02*
D03*
X60000Y77400D02*
D03*
X31900Y87800D02*
D03*
X29600Y73700D02*
D03*
X80000Y65300D02*
D03*
X67800D02*
D03*
X33900Y131500D02*
D03*
X47700Y112800D02*
D03*
X41200D02*
D03*
X126000Y112000D02*
D03*
X56600Y74100D02*
D03*
X8900Y75400D02*
D03*
X9900Y93900D02*
D03*
X18600Y124600D02*
D03*
X14100Y109200D02*
D03*
X17400Y114700D02*
D03*
X26114Y124200D02*
D03*
X28200Y117500D02*
D03*
X30800Y100000D02*
D03*
X25700Y87000D02*
D03*
X56600Y58300D02*
D03*
X47041Y52659D02*
D03*
X88541Y59659D02*
D03*
X72800Y62400D02*
D03*
X15100Y65100D02*
D03*
X47100Y69032D02*
D03*
X80600Y54800D02*
D03*
X88541Y52215D02*
D03*
X81700Y131800D02*
D03*
X83300Y106200D02*
D03*
X48600Y124400D02*
D03*
X121500Y101500D02*
D03*
X121000Y112000D02*
D03*
X73600Y117000D02*
D03*
X137000Y104300D02*
D03*
Y98300D02*
D03*
X81500Y77700D02*
D03*
X57100Y88100D02*
D03*
X100600Y110900D02*
D03*
X89835Y99665D02*
D03*
X92800Y111300D02*
D03*
X132900Y49600D02*
D03*
X129800Y76300D02*
D03*
X118100D02*
D03*
X94800Y65300D02*
D03*
X34200Y111400D02*
D03*
X18600Y82800D02*
D03*
X115500Y131000D02*
D03*
X144000Y77500D02*
D03*
X132500Y84500D02*
D03*
X74000Y155000D02*
D03*
X79000Y150500D02*
D03*
X62500Y143000D02*
D03*
X89000Y150500D02*
D03*
X148872Y150772D02*
D03*
X47000Y149000D02*
D03*
X42000Y145000D02*
D03*
X78200Y86100D02*
D03*
X76300Y102600D02*
D03*
X77600Y116600D02*
D03*
X82400Y95800D02*
D03*
X62600Y83200D02*
D03*
X89000Y137400D02*
D03*
X95200Y118200D02*
D03*
X91100Y91800D02*
D03*
X68500Y109300D02*
D03*
M02*
