M48
;Layer_Color=12967653
;FILE_FORMAT=2:4
INCH,LZ
;TYPE=PLATED
T1F00S00C0.0280
T2F00S00C0.0300
T3F00S00C0.0350
T4F00S00C0.0670
T5F00S00C0.0680
T6F00S00C0.1000
T7F00S00C0.1100
T8F00S00C0.1220
T9F00S00C0.1350
T10F00S00C0.2500
;TYPE=NON_PLATED
T11F00S00C0.0630
T12F00S00C0.0669
%
T01
X0252Y-00635
X0262
X0355Y-0005
X0365
X03505Y0225
X03405
X-0213Y03165
X-0223
T02
X-018679Y0169
Y0179
Y0189
T03
X02665Y-00875
X0282
X0301Y-0082
X032
X0273Y-01215
X0167Y-0071
X0152
X-00332Y-00675
Y-00475
Y-00875
X-0062Y-0086
X-0101Y-0089
Y-0073
Y-00575
Y-00425
X-00892
X-0114
X-0142Y-0086
X-0169Y-0092
X-0179Y-00735
Y-0057
Y-0042
X-0169Y-0032
Y-0012
Y0008
Y0028
Y0048
X-01532Y0046
X-0147Y00555
X-01512Y0068
X-0169
X-01512Y-00175
X-01435Y-0026
X-01265Y-00205
X-01255Y-00355
X-01182Y-0005
Y00095
X-010218Y00265
X-0102Y00405
X-00845
Y00265
X-00842Y00095
Y-0005
X-00782Y-00205
Y-00355
X-00597Y-00255
X-0046Y-00175
Y00025
Y00225
X-00677
Y00025
X-00675Y00445
X-0053Y00495
X-00355
X-0023Y00501
Y00601
X-00125Y0062
Y00375
X-00275Y00725
X-00475
X-00605Y0071
X-0074Y00645
X-01112Y0068
X-0126Y0065
X-01377
X-01255Y0041
X-0095Y00885
X-00332Y-00275
X-0042Y-00375
X02098Y-0012
X0282Y-004
X03105Y00595
Y0076
X031Y024
Y025
Y026
Y027
X032
Y026
Y025
Y024
X03
Y025
Y026
Y027
X029
X028
X027
X026
X025
Y026
X026
X027
X028
X029
Y025
X028
X027
X026
X025
Y024
X026
X027
X028
X029
X01344Y02091
X-01116Y0201
Y0162
X-0243Y01605
Y017
X-02735
X-0264Y01605
X-0227Y0211
X00195Y03115
X00295
X00395
X00495
X00595
X025Y031
Y03
X026
X027
X028
X029
X03
X031
X032
Y029
X031
X03
X029
X028
X027
X026
X025
Y028
X026
X027
X028
X029
X03
X031
X032
Y031
Y032
X031
X03
X029
X028
X027
X026
X025
Y033
X026
X027
X028
X029
X03
X031
X032
X031Y031
X03
X029
X028
X027
X026
X0382Y0281
X0394
X0406
T04
X0013Y-00635
X-0062
X-0142
X-0217
X-0152Y00065
Y00265
X-0142Y00165
X-0132Y00265
Y00065
X-0142Y0124
X-00027Y0245
T05
X00076Y00501
X00186Y00828
X00342Y01114
X00555Y0107
X00707Y01031
X00912Y00983
X011255Y0103
X012255
X013255
X014255
X015255
X01026Y0055
X023225Y007111
X01775Y0131
X01675
X01575
X01475
X01375
X01025Y0129
X00536Y01185
X00467Y01364
X00098Y01275
X-00605Y0235
X-01056Y02302
X-01555Y02301
X-01533Y03075
X-00965Y02963
X-00844Y02967
X-008Y02776
X-00606Y0309
T06
X00265Y-005
Y-0077
X-00005
Y-005
X-00485
X-00755
Y-0077
X-00485
X-01285
Y-005
X-01555
Y-0077
X-02035
X-02305
Y-005
X-02035
X-01555Y01105
X-01285
Y01375
X-00162Y02315
X00108
Y02585
X-00162
X-01555Y01375
T07
X036Y-0045
Y-00635
Y-0082
X0222
Y-00635
Y-0045
X-02172Y00057
Y00242
Y00427
X-0217Y0087
Y01055
X036Y00995
Y0081
Y00625
Y0148
Y01665
Y0185
X-0217Y02265
Y0245
Y02635
Y0124
T08
X002493Y002548
X01446Y00549
X03032Y01533
T09
X03955Y-0132
X-02645
Y0328
X03955
T10
X0207Y02525
X0101
Y03025
X0207
T11
X04062Y0245
T12
X038849Y0245
M30
