%FSLAX24Y24*%
%MOIN*%
G70*
G01*
G75*
G04 Layer_Color=16777215*
%ADD10R,0.2500X0.1500*%
%ADD11R,0.0500X0.0600*%
%ADD12R,0.1500X0.2500*%
%ADD13R,0.0600X0.0500*%
%ADD14R,0.0300X0.0300*%
%ADD15R,0.0300X0.0300*%
%ADD16O,0.0157X0.0472*%
%ADD17O,0.0800X0.0240*%
%ADD18R,0.0360X0.0360*%
%ADD19R,0.0500X0.0360*%
%ADD20R,0.1102X0.0965*%
%ADD21R,0.0550X0.0400*%
%ADD22R,0.1250X0.0750*%
%ADD23R,0.0820X0.1500*%
%ADD24R,0.4500X0.3500*%
%ADD25C,0.0080*%
%ADD26C,0.0200*%
%ADD27C,0.0250*%
%ADD28C,0.0500*%
%ADD29C,0.0350*%
%ADD30C,0.0100*%
%ADD31C,0.0400*%
%ADD32C,0.0300*%
%ADD33C,0.0780*%
%ADD34C,0.0150*%
%ADD35C,0.1080*%
%ADD36C,0.0090*%
%ADD37C,0.0050*%
%ADD38C,0.1100*%
%ADD39C,0.1000*%
%ADD40C,0.1600*%
%ADD41O,0.0830X0.1100*%
%ADD42C,0.1500*%
%ADD43C,0.0620*%
%ADD44R,0.2500X0.1500*%
%ADD45C,0.1800*%
%ADD46R,0.0620X0.0620*%
%ADD47C,0.0600*%
%ADD48R,0.0620X0.0620*%
%ADD49C,0.0669*%
%ADD50C,0.0630*%
%ADD51C,0.3250*%
%ADD52C,0.1000*%
%ADD53C,0.0120*%
D25*
X-2800Y6557D02*
X-1800D01*
Y4510D02*
Y6557D01*
X-2800Y4510D02*
X-1800D01*
X-2800D02*
Y6557D01*
X1450Y30650D02*
X6450D01*
Y31650D01*
X1450D02*
X6450D01*
X1450Y30650D02*
Y31650D01*
X-8933Y4617D02*
X-8850Y4700D01*
Y4867D01*
X-8933Y4950D01*
X-9267D01*
X-9350Y4867D01*
Y4700D01*
X-9267Y4617D01*
X-8850Y4117D02*
X-8933Y4284D01*
X-9100Y4450D01*
X-9267D01*
X-9350Y4367D01*
Y4200D01*
X-9267Y4117D01*
X-9183D01*
X-9100Y4200D01*
Y4450D01*
X-9533Y4617D02*
X-9450Y4700D01*
Y4867D01*
X-9533Y4950D01*
X-9867D01*
X-9950Y4867D01*
Y4700D01*
X-9867Y4617D01*
X-9450Y4450D02*
Y4117D01*
X-9533D01*
X-9867Y4450D01*
X-9950D01*
X-10733Y4617D02*
X-10650Y4700D01*
Y4867D01*
X-10733Y4950D01*
X-11067D01*
X-11150Y4867D01*
Y4700D01*
X-11067Y4617D01*
X-10733Y4450D02*
X-10650Y4367D01*
Y4200D01*
X-10733Y4117D01*
X-10817D01*
X-10900Y4200D01*
X-10983Y4117D01*
X-11067D01*
X-11150Y4200D01*
Y4367D01*
X-11067Y4450D01*
X-10983D01*
X-10900Y4367D01*
X-10817Y4450D01*
X-10733D01*
X-10900Y4367D02*
Y4200D01*
X-11333Y4617D02*
X-11250Y4700D01*
Y4867D01*
X-11333Y4950D01*
X-11667D01*
X-11750Y4867D01*
Y4700D01*
X-11667Y4617D01*
Y4450D02*
X-11750Y4367D01*
Y4200D01*
X-11667Y4117D01*
X-11333D01*
X-11250Y4200D01*
Y4367D01*
X-11333Y4450D01*
X-11417D01*
X-11500Y4367D01*
Y4117D01*
X-10083Y5367D02*
X-10000Y5450D01*
Y5617D01*
X-10083Y5700D01*
X-10417D01*
X-10500Y5617D01*
Y5450D01*
X-10417Y5367D01*
X-10500Y5200D02*
Y5034D01*
Y5117D01*
X-10000D01*
X-10083Y5200D01*
Y4784D02*
X-10000Y4700D01*
Y4534D01*
X-10083Y4450D01*
X-10417D01*
X-10500Y4534D01*
Y4700D01*
X-10417Y4784D01*
X-10083D01*
X-9117Y-1983D02*
X-9200Y-1900D01*
X-9367D01*
X-9450Y-1983D01*
Y-2317D01*
X-9367Y-2400D01*
X-9200D01*
X-9117Y-2317D01*
X-8950Y-2400D02*
X-8784D01*
X-8867D01*
Y-1900D01*
X-8950Y-1983D01*
X-8534Y-2400D02*
X-8367D01*
X-8450D01*
Y-1900D01*
X-8534Y-1983D01*
X-11867D02*
X-11950Y-1900D01*
X-12117D01*
X-12200Y-1983D01*
Y-2317D01*
X-12117Y-2400D01*
X-11950D01*
X-11867Y-2317D01*
X-11700Y-2400D02*
X-11534D01*
X-11617D01*
Y-1900D01*
X-11700Y-1983D01*
X-10950Y-2400D02*
X-11284D01*
X-10950Y-2067D01*
Y-1983D01*
X-11034Y-1900D01*
X-11200D01*
X-11284Y-1983D01*
X-9900Y5850D02*
Y6350D01*
X-9650D01*
X-9567Y6267D01*
Y6100D01*
X-9650Y6017D01*
X-9900D01*
X-9733D02*
X-9567Y5850D01*
X-9400D02*
X-9234D01*
X-9317D01*
Y6350D01*
X-9400Y6267D01*
X-8650Y5850D02*
X-8984D01*
X-8650Y6183D01*
Y6267D01*
X-8734Y6350D01*
X-8900D01*
X-8984Y6267D01*
X-11800Y5850D02*
Y6350D01*
X-11550D01*
X-11467Y6267D01*
Y6100D01*
X-11550Y6017D01*
X-11800D01*
X-11633D02*
X-11467Y5850D01*
X-11300D02*
X-11134D01*
X-11217D01*
Y6350D01*
X-11300Y6267D01*
X-10884D02*
X-10800Y6350D01*
X-10634D01*
X-10550Y6267D01*
Y6183D01*
X-10634Y6100D01*
X-10717D01*
X-10634D01*
X-10550Y6017D01*
Y5933D01*
X-10634Y5850D01*
X-10800D01*
X-10884Y5933D01*
X-9500Y-3800D02*
Y-3300D01*
X-9250D01*
X-9167Y-3383D01*
Y-3550D01*
X-9250Y-3633D01*
X-9500D01*
X-9333D02*
X-9167Y-3800D01*
X-9000D02*
X-8834D01*
X-8917D01*
Y-3300D01*
X-9000Y-3383D01*
X-8334Y-3800D02*
Y-3300D01*
X-8584Y-3550D01*
X-8250D01*
X-10150Y-2500D02*
X-9650D01*
Y-2750D01*
X-9733Y-2833D01*
X-9900D01*
X-9983Y-2750D01*
Y-2500D01*
Y-2667D02*
X-10150Y-2833D01*
Y-3000D02*
Y-3166D01*
Y-3083D01*
X-9650D01*
X-9733Y-3000D01*
X-9650Y-3750D02*
Y-3416D01*
X-9900D01*
X-9817Y-3583D01*
Y-3666D01*
X-9900Y-3750D01*
X-10067D01*
X-10150Y-3666D01*
Y-3500D01*
X-10067Y-3416D01*
X-10750Y-2500D02*
X-10250D01*
Y-2750D01*
X-10333Y-2833D01*
X-10500D01*
X-10583Y-2750D01*
Y-2500D01*
Y-2667D02*
X-10750Y-2833D01*
Y-3000D02*
Y-3166D01*
Y-3083D01*
X-10250D01*
X-10333Y-3000D01*
X-10250Y-3750D02*
X-10333Y-3583D01*
X-10500Y-3416D01*
X-10667D01*
X-10750Y-3500D01*
Y-3666D01*
X-10667Y-3750D01*
X-10583D01*
X-10500Y-3666D01*
Y-3416D01*
X-12100Y-3800D02*
Y-3300D01*
X-11850D01*
X-11767Y-3383D01*
Y-3550D01*
X-11850Y-3633D01*
X-12100D01*
X-11933D02*
X-11767Y-3800D01*
X-11600D02*
X-11434D01*
X-11517D01*
Y-3300D01*
X-11600Y-3383D01*
X-11184Y-3300D02*
X-10850D01*
Y-3383D01*
X-11184Y-3717D01*
Y-3800D01*
X-6611Y-27291D02*
X-6560Y-27265D01*
X-6484Y-27189D01*
Y-27722D01*
X-6068Y-27189D02*
X-6144Y-27215D01*
X-6195Y-27291D01*
X-6220Y-27418D01*
Y-27494D01*
X-6195Y-27621D01*
X-6144Y-27697D01*
X-6068Y-27722D01*
X-6017D01*
X-5941Y-27697D01*
X-5890Y-27621D01*
X-5865Y-27494D01*
Y-27418D01*
X-5890Y-27291D01*
X-5941Y-27215D01*
X-6017Y-27189D01*
X-6068D01*
X-5593D02*
X-5669Y-27215D01*
X-5720Y-27291D01*
X-5745Y-27418D01*
Y-27494D01*
X-5720Y-27621D01*
X-5669Y-27697D01*
X-5593Y-27722D01*
X-5542D01*
X-5466Y-27697D01*
X-5415Y-27621D01*
X-5390Y-27494D01*
Y-27418D01*
X-5415Y-27291D01*
X-5466Y-27215D01*
X-5542Y-27189D01*
X-5593D01*
X-4915D02*
X-5169Y-27722D01*
X-5270Y-27189D02*
X-4915D01*
X-4796D02*
Y-27722D01*
X-4440Y-27189D02*
X-4796Y-27545D01*
X-4669Y-27418D02*
X-4440Y-27722D01*
X-4321Y-27189D02*
Y-27722D01*
X-3965Y-27189D02*
X-4321Y-27545D01*
X-4194Y-27418D02*
X-3965Y-27722D01*
D27*
X-3794Y66405D02*
X1306D01*
D30*
X-9026Y29054D02*
G03*
X-9065Y30246I586J616D01*
G01*
X-9086Y30266D02*
G03*
X-9039Y29039I-564J-636D01*
G01*
X-5740Y22150D02*
G03*
X-5440Y22450I0J300D01*
G01*
Y31740D02*
G03*
X-5740Y32040I-300J0D01*
G01*
X-15920D02*
G03*
X-16220Y31740I0J-300D01*
G01*
Y22450D02*
G03*
X-15920Y22150I300J0D01*
G01*
X-5747Y22150D02*
G03*
X-5447Y22450I0J300D01*
G01*
Y31740D02*
G03*
X-5747Y32040I-300J0D01*
G01*
X-15927D02*
G03*
X-16227Y31740I0J-300D01*
G01*
Y22450D02*
G03*
X-15927Y22150I300J0D01*
G01*
X-9710Y23020D02*
G03*
X-9710Y23020I-850J0D01*
G01*
X-7150Y27760D02*
G03*
X-7150Y27760I-850J0D01*
G01*
X-5200Y23500D02*
G03*
X-5200Y23500I-850J0D01*
G01*
X15430Y5490D02*
G03*
X15430Y5490I-970J0D01*
G01*
X-11350Y12400D02*
G03*
X-11350Y12400I-2850J0D01*
G01*
X40800Y32800D02*
G03*
X40800Y32800I-1250J0D01*
G01*
X-25200D02*
G03*
X-25200Y32800I-1250J0D01*
G01*
Y-13200D02*
G03*
X-25200Y-13200I-1250J0D01*
G01*
X40800D02*
G03*
X40800Y-13200I-1250J0D01*
G01*
X4151Y11574D02*
G03*
X4071Y10593I-731J-434D01*
G01*
X1830Y12750D02*
G03*
X1830Y12750I-850J0D01*
G01*
X-22926Y31000D02*
G03*
X-22926Y32300I1126J650D01*
G01*
X5520Y13640D02*
G03*
X5520Y13640I-850J0D01*
G01*
X37126Y150D02*
G03*
X37126Y-1150I-1126J-650D01*
G01*
X4270Y11140D02*
G03*
X4270Y11140I-850J0D01*
G01*
X-18850Y-6350D02*
G03*
X-18850Y-6350I-2850J0D01*
G01*
X24075Y7111D02*
G03*
X24075Y7111I-850J0D01*
G01*
X2710Y8280D02*
G03*
X2710Y8280I-850J0D01*
G01*
X1610Y5010D02*
G03*
X1610Y5010I-850J0D01*
G01*
X11110Y5500D02*
G03*
X11110Y5500I-850J0D01*
G01*
X4150Y-6350D02*
G03*
X4150Y-6350I-2850J0D01*
G01*
X2580Y24500D02*
G03*
X2580Y24500I-2850J0D01*
G01*
X11100Y12900D02*
G03*
X11100Y12900I-850J0D01*
G01*
X26826Y-5700D02*
G03*
X26826Y-7000I-1126J-650D01*
G01*
X31290Y15330D02*
G03*
X31290Y15330I-970J0D01*
G01*
X3464Y2548D02*
G03*
X3464Y2548I-970J0D01*
G01*
X4151Y11574D02*
G03*
X4148Y10701I-731J-434D01*
G01*
X6072Y11386D02*
G03*
X4835Y11181I-712J464D01*
G01*
X6228Y10197D02*
G03*
X6403Y10837I842J113D01*
G01*
X6389Y10835D02*
G03*
X6068Y11374I-839J-135D01*
G01*
X4845Y11175D02*
G03*
X6232Y10193I705J-475D01*
G01*
X-3350Y-6350D02*
G03*
X-3350Y-6350I-2850J0D01*
G01*
X35676Y23150D02*
G03*
X35676Y21850I-1126J-650D01*
G01*
X9970Y9830D02*
G03*
X9970Y9830I-850J0D01*
G01*
X-9174Y1123D02*
G03*
X-9174Y257I0J-433D01*
G01*
X-11350Y-6350D02*
G03*
X-11350Y-6350I-2850J0D01*
G01*
X-21155Y16500D02*
G03*
X-21695Y16500I-270J0D01*
G01*
X22346Y22396D02*
G03*
X23550Y23600I0J1204D01*
G01*
X23554Y31896D02*
G03*
X22350Y33100I-1204J0D01*
G01*
X8454Y33104D02*
G03*
X7250Y31900I0J-1204D01*
G01*
X7246Y23604D02*
G03*
X8450Y22400I1204J0D01*
G01*
X-16220Y22450D02*
Y31740D01*
X-15920Y32040D02*
X-5740D01*
X-5440Y22450D02*
Y31740D01*
X-15920Y22150D02*
X-5740D01*
X-16227Y22450D02*
Y31740D01*
X-15927Y32040D02*
X-5747D01*
X-5447Y22450D02*
Y31740D01*
X-15927Y22150D02*
X-5747D01*
X33550Y2600D02*
Y3550D01*
X36450D01*
Y1650D02*
Y3550D01*
X33550Y1650D02*
X36450D01*
X33550D02*
Y2600D01*
X15255Y9300D02*
X16005D01*
Y11300D01*
X10604D02*
X16005D01*
X10604Y9300D02*
Y11300D01*
Y9300D02*
X15255D01*
X-19850Y7700D02*
Y13400D01*
X-23550Y7700D02*
Y13400D01*
X-21700D02*
X-19850D01*
X-23550D02*
X-21700D01*
Y7700D02*
X-19850D01*
X-23550D02*
X-21700D01*
X34150Y5250D02*
X36000D01*
X37850D01*
X34150Y10950D02*
X36000D01*
X37850D01*
X34150Y5250D02*
Y10950D01*
X37850Y5250D02*
Y10950D01*
Y-9200D02*
Y-3500D01*
X34150Y-9200D02*
Y-3500D01*
X36000D02*
X37850D01*
X34150D02*
X36000D01*
Y-9200D02*
X37850D01*
X34150D02*
X36000D01*
X-23550Y21650D02*
X-21700D01*
X-19850D01*
X-23550Y27350D02*
X-21700D01*
X-19850D01*
X-23550Y21650D02*
Y27350D01*
X-19850Y21650D02*
Y27350D01*
X24050Y-9200D02*
Y-3500D01*
X20350Y-9200D02*
Y-3500D01*
X22200D02*
X24050D01*
X20350D02*
X22200D01*
Y-9200D02*
X24050D01*
X20350D02*
X22200D01*
X27250Y-5050D02*
X28200D01*
X27250Y-7950D02*
Y-5050D01*
Y-7950D02*
X29150D01*
Y-5050D01*
X28200D02*
X29150D01*
X-12110Y19600D02*
X-11160D01*
X-12110Y16700D02*
Y19600D01*
Y16700D02*
X-10210D01*
Y19600D01*
X-11160D02*
X-10210D01*
X-3300Y2250D02*
X-2350D01*
X-3300Y-650D02*
Y2250D01*
Y-650D02*
X-1400D01*
Y2250D01*
X-2350D02*
X-1400D01*
X-7950Y19600D02*
X-7000D01*
Y16700D02*
Y19600D01*
X-8900Y16700D02*
X-7000D01*
X-8900D02*
Y19600D01*
X-7950D01*
X-2900Y15600D02*
X-1950D01*
Y12700D02*
Y15600D01*
X-3850Y12700D02*
X-1950D01*
X-3850D02*
Y15600D01*
X-2900D01*
X15400Y18650D02*
X31300D01*
X-22926Y31000D02*
Y32300D01*
X37126Y-1150D02*
Y150D01*
X-7950Y15600D02*
X-7000D01*
Y12700D02*
Y15600D01*
X-8900Y12700D02*
X-7000D01*
X-8900D02*
Y15600D01*
X-7950D01*
X26826Y-7000D02*
Y-5700D01*
X-9950Y3950D02*
X-9650D01*
X-9950Y2750D02*
Y3950D01*
Y2750D02*
X-9350D01*
Y3950D01*
X-9650D02*
X-9350D01*
X-10850D02*
X-10550D01*
Y2750D02*
Y3950D01*
X-11150Y2750D02*
X-10550D01*
X-11150D02*
Y3950D01*
X-10850D01*
X-11450D02*
X-11150D01*
Y2750D02*
Y3950D01*
X-11750Y2750D02*
X-11150D01*
X-11750D02*
Y3950D01*
X-11450D01*
X-9600Y-1450D02*
Y-1150D01*
X-8400D01*
Y-1750D02*
Y-1150D01*
X-9600Y-1750D02*
X-8400D01*
X-9600D02*
Y-1450D01*
X-10800Y-1750D02*
Y-1450D01*
X-12000Y-1750D02*
X-10800D01*
X-12000D02*
Y-1150D01*
X-10800D01*
Y-1450D02*
Y-1150D01*
X-11800Y5100D02*
Y5400D01*
Y5100D02*
X-10600D01*
Y5700D01*
X-11800D02*
X-10600D01*
X-11800Y5400D02*
Y5700D01*
X-8300Y-3150D02*
Y-2850D01*
X-9500Y-3150D02*
X-8300D01*
X-9500D02*
Y-2550D01*
X-8300D01*
Y-2850D02*
Y-2550D01*
X-9900Y-2350D02*
X-9600D01*
Y-1150D01*
X-10200D02*
X-9600D01*
X-10200Y-2350D02*
Y-1150D01*
Y-2350D02*
X-9900D01*
X-10500D02*
X-10200D01*
Y-1150D01*
X-10800D02*
X-10200D01*
X-10800Y-2350D02*
Y-1150D01*
Y-2350D02*
X-10500D01*
X-12050Y-3150D02*
Y-2850D01*
Y-3150D02*
X-10850D01*
Y-2550D01*
X-12050D02*
X-10850D01*
X-12050Y-2850D02*
Y-2550D01*
X-9950Y5100D02*
Y5400D01*
Y5100D02*
X-8750D01*
Y5700D01*
X-9950D02*
X-8750D01*
X-9950Y5400D02*
Y5700D01*
X-9050Y3950D02*
X-8750D01*
Y2750D02*
Y3950D01*
X-9350Y2750D02*
X-8750D01*
X-9350D02*
Y3950D01*
X-9050D01*
X-10550Y2750D02*
X-10250D01*
X-10550D02*
Y3950D01*
X-9950D01*
Y2750D02*
Y3950D01*
X-10250Y2750D02*
X-9950D01*
X35676Y21850D02*
Y23150D01*
X34050Y29050D02*
X35000D01*
Y26150D02*
Y29050D01*
X33100Y26150D02*
X35000D01*
X33100D02*
Y29050D01*
X34050D01*
X-8450Y2750D02*
X-8150D01*
Y3950D01*
X-8750D02*
X-8150D01*
X-8750Y2750D02*
Y3950D01*
Y2750D02*
X-8450D01*
X-11281Y-963D02*
Y2344D01*
X-9174D01*
X-11281Y-963D02*
X-9174D01*
Y257D01*
Y1123D02*
Y2344D01*
X-8150Y3950D02*
X-7850D01*
X-8150Y2750D02*
Y3950D01*
Y2750D02*
X-7550D01*
Y3950D01*
X-7850D02*
X-7550D01*
X37850Y13800D02*
Y19500D01*
X34150Y13800D02*
Y19500D01*
X36000D02*
X37850D01*
X34150D02*
X36000D01*
Y13800D02*
X37850D01*
X34150D02*
X36000D01*
X-23150Y16500D02*
Y18800D01*
X-19750D01*
Y16500D02*
Y18800D01*
X-23150Y16500D02*
X-21695D01*
X-21155D02*
X-19750D01*
X-24700Y19405D02*
Y19875D01*
X-24400D01*
Y20325D01*
X-23150D01*
Y18775D02*
Y20325D01*
X-24400Y18775D02*
X-23150D01*
X-24400D02*
Y19225D01*
X-24700D02*
X-24400D01*
X-24700D02*
Y19405D01*
X-19200Y15800D02*
X-17450D01*
Y20000D01*
X-19200D02*
X-17450D01*
X-19750Y15800D02*
X-19200D01*
X-19750D02*
Y17900D01*
Y20000D02*
X-19200D01*
X-19750Y17900D02*
Y20000D01*
X-23570Y-430D02*
X-21720D01*
X-19870D01*
X-23570Y5270D02*
X-21720D01*
X-19870D01*
X-23570Y-430D02*
Y5270D01*
X-19870Y-430D02*
Y5270D01*
X17750Y12100D02*
X18500D01*
Y14100D01*
X13099D02*
X18500D01*
X13099Y12100D02*
Y14100D01*
Y12100D02*
X17750D01*
X36949Y21600D02*
Y27400D01*
Y21600D02*
X42549D01*
Y27400D01*
X36949D02*
X42549D01*
X7246Y23604D02*
Y31900D01*
X8454Y33104D02*
X22350D01*
X23554Y23600D02*
Y31896D01*
X8450Y22396D02*
X22346D01*
X14700Y-4600D02*
Y-4400D01*
X15700D01*
Y-4600D02*
Y-4400D01*
Y-5950D02*
Y-4600D01*
X14700D02*
X15700D01*
X14700Y-6600D02*
Y-4600D01*
Y-6600D02*
X15700D01*
Y-5950D01*
X13900Y-9500D02*
X14150D01*
Y-6150D01*
X9350Y-9500D02*
X13900D01*
X9350D02*
Y-6150D01*
X13950Y-2150D02*
X14150Y-2350D01*
X9350D02*
X9550Y-2150D01*
X14150Y-6150D02*
Y-2350D01*
X9350Y-6150D02*
Y-2350D01*
X9550Y-2150D02*
X13950D01*
X-11590Y24670D02*
X-11190D01*
X-11390D01*
Y24070D01*
X-10990D02*
Y24670D01*
X-10690D01*
X-10590Y24570D01*
Y24370D01*
X-10690Y24270D01*
X-10990D01*
X-9991Y24070D02*
X-10390D01*
X-9991Y24470D01*
Y24570D01*
X-10090Y24670D01*
X-10290D01*
X-10390Y24570D01*
X-9791Y24070D02*
X-9591D01*
X-9691D01*
Y24670D01*
X-9791Y24570D01*
X-9070Y26650D02*
X-8670D01*
X-8870D01*
Y26050D01*
X-8470D02*
Y26650D01*
X-8170D01*
X-8070Y26550D01*
Y26350D01*
X-8170Y26250D01*
X-8470D01*
X-7471Y26050D02*
X-7870D01*
X-7471Y26450D01*
Y26550D01*
X-7570Y26650D01*
X-7770D01*
X-7870Y26550D01*
X-6871Y26650D02*
X-7271D01*
Y26350D01*
X-7071Y26450D01*
X-6971D01*
X-6871Y26350D01*
Y26150D01*
X-6971Y26050D01*
X-7171D01*
X-7271Y26150D01*
X-11220Y28600D02*
X-10820D01*
X-11020D01*
Y28000D01*
X-10620D02*
Y28600D01*
X-10320D01*
X-10220Y28500D01*
Y28300D01*
X-10320Y28200D01*
X-10620D01*
X-9621Y28000D02*
X-10020D01*
X-9621Y28400D01*
Y28500D01*
X-9720Y28600D01*
X-9920D01*
X-10020Y28500D01*
X-9121Y28000D02*
Y28600D01*
X-9421Y28300D01*
X-9021D01*
X-7470Y30050D02*
X-7070D01*
X-7270D01*
Y29450D01*
X-6870D02*
Y30050D01*
X-6570D01*
X-6470Y29950D01*
Y29750D01*
X-6570Y29650D01*
X-6870D01*
X-5871Y29450D02*
X-6270D01*
X-5871Y29850D01*
Y29950D01*
X-5970Y30050D01*
X-6170D01*
X-6270Y29950D01*
X-5671D02*
X-5571Y30050D01*
X-5371D01*
X-5271Y29950D01*
Y29850D01*
X-5371Y29750D01*
X-5471D01*
X-5371D01*
X-5271Y29650D01*
Y29550D01*
X-5371Y29450D01*
X-5571D01*
X-5671Y29550D01*
X-7900Y25200D02*
X-7500D01*
X-7700D01*
Y24600D01*
X-7300D02*
Y25200D01*
X-7000D01*
X-6900Y25100D01*
Y24900D01*
X-7000Y24800D01*
X-7300D01*
X-6301Y24600D02*
X-6700D01*
X-6301Y25000D01*
Y25100D01*
X-6400Y25200D01*
X-6600D01*
X-6700Y25100D01*
X-5701Y24600D02*
X-6101D01*
X-5701Y25000D01*
Y25100D01*
X-5801Y25200D01*
X-6001D01*
X-6101Y25100D01*
X31550Y2900D02*
X31950D01*
X31750D01*
Y2300D01*
X32150D02*
Y2900D01*
X32450D01*
X32550Y2800D01*
Y2600D01*
X32450Y2500D01*
X32150D01*
X33149Y2900D02*
X32750D01*
Y2600D01*
X32950Y2700D01*
X33050D01*
X33149Y2600D01*
Y2400D01*
X33050Y2300D01*
X32850D01*
X32750Y2400D01*
X16305Y10000D02*
X16505D01*
X16405D01*
Y10600D01*
X16305Y10500D01*
X11550Y12100D02*
X11350D01*
X11450D01*
Y11600D01*
X11350Y11500D01*
X11250D01*
X11150Y11600D01*
X11750Y11500D02*
X11950D01*
X11850D01*
Y12100D01*
X11750Y12000D01*
X12250D02*
X12350Y12100D01*
X12550D01*
X12650Y12000D01*
Y11900D01*
X12550Y11800D01*
X12450D01*
X12550D01*
X12650Y11700D01*
Y11600D01*
X12550Y11500D01*
X12350D01*
X12250Y11600D01*
X-18150Y12750D02*
X-18350D01*
X-18250D01*
Y12250D01*
X-18350Y12150D01*
X-18450D01*
X-18550Y12250D01*
X-17950Y12150D02*
X-17750D01*
X-17850D01*
Y12750D01*
X-17950Y12650D01*
X-17450Y12150D02*
X-17250D01*
X-17350D01*
Y12750D01*
X-17450Y12650D01*
X-19150Y10750D02*
X-19250Y10850D01*
X-19450D01*
X-19550Y10750D01*
Y10650D01*
X-19450Y10550D01*
X-19250D01*
X-19150Y10450D01*
Y10350D01*
X-19250Y10250D01*
X-19450D01*
X-19550Y10350D01*
X-18950Y10850D02*
Y10250D01*
X-18750Y10450D01*
X-18550Y10250D01*
Y10850D01*
X-18350D02*
X-17951D01*
Y10750D01*
X-18350Y10350D01*
Y10250D01*
X11300Y-1300D02*
Y-1800D01*
X11400Y-1900D01*
X11600D01*
X11700Y-1800D01*
Y-1300D01*
X11900Y-1900D02*
X12100D01*
X12000D01*
Y-1300D01*
X11900Y-1400D01*
X21800Y-2750D02*
X21700Y-2650D01*
X21500D01*
X21400Y-2750D01*
Y-2850D01*
X21500Y-2950D01*
X21700D01*
X21800Y-3050D01*
Y-3150D01*
X21700Y-3250D01*
X21500D01*
X21400Y-3150D01*
X22000Y-2650D02*
Y-3250D01*
X22200Y-3050D01*
X22400Y-3250D01*
Y-2650D01*
X22999D02*
X22600D01*
Y-2950D01*
X22800Y-2850D01*
X22900D01*
X22999Y-2950D01*
Y-3150D01*
X22900Y-3250D01*
X22700D01*
X22600Y-3150D01*
X16200Y-3200D02*
Y-2600D01*
X16500D01*
X16600Y-2700D01*
Y-2900D01*
X16500Y-3000D01*
X16200D01*
X16400D02*
X16600Y-3200D01*
X17200Y-2600D02*
X17000Y-2700D01*
X16800Y-2900D01*
Y-3100D01*
X16900Y-3200D01*
X17100D01*
X17200Y-3100D01*
Y-3000D01*
X17100Y-2900D01*
X16800D01*
X17650Y-5600D02*
X18250D01*
Y-5900D01*
X18150Y-6000D01*
X17950D01*
X17850Y-5900D01*
Y-5600D01*
Y-5800D02*
X17650Y-6000D01*
X18250Y-6600D02*
Y-6200D01*
X17950D01*
X18050Y-6400D01*
Y-6500D01*
X17950Y-6600D01*
X17750D01*
X17650Y-6500D01*
Y-6300D01*
X17750Y-6200D01*
X18550Y-5600D02*
X19150D01*
Y-5900D01*
X19050Y-6000D01*
X18850D01*
X18750Y-5900D01*
Y-5600D01*
Y-5800D02*
X18550Y-6000D01*
Y-6500D02*
X19150D01*
X18850Y-6200D01*
Y-6600D01*
X19600Y-5600D02*
X20200D01*
Y-5900D01*
X20100Y-6000D01*
X19900D01*
X19800Y-5900D01*
Y-5600D01*
Y-5800D02*
X19600Y-6000D01*
X20100Y-6200D02*
X20200Y-6300D01*
Y-6500D01*
X20100Y-6600D01*
X20000D01*
X19900Y-6500D01*
Y-6400D01*
Y-6500D01*
X19800Y-6600D01*
X19700D01*
X19600Y-6500D01*
Y-6300D01*
X19700Y-6200D01*
X15100Y-3650D02*
X15000Y-3550D01*
X14800D01*
X14700Y-3650D01*
Y-4050D01*
X14800Y-4150D01*
X15000D01*
X15100Y-4050D01*
X15600Y-4150D02*
Y-3550D01*
X15300Y-3850D01*
X15700D01*
X16255Y-8345D02*
X16155Y-8245D01*
X15955D01*
X15855Y-8345D01*
Y-8745D01*
X15955Y-8845D01*
X16155D01*
X16255Y-8745D01*
X16455Y-8345D02*
X16555Y-8245D01*
X16755D01*
X16855Y-8345D01*
Y-8445D01*
X16755Y-8545D01*
X16655D01*
X16755D01*
X16855Y-8645D01*
Y-8745D01*
X16755Y-8845D01*
X16555D01*
X16455Y-8745D01*
X6350Y12550D02*
X6750D01*
X6550D01*
Y11950D01*
X6950D02*
Y12550D01*
X7250D01*
X7350Y12450D01*
Y12250D01*
X7250Y12150D01*
X6950D01*
X7550Y11950D02*
X7750D01*
X7650D01*
Y12550D01*
X7550Y12450D01*
X8049Y12550D02*
X8449D01*
Y12450D01*
X8049Y12050D01*
Y11950D01*
X-6750Y18600D02*
X-6350D01*
X-6550D01*
Y18000D01*
X-6150D02*
Y18600D01*
X-5850D01*
X-5750Y18500D01*
Y18300D01*
X-5850Y18200D01*
X-6150D01*
X-5550Y18000D02*
X-5350D01*
X-5450D01*
Y18600D01*
X-5550Y18500D01*
X-4651Y18600D02*
X-4851Y18500D01*
X-5051Y18300D01*
Y18100D01*
X-4951Y18000D01*
X-4751D01*
X-4651Y18100D01*
Y18200D01*
X-4751Y18300D01*
X-5051D01*
X-3950Y12350D02*
X-3550D01*
X-3750D01*
Y11750D01*
X-3350D02*
Y12350D01*
X-3050D01*
X-2950Y12250D01*
Y12050D01*
X-3050Y11950D01*
X-3350D01*
X-2750Y11750D02*
X-2550D01*
X-2650D01*
Y12350D01*
X-2750Y12250D01*
X-1851Y12350D02*
X-2251D01*
Y12050D01*
X-2051Y12150D01*
X-1951D01*
X-1851Y12050D01*
Y11850D01*
X-1951Y11750D01*
X-2151D01*
X-2251Y11850D01*
X-50Y14400D02*
X350D01*
X150D01*
Y13800D01*
X550D02*
Y14400D01*
X850D01*
X950Y14300D01*
Y14100D01*
X850Y14000D01*
X550D01*
X1150Y13800D02*
X1350D01*
X1250D01*
Y14400D01*
X1150Y14300D01*
X1949Y13800D02*
Y14400D01*
X1649Y14100D01*
X2049D01*
X14170Y21910D02*
X14070Y22010D01*
X13870D01*
X13770Y21910D01*
Y21510D01*
X13870Y21410D01*
X14070D01*
X14170Y21510D01*
X14370Y22010D02*
Y21410D01*
X14770D01*
X14970D02*
Y21810D01*
X15170Y22010D01*
X15369Y21810D01*
Y21410D01*
Y21710D01*
X14970D01*
X15569Y21410D02*
Y22010D01*
X15769Y21810D01*
X15969Y22010D01*
Y21410D01*
X16169D02*
Y22010D01*
X16469D01*
X16569Y21910D01*
Y21710D01*
X16469Y21610D01*
X16169D01*
X16769Y21410D02*
X16969D01*
X16869D01*
Y22010D01*
X16769Y21910D01*
X-22200Y33850D02*
Y33250D01*
X-21900D01*
X-21800Y33350D01*
Y33750D01*
X-21900Y33850D01*
X-22200D01*
X-21600Y33250D02*
X-21400D01*
X-21500D01*
Y33850D01*
X-21600Y33750D01*
X33450Y-200D02*
Y-800D01*
X33750D01*
X33850Y-700D01*
Y-300D01*
X33750Y-200D01*
X33450D01*
X34450Y-800D02*
X34050D01*
X34450Y-400D01*
Y-300D01*
X34350Y-200D01*
X34150D01*
X34050Y-300D01*
X750Y31510D02*
X550D01*
X650D01*
Y31010D01*
X550Y30910D01*
X450D01*
X350Y31010D01*
X950Y30910D02*
X1150D01*
X1050D01*
Y31510D01*
X950Y31410D01*
X36100Y26450D02*
X35900D01*
X36000D01*
Y25950D01*
X35900Y25850D01*
X35800D01*
X35700Y25950D01*
X36700Y25850D02*
X36300D01*
X36700Y26250D01*
Y26350D01*
X36600Y26450D01*
X36400D01*
X36300Y26350D01*
X12250Y13700D02*
X12050D01*
X12150D01*
Y13200D01*
X12050Y13100D01*
X11950D01*
X11850Y13200D01*
X12450Y13600D02*
X12550Y13700D01*
X12750D01*
X12850Y13600D01*
Y13500D01*
X12750Y13400D01*
X12650D01*
X12750D01*
X12850Y13300D01*
Y13200D01*
X12750Y13100D01*
X12550D01*
X12450Y13200D01*
X-25500Y-6000D02*
X-25700D01*
X-25600D01*
Y-6500D01*
X-25700Y-6600D01*
X-25800D01*
X-25900Y-6500D01*
X-25000Y-6600D02*
Y-6000D01*
X-25300Y-6300D01*
X-24900D01*
X-15600Y4200D02*
X-15800D01*
X-15700D01*
Y3700D01*
X-15800Y3600D01*
X-15900D01*
X-16000Y3700D01*
X-15000Y4200D02*
X-15400D01*
Y3900D01*
X-15200Y4000D01*
X-15100D01*
X-15000Y3900D01*
Y3700D01*
X-15100Y3600D01*
X-15300D01*
X-15400Y3700D01*
X-1800Y7350D02*
X-2000D01*
X-1900D01*
Y6850D01*
X-2000Y6750D01*
X-2100D01*
X-2200Y6850D01*
X-1200Y7350D02*
X-1400Y7250D01*
X-1600Y7050D01*
Y6850D01*
X-1500Y6750D01*
X-1300D01*
X-1200Y6850D01*
Y6950D01*
X-1300Y7050D01*
X-1600D01*
X1200Y-2550D02*
X1000D01*
X1100D01*
Y-3050D01*
X1000Y-3150D01*
X900D01*
X800Y-3050D01*
X1400Y-2550D02*
X1800D01*
Y-2650D01*
X1400Y-3050D01*
Y-3150D01*
X1650Y21850D02*
X1450D01*
X1550D01*
Y21350D01*
X1450Y21250D01*
X1350D01*
X1250Y21350D01*
X1850Y21750D02*
X1950Y21850D01*
X2150D01*
X2250Y21750D01*
Y21650D01*
X2150Y21550D01*
X2250Y21450D01*
Y21350D01*
X2150Y21250D01*
X1950D01*
X1850Y21350D01*
Y21450D01*
X1950Y21550D01*
X1850Y21650D01*
Y21750D01*
X1950Y21550D02*
X2150D01*
X-19300Y21300D02*
Y21900D01*
X-19000D01*
X-18900Y21800D01*
Y21600D01*
X-19000Y21500D01*
X-19300D01*
X-19100D02*
X-18900Y21300D01*
X-18700D02*
X-18500D01*
X-18600D01*
Y21900D01*
X-18700Y21800D01*
X32740Y-6580D02*
Y-5980D01*
X33040D01*
X33140Y-6080D01*
Y-6280D01*
X33040Y-6380D01*
X32740D01*
X32940D02*
X33140Y-6580D01*
X33740D02*
X33340D01*
X33740Y-6180D01*
Y-6080D01*
X33640Y-5980D01*
X33440D01*
X33340Y-6080D01*
X-19100Y25500D02*
X-19200Y25600D01*
X-19400D01*
X-19500Y25500D01*
Y25400D01*
X-19400Y25300D01*
X-19200D01*
X-19100Y25200D01*
Y25100D01*
X-19200Y25000D01*
X-19400D01*
X-19500Y25100D01*
X-18900Y25600D02*
Y25000D01*
X-18700Y25200D01*
X-18500Y25000D01*
Y25600D01*
X-18300Y25000D02*
X-18100D01*
X-18200D01*
Y25600D01*
X-18300Y25500D01*
X-19120Y2620D02*
X-19220Y2720D01*
X-19420D01*
X-19520Y2620D01*
Y2520D01*
X-19420Y2420D01*
X-19220D01*
X-19120Y2320D01*
Y2220D01*
X-19220Y2120D01*
X-19420D01*
X-19520Y2220D01*
X-18920Y2720D02*
Y2120D01*
X-18720Y2320D01*
X-18520Y2120D01*
Y2720D01*
X-17921Y2120D02*
X-18320D01*
X-17921Y2520D01*
Y2620D01*
X-18020Y2720D01*
X-18220D01*
X-18320Y2620D01*
X35540Y-2790D02*
X35440Y-2690D01*
X35240D01*
X35140Y-2790D01*
Y-2890D01*
X35240Y-2990D01*
X35440D01*
X35540Y-3090D01*
Y-3190D01*
X35440Y-3290D01*
X35240D01*
X35140Y-3190D01*
X35740Y-2690D02*
Y-3290D01*
X35940Y-3090D01*
X36140Y-3290D01*
Y-2690D01*
X36340Y-2790D02*
X36440Y-2690D01*
X36640D01*
X36739Y-2790D01*
Y-2890D01*
X36640Y-2990D01*
X36540D01*
X36640D01*
X36739Y-3090D01*
Y-3190D01*
X36640Y-3290D01*
X36440D01*
X36340Y-3190D01*
X5650Y14450D02*
X6050D01*
X5850D01*
Y13850D01*
X6250D02*
Y14450D01*
X6550D01*
X6650Y14350D01*
Y14150D01*
X6550Y14050D01*
X6250D01*
X6850Y13850D02*
X7050D01*
X6950D01*
Y14450D01*
X6850Y14350D01*
X700Y11500D02*
X1100D01*
X900D01*
Y10900D01*
X1300D02*
Y11500D01*
X1600D01*
X1700Y11400D01*
Y11200D01*
X1600Y11100D01*
X1300D01*
X2299Y10900D02*
X1900D01*
X2299Y11300D01*
Y11400D01*
X2200Y11500D01*
X2000D01*
X1900Y11400D01*
X-6700Y14600D02*
X-6300D01*
X-6500D01*
Y14000D01*
X-6100D02*
Y14600D01*
X-5800D01*
X-5700Y14500D01*
Y14300D01*
X-5800Y14200D01*
X-6100D01*
X-5500Y14500D02*
X-5400Y14600D01*
X-5200D01*
X-5101Y14500D01*
Y14400D01*
X-5200Y14300D01*
X-5300D01*
X-5200D01*
X-5101Y14200D01*
Y14100D01*
X-5200Y14000D01*
X-5400D01*
X-5500Y14100D01*
X4250Y9700D02*
X4650D01*
X4450D01*
Y9100D01*
X4850D02*
Y9700D01*
X5150D01*
X5250Y9600D01*
Y9400D01*
X5150Y9300D01*
X4850D01*
X5750Y9100D02*
Y9700D01*
X5450Y9400D01*
X5849D01*
X22380Y8780D02*
X22780D01*
X22580D01*
Y8180D01*
X22980D02*
Y8780D01*
X23280D01*
X23380Y8680D01*
Y8480D01*
X23280Y8380D01*
X22980D01*
X23979Y8780D02*
X23780Y8680D01*
X23580Y8480D01*
Y8280D01*
X23680Y8180D01*
X23880D01*
X23979Y8280D01*
Y8380D01*
X23880Y8480D01*
X23580D01*
X1065Y10085D02*
X1465D01*
X1265D01*
Y9485D01*
X1665D02*
Y10085D01*
X1965D01*
X2065Y9985D01*
Y9785D01*
X1965Y9685D01*
X1665D01*
X2265Y10085D02*
X2664D01*
Y9985D01*
X2265Y9585D01*
Y9485D01*
X1850Y5350D02*
X2250D01*
X2050D01*
Y4750D01*
X2450D02*
Y5350D01*
X2750D01*
X2850Y5250D01*
Y5050D01*
X2750Y4950D01*
X2450D01*
X3050Y5250D02*
X3150Y5350D01*
X3350D01*
X3449Y5250D01*
Y5150D01*
X3350Y5050D01*
X3449Y4950D01*
Y4850D01*
X3350Y4750D01*
X3150D01*
X3050Y4850D01*
Y4950D01*
X3150Y5050D01*
X3050Y5150D01*
Y5250D01*
X3150Y5050D02*
X3350D01*
X7600Y5750D02*
X8000D01*
X7800D01*
Y5150D01*
X8200D02*
Y5750D01*
X8500D01*
X8600Y5650D01*
Y5450D01*
X8500Y5350D01*
X8200D01*
X8800Y5250D02*
X8900Y5150D01*
X9100D01*
X9199Y5250D01*
Y5650D01*
X9100Y5750D01*
X8900D01*
X8800Y5650D01*
Y5550D01*
X8900Y5450D01*
X9199D01*
X6690Y-5610D02*
X6590Y-5510D01*
X6390D01*
X6290Y-5610D01*
Y-6010D01*
X6390Y-6110D01*
X6590D01*
X6690Y-6010D01*
X7290Y-6110D02*
X6890D01*
X7290Y-5710D01*
Y-5610D01*
X7190Y-5510D01*
X6990D01*
X6890Y-5610D01*
X-1610Y20060D02*
X-1710Y20160D01*
X-1910D01*
X-2010Y20060D01*
Y19660D01*
X-1910Y19560D01*
X-1710D01*
X-1610Y19660D01*
X-1410Y19560D02*
X-1210D01*
X-1310D01*
Y20160D01*
X-1410Y20060D01*
X29450Y-6800D02*
X29850D01*
X29650D01*
Y-7400D01*
X30050D02*
Y-6800D01*
X30350D01*
X30450Y-6900D01*
Y-7100D01*
X30350Y-7200D01*
X30050D01*
X30650Y-7400D02*
X30850D01*
X30750D01*
Y-6800D01*
X30650Y-6900D01*
X31149D02*
X31249Y-6800D01*
X31449D01*
X31549Y-6900D01*
Y-7300D01*
X31449Y-7400D01*
X31249D01*
X31149Y-7300D01*
Y-6900D01*
X-12030Y15400D02*
X-11630D01*
X-11830D01*
Y14800D01*
X-11430D02*
Y15400D01*
X-11130D01*
X-11030Y15300D01*
Y15100D01*
X-11130Y15000D01*
X-11430D01*
X-10830Y14800D02*
X-10630D01*
X-10730D01*
Y15400D01*
X-10830Y15300D01*
X-10331Y14800D02*
X-10131D01*
X-10231D01*
Y15400D01*
X-10331Y15300D01*
X-5650Y1500D02*
X-5250D01*
X-5450D01*
Y900D01*
X-5050D02*
Y1500D01*
X-4750D01*
X-4650Y1400D01*
Y1200D01*
X-4750Y1100D01*
X-5050D01*
X-4450Y900D02*
X-4250D01*
X-4350D01*
Y1500D01*
X-4450Y1400D01*
X-3551Y900D02*
X-3951D01*
X-3551Y1300D01*
Y1400D01*
X-3651Y1500D01*
X-3851D01*
X-3951Y1400D01*
X35580Y4820D02*
X35480Y4920D01*
X35280D01*
X35180Y4820D01*
Y4720D01*
X35280Y4620D01*
X35480D01*
X35580Y4520D01*
Y4420D01*
X35480Y4320D01*
X35280D01*
X35180Y4420D01*
X35780Y4920D02*
Y4320D01*
X35980Y4520D01*
X36180Y4320D01*
Y4920D01*
X36680Y4320D02*
Y4920D01*
X36380Y4620D01*
X36779D01*
X7000Y13550D02*
X7400D01*
X7200D01*
Y12950D01*
X7600D02*
Y13550D01*
X7900D01*
X8000Y13450D01*
Y13250D01*
X7900Y13150D01*
X7600D01*
X8200Y12950D02*
X8400D01*
X8300D01*
Y13550D01*
X8200Y13450D01*
X8699D02*
X8799Y13550D01*
X8999D01*
X9099Y13450D01*
Y13350D01*
X8999Y13250D01*
X8899D01*
X8999D01*
X9099Y13150D01*
Y13050D01*
X8999Y12950D01*
X8799D01*
X8699Y13050D01*
X25200Y-7850D02*
Y-8450D01*
X25500D01*
X25600Y-8350D01*
Y-7950D01*
X25500Y-7850D01*
X25200D01*
X25800Y-7950D02*
X25900Y-7850D01*
X26100D01*
X26200Y-7950D01*
Y-8050D01*
X26100Y-8150D01*
X26000D01*
X26100D01*
X26200Y-8250D01*
Y-8350D01*
X26100Y-8450D01*
X25900D01*
X25800Y-8350D01*
X-19050Y20200D02*
Y20800D01*
X-18750D01*
X-18650Y20700D01*
Y20500D01*
X-18750Y20400D01*
X-19050D01*
X-18450Y20200D02*
X-18250D01*
X-18350D01*
Y20800D01*
X-18450Y20700D01*
X-23900Y20650D02*
Y21050D01*
X-24000Y21150D01*
X-24200D01*
X-24300Y21050D01*
Y20650D01*
X-24200Y20550D01*
X-24000D01*
X-24100Y20750D02*
X-23900Y20550D01*
X-24000D02*
X-23900Y20650D01*
X-23700Y20550D02*
X-23500D01*
X-23600D01*
Y21150D01*
X-23700Y21050D01*
X25200Y-3750D02*
Y-3150D01*
X25500D01*
X25600Y-3250D01*
Y-3450D01*
X25500Y-3550D01*
X25200D01*
X25400D02*
X25600Y-3750D01*
X25800Y-3150D02*
X26200D01*
Y-3250D01*
X25800Y-3650D01*
Y-3750D01*
X-21300Y19900D02*
Y20500D01*
X-21000D01*
X-20900Y20400D01*
Y20200D01*
X-21000Y20100D01*
X-21300D01*
X-21100D02*
X-20900Y19900D01*
X-20700Y20400D02*
X-20600Y20500D01*
X-20400D01*
X-20300Y20400D01*
Y20300D01*
X-20400Y20200D01*
X-20300Y20100D01*
Y20000D01*
X-20400Y19900D01*
X-20600D01*
X-20700Y20000D01*
Y20100D01*
X-20600Y20200D01*
X-20700Y20300D01*
Y20400D01*
X-20600Y20200D02*
X-20400D01*
X-22050Y20700D02*
Y21300D01*
X-21750D01*
X-21650Y21200D01*
Y21000D01*
X-21750Y20900D01*
X-22050D01*
X-21850D02*
X-21650Y20700D01*
X-21450Y20800D02*
X-21350Y20700D01*
X-21150D01*
X-21050Y20800D01*
Y21200D01*
X-21150Y21300D01*
X-21350D01*
X-21450Y21200D01*
Y21100D01*
X-21350Y21000D01*
X-21050D01*
X-24400Y17850D02*
Y17350D01*
X-24300Y17250D01*
X-24100D01*
X-24000Y17350D01*
Y17850D01*
X-23400Y17250D02*
X-23800D01*
X-23400Y17650D01*
Y17750D01*
X-23500Y17850D01*
X-23700D01*
X-23800Y17750D01*
X-24900Y16450D02*
Y17050D01*
X-24600D01*
X-24500Y16950D01*
Y16750D01*
X-24600Y16650D01*
X-24900D01*
X-24700D02*
X-24500Y16450D01*
X-24300D02*
X-24100D01*
X-24200D01*
Y17050D01*
X-24300Y16950D01*
X-23800D02*
X-23700Y17050D01*
X-23500D01*
X-23400Y16950D01*
Y16550D01*
X-23500Y16450D01*
X-23700D01*
X-23800Y16550D01*
Y16950D01*
X6000Y9200D02*
X6400D01*
X6200D01*
Y8600D01*
X6600D02*
Y9200D01*
X6900D01*
X7000Y9100D01*
Y8900D01*
X6900Y8800D01*
X6600D01*
X7200Y8600D02*
X7400D01*
X7300D01*
Y9200D01*
X7200Y9100D01*
X7699D02*
X7799Y9200D01*
X7999D01*
X8099Y9100D01*
Y9000D01*
X7999Y8900D01*
X8099Y8800D01*
Y8700D01*
X7999Y8600D01*
X7799D01*
X7699Y8700D01*
Y8800D01*
X7799Y8900D01*
X7699Y9000D01*
Y9100D01*
X7799Y8900D02*
X7999D01*
X35580Y13370D02*
X35480Y13470D01*
X35280D01*
X35180Y13370D01*
Y13270D01*
X35280Y13170D01*
X35480D01*
X35580Y13070D01*
Y12970D01*
X35480Y12870D01*
X35280D01*
X35180Y12970D01*
X35780Y13470D02*
Y12870D01*
X35980Y13070D01*
X36180Y12870D01*
Y13470D01*
X36779D02*
X36580Y13370D01*
X36380Y13170D01*
Y12970D01*
X36480Y12870D01*
X36680D01*
X36779Y12970D01*
Y13070D01*
X36680Y13170D01*
X36380D01*
X30200Y8300D02*
Y8900D01*
X30500D01*
X30600Y8800D01*
Y8600D01*
X30500Y8500D01*
X30200D01*
X30400D02*
X30600Y8300D01*
X30800D02*
X31000D01*
X30900D01*
Y8900D01*
X30800Y8800D01*
X31300Y8300D02*
X31500D01*
X31400D01*
Y8900D01*
X31300Y8800D01*
X-3820Y7250D02*
X-3920Y7350D01*
X-4120D01*
X-4220Y7250D01*
Y6850D01*
X-4120Y6750D01*
X-3920D01*
X-3820Y6850D01*
X-3220Y7350D02*
X-3620D01*
Y7050D01*
X-3420Y7150D01*
X-3320D01*
X-3220Y7050D01*
Y6850D01*
X-3320Y6750D01*
X-3520D01*
X-3620Y6850D01*
X-4650Y-2550D02*
X-4850D01*
X-4750D01*
Y-3050D01*
X-4850Y-3150D01*
X-4950D01*
X-5050Y-3050D01*
X-4450D02*
X-4350Y-3150D01*
X-4150D01*
X-4050Y-3050D01*
Y-2650D01*
X-4150Y-2550D01*
X-4350D01*
X-4450Y-2650D01*
Y-2750D01*
X-4350Y-2850D01*
X-4050D01*
X-15900Y-2650D02*
X-16100D01*
X-16000D01*
Y-3150D01*
X-16100Y-3250D01*
X-16200D01*
X-16300Y-3150D01*
X-15700Y-3250D02*
X-15500D01*
X-15600D01*
Y-2650D01*
X-15700Y-2750D01*
X-15200D02*
X-15100Y-2650D01*
X-14900D01*
X-14800Y-2750D01*
Y-3150D01*
X-14900Y-3250D01*
X-15100D01*
X-15200Y-3150D01*
Y-2750D01*
X-7583Y5017D02*
X-7500Y5100D01*
Y5267D01*
X-7583Y5350D01*
X-7917D01*
X-8000Y5267D01*
Y5100D01*
X-7917Y5017D01*
X-8000Y4850D02*
Y4684D01*
Y4767D01*
X-7500D01*
X-7583Y4850D01*
Y4434D02*
X-7500Y4350D01*
Y4184D01*
X-7583Y4100D01*
X-7667D01*
X-7750Y4184D01*
Y4267D01*
Y4184D01*
X-7833Y4100D01*
X-7917D01*
X-8000Y4184D01*
Y4350D01*
X-7917Y4434D01*
X-8820Y2050D02*
Y1550D01*
X-8720Y1450D01*
X-8520D01*
X-8420Y1550D01*
Y2050D01*
X-8220Y1950D02*
X-8120Y2050D01*
X-7920D01*
X-7820Y1950D01*
Y1850D01*
X-7920Y1750D01*
X-8020D01*
X-7920D01*
X-7820Y1650D01*
Y1550D01*
X-7920Y1450D01*
X-8120D01*
X-8220Y1550D01*
X-8650Y5750D02*
X-8150D01*
Y5500D01*
X-8233Y5417D01*
X-8400D01*
X-8483Y5500D01*
Y5750D01*
Y5583D02*
X-8650Y5417D01*
Y5250D02*
Y5084D01*
Y5167D01*
X-8150D01*
X-8233Y5250D01*
Y4834D02*
X-8150Y4750D01*
Y4584D01*
X-8233Y4500D01*
X-8317D01*
X-8400Y4584D01*
X-8483Y4500D01*
X-8567D01*
X-8650Y4584D01*
Y4750D01*
X-8567Y4834D01*
X-8483D01*
X-8400Y4750D01*
X-8317Y4834D01*
X-8233D01*
X-8400Y4750D02*
Y4584D01*
X8100Y11500D02*
X8500D01*
X8300D01*
Y10900D01*
X8700D02*
Y11500D01*
X9000D01*
X9100Y11400D01*
Y11200D01*
X9000Y11100D01*
X8700D01*
X9300Y10900D02*
X9500D01*
X9400D01*
Y11500D01*
X9300Y11400D01*
X9799Y11000D02*
X9899Y10900D01*
X10099D01*
X10199Y11000D01*
Y11400D01*
X10099Y11500D01*
X9899D01*
X9799Y11400D01*
Y11300D01*
X9899Y11200D01*
X10199D01*
X32900Y29950D02*
X33300D01*
X33100D01*
Y29350D01*
X33500D02*
Y29950D01*
X33800D01*
X33900Y29850D01*
Y29650D01*
X33800Y29550D01*
X33500D01*
X34499Y29350D02*
X34100D01*
X34499Y29750D01*
Y29850D01*
X34400Y29950D01*
X34200D01*
X34100Y29850D01*
X34699D02*
X34799Y29950D01*
X34999D01*
X35099Y29850D01*
Y29450D01*
X34999Y29350D01*
X34799D01*
X34699Y29450D01*
Y29850D01*
X35200Y24550D02*
Y23950D01*
X35500D01*
X35600Y24050D01*
Y24450D01*
X35500Y24550D01*
X35200D01*
X36100Y23950D02*
Y24550D01*
X35800Y24250D01*
X36200D01*
X32700Y25600D02*
X33300D01*
Y25300D01*
X33200Y25200D01*
X33000D01*
X32900Y25300D01*
Y25600D01*
Y25400D02*
X32700Y25200D01*
Y25000D02*
Y24800D01*
Y24900D01*
X33300D01*
X33200Y25000D01*
X32800Y24500D02*
X32700Y24400D01*
Y24200D01*
X32800Y24100D01*
X33200D01*
X33300Y24200D01*
Y24400D01*
X33200Y24500D01*
X33100D01*
X33000Y24400D01*
Y24100D01*
X2481Y-17051D02*
X2303Y-16874D01*
X1948D01*
X1770Y-17051D01*
Y-17229D01*
X1948Y-17407D01*
X2303D01*
X2481Y-17585D01*
Y-17762D01*
X2303Y-17940D01*
X1948D01*
X1770Y-17762D01*
X2836Y-16874D02*
X3192D01*
X3014D01*
Y-17940D01*
X2836D01*
X3192D01*
X3725Y-16874D02*
Y-17940D01*
X4436D01*
X4791Y-16874D02*
Y-17940D01*
Y-17585D01*
X5502Y-16874D01*
X4969Y-17407D01*
X5502Y-17940D01*
X7635Y-17051D02*
X7457Y-16874D01*
X7102D01*
X6924Y-17051D01*
Y-17229D01*
X7102Y-17407D01*
X7457D01*
X7635Y-17585D01*
Y-17762D01*
X7457Y-17940D01*
X7102D01*
X6924Y-17762D01*
X8701Y-17051D02*
X8523Y-16874D01*
X8168D01*
X7990Y-17051D01*
Y-17762D01*
X8168Y-17940D01*
X8523D01*
X8701Y-17762D01*
X9056Y-17940D02*
Y-16874D01*
X9590D01*
X9767Y-17051D01*
Y-17407D01*
X9590Y-17585D01*
X9056D01*
X9412D02*
X9767Y-17940D01*
X10834Y-16874D02*
X10123D01*
Y-17940D01*
X10834D01*
X10123Y-17407D02*
X10478D01*
X11900Y-16874D02*
X11189D01*
Y-17940D01*
X11900D01*
X11189Y-17407D02*
X11545D01*
X12255Y-17940D02*
Y-16874D01*
X12966Y-17940D01*
Y-16874D01*
X18700Y12800D02*
X18900D01*
X18800D01*
Y13400D01*
X18700Y13300D01*
X5900Y29810D02*
X6100D01*
X6000D01*
Y30410D01*
X5900Y30310D01*
X6809Y-30912D02*
G03*
X6309Y-30412I-500J0D01*
G01*
X6321Y-32412D02*
G03*
X6809Y-31915I8J480D01*
G01*
X7809Y-30412D02*
G03*
X7309Y-30912I0J-500D01*
G01*
Y-31912D02*
G03*
X7800Y-32412I500J0D01*
G01*
X25059Y-30912D02*
G03*
X24559Y-30412I-500J0D01*
G01*
X24571Y-32412D02*
G03*
X25059Y-31915I8J480D01*
G01*
X25559Y-31922D02*
G03*
X26058Y-32412I490J0D01*
G01*
X26059Y-30412D02*
G03*
X25559Y-30912I0J-500D01*
G01*
X-2441Y-23402D02*
G03*
X-2931Y-22912I-490J0D01*
G01*
X-2921Y-26162D02*
G03*
X-2441Y-25682I0J480D01*
G01*
Y-27152D02*
G03*
X-2948Y-26662I-490J0D01*
G01*
X-1941Y-26672D02*
G03*
X-1451Y-27162I490J0D01*
G01*
X-1941Y-29422D02*
G03*
X-1451Y-29912I490J0D01*
G01*
X-2931D02*
G03*
X-2441Y-29422I0J490D01*
G01*
X15059Y-28152D02*
G03*
X14569Y-27662I-490J0D01*
G01*
Y-29912D02*
G03*
X15059Y-29413I0J490D01*
G01*
X15559Y-29402D02*
G03*
X16060Y-29912I510J0D01*
G01*
X16039Y-27662D02*
G03*
X15560Y-28167I0J-480D01*
G01*
X-1441Y-27662D02*
G03*
X-1941Y-28162I0J-500D01*
G01*
X-1441Y-22912D02*
G03*
X-1941Y-23412I0J-500D01*
G01*
X-10941Y-29412D02*
G03*
X-10450Y-29912I500J0D01*
G01*
X-10441Y-26662D02*
G03*
X-10941Y-27162I0J-500D01*
G01*
Y-25662D02*
G03*
X-10441Y-26162I500J0D01*
G01*
Y-22912D02*
G03*
X-10941Y-23412I0J-500D01*
G01*
Y-21912D02*
G03*
X-10441Y-22412I500J0D01*
G01*
Y-20412D02*
G03*
X-10941Y-20912I0J-500D01*
G01*
X19559D02*
G03*
X19059Y-20412I-500J0D01*
G01*
X20559D02*
G03*
X20059Y-20912I0J-500D01*
G01*
X19059Y-22412D02*
G03*
X19559Y-21912I0J500D01*
G01*
Y-23412D02*
G03*
X19059Y-22912I-500J0D01*
G01*
X-10441Y-30412D02*
G03*
X-10941Y-30912I0J-500D01*
G01*
X19068Y-27162D02*
G03*
X19559Y-26662I-9J500D01*
G01*
X-10941Y-31912D02*
G03*
X-10450Y-32412I500J0D01*
G01*
X19559Y-28152D02*
G03*
X19069Y-27662I-490J0D01*
G01*
X20059Y-29422D02*
G03*
X20558Y-29912I490J0D01*
G01*
X19059Y-29912D02*
G03*
X19559Y-29412I0J500D01*
G01*
X31559Y-32412D02*
G03*
X32059Y-31912I0J500D01*
G01*
X32059Y-30903D02*
G03*
X31559Y-30412I-500J-9D01*
G01*
Y-29912D02*
G03*
X32059Y-29412I0J500D01*
G01*
Y-20902D02*
G03*
X31552Y-20412I-490J0D01*
G01*
X32559Y-20912D02*
G03*
X31559Y-19912I-1000J0D01*
G01*
Y-32912D02*
G03*
X32559Y-31912I0J1000D01*
G01*
X-11441Y-31902D02*
G03*
X-10448Y-32912I1010J0D01*
G01*
X-10441Y-19912D02*
G03*
X-11441Y-20912I0J-1000D01*
G01*
X20059Y-26662D02*
G03*
X20559Y-27162I500J0D01*
G01*
X31559D02*
G03*
X32059Y-26662I0J500D01*
G01*
X20559Y-27662D02*
G03*
X20059Y-28162I0J-500D01*
G01*
X32059Y-28152D02*
G03*
X31569Y-27662I-490J0D01*
G01*
X7809Y-32412D02*
X24559D01*
X-10441D02*
X6309D01*
X-10441Y-30412D02*
X6309D01*
X7809D02*
X24559D01*
X26059Y-32412D02*
X31559D01*
X26059Y-30412D02*
X31559D01*
X-10441Y-20412D02*
X19059D01*
X-10441Y-32912D02*
X31559D01*
X-10441Y-19912D02*
X31559D01*
X-10441Y-29912D02*
X-2941D01*
X-10441Y-26662D02*
X-2941D01*
X-10441Y-26162D02*
X-2941D01*
X-10441Y-22912D02*
X-2941D01*
X-10441Y-22412D02*
X19059D01*
X-1441Y-22912D02*
X19059D01*
X-1441Y-27662D02*
X14559D01*
X-1441Y-29912D02*
X14559D01*
X16059D02*
X19059D01*
X16059Y-27662D02*
X19059D01*
X20559Y-29912D02*
X31559D01*
X20559Y-20412D02*
X31559D01*
X-1441Y-27162D02*
X19059D01*
X20559D02*
X31559D01*
X20559Y-27662D02*
X31559D01*
X6809Y-31912D02*
Y-30912D01*
X7309Y-31912D02*
Y-30912D01*
X25059Y-31912D02*
Y-30912D01*
X25559Y-31912D02*
Y-30912D01*
X32559Y-31912D02*
Y-20912D01*
X-10941Y-29412D02*
Y-27162D01*
X-2441Y-29412D02*
Y-27162D01*
X-10941Y-25662D02*
Y-23412D01*
X-2441Y-25662D02*
Y-23412D01*
X-10941Y-21912D02*
Y-20912D01*
X19559Y-21912D02*
Y-20912D01*
Y-26662D02*
Y-23412D01*
X-1941Y-26662D02*
Y-23412D01*
X15059Y-29412D02*
Y-28162D01*
X-1941Y-29412D02*
Y-28162D01*
X15559Y-29412D02*
Y-28162D01*
X19559Y-29412D02*
Y-28162D01*
X32059Y-31912D02*
Y-30912D01*
X-10941Y-31912D02*
Y-30912D01*
X-11441Y-31912D02*
Y-20912D01*
X20059Y-26662D02*
Y-20912D01*
X32059Y-26662D02*
Y-20912D01*
X20059Y-29412D02*
Y-28162D01*
X32059Y-29412D02*
Y-28152D01*
X22075Y-24619D02*
Y-25259D01*
X22395D01*
X22502Y-25152D01*
Y-25046D01*
X22395Y-24939D01*
X22075D01*
X22395D01*
X22502Y-24832D01*
Y-24726D01*
X22395Y-24619D01*
X22075D01*
X22822Y-25259D02*
X23035D01*
X23142Y-25152D01*
Y-24939D01*
X23035Y-24832D01*
X22822D01*
X22715Y-24939D01*
Y-25152D01*
X22822Y-25259D01*
X23781Y-24832D02*
X23461D01*
X23355Y-24939D01*
Y-25152D01*
X23461Y-25259D01*
X23781D01*
X24101Y-24832D02*
X24314D01*
X24421Y-24939D01*
Y-25259D01*
X24101D01*
X23995Y-25152D01*
X24101Y-25046D01*
X24421D01*
X25274Y-25259D02*
Y-24619D01*
X25594D01*
X25701Y-24726D01*
Y-24939D01*
X25594Y-25046D01*
X25274D01*
X25487D02*
X25701Y-25259D01*
X26021Y-24832D02*
X26234D01*
X26341Y-24939D01*
Y-25259D01*
X26021D01*
X25914Y-25152D01*
X26021Y-25046D01*
X26341D01*
X26660Y-24726D02*
Y-24832D01*
X26554D01*
X26767D01*
X26660D01*
Y-25152D01*
X26767Y-25259D01*
X27194D02*
X27407D01*
X27513Y-25152D01*
Y-24939D01*
X27407Y-24832D01*
X27194D01*
X27087Y-24939D01*
Y-25152D01*
X27194Y-25259D01*
X27727D02*
Y-24832D01*
X28047D01*
X28153Y-24939D01*
Y-25259D01*
X29433Y-24619D02*
X29006D01*
Y-24939D01*
X29220D01*
X29006D01*
Y-25259D01*
X29646Y-24619D02*
Y-25259D01*
X30073D01*
X30286D02*
Y-25152D01*
X30393D01*
Y-25259D01*
X30286D01*
X20475Y-23152D02*
X20582Y-23259D01*
X20795D01*
X20902Y-23152D01*
Y-22726D01*
X20795Y-22619D01*
X20582D01*
X20475Y-22726D01*
Y-22832D01*
X20582Y-22939D01*
X20902D01*
X21115Y-22726D02*
X21222Y-22619D01*
X21435D01*
X21542Y-22726D01*
Y-23152D01*
X21435Y-23259D01*
X21222D01*
X21115Y-23152D01*
Y-22726D01*
X22181Y-23259D02*
X21755D01*
X22181Y-22832D01*
Y-22726D01*
X22075Y-22619D01*
X21861D01*
X21755Y-22726D01*
X23461D02*
X23354Y-22619D01*
X23141D01*
X23034Y-22726D01*
Y-23152D01*
X23141Y-23259D01*
X23354D01*
X23461Y-23152D01*
X23674Y-23259D02*
X23887D01*
X23781D01*
Y-22619D01*
X23674D01*
X24207Y-23259D02*
X24421D01*
X24314D01*
Y-22832D01*
X24207D01*
X24741Y-23259D02*
Y-22832D01*
X25060D01*
X25167Y-22939D01*
Y-23259D01*
X25487Y-22726D02*
Y-22832D01*
X25380D01*
X25594D01*
X25487D01*
Y-23152D01*
X25594Y-23259D01*
X26553D02*
Y-22619D01*
X26767Y-22832D01*
X26980Y-22619D01*
Y-23259D01*
X27300D02*
X27513D01*
X27620Y-23152D01*
Y-22939D01*
X27513Y-22832D01*
X27300D01*
X27193Y-22939D01*
Y-23152D01*
X27300Y-23259D01*
X27939D02*
X28153D01*
X28259Y-23152D01*
Y-22939D01*
X28153Y-22832D01*
X27939D01*
X27833Y-22939D01*
Y-23152D01*
X27939Y-23259D01*
X28473Y-22832D02*
Y-23259D01*
Y-23046D01*
X28579Y-22939D01*
X28686Y-22832D01*
X28793D01*
X29432Y-23259D02*
X29219D01*
X29112Y-23152D01*
Y-22939D01*
X29219Y-22832D01*
X29432D01*
X29539Y-22939D01*
Y-23046D01*
X29112D01*
X30392Y-23259D02*
Y-22619D01*
X30712D01*
X30819Y-22726D01*
Y-22939D01*
X30712Y-23046D01*
X30392D01*
X30605D02*
X30819Y-23259D01*
X31458Y-22619D02*
Y-23259D01*
X31138D01*
X31032Y-23152D01*
Y-22939D01*
X31138Y-22832D01*
X31458D01*
X31672Y-23259D02*
Y-23152D01*
X31778D01*
Y-23259D01*
X31672D01*
X23052Y-25819D02*
X22625D01*
Y-26139D01*
X22838Y-26032D01*
X22945D01*
X23052Y-26139D01*
Y-26352D01*
X22945Y-26459D01*
X22732D01*
X22625Y-26352D01*
X23692Y-25819D02*
X23478Y-25926D01*
X23265Y-26139D01*
Y-26352D01*
X23372Y-26459D01*
X23585D01*
X23692Y-26352D01*
Y-26246D01*
X23585Y-26139D01*
X23265D01*
X23905Y-26459D02*
X24118D01*
X24011D01*
Y-25819D01*
X23905Y-25926D01*
X24438Y-26139D02*
X24864D01*
X25078Y-26352D02*
X25184Y-26459D01*
X25398D01*
X25504Y-26352D01*
Y-25926D01*
X25398Y-25819D01*
X25184D01*
X25078Y-25926D01*
Y-26032D01*
X25184Y-26139D01*
X25504D01*
X25718Y-26352D02*
X25824Y-26459D01*
X26037D01*
X26144Y-26352D01*
Y-25926D01*
X26037Y-25819D01*
X25824D01*
X25718Y-25926D01*
Y-26032D01*
X25824Y-26139D01*
X26144D01*
X26357Y-26352D02*
X26464Y-26459D01*
X26677D01*
X26784Y-26352D01*
Y-25926D01*
X26677Y-25819D01*
X26464D01*
X26357Y-25926D01*
Y-26032D01*
X26464Y-26139D01*
X26784D01*
X26997D02*
X27424D01*
X27637Y-26352D02*
X27744Y-26459D01*
X27957D01*
X28063Y-26352D01*
Y-25926D01*
X27957Y-25819D01*
X27744D01*
X27637Y-25926D01*
Y-26032D01*
X27744Y-26139D01*
X28063D01*
X28597Y-26459D02*
Y-25819D01*
X28277Y-26139D01*
X28703D01*
X29343Y-26459D02*
X28917D01*
X29343Y-26032D01*
Y-25926D01*
X29236Y-25819D01*
X29023D01*
X28917Y-25926D01*
X29983Y-26459D02*
X29556D01*
X29983Y-26032D01*
Y-25926D01*
X29876Y-25819D01*
X29663D01*
X29556Y-25926D01*
X23852Y-23776D02*
X23745Y-23669D01*
X23532D01*
X23425Y-23776D01*
Y-23882D01*
X23532Y-23989D01*
X23745D01*
X23852Y-24096D01*
Y-24202D01*
X23745Y-24309D01*
X23532D01*
X23425Y-24202D01*
X24065Y-23882D02*
Y-24202D01*
X24172Y-24309D01*
X24492D01*
Y-23882D01*
X24705Y-24309D02*
X24918D01*
X24811D01*
Y-23882D01*
X24705D01*
X25345Y-23776D02*
Y-23882D01*
X25238D01*
X25451D01*
X25345D01*
Y-24202D01*
X25451Y-24309D01*
X26091D02*
X25878D01*
X25771Y-24202D01*
Y-23989D01*
X25878Y-23882D01*
X26091D01*
X26198Y-23989D01*
Y-24096D01*
X25771D01*
X27051Y-24309D02*
X27264D01*
X27157D01*
Y-23669D01*
X27051Y-23776D01*
X27584Y-24309D02*
X27797D01*
X27691D01*
Y-23669D01*
X27584Y-23776D01*
X28117D02*
X28224Y-23669D01*
X28437D01*
X28544Y-23776D01*
Y-23882D01*
X28437Y-23989D01*
X28544Y-24096D01*
Y-24202D01*
X28437Y-24309D01*
X28224D01*
X28117Y-24202D01*
Y-24096D01*
X28224Y-23989D01*
X28117Y-23882D01*
Y-23776D01*
X28224Y-23989D02*
X28437D01*
D34*
X31300Y13000D02*
Y18650D01*
X29050Y13000D02*
X31300D01*
X29050Y5140D02*
Y13000D01*
Y5140D02*
X31300D01*
Y-500D02*
Y5140D01*
X-500Y-500D02*
X31300D01*
X-500D02*
Y18650D01*
X31300D01*
X20975Y-22209D02*
Y-21543D01*
X21308Y-21209D01*
X21642Y-21543D01*
Y-22209D01*
Y-21709D01*
X20975D01*
X22641Y-21543D02*
X22142D01*
X21975Y-21709D01*
Y-22042D01*
X22142Y-22209D01*
X22641D01*
X23141Y-21376D02*
Y-21543D01*
X22975D01*
X23308D01*
X23141D01*
Y-22042D01*
X23308Y-22209D01*
X23808D02*
X24141D01*
X23974D01*
Y-21543D01*
X23808D01*
X24641D02*
X24974Y-22209D01*
X25307Y-21543D01*
X26140Y-22209D02*
X25807D01*
X25640Y-22042D01*
Y-21709D01*
X25807Y-21543D01*
X26140D01*
X26307Y-21709D01*
Y-21876D01*
X25640D01*
X27640Y-21209D02*
Y-22209D01*
X27973Y-21876D01*
X28306Y-22209D01*
Y-21209D01*
X28806Y-21543D02*
X29139D01*
X29306Y-21709D01*
Y-22209D01*
X28806D01*
X28639Y-22042D01*
X28806Y-21876D01*
X29306D01*
X29639Y-21543D02*
X29972Y-22209D01*
X30306Y-21543D01*
X31139Y-22209D02*
X30805D01*
X30639Y-22042D01*
Y-21709D01*
X30805Y-21543D01*
X31139D01*
X31305Y-21709D01*
Y-21876D01*
X30639D01*
X-3594Y44855D02*
X-3261D01*
X-3427D01*
Y45855D01*
X-3594Y45688D01*
X-2761Y44855D02*
X-2428D01*
X-2594D01*
Y45855D01*
X-2761Y45688D01*
X-1928Y44855D02*
X-1595Y45188D01*
Y45521D01*
X-1928Y45855D01*
X-95D02*
Y44855D01*
Y45355D01*
X571D01*
Y45855D01*
Y44855D01*
X905D02*
Y45521D01*
X1238Y45855D01*
X1571Y45521D01*
Y44855D01*
Y45355D01*
X905D01*
X2571Y45688D02*
X2404Y45855D01*
X2071D01*
X1904Y45688D01*
Y45521D01*
X2071Y45355D01*
X2404D01*
X2571Y45188D01*
Y45022D01*
X2404Y44855D01*
X2071D01*
X1904Y45022D01*
X2904Y45855D02*
Y44855D01*
X3570D01*
X5403Y45855D02*
X5070D01*
X4903Y45688D01*
Y45022D01*
X5070Y44855D01*
X5403D01*
X5570Y45022D01*
Y45688D01*
X5403Y45855D01*
X5903Y44855D02*
Y45855D01*
X6569Y44855D01*
Y45855D01*
X7902Y44855D02*
Y45521D01*
X8235Y45855D01*
X8569Y45521D01*
Y44855D01*
Y45355D01*
X7902D01*
X8902Y45855D02*
Y44855D01*
X9568D01*
X9902Y45855D02*
Y44855D01*
X10568D01*
X11901D02*
Y45855D01*
X12401D01*
X12567Y45688D01*
Y45355D01*
X12401Y45188D01*
X11901D01*
X12901Y44855D02*
Y45521D01*
X13234Y45855D01*
X13567Y45521D01*
Y44855D01*
Y45355D01*
X12901D01*
X13900Y45855D02*
Y44855D01*
X14400D01*
X14567Y45022D01*
Y45688D01*
X14400Y45855D01*
X13900D01*
X15566Y45688D02*
X15400Y45855D01*
X15067D01*
X14900Y45688D01*
Y45521D01*
X15067Y45355D01*
X15400D01*
X15566Y45188D01*
Y45022D01*
X15400Y44855D01*
X15067D01*
X14900Y45022D01*
X16899Y44855D02*
Y45521D01*
X17233Y45855D01*
X17566Y45521D01*
Y44855D01*
Y45355D01*
X16899D01*
X17899Y44855D02*
Y45855D01*
X18565Y44855D01*
Y45855D01*
X18899D02*
Y44855D01*
X19399D01*
X19565Y45022D01*
Y45688D01*
X19399Y45855D01*
X18899D01*
X20898D02*
Y45188D01*
X21231Y44855D01*
X21565Y45188D01*
Y45855D01*
X21898D02*
X22231D01*
X22064D01*
Y44855D01*
X21898D01*
X22231D01*
X22731D02*
Y45521D01*
X23064Y45855D01*
X23397Y45521D01*
Y44855D01*
Y45355D01*
X22731D01*
X24397Y45688D02*
X24230Y45855D01*
X23897D01*
X23730Y45688D01*
Y45521D01*
X23897Y45355D01*
X24230D01*
X24397Y45188D01*
Y45022D01*
X24230Y44855D01*
X23897D01*
X23730Y45022D01*
X-2928Y62855D02*
X-3594D01*
X-2928Y63521D01*
Y63688D01*
X-3094Y63855D01*
X-3427D01*
X-3594Y63688D01*
X-2594Y62855D02*
X-2261Y63188D01*
Y63521D01*
X-2594Y63855D01*
X-762Y62855D02*
Y63855D01*
X-428Y63521D01*
X-95Y63855D01*
Y62855D01*
X238D02*
Y63521D01*
X571Y63855D01*
X905Y63521D01*
Y62855D01*
Y63355D01*
X238D01*
X1238Y63855D02*
X1904D01*
X1571D01*
Y62855D01*
X2904Y63855D02*
X2237D01*
Y62855D01*
X2904D01*
X2237Y63355D02*
X2571D01*
X3237Y62855D02*
Y63855D01*
X3737D01*
X3904Y63688D01*
Y63355D01*
X3737Y63188D01*
X3237D01*
X3570D02*
X3904Y62855D01*
X4237Y63855D02*
X4570D01*
X4403D01*
Y62855D01*
X4237D01*
X4570D01*
X5070D02*
Y63521D01*
X5403Y63855D01*
X5736Y63521D01*
Y62855D01*
Y63355D01*
X5070D01*
X6069Y63855D02*
Y62855D01*
X6736D01*
X8069Y63855D02*
X8402D01*
X8235D01*
Y62855D01*
X8069D01*
X8402D01*
X9568Y63688D02*
X9402Y63855D01*
X9069D01*
X8902Y63688D01*
Y63521D01*
X9069Y63355D01*
X9402D01*
X9568Y63188D01*
Y63022D01*
X9402Y62855D01*
X9069D01*
X8902Y63022D01*
X10901Y62855D02*
Y63022D01*
X11068D01*
Y62855D01*
X10901D01*
X11734D02*
X12068D01*
X11901D01*
Y63855D01*
X11734Y63688D01*
X13234Y62855D02*
X12567D01*
X13234Y63521D01*
Y63688D01*
X13067Y63855D01*
X12734D01*
X12567Y63688D01*
X14234Y63855D02*
X13567D01*
Y63355D01*
X13900Y63521D01*
X14067D01*
X14234Y63355D01*
Y63022D01*
X14067Y62855D01*
X13734D01*
X13567Y63022D01*
X15566Y63855D02*
X16233D01*
X15900D01*
Y62855D01*
X16566Y63855D02*
Y62855D01*
Y63355D01*
X17233D01*
Y63855D01*
Y62855D01*
X17566Y63855D02*
X17899D01*
X17732D01*
Y62855D01*
X17566D01*
X17899D01*
X19065Y63688D02*
X18899Y63855D01*
X18565D01*
X18399Y63688D01*
Y63022D01*
X18565Y62855D01*
X18899D01*
X19065Y63022D01*
X19399Y63855D02*
Y62855D01*
Y63188D01*
X20065Y63855D01*
X19565Y63355D01*
X20065Y62855D01*
X22064Y63855D02*
X21398D01*
Y63355D01*
X21731D01*
X21398D01*
Y62855D01*
X22398D02*
Y63855D01*
X22897D01*
X23064Y63688D01*
Y63355D01*
X22897Y63188D01*
X22398D01*
X22731D02*
X23064Y62855D01*
X23897D02*
Y63855D01*
X23397Y63355D01*
X24064D01*
X-3594Y49022D02*
X-3427Y48855D01*
X-3094D01*
X-2928Y49022D01*
Y49688D01*
X-3094Y49855D01*
X-3427D01*
X-3594Y49688D01*
Y49521D01*
X-3427Y49355D01*
X-2928D01*
X-2594Y48855D02*
X-2261Y49188D01*
Y49521D01*
X-2594Y49855D01*
X-762Y48855D02*
Y49855D01*
X-95Y48855D01*
Y49855D01*
X738D02*
X405D01*
X238Y49688D01*
Y49022D01*
X405Y48855D01*
X738D01*
X905Y49022D01*
Y49688D01*
X738Y49855D01*
X2904Y49688D02*
X2737Y49855D01*
X2404D01*
X2237Y49688D01*
Y49521D01*
X2404Y49355D01*
X2737D01*
X2904Y49188D01*
Y49022D01*
X2737Y48855D01*
X2404D01*
X2237Y49022D01*
X3237Y49855D02*
X3570D01*
X3404D01*
Y48855D01*
X3237D01*
X3570D01*
X4070Y49855D02*
Y48855D01*
X4737D01*
X5070Y49855D02*
Y48855D01*
Y49188D01*
X5736Y49855D01*
X5236Y49355D01*
X5736Y48855D01*
X6736Y49688D02*
X6569Y49855D01*
X6236D01*
X6069Y49688D01*
Y49521D01*
X6236Y49355D01*
X6569D01*
X6736Y49188D01*
Y49022D01*
X6569Y48855D01*
X6236D01*
X6069Y49022D01*
X7736Y49688D02*
X7569Y49855D01*
X7236D01*
X7069Y49688D01*
Y49022D01*
X7236Y48855D01*
X7569D01*
X7736Y49022D01*
X8069Y48855D02*
Y49855D01*
X8569D01*
X8735Y49688D01*
Y49355D01*
X8569Y49188D01*
X8069D01*
X8402D02*
X8735Y48855D01*
X9735Y49855D02*
X9069D01*
Y48855D01*
X9735D01*
X9069Y49355D02*
X9402D01*
X10735Y49855D02*
X10068D01*
Y48855D01*
X10735D01*
X10068Y49355D02*
X10401D01*
X11068Y48855D02*
Y49855D01*
X11734Y48855D01*
Y49855D01*
X13567D02*
X13234D01*
X13067Y49688D01*
Y49022D01*
X13234Y48855D01*
X13567D01*
X13734Y49022D01*
Y49688D01*
X13567Y49855D01*
X14067Y48855D02*
Y49855D01*
X14733Y48855D01*
Y49855D01*
X16066Y48855D02*
Y49855D01*
X16566D01*
X16733Y49688D01*
Y49355D01*
X16566Y49188D01*
X16066D01*
X17066Y48855D02*
Y49521D01*
X17399Y49855D01*
X17732Y49521D01*
Y48855D01*
Y49355D01*
X17066D01*
X18066Y49855D02*
Y48855D01*
X18565D01*
X18732Y49022D01*
Y49688D01*
X18565Y49855D01*
X18066D01*
X19732Y49688D02*
X19565Y49855D01*
X19232D01*
X19065Y49688D01*
Y49521D01*
X19232Y49355D01*
X19565D01*
X19732Y49188D01*
Y49022D01*
X19565Y48855D01*
X19232D01*
X19065Y49022D01*
X-3594Y51688D02*
X-3427Y51855D01*
X-3094D01*
X-2928Y51688D01*
Y51521D01*
X-3094Y51355D01*
X-2928Y51188D01*
Y51022D01*
X-3094Y50855D01*
X-3427D01*
X-3594Y51022D01*
Y51188D01*
X-3427Y51355D01*
X-3594Y51521D01*
Y51688D01*
X-3427Y51355D02*
X-3094D01*
X-2594Y50855D02*
X-2261Y51188D01*
Y51521D01*
X-2594Y51855D01*
X-762Y50855D02*
Y51521D01*
X-428Y51855D01*
X-95Y51521D01*
Y50855D01*
Y51355D01*
X-762D01*
X238Y51855D02*
Y50855D01*
X738D01*
X905Y51022D01*
Y51688D01*
X738Y51855D01*
X238D01*
X1238D02*
Y50855D01*
X1738D01*
X1904Y51022D01*
Y51688D01*
X1738Y51855D01*
X1238D01*
X3904Y51688D02*
X3737Y51855D01*
X3404D01*
X3237Y51688D01*
Y51521D01*
X3404Y51355D01*
X3737D01*
X3904Y51188D01*
Y51022D01*
X3737Y50855D01*
X3404D01*
X3237Y51022D01*
X4237Y51855D02*
X4570D01*
X4403D01*
Y50855D01*
X4237D01*
X4570D01*
X5070Y51855D02*
Y50855D01*
X5736D01*
X6069Y51855D02*
Y50855D01*
Y51188D01*
X6736Y51855D01*
X6236Y51355D01*
X6736Y50855D01*
X7736Y51688D02*
X7569Y51855D01*
X7236D01*
X7069Y51688D01*
Y51521D01*
X7236Y51355D01*
X7569D01*
X7736Y51188D01*
Y51022D01*
X7569Y50855D01*
X7236D01*
X7069Y51022D01*
X8735Y51688D02*
X8569Y51855D01*
X8235D01*
X8069Y51688D01*
Y51022D01*
X8235Y50855D01*
X8569D01*
X8735Y51022D01*
X9069Y50855D02*
Y51855D01*
X9568D01*
X9735Y51688D01*
Y51355D01*
X9568Y51188D01*
X9069D01*
X9402D02*
X9735Y50855D01*
X10735Y51855D02*
X10068D01*
Y50855D01*
X10735D01*
X10068Y51355D02*
X10401D01*
X11734Y51855D02*
X11068D01*
Y50855D01*
X11734D01*
X11068Y51355D02*
X11401D01*
X12068Y50855D02*
Y51855D01*
X12734Y50855D01*
Y51855D01*
X-3594Y53855D02*
X-2928D01*
Y53688D01*
X-3594Y53022D01*
Y52855D01*
X-2594D02*
X-2261Y53188D01*
Y53521D01*
X-2594Y53855D01*
X-762Y52855D02*
Y53855D01*
X-262D01*
X-95Y53688D01*
Y53355D01*
X-262Y53188D01*
X-762D01*
X-428D02*
X-95Y52855D01*
X738Y53855D02*
X405D01*
X238Y53688D01*
Y53022D01*
X405Y52855D01*
X738D01*
X905Y53022D01*
Y53688D01*
X738Y53855D01*
X1238D02*
Y53022D01*
X1404Y52855D01*
X1738D01*
X1904Y53022D01*
Y53855D01*
X2237D02*
X2904D01*
X2571D01*
Y52855D01*
X3904Y53855D02*
X3237D01*
Y52855D01*
X3904D01*
X3237Y53355D02*
X3570D01*
X5236Y53855D02*
X5903D01*
X5570D01*
Y52855D01*
X6736Y53855D02*
X6403D01*
X6236Y53688D01*
Y53022D01*
X6403Y52855D01*
X6736D01*
X6903Y53022D01*
Y53688D01*
X6736Y53855D01*
X8235D02*
Y52855D01*
X8735D01*
X8902Y53022D01*
Y53188D01*
X8735Y53355D01*
X8235D01*
X8735D01*
X8902Y53521D01*
Y53688D01*
X8735Y53855D01*
X8235D01*
X9735D02*
X9402D01*
X9235Y53688D01*
Y53022D01*
X9402Y52855D01*
X9735D01*
X9902Y53022D01*
Y53688D01*
X9735Y53855D01*
X10235Y52855D02*
Y53521D01*
X10568Y53855D01*
X10901Y53521D01*
Y52855D01*
Y53355D01*
X10235D01*
X11235Y52855D02*
Y53855D01*
X11734D01*
X11901Y53688D01*
Y53355D01*
X11734Y53188D01*
X11235D01*
X11568D02*
X11901Y52855D01*
X12234Y53855D02*
Y52855D01*
X12734D01*
X12901Y53022D01*
Y53688D01*
X12734Y53855D01*
X12234D01*
X14733D02*
X14400D01*
X14234Y53688D01*
Y53022D01*
X14400Y52855D01*
X14733D01*
X14900Y53022D01*
Y53688D01*
X14733Y53855D01*
X15233D02*
Y53022D01*
X15400Y52855D01*
X15733D01*
X15900Y53022D01*
Y53855D01*
X16233D02*
X16899D01*
X16566D01*
Y52855D01*
X17233Y53855D02*
Y52855D01*
X17899D01*
X18232Y53855D02*
X18565D01*
X18399D01*
Y52855D01*
X18232D01*
X18565D01*
X19065D02*
Y53855D01*
X19732Y52855D01*
Y53855D01*
X20731D02*
X20065D01*
Y52855D01*
X20731D01*
X20065Y53355D02*
X20398D01*
X-2928Y55855D02*
X-3261Y55688D01*
X-3594Y55355D01*
Y55022D01*
X-3427Y54855D01*
X-3094D01*
X-2928Y55022D01*
Y55188D01*
X-3094Y55355D01*
X-3594D01*
X-2594Y54855D02*
X-2261Y55188D01*
Y55521D01*
X-2594Y55855D01*
X-762Y54855D02*
Y55855D01*
X-262D01*
X-95Y55688D01*
Y55355D01*
X-262Y55188D01*
X-762D01*
X-428D02*
X-95Y54855D01*
X905Y55855D02*
X238D01*
Y54855D01*
X905D01*
X238Y55355D02*
X571D01*
X1904Y55688D02*
X1738Y55855D01*
X1404D01*
X1238Y55688D01*
Y55022D01*
X1404Y54855D01*
X1738D01*
X1904Y55022D01*
X2237Y55855D02*
X2904D01*
X2571D01*
Y54855D01*
X3237D02*
Y55521D01*
X3570Y55855D01*
X3904Y55521D01*
Y54855D01*
Y55355D01*
X3237D01*
X4237Y54855D02*
Y55855D01*
X4903Y54855D01*
Y55855D01*
X5903Y55688D02*
X5736Y55855D01*
X5403D01*
X5236Y55688D01*
Y55022D01*
X5403Y54855D01*
X5736D01*
X5903Y55022D01*
Y55355D01*
X5570D01*
X6236Y55855D02*
Y55022D01*
X6403Y54855D01*
X6736D01*
X6903Y55022D01*
Y55855D01*
X7236D02*
Y54855D01*
X7902D01*
X8235D02*
Y55521D01*
X8569Y55855D01*
X8902Y55521D01*
Y54855D01*
Y55355D01*
X8235D01*
X9235Y54855D02*
Y55855D01*
X9735D01*
X9902Y55688D01*
Y55355D01*
X9735Y55188D01*
X9235D01*
X9568D02*
X9902Y54855D01*
X11235Y55855D02*
Y54855D01*
X11734D01*
X11901Y55022D01*
Y55188D01*
X11734Y55355D01*
X11235D01*
X11734D01*
X11901Y55521D01*
Y55688D01*
X11734Y55855D01*
X11235D01*
X12734D02*
X12401D01*
X12234Y55688D01*
Y55022D01*
X12401Y54855D01*
X12734D01*
X12901Y55022D01*
Y55688D01*
X12734Y55855D01*
X13234Y54855D02*
Y55521D01*
X13567Y55855D01*
X13900Y55521D01*
Y54855D01*
Y55355D01*
X13234D01*
X14234Y54855D02*
Y55855D01*
X14733D01*
X14900Y55688D01*
Y55355D01*
X14733Y55188D01*
X14234D01*
X14567D02*
X14900Y54855D01*
X15233Y55855D02*
Y54855D01*
X15733D01*
X15900Y55022D01*
Y55688D01*
X15733Y55855D01*
X15233D01*
X17233D02*
Y54855D01*
X17566Y55188D01*
X17899Y54855D01*
Y55855D01*
X18232D02*
X18565D01*
X18399D01*
Y54855D01*
X18232D01*
X18565D01*
X19065Y55855D02*
X19732D01*
X19399D01*
Y54855D01*
X20065Y55855D02*
Y54855D01*
Y55355D01*
X20731D01*
Y55855D01*
Y54855D01*
X22064D02*
Y55855D01*
X22731Y54855D01*
Y55855D01*
X23564D02*
X23231D01*
X23064Y55688D01*
Y55022D01*
X23231Y54855D01*
X23564D01*
X23730Y55022D01*
Y55688D01*
X23564Y55855D01*
X25730Y55688D02*
X25563Y55855D01*
X25230D01*
X25063Y55688D01*
Y55022D01*
X25230Y54855D01*
X25563D01*
X25730Y55022D01*
X26063Y55855D02*
Y55022D01*
X26230Y54855D01*
X26563D01*
X26730Y55022D01*
Y55855D01*
X27063D02*
X27729D01*
X27396D01*
Y54855D01*
X28562Y55855D02*
X28229D01*
X28062Y55688D01*
Y55022D01*
X28229Y54855D01*
X28562D01*
X28729Y55022D01*
Y55688D01*
X28562Y55855D01*
X29062D02*
Y55022D01*
X29229Y54855D01*
X29562D01*
X29729Y55022D01*
Y55855D01*
X30062D02*
X30728D01*
X30395D01*
Y54855D01*
X31728Y55688D02*
X31561Y55855D01*
X31228D01*
X31061Y55688D01*
Y55521D01*
X31228Y55355D01*
X31561D01*
X31728Y55188D01*
Y55022D01*
X31561Y54855D01*
X31228D01*
X31061Y55022D01*
X-2928Y57855D02*
X-3594D01*
Y57355D01*
X-3261Y57521D01*
X-3094D01*
X-2928Y57355D01*
Y57022D01*
X-3094Y56855D01*
X-3427D01*
X-3594Y57022D01*
X-2594Y56855D02*
X-2261Y57188D01*
Y57521D01*
X-2594Y57855D01*
X-95D02*
X-762D01*
Y57355D01*
X-428D01*
X-762D01*
Y56855D01*
X238Y57855D02*
X571D01*
X405D01*
Y56855D01*
X238D01*
X571D01*
X1071D02*
Y57855D01*
X1738Y56855D01*
Y57855D01*
X2071D02*
X2404D01*
X2237D01*
Y56855D01*
X2071D01*
X2404D01*
X3570Y57688D02*
X3404Y57855D01*
X3070D01*
X2904Y57688D01*
Y57521D01*
X3070Y57355D01*
X3404D01*
X3570Y57188D01*
Y57022D01*
X3404Y56855D01*
X3070D01*
X2904Y57022D01*
X3904Y57855D02*
Y56855D01*
Y57355D01*
X4570D01*
Y57855D01*
Y56855D01*
X5903Y57855D02*
X6236D01*
X6069D01*
Y56855D01*
X5903D01*
X6236D01*
X7402Y57688D02*
X7236Y57855D01*
X6903D01*
X6736Y57688D01*
Y57521D01*
X6903Y57355D01*
X7236D01*
X7402Y57188D01*
Y57022D01*
X7236Y56855D01*
X6903D01*
X6736Y57022D01*
X9402Y57688D02*
X9235Y57855D01*
X8902D01*
X8735Y57688D01*
Y57521D01*
X8902Y57355D01*
X9235D01*
X9402Y57188D01*
Y57022D01*
X9235Y56855D01*
X8902D01*
X8735Y57022D01*
X9735Y56855D02*
Y57855D01*
X10068Y57521D01*
X10401Y57855D01*
Y56855D01*
X11235Y57855D02*
X10901D01*
X10735Y57688D01*
Y57022D01*
X10901Y56855D01*
X11235D01*
X11401Y57022D01*
Y57688D01*
X11235Y57855D01*
X11734D02*
Y56855D01*
X12234D01*
X12401Y57022D01*
Y57188D01*
X12234Y57355D01*
X11734D01*
X12234D01*
X12401Y57521D01*
Y57688D01*
X12234Y57855D01*
X11734D01*
X13400Y57688D02*
X13234Y57855D01*
X12901D01*
X12734Y57688D01*
Y57022D01*
X12901Y56855D01*
X13234D01*
X13400Y57022D01*
X-3094Y58855D02*
Y59855D01*
X-3594Y59355D01*
X-2928D01*
X-2594Y58855D02*
X-2261Y59188D01*
Y59521D01*
X-2594Y59855D01*
X-95Y59688D02*
X-262Y59855D01*
X-595D01*
X-762Y59688D01*
Y59022D01*
X-595Y58855D01*
X-262D01*
X-95Y59022D01*
X738Y59855D02*
X405D01*
X238Y59688D01*
Y59022D01*
X405Y58855D01*
X738D01*
X905Y59022D01*
Y59688D01*
X738Y59855D01*
X1238Y58855D02*
Y59855D01*
X1738D01*
X1904Y59688D01*
Y59355D01*
X1738Y59188D01*
X1238D01*
X2237Y58855D02*
Y59855D01*
X2737D01*
X2904Y59688D01*
Y59355D01*
X2737Y59188D01*
X2237D01*
X3904Y59855D02*
X3237D01*
Y58855D01*
X3904D01*
X3237Y59355D02*
X3570D01*
X4237Y58855D02*
Y59855D01*
X4737D01*
X4903Y59688D01*
Y59355D01*
X4737Y59188D01*
X4237D01*
X4570D02*
X4903Y58855D01*
X6236Y59855D02*
Y58855D01*
X6569Y59188D01*
X6903Y58855D01*
Y59855D01*
X7902D02*
X7236D01*
Y58855D01*
X7902D01*
X7236Y59355D02*
X7569D01*
X8235Y59855D02*
X8569D01*
X8402D01*
Y58855D01*
X8235D01*
X8569D01*
X9735Y59688D02*
X9568Y59855D01*
X9235D01*
X9069Y59688D01*
Y59022D01*
X9235Y58855D01*
X9568D01*
X9735Y59022D01*
Y59355D01*
X9402D01*
X10068Y59855D02*
Y58855D01*
Y59355D01*
X10735D01*
Y59855D01*
Y58855D01*
X11068Y59855D02*
X11734D01*
X11401D01*
Y58855D01*
X13067Y59855D02*
X13400D01*
X13234D01*
Y58855D01*
X13067D01*
X13400D01*
X14567Y59688D02*
X14400Y59855D01*
X14067D01*
X13900Y59688D01*
Y59521D01*
X14067Y59355D01*
X14400D01*
X14567Y59188D01*
Y59022D01*
X14400Y58855D01*
X14067D01*
X13900Y59022D01*
X15900Y58855D02*
X16233D01*
X16066D01*
Y59855D01*
X15900Y59688D01*
X18232Y59855D02*
X17899D01*
X17732Y59688D01*
Y59022D01*
X17899Y58855D01*
X18232D01*
X18399Y59022D01*
Y59688D01*
X18232Y59855D01*
X18732D02*
Y59022D01*
X18899Y58855D01*
X19232D01*
X19399Y59022D01*
Y59855D01*
X19732Y58855D02*
Y59855D01*
X20398Y58855D01*
Y59855D01*
X21398Y59688D02*
X21231Y59855D01*
X20898D01*
X20731Y59688D01*
Y59022D01*
X20898Y58855D01*
X21231D01*
X21398Y59022D01*
X22398Y59855D02*
X21731D01*
Y58855D01*
X22398D01*
X21731Y59355D02*
X22064D01*
X-3594Y61688D02*
X-3427Y61855D01*
X-3094D01*
X-2928Y61688D01*
Y61521D01*
X-3094Y61355D01*
X-3261D01*
X-3094D01*
X-2928Y61188D01*
Y61022D01*
X-3094Y60855D01*
X-3427D01*
X-3594Y61022D01*
X-2594Y60855D02*
X-2261Y61188D01*
Y61521D01*
X-2594Y61855D01*
X-95Y60855D02*
X-762D01*
X-95Y61521D01*
Y61688D01*
X-262Y61855D01*
X-595D01*
X-762Y61688D01*
X1238Y61855D02*
Y60855D01*
X1904D01*
X2237D02*
Y61521D01*
X2571Y61855D01*
X2904Y61521D01*
Y60855D01*
Y61355D01*
X2237D01*
X3237Y61855D02*
Y61688D01*
X3570Y61355D01*
X3904Y61688D01*
Y61855D01*
X3570Y61355D02*
Y60855D01*
X4903Y61855D02*
X4237D01*
Y60855D01*
X4903D01*
X4237Y61355D02*
X4570D01*
X5236Y60855D02*
Y61855D01*
X5736D01*
X5903Y61688D01*
Y61355D01*
X5736Y61188D01*
X5236D01*
X5570D02*
X5903Y60855D01*
X7236Y61855D02*
Y60855D01*
X7736D01*
X7902Y61022D01*
Y61188D01*
X7736Y61355D01*
X7236D01*
X7736D01*
X7902Y61521D01*
Y61688D01*
X7736Y61855D01*
X7236D01*
X8735D02*
X8402D01*
X8235Y61688D01*
Y61022D01*
X8402Y60855D01*
X8735D01*
X8902Y61022D01*
Y61688D01*
X8735Y61855D01*
X9235Y60855D02*
Y61521D01*
X9568Y61855D01*
X9902Y61521D01*
Y60855D01*
Y61355D01*
X9235D01*
X10235Y60855D02*
Y61855D01*
X10735D01*
X10901Y61688D01*
Y61355D01*
X10735Y61188D01*
X10235D01*
X10568D02*
X10901Y60855D01*
X11235Y61855D02*
Y60855D01*
X11734D01*
X11901Y61022D01*
Y61688D01*
X11734Y61855D01*
X11235D01*
X-3594Y46855D02*
X-3261D01*
X-3427D01*
Y47855D01*
X-3594Y47688D01*
X-2761D02*
X-2594Y47855D01*
X-2261D01*
X-2095Y47688D01*
Y47022D01*
X-2261Y46855D01*
X-2594D01*
X-2761Y47022D01*
Y47688D01*
X-1761Y46855D02*
X-1428Y47188D01*
Y47521D01*
X-1761Y47855D01*
X738Y47688D02*
X571Y47855D01*
X238D01*
X71Y47688D01*
Y47022D01*
X238Y46855D01*
X571D01*
X738Y47022D01*
Y47355D01*
X405D01*
X1071Y46855D02*
Y47855D01*
X1571D01*
X1738Y47688D01*
Y47355D01*
X1571Y47188D01*
X1071D01*
X1404D02*
X1738Y46855D01*
X2737Y47855D02*
X2071D01*
Y46855D01*
X2737D01*
X2071Y47355D02*
X2404D01*
X3737Y47855D02*
X3070D01*
Y46855D01*
X3737D01*
X3070Y47355D02*
X3404D01*
X4070Y46855D02*
Y47855D01*
X4737Y46855D01*
Y47855D01*
X6736Y47688D02*
X6569Y47855D01*
X6236D01*
X6069Y47688D01*
Y47521D01*
X6236Y47355D01*
X6569D01*
X6736Y47188D01*
Y47022D01*
X6569Y46855D01*
X6236D01*
X6069Y47022D01*
X7569Y47855D02*
X7236D01*
X7069Y47688D01*
Y47022D01*
X7236Y46855D01*
X7569D01*
X7736Y47022D01*
Y47688D01*
X7569Y47855D01*
X8069D02*
Y46855D01*
X8735D01*
X9069Y47855D02*
Y46855D01*
X9568D01*
X9735Y47022D01*
Y47688D01*
X9568Y47855D01*
X9069D01*
X10735D02*
X10068D01*
Y46855D01*
X10735D01*
X10068Y47355D02*
X10401D01*
X11068Y46855D02*
Y47855D01*
X11568D01*
X11734Y47688D01*
Y47355D01*
X11568Y47188D01*
X11068D01*
X11401D02*
X11734Y46855D01*
X13067D02*
Y47855D01*
X13400Y47521D01*
X13734Y47855D01*
Y46855D01*
X14067D02*
Y47521D01*
X14400Y47855D01*
X14733Y47521D01*
Y46855D01*
Y47355D01*
X14067D01*
X15733Y47688D02*
X15566Y47855D01*
X15233D01*
X15067Y47688D01*
Y47521D01*
X15233Y47355D01*
X15566D01*
X15733Y47188D01*
Y47022D01*
X15566Y46855D01*
X15233D01*
X15067Y47022D01*
X16066Y47855D02*
Y46855D01*
Y47188D01*
X16733Y47855D01*
X16233Y47355D01*
X16733Y46855D01*
X18066Y47855D02*
Y46855D01*
X18565D01*
X18732Y47022D01*
Y47188D01*
X18565Y47355D01*
X18066D01*
X18565D01*
X18732Y47521D01*
Y47688D01*
X18565Y47855D01*
X18066D01*
X19565D02*
X19232D01*
X19065Y47688D01*
Y47022D01*
X19232Y46855D01*
X19565D01*
X19732Y47022D01*
Y47688D01*
X19565Y47855D01*
X20065D02*
X20731D01*
X20398D01*
Y46855D01*
X21065Y47855D02*
Y46855D01*
Y47355D01*
X21731D01*
Y47855D01*
Y46855D01*
X23730Y47688D02*
X23564Y47855D01*
X23231D01*
X23064Y47688D01*
Y47521D01*
X23231Y47355D01*
X23564D01*
X23730Y47188D01*
Y47022D01*
X23564Y46855D01*
X23231D01*
X23064Y47022D01*
X24064Y47855D02*
X24397D01*
X24230D01*
Y46855D01*
X24064D01*
X24397D01*
X24897Y47855D02*
Y46855D01*
X25397D01*
X25563Y47022D01*
Y47688D01*
X25397Y47855D01*
X24897D01*
X26563D02*
X25896D01*
Y46855D01*
X26563D01*
X25896Y47355D02*
X26230D01*
X27563Y47688D02*
X27396Y47855D01*
X27063D01*
X26896Y47688D01*
Y47521D01*
X27063Y47355D01*
X27396D01*
X27563Y47188D01*
Y47022D01*
X27396Y46855D01*
X27063D01*
X26896Y47022D01*
X-3594Y66855D02*
Y67855D01*
X-2928Y66855D01*
Y67855D01*
X-2095D02*
X-2428D01*
X-2594Y67688D01*
Y67022D01*
X-2428Y66855D01*
X-2095D01*
X-1928Y67022D01*
Y67688D01*
X-2095Y67855D01*
X-1595D02*
X-928D01*
X-1261D01*
Y66855D01*
X71Y67855D02*
X-595D01*
Y66855D01*
X71D01*
X-595Y67355D02*
X-262D01*
X1071Y67688D02*
X905Y67855D01*
X571D01*
X405Y67688D01*
Y67521D01*
X571Y67355D01*
X905D01*
X1071Y67188D01*
Y67022D01*
X905Y66855D01*
X571D01*
X405Y67022D01*
X-3594Y64855D02*
X-3261D01*
X-3427D01*
Y65855D01*
X-3594Y65688D01*
X-2761Y64855D02*
X-2428Y65188D01*
Y65521D01*
X-2761Y65855D01*
X-928D02*
Y64855D01*
X-428D01*
X-262Y65022D01*
Y65188D01*
X-428Y65355D01*
X-928D01*
X-428D01*
X-262Y65521D01*
Y65688D01*
X-428Y65855D01*
X-928D01*
X571D02*
X238D01*
X71Y65688D01*
Y65022D01*
X238Y64855D01*
X571D01*
X738Y65022D01*
Y65688D01*
X571Y65855D01*
X1071Y64855D02*
Y65521D01*
X1404Y65855D01*
X1738Y65521D01*
Y64855D01*
Y65355D01*
X1071D01*
X2071Y64855D02*
Y65855D01*
X2571D01*
X2737Y65688D01*
Y65355D01*
X2571Y65188D01*
X2071D01*
X2404D02*
X2737Y64855D01*
X3070Y65855D02*
Y64855D01*
X3570D01*
X3737Y65022D01*
Y65688D01*
X3570Y65855D01*
X3070D01*
X5070Y64855D02*
Y65855D01*
X5403Y65521D01*
X5736Y65855D01*
Y64855D01*
X6736Y65855D02*
X6069D01*
Y64855D01*
X6736D01*
X6069Y65355D02*
X6403D01*
X7069Y64855D02*
Y65521D01*
X7402Y65855D01*
X7736Y65521D01*
Y64855D01*
Y65355D01*
X7069D01*
X8735Y65688D02*
X8569Y65855D01*
X8235D01*
X8069Y65688D01*
Y65521D01*
X8235Y65355D01*
X8569D01*
X8735Y65188D01*
Y65022D01*
X8569Y64855D01*
X8235D01*
X8069Y65022D01*
X9069Y65855D02*
Y65022D01*
X9235Y64855D01*
X9568D01*
X9735Y65022D01*
Y65855D01*
X10068Y64855D02*
Y65855D01*
X10568D01*
X10735Y65688D01*
Y65355D01*
X10568Y65188D01*
X10068D01*
X10401D02*
X10735Y64855D01*
X11734Y65855D02*
X11068D01*
Y64855D01*
X11734D01*
X11068Y65355D02*
X11401D01*
X12734Y65688D02*
X12567Y65855D01*
X12234D01*
X12068Y65688D01*
Y65521D01*
X12234Y65355D01*
X12567D01*
X12734Y65188D01*
Y65022D01*
X12567Y64855D01*
X12234D01*
X12068Y65022D01*
X14067Y65855D02*
X14733D01*
Y65688D01*
X14067Y65022D01*
Y64855D01*
X15067D02*
Y65022D01*
X15233D01*
Y64855D01*
X15067D01*
X15900Y65688D02*
X16066Y65855D01*
X16400D01*
X16566Y65688D01*
Y65022D01*
X16400Y64855D01*
X16066D01*
X15900Y65022D01*
Y65688D01*
X16899D02*
X17066Y65855D01*
X17399D01*
X17566Y65688D01*
Y65022D01*
X17399Y64855D01*
X17066D01*
X16899Y65022D01*
Y65688D01*
X17899D02*
X18066Y65855D01*
X18399D01*
X18565Y65688D01*
Y65022D01*
X18399Y64855D01*
X18066D01*
X17899Y65022D01*
Y65688D01*
X19898Y65855D02*
X20565Y64855D01*
Y65855D02*
X19898Y64855D01*
X23564Y65855D02*
X22897D01*
Y65355D01*
X23231Y65521D01*
X23397D01*
X23564Y65355D01*
Y65022D01*
X23397Y64855D01*
X23064D01*
X22897Y65022D01*
X23897Y64855D02*
Y65022D01*
X24064D01*
Y64855D01*
X23897D01*
X24730Y65688D02*
X24897Y65855D01*
X25230D01*
X25397Y65688D01*
Y65022D01*
X25230Y64855D01*
X24897D01*
X24730Y65022D01*
Y65688D01*
X25730D02*
X25896Y65855D01*
X26230D01*
X26396Y65688D01*
Y65022D01*
X26230Y64855D01*
X25896D01*
X25730Y65022D01*
Y65688D01*
X26730D02*
X26896Y65855D01*
X27229D01*
X27396Y65688D01*
Y65022D01*
X27229Y64855D01*
X26896D01*
X26730Y65022D01*
Y65688D01*
X28729Y65855D02*
X29062D01*
X28895D01*
Y64855D01*
X28729D01*
X29062D01*
X29562D02*
Y65855D01*
X30228Y64855D01*
Y65855D01*
D36*
X3690Y-24390D02*
Y-25350D01*
X3370Y-24390D02*
X4010D01*
X4673Y-24710D02*
Y-25350D01*
Y-24847D02*
X4581Y-24756D01*
X4490Y-24710D01*
X4353D01*
X4261Y-24756D01*
X4170Y-24847D01*
X4124Y-24984D01*
Y-25076D01*
X4170Y-25213D01*
X4261Y-25304D01*
X4353Y-25350D01*
X4490D01*
X4581Y-25304D01*
X4673Y-25213D01*
X5477Y-24710D02*
Y-25441D01*
X5431Y-25579D01*
X5386Y-25624D01*
X5294Y-25670D01*
X5157D01*
X5066Y-25624D01*
X5477Y-24847D02*
X5386Y-24756D01*
X5294Y-24710D01*
X5157D01*
X5066Y-24756D01*
X4974Y-24847D01*
X4929Y-24984D01*
Y-25076D01*
X4974Y-25213D01*
X5066Y-25304D01*
X5157Y-25350D01*
X5294D01*
X5386Y-25304D01*
X5477Y-25213D01*
X6807Y-24390D02*
Y-25350D01*
X6487Y-24390D02*
X7127D01*
X7241Y-24984D02*
X7790D01*
Y-24893D01*
X7744Y-24802D01*
X7698Y-24756D01*
X7607Y-24710D01*
X7470D01*
X7378Y-24756D01*
X7287Y-24847D01*
X7241Y-24984D01*
Y-25076D01*
X7287Y-25213D01*
X7378Y-25304D01*
X7470Y-25350D01*
X7607D01*
X7698Y-25304D01*
X7790Y-25213D01*
X8498Y-24847D02*
X8452Y-24756D01*
X8315Y-24710D01*
X8178D01*
X8041Y-24756D01*
X7995Y-24847D01*
X8041Y-24939D01*
X8132Y-24984D01*
X8361Y-25030D01*
X8452Y-25076D01*
X8498Y-25167D01*
Y-25213D01*
X8452Y-25304D01*
X8315Y-25350D01*
X8178D01*
X8041Y-25304D01*
X7995Y-25213D01*
X8836Y-24390D02*
Y-25167D01*
X8882Y-25304D01*
X8973Y-25350D01*
X9065D01*
X8699Y-24710D02*
X9019D01*
X9956Y-24390D02*
Y-25350D01*
Y-24390D02*
X10550D01*
X9956Y-24847D02*
X10322D01*
X10751Y-24390D02*
X10797Y-24436D01*
X10843Y-24390D01*
X10797Y-24344D01*
X10751Y-24390D01*
X10797Y-24710D02*
Y-25350D01*
X11012Y-24710D02*
X11515Y-25350D01*
Y-24710D02*
X11012Y-25350D01*
X11853Y-24390D02*
Y-25167D01*
X11898Y-25304D01*
X11990Y-25350D01*
X12081D01*
X11716Y-24710D02*
X12036D01*
X12218D02*
Y-25167D01*
X12264Y-25304D01*
X12356Y-25350D01*
X12493D01*
X12584Y-25304D01*
X12721Y-25167D01*
Y-24710D02*
Y-25350D01*
X12973Y-24710D02*
Y-25350D01*
Y-24984D02*
X13018Y-24847D01*
X13110Y-24756D01*
X13201Y-24710D01*
X13338D01*
X13425Y-24984D02*
X13973D01*
Y-24893D01*
X13928Y-24802D01*
X13882Y-24756D01*
X13791Y-24710D01*
X13654D01*
X13562Y-24756D01*
X13471Y-24847D01*
X13425Y-24984D01*
Y-25076D01*
X13471Y-25213D01*
X13562Y-25304D01*
X13654Y-25350D01*
X13791D01*
X13882Y-25304D01*
X13973Y-25213D01*
X590Y-21862D02*
X225Y-20902D01*
X-141Y-21862D01*
X-4Y-21542D02*
X453D01*
X1363Y-21359D02*
X1271Y-21268D01*
X1180Y-21222D01*
X1043D01*
X952Y-21268D01*
X860Y-21359D01*
X814Y-21496D01*
Y-21588D01*
X860Y-21725D01*
X952Y-21816D01*
X1043Y-21862D01*
X1180D01*
X1271Y-21816D01*
X1363Y-21725D01*
X1706Y-20902D02*
Y-21679D01*
X1751Y-21816D01*
X1843Y-21862D01*
X1934D01*
X1569Y-21222D02*
X1888D01*
X2163Y-20902D02*
X2208Y-20948D01*
X2254Y-20902D01*
X2208Y-20856D01*
X2163Y-20902D01*
X2208Y-21222D02*
Y-21862D01*
X2423Y-21222D02*
X2697Y-21862D01*
X2972Y-21222D02*
X2697Y-21862D01*
X3127Y-21496D02*
X3676D01*
Y-21405D01*
X3630Y-21313D01*
X3584Y-21268D01*
X3493Y-21222D01*
X3356D01*
X3264Y-21268D01*
X3173Y-21359D01*
X3127Y-21496D01*
Y-21588D01*
X3173Y-21725D01*
X3264Y-21816D01*
X3356Y-21862D01*
X3493D01*
X3584Y-21816D01*
X3676Y-21725D01*
X4635Y-20902D02*
X4864Y-21862D01*
X5092Y-20902D02*
X4864Y-21862D01*
X5092Y-20902D02*
X5321Y-21862D01*
X5549Y-20902D02*
X5321Y-21862D01*
X6290Y-21222D02*
Y-21862D01*
Y-21359D02*
X6198Y-21268D01*
X6107Y-21222D01*
X5970D01*
X5878Y-21268D01*
X5787Y-21359D01*
X5741Y-21496D01*
Y-21588D01*
X5787Y-21725D01*
X5878Y-21816D01*
X5970Y-21862D01*
X6107D01*
X6198Y-21816D01*
X6290Y-21725D01*
X6546Y-21222D02*
X6820Y-21862D01*
X7094Y-21222D02*
X6820Y-21862D01*
X7250Y-21496D02*
X7798D01*
Y-21405D01*
X7752Y-21313D01*
X7707Y-21268D01*
X7615Y-21222D01*
X7478D01*
X7387Y-21268D01*
X7295Y-21359D01*
X7250Y-21496D01*
Y-21588D01*
X7295Y-21725D01*
X7387Y-21816D01*
X7478Y-21862D01*
X7615D01*
X7707Y-21816D01*
X7798Y-21725D01*
X17837Y-28754D02*
X17760Y-28779D01*
X17710Y-28855D01*
X17684Y-28982D01*
Y-29058D01*
X17710Y-29185D01*
X17760Y-29261D01*
X17837Y-29287D01*
X17887D01*
X17964Y-29261D01*
X18014Y-29185D01*
X18040Y-29058D01*
Y-28982D01*
X18014Y-28855D01*
X17964Y-28779D01*
X17887Y-28754D01*
X17837D01*
X18311D02*
X18235Y-28779D01*
X18184Y-28855D01*
X18159Y-28982D01*
Y-29058D01*
X18184Y-29185D01*
X18235Y-29261D01*
X18311Y-29287D01*
X18362D01*
X18438Y-29261D01*
X18489Y-29185D01*
X18514Y-29058D01*
Y-28982D01*
X18489Y-28855D01*
X18438Y-28779D01*
X18362Y-28754D01*
X18311D01*
X24707Y-28635D02*
X24758Y-28609D01*
X24834Y-28533D01*
Y-29066D01*
X25250Y-28533D02*
X25174Y-28559D01*
X25123Y-28635D01*
X25098Y-28762D01*
Y-28838D01*
X25123Y-28965D01*
X25174Y-29041D01*
X25250Y-29066D01*
X25301D01*
X25377Y-29041D01*
X25428Y-28965D01*
X25453Y-28838D01*
Y-28762D01*
X25428Y-28635D01*
X25377Y-28559D01*
X25301Y-28533D01*
X25250D01*
X25573Y-29143D02*
X25928Y-28533D01*
X26015D02*
X26294D01*
X26142Y-28736D01*
X26218D01*
X26268Y-28762D01*
X26294Y-28787D01*
X26319Y-28863D01*
Y-28914D01*
X26294Y-28990D01*
X26243Y-29041D01*
X26167Y-29066D01*
X26091D01*
X26015Y-29041D01*
X25989Y-29016D01*
X25964Y-28965D01*
X26439Y-29143D02*
X26794Y-28533D01*
X26982D02*
X26906Y-28559D01*
X26855Y-28635D01*
X26830Y-28762D01*
Y-28838D01*
X26855Y-28965D01*
X26906Y-29041D01*
X26982Y-29066D01*
X27033D01*
X27109Y-29041D01*
X27160Y-28965D01*
X27185Y-28838D01*
Y-28762D01*
X27160Y-28635D01*
X27109Y-28559D01*
X27033Y-28533D01*
X26982D01*
X27660D02*
X27406Y-29066D01*
X27304Y-28533D02*
X27660D01*
D37*
X26540Y-30906D02*
X26515Y-30855D01*
X26464Y-30804D01*
X26413Y-30779D01*
X26312D01*
X26261Y-30804D01*
X26210Y-30855D01*
X26185Y-30906D01*
X26159Y-30982D01*
Y-31109D01*
X26185Y-31185D01*
X26210Y-31236D01*
X26261Y-31286D01*
X26312Y-31312D01*
X26413D01*
X26464Y-31286D01*
X26515Y-31236D01*
X26540Y-31185D01*
Y-31109D01*
X26413D02*
X26540D01*
X26992Y-30779D02*
X26662D01*
Y-31312D01*
X26992D01*
X26662Y-31032D02*
X26865D01*
X27081Y-30779D02*
Y-31312D01*
Y-30779D02*
X27309D01*
X27386Y-30804D01*
X27411Y-30829D01*
X27436Y-30880D01*
Y-30931D01*
X27411Y-30982D01*
X27386Y-31007D01*
X27309Y-31032D01*
X27081D01*
X27259D02*
X27436Y-31312D01*
X27556Y-30779D02*
Y-31312D01*
Y-30779D02*
X27784D01*
X27860Y-30804D01*
X27886Y-30829D01*
X27911Y-30880D01*
Y-30931D01*
X27886Y-30982D01*
X27860Y-31007D01*
X27784Y-31032D01*
X27556D02*
X27784D01*
X27860Y-31058D01*
X27886Y-31083D01*
X27911Y-31134D01*
Y-31210D01*
X27886Y-31261D01*
X27860Y-31286D01*
X27784Y-31312D01*
X27556D01*
X28361Y-30779D02*
X28031D01*
Y-31312D01*
X28361D01*
X28031Y-31032D02*
X28234D01*
X28450Y-30779D02*
Y-31312D01*
Y-30779D02*
X28678D01*
X28754Y-30804D01*
X28780Y-30829D01*
X28805Y-30880D01*
Y-30931D01*
X28780Y-30982D01*
X28754Y-31007D01*
X28678Y-31032D01*
X28450D01*
X28627D02*
X28805Y-31312D01*
X28950Y-30956D02*
X28924Y-30982D01*
X28950Y-31007D01*
X28975Y-30982D01*
X28950Y-30956D01*
Y-31261D02*
X28924Y-31286D01*
X28950Y-31312D01*
X28975Y-31286D01*
X28950Y-31261D01*
X-10441Y-30779D02*
Y-31312D01*
Y-30779D02*
X-10111D01*
X-10441Y-31032D02*
X-10238D01*
X-10050Y-30779D02*
Y-31312D01*
X-9938Y-30779D02*
Y-31312D01*
X-9633D01*
X-9245Y-30779D02*
X-9575D01*
Y-31312D01*
X-9245D01*
X-9575Y-31032D02*
X-9372D01*
X-8737Y-30779D02*
Y-31312D01*
Y-30779D02*
X-8382Y-31312D01*
Y-30779D02*
Y-31312D01*
X-7828D02*
X-8031Y-30779D01*
X-8234Y-31312D01*
X-8158Y-31134D02*
X-7904D01*
X-7704Y-30779D02*
Y-31312D01*
Y-30779D02*
X-7500Y-31312D01*
X-7297Y-30779D02*
X-7500Y-31312D01*
X-7297Y-30779D02*
Y-31312D01*
X-6815Y-30779D02*
X-7145D01*
Y-31312D01*
X-6815D01*
X-7145Y-31032D02*
X-6942D01*
X-6701Y-30956D02*
X-6726Y-30982D01*
X-6701Y-31007D01*
X-6675Y-30982D01*
X-6701Y-30956D01*
Y-31261D02*
X-6726Y-31286D01*
X-6701Y-31312D01*
X-6675Y-31286D01*
X-6701Y-31261D01*
X-10441Y-27179D02*
Y-27712D01*
Y-27179D02*
X-10263D01*
X-10187Y-27204D01*
X-10136Y-27255D01*
X-10111Y-27306D01*
X-10085Y-27382D01*
Y-27509D01*
X-10111Y-27585D01*
X-10136Y-27636D01*
X-10187Y-27686D01*
X-10263Y-27712D01*
X-10441D01*
X-9966Y-27356D02*
Y-27712D01*
Y-27509D02*
X-9941Y-27432D01*
X-9890Y-27382D01*
X-9839Y-27356D01*
X-9763D01*
X-9410D02*
Y-27712D01*
Y-27432D02*
X-9461Y-27382D01*
X-9511Y-27356D01*
X-9588D01*
X-9638Y-27382D01*
X-9689Y-27432D01*
X-9715Y-27509D01*
Y-27559D01*
X-9689Y-27636D01*
X-9638Y-27686D01*
X-9588Y-27712D01*
X-9511D01*
X-9461Y-27686D01*
X-9410Y-27636D01*
X-9268Y-27356D02*
X-9166Y-27712D01*
X-9065Y-27356D02*
X-9166Y-27712D01*
X-9065Y-27356D02*
X-8963Y-27712D01*
X-8861Y-27356D02*
X-8963Y-27712D01*
X-8737Y-27356D02*
Y-27712D01*
Y-27458D02*
X-8661Y-27382D01*
X-8610Y-27356D01*
X-8534D01*
X-8483Y-27382D01*
X-8458Y-27458D01*
Y-27712D01*
X-7899Y-27179D02*
Y-27712D01*
Y-27432D02*
X-7848Y-27382D01*
X-7798Y-27356D01*
X-7721D01*
X-7671Y-27382D01*
X-7620Y-27432D01*
X-7594Y-27509D01*
Y-27559D01*
X-7620Y-27636D01*
X-7671Y-27686D01*
X-7721Y-27712D01*
X-7798D01*
X-7848Y-27686D01*
X-7899Y-27636D01*
X-7455Y-27356D02*
X-7302Y-27712D01*
X-7150Y-27356D02*
X-7302Y-27712D01*
X-7353Y-27813D01*
X-7404Y-27864D01*
X-7455Y-27890D01*
X-7480D01*
X-7036Y-27356D02*
X-7061Y-27382D01*
X-7036Y-27407D01*
X-7010Y-27382D01*
X-7036Y-27356D01*
Y-27661D02*
X-7061Y-27686D01*
X-7036Y-27712D01*
X-7010Y-27686D01*
X-7036Y-27661D01*
X-1388Y-23254D02*
Y-23787D01*
X-1566Y-23254D02*
X-1210D01*
X-1147D02*
Y-23787D01*
X-857Y-23254D02*
Y-23787D01*
X-1035Y-23254D02*
X-680D01*
X-616D02*
Y-23787D01*
X-311D01*
X77Y-23254D02*
X-253D01*
Y-23787D01*
X77D01*
X-253Y-23507D02*
X-50D01*
X191Y-23431D02*
X166Y-23457D01*
X191Y-23482D01*
X217Y-23457D01*
X191Y-23431D01*
Y-23736D02*
X166Y-23761D01*
X191Y-23787D01*
X217Y-23761D01*
X191Y-23736D01*
X-1441Y-28283D02*
X-1212D01*
X-1136Y-28257D01*
X-1111Y-28232D01*
X-1085Y-28181D01*
Y-28105D01*
X-1111Y-28054D01*
X-1136Y-28029D01*
X-1212Y-28004D01*
X-1441D01*
Y-28537D01*
X-560D02*
X-763Y-28004D01*
X-966Y-28537D01*
X-890Y-28359D02*
X-636D01*
X-435Y-28004D02*
Y-28537D01*
Y-28004D02*
X-207D01*
X-131Y-28029D01*
X-105Y-28054D01*
X-80Y-28105D01*
Y-28156D01*
X-105Y-28207D01*
X-131Y-28232D01*
X-207Y-28257D01*
X-435D01*
X-258D02*
X-80Y-28537D01*
X217Y-28004D02*
Y-28537D01*
X40Y-28004D02*
X395D01*
X877D02*
Y-28537D01*
Y-28004D02*
X1233Y-28537D01*
Y-28004D02*
Y-28537D01*
X1533Y-28004D02*
X1482Y-28029D01*
X1431Y-28080D01*
X1406Y-28131D01*
X1380Y-28207D01*
Y-28334D01*
X1406Y-28410D01*
X1431Y-28461D01*
X1482Y-28511D01*
X1533Y-28537D01*
X1634D01*
X1685Y-28511D01*
X1736Y-28461D01*
X1761Y-28410D01*
X1786Y-28334D01*
Y-28207D01*
X1761Y-28131D01*
X1736Y-28080D01*
X1685Y-28029D01*
X1634Y-28004D01*
X1533D01*
X1936Y-28486D02*
X1911Y-28511D01*
X1936Y-28537D01*
X1962Y-28511D01*
X1936Y-28486D01*
X2104Y-28181D02*
X2078Y-28207D01*
X2104Y-28232D01*
X2129Y-28207D01*
X2104Y-28181D01*
Y-28486D02*
X2078Y-28511D01*
X2104Y-28537D01*
X2129Y-28511D01*
X2104Y-28486D01*
X-10111Y-23379D02*
X-10441D01*
Y-23912D01*
X-10111D01*
X-10441Y-23632D02*
X-10238D01*
X-10022Y-23379D02*
Y-23912D01*
Y-23379D02*
X-9666Y-23912D01*
Y-23379D02*
Y-23912D01*
X-9138Y-23506D02*
X-9164Y-23455D01*
X-9214Y-23404D01*
X-9265Y-23379D01*
X-9367D01*
X-9418Y-23404D01*
X-9468Y-23455D01*
X-9494Y-23506D01*
X-9519Y-23582D01*
Y-23709D01*
X-9494Y-23785D01*
X-9468Y-23836D01*
X-9418Y-23886D01*
X-9367Y-23912D01*
X-9265D01*
X-9214Y-23886D01*
X-9164Y-23836D01*
X-9138Y-23785D01*
Y-23709D01*
X-9265D02*
X-9138D01*
X-9016Y-23379D02*
Y-23912D01*
X-8905Y-23379D02*
Y-23912D01*
Y-23379D02*
X-8549Y-23912D01*
Y-23379D02*
Y-23912D01*
X-8072Y-23379D02*
X-8402D01*
Y-23912D01*
X-8072D01*
X-8402Y-23632D02*
X-8199D01*
X-7653Y-23379D02*
X-7983D01*
Y-23912D01*
X-7653D01*
X-7983Y-23632D02*
X-7780D01*
X-7564Y-23379D02*
Y-23912D01*
Y-23379D02*
X-7335D01*
X-7259Y-23404D01*
X-7234Y-23429D01*
X-7208Y-23480D01*
Y-23531D01*
X-7234Y-23582D01*
X-7259Y-23607D01*
X-7335Y-23632D01*
X-7564D01*
X-7386D02*
X-7208Y-23912D01*
X-7064Y-23556D02*
X-7089Y-23582D01*
X-7064Y-23607D01*
X-7038Y-23582D01*
X-7064Y-23556D01*
Y-23861D02*
X-7089Y-23886D01*
X-7064Y-23912D01*
X-7038Y-23886D01*
X-7064Y-23861D01*
X7959Y-30779D02*
Y-31312D01*
X8264D01*
X8729D02*
X8525Y-30779D01*
X8322Y-31312D01*
X8398Y-31134D02*
X8652D01*
X8853Y-30779D02*
X9056Y-31032D01*
Y-31312D01*
X9259Y-30779D02*
X9056Y-31032D01*
X9658Y-30779D02*
X9328D01*
Y-31312D01*
X9658D01*
X9328Y-31032D02*
X9531D01*
X9747Y-30779D02*
Y-31312D01*
Y-30779D02*
X9975D01*
X10051Y-30804D01*
X10077Y-30829D01*
X10102Y-30880D01*
Y-30931D01*
X10077Y-30982D01*
X10051Y-31007D01*
X9975Y-31032D01*
X9747D01*
X9924D02*
X10102Y-31312D01*
X10247Y-30956D02*
X10222Y-30982D01*
X10247Y-31007D01*
X10272Y-30982D01*
X10247Y-30956D01*
Y-31261D02*
X10222Y-31286D01*
X10247Y-31312D01*
X10272Y-31286D01*
X10247Y-31261D01*
X-10441Y-29283D02*
X-10212D01*
X-10136Y-29257D01*
X-10111Y-29232D01*
X-10085Y-29181D01*
Y-29105D01*
X-10111Y-29054D01*
X-10136Y-29029D01*
X-10212Y-29004D01*
X-10441D01*
Y-29537D01*
X-9966Y-29004D02*
Y-29537D01*
X-9610Y-29004D02*
Y-29537D01*
X-9966Y-29257D02*
X-9610D01*
X-9311Y-29004D02*
X-9362Y-29029D01*
X-9412Y-29080D01*
X-9438Y-29131D01*
X-9463Y-29207D01*
Y-29334D01*
X-9438Y-29410D01*
X-9412Y-29461D01*
X-9362Y-29511D01*
X-9311Y-29537D01*
X-9209D01*
X-9159Y-29511D01*
X-9108Y-29461D01*
X-9082Y-29410D01*
X-9057Y-29334D01*
Y-29207D01*
X-9082Y-29131D01*
X-9108Y-29080D01*
X-9159Y-29029D01*
X-9209Y-29004D01*
X-9311D01*
X-8933D02*
Y-29537D01*
Y-29004D02*
X-8577Y-29537D01*
Y-29004D02*
Y-29537D01*
X-8100Y-29004D02*
X-8430D01*
Y-29537D01*
X-8100D01*
X-8430Y-29257D02*
X-8227D01*
X-7985Y-29181D02*
X-8011Y-29207D01*
X-7985Y-29232D01*
X-7960Y-29207D01*
X-7985Y-29181D01*
Y-29486D02*
X-8011Y-29511D01*
X-7985Y-29537D01*
X-7960Y-29511D01*
X-7985Y-29486D01*
X-10441Y-25533D02*
X-10212D01*
X-10136Y-25507D01*
X-10111Y-25482D01*
X-10085Y-25431D01*
Y-25355D01*
X-10111Y-25304D01*
X-10136Y-25279D01*
X-10212Y-25254D01*
X-10441D01*
Y-25787D01*
X-9966Y-25254D02*
Y-25787D01*
X-9610Y-25254D02*
Y-25787D01*
X-9966Y-25507D02*
X-9610D01*
X-9311Y-25254D02*
X-9362Y-25279D01*
X-9412Y-25330D01*
X-9438Y-25381D01*
X-9463Y-25457D01*
Y-25584D01*
X-9438Y-25660D01*
X-9412Y-25711D01*
X-9362Y-25761D01*
X-9311Y-25787D01*
X-9209D01*
X-9159Y-25761D01*
X-9108Y-25711D01*
X-9082Y-25660D01*
X-9057Y-25584D01*
Y-25457D01*
X-9082Y-25381D01*
X-9108Y-25330D01*
X-9159Y-25279D01*
X-9209Y-25254D01*
X-9311D01*
X-8933D02*
Y-25787D01*
Y-25254D02*
X-8577Y-25787D01*
Y-25254D02*
Y-25787D01*
X-8100Y-25254D02*
X-8430D01*
Y-25787D01*
X-8100D01*
X-8430Y-25507D02*
X-8227D01*
X-7985Y-25431D02*
X-8011Y-25457D01*
X-7985Y-25482D01*
X-7960Y-25457D01*
X-7985Y-25431D01*
Y-25736D02*
X-8011Y-25761D01*
X-7985Y-25787D01*
X-7960Y-25761D01*
X-7985Y-25736D01*
X15934Y-28004D02*
Y-28537D01*
Y-28004D02*
X16163D01*
X16239Y-28029D01*
X16264Y-28054D01*
X16290Y-28105D01*
Y-28156D01*
X16264Y-28207D01*
X16239Y-28232D01*
X16163Y-28257D01*
X15934D01*
X16112D02*
X16290Y-28537D01*
X16739Y-28004D02*
X16409D01*
Y-28537D01*
X16739D01*
X16409Y-28257D02*
X16612D01*
X16828Y-28004D02*
X17031Y-28537D01*
X17234Y-28004D02*
X17031Y-28537D01*
X17328Y-28181D02*
X17303Y-28207D01*
X17328Y-28232D01*
X17354Y-28207D01*
X17328Y-28181D01*
Y-28486D02*
X17303Y-28511D01*
X17328Y-28537D01*
X17354Y-28511D01*
X17328Y-28486D01*
X20559Y-28004D02*
Y-28537D01*
Y-28004D02*
X20737D01*
X20813Y-28029D01*
X20864Y-28080D01*
X20889Y-28131D01*
X20915Y-28207D01*
Y-28334D01*
X20889Y-28410D01*
X20864Y-28461D01*
X20813Y-28511D01*
X20737Y-28537D01*
X20559D01*
X21440D02*
X21237Y-28004D01*
X21034Y-28537D01*
X21110Y-28359D02*
X21364D01*
X21742Y-28004D02*
Y-28537D01*
X21565Y-28004D02*
X21920D01*
X22314D02*
X21984D01*
Y-28537D01*
X22314D01*
X21984Y-28257D02*
X22187D01*
X22428Y-28181D02*
X22403Y-28207D01*
X22428Y-28232D01*
X22453Y-28207D01*
X22428Y-28181D01*
Y-28486D02*
X22403Y-28511D01*
X22428Y-28537D01*
X22453Y-28511D01*
X22428Y-28486D01*
D53*
X19450Y-5400D02*
Y-4650D01*
X20350Y-5400D02*
Y-4650D01*
Y-4250D02*
Y-3500D01*
X19450Y-4250D02*
Y-3500D01*
Y-5400D02*
X20350D01*
X19450Y-3500D02*
X20350D01*
X19300Y-4250D02*
Y-3500D01*
X18400Y-4250D02*
Y-3500D01*
Y-5400D02*
Y-4650D01*
X19300Y-5400D02*
Y-4650D01*
X18400Y-3500D02*
X19300D01*
X18400Y-5400D02*
X19300D01*
X18400Y-4250D02*
Y-3500D01*
X17500Y-4250D02*
Y-3500D01*
Y-5400D02*
Y-4650D01*
X18400Y-5400D02*
Y-4650D01*
X17500Y-3500D02*
X18400D01*
X17500Y-5400D02*
X18400D01*
X14750Y-9500D02*
Y-8750D01*
X15650Y-9500D02*
Y-8750D01*
Y-8350D02*
Y-7600D01*
X14750Y-8350D02*
Y-7600D01*
Y-9500D02*
X15650D01*
X14750Y-7600D02*
X15650D01*
X-19400Y22150D02*
X-18500D01*
X-19400Y24050D02*
X-18500D01*
Y22150D02*
Y22900D01*
X-19400Y22150D02*
Y22900D01*
Y23300D02*
Y24050D01*
X-18500Y23300D02*
Y24050D01*
X32800Y-8700D02*
X33700D01*
X32800Y-6800D02*
X33700D01*
Y-8700D02*
Y-7950D01*
X32800Y-8700D02*
Y-7950D01*
Y-7550D02*
Y-6800D01*
X33700Y-7550D02*
Y-6800D01*
X6050Y-5700D02*
Y-4950D01*
X5150Y-5700D02*
Y-4950D01*
Y-6850D02*
Y-6100D01*
X6050Y-6850D02*
Y-6100D01*
X5150Y-4950D02*
X6050D01*
X5150Y-6850D02*
X6050D01*
X-720Y20880D02*
X180D01*
X-720Y18980D02*
X180D01*
X-720Y20130D02*
Y20880D01*
X180Y20130D02*
Y20880D01*
Y18980D02*
Y19730D01*
X-720Y18980D02*
Y19730D01*
X26550Y-4850D02*
Y-3950D01*
X24650Y-4850D02*
Y-3950D01*
X25800D02*
X26550D01*
X25800Y-4850D02*
X26550D01*
X24650D02*
X25400D01*
X24650Y-3950D02*
X25400D01*
X-22250Y18800D02*
Y19700D01*
X-20350Y18800D02*
Y19700D01*
X-22250Y18800D02*
X-21500D01*
X-22250Y19700D02*
X-21500D01*
X-21100D02*
X-20350D01*
X-21100Y18800D02*
X-20350D01*
X-23150D02*
X-22250D01*
X-23150Y20700D02*
X-22250D01*
Y18800D02*
Y19550D01*
X-23150Y18800D02*
Y19550D01*
Y19950D02*
Y20700D01*
X-22250Y19950D02*
Y20700D01*
X-23150Y15600D02*
Y16500D01*
X-21250Y15600D02*
Y16500D01*
X-23150Y15600D02*
X-22400D01*
X-23150Y16500D02*
X-22400D01*
X-22000D02*
X-21250D01*
X-22000Y15600D02*
X-21250D01*
X31750Y7100D02*
X32650D01*
X31750Y9000D02*
X32650D01*
Y7100D02*
Y7850D01*
X31750Y7100D02*
Y7850D01*
Y8250D02*
Y9000D01*
X32650Y8250D02*
Y9000D01*
X33600Y25900D02*
X34500D01*
X33600Y24000D02*
X34500D01*
X33600Y25150D02*
Y25900D01*
X34500Y25150D02*
Y25900D01*
Y24000D02*
Y24750D01*
X33600Y24000D02*
Y24750D01*
X-5000Y6450D02*
X-4250D01*
X-5000Y5550D02*
X-4250D01*
X-3850D02*
X-3100D01*
X-3850Y6450D02*
X-3100D01*
X-5000Y5550D02*
Y6450D01*
X-3100Y5550D02*
Y6450D01*
X-14200Y3400D02*
X-12450D01*
Y-100D02*
Y3400D01*
X-15950Y-100D02*
X-12450D01*
X-15950D02*
Y3400D01*
X-14200D01*
X15900Y-6600D02*
Y-5650D01*
Y-6600D02*
X17500D01*
Y-3500D01*
X15900D02*
X17500D01*
X15900Y-5650D02*
Y-3500D01*
X-16600Y33400D02*
X-16067D01*
X-16333D01*
Y32600D01*
X-15800D02*
Y33133D01*
X-15534Y33400D01*
X-15267Y33133D01*
Y32600D01*
Y33000D01*
X-15800D01*
X-14467Y33266D02*
X-14601Y33400D01*
X-14867D01*
X-15001Y33266D01*
Y32733D01*
X-14867Y32600D01*
X-14601D01*
X-14467Y32733D01*
Y33000D01*
X-14734D01*
X-14201Y32600D02*
X-13934D01*
X-14067D01*
Y33400D01*
X-14201Y33266D01*
X-13534D02*
X-13401Y33400D01*
X-13134D01*
X-13001Y33266D01*
Y32733D01*
X-13134Y32600D01*
X-13401D01*
X-13534Y32733D01*
Y33266D01*
X-12735D02*
X-12601Y33400D01*
X-12335D01*
X-12201Y33266D01*
Y33133D01*
X-12335Y33000D01*
X-12468D01*
X-12335D01*
X-12201Y32867D01*
Y32733D01*
X-12335Y32600D01*
X-12601D01*
X-12735Y32733D01*
X-11135Y32600D02*
Y33400D01*
X-10735D01*
X-10602Y33266D01*
Y33000D01*
X-10735Y32867D01*
X-11135D01*
X-10335Y32600D02*
Y33400D01*
X-9935D01*
X-9802Y33266D01*
Y33000D01*
X-9935Y32867D01*
X-10335D01*
X-10069D02*
X-9802Y32600D01*
X-9136Y33400D02*
X-9402D01*
X-9536Y33266D01*
Y32733D01*
X-9402Y32600D01*
X-9136D01*
X-9002Y32733D01*
Y33266D01*
X-9136Y33400D01*
X-8203Y33266D02*
X-8336Y33400D01*
X-8603D01*
X-8736Y33266D01*
Y32733D01*
X-8603Y32600D01*
X-8336D01*
X-8203Y32733D01*
Y33000D01*
X-8469D01*
X-7136Y32600D02*
Y33133D01*
X-6870Y33400D01*
X-6603Y33133D01*
Y32600D01*
Y33000D01*
X-7136D01*
X-6337Y32600D02*
Y33400D01*
X-5937D01*
X-5803Y33266D01*
Y33000D01*
X-5937Y32867D01*
X-6337D01*
X-6070D02*
X-5803Y32600D01*
X-5004Y33400D02*
X-5537D01*
Y32600D01*
X-5004D01*
X-5537Y33000D02*
X-5270D01*
X-4737Y32600D02*
Y33133D01*
X-4471Y33400D01*
X-4204Y33133D01*
Y32600D01*
Y33000D01*
X-4737D01*
X10167Y1600D02*
X9900Y1867D01*
Y2133D01*
X10167Y2400D01*
X11100D02*
X10566D01*
Y2000D01*
X10833D01*
X10566D01*
Y1600D01*
X11766Y2400D02*
X11499D01*
X11366Y2266D01*
Y1733D01*
X11499Y1600D01*
X11766D01*
X11899Y1733D01*
Y2266D01*
X11766Y2400D01*
X12166Y1600D02*
Y2400D01*
X12566D01*
X12699Y2266D01*
Y2000D01*
X12566Y1867D01*
X12166D01*
X12433D02*
X12699Y1600D01*
X13765D02*
X14032D01*
X13899D01*
Y2400D01*
X13765Y2266D01*
X14432D02*
X14565Y2400D01*
X14832D01*
X14965Y2266D01*
Y1733D01*
X14832Y1600D01*
X14565D01*
X14432Y1733D01*
Y2266D01*
X15765Y1600D02*
X15232D01*
X15765Y2133D01*
Y2266D01*
X15631Y2400D01*
X15365D01*
X15232Y2266D01*
X17231Y2400D02*
X16964D01*
X16831Y2266D01*
Y1733D01*
X16964Y1600D01*
X17231D01*
X17364Y1733D01*
Y2266D01*
X17231Y2400D01*
X17631Y1600D02*
Y2400D01*
X18164Y1600D01*
Y2400D01*
X18431D02*
Y1600D01*
X18964D01*
X19230Y2400D02*
Y2266D01*
X19497Y2000D01*
X19763Y2266D01*
Y2400D01*
X19497Y2000D02*
Y1600D01*
X20030D02*
X20297Y1867D01*
Y2133D01*
X20030Y2400D01*
X12100Y3550D02*
X12633D01*
X12367D01*
Y2750D01*
X13300Y3550D02*
X13033D01*
X12900Y3416D01*
Y2883D01*
X13033Y2750D01*
X13300D01*
X13433Y2883D01*
Y3416D01*
X13300Y3550D01*
X14099D02*
X13833D01*
X13699Y3416D01*
Y2883D01*
X13833Y2750D01*
X14099D01*
X14233Y2883D01*
Y3416D01*
X14099Y3550D01*
X14499D02*
Y2750D01*
X15032D01*
X15299Y3550D02*
X15566D01*
X15432D01*
Y2750D01*
X15299D01*
X15566D01*
X15965D02*
Y3550D01*
X16499Y2750D01*
Y3550D01*
X17298Y3416D02*
X17165Y3550D01*
X16898D01*
X16765Y3416D01*
Y2883D01*
X16898Y2750D01*
X17165D01*
X17298Y2883D01*
Y3150D01*
X17032D01*
X36800Y1750D02*
Y2550D01*
X37200D01*
X37333Y2416D01*
Y2150D01*
X37200Y2017D01*
X36800D01*
X38000Y2550D02*
X37733D01*
X37600Y2416D01*
Y1883D01*
X37733Y1750D01*
X38000D01*
X38133Y1883D01*
Y2416D01*
X38000Y2550D01*
X38399D02*
Y1750D01*
X38666Y2017D01*
X38933Y1750D01*
Y2550D01*
X39732D02*
X39199D01*
Y1750D01*
X39732D01*
X39199Y2150D02*
X39466D01*
X39999Y1750D02*
Y2550D01*
X40399D01*
X40532Y2416D01*
Y2150D01*
X40399Y2017D01*
X39999D01*
X40266D02*
X40532Y1750D01*
X37600Y3650D02*
Y2983D01*
X37733Y2850D01*
X38000D01*
X38133Y2983D01*
Y3650D01*
X38400D02*
Y2983D01*
X38533Y2850D01*
X38800D01*
X38933Y2983D01*
Y3650D01*
X39199D02*
X39733D01*
X39466D01*
Y2850D01*
X9900Y9000D02*
Y8333D01*
X10033Y8200D01*
X10300D01*
X10433Y8333D01*
Y9000D01*
X11233Y8866D02*
X11100Y9000D01*
X10833D01*
X10700Y8866D01*
Y8733D01*
X10833Y8600D01*
X11100D01*
X11233Y8467D01*
Y8333D01*
X11100Y8200D01*
X10833D01*
X10700Y8333D01*
X12033Y9000D02*
X11499D01*
Y8200D01*
X12033D01*
X11499Y8600D02*
X11766D01*
X13632Y9000D02*
X13099D01*
Y8600D01*
X13366D01*
X13099D01*
Y8200D01*
X14299Y9000D02*
X14032D01*
X13899Y8866D01*
Y8333D01*
X14032Y8200D01*
X14299D01*
X14432Y8333D01*
Y8866D01*
X14299Y9000D01*
X14698Y8200D02*
Y9000D01*
X15098D01*
X15232Y8866D01*
Y8600D01*
X15098Y8467D01*
X14698D01*
X14965D02*
X15232Y8200D01*
X16298D02*
X16565D01*
X16431D01*
Y9000D01*
X16298Y8866D01*
X16964D02*
X17098Y9000D01*
X17364D01*
X17498Y8866D01*
Y8333D01*
X17364Y8200D01*
X17098D01*
X16964Y8333D01*
Y8866D01*
X18297Y8200D02*
X17764D01*
X18297Y8733D01*
Y8866D01*
X18164Y9000D01*
X17897D01*
X17764Y8866D01*
X10200Y15200D02*
Y14533D01*
X10333Y14400D01*
X10600D01*
X10733Y14533D01*
Y15200D01*
X11533Y15066D02*
X11400Y15200D01*
X11133D01*
X11000Y15066D01*
Y14933D01*
X11133Y14800D01*
X11400D01*
X11533Y14667D01*
Y14533D01*
X11400Y14400D01*
X11133D01*
X11000Y14533D01*
X12333Y15200D02*
X11799D01*
Y14400D01*
X12333D01*
X11799Y14800D02*
X12066D01*
X13932Y15200D02*
X13399D01*
Y14800D01*
X13666D01*
X13399D01*
Y14400D01*
X14599Y15200D02*
X14332D01*
X14199Y15066D01*
Y14533D01*
X14332Y14400D01*
X14599D01*
X14732Y14533D01*
Y15066D01*
X14599Y15200D01*
X14998Y14400D02*
Y15200D01*
X15398D01*
X15532Y15066D01*
Y14800D01*
X15398Y14667D01*
X14998D01*
X15265D02*
X15532Y14400D01*
X16598D02*
X16865D01*
X16731D01*
Y15200D01*
X16598Y15066D01*
X17264D02*
X17398Y15200D01*
X17664D01*
X17798Y15066D01*
Y14533D01*
X17664Y14400D01*
X17398D01*
X17264Y14533D01*
Y15066D01*
X18064Y14400D02*
X18331D01*
X18197D01*
Y15200D01*
X18064Y15066D01*
X18731Y14400D02*
X19264Y14933D01*
X19530Y14400D02*
X19797D01*
X19664D01*
Y15200D01*
X19530Y15066D01*
X20197D02*
X20330Y15200D01*
X20597D01*
X20730Y15066D01*
Y14533D01*
X20597Y14400D01*
X20330D01*
X20197Y14533D01*
Y15066D01*
X21530Y15200D02*
X20996D01*
Y14800D01*
X21263Y14933D01*
X21396D01*
X21530Y14800D01*
Y14533D01*
X21396Y14400D01*
X21130D01*
X20996Y14533D01*
X25800Y21100D02*
X26333Y21633D01*
X26600Y21900D02*
X27133D01*
X26866D01*
Y21100D01*
X27399D02*
Y21633D01*
X27666Y21900D01*
X27933Y21633D01*
Y21100D01*
Y21500D01*
X27399D01*
X28732Y21766D02*
X28599Y21900D01*
X28333D01*
X28199Y21766D01*
Y21233D01*
X28333Y21100D01*
X28599D01*
X28732Y21233D01*
Y21500D01*
X28466D01*
X29799Y21900D02*
Y21100D01*
X30332D01*
X31132Y21900D02*
X30598D01*
Y21100D01*
X31132D01*
X30598Y21500D02*
X30865D01*
X31398Y21900D02*
Y21100D01*
X31798D01*
X31931Y21233D01*
Y21766D01*
X31798Y21900D01*
X31398D01*
X26233Y23016D02*
X26100Y23150D01*
X25833D01*
X25700Y23016D01*
Y22883D01*
X25833Y22750D01*
X26100D01*
X26233Y22617D01*
Y22483D01*
X26100Y22350D01*
X25833D01*
X25700Y22483D01*
X27033Y23150D02*
X26500D01*
Y22350D01*
X27033D01*
X26500Y22750D02*
X26766D01*
X27299Y23150D02*
Y22350D01*
X27833D01*
X28632Y23150D02*
X28099D01*
Y22750D01*
X28366D01*
X28099D01*
Y22350D01*
X29699Y23150D02*
X30232D01*
X29965D01*
Y22350D01*
X31032Y23150D02*
X30498D01*
Y22350D01*
X31032D01*
X30498Y22750D02*
X30765D01*
X31831Y23016D02*
X31698Y23150D01*
X31431D01*
X31298Y23016D01*
Y22883D01*
X31431Y22750D01*
X31698D01*
X31831Y22617D01*
Y22483D01*
X31698Y22350D01*
X31431D01*
X31298Y22483D01*
X32098Y23150D02*
X32631D01*
X32365D01*
Y22350D01*
X-26050Y14650D02*
Y13850D01*
X-25650D01*
X-25517Y13983D01*
Y14516D01*
X-25650Y14650D01*
X-26050D01*
X-24717D02*
X-25250D01*
Y13850D01*
X-24717D01*
X-25250Y14250D02*
X-24984D01*
X-24451Y13850D02*
Y14650D01*
X-24184Y14383D01*
X-23917Y14650D01*
Y13850D01*
X-23251Y14650D02*
X-23517D01*
X-23651Y14516D01*
Y13983D01*
X-23517Y13850D01*
X-23251D01*
X-23118Y13983D01*
Y14516D01*
X-23251Y14650D01*
X-22851D02*
Y13850D01*
X-22451D01*
X-22318Y13983D01*
Y14516D01*
X-22451Y14650D01*
X-22851D01*
X-22051D02*
Y13983D01*
X-21918Y13850D01*
X-21651D01*
X-21518Y13983D01*
Y14650D01*
X-21252D02*
Y13850D01*
X-20718D01*
X-20452D02*
Y14383D01*
X-20185Y14650D01*
X-19919Y14383D01*
Y13850D01*
Y14250D01*
X-20452D01*
X-19652Y14650D02*
X-19119D01*
X-19385D01*
Y13850D01*
X-18452Y14650D02*
X-18719D01*
X-18852Y14516D01*
Y13983D01*
X-18719Y13850D01*
X-18452D01*
X-18319Y13983D01*
Y14516D01*
X-18452Y14650D01*
X-18053Y13850D02*
Y14650D01*
X-17653D01*
X-17519Y14516D01*
Y14250D01*
X-17653Y14117D01*
X-18053D01*
X-17786D02*
X-17519Y13850D01*
X-24900Y12850D02*
X-25167D01*
X-25300Y12716D01*
Y12183D01*
X-25167Y12050D01*
X-24900D01*
X-24767Y12183D01*
Y12716D01*
X-24900Y12850D01*
X-24500Y12050D02*
Y12850D01*
X-23967Y12050D01*
Y12850D01*
X-24900Y9150D02*
X-25167D01*
X-25300Y9016D01*
Y8483D01*
X-25167Y8350D01*
X-24900D01*
X-24767Y8483D01*
Y9016D01*
X-24900Y9150D01*
X-24500Y8350D02*
Y9150D01*
X-23967Y8350D01*
Y9150D01*
X-24920Y4720D02*
X-25187D01*
X-25320Y4586D01*
Y4053D01*
X-25187Y3920D01*
X-24920D01*
X-24787Y4053D01*
Y4586D01*
X-24920Y4720D01*
X-24520Y3920D02*
Y4720D01*
X-23987Y3920D01*
Y4720D01*
X-24920Y1020D02*
X-25187D01*
X-25320Y886D01*
Y353D01*
X-25187Y220D01*
X-24920D01*
X-24787Y353D01*
Y886D01*
X-24920Y1020D01*
X-24520Y220D02*
Y1020D01*
X-23987Y220D01*
Y1020D01*
X-24550Y27950D02*
Y28750D01*
X-24150D01*
X-24017Y28616D01*
Y28350D01*
X-24150Y28217D01*
X-24550D01*
X-24283D02*
X-24017Y27950D01*
X-23217Y28750D02*
X-23750D01*
Y27950D01*
X-23217D01*
X-23750Y28350D02*
X-23484D01*
X-22417Y28616D02*
X-22551Y28750D01*
X-22817D01*
X-22951Y28616D01*
Y28083D01*
X-22817Y27950D01*
X-22551D01*
X-22417Y28083D01*
X-21618Y28750D02*
X-22151D01*
Y27950D01*
X-21618D01*
X-22151Y28350D02*
X-21884D01*
X-21351Y28750D02*
X-21084D01*
X-21218D01*
Y27950D01*
X-21351D01*
X-21084D01*
X-20685Y28750D02*
Y28217D01*
X-20418Y27950D01*
X-20151Y28217D01*
Y28750D01*
X-19352D02*
X-19885D01*
Y27950D01*
X-19352D01*
X-19885Y28350D02*
X-19618D01*
X-19085Y27950D02*
Y28750D01*
X-18685D01*
X-18552Y28616D01*
Y28350D01*
X-18685Y28217D01*
X-19085D01*
X-18819D02*
X-18552Y27950D01*
X-23367Y30050D02*
X-23900D01*
Y29250D01*
X-23367D01*
X-23900Y29650D02*
X-23633D01*
X-23100Y29250D02*
Y30050D01*
X-22567Y29250D01*
Y30050D01*
X-22301Y29250D02*
Y29783D01*
X-22034Y30050D01*
X-21767Y29783D01*
Y29250D01*
Y29650D01*
X-22301D01*
X-21501Y30050D02*
Y29250D01*
X-21101D01*
X-20968Y29383D01*
Y29517D01*
X-21101Y29650D01*
X-21501D01*
X-21101D01*
X-20968Y29783D01*
Y29916D01*
X-21101Y30050D01*
X-21501D01*
X-20701D02*
Y29250D01*
X-20168D01*
X-19368Y30050D02*
X-19901D01*
Y29250D01*
X-19368D01*
X-19901Y29650D02*
X-19635D01*
X38100Y30300D02*
X38633D01*
X38367Y30566D02*
Y30033D01*
X39433Y30700D02*
X38900D01*
Y30300D01*
X39166Y30433D01*
X39300D01*
X39433Y30300D01*
Y30033D01*
X39300Y29900D01*
X39033D01*
X38900Y30033D01*
X39699Y30700D02*
Y30167D01*
X39966Y29900D01*
X40233Y30167D01*
Y30700D01*
X38800Y29650D02*
X39067D01*
X38933D01*
Y28850D01*
X38800D01*
X39067D01*
X39466D02*
Y29650D01*
X40000Y28850D01*
Y29650D01*
X-3467Y28616D02*
X-3600Y28750D01*
X-3867D01*
X-4000Y28616D01*
Y28083D01*
X-3867Y27950D01*
X-3600D01*
X-3467Y28083D01*
X-2800Y28750D02*
X-3067D01*
X-3200Y28616D01*
Y28083D01*
X-3067Y27950D01*
X-2800D01*
X-2667Y28083D01*
Y28616D01*
X-2800Y28750D01*
X-2401Y27950D02*
Y28750D01*
X-1867Y27950D01*
Y28750D01*
X-1601Y27950D02*
Y28750D01*
X-1068Y27950D01*
Y28750D01*
X-268D02*
X-801D01*
Y27950D01*
X-268D01*
X-801Y28350D02*
X-534D01*
X532Y28616D02*
X399Y28750D01*
X132D01*
X-1Y28616D01*
Y28083D01*
X132Y27950D01*
X399D01*
X532Y28083D01*
X798Y28750D02*
X1332D01*
X1065D01*
Y27950D01*
X1998Y28750D02*
X1731D01*
X1598Y28616D01*
Y28083D01*
X1731Y27950D01*
X1998D01*
X2131Y28083D01*
Y28616D01*
X1998Y28750D01*
X2398Y27950D02*
Y28750D01*
X2798D01*
X2931Y28616D01*
Y28350D01*
X2798Y28217D01*
X2398D01*
X2665D02*
X2931Y27950D01*
X-4050Y29250D02*
Y30050D01*
X-4450Y29650D01*
X-3917D01*
X-3650Y29916D02*
X-3517Y30050D01*
X-3250D01*
X-3117Y29916D01*
Y29783D01*
X-3250Y29650D01*
X-3384D01*
X-3250D01*
X-3117Y29517D01*
Y29383D01*
X-3250Y29250D01*
X-3517D01*
X-3650Y29383D01*
X-2851Y29916D02*
X-2717Y30050D01*
X-2451D01*
X-2317Y29916D01*
Y29783D01*
X-2451Y29650D01*
X-2584D01*
X-2451D01*
X-2317Y29517D01*
Y29383D01*
X-2451Y29250D01*
X-2717D01*
X-2851Y29383D01*
X-2051Y29250D02*
Y30050D01*
X-1784Y29783D01*
X-1518Y30050D01*
Y29250D01*
X-1251Y30050D02*
Y29250D01*
Y29650D01*
X-718D01*
Y30050D01*
Y29250D01*
X-451Y29783D02*
X82D01*
X-451Y29250D01*
X82D01*
X1148Y30050D02*
Y29250D01*
X1548D01*
X1681Y29383D01*
Y29517D01*
X1548Y29650D01*
X1148D01*
X1548D01*
X1681Y29783D01*
Y29916D01*
X1548Y30050D01*
X1148D01*
X1948Y29250D02*
Y30050D01*
X2481Y29250D01*
Y30050D01*
X3281Y29916D02*
X3148Y30050D01*
X2881D01*
X2748Y29916D01*
Y29383D01*
X2881Y29250D01*
X3148D01*
X3281Y29383D01*
X-1567Y-11534D02*
X-1700Y-11400D01*
X-1967D01*
X-2100Y-11534D01*
Y-12067D01*
X-1967Y-12200D01*
X-1700D01*
X-1567Y-12067D01*
X-900Y-11400D02*
X-1167D01*
X-1300Y-11534D01*
Y-12067D01*
X-1167Y-12200D01*
X-900D01*
X-767Y-12067D01*
Y-11534D01*
X-900Y-11400D01*
X-501Y-12200D02*
Y-11400D01*
X33Y-12200D01*
Y-11400D01*
X299Y-12200D02*
Y-11400D01*
X832Y-12200D01*
Y-11400D01*
X1632D02*
X1099D01*
Y-12200D01*
X1632D01*
X1099Y-11800D02*
X1366D01*
X2432Y-11534D02*
X2299Y-11400D01*
X2032D01*
X1899Y-11534D01*
Y-12067D01*
X2032Y-12200D01*
X2299D01*
X2432Y-12067D01*
X2698Y-11400D02*
X3232D01*
X2965D01*
Y-12200D01*
X3898Y-11400D02*
X3631D01*
X3498Y-11534D01*
Y-12067D01*
X3631Y-12200D01*
X3898D01*
X4031Y-12067D01*
Y-11534D01*
X3898Y-11400D01*
X4298Y-12200D02*
Y-11400D01*
X4698D01*
X4831Y-11534D01*
Y-11800D01*
X4698Y-11933D01*
X4298D01*
X4565D02*
X4831Y-12200D01*
X-2350Y-10767D02*
X-2217Y-10900D01*
X-1950D01*
X-1817Y-10767D01*
Y-10234D01*
X-1950Y-10100D01*
X-2217D01*
X-2350Y-10234D01*
Y-10367D01*
X-2217Y-10500D01*
X-1817D01*
X-1550Y-10900D02*
X-1284D01*
X-1417D01*
Y-10100D01*
X-1550Y-10234D01*
X-351Y-10100D02*
X-617Y-10234D01*
X-884Y-10500D01*
Y-10767D01*
X-751Y-10900D01*
X-484D01*
X-351Y-10767D01*
Y-10633D01*
X-484Y-10500D01*
X-884D01*
X-84Y-10900D02*
Y-10100D01*
X183Y-10367D01*
X449Y-10100D01*
Y-10900D01*
X716Y-10100D02*
Y-10900D01*
Y-10500D01*
X1249D01*
Y-10100D01*
Y-10900D01*
X1515Y-10367D02*
X2049D01*
X1515Y-10900D01*
X2049D01*
X3115Y-10100D02*
Y-10900D01*
X3515D01*
X3648Y-10767D01*
Y-10633D01*
X3515Y-10500D01*
X3115D01*
X3515D01*
X3648Y-10367D01*
Y-10234D01*
X3515Y-10100D01*
X3115D01*
X3915Y-10900D02*
Y-10100D01*
X4448Y-10900D01*
Y-10100D01*
X5248Y-10234D02*
X5114Y-10100D01*
X4848D01*
X4714Y-10234D01*
Y-10767D01*
X4848Y-10900D01*
X5114D01*
X5248Y-10767D01*
X18350Y-9900D02*
Y-10700D01*
X18883D01*
X19550Y-9900D02*
X19283D01*
X19150Y-10034D01*
Y-10567D01*
X19283Y-10700D01*
X19550D01*
X19683Y-10567D01*
Y-10034D01*
X19550Y-9900D01*
X19949D02*
Y-10700D01*
X20216Y-10433D01*
X20483Y-10700D01*
Y-9900D01*
X21549D02*
Y-10700D01*
X21949D01*
X22082Y-10567D01*
Y-10433D01*
X21949Y-10300D01*
X21549D01*
X21949D01*
X22082Y-10167D01*
Y-10034D01*
X21949Y-9900D01*
X21549D01*
X22349Y-10700D02*
Y-10167D01*
X22615Y-9900D01*
X22882Y-10167D01*
Y-10700D01*
Y-10300D01*
X22349D01*
X23148Y-9900D02*
X23682D01*
X23415D01*
Y-10700D01*
X23948Y-9900D02*
X24481D01*
X24215D01*
Y-10700D01*
X25281Y-9900D02*
X24748D01*
Y-10700D01*
X25281D01*
X24748Y-10300D02*
X25015D01*
X25548Y-10700D02*
Y-9900D01*
X25948D01*
X26081Y-10034D01*
Y-10300D01*
X25948Y-10433D01*
X25548D01*
X25814D02*
X26081Y-10700D01*
X26347Y-9900D02*
Y-10034D01*
X26614Y-10300D01*
X26881Y-10034D01*
Y-9900D01*
X26614Y-10300D02*
Y-10700D01*
X19633Y-12534D02*
X19500Y-12400D01*
X19233D01*
X19100Y-12534D01*
Y-12667D01*
X19233Y-12800D01*
X19500D01*
X19633Y-12933D01*
Y-13067D01*
X19500Y-13200D01*
X19233D01*
X19100Y-13067D01*
X19900Y-12400D02*
Y-13200D01*
X20166Y-12933D01*
X20433Y-13200D01*
Y-12400D01*
X20699D02*
X20966D01*
X20833D01*
Y-13200D01*
X20699D01*
X20966D01*
X21366Y-12400D02*
X21899D01*
X21633D01*
Y-13200D01*
X22699Y-12534D02*
X22566Y-12400D01*
X22299D01*
X22166Y-12534D01*
Y-13067D01*
X22299Y-13200D01*
X22566D01*
X22699Y-13067D01*
X22965Y-12400D02*
Y-13200D01*
Y-12800D01*
X23499D01*
Y-12400D01*
Y-13200D01*
X24565Y-12400D02*
Y-13067D01*
X24698Y-13200D01*
X24965D01*
X25098Y-13067D01*
Y-12400D01*
X25365Y-13200D02*
Y-12400D01*
X25765D01*
X25898Y-12534D01*
Y-12800D01*
X25765Y-12933D01*
X25365D01*
X2883Y32710D02*
X2617D01*
X2750D01*
Y32043D01*
X2617Y31910D01*
X2483D01*
X2350Y32043D01*
X3150Y32710D02*
X3683D01*
X3416D01*
Y31910D01*
X3949D02*
Y32443D01*
X4216Y32710D01*
X4483Y32443D01*
Y31910D01*
Y32310D01*
X3949D01*
X5282Y32576D02*
X5149Y32710D01*
X4883D01*
X4749Y32576D01*
Y32043D01*
X4883Y31910D01*
X5149D01*
X5282Y32043D01*
Y32310D01*
X5016D01*
X34600Y-10680D02*
Y-9880D01*
X34867Y-10147D01*
X35133Y-9880D01*
Y-10680D01*
X35400D02*
Y-10147D01*
X35666Y-9880D01*
X35933Y-10147D01*
Y-10680D01*
Y-10280D01*
X35400D01*
X36199Y-9880D02*
X36466D01*
X36333D01*
Y-10680D01*
X36199D01*
X36466D01*
X36866D02*
Y-9880D01*
X37399Y-10680D01*
Y-9880D01*
X34220Y-12070D02*
Y-11270D01*
X34620D01*
X34753Y-11404D01*
Y-11670D01*
X34620Y-11803D01*
X34220D01*
X35420Y-11270D02*
X35153D01*
X35020Y-11404D01*
Y-11937D01*
X35153Y-12070D01*
X35420D01*
X35553Y-11937D01*
Y-11404D01*
X35420Y-11270D01*
X35819D02*
Y-12070D01*
X36086Y-11803D01*
X36353Y-12070D01*
Y-11270D01*
X37152D02*
X36619D01*
Y-12070D01*
X37152D01*
X36619Y-11670D02*
X36886D01*
X37419Y-12070D02*
Y-11270D01*
X37819D01*
X37952Y-11404D01*
Y-11670D01*
X37819Y-11803D01*
X37419D01*
X37686D02*
X37952Y-12070D01*
X9743Y7316D02*
X9610Y7450D01*
X9343D01*
X9210Y7316D01*
Y6783D01*
X9343Y6650D01*
X9610D01*
X9743Y6783D01*
Y7050D01*
X9477D01*
X10010Y6650D02*
Y7450D01*
X10543Y6650D01*
Y7450D01*
X10809D02*
Y6650D01*
X11209D01*
X11343Y6783D01*
Y7316D01*
X11209Y7450D01*
X10809D01*
X39000Y-1200D02*
X38733D01*
X38600Y-1334D01*
Y-1867D01*
X38733Y-2000D01*
X39000D01*
X39133Y-1867D01*
Y-1334D01*
X39000Y-1200D01*
X39400Y-2000D02*
Y-1200D01*
X39933Y-2000D01*
Y-1200D01*
X37450Y-900D02*
Y-100D01*
X37850D01*
X37983Y-234D01*
Y-500D01*
X37850Y-633D01*
X37450D01*
X38650Y-100D02*
X38383D01*
X38250Y-234D01*
Y-767D01*
X38383Y-900D01*
X38650D01*
X38783Y-767D01*
Y-234D01*
X38650Y-100D01*
X39049D02*
Y-900D01*
X39316Y-633D01*
X39583Y-900D01*
Y-100D01*
X40382D02*
X39849D01*
Y-900D01*
X40382D01*
X39849Y-500D02*
X40116D01*
X40649Y-900D02*
Y-100D01*
X41049D01*
X41182Y-234D01*
Y-500D01*
X41049Y-633D01*
X40649D01*
X40916D02*
X41182Y-900D01*
X21350Y5640D02*
X21883D01*
X21617Y5906D02*
Y5373D01*
X22150Y5906D02*
X22283Y6040D01*
X22550D01*
X22683Y5906D01*
Y5773D01*
X22550Y5640D01*
X22416D01*
X22550D01*
X22683Y5507D01*
Y5373D01*
X22550Y5240D01*
X22283D01*
X22150Y5373D01*
X22949Y5240D02*
Y5373D01*
X23083D01*
Y5240D01*
X22949D01*
X23616Y5906D02*
X23749Y6040D01*
X24016D01*
X24149Y5906D01*
Y5773D01*
X24016Y5640D01*
X23883D01*
X24016D01*
X24149Y5507D01*
Y5373D01*
X24016Y5240D01*
X23749D01*
X23616Y5373D01*
X24416Y6040D02*
Y5507D01*
X24682Y5240D01*
X24949Y5507D01*
Y6040D01*
X-23817Y-900D02*
X-24350D01*
Y-1300D01*
X-24083D01*
X-24350D01*
Y-1700D01*
X-23550Y-900D02*
Y-1567D01*
X-23417Y-1700D01*
X-23150D01*
X-23017Y-1567D01*
Y-900D01*
X-22751Y-1700D02*
Y-900D01*
X-22217Y-1700D01*
Y-900D01*
X-21418Y-1034D02*
X-21551Y-900D01*
X-21817D01*
X-21951Y-1034D01*
Y-1567D01*
X-21817Y-1700D01*
X-21551D01*
X-21418Y-1567D01*
X-21151Y-900D02*
X-20618D01*
X-20884D01*
Y-1700D01*
X-20351Y-900D02*
X-20085D01*
X-20218D01*
Y-1700D01*
X-20351D01*
X-20085D01*
X-19285Y-900D02*
X-19552D01*
X-19685Y-1034D01*
Y-1567D01*
X-19552Y-1700D01*
X-19285D01*
X-19152Y-1567D01*
Y-1034D01*
X-19285Y-900D01*
X-18885Y-1700D02*
Y-900D01*
X-18352Y-1700D01*
Y-900D01*
X-24500Y6600D02*
X-23967Y5800D01*
Y6600D02*
X-24500Y5800D01*
X-23700D02*
Y6600D01*
X-23434Y6333D01*
X-23167Y6600D01*
Y5800D01*
X-22901Y6600D02*
X-22634D01*
X-22767D01*
Y5800D01*
X-22901D01*
X-22634D01*
X-22234Y6600D02*
X-21701D01*
X-21967D01*
Y5800D01*
X-20235Y6600D02*
X-20501D01*
X-20635Y6466D01*
Y5933D01*
X-20501Y5800D01*
X-20235D01*
X-20101Y5933D01*
Y6466D01*
X-20235Y6600D01*
X-19835Y5800D02*
Y6600D01*
X-19302Y5800D01*
Y6600D01*
X-2817Y-1084D02*
X-2950Y-950D01*
X-3217D01*
X-3350Y-1084D01*
Y-1617D01*
X-3217Y-1750D01*
X-2950D01*
X-2817Y-1617D01*
Y-1350D01*
X-3083D01*
X-2550Y-1750D02*
Y-950D01*
X-2017Y-1750D01*
Y-950D01*
X-1751D02*
Y-1750D01*
X-1351D01*
X-1217Y-1617D01*
Y-1084D01*
X-1351Y-950D01*
X-1751D01*
X-11747Y21466D02*
X-11880Y21600D01*
X-12147D01*
X-12280Y21466D01*
Y20933D01*
X-12147Y20800D01*
X-11880D01*
X-11747Y20933D01*
Y21200D01*
X-12013D01*
X-11480Y20800D02*
Y21600D01*
X-10947Y20800D01*
Y21600D01*
X-10681D02*
Y20800D01*
X-10281D01*
X-10147Y20933D01*
Y21466D01*
X-10281Y21600D01*
X-10681D01*
X29983Y-5184D02*
X29850Y-5050D01*
X29583D01*
X29450Y-5184D01*
Y-5717D01*
X29583Y-5850D01*
X29850D01*
X29983Y-5717D01*
Y-5450D01*
X29717D01*
X30250Y-5850D02*
Y-5050D01*
X30783Y-5850D01*
Y-5050D01*
X31049D02*
Y-5850D01*
X31449D01*
X31583Y-5717D01*
Y-5184D01*
X31449Y-5050D01*
X31049D01*
X38650Y-4150D02*
X38383D01*
X38250Y-4284D01*
Y-4817D01*
X38383Y-4950D01*
X38650D01*
X38783Y-4817D01*
Y-4284D01*
X38650Y-4150D01*
X39050Y-4950D02*
Y-4150D01*
X39583Y-4950D01*
Y-4150D01*
X38650Y-7850D02*
X38383D01*
X38250Y-7984D01*
Y-8517D01*
X38383Y-8650D01*
X38650D01*
X38783Y-8517D01*
Y-7984D01*
X38650Y-7850D01*
X39583D02*
X39050D01*
Y-8250D01*
X39316D01*
X39050D01*
Y-8650D01*
X40383Y-7850D02*
X39849D01*
Y-8250D01*
X40116D01*
X39849D01*
Y-8650D01*
X-25450Y26550D02*
X-25717D01*
X-25850Y26416D01*
Y25883D01*
X-25717Y25750D01*
X-25450D01*
X-25317Y25883D01*
Y26416D01*
X-25450Y26550D01*
X-25050Y25750D02*
Y26550D01*
X-24517Y25750D01*
Y26550D01*
X-25700Y22850D02*
X-25967D01*
X-26100Y22716D01*
Y22183D01*
X-25967Y22050D01*
X-25700D01*
X-25567Y22183D01*
Y22716D01*
X-25700Y22850D01*
X-24767D02*
X-25300D01*
Y22450D01*
X-25034D01*
X-25300D01*
Y22050D01*
X-23967Y22850D02*
X-24501D01*
Y22450D01*
X-24234D01*
X-24501D01*
Y22050D01*
X38650Y10300D02*
X38383D01*
X38250Y10166D01*
Y9633D01*
X38383Y9500D01*
X38650D01*
X38783Y9633D01*
Y10166D01*
X38650Y10300D01*
X39050Y9500D02*
Y10300D01*
X39583Y9500D01*
Y10300D01*
X38650Y6600D02*
X38383D01*
X38250Y6466D01*
Y5933D01*
X38383Y5800D01*
X38650D01*
X38783Y5933D01*
Y6466D01*
X38650Y6600D01*
X39583D02*
X39050D01*
Y6200D01*
X39316D01*
X39050D01*
Y5800D01*
X40383Y6600D02*
X39849D01*
Y6200D01*
X40116D01*
X39849D01*
Y5800D01*
X33740Y12170D02*
X34273D01*
X34007D01*
Y11370D01*
X34540D02*
Y11903D01*
X34806Y12170D01*
X35073Y11903D01*
Y11370D01*
Y11770D01*
X34540D01*
X35339Y11370D02*
Y12170D01*
X35606Y11903D01*
X35873Y12170D01*
Y11370D01*
X36139D02*
Y12170D01*
X36539D01*
X36672Y12036D01*
Y11770D01*
X36539Y11637D01*
X36139D01*
X37472Y12170D02*
X36939D01*
Y11370D01*
X37472D01*
X36939Y11770D02*
X37206D01*
X37739Y11370D02*
Y12170D01*
X38139D01*
X38272Y12036D01*
Y11770D01*
X38139Y11637D01*
X37739D01*
X38005D02*
X38272Y11370D01*
X19333Y-11284D02*
X19200Y-11150D01*
X18933D01*
X18800Y-11284D01*
Y-11417D01*
X18933Y-11550D01*
X19200D01*
X19333Y-11683D01*
Y-11817D01*
X19200Y-11950D01*
X18933D01*
X18800Y-11817D01*
X19600Y-11150D02*
X19866D01*
X19733D01*
Y-11950D01*
X19600D01*
X19866D01*
X20266D02*
Y-11150D01*
X20533Y-11417D01*
X20799Y-11150D01*
Y-11950D01*
X21066Y-11150D02*
Y-11817D01*
X21199Y-11950D01*
X21466D01*
X21599Y-11817D01*
Y-11150D01*
X21866D02*
Y-11950D01*
X22399D01*
X22665D02*
Y-11417D01*
X22932Y-11150D01*
X23199Y-11417D01*
Y-11950D01*
Y-11550D01*
X22665D01*
X23465Y-11150D02*
X23998D01*
X23732D01*
Y-11950D01*
X24265Y-11150D02*
X24531D01*
X24398D01*
Y-11950D01*
X24265D01*
X24531D01*
X25331Y-11150D02*
X25065D01*
X24931Y-11284D01*
Y-11817D01*
X25065Y-11950D01*
X25331D01*
X25465Y-11817D01*
Y-11284D01*
X25331Y-11150D01*
X25731Y-11950D02*
Y-11150D01*
X26264Y-11950D01*
Y-11150D01*
X-24317Y-2234D02*
X-24450Y-2100D01*
X-24717D01*
X-24850Y-2234D01*
Y-2767D01*
X-24717Y-2900D01*
X-24450D01*
X-24317Y-2767D01*
Y-2500D01*
X-24583D01*
X-23517Y-2100D02*
X-24050D01*
Y-2900D01*
X-23517D01*
X-24050Y-2500D02*
X-23784D01*
X-23251Y-2900D02*
Y-2100D01*
X-22717Y-2900D01*
Y-2100D01*
X-21918D02*
X-22451D01*
Y-2900D01*
X-21918D01*
X-22451Y-2500D02*
X-22184D01*
X-21651Y-2900D02*
Y-2100D01*
X-21251D01*
X-21118Y-2234D01*
Y-2500D01*
X-21251Y-2633D01*
X-21651D01*
X-21384D02*
X-21118Y-2900D01*
X-20851D02*
Y-2367D01*
X-20585Y-2100D01*
X-20318Y-2367D01*
Y-2900D01*
Y-2500D01*
X-20851D01*
X-20052Y-2100D02*
X-19518D01*
X-19785D01*
Y-2900D01*
X-18852Y-2100D02*
X-19119D01*
X-19252Y-2234D01*
Y-2767D01*
X-19119Y-2900D01*
X-18852D01*
X-18719Y-2767D01*
Y-2234D01*
X-18852Y-2100D01*
X-18452Y-2900D02*
Y-2100D01*
X-18052D01*
X-17919Y-2234D01*
Y-2500D01*
X-18052Y-2633D01*
X-18452D01*
X-18185D02*
X-17919Y-2900D01*
X-23917Y-9750D02*
X-24450D01*
Y-10150D01*
X-24183D01*
X-24450D01*
Y-10550D01*
X-23650Y-9750D02*
Y-10417D01*
X-23517Y-10550D01*
X-23250D01*
X-23117Y-10417D01*
Y-9750D01*
X-22851Y-10550D02*
Y-9750D01*
X-22317Y-10550D01*
Y-9750D01*
X-21518Y-9884D02*
X-21651Y-9750D01*
X-21917D01*
X-22051Y-9884D01*
Y-10417D01*
X-21917Y-10550D01*
X-21651D01*
X-21518Y-10417D01*
X-21251Y-9750D02*
X-20718D01*
X-20984D01*
Y-10550D01*
X-20451Y-9750D02*
X-20185D01*
X-20318D01*
Y-10550D01*
X-20451D01*
X-20185D01*
X-19385Y-9750D02*
X-19652D01*
X-19785Y-9884D01*
Y-10417D01*
X-19652Y-10550D01*
X-19385D01*
X-19252Y-10417D01*
Y-9884D01*
X-19385Y-9750D01*
X-18985Y-10550D02*
Y-9750D01*
X-18452Y-10550D01*
Y-9750D01*
X-24417Y-11034D02*
X-24550Y-10900D01*
X-24817D01*
X-24950Y-11034D01*
Y-11567D01*
X-24817Y-11700D01*
X-24550D01*
X-24417Y-11567D01*
Y-11300D01*
X-24683D01*
X-23617Y-10900D02*
X-24150D01*
Y-11700D01*
X-23617D01*
X-24150Y-11300D02*
X-23884D01*
X-23351Y-11700D02*
Y-10900D01*
X-22817Y-11700D01*
Y-10900D01*
X-22018D02*
X-22551D01*
Y-11700D01*
X-22018D01*
X-22551Y-11300D02*
X-22284D01*
X-21751Y-11700D02*
Y-10900D01*
X-21351D01*
X-21218Y-11034D01*
Y-11300D01*
X-21351Y-11433D01*
X-21751D01*
X-21484D02*
X-21218Y-11700D01*
X-20951D02*
Y-11167D01*
X-20685Y-10900D01*
X-20418Y-11167D01*
Y-11700D01*
Y-11300D01*
X-20951D01*
X-20152Y-10900D02*
X-19618D01*
X-19885D01*
Y-11700D01*
X-18952Y-10900D02*
X-19219D01*
X-19352Y-11034D01*
Y-11567D01*
X-19219Y-11700D01*
X-18952D01*
X-18819Y-11567D01*
Y-11034D01*
X-18952Y-10900D01*
X-18552Y-11700D02*
Y-10900D01*
X-18152D01*
X-18019Y-11034D01*
Y-11300D01*
X-18152Y-11433D01*
X-18552D01*
X-18285D02*
X-18019Y-11700D01*
X-24117Y-13284D02*
X-24250Y-13150D01*
X-24517D01*
X-24650Y-13284D01*
Y-13817D01*
X-24517Y-13950D01*
X-24250D01*
X-24117Y-13817D01*
X-23450Y-13150D02*
X-23717D01*
X-23850Y-13284D01*
Y-13817D01*
X-23717Y-13950D01*
X-23450D01*
X-23317Y-13817D01*
Y-13284D01*
X-23450Y-13150D01*
X-23051Y-13950D02*
Y-13150D01*
X-22517Y-13950D01*
Y-13150D01*
X-22251Y-13950D02*
Y-13150D01*
X-21718Y-13950D01*
Y-13150D01*
X-20918D02*
X-21451D01*
Y-13950D01*
X-20918D01*
X-21451Y-13550D02*
X-21184D01*
X-20118Y-13284D02*
X-20251Y-13150D01*
X-20518D01*
X-20651Y-13284D01*
Y-13817D01*
X-20518Y-13950D01*
X-20251D01*
X-20118Y-13817D01*
X-19852Y-13150D02*
X-19318D01*
X-19585D01*
Y-13950D01*
X-18652Y-13150D02*
X-18919D01*
X-19052Y-13284D01*
Y-13817D01*
X-18919Y-13950D01*
X-18652D01*
X-18519Y-13817D01*
Y-13284D01*
X-18652Y-13150D01*
X-18252Y-13950D02*
Y-13150D01*
X-17852D01*
X-17719Y-13284D01*
Y-13550D01*
X-17852Y-13683D01*
X-18252D01*
X-17985D02*
X-17719Y-13950D01*
X-22650Y-12000D02*
Y-12800D01*
X-22250D01*
X-22117Y-12667D01*
Y-12533D01*
X-22250Y-12400D01*
X-22650D01*
X-22250D01*
X-22117Y-12267D01*
Y-12134D01*
X-22250Y-12000D01*
X-22650D01*
X-21850Y-12800D02*
Y-12000D01*
X-21317Y-12800D01*
Y-12000D01*
X-20517Y-12134D02*
X-20651Y-12000D01*
X-20917D01*
X-21051Y-12134D01*
Y-12667D01*
X-20917Y-12800D01*
X-20651D01*
X-20517Y-12667D01*
X-25570Y2870D02*
X-25837D01*
X-25970Y2736D01*
Y2203D01*
X-25837Y2070D01*
X-25570D01*
X-25437Y2203D01*
Y2736D01*
X-25570Y2870D01*
X-24637D02*
X-25170D01*
Y2470D01*
X-24904D01*
X-25170D01*
Y2070D01*
X-23837Y2870D02*
X-24371D01*
Y2470D01*
X-24104D01*
X-24371D01*
Y2070D01*
X33233Y20516D02*
X33100Y20650D01*
X32833D01*
X32700Y20516D01*
Y20383D01*
X32833Y20250D01*
X33100D01*
X33233Y20117D01*
Y19983D01*
X33100Y19850D01*
X32833D01*
X32700Y19983D01*
X34033Y20650D02*
X33500D01*
Y19850D01*
X34033D01*
X33500Y20250D02*
X33766D01*
X34299Y20650D02*
Y19850D01*
X34833D01*
X35632Y20650D02*
X35099D01*
Y20250D01*
X35366D01*
X35099D01*
Y19850D01*
X36699Y20650D02*
X37232D01*
X36965D01*
Y19850D01*
X38032Y20650D02*
X37498D01*
Y19850D01*
X38032D01*
X37498Y20250D02*
X37765D01*
X38831Y20516D02*
X38698Y20650D01*
X38431D01*
X38298Y20516D01*
Y20383D01*
X38431Y20250D01*
X38698D01*
X38831Y20117D01*
Y19983D01*
X38698Y19850D01*
X38431D01*
X38298Y19983D01*
X39098Y20650D02*
X39631D01*
X39365D01*
Y19850D01*
X38650Y18850D02*
X38383D01*
X38250Y18716D01*
Y18183D01*
X38383Y18050D01*
X38650D01*
X38783Y18183D01*
Y18716D01*
X38650Y18850D01*
X39050Y18050D02*
Y18850D01*
X39583Y18050D01*
Y18850D01*
X38650Y15150D02*
X38383D01*
X38250Y15016D01*
Y14483D01*
X38383Y14350D01*
X38650D01*
X38783Y14483D01*
Y15016D01*
X38650Y15150D01*
X39583D02*
X39050D01*
Y14750D01*
X39316D01*
X39050D01*
Y14350D01*
X40383Y15150D02*
X39849D01*
Y14750D01*
X40116D01*
X39849D01*
Y14350D01*
X-150Y750D02*
X383D01*
X117D01*
Y-50D01*
X1050Y750D02*
X783D01*
X650Y616D01*
Y83D01*
X783Y-50D01*
X1050D01*
X1183Y83D01*
Y616D01*
X1050Y750D01*
X1849D02*
X1583D01*
X1449Y616D01*
Y83D01*
X1583Y-50D01*
X1849D01*
X1983Y83D01*
Y616D01*
X1849Y750D01*
X2249D02*
Y-50D01*
X2782D01*
X3049Y750D02*
X3316D01*
X3182D01*
Y-50D01*
X3049D01*
X3316D01*
X3715D02*
Y750D01*
X4249Y-50D01*
Y750D01*
X5048Y616D02*
X4915Y750D01*
X4648D01*
X4515Y616D01*
Y83D01*
X4648Y-50D01*
X4915D01*
X5048Y83D01*
Y350D01*
X4782D01*
X25800Y17850D02*
X26333D01*
X26067D01*
Y17050D01*
X27000Y17850D02*
X26733D01*
X26600Y17716D01*
Y17183D01*
X26733Y17050D01*
X27000D01*
X27133Y17183D01*
Y17716D01*
X27000Y17850D01*
X27799D02*
X27533D01*
X27399Y17716D01*
Y17183D01*
X27533Y17050D01*
X27799D01*
X27933Y17183D01*
Y17716D01*
X27799Y17850D01*
X28199D02*
Y17050D01*
X28732D01*
X28999Y17850D02*
X29266D01*
X29132D01*
Y17050D01*
X28999D01*
X29266D01*
X29665D02*
Y17850D01*
X30199Y17050D01*
Y17850D01*
X30998Y17716D02*
X30865Y17850D01*
X30598D01*
X30465Y17716D01*
Y17183D01*
X30598Y17050D01*
X30865D01*
X30998Y17183D01*
Y17450D01*
X30732D01*
X-4500Y4200D02*
X-4233D01*
X-4367D01*
Y3400D01*
X-4500D01*
X-4233D01*
X-3834D02*
Y4200D01*
X-3300Y3400D01*
Y4200D01*
X-3034Y3400D02*
Y4200D01*
X-2634D01*
X-2501Y4066D01*
Y3800D01*
X-2634Y3667D01*
X-3034D01*
X-2234Y3400D02*
Y3933D01*
X-1967Y4200D01*
X-1701Y3933D01*
Y3400D01*
Y3800D01*
X-2234D01*
X-15650Y-400D02*
X-15383D01*
X-15517D01*
Y-1200D01*
X-15650D01*
X-15383D01*
X-14984D02*
Y-400D01*
X-14450Y-1200D01*
Y-400D01*
X-14184Y-1200D02*
Y-400D01*
X-13784D01*
X-13651Y-534D01*
Y-800D01*
X-13784Y-933D01*
X-14184D01*
X-13384Y-400D02*
Y-1200D01*
X-12984D01*
X-12851Y-1067D01*
Y-933D01*
X-12984Y-800D01*
X-13384D01*
X-12984D01*
X-12851Y-667D01*
Y-534D01*
X-12984Y-400D01*
X-13384D01*
X-7067Y-9874D02*
X-7200Y-9740D01*
X-7467D01*
X-7600Y-9874D01*
Y-10407D01*
X-7467Y-10540D01*
X-7200D01*
X-7067Y-10407D01*
Y-10140D01*
X-7333D01*
X-6800Y-10540D02*
Y-10007D01*
X-6534Y-9740D01*
X-6267Y-10007D01*
Y-10540D01*
Y-10140D01*
X-6800D01*
X-6001Y-9740D02*
X-5734D01*
X-5867D01*
Y-10540D01*
X-6001D01*
X-5734D01*
X-5334D02*
Y-9740D01*
X-4801Y-10540D01*
Y-9740D01*
X-15900Y-10540D02*
Y-9740D01*
X-15500D01*
X-15367Y-9874D01*
Y-10140D01*
X-15500Y-10273D01*
X-15900D01*
X-15100Y-9740D02*
Y-10540D01*
Y-10140D01*
X-14567D01*
Y-9740D01*
Y-10540D01*
X-14301D02*
Y-10007D01*
X-14034Y-9740D01*
X-13767Y-10007D01*
Y-10540D01*
Y-10140D01*
X-14301D01*
X-12968Y-9874D02*
X-13101Y-9740D01*
X-13367D01*
X-13501Y-9874D01*
Y-10007D01*
X-13367Y-10140D01*
X-13101D01*
X-12968Y-10273D01*
Y-10407D01*
X-13101Y-10540D01*
X-13367D01*
X-13501Y-10407D01*
X-12168Y-9740D02*
X-12701D01*
Y-10540D01*
X-12168D01*
X-12701Y-10140D02*
X-12434D01*
X37850Y220D02*
Y1020D01*
X38117Y753D01*
X38383Y1020D01*
Y220D01*
X38650D02*
Y753D01*
X38916Y1020D01*
X39183Y753D01*
Y220D01*
Y620D01*
X38650D01*
X39449Y1020D02*
X39716D01*
X39583D01*
Y220D01*
X39449D01*
X39716D01*
X40116D02*
Y1020D01*
X40649Y220D01*
Y1020D01*
X-4300Y17050D02*
Y17850D01*
X-3900D01*
X-3767Y17716D01*
Y17450D01*
X-3900Y17317D01*
X-4300D01*
X-4033D02*
X-3767Y17050D01*
X-2967Y17716D02*
X-3100Y17850D01*
X-3367D01*
X-3500Y17716D01*
Y17183D01*
X-3367Y17050D01*
X-3100D01*
X-2967Y17183D01*
X-2701Y17850D02*
Y17317D01*
X-2434Y17050D01*
X-2167Y17317D01*
Y17850D01*
X-1901Y17050D02*
Y17850D01*
X-1501D01*
X-1368Y17716D01*
Y17450D01*
X-1501Y17317D01*
X-1901D01*
X-1634D02*
X-1368Y17050D01*
X-3900Y15900D02*
Y16433D01*
X-3633Y16700D01*
X-3367Y16433D01*
Y15900D01*
Y16300D01*
X-3900D01*
X-3100Y15900D02*
Y16700D01*
X-2567Y15900D01*
Y16700D01*
X-2301D02*
X-1767D01*
X-2034D01*
Y15900D01*
X-9150Y21750D02*
Y20950D01*
X-8617D01*
X-7950Y21750D02*
X-8217D01*
X-8350Y21616D01*
Y21083D01*
X-8217Y20950D01*
X-7950D01*
X-7817Y21083D01*
Y21616D01*
X-7950Y21750D01*
X-7551D02*
Y20950D01*
X-7284Y21217D01*
X-7017Y20950D01*
Y21750D01*
X-9450Y20650D02*
Y19850D01*
X-9050D01*
X-8917Y19983D01*
Y20117D01*
X-9050Y20250D01*
X-9450D01*
X-9050D01*
X-8917Y20383D01*
Y20516D01*
X-9050Y20650D01*
X-9450D01*
X-8650Y19850D02*
Y20383D01*
X-8384Y20650D01*
X-8117Y20383D01*
Y19850D01*
Y20250D01*
X-8650D01*
X-7851Y20650D02*
X-7317D01*
X-7584D01*
Y19850D01*
X-7051Y20650D02*
X-6518D01*
X-6784D01*
Y19850D01*
X-15000Y16700D02*
Y17500D01*
X-14600D01*
X-14467Y17366D01*
Y17100D01*
X-14600Y16967D01*
X-15000D01*
X-14733D02*
X-14467Y16700D01*
X-14200Y17500D02*
X-13667Y16700D01*
Y17500D02*
X-14200Y16700D01*
X-15750Y16350D02*
Y15550D01*
X-15350D01*
X-15217Y15683D01*
Y16216D01*
X-15350Y16350D01*
X-15750D01*
X-14950Y15550D02*
Y16083D01*
X-14684Y16350D01*
X-14417Y16083D01*
Y15550D01*
Y15950D01*
X-14950D01*
X-14151Y16350D02*
X-13617D01*
X-13884D01*
Y15550D01*
X-13351D02*
Y16083D01*
X-13084Y16350D01*
X-12818Y16083D01*
Y15550D01*
Y15950D01*
X-13351D01*
X-9400Y11500D02*
Y12300D01*
X-9000D01*
X-8867Y12166D01*
Y11900D01*
X-9000Y11767D01*
X-9400D01*
X-9133D02*
X-8867Y11500D01*
X-8067Y12166D02*
X-8200Y12300D01*
X-8467D01*
X-8600Y12166D01*
Y11633D01*
X-8467Y11500D01*
X-8200D01*
X-8067Y11633D01*
X-7801Y12300D02*
Y11767D01*
X-7534Y11500D01*
X-7267Y11767D01*
Y12300D01*
X-7001Y11500D02*
Y12300D01*
X-6601D01*
X-6468Y12166D01*
Y11900D01*
X-6601Y11767D01*
X-7001D01*
X-6734D02*
X-6468Y11500D01*
X-9300Y11100D02*
Y10300D01*
X-8900D01*
X-8767Y10433D01*
Y10567D01*
X-8900Y10700D01*
X-9300D01*
X-8900D01*
X-8767Y10833D01*
Y10966D01*
X-8900Y11100D01*
X-9300D01*
X-8500D02*
X-8234D01*
X-8367D01*
Y10300D01*
X-8500D01*
X-8234D01*
X-7834D02*
Y10833D01*
X-7567Y11100D01*
X-7301Y10833D01*
Y10300D01*
Y10700D01*
X-7834D01*
X-6501Y10966D02*
X-6634Y11100D01*
X-6901D01*
X-7034Y10966D01*
Y10833D01*
X-6901Y10700D01*
X-6634D01*
X-6501Y10567D01*
Y10433D01*
X-6634Y10300D01*
X-6901D01*
X-7034Y10433D01*
M02*
