%FSLAX24Y24*%
%MOIN*%
G70*
G01*
G75*
G04 Layer_Physical_Order=1*
G04 Layer_Color=255*
%ADD10R,0.2500X0.1500*%
%ADD11R,0.0500X0.0600*%
%ADD12R,0.1500X0.2500*%
%ADD13R,0.0600X0.0500*%
%ADD14R,0.0300X0.0300*%
%ADD15R,0.0300X0.0300*%
%ADD16O,0.0157X0.0472*%
%ADD17O,0.0800X0.0240*%
%ADD18R,0.0360X0.0360*%
%ADD19R,0.0500X0.0360*%
%ADD20R,0.1102X0.0965*%
%ADD21R,0.0550X0.0400*%
%ADD22R,0.1250X0.0750*%
%ADD23R,0.0820X0.1500*%
%ADD24R,0.4500X0.3500*%
%ADD25C,0.0080*%
%ADD26C,0.0200*%
%ADD27C,0.0250*%
%ADD28C,0.0500*%
%ADD29C,0.0350*%
%ADD30C,0.0100*%
%ADD31C,0.0400*%
%ADD32C,0.0300*%
%ADD33C,0.0780*%
%ADD34C,0.0150*%
%ADD35C,0.1080*%
%ADD36C,0.0090*%
%ADD37C,0.0050*%
%ADD38C,0.1100*%
%ADD39C,0.1000*%
%ADD40C,0.1600*%
%ADD41O,0.0830X0.1100*%
%ADD42C,0.1500*%
%ADD43C,0.0620*%
%ADD44R,0.2500X0.1500*%
%ADD45C,0.1800*%
%ADD46R,0.0620X0.0620*%
%ADD47C,0.0600*%
%ADD48R,0.0620X0.0620*%
%ADD49C,0.0669*%
%ADD50C,0.0630*%
%ADD51C,0.3250*%
D10*
X35000Y2600D02*
D03*
D11*
X19900Y-4900D02*
D03*
Y-4000D02*
D03*
X18850D02*
D03*
Y-4900D02*
D03*
X17950Y-4000D02*
D03*
Y-4900D02*
D03*
X15200Y-9000D02*
D03*
Y-8100D02*
D03*
X-18950Y22650D02*
D03*
Y23550D02*
D03*
X33250Y-8200D02*
D03*
Y-7300D02*
D03*
X5600Y-5450D02*
D03*
Y-6350D02*
D03*
X-270Y20380D02*
D03*
Y19480D02*
D03*
X-22700Y19300D02*
D03*
Y20200D02*
D03*
X32200Y7600D02*
D03*
Y8500D02*
D03*
X34050Y25400D02*
D03*
Y24500D02*
D03*
D12*
X28200Y-6500D02*
D03*
X-11160Y18150D02*
D03*
X-2350Y800D02*
D03*
X-7950Y18150D02*
D03*
X-2900Y14150D02*
D03*
X-7950D02*
D03*
X34050Y27600D02*
D03*
D13*
X26050Y-4400D02*
D03*
X25150D02*
D03*
X-21750Y19250D02*
D03*
X-20850D02*
D03*
X-22650Y16050D02*
D03*
X-21750D02*
D03*
X-3600Y6000D02*
D03*
X-4500D02*
D03*
D14*
X-8600Y-2850D02*
D03*
X-9200D02*
D03*
X-8700Y-1450D02*
D03*
X-11700D02*
D03*
X-10900Y5400D02*
D03*
X-11500D02*
D03*
X-9300Y-1450D02*
D03*
X-11100D02*
D03*
X-11750Y-2850D02*
D03*
X-11150D02*
D03*
X-9050Y5400D02*
D03*
X-9650D02*
D03*
D15*
Y3650D02*
D03*
X-10850D02*
D03*
X-9650Y3050D02*
D03*
X-10850D02*
D03*
X-11450Y3650D02*
D03*
Y3050D02*
D03*
X-9900Y-2050D02*
D03*
Y-1450D02*
D03*
X-10500Y-2050D02*
D03*
Y-1450D02*
D03*
X-9050Y3650D02*
D03*
Y3050D02*
D03*
X-10250D02*
D03*
Y3650D02*
D03*
X-8450D02*
D03*
Y3050D02*
D03*
X-7850D02*
D03*
Y3650D02*
D03*
D16*
X-9450Y-570D02*
D03*
X-9706D02*
D03*
X-9962D02*
D03*
X-10474D02*
D03*
X-10730D02*
D03*
X-10985D02*
D03*
Y1950D02*
D03*
X-10730D02*
D03*
X-10474D02*
D03*
X-10218D02*
D03*
X-9962D02*
D03*
X-9706D02*
D03*
X-9450D02*
D03*
X-10218Y-570D02*
D03*
D17*
X-22550Y16900D02*
D03*
Y17400D02*
D03*
Y17900D02*
D03*
Y18400D02*
D03*
X-20350D02*
D03*
Y17900D02*
D03*
Y17400D02*
D03*
Y16900D02*
D03*
D18*
X-23500Y19925D02*
D03*
Y19175D02*
D03*
D19*
X-24300Y19555D02*
D03*
D20*
X40581Y22256D02*
D03*
X38180D02*
D03*
X40581Y26744D02*
D03*
X38180D02*
D03*
D21*
X15200Y-4950D02*
D03*
Y-6250D02*
D03*
D22*
X16700Y-4050D02*
D03*
Y-6050D02*
D03*
D23*
X11750Y-8650D02*
D03*
X10750D02*
D03*
X12750D02*
D03*
D24*
X11750Y-4150D02*
D03*
D25*
X-12060Y19850D02*
X-10260D01*
X-12060Y19800D02*
X-10260D01*
X-12060Y20000D02*
X-10260D01*
X-12060Y19700D02*
X-10260D01*
X-12060Y19750D02*
X-10260D01*
X-12060Y20450D02*
X-10260D01*
X-12060Y20500D02*
X-10260D01*
X-12060Y20350D02*
X-10260D01*
X-12060Y20400D02*
X-10260D01*
X-12060Y18200D02*
X-10260D01*
X-12060Y19450D02*
X-10260D01*
X-12060Y17100D02*
X-10260D01*
X-12060Y17250D02*
X-10260D01*
X-12060Y19600D02*
X-10260D01*
X-12060Y19650D02*
X-10260D01*
X-12060Y19500D02*
X-10260D01*
X-12060Y19550D02*
X-10260D01*
X-10870Y15750D02*
Y20500D01*
X-10820Y15750D02*
Y20500D01*
X-10920Y15750D02*
Y20500D01*
X-10720Y15750D02*
Y20500D01*
X-10770Y15750D02*
Y20500D01*
X-12060Y17000D02*
X-10260D01*
X-12060Y17050D02*
X-10260D01*
X-12060Y16850D02*
X-10260D01*
X-12060Y16950D02*
X-10260D01*
X-12060Y16250D02*
X-10260D01*
X-12060Y16350D02*
X-10260D01*
X-12060Y15850D02*
X-10260D01*
X-12060Y15900D02*
X-10260D01*
X-12060Y16750D02*
X-10260D01*
X-12060Y16800D02*
X-10260D01*
X-12060Y16550D02*
X-10260D01*
X-12060Y16700D02*
X-10260D01*
X-11020Y15750D02*
Y20500D01*
X-10970Y15750D02*
Y20500D01*
X-11070Y15750D02*
Y20500D01*
X-10620Y15750D02*
Y20500D01*
X-10670Y15750D02*
Y20500D01*
X-11220Y15750D02*
Y20500D01*
X-11270Y15750D02*
Y20500D01*
X-11120Y15750D02*
Y20500D01*
X-11170Y15750D02*
Y20500D01*
X-10320Y15750D02*
Y20500D01*
X-10370Y15750D02*
Y20500D01*
X-10260Y15750D02*
Y20500D01*
X-10270Y15750D02*
Y20500D01*
X-10520Y15750D02*
Y20500D01*
X-10570Y15750D02*
Y20500D01*
X-10420Y15750D02*
Y20500D01*
X-10470Y15750D02*
Y20500D01*
X-11820Y15750D02*
Y20500D01*
X-11870Y15750D02*
Y20500D01*
X-11720Y15750D02*
Y20500D01*
X-11770Y15750D02*
Y20500D01*
X-12020Y15750D02*
Y20500D01*
X-12060Y15750D02*
Y20500D01*
X-11920Y15750D02*
Y20500D01*
X-11970Y15750D02*
Y20500D01*
X-11420Y15750D02*
Y20500D01*
X-11470Y15750D02*
Y20500D01*
X-11320Y15750D02*
Y20500D01*
X-11370Y15750D02*
Y20500D01*
X-11620Y15750D02*
Y20500D01*
X-11670Y15750D02*
Y20500D01*
X-11520Y15750D02*
Y20500D01*
X-11570Y15750D02*
Y20500D01*
X-12060Y18700D02*
X-10260D01*
X-12060Y18650D02*
X-10260D01*
X-12060Y18750D02*
X-10260D01*
X-12060Y18550D02*
X-10260D01*
X-12060Y18600D02*
X-10260D01*
X-12060Y18900D02*
X-10260D01*
X-12060Y18950D02*
X-10260D01*
X-12060Y18800D02*
X-10260D01*
X-12060Y18850D02*
X-10260D01*
X-12060Y18250D02*
X-10260D01*
X-12060Y18300D02*
X-10260D01*
X-12060Y18100D02*
X-10260D01*
X-12060Y18150D02*
X-10260D01*
X-12060Y18450D02*
X-10260D01*
X-12060Y18500D02*
X-10260D01*
X-12060Y18350D02*
X-10260D01*
X-12060Y18400D02*
X-10260D01*
X-12060Y20050D02*
X-10260D01*
X-12060Y19950D02*
X-10260D01*
X-12060Y20100D02*
X-10260D01*
X-12060Y19400D02*
X-10260D01*
X-12060Y19900D02*
X-10260D01*
X-12060Y20250D02*
X-10260D01*
X-12060Y20300D02*
X-10260D01*
X-12060Y20150D02*
X-10260D01*
X-12060Y20200D02*
X-10260D01*
X-12060Y19100D02*
X-10260D01*
X-12060Y19150D02*
X-10260D01*
X-12060Y19000D02*
X-10260D01*
X-12060Y19050D02*
X-10260D01*
X-12060Y19300D02*
X-10260D01*
X-12060Y19350D02*
X-10260D01*
X-12060Y19200D02*
X-10260D01*
X-12060Y19250D02*
X-10260D01*
X-12060Y16500D02*
X-10260D01*
X-12060Y16450D02*
X-10260D01*
X-12060Y16600D02*
X-10260D01*
X-12060Y16300D02*
X-10260D01*
X-12060Y16400D02*
X-10260D01*
X-12060Y17150D02*
X-10260D01*
X-12060Y17200D02*
X-10260D01*
X-12060Y16650D02*
X-10260D01*
X-12060Y16900D02*
X-10260D01*
X-12060Y15950D02*
X-10260D01*
X-12060Y16000D02*
X-10260D01*
X-12060Y15750D02*
X-10260D01*
X-12060Y15800D02*
X-10260D01*
X-12060Y16150D02*
X-10260D01*
X-12060Y16200D02*
X-10260D01*
X-12060Y16050D02*
X-10260D01*
X-12060Y16100D02*
X-10260D01*
X-12060Y17800D02*
X-10260D01*
X-12060Y17850D02*
X-10260D01*
X-12060Y17700D02*
X-10260D01*
X-12060Y17750D02*
X-10260D01*
X-12060Y18000D02*
X-10260D01*
X-12060Y18050D02*
X-10260D01*
X-12060Y17900D02*
X-10260D01*
X-12060Y17950D02*
X-10260D01*
X-12060Y17400D02*
X-10260D01*
X-12060Y17450D02*
X-10260D01*
X-12060Y17300D02*
X-10260D01*
X-12060Y17350D02*
X-10260D01*
X-12060Y17600D02*
X-10260D01*
X-12060Y17650D02*
X-10260D01*
X-12060Y17500D02*
X-10260D01*
X-12060Y17550D02*
X-10260D01*
X14930Y-8450D02*
Y-5550D01*
X14880Y-8450D02*
Y-5550D01*
X15080Y-8450D02*
Y-5550D01*
X15130Y-8450D02*
Y-5550D01*
X14980Y-8450D02*
Y-5550D01*
X15030Y-8450D02*
Y-5550D01*
X15280Y-8450D02*
Y-5550D01*
X15180Y-8450D02*
Y-5550D01*
X15230Y-8450D02*
Y-5550D01*
X15430Y-8450D02*
Y-5550D01*
X15480Y-8450D02*
Y-5550D01*
X15330Y-8450D02*
Y-5550D01*
X15380Y-8450D02*
Y-5550D01*
X15530Y-8450D02*
Y-5550D01*
X14700Y-7450D02*
X17500D01*
X14700Y-7350D02*
X17500D01*
X14700Y-7400D02*
X17500D01*
X14700Y-7250D02*
X17500D01*
X14700Y-7300D02*
X17500D01*
X14700Y-7150D02*
X17500D01*
X14700Y-7200D02*
X17500D01*
X14700Y-7100D02*
X17500D01*
X14700Y-7000D02*
X17500D01*
X14700Y-7050D02*
X17500D01*
X14700Y-6900D02*
X17500D01*
X14700Y-6950D02*
X17500D01*
X14700Y-6800D02*
X17500D01*
X14700Y-6850D02*
X17500D01*
X14700Y-6750D02*
X17500D01*
X16380Y-8450D02*
Y-5550D01*
X16530Y-8450D02*
Y-5550D01*
X16430Y-8450D02*
Y-5550D01*
X16480Y-8450D02*
Y-5550D01*
X16730Y-8450D02*
Y-5550D01*
X16780Y-8450D02*
Y-5550D01*
X16580Y-8450D02*
Y-5550D01*
X16630Y-8450D02*
Y-5550D01*
X16680Y-8450D02*
Y-5550D01*
X16930Y-8450D02*
Y-5550D01*
X16980Y-8450D02*
Y-5550D01*
X16830Y-8450D02*
Y-5550D01*
X16880Y-8450D02*
Y-5550D01*
X17030Y-8450D02*
Y-5550D01*
X14700Y-8250D02*
X17500D01*
X14700Y-8150D02*
X17500D01*
X14700Y-8200D02*
X17500D01*
X14700Y-8400D02*
X17500D01*
X14700Y-8450D02*
X17500D01*
X14700Y-8300D02*
X17500D01*
X14700Y-8350D02*
X17500D01*
X14700Y-7850D02*
X17500D01*
X14700Y-7900D02*
X17500D01*
X14700Y-7500D02*
X17500D01*
X14700Y-8050D02*
X17500D01*
X14700Y-8100D02*
X17500D01*
X14700Y-7950D02*
X17500D01*
X14700Y-8000D02*
X17500D01*
X14700Y-7750D02*
X17500D01*
X14700Y-7800D02*
X17500D01*
X14700Y-7650D02*
X17500D01*
X14700Y-7700D02*
X17500D01*
X14700Y-7550D02*
X17500D01*
X14700Y-7600D02*
X17500D01*
X14700Y-6650D02*
X17500D01*
X14700Y-6550D02*
X17500D01*
X14700Y-6600D02*
X17500D01*
X14700Y-6700D02*
X17500D01*
X14700Y-6250D02*
X17500D01*
X14700Y-6300D02*
X17500D01*
X14700Y-6150D02*
X17500D01*
X14700Y-6200D02*
X17500D01*
X14700Y-6450D02*
X17500D01*
X14700Y-6500D02*
X17500D01*
X14700Y-6350D02*
X17500D01*
X14700Y-6400D02*
X17500D01*
X14700Y-6100D02*
X17500D01*
X14700Y-6050D02*
X17500D01*
X14700Y-6000D02*
X17500D01*
X14700Y-5950D02*
X17500D01*
X14700Y-5650D02*
X17500D01*
X14700Y-5700D02*
X17500D01*
X14700Y-5550D02*
X17500D01*
X14700Y-5600D02*
X17500D01*
X14700Y-5850D02*
X17500D01*
X14700Y-5900D02*
X17500D01*
X14700Y-5750D02*
X17500D01*
X14700Y-5800D02*
X17500D01*
X14830Y-8450D02*
Y-5550D01*
X15580Y-8450D02*
Y-5550D01*
X14780Y-8450D02*
Y-5550D01*
X14700Y-8450D02*
Y-5550D01*
X14730Y-8450D02*
Y-5550D01*
X16180Y-8450D02*
Y-5550D01*
X16080Y-8450D02*
Y-5550D01*
X16130Y-8450D02*
Y-5550D01*
X16330Y-8450D02*
Y-5550D01*
X16230Y-8450D02*
Y-5550D01*
X16280Y-8450D02*
Y-5550D01*
X15980Y-8450D02*
Y-5550D01*
X16030Y-8450D02*
Y-5550D01*
X15630Y-8450D02*
Y-5550D01*
X15680Y-8450D02*
Y-5550D01*
X15730Y-8450D02*
Y-5550D01*
X15880Y-8450D02*
Y-5550D01*
X15930Y-8450D02*
Y-5550D01*
X15780Y-8450D02*
Y-5550D01*
X15830Y-8450D02*
Y-5550D01*
X17130Y-8450D02*
Y-5550D01*
X17180Y-8450D02*
Y-5550D01*
X17080Y-8450D02*
Y-5550D01*
X17330Y-8450D02*
Y-5550D01*
X17380Y-8450D02*
Y-5550D01*
X17230Y-8450D02*
Y-5550D01*
X17280Y-8450D02*
Y-5550D01*
X17430Y-8450D02*
Y-5550D01*
X17480Y-8450D02*
Y-5550D01*
X17500Y-8450D02*
Y-5550D01*
X27250Y-8500D02*
X29300D01*
X27250Y-8600D02*
X29300D01*
X27250Y-8550D02*
X29300D01*
X27250Y-8400D02*
X29300D01*
X27980Y-9250D02*
Y-3450D01*
X28030Y-9250D02*
Y-3450D01*
X27930Y-9250D02*
Y-3450D01*
X27880Y-9250D02*
Y-3450D01*
X28230Y-9250D02*
Y-3450D01*
X28330Y-9250D02*
Y-3450D01*
X28280Y-9250D02*
Y-3450D01*
X28080Y-9250D02*
Y-3450D01*
X28180Y-9250D02*
Y-3450D01*
X28130Y-9250D02*
Y-3450D01*
X28430Y-9250D02*
Y-3450D01*
X28380Y-9250D02*
Y-3450D01*
X28530Y-9250D02*
Y-3450D01*
X28480Y-9250D02*
Y-3450D01*
X27250Y-8850D02*
X29300D01*
X27250Y-8900D02*
X29300D01*
X27250Y-8700D02*
X29300D01*
X27250Y-8800D02*
X29300D01*
X27250Y-8750D02*
X29300D01*
X27250Y-9100D02*
X29300D01*
X27250Y-8950D02*
X29300D01*
X27250Y-9050D02*
X29300D01*
X27250Y-9000D02*
X29300D01*
X27250Y-8650D02*
X29300D01*
X27250Y-8450D02*
X29300D01*
X27250Y-4250D02*
X29300D01*
X27250Y-4350D02*
X29300D01*
X27250Y-4300D02*
X29300D01*
X27250Y-4100D02*
X29300D01*
X27250Y-4200D02*
X29300D01*
X27250Y-4150D02*
X29300D01*
X27250Y-3700D02*
X29300D01*
X27250Y-3650D02*
X29300D01*
X27250Y-3950D02*
X29300D01*
X27250Y-4050D02*
X29300D01*
X27250Y-4000D02*
X29300D01*
X27250Y-3750D02*
X29300D01*
X27250Y-3900D02*
X29300D01*
X27250Y-3850D02*
X29300D01*
X27250Y-3800D02*
X29300D01*
X27830Y-9250D02*
Y-3450D01*
X27380Y-9250D02*
Y-3450D01*
X27480Y-9250D02*
Y-3450D01*
X27430Y-9250D02*
Y-3450D01*
X27250Y-9250D02*
Y-3450D01*
X27330Y-9250D02*
Y-3450D01*
X27280Y-9250D02*
Y-3450D01*
X27680Y-9250D02*
Y-3450D01*
X27780Y-9250D02*
Y-3450D01*
X27730Y-9250D02*
Y-3450D01*
X27530Y-9250D02*
Y-3450D01*
X27630Y-9250D02*
Y-3450D01*
X27580Y-9250D02*
Y-3450D01*
X28630Y-9250D02*
Y-3450D01*
X28830Y-9250D02*
Y-3450D01*
X28680Y-9250D02*
Y-3450D01*
X28580Y-9250D02*
Y-3450D01*
X28880Y-9250D02*
Y-3450D01*
X28930Y-9250D02*
Y-3450D01*
X29030Y-9250D02*
Y-3450D01*
X28980Y-9250D02*
Y-3450D01*
X29230Y-9250D02*
Y-3450D01*
X29300Y-9250D02*
Y-3450D01*
X29280Y-9250D02*
Y-3450D01*
X29080Y-9250D02*
Y-3450D01*
X29180Y-9250D02*
Y-3450D01*
X29130Y-9250D02*
Y-3450D01*
X28730Y-9250D02*
Y-3450D01*
X28780Y-9250D02*
Y-3450D01*
X27250Y-8350D02*
X29300D01*
X27250Y-8050D02*
X29300D01*
X27250Y-8150D02*
X29300D01*
X27250Y-7450D02*
X29300D01*
X27250Y-7950D02*
X29300D01*
X27250Y-7600D02*
X29300D01*
X27250Y-8200D02*
X29300D01*
X27250Y-8300D02*
X29300D01*
X27250Y-7300D02*
X29300D01*
X27250Y-7250D02*
X29300D01*
X27250Y-7400D02*
X29300D01*
X27250Y-7350D02*
X29300D01*
X27250Y-7050D02*
X29300D01*
X27250Y-7150D02*
X29300D01*
X27250Y-7100D02*
X29300D01*
X27250Y-6900D02*
X29300D01*
X27250Y-6600D02*
X29300D01*
X27250Y-6750D02*
X29300D01*
X27250Y-6650D02*
X29300D01*
X27250Y-6300D02*
X29300D01*
X27250Y-6500D02*
X29300D01*
X27250Y-6350D02*
X29300D01*
X27250Y-6150D02*
X29300D01*
X27250Y-6250D02*
X29300D01*
X27250Y-6200D02*
X29300D01*
X27250Y-5700D02*
X29300D01*
X27250Y-5800D02*
X29300D01*
X27250Y-5750D02*
X29300D01*
X27250Y-5550D02*
X29300D01*
X27250Y-5650D02*
X29300D01*
X27250Y-5600D02*
X29300D01*
X27250Y-6000D02*
X29300D01*
X27250Y-6100D02*
X29300D01*
X27250Y-6050D02*
X29300D01*
X27250Y-5850D02*
X29300D01*
X27250Y-5950D02*
X29300D01*
X27250Y-5900D02*
X29300D01*
X27250Y-5350D02*
X29300D01*
X27250Y-5500D02*
X29300D01*
X27250Y-5450D02*
X29300D01*
X27250Y-5250D02*
X29300D01*
X27250Y-5400D02*
X29300D01*
X27250Y-5300D02*
X29300D01*
X27250Y-5050D02*
X29300D01*
X27250Y-5150D02*
X29300D01*
X27250Y-5100D02*
X29300D01*
X27250Y-4900D02*
X29300D01*
X27250Y-4850D02*
X29300D01*
X27250Y-4800D02*
X29300D01*
X27250Y-5000D02*
X29300D01*
X27250Y-4950D02*
X29300D01*
X27250Y-4650D02*
X29300D01*
X27250Y-4750D02*
X29300D01*
X27250Y-4700D02*
X29300D01*
X27250Y-4550D02*
X29300D01*
X27250Y-5200D02*
X29300D01*
X27250Y-4600D02*
X29300D01*
X27250Y-4400D02*
X29300D01*
X27250Y-4500D02*
X29300D01*
X27250Y-4450D02*
X29300D01*
X27250Y-3600D02*
X29300D01*
X27250Y-3450D02*
X29300D01*
X27250Y-3550D02*
X29300D01*
X27250Y-3500D02*
X29300D01*
X27250Y-9250D02*
X29300D01*
X27250Y-9200D02*
X29300D01*
X27250Y-9150D02*
X29300D01*
X27250Y-8000D02*
X29300D01*
X27250Y-8250D02*
X29300D01*
X27250Y-8100D02*
X29300D01*
X27250Y-7900D02*
X29300D01*
X27250Y-7850D02*
X29300D01*
X27250Y-7800D02*
X29300D01*
X27250Y-7650D02*
X29300D01*
X27250Y-7750D02*
X29300D01*
X27250Y-7700D02*
X29300D01*
X27250Y-6950D02*
X29300D01*
X27250Y-7550D02*
X29300D01*
X27250Y-7500D02*
X29300D01*
X27250Y-7000D02*
X29300D01*
X27250Y-7200D02*
X29300D01*
X27250Y-6550D02*
X29300D01*
X27250Y-6800D02*
X29300D01*
X27250Y-6700D02*
X29300D01*
X27250Y-6450D02*
X29300D01*
X27250Y-6400D02*
X29300D01*
X27250Y-6850D02*
X29300D01*
X11480Y-7350D02*
Y-1050D01*
X8550Y-7300D02*
X14400D01*
X11150Y-7350D02*
X14400D01*
X8550Y-7200D02*
X14400D01*
X8550Y-7250D02*
X14400D01*
X8550Y-6900D02*
X14400D01*
X8550Y-6950D02*
X14400D01*
X8550Y-6800D02*
X14400D01*
X8550Y-6850D02*
X14400D01*
X8550Y-7100D02*
X14400D01*
X8550Y-7150D02*
X14400D01*
X8550Y-7000D02*
X14400D01*
X8550Y-7050D02*
X14400D01*
X11930Y-7350D02*
Y-1050D01*
X11980Y-7350D02*
Y-1050D01*
X11530Y-7350D02*
Y-1050D01*
X11580Y-7350D02*
Y-1050D01*
X12030Y-7350D02*
Y-1050D01*
X11630Y-7350D02*
Y-1050D01*
X11680Y-7350D02*
Y-1050D01*
X11830Y-7350D02*
Y-1050D01*
X11880Y-7350D02*
Y-1050D01*
X11730Y-7350D02*
Y-1050D01*
X11780Y-7350D02*
Y-1050D01*
X8550Y-5800D02*
X14400D01*
X8550Y-5700D02*
X14400D01*
X8550Y-5750D02*
X14400D01*
X8550Y-5950D02*
X14400D01*
X8550Y-6000D02*
X14400D01*
X8550Y-5850D02*
X14400D01*
X8550Y-5900D02*
X14400D01*
X8550Y-5400D02*
X14400D01*
X8550Y-5450D02*
X14400D01*
X8550Y-5300D02*
X14400D01*
X8550Y-5350D02*
X14400D01*
X8550Y-5600D02*
X14400D01*
X8550Y-5650D02*
X14400D01*
X8550Y-5500D02*
X14400D01*
X8550Y-5550D02*
X14400D01*
X8550Y-6550D02*
X14400D01*
X8550Y-6450D02*
X14400D01*
X8550Y-6500D02*
X14400D01*
X8550Y-6700D02*
X14400D01*
X8550Y-6750D02*
X14400D01*
X8550Y-6600D02*
X14400D01*
X8550Y-6650D02*
X14400D01*
X8550Y-6150D02*
X14400D01*
X8550Y-6200D02*
X14400D01*
X8550Y-6050D02*
X14400D01*
X8550Y-6100D02*
X14400D01*
X8550Y-6350D02*
X14400D01*
X8550Y-6400D02*
X14400D01*
X8550Y-6250D02*
X14400D01*
X8550Y-6300D02*
X14400D01*
X8550Y-5250D02*
X14400D01*
X8550Y-5050D02*
X17400D01*
X8550Y-5200D02*
X14400D01*
X8550Y-4950D02*
X17400D01*
X8550Y-5000D02*
X17400D01*
X8550Y-4600D02*
X17400D01*
X8550Y-4650D02*
X17400D01*
X8550Y-4450D02*
X17400D01*
X8550Y-4500D02*
X17400D01*
X8550Y-4400D02*
X17400D01*
X8550Y-4550D02*
X17400D01*
X8550Y-4300D02*
X17400D01*
X8550Y-4350D02*
X17400D01*
X8550Y-4800D02*
X17400D01*
X8550Y-4700D02*
X17400D01*
X8550Y-4750D02*
X17400D01*
X8550Y-5100D02*
X17400D01*
X8550Y-5150D02*
X17400D01*
X8550Y-4850D02*
X17400D01*
X8550Y-4900D02*
X17400D01*
X8550Y-4000D02*
X17400D01*
X8550Y-4050D02*
X17400D01*
X8550Y-3900D02*
X17400D01*
X8550Y-3950D02*
X17400D01*
X8550Y-4200D02*
X17400D01*
X8550Y-4250D02*
X17400D01*
X8550Y-4100D02*
X17400D01*
X8550Y-4150D02*
X17400D01*
X11430Y-7350D02*
Y-1050D01*
X8750Y-1550D02*
X17350D01*
X8800Y-1500D02*
X17300D01*
X8850Y-1450D02*
X17250D01*
X8900Y-1400D02*
X17200D01*
X9100Y-1200D02*
X17000D01*
X9150Y-1150D02*
X16950D01*
X9200Y-1100D02*
X16900D01*
X9250Y-1050D02*
X16850D01*
X8950Y-1350D02*
X17150D01*
X9000Y-1300D02*
X17100D01*
X9050Y-1250D02*
X17050D01*
X8550Y-3650D02*
X17400D01*
X8550Y-3550D02*
X17400D01*
X8550Y-3600D02*
X17400D01*
X8550Y-3800D02*
X17400D01*
X8550Y-3850D02*
X17400D01*
X8550Y-3700D02*
X17400D01*
X8550Y-3750D02*
X17400D01*
X8550Y-3250D02*
X17400D01*
X8550Y-3300D02*
X17400D01*
X8550Y-3150D02*
X17400D01*
X8550Y-3200D02*
X17400D01*
X8550Y-3450D02*
X17400D01*
X8550Y-3500D02*
X17400D01*
X8550Y-3350D02*
X17400D01*
X8550Y-3400D02*
X17400D01*
X8550Y-2900D02*
X17400D01*
X8550Y-2800D02*
X17400D01*
X8550Y-2850D02*
X17400D01*
X8550Y-3050D02*
X17400D01*
X8550Y-3100D02*
X17400D01*
X8550Y-2950D02*
X17400D01*
X8550Y-3000D02*
X17400D01*
X8550Y-2500D02*
X17400D01*
X8550Y-2550D02*
X17400D01*
X8550Y-2400D02*
X17400D01*
X8550Y-2450D02*
X17400D01*
X8550Y-2700D02*
X17400D01*
X8550Y-2750D02*
X17400D01*
X8550Y-2600D02*
X17400D01*
X8550Y-2650D02*
X17400D01*
X8550Y-2100D02*
X17400D01*
X8550Y-2150D02*
X17400D01*
X8550Y-2000D02*
X17400D01*
X8550Y-2050D02*
X17400D01*
X8550Y-2300D02*
X17400D01*
X8550Y-2350D02*
X17400D01*
X8550Y-2200D02*
X17400D01*
X8550Y-2250D02*
X17400D01*
X8550Y-1750D02*
X17400D01*
X8600Y-1700D02*
X17400D01*
X8650Y-1650D02*
X17400D01*
X8700Y-1600D02*
X17400D01*
X8550Y-1900D02*
X17400D01*
X8550Y-1950D02*
X17400D01*
X8550Y-1800D02*
X17400D01*
X8550Y-1850D02*
X17400D01*
X8550Y-7350D02*
Y-1750D01*
X8580Y-7350D02*
Y-1720D01*
X8630Y-7350D02*
Y-1670D01*
X8550Y-7350D02*
X11150D01*
X8680D02*
Y-1620D01*
X8730Y-7350D02*
Y-1570D01*
X8780Y-7350D02*
Y-1520D01*
X8830Y-7350D02*
Y-1470D01*
X8880Y-7350D02*
Y-1420D01*
X8930Y-7350D02*
Y-1370D01*
X8980Y-7350D02*
Y-1320D01*
X9030Y-7350D02*
Y-1270D01*
X9080Y-7350D02*
Y-1220D01*
X9130Y-7350D02*
Y-1170D01*
X9730Y-7350D02*
Y-1050D01*
X9630Y-7350D02*
Y-1050D01*
X9680Y-7350D02*
Y-1050D01*
X9880Y-7350D02*
Y-1050D01*
X9780Y-7350D02*
Y-1050D01*
X9830Y-7350D02*
Y-1050D01*
X9180Y-7350D02*
Y-1120D01*
X9230Y-7350D02*
Y-1070D01*
X9280Y-7350D02*
Y-1050D01*
X9330Y-7350D02*
Y-1050D01*
X9530Y-7350D02*
Y-1050D01*
X9580Y-7350D02*
Y-1050D01*
X9380Y-7350D02*
Y-1050D01*
X9480Y-7350D02*
Y-1050D01*
X10380Y-7350D02*
Y-1050D01*
X10280Y-7350D02*
Y-1050D01*
X10330Y-7350D02*
Y-1050D01*
X10530Y-7350D02*
Y-1050D01*
X10580Y-7350D02*
Y-1050D01*
X10430Y-7350D02*
Y-1050D01*
X10480Y-7350D02*
Y-1050D01*
X9980Y-7350D02*
Y-1050D01*
X10030Y-7350D02*
Y-1050D01*
X9430Y-7350D02*
Y-1050D01*
X9930Y-7350D02*
Y-1050D01*
X10180Y-7350D02*
Y-1050D01*
X10230Y-7350D02*
Y-1050D01*
X10080Y-7350D02*
Y-1050D01*
X10130Y-7350D02*
Y-1050D01*
X11130Y-7350D02*
Y-1050D01*
X11030Y-7350D02*
Y-1050D01*
X11080Y-7350D02*
Y-1050D01*
X11280Y-7350D02*
Y-1050D01*
X11330Y-7350D02*
Y-1050D01*
X11180Y-7350D02*
Y-1050D01*
X11230Y-7350D02*
Y-1050D01*
X10730Y-7350D02*
Y-1050D01*
X10780Y-7350D02*
Y-1050D01*
X10630Y-7350D02*
Y-1050D01*
X10680Y-7350D02*
Y-1050D01*
X10930Y-7350D02*
Y-1050D01*
X10980Y-7350D02*
Y-1050D01*
X10830Y-7350D02*
Y-1050D01*
X10880Y-7350D02*
Y-1050D01*
X12130Y-7350D02*
Y-1050D01*
X12180Y-7350D02*
Y-1050D01*
X12080Y-7350D02*
Y-1050D01*
X12330Y-7350D02*
Y-1050D01*
X12230Y-7350D02*
Y-1050D01*
X12280Y-7350D02*
Y-1050D01*
X12480Y-7350D02*
Y-1050D01*
X12530Y-7350D02*
Y-1050D01*
X12380Y-7350D02*
Y-1050D01*
X12430Y-7350D02*
Y-1050D01*
X11380Y-7350D02*
Y-1050D01*
X13080Y-7350D02*
Y-1050D01*
X12980Y-7350D02*
Y-1050D01*
X13030Y-7350D02*
Y-1050D01*
X13230Y-7350D02*
Y-1050D01*
X13280Y-7350D02*
Y-1050D01*
X13130Y-7350D02*
Y-1050D01*
X13180Y-7350D02*
Y-1050D01*
X12680Y-7350D02*
Y-1050D01*
X12730Y-7350D02*
Y-1050D01*
X12580Y-7350D02*
Y-1050D01*
X12630Y-7350D02*
Y-1050D01*
X12880Y-7350D02*
Y-1050D01*
X12930Y-7350D02*
Y-1050D01*
X12780Y-7350D02*
Y-1050D01*
X12830Y-7350D02*
Y-1050D01*
X13830Y-7350D02*
Y-1050D01*
X13730Y-7350D02*
Y-1050D01*
X13780Y-7350D02*
Y-1050D01*
X13980Y-7350D02*
Y-1050D01*
X14030Y-7350D02*
Y-1050D01*
X13880Y-7350D02*
Y-1050D01*
X13930Y-7350D02*
Y-1050D01*
X13430Y-7350D02*
Y-1050D01*
X13480Y-7350D02*
Y-1050D01*
X13330Y-7350D02*
Y-1050D01*
X13380Y-7350D02*
Y-1050D01*
X13630Y-7350D02*
Y-1050D01*
X13680Y-7350D02*
Y-1050D01*
X13530Y-7350D02*
Y-1050D01*
X13580Y-7350D02*
Y-1050D01*
X14180Y-7350D02*
Y-1050D01*
X14230Y-7350D02*
Y-1050D01*
X14080Y-7350D02*
Y-1050D01*
X14130Y-7350D02*
Y-1050D01*
X14380Y-7350D02*
Y-1050D01*
X14400Y-7350D02*
Y-5200D01*
X14280Y-7350D02*
Y-1050D01*
X14330Y-7350D02*
Y-1050D01*
X14430Y-5200D02*
Y-1050D01*
X14400Y-5200D02*
X17400D01*
X14580D02*
Y-1050D01*
X14480Y-5200D02*
Y-1050D01*
X14530Y-5200D02*
Y-1050D01*
X14730Y-5200D02*
Y-1050D01*
X14630Y-5200D02*
Y-1050D01*
X14680Y-5200D02*
Y-1050D01*
X14980Y-5200D02*
Y-1050D01*
X15030Y-5200D02*
Y-1050D01*
X14930Y-5200D02*
Y-1050D01*
X15180Y-5200D02*
Y-1050D01*
X15080Y-5200D02*
Y-1050D01*
X15130Y-5200D02*
Y-1050D01*
X15230Y-5200D02*
Y-1050D01*
X15280Y-5200D02*
Y-1050D01*
X15430Y-5200D02*
Y-1050D01*
X15480Y-5200D02*
Y-1050D01*
X15330Y-5200D02*
Y-1050D01*
X15380Y-5200D02*
Y-1050D01*
X16880Y-5200D02*
Y-1080D01*
X15880Y-5200D02*
Y-1050D01*
X15780Y-5200D02*
Y-1050D01*
X15830Y-5200D02*
Y-1050D01*
X16030Y-5200D02*
Y-1050D01*
X16080Y-5200D02*
Y-1050D01*
X15930Y-5200D02*
Y-1050D01*
X15980Y-5200D02*
Y-1050D01*
X14880Y-5200D02*
Y-1050D01*
X15530Y-5200D02*
Y-1050D01*
X14780Y-5200D02*
Y-1050D01*
X14830Y-5200D02*
Y-1050D01*
X15680Y-5200D02*
Y-1050D01*
X15730Y-5200D02*
Y-1050D01*
X15580Y-5200D02*
Y-1050D01*
X15630Y-5200D02*
Y-1050D01*
X16630Y-5200D02*
Y-1050D01*
X16530Y-5200D02*
Y-1050D01*
X16580Y-5200D02*
Y-1050D01*
X16780Y-5200D02*
Y-1050D01*
X16830Y-5200D02*
Y-1050D01*
X16680Y-5200D02*
Y-1050D01*
X16730Y-5200D02*
Y-1050D01*
X16230Y-5200D02*
Y-1050D01*
X16280Y-5200D02*
Y-1050D01*
X16130Y-5200D02*
Y-1050D01*
X16180Y-5200D02*
Y-1050D01*
X16430Y-5200D02*
Y-1050D01*
X16480Y-5200D02*
Y-1050D01*
X16330Y-5200D02*
Y-1050D01*
X16380Y-5200D02*
Y-1050D01*
X17030Y-5200D02*
Y-1230D01*
X16930Y-5200D02*
Y-1130D01*
X16980Y-5200D02*
Y-1180D01*
X17230Y-5200D02*
Y-1430D01*
X17080Y-5200D02*
Y-1280D01*
X17180Y-5200D02*
Y-1380D01*
X17130Y-5200D02*
Y-1330D01*
X17280Y-5200D02*
Y-1480D01*
X17400Y-5200D02*
Y-1600D01*
X17330Y-5200D02*
Y-1530D01*
X17380Y-5200D02*
Y-1580D01*
X8550Y-1750D02*
X9250Y-1050D01*
X16850D02*
X17400Y-1600D01*
X-8870Y5300D02*
Y5490D01*
X-8820Y5272D02*
Y5515D01*
X-8770Y5244D02*
Y5540D01*
X-8720Y5217D02*
Y5565D01*
X-8780Y5250D02*
X-8150D01*
X-8690Y5200D02*
X-8150D01*
X-9050Y5400D02*
X-8150Y4900D01*
X-8670Y5189D02*
Y5590D01*
X-8870Y5300D02*
X-8150D01*
X-9050Y5400D02*
X-8150D01*
X-8960Y5350D02*
X-8150D01*
X-9020Y5383D02*
Y5415D01*
X-8920Y5328D02*
Y5465D01*
X-8970Y5356D02*
Y5440D01*
X-8950Y5450D02*
X-8150D01*
X-8850Y5500D02*
X-8150D01*
X-9050Y5400D02*
X-8150Y5850D01*
X-8750Y5550D02*
X-8150D01*
X-8650Y5600D02*
X-8150D01*
X-8420Y5050D02*
Y5715D01*
X-8370Y5022D02*
Y5740D01*
X-8320Y4994D02*
Y5765D01*
X-8220Y4939D02*
Y5815D01*
X-8270Y4967D02*
Y5790D01*
X-8330Y5000D02*
X-8150D01*
X-8240Y4950D02*
X-8150D01*
X-8420Y5050D02*
X-8150D01*
Y4900D02*
Y5850D01*
X-8170Y4911D02*
Y5840D01*
X-8620Y5161D02*
Y5615D01*
X-8510Y5100D02*
X-8150D01*
X-8570Y5133D02*
Y5640D01*
X-8470Y5078D02*
Y5690D01*
X-8520Y5106D02*
Y5665D01*
X-8600Y5150D02*
X-8150D01*
X-8550Y5650D02*
X-8150D01*
X-8450Y5700D02*
X-8150D01*
X-8350Y5750D02*
X-8150D01*
X-8250Y5800D02*
X-8150D01*
X-12400Y5050D02*
X-12200D01*
X-12400Y5000D02*
X-12300D01*
X-12400Y4950D02*
Y5900D01*
Y5100D02*
X-12100D01*
X-12400Y5250D02*
X-11800D01*
X-12400Y5200D02*
X-11900D01*
X-12400Y5900D02*
X-11500Y5400D01*
X-12400Y5300D02*
X-11700D01*
X-12400Y5350D02*
X-11600D01*
X-12400Y5700D02*
X-12040D01*
X-12400Y5650D02*
X-11950D01*
X-12400Y5850D02*
X-12310D01*
X-12400Y5750D02*
X-12130D01*
X-12400Y5800D02*
X-12220D01*
X-12400Y5450D02*
X-11590D01*
X-12400Y5400D02*
X-11500D01*
X-12400Y5600D02*
X-11860D01*
X-12400Y5500D02*
X-11680D01*
X-12400Y5550D02*
X-11770D01*
X-12270Y5015D02*
Y5828D01*
X-12220Y5040D02*
Y5800D01*
X-12370Y4965D02*
Y5883D01*
X-12320Y4990D02*
Y5856D01*
X-12400Y4950D02*
X-11500Y5400D01*
X-12020Y5140D02*
Y5689D01*
X-12170Y5065D02*
Y5772D01*
X-12120Y5090D02*
Y5744D01*
X-12070Y5115D02*
Y5717D01*
X-12400Y5150D02*
X-12000D01*
X-11820Y5240D02*
Y5578D01*
X-11970Y5165D02*
Y5661D01*
X-11920Y5190D02*
Y5633D01*
X-11870Y5215D02*
Y5606D01*
X-11620Y5340D02*
Y5467D01*
X-11570Y5365D02*
Y5439D01*
X-11770Y5265D02*
Y5550D01*
X-11720Y5290D02*
Y5522D01*
X-11670Y5315D02*
Y5494D01*
X-7970Y-1800D02*
Y2100D01*
X-8020Y-1800D02*
Y2100D01*
X-7820Y-1800D02*
Y3300D01*
X-7920Y-1800D02*
Y3300D01*
X-7870Y-1800D02*
Y3300D01*
X-7670Y-1800D02*
Y3300D01*
X-7770Y-1800D02*
Y3300D01*
X-7720Y-1800D02*
Y3300D01*
X-7620Y-1800D02*
Y3300D01*
X-8950Y-1700D02*
X-850D01*
X-8950Y-1800D02*
X-850D01*
X-8950Y-1750D02*
X-850D01*
X-13770Y-1650D02*
Y850D01*
X-13720Y-1650D02*
Y880D01*
X-13670Y-1650D02*
Y930D01*
X-13620Y-1650D02*
Y980D01*
X-13270Y-1650D02*
Y3980D01*
X-13220Y-1650D02*
Y4030D01*
X-13170Y-1650D02*
Y4080D01*
X-13120Y-1650D02*
Y4130D01*
X-13070Y-1650D02*
Y4180D01*
X-13020Y-1650D02*
Y4230D01*
X-13570Y-1650D02*
Y1030D01*
X-13520Y-1650D02*
Y1080D01*
X-13470Y-1650D02*
Y1130D01*
X-13420Y-1650D02*
Y1180D01*
X-13370Y-1650D02*
Y3330D01*
X-13320Y-1650D02*
Y3930D01*
X-12720Y-1650D02*
Y4530D01*
X-12670Y-1650D02*
Y4580D01*
X-12620Y-1650D02*
Y4600D01*
X-12970Y-1650D02*
Y4280D01*
X-12920Y-1650D02*
Y4330D01*
X-12870Y-1650D02*
Y4380D01*
X-12820Y-1650D02*
Y4430D01*
X-12770Y-1650D02*
Y4480D01*
X-18400Y400D02*
X-11300D01*
X-18400Y250D02*
X-11300D01*
X-18400Y350D02*
X-11300D01*
X-18400Y300D02*
X-11300D01*
X-18400Y100D02*
X-11300D01*
X-18400Y200D02*
X-11300D01*
X-18400Y150D02*
X-11300D01*
X-18400Y750D02*
X-11300D01*
X-18400Y700D02*
X-11300D01*
X-18400Y800D02*
X-11300D01*
X-18400Y500D02*
X-11300D01*
X-18400Y450D02*
X-11300D01*
X-18400Y650D02*
X-11300D01*
X-18400Y550D02*
X-11300D01*
X-18400Y600D02*
X-11300D01*
X-14700Y850D02*
X-13750D01*
X-14700D02*
X-13750D01*
X-13400Y1200D01*
Y2150D01*
X-13500Y1100D02*
X-11300D01*
X-13450Y1150D02*
X-11300D01*
X-13400Y1200D02*
X-11300D01*
X-13750Y850D02*
X-11300D01*
X-13700Y900D02*
X-11300D01*
X-13650Y950D02*
X-11300D01*
X-13600Y1000D02*
X-11300D01*
X-13550Y1050D02*
X-11300D01*
X-13700Y2450D02*
Y3000D01*
X-13670Y2420D02*
Y3030D01*
X-13570Y2320D02*
Y3130D01*
X-13620Y2370D02*
Y3080D01*
X-13700Y2500D02*
X-11450D01*
X-13700Y2450D02*
X-13400Y2150D01*
X-13700Y2650D02*
X-11600D01*
X-13700Y2550D02*
X-11500D01*
X-13700Y2600D02*
X-11550D01*
X-13700Y2850D02*
X-11750D01*
X-13700Y2800D02*
X-11750D01*
X-13700Y2900D02*
X-11750D01*
X-13700Y2950D02*
X-11750D01*
X-13700Y2750D02*
X-11700D01*
X-13700Y2700D02*
X-11650D01*
X-13700Y3000D02*
X-11750D01*
X-13650Y3050D02*
X-11750D01*
X-13600Y3100D02*
X-11750D01*
X-13520Y2270D02*
Y3180D01*
X-13470Y2220D02*
Y3230D01*
X-13420Y2170D02*
Y3280D01*
X-13550Y3150D02*
X-11750D01*
X-13500Y3200D02*
X-11750D01*
X-13450Y2200D02*
X-11300D01*
X-13400Y2150D02*
X-11300D01*
X-13400Y2100D02*
X-11300D01*
X-13550Y2300D02*
X-11300D01*
X-13500Y2250D02*
X-11300D01*
X-13700Y2450D02*
X-11400D01*
X-13650Y2400D02*
X-11350D01*
X-13600Y2350D02*
X-11300D01*
X-18400Y6250D02*
X-11750D01*
X-18400Y6150D02*
X-13500D01*
X-18400Y6200D02*
X-11750D01*
X-18400Y6300D02*
X-11750D01*
X-18400Y6700D02*
X-11750D01*
X-18400Y6650D02*
X-11750D01*
X-18400Y6850D02*
X-11750D01*
X-18400Y6750D02*
X-11750D01*
X-18400Y6800D02*
X-11750D01*
X-18400Y6450D02*
X-11750D01*
X-18400Y6350D02*
X-11750D01*
X-18400Y6400D02*
X-11750D01*
X-18400Y6600D02*
X-11750D01*
X-18400Y6500D02*
X-11750D01*
X-18400Y6550D02*
X-11750D01*
X-14120Y5530D02*
Y7850D01*
X-13920Y5730D02*
Y7850D01*
X-13820Y5830D02*
Y7850D01*
X-14070Y5580D02*
Y7850D01*
X-14020Y5630D02*
Y7850D01*
X-13970Y5680D02*
Y7850D01*
X-13520Y6130D02*
Y7850D01*
X-13470Y6150D02*
Y7850D01*
X-13670Y5980D02*
Y7850D01*
X-13620Y6030D02*
Y7850D01*
X-13570Y6080D02*
Y7850D01*
X-13420Y6150D02*
Y7850D01*
X-13870Y5780D02*
Y7850D01*
X-13770Y5880D02*
Y7850D01*
X-13720Y5930D02*
Y7850D01*
X-12320Y-1650D02*
Y4600D01*
X-12470Y-1650D02*
Y4600D01*
X-12570Y-1650D02*
Y4600D01*
X-12520Y-1650D02*
Y4600D01*
X-12270Y-1650D02*
Y4600D01*
X-12420Y-1650D02*
Y4600D01*
X-12370Y-1650D02*
Y4600D01*
X-12220Y-1650D02*
Y4600D01*
X-13350Y3750D02*
X-11750D01*
X-13350Y3900D02*
X-11750D01*
X-13350Y3800D02*
X-11750D01*
X-13350Y3850D02*
X-11750D01*
X-13300Y3950D02*
X-11750D01*
X-13250Y4000D02*
X-11750D01*
X-13200Y4050D02*
X-11750D01*
X-13150Y4100D02*
X-11750D01*
X-13100Y4150D02*
X-11750D01*
X-13050Y4200D02*
X-11750D01*
X-13000Y4250D02*
X-11750D01*
X-12950Y4300D02*
X-11750D01*
X-12900Y4350D02*
X-11750D01*
X-12850Y4400D02*
X-11750D01*
X-12800Y4450D02*
X-11750D01*
X-13500Y6150D02*
X-11750D01*
X-12820D02*
Y7850D01*
X-12770Y6150D02*
Y7850D01*
X-12870Y6150D02*
Y7850D01*
X-12920Y6150D02*
Y7850D01*
X-12720Y6150D02*
Y7850D01*
X-12670Y6150D02*
Y7850D01*
X-12270Y6150D02*
Y7850D01*
X-12620Y6150D02*
Y7850D01*
X-12320Y6150D02*
Y7850D01*
X-12570Y6150D02*
Y7850D01*
X-12420Y6150D02*
Y7850D01*
X-12370Y6150D02*
Y7850D01*
X-12470Y6150D02*
Y7850D01*
X-12520Y6150D02*
Y7850D01*
X-11600Y400D02*
X-850D01*
X-8570Y-1800D02*
Y2100D01*
X-8620Y-1800D02*
Y2100D01*
X-8520Y-1800D02*
Y2100D01*
X-8820Y-1800D02*
Y2100D01*
X-8920Y-1800D02*
Y2100D01*
X-8870Y-1800D02*
Y2100D01*
X-8670Y-1800D02*
Y2100D01*
X-8770Y-1800D02*
Y2100D01*
X-8720Y-1800D02*
Y2100D01*
X-8970Y-100D02*
Y1500D01*
X-9070Y-100D02*
Y1500D01*
X-9020Y-100D02*
Y1500D01*
X-9120Y-100D02*
Y1500D01*
X-9170Y-100D02*
Y1500D01*
X-11600Y350D02*
X-850D01*
X-11600Y550D02*
X-850D01*
X-11600Y850D02*
X-850D01*
X-11600Y600D02*
X-850D01*
X-11600Y800D02*
X-850D01*
X-11600Y950D02*
X-850D01*
X-11600Y900D02*
X-850D01*
X-11600Y450D02*
X-850D01*
X-11600Y650D02*
X-850D01*
X-11600Y500D02*
X-850D01*
X-11600Y1000D02*
X-850D01*
X-11600Y1050D02*
X-850D01*
X-11600Y700D02*
X-850D01*
X-11600Y750D02*
X-850D01*
X-8950Y-1250D02*
X-850D01*
X-8950Y-1500D02*
X-850D01*
X-8950Y-1350D02*
X-850D01*
X-8950Y-1050D02*
X-850D01*
X-8950Y-1200D02*
X-850D01*
X-8950Y-1100D02*
X-850D01*
X-8950Y-1550D02*
X-850D01*
X-8950Y-1650D02*
X-850D01*
X-8950Y-1600D02*
X-850D01*
X-11600Y200D02*
X-850D01*
X-11600Y100D02*
X-850D01*
X-11600Y150D02*
X-850D01*
X-11600Y250D02*
X-850D01*
X-11600Y300D02*
X-850D01*
X-8950Y-850D02*
X-850D01*
X-8950Y-1000D02*
X-850D01*
X-8950Y-900D02*
X-850D01*
X-11600Y50D02*
X-850D01*
X-11600Y-50D02*
X-850D01*
X-11600Y0D02*
X-850D01*
X-8950Y-1450D02*
X-850D01*
X-8950Y-1400D02*
X-850D01*
X-8950Y-950D02*
X-850D01*
X-8950Y-1300D02*
X-850D01*
X-8950Y-1150D02*
X-850D01*
X-8950Y-700D02*
X-850D01*
X-8950Y-800D02*
X-850D01*
X-8950Y-750D02*
X-850D01*
X-8950Y-250D02*
X-850D01*
X-8950Y-350D02*
X-850D01*
X-8950Y-300D02*
X-850D01*
X-8950Y-100D02*
X-850D01*
X-8950Y-200D02*
X-850D01*
X-8950Y-150D02*
X-850D01*
X-8950Y-550D02*
X-850D01*
X-8950Y-650D02*
X-850D01*
X-8950Y-600D02*
X-850D01*
X-8950Y-400D02*
X-850D01*
X-8950Y-500D02*
X-850D01*
X-8950Y-450D02*
X-850D01*
X-11600Y1100D02*
X-850D01*
X-11600Y1200D02*
X-850D01*
X-11600Y1150D02*
X-850D01*
X-11600Y1450D02*
X-850D01*
X-11600Y1300D02*
X-850D01*
X-11600Y1250D02*
X-850D01*
X-11600Y1400D02*
X-850D01*
X-11600Y1350D02*
X-850D01*
X-8950Y1500D02*
X-850D01*
X-8950Y2100D02*
X-7950D01*
X-8950Y1550D02*
X-850D01*
X-8950Y1600D02*
X-850D01*
X-8950Y1700D02*
X-850D01*
X-8950Y1650D02*
X-850D01*
X-8950Y1950D02*
X-850D01*
X-8950Y2050D02*
X-850D01*
X-8950Y2000D02*
X-850D01*
X-8950Y1800D02*
X-850D01*
X-8950Y1750D02*
X-850D01*
X-8950Y1900D02*
X-850D01*
X-8950Y1850D02*
X-850D01*
X-7950Y2100D02*
Y3300D01*
Y2100D02*
X-850D01*
X-7950Y2150D02*
X-850D01*
X-8070Y-1800D02*
Y2100D01*
X-7950Y2700D02*
X-850D01*
X-7950Y2750D02*
X-850D01*
X-7950Y2800D02*
X-850D01*
X-7950Y2850D02*
X-850D01*
X-7950Y3300D02*
X-7550D01*
X-7950Y2900D02*
X-850D01*
X-7950Y2950D02*
X-850D01*
X-7950Y2600D02*
X-850D01*
X-7950Y2650D02*
X-850D01*
X-7950Y3150D02*
X-850D01*
X-7950Y3200D02*
X-850D01*
X-7950Y3000D02*
X-850D01*
X-7950Y3100D02*
X-850D01*
X-7950Y3050D02*
X-850D01*
X-7950Y2250D02*
X-850D01*
X-7950Y2300D02*
X-850D01*
X-7950Y2200D02*
X-850D01*
X-7950Y2500D02*
X-850D01*
X-7950Y2550D02*
X-850D01*
X-7950Y2350D02*
X-850D01*
X-7950Y2450D02*
X-850D01*
X-7950Y2400D02*
X-850D01*
X-7950Y3250D02*
X-850D01*
X-7570Y-1800D02*
Y3300D01*
X-7550D02*
Y4600D01*
Y3300D02*
X-850D01*
X-8420Y-1800D02*
Y2100D01*
X-8470Y-1800D02*
Y2100D01*
X-8270Y-1800D02*
Y2100D01*
X-8370Y-1800D02*
Y2100D01*
X-8320Y-1800D02*
Y2100D01*
X-8120Y-1800D02*
Y2100D01*
X-8220Y-1800D02*
Y2100D01*
X-8170Y-1800D02*
Y2100D01*
X-7370Y-1800D02*
Y4600D01*
X-7470Y-1800D02*
Y4600D01*
X-7420Y-1800D02*
Y4600D01*
X-7220Y-1800D02*
Y4600D01*
X-7320Y-1800D02*
Y4600D01*
X-7270Y-1800D02*
Y4600D01*
X-7520Y-1800D02*
Y4600D01*
X-6770Y-1800D02*
Y4600D01*
X-6870Y-1800D02*
Y4600D01*
X-6820Y-1800D02*
Y4600D01*
X-6620Y-1800D02*
Y4600D01*
X-6720Y-1800D02*
Y4600D01*
X-6670Y-1800D02*
Y4600D01*
X-7070Y-1800D02*
Y4600D01*
X-7170Y-1800D02*
Y4600D01*
X-7120Y-1800D02*
Y4600D01*
X-6920Y-1800D02*
Y4600D01*
X-7020Y-1800D02*
Y4600D01*
X-6970Y-1800D02*
Y4600D01*
X-6270Y-1800D02*
Y4730D01*
X-6220Y-1800D02*
Y4780D01*
X-6170Y-1800D02*
Y4830D01*
X-6120Y-1800D02*
Y4880D01*
X-6070Y-1800D02*
Y4930D01*
X-6470Y-1800D02*
Y4600D01*
X-6570Y-1800D02*
Y4600D01*
X-6520Y-1800D02*
Y4600D01*
X-6420Y-1800D02*
Y4600D01*
X-6370Y-1800D02*
Y4630D01*
X-6320Y-1800D02*
Y4680D01*
X-2270Y-1800D02*
Y4200D01*
X-6020Y-1800D02*
Y4980D01*
X-5920Y-1800D02*
Y5080D01*
X-2220Y-1800D02*
Y4200D01*
X-2120Y-1800D02*
Y4200D01*
X-5970Y-1800D02*
Y5030D01*
X-2170Y-1800D02*
Y4200D01*
X-1820Y-1800D02*
Y4200D01*
X-2070Y-1800D02*
Y4200D01*
X-1870Y-1800D02*
Y4200D01*
X-5470Y-1800D02*
Y5250D01*
X-5570Y-1800D02*
Y5250D01*
X-5520Y-1800D02*
Y5250D01*
X-5320Y-1800D02*
Y5250D01*
X-5420Y-1800D02*
Y5250D01*
X-5370Y-1800D02*
Y5250D01*
X-5870Y-1800D02*
Y5130D01*
X-5820Y-1800D02*
Y5180D01*
X-5770Y-1800D02*
Y5230D01*
X-5620Y-1800D02*
Y5250D01*
X-5720Y-1800D02*
Y5250D01*
X-5670Y-1800D02*
Y5250D01*
X-5120Y-1800D02*
Y5250D01*
X-5270Y-1800D02*
Y5250D01*
X-5170Y-1800D02*
Y5250D01*
X-5070Y-1800D02*
Y5250D01*
X-4970Y-1800D02*
Y5250D01*
X-5220Y-1800D02*
Y5250D01*
X-5020Y-1800D02*
Y5250D01*
X-4820Y-1800D02*
Y5250D01*
X-4920Y-1800D02*
Y5250D01*
X-4870Y-1800D02*
Y5250D01*
X-4670Y-1800D02*
Y5250D01*
X-4770Y-1800D02*
Y5250D01*
X-4720Y-1800D02*
Y5250D01*
X-4220Y-1800D02*
Y5250D01*
X-4320Y-1800D02*
Y5250D01*
X-4270Y-1800D02*
Y5250D01*
X-4070Y-1800D02*
Y5250D01*
X-4170Y-1800D02*
Y5250D01*
X-4120Y-1800D02*
Y5250D01*
X-4520Y-1800D02*
Y5250D01*
X-4620Y-1800D02*
Y5250D01*
X-4570Y-1800D02*
Y5250D01*
X-4370Y-1800D02*
Y5250D01*
X-4470Y-1800D02*
Y5250D01*
X-4420Y-1800D02*
Y5250D01*
X-3620Y-1800D02*
Y5250D01*
X-3720Y-1800D02*
Y5250D01*
X-3670Y-1800D02*
Y5250D01*
X-3470Y-1800D02*
Y5250D01*
X-3570Y-1800D02*
Y5250D01*
X-3520Y-1800D02*
Y5250D01*
X-3920Y-1800D02*
Y5250D01*
X-4020Y-1800D02*
Y5250D01*
X-3970Y-1800D02*
Y5250D01*
X-3770Y-1800D02*
Y5250D01*
X-3870Y-1800D02*
Y5250D01*
X-3820Y-1800D02*
Y5250D01*
X-2620Y-1800D02*
Y4200D01*
X-2720Y-1800D02*
Y4200D01*
X-2670Y-1800D02*
Y4200D01*
X-2470Y-1800D02*
Y4200D01*
X-2570Y-1800D02*
Y4200D01*
X-2520Y-1800D02*
Y4200D01*
X-2870Y-1800D02*
Y4200D01*
X-2970Y-1800D02*
Y4200D01*
X-2920Y-1800D02*
Y4200D01*
X-2820Y-1800D02*
Y4200D01*
X-2770Y-1800D02*
Y4200D01*
X-2320Y-1800D02*
Y4200D01*
X-2420Y-1800D02*
Y4200D01*
X-2370Y-1800D02*
Y4200D01*
X-1920Y-1800D02*
Y4200D01*
X-2020Y-1800D02*
Y4200D01*
X-1970Y-1800D02*
Y4200D01*
X-1220Y-1800D02*
Y4200D01*
X-1770Y-1800D02*
Y4200D01*
X-1720Y-1800D02*
Y4200D01*
X-1120Y-1800D02*
Y4200D01*
X-1070Y-1800D02*
Y4200D01*
X-3020Y-1800D02*
Y5250D01*
X-3120Y-1800D02*
Y5250D01*
X-3070Y-1800D02*
Y5250D01*
X-1570Y-1800D02*
Y4200D01*
X-1670Y-1800D02*
Y4200D01*
X-1620Y-1800D02*
Y4200D01*
X-3320Y-1800D02*
Y5250D01*
X-3420Y-1800D02*
Y5250D01*
X-3370Y-1800D02*
Y5250D01*
X-3170Y-1800D02*
Y5250D01*
X-3270Y-1800D02*
Y5250D01*
X-3220Y-1800D02*
Y5250D01*
X-970Y-1800D02*
Y4200D01*
X-1170Y-1800D02*
Y4200D01*
X-1020Y-1800D02*
Y4200D01*
X-850Y-1800D02*
Y4200D01*
X-920Y-1800D02*
Y4200D01*
X-870Y-1800D02*
Y4200D01*
X-1420Y-1800D02*
Y4200D01*
X-1520Y-1800D02*
Y4200D01*
X-1470Y-1800D02*
Y4200D01*
X-1270Y-1800D02*
Y4200D01*
X-1370Y-1800D02*
Y4200D01*
X-1320Y-1800D02*
Y4200D01*
X-8950Y-1800D02*
Y-100D01*
X-12017Y6250D02*
X-7000D01*
X-12068Y6300D02*
X-6950D01*
X-12120Y6350D02*
X-6900D01*
X-12120Y6600D02*
X-6650D01*
X-12120Y6650D02*
X-6600D01*
X-12120Y6700D02*
X-6550D01*
X-12120Y6400D02*
X-6850D01*
X-12120Y6450D02*
X-6800D01*
X-12120Y6500D02*
X-6750D01*
X-12120Y6550D02*
X-6700D01*
X-12120Y6750D02*
X-6500D01*
X-12120Y6800D02*
X-850D01*
X-7370Y6200D02*
Y7850D01*
X-7670Y6200D02*
Y7850D01*
X-7720Y6200D02*
Y7850D01*
X-7270Y6200D02*
Y7850D01*
X-7320Y6200D02*
Y7850D01*
X-7120Y6200D02*
Y7850D01*
X-7220Y6200D02*
Y7850D01*
X-7170Y6200D02*
Y7850D01*
X-7570Y6200D02*
Y7850D01*
X-7620Y6200D02*
Y7850D01*
X-7420Y6200D02*
Y7850D01*
X-7520Y6200D02*
Y7850D01*
X-7470Y6200D02*
Y7850D01*
X-8450Y6200D02*
X-7050D01*
X-7070D02*
Y7850D01*
X-7550Y4200D02*
X-3000D01*
X-7550Y4250D02*
X-3000D01*
X-7550Y4300D02*
X-3000D01*
X-7550Y4400D02*
X-3000D01*
X-7550Y4350D02*
X-3000D01*
X-7550Y4600D02*
X-6400D01*
X-7550Y4450D02*
X-3000D01*
X-7550Y4550D02*
X-3000D01*
X-7550Y4500D02*
X-3000D01*
X-7550Y4100D02*
X-850D01*
X-7550Y4150D02*
X-850D01*
X-6400Y4600D02*
X-3000D01*
X-6350Y4650D02*
X-3000D01*
X-6300Y4700D02*
X-3000D01*
X-6250Y4750D02*
X-3000D01*
X-6200Y4800D02*
X-3000D01*
X-6000Y5000D02*
X-3000D01*
X-5950Y5050D02*
X-3000D01*
X-6150Y4850D02*
X-3000D01*
X-6100Y4900D02*
X-3000D01*
X-6050Y4950D02*
X-3000D01*
X-5900Y5100D02*
X-3000D01*
X-5850Y5150D02*
X-3000D01*
X-5800Y5200D02*
X-3000D01*
X-5750Y5250D02*
X-3000D01*
X-7550Y3400D02*
X-850D01*
X-7550Y3600D02*
X-850D01*
X-7550Y3650D02*
X-850D01*
X-7550Y3450D02*
X-850D01*
X-7550Y3550D02*
X-850D01*
X-7550Y3500D02*
X-850D01*
X-7550Y3850D02*
X-850D01*
X-7550Y3900D02*
X-850D01*
X-7550Y3700D02*
X-850D01*
X-7550Y3800D02*
X-850D01*
X-7550Y3750D02*
X-850D01*
X-7550Y3950D02*
X-850D01*
X-7550Y4050D02*
X-850D01*
X-7550Y4000D02*
X-850D01*
X-12120Y7150D02*
X-850D01*
X-12120Y7250D02*
X-850D01*
X-12120Y7200D02*
X-850D01*
X-12120Y7100D02*
X-850D01*
X-12120Y6900D02*
X-850D01*
X-12120Y7350D02*
X-850D01*
X-12120Y7300D02*
X-850D01*
X-12120Y7450D02*
X-850D01*
X-12120Y7550D02*
X-850D01*
X-12120Y7500D02*
X-850D01*
X-12120Y7000D02*
X-850D01*
X-12120Y6950D02*
X-850D01*
X-12120Y7400D02*
X-850D01*
X-12120Y7050D02*
X-850D01*
X-12120Y7600D02*
X-850D01*
X-4470Y6750D02*
Y7850D01*
X-4420Y6750D02*
Y7850D01*
X-5070Y6750D02*
Y7850D01*
X-4970Y6750D02*
Y7850D01*
X-5020Y6750D02*
Y7850D01*
X-4620Y6750D02*
Y7850D01*
X-4670Y6750D02*
Y7850D01*
X-4570Y6750D02*
Y7850D01*
X-4520Y6750D02*
Y7850D01*
X-4870Y6750D02*
Y7850D01*
X-4920Y6750D02*
Y7850D01*
X-4720Y6750D02*
Y7850D01*
X-4820Y6750D02*
Y7850D01*
X-4770Y6750D02*
Y7850D01*
X-3020Y6750D02*
Y7850D01*
X-2920Y6750D02*
Y7850D01*
X-3070Y6750D02*
Y7850D01*
X-2970Y6750D02*
Y7850D01*
X-2820Y6750D02*
Y7850D01*
X-2870Y6750D02*
Y7850D01*
X-2770Y6750D02*
Y7850D01*
X-2720Y6750D02*
Y7850D01*
X-2420Y6750D02*
Y7850D01*
X-2620Y6750D02*
Y7850D01*
X-2670Y6750D02*
Y7850D01*
X-2470Y6750D02*
Y7850D01*
X-2570Y6750D02*
Y7850D01*
X-2520Y6750D02*
Y7850D01*
X-14820Y-1650D02*
Y970D01*
X-14870Y-1650D02*
Y1020D01*
X-14670Y-1650D02*
Y850D01*
X-14770Y-1650D02*
Y920D01*
X-14720Y-1650D02*
Y870D01*
X-14920Y-1650D02*
Y1070D01*
X-14970Y-1650D02*
Y1120D01*
X-14620Y-1650D02*
Y850D01*
X-15770Y-1650D02*
Y7850D01*
X-15620Y-1650D02*
Y7850D01*
X-15720Y-1650D02*
Y7850D01*
X-15670Y-1650D02*
Y7850D01*
X-15170Y-1650D02*
Y7850D01*
X-15270Y-1650D02*
Y7850D01*
X-15220Y-1650D02*
Y7850D01*
X-15020Y-1650D02*
Y7850D01*
X-15120Y-1650D02*
Y7850D01*
X-15070Y-1650D02*
Y7850D01*
X-15470Y-1650D02*
Y7850D01*
X-15570Y-1650D02*
Y7850D01*
X-15520Y-1650D02*
Y7850D01*
X-15320Y-1650D02*
Y7850D01*
X-15420Y-1650D02*
Y7850D01*
X-15370Y-1650D02*
Y7850D01*
X-18400Y1200D02*
X-15000D01*
X-18400Y1000D02*
X-14850D01*
X-18400Y950D02*
X-14800D01*
X-18400Y1150D02*
X-15000D01*
X-18400Y1050D02*
X-14900D01*
X-18400Y1100D02*
X-14950D01*
X-15000Y1150D02*
Y2050D01*
X-18400Y900D02*
X-14750D01*
X-18400Y850D02*
X-14700D01*
X-15000Y1150D02*
X-14700Y850D01*
X-18400Y2100D02*
X-14950D01*
X-14920Y2130D02*
Y3220D01*
X-18400Y2150D02*
X-14900D01*
X-18400Y3150D02*
X-14850D01*
X-18400Y2200D02*
X-14850D01*
X-14870Y2180D02*
Y3170D01*
X-18400Y3200D02*
X-14900D01*
X-18400Y3050D02*
X-14750D01*
X-18400Y2250D02*
X-14800D01*
X-18400Y2300D02*
X-14750D01*
X-18400Y3100D02*
X-14800D01*
X-14820Y2230D02*
Y3120D01*
X-14770Y2280D02*
Y3070D01*
X-14970Y2080D02*
Y7850D01*
X-18400Y2650D02*
X-14700D01*
X-18400Y2600D02*
X-14700D01*
X-18400Y2700D02*
X-14700D01*
X-18400Y2750D02*
X-14700D01*
X-18400Y2400D02*
X-14700D01*
X-18400Y2350D02*
X-14700D01*
X-18400Y2550D02*
X-14700D01*
X-18400Y2450D02*
X-14700D01*
X-18400Y2500D02*
X-14700D01*
X-15000Y2050D02*
X-14700Y2350D01*
X-18400Y2850D02*
X-14700D01*
X-14720Y2330D02*
Y3020D01*
X-18400Y2900D02*
X-14700D01*
X-18400Y2800D02*
X-14700D01*
Y2350D02*
Y3000D01*
X-18400D02*
X-14700D01*
X-18400Y2950D02*
X-14700D01*
X-18400Y4250D02*
X-14950D01*
X-18400Y4350D02*
X-14950D01*
X-18400Y4300D02*
X-14950D01*
X-18400Y4500D02*
X-14950D01*
X-18400Y4400D02*
X-14950D01*
X-18400Y4450D02*
X-14950D01*
X-18400Y4600D02*
X-14950D01*
X-18400Y4550D02*
X-14950D01*
X-18400Y4650D02*
X-14950D01*
X-18400Y4700D02*
X-14950D01*
X-18400Y4850D02*
X-14800D01*
X-18400Y4750D02*
X-14900D01*
X-18400Y4800D02*
X-14850D01*
X-18400Y4950D02*
X-14700D01*
X-18400Y4900D02*
X-14750D01*
X-18400Y-1450D02*
X-11500D01*
X-18400Y-1500D02*
X-11500D01*
X-18400Y-1650D02*
X-11500D01*
X-18400Y-1550D02*
X-11500D01*
X-18400Y-1600D02*
X-11500D01*
X-18400Y-1400D02*
X-11500D01*
X-14920Y4730D02*
Y7850D01*
X-14870Y4780D02*
Y7850D01*
X-14820Y4830D02*
Y7850D01*
X-14770Y4880D02*
Y7850D01*
X-18400Y7150D02*
X-11750D01*
X-18400Y6950D02*
X-11750D01*
X-18400Y6900D02*
X-11750D01*
X-18400Y7100D02*
X-11750D01*
X-18400Y7000D02*
X-11750D01*
X-18400Y7050D02*
X-11750D01*
X-18400Y5250D02*
X-14400D01*
X-18400Y5200D02*
X-14450D01*
X-18400Y5350D02*
X-14300D01*
X-18400Y5300D02*
X-14350D01*
X-18400Y5500D02*
X-14150D01*
X-18400Y5400D02*
X-14250D01*
X-18400Y5450D02*
X-14200D01*
X-18400Y5600D02*
X-14050D01*
X-18400Y5550D02*
X-14100D01*
X-18400Y5750D02*
X-13900D01*
X-18400Y5650D02*
X-14000D01*
X-18400Y5700D02*
X-13950D01*
X-18400Y5850D02*
X-13800D01*
X-18400Y5800D02*
X-13850D01*
X-18400Y5900D02*
X-13750D01*
X-14570Y5080D02*
Y7850D01*
X-14520Y5130D02*
Y7850D01*
X-14720Y4930D02*
Y7850D01*
X-14670Y4980D02*
Y7850D01*
X-14620Y5030D02*
Y7850D01*
X-14470Y5180D02*
Y7850D01*
X-14420Y5230D02*
Y7850D01*
X-14370Y5280D02*
Y7850D01*
X-16770Y-1650D02*
Y7850D01*
X-17220Y-1650D02*
Y7850D01*
X-17070Y-1650D02*
Y7850D01*
X-17170Y-1650D02*
Y7850D01*
X-17120Y-1650D02*
Y7850D01*
X-16570Y-1650D02*
Y7850D01*
X-16670Y-1650D02*
Y7850D01*
X-16620Y-1650D02*
Y7850D01*
X-16920Y-1650D02*
Y7850D01*
X-17020Y-1650D02*
Y7850D01*
X-16970Y-1650D02*
Y7850D01*
X-16720Y-1650D02*
Y7850D01*
X-16870Y-1650D02*
Y7850D01*
X-16820Y-1650D02*
Y7850D01*
X-18400Y-1250D02*
X-11500D01*
X-18400Y-1150D02*
X-11500D01*
X-18400Y-1200D02*
X-11500D01*
X-18400Y-1300D02*
X-11500D01*
X-18400Y-1350D02*
X-11500D01*
X-18400Y-950D02*
X-11300D01*
X-18400Y-850D02*
X-11300D01*
X-18400Y-900D02*
X-11300D01*
X-18400Y-1100D02*
X-11450D01*
X-18400Y-1050D02*
X-11400D01*
X-18400Y-1000D02*
X-11350D01*
X-18400Y5000D02*
X-14650D01*
X-18400Y5100D02*
X-14550D01*
X-18400Y5050D02*
X-14600D01*
X-18400Y5150D02*
X-14500D01*
X-12120Y6850D02*
X-850D01*
X-11420Y5700D02*
Y7850D01*
X-11470Y5719D02*
Y7850D01*
X-10870Y5700D02*
Y7850D01*
X-11320Y5700D02*
Y7850D01*
X-10770Y5700D02*
Y7850D01*
X-10820Y5700D02*
Y7850D01*
X-11370Y5700D02*
Y7850D01*
X-10920Y5700D02*
Y7850D01*
X-11070Y5700D02*
Y7850D01*
X-11120Y5700D02*
Y7850D01*
X-11020Y5700D02*
Y7850D01*
X-11270Y5700D02*
Y7850D01*
X-11170Y5700D02*
Y7850D01*
X-11220Y5700D02*
Y7850D01*
X-10970Y5700D02*
Y7850D01*
X-11970Y-1650D02*
Y4600D01*
X-12070Y-1650D02*
Y4600D01*
X-12020Y-1650D02*
Y4600D01*
X-11820Y-1650D02*
Y4600D01*
X-11920Y-1650D02*
Y4600D01*
X-11870Y-1650D02*
Y4600D01*
X-12120Y-1650D02*
Y4600D01*
X-12170Y-1650D02*
Y4600D01*
X-11570Y-100D02*
Y1500D01*
X-11600Y-100D02*
Y1500D01*
X-11520Y-100D02*
Y1500D01*
X-11470Y-100D02*
Y1500D01*
X-11670Y-1650D02*
Y2720D01*
X-11770Y-1650D02*
Y4600D01*
X-11720Y-1650D02*
Y2770D01*
X-11520Y-1650D02*
Y2570D01*
X-11620Y-1650D02*
Y2670D01*
X-11570Y-1650D02*
Y2620D01*
X-11470Y-1120D02*
Y2520D01*
X-6500Y6750D02*
X-1650D01*
X-6500D02*
X-1650D01*
X-6270D02*
Y7850D01*
X-6370Y6750D02*
Y7850D01*
X-6320Y6750D02*
Y7850D01*
X-5970Y6750D02*
Y7850D01*
X-6020Y6750D02*
Y7850D01*
X-5820Y6750D02*
Y7850D01*
X-5920Y6750D02*
Y7850D01*
X-5870Y6750D02*
Y7850D01*
X-6170Y6750D02*
Y7850D01*
X-6220Y6750D02*
Y7850D01*
X-6120Y6750D02*
Y7850D01*
X-6070Y6750D02*
Y7850D01*
X-5720Y6750D02*
Y7850D01*
X-5770Y6750D02*
Y7850D01*
X-13820Y-1650D02*
Y850D01*
X-18400Y-50D02*
X-11300D01*
X-18400Y50D02*
X-11300D01*
X-18400Y0D02*
X-11300D01*
X-18400Y-200D02*
X-11300D01*
X-18400Y-100D02*
X-11300D01*
X-18400Y-150D02*
X-11300D01*
X-18400Y-650D02*
X-11300D01*
X-18400Y-550D02*
X-11300D01*
X-18400Y-600D02*
X-11300D01*
X-18400Y-800D02*
X-11300D01*
X-18400Y-700D02*
X-11300D01*
X-18400Y-750D02*
X-11300D01*
X-18400Y-350D02*
X-11300D01*
X-18400Y-250D02*
X-11300D01*
X-18400Y-300D02*
X-11300D01*
X-18400Y-500D02*
X-11300D01*
X-18400Y-400D02*
X-11300D01*
X-18400Y-450D02*
X-11300D01*
X-13700Y3000D02*
X-13350Y3350D01*
Y3900D01*
X-13450Y3250D02*
X-11750D01*
X-13400Y3300D02*
X-11750D01*
X-13350Y3350D02*
X-11750D01*
X-13350Y3700D02*
X-11750D01*
X-13350Y3500D02*
X-11750D01*
X-13350Y3400D02*
X-11750D01*
X-13350Y3450D02*
X-11750D01*
X-13350Y3650D02*
X-11750D01*
X-13350Y3550D02*
X-11750D01*
X-13350Y3600D02*
X-11750D01*
X-13350Y3900D02*
X-12650Y4600D01*
X-13400Y1300D02*
X-11300D01*
X-13400Y1250D02*
X-11300D01*
X-13400Y1650D02*
X-11300D01*
X-13400Y1600D02*
X-11300D01*
X-13400Y1700D02*
X-11300D01*
X-13400Y1750D02*
X-11300D01*
X-13400Y1400D02*
X-11300D01*
X-13400Y1350D02*
X-11300D01*
X-13400Y1550D02*
X-11300D01*
X-13400Y1450D02*
X-11300D01*
X-13400Y1500D02*
X-11300D01*
X-13400Y1800D02*
X-11300D01*
X-13400Y1900D02*
X-11300D01*
X-13400Y1850D02*
X-11300D01*
X-13400Y1950D02*
X-11300D01*
X-13400Y2000D02*
X-11300D01*
X-13400Y2050D02*
X-11300D01*
X-12750Y4500D02*
X-11750D01*
X-12700Y4550D02*
X-11750D01*
X-12650Y4600D02*
X-11750D01*
X-18400Y-1650D02*
Y7850D01*
X-18370Y-1650D02*
Y7850D01*
X-18220Y-1650D02*
Y7850D01*
X-18320Y-1650D02*
Y7850D01*
X-18270Y-1650D02*
Y7850D01*
X-18070Y-1650D02*
Y7850D01*
X-18170Y-1650D02*
Y7850D01*
X-18120Y-1650D02*
Y7850D01*
X-17620Y-1650D02*
Y7850D01*
X-17720Y-1650D02*
Y7850D01*
X-17670Y-1650D02*
Y7850D01*
X-17570Y-1650D02*
Y7850D01*
X-17520Y-1650D02*
Y7850D01*
X-17920Y-1650D02*
Y7850D01*
X-18020Y-1650D02*
Y7850D01*
X-17970Y-1650D02*
Y7850D01*
X-17770Y-1650D02*
Y7850D01*
X-17870Y-1650D02*
Y7850D01*
X-17820Y-1650D02*
Y7850D01*
X-17370Y-1650D02*
Y7850D01*
X-17470Y-1650D02*
Y7850D01*
X-17420Y-1650D02*
Y7850D01*
X-17320Y-1650D02*
Y7850D01*
X-17270Y-1650D02*
Y7850D01*
X-16420Y-1650D02*
Y7850D01*
X-16520Y-1650D02*
Y7850D01*
X-16470Y-1650D02*
Y7850D01*
X-15920Y-1650D02*
Y7850D01*
X-16020Y-1650D02*
Y7850D01*
X-15970Y-1650D02*
Y7850D01*
X-15870Y-1650D02*
Y7850D01*
X-14220Y-1650D02*
Y850D01*
X-14320Y-1650D02*
Y850D01*
X-14270Y-1650D02*
Y850D01*
X-14170Y-1650D02*
Y850D01*
X-14120Y-1650D02*
Y850D01*
X-14520Y-1650D02*
Y850D01*
X-14570Y-1650D02*
Y850D01*
X-14370Y-1650D02*
Y850D01*
X-14470Y-1650D02*
Y850D01*
X-14420Y-1650D02*
Y850D01*
X-16070Y-1650D02*
Y7850D01*
X-15820Y-1650D02*
Y7850D01*
X-16270Y-1650D02*
Y7850D01*
X-16370Y-1650D02*
Y7850D01*
X-16320Y-1650D02*
Y7850D01*
X-16120Y-1650D02*
Y7850D01*
X-16220Y-1650D02*
Y7850D01*
X-16170Y-1650D02*
Y7850D01*
X-14020Y-1650D02*
Y850D01*
X-14070Y-1650D02*
Y850D01*
X-13870Y-1650D02*
Y850D01*
X-13970Y-1650D02*
Y850D01*
X-13920Y-1650D02*
Y850D01*
X-11420Y-100D02*
Y1500D01*
X-11370Y-100D02*
Y1500D01*
X-11320Y-100D02*
Y1500D01*
X-11270Y-100D02*
Y1500D01*
X-11220Y-100D02*
Y1500D01*
X-11370Y-1020D02*
Y2420D01*
X-11420Y-1070D02*
Y2470D01*
X-11320Y-970D02*
Y2370D01*
X-11300Y-950D02*
Y2350D01*
X-11750Y2800D02*
X-11300Y2350D01*
X-11750Y2800D02*
Y4600D01*
X-11965Y6200D02*
X-8450D01*
X-14170Y5480D02*
Y7850D01*
X-14320Y5330D02*
Y7850D01*
X-14270Y5380D02*
Y7850D01*
X-14220Y5430D02*
Y7850D01*
X-13270Y6150D02*
Y7850D01*
X-13320Y6150D02*
Y7850D01*
X-13370Y6150D02*
Y7850D01*
X-13070Y6150D02*
Y7850D01*
X-13020Y6150D02*
Y7850D01*
X-13220Y6150D02*
Y7850D01*
X-13120Y6150D02*
Y7850D01*
X-13170Y6150D02*
Y7850D01*
X-12970Y6150D02*
Y7850D01*
X-12220Y6150D02*
Y7850D01*
X-12020Y6150D02*
Y7850D01*
X-11970Y6150D02*
Y7850D01*
X-12170Y6150D02*
Y7850D01*
X-12070Y6150D02*
Y7850D01*
X-12120Y6150D02*
Y7850D01*
X-11720Y5962D02*
Y7850D01*
X-11670Y5913D02*
Y7850D01*
X-11870Y6107D02*
Y7850D01*
X-11770Y6010D02*
Y7850D01*
X-11820Y6059D02*
Y7850D01*
X-12020Y6253D02*
Y7850D01*
X-11970Y6204D02*
Y7850D01*
X-12070Y6301D02*
Y7850D01*
X-11820Y6150D02*
Y7850D01*
X-11750Y6150D02*
Y7850D01*
X-11770Y6150D02*
Y7850D01*
X-11920Y6150D02*
Y7850D01*
X-11870Y6150D02*
Y7850D01*
X-11920Y6156D02*
Y7850D01*
X-12120Y6350D02*
X-11450Y5700D01*
X-18400Y6100D02*
X-13550D01*
X-14950Y4700D02*
X-13500Y6150D01*
X-11914D02*
X-8500D01*
X-12120Y6350D02*
Y7850D01*
Y6350D02*
Y7850D01*
X-18400Y6000D02*
X-13650D01*
X-18400Y5950D02*
X-13700D01*
X-18400Y6050D02*
X-13600D01*
X-18400Y7250D02*
X-11750D01*
X-18400Y7400D02*
X-11750D01*
X-18400Y7300D02*
X-11750D01*
X-18400Y7350D02*
X-11750D01*
X-18400Y7500D02*
X-11750D01*
X-18400Y7450D02*
X-11750D01*
X-18400Y7650D02*
X-11750D01*
X-18400Y7550D02*
X-11750D01*
X-18400Y7600D02*
X-11750D01*
X-18400Y7750D02*
X-11750D01*
X-18400Y7700D02*
X-11750D01*
X-18400Y7800D02*
X-11750D01*
X-18400Y7850D02*
X-11750D01*
X-18400Y7200D02*
X-11750D01*
X-11862Y6100D02*
X-8550D01*
X-10320Y-100D02*
Y1500D01*
X-10870Y-100D02*
Y1500D01*
X-10820Y-100D02*
Y1500D01*
X-10070Y-100D02*
Y1500D01*
X-10270Y-100D02*
Y1500D01*
X-10120Y-100D02*
Y1500D01*
X-11070Y-100D02*
Y1500D01*
X-11170Y-100D02*
Y1500D01*
X-11120Y-100D02*
Y1500D01*
X-10920Y-100D02*
Y1500D01*
X-11020Y-100D02*
Y1500D01*
X-10970Y-100D02*
Y1500D01*
X-10770Y-100D02*
Y1500D01*
X-10220Y-100D02*
Y1500D01*
X-10420Y-100D02*
Y1500D01*
X-10370Y-100D02*
Y1500D01*
X-9970Y-100D02*
Y1500D01*
X-10170Y-100D02*
Y1500D01*
X-10020Y-100D02*
Y1500D01*
X-10620Y-100D02*
Y1500D01*
X-10720Y-100D02*
Y1500D01*
X-10670Y-100D02*
Y1500D01*
X-10470Y-100D02*
Y1500D01*
X-10570Y-100D02*
Y1500D01*
X-10520Y-100D02*
Y1500D01*
X-9570Y-100D02*
Y1500D01*
X-9620Y-100D02*
Y1500D01*
X-9420Y-100D02*
Y1500D01*
X-9520Y-100D02*
Y1500D01*
X-9470Y-100D02*
Y1500D01*
X-9820Y-100D02*
Y1500D01*
X-9920Y-100D02*
Y1500D01*
X-9870Y-100D02*
Y1500D01*
X-9670Y-100D02*
Y1500D01*
X-9770Y-100D02*
Y1500D01*
X-9720Y-100D02*
Y1500D01*
X-9270Y-100D02*
Y1500D01*
X-9370Y-100D02*
Y1500D01*
X-9320Y-100D02*
Y1500D01*
X-9220Y-100D02*
Y1500D01*
X-11600Y-100D02*
X-8950D01*
X-11600D02*
X-8950D01*
X-11600Y1500D02*
X-8950D01*
Y2100D01*
X-7550Y3350D02*
X-850D01*
X-6400Y4600D02*
X-5750Y5250D01*
X-3000Y4200D02*
X-850D01*
X-3000D02*
X-850D01*
X-3000D02*
Y5250D01*
X-8950Y5700D02*
X-8450Y6200D01*
X-8570Y6080D02*
Y7850D01*
X-8520Y6130D02*
Y7850D01*
X-11620Y5865D02*
Y7850D01*
X-11520Y5768D02*
Y7850D01*
X-11570Y5816D02*
Y7850D01*
X-10720Y5700D02*
Y7850D01*
X-10670Y5700D02*
Y7850D01*
X-10470Y5700D02*
Y7850D01*
X-10370Y5700D02*
Y7850D01*
X-10420Y5700D02*
Y7850D01*
X-10620Y5700D02*
Y7850D01*
X-10520Y5700D02*
Y7850D01*
X-10570Y5700D02*
Y7850D01*
X-9970Y5700D02*
Y7850D01*
X-9920Y5700D02*
Y7850D01*
X-10120Y5700D02*
Y7850D01*
X-10020Y5700D02*
Y7850D01*
X-10070Y5700D02*
Y7850D01*
X-9720Y5700D02*
Y7850D01*
X-9670Y5700D02*
Y7850D01*
X-9870Y5700D02*
Y7850D01*
X-9770Y5700D02*
Y7850D01*
X-9820Y5700D02*
Y7850D01*
X-10220Y5700D02*
Y7850D01*
X-10170Y5700D02*
Y7850D01*
X-10270Y5700D02*
Y7850D01*
X-10320Y5700D02*
Y7850D01*
X-9470Y5700D02*
Y7850D01*
X-9420Y5700D02*
Y7850D01*
X-9620Y5700D02*
Y7850D01*
X-9520Y5700D02*
Y7850D01*
X-9570Y5700D02*
Y7850D01*
X-9220Y5700D02*
Y7850D01*
X-9170Y5700D02*
Y7850D01*
X-9370Y5700D02*
Y7850D01*
X-9270Y5700D02*
Y7850D01*
X-9320Y5700D02*
Y7850D01*
X-8970Y5700D02*
Y7850D01*
X-8920Y5730D02*
Y7850D01*
X-9120Y5700D02*
Y7850D01*
X-9020Y5700D02*
Y7850D01*
X-9070Y5700D02*
Y7850D01*
X-8720Y5930D02*
Y7850D01*
X-8670Y5980D02*
Y7850D01*
X-8620Y6030D02*
Y7850D01*
X-8870Y5780D02*
Y7850D01*
X-8820Y5830D02*
Y7850D01*
X-8770Y5880D02*
Y7850D01*
X-8370Y6200D02*
Y7850D01*
X-8420Y6200D02*
Y7850D01*
X-8320Y6200D02*
Y7850D01*
X-8270Y6200D02*
Y7850D01*
X-8170Y6200D02*
Y7850D01*
X-8220Y6200D02*
Y7850D01*
X-8120Y6200D02*
Y7850D01*
X-8070Y6200D02*
Y7850D01*
X-7970Y6200D02*
Y7850D01*
X-8020Y6200D02*
Y7850D01*
X-7920Y6200D02*
Y7850D01*
X-7870Y6200D02*
Y7850D01*
X-7820Y6200D02*
Y7850D01*
X-8470Y6180D02*
Y7850D01*
X-7770Y6200D02*
Y7850D01*
X-7050Y6200D02*
X-6500Y6750D01*
X-7020Y6230D02*
Y7850D01*
X-6970Y6280D02*
Y7850D01*
X-6920Y6330D02*
Y7850D01*
X-6870Y6380D02*
Y7850D01*
X-6670Y6580D02*
Y7850D01*
X-6770Y6480D02*
Y7850D01*
X-6720Y6530D02*
Y7850D01*
X-6620Y6630D02*
Y7850D01*
X-6820Y6430D02*
Y7850D01*
X-6570Y6680D02*
Y7850D01*
X-6520Y6730D02*
Y7850D01*
X-6470Y6750D02*
Y7850D01*
X-6420Y6750D02*
Y7850D01*
X-5470Y6750D02*
Y7850D01*
X-5420Y6750D02*
Y7850D01*
X-5670Y6750D02*
Y7850D01*
X-5370Y6750D02*
Y7850D01*
X-5170Y6750D02*
Y7850D01*
X-1650Y5750D02*
Y6750D01*
X-4370D02*
Y7850D01*
X-4220Y6750D02*
Y7850D01*
X-4320Y6750D02*
Y7850D01*
X-4270Y6750D02*
Y7850D01*
X-4020Y6750D02*
Y7850D01*
X-4070Y6750D02*
Y7850D01*
X-3920Y6750D02*
Y7850D01*
X-3970Y6750D02*
Y7850D01*
X-5270Y6750D02*
Y7850D01*
X-5320Y6750D02*
Y7850D01*
X-4120Y6750D02*
Y7850D01*
X-5220Y6750D02*
Y7850D01*
X-4170Y6750D02*
Y7850D01*
X-3570Y6750D02*
Y7850D01*
X-3620Y6750D02*
Y7850D01*
X-1570Y5750D02*
Y7850D01*
X-3520Y6750D02*
Y7850D01*
X-1620Y5750D02*
Y7850D01*
X-3820Y6750D02*
Y7850D01*
X-3870Y6750D02*
Y7850D01*
X-3670Y6750D02*
Y7850D01*
X-3770Y6750D02*
Y7850D01*
X-3720Y6750D02*
Y7850D01*
X-1470Y5750D02*
Y7850D01*
X-1520Y5750D02*
Y7850D01*
X-1320Y5750D02*
Y7850D01*
X-1420Y5750D02*
Y7850D01*
X-1370Y5750D02*
Y7850D01*
X-970Y5750D02*
Y7850D01*
X-1020Y5750D02*
Y7850D01*
X-850Y5750D02*
Y7850D01*
X-920Y5750D02*
Y7850D01*
X-870Y5750D02*
Y7850D01*
X-1220Y5750D02*
Y7850D01*
X-1270Y5750D02*
Y7850D01*
X-1070Y5750D02*
Y7850D01*
X-1170Y5750D02*
Y7850D01*
X-1120Y5750D02*
Y7850D01*
X-5120Y6750D02*
Y7850D01*
X-5520Y6750D02*
Y7850D01*
X-5620Y6750D02*
Y7850D01*
X-5570Y6750D02*
Y7850D01*
X-3420Y6750D02*
Y7850D01*
X-3470Y6750D02*
Y7850D01*
X-3220Y6750D02*
Y7850D01*
X-3370Y6750D02*
Y7850D01*
X-3270Y6750D02*
Y7850D01*
X-3320Y6750D02*
Y7850D01*
X-3120Y6750D02*
Y7850D01*
X-3170Y6750D02*
Y7850D01*
X-2370Y6750D02*
Y7850D01*
X-2270Y6750D02*
Y7850D01*
X-2320Y6750D02*
Y7850D01*
X-1920Y6750D02*
Y7850D01*
X-1970Y6750D02*
Y7850D01*
X-1650Y6750D02*
X-850D01*
X-1870D02*
Y7850D01*
X-1820Y6750D02*
Y7850D01*
X-2170Y6750D02*
Y7850D01*
X-2220Y6750D02*
Y7850D01*
X-2020Y6750D02*
Y7850D01*
X-2120Y6750D02*
Y7850D01*
X-2070Y6750D02*
Y7850D01*
X-1720Y6750D02*
Y7850D01*
X-1770Y6750D02*
Y7850D01*
X-1670Y6750D02*
Y7850D01*
X-12120Y7800D02*
X-850D01*
X-12120Y7850D02*
X-850D01*
X-12120Y7650D02*
X-850D01*
X-12120Y7750D02*
X-850D01*
X-12120Y7700D02*
X-850D01*
X-18400Y1250D02*
X-15000D01*
X-18400Y1500D02*
X-15000D01*
X-18400Y1400D02*
X-15000D01*
X-18400Y1450D02*
X-15000D01*
X-18400Y1650D02*
X-15000D01*
X-18400Y1600D02*
X-15000D01*
X-18400Y1700D02*
X-15000D01*
X-18400Y1550D02*
X-15000D01*
X-18400Y1850D02*
X-15000D01*
X-18400Y1750D02*
X-15000D01*
X-18400Y1800D02*
X-15000D01*
X-18400Y1350D02*
X-15000D01*
X-18400Y1300D02*
X-15000D01*
X-18400Y1900D02*
X-15000D01*
X-18400Y1950D02*
X-15000D01*
X-18400Y2050D02*
X-15000D01*
X-18400Y2000D02*
X-15000D01*
X-18400Y3250D02*
X-14950D01*
X-18400Y3350D02*
X-14950D01*
X-18400Y3300D02*
X-14950D01*
X-18400Y3400D02*
X-14950D01*
X-18400Y3500D02*
X-14950D01*
X-18400Y3450D02*
X-14950D01*
X-18400Y3750D02*
X-14950D01*
X-18400Y3650D02*
X-14950D01*
X-18400Y3700D02*
X-14950D01*
X-18400Y4100D02*
X-14950D01*
X-18400Y4050D02*
X-14950D01*
X-18400Y4150D02*
X-14950D01*
X-18400Y4200D02*
X-14950D01*
X-18400Y3850D02*
X-14950D01*
X-18400Y3800D02*
X-14950D01*
X-18400Y4000D02*
X-14950D01*
X-18400Y3900D02*
X-14950D01*
X-18400Y3950D02*
X-14950D01*
X-18400Y3600D02*
X-14950D01*
X-18400Y3550D02*
X-14950D01*
Y3250D02*
Y4700D01*
Y3250D02*
X-14700Y3000D01*
X-11500Y-1650D02*
Y-1150D01*
X-11300Y-950D01*
X-11450Y5700D02*
X-8950D01*
X-11553Y5800D02*
X-8850D01*
X-11502Y5750D02*
X-8900D01*
X-11656Y5900D02*
X-8750D01*
X-11605Y5850D02*
X-8800D01*
X-11811Y6050D02*
X-8600D01*
X-11708Y5950D02*
X-8700D01*
X-11759Y6000D02*
X-8650D01*
X-1650Y6700D02*
X-850D01*
X-1650Y5950D02*
X-850D01*
X-1650Y6000D02*
X-850D01*
X-1650Y5900D02*
X-850D01*
X-1650Y5850D02*
X-850D01*
X-1650Y6200D02*
X-850D01*
X-1650Y6250D02*
X-850D01*
X-1650Y6050D02*
X-850D01*
X-1650Y6150D02*
X-850D01*
X-1650Y6100D02*
X-850D01*
X-1650Y6450D02*
X-850D01*
X-1650Y6500D02*
X-850D01*
X-1650Y6300D02*
X-850D01*
X-1650Y6400D02*
X-850D01*
X-1650Y6350D02*
X-850D01*
X-1650Y6550D02*
X-850D01*
X-1650Y5750D02*
X-850D01*
X-1650Y5800D02*
X-850D01*
X-1650Y6600D02*
X-850D01*
X-1650Y6650D02*
X-850D01*
X37350Y28050D02*
X41300D01*
X37350Y28000D02*
X41300D01*
X37350Y28150D02*
X41300D01*
X37350Y28100D02*
X41300D01*
X37350Y27800D02*
X41300D01*
X37350Y27750D02*
X41300D01*
X37350Y27950D02*
X41300D01*
X37350Y27850D02*
X41300D01*
X37350Y27900D02*
X41300D01*
X37350Y28450D02*
X41300D01*
X37350Y28250D02*
X41300D01*
X37350Y28200D02*
X41300D01*
X37350Y28400D02*
X41300D01*
X37350Y28300D02*
X41300D01*
X37350Y28350D02*
X41300D01*
X38430Y26000D02*
Y28650D01*
X38480Y26000D02*
Y28650D01*
X38280Y26000D02*
Y28650D01*
X38330Y26000D02*
Y28650D01*
X38530Y26000D02*
Y28650D01*
X37930Y26000D02*
Y28650D01*
X37980Y26000D02*
Y28650D01*
X37880Y26000D02*
Y28650D01*
X38180Y26000D02*
Y28650D01*
X38230Y26000D02*
Y28650D01*
X38030Y26000D02*
Y28650D01*
X38130Y26000D02*
Y28650D01*
X38080Y26000D02*
Y28650D01*
X38380Y26000D02*
Y28650D01*
X39130Y26000D02*
Y28650D01*
X39080Y26000D02*
Y28650D01*
X39230Y26000D02*
Y28650D01*
X39280Y26000D02*
Y28650D01*
X39180Y26000D02*
Y28650D01*
X39480Y26000D02*
Y28650D01*
X39530Y26000D02*
Y28650D01*
X39330Y26000D02*
Y28650D01*
X39430Y26000D02*
Y28650D01*
X39380Y26000D02*
Y28650D01*
X39680Y26000D02*
Y28650D01*
X39730Y26000D02*
Y28650D01*
X39630Y26000D02*
Y28650D01*
X39580Y26000D02*
Y28650D01*
X40380Y26000D02*
Y28650D01*
X40430Y26000D02*
Y28650D01*
X40330Y26000D02*
Y28650D01*
X40280Y26000D02*
Y28650D01*
X40530Y26000D02*
Y28650D01*
X40580Y26000D02*
Y28650D01*
X40480Y26000D02*
Y28650D01*
X40830Y26000D02*
Y28650D01*
X40880Y26000D02*
Y28650D01*
X40680Y26000D02*
Y28650D01*
X40780Y26000D02*
Y28650D01*
X40730Y26000D02*
Y28650D01*
X40630Y26000D02*
Y28650D01*
X40930Y26000D02*
Y28650D01*
X37430Y26000D02*
Y28650D01*
X37480Y26000D02*
Y28650D01*
X37380Y26000D02*
Y28650D01*
X37350Y26000D02*
Y28650D01*
X37680Y26000D02*
Y28650D01*
X37730Y26000D02*
Y28650D01*
X37530Y26000D02*
Y28650D01*
X37630Y26000D02*
Y28650D01*
X37580Y26000D02*
Y28650D01*
X38680Y26000D02*
Y28650D01*
X38730Y26000D02*
Y28650D01*
X38630Y26000D02*
Y28650D01*
X38580Y26000D02*
Y28650D01*
X37780Y26000D02*
Y28650D01*
X37830Y26000D02*
Y28650D01*
X38780Y26000D02*
Y28650D01*
X38830Y26000D02*
Y28650D01*
X38980Y26000D02*
Y28650D01*
X39030Y26000D02*
Y28650D01*
X38880Y26000D02*
Y28650D01*
X38930Y26000D02*
Y28650D01*
X40130Y26000D02*
Y28650D01*
X40180Y26000D02*
Y28650D01*
X40030Y26000D02*
Y28650D01*
X40080Y26000D02*
Y28650D01*
X40230Y26000D02*
Y28650D01*
X39930Y26000D02*
Y28650D01*
X39980Y26000D02*
Y28650D01*
X39780Y26000D02*
Y28650D01*
X39880Y26000D02*
Y28650D01*
X39830Y26000D02*
Y28650D01*
X41030Y26000D02*
Y28650D01*
X41080Y26000D02*
Y28650D01*
X40980Y26000D02*
Y28650D01*
X41280Y26000D02*
Y28650D01*
X41300Y26000D02*
Y28650D01*
X41130Y26000D02*
Y28650D01*
X41230Y26000D02*
Y28650D01*
X41180Y26000D02*
Y28650D01*
X37350Y27700D02*
X41300D01*
X37350Y28500D02*
X41300D01*
X37350Y26250D02*
X41300D01*
X37350Y26200D02*
X41300D01*
X37350Y26350D02*
X41300D01*
X37350Y26300D02*
X41300D01*
X37350Y26000D02*
X41300D01*
X37350Y26150D02*
X41300D01*
X37350Y26050D02*
X41300D01*
X37350Y26100D02*
X41300D01*
X37350Y26700D02*
X41300D01*
X37350Y26650D02*
X41300D01*
X37350Y26850D02*
X41300D01*
X37350Y26750D02*
X41300D01*
X37350Y26800D02*
X41300D01*
X37350Y26450D02*
X41300D01*
X37350Y26400D02*
X41300D01*
X37350Y26600D02*
X41300D01*
X37350Y26500D02*
X41300D01*
X37350Y26550D02*
X41300D01*
X37350Y27200D02*
X41300D01*
X37350Y27150D02*
X41300D01*
X37350Y27300D02*
X41300D01*
X37350Y27250D02*
X41300D01*
X37350Y26950D02*
X41300D01*
X37350Y26900D02*
X41300D01*
X37350Y27100D02*
X41300D01*
X37350Y27000D02*
X41300D01*
X37350Y27050D02*
X41300D01*
X37350Y27350D02*
X41300D01*
X37350Y27450D02*
X41300D01*
X37350Y27500D02*
X41300D01*
X37350Y27550D02*
X41300D01*
X37350Y27400D02*
X41300D01*
X37350Y27600D02*
X41300D01*
X37350Y27650D02*
X41300D01*
X37350Y28650D02*
X41300D01*
X37350Y28550D02*
X41300D01*
X37350Y28600D02*
X41300D01*
X-18400Y-6950D02*
X-15100D01*
X-18400Y-7050D02*
X-15050D01*
X-18400Y-7000D02*
X-15100D01*
X-18400Y-6900D02*
X-15100D01*
X-17570Y-9850D02*
Y-1350D01*
X-18400Y-6850D02*
X-15100D01*
X-18400Y-7300D02*
X-14800D01*
X-18400Y-7400D02*
X-14700D01*
X-18400Y-7350D02*
X-14750D01*
X-18400Y-7150D02*
X-14950D01*
X-18400Y-7100D02*
X-15000D01*
X-18400Y-7250D02*
X-14850D01*
X-18400Y-7200D02*
X-14900D01*
X-18400Y-6350D02*
X-15100D01*
X-18400Y-6450D02*
X-15100D01*
X-18400Y-6400D02*
X-15100D01*
X-18400Y-6200D02*
X-15100D01*
X-18400Y-6150D02*
X-15100D01*
X-18400Y-6300D02*
X-15100D01*
X-18400Y-6250D02*
X-15100D01*
X-18400Y-6700D02*
X-15100D01*
X-18400Y-6800D02*
X-15100D01*
X-18400Y-6750D02*
X-15100D01*
X-18400Y-6550D02*
X-15100D01*
X-18400Y-6500D02*
X-15100D01*
X-18400Y-6650D02*
X-15100D01*
X-18400Y-6600D02*
X-15100D01*
X-17370Y-9850D02*
Y-1350D01*
X-17270Y-9850D02*
Y-1350D01*
X-17320Y-9850D02*
Y-1350D01*
X-17520Y-9850D02*
Y-1350D01*
X-17420Y-9850D02*
Y-1350D01*
X-17470Y-9850D02*
Y-1350D01*
X-16820Y-9850D02*
Y-1350D01*
X-15020Y-9850D02*
Y-7080D01*
X-15070Y-9850D02*
Y-7030D01*
X-16970Y-9850D02*
Y-1350D01*
X-17220Y-9850D02*
Y-1350D01*
X-16870Y-9850D02*
Y-1350D01*
X-16920Y-9850D02*
Y-1350D01*
X-14820Y-9850D02*
Y-7280D01*
X-14720Y-9850D02*
Y-7380D01*
X-14770Y-9850D02*
Y-7330D01*
X-14970Y-9850D02*
Y-7130D01*
X-15100Y-7000D02*
Y-5650D01*
X-14870Y-9850D02*
Y-7230D01*
X-14920Y-9850D02*
Y-7180D01*
X-14520Y-9850D02*
Y-7400D01*
X-14420Y-9850D02*
Y-7400D01*
X-14470Y-9850D02*
Y-7400D01*
X-14670Y-9850D02*
Y-7400D01*
X-15100Y-7000D02*
X-14700Y-7400D01*
X-14570Y-9850D02*
Y-7400D01*
X-14620Y-9850D02*
Y-7400D01*
X-17170Y-9850D02*
Y-1350D01*
X-17070Y-9850D02*
Y-1350D01*
X-17120Y-9850D02*
Y-1350D01*
X-17720Y-9850D02*
Y-1350D01*
X-17620Y-9850D02*
Y-1350D01*
X-17670Y-9850D02*
Y-1350D01*
X-16620Y-9850D02*
Y-1350D01*
X-16520Y-9850D02*
Y-1350D01*
X-16570Y-9850D02*
Y-1350D01*
X-16770Y-9850D02*
Y-1350D01*
X-17020Y-9850D02*
Y-1350D01*
X-16670Y-9850D02*
Y-1350D01*
X-16720Y-9850D02*
Y-1350D01*
X-18220Y-9850D02*
Y-1350D01*
X-18120Y-9850D02*
Y-1350D01*
X-18170Y-9850D02*
Y-1350D01*
X-18370Y-9850D02*
Y-1350D01*
X-18400Y-9850D02*
Y-1350D01*
X-18270Y-9850D02*
Y-1350D01*
X-18320Y-9850D02*
Y-1350D01*
X-17870Y-9850D02*
Y-1350D01*
X-17770Y-9850D02*
Y-1350D01*
X-17820Y-9850D02*
Y-1350D01*
X-18020Y-9850D02*
Y-1350D01*
X-18070Y-9850D02*
Y-1350D01*
X-17920Y-9850D02*
Y-1350D01*
X-17970Y-9850D02*
Y-1350D01*
X-15570Y-9850D02*
Y-1350D01*
X-15470Y-9850D02*
Y-1350D01*
X-15520Y-9850D02*
Y-1350D01*
X-15720Y-9850D02*
Y-1350D01*
X-15770Y-9850D02*
Y-1350D01*
X-15620Y-9850D02*
Y-1350D01*
X-15670Y-9850D02*
Y-1350D01*
X-15220Y-9850D02*
Y-1350D01*
X-15120Y-9850D02*
Y-1350D01*
X-15170Y-9850D02*
Y-1350D01*
X-15370Y-9850D02*
Y-1350D01*
X-15420Y-9850D02*
Y-1350D01*
X-15270Y-9850D02*
Y-1350D01*
X-15320Y-9850D02*
Y-1350D01*
X-16270Y-9850D02*
Y-1350D01*
X-16170Y-9850D02*
Y-1350D01*
X-16220Y-9850D02*
Y-1350D01*
X-16420Y-9850D02*
Y-1350D01*
X-16470Y-9850D02*
Y-1350D01*
X-16320Y-9850D02*
Y-1350D01*
X-16370Y-9850D02*
Y-1350D01*
X-15920Y-9850D02*
Y-1350D01*
X-15820Y-9850D02*
Y-1350D01*
X-15870Y-9850D02*
Y-1350D01*
X-16070Y-9850D02*
Y-1350D01*
X-16120Y-9850D02*
Y-1350D01*
X-15970Y-9850D02*
Y-1350D01*
X-16020Y-9850D02*
Y-1350D01*
X-18400Y-9400D02*
X-2720D01*
X-18400Y-9500D02*
X-2720D01*
X-18400Y-9450D02*
X-2720D01*
X-18400Y-9250D02*
X-2720D01*
X-18400Y-9350D02*
X-2720D01*
X-18400Y-9300D02*
X-2720D01*
X-18400Y-9750D02*
X-2720D01*
X-18400Y-9850D02*
X-2720D01*
X-18400Y-9800D02*
X-2720D01*
X-18400Y-9600D02*
X-2720D01*
X-18400Y-9550D02*
X-2720D01*
X-18400Y-9700D02*
X-2720D01*
X-18400Y-9650D02*
X-2720D01*
X-18400Y-8750D02*
X-2720D01*
X-18400Y-8850D02*
X-2720D01*
X-18400Y-8800D02*
X-2720D01*
X-18400Y-8600D02*
X-2720D01*
X-18400Y-8550D02*
X-2720D01*
X-18400Y-8700D02*
X-2720D01*
X-18400Y-8650D02*
X-2720D01*
X-18400Y-9100D02*
X-2720D01*
X-18400Y-9200D02*
X-2720D01*
X-18400Y-9150D02*
X-2720D01*
X-18400Y-8950D02*
X-2720D01*
X-18400Y-8900D02*
X-2720D01*
X-18400Y-9050D02*
X-2720D01*
X-18400Y-9000D02*
X-2720D01*
X-18400Y-8500D02*
X-2720D01*
X-13820Y-9850D02*
Y-7400D01*
X-13870Y-9850D02*
Y-7400D01*
X-14020Y-9850D02*
Y-7400D01*
X-14070Y-9850D02*
Y-7400D01*
X-13920Y-9850D02*
Y-7400D01*
X-13970Y-9850D02*
Y-7400D01*
X-18400Y-8350D02*
X-2720D01*
X-18400Y-8450D02*
X-2720D01*
X-18400Y-8400D02*
X-2720D01*
X-18400Y-8200D02*
X-2720D01*
X-18400Y-8150D02*
X-2720D01*
X-18400Y-8300D02*
X-2720D01*
X-18400Y-8250D02*
X-2720D01*
X-18400Y-7650D02*
X-2720D01*
X-18400Y-7750D02*
X-2720D01*
X-18400Y-7700D02*
X-2720D01*
X-18400Y-7500D02*
X-2720D01*
X-18400Y-7450D02*
X-2720D01*
X-18400Y-7600D02*
X-2720D01*
X-18400Y-7550D02*
X-2720D01*
X-18400Y-8000D02*
X-2720D01*
X-18400Y-8100D02*
X-2720D01*
X-18400Y-8050D02*
X-2720D01*
X-18400Y-7850D02*
X-2720D01*
X-18400Y-7800D02*
X-2720D01*
X-18400Y-7950D02*
X-2720D01*
X-18400Y-7900D02*
X-2720D01*
X-14220Y-9850D02*
Y-7400D01*
X-14120Y-9850D02*
Y-7400D01*
X-14170Y-9850D02*
Y-7400D01*
X-14370Y-9850D02*
Y-7400D01*
X-14270Y-9850D02*
Y-7400D01*
X-14320Y-9850D02*
Y-7400D01*
X-13770Y-9850D02*
Y-7400D01*
X-13670Y-9850D02*
Y-7400D01*
X-13720Y-9850D02*
Y-7400D01*
X-13570Y-9850D02*
Y-7320D01*
X-13620Y-9850D02*
Y-7370D01*
X-13320Y-9850D02*
Y-7070D01*
X-13470Y-9850D02*
Y-7220D01*
X-14700Y-7400D02*
X-13650D01*
X-13520Y-9850D02*
Y-7270D01*
X-14700Y-7400D02*
X-13650D01*
X-13420Y-9850D02*
Y-7170D01*
X-13650Y-7400D02*
X-13300Y-7050D01*
X-13370Y-9850D02*
Y-7120D01*
X-13300Y-7050D02*
X-7100D01*
X-13650Y-7400D02*
X-6750D01*
X-13600Y-7350D02*
X-6800D01*
X-13550Y-7300D02*
X-6850D01*
X-13500Y-7250D02*
X-6900D01*
X-13450Y-7200D02*
X-6950D01*
X-13400Y-7150D02*
X-7000D01*
X-13350Y-7100D02*
X-7050D01*
X-13300Y-7050D02*
Y-5650D01*
X-13220Y-9850D02*
Y-3250D01*
X-13270Y-9850D02*
Y-3250D01*
X-13120Y-9850D02*
Y-3250D01*
X-13170Y-9850D02*
Y-3250D01*
X-13020Y-9850D02*
Y-3250D01*
X-13070Y-9850D02*
Y-3250D01*
X-13300Y-6900D02*
X-7100D01*
X-13300Y-7000D02*
X-7100D01*
X-13300Y-6950D02*
X-7100D01*
X-12920Y-9850D02*
Y-3250D01*
X-12970Y-9850D02*
Y-3250D01*
X-12820Y-9850D02*
Y-3250D01*
X-12870Y-9850D02*
Y-3250D01*
X-13300Y-6400D02*
X-7100D01*
X-13300Y-6500D02*
X-7100D01*
X-13300Y-6450D02*
X-7100D01*
X-13300Y-6250D02*
X-7100D01*
X-13300Y-6200D02*
X-7100D01*
X-13300Y-6350D02*
X-7100D01*
X-13300Y-6300D02*
X-7100D01*
X-13300Y-6750D02*
X-7100D01*
X-13300Y-6850D02*
X-7100D01*
X-13300Y-6800D02*
X-7100D01*
X-13300Y-6600D02*
X-7100D01*
X-13300Y-6550D02*
X-7100D01*
X-13300Y-6700D02*
X-7100D01*
X-13300Y-6650D02*
X-7100D01*
X-18400Y-6000D02*
X-15100D01*
X-18400Y-6100D02*
X-15100D01*
X-18400Y-6050D02*
X-15100D01*
X-18400Y-5850D02*
X-15100D01*
X-18400Y-5950D02*
X-15100D01*
X-18400Y-5900D02*
X-15100D01*
X-18400Y-5700D02*
X-15100D01*
X-18400Y-5800D02*
X-15100D01*
X-18400Y-5750D02*
X-15100D01*
X-18400Y-5550D02*
X-15000D01*
X-18400Y-5500D02*
X-14950D01*
X-18400Y-5650D02*
X-15100D01*
X-18400Y-5600D02*
X-15050D01*
X-18400Y-5350D02*
X-14800D01*
X-18400Y-5450D02*
X-14900D01*
X-18400Y-5400D02*
X-14850D01*
X-18400Y-5200D02*
X-14700D01*
X-18400Y-5150D02*
X-14700D01*
X-18400Y-5300D02*
X-14750D01*
X-18400Y-5250D02*
X-14700D01*
X-18400Y-5000D02*
X-14700D01*
X-18400Y-5100D02*
X-14700D01*
X-18400Y-5050D02*
X-14700D01*
X-18400Y-4850D02*
X-14700D01*
X-18400Y-4800D02*
X-14700D01*
X-18400Y-4950D02*
X-14700D01*
X-18400Y-4900D02*
X-14700D01*
X-18400Y-4700D02*
X-14700D01*
X-15100Y-5650D02*
X-14700Y-5250D01*
X-18400Y-4750D02*
X-14700D01*
X-18400Y-4550D02*
X-14700D01*
X-18400Y-4350D02*
X-14700D01*
X-18400Y-4650D02*
X-14700D01*
X-18400Y-4600D02*
X-14700D01*
X-18400Y-4400D02*
X-14700D01*
X-18400Y-4500D02*
X-14700D01*
X-18400Y-4450D02*
X-14700D01*
X-13750Y-5200D02*
Y-3700D01*
X-18400Y-4300D02*
X-14700D01*
X-13670Y-5280D02*
Y-3620D01*
X-13720Y-5230D02*
Y-3670D01*
X-18400Y-3800D02*
X-14700D01*
X-18400Y-3900D02*
X-14700D01*
X-18400Y-3850D02*
X-14700D01*
X-18400Y-3650D02*
X-14700D01*
X-18400Y-3600D02*
X-14700D01*
X-18400Y-3750D02*
X-14700D01*
X-18400Y-3700D02*
X-14700D01*
X-18400Y-4150D02*
X-14700D01*
X-18400Y-4250D02*
X-14700D01*
X-18400Y-4200D02*
X-14700D01*
X-18400Y-4000D02*
X-14700D01*
X-18400Y-3950D02*
X-14700D01*
X-18400Y-4100D02*
X-14700D01*
X-18400Y-4050D02*
X-14700D01*
X-18400Y-3550D02*
X-14700D01*
X-14920Y-5470D02*
Y-1350D01*
X-14870Y-5420D02*
Y-1350D01*
X-15070Y-5620D02*
Y-1350D01*
X-15020Y-5570D02*
Y-1350D01*
X-14970Y-5520D02*
Y-1350D01*
X-18400Y-3400D02*
X-14700D01*
X-18400Y-3500D02*
X-14700D01*
X-18400Y-3450D02*
X-14700D01*
X-18400Y-3250D02*
X-14550D01*
X-18400Y-3200D02*
X-14500D01*
X-18400Y-3350D02*
X-14650D01*
X-18400Y-3300D02*
X-14600D01*
X-18400Y-3050D02*
X-14350D01*
X-18400Y-3150D02*
X-14450D01*
X-18400Y-3100D02*
X-14400D01*
X-18400Y-2900D02*
X-14200D01*
X-18400Y-2850D02*
X-14150D01*
X-18400Y-3000D02*
X-14300D01*
X-18400Y-2950D02*
X-14250D01*
X-18400Y-2700D02*
X-14000D01*
X-18400Y-2800D02*
X-14100D01*
X-18400Y-2750D02*
X-14050D01*
X-18400Y-2550D02*
X-13850D01*
X-18400Y-2500D02*
X-13800D01*
X-18400Y-2650D02*
X-13950D01*
X-18400Y-2600D02*
X-13900D01*
X-14770Y-5320D02*
Y-1350D01*
X-14720Y-5270D02*
Y-1350D01*
X-14700Y-5250D02*
Y-3400D01*
X-14820Y-5370D02*
Y-1350D01*
X-14670Y-3370D02*
Y-1350D01*
X-14620Y-3320D02*
Y-1350D01*
X-14570Y-3270D02*
Y-1350D01*
X-14700Y-3400D02*
X-13800Y-2500D01*
X-13750Y-3700D02*
X-13650Y-3600D01*
X-14320Y-3020D02*
Y-1350D01*
X-14520Y-3220D02*
Y-1350D01*
X-14470Y-3170D02*
Y-1350D01*
X-14420Y-3120D02*
Y-1350D01*
X-14370Y-3070D02*
Y-1350D01*
X-14070Y-2770D02*
Y-1350D01*
X-14020Y-2720D02*
Y-1350D01*
X-13970Y-2670D02*
Y-1350D01*
X-14270Y-2970D02*
Y-1350D01*
X-14220Y-2920D02*
Y-1350D01*
X-14170Y-2870D02*
Y-1350D01*
X-14120Y-2820D02*
Y-1350D01*
X-13720Y-2500D02*
Y-1350D01*
X-13620Y-2500D02*
Y-1350D01*
X-13670Y-2500D02*
Y-1350D01*
X-13920Y-2620D02*
Y-1350D01*
X-13870Y-2570D02*
Y-1350D01*
X-13820Y-2520D02*
Y-1350D01*
X-13770Y-2500D02*
Y-1350D01*
X-13750Y-5150D02*
X-6700D01*
X-13750Y-5200D02*
X-13350Y-5600D01*
X-13750Y-5200D02*
X-6750D01*
X-13750Y-5000D02*
X-6650D01*
X-13750Y-5100D02*
X-6650D01*
X-13750Y-5050D02*
X-6650D01*
X-13750Y-4850D02*
X-6650D01*
X-13750Y-4950D02*
X-6650D01*
X-13750Y-4900D02*
X-6650D01*
X-13750Y-4700D02*
X-6650D01*
X-13750Y-4650D02*
X-6650D01*
X-13750Y-4800D02*
X-6650D01*
X-13750Y-4750D02*
X-6650D01*
X-13750Y-3900D02*
X-6650D01*
X-13750Y-4000D02*
X-6650D01*
X-13750Y-3950D02*
X-6650D01*
X-13750Y-3750D02*
X-6650D01*
X-13750Y-3700D02*
X-6650D01*
X-13750Y-3850D02*
X-6650D01*
X-13750Y-3800D02*
X-6650D01*
X-13750Y-4500D02*
X-6650D01*
X-13750Y-4600D02*
X-6650D01*
X-13750Y-4550D02*
X-6650D01*
X-13750Y-4300D02*
X-6650D01*
X-13750Y-4250D02*
X-6650D01*
X-13750Y-4450D02*
X-6650D01*
X-13750Y-4400D02*
X-6650D01*
X-13300Y-6050D02*
X-7100D01*
X-13300Y-6150D02*
X-7100D01*
X-13300Y-6100D02*
X-7100D01*
X-13300Y-5900D02*
X-7100D01*
X-13350Y-5600D02*
X-13300Y-5650D01*
Y-6000D02*
X-7100D01*
X-13300Y-5950D02*
X-7100D01*
X-13300Y-5750D02*
X-7100D01*
X-13300Y-5850D02*
X-7100D01*
X-13300Y-5800D02*
X-7100D01*
X-13350Y-5600D02*
X-7100D01*
X-13400Y-5550D02*
X-7100D01*
X-13300Y-5700D02*
X-7100D01*
X-13300Y-5650D02*
X-7100D01*
X-13550Y-5400D02*
X-6950D01*
X-13450Y-5500D02*
X-7050D01*
X-13500Y-5450D02*
X-7000D01*
X-13650Y-5300D02*
X-6850D01*
X-13700Y-5250D02*
X-6800D01*
X-13600Y-5350D02*
X-6900D01*
X-13620Y-5330D02*
Y-3570D01*
X-13750Y-4150D02*
X-6650D01*
X-13750Y-4350D02*
X-6650D01*
X-13750Y-4200D02*
X-6650D01*
X-13750Y-4100D02*
X-6650D01*
X-13750Y-4050D02*
X-6650D01*
X-13700Y-3650D02*
X-6700D01*
X-13650Y-3600D02*
X-6750D01*
X-13800Y-2500D02*
X-11500D01*
X-13650Y-3600D02*
X-13300Y-3250D01*
X-13800Y-2500D02*
X-11500D01*
X-18400Y-2350D02*
X-11500D01*
X-18400Y-2450D02*
X-11500D01*
X-18400Y-2400D02*
X-11500D01*
X-18400Y-2250D02*
X-11500D01*
X-13600Y-3550D02*
X-6800D01*
X-18400Y-2300D02*
X-11500D01*
X-18400Y-2100D02*
X-11500D01*
X-18400Y-2050D02*
X-11500D01*
X-18400Y-2200D02*
X-11500D01*
X-18400Y-2150D02*
X-11500D01*
X-18400Y-1550D02*
X-11500D01*
X-18400Y-1650D02*
X-11500D01*
X-18400Y-1600D02*
X-11500D01*
X-18400Y-1400D02*
X-11500D01*
X-18400Y-1350D02*
X-11500D01*
X-18400Y-1500D02*
X-11500D01*
X-18400Y-1450D02*
X-11500D01*
X-18400Y-1900D02*
X-11500D01*
X-18400Y-2000D02*
X-11500D01*
X-18400Y-1950D02*
X-11500D01*
X-18400Y-1750D02*
X-11500D01*
X-18400Y-1700D02*
X-11500D01*
X-18400Y-1850D02*
X-11500D01*
X-18400Y-1800D02*
X-11500D01*
X-13570Y-5380D02*
Y-3520D01*
X-13470Y-5480D02*
Y-3420D01*
X-13520Y-5430D02*
Y-3470D01*
X-13370Y-5580D02*
Y-3320D01*
X-13420Y-5530D02*
Y-3370D01*
X-13320Y-5630D02*
Y-3270D01*
X-12970Y-2500D02*
Y-1350D01*
X-13550Y-3500D02*
X-6850D01*
X-13500Y-3450D02*
X-6900D01*
X-13450Y-3400D02*
X-6950D01*
X-13400Y-3350D02*
X-7000D01*
X-13350Y-3300D02*
X-7050D01*
X-13300Y-3250D02*
X-7100D01*
X-12920Y-2500D02*
Y-1350D01*
X-13370Y-2500D02*
Y-1350D01*
X-13270Y-2500D02*
Y-1350D01*
X-13320Y-2500D02*
Y-1350D01*
X-13520Y-2500D02*
Y-1350D01*
X-13570Y-2500D02*
Y-1350D01*
X-13420Y-2500D02*
Y-1350D01*
X-13470Y-2500D02*
Y-1350D01*
X-13020Y-2500D02*
Y-1350D01*
X-12820Y-2500D02*
Y-1350D01*
X-12870Y-2500D02*
Y-1350D01*
X-13170Y-2500D02*
Y-1350D01*
X-13220Y-2500D02*
Y-1350D01*
X-13070Y-2500D02*
Y-1350D01*
X-13120Y-2500D02*
Y-1350D01*
X-9170Y-9850D02*
Y-3250D01*
X-9070Y-9850D02*
Y-3250D01*
X-9120Y-9850D02*
Y-3250D01*
X-9320Y-9850D02*
Y-3250D01*
X-9220Y-9850D02*
Y-3250D01*
X-9270Y-9850D02*
Y-3250D01*
X-8820Y-9850D02*
Y-3250D01*
X-8720Y-9850D02*
Y-3250D01*
X-8770Y-9850D02*
Y-3250D01*
X-8970Y-9850D02*
Y-3250D01*
X-9020Y-9850D02*
Y-3250D01*
X-8870Y-9850D02*
Y-3250D01*
X-8920Y-9850D02*
Y-3250D01*
X-9820Y-9850D02*
Y-3250D01*
X-9720Y-9850D02*
Y-3250D01*
X-9770Y-9850D02*
Y-3250D01*
X-9970Y-9850D02*
Y-3250D01*
X-10020Y-9850D02*
Y-3250D01*
X-9870Y-9850D02*
Y-3250D01*
X-9920Y-9850D02*
Y-3250D01*
X-9470Y-9850D02*
Y-3250D01*
X-9370Y-9850D02*
Y-3250D01*
X-9420Y-9850D02*
Y-3250D01*
X-9620Y-9850D02*
Y-3250D01*
X-9670Y-9850D02*
Y-3250D01*
X-9520Y-9850D02*
Y-3250D01*
X-9570Y-9850D02*
Y-3250D01*
X-7820Y-9850D02*
Y-3250D01*
X-7720Y-9850D02*
Y-3250D01*
X-7770Y-9850D02*
Y-3250D01*
X-7970Y-9850D02*
Y-3250D01*
X-7870Y-9850D02*
Y-3250D01*
X-7920Y-9850D02*
Y-3250D01*
X-7470Y-9850D02*
Y-3250D01*
X-7370Y-9850D02*
Y-3250D01*
X-7420Y-9850D02*
Y-3250D01*
X-7620Y-9850D02*
Y-3250D01*
X-7670Y-9850D02*
Y-3250D01*
X-7520Y-9850D02*
Y-3250D01*
X-7570Y-9850D02*
Y-3250D01*
X-8470Y-9850D02*
Y-3250D01*
X-8370Y-9850D02*
Y-3250D01*
X-8420Y-9850D02*
Y-3250D01*
X-8620Y-9850D02*
Y-3250D01*
X-8670Y-9850D02*
Y-3250D01*
X-8520Y-9850D02*
Y-3250D01*
X-8570Y-9850D02*
Y-3250D01*
X-8120Y-9850D02*
Y-3250D01*
X-8020Y-9850D02*
Y-3250D01*
X-8070Y-9850D02*
Y-3250D01*
X-8270Y-9850D02*
Y-3250D01*
X-8320Y-9850D02*
Y-3250D01*
X-8170Y-9850D02*
Y-3250D01*
X-8220Y-9850D02*
Y-3250D01*
X-11920Y-9850D02*
Y-3250D01*
X-11820Y-9850D02*
Y-3250D01*
X-11870Y-9850D02*
Y-3250D01*
X-12070Y-9850D02*
Y-3250D01*
X-11970Y-9850D02*
Y-3250D01*
X-12020Y-9850D02*
Y-3250D01*
X-11570Y-9850D02*
Y-3250D01*
X-11470Y-9850D02*
Y-3250D01*
X-11520Y-9850D02*
Y-3250D01*
X-11720Y-9850D02*
Y-3250D01*
X-11770Y-9850D02*
Y-3250D01*
X-11620Y-9850D02*
Y-3250D01*
X-11670Y-9850D02*
Y-3250D01*
X-12570Y-9850D02*
Y-3250D01*
X-12470Y-9850D02*
Y-3250D01*
X-12520Y-9850D02*
Y-3250D01*
X-12720Y-9850D02*
Y-3250D01*
X-12770Y-9850D02*
Y-3250D01*
X-12620Y-9850D02*
Y-3250D01*
X-12670Y-9850D02*
Y-3250D01*
X-12220Y-9850D02*
Y-3250D01*
X-12120Y-9850D02*
Y-3250D01*
X-12170Y-9850D02*
Y-3250D01*
X-12370Y-9850D02*
Y-3250D01*
X-12420Y-9850D02*
Y-3250D01*
X-12270Y-9850D02*
Y-3250D01*
X-12320Y-9850D02*
Y-3250D01*
X-10520Y-9850D02*
Y-3250D01*
X-10420Y-9850D02*
Y-3250D01*
X-10470Y-9850D02*
Y-3250D01*
X-10670Y-9850D02*
Y-3250D01*
X-10720Y-9850D02*
Y-3250D01*
X-10570Y-9850D02*
Y-3250D01*
X-10620Y-9850D02*
Y-3250D01*
X-10170Y-9850D02*
Y-3250D01*
X-10070Y-9850D02*
Y-3250D01*
X-10120Y-9850D02*
Y-3250D01*
X-10320Y-9850D02*
Y-3250D01*
X-10370Y-9850D02*
Y-3250D01*
X-10220Y-9850D02*
Y-3250D01*
X-10270Y-9850D02*
Y-3250D01*
X-11220Y-9850D02*
Y-3250D01*
X-11120Y-9850D02*
Y-3250D01*
X-11170Y-9850D02*
Y-3250D01*
X-11370Y-9850D02*
Y-3250D01*
X-11420Y-9850D02*
Y-3250D01*
X-11270Y-9850D02*
Y-3250D01*
X-11320Y-9850D02*
Y-3250D01*
X-10870Y-9850D02*
Y-3250D01*
X-10770Y-9850D02*
Y-3250D01*
X-10820Y-9850D02*
Y-3250D01*
X-11020Y-9850D02*
Y-3250D01*
X-11070Y-9850D02*
Y-3250D01*
X-10920Y-9850D02*
Y-3250D01*
X-10970Y-9850D02*
Y-3250D01*
X-7020Y-9850D02*
Y-7130D01*
X-6920Y-9850D02*
Y-7230D01*
X-6970Y-9850D02*
Y-7180D01*
X-7270Y-9850D02*
Y-3250D01*
X-7070Y-9850D02*
Y-7080D01*
X-7220Y-9850D02*
Y-3250D01*
X-6670Y-9850D02*
Y-7400D01*
X-6270Y-9850D02*
Y-7400D01*
X-6320Y-9850D02*
Y-7400D01*
X-6820Y-9850D02*
Y-7330D01*
X-6870Y-9850D02*
Y-7280D01*
X-6720Y-9850D02*
Y-7400D01*
X-6770Y-9850D02*
Y-7380D01*
X-6570Y-9850D02*
Y-7400D01*
X-6470Y-9850D02*
Y-7400D01*
X-6520Y-9850D02*
Y-7400D01*
X-7100Y-7050D02*
X-7050Y-7100D01*
X-7100Y-7050D02*
Y-5550D01*
X-6620Y-9850D02*
Y-7400D01*
X-7050Y-7100D02*
X-6750Y-7400D01*
X-5650D01*
X-6120Y-9850D02*
Y-7400D01*
X-6750D02*
X-5650D01*
X-6370Y-9850D02*
Y-7400D01*
X-6420Y-9850D02*
Y-7400D01*
X-6170Y-9850D02*
Y-7400D01*
X-6220Y-9850D02*
Y-7400D01*
X-5820Y-9850D02*
Y-7400D01*
X-5720Y-9850D02*
Y-7400D01*
X-5770Y-9850D02*
Y-7400D01*
X-6020Y-9850D02*
Y-7400D01*
X-6070Y-9850D02*
Y-7400D01*
X-5920Y-9850D02*
Y-7400D01*
X-5970Y-9850D02*
Y-7400D01*
X-5670Y-9850D02*
Y-7400D01*
X-5570Y-9850D02*
Y-7320D01*
X-5620Y-9850D02*
Y-7370D01*
X-5470Y-9850D02*
Y-7220D01*
X-5520Y-9850D02*
Y-7270D01*
X-5370Y-9850D02*
Y-7120D01*
X-5420Y-9850D02*
Y-7170D01*
X-5870Y-9850D02*
Y-7400D01*
X-5650D02*
X-2720D01*
X-5600Y-7350D02*
X-2720D01*
X-5650Y-7400D02*
X-5300Y-7050D01*
X-5550Y-7300D02*
X-2720D01*
X-5320Y-9850D02*
Y-7070D01*
X-5300Y-7050D02*
Y-5650D01*
X-5500Y-7250D02*
X-2720D01*
X-5450Y-7200D02*
X-2720D01*
X-5400Y-7150D02*
X-2720D01*
X-5350Y-7100D02*
X-2720D01*
X-5300Y-7050D02*
X-2720D01*
X-5300Y-7000D02*
X-2720D01*
X-5300Y-6950D02*
X-2720D01*
X-4570Y-9850D02*
Y-1800D01*
X-4470Y-9850D02*
Y-1800D01*
X-4520Y-9850D02*
Y-1800D01*
X-4720Y-9850D02*
Y-1800D01*
X-4620Y-9850D02*
Y-1800D01*
X-4670Y-9850D02*
Y-1800D01*
X-4220Y-9850D02*
Y-1800D01*
X-4120Y-9850D02*
Y-1800D01*
X-4170Y-9850D02*
Y-1800D01*
X-4370Y-9850D02*
Y-1800D01*
X-4420Y-9850D02*
Y-1800D01*
X-4270Y-9850D02*
Y-1800D01*
X-4320Y-9850D02*
Y-1800D01*
X-7320Y-9850D02*
Y-3250D01*
X-7120Y-9850D02*
Y-3250D01*
X-7170Y-9850D02*
Y-3250D01*
X-5220Y-9850D02*
Y-1800D01*
X-5270Y-9850D02*
Y-1800D01*
X-5120Y-9850D02*
Y-1800D01*
X-5170Y-9850D02*
Y-1800D01*
X-4870Y-9850D02*
Y-1800D01*
X-4770Y-9850D02*
Y-1800D01*
X-4820Y-9850D02*
Y-1800D01*
X-5020Y-9850D02*
Y-1800D01*
X-5070Y-9850D02*
Y-1800D01*
X-4920Y-9850D02*
Y-1800D01*
X-4970Y-9850D02*
Y-1800D01*
X-3170Y-9850D02*
Y-1800D01*
X-3070Y-9850D02*
Y-1800D01*
X-3120Y-9850D02*
Y-1800D01*
X-3320Y-9850D02*
Y-1800D01*
X-3370Y-9850D02*
Y-1800D01*
X-3220Y-9850D02*
Y-1800D01*
X-3270Y-9850D02*
Y-1800D01*
X-2820Y-9850D02*
Y-1800D01*
X-2720Y-9850D02*
Y-1800D01*
X-2770Y-9850D02*
Y-1800D01*
X-2970Y-9850D02*
Y-1800D01*
X-3020Y-9850D02*
Y-1800D01*
X-2870Y-9850D02*
Y-1800D01*
X-2920Y-9850D02*
Y-1800D01*
X-3870Y-9850D02*
Y-1800D01*
X-3770Y-9850D02*
Y-1800D01*
X-3820Y-9850D02*
Y-1800D01*
X-4020Y-9850D02*
Y-1800D01*
X-4070Y-9850D02*
Y-1800D01*
X-3920Y-9850D02*
Y-1800D01*
X-3970Y-9850D02*
Y-1800D01*
X-3520Y-9850D02*
Y-1800D01*
X-3420Y-9850D02*
Y-1800D01*
X-3470Y-9850D02*
Y-1800D01*
X-3670Y-9850D02*
Y-1800D01*
X-3720Y-9850D02*
Y-1800D01*
X-3570Y-9850D02*
Y-1800D01*
X-3620Y-9850D02*
Y-1800D01*
X-8170Y-2500D02*
Y-1800D01*
X-8070Y-2500D02*
Y-1800D01*
X-8120Y-2500D02*
Y-1800D01*
X-8320Y-2500D02*
Y-1800D01*
X-8220Y-2500D02*
Y-1800D01*
X-8270Y-2500D02*
Y-1800D01*
X-7820Y-2500D02*
Y-1800D01*
X-7720Y-2500D02*
Y-1800D01*
X-7770Y-2500D02*
Y-1800D01*
X-7970Y-2500D02*
Y-1800D01*
X-8020Y-2500D02*
Y-1800D01*
X-7870Y-2500D02*
Y-1800D01*
X-7920Y-2500D02*
Y-1800D01*
X-8770Y-2500D02*
Y-1800D01*
X-8670Y-2500D02*
Y-1800D01*
X-8720Y-2500D02*
Y-1800D01*
X-8920Y-2500D02*
Y-1800D01*
X-8950Y-2500D02*
Y-1800D01*
X-8820Y-2500D02*
Y-1800D01*
X-8870Y-2500D02*
Y-1800D01*
X-8950Y-2500D02*
X-6650D01*
X-8370D02*
Y-1800D01*
X-8420Y-2500D02*
Y-1800D01*
X-8570Y-2500D02*
Y-1800D01*
X-8620Y-2500D02*
Y-1800D01*
X-8470Y-2500D02*
Y-1800D01*
X-8520Y-2500D02*
Y-1800D01*
X-6870Y-5320D02*
Y-3480D01*
X-6820Y-5270D02*
Y-3530D01*
X-6770Y-5220D02*
Y-3580D01*
X-7070Y-5520D02*
Y-3280D01*
X-7020Y-5470D02*
Y-3330D01*
X-6970Y-5420D02*
Y-3380D01*
X-6920Y-5370D02*
Y-3430D01*
X-7100Y-5550D02*
X-6650Y-5100D01*
X-6670Y-5120D02*
Y-3680D01*
X-6650Y-5100D02*
Y-3700D01*
X-6720Y-5170D02*
Y-3630D01*
X-7100Y-3250D02*
X-6650Y-3700D01*
X-5850Y-5100D02*
Y-3300D01*
X-6650Y-2500D02*
X-5850Y-3300D01*
X-7470Y-2500D02*
Y-1800D01*
X-7370Y-2500D02*
Y-1800D01*
X-7420Y-2500D02*
Y-1800D01*
X-7620Y-2500D02*
Y-1800D01*
X-7670Y-2500D02*
Y-1800D01*
X-7520Y-2500D02*
Y-1800D01*
X-7570Y-2500D02*
Y-1800D01*
X-6170Y-2980D02*
Y-1800D01*
X-6070Y-3080D02*
Y-1800D01*
X-6120Y-3030D02*
Y-1800D01*
X-6420Y-2730D02*
Y-1800D01*
X-7320Y-2500D02*
Y-1800D01*
X-6220Y-2930D02*
Y-1800D01*
X-6370Y-2780D02*
Y-1800D01*
X-11920Y-2500D02*
Y-1350D01*
X-11820Y-2500D02*
Y-1350D01*
X-11870Y-2500D02*
Y-1350D01*
X-12070Y-2500D02*
Y-1350D01*
X-11970Y-2500D02*
Y-1350D01*
X-12020Y-2500D02*
Y-1350D01*
X-11570Y-2500D02*
Y-1350D01*
X-11500Y-2500D02*
Y-1350D01*
X-11520Y-2500D02*
Y-1350D01*
X-11720Y-2500D02*
Y-1350D01*
X-11770Y-2500D02*
Y-1350D01*
X-11620Y-2500D02*
Y-1350D01*
X-11670Y-2500D02*
Y-1350D01*
X-12570Y-2500D02*
Y-1350D01*
X-12470Y-2500D02*
Y-1350D01*
X-12520Y-2500D02*
Y-1350D01*
X-12720Y-2500D02*
Y-1350D01*
X-12770Y-2500D02*
Y-1350D01*
X-12620Y-2500D02*
Y-1350D01*
X-12670Y-2500D02*
Y-1350D01*
X-12220Y-2500D02*
Y-1350D01*
X-12120Y-2500D02*
Y-1350D01*
X-12170Y-2500D02*
Y-1350D01*
X-12370Y-2500D02*
Y-1350D01*
X-12420Y-2500D02*
Y-1350D01*
X-12270Y-2500D02*
Y-1350D01*
X-12320Y-2500D02*
Y-1350D01*
X-6270Y-2880D02*
Y-1800D01*
X-5970Y-3180D02*
Y-1800D01*
X-6020Y-3130D02*
Y-1800D01*
X-6520Y-2630D02*
Y-1800D01*
X-6570Y-2580D02*
Y-1800D01*
X-6320Y-2830D02*
Y-1800D01*
X-6470Y-2680D02*
Y-1800D01*
X-5720Y-5230D02*
Y-1800D01*
X-5620Y-5330D02*
Y-1800D01*
X-5670Y-5280D02*
Y-1800D01*
X-5870Y-3280D02*
Y-1800D01*
X-5920Y-3230D02*
Y-1800D01*
X-5770Y-5180D02*
Y-1800D01*
X-5820Y-5130D02*
Y-1800D01*
X-7070Y-2500D02*
Y-1800D01*
X-6970Y-2500D02*
Y-1800D01*
X-7020Y-2500D02*
Y-1800D01*
X-7220Y-2500D02*
Y-1800D01*
X-7270Y-2500D02*
Y-1800D01*
X-7120Y-2500D02*
Y-1800D01*
X-7170Y-2500D02*
Y-1800D01*
X-6720Y-2500D02*
Y-1800D01*
X-6620Y-2530D02*
Y-1800D01*
X-6670Y-2500D02*
Y-1800D01*
X-6870Y-2500D02*
Y-1800D01*
X-6920Y-2500D02*
Y-1800D01*
X-6770Y-2500D02*
Y-1800D01*
X-6820Y-2500D02*
Y-1800D01*
X-5550Y-5400D02*
X-2720D01*
X-5450Y-5500D02*
X-2720D01*
X-5500Y-5450D02*
X-2720D01*
X-5850Y-5100D02*
X-5300Y-5650D01*
X-5600Y-5350D02*
X-2720D01*
X-5650Y-5300D02*
X-2720D01*
X-5800Y-5150D02*
X-2720D01*
X-5700Y-5250D02*
X-2720D01*
X-5750Y-5200D02*
X-2720D01*
X-5850Y-5000D02*
X-2720D01*
X-5850Y-4950D02*
X-2720D01*
X-5850Y-5100D02*
X-2720D01*
X-5850Y-5050D02*
X-2720D01*
X-5850Y-4450D02*
X-2720D01*
X-5850Y-4550D02*
X-2720D01*
X-5850Y-4500D02*
X-2720D01*
X-5850Y-4300D02*
X-2720D01*
X-5850Y-4250D02*
X-2720D01*
X-5850Y-4400D02*
X-2720D01*
X-5850Y-4350D02*
X-2720D01*
X-5850Y-4800D02*
X-2720D01*
X-5850Y-4900D02*
X-2720D01*
X-5850Y-4850D02*
X-2720D01*
X-5850Y-4650D02*
X-2720D01*
X-5850Y-4600D02*
X-2720D01*
X-5850Y-4750D02*
X-2720D01*
X-5850Y-4700D02*
X-2720D01*
X-5300Y-6450D02*
X-2720D01*
X-5300Y-6550D02*
X-2720D01*
X-5300Y-6500D02*
X-2720D01*
X-5300Y-6300D02*
X-2720D01*
X-5300Y-6250D02*
X-2720D01*
X-5300Y-6400D02*
X-2720D01*
X-5300Y-6350D02*
X-2720D01*
X-5300Y-6800D02*
X-2720D01*
X-5300Y-6900D02*
X-2720D01*
X-5300Y-6850D02*
X-2720D01*
X-5300Y-6650D02*
X-2720D01*
X-5300Y-6600D02*
X-2720D01*
X-5300Y-6750D02*
X-2720D01*
X-5300Y-6700D02*
X-2720D01*
X-5300Y-5750D02*
X-2720D01*
X-5300Y-5850D02*
X-2720D01*
X-5300Y-5800D02*
X-2720D01*
X-5350Y-5600D02*
X-2720D01*
X-5400Y-5550D02*
X-2720D01*
X-5300Y-5700D02*
X-2720D01*
X-5300Y-5650D02*
X-2720D01*
X-5300Y-6100D02*
X-2720D01*
X-5300Y-6200D02*
X-2720D01*
X-5300Y-6150D02*
X-2720D01*
X-5300Y-5950D02*
X-2720D01*
X-5300Y-5900D02*
X-2720D01*
X-5300Y-6050D02*
X-2720D01*
X-5300Y-6000D02*
X-2720D01*
X-6500Y-2650D02*
X-2720D01*
X-6400Y-2750D02*
X-2720D01*
X-6450Y-2700D02*
X-2720D01*
X-6650Y-2500D02*
X-2720D01*
X-6550Y-2600D02*
X-2720D01*
X-6600Y-2550D02*
X-2720D01*
X-6150Y-3000D02*
X-2720D01*
X-6050Y-3100D02*
X-2720D01*
X-6100Y-3050D02*
X-2720D01*
X-6300Y-2850D02*
X-2720D01*
X-6350Y-2800D02*
X-2720D01*
X-6200Y-2950D02*
X-2720D01*
X-6250Y-2900D02*
X-2720D01*
X-8950Y-2000D02*
X-2720D01*
X-8950Y-2100D02*
X-2720D01*
X-8950Y-2050D02*
X-2720D01*
X-8950Y-1850D02*
X-2720D01*
X-8950Y-1800D02*
X-2720D01*
X-8950Y-1950D02*
X-2720D01*
X-8950Y-1900D02*
X-2720D01*
X-8950Y-2350D02*
X-2720D01*
X-8950Y-2450D02*
X-2720D01*
X-8950Y-2400D02*
X-2720D01*
X-8950Y-2200D02*
X-2720D01*
X-8950Y-2150D02*
X-2720D01*
X-8950Y-2300D02*
X-2720D01*
X-8950Y-2250D02*
X-2720D01*
X-5850Y-4200D02*
X-2720D01*
X-5320Y-5630D02*
Y-1800D01*
X-5370Y-5580D02*
Y-1800D01*
X-5520Y-5430D02*
Y-1800D01*
X-5570Y-5380D02*
Y-1800D01*
X-5420Y-5530D02*
Y-1800D01*
X-5470Y-5480D02*
Y-1800D01*
X-5850Y-4050D02*
X-2720D01*
X-5850Y-4150D02*
X-2720D01*
X-5850Y-4100D02*
X-2720D01*
X-5850Y-3900D02*
X-2720D01*
X-5850Y-3850D02*
X-2720D01*
X-5850Y-4000D02*
X-2720D01*
X-5850Y-3950D02*
X-2720D01*
X-5850Y-3350D02*
X-2720D01*
X-5850Y-3450D02*
X-2720D01*
X-5850Y-3400D02*
X-2720D01*
X-5950Y-3200D02*
X-2720D01*
X-6000Y-3150D02*
X-2720D01*
X-5850Y-3300D02*
X-2720D01*
X-5900Y-3250D02*
X-2720D01*
X-5850Y-3700D02*
X-2720D01*
X-5850Y-3800D02*
X-2720D01*
X-5850Y-3750D02*
X-2720D01*
X-5850Y-3550D02*
X-2720D01*
X-5850Y-3500D02*
X-2720D01*
X-5850Y-3650D02*
X-2720D01*
X-5850Y-3600D02*
X-2720D01*
X-6611Y-27291D02*
X-6560Y-27265D01*
X-6484Y-27189D01*
Y-27722D01*
X-6068Y-27189D02*
X-6144Y-27215D01*
X-6195Y-27291D01*
X-6220Y-27418D01*
Y-27494D01*
X-6195Y-27621D01*
X-6144Y-27697D01*
X-6068Y-27722D01*
X-6017D01*
X-5941Y-27697D01*
X-5890Y-27621D01*
X-5865Y-27494D01*
Y-27418D01*
X-5890Y-27291D01*
X-5941Y-27215D01*
X-6017Y-27189D01*
X-6068D01*
X-5593D02*
X-5669Y-27215D01*
X-5720Y-27291D01*
X-5745Y-27418D01*
Y-27494D01*
X-5720Y-27621D01*
X-5669Y-27697D01*
X-5593Y-27722D01*
X-5542D01*
X-5466Y-27697D01*
X-5415Y-27621D01*
X-5390Y-27494D01*
Y-27418D01*
X-5415Y-27291D01*
X-5466Y-27215D01*
X-5542Y-27189D01*
X-5593D01*
X-4915D02*
X-5169Y-27722D01*
X-5270Y-27189D02*
X-4915D01*
X-4796D02*
Y-27722D01*
X-4440Y-27189D02*
X-4796Y-27545D01*
X-4669Y-27418D02*
X-4440Y-27722D01*
X-4321Y-27189D02*
Y-27722D01*
X-3965Y-27189D02*
X-4321Y-27545D01*
X-4194Y-27418D02*
X-3965Y-27722D01*
D26*
X-9100Y18150D02*
X-6250D01*
X-9400Y15950D02*
Y17850D01*
X-13300Y16200D02*
X-12450Y15350D01*
X-10000D02*
X-9400Y15950D01*
X-12450Y15350D02*
X-10000D01*
X-16200Y16200D02*
X-13300D01*
X-20350Y17400D02*
X-17400D01*
X-9400Y17850D02*
X-9100Y18150D01*
X-17400Y17400D02*
X-16200Y16200D01*
X-5100Y12600D02*
Y21150D01*
X-17200Y22650D02*
X-16100Y21550D01*
X-5500D01*
X-5100Y21150D01*
X-10560Y23020D02*
Y26260D01*
X-11350Y27050D02*
X-10560Y26260D01*
X-11350Y27050D02*
Y30950D01*
X-10450Y31850D01*
X-5450D01*
X-4900Y31300D01*
Y30150D02*
Y31300D01*
Y30150D02*
X-4400Y29650D01*
X1600D01*
X1950Y30000D01*
Y31150D01*
X-6050Y23500D02*
Y26350D01*
X-6550Y26850D02*
X-6050Y26350D01*
X-9950Y26850D02*
X-6550D01*
X-10600Y27500D02*
X-9950Y26850D01*
X-10600Y27500D02*
Y30050D01*
X-10200Y30450D01*
X-7300D01*
X-6050Y29200D01*
X2500D01*
X2950Y29650D01*
Y31150D01*
X-8440Y29670D02*
X-7320D01*
X-6400Y28750D01*
X3400D01*
X3950Y29300D01*
Y31150D01*
X-9650Y29630D02*
X-8770Y28750D01*
X-7250D01*
X-6750Y28250D01*
X4350D01*
X4950Y28850D01*
Y31150D01*
X-8000Y27760D02*
X4910D01*
X5950Y28800D01*
Y31150D01*
X-18950Y22650D02*
X-17200D01*
X-9150Y9700D02*
X4550D01*
X-14200Y12400D02*
X-11850D01*
X-9150Y9700D01*
X-6200Y10950D02*
Y13550D01*
X-7950Y14150D02*
X-6800D01*
X-6200Y13550D01*
X-5700Y11850D02*
Y17600D01*
X-6250Y18150D02*
X-5700Y17600D01*
X4550Y9700D02*
X5550Y10700D01*
X-18470Y8280D02*
X1860D01*
X-21680Y2680D02*
X-19950D01*
X-19400Y3230D01*
Y7350D01*
X-18470Y8280D01*
X-21000Y18750D02*
Y19250D01*
X-22550Y16050D02*
Y16900D01*
X-8450Y3650D02*
X-7850D01*
X-7950Y18150D02*
Y19000D01*
X-8000Y19050D02*
X-7950Y19000D01*
X-23920Y4270D02*
X-21720D01*
X-24520Y3670D02*
X-23920Y4270D01*
X-21700Y-6350D02*
Y-4050D01*
X-21720Y2420D02*
X-21700Y2400D01*
X19500Y-4000D02*
X19750D01*
X18850D02*
X19200D01*
X19350Y-4150D02*
X19500Y-4000D01*
X19350Y-7800D02*
Y-4150D01*
X19200Y-4000D02*
X19350Y-4150D01*
X19750Y-8200D02*
X22200D01*
X19350Y-7800D02*
X19750Y-8200D01*
X-4150Y11650D02*
X1700D01*
X-5100Y12600D02*
X-4150Y11650D01*
X-5700Y11850D02*
X-4800Y10950D01*
X1750D01*
X3250Y12450D01*
X2480Y10200D02*
X3420Y11140D01*
X-5450Y10200D02*
X2480D01*
X-6200Y10950D02*
X-5450Y10200D01*
X3690Y13640D02*
X4670D01*
X1700Y11650D02*
X3690Y13640D01*
X-7950Y13400D02*
X-7900Y13350D01*
X-7950Y13400D02*
Y14150D01*
X-20350Y17900D02*
X-18679D01*
X-21550Y17650D02*
Y18200D01*
X-21800Y17400D02*
X-21550Y17650D01*
X-22550Y17400D02*
X-21800D01*
X-21550Y18200D02*
X-21000Y18750D01*
X4760Y12450D02*
X5360Y11850D01*
X3250Y12450D02*
X4760D01*
X-24520Y-1230D02*
X-21700Y-4050D01*
X-24520Y-1230D02*
Y3670D01*
X-13500Y-2850D02*
X-11750D01*
X-14200Y-3550D02*
X-13500Y-2850D01*
X-14200Y-6350D02*
Y-3550D01*
X-8600Y-2850D02*
X-6900D01*
X-6200Y-3550D01*
Y-6350D02*
Y-3550D01*
D27*
X-18950Y23550D02*
Y26350D01*
X-21300Y28700D02*
Y31650D01*
Y28700D02*
X-18950Y26350D01*
X10950Y13900D02*
X11450Y13400D01*
Y11800D02*
Y13400D01*
Y11800D02*
X12000Y11250D01*
X20900Y9250D02*
X21650Y8500D01*
X27500D01*
X20900Y9250D02*
Y10650D01*
X20300Y11250D02*
X20900Y10650D01*
X12000Y11250D02*
X20300D01*
X11450Y14300D02*
X11900Y13850D01*
Y12200D02*
Y13850D01*
X21400Y9600D02*
X22100Y8900D01*
X11900Y12200D02*
X12400Y11700D01*
X22100Y8900D02*
X30900D01*
X21400Y9600D02*
Y11000D01*
X20700Y11700D02*
X21400Y11000D01*
X12400Y11700D02*
X20700D01*
X-22700Y19175D02*
X-21825D01*
X-23500D02*
X-22700D01*
X-20350Y18400D02*
X-19179D01*
X-20850D02*
X-20350D01*
X-24100Y-12150D02*
X27300D01*
X17950Y-4000D02*
X18850Y-4900D01*
X16500Y-6250D02*
X16700Y-6050D01*
X15200Y-6250D02*
X16500D01*
X20240Y-6350D02*
X22200D01*
X19900Y-6010D02*
X20240Y-6350D01*
X19900Y-6010D02*
Y-4900D01*
X33810Y-500D02*
X35500D01*
X33250Y-1060D02*
X33810Y-500D01*
X33250Y-7300D02*
Y-1060D01*
X10250Y9290D02*
Y12900D01*
X-23500Y19925D02*
X-23225Y20200D01*
X-22700D01*
Y21100D01*
X-24300Y17000D02*
Y19555D01*
X-27350Y-8900D02*
Y17000D01*
Y-8900D02*
X-24100Y-12150D01*
X-19179Y18400D02*
X-18679Y18900D01*
X-21150Y18100D02*
X-20850Y18400D01*
X-21150Y17200D02*
Y18100D01*
X-20850Y16900D02*
X-20350D01*
X-21150Y17200D02*
X-20850Y16900D01*
X-21000Y19250D02*
X-20850D01*
X-21750Y16050D02*
X-19529D01*
X-18679Y16900D01*
X26200Y-6350D02*
Y-5700D01*
X25350Y-5450D02*
X25950D01*
X25150Y-5250D02*
X25350Y-5450D01*
X25150Y-5250D02*
Y-4400D01*
X25950Y-5450D02*
X26200Y-5700D01*
X26050Y-4400D02*
X26600D01*
X26900Y-4700D01*
Y-7050D02*
Y-4700D01*
X26650Y-7300D02*
X26900Y-7050D01*
X26650Y-8750D02*
Y-7300D01*
X10250Y9290D02*
X11440Y8100D01*
X34400D02*
X36000D01*
X11440D02*
X27200D01*
X30900Y8900D02*
X31300Y8500D01*
X32200D01*
X7070Y13920D02*
X7450Y14300D01*
X11450D01*
X7070Y10310D02*
Y13920D01*
X28750Y6550D02*
X32850D01*
X27200Y8100D02*
X28750Y6550D01*
X32850D02*
X34400Y8100D01*
X33850Y9000D02*
Y16300D01*
X34200Y16650D01*
X33350Y8500D02*
X33850Y9000D01*
X32200Y8500D02*
X33350D01*
X34200Y16650D02*
X36000D01*
X9120Y9830D02*
Y13420D01*
X9600Y13900D01*
X10950D01*
X27500Y8500D02*
X29050Y6950D01*
X32600D01*
X34300Y8650D01*
Y12800D01*
X34650Y13150D01*
X37900D01*
X38250Y13500D01*
X36800Y21000D02*
X37700D01*
X36300Y21500D02*
X36800Y21000D01*
X36300Y21500D02*
Y26950D01*
X35650Y27600D02*
X36300Y26950D01*
X34050Y27600D02*
X35650D01*
X34050Y25400D02*
Y27600D01*
X37700Y21000D02*
X38250Y20450D01*
Y13500D02*
Y20450D01*
X34050Y22500D02*
Y24500D01*
X-3794Y66405D02*
X1306D01*
D28*
X10260Y5500D02*
X12210Y3550D01*
X17050D02*
X18050Y4550D01*
X26800D01*
X12210Y3550D02*
X17050D01*
X31850Y2600D02*
X36000D01*
X31050Y3400D02*
Y5950D01*
Y-9700D02*
Y1800D01*
Y3400D02*
X31850Y2600D01*
X31050Y1800D02*
X31850Y2600D01*
X33250Y-8200D02*
X36000D01*
X32000D02*
X33250D01*
X15200Y-9000D02*
X18000D01*
X12800D02*
X15200D01*
X16675Y-4025D02*
X16700Y-4000D01*
X16650Y-4050D02*
X16675Y-4025D01*
X11750Y-4150D02*
Y-4000D01*
Y-8500D02*
Y-4150D01*
X-23550Y10550D02*
X-21700D01*
X-24300Y11300D02*
X-23550Y10550D01*
X-24300Y11300D02*
Y16050D01*
X-23650Y-11400D02*
X30900D01*
X-23060Y-10540D02*
X11260D01*
X30100Y-9250D02*
Y-8200D01*
X29550Y-9800D02*
X30100Y-9250D01*
X18000Y-9000D02*
X18800Y-9800D01*
X12240Y-10540D02*
X30210D01*
X31050Y-9700D01*
X16700Y-4700D02*
Y-4050D01*
Y-4700D02*
X16900Y-4900D01*
X17950D01*
X11750Y-10050D02*
Y-8650D01*
X11260Y-10540D02*
X11750Y-10050D01*
X12240Y-10540D01*
X12750Y-9050D02*
Y-8650D01*
Y-9050D02*
X12800Y-9000D01*
X15450Y-4050D02*
X16650D01*
X15200Y-4950D02*
Y-4300D01*
X11800Y-4050D02*
X14950D01*
X15200Y-4300D02*
X15450Y-4050D01*
X14950D02*
X15200Y-4300D01*
X11750Y-4000D02*
X11800Y-4050D01*
X38180Y22256D02*
X40581D01*
X32000Y-10300D02*
Y-8200D01*
X30900Y-11400D02*
X32000Y-10300D01*
X-25450Y-8150D02*
X-23060Y-10540D01*
X-26400Y-8650D02*
X-23650Y-11400D01*
X-25450Y23600D02*
X-24550Y24500D01*
X-25450Y-8150D02*
Y23600D01*
X-24550Y24500D02*
X-21700D01*
X25200Y-9300D02*
X25700Y-9800D01*
X24700D02*
X25200Y-9300D01*
X18800Y-9800D02*
X24700D01*
X25700D02*
X29550D01*
X25200Y-9300D02*
Y-6350D01*
X-26400Y-8650D02*
Y16050D01*
X-24300D02*
X-22650D01*
X31050Y7600D02*
X32200D01*
X28350Y5950D02*
X31050D01*
X27189Y7111D02*
X28350Y5950D01*
X23225Y7111D02*
X27189D01*
X26800Y4550D02*
X28200Y3150D01*
Y-4000D02*
Y3150D01*
X40050Y-6350D02*
X40700Y-5700D01*
Y22137D01*
X40581Y22256D02*
X40700Y22137D01*
X36000Y-6350D02*
X40050D01*
X-14200Y1650D02*
Y3650D01*
D29*
X-1000Y12750D02*
X980D01*
X-1623Y13373D02*
X-1000Y12750D01*
X-2823Y13373D02*
Y14073D01*
Y13373D02*
X-1623D01*
X-2900Y14150D02*
X-2823Y14073D01*
X-21700Y22650D02*
X-18950D01*
D30*
X-8650Y-2850D02*
X-8600D01*
X-10218Y2650D02*
Y3018D01*
Y1950D02*
Y2650D01*
X-11450Y3650D02*
Y5400D01*
X-9650D02*
Y5900D01*
Y3650D02*
Y5400D01*
X-10850D02*
Y5900D01*
Y3650D02*
Y5400D01*
X-11950D02*
X-11500D01*
X-11150Y-2850D02*
Y-2700D01*
X-10500Y-2050D01*
X-9200Y-2850D02*
Y-2750D01*
X-9900Y-2050D02*
X-9200Y-2750D01*
X-10250Y3050D02*
X-10218Y3018D01*
X-9706Y1950D02*
Y2194D01*
X-9050Y2850D02*
Y3050D01*
X-9706Y2194D02*
X-9050Y2850D01*
X-10730Y1950D02*
Y2180D01*
X-11450Y2900D02*
X-10730Y2180D01*
X-11450Y2900D02*
Y3050D01*
X-10474Y1950D02*
Y2224D01*
X-10850Y2600D02*
Y3050D01*
Y2600D02*
X-10474Y2224D01*
X-9962Y1950D02*
Y2238D01*
X-9650Y2550D02*
Y3050D01*
X-9962Y2238D02*
X-9650Y2550D01*
X-9962Y-1388D02*
Y-570D01*
Y-1388D02*
X-9900Y-1450D01*
X-10474Y-1424D02*
Y-570D01*
X-10500Y-1450D02*
X-10474Y-1424D01*
X-10730Y-1080D02*
Y-570D01*
X-10800Y-1150D02*
X-10730Y-1080D01*
X-10800Y-1750D02*
Y-1150D01*
Y-1750D02*
X-10500Y-2050D01*
X-9706Y-1044D02*
Y-570D01*
Y-1044D02*
X-9600Y-1150D01*
Y-1750D02*
Y-1150D01*
X-9900Y-2050D02*
X-9600Y-1750D01*
X-10985Y-1035D02*
Y-570D01*
X-11100Y-1150D02*
X-10985Y-1035D01*
X-11100Y-1450D02*
Y-1150D01*
X-9450Y-1000D02*
Y-570D01*
Y-1000D02*
X-9300Y-1150D01*
Y-1450D02*
Y-1150D01*
X-9050Y3650D02*
Y5400D01*
X18400Y3133D02*
X18483Y3050D01*
X18650D01*
X18733Y3133D01*
Y3467D01*
X18650Y3550D01*
X18483D01*
X18400Y3467D01*
Y3383D01*
X18483Y3300D01*
X18733D01*
X18900Y3050D02*
X19066D01*
X18983D01*
Y3550D01*
X18900Y3467D01*
X19650Y3550D02*
X19483Y3467D01*
X19316Y3300D01*
Y3133D01*
X19400Y3050D01*
X19566D01*
X19650Y3133D01*
Y3217D01*
X19566Y3300D01*
X19316D01*
X19816Y3050D02*
Y3550D01*
X19983Y3383D01*
X20149Y3550D01*
Y3050D01*
X20316Y3550D02*
Y3050D01*
Y3300D01*
X20399Y3383D01*
X20566D01*
X20649Y3300D01*
Y3050D01*
X20816Y3383D02*
X21149D01*
X20816Y3050D01*
X21149D01*
X21816Y3217D02*
X22149D01*
X21816Y3383D02*
X22149D01*
X22815Y3467D02*
X22899Y3550D01*
X23065D01*
X23148Y3467D01*
Y3383D01*
X23065Y3300D01*
X22982D01*
X23065D01*
X23148Y3217D01*
Y3133D01*
X23065Y3050D01*
X22899D01*
X22815Y3133D01*
X23648Y3550D02*
X23482Y3467D01*
X23315Y3300D01*
Y3133D01*
X23398Y3050D01*
X23565D01*
X23648Y3133D01*
Y3217D01*
X23565Y3300D01*
X23315D01*
X24148Y3550D02*
X23815D01*
Y3300D01*
X23982Y3383D01*
X24065D01*
X24148Y3300D01*
Y3133D01*
X24065Y3050D01*
X23898D01*
X23815Y3133D01*
X24315Y3550D02*
X24648D01*
Y3467D01*
X24315Y3133D01*
Y3050D01*
X24815D02*
Y3383D01*
X24898D01*
X24981Y3300D01*
Y3050D01*
Y3300D01*
X25065Y3383D01*
X25148Y3300D01*
Y3050D01*
X25314D02*
X25481D01*
X25398D01*
Y3383D01*
X25314D01*
X25731Y3050D02*
X25898D01*
X25814D01*
Y3550D01*
X25731D01*
X26147Y3050D02*
X26397D01*
X26481Y3133D01*
X26397Y3217D01*
X26231D01*
X26147Y3300D01*
X26231Y3383D01*
X26481D01*
X23150Y19450D02*
Y19950D01*
X22900Y19700D01*
X23233D01*
X23400Y19867D02*
X23483Y19950D01*
X23650D01*
X23733Y19867D01*
Y19783D01*
X23650Y19700D01*
X23566D01*
X23650D01*
X23733Y19617D01*
Y19533D01*
X23650Y19450D01*
X23483D01*
X23400Y19533D01*
X23900Y19867D02*
X23983Y19950D01*
X24150D01*
X24233Y19867D01*
Y19783D01*
X24150Y19700D01*
X24066D01*
X24150D01*
X24233Y19617D01*
Y19533D01*
X24150Y19450D01*
X23983D01*
X23900Y19533D01*
X24400Y19450D02*
Y19950D01*
X24566Y19783D01*
X24733Y19950D01*
Y19450D01*
X24899Y19950D02*
Y19450D01*
Y19700D01*
X24983Y19783D01*
X25149D01*
X25233Y19700D01*
Y19450D01*
X25399Y19783D02*
X25732D01*
X25399Y19450D01*
X25732D01*
X26399Y19617D02*
X26732D01*
X26399Y19783D02*
X26732D01*
X27399Y19950D02*
X27732D01*
Y19867D01*
X27399Y19533D01*
Y19450D01*
X27898Y19950D02*
X28232D01*
Y19867D01*
X27898Y19533D01*
Y19450D01*
X28648D02*
Y19950D01*
X28398Y19700D01*
X28731D01*
X28898Y19867D02*
X28981Y19950D01*
X29148D01*
X29231Y19867D01*
Y19533D01*
X29148Y19450D01*
X28981D01*
X28898Y19533D01*
Y19867D01*
X29398Y19450D02*
Y19783D01*
X29481D01*
X29565Y19700D01*
Y19450D01*
Y19700D01*
X29648Y19783D01*
X29731Y19700D01*
Y19450D01*
X29898D02*
X30064D01*
X29981D01*
Y19783D01*
X29898D01*
X30314Y19450D02*
X30481D01*
X30398D01*
Y19950D01*
X30314D01*
X30731Y19450D02*
X30981D01*
X31064Y19533D01*
X30981Y19617D01*
X30814D01*
X30731Y19700D01*
X30814Y19783D01*
X31064D01*
X2160Y-16894D02*
X2871D01*
X2515D01*
Y-17960D01*
X3759Y-16894D02*
X3404D01*
X3226Y-17071D01*
Y-17782D01*
X3404Y-17960D01*
X3759D01*
X3937Y-17782D01*
Y-17071D01*
X3759Y-16894D01*
X4293Y-17960D02*
Y-16894D01*
X4826D01*
X5004Y-17071D01*
Y-17427D01*
X4826Y-17605D01*
X4293D01*
X6425Y-16894D02*
Y-17960D01*
X7136D01*
X7492D02*
Y-17249D01*
X7847Y-16894D01*
X8202Y-17249D01*
Y-17960D01*
Y-17427D01*
X7492D01*
X8558Y-16894D02*
Y-17071D01*
X8913Y-17427D01*
X9269Y-17071D01*
Y-16894D01*
X8913Y-17427D02*
Y-17960D01*
X10335Y-16894D02*
X9624D01*
Y-17960D01*
X10335D01*
X9624Y-17427D02*
X9980D01*
X10691Y-17960D02*
Y-16894D01*
X11224D01*
X11401Y-17071D01*
Y-17427D01*
X11224Y-17605D01*
X10691D01*
X11046D02*
X11401Y-17960D01*
X6809Y-30912D02*
G03*
X6309Y-30412I-500J0D01*
G01*
X6321Y-32412D02*
G03*
X6809Y-31915I8J480D01*
G01*
X7809Y-30412D02*
G03*
X7309Y-30912I0J-500D01*
G01*
Y-31912D02*
G03*
X7800Y-32412I500J0D01*
G01*
X25059Y-30912D02*
G03*
X24559Y-30412I-500J0D01*
G01*
X24571Y-32412D02*
G03*
X25059Y-31915I8J480D01*
G01*
X25559Y-31922D02*
G03*
X26058Y-32412I490J0D01*
G01*
X26059Y-30412D02*
G03*
X25559Y-30912I0J-500D01*
G01*
X-2441Y-23402D02*
G03*
X-2931Y-22912I-490J0D01*
G01*
X-2921Y-26162D02*
G03*
X-2441Y-25682I0J480D01*
G01*
Y-27152D02*
G03*
X-2948Y-26662I-490J0D01*
G01*
X-1941Y-26672D02*
G03*
X-1451Y-27162I490J0D01*
G01*
X-1941Y-29422D02*
G03*
X-1451Y-29912I490J0D01*
G01*
X-2931D02*
G03*
X-2441Y-29422I0J490D01*
G01*
X15059Y-28152D02*
G03*
X14569Y-27662I-490J0D01*
G01*
Y-29912D02*
G03*
X15059Y-29413I0J490D01*
G01*
X15559Y-29402D02*
G03*
X16060Y-29912I510J0D01*
G01*
X16039Y-27662D02*
G03*
X15560Y-28167I0J-480D01*
G01*
X-1441Y-27662D02*
G03*
X-1941Y-28162I0J-500D01*
G01*
X-1441Y-22912D02*
G03*
X-1941Y-23412I0J-500D01*
G01*
X-10941Y-29412D02*
G03*
X-10450Y-29912I500J0D01*
G01*
X-10441Y-26662D02*
G03*
X-10941Y-27162I0J-500D01*
G01*
Y-25662D02*
G03*
X-10441Y-26162I500J0D01*
G01*
Y-22912D02*
G03*
X-10941Y-23412I0J-500D01*
G01*
Y-21912D02*
G03*
X-10441Y-22412I500J0D01*
G01*
Y-20412D02*
G03*
X-10941Y-20912I0J-500D01*
G01*
X19559D02*
G03*
X19059Y-20412I-500J0D01*
G01*
X20559D02*
G03*
X20059Y-20912I0J-500D01*
G01*
X19059Y-22412D02*
G03*
X19559Y-21912I0J500D01*
G01*
Y-23412D02*
G03*
X19059Y-22912I-500J0D01*
G01*
X-10441Y-30412D02*
G03*
X-10941Y-30912I0J-500D01*
G01*
X19068Y-27162D02*
G03*
X19559Y-26662I-9J500D01*
G01*
X-10941Y-31912D02*
G03*
X-10450Y-32412I500J0D01*
G01*
X19559Y-28152D02*
G03*
X19069Y-27662I-490J0D01*
G01*
X20059Y-29422D02*
G03*
X20558Y-29912I490J0D01*
G01*
X19059Y-29912D02*
G03*
X19559Y-29412I0J500D01*
G01*
X31559Y-32412D02*
G03*
X32059Y-31912I0J500D01*
G01*
X32059Y-30903D02*
G03*
X31559Y-30412I-500J-9D01*
G01*
Y-29912D02*
G03*
X32059Y-29412I0J500D01*
G01*
Y-20902D02*
G03*
X31552Y-20412I-490J0D01*
G01*
X32559Y-20912D02*
G03*
X31559Y-19912I-1000J0D01*
G01*
Y-32912D02*
G03*
X32559Y-31912I0J1000D01*
G01*
X-11441Y-31902D02*
G03*
X-10448Y-32912I1010J0D01*
G01*
X-10441Y-19912D02*
G03*
X-11441Y-20912I0J-1000D01*
G01*
X20059Y-26662D02*
G03*
X20559Y-27162I500J0D01*
G01*
X31559D02*
G03*
X32059Y-26662I0J500D01*
G01*
X20559Y-27662D02*
G03*
X20059Y-28162I0J-500D01*
G01*
X32059Y-28152D02*
G03*
X31569Y-27662I-490J0D01*
G01*
X7809Y-32412D02*
X24559D01*
X-10441D02*
X6309D01*
X-10441Y-30412D02*
X6309D01*
X7809D02*
X24559D01*
X26059Y-32412D02*
X31559D01*
X26059Y-30412D02*
X31559D01*
X-10441Y-20412D02*
X19059D01*
X-10441Y-32912D02*
X31559D01*
X-10441Y-19912D02*
X31559D01*
X-10441Y-29912D02*
X-2941D01*
X-10441Y-26662D02*
X-2941D01*
X-10441Y-26162D02*
X-2941D01*
X-10441Y-22912D02*
X-2941D01*
X-10441Y-22412D02*
X19059D01*
X-1441Y-22912D02*
X19059D01*
X-1441Y-27662D02*
X14559D01*
X-1441Y-29912D02*
X14559D01*
X16059D02*
X19059D01*
X16059Y-27662D02*
X19059D01*
X20559Y-29912D02*
X31559D01*
X20559Y-20412D02*
X31559D01*
X-1441Y-27162D02*
X19059D01*
X20559D02*
X31559D01*
X20559Y-27662D02*
X31559D01*
X6809Y-31912D02*
Y-30912D01*
X7309Y-31912D02*
Y-30912D01*
X25059Y-31912D02*
Y-30912D01*
X25559Y-31912D02*
Y-30912D01*
X32559Y-31912D02*
Y-20912D01*
X-10941Y-29412D02*
Y-27162D01*
X-2441Y-29412D02*
Y-27162D01*
X-10941Y-25662D02*
Y-23412D01*
X-2441Y-25662D02*
Y-23412D01*
X-10941Y-21912D02*
Y-20912D01*
X19559Y-21912D02*
Y-20912D01*
Y-26662D02*
Y-23412D01*
X-1941Y-26662D02*
Y-23412D01*
X15059Y-29412D02*
Y-28162D01*
X-1941Y-29412D02*
Y-28162D01*
X15559Y-29412D02*
Y-28162D01*
X19559Y-29412D02*
Y-28162D01*
X32059Y-31912D02*
Y-30912D01*
X-10941Y-31912D02*
Y-30912D01*
X-11441Y-31912D02*
Y-20912D01*
X20059Y-26662D02*
Y-20912D01*
X32059Y-26662D02*
Y-20912D01*
X20059Y-29412D02*
Y-28162D01*
X32059Y-29412D02*
Y-28152D01*
X22075Y-24619D02*
Y-25259D01*
X22395D01*
X22502Y-25152D01*
Y-25046D01*
X22395Y-24939D01*
X22075D01*
X22395D01*
X22502Y-24832D01*
Y-24726D01*
X22395Y-24619D01*
X22075D01*
X22822Y-25259D02*
X23035D01*
X23142Y-25152D01*
Y-24939D01*
X23035Y-24832D01*
X22822D01*
X22715Y-24939D01*
Y-25152D01*
X22822Y-25259D01*
X23781Y-24832D02*
X23461D01*
X23355Y-24939D01*
Y-25152D01*
X23461Y-25259D01*
X23781D01*
X24101Y-24832D02*
X24314D01*
X24421Y-24939D01*
Y-25259D01*
X24101D01*
X23995Y-25152D01*
X24101Y-25046D01*
X24421D01*
X25274Y-25259D02*
Y-24619D01*
X25594D01*
X25701Y-24726D01*
Y-24939D01*
X25594Y-25046D01*
X25274D01*
X25487D02*
X25701Y-25259D01*
X26021Y-24832D02*
X26234D01*
X26341Y-24939D01*
Y-25259D01*
X26021D01*
X25914Y-25152D01*
X26021Y-25046D01*
X26341D01*
X26660Y-24726D02*
Y-24832D01*
X26554D01*
X26767D01*
X26660D01*
Y-25152D01*
X26767Y-25259D01*
X27194D02*
X27407D01*
X27513Y-25152D01*
Y-24939D01*
X27407Y-24832D01*
X27194D01*
X27087Y-24939D01*
Y-25152D01*
X27194Y-25259D01*
X27727D02*
Y-24832D01*
X28047D01*
X28153Y-24939D01*
Y-25259D01*
X29433Y-24619D02*
X29006D01*
Y-24939D01*
X29220D01*
X29006D01*
Y-25259D01*
X29646Y-24619D02*
Y-25259D01*
X30073D01*
X30286D02*
Y-25152D01*
X30393D01*
Y-25259D01*
X30286D01*
X20475Y-23152D02*
X20582Y-23259D01*
X20795D01*
X20902Y-23152D01*
Y-22726D01*
X20795Y-22619D01*
X20582D01*
X20475Y-22726D01*
Y-22832D01*
X20582Y-22939D01*
X20902D01*
X21115Y-22726D02*
X21222Y-22619D01*
X21435D01*
X21542Y-22726D01*
Y-23152D01*
X21435Y-23259D01*
X21222D01*
X21115Y-23152D01*
Y-22726D01*
X22181Y-23259D02*
X21755D01*
X22181Y-22832D01*
Y-22726D01*
X22075Y-22619D01*
X21861D01*
X21755Y-22726D01*
X23461D02*
X23354Y-22619D01*
X23141D01*
X23034Y-22726D01*
Y-23152D01*
X23141Y-23259D01*
X23354D01*
X23461Y-23152D01*
X23674Y-23259D02*
X23887D01*
X23781D01*
Y-22619D01*
X23674D01*
X24207Y-23259D02*
X24421D01*
X24314D01*
Y-22832D01*
X24207D01*
X24741Y-23259D02*
Y-22832D01*
X25060D01*
X25167Y-22939D01*
Y-23259D01*
X25487Y-22726D02*
Y-22832D01*
X25380D01*
X25594D01*
X25487D01*
Y-23152D01*
X25594Y-23259D01*
X26553D02*
Y-22619D01*
X26767Y-22832D01*
X26980Y-22619D01*
Y-23259D01*
X27300D02*
X27513D01*
X27620Y-23152D01*
Y-22939D01*
X27513Y-22832D01*
X27300D01*
X27193Y-22939D01*
Y-23152D01*
X27300Y-23259D01*
X27939D02*
X28153D01*
X28259Y-23152D01*
Y-22939D01*
X28153Y-22832D01*
X27939D01*
X27833Y-22939D01*
Y-23152D01*
X27939Y-23259D01*
X28473Y-22832D02*
Y-23259D01*
Y-23046D01*
X28579Y-22939D01*
X28686Y-22832D01*
X28793D01*
X29432Y-23259D02*
X29219D01*
X29112Y-23152D01*
Y-22939D01*
X29219Y-22832D01*
X29432D01*
X29539Y-22939D01*
Y-23046D01*
X29112D01*
X30392Y-23259D02*
Y-22619D01*
X30712D01*
X30819Y-22726D01*
Y-22939D01*
X30712Y-23046D01*
X30392D01*
X30605D02*
X30819Y-23259D01*
X31458Y-22619D02*
Y-23259D01*
X31138D01*
X31032Y-23152D01*
Y-22939D01*
X31138Y-22832D01*
X31458D01*
X31672Y-23259D02*
Y-23152D01*
X31778D01*
Y-23259D01*
X31672D01*
X23052Y-25819D02*
X22625D01*
Y-26139D01*
X22838Y-26032D01*
X22945D01*
X23052Y-26139D01*
Y-26352D01*
X22945Y-26459D01*
X22732D01*
X22625Y-26352D01*
X23692Y-25819D02*
X23478Y-25926D01*
X23265Y-26139D01*
Y-26352D01*
X23372Y-26459D01*
X23585D01*
X23692Y-26352D01*
Y-26246D01*
X23585Y-26139D01*
X23265D01*
X23905Y-26459D02*
X24118D01*
X24011D01*
Y-25819D01*
X23905Y-25926D01*
X24438Y-26139D02*
X24864D01*
X25078Y-26352D02*
X25184Y-26459D01*
X25398D01*
X25504Y-26352D01*
Y-25926D01*
X25398Y-25819D01*
X25184D01*
X25078Y-25926D01*
Y-26032D01*
X25184Y-26139D01*
X25504D01*
X25718Y-26352D02*
X25824Y-26459D01*
X26037D01*
X26144Y-26352D01*
Y-25926D01*
X26037Y-25819D01*
X25824D01*
X25718Y-25926D01*
Y-26032D01*
X25824Y-26139D01*
X26144D01*
X26357Y-26352D02*
X26464Y-26459D01*
X26677D01*
X26784Y-26352D01*
Y-25926D01*
X26677Y-25819D01*
X26464D01*
X26357Y-25926D01*
Y-26032D01*
X26464Y-26139D01*
X26784D01*
X26997D02*
X27424D01*
X27637Y-26352D02*
X27744Y-26459D01*
X27957D01*
X28063Y-26352D01*
Y-25926D01*
X27957Y-25819D01*
X27744D01*
X27637Y-25926D01*
Y-26032D01*
X27744Y-26139D01*
X28063D01*
X28597Y-26459D02*
Y-25819D01*
X28277Y-26139D01*
X28703D01*
X29343Y-26459D02*
X28917D01*
X29343Y-26032D01*
Y-25926D01*
X29236Y-25819D01*
X29023D01*
X28917Y-25926D01*
X29983Y-26459D02*
X29556D01*
X29983Y-26032D01*
Y-25926D01*
X29876Y-25819D01*
X29663D01*
X29556Y-25926D01*
X23852Y-23776D02*
X23745Y-23669D01*
X23532D01*
X23425Y-23776D01*
Y-23882D01*
X23532Y-23989D01*
X23745D01*
X23852Y-24096D01*
Y-24202D01*
X23745Y-24309D01*
X23532D01*
X23425Y-24202D01*
X24065Y-23882D02*
Y-24202D01*
X24172Y-24309D01*
X24492D01*
Y-23882D01*
X24705Y-24309D02*
X24918D01*
X24811D01*
Y-23882D01*
X24705D01*
X25345Y-23776D02*
Y-23882D01*
X25238D01*
X25451D01*
X25345D01*
Y-24202D01*
X25451Y-24309D01*
X26091D02*
X25878D01*
X25771Y-24202D01*
Y-23989D01*
X25878Y-23882D01*
X26091D01*
X26198Y-23989D01*
Y-24096D01*
X25771D01*
X27051Y-24309D02*
X27264D01*
X27157D01*
Y-23669D01*
X27051Y-23776D01*
X27584Y-24309D02*
X27797D01*
X27691D01*
Y-23669D01*
X27584Y-23776D01*
X28117D02*
X28224Y-23669D01*
X28437D01*
X28544Y-23776D01*
Y-23882D01*
X28437Y-23989D01*
X28544Y-24096D01*
Y-24202D01*
X28437Y-24309D01*
X28224D01*
X28117Y-24202D01*
Y-24096D01*
X28224Y-23989D01*
X28117Y-23882D01*
Y-23776D01*
X28224Y-23989D02*
X28437D01*
X-28450Y34800D02*
X41550D01*
X-28450Y-15200D02*
Y34800D01*
Y-15200D02*
X41550D01*
Y34800D01*
D31*
X-21550Y8850D02*
X-9500D01*
X-21700Y8700D02*
X-21550Y8850D01*
D32*
X17950Y-4000D02*
Y-1450D01*
X17100Y-600D02*
X17950Y-1450D01*
X9000Y-600D02*
X17100D01*
X8100Y-1500D02*
X9000Y-600D01*
X8100Y-8000D02*
Y-1500D01*
Y-8000D02*
X8750Y-8650D01*
X10750D01*
D33*
X-270Y15160D02*
X23570D01*
X-270Y20380D02*
Y24500D01*
Y15160D02*
Y19480D01*
X32840Y9810D02*
Y20910D01*
X23570Y9810D02*
X32840D01*
X13440Y20910D02*
X32840D01*
X23570Y9810D02*
Y15160D01*
X-2300Y5000D02*
Y5010D01*
X1300Y-6350D02*
X5600D01*
Y-5450D02*
Y2050D01*
X26200D01*
Y-1200D02*
Y2050D01*
X20980Y-1200D02*
X26200D01*
X-2300Y5010D02*
X760D01*
X-3500Y6010D02*
X-2300D01*
D34*
X-11550Y1950D02*
X-10985D01*
X-9450D02*
X-8885D01*
X20975Y-22209D02*
Y-21543D01*
X21308Y-21209D01*
X21642Y-21543D01*
Y-22209D01*
Y-21709D01*
X20975D01*
X22641Y-21543D02*
X22142D01*
X21975Y-21709D01*
Y-22042D01*
X22142Y-22209D01*
X22641D01*
X23141Y-21376D02*
Y-21543D01*
X22975D01*
X23308D01*
X23141D01*
Y-22042D01*
X23308Y-22209D01*
X23808D02*
X24141D01*
X23974D01*
Y-21543D01*
X23808D01*
X24641D02*
X24974Y-22209D01*
X25307Y-21543D01*
X26140Y-22209D02*
X25807D01*
X25640Y-22042D01*
Y-21709D01*
X25807Y-21543D01*
X26140D01*
X26307Y-21709D01*
Y-21876D01*
X25640D01*
X27640Y-21209D02*
Y-22209D01*
X27973Y-21876D01*
X28306Y-22209D01*
Y-21209D01*
X28806Y-21543D02*
X29139D01*
X29306Y-21709D01*
Y-22209D01*
X28806D01*
X28639Y-22042D01*
X28806Y-21876D01*
X29306D01*
X29639Y-21543D02*
X29972Y-22209D01*
X30306Y-21543D01*
X31139Y-22209D02*
X30805D01*
X30639Y-22042D01*
Y-21709D01*
X30805Y-21543D01*
X31139D01*
X31305Y-21709D01*
Y-21876D01*
X30639D01*
X-3594Y44855D02*
X-3261D01*
X-3427D01*
Y45855D01*
X-3594Y45688D01*
X-2761Y44855D02*
X-2428D01*
X-2594D01*
Y45855D01*
X-2761Y45688D01*
X-1928Y44855D02*
X-1595Y45188D01*
Y45521D01*
X-1928Y45855D01*
X-95D02*
Y44855D01*
Y45355D01*
X571D01*
Y45855D01*
Y44855D01*
X905D02*
Y45521D01*
X1238Y45855D01*
X1571Y45521D01*
Y44855D01*
Y45355D01*
X905D01*
X2571Y45688D02*
X2404Y45855D01*
X2071D01*
X1904Y45688D01*
Y45521D01*
X2071Y45355D01*
X2404D01*
X2571Y45188D01*
Y45022D01*
X2404Y44855D01*
X2071D01*
X1904Y45022D01*
X2904Y45855D02*
Y44855D01*
X3570D01*
X5403Y45855D02*
X5070D01*
X4903Y45688D01*
Y45022D01*
X5070Y44855D01*
X5403D01*
X5570Y45022D01*
Y45688D01*
X5403Y45855D01*
X5903Y44855D02*
Y45855D01*
X6569Y44855D01*
Y45855D01*
X7902Y44855D02*
Y45521D01*
X8235Y45855D01*
X8569Y45521D01*
Y44855D01*
Y45355D01*
X7902D01*
X8902Y45855D02*
Y44855D01*
X9568D01*
X9902Y45855D02*
Y44855D01*
X10568D01*
X11901D02*
Y45855D01*
X12401D01*
X12567Y45688D01*
Y45355D01*
X12401Y45188D01*
X11901D01*
X12901Y44855D02*
Y45521D01*
X13234Y45855D01*
X13567Y45521D01*
Y44855D01*
Y45355D01*
X12901D01*
X13900Y45855D02*
Y44855D01*
X14400D01*
X14567Y45022D01*
Y45688D01*
X14400Y45855D01*
X13900D01*
X15566Y45688D02*
X15400Y45855D01*
X15067D01*
X14900Y45688D01*
Y45521D01*
X15067Y45355D01*
X15400D01*
X15566Y45188D01*
Y45022D01*
X15400Y44855D01*
X15067D01*
X14900Y45022D01*
X16899Y44855D02*
Y45521D01*
X17233Y45855D01*
X17566Y45521D01*
Y44855D01*
Y45355D01*
X16899D01*
X17899Y44855D02*
Y45855D01*
X18565Y44855D01*
Y45855D01*
X18899D02*
Y44855D01*
X19399D01*
X19565Y45022D01*
Y45688D01*
X19399Y45855D01*
X18899D01*
X20898D02*
Y45188D01*
X21231Y44855D01*
X21565Y45188D01*
Y45855D01*
X21898D02*
X22231D01*
X22064D01*
Y44855D01*
X21898D01*
X22231D01*
X22731D02*
Y45521D01*
X23064Y45855D01*
X23397Y45521D01*
Y44855D01*
Y45355D01*
X22731D01*
X24397Y45688D02*
X24230Y45855D01*
X23897D01*
X23730Y45688D01*
Y45521D01*
X23897Y45355D01*
X24230D01*
X24397Y45188D01*
Y45022D01*
X24230Y44855D01*
X23897D01*
X23730Y45022D01*
X-2928Y62855D02*
X-3594D01*
X-2928Y63521D01*
Y63688D01*
X-3094Y63855D01*
X-3427D01*
X-3594Y63688D01*
X-2594Y62855D02*
X-2261Y63188D01*
Y63521D01*
X-2594Y63855D01*
X-762Y62855D02*
Y63855D01*
X-428Y63521D01*
X-95Y63855D01*
Y62855D01*
X238D02*
Y63521D01*
X571Y63855D01*
X905Y63521D01*
Y62855D01*
Y63355D01*
X238D01*
X1238Y63855D02*
X1904D01*
X1571D01*
Y62855D01*
X2904Y63855D02*
X2237D01*
Y62855D01*
X2904D01*
X2237Y63355D02*
X2571D01*
X3237Y62855D02*
Y63855D01*
X3737D01*
X3904Y63688D01*
Y63355D01*
X3737Y63188D01*
X3237D01*
X3570D02*
X3904Y62855D01*
X4237Y63855D02*
X4570D01*
X4403D01*
Y62855D01*
X4237D01*
X4570D01*
X5070D02*
Y63521D01*
X5403Y63855D01*
X5736Y63521D01*
Y62855D01*
Y63355D01*
X5070D01*
X6069Y63855D02*
Y62855D01*
X6736D01*
X8069Y63855D02*
X8402D01*
X8235D01*
Y62855D01*
X8069D01*
X8402D01*
X9568Y63688D02*
X9402Y63855D01*
X9069D01*
X8902Y63688D01*
Y63521D01*
X9069Y63355D01*
X9402D01*
X9568Y63188D01*
Y63022D01*
X9402Y62855D01*
X9069D01*
X8902Y63022D01*
X10901Y62855D02*
Y63022D01*
X11068D01*
Y62855D01*
X10901D01*
X11734D02*
X12068D01*
X11901D01*
Y63855D01*
X11734Y63688D01*
X13234Y62855D02*
X12567D01*
X13234Y63521D01*
Y63688D01*
X13067Y63855D01*
X12734D01*
X12567Y63688D01*
X14234Y63855D02*
X13567D01*
Y63355D01*
X13900Y63521D01*
X14067D01*
X14234Y63355D01*
Y63022D01*
X14067Y62855D01*
X13734D01*
X13567Y63022D01*
X15566Y63855D02*
X16233D01*
X15900D01*
Y62855D01*
X16566Y63855D02*
Y62855D01*
Y63355D01*
X17233D01*
Y63855D01*
Y62855D01*
X17566Y63855D02*
X17899D01*
X17732D01*
Y62855D01*
X17566D01*
X17899D01*
X19065Y63688D02*
X18899Y63855D01*
X18565D01*
X18399Y63688D01*
Y63022D01*
X18565Y62855D01*
X18899D01*
X19065Y63022D01*
X19399Y63855D02*
Y62855D01*
Y63188D01*
X20065Y63855D01*
X19565Y63355D01*
X20065Y62855D01*
X22064Y63855D02*
X21398D01*
Y63355D01*
X21731D01*
X21398D01*
Y62855D01*
X22398D02*
Y63855D01*
X22897D01*
X23064Y63688D01*
Y63355D01*
X22897Y63188D01*
X22398D01*
X22731D02*
X23064Y62855D01*
X23897D02*
Y63855D01*
X23397Y63355D01*
X24064D01*
X-3594Y49022D02*
X-3427Y48855D01*
X-3094D01*
X-2928Y49022D01*
Y49688D01*
X-3094Y49855D01*
X-3427D01*
X-3594Y49688D01*
Y49521D01*
X-3427Y49355D01*
X-2928D01*
X-2594Y48855D02*
X-2261Y49188D01*
Y49521D01*
X-2594Y49855D01*
X-762Y48855D02*
Y49855D01*
X-95Y48855D01*
Y49855D01*
X738D02*
X405D01*
X238Y49688D01*
Y49022D01*
X405Y48855D01*
X738D01*
X905Y49022D01*
Y49688D01*
X738Y49855D01*
X2904Y49688D02*
X2737Y49855D01*
X2404D01*
X2237Y49688D01*
Y49521D01*
X2404Y49355D01*
X2737D01*
X2904Y49188D01*
Y49022D01*
X2737Y48855D01*
X2404D01*
X2237Y49022D01*
X3237Y49855D02*
X3570D01*
X3404D01*
Y48855D01*
X3237D01*
X3570D01*
X4070Y49855D02*
Y48855D01*
X4737D01*
X5070Y49855D02*
Y48855D01*
Y49188D01*
X5736Y49855D01*
X5236Y49355D01*
X5736Y48855D01*
X6736Y49688D02*
X6569Y49855D01*
X6236D01*
X6069Y49688D01*
Y49521D01*
X6236Y49355D01*
X6569D01*
X6736Y49188D01*
Y49022D01*
X6569Y48855D01*
X6236D01*
X6069Y49022D01*
X7736Y49688D02*
X7569Y49855D01*
X7236D01*
X7069Y49688D01*
Y49022D01*
X7236Y48855D01*
X7569D01*
X7736Y49022D01*
X8069Y48855D02*
Y49855D01*
X8569D01*
X8735Y49688D01*
Y49355D01*
X8569Y49188D01*
X8069D01*
X8402D02*
X8735Y48855D01*
X9735Y49855D02*
X9069D01*
Y48855D01*
X9735D01*
X9069Y49355D02*
X9402D01*
X10735Y49855D02*
X10068D01*
Y48855D01*
X10735D01*
X10068Y49355D02*
X10401D01*
X11068Y48855D02*
Y49855D01*
X11734Y48855D01*
Y49855D01*
X13567D02*
X13234D01*
X13067Y49688D01*
Y49022D01*
X13234Y48855D01*
X13567D01*
X13734Y49022D01*
Y49688D01*
X13567Y49855D01*
X14067Y48855D02*
Y49855D01*
X14733Y48855D01*
Y49855D01*
X16066Y48855D02*
Y49855D01*
X16566D01*
X16733Y49688D01*
Y49355D01*
X16566Y49188D01*
X16066D01*
X17066Y48855D02*
Y49521D01*
X17399Y49855D01*
X17732Y49521D01*
Y48855D01*
Y49355D01*
X17066D01*
X18066Y49855D02*
Y48855D01*
X18565D01*
X18732Y49022D01*
Y49688D01*
X18565Y49855D01*
X18066D01*
X19732Y49688D02*
X19565Y49855D01*
X19232D01*
X19065Y49688D01*
Y49521D01*
X19232Y49355D01*
X19565D01*
X19732Y49188D01*
Y49022D01*
X19565Y48855D01*
X19232D01*
X19065Y49022D01*
X-3594Y51688D02*
X-3427Y51855D01*
X-3094D01*
X-2928Y51688D01*
Y51521D01*
X-3094Y51355D01*
X-2928Y51188D01*
Y51022D01*
X-3094Y50855D01*
X-3427D01*
X-3594Y51022D01*
Y51188D01*
X-3427Y51355D01*
X-3594Y51521D01*
Y51688D01*
X-3427Y51355D02*
X-3094D01*
X-2594Y50855D02*
X-2261Y51188D01*
Y51521D01*
X-2594Y51855D01*
X-762Y50855D02*
Y51521D01*
X-428Y51855D01*
X-95Y51521D01*
Y50855D01*
Y51355D01*
X-762D01*
X238Y51855D02*
Y50855D01*
X738D01*
X905Y51022D01*
Y51688D01*
X738Y51855D01*
X238D01*
X1238D02*
Y50855D01*
X1738D01*
X1904Y51022D01*
Y51688D01*
X1738Y51855D01*
X1238D01*
X3904Y51688D02*
X3737Y51855D01*
X3404D01*
X3237Y51688D01*
Y51521D01*
X3404Y51355D01*
X3737D01*
X3904Y51188D01*
Y51022D01*
X3737Y50855D01*
X3404D01*
X3237Y51022D01*
X4237Y51855D02*
X4570D01*
X4403D01*
Y50855D01*
X4237D01*
X4570D01*
X5070Y51855D02*
Y50855D01*
X5736D01*
X6069Y51855D02*
Y50855D01*
Y51188D01*
X6736Y51855D01*
X6236Y51355D01*
X6736Y50855D01*
X7736Y51688D02*
X7569Y51855D01*
X7236D01*
X7069Y51688D01*
Y51521D01*
X7236Y51355D01*
X7569D01*
X7736Y51188D01*
Y51022D01*
X7569Y50855D01*
X7236D01*
X7069Y51022D01*
X8735Y51688D02*
X8569Y51855D01*
X8235D01*
X8069Y51688D01*
Y51022D01*
X8235Y50855D01*
X8569D01*
X8735Y51022D01*
X9069Y50855D02*
Y51855D01*
X9568D01*
X9735Y51688D01*
Y51355D01*
X9568Y51188D01*
X9069D01*
X9402D02*
X9735Y50855D01*
X10735Y51855D02*
X10068D01*
Y50855D01*
X10735D01*
X10068Y51355D02*
X10401D01*
X11734Y51855D02*
X11068D01*
Y50855D01*
X11734D01*
X11068Y51355D02*
X11401D01*
X12068Y50855D02*
Y51855D01*
X12734Y50855D01*
Y51855D01*
X-3594Y53855D02*
X-2928D01*
Y53688D01*
X-3594Y53022D01*
Y52855D01*
X-2594D02*
X-2261Y53188D01*
Y53521D01*
X-2594Y53855D01*
X-762Y52855D02*
Y53855D01*
X-262D01*
X-95Y53688D01*
Y53355D01*
X-262Y53188D01*
X-762D01*
X-428D02*
X-95Y52855D01*
X738Y53855D02*
X405D01*
X238Y53688D01*
Y53022D01*
X405Y52855D01*
X738D01*
X905Y53022D01*
Y53688D01*
X738Y53855D01*
X1238D02*
Y53022D01*
X1404Y52855D01*
X1738D01*
X1904Y53022D01*
Y53855D01*
X2237D02*
X2904D01*
X2571D01*
Y52855D01*
X3904Y53855D02*
X3237D01*
Y52855D01*
X3904D01*
X3237Y53355D02*
X3570D01*
X5236Y53855D02*
X5903D01*
X5570D01*
Y52855D01*
X6736Y53855D02*
X6403D01*
X6236Y53688D01*
Y53022D01*
X6403Y52855D01*
X6736D01*
X6903Y53022D01*
Y53688D01*
X6736Y53855D01*
X8235D02*
Y52855D01*
X8735D01*
X8902Y53022D01*
Y53188D01*
X8735Y53355D01*
X8235D01*
X8735D01*
X8902Y53521D01*
Y53688D01*
X8735Y53855D01*
X8235D01*
X9735D02*
X9402D01*
X9235Y53688D01*
Y53022D01*
X9402Y52855D01*
X9735D01*
X9902Y53022D01*
Y53688D01*
X9735Y53855D01*
X10235Y52855D02*
Y53521D01*
X10568Y53855D01*
X10901Y53521D01*
Y52855D01*
Y53355D01*
X10235D01*
X11235Y52855D02*
Y53855D01*
X11734D01*
X11901Y53688D01*
Y53355D01*
X11734Y53188D01*
X11235D01*
X11568D02*
X11901Y52855D01*
X12234Y53855D02*
Y52855D01*
X12734D01*
X12901Y53022D01*
Y53688D01*
X12734Y53855D01*
X12234D01*
X14733D02*
X14400D01*
X14234Y53688D01*
Y53022D01*
X14400Y52855D01*
X14733D01*
X14900Y53022D01*
Y53688D01*
X14733Y53855D01*
X15233D02*
Y53022D01*
X15400Y52855D01*
X15733D01*
X15900Y53022D01*
Y53855D01*
X16233D02*
X16899D01*
X16566D01*
Y52855D01*
X17233Y53855D02*
Y52855D01*
X17899D01*
X18232Y53855D02*
X18565D01*
X18399D01*
Y52855D01*
X18232D01*
X18565D01*
X19065D02*
Y53855D01*
X19732Y52855D01*
Y53855D01*
X20731D02*
X20065D01*
Y52855D01*
X20731D01*
X20065Y53355D02*
X20398D01*
X-2928Y55855D02*
X-3261Y55688D01*
X-3594Y55355D01*
Y55022D01*
X-3427Y54855D01*
X-3094D01*
X-2928Y55022D01*
Y55188D01*
X-3094Y55355D01*
X-3594D01*
X-2594Y54855D02*
X-2261Y55188D01*
Y55521D01*
X-2594Y55855D01*
X-762Y54855D02*
Y55855D01*
X-262D01*
X-95Y55688D01*
Y55355D01*
X-262Y55188D01*
X-762D01*
X-428D02*
X-95Y54855D01*
X905Y55855D02*
X238D01*
Y54855D01*
X905D01*
X238Y55355D02*
X571D01*
X1904Y55688D02*
X1738Y55855D01*
X1404D01*
X1238Y55688D01*
Y55022D01*
X1404Y54855D01*
X1738D01*
X1904Y55022D01*
X2237Y55855D02*
X2904D01*
X2571D01*
Y54855D01*
X3237D02*
Y55521D01*
X3570Y55855D01*
X3904Y55521D01*
Y54855D01*
Y55355D01*
X3237D01*
X4237Y54855D02*
Y55855D01*
X4903Y54855D01*
Y55855D01*
X5903Y55688D02*
X5736Y55855D01*
X5403D01*
X5236Y55688D01*
Y55022D01*
X5403Y54855D01*
X5736D01*
X5903Y55022D01*
Y55355D01*
X5570D01*
X6236Y55855D02*
Y55022D01*
X6403Y54855D01*
X6736D01*
X6903Y55022D01*
Y55855D01*
X7236D02*
Y54855D01*
X7902D01*
X8235D02*
Y55521D01*
X8569Y55855D01*
X8902Y55521D01*
Y54855D01*
Y55355D01*
X8235D01*
X9235Y54855D02*
Y55855D01*
X9735D01*
X9902Y55688D01*
Y55355D01*
X9735Y55188D01*
X9235D01*
X9568D02*
X9902Y54855D01*
X11235Y55855D02*
Y54855D01*
X11734D01*
X11901Y55022D01*
Y55188D01*
X11734Y55355D01*
X11235D01*
X11734D01*
X11901Y55521D01*
Y55688D01*
X11734Y55855D01*
X11235D01*
X12734D02*
X12401D01*
X12234Y55688D01*
Y55022D01*
X12401Y54855D01*
X12734D01*
X12901Y55022D01*
Y55688D01*
X12734Y55855D01*
X13234Y54855D02*
Y55521D01*
X13567Y55855D01*
X13900Y55521D01*
Y54855D01*
Y55355D01*
X13234D01*
X14234Y54855D02*
Y55855D01*
X14733D01*
X14900Y55688D01*
Y55355D01*
X14733Y55188D01*
X14234D01*
X14567D02*
X14900Y54855D01*
X15233Y55855D02*
Y54855D01*
X15733D01*
X15900Y55022D01*
Y55688D01*
X15733Y55855D01*
X15233D01*
X17233D02*
Y54855D01*
X17566Y55188D01*
X17899Y54855D01*
Y55855D01*
X18232D02*
X18565D01*
X18399D01*
Y54855D01*
X18232D01*
X18565D01*
X19065Y55855D02*
X19732D01*
X19399D01*
Y54855D01*
X20065Y55855D02*
Y54855D01*
Y55355D01*
X20731D01*
Y55855D01*
Y54855D01*
X22064D02*
Y55855D01*
X22731Y54855D01*
Y55855D01*
X23564D02*
X23231D01*
X23064Y55688D01*
Y55022D01*
X23231Y54855D01*
X23564D01*
X23730Y55022D01*
Y55688D01*
X23564Y55855D01*
X25730Y55688D02*
X25563Y55855D01*
X25230D01*
X25063Y55688D01*
Y55022D01*
X25230Y54855D01*
X25563D01*
X25730Y55022D01*
X26063Y55855D02*
Y55022D01*
X26230Y54855D01*
X26563D01*
X26730Y55022D01*
Y55855D01*
X27063D02*
X27729D01*
X27396D01*
Y54855D01*
X28562Y55855D02*
X28229D01*
X28062Y55688D01*
Y55022D01*
X28229Y54855D01*
X28562D01*
X28729Y55022D01*
Y55688D01*
X28562Y55855D01*
X29062D02*
Y55022D01*
X29229Y54855D01*
X29562D01*
X29729Y55022D01*
Y55855D01*
X30062D02*
X30728D01*
X30395D01*
Y54855D01*
X31728Y55688D02*
X31561Y55855D01*
X31228D01*
X31061Y55688D01*
Y55521D01*
X31228Y55355D01*
X31561D01*
X31728Y55188D01*
Y55022D01*
X31561Y54855D01*
X31228D01*
X31061Y55022D01*
X-2928Y57855D02*
X-3594D01*
Y57355D01*
X-3261Y57521D01*
X-3094D01*
X-2928Y57355D01*
Y57022D01*
X-3094Y56855D01*
X-3427D01*
X-3594Y57022D01*
X-2594Y56855D02*
X-2261Y57188D01*
Y57521D01*
X-2594Y57855D01*
X-95D02*
X-762D01*
Y57355D01*
X-428D01*
X-762D01*
Y56855D01*
X238Y57855D02*
X571D01*
X405D01*
Y56855D01*
X238D01*
X571D01*
X1071D02*
Y57855D01*
X1738Y56855D01*
Y57855D01*
X2071D02*
X2404D01*
X2237D01*
Y56855D01*
X2071D01*
X2404D01*
X3570Y57688D02*
X3404Y57855D01*
X3070D01*
X2904Y57688D01*
Y57521D01*
X3070Y57355D01*
X3404D01*
X3570Y57188D01*
Y57022D01*
X3404Y56855D01*
X3070D01*
X2904Y57022D01*
X3904Y57855D02*
Y56855D01*
Y57355D01*
X4570D01*
Y57855D01*
Y56855D01*
X5903Y57855D02*
X6236D01*
X6069D01*
Y56855D01*
X5903D01*
X6236D01*
X7402Y57688D02*
X7236Y57855D01*
X6903D01*
X6736Y57688D01*
Y57521D01*
X6903Y57355D01*
X7236D01*
X7402Y57188D01*
Y57022D01*
X7236Y56855D01*
X6903D01*
X6736Y57022D01*
X9402Y57688D02*
X9235Y57855D01*
X8902D01*
X8735Y57688D01*
Y57521D01*
X8902Y57355D01*
X9235D01*
X9402Y57188D01*
Y57022D01*
X9235Y56855D01*
X8902D01*
X8735Y57022D01*
X9735Y56855D02*
Y57855D01*
X10068Y57521D01*
X10401Y57855D01*
Y56855D01*
X11235Y57855D02*
X10901D01*
X10735Y57688D01*
Y57022D01*
X10901Y56855D01*
X11235D01*
X11401Y57022D01*
Y57688D01*
X11235Y57855D01*
X11734D02*
Y56855D01*
X12234D01*
X12401Y57022D01*
Y57188D01*
X12234Y57355D01*
X11734D01*
X12234D01*
X12401Y57521D01*
Y57688D01*
X12234Y57855D01*
X11734D01*
X13400Y57688D02*
X13234Y57855D01*
X12901D01*
X12734Y57688D01*
Y57022D01*
X12901Y56855D01*
X13234D01*
X13400Y57022D01*
X-3094Y58855D02*
Y59855D01*
X-3594Y59355D01*
X-2928D01*
X-2594Y58855D02*
X-2261Y59188D01*
Y59521D01*
X-2594Y59855D01*
X-95Y59688D02*
X-262Y59855D01*
X-595D01*
X-762Y59688D01*
Y59022D01*
X-595Y58855D01*
X-262D01*
X-95Y59022D01*
X738Y59855D02*
X405D01*
X238Y59688D01*
Y59022D01*
X405Y58855D01*
X738D01*
X905Y59022D01*
Y59688D01*
X738Y59855D01*
X1238Y58855D02*
Y59855D01*
X1738D01*
X1904Y59688D01*
Y59355D01*
X1738Y59188D01*
X1238D01*
X2237Y58855D02*
Y59855D01*
X2737D01*
X2904Y59688D01*
Y59355D01*
X2737Y59188D01*
X2237D01*
X3904Y59855D02*
X3237D01*
Y58855D01*
X3904D01*
X3237Y59355D02*
X3570D01*
X4237Y58855D02*
Y59855D01*
X4737D01*
X4903Y59688D01*
Y59355D01*
X4737Y59188D01*
X4237D01*
X4570D02*
X4903Y58855D01*
X6236Y59855D02*
Y58855D01*
X6569Y59188D01*
X6903Y58855D01*
Y59855D01*
X7902D02*
X7236D01*
Y58855D01*
X7902D01*
X7236Y59355D02*
X7569D01*
X8235Y59855D02*
X8569D01*
X8402D01*
Y58855D01*
X8235D01*
X8569D01*
X9735Y59688D02*
X9568Y59855D01*
X9235D01*
X9069Y59688D01*
Y59022D01*
X9235Y58855D01*
X9568D01*
X9735Y59022D01*
Y59355D01*
X9402D01*
X10068Y59855D02*
Y58855D01*
Y59355D01*
X10735D01*
Y59855D01*
Y58855D01*
X11068Y59855D02*
X11734D01*
X11401D01*
Y58855D01*
X13067Y59855D02*
X13400D01*
X13234D01*
Y58855D01*
X13067D01*
X13400D01*
X14567Y59688D02*
X14400Y59855D01*
X14067D01*
X13900Y59688D01*
Y59521D01*
X14067Y59355D01*
X14400D01*
X14567Y59188D01*
Y59022D01*
X14400Y58855D01*
X14067D01*
X13900Y59022D01*
X15900Y58855D02*
X16233D01*
X16066D01*
Y59855D01*
X15900Y59688D01*
X18232Y59855D02*
X17899D01*
X17732Y59688D01*
Y59022D01*
X17899Y58855D01*
X18232D01*
X18399Y59022D01*
Y59688D01*
X18232Y59855D01*
X18732D02*
Y59022D01*
X18899Y58855D01*
X19232D01*
X19399Y59022D01*
Y59855D01*
X19732Y58855D02*
Y59855D01*
X20398Y58855D01*
Y59855D01*
X21398Y59688D02*
X21231Y59855D01*
X20898D01*
X20731Y59688D01*
Y59022D01*
X20898Y58855D01*
X21231D01*
X21398Y59022D01*
X22398Y59855D02*
X21731D01*
Y58855D01*
X22398D01*
X21731Y59355D02*
X22064D01*
X-3594Y61688D02*
X-3427Y61855D01*
X-3094D01*
X-2928Y61688D01*
Y61521D01*
X-3094Y61355D01*
X-3261D01*
X-3094D01*
X-2928Y61188D01*
Y61022D01*
X-3094Y60855D01*
X-3427D01*
X-3594Y61022D01*
X-2594Y60855D02*
X-2261Y61188D01*
Y61521D01*
X-2594Y61855D01*
X-95Y60855D02*
X-762D01*
X-95Y61521D01*
Y61688D01*
X-262Y61855D01*
X-595D01*
X-762Y61688D01*
X1238Y61855D02*
Y60855D01*
X1904D01*
X2237D02*
Y61521D01*
X2571Y61855D01*
X2904Y61521D01*
Y60855D01*
Y61355D01*
X2237D01*
X3237Y61855D02*
Y61688D01*
X3570Y61355D01*
X3904Y61688D01*
Y61855D01*
X3570Y61355D02*
Y60855D01*
X4903Y61855D02*
X4237D01*
Y60855D01*
X4903D01*
X4237Y61355D02*
X4570D01*
X5236Y60855D02*
Y61855D01*
X5736D01*
X5903Y61688D01*
Y61355D01*
X5736Y61188D01*
X5236D01*
X5570D02*
X5903Y60855D01*
X7236Y61855D02*
Y60855D01*
X7736D01*
X7902Y61022D01*
Y61188D01*
X7736Y61355D01*
X7236D01*
X7736D01*
X7902Y61521D01*
Y61688D01*
X7736Y61855D01*
X7236D01*
X8735D02*
X8402D01*
X8235Y61688D01*
Y61022D01*
X8402Y60855D01*
X8735D01*
X8902Y61022D01*
Y61688D01*
X8735Y61855D01*
X9235Y60855D02*
Y61521D01*
X9568Y61855D01*
X9902Y61521D01*
Y60855D01*
Y61355D01*
X9235D01*
X10235Y60855D02*
Y61855D01*
X10735D01*
X10901Y61688D01*
Y61355D01*
X10735Y61188D01*
X10235D01*
X10568D02*
X10901Y60855D01*
X11235Y61855D02*
Y60855D01*
X11734D01*
X11901Y61022D01*
Y61688D01*
X11734Y61855D01*
X11235D01*
X-3594Y46855D02*
X-3261D01*
X-3427D01*
Y47855D01*
X-3594Y47688D01*
X-2761D02*
X-2594Y47855D01*
X-2261D01*
X-2095Y47688D01*
Y47022D01*
X-2261Y46855D01*
X-2594D01*
X-2761Y47022D01*
Y47688D01*
X-1761Y46855D02*
X-1428Y47188D01*
Y47521D01*
X-1761Y47855D01*
X738Y47688D02*
X571Y47855D01*
X238D01*
X71Y47688D01*
Y47022D01*
X238Y46855D01*
X571D01*
X738Y47022D01*
Y47355D01*
X405D01*
X1071Y46855D02*
Y47855D01*
X1571D01*
X1738Y47688D01*
Y47355D01*
X1571Y47188D01*
X1071D01*
X1404D02*
X1738Y46855D01*
X2737Y47855D02*
X2071D01*
Y46855D01*
X2737D01*
X2071Y47355D02*
X2404D01*
X3737Y47855D02*
X3070D01*
Y46855D01*
X3737D01*
X3070Y47355D02*
X3404D01*
X4070Y46855D02*
Y47855D01*
X4737Y46855D01*
Y47855D01*
X6736Y47688D02*
X6569Y47855D01*
X6236D01*
X6069Y47688D01*
Y47521D01*
X6236Y47355D01*
X6569D01*
X6736Y47188D01*
Y47022D01*
X6569Y46855D01*
X6236D01*
X6069Y47022D01*
X7569Y47855D02*
X7236D01*
X7069Y47688D01*
Y47022D01*
X7236Y46855D01*
X7569D01*
X7736Y47022D01*
Y47688D01*
X7569Y47855D01*
X8069D02*
Y46855D01*
X8735D01*
X9069Y47855D02*
Y46855D01*
X9568D01*
X9735Y47022D01*
Y47688D01*
X9568Y47855D01*
X9069D01*
X10735D02*
X10068D01*
Y46855D01*
X10735D01*
X10068Y47355D02*
X10401D01*
X11068Y46855D02*
Y47855D01*
X11568D01*
X11734Y47688D01*
Y47355D01*
X11568Y47188D01*
X11068D01*
X11401D02*
X11734Y46855D01*
X13067D02*
Y47855D01*
X13400Y47521D01*
X13734Y47855D01*
Y46855D01*
X14067D02*
Y47521D01*
X14400Y47855D01*
X14733Y47521D01*
Y46855D01*
Y47355D01*
X14067D01*
X15733Y47688D02*
X15566Y47855D01*
X15233D01*
X15067Y47688D01*
Y47521D01*
X15233Y47355D01*
X15566D01*
X15733Y47188D01*
Y47022D01*
X15566Y46855D01*
X15233D01*
X15067Y47022D01*
X16066Y47855D02*
Y46855D01*
Y47188D01*
X16733Y47855D01*
X16233Y47355D01*
X16733Y46855D01*
X18066Y47855D02*
Y46855D01*
X18565D01*
X18732Y47022D01*
Y47188D01*
X18565Y47355D01*
X18066D01*
X18565D01*
X18732Y47521D01*
Y47688D01*
X18565Y47855D01*
X18066D01*
X19565D02*
X19232D01*
X19065Y47688D01*
Y47022D01*
X19232Y46855D01*
X19565D01*
X19732Y47022D01*
Y47688D01*
X19565Y47855D01*
X20065D02*
X20731D01*
X20398D01*
Y46855D01*
X21065Y47855D02*
Y46855D01*
Y47355D01*
X21731D01*
Y47855D01*
Y46855D01*
X23730Y47688D02*
X23564Y47855D01*
X23231D01*
X23064Y47688D01*
Y47521D01*
X23231Y47355D01*
X23564D01*
X23730Y47188D01*
Y47022D01*
X23564Y46855D01*
X23231D01*
X23064Y47022D01*
X24064Y47855D02*
X24397D01*
X24230D01*
Y46855D01*
X24064D01*
X24397D01*
X24897Y47855D02*
Y46855D01*
X25397D01*
X25563Y47022D01*
Y47688D01*
X25397Y47855D01*
X24897D01*
X26563D02*
X25896D01*
Y46855D01*
X26563D01*
X25896Y47355D02*
X26230D01*
X27563Y47688D02*
X27396Y47855D01*
X27063D01*
X26896Y47688D01*
Y47521D01*
X27063Y47355D01*
X27396D01*
X27563Y47188D01*
Y47022D01*
X27396Y46855D01*
X27063D01*
X26896Y47022D01*
X-3594Y66855D02*
Y67855D01*
X-2928Y66855D01*
Y67855D01*
X-2095D02*
X-2428D01*
X-2594Y67688D01*
Y67022D01*
X-2428Y66855D01*
X-2095D01*
X-1928Y67022D01*
Y67688D01*
X-2095Y67855D01*
X-1595D02*
X-928D01*
X-1261D01*
Y66855D01*
X71Y67855D02*
X-595D01*
Y66855D01*
X71D01*
X-595Y67355D02*
X-262D01*
X1071Y67688D02*
X905Y67855D01*
X571D01*
X405Y67688D01*
Y67521D01*
X571Y67355D01*
X905D01*
X1071Y67188D01*
Y67022D01*
X905Y66855D01*
X571D01*
X405Y67022D01*
X-3594Y64855D02*
X-3261D01*
X-3427D01*
Y65855D01*
X-3594Y65688D01*
X-2761Y64855D02*
X-2428Y65188D01*
Y65521D01*
X-2761Y65855D01*
X-928D02*
Y64855D01*
X-428D01*
X-262Y65022D01*
Y65188D01*
X-428Y65355D01*
X-928D01*
X-428D01*
X-262Y65521D01*
Y65688D01*
X-428Y65855D01*
X-928D01*
X571D02*
X238D01*
X71Y65688D01*
Y65022D01*
X238Y64855D01*
X571D01*
X738Y65022D01*
Y65688D01*
X571Y65855D01*
X1071Y64855D02*
Y65521D01*
X1404Y65855D01*
X1738Y65521D01*
Y64855D01*
Y65355D01*
X1071D01*
X2071Y64855D02*
Y65855D01*
X2571D01*
X2737Y65688D01*
Y65355D01*
X2571Y65188D01*
X2071D01*
X2404D02*
X2737Y64855D01*
X3070Y65855D02*
Y64855D01*
X3570D01*
X3737Y65022D01*
Y65688D01*
X3570Y65855D01*
X3070D01*
X5070Y64855D02*
Y65855D01*
X5403Y65521D01*
X5736Y65855D01*
Y64855D01*
X6736Y65855D02*
X6069D01*
Y64855D01*
X6736D01*
X6069Y65355D02*
X6403D01*
X7069Y64855D02*
Y65521D01*
X7402Y65855D01*
X7736Y65521D01*
Y64855D01*
Y65355D01*
X7069D01*
X8735Y65688D02*
X8569Y65855D01*
X8235D01*
X8069Y65688D01*
Y65521D01*
X8235Y65355D01*
X8569D01*
X8735Y65188D01*
Y65022D01*
X8569Y64855D01*
X8235D01*
X8069Y65022D01*
X9069Y65855D02*
Y65022D01*
X9235Y64855D01*
X9568D01*
X9735Y65022D01*
Y65855D01*
X10068Y64855D02*
Y65855D01*
X10568D01*
X10735Y65688D01*
Y65355D01*
X10568Y65188D01*
X10068D01*
X10401D02*
X10735Y64855D01*
X11734Y65855D02*
X11068D01*
Y64855D01*
X11734D01*
X11068Y65355D02*
X11401D01*
X12734Y65688D02*
X12567Y65855D01*
X12234D01*
X12068Y65688D01*
Y65521D01*
X12234Y65355D01*
X12567D01*
X12734Y65188D01*
Y65022D01*
X12567Y64855D01*
X12234D01*
X12068Y65022D01*
X14067Y65855D02*
X14733D01*
Y65688D01*
X14067Y65022D01*
Y64855D01*
X15067D02*
Y65022D01*
X15233D01*
Y64855D01*
X15067D01*
X15900Y65688D02*
X16066Y65855D01*
X16400D01*
X16566Y65688D01*
Y65022D01*
X16400Y64855D01*
X16066D01*
X15900Y65022D01*
Y65688D01*
X16899D02*
X17066Y65855D01*
X17399D01*
X17566Y65688D01*
Y65022D01*
X17399Y64855D01*
X17066D01*
X16899Y65022D01*
Y65688D01*
X17899D02*
X18066Y65855D01*
X18399D01*
X18565Y65688D01*
Y65022D01*
X18399Y64855D01*
X18066D01*
X17899Y65022D01*
Y65688D01*
X19898Y65855D02*
X20565Y64855D01*
Y65855D02*
X19898Y64855D01*
X23564Y65855D02*
X22897D01*
Y65355D01*
X23231Y65521D01*
X23397D01*
X23564Y65355D01*
Y65022D01*
X23397Y64855D01*
X23064D01*
X22897Y65022D01*
X23897Y64855D02*
Y65022D01*
X24064D01*
Y64855D01*
X23897D01*
X24730Y65688D02*
X24897Y65855D01*
X25230D01*
X25397Y65688D01*
Y65022D01*
X25230Y64855D01*
X24897D01*
X24730Y65022D01*
Y65688D01*
X25730D02*
X25896Y65855D01*
X26230D01*
X26396Y65688D01*
Y65022D01*
X26230Y64855D01*
X25896D01*
X25730Y65022D01*
Y65688D01*
X26730D02*
X26896Y65855D01*
X27229D01*
X27396Y65688D01*
Y65022D01*
X27229Y64855D01*
X26896D01*
X26730Y65022D01*
Y65688D01*
X28729Y65855D02*
X29062D01*
X28895D01*
Y64855D01*
X28729D01*
X29062D01*
X29562D02*
Y65855D01*
X30228Y64855D01*
Y65855D01*
D35*
X-8050Y5400D02*
X-6700D01*
X-6100Y6000D01*
X-4700D01*
X-13100Y5400D02*
X-12550D01*
X-14200Y4300D02*
X-13100Y5400D01*
X-14200Y3650D02*
Y4300D01*
D36*
X3690Y-24390D02*
Y-25350D01*
X3370Y-24390D02*
X4010D01*
X4673Y-24710D02*
Y-25350D01*
Y-24847D02*
X4581Y-24756D01*
X4490Y-24710D01*
X4353D01*
X4261Y-24756D01*
X4170Y-24847D01*
X4124Y-24984D01*
Y-25076D01*
X4170Y-25213D01*
X4261Y-25304D01*
X4353Y-25350D01*
X4490D01*
X4581Y-25304D01*
X4673Y-25213D01*
X5477Y-24710D02*
Y-25441D01*
X5431Y-25579D01*
X5386Y-25624D01*
X5294Y-25670D01*
X5157D01*
X5066Y-25624D01*
X5477Y-24847D02*
X5386Y-24756D01*
X5294Y-24710D01*
X5157D01*
X5066Y-24756D01*
X4974Y-24847D01*
X4929Y-24984D01*
Y-25076D01*
X4974Y-25213D01*
X5066Y-25304D01*
X5157Y-25350D01*
X5294D01*
X5386Y-25304D01*
X5477Y-25213D01*
X6807Y-24390D02*
Y-25350D01*
X6487Y-24390D02*
X7127D01*
X7241Y-24984D02*
X7790D01*
Y-24893D01*
X7744Y-24802D01*
X7698Y-24756D01*
X7607Y-24710D01*
X7470D01*
X7378Y-24756D01*
X7287Y-24847D01*
X7241Y-24984D01*
Y-25076D01*
X7287Y-25213D01*
X7378Y-25304D01*
X7470Y-25350D01*
X7607D01*
X7698Y-25304D01*
X7790Y-25213D01*
X8498Y-24847D02*
X8452Y-24756D01*
X8315Y-24710D01*
X8178D01*
X8041Y-24756D01*
X7995Y-24847D01*
X8041Y-24939D01*
X8132Y-24984D01*
X8361Y-25030D01*
X8452Y-25076D01*
X8498Y-25167D01*
Y-25213D01*
X8452Y-25304D01*
X8315Y-25350D01*
X8178D01*
X8041Y-25304D01*
X7995Y-25213D01*
X8836Y-24390D02*
Y-25167D01*
X8882Y-25304D01*
X8973Y-25350D01*
X9065D01*
X8699Y-24710D02*
X9019D01*
X9956Y-24390D02*
Y-25350D01*
Y-24390D02*
X10550D01*
X9956Y-24847D02*
X10322D01*
X10751Y-24390D02*
X10797Y-24436D01*
X10843Y-24390D01*
X10797Y-24344D01*
X10751Y-24390D01*
X10797Y-24710D02*
Y-25350D01*
X11012Y-24710D02*
X11515Y-25350D01*
Y-24710D02*
X11012Y-25350D01*
X11853Y-24390D02*
Y-25167D01*
X11898Y-25304D01*
X11990Y-25350D01*
X12081D01*
X11716Y-24710D02*
X12036D01*
X12218D02*
Y-25167D01*
X12264Y-25304D01*
X12356Y-25350D01*
X12493D01*
X12584Y-25304D01*
X12721Y-25167D01*
Y-24710D02*
Y-25350D01*
X12973Y-24710D02*
Y-25350D01*
Y-24984D02*
X13018Y-24847D01*
X13110Y-24756D01*
X13201Y-24710D01*
X13338D01*
X13425Y-24984D02*
X13973D01*
Y-24893D01*
X13928Y-24802D01*
X13882Y-24756D01*
X13791Y-24710D01*
X13654D01*
X13562Y-24756D01*
X13471Y-24847D01*
X13425Y-24984D01*
Y-25076D01*
X13471Y-25213D01*
X13562Y-25304D01*
X13654Y-25350D01*
X13791D01*
X13882Y-25304D01*
X13973Y-25213D01*
X590Y-21862D02*
X225Y-20902D01*
X-141Y-21862D01*
X-4Y-21542D02*
X453D01*
X1363Y-21359D02*
X1271Y-21268D01*
X1180Y-21222D01*
X1043D01*
X952Y-21268D01*
X860Y-21359D01*
X814Y-21496D01*
Y-21588D01*
X860Y-21725D01*
X952Y-21816D01*
X1043Y-21862D01*
X1180D01*
X1271Y-21816D01*
X1363Y-21725D01*
X1706Y-20902D02*
Y-21679D01*
X1751Y-21816D01*
X1843Y-21862D01*
X1934D01*
X1569Y-21222D02*
X1888D01*
X2163Y-20902D02*
X2208Y-20948D01*
X2254Y-20902D01*
X2208Y-20856D01*
X2163Y-20902D01*
X2208Y-21222D02*
Y-21862D01*
X2423Y-21222D02*
X2697Y-21862D01*
X2972Y-21222D02*
X2697Y-21862D01*
X3127Y-21496D02*
X3676D01*
Y-21405D01*
X3630Y-21313D01*
X3584Y-21268D01*
X3493Y-21222D01*
X3356D01*
X3264Y-21268D01*
X3173Y-21359D01*
X3127Y-21496D01*
Y-21588D01*
X3173Y-21725D01*
X3264Y-21816D01*
X3356Y-21862D01*
X3493D01*
X3584Y-21816D01*
X3676Y-21725D01*
X4635Y-20902D02*
X4864Y-21862D01*
X5092Y-20902D02*
X4864Y-21862D01*
X5092Y-20902D02*
X5321Y-21862D01*
X5549Y-20902D02*
X5321Y-21862D01*
X6290Y-21222D02*
Y-21862D01*
Y-21359D02*
X6198Y-21268D01*
X6107Y-21222D01*
X5970D01*
X5878Y-21268D01*
X5787Y-21359D01*
X5741Y-21496D01*
Y-21588D01*
X5787Y-21725D01*
X5878Y-21816D01*
X5970Y-21862D01*
X6107D01*
X6198Y-21816D01*
X6290Y-21725D01*
X6546Y-21222D02*
X6820Y-21862D01*
X7094Y-21222D02*
X6820Y-21862D01*
X7250Y-21496D02*
X7798D01*
Y-21405D01*
X7752Y-21313D01*
X7707Y-21268D01*
X7615Y-21222D01*
X7478D01*
X7387Y-21268D01*
X7295Y-21359D01*
X7250Y-21496D01*
Y-21588D01*
X7295Y-21725D01*
X7387Y-21816D01*
X7478Y-21862D01*
X7615D01*
X7707Y-21816D01*
X7798Y-21725D01*
X17837Y-28754D02*
X17760Y-28779D01*
X17710Y-28855D01*
X17684Y-28982D01*
Y-29058D01*
X17710Y-29185D01*
X17760Y-29261D01*
X17837Y-29287D01*
X17887D01*
X17964Y-29261D01*
X18014Y-29185D01*
X18040Y-29058D01*
Y-28982D01*
X18014Y-28855D01*
X17964Y-28779D01*
X17887Y-28754D01*
X17837D01*
X18311D02*
X18235Y-28779D01*
X18184Y-28855D01*
X18159Y-28982D01*
Y-29058D01*
X18184Y-29185D01*
X18235Y-29261D01*
X18311Y-29287D01*
X18362D01*
X18438Y-29261D01*
X18489Y-29185D01*
X18514Y-29058D01*
Y-28982D01*
X18489Y-28855D01*
X18438Y-28779D01*
X18362Y-28754D01*
X18311D01*
X24707Y-28635D02*
X24758Y-28609D01*
X24834Y-28533D01*
Y-29066D01*
X25250Y-28533D02*
X25174Y-28559D01*
X25123Y-28635D01*
X25098Y-28762D01*
Y-28838D01*
X25123Y-28965D01*
X25174Y-29041D01*
X25250Y-29066D01*
X25301D01*
X25377Y-29041D01*
X25428Y-28965D01*
X25453Y-28838D01*
Y-28762D01*
X25428Y-28635D01*
X25377Y-28559D01*
X25301Y-28533D01*
X25250D01*
X25573Y-29143D02*
X25928Y-28533D01*
X26015D02*
X26294D01*
X26142Y-28736D01*
X26218D01*
X26268Y-28762D01*
X26294Y-28787D01*
X26319Y-28863D01*
Y-28914D01*
X26294Y-28990D01*
X26243Y-29041D01*
X26167Y-29066D01*
X26091D01*
X26015Y-29041D01*
X25989Y-29016D01*
X25964Y-28965D01*
X26439Y-29143D02*
X26794Y-28533D01*
X26982D02*
X26906Y-28559D01*
X26855Y-28635D01*
X26830Y-28762D01*
Y-28838D01*
X26855Y-28965D01*
X26906Y-29041D01*
X26982Y-29066D01*
X27033D01*
X27109Y-29041D01*
X27160Y-28965D01*
X27185Y-28838D01*
Y-28762D01*
X27160Y-28635D01*
X27109Y-28559D01*
X27033Y-28533D01*
X26982D01*
X27660D02*
X27406Y-29066D01*
X27304Y-28533D02*
X27660D01*
D37*
X26540Y-30906D02*
X26515Y-30855D01*
X26464Y-30804D01*
X26413Y-30779D01*
X26312D01*
X26261Y-30804D01*
X26210Y-30855D01*
X26185Y-30906D01*
X26159Y-30982D01*
Y-31109D01*
X26185Y-31185D01*
X26210Y-31236D01*
X26261Y-31286D01*
X26312Y-31312D01*
X26413D01*
X26464Y-31286D01*
X26515Y-31236D01*
X26540Y-31185D01*
Y-31109D01*
X26413D02*
X26540D01*
X26992Y-30779D02*
X26662D01*
Y-31312D01*
X26992D01*
X26662Y-31032D02*
X26865D01*
X27081Y-30779D02*
Y-31312D01*
Y-30779D02*
X27309D01*
X27386Y-30804D01*
X27411Y-30829D01*
X27436Y-30880D01*
Y-30931D01*
X27411Y-30982D01*
X27386Y-31007D01*
X27309Y-31032D01*
X27081D01*
X27259D02*
X27436Y-31312D01*
X27556Y-30779D02*
Y-31312D01*
Y-30779D02*
X27784D01*
X27860Y-30804D01*
X27886Y-30829D01*
X27911Y-30880D01*
Y-30931D01*
X27886Y-30982D01*
X27860Y-31007D01*
X27784Y-31032D01*
X27556D02*
X27784D01*
X27860Y-31058D01*
X27886Y-31083D01*
X27911Y-31134D01*
Y-31210D01*
X27886Y-31261D01*
X27860Y-31286D01*
X27784Y-31312D01*
X27556D01*
X28361Y-30779D02*
X28031D01*
Y-31312D01*
X28361D01*
X28031Y-31032D02*
X28234D01*
X28450Y-30779D02*
Y-31312D01*
Y-30779D02*
X28678D01*
X28754Y-30804D01*
X28780Y-30829D01*
X28805Y-30880D01*
Y-30931D01*
X28780Y-30982D01*
X28754Y-31007D01*
X28678Y-31032D01*
X28450D01*
X28627D02*
X28805Y-31312D01*
X28950Y-30956D02*
X28924Y-30982D01*
X28950Y-31007D01*
X28975Y-30982D01*
X28950Y-30956D01*
Y-31261D02*
X28924Y-31286D01*
X28950Y-31312D01*
X28975Y-31286D01*
X28950Y-31261D01*
X-10441Y-30779D02*
Y-31312D01*
Y-30779D02*
X-10111D01*
X-10441Y-31032D02*
X-10238D01*
X-10050Y-30779D02*
Y-31312D01*
X-9938Y-30779D02*
Y-31312D01*
X-9633D01*
X-9245Y-30779D02*
X-9575D01*
Y-31312D01*
X-9245D01*
X-9575Y-31032D02*
X-9372D01*
X-8737Y-30779D02*
Y-31312D01*
Y-30779D02*
X-8382Y-31312D01*
Y-30779D02*
Y-31312D01*
X-7828D02*
X-8031Y-30779D01*
X-8234Y-31312D01*
X-8158Y-31134D02*
X-7904D01*
X-7704Y-30779D02*
Y-31312D01*
Y-30779D02*
X-7500Y-31312D01*
X-7297Y-30779D02*
X-7500Y-31312D01*
X-7297Y-30779D02*
Y-31312D01*
X-6815Y-30779D02*
X-7145D01*
Y-31312D01*
X-6815D01*
X-7145Y-31032D02*
X-6942D01*
X-6701Y-30956D02*
X-6726Y-30982D01*
X-6701Y-31007D01*
X-6675Y-30982D01*
X-6701Y-30956D01*
Y-31261D02*
X-6726Y-31286D01*
X-6701Y-31312D01*
X-6675Y-31286D01*
X-6701Y-31261D01*
X-10441Y-27179D02*
Y-27712D01*
Y-27179D02*
X-10263D01*
X-10187Y-27204D01*
X-10136Y-27255D01*
X-10111Y-27306D01*
X-10085Y-27382D01*
Y-27509D01*
X-10111Y-27585D01*
X-10136Y-27636D01*
X-10187Y-27686D01*
X-10263Y-27712D01*
X-10441D01*
X-9966Y-27356D02*
Y-27712D01*
Y-27509D02*
X-9941Y-27432D01*
X-9890Y-27382D01*
X-9839Y-27356D01*
X-9763D01*
X-9410D02*
Y-27712D01*
Y-27432D02*
X-9461Y-27382D01*
X-9511Y-27356D01*
X-9588D01*
X-9638Y-27382D01*
X-9689Y-27432D01*
X-9715Y-27509D01*
Y-27559D01*
X-9689Y-27636D01*
X-9638Y-27686D01*
X-9588Y-27712D01*
X-9511D01*
X-9461Y-27686D01*
X-9410Y-27636D01*
X-9268Y-27356D02*
X-9166Y-27712D01*
X-9065Y-27356D02*
X-9166Y-27712D01*
X-9065Y-27356D02*
X-8963Y-27712D01*
X-8861Y-27356D02*
X-8963Y-27712D01*
X-8737Y-27356D02*
Y-27712D01*
Y-27458D02*
X-8661Y-27382D01*
X-8610Y-27356D01*
X-8534D01*
X-8483Y-27382D01*
X-8458Y-27458D01*
Y-27712D01*
X-7899Y-27179D02*
Y-27712D01*
Y-27432D02*
X-7848Y-27382D01*
X-7798Y-27356D01*
X-7721D01*
X-7671Y-27382D01*
X-7620Y-27432D01*
X-7594Y-27509D01*
Y-27559D01*
X-7620Y-27636D01*
X-7671Y-27686D01*
X-7721Y-27712D01*
X-7798D01*
X-7848Y-27686D01*
X-7899Y-27636D01*
X-7455Y-27356D02*
X-7302Y-27712D01*
X-7150Y-27356D02*
X-7302Y-27712D01*
X-7353Y-27813D01*
X-7404Y-27864D01*
X-7455Y-27890D01*
X-7480D01*
X-7036Y-27356D02*
X-7061Y-27382D01*
X-7036Y-27407D01*
X-7010Y-27382D01*
X-7036Y-27356D01*
Y-27661D02*
X-7061Y-27686D01*
X-7036Y-27712D01*
X-7010Y-27686D01*
X-7036Y-27661D01*
X-1388Y-23254D02*
Y-23787D01*
X-1566Y-23254D02*
X-1210D01*
X-1147D02*
Y-23787D01*
X-857Y-23254D02*
Y-23787D01*
X-1035Y-23254D02*
X-680D01*
X-616D02*
Y-23787D01*
X-311D01*
X77Y-23254D02*
X-253D01*
Y-23787D01*
X77D01*
X-253Y-23507D02*
X-50D01*
X191Y-23431D02*
X166Y-23457D01*
X191Y-23482D01*
X217Y-23457D01*
X191Y-23431D01*
Y-23736D02*
X166Y-23761D01*
X191Y-23787D01*
X217Y-23761D01*
X191Y-23736D01*
X-1441Y-28283D02*
X-1212D01*
X-1136Y-28257D01*
X-1111Y-28232D01*
X-1085Y-28181D01*
Y-28105D01*
X-1111Y-28054D01*
X-1136Y-28029D01*
X-1212Y-28004D01*
X-1441D01*
Y-28537D01*
X-560D02*
X-763Y-28004D01*
X-966Y-28537D01*
X-890Y-28359D02*
X-636D01*
X-435Y-28004D02*
Y-28537D01*
Y-28004D02*
X-207D01*
X-131Y-28029D01*
X-105Y-28054D01*
X-80Y-28105D01*
Y-28156D01*
X-105Y-28207D01*
X-131Y-28232D01*
X-207Y-28257D01*
X-435D01*
X-258D02*
X-80Y-28537D01*
X217Y-28004D02*
Y-28537D01*
X40Y-28004D02*
X395D01*
X877D02*
Y-28537D01*
Y-28004D02*
X1233Y-28537D01*
Y-28004D02*
Y-28537D01*
X1533Y-28004D02*
X1482Y-28029D01*
X1431Y-28080D01*
X1406Y-28131D01*
X1380Y-28207D01*
Y-28334D01*
X1406Y-28410D01*
X1431Y-28461D01*
X1482Y-28511D01*
X1533Y-28537D01*
X1634D01*
X1685Y-28511D01*
X1736Y-28461D01*
X1761Y-28410D01*
X1786Y-28334D01*
Y-28207D01*
X1761Y-28131D01*
X1736Y-28080D01*
X1685Y-28029D01*
X1634Y-28004D01*
X1533D01*
X1936Y-28486D02*
X1911Y-28511D01*
X1936Y-28537D01*
X1962Y-28511D01*
X1936Y-28486D01*
X2104Y-28181D02*
X2078Y-28207D01*
X2104Y-28232D01*
X2129Y-28207D01*
X2104Y-28181D01*
Y-28486D02*
X2078Y-28511D01*
X2104Y-28537D01*
X2129Y-28511D01*
X2104Y-28486D01*
X-10111Y-23379D02*
X-10441D01*
Y-23912D01*
X-10111D01*
X-10441Y-23632D02*
X-10238D01*
X-10022Y-23379D02*
Y-23912D01*
Y-23379D02*
X-9666Y-23912D01*
Y-23379D02*
Y-23912D01*
X-9138Y-23506D02*
X-9164Y-23455D01*
X-9214Y-23404D01*
X-9265Y-23379D01*
X-9367D01*
X-9418Y-23404D01*
X-9468Y-23455D01*
X-9494Y-23506D01*
X-9519Y-23582D01*
Y-23709D01*
X-9494Y-23785D01*
X-9468Y-23836D01*
X-9418Y-23886D01*
X-9367Y-23912D01*
X-9265D01*
X-9214Y-23886D01*
X-9164Y-23836D01*
X-9138Y-23785D01*
Y-23709D01*
X-9265D02*
X-9138D01*
X-9016Y-23379D02*
Y-23912D01*
X-8905Y-23379D02*
Y-23912D01*
Y-23379D02*
X-8549Y-23912D01*
Y-23379D02*
Y-23912D01*
X-8072Y-23379D02*
X-8402D01*
Y-23912D01*
X-8072D01*
X-8402Y-23632D02*
X-8199D01*
X-7653Y-23379D02*
X-7983D01*
Y-23912D01*
X-7653D01*
X-7983Y-23632D02*
X-7780D01*
X-7564Y-23379D02*
Y-23912D01*
Y-23379D02*
X-7335D01*
X-7259Y-23404D01*
X-7234Y-23429D01*
X-7208Y-23480D01*
Y-23531D01*
X-7234Y-23582D01*
X-7259Y-23607D01*
X-7335Y-23632D01*
X-7564D01*
X-7386D02*
X-7208Y-23912D01*
X-7064Y-23556D02*
X-7089Y-23582D01*
X-7064Y-23607D01*
X-7038Y-23582D01*
X-7064Y-23556D01*
Y-23861D02*
X-7089Y-23886D01*
X-7064Y-23912D01*
X-7038Y-23886D01*
X-7064Y-23861D01*
X7959Y-30779D02*
Y-31312D01*
X8264D01*
X8729D02*
X8525Y-30779D01*
X8322Y-31312D01*
X8398Y-31134D02*
X8652D01*
X8853Y-30779D02*
X9056Y-31032D01*
Y-31312D01*
X9259Y-30779D02*
X9056Y-31032D01*
X9658Y-30779D02*
X9328D01*
Y-31312D01*
X9658D01*
X9328Y-31032D02*
X9531D01*
X9747Y-30779D02*
Y-31312D01*
Y-30779D02*
X9975D01*
X10051Y-30804D01*
X10077Y-30829D01*
X10102Y-30880D01*
Y-30931D01*
X10077Y-30982D01*
X10051Y-31007D01*
X9975Y-31032D01*
X9747D01*
X9924D02*
X10102Y-31312D01*
X10247Y-30956D02*
X10222Y-30982D01*
X10247Y-31007D01*
X10272Y-30982D01*
X10247Y-30956D01*
Y-31261D02*
X10222Y-31286D01*
X10247Y-31312D01*
X10272Y-31286D01*
X10247Y-31261D01*
X-10441Y-29283D02*
X-10212D01*
X-10136Y-29257D01*
X-10111Y-29232D01*
X-10085Y-29181D01*
Y-29105D01*
X-10111Y-29054D01*
X-10136Y-29029D01*
X-10212Y-29004D01*
X-10441D01*
Y-29537D01*
X-9966Y-29004D02*
Y-29537D01*
X-9610Y-29004D02*
Y-29537D01*
X-9966Y-29257D02*
X-9610D01*
X-9311Y-29004D02*
X-9362Y-29029D01*
X-9412Y-29080D01*
X-9438Y-29131D01*
X-9463Y-29207D01*
Y-29334D01*
X-9438Y-29410D01*
X-9412Y-29461D01*
X-9362Y-29511D01*
X-9311Y-29537D01*
X-9209D01*
X-9159Y-29511D01*
X-9108Y-29461D01*
X-9082Y-29410D01*
X-9057Y-29334D01*
Y-29207D01*
X-9082Y-29131D01*
X-9108Y-29080D01*
X-9159Y-29029D01*
X-9209Y-29004D01*
X-9311D01*
X-8933D02*
Y-29537D01*
Y-29004D02*
X-8577Y-29537D01*
Y-29004D02*
Y-29537D01*
X-8100Y-29004D02*
X-8430D01*
Y-29537D01*
X-8100D01*
X-8430Y-29257D02*
X-8227D01*
X-7985Y-29181D02*
X-8011Y-29207D01*
X-7985Y-29232D01*
X-7960Y-29207D01*
X-7985Y-29181D01*
Y-29486D02*
X-8011Y-29511D01*
X-7985Y-29537D01*
X-7960Y-29511D01*
X-7985Y-29486D01*
X-10441Y-25533D02*
X-10212D01*
X-10136Y-25507D01*
X-10111Y-25482D01*
X-10085Y-25431D01*
Y-25355D01*
X-10111Y-25304D01*
X-10136Y-25279D01*
X-10212Y-25254D01*
X-10441D01*
Y-25787D01*
X-9966Y-25254D02*
Y-25787D01*
X-9610Y-25254D02*
Y-25787D01*
X-9966Y-25507D02*
X-9610D01*
X-9311Y-25254D02*
X-9362Y-25279D01*
X-9412Y-25330D01*
X-9438Y-25381D01*
X-9463Y-25457D01*
Y-25584D01*
X-9438Y-25660D01*
X-9412Y-25711D01*
X-9362Y-25761D01*
X-9311Y-25787D01*
X-9209D01*
X-9159Y-25761D01*
X-9108Y-25711D01*
X-9082Y-25660D01*
X-9057Y-25584D01*
Y-25457D01*
X-9082Y-25381D01*
X-9108Y-25330D01*
X-9159Y-25279D01*
X-9209Y-25254D01*
X-9311D01*
X-8933D02*
Y-25787D01*
Y-25254D02*
X-8577Y-25787D01*
Y-25254D02*
Y-25787D01*
X-8100Y-25254D02*
X-8430D01*
Y-25787D01*
X-8100D01*
X-8430Y-25507D02*
X-8227D01*
X-7985Y-25431D02*
X-8011Y-25457D01*
X-7985Y-25482D01*
X-7960Y-25457D01*
X-7985Y-25431D01*
Y-25736D02*
X-8011Y-25761D01*
X-7985Y-25787D01*
X-7960Y-25761D01*
X-7985Y-25736D01*
X15934Y-28004D02*
Y-28537D01*
Y-28004D02*
X16163D01*
X16239Y-28029D01*
X16264Y-28054D01*
X16290Y-28105D01*
Y-28156D01*
X16264Y-28207D01*
X16239Y-28232D01*
X16163Y-28257D01*
X15934D01*
X16112D02*
X16290Y-28537D01*
X16739Y-28004D02*
X16409D01*
Y-28537D01*
X16739D01*
X16409Y-28257D02*
X16612D01*
X16828Y-28004D02*
X17031Y-28537D01*
X17234Y-28004D02*
X17031Y-28537D01*
X17328Y-28181D02*
X17303Y-28207D01*
X17328Y-28232D01*
X17354Y-28207D01*
X17328Y-28181D01*
Y-28486D02*
X17303Y-28511D01*
X17328Y-28537D01*
X17354Y-28511D01*
X17328Y-28486D01*
X20559Y-28004D02*
Y-28537D01*
Y-28004D02*
X20737D01*
X20813Y-28029D01*
X20864Y-28080D01*
X20889Y-28131D01*
X20915Y-28207D01*
Y-28334D01*
X20889Y-28410D01*
X20864Y-28461D01*
X20813Y-28511D01*
X20737Y-28537D01*
X20559D01*
X21440D02*
X21237Y-28004D01*
X21034Y-28537D01*
X21110Y-28359D02*
X21364D01*
X21742Y-28004D02*
Y-28537D01*
X21565Y-28004D02*
X21920D01*
X22314D02*
X21984D01*
Y-28537D01*
X22314D01*
X21984Y-28257D02*
X22187D01*
X22428Y-28181D02*
X22403Y-28207D01*
X22428Y-28232D01*
X22453Y-28207D01*
X22428Y-28181D01*
Y-28486D02*
X22403Y-28511D01*
X22428Y-28537D01*
X22453Y-28511D01*
X22428Y-28486D01*
D38*
X-6060Y30900D02*
D03*
X-15330Y30750D02*
D03*
X-15550Y23010D02*
D03*
X-10560Y23020D02*
D03*
X-8000Y27760D02*
D03*
X-6050Y23500D02*
D03*
X-14200Y12400D02*
D03*
X23225Y7111D02*
D03*
X980Y12750D02*
D03*
X4670Y13640D02*
D03*
X3420Y11140D02*
D03*
X-21700Y-6350D02*
D03*
X1860Y8280D02*
D03*
X760Y5010D02*
D03*
X10260Y5500D02*
D03*
X-270Y24500D02*
D03*
X1300Y-6350D02*
D03*
X10250Y12900D02*
D03*
X7070Y10310D02*
D03*
X-6200Y-6350D02*
D03*
X9120Y9830D02*
D03*
X-14200Y-6350D02*
D03*
Y1650D02*
D03*
X-15200Y650D02*
D03*
Y2650D02*
D03*
X-13200D02*
D03*
Y650D02*
D03*
D39*
X-9650Y29630D02*
D03*
X-8440Y29670D02*
D03*
X5550Y10700D02*
D03*
X5360Y11850D02*
D03*
D40*
X14460Y5490D02*
D03*
X30320Y15330D02*
D03*
X2493Y2548D02*
D03*
D41*
X15255Y10300D02*
D03*
X14255D02*
D03*
X13255D02*
D03*
X12255D02*
D03*
X11255D02*
D03*
X17750Y13100D02*
D03*
X16750D02*
D03*
X15750D02*
D03*
X14750D02*
D03*
X13750D02*
D03*
D42*
X-15550Y11050D02*
D03*
X-12850D02*
D03*
Y13750D02*
D03*
X-15550D02*
D03*
X-23050Y-7700D02*
D03*
X-20350D02*
D03*
Y-5000D02*
D03*
X-23050D02*
D03*
X-50Y-7700D02*
D03*
X2650D02*
D03*
Y-5000D02*
D03*
X-50D02*
D03*
X-1620Y23150D02*
D03*
X1080D02*
D03*
Y25850D02*
D03*
X-1620D02*
D03*
X-7550Y-7700D02*
D03*
Y-5000D02*
D03*
X-4850D02*
D03*
Y-7700D02*
D03*
X-12850D02*
D03*
Y-5000D02*
D03*
X-15550D02*
D03*
Y-7700D02*
D03*
D43*
X-16900Y800D02*
D03*
X-6770Y250D02*
D03*
X-11820Y-500D02*
D03*
X-3550Y4950D02*
D03*
X-4600Y2250D02*
D03*
Y250D02*
D03*
Y-1750D02*
D03*
X-16900Y6800D02*
D03*
Y4800D02*
D03*
Y2800D02*
D03*
X-9500Y8850D02*
D03*
X-8450Y4050D02*
D03*
Y2650D02*
D03*
X30100Y-8200D02*
D03*
X32000D02*
D03*
X16700Y-7100D02*
D03*
X15200D02*
D03*
X-21300Y31650D02*
D03*
X35500Y-500D02*
D03*
X20980Y-1200D02*
D03*
X13440Y20910D02*
D03*
X28200Y-4000D02*
D03*
Y-8750D02*
D03*
X39400Y28100D02*
D03*
X38200D02*
D03*
X40600D02*
D03*
X25200Y-6350D02*
D03*
X-22700Y21100D02*
D03*
X-24300Y17000D02*
D03*
X-27350D02*
D03*
X-24300Y16050D02*
D03*
X-26400D02*
D03*
X27300Y-12150D02*
D03*
X26650Y-8750D02*
D03*
X31050Y5950D02*
D03*
Y7600D02*
D03*
X-10200Y4050D02*
D03*
X-10218Y2650D02*
D03*
X-6770Y2250D02*
D03*
X-6750Y4450D02*
D03*
X-16900Y-9200D02*
D03*
X-17900Y-7350D02*
D03*
Y-5700D02*
D03*
X-16900Y-3200D02*
D03*
Y-1200D02*
D03*
X-11120Y6800D02*
D03*
X-12600Y6500D02*
D03*
X-15120Y6800D02*
D03*
X-3320Y-2750D02*
D03*
Y-4750D02*
D03*
Y-6750D02*
D03*
Y-8750D02*
D03*
X-8920Y-4250D02*
D03*
X-10100D02*
D03*
X-15120Y-1750D02*
D03*
X-12650Y-2050D02*
D03*
X-15120Y-1750D02*
D03*
X-11400Y-4250D02*
D03*
X-4750Y7250D02*
D03*
X-2750D02*
D03*
X-4750D02*
D03*
X-6050Y7100D02*
D03*
X-1250Y6200D02*
D03*
Y3750D02*
D03*
X-13770Y6500D02*
D03*
X-14700Y5550D02*
D03*
X-15320Y4600D02*
D03*
X-12550Y4100D02*
D03*
X-7400Y6450D02*
D03*
X-5300Y4950D02*
D03*
X-14350Y-2600D02*
D03*
X-12550Y-3550D02*
D03*
X-17900Y-4200D02*
D03*
X-8420Y-500D02*
D03*
X-7820Y-2050D02*
D03*
X-5970Y-2550D02*
D03*
X-4200Y-3750D02*
D03*
X-7820Y-3550D02*
D03*
X-6200Y-8600D02*
D03*
X-10100Y-5750D02*
D03*
Y-7300D02*
D03*
Y-8900D02*
D03*
X-14200Y-8600D02*
D03*
X-8420Y950D02*
D03*
X-11820D02*
D03*
X-11160Y16200D02*
D03*
Y20100D02*
D03*
X34050Y22500D02*
D03*
X-2300Y6010D02*
D03*
X1950Y31150D02*
D03*
X2950D02*
D03*
X3950D02*
D03*
X4950D02*
D03*
X25000Y30000D02*
D03*
X26000D02*
D03*
X27000D02*
D03*
X28000D02*
D03*
X29000D02*
D03*
X30000D02*
D03*
X31000D02*
D03*
X32000D02*
D03*
Y29000D02*
D03*
X31000D02*
D03*
X30000D02*
D03*
X29000D02*
D03*
X28000D02*
D03*
X27000D02*
D03*
X26000D02*
D03*
X25000D02*
D03*
Y28000D02*
D03*
X26000D02*
D03*
X27000D02*
D03*
X28000D02*
D03*
X29000D02*
D03*
X30000D02*
D03*
X31000D02*
D03*
X32000D02*
D03*
Y27000D02*
D03*
X31000D02*
D03*
X30000D02*
D03*
X29000D02*
D03*
X28000D02*
D03*
X27000D02*
D03*
X26000D02*
D03*
X25000D02*
D03*
Y26000D02*
D03*
X26000D02*
D03*
X27000D02*
D03*
X28000D02*
D03*
X29000D02*
D03*
X30000D02*
D03*
X31000D02*
D03*
X32000D02*
D03*
Y25000D02*
D03*
X31000D02*
D03*
X30000D02*
D03*
X29000D02*
D03*
X28000D02*
D03*
X27000D02*
D03*
X26000D02*
D03*
X25000D02*
D03*
Y24000D02*
D03*
X26000D02*
D03*
X27000D02*
D03*
X28000D02*
D03*
X29000D02*
D03*
X30000D02*
D03*
X31000D02*
D03*
X32000D02*
D03*
X25000Y32000D02*
D03*
X26000D02*
D03*
X27000D02*
D03*
X28000D02*
D03*
X29000D02*
D03*
X30000D02*
D03*
X31000D02*
D03*
X32000D02*
D03*
Y31000D02*
D03*
X31000D02*
D03*
X30000D02*
D03*
X29000D02*
D03*
X28000D02*
D03*
X27000D02*
D03*
X26000D02*
D03*
X25000D02*
D03*
X31000Y33000D02*
D03*
X32000D02*
D03*
X29000D02*
D03*
X30000D02*
D03*
X27000D02*
D03*
X28000D02*
D03*
X25000D02*
D03*
X26000D02*
D03*
D44*
X-21700Y12400D02*
D03*
Y10550D02*
D03*
Y8700D02*
D03*
Y24500D02*
D03*
Y22650D02*
D03*
X36000Y6250D02*
D03*
Y8100D02*
D03*
Y9950D02*
D03*
Y-4500D02*
D03*
Y-6350D02*
D03*
Y-8200D02*
D03*
X-21700Y26350D02*
D03*
X22200Y-4500D02*
D03*
Y-6350D02*
D03*
Y-8200D02*
D03*
X36000Y16650D02*
D03*
Y14800D02*
D03*
Y18500D02*
D03*
X-21720Y570D02*
D03*
Y2420D02*
D03*
Y4270D02*
D03*
D45*
X39550Y32800D02*
D03*
X-26450D02*
D03*
Y-13200D02*
D03*
X39550D02*
D03*
D46*
X-22300Y31650D02*
D03*
X36500Y-500D02*
D03*
X26200Y-6350D02*
D03*
X35050Y22500D02*
D03*
X5950Y31150D02*
D03*
D47*
X-18679Y16900D02*
D03*
Y17900D02*
D03*
Y18900D02*
D03*
D48*
X-2300Y5010D02*
D03*
D49*
X38849Y24500D02*
D03*
D50*
X40620D02*
D03*
D51*
X10100Y30250D02*
D03*
Y25250D02*
D03*
X20700D02*
D03*
Y30250D02*
D03*
M02*
