%FSLAX23Y23*%
%MOIN*%
G70*
G01*
G75*
G04 Layer_Color=16711935*
%ADD10O,0.024X0.080*%
%ADD11R,0.020X0.050*%
%ADD12R,0.024X0.024*%
%ADD13R,0.030X0.030*%
%ADD14R,0.030X0.030*%
%ADD15R,0.074X0.045*%
%ADD16R,0.036X0.050*%
%ADD17R,0.036X0.036*%
%ADD18R,0.075X0.043*%
%ADD19O,0.016X0.060*%
%ADD20R,0.024X0.100*%
%ADD21R,0.024X0.090*%
%ADD22R,0.070X0.024*%
%ADD23R,0.090X0.024*%
%ADD24O,0.016X0.060*%
%ADD25R,0.014X0.035*%
%ADD26R,0.025X0.030*%
%ADD27R,0.014X0.035*%
%ADD28C,0.010*%
%ADD29C,0.008*%
%ADD30C,0.012*%
%ADD31C,0.015*%
%ADD32C,0.025*%
%ADD33C,0.016*%
%ADD34C,0.020*%
%ADD35C,0.014*%
%ADD36C,0.006*%
%ADD37R,0.050X0.050*%
%ADD38C,0.070*%
%ADD39R,0.049X0.049*%
%ADD40C,0.024*%
%ADD41R,0.070X0.070*%
%ADD42R,0.140X0.140*%
%ADD43C,0.030*%
%ADD44R,0.273X0.018*%
%ADD45O,0.032X0.088*%
%ADD46R,0.028X0.058*%
%ADD47R,0.032X0.032*%
%ADD48R,0.038X0.038*%
%ADD49R,0.038X0.038*%
%ADD50R,0.082X0.053*%
%ADD51R,0.044X0.058*%
%ADD52R,0.044X0.044*%
%ADD53R,0.083X0.051*%
%ADD54O,0.024X0.068*%
%ADD55R,0.032X0.108*%
%ADD56R,0.032X0.098*%
%ADD57R,0.078X0.032*%
%ADD58R,0.098X0.032*%
%ADD59O,0.024X0.068*%
%ADD60R,0.022X0.043*%
%ADD61R,0.033X0.038*%
%ADD62R,0.022X0.043*%
%ADD63R,0.058X0.058*%
%ADD64C,0.078*%
%ADD65R,0.057X0.057*%
%ADD66C,0.032*%
%ADD67R,0.078X0.078*%
%ADD68R,0.148X0.148*%
D28*
X2070Y-87D02*
Y-194D01*
X2017D01*
X1999Y-176D01*
Y-158D01*
X2017Y-141D01*
X2070D01*
X2017D01*
X1999Y-123D01*
Y-105D01*
X2017Y-87D01*
X2070D01*
X1910D02*
X1946D01*
X1963Y-105D01*
Y-176D01*
X1946Y-194D01*
X1910D01*
X1892Y-176D01*
Y-105D01*
X1910Y-87D01*
X1857D02*
X1786D01*
X1821D01*
Y-194D01*
X1750Y-87D02*
X1679D01*
X1715D01*
Y-194D01*
X1590Y-87D02*
X1626D01*
X1643Y-105D01*
Y-176D01*
X1626Y-194D01*
X1590D01*
X1572Y-176D01*
Y-105D01*
X1590Y-87D01*
X1537Y-194D02*
Y-87D01*
X1501Y-123D01*
X1466Y-87D01*
Y-194D01*
X1324D02*
Y-87D01*
X1288Y-123D01*
X1252Y-87D01*
Y-194D01*
X1217D02*
Y-123D01*
X1181Y-87D01*
X1146Y-123D01*
Y-194D01*
Y-141D01*
X1217D01*
X1039Y-105D02*
X1057Y-87D01*
X1093D01*
X1110Y-105D01*
Y-123D01*
X1093Y-141D01*
X1057D01*
X1039Y-158D01*
Y-176D01*
X1057Y-194D01*
X1093D01*
X1110Y-176D01*
X1004Y-87D02*
Y-194D01*
Y-158D01*
X933Y-87D01*
X986Y-141D01*
X933Y-194D01*
D63*
X1024Y465D02*
D03*
D64*
X1026Y550D02*
D03*
X76Y501D02*
D03*
X98Y1275D02*
D03*
X1025Y1290D02*
D03*
D65*
X1015Y1370D02*
D03*
X936D02*
D03*
X857D02*
D03*
X779D02*
D03*
X700D02*
D03*
D66*
X186Y828D02*
D03*
X342Y1114D02*
D03*
X576Y502D02*
D03*
X467Y1364D02*
D03*
X583Y1042D02*
D03*
X925Y955D02*
D03*
X840D02*
D03*
X965D02*
D03*
X760Y1055D02*
D03*
X770Y1100D02*
D03*
X590Y1165D02*
D03*
X819Y1286D02*
D03*
X1045Y1065D02*
D03*
X530Y1230D02*
D03*
X1013Y1100D02*
D03*
X780Y1155D02*
D03*
X975Y1100D02*
D03*
X628Y640D02*
D03*
X665Y1215D02*
D03*
X940Y1190D02*
D03*
D67*
X98Y1275D02*
D03*
D68*
X938Y850D02*
D03*
X92D02*
D03*
M02*
