%FSLAX23Y23*%
%MOIN*%
G70*
G01*
G75*
G04 Layer_Physical_Order=1*
G04 Layer_Color=255*
%ADD10O,0.024X0.080*%
%ADD11R,0.020X0.050*%
%ADD12R,0.024X0.024*%
%ADD13R,0.030X0.030*%
%ADD14R,0.030X0.030*%
%ADD15R,0.074X0.045*%
%ADD16R,0.036X0.050*%
%ADD17R,0.036X0.036*%
%ADD18R,0.075X0.043*%
%ADD19O,0.016X0.060*%
%ADD20R,0.024X0.100*%
%ADD21R,0.024X0.090*%
%ADD22R,0.070X0.024*%
%ADD23R,0.090X0.024*%
%ADD24O,0.016X0.060*%
%ADD25R,0.014X0.035*%
%ADD26R,0.025X0.030*%
%ADD27R,0.014X0.035*%
%ADD28C,0.010*%
%ADD29C,0.008*%
%ADD30C,0.012*%
%ADD31C,0.015*%
%ADD32C,0.025*%
%ADD33C,0.016*%
%ADD34C,0.020*%
%ADD35C,0.014*%
%ADD36C,0.006*%
%ADD37R,0.050X0.050*%
%ADD38C,0.070*%
%ADD39R,0.049X0.049*%
%ADD40C,0.024*%
D10*
X778Y495D02*
D03*
X678Y715D02*
D03*
X778D02*
D03*
X728D02*
D03*
X628D02*
D03*
X728Y495D02*
D03*
X678D02*
D03*
X628D02*
D03*
D11*
X411Y1191D02*
D03*
Y1291D02*
D03*
X486D02*
D03*
X448Y1191D02*
D03*
X486D02*
D03*
D12*
X241Y482D02*
D03*
X260Y533D02*
D03*
X221D02*
D03*
X276Y1025D02*
D03*
X257Y974D02*
D03*
X237Y1025D02*
D03*
D13*
X261Y766D02*
D03*
X520Y527D02*
D03*
X171Y481D02*
D03*
X961Y493D02*
D03*
X331Y766D02*
D03*
X1035Y1206D02*
D03*
X416Y908D02*
D03*
X330Y661D02*
D03*
X261Y655D02*
D03*
Y706D02*
D03*
Y595D02*
D03*
X186Y771D02*
D03*
X520Y467D02*
D03*
X430D02*
D03*
X330Y601D02*
D03*
X124Y695D02*
D03*
X111Y647D02*
D03*
X186Y711D02*
D03*
X111Y587D02*
D03*
X171Y541D02*
D03*
X124Y755D02*
D03*
X416Y848D02*
D03*
X1035Y1146D02*
D03*
X430Y527D02*
D03*
X331Y706D02*
D03*
X961Y553D02*
D03*
X229Y1147D02*
D03*
Y1207D02*
D03*
X99Y1032D02*
D03*
Y972D02*
D03*
X342Y1035D02*
D03*
X159Y972D02*
D03*
X342Y975D02*
D03*
X159Y1032D02*
D03*
X185Y651D02*
D03*
Y591D02*
D03*
X99Y1152D02*
D03*
Y1092D02*
D03*
X596Y896D02*
D03*
Y836D02*
D03*
X416Y1026D02*
D03*
Y966D02*
D03*
X976Y1206D02*
D03*
Y1146D02*
D03*
X476Y966D02*
D03*
Y1026D02*
D03*
D14*
X1045Y1035D02*
D03*
X300Y477D02*
D03*
X985Y1035D02*
D03*
X341Y1281D02*
D03*
X600Y1360D02*
D03*
X360Y477D02*
D03*
X299Y534D02*
D03*
X359D02*
D03*
X282Y1145D02*
D03*
Y1203D02*
D03*
Y1085D02*
D03*
X240Y1088D02*
D03*
X281Y1281D02*
D03*
X180Y1088D02*
D03*
X64Y805D02*
D03*
Y855D02*
D03*
Y904D02*
D03*
X342Y1085D02*
D03*
Y1145D02*
D03*
Y1203D02*
D03*
X124Y904D02*
D03*
Y805D02*
D03*
Y855D02*
D03*
X416Y1086D02*
D03*
X476D02*
D03*
X911Y736D02*
D03*
X971D02*
D03*
X476Y906D02*
D03*
X536D02*
D03*
Y851D02*
D03*
X476D02*
D03*
X716Y806D02*
D03*
X656D02*
D03*
Y856D02*
D03*
X716D02*
D03*
X925Y1080D02*
D03*
X865D02*
D03*
X925Y1300D02*
D03*
X865D02*
D03*
X540Y1360D02*
D03*
X221Y1281D02*
D03*
X161D02*
D03*
X940Y815D02*
D03*
X880D02*
D03*
Y885D02*
D03*
X940D02*
D03*
X660Y915D02*
D03*
X720D02*
D03*
D15*
X846Y718D02*
D03*
D16*
X318Y828D02*
D03*
D17*
X281Y908D02*
D03*
X356D02*
D03*
D18*
X885Y1148D02*
D03*
Y1242D02*
D03*
D19*
X834Y654D02*
D03*
X860Y467D02*
D03*
X885D02*
D03*
X834D02*
D03*
X911Y654D02*
D03*
X885D02*
D03*
X911Y467D02*
D03*
X860Y654D02*
D03*
D20*
X471Y612D02*
D03*
X521D02*
D03*
X520Y775D02*
D03*
X471Y774D02*
D03*
X421D02*
D03*
D21*
Y617D02*
D03*
D22*
X543Y690D02*
D03*
D23*
X401Y690D02*
D03*
D24*
X788Y979D02*
D03*
X634Y1286D02*
D03*
X737D02*
D03*
X660Y979D02*
D03*
X686D02*
D03*
X634D02*
D03*
X711Y1286D02*
D03*
X737Y979D02*
D03*
X762D02*
D03*
X788Y1286D02*
D03*
X558D02*
D03*
X583Y979D02*
D03*
X686Y1286D02*
D03*
X660D02*
D03*
X762D02*
D03*
X609D02*
D03*
X583D02*
D03*
X558Y979D02*
D03*
X711D02*
D03*
X609D02*
D03*
D25*
X799Y904D02*
D03*
X773D02*
D03*
Y818D02*
D03*
X825D02*
D03*
Y904D02*
D03*
X1000D02*
D03*
X1026D02*
D03*
X1000Y818D02*
D03*
X1052D02*
D03*
D26*
X865Y990D02*
D03*
X925D02*
D03*
D27*
X1052Y904D02*
D03*
D28*
X504Y1054D02*
Y1141D01*
X486Y1159D02*
X504Y1141D01*
X911Y654D02*
Y736D01*
X778Y740D02*
X815Y777D01*
X600Y774D02*
X773D01*
X762Y1255D02*
Y1286D01*
X260Y1243D02*
X261Y1242D01*
X238Y1243D02*
X260D01*
X221Y1281D02*
X281D01*
X229Y1207D02*
Y1235D01*
Y1252D02*
X238Y1243D01*
X229Y1235D02*
X238Y1243D01*
X229Y1252D02*
Y1274D01*
X154Y1062D02*
X180Y1088D01*
X139Y1062D02*
X154D01*
X127Y1050D02*
X139Y1062D01*
X127Y1000D02*
Y1050D01*
X99Y972D02*
X127Y1000D01*
X860Y467D02*
Y522D01*
X885Y467D02*
Y522D01*
X359Y534D02*
X383Y558D01*
X456D01*
X471Y573D01*
Y592D01*
X299Y570D02*
X330Y601D01*
X261Y655D02*
X324D01*
X330Y661D01*
X261Y655D02*
Y706D01*
X331Y766D02*
X331Y766D01*
Y706D02*
X369D01*
X885Y597D02*
Y654D01*
X295Y482D02*
X300Y477D01*
X360D02*
X390D01*
X400Y467D01*
X430Y527D02*
X470D01*
X931Y485D02*
X939Y493D01*
X416Y848D02*
X421Y843D01*
X257Y870D02*
Y884D01*
X281Y908D01*
X237Y1020D02*
Y1025D01*
X317Y1000D02*
X342Y975D01*
X237Y1020D02*
X257Y1000D01*
X276Y1025D02*
Y1079D01*
X282Y1085D01*
X243D02*
X282D01*
X237Y1091D02*
Y1139D01*
X229Y1147D02*
X237Y1139D01*
X221Y1281D02*
X229Y1274D01*
X159Y1273D02*
X186Y1246D01*
X180Y1087D02*
Y1088D01*
X99Y939D02*
Y972D01*
X412Y1090D02*
X416Y1086D01*
X412Y1090D02*
Y1128D01*
X159Y1032D02*
X166Y1025D01*
X237D01*
X476Y851D02*
X481D01*
X536Y906D01*
X447Y877D02*
X476Y906D01*
X320Y877D02*
X447D01*
X319Y878D02*
X320Y877D01*
X596Y820D02*
Y836D01*
Y820D02*
X610Y806D01*
X656D01*
Y856D01*
X778Y715D02*
Y740D01*
X685Y837D02*
X716Y806D01*
Y856D02*
X744Y828D01*
X728Y624D02*
X728Y715D01*
X888Y759D02*
X911Y736D01*
X815Y777D02*
X833Y759D01*
X888D01*
X891Y781D02*
X907Y765D01*
X940Y815D02*
X969Y786D01*
X840Y806D02*
X865Y781D01*
X891D01*
X773Y774D02*
X805Y806D01*
X790Y828D02*
X816Y854D01*
X1000Y905D02*
X1000Y904D01*
X911Y909D02*
X917Y915D01*
X904Y854D02*
X911Y861D01*
X816Y854D02*
X904D01*
X880Y815D02*
X891D01*
X921Y845D01*
X930D01*
X940Y855D01*
Y885D01*
X685Y837D02*
Y874D01*
X696Y885D01*
X752Y894D02*
X773D01*
Y904D01*
X773Y904D01*
X743Y885D02*
X752Y894D01*
X696Y885D02*
X743D01*
X911Y485D02*
X931D01*
X583Y1217D02*
Y1286D01*
X609Y1231D02*
Y1286D01*
Y1231D02*
X625Y1215D01*
X952Y843D02*
X970D01*
X940Y855D02*
X952Y843D01*
X970D02*
X985Y828D01*
X1000D01*
X1052Y818D02*
X1053Y816D01*
X991Y765D02*
X999Y757D01*
X907Y765D02*
X991D01*
X583Y979D02*
Y1042D01*
X536Y851D02*
X581D01*
X596Y836D01*
X744Y828D02*
X773D01*
X805Y806D02*
X825D01*
X416Y966D02*
X446D01*
X476D01*
X486Y1159D02*
Y1191D01*
Y1244D01*
X257Y1000D02*
X308D01*
X317D01*
X342Y1035D02*
Y1085D01*
Y1114D01*
Y1145D01*
Y1203D01*
X64Y887D02*
Y904D01*
Y939D01*
X240Y1088D02*
X243Y1085D01*
X237Y1091D02*
X240Y1088D01*
X369Y706D02*
X371Y708D01*
X159Y1273D02*
Y1281D01*
Y1284D01*
X282Y1145D02*
Y1175D01*
Y1203D01*
X421Y808D02*
Y843D01*
X471Y808D02*
X476Y813D01*
X834Y467D02*
Y522D01*
Y654D01*
Y522D02*
X860D01*
X885D01*
X860Y522D02*
X860Y522D01*
X260Y533D02*
X299D01*
Y534D01*
Y570D01*
X400Y467D02*
X430D01*
X520D01*
X939Y493D02*
X961D01*
X411Y1291D02*
X486D01*
X660Y1286D02*
Y1320D01*
X746Y936D02*
X772D01*
X788Y951D01*
X792Y1225D02*
X868D01*
X885Y1242D01*
X762Y1255D02*
X792Y1225D01*
X885Y1148D02*
X974D01*
X925Y1080D02*
Y1108D01*
X885Y1148D02*
X925Y1108D01*
Y955D02*
Y990D01*
X773Y828D02*
X790D01*
X1019Y786D02*
X1028Y777D01*
Y720D02*
Y777D01*
X969Y786D02*
X1019D01*
X999Y699D02*
X1008Y690D01*
X1048D01*
X1053Y695D01*
X825Y806D02*
X840D01*
X1053Y695D02*
Y816D01*
X999Y699D02*
Y757D01*
X865Y1262D02*
Y1300D01*
Y1262D02*
X885Y1242D01*
X880Y885D02*
Y895D01*
X825Y896D02*
Y904D01*
X711Y1315D02*
X726Y1330D01*
X817D01*
X857Y1370D01*
X596Y894D02*
Y896D01*
Y894D02*
X620Y870D01*
X785Y1070D02*
X830Y1025D01*
X848Y1080D02*
X865D01*
X828Y1100D02*
X848Y1080D01*
X476Y1026D02*
X504Y1054D01*
X600Y1360D02*
X620D01*
X660Y1320D01*
X341Y1281D02*
Y1313D01*
X411Y1356D02*
X419Y1364D01*
X411Y1291D02*
Y1356D01*
X813Y1202D02*
X828Y1187D01*
Y1100D02*
Y1187D01*
X795Y1180D02*
X808Y1167D01*
X711Y1199D02*
X730Y1180D01*
X795D01*
X808Y1075D02*
Y1167D01*
X737Y1218D02*
X753Y1202D01*
X737Y1218D02*
Y1286D01*
X753Y1202D02*
X813D01*
X785Y1070D02*
Y1085D01*
X770Y1100D02*
X785Y1085D01*
X737Y1087D02*
X750Y1100D01*
X770D01*
X737Y979D02*
Y1087D01*
X760Y1055D02*
X762Y1053D01*
Y979D02*
Y1053D01*
X665Y1215D02*
X686Y1236D01*
Y1286D01*
X865Y990D02*
Y1015D01*
X855Y1025D02*
X865Y1015D01*
X830Y1025D02*
X855D01*
X711Y1199D02*
Y1286D01*
X970Y1050D02*
X985Y1035D01*
X833Y1050D02*
X970D01*
X808Y1075D02*
X833Y1050D01*
X825Y895D02*
X880D01*
X974Y-90D02*
X1045D01*
X1010D01*
Y-197D01*
X1134Y-90D02*
X1098D01*
X1081Y-108D01*
Y-179D01*
X1098Y-197D01*
X1134D01*
X1152Y-179D01*
Y-108D01*
X1134Y-90D01*
X1187Y-197D02*
Y-90D01*
X1241D01*
X1258Y-108D01*
Y-144D01*
X1241Y-161D01*
X1187D01*
X1401Y-90D02*
Y-197D01*
X1472D01*
X1507D02*
Y-126D01*
X1543Y-90D01*
X1578Y-126D01*
Y-197D01*
Y-144D01*
X1507D01*
X1614Y-90D02*
Y-108D01*
X1649Y-144D01*
X1685Y-108D01*
Y-90D01*
X1649Y-144D02*
Y-197D01*
X1792Y-90D02*
X1720D01*
Y-197D01*
X1792D01*
X1720Y-144D02*
X1756D01*
X1827Y-197D02*
Y-90D01*
X1880D01*
X1898Y-108D01*
Y-144D01*
X1880Y-161D01*
X1827D01*
X1863D02*
X1898Y-197D01*
X1057Y415D02*
G03*
X1087Y445I0J30D01*
G01*
Y1374D02*
G03*
X1057Y1404I-30J0D01*
G01*
X39D02*
G03*
X9Y1374I0J-30D01*
G01*
Y445D02*
G03*
X39Y415I30J0D01*
G01*
Y1404D02*
X1057D01*
X1087Y445D02*
Y1374D01*
X39Y415D02*
X1057D01*
X9Y445D02*
Y1374D01*
D29*
X485Y1364D02*
X510Y1339D01*
X467Y1364D02*
X485D01*
X499Y1244D02*
X510Y1255D01*
Y1339D01*
X486Y1244D02*
X499D01*
X1052Y904D02*
Y926D01*
X911Y861D02*
Y909D01*
X444Y936D02*
X496D01*
X416Y908D02*
X444Y936D01*
X660Y915D02*
X686Y941D01*
X1038Y940D02*
X1052Y926D01*
X976Y904D02*
X1000D01*
X965Y915D02*
X976Y904D01*
X917Y915D02*
X965D01*
X880Y955D02*
X905Y930D01*
X840Y955D02*
X880D01*
X1026Y793D02*
Y904D01*
X1019Y786D02*
X1026Y793D01*
X980Y930D02*
X990Y940D01*
X1038D01*
X905Y930D02*
X980D01*
X530Y1350D02*
X539Y1359D01*
X496Y936D02*
X525Y965D01*
X1035Y1122D02*
Y1146D01*
X1013Y1100D02*
X1035Y1122D01*
X975Y1100D02*
X1005Y1130D01*
Y1185D01*
X525Y965D02*
Y1040D01*
X558Y1073D01*
Y1286D01*
X590Y1165D02*
X686Y1069D01*
X530Y1230D02*
Y1350D01*
X686Y941D02*
Y1069D01*
X711Y1131D02*
X735Y1155D01*
X780D01*
X711Y979D02*
Y1131D01*
D30*
X186Y828D02*
X318D01*
X186Y771D02*
Y828D01*
X226Y630D02*
X261Y595D01*
X226Y630D02*
Y731D01*
X186Y771D02*
X226Y731D01*
X180Y705D02*
X186Y711D01*
X151Y651D02*
X185D01*
X123Y596D02*
X180D01*
X185Y591D01*
X123Y563D02*
X153Y533D01*
X356Y908D02*
X416D01*
X185Y555D02*
Y591D01*
X171Y541D02*
X185Y555D01*
X89Y754D02*
X124D01*
X153Y533D02*
X171D01*
X221D01*
X123Y563D02*
Y587D01*
Y596D01*
X120Y640D02*
Y647D01*
Y695D01*
Y699D01*
X124Y705D02*
X180D01*
X788Y1286D02*
X819D01*
D31*
X784Y861D02*
X799Y876D01*
X766Y861D02*
X784D01*
X789Y548D02*
X806D01*
X778Y537D02*
X789Y548D01*
X778Y495D02*
Y537D01*
X1035Y1206D02*
Y1280D01*
X1025Y1290D02*
X1035Y1280D01*
X416Y1026D02*
X476Y1086D01*
X678Y653D02*
Y715D01*
X678Y653D02*
X678Y653D01*
X409Y1202D02*
Y1244D01*
X448Y1157D02*
X477Y1128D01*
X476Y1086D02*
Y1127D01*
X477Y1128D01*
X448Y1157D02*
Y1191D01*
X788Y951D02*
Y979D01*
Y951D02*
X799Y940D01*
X76Y501D02*
X95Y482D01*
X371Y583D02*
X421D01*
X371D02*
Y690D01*
Y708D01*
Y808D01*
X389Y690D02*
X401D01*
X471D01*
X543D01*
X551D01*
X521Y583D02*
X566D01*
X471Y788D02*
Y808D01*
X566Y583D02*
Y690D01*
Y741D01*
Y808D01*
X371D02*
X421D01*
X421D01*
X471D01*
X520D01*
X566D01*
X799Y876D02*
Y904D01*
Y940D01*
X95Y482D02*
X171D01*
X241D01*
X295D01*
X720Y915D02*
X725D01*
X746Y936D01*
X1026Y1206D02*
X1035D01*
X1005Y1185D02*
X1026Y1206D01*
X971Y676D02*
Y736D01*
X948Y653D02*
X971Y676D01*
X911Y467D02*
Y485D01*
X296Y737D02*
Y766D01*
X261D02*
X331D01*
D32*
X576Y502D02*
X593Y519D01*
Y554D01*
X628Y589D01*
X551Y527D02*
X576Y502D01*
X520Y527D02*
X551D01*
X989Y465D02*
X1024D01*
X800Y609D02*
Y653D01*
X771Y580D02*
X800Y609D01*
X700Y580D02*
X771D01*
X691Y589D02*
X700Y580D01*
X628Y589D02*
X691D01*
X948Y608D02*
Y653D01*
X924Y584D02*
X948Y608D01*
X924Y530D02*
Y584D01*
X961Y493D02*
X989Y465D01*
X924Y530D02*
X961Y493D01*
X965Y955D02*
X990Y980D01*
X1025D01*
X1045Y1000D01*
Y1065D01*
X628Y589D02*
Y715D01*
D33*
X39Y939D02*
Y1378D01*
X834Y718D02*
X846D01*
X834Y654D02*
Y718D01*
X376Y942D02*
Y1345D01*
X39Y939D02*
X64D01*
X99D01*
X39Y1378D02*
X80D01*
X100D01*
X120D01*
X140D01*
X160D01*
X180D01*
X200D01*
X220D01*
X240D01*
X260D01*
X280D01*
X300D01*
X320D01*
X340D01*
X343D01*
X80Y1345D02*
X100D01*
X120D01*
X140D01*
X160D01*
X180D01*
X200D01*
X220D01*
X240D01*
X260D01*
X280D01*
X300D01*
X320D01*
X340D01*
X376D01*
X153Y943D02*
X372D01*
D34*
X961Y553D02*
X1013D01*
X925Y1300D02*
X965Y1260D01*
Y1217D02*
X976Y1206D01*
X965Y1217D02*
Y1260D01*
X956Y1206D02*
X976D01*
X940Y1190D02*
X956Y1206D01*
X936Y1311D02*
Y1370D01*
X925Y1300D02*
X936Y1311D01*
X65Y1500D02*
Y1567D01*
X98Y1600D01*
X132Y1567D01*
Y1500D01*
Y1550D01*
X65D01*
X232Y1583D02*
X215Y1600D01*
X182D01*
X165Y1583D01*
Y1517D01*
X182Y1500D01*
X215D01*
X232Y1517D01*
X265Y1600D02*
X332D01*
X298D01*
Y1500D01*
X365Y1600D02*
X398D01*
X382D01*
Y1500D01*
X365D01*
X398D01*
X448Y1600D02*
Y1533D01*
X482Y1500D01*
X515Y1533D01*
Y1600D01*
X615D02*
X548D01*
Y1500D01*
X615D01*
X548Y1550D02*
X581D01*
X748Y1600D02*
Y1500D01*
X781Y1533D01*
X815Y1500D01*
Y1600D01*
X848Y1500D02*
Y1567D01*
X881Y1600D01*
X915Y1567D01*
Y1500D01*
Y1550D01*
X848D01*
X948Y1600D02*
Y1533D01*
X981Y1500D01*
X1015Y1533D01*
Y1600D01*
X1115D02*
X1048D01*
Y1500D01*
X1115D01*
X1048Y1550D02*
X1081D01*
X1248Y1600D02*
X1281D01*
X1265D01*
Y1500D01*
X1248D01*
X1281D01*
X1331D02*
Y1600D01*
X1398Y1500D01*
Y1600D01*
X1498Y1583D02*
X1481Y1600D01*
X1448D01*
X1431Y1583D01*
Y1517D01*
X1448Y1500D01*
X1481D01*
X1498Y1517D01*
D35*
X174Y1147D02*
X229D01*
X159Y949D02*
Y972D01*
X257Y946D02*
Y974D01*
X64Y1067D02*
X99Y1032D01*
X64Y1067D02*
Y1117D01*
X99Y1152D01*
Y1192D01*
X114Y1207D01*
X229D01*
X99Y1092D02*
X141D01*
X124Y805D02*
Y914D01*
X64Y805D02*
Y855D01*
Y904D01*
X124Y914D02*
X153Y943D01*
X159Y949D01*
D36*
X80Y1345D02*
Y1378D01*
X100Y1345D02*
Y1378D01*
X120Y1345D02*
Y1378D01*
X140Y1345D02*
Y1378D01*
X220Y1345D02*
Y1378D01*
X240Y1345D02*
Y1378D01*
X160Y1345D02*
Y1378D01*
X200Y1345D02*
Y1378D01*
X180Y1345D02*
Y1378D01*
X320Y1345D02*
Y1378D01*
X340Y1345D02*
Y1378D01*
X260Y1345D02*
Y1378D01*
X300Y1345D02*
Y1378D01*
X280Y1345D02*
Y1378D01*
X568Y222D02*
Y182D01*
X555Y222D02*
X582D01*
X617Y182D02*
X602Y222D01*
X586Y182D01*
X592Y195D02*
X611D01*
X655Y212D02*
X653Y216D01*
X649Y220D01*
X645Y222D01*
X638D01*
X634Y220D01*
X630Y216D01*
X628Y212D01*
X626Y207D01*
Y197D01*
X628Y192D01*
X630Y188D01*
X634Y184D01*
X638Y182D01*
X645D01*
X649Y184D01*
X653Y188D01*
X655Y192D01*
Y197D01*
X645D02*
X655D01*
X664Y214D02*
X668Y216D01*
X673Y222D01*
Y182D01*
X705Y222D02*
X699Y220D01*
X695Y214D01*
X693Y205D01*
Y199D01*
X695Y190D01*
X699Y184D01*
X705Y182D01*
X708D01*
X714Y184D01*
X718Y190D01*
X720Y199D01*
Y205D01*
X718Y214D01*
X714Y220D01*
X708Y222D01*
X705D01*
X733D02*
X754D01*
X742Y207D01*
X748D01*
X752Y205D01*
X754Y203D01*
X756Y197D01*
Y193D01*
X754Y188D01*
X750Y184D01*
X744Y182D01*
X738D01*
X733Y184D01*
X731Y186D01*
X729Y190D01*
X796Y222D02*
Y182D01*
Y222D02*
X813D01*
X819Y220D01*
X821Y218D01*
X823Y214D01*
Y211D01*
X821Y207D01*
X819Y205D01*
X813Y203D01*
X796D01*
X809D02*
X823Y182D01*
X856Y222D02*
X832D01*
Y182D01*
X856D01*
X832Y203D02*
X847D01*
X863Y222D02*
X878Y182D01*
X893Y222D02*
X878Y182D01*
X899Y214D02*
X902Y216D01*
X908Y222D01*
Y182D01*
X951Y222D02*
X932D01*
X930Y205D01*
X932Y207D01*
X937Y209D01*
X943D01*
X949Y207D01*
X953Y203D01*
X955Y197D01*
Y193D01*
X953Y188D01*
X949Y184D01*
X943Y182D01*
X937D01*
X932Y184D01*
X930Y186D01*
X928Y190D01*
X509Y261D02*
X494Y301D01*
X479Y261D01*
X485Y274D02*
X504D01*
X547Y291D02*
X545Y295D01*
X542Y299D01*
X538Y301D01*
X530D01*
X526Y299D01*
X523Y295D01*
X521Y291D01*
X519Y286D01*
Y276D01*
X521Y271D01*
X523Y267D01*
X526Y263D01*
X530Y261D01*
X538D01*
X542Y263D01*
X545Y267D01*
X547Y271D01*
X572Y301D02*
Y261D01*
X559Y301D02*
X585D01*
X590D02*
Y261D01*
X598Y301D02*
X614Y261D01*
X629Y301D02*
X614Y261D01*
X659Y301D02*
X634D01*
Y261D01*
X659D01*
X634Y282D02*
X649D01*
X665Y301D02*
X675Y261D01*
X684Y301D02*
X675Y261D01*
X684Y301D02*
X694Y261D01*
X704Y301D02*
X694Y261D01*
X742D02*
X727Y301D01*
X712Y261D01*
X717Y274D02*
X736D01*
X751Y301D02*
X767Y261D01*
X782Y301D02*
X767Y261D01*
X812Y301D02*
X787D01*
Y261D01*
X812D01*
X787Y282D02*
X802D01*
X818Y301D02*
Y261D01*
X827Y301D02*
Y261D01*
Y301D02*
X853Y261D01*
Y301D02*
Y261D01*
X893Y291D02*
X891Y295D01*
X887Y299D01*
X883Y301D01*
X876D01*
X872Y299D01*
X868Y295D01*
X866Y291D01*
X864Y286D01*
Y276D01*
X866Y271D01*
X868Y267D01*
X872Y263D01*
X876Y261D01*
X883D01*
X887Y263D01*
X891Y267D01*
X893Y271D01*
X906Y265D02*
X904Y263D01*
X906Y261D01*
X908Y263D01*
X906Y265D01*
X945Y291D02*
X943Y295D01*
X940Y299D01*
X936Y301D01*
X928D01*
X924Y299D01*
X921Y295D01*
X919Y291D01*
X917Y286D01*
Y276D01*
X919Y271D01*
X921Y267D01*
X924Y263D01*
X928Y261D01*
X936D01*
X940Y263D01*
X943Y267D01*
X945Y271D01*
X968Y301D02*
X964Y299D01*
X960Y295D01*
X959Y291D01*
X957Y286D01*
Y276D01*
X959Y271D01*
X960Y267D01*
X964Y263D01*
X968Y261D01*
X976D01*
X979Y263D01*
X983Y267D01*
X985Y271D01*
X987Y276D01*
Y286D01*
X985Y291D01*
X983Y295D01*
X979Y299D01*
X976Y301D01*
X968D01*
X996D02*
Y261D01*
Y301D02*
X1012Y261D01*
X1027Y301D02*
X1012Y261D01*
X1027Y301D02*
Y261D01*
D37*
X1024Y465D02*
D03*
D38*
X1026Y550D02*
D03*
X76Y501D02*
D03*
X98Y1275D02*
D03*
X1025Y1290D02*
D03*
D39*
X1015Y1370D02*
D03*
X936D02*
D03*
X857D02*
D03*
X779D02*
D03*
X700D02*
D03*
D40*
X186Y828D02*
D03*
X342Y1114D02*
D03*
X576Y502D02*
D03*
X948Y653D02*
D03*
X620Y870D02*
D03*
X815Y777D02*
D03*
X486Y1244D02*
D03*
X885Y522D02*
D03*
X806Y548D02*
D03*
X471Y690D02*
D03*
X151Y651D02*
D03*
X728Y624D02*
D03*
X885Y597D02*
D03*
X470Y527D02*
D03*
X566Y583D02*
D03*
X257Y870D02*
D03*
X308Y1000D02*
D03*
X282Y1175D02*
D03*
X261Y1242D02*
D03*
X174Y1147D02*
D03*
X141Y1092D02*
D03*
X186Y1246D02*
D03*
X99Y939D02*
D03*
X89Y754D02*
D03*
X566Y741D02*
D03*
X412Y1128D02*
D03*
X477D02*
D03*
X339Y1315D02*
D03*
X678Y653D02*
D03*
X800D02*
D03*
X296Y737D02*
D03*
X319Y878D02*
D03*
X766Y861D02*
D03*
X600Y774D02*
D03*
X446Y966D02*
D03*
X409Y1244D02*
D03*
X849Y894D02*
D03*
X1028Y720D02*
D03*
X467Y1364D02*
D03*
X419D02*
D03*
X585Y1215D02*
D03*
X625D02*
D03*
X583Y1042D02*
D03*
X371Y808D02*
D03*
X925Y955D02*
D03*
X840D02*
D03*
X965D02*
D03*
X760Y1055D02*
D03*
X770Y1100D02*
D03*
X590Y1165D02*
D03*
X819Y1286D02*
D03*
X1045Y1065D02*
D03*
X530Y1230D02*
D03*
X1013Y1100D02*
D03*
X780Y1155D02*
D03*
X975Y1100D02*
D03*
X628Y640D02*
D03*
X665Y1215D02*
D03*
X940Y1190D02*
D03*
M02*
