%FSLAX24Y24*%
%MOIN*%
G70*
G01*
G75*
G04 Layer_Color=2752767*
%ADD10O,0.0240X0.0800*%
%ADD11R,0.0300X0.0300*%
%ADD12R,0.0360X0.0360*%
%ADD13R,0.0500X0.0360*%
%ADD14R,0.0360X0.0360*%
%ADD15R,0.0360X0.0500*%
%ADD16C,0.0400*%
%ADD17R,0.0200X0.0500*%
%ADD18R,0.0236X0.0236*%
%ADD19R,0.0300X0.0300*%
%ADD20R,0.0740X0.0450*%
%ADD21R,0.0748X0.0433*%
%ADD22O,0.0160X0.0600*%
%ADD23R,0.0236X0.1000*%
%ADD24R,0.0236X0.0900*%
%ADD25R,0.0700X0.0236*%
%ADD26R,0.0900X0.0236*%
%ADD27O,0.0160X0.0600*%
%ADD28R,0.0138X0.0354*%
%ADD29R,0.0250X0.0300*%
%ADD30R,0.0640X0.0440*%
%ADD31R,0.0492X0.1181*%
%ADD32R,0.1000X0.1000*%
%ADD33R,0.1000X0.1400*%
%ADD34R,0.1000X0.1300*%
%ADD35R,0.1000X0.1200*%
%ADD36R,0.0138X0.0354*%
%ADD37R,0.0100X0.0100*%
%ADD38R,0.2000X0.1000*%
%ADD39R,0.1600X0.1800*%
%ADD40C,0.0120*%
%ADD41C,0.0150*%
%ADD42C,0.0100*%
%ADD43C,0.0400*%
%ADD44C,0.0250*%
%ADD45C,0.0160*%
%ADD46C,0.0200*%
%ADD47C,0.0140*%
%ADD48C,0.0300*%
%ADD49C,0.0740*%
%ADD50C,0.0060*%
%ADD51C,0.0080*%
%ADD52C,0.0090*%
%ADD53C,0.0050*%
%ADD54R,0.0500X0.0500*%
%ADD55C,0.0700*%
%ADD56C,0.0620*%
%ADD57R,0.0620X0.0620*%
%ADD58C,0.1220*%
%ADD59C,0.1000*%
%ADD60C,0.1950*%
%ADD61C,0.0280*%
%ADD62R,0.0700X0.0700*%
%ADD63R,0.2730X0.0180*%
%ADD64O,0.0320X0.0880*%
%ADD65R,0.0380X0.0380*%
%ADD66R,0.0440X0.0440*%
%ADD67R,0.0580X0.0440*%
%ADD68R,0.0440X0.0440*%
%ADD69R,0.0440X0.0580*%
%ADD70C,0.0480*%
%ADD71R,0.0280X0.0580*%
%ADD72R,0.0316X0.0316*%
%ADD73R,0.0380X0.0380*%
%ADD74R,0.0820X0.0530*%
%ADD75R,0.0828X0.0513*%
%ADD76O,0.0240X0.0680*%
%ADD77R,0.0316X0.1080*%
%ADD78R,0.0316X0.0980*%
%ADD79R,0.0780X0.0316*%
%ADD80R,0.0980X0.0316*%
%ADD81O,0.0240X0.0680*%
%ADD82R,0.0218X0.0434*%
%ADD83R,0.0330X0.0380*%
%ADD84R,0.0720X0.0520*%
%ADD85R,0.0572X0.1261*%
%ADD86R,0.1080X0.1080*%
%ADD87R,0.1080X0.1480*%
%ADD88R,0.1080X0.1380*%
%ADD89R,0.1080X0.1280*%
%ADD90R,0.0218X0.0434*%
%ADD91R,0.0180X0.0180*%
%ADD92R,0.2080X0.1080*%
%ADD93R,0.1680X0.1880*%
%ADD94R,0.0580X0.0580*%
%ADD95C,0.0780*%
%ADD96C,0.0080*%
%ADD97R,0.0080X0.0080*%
%ADD98C,0.1300*%
%ADD99C,0.1080*%
%ADD100C,0.2030*%
%ADD101C,0.0360*%
%ADD102R,0.0780X0.0780*%
%ADD103C,0.0067*%
D41*
X29335Y-7069D02*
Y-6403D01*
X29668Y-6069D01*
X30002Y-6403D01*
Y-7069D01*
Y-6569D01*
X29335D01*
X31001Y-6403D02*
X30502D01*
X30335Y-6569D01*
Y-6902D01*
X30502Y-7069D01*
X31001D01*
X31501Y-6236D02*
Y-6403D01*
X31335D01*
X31668D01*
X31501D01*
Y-6902D01*
X31668Y-7069D01*
X32168D02*
X32501D01*
X32334D01*
Y-6403D01*
X32168D01*
X33001D02*
X33334Y-7069D01*
X33667Y-6403D01*
X34500Y-7069D02*
X34167D01*
X34000Y-6902D01*
Y-6569D01*
X34167Y-6403D01*
X34500D01*
X34667Y-6569D01*
Y-6736D01*
X34000D01*
X36000Y-6069D02*
Y-7069D01*
X36333Y-6736D01*
X36666Y-7069D01*
Y-6069D01*
X37166Y-6403D02*
X37499D01*
X37666Y-6569D01*
Y-7069D01*
X37166D01*
X36999Y-6902D01*
X37166Y-6736D01*
X37666D01*
X37999Y-6403D02*
X38332Y-7069D01*
X38666Y-6403D01*
X39499Y-7069D02*
X39165D01*
X38999Y-6902D01*
Y-6569D01*
X39165Y-6403D01*
X39499D01*
X39665Y-6569D01*
Y-6736D01*
X38999D01*
X-2884Y25105D02*
X-2551D01*
X-2717D01*
Y26105D01*
X-2884Y25938D01*
X-2051D02*
X-1884Y26105D01*
X-1551D01*
X-1385Y25938D01*
Y25771D01*
X-1551Y25605D01*
X-1718D01*
X-1551D01*
X-1385Y25438D01*
Y25272D01*
X-1551Y25105D01*
X-1884D01*
X-2051Y25272D01*
X-1051Y25105D02*
X-718Y25438D01*
Y25771D01*
X-1051Y26105D01*
X781D02*
Y25105D01*
X1281D01*
X1448Y25272D01*
Y25938D01*
X1281Y26105D01*
X781D01*
X1781D02*
X2114D01*
X1948D01*
Y25105D01*
X1781D01*
X2114D01*
X3281Y25938D02*
X3114Y26105D01*
X2781D01*
X2614Y25938D01*
Y25771D01*
X2781Y25605D01*
X3114D01*
X3281Y25438D01*
Y25272D01*
X3114Y25105D01*
X2781D01*
X2614Y25272D01*
X3614Y26105D02*
X4280D01*
X3947D01*
Y25105D01*
X4614D02*
Y25771D01*
X4947Y26105D01*
X5280Y25771D01*
Y25105D01*
Y25605D01*
X4614D01*
X5613Y25105D02*
Y26105D01*
X6280Y25105D01*
Y26105D01*
X7279Y25938D02*
X7113Y26105D01*
X6780D01*
X6613Y25938D01*
Y25272D01*
X6780Y25105D01*
X7113D01*
X7279Y25272D01*
X8279Y26105D02*
X7613D01*
Y25105D01*
X8279D01*
X7613Y25605D02*
X7946D01*
X9612Y26105D02*
Y25105D01*
X10112D01*
X10278Y25272D01*
Y25438D01*
X10112Y25605D01*
X9612D01*
X10112D01*
X10278Y25771D01*
Y25938D01*
X10112Y26105D01*
X9612D01*
X11278D02*
X10612D01*
Y25105D01*
X11278D01*
X10612Y25605D02*
X10945D01*
X11611Y26105D02*
X12278D01*
X11945D01*
Y25105D01*
X12611Y26105D02*
Y25105D01*
X12944Y25438D01*
X13277Y25105D01*
Y26105D01*
X14277D02*
X13611D01*
Y25105D01*
X14277D01*
X13611Y25605D02*
X13944D01*
X15277Y26105D02*
X14610D01*
Y25105D01*
X15277D01*
X14610Y25605D02*
X14944D01*
X15610Y25105D02*
Y26105D01*
X16276Y25105D01*
Y26105D01*
X17609D02*
X18276D01*
X17943D01*
Y25105D01*
X19109Y26105D02*
X18776D01*
X18609Y25938D01*
Y25272D01*
X18776Y25105D01*
X19109D01*
X19275Y25272D01*
Y25938D01*
X19109Y26105D01*
X20109D02*
X19775D01*
X19609Y25938D01*
Y25272D01*
X19775Y25105D01*
X20109D01*
X20275Y25272D01*
Y25938D01*
X20109Y26105D01*
X20608D02*
Y25105D01*
X21275D01*
X21608Y26105D02*
X21941D01*
X21775D01*
Y25105D01*
X21608D01*
X21941D01*
X22441D02*
Y26105D01*
X23108Y25105D01*
Y26105D01*
X24107Y25938D02*
X23941Y26105D01*
X23607D01*
X23441Y25938D01*
Y25272D01*
X23607Y25105D01*
X23941D01*
X24107Y25272D01*
Y25605D01*
X23774D01*
X25440Y26105D02*
Y25105D01*
Y25605D01*
X26107D01*
Y26105D01*
Y25105D01*
X26940Y26105D02*
X26606D01*
X26440Y25938D01*
Y25272D01*
X26606Y25105D01*
X26940D01*
X27106Y25272D01*
Y25938D01*
X26940Y26105D01*
X27439D02*
Y25105D01*
X28106D01*
X29106Y26105D02*
X28439D01*
Y25105D01*
X29106D01*
X28439Y25605D02*
X28772D01*
X30105Y25938D02*
X29939Y26105D01*
X29605D01*
X29439Y25938D01*
Y25771D01*
X29605Y25605D01*
X29939D01*
X30105Y25438D01*
Y25272D01*
X29939Y25105D01*
X29605D01*
X29439Y25272D01*
X32105Y25938D02*
X31938Y26105D01*
X31605D01*
X31438Y25938D01*
Y25771D01*
X31605Y25605D01*
X31938D01*
X32105Y25438D01*
Y25272D01*
X31938Y25105D01*
X31605D01*
X31438Y25272D01*
X32438Y26105D02*
Y25105D01*
Y25605D01*
X33104D01*
Y26105D01*
Y25105D01*
X33438D02*
Y25771D01*
X33771Y26105D01*
X34104Y25771D01*
Y25105D01*
Y25605D01*
X33438D01*
X34437Y26105D02*
Y25105D01*
X35104D01*
X35437Y26105D02*
Y25105D01*
X36103D01*
X37436Y26105D02*
Y25105D01*
X37936D01*
X38103Y25272D01*
Y25438D01*
X37936Y25605D01*
X37436D01*
X37936D01*
X38103Y25771D01*
Y25938D01*
X37936Y26105D01*
X37436D01*
X39102D02*
X38436D01*
Y25105D01*
X39102D01*
X38436Y25605D02*
X38769D01*
X41435Y25938D02*
X41602Y26105D01*
X41935D01*
X42101Y25938D01*
Y25771D01*
X41935Y25605D01*
X41768D01*
X41935D01*
X42101Y25438D01*
Y25272D01*
X41935Y25105D01*
X41602D01*
X41435Y25272D01*
X43434Y25105D02*
Y26105D01*
X43768Y25771D01*
X44101Y26105D01*
Y25105D01*
X44434Y26105D02*
X44767D01*
X44601D01*
Y25105D01*
X44434D01*
X44767D01*
X45267Y26105D02*
Y25105D01*
X45934D01*
X46933Y25938D02*
X46767Y26105D01*
X46433D01*
X46267Y25938D01*
Y25771D01*
X46433Y25605D01*
X46767D01*
X46933Y25438D01*
Y25272D01*
X46767Y25105D01*
X46433D01*
X46267Y25272D01*
X-2894Y29085D02*
X-2561D01*
X-2727D01*
Y30085D01*
X-2894Y29918D01*
X-2061Y29085D02*
X-1728D01*
X-1894D01*
Y30085D01*
X-2061Y29918D01*
X-1228Y29085D02*
X-895Y29418D01*
Y29751D01*
X-1228Y30085D01*
X605D02*
Y29085D01*
Y29585D01*
X1271D01*
Y30085D01*
Y29085D01*
X1605D02*
Y29751D01*
X1938Y30085D01*
X2271Y29751D01*
Y29085D01*
Y29585D01*
X1605D01*
X3271Y29918D02*
X3104Y30085D01*
X2771D01*
X2604Y29918D01*
Y29751D01*
X2771Y29585D01*
X3104D01*
X3271Y29418D01*
Y29252D01*
X3104Y29085D01*
X2771D01*
X2604Y29252D01*
X3604Y30085D02*
Y29085D01*
X4270D01*
X6103Y30085D02*
X5770D01*
X5603Y29918D01*
Y29252D01*
X5770Y29085D01*
X6103D01*
X6270Y29252D01*
Y29918D01*
X6103Y30085D01*
X6603Y29085D02*
Y30085D01*
X7269Y29085D01*
Y30085D01*
X8602Y29085D02*
Y29751D01*
X8935Y30085D01*
X9269Y29751D01*
Y29085D01*
Y29585D01*
X8602D01*
X9602Y30085D02*
Y29085D01*
X10268D01*
X10602Y30085D02*
Y29085D01*
X11268D01*
X12601D02*
Y30085D01*
X13101D01*
X13267Y29918D01*
Y29585D01*
X13101Y29418D01*
X12601D01*
X13601Y29085D02*
Y29751D01*
X13934Y30085D01*
X14267Y29751D01*
Y29085D01*
Y29585D01*
X13601D01*
X14600Y30085D02*
Y29085D01*
X15100D01*
X15267Y29252D01*
Y29918D01*
X15100Y30085D01*
X14600D01*
X16266Y29918D02*
X16100Y30085D01*
X15767D01*
X15600Y29918D01*
Y29751D01*
X15767Y29585D01*
X16100D01*
X16266Y29418D01*
Y29252D01*
X16100Y29085D01*
X15767D01*
X15600Y29252D01*
X17599Y29085D02*
Y29751D01*
X17933Y30085D01*
X18266Y29751D01*
Y29085D01*
Y29585D01*
X17599D01*
X18599Y29085D02*
Y30085D01*
X19265Y29085D01*
Y30085D01*
X19599D02*
Y29085D01*
X20099D01*
X20265Y29252D01*
Y29918D01*
X20099Y30085D01*
X19599D01*
X21598D02*
Y29418D01*
X21931Y29085D01*
X22264Y29418D01*
Y30085D01*
X22598D02*
X22931D01*
X22764D01*
Y29085D01*
X22598D01*
X22931D01*
X23431D02*
Y29751D01*
X23764Y30085D01*
X24097Y29751D01*
Y29085D01*
Y29585D01*
X23431D01*
X25097Y29918D02*
X24930Y30085D01*
X24597D01*
X24430Y29918D01*
Y29751D01*
X24597Y29585D01*
X24930D01*
X25097Y29418D01*
Y29252D01*
X24930Y29085D01*
X24597D01*
X24430Y29252D01*
X-2228Y47085D02*
X-2894D01*
X-2228Y47751D01*
Y47918D01*
X-2394Y48085D01*
X-2727D01*
X-2894Y47918D01*
X-1894Y47085D02*
X-1561Y47418D01*
Y47751D01*
X-1894Y48085D01*
X-62Y47085D02*
Y48085D01*
X272Y47751D01*
X605Y48085D01*
Y47085D01*
X938D02*
Y47751D01*
X1271Y48085D01*
X1605Y47751D01*
Y47085D01*
Y47585D01*
X938D01*
X1938Y48085D02*
X2604D01*
X2271D01*
Y47085D01*
X3604Y48085D02*
X2937D01*
Y47085D01*
X3604D01*
X2937Y47585D02*
X3271D01*
X3937Y47085D02*
Y48085D01*
X4437D01*
X4604Y47918D01*
Y47585D01*
X4437Y47418D01*
X3937D01*
X4270D02*
X4604Y47085D01*
X4937Y48085D02*
X5270D01*
X5103D01*
Y47085D01*
X4937D01*
X5270D01*
X5770D02*
Y47751D01*
X6103Y48085D01*
X6436Y47751D01*
Y47085D01*
Y47585D01*
X5770D01*
X6769Y48085D02*
Y47085D01*
X7436D01*
X8769Y48085D02*
X9102D01*
X8935D01*
Y47085D01*
X8769D01*
X9102D01*
X10268Y47918D02*
X10102Y48085D01*
X9769D01*
X9602Y47918D01*
Y47751D01*
X9769Y47585D01*
X10102D01*
X10268Y47418D01*
Y47252D01*
X10102Y47085D01*
X9769D01*
X9602Y47252D01*
X11601Y47085D02*
Y47252D01*
X11768D01*
Y47085D01*
X11601D01*
X12434Y47918D02*
X12601Y48085D01*
X12934D01*
X13101Y47918D01*
Y47252D01*
X12934Y47085D01*
X12601D01*
X12434Y47252D01*
Y47918D01*
X13434D02*
X13601Y48085D01*
X13934D01*
X14100Y47918D01*
Y47751D01*
X13934Y47585D01*
X13767D01*
X13934D01*
X14100Y47418D01*
Y47252D01*
X13934Y47085D01*
X13601D01*
X13434Y47252D01*
X14434Y47085D02*
X14767D01*
X14600D01*
Y48085D01*
X14434Y47918D01*
X16266Y48085D02*
X16933D01*
X16600D01*
Y47085D01*
X17266Y48085D02*
Y47085D01*
Y47585D01*
X17933D01*
Y48085D01*
Y47085D01*
X18266Y48085D02*
X18599D01*
X18432D01*
Y47085D01*
X18266D01*
X18599D01*
X19765Y47918D02*
X19599Y48085D01*
X19265D01*
X19099Y47918D01*
Y47252D01*
X19265Y47085D01*
X19599D01*
X19765Y47252D01*
X20099Y48085D02*
Y47085D01*
Y47418D01*
X20765Y48085D01*
X20265Y47585D01*
X20765Y47085D01*
X22764Y48085D02*
X22098D01*
Y47585D01*
X22431D01*
X22098D01*
Y47085D01*
X23098D02*
Y48085D01*
X23597D01*
X23764Y47918D01*
Y47585D01*
X23597Y47418D01*
X23098D01*
X23431D02*
X23764Y47085D01*
X24597D02*
Y48085D01*
X24097Y47585D01*
X24764D01*
X-2894Y33252D02*
X-2727Y33085D01*
X-2394D01*
X-2228Y33252D01*
Y33918D01*
X-2394Y34085D01*
X-2727D01*
X-2894Y33918D01*
Y33751D01*
X-2727Y33585D01*
X-2228D01*
X-1894Y33085D02*
X-1561Y33418D01*
Y33751D01*
X-1894Y34085D01*
X-62Y33085D02*
Y34085D01*
X605Y33085D01*
Y34085D01*
X1438D02*
X1105D01*
X938Y33918D01*
Y33252D01*
X1105Y33085D01*
X1438D01*
X1605Y33252D01*
Y33918D01*
X1438Y34085D01*
X3604Y33918D02*
X3437Y34085D01*
X3104D01*
X2937Y33918D01*
Y33751D01*
X3104Y33585D01*
X3437D01*
X3604Y33418D01*
Y33252D01*
X3437Y33085D01*
X3104D01*
X2937Y33252D01*
X3937Y34085D02*
X4270D01*
X4104D01*
Y33085D01*
X3937D01*
X4270D01*
X4770Y34085D02*
Y33085D01*
X5437D01*
X5770Y34085D02*
Y33085D01*
Y33418D01*
X6436Y34085D01*
X5936Y33585D01*
X6436Y33085D01*
X7436Y33918D02*
X7269Y34085D01*
X6936D01*
X6769Y33918D01*
Y33751D01*
X6936Y33585D01*
X7269D01*
X7436Y33418D01*
Y33252D01*
X7269Y33085D01*
X6936D01*
X6769Y33252D01*
X8436Y33918D02*
X8269Y34085D01*
X7936D01*
X7769Y33918D01*
Y33252D01*
X7936Y33085D01*
X8269D01*
X8436Y33252D01*
X8769Y33085D02*
Y34085D01*
X9269D01*
X9435Y33918D01*
Y33585D01*
X9269Y33418D01*
X8769D01*
X9102D02*
X9435Y33085D01*
X10435Y34085D02*
X9769D01*
Y33085D01*
X10435D01*
X9769Y33585D02*
X10102D01*
X11435Y34085D02*
X10768D01*
Y33085D01*
X11435D01*
X10768Y33585D02*
X11101D01*
X11768Y33085D02*
Y34085D01*
X12434Y33085D01*
Y34085D01*
X14267D02*
X13934D01*
X13767Y33918D01*
Y33252D01*
X13934Y33085D01*
X14267D01*
X14434Y33252D01*
Y33918D01*
X14267Y34085D01*
X14767Y33085D02*
Y34085D01*
X15433Y33085D01*
Y34085D01*
X16766Y33085D02*
Y34085D01*
X17266D01*
X17433Y33918D01*
Y33585D01*
X17266Y33418D01*
X16766D01*
X17766Y33085D02*
Y33751D01*
X18099Y34085D01*
X18432Y33751D01*
Y33085D01*
Y33585D01*
X17766D01*
X18766Y34085D02*
Y33085D01*
X19265D01*
X19432Y33252D01*
Y33918D01*
X19265Y34085D01*
X18766D01*
X20432Y33918D02*
X20265Y34085D01*
X19932D01*
X19765Y33918D01*
Y33751D01*
X19932Y33585D01*
X20265D01*
X20432Y33418D01*
Y33252D01*
X20265Y33085D01*
X19932D01*
X19765Y33252D01*
X-2894Y35918D02*
X-2727Y36085D01*
X-2394D01*
X-2228Y35918D01*
Y35751D01*
X-2394Y35585D01*
X-2228Y35418D01*
Y35252D01*
X-2394Y35085D01*
X-2727D01*
X-2894Y35252D01*
Y35418D01*
X-2727Y35585D01*
X-2894Y35751D01*
Y35918D01*
X-2727Y35585D02*
X-2394D01*
X-1894Y35085D02*
X-1561Y35418D01*
Y35751D01*
X-1894Y36085D01*
X-62Y35085D02*
Y35751D01*
X272Y36085D01*
X605Y35751D01*
Y35085D01*
Y35585D01*
X-62D01*
X938Y36085D02*
Y35085D01*
X1438D01*
X1605Y35252D01*
Y35918D01*
X1438Y36085D01*
X938D01*
X1938D02*
Y35085D01*
X2438D01*
X2604Y35252D01*
Y35918D01*
X2438Y36085D01*
X1938D01*
X4604Y35918D02*
X4437Y36085D01*
X4104D01*
X3937Y35918D01*
Y35751D01*
X4104Y35585D01*
X4437D01*
X4604Y35418D01*
Y35252D01*
X4437Y35085D01*
X4104D01*
X3937Y35252D01*
X4937Y36085D02*
X5270D01*
X5103D01*
Y35085D01*
X4937D01*
X5270D01*
X5770Y36085D02*
Y35085D01*
X6436D01*
X6769Y36085D02*
Y35085D01*
Y35418D01*
X7436Y36085D01*
X6936Y35585D01*
X7436Y35085D01*
X8436Y35918D02*
X8269Y36085D01*
X7936D01*
X7769Y35918D01*
Y35751D01*
X7936Y35585D01*
X8269D01*
X8436Y35418D01*
Y35252D01*
X8269Y35085D01*
X7936D01*
X7769Y35252D01*
X9435Y35918D02*
X9269Y36085D01*
X8935D01*
X8769Y35918D01*
Y35252D01*
X8935Y35085D01*
X9269D01*
X9435Y35252D01*
X9769Y35085D02*
Y36085D01*
X10268D01*
X10435Y35918D01*
Y35585D01*
X10268Y35418D01*
X9769D01*
X10102D02*
X10435Y35085D01*
X11435Y36085D02*
X10768D01*
Y35085D01*
X11435D01*
X10768Y35585D02*
X11101D01*
X12434Y36085D02*
X11768D01*
Y35085D01*
X12434D01*
X11768Y35585D02*
X12101D01*
X12768Y35085D02*
Y36085D01*
X13434Y35085D01*
Y36085D01*
X-2894Y38085D02*
X-2228D01*
Y37918D01*
X-2894Y37252D01*
Y37085D01*
X-1894D02*
X-1561Y37418D01*
Y37751D01*
X-1894Y38085D01*
X-62Y37085D02*
Y38085D01*
X438D01*
X605Y37918D01*
Y37585D01*
X438Y37418D01*
X-62D01*
X272D02*
X605Y37085D01*
X1438Y38085D02*
X1105D01*
X938Y37918D01*
Y37252D01*
X1105Y37085D01*
X1438D01*
X1605Y37252D01*
Y37918D01*
X1438Y38085D01*
X1938D02*
Y37252D01*
X2104Y37085D01*
X2438D01*
X2604Y37252D01*
Y38085D01*
X2937D02*
X3604D01*
X3271D01*
Y37085D01*
X4604Y38085D02*
X3937D01*
Y37085D01*
X4604D01*
X3937Y37585D02*
X4270D01*
X5936Y38085D02*
X6603D01*
X6270D01*
Y37085D01*
X7436Y38085D02*
X7103D01*
X6936Y37918D01*
Y37252D01*
X7103Y37085D01*
X7436D01*
X7603Y37252D01*
Y37918D01*
X7436Y38085D01*
X8935D02*
Y37085D01*
X9435D01*
X9602Y37252D01*
Y37418D01*
X9435Y37585D01*
X8935D01*
X9435D01*
X9602Y37751D01*
Y37918D01*
X9435Y38085D01*
X8935D01*
X10435D02*
X10102D01*
X9935Y37918D01*
Y37252D01*
X10102Y37085D01*
X10435D01*
X10602Y37252D01*
Y37918D01*
X10435Y38085D01*
X10935Y37085D02*
Y37751D01*
X11268Y38085D01*
X11601Y37751D01*
Y37085D01*
Y37585D01*
X10935D01*
X11934Y37085D02*
Y38085D01*
X12434D01*
X12601Y37918D01*
Y37585D01*
X12434Y37418D01*
X11934D01*
X12268D02*
X12601Y37085D01*
X12934Y38085D02*
Y37085D01*
X13434D01*
X13601Y37252D01*
Y37918D01*
X13434Y38085D01*
X12934D01*
X15433D02*
X15100D01*
X14934Y37918D01*
Y37252D01*
X15100Y37085D01*
X15433D01*
X15600Y37252D01*
Y37918D01*
X15433Y38085D01*
X15933D02*
Y37252D01*
X16100Y37085D01*
X16433D01*
X16600Y37252D01*
Y38085D01*
X16933D02*
X17599D01*
X17266D01*
Y37085D01*
X17933Y38085D02*
Y37085D01*
X18599D01*
X18932Y38085D02*
X19265D01*
X19099D01*
Y37085D01*
X18932D01*
X19265D01*
X19765D02*
Y38085D01*
X20432Y37085D01*
Y38085D01*
X21431D02*
X20765D01*
Y37085D01*
X21431D01*
X20765Y37585D02*
X21098D01*
X-2228Y40085D02*
X-2561Y39918D01*
X-2894Y39585D01*
Y39252D01*
X-2727Y39085D01*
X-2394D01*
X-2228Y39252D01*
Y39418D01*
X-2394Y39585D01*
X-2894D01*
X-1894Y39085D02*
X-1561Y39418D01*
Y39751D01*
X-1894Y40085D01*
X-62Y39085D02*
Y40085D01*
X438D01*
X605Y39918D01*
Y39585D01*
X438Y39418D01*
X-62D01*
X272D02*
X605Y39085D01*
X1605Y40085D02*
X938D01*
Y39085D01*
X1605D01*
X938Y39585D02*
X1271D01*
X2604Y39918D02*
X2438Y40085D01*
X2104D01*
X1938Y39918D01*
Y39252D01*
X2104Y39085D01*
X2438D01*
X2604Y39252D01*
X2937Y40085D02*
X3604D01*
X3271D01*
Y39085D01*
X3937D02*
Y39751D01*
X4270Y40085D01*
X4604Y39751D01*
Y39085D01*
Y39585D01*
X3937D01*
X4937Y39085D02*
Y40085D01*
X5603Y39085D01*
Y40085D01*
X6603Y39918D02*
X6436Y40085D01*
X6103D01*
X5936Y39918D01*
Y39252D01*
X6103Y39085D01*
X6436D01*
X6603Y39252D01*
Y39585D01*
X6270D01*
X6936Y40085D02*
Y39252D01*
X7103Y39085D01*
X7436D01*
X7603Y39252D01*
Y40085D01*
X7936D02*
Y39085D01*
X8602D01*
X8935D02*
Y39751D01*
X9269Y40085D01*
X9602Y39751D01*
Y39085D01*
Y39585D01*
X8935D01*
X9935Y39085D02*
Y40085D01*
X10435D01*
X10602Y39918D01*
Y39585D01*
X10435Y39418D01*
X9935D01*
X10268D02*
X10602Y39085D01*
X11934Y40085D02*
Y39085D01*
X12434D01*
X12601Y39252D01*
Y39418D01*
X12434Y39585D01*
X11934D01*
X12434D01*
X12601Y39751D01*
Y39918D01*
X12434Y40085D01*
X11934D01*
X13434D02*
X13101D01*
X12934Y39918D01*
Y39252D01*
X13101Y39085D01*
X13434D01*
X13601Y39252D01*
Y39918D01*
X13434Y40085D01*
X13934Y39085D02*
Y39751D01*
X14267Y40085D01*
X14600Y39751D01*
Y39085D01*
Y39585D01*
X13934D01*
X14934Y39085D02*
Y40085D01*
X15433D01*
X15600Y39918D01*
Y39585D01*
X15433Y39418D01*
X14934D01*
X15267D02*
X15600Y39085D01*
X15933Y40085D02*
Y39085D01*
X16433D01*
X16600Y39252D01*
Y39918D01*
X16433Y40085D01*
X15933D01*
X17933D02*
Y39085D01*
X18266Y39418D01*
X18599Y39085D01*
Y40085D01*
X18932D02*
X19265D01*
X19099D01*
Y39085D01*
X18932D01*
X19265D01*
X19765Y40085D02*
X20432D01*
X20099D01*
Y39085D01*
X20765Y40085D02*
Y39085D01*
Y39585D01*
X21431D01*
Y40085D01*
Y39085D01*
X23431Y39918D02*
X23264Y40085D01*
X22931D01*
X22764Y39918D01*
Y39252D01*
X22931Y39085D01*
X23264D01*
X23431Y39252D01*
X23764Y40085D02*
Y39252D01*
X23931Y39085D01*
X24264D01*
X24430Y39252D01*
Y40085D01*
X24764D02*
X25430D01*
X25097D01*
Y39085D01*
X26263Y40085D02*
X25930D01*
X25763Y39918D01*
Y39252D01*
X25930Y39085D01*
X26263D01*
X26430Y39252D01*
Y39918D01*
X26263Y40085D01*
X26763D02*
Y39252D01*
X26930Y39085D01*
X27263D01*
X27429Y39252D01*
Y40085D01*
X27763D02*
X28429D01*
X28096D01*
Y39085D01*
X30262Y40085D02*
X29929D01*
X29762Y39918D01*
Y39252D01*
X29929Y39085D01*
X30262D01*
X30429Y39252D01*
Y39918D01*
X30262Y40085D01*
X30762Y39085D02*
Y40085D01*
X31428Y39085D01*
Y40085D01*
X32761Y39085D02*
Y40085D01*
X33261D01*
X33428Y39918D01*
Y39585D01*
X33261Y39418D01*
X32761D01*
X33094D02*
X33428Y39085D01*
X33761Y40085D02*
X34094D01*
X33927D01*
Y39085D01*
X33761D01*
X34094D01*
X35260Y39918D02*
X35094Y40085D01*
X34760D01*
X34594Y39918D01*
Y39252D01*
X34760Y39085D01*
X35094D01*
X35260Y39252D01*
Y39585D01*
X34927D01*
X35594Y40085D02*
Y39085D01*
Y39585D01*
X36260D01*
Y40085D01*
Y39085D01*
X36593Y40085D02*
X37260D01*
X36926D01*
Y39085D01*
X39259Y39918D02*
X39092Y40085D01*
X38759D01*
X38593Y39918D01*
Y39751D01*
X38759Y39585D01*
X39092D01*
X39259Y39418D01*
Y39252D01*
X39092Y39085D01*
X38759D01*
X38593Y39252D01*
X39592Y40085D02*
X39925D01*
X39759D01*
Y39085D01*
X39592D01*
X39925D01*
X40425Y40085D02*
Y39085D01*
X40925D01*
X41092Y39252D01*
Y39918D01*
X40925Y40085D01*
X40425D01*
X42091D02*
X41425D01*
Y39085D01*
X42091D01*
X41425Y39585D02*
X41758D01*
X-2228Y42085D02*
X-2894D01*
Y41585D01*
X-2561Y41751D01*
X-2394D01*
X-2228Y41585D01*
Y41252D01*
X-2394Y41085D01*
X-2727D01*
X-2894Y41252D01*
X-1894Y41085D02*
X-1561Y41418D01*
Y41751D01*
X-1894Y42085D01*
X605D02*
X-62D01*
Y41585D01*
X272D01*
X-62D01*
Y41085D01*
X938Y42085D02*
X1271D01*
X1105D01*
Y41085D01*
X938D01*
X1271D01*
X1771D02*
Y42085D01*
X2438Y41085D01*
Y42085D01*
X2771D02*
X3104D01*
X2937D01*
Y41085D01*
X2771D01*
X3104D01*
X4270Y41918D02*
X4104Y42085D01*
X3770D01*
X3604Y41918D01*
Y41751D01*
X3770Y41585D01*
X4104D01*
X4270Y41418D01*
Y41252D01*
X4104Y41085D01*
X3770D01*
X3604Y41252D01*
X4604Y42085D02*
Y41085D01*
Y41585D01*
X5270D01*
Y42085D01*
Y41085D01*
X6603Y42085D02*
X6936D01*
X6769D01*
Y41085D01*
X6603D01*
X6936D01*
X8102Y41918D02*
X7936Y42085D01*
X7603D01*
X7436Y41918D01*
Y41751D01*
X7603Y41585D01*
X7936D01*
X8102Y41418D01*
Y41252D01*
X7936Y41085D01*
X7603D01*
X7436Y41252D01*
X10102Y41918D02*
X9935Y42085D01*
X9602D01*
X9435Y41918D01*
Y41751D01*
X9602Y41585D01*
X9935D01*
X10102Y41418D01*
Y41252D01*
X9935Y41085D01*
X9602D01*
X9435Y41252D01*
X10435Y41085D02*
Y42085D01*
X10768Y41751D01*
X11101Y42085D01*
Y41085D01*
X11934Y42085D02*
X11601D01*
X11435Y41918D01*
Y41252D01*
X11601Y41085D01*
X11934D01*
X12101Y41252D01*
Y41918D01*
X11934Y42085D01*
X12434D02*
Y41085D01*
X12934D01*
X13101Y41252D01*
Y41418D01*
X12934Y41585D01*
X12434D01*
X12934D01*
X13101Y41751D01*
Y41918D01*
X12934Y42085D01*
X12434D01*
X14100Y41918D02*
X13934Y42085D01*
X13601D01*
X13434Y41918D01*
Y41252D01*
X13601Y41085D01*
X13934D01*
X14100Y41252D01*
X-2394Y43085D02*
Y44085D01*
X-2894Y43585D01*
X-2228D01*
X-1894Y43085D02*
X-1561Y43418D01*
Y43751D01*
X-1894Y44085D01*
X605Y43918D02*
X438Y44085D01*
X105D01*
X-62Y43918D01*
Y43252D01*
X105Y43085D01*
X438D01*
X605Y43252D01*
X1438Y44085D02*
X1105D01*
X938Y43918D01*
Y43252D01*
X1105Y43085D01*
X1438D01*
X1605Y43252D01*
Y43918D01*
X1438Y44085D01*
X1938Y43085D02*
Y44085D01*
X2438D01*
X2604Y43918D01*
Y43585D01*
X2438Y43418D01*
X1938D01*
X2937Y43085D02*
Y44085D01*
X3437D01*
X3604Y43918D01*
Y43585D01*
X3437Y43418D01*
X2937D01*
X4604Y44085D02*
X3937D01*
Y43085D01*
X4604D01*
X3937Y43585D02*
X4270D01*
X4937Y43085D02*
Y44085D01*
X5437D01*
X5603Y43918D01*
Y43585D01*
X5437Y43418D01*
X4937D01*
X5270D02*
X5603Y43085D01*
X6936Y44085D02*
Y43085D01*
X7269Y43418D01*
X7603Y43085D01*
Y44085D01*
X8602D02*
X7936D01*
Y43085D01*
X8602D01*
X7936Y43585D02*
X8269D01*
X8935Y44085D02*
X9269D01*
X9102D01*
Y43085D01*
X8935D01*
X9269D01*
X10435Y43918D02*
X10268Y44085D01*
X9935D01*
X9769Y43918D01*
Y43252D01*
X9935Y43085D01*
X10268D01*
X10435Y43252D01*
Y43585D01*
X10102D01*
X10768Y44085D02*
Y43085D01*
Y43585D01*
X11435D01*
Y44085D01*
Y43085D01*
X11768Y44085D02*
X12434D01*
X12101D01*
Y43085D01*
X13767Y44085D02*
X14100D01*
X13934D01*
Y43085D01*
X13767D01*
X14100D01*
X15267Y43918D02*
X15100Y44085D01*
X14767D01*
X14600Y43918D01*
Y43751D01*
X14767Y43585D01*
X15100D01*
X15267Y43418D01*
Y43252D01*
X15100Y43085D01*
X14767D01*
X14600Y43252D01*
X16600Y43085D02*
X16933D01*
X16766D01*
Y44085D01*
X16600Y43918D01*
X18932Y44085D02*
X18599D01*
X18432Y43918D01*
Y43252D01*
X18599Y43085D01*
X18932D01*
X19099Y43252D01*
Y43918D01*
X18932Y44085D01*
X19432D02*
Y43252D01*
X19599Y43085D01*
X19932D01*
X20099Y43252D01*
Y44085D01*
X20432Y43085D02*
Y44085D01*
X21098Y43085D01*
Y44085D01*
X22098Y43918D02*
X21931Y44085D01*
X21598D01*
X21431Y43918D01*
Y43252D01*
X21598Y43085D01*
X21931D01*
X22098Y43252D01*
X23098Y44085D02*
X22431D01*
Y43085D01*
X23098D01*
X22431Y43585D02*
X22764D01*
X-2894Y45918D02*
X-2727Y46085D01*
X-2394D01*
X-2228Y45918D01*
Y45751D01*
X-2394Y45585D01*
X-2561D01*
X-2394D01*
X-2228Y45418D01*
Y45252D01*
X-2394Y45085D01*
X-2727D01*
X-2894Y45252D01*
X-1894Y45085D02*
X-1561Y45418D01*
Y45751D01*
X-1894Y46085D01*
X605Y45085D02*
X-62D01*
X605Y45751D01*
Y45918D01*
X438Y46085D01*
X105D01*
X-62Y45918D01*
X1938Y46085D02*
Y45085D01*
X2604D01*
X2937D02*
Y45751D01*
X3271Y46085D01*
X3604Y45751D01*
Y45085D01*
Y45585D01*
X2937D01*
X3937Y46085D02*
Y45918D01*
X4270Y45585D01*
X4604Y45918D01*
Y46085D01*
X4270Y45585D02*
Y45085D01*
X5603Y46085D02*
X4937D01*
Y45085D01*
X5603D01*
X4937Y45585D02*
X5270D01*
X5936Y45085D02*
Y46085D01*
X6436D01*
X6603Y45918D01*
Y45585D01*
X6436Y45418D01*
X5936D01*
X6270D02*
X6603Y45085D01*
X7936Y46085D02*
Y45085D01*
X8436D01*
X8602Y45252D01*
Y45418D01*
X8436Y45585D01*
X7936D01*
X8436D01*
X8602Y45751D01*
Y45918D01*
X8436Y46085D01*
X7936D01*
X9435D02*
X9102D01*
X8935Y45918D01*
Y45252D01*
X9102Y45085D01*
X9435D01*
X9602Y45252D01*
Y45918D01*
X9435Y46085D01*
X9935Y45085D02*
Y45751D01*
X10268Y46085D01*
X10602Y45751D01*
Y45085D01*
Y45585D01*
X9935D01*
X10935Y45085D02*
Y46085D01*
X11435D01*
X11601Y45918D01*
Y45585D01*
X11435Y45418D01*
X10935D01*
X11268D02*
X11601Y45085D01*
X11935Y46085D02*
Y45085D01*
X12434D01*
X12601Y45252D01*
Y45918D01*
X12434Y46085D01*
X11935D01*
X-2894Y31085D02*
X-2561D01*
X-2727D01*
Y32085D01*
X-2894Y31918D01*
X-2061D02*
X-1894Y32085D01*
X-1561D01*
X-1395Y31918D01*
Y31252D01*
X-1561Y31085D01*
X-1894D01*
X-2061Y31252D01*
Y31918D01*
X-1061Y31085D02*
X-728Y31418D01*
Y31751D01*
X-1061Y32085D01*
X1438Y31918D02*
X1271Y32085D01*
X938D01*
X771Y31918D01*
Y31252D01*
X938Y31085D01*
X1271D01*
X1438Y31252D01*
Y31585D01*
X1105D01*
X1771Y31085D02*
Y32085D01*
X2271D01*
X2438Y31918D01*
Y31585D01*
X2271Y31418D01*
X1771D01*
X2104D02*
X2438Y31085D01*
X3437Y32085D02*
X2771D01*
Y31085D01*
X3437D01*
X2771Y31585D02*
X3104D01*
X4437Y32085D02*
X3770D01*
Y31085D01*
X4437D01*
X3770Y31585D02*
X4104D01*
X4770Y31085D02*
Y32085D01*
X5437Y31085D01*
Y32085D01*
X7436Y31918D02*
X7269Y32085D01*
X6936D01*
X6769Y31918D01*
Y31751D01*
X6936Y31585D01*
X7269D01*
X7436Y31418D01*
Y31252D01*
X7269Y31085D01*
X6936D01*
X6769Y31252D01*
X8269Y32085D02*
X7936D01*
X7769Y31918D01*
Y31252D01*
X7936Y31085D01*
X8269D01*
X8436Y31252D01*
Y31918D01*
X8269Y32085D01*
X8769D02*
Y31085D01*
X9435D01*
X9769Y32085D02*
Y31085D01*
X10268D01*
X10435Y31252D01*
Y31918D01*
X10268Y32085D01*
X9769D01*
X11435D02*
X10768D01*
Y31085D01*
X11435D01*
X10768Y31585D02*
X11101D01*
X11768Y31085D02*
Y32085D01*
X12268D01*
X12434Y31918D01*
Y31585D01*
X12268Y31418D01*
X11768D01*
X12101D02*
X12434Y31085D01*
X13767D02*
Y32085D01*
X14100Y31751D01*
X14434Y32085D01*
Y31085D01*
X14767D02*
Y31751D01*
X15100Y32085D01*
X15433Y31751D01*
Y31085D01*
Y31585D01*
X14767D01*
X16433Y31918D02*
X16266Y32085D01*
X15933D01*
X15767Y31918D01*
Y31751D01*
X15933Y31585D01*
X16266D01*
X16433Y31418D01*
Y31252D01*
X16266Y31085D01*
X15933D01*
X15767Y31252D01*
X16766Y32085D02*
Y31085D01*
Y31418D01*
X17433Y32085D01*
X16933Y31585D01*
X17433Y31085D01*
X18766Y32085D02*
Y31085D01*
X19265D01*
X19432Y31252D01*
Y31418D01*
X19265Y31585D01*
X18766D01*
X19265D01*
X19432Y31751D01*
Y31918D01*
X19265Y32085D01*
X18766D01*
X20265D02*
X19932D01*
X19765Y31918D01*
Y31252D01*
X19932Y31085D01*
X20265D01*
X20432Y31252D01*
Y31918D01*
X20265Y32085D01*
X20765D02*
X21431D01*
X21098D01*
Y31085D01*
X21765Y32085D02*
Y31085D01*
Y31585D01*
X22431D01*
Y32085D01*
Y31085D01*
X24430Y31918D02*
X24264Y32085D01*
X23931D01*
X23764Y31918D01*
Y31751D01*
X23931Y31585D01*
X24264D01*
X24430Y31418D01*
Y31252D01*
X24264Y31085D01*
X23931D01*
X23764Y31252D01*
X24764Y32085D02*
X25097D01*
X24930D01*
Y31085D01*
X24764D01*
X25097D01*
X25597Y32085D02*
Y31085D01*
X26097D01*
X26263Y31252D01*
Y31918D01*
X26097Y32085D01*
X25597D01*
X27263D02*
X26596D01*
Y31085D01*
X27263D01*
X26596Y31585D02*
X26930D01*
X28263Y31918D02*
X28096Y32085D01*
X27763D01*
X27596Y31918D01*
Y31751D01*
X27763Y31585D01*
X28096D01*
X28263Y31418D01*
Y31252D01*
X28096Y31085D01*
X27763D01*
X27596Y31252D01*
X-2894Y51085D02*
Y52085D01*
X-2228Y51085D01*
Y52085D01*
X-1395D02*
X-1728D01*
X-1894Y51918D01*
Y51252D01*
X-1728Y51085D01*
X-1395D01*
X-1228Y51252D01*
Y51918D01*
X-1395Y52085D01*
X-895D02*
X-228D01*
X-561D01*
Y51085D01*
X771Y52085D02*
X105D01*
Y51085D01*
X771D01*
X105Y51585D02*
X438D01*
X1771Y51918D02*
X1605Y52085D01*
X1271D01*
X1105Y51918D01*
Y51751D01*
X1271Y51585D01*
X1605D01*
X1771Y51418D01*
Y51252D01*
X1605Y51085D01*
X1271D01*
X1105Y51252D01*
X-2894Y49085D02*
X-2561D01*
X-2727D01*
Y50085D01*
X-2894Y49918D01*
X-2061Y49085D02*
X-1728Y49418D01*
Y49751D01*
X-2061Y50085D01*
X-228D02*
Y49085D01*
X272D01*
X438Y49252D01*
Y49418D01*
X272Y49585D01*
X-228D01*
X272D01*
X438Y49751D01*
Y49918D01*
X272Y50085D01*
X-228D01*
X1271D02*
X938D01*
X771Y49918D01*
Y49252D01*
X938Y49085D01*
X1271D01*
X1438Y49252D01*
Y49918D01*
X1271Y50085D01*
X1771Y49085D02*
Y49751D01*
X2104Y50085D01*
X2438Y49751D01*
Y49085D01*
Y49585D01*
X1771D01*
X2771Y49085D02*
Y50085D01*
X3271D01*
X3437Y49918D01*
Y49585D01*
X3271Y49418D01*
X2771D01*
X3104D02*
X3437Y49085D01*
X3770Y50085D02*
Y49085D01*
X4270D01*
X4437Y49252D01*
Y49918D01*
X4270Y50085D01*
X3770D01*
X5770Y49085D02*
Y50085D01*
X6103Y49751D01*
X6436Y50085D01*
Y49085D01*
X7436Y50085D02*
X6769D01*
Y49085D01*
X7436D01*
X6769Y49585D02*
X7103D01*
X7769Y49085D02*
Y49751D01*
X8102Y50085D01*
X8436Y49751D01*
Y49085D01*
Y49585D01*
X7769D01*
X9435Y49918D02*
X9269Y50085D01*
X8935D01*
X8769Y49918D01*
Y49751D01*
X8935Y49585D01*
X9269D01*
X9435Y49418D01*
Y49252D01*
X9269Y49085D01*
X8935D01*
X8769Y49252D01*
X9769Y50085D02*
Y49252D01*
X9935Y49085D01*
X10268D01*
X10435Y49252D01*
Y50085D01*
X10768Y49085D02*
Y50085D01*
X11268D01*
X11435Y49918D01*
Y49585D01*
X11268Y49418D01*
X10768D01*
X11101D02*
X11435Y49085D01*
X12434Y50085D02*
X11768D01*
Y49085D01*
X12434D01*
X11768Y49585D02*
X12101D01*
X13434Y49918D02*
X13267Y50085D01*
X12934D01*
X12768Y49918D01*
Y49751D01*
X12934Y49585D01*
X13267D01*
X13434Y49418D01*
Y49252D01*
X13267Y49085D01*
X12934D01*
X12768Y49252D01*
X14767Y49085D02*
X15100D01*
X14934D01*
Y50085D01*
X14767Y49918D01*
X15600Y49085D02*
Y49252D01*
X15767D01*
Y49085D01*
X15600D01*
X16433Y49252D02*
X16600Y49085D01*
X16933D01*
X17099Y49252D01*
Y49918D01*
X16933Y50085D01*
X16600D01*
X16433Y49918D01*
Y49751D01*
X16600Y49585D01*
X17099D01*
X17433Y49085D02*
X17766D01*
X17599D01*
Y50085D01*
X17433Y49918D01*
X18932Y50085D02*
X18266D01*
Y49585D01*
X18599Y49751D01*
X18766D01*
X18932Y49585D01*
Y49252D01*
X18766Y49085D01*
X18432D01*
X18266Y49252D01*
X20265Y50085D02*
X20932Y49085D01*
Y50085D02*
X20265Y49085D01*
X23264Y49918D02*
X23431Y50085D01*
X23764D01*
X23931Y49918D01*
Y49751D01*
X23764Y49585D01*
X23597D01*
X23764D01*
X23931Y49418D01*
Y49252D01*
X23764Y49085D01*
X23431D01*
X23264Y49252D01*
X24264Y49085D02*
Y49252D01*
X24430D01*
Y49085D01*
X24264D01*
X25097D02*
X25430D01*
X25264D01*
Y50085D01*
X25097Y49918D01*
X25930D02*
X26097Y50085D01*
X26430D01*
X26596Y49918D01*
Y49751D01*
X26430Y49585D01*
X26596Y49418D01*
Y49252D01*
X26430Y49085D01*
X26097D01*
X25930Y49252D01*
Y49418D01*
X26097Y49585D01*
X25930Y49751D01*
Y49918D01*
X26097Y49585D02*
X26430D01*
X26930Y49918D02*
X27096Y50085D01*
X27429D01*
X27596Y49918D01*
Y49252D01*
X27429Y49085D01*
X27096D01*
X26930Y49252D01*
Y49918D01*
X28929Y50085D02*
X29262D01*
X29096D01*
Y49085D01*
X28929D01*
X29262D01*
X29762D02*
Y50085D01*
X30429Y49085D01*
Y50085D01*
X-2884Y27095D02*
X-2551D01*
X-2717D01*
Y28095D01*
X-2884Y27928D01*
X-1385Y27095D02*
X-2051D01*
X-1385Y27761D01*
Y27928D01*
X-1551Y28095D01*
X-1884D01*
X-2051Y27928D01*
X-1051Y27095D02*
X-718Y27428D01*
Y27761D01*
X-1051Y28095D01*
X781Y27095D02*
Y27262D01*
X948D01*
Y27095D01*
X781D01*
X1615D02*
X1948D01*
X1781D01*
Y28095D01*
X1615Y27928D01*
X3114Y27095D02*
X2448D01*
X3114Y27761D01*
Y27928D01*
X2947Y28095D01*
X2614D01*
X2448Y27928D01*
X4114Y27095D02*
X3447D01*
X4114Y27761D01*
Y27928D01*
X3947Y28095D01*
X3614D01*
X3447Y27928D01*
X5447Y27095D02*
Y28095D01*
X5780Y27761D01*
X6113Y28095D01*
Y27095D01*
X6446Y28095D02*
X6780D01*
X6613D01*
Y27095D01*
X6446D01*
X6780D01*
X7279Y28095D02*
Y27095D01*
X7946D01*
X9279Y28095D02*
X9945D01*
X9612D01*
Y27095D01*
X10778Y28095D02*
X10445D01*
X10278Y27928D01*
Y27262D01*
X10445Y27095D01*
X10778D01*
X10945Y27262D01*
Y27928D01*
X10778Y28095D01*
X11778D02*
X11445D01*
X11278Y27928D01*
Y27262D01*
X11445Y27095D01*
X11778D01*
X11945Y27262D01*
Y27928D01*
X11778Y28095D01*
X12278D02*
Y27095D01*
X12944D01*
X13277Y28095D02*
X13611D01*
X13444D01*
Y27095D01*
X13277D01*
X13611D01*
X14110D02*
Y28095D01*
X14777Y27095D01*
Y28095D01*
X15777Y27928D02*
X15610Y28095D01*
X15277D01*
X15110Y27928D01*
Y27262D01*
X15277Y27095D01*
X15610D01*
X15777Y27262D01*
Y27595D01*
X15443D01*
X17110Y28095D02*
Y27095D01*
Y27595D01*
X17776D01*
Y28095D01*
Y27095D01*
X18609Y28095D02*
X18276D01*
X18109Y27928D01*
Y27262D01*
X18276Y27095D01*
X18609D01*
X18776Y27262D01*
Y27928D01*
X18609Y28095D01*
X19109D02*
Y27095D01*
X19775D01*
X20775Y28095D02*
X20109D01*
Y27095D01*
X20775D01*
X20109Y27595D02*
X20442D01*
X21775Y27928D02*
X21608Y28095D01*
X21275D01*
X21108Y27928D01*
Y27761D01*
X21275Y27595D01*
X21608D01*
X21775Y27428D01*
Y27262D01*
X21608Y27095D01*
X21275D01*
X21108Y27262D01*
X23774Y27928D02*
X23607Y28095D01*
X23274D01*
X23108Y27928D01*
Y27761D01*
X23274Y27595D01*
X23607D01*
X23774Y27428D01*
Y27262D01*
X23607Y27095D01*
X23274D01*
X23108Y27262D01*
X24107Y28095D02*
Y27095D01*
Y27595D01*
X24774D01*
Y28095D01*
Y27095D01*
X25107D02*
Y27761D01*
X25440Y28095D01*
X25773Y27761D01*
Y27095D01*
Y27595D01*
X25107D01*
X26107Y28095D02*
Y27095D01*
X26773D01*
X27106Y28095D02*
Y27095D01*
X27773D01*
X29106Y28095D02*
Y27095D01*
X29605D01*
X29772Y27262D01*
Y27428D01*
X29605Y27595D01*
X29106D01*
X29605D01*
X29772Y27761D01*
Y27928D01*
X29605Y28095D01*
X29106D01*
X30772D02*
X30105D01*
Y27095D01*
X30772D01*
X30105Y27595D02*
X30439D01*
X32105D02*
X32771D01*
X32438Y27928D02*
Y27262D01*
X33104Y27928D02*
X33271Y28095D01*
X33604D01*
X33771Y27928D01*
Y27761D01*
X33604Y27595D01*
X33438D01*
X33604D01*
X33771Y27428D01*
Y27262D01*
X33604Y27095D01*
X33271D01*
X33104Y27262D01*
X34104Y27595D02*
X34770D01*
X35104Y27928D02*
X35270Y28095D01*
X35604D01*
X35770Y27928D01*
Y27262D01*
X35604Y27095D01*
X35270D01*
X35104Y27262D01*
Y27928D01*
X37103Y27095D02*
Y28095D01*
X37436Y27761D01*
X37769Y28095D01*
Y27095D01*
X38103Y28095D02*
X38436D01*
X38269D01*
Y27095D01*
X38103D01*
X38436D01*
X38936Y28095D02*
Y27095D01*
X39602D01*
X40602Y27928D02*
X40435Y28095D01*
X40102D01*
X39935Y27928D01*
Y27761D01*
X40102Y27595D01*
X40435D01*
X40602Y27428D01*
Y27262D01*
X40435Y27095D01*
X40102D01*
X39935Y27262D01*
X41935Y28095D02*
X42601D01*
X42268D01*
Y27095D01*
X43434Y28095D02*
X43101D01*
X42934Y27928D01*
Y27262D01*
X43101Y27095D01*
X43434D01*
X43601Y27262D01*
Y27928D01*
X43434Y28095D01*
X43934D02*
Y27095D01*
X44601D01*
X44934D02*
Y27262D01*
X45100D01*
Y27095D01*
X44934D01*
D42*
X15169Y-15772D02*
G03*
X14669Y-15272I-500J0D01*
G01*
X14681Y-17272D02*
G03*
X15169Y-16775I8J480D01*
G01*
X16169Y-15272D02*
G03*
X15669Y-15772I0J-500D01*
G01*
Y-16772D02*
G03*
X16160Y-17272I500J0D01*
G01*
X33419Y-15772D02*
G03*
X32919Y-15272I-500J0D01*
G01*
X32931Y-17272D02*
G03*
X33419Y-16775I8J480D01*
G01*
X33919Y-16782D02*
G03*
X34418Y-17272I490J0D01*
G01*
X34419Y-15272D02*
G03*
X33919Y-15772I0J-500D01*
G01*
X5919Y-8262D02*
G03*
X5429Y-7772I-490J0D01*
G01*
X5439Y-11022D02*
G03*
X5919Y-10542I0J480D01*
G01*
Y-12012D02*
G03*
X5412Y-11522I-490J0D01*
G01*
X6419Y-11532D02*
G03*
X6909Y-12022I490J0D01*
G01*
X6419Y-14282D02*
G03*
X6909Y-14772I490J0D01*
G01*
X5429D02*
G03*
X5919Y-14282I0J490D01*
G01*
X23419Y-13012D02*
G03*
X22929Y-12522I-490J0D01*
G01*
Y-14772D02*
G03*
X23419Y-14273I0J490D01*
G01*
X23919Y-14262D02*
G03*
X24420Y-14772I510J0D01*
G01*
X24399Y-12522D02*
G03*
X23920Y-13027I0J-480D01*
G01*
X6919Y-12522D02*
G03*
X6419Y-13022I0J-500D01*
G01*
X6919Y-7772D02*
G03*
X6419Y-8272I0J-500D01*
G01*
X-2581Y-14272D02*
G03*
X-2090Y-14772I500J0D01*
G01*
X-2081Y-11522D02*
G03*
X-2581Y-12022I0J-500D01*
G01*
Y-10522D02*
G03*
X-2081Y-11022I500J0D01*
G01*
Y-7772D02*
G03*
X-2581Y-8272I0J-500D01*
G01*
Y-6772D02*
G03*
X-2081Y-7272I500J0D01*
G01*
Y-5272D02*
G03*
X-2581Y-5772I0J-500D01*
G01*
X27919D02*
G03*
X27419Y-5272I-500J0D01*
G01*
X28919D02*
G03*
X28419Y-5772I0J-500D01*
G01*
X27419Y-7272D02*
G03*
X27919Y-6772I0J500D01*
G01*
Y-8272D02*
G03*
X27419Y-7772I-500J0D01*
G01*
X-2081Y-15272D02*
G03*
X-2581Y-15772I0J-500D01*
G01*
X27428Y-12022D02*
G03*
X27919Y-11522I-9J500D01*
G01*
X-2581Y-16772D02*
G03*
X-2090Y-17272I500J0D01*
G01*
X27919Y-13012D02*
G03*
X27429Y-12522I-490J0D01*
G01*
X28419Y-14282D02*
G03*
X28918Y-14772I490J0D01*
G01*
X27419Y-14772D02*
G03*
X27919Y-14272I0J500D01*
G01*
X39919Y-17272D02*
G03*
X40419Y-16772I0J500D01*
G01*
X40419Y-15763D02*
G03*
X39919Y-15272I-500J-9D01*
G01*
Y-14772D02*
G03*
X40419Y-14272I0J500D01*
G01*
Y-5762D02*
G03*
X39912Y-5272I-490J0D01*
G01*
X40919Y-5772D02*
G03*
X39919Y-4772I-1000J0D01*
G01*
Y-17772D02*
G03*
X40919Y-16772I0J1000D01*
G01*
X-3081Y-16762D02*
G03*
X-2088Y-17772I1010J0D01*
G01*
X-2081Y-4772D02*
G03*
X-3081Y-5772I0J-1000D01*
G01*
X28419Y-11522D02*
G03*
X28919Y-12022I500J0D01*
G01*
X39919D02*
G03*
X40419Y-11522I0J500D01*
G01*
X28919Y-12522D02*
G03*
X28419Y-13022I0J-500D01*
G01*
X40419Y-13012D02*
G03*
X39929Y-12522I-490J0D01*
G01*
X16169Y-17272D02*
X32919D01*
X-2081D02*
X14669D01*
X-2081Y-15272D02*
X14669D01*
X16169D02*
X32919D01*
X34419Y-17272D02*
X39919D01*
X34419Y-15272D02*
X39919D01*
X-2081Y-5272D02*
X27419D01*
X-2081Y-17772D02*
X39919D01*
X-2081Y-4772D02*
X39919D01*
X-2081Y-14772D02*
X5419D01*
X-2081Y-11522D02*
X5419D01*
X-2081Y-11022D02*
X5419D01*
X-2081Y-7772D02*
X5419D01*
X-2081Y-7272D02*
X27419D01*
X6919Y-7772D02*
X27419D01*
X6919Y-12522D02*
X22919D01*
X6919Y-14772D02*
X22919D01*
X24419D02*
X27419D01*
X24419Y-12522D02*
X27419D01*
X28919Y-14772D02*
X39919D01*
X28919Y-5272D02*
X39919D01*
X6919Y-12022D02*
X27419D01*
X28919D02*
X39919D01*
X28919Y-12522D02*
X39919D01*
X15169Y-16772D02*
Y-15772D01*
X15669Y-16772D02*
Y-15772D01*
X33419Y-16772D02*
Y-15772D01*
X33919Y-16772D02*
Y-15772D01*
X40919Y-16772D02*
Y-5772D01*
X-2581Y-14272D02*
Y-12022D01*
X5919Y-14272D02*
Y-12022D01*
X-2581Y-10522D02*
Y-8272D01*
X5919Y-10522D02*
Y-8272D01*
X-2581Y-6772D02*
Y-5772D01*
X27919Y-6772D02*
Y-5772D01*
Y-11522D02*
Y-8272D01*
X6419Y-11522D02*
Y-8272D01*
X23419Y-14272D02*
Y-13022D01*
X6419Y-14272D02*
Y-13022D01*
X23919Y-14272D02*
Y-13022D01*
X27919Y-14272D02*
Y-13022D01*
X40419Y-16772D02*
Y-15772D01*
X-2581Y-16772D02*
Y-15772D01*
X-3081Y-16772D02*
Y-5772D01*
X28419Y-11522D02*
Y-5772D01*
X40419Y-11522D02*
Y-5772D01*
X28419Y-14272D02*
Y-13022D01*
X40419Y-14272D02*
Y-13012D01*
X30435Y-9479D02*
Y-10119D01*
X30755D01*
X30862Y-10012D01*
Y-9906D01*
X30755Y-9799D01*
X30435D01*
X30755D01*
X30862Y-9692D01*
Y-9586D01*
X30755Y-9479D01*
X30435D01*
X31182Y-10119D02*
X31395D01*
X31502Y-10012D01*
Y-9799D01*
X31395Y-9692D01*
X31182D01*
X31075Y-9799D01*
Y-10012D01*
X31182Y-10119D01*
X32141Y-9692D02*
X31821D01*
X31715Y-9799D01*
Y-10012D01*
X31821Y-10119D01*
X32141D01*
X32461Y-9692D02*
X32675D01*
X32781Y-9799D01*
Y-10119D01*
X32461D01*
X32355Y-10012D01*
X32461Y-9906D01*
X32781D01*
X33634Y-10119D02*
Y-9479D01*
X33954D01*
X34061Y-9586D01*
Y-9799D01*
X33954Y-9906D01*
X33634D01*
X33847D02*
X34061Y-10119D01*
X34381Y-9692D02*
X34594D01*
X34701Y-9799D01*
Y-10119D01*
X34381D01*
X34274Y-10012D01*
X34381Y-9906D01*
X34701D01*
X35020Y-9586D02*
Y-9692D01*
X34914D01*
X35127D01*
X35020D01*
Y-10012D01*
X35127Y-10119D01*
X35554D02*
X35767D01*
X35873Y-10012D01*
Y-9799D01*
X35767Y-9692D01*
X35554D01*
X35447Y-9799D01*
Y-10012D01*
X35554Y-10119D01*
X36087D02*
Y-9692D01*
X36407D01*
X36513Y-9799D01*
Y-10119D01*
X37793Y-9479D02*
X37366D01*
Y-9799D01*
X37580D01*
X37366D01*
Y-10119D01*
X38006Y-9479D02*
Y-10119D01*
X38433D01*
X38646D02*
Y-10012D01*
X38753D01*
Y-10119D01*
X38646D01*
X28835Y-8012D02*
X28942Y-8119D01*
X29155D01*
X29262Y-8012D01*
Y-7586D01*
X29155Y-7479D01*
X28942D01*
X28835Y-7586D01*
Y-7692D01*
X28942Y-7799D01*
X29262D01*
X29475Y-7586D02*
X29582Y-7479D01*
X29795D01*
X29902Y-7586D01*
Y-8012D01*
X29795Y-8119D01*
X29582D01*
X29475Y-8012D01*
Y-7586D01*
X30541Y-8119D02*
X30115D01*
X30541Y-7692D01*
Y-7586D01*
X30435Y-7479D01*
X30221D01*
X30115Y-7586D01*
X31821D02*
X31714Y-7479D01*
X31501D01*
X31394Y-7586D01*
Y-8012D01*
X31501Y-8119D01*
X31714D01*
X31821Y-8012D01*
X32034Y-8119D02*
X32247D01*
X32141D01*
Y-7479D01*
X32034D01*
X32567Y-8119D02*
X32781D01*
X32674D01*
Y-7692D01*
X32567D01*
X33101Y-8119D02*
Y-7692D01*
X33420D01*
X33527Y-7799D01*
Y-8119D01*
X33847Y-7586D02*
Y-7692D01*
X33740D01*
X33954D01*
X33847D01*
Y-8012D01*
X33954Y-8119D01*
X34913D02*
Y-7479D01*
X35127Y-7692D01*
X35340Y-7479D01*
Y-8119D01*
X35660D02*
X35873D01*
X35980Y-8012D01*
Y-7799D01*
X35873Y-7692D01*
X35660D01*
X35553Y-7799D01*
Y-8012D01*
X35660Y-8119D01*
X36299D02*
X36513D01*
X36619Y-8012D01*
Y-7799D01*
X36513Y-7692D01*
X36299D01*
X36193Y-7799D01*
Y-8012D01*
X36299Y-8119D01*
X36833Y-7692D02*
Y-8119D01*
Y-7906D01*
X36939Y-7799D01*
X37046Y-7692D01*
X37153D01*
X37792Y-8119D02*
X37579D01*
X37472Y-8012D01*
Y-7799D01*
X37579Y-7692D01*
X37792D01*
X37899Y-7799D01*
Y-7906D01*
X37472D01*
X38752Y-8119D02*
Y-7479D01*
X39072D01*
X39179Y-7586D01*
Y-7799D01*
X39072Y-7906D01*
X38752D01*
X38965D02*
X39179Y-8119D01*
X39818Y-7479D02*
Y-8119D01*
X39498D01*
X39392Y-8012D01*
Y-7799D01*
X39498Y-7692D01*
X39818D01*
X40032Y-8119D02*
Y-8012D01*
X40138D01*
Y-8119D01*
X40032D01*
X31412Y-10679D02*
X30985D01*
Y-10999D01*
X31198Y-10892D01*
X31305D01*
X31412Y-10999D01*
Y-11212D01*
X31305Y-11319D01*
X31092D01*
X30985Y-11212D01*
X32052Y-10679D02*
X31838Y-10786D01*
X31625Y-10999D01*
Y-11212D01*
X31732Y-11319D01*
X31945D01*
X32052Y-11212D01*
Y-11106D01*
X31945Y-10999D01*
X31625D01*
X32265Y-11319D02*
X32478D01*
X32371D01*
Y-10679D01*
X32265Y-10786D01*
X32798Y-10999D02*
X33224D01*
X33438Y-11212D02*
X33544Y-11319D01*
X33758D01*
X33864Y-11212D01*
Y-10786D01*
X33758Y-10679D01*
X33544D01*
X33438Y-10786D01*
Y-10892D01*
X33544Y-10999D01*
X33864D01*
X34078Y-11212D02*
X34184Y-11319D01*
X34397D01*
X34504Y-11212D01*
Y-10786D01*
X34397Y-10679D01*
X34184D01*
X34078Y-10786D01*
Y-10892D01*
X34184Y-10999D01*
X34504D01*
X34717Y-11212D02*
X34824Y-11319D01*
X35037D01*
X35144Y-11212D01*
Y-10786D01*
X35037Y-10679D01*
X34824D01*
X34717Y-10786D01*
Y-10892D01*
X34824Y-10999D01*
X35144D01*
X35357D02*
X35784D01*
X35997Y-11212D02*
X36104Y-11319D01*
X36317D01*
X36423Y-11212D01*
Y-10786D01*
X36317Y-10679D01*
X36104D01*
X35997Y-10786D01*
Y-10892D01*
X36104Y-10999D01*
X36423D01*
X36957Y-11319D02*
Y-10679D01*
X36637Y-10999D01*
X37063D01*
X37703Y-11319D02*
X37277D01*
X37703Y-10892D01*
Y-10786D01*
X37596Y-10679D01*
X37383D01*
X37277Y-10786D01*
X38343Y-11319D02*
X37916D01*
X38343Y-10892D01*
Y-10786D01*
X38236Y-10679D01*
X38023D01*
X37916Y-10786D01*
X32212Y-8636D02*
X32105Y-8529D01*
X31892D01*
X31785Y-8636D01*
Y-8742D01*
X31892Y-8849D01*
X32105D01*
X32212Y-8956D01*
Y-9062D01*
X32105Y-9169D01*
X31892D01*
X31785Y-9062D01*
X32425Y-8742D02*
Y-9062D01*
X32532Y-9169D01*
X32852D01*
Y-8742D01*
X33065Y-9169D02*
X33278D01*
X33171D01*
Y-8742D01*
X33065D01*
X33705Y-8636D02*
Y-8742D01*
X33598D01*
X33811D01*
X33705D01*
Y-9062D01*
X33811Y-9169D01*
X34451D02*
X34238D01*
X34131Y-9062D01*
Y-8849D01*
X34238Y-8742D01*
X34451D01*
X34558Y-8849D01*
Y-8956D01*
X34131D01*
X35411Y-9169D02*
X35624D01*
X35517D01*
Y-8529D01*
X35411Y-8636D01*
X35944Y-9169D02*
X36157D01*
X36051D01*
Y-8529D01*
X35944Y-8636D01*
X36477D02*
X36584Y-8529D01*
X36797D01*
X36904Y-8636D01*
Y-8742D01*
X36797Y-8849D01*
X36904Y-8956D01*
Y-9062D01*
X36797Y-9169D01*
X36584D01*
X36477Y-9062D01*
Y-8956D01*
X36584Y-8849D01*
X36477Y-8742D01*
Y-8636D01*
X36584Y-8849D02*
X36797D01*
X40410Y25190D02*
X41030D01*
X40720Y25390D02*
Y26030D01*
X40410Y25710D02*
X41030D01*
D44*
X-3094Y50635D02*
X2006D01*
D51*
X1749Y-12151D02*
X1800Y-12125D01*
X1876Y-12049D01*
Y-12582D01*
X2292Y-12049D02*
X2216Y-12075D01*
X2165Y-12151D01*
X2140Y-12278D01*
Y-12354D01*
X2165Y-12481D01*
X2216Y-12557D01*
X2292Y-12582D01*
X2343D01*
X2419Y-12557D01*
X2470Y-12481D01*
X2495Y-12354D01*
Y-12278D01*
X2470Y-12151D01*
X2419Y-12075D01*
X2343Y-12049D01*
X2292D01*
X2742D02*
X2665Y-12075D01*
X2640Y-12125D01*
Y-12176D01*
X2665Y-12227D01*
X2716Y-12252D01*
X2818Y-12278D01*
X2894Y-12303D01*
X2945Y-12354D01*
X2970Y-12405D01*
Y-12481D01*
X2945Y-12532D01*
X2919Y-12557D01*
X2843Y-12582D01*
X2742D01*
X2665Y-12557D01*
X2640Y-12532D01*
X2615Y-12481D01*
Y-12405D01*
X2640Y-12354D01*
X2691Y-12303D01*
X2767Y-12278D01*
X2869Y-12252D01*
X2919Y-12227D01*
X2945Y-12176D01*
Y-12125D01*
X2919Y-12075D01*
X2843Y-12049D01*
X2742D01*
X3090D02*
Y-12582D01*
X3445Y-12049D02*
X3090Y-12405D01*
X3216Y-12278D02*
X3445Y-12582D01*
X3564Y-12049D02*
Y-12582D01*
X3920Y-12049D02*
X3564Y-12405D01*
X3691Y-12278D02*
X3920Y-12582D01*
D52*
X14920Y-9390D02*
Y-10350D01*
X14600Y-9390D02*
X15240D01*
X15903Y-9710D02*
Y-10350D01*
Y-9847D02*
X15811Y-9756D01*
X15720Y-9710D01*
X15583D01*
X15491Y-9756D01*
X15400Y-9847D01*
X15354Y-9984D01*
Y-10076D01*
X15400Y-10213D01*
X15491Y-10304D01*
X15583Y-10350D01*
X15720D01*
X15811Y-10304D01*
X15903Y-10213D01*
X16707Y-9710D02*
Y-10441D01*
X16661Y-10579D01*
X16616Y-10624D01*
X16524Y-10670D01*
X16387D01*
X16296Y-10624D01*
X16707Y-9847D02*
X16616Y-9756D01*
X16524Y-9710D01*
X16387D01*
X16296Y-9756D01*
X16204Y-9847D01*
X16159Y-9984D01*
Y-10076D01*
X16204Y-10213D01*
X16296Y-10304D01*
X16387Y-10350D01*
X16524D01*
X16616Y-10304D01*
X16707Y-10213D01*
X16963Y-9573D02*
X17054Y-9527D01*
X17191Y-9390D01*
Y-10350D01*
X17941Y-9390D02*
X17804Y-9436D01*
X17712Y-9573D01*
X17667Y-9802D01*
Y-9939D01*
X17712Y-10167D01*
X17804Y-10304D01*
X17941Y-10350D01*
X18032D01*
X18170Y-10304D01*
X18261Y-10167D01*
X18307Y-9939D01*
Y-9802D01*
X18261Y-9573D01*
X18170Y-9436D01*
X18032Y-9390D01*
X17941D01*
X19070D02*
X18613D01*
X18567Y-9802D01*
X18613Y-9756D01*
X18750Y-9710D01*
X18887D01*
X19024Y-9756D01*
X19116Y-9847D01*
X19161Y-9984D01*
Y-10076D01*
X19116Y-10213D01*
X19024Y-10304D01*
X18887Y-10350D01*
X18750D01*
X18613Y-10304D01*
X18567Y-10259D01*
X18521Y-10167D01*
X8950Y-6722D02*
X8585Y-5762D01*
X8219Y-6722D01*
X8356Y-6402D02*
X8813D01*
X9723Y-6219D02*
X9631Y-6128D01*
X9540Y-6082D01*
X9403D01*
X9312Y-6128D01*
X9220Y-6219D01*
X9174Y-6356D01*
Y-6448D01*
X9220Y-6585D01*
X9312Y-6676D01*
X9403Y-6722D01*
X9540D01*
X9631Y-6676D01*
X9723Y-6585D01*
X10066Y-5762D02*
Y-6539D01*
X10111Y-6676D01*
X10203Y-6722D01*
X10294D01*
X9929Y-6082D02*
X10248D01*
X10523Y-5762D02*
X10568Y-5808D01*
X10614Y-5762D01*
X10568Y-5716D01*
X10523Y-5762D01*
X10568Y-6082D02*
Y-6722D01*
X10783Y-6082D02*
X11057Y-6722D01*
X11332Y-6082D02*
X11057Y-6722D01*
X11487Y-6356D02*
X12036D01*
Y-6265D01*
X11990Y-6173D01*
X11944Y-6128D01*
X11853Y-6082D01*
X11716D01*
X11624Y-6128D01*
X11533Y-6219D01*
X11487Y-6356D01*
Y-6448D01*
X11533Y-6585D01*
X11624Y-6676D01*
X11716Y-6722D01*
X11853D01*
X11944Y-6676D01*
X12036Y-6585D01*
X12995Y-5762D02*
X13224Y-6722D01*
X13452Y-5762D02*
X13224Y-6722D01*
X13452Y-5762D02*
X13681Y-6722D01*
X13909Y-5762D02*
X13681Y-6722D01*
X14650Y-6082D02*
Y-6722D01*
Y-6219D02*
X14558Y-6128D01*
X14467Y-6082D01*
X14330D01*
X14238Y-6128D01*
X14147Y-6219D01*
X14101Y-6356D01*
Y-6448D01*
X14147Y-6585D01*
X14238Y-6676D01*
X14330Y-6722D01*
X14467D01*
X14558Y-6676D01*
X14650Y-6585D01*
X14906Y-6082D02*
X15180Y-6722D01*
X15454Y-6082D02*
X15180Y-6722D01*
X15610Y-6356D02*
X16158D01*
Y-6265D01*
X16112Y-6173D01*
X16067Y-6128D01*
X15975Y-6082D01*
X15838D01*
X15747Y-6128D01*
X15655Y-6219D01*
X15610Y-6356D01*
Y-6448D01*
X15655Y-6585D01*
X15747Y-6676D01*
X15838Y-6722D01*
X15975D01*
X16067Y-6676D01*
X16158Y-6585D01*
X26044Y-13715D02*
X26095Y-13690D01*
X26171Y-13614D01*
Y-14147D01*
X26740Y-13614D02*
X26486D01*
X26461Y-13842D01*
X26486Y-13817D01*
X26562Y-13791D01*
X26638D01*
X26715Y-13817D01*
X26765Y-13867D01*
X26791Y-13944D01*
Y-13994D01*
X26765Y-14071D01*
X26715Y-14121D01*
X26638Y-14147D01*
X26562D01*
X26486Y-14121D01*
X26461Y-14096D01*
X26435Y-14045D01*
X33067Y-13495D02*
X33118Y-13469D01*
X33194Y-13393D01*
Y-13926D01*
X33458Y-14003D02*
X33813Y-13393D01*
X33900D02*
X34179D01*
X34027Y-13596D01*
X34103D01*
X34154Y-13622D01*
X34179Y-13647D01*
X34204Y-13723D01*
Y-13774D01*
X34179Y-13850D01*
X34128Y-13901D01*
X34052Y-13926D01*
X33976D01*
X33900Y-13901D01*
X33874Y-13876D01*
X33849Y-13825D01*
X34324Y-13495D02*
X34375Y-13469D01*
X34451Y-13393D01*
Y-13926D01*
X34715Y-14003D02*
X35070Y-13393D01*
X35258D02*
X35182Y-13419D01*
X35131Y-13495D01*
X35106Y-13622D01*
Y-13698D01*
X35131Y-13825D01*
X35182Y-13901D01*
X35258Y-13926D01*
X35309D01*
X35385Y-13901D01*
X35436Y-13825D01*
X35461Y-13698D01*
Y-13622D01*
X35436Y-13495D01*
X35385Y-13419D01*
X35309Y-13393D01*
X35258D01*
X35708D02*
X35631Y-13419D01*
X35606Y-13469D01*
Y-13520D01*
X35631Y-13571D01*
X35682Y-13596D01*
X35784Y-13622D01*
X35860Y-13647D01*
X35911Y-13698D01*
X35936Y-13749D01*
Y-13825D01*
X35911Y-13876D01*
X35885Y-13901D01*
X35809Y-13926D01*
X35708D01*
X35631Y-13901D01*
X35606Y-13876D01*
X35581Y-13825D01*
Y-13749D01*
X35606Y-13698D01*
X35657Y-13647D01*
X35733Y-13622D01*
X35835Y-13596D01*
X35885Y-13571D01*
X35911Y-13520D01*
Y-13469D01*
X35885Y-13419D01*
X35809Y-13393D01*
X35708D01*
D53*
X34900Y-15766D02*
X34875Y-15715D01*
X34824Y-15664D01*
X34773Y-15639D01*
X34672D01*
X34621Y-15664D01*
X34570Y-15715D01*
X34545Y-15766D01*
X34519Y-15842D01*
Y-15969D01*
X34545Y-16045D01*
X34570Y-16096D01*
X34621Y-16146D01*
X34672Y-16172D01*
X34773D01*
X34824Y-16146D01*
X34875Y-16096D01*
X34900Y-16045D01*
Y-15969D01*
X34773D02*
X34900D01*
X35352Y-15639D02*
X35022D01*
Y-16172D01*
X35352D01*
X35022Y-15892D02*
X35225D01*
X35441Y-15639D02*
Y-16172D01*
Y-15639D02*
X35669D01*
X35746Y-15664D01*
X35771Y-15689D01*
X35796Y-15740D01*
Y-15791D01*
X35771Y-15842D01*
X35746Y-15867D01*
X35669Y-15892D01*
X35441D01*
X35619D02*
X35796Y-16172D01*
X35916Y-15639D02*
Y-16172D01*
Y-15639D02*
X36144D01*
X36220Y-15664D01*
X36246Y-15689D01*
X36271Y-15740D01*
Y-15791D01*
X36246Y-15842D01*
X36220Y-15867D01*
X36144Y-15892D01*
X35916D02*
X36144D01*
X36220Y-15918D01*
X36246Y-15943D01*
X36271Y-15994D01*
Y-16070D01*
X36246Y-16121D01*
X36220Y-16146D01*
X36144Y-16172D01*
X35916D01*
X36721Y-15639D02*
X36391D01*
Y-16172D01*
X36721D01*
X36391Y-15892D02*
X36594D01*
X36810Y-15639D02*
Y-16172D01*
Y-15639D02*
X37038D01*
X37114Y-15664D01*
X37140Y-15689D01*
X37165Y-15740D01*
Y-15791D01*
X37140Y-15842D01*
X37114Y-15867D01*
X37038Y-15892D01*
X36810D01*
X36987D02*
X37165Y-16172D01*
X37310Y-15816D02*
X37284Y-15842D01*
X37310Y-15867D01*
X37335Y-15842D01*
X37310Y-15816D01*
Y-16121D02*
X37284Y-16146D01*
X37310Y-16172D01*
X37335Y-16146D01*
X37310Y-16121D01*
X-2081Y-15639D02*
Y-16172D01*
Y-15639D02*
X-1751D01*
X-2081Y-15892D02*
X-1878D01*
X-1690Y-15639D02*
Y-16172D01*
X-1578Y-15639D02*
Y-16172D01*
X-1273D01*
X-885Y-15639D02*
X-1215D01*
Y-16172D01*
X-885D01*
X-1215Y-15892D02*
X-1012D01*
X-377Y-15639D02*
Y-16172D01*
Y-15639D02*
X-22Y-16172D01*
Y-15639D02*
Y-16172D01*
X532D02*
X329Y-15639D01*
X126Y-16172D01*
X202Y-15994D02*
X456D01*
X656Y-15639D02*
Y-16172D01*
Y-15639D02*
X860Y-16172D01*
X1063Y-15639D02*
X860Y-16172D01*
X1063Y-15639D02*
Y-16172D01*
X1545Y-15639D02*
X1215D01*
Y-16172D01*
X1545D01*
X1215Y-15892D02*
X1418D01*
X1659Y-15816D02*
X1634Y-15842D01*
X1659Y-15867D01*
X1685Y-15842D01*
X1659Y-15816D01*
Y-16121D02*
X1634Y-16146D01*
X1659Y-16172D01*
X1685Y-16146D01*
X1659Y-16121D01*
X-2081Y-12039D02*
Y-12572D01*
Y-12039D02*
X-1903D01*
X-1827Y-12064D01*
X-1776Y-12115D01*
X-1751Y-12166D01*
X-1725Y-12242D01*
Y-12369D01*
X-1751Y-12445D01*
X-1776Y-12496D01*
X-1827Y-12546D01*
X-1903Y-12572D01*
X-2081D01*
X-1606Y-12216D02*
Y-12572D01*
Y-12369D02*
X-1581Y-12292D01*
X-1530Y-12242D01*
X-1479Y-12216D01*
X-1403D01*
X-1050D02*
Y-12572D01*
Y-12292D02*
X-1101Y-12242D01*
X-1151Y-12216D01*
X-1228D01*
X-1278Y-12242D01*
X-1329Y-12292D01*
X-1355Y-12369D01*
Y-12419D01*
X-1329Y-12496D01*
X-1278Y-12546D01*
X-1228Y-12572D01*
X-1151D01*
X-1101Y-12546D01*
X-1050Y-12496D01*
X-908Y-12216D02*
X-806Y-12572D01*
X-705Y-12216D02*
X-806Y-12572D01*
X-705Y-12216D02*
X-603Y-12572D01*
X-501Y-12216D02*
X-603Y-12572D01*
X-377Y-12216D02*
Y-12572D01*
Y-12318D02*
X-301Y-12242D01*
X-250Y-12216D01*
X-174D01*
X-123Y-12242D01*
X-98Y-12318D01*
Y-12572D01*
X461Y-12039D02*
Y-12572D01*
Y-12292D02*
X512Y-12242D01*
X562Y-12216D01*
X639D01*
X689Y-12242D01*
X740Y-12292D01*
X766Y-12369D01*
Y-12419D01*
X740Y-12496D01*
X689Y-12546D01*
X639Y-12572D01*
X562D01*
X512Y-12546D01*
X461Y-12496D01*
X905Y-12216D02*
X1058Y-12572D01*
X1210Y-12216D02*
X1058Y-12572D01*
X1007Y-12673D01*
X956Y-12724D01*
X905Y-12750D01*
X880D01*
X1324Y-12216D02*
X1299Y-12242D01*
X1324Y-12267D01*
X1350Y-12242D01*
X1324Y-12216D01*
Y-12521D02*
X1299Y-12546D01*
X1324Y-12572D01*
X1350Y-12546D01*
X1324Y-12521D01*
X6972Y-8114D02*
Y-8647D01*
X6794Y-8114D02*
X7150D01*
X7213D02*
Y-8647D01*
X7503Y-8114D02*
Y-8647D01*
X7325Y-8114D02*
X7680D01*
X7744D02*
Y-8647D01*
X8049D01*
X8437Y-8114D02*
X8107D01*
Y-8647D01*
X8437D01*
X8107Y-8367D02*
X8310D01*
X8551Y-8291D02*
X8526Y-8317D01*
X8551Y-8342D01*
X8577Y-8317D01*
X8551Y-8291D01*
Y-8596D02*
X8526Y-8621D01*
X8551Y-8647D01*
X8577Y-8621D01*
X8551Y-8596D01*
X6919Y-13143D02*
X7148D01*
X7224Y-13117D01*
X7249Y-13092D01*
X7275Y-13041D01*
Y-12965D01*
X7249Y-12914D01*
X7224Y-12889D01*
X7148Y-12864D01*
X6919D01*
Y-13397D01*
X7800D02*
X7597Y-12864D01*
X7394Y-13397D01*
X7470Y-13219D02*
X7724D01*
X7925Y-12864D02*
Y-13397D01*
Y-12864D02*
X8153D01*
X8229Y-12889D01*
X8255Y-12914D01*
X8280Y-12965D01*
Y-13016D01*
X8255Y-13067D01*
X8229Y-13092D01*
X8153Y-13117D01*
X7925D01*
X8102D02*
X8280Y-13397D01*
X8577Y-12864D02*
Y-13397D01*
X8400Y-12864D02*
X8755D01*
X9237D02*
Y-13397D01*
Y-12864D02*
X9593Y-13397D01*
Y-12864D02*
Y-13397D01*
X9893Y-12864D02*
X9842Y-12889D01*
X9791Y-12940D01*
X9766Y-12991D01*
X9740Y-13067D01*
Y-13194D01*
X9766Y-13270D01*
X9791Y-13321D01*
X9842Y-13371D01*
X9893Y-13397D01*
X9994D01*
X10045Y-13371D01*
X10096Y-13321D01*
X10121Y-13270D01*
X10146Y-13194D01*
Y-13067D01*
X10121Y-12991D01*
X10096Y-12940D01*
X10045Y-12889D01*
X9994Y-12864D01*
X9893D01*
X10296Y-13346D02*
X10271Y-13371D01*
X10296Y-13397D01*
X10322Y-13371D01*
X10296Y-13346D01*
X10464Y-13041D02*
X10438Y-13067D01*
X10464Y-13092D01*
X10489Y-13067D01*
X10464Y-13041D01*
Y-13346D02*
X10438Y-13371D01*
X10464Y-13397D01*
X10489Y-13371D01*
X10464Y-13346D01*
X-1751Y-8239D02*
X-2081D01*
Y-8772D01*
X-1751D01*
X-2081Y-8492D02*
X-1878D01*
X-1662Y-8239D02*
Y-8772D01*
Y-8239D02*
X-1306Y-8772D01*
Y-8239D02*
Y-8772D01*
X-778Y-8366D02*
X-804Y-8315D01*
X-854Y-8264D01*
X-905Y-8239D01*
X-1007D01*
X-1058Y-8264D01*
X-1108Y-8315D01*
X-1134Y-8366D01*
X-1159Y-8442D01*
Y-8569D01*
X-1134Y-8645D01*
X-1108Y-8696D01*
X-1058Y-8746D01*
X-1007Y-8772D01*
X-905D01*
X-854Y-8746D01*
X-804Y-8696D01*
X-778Y-8645D01*
Y-8569D01*
X-905D02*
X-778D01*
X-656Y-8239D02*
Y-8772D01*
X-545Y-8239D02*
Y-8772D01*
Y-8239D02*
X-189Y-8772D01*
Y-8239D02*
Y-8772D01*
X288Y-8239D02*
X-42D01*
Y-8772D01*
X288D01*
X-42Y-8492D02*
X161D01*
X707Y-8239D02*
X377D01*
Y-8772D01*
X707D01*
X377Y-8492D02*
X580D01*
X796Y-8239D02*
Y-8772D01*
Y-8239D02*
X1025D01*
X1101Y-8264D01*
X1126Y-8289D01*
X1152Y-8340D01*
Y-8391D01*
X1126Y-8442D01*
X1101Y-8467D01*
X1025Y-8492D01*
X796D01*
X974D02*
X1152Y-8772D01*
X1296Y-8416D02*
X1271Y-8442D01*
X1296Y-8467D01*
X1322Y-8442D01*
X1296Y-8416D01*
Y-8721D02*
X1271Y-8746D01*
X1296Y-8772D01*
X1322Y-8746D01*
X1296Y-8721D01*
X16319Y-15639D02*
Y-16172D01*
X16624D01*
X17089D02*
X16885Y-15639D01*
X16682Y-16172D01*
X16758Y-15994D02*
X17012D01*
X17213Y-15639D02*
X17416Y-15892D01*
Y-16172D01*
X17619Y-15639D02*
X17416Y-15892D01*
X18018Y-15639D02*
X17688D01*
Y-16172D01*
X18018D01*
X17688Y-15892D02*
X17891D01*
X18107Y-15639D02*
Y-16172D01*
Y-15639D02*
X18335D01*
X18411Y-15664D01*
X18437Y-15689D01*
X18462Y-15740D01*
Y-15791D01*
X18437Y-15842D01*
X18411Y-15867D01*
X18335Y-15892D01*
X18107D01*
X18284D02*
X18462Y-16172D01*
X18607Y-15816D02*
X18582Y-15842D01*
X18607Y-15867D01*
X18632Y-15842D01*
X18607Y-15816D01*
Y-16121D02*
X18582Y-16146D01*
X18607Y-16172D01*
X18632Y-16146D01*
X18607Y-16121D01*
X-2081Y-14143D02*
X-1852D01*
X-1776Y-14117D01*
X-1751Y-14092D01*
X-1725Y-14041D01*
Y-13965D01*
X-1751Y-13914D01*
X-1776Y-13889D01*
X-1852Y-13864D01*
X-2081D01*
Y-14397D01*
X-1606Y-13864D02*
Y-14397D01*
X-1250Y-13864D02*
Y-14397D01*
X-1606Y-14117D02*
X-1250D01*
X-951Y-13864D02*
X-1002Y-13889D01*
X-1052Y-13940D01*
X-1078Y-13991D01*
X-1103Y-14067D01*
Y-14194D01*
X-1078Y-14270D01*
X-1052Y-14321D01*
X-1002Y-14371D01*
X-951Y-14397D01*
X-849D01*
X-799Y-14371D01*
X-748Y-14321D01*
X-722Y-14270D01*
X-697Y-14194D01*
Y-14067D01*
X-722Y-13991D01*
X-748Y-13940D01*
X-799Y-13889D01*
X-849Y-13864D01*
X-951D01*
X-573D02*
Y-14397D01*
Y-13864D02*
X-217Y-14397D01*
Y-13864D02*
Y-14397D01*
X260Y-13864D02*
X-70D01*
Y-14397D01*
X260D01*
X-70Y-14117D02*
X133D01*
X375Y-14041D02*
X349Y-14067D01*
X375Y-14092D01*
X400Y-14067D01*
X375Y-14041D01*
Y-14346D02*
X349Y-14371D01*
X375Y-14397D01*
X400Y-14371D01*
X375Y-14346D01*
X-2081Y-10393D02*
X-1852D01*
X-1776Y-10367D01*
X-1751Y-10342D01*
X-1725Y-10291D01*
Y-10215D01*
X-1751Y-10164D01*
X-1776Y-10139D01*
X-1852Y-10114D01*
X-2081D01*
Y-10647D01*
X-1606Y-10114D02*
Y-10647D01*
X-1250Y-10114D02*
Y-10647D01*
X-1606Y-10367D02*
X-1250D01*
X-951Y-10114D02*
X-1002Y-10139D01*
X-1052Y-10190D01*
X-1078Y-10241D01*
X-1103Y-10317D01*
Y-10444D01*
X-1078Y-10520D01*
X-1052Y-10571D01*
X-1002Y-10621D01*
X-951Y-10647D01*
X-849D01*
X-799Y-10621D01*
X-748Y-10571D01*
X-722Y-10520D01*
X-697Y-10444D01*
Y-10317D01*
X-722Y-10241D01*
X-748Y-10190D01*
X-799Y-10139D01*
X-849Y-10114D01*
X-951D01*
X-573D02*
Y-10647D01*
Y-10114D02*
X-217Y-10647D01*
Y-10114D02*
Y-10647D01*
X260Y-10114D02*
X-70D01*
Y-10647D01*
X260D01*
X-70Y-10367D02*
X133D01*
X375Y-10291D02*
X349Y-10317D01*
X375Y-10342D01*
X400Y-10317D01*
X375Y-10291D01*
Y-10596D02*
X349Y-10621D01*
X375Y-10647D01*
X400Y-10621D01*
X375Y-10596D01*
X24294Y-12864D02*
Y-13397D01*
Y-12864D02*
X24523D01*
X24599Y-12889D01*
X24624Y-12914D01*
X24650Y-12965D01*
Y-13016D01*
X24624Y-13067D01*
X24599Y-13092D01*
X24523Y-13117D01*
X24294D01*
X24472D02*
X24650Y-13397D01*
X25099Y-12864D02*
X24769D01*
Y-13397D01*
X25099D01*
X24769Y-13117D02*
X24972D01*
X25188Y-12864D02*
X25391Y-13397D01*
X25594Y-12864D02*
X25391Y-13397D01*
X25688Y-13041D02*
X25663Y-13067D01*
X25688Y-13092D01*
X25714Y-13067D01*
X25688Y-13041D01*
Y-13346D02*
X25663Y-13371D01*
X25688Y-13397D01*
X25714Y-13371D01*
X25688Y-13346D01*
X28919Y-12864D02*
Y-13397D01*
Y-12864D02*
X29097D01*
X29173Y-12889D01*
X29224Y-12940D01*
X29249Y-12991D01*
X29275Y-13067D01*
Y-13194D01*
X29249Y-13270D01*
X29224Y-13321D01*
X29173Y-13371D01*
X29097Y-13397D01*
X28919D01*
X29800D02*
X29597Y-12864D01*
X29394Y-13397D01*
X29470Y-13219D02*
X29724D01*
X30102Y-12864D02*
Y-13397D01*
X29925Y-12864D02*
X30280D01*
X30674D02*
X30344D01*
Y-13397D01*
X30674D01*
X30344Y-13117D02*
X30547D01*
X30788Y-13041D02*
X30763Y-13067D01*
X30788Y-13092D01*
X30813Y-13067D01*
X30788Y-13041D01*
Y-13346D02*
X30763Y-13371D01*
X30788Y-13397D01*
X30813Y-13371D01*
X30788Y-13346D01*
X10040Y4450D02*
Y4850D01*
X10440D01*
Y4450D01*
X10040D01*
X13750Y12900D02*
X13550Y13300D01*
X13950D01*
X13750Y12900D01*
X24000Y15750D02*
X23800Y16150D01*
X24200D01*
X24000Y15750D01*
X25000D02*
X24800Y16150D01*
X25200D01*
X25000Y15750D01*
X26000D02*
X25800Y16150D01*
X26200D01*
X26000Y15750D01*
X23000D02*
X22800Y16150D01*
X23200D01*
X23000Y15750D01*
X22000D02*
X21800Y16150D01*
X22200D01*
X22000Y15750D01*
X17750Y12900D02*
X17550Y13300D01*
X17950D01*
X17750Y12900D01*
X15750D02*
X15550Y13300D01*
X15950D01*
X15750Y12900D01*
X14750D02*
X14550Y13300D01*
X14950D01*
X14750Y12900D01*
X23225Y6911D02*
X23025Y7311D01*
X23425D01*
X23225Y6911D01*
X2493Y2348D02*
X2593Y2448D01*
X2693D01*
X2593Y2548D01*
X2693Y2648D01*
X2593D01*
X2493Y2748D01*
X2393Y2648D01*
X2293D01*
X2393Y2548D01*
X2293Y2448D01*
X2393D01*
X2493Y2348D01*
X30320Y15130D02*
X30420Y15230D01*
X30520D01*
X30420Y15330D01*
X30520Y15430D01*
X30420D01*
X30320Y15530D01*
X30220Y15430D01*
X30120D01*
X30220Y15330D01*
X30120Y15230D01*
X30220D01*
X30320Y15130D01*
X15201Y8870D02*
X15301Y9070D01*
X15201Y9270D01*
X15401Y9170D01*
X15601Y9270D01*
X15501Y9070D01*
X15601Y8870D01*
X15401Y8970D01*
X15201Y8870D01*
X24775Y6911D02*
X24575Y7311D01*
X24975D01*
X24775Y6911D01*
X16750Y12900D02*
X16550Y13300D01*
X16950D01*
X16750Y12900D01*
X27000Y3900D02*
Y3800D01*
X27200D01*
Y3900D01*
X27300D01*
Y4100D01*
X27200D01*
Y4200D01*
X27000D01*
Y4100D01*
X26900D01*
Y3900D01*
X27000D01*
X1660Y8080D02*
X1760D01*
X1860Y8180D01*
X1960Y8080D01*
X2060D01*
Y8180D01*
X1960Y8280D01*
X2060Y8380D01*
Y8480D01*
X1960D01*
X1860Y8380D01*
X1760Y8480D01*
X1660D01*
Y8380D01*
X1760Y8280D01*
X1660Y8180D01*
Y8080D01*
X3220Y10940D02*
X3320D01*
X3420Y11040D01*
X3520Y10940D01*
X3620D01*
Y11040D01*
X3520Y11140D01*
X3620Y11240D01*
Y11340D01*
X3520D01*
X3420Y11240D01*
X3320Y11340D01*
X3220D01*
Y11240D01*
X3320Y11140D01*
X3220Y11040D01*
Y10940D01*
X5560Y4820D02*
X5660D01*
X5760Y4920D01*
X5860Y4820D01*
X5960D01*
Y4920D01*
X5860Y5020D01*
X5960Y5120D01*
Y5220D01*
X5860D01*
X5760Y5120D01*
X5660Y5220D01*
X5560D01*
Y5120D01*
X5660Y5020D01*
X5560Y4920D01*
Y4820D01*
X8120Y9560D02*
X8220D01*
X8320Y9660D01*
X8420Y9560D01*
X8520D01*
Y9660D01*
X8420Y9760D01*
X8520Y9860D01*
Y9960D01*
X8420D01*
X8320Y9860D01*
X8220Y9960D01*
X8120D01*
Y9860D01*
X8220Y9760D01*
X8120Y9660D01*
Y9560D01*
X9280Y6330D02*
X9380D01*
X9480Y6430D01*
X9580Y6330D01*
X9680D01*
Y6430D01*
X9580Y6530D01*
X9680Y6630D01*
Y6730D01*
X9580D01*
X9480Y6630D01*
X9380Y6730D01*
X9280D01*
Y6630D01*
X9380Y6530D01*
X9280Y6430D01*
Y6330D01*
X11660Y8230D02*
X11760D01*
X11860Y8330D01*
X11960Y8230D01*
X12060D01*
Y8330D01*
X11960Y8430D01*
X12060Y8530D01*
Y8630D01*
X11960D01*
X11860Y8530D01*
X11760Y8630D01*
X11660D01*
Y8530D01*
X11760Y8430D01*
X11660Y8330D01*
Y8230D01*
X12830D02*
X12930D01*
X13030Y8330D01*
X13130Y8230D01*
X13230D01*
Y8330D01*
X13130Y8430D01*
X13230Y8530D01*
Y8630D01*
X13130D01*
X13030Y8530D01*
X12930Y8630D01*
X12830D01*
Y8530D01*
X12930Y8430D01*
X12830Y8330D01*
Y8230D01*
X13090Y4760D02*
X13190D01*
X13290Y4860D01*
X13390Y4760D01*
X13490D01*
Y4860D01*
X13390Y4960D01*
X13490Y5060D01*
Y5160D01*
X13390D01*
X13290Y5060D01*
X13190Y5160D01*
X13090D01*
Y5060D01*
X13190Y4960D01*
X13090Y4860D01*
Y4760D01*
X9410Y10180D02*
X9510D01*
X9610Y10280D01*
X9710Y10180D01*
X9810D01*
Y10280D01*
X9710Y10380D01*
X9810Y10480D01*
Y10580D01*
X9710D01*
X9610Y10480D01*
X9510Y10580D01*
X9410D01*
Y10480D01*
X9510Y10380D01*
X9410Y10280D01*
Y10180D01*
X8920Y9630D02*
X9020D01*
X9120Y9730D01*
X9220Y9630D01*
X9320D01*
Y9730D01*
X9220Y9830D01*
X9320Y9930D01*
Y10030D01*
X9220D01*
X9120Y9930D01*
X9020Y10030D01*
X8920D01*
Y9930D01*
X9020Y9830D01*
X8920Y9730D01*
Y9630D01*
X9860Y10890D02*
X9960D01*
X10060Y10990D01*
X10160Y10890D01*
X10260D01*
Y10990D01*
X10160Y11090D01*
X10260Y11190D01*
Y11290D01*
X10160D01*
X10060Y11190D01*
X9960Y11290D01*
X9860D01*
Y11190D01*
X9960Y11090D01*
X9860Y10990D01*
Y10890D01*
X7580Y10820D02*
X7680D01*
X7780Y10920D01*
X7880Y10820D01*
X7980D01*
Y10920D01*
X7880Y11020D01*
X7980Y11120D01*
Y11220D01*
X7880D01*
X7780Y11120D01*
X7680Y11220D01*
X7580D01*
Y11120D01*
X7680Y11020D01*
X7580Y10920D01*
Y10820D01*
X5510Y8610D02*
X5610D01*
X5710Y8710D01*
X5810Y8610D01*
X5910D01*
Y8710D01*
X5810Y8810D01*
X5910Y8910D01*
Y9010D01*
X5810D01*
X5710Y8910D01*
X5610Y9010D01*
X5510D01*
Y8910D01*
X5610Y8810D01*
X5510Y8710D01*
Y8610D01*
X7950Y7570D02*
X8050D01*
X8150Y7670D01*
X8250Y7570D01*
X8350D01*
Y7670D01*
X8250Y7770D01*
X8350Y7870D01*
Y7970D01*
X8250D01*
X8150Y7870D01*
X8050Y7970D01*
X7950D01*
Y7870D01*
X8050Y7770D01*
X7950Y7670D01*
Y7570D01*
X13500Y9630D02*
X13600D01*
X13700Y9730D01*
X13800Y9630D01*
X13900D01*
Y9730D01*
X13800Y9830D01*
X13900Y9930D01*
Y10030D01*
X13800D01*
X13700Y9930D01*
X13600Y10030D01*
X13500D01*
Y9930D01*
X13600Y9830D01*
X13500Y9730D01*
Y9630D01*
Y10230D02*
X13600D01*
X13700Y10330D01*
X13800Y10230D01*
X13900D01*
Y10330D01*
X13800Y10430D01*
X13900Y10530D01*
Y10630D01*
X13800D01*
X13700Y10530D01*
X13600Y10630D01*
X13500D01*
Y10530D01*
X13600Y10430D01*
X13500Y10330D01*
Y10230D01*
X7080Y11360D02*
X7180D01*
X7280Y11460D01*
X7380Y11360D01*
X7480D01*
Y11460D01*
X7380Y11560D01*
X7480Y11660D01*
Y11760D01*
X7380D01*
X7280Y11660D01*
X7180Y11760D01*
X7080D01*
Y11660D01*
X7180Y11560D01*
X7080Y11460D01*
Y11360D01*
X11980Y10440D02*
X12080D01*
X12180Y10540D01*
X12280Y10440D01*
X12380D01*
Y10540D01*
X12280Y10640D01*
X12380Y10740D01*
Y10840D01*
X12280D01*
X12180Y10740D01*
X12080Y10840D01*
X11980D01*
Y10740D01*
X12080Y10640D01*
X11980Y10540D01*
Y10440D01*
Y9350D02*
X12080D01*
X12180Y9450D01*
X12280Y9350D01*
X12380D01*
Y9450D01*
X12280Y9550D01*
X12380Y9650D01*
Y9750D01*
X12280D01*
X12180Y9650D01*
X12080Y9750D01*
X11980D01*
Y9650D01*
X12080Y9550D01*
X11980Y9450D01*
Y9350D01*
X4660Y12240D02*
X4760D01*
X4860Y12340D01*
X4960Y12240D01*
X5060D01*
Y12340D01*
X4960Y12440D01*
X5060Y12540D01*
Y12640D01*
X4960D01*
X4860Y12540D01*
X4760Y12640D01*
X4660D01*
Y12540D01*
X4760Y12440D01*
X4660Y12340D01*
Y12240D01*
X7240Y10090D02*
X7340D01*
X7440Y10190D01*
X7540Y10090D01*
X7640D01*
Y10190D01*
X7540Y10290D01*
X7640Y10390D01*
Y10490D01*
X7540D01*
X7440Y10390D01*
X7340Y10490D01*
X7240D01*
Y10390D01*
X7340Y10290D01*
X7240Y10190D01*
Y10090D01*
X8160Y10200D02*
X8260D01*
X8360Y10300D01*
X8460Y10200D01*
X8560D01*
Y10300D01*
X8460Y10400D01*
X8560Y10500D01*
Y10600D01*
X8460D01*
X8360Y10500D01*
X8260Y10600D01*
X8160D01*
Y10500D01*
X8260Y10400D01*
X8160Y10300D01*
Y10200D01*
X8480Y9290D02*
X8580D01*
X8680Y9390D01*
X8780Y9290D01*
X8880D01*
Y9390D01*
X8780Y9490D01*
X8880Y9590D01*
Y9690D01*
X8780D01*
X8680Y9590D01*
X8580Y9690D01*
X8480D01*
Y9590D01*
X8580Y9490D01*
X8480Y9390D01*
Y9290D01*
X9320Y11620D02*
X9420D01*
X9520Y11720D01*
X9620Y11620D01*
X9720D01*
Y11720D01*
X9620Y11820D01*
X9720Y11920D01*
Y12020D01*
X9620D01*
X9520Y11920D01*
X9420Y12020D01*
X9320D01*
Y11920D01*
X9420Y11820D01*
X9320Y11720D01*
Y11620D01*
X7970Y12980D02*
X8070D01*
X8170Y13080D01*
X8270Y12980D01*
X8370D01*
Y13080D01*
X8270Y13180D01*
X8370Y13280D01*
Y13380D01*
X8270D01*
X8170Y13280D01*
X8070Y13380D01*
X7970D01*
Y13280D01*
X8070Y13180D01*
X7970Y13080D01*
Y12980D01*
X8654Y5021D02*
X8754D01*
X8854Y5121D01*
X8954Y5021D01*
X9054D01*
Y5121D01*
X8954Y5221D01*
X9054Y5321D01*
Y5421D01*
X8954D01*
X8854Y5321D01*
X8754Y5421D01*
X8654D01*
Y5321D01*
X8754Y5221D01*
X8654Y5121D01*
Y5021D01*
X7860Y5280D02*
X7960D01*
X8060Y5380D01*
X8160Y5280D01*
X8260D01*
Y5380D01*
X8160Y5480D01*
X8260Y5580D01*
Y5680D01*
X8160D01*
X8060Y5580D01*
X7960Y5680D01*
X7860D01*
Y5580D01*
X7960Y5480D01*
X7860Y5380D01*
Y5280D01*
X4510Y6703D02*
X4610D01*
X4710Y6803D01*
X4810Y6703D01*
X4910D01*
Y6803D01*
X4810Y6903D01*
X4910Y7003D01*
Y7103D01*
X4810D01*
X4710Y7003D01*
X4610Y7103D01*
X4510D01*
Y7003D01*
X4610Y6903D01*
X4510Y6803D01*
Y6703D01*
X1310Y6310D02*
X1410D01*
X1510Y6410D01*
X1610Y6310D01*
X1710D01*
Y6410D01*
X1610Y6510D01*
X1710Y6610D01*
Y6710D01*
X1610D01*
X1510Y6610D01*
X1410Y6710D01*
X1310D01*
Y6610D01*
X1410Y6510D01*
X1310Y6410D01*
Y6310D01*
X7080Y6040D02*
X7180D01*
X7280Y6140D01*
X7380Y6040D01*
X7480D01*
Y6140D01*
X7380Y6240D01*
X7480Y6340D01*
Y6440D01*
X7380D01*
X7280Y6340D01*
X7180Y6440D01*
X7080D01*
Y6340D01*
X7180Y6240D01*
X7080Y6140D01*
Y6040D01*
X8654Y5766D02*
X8754D01*
X8854Y5866D01*
X8954Y5766D01*
X9054D01*
Y5866D01*
X8954Y5966D01*
X9054Y6066D01*
Y6166D01*
X8954D01*
X8854Y6066D01*
X8754Y6166D01*
X8654D01*
Y6066D01*
X8754Y5966D01*
X8654Y5866D01*
Y5766D01*
X4504Y5066D02*
X4604D01*
X4704Y5166D01*
X4804Y5066D01*
X4904D01*
Y5166D01*
X4804Y5266D01*
X4904Y5366D01*
Y5466D01*
X4804D01*
X4704Y5366D01*
X4604Y5466D01*
X4504D01*
Y5366D01*
X4604Y5266D01*
X4504Y5166D01*
Y5066D01*
X5460Y5630D02*
X5560D01*
X5660Y5730D01*
X5760Y5630D01*
X5860D01*
Y5730D01*
X5760Y5830D01*
X5860Y5930D01*
Y6030D01*
X5760D01*
X5660Y5930D01*
X5560Y6030D01*
X5460D01*
Y5930D01*
X5560Y5830D01*
X5460Y5730D01*
Y5630D01*
X2370Y8500D02*
X2470D01*
X2570Y8600D01*
X2670Y8500D01*
X2770D01*
Y8600D01*
X2670Y8700D01*
X2770Y8800D01*
Y8900D01*
X2670D01*
X2570Y8800D01*
X2470Y8900D01*
X2370D01*
Y8800D01*
X2470Y8700D01*
X2370Y8600D01*
Y8500D01*
X2880Y9800D02*
X2980D01*
X3080Y9900D01*
X3180Y9800D01*
X3280D01*
Y9900D01*
X3180Y10000D01*
X3280Y10100D01*
Y10200D01*
X3180D01*
X3080Y10100D01*
X2980Y10200D01*
X2880D01*
Y10100D01*
X2980Y10000D01*
X2880Y9900D01*
Y9800D01*
X2620Y11550D02*
X2720D01*
X2820Y11650D01*
X2920Y11550D01*
X3020D01*
Y11650D01*
X2920Y11750D01*
X3020Y11850D01*
Y11950D01*
X2920D01*
X2820Y11850D01*
X2720Y11950D01*
X2620D01*
Y11850D01*
X2720Y11750D01*
X2620Y11650D01*
Y11550D01*
X2411Y12220D02*
X2511D01*
X2611Y12320D01*
X2711Y12220D01*
X2811D01*
Y12320D01*
X2711Y12420D01*
X2811Y12520D01*
Y12620D01*
X2711D01*
X2611Y12520D01*
X2511Y12620D01*
X2411D01*
Y12520D01*
X2511Y12420D01*
X2411Y12320D01*
Y12220D01*
X1540Y11270D02*
X1640D01*
X1740Y11370D01*
X1840Y11270D01*
X1940D01*
Y11370D01*
X1840Y11470D01*
X1940Y11570D01*
Y11670D01*
X1840D01*
X1740Y11570D01*
X1640Y11670D01*
X1540D01*
Y11570D01*
X1640Y11470D01*
X1540Y11370D01*
Y11270D01*
X1210Y10720D02*
X1310D01*
X1410Y10820D01*
X1510Y10720D01*
X1610D01*
Y10820D01*
X1510Y10920D01*
X1610Y11020D01*
Y11120D01*
X1510D01*
X1410Y11020D01*
X1310Y11120D01*
X1210D01*
Y11020D01*
X1310Y10920D01*
X1210Y10820D01*
Y10720D01*
X1660Y12260D02*
X1760D01*
X1860Y12360D01*
X1960Y12260D01*
X2060D01*
Y12360D01*
X1960Y12460D01*
X2060Y12560D01*
Y12660D01*
X1960D01*
X1860Y12560D01*
X1760Y12660D01*
X1660D01*
Y12560D01*
X1760Y12460D01*
X1660Y12360D01*
Y12260D01*
X790Y9190D02*
X890D01*
X990Y9290D01*
X1090Y9190D01*
X1190D01*
Y9290D01*
X1090Y9390D01*
X1190Y9490D01*
Y9590D01*
X1090D01*
X990Y9490D01*
X890Y9590D01*
X790D01*
Y9490D01*
X890Y9390D01*
X790Y9290D01*
Y9190D01*
X690Y7340D02*
X790D01*
X890Y7440D01*
X990Y7340D01*
X1090D01*
Y7440D01*
X990Y7540D01*
X1090Y7640D01*
Y7740D01*
X990D01*
X890Y7640D01*
X790Y7740D01*
X690D01*
Y7640D01*
X790Y7540D01*
X690Y7440D01*
Y7340D01*
X5460Y7210D02*
X5560D01*
X5660Y7310D01*
X5760Y7210D01*
X5860D01*
Y7310D01*
X5760Y7410D01*
X5860Y7510D01*
Y7610D01*
X5760D01*
X5660Y7510D01*
X5560Y7610D01*
X5460D01*
Y7510D01*
X5560Y7410D01*
X5460Y7310D01*
Y7210D01*
X12400Y10440D02*
X12500D01*
X12600Y10540D01*
X12700Y10440D01*
X12800D01*
Y10540D01*
X12700Y10640D01*
X12800Y10740D01*
Y10840D01*
X12700D01*
X12600Y10740D01*
X12500Y10840D01*
X12400D01*
Y10740D01*
X12500Y10640D01*
X12400Y10540D01*
Y10440D01*
X3920Y11080D02*
X4020D01*
X4120Y11180D01*
X4220Y11080D01*
X4320D01*
Y11180D01*
X4220Y11280D01*
X4320Y11380D01*
Y11480D01*
X4220D01*
X4120Y11380D01*
X4020Y11480D01*
X3920D01*
Y11380D01*
X4020Y11280D01*
X3920Y11180D01*
Y11080D01*
X4570D02*
X4670D01*
X4770Y11180D01*
X4870Y11080D01*
X4970D01*
Y11180D01*
X4870Y11280D01*
X4970Y11380D01*
Y11480D01*
X4870D01*
X4770Y11380D01*
X4670Y11480D01*
X4570D01*
Y11380D01*
X4670Y11280D01*
X4570Y11180D01*
Y11080D01*
X3190Y12950D02*
X3290D01*
X3390Y13050D01*
X3490Y12950D01*
X3590D01*
Y13050D01*
X3490Y13150D01*
X3590Y13250D01*
Y13350D01*
X3490D01*
X3390Y13250D01*
X3290Y13350D01*
X3190D01*
Y13250D01*
X3290Y13150D01*
X3190Y13050D01*
Y12950D01*
X6580Y6330D02*
X6680D01*
X6780Y6430D01*
X6880Y6330D01*
X6980D01*
Y6430D01*
X6880Y6530D01*
X6980Y6630D01*
Y6730D01*
X6880D01*
X6780Y6630D01*
X6680Y6730D01*
X6580D01*
Y6630D01*
X6680Y6530D01*
X6580Y6430D01*
Y6330D01*
X7800D02*
X7900D01*
X8000Y6430D01*
X8100Y6330D01*
X8200D01*
Y6430D01*
X8100Y6530D01*
X8200Y6630D01*
Y6730D01*
X8100D01*
X8000Y6630D01*
X7900Y6730D01*
X7800D01*
Y6630D01*
X7900Y6530D01*
X7800Y6430D01*
Y6330D01*
X2760Y7170D02*
X2860D01*
X2960Y7270D01*
X3060Y7170D01*
X3160D01*
Y7270D01*
X3060Y7370D01*
X3160Y7470D01*
Y7570D01*
X3060D01*
X2960Y7470D01*
X2860Y7570D01*
X2760D01*
Y7470D01*
X2860Y7370D01*
X2760Y7270D01*
Y7170D01*
X2990Y8580D02*
X3090D01*
X3190Y8680D01*
X3290Y8580D01*
X3390D01*
Y8680D01*
X3290Y8780D01*
X3390Y8880D01*
Y8980D01*
X3290D01*
X3190Y8880D01*
X3090Y8980D01*
X2990D01*
Y8880D01*
X3090Y8780D01*
X2990Y8680D01*
Y8580D01*
X7460Y8410D02*
X7560D01*
X7660Y8510D01*
X7760Y8410D01*
X7860D01*
Y8510D01*
X7760Y8610D01*
X7860Y8710D01*
Y8810D01*
X7760D01*
X7660Y8710D01*
X7560Y8810D01*
X7460D01*
Y8710D01*
X7560Y8610D01*
X7460Y8510D01*
Y8410D01*
X5800Y7540D02*
X5900D01*
X6000Y7640D01*
X6100Y7540D01*
X6200D01*
Y7640D01*
X6100Y7740D01*
X6200Y7840D01*
Y7940D01*
X6100D01*
X6000Y7840D01*
X5900Y7940D01*
X5800D01*
Y7840D01*
X5900Y7740D01*
X5800Y7640D01*
Y7540D01*
X4260Y9460D02*
X4360D01*
X4460Y9560D01*
X4560Y9460D01*
X4660D01*
Y9560D01*
X4560Y9660D01*
X4660Y9760D01*
Y9860D01*
X4560D01*
X4460Y9760D01*
X4360Y9860D01*
X4260D01*
Y9760D01*
X4360Y9660D01*
X4260Y9560D01*
Y9460D01*
X3890Y12240D02*
X3990D01*
X4090Y12340D01*
X4190Y12240D01*
X4290D01*
Y12340D01*
X4190Y12440D01*
X4290Y12540D01*
Y12640D01*
X4190D01*
X4090Y12540D01*
X3990Y12640D01*
X3890D01*
Y12540D01*
X3990Y12440D01*
X3890Y12340D01*
Y12240D01*
X8290Y8740D02*
X8390D01*
X8490Y8840D01*
X8590Y8740D01*
X8690D01*
Y8840D01*
X8590Y8940D01*
X8690Y9040D01*
Y9140D01*
X8590D01*
X8490Y9040D01*
X8390Y9140D01*
X8290D01*
Y9040D01*
X8390Y8940D01*
X8290Y8840D01*
Y8740D01*
X10060Y7110D02*
X10160D01*
X10260Y7210D01*
X10360Y7110D01*
X10460D01*
Y7210D01*
X10360Y7310D01*
X10460Y7410D01*
Y7510D01*
X10360D01*
X10260Y7410D01*
X10160Y7510D01*
X10060D01*
Y7410D01*
X10160Y7310D01*
X10060Y7210D01*
Y7110D01*
X4470Y13440D02*
X4570D01*
X4670Y13540D01*
X4770Y13440D01*
X4870D01*
Y13540D01*
X4770Y13640D01*
X4870Y13740D01*
Y13840D01*
X4770D01*
X4670Y13740D01*
X4570Y13840D01*
X4470D01*
Y13740D01*
X4570Y13640D01*
X4470Y13540D01*
Y13440D01*
X6600Y9060D02*
X6700D01*
X6800Y9160D01*
X6900Y9060D01*
X7000D01*
Y9160D01*
X6900Y9260D01*
X7000Y9360D01*
Y9460D01*
X6900D01*
X6800Y9360D01*
X6700Y9460D01*
X6600D01*
Y9360D01*
X6700Y9260D01*
X6600Y9160D01*
Y9060D01*
X5770Y14460D02*
X5870D01*
X5970Y14560D01*
X6070Y14460D01*
X6170D01*
Y14560D01*
X6070Y14660D01*
X6170Y14760D01*
Y14860D01*
X6070D01*
X5970Y14760D01*
X5870Y14860D01*
X5770D01*
Y14760D01*
X5870Y14660D01*
X5770Y14560D01*
Y14460D01*
X3990Y13440D02*
X4090D01*
X4190Y13540D01*
X4290Y13440D01*
X4390D01*
Y13540D01*
X4290Y13640D01*
X4390Y13740D01*
Y13840D01*
X4290D01*
X4190Y13740D01*
X4090Y13840D01*
X3990D01*
Y13740D01*
X4090Y13640D01*
X3990Y13540D01*
Y13440D01*
X25900Y7100D02*
X26000D01*
X26100Y7200D01*
X26200Y7100D01*
X26300D01*
Y7200D01*
X26200Y7300D01*
X26300Y7400D01*
Y7500D01*
X26200D01*
X26100Y7400D01*
X26000Y7500D01*
X25900D01*
Y7400D01*
X26000Y7300D01*
X25900Y7200D01*
Y7100D01*
X28450Y8250D02*
X28550D01*
X28650Y8350D01*
X28750Y8250D01*
X28850D01*
Y8350D01*
X28750Y8450D01*
X28850Y8550D01*
Y8650D01*
X28750D01*
X28650Y8550D01*
X28550Y8650D01*
X28450D01*
Y8550D01*
X28550Y8450D01*
X28450Y8350D01*
Y8250D01*
Y7850D02*
X28550D01*
X28650Y7950D01*
X28750Y7850D01*
X28850D01*
Y7950D01*
X28750Y8050D01*
X28850Y8150D01*
Y8250D01*
X28750D01*
X28650Y8150D01*
X28550Y8250D01*
X28450D01*
Y8150D01*
X28550Y8050D01*
X28450Y7950D01*
Y7850D01*
X5650Y11950D02*
X5750D01*
X5850Y12050D01*
X5950Y11950D01*
X6050D01*
Y12050D01*
X5950Y12150D01*
X6050Y12250D01*
Y12350D01*
X5950D01*
X5850Y12250D01*
X5750Y12350D01*
X5650D01*
Y12250D01*
X5750Y12150D01*
X5650Y12050D01*
Y11950D01*
X6050D02*
X6150D01*
X6250Y12050D01*
X6350Y11950D01*
X6450D01*
Y12050D01*
X6350Y12150D01*
X6450Y12250D01*
Y12350D01*
X6350D01*
X6250Y12250D01*
X6150Y12350D01*
X6050D01*
Y12250D01*
X6150Y12150D01*
X6050Y12050D01*
Y11950D01*
X5350Y10500D02*
X5450D01*
X5550Y10600D01*
X5650Y10500D01*
X5750D01*
Y10600D01*
X5650Y10700D01*
X5750Y10800D01*
Y10900D01*
X5650D01*
X5550Y10800D01*
X5450Y10900D01*
X5350D01*
Y10800D01*
X5450Y10700D01*
X5350Y10600D01*
Y10500D01*
X6650Y12160D02*
X6750D01*
X6850Y12260D01*
X6950Y12160D01*
X7050D01*
Y12260D01*
X6950Y12360D01*
X7050Y12460D01*
Y12560D01*
X6950D01*
X6850Y12460D01*
X6750Y12560D01*
X6650D01*
Y12460D01*
X6750Y12360D01*
X6650Y12260D01*
Y12160D01*
X18500Y7500D02*
X18600D01*
X18700Y7600D01*
X18800Y7500D01*
X18900D01*
Y7600D01*
X18800Y7700D01*
X18900Y7800D01*
Y7900D01*
X18800D01*
X18700Y7800D01*
X18600Y7900D01*
X18500D01*
Y7800D01*
X18600Y7700D01*
X18500Y7600D01*
Y7500D01*
X9570Y8490D02*
X9670D01*
X9770Y8590D01*
X9870Y8490D01*
X9970D01*
Y8590D01*
X9870Y8690D01*
X9970Y8790D01*
Y8890D01*
X9870D01*
X9770Y8790D01*
X9670Y8890D01*
X9570D01*
Y8790D01*
X9670Y8690D01*
X9570Y8590D01*
Y8490D01*
X10580Y8560D02*
X10680D01*
X10780Y8660D01*
X10880Y8560D01*
X10980D01*
Y8660D01*
X10880Y8760D01*
X10980Y8860D01*
Y8960D01*
X10880D01*
X10780Y8860D01*
X10680Y8960D01*
X10580D01*
Y8860D01*
X10680Y8760D01*
X10580Y8660D01*
Y8560D01*
X11330Y8430D02*
X11430D01*
X11530Y8530D01*
X11630Y8430D01*
X11730D01*
Y8530D01*
X11630Y8630D01*
X11730Y8730D01*
Y8830D01*
X11630D01*
X11530Y8730D01*
X11430Y8830D01*
X11330D01*
Y8730D01*
X11430Y8630D01*
X11330Y8530D01*
Y8430D01*
X17050Y11390D02*
X17150D01*
X17250Y11490D01*
X17350Y11390D01*
X17450D01*
Y11490D01*
X17350Y11590D01*
X17450Y11690D01*
Y11790D01*
X17350D01*
X17250Y11690D01*
X17150Y11790D01*
X17050D01*
Y11690D01*
X17150Y11590D01*
X17050Y11490D01*
Y11390D01*
X11330Y10440D02*
X11430D01*
X11530Y10540D01*
X11630Y10440D01*
X11730D01*
Y10540D01*
X11630Y10640D01*
X11730Y10740D01*
Y10840D01*
X11630D01*
X11530Y10740D01*
X11430Y10840D01*
X11330D01*
Y10740D01*
X11430Y10640D01*
X11330Y10540D01*
Y10440D01*
Y11390D02*
X11430D01*
X11530Y11490D01*
X11630Y11390D01*
X11730D01*
Y11490D01*
X11630Y11590D01*
X11730Y11690D01*
Y11790D01*
X11630D01*
X11530Y11690D01*
X11430Y11790D01*
X11330D01*
Y11690D01*
X11430Y11590D01*
X11330Y11490D01*
Y11390D01*
X7680Y11470D02*
X7780D01*
X7880Y11570D01*
X7980Y11470D01*
X8080D01*
Y11570D01*
X7980Y11670D01*
X8080Y11770D01*
Y11870D01*
X7980D01*
X7880Y11770D01*
X7780Y11870D01*
X7680D01*
Y11770D01*
X7780Y11670D01*
X7680Y11570D01*
Y11470D01*
X6650Y13190D02*
X6750D01*
X6850Y13290D01*
X6950Y13190D01*
X7050D01*
Y13290D01*
X6950Y13390D01*
X7050Y13490D01*
Y13590D01*
X6950D01*
X6850Y13490D01*
X6750Y13590D01*
X6650D01*
Y13490D01*
X6750Y13390D01*
X6650Y13290D01*
Y13190D01*
X5130Y13550D02*
X5230D01*
X5330Y13650D01*
X5430Y13550D01*
X5530D01*
Y13650D01*
X5430Y13750D01*
X5530Y13850D01*
Y13950D01*
X5430D01*
X5330Y13850D01*
X5230Y13950D01*
X5130D01*
Y13850D01*
X5230Y13750D01*
X5130Y13650D01*
Y13550D01*
X6420Y10700D02*
X6520D01*
X6620Y10800D01*
X6720Y10700D01*
X6820D01*
Y10800D01*
X6720Y10900D01*
X6820Y11000D01*
Y11100D01*
X6720D01*
X6620Y11000D01*
X6520Y11100D01*
X6420D01*
Y11000D01*
X6520Y10900D01*
X6420Y10800D01*
Y10700D01*
X5280Y10130D02*
X5380D01*
X5480Y10230D01*
X5580Y10130D01*
X5680D01*
Y10230D01*
X5580Y10330D01*
X5680Y10430D01*
Y10530D01*
X5580D01*
X5480Y10430D01*
X5380Y10530D01*
X5280D01*
Y10430D01*
X5380Y10330D01*
X5280Y10230D01*
Y10130D01*
X6470Y11430D02*
X6570D01*
X6670Y11530D01*
X6770Y11430D01*
X6870D01*
Y11530D01*
X6770Y11630D01*
X6870Y11730D01*
Y11830D01*
X6770D01*
X6670Y11730D01*
X6570Y11830D01*
X6470D01*
Y11730D01*
X6570Y11630D01*
X6470Y11530D01*
Y11430D01*
X5160Y11650D02*
X5260D01*
X5360Y11750D01*
X5460Y11650D01*
X5560D01*
Y11750D01*
X5460Y11850D01*
X5560Y11950D01*
Y12050D01*
X5460D01*
X5360Y11950D01*
X5260Y12050D01*
X5160D01*
Y11950D01*
X5260Y11850D01*
X5160Y11750D01*
Y11650D01*
X3510Y7880D02*
X3610D01*
X3710Y7980D01*
X3810Y7880D01*
X3910D01*
Y7980D01*
X3810Y8080D01*
X3910Y8180D01*
Y8280D01*
X3810D01*
X3710Y8180D01*
X3610Y8280D01*
X3510D01*
Y8180D01*
X3610Y8080D01*
X3510Y7980D01*
Y7880D01*
X6870Y10110D02*
X6970D01*
X7070Y10210D01*
X7170Y10110D01*
X7270D01*
Y10210D01*
X7170Y10310D01*
X7270Y10410D01*
Y10510D01*
X7170D01*
X7070Y10410D01*
X6970Y10510D01*
X6870D01*
Y10410D01*
X6970Y10310D01*
X6870Y10210D01*
Y10110D01*
X5600Y11050D02*
X5700D01*
X5800Y11150D01*
X5900Y11050D01*
X6000D01*
Y11150D01*
X5900Y11250D01*
X6000Y11350D01*
Y11450D01*
X5900D01*
X5800Y11350D01*
X5700Y11450D01*
X5600D01*
Y11350D01*
X5700Y11250D01*
X5600Y11150D01*
Y11050D01*
X5160Y11290D02*
X5260D01*
X5360Y11390D01*
X5460Y11290D01*
X5560D01*
Y11390D01*
X5460Y11490D01*
X5560Y11590D01*
Y11690D01*
X5460D01*
X5360Y11590D01*
X5260Y11690D01*
X5160D01*
Y11590D01*
X5260Y11490D01*
X5160Y11390D01*
Y11290D01*
X11010Y14850D02*
X11110D01*
X11210Y14950D01*
X11310Y14850D01*
X11410D01*
Y14950D01*
X11310Y15050D01*
X11410Y15150D01*
Y15250D01*
X11310D01*
X11210Y15150D01*
X11110Y15250D01*
X11010D01*
Y15150D01*
X11110Y15050D01*
X11010Y14950D01*
Y14850D01*
X10780Y11960D02*
X10880D01*
X10980Y12060D01*
X11080Y11960D01*
X11180D01*
Y12060D01*
X11080Y12160D01*
X11180Y12260D01*
Y12360D01*
X11080D01*
X10980Y12260D01*
X10880Y12360D01*
X10780D01*
Y12260D01*
X10880Y12160D01*
X10780Y12060D01*
Y11960D01*
D103*
X10460Y5500D02*
G03*
X10460Y5500I-200J0D01*
G01*
X960Y5010D02*
G03*
X960Y5010I-200J0D01*
G01*
X1180Y12750D02*
G03*
X1180Y12750I-200J0D01*
G01*
X10450Y12900D02*
G03*
X10450Y12900I-200J0D01*
G01*
M02*
