M48
;Layer_Color=9474304
;FILE_FORMAT=2:5
INCH,LZ
;TYPE=PLATED
T1F00S00C0.01700
T2F00S00C0.03500
T3F00S00C0.12200
;TYPE=NON_PLATED
T4F00S00C0.07800
T5F00S00C0.20000
%
T01
X00089Y00754
X00099Y00939
X00141Y01092
X00342Y01114
X00412Y01128
X00477
X0053Y01115
X0058013Y0112487
X00605Y01095
X00685Y01093
X00674Y01047
X00763Y01026
X00833Y01062
X00824Y00958
X00849Y00894
X00911Y00918
X0089835Y0099665
X00928Y01113
X01006Y01109
X01125Y01068
X0121Y0112
X0126
X01215Y01015
X0137Y01043
Y00983
X01325Y00845
X01298Y00763
X01181
X01153Y00863
X01078Y00876
X00977Y00869
X01026Y00731
X00948Y00653
X0088541Y0059659
Y0052215
X00806Y00548
X008Y00653
X00728Y00624
X00678Y00653
X00566Y00583
X00576Y00502
X0047041Y0052659
X00471Y0069032
X00566Y00741
X006Y00774
X00626Y00832
X00571Y00881
X0068Y00926
X00782Y00861
X00815Y00777
X00371Y00808
X00319Y00878
X00257Y0087
X00186Y00828
X00296Y00737
X00151Y00651
X00308Y01
X00446Y00966
X00535Y01025
X00555Y0106
X01425Y0112
X01575
X0144Y00775
X01329Y00496
X0261Y0073
X02865Y00805
Y00845
X01855Y0118
X0148872Y0150772
X01155Y0131
X01125Y012
X00952Y01182
X00776Y01166
X00736Y0117
X00667Y01163
X00625Y01215
X00585
X00536Y01185
Y01149
X00486Y01244
X00409
X00419Y01364
X00467
X00533Y01375
X00505Y0145
X0047Y0149
X0042Y0145
X00339Y01315
X0026114Y01242
X00186Y01246
X00174Y01147
X00282Y01175
X00685Y01339
X00625Y0143
X0074Y0155
X0079Y01505
X0089
Y01374
X00817Y01318
T02
X00076Y00501
X01024Y00465
X01026Y0055
X0232254Y0071112
X0247754
X025Y01595
X024
X023
X022
X026
X01775Y0131
X01675
X01575
X01475
X01375
X01025Y0129
X00098Y01275
T03
X0024932Y0025484
X03032Y01533
T04
X0154015Y00907
T05
X0271Y004
M30
