%FSLAX24Y24*%
%MOIN*%
G70*
G01*
G75*
%ADD10R,0.0300X0.0300*%
%ADD11R,0.0360X0.0500*%
%ADD12R,0.0360X0.0360*%
%ADD13O,0.0160X0.0600*%
%ADD14C,0.0400*%
%ADD15O,0.0400X0.0160*%
%ADD16R,0.0200X0.0500*%
%ADD17R,0.0400X0.0550*%
%ADD18R,0.0236X0.0236*%
%ADD19R,0.0700X0.0236*%
%ADD20R,0.0236X0.1000*%
%ADD21R,0.0900X0.0236*%
%ADD22R,0.0236X0.0900*%
%ADD23O,0.0240X0.0800*%
%ADD24C,0.0080*%
%ADD25C,0.0150*%
%ADD26C,0.0100*%
%ADD27C,0.0120*%
%ADD28C,0.0140*%
%ADD29C,0.0160*%
%ADD30C,0.0060*%
%ADD31C,0.0250*%
%ADD32C,0.0070*%
%ADD33C,0.0090*%
%ADD34C,0.0050*%
%ADD35C,0.0700*%
%ADD36R,0.0500X0.0500*%
%ADD37C,0.0600*%
%ADD38C,0.0280*%
%ADD39C,0.0300*%
D14*
X88866Y66927D02*
D03*
X81296Y69847D02*
D03*
X88568Y65807D02*
D03*
X87316Y65477D02*
D03*
D24*
X88296Y69777D02*
X88284Y69877D01*
X88248Y69972D01*
X88190Y70055D01*
X88115Y70122D01*
X88025Y70169D01*
X87927Y70194D01*
X87825D01*
X87727Y70169D01*
X87637Y70122D01*
X87562Y70055D01*
X87504Y69972D01*
X87468Y69877D01*
X87456Y69777D01*
X87468Y69676D01*
X87504Y69582D01*
X87562Y69498D01*
X87637Y69431D01*
X87727Y69384D01*
X87825Y69360D01*
X87927D01*
X88025Y69384D01*
X88115Y69431D01*
X88190Y69498D01*
X88248Y69582D01*
X88284Y69676D01*
X88296Y69777D01*
X88796Y68877D02*
X88780Y68976D01*
X88735Y69065D01*
X88664Y69136D01*
X88575Y69181D01*
X88476Y69197D01*
X88377Y69181D01*
X88288Y69136D01*
X88217Y69065D01*
X88172Y68976D01*
X88156Y68877D01*
X88172Y68778D01*
X88217Y68689D01*
X88288Y68618D01*
X88377Y68572D01*
X88476Y68557D01*
X88575Y68572D01*
X88664Y68618D01*
X88735Y68689D01*
X88780Y68778D01*
X88796Y68877D01*
X88576Y67457D02*
X88560Y67556D01*
X88515Y67645D01*
X88444Y67716D01*
X88355Y67761D01*
X88256Y67777D01*
X88157Y67761D01*
X88068Y67716D01*
X87997Y67645D01*
X87952Y67556D01*
X87936Y67457D01*
X87952Y67358D01*
X87997Y67269D01*
X88068Y67198D01*
X88157Y67152D01*
X88256Y67137D01*
X88355Y67152D01*
X88444Y67198D01*
X88515Y67269D01*
X88560Y67358D01*
X88576Y67457D01*
X87158Y70927D02*
X87037Y70977D01*
X87157Y70927D02*
X87037Y70977D01*
X87387Y70627D02*
X87337Y70747D01*
X87387Y70627D02*
X87337Y70747D01*
X85336Y71057D02*
X85216Y71107D01*
X85336Y71057D02*
X85216Y71107D01*
X86520Y69989D02*
X86455Y69903D01*
X86430Y69797D01*
X86451Y69690D01*
X86514Y69602D01*
X86421Y69593D01*
X86337Y69553D01*
X86273Y69486D01*
X86237Y69400D01*
X86233Y69307D01*
X86262Y69218D01*
X86320Y69146D01*
X87477Y67177D02*
X87454Y67285D01*
X87387Y67373D01*
X86320Y68643D02*
X86370Y68522D01*
X86320Y68643D02*
X86370Y68522D01*
X84916Y68827D02*
X84892Y68935D01*
X84826Y69023D01*
X84876Y68080D02*
X84942Y68169D01*
X84966Y68277D01*
X84826Y67451D02*
X84876Y67571D01*
X84826Y67451D02*
X84876Y67571D01*
X89186Y66927D02*
X89172Y67022D01*
X89130Y67108D01*
X89064Y67178D01*
X88981Y67225D01*
X88887Y67246D01*
X88791Y67238D01*
X88703Y67202D01*
X88628Y67141D01*
X88576Y67061D01*
X88549Y66969D01*
X88551Y66873D01*
X88581Y66782D01*
X88637Y66704D01*
X88548Y66653D01*
X88485Y66572D01*
X88459Y66473D01*
X88430Y66445D02*
X88388Y66381D01*
X88373Y66307D01*
X88430Y66445D02*
X88388Y66381D01*
X88373Y66307D01*
Y66061D02*
X88306Y65991D01*
X88263Y65904D01*
X88248Y65808D01*
X88263Y65712D01*
X88305Y65625D01*
X88372Y65554D01*
X88456Y65507D01*
X87090Y66950D02*
X87192Y66918D01*
X87299Y66930D01*
X87392Y66984D01*
X87455Y67072D01*
X87477Y67177D01*
X87877Y66109D02*
X87856Y66211D01*
X87796Y66297D01*
X87708Y66353D01*
X87605Y66369D01*
X87503Y66343D01*
X87420Y66279D01*
X87420Y65939D02*
X87503Y65875D01*
X87605Y65849D01*
X87708Y65865D01*
X87796Y65921D01*
X87856Y66007D01*
X87877Y66109D01*
X87986Y63907D02*
X87974Y64007D01*
X87938Y64102D01*
X87880Y64185D01*
X87805Y64252D01*
X87715Y64299D01*
X87617Y64324D01*
X87515D01*
X87417Y64299D01*
X87327Y64252D01*
X87252Y64185D01*
X87194Y64102D01*
X87158Y64007D01*
X87146Y63907D01*
X87158Y63806D01*
X87194Y63712D01*
X87252Y63628D01*
X87327Y63561D01*
X87417Y63514D01*
X87515Y63490D01*
X87617D01*
X87715Y63514D01*
X87805Y63561D01*
X87880Y63628D01*
X87938Y63712D01*
X87974Y63806D01*
X87986Y63907D01*
X86390Y66623D02*
X86511Y66673D01*
X86390Y66623D02*
X86510Y66672D01*
X87133Y65989D02*
X87254Y65939D01*
X87134Y65989D02*
X87254Y65939D01*
X87076Y65777D02*
X87052Y65885D01*
X86986Y65974D01*
X86644Y65582D02*
X86729Y65532D01*
X86827Y65517D01*
X86923Y65540D01*
X87004Y65597D01*
X87057Y65680D01*
X87076Y65777D01*
X86556Y66207D02*
X86606Y66087D01*
X86556Y66207D02*
X86606Y66086D01*
X85193Y71107D02*
X85111Y71170D01*
X85012Y71196D01*
X84909Y71182D01*
X84821Y71129D01*
X84760Y71046D01*
X84736Y70946D01*
X84753Y70844D01*
X84808Y70757D01*
X84466D02*
X84346Y70707D01*
X84466Y70757D02*
X84346Y70707D01*
X84826Y69727D02*
X84776Y69847D01*
X84641Y69983D02*
X84749Y70006D01*
X84837Y70073D01*
X84826Y69727D02*
X84776Y69847D01*
X84193Y70667D02*
X84111Y70730D01*
X84012Y70756D01*
X83909Y70742D01*
X83821Y70689D01*
X83760Y70606D01*
X83736Y70506D01*
X83753Y70404D01*
X83808Y70317D01*
X84486Y69023D02*
X84423Y68942D01*
X84396Y68842D01*
X84411Y68740D01*
X84464Y68651D01*
X84548Y68590D01*
X84649Y68567D01*
X84750Y68584D01*
X84837Y68640D01*
X84896Y68726D01*
X84916Y68827D01*
X84966Y68277D02*
X84946Y68378D01*
X84887Y68463D01*
X84800Y68519D01*
X84698Y68537D01*
X84598Y68513D01*
X84514Y68452D01*
X84461Y68364D01*
X84446Y68262D01*
X84473Y68162D01*
X84536Y68080D01*
X83876Y67367D02*
X83756Y67317D01*
X83876Y67367D02*
X83756Y67317D01*
X84332Y67027D02*
X84452Y67077D01*
X84332Y67027D02*
X84452Y67077D01*
X83023Y70317D02*
X82947Y70377D01*
X82855Y70405D01*
X82758Y70398D01*
X82671Y70356D01*
X82606Y70285D01*
X82571Y70195D01*
Y70098D01*
X82606Y70009D01*
X82671Y69938D01*
X82758Y69896D01*
X82855Y69888D01*
X82947Y69917D01*
X83023Y69977D01*
X82886Y68297D02*
X82865Y68399D01*
X82805Y68485D01*
X82717Y68540D01*
X82613Y68556D01*
X82512Y68531D01*
X82429Y68467D01*
Y68127D02*
X82512Y68063D01*
X82613Y68037D01*
X82717Y68053D01*
X82805Y68109D01*
X82865Y68194D01*
X82886Y68297D01*
X82226Y68467D02*
X82106Y68417D01*
X82926Y67407D02*
X82876Y67527D01*
X82872Y67532D02*
X82905Y67601D01*
X82916Y67677D01*
X82926Y67407D02*
X82876Y67527D01*
X82916Y67677D02*
X82895Y67778D01*
X82837Y67864D01*
X82749Y67919D01*
X82647Y67937D01*
X82546Y67913D01*
X82463Y67851D01*
X82410Y67762D01*
X82397Y67659D01*
X82424Y67559D01*
X82489Y67478D01*
X82536Y67387D01*
X82489Y67478D02*
X82536Y67387D01*
X82226Y68467D02*
X82106Y68417D01*
X82066Y67419D02*
X82076Y67477D01*
X82066Y67419D02*
X82076Y67477D01*
X84281Y66963D02*
X84160Y66913D01*
X84281Y66963D02*
X84160Y66913D01*
X84405Y66357D02*
X84381Y66465D01*
X84315Y66554D01*
X84025Y66777D02*
X83975Y66657D01*
X84025Y66777D02*
X83975Y66657D01*
Y66554D02*
X83912Y66472D01*
X83885Y66372D01*
X83900Y66270D01*
X83953Y66181D01*
X84037Y66120D01*
X84137Y66097D01*
X84239Y66114D01*
X84326Y66170D01*
X84384Y66256D01*
X84405Y66357D01*
X83886Y65972D02*
X83811Y65957D01*
X83748Y65915D01*
X83886Y65972D02*
X83811Y65957D01*
X83748Y65915D01*
X83486Y67047D02*
X83436Y66927D01*
X83486Y67047D02*
X83436Y66927D01*
X83016Y66777D02*
X82992Y66885D01*
X82926Y66974D01*
X82586D02*
X82523Y66892D01*
X82497Y66792D01*
X82511Y66690D01*
X82564Y66601D01*
X82648Y66540D01*
X82748Y66517D01*
X82850Y66534D01*
X82937Y66590D01*
X82996Y66676D01*
X83016Y66777D01*
X81290Y67007D02*
X81348Y66928D01*
X81430Y66875D01*
X81526Y66857D01*
X81622Y66875D01*
X81704Y66928D01*
X81762Y67007D01*
X83726Y66307D02*
X83776Y66427D01*
X83726Y66306D02*
X83776Y66427D01*
X83256Y65907D02*
X83376Y65957D01*
X83256Y65907D02*
X83376Y65957D01*
X83480Y65646D02*
X83384Y65621D01*
X83305Y65563D01*
X83253Y65479D01*
X83236Y65381D01*
X83257Y65285D01*
X83312Y65203D01*
X83394Y65148D01*
X83491Y65127D01*
X83588Y65144D01*
X83672Y65195D01*
X83731Y65275D01*
X83756Y65370D01*
X83053Y66247D02*
X82977Y66307D01*
X82885Y66335D01*
X82788Y66328D01*
X82702Y66286D01*
X82636Y66215D01*
X82601Y66125D01*
Y66028D01*
X82636Y65939D01*
X82702Y65868D01*
X82788Y65826D01*
X82885Y65818D01*
X82977Y65847D01*
X83053Y65907D01*
X90256Y70287D02*
X90836Y69707D01*
X90446Y71117D02*
Y71347D01*
X90256Y70927D02*
X90446Y71117D01*
X90256Y70287D02*
Y70927D01*
X89856Y70057D02*
X90206D01*
X88268Y69927D02*
X90206D01*
X88293Y69827D02*
X90206D01*
X88214Y70027D02*
X90206D01*
X88245Y69977D02*
X90206D01*
X88284Y69877D02*
X90206D01*
X88296Y69777D02*
X90206D01*
X88293Y69727D02*
X90206D01*
X88284Y69677D02*
X90206D01*
X88268Y69627D02*
X90206D01*
X88245Y69577D02*
X90206D01*
X89856Y70057D02*
X89856Y71357D01*
X88516Y69194D02*
Y71357D01*
X88616Y69165D02*
Y71357D01*
X88266Y69933D02*
Y71357D01*
X88466Y69197D02*
Y71357D01*
X88216Y70023D02*
Y71357D01*
X88166Y70081D02*
Y71357D01*
X88214Y69527D02*
X90206D01*
X88170Y70077D02*
X89856D01*
X88170Y69477D02*
X90206D01*
X89116Y67127D02*
Y71357D01*
X89066Y67177D02*
Y71357D01*
X89166Y67038D02*
Y71357D01*
X89016Y67209D02*
Y71357D01*
X88966Y67231D02*
Y71357D01*
X88726Y69077D02*
X90206D01*
X88916Y67243D02*
Y71357D01*
X88866Y67247D02*
Y71357D01*
X88587Y69177D02*
X90206D01*
X88676Y69127D02*
X90206D01*
X88766Y69012D02*
Y71357D01*
X88716Y69088D02*
Y71357D01*
X88816Y67243D02*
Y71357D01*
X88566Y69184D02*
Y71357D01*
X88666Y69134D02*
Y71357D01*
X88416Y69191D02*
Y71357D01*
X88366Y69177D02*
Y71357D01*
X88316Y69154D02*
Y71357D01*
X88266Y69118D02*
Y69621D01*
X88216Y69063D02*
Y69530D01*
X85366Y71027D02*
X89856D01*
X87037Y70977D02*
X89856D01*
X87158Y70927D02*
X89856D01*
X85096Y71177D02*
X89856D01*
X85174Y71127D02*
X89856D01*
X85312Y71077D02*
X89856D01*
X87308Y70777D02*
X89856D01*
X87355Y70727D02*
X89856D01*
X87380Y70677D02*
X89856D01*
X87208Y70877D02*
X89856D01*
X87258Y70827D02*
X89856D01*
X87387Y70627D02*
X89856D01*
X87387Y70577D02*
X89856D01*
X88016Y70173D02*
Y71357D01*
X87387Y70527D02*
X89856D01*
X87387Y70477D02*
X89856D01*
X87387Y70427D02*
X89856D01*
X87387Y70377D02*
X89856D01*
X87387Y70327D02*
X89856D01*
X87387Y70277D02*
X89856D01*
X87387Y70227D02*
X89856D01*
X88004Y70177D02*
X89856D01*
X88108Y70127D02*
X89856D01*
X88108Y69427D02*
X90206D01*
X88004Y69377D02*
X90206D01*
X87387Y69327D02*
X90206D01*
X87387Y69277D02*
X90206D01*
X87387Y69227D02*
X90206D01*
X87387Y69177D02*
X88365D01*
X88166Y68956D02*
Y69473D01*
X88116Y70121D02*
Y71357D01*
Y67745D02*
Y69432D01*
X87966Y70187D02*
Y71357D01*
X88066Y70151D02*
Y71357D01*
Y67714D02*
Y69402D01*
X88016Y67668D02*
Y69381D01*
X87966Y67592D02*
Y69367D01*
X87387Y69127D02*
X88276D01*
X87387Y69077D02*
X88226D01*
X88780Y68977D02*
X90206D01*
X88792Y68927D02*
X90206D01*
X88796Y68877D02*
X90206D01*
X88759Y69027D02*
X90206D01*
X88792Y68827D02*
X90206D01*
X88780Y68777D02*
X90206D01*
X88759Y68727D02*
X90206D01*
X88726Y68677D02*
X90206D01*
X88676Y68627D02*
X90206D01*
X88587Y68577D02*
X90206D01*
X88257Y67777D02*
X90206D01*
X88366Y67757D02*
Y68576D01*
X88316Y67771D02*
Y68600D01*
X88516Y67643D02*
Y68559D01*
X88266Y67777D02*
Y68635D01*
X88216Y67774D02*
Y68690D01*
X88488Y67677D02*
X90206D01*
X88466Y67698D02*
Y68557D01*
X88527Y67627D02*
X90206D01*
X88416Y67734D02*
Y68562D01*
X88428Y67727D02*
X90206D01*
X88568Y67527D02*
X90206D01*
X88575Y67477D02*
X90206D01*
X88575Y67427D02*
X90206D01*
X88553Y67577D02*
X90206D01*
X88566Y67377D02*
X90206D01*
X88977Y67227D02*
X90206D01*
X89066Y67177D02*
X90206D01*
X89116Y67127D02*
X90206D01*
X88548Y67327D02*
X90206D01*
X88521Y67277D02*
X90206D01*
X88766Y67231D02*
Y68741D01*
X88716Y67209D02*
Y68665D01*
X88666Y67177D02*
Y68619D01*
X88566Y67536D02*
Y68570D01*
X88616Y67127D02*
Y68589D01*
X89149Y67077D02*
X90206D01*
X89170Y67027D02*
X90206D01*
X88566Y67038D02*
Y67377D01*
X88479Y67227D02*
X88755D01*
X88411Y67177D02*
X88666D01*
X87387Y68527D02*
X90206D01*
X87387Y68477D02*
X90206D01*
X87387Y68427D02*
X90206D01*
X87387Y68377D02*
X90206D01*
X87387Y68327D02*
X90206D01*
X87387Y68277D02*
X90206D01*
X87387Y68227D02*
X90206D01*
X87387Y68177D02*
X90206D01*
X87387Y68127D02*
X90206D01*
X87387Y68077D02*
X90206D01*
X87387Y68027D02*
X90206D01*
X87387Y69027D02*
X88193D01*
X87387Y68977D02*
X88172D01*
X87387Y68927D02*
X88160D01*
X87387Y68877D02*
X88156D01*
X87387Y68827D02*
X88160D01*
X87387Y68727D02*
X88193D01*
X87387Y68777D02*
X88172D01*
X87387Y68677D02*
X88226D01*
X87387Y68627D02*
X88276D01*
X87387Y68577D02*
X88365D01*
X87387Y67977D02*
X90206D01*
X87387Y67927D02*
X90206D01*
X88166Y67764D02*
Y68797D01*
X87387Y67877D02*
X90206D01*
X87387Y67827D02*
X90206D01*
X87472Y67127D02*
X88616D01*
X87457Y67077D02*
X88583D01*
X87387Y67777D02*
X88255D01*
X87430Y67027D02*
X88562D01*
X87387Y67727D02*
X88084D01*
X87387Y67677D02*
X88024D01*
X87387Y67627D02*
X87985D01*
X87387Y67577D02*
X87959D01*
X87387Y67527D02*
X87944D01*
X87472Y67227D02*
X88034D01*
X87457Y67277D02*
X87991D01*
X87477Y67177D02*
X88101D01*
X87387Y67477D02*
X87937D01*
X87430Y67327D02*
X87964D01*
X87266Y70818D02*
Y71357D01*
X87216Y70868D02*
Y71357D01*
X87316Y70768D02*
Y71357D01*
X87116Y70957D02*
Y71357D01*
X87066Y70974D02*
Y71357D01*
X87166Y70918D02*
Y71357D01*
X87158Y70927D02*
X87337Y70747D01*
X87016Y70977D02*
Y71357D01*
X86966Y70977D02*
Y71357D01*
X86916Y70977D02*
Y71357D01*
X86866Y70977D02*
Y71357D01*
X86816Y70977D02*
Y71357D01*
X86766Y70977D02*
Y71357D01*
X86716Y70977D02*
Y71357D01*
X86666Y70977D02*
Y71357D01*
X86616Y70977D02*
Y71357D01*
X86566Y70977D02*
Y71357D01*
X86516Y70977D02*
Y71357D01*
X86466Y70977D02*
Y71357D01*
X87916Y70195D02*
Y71357D01*
X87866Y70197D02*
Y71357D01*
X87816Y70192D02*
Y71357D01*
X87766Y70182D02*
Y71357D01*
X87716Y70165D02*
Y71357D01*
X87666Y70141D02*
Y71357D01*
X87616Y70107D02*
Y71357D01*
X87566Y70060D02*
Y71357D01*
X87387Y70177D02*
X87748D01*
X87387Y70127D02*
X87644D01*
X87516Y69993D02*
Y71357D01*
X87466Y69868D02*
Y71357D01*
X87416Y67344D02*
Y71357D01*
X87366Y70709D02*
Y71357D01*
X87387Y70077D02*
X87582D01*
X87387Y67373D02*
Y70627D01*
X86470Y70073D02*
X86520Y70022D01*
X86466Y69925D02*
Y70073D01*
X86416Y70977D02*
Y71357D01*
X86366Y70977D02*
Y71357D01*
X86316Y70977D02*
Y71357D01*
X86266Y70977D02*
Y71357D01*
X86216Y70977D02*
Y71357D01*
X86166Y70977D02*
Y71357D01*
X86116Y70977D02*
Y71357D01*
X85366Y71027D02*
Y71357D01*
X86066Y70977D02*
Y71357D01*
X85316Y71074D02*
Y71357D01*
X85266Y71099D02*
Y71357D01*
X85166Y71133D02*
Y71357D01*
X85216Y71107D02*
Y71357D01*
X85066Y71187D02*
Y71357D01*
X85116Y71167D02*
Y71357D01*
X85016Y71196D02*
Y71357D01*
X84966Y71195D02*
Y71357D01*
X84916Y71184D02*
Y71357D01*
X84866Y71162D02*
Y71357D01*
X86016Y70977D02*
Y71357D01*
X85966Y70977D02*
Y71357D01*
X85916Y70977D02*
Y71357D01*
X85866Y70977D02*
Y71357D01*
X85416Y70977D02*
X87037D01*
X86416Y69592D02*
Y70073D01*
X86366Y69571D02*
Y70073D01*
X86316Y69536D02*
Y70073D01*
X85416Y70977D02*
X87037D01*
X86266Y69475D02*
Y70073D01*
X85816Y70977D02*
Y71357D01*
X85766Y70977D02*
Y71357D01*
X85716Y70977D02*
Y71357D01*
X85666Y70977D02*
Y71357D01*
X85616Y70977D02*
Y71357D01*
X85566Y70977D02*
Y71357D01*
X85516Y70977D02*
Y71357D01*
X85466Y70977D02*
Y71357D01*
X85416Y70977D02*
Y71357D01*
X85336Y71057D02*
X85416Y70977D01*
X87387Y70027D02*
X87539D01*
X87387Y69977D02*
X87507D01*
X87387Y69927D02*
X87484D01*
X87387Y69877D02*
X87468D01*
X87387Y69827D02*
X87459D01*
X87387Y69627D02*
X87484D01*
X87387Y69527D02*
X87539D01*
X87387Y69577D02*
X87507D01*
X87387Y69477D02*
X87582D01*
X87387Y69427D02*
X87644D01*
X87387Y69377D02*
X87748D01*
X87387Y69777D02*
X87456D01*
X86520Y69989D02*
Y70022D01*
X87387Y69727D02*
X87459D01*
X86516Y69986D02*
Y70026D01*
X87387Y69677D02*
X87468D01*
X86466Y69602D02*
Y69661D01*
X84868Y68977D02*
X86320D01*
X84896Y68927D02*
X86320D01*
X84961Y68327D02*
X86376D01*
X84966Y68277D02*
X86376D01*
X87466Y67252D02*
Y69686D01*
X84918Y68427D02*
X86376D01*
X84946Y68377D02*
X86376D01*
X87387Y67427D02*
X87937D01*
X87387Y67377D02*
X87946D01*
X84961Y68227D02*
X86376D01*
X84946Y68177D02*
X86376D01*
X86320Y68643D02*
Y69146D01*
X84916Y68827D02*
Y70073D01*
X84966Y68277D02*
Y70073D01*
X84911Y68877D02*
X86320D01*
X84916Y68827D02*
X86320D01*
X84916Y68430D02*
Y68827D01*
X84911Y68777D02*
X86320D01*
X84918Y68127D02*
X86376D01*
X84826Y69627D02*
X86490D01*
X84826Y69577D02*
X86377D01*
X84826Y69527D02*
X86307D01*
X84826Y69177D02*
X86290D01*
X84826Y69127D02*
X86320D01*
X84826Y69077D02*
X86320D01*
X84896Y68727D02*
X86320D01*
X84868Y68677D02*
X86320D01*
X84826Y69027D02*
X86320D01*
X84822Y68627D02*
X86321D01*
X84826Y69023D02*
Y69727D01*
X84816Y69784D02*
Y70051D01*
X84866Y68980D02*
Y70073D01*
X84826Y69477D02*
X86267D01*
X84826Y69427D02*
X86244D01*
X84826Y69377D02*
X86232D01*
X84826Y69327D02*
X86231D01*
X84826Y69277D02*
X86239D01*
X84826Y69227D02*
X86257D01*
X84872Y68477D02*
X86376D01*
X84876Y68077D02*
X86376D01*
X84876Y68027D02*
X86376D01*
X84876Y67977D02*
X86376D01*
X84876Y67927D02*
X86376D01*
X84876Y67877D02*
X86376D01*
X84876Y67827D02*
X86376D01*
X84876Y67777D02*
X86376D01*
X84876Y67727D02*
X86376D01*
X84876Y67677D02*
X86376D01*
X84876Y67627D02*
X86376D01*
X84876Y67571D02*
Y68080D01*
X84816Y68512D02*
Y68622D01*
X84866Y68482D02*
Y68673D01*
X84876Y67577D02*
X86376D01*
X84870Y67527D02*
X86376D01*
X84847Y67477D02*
X86376D01*
X90206Y70057D02*
X90206Y66907D01*
X90166Y66907D02*
Y70057D01*
X90116Y66907D02*
Y70057D01*
X90066Y66907D02*
Y70057D01*
X89816Y66907D02*
Y71357D01*
X89766Y66907D02*
Y71357D01*
X90016Y66907D02*
Y70057D01*
X89966Y66907D02*
Y70057D01*
X89916Y66907D02*
Y70057D01*
X89182Y66977D02*
X90206D01*
X89866Y66907D02*
Y70057D01*
X89716Y66907D02*
Y71357D01*
X89666Y66907D02*
Y71357D01*
X89616Y66907D02*
Y71357D01*
X89566Y66907D02*
Y71357D01*
X89516Y66907D02*
Y71357D01*
X89466Y66907D02*
Y71357D01*
X89416Y66907D02*
Y71357D01*
X89366Y66907D02*
Y71357D01*
X89316Y66907D02*
Y71357D01*
X89266Y66907D02*
Y71357D01*
X89186Y66927D02*
X90206D01*
X89216Y66907D02*
Y71357D01*
X88516Y66620D02*
Y67270D01*
X88466Y66520D02*
Y67215D01*
X89185Y66907D02*
X90206D01*
X88616Y66696D02*
Y66727D01*
X88566Y66668D02*
Y66815D01*
X88430Y66445D02*
X88459Y66473D01*
X88416Y66429D02*
Y67180D01*
X88366Y66055D02*
Y67156D01*
X88316Y66004D02*
Y67142D01*
X88266Y65912D02*
Y67137D01*
X88216Y62797D02*
Y67139D01*
X88373Y66061D02*
Y66307D01*
X88166Y62797D02*
Y67150D01*
X87383Y66977D02*
X88550D01*
X87289Y66927D02*
X88546D01*
X87090Y66877D02*
X88550D01*
X87090Y66777D02*
X88583D01*
X87090Y66827D02*
X88562D01*
X87090Y66727D02*
X88616D01*
X87090Y66677D02*
X88580D01*
X87090Y66627D02*
X88522D01*
X87126Y66477D02*
X88459D01*
X87090Y66577D02*
X88488D01*
X87090Y66527D02*
X88468D01*
X87666Y66364D02*
Y69413D01*
X87616Y66369D02*
Y69447D01*
X87716Y66350D02*
Y69388D01*
X87566Y66364D02*
Y69493D01*
X87516Y66349D02*
Y69560D01*
X87226Y66377D02*
X88386D01*
X87759Y66327D02*
X88374D01*
X87276D02*
X87475D01*
X87176Y66427D02*
X88415D01*
X88116Y62797D02*
Y67169D01*
X88066Y62797D02*
Y67199D01*
X88016Y62797D02*
Y67245D01*
X87816Y66277D02*
X88373D01*
X87849Y66227D02*
X88373D01*
X87868Y66177D02*
X88373D01*
X87877Y66127D02*
X88373D01*
X87875Y66077D02*
X88373D01*
X87864Y66027D02*
X88336D01*
X87841Y65977D02*
X88297D01*
X87916Y64139D02*
Y69359D01*
X87866Y66184D02*
Y69357D01*
X87966Y64035D02*
Y67322D01*
X87766Y66322D02*
Y69371D01*
X87816Y66276D02*
Y69361D01*
X87466Y66321D02*
Y67102D01*
X87416Y66279D02*
Y67009D01*
X87866Y64201D02*
Y66034D01*
X89806Y62797D02*
Y63307D01*
X89766Y62797D02*
Y63307D01*
X89716Y62797D02*
Y63307D01*
X88456D02*
X89806D01*
X89666Y62797D02*
Y63307D01*
X89616Y62797D02*
Y63307D01*
X89566Y62797D02*
Y63307D01*
X89516Y62797D02*
Y63307D01*
X89466Y62797D02*
Y63307D01*
X89416Y62797D02*
Y63307D01*
X89366Y62797D02*
Y63307D01*
X87950Y64077D02*
X88456D01*
X87986Y63927D02*
X88456D01*
Y63307D02*
Y65507D01*
X87969Y64027D02*
X88456D01*
X87980Y63977D02*
X88456D01*
X89316Y62797D02*
Y63307D01*
X89266Y62797D02*
Y63307D01*
X89216Y62797D02*
Y63307D01*
X87985Y63877D02*
X88456D01*
X87978Y63827D02*
X88456D01*
X89166Y62797D02*
Y63307D01*
X89116Y62797D02*
Y63307D01*
X89066Y62797D02*
Y63307D01*
X89016Y62797D02*
Y63307D01*
X88966Y62797D02*
Y63307D01*
X88916Y62797D02*
Y63307D01*
X88866Y62797D02*
Y63307D01*
X88816Y62797D02*
Y63307D01*
X88766Y62797D02*
Y63307D01*
X88686Y62797D02*
X89806D01*
X88716D02*
Y63307D01*
X88416Y62797D02*
Y65525D01*
X88366Y62797D02*
Y65559D01*
X88316Y62797D02*
Y65610D01*
X88266Y62797D02*
Y65702D01*
X88666Y62797D02*
Y63307D01*
X88616Y62797D02*
Y63307D01*
X88566Y62797D02*
Y63307D01*
X88516Y62797D02*
Y63307D01*
X88466Y62797D02*
Y63307D01*
X87803Y65927D02*
X88272D01*
X87734Y65877D02*
X88256D01*
X87071Y65827D02*
X88249D01*
X87056Y65677D02*
X88276D01*
X87076Y65777D02*
X88250D01*
X87028Y65627D02*
X88304D01*
X87566Y64327D02*
X88456D01*
X87765Y64277D02*
X88456D01*
X87838Y64227D02*
X88456D01*
X86982Y65577D02*
X88346D01*
X86887Y65527D02*
X88413D01*
X87766Y64276D02*
Y65896D01*
X87716Y64299D02*
Y65869D01*
X87816Y64244D02*
Y65942D01*
X87666Y64315D02*
Y65854D01*
X87466Y64315D02*
Y65897D01*
X87616Y64324D02*
Y65849D01*
X87566Y64327D02*
Y65854D01*
X87516Y64324D02*
Y65870D01*
X87056Y65877D02*
X87500D01*
X87071Y65727D02*
X88258D01*
X87924Y64127D02*
X88456D01*
X87965Y63777D02*
X88456D01*
X87966Y62797D02*
Y63779D01*
X87888Y64177D02*
X88456D01*
X87946Y63727D02*
X88456D01*
X87917Y63677D02*
X88456D01*
X87879Y63627D02*
X88456D01*
X87826Y63577D02*
X88456D01*
X87745Y63527D02*
X88456D01*
X87916Y62797D02*
Y63675D01*
X87866Y62797D02*
Y63613D01*
X87816Y62797D02*
Y63569D01*
X87766Y62797D02*
Y63537D01*
X87716Y62797D02*
Y63514D01*
X87666Y62797D02*
Y63499D01*
X87616Y62797D02*
Y63490D01*
X87566Y62797D02*
Y63487D01*
X87516Y62797D02*
Y63490D01*
X87466Y62797D02*
Y63499D01*
X87090Y66927D02*
X87146D01*
X87090Y66513D02*
Y66950D01*
X87116Y66487D02*
Y66937D01*
X86376Y67019D02*
Y68516D01*
X86366Y67009D02*
Y68526D01*
X86320Y66963D02*
X86376Y67019D01*
X86511Y66673D02*
X86556Y66718D01*
X86515Y66677D02*
X86556D01*
X86427Y66627D02*
X86556D01*
X86216Y66963D02*
Y70073D01*
X86166Y66963D02*
Y70073D01*
X86116Y66963D02*
Y70073D01*
X86066Y66963D02*
Y70073D01*
X86016Y66963D02*
Y70073D01*
X86316Y66963D02*
Y69150D01*
X86266Y66963D02*
Y69211D01*
X85966Y66963D02*
Y70073D01*
X85916Y66963D02*
Y70073D01*
X85866Y66963D02*
Y70073D01*
X87366Y66279D02*
Y66964D01*
X87266Y66337D02*
Y66921D01*
X87316Y66287D02*
Y66936D01*
X87166Y66437D02*
Y66922D01*
X87216Y66387D02*
Y66917D01*
X86556Y66207D02*
Y66718D01*
X86516Y65972D02*
Y66678D01*
X86466Y65972D02*
Y66641D01*
X86416Y65972D02*
Y66625D01*
X86366Y65972D02*
Y66623D01*
X86316Y65972D02*
Y66623D01*
X86266Y65972D02*
Y66623D01*
X86216Y65972D02*
Y66623D01*
X86166Y65972D02*
Y66623D01*
X86116Y65972D02*
Y66623D01*
X86066Y65972D02*
Y66623D01*
X86016Y65972D02*
Y66623D01*
X85966Y65972D02*
Y66623D01*
X85916Y65972D02*
Y66623D01*
X85866Y65972D02*
Y66623D01*
X85816Y66963D02*
Y70073D01*
X85766Y66963D02*
Y70073D01*
X85716Y66963D02*
Y70073D01*
X85666Y66963D02*
Y70073D01*
X85616Y66963D02*
Y70073D01*
X85566Y66963D02*
Y70073D01*
X85516Y66963D02*
Y70073D01*
X85466Y66963D02*
Y70073D01*
X85416Y66963D02*
Y70073D01*
X85366Y66963D02*
Y70073D01*
X85316Y66963D02*
Y70073D01*
X85266Y66963D02*
Y70073D01*
X85216Y66963D02*
Y70073D01*
X85166Y66963D02*
Y70073D01*
X85116Y66963D02*
Y70073D01*
X85066Y66963D02*
Y70073D01*
X85016Y66963D02*
Y70073D01*
X84966Y66963D02*
Y68277D01*
X84916Y66963D02*
Y68123D01*
X84866Y66963D02*
Y67514D01*
X84816Y66963D02*
Y67441D01*
X85816Y65972D02*
Y66623D01*
X85766Y65972D02*
Y66623D01*
X85716Y65972D02*
Y66623D01*
X85666Y65972D02*
Y66623D01*
X85616Y65972D02*
Y66623D01*
X85566Y65972D02*
Y66623D01*
X85516Y65972D02*
Y66623D01*
X85466Y65972D02*
Y66623D01*
X85416Y65972D02*
Y66623D01*
X85366Y65972D02*
Y66623D01*
X85316Y65972D02*
Y66623D01*
X85266Y65972D02*
Y66623D01*
X85216Y65972D02*
Y66623D01*
X85166Y65972D02*
Y66623D01*
X85116Y65972D02*
Y66623D01*
X85066Y65972D02*
Y66623D01*
X85016Y65972D02*
Y66623D01*
X84966Y65972D02*
Y66623D01*
X84916Y65972D02*
Y66623D01*
X84866Y65972D02*
Y66623D01*
X87324Y66279D02*
X87420D01*
X87090Y66513D02*
X87324Y66279D01*
X86985Y66138D02*
X87133Y65989D01*
X86986Y65977D02*
X87147D01*
X87416Y64299D02*
Y65939D01*
X87366Y64276D02*
Y65939D01*
X87316Y64244D02*
Y65939D01*
X87254D02*
X87420D01*
X87028Y65927D02*
X87432D01*
X86986Y66077D02*
X87046D01*
X86986Y65974D02*
Y66117D01*
X87016Y65943D02*
Y66106D01*
X86606Y66086D02*
X86646Y66046D01*
X86616Y65972D02*
Y66076D01*
X86986Y66027D02*
X87096D01*
X87066Y65848D02*
Y66056D01*
X86646Y65974D02*
Y66046D01*
X87266Y64201D02*
Y65939D01*
X87216Y64139D02*
Y65943D01*
X87166Y64035D02*
Y65963D01*
Y62797D02*
Y63779D01*
X87116Y62797D02*
Y66006D01*
X87416Y62797D02*
Y63514D01*
X87366Y62797D02*
Y63537D01*
X87316Y62797D02*
Y63569D01*
X87266Y62797D02*
Y63613D01*
X87216Y62797D02*
Y63675D01*
X87066Y62797D02*
Y65705D01*
X87016Y62797D02*
Y65611D01*
X86966Y62797D02*
Y65564D01*
X86666Y62797D02*
Y65564D01*
X86616Y62797D02*
Y65582D01*
X86916Y62797D02*
Y65537D01*
X86866Y62797D02*
Y65522D01*
X86816Y62797D02*
Y65517D01*
X86766Y62797D02*
Y65522D01*
X86716Y62797D02*
Y65537D01*
X86566Y65972D02*
Y66149D01*
Y62797D02*
Y65582D01*
X86516Y62797D02*
Y65582D01*
X86466Y62797D02*
Y65582D01*
X86416Y62797D02*
Y65582D01*
X86366Y62797D02*
Y65582D01*
X86316Y62797D02*
Y65582D01*
X86266Y62797D02*
Y65582D01*
X86216Y62797D02*
Y65582D01*
X86166Y62797D02*
Y65582D01*
X86116Y62797D02*
Y65582D01*
X84816Y65972D02*
Y66623D01*
X86066Y62797D02*
Y65582D01*
X86016Y62797D02*
Y65582D01*
X85966Y62797D02*
Y65582D01*
X85916Y62797D02*
Y65582D01*
X85866Y62797D02*
Y65582D01*
X85816Y62797D02*
Y65582D01*
X85766Y62797D02*
Y65582D01*
X85716Y62797D02*
Y65582D01*
X85666Y62797D02*
Y65582D01*
X85616Y62797D02*
Y65582D01*
X85566Y62797D02*
Y65582D01*
X85516Y62797D02*
Y65582D01*
X85466Y62797D02*
Y65582D01*
X85416Y62797D02*
Y65582D01*
X85366Y62797D02*
Y65582D01*
X85316Y62797D02*
Y65582D01*
X85266Y62797D02*
Y65582D01*
X85216Y62797D02*
Y65582D01*
X85166Y62797D02*
Y65582D01*
X85116Y62797D02*
Y65582D01*
X85066Y62797D02*
Y65582D01*
X85016Y62797D02*
Y65582D01*
X84966Y62797D02*
Y65582D01*
X84916Y62797D02*
Y65582D01*
X84866Y62797D02*
Y65582D01*
X84816Y62797D02*
Y65582D01*
Y71124D02*
Y71357D01*
X84766Y71058D02*
Y71357D01*
X84716Y70757D02*
Y71357D01*
X84666Y70757D02*
Y71357D01*
X84616Y70757D02*
Y71357D01*
X84566Y70757D02*
Y71357D01*
X84837Y70073D02*
X86470D01*
X84766Y70757D02*
Y70816D01*
X84785Y70027D02*
X86516D01*
X84466Y70757D02*
X84808D01*
X84516D02*
Y71357D01*
X84466Y70757D02*
Y71357D01*
X84416Y70749D02*
Y71357D01*
X84366Y70724D02*
Y71357D01*
X84316Y70677D02*
Y71357D01*
X84306Y70667D02*
X84346Y70707D01*
X84266Y70667D02*
Y71357D01*
X84216Y70667D02*
Y71357D01*
X84696Y69927D02*
X86467D01*
X84746Y69877D02*
X86444D01*
X84646Y69977D02*
X86507D01*
X84826Y69727D02*
X86439D01*
X84819Y69777D02*
X86431D01*
X84826Y69677D02*
X86457D01*
X84794Y69827D02*
X86432D01*
X84766Y69857D02*
Y70015D01*
X84716Y69907D02*
Y69994D01*
X84641Y69983D02*
X84776Y69847D01*
X84266Y67372D02*
Y69876D01*
X84216Y67367D02*
Y69926D01*
X84486Y69023D02*
Y69656D01*
X84466Y69004D02*
Y69676D01*
X84416Y68927D02*
Y69726D01*
X84366Y67472D02*
Y69776D01*
X84316Y67422D02*
Y69826D01*
X82206Y71357D02*
X89856D01*
X82206Y71327D02*
X89856D01*
X82206Y71277D02*
X89856D01*
X82206Y71227D02*
X89856D01*
X82206Y71177D02*
X84896D01*
X82206Y71127D02*
X84819D01*
X82206Y71077D02*
X84777D01*
X82206Y71027D02*
X84752D01*
X82206Y70977D02*
X84739D01*
X82206Y70827D02*
X84760D01*
X82206Y70777D02*
X84791D01*
X84116Y70727D02*
Y71357D01*
X84066Y70747D02*
Y71357D01*
X84166Y70693D02*
Y71357D01*
X84016Y70756D02*
Y71357D01*
X83966Y70755D02*
Y71357D01*
X82206Y70927D02*
X84736D01*
X84117Y70727D02*
X84370D01*
X83916Y70744D02*
Y71357D01*
X82206Y70877D02*
X84743D01*
X82206Y70727D02*
X83875D01*
X84184Y70677D02*
X84316D01*
X84193Y70667D02*
X84306D01*
X84166Y69977D02*
X84486Y69656D01*
X82646Y69877D02*
X84266D01*
X82646Y69827D02*
X84316D01*
X82646Y69727D02*
X84416D01*
X82646Y69777D02*
X84366D01*
X82646Y69677D02*
X84466D01*
X82646Y69627D02*
X84486D01*
X82646Y69577D02*
X84486D01*
X84166Y67367D02*
Y69976D01*
X84116Y67367D02*
Y69977D01*
X83023D02*
X84166D01*
X83023D02*
X84166D01*
X84066Y67367D02*
Y69977D01*
X84016Y67367D02*
Y69977D01*
X83966Y67367D02*
Y69977D01*
X82965Y69927D02*
X84216D01*
X83916Y67367D02*
Y69977D01*
X84727Y68577D02*
X86333D01*
X84766Y68530D02*
Y68591D01*
X84716Y68537D02*
Y68574D01*
X84666Y68534D02*
Y68567D01*
X84616Y68521D02*
Y68570D01*
X84802Y67427D02*
X86376D01*
X84777Y68527D02*
X86366D01*
X84752Y67377D02*
X86376D01*
X84566Y68496D02*
Y68583D01*
X84516Y68454D02*
Y68608D01*
X84466Y68377D02*
Y68649D01*
X84536Y67642D02*
Y68080D01*
X84466Y67572D02*
Y68177D01*
X84416Y67522D02*
Y68727D01*
X84516Y67622D02*
Y68099D01*
X84261Y67367D02*
X84536Y67642D01*
X83876Y67367D02*
X84261D01*
X82916Y67677D02*
X84536D01*
X82925Y67427D02*
X84321D01*
X84702Y67327D02*
X86376D01*
X84652Y67277D02*
X86376D01*
X84766Y66963D02*
Y67391D01*
X84602Y67227D02*
X86376D01*
X84452Y67077D02*
X84826Y67451D01*
X84552Y67177D02*
X86376D01*
X84502Y67127D02*
X86376D01*
X84452Y67077D02*
X86376D01*
X84332Y67027D02*
X86376D01*
X83896Y66977D02*
X86334D01*
X84716Y66963D02*
Y67341D01*
X84666Y66963D02*
Y67291D01*
X82926Y67377D02*
X84271D01*
X84616Y66963D02*
Y67241D01*
X83946Y67027D02*
X84332D01*
X83946D02*
X84332D01*
X82646Y69527D02*
X84486D01*
X82646Y69477D02*
X84486D01*
X82646Y69427D02*
X84486D01*
X82646Y69377D02*
X84486D01*
X82646Y69327D02*
X84486D01*
X82646Y69277D02*
X84486D01*
X82646Y69227D02*
X84486D01*
X82646Y69177D02*
X84486D01*
X82747Y68527D02*
X84635D01*
X82646Y69127D02*
X84486D01*
X81826Y68577D02*
X84585D01*
X82646Y69077D02*
X84486D01*
X82646Y69027D02*
X84486D01*
X82646Y68977D02*
X84444D01*
X82646Y68927D02*
X84416D01*
X82646Y68877D02*
X84401D01*
X82646Y68827D02*
X84396D01*
X81826Y68777D02*
X84401D01*
X81826Y68727D02*
X84416D01*
X81826Y68677D02*
X84444D01*
X81826Y68627D02*
X84490D01*
X82814Y68477D02*
X84540D01*
X82765Y68077D02*
X84536D01*
X82727Y67927D02*
X84536D01*
X82196Y68027D02*
X84536D01*
X82146Y67977D02*
X84536D01*
X82896Y67777D02*
X84536D01*
X82911Y67727D02*
X84536D01*
X82911Y67627D02*
X84521D01*
X82822Y67877D02*
X84536D01*
X82868Y67827D02*
X84536D01*
X82873Y68377D02*
X84466D01*
X82884Y68327D02*
X84451D01*
X82885Y68277D02*
X84446D01*
X82851Y68427D02*
X84494D01*
X82876Y68227D02*
X84451D01*
X82857Y68177D02*
X84466D01*
X82896Y67577D02*
X84471D01*
X82911Y67477D02*
X84371D01*
X82823Y68127D02*
X84494D01*
X82877Y67527D02*
X84421D01*
X83866Y70722D02*
Y71357D01*
X83816Y70684D02*
Y71357D01*
X83766Y70618D02*
Y71357D01*
X83716Y70317D02*
Y71357D01*
X83666Y70317D02*
Y71357D01*
X83616Y70317D02*
Y71357D01*
X83766Y70317D02*
Y70376D01*
X83566Y70317D02*
Y71357D01*
X83516Y70317D02*
Y71357D01*
X82947Y70377D02*
X83765D01*
X83014Y70327D02*
X83799D01*
X83466Y70317D02*
Y71357D01*
X83416Y70317D02*
Y71357D01*
X83366Y70317D02*
Y71357D01*
X82966Y70366D02*
Y71357D01*
X83016Y70324D02*
Y71357D01*
X82916Y70391D02*
Y71357D01*
X82866Y70404D02*
Y71357D01*
X82816Y70407D02*
Y71357D01*
X82766Y70400D02*
Y71357D01*
X82716Y70382D02*
Y71357D01*
X83866Y67366D02*
Y69977D01*
X83816Y67356D02*
Y69977D01*
X83766Y67326D02*
Y69977D01*
X83023Y70317D02*
X83808D01*
X83716Y67277D02*
Y69977D01*
X83666Y67227D02*
Y69977D01*
X83616Y67177D02*
Y69977D01*
X83566Y67127D02*
Y69977D01*
X83516Y67077D02*
Y69977D01*
X83466Y67023D02*
Y69977D01*
X83316Y70317D02*
Y71357D01*
X83266Y70317D02*
Y71357D01*
X83216Y70317D02*
Y71357D01*
X83166Y70317D02*
Y71357D01*
X83116Y70317D02*
Y71357D01*
X83066Y70317D02*
Y71357D01*
X82866Y68397D02*
Y69890D01*
X82916Y67677D02*
Y69903D01*
X82766Y68516D02*
Y69894D01*
X82816Y68474D02*
Y69887D01*
X82206Y70677D02*
X83808D01*
X82206Y70627D02*
X83771D01*
X82666Y70352D02*
Y71357D01*
X82206Y70577D02*
X83749D01*
X82206Y70527D02*
X83738D01*
X82206Y70477D02*
X83737D01*
X82206Y70427D02*
X83746D01*
X82206Y70377D02*
X82705D01*
X82206Y70327D02*
X82638D01*
X82206Y69977D02*
X82629D01*
X82206Y69927D02*
X82688D01*
X82616Y70300D02*
Y71357D01*
X82206Y70277D02*
X82601D01*
X82566Y70147D02*
Y71357D01*
X82206Y70227D02*
X82579D01*
X82206Y70177D02*
X82568D01*
X82616Y69897D02*
Y69993D01*
X82206Y70127D02*
X82567D01*
X82566Y69897D02*
Y70147D01*
X82206Y70077D02*
X82576D01*
X82206Y70027D02*
X82595D01*
X82666Y68554D02*
Y69942D01*
X82716Y68541D02*
Y69911D01*
X82516Y69897D02*
Y71357D01*
X82206Y69897D02*
X82646D01*
Y68787D02*
Y69897D01*
X82616Y68557D02*
Y68787D01*
X82566Y68550D02*
Y68787D01*
X81826D02*
X82646D01*
X82516Y68532D02*
Y68787D01*
X82466Y69897D02*
Y71357D01*
X82416Y69897D02*
Y71357D01*
X82366Y69897D02*
Y71357D01*
X82316Y69897D02*
Y71357D01*
X82266Y69897D02*
Y71357D01*
X82466Y68502D02*
Y68787D01*
X82416Y68467D02*
Y68787D01*
X82366Y68467D02*
Y68787D01*
X82216Y69897D02*
Y71357D01*
X82206Y69897D02*
Y71357D01*
X82816Y67882D02*
Y68119D01*
X82766Y67912D02*
Y68078D01*
X82866Y67830D02*
Y68197D01*
X82246Y68077D02*
X82487D01*
X82716Y67930D02*
Y68053D01*
X82666Y67937D02*
Y68040D01*
X82616Y67934D02*
Y68037D01*
X82566Y67921D02*
Y68044D01*
X82516Y67896D02*
Y68061D01*
X82316Y68467D02*
Y68787D01*
X82266Y68467D02*
Y68787D01*
X82216Y68466D02*
Y68787D01*
X82166Y68456D02*
Y68787D01*
X82116Y68426D02*
Y68787D01*
X82296Y68127D02*
X82429D01*
X82296D02*
X82429D01*
X82466Y67854D02*
Y68092D01*
X82226Y68467D02*
X82429D01*
X82926Y67327D02*
X83767D01*
X82926Y67277D02*
X83716D01*
X83486Y67047D02*
X83756Y67317D01*
X82926Y67227D02*
X83666D01*
X82926Y67177D02*
X83616D01*
X82926Y67127D02*
X83566D01*
X82926Y67077D02*
X83516D01*
X82926Y67027D02*
X83469D01*
X82926Y66977D02*
X83444D01*
X82916Y67464D02*
Y67677D01*
X82416Y67777D02*
Y68127D01*
X82926Y66974D02*
Y67407D01*
X82536Y67387D02*
X82586Y67337D01*
Y66974D02*
Y67337D01*
X82096Y67927D02*
X82585D01*
X82076Y67906D02*
X82296Y68127D01*
X82076Y67877D02*
X82490D01*
X81826Y68527D02*
X82505D01*
X81826Y68477D02*
X82438D01*
X82076Y67827D02*
X82444D01*
X82076Y67777D02*
X82416D01*
X82076Y67727D02*
X82401D01*
X82076Y67677D02*
X82396D01*
X82076Y67627D02*
X82401D01*
X82066Y68407D02*
Y68787D01*
X82016Y68407D02*
Y68787D01*
X81966Y68407D02*
Y68787D01*
X81916Y68407D02*
Y68787D01*
X81866Y68407D02*
Y68787D01*
X81826Y68407D02*
Y68787D01*
X82066Y68377D02*
X82106Y68417D01*
X81826Y68427D02*
X82117D01*
X81826Y68407D02*
X82066D01*
Y67377D02*
X82546D01*
X82069Y67427D02*
X82506D01*
X82066Y67327D02*
X82586D01*
X82066Y67277D02*
X82586D01*
X82066Y67227D02*
X82586D01*
X82066Y67177D02*
X82586D01*
X82066Y67127D02*
X82586D01*
X82066Y67077D02*
X82586D01*
X82066Y67027D02*
X82586D01*
X81745Y66977D02*
X82586D01*
X82076Y67527D02*
X82444D01*
X82076Y67577D02*
X82416D01*
X82076Y67477D02*
Y67906D01*
Y67477D02*
X82489D01*
X82066Y67007D02*
Y67419D01*
X81762Y67007D02*
X82066D01*
X80796D02*
X81290D01*
X80796Y66977D02*
X81307D01*
X84566Y66963D02*
Y67191D01*
X84516Y66963D02*
Y67141D01*
X84466Y66963D02*
Y67091D01*
X84416Y66963D02*
Y67049D01*
X84366Y66963D02*
Y67030D01*
X84281Y66963D02*
X86320D01*
X84375Y66477D02*
X86556D01*
X84351Y66623D02*
X86390D01*
X84395Y66427D02*
X86556D01*
X84315Y66577D02*
X86556D01*
X84341Y66527D02*
X86556D01*
X84316Y66963D02*
Y67027D01*
X84266Y66962D02*
Y67027D01*
X84216Y66950D02*
Y67027D01*
X84166Y66918D02*
Y67027D01*
X84315Y66586D02*
X84351Y66623D01*
X84316Y66552D02*
Y66588D01*
X84366Y66493D02*
Y66623D01*
X84315Y66554D02*
Y66586D01*
X84766Y65972D02*
Y66623D01*
X84716Y65972D02*
Y66623D01*
X84666Y65972D02*
Y66623D01*
X84404Y66377D02*
X86556D01*
X84616Y65972D02*
Y66623D01*
X84403Y66327D02*
X86556D01*
X84392Y66277D02*
X86556D01*
X84370Y66227D02*
X86556D01*
X84332Y66177D02*
X86559D01*
X84266Y66127D02*
X86576D01*
X84566Y65972D02*
Y66623D01*
X84516Y65972D02*
Y66623D01*
X84466Y65972D02*
Y66623D01*
X84416Y65972D02*
Y66623D01*
X84366Y65972D02*
Y66220D01*
X84316Y65972D02*
Y66161D01*
X84266Y65972D02*
Y66127D01*
X84216Y65972D02*
Y66107D01*
X84166Y65972D02*
Y66098D01*
X84116Y66869D02*
Y67027D01*
X84066Y66819D02*
Y67027D01*
X84016Y66768D02*
Y67027D01*
X83846Y66927D02*
X84176D01*
X83796Y66877D02*
X84124D01*
X84025Y66777D02*
X84160Y66913D01*
X83776Y66827D02*
X84074D01*
X83776Y66777D02*
X84024D01*
X83776Y66727D02*
X83990D01*
X83966Y66546D02*
Y67027D01*
X83975Y66554D02*
Y66657D01*
X83916Y66481D02*
Y66996D01*
X83776Y66856D02*
X83946Y67027D01*
X83776Y66677D02*
X83976D01*
X83776Y66627D02*
X83975D01*
X83776Y66577D02*
X83975D01*
X83776Y66527D02*
X83948D01*
X83776Y66477D02*
X83914D01*
X83776Y66427D02*
X83894D01*
X84116Y65972D02*
Y66098D01*
X84016Y65972D02*
Y66131D01*
X83966Y65972D02*
Y66168D01*
X83546Y66127D02*
X84023D01*
X83496Y66077D02*
X86616D01*
X84066Y65972D02*
Y66109D01*
X83886Y65972D02*
X86644D01*
X83446Y66027D02*
X86646D01*
X83396Y65977D02*
X86646D01*
X83769Y66377D02*
X83885D01*
X83866Y65971D02*
Y66946D01*
X83816Y65959D02*
Y66896D01*
X83744Y66327D02*
X83886D01*
X83696Y66277D02*
X83897D01*
X83916Y65972D02*
Y66233D01*
X83646Y66227D02*
X83920D01*
X83596Y66177D02*
X83957D01*
X84516Y63477D02*
Y65582D01*
X84466Y63477D02*
Y65582D01*
X84416Y63477D02*
Y65582D01*
X83962Y65577D02*
X86650D01*
X83967Y65582D02*
X86644D01*
X84366Y63477D02*
Y65582D01*
X84546Y63477D02*
X88456D01*
X83912Y65527D02*
X86745D01*
X84316Y63477D02*
Y65582D01*
X83862Y65477D02*
X88456D01*
X83812Y65427D02*
X88456D01*
X84266Y63477D02*
Y65582D01*
X84216Y63477D02*
Y65582D01*
X84166Y63477D02*
Y65582D01*
X84116Y63477D02*
Y65582D01*
X84066Y63477D02*
Y65582D01*
X84016Y63477D02*
Y65582D01*
X83966Y63477D02*
Y65581D01*
X83916Y63477D02*
Y65531D01*
X83866Y63477D02*
Y65481D01*
X83816Y63477D02*
Y65431D01*
X84546Y63277D02*
X89806D01*
X84546Y63227D02*
X89806D01*
X84546Y63177D02*
X89806D01*
X84546Y63127D02*
X89806D01*
X84546Y63077D02*
X89806D01*
X84546Y63027D02*
X89806D01*
X84546Y62977D02*
X89806D01*
X84546Y62927D02*
X89806D01*
X84546Y62877D02*
X89806D01*
X84546Y62827D02*
X89806D01*
X84766Y62797D02*
Y65582D01*
X84716Y62797D02*
Y65582D01*
X84666Y62797D02*
Y65582D01*
X84616Y62797D02*
Y65582D01*
X84566Y62797D02*
Y65582D01*
X84546Y63427D02*
X88456D01*
X84546Y63377D02*
X88456D01*
X84546Y62797D02*
Y63477D01*
Y63327D02*
X88456D01*
X84546Y62797D02*
X88686D01*
X83762Y65377D02*
X88456D01*
X83749Y65327D02*
X88456D01*
X83732Y65277D02*
X88456D01*
X83701Y65227D02*
X88456D01*
X83649Y65177D02*
X88456D01*
X80796Y65127D02*
X88456D01*
X80796Y65077D02*
X88456D01*
X80796Y65027D02*
X88456D01*
X80796Y64977D02*
X88456D01*
X80796Y64927D02*
X88456D01*
X80796Y64877D02*
X88456D01*
X80796Y64827D02*
X88456D01*
X83756Y65370D02*
X83967Y65582D01*
X80796Y64777D02*
X88456D01*
X80796Y64727D02*
X88456D01*
X80796Y64677D02*
X88456D01*
X80796Y64627D02*
X88456D01*
X80796Y64577D02*
X88456D01*
X80796Y64527D02*
X88456D01*
X80796Y64477D02*
X88456D01*
X80796Y64427D02*
X88456D01*
X80796Y64377D02*
X88456D01*
X80796Y64327D02*
X87566D01*
X80796Y64277D02*
X87367D01*
X80796Y64227D02*
X87294D01*
X80796Y64177D02*
X87244D01*
X80796Y64127D02*
X87208D01*
X80796Y63677D02*
X87215D01*
X80796Y63627D02*
X87253D01*
X80796Y63577D02*
X87306D01*
X80796Y63527D02*
X87387D01*
X80796Y64077D02*
X87182D01*
X80796Y64027D02*
X87164D01*
X80796Y63977D02*
X87152D01*
X80796Y63927D02*
X87147D01*
X80796Y63877D02*
X87147D01*
X80796Y63827D02*
X87154D01*
X80796Y63777D02*
X87167D01*
X80796Y63727D02*
X87187D01*
X80796Y63477D02*
X84546D01*
X80796D02*
X84546D01*
X83776Y66427D02*
Y66856D01*
X82968Y66927D02*
X83436D01*
X82996Y66877D02*
X83436D01*
X83011Y66827D02*
X83436D01*
X83016Y66777D02*
X83436D01*
X83011Y66727D02*
X83436D01*
X82996Y66677D02*
X83436D01*
X82968Y66627D02*
X83436D01*
X82922Y66577D02*
X83436D01*
X83416Y66477D02*
Y69977D01*
X83016Y66777D02*
Y69969D01*
X83366Y66427D02*
Y69977D01*
X82966Y66930D02*
Y69928D01*
X82516Y66877D02*
Y67411D01*
X82827Y66527D02*
X83436D01*
Y66497D02*
Y66927D01*
X82566Y66954D02*
Y67357D01*
X83316Y66377D02*
Y69977D01*
X83266Y66327D02*
Y69977D01*
X83216Y66277D02*
Y69977D01*
X83166Y66247D02*
Y69977D01*
X83116Y66247D02*
Y69977D01*
X83016Y66282D02*
Y66777D01*
X82966Y66312D02*
Y66623D01*
X83066Y66247D02*
Y69977D01*
X82916Y66330D02*
Y66572D01*
X82866Y66337D02*
Y66541D01*
X82466Y63477D02*
Y67499D01*
X82416Y63477D02*
Y67577D01*
X82366Y63477D02*
Y68127D01*
X82316Y63477D02*
Y68127D01*
X82266Y63477D02*
Y68096D01*
X82816Y66334D02*
Y66524D01*
X82716Y66296D02*
Y66520D01*
X82616Y66177D02*
Y66558D01*
X82566Y63477D02*
Y66599D01*
X82516Y63477D02*
Y66677D01*
X82216Y63477D02*
Y68046D01*
X82166Y63477D02*
Y67996D01*
X82116Y63477D02*
Y67946D01*
X81704Y66927D02*
X82544D01*
X81626Y66877D02*
X82516D01*
X80796Y66827D02*
X82501D01*
X80796Y66727D02*
X82501D01*
X80796Y66777D02*
X82496D01*
X80796Y66677D02*
X82516D01*
X80796Y66627D02*
X82544D01*
X80796Y66577D02*
X82590D01*
X82066Y63477D02*
Y67007D01*
X82016Y63477D02*
Y67007D01*
X81966Y63477D02*
Y67007D01*
X81916Y63477D02*
Y67007D01*
X81866Y63477D02*
Y67007D01*
X81816Y63477D02*
Y67007D01*
X81766Y63477D02*
Y67007D01*
X80796Y66927D02*
X81349D01*
X80796Y66877D02*
X81426D01*
X81716Y63477D02*
Y66939D01*
X81666Y63477D02*
Y66898D01*
X81366Y63477D02*
Y66912D01*
X81316Y63477D02*
Y66963D01*
X81266Y63477D02*
Y67007D01*
X81616Y63477D02*
Y66873D01*
X81566Y63477D02*
Y66860D01*
X81516Y63477D02*
Y66857D01*
X81466Y63477D02*
Y66864D01*
X81416Y63477D02*
Y66881D01*
X81216Y63477D02*
Y67007D01*
X81166Y63477D02*
Y67007D01*
X81116Y63477D02*
Y67007D01*
X81066Y63477D02*
Y67007D01*
X81016Y63477D02*
Y67007D01*
X80966Y63477D02*
Y67007D01*
X80916Y63477D02*
Y67007D01*
X80866Y63477D02*
Y67007D01*
X80816Y63477D02*
Y67007D01*
X80796Y63477D02*
Y67007D01*
X83766Y65930D02*
Y66369D01*
X83376Y65957D02*
X83726Y66306D01*
X83716Y65883D02*
Y66296D01*
X83666Y65833D02*
Y66246D01*
X83616Y65783D02*
Y66196D01*
X83566Y65733D02*
Y66146D01*
X83480Y65646D02*
X83748Y65915D01*
X83336Y65927D02*
X83761D01*
X83022Y65877D02*
X83710D01*
X83516Y65683D02*
Y66096D01*
X83186Y66247D02*
X83436Y66497D01*
X83466Y65645D02*
Y66046D01*
X83022Y66277D02*
X83216D01*
X83053Y66247D02*
X83186D01*
X83416Y65634D02*
Y65996D01*
X83366Y65612D02*
Y65947D01*
X83053Y65907D02*
X83256D01*
X83766Y63477D02*
Y65381D01*
X83716Y63477D02*
Y65248D01*
X83666Y63477D02*
Y65190D01*
X83616Y63477D02*
Y65156D01*
X83566Y63477D02*
Y65136D01*
X83516Y63477D02*
Y65128D01*
X83466Y63477D02*
Y65129D01*
X83416Y63477D02*
Y65139D01*
X83366Y63477D02*
Y65162D01*
X83316Y65574D02*
Y65918D01*
X83266Y65508D02*
Y65907D01*
X83216Y63477D02*
Y65907D01*
X83166Y63477D02*
Y65907D01*
X83116Y63477D02*
Y65907D01*
X83316Y63477D02*
Y65199D01*
X83266Y63477D02*
Y65266D01*
X83066Y63477D02*
Y65907D01*
X83016Y63477D02*
Y65872D01*
X82966Y63477D02*
Y65841D01*
X80796Y66477D02*
X83416D01*
X80796Y66527D02*
X82685D01*
X82766Y66321D02*
Y66517D01*
X80796Y66427D02*
X83366D01*
X80796Y66377D02*
X83316D01*
X82927Y65827D02*
X83660D01*
X82927Y66327D02*
X83266D01*
X80796D02*
X82785D01*
X80796Y65827D02*
X82785D01*
X80796Y66277D02*
X82690D01*
X82666Y66254D02*
Y66533D01*
X80796Y66227D02*
X82644D01*
X80796Y66177D02*
X82616D01*
X80796Y66127D02*
X82601D01*
X80796Y66077D02*
X82596D01*
X80796Y66027D02*
X82601D01*
X80796Y65977D02*
X82616D01*
X80796Y65927D02*
X82644D01*
X80796Y65877D02*
X82690D01*
X80796Y65777D02*
X83610D01*
X80796Y65727D02*
X83560D01*
X80796Y65677D02*
X83510D01*
X80796Y65627D02*
X83396D01*
X80796Y65577D02*
X83319D01*
X80796Y65527D02*
X83277D01*
X80796Y65477D02*
X83252D01*
X80796Y65427D02*
X83239D01*
X80796Y65227D02*
X83291D01*
X80796Y65177D02*
X83343D01*
X82916Y63477D02*
Y65824D01*
X82866Y63477D02*
Y65817D01*
X82716Y63477D02*
Y65858D01*
X82666Y63477D02*
Y65899D01*
X82616Y63477D02*
Y65977D01*
X80796Y65377D02*
X83236D01*
X82816Y63477D02*
Y65820D01*
X82766Y63477D02*
Y65833D01*
X80796Y65327D02*
X83243D01*
X80796Y65277D02*
X83260D01*
X90836Y68777D02*
Y69707D01*
X90676Y68617D02*
X90836Y68777D01*
X90676Y66817D02*
Y68617D01*
X90206Y66347D02*
X90676Y66817D01*
X79310Y51968D02*
X79056Y51434D01*
X78955Y51968D02*
X79310D01*
X79430Y51358D02*
X79785Y51968D01*
X79973D02*
X79897Y51942D01*
X79846Y51866D01*
X79821Y51739D01*
Y51663D01*
X79846Y51536D01*
X79897Y51460D01*
X79973Y51434D01*
X80024D01*
X80100Y51460D01*
X80151Y51536D01*
X80176Y51663D01*
Y51739D01*
X80151Y51866D01*
X80100Y51942D01*
X80024Y51968D01*
X79973D01*
X80600D02*
X80346D01*
X80321Y51739D01*
X80346Y51765D01*
X80423Y51790D01*
X80499D01*
X80575Y51765D01*
X80626Y51714D01*
X80651Y51638D01*
Y51587D01*
X80626Y51511D01*
X80575Y51460D01*
X80499Y51434D01*
X80423D01*
X80346Y51460D01*
X80321Y51485D01*
X80296Y51536D01*
X81608Y51968D02*
Y51434D01*
X81964Y51968D02*
X81608Y51612D01*
X81735Y51739D02*
X81964Y51434D01*
X82083Y51968D02*
Y51434D01*
X82439Y51968D02*
X82083Y51612D01*
X82210Y51739D02*
X82439Y51434D01*
D25*
X88568Y65807D02*
Y66307D01*
X83886Y65777D02*
X86816D01*
X83496Y65387D02*
X83886Y65777D01*
X88568Y66307D02*
X88718Y66457D01*
X72242Y82992D02*
X72575D01*
X72409D01*
Y83991D01*
X72242Y83825D01*
X73075D02*
X73242Y83991D01*
X73575D01*
X73742Y83825D01*
Y83158D01*
X73575Y82992D01*
X73242D01*
X73075Y83158D01*
Y83825D01*
X74075Y82992D02*
X74408Y83325D01*
Y83658D01*
X74075Y83991D01*
X76574Y83825D02*
X76407Y83991D01*
X76074D01*
X75908Y83825D01*
Y83158D01*
X76074Y82992D01*
X76407D01*
X76574Y83158D01*
Y83492D01*
X76241D01*
X76907Y82992D02*
Y83991D01*
X77407D01*
X77574Y83825D01*
Y83492D01*
X77407Y83325D01*
X76907D01*
X77240D02*
X77574Y82992D01*
X78573Y83991D02*
X77907D01*
Y82992D01*
X78573D01*
X77907Y83492D02*
X78240D01*
X79573Y83991D02*
X78907D01*
Y82992D01*
X79573D01*
X78907Y83492D02*
X79240D01*
X79906Y82992D02*
Y83991D01*
X80573Y82992D01*
Y83991D01*
X82572Y83825D02*
X82405Y83991D01*
X82072D01*
X81906Y83825D01*
Y83658D01*
X82072Y83492D01*
X82405D01*
X82572Y83325D01*
Y83158D01*
X82405Y82992D01*
X82072D01*
X81906Y83158D01*
X83405Y83991D02*
X83072D01*
X82905Y83825D01*
Y83158D01*
X83072Y82992D01*
X83405D01*
X83572Y83158D01*
Y83825D01*
X83405Y83991D01*
X83905D02*
Y82992D01*
X84571D01*
X84905Y83991D02*
Y82992D01*
X85404D01*
X85571Y83158D01*
Y83825D01*
X85404Y83991D01*
X84905D01*
X86571D02*
X85904D01*
Y82992D01*
X86571D01*
X85904Y83492D02*
X86237D01*
X86904Y82992D02*
Y83991D01*
X87404D01*
X87570Y83825D01*
Y83492D01*
X87404Y83325D01*
X86904D01*
X87237D02*
X87570Y82992D01*
X88903D02*
Y83991D01*
X89237Y83658D01*
X89570Y83991D01*
Y82992D01*
X89903D02*
Y83658D01*
X90236Y83991D01*
X90569Y83658D01*
Y82992D01*
Y83492D01*
X89903D01*
X91569Y83825D02*
X91403Y83991D01*
X91069D01*
X90903Y83825D01*
Y83658D01*
X91069Y83492D01*
X91403D01*
X91569Y83325D01*
Y83158D01*
X91403Y82992D01*
X91069D01*
X90903Y83158D01*
X91902Y83991D02*
Y82992D01*
Y83325D01*
X92569Y83991D01*
X92069Y83492D01*
X92569Y82992D01*
X93902Y83991D02*
Y82992D01*
X94402D01*
X94568Y83158D01*
Y83325D01*
X94402Y83492D01*
X93902D01*
X94402D01*
X94568Y83658D01*
Y83825D01*
X94402Y83991D01*
X93902D01*
X95401D02*
X95068D01*
X94901Y83825D01*
Y83158D01*
X95068Y82992D01*
X95401D01*
X95568Y83158D01*
Y83825D01*
X95401Y83991D01*
X95901D02*
X96567D01*
X96234D01*
Y82992D01*
X96901Y83991D02*
Y82992D01*
Y83492D01*
X97567D01*
Y83991D01*
Y82992D01*
X99567Y83825D02*
X99400Y83991D01*
X99067D01*
X98900Y83825D01*
Y83658D01*
X99067Y83492D01*
X99400D01*
X99567Y83325D01*
Y83158D01*
X99400Y82992D01*
X99067D01*
X98900Y83158D01*
X99900Y83991D02*
X100233D01*
X100066D01*
Y82992D01*
X99900D01*
X100233D01*
X100733Y83991D02*
Y82992D01*
X101233D01*
X101399Y83158D01*
Y83825D01*
X101233Y83991D01*
X100733D01*
X102399D02*
X101732D01*
Y82992D01*
X102399D01*
X101732Y83492D02*
X102066D01*
X103399Y83825D02*
X103232Y83991D01*
X102899D01*
X102732Y83825D01*
Y83658D01*
X102899Y83492D01*
X103232D01*
X103399Y83325D01*
Y83158D01*
X103232Y82992D01*
X102899D01*
X102732Y83158D01*
X72242Y102992D02*
Y103991D01*
X72908Y102992D01*
Y103991D01*
X73742D02*
X73408D01*
X73242Y103825D01*
Y103158D01*
X73408Y102992D01*
X73742D01*
X73908Y103158D01*
Y103825D01*
X73742Y103991D01*
X74241D02*
X74908D01*
X74575D01*
Y102992D01*
X75908Y103991D02*
X75241D01*
Y102992D01*
X75908D01*
X75241Y103492D02*
X75574D01*
X76907Y103825D02*
X76741Y103991D01*
X76407D01*
X76241Y103825D01*
Y103658D01*
X76407Y103492D01*
X76741D01*
X76907Y103325D01*
Y103158D01*
X76741Y102992D01*
X76407D01*
X76241Y103158D01*
X72242Y97825D02*
X72409Y97991D01*
X72742D01*
X72908Y97825D01*
Y97658D01*
X72742Y97492D01*
X72575D01*
X72742D01*
X72908Y97325D01*
Y97158D01*
X72742Y96992D01*
X72409D01*
X72242Y97158D01*
X73242Y96992D02*
X73575Y97325D01*
Y97658D01*
X73242Y97991D01*
X75741D02*
X75074D01*
Y96992D01*
X75741D01*
X75074Y97492D02*
X75408D01*
X76074Y96992D02*
Y97658D01*
X76407Y97991D01*
X76741Y97658D01*
Y96992D01*
Y97492D01*
X76074D01*
X77740Y97825D02*
X77574Y97991D01*
X77240D01*
X77074Y97825D01*
Y97158D01*
X77240Y96992D01*
X77574D01*
X77740Y97158D01*
X78073Y97991D02*
Y96992D01*
Y97492D01*
X78740D01*
Y97991D01*
Y96992D01*
X80073Y97991D02*
Y96992D01*
X80573D01*
X80739Y97158D01*
Y97325D01*
X80573Y97492D01*
X80073D01*
X80573D01*
X80739Y97658D01*
Y97825D01*
X80573Y97991D01*
X80073D01*
X81572D02*
X81239D01*
X81073Y97825D01*
Y97158D01*
X81239Y96992D01*
X81572D01*
X81739Y97158D01*
Y97825D01*
X81572Y97991D01*
X82072Y96992D02*
Y97658D01*
X82405Y97991D01*
X82739Y97658D01*
Y96992D01*
Y97492D01*
X82072D01*
X83072Y96992D02*
Y97991D01*
X83572D01*
X83738Y97825D01*
Y97492D01*
X83572Y97325D01*
X83072D01*
X83405D02*
X83738Y96992D01*
X84072Y97991D02*
Y96992D01*
X84571D01*
X84738Y97158D01*
Y97825D01*
X84571Y97991D01*
X84072D01*
X86071D02*
X86404D01*
X86237D01*
Y96992D01*
X86071D01*
X86404D01*
X87570Y97825D02*
X87404Y97991D01*
X87071D01*
X86904Y97825D01*
Y97658D01*
X87071Y97492D01*
X87404D01*
X87570Y97325D01*
Y97158D01*
X87404Y96992D01*
X87071D01*
X86904Y97158D01*
X89570Y96992D02*
X88903D01*
X89570Y97658D01*
Y97825D01*
X89403Y97991D01*
X89070D01*
X88903Y97825D01*
X90903Y97991D02*
Y96992D01*
X91569D01*
X91902D02*
Y97658D01*
X92236Y97991D01*
X92569Y97658D01*
Y96992D01*
Y97492D01*
X91902D01*
X92902Y97991D02*
Y97825D01*
X93235Y97492D01*
X93568Y97825D01*
Y97991D01*
X93235Y97492D02*
Y96992D01*
X94568Y97991D02*
X93902D01*
Y96992D01*
X94568D01*
X93902Y97492D02*
X94235D01*
X94901Y96992D02*
Y97991D01*
X95401D01*
X95568Y97825D01*
Y97492D01*
X95401Y97325D01*
X94901D01*
X95235D02*
X95568Y96992D01*
X96901Y97991D02*
Y96992D01*
X97234Y97325D01*
X97567Y96992D01*
Y97991D01*
X97900D02*
X98234D01*
X98067D01*
Y96992D01*
X97900D01*
X98234D01*
X98733Y97991D02*
X99400D01*
X99067D01*
Y96992D01*
X99733Y97991D02*
Y96992D01*
Y97492D01*
X100400D01*
Y97991D01*
Y96992D01*
X101732Y97991D02*
X102399D01*
X102066D01*
Y96992D01*
X102732Y97991D02*
Y96992D01*
Y97492D01*
X103399D01*
Y97991D01*
Y96992D01*
X103732Y97991D02*
X104065D01*
X103898D01*
Y96992D01*
X103732D01*
X104065D01*
X105231Y97825D02*
X105065Y97991D01*
X104732D01*
X104565Y97825D01*
Y97158D01*
X104732Y96992D01*
X105065D01*
X105231Y97158D01*
X105565Y97991D02*
Y96992D01*
Y97325D01*
X106231Y97991D01*
X105731Y97492D01*
X106231Y96992D01*
X106564D02*
Y97991D01*
X107231Y96992D01*
Y97991D01*
X108230D02*
X107564D01*
Y96992D01*
X108230D01*
X107564Y97492D02*
X107897D01*
X109230Y97825D02*
X109063Y97991D01*
X108730D01*
X108564Y97825D01*
Y97658D01*
X108730Y97492D01*
X109063D01*
X109230Y97325D01*
Y97158D01*
X109063Y96992D01*
X108730D01*
X108564Y97158D01*
X110230Y97825D02*
X110063Y97991D01*
X109730D01*
X109563Y97825D01*
Y97658D01*
X109730Y97492D01*
X110063D01*
X110230Y97325D01*
Y97158D01*
X110063Y96992D01*
X109730D01*
X109563Y97158D01*
X112062Y97991D02*
X111729D01*
X111563Y97825D01*
Y97158D01*
X111729Y96992D01*
X112062D01*
X112229Y97158D01*
Y97825D01*
X112062Y97991D01*
X113229D02*
X112562D01*
Y97492D01*
X112896D01*
X112562D01*
Y96992D01*
X114562D02*
Y97158D01*
X114728D01*
Y96992D01*
X114562D01*
X115395Y97825D02*
X115561Y97991D01*
X115895D01*
X116061Y97825D01*
Y97158D01*
X115895Y96992D01*
X115561D01*
X115395Y97158D01*
Y97825D01*
X116394Y96992D02*
X116728D01*
X116561D01*
Y97991D01*
X116394Y97825D01*
X117227D02*
X117394Y97991D01*
X117727D01*
X117894Y97825D01*
Y97158D01*
X117727Y96992D01*
X117394D01*
X117227Y97158D01*
Y97825D01*
X119227Y97991D02*
X119560D01*
X119393D01*
Y96992D01*
X119227D01*
X119560D01*
X120060D02*
Y97991D01*
X120726Y96992D01*
Y97991D01*
X72742Y94992D02*
Y95991D01*
X72242Y95492D01*
X72908D01*
X73242Y94992D02*
X73575Y95325D01*
Y95658D01*
X73242Y95991D01*
X75741Y95825D02*
X75574Y95991D01*
X75241D01*
X75074Y95825D01*
Y95158D01*
X75241Y94992D01*
X75574D01*
X75741Y95158D01*
X76574Y95991D02*
X76241D01*
X76074Y95825D01*
Y95158D01*
X76241Y94992D01*
X76574D01*
X76741Y95158D01*
Y95825D01*
X76574Y95991D01*
X77074Y94992D02*
Y95991D01*
X77574D01*
X77740Y95825D01*
Y95492D01*
X77574Y95325D01*
X77074D01*
X78073Y94992D02*
Y95991D01*
X78573D01*
X78740Y95825D01*
Y95492D01*
X78573Y95325D01*
X78073D01*
X79740Y95991D02*
X79073D01*
Y94992D01*
X79740D01*
X79073Y95492D02*
X79406D01*
X80073Y94992D02*
Y95991D01*
X80573D01*
X80739Y95825D01*
Y95492D01*
X80573Y95325D01*
X80073D01*
X80406D02*
X80739Y94992D01*
X82072Y95991D02*
Y94992D01*
X82405Y95325D01*
X82739Y94992D01*
Y95991D01*
X83738D02*
X83072D01*
Y94992D01*
X83738D01*
X83072Y95492D02*
X83405D01*
X84072Y95991D02*
X84405D01*
X84238D01*
Y94992D01*
X84072D01*
X84405D01*
X85571Y95825D02*
X85404Y95991D01*
X85071D01*
X84905Y95825D01*
Y95158D01*
X85071Y94992D01*
X85404D01*
X85571Y95158D01*
Y95492D01*
X85238D01*
X85904Y95991D02*
Y94992D01*
Y95492D01*
X86571D01*
Y95991D01*
Y94992D01*
X86904Y95991D02*
X87570D01*
X87237D01*
Y94992D01*
X88903Y95991D02*
X89237D01*
X89070D01*
Y94992D01*
X88903D01*
X89237D01*
X90403Y95825D02*
X90236Y95991D01*
X89903D01*
X89736Y95825D01*
Y95658D01*
X89903Y95492D01*
X90236D01*
X90403Y95325D01*
Y95158D01*
X90236Y94992D01*
X89903D01*
X89736Y95158D01*
X91736Y94992D02*
X92069D01*
X91902D01*
Y95991D01*
X91736Y95825D01*
X94068Y95991D02*
X93735D01*
X93568Y95825D01*
Y95158D01*
X93735Y94992D01*
X94068D01*
X94235Y95158D01*
Y95825D01*
X94068Y95991D01*
X94568D02*
Y95158D01*
X94735Y94992D01*
X95068D01*
X95235Y95158D01*
Y95991D01*
X95568Y94992D02*
Y95991D01*
X96234Y94992D01*
Y95991D01*
X97234Y95825D02*
X97067Y95991D01*
X96734D01*
X96567Y95825D01*
Y95158D01*
X96734Y94992D01*
X97067D01*
X97234Y95158D01*
X98234Y95991D02*
X97567D01*
Y94992D01*
X98234D01*
X97567Y95492D02*
X97900D01*
X72908Y93991D02*
X72242D01*
Y93492D01*
X72575Y93658D01*
X72742D01*
X72908Y93492D01*
Y93158D01*
X72742Y92992D01*
X72409D01*
X72242Y93158D01*
X73242Y92992D02*
X73575Y93325D01*
Y93658D01*
X73242Y93991D01*
X75741D02*
X75074D01*
Y93492D01*
X75408D01*
X75074D01*
Y92992D01*
X76074Y93991D02*
X76407D01*
X76241D01*
Y92992D01*
X76074D01*
X76407D01*
X76907D02*
Y93991D01*
X77574Y92992D01*
Y93991D01*
X77907D02*
X78240D01*
X78073D01*
Y92992D01*
X77907D01*
X78240D01*
X79406Y93825D02*
X79240Y93991D01*
X78907D01*
X78740Y93825D01*
Y93658D01*
X78907Y93492D01*
X79240D01*
X79406Y93325D01*
Y93158D01*
X79240Y92992D01*
X78907D01*
X78740Y93158D01*
X79740Y93991D02*
Y92992D01*
Y93492D01*
X80406D01*
Y93991D01*
Y92992D01*
X81739Y93991D02*
X82072D01*
X81906D01*
Y92992D01*
X81739D01*
X82072D01*
X83238Y93825D02*
X83072Y93991D01*
X82739D01*
X82572Y93825D01*
Y93658D01*
X82739Y93492D01*
X83072D01*
X83238Y93325D01*
Y93158D01*
X83072Y92992D01*
X82739D01*
X82572Y93158D01*
X85238Y93825D02*
X85071Y93991D01*
X84738D01*
X84571Y93825D01*
Y93658D01*
X84738Y93492D01*
X85071D01*
X85238Y93325D01*
Y93158D01*
X85071Y92992D01*
X84738D01*
X84571Y93158D01*
X85571Y92992D02*
Y93991D01*
X85904Y93658D01*
X86237Y93991D01*
Y92992D01*
X87071Y93991D02*
X86737D01*
X86571Y93825D01*
Y93158D01*
X86737Y92992D01*
X87071D01*
X87237Y93158D01*
Y93825D01*
X87071Y93991D01*
X87570D02*
Y92992D01*
X88070D01*
X88237Y93158D01*
Y93325D01*
X88070Y93492D01*
X87570D01*
X88070D01*
X88237Y93658D01*
Y93825D01*
X88070Y93991D01*
X87570D01*
X89237Y93825D02*
X89070Y93991D01*
X88737D01*
X88570Y93825D01*
Y93158D01*
X88737Y92992D01*
X89070D01*
X89237Y93158D01*
X72908Y91991D02*
X72575Y91825D01*
X72242Y91492D01*
Y91158D01*
X72409Y90992D01*
X72742D01*
X72908Y91158D01*
Y91325D01*
X72742Y91492D01*
X72242D01*
X73242Y90992D02*
X73575Y91325D01*
Y91658D01*
X73242Y91991D01*
X75074Y90992D02*
Y91991D01*
X75574D01*
X75741Y91825D01*
Y91492D01*
X75574Y91325D01*
X75074D01*
X75408D02*
X75741Y90992D01*
X76741Y91991D02*
X76074D01*
Y90992D01*
X76741D01*
X76074Y91492D02*
X76407D01*
X77740Y91825D02*
X77574Y91991D01*
X77240D01*
X77074Y91825D01*
Y91158D01*
X77240Y90992D01*
X77574D01*
X77740Y91158D01*
X78073Y91991D02*
X78740D01*
X78407D01*
Y90992D01*
X79073D02*
Y91658D01*
X79406Y91991D01*
X79740Y91658D01*
Y90992D01*
Y91492D01*
X79073D01*
X80073Y90992D02*
Y91991D01*
X80739Y90992D01*
Y91991D01*
X81739Y91825D02*
X81572Y91991D01*
X81239D01*
X81073Y91825D01*
Y91158D01*
X81239Y90992D01*
X81572D01*
X81739Y91158D01*
Y91492D01*
X81406D01*
X82072Y91991D02*
Y91158D01*
X82239Y90992D01*
X82572D01*
X82739Y91158D01*
Y91991D01*
X83072D02*
Y90992D01*
X83738D01*
X84072D02*
Y91658D01*
X84405Y91991D01*
X84738Y91658D01*
Y90992D01*
Y91492D01*
X84072D01*
X85071Y90992D02*
Y91991D01*
X85571D01*
X85738Y91825D01*
Y91492D01*
X85571Y91325D01*
X85071D01*
X85404D02*
X85738Y90992D01*
X87071Y91991D02*
Y90992D01*
X87570D01*
X87737Y91158D01*
Y91325D01*
X87570Y91492D01*
X87071D01*
X87570D01*
X87737Y91658D01*
Y91825D01*
X87570Y91991D01*
X87071D01*
X88570D02*
X88237D01*
X88070Y91825D01*
Y91158D01*
X88237Y90992D01*
X88570D01*
X88737Y91158D01*
Y91825D01*
X88570Y91991D01*
X89070Y90992D02*
Y91658D01*
X89403Y91991D01*
X89736Y91658D01*
Y90992D01*
Y91492D01*
X89070D01*
X90070Y90992D02*
Y91991D01*
X90569D01*
X90736Y91825D01*
Y91492D01*
X90569Y91325D01*
X90070D01*
X90403D02*
X90736Y90992D01*
X91069Y91991D02*
Y90992D01*
X91569D01*
X91736Y91158D01*
Y91825D01*
X91569Y91991D01*
X91069D01*
X72242Y89991D02*
X72908D01*
Y89825D01*
X72242Y89158D01*
Y88992D01*
X73242D02*
X73575Y89325D01*
Y89658D01*
X73242Y89991D01*
X75074Y88992D02*
Y89991D01*
X75574D01*
X75741Y89825D01*
Y89492D01*
X75574Y89325D01*
X75074D01*
X75408D02*
X75741Y88992D01*
X76574Y89991D02*
X76241D01*
X76074Y89825D01*
Y89158D01*
X76241Y88992D01*
X76574D01*
X76741Y89158D01*
Y89825D01*
X76574Y89991D01*
X77074D02*
Y89158D01*
X77240Y88992D01*
X77574D01*
X77740Y89158D01*
Y89991D01*
X78073D02*
X78740D01*
X78407D01*
Y88992D01*
X79740Y89991D02*
X79073D01*
Y88992D01*
X79740D01*
X79073Y89492D02*
X79406D01*
X81073Y89991D02*
X81739D01*
X81406D01*
Y88992D01*
X82572Y89991D02*
X82239D01*
X82072Y89825D01*
Y89158D01*
X82239Y88992D01*
X82572D01*
X82739Y89158D01*
Y89825D01*
X82572Y89991D01*
X84072D02*
Y88992D01*
X84571D01*
X84738Y89158D01*
Y89325D01*
X84571Y89492D01*
X84072D01*
X84571D01*
X84738Y89658D01*
Y89825D01*
X84571Y89991D01*
X84072D01*
X85571D02*
X85238D01*
X85071Y89825D01*
Y89158D01*
X85238Y88992D01*
X85571D01*
X85738Y89158D01*
Y89825D01*
X85571Y89991D01*
X86071Y88992D02*
Y89658D01*
X86404Y89991D01*
X86737Y89658D01*
Y88992D01*
Y89492D01*
X86071D01*
X87071Y88992D02*
Y89991D01*
X87570D01*
X87737Y89825D01*
Y89492D01*
X87570Y89325D01*
X87071D01*
X87404D02*
X87737Y88992D01*
X88070Y89991D02*
Y88992D01*
X88570D01*
X88737Y89158D01*
Y89825D01*
X88570Y89991D01*
X88070D01*
X90569D02*
X90236D01*
X90070Y89825D01*
Y89158D01*
X90236Y88992D01*
X90569D01*
X90736Y89158D01*
Y89825D01*
X90569Y89991D01*
X91069D02*
Y89158D01*
X91236Y88992D01*
X91569D01*
X91736Y89158D01*
Y89991D01*
X92069D02*
X92735D01*
X92402D01*
Y88992D01*
X93069Y89991D02*
Y88992D01*
X93735D01*
X94068Y89991D02*
X94402D01*
X94235D01*
Y88992D01*
X94068D01*
X94402D01*
X94901D02*
Y89991D01*
X95568Y88992D01*
Y89991D01*
X96567D02*
X95901D01*
Y88992D01*
X96567D01*
X95901Y89492D02*
X96234D01*
X72242Y87825D02*
X72409Y87991D01*
X72742D01*
X72908Y87825D01*
Y87658D01*
X72742Y87492D01*
X72908Y87325D01*
Y87158D01*
X72742Y86992D01*
X72409D01*
X72242Y87158D01*
Y87325D01*
X72409Y87492D01*
X72242Y87658D01*
Y87825D01*
X72409Y87492D02*
X72742D01*
X73242Y86992D02*
X73575Y87325D01*
Y87658D01*
X73242Y87991D01*
X75074Y86992D02*
Y87658D01*
X75408Y87991D01*
X75741Y87658D01*
Y86992D01*
Y87492D01*
X75074D01*
X76074Y87991D02*
Y86992D01*
X76574D01*
X76741Y87158D01*
Y87825D01*
X76574Y87991D01*
X76074D01*
X77074D02*
Y86992D01*
X77574D01*
X77740Y87158D01*
Y87825D01*
X77574Y87991D01*
X77074D01*
X79740Y87825D02*
X79573Y87991D01*
X79240D01*
X79073Y87825D01*
Y87658D01*
X79240Y87492D01*
X79573D01*
X79740Y87325D01*
Y87158D01*
X79573Y86992D01*
X79240D01*
X79073Y87158D01*
X80073Y87991D02*
X80406D01*
X80239D01*
Y86992D01*
X80073D01*
X80406D01*
X80906Y87991D02*
Y86992D01*
X81572D01*
X81906Y87991D02*
Y86992D01*
Y87325D01*
X82572Y87991D01*
X82072Y87492D01*
X82572Y86992D01*
X83572Y87825D02*
X83405Y87991D01*
X83072D01*
X82905Y87825D01*
Y87658D01*
X83072Y87492D01*
X83405D01*
X83572Y87325D01*
Y87158D01*
X83405Y86992D01*
X83072D01*
X82905Y87158D01*
X84571Y87825D02*
X84405Y87991D01*
X84072D01*
X83905Y87825D01*
Y87158D01*
X84072Y86992D01*
X84405D01*
X84571Y87158D01*
X84905Y86992D02*
Y87991D01*
X85404D01*
X85571Y87825D01*
Y87492D01*
X85404Y87325D01*
X84905D01*
X85238D02*
X85571Y86992D01*
X86571Y87991D02*
X85904D01*
Y86992D01*
X86571D01*
X85904Y87492D02*
X86237D01*
X87570Y87991D02*
X86904D01*
Y86992D01*
X87570D01*
X86904Y87492D02*
X87237D01*
X87904Y86992D02*
Y87991D01*
X88570Y86992D01*
Y87991D01*
X72242Y85158D02*
X72409Y84992D01*
X72742D01*
X72908Y85158D01*
Y85825D01*
X72742Y85991D01*
X72409D01*
X72242Y85825D01*
Y85658D01*
X72409Y85492D01*
X72908D01*
X73242Y84992D02*
X73575Y85325D01*
Y85658D01*
X73242Y85991D01*
X75074Y84992D02*
Y85991D01*
X75741Y84992D01*
Y85991D01*
X76574D02*
X76241D01*
X76074Y85825D01*
Y85158D01*
X76241Y84992D01*
X76574D01*
X76741Y85158D01*
Y85825D01*
X76574Y85991D01*
X78740Y85825D02*
X78573Y85991D01*
X78240D01*
X78073Y85825D01*
Y85658D01*
X78240Y85492D01*
X78573D01*
X78740Y85325D01*
Y85158D01*
X78573Y84992D01*
X78240D01*
X78073Y85158D01*
X79073Y85991D02*
X79406D01*
X79240D01*
Y84992D01*
X79073D01*
X79406D01*
X79906Y85991D02*
Y84992D01*
X80573D01*
X80906Y85991D02*
Y84992D01*
Y85325D01*
X81572Y85991D01*
X81073Y85492D01*
X81572Y84992D01*
X82572Y85825D02*
X82405Y85991D01*
X82072D01*
X81906Y85825D01*
Y85658D01*
X82072Y85492D01*
X82405D01*
X82572Y85325D01*
Y85158D01*
X82405Y84992D01*
X82072D01*
X81906Y85158D01*
X83572Y85825D02*
X83405Y85991D01*
X83072D01*
X82905Y85825D01*
Y85158D01*
X83072Y84992D01*
X83405D01*
X83572Y85158D01*
X83905Y84992D02*
Y85991D01*
X84405D01*
X84571Y85825D01*
Y85492D01*
X84405Y85325D01*
X83905D01*
X84238D02*
X84571Y84992D01*
X85571Y85991D02*
X84905D01*
Y84992D01*
X85571D01*
X84905Y85492D02*
X85238D01*
X86571Y85991D02*
X85904D01*
Y84992D01*
X86571D01*
X85904Y85492D02*
X86237D01*
X86904Y84992D02*
Y85991D01*
X87570Y84992D01*
Y85991D01*
X89403D02*
X89070D01*
X88903Y85825D01*
Y85158D01*
X89070Y84992D01*
X89403D01*
X89570Y85158D01*
Y85825D01*
X89403Y85991D01*
X89903Y84992D02*
Y85991D01*
X90569Y84992D01*
Y85991D01*
X91902Y84992D02*
Y85991D01*
X92402D01*
X92569Y85825D01*
Y85492D01*
X92402Y85325D01*
X91902D01*
X92902Y84992D02*
Y85658D01*
X93235Y85991D01*
X93568Y85658D01*
Y84992D01*
Y85492D01*
X92902D01*
X93902Y85991D02*
Y84992D01*
X94402D01*
X94568Y85158D01*
Y85825D01*
X94402Y85991D01*
X93902D01*
X95568Y85825D02*
X95401Y85991D01*
X95068D01*
X94901Y85825D01*
Y85658D01*
X95068Y85492D01*
X95401D01*
X95568Y85325D01*
Y85158D01*
X95401Y84992D01*
X95068D01*
X94901Y85158D01*
X72242Y100992D02*
X72575D01*
X72409D01*
Y101991D01*
X72242Y101825D01*
X73075Y100992D02*
X73408Y101325D01*
Y101658D01*
X73075Y101991D01*
X74908D02*
Y100992D01*
X75408D01*
X75574Y101158D01*
Y101325D01*
X75408Y101492D01*
X74908D01*
X75408D01*
X75574Y101658D01*
Y101825D01*
X75408Y101991D01*
X74908D01*
X76407D02*
X76074D01*
X75908Y101825D01*
Y101158D01*
X76074Y100992D01*
X76407D01*
X76574Y101158D01*
Y101825D01*
X76407Y101991D01*
X76907Y100992D02*
Y101658D01*
X77240Y101991D01*
X77574Y101658D01*
Y100992D01*
Y101492D01*
X76907D01*
X77907Y100992D02*
Y101991D01*
X78407D01*
X78573Y101825D01*
Y101492D01*
X78407Y101325D01*
X77907D01*
X78240D02*
X78573Y100992D01*
X78907Y101991D02*
Y100992D01*
X79406D01*
X79573Y101158D01*
Y101825D01*
X79406Y101991D01*
X78907D01*
X80906Y100992D02*
Y101991D01*
X81239Y101658D01*
X81572Y101991D01*
Y100992D01*
X82572Y101991D02*
X81906D01*
Y100992D01*
X82572D01*
X81906Y101492D02*
X82239D01*
X82905Y100992D02*
Y101658D01*
X83238Y101991D01*
X83572Y101658D01*
Y100992D01*
Y101492D01*
X82905D01*
X84571Y101825D02*
X84405Y101991D01*
X84072D01*
X83905Y101825D01*
Y101658D01*
X84072Y101492D01*
X84405D01*
X84571Y101325D01*
Y101158D01*
X84405Y100992D01*
X84072D01*
X83905Y101158D01*
X84905Y101991D02*
Y101158D01*
X85071Y100992D01*
X85404D01*
X85571Y101158D01*
Y101991D01*
X85904Y100992D02*
Y101991D01*
X86404D01*
X86571Y101825D01*
Y101492D01*
X86404Y101325D01*
X85904D01*
X86237D02*
X86571Y100992D01*
X87570Y101991D02*
X86904D01*
Y100992D01*
X87570D01*
X86904Y101492D02*
X87237D01*
X88570Y101825D02*
X88403Y101991D01*
X88070D01*
X87904Y101825D01*
Y101658D01*
X88070Y101492D01*
X88403D01*
X88570Y101325D01*
Y101158D01*
X88403Y100992D01*
X88070D01*
X87904Y101158D01*
X89903Y100992D02*
X90236D01*
X90070D01*
Y101991D01*
X89903Y101825D01*
X90736Y100992D02*
Y101158D01*
X90903D01*
Y100992D01*
X90736D01*
X91569Y101825D02*
X91736Y101991D01*
X92069D01*
X92236Y101825D01*
Y101158D01*
X92069Y100992D01*
X91736D01*
X91569Y101158D01*
Y101825D01*
X92569Y101991D02*
X93235D01*
Y101825D01*
X92569Y101158D01*
Y100992D01*
X93568Y101825D02*
X93735Y101991D01*
X94068D01*
X94235Y101825D01*
Y101658D01*
X94068Y101492D01*
X94235Y101325D01*
Y101158D01*
X94068Y100992D01*
X93735D01*
X93568Y101158D01*
Y101325D01*
X93735Y101492D01*
X93568Y101658D01*
Y101825D01*
X93735Y101492D02*
X94068D01*
X95568Y101991D02*
X96234Y100992D01*
Y101991D02*
X95568Y100992D01*
X98567D02*
Y101158D01*
X98733D01*
Y100992D01*
X98567D01*
X99400Y101158D02*
X99567Y100992D01*
X99900D01*
X100066Y101158D01*
Y101825D01*
X99900Y101991D01*
X99567D01*
X99400Y101825D01*
Y101658D01*
X99567Y101492D01*
X100066D01*
X100400Y101825D02*
X100566Y101991D01*
X100899D01*
X101066Y101825D01*
Y101658D01*
X100899Y101492D01*
X101066Y101325D01*
Y101158D01*
X100899Y100992D01*
X100566D01*
X100400Y101158D01*
Y101325D01*
X100566Y101492D01*
X100400Y101658D01*
Y101825D01*
X100566Y101492D02*
X100899D01*
X101399Y101158D02*
X101566Y100992D01*
X101899D01*
X102066Y101158D01*
Y101825D01*
X101899Y101991D01*
X101566D01*
X101399Y101825D01*
Y101658D01*
X101566Y101492D01*
X102066D01*
X103399Y101991D02*
X103732D01*
X103565D01*
Y100992D01*
X103399D01*
X103732D01*
X104232D02*
Y101991D01*
X104898Y100992D01*
Y101991D01*
X72908Y98992D02*
X72242D01*
X72908Y99658D01*
Y99825D01*
X72742Y99991D01*
X72409D01*
X72242Y99825D01*
X73242Y98992D02*
X73575Y99325D01*
Y99658D01*
X73242Y99991D01*
X75074Y98992D02*
Y99991D01*
X75408Y99658D01*
X75741Y99991D01*
Y98992D01*
X76074D02*
Y99658D01*
X76407Y99991D01*
X76741Y99658D01*
Y98992D01*
Y99492D01*
X76074D01*
X77074Y99991D02*
X77740D01*
X77407D01*
Y98992D01*
X78740Y99991D02*
X78073D01*
Y98992D01*
X78740D01*
X78073Y99492D02*
X78407D01*
X79073Y98992D02*
Y99991D01*
X79573D01*
X79740Y99825D01*
Y99492D01*
X79573Y99325D01*
X79073D01*
X79406D02*
X79740Y98992D01*
X80073Y99991D02*
X80406D01*
X80239D01*
Y98992D01*
X80073D01*
X80406D01*
X80906D02*
Y99658D01*
X81239Y99991D01*
X81572Y99658D01*
Y98992D01*
Y99492D01*
X80906D01*
X81906Y99991D02*
Y98992D01*
X82572D01*
X83905Y99991D02*
X84238D01*
X84072D01*
Y98992D01*
X83905D01*
X84238D01*
X85404Y99825D02*
X85238Y99991D01*
X84905D01*
X84738Y99825D01*
Y99658D01*
X84905Y99492D01*
X85238D01*
X85404Y99325D01*
Y99158D01*
X85238Y98992D01*
X84905D01*
X84738Y99158D01*
X87404Y99991D02*
X86737D01*
Y99492D01*
X87071D01*
X86737D01*
Y98992D01*
X87737D02*
Y99991D01*
X88237D01*
X88403Y99825D01*
Y99492D01*
X88237Y99325D01*
X87737D01*
X88070D02*
X88403Y98992D01*
X89237D02*
Y99991D01*
X88737Y99492D01*
X89403D01*
X72242Y80992D02*
X72575D01*
X72409D01*
Y81991D01*
X72242Y81825D01*
X73075Y80992D02*
X73408D01*
X73242D01*
Y81991D01*
X73075Y81825D01*
X73908Y80992D02*
X74241Y81325D01*
Y81658D01*
X73908Y81991D01*
X75741D02*
Y80992D01*
Y81492D01*
X76407D01*
Y81991D01*
Y80992D01*
X76741D02*
Y81658D01*
X77074Y81991D01*
X77407Y81658D01*
Y80992D01*
Y81492D01*
X76741D01*
X78407Y81825D02*
X78240Y81991D01*
X77907D01*
X77740Y81825D01*
Y81658D01*
X77907Y81492D01*
X78240D01*
X78407Y81325D01*
Y81158D01*
X78240Y80992D01*
X77907D01*
X77740Y81158D01*
X78740Y81991D02*
Y80992D01*
X79406D01*
X81239Y81991D02*
X80906D01*
X80739Y81825D01*
Y81158D01*
X80906Y80992D01*
X81239D01*
X81406Y81158D01*
Y81825D01*
X81239Y81991D01*
X81739Y80992D02*
Y81991D01*
X82405Y80992D01*
Y81991D01*
X83738Y80992D02*
Y81658D01*
X84072Y81991D01*
X84405Y81658D01*
Y80992D01*
Y81492D01*
X83738D01*
X84738Y81991D02*
Y80992D01*
X85404D01*
X85738Y81991D02*
Y80992D01*
X86404D01*
X87737D02*
Y81991D01*
X88237D01*
X88403Y81825D01*
Y81492D01*
X88237Y81325D01*
X87737D01*
X88737Y80992D02*
Y81658D01*
X89070Y81991D01*
X89403Y81658D01*
Y80992D01*
Y81492D01*
X88737D01*
X89736Y81991D02*
Y80992D01*
X90236D01*
X90403Y81158D01*
Y81825D01*
X90236Y81991D01*
X89736D01*
X91403Y81825D02*
X91236Y81991D01*
X90903D01*
X90736Y81825D01*
Y81658D01*
X90903Y81492D01*
X91236D01*
X91403Y81325D01*
Y81158D01*
X91236Y80992D01*
X90903D01*
X90736Y81158D01*
X92735Y80992D02*
Y81658D01*
X93069Y81991D01*
X93402Y81658D01*
Y80992D01*
Y81492D01*
X92735D01*
X93735Y80992D02*
Y81991D01*
X94402Y80992D01*
Y81991D01*
X94735D02*
Y80992D01*
X95235D01*
X95401Y81158D01*
Y81825D01*
X95235Y81991D01*
X94735D01*
X96734D02*
Y81325D01*
X97067Y80992D01*
X97401Y81325D01*
Y81991D01*
X97734D02*
X98067D01*
X97900D01*
Y80992D01*
X97734D01*
X98067D01*
X98567D02*
Y81658D01*
X98900Y81991D01*
X99233Y81658D01*
Y80992D01*
Y81492D01*
X98567D01*
X100233Y81825D02*
X100066Y81991D01*
X99733D01*
X99567Y81825D01*
Y81658D01*
X99733Y81492D01*
X100066D01*
X100233Y81325D01*
Y81158D01*
X100066Y80992D01*
X99733D01*
X99567Y81158D01*
X72252Y79002D02*
X72585D01*
X72419D01*
Y80001D01*
X72252Y79835D01*
X73752Y79002D02*
X73085D01*
X73752Y79668D01*
Y79835D01*
X73585Y80001D01*
X73252D01*
X73085Y79835D01*
X74085Y79002D02*
X74418Y79335D01*
Y79668D01*
X74085Y80001D01*
X75918Y79002D02*
Y79168D01*
X76084D01*
Y79002D01*
X75918D01*
X76751Y79835D02*
X76917Y80001D01*
X77250D01*
X77417Y79835D01*
Y79168D01*
X77250Y79002D01*
X76917D01*
X76751Y79168D01*
Y79835D01*
X78417Y80001D02*
X78083Y79835D01*
X77750Y79502D01*
Y79168D01*
X77917Y79002D01*
X78250D01*
X78417Y79168D01*
Y79335D01*
X78250Y79502D01*
X77750D01*
X78750Y79835D02*
X78917Y80001D01*
X79250D01*
X79416Y79835D01*
Y79168D01*
X79250Y79002D01*
X78917D01*
X78750Y79168D01*
Y79835D01*
X80749Y79002D02*
Y80001D01*
X81082Y79668D01*
X81416Y80001D01*
Y79002D01*
X81749Y80001D02*
X82082D01*
X81916D01*
Y79002D01*
X81749D01*
X82082D01*
X82582Y80001D02*
Y79002D01*
X83248D01*
X84581Y80001D02*
X85248D01*
X84915D01*
Y79002D01*
X86081Y80001D02*
X85748D01*
X85581Y79835D01*
Y79168D01*
X85748Y79002D01*
X86081D01*
X86248Y79168D01*
Y79835D01*
X86081Y80001D01*
X87081D02*
X86747D01*
X86581Y79835D01*
Y79168D01*
X86747Y79002D01*
X87081D01*
X87247Y79168D01*
Y79835D01*
X87081Y80001D01*
X87580D02*
Y79002D01*
X88247D01*
X88580Y80001D02*
X88913D01*
X88747D01*
Y79002D01*
X88580D01*
X88913D01*
X89413D02*
Y80001D01*
X90080Y79002D01*
Y80001D01*
X91079Y79835D02*
X90913Y80001D01*
X90579D01*
X90413Y79835D01*
Y79168D01*
X90579Y79002D01*
X90913D01*
X91079Y79168D01*
Y79502D01*
X90746D01*
X92412Y80001D02*
Y79002D01*
Y79502D01*
X93079D01*
Y80001D01*
Y79002D01*
X93912Y80001D02*
X93578D01*
X93412Y79835D01*
Y79168D01*
X93578Y79002D01*
X93912D01*
X94078Y79168D01*
Y79835D01*
X93912Y80001D01*
X94412D02*
Y79002D01*
X95078D01*
X96078Y80001D02*
X95411D01*
Y79002D01*
X96078D01*
X95411Y79502D02*
X95744D01*
X97077Y79835D02*
X96911Y80001D01*
X96578D01*
X96411Y79835D01*
Y79668D01*
X96578Y79502D01*
X96911D01*
X97077Y79335D01*
Y79168D01*
X96911Y79002D01*
X96578D01*
X96411Y79168D01*
X99077Y79835D02*
X98910Y80001D01*
X98577D01*
X98410Y79835D01*
Y79668D01*
X98577Y79502D01*
X98910D01*
X99077Y79335D01*
Y79168D01*
X98910Y79002D01*
X98577D01*
X98410Y79168D01*
X99410Y80001D02*
Y79002D01*
Y79502D01*
X100076D01*
Y80001D01*
Y79002D01*
X100410D02*
Y79668D01*
X100743Y80001D01*
X101076Y79668D01*
Y79002D01*
Y79502D01*
X100410D01*
X101409Y80001D02*
Y79002D01*
X102076D01*
X102409Y80001D02*
Y79002D01*
X103075D01*
X104408Y80001D02*
Y79002D01*
X104908D01*
X105075Y79168D01*
Y79335D01*
X104908Y79502D01*
X104408D01*
X104908D01*
X105075Y79668D01*
Y79835D01*
X104908Y80001D01*
X104408D01*
X106074D02*
X105408D01*
Y79002D01*
X106074D01*
X105408Y79502D02*
X105741D01*
X107407D02*
X108074D01*
X107741Y79835D02*
Y79168D01*
X108407Y79835D02*
X108574Y80001D01*
X108907D01*
X109073Y79835D01*
Y79668D01*
X108907Y79502D01*
X108740D01*
X108907D01*
X109073Y79335D01*
Y79168D01*
X108907Y79002D01*
X108574D01*
X108407Y79168D01*
X109407Y79502D02*
X110073D01*
X110406Y79835D02*
X110573Y80001D01*
X110906D01*
X111073Y79835D01*
Y79168D01*
X110906Y79002D01*
X110573D01*
X110406Y79168D01*
Y79835D01*
X112406Y79002D02*
Y80001D01*
X112739Y79668D01*
X113072Y80001D01*
Y79002D01*
X113405Y80001D02*
X113739D01*
X113572D01*
Y79002D01*
X113405D01*
X113739D01*
X114238Y80001D02*
Y79002D01*
X114905D01*
X115905Y79835D02*
X115738Y80001D01*
X115405D01*
X115238Y79835D01*
Y79668D01*
X115405Y79502D01*
X115738D01*
X115905Y79335D01*
Y79168D01*
X115738Y79002D01*
X115405D01*
X115238Y79168D01*
X117237Y80001D02*
X117904D01*
X117571D01*
Y79002D01*
X118737Y80001D02*
X118404D01*
X118237Y79835D01*
Y79168D01*
X118404Y79002D01*
X118737D01*
X118904Y79168D01*
Y79835D01*
X118737Y80001D01*
X119237D02*
Y79002D01*
X119903D01*
X120237D02*
Y79168D01*
X120403D01*
Y79002D01*
X120237D01*
X72252Y77012D02*
X72585D01*
X72419D01*
Y78011D01*
X72252Y77845D01*
X73085D02*
X73252Y78011D01*
X73585D01*
X73752Y77845D01*
Y77678D01*
X73585Y77512D01*
X73418D01*
X73585D01*
X73752Y77345D01*
Y77178D01*
X73585Y77012D01*
X73252D01*
X73085Y77178D01*
X74085Y77012D02*
X74418Y77345D01*
Y77678D01*
X74085Y78011D01*
X75918D02*
Y77012D01*
X76417D01*
X76584Y77178D01*
Y77845D01*
X76417Y78011D01*
X75918D01*
X76917D02*
X77250D01*
X77084D01*
Y77012D01*
X76917D01*
X77250D01*
X78417Y77845D02*
X78250Y78011D01*
X77917D01*
X77750Y77845D01*
Y77678D01*
X77917Y77512D01*
X78250D01*
X78417Y77345D01*
Y77178D01*
X78250Y77012D01*
X77917D01*
X77750Y77178D01*
X78750Y78011D02*
X79416D01*
X79083D01*
Y77012D01*
X79750D02*
Y77678D01*
X80083Y78011D01*
X80416Y77678D01*
Y77012D01*
Y77512D01*
X79750D01*
X80749Y77012D02*
Y78011D01*
X81416Y77012D01*
Y78011D01*
X82415Y77845D02*
X82249Y78011D01*
X81916D01*
X81749Y77845D01*
Y77178D01*
X81916Y77012D01*
X82249D01*
X82415Y77178D01*
X83415Y78011D02*
X82749D01*
Y77012D01*
X83415D01*
X82749Y77512D02*
X83082D01*
X84748Y78011D02*
Y77012D01*
X85248D01*
X85414Y77178D01*
Y77345D01*
X85248Y77512D01*
X84748D01*
X85248D01*
X85414Y77678D01*
Y77845D01*
X85248Y78011D01*
X84748D01*
X86414D02*
X85748D01*
Y77012D01*
X86414D01*
X85748Y77512D02*
X86081D01*
X86747Y78011D02*
X87414D01*
X87081D01*
Y77012D01*
X87747Y78011D02*
Y77012D01*
X88080Y77345D01*
X88413Y77012D01*
Y78011D01*
X89413D02*
X88747D01*
Y77012D01*
X89413D01*
X88747Y77512D02*
X89080D01*
X90413Y78011D02*
X89746D01*
Y77012D01*
X90413D01*
X89746Y77512D02*
X90080D01*
X90746Y77012D02*
Y78011D01*
X91412Y77012D01*
Y78011D01*
X92745D02*
X93412D01*
X93079D01*
Y77012D01*
X94245Y78011D02*
X93912D01*
X93745Y77845D01*
Y77178D01*
X93912Y77012D01*
X94245D01*
X94412Y77178D01*
Y77845D01*
X94245Y78011D01*
X95245D02*
X94911D01*
X94745Y77845D01*
Y77178D01*
X94911Y77012D01*
X95245D01*
X95411Y77178D01*
Y77845D01*
X95245Y78011D01*
X95744D02*
Y77012D01*
X96411D01*
X96744Y78011D02*
X97077D01*
X96911D01*
Y77012D01*
X96744D01*
X97077D01*
X97577D02*
Y78011D01*
X98244Y77012D01*
Y78011D01*
X99243Y77845D02*
X99077Y78011D01*
X98743D01*
X98577Y77845D01*
Y77178D01*
X98743Y77012D01*
X99077D01*
X99243Y77178D01*
Y77512D01*
X98910D01*
X100576Y78011D02*
Y77012D01*
Y77512D01*
X101243D01*
Y78011D01*
Y77012D01*
X102076Y78011D02*
X101742D01*
X101576Y77845D01*
Y77178D01*
X101742Y77012D01*
X102076D01*
X102242Y77178D01*
Y77845D01*
X102076Y78011D01*
X102576D02*
Y77012D01*
X103242D01*
X104242Y78011D02*
X103575D01*
Y77012D01*
X104242D01*
X103575Y77512D02*
X103908D01*
X105241Y77845D02*
X105075Y78011D01*
X104742D01*
X104575Y77845D01*
Y77678D01*
X104742Y77512D01*
X105075D01*
X105241Y77345D01*
Y77178D01*
X105075Y77012D01*
X104742D01*
X104575Y77178D01*
X107241Y77845D02*
X107074Y78011D01*
X106741D01*
X106574Y77845D01*
Y77678D01*
X106741Y77512D01*
X107074D01*
X107241Y77345D01*
Y77178D01*
X107074Y77012D01*
X106741D01*
X106574Y77178D01*
X107574Y78011D02*
Y77012D01*
Y77512D01*
X108240D01*
Y78011D01*
Y77012D01*
X108574D02*
Y77678D01*
X108907Y78011D01*
X109240Y77678D01*
Y77012D01*
Y77512D01*
X108574D01*
X109573Y78011D02*
Y77012D01*
X110240D01*
X110573Y78011D02*
Y77012D01*
X111239D01*
X112572Y78011D02*
Y77012D01*
X113072D01*
X113239Y77178D01*
Y77345D01*
X113072Y77512D01*
X112572D01*
X113072D01*
X113239Y77678D01*
Y77845D01*
X113072Y78011D01*
X112572D01*
X114238D02*
X113572D01*
Y77012D01*
X114238D01*
X113572Y77512D02*
X113905D01*
X116571Y77845D02*
X116738Y78011D01*
X117071D01*
X117237Y77845D01*
Y77678D01*
X117071Y77512D01*
X116904D01*
X117071D01*
X117237Y77345D01*
Y77178D01*
X117071Y77012D01*
X116738D01*
X116571Y77178D01*
X118570Y77012D02*
Y78011D01*
X118904Y77678D01*
X119237Y78011D01*
Y77012D01*
X119570Y78011D02*
X119903D01*
X119737D01*
Y77012D01*
X119570D01*
X119903D01*
X120403Y78011D02*
Y77012D01*
X121070D01*
X122069Y77845D02*
X121903Y78011D01*
X121569D01*
X121403Y77845D01*
Y77678D01*
X121569Y77512D01*
X121903D01*
X122069Y77345D01*
Y77178D01*
X121903Y77012D01*
X121569D01*
X121403Y77178D01*
X72222Y75007D02*
X72555D01*
X72389D01*
Y76006D01*
X72222Y75840D01*
X73555Y75007D02*
Y76006D01*
X73055Y75507D01*
X73722D01*
X74055Y75007D02*
X74388Y75340D01*
Y75673D01*
X74055Y76006D01*
X76554Y75840D02*
X76387Y76006D01*
X76054D01*
X75888Y75840D01*
Y75173D01*
X76054Y75007D01*
X76387D01*
X76554Y75173D01*
X77387Y76006D02*
X77054D01*
X76887Y75840D01*
Y75173D01*
X77054Y75007D01*
X77387D01*
X77554Y75173D01*
Y75840D01*
X77387Y76006D01*
X77887D02*
Y75173D01*
X78053Y75007D01*
X78387D01*
X78553Y75173D01*
Y76006D01*
X78887Y75007D02*
Y76006D01*
X79553Y75007D01*
Y76006D01*
X79886D02*
X80553D01*
X80219D01*
Y75007D01*
X81552Y76006D02*
X80886D01*
Y75007D01*
X81552D01*
X80886Y75507D02*
X81219D01*
X81886Y75007D02*
Y76006D01*
X82385D01*
X82552Y75840D01*
Y75507D01*
X82385Y75340D01*
X81886D01*
X82219D02*
X82552Y75007D01*
X83885Y76006D02*
Y75007D01*
X84385D01*
X84551Y75173D01*
Y75340D01*
X84385Y75507D01*
X83885D01*
X84385D01*
X84551Y75673D01*
Y75840D01*
X84385Y76006D01*
X83885D01*
X85384D02*
X85051D01*
X84885Y75840D01*
Y75173D01*
X85051Y75007D01*
X85384D01*
X85551Y75173D01*
Y75840D01*
X85384Y76006D01*
X85884Y75007D02*
Y76006D01*
X86384D01*
X86551Y75840D01*
Y75507D01*
X86384Y75340D01*
X85884D01*
X86217D02*
X86551Y75007D01*
X87550Y76006D02*
X86884D01*
Y75007D01*
X87550D01*
X86884Y75507D02*
X87217D01*
X88883Y76006D02*
Y75007D01*
Y75507D01*
X89550D01*
Y76006D01*
Y75007D01*
X90383Y76006D02*
X90050D01*
X89883Y75840D01*
Y75173D01*
X90050Y75007D01*
X90383D01*
X90549Y75173D01*
Y75840D01*
X90383Y76006D01*
X90883D02*
Y75007D01*
X91549D01*
X92549Y76006D02*
X91882D01*
Y75007D01*
X92549D01*
X91882Y75507D02*
X92216D01*
X93548Y75840D02*
X93382Y76006D01*
X93049D01*
X92882Y75840D01*
Y75673D01*
X93049Y75507D01*
X93382D01*
X93548Y75340D01*
Y75173D01*
X93382Y75007D01*
X93049D01*
X92882Y75173D01*
X95215Y75007D02*
X94881Y75340D01*
Y75673D01*
X95215Y76006D01*
X95714D02*
X96381Y75007D01*
Y76006D02*
X95714Y75007D01*
X97381Y76006D02*
X96714D01*
Y75507D01*
X97047Y75673D01*
X97214D01*
X97381Y75507D01*
Y75173D01*
X97214Y75007D01*
X96881D01*
X96714Y75173D01*
X97714Y75007D02*
X98047Y75340D01*
Y75673D01*
X97714Y76006D01*
X99547Y75840D02*
X99713Y76006D01*
X100046D01*
X100213Y75840D01*
Y75673D01*
X100046Y75507D01*
X100213Y75340D01*
Y75173D01*
X100046Y75007D01*
X99713D01*
X99547Y75173D01*
Y75340D01*
X99713Y75507D01*
X99547Y75673D01*
Y75840D01*
X99713Y75507D02*
X100046D01*
X101546Y75007D02*
Y76006D01*
X101879Y75673D01*
X102212Y76006D01*
Y75007D01*
X102546Y76006D02*
X102879D01*
X102712D01*
Y75007D01*
X102546D01*
X102879D01*
X103379Y76006D02*
Y75007D01*
X104045D01*
X105045Y75840D02*
X104878Y76006D01*
X104545D01*
X104378Y75840D01*
Y75673D01*
X104545Y75507D01*
X104878D01*
X105045Y75340D01*
Y75173D01*
X104878Y75007D01*
X104545D01*
X104378Y75173D01*
X106711Y75007D02*
X106378Y75340D01*
Y75673D01*
X106711Y76006D01*
X108877Y75007D02*
X108210D01*
X108877Y75673D01*
Y75840D01*
X108710Y76006D01*
X108377D01*
X108210Y75840D01*
X110210Y75007D02*
Y76006D01*
X110543Y75673D01*
X110876Y76006D01*
Y75007D01*
X111209Y76006D02*
X111543D01*
X111376D01*
Y75007D01*
X111209D01*
X111543D01*
X112042Y76006D02*
Y75007D01*
X112709D01*
X113709Y75840D02*
X113542Y76006D01*
X113209D01*
X113042Y75840D01*
Y75673D01*
X113209Y75507D01*
X113542D01*
X113709Y75340D01*
Y75173D01*
X113542Y75007D01*
X113209D01*
X113042Y75173D01*
X114042Y75007D02*
X114375Y75340D01*
Y75673D01*
X114042Y76006D01*
X115875D02*
Y75173D01*
X116041Y75007D01*
X116374D01*
X116541Y75173D01*
Y76006D01*
X116874Y75007D02*
Y76006D01*
X117374D01*
X117541Y75840D01*
Y75507D01*
X117374Y75340D01*
X116874D01*
X119540Y76006D02*
X118874D01*
Y75507D01*
X119207D01*
X118874D01*
Y75007D01*
X119873D02*
Y76006D01*
X120373D01*
X120540Y75840D01*
Y75507D01*
X120373Y75340D01*
X119873D01*
X120207D02*
X120540Y75007D01*
X121373Y76006D02*
X121040D01*
X120873Y75840D01*
Y75173D01*
X121040Y75007D01*
X121373D01*
X121539Y75173D01*
Y75840D01*
X121373Y76006D01*
X121873Y75007D02*
Y76006D01*
X122206Y75673D01*
X122539Y76006D01*
Y75007D01*
X123872Y76006D02*
Y75007D01*
X124372D01*
X124538Y75173D01*
Y75340D01*
X124372Y75507D01*
X123872D01*
X124372D01*
X124538Y75673D01*
Y75840D01*
X124372Y76006D01*
X123872D01*
X125372D02*
X125038D01*
X124872Y75840D01*
Y75173D01*
X125038Y75007D01*
X125372D01*
X125538Y75173D01*
Y75840D01*
X125372Y76006D01*
X125871D02*
X126538D01*
X126205D01*
Y75007D01*
X126871Y76006D02*
X127537D01*
X127204D01*
Y75007D01*
X128371Y76006D02*
X128037D01*
X127871Y75840D01*
Y75173D01*
X128037Y75007D01*
X128371D01*
X128537Y75173D01*
Y75840D01*
X128371Y76006D01*
X128870Y75007D02*
Y76006D01*
X129204Y75673D01*
X129537Y76006D01*
Y75007D01*
X130870Y76006D02*
Y75007D01*
X131536D01*
X131869D02*
Y75673D01*
X132203Y76006D01*
X132536Y75673D01*
Y75007D01*
Y75507D01*
X131869D01*
X132869Y76006D02*
Y75840D01*
X133202Y75507D01*
X133536Y75840D01*
Y76006D01*
X133202Y75507D02*
Y75007D01*
X134535Y76006D02*
X133869D01*
Y75007D01*
X134535D01*
X133869Y75507D02*
X134202D01*
X134868Y75007D02*
Y76006D01*
X135368D01*
X135535Y75840D01*
Y75507D01*
X135368Y75340D01*
X134868D01*
X135202D02*
X135535Y75007D01*
D26*
X86690Y69543D02*
Y70093D01*
X90476Y66937D02*
Y67287D01*
X90476D02*
X90477Y68976D01*
X90276Y66737D02*
X90476Y66937D01*
X89056Y66737D02*
X90276D01*
X88866Y66927D02*
X89056Y66737D01*
X86816Y65777D02*
Y66117D01*
X87037Y70807D02*
X87217Y70627D01*
Y67177D02*
Y70627D01*
X87254Y66109D02*
X87617D01*
X86597Y70587D02*
X86920Y70264D01*
X86390Y66793D02*
X86546Y66949D01*
X86490Y68643D02*
X86546Y68587D01*
Y66949D02*
Y68587D01*
X86490Y68643D02*
Y69343D01*
X86920Y70264D02*
X86990Y70194D01*
Y67413D02*
Y70194D01*
X86920Y66443D02*
X87254Y66109D01*
X86920Y66443D02*
Y67343D01*
X86990Y67413D01*
X86690Y69543D02*
X86790Y69443D01*
Y67467D02*
Y69443D01*
X86726Y67403D02*
X86790Y67467D01*
X86726Y66207D02*
Y67403D01*
Y66207D02*
X86816Y66117D01*
X84640Y70243D02*
X86540D01*
X86690Y70093D01*
X84145Y66357D02*
Y66657D01*
X84281Y66793D01*
X86390D01*
X84706Y67571D02*
Y68277D01*
X84332Y67197D02*
X84706Y67571D01*
X83876Y67197D02*
X84332D01*
X83606Y66927D02*
X83876Y67197D01*
X83606Y66427D02*
Y66927D01*
X83256Y66077D02*
X83606Y66427D01*
X82806Y66077D02*
X83256D01*
X82756Y66777D02*
Y67407D01*
X82656Y67507D02*
X82756Y67407D01*
X82656Y67507D02*
Y67677D01*
X84656Y68827D02*
Y69727D01*
X82826Y70147D02*
X84236D01*
X84656Y69727D01*
X83996Y70497D02*
X84376D01*
X84466Y70587D01*
X84996Y70937D02*
X85216D01*
X85346Y70807D01*
X87037D01*
X82226Y68297D02*
X82626D01*
X81906Y67977D02*
X82226Y68297D01*
X81906Y67477D02*
Y67977D01*
X81526Y67117D02*
X81906Y67477D01*
X84466Y70587D02*
X86597D01*
X117625Y51005D02*
X117616Y51101D01*
X117588Y51193D01*
X117543Y51277D01*
X117482Y51351D01*
X117407Y51412D01*
X117323Y51458D01*
X117231Y51486D01*
X117135Y51495D01*
X106125D02*
X106028Y51485D01*
X105934Y51457D01*
X105847Y51411D01*
X105772Y51349D01*
X105710Y51273D01*
X105663Y51186D01*
X105635Y51093D01*
X105625Y50995D01*
X117125Y51995D02*
X117223Y52005D01*
X117317Y52033D01*
X117403Y52079D01*
X117479Y52141D01*
X117541Y52217D01*
X117587Y52304D01*
X117616Y52397D01*
X117625Y52495D01*
X105625D02*
X105635Y52397D01*
X105663Y52304D01*
X105710Y52217D01*
X105772Y52141D01*
X105847Y52079D01*
X105934Y52033D01*
X106028Y52005D01*
X106125Y51995D01*
X75125Y59245D02*
X75027Y59240D01*
X74930Y59226D01*
X74835Y59202D01*
X74743Y59169D01*
X74654Y59127D01*
X74570Y59076D01*
X74491Y59018D01*
X74418Y58952D01*
X74352Y58879D01*
X74294Y58801D01*
X74243Y58716D01*
X74201Y58628D01*
X74168Y58535D01*
X74144Y58440D01*
X74130Y58343D01*
X74125Y58245D01*
Y47255D02*
X74130Y47157D01*
X74144Y47060D01*
X74168Y46965D01*
X74200Y46873D01*
X74242Y46784D01*
X74292Y46699D01*
X74350Y46620D01*
X74415Y46547D01*
X74487Y46481D01*
X74565Y46421D01*
X74648Y46370D01*
X74737Y46327D01*
X74828Y46293D01*
X74923Y46268D01*
X75020Y46252D01*
X75118Y46245D01*
X117125Y46245D02*
X117223Y46250D01*
X117320Y46264D01*
X117416Y46288D01*
X117508Y46321D01*
X117597Y46363D01*
X117681Y46414D01*
X117760Y46472D01*
X117832Y46538D01*
X117898Y46611D01*
X117957Y46689D01*
X118007Y46774D01*
X118049Y46862D01*
X118082Y46955D01*
X118106Y47050D01*
X118120Y47147D01*
X118125Y47245D01*
Y58245D02*
X118120Y58343D01*
X118106Y58440D01*
X118082Y58535D01*
X118049Y58628D01*
X118007Y58716D01*
X117957Y58801D01*
X117898Y58879D01*
X117832Y58952D01*
X117760Y59018D01*
X117681Y59076D01*
X117597Y59127D01*
X117508Y59169D01*
X117416Y59202D01*
X117320Y59226D01*
X117223Y59240D01*
X117125Y59245D01*
X117625Y58255D02*
X117615Y58353D01*
X117586Y58446D01*
X117539Y58533D01*
X117476Y58607D01*
X117399Y58668D01*
X117311Y58712D01*
X117216Y58738D01*
X117118Y58745D01*
X117125Y49245D02*
X117223Y49255D01*
X117317Y49283D01*
X117403Y49329D01*
X117479Y49391D01*
X117541Y49467D01*
X117587Y49554D01*
X117616Y49647D01*
X117625Y49745D01*
X117625Y48254D02*
X117614Y48350D01*
X117585Y48442D01*
X117538Y48527D01*
X117476Y48602D01*
X117400Y48663D01*
X117315Y48708D01*
X117222Y48736D01*
X117125Y48745D01*
Y46745D02*
X117223Y46755D01*
X117317Y46783D01*
X117403Y46829D01*
X117479Y46891D01*
X117541Y46967D01*
X117587Y47054D01*
X117616Y47147D01*
X117625Y47245D01*
X104625Y49245D02*
X104723Y49255D01*
X104817Y49283D01*
X104903Y49329D01*
X104979Y49391D01*
X105041Y49467D01*
X105087Y49554D01*
X105116Y49647D01*
X105125Y49745D01*
X105625Y49735D02*
X105635Y49638D01*
X105663Y49546D01*
X105710Y49460D01*
X105772Y49386D01*
X105847Y49325D01*
X105934Y49280D01*
X106027Y49253D01*
X106124Y49245D01*
X105125Y51005D02*
X105116Y51101D01*
X105088Y51193D01*
X105043Y51277D01*
X104982Y51351D01*
X104907Y51412D01*
X104823Y51458D01*
X104731Y51486D01*
X104635Y51495D01*
X74625Y47245D02*
X74635Y47149D01*
X74662Y47056D01*
X74708Y46970D01*
X74769Y46895D01*
X74843Y46832D01*
X74928Y46786D01*
X75020Y46756D01*
X75117Y46745D01*
X104634Y51995D02*
X104730Y52006D01*
X104823Y52036D01*
X104908Y52082D01*
X104982Y52144D01*
X105043Y52220D01*
X105088Y52306D01*
X105116Y52399D01*
X105125Y52495D01*
X75125Y48745D02*
X75028Y48735D01*
X74934Y48707D01*
X74847Y48661D01*
X74772Y48599D01*
X74710Y48523D01*
X74663Y48436D01*
X74635Y48343D01*
X74625Y48245D01*
X105125Y55745D02*
X105116Y55843D01*
X105087Y55936D01*
X105041Y56023D01*
X104979Y56099D01*
X104903Y56161D01*
X104817Y56207D01*
X104723Y56235D01*
X104625Y56245D01*
Y56745D02*
X104723Y56755D01*
X104817Y56783D01*
X104903Y56829D01*
X104979Y56891D01*
X105041Y56967D01*
X105087Y57054D01*
X105116Y57147D01*
X105125Y57245D01*
X106125Y58745D02*
X106028Y58735D01*
X105934Y58707D01*
X105847Y58661D01*
X105772Y58599D01*
X105710Y58523D01*
X105663Y58436D01*
X105635Y58343D01*
X105625Y58245D01*
X105125D02*
X105116Y58343D01*
X105087Y58436D01*
X105041Y58523D01*
X104979Y58599D01*
X104903Y58661D01*
X104817Y58707D01*
X104723Y58735D01*
X104625Y58745D01*
X75125D02*
X75028Y58735D01*
X74934Y58707D01*
X74847Y58661D01*
X74772Y58599D01*
X74710Y58523D01*
X74663Y58436D01*
X74635Y58343D01*
X74625Y58245D01*
Y57245D02*
X74635Y57147D01*
X74663Y57054D01*
X74710Y56967D01*
X74772Y56891D01*
X74847Y56829D01*
X74934Y56783D01*
X75028Y56755D01*
X75125Y56745D01*
Y56245D02*
X75028Y56235D01*
X74934Y56207D01*
X74847Y56161D01*
X74772Y56099D01*
X74710Y56023D01*
X74663Y55936D01*
X74635Y55843D01*
X74625Y55745D01*
Y53495D02*
X74635Y53397D01*
X74663Y53304D01*
X74710Y53217D01*
X74772Y53141D01*
X74847Y53079D01*
X74934Y53033D01*
X75028Y53005D01*
X75125Y52995D01*
Y52495D02*
X75028Y52485D01*
X74934Y52457D01*
X74847Y52411D01*
X74772Y52349D01*
X74710Y52273D01*
X74663Y52186D01*
X74635Y52093D01*
X74625Y51995D01*
Y49745D02*
X74635Y49649D01*
X74662Y49556D01*
X74708Y49470D01*
X74769Y49395D01*
X74843Y49332D01*
X74928Y49286D01*
X75020Y49256D01*
X75117Y49245D01*
X84125Y56245D02*
X84028Y56235D01*
X83934Y56207D01*
X83847Y56161D01*
X83772Y56099D01*
X83710Y56023D01*
X83663Y55936D01*
X83635Y55843D01*
X83625Y55745D01*
X84125Y51495D02*
X84028Y51485D01*
X83934Y51457D01*
X83847Y51411D01*
X83772Y51349D01*
X83710Y51273D01*
X83663Y51186D01*
X83635Y51093D01*
X83625Y50995D01*
X101605Y51495D02*
X101509Y51485D01*
X101416Y51456D01*
X101331Y51409D01*
X101257Y51345D01*
X101198Y51268D01*
X101155Y51181D01*
X101131Y51087D01*
X101126Y50990D01*
X101125Y49755D02*
X101135Y49657D01*
X101163Y49562D01*
X101209Y49474D01*
X101271Y49398D01*
X101347Y49334D01*
X101434Y49286D01*
X101528Y49256D01*
X101626Y49245D01*
X100135Y49245D02*
X100232Y49255D01*
X100325Y49283D01*
X100410Y49329D01*
X100485Y49392D01*
X100546Y49467D01*
X100590Y49553D01*
X100617Y49647D01*
X100625Y49744D01*
X100625Y51005D02*
X100616Y51101D01*
X100588Y51193D01*
X100543Y51277D01*
X100482Y51351D01*
X100407Y51412D01*
X100323Y51458D01*
X100231Y51486D01*
X100135Y51495D01*
X82635Y49245D02*
X82731Y49254D01*
X82823Y49282D01*
X82907Y49328D01*
X82982Y49389D01*
X83043Y49463D01*
X83088Y49547D01*
X83116Y49639D01*
X83125Y49735D01*
X83625D02*
X83635Y49639D01*
X83663Y49547D01*
X83708Y49463D01*
X83769Y49389D01*
X83843Y49328D01*
X83928Y49282D01*
X84020Y49254D01*
X84115Y49245D01*
X83625Y52485D02*
X83635Y52389D01*
X83663Y52297D01*
X83708Y52213D01*
X83769Y52139D01*
X83843Y52078D01*
X83928Y52032D01*
X84020Y52004D01*
X84115Y51995D01*
X83125Y52005D02*
X83115Y52103D01*
X83086Y52196D01*
X83039Y52283D01*
X82976Y52357D01*
X82899Y52418D01*
X82811Y52462D01*
X82716Y52488D01*
X82618Y52495D01*
X82645Y52995D02*
X82739Y53004D01*
X82829Y53032D01*
X82912Y53076D01*
X82985Y53136D01*
X83044Y53208D01*
X83089Y53291D01*
X83116Y53381D01*
X83125Y53475D01*
Y55755D02*
X83116Y55851D01*
X83088Y55943D01*
X83043Y56027D01*
X82982Y56101D01*
X82907Y56162D01*
X82823Y56208D01*
X82731Y56236D01*
X82635Y56245D01*
X111625Y48745D02*
X111528Y48735D01*
X111434Y48707D01*
X111347Y48661D01*
X111272Y48599D01*
X111210Y48523D01*
X111163Y48436D01*
X111135Y48343D01*
X111125Y48245D01*
Y47235D02*
X111135Y47138D01*
X111163Y47046D01*
X111210Y46960D01*
X111272Y46886D01*
X111347Y46825D01*
X111434Y46780D01*
X111527Y46753D01*
X111624Y46745D01*
X110137Y46745D02*
X110234Y46753D01*
X110327Y46781D01*
X110413Y46826D01*
X110488Y46888D01*
X110548Y46964D01*
X110593Y47051D01*
X110619Y47145D01*
X110625Y47242D01*
X110625Y48245D02*
X110616Y48343D01*
X110587Y48436D01*
X110541Y48523D01*
X110479Y48599D01*
X110403Y48661D01*
X110317Y48707D01*
X110223Y48735D01*
X110125Y48745D01*
X92875Y47245D02*
X92885Y47149D01*
X92912Y47056D01*
X92958Y46970D01*
X93019Y46895D01*
X93093Y46832D01*
X93178Y46786D01*
X93270Y46756D01*
X93367Y46745D01*
X93375Y48745D02*
X93278Y48735D01*
X93184Y48707D01*
X93097Y48661D01*
X93022Y48599D01*
X92960Y48523D01*
X92913Y48436D01*
X92885Y48343D01*
X92875Y48245D01*
X91887Y46745D02*
X91984Y46753D01*
X92077Y46781D01*
X92163Y46826D01*
X92238Y46888D01*
X92298Y46964D01*
X92343Y47051D01*
X92369Y47145D01*
X92375Y47242D01*
X92375Y48245D02*
X92366Y48343D01*
X92337Y48436D01*
X92291Y48523D01*
X92229Y48599D01*
X92153Y48661D01*
X92067Y48707D01*
X91973Y48735D01*
X91875Y48745D01*
X117625Y49745D02*
Y51005D01*
X105625Y49745D02*
Y50995D01*
X117625Y52495D02*
Y58245D01*
X105625Y52495D02*
Y58245D01*
X74125Y47245D02*
Y58245D01*
X74625Y47245D02*
Y48245D01*
X117625Y47245D02*
Y48245D01*
X105125Y49745D02*
Y50995D01*
X101125Y49745D02*
Y50995D01*
X83625Y49745D02*
Y50995D01*
X100625Y49745D02*
Y50995D01*
X83625Y52495D02*
Y55745D01*
X105125Y52495D02*
Y55745D01*
Y57245D02*
Y58245D01*
X74625Y57245D02*
Y58245D01*
X83125Y53495D02*
Y55745D01*
X74625Y53495D02*
Y55745D01*
X83125Y49745D02*
Y51995D01*
X74625Y49745D02*
Y51995D01*
X118125Y47245D02*
Y58245D01*
X111125Y47245D02*
Y48245D01*
X110625Y47245D02*
Y48245D01*
X92875Y47245D02*
Y48245D01*
X92375Y47245D02*
Y48245D01*
X106125Y51495D02*
X117125D01*
X106125Y51995D02*
X117125D01*
X84125D02*
X104625D01*
X106125Y58745D02*
X117125D01*
X106125Y49245D02*
X117125D01*
X101625Y51495D02*
X104625D01*
X101625Y49245D02*
X104625D01*
X84125D02*
X100125D01*
X84125Y51495D02*
X100125D01*
X84125Y56245D02*
X104625D01*
X75125Y56745D02*
X104625D01*
X75125Y56245D02*
X82625D01*
X75125Y52995D02*
X82625D01*
X75125Y52495D02*
X82625D01*
X75125Y49245D02*
X82625D01*
X75125Y59245D02*
X117125D01*
X75125Y46245D02*
X117125D01*
X75125Y58745D02*
X104625D01*
X111625Y48745D02*
X117125D01*
X111625Y46745D02*
X117125D01*
X93375Y48745D02*
X110125D01*
X75125D02*
X91875D01*
X75125Y46745D02*
X91875D01*
X93375D02*
X110125D01*
X115546Y77617D02*
X116166D01*
X115856Y77297D02*
Y77937D01*
X115546Y77097D02*
X116166D01*
X107206Y75732D02*
X107826D01*
X107516Y75412D02*
Y76052D01*
X107206Y75212D02*
X107826D01*
X88646Y74387D02*
X98376D01*
X96346Y67947D02*
Y74387D01*
X94986Y66587D02*
X96346Y67947D01*
X92096Y66587D02*
X94986D01*
X92096D02*
X92396Y66887D01*
X92096Y66587D02*
X92376Y66307D01*
X80626Y62177D02*
X80641Y62084D01*
X80683Y62000D01*
X80750Y61934D01*
X80833Y61891D01*
X80926Y61877D01*
X91106D02*
X91199Y61891D01*
X91282Y61934D01*
X91349Y62000D01*
X91391Y62084D01*
X91406Y62177D01*
Y71467D02*
X91391Y71559D01*
X91349Y71643D01*
X91282Y71709D01*
X91199Y71752D01*
X91106Y71767D01*
X80926D02*
X80833Y71752D01*
X80750Y71709D01*
X80683Y71643D01*
X80641Y71559D01*
X80626Y71467D01*
Y62177D02*
Y71467D01*
X80926Y61877D02*
X91106D01*
X80926Y71767D02*
X91106D01*
X91406Y62177D02*
Y71467D01*
D28*
X82276Y69197D02*
Y69387D01*
X81146Y67397D02*
Y69917D01*
X82036Y69627D02*
X82276Y69387D01*
X81626Y69627D02*
X82036D01*
X81376Y67397D02*
Y69377D01*
X81626Y69627D01*
D31*
X90436Y63837D02*
Y64537D01*
X90191Y64782D02*
Y65802D01*
X88568Y65807D02*
X89026D01*
X89296Y66077D01*
X89916D01*
X90191Y65802D01*
Y64782D02*
X90436Y64537D01*
X72042Y102542D02*
X77142D01*
D33*
X110628Y50624D02*
X110375Y50090D01*
X110273Y50624D02*
X110628D01*
X110748Y50014D02*
X111103Y50624D01*
X111139Y50522D02*
X111190Y50547D01*
X111266Y50624D01*
Y50090D01*
X111860Y50446D02*
X111835Y50370D01*
X111784Y50319D01*
X111708Y50294D01*
X111682D01*
X111606Y50319D01*
X111555Y50370D01*
X111530Y50446D01*
Y50471D01*
X111555Y50547D01*
X111606Y50598D01*
X111682Y50624D01*
X111708D01*
X111784Y50598D01*
X111835Y50547D01*
X111860Y50446D01*
Y50319D01*
X111835Y50192D01*
X111784Y50116D01*
X111708Y50090D01*
X111657D01*
X111581Y50116D01*
X111555Y50167D01*
X112005Y50014D02*
X112360Y50624D01*
X112548D02*
X112472Y50598D01*
X112421Y50522D01*
X112396Y50395D01*
Y50319D01*
X112421Y50192D01*
X112472Y50116D01*
X112548Y50090D01*
X112599D01*
X112675Y50116D01*
X112726Y50192D01*
X112751Y50319D01*
Y50395D01*
X112726Y50522D01*
X112675Y50598D01*
X112599Y50624D01*
X112548D01*
X113175D02*
X112921D01*
X112896Y50395D01*
X112921Y50421D01*
X112998Y50446D01*
X113074D01*
X113150Y50421D01*
X113201Y50370D01*
X113226Y50294D01*
Y50243D01*
X113201Y50167D01*
X113150Y50116D01*
X113074Y50090D01*
X112998D01*
X112921Y50116D01*
X112896Y50141D01*
X112871Y50192D01*
X91896Y54687D02*
Y53727D01*
X91576Y54687D02*
X92216D01*
X92879Y54367D02*
Y53727D01*
Y54230D02*
X92787Y54321D01*
X92696Y54367D01*
X92559D01*
X92467Y54321D01*
X92376Y54230D01*
X92330Y54092D01*
Y54001D01*
X92376Y53864D01*
X92467Y53772D01*
X92559Y53727D01*
X92696D01*
X92787Y53772D01*
X92879Y53864D01*
X93683Y54367D02*
Y53635D01*
X93637Y53498D01*
X93592Y53453D01*
X93500Y53407D01*
X93363D01*
X93272Y53453D01*
X93683Y54230D02*
X93592Y54321D01*
X93500Y54367D01*
X93363D01*
X93272Y54321D01*
X93180Y54230D01*
X93135Y54092D01*
Y54001D01*
X93180Y53864D01*
X93272Y53772D01*
X93363Y53727D01*
X93500D01*
X93592Y53772D01*
X93683Y53864D01*
X93939Y54504D02*
X94030Y54549D01*
X94168Y54687D01*
Y53727D01*
X94917Y54687D02*
X94780Y54641D01*
X94689Y54504D01*
X94643Y54275D01*
Y54138D01*
X94689Y53910D01*
X94780Y53772D01*
X94917Y53727D01*
X95008D01*
X95146Y53772D01*
X95237Y53910D01*
X95283Y54138D01*
Y54275D01*
X95237Y54504D01*
X95146Y54641D01*
X95008Y54687D01*
X94917D01*
X95955D02*
X95498Y54047D01*
X96183D01*
X95955Y54687D02*
Y53727D01*
X86157Y57295D02*
X85791Y58255D01*
X85425Y57295D01*
X85562Y57615D02*
X86019D01*
X86929Y57798D02*
X86838Y57889D01*
X86746Y57935D01*
X86609D01*
X86518Y57889D01*
X86426Y57798D01*
X86380Y57661D01*
Y57569D01*
X86426Y57432D01*
X86518Y57341D01*
X86609Y57295D01*
X86746D01*
X86838Y57341D01*
X86929Y57432D01*
X87272Y58255D02*
Y57478D01*
X87317Y57341D01*
X87409Y57295D01*
X87500D01*
X87135Y57935D02*
X87455D01*
X87729Y58255D02*
X87774Y58209D01*
X87820Y58255D01*
X87774Y58301D01*
X87729Y58255D01*
X87774Y57935D02*
Y57295D01*
X87989Y57935D02*
X88264Y57295D01*
X88538Y57935D02*
X88264Y57295D01*
X88693Y57661D02*
X89242D01*
Y57752D01*
X89196Y57843D01*
X89150Y57889D01*
X89059Y57935D01*
X88922D01*
X88830Y57889D01*
X88739Y57798D01*
X88693Y57661D01*
Y57569D01*
X88739Y57432D01*
X88830Y57341D01*
X88922Y57295D01*
X89059D01*
X89150Y57341D01*
X89242Y57432D01*
X90201Y58255D02*
X90430Y57295D01*
X90658Y58255D02*
X90430Y57295D01*
X90658Y58255D02*
X90887Y57295D01*
X91115Y58255D02*
X90887Y57295D01*
X91856Y57935D02*
Y57295D01*
Y57798D02*
X91764Y57889D01*
X91673Y57935D01*
X91536D01*
X91445Y57889D01*
X91353Y57798D01*
X91307Y57661D01*
Y57569D01*
X91353Y57432D01*
X91445Y57341D01*
X91536Y57295D01*
X91673D01*
X91764Y57341D01*
X91856Y57432D01*
X92112Y57935D02*
X92386Y57295D01*
X92660Y57935D02*
X92386Y57295D01*
X92816Y57661D02*
X93364D01*
Y57752D01*
X93318Y57843D01*
X93273Y57889D01*
X93181Y57935D01*
X93044D01*
X92953Y57889D01*
X92861Y57798D01*
X92816Y57661D01*
Y57569D01*
X92861Y57432D01*
X92953Y57341D01*
X93044Y57295D01*
X93181D01*
X93273Y57341D01*
X93364Y57432D01*
X103403Y50403D02*
X103326Y50378D01*
X103276Y50302D01*
X103250Y50175D01*
Y50099D01*
X103276Y49972D01*
X103326Y49895D01*
X103403Y49870D01*
X103453D01*
X103530Y49895D01*
X103580Y49972D01*
X103606Y50099D01*
Y50175D01*
X103580Y50302D01*
X103530Y50378D01*
X103453Y50403D01*
X103403D01*
X103852D02*
X103776Y50378D01*
X103750Y50327D01*
Y50276D01*
X103776Y50225D01*
X103827Y50200D01*
X103928Y50175D01*
X104004Y50149D01*
X104055Y50099D01*
X104081Y50048D01*
Y49972D01*
X104055Y49921D01*
X104030Y49895D01*
X103954Y49870D01*
X103852D01*
X103776Y49895D01*
X103750Y49921D01*
X103725Y49972D01*
Y50048D01*
X103750Y50099D01*
X103801Y50149D01*
X103877Y50175D01*
X103979Y50200D01*
X104030Y50225D01*
X104055Y50276D01*
Y50327D01*
X104030Y50378D01*
X103954Y50403D01*
X103852D01*
D34*
X106125Y51153D02*
Y50620D01*
Y51153D02*
X106303D01*
X106379Y51128D01*
X106430Y51077D01*
X106455Y51026D01*
X106481Y50950D01*
Y50823D01*
X106455Y50747D01*
X106430Y50696D01*
X106379Y50645D01*
X106303Y50620D01*
X106125D01*
X107006D02*
X106803Y51153D01*
X106600Y50620D01*
X106676Y50798D02*
X106930D01*
X107309Y51153D02*
Y50620D01*
X107131Y51153D02*
X107486D01*
X107880D02*
X107550D01*
Y50620D01*
X107880D01*
X107550Y50899D02*
X107753D01*
X107994Y50975D02*
X107969Y50950D01*
X107994Y50925D01*
X108019Y50950D01*
X107994Y50975D01*
Y50671D02*
X107969Y50645D01*
X107994Y50620D01*
X108019Y50645D01*
X107994Y50671D01*
X101500Y51153D02*
Y50620D01*
Y51153D02*
X101729D01*
X101805Y51128D01*
X101830Y51102D01*
X101856Y51052D01*
Y51001D01*
X101830Y50950D01*
X101805Y50925D01*
X101729Y50899D01*
X101500D01*
X101678D02*
X101856Y50620D01*
X102305Y51153D02*
X101975D01*
Y50620D01*
X102305D01*
X101975Y50899D02*
X102178D01*
X102394Y51153D02*
X102597Y50620D01*
X102800Y51153D02*
X102597Y50620D01*
X102894Y50975D02*
X102869Y50950D01*
X102894Y50925D01*
X102920Y50950D01*
X102894Y50975D01*
Y50671D02*
X102869Y50645D01*
X102894Y50620D01*
X102920Y50645D01*
X102894Y50671D01*
X75125Y53624D02*
X75354D01*
X75430Y53649D01*
X75455Y53675D01*
X75481Y53725D01*
Y53802D01*
X75455Y53852D01*
X75430Y53878D01*
X75354Y53903D01*
X75125D01*
Y53370D01*
X75600Y53903D02*
Y53370D01*
X75956Y53903D02*
Y53370D01*
X75600Y53649D02*
X75956D01*
X76255Y53903D02*
X76204Y53878D01*
X76154Y53827D01*
X76128Y53776D01*
X76103Y53700D01*
Y53573D01*
X76128Y53497D01*
X76154Y53446D01*
X76204Y53395D01*
X76255Y53370D01*
X76357D01*
X76408Y53395D01*
X76458Y53446D01*
X76484Y53497D01*
X76509Y53573D01*
Y53700D01*
X76484Y53776D01*
X76458Y53827D01*
X76408Y53878D01*
X76357Y53903D01*
X76255D01*
X76634D02*
Y53370D01*
Y53903D02*
X76989Y53370D01*
Y53903D02*
Y53370D01*
X77466Y53903D02*
X77136D01*
Y53370D01*
X77466D01*
X77136Y53649D02*
X77339D01*
X77581Y53725D02*
X77555Y53700D01*
X77581Y53675D01*
X77606Y53700D01*
X77581Y53725D01*
Y53421D02*
X77555Y53395D01*
X77581Y53370D01*
X77606Y53395D01*
X77581Y53421D01*
X75125Y49874D02*
X75354D01*
X75430Y49899D01*
X75455Y49925D01*
X75481Y49975D01*
Y50052D01*
X75455Y50102D01*
X75430Y50128D01*
X75354Y50153D01*
X75125D01*
Y49620D01*
X75600Y50153D02*
Y49620D01*
X75956Y50153D02*
Y49620D01*
X75600Y49899D02*
X75956D01*
X76255Y50153D02*
X76204Y50128D01*
X76154Y50077D01*
X76128Y50026D01*
X76103Y49950D01*
Y49823D01*
X76128Y49747D01*
X76154Y49696D01*
X76204Y49645D01*
X76255Y49620D01*
X76357D01*
X76408Y49645D01*
X76458Y49696D01*
X76484Y49747D01*
X76509Y49823D01*
Y49950D01*
X76484Y50026D01*
X76458Y50077D01*
X76408Y50128D01*
X76357Y50153D01*
X76255D01*
X76634D02*
Y49620D01*
Y50153D02*
X76989Y49620D01*
Y50153D02*
Y49620D01*
X77466Y50153D02*
X77136D01*
Y49620D01*
X77466D01*
X77136Y49899D02*
X77339D01*
X77581Y49975D02*
X77555Y49950D01*
X77581Y49925D01*
X77606Y49950D01*
X77581Y49975D01*
Y49671D02*
X77555Y49645D01*
X77581Y49620D01*
X77606Y49645D01*
X77581Y49671D01*
X93525Y48378D02*
Y47845D01*
X93830D01*
X94295D02*
X94091Y48378D01*
X93888Y47845D01*
X93965Y48023D02*
X94218D01*
X94419Y48378D02*
X94622Y48124D01*
Y47845D01*
X94825Y48378D02*
X94622Y48124D01*
X95224Y48378D02*
X94894D01*
Y47845D01*
X95224D01*
X94894Y48124D02*
X95097D01*
X95313Y48378D02*
Y47845D01*
Y48378D02*
X95541D01*
X95618Y48353D01*
X95643Y48327D01*
X95668Y48277D01*
Y48226D01*
X95643Y48175D01*
X95618Y48150D01*
X95541Y48124D01*
X95313D01*
X95491D02*
X95668Y47845D01*
X95813Y48200D02*
X95788Y48175D01*
X95813Y48150D01*
X95838Y48175D01*
X95813Y48200D01*
Y47896D02*
X95788Y47870D01*
X95813Y47845D01*
X95838Y47870D01*
X95813Y47896D01*
X75455Y55778D02*
X75125D01*
Y55245D01*
X75455D01*
X75125Y55524D02*
X75328D01*
X75544Y55778D02*
Y55245D01*
Y55778D02*
X75900Y55245D01*
Y55778D02*
Y55245D01*
X76428Y55651D02*
X76402Y55702D01*
X76352Y55753D01*
X76301Y55778D01*
X76199D01*
X76149Y55753D01*
X76098Y55702D01*
X76072Y55651D01*
X76047Y55575D01*
Y55448D01*
X76072Y55372D01*
X76098Y55321D01*
X76149Y55270D01*
X76199Y55245D01*
X76301D01*
X76352Y55270D01*
X76402Y55321D01*
X76428Y55372D01*
Y55448D01*
X76301D02*
X76428D01*
X76550Y55778D02*
Y55245D01*
X76661Y55778D02*
Y55245D01*
Y55778D02*
X77017Y55245D01*
Y55778D02*
Y55245D01*
X77494Y55778D02*
X77164D01*
Y55245D01*
X77494D01*
X77164Y55524D02*
X77367D01*
X77913Y55778D02*
X77583D01*
Y55245D01*
X77913D01*
X77583Y55524D02*
X77786D01*
X78002Y55778D02*
Y55245D01*
Y55778D02*
X78231D01*
X78307Y55753D01*
X78332Y55727D01*
X78358Y55677D01*
Y55626D01*
X78332Y55575D01*
X78307Y55550D01*
X78231Y55524D01*
X78002D01*
X78180D02*
X78358Y55245D01*
X78502Y55600D02*
X78477Y55575D01*
X78502Y55550D01*
X78528Y55575D01*
X78502Y55600D01*
Y55296D02*
X78477Y55270D01*
X78502Y55245D01*
X78528Y55270D01*
X78502Y55296D01*
X84125Y50874D02*
X84354D01*
X84430Y50899D01*
X84455Y50925D01*
X84481Y50975D01*
Y51052D01*
X84455Y51102D01*
X84430Y51128D01*
X84354Y51153D01*
X84125D01*
Y50620D01*
X85006D02*
X84803Y51153D01*
X84600Y50620D01*
X84676Y50798D02*
X84930D01*
X85131Y51153D02*
Y50620D01*
Y51153D02*
X85359D01*
X85435Y51128D01*
X85461Y51102D01*
X85486Y51052D01*
Y51001D01*
X85461Y50950D01*
X85435Y50925D01*
X85359Y50899D01*
X85131D01*
X85309D02*
X85486Y50620D01*
X85783Y51153D02*
Y50620D01*
X85606Y51153D02*
X85961D01*
X86444D02*
Y50620D01*
Y51153D02*
X86799Y50620D01*
Y51153D02*
Y50620D01*
X87099Y51153D02*
X87048Y51128D01*
X86997Y51077D01*
X86972Y51026D01*
X86946Y50950D01*
Y50823D01*
X86972Y50747D01*
X86997Y50696D01*
X87048Y50645D01*
X87099Y50620D01*
X87200D01*
X87251Y50645D01*
X87302Y50696D01*
X87327Y50747D01*
X87353Y50823D01*
Y50950D01*
X87327Y51026D01*
X87302Y51077D01*
X87251Y51128D01*
X87200Y51153D01*
X87099D01*
X87502Y50671D02*
X87477Y50645D01*
X87502Y50620D01*
X87528Y50645D01*
X87502Y50671D01*
X87670Y50975D02*
X87645Y50950D01*
X87670Y50925D01*
X87695Y50950D01*
X87670Y50975D01*
Y50671D02*
X87645Y50645D01*
X87670Y50620D01*
X87695Y50645D01*
X87670Y50671D01*
X84178Y55903D02*
Y55370D01*
X84000Y55903D02*
X84356D01*
X84419D02*
Y55370D01*
X84709Y55903D02*
Y55370D01*
X84531Y55903D02*
X84886D01*
X84950D02*
Y55370D01*
X85255D01*
X85643Y55903D02*
X85313D01*
Y55370D01*
X85643D01*
X85313Y55649D02*
X85516D01*
X85757Y55725D02*
X85732Y55700D01*
X85757Y55675D01*
X85783Y55700D01*
X85757Y55725D01*
Y55421D02*
X85732Y55395D01*
X85757Y55370D01*
X85783Y55395D01*
X85757Y55421D01*
X75125Y51978D02*
Y51445D01*
Y51978D02*
X75303D01*
X75379Y51953D01*
X75430Y51902D01*
X75455Y51851D01*
X75481Y51775D01*
Y51648D01*
X75455Y51572D01*
X75430Y51521D01*
X75379Y51470D01*
X75303Y51445D01*
X75125D01*
X75600Y51800D02*
Y51445D01*
Y51648D02*
X75625Y51724D01*
X75676Y51775D01*
X75727Y51800D01*
X75803D01*
X76156D02*
Y51445D01*
Y51724D02*
X76105Y51775D01*
X76055Y51800D01*
X75978D01*
X75928Y51775D01*
X75877Y51724D01*
X75851Y51648D01*
Y51597D01*
X75877Y51521D01*
X75928Y51470D01*
X75978Y51445D01*
X76055D01*
X76105Y51470D01*
X76156Y51521D01*
X76298Y51800D02*
X76400Y51445D01*
X76501Y51800D02*
X76400Y51445D01*
X76501Y51800D02*
X76603Y51445D01*
X76705Y51800D02*
X76603Y51445D01*
X76829Y51800D02*
Y51445D01*
Y51699D02*
X76905Y51775D01*
X76956Y51800D01*
X77032D01*
X77083Y51775D01*
X77108Y51699D01*
Y51445D01*
X77667Y51978D02*
Y51445D01*
Y51724D02*
X77718Y51775D01*
X77769Y51800D01*
X77845D01*
X77895Y51775D01*
X77946Y51724D01*
X77972Y51648D01*
Y51597D01*
X77946Y51521D01*
X77895Y51470D01*
X77845Y51445D01*
X77769D01*
X77718Y51470D01*
X77667Y51521D01*
X78111Y51800D02*
X78264Y51445D01*
X78416Y51800D02*
X78264Y51445D01*
X78213Y51343D01*
X78162Y51293D01*
X78111Y51267D01*
X78086D01*
X78530Y51800D02*
X78505Y51775D01*
X78530Y51750D01*
X78556Y51775D01*
X78530Y51800D01*
Y51496D02*
X78505Y51470D01*
X78530Y51445D01*
X78556Y51470D01*
X78530Y51496D01*
X75125Y48378D02*
Y47845D01*
Y48378D02*
X75455D01*
X75125Y48124D02*
X75328D01*
X75516Y48378D02*
Y47845D01*
X75628Y48378D02*
Y47845D01*
X75933D01*
X76321Y48378D02*
X75991D01*
Y47845D01*
X76321D01*
X75991Y48124D02*
X76194D01*
X76829Y48378D02*
Y47845D01*
Y48378D02*
X77185Y47845D01*
Y48378D02*
Y47845D01*
X77738D02*
X77535Y48378D01*
X77332Y47845D01*
X77408Y48023D02*
X77662D01*
X77862Y48378D02*
Y47845D01*
Y48378D02*
X78066Y47845D01*
X78269Y48378D02*
X78066Y47845D01*
X78269Y48378D02*
Y47845D01*
X78751Y48378D02*
X78421D01*
Y47845D01*
X78751D01*
X78421Y48124D02*
X78624D01*
X78865Y48200D02*
X78840Y48175D01*
X78865Y48150D01*
X78891Y48175D01*
X78865Y48200D01*
Y47896D02*
X78840Y47870D01*
X78865Y47845D01*
X78891Y47870D01*
X78865Y47896D01*
X112106Y48251D02*
X112081Y48302D01*
X112030Y48353D01*
X111979Y48378D01*
X111878D01*
X111827Y48353D01*
X111776Y48302D01*
X111751Y48251D01*
X111725Y48175D01*
Y48048D01*
X111751Y47972D01*
X111776Y47921D01*
X111827Y47870D01*
X111878Y47845D01*
X111979D01*
X112030Y47870D01*
X112081Y47921D01*
X112106Y47972D01*
Y48048D01*
X111979D02*
X112106D01*
X112558Y48378D02*
X112228D01*
Y47845D01*
X112558D01*
X112228Y48124D02*
X112431D01*
X112647Y48378D02*
Y47845D01*
Y48378D02*
X112875D01*
X112952Y48353D01*
X112977Y48327D01*
X113002Y48277D01*
Y48226D01*
X112977Y48175D01*
X112952Y48150D01*
X112875Y48124D01*
X112647D01*
X112825D02*
X113002Y47845D01*
X113122Y48378D02*
Y47845D01*
Y48378D02*
X113350D01*
X113426Y48353D01*
X113452Y48327D01*
X113477Y48277D01*
Y48226D01*
X113452Y48175D01*
X113426Y48150D01*
X113350Y48124D01*
X113122D02*
X113350D01*
X113426Y48099D01*
X113452Y48074D01*
X113477Y48023D01*
Y47947D01*
X113452Y47896D01*
X113426Y47870D01*
X113350Y47845D01*
X113122D01*
X113927Y48378D02*
X113597D01*
Y47845D01*
X113927D01*
X113597Y48124D02*
X113800D01*
X114016Y48378D02*
Y47845D01*
Y48378D02*
X114244D01*
X114320Y48353D01*
X114346Y48327D01*
X114371Y48277D01*
Y48226D01*
X114346Y48175D01*
X114320Y48150D01*
X114244Y48124D01*
X114016D01*
X114193D02*
X114371Y47845D01*
X114516Y48200D02*
X114490Y48175D01*
X114516Y48150D01*
X114541Y48175D01*
X114516Y48200D01*
Y47896D02*
X114490Y47870D01*
X114516Y47845D01*
X114541Y47870D01*
X114516Y47896D01*
D35*
X90796Y63227D02*
D03*
D38*
X90446Y71347D02*
D03*
X90206Y66347D02*
D03*
X82036Y64226D02*
D03*
X89436Y62937D02*
D03*
X88066Y63427D02*
D03*
X86816Y65777D02*
D03*
X90191Y65251D02*
D03*
X85246Y64630D02*
D03*
X83496Y65387D02*
D03*
X87217Y67177D02*
D03*
X84996Y70937D02*
D03*
X87617Y66109D02*
D03*
X84986Y70557D02*
D03*
X85240Y62993D02*
D03*
X88876Y70577D02*
D03*
X84145Y66357D02*
D03*
X86490Y69343D02*
D03*
X87506Y68707D02*
D03*
X86690Y69793D02*
D03*
X85780Y69293D02*
D03*
X84640Y70243D02*
D03*
X86196Y63557D02*
D03*
X84706Y68277D02*
D03*
X82856Y66077D02*
D03*
X83106Y66427D02*
D03*
X82756Y66777D02*
D03*
X82656Y67677D02*
D03*
X83356Y69477D02*
D03*
X82826Y70147D02*
D03*
X84656Y68827D02*
D03*
X82276Y69197D02*
D03*
X81946Y68647D02*
D03*
X82396Y70187D02*
D03*
X83996Y70497D02*
D03*
X88718Y66457D02*
D03*
X82626Y68297D02*
D03*
X81526Y67117D02*
D03*
X81426Y65267D02*
D03*
X85626Y66177D02*
D03*
X90477Y68976D02*
D03*
X89986Y69827D02*
D03*
X90436Y64237D02*
D03*
Y63807D02*
D03*
D39*
X90406Y62937D02*
X90776Y63307D01*
X89716Y62937D02*
X90406D01*
M02*
