M48
;Layer_Color=16711680
;FILE_FORMAT=2:3
INCH,LZ
;TYPE=PLATED
T1F00S00C0.015
T2F00S00C0.017
T3F00S00C0.033
T4F00S00C0.035
T5F00S00C0.040
T6F00S00C0.122
;TYPE=NON_PLATED
T7F00S00C0.100
T8F00S00C0.200
%
T01
X00525Y0111
X00605Y011
X014Y01125
X0155Y0113
X0182Y01075
T02
X00089Y00754
X00099Y00939
X00141Y01092
X00342Y01114
X00412Y01128
X0046Y0113
X0058Y01125
X00555Y0107
X00548Y01033
X00707Y01031
X00744Y01029
X00836Y0104
X00832Y00976
X00868Y00949
X00849Y00894
X00766Y00861
X00815Y00777
X008Y00653
X00728Y00624
X00678Y00653
X00566Y00583
X00576Y00502
X0047Y00527
X00471Y0069
X00566Y00741
X006Y00774
X00571Y00881
X0068Y00926
X00662Y0109
X00778Y01102
X01006Y01109
X00961Y01038
X00912Y00983
X00977Y00869
X01078Y00876
X01153Y00863
X01186Y00843
X01303
X01218Y00955
Y01064
X0126
X01153
X0137Y01043
Y00983
X01329Y00496
X00885Y00522
Y00597
X00948Y00653
X01026Y00731
X00806Y00548
X00371Y00808
X00319Y00878
X00257Y0087
X00186Y00828
X00296Y00737
X00151Y00651
X00308Y01
X00446Y00966
X02615Y00685
X02865Y00805
Y00845
X01153Y01159
X01098Y01216
X00952Y01182
X00788Y01167
X00728Y01156
X00667Y01163
X00625Y01215
X00585
X00536Y01185
Y01149
X00486Y01244
X00409
X00419Y01364
X00467
X00533Y01375
X00597Y01466
X00685Y01339
X00817Y01318
X00339Y01315
X00261Y01242
X00186Y01246
X00174Y01147
X00282Y01175
X01121Y01505
T03
X00076Y00501
X01026Y0055
X01025Y0129
X00098Y01275
T04
X02323Y00711
X02478
X01775Y0131
X01675
X01575
X01475
X01375
T05
X01024Y00465
T06
X00249Y00255
X03032Y01533
T07
X0154Y00907
T08
X0271Y004
M30
