%FSLAX23Y23*%
%MOIN*%
G70*
G01*
G75*
G04 Layer_Physical_Order=1*
G04 Layer_Color=255*
%ADD10R,0.080X0.060*%
%ADD11R,0.091X0.067*%
%ADD12R,0.030X0.030*%
%ADD13R,0.030X0.030*%
%ADD14R,0.024X0.024*%
%ADD15R,0.098X0.138*%
%ADD16R,0.020X0.050*%
%ADD17R,0.080X0.120*%
%ADD18R,0.070X0.100*%
%ADD19R,0.100X0.070*%
%ADD20O,0.016X0.060*%
%ADD21R,0.014X0.035*%
%ADD22R,0.025X0.030*%
%ADD23R,0.100X0.100*%
%ADD24R,0.064X0.044*%
%ADD25R,0.014X0.035*%
%ADD26R,0.090X0.024*%
%ADD27R,0.024X0.100*%
%ADD28R,0.070X0.024*%
%ADD29R,0.024X0.090*%
%ADD30O,0.016X0.060*%
%ADD31R,0.075X0.043*%
%ADD32R,0.036X0.036*%
%ADD33R,0.036X0.050*%
%ADD34C,0.040*%
%ADD35R,0.074X0.045*%
%ADD36R,0.036X0.036*%
%ADD37R,0.050X0.036*%
%ADD38O,0.024X0.080*%
%ADD39C,0.015*%
%ADD40C,0.040*%
%ADD41C,0.006*%
%ADD42C,0.025*%
%ADD43C,0.010*%
%ADD44C,0.030*%
%ADD45C,0.012*%
%ADD46C,0.016*%
%ADD47C,0.014*%
%ADD48C,0.020*%
%ADD49C,0.008*%
%ADD50C,0.074*%
%ADD51C,0.005*%
%ADD52C,0.009*%
%ADD53C,0.062*%
%ADD54C,0.195*%
%ADD55C,0.070*%
%ADD56C,0.100*%
%ADD57C,0.122*%
%ADD58R,0.050X0.050*%
%ADD59C,0.028*%
D10*
X2015Y875D02*
D03*
X1875D02*
D03*
X1995Y760D02*
D03*
X1855D02*
D03*
D11*
X1705Y799D02*
D03*
Y1051D02*
D03*
D12*
X1825Y965D02*
D03*
Y1025D02*
D03*
X1895Y965D02*
D03*
Y1025D02*
D03*
X159Y972D02*
D03*
X476Y1026D02*
D03*
Y966D02*
D03*
X976Y1146D02*
D03*
Y1206D02*
D03*
X416Y966D02*
D03*
X1540Y680D02*
D03*
X416Y1026D02*
D03*
X596Y836D02*
D03*
Y896D02*
D03*
X99Y1092D02*
D03*
Y1152D02*
D03*
X185Y591D02*
D03*
Y651D02*
D03*
X1540Y740D02*
D03*
X159Y1032D02*
D03*
X342Y975D02*
D03*
Y1035D02*
D03*
X99Y972D02*
D03*
Y1032D02*
D03*
X229Y1207D02*
D03*
Y1147D02*
D03*
X961Y553D02*
D03*
X331Y706D02*
D03*
X430Y527D02*
D03*
X1035Y1146D02*
D03*
X1445Y1070D02*
D03*
X416Y848D02*
D03*
X124Y755D02*
D03*
X171Y541D02*
D03*
X111Y587D02*
D03*
X186Y711D02*
D03*
X111Y647D02*
D03*
X124Y695D02*
D03*
X330Y601D02*
D03*
X430Y467D02*
D03*
X520D02*
D03*
X186Y771D02*
D03*
X261Y595D02*
D03*
Y706D02*
D03*
Y655D02*
D03*
X330Y661D02*
D03*
X416Y908D02*
D03*
X1035Y1206D02*
D03*
X331Y766D02*
D03*
X961Y493D02*
D03*
X171Y481D02*
D03*
X520Y527D02*
D03*
X261Y766D02*
D03*
X1445Y1010D02*
D03*
X1036Y1011D02*
D03*
Y1071D02*
D03*
D13*
X1605Y1145D02*
D03*
X124Y855D02*
D03*
Y805D02*
D03*
Y904D02*
D03*
X1665Y1145D02*
D03*
X1745D02*
D03*
X1155Y1215D02*
D03*
X1215D02*
D03*
X940Y885D02*
D03*
X880D02*
D03*
Y815D02*
D03*
X940D02*
D03*
X161Y1281D02*
D03*
X221D02*
D03*
X580Y1360D02*
D03*
X916Y1071D02*
D03*
X976D02*
D03*
X901Y1361D02*
D03*
X841D02*
D03*
X856Y1131D02*
D03*
X916D02*
D03*
X716Y856D02*
D03*
X656D02*
D03*
Y806D02*
D03*
X716D02*
D03*
X476Y851D02*
D03*
X536D02*
D03*
Y906D02*
D03*
X476D02*
D03*
X971Y736D02*
D03*
X911D02*
D03*
X1324Y277D02*
D03*
X1384D02*
D03*
X476Y1086D02*
D03*
X416D02*
D03*
X342Y1203D02*
D03*
Y1145D02*
D03*
Y1085D02*
D03*
X64Y855D02*
D03*
Y805D02*
D03*
X180Y1088D02*
D03*
X281Y1281D02*
D03*
X240Y1088D02*
D03*
X282Y1085D02*
D03*
Y1203D02*
D03*
Y1145D02*
D03*
X359Y534D02*
D03*
X299D02*
D03*
X360Y477D02*
D03*
X640Y1360D02*
D03*
X341Y1281D02*
D03*
X721Y1361D02*
D03*
X300Y477D02*
D03*
X781Y1361D02*
D03*
X1805Y1145D02*
D03*
X64Y904D02*
D03*
D14*
X257Y974D02*
D03*
X237Y1025D02*
D03*
X276D02*
D03*
X221Y533D02*
D03*
X260D02*
D03*
X241Y482D02*
D03*
D15*
X2348Y516D02*
D03*
X1922D02*
D03*
X2348Y264D02*
D03*
X1922D02*
D03*
D16*
X411Y1191D02*
D03*
Y1291D02*
D03*
X486D02*
D03*
X448Y1191D02*
D03*
X486D02*
D03*
D17*
X2168Y722D02*
D03*
D18*
X2548D02*
D03*
D19*
X2610Y620D02*
D03*
D20*
X609Y979D02*
D03*
X711D02*
D03*
X558D02*
D03*
X583Y1286D02*
D03*
X609D02*
D03*
X762D02*
D03*
X660D02*
D03*
X583Y979D02*
D03*
X558Y1286D02*
D03*
X788D02*
D03*
X762Y979D02*
D03*
X737D02*
D03*
X711Y1286D02*
D03*
X686Y979D02*
D03*
X660D02*
D03*
X737Y1286D02*
D03*
X634D02*
D03*
X788Y979D02*
D03*
X686Y1286D02*
D03*
X634Y979D02*
D03*
D21*
X1052Y904D02*
D03*
D22*
X655Y913D02*
D03*
X715D02*
D03*
D23*
X2610Y180D02*
D03*
X2810D02*
D03*
Y620D02*
D03*
D24*
X1540Y987D02*
D03*
Y827D02*
D03*
D25*
X1052Y818D02*
D03*
X1000D02*
D03*
X1026Y904D02*
D03*
X1000D02*
D03*
X825D02*
D03*
Y818D02*
D03*
X773D02*
D03*
Y904D02*
D03*
X799D02*
D03*
D26*
X401Y690D02*
D03*
D27*
X421Y774D02*
D03*
X471D02*
D03*
X520Y775D02*
D03*
X521Y612D02*
D03*
X471D02*
D03*
D28*
X543Y690D02*
D03*
D29*
X421Y617D02*
D03*
D30*
X860Y654D02*
D03*
X911Y467D02*
D03*
X885Y654D02*
D03*
X911D02*
D03*
X834Y467D02*
D03*
X885D02*
D03*
X860D02*
D03*
X834Y654D02*
D03*
D31*
X891Y1293D02*
D03*
Y1199D02*
D03*
D32*
X356Y908D02*
D03*
X281D02*
D03*
X1370Y945D02*
D03*
X1445D02*
D03*
D33*
X318Y828D02*
D03*
X1408Y851D02*
D03*
D34*
X0Y0D02*
D03*
X3080Y1815D02*
D03*
X0D02*
D03*
X3080Y0D02*
D03*
X419Y1364D02*
D03*
X467D02*
D03*
X576Y502D02*
D03*
D35*
X846Y718D02*
D03*
D36*
X1329Y362D02*
D03*
Y437D02*
D03*
D37*
X1409Y399D02*
D03*
D38*
X628Y495D02*
D03*
X678D02*
D03*
X728D02*
D03*
X628Y715D02*
D03*
X728D02*
D03*
X778D02*
D03*
X678D02*
D03*
X778Y495D02*
D03*
D39*
X1705Y682D02*
X1715Y692D01*
X952Y1182D02*
X976Y1206D01*
X949Y1232D02*
X1035Y1146D01*
X799Y876D02*
Y940D01*
X448Y1142D02*
X476Y1114D01*
X566Y583D02*
Y808D01*
X371D02*
X566D01*
X389Y690D02*
X551D01*
X371Y583D02*
Y808D01*
X1525Y1070D02*
X1540Y1055D01*
X1445Y1070D02*
X1525D01*
X1540Y987D02*
X1540Y987D01*
X1540Y987D02*
Y1055D01*
X296Y766D02*
X331D01*
X261D02*
X296D01*
Y737D02*
Y766D01*
X241Y482D02*
X295D01*
X171D02*
X241D01*
X95D02*
X171D01*
X521Y583D02*
X566D01*
X471Y788D02*
Y808D01*
X371Y583D02*
X421D01*
X788Y951D02*
X799Y940D01*
X788Y951D02*
Y979D01*
X948Y653D02*
X948Y692D01*
X409Y1202D02*
Y1244D01*
X678Y653D02*
X678Y653D01*
Y715D01*
X416Y1026D02*
X476Y1086D01*
X1204Y393D02*
X1235Y362D01*
X1329D01*
X1324Y277D02*
Y357D01*
X1392Y285D02*
Y394D01*
X1397Y399D01*
X1384Y277D02*
X1392Y285D01*
X1025Y1290D02*
X1035Y1280D01*
X841Y1361D02*
X872Y1392D01*
X929D01*
X949Y1372D01*
X948Y692D02*
X966Y710D01*
Y731D02*
X971Y736D01*
X966Y710D02*
Y731D01*
X1408Y851D02*
X1408Y850D01*
Y781D02*
Y850D01*
X1035Y1206D02*
Y1280D01*
X1329Y437D02*
Y496D01*
X1186Y843D02*
X1303D01*
X778Y495D02*
Y537D01*
X789Y548D01*
X806D01*
X949Y1232D02*
Y1372D01*
X766Y861D02*
X784D01*
X799Y876D01*
X1555Y1436D02*
X1575Y1416D01*
Y1310D02*
Y1416D01*
X721Y1417D02*
X740Y1436D01*
X721Y1361D02*
Y1417D01*
X740Y1436D02*
X1555D01*
X1627Y1466D02*
X1675Y1418D01*
X597Y1466D02*
X1627D01*
X1675Y1310D02*
Y1418D01*
X1445Y1070D02*
Y1280D01*
X1475Y1310D01*
X448Y1142D02*
Y1191D01*
X476Y1086D02*
Y1114D01*
X1540Y987D02*
Y987D01*
X1588D02*
X1625Y950D01*
X1705Y682D02*
Y799D01*
X1625Y820D02*
Y950D01*
Y820D02*
X1650Y795D01*
X1701D01*
X1540Y987D02*
X1588D01*
X1855Y682D02*
Y760D01*
X1785Y945D02*
X1805Y965D01*
X1785Y815D02*
Y945D01*
X1765Y795D02*
X1785Y815D01*
X1709Y795D02*
X1765D01*
X1204Y393D02*
Y550D01*
X1805Y965D02*
X1895D01*
X3053Y-708D02*
Y-641D01*
X3086Y-608D01*
X3119Y-641D01*
Y-708D01*
Y-658D01*
X3053D01*
X3219Y-641D02*
X3169D01*
X3152Y-658D01*
Y-691D01*
X3169Y-708D01*
X3219D01*
X3269Y-625D02*
Y-641D01*
X3252D01*
X3286D01*
X3269D01*
Y-691D01*
X3286Y-708D01*
X3336D02*
X3369D01*
X3352D01*
Y-641D01*
X3336D01*
X3419D02*
X3452Y-708D01*
X3486Y-641D01*
X3569Y-708D02*
X3536D01*
X3519Y-691D01*
Y-658D01*
X3536Y-641D01*
X3569D01*
X3586Y-658D01*
Y-675D01*
X3519D01*
X3719Y-608D02*
Y-708D01*
X3752Y-675D01*
X3786Y-708D01*
Y-608D01*
X3836Y-641D02*
X3869D01*
X3886Y-658D01*
Y-708D01*
X3836D01*
X3819Y-691D01*
X3836Y-675D01*
X3886D01*
X3919Y-641D02*
X3952Y-708D01*
X3986Y-641D01*
X4069Y-708D02*
X4036D01*
X4019Y-691D01*
Y-658D01*
X4036Y-641D01*
X4069D01*
X4086Y-658D01*
Y-675D01*
X4019D01*
D40*
X1659Y682D02*
X1705D01*
X2167D02*
Y722D01*
X2168D01*
X1527Y550D02*
X1659Y682D01*
X1026Y550D02*
X1527D01*
X1710Y682D02*
X2167D01*
D41*
X1710D02*
X1715Y687D01*
X260Y1345D02*
Y1378D01*
X280Y1345D02*
Y1378D01*
X240Y1345D02*
Y1378D01*
X320Y1345D02*
Y1378D01*
X340Y1345D02*
Y1378D01*
X300Y1345D02*
Y1378D01*
X200Y1345D02*
Y1378D01*
X220Y1345D02*
Y1378D01*
X180Y1345D02*
Y1378D01*
X160Y1345D02*
Y1378D01*
X140Y1345D02*
Y1378D01*
X120Y1345D02*
Y1378D01*
X80Y1345D02*
Y1378D01*
X100Y1345D02*
Y1378D01*
X498Y270D02*
X479Y320D01*
X460Y270D01*
X467Y287D02*
X491D01*
X545Y308D02*
X543Y313D01*
X538Y318D01*
X534Y320D01*
X524D01*
X519Y318D01*
X515Y313D01*
X512Y308D01*
X510Y301D01*
Y289D01*
X512Y282D01*
X515Y277D01*
X519Y272D01*
X524Y270D01*
X534D01*
X538Y272D01*
X543Y277D01*
X545Y282D01*
X576Y320D02*
Y270D01*
X560Y320D02*
X593D01*
X599D02*
Y270D01*
X609Y320D02*
X628Y270D01*
X647Y320D02*
X628Y270D01*
X685Y320D02*
X654D01*
Y270D01*
X685D01*
X654Y296D02*
X673D01*
X693Y320D02*
X705Y270D01*
X717Y320D02*
X705Y270D01*
X717Y320D02*
X729Y270D01*
X741Y320D02*
X729Y270D01*
X789D02*
X770Y320D01*
X751Y270D01*
X758Y287D02*
X782D01*
X800Y320D02*
X819Y270D01*
X838Y320D02*
X819Y270D01*
X876Y320D02*
X845D01*
Y270D01*
X876D01*
X845Y296D02*
X864D01*
X884Y320D02*
Y270D01*
X895Y320D02*
Y270D01*
Y320D02*
X928Y270D01*
Y320D02*
Y270D01*
X978Y308D02*
X975Y313D01*
X970Y318D01*
X966Y320D01*
X956D01*
X951Y318D01*
X947Y313D01*
X944Y308D01*
X942Y301D01*
Y289D01*
X944Y282D01*
X947Y277D01*
X951Y272D01*
X956Y270D01*
X966D01*
X970Y272D01*
X975Y277D01*
X978Y282D01*
X994Y275D02*
X992Y272D01*
X994Y270D01*
X996Y272D01*
X994Y275D01*
X1043Y308D02*
X1041Y313D01*
X1036Y318D01*
X1031Y320D01*
X1022D01*
X1017Y318D01*
X1012Y313D01*
X1010Y308D01*
X1007Y301D01*
Y289D01*
X1010Y282D01*
X1012Y277D01*
X1017Y272D01*
X1022Y270D01*
X1031D01*
X1036Y272D01*
X1041Y277D01*
X1043Y282D01*
X1071Y320D02*
X1067Y318D01*
X1062Y313D01*
X1059Y308D01*
X1057Y301D01*
Y289D01*
X1059Y282D01*
X1062Y277D01*
X1067Y272D01*
X1071Y270D01*
X1081D01*
X1086Y272D01*
X1090Y277D01*
X1093Y282D01*
X1095Y289D01*
Y301D01*
X1093Y308D01*
X1090Y313D01*
X1086Y318D01*
X1081Y320D01*
X1071D01*
X1107D02*
Y270D01*
Y320D02*
X1126Y270D01*
X1145Y320D02*
X1126Y270D01*
X1145Y320D02*
Y270D01*
X562Y240D02*
Y190D01*
X545Y240D02*
X578D01*
X622Y190D02*
X603Y240D01*
X584Y190D01*
X591Y207D02*
X615D01*
X670Y228D02*
X667Y233D01*
X663Y238D01*
X658Y240D01*
X648D01*
X644Y238D01*
X639Y233D01*
X636Y228D01*
X634Y221D01*
Y209D01*
X636Y202D01*
X639Y197D01*
X644Y192D01*
X648Y190D01*
X658D01*
X663Y192D01*
X667Y197D01*
X670Y202D01*
Y209D01*
X658D02*
X670D01*
X681Y230D02*
X686Y233D01*
X693Y240D01*
Y190D01*
X732Y240D02*
X725Y238D01*
X720Y230D01*
X718Y219D01*
Y211D01*
X720Y200D01*
X725Y192D01*
X732Y190D01*
X737D01*
X744Y192D01*
X749Y200D01*
X751Y211D01*
Y219D01*
X749Y230D01*
X744Y238D01*
X737Y240D01*
X732D01*
X762Y230D02*
X767Y233D01*
X774Y240D01*
Y190D01*
X838Y240D02*
Y190D01*
Y240D02*
X860D01*
X867Y238D01*
X869Y235D01*
X872Y230D01*
Y226D01*
X869Y221D01*
X867Y219D01*
X860Y216D01*
X838D01*
X855D02*
X872Y190D01*
X914Y240D02*
X883D01*
Y190D01*
X914D01*
X883Y216D02*
X902D01*
X922Y240D02*
X941Y190D01*
X960Y240D02*
X941Y190D01*
X967Y230D02*
X971Y233D01*
X978Y240D01*
Y190D01*
X1037Y240D02*
X1013Y190D01*
X1003Y240D02*
X1037D01*
D42*
X2865Y735D02*
Y845D01*
X924Y530D02*
X961Y493D01*
X989Y465D01*
X2810Y680D02*
X2865Y735D01*
X2810Y620D02*
Y680D01*
X2717Y810D02*
Y910D01*
Y860D02*
X2767D01*
X2667D02*
X2717D01*
X1260Y1064D02*
Y1270D01*
X924Y530D02*
Y584D01*
X948Y608D01*
X628Y589D02*
Y715D01*
X948Y608D02*
Y653D01*
X628Y589D02*
X691D01*
X700Y580D01*
X771D01*
X800Y609D01*
Y653D01*
X1260Y1270D02*
X1300Y1310D01*
X1375D01*
X989Y465D02*
X1024D01*
X520Y527D02*
X551D01*
X576Y502D01*
X593Y554D02*
X628Y589D01*
X593Y519D02*
Y554D01*
X576Y502D02*
X593Y519D01*
D43*
X834Y522D02*
X885D01*
X834Y467D02*
Y654D01*
X282Y1145D02*
Y1203D01*
X159Y1273D02*
Y1284D01*
X1440Y1010D02*
X1445D01*
X1037D02*
X1440D01*
X1400Y1050D02*
X1440Y1010D01*
X939Y493D02*
X961D01*
X711Y1286D02*
Y1325D01*
Y1244D02*
Y1286D01*
X849Y895D02*
X880D01*
X825D02*
X849D01*
X1039Y1071D02*
X1069D01*
X1036D02*
X1039D01*
X1066Y1098D01*
X1038Y1069D02*
X1039Y1071D01*
X1036Y1068D02*
X1038Y1069D01*
X430Y467D02*
X520D01*
X400D02*
X430D01*
X299Y534D02*
Y570D01*
Y533D02*
Y534D01*
X260Y533D02*
X299D01*
X1035Y871D02*
X1078D01*
X860Y522D02*
X860Y522D01*
X471Y808D02*
X476Y813D01*
X421Y808D02*
Y843D01*
X369Y706D02*
X371Y708D01*
X237Y1091D02*
X240Y1088D01*
X243Y1085D01*
X64Y904D02*
Y939D01*
Y887D02*
Y904D01*
X342Y1145D02*
Y1203D01*
Y1114D02*
Y1145D01*
Y1085D02*
Y1114D01*
Y1035D02*
Y1085D01*
X308Y1000D02*
X317D01*
X257D02*
X308D01*
X484Y1191D02*
Y1202D01*
X486Y1191D02*
Y1244D01*
Y1159D02*
Y1191D01*
X976Y1138D02*
X982D01*
X923D02*
X976D01*
X922Y1137D02*
X923Y1138D01*
X916Y1131D02*
X922Y1137D01*
Y1199D02*
Y1200D01*
Y1137D02*
Y1199D01*
Y1131D02*
Y1137D01*
Y1123D02*
Y1131D01*
X737Y979D02*
Y1022D01*
Y935D02*
Y979D01*
X446Y966D02*
X476D01*
X416D02*
X446D01*
X825Y806D02*
X840D01*
X805D02*
X825D01*
X773Y828D02*
X790D01*
X744D02*
X773D01*
X2615Y620D02*
Y685D01*
Y600D02*
Y620D01*
X580Y1125D02*
X580Y1125D01*
X580Y1085D02*
Y1125D01*
Y1080D02*
Y1085D01*
X580Y1085D01*
X419Y1299D02*
Y1364D01*
X411Y1291D02*
X419Y1299D01*
X411Y1291D02*
X486D01*
X711Y1325D02*
X718Y1332D01*
X825Y1160D02*
Y1195D01*
X765Y1220D02*
X800D01*
X825Y1195D01*
Y1160D02*
X854Y1131D01*
X856D01*
X781Y1129D02*
X804D01*
X830Y1103D01*
X1000D01*
X755Y1155D02*
Y1170D01*
Y1155D02*
X781Y1129D01*
X645Y1117D02*
X763D01*
X778Y1102D01*
X548Y1033D02*
X558Y1023D01*
Y979D02*
Y1023D01*
X237Y1020D02*
X257Y1000D01*
X237Y1020D02*
Y1025D01*
X166D02*
X237D01*
X1098Y1216D02*
X1154D01*
X1155Y1215D01*
X1207Y1401D02*
X1510D01*
X1218Y1064D02*
Y1142D01*
X1186Y1174D02*
X1218Y1142D01*
X1186Y1380D02*
X1207Y1401D01*
X1186Y1174D02*
Y1380D01*
X580Y1125D02*
X580Y1125D01*
Y1080D02*
X609Y1051D01*
Y979D02*
Y1051D01*
X1069Y1071D02*
X1111Y1029D01*
X711Y979D02*
Y1027D01*
X707Y1031D02*
X711Y1027D01*
X667Y1039D02*
Y1084D01*
Y1039D02*
X678Y1028D01*
X942Y992D02*
X988D01*
X866Y1010D02*
X924D01*
X836Y1040D02*
X866Y1010D01*
X924D02*
X942Y992D01*
X922Y973D02*
X1188D01*
X912Y983D02*
X922Y973D01*
X1036Y1068D02*
Y1071D01*
X678Y1022D02*
X686Y1014D01*
X678Y1022D02*
Y1028D01*
X686Y979D02*
Y1014D01*
X645Y1035D02*
X660Y1020D01*
X645Y1035D02*
Y1068D01*
X660Y979D02*
Y1020D01*
X583Y979D02*
Y1042D01*
X555Y1070D02*
X583Y1042D01*
X640Y1335D02*
X660Y1315D01*
X640Y1335D02*
Y1360D01*
X660Y1286D02*
Y1315D01*
X711Y1244D02*
X788Y1167D01*
X1153Y1064D02*
Y1159D01*
X1111Y1029D02*
X1305D01*
X1018Y849D02*
X1094D01*
X1108Y863D01*
X1153D01*
X1026Y880D02*
X1035Y871D01*
X1026Y880D02*
Y904D01*
X977Y869D02*
X998D01*
X1018Y849D01*
X1000Y1103D02*
X1006Y1109D01*
X1008Y786D02*
X1026Y768D01*
Y731D02*
Y768D01*
X969Y786D02*
X1008D01*
Y700D02*
X1043D01*
X907Y765D02*
X991D01*
X999Y757D01*
X1052Y818D02*
X1053Y816D01*
Y710D02*
Y816D01*
X1043Y700D02*
X1053Y710D01*
X999Y709D02*
X1008Y700D01*
X999Y709D02*
Y757D01*
X985Y828D02*
X1000D01*
X970Y843D02*
X985Y828D01*
X940Y855D02*
X952Y843D01*
X970D01*
X893Y936D02*
X1042D01*
X880Y949D02*
X893Y936D01*
X868Y949D02*
X880D01*
X832Y976D02*
X880D01*
X901Y955D02*
X1218D01*
X880Y976D02*
X901Y955D01*
X609Y1231D02*
X625Y1215D01*
X609Y1231D02*
Y1286D01*
X583Y1217D02*
Y1286D01*
X737Y1248D02*
X765Y1220D01*
X737Y1248D02*
Y1286D01*
X911Y485D02*
X931D01*
X672Y918D02*
X680Y926D01*
X660Y918D02*
X672D01*
X655Y913D02*
X660Y918D01*
X715Y913D02*
X737Y935D01*
X696Y885D02*
X743D01*
X752Y894D01*
X773Y904D02*
X773Y904D01*
X773Y894D02*
Y904D01*
X752Y894D02*
X773D01*
X685Y874D02*
X696Y885D01*
X685Y837D02*
Y874D01*
X940Y855D02*
Y885D01*
X930Y845D02*
X940Y855D01*
X921Y845D02*
X930D01*
X891Y815D02*
X921Y845D01*
X880Y815D02*
X891D01*
X911Y861D02*
Y909D01*
X816Y854D02*
X904D01*
X911Y861D01*
X917Y915D02*
X1000D01*
X911Y909D02*
X917Y915D01*
X1000Y905D02*
X1000Y904D01*
X1000Y905D02*
Y915D01*
X790Y828D02*
X816Y854D01*
X773Y774D02*
X805Y806D01*
X865Y781D02*
X891D01*
X840Y806D02*
X865Y781D01*
X940Y815D02*
X969Y786D01*
X891Y781D02*
X907Y765D01*
X833Y759D02*
X888D01*
X815Y777D02*
X833Y759D01*
X888D02*
X911Y736D01*
X825Y904D02*
X825Y905D01*
X728Y624D02*
X728Y715D01*
X716Y856D02*
X744Y828D01*
X685Y837D02*
X716Y806D01*
X778Y715D02*
Y740D01*
X656Y806D02*
Y856D01*
X610Y806D02*
X656D01*
X596Y820D02*
X610Y806D01*
X596Y820D02*
Y836D01*
X319Y878D02*
X320Y877D01*
X447D01*
X476Y906D01*
X481Y851D02*
X536Y906D01*
X476Y851D02*
X481D01*
X159Y1032D02*
X166Y1025D01*
X476Y1026D02*
X504Y1054D01*
X339Y1289D02*
Y1315D01*
X412Y1090D02*
Y1128D01*
Y1090D02*
X416Y1086D01*
X1540Y827D02*
X1540Y827D01*
X1540Y740D02*
Y827D01*
X99Y939D02*
Y972D01*
X180Y1087D02*
Y1088D01*
X159Y1273D02*
X186Y1246D01*
X221Y1281D02*
X229Y1274D01*
Y1147D02*
X237Y1139D01*
Y1091D02*
Y1139D01*
X243Y1085D02*
X282D01*
X276Y1079D02*
X282Y1085D01*
X276Y1025D02*
Y1079D01*
X317Y1000D02*
X342Y975D01*
X257Y884D02*
X281Y908D01*
X257Y870D02*
Y884D01*
X416Y848D02*
X421Y843D01*
X931Y485D02*
X939Y493D01*
X430Y527D02*
X470D01*
X390Y477D02*
X400Y467D01*
X360Y477D02*
X390D01*
X295Y482D02*
X300Y477D01*
X885Y597D02*
Y654D01*
X331Y706D02*
X369D01*
X331Y766D02*
X331Y766D01*
X261Y655D02*
Y706D01*
X324Y655D02*
X330Y661D01*
X261Y655D02*
X324D01*
X299Y570D02*
X330Y601D01*
X471Y573D02*
Y592D01*
X456Y558D02*
X471Y573D01*
X383Y558D02*
X456D01*
X359Y534D02*
X383Y558D01*
X885Y467D02*
Y522D01*
X860Y467D02*
Y522D01*
X1445Y945D02*
Y1010D01*
X99Y972D02*
X127Y1000D01*
Y1050D01*
X139Y1062D01*
X154D01*
X180Y1088D01*
X229Y1252D02*
Y1274D01*
Y1235D02*
X238Y1243D01*
X229Y1252D02*
X238Y1243D01*
X229Y1207D02*
Y1235D01*
X221Y1281D02*
X281D01*
X238Y1243D02*
X260D01*
X261Y1242D01*
X718Y1332D02*
Y1358D01*
X721Y1361D01*
X901Y1303D02*
Y1361D01*
X891Y1293D02*
X901Y1303D01*
X781Y1361D02*
X788Y1354D01*
X873Y1239D02*
X891Y1257D01*
Y1293D01*
X762Y1255D02*
Y1286D01*
Y1255D02*
X778Y1239D01*
X873D01*
X912Y1199D02*
X920Y1191D01*
X891Y1199D02*
X912D01*
X1052Y904D02*
Y926D01*
X1042Y936D02*
X1052Y926D01*
X762Y979D02*
Y1008D01*
X776Y1022D01*
X737Y1022D02*
X744Y1029D01*
X1305D02*
X1319Y1043D01*
X1370D01*
X1370Y945D02*
Y983D01*
X1370Y983D02*
X1370Y983D01*
X1426Y680D02*
X1540D01*
X1372Y734D02*
X1426Y680D01*
X1372Y734D02*
Y880D01*
X1267Y985D02*
X1372Y880D01*
X600Y774D02*
X773D01*
X778Y740D02*
X815Y777D01*
X542Y845D02*
X563D01*
X536Y851D02*
X542Y845D01*
X563D02*
X572Y836D01*
X596D01*
X571Y881D02*
X586Y896D01*
X596D01*
X1188Y973D02*
X1200Y985D01*
X1267D01*
X1035Y1206D02*
X1066Y1175D01*
Y1098D02*
Y1175D01*
X976Y1044D02*
Y1071D01*
X970Y1038D02*
X976Y1044D01*
X961Y1038D02*
X970D01*
X798Y1318D02*
X817D01*
X788Y1328D02*
Y1354D01*
Y1308D02*
X798Y1318D01*
X788Y1328D02*
X798Y1318D01*
X1036Y1011D02*
X1037Y1010D01*
X1007Y1011D02*
X1036D01*
X988Y992D02*
X1007Y1011D01*
X911Y654D02*
Y736D01*
X812Y1022D02*
X825Y1009D01*
Y983D02*
Y1009D01*
Y983D02*
X832Y976D01*
X776Y1022D02*
X812D01*
X1408Y739D02*
Y851D01*
Y739D02*
X1436Y711D01*
X1630D01*
X1659Y682D01*
X1526Y1280D02*
Y1385D01*
Y1280D02*
X1552Y1254D01*
X1719D01*
X1775Y1310D01*
X1510Y1401D02*
X1526Y1385D01*
X685Y1285D02*
X686Y1286D01*
Y1239D02*
Y1286D01*
Y1239D02*
X755Y1170D01*
X634Y1250D02*
Y1286D01*
Y1250D02*
X728Y1156D01*
X605Y1080D02*
Y1100D01*
X634Y979D02*
Y1011D01*
X625Y1020D02*
X634Y1011D01*
X625Y1020D02*
Y1060D01*
X605Y1080D02*
X625Y1060D01*
X634Y1079D02*
X645Y1068D01*
X634Y1079D02*
Y1106D01*
X645Y1117D01*
X520Y1115D02*
Y1125D01*
Y1115D02*
X525Y1110D01*
X486Y1159D02*
X520Y1125D01*
X504Y1054D02*
Y1089D01*
X525Y1110D01*
X580Y1080D02*
Y1085D01*
X1400Y1050D02*
Y1125D01*
X788Y1286D02*
Y1308D01*
X1665Y1145D02*
X1745D01*
X1701Y795D02*
X1705Y799D01*
X2015Y780D02*
Y875D01*
X1995Y760D02*
X2015Y780D01*
X1980Y910D02*
X2015Y875D01*
X1980Y910D02*
Y1010D01*
X1920Y1025D02*
X1940Y1005D01*
X1825Y1025D02*
Y1070D01*
X1820Y1075D02*
X1825Y1070D01*
X1705Y799D02*
X1709Y795D01*
X1805Y1145D02*
X1845D01*
X1980Y1010D01*
X1885Y875D02*
X1940Y930D01*
X1875Y875D02*
X1885D01*
X1825Y1025D02*
X1920D01*
X1940Y930D02*
Y1005D01*
X1665Y1095D02*
Y1145D01*
Y1095D02*
X1700Y1060D01*
X1745Y1095D02*
Y1145D01*
X1710Y1060D02*
X1745Y1095D01*
X1565Y1145D02*
X1605D01*
X1550Y1130D02*
X1565Y1145D01*
X-130Y-325D02*
Y-425D01*
X-73D01*
X14D02*
X-24Y-325D01*
X-62Y-425D01*
X-48Y-392D02*
X-0D01*
X38Y-325D02*
X76Y-373D01*
Y-425D01*
X114Y-325D02*
X76Y-373D01*
X189Y-325D02*
X127D01*
Y-425D01*
X189D01*
X127Y-373D02*
X165D01*
X205Y-325D02*
Y-425D01*
Y-325D02*
X248D01*
X262Y-330D01*
X267Y-335D01*
X272Y-344D01*
Y-354D01*
X267Y-363D01*
X262Y-368D01*
X248Y-373D01*
X205D01*
X238D02*
X272Y-425D01*
X373Y-344D02*
X382Y-339D01*
X397Y-325D01*
Y-425D01*
X675Y-349D02*
X670Y-339D01*
X660Y-330D01*
X651Y-325D01*
X632D01*
X622Y-330D01*
X613Y-339D01*
X608Y-349D01*
X603Y-363D01*
Y-387D01*
X608Y-401D01*
X613Y-411D01*
X622Y-420D01*
X632Y-425D01*
X651D01*
X660Y-420D01*
X670Y-411D01*
X675Y-401D01*
X731Y-325D02*
X722Y-330D01*
X712Y-339D01*
X707Y-349D01*
X703Y-363D01*
Y-387D01*
X707Y-401D01*
X712Y-411D01*
X722Y-420D01*
X731Y-425D01*
X750D01*
X760Y-420D01*
X769Y-411D01*
X774Y-401D01*
X779Y-387D01*
Y-363D01*
X774Y-349D01*
X769Y-339D01*
X760Y-330D01*
X750Y-325D01*
X731D01*
X802D02*
Y-425D01*
Y-325D02*
X840Y-425D01*
X878Y-325D02*
X840Y-425D01*
X878Y-325D02*
Y-425D01*
X907Y-377D02*
X950D01*
X964Y-373D01*
X969Y-368D01*
X974Y-358D01*
Y-344D01*
X969Y-335D01*
X964Y-330D01*
X950Y-325D01*
X907D01*
Y-425D01*
X1025Y-325D02*
X1015Y-330D01*
X1005Y-339D01*
X1001Y-349D01*
X996Y-363D01*
Y-387D01*
X1001Y-401D01*
X1005Y-411D01*
X1015Y-420D01*
X1025Y-425D01*
X1044D01*
X1053Y-420D01*
X1063Y-411D01*
X1067Y-401D01*
X1072Y-387D01*
Y-363D01*
X1067Y-349D01*
X1063Y-339D01*
X1053Y-330D01*
X1044Y-325D01*
X1025D01*
X1095D02*
Y-425D01*
Y-325D02*
X1162Y-425D01*
Y-325D02*
Y-425D01*
X1252Y-325D02*
X1190D01*
Y-425D01*
X1252D01*
X1190Y-373D02*
X1228D01*
X1268Y-325D02*
Y-425D01*
Y-325D02*
X1335Y-425D01*
Y-325D02*
Y-425D01*
X1396Y-325D02*
Y-425D01*
X1363Y-325D02*
X1429D01*
X1586Y-339D02*
X1577Y-330D01*
X1562Y-325D01*
X1543D01*
X1529Y-330D01*
X1520Y-339D01*
Y-349D01*
X1524Y-358D01*
X1529Y-363D01*
X1539Y-368D01*
X1567Y-377D01*
X1577Y-382D01*
X1582Y-387D01*
X1586Y-396D01*
Y-411D01*
X1577Y-420D01*
X1562Y-425D01*
X1543D01*
X1529Y-420D01*
X1520Y-411D01*
X1609Y-325D02*
Y-425D01*
X1630Y-325D02*
Y-425D01*
Y-325D02*
X1663D01*
X1677Y-330D01*
X1687Y-339D01*
X1692Y-349D01*
X1696Y-363D01*
Y-387D01*
X1692Y-401D01*
X1687Y-411D01*
X1677Y-420D01*
X1663Y-425D01*
X1630D01*
X1781Y-325D02*
X1719D01*
Y-425D01*
X1781D01*
X1719Y-373D02*
X1757D01*
X1909Y-306D02*
X1900Y-315D01*
X1890Y-330D01*
X1881Y-349D01*
X1876Y-373D01*
Y-392D01*
X1881Y-415D01*
X1890Y-435D01*
X1900Y-449D01*
X1909Y-458D01*
X1900Y-315D02*
X1890Y-335D01*
X1885Y-349D01*
X1881Y-373D01*
Y-392D01*
X1885Y-415D01*
X1890Y-430D01*
X1900Y-449D01*
X2011Y-415D02*
X2007Y-420D01*
X2011Y-425D01*
X2016Y-420D01*
X2011Y-415D01*
X2110Y-349D02*
X2105Y-339D01*
X2095Y-330D01*
X2086Y-325D01*
X2067D01*
X2057Y-330D01*
X2048Y-339D01*
X2043Y-349D01*
X2038Y-363D01*
Y-387D01*
X2043Y-401D01*
X2048Y-411D01*
X2057Y-420D01*
X2067Y-425D01*
X2086D01*
X2095Y-420D01*
X2105Y-411D01*
X2110Y-401D01*
Y-387D01*
X2086D02*
X2110D01*
X2166Y-325D02*
Y-425D01*
X2132Y-325D02*
X2199D01*
X2211D02*
Y-425D01*
X2268D01*
X2358Y-306D02*
X2367Y-315D01*
X2377Y-330D01*
X2386Y-349D01*
X2391Y-373D01*
Y-392D01*
X2386Y-415D01*
X2377Y-435D01*
X2367Y-449D01*
X2358Y-458D01*
X2367Y-315D02*
X2377Y-335D01*
X2381Y-349D01*
X2386Y-373D01*
Y-392D01*
X2381Y-415D01*
X2377Y-430D01*
X2367Y-449D01*
X2493Y820D02*
G03*
X2516Y797I23J0D01*
G01*
X2585D02*
G03*
X2608Y820I0J23D01*
G01*
X2608Y953D02*
G03*
X2493Y894I-250J344D01*
G01*
X2493Y820D02*
Y894D01*
X2516Y797D02*
X2585D01*
X2608Y820D02*
Y953D01*
X-50Y1865D02*
X3130D01*
Y1300D02*
Y1865D01*
X2905Y620D02*
Y1229D01*
X3130Y-50D02*
Y514D01*
X-50Y-50D02*
X3130D01*
X-50D02*
Y1865D01*
X2990Y514D02*
X3130D01*
X2905D02*
Y630D01*
Y514D02*
X3020D01*
X2905Y1215D02*
Y1300D01*
X3130D01*
X4161Y-1302D02*
G03*
X4112Y-1253I-49J0D01*
G01*
X3011D02*
G03*
X2961Y-1303I0J-50D01*
G01*
X4111Y-1203D02*
G03*
X4161Y-1153I0J50D01*
G01*
X2961D02*
G03*
X3011Y-1203I50J0D01*
G01*
X-89Y-478D02*
G03*
X-189Y-578I0J-100D01*
G01*
Y-1677D02*
G03*
X-90Y-1778I101J0D01*
G01*
X4111Y-1778D02*
G03*
X4211Y-1678I0J100D01*
G01*
Y-578D02*
G03*
X4111Y-478I-100J0D01*
G01*
X4161Y-577D02*
G03*
X4110Y-528I-49J0D01*
G01*
X4111Y-1478D02*
G03*
X4161Y-1428I0J50D01*
G01*
X4161Y-1577D02*
G03*
X4111Y-1528I-50J-1D01*
G01*
Y-1728D02*
G03*
X4161Y-1678I0J50D01*
G01*
X2861Y-1478D02*
G03*
X2911Y-1428I0J50D01*
G01*
X2961Y-1429D02*
G03*
X3011Y-1478I49J0D01*
G01*
X2911Y-1302D02*
G03*
X2862Y-1253I-49J0D01*
G01*
X-139Y-1678D02*
G03*
X-90Y-1728I50J0D01*
G01*
X2862Y-1203D02*
G03*
X2911Y-1153I-1J50D01*
G01*
X-89Y-1528D02*
G03*
X-139Y-1578I0J-50D01*
G01*
X2911Y-828D02*
G03*
X2861Y-778I-50J0D01*
G01*
Y-728D02*
G03*
X2911Y-678I0J50D01*
G01*
X3011Y-528D02*
G03*
X2961Y-578I0J-50D01*
G01*
X2911D02*
G03*
X2861Y-528I-50J0D01*
G01*
X-89D02*
G03*
X-139Y-578I0J-50D01*
G01*
Y-678D02*
G03*
X-89Y-728I50J0D01*
G01*
Y-778D02*
G03*
X-139Y-828I0J-50D01*
G01*
Y-1053D02*
G03*
X-89Y-1103I50J0D01*
G01*
Y-1153D02*
G03*
X-139Y-1203I0J-50D01*
G01*
Y-1428D02*
G03*
X-90Y-1478I50J0D01*
G01*
X811Y-778D02*
G03*
X761Y-828I0J-50D01*
G01*
X811Y-1253D02*
G03*
X761Y-1303I0J-50D01*
G01*
X2559Y-1253D02*
G03*
X2511Y-1304I0J-48D01*
G01*
X2511Y-1427D02*
G03*
X2561Y-1478I51J0D01*
G01*
X2412Y-1478D02*
G03*
X2461Y-1428I0J49D01*
G01*
X2461Y-1302D02*
G03*
X2412Y-1253I-49J0D01*
G01*
X662Y-1478D02*
G03*
X711Y-1429I0J49D01*
G01*
X761D02*
G03*
X810Y-1478I49J0D01*
G01*
X761Y-1154D02*
G03*
X810Y-1203I49J0D01*
G01*
X711Y-1202D02*
G03*
X660Y-1153I-49J0D01*
G01*
X663Y-1103D02*
G03*
X711Y-1055I0J48D01*
G01*
Y-827D02*
G03*
X662Y-778I-49J0D01*
G01*
X3561Y-1528D02*
G03*
X3511Y-1578I0J-50D01*
G01*
Y-1679D02*
G03*
X3561Y-1728I49J0D01*
G01*
X3412Y-1728D02*
G03*
X3461Y-1679I1J48D01*
G01*
X3461Y-1578D02*
G03*
X3411Y-1528I-50J0D01*
G01*
X1686Y-1678D02*
G03*
X1735Y-1728I50J0D01*
G01*
X1736Y-1528D02*
G03*
X1686Y-1578I0J-50D01*
G01*
X1587Y-1728D02*
G03*
X1636Y-1679I1J48D01*
G01*
X1636Y-1578D02*
G03*
X1586Y-1528I-50J0D01*
G01*
X4161Y-1428D02*
Y-1302D01*
X2961Y-1428D02*
Y-1303D01*
X4161Y-1153D02*
Y-578D01*
X2961Y-1153D02*
Y-578D01*
X-189Y-1678D02*
Y-578D01*
X-139Y-1678D02*
Y-1578D01*
X4161Y-1678D02*
Y-1578D01*
X2911Y-1428D02*
Y-1303D01*
X2511Y-1428D02*
Y-1303D01*
X761Y-1428D02*
Y-1303D01*
X2461Y-1428D02*
Y-1303D01*
X761Y-1153D02*
Y-828D01*
X2911Y-1153D02*
Y-828D01*
Y-678D02*
Y-578D01*
X-139Y-678D02*
Y-578D01*
X711Y-1053D02*
Y-828D01*
X-139Y-1053D02*
Y-828D01*
X711Y-1428D02*
Y-1203D01*
X-139Y-1428D02*
Y-1203D01*
X4211Y-1678D02*
Y-578D01*
X3511Y-1678D02*
Y-1578D01*
X3461Y-1678D02*
Y-1578D01*
X1686Y-1678D02*
Y-1578D01*
X1636Y-1678D02*
Y-1578D01*
X3011Y-1253D02*
X4111D01*
X3011Y-1203D02*
X4111D01*
X811D02*
X2861D01*
X3011Y-528D02*
X4111D01*
X3011Y-1478D02*
X4111D01*
X2561Y-1253D02*
X2861D01*
X2561Y-1478D02*
X2861D01*
X811D02*
X2411D01*
X811Y-1253D02*
X2411D01*
X811Y-778D02*
X2861D01*
X-89Y-728D02*
X2861D01*
X-89Y-778D02*
X661D01*
X-89Y-1103D02*
X661D01*
X-89Y-1153D02*
X661D01*
X-89Y-1478D02*
X661D01*
X-89Y-478D02*
X4111D01*
X-89Y-1778D02*
X4111D01*
X-89Y-528D02*
X2861D01*
X3561Y-1528D02*
X4111D01*
X3561Y-1728D02*
X4111D01*
X1736Y-1528D02*
X3411D01*
X-89D02*
X1586D01*
X-89Y-1728D02*
X1586D01*
X1736D02*
X3411D01*
X3340Y-865D02*
X3330Y-854D01*
X3308D01*
X3298Y-865D01*
Y-875D01*
X3308Y-886D01*
X3330D01*
X3340Y-897D01*
Y-907D01*
X3330Y-918D01*
X3308D01*
X3298Y-907D01*
X3362Y-875D02*
Y-907D01*
X3372Y-918D01*
X3404D01*
Y-875D01*
X3425Y-918D02*
X3447D01*
X3436D01*
Y-875D01*
X3425D01*
X3489Y-865D02*
Y-875D01*
X3479D01*
X3500D01*
X3489D01*
Y-907D01*
X3500Y-918D01*
X3564D02*
X3543D01*
X3532Y-907D01*
Y-886D01*
X3543Y-875D01*
X3564D01*
X3575Y-886D01*
Y-897D01*
X3532D01*
X3660Y-918D02*
X3681D01*
X3671D01*
Y-854D01*
X3660Y-865D01*
X3713Y-918D02*
X3735D01*
X3724D01*
Y-854D01*
X3713Y-865D01*
X3767D02*
X3777Y-854D01*
X3799D01*
X3809Y-865D01*
Y-875D01*
X3799Y-886D01*
X3809Y-897D01*
Y-907D01*
X3799Y-918D01*
X3777D01*
X3767Y-907D01*
Y-897D01*
X3777Y-886D01*
X3767Y-875D01*
Y-865D01*
X3777Y-886D02*
X3799D01*
X3260Y-1069D02*
X3218D01*
Y-1101D01*
X3239Y-1090D01*
X3250D01*
X3260Y-1101D01*
Y-1122D01*
X3250Y-1133D01*
X3228D01*
X3218Y-1122D01*
X3324Y-1069D02*
X3303Y-1080D01*
X3282Y-1101D01*
Y-1122D01*
X3292Y-1133D01*
X3313D01*
X3324Y-1122D01*
Y-1112D01*
X3313Y-1101D01*
X3282D01*
X3345Y-1133D02*
X3367D01*
X3356D01*
Y-1069D01*
X3345Y-1080D01*
X3399Y-1101D02*
X3441D01*
X3463Y-1122D02*
X3473Y-1133D01*
X3495D01*
X3505Y-1122D01*
Y-1080D01*
X3495Y-1069D01*
X3473D01*
X3463Y-1080D01*
Y-1090D01*
X3473Y-1101D01*
X3505D01*
X3527Y-1122D02*
X3537Y-1133D01*
X3559D01*
X3569Y-1122D01*
Y-1080D01*
X3559Y-1069D01*
X3537D01*
X3527Y-1080D01*
Y-1090D01*
X3537Y-1101D01*
X3569D01*
X3591Y-1122D02*
X3601Y-1133D01*
X3623D01*
X3633Y-1122D01*
Y-1080D01*
X3623Y-1069D01*
X3601D01*
X3591Y-1080D01*
Y-1090D01*
X3601Y-1101D01*
X3633D01*
X3655D02*
X3697D01*
X3719Y-1122D02*
X3729Y-1133D01*
X3751D01*
X3761Y-1122D01*
Y-1080D01*
X3751Y-1069D01*
X3729D01*
X3719Y-1080D01*
Y-1090D01*
X3729Y-1101D01*
X3761D01*
X3815Y-1133D02*
Y-1069D01*
X3783Y-1101D01*
X3825D01*
X3889Y-1133D02*
X3847D01*
X3889Y-1090D01*
Y-1080D01*
X3879Y-1069D01*
X3857D01*
X3847Y-1080D01*
X3953Y-1133D02*
X3911D01*
X3953Y-1090D01*
Y-1080D01*
X3943Y-1069D01*
X3921D01*
X3911Y-1080D01*
X3003Y-802D02*
X3013Y-813D01*
X3035D01*
X3045Y-802D01*
Y-760D01*
X3035Y-749D01*
X3013D01*
X3003Y-760D01*
Y-770D01*
X3013Y-781D01*
X3045D01*
X3067Y-760D02*
X3077Y-749D01*
X3098D01*
X3109Y-760D01*
Y-802D01*
X3098Y-813D01*
X3077D01*
X3067Y-802D01*
Y-760D01*
X3173Y-813D02*
X3130D01*
X3173Y-770D01*
Y-760D01*
X3162Y-749D01*
X3141D01*
X3130Y-760D01*
X3301D02*
X3290Y-749D01*
X3269D01*
X3258Y-760D01*
Y-802D01*
X3269Y-813D01*
X3290D01*
X3301Y-802D01*
X3322Y-813D02*
X3344D01*
X3333D01*
Y-749D01*
X3322D01*
X3376Y-813D02*
X3397D01*
X3386D01*
Y-770D01*
X3376D01*
X3429Y-813D02*
Y-770D01*
X3461D01*
X3472Y-781D01*
Y-813D01*
X3504Y-760D02*
Y-770D01*
X3493D01*
X3514D01*
X3504D01*
Y-802D01*
X3514Y-813D01*
X3610D02*
Y-749D01*
X3632Y-770D01*
X3653Y-749D01*
Y-813D01*
X3685D02*
X3706D01*
X3717Y-802D01*
Y-781D01*
X3706Y-770D01*
X3685D01*
X3674Y-781D01*
Y-802D01*
X3685Y-813D01*
X3749D02*
X3770D01*
X3781Y-802D01*
Y-781D01*
X3770Y-770D01*
X3749D01*
X3738Y-781D01*
Y-802D01*
X3749Y-813D01*
X3802Y-770D02*
Y-813D01*
Y-792D01*
X3813Y-781D01*
X3824Y-770D01*
X3834D01*
X3898Y-813D02*
X3877D01*
X3866Y-802D01*
Y-781D01*
X3877Y-770D01*
X3898D01*
X3909Y-781D01*
Y-792D01*
X3866D01*
X3994Y-813D02*
Y-749D01*
X4026D01*
X4037Y-760D01*
Y-781D01*
X4026Y-792D01*
X3994D01*
X4016D02*
X4037Y-813D01*
X4101Y-749D02*
Y-813D01*
X4069D01*
X4058Y-802D01*
Y-781D01*
X4069Y-770D01*
X4101D01*
X4122Y-813D02*
Y-802D01*
X4133D01*
Y-813D01*
X4122D01*
X3163Y-949D02*
Y-1013D01*
X3195D01*
X3205Y-1002D01*
Y-992D01*
X3195Y-981D01*
X3163D01*
X3195D01*
X3205Y-970D01*
Y-960D01*
X3195Y-949D01*
X3163D01*
X3237Y-1013D02*
X3258D01*
X3269Y-1002D01*
Y-981D01*
X3258Y-970D01*
X3237D01*
X3227Y-981D01*
Y-1002D01*
X3237Y-1013D01*
X3333Y-970D02*
X3301D01*
X3290Y-981D01*
Y-1002D01*
X3301Y-1013D01*
X3333D01*
X3365Y-970D02*
X3386D01*
X3397Y-981D01*
Y-1013D01*
X3365D01*
X3354Y-1002D01*
X3365Y-992D01*
X3397D01*
X3482Y-1013D02*
Y-949D01*
X3514D01*
X3525Y-960D01*
Y-981D01*
X3514Y-992D01*
X3482D01*
X3504D02*
X3525Y-1013D01*
X3557Y-970D02*
X3578D01*
X3589Y-981D01*
Y-1013D01*
X3557D01*
X3546Y-1002D01*
X3557Y-992D01*
X3589D01*
X3621Y-960D02*
Y-970D01*
X3610D01*
X3632D01*
X3621D01*
Y-1002D01*
X3632Y-1013D01*
X3674D02*
X3696D01*
X3706Y-1002D01*
Y-981D01*
X3696Y-970D01*
X3674D01*
X3664Y-981D01*
Y-1002D01*
X3674Y-1013D01*
X3728D02*
Y-970D01*
X3760D01*
X3770Y-981D01*
Y-1013D01*
X3898Y-949D02*
X3856D01*
Y-981D01*
X3877D01*
X3856D01*
Y-1013D01*
X3920Y-949D02*
Y-1013D01*
X3962D01*
X3984D02*
Y-1002D01*
X3994D01*
Y-1013D01*
X3984D01*
X2608Y953D02*
G03*
X2493Y894I-250J344D01*
G01*
X2585Y797D02*
G03*
X2608Y820I0J23D01*
G01*
X2493D02*
G03*
X2516Y797I23J0D01*
G01*
X2608Y820D02*
Y953D01*
X2516Y797D02*
X2585D01*
X2493Y820D02*
Y894D01*
X2905Y1300D02*
X3130D01*
Y-50D02*
Y514D01*
X-50Y-50D02*
X3130D01*
X-50D02*
Y1865D01*
X2905Y656D02*
Y1300D01*
X3130D02*
Y1865D01*
X-50D02*
X3130D01*
X2940Y514D02*
X3130D01*
X2905D02*
Y656D01*
Y514D02*
X2940D01*
D44*
X2478Y711D02*
X2537D01*
X2323D02*
X2478D01*
Y308D02*
Y711D01*
X2537D02*
X2548Y722D01*
X2434Y264D02*
X2478Y308D01*
X2348Y264D02*
X2434D01*
D45*
X124Y705D02*
X180D01*
X120Y695D02*
Y699D01*
Y647D02*
Y695D01*
Y640D02*
Y647D01*
X123Y587D02*
Y596D01*
Y563D02*
Y587D01*
X171Y533D02*
X221D01*
X153D02*
X171D01*
X89Y754D02*
X124D01*
X171Y541D02*
X185Y555D01*
Y591D01*
X356Y908D02*
X416D01*
X123Y563D02*
X153Y533D01*
X180Y596D02*
X185Y591D01*
X123Y596D02*
X180D01*
X151Y651D02*
X185D01*
X180Y705D02*
X186Y711D01*
X416Y848D02*
X421Y853D01*
X186Y771D02*
X226Y731D01*
Y630D02*
Y731D01*
Y630D02*
X261Y595D01*
X186Y771D02*
Y828D01*
X318D01*
D46*
X153Y943D02*
X372D01*
X340Y1345D02*
X376D01*
X320D02*
X340D01*
X300D02*
X320D01*
X280D02*
X300D01*
X260D02*
X280D01*
X240D02*
X260D01*
X220D02*
X240D01*
X200D02*
X220D01*
X180D02*
X200D01*
X160D02*
X180D01*
X140D02*
X160D01*
X120D02*
X140D01*
X100D02*
X120D01*
X80D02*
X100D01*
X340Y1378D02*
X343D01*
X320D02*
X340D01*
X300D02*
X320D01*
X280D02*
X300D01*
X260D02*
X280D01*
X240D02*
X260D01*
X220D02*
X240D01*
X200D02*
X220D01*
X180D02*
X200D01*
X160D02*
X180D01*
X140D02*
X160D01*
X120D02*
X140D01*
X100D02*
X120D01*
X80D02*
X100D01*
X39D02*
X80D01*
X64Y939D02*
X99D01*
X39D02*
X64D01*
X834Y654D02*
Y718D01*
X846D01*
X39Y939D02*
Y1378D01*
X376Y942D02*
Y1345D01*
D47*
X153Y943D02*
X159Y949D01*
X124Y914D02*
X153Y943D01*
X124Y904D02*
Y914D01*
Y855D02*
Y904D01*
Y805D02*
Y855D01*
X64D02*
Y904D01*
Y805D02*
Y855D01*
X255Y972D02*
X257Y974D01*
X99Y1092D02*
X141D01*
X114Y1207D02*
X229D01*
X99Y1192D02*
X114Y1207D01*
X99Y1152D02*
Y1192D01*
X64Y1117D02*
X99Y1152D01*
X64Y1067D02*
Y1117D01*
Y1067D02*
X99Y1032D01*
X257Y946D02*
Y974D01*
X159Y949D02*
Y972D01*
X174Y1147D02*
X229D01*
D48*
X1922Y264D02*
Y265D01*
Y258D02*
Y264D01*
X1922Y265D02*
X1922Y265D01*
X1887Y230D02*
X1922Y265D01*
X1215Y1215D02*
X1258D01*
X1585Y280D02*
X1635Y230D01*
X1545Y399D02*
X1585Y359D01*
X1409Y399D02*
X1545D01*
X1585Y280D02*
Y359D01*
X685Y1339D02*
Y1372D01*
X664Y1393D02*
X685Y1372D01*
X551Y1393D02*
X664D01*
X533Y1375D02*
X551Y1393D01*
X75Y500D02*
X76Y501D01*
X961Y553D02*
X1013D01*
X1635Y230D02*
X1887D01*
X2348Y258D02*
Y264D01*
X390Y1610D02*
Y1677D01*
X423Y1710D01*
X457Y1677D01*
Y1610D01*
Y1660D01*
X390D01*
X557Y1693D02*
X540Y1710D01*
X507D01*
X490Y1693D01*
Y1627D01*
X507Y1610D01*
X540D01*
X557Y1627D01*
X590Y1710D02*
X657D01*
X623D01*
Y1610D01*
X690Y1710D02*
X723D01*
X707D01*
Y1610D01*
X690D01*
X723D01*
X773Y1710D02*
Y1643D01*
X807Y1610D01*
X840Y1643D01*
Y1710D01*
X940D02*
X873D01*
Y1610D01*
X940D01*
X873Y1660D02*
X906D01*
X1073Y1710D02*
Y1610D01*
X1106Y1643D01*
X1140Y1610D01*
Y1710D01*
X1173Y1610D02*
Y1677D01*
X1206Y1710D01*
X1240Y1677D01*
Y1610D01*
Y1660D01*
X1173D01*
X1273Y1710D02*
Y1643D01*
X1306Y1610D01*
X1340Y1643D01*
Y1710D01*
X1440D02*
X1373D01*
Y1610D01*
X1440D01*
X1373Y1660D02*
X1406D01*
X1573Y1710D02*
X1606D01*
X1590D01*
Y1610D01*
X1573D01*
X1606D01*
X1656D02*
Y1710D01*
X1723Y1610D01*
Y1710D01*
X1823Y1693D02*
X1806Y1710D01*
X1773D01*
X1756Y1693D01*
Y1627D01*
X1773Y1610D01*
X1806D01*
X1823Y1627D01*
D49*
X515Y955D02*
Y1040D01*
X496Y936D02*
X515Y955D01*
Y1040D02*
X525Y1050D01*
X444Y936D02*
X496D01*
X1078Y1505D02*
X1121D01*
X1063Y1490D02*
X1078Y1505D01*
X540Y1490D02*
X1063D01*
X507Y1457D02*
X540Y1490D01*
X507Y1351D02*
Y1457D01*
Y1351D02*
X523Y1335D01*
Y1233D02*
Y1335D01*
X510Y1220D02*
X523Y1233D01*
X510Y1168D02*
Y1220D01*
Y1168D02*
X529Y1149D01*
X536D01*
Y1185D02*
X539Y1188D01*
X506Y1259D02*
Y1325D01*
X491Y1244D02*
X506Y1259D01*
X467Y1364D02*
X506Y1325D01*
X486Y1244D02*
X491D01*
X416Y908D02*
X444Y936D01*
X558Y1203D02*
Y1286D01*
Y1203D02*
X570Y1191D01*
Y1149D02*
Y1191D01*
X812Y1082D02*
X879D01*
X890Y1071D01*
X805Y1075D02*
X812Y1082D01*
X754Y1075D02*
X805D01*
X665Y1093D02*
X736D01*
X754Y1075D01*
X662Y1090D02*
X665Y1093D01*
X890Y1071D02*
X916D01*
X949Y1010D02*
X975D01*
X929Y1030D02*
X949Y1010D01*
X894Y1030D02*
X929D01*
X858Y1066D02*
X894Y1030D01*
X975Y1010D02*
X1036Y1071D01*
X822Y1066D02*
X858D01*
X815Y1059D02*
X822Y1066D01*
X707Y1031D02*
X735Y1059D01*
X815D01*
X539Y1319D02*
X580Y1360D01*
X539Y1188D02*
Y1319D01*
X525Y1050D02*
Y1075D01*
X550Y1100D01*
Y1129D02*
X570Y1149D01*
X550Y1100D02*
Y1129D01*
X2609Y-17D02*
X2576D01*
X2609Y16D01*
Y25D01*
X2601Y33D01*
X2584D01*
X2576Y25D01*
X2626Y33D02*
X2659D01*
Y25D01*
X2626Y-9D01*
Y-17D01*
X2676Y33D02*
X2709D01*
Y25D01*
X2676Y-9D01*
Y-17D01*
X2726D02*
X2743D01*
X2734D01*
Y33D01*
X2726Y25D01*
X1584Y1581D02*
Y1531D01*
Y1581D02*
X1605D01*
X1613Y1579D01*
X1615Y1576D01*
X1617Y1571D01*
Y1567D01*
X1615Y1562D01*
X1613Y1560D01*
X1605Y1557D01*
X1584D01*
X1601D02*
X1617Y1531D01*
X1629Y1550D02*
X1657D01*
Y1555D01*
X1655Y1560D01*
X1652Y1562D01*
X1648Y1564D01*
X1640D01*
X1636Y1562D01*
X1631Y1557D01*
X1629Y1550D01*
Y1545D01*
X1631Y1538D01*
X1636Y1533D01*
X1640Y1531D01*
X1648D01*
X1652Y1533D01*
X1657Y1538D01*
X1668Y1564D02*
X1682Y1531D01*
X1696Y1564D02*
X1682Y1531D01*
X1704Y1571D02*
X1709Y1574D01*
X1716Y1581D01*
Y1531D01*
X1774Y1581D02*
X1751Y1531D01*
X1741Y1581D02*
X1774D01*
X319Y-1206D02*
Y-1247D01*
X317Y-1254D01*
X314Y-1257D01*
X309Y-1259D01*
X304D01*
X299Y-1257D01*
X296Y-1254D01*
X294Y-1247D01*
Y-1241D01*
X336Y-1254D02*
X333Y-1257D01*
X336Y-1259D01*
X338Y-1257D01*
X336Y-1254D01*
X350Y-1206D02*
Y-1259D01*
Y-1206D02*
X385Y-1259D01*
Y-1206D02*
Y-1259D01*
D50*
X217Y60D02*
X2488D01*
X76Y201D02*
X217Y60D01*
X76Y201D02*
Y501D01*
D51*
X388Y-1622D02*
Y-1675D01*
X370Y-1622D02*
X406D01*
X442Y-1639D02*
Y-1675D01*
Y-1647D02*
X437Y-1642D01*
X432Y-1639D01*
X425D01*
X420Y-1642D01*
X414Y-1647D01*
X412Y-1655D01*
Y-1660D01*
X414Y-1667D01*
X420Y-1672D01*
X425Y-1675D01*
X432D01*
X437Y-1672D01*
X442Y-1667D01*
X487Y-1639D02*
Y-1680D01*
X485Y-1688D01*
X482Y-1690D01*
X477Y-1693D01*
X469D01*
X464Y-1690D01*
X487Y-1647D02*
X482Y-1642D01*
X477Y-1639D01*
X469D01*
X464Y-1642D01*
X459Y-1647D01*
X457Y-1655D01*
Y-1660D01*
X459Y-1667D01*
X464Y-1672D01*
X469Y-1675D01*
X477D01*
X482Y-1672D01*
X487Y-1667D01*
X501Y-1632D02*
X506Y-1629D01*
X514Y-1622D01*
Y-1675D01*
X556Y-1622D02*
X548Y-1624D01*
X543Y-1632D01*
X540Y-1645D01*
Y-1652D01*
X543Y-1665D01*
X548Y-1672D01*
X556Y-1675D01*
X561D01*
X568Y-1672D01*
X573Y-1665D01*
X576Y-1652D01*
Y-1645D01*
X573Y-1632D01*
X568Y-1624D01*
X561Y-1622D01*
X556D01*
X588Y-1632D02*
X593Y-1629D01*
X601Y-1622D01*
Y-1675D01*
X669Y-1622D02*
Y-1675D01*
Y-1622D02*
X692D01*
X699Y-1624D01*
X702Y-1627D01*
X704Y-1632D01*
Y-1637D01*
X702Y-1642D01*
X699Y-1645D01*
X692Y-1647D01*
X669D01*
X687D02*
X704Y-1675D01*
X716Y-1655D02*
X747D01*
Y-1650D01*
X744Y-1645D01*
X742Y-1642D01*
X737Y-1639D01*
X729D01*
X724Y-1642D01*
X719Y-1647D01*
X716Y-1655D01*
Y-1660D01*
X719Y-1667D01*
X724Y-1672D01*
X729Y-1675D01*
X737D01*
X742Y-1672D01*
X747Y-1667D01*
X758Y-1639D02*
X773Y-1675D01*
X789Y-1639D02*
X773Y-1675D01*
X797Y-1632D02*
X802Y-1629D01*
X810Y-1622D01*
Y-1675D01*
X872Y-1622D02*
X847Y-1675D01*
X836Y-1622D02*
X872D01*
X886Y-1670D02*
X884Y-1672D01*
X886Y-1675D01*
X889Y-1672D01*
X886Y-1670D01*
X901Y-1650D02*
X924D01*
X931Y-1647D01*
X934Y-1645D01*
X936Y-1639D01*
Y-1632D01*
X934Y-1627D01*
X931Y-1624D01*
X924Y-1622D01*
X901D01*
Y-1675D01*
X986Y-1634D02*
X984Y-1629D01*
X979Y-1624D01*
X974Y-1622D01*
X963D01*
X958Y-1624D01*
X953Y-1629D01*
X951Y-1634D01*
X948Y-1642D01*
Y-1655D01*
X951Y-1662D01*
X953Y-1667D01*
X958Y-1672D01*
X963Y-1675D01*
X974D01*
X979Y-1672D01*
X984Y-1667D01*
X986Y-1662D01*
X1001Y-1622D02*
Y-1675D01*
Y-1622D02*
X1024D01*
X1032Y-1624D01*
X1034Y-1627D01*
X1037Y-1632D01*
Y-1637D01*
X1034Y-1642D01*
X1032Y-1645D01*
X1024Y-1647D01*
X1001D02*
X1024D01*
X1032Y-1650D01*
X1034Y-1652D01*
X1037Y-1657D01*
Y-1665D01*
X1034Y-1670D01*
X1032Y-1672D01*
X1024Y-1675D01*
X1001D01*
X3011Y-1287D02*
Y-1341D01*
Y-1287D02*
X3029D01*
X3036Y-1290D01*
X3041Y-1295D01*
X3044Y-1300D01*
X3046Y-1308D01*
Y-1320D01*
X3044Y-1328D01*
X3041Y-1333D01*
X3036Y-1338D01*
X3029Y-1341D01*
X3011D01*
X3099D02*
X3079Y-1287D01*
X3058Y-1341D01*
X3066Y-1323D02*
X3091D01*
X3129Y-1287D02*
Y-1341D01*
X3111Y-1287D02*
X3147D01*
X3186D02*
X3153D01*
Y-1341D01*
X3186D01*
X3153Y-1313D02*
X3174D01*
X3198Y-1305D02*
X3195Y-1308D01*
X3198Y-1310D01*
X3200Y-1308D01*
X3198Y-1305D01*
Y-1336D02*
X3195Y-1338D01*
X3198Y-1341D01*
X3200Y-1338D01*
X3198Y-1336D01*
X2548Y-1287D02*
Y-1341D01*
Y-1287D02*
X2571D01*
X2579Y-1290D01*
X2581Y-1292D01*
X2584Y-1298D01*
Y-1303D01*
X2581Y-1308D01*
X2579Y-1310D01*
X2571Y-1313D01*
X2548D01*
X2566D02*
X2584Y-1341D01*
X2629Y-1287D02*
X2596D01*
Y-1341D01*
X2629D01*
X2596Y-1313D02*
X2616D01*
X2638Y-1287D02*
X2658Y-1341D01*
X2678Y-1287D02*
X2658Y-1341D01*
X2688Y-1305D02*
X2685Y-1308D01*
X2688Y-1310D01*
X2690Y-1308D01*
X2688Y-1305D01*
Y-1336D02*
X2685Y-1338D01*
X2688Y-1341D01*
X2690Y-1338D01*
X2688Y-1336D01*
X-89Y-1040D02*
X-66D01*
X-59Y-1038D01*
X-56Y-1035D01*
X-54Y-1030D01*
Y-1023D01*
X-56Y-1017D01*
X-59Y-1015D01*
X-66Y-1012D01*
X-89D01*
Y-1066D01*
X-42Y-1012D02*
Y-1066D01*
X-6Y-1012D02*
Y-1066D01*
X-42Y-1038D02*
X-6D01*
X24Y-1012D02*
X19Y-1015D01*
X14Y-1020D01*
X11Y-1025D01*
X9Y-1033D01*
Y-1045D01*
X11Y-1053D01*
X14Y-1058D01*
X19Y-1063D01*
X24Y-1066D01*
X34D01*
X39Y-1063D01*
X44Y-1058D01*
X47Y-1053D01*
X49Y-1045D01*
Y-1033D01*
X47Y-1025D01*
X44Y-1020D01*
X39Y-1015D01*
X34Y-1012D01*
X24D01*
X62D02*
Y-1066D01*
Y-1012D02*
X97Y-1066D01*
Y-1012D02*
Y-1066D01*
X145Y-1012D02*
X112D01*
Y-1066D01*
X145D01*
X112Y-1038D02*
X132D01*
X156Y-1030D02*
X154Y-1033D01*
X156Y-1035D01*
X159Y-1033D01*
X156Y-1030D01*
Y-1061D02*
X154Y-1063D01*
X156Y-1066D01*
X159Y-1063D01*
X156Y-1061D01*
X-89Y-1415D02*
X-66D01*
X-59Y-1413D01*
X-56Y-1410D01*
X-54Y-1405D01*
Y-1398D01*
X-56Y-1392D01*
X-59Y-1390D01*
X-66Y-1387D01*
X-89D01*
Y-1441D01*
X-42Y-1387D02*
Y-1441D01*
X-6Y-1387D02*
Y-1441D01*
X-42Y-1413D02*
X-6D01*
X24Y-1387D02*
X19Y-1390D01*
X14Y-1395D01*
X11Y-1400D01*
X9Y-1408D01*
Y-1420D01*
X11Y-1428D01*
X14Y-1433D01*
X19Y-1438D01*
X24Y-1441D01*
X34D01*
X39Y-1438D01*
X44Y-1433D01*
X47Y-1428D01*
X49Y-1420D01*
Y-1408D01*
X47Y-1400D01*
X44Y-1395D01*
X39Y-1390D01*
X34Y-1387D01*
X24D01*
X62D02*
Y-1441D01*
Y-1387D02*
X97Y-1441D01*
Y-1387D02*
Y-1441D01*
X145Y-1387D02*
X112D01*
Y-1441D01*
X145D01*
X112Y-1413D02*
X132D01*
X156Y-1405D02*
X154Y-1408D01*
X156Y-1410D01*
X159Y-1408D01*
X156Y-1405D01*
Y-1436D02*
X154Y-1438D01*
X156Y-1441D01*
X159Y-1438D01*
X156Y-1436D01*
X1751Y-1565D02*
Y-1618D01*
X1781D01*
X1828D02*
X1808Y-1565D01*
X1787Y-1618D01*
X1795Y-1600D02*
X1820D01*
X1840Y-1565D02*
X1861Y-1590D01*
Y-1618D01*
X1881Y-1565D02*
X1861Y-1590D01*
X1921Y-1565D02*
X1888D01*
Y-1618D01*
X1921D01*
X1888Y-1590D02*
X1908D01*
X1930Y-1565D02*
Y-1618D01*
Y-1565D02*
X1953D01*
X1960Y-1567D01*
X1963Y-1570D01*
X1965Y-1575D01*
Y-1580D01*
X1963Y-1585D01*
X1960Y-1588D01*
X1953Y-1590D01*
X1930D01*
X1947D02*
X1965Y-1618D01*
X1980Y-1583D02*
X1977Y-1585D01*
X1980Y-1588D01*
X1982Y-1585D01*
X1980Y-1583D01*
Y-1613D02*
X1977Y-1616D01*
X1980Y-1618D01*
X1982Y-1616D01*
X1980Y-1613D01*
X-56Y-825D02*
X-89D01*
Y-878D01*
X-56D01*
X-89Y-850D02*
X-69D01*
X-47Y-825D02*
Y-878D01*
Y-825D02*
X-12Y-878D01*
Y-825D02*
Y-878D01*
X41Y-838D02*
X39Y-832D01*
X34Y-827D01*
X28Y-825D01*
X18D01*
X13Y-827D01*
X8Y-832D01*
X6Y-838D01*
X3Y-845D01*
Y-858D01*
X6Y-865D01*
X8Y-871D01*
X13Y-876D01*
X18Y-878D01*
X28D01*
X34Y-876D01*
X39Y-871D01*
X41Y-865D01*
Y-858D01*
X28D02*
X41D01*
X53Y-825D02*
Y-878D01*
X65Y-825D02*
Y-878D01*
Y-825D02*
X100Y-878D01*
Y-825D02*
Y-878D01*
X148Y-825D02*
X115D01*
Y-878D01*
X148D01*
X115Y-850D02*
X135D01*
X190Y-825D02*
X157D01*
Y-878D01*
X190D01*
X157Y-850D02*
X177D01*
X199Y-825D02*
Y-878D01*
Y-825D02*
X221D01*
X229Y-827D01*
X232Y-830D01*
X234Y-835D01*
Y-840D01*
X232Y-845D01*
X229Y-848D01*
X221Y-850D01*
X199D01*
X216D02*
X234Y-878D01*
X249Y-843D02*
X246Y-845D01*
X249Y-848D01*
X251Y-845D01*
X249Y-843D01*
Y-873D02*
X246Y-876D01*
X249Y-878D01*
X251Y-876D01*
X249Y-873D01*
X811Y-1315D02*
X834D01*
X841Y-1313D01*
X844Y-1310D01*
X846Y-1305D01*
Y-1298D01*
X844Y-1292D01*
X841Y-1290D01*
X834Y-1287D01*
X811D01*
Y-1341D01*
X899D02*
X879Y-1287D01*
X858Y-1341D01*
X866Y-1323D02*
X891D01*
X911Y-1287D02*
Y-1341D01*
Y-1287D02*
X934D01*
X942Y-1290D01*
X944Y-1292D01*
X947Y-1298D01*
Y-1303D01*
X944Y-1308D01*
X942Y-1310D01*
X934Y-1313D01*
X911D01*
X929D02*
X947Y-1341D01*
X977Y-1287D02*
Y-1341D01*
X959Y-1287D02*
X995D01*
X1043D02*
Y-1341D01*
Y-1287D02*
X1078Y-1341D01*
Y-1287D02*
Y-1341D01*
X1108Y-1287D02*
X1103Y-1290D01*
X1098Y-1295D01*
X1096Y-1300D01*
X1093Y-1308D01*
Y-1320D01*
X1096Y-1328D01*
X1098Y-1333D01*
X1103Y-1338D01*
X1108Y-1341D01*
X1118D01*
X1123Y-1338D01*
X1129Y-1333D01*
X1131Y-1328D01*
X1134Y-1320D01*
Y-1308D01*
X1131Y-1300D01*
X1129Y-1295D01*
X1123Y-1290D01*
X1118Y-1287D01*
X1108D01*
X1149Y-1336D02*
X1146Y-1338D01*
X1149Y-1341D01*
X1151Y-1338D01*
X1149Y-1336D01*
X1165Y-1305D02*
X1163Y-1308D01*
X1165Y-1310D01*
X1168Y-1308D01*
X1165Y-1305D01*
Y-1336D02*
X1163Y-1338D01*
X1165Y-1341D01*
X1168Y-1338D01*
X1165Y-1336D01*
X816Y-812D02*
Y-866D01*
X798Y-812D02*
X834D01*
X840D02*
Y-866D01*
X869Y-812D02*
Y-866D01*
X851Y-812D02*
X887D01*
X893D02*
Y-866D01*
X924D01*
X963Y-812D02*
X930D01*
Y-866D01*
X963D01*
X930Y-838D02*
X950D01*
X974Y-830D02*
X972Y-833D01*
X974Y-835D01*
X977Y-833D01*
X974Y-830D01*
Y-861D02*
X972Y-863D01*
X974Y-866D01*
X977Y-863D01*
X974Y-861D01*
X-89Y-1205D02*
Y-1258D01*
Y-1205D02*
X-71D01*
X-64Y-1207D01*
X-59Y-1212D01*
X-56Y-1218D01*
X-54Y-1225D01*
Y-1238D01*
X-56Y-1245D01*
X-59Y-1251D01*
X-64Y-1256D01*
X-71Y-1258D01*
X-89D01*
X-42Y-1223D02*
Y-1258D01*
Y-1238D02*
X-39Y-1230D01*
X-34Y-1225D01*
X-29Y-1223D01*
X-21D01*
X14D02*
Y-1258D01*
Y-1230D02*
X9Y-1225D01*
X4Y-1223D01*
X-4D01*
X-9Y-1225D01*
X-14Y-1230D01*
X-16Y-1238D01*
Y-1243D01*
X-14Y-1251D01*
X-9Y-1256D01*
X-4Y-1258D01*
X4D01*
X9Y-1256D01*
X14Y-1251D01*
X28Y-1223D02*
X38Y-1258D01*
X49Y-1223D02*
X38Y-1258D01*
X49Y-1223D02*
X59Y-1258D01*
X69Y-1223D02*
X59Y-1258D01*
X81Y-1223D02*
Y-1258D01*
Y-1233D02*
X89Y-1225D01*
X94Y-1223D01*
X102D01*
X107Y-1225D01*
X109Y-1233D01*
Y-1258D01*
X165Y-1205D02*
Y-1258D01*
Y-1230D02*
X170Y-1225D01*
X175Y-1223D01*
X183D01*
X188Y-1225D01*
X193Y-1230D01*
X196Y-1238D01*
Y-1243D01*
X193Y-1251D01*
X188Y-1256D01*
X183Y-1258D01*
X175D01*
X170Y-1256D01*
X165Y-1251D01*
X210Y-1223D02*
X225Y-1258D01*
X240Y-1223D02*
X225Y-1258D01*
X220Y-1268D01*
X215Y-1273D01*
X210Y-1276D01*
X207D01*
X251Y-1223D02*
X249Y-1225D01*
X251Y-1228D01*
X254Y-1225D01*
X251Y-1223D01*
Y-1253D02*
X249Y-1256D01*
X251Y-1258D01*
X254Y-1256D01*
X251Y-1253D01*
X-89Y-1565D02*
Y-1618D01*
Y-1565D02*
X-56D01*
X-89Y-1590D02*
X-69D01*
X-50Y-1565D02*
Y-1618D01*
X-39Y-1565D02*
Y-1618D01*
X-8D01*
X31Y-1565D02*
X-2D01*
Y-1618D01*
X31D01*
X-2Y-1590D02*
X18D01*
X81Y-1565D02*
Y-1618D01*
Y-1565D02*
X117Y-1618D01*
Y-1565D02*
Y-1618D01*
X172D02*
X152Y-1565D01*
X132Y-1618D01*
X139Y-1600D02*
X165D01*
X185Y-1565D02*
Y-1618D01*
Y-1565D02*
X205Y-1618D01*
X225Y-1565D02*
X205Y-1618D01*
X225Y-1565D02*
Y-1618D01*
X274Y-1565D02*
X241D01*
Y-1618D01*
X274D01*
X241Y-1590D02*
X261D01*
X285Y-1583D02*
X282Y-1585D01*
X285Y-1588D01*
X287Y-1585D01*
X285Y-1583D01*
Y-1613D02*
X282Y-1616D01*
X285Y-1618D01*
X287Y-1616D01*
X285Y-1613D01*
X3609Y-1578D02*
X3606Y-1572D01*
X3601Y-1567D01*
X3596Y-1565D01*
X3586D01*
X3581Y-1567D01*
X3576Y-1572D01*
X3573Y-1578D01*
X3571Y-1585D01*
Y-1598D01*
X3573Y-1605D01*
X3576Y-1611D01*
X3581Y-1616D01*
X3586Y-1618D01*
X3596D01*
X3601Y-1616D01*
X3606Y-1611D01*
X3609Y-1605D01*
Y-1598D01*
X3596D02*
X3609D01*
X3654Y-1565D02*
X3621D01*
Y-1618D01*
X3654D01*
X3621Y-1590D02*
X3642D01*
X3663Y-1565D02*
Y-1618D01*
Y-1565D02*
X3686D01*
X3694Y-1567D01*
X3696Y-1570D01*
X3699Y-1575D01*
Y-1580D01*
X3696Y-1585D01*
X3694Y-1588D01*
X3686Y-1590D01*
X3663D01*
X3681D02*
X3699Y-1618D01*
X3711Y-1565D02*
Y-1618D01*
Y-1565D02*
X3733D01*
X3741Y-1567D01*
X3744Y-1570D01*
X3746Y-1575D01*
Y-1580D01*
X3744Y-1585D01*
X3741Y-1588D01*
X3733Y-1590D01*
X3711D02*
X3733D01*
X3741Y-1593D01*
X3744Y-1595D01*
X3746Y-1600D01*
Y-1608D01*
X3744Y-1613D01*
X3741Y-1616D01*
X3733Y-1618D01*
X3711D01*
X3791Y-1565D02*
X3758D01*
Y-1618D01*
X3791D01*
X3758Y-1590D02*
X3778D01*
X3800Y-1565D02*
Y-1618D01*
Y-1565D02*
X3823D01*
X3830Y-1567D01*
X3833Y-1570D01*
X3835Y-1575D01*
Y-1580D01*
X3833Y-1585D01*
X3830Y-1588D01*
X3823Y-1590D01*
X3800D01*
X3818D02*
X3835Y-1618D01*
X3850Y-1583D02*
X3847Y-1585D01*
X3850Y-1588D01*
X3853Y-1585D01*
X3850Y-1583D01*
Y-1613D02*
X3847Y-1616D01*
X3850Y-1618D01*
X3853Y-1616D01*
X3850Y-1613D01*
D52*
X3426Y-1350D02*
X3431Y-1348D01*
X3438Y-1340D01*
Y-1394D01*
X3480Y-1340D02*
X3472Y-1343D01*
X3467Y-1350D01*
X3465Y-1363D01*
Y-1371D01*
X3467Y-1383D01*
X3472Y-1391D01*
X3480Y-1394D01*
X3485D01*
X3493Y-1391D01*
X3498Y-1383D01*
X3500Y-1371D01*
Y-1363D01*
X3498Y-1350D01*
X3493Y-1343D01*
X3485Y-1340D01*
X3480D01*
X3512Y-1401D02*
X3548Y-1340D01*
X3567D02*
X3559Y-1343D01*
X3554Y-1350D01*
X3551Y-1363D01*
Y-1371D01*
X3554Y-1383D01*
X3559Y-1391D01*
X3567Y-1394D01*
X3572D01*
X3579Y-1391D01*
X3584Y-1383D01*
X3587Y-1371D01*
Y-1363D01*
X3584Y-1350D01*
X3579Y-1343D01*
X3572Y-1340D01*
X3567D01*
X3612D02*
X3604Y-1343D01*
X3601Y-1348D01*
Y-1353D01*
X3604Y-1358D01*
X3609Y-1361D01*
X3619Y-1363D01*
X3627Y-1366D01*
X3632Y-1371D01*
X3634Y-1376D01*
Y-1383D01*
X3632Y-1389D01*
X3629Y-1391D01*
X3622Y-1394D01*
X3612D01*
X3604Y-1391D01*
X3601Y-1389D01*
X3599Y-1383D01*
Y-1376D01*
X3601Y-1371D01*
X3606Y-1366D01*
X3614Y-1363D01*
X3624Y-1361D01*
X3629Y-1358D01*
X3632Y-1353D01*
Y-1348D01*
X3629Y-1343D01*
X3622Y-1340D01*
X3612D01*
X3646Y-1401D02*
X3682Y-1340D01*
X3701D02*
X3693Y-1343D01*
X3688Y-1350D01*
X3685Y-1363D01*
Y-1371D01*
X3688Y-1383D01*
X3693Y-1391D01*
X3701Y-1394D01*
X3706D01*
X3713Y-1391D01*
X3718Y-1383D01*
X3721Y-1371D01*
Y-1363D01*
X3718Y-1350D01*
X3713Y-1343D01*
X3706Y-1340D01*
X3701D01*
X3746D02*
X3738Y-1343D01*
X3735Y-1348D01*
Y-1353D01*
X3738Y-1358D01*
X3743Y-1361D01*
X3753Y-1363D01*
X3761Y-1366D01*
X3766Y-1371D01*
X3768Y-1376D01*
Y-1383D01*
X3766Y-1389D01*
X3763Y-1391D01*
X3756Y-1394D01*
X3746D01*
X3738Y-1391D01*
X3735Y-1389D01*
X3733Y-1383D01*
Y-1376D01*
X3735Y-1371D01*
X3741Y-1366D01*
X3748Y-1363D01*
X3758Y-1361D01*
X3763Y-1358D01*
X3766Y-1353D01*
Y-1348D01*
X3763Y-1343D01*
X3756Y-1340D01*
X3746D01*
X2723Y-1373D02*
X2728Y-1370D01*
X2736Y-1362D01*
Y-1416D01*
X2798Y-1362D02*
X2773Y-1416D01*
X2763Y-1362D02*
X2798D01*
X1014Y-673D02*
X977Y-577D01*
X941Y-673D01*
X955Y-641D02*
X1000D01*
X1091Y-623D02*
X1082Y-614D01*
X1073Y-609D01*
X1059D01*
X1050Y-614D01*
X1041Y-623D01*
X1036Y-637D01*
Y-646D01*
X1041Y-659D01*
X1050Y-669D01*
X1059Y-673D01*
X1073D01*
X1082Y-669D01*
X1091Y-659D01*
X1126Y-577D02*
Y-655D01*
X1130Y-669D01*
X1139Y-673D01*
X1148D01*
X1112Y-609D02*
X1144D01*
X1171Y-577D02*
X1176Y-582D01*
X1180Y-577D01*
X1176Y-573D01*
X1171Y-577D01*
X1176Y-609D02*
Y-673D01*
X1197Y-609D02*
X1225Y-673D01*
X1252Y-609D02*
X1225Y-673D01*
X1268Y-637D02*
X1323D01*
Y-627D01*
X1318Y-618D01*
X1313Y-614D01*
X1304Y-609D01*
X1291D01*
X1281Y-614D01*
X1272Y-623D01*
X1268Y-637D01*
Y-646D01*
X1272Y-659D01*
X1281Y-669D01*
X1291Y-673D01*
X1304D01*
X1313Y-669D01*
X1323Y-659D01*
X1419Y-577D02*
X1441Y-673D01*
X1464Y-577D02*
X1441Y-673D01*
X1464Y-577D02*
X1487Y-673D01*
X1510Y-577D02*
X1487Y-673D01*
X1584Y-609D02*
Y-673D01*
Y-623D02*
X1575Y-614D01*
X1566Y-609D01*
X1552D01*
X1543Y-614D01*
X1534Y-623D01*
X1529Y-637D01*
Y-646D01*
X1534Y-659D01*
X1543Y-669D01*
X1552Y-673D01*
X1566D01*
X1575Y-669D01*
X1584Y-659D01*
X1610Y-609D02*
X1637Y-673D01*
X1664Y-609D02*
X1637Y-673D01*
X1680Y-637D02*
X1735D01*
Y-627D01*
X1730Y-618D01*
X1726Y-614D01*
X1717Y-609D01*
X1703D01*
X1694Y-614D01*
X1685Y-623D01*
X1680Y-637D01*
Y-646D01*
X1685Y-659D01*
X1694Y-669D01*
X1703Y-673D01*
X1717D01*
X1726Y-669D01*
X1735Y-659D01*
X1611Y-940D02*
Y-1036D01*
X1579Y-940D02*
X1643D01*
X1709Y-972D02*
Y-1036D01*
Y-986D02*
X1700Y-977D01*
X1691Y-972D01*
X1677D01*
X1668Y-977D01*
X1659Y-986D01*
X1654Y-999D01*
Y-1009D01*
X1659Y-1022D01*
X1668Y-1031D01*
X1677Y-1036D01*
X1691D01*
X1700Y-1031D01*
X1709Y-1022D01*
X1790Y-972D02*
Y-1045D01*
X1785Y-1059D01*
X1781Y-1063D01*
X1771Y-1068D01*
X1758D01*
X1749Y-1063D01*
X1790Y-986D02*
X1781Y-977D01*
X1771Y-972D01*
X1758D01*
X1749Y-977D01*
X1739Y-986D01*
X1735Y-999D01*
Y-1009D01*
X1739Y-1022D01*
X1749Y-1031D01*
X1758Y-1036D01*
X1771D01*
X1781Y-1031D01*
X1790Y-1022D01*
X1815Y-958D02*
X1824Y-954D01*
X1838Y-940D01*
Y-1036D01*
X1913Y-940D02*
X1899Y-945D01*
X1890Y-958D01*
X1886Y-981D01*
Y-995D01*
X1890Y-1018D01*
X1899Y-1031D01*
X1913Y-1036D01*
X1922D01*
X1936Y-1031D01*
X1945Y-1018D01*
X1950Y-995D01*
Y-981D01*
X1945Y-958D01*
X1936Y-945D01*
X1922Y-940D01*
X1913D01*
X1971Y-958D02*
X1980Y-954D01*
X1994Y-940D01*
Y-1036D01*
D53*
X2323Y711D02*
D03*
X2478D02*
D03*
D54*
X2710Y400D02*
D03*
D55*
X1025Y1290D02*
D03*
X98Y1275D02*
D03*
X76Y501D02*
D03*
X1026Y550D02*
D03*
D56*
X1540Y907D02*
D03*
D57*
X3032Y1533D02*
D03*
X249Y255D02*
D03*
D58*
X1024Y465D02*
D03*
D59*
X1550Y1130D02*
D03*
X2615Y685D02*
D03*
X1098Y1216D02*
D03*
X1121Y1505D02*
D03*
X536Y1149D02*
D03*
X580Y1125D02*
D03*
X707Y1031D02*
D03*
X371Y808D02*
D03*
X536Y1185D02*
D03*
X667Y1163D02*
D03*
X548Y1033D02*
D03*
X662Y1090D02*
D03*
X533Y1375D02*
D03*
X685Y1339D02*
D03*
X788Y1167D02*
D03*
X1153Y1159D02*
D03*
Y1064D02*
D03*
Y863D02*
D03*
X1078Y876D02*
D03*
X977Y869D02*
D03*
X555Y1070D02*
D03*
X625Y1215D02*
D03*
X585D02*
D03*
X2865Y805D02*
D03*
Y845D02*
D03*
X597Y1466D02*
D03*
X680Y926D02*
D03*
X1026Y731D02*
D03*
X849Y894D02*
D03*
X409Y1244D02*
D03*
X446Y966D02*
D03*
X600Y774D02*
D03*
X766Y861D02*
D03*
X319Y878D02*
D03*
X296Y737D02*
D03*
X800Y653D02*
D03*
X678D02*
D03*
X339Y1315D02*
D03*
X460Y1130D02*
D03*
X412Y1128D02*
D03*
X1260Y1064D02*
D03*
X566Y741D02*
D03*
X89Y754D02*
D03*
X99Y939D02*
D03*
X186Y1246D02*
D03*
X141Y1092D02*
D03*
X174Y1147D02*
D03*
X261Y1242D02*
D03*
X282Y1175D02*
D03*
X308Y1000D02*
D03*
X257Y870D02*
D03*
X566Y583D02*
D03*
X470Y527D02*
D03*
X885Y597D02*
D03*
X728Y624D02*
D03*
X151Y651D02*
D03*
X471Y690D02*
D03*
X806Y548D02*
D03*
X885Y522D02*
D03*
X817Y1318D02*
D03*
X952Y1182D02*
D03*
X868Y949D02*
D03*
X836Y1040D02*
D03*
X744Y1029D02*
D03*
X486Y1244D02*
D03*
X1218Y955D02*
D03*
Y1064D02*
D03*
X728Y1156D02*
D03*
X1370Y1043D02*
D03*
Y983D02*
D03*
X815Y777D02*
D03*
X571Y881D02*
D03*
X778Y1102D02*
D03*
X1006Y1109D02*
D03*
X912Y983D02*
D03*
X961Y1038D02*
D03*
X1329Y496D02*
D03*
X1303Y843D02*
D03*
X1186D02*
D03*
X948Y653D02*
D03*
X832Y976D02*
D03*
X342Y1114D02*
D03*
X186Y828D02*
D03*
X525Y1110D02*
D03*
X605Y1100D02*
D03*
X1400Y1125D02*
D03*
X1820Y1075D02*
D03*
M02*
