%FSLAX24Y24*%
%MOIN*%
G70*
G01*
G75*
G04 Layer_Physical_Order=1*
G04 Layer_Color=255*
%ADD10C,0.0500*%
%ADD11C,0.0100*%
%ADD12C,0.0150*%
%ADD13R,0.0300X0.0300*%
%ADD14R,0.0740X0.0450*%
%ADD15R,0.0300X0.0300*%
%ADD16O,0.0240X0.0800*%
%ADD17R,0.0360X0.0500*%
%ADD18R,0.0360X0.0360*%
%ADD19R,0.0236X0.1000*%
%ADD20R,0.0236X0.0900*%
%ADD21R,0.0700X0.0236*%
%ADD22R,0.0900X0.0236*%
%ADD23O,0.0160X0.0600*%
%ADD24R,0.0138X0.0354*%
%ADD25R,0.0138X0.0354*%
%ADD26R,0.0236X0.0236*%
%ADD27O,0.0160X0.0600*%
%ADD28R,0.0200X0.0500*%
%ADD29R,0.0748X0.0433*%
%ADD30C,0.0120*%
%ADD31C,0.0080*%
%ADD32C,0.0250*%
%ADD33C,0.0200*%
%ADD34C,0.0120*%
%ADD35C,0.0160*%
%ADD36C,0.0140*%
%ADD37C,0.0260*%
%ADD38C,0.0060*%
%ADD39C,0.0050*%
%ADD40C,0.0090*%
%ADD41C,0.1180*%
%ADD42C,0.0700*%
%ADD43R,0.0500X0.0500*%
%ADD44R,0.0394X0.0433*%
%ADD45C,0.0650*%
%ADD46C,0.0394*%
%ADD47C,0.0200*%
D10*
X830Y-2610D02*
D03*
X31570D02*
D03*
Y31960D02*
D03*
X830D02*
D03*
X3910Y8630D02*
D03*
X15390D02*
D03*
X26870D02*
D03*
X3910Y19220D02*
D03*
X15390D02*
D03*
X26870D02*
D03*
X3910Y29810D02*
D03*
X15390D02*
D03*
X26870D02*
D03*
D11*
X18963Y-20860D02*
Y-21500D01*
X18750Y-20860D02*
X19177D01*
X19405Y-21073D02*
X19344Y-21104D01*
X19283Y-21165D01*
X19253Y-21256D01*
Y-21317D01*
X19283Y-21409D01*
X19344Y-21470D01*
X19405Y-21500D01*
X19497D01*
X19557Y-21470D01*
X19618Y-21409D01*
X19649Y-21317D01*
Y-21256D01*
X19618Y-21165D01*
X19557Y-21104D01*
X19497Y-21073D01*
X19405D01*
X19789D02*
Y-21713D01*
Y-21165D02*
X19850Y-21104D01*
X19911Y-21073D01*
X20002D01*
X20063Y-21104D01*
X20124Y-21165D01*
X20155Y-21256D01*
Y-21317D01*
X20124Y-21409D01*
X20063Y-21470D01*
X20002Y-21500D01*
X19911D01*
X19850Y-21470D01*
X19789Y-21409D01*
X20292Y-20860D02*
Y-21500D01*
X20657D01*
X21093Y-21073D02*
Y-21500D01*
Y-21165D02*
X21032Y-21104D01*
X20971Y-21073D01*
X20880D01*
X20819Y-21104D01*
X20758Y-21165D01*
X20727Y-21256D01*
Y-21317D01*
X20758Y-21409D01*
X20819Y-21470D01*
X20880Y-21500D01*
X20971D01*
X21032Y-21470D01*
X21093Y-21409D01*
X21294Y-21073D02*
X21477Y-21500D01*
X21660Y-21073D02*
X21477Y-21500D01*
X21416Y-21622D01*
X21355Y-21683D01*
X21294Y-21713D01*
X21264D01*
X21766Y-21256D02*
X22132D01*
Y-21195D01*
X22102Y-21134D01*
X22071Y-21104D01*
X22010Y-21073D01*
X21919D01*
X21858Y-21104D01*
X21797Y-21165D01*
X21766Y-21256D01*
Y-21317D01*
X21797Y-21409D01*
X21858Y-21470D01*
X21919Y-21500D01*
X22010D01*
X22071Y-21470D01*
X22132Y-21409D01*
X22269Y-21073D02*
Y-21500D01*
Y-21256D02*
X22300Y-21165D01*
X22361Y-21104D01*
X22422Y-21073D01*
X22513D01*
X3700Y-344D02*
X4444D01*
X3194D02*
X3700D01*
X8900Y2800D02*
X9000D01*
X8640Y3060D02*
X8900Y2800D01*
X8640Y3060D02*
Y3140D01*
X9500Y2950D02*
Y4033D01*
X9350Y2800D02*
X9500Y2950D01*
X9000Y2800D02*
X9350D01*
X8540Y3530D02*
Y3740D01*
X8150Y3140D02*
X8540Y3530D01*
X8040Y3140D02*
X8150D01*
X3150Y-300D02*
X3194Y-344D01*
X3150Y300D02*
X3420Y570D01*
X3800D01*
X7890Y7612D02*
X8090Y7412D01*
X8900Y5700D02*
X9100Y5900D01*
Y6000D01*
X8090Y6468D02*
X8222Y6600D01*
X8018Y7340D02*
X8090Y7412D01*
X9240Y3270D02*
Y3590D01*
X8786Y3694D02*
X9136D01*
X8640Y3840D02*
X8786Y3694D01*
X9136D02*
X9240Y3590D01*
X5840Y7850D02*
Y8590D01*
X5790Y8640D02*
X5840Y8590D01*
X2550Y2050D02*
X2930D01*
X6864Y4779D02*
Y5516D01*
X6840Y5540D02*
X6864Y5516D01*
X6608Y4779D02*
Y5858D01*
X6740Y5990D01*
X4000Y5250D02*
X4280Y5530D01*
X5200Y3930D02*
X5440Y3690D01*
X5200Y3930D02*
Y3950D01*
X7890Y7612D02*
Y7990D01*
X8090Y6468D02*
X8490Y6068D01*
Y5790D02*
Y6068D01*
X5050Y3500D02*
X5200Y3350D01*
X4600Y3500D02*
X5050D01*
X5073Y4779D02*
Y5407D01*
X6970Y4029D02*
X6974Y4033D01*
X6970Y3930D02*
Y4029D01*
X9240Y4037D02*
X9244Y4033D01*
X6520Y1230D02*
X6520Y2140D01*
X7020D02*
Y2390D01*
X5800Y3050D02*
Y3550D01*
X5340Y3050D02*
X5800D01*
X5200Y3190D02*
X5340Y3050D01*
X5200Y3190D02*
Y3350D01*
X2430Y3770D02*
X2440Y3760D01*
X3710D01*
X4000Y4050D01*
X4050Y3500D02*
X4600Y4050D01*
X4000Y3500D02*
X4050D01*
X900Y5240D02*
X1610D01*
X830Y5310D02*
X900Y5240D01*
X3360Y5890D02*
Y6270D01*
Y5890D02*
X3400Y5850D01*
X230Y4380D02*
Y4710D01*
X1040Y5860D02*
Y5870D01*
X1450Y7800D02*
X1530Y7730D01*
Y6460D02*
X1610Y6380D01*
Y5900D02*
Y6380D01*
X1670Y5840D02*
X2060D01*
X2004Y5784D02*
X2060Y5840D01*
X2004Y5240D02*
Y5784D01*
X1610Y5190D02*
X1810Y4990D01*
X2410D02*
X2660Y4740D01*
X1610Y5190D02*
Y5240D01*
X1810Y3830D02*
X2050Y4070D01*
X1810Y3690D02*
Y3830D01*
X8094Y956D02*
Y1530D01*
X2550Y2650D02*
X2550Y2650D01*
X1850Y1540D02*
Y2050D01*
X2480Y1540D02*
X2540Y1600D01*
X1850Y1540D02*
X2480D01*
X3950Y720D02*
Y909D01*
X3800Y570D02*
X3950Y720D01*
X230Y4710D02*
X513Y4993D01*
Y5491D01*
X631Y5609D01*
X779D01*
X1040Y5870D01*
X1530Y7505D02*
Y7730D01*
Y7335D02*
X1615Y7420D01*
X1530Y7505D02*
X1615Y7420D01*
X1530Y7060D02*
Y7335D01*
X1450Y7800D02*
X2050D01*
X6864Y7536D02*
Y7850D01*
X7020Y2390D02*
X7390Y2760D01*
X4100Y6580D02*
X4280Y6400D01*
Y5530D02*
Y6400D01*
X9244Y3167D02*
Y3266D01*
X3350Y7900D02*
Y8342D01*
X8350Y1960D02*
X8490Y2100D01*
Y2240D01*
X1640Y5870D02*
X1670Y5840D01*
X1610Y5900D02*
X1640Y5870D01*
X-120Y3860D02*
Y4030D01*
Y4380D01*
X8350Y1520D02*
Y1530D01*
Y1960D01*
X4100Y6580D02*
Y6900D01*
X1810Y4990D02*
X2320D01*
X2410D01*
X2660Y5340D02*
Y5840D01*
Y6130D01*
Y6440D01*
Y7020D01*
X2930Y2050D02*
X2950Y2070D01*
X7838Y206D02*
X7844Y211D01*
X3400Y4650D02*
X3700D01*
X4000D01*
X6090Y3360D02*
X6400Y3050D01*
X6090Y3360D02*
Y3730D01*
X6200Y3840D01*
X6670D01*
X6760Y3930D01*
X6970D01*
X8540Y3740D02*
X8640Y3840D01*
X5240Y2730D02*
X6970D01*
X7290Y3050D01*
X9650Y7200D02*
X9930Y6920D01*
Y6230D02*
Y6920D01*
X9700Y6000D02*
X9930Y6230D01*
X7400Y7340D02*
X8018D01*
X7391Y7350D02*
X7400Y7340D01*
X6864Y7536D02*
X7050Y7350D01*
X7391D01*
X6440Y4140D02*
X6495D01*
X6700Y4345D01*
X6965D01*
X7120Y4500D01*
X6400Y3550D02*
X6680Y3270D01*
X7140D02*
X7370Y3500D01*
X8250D01*
X8350Y3600D01*
X8222Y6600D02*
X9000D01*
X2740Y7420D02*
X2740Y7420D01*
X1615Y7420D02*
X2740D01*
X4100Y6900D02*
Y7190D01*
X4290Y7380D01*
X4490D01*
X3350Y8342D02*
X3455Y8446D01*
X3350Y7900D02*
X4100D01*
X3910Y8630D02*
X4020D01*
X4490Y8160D01*
Y7380D02*
Y8160D01*
X2650Y7800D02*
Y8070D01*
X6680Y3270D02*
X6974D01*
X7140D01*
X7290Y3050D02*
X7486D01*
X7565D01*
X850Y7800D02*
Y8070D01*
X760Y8160D02*
X850Y8070D01*
X710Y8160D02*
X760D01*
X9000Y6930D02*
Y7200D01*
X2650Y8070D02*
X2740Y8160D01*
Y8170D01*
X15180Y-344D02*
X15924D01*
X14674D02*
X15180D01*
X20380Y2800D02*
X20480D01*
X20120Y3060D02*
X20380Y2800D01*
X20120Y3060D02*
Y3140D01*
X20980Y2950D02*
Y4033D01*
X20830Y2800D02*
X20980Y2950D01*
X20480Y2800D02*
X20830D01*
X20020Y3530D02*
Y3740D01*
X19630Y3140D02*
X20020Y3530D01*
X19520Y3140D02*
X19630D01*
X14630Y-300D02*
X14674Y-344D01*
X14630Y300D02*
X14900Y570D01*
X15280D01*
X19370Y7612D02*
X19570Y7412D01*
X20380Y5700D02*
X20580Y5900D01*
Y6000D01*
X19570Y6468D02*
X19702Y6600D01*
X19498Y7340D02*
X19570Y7412D01*
X20720Y3270D02*
Y3590D01*
X20266Y3694D02*
X20616D01*
X20120Y3840D02*
X20266Y3694D01*
X20616D02*
X20720Y3590D01*
X17320Y7850D02*
Y8590D01*
X17270Y8640D02*
X17320Y8590D01*
X14030Y2050D02*
X14410D01*
X18344Y4779D02*
Y5516D01*
X18320Y5540D02*
X18344Y5516D01*
X18088Y4779D02*
Y5858D01*
X18220Y5990D01*
X15480Y5250D02*
X15760Y5530D01*
X16680Y3930D02*
X16920Y3690D01*
X16680Y3930D02*
Y3950D01*
X19370Y7612D02*
Y7990D01*
X19570Y6468D02*
X19970Y6068D01*
Y5790D02*
Y6068D01*
X16530Y3500D02*
X16680Y3350D01*
X16080Y3500D02*
X16530D01*
X16553Y4779D02*
Y5407D01*
X18450Y4029D02*
X18454Y4033D01*
X18450Y3930D02*
Y4029D01*
X20720Y4037D02*
X20724Y4033D01*
X18000Y1230D02*
X18000Y2140D01*
X18500D02*
Y2390D01*
X17280Y3050D02*
Y3550D01*
X16820Y3050D02*
X17280D01*
X16680Y3190D02*
X16820Y3050D01*
X16680Y3190D02*
Y3350D01*
X13910Y3770D02*
X13920Y3760D01*
X15190D01*
X15480Y4050D01*
X15530Y3500D02*
X16080Y4050D01*
X15480Y3500D02*
X15530D01*
X12380Y5240D02*
X13090D01*
X12310Y5310D02*
X12380Y5240D01*
X14840Y5890D02*
Y6270D01*
Y5890D02*
X14880Y5850D01*
X11710Y4380D02*
Y4710D01*
X12520Y5860D02*
Y5870D01*
X12930Y7800D02*
X13010Y7730D01*
Y6460D02*
X13090Y6380D01*
Y5900D02*
Y6380D01*
X13150Y5840D02*
X13540D01*
X13484Y5784D02*
X13540Y5840D01*
X13484Y5240D02*
Y5784D01*
X13090Y5190D02*
X13290Y4990D01*
X13890D02*
X14140Y4740D01*
X13090Y5190D02*
Y5240D01*
X13290Y3830D02*
X13530Y4070D01*
X13290Y3690D02*
Y3830D01*
X19574Y956D02*
Y1530D01*
X14030Y2650D02*
X14030Y2650D01*
X13330Y1540D02*
Y2050D01*
X13960Y1540D02*
X14020Y1600D01*
X13330Y1540D02*
X13960D01*
X15430Y720D02*
Y909D01*
X15280Y570D02*
X15430Y720D01*
X11710Y4710D02*
X11993Y4993D01*
Y5491D01*
X12111Y5609D01*
X12259D01*
X12520Y5870D01*
X13010Y7505D02*
Y7730D01*
Y7335D02*
X13095Y7420D01*
X13010Y7505D02*
X13095Y7420D01*
X13010Y7060D02*
Y7335D01*
X12930Y7800D02*
X13530D01*
X18344Y7536D02*
Y7850D01*
X18500Y2390D02*
X18870Y2760D01*
X15580Y6580D02*
X15760Y6400D01*
Y5530D02*
Y6400D01*
X20724Y3167D02*
Y3266D01*
X14830Y7900D02*
Y8342D01*
X19830Y1960D02*
X19970Y2100D01*
Y2240D01*
X13120Y5870D02*
X13150Y5840D01*
X13090Y5900D02*
X13120Y5870D01*
X11360Y3860D02*
Y4030D01*
Y4380D01*
X19830Y1520D02*
Y1530D01*
Y1960D01*
X15580Y6580D02*
Y6900D01*
X13290Y4990D02*
X13800D01*
X13890D01*
X14140Y5340D02*
Y5840D01*
Y6130D01*
Y6440D01*
Y7020D01*
X14410Y2050D02*
X14430Y2070D01*
X19318Y206D02*
X19324Y211D01*
X14880Y4650D02*
X15180D01*
X15480D01*
X17570Y3360D02*
X17880Y3050D01*
X17570Y3360D02*
Y3730D01*
X17680Y3840D01*
X18150D01*
X18240Y3930D01*
X18450D01*
X20020Y3740D02*
X20120Y3840D01*
X16720Y2730D02*
X18450D01*
X18770Y3050D01*
X21130Y7200D02*
X21410Y6920D01*
Y6230D02*
Y6920D01*
X21180Y6000D02*
X21410Y6230D01*
X18880Y7340D02*
X19498D01*
X18871Y7350D02*
X18880Y7340D01*
X18344Y7536D02*
X18530Y7350D01*
X18871D01*
X17920Y4140D02*
X17975D01*
X18180Y4345D01*
X18445D01*
X18600Y4500D01*
X17880Y3550D02*
X18160Y3270D01*
X18620D02*
X18850Y3500D01*
X19730D01*
X19830Y3600D01*
X19702Y6600D02*
X20480D01*
X14220Y7420D02*
X14220Y7420D01*
X13095Y7420D02*
X14220D01*
X15580Y6900D02*
Y7190D01*
X15770Y7380D01*
X15970D01*
X14830Y8342D02*
X14935Y8446D01*
X14830Y7900D02*
X15580D01*
X15390Y8630D02*
X15500D01*
X15970Y8160D01*
Y7380D02*
Y8160D01*
X14130Y7800D02*
Y8070D01*
X18160Y3270D02*
X18454D01*
X18620D01*
X18770Y3050D02*
X18966D01*
X19045D01*
X12330Y7800D02*
Y8070D01*
X12240Y8160D02*
X12330Y8070D01*
X12190Y8160D02*
X12240D01*
X20480Y6930D02*
Y7200D01*
X14130Y8070D02*
X14220Y8160D01*
Y8170D01*
X26660Y-344D02*
X27404D01*
X26154D02*
X26660D01*
X31860Y2800D02*
X31960D01*
X31600Y3060D02*
X31860Y2800D01*
X31600Y3060D02*
Y3140D01*
X32460Y2950D02*
Y4033D01*
X32310Y2800D02*
X32460Y2950D01*
X31960Y2800D02*
X32310D01*
X31500Y3530D02*
Y3740D01*
X31110Y3140D02*
X31500Y3530D01*
X31000Y3140D02*
X31110D01*
X26110Y-300D02*
X26154Y-344D01*
X26110Y300D02*
X26380Y570D01*
X26760D01*
X30850Y7612D02*
X31050Y7412D01*
X31860Y5700D02*
X32060Y5900D01*
Y6000D01*
X31050Y6468D02*
X31182Y6600D01*
X30978Y7340D02*
X31050Y7412D01*
X32200Y3270D02*
Y3590D01*
X31746Y3694D02*
X32096D01*
X31600Y3840D02*
X31746Y3694D01*
X32096D02*
X32200Y3590D01*
X28800Y7850D02*
Y8590D01*
X28750Y8640D02*
X28800Y8590D01*
X25510Y2050D02*
X25890D01*
X29824Y4779D02*
Y5516D01*
X29800Y5540D02*
X29824Y5516D01*
X29568Y4779D02*
Y5858D01*
X29700Y5990D01*
X26960Y5250D02*
X27240Y5530D01*
X28160Y3930D02*
X28400Y3690D01*
X28160Y3930D02*
Y3950D01*
X30850Y7612D02*
Y7990D01*
X31050Y6468D02*
X31450Y6068D01*
Y5790D02*
Y6068D01*
X28010Y3500D02*
X28160Y3350D01*
X27560Y3500D02*
X28010D01*
X28033Y4779D02*
Y5407D01*
X29930Y4029D02*
X29934Y4033D01*
X29930Y3930D02*
Y4029D01*
X32200Y4037D02*
X32204Y4033D01*
X29480Y1230D02*
X29480Y2140D01*
X29980D02*
Y2390D01*
X28760Y3050D02*
Y3550D01*
X28300Y3050D02*
X28760D01*
X28160Y3190D02*
X28300Y3050D01*
X28160Y3190D02*
Y3350D01*
X25390Y3770D02*
X25400Y3760D01*
X26670D01*
X26960Y4050D01*
X27010Y3500D02*
X27560Y4050D01*
X26960Y3500D02*
X27010D01*
X23860Y5240D02*
X24570D01*
X23790Y5310D02*
X23860Y5240D01*
X26320Y5890D02*
Y6270D01*
Y5890D02*
X26360Y5850D01*
X23190Y4380D02*
Y4710D01*
X24000Y5860D02*
Y5870D01*
X24410Y7800D02*
X24490Y7730D01*
Y6460D02*
X24570Y6380D01*
Y5900D02*
Y6380D01*
X24630Y5840D02*
X25020D01*
X24964Y5784D02*
X25020Y5840D01*
X24964Y5240D02*
Y5784D01*
X24570Y5190D02*
X24770Y4990D01*
X25370D02*
X25620Y4740D01*
X24570Y5190D02*
Y5240D01*
X24770Y3830D02*
X25010Y4070D01*
X24770Y3690D02*
Y3830D01*
X31054Y956D02*
Y1530D01*
X25510Y2650D02*
X25510Y2650D01*
X24810Y1540D02*
Y2050D01*
X25440Y1540D02*
X25500Y1600D01*
X24810Y1540D02*
X25440D01*
X26910Y720D02*
Y909D01*
X26760Y570D02*
X26910Y720D01*
X23190Y4710D02*
X23473Y4993D01*
Y5491D01*
X23591Y5609D01*
X23739D01*
X24000Y5870D01*
X24490Y7505D02*
Y7730D01*
Y7335D02*
X24575Y7420D01*
X24490Y7505D02*
X24575Y7420D01*
X24490Y7060D02*
Y7335D01*
X24410Y7800D02*
X25010D01*
X29824Y7536D02*
Y7850D01*
X29980Y2390D02*
X30350Y2760D01*
X27060Y6580D02*
X27240Y6400D01*
Y5530D02*
Y6400D01*
X32204Y3167D02*
Y3266D01*
X26310Y7900D02*
Y8342D01*
X31310Y1960D02*
X31450Y2100D01*
Y2240D01*
X24600Y5870D02*
X24630Y5840D01*
X24570Y5900D02*
X24600Y5870D01*
X22840Y3860D02*
Y4030D01*
Y4380D01*
X31310Y1520D02*
Y1530D01*
Y1960D01*
X27060Y6580D02*
Y6900D01*
X24770Y4990D02*
X25280D01*
X25370D01*
X25620Y5340D02*
Y5840D01*
Y6130D01*
Y6440D01*
Y7020D01*
X25890Y2050D02*
X25910Y2070D01*
X30798Y206D02*
X30804Y211D01*
X26360Y4650D02*
X26660D01*
X26960D01*
X29050Y3360D02*
X29360Y3050D01*
X29050Y3360D02*
Y3730D01*
X29160Y3840D01*
X29630D01*
X29720Y3930D01*
X29930D01*
X31500Y3740D02*
X31600Y3840D01*
X28200Y2730D02*
X29930D01*
X30250Y3050D01*
X32610Y7200D02*
X32890Y6920D01*
Y6230D02*
Y6920D01*
X32660Y6000D02*
X32890Y6230D01*
X30360Y7340D02*
X30978D01*
X30351Y7350D02*
X30360Y7340D01*
X29824Y7536D02*
X30010Y7350D01*
X30351D01*
X29400Y4140D02*
X29455D01*
X29660Y4345D01*
X29925D01*
X30080Y4500D01*
X29360Y3550D02*
X29640Y3270D01*
X30100D02*
X30330Y3500D01*
X31210D01*
X31310Y3600D01*
X31182Y6600D02*
X31960D01*
X25700Y7420D02*
X25700Y7420D01*
X24575Y7420D02*
X25700D01*
X27060Y6900D02*
Y7190D01*
X27250Y7380D01*
X27450D01*
X26310Y8342D02*
X26415Y8446D01*
X26310Y7900D02*
X27060D01*
X26870Y8630D02*
X26980D01*
X27450Y8160D01*
Y7380D02*
Y8160D01*
X25610Y7800D02*
Y8070D01*
X29640Y3270D02*
X29934D01*
X30100D01*
X30250Y3050D02*
X30446D01*
X30525D01*
X23810Y7800D02*
Y8070D01*
X23720Y8160D02*
X23810Y8070D01*
X23670Y8160D02*
X23720D01*
X31960Y6930D02*
Y7200D01*
X25610Y8070D02*
X25700Y8160D01*
Y8170D01*
X3700Y10246D02*
X4444D01*
X3194D02*
X3700D01*
X8900Y13390D02*
X9000D01*
X8640Y13650D02*
X8900Y13390D01*
X8640Y13650D02*
Y13730D01*
X9500Y13540D02*
Y14623D01*
X9350Y13390D02*
X9500Y13540D01*
X9000Y13390D02*
X9350D01*
X8540Y14120D02*
Y14330D01*
X8150Y13730D02*
X8540Y14120D01*
X8040Y13730D02*
X8150D01*
X3150Y10290D02*
X3194Y10246D01*
X3150Y10890D02*
X3420Y11160D01*
X3800D01*
X7890Y18202D02*
X8090Y18002D01*
X8900Y16290D02*
X9100Y16490D01*
Y16590D01*
X8090Y17058D02*
X8222Y17190D01*
X8018Y17930D02*
X8090Y18002D01*
X9240Y13860D02*
Y14180D01*
X8786Y14284D02*
X9136D01*
X8640Y14430D02*
X8786Y14284D01*
X9136D02*
X9240Y14180D01*
X5840Y18440D02*
Y19180D01*
X5790Y19230D02*
X5840Y19180D01*
X2550Y12640D02*
X2930D01*
X6864Y15369D02*
Y16106D01*
X6840Y16130D02*
X6864Y16106D01*
X6608Y15369D02*
Y16448D01*
X6740Y16580D01*
X4000Y15840D02*
X4280Y16120D01*
X5200Y14520D02*
X5440Y14280D01*
X5200Y14520D02*
Y14540D01*
X7890Y18202D02*
Y18580D01*
X8090Y17058D02*
X8490Y16658D01*
Y16380D02*
Y16658D01*
X5050Y14090D02*
X5200Y13940D01*
X4600Y14090D02*
X5050D01*
X5073Y15369D02*
Y15997D01*
X6970Y14619D02*
X6974Y14623D01*
X6970Y14520D02*
Y14619D01*
X9240Y14627D02*
X9244Y14623D01*
X6520Y11820D02*
X6520Y12730D01*
X7020D02*
Y12980D01*
X5800Y13640D02*
Y14140D01*
X5340Y13640D02*
X5800D01*
X5200Y13780D02*
X5340Y13640D01*
X5200Y13780D02*
Y13940D01*
X2430Y14360D02*
X2440Y14350D01*
X3710D01*
X4000Y14640D01*
X4050Y14090D02*
X4600Y14640D01*
X4000Y14090D02*
X4050D01*
X900Y15830D02*
X1610D01*
X830Y15900D02*
X900Y15830D01*
X3360Y16480D02*
Y16860D01*
Y16480D02*
X3400Y16440D01*
X230Y14970D02*
Y15300D01*
X1040Y16450D02*
Y16460D01*
X1450Y18390D02*
X1530Y18320D01*
Y17050D02*
X1610Y16970D01*
Y16490D02*
Y16970D01*
X1670Y16430D02*
X2060D01*
X2004Y16374D02*
X2060Y16430D01*
X2004Y15830D02*
Y16374D01*
X1610Y15780D02*
X1810Y15580D01*
X2410D02*
X2660Y15330D01*
X1610Y15780D02*
Y15830D01*
X1810Y14420D02*
X2050Y14660D01*
X1810Y14280D02*
Y14420D01*
X8094Y11546D02*
Y12120D01*
X2550Y13240D02*
X2550Y13240D01*
X1850Y12130D02*
Y12640D01*
X2480Y12130D02*
X2540Y12190D01*
X1850Y12130D02*
X2480D01*
X3950Y11310D02*
Y11499D01*
X3800Y11160D02*
X3950Y11310D01*
X230Y15300D02*
X513Y15583D01*
Y16081D01*
X631Y16199D01*
X779D01*
X1040Y16460D01*
X1530Y18095D02*
Y18320D01*
Y17925D02*
X1615Y18010D01*
X1530Y18095D02*
X1615Y18010D01*
X1530Y17650D02*
Y17925D01*
X1450Y18390D02*
X2050D01*
X6864Y18126D02*
Y18440D01*
X7020Y12980D02*
X7390Y13350D01*
X4100Y17170D02*
X4280Y16990D01*
Y16120D02*
Y16990D01*
X9244Y13757D02*
Y13856D01*
X3350Y18490D02*
Y18932D01*
X8350Y12550D02*
X8490Y12690D01*
Y12830D01*
X1640Y16460D02*
X1670Y16430D01*
X1610Y16490D02*
X1640Y16460D01*
X-120Y14450D02*
Y14620D01*
Y14970D01*
X8350Y12110D02*
Y12120D01*
Y12550D01*
X4100Y17170D02*
Y17490D01*
X1810Y15580D02*
X2320D01*
X2410D01*
X2660Y15930D02*
Y16430D01*
Y16720D01*
Y17030D01*
Y17610D01*
X2930Y12640D02*
X2950Y12660D01*
X7838Y10796D02*
X7844Y10801D01*
X3400Y15240D02*
X3700D01*
X4000D01*
X6090Y13950D02*
X6400Y13640D01*
X6090Y13950D02*
Y14320D01*
X6200Y14430D01*
X6670D01*
X6760Y14520D01*
X6970D01*
X8540Y14330D02*
X8640Y14430D01*
X5240Y13320D02*
X6970D01*
X7290Y13640D01*
X9650Y17790D02*
X9930Y17510D01*
Y16820D02*
Y17510D01*
X9700Y16590D02*
X9930Y16820D01*
X7400Y17930D02*
X8018D01*
X7391Y17940D02*
X7400Y17930D01*
X6864Y18126D02*
X7050Y17940D01*
X7391D01*
X6440Y14730D02*
X6495D01*
X6700Y14935D01*
X6965D01*
X7120Y15090D01*
X6400Y14140D02*
X6680Y13860D01*
X7140D02*
X7370Y14090D01*
X8250D01*
X8350Y14190D01*
X8222Y17190D02*
X9000D01*
X2740Y18010D02*
X2740Y18010D01*
X1615Y18010D02*
X2740D01*
X4100Y17490D02*
Y17780D01*
X4290Y17970D01*
X4490D01*
X3350Y18932D02*
X3455Y19036D01*
X3350Y18490D02*
X4100D01*
X3910Y19220D02*
X4020D01*
X4490Y18750D01*
Y17970D02*
Y18750D01*
X2650Y18390D02*
Y18660D01*
X6680Y13860D02*
X6974D01*
X7140D01*
X7290Y13640D02*
X7486D01*
X7565D01*
X850Y18390D02*
Y18660D01*
X760Y18750D02*
X850Y18660D01*
X710Y18750D02*
X760D01*
X9000Y17520D02*
Y17790D01*
X2650Y18660D02*
X2740Y18750D01*
Y18760D01*
X15180Y10246D02*
X15924D01*
X14674D02*
X15180D01*
X20380Y13390D02*
X20480D01*
X20120Y13650D02*
X20380Y13390D01*
X20120Y13650D02*
Y13730D01*
X20980Y13540D02*
Y14623D01*
X20830Y13390D02*
X20980Y13540D01*
X20480Y13390D02*
X20830D01*
X20020Y14120D02*
Y14330D01*
X19630Y13730D02*
X20020Y14120D01*
X19520Y13730D02*
X19630D01*
X14630Y10290D02*
X14674Y10246D01*
X14630Y10890D02*
X14900Y11160D01*
X15280D01*
X19370Y18202D02*
X19570Y18002D01*
X20380Y16290D02*
X20580Y16490D01*
Y16590D01*
X19570Y17058D02*
X19702Y17190D01*
X19498Y17930D02*
X19570Y18002D01*
X20720Y13860D02*
Y14180D01*
X20266Y14284D02*
X20616D01*
X20120Y14430D02*
X20266Y14284D01*
X20616D02*
X20720Y14180D01*
X17320Y18440D02*
Y19180D01*
X17270Y19230D02*
X17320Y19180D01*
X14030Y12640D02*
X14410D01*
X18344Y15369D02*
Y16106D01*
X18320Y16130D02*
X18344Y16106D01*
X18088Y15369D02*
Y16448D01*
X18220Y16580D01*
X15480Y15840D02*
X15760Y16120D01*
X16680Y14520D02*
X16920Y14280D01*
X16680Y14520D02*
Y14540D01*
X19370Y18202D02*
Y18580D01*
X19570Y17058D02*
X19970Y16658D01*
Y16380D02*
Y16658D01*
X16530Y14090D02*
X16680Y13940D01*
X16080Y14090D02*
X16530D01*
X16553Y15369D02*
Y15997D01*
X18450Y14619D02*
X18454Y14623D01*
X18450Y14520D02*
Y14619D01*
X20720Y14627D02*
X20724Y14623D01*
X18000Y11820D02*
X18000Y12730D01*
X18500D02*
Y12980D01*
X17280Y13640D02*
Y14140D01*
X16820Y13640D02*
X17280D01*
X16680Y13780D02*
X16820Y13640D01*
X16680Y13780D02*
Y13940D01*
X13910Y14360D02*
X13920Y14350D01*
X15190D01*
X15480Y14640D01*
X15530Y14090D02*
X16080Y14640D01*
X15480Y14090D02*
X15530D01*
X12380Y15830D02*
X13090D01*
X12310Y15900D02*
X12380Y15830D01*
X14840Y16480D02*
Y16860D01*
Y16480D02*
X14880Y16440D01*
X11710Y14970D02*
Y15300D01*
X12520Y16450D02*
Y16460D01*
X12930Y18390D02*
X13010Y18320D01*
Y17050D02*
X13090Y16970D01*
Y16490D02*
Y16970D01*
X13150Y16430D02*
X13540D01*
X13484Y16374D02*
X13540Y16430D01*
X13484Y15830D02*
Y16374D01*
X13090Y15780D02*
X13290Y15580D01*
X13890D02*
X14140Y15330D01*
X13090Y15780D02*
Y15830D01*
X13290Y14420D02*
X13530Y14660D01*
X13290Y14280D02*
Y14420D01*
X19574Y11546D02*
Y12120D01*
X14030Y13240D02*
X14030Y13240D01*
X13330Y12130D02*
Y12640D01*
X13960Y12130D02*
X14020Y12190D01*
X13330Y12130D02*
X13960D01*
X15430Y11310D02*
Y11499D01*
X15280Y11160D02*
X15430Y11310D01*
X11710Y15300D02*
X11993Y15583D01*
Y16081D01*
X12111Y16199D01*
X12259D01*
X12520Y16460D01*
X13010Y18095D02*
Y18320D01*
Y17925D02*
X13095Y18010D01*
X13010Y18095D02*
X13095Y18010D01*
X13010Y17650D02*
Y17925D01*
X12930Y18390D02*
X13530D01*
X18344Y18126D02*
Y18440D01*
X18500Y12980D02*
X18870Y13350D01*
X15580Y17170D02*
X15760Y16990D01*
Y16120D02*
Y16990D01*
X20724Y13757D02*
Y13856D01*
X14830Y18490D02*
Y18932D01*
X19830Y12550D02*
X19970Y12690D01*
Y12830D01*
X13120Y16460D02*
X13150Y16430D01*
X13090Y16490D02*
X13120Y16460D01*
X11360Y14450D02*
Y14620D01*
Y14970D01*
X19830Y12110D02*
Y12120D01*
Y12550D01*
X15580Y17170D02*
Y17490D01*
X13290Y15580D02*
X13800D01*
X13890D01*
X14140Y15930D02*
Y16430D01*
Y16720D01*
Y17030D01*
Y17610D01*
X14410Y12640D02*
X14430Y12660D01*
X19318Y10796D02*
X19324Y10801D01*
X14880Y15240D02*
X15180D01*
X15480D01*
X17570Y13950D02*
X17880Y13640D01*
X17570Y13950D02*
Y14320D01*
X17680Y14430D01*
X18150D01*
X18240Y14520D01*
X18450D01*
X20020Y14330D02*
X20120Y14430D01*
X16720Y13320D02*
X18450D01*
X18770Y13640D01*
X21130Y17790D02*
X21410Y17510D01*
Y16820D02*
Y17510D01*
X21180Y16590D02*
X21410Y16820D01*
X18880Y17930D02*
X19498D01*
X18871Y17940D02*
X18880Y17930D01*
X18344Y18126D02*
X18530Y17940D01*
X18871D01*
X17920Y14730D02*
X17975D01*
X18180Y14935D01*
X18445D01*
X18600Y15090D01*
X17880Y14140D02*
X18160Y13860D01*
X18620D02*
X18850Y14090D01*
X19730D01*
X19830Y14190D01*
X19702Y17190D02*
X20480D01*
X14220Y18010D02*
X14220Y18010D01*
X13095Y18010D02*
X14220D01*
X15580Y17490D02*
Y17780D01*
X15770Y17970D01*
X15970D01*
X14830Y18932D02*
X14935Y19036D01*
X14830Y18490D02*
X15580D01*
X15390Y19220D02*
X15500D01*
X15970Y18750D01*
Y17970D02*
Y18750D01*
X14130Y18390D02*
Y18660D01*
X18160Y13860D02*
X18454D01*
X18620D01*
X18770Y13640D02*
X18966D01*
X19045D01*
X12330Y18390D02*
Y18660D01*
X12240Y18750D02*
X12330Y18660D01*
X12190Y18750D02*
X12240D01*
X20480Y17520D02*
Y17790D01*
X14130Y18660D02*
X14220Y18750D01*
Y18760D01*
X26660Y10246D02*
X27404D01*
X26154D02*
X26660D01*
X31860Y13390D02*
X31960D01*
X31600Y13650D02*
X31860Y13390D01*
X31600Y13650D02*
Y13730D01*
X32460Y13540D02*
Y14623D01*
X32310Y13390D02*
X32460Y13540D01*
X31960Y13390D02*
X32310D01*
X31500Y14120D02*
Y14330D01*
X31110Y13730D02*
X31500Y14120D01*
X31000Y13730D02*
X31110D01*
X26110Y10290D02*
X26154Y10246D01*
X26110Y10890D02*
X26380Y11160D01*
X26760D01*
X30850Y18202D02*
X31050Y18002D01*
X31860Y16290D02*
X32060Y16490D01*
Y16590D01*
X31050Y17058D02*
X31182Y17190D01*
X30978Y17930D02*
X31050Y18002D01*
X32200Y13860D02*
Y14180D01*
X31746Y14284D02*
X32096D01*
X31600Y14430D02*
X31746Y14284D01*
X32096D02*
X32200Y14180D01*
X28800Y18440D02*
Y19180D01*
X28750Y19230D02*
X28800Y19180D01*
X25510Y12640D02*
X25890D01*
X29824Y15369D02*
Y16106D01*
X29800Y16130D02*
X29824Y16106D01*
X29568Y15369D02*
Y16448D01*
X29700Y16580D01*
X26960Y15840D02*
X27240Y16120D01*
X28160Y14520D02*
X28400Y14280D01*
X28160Y14520D02*
Y14540D01*
X30850Y18202D02*
Y18580D01*
X31050Y17058D02*
X31450Y16658D01*
Y16380D02*
Y16658D01*
X28010Y14090D02*
X28160Y13940D01*
X27560Y14090D02*
X28010D01*
X28033Y15369D02*
Y15997D01*
X29930Y14619D02*
X29934Y14623D01*
X29930Y14520D02*
Y14619D01*
X32200Y14627D02*
X32204Y14623D01*
X29480Y11820D02*
X29480Y12730D01*
X29980D02*
Y12980D01*
X28760Y13640D02*
Y14140D01*
X28300Y13640D02*
X28760D01*
X28160Y13780D02*
X28300Y13640D01*
X28160Y13780D02*
Y13940D01*
X25390Y14360D02*
X25400Y14350D01*
X26670D01*
X26960Y14640D01*
X27010Y14090D02*
X27560Y14640D01*
X26960Y14090D02*
X27010D01*
X23860Y15830D02*
X24570D01*
X23790Y15900D02*
X23860Y15830D01*
X26320Y16480D02*
Y16860D01*
Y16480D02*
X26360Y16440D01*
X23190Y14970D02*
Y15300D01*
X24000Y16450D02*
Y16460D01*
X24410Y18390D02*
X24490Y18320D01*
Y17050D02*
X24570Y16970D01*
Y16490D02*
Y16970D01*
X24630Y16430D02*
X25020D01*
X24964Y16374D02*
X25020Y16430D01*
X24964Y15830D02*
Y16374D01*
X24570Y15780D02*
X24770Y15580D01*
X25370D02*
X25620Y15330D01*
X24570Y15780D02*
Y15830D01*
X24770Y14420D02*
X25010Y14660D01*
X24770Y14280D02*
Y14420D01*
X31054Y11546D02*
Y12120D01*
X25510Y13240D02*
X25510Y13240D01*
X24810Y12130D02*
Y12640D01*
X25440Y12130D02*
X25500Y12190D01*
X24810Y12130D02*
X25440D01*
X26910Y11310D02*
Y11499D01*
X26760Y11160D02*
X26910Y11310D01*
X23190Y15300D02*
X23473Y15583D01*
Y16081D01*
X23591Y16199D01*
X23739D01*
X24000Y16460D01*
X24490Y18095D02*
Y18320D01*
Y17925D02*
X24575Y18010D01*
X24490Y18095D02*
X24575Y18010D01*
X24490Y17650D02*
Y17925D01*
X24410Y18390D02*
X25010D01*
X29824Y18126D02*
Y18440D01*
X29980Y12980D02*
X30350Y13350D01*
X27060Y17170D02*
X27240Y16990D01*
Y16120D02*
Y16990D01*
X32204Y13757D02*
Y13856D01*
X26310Y18490D02*
Y18932D01*
X31310Y12550D02*
X31450Y12690D01*
Y12830D01*
X24600Y16460D02*
X24630Y16430D01*
X24570Y16490D02*
X24600Y16460D01*
X22840Y14450D02*
Y14620D01*
Y14970D01*
X31310Y12110D02*
Y12120D01*
Y12550D01*
X27060Y17170D02*
Y17490D01*
X24770Y15580D02*
X25280D01*
X25370D01*
X25620Y15930D02*
Y16430D01*
Y16720D01*
Y17030D01*
Y17610D01*
X25890Y12640D02*
X25910Y12660D01*
X30798Y10796D02*
X30804Y10801D01*
X26360Y15240D02*
X26660D01*
X26960D01*
X29050Y13950D02*
X29360Y13640D01*
X29050Y13950D02*
Y14320D01*
X29160Y14430D01*
X29630D01*
X29720Y14520D01*
X29930D01*
X31500Y14330D02*
X31600Y14430D01*
X28200Y13320D02*
X29930D01*
X30250Y13640D01*
X32610Y17790D02*
X32890Y17510D01*
Y16820D02*
Y17510D01*
X32660Y16590D02*
X32890Y16820D01*
X30360Y17930D02*
X30978D01*
X30351Y17940D02*
X30360Y17930D01*
X29824Y18126D02*
X30010Y17940D01*
X30351D01*
X29400Y14730D02*
X29455D01*
X29660Y14935D01*
X29925D01*
X30080Y15090D01*
X29360Y14140D02*
X29640Y13860D01*
X30100D02*
X30330Y14090D01*
X31210D01*
X31310Y14190D01*
X31182Y17190D02*
X31960D01*
X25700Y18010D02*
X25700Y18010D01*
X24575Y18010D02*
X25700D01*
X27060Y17490D02*
Y17780D01*
X27250Y17970D01*
X27450D01*
X26310Y18932D02*
X26415Y19036D01*
X26310Y18490D02*
X27060D01*
X26870Y19220D02*
X26980D01*
X27450Y18750D01*
Y17970D02*
Y18750D01*
X25610Y18390D02*
Y18660D01*
X29640Y13860D02*
X29934D01*
X30100D01*
X30250Y13640D02*
X30446D01*
X30525D01*
X23810Y18390D02*
Y18660D01*
X23720Y18750D02*
X23810Y18660D01*
X23670Y18750D02*
X23720D01*
X31960Y17520D02*
Y17790D01*
X25610Y18660D02*
X25700Y18750D01*
Y18760D01*
X3700Y20836D02*
X4444D01*
X3194D02*
X3700D01*
X8900Y23980D02*
X9000D01*
X8640Y24240D02*
X8900Y23980D01*
X8640Y24240D02*
Y24320D01*
X9500Y24130D02*
Y25213D01*
X9350Y23980D02*
X9500Y24130D01*
X9000Y23980D02*
X9350D01*
X8540Y24710D02*
Y24920D01*
X8150Y24320D02*
X8540Y24710D01*
X8040Y24320D02*
X8150D01*
X3150Y20880D02*
X3194Y20836D01*
X3150Y21480D02*
X3420Y21750D01*
X3800D01*
X7890Y28792D02*
X8090Y28592D01*
X8900Y26880D02*
X9100Y27080D01*
Y27180D01*
X8090Y27648D02*
X8222Y27780D01*
X8018Y28520D02*
X8090Y28592D01*
X9240Y24450D02*
Y24770D01*
X8786Y24874D02*
X9136D01*
X8640Y25020D02*
X8786Y24874D01*
X9136D02*
X9240Y24770D01*
X5840Y29030D02*
Y29770D01*
X5790Y29820D02*
X5840Y29770D01*
X2550Y23230D02*
X2930D01*
X6864Y25959D02*
Y26696D01*
X6840Y26720D02*
X6864Y26696D01*
X6608Y25959D02*
Y27038D01*
X6740Y27170D01*
X4000Y26430D02*
X4280Y26710D01*
X5200Y25110D02*
X5440Y24870D01*
X5200Y25110D02*
Y25130D01*
X7890Y28792D02*
Y29170D01*
X8090Y27648D02*
X8490Y27248D01*
Y26970D02*
Y27248D01*
X5050Y24680D02*
X5200Y24530D01*
X4600Y24680D02*
X5050D01*
X5073Y25959D02*
Y26587D01*
X6970Y25209D02*
X6974Y25213D01*
X6970Y25110D02*
Y25209D01*
X9240Y25217D02*
X9244Y25213D01*
X6520Y22410D02*
X6520Y23320D01*
X7020D02*
Y23570D01*
X5800Y24230D02*
Y24730D01*
X5340Y24230D02*
X5800D01*
X5200Y24370D02*
X5340Y24230D01*
X5200Y24370D02*
Y24530D01*
X2430Y24950D02*
X2440Y24940D01*
X3710D01*
X4000Y25230D01*
X4050Y24680D02*
X4600Y25230D01*
X4000Y24680D02*
X4050D01*
X900Y26420D02*
X1610D01*
X830Y26490D02*
X900Y26420D01*
X3360Y27070D02*
Y27450D01*
Y27070D02*
X3400Y27030D01*
X230Y25560D02*
Y25890D01*
X1040Y27040D02*
Y27050D01*
X1450Y28980D02*
X1530Y28910D01*
Y27640D02*
X1610Y27560D01*
Y27080D02*
Y27560D01*
X1670Y27020D02*
X2060D01*
X2004Y26964D02*
X2060Y27020D01*
X2004Y26420D02*
Y26964D01*
X1610Y26370D02*
X1810Y26170D01*
X2410D02*
X2660Y25920D01*
X1610Y26370D02*
Y26420D01*
X1810Y25010D02*
X2050Y25250D01*
X1810Y24870D02*
Y25010D01*
X8094Y22136D02*
Y22710D01*
X2550Y23830D02*
X2550Y23830D01*
X1850Y22720D02*
Y23230D01*
X2480Y22720D02*
X2540Y22780D01*
X1850Y22720D02*
X2480D01*
X3950Y21900D02*
Y22089D01*
X3800Y21750D02*
X3950Y21900D01*
X230Y25890D02*
X513Y26173D01*
Y26671D01*
X631Y26789D01*
X779D01*
X1040Y27050D01*
X1530Y28685D02*
Y28910D01*
Y28515D02*
X1615Y28600D01*
X1530Y28685D02*
X1615Y28600D01*
X1530Y28240D02*
Y28515D01*
X1450Y28980D02*
X2050D01*
X6864Y28716D02*
Y29030D01*
X7020Y23570D02*
X7390Y23940D01*
X4100Y27760D02*
X4280Y27580D01*
Y26710D02*
Y27580D01*
X9244Y24347D02*
Y24446D01*
X3350Y29080D02*
Y29522D01*
X8350Y23140D02*
X8490Y23280D01*
Y23420D01*
X1640Y27050D02*
X1670Y27020D01*
X1610Y27080D02*
X1640Y27050D01*
X-120Y25040D02*
Y25210D01*
Y25560D01*
X8350Y22700D02*
Y22710D01*
Y23140D01*
X4100Y27760D02*
Y28080D01*
X1810Y26170D02*
X2320D01*
X2410D01*
X2660Y26520D02*
Y27020D01*
Y27310D01*
Y27620D01*
Y28200D01*
X2930Y23230D02*
X2950Y23250D01*
X7838Y21386D02*
X7844Y21391D01*
X3400Y25830D02*
X3700D01*
X4000D01*
X6090Y24540D02*
X6400Y24230D01*
X6090Y24540D02*
Y24910D01*
X6200Y25020D01*
X6670D01*
X6760Y25110D01*
X6970D01*
X8540Y24920D02*
X8640Y25020D01*
X5240Y23910D02*
X6970D01*
X7290Y24230D01*
X9650Y28380D02*
X9930Y28100D01*
Y27410D02*
Y28100D01*
X9700Y27180D02*
X9930Y27410D01*
X7400Y28520D02*
X8018D01*
X7391Y28530D02*
X7400Y28520D01*
X6864Y28716D02*
X7050Y28530D01*
X7391D01*
X6440Y25320D02*
X6495D01*
X6700Y25525D01*
X6965D01*
X7120Y25680D01*
X6400Y24730D02*
X6680Y24450D01*
X7140D02*
X7370Y24680D01*
X8250D01*
X8350Y24780D01*
X8222Y27780D02*
X9000D01*
X2740Y28600D02*
X2740Y28600D01*
X1615Y28600D02*
X2740D01*
X4100Y28080D02*
Y28370D01*
X4290Y28560D01*
X4490D01*
X3350Y29522D02*
X3455Y29626D01*
X3350Y29080D02*
X4100D01*
X3910Y29810D02*
X4020D01*
X4490Y29340D01*
Y28560D02*
Y29340D01*
X2650Y28980D02*
Y29250D01*
X6680Y24450D02*
X6974D01*
X7140D01*
X7290Y24230D02*
X7486D01*
X7565D01*
X850Y28980D02*
Y29250D01*
X760Y29340D02*
X850Y29250D01*
X710Y29340D02*
X760D01*
X9000Y28110D02*
Y28380D01*
X2650Y29250D02*
X2740Y29340D01*
Y29350D01*
X15180Y20836D02*
X15924D01*
X14674D02*
X15180D01*
X20380Y23980D02*
X20480D01*
X20120Y24240D02*
X20380Y23980D01*
X20120Y24240D02*
Y24320D01*
X20980Y24130D02*
Y25213D01*
X20830Y23980D02*
X20980Y24130D01*
X20480Y23980D02*
X20830D01*
X20020Y24710D02*
Y24920D01*
X19630Y24320D02*
X20020Y24710D01*
X19520Y24320D02*
X19630D01*
X14630Y20880D02*
X14674Y20836D01*
X14630Y21480D02*
X14900Y21750D01*
X15280D01*
X19370Y28792D02*
X19570Y28592D01*
X20380Y26880D02*
X20580Y27080D01*
Y27180D01*
X19570Y27648D02*
X19702Y27780D01*
X19498Y28520D02*
X19570Y28592D01*
X20720Y24450D02*
Y24770D01*
X20266Y24874D02*
X20616D01*
X20120Y25020D02*
X20266Y24874D01*
X20616D02*
X20720Y24770D01*
X17320Y29030D02*
Y29770D01*
X17270Y29820D02*
X17320Y29770D01*
X14030Y23230D02*
X14410D01*
X18344Y25959D02*
Y26696D01*
X18320Y26720D02*
X18344Y26696D01*
X18088Y25959D02*
Y27038D01*
X18220Y27170D01*
X15480Y26430D02*
X15760Y26710D01*
X16680Y25110D02*
X16920Y24870D01*
X16680Y25110D02*
Y25130D01*
X19370Y28792D02*
Y29170D01*
X19570Y27648D02*
X19970Y27248D01*
Y26970D02*
Y27248D01*
X16530Y24680D02*
X16680Y24530D01*
X16080Y24680D02*
X16530D01*
X16553Y25959D02*
Y26587D01*
X18450Y25209D02*
X18454Y25213D01*
X18450Y25110D02*
Y25209D01*
X20720Y25217D02*
X20724Y25213D01*
X18000Y22410D02*
X18000Y23320D01*
X18500D02*
Y23570D01*
X17280Y24230D02*
Y24730D01*
X16820Y24230D02*
X17280D01*
X16680Y24370D02*
X16820Y24230D01*
X16680Y24370D02*
Y24530D01*
X13910Y24950D02*
X13920Y24940D01*
X15190D01*
X15480Y25230D01*
X15530Y24680D02*
X16080Y25230D01*
X15480Y24680D02*
X15530D01*
X12380Y26420D02*
X13090D01*
X12310Y26490D02*
X12380Y26420D01*
X14840Y27070D02*
Y27450D01*
Y27070D02*
X14880Y27030D01*
X11710Y25560D02*
Y25890D01*
X12520Y27040D02*
Y27050D01*
X12930Y28980D02*
X13010Y28910D01*
Y27640D02*
X13090Y27560D01*
Y27080D02*
Y27560D01*
X13150Y27020D02*
X13540D01*
X13484Y26964D02*
X13540Y27020D01*
X13484Y26420D02*
Y26964D01*
X13090Y26370D02*
X13290Y26170D01*
X13890D02*
X14140Y25920D01*
X13090Y26370D02*
Y26420D01*
X13290Y25010D02*
X13530Y25250D01*
X13290Y24870D02*
Y25010D01*
X19574Y22136D02*
Y22710D01*
X14030Y23830D02*
X14030Y23830D01*
X13330Y22720D02*
Y23230D01*
X13960Y22720D02*
X14020Y22780D01*
X13330Y22720D02*
X13960D01*
X15430Y21900D02*
Y22089D01*
X15280Y21750D02*
X15430Y21900D01*
X11710Y25890D02*
X11993Y26173D01*
Y26671D01*
X12111Y26789D01*
X12259D01*
X12520Y27050D01*
X13010Y28685D02*
Y28910D01*
Y28515D02*
X13095Y28600D01*
X13010Y28685D02*
X13095Y28600D01*
X13010Y28240D02*
Y28515D01*
X12930Y28980D02*
X13530D01*
X18344Y28716D02*
Y29030D01*
X18500Y23570D02*
X18870Y23940D01*
X15580Y27760D02*
X15760Y27580D01*
Y26710D02*
Y27580D01*
X20724Y24347D02*
Y24446D01*
X14830Y29080D02*
Y29522D01*
X19830Y23140D02*
X19970Y23280D01*
Y23420D01*
X13120Y27050D02*
X13150Y27020D01*
X13090Y27080D02*
X13120Y27050D01*
X11360Y25040D02*
Y25210D01*
Y25560D01*
X19830Y22700D02*
Y22710D01*
Y23140D01*
X15580Y27760D02*
Y28080D01*
X13290Y26170D02*
X13800D01*
X13890D01*
X14140Y26520D02*
Y27020D01*
Y27310D01*
Y27620D01*
Y28200D01*
X14410Y23230D02*
X14430Y23250D01*
X19318Y21386D02*
X19324Y21391D01*
X14880Y25830D02*
X15180D01*
X15480D01*
X17570Y24540D02*
X17880Y24230D01*
X17570Y24540D02*
Y24910D01*
X17680Y25020D01*
X18150D01*
X18240Y25110D01*
X18450D01*
X20020Y24920D02*
X20120Y25020D01*
X16720Y23910D02*
X18450D01*
X18770Y24230D01*
X21130Y28380D02*
X21410Y28100D01*
Y27410D02*
Y28100D01*
X21180Y27180D02*
X21410Y27410D01*
X18880Y28520D02*
X19498D01*
X18871Y28530D02*
X18880Y28520D01*
X18344Y28716D02*
X18530Y28530D01*
X18871D01*
X17920Y25320D02*
X17975D01*
X18180Y25525D01*
X18445D01*
X18600Y25680D01*
X17880Y24730D02*
X18160Y24450D01*
X18620D02*
X18850Y24680D01*
X19730D01*
X19830Y24780D01*
X19702Y27780D02*
X20480D01*
X14220Y28600D02*
X14220Y28600D01*
X13095Y28600D02*
X14220D01*
X15580Y28080D02*
Y28370D01*
X15770Y28560D01*
X15970D01*
X14830Y29522D02*
X14935Y29626D01*
X14830Y29080D02*
X15580D01*
X15390Y29810D02*
X15500D01*
X15970Y29340D01*
Y28560D02*
Y29340D01*
X14130Y28980D02*
Y29250D01*
X18160Y24450D02*
X18454D01*
X18620D01*
X18770Y24230D02*
X18966D01*
X19045D01*
X12330Y28980D02*
Y29250D01*
X12240Y29340D02*
X12330Y29250D01*
X12190Y29340D02*
X12240D01*
X20480Y28110D02*
Y28380D01*
X14130Y29250D02*
X14220Y29340D01*
Y29350D01*
X26660Y20836D02*
X27404D01*
X26154D02*
X26660D01*
X31860Y23980D02*
X31960D01*
X31600Y24240D02*
X31860Y23980D01*
X31600Y24240D02*
Y24320D01*
X32460Y24130D02*
Y25213D01*
X32310Y23980D02*
X32460Y24130D01*
X31960Y23980D02*
X32310D01*
X31500Y24710D02*
Y24920D01*
X31110Y24320D02*
X31500Y24710D01*
X31000Y24320D02*
X31110D01*
X26110Y20880D02*
X26154Y20836D01*
X26110Y21480D02*
X26380Y21750D01*
X26760D01*
X30850Y28792D02*
X31050Y28592D01*
X31860Y26880D02*
X32060Y27080D01*
Y27180D01*
X31050Y27648D02*
X31182Y27780D01*
X30978Y28520D02*
X31050Y28592D01*
X32200Y24450D02*
Y24770D01*
X31746Y24874D02*
X32096D01*
X31600Y25020D02*
X31746Y24874D01*
X32096D02*
X32200Y24770D01*
X28800Y29030D02*
Y29770D01*
X28750Y29820D02*
X28800Y29770D01*
X25510Y23230D02*
X25890D01*
X29824Y25959D02*
Y26696D01*
X29800Y26720D02*
X29824Y26696D01*
X29568Y25959D02*
Y27038D01*
X29700Y27170D01*
X26960Y26430D02*
X27240Y26710D01*
X28160Y25110D02*
X28400Y24870D01*
X28160Y25110D02*
Y25130D01*
X30850Y28792D02*
Y29170D01*
X31050Y27648D02*
X31450Y27248D01*
Y26970D02*
Y27248D01*
X28010Y24680D02*
X28160Y24530D01*
X27560Y24680D02*
X28010D01*
X28033Y25959D02*
Y26587D01*
X29930Y25209D02*
X29934Y25213D01*
X29930Y25110D02*
Y25209D01*
X32200Y25217D02*
X32204Y25213D01*
X29480Y22410D02*
X29480Y23320D01*
X29980D02*
Y23570D01*
X28760Y24230D02*
Y24730D01*
X28300Y24230D02*
X28760D01*
X28160Y24370D02*
X28300Y24230D01*
X28160Y24370D02*
Y24530D01*
X25390Y24950D02*
X25400Y24940D01*
X26670D01*
X26960Y25230D01*
X27010Y24680D02*
X27560Y25230D01*
X26960Y24680D02*
X27010D01*
X23860Y26420D02*
X24570D01*
X23790Y26490D02*
X23860Y26420D01*
X26320Y27070D02*
Y27450D01*
Y27070D02*
X26360Y27030D01*
X23190Y25560D02*
Y25890D01*
X24000Y27040D02*
Y27050D01*
X24410Y28980D02*
X24490Y28910D01*
Y27640D02*
X24570Y27560D01*
Y27080D02*
Y27560D01*
X24630Y27020D02*
X25020D01*
X24964Y26964D02*
X25020Y27020D01*
X24964Y26420D02*
Y26964D01*
X24570Y26370D02*
X24770Y26170D01*
X25370D02*
X25620Y25920D01*
X24570Y26370D02*
Y26420D01*
X24770Y25010D02*
X25010Y25250D01*
X24770Y24870D02*
Y25010D01*
X31054Y22136D02*
Y22710D01*
X25510Y23830D02*
X25510Y23830D01*
X24810Y22720D02*
Y23230D01*
X25440Y22720D02*
X25500Y22780D01*
X24810Y22720D02*
X25440D01*
X26910Y21900D02*
Y22089D01*
X26760Y21750D02*
X26910Y21900D01*
X23190Y25890D02*
X23473Y26173D01*
Y26671D01*
X23591Y26789D01*
X23739D01*
X24000Y27050D01*
X24490Y28685D02*
Y28910D01*
Y28515D02*
X24575Y28600D01*
X24490Y28685D02*
X24575Y28600D01*
X24490Y28240D02*
Y28515D01*
X24410Y28980D02*
X25010D01*
X29824Y28716D02*
Y29030D01*
X29980Y23570D02*
X30350Y23940D01*
X27060Y27760D02*
X27240Y27580D01*
Y26710D02*
Y27580D01*
X32204Y24347D02*
Y24446D01*
X26310Y29080D02*
Y29522D01*
X31310Y23140D02*
X31450Y23280D01*
Y23420D01*
X24600Y27050D02*
X24630Y27020D01*
X24570Y27080D02*
X24600Y27050D01*
X22840Y25040D02*
Y25210D01*
Y25560D01*
X31310Y22700D02*
Y22710D01*
Y23140D01*
X27060Y27760D02*
Y28080D01*
X24770Y26170D02*
X25280D01*
X25370D01*
X25620Y26520D02*
Y27020D01*
Y27310D01*
Y27620D01*
Y28200D01*
X25890Y23230D02*
X25910Y23250D01*
X30798Y21386D02*
X30804Y21391D01*
X26360Y25830D02*
X26660D01*
X26960D01*
X29050Y24540D02*
X29360Y24230D01*
X29050Y24540D02*
Y24910D01*
X29160Y25020D01*
X29630D01*
X29720Y25110D01*
X29930D01*
X31500Y24920D02*
X31600Y25020D01*
X28200Y23910D02*
X29930D01*
X30250Y24230D01*
X32610Y28380D02*
X32890Y28100D01*
Y27410D02*
Y28100D01*
X32660Y27180D02*
X32890Y27410D01*
X30360Y28520D02*
X30978D01*
X30351Y28530D02*
X30360Y28520D01*
X29824Y28716D02*
X30010Y28530D01*
X30351D01*
X29400Y25320D02*
X29455D01*
X29660Y25525D01*
X29925D01*
X30080Y25680D01*
X29360Y24730D02*
X29640Y24450D01*
X30100D02*
X30330Y24680D01*
X31210D01*
X31310Y24780D01*
X31182Y27780D02*
X31960D01*
X25700Y28600D02*
X25700Y28600D01*
X24575Y28600D02*
X25700D01*
X27060Y28080D02*
Y28370D01*
X27250Y28560D01*
X27450D01*
X26310Y29522D02*
X26415Y29626D01*
X26310Y29080D02*
X27060D01*
X26870Y29810D02*
X26980D01*
X27450Y29340D01*
Y28560D02*
Y29340D01*
X25610Y28980D02*
Y29250D01*
X29640Y24450D02*
X29934D01*
X30100D01*
X30250Y24230D02*
X30446D01*
X30525D01*
X23810Y28980D02*
Y29250D01*
X23720Y29340D02*
X23810Y29250D01*
X23670Y29340D02*
X23720D01*
X31960Y28110D02*
Y28380D01*
X25610Y29250D02*
X25700Y29340D01*
Y29350D01*
X14409Y-20782D02*
G03*
X13909Y-20282I-500J0D01*
G01*
X13921Y-22282D02*
G03*
X14409Y-21785I8J480D01*
G01*
X15409Y-20282D02*
G03*
X14909Y-20782I0J-500D01*
G01*
Y-21782D02*
G03*
X15400Y-22282I500J0D01*
G01*
X32659Y-20782D02*
G03*
X32159Y-20282I-500J0D01*
G01*
X32171Y-22282D02*
G03*
X32659Y-21785I8J480D01*
G01*
X33159Y-21792D02*
G03*
X33658Y-22282I490J0D01*
G01*
X33659Y-20282D02*
G03*
X33159Y-20782I0J-500D01*
G01*
X5159Y-13272D02*
G03*
X4669Y-12782I-490J0D01*
G01*
X4679Y-16032D02*
G03*
X5159Y-15552I0J480D01*
G01*
Y-17022D02*
G03*
X4652Y-16532I-490J0D01*
G01*
X5659Y-16542D02*
G03*
X6149Y-17032I490J0D01*
G01*
X5659Y-19292D02*
G03*
X6149Y-19782I490J0D01*
G01*
X4669D02*
G03*
X5159Y-19292I0J490D01*
G01*
X22659Y-18022D02*
G03*
X22169Y-17532I-490J0D01*
G01*
Y-19782D02*
G03*
X22659Y-19283I0J490D01*
G01*
X23159Y-19272D02*
G03*
X23660Y-19782I510J0D01*
G01*
X23639Y-17532D02*
G03*
X23160Y-18037I0J-480D01*
G01*
X6159Y-17532D02*
G03*
X5659Y-18032I0J-500D01*
G01*
X6159Y-12782D02*
G03*
X5659Y-13282I0J-500D01*
G01*
X-3341Y-19282D02*
G03*
X-2850Y-19782I500J0D01*
G01*
X-2841Y-16532D02*
G03*
X-3341Y-17032I0J-500D01*
G01*
Y-15532D02*
G03*
X-2841Y-16032I500J0D01*
G01*
Y-12782D02*
G03*
X-3341Y-13282I0J-500D01*
G01*
Y-11782D02*
G03*
X-2841Y-12282I500J0D01*
G01*
Y-10282D02*
G03*
X-3341Y-10782I0J-500D01*
G01*
X27159D02*
G03*
X26659Y-10282I-500J0D01*
G01*
X28159D02*
G03*
X27659Y-10782I0J-500D01*
G01*
X26659Y-12282D02*
G03*
X27159Y-11782I0J500D01*
G01*
Y-13282D02*
G03*
X26659Y-12782I-500J0D01*
G01*
X-2841Y-20282D02*
G03*
X-3341Y-20782I0J-500D01*
G01*
X26668Y-17032D02*
G03*
X27159Y-16532I-9J500D01*
G01*
X-3341Y-21782D02*
G03*
X-2850Y-22282I500J0D01*
G01*
X27159Y-18022D02*
G03*
X26669Y-17532I-490J0D01*
G01*
X27659Y-19292D02*
G03*
X28158Y-19782I490J0D01*
G01*
X26659Y-19782D02*
G03*
X27159Y-19282I0J500D01*
G01*
X39159Y-22282D02*
G03*
X39659Y-21782I0J500D01*
G01*
X39659Y-20773D02*
G03*
X39159Y-20282I-500J-9D01*
G01*
Y-19782D02*
G03*
X39659Y-19282I0J500D01*
G01*
Y-10772D02*
G03*
X39152Y-10282I-490J0D01*
G01*
X40159Y-10782D02*
G03*
X39159Y-9782I-1000J0D01*
G01*
Y-22782D02*
G03*
X40159Y-21782I0J1000D01*
G01*
X-3841Y-21772D02*
G03*
X-2848Y-22782I1010J0D01*
G01*
X-2841Y-9782D02*
G03*
X-3841Y-10782I0J-1000D01*
G01*
X27659Y-16532D02*
G03*
X28159Y-17032I500J0D01*
G01*
X39159D02*
G03*
X39659Y-16532I0J500D01*
G01*
X28159Y-17532D02*
G03*
X27659Y-18032I0J-500D01*
G01*
X39659Y-18022D02*
G03*
X39169Y-17532I-490J0D01*
G01*
X15409Y-22282D02*
X32159D01*
X-2841D02*
X13909D01*
X-2841Y-20282D02*
X13909D01*
X15409D02*
X32159D01*
X33659Y-22282D02*
X39159D01*
X33659Y-20282D02*
X39159D01*
X-2841Y-10282D02*
X26659D01*
X-2841Y-22782D02*
X39159D01*
X-2841Y-9782D02*
X39159D01*
X-2841Y-19782D02*
X4659D01*
X-2841Y-16532D02*
X4659D01*
X-2841Y-16032D02*
X4659D01*
X-2841Y-12782D02*
X4659D01*
X-2841Y-12282D02*
X26659D01*
X6159Y-12782D02*
X26659D01*
X6159Y-17532D02*
X22159D01*
X6159Y-19782D02*
X22159D01*
X23659D02*
X26659D01*
X23659Y-17532D02*
X26659D01*
X28159Y-19782D02*
X39159D01*
X28159Y-10282D02*
X39159D01*
X6159Y-17032D02*
X26659D01*
X28159D02*
X39159D01*
X28159Y-17532D02*
X39159D01*
X14409Y-21782D02*
Y-20782D01*
X14909Y-21782D02*
Y-20782D01*
X32659Y-21782D02*
Y-20782D01*
X33159Y-21782D02*
Y-20782D01*
X40159Y-21782D02*
Y-10782D01*
X-3341Y-19282D02*
Y-17032D01*
X5159Y-19282D02*
Y-17032D01*
X-3341Y-15532D02*
Y-13282D01*
X5159Y-15532D02*
Y-13282D01*
X-3341Y-11782D02*
Y-10782D01*
X27159Y-11782D02*
Y-10782D01*
Y-16532D02*
Y-13282D01*
X5659Y-16532D02*
Y-13282D01*
X22659Y-19282D02*
Y-18032D01*
X5659Y-19282D02*
Y-18032D01*
X23159Y-19282D02*
Y-18032D01*
X27159Y-19282D02*
Y-18032D01*
X39659Y-21782D02*
Y-20782D01*
X-3341Y-21782D02*
Y-20782D01*
X-3841Y-21782D02*
Y-10782D01*
X27659Y-16532D02*
Y-10782D01*
X39659Y-16532D02*
Y-10782D01*
X27659Y-19282D02*
Y-18032D01*
X39659Y-19282D02*
Y-18022D01*
X29810Y-14420D02*
Y-15060D01*
Y-14420D02*
X30084D01*
X30176Y-14451D01*
X30206Y-14481D01*
X30237Y-14542D01*
Y-14603D01*
X30206Y-14664D01*
X30176Y-14694D01*
X30084Y-14725D01*
X29810D02*
X30084D01*
X30176Y-14755D01*
X30206Y-14786D01*
X30237Y-14847D01*
Y-14938D01*
X30206Y-14999D01*
X30176Y-15030D01*
X30084Y-15060D01*
X29810D01*
X30532Y-14633D02*
X30471Y-14664D01*
X30410Y-14725D01*
X30380Y-14816D01*
Y-14877D01*
X30410Y-14969D01*
X30471Y-15030D01*
X30532Y-15060D01*
X30624D01*
X30684Y-15030D01*
X30745Y-14969D01*
X30776Y-14877D01*
Y-14816D01*
X30745Y-14725D01*
X30684Y-14664D01*
X30624Y-14633D01*
X30532D01*
X31282Y-14725D02*
X31221Y-14664D01*
X31160Y-14633D01*
X31068D01*
X31007Y-14664D01*
X30947Y-14725D01*
X30916Y-14816D01*
Y-14877D01*
X30947Y-14969D01*
X31007Y-15030D01*
X31068Y-15060D01*
X31160D01*
X31221Y-15030D01*
X31282Y-14969D01*
X31784Y-14633D02*
Y-15060D01*
Y-14725D02*
X31723Y-14664D01*
X31663Y-14633D01*
X31571D01*
X31510Y-14664D01*
X31449Y-14725D01*
X31419Y-14816D01*
Y-14877D01*
X31449Y-14969D01*
X31510Y-15030D01*
X31571Y-15060D01*
X31663D01*
X31723Y-15030D01*
X31784Y-14969D01*
X32458Y-14420D02*
Y-15060D01*
Y-14420D02*
X32732D01*
X32823Y-14451D01*
X32854Y-14481D01*
X32884Y-14542D01*
Y-14603D01*
X32854Y-14664D01*
X32823Y-14694D01*
X32732Y-14725D01*
X32458D01*
X32671D02*
X32884Y-15060D01*
X33393Y-14633D02*
Y-15060D01*
Y-14725D02*
X33332Y-14664D01*
X33271Y-14633D01*
X33180D01*
X33119Y-14664D01*
X33058Y-14725D01*
X33028Y-14816D01*
Y-14877D01*
X33058Y-14969D01*
X33119Y-15030D01*
X33180Y-15060D01*
X33271D01*
X33332Y-15030D01*
X33393Y-14969D01*
X33655Y-14420D02*
Y-14938D01*
X33686Y-15030D01*
X33747Y-15060D01*
X33808D01*
X33564Y-14633D02*
X33777D01*
X34051D02*
X33990Y-14664D01*
X33930Y-14725D01*
X33899Y-14816D01*
Y-14877D01*
X33930Y-14969D01*
X33990Y-15030D01*
X34051Y-15060D01*
X34143D01*
X34204Y-15030D01*
X34265Y-14969D01*
X34295Y-14877D01*
Y-14816D01*
X34265Y-14725D01*
X34204Y-14664D01*
X34143Y-14633D01*
X34051D01*
X34435D02*
Y-15060D01*
Y-14755D02*
X34527Y-14664D01*
X34588Y-14633D01*
X34679D01*
X34740Y-14664D01*
X34770Y-14755D01*
Y-15060D01*
X35441Y-14420D02*
Y-15060D01*
Y-14420D02*
X35837D01*
X35441Y-14725D02*
X35685D01*
X35910Y-14420D02*
Y-15060D01*
X36276D01*
X36376Y-14999D02*
X36346Y-15030D01*
X36376Y-15060D01*
X36407Y-15030D01*
X36376Y-14999D01*
X29346Y-12663D02*
X29316Y-12755D01*
X29255Y-12816D01*
X29163Y-12846D01*
X29133D01*
X29041Y-12816D01*
X28980Y-12755D01*
X28950Y-12663D01*
Y-12633D01*
X28980Y-12542D01*
X29041Y-12481D01*
X29133Y-12450D01*
X29163D01*
X29255Y-12481D01*
X29316Y-12542D01*
X29346Y-12663D01*
Y-12816D01*
X29316Y-12968D01*
X29255Y-13060D01*
X29163Y-13090D01*
X29102D01*
X29011Y-13060D01*
X28980Y-12999D01*
X29703Y-12450D02*
X29611Y-12481D01*
X29550Y-12572D01*
X29520Y-12724D01*
Y-12816D01*
X29550Y-12968D01*
X29611Y-13060D01*
X29703Y-13090D01*
X29764D01*
X29855Y-13060D01*
X29916Y-12968D01*
X29946Y-12816D01*
Y-12724D01*
X29916Y-12572D01*
X29855Y-12481D01*
X29764Y-12450D01*
X29703D01*
X30120Y-12602D02*
Y-12572D01*
X30150Y-12511D01*
X30181Y-12481D01*
X30242Y-12450D01*
X30364D01*
X30425Y-12481D01*
X30455Y-12511D01*
X30486Y-12572D01*
Y-12633D01*
X30455Y-12694D01*
X30394Y-12785D01*
X30090Y-13090D01*
X30516D01*
X31619Y-12602D02*
X31589Y-12542D01*
X31528Y-12481D01*
X31467Y-12450D01*
X31345D01*
X31284Y-12481D01*
X31223Y-12542D01*
X31193Y-12602D01*
X31162Y-12694D01*
Y-12846D01*
X31193Y-12938D01*
X31223Y-12999D01*
X31284Y-13060D01*
X31345Y-13090D01*
X31467D01*
X31528Y-13060D01*
X31589Y-12999D01*
X31619Y-12938D01*
X31799Y-12450D02*
Y-13090D01*
X31994Y-12450D02*
X32024Y-12481D01*
X32055Y-12450D01*
X32024Y-12420D01*
X31994Y-12450D01*
X32024Y-12663D02*
Y-13090D01*
X32168Y-12663D02*
Y-13090D01*
Y-12785D02*
X32259Y-12694D01*
X32320Y-12663D01*
X32411D01*
X32472Y-12694D01*
X32503Y-12785D01*
Y-13090D01*
X32762Y-12450D02*
Y-12968D01*
X32792Y-13060D01*
X32853Y-13090D01*
X32914D01*
X32670Y-12663D02*
X32884D01*
X33508Y-12450D02*
Y-13090D01*
Y-12450D02*
X33752Y-13090D01*
X33996Y-12450D02*
X33752Y-13090D01*
X33996Y-12450D02*
Y-13090D01*
X34331Y-12663D02*
X34270Y-12694D01*
X34209Y-12755D01*
X34179Y-12846D01*
Y-12907D01*
X34209Y-12999D01*
X34270Y-13060D01*
X34331Y-13090D01*
X34422D01*
X34483Y-13060D01*
X34544Y-12999D01*
X34575Y-12907D01*
Y-12846D01*
X34544Y-12755D01*
X34483Y-12694D01*
X34422Y-12663D01*
X34331D01*
X34867D02*
X34806Y-12694D01*
X34745Y-12755D01*
X34715Y-12846D01*
Y-12907D01*
X34745Y-12999D01*
X34806Y-13060D01*
X34867Y-13090D01*
X34959D01*
X35020Y-13060D01*
X35080Y-12999D01*
X35111Y-12907D01*
Y-12846D01*
X35080Y-12755D01*
X35020Y-12694D01*
X34959Y-12663D01*
X34867D01*
X35251D02*
Y-13090D01*
Y-12846D02*
X35282Y-12755D01*
X35343Y-12694D01*
X35403Y-12663D01*
X35495D01*
X35553Y-12846D02*
X35918D01*
Y-12785D01*
X35888Y-12724D01*
X35857Y-12694D01*
X35797Y-12663D01*
X35705D01*
X35644Y-12694D01*
X35583Y-12755D01*
X35553Y-12846D01*
Y-12907D01*
X35583Y-12999D01*
X35644Y-13060D01*
X35705Y-13090D01*
X35797D01*
X35857Y-13060D01*
X35918Y-12999D01*
X36558Y-12450D02*
Y-13090D01*
Y-12450D02*
X36832D01*
X36924Y-12481D01*
X36954Y-12511D01*
X36985Y-12572D01*
Y-12633D01*
X36954Y-12694D01*
X36924Y-12724D01*
X36832Y-12755D01*
X36558D01*
X36772D02*
X36985Y-13090D01*
X37494Y-12450D02*
Y-13090D01*
Y-12755D02*
X37433Y-12694D01*
X37372Y-12663D01*
X37280D01*
X37219Y-12694D01*
X37159Y-12755D01*
X37128Y-12846D01*
Y-12907D01*
X37159Y-12999D01*
X37219Y-13060D01*
X37280Y-13090D01*
X37372D01*
X37433Y-13060D01*
X37494Y-12999D01*
X37695Y-13029D02*
X37664Y-13060D01*
X37695Y-13090D01*
X37725Y-13060D01*
X37695Y-13029D01*
X30466Y-15670D02*
X30161D01*
X30130Y-15944D01*
X30161Y-15914D01*
X30252Y-15883D01*
X30344D01*
X30435Y-15914D01*
X30496Y-15975D01*
X30527Y-16066D01*
Y-16127D01*
X30496Y-16219D01*
X30435Y-16280D01*
X30344Y-16310D01*
X30252D01*
X30161Y-16280D01*
X30130Y-16249D01*
X30100Y-16188D01*
X31035Y-15762D02*
X31005Y-15701D01*
X30914Y-15670D01*
X30853D01*
X30761Y-15701D01*
X30700Y-15792D01*
X30670Y-15944D01*
Y-16097D01*
X30700Y-16219D01*
X30761Y-16280D01*
X30853Y-16310D01*
X30883D01*
X30974Y-16280D01*
X31035Y-16219D01*
X31066Y-16127D01*
Y-16097D01*
X31035Y-16005D01*
X30974Y-15944D01*
X30883Y-15914D01*
X30853D01*
X30761Y-15944D01*
X30700Y-16005D01*
X30670Y-16097D01*
X31206Y-15792D02*
X31267Y-15762D01*
X31358Y-15670D01*
Y-16310D01*
X31675Y-16036D02*
X32224D01*
X32809Y-15883D02*
X32778Y-15975D01*
X32717Y-16036D01*
X32626Y-16066D01*
X32595D01*
X32504Y-16036D01*
X32443Y-15975D01*
X32413Y-15883D01*
Y-15853D01*
X32443Y-15762D01*
X32504Y-15701D01*
X32595Y-15670D01*
X32626D01*
X32717Y-15701D01*
X32778Y-15762D01*
X32809Y-15883D01*
Y-16036D01*
X32778Y-16188D01*
X32717Y-16280D01*
X32626Y-16310D01*
X32565D01*
X32474Y-16280D01*
X32443Y-16219D01*
X33379Y-15883D02*
X33348Y-15975D01*
X33287Y-16036D01*
X33196Y-16066D01*
X33165D01*
X33074Y-16036D01*
X33013Y-15975D01*
X32982Y-15883D01*
Y-15853D01*
X33013Y-15762D01*
X33074Y-15701D01*
X33165Y-15670D01*
X33196D01*
X33287Y-15701D01*
X33348Y-15762D01*
X33379Y-15883D01*
Y-16036D01*
X33348Y-16188D01*
X33287Y-16280D01*
X33196Y-16310D01*
X33135D01*
X33043Y-16280D01*
X33013Y-16219D01*
X33948Y-15883D02*
X33918Y-15975D01*
X33857Y-16036D01*
X33765Y-16066D01*
X33735D01*
X33644Y-16036D01*
X33583Y-15975D01*
X33552Y-15883D01*
Y-15853D01*
X33583Y-15762D01*
X33644Y-15701D01*
X33735Y-15670D01*
X33765D01*
X33857Y-15701D01*
X33918Y-15762D01*
X33948Y-15883D01*
Y-16036D01*
X33918Y-16188D01*
X33857Y-16280D01*
X33765Y-16310D01*
X33705D01*
X33613Y-16280D01*
X33583Y-16219D01*
X34122Y-16036D02*
X34670D01*
X35255Y-15883D02*
X35225Y-15975D01*
X35164Y-16036D01*
X35073Y-16066D01*
X35042D01*
X34951Y-16036D01*
X34890Y-15975D01*
X34859Y-15883D01*
Y-15853D01*
X34890Y-15762D01*
X34951Y-15701D01*
X35042Y-15670D01*
X35073D01*
X35164Y-15701D01*
X35225Y-15762D01*
X35255Y-15883D01*
Y-16036D01*
X35225Y-16188D01*
X35164Y-16280D01*
X35073Y-16310D01*
X35012D01*
X34920Y-16280D01*
X34890Y-16219D01*
X35734Y-15670D02*
X35429Y-16097D01*
X35886D01*
X35734Y-15670D02*
Y-16310D01*
X36029Y-15822D02*
Y-15792D01*
X36060Y-15731D01*
X36090Y-15701D01*
X36151Y-15670D01*
X36273D01*
X36334Y-15701D01*
X36365Y-15731D01*
X36395Y-15792D01*
Y-15853D01*
X36365Y-15914D01*
X36304Y-16005D01*
X35999Y-16310D01*
X36425D01*
X36599Y-15822D02*
Y-15792D01*
X36630Y-15731D01*
X36660Y-15701D01*
X36721Y-15670D01*
X36843D01*
X36904Y-15701D01*
X36934Y-15731D01*
X36965Y-15792D01*
Y-15853D01*
X36934Y-15914D01*
X36873Y-16005D01*
X36569Y-16310D01*
X36995D01*
X31487Y-13572D02*
X31426Y-13511D01*
X31334Y-13480D01*
X31212D01*
X31121Y-13511D01*
X31060Y-13572D01*
Y-13632D01*
X31090Y-13693D01*
X31121Y-13724D01*
X31182Y-13754D01*
X31365Y-13815D01*
X31426Y-13846D01*
X31456Y-13876D01*
X31487Y-13937D01*
Y-14029D01*
X31426Y-14090D01*
X31334Y-14120D01*
X31212D01*
X31121Y-14090D01*
X31060Y-14029D01*
X31630Y-13693D02*
Y-13998D01*
X31660Y-14090D01*
X31721Y-14120D01*
X31813D01*
X31874Y-14090D01*
X31965Y-13998D01*
Y-13693D02*
Y-14120D01*
X32193Y-13480D02*
X32224Y-13511D01*
X32254Y-13480D01*
X32224Y-13450D01*
X32193Y-13480D01*
X32224Y-13693D02*
Y-14120D01*
X32459Y-13480D02*
Y-13998D01*
X32489Y-14090D01*
X32550Y-14120D01*
X32611D01*
X32367Y-13693D02*
X32580D01*
X32702Y-13876D02*
X33068D01*
Y-13815D01*
X33037Y-13754D01*
X33007Y-13724D01*
X32946Y-13693D01*
X32855D01*
X32794Y-13724D01*
X32733Y-13785D01*
X32702Y-13876D01*
Y-13937D01*
X32733Y-14029D01*
X32794Y-14090D01*
X32855Y-14120D01*
X32946D01*
X33007Y-14090D01*
X33068Y-14029D01*
X33708Y-13602D02*
X33769Y-13572D01*
X33860Y-13480D01*
Y-14120D01*
X34177Y-13602D02*
X34238Y-13572D01*
X34329Y-13480D01*
Y-14120D01*
X34799Y-13480D02*
X34707Y-13511D01*
X34677Y-13572D01*
Y-13632D01*
X34707Y-13693D01*
X34768Y-13724D01*
X34890Y-13754D01*
X34981Y-13785D01*
X35042Y-13846D01*
X35073Y-13907D01*
Y-13998D01*
X35042Y-14059D01*
X35012Y-14090D01*
X34920Y-14120D01*
X34799D01*
X34707Y-14090D01*
X34677Y-14059D01*
X34646Y-13998D01*
Y-13907D01*
X34677Y-13846D01*
X34738Y-13785D01*
X34829Y-13754D01*
X34951Y-13724D01*
X35012Y-13693D01*
X35042Y-13632D01*
Y-13572D01*
X35012Y-13511D01*
X34920Y-13480D01*
X34799D01*
D12*
X600Y300D02*
G03*
X88Y88I0J-724D01*
G01*
X4900Y1893D02*
Y2400D01*
Y820D02*
Y1893D01*
X3950Y3070D02*
X4440D01*
X3450D02*
X3950D01*
X4440D02*
X4900D01*
X2950D02*
X3450D01*
X4450Y820D02*
X4900D01*
X4671Y1893D02*
X4752D01*
X3950D02*
X4671D01*
X2950D02*
Y2070D01*
Y820D02*
Y1893D01*
Y820D02*
X3450D01*
X1847Y-212D02*
X2462D01*
X1188D02*
X1847D01*
X600Y-300D02*
X1100D01*
X550D02*
X600D01*
X2462Y-212D02*
X2550Y-300D01*
X9650Y7200D02*
Y7730D01*
X7120Y4500D02*
Y4779D01*
X4000Y6260D02*
X4010Y6270D01*
X6900Y3600D02*
X7080D01*
X7230Y3750D01*
X1850Y2650D02*
X2200D01*
X2550D01*
X2200Y2360D02*
Y2650D01*
X2950Y2070D02*
Y3070D01*
X3131Y1893D02*
X3251D01*
X3950D01*
X4900Y2400D02*
Y3070D01*
X7230Y3750D02*
Y4033D01*
Y4390D01*
X7120Y4500D02*
X7230Y4390D01*
X0Y0D02*
X88Y88D01*
X9495Y7885D02*
X9650Y7730D01*
X9490Y7890D02*
X9495Y7885D01*
X1100Y-300D02*
X1125Y-275D01*
X1188Y-212D01*
X12080Y300D02*
G03*
X11568Y88I0J-724D01*
G01*
X16380Y1893D02*
Y2400D01*
Y820D02*
Y1893D01*
X15430Y3070D02*
X15920D01*
X14930D02*
X15430D01*
X15920D02*
X16380D01*
X14430D02*
X14930D01*
X15930Y820D02*
X16380D01*
X16151Y1893D02*
X16232D01*
X15430D02*
X16151D01*
X14430D02*
Y2070D01*
Y820D02*
Y1893D01*
Y820D02*
X14930D01*
X13327Y-212D02*
X13942D01*
X12668D02*
X13327D01*
X12080Y-300D02*
X12580D01*
X12030D02*
X12080D01*
X13942Y-212D02*
X14030Y-300D01*
X21130Y7200D02*
Y7730D01*
X18600Y4500D02*
Y4779D01*
X15480Y6260D02*
X15490Y6270D01*
X18380Y3600D02*
X18560D01*
X18710Y3750D01*
X13330Y2650D02*
X13680D01*
X14030D01*
X13680Y2360D02*
Y2650D01*
X14430Y2070D02*
Y3070D01*
X14611Y1893D02*
X14731D01*
X15430D01*
X16380Y2400D02*
Y3070D01*
X18710Y3750D02*
Y4033D01*
Y4390D01*
X18600Y4500D02*
X18710Y4390D01*
X11480Y0D02*
X11568Y88D01*
X20975Y7885D02*
X21130Y7730D01*
X20970Y7890D02*
X20975Y7885D01*
X12580Y-300D02*
X12605Y-275D01*
X12668Y-212D01*
X23560Y300D02*
G03*
X23048Y88I0J-724D01*
G01*
X27860Y1893D02*
Y2400D01*
Y820D02*
Y1893D01*
X26910Y3070D02*
X27400D01*
X26410D02*
X26910D01*
X27400D02*
X27860D01*
X25910D02*
X26410D01*
X27410Y820D02*
X27860D01*
X27631Y1893D02*
X27712D01*
X26910D02*
X27631D01*
X25910D02*
Y2070D01*
Y820D02*
Y1893D01*
Y820D02*
X26410D01*
X24807Y-212D02*
X25422D01*
X24148D02*
X24807D01*
X23560Y-300D02*
X24060D01*
X23510D02*
X23560D01*
X25422Y-212D02*
X25510Y-300D01*
X32610Y7200D02*
Y7730D01*
X30080Y4500D02*
Y4779D01*
X26960Y6260D02*
X26970Y6270D01*
X29860Y3600D02*
X30040D01*
X30190Y3750D01*
X24810Y2650D02*
X25160D01*
X25510D01*
X25160Y2360D02*
Y2650D01*
X25910Y2070D02*
Y3070D01*
X26091Y1893D02*
X26211D01*
X26910D01*
X27860Y2400D02*
Y3070D01*
X30190Y3750D02*
Y4033D01*
Y4390D01*
X30080Y4500D02*
X30190Y4390D01*
X22960Y0D02*
X23048Y88D01*
X32455Y7885D02*
X32610Y7730D01*
X32450Y7890D02*
X32455Y7885D01*
X24060Y-300D02*
X24085Y-275D01*
X24148Y-212D01*
X600Y10890D02*
G03*
X88Y10678I0J-724D01*
G01*
X4900Y12483D02*
Y12990D01*
Y11410D02*
Y12483D01*
X3950Y13660D02*
X4440D01*
X3450D02*
X3950D01*
X4440D02*
X4900D01*
X2950D02*
X3450D01*
X4450Y11410D02*
X4900D01*
X4671Y12483D02*
X4752D01*
X3950D02*
X4671D01*
X2950D02*
Y12660D01*
Y11410D02*
Y12483D01*
Y11410D02*
X3450D01*
X1847Y10378D02*
X2462D01*
X1188D02*
X1847D01*
X600Y10290D02*
X1100D01*
X550D02*
X600D01*
X2462Y10378D02*
X2550Y10290D01*
X9650Y17790D02*
Y18320D01*
X7120Y15090D02*
Y15369D01*
X4000Y16850D02*
X4010Y16860D01*
X6900Y14190D02*
X7080D01*
X7230Y14340D01*
X1850Y13240D02*
X2200D01*
X2550D01*
X2200Y12950D02*
Y13240D01*
X2950Y12660D02*
Y13660D01*
X3131Y12483D02*
X3251D01*
X3950D01*
X4900Y12990D02*
Y13660D01*
X7230Y14340D02*
Y14623D01*
Y14980D01*
X7120Y15090D02*
X7230Y14980D01*
X0Y10590D02*
X88Y10678D01*
X9495Y18475D02*
X9650Y18320D01*
X9490Y18480D02*
X9495Y18475D01*
X1100Y10290D02*
X1125Y10315D01*
X1188Y10378D01*
X12080Y10890D02*
G03*
X11568Y10678I0J-724D01*
G01*
X16380Y12483D02*
Y12990D01*
Y11410D02*
Y12483D01*
X15430Y13660D02*
X15920D01*
X14930D02*
X15430D01*
X15920D02*
X16380D01*
X14430D02*
X14930D01*
X15930Y11410D02*
X16380D01*
X16151Y12483D02*
X16232D01*
X15430D02*
X16151D01*
X14430D02*
Y12660D01*
Y11410D02*
Y12483D01*
Y11410D02*
X14930D01*
X13327Y10378D02*
X13942D01*
X12668D02*
X13327D01*
X12080Y10290D02*
X12580D01*
X12030D02*
X12080D01*
X13942Y10378D02*
X14030Y10290D01*
X21130Y17790D02*
Y18320D01*
X18600Y15090D02*
Y15369D01*
X15480Y16850D02*
X15490Y16860D01*
X18380Y14190D02*
X18560D01*
X18710Y14340D01*
X13330Y13240D02*
X13680D01*
X14030D01*
X13680Y12950D02*
Y13240D01*
X14430Y12660D02*
Y13660D01*
X14611Y12483D02*
X14731D01*
X15430D01*
X16380Y12990D02*
Y13660D01*
X18710Y14340D02*
Y14623D01*
Y14980D01*
X18600Y15090D02*
X18710Y14980D01*
X11480Y10590D02*
X11568Y10678D01*
X20975Y18475D02*
X21130Y18320D01*
X20970Y18480D02*
X20975Y18475D01*
X12580Y10290D02*
X12605Y10315D01*
X12668Y10378D01*
X23560Y10890D02*
G03*
X23048Y10678I0J-724D01*
G01*
X27860Y12483D02*
Y12990D01*
Y11410D02*
Y12483D01*
X26910Y13660D02*
X27400D01*
X26410D02*
X26910D01*
X27400D02*
X27860D01*
X25910D02*
X26410D01*
X27410Y11410D02*
X27860D01*
X27631Y12483D02*
X27712D01*
X26910D02*
X27631D01*
X25910D02*
Y12660D01*
Y11410D02*
Y12483D01*
Y11410D02*
X26410D01*
X24807Y10378D02*
X25422D01*
X24148D02*
X24807D01*
X23560Y10290D02*
X24060D01*
X23510D02*
X23560D01*
X25422Y10378D02*
X25510Y10290D01*
X32610Y17790D02*
Y18320D01*
X30080Y15090D02*
Y15369D01*
X26960Y16850D02*
X26970Y16860D01*
X29860Y14190D02*
X30040D01*
X30190Y14340D01*
X24810Y13240D02*
X25160D01*
X25510D01*
X25160Y12950D02*
Y13240D01*
X25910Y12660D02*
Y13660D01*
X26091Y12483D02*
X26211D01*
X26910D01*
X27860Y12990D02*
Y13660D01*
X30190Y14340D02*
Y14623D01*
Y14980D01*
X30080Y15090D02*
X30190Y14980D01*
X22960Y10590D02*
X23048Y10678D01*
X32455Y18475D02*
X32610Y18320D01*
X32450Y18480D02*
X32455Y18475D01*
X24060Y10290D02*
X24085Y10315D01*
X24148Y10378D01*
X600Y21480D02*
G03*
X88Y21268I0J-724D01*
G01*
X4900Y23073D02*
Y23580D01*
Y22000D02*
Y23073D01*
X3950Y24250D02*
X4440D01*
X3450D02*
X3950D01*
X4440D02*
X4900D01*
X2950D02*
X3450D01*
X4450Y22000D02*
X4900D01*
X4671Y23073D02*
X4752D01*
X3950D02*
X4671D01*
X2950D02*
Y23250D01*
Y22000D02*
Y23073D01*
Y22000D02*
X3450D01*
X1847Y20968D02*
X2462D01*
X1188D02*
X1847D01*
X600Y20880D02*
X1100D01*
X550D02*
X600D01*
X2462Y20968D02*
X2550Y20880D01*
X9650Y28380D02*
Y28910D01*
X7120Y25680D02*
Y25959D01*
X4000Y27440D02*
X4010Y27450D01*
X6900Y24780D02*
X7080D01*
X7230Y24930D01*
X1850Y23830D02*
X2200D01*
X2550D01*
X2200Y23540D02*
Y23830D01*
X2950Y23250D02*
Y24250D01*
X3131Y23073D02*
X3251D01*
X3950D01*
X4900Y23580D02*
Y24250D01*
X7230Y24930D02*
Y25213D01*
Y25570D01*
X7120Y25680D02*
X7230Y25570D01*
X0Y21180D02*
X88Y21268D01*
X9495Y29065D02*
X9650Y28910D01*
X9490Y29070D02*
X9495Y29065D01*
X1100Y20880D02*
X1125Y20905D01*
X1188Y20968D01*
X12080Y21480D02*
G03*
X11568Y21268I0J-724D01*
G01*
X16380Y23073D02*
Y23580D01*
Y22000D02*
Y23073D01*
X15430Y24250D02*
X15920D01*
X14930D02*
X15430D01*
X15920D02*
X16380D01*
X14430D02*
X14930D01*
X15930Y22000D02*
X16380D01*
X16151Y23073D02*
X16232D01*
X15430D02*
X16151D01*
X14430D02*
Y23250D01*
Y22000D02*
Y23073D01*
Y22000D02*
X14930D01*
X13327Y20968D02*
X13942D01*
X12668D02*
X13327D01*
X12080Y20880D02*
X12580D01*
X12030D02*
X12080D01*
X13942Y20968D02*
X14030Y20880D01*
X21130Y28380D02*
Y28910D01*
X18600Y25680D02*
Y25959D01*
X15480Y27440D02*
X15490Y27450D01*
X18380Y24780D02*
X18560D01*
X18710Y24930D01*
X13330Y23830D02*
X13680D01*
X14030D01*
X13680Y23540D02*
Y23830D01*
X14430Y23250D02*
Y24250D01*
X14611Y23073D02*
X14731D01*
X15430D01*
X16380Y23580D02*
Y24250D01*
X18710Y24930D02*
Y25213D01*
Y25570D01*
X18600Y25680D02*
X18710Y25570D01*
X11480Y21180D02*
X11568Y21268D01*
X20975Y29065D02*
X21130Y28910D01*
X20970Y29070D02*
X20975Y29065D01*
X12580Y20880D02*
X12605Y20905D01*
X12668Y20968D01*
X23560Y21480D02*
G03*
X23048Y21268I0J-724D01*
G01*
X27860Y23073D02*
Y23580D01*
Y22000D02*
Y23073D01*
X26910Y24250D02*
X27400D01*
X26410D02*
X26910D01*
X27400D02*
X27860D01*
X25910D02*
X26410D01*
X27410Y22000D02*
X27860D01*
X27631Y23073D02*
X27712D01*
X26910D02*
X27631D01*
X25910D02*
Y23250D01*
Y22000D02*
Y23073D01*
Y22000D02*
X26410D01*
X24807Y20968D02*
X25422D01*
X24148D02*
X24807D01*
X23560Y20880D02*
X24060D01*
X23510D02*
X23560D01*
X25422Y20968D02*
X25510Y20880D01*
X32610Y28380D02*
Y28910D01*
X30080Y25680D02*
Y25959D01*
X26960Y27440D02*
X26970Y27450D01*
X29860Y24780D02*
X30040D01*
X30190Y24930D01*
X24810Y23830D02*
X25160D01*
X25510D01*
X25160Y23540D02*
Y23830D01*
X25910Y23250D02*
Y24250D01*
X26091Y23073D02*
X26211D01*
X26910D01*
X27860Y23580D02*
Y24250D01*
X30190Y24930D02*
Y25213D01*
Y25570D01*
X30080Y25680D02*
X30190Y25570D01*
X22960Y21180D02*
X23048Y21268D01*
X32455Y29065D02*
X32610Y28910D01*
X32450Y29070D02*
X32455Y29065D01*
X24060Y20880D02*
X24085Y20905D01*
X24148Y20968D01*
X29892Y-11980D02*
X29511Y-10980D01*
X29130Y-11980D01*
X29273Y-11647D02*
X29749D01*
X30696Y-11456D02*
X30601Y-11361D01*
X30506Y-11313D01*
X30363D01*
X30268Y-11361D01*
X30173Y-11456D01*
X30125Y-11599D01*
Y-11694D01*
X30173Y-11837D01*
X30268Y-11932D01*
X30363Y-11980D01*
X30506D01*
X30601Y-11932D01*
X30696Y-11837D01*
X31053Y-10980D02*
Y-11790D01*
X31101Y-11932D01*
X31196Y-11980D01*
X31291D01*
X30911Y-11313D02*
X31244D01*
X31529Y-10980D02*
X31577Y-11028D01*
X31625Y-10980D01*
X31577Y-10933D01*
X31529Y-10980D01*
X31577Y-11313D02*
Y-11980D01*
X31801Y-11313D02*
X32087Y-11980D01*
X32372Y-11313D02*
X32087Y-11980D01*
X32534Y-11599D02*
X33105D01*
Y-11504D01*
X33058Y-11409D01*
X33010Y-11361D01*
X32915Y-11313D01*
X32772D01*
X32677Y-11361D01*
X32582Y-11456D01*
X32534Y-11599D01*
Y-11694D01*
X32582Y-11837D01*
X32677Y-11932D01*
X32772Y-11980D01*
X32915D01*
X33010Y-11932D01*
X33105Y-11837D01*
X34105Y-10980D02*
X34343Y-11980D01*
X34581Y-10980D02*
X34343Y-11980D01*
X34581Y-10980D02*
X34819Y-11980D01*
X35057Y-10980D02*
X34819Y-11980D01*
X35829Y-11313D02*
Y-11980D01*
Y-11456D02*
X35733Y-11361D01*
X35638Y-11313D01*
X35495D01*
X35400Y-11361D01*
X35305Y-11456D01*
X35257Y-11599D01*
Y-11694D01*
X35305Y-11837D01*
X35400Y-11932D01*
X35495Y-11980D01*
X35638D01*
X35733Y-11932D01*
X35829Y-11837D01*
X36095Y-11313D02*
X36381Y-11980D01*
X36666Y-11313D02*
X36381Y-11980D01*
X36828Y-11599D02*
X37400D01*
Y-11504D01*
X37352Y-11409D01*
X37304Y-11361D01*
X37209Y-11313D01*
X37066D01*
X36971Y-11361D01*
X36876Y-11456D01*
X36828Y-11599D01*
Y-11694D01*
X36876Y-11837D01*
X36971Y-11932D01*
X37066Y-11980D01*
X37209D01*
X37304Y-11932D01*
X37400Y-11837D01*
D13*
X1150Y-300D02*
D03*
Y300D02*
D03*
X600D02*
D03*
Y-300D02*
D03*
X2550Y2050D02*
D03*
Y2650D02*
D03*
X8849Y520D02*
D03*
Y-80D02*
D03*
X350Y859D02*
D03*
Y1459D02*
D03*
X1530Y7060D02*
D03*
Y6460D02*
D03*
X230Y4710D02*
D03*
Y5310D02*
D03*
X480Y2530D02*
D03*
Y1930D02*
D03*
X9000Y7200D02*
D03*
Y6600D02*
D03*
X830Y5310D02*
D03*
X4444Y256D02*
D03*
Y-344D02*
D03*
X5200Y3350D02*
D03*
Y3950D02*
D03*
X3700Y256D02*
D03*
Y-344D02*
D03*
X1850Y940D02*
D03*
Y1540D02*
D03*
X2540Y1600D02*
D03*
Y1000D02*
D03*
X1850Y2650D02*
D03*
Y2050D02*
D03*
X1090Y1500D02*
D03*
Y900D02*
D03*
X3400Y5250D02*
D03*
Y4650D02*
D03*
X4000D02*
D03*
Y5250D02*
D03*
X2660Y5340D02*
D03*
Y4740D02*
D03*
X230Y5910D02*
D03*
Y6510D02*
D03*
X3400Y3470D02*
D03*
Y4070D02*
D03*
X9650Y7200D02*
D03*
Y6600D02*
D03*
X830Y4710D02*
D03*
X1100Y2100D02*
D03*
Y2700D02*
D03*
X12630Y-300D02*
D03*
Y300D02*
D03*
X12080D02*
D03*
Y-300D02*
D03*
X14030Y2050D02*
D03*
Y2650D02*
D03*
X20329Y520D02*
D03*
Y-80D02*
D03*
X11830Y859D02*
D03*
Y1459D02*
D03*
X13010Y7060D02*
D03*
Y6460D02*
D03*
X11710Y4710D02*
D03*
Y5310D02*
D03*
X11960Y2530D02*
D03*
Y1930D02*
D03*
X20480Y7200D02*
D03*
Y6600D02*
D03*
X12310Y5310D02*
D03*
X15924Y256D02*
D03*
Y-344D02*
D03*
X16680Y3350D02*
D03*
Y3950D02*
D03*
X15180Y256D02*
D03*
Y-344D02*
D03*
X13330Y940D02*
D03*
Y1540D02*
D03*
X14020Y1600D02*
D03*
Y1000D02*
D03*
X13330Y2650D02*
D03*
Y2050D02*
D03*
X12570Y1500D02*
D03*
Y900D02*
D03*
X14880Y5250D02*
D03*
Y4650D02*
D03*
X15480D02*
D03*
Y5250D02*
D03*
X14140Y5340D02*
D03*
Y4740D02*
D03*
X11710Y5910D02*
D03*
Y6510D02*
D03*
X14880Y3470D02*
D03*
Y4070D02*
D03*
X21130Y7200D02*
D03*
Y6600D02*
D03*
X12310Y4710D02*
D03*
X12580Y2100D02*
D03*
Y2700D02*
D03*
X24110Y-300D02*
D03*
Y300D02*
D03*
X23560D02*
D03*
Y-300D02*
D03*
X25510Y2050D02*
D03*
Y2650D02*
D03*
X31809Y520D02*
D03*
Y-80D02*
D03*
X23310Y859D02*
D03*
Y1459D02*
D03*
X24490Y7060D02*
D03*
Y6460D02*
D03*
X23190Y4710D02*
D03*
Y5310D02*
D03*
X23440Y2530D02*
D03*
Y1930D02*
D03*
X31960Y7200D02*
D03*
Y6600D02*
D03*
X23790Y5310D02*
D03*
X27404Y256D02*
D03*
Y-344D02*
D03*
X28160Y3350D02*
D03*
Y3950D02*
D03*
X26660Y256D02*
D03*
Y-344D02*
D03*
X24810Y940D02*
D03*
Y1540D02*
D03*
X25500Y1600D02*
D03*
Y1000D02*
D03*
X24810Y2650D02*
D03*
Y2050D02*
D03*
X24050Y1500D02*
D03*
Y900D02*
D03*
X26360Y5250D02*
D03*
Y4650D02*
D03*
X26960D02*
D03*
Y5250D02*
D03*
X25620Y5340D02*
D03*
Y4740D02*
D03*
X23190Y5910D02*
D03*
Y6510D02*
D03*
X26360Y3470D02*
D03*
Y4070D02*
D03*
X32610Y7200D02*
D03*
Y6600D02*
D03*
X23790Y4710D02*
D03*
X24060Y2100D02*
D03*
Y2700D02*
D03*
X1150Y10290D02*
D03*
Y10890D02*
D03*
X600D02*
D03*
Y10290D02*
D03*
X2550Y12640D02*
D03*
Y13240D02*
D03*
X8849Y11110D02*
D03*
Y10510D02*
D03*
X350Y11449D02*
D03*
Y12049D02*
D03*
X1530Y17650D02*
D03*
Y17050D02*
D03*
X230Y15300D02*
D03*
Y15900D02*
D03*
X480Y13120D02*
D03*
Y12520D02*
D03*
X9000Y17790D02*
D03*
Y17190D02*
D03*
X830Y15900D02*
D03*
X4444Y10846D02*
D03*
Y10246D02*
D03*
X5200Y13940D02*
D03*
Y14540D02*
D03*
X3700Y10846D02*
D03*
Y10246D02*
D03*
X1850Y11530D02*
D03*
Y12130D02*
D03*
X2540Y12190D02*
D03*
Y11590D02*
D03*
X1850Y13240D02*
D03*
Y12640D02*
D03*
X1090Y12090D02*
D03*
Y11490D02*
D03*
X3400Y15840D02*
D03*
Y15240D02*
D03*
X4000D02*
D03*
Y15840D02*
D03*
X2660Y15930D02*
D03*
Y15330D02*
D03*
X230Y16500D02*
D03*
Y17100D02*
D03*
X3400Y14060D02*
D03*
Y14660D02*
D03*
X9650Y17790D02*
D03*
Y17190D02*
D03*
X830Y15300D02*
D03*
X1100Y12690D02*
D03*
Y13290D02*
D03*
X12630Y10290D02*
D03*
Y10890D02*
D03*
X12080D02*
D03*
Y10290D02*
D03*
X14030Y12640D02*
D03*
Y13240D02*
D03*
X20329Y11110D02*
D03*
Y10510D02*
D03*
X11830Y11449D02*
D03*
Y12049D02*
D03*
X13010Y17650D02*
D03*
Y17050D02*
D03*
X11710Y15300D02*
D03*
Y15900D02*
D03*
X11960Y13120D02*
D03*
Y12520D02*
D03*
X20480Y17790D02*
D03*
Y17190D02*
D03*
X12310Y15900D02*
D03*
X15924Y10846D02*
D03*
Y10246D02*
D03*
X16680Y13940D02*
D03*
Y14540D02*
D03*
X15180Y10846D02*
D03*
Y10246D02*
D03*
X13330Y11530D02*
D03*
Y12130D02*
D03*
X14020Y12190D02*
D03*
Y11590D02*
D03*
X13330Y13240D02*
D03*
Y12640D02*
D03*
X12570Y12090D02*
D03*
Y11490D02*
D03*
X14880Y15840D02*
D03*
Y15240D02*
D03*
X15480D02*
D03*
Y15840D02*
D03*
X14140Y15930D02*
D03*
Y15330D02*
D03*
X11710Y16500D02*
D03*
Y17100D02*
D03*
X14880Y14060D02*
D03*
Y14660D02*
D03*
X21130Y17790D02*
D03*
Y17190D02*
D03*
X12310Y15300D02*
D03*
X12580Y12690D02*
D03*
Y13290D02*
D03*
X24110Y10290D02*
D03*
Y10890D02*
D03*
X23560D02*
D03*
Y10290D02*
D03*
X25510Y12640D02*
D03*
Y13240D02*
D03*
X31809Y11110D02*
D03*
Y10510D02*
D03*
X23310Y11449D02*
D03*
Y12049D02*
D03*
X24490Y17650D02*
D03*
Y17050D02*
D03*
X23190Y15300D02*
D03*
Y15900D02*
D03*
X23440Y13120D02*
D03*
Y12520D02*
D03*
X31960Y17790D02*
D03*
Y17190D02*
D03*
X23790Y15900D02*
D03*
X27404Y10846D02*
D03*
Y10246D02*
D03*
X28160Y13940D02*
D03*
Y14540D02*
D03*
X26660Y10846D02*
D03*
Y10246D02*
D03*
X24810Y11530D02*
D03*
Y12130D02*
D03*
X25500Y12190D02*
D03*
Y11590D02*
D03*
X24810Y13240D02*
D03*
Y12640D02*
D03*
X24050Y12090D02*
D03*
Y11490D02*
D03*
X26360Y15840D02*
D03*
Y15240D02*
D03*
X26960D02*
D03*
Y15840D02*
D03*
X25620Y15930D02*
D03*
Y15330D02*
D03*
X23190Y16500D02*
D03*
Y17100D02*
D03*
X26360Y14060D02*
D03*
Y14660D02*
D03*
X32610Y17790D02*
D03*
Y17190D02*
D03*
X23790Y15300D02*
D03*
X24060Y12690D02*
D03*
Y13290D02*
D03*
X1150Y20880D02*
D03*
Y21480D02*
D03*
X600D02*
D03*
Y20880D02*
D03*
X2550Y23230D02*
D03*
Y23830D02*
D03*
X8849Y21700D02*
D03*
Y21100D02*
D03*
X350Y22039D02*
D03*
Y22639D02*
D03*
X1530Y28240D02*
D03*
Y27640D02*
D03*
X230Y25890D02*
D03*
Y26490D02*
D03*
X480Y23710D02*
D03*
Y23110D02*
D03*
X9000Y28380D02*
D03*
Y27780D02*
D03*
X830Y26490D02*
D03*
X4444Y21436D02*
D03*
Y20836D02*
D03*
X5200Y24530D02*
D03*
Y25130D02*
D03*
X3700Y21436D02*
D03*
Y20836D02*
D03*
X1850Y22120D02*
D03*
Y22720D02*
D03*
X2540Y22780D02*
D03*
Y22180D02*
D03*
X1850Y23830D02*
D03*
Y23230D02*
D03*
X1090Y22680D02*
D03*
Y22080D02*
D03*
X3400Y26430D02*
D03*
Y25830D02*
D03*
X4000D02*
D03*
Y26430D02*
D03*
X2660Y26520D02*
D03*
Y25920D02*
D03*
X230Y27090D02*
D03*
Y27690D02*
D03*
X3400Y24650D02*
D03*
Y25250D02*
D03*
X9650Y28380D02*
D03*
Y27780D02*
D03*
X830Y25890D02*
D03*
X1100Y23280D02*
D03*
Y23880D02*
D03*
X12630Y20880D02*
D03*
Y21480D02*
D03*
X12080D02*
D03*
Y20880D02*
D03*
X14030Y23230D02*
D03*
Y23830D02*
D03*
X20329Y21700D02*
D03*
Y21100D02*
D03*
X11830Y22039D02*
D03*
Y22639D02*
D03*
X13010Y28240D02*
D03*
Y27640D02*
D03*
X11710Y25890D02*
D03*
Y26490D02*
D03*
X11960Y23710D02*
D03*
Y23110D02*
D03*
X20480Y28380D02*
D03*
Y27780D02*
D03*
X12310Y26490D02*
D03*
X15924Y21436D02*
D03*
Y20836D02*
D03*
X16680Y24530D02*
D03*
Y25130D02*
D03*
X15180Y21436D02*
D03*
Y20836D02*
D03*
X13330Y22120D02*
D03*
Y22720D02*
D03*
X14020Y22780D02*
D03*
Y22180D02*
D03*
X13330Y23830D02*
D03*
Y23230D02*
D03*
X12570Y22680D02*
D03*
Y22080D02*
D03*
X14880Y26430D02*
D03*
Y25830D02*
D03*
X15480D02*
D03*
Y26430D02*
D03*
X14140Y26520D02*
D03*
Y25920D02*
D03*
X11710Y27090D02*
D03*
Y27690D02*
D03*
X14880Y24650D02*
D03*
Y25250D02*
D03*
X21130Y28380D02*
D03*
Y27780D02*
D03*
X12310Y25890D02*
D03*
X12580Y23280D02*
D03*
Y23880D02*
D03*
X24110Y20880D02*
D03*
Y21480D02*
D03*
X23560D02*
D03*
Y20880D02*
D03*
X25510Y23230D02*
D03*
Y23830D02*
D03*
X31809Y21700D02*
D03*
Y21100D02*
D03*
X23310Y22039D02*
D03*
Y22639D02*
D03*
X24490Y28240D02*
D03*
Y27640D02*
D03*
X23190Y25890D02*
D03*
Y26490D02*
D03*
X23440Y23710D02*
D03*
Y23110D02*
D03*
X31960Y28380D02*
D03*
Y27780D02*
D03*
X23790Y26490D02*
D03*
X27404Y21436D02*
D03*
Y20836D02*
D03*
X28160Y24530D02*
D03*
Y25130D02*
D03*
X26660Y21436D02*
D03*
Y20836D02*
D03*
X24810Y22120D02*
D03*
Y22720D02*
D03*
X25500Y22780D02*
D03*
Y22180D02*
D03*
X24810Y23830D02*
D03*
Y23230D02*
D03*
X24050Y22680D02*
D03*
Y22080D02*
D03*
X26360Y26430D02*
D03*
Y25830D02*
D03*
X26960D02*
D03*
Y26430D02*
D03*
X25620Y26520D02*
D03*
Y25920D02*
D03*
X23190Y27090D02*
D03*
Y27690D02*
D03*
X26360Y24650D02*
D03*
Y25250D02*
D03*
X32610Y28380D02*
D03*
Y27780D02*
D03*
X23790Y25890D02*
D03*
X24060Y23280D02*
D03*
Y23880D02*
D03*
D14*
X7700Y2170D02*
D03*
X19180D02*
D03*
X30660D02*
D03*
X7700Y12760D02*
D03*
X19180D02*
D03*
X30660D02*
D03*
X7700Y23350D02*
D03*
X19180D02*
D03*
X30660D02*
D03*
D15*
X4000Y3500D02*
D03*
X4600D02*
D03*
X850Y7800D02*
D03*
X1450D02*
D03*
X4000Y5850D02*
D03*
X3400D02*
D03*
X4600Y4050D02*
D03*
X4000D02*
D03*
X2060Y7020D02*
D03*
X2660D02*
D03*
X2060Y6440D02*
D03*
X2660D02*
D03*
X3150Y300D02*
D03*
X2550D02*
D03*
X2660Y5840D02*
D03*
X2060D02*
D03*
X9100Y6000D02*
D03*
X9700D02*
D03*
X5800Y3050D02*
D03*
X6400D02*
D03*
X5800Y3550D02*
D03*
X6400D02*
D03*
X2550Y-300D02*
D03*
X3150D02*
D03*
X8490Y5790D02*
D03*
X7890D02*
D03*
X1640Y5870D02*
D03*
X1040D02*
D03*
X8490Y4890D02*
D03*
X7890D02*
D03*
X5840Y4140D02*
D03*
X6440D02*
D03*
X9690Y5340D02*
D03*
X9090D02*
D03*
X5790Y8640D02*
D03*
X6390D02*
D03*
X8490Y2240D02*
D03*
X9090D02*
D03*
X2650Y7800D02*
D03*
X2050D02*
D03*
X8640Y3840D02*
D03*
X8040D02*
D03*
X8640Y3140D02*
D03*
X8040D02*
D03*
X-120Y3540D02*
D03*
Y3040D02*
D03*
X8490Y7990D02*
D03*
X7890D02*
D03*
X-120Y4030D02*
D03*
X9090Y4740D02*
D03*
X9690D02*
D03*
X480Y4030D02*
D03*
Y3040D02*
D03*
Y3540D02*
D03*
X15480Y3500D02*
D03*
X16080D02*
D03*
X12330Y7800D02*
D03*
X12930D02*
D03*
X15480Y5850D02*
D03*
X14880D02*
D03*
X16080Y4050D02*
D03*
X15480D02*
D03*
X13540Y7020D02*
D03*
X14140D02*
D03*
X13540Y6440D02*
D03*
X14140D02*
D03*
X14630Y300D02*
D03*
X14030D02*
D03*
X14140Y5840D02*
D03*
X13540D02*
D03*
X20580Y6000D02*
D03*
X21180D02*
D03*
X17280Y3050D02*
D03*
X17880D02*
D03*
X17280Y3550D02*
D03*
X17880D02*
D03*
X14030Y-300D02*
D03*
X14630D02*
D03*
X19970Y5790D02*
D03*
X19370D02*
D03*
X13120Y5870D02*
D03*
X12520D02*
D03*
X19970Y4890D02*
D03*
X19370D02*
D03*
X17320Y4140D02*
D03*
X17920D02*
D03*
X21170Y5340D02*
D03*
X20570D02*
D03*
X17270Y8640D02*
D03*
X17870D02*
D03*
X19970Y2240D02*
D03*
X20570D02*
D03*
X14130Y7800D02*
D03*
X13530D02*
D03*
X20120Y3840D02*
D03*
X19520D02*
D03*
X20120Y3140D02*
D03*
X19520D02*
D03*
X11360Y3540D02*
D03*
Y3040D02*
D03*
X19970Y7990D02*
D03*
X19370D02*
D03*
X11360Y4030D02*
D03*
X20570Y4740D02*
D03*
X21170D02*
D03*
X11960Y4030D02*
D03*
Y3040D02*
D03*
Y3540D02*
D03*
X26960Y3500D02*
D03*
X27560D02*
D03*
X23810Y7800D02*
D03*
X24410D02*
D03*
X26960Y5850D02*
D03*
X26360D02*
D03*
X27560Y4050D02*
D03*
X26960D02*
D03*
X25020Y7020D02*
D03*
X25620D02*
D03*
X25020Y6440D02*
D03*
X25620D02*
D03*
X26110Y300D02*
D03*
X25510D02*
D03*
X25620Y5840D02*
D03*
X25020D02*
D03*
X32060Y6000D02*
D03*
X32660D02*
D03*
X28760Y3050D02*
D03*
X29360D02*
D03*
X28760Y3550D02*
D03*
X29360D02*
D03*
X25510Y-300D02*
D03*
X26110D02*
D03*
X31450Y5790D02*
D03*
X30850D02*
D03*
X24600Y5870D02*
D03*
X24000D02*
D03*
X31450Y4890D02*
D03*
X30850D02*
D03*
X28800Y4140D02*
D03*
X29400D02*
D03*
X32650Y5340D02*
D03*
X32050D02*
D03*
X28750Y8640D02*
D03*
X29350D02*
D03*
X31450Y2240D02*
D03*
X32050D02*
D03*
X25610Y7800D02*
D03*
X25010D02*
D03*
X31600Y3840D02*
D03*
X31000D02*
D03*
X31600Y3140D02*
D03*
X31000D02*
D03*
X22840Y3540D02*
D03*
Y3040D02*
D03*
X31450Y7990D02*
D03*
X30850D02*
D03*
X22840Y4030D02*
D03*
X32050Y4740D02*
D03*
X32650D02*
D03*
X23440Y4030D02*
D03*
Y3040D02*
D03*
Y3540D02*
D03*
X4000Y14090D02*
D03*
X4600D02*
D03*
X850Y18390D02*
D03*
X1450D02*
D03*
X4000Y16440D02*
D03*
X3400D02*
D03*
X4600Y14640D02*
D03*
X4000D02*
D03*
X2060Y17610D02*
D03*
X2660D02*
D03*
X2060Y17030D02*
D03*
X2660D02*
D03*
X3150Y10890D02*
D03*
X2550D02*
D03*
X2660Y16430D02*
D03*
X2060D02*
D03*
X9100Y16590D02*
D03*
X9700D02*
D03*
X5800Y13640D02*
D03*
X6400D02*
D03*
X5800Y14140D02*
D03*
X6400D02*
D03*
X2550Y10290D02*
D03*
X3150D02*
D03*
X8490Y16380D02*
D03*
X7890D02*
D03*
X1640Y16460D02*
D03*
X1040D02*
D03*
X8490Y15480D02*
D03*
X7890D02*
D03*
X5840Y14730D02*
D03*
X6440D02*
D03*
X9690Y15930D02*
D03*
X9090D02*
D03*
X5790Y19230D02*
D03*
X6390D02*
D03*
X8490Y12830D02*
D03*
X9090D02*
D03*
X2650Y18390D02*
D03*
X2050D02*
D03*
X8640Y14430D02*
D03*
X8040D02*
D03*
X8640Y13730D02*
D03*
X8040D02*
D03*
X-120Y14130D02*
D03*
Y13630D02*
D03*
X8490Y18580D02*
D03*
X7890D02*
D03*
X-120Y14620D02*
D03*
X9090Y15330D02*
D03*
X9690D02*
D03*
X480Y14620D02*
D03*
Y13630D02*
D03*
Y14130D02*
D03*
X15480Y14090D02*
D03*
X16080D02*
D03*
X12330Y18390D02*
D03*
X12930D02*
D03*
X15480Y16440D02*
D03*
X14880D02*
D03*
X16080Y14640D02*
D03*
X15480D02*
D03*
X13540Y17610D02*
D03*
X14140D02*
D03*
X13540Y17030D02*
D03*
X14140D02*
D03*
X14630Y10890D02*
D03*
X14030D02*
D03*
X14140Y16430D02*
D03*
X13540D02*
D03*
X20580Y16590D02*
D03*
X21180D02*
D03*
X17280Y13640D02*
D03*
X17880D02*
D03*
X17280Y14140D02*
D03*
X17880D02*
D03*
X14030Y10290D02*
D03*
X14630D02*
D03*
X19970Y16380D02*
D03*
X19370D02*
D03*
X13120Y16460D02*
D03*
X12520D02*
D03*
X19970Y15480D02*
D03*
X19370D02*
D03*
X17320Y14730D02*
D03*
X17920D02*
D03*
X21170Y15930D02*
D03*
X20570D02*
D03*
X17270Y19230D02*
D03*
X17870D02*
D03*
X19970Y12830D02*
D03*
X20570D02*
D03*
X14130Y18390D02*
D03*
X13530D02*
D03*
X20120Y14430D02*
D03*
X19520D02*
D03*
X20120Y13730D02*
D03*
X19520D02*
D03*
X11360Y14130D02*
D03*
Y13630D02*
D03*
X19970Y18580D02*
D03*
X19370D02*
D03*
X11360Y14620D02*
D03*
X20570Y15330D02*
D03*
X21170D02*
D03*
X11960Y14620D02*
D03*
Y13630D02*
D03*
Y14130D02*
D03*
X26960Y14090D02*
D03*
X27560D02*
D03*
X23810Y18390D02*
D03*
X24410D02*
D03*
X26960Y16440D02*
D03*
X26360D02*
D03*
X27560Y14640D02*
D03*
X26960D02*
D03*
X25020Y17610D02*
D03*
X25620D02*
D03*
X25020Y17030D02*
D03*
X25620D02*
D03*
X26110Y10890D02*
D03*
X25510D02*
D03*
X25620Y16430D02*
D03*
X25020D02*
D03*
X32060Y16590D02*
D03*
X32660D02*
D03*
X28760Y13640D02*
D03*
X29360D02*
D03*
X28760Y14140D02*
D03*
X29360D02*
D03*
X25510Y10290D02*
D03*
X26110D02*
D03*
X31450Y16380D02*
D03*
X30850D02*
D03*
X24600Y16460D02*
D03*
X24000D02*
D03*
X31450Y15480D02*
D03*
X30850D02*
D03*
X28800Y14730D02*
D03*
X29400D02*
D03*
X32650Y15930D02*
D03*
X32050D02*
D03*
X28750Y19230D02*
D03*
X29350D02*
D03*
X31450Y12830D02*
D03*
X32050D02*
D03*
X25610Y18390D02*
D03*
X25010D02*
D03*
X31600Y14430D02*
D03*
X31000D02*
D03*
X31600Y13730D02*
D03*
X31000D02*
D03*
X22840Y14130D02*
D03*
Y13630D02*
D03*
X31450Y18580D02*
D03*
X30850D02*
D03*
X22840Y14620D02*
D03*
X32050Y15330D02*
D03*
X32650D02*
D03*
X23440Y14620D02*
D03*
Y13630D02*
D03*
Y14130D02*
D03*
X4000Y24680D02*
D03*
X4600D02*
D03*
X850Y28980D02*
D03*
X1450D02*
D03*
X4000Y27030D02*
D03*
X3400D02*
D03*
X4600Y25230D02*
D03*
X4000D02*
D03*
X2060Y28200D02*
D03*
X2660D02*
D03*
X2060Y27620D02*
D03*
X2660D02*
D03*
X3150Y21480D02*
D03*
X2550D02*
D03*
X2660Y27020D02*
D03*
X2060D02*
D03*
X9100Y27180D02*
D03*
X9700D02*
D03*
X5800Y24230D02*
D03*
X6400D02*
D03*
X5800Y24730D02*
D03*
X6400D02*
D03*
X2550Y20880D02*
D03*
X3150D02*
D03*
X8490Y26970D02*
D03*
X7890D02*
D03*
X1640Y27050D02*
D03*
X1040D02*
D03*
X8490Y26070D02*
D03*
X7890D02*
D03*
X5840Y25320D02*
D03*
X6440D02*
D03*
X9690Y26520D02*
D03*
X9090D02*
D03*
X5790Y29820D02*
D03*
X6390D02*
D03*
X8490Y23420D02*
D03*
X9090D02*
D03*
X2650Y28980D02*
D03*
X2050D02*
D03*
X8640Y25020D02*
D03*
X8040D02*
D03*
X8640Y24320D02*
D03*
X8040D02*
D03*
X-120Y24720D02*
D03*
Y24220D02*
D03*
X8490Y29170D02*
D03*
X7890D02*
D03*
X-120Y25210D02*
D03*
X9090Y25920D02*
D03*
X9690D02*
D03*
X480Y25210D02*
D03*
Y24220D02*
D03*
Y24720D02*
D03*
X15480Y24680D02*
D03*
X16080D02*
D03*
X12330Y28980D02*
D03*
X12930D02*
D03*
X15480Y27030D02*
D03*
X14880D02*
D03*
X16080Y25230D02*
D03*
X15480D02*
D03*
X13540Y28200D02*
D03*
X14140D02*
D03*
X13540Y27620D02*
D03*
X14140D02*
D03*
X14630Y21480D02*
D03*
X14030D02*
D03*
X14140Y27020D02*
D03*
X13540D02*
D03*
X20580Y27180D02*
D03*
X21180D02*
D03*
X17280Y24230D02*
D03*
X17880D02*
D03*
X17280Y24730D02*
D03*
X17880D02*
D03*
X14030Y20880D02*
D03*
X14630D02*
D03*
X19970Y26970D02*
D03*
X19370D02*
D03*
X13120Y27050D02*
D03*
X12520D02*
D03*
X19970Y26070D02*
D03*
X19370D02*
D03*
X17320Y25320D02*
D03*
X17920D02*
D03*
X21170Y26520D02*
D03*
X20570D02*
D03*
X17270Y29820D02*
D03*
X17870D02*
D03*
X19970Y23420D02*
D03*
X20570D02*
D03*
X14130Y28980D02*
D03*
X13530D02*
D03*
X20120Y25020D02*
D03*
X19520D02*
D03*
X20120Y24320D02*
D03*
X19520D02*
D03*
X11360Y24720D02*
D03*
Y24220D02*
D03*
X19970Y29170D02*
D03*
X19370D02*
D03*
X11360Y25210D02*
D03*
X20570Y25920D02*
D03*
X21170D02*
D03*
X11960Y25210D02*
D03*
Y24220D02*
D03*
Y24720D02*
D03*
X26960Y24680D02*
D03*
X27560D02*
D03*
X23810Y28980D02*
D03*
X24410D02*
D03*
X26960Y27030D02*
D03*
X26360D02*
D03*
X27560Y25230D02*
D03*
X26960D02*
D03*
X25020Y28200D02*
D03*
X25620D02*
D03*
X25020Y27620D02*
D03*
X25620D02*
D03*
X26110Y21480D02*
D03*
X25510D02*
D03*
X25620Y27020D02*
D03*
X25020D02*
D03*
X32060Y27180D02*
D03*
X32660D02*
D03*
X28760Y24230D02*
D03*
X29360D02*
D03*
X28760Y24730D02*
D03*
X29360D02*
D03*
X25510Y20880D02*
D03*
X26110D02*
D03*
X31450Y26970D02*
D03*
X30850D02*
D03*
X24600Y27050D02*
D03*
X24000D02*
D03*
X31450Y26070D02*
D03*
X30850D02*
D03*
X28800Y25320D02*
D03*
X29400D02*
D03*
X32650Y26520D02*
D03*
X32050D02*
D03*
X28750Y29820D02*
D03*
X29350D02*
D03*
X31450Y23420D02*
D03*
X32050D02*
D03*
X25610Y28980D02*
D03*
X25010D02*
D03*
X31600Y25020D02*
D03*
X31000D02*
D03*
X31600Y24320D02*
D03*
X31000D02*
D03*
X22840Y24720D02*
D03*
Y24220D02*
D03*
X31450Y29170D02*
D03*
X30850D02*
D03*
X22840Y25210D02*
D03*
X32050Y25920D02*
D03*
X32650D02*
D03*
X23440Y25210D02*
D03*
Y24220D02*
D03*
Y24720D02*
D03*
D16*
X7020Y-60D02*
D03*
X6020Y2140D02*
D03*
X7020D02*
D03*
X6520D02*
D03*
X5520D02*
D03*
X6520Y-60D02*
D03*
X6020D02*
D03*
X5520D02*
D03*
X18500D02*
D03*
X17500Y2140D02*
D03*
X18500D02*
D03*
X18000D02*
D03*
X17000D02*
D03*
X18000Y-60D02*
D03*
X17500D02*
D03*
X17000D02*
D03*
X29980D02*
D03*
X28980Y2140D02*
D03*
X29980D02*
D03*
X29480D02*
D03*
X28480D02*
D03*
X29480Y-60D02*
D03*
X28980D02*
D03*
X28480D02*
D03*
X7020Y10530D02*
D03*
X6020Y12730D02*
D03*
X7020D02*
D03*
X6520D02*
D03*
X5520D02*
D03*
X6520Y10530D02*
D03*
X6020D02*
D03*
X5520D02*
D03*
X18500D02*
D03*
X17500Y12730D02*
D03*
X18500D02*
D03*
X18000D02*
D03*
X17000D02*
D03*
X18000Y10530D02*
D03*
X17500D02*
D03*
X17000D02*
D03*
X29980D02*
D03*
X28980Y12730D02*
D03*
X29980D02*
D03*
X29480D02*
D03*
X28480D02*
D03*
X29480Y10530D02*
D03*
X28980D02*
D03*
X28480D02*
D03*
X7020Y21120D02*
D03*
X6020Y23320D02*
D03*
X7020D02*
D03*
X6520D02*
D03*
X5520D02*
D03*
X6520Y21120D02*
D03*
X6020D02*
D03*
X5520D02*
D03*
X18500D02*
D03*
X17500Y23320D02*
D03*
X18500D02*
D03*
X18000D02*
D03*
X17000D02*
D03*
X18000Y21120D02*
D03*
X17500D02*
D03*
X17000D02*
D03*
X29980D02*
D03*
X28980Y23320D02*
D03*
X29980D02*
D03*
X29480D02*
D03*
X28480D02*
D03*
X29480Y21120D02*
D03*
X28980D02*
D03*
X28480D02*
D03*
D17*
X2420Y3270D02*
D03*
X13900D02*
D03*
X25380D02*
D03*
X2420Y13860D02*
D03*
X13900D02*
D03*
X25380D02*
D03*
X2420Y24450D02*
D03*
X13900D02*
D03*
X25380D02*
D03*
D18*
X2050Y4070D02*
D03*
X2800D02*
D03*
X13530D02*
D03*
X14280D02*
D03*
X25010D02*
D03*
X25760D02*
D03*
X2050Y14660D02*
D03*
X2800D02*
D03*
X13530D02*
D03*
X14280D02*
D03*
X25010D02*
D03*
X25760D02*
D03*
X2050Y25250D02*
D03*
X2800D02*
D03*
X13530D02*
D03*
X14280D02*
D03*
X25010D02*
D03*
X25760D02*
D03*
D19*
X3950Y1109D02*
D03*
X4450D02*
D03*
X4440Y2740D02*
D03*
X3950Y2730D02*
D03*
X3450D02*
D03*
X15430Y1109D02*
D03*
X15930D02*
D03*
X15920Y2740D02*
D03*
X15430Y2730D02*
D03*
X14930D02*
D03*
X26910Y1109D02*
D03*
X27410D02*
D03*
X27400Y2740D02*
D03*
X26910Y2730D02*
D03*
X26410D02*
D03*
X3950Y11699D02*
D03*
X4450D02*
D03*
X4440Y13330D02*
D03*
X3950Y13320D02*
D03*
X3450D02*
D03*
X15430Y11699D02*
D03*
X15930D02*
D03*
X15920Y13330D02*
D03*
X15430Y13320D02*
D03*
X14930D02*
D03*
X26910Y11699D02*
D03*
X27410D02*
D03*
X27400Y13330D02*
D03*
X26910Y13320D02*
D03*
X26410D02*
D03*
X3950Y22289D02*
D03*
X4450D02*
D03*
X4440Y23920D02*
D03*
X3950Y23910D02*
D03*
X3450D02*
D03*
X15430Y22289D02*
D03*
X15930D02*
D03*
X15920Y23920D02*
D03*
X15430Y23910D02*
D03*
X14930D02*
D03*
X26910Y22289D02*
D03*
X27410D02*
D03*
X27400Y23920D02*
D03*
X26910Y23910D02*
D03*
X26410D02*
D03*
D20*
X3450Y1159D02*
D03*
X14930D02*
D03*
X26410D02*
D03*
X3450Y11749D02*
D03*
X14930D02*
D03*
X26410D02*
D03*
X3450Y22339D02*
D03*
X14930D02*
D03*
X26410D02*
D03*
D21*
X4671Y1893D02*
D03*
X16151D02*
D03*
X27631D02*
D03*
X4671Y12483D02*
D03*
X16151D02*
D03*
X27631D02*
D03*
X4671Y23073D02*
D03*
X16151D02*
D03*
X27631D02*
D03*
D22*
X3251Y1893D02*
D03*
X14731D02*
D03*
X26211D02*
D03*
X3251Y12483D02*
D03*
X14731D02*
D03*
X26211D02*
D03*
X3251Y23073D02*
D03*
X14731D02*
D03*
X26211D02*
D03*
D23*
X7582Y1530D02*
D03*
X7838Y-338D02*
D03*
X8094D02*
D03*
X7582D02*
D03*
X8350Y1530D02*
D03*
X8094D02*
D03*
X8350Y-338D02*
D03*
X7838Y1530D02*
D03*
X19062D02*
D03*
X19318Y-338D02*
D03*
X19574D02*
D03*
X19062D02*
D03*
X19830Y1530D02*
D03*
X19574D02*
D03*
X19830Y-338D02*
D03*
X19318Y1530D02*
D03*
X30542D02*
D03*
X30798Y-338D02*
D03*
X31054D02*
D03*
X30542D02*
D03*
X31310Y1530D02*
D03*
X31054D02*
D03*
X31310Y-338D02*
D03*
X30798Y1530D02*
D03*
X7582Y12120D02*
D03*
X7838Y10251D02*
D03*
X8094D02*
D03*
X7582D02*
D03*
X8350Y12120D02*
D03*
X8094D02*
D03*
X8350Y10251D02*
D03*
X7838Y12120D02*
D03*
X19062D02*
D03*
X19318Y10251D02*
D03*
X19574D02*
D03*
X19062D02*
D03*
X19830Y12120D02*
D03*
X19574D02*
D03*
X19830Y10251D02*
D03*
X19318Y12120D02*
D03*
X30542D02*
D03*
X30798Y10251D02*
D03*
X31054D02*
D03*
X30542D02*
D03*
X31310Y12120D02*
D03*
X31054D02*
D03*
X31310Y10251D02*
D03*
X30798Y12120D02*
D03*
X7582Y22710D02*
D03*
X7838Y20842D02*
D03*
X8094D02*
D03*
X7582D02*
D03*
X8350Y22710D02*
D03*
X8094D02*
D03*
X8350Y20842D02*
D03*
X7838Y22710D02*
D03*
X19062D02*
D03*
X19318Y20842D02*
D03*
X19574D02*
D03*
X19062D02*
D03*
X19830Y22710D02*
D03*
X19574D02*
D03*
X19830Y20842D02*
D03*
X19318Y22710D02*
D03*
X30542D02*
D03*
X30798Y20842D02*
D03*
X31054D02*
D03*
X30542D02*
D03*
X31310Y22710D02*
D03*
X31054D02*
D03*
X31310Y20842D02*
D03*
X30798Y22710D02*
D03*
D24*
X6974Y4033D02*
D03*
X7230D02*
D03*
X6974Y3167D02*
D03*
X7486D02*
D03*
X9244Y4033D02*
D03*
X9500D02*
D03*
X9244Y3167D02*
D03*
X9756D02*
D03*
X18454Y4033D02*
D03*
X18710D02*
D03*
X18454Y3167D02*
D03*
X18966D02*
D03*
X20724Y4033D02*
D03*
X20980D02*
D03*
X20724Y3167D02*
D03*
X21236D02*
D03*
X29934Y4033D02*
D03*
X30190D02*
D03*
X29934Y3167D02*
D03*
X30446D02*
D03*
X32204Y4033D02*
D03*
X32460D02*
D03*
X32204Y3167D02*
D03*
X32716D02*
D03*
X6974Y14623D02*
D03*
X7230D02*
D03*
X6974Y13757D02*
D03*
X7486D02*
D03*
X9244Y14623D02*
D03*
X9500D02*
D03*
X9244Y13757D02*
D03*
X9756D02*
D03*
X18454Y14623D02*
D03*
X18710D02*
D03*
X18454Y13757D02*
D03*
X18966D02*
D03*
X20724Y14623D02*
D03*
X20980D02*
D03*
X20724Y13757D02*
D03*
X21236D02*
D03*
X29934Y14623D02*
D03*
X30190D02*
D03*
X29934Y13757D02*
D03*
X30446D02*
D03*
X32204Y14623D02*
D03*
X32460D02*
D03*
X32204Y13757D02*
D03*
X32716D02*
D03*
X6974Y25213D02*
D03*
X7230D02*
D03*
X6974Y24347D02*
D03*
X7486D02*
D03*
X9244Y25213D02*
D03*
X9500D02*
D03*
X9244Y24347D02*
D03*
X9756D02*
D03*
X18454Y25213D02*
D03*
X18710D02*
D03*
X18454Y24347D02*
D03*
X18966D02*
D03*
X20724Y25213D02*
D03*
X20980D02*
D03*
X20724Y24347D02*
D03*
X21236D02*
D03*
X29934Y25213D02*
D03*
X30190D02*
D03*
X29934Y24347D02*
D03*
X30446D02*
D03*
X32204Y25213D02*
D03*
X32460D02*
D03*
X32204Y24347D02*
D03*
X32716D02*
D03*
D25*
X7486Y4033D02*
D03*
X9756D02*
D03*
X18966D02*
D03*
X21236D02*
D03*
X30446D02*
D03*
X32716D02*
D03*
X7486Y14623D02*
D03*
X9756D02*
D03*
X18966D02*
D03*
X21236D02*
D03*
X30446D02*
D03*
X32716D02*
D03*
X7486Y25213D02*
D03*
X9756D02*
D03*
X18966D02*
D03*
X21236D02*
D03*
X30446D02*
D03*
X32716D02*
D03*
D26*
X1650Y300D02*
D03*
X2044D02*
D03*
X1847Y-212D02*
D03*
X1610Y5240D02*
D03*
X2004D02*
D03*
X1807Y4728D02*
D03*
X13130Y300D02*
D03*
X13524D02*
D03*
X13327Y-212D02*
D03*
X13090Y5240D02*
D03*
X13484D02*
D03*
X13287Y4728D02*
D03*
X24610Y300D02*
D03*
X25004D02*
D03*
X24807Y-212D02*
D03*
X24570Y5240D02*
D03*
X24964D02*
D03*
X24767Y4728D02*
D03*
X1650Y10890D02*
D03*
X2044D02*
D03*
X1847Y10378D02*
D03*
X1610Y15830D02*
D03*
X2004D02*
D03*
X1807Y15318D02*
D03*
X13130Y10890D02*
D03*
X13524D02*
D03*
X13327Y10378D02*
D03*
X13090Y15830D02*
D03*
X13484D02*
D03*
X13287Y15318D02*
D03*
X24610Y10890D02*
D03*
X25004D02*
D03*
X24807Y10378D02*
D03*
X24570Y15830D02*
D03*
X24964D02*
D03*
X24767Y15318D02*
D03*
X1650Y21480D02*
D03*
X2044D02*
D03*
X1847Y20968D02*
D03*
X1610Y26420D02*
D03*
X2004D02*
D03*
X1807Y25908D02*
D03*
X13130Y21480D02*
D03*
X13524D02*
D03*
X13327Y20968D02*
D03*
X13090Y26420D02*
D03*
X13484D02*
D03*
X13287Y25908D02*
D03*
X24610Y21480D02*
D03*
X25004D02*
D03*
X24807Y20968D02*
D03*
X24570Y26420D02*
D03*
X24964D02*
D03*
X24767Y25908D02*
D03*
D27*
X5585Y4779D02*
D03*
X6096Y7850D02*
D03*
X7120Y4779D02*
D03*
X5585Y7850D02*
D03*
X6608D02*
D03*
X5840Y4779D02*
D03*
X6096D02*
D03*
X6352Y7850D02*
D03*
X6608Y4779D02*
D03*
X6864D02*
D03*
X7120Y7850D02*
D03*
X4817D02*
D03*
X5073Y4779D02*
D03*
X5840Y7850D02*
D03*
X6864D02*
D03*
X5329D02*
D03*
X5073D02*
D03*
X4817Y4779D02*
D03*
X6352D02*
D03*
X5329D02*
D03*
X17065D02*
D03*
X17576Y7850D02*
D03*
X18600Y4779D02*
D03*
X17065Y7850D02*
D03*
X18088D02*
D03*
X17320Y4779D02*
D03*
X17576D02*
D03*
X17832Y7850D02*
D03*
X18088Y4779D02*
D03*
X18344D02*
D03*
X18600Y7850D02*
D03*
X16297D02*
D03*
X16553Y4779D02*
D03*
X17320Y7850D02*
D03*
X18344D02*
D03*
X16809D02*
D03*
X16553D02*
D03*
X16297Y4779D02*
D03*
X17832D02*
D03*
X16809D02*
D03*
X28545D02*
D03*
X29056Y7850D02*
D03*
X30080Y4779D02*
D03*
X28545Y7850D02*
D03*
X29568D02*
D03*
X28800Y4779D02*
D03*
X29056D02*
D03*
X29312Y7850D02*
D03*
X29568Y4779D02*
D03*
X29824D02*
D03*
X30080Y7850D02*
D03*
X27777D02*
D03*
X28033Y4779D02*
D03*
X28800Y7850D02*
D03*
X29824D02*
D03*
X28289D02*
D03*
X28033D02*
D03*
X27777Y4779D02*
D03*
X29312D02*
D03*
X28289D02*
D03*
X5585Y15369D02*
D03*
X6096Y18440D02*
D03*
X7120Y15369D02*
D03*
X5585Y18440D02*
D03*
X6608D02*
D03*
X5840Y15369D02*
D03*
X6096D02*
D03*
X6352Y18440D02*
D03*
X6608Y15369D02*
D03*
X6864D02*
D03*
X7120Y18440D02*
D03*
X4817D02*
D03*
X5073Y15369D02*
D03*
X5840Y18440D02*
D03*
X6864D02*
D03*
X5329D02*
D03*
X5073D02*
D03*
X4817Y15369D02*
D03*
X6352D02*
D03*
X5329D02*
D03*
X17065D02*
D03*
X17576Y18440D02*
D03*
X18600Y15369D02*
D03*
X17065Y18440D02*
D03*
X18088D02*
D03*
X17320Y15369D02*
D03*
X17576D02*
D03*
X17832Y18440D02*
D03*
X18088Y15369D02*
D03*
X18344D02*
D03*
X18600Y18440D02*
D03*
X16297D02*
D03*
X16553Y15369D02*
D03*
X17320Y18440D02*
D03*
X18344D02*
D03*
X16809D02*
D03*
X16553D02*
D03*
X16297Y15369D02*
D03*
X17832D02*
D03*
X16809D02*
D03*
X28545D02*
D03*
X29056Y18440D02*
D03*
X30080Y15369D02*
D03*
X28545Y18440D02*
D03*
X29568D02*
D03*
X28800Y15369D02*
D03*
X29056D02*
D03*
X29312Y18440D02*
D03*
X29568Y15369D02*
D03*
X29824D02*
D03*
X30080Y18440D02*
D03*
X27777D02*
D03*
X28033Y15369D02*
D03*
X28800Y18440D02*
D03*
X29824D02*
D03*
X28289D02*
D03*
X28033D02*
D03*
X27777Y15369D02*
D03*
X29312D02*
D03*
X28289D02*
D03*
X5585Y25959D02*
D03*
X6096Y29030D02*
D03*
X7120Y25959D02*
D03*
X5585Y29030D02*
D03*
X6608D02*
D03*
X5840Y25959D02*
D03*
X6096D02*
D03*
X6352Y29030D02*
D03*
X6608Y25959D02*
D03*
X6864D02*
D03*
X7120Y29030D02*
D03*
X4817D02*
D03*
X5073Y25959D02*
D03*
X5840Y29030D02*
D03*
X6864D02*
D03*
X5329D02*
D03*
X5073D02*
D03*
X4817Y25959D02*
D03*
X6352D02*
D03*
X5329D02*
D03*
X17065D02*
D03*
X17576Y29030D02*
D03*
X18600Y25959D02*
D03*
X17065Y29030D02*
D03*
X18088D02*
D03*
X17320Y25959D02*
D03*
X17576D02*
D03*
X17832Y29030D02*
D03*
X18088Y25959D02*
D03*
X18344D02*
D03*
X18600Y29030D02*
D03*
X16297D02*
D03*
X16553Y25959D02*
D03*
X17320Y29030D02*
D03*
X18344D02*
D03*
X16809D02*
D03*
X16553D02*
D03*
X16297Y25959D02*
D03*
X17832D02*
D03*
X16809D02*
D03*
X28545D02*
D03*
X29056Y29030D02*
D03*
X30080Y25959D02*
D03*
X28545Y29030D02*
D03*
X29568D02*
D03*
X28800Y25959D02*
D03*
X29056D02*
D03*
X29312Y29030D02*
D03*
X29568Y25959D02*
D03*
X29824D02*
D03*
X30080Y29030D02*
D03*
X27777D02*
D03*
X28033Y25959D02*
D03*
X28800Y29030D02*
D03*
X29824D02*
D03*
X28289D02*
D03*
X28033D02*
D03*
X27777Y25959D02*
D03*
X29312D02*
D03*
X28289D02*
D03*
D28*
X3350Y6900D02*
D03*
Y7900D02*
D03*
X4100D02*
D03*
X3720Y6900D02*
D03*
X4100D02*
D03*
X14830D02*
D03*
Y7900D02*
D03*
X15580D02*
D03*
X15200Y6900D02*
D03*
X15580D02*
D03*
X26310D02*
D03*
Y7900D02*
D03*
X27060D02*
D03*
X26680Y6900D02*
D03*
X27060D02*
D03*
X3350Y17490D02*
D03*
Y18490D02*
D03*
X4100D02*
D03*
X3720Y17490D02*
D03*
X4100D02*
D03*
X14830D02*
D03*
Y18490D02*
D03*
X15580D02*
D03*
X15200Y17490D02*
D03*
X15580D02*
D03*
X26310D02*
D03*
Y18490D02*
D03*
X27060D02*
D03*
X26680Y17490D02*
D03*
X27060D02*
D03*
X3350Y28080D02*
D03*
Y29080D02*
D03*
X4100D02*
D03*
X3720Y28080D02*
D03*
X4100D02*
D03*
X14830D02*
D03*
Y29080D02*
D03*
X15580D02*
D03*
X15200Y28080D02*
D03*
X15580D02*
D03*
X26310D02*
D03*
Y29080D02*
D03*
X27060D02*
D03*
X26680Y28080D02*
D03*
X27060D02*
D03*
D29*
X8090Y6468D02*
D03*
Y7412D02*
D03*
X19570Y6468D02*
D03*
Y7412D02*
D03*
X31050Y6468D02*
D03*
Y7412D02*
D03*
X8090Y17058D02*
D03*
Y18002D02*
D03*
X19570Y17058D02*
D03*
Y18002D02*
D03*
X31050Y17058D02*
D03*
Y18002D02*
D03*
X8090Y27648D02*
D03*
Y28592D02*
D03*
X19570Y27648D02*
D03*
Y28592D02*
D03*
X31050Y27648D02*
D03*
Y28592D02*
D03*
D30*
X-370Y8770D02*
D03*
X3000Y8440D02*
D03*
X11110Y8770D02*
D03*
X14480Y8440D02*
D03*
X22590Y8770D02*
D03*
X25960Y8440D02*
D03*
X-370Y19360D02*
D03*
X3000Y19030D02*
D03*
X11110Y19360D02*
D03*
X14480Y19030D02*
D03*
X22590Y19360D02*
D03*
X25960Y19030D02*
D03*
X-370Y29950D02*
D03*
X3000Y29620D02*
D03*
X11110Y29950D02*
D03*
X14480Y29620D02*
D03*
X22590Y29950D02*
D03*
X25960Y29620D02*
D03*
D31*
X9520Y2540D02*
X9740Y2760D01*
X8440Y2540D02*
X9520D01*
X9740Y2760D02*
Y3151D01*
X7815Y2800D02*
X8190D01*
X7565Y3050D02*
X7815Y2800D01*
X8150Y2580D02*
X8490Y2240D01*
X7570Y2580D02*
X8150D01*
X8190Y2800D02*
X8440Y2540D01*
X6740Y5990D02*
X6910D01*
X6740D02*
X6750Y6000D01*
X5329Y6829D02*
Y7850D01*
X5150Y6650D02*
X5329Y6829D01*
X4850Y6850D02*
X5073Y7073D01*
Y7850D01*
X4490Y4640D02*
Y7023D01*
X4817Y7350D01*
Y7850D01*
X6740Y6590D02*
X6940D01*
X6352Y6202D02*
X6740Y6590D01*
X6352Y4779D02*
Y6202D01*
X8040Y8290D02*
X8290Y8540D01*
Y8690D01*
X6502Y8290D02*
X8040D01*
X6352Y8140D02*
X6502Y8290D01*
X7640Y4890D02*
X7890D01*
X6390Y8640D02*
X6640D01*
X6790Y8790D01*
X4200Y4350D02*
X4490Y4640D01*
X9624Y4386D02*
X9756Y4254D01*
X3400Y4070D02*
X3680Y4350D01*
X4200D01*
X7390Y2760D02*
X7570Y2580D01*
X9756Y4033D02*
Y4254D01*
X6352Y7850D02*
Y8140D01*
X5840Y4140D02*
X6096Y4396D01*
Y4779D01*
X9740Y3151D02*
X9756Y3167D01*
X7450Y4600D02*
X7760Y4290D01*
X5329Y4779D02*
Y6479D01*
X5850Y7000D01*
X6096Y4779D02*
Y5790D01*
X5840Y4779D02*
Y5610D01*
X5800Y5650D02*
X5840Y5610D01*
X5580Y4784D02*
X5585Y4779D01*
X5580Y4784D02*
Y6280D01*
X5850Y6550D01*
X6608Y7390D02*
Y7850D01*
Y7390D02*
X6819Y7180D01*
X7320D01*
X6352Y7290D02*
Y7850D01*
Y7290D02*
X6642Y7000D01*
X7230D01*
X7770Y5440D02*
X8990D01*
X9090Y5340D01*
X7090Y5440D02*
X7640Y4890D01*
X7090Y5440D02*
Y5810D01*
X6910Y5990D02*
X7090Y5810D01*
X7320Y7180D02*
X7590Y6910D01*
X7230Y7000D02*
X7430Y6800D01*
X7590Y6090D02*
Y6910D01*
Y6090D02*
X7890Y5790D01*
X7430Y5780D02*
Y6800D01*
Y5780D02*
X7770Y5440D01*
X9090Y4740D02*
Y4807D01*
X8707Y5190D02*
X9090Y4807D01*
X7740Y5190D02*
X8707D01*
X7250Y5680D02*
X7740Y5190D01*
X7250Y5680D02*
Y6630D01*
X7040Y6840D02*
X7250Y6630D01*
X6500Y6840D02*
X7040D01*
X6340Y7000D02*
X6500Y6840D01*
X5850Y7000D02*
X6340D01*
X8350Y3600D02*
Y4020D01*
X8470Y4140D01*
X8890D01*
X8997Y4033D01*
X9244D01*
X7760Y4290D02*
X8394D01*
X8490Y4386D01*
X9624D01*
X8750Y6200D02*
X8880Y6330D01*
X9200D02*
X9270Y6400D01*
X8880Y6330D02*
X9200D01*
X9500Y6350D02*
X9650Y6500D01*
X9270Y6400D02*
Y6820D01*
X9650Y7200D01*
X21000Y2540D02*
X21220Y2760D01*
X19920Y2540D02*
X21000D01*
X21220Y2760D02*
Y3151D01*
X19295Y2800D02*
X19670D01*
X19045Y3050D02*
X19295Y2800D01*
X19630Y2580D02*
X19970Y2240D01*
X19050Y2580D02*
X19630D01*
X19670Y2800D02*
X19920Y2540D01*
X18220Y5990D02*
X18390D01*
X18220D02*
X18230Y6000D01*
X16809Y6829D02*
Y7850D01*
X16630Y6650D02*
X16809Y6829D01*
X16330Y6850D02*
X16553Y7073D01*
Y7850D01*
X15970Y4640D02*
Y7023D01*
X16297Y7350D01*
Y7850D01*
X18220Y6590D02*
X18420D01*
X17832Y6202D02*
X18220Y6590D01*
X17832Y4779D02*
Y6202D01*
X19520Y8290D02*
X19770Y8540D01*
Y8690D01*
X17982Y8290D02*
X19520D01*
X17832Y8140D02*
X17982Y8290D01*
X19120Y4890D02*
X19370D01*
X17870Y8640D02*
X18120D01*
X18270Y8790D01*
X15680Y4350D02*
X15970Y4640D01*
X21104Y4386D02*
X21236Y4254D01*
X14880Y4070D02*
X15160Y4350D01*
X15680D01*
X18870Y2760D02*
X19050Y2580D01*
X21236Y4033D02*
Y4254D01*
X17832Y7850D02*
Y8140D01*
X17320Y4140D02*
X17576Y4396D01*
Y4779D01*
X21220Y3151D02*
X21236Y3167D01*
X18930Y4600D02*
X19240Y4290D01*
X16809Y4779D02*
Y6479D01*
X17330Y7000D01*
X17576Y4779D02*
Y5790D01*
X17320Y4779D02*
Y5610D01*
X17280Y5650D02*
X17320Y5610D01*
X17060Y4784D02*
X17065Y4779D01*
X17060Y4784D02*
Y6280D01*
X17330Y6550D01*
X18088Y7390D02*
Y7850D01*
Y7390D02*
X18299Y7180D01*
X18800D01*
X17832Y7290D02*
Y7850D01*
Y7290D02*
X18122Y7000D01*
X18710D01*
X19250Y5440D02*
X20470D01*
X20570Y5340D01*
X18570Y5440D02*
X19120Y4890D01*
X18570Y5440D02*
Y5810D01*
X18390Y5990D02*
X18570Y5810D01*
X18800Y7180D02*
X19070Y6910D01*
X18710Y7000D02*
X18910Y6800D01*
X19070Y6090D02*
Y6910D01*
Y6090D02*
X19370Y5790D01*
X18910Y5780D02*
Y6800D01*
Y5780D02*
X19250Y5440D01*
X20570Y4740D02*
Y4807D01*
X20187Y5190D02*
X20570Y4807D01*
X19220Y5190D02*
X20187D01*
X18730Y5680D02*
X19220Y5190D01*
X18730Y5680D02*
Y6630D01*
X18520Y6840D02*
X18730Y6630D01*
X17980Y6840D02*
X18520D01*
X17820Y7000D02*
X17980Y6840D01*
X17330Y7000D02*
X17820D01*
X19830Y3600D02*
Y4020D01*
X19950Y4140D01*
X20370D01*
X20477Y4033D01*
X20724D01*
X19240Y4290D02*
X19874D01*
X19970Y4386D01*
X21104D01*
X20230Y6200D02*
X20360Y6330D01*
X20680D02*
X20750Y6400D01*
X20360Y6330D02*
X20680D01*
X20980Y6350D02*
X21130Y6500D01*
X20750Y6400D02*
Y6820D01*
X21130Y7200D01*
X32480Y2540D02*
X32700Y2760D01*
X31400Y2540D02*
X32480D01*
X32700Y2760D02*
Y3151D01*
X30775Y2800D02*
X31150D01*
X30525Y3050D02*
X30775Y2800D01*
X31110Y2580D02*
X31450Y2240D01*
X30530Y2580D02*
X31110D01*
X31150Y2800D02*
X31400Y2540D01*
X29700Y5990D02*
X29870D01*
X29700D02*
X29710Y6000D01*
X28289Y6829D02*
Y7850D01*
X28110Y6650D02*
X28289Y6829D01*
X27810Y6850D02*
X28033Y7073D01*
Y7850D01*
X27450Y4640D02*
Y7023D01*
X27777Y7350D01*
Y7850D01*
X29700Y6590D02*
X29900D01*
X29312Y6202D02*
X29700Y6590D01*
X29312Y4779D02*
Y6202D01*
X31000Y8290D02*
X31250Y8540D01*
Y8690D01*
X29462Y8290D02*
X31000D01*
X29312Y8140D02*
X29462Y8290D01*
X30600Y4890D02*
X30850D01*
X29350Y8640D02*
X29600D01*
X29750Y8790D01*
X27160Y4350D02*
X27450Y4640D01*
X32584Y4386D02*
X32716Y4254D01*
X26360Y4070D02*
X26640Y4350D01*
X27160D01*
X30350Y2760D02*
X30530Y2580D01*
X32716Y4033D02*
Y4254D01*
X29312Y7850D02*
Y8140D01*
X28800Y4140D02*
X29056Y4396D01*
Y4779D01*
X32700Y3151D02*
X32716Y3167D01*
X30410Y4600D02*
X30720Y4290D01*
X28289Y4779D02*
Y6479D01*
X28810Y7000D01*
X29056Y4779D02*
Y5790D01*
X28800Y4779D02*
Y5610D01*
X28760Y5650D02*
X28800Y5610D01*
X28540Y4784D02*
X28545Y4779D01*
X28540Y4784D02*
Y6280D01*
X28810Y6550D01*
X29568Y7390D02*
Y7850D01*
Y7390D02*
X29779Y7180D01*
X30280D01*
X29312Y7290D02*
Y7850D01*
Y7290D02*
X29602Y7000D01*
X30190D01*
X30730Y5440D02*
X31950D01*
X32050Y5340D01*
X30050Y5440D02*
X30600Y4890D01*
X30050Y5440D02*
Y5810D01*
X29870Y5990D02*
X30050Y5810D01*
X30280Y7180D02*
X30550Y6910D01*
X30190Y7000D02*
X30390Y6800D01*
X30550Y6090D02*
Y6910D01*
Y6090D02*
X30850Y5790D01*
X30390Y5780D02*
Y6800D01*
Y5780D02*
X30730Y5440D01*
X32050Y4740D02*
Y4807D01*
X31667Y5190D02*
X32050Y4807D01*
X30700Y5190D02*
X31667D01*
X30210Y5680D02*
X30700Y5190D01*
X30210Y5680D02*
Y6630D01*
X30000Y6840D02*
X30210Y6630D01*
X29460Y6840D02*
X30000D01*
X29300Y7000D02*
X29460Y6840D01*
X28810Y7000D02*
X29300D01*
X31310Y3600D02*
Y4020D01*
X31430Y4140D01*
X31850D01*
X31957Y4033D01*
X32204D01*
X30720Y4290D02*
X31354D01*
X31450Y4386D01*
X32584D01*
X31710Y6200D02*
X31840Y6330D01*
X32160D02*
X32230Y6400D01*
X31840Y6330D02*
X32160D01*
X32460Y6350D02*
X32610Y6500D01*
X32230Y6400D02*
Y6820D01*
X32610Y7200D01*
X9520Y13130D02*
X9740Y13350D01*
X8440Y13130D02*
X9520D01*
X9740Y13350D02*
Y13741D01*
X7815Y13390D02*
X8190D01*
X7565Y13640D02*
X7815Y13390D01*
X8150Y13170D02*
X8490Y12830D01*
X7570Y13170D02*
X8150D01*
X8190Y13390D02*
X8440Y13130D01*
X6740Y16580D02*
X6910D01*
X6740D02*
X6750Y16590D01*
X5329Y17419D02*
Y18440D01*
X5150Y17240D02*
X5329Y17419D01*
X4850Y17440D02*
X5073Y17663D01*
Y18440D01*
X4490Y15230D02*
Y17613D01*
X4817Y17940D01*
Y18440D01*
X6740Y17180D02*
X6940D01*
X6352Y16792D02*
X6740Y17180D01*
X6352Y15369D02*
Y16792D01*
X8040Y18880D02*
X8290Y19130D01*
Y19280D01*
X6502Y18880D02*
X8040D01*
X6352Y18730D02*
X6502Y18880D01*
X7640Y15480D02*
X7890D01*
X6390Y19230D02*
X6640D01*
X6790Y19380D01*
X4200Y14940D02*
X4490Y15230D01*
X9624Y14976D02*
X9756Y14844D01*
X3400Y14660D02*
X3680Y14940D01*
X4200D01*
X7390Y13350D02*
X7570Y13170D01*
X9756Y14623D02*
Y14844D01*
X6352Y18440D02*
Y18730D01*
X5840Y14730D02*
X6096Y14986D01*
Y15369D01*
X9740Y13741D02*
X9756Y13757D01*
X7450Y15190D02*
X7760Y14880D01*
X5329Y15369D02*
Y17069D01*
X5850Y17590D01*
X6096Y15369D02*
Y16380D01*
X5840Y15369D02*
Y16200D01*
X5800Y16240D02*
X5840Y16200D01*
X5580Y15374D02*
X5585Y15369D01*
X5580Y15374D02*
Y16870D01*
X5850Y17140D01*
X6608Y17980D02*
Y18440D01*
Y17980D02*
X6819Y17770D01*
X7320D01*
X6352Y17880D02*
Y18440D01*
Y17880D02*
X6642Y17590D01*
X7230D01*
X7770Y16030D02*
X8990D01*
X9090Y15930D01*
X7090Y16030D02*
X7640Y15480D01*
X7090Y16030D02*
Y16400D01*
X6910Y16580D02*
X7090Y16400D01*
X7320Y17770D02*
X7590Y17500D01*
X7230Y17590D02*
X7430Y17390D01*
X7590Y16680D02*
Y17500D01*
Y16680D02*
X7890Y16380D01*
X7430Y16370D02*
Y17390D01*
Y16370D02*
X7770Y16030D01*
X9090Y15330D02*
Y15397D01*
X8707Y15780D02*
X9090Y15397D01*
X7740Y15780D02*
X8707D01*
X7250Y16270D02*
X7740Y15780D01*
X7250Y16270D02*
Y17220D01*
X7040Y17430D02*
X7250Y17220D01*
X6500Y17430D02*
X7040D01*
X6340Y17590D02*
X6500Y17430D01*
X5850Y17590D02*
X6340D01*
X8350Y14190D02*
Y14610D01*
X8470Y14730D01*
X8890D01*
X8997Y14623D01*
X9244D01*
X7760Y14880D02*
X8394D01*
X8490Y14976D01*
X9624D01*
X8750Y16790D02*
X8880Y16920D01*
X9200D02*
X9270Y16990D01*
X8880Y16920D02*
X9200D01*
X9500Y16940D02*
X9650Y17090D01*
X9270Y16990D02*
Y17410D01*
X9650Y17790D01*
X21000Y13130D02*
X21220Y13350D01*
X19920Y13130D02*
X21000D01*
X21220Y13350D02*
Y13741D01*
X19295Y13390D02*
X19670D01*
X19045Y13640D02*
X19295Y13390D01*
X19630Y13170D02*
X19970Y12830D01*
X19050Y13170D02*
X19630D01*
X19670Y13390D02*
X19920Y13130D01*
X18220Y16580D02*
X18390D01*
X18220D02*
X18230Y16590D01*
X16809Y17419D02*
Y18440D01*
X16630Y17240D02*
X16809Y17419D01*
X16330Y17440D02*
X16553Y17663D01*
Y18440D01*
X15970Y15230D02*
Y17613D01*
X16297Y17940D01*
Y18440D01*
X18220Y17180D02*
X18420D01*
X17832Y16792D02*
X18220Y17180D01*
X17832Y15369D02*
Y16792D01*
X19520Y18880D02*
X19770Y19130D01*
Y19280D01*
X17982Y18880D02*
X19520D01*
X17832Y18730D02*
X17982Y18880D01*
X19120Y15480D02*
X19370D01*
X17870Y19230D02*
X18120D01*
X18270Y19380D01*
X15680Y14940D02*
X15970Y15230D01*
X21104Y14976D02*
X21236Y14844D01*
X14880Y14660D02*
X15160Y14940D01*
X15680D01*
X18870Y13350D02*
X19050Y13170D01*
X21236Y14623D02*
Y14844D01*
X17832Y18440D02*
Y18730D01*
X17320Y14730D02*
X17576Y14986D01*
Y15369D01*
X21220Y13741D02*
X21236Y13757D01*
X18930Y15190D02*
X19240Y14880D01*
X16809Y15369D02*
Y17069D01*
X17330Y17590D01*
X17576Y15369D02*
Y16380D01*
X17320Y15369D02*
Y16200D01*
X17280Y16240D02*
X17320Y16200D01*
X17060Y15374D02*
X17065Y15369D01*
X17060Y15374D02*
Y16870D01*
X17330Y17140D01*
X18088Y17980D02*
Y18440D01*
Y17980D02*
X18299Y17770D01*
X18800D01*
X17832Y17880D02*
Y18440D01*
Y17880D02*
X18122Y17590D01*
X18710D01*
X19250Y16030D02*
X20470D01*
X20570Y15930D01*
X18570Y16030D02*
X19120Y15480D01*
X18570Y16030D02*
Y16400D01*
X18390Y16580D02*
X18570Y16400D01*
X18800Y17770D02*
X19070Y17500D01*
X18710Y17590D02*
X18910Y17390D01*
X19070Y16680D02*
Y17500D01*
Y16680D02*
X19370Y16380D01*
X18910Y16370D02*
Y17390D01*
Y16370D02*
X19250Y16030D01*
X20570Y15330D02*
Y15397D01*
X20187Y15780D02*
X20570Y15397D01*
X19220Y15780D02*
X20187D01*
X18730Y16270D02*
X19220Y15780D01*
X18730Y16270D02*
Y17220D01*
X18520Y17430D02*
X18730Y17220D01*
X17980Y17430D02*
X18520D01*
X17820Y17590D02*
X17980Y17430D01*
X17330Y17590D02*
X17820D01*
X19830Y14190D02*
Y14610D01*
X19950Y14730D01*
X20370D01*
X20477Y14623D01*
X20724D01*
X19240Y14880D02*
X19874D01*
X19970Y14976D01*
X21104D01*
X20230Y16790D02*
X20360Y16920D01*
X20680D02*
X20750Y16990D01*
X20360Y16920D02*
X20680D01*
X20980Y16940D02*
X21130Y17090D01*
X20750Y16990D02*
Y17410D01*
X21130Y17790D01*
X32480Y13130D02*
X32700Y13350D01*
X31400Y13130D02*
X32480D01*
X32700Y13350D02*
Y13741D01*
X30775Y13390D02*
X31150D01*
X30525Y13640D02*
X30775Y13390D01*
X31110Y13170D02*
X31450Y12830D01*
X30530Y13170D02*
X31110D01*
X31150Y13390D02*
X31400Y13130D01*
X29700Y16580D02*
X29870D01*
X29700D02*
X29710Y16590D01*
X28289Y17419D02*
Y18440D01*
X28110Y17240D02*
X28289Y17419D01*
X27810Y17440D02*
X28033Y17663D01*
Y18440D01*
X27450Y15230D02*
Y17613D01*
X27777Y17940D01*
Y18440D01*
X29700Y17180D02*
X29900D01*
X29312Y16792D02*
X29700Y17180D01*
X29312Y15369D02*
Y16792D01*
X31000Y18880D02*
X31250Y19130D01*
Y19280D01*
X29462Y18880D02*
X31000D01*
X29312Y18730D02*
X29462Y18880D01*
X30600Y15480D02*
X30850D01*
X29350Y19230D02*
X29600D01*
X29750Y19380D01*
X27160Y14940D02*
X27450Y15230D01*
X32584Y14976D02*
X32716Y14844D01*
X26360Y14660D02*
X26640Y14940D01*
X27160D01*
X30350Y13350D02*
X30530Y13170D01*
X32716Y14623D02*
Y14844D01*
X29312Y18440D02*
Y18730D01*
X28800Y14730D02*
X29056Y14986D01*
Y15369D01*
X32700Y13741D02*
X32716Y13757D01*
X30410Y15190D02*
X30720Y14880D01*
X28289Y15369D02*
Y17069D01*
X28810Y17590D01*
X29056Y15369D02*
Y16380D01*
X28800Y15369D02*
Y16200D01*
X28760Y16240D02*
X28800Y16200D01*
X28540Y15374D02*
X28545Y15369D01*
X28540Y15374D02*
Y16870D01*
X28810Y17140D01*
X29568Y17980D02*
Y18440D01*
Y17980D02*
X29779Y17770D01*
X30280D01*
X29312Y17880D02*
Y18440D01*
Y17880D02*
X29602Y17590D01*
X30190D01*
X30730Y16030D02*
X31950D01*
X32050Y15930D01*
X30050Y16030D02*
X30600Y15480D01*
X30050Y16030D02*
Y16400D01*
X29870Y16580D02*
X30050Y16400D01*
X30280Y17770D02*
X30550Y17500D01*
X30190Y17590D02*
X30390Y17390D01*
X30550Y16680D02*
Y17500D01*
Y16680D02*
X30850Y16380D01*
X30390Y16370D02*
Y17390D01*
Y16370D02*
X30730Y16030D01*
X32050Y15330D02*
Y15397D01*
X31667Y15780D02*
X32050Y15397D01*
X30700Y15780D02*
X31667D01*
X30210Y16270D02*
X30700Y15780D01*
X30210Y16270D02*
Y17220D01*
X30000Y17430D02*
X30210Y17220D01*
X29460Y17430D02*
X30000D01*
X29300Y17590D02*
X29460Y17430D01*
X28810Y17590D02*
X29300D01*
X31310Y14190D02*
Y14610D01*
X31430Y14730D01*
X31850D01*
X31957Y14623D01*
X32204D01*
X30720Y14880D02*
X31354D01*
X31450Y14976D01*
X32584D01*
X31710Y16790D02*
X31840Y16920D01*
X32160D02*
X32230Y16990D01*
X31840Y16920D02*
X32160D01*
X32460Y16940D02*
X32610Y17090D01*
X32230Y16990D02*
Y17410D01*
X32610Y17790D01*
X9520Y23720D02*
X9740Y23940D01*
X8440Y23720D02*
X9520D01*
X9740Y23940D02*
Y24331D01*
X7815Y23980D02*
X8190D01*
X7565Y24230D02*
X7815Y23980D01*
X8150Y23760D02*
X8490Y23420D01*
X7570Y23760D02*
X8150D01*
X8190Y23980D02*
X8440Y23720D01*
X6740Y27170D02*
X6910D01*
X6740D02*
X6750Y27180D01*
X5329Y28009D02*
Y29030D01*
X5150Y27830D02*
X5329Y28009D01*
X4850Y28030D02*
X5073Y28253D01*
Y29030D01*
X4490Y25820D02*
Y28203D01*
X4817Y28530D01*
Y29030D01*
X6740Y27770D02*
X6940D01*
X6352Y27382D02*
X6740Y27770D01*
X6352Y25959D02*
Y27382D01*
X8040Y29470D02*
X8290Y29720D01*
Y29870D01*
X6502Y29470D02*
X8040D01*
X6352Y29320D02*
X6502Y29470D01*
X7640Y26070D02*
X7890D01*
X6390Y29820D02*
X6640D01*
X6790Y29970D01*
X4200Y25530D02*
X4490Y25820D01*
X9624Y25566D02*
X9756Y25434D01*
X3400Y25250D02*
X3680Y25530D01*
X4200D01*
X7390Y23940D02*
X7570Y23760D01*
X9756Y25213D02*
Y25434D01*
X6352Y29030D02*
Y29320D01*
X5840Y25320D02*
X6096Y25576D01*
Y25959D01*
X9740Y24331D02*
X9756Y24347D01*
X7450Y25780D02*
X7760Y25470D01*
X5329Y25959D02*
Y27659D01*
X5850Y28180D01*
X6096Y25959D02*
Y26970D01*
X5840Y25959D02*
Y26790D01*
X5800Y26830D02*
X5840Y26790D01*
X5580Y25964D02*
X5585Y25959D01*
X5580Y25964D02*
Y27460D01*
X5850Y27730D01*
X6608Y28570D02*
Y29030D01*
Y28570D02*
X6819Y28360D01*
X7320D01*
X6352Y28470D02*
Y29030D01*
Y28470D02*
X6642Y28180D01*
X7230D01*
X7770Y26620D02*
X8990D01*
X9090Y26520D01*
X7090Y26620D02*
X7640Y26070D01*
X7090Y26620D02*
Y26990D01*
X6910Y27170D02*
X7090Y26990D01*
X7320Y28360D02*
X7590Y28090D01*
X7230Y28180D02*
X7430Y27980D01*
X7590Y27270D02*
Y28090D01*
Y27270D02*
X7890Y26970D01*
X7430Y26960D02*
Y27980D01*
Y26960D02*
X7770Y26620D01*
X9090Y25920D02*
Y25987D01*
X8707Y26370D02*
X9090Y25987D01*
X7740Y26370D02*
X8707D01*
X7250Y26860D02*
X7740Y26370D01*
X7250Y26860D02*
Y27810D01*
X7040Y28020D02*
X7250Y27810D01*
X6500Y28020D02*
X7040D01*
X6340Y28180D02*
X6500Y28020D01*
X5850Y28180D02*
X6340D01*
X8350Y24780D02*
Y25200D01*
X8470Y25320D01*
X8890D01*
X8997Y25213D01*
X9244D01*
X7760Y25470D02*
X8394D01*
X8490Y25566D01*
X9624D01*
X8750Y27380D02*
X8880Y27510D01*
X9200D02*
X9270Y27580D01*
X8880Y27510D02*
X9200D01*
X9500Y27530D02*
X9650Y27680D01*
X9270Y27580D02*
Y28000D01*
X9650Y28380D01*
X21000Y23720D02*
X21220Y23940D01*
X19920Y23720D02*
X21000D01*
X21220Y23940D02*
Y24331D01*
X19295Y23980D02*
X19670D01*
X19045Y24230D02*
X19295Y23980D01*
X19630Y23760D02*
X19970Y23420D01*
X19050Y23760D02*
X19630D01*
X19670Y23980D02*
X19920Y23720D01*
X18220Y27170D02*
X18390D01*
X18220D02*
X18230Y27180D01*
X16809Y28009D02*
Y29030D01*
X16630Y27830D02*
X16809Y28009D01*
X16330Y28030D02*
X16553Y28253D01*
Y29030D01*
X15970Y25820D02*
Y28203D01*
X16297Y28530D01*
Y29030D01*
X18220Y27770D02*
X18420D01*
X17832Y27382D02*
X18220Y27770D01*
X17832Y25959D02*
Y27382D01*
X19520Y29470D02*
X19770Y29720D01*
Y29870D01*
X17982Y29470D02*
X19520D01*
X17832Y29320D02*
X17982Y29470D01*
X19120Y26070D02*
X19370D01*
X17870Y29820D02*
X18120D01*
X18270Y29970D01*
X15680Y25530D02*
X15970Y25820D01*
X21104Y25566D02*
X21236Y25434D01*
X14880Y25250D02*
X15160Y25530D01*
X15680D01*
X18870Y23940D02*
X19050Y23760D01*
X21236Y25213D02*
Y25434D01*
X17832Y29030D02*
Y29320D01*
X17320Y25320D02*
X17576Y25576D01*
Y25959D01*
X21220Y24331D02*
X21236Y24347D01*
X18930Y25780D02*
X19240Y25470D01*
X16809Y25959D02*
Y27659D01*
X17330Y28180D01*
X17576Y25959D02*
Y26970D01*
X17320Y25959D02*
Y26790D01*
X17280Y26830D02*
X17320Y26790D01*
X17060Y25964D02*
X17065Y25959D01*
X17060Y25964D02*
Y27460D01*
X17330Y27730D01*
X18088Y28570D02*
Y29030D01*
Y28570D02*
X18299Y28360D01*
X18800D01*
X17832Y28470D02*
Y29030D01*
Y28470D02*
X18122Y28180D01*
X18710D01*
X19250Y26620D02*
X20470D01*
X20570Y26520D01*
X18570Y26620D02*
X19120Y26070D01*
X18570Y26620D02*
Y26990D01*
X18390Y27170D02*
X18570Y26990D01*
X18800Y28360D02*
X19070Y28090D01*
X18710Y28180D02*
X18910Y27980D01*
X19070Y27270D02*
Y28090D01*
Y27270D02*
X19370Y26970D01*
X18910Y26960D02*
Y27980D01*
Y26960D02*
X19250Y26620D01*
X20570Y25920D02*
Y25987D01*
X20187Y26370D02*
X20570Y25987D01*
X19220Y26370D02*
X20187D01*
X18730Y26860D02*
X19220Y26370D01*
X18730Y26860D02*
Y27810D01*
X18520Y28020D02*
X18730Y27810D01*
X17980Y28020D02*
X18520D01*
X17820Y28180D02*
X17980Y28020D01*
X17330Y28180D02*
X17820D01*
X19830Y24780D02*
Y25200D01*
X19950Y25320D01*
X20370D01*
X20477Y25213D01*
X20724D01*
X19240Y25470D02*
X19874D01*
X19970Y25566D01*
X21104D01*
X20230Y27380D02*
X20360Y27510D01*
X20680D02*
X20750Y27580D01*
X20360Y27510D02*
X20680D01*
X20980Y27530D02*
X21130Y27680D01*
X20750Y27580D02*
Y28000D01*
X21130Y28380D01*
X32480Y23720D02*
X32700Y23940D01*
X31400Y23720D02*
X32480D01*
X32700Y23940D02*
Y24331D01*
X30775Y23980D02*
X31150D01*
X30525Y24230D02*
X30775Y23980D01*
X31110Y23760D02*
X31450Y23420D01*
X30530Y23760D02*
X31110D01*
X31150Y23980D02*
X31400Y23720D01*
X29700Y27170D02*
X29870D01*
X29700D02*
X29710Y27180D01*
X28289Y28009D02*
Y29030D01*
X28110Y27830D02*
X28289Y28009D01*
X27810Y28030D02*
X28033Y28253D01*
Y29030D01*
X27450Y25820D02*
Y28203D01*
X27777Y28530D01*
Y29030D01*
X29700Y27770D02*
X29900D01*
X29312Y27382D02*
X29700Y27770D01*
X29312Y25959D02*
Y27382D01*
X31000Y29470D02*
X31250Y29720D01*
Y29870D01*
X29462Y29470D02*
X31000D01*
X29312Y29320D02*
X29462Y29470D01*
X30600Y26070D02*
X30850D01*
X29350Y29820D02*
X29600D01*
X29750Y29970D01*
X27160Y25530D02*
X27450Y25820D01*
X32584Y25566D02*
X32716Y25434D01*
X26360Y25250D02*
X26640Y25530D01*
X27160D01*
X30350Y23940D02*
X30530Y23760D01*
X32716Y25213D02*
Y25434D01*
X29312Y29030D02*
Y29320D01*
X28800Y25320D02*
X29056Y25576D01*
Y25959D01*
X32700Y24331D02*
X32716Y24347D01*
X30410Y25780D02*
X30720Y25470D01*
X28289Y25959D02*
Y27659D01*
X28810Y28180D01*
X29056Y25959D02*
Y26970D01*
X28800Y25959D02*
Y26790D01*
X28760Y26830D02*
X28800Y26790D01*
X28540Y25964D02*
X28545Y25959D01*
X28540Y25964D02*
Y27460D01*
X28810Y27730D01*
X29568Y28570D02*
Y29030D01*
Y28570D02*
X29779Y28360D01*
X30280D01*
X29312Y28470D02*
Y29030D01*
Y28470D02*
X29602Y28180D01*
X30190D01*
X30730Y26620D02*
X31950D01*
X32050Y26520D01*
X30050Y26620D02*
X30600Y26070D01*
X30050Y26620D02*
Y26990D01*
X29870Y27170D02*
X30050Y26990D01*
X30280Y28360D02*
X30550Y28090D01*
X30190Y28180D02*
X30390Y27980D01*
X30550Y27270D02*
Y28090D01*
Y27270D02*
X30850Y26970D01*
X30390Y26960D02*
Y27980D01*
Y26960D02*
X30730Y26620D01*
X32050Y25920D02*
Y25987D01*
X31667Y26370D02*
X32050Y25987D01*
X30700Y26370D02*
X31667D01*
X30210Y26860D02*
X30700Y26370D01*
X30210Y26860D02*
Y27810D01*
X30000Y28020D02*
X30210Y27810D01*
X29460Y28020D02*
X30000D01*
X29300Y28180D02*
X29460Y28020D01*
X28810Y28180D02*
X29300D01*
X31310Y24780D02*
Y25200D01*
X31430Y25320D01*
X31850D01*
X31957Y25213D01*
X32204D01*
X30720Y25470D02*
X31354D01*
X31450Y25566D01*
X32584D01*
X31710Y27380D02*
X31840Y27510D01*
X32160D02*
X32230Y27580D01*
X31840Y27510D02*
X32160D01*
X32460Y27530D02*
X32610Y27680D01*
X32230Y27580D02*
Y28000D01*
X32610Y28380D01*
X-370Y9030D02*
G03*
X-670Y8730I0J-300D01*
G01*
X10110D02*
G03*
X9810Y9030I-300J0D01*
G01*
Y-860D02*
G03*
X10110Y-560I0J300D01*
G01*
X-670D02*
G03*
X-370Y-860I300J0D01*
G01*
X-670Y-560D02*
Y8730D01*
X-370Y9030D02*
X9810D01*
X10110Y-560D02*
Y8730D01*
X-370Y-860D02*
X9810D01*
X11110Y9030D02*
G03*
X10810Y8730I0J-300D01*
G01*
X21590D02*
G03*
X21290Y9030I-300J0D01*
G01*
Y-860D02*
G03*
X21590Y-560I0J300D01*
G01*
X10810D02*
G03*
X11110Y-860I300J0D01*
G01*
X10810Y-560D02*
Y8730D01*
X11110Y9030D02*
X21290D01*
X21590Y-560D02*
Y8730D01*
X11110Y-860D02*
X21290D01*
X22590Y9030D02*
G03*
X22290Y8730I0J-300D01*
G01*
X33070D02*
G03*
X32770Y9030I-300J0D01*
G01*
Y-860D02*
G03*
X33070Y-560I0J300D01*
G01*
X22290D02*
G03*
X22590Y-860I300J0D01*
G01*
X22290Y-560D02*
Y8730D01*
X22590Y9030D02*
X32770D01*
X33070Y-560D02*
Y8730D01*
X22590Y-860D02*
X32770D01*
X-370Y19620D02*
G03*
X-670Y19320I0J-300D01*
G01*
X10110D02*
G03*
X9810Y19620I-300J0D01*
G01*
Y9730D02*
G03*
X10110Y10030I0J300D01*
G01*
X-670D02*
G03*
X-370Y9730I300J0D01*
G01*
X-670Y10030D02*
Y19320D01*
X-370Y19620D02*
X9810D01*
X10110Y10030D02*
Y19320D01*
X-370Y9730D02*
X9810D01*
X11110Y19620D02*
G03*
X10810Y19320I0J-300D01*
G01*
X21590D02*
G03*
X21290Y19620I-300J0D01*
G01*
Y9730D02*
G03*
X21590Y10030I0J300D01*
G01*
X10810D02*
G03*
X11110Y9730I300J0D01*
G01*
X10810Y10030D02*
Y19320D01*
X11110Y19620D02*
X21290D01*
X21590Y10030D02*
Y19320D01*
X11110Y9730D02*
X21290D01*
X22590Y19620D02*
G03*
X22290Y19320I0J-300D01*
G01*
X33070D02*
G03*
X32770Y19620I-300J0D01*
G01*
Y9730D02*
G03*
X33070Y10030I0J300D01*
G01*
X22290D02*
G03*
X22590Y9730I300J0D01*
G01*
X22290Y10030D02*
Y19320D01*
X22590Y19620D02*
X32770D01*
X33070Y10030D02*
Y19320D01*
X22590Y9730D02*
X32770D01*
X-370Y30210D02*
G03*
X-670Y29910I0J-300D01*
G01*
X10110D02*
G03*
X9810Y30210I-300J0D01*
G01*
Y20320D02*
G03*
X10110Y20620I0J300D01*
G01*
X-670D02*
G03*
X-370Y20320I300J0D01*
G01*
X-670Y20620D02*
Y29910D01*
X-370Y30210D02*
X9810D01*
X10110Y20620D02*
Y29910D01*
X-370Y20320D02*
X9810D01*
X11110Y30210D02*
G03*
X10810Y29910I0J-300D01*
G01*
X21590D02*
G03*
X21290Y30210I-300J0D01*
G01*
Y20320D02*
G03*
X21590Y20620I0J300D01*
G01*
X10810D02*
G03*
X11110Y20320I300J0D01*
G01*
X10810Y20620D02*
Y29910D01*
X11110Y30210D02*
X21290D01*
X21590Y20620D02*
Y29910D01*
X11110Y20320D02*
X21290D01*
X22590Y30210D02*
G03*
X22290Y29910I0J-300D01*
G01*
X33070D02*
G03*
X32770Y30210I-300J0D01*
G01*
Y20320D02*
G03*
X33070Y20620I0J300D01*
G01*
X22290D02*
G03*
X22590Y20320I300J0D01*
G01*
X22290Y20620D02*
Y29910D01*
X22590Y30210D02*
X32770D01*
X33070Y20620D02*
Y29910D01*
X22590Y20320D02*
X32770D01*
X1243Y-17059D02*
Y-17465D01*
X1217Y-17542D01*
X1192Y-17567D01*
X1141Y-17592D01*
X1090D01*
X1040Y-17567D01*
X1014Y-17542D01*
X989Y-17465D01*
Y-17415D01*
X1405Y-17542D02*
X1380Y-17567D01*
X1405Y-17592D01*
X1431Y-17567D01*
X1405Y-17542D01*
X1547Y-17059D02*
Y-17592D01*
Y-17059D02*
X1903Y-17592D01*
Y-17059D02*
Y-17592D01*
D32*
X9790Y2240D02*
X9840Y2290D01*
X8720Y1520D02*
X9090Y1890D01*
Y2240D01*
X9790D01*
X8480Y289D02*
Y826D01*
X8720Y1066D01*
Y1520D01*
X6948Y790D02*
X7240Y1082D01*
Y1520D01*
X9129Y-360D02*
X9480D01*
X4444Y256D02*
X4754D01*
X5000Y10D01*
Y250D01*
X5540Y790D01*
X6948D01*
X8849Y-80D02*
X9129Y-360D01*
X8480Y289D02*
X8849Y-80D01*
X21270Y2240D02*
X21320Y2290D01*
X20200Y1520D02*
X20570Y1890D01*
Y2240D01*
X21270D01*
X19960Y289D02*
Y826D01*
X20200Y1066D01*
Y1520D01*
X18428Y790D02*
X18720Y1082D01*
Y1520D01*
X20609Y-360D02*
X20960D01*
X15924Y256D02*
X16234D01*
X16480Y10D01*
Y250D01*
X17020Y790D01*
X18428D01*
X20329Y-80D02*
X20609Y-360D01*
X19960Y289D02*
X20329Y-80D01*
X32750Y2240D02*
X32800Y2290D01*
X31680Y1520D02*
X32050Y1890D01*
Y2240D01*
X32750D01*
X31440Y289D02*
Y826D01*
X31680Y1066D01*
Y1520D01*
X29908Y790D02*
X30200Y1082D01*
Y1520D01*
X32089Y-360D02*
X32440D01*
X27404Y256D02*
X27714D01*
X27960Y10D01*
Y250D01*
X28500Y790D01*
X29908D01*
X31809Y-80D02*
X32089Y-360D01*
X31440Y289D02*
X31809Y-80D01*
X9790Y12830D02*
X9840Y12880D01*
X8720Y12110D02*
X9090Y12480D01*
Y12830D01*
X9790D01*
X8480Y10879D02*
Y11416D01*
X8720Y11656D01*
Y12110D01*
X6948Y11380D02*
X7240Y11672D01*
Y12110D01*
X9129Y10230D02*
X9480D01*
X4444Y10846D02*
X4754D01*
X5000Y10600D01*
Y10840D01*
X5540Y11380D01*
X6948D01*
X8849Y10510D02*
X9129Y10230D01*
X8480Y10879D02*
X8849Y10510D01*
X21270Y12830D02*
X21320Y12880D01*
X20200Y12110D02*
X20570Y12480D01*
Y12830D01*
X21270D01*
X19960Y10879D02*
Y11416D01*
X20200Y11656D01*
Y12110D01*
X18428Y11380D02*
X18720Y11672D01*
Y12110D01*
X20609Y10230D02*
X20960D01*
X15924Y10846D02*
X16234D01*
X16480Y10600D01*
Y10840D01*
X17020Y11380D01*
X18428D01*
X20329Y10510D02*
X20609Y10230D01*
X19960Y10879D02*
X20329Y10510D01*
X32750Y12830D02*
X32800Y12880D01*
X31680Y12110D02*
X32050Y12480D01*
Y12830D01*
X32750D01*
X31440Y10879D02*
Y11416D01*
X31680Y11656D01*
Y12110D01*
X29908Y11380D02*
X30200Y11672D01*
Y12110D01*
X32089Y10230D02*
X32440D01*
X27404Y10846D02*
X27714D01*
X27960Y10600D01*
Y10840D01*
X28500Y11380D01*
X29908D01*
X31809Y10510D02*
X32089Y10230D01*
X31440Y10879D02*
X31809Y10510D01*
X9790Y23420D02*
X9840Y23470D01*
X8720Y22700D02*
X9090Y23070D01*
Y23420D01*
X9790D01*
X8480Y21469D02*
Y22006D01*
X8720Y22246D01*
Y22700D01*
X6948Y21970D02*
X7240Y22262D01*
Y22700D01*
X9129Y20820D02*
X9480D01*
X4444Y21436D02*
X4754D01*
X5000Y21190D01*
Y21430D01*
X5540Y21970D01*
X6948D01*
X8849Y21100D02*
X9129Y20820D01*
X8480Y21469D02*
X8849Y21100D01*
X21270Y23420D02*
X21320Y23470D01*
X20200Y22700D02*
X20570Y23070D01*
Y23420D01*
X21270D01*
X19960Y21469D02*
Y22006D01*
X20200Y22246D01*
Y22700D01*
X18428Y21970D02*
X18720Y22262D01*
Y22700D01*
X20609Y20820D02*
X20960D01*
X15924Y21436D02*
X16234D01*
X16480Y21190D01*
Y21430D01*
X17020Y21970D01*
X18428D01*
X20329Y21100D02*
X20609Y20820D01*
X19960Y21469D02*
X20329Y21100D01*
X32750Y23420D02*
X32800Y23470D01*
X31680Y22700D02*
X32050Y23070D01*
Y23420D01*
X32750D01*
X31440Y21469D02*
Y22006D01*
X31680Y22246D01*
Y22700D01*
X29908Y21970D02*
X30200Y22262D01*
Y22700D01*
X32089Y20820D02*
X32440D01*
X27404Y21436D02*
X27714D01*
X27960Y21190D01*
Y21430D01*
X28500Y21970D01*
X29908D01*
X31809Y21100D02*
X32089Y20820D01*
X31440Y21469D02*
X31809Y21100D01*
D33*
X9690Y5340D02*
Y5540D01*
Y4740D02*
Y5340D01*
X8490Y4740D02*
Y4890D01*
X3450Y820D02*
Y1159D01*
X4450Y820D02*
Y1109D01*
X3950Y2730D02*
Y3060D01*
X3400Y3470D02*
X3450Y3420D01*
X3350Y6900D02*
Y7410D01*
X6020Y1520D02*
X6020Y1520D01*
Y2140D01*
X7020Y-60D02*
Y190D01*
X7300Y470D01*
X3720Y6560D02*
Y6900D01*
X4000Y5850D02*
Y6260D01*
X3720Y6560D02*
X4010Y6270D01*
X3400Y5250D02*
X4000Y5850D01*
X5520Y810D02*
X5540Y790D01*
X5520Y810D02*
Y1390D01*
Y2140D01*
X3450Y2730D02*
Y3070D01*
Y3420D01*
X4440Y2730D02*
Y2740D01*
Y3070D01*
X2060Y6440D02*
Y6740D01*
Y7020D01*
X7840Y4540D02*
X8290D01*
X8490Y4740D01*
X9690Y5540D02*
X9800Y5650D01*
X8490Y7990D02*
X9000Y7480D01*
Y7200D02*
Y7480D01*
X8950Y7200D02*
X9000D01*
X21170Y5340D02*
Y5540D01*
Y4740D02*
Y5340D01*
X19970Y4740D02*
Y4890D01*
X14930Y820D02*
Y1159D01*
X15930Y820D02*
Y1109D01*
X15430Y2730D02*
Y3060D01*
X14880Y3470D02*
X14930Y3420D01*
X14830Y6900D02*
Y7410D01*
X17500Y1520D02*
X17500Y1520D01*
Y2140D01*
X18500Y-60D02*
Y190D01*
X18780Y470D01*
X15200Y6560D02*
Y6900D01*
X15480Y5850D02*
Y6260D01*
X15200Y6560D02*
X15490Y6270D01*
X14880Y5250D02*
X15480Y5850D01*
X17000Y810D02*
X17020Y790D01*
X17000Y810D02*
Y1390D01*
Y2140D01*
X14930Y2730D02*
Y3070D01*
Y3420D01*
X15920Y2730D02*
Y2740D01*
Y3070D01*
X13540Y6440D02*
Y6740D01*
Y7020D01*
X19320Y4540D02*
X19770D01*
X19970Y4740D01*
X21170Y5540D02*
X21280Y5650D01*
X19970Y7990D02*
X20480Y7480D01*
Y7200D02*
Y7480D01*
X20430Y7200D02*
X20480D01*
X32650Y5340D02*
Y5540D01*
Y4740D02*
Y5340D01*
X31450Y4740D02*
Y4890D01*
X26410Y820D02*
Y1159D01*
X27410Y820D02*
Y1109D01*
X26910Y2730D02*
Y3060D01*
X26360Y3470D02*
X26410Y3420D01*
X26310Y6900D02*
Y7410D01*
X28980Y1520D02*
X28980Y1520D01*
Y2140D01*
X29980Y-60D02*
Y190D01*
X30260Y470D01*
X26680Y6560D02*
Y6900D01*
X26960Y5850D02*
Y6260D01*
X26680Y6560D02*
X26970Y6270D01*
X26360Y5250D02*
X26960Y5850D01*
X28480Y810D02*
X28500Y790D01*
X28480Y810D02*
Y1390D01*
Y2140D01*
X26410Y2730D02*
Y3070D01*
Y3420D01*
X27400Y2730D02*
Y2740D01*
Y3070D01*
X25020Y6440D02*
Y6740D01*
Y7020D01*
X30800Y4540D02*
X31250D01*
X31450Y4740D01*
X32650Y5540D02*
X32760Y5650D01*
X31450Y7990D02*
X31960Y7480D01*
Y7200D02*
Y7480D01*
X31910Y7200D02*
X31960D01*
X9690Y15930D02*
Y16130D01*
Y15330D02*
Y15930D01*
X8490Y15330D02*
Y15480D01*
X3450Y11410D02*
Y11749D01*
X4450Y11410D02*
Y11699D01*
X3950Y13320D02*
Y13650D01*
X3400Y14060D02*
X3450Y14010D01*
X3350Y17490D02*
Y18000D01*
X6020Y12110D02*
X6020Y12110D01*
Y12730D01*
X7020Y10530D02*
Y10780D01*
X7300Y11060D01*
X3720Y17150D02*
Y17490D01*
X4000Y16440D02*
Y16850D01*
X3720Y17150D02*
X4010Y16860D01*
X3400Y15840D02*
X4000Y16440D01*
X5520Y11400D02*
X5540Y11380D01*
X5520Y11400D02*
Y11980D01*
Y12730D01*
X3450Y13320D02*
Y13660D01*
Y14010D01*
X4440Y13320D02*
Y13330D01*
Y13660D01*
X2060Y17030D02*
Y17330D01*
Y17610D01*
X7840Y15130D02*
X8290D01*
X8490Y15330D01*
X9690Y16130D02*
X9800Y16240D01*
X8490Y18580D02*
X9000Y18070D01*
Y17790D02*
Y18070D01*
X8950Y17790D02*
X9000D01*
X21170Y15930D02*
Y16130D01*
Y15330D02*
Y15930D01*
X19970Y15330D02*
Y15480D01*
X14930Y11410D02*
Y11749D01*
X15930Y11410D02*
Y11699D01*
X15430Y13320D02*
Y13650D01*
X14880Y14060D02*
X14930Y14010D01*
X14830Y17490D02*
Y18000D01*
X17500Y12110D02*
X17500Y12110D01*
Y12730D01*
X18500Y10530D02*
Y10780D01*
X18780Y11060D01*
X15200Y17150D02*
Y17490D01*
X15480Y16440D02*
Y16850D01*
X15200Y17150D02*
X15490Y16860D01*
X14880Y15840D02*
X15480Y16440D01*
X17000Y11400D02*
X17020Y11380D01*
X17000Y11400D02*
Y11980D01*
Y12730D01*
X14930Y13320D02*
Y13660D01*
Y14010D01*
X15920Y13320D02*
Y13330D01*
Y13660D01*
X13540Y17030D02*
Y17330D01*
Y17610D01*
X19320Y15130D02*
X19770D01*
X19970Y15330D01*
X21170Y16130D02*
X21280Y16240D01*
X19970Y18580D02*
X20480Y18070D01*
Y17790D02*
Y18070D01*
X20430Y17790D02*
X20480D01*
X32650Y15930D02*
Y16130D01*
Y15330D02*
Y15930D01*
X31450Y15330D02*
Y15480D01*
X26410Y11410D02*
Y11749D01*
X27410Y11410D02*
Y11699D01*
X26910Y13320D02*
Y13650D01*
X26360Y14060D02*
X26410Y14010D01*
X26310Y17490D02*
Y18000D01*
X28980Y12110D02*
X28980Y12110D01*
Y12730D01*
X29980Y10530D02*
Y10780D01*
X30260Y11060D01*
X26680Y17150D02*
Y17490D01*
X26960Y16440D02*
Y16850D01*
X26680Y17150D02*
X26970Y16860D01*
X26360Y15840D02*
X26960Y16440D01*
X28480Y11400D02*
X28500Y11380D01*
X28480Y11400D02*
Y11980D01*
Y12730D01*
X26410Y13320D02*
Y13660D01*
Y14010D01*
X27400Y13320D02*
Y13330D01*
Y13660D01*
X25020Y17030D02*
Y17330D01*
Y17610D01*
X30800Y15130D02*
X31250D01*
X31450Y15330D01*
X32650Y16130D02*
X32760Y16240D01*
X31450Y18580D02*
X31960Y18070D01*
Y17790D02*
Y18070D01*
X31910Y17790D02*
X31960D01*
X9690Y26520D02*
Y26720D01*
Y25920D02*
Y26520D01*
X8490Y25920D02*
Y26070D01*
X3450Y22000D02*
Y22339D01*
X4450Y22000D02*
Y22289D01*
X3950Y23910D02*
Y24240D01*
X3400Y24650D02*
X3450Y24600D01*
X3350Y28080D02*
Y28590D01*
X6020Y22700D02*
X6020Y22700D01*
Y23320D01*
X7020Y21120D02*
Y21370D01*
X7300Y21650D01*
X3720Y27740D02*
Y28080D01*
X4000Y27030D02*
Y27440D01*
X3720Y27740D02*
X4010Y27450D01*
X3400Y26430D02*
X4000Y27030D01*
X5520Y21990D02*
X5540Y21970D01*
X5520Y21990D02*
Y22570D01*
Y23320D01*
X3450Y23910D02*
Y24250D01*
Y24600D01*
X4440Y23910D02*
Y23920D01*
Y24250D01*
X2060Y27620D02*
Y27920D01*
Y28200D01*
X7840Y25720D02*
X8290D01*
X8490Y25920D01*
X9690Y26720D02*
X9800Y26830D01*
X8490Y29170D02*
X9000Y28660D01*
Y28380D02*
Y28660D01*
X8950Y28380D02*
X9000D01*
X21170Y26520D02*
Y26720D01*
Y25920D02*
Y26520D01*
X19970Y25920D02*
Y26070D01*
X14930Y22000D02*
Y22339D01*
X15930Y22000D02*
Y22289D01*
X15430Y23910D02*
Y24240D01*
X14880Y24650D02*
X14930Y24600D01*
X14830Y28080D02*
Y28590D01*
X17500Y22700D02*
X17500Y22700D01*
Y23320D01*
X18500Y21120D02*
Y21370D01*
X18780Y21650D01*
X15200Y27740D02*
Y28080D01*
X15480Y27030D02*
Y27440D01*
X15200Y27740D02*
X15490Y27450D01*
X14880Y26430D02*
X15480Y27030D01*
X17000Y21990D02*
X17020Y21970D01*
X17000Y21990D02*
Y22570D01*
Y23320D01*
X14930Y23910D02*
Y24250D01*
Y24600D01*
X15920Y23910D02*
Y23920D01*
Y24250D01*
X13540Y27620D02*
Y27920D01*
Y28200D01*
X19320Y25720D02*
X19770D01*
X19970Y25920D01*
X21170Y26720D02*
X21280Y26830D01*
X19970Y29170D02*
X20480Y28660D01*
Y28380D02*
Y28660D01*
X20430Y28380D02*
X20480D01*
X32650Y26520D02*
Y26720D01*
Y25920D02*
Y26520D01*
X31450Y25920D02*
Y26070D01*
X26410Y22000D02*
Y22339D01*
X27410Y22000D02*
Y22289D01*
X26910Y23910D02*
Y24240D01*
X26360Y24650D02*
X26410Y24600D01*
X26310Y28080D02*
Y28590D01*
X28980Y22700D02*
X28980Y22700D01*
Y23320D01*
X29980Y21120D02*
Y21370D01*
X30260Y21650D01*
X26680Y27740D02*
Y28080D01*
X26960Y27030D02*
Y27440D01*
X26680Y27740D02*
X26970Y27450D01*
X26360Y26430D02*
X26960Y27030D01*
X28480Y21990D02*
X28500Y21970D01*
X28480Y21990D02*
Y22570D01*
Y23320D01*
X26410Y23910D02*
Y24250D01*
Y24600D01*
X27400Y23910D02*
Y23920D01*
Y24250D01*
X25020Y27620D02*
Y27920D01*
Y28200D01*
X30800Y25720D02*
X31250D01*
X31450Y25920D01*
X32650Y26720D02*
X32760Y26830D01*
X31450Y29170D02*
X31960Y28660D01*
Y28380D02*
Y28660D01*
X31910Y28380D02*
X31960D01*
D34*
X1150Y300D02*
X1650D01*
X1090Y900D02*
X1150Y840D01*
Y300D02*
Y840D01*
X350Y859D02*
X391Y900D01*
X1090D01*
X2540Y1000D02*
X2550Y990D01*
Y300D02*
Y990D01*
X2044Y300D02*
X2550D01*
X830Y4440D02*
Y4710D01*
X1807Y4417D02*
Y4728D01*
X7820Y3840D02*
X8040D01*
X7486Y4033D02*
X7627D01*
X8094Y-338D02*
Y211D01*
X7838Y-338D02*
Y210D01*
X7582Y-338D02*
Y211D01*
X8470Y-80D02*
X8848D01*
X8350Y-200D02*
X8470Y-80D01*
X8350Y-338D02*
Y-200D01*
X7582Y211D02*
Y1530D01*
X2800Y4070D02*
X3400D01*
X750Y1500D02*
X1090D01*
X1040Y2040D02*
X1100Y2100D01*
Y2700D02*
X1500Y2300D01*
Y1290D02*
Y2300D01*
Y1290D02*
X1850Y940D01*
X1100Y2700D02*
Y3270D01*
X2420D01*
X1800Y4410D02*
X1807Y4417D01*
X7730Y3930D02*
X7820Y3840D01*
X7627Y4033D02*
X7730Y3930D01*
X130Y2530D02*
X480D01*
X7582Y211D02*
X7844D01*
X8094D01*
X7120Y7850D02*
X7300D01*
X7500Y8050D01*
X440Y1390D02*
Y1459D01*
Y1930D01*
Y1980D01*
X480Y2040D02*
X1040D01*
X12630Y300D02*
X13130D01*
X12570Y900D02*
X12630Y840D01*
Y300D02*
Y840D01*
X11830Y859D02*
X11871Y900D01*
X12570D01*
X14020Y1000D02*
X14030Y990D01*
Y300D02*
Y990D01*
X13524Y300D02*
X14030D01*
X12310Y4440D02*
Y4710D01*
X13287Y4417D02*
Y4728D01*
X19300Y3840D02*
X19520D01*
X18966Y4033D02*
X19107D01*
X19574Y-338D02*
Y211D01*
X19318Y-338D02*
Y210D01*
X19062Y-338D02*
Y211D01*
X19950Y-80D02*
X20328D01*
X19830Y-200D02*
X19950Y-80D01*
X19830Y-338D02*
Y-200D01*
X19062Y211D02*
Y1530D01*
X14280Y4070D02*
X14880D01*
X12230Y1500D02*
X12570D01*
X12520Y2040D02*
X12580Y2100D01*
Y2700D02*
X12980Y2300D01*
Y1290D02*
Y2300D01*
Y1290D02*
X13330Y940D01*
X12580Y2700D02*
Y3270D01*
X13900D01*
X13280Y4410D02*
X13287Y4417D01*
X19210Y3930D02*
X19300Y3840D01*
X19107Y4033D02*
X19210Y3930D01*
X11610Y2530D02*
X11960D01*
X19062Y211D02*
X19324D01*
X19574D01*
X18600Y7850D02*
X18780D01*
X18980Y8050D01*
X11920Y1390D02*
Y1459D01*
Y1930D01*
Y1980D01*
X11960Y2040D02*
X12520D01*
X24110Y300D02*
X24610D01*
X24050Y900D02*
X24110Y840D01*
Y300D02*
Y840D01*
X23310Y859D02*
X23351Y900D01*
X24050D01*
X25500Y1000D02*
X25510Y990D01*
Y300D02*
Y990D01*
X25004Y300D02*
X25510D01*
X23790Y4440D02*
Y4710D01*
X24767Y4417D02*
Y4728D01*
X30780Y3840D02*
X31000D01*
X30446Y4033D02*
X30587D01*
X31054Y-338D02*
Y211D01*
X30798Y-338D02*
Y210D01*
X30542Y-338D02*
Y211D01*
X31430Y-80D02*
X31808D01*
X31310Y-200D02*
X31430Y-80D01*
X31310Y-338D02*
Y-200D01*
X30542Y211D02*
Y1530D01*
X25760Y4070D02*
X26360D01*
X23710Y1500D02*
X24050D01*
X24000Y2040D02*
X24060Y2100D01*
Y2700D02*
X24460Y2300D01*
Y1290D02*
Y2300D01*
Y1290D02*
X24810Y940D01*
X24060Y2700D02*
Y3270D01*
X25380D01*
X24760Y4410D02*
X24767Y4417D01*
X30690Y3930D02*
X30780Y3840D01*
X30587Y4033D02*
X30690Y3930D01*
X23090Y2530D02*
X23440D01*
X30542Y211D02*
X30804D01*
X31054D01*
X30080Y7850D02*
X30260D01*
X30460Y8050D01*
X23400Y1390D02*
Y1459D01*
Y1930D01*
Y1980D01*
X23440Y2040D02*
X24000D01*
X1150Y10890D02*
X1650D01*
X1090Y11490D02*
X1150Y11430D01*
Y10890D02*
Y11430D01*
X350Y11449D02*
X391Y11490D01*
X1090D01*
X2540Y11590D02*
X2550Y11580D01*
Y10890D02*
Y11580D01*
X2044Y10890D02*
X2550D01*
X830Y15030D02*
Y15300D01*
X1807Y15007D02*
Y15318D01*
X7820Y14430D02*
X8040D01*
X7486Y14623D02*
X7627D01*
X8094Y10251D02*
Y10801D01*
X7838Y10251D02*
Y10800D01*
X7582Y10251D02*
Y10801D01*
X8470Y10510D02*
X8848D01*
X8350Y10390D02*
X8470Y10510D01*
X8350Y10251D02*
Y10390D01*
X7582Y10801D02*
Y12120D01*
X2800Y14660D02*
X3400D01*
X750Y12090D02*
X1090D01*
X1040Y12630D02*
X1100Y12690D01*
Y13290D02*
X1500Y12890D01*
Y11880D02*
Y12890D01*
Y11880D02*
X1850Y11530D01*
X1100Y13290D02*
Y13860D01*
X2420D01*
X1800Y15000D02*
X1807Y15007D01*
X7730Y14520D02*
X7820Y14430D01*
X7627Y14623D02*
X7730Y14520D01*
X130Y13120D02*
X480D01*
X7582Y10801D02*
X7844D01*
X8094D01*
X7120Y18440D02*
X7300D01*
X7500Y18640D01*
X440Y11980D02*
Y12049D01*
Y12520D01*
Y12570D01*
X480Y12630D02*
X1040D01*
X12630Y10890D02*
X13130D01*
X12570Y11490D02*
X12630Y11430D01*
Y10890D02*
Y11430D01*
X11830Y11449D02*
X11871Y11490D01*
X12570D01*
X14020Y11590D02*
X14030Y11580D01*
Y10890D02*
Y11580D01*
X13524Y10890D02*
X14030D01*
X12310Y15030D02*
Y15300D01*
X13287Y15007D02*
Y15318D01*
X19300Y14430D02*
X19520D01*
X18966Y14623D02*
X19107D01*
X19574Y10251D02*
Y10801D01*
X19318Y10251D02*
Y10800D01*
X19062Y10251D02*
Y10801D01*
X19950Y10510D02*
X20328D01*
X19830Y10390D02*
X19950Y10510D01*
X19830Y10251D02*
Y10390D01*
X19062Y10801D02*
Y12120D01*
X14280Y14660D02*
X14880D01*
X12230Y12090D02*
X12570D01*
X12520Y12630D02*
X12580Y12690D01*
Y13290D02*
X12980Y12890D01*
Y11880D02*
Y12890D01*
Y11880D02*
X13330Y11530D01*
X12580Y13290D02*
Y13860D01*
X13900D01*
X13280Y15000D02*
X13287Y15007D01*
X19210Y14520D02*
X19300Y14430D01*
X19107Y14623D02*
X19210Y14520D01*
X11610Y13120D02*
X11960D01*
X19062Y10801D02*
X19324D01*
X19574D01*
X18600Y18440D02*
X18780D01*
X18980Y18640D01*
X11920Y11980D02*
Y12049D01*
Y12520D01*
Y12570D01*
X11960Y12630D02*
X12520D01*
X24110Y10890D02*
X24610D01*
X24050Y11490D02*
X24110Y11430D01*
Y10890D02*
Y11430D01*
X23310Y11449D02*
X23351Y11490D01*
X24050D01*
X25500Y11590D02*
X25510Y11580D01*
Y10890D02*
Y11580D01*
X25004Y10890D02*
X25510D01*
X23790Y15030D02*
Y15300D01*
X24767Y15007D02*
Y15318D01*
X30780Y14430D02*
X31000D01*
X30446Y14623D02*
X30587D01*
X31054Y10251D02*
Y10801D01*
X30798Y10251D02*
Y10800D01*
X30542Y10251D02*
Y10801D01*
X31430Y10510D02*
X31808D01*
X31310Y10390D02*
X31430Y10510D01*
X31310Y10251D02*
Y10390D01*
X30542Y10801D02*
Y12120D01*
X25760Y14660D02*
X26360D01*
X23710Y12090D02*
X24050D01*
X24000Y12630D02*
X24060Y12690D01*
Y13290D02*
X24460Y12890D01*
Y11880D02*
Y12890D01*
Y11880D02*
X24810Y11530D01*
X24060Y13290D02*
Y13860D01*
X25380D01*
X24760Y15000D02*
X24767Y15007D01*
X30690Y14520D02*
X30780Y14430D01*
X30587Y14623D02*
X30690Y14520D01*
X23090Y13120D02*
X23440D01*
X30542Y10801D02*
X30804D01*
X31054D01*
X30080Y18440D02*
X30260D01*
X30460Y18640D01*
X23400Y11980D02*
Y12049D01*
Y12520D01*
Y12570D01*
X23440Y12630D02*
X24000D01*
X1150Y21480D02*
X1650D01*
X1090Y22080D02*
X1150Y22020D01*
Y21480D02*
Y22020D01*
X350Y22039D02*
X391Y22080D01*
X1090D01*
X2540Y22180D02*
X2550Y22170D01*
Y21480D02*
Y22170D01*
X2044Y21480D02*
X2550D01*
X830Y25620D02*
Y25890D01*
X1807Y25597D02*
Y25908D01*
X7820Y25020D02*
X8040D01*
X7486Y25213D02*
X7627D01*
X8094Y20842D02*
Y21391D01*
X7838Y20842D02*
Y21390D01*
X7582Y20842D02*
Y21391D01*
X8470Y21100D02*
X8848D01*
X8350Y20980D02*
X8470Y21100D01*
X8350Y20842D02*
Y20980D01*
X7582Y21391D02*
Y22710D01*
X2800Y25250D02*
X3400D01*
X750Y22680D02*
X1090D01*
X1040Y23220D02*
X1100Y23280D01*
Y23880D02*
X1500Y23480D01*
Y22470D02*
Y23480D01*
Y22470D02*
X1850Y22120D01*
X1100Y23880D02*
Y24450D01*
X2420D01*
X1800Y25590D02*
X1807Y25597D01*
X7730Y25110D02*
X7820Y25020D01*
X7627Y25213D02*
X7730Y25110D01*
X130Y23710D02*
X480D01*
X7582Y21391D02*
X7844D01*
X8094D01*
X7120Y29030D02*
X7300D01*
X7500Y29230D01*
X440Y22570D02*
Y22639D01*
Y23110D01*
Y23160D01*
X480Y23220D02*
X1040D01*
X12630Y21480D02*
X13130D01*
X12570Y22080D02*
X12630Y22020D01*
Y21480D02*
Y22020D01*
X11830Y22039D02*
X11871Y22080D01*
X12570D01*
X14020Y22180D02*
X14030Y22170D01*
Y21480D02*
Y22170D01*
X13524Y21480D02*
X14030D01*
X12310Y25620D02*
Y25890D01*
X13287Y25597D02*
Y25908D01*
X19300Y25020D02*
X19520D01*
X18966Y25213D02*
X19107D01*
X19574Y20842D02*
Y21391D01*
X19318Y20842D02*
Y21390D01*
X19062Y20842D02*
Y21391D01*
X19950Y21100D02*
X20328D01*
X19830Y20980D02*
X19950Y21100D01*
X19830Y20842D02*
Y20980D01*
X19062Y21391D02*
Y22710D01*
X14280Y25250D02*
X14880D01*
X12230Y22680D02*
X12570D01*
X12520Y23220D02*
X12580Y23280D01*
Y23880D02*
X12980Y23480D01*
Y22470D02*
Y23480D01*
Y22470D02*
X13330Y22120D01*
X12580Y23880D02*
Y24450D01*
X13900D01*
X13280Y25590D02*
X13287Y25597D01*
X19210Y25110D02*
X19300Y25020D01*
X19107Y25213D02*
X19210Y25110D01*
X11610Y23710D02*
X11960D01*
X19062Y21391D02*
X19324D01*
X19574D01*
X18600Y29030D02*
X18780D01*
X18980Y29230D01*
X11920Y22570D02*
Y22639D01*
Y23110D01*
Y23160D01*
X11960Y23220D02*
X12520D01*
X24110Y21480D02*
X24610D01*
X24050Y22080D02*
X24110Y22020D01*
Y21480D02*
Y22020D01*
X23310Y22039D02*
X23351Y22080D01*
X24050D01*
X25500Y22180D02*
X25510Y22170D01*
Y21480D02*
Y22170D01*
X25004Y21480D02*
X25510D01*
X23790Y25620D02*
Y25890D01*
X24767Y25597D02*
Y25908D01*
X30780Y25020D02*
X31000D01*
X30446Y25213D02*
X30587D01*
X31054Y20842D02*
Y21391D01*
X30798Y20842D02*
Y21390D01*
X30542Y20842D02*
Y21391D01*
X31430Y21100D02*
X31808D01*
X31310Y20980D02*
X31430Y21100D01*
X31310Y20842D02*
Y20980D01*
X30542Y21391D02*
Y22710D01*
X25760Y25250D02*
X26360D01*
X23710Y22680D02*
X24050D01*
X24000Y23220D02*
X24060Y23280D01*
Y23880D02*
X24460Y23480D01*
Y22470D02*
Y23480D01*
Y22470D02*
X24810Y22120D01*
X24060Y23880D02*
Y24450D01*
X25380D01*
X24760Y25590D02*
X24767Y25597D01*
X30690Y25110D02*
X30780Y25020D01*
X30587Y25213D02*
X30690Y25110D01*
X23090Y23710D02*
X23440D01*
X30542Y21391D02*
X30804D01*
X31054D01*
X30080Y29030D02*
X30260D01*
X30460Y29230D01*
X23400Y22570D02*
Y22639D01*
Y23110D01*
Y23160D01*
X23440Y23220D02*
X24000D01*
D35*
X480Y4030D02*
X860Y4410D01*
X3000D02*
Y8440D01*
X7582Y1530D02*
Y2170D01*
X7700D01*
X-370Y4380D02*
Y8770D01*
Y4380D02*
X-120D01*
X230D01*
X860Y4410D02*
X1800D01*
X3000D01*
X2640Y8440D02*
X3000D01*
X2440D02*
X2640D01*
X2240D02*
X2440D01*
X2040D02*
X2240D01*
X1840D02*
X2040D01*
X1640D02*
X1840D01*
X1440D02*
X1640D01*
X1240D02*
X1440D01*
X1040D02*
X1240D01*
X840D02*
X1040D01*
X640D02*
X840D01*
X440D02*
X640D01*
X240D02*
X440D01*
X40D02*
X240D01*
X2640Y8770D02*
X2670D01*
X2440D02*
X2640D01*
X2240D02*
X2440D01*
X2040D02*
X2240D01*
X1840D02*
X2040D01*
X1640D02*
X1840D01*
X1440D02*
X1640D01*
X1240D02*
X1440D01*
X1040D02*
X1240D01*
X840D02*
X1040D01*
X640D02*
X840D01*
X440D02*
X640D01*
X240D02*
X440D01*
X40D02*
X240D01*
X-370D02*
X40D01*
X11960Y4030D02*
X12340Y4410D01*
X14480D02*
Y8440D01*
X19062Y1530D02*
Y2170D01*
X19180D01*
X11110Y4380D02*
Y8770D01*
Y4380D02*
X11360D01*
X11710D01*
X12340Y4410D02*
X13280D01*
X14480D01*
X14120Y8440D02*
X14480D01*
X13920D02*
X14120D01*
X13720D02*
X13920D01*
X13520D02*
X13720D01*
X13320D02*
X13520D01*
X13120D02*
X13320D01*
X12920D02*
X13120D01*
X12720D02*
X12920D01*
X12520D02*
X12720D01*
X12320D02*
X12520D01*
X12120D02*
X12320D01*
X11920D02*
X12120D01*
X11720D02*
X11920D01*
X11520D02*
X11720D01*
X14120Y8770D02*
X14150D01*
X13920D02*
X14120D01*
X13720D02*
X13920D01*
X13520D02*
X13720D01*
X13320D02*
X13520D01*
X13120D02*
X13320D01*
X12920D02*
X13120D01*
X12720D02*
X12920D01*
X12520D02*
X12720D01*
X12320D02*
X12520D01*
X12120D02*
X12320D01*
X11920D02*
X12120D01*
X11720D02*
X11920D01*
X11520D02*
X11720D01*
X11110D02*
X11520D01*
X23440Y4030D02*
X23820Y4410D01*
X25960D02*
Y8440D01*
X30542Y1530D02*
Y2170D01*
X30660D01*
X22590Y4380D02*
Y8770D01*
Y4380D02*
X22840D01*
X23190D01*
X23820Y4410D02*
X24760D01*
X25960D01*
X25600Y8440D02*
X25960D01*
X25400D02*
X25600D01*
X25200D02*
X25400D01*
X25000D02*
X25200D01*
X24800D02*
X25000D01*
X24600D02*
X24800D01*
X24400D02*
X24600D01*
X24200D02*
X24400D01*
X24000D02*
X24200D01*
X23800D02*
X24000D01*
X23600D02*
X23800D01*
X23400D02*
X23600D01*
X23200D02*
X23400D01*
X23000D02*
X23200D01*
X25600Y8770D02*
X25630D01*
X25400D02*
X25600D01*
X25200D02*
X25400D01*
X25000D02*
X25200D01*
X24800D02*
X25000D01*
X24600D02*
X24800D01*
X24400D02*
X24600D01*
X24200D02*
X24400D01*
X24000D02*
X24200D01*
X23800D02*
X24000D01*
X23600D02*
X23800D01*
X23400D02*
X23600D01*
X23200D02*
X23400D01*
X23000D02*
X23200D01*
X22590D02*
X23000D01*
X480Y14620D02*
X860Y15000D01*
X3000D02*
Y19030D01*
X7582Y12120D02*
Y12760D01*
X7700D01*
X-370Y14970D02*
Y19360D01*
Y14970D02*
X-120D01*
X230D01*
X860Y15000D02*
X1800D01*
X3000D01*
X2640Y19030D02*
X3000D01*
X2440D02*
X2640D01*
X2240D02*
X2440D01*
X2040D02*
X2240D01*
X1840D02*
X2040D01*
X1640D02*
X1840D01*
X1440D02*
X1640D01*
X1240D02*
X1440D01*
X1040D02*
X1240D01*
X840D02*
X1040D01*
X640D02*
X840D01*
X440D02*
X640D01*
X240D02*
X440D01*
X40D02*
X240D01*
X2640Y19360D02*
X2670D01*
X2440D02*
X2640D01*
X2240D02*
X2440D01*
X2040D02*
X2240D01*
X1840D02*
X2040D01*
X1640D02*
X1840D01*
X1440D02*
X1640D01*
X1240D02*
X1440D01*
X1040D02*
X1240D01*
X840D02*
X1040D01*
X640D02*
X840D01*
X440D02*
X640D01*
X240D02*
X440D01*
X40D02*
X240D01*
X-370D02*
X40D01*
X11960Y14620D02*
X12340Y15000D01*
X14480D02*
Y19030D01*
X19062Y12120D02*
Y12760D01*
X19180D01*
X11110Y14970D02*
Y19360D01*
Y14970D02*
X11360D01*
X11710D01*
X12340Y15000D02*
X13280D01*
X14480D01*
X14120Y19030D02*
X14480D01*
X13920D02*
X14120D01*
X13720D02*
X13920D01*
X13520D02*
X13720D01*
X13320D02*
X13520D01*
X13120D02*
X13320D01*
X12920D02*
X13120D01*
X12720D02*
X12920D01*
X12520D02*
X12720D01*
X12320D02*
X12520D01*
X12120D02*
X12320D01*
X11920D02*
X12120D01*
X11720D02*
X11920D01*
X11520D02*
X11720D01*
X14120Y19360D02*
X14150D01*
X13920D02*
X14120D01*
X13720D02*
X13920D01*
X13520D02*
X13720D01*
X13320D02*
X13520D01*
X13120D02*
X13320D01*
X12920D02*
X13120D01*
X12720D02*
X12920D01*
X12520D02*
X12720D01*
X12320D02*
X12520D01*
X12120D02*
X12320D01*
X11920D02*
X12120D01*
X11720D02*
X11920D01*
X11520D02*
X11720D01*
X11110D02*
X11520D01*
X23440Y14620D02*
X23820Y15000D01*
X25960D02*
Y19030D01*
X30542Y12120D02*
Y12760D01*
X30660D01*
X22590Y14970D02*
Y19360D01*
Y14970D02*
X22840D01*
X23190D01*
X23820Y15000D02*
X24760D01*
X25960D01*
X25600Y19030D02*
X25960D01*
X25400D02*
X25600D01*
X25200D02*
X25400D01*
X25000D02*
X25200D01*
X24800D02*
X25000D01*
X24600D02*
X24800D01*
X24400D02*
X24600D01*
X24200D02*
X24400D01*
X24000D02*
X24200D01*
X23800D02*
X24000D01*
X23600D02*
X23800D01*
X23400D02*
X23600D01*
X23200D02*
X23400D01*
X23000D02*
X23200D01*
X25600Y19360D02*
X25630D01*
X25400D02*
X25600D01*
X25200D02*
X25400D01*
X25000D02*
X25200D01*
X24800D02*
X25000D01*
X24600D02*
X24800D01*
X24400D02*
X24600D01*
X24200D02*
X24400D01*
X24000D02*
X24200D01*
X23800D02*
X24000D01*
X23600D02*
X23800D01*
X23400D02*
X23600D01*
X23200D02*
X23400D01*
X23000D02*
X23200D01*
X22590D02*
X23000D01*
X480Y25210D02*
X860Y25590D01*
X3000D02*
Y29620D01*
X7582Y22710D02*
Y23350D01*
X7700D01*
X-370Y25560D02*
Y29950D01*
Y25560D02*
X-120D01*
X230D01*
X860Y25590D02*
X1800D01*
X3000D01*
X2640Y29620D02*
X3000D01*
X2440D02*
X2640D01*
X2240D02*
X2440D01*
X2040D02*
X2240D01*
X1840D02*
X2040D01*
X1640D02*
X1840D01*
X1440D02*
X1640D01*
X1240D02*
X1440D01*
X1040D02*
X1240D01*
X840D02*
X1040D01*
X640D02*
X840D01*
X440D02*
X640D01*
X240D02*
X440D01*
X40D02*
X240D01*
X2640Y29950D02*
X2670D01*
X2440D02*
X2640D01*
X2240D02*
X2440D01*
X2040D02*
X2240D01*
X1840D02*
X2040D01*
X1640D02*
X1840D01*
X1440D02*
X1640D01*
X1240D02*
X1440D01*
X1040D02*
X1240D01*
X840D02*
X1040D01*
X640D02*
X840D01*
X440D02*
X640D01*
X240D02*
X440D01*
X40D02*
X240D01*
X-370D02*
X40D01*
X11960Y25210D02*
X12340Y25590D01*
X14480D02*
Y29620D01*
X19062Y22710D02*
Y23350D01*
X19180D01*
X11110Y25560D02*
Y29950D01*
Y25560D02*
X11360D01*
X11710D01*
X12340Y25590D02*
X13280D01*
X14480D01*
X14120Y29620D02*
X14480D01*
X13920D02*
X14120D01*
X13720D02*
X13920D01*
X13520D02*
X13720D01*
X13320D02*
X13520D01*
X13120D02*
X13320D01*
X12920D02*
X13120D01*
X12720D02*
X12920D01*
X12520D02*
X12720D01*
X12320D02*
X12520D01*
X12120D02*
X12320D01*
X11920D02*
X12120D01*
X11720D02*
X11920D01*
X11520D02*
X11720D01*
X14120Y29950D02*
X14150D01*
X13920D02*
X14120D01*
X13720D02*
X13920D01*
X13520D02*
X13720D01*
X13320D02*
X13520D01*
X13120D02*
X13320D01*
X12920D02*
X13120D01*
X12720D02*
X12920D01*
X12520D02*
X12720D01*
X12320D02*
X12520D01*
X12120D02*
X12320D01*
X11920D02*
X12120D01*
X11720D02*
X11920D01*
X11520D02*
X11720D01*
X11110D02*
X11520D01*
X23440Y25210D02*
X23820Y25590D01*
X25960D02*
Y29620D01*
X30542Y22710D02*
Y23350D01*
X30660D01*
X22590Y25560D02*
Y29950D01*
Y25560D02*
X22840D01*
X23190D01*
X23820Y25590D02*
X24760D01*
X25960D01*
X25600Y29620D02*
X25960D01*
X25400D02*
X25600D01*
X25200D02*
X25400D01*
X25000D02*
X25200D01*
X24800D02*
X25000D01*
X24600D02*
X24800D01*
X24400D02*
X24600D01*
X24200D02*
X24400D01*
X24000D02*
X24200D01*
X23800D02*
X24000D01*
X23600D02*
X23800D01*
X23400D02*
X23600D01*
X23200D02*
X23400D01*
X23000D02*
X23200D01*
X25600Y29950D02*
X25630D01*
X25400D02*
X25600D01*
X25200D02*
X25400D01*
X25000D02*
X25200D01*
X24800D02*
X25000D01*
X24600D02*
X24800D01*
X24400D02*
X24600D01*
X24200D02*
X24400D01*
X24000D02*
X24200D01*
X23800D02*
X24000D01*
X23600D02*
X23800D01*
X23400D02*
X23600D01*
X23200D02*
X23400D01*
X23000D02*
X23200D01*
X22590D02*
X23000D01*
D36*
X230Y5910D02*
X650D01*
X230Y6910D02*
X380Y7060D01*
X230Y6510D02*
Y6910D01*
X-120Y6160D02*
X230Y6510D01*
X-120Y5660D02*
Y6160D01*
Y5660D02*
X230Y5310D01*
X-120Y3040D02*
Y3540D01*
Y4030D01*
X480Y3040D02*
Y3540D01*
Y4030D01*
X380Y7060D02*
X1530D01*
X1160Y6460D02*
X1530D01*
X980Y6280D02*
X1160Y6460D01*
X11710Y5910D02*
X12130D01*
X11710Y6910D02*
X11860Y7060D01*
X11710Y6510D02*
Y6910D01*
X11360Y6160D02*
X11710Y6510D01*
X11360Y5660D02*
Y6160D01*
Y5660D02*
X11710Y5310D01*
X11360Y3040D02*
Y3540D01*
Y4030D01*
X11960Y3040D02*
Y3540D01*
Y4030D01*
X11860Y7060D02*
X13010D01*
X12640Y6460D02*
X13010D01*
X12460Y6280D02*
X12640Y6460D01*
X23190Y5910D02*
X23610D01*
X23190Y6910D02*
X23340Y7060D01*
X23190Y6510D02*
Y6910D01*
X22840Y6160D02*
X23190Y6510D01*
X22840Y5660D02*
Y6160D01*
Y5660D02*
X23190Y5310D01*
X22840Y3040D02*
Y3540D01*
Y4030D01*
X23440Y3040D02*
Y3540D01*
Y4030D01*
X23340Y7060D02*
X24490D01*
X24120Y6460D02*
X24490D01*
X23940Y6280D02*
X24120Y6460D01*
X230Y16500D02*
X650D01*
X230Y17500D02*
X380Y17650D01*
X230Y17100D02*
Y17500D01*
X-120Y16750D02*
X230Y17100D01*
X-120Y16250D02*
Y16750D01*
Y16250D02*
X230Y15900D01*
X-120Y13630D02*
Y14130D01*
Y14620D01*
X480Y13630D02*
Y14130D01*
Y14620D01*
X380Y17650D02*
X1530D01*
X1160Y17050D02*
X1530D01*
X980Y16870D02*
X1160Y17050D01*
X11710Y16500D02*
X12130D01*
X11710Y17500D02*
X11860Y17650D01*
X11710Y17100D02*
Y17500D01*
X11360Y16750D02*
X11710Y17100D01*
X11360Y16250D02*
Y16750D01*
Y16250D02*
X11710Y15900D01*
X11360Y13630D02*
Y14130D01*
Y14620D01*
X11960Y13630D02*
Y14130D01*
Y14620D01*
X11860Y17650D02*
X13010D01*
X12640Y17050D02*
X13010D01*
X12460Y16870D02*
X12640Y17050D01*
X23190Y16500D02*
X23610D01*
X23190Y17500D02*
X23340Y17650D01*
X23190Y17100D02*
Y17500D01*
X22840Y16750D02*
X23190Y17100D01*
X22840Y16250D02*
Y16750D01*
Y16250D02*
X23190Y15900D01*
X22840Y13630D02*
Y14130D01*
Y14620D01*
X23440Y13630D02*
Y14130D01*
Y14620D01*
X23340Y17650D02*
X24490D01*
X24120Y17050D02*
X24490D01*
X23940Y16870D02*
X24120Y17050D01*
X230Y27090D02*
X650D01*
X230Y28090D02*
X380Y28240D01*
X230Y27690D02*
Y28090D01*
X-120Y27340D02*
X230Y27690D01*
X-120Y26840D02*
Y27340D01*
Y26840D02*
X230Y26490D01*
X-120Y24220D02*
Y24720D01*
Y25210D01*
X480Y24220D02*
Y24720D01*
Y25210D01*
X380Y28240D02*
X1530D01*
X1160Y27640D02*
X1530D01*
X980Y27460D02*
X1160Y27640D01*
X11710Y27090D02*
X12130D01*
X11710Y28090D02*
X11860Y28240D01*
X11710Y27690D02*
Y28090D01*
X11360Y27340D02*
X11710Y27690D01*
X11360Y26840D02*
Y27340D01*
Y26840D02*
X11710Y26490D01*
X11360Y24220D02*
Y24720D01*
Y25210D01*
X11960Y24220D02*
Y24720D01*
Y25210D01*
X11860Y28240D02*
X13010D01*
X12640Y27640D02*
X13010D01*
X12460Y27460D02*
X12640Y27640D01*
X23190Y27090D02*
X23610D01*
X23190Y28090D02*
X23340Y28240D01*
X23190Y27690D02*
Y28090D01*
X22840Y27340D02*
X23190Y27690D01*
X22840Y26840D02*
Y27340D01*
Y26840D02*
X23190Y26490D01*
X22840Y24220D02*
Y24720D01*
Y25210D01*
X23440Y24220D02*
Y24720D01*
Y25210D01*
X23340Y28240D02*
X24490D01*
X24120Y27640D02*
X24490D01*
X23940Y27460D02*
X24120Y27640D01*
D37*
X8849Y520D02*
X9470D01*
X9500Y490D01*
X20329Y520D02*
X20950D01*
X20980Y490D01*
X31809Y520D02*
X32430D01*
X32460Y490D01*
X8849Y11110D02*
X9470D01*
X9500Y11080D01*
X20329Y11110D02*
X20950D01*
X20980Y11080D01*
X31809Y11110D02*
X32430D01*
X32460Y11080D01*
X8849Y21700D02*
X9470D01*
X9500Y21670D01*
X20329Y21700D02*
X20950D01*
X20980Y21670D01*
X31809Y21700D02*
X32430D01*
X32460Y21670D01*
D38*
X1840Y8440D02*
Y8770D01*
X2040Y8440D02*
Y8770D01*
X1640Y8440D02*
Y8770D01*
X2440Y8440D02*
Y8770D01*
X2640Y8440D02*
Y8770D01*
X2240Y8440D02*
Y8770D01*
X840Y8440D02*
Y8770D01*
X1040Y8440D02*
Y8770D01*
X640Y8440D02*
Y8770D01*
X1440Y8440D02*
Y8770D01*
X1240Y8440D02*
Y8770D01*
X440Y8440D02*
Y8770D01*
X40Y8440D02*
Y8770D01*
X240Y8440D02*
Y8770D01*
X13320Y8440D02*
Y8770D01*
X13520Y8440D02*
Y8770D01*
X13120Y8440D02*
Y8770D01*
X13920Y8440D02*
Y8770D01*
X14120Y8440D02*
Y8770D01*
X13720Y8440D02*
Y8770D01*
X12320Y8440D02*
Y8770D01*
X12520Y8440D02*
Y8770D01*
X12120Y8440D02*
Y8770D01*
X12920Y8440D02*
Y8770D01*
X12720Y8440D02*
Y8770D01*
X11920Y8440D02*
Y8770D01*
X11520Y8440D02*
Y8770D01*
X11720Y8440D02*
Y8770D01*
X24800Y8440D02*
Y8770D01*
X25000Y8440D02*
Y8770D01*
X24600Y8440D02*
Y8770D01*
X25400Y8440D02*
Y8770D01*
X25600Y8440D02*
Y8770D01*
X25200Y8440D02*
Y8770D01*
X23800Y8440D02*
Y8770D01*
X24000Y8440D02*
Y8770D01*
X23600Y8440D02*
Y8770D01*
X24400Y8440D02*
Y8770D01*
X24200Y8440D02*
Y8770D01*
X23400Y8440D02*
Y8770D01*
X23000Y8440D02*
Y8770D01*
X23200Y8440D02*
Y8770D01*
X1840Y19030D02*
Y19360D01*
X2040Y19030D02*
Y19360D01*
X1640Y19030D02*
Y19360D01*
X2440Y19030D02*
Y19360D01*
X2640Y19030D02*
Y19360D01*
X2240Y19030D02*
Y19360D01*
X840Y19030D02*
Y19360D01*
X1040Y19030D02*
Y19360D01*
X640Y19030D02*
Y19360D01*
X1440Y19030D02*
Y19360D01*
X1240Y19030D02*
Y19360D01*
X440Y19030D02*
Y19360D01*
X40Y19030D02*
Y19360D01*
X240Y19030D02*
Y19360D01*
X13320Y19030D02*
Y19360D01*
X13520Y19030D02*
Y19360D01*
X13120Y19030D02*
Y19360D01*
X13920Y19030D02*
Y19360D01*
X14120Y19030D02*
Y19360D01*
X13720Y19030D02*
Y19360D01*
X12320Y19030D02*
Y19360D01*
X12520Y19030D02*
Y19360D01*
X12120Y19030D02*
Y19360D01*
X12920Y19030D02*
Y19360D01*
X12720Y19030D02*
Y19360D01*
X11920Y19030D02*
Y19360D01*
X11520Y19030D02*
Y19360D01*
X11720Y19030D02*
Y19360D01*
X24800Y19030D02*
Y19360D01*
X25000Y19030D02*
Y19360D01*
X24600Y19030D02*
Y19360D01*
X25400Y19030D02*
Y19360D01*
X25600Y19030D02*
Y19360D01*
X25200Y19030D02*
Y19360D01*
X23800Y19030D02*
Y19360D01*
X24000Y19030D02*
Y19360D01*
X23600Y19030D02*
Y19360D01*
X24400Y19030D02*
Y19360D01*
X24200Y19030D02*
Y19360D01*
X23400Y19030D02*
Y19360D01*
X23000Y19030D02*
Y19360D01*
X23200Y19030D02*
Y19360D01*
X1840Y29620D02*
Y29950D01*
X2040Y29620D02*
Y29950D01*
X1640Y29620D02*
Y29950D01*
X2440Y29620D02*
Y29950D01*
X2640Y29620D02*
Y29950D01*
X2240Y29620D02*
Y29950D01*
X840Y29620D02*
Y29950D01*
X1040Y29620D02*
Y29950D01*
X640Y29620D02*
Y29950D01*
X1440Y29620D02*
Y29950D01*
X1240Y29620D02*
Y29950D01*
X440Y29620D02*
Y29950D01*
X40Y29620D02*
Y29950D01*
X240Y29620D02*
Y29950D01*
X13320Y29620D02*
Y29950D01*
X13520Y29620D02*
Y29950D01*
X13120Y29620D02*
Y29950D01*
X13920Y29620D02*
Y29950D01*
X14120Y29620D02*
Y29950D01*
X13720Y29620D02*
Y29950D01*
X12320Y29620D02*
Y29950D01*
X12520Y29620D02*
Y29950D01*
X12120Y29620D02*
Y29950D01*
X12920Y29620D02*
Y29950D01*
X12720Y29620D02*
Y29950D01*
X11920Y29620D02*
Y29950D01*
X11520Y29620D02*
Y29950D01*
X11720Y29620D02*
Y29950D01*
X24800Y29620D02*
Y29950D01*
X25000Y29620D02*
Y29950D01*
X24600Y29620D02*
Y29950D01*
X25400Y29620D02*
Y29950D01*
X25600Y29620D02*
Y29950D01*
X25200Y29620D02*
Y29950D01*
X23800Y29620D02*
Y29950D01*
X24000Y29620D02*
Y29950D01*
X23600Y29620D02*
Y29950D01*
X24400Y29620D02*
Y29950D01*
X24200Y29620D02*
Y29950D01*
X23400Y29620D02*
Y29950D01*
X23000Y29620D02*
Y29950D01*
X23200Y29620D02*
Y29950D01*
D39*
X11110Y9030D02*
G03*
X10810Y8730I0J-300D01*
G01*
X10110D02*
G03*
X9810Y9030I-300J0D01*
G01*
Y9730D02*
G03*
X10110Y10030I0J300D01*
G01*
X10810D02*
G03*
X11110Y9730I300J0D01*
G01*
X21590Y8730D02*
G03*
X21290Y9030I-300J0D01*
G01*
X22590D02*
G03*
X22290Y8730I0J-300D01*
G01*
Y10030D02*
G03*
X22590Y9730I300J0D01*
G01*
X21290D02*
G03*
X21590Y10030I0J300D01*
G01*
X33070Y8730D02*
G03*
X32770Y9030I-300J0D01*
G01*
Y9730D02*
G03*
X33070Y10030I0J300D01*
G01*
X33470Y-1560D02*
G03*
X33770Y-1260I0J300D01*
G01*
X32770Y-860D02*
G03*
X33070Y-560I0J300D01*
G01*
X22290D02*
G03*
X22590Y-860I300J0D01*
G01*
X21290D02*
G03*
X21590Y-560I0J300D01*
G01*
X10810D02*
G03*
X11110Y-860I300J0D01*
G01*
X9810D02*
G03*
X10110Y-560I0J300D01*
G01*
X-1370Y-1260D02*
G03*
X-1070Y-1560I300J0D01*
G01*
X-670Y-560D02*
G03*
X-370Y-860I300J0D01*
G01*
Y9030D02*
G03*
X-670Y8730I0J-300D01*
G01*
Y10030D02*
G03*
X-370Y9730I300J0D01*
G01*
Y19620D02*
G03*
X-670Y19320I0J-300D01*
G01*
Y20620D02*
G03*
X-370Y20320I300J0D01*
G01*
X22590Y30210D02*
G03*
X22290Y29910I0J-300D01*
G01*
X21590D02*
G03*
X21290Y30210I-300J0D01*
G01*
X33070Y29910D02*
G03*
X32770Y30210I-300J0D01*
G01*
X33770Y30610D02*
G03*
X33470Y30910I-300J0D01*
G01*
X33070Y19320D02*
G03*
X32770Y19620I-300J0D01*
G01*
Y20320D02*
G03*
X33070Y20620I0J300D01*
G01*
X22590Y19620D02*
G03*
X22290Y19320I0J-300D01*
G01*
X21590D02*
G03*
X21290Y19620I-300J0D01*
G01*
Y20320D02*
G03*
X21590Y20620I0J300D01*
G01*
X22290D02*
G03*
X22590Y20320I300J0D01*
G01*
X10110Y19320D02*
G03*
X9810Y19620I-300J0D01*
G01*
X11110D02*
G03*
X10810Y19320I0J-300D01*
G01*
Y20620D02*
G03*
X11110Y20320I300J0D01*
G01*
X9810D02*
G03*
X10110Y20620I0J300D01*
G01*
X11110Y30210D02*
G03*
X10810Y29910I0J-300D01*
G01*
X10110D02*
G03*
X9810Y30210I-300J0D01*
G01*
X-370D02*
G03*
X-670Y29910I0J-300D01*
G01*
X-1070Y30910D02*
G03*
X-1370Y30610I0J-300D01*
G01*
X97Y0D02*
G03*
X97Y0I-97J0D01*
G01*
X31820Y-2610D02*
G03*
X31820Y-2610I-250J0D01*
G01*
X1080D02*
G03*
X1080Y-2610I-250J0D01*
G01*
X31820Y31960D02*
G03*
X31820Y31960I-250J0D01*
G01*
X1080D02*
G03*
X1080Y31960I-250J0D01*
G01*
X35190Y31740D02*
G03*
X35190Y31740I-590J0D01*
G01*
Y-2390D02*
G03*
X35190Y-2390I-590J0D01*
G01*
X-1610D02*
G03*
X-1610Y-2390I-590J0D01*
G01*
X-370Y9030D02*
X9810D01*
X-670Y-560D02*
Y8730D01*
X-370Y9730D02*
X9810D01*
X22590Y-860D02*
X32770D01*
X11110D02*
X21290D01*
X10810Y-560D02*
Y8730D01*
X11110Y9030D02*
X21290D01*
X10110Y-560D02*
Y8730D01*
X11110Y9730D02*
X21290D01*
X22590Y9030D02*
X32770D01*
X21590Y-560D02*
Y8730D01*
X22590Y9730D02*
X32770D01*
X22290Y-560D02*
Y8730D01*
X33070Y10030D02*
Y19320D01*
Y20620D02*
Y29910D01*
X22290Y10030D02*
Y19320D01*
X22590Y19620D02*
X32770D01*
X22590Y20320D02*
X32770D01*
X21590Y10030D02*
Y19320D01*
X10110Y10030D02*
Y19320D01*
X11110Y19620D02*
X21290D01*
X10810Y10030D02*
Y19320D01*
X11110Y30210D02*
X21290D01*
X22290Y20620D02*
Y29910D01*
X21590Y20620D02*
Y29910D01*
X10810Y20620D02*
Y29910D01*
X10110Y20620D02*
Y29910D01*
X-370Y19620D02*
X9810D01*
X-670Y10030D02*
Y19320D01*
X-370Y20320D02*
X9810D01*
X11110D02*
X21290D01*
X-370Y30210D02*
X9810D01*
X33770Y-1260D02*
Y30610D01*
X-1370Y-1260D02*
Y30610D01*
X-1070Y-1560D02*
X33470D01*
X-1070Y30910D02*
X33470D01*
X33070Y-560D02*
Y8730D01*
X22590Y30210D02*
X32770D01*
X-370Y-860D02*
X9810D01*
X-670Y20620D02*
Y29910D01*
X-4170Y-4360D02*
Y33710D01*
X36570D01*
Y-4360D02*
Y33710D01*
X-4170Y-4360D02*
X36570D01*
X34140Y-20776D02*
X34115Y-20725D01*
X34064Y-20674D01*
X34013Y-20649D01*
X33912D01*
X33861Y-20674D01*
X33810Y-20725D01*
X33785Y-20776D01*
X33759Y-20852D01*
Y-20979D01*
X33785Y-21055D01*
X33810Y-21106D01*
X33861Y-21156D01*
X33912Y-21182D01*
X34013D01*
X34064Y-21156D01*
X34115Y-21106D01*
X34140Y-21055D01*
Y-20979D01*
X34013D02*
X34140D01*
X34592Y-20649D02*
X34262D01*
Y-21182D01*
X34592D01*
X34262Y-20902D02*
X34465D01*
X34681Y-20649D02*
Y-21182D01*
Y-20649D02*
X34909D01*
X34986Y-20674D01*
X35011Y-20699D01*
X35036Y-20750D01*
Y-20801D01*
X35011Y-20852D01*
X34986Y-20877D01*
X34909Y-20902D01*
X34681D01*
X34859D02*
X35036Y-21182D01*
X35156Y-20649D02*
Y-21182D01*
Y-20649D02*
X35384D01*
X35460Y-20674D01*
X35486Y-20699D01*
X35511Y-20750D01*
Y-20801D01*
X35486Y-20852D01*
X35460Y-20877D01*
X35384Y-20902D01*
X35156D02*
X35384D01*
X35460Y-20928D01*
X35486Y-20953D01*
X35511Y-21004D01*
Y-21080D01*
X35486Y-21131D01*
X35460Y-21156D01*
X35384Y-21182D01*
X35156D01*
X35961Y-20649D02*
X35631D01*
Y-21182D01*
X35961D01*
X35631Y-20902D02*
X35834D01*
X36050Y-20649D02*
Y-21182D01*
Y-20649D02*
X36278D01*
X36354Y-20674D01*
X36380Y-20699D01*
X36405Y-20750D01*
Y-20801D01*
X36380Y-20852D01*
X36354Y-20877D01*
X36278Y-20902D01*
X36050D01*
X36227D02*
X36405Y-21182D01*
X36550Y-20826D02*
X36524Y-20852D01*
X36550Y-20877D01*
X36575Y-20852D01*
X36550Y-20826D01*
Y-21131D02*
X36524Y-21156D01*
X36550Y-21182D01*
X36575Y-21156D01*
X36550Y-21131D01*
X-2841Y-20649D02*
Y-21182D01*
Y-20649D02*
X-2511D01*
X-2841Y-20902D02*
X-2638D01*
X-2450Y-20649D02*
Y-21182D01*
X-2338Y-20649D02*
Y-21182D01*
X-2033D01*
X-1645Y-20649D02*
X-1975D01*
Y-21182D01*
X-1645D01*
X-1975Y-20902D02*
X-1772D01*
X-1137Y-20649D02*
Y-21182D01*
Y-20649D02*
X-782Y-21182D01*
Y-20649D02*
Y-21182D01*
X-228D02*
X-431Y-20649D01*
X-634Y-21182D01*
X-558Y-21004D02*
X-304D01*
X-104Y-20649D02*
Y-21182D01*
Y-20649D02*
X100Y-21182D01*
X303Y-20649D02*
X100Y-21182D01*
X303Y-20649D02*
Y-21182D01*
X785Y-20649D02*
X455D01*
Y-21182D01*
X785D01*
X455Y-20902D02*
X658D01*
X899Y-20826D02*
X874Y-20852D01*
X899Y-20877D01*
X925Y-20852D01*
X899Y-20826D01*
Y-21131D02*
X874Y-21156D01*
X899Y-21182D01*
X925Y-21156D01*
X899Y-21131D01*
X-2841Y-17049D02*
Y-17582D01*
Y-17049D02*
X-2663D01*
X-2587Y-17074D01*
X-2536Y-17125D01*
X-2511Y-17176D01*
X-2485Y-17252D01*
Y-17379D01*
X-2511Y-17455D01*
X-2536Y-17506D01*
X-2587Y-17556D01*
X-2663Y-17582D01*
X-2841D01*
X-2366Y-17226D02*
Y-17582D01*
Y-17379D02*
X-2341Y-17302D01*
X-2290Y-17252D01*
X-2239Y-17226D01*
X-2163D01*
X-1810D02*
Y-17582D01*
Y-17302D02*
X-1861Y-17252D01*
X-1911Y-17226D01*
X-1988D01*
X-2038Y-17252D01*
X-2089Y-17302D01*
X-2115Y-17379D01*
Y-17429D01*
X-2089Y-17506D01*
X-2038Y-17556D01*
X-1988Y-17582D01*
X-1911D01*
X-1861Y-17556D01*
X-1810Y-17506D01*
X-1668Y-17226D02*
X-1566Y-17582D01*
X-1465Y-17226D02*
X-1566Y-17582D01*
X-1465Y-17226D02*
X-1363Y-17582D01*
X-1261Y-17226D02*
X-1363Y-17582D01*
X-1137Y-17226D02*
Y-17582D01*
Y-17328D02*
X-1061Y-17252D01*
X-1010Y-17226D01*
X-934D01*
X-883Y-17252D01*
X-858Y-17328D01*
Y-17582D01*
X-299Y-17049D02*
Y-17582D01*
Y-17302D02*
X-248Y-17252D01*
X-198Y-17226D01*
X-121D01*
X-71Y-17252D01*
X-20Y-17302D01*
X6Y-17379D01*
Y-17429D01*
X-20Y-17506D01*
X-71Y-17556D01*
X-121Y-17582D01*
X-198D01*
X-248Y-17556D01*
X-299Y-17506D01*
X145Y-17226D02*
X298Y-17582D01*
X450Y-17226D02*
X298Y-17582D01*
X247Y-17683D01*
X196Y-17734D01*
X145Y-17760D01*
X120D01*
X564Y-17226D02*
X539Y-17252D01*
X564Y-17277D01*
X590Y-17252D01*
X564Y-17226D01*
Y-17531D02*
X539Y-17556D01*
X564Y-17582D01*
X590Y-17556D01*
X564Y-17531D01*
X6212Y-13124D02*
Y-13657D01*
X6034Y-13124D02*
X6390D01*
X6453D02*
Y-13657D01*
X6743Y-13124D02*
Y-13657D01*
X6565Y-13124D02*
X6920D01*
X6984D02*
Y-13657D01*
X7289D01*
X7677Y-13124D02*
X7347D01*
Y-13657D01*
X7677D01*
X7347Y-13377D02*
X7550D01*
X7791Y-13301D02*
X7766Y-13327D01*
X7791Y-13352D01*
X7817Y-13327D01*
X7791Y-13301D01*
Y-13606D02*
X7766Y-13631D01*
X7791Y-13657D01*
X7817Y-13631D01*
X7791Y-13606D01*
X6159Y-18153D02*
X6388D01*
X6464Y-18127D01*
X6489Y-18102D01*
X6515Y-18051D01*
Y-17975D01*
X6489Y-17924D01*
X6464Y-17899D01*
X6388Y-17874D01*
X6159D01*
Y-18407D01*
X7040D02*
X6837Y-17874D01*
X6634Y-18407D01*
X6710Y-18229D02*
X6964D01*
X7165Y-17874D02*
Y-18407D01*
Y-17874D02*
X7393D01*
X7469Y-17899D01*
X7495Y-17924D01*
X7520Y-17975D01*
Y-18026D01*
X7495Y-18077D01*
X7469Y-18102D01*
X7393Y-18127D01*
X7165D01*
X7342D02*
X7520Y-18407D01*
X7817Y-17874D02*
Y-18407D01*
X7640Y-17874D02*
X7995D01*
X8477D02*
Y-18407D01*
Y-17874D02*
X8833Y-18407D01*
Y-17874D02*
Y-18407D01*
X9133Y-17874D02*
X9082Y-17899D01*
X9031Y-17950D01*
X9006Y-18001D01*
X8980Y-18077D01*
Y-18204D01*
X9006Y-18280D01*
X9031Y-18331D01*
X9082Y-18381D01*
X9133Y-18407D01*
X9234D01*
X9285Y-18381D01*
X9336Y-18331D01*
X9361Y-18280D01*
X9386Y-18204D01*
Y-18077D01*
X9361Y-18001D01*
X9336Y-17950D01*
X9285Y-17899D01*
X9234Y-17874D01*
X9133D01*
X9536Y-18356D02*
X9511Y-18381D01*
X9536Y-18407D01*
X9562Y-18381D01*
X9536Y-18356D01*
X9704Y-18051D02*
X9678Y-18077D01*
X9704Y-18102D01*
X9729Y-18077D01*
X9704Y-18051D01*
Y-18356D02*
X9678Y-18381D01*
X9704Y-18407D01*
X9729Y-18381D01*
X9704Y-18356D01*
X-2511Y-13249D02*
X-2841D01*
Y-13782D01*
X-2511D01*
X-2841Y-13502D02*
X-2638D01*
X-2422Y-13249D02*
Y-13782D01*
Y-13249D02*
X-2066Y-13782D01*
Y-13249D02*
Y-13782D01*
X-1538Y-13376D02*
X-1564Y-13325D01*
X-1614Y-13274D01*
X-1665Y-13249D01*
X-1767D01*
X-1818Y-13274D01*
X-1868Y-13325D01*
X-1894Y-13376D01*
X-1919Y-13452D01*
Y-13579D01*
X-1894Y-13655D01*
X-1868Y-13706D01*
X-1818Y-13756D01*
X-1767Y-13782D01*
X-1665D01*
X-1614Y-13756D01*
X-1564Y-13706D01*
X-1538Y-13655D01*
Y-13579D01*
X-1665D02*
X-1538D01*
X-1416Y-13249D02*
Y-13782D01*
X-1305Y-13249D02*
Y-13782D01*
Y-13249D02*
X-949Y-13782D01*
Y-13249D02*
Y-13782D01*
X-472Y-13249D02*
X-802D01*
Y-13782D01*
X-472D01*
X-802Y-13502D02*
X-599D01*
X-53Y-13249D02*
X-383D01*
Y-13782D01*
X-53D01*
X-383Y-13502D02*
X-180D01*
X36Y-13249D02*
Y-13782D01*
Y-13249D02*
X265D01*
X341Y-13274D01*
X366Y-13299D01*
X392Y-13350D01*
Y-13401D01*
X366Y-13452D01*
X341Y-13477D01*
X265Y-13502D01*
X36D01*
X214D02*
X392Y-13782D01*
X536Y-13426D02*
X511Y-13452D01*
X536Y-13477D01*
X562Y-13452D01*
X536Y-13426D01*
Y-13731D02*
X511Y-13756D01*
X536Y-13782D01*
X562Y-13756D01*
X536Y-13731D01*
X15559Y-20649D02*
Y-21182D01*
X15864D01*
X16329D02*
X16125Y-20649D01*
X15922Y-21182D01*
X15998Y-21004D02*
X16252D01*
X16453Y-20649D02*
X16656Y-20902D01*
Y-21182D01*
X16859Y-20649D02*
X16656Y-20902D01*
X17258Y-20649D02*
X16928D01*
Y-21182D01*
X17258D01*
X16928Y-20902D02*
X17131D01*
X17347Y-20649D02*
Y-21182D01*
Y-20649D02*
X17575D01*
X17651Y-20674D01*
X17677Y-20699D01*
X17702Y-20750D01*
Y-20801D01*
X17677Y-20852D01*
X17651Y-20877D01*
X17575Y-20902D01*
X17347D01*
X17524D02*
X17702Y-21182D01*
X17847Y-20826D02*
X17822Y-20852D01*
X17847Y-20877D01*
X17872Y-20852D01*
X17847Y-20826D01*
Y-21131D02*
X17822Y-21156D01*
X17847Y-21182D01*
X17872Y-21156D01*
X17847Y-21131D01*
X-2841Y-19169D02*
X-2627D01*
X-2555Y-19145D01*
X-2531Y-19121D01*
X-2508Y-19074D01*
Y-19002D01*
X-2531Y-18954D01*
X-2555Y-18931D01*
X-2627Y-18907D01*
X-2841D01*
Y-19407D01*
X-2396Y-18907D02*
Y-19407D01*
X-2062Y-18907D02*
Y-19407D01*
X-2396Y-19145D02*
X-2062D01*
X-1781Y-18907D02*
X-1829Y-18931D01*
X-1877Y-18978D01*
X-1901Y-19026D01*
X-1924Y-19097D01*
Y-19216D01*
X-1901Y-19288D01*
X-1877Y-19335D01*
X-1829Y-19383D01*
X-1781Y-19407D01*
X-1686D01*
X-1639Y-19383D01*
X-1591Y-19335D01*
X-1567Y-19288D01*
X-1543Y-19216D01*
Y-19097D01*
X-1567Y-19026D01*
X-1591Y-18978D01*
X-1639Y-18931D01*
X-1686Y-18907D01*
X-1781D01*
X-1427D02*
Y-19407D01*
Y-18907D02*
X-1094Y-19407D01*
Y-18907D02*
Y-19407D01*
X-646Y-18907D02*
X-955D01*
Y-19407D01*
X-646D01*
X-955Y-19145D02*
X-765D01*
X-539Y-19074D02*
X-563Y-19097D01*
X-539Y-19121D01*
X-515Y-19097D01*
X-539Y-19074D01*
Y-19359D02*
X-563Y-19383D01*
X-539Y-19407D01*
X-515Y-19383D01*
X-539Y-19359D01*
X-2841Y-15419D02*
X-2627D01*
X-2555Y-15395D01*
X-2531Y-15371D01*
X-2508Y-15324D01*
Y-15252D01*
X-2531Y-15204D01*
X-2555Y-15181D01*
X-2627Y-15157D01*
X-2841D01*
Y-15657D01*
X-2396Y-15157D02*
Y-15657D01*
X-2062Y-15157D02*
Y-15657D01*
X-2396Y-15395D02*
X-2062D01*
X-1781Y-15157D02*
X-1829Y-15181D01*
X-1877Y-15228D01*
X-1901Y-15276D01*
X-1924Y-15347D01*
Y-15466D01*
X-1901Y-15538D01*
X-1877Y-15585D01*
X-1829Y-15633D01*
X-1781Y-15657D01*
X-1686D01*
X-1639Y-15633D01*
X-1591Y-15585D01*
X-1567Y-15538D01*
X-1543Y-15466D01*
Y-15347D01*
X-1567Y-15276D01*
X-1591Y-15228D01*
X-1639Y-15181D01*
X-1686Y-15157D01*
X-1781D01*
X-1427D02*
Y-15657D01*
Y-15157D02*
X-1094Y-15657D01*
Y-15157D02*
Y-15657D01*
X-646Y-15157D02*
X-955D01*
Y-15657D01*
X-646D01*
X-955Y-15395D02*
X-765D01*
X-539Y-15324D02*
X-563Y-15347D01*
X-539Y-15371D01*
X-515Y-15347D01*
X-539Y-15324D01*
Y-15609D02*
X-563Y-15633D01*
X-539Y-15657D01*
X-515Y-15633D01*
X-539Y-15609D01*
X23534Y-17874D02*
Y-18407D01*
Y-17874D02*
X23763D01*
X23839Y-17899D01*
X23864Y-17924D01*
X23890Y-17975D01*
Y-18026D01*
X23864Y-18077D01*
X23839Y-18102D01*
X23763Y-18127D01*
X23534D01*
X23712D02*
X23890Y-18407D01*
X24339Y-17874D02*
X24009D01*
Y-18407D01*
X24339D01*
X24009Y-18127D02*
X24212D01*
X24428Y-17874D02*
X24631Y-18407D01*
X24834Y-17874D02*
X24631Y-18407D01*
X24928Y-18051D02*
X24903Y-18077D01*
X24928Y-18102D01*
X24954Y-18077D01*
X24928Y-18051D01*
Y-18356D02*
X24903Y-18381D01*
X24928Y-18407D01*
X24954Y-18381D01*
X24928Y-18356D01*
X28159Y-17874D02*
Y-18407D01*
Y-17874D02*
X28337D01*
X28413Y-17899D01*
X28464Y-17950D01*
X28489Y-18001D01*
X28515Y-18077D01*
Y-18204D01*
X28489Y-18280D01*
X28464Y-18331D01*
X28413Y-18381D01*
X28337Y-18407D01*
X28159D01*
X29040D02*
X28837Y-17874D01*
X28634Y-18407D01*
X28710Y-18229D02*
X28964D01*
X29342Y-17874D02*
Y-18407D01*
X29165Y-17874D02*
X29520D01*
X29914D02*
X29584D01*
Y-18407D01*
X29914D01*
X29584Y-18127D02*
X29787D01*
X30028Y-18051D02*
X30003Y-18077D01*
X30028Y-18102D01*
X30053Y-18077D01*
X30028Y-18051D01*
Y-18356D02*
X30003Y-18381D01*
X30028Y-18407D01*
X30053Y-18381D01*
X30028Y-18356D01*
X1928Y-21217D02*
Y-21750D01*
X1750Y-21217D02*
X2105D01*
X2474Y-21395D02*
Y-21750D01*
Y-21471D02*
X2423Y-21420D01*
X2372Y-21395D01*
X2296D01*
X2245Y-21420D01*
X2194Y-21471D01*
X2169Y-21547D01*
Y-21598D01*
X2194Y-21674D01*
X2245Y-21725D01*
X2296Y-21750D01*
X2372D01*
X2423Y-21725D01*
X2474Y-21674D01*
X2921Y-21395D02*
Y-21801D01*
X2895Y-21877D01*
X2870Y-21902D01*
X2819Y-21928D01*
X2743D01*
X2692Y-21902D01*
X2921Y-21471D02*
X2870Y-21420D01*
X2819Y-21395D01*
X2743D01*
X2692Y-21420D01*
X2641Y-21471D01*
X2616Y-21547D01*
Y-21598D01*
X2641Y-21674D01*
X2692Y-21725D01*
X2743Y-21750D01*
X2819D01*
X2870Y-21725D01*
X2921Y-21674D01*
X3063Y-21318D02*
X3114Y-21293D01*
X3190Y-21217D01*
Y-21750D01*
X3606Y-21217D02*
X3530Y-21242D01*
X3479Y-21318D01*
X3454Y-21445D01*
Y-21521D01*
X3479Y-21648D01*
X3530Y-21725D01*
X3606Y-21750D01*
X3657D01*
X3733Y-21725D01*
X3784Y-21648D01*
X3809Y-21521D01*
Y-21445D01*
X3784Y-21318D01*
X3733Y-21242D01*
X3657Y-21217D01*
X3606D01*
X3979D02*
X4259D01*
X4106Y-21420D01*
X4183D01*
X4233Y-21445D01*
X4259Y-21471D01*
X4284Y-21547D01*
Y-21598D01*
X4259Y-21674D01*
X4208Y-21725D01*
X4132Y-21750D01*
X4056D01*
X3979Y-21725D01*
X3954Y-21699D01*
X3929Y-21648D01*
X4403Y-21521D02*
X4860D01*
X5018Y-21217D02*
Y-21750D01*
Y-21217D02*
X5246D01*
X5323Y-21242D01*
X5348Y-21268D01*
X5373Y-21318D01*
Y-21369D01*
X5348Y-21420D01*
X5323Y-21445D01*
X5246Y-21471D01*
X5018D01*
X5196D02*
X5373Y-21750D01*
X5493Y-21547D02*
X5797D01*
Y-21496D01*
X5772Y-21445D01*
X5747Y-21420D01*
X5696Y-21395D01*
X5620D01*
X5569Y-21420D01*
X5518Y-21471D01*
X5493Y-21547D01*
Y-21598D01*
X5518Y-21674D01*
X5569Y-21725D01*
X5620Y-21750D01*
X5696D01*
X5747Y-21725D01*
X5797Y-21674D01*
X5912Y-21395D02*
X6064Y-21750D01*
X6216Y-21395D02*
X6064Y-21750D01*
X6328Y-21344D02*
Y-21318D01*
X6353Y-21268D01*
X6379Y-21242D01*
X6430Y-21217D01*
X6531D01*
X6582Y-21242D01*
X6607Y-21268D01*
X6633Y-21318D01*
Y-21369D01*
X6607Y-21420D01*
X6557Y-21496D01*
X6303Y-21750D01*
X6658D01*
X6778Y-21318D02*
X6828Y-21293D01*
X6904Y-21217D01*
Y-21750D01*
X7169Y-21521D02*
X7626D01*
X7783Y-21496D02*
X8012D01*
X8088Y-21471D01*
X8113Y-21445D01*
X8138Y-21395D01*
Y-21318D01*
X8113Y-21268D01*
X8088Y-21242D01*
X8012Y-21217D01*
X7783D01*
Y-21750D01*
X8563Y-21395D02*
Y-21750D01*
Y-21471D02*
X8512Y-21420D01*
X8461Y-21395D01*
X8385D01*
X8334Y-21420D01*
X8283Y-21471D01*
X8258Y-21547D01*
Y-21598D01*
X8283Y-21674D01*
X8334Y-21725D01*
X8385Y-21750D01*
X8461D01*
X8512Y-21725D01*
X8563Y-21674D01*
X8705Y-21395D02*
Y-21750D01*
Y-21496D02*
X8781Y-21420D01*
X8832Y-21395D01*
X8908D01*
X8959Y-21420D01*
X8984Y-21496D01*
Y-21750D01*
X9124Y-21547D02*
X9428D01*
Y-21496D01*
X9403Y-21445D01*
X9378Y-21420D01*
X9327Y-21395D01*
X9251D01*
X9200Y-21420D01*
X9149Y-21471D01*
X9124Y-21547D01*
Y-21598D01*
X9149Y-21674D01*
X9200Y-21725D01*
X9251Y-21750D01*
X9327D01*
X9378Y-21725D01*
X9428Y-21674D01*
X9543Y-21217D02*
Y-21750D01*
X9680Y-21699D02*
X9654Y-21725D01*
X9680Y-21750D01*
X9705Y-21725D01*
X9680Y-21699D01*
X9822Y-21496D02*
X10050D01*
X10127Y-21471D01*
X10152Y-21445D01*
X10177Y-21395D01*
Y-21318D01*
X10152Y-21268D01*
X10127Y-21242D01*
X10050Y-21217D01*
X9822D01*
Y-21750D01*
X10678Y-21344D02*
X10652Y-21293D01*
X10601Y-21242D01*
X10551Y-21217D01*
X10449D01*
X10398Y-21242D01*
X10348Y-21293D01*
X10322Y-21344D01*
X10297Y-21420D01*
Y-21547D01*
X10322Y-21623D01*
X10348Y-21674D01*
X10398Y-21725D01*
X10449Y-21750D01*
X10551D01*
X10601Y-21725D01*
X10652Y-21674D01*
X10678Y-21623D01*
X10827Y-21217D02*
Y-21750D01*
Y-21217D02*
X11056D01*
X11132Y-21242D01*
X11158Y-21268D01*
X11183Y-21318D01*
Y-21369D01*
X11158Y-21420D01*
X11132Y-21445D01*
X11056Y-21471D01*
X10827D02*
X11056D01*
X11132Y-21496D01*
X11158Y-21521D01*
X11183Y-21572D01*
Y-21648D01*
X11158Y-21699D01*
X11132Y-21725D01*
X11056Y-21750D01*
X10827D01*
D40*
X14160Y-14400D02*
Y-15360D01*
X13840Y-14400D02*
X14480D01*
X15143Y-14720D02*
Y-15360D01*
Y-14857D02*
X15051Y-14766D01*
X14960Y-14720D01*
X14823D01*
X14731Y-14766D01*
X14640Y-14857D01*
X14594Y-14994D01*
Y-15086D01*
X14640Y-15223D01*
X14731Y-15314D01*
X14823Y-15360D01*
X14960D01*
X15051Y-15314D01*
X15143Y-15223D01*
X15947Y-14720D02*
Y-15451D01*
X15901Y-15589D01*
X15856Y-15634D01*
X15764Y-15680D01*
X15627D01*
X15536Y-15634D01*
X15947Y-14857D02*
X15856Y-14766D01*
X15764Y-14720D01*
X15627D01*
X15536Y-14766D01*
X15444Y-14857D01*
X15399Y-14994D01*
Y-15086D01*
X15444Y-15223D01*
X15536Y-15314D01*
X15627Y-15360D01*
X15764D01*
X15856Y-15314D01*
X15947Y-15223D01*
X16203Y-14583D02*
X16294Y-14537D01*
X16431Y-14400D01*
Y-15360D01*
X17181Y-14400D02*
X17044Y-14446D01*
X16952Y-14583D01*
X16907Y-14812D01*
Y-14949D01*
X16952Y-15177D01*
X17044Y-15314D01*
X17181Y-15360D01*
X17272D01*
X17410Y-15314D01*
X17501Y-15177D01*
X17547Y-14949D01*
Y-14812D01*
X17501Y-14583D01*
X17410Y-14446D01*
X17272Y-14400D01*
X17181D01*
X17853D02*
X18356D01*
X18081Y-14766D01*
X18218D01*
X18310Y-14812D01*
X18356Y-14857D01*
X18401Y-14994D01*
Y-15086D01*
X18356Y-15223D01*
X18264Y-15314D01*
X18127Y-15360D01*
X17990D01*
X17853Y-15314D01*
X17807Y-15269D01*
X17761Y-15177D01*
X8190Y-11732D02*
X7825Y-10772D01*
X7459Y-11732D01*
X7596Y-11412D02*
X8053D01*
X8963Y-11229D02*
X8871Y-11138D01*
X8780Y-11092D01*
X8643D01*
X8552Y-11138D01*
X8460Y-11229D01*
X8414Y-11366D01*
Y-11458D01*
X8460Y-11595D01*
X8552Y-11686D01*
X8643Y-11732D01*
X8780D01*
X8871Y-11686D01*
X8963Y-11595D01*
X9306Y-10772D02*
Y-11549D01*
X9351Y-11686D01*
X9443Y-11732D01*
X9534D01*
X9169Y-11092D02*
X9488D01*
X9763Y-10772D02*
X9808Y-10818D01*
X9854Y-10772D01*
X9808Y-10726D01*
X9763Y-10772D01*
X9808Y-11092D02*
Y-11732D01*
X10023Y-11092D02*
X10297Y-11732D01*
X10572Y-11092D02*
X10297Y-11732D01*
X10727Y-11366D02*
X11276D01*
Y-11275D01*
X11230Y-11183D01*
X11184Y-11138D01*
X11093Y-11092D01*
X10956D01*
X10864Y-11138D01*
X10773Y-11229D01*
X10727Y-11366D01*
Y-11458D01*
X10773Y-11595D01*
X10864Y-11686D01*
X10956Y-11732D01*
X11093D01*
X11184Y-11686D01*
X11276Y-11595D01*
X12235Y-10772D02*
X12464Y-11732D01*
X12692Y-10772D02*
X12464Y-11732D01*
X12692Y-10772D02*
X12921Y-11732D01*
X13149Y-10772D02*
X12921Y-11732D01*
X13890Y-11092D02*
Y-11732D01*
Y-11229D02*
X13798Y-11138D01*
X13707Y-11092D01*
X13570D01*
X13478Y-11138D01*
X13387Y-11229D01*
X13341Y-11366D01*
Y-11458D01*
X13387Y-11595D01*
X13478Y-11686D01*
X13570Y-11732D01*
X13707D01*
X13798Y-11686D01*
X13890Y-11595D01*
X14146Y-11092D02*
X14420Y-11732D01*
X14694Y-11092D02*
X14420Y-11732D01*
X14850Y-11366D02*
X15398D01*
Y-11275D01*
X15352Y-11183D01*
X15307Y-11138D01*
X15215Y-11092D01*
X15078D01*
X14987Y-11138D01*
X14895Y-11229D01*
X14850Y-11366D01*
Y-11458D01*
X14895Y-11595D01*
X14987Y-11686D01*
X15078Y-11732D01*
X15215D01*
X15307Y-11686D01*
X15398Y-11595D01*
X25310Y-18750D02*
Y-18725D01*
X25335Y-18674D01*
X25360Y-18649D01*
X25411Y-18624D01*
X25513D01*
X25563Y-18649D01*
X25589Y-18674D01*
X25614Y-18725D01*
Y-18776D01*
X25589Y-18827D01*
X25538Y-18903D01*
X25284Y-19157D01*
X25640D01*
X25759Y-18725D02*
X25810Y-18700D01*
X25886Y-18624D01*
Y-19157D01*
X32307Y-18505D02*
X32358Y-18479D01*
X32434Y-18403D01*
Y-18936D01*
X32723Y-18530D02*
Y-18505D01*
X32749Y-18454D01*
X32774Y-18429D01*
X32825Y-18403D01*
X32926D01*
X32977Y-18429D01*
X33003Y-18454D01*
X33028Y-18505D01*
Y-18555D01*
X33003Y-18606D01*
X32952Y-18682D01*
X32698Y-18936D01*
X33053D01*
X33173Y-19013D02*
X33528Y-18403D01*
X33589Y-18530D02*
Y-18505D01*
X33615Y-18454D01*
X33640Y-18429D01*
X33691Y-18403D01*
X33792D01*
X33843Y-18429D01*
X33869Y-18454D01*
X33894Y-18505D01*
Y-18555D01*
X33869Y-18606D01*
X33818Y-18682D01*
X33564Y-18936D01*
X33919D01*
X34039Y-18505D02*
X34089Y-18479D01*
X34166Y-18403D01*
Y-18936D01*
X34430Y-19013D02*
X34785Y-18403D01*
X34846Y-18530D02*
Y-18505D01*
X34871Y-18454D01*
X34897Y-18429D01*
X34948Y-18403D01*
X35049D01*
X35100Y-18429D01*
X35125Y-18454D01*
X35151Y-18505D01*
Y-18555D01*
X35125Y-18606D01*
X35075Y-18682D01*
X34821Y-18936D01*
X35176D01*
X35448Y-18403D02*
X35372Y-18429D01*
X35321Y-18505D01*
X35296Y-18632D01*
Y-18708D01*
X35321Y-18835D01*
X35372Y-18911D01*
X35448Y-18936D01*
X35499D01*
X35575Y-18911D01*
X35626Y-18835D01*
X35651Y-18708D01*
Y-18632D01*
X35626Y-18505D01*
X35575Y-18429D01*
X35499Y-18403D01*
X35448D01*
X35770Y-18505D02*
X35821Y-18479D01*
X35897Y-18403D01*
Y-18936D01*
X36314Y-18403D02*
X36238Y-18429D01*
X36187Y-18505D01*
X36161Y-18632D01*
Y-18708D01*
X36187Y-18835D01*
X36238Y-18911D01*
X36314Y-18936D01*
X36365D01*
X36441Y-18911D01*
X36491Y-18835D01*
X36517Y-18708D01*
Y-18632D01*
X36491Y-18505D01*
X36441Y-18429D01*
X36365Y-18403D01*
X36314D01*
D41*
X-2200Y-2390D02*
D03*
X34600D02*
D03*
Y31740D02*
D03*
D42*
X9500Y7890D02*
D03*
Y490D02*
D03*
X0Y0D02*
D03*
X20980Y7890D02*
D03*
Y490D02*
D03*
X11480Y0D02*
D03*
X32460Y7890D02*
D03*
Y490D02*
D03*
X22960Y0D02*
D03*
X9500Y18480D02*
D03*
Y11080D02*
D03*
X0Y10590D02*
D03*
X20980Y18480D02*
D03*
Y11080D02*
D03*
X11480Y10590D02*
D03*
X32460Y18480D02*
D03*
Y11080D02*
D03*
X22960Y10590D02*
D03*
X9500Y29070D02*
D03*
Y21670D02*
D03*
X0Y21180D02*
D03*
X20980Y29070D02*
D03*
Y21670D02*
D03*
X11480Y21180D02*
D03*
X32460Y29070D02*
D03*
Y21670D02*
D03*
X22960Y21180D02*
D03*
D43*
X9480Y-360D02*
D03*
X20960D02*
D03*
X32440D02*
D03*
X9480Y10230D02*
D03*
X20960D02*
D03*
X32440D02*
D03*
X9480Y20820D02*
D03*
X20960D02*
D03*
X32440D02*
D03*
D44*
X9290Y8690D02*
D03*
X8790D02*
D03*
X8290D02*
D03*
X7790D02*
D03*
X7290D02*
D03*
X20770D02*
D03*
X20270D02*
D03*
X19770D02*
D03*
X19270D02*
D03*
X18770D02*
D03*
X32250D02*
D03*
X31750D02*
D03*
X31250D02*
D03*
X30750D02*
D03*
X30250D02*
D03*
X9290Y19280D02*
D03*
X8790D02*
D03*
X8290D02*
D03*
X7790D02*
D03*
X7290D02*
D03*
X20770D02*
D03*
X20270D02*
D03*
X19770D02*
D03*
X19270D02*
D03*
X18770D02*
D03*
X32250D02*
D03*
X31750D02*
D03*
X31250D02*
D03*
X30750D02*
D03*
X30250D02*
D03*
X9290Y29870D02*
D03*
X8790D02*
D03*
X8290D02*
D03*
X7790D02*
D03*
X7290D02*
D03*
X20770D02*
D03*
X20270D02*
D03*
X19770D02*
D03*
X19270D02*
D03*
X18770D02*
D03*
X32250D02*
D03*
X31750D02*
D03*
X31250D02*
D03*
X30750D02*
D03*
X30250D02*
D03*
D45*
X220Y7740D02*
D03*
X11700D02*
D03*
X23180D02*
D03*
X220Y18330D02*
D03*
X11700D02*
D03*
X23180D02*
D03*
X220Y28920D02*
D03*
X11700D02*
D03*
X23180D02*
D03*
D46*
X4490Y8640D02*
D03*
X5090D02*
D03*
X15970D02*
D03*
X16570D02*
D03*
X27450D02*
D03*
X28050D02*
D03*
X4490Y19230D02*
D03*
X5090D02*
D03*
X15970D02*
D03*
X16570D02*
D03*
X27450D02*
D03*
X28050D02*
D03*
X4490Y29820D02*
D03*
X5090D02*
D03*
X15970D02*
D03*
X16570D02*
D03*
X27450D02*
D03*
X28050D02*
D03*
D47*
X9000Y2800D02*
D03*
X9840Y2290D02*
D03*
X6740Y5990D02*
D03*
X5150Y6650D02*
D03*
X4850Y6850D02*
D03*
X6790Y8790D02*
D03*
X6096Y5790D02*
D03*
X5520Y1390D02*
D03*
X8750Y6200D02*
D03*
X6940Y6590D02*
D03*
X8900Y5700D02*
D03*
X6840Y5540D02*
D03*
X2950Y3070D02*
D03*
X7730Y3930D02*
D03*
X3350Y7410D02*
D03*
X3700Y4650D02*
D03*
X5240Y2730D02*
D03*
X2430Y3770D02*
D03*
X2200Y2360D02*
D03*
X7240Y1520D02*
D03*
X6020D02*
D03*
X4010Y6270D02*
D03*
X3360D02*
D03*
X4900Y2400D02*
D03*
X130Y2530D02*
D03*
X650Y5910D02*
D03*
X2060Y6740D02*
D03*
X2320Y4990D02*
D03*
X1810Y3690D02*
D03*
X4900Y820D02*
D03*
X3944Y256D02*
D03*
X8094Y956D02*
D03*
X6520Y1230D02*
D03*
X750Y1500D02*
D03*
X3950Y1893D02*
D03*
X7300Y470D02*
D03*
X8094Y211D02*
D03*
X5440Y3690D02*
D03*
X8720Y1520D02*
D03*
X5000Y10D02*
D03*
X2660Y6130D02*
D03*
X7450Y4600D02*
D03*
X5073Y5407D02*
D03*
X6900Y3600D02*
D03*
X7390Y2760D02*
D03*
X7840Y4540D02*
D03*
X9800Y5650D02*
D03*
X5850Y7000D02*
D03*
Y6550D02*
D03*
X5800Y5650D02*
D03*
X980Y6280D02*
D03*
X9500Y6350D02*
D03*
X7500Y8050D02*
D03*
X2740Y7420D02*
D03*
X4490Y7380D02*
D03*
X3455Y8446D02*
D03*
X710Y8160D02*
D03*
X9000Y6930D02*
D03*
X2740Y8170D02*
D03*
X20480Y2800D02*
D03*
X21320Y2290D02*
D03*
X18220Y5990D02*
D03*
X16630Y6650D02*
D03*
X16330Y6850D02*
D03*
X18270Y8790D02*
D03*
X17576Y5790D02*
D03*
X17000Y1390D02*
D03*
X20230Y6200D02*
D03*
X18420Y6590D02*
D03*
X20380Y5700D02*
D03*
X18320Y5540D02*
D03*
X14430Y3070D02*
D03*
X19210Y3930D02*
D03*
X14830Y7410D02*
D03*
X15180Y4650D02*
D03*
X16720Y2730D02*
D03*
X13910Y3770D02*
D03*
X13680Y2360D02*
D03*
X18720Y1520D02*
D03*
X17500D02*
D03*
X15490Y6270D02*
D03*
X14840D02*
D03*
X16380Y2400D02*
D03*
X11610Y2530D02*
D03*
X12130Y5910D02*
D03*
X13540Y6740D02*
D03*
X13800Y4990D02*
D03*
X13290Y3690D02*
D03*
X16380Y820D02*
D03*
X15424Y256D02*
D03*
X19574Y956D02*
D03*
X18000Y1230D02*
D03*
X12230Y1500D02*
D03*
X15430Y1893D02*
D03*
X18780Y470D02*
D03*
X19574Y211D02*
D03*
X16920Y3690D02*
D03*
X20200Y1520D02*
D03*
X16480Y10D02*
D03*
X14140Y6130D02*
D03*
X18930Y4600D02*
D03*
X16553Y5407D02*
D03*
X18380Y3600D02*
D03*
X18870Y2760D02*
D03*
X19320Y4540D02*
D03*
X21280Y5650D02*
D03*
X17330Y7000D02*
D03*
Y6550D02*
D03*
X17280Y5650D02*
D03*
X12460Y6280D02*
D03*
X20980Y6350D02*
D03*
X18980Y8050D02*
D03*
X14220Y7420D02*
D03*
X15970Y7380D02*
D03*
X14935Y8446D02*
D03*
X12190Y8160D02*
D03*
X20480Y6930D02*
D03*
X14220Y8170D02*
D03*
X31960Y2800D02*
D03*
X32800Y2290D02*
D03*
X29700Y5990D02*
D03*
X28110Y6650D02*
D03*
X27810Y6850D02*
D03*
X29750Y8790D02*
D03*
X29056Y5790D02*
D03*
X28480Y1390D02*
D03*
X31710Y6200D02*
D03*
X29900Y6590D02*
D03*
X31860Y5700D02*
D03*
X29800Y5540D02*
D03*
X25910Y3070D02*
D03*
X30690Y3930D02*
D03*
X26310Y7410D02*
D03*
X26660Y4650D02*
D03*
X28200Y2730D02*
D03*
X25390Y3770D02*
D03*
X25160Y2360D02*
D03*
X30200Y1520D02*
D03*
X28980D02*
D03*
X26970Y6270D02*
D03*
X26320D02*
D03*
X27860Y2400D02*
D03*
X23090Y2530D02*
D03*
X23610Y5910D02*
D03*
X25020Y6740D02*
D03*
X25280Y4990D02*
D03*
X24770Y3690D02*
D03*
X27860Y820D02*
D03*
X26904Y256D02*
D03*
X31054Y956D02*
D03*
X29480Y1230D02*
D03*
X23710Y1500D02*
D03*
X26910Y1893D02*
D03*
X30260Y470D02*
D03*
X31054Y211D02*
D03*
X28400Y3690D02*
D03*
X31680Y1520D02*
D03*
X27960Y10D02*
D03*
X25620Y6130D02*
D03*
X30410Y4600D02*
D03*
X28033Y5407D02*
D03*
X29860Y3600D02*
D03*
X30350Y2760D02*
D03*
X30800Y4540D02*
D03*
X32760Y5650D02*
D03*
X28810Y7000D02*
D03*
Y6550D02*
D03*
X28760Y5650D02*
D03*
X23940Y6280D02*
D03*
X32460Y6350D02*
D03*
X30460Y8050D02*
D03*
X25700Y7420D02*
D03*
X27450Y7380D02*
D03*
X26415Y8446D02*
D03*
X23670Y8160D02*
D03*
X31960Y6930D02*
D03*
X25700Y8170D02*
D03*
X9000Y13390D02*
D03*
X9840Y12880D02*
D03*
X6740Y16580D02*
D03*
X5150Y17240D02*
D03*
X4850Y17440D02*
D03*
X6790Y19380D02*
D03*
X6096Y16380D02*
D03*
X5520Y11980D02*
D03*
X8750Y16790D02*
D03*
X6940Y17180D02*
D03*
X8900Y16290D02*
D03*
X6840Y16130D02*
D03*
X2950Y13660D02*
D03*
X7730Y14520D02*
D03*
X3350Y18000D02*
D03*
X3700Y15240D02*
D03*
X5240Y13320D02*
D03*
X2430Y14360D02*
D03*
X2200Y12950D02*
D03*
X7240Y12110D02*
D03*
X6020D02*
D03*
X4010Y16860D02*
D03*
X3360D02*
D03*
X4900Y12990D02*
D03*
X130Y13120D02*
D03*
X650Y16500D02*
D03*
X2060Y17330D02*
D03*
X2320Y15580D02*
D03*
X1810Y14280D02*
D03*
X4900Y11410D02*
D03*
X3944Y10846D02*
D03*
X8094Y11546D02*
D03*
X6520Y11820D02*
D03*
X750Y12090D02*
D03*
X3950Y12483D02*
D03*
X7300Y11060D02*
D03*
X8094Y10801D02*
D03*
X5440Y14280D02*
D03*
X8720Y12110D02*
D03*
X5000Y10600D02*
D03*
X2660Y16720D02*
D03*
X7450Y15190D02*
D03*
X5073Y15997D02*
D03*
X6900Y14190D02*
D03*
X7390Y13350D02*
D03*
X7840Y15130D02*
D03*
X9800Y16240D02*
D03*
X5850Y17590D02*
D03*
Y17140D02*
D03*
X5800Y16240D02*
D03*
X980Y16870D02*
D03*
X9500Y16940D02*
D03*
X7500Y18640D02*
D03*
X2740Y18010D02*
D03*
X4490Y17970D02*
D03*
X3455Y19036D02*
D03*
X710Y18750D02*
D03*
X9000Y17520D02*
D03*
X2740Y18760D02*
D03*
X20480Y13390D02*
D03*
X21320Y12880D02*
D03*
X18220Y16580D02*
D03*
X16630Y17240D02*
D03*
X16330Y17440D02*
D03*
X18270Y19380D02*
D03*
X17576Y16380D02*
D03*
X17000Y11980D02*
D03*
X20230Y16790D02*
D03*
X18420Y17180D02*
D03*
X20380Y16290D02*
D03*
X18320Y16130D02*
D03*
X14430Y13660D02*
D03*
X19210Y14520D02*
D03*
X14830Y18000D02*
D03*
X15180Y15240D02*
D03*
X16720Y13320D02*
D03*
X13910Y14360D02*
D03*
X13680Y12950D02*
D03*
X18720Y12110D02*
D03*
X17500D02*
D03*
X15490Y16860D02*
D03*
X14840D02*
D03*
X16380Y12990D02*
D03*
X11610Y13120D02*
D03*
X12130Y16500D02*
D03*
X13540Y17330D02*
D03*
X13800Y15580D02*
D03*
X13290Y14280D02*
D03*
X16380Y11410D02*
D03*
X15424Y10846D02*
D03*
X19574Y11546D02*
D03*
X18000Y11820D02*
D03*
X12230Y12090D02*
D03*
X15430Y12483D02*
D03*
X18780Y11060D02*
D03*
X19574Y10801D02*
D03*
X16920Y14280D02*
D03*
X20200Y12110D02*
D03*
X16480Y10600D02*
D03*
X14140Y16720D02*
D03*
X18930Y15190D02*
D03*
X16553Y15997D02*
D03*
X18380Y14190D02*
D03*
X18870Y13350D02*
D03*
X19320Y15130D02*
D03*
X21280Y16240D02*
D03*
X17330Y17590D02*
D03*
Y17140D02*
D03*
X17280Y16240D02*
D03*
X12460Y16870D02*
D03*
X20980Y16940D02*
D03*
X18980Y18640D02*
D03*
X14220Y18010D02*
D03*
X15970Y17970D02*
D03*
X14935Y19036D02*
D03*
X12190Y18750D02*
D03*
X20480Y17520D02*
D03*
X14220Y18760D02*
D03*
X31960Y13390D02*
D03*
X32800Y12880D02*
D03*
X29700Y16580D02*
D03*
X28110Y17240D02*
D03*
X27810Y17440D02*
D03*
X29750Y19380D02*
D03*
X29056Y16380D02*
D03*
X28480Y11980D02*
D03*
X31710Y16790D02*
D03*
X29900Y17180D02*
D03*
X31860Y16290D02*
D03*
X29800Y16130D02*
D03*
X25910Y13660D02*
D03*
X30690Y14520D02*
D03*
X26310Y18000D02*
D03*
X26660Y15240D02*
D03*
X28200Y13320D02*
D03*
X25390Y14360D02*
D03*
X25160Y12950D02*
D03*
X30200Y12110D02*
D03*
X28980D02*
D03*
X26970Y16860D02*
D03*
X26320D02*
D03*
X27860Y12990D02*
D03*
X23090Y13120D02*
D03*
X23610Y16500D02*
D03*
X25020Y17330D02*
D03*
X25280Y15580D02*
D03*
X24770Y14280D02*
D03*
X27860Y11410D02*
D03*
X26904Y10846D02*
D03*
X31054Y11546D02*
D03*
X29480Y11820D02*
D03*
X23710Y12090D02*
D03*
X26910Y12483D02*
D03*
X30260Y11060D02*
D03*
X31054Y10801D02*
D03*
X28400Y14280D02*
D03*
X31680Y12110D02*
D03*
X27960Y10600D02*
D03*
X25620Y16720D02*
D03*
X30410Y15190D02*
D03*
X28033Y15997D02*
D03*
X29860Y14190D02*
D03*
X30350Y13350D02*
D03*
X30800Y15130D02*
D03*
X32760Y16240D02*
D03*
X28810Y17590D02*
D03*
Y17140D02*
D03*
X28760Y16240D02*
D03*
X23940Y16870D02*
D03*
X32460Y16940D02*
D03*
X30460Y18640D02*
D03*
X25700Y18010D02*
D03*
X27450Y17970D02*
D03*
X26415Y19036D02*
D03*
X23670Y18750D02*
D03*
X31960Y17520D02*
D03*
X25700Y18760D02*
D03*
X9000Y23980D02*
D03*
X9840Y23470D02*
D03*
X6740Y27170D02*
D03*
X5150Y27830D02*
D03*
X4850Y28030D02*
D03*
X6790Y29970D02*
D03*
X6096Y26970D02*
D03*
X5520Y22570D02*
D03*
X8750Y27380D02*
D03*
X6940Y27770D02*
D03*
X8900Y26880D02*
D03*
X6840Y26720D02*
D03*
X2950Y24250D02*
D03*
X7730Y25110D02*
D03*
X3350Y28590D02*
D03*
X3700Y25830D02*
D03*
X5240Y23910D02*
D03*
X2430Y24950D02*
D03*
X2200Y23540D02*
D03*
X7240Y22700D02*
D03*
X6020D02*
D03*
X4010Y27450D02*
D03*
X3360D02*
D03*
X4900Y23580D02*
D03*
X130Y23710D02*
D03*
X650Y27090D02*
D03*
X2060Y27920D02*
D03*
X2320Y26170D02*
D03*
X1810Y24870D02*
D03*
X4900Y22000D02*
D03*
X3944Y21436D02*
D03*
X8094Y22136D02*
D03*
X6520Y22410D02*
D03*
X750Y22680D02*
D03*
X3950Y23073D02*
D03*
X7300Y21650D02*
D03*
X8094Y21391D02*
D03*
X5440Y24870D02*
D03*
X8720Y22700D02*
D03*
X5000Y21190D02*
D03*
X2660Y27310D02*
D03*
X7450Y25780D02*
D03*
X5073Y26587D02*
D03*
X6900Y24780D02*
D03*
X7390Y23940D02*
D03*
X7840Y25720D02*
D03*
X9800Y26830D02*
D03*
X5850Y28180D02*
D03*
Y27730D02*
D03*
X5800Y26830D02*
D03*
X980Y27460D02*
D03*
X9500Y27530D02*
D03*
X7500Y29230D02*
D03*
X2740Y28600D02*
D03*
X4490Y28560D02*
D03*
X3455Y29626D02*
D03*
X710Y29340D02*
D03*
X9000Y28110D02*
D03*
X2740Y29350D02*
D03*
X20480Y23980D02*
D03*
X21320Y23470D02*
D03*
X18220Y27170D02*
D03*
X16630Y27830D02*
D03*
X16330Y28030D02*
D03*
X18270Y29970D02*
D03*
X17576Y26970D02*
D03*
X17000Y22570D02*
D03*
X20230Y27380D02*
D03*
X18420Y27770D02*
D03*
X20380Y26880D02*
D03*
X18320Y26720D02*
D03*
X14430Y24250D02*
D03*
X19210Y25110D02*
D03*
X14830Y28590D02*
D03*
X15180Y25830D02*
D03*
X16720Y23910D02*
D03*
X13910Y24950D02*
D03*
X13680Y23540D02*
D03*
X18720Y22700D02*
D03*
X17500D02*
D03*
X15490Y27450D02*
D03*
X14840D02*
D03*
X16380Y23580D02*
D03*
X11610Y23710D02*
D03*
X12130Y27090D02*
D03*
X13540Y27920D02*
D03*
X13800Y26170D02*
D03*
X13290Y24870D02*
D03*
X16380Y22000D02*
D03*
X15424Y21436D02*
D03*
X19574Y22136D02*
D03*
X18000Y22410D02*
D03*
X12230Y22680D02*
D03*
X15430Y23073D02*
D03*
X18780Y21650D02*
D03*
X19574Y21391D02*
D03*
X16920Y24870D02*
D03*
X20200Y22700D02*
D03*
X16480Y21190D02*
D03*
X14140Y27310D02*
D03*
X18930Y25780D02*
D03*
X16553Y26587D02*
D03*
X18380Y24780D02*
D03*
X18870Y23940D02*
D03*
X19320Y25720D02*
D03*
X21280Y26830D02*
D03*
X17330Y28180D02*
D03*
Y27730D02*
D03*
X17280Y26830D02*
D03*
X12460Y27460D02*
D03*
X20980Y27530D02*
D03*
X18980Y29230D02*
D03*
X14220Y28600D02*
D03*
X15970Y28560D02*
D03*
X14935Y29626D02*
D03*
X12190Y29340D02*
D03*
X20480Y28110D02*
D03*
X14220Y29350D02*
D03*
X31960Y23980D02*
D03*
X32800Y23470D02*
D03*
X29700Y27170D02*
D03*
X28110Y27830D02*
D03*
X27810Y28030D02*
D03*
X29750Y29970D02*
D03*
X29056Y26970D02*
D03*
X28480Y22570D02*
D03*
X31710Y27380D02*
D03*
X29900Y27770D02*
D03*
X31860Y26880D02*
D03*
X29800Y26720D02*
D03*
X25910Y24250D02*
D03*
X30690Y25110D02*
D03*
X26310Y28590D02*
D03*
X26660Y25830D02*
D03*
X28200Y23910D02*
D03*
X25390Y24950D02*
D03*
X25160Y23540D02*
D03*
X30200Y22700D02*
D03*
X28980D02*
D03*
X26970Y27450D02*
D03*
X26320D02*
D03*
X27860Y23580D02*
D03*
X23090Y23710D02*
D03*
X23610Y27090D02*
D03*
X25020Y27920D02*
D03*
X25280Y26170D02*
D03*
X24770Y24870D02*
D03*
X27860Y22000D02*
D03*
X26904Y21436D02*
D03*
X31054Y22136D02*
D03*
X29480Y22410D02*
D03*
X23710Y22680D02*
D03*
X26910Y23073D02*
D03*
X30260Y21650D02*
D03*
X31054Y21391D02*
D03*
X28400Y24870D02*
D03*
X31680Y22700D02*
D03*
X27960Y21190D02*
D03*
X25620Y27310D02*
D03*
X30410Y25780D02*
D03*
X28033Y26587D02*
D03*
X29860Y24780D02*
D03*
X30350Y23940D02*
D03*
X30800Y25720D02*
D03*
X32760Y26830D02*
D03*
X28810Y28180D02*
D03*
Y27730D02*
D03*
X28760Y26830D02*
D03*
X23940Y27460D02*
D03*
X32460Y27530D02*
D03*
X30460Y29230D02*
D03*
X25700Y28600D02*
D03*
X27450Y28560D02*
D03*
X26415Y29626D02*
D03*
X23670Y29340D02*
D03*
X31960Y28110D02*
D03*
X25700Y29350D02*
D03*
M02*
