M48
;Layer_Color=13278208
;FILE_FORMAT=2:4
INCH,LZ
;TYPE=PLATED
T1F00S00C0.0100
T2F00S00C0.0197
T3F00S00C0.0276
T4F00S00C0.0280
T5F00S00C0.0300
T6F00S00C0.0330
T7F00S00C0.0400
;TYPE=NON_PLATED
T8F00S00C0.0200
T9F00S00C0.1180
%
T01
X00013Y00253
X00075Y0015
X0022Y00236
X00295Y00307
X00243Y00377
X00181Y00369
X00232Y00499
X00266Y00613
X00336Y00627
X00401
X005073Y005407
X0058Y00565
X006096Y00579
X00674Y00599
X00684Y00554
X00745Y0046
X00784Y00454
X00773Y00393
X0069Y0036
X00739Y00276
X00724Y00152
X00652Y00123
X00602Y00152
X00552Y00139
X0049Y00082
X005Y00001
X003944Y000256
X00395Y001893
X0049Y0024
X00524Y00273
X00544Y00369
X0037Y00465
X00065Y00591
X00098Y00628
X00875Y0062
X0089Y0057
X0098Y00565
X0095Y00635
X01246Y00628
X01213Y00591
X01414Y00613
X01484Y00627
X01549
X01518Y00465
X0138Y00499
X01391Y00377
X01329Y00369
X01368Y00236
X01443Y00307
X01543Y001893
X015424Y000256
X01223Y0015
X01161Y00253
X00984Y00229
X009Y0028
X00872Y00152
X008094Y000956
Y000211
X0073Y00047
X01638Y00082
X01648Y00001
X017Y00139
X0175Y00152
X018Y00123
X01872Y00152
X01878Y00047
X019574Y000211
Y000956
X0202Y00152
X02048Y0028
X02132Y00229
X02309Y00253
X02371Y0015
X02516Y00236
X02591Y00307
X02539Y00377
X02477Y00369
X02528Y00499
X02562Y00613
X02632Y00627
X02697
X028033Y005407
X02876Y00565
X029056Y00579
X0297Y00599
X0298Y00554
X03041Y0046
X0308Y00454
X03069Y00393
X02986Y0036
X03035Y00276
X0302Y00152
X02948Y00123
X02898Y00152
X02848Y00139
X02786Y00082
X02796Y00001
X026904Y000256
X02691Y001893
X02786Y0024
X0282Y00273
X0284Y00369
X02666Y00465
X02361Y00591
X02394Y00628
X02098Y00635
X02023Y0062
X02038Y0057
X02128Y00565
X01832Y00554
X01822Y00599
X017576Y00579
X01728Y00565
X016553Y005407
X01692Y00369
X01672Y00273
X01638Y0024
X01887Y00276
X01838Y0036
X01921Y00393
X01932Y00454
X01893Y0046
X03171Y0062
X03168Y00152
X031054Y000956
Y000211
X03026Y00047
X03196Y0028
X0328Y00229
X03276Y00565
X03186Y0057
X03246Y00635
X03196Y00693
Y01339
X0328Y01288
X03276Y01624
X03186Y01629
X03246Y01694
X03196Y01752
X03171Y01679
X0299Y01718
X0297Y01658
X0298Y01613
X029056Y01638
X02876Y01624
X02881Y01714
Y01759
X02811Y01724
X02781Y01744
X02745Y01797
X02631Y018
X0257Y01801
Y01876
X026415Y019036
X02632Y01686
X02697
X02562Y01672
X02502Y01733
X02394Y01687
X02361Y0165
X02367Y01875
X02048Y01752
X02023Y01679
X02038Y01629
X02128Y01624
X02098Y01694
X01842Y01718
X01822Y01658
X01832Y01613
X017576Y01638
X01728Y01624
X01733Y01714
Y01759
X01663Y01724
X01633Y01744
X016553Y015997
X01692Y01428
X01672Y01332
X01638Y01299
Y01141
X01648Y0106
X017Y01198
X0175Y01211
X018Y01182
X01872Y01211
X01878Y01106
X019574Y010801
Y011546
X0202Y01211
X02048Y01339
X02132Y01288
X02309Y01312
X02371Y01209
X02516Y01295
X02591Y01366
X02539Y01436
X02477Y01428
X02528Y01558
X02666Y01524
X028033Y015997
X0284Y01428
X0282Y01332
X02786Y01299
X02691Y012483
X026904Y010846
X02796Y0106
X02786Y01141
X02848Y01198
X02898Y01211
X02948Y01182
X0302Y01211
X03026Y01106
X031054Y010801
Y011546
X03168Y01211
X03035Y01335
X02986Y01419
X03069Y01452
X0308Y01513
X03041Y01519
X03046Y01864
X02975Y01938
X03026Y02165
X031054Y021391
X02796Y02119
X02786Y022
X026904Y021436
X019574Y021391
X01878Y02165
X01638Y022
X01648Y02119
X01827Y01938
X01898Y01864
X01893Y01519
X01932Y01513
X01921Y01452
X01838Y01419
X01887Y01335
X01827Y00879
X01898Y00805
X01842Y00659
X01733Y00655
Y007
X01663Y00665
X01633Y00685
X02048Y00693
X02367Y00816
X0257Y00817
Y00742
X02631Y00741
X026415Y008446
X02745Y00738
X02781Y00685
X02811Y00665
X02881Y00655
Y007
X0299Y00659
X03046Y00805
X02975Y00879
X02502Y00674
X01597Y00738
X01483Y00741
X01422Y00742
Y00817
X014935Y008446
X015424Y010846
X01543Y012483
X01443Y01366
X01391Y01436
X01329Y01428
X01368Y01295
X01161Y01312
X01223Y01209
X00984Y01288
X009Y01339
X00872Y01211
X008094Y011546
Y010801
X0073Y01106
X00724Y01211
X00652Y01182
X00602Y01211
X00552Y01198
X0049Y01141
X005Y0106
X003944Y010846
X00395Y012483
X0049Y01299
X00524Y01332
X00544Y01428
X0069Y01419
X00773Y01452
X00784Y01513
X00745Y01519
X00684Y01613
X00674Y01658
X00694Y01718
X00585Y01714
Y01759
X00515Y01724
X00485Y01744
X00449Y01797
X00335Y018
X00274Y01801
Y01876
X003455Y019036
X00336Y01686
X00401
X00266Y01672
X00206Y01733
X00098Y01687
X00065Y0165
X00071Y01875
X00232Y01558
X00243Y01436
X00181Y01428
X0022Y01295
X00295Y01366
X0037Y01524
X005073Y015997
X0058Y01624
X006096Y01638
X0089Y01629
X00875Y01679
X0095Y01694
X0098Y01624
X009Y01752
X0075Y01864
X00679Y01938
X0073Y02165
X008094Y021391
X005Y02119
X0049Y022
X003944Y021436
X01219Y01875
X01422Y01876
Y01801
X01483Y018
X014935Y019036
X01597Y01797
X01549Y01686
X01484
X01414Y01672
X01354Y01733
X01246Y01687
X01213Y0165
X0138Y01558
X01518Y01524
X015424Y021436
X00739Y01335
X00679Y00879
X0075Y00805
X00694Y00659
X00585Y00655
Y007
X00515Y00665
X00485Y00685
X00449Y00738
X00335Y00741
X00274Y00742
Y00817
X003455Y008446
X00071Y00816
X00206Y00674
X00075Y01209
X009Y00693
X01219Y00816
X01354Y00674
X00013Y01312
Y02371
X00075Y02268
X0022Y02354
X00295Y02425
X00243Y02495
X00181Y02487
X00232Y02617
X00266Y02731
X00336Y02745
X00401
X00485Y02803
X00515Y02783
X00585Y02773
Y02818
X0058Y02683
X006096Y02697
X00674Y02717
X00684Y02672
X00694Y02777
X0075Y02923
X00679Y02997
X003455Y029626
X00274Y02935
Y0286
X00335Y02859
X00449Y02856
X005073Y026587
X00544Y02487
X00524Y02391
X0049Y02358
X00395Y023073
X00552Y02257
X00602Y0227
X00652Y02241
X00724Y0227
X00739Y02394
X0069Y02478
X00773Y02511
X00784Y02572
X00745Y02578
X0089Y02688
X00875Y02738
X0095Y02753
X0098Y02683
X009Y02811
X01246Y02746
X01213Y02709
X01414Y02731
X01484Y02745
X01549
X01597Y02856
X01483Y02859
X01422Y0286
Y02935
X014935Y029626
X01219Y02934
X01354Y02792
X0138Y02617
X01391Y02495
X01329Y02487
X01368Y02354
X01443Y02425
X01543Y023073
X01518Y02583
X01161Y02371
X01223Y02268
X00984Y02347
X009Y02398
X00872Y0227
X008094Y022136
X0037Y02583
X00206Y02792
X00098Y02746
X00065Y02709
X00071Y02934
X01633Y02803
X01663Y02783
X01733Y02773
Y02818
X01728Y02683
X017576Y02697
X01822Y02717
X01832Y02672
X01842Y02777
X01898Y02923
X01827Y02997
X02048Y02811
X02023Y02738
X02038Y02688
X02128Y02683
X02098Y02753
X02394Y02746
X02361Y02709
X02562Y02731
X02632Y02745
X02697
X02781Y02803
X02811Y02783
X02881Y02773
Y02818
X02876Y02683
X029056Y02697
X0297Y02717
X0298Y02672
X0299Y02777
X03046Y02923
X02975Y02997
X026415Y029626
X0257Y02935
Y0286
X02631Y02859
X02745Y02856
X028033Y026587
X0284Y02487
X0282Y02391
X02786Y02358
X02691Y023073
X02848Y02257
X02898Y0227
X02948Y02241
X0302Y0227
X03035Y02394
X02986Y02478
X03069Y02511
X0308Y02572
X03041Y02578
X03171Y02738
X03168Y0227
X031054Y022136
X02591Y02425
X02539Y02495
X02477Y02487
X02516Y02354
X02309Y02371
X02371Y02268
X02132Y02347
X02048Y02398
X0202Y0227
X019574Y022136
X01872Y0227
X018Y02241
X0175Y0227
X017Y02257
X01672Y02391
X01638Y02358
X01692Y02487
X01838Y02478
X01921Y02511
X01932Y02572
X01893Y02578
X01887Y02394
X016553Y026587
X02528Y02617
X02666Y02583
X02502Y02792
X02367Y02934
X03196Y02811
X03246Y02753
X03276Y02683
X03186Y02688
X03196Y02398
X0328Y02347
T02
X01657Y00864
Y01923
X02745
X02805
Y00864
X02745
X01597
Y01923
X00509
X00449
Y00864
X00509
Y02982
X00449
X01597
X01657
X02745
X02805
T03
X03225Y00869
Y01928
X03175
X03125
X03075
X03025
X02077
X02027
X01977
X01927
X01877
Y00869
X01927
X01977
X02027
X02077
X03025
X03075
X03125
X03175
X00929
X00879
X00829
X00779
X00729
Y01928
X00779
X00829
X00879
X00929
Y02987
X00879
X00829
X00779
X00729
X01877
X01927
X01977
X02027
X02077
X03025
X03075
X03125
X03175
X03225
T04
X02687Y00863
Y01922
X01539
Y00863
X00391
Y01922
Y02981
X01539
X02687
T05
X-0007Y-004
Y-0035
Y-003
Y-0025
Y-002
X03315
Y-0025
Y-003
Y-0035
Y-004
X-0007Y03128
Y03178
Y03228
Y03278
Y03328
X03315
Y03278
Y03228
Y03178
Y03128
T06
X0Y0
X0095Y00049
X01148Y0
X02098Y00049
X02296Y0
X03246Y00049
Y00789
Y01108
Y01848
Y02167
X02296Y02118
X02098Y02167
Y01848
X02318Y01833
X02296Y01059
X02098Y01108
Y00789
X02318Y00774
X0117
X0095Y00789
Y01108
X01148Y01059
X0117Y01833
X0095Y01848
Y02167
X01148Y02118
X0
X00022Y01833
X0Y01059
X00022Y00774
Y02892
X0095Y02907
X0117Y02892
X02098Y02907
X02318Y02892
X03246Y02907
T07
X00948Y-00036
X02096
X03244
Y01023
Y02082
X02096
Y01023
X00948
Y02082
T08
X-00132Y00082
Y00114
Y00146
X-00072
Y00114
Y00082
X01016
Y00114
Y00146
X01076
Y00114
Y00082
X02164
Y00114
Y00146
X02224
Y00114
Y00082
X03312
Y00114
Y00146
X03372
Y00114
Y00082
Y00671
Y00703
Y00735
X03312
Y00703
Y00671
Y01141
Y01173
Y01205
X03372
Y01173
Y01141
Y0173
Y01762
Y01794
X03312
Y01762
Y0173
Y022
X03372
X02224
X02164
Y01794
Y01762
Y0173
X02224
Y01762
Y01794
Y01205
Y01173
Y01141
X02164
Y01173
Y01205
Y00735
Y00703
Y00671
X02224
Y00703
Y00735
X01076
Y00703
Y00671
X01016
Y00703
Y00735
Y01141
Y01173
Y01205
X01076
Y01173
Y01141
Y0173
Y01762
Y01794
X01016
Y01762
Y0173
Y022
X01076
X-00072
X-00132
Y01794
Y01762
Y0173
X-00072
Y01762
Y01794
Y01205
Y01173
Y01141
X-00132
Y01173
Y01205
Y00735
Y00703
Y00671
X-00072
Y00703
Y00735
Y02232
Y02264
X-00132
Y02232
Y02789
Y02821
Y02853
X-00072
Y02821
Y02789
X01016
Y02821
Y02853
X01076
Y02821
Y02789
Y02264
Y02232
X01016
Y02264
X02164
Y02232
X02224
Y02264
Y02789
Y02821
Y02853
X02164
Y02821
Y02789
X03312
Y02821
Y02853
X03372
Y02821
Y02789
Y02264
Y02232
X03312
Y02264
T09
X-0022Y-00239
X0346
Y03174
M30
