%FSLAX24Y24*%
%MOIN*%
G70*
G01*
G75*
G04 Layer_Physical_Order=4*
G04 Layer_Color=16711680*
%ADD10C,0.0500*%
%ADD11C,0.0100*%
%ADD12C,0.0150*%
%ADD13R,0.0300X0.0300*%
%ADD14R,0.0740X0.0450*%
%ADD15R,0.0300X0.0300*%
%ADD16O,0.0240X0.0800*%
%ADD17R,0.0360X0.0500*%
%ADD18R,0.0360X0.0360*%
%ADD19R,0.0236X0.1000*%
%ADD20R,0.0236X0.0900*%
%ADD21R,0.0700X0.0236*%
%ADD22R,0.0900X0.0236*%
%ADD23O,0.0160X0.0600*%
%ADD24R,0.0138X0.0354*%
%ADD25R,0.0138X0.0354*%
%ADD26R,0.0236X0.0236*%
%ADD27O,0.0160X0.0600*%
%ADD28R,0.0200X0.0500*%
%ADD29R,0.0748X0.0433*%
%ADD30C,0.0120*%
%ADD31C,0.0080*%
%ADD32C,0.0250*%
%ADD33C,0.0200*%
%ADD34C,0.0120*%
%ADD35C,0.0160*%
%ADD36C,0.0140*%
%ADD37C,0.0260*%
%ADD38C,0.0060*%
%ADD39C,0.0050*%
%ADD40C,0.0090*%
%ADD41C,0.1180*%
%ADD42C,0.0700*%
%ADD43R,0.0500X0.0500*%
%ADD44R,0.0394X0.0433*%
%ADD45C,0.0650*%
%ADD46C,0.0394*%
%ADD47C,0.0200*%
%ADD48R,0.1398X0.1398*%
%ADD49C,0.0300*%
%ADD50R,0.0650X0.0650*%
G36*
X9940Y8080D02*
X9891Y8070D01*
X9876Y8107D01*
X9807Y8197D01*
X9717Y8266D01*
X9612Y8309D01*
X9500Y8324D01*
X9388Y8309D01*
X9283Y8266D01*
X9193Y8197D01*
X9124Y8107D01*
X9081Y8002D01*
X9066Y7890D01*
X9081Y7778D01*
X9124Y7673D01*
X9193Y7583D01*
X9283Y7514D01*
X9388Y7471D01*
X9500Y7456D01*
X9612Y7471D01*
X9717Y7514D01*
X9807Y7583D01*
X9876Y7673D01*
X9891Y7710D01*
X9940Y7700D01*
Y5856D01*
X9896Y5832D01*
X9880Y5843D01*
X9800Y5859D01*
X9720Y5843D01*
X9652Y5798D01*
X9502Y5648D01*
X9457Y5580D01*
X9441Y5500D01*
X9441Y5500D01*
Y4637D01*
X9273Y4469D01*
X8295D01*
Y2911D01*
X9441D01*
Y2480D01*
X9441Y2480D01*
X9457Y2400D01*
X9502Y2332D01*
X9692Y2142D01*
X9760Y2097D01*
X9840Y2081D01*
X9901Y2093D01*
X9940Y2061D01*
Y680D01*
X9891Y670D01*
X9876Y707D01*
X9807Y797D01*
X9717Y866D01*
X9612Y909D01*
X9550Y917D01*
Y490D01*
Y63D01*
X9612Y71D01*
X9717Y114D01*
X9807Y183D01*
X9876Y273D01*
X9891Y310D01*
X9940Y300D01*
Y-659D01*
X9810D01*
Y-30D01*
X9150D01*
Y-150D01*
X9120D01*
Y-150D01*
X5709D01*
Y-659D01*
X3400D01*
Y720D01*
X-500D01*
Y4310D01*
X-170D01*
Y3740D01*
X559D01*
Y4469D01*
X568D01*
Y5514D01*
X420D01*
Y6093D01*
X1259D01*
Y6768D01*
X820Y7200D01*
Y8310D01*
X2564D01*
X2588Y8266D01*
X2570Y8240D01*
X2556Y8170D01*
X2570Y8100D01*
X2610Y8040D01*
X2670Y8000D01*
X2740Y7986D01*
X2810Y8000D01*
X2870Y8040D01*
X2910Y8100D01*
X2924Y8170D01*
X2910Y8240D01*
X2870Y8300D01*
X2873Y8310D01*
X3070D01*
Y8890D01*
X3637D01*
X3659Y8845D01*
X3622Y8796D01*
X3588Y8716D01*
X3577Y8632D01*
X3532Y8612D01*
X3525Y8616D01*
X3455Y8630D01*
X3385Y8616D01*
X3325Y8576D01*
X3285Y8517D01*
X3271Y8446D01*
X3285Y8376D01*
X3325Y8317D01*
X3385Y8277D01*
X3455Y8263D01*
X3525Y8277D01*
X3585Y8317D01*
X3624Y8376D01*
X3626Y8383D01*
X3675Y8395D01*
X3675Y8395D01*
X3744Y8342D01*
X3824Y8308D01*
X3910Y8297D01*
X3996Y8308D01*
X4076Y8342D01*
X4145Y8395D01*
X4198Y8464D01*
X4207Y8484D01*
X4256Y8490D01*
X4293Y8443D01*
X4350Y8398D01*
X4418Y8370D01*
X4440Y8367D01*
Y8640D01*
X4490D01*
Y8690D01*
X4763D01*
X4769Y8640D01*
X4765Y8608D01*
X4815D01*
X4820Y8568D01*
X4848Y8500D01*
X4893Y8443D01*
X4950Y8398D01*
X5018Y8370D01*
X5090Y8361D01*
X5162Y8370D01*
X5230Y8398D01*
X5287Y8443D01*
X5332Y8500D01*
X5360Y8568D01*
X5369Y8640D01*
X5360Y8712D01*
X5332Y8780D01*
X5287Y8837D01*
X5230Y8882D01*
X5231Y8890D01*
X6587D01*
X6619Y8851D01*
X6606Y8790D01*
X6620Y8720D01*
X6660Y8660D01*
X6720Y8620D01*
X6790Y8606D01*
X6860Y8620D01*
X6920Y8660D01*
X6960Y8720D01*
X6963Y8739D01*
X7013Y8734D01*
Y8393D01*
X8740D01*
Y8690D01*
X8840D01*
Y8393D01*
X9567D01*
Y8890D01*
X9940D01*
Y8080D01*
D02*
G37*
%LPC*%
G36*
X559Y3640D02*
X-170D01*
Y2911D01*
X559D01*
Y3640D01*
D02*
G37*
G36*
X1388D02*
X659D01*
Y2911D01*
X1388D01*
Y3640D01*
D02*
G37*
G36*
X5240Y2914D02*
X5170Y2900D01*
X5110Y2860D01*
X5070Y2800D01*
X5056Y2730D01*
X5070Y2660D01*
X5110Y2600D01*
X5170Y2560D01*
X5240Y2546D01*
X5310Y2560D01*
X5370Y2600D01*
X5410Y2660D01*
X5424Y2730D01*
X5410Y2800D01*
X5370Y2860D01*
X5310Y2900D01*
X5240Y2914D01*
D02*
G37*
G36*
X7390Y2944D02*
X7320Y2930D01*
X7260Y2890D01*
X7220Y2830D01*
X7206Y2760D01*
X7220Y2690D01*
X7260Y2630D01*
X7320Y2590D01*
X7390Y2576D01*
X7460Y2590D01*
X7520Y2630D01*
X7560Y2690D01*
X7574Y2760D01*
X7560Y2830D01*
X7520Y2890D01*
X7460Y2930D01*
X7390Y2944D01*
D02*
G37*
G36*
X2430Y3954D02*
X2360Y3940D01*
X2300Y3900D01*
X2260Y3840D01*
X2246Y3770D01*
X2260Y3700D01*
X2300Y3640D01*
X2360Y3600D01*
X2430Y3586D01*
X2500Y3600D01*
X2560Y3640D01*
X2600Y3700D01*
X2614Y3770D01*
X2600Y3840D01*
X2560Y3900D01*
X2500Y3940D01*
X2430Y3954D01*
D02*
G37*
G36*
X7450Y4784D02*
X7380Y4770D01*
X7320Y4730D01*
X7280Y4670D01*
X7266Y4600D01*
X7280Y4530D01*
X7320Y4470D01*
X7380Y4430D01*
X7450Y4416D01*
X7520Y4430D01*
X7580Y4470D01*
X7613Y4520D01*
X7662Y4511D01*
X7670Y4470D01*
X7710Y4410D01*
X7770Y4370D01*
X7840Y4356D01*
X7910Y4370D01*
X7970Y4410D01*
X8010Y4470D01*
X8024Y4540D01*
X8010Y4610D01*
X7970Y4670D01*
X7910Y4710D01*
X7840Y4724D01*
X7770Y4710D01*
X7710Y4670D01*
X7677Y4620D01*
X7628Y4629D01*
X7620Y4670D01*
X7580Y4730D01*
X7520Y4770D01*
X7450Y4784D01*
D02*
G37*
G36*
X3700Y4834D02*
X3630Y4820D01*
X3570Y4780D01*
X3530Y4720D01*
X3516Y4650D01*
X3530Y4580D01*
X3570Y4520D01*
X3630Y4480D01*
X3700Y4466D01*
X3770Y4480D01*
X3830Y4520D01*
X3870Y4580D01*
X3884Y4650D01*
X3870Y4720D01*
X3830Y4780D01*
X3770Y4820D01*
X3700Y4834D01*
D02*
G37*
G36*
X1388Y4469D02*
X659D01*
Y3740D01*
X1388D01*
Y4469D01*
D02*
G37*
G36*
X7730Y4114D02*
X7660Y4100D01*
X7600Y4060D01*
X7560Y4000D01*
X7546Y3930D01*
X7560Y3860D01*
X7600Y3800D01*
X7660Y3760D01*
X7730Y3746D01*
X7800Y3760D01*
X7860Y3800D01*
X7900Y3860D01*
X7914Y3930D01*
X7900Y4000D01*
X7860Y4060D01*
X7800Y4100D01*
X7730Y4114D01*
D02*
G37*
G36*
X9450Y917D02*
X9388Y909D01*
X9283Y866D01*
X9193Y797D01*
X9124Y707D01*
X9081Y602D01*
X9073Y540D01*
X9450D01*
Y917D01*
D02*
G37*
G36*
X8094Y1139D02*
X8024Y1125D01*
X7964Y1086D01*
X7925Y1026D01*
X7911Y956D01*
X7925Y886D01*
X7964Y826D01*
X8024Y786D01*
X8094Y772D01*
X8164Y786D01*
X8224Y826D01*
X8264Y886D01*
X8278Y956D01*
X8264Y1026D01*
X8224Y1086D01*
X8164Y1125D01*
X8094Y1139D01*
D02*
G37*
G36*
X5000Y194D02*
X4930Y180D01*
X4870Y140D01*
X4830Y80D01*
X4816Y10D01*
X4830Y-60D01*
X4870Y-120D01*
X4930Y-160D01*
X5000Y-174D01*
X5070Y-160D01*
X5130Y-120D01*
X5170Y-60D01*
X5184Y10D01*
X5170Y80D01*
X5130Y140D01*
X5070Y180D01*
X5000Y194D01*
D02*
G37*
G36*
X9450Y440D02*
X9073D01*
X9081Y378D01*
X9124Y273D01*
X9193Y183D01*
X9283Y114D01*
X9388Y71D01*
X9450Y63D01*
Y440D01*
D02*
G37*
G36*
X6520Y1414D02*
X6450Y1400D01*
X6390Y1360D01*
X6350Y1300D01*
X6336Y1230D01*
X6350Y1160D01*
X6390Y1100D01*
X6450Y1060D01*
X6520Y1046D01*
X6590Y1060D01*
X6650Y1100D01*
X6690Y1160D01*
X6704Y1230D01*
X6690Y1300D01*
X6650Y1360D01*
X6590Y1400D01*
X6520Y1414D01*
D02*
G37*
G36*
X8720Y1704D02*
X8650Y1690D01*
X8590Y1650D01*
X8550Y1590D01*
X8536Y1520D01*
X8550Y1450D01*
X8590Y1390D01*
X8650Y1350D01*
X8720Y1336D01*
X8790Y1350D01*
X8850Y1390D01*
X8890Y1450D01*
X8904Y1520D01*
X8890Y1590D01*
X8850Y1650D01*
X8790Y1690D01*
X8720Y1704D01*
D02*
G37*
G36*
X2200Y2544D02*
X2130Y2530D01*
X2070Y2490D01*
X2030Y2430D01*
X2016Y2360D01*
X2030Y2290D01*
X2070Y2230D01*
X2130Y2190D01*
X2200Y2176D01*
X2270Y2190D01*
X2330Y2230D01*
X2370Y2290D01*
X2384Y2360D01*
X2370Y2430D01*
X2330Y2490D01*
X2270Y2530D01*
X2200Y2544D01*
D02*
G37*
G36*
X5520Y1574D02*
X5450Y1560D01*
X5390Y1520D01*
X5350Y1460D01*
X5336Y1390D01*
X5350Y1320D01*
X5390Y1260D01*
X5450Y1220D01*
X5520Y1206D01*
X5590Y1220D01*
X5650Y1260D01*
X5690Y1320D01*
X5704Y1390D01*
X5690Y1460D01*
X5650Y1520D01*
X5590Y1560D01*
X5520Y1574D01*
D02*
G37*
G36*
X7240Y1704D02*
X7170Y1690D01*
X7110Y1650D01*
X7070Y1590D01*
X7056Y1520D01*
X7070Y1450D01*
X7110Y1390D01*
X7170Y1350D01*
X7240Y1336D01*
X7310Y1350D01*
X7370Y1390D01*
X7410Y1450D01*
X7424Y1520D01*
X7410Y1590D01*
X7370Y1650D01*
X7310Y1690D01*
X7240Y1704D01*
D02*
G37*
G36*
X4850Y7034D02*
X4780Y7020D01*
X4720Y6980D01*
X4680Y6920D01*
X4666Y6850D01*
X4680Y6780D01*
X4720Y6720D01*
X4780Y6680D01*
X4850Y6666D01*
X4920Y6680D01*
X4926Y6684D01*
X4968Y6657D01*
X4966Y6650D01*
X4980Y6580D01*
X5020Y6520D01*
X5080Y6480D01*
X5150Y6466D01*
X5220Y6480D01*
X5280Y6520D01*
X5320Y6580D01*
X5334Y6650D01*
X5320Y6720D01*
X5280Y6780D01*
X5220Y6820D01*
X5150Y6834D01*
X5080Y6820D01*
X5074Y6816D01*
X5032Y6843D01*
X5034Y6850D01*
X5020Y6920D01*
X4980Y6980D01*
X4920Y7020D01*
X4850Y7034D01*
D02*
G37*
G36*
X5850Y7184D02*
X5780Y7170D01*
X5720Y7130D01*
X5680Y7070D01*
X5666Y7000D01*
X5680Y6930D01*
X5720Y6870D01*
X5780Y6830D01*
X5850Y6816D01*
X5920Y6830D01*
X5980Y6870D01*
X6020Y6930D01*
X6034Y7000D01*
X6020Y7070D01*
X5980Y7130D01*
X5920Y7170D01*
X5850Y7184D01*
D02*
G37*
G36*
Y6734D02*
X5780Y6720D01*
X5720Y6680D01*
X5680Y6620D01*
X5666Y6550D01*
X5680Y6480D01*
X5720Y6420D01*
X5780Y6380D01*
X5850Y6366D01*
X5920Y6380D01*
X5980Y6420D01*
X6020Y6480D01*
X6034Y6550D01*
X6020Y6620D01*
X5980Y6680D01*
X5920Y6720D01*
X5850Y6734D01*
D02*
G37*
G36*
X6940Y6774D02*
X6870Y6760D01*
X6810Y6720D01*
X6770Y6660D01*
X6756Y6590D01*
X6770Y6520D01*
X6810Y6460D01*
X6870Y6420D01*
X6940Y6406D01*
X7010Y6420D01*
X7070Y6460D01*
X7110Y6520D01*
X7124Y6590D01*
X7110Y6660D01*
X7070Y6720D01*
X7010Y6760D01*
X6940Y6774D01*
D02*
G37*
G36*
X4490Y7564D02*
X4420Y7550D01*
X4360Y7510D01*
X4320Y7450D01*
X4306Y7380D01*
X4320Y7310D01*
X4360Y7250D01*
X4420Y7210D01*
X4490Y7196D01*
X4560Y7210D01*
X4620Y7250D01*
X4660Y7310D01*
X4674Y7380D01*
X4660Y7450D01*
X4620Y7510D01*
X4560Y7550D01*
X4490Y7564D01*
D02*
G37*
G36*
X7500Y8234D02*
X7430Y8220D01*
X7370Y8180D01*
X7330Y8120D01*
X7316Y8050D01*
X7330Y7980D01*
X7370Y7920D01*
X7430Y7880D01*
X7500Y7866D01*
X7570Y7880D01*
X7630Y7920D01*
X7670Y7980D01*
X7684Y8050D01*
X7670Y8120D01*
X7630Y8180D01*
X7570Y8220D01*
X7500Y8234D01*
D02*
G37*
G36*
X4763Y8590D02*
X4540D01*
Y8367D01*
X4562Y8370D01*
X4630Y8398D01*
X4687Y8443D01*
X4732Y8500D01*
X4760Y8568D01*
X4763Y8590D01*
D02*
G37*
G36*
X3350Y7594D02*
X3280Y7580D01*
X3220Y7540D01*
X3180Y7480D01*
X3166Y7410D01*
X3180Y7340D01*
X3220Y7280D01*
X3280Y7240D01*
X3350Y7226D01*
X3420Y7240D01*
X3480Y7280D01*
X3520Y7340D01*
X3534Y7410D01*
X3520Y7480D01*
X3480Y7540D01*
X3420Y7580D01*
X3350Y7594D01*
D02*
G37*
G36*
X2740Y7604D02*
X2670Y7590D01*
X2610Y7550D01*
X2570Y7490D01*
X2556Y7420D01*
X2570Y7350D01*
X2610Y7290D01*
X2670Y7250D01*
X2740Y7236D01*
X2810Y7250D01*
X2870Y7290D01*
X2910Y7350D01*
X2924Y7420D01*
X2910Y7490D01*
X2870Y7550D01*
X2810Y7590D01*
X2740Y7604D01*
D02*
G37*
G36*
X6840Y5724D02*
X6770Y5710D01*
X6710Y5670D01*
X6670Y5610D01*
X6656Y5540D01*
X6670Y5470D01*
X6710Y5410D01*
X6770Y5370D01*
X6840Y5356D01*
X6910Y5370D01*
X6970Y5410D01*
X7010Y5470D01*
X7024Y5540D01*
X7010Y5610D01*
X6970Y5670D01*
X6910Y5710D01*
X6840Y5724D01*
D02*
G37*
G36*
X6740Y6174D02*
X6670Y6160D01*
X6610Y6120D01*
X6570Y6060D01*
X6556Y5990D01*
X6570Y5920D01*
X6610Y5860D01*
X6670Y5820D01*
X6740Y5806D01*
X6810Y5820D01*
X6870Y5860D01*
X6910Y5920D01*
X6924Y5990D01*
X6910Y6060D01*
X6870Y6120D01*
X6810Y6160D01*
X6740Y6174D01*
D02*
G37*
G36*
X2320Y5174D02*
X2250Y5160D01*
X2190Y5120D01*
X2150Y5060D01*
X2136Y4990D01*
X2150Y4920D01*
X2190Y4860D01*
X2250Y4820D01*
X2320Y4806D01*
X2390Y4820D01*
X2450Y4860D01*
X2490Y4920D01*
X2504Y4990D01*
X2490Y5060D01*
X2450Y5120D01*
X2390Y5160D01*
X2320Y5174D01*
D02*
G37*
G36*
X5073Y5591D02*
X5003Y5577D01*
X4943Y5537D01*
X4903Y5477D01*
X4889Y5407D01*
X4903Y5337D01*
X4943Y5277D01*
X5003Y5238D01*
X5073Y5224D01*
X5143Y5238D01*
X5203Y5277D01*
X5242Y5337D01*
X5256Y5407D01*
X5242Y5477D01*
X5203Y5537D01*
X5143Y5577D01*
X5073Y5591D01*
D02*
G37*
G36*
X6096Y5974D02*
X6026Y5960D01*
X5967Y5920D01*
X5927Y5860D01*
X5922Y5835D01*
X5876Y5816D01*
X5870Y5820D01*
X5800Y5834D01*
X5730Y5820D01*
X5670Y5780D01*
X5630Y5720D01*
X5616Y5650D01*
X5630Y5580D01*
X5670Y5520D01*
X5730Y5480D01*
X5800Y5466D01*
X5870Y5480D01*
X5930Y5520D01*
X5970Y5580D01*
X5975Y5605D01*
X6021Y5624D01*
X6026Y5620D01*
X6096Y5606D01*
X6167Y5620D01*
X6226Y5660D01*
X6266Y5720D01*
X6280Y5790D01*
X6266Y5860D01*
X6226Y5920D01*
X6167Y5960D01*
X6096Y5974D01*
D02*
G37*
G36*
X3360Y6454D02*
X3290Y6440D01*
X3230Y6400D01*
X3190Y6340D01*
X3176Y6270D01*
X3190Y6200D01*
X3230Y6140D01*
X3290Y6100D01*
X3360Y6086D01*
X3430Y6100D01*
X3490Y6140D01*
X3530Y6200D01*
X3544Y6270D01*
X3530Y6340D01*
X3490Y6400D01*
X3430Y6440D01*
X3360Y6454D01*
D02*
G37*
G36*
X9500Y6534D02*
X9430Y6520D01*
X9370Y6480D01*
X9330Y6420D01*
X9316Y6350D01*
X9330Y6280D01*
X9370Y6220D01*
X9430Y6180D01*
X9500Y6166D01*
X9570Y6180D01*
X9630Y6220D01*
X9670Y6280D01*
X9684Y6350D01*
X9670Y6420D01*
X9630Y6480D01*
X9570Y6520D01*
X9500Y6534D01*
D02*
G37*
G36*
X2660Y6314D02*
X2590Y6300D01*
X2530Y6260D01*
X2490Y6200D01*
X2476Y6130D01*
X2490Y6060D01*
X2530Y6000D01*
X2590Y5960D01*
X2660Y5946D01*
X2730Y5960D01*
X2790Y6000D01*
X2830Y6060D01*
X2844Y6130D01*
X2830Y6200D01*
X2790Y6260D01*
X2730Y6300D01*
X2660Y6314D01*
D02*
G37*
G36*
X8750Y6384D02*
X8680Y6370D01*
X8620Y6330D01*
X8580Y6270D01*
X8566Y6200D01*
X8580Y6130D01*
X8620Y6070D01*
X8680Y6030D01*
X8750Y6016D01*
X8820Y6030D01*
X8880Y6070D01*
X8920Y6130D01*
X8934Y6200D01*
X8920Y6270D01*
X8880Y6330D01*
X8820Y6370D01*
X8750Y6384D01*
D02*
G37*
%LPD*%
G36*
X21420Y8080D02*
X21371Y8070D01*
X21356Y8107D01*
X21287Y8197D01*
X21197Y8266D01*
X21092Y8309D01*
X20980Y8324D01*
X20868Y8309D01*
X20763Y8266D01*
X20673Y8197D01*
X20604Y8107D01*
X20561Y8002D01*
X20546Y7890D01*
X20561Y7778D01*
X20604Y7673D01*
X20673Y7583D01*
X20763Y7514D01*
X20868Y7471D01*
X20980Y7456D01*
X21092Y7471D01*
X21197Y7514D01*
X21287Y7583D01*
X21356Y7673D01*
X21371Y7710D01*
X21420Y7700D01*
Y5856D01*
X21376Y5832D01*
X21360Y5843D01*
X21280Y5859D01*
X21200Y5843D01*
X21132Y5798D01*
X20982Y5648D01*
X20937Y5580D01*
X20921Y5500D01*
X20921Y5500D01*
Y4637D01*
X20753Y4469D01*
X19775D01*
Y2911D01*
X20921D01*
Y2480D01*
X20921Y2480D01*
X20937Y2400D01*
X20982Y2332D01*
X21172Y2142D01*
X21240Y2097D01*
X21320Y2081D01*
X21381Y2093D01*
X21420Y2061D01*
Y680D01*
X21371Y670D01*
X21356Y707D01*
X21287Y797D01*
X21197Y866D01*
X21092Y909D01*
X21030Y917D01*
Y490D01*
Y63D01*
X21092Y71D01*
X21197Y114D01*
X21287Y183D01*
X21356Y273D01*
X21371Y310D01*
X21420Y300D01*
Y-659D01*
X21290D01*
Y-30D01*
X20630D01*
Y-150D01*
X20600D01*
Y-150D01*
X17189D01*
Y-659D01*
X14880D01*
Y720D01*
X10980D01*
Y4310D01*
X11310D01*
Y3740D01*
X12039D01*
Y4469D01*
X12048D01*
Y5514D01*
X11900D01*
Y6093D01*
X12739D01*
Y6768D01*
X12300Y7200D01*
Y8310D01*
X14044D01*
X14068Y8266D01*
X14050Y8240D01*
X14036Y8170D01*
X14050Y8100D01*
X14090Y8040D01*
X14150Y8000D01*
X14220Y7986D01*
X14290Y8000D01*
X14350Y8040D01*
X14390Y8100D01*
X14404Y8170D01*
X14390Y8240D01*
X14350Y8300D01*
X14353Y8310D01*
X14550D01*
Y8890D01*
X15117D01*
X15139Y8845D01*
X15102Y8796D01*
X15068Y8716D01*
X15057Y8632D01*
X15012Y8612D01*
X15005Y8616D01*
X14935Y8630D01*
X14865Y8616D01*
X14805Y8576D01*
X14765Y8517D01*
X14751Y8446D01*
X14765Y8376D01*
X14805Y8317D01*
X14865Y8277D01*
X14935Y8263D01*
X15005Y8277D01*
X15065Y8317D01*
X15104Y8376D01*
X15106Y8383D01*
X15155Y8395D01*
X15155Y8395D01*
X15224Y8342D01*
X15304Y8308D01*
X15390Y8297D01*
X15476Y8308D01*
X15556Y8342D01*
X15625Y8395D01*
X15678Y8464D01*
X15687Y8484D01*
X15736Y8490D01*
X15773Y8443D01*
X15830Y8398D01*
X15898Y8370D01*
X15920Y8367D01*
Y8640D01*
X15970D01*
Y8690D01*
X16243D01*
X16249Y8640D01*
X16245Y8608D01*
X16295D01*
X16300Y8568D01*
X16328Y8500D01*
X16373Y8443D01*
X16430Y8398D01*
X16498Y8370D01*
X16570Y8361D01*
X16642Y8370D01*
X16710Y8398D01*
X16767Y8443D01*
X16812Y8500D01*
X16840Y8568D01*
X16849Y8640D01*
X16840Y8712D01*
X16812Y8780D01*
X16767Y8837D01*
X16710Y8882D01*
X16711Y8890D01*
X18067D01*
X18099Y8851D01*
X18086Y8790D01*
X18100Y8720D01*
X18140Y8660D01*
X18200Y8620D01*
X18270Y8606D01*
X18340Y8620D01*
X18400Y8660D01*
X18440Y8720D01*
X18443Y8739D01*
X18493Y8734D01*
Y8393D01*
X20220D01*
Y8690D01*
X20320D01*
Y8393D01*
X21047D01*
Y8890D01*
X21420D01*
Y8080D01*
D02*
G37*
%LPC*%
G36*
X12039Y3640D02*
X11310D01*
Y2911D01*
X12039D01*
Y3640D01*
D02*
G37*
G36*
X12868D02*
X12139D01*
Y2911D01*
X12868D01*
Y3640D01*
D02*
G37*
G36*
X16720Y2914D02*
X16650Y2900D01*
X16590Y2860D01*
X16550Y2800D01*
X16536Y2730D01*
X16550Y2660D01*
X16590Y2600D01*
X16650Y2560D01*
X16720Y2546D01*
X16790Y2560D01*
X16850Y2600D01*
X16890Y2660D01*
X16904Y2730D01*
X16890Y2800D01*
X16850Y2860D01*
X16790Y2900D01*
X16720Y2914D01*
D02*
G37*
G36*
X18870Y2944D02*
X18800Y2930D01*
X18740Y2890D01*
X18700Y2830D01*
X18686Y2760D01*
X18700Y2690D01*
X18740Y2630D01*
X18800Y2590D01*
X18870Y2576D01*
X18940Y2590D01*
X19000Y2630D01*
X19040Y2690D01*
X19054Y2760D01*
X19040Y2830D01*
X19000Y2890D01*
X18940Y2930D01*
X18870Y2944D01*
D02*
G37*
G36*
X13910Y3954D02*
X13840Y3940D01*
X13780Y3900D01*
X13740Y3840D01*
X13726Y3770D01*
X13740Y3700D01*
X13780Y3640D01*
X13840Y3600D01*
X13910Y3586D01*
X13980Y3600D01*
X14040Y3640D01*
X14080Y3700D01*
X14094Y3770D01*
X14080Y3840D01*
X14040Y3900D01*
X13980Y3940D01*
X13910Y3954D01*
D02*
G37*
G36*
X18930Y4784D02*
X18860Y4770D01*
X18800Y4730D01*
X18760Y4670D01*
X18746Y4600D01*
X18760Y4530D01*
X18800Y4470D01*
X18860Y4430D01*
X18930Y4416D01*
X19000Y4430D01*
X19060Y4470D01*
X19093Y4520D01*
X19142Y4511D01*
X19150Y4470D01*
X19190Y4410D01*
X19250Y4370D01*
X19320Y4356D01*
X19390Y4370D01*
X19450Y4410D01*
X19490Y4470D01*
X19504Y4540D01*
X19490Y4610D01*
X19450Y4670D01*
X19390Y4710D01*
X19320Y4724D01*
X19250Y4710D01*
X19190Y4670D01*
X19157Y4620D01*
X19108Y4629D01*
X19100Y4670D01*
X19060Y4730D01*
X19000Y4770D01*
X18930Y4784D01*
D02*
G37*
G36*
X15180Y4834D02*
X15110Y4820D01*
X15050Y4780D01*
X15010Y4720D01*
X14996Y4650D01*
X15010Y4580D01*
X15050Y4520D01*
X15110Y4480D01*
X15180Y4466D01*
X15250Y4480D01*
X15310Y4520D01*
X15350Y4580D01*
X15364Y4650D01*
X15350Y4720D01*
X15310Y4780D01*
X15250Y4820D01*
X15180Y4834D01*
D02*
G37*
G36*
X12868Y4469D02*
X12139D01*
Y3740D01*
X12868D01*
Y4469D01*
D02*
G37*
G36*
X19210Y4114D02*
X19140Y4100D01*
X19080Y4060D01*
X19040Y4000D01*
X19026Y3930D01*
X19040Y3860D01*
X19080Y3800D01*
X19140Y3760D01*
X19210Y3746D01*
X19280Y3760D01*
X19340Y3800D01*
X19380Y3860D01*
X19394Y3930D01*
X19380Y4000D01*
X19340Y4060D01*
X19280Y4100D01*
X19210Y4114D01*
D02*
G37*
G36*
X20930Y917D02*
X20868Y909D01*
X20763Y866D01*
X20673Y797D01*
X20604Y707D01*
X20561Y602D01*
X20553Y540D01*
X20930D01*
Y917D01*
D02*
G37*
G36*
X19574Y1139D02*
X19504Y1125D01*
X19444Y1086D01*
X19405Y1026D01*
X19391Y956D01*
X19405Y886D01*
X19444Y826D01*
X19504Y786D01*
X19574Y772D01*
X19644Y786D01*
X19704Y826D01*
X19744Y886D01*
X19758Y956D01*
X19744Y1026D01*
X19704Y1086D01*
X19644Y1125D01*
X19574Y1139D01*
D02*
G37*
G36*
X16480Y194D02*
X16410Y180D01*
X16350Y140D01*
X16310Y80D01*
X16296Y10D01*
X16310Y-60D01*
X16350Y-120D01*
X16410Y-160D01*
X16480Y-174D01*
X16550Y-160D01*
X16610Y-120D01*
X16650Y-60D01*
X16664Y10D01*
X16650Y80D01*
X16610Y140D01*
X16550Y180D01*
X16480Y194D01*
D02*
G37*
G36*
X20930Y440D02*
X20553D01*
X20561Y378D01*
X20604Y273D01*
X20673Y183D01*
X20763Y114D01*
X20868Y71D01*
X20930Y63D01*
Y440D01*
D02*
G37*
G36*
X18000Y1414D02*
X17930Y1400D01*
X17870Y1360D01*
X17830Y1300D01*
X17816Y1230D01*
X17830Y1160D01*
X17870Y1100D01*
X17930Y1060D01*
X18000Y1046D01*
X18070Y1060D01*
X18130Y1100D01*
X18170Y1160D01*
X18184Y1230D01*
X18170Y1300D01*
X18130Y1360D01*
X18070Y1400D01*
X18000Y1414D01*
D02*
G37*
G36*
X20200Y1704D02*
X20130Y1690D01*
X20070Y1650D01*
X20030Y1590D01*
X20016Y1520D01*
X20030Y1450D01*
X20070Y1390D01*
X20130Y1350D01*
X20200Y1336D01*
X20270Y1350D01*
X20330Y1390D01*
X20370Y1450D01*
X20384Y1520D01*
X20370Y1590D01*
X20330Y1650D01*
X20270Y1690D01*
X20200Y1704D01*
D02*
G37*
G36*
X13680Y2544D02*
X13610Y2530D01*
X13550Y2490D01*
X13510Y2430D01*
X13496Y2360D01*
X13510Y2290D01*
X13550Y2230D01*
X13610Y2190D01*
X13680Y2176D01*
X13750Y2190D01*
X13810Y2230D01*
X13850Y2290D01*
X13864Y2360D01*
X13850Y2430D01*
X13810Y2490D01*
X13750Y2530D01*
X13680Y2544D01*
D02*
G37*
G36*
X17000Y1574D02*
X16930Y1560D01*
X16870Y1520D01*
X16830Y1460D01*
X16816Y1390D01*
X16830Y1320D01*
X16870Y1260D01*
X16930Y1220D01*
X17000Y1206D01*
X17070Y1220D01*
X17130Y1260D01*
X17170Y1320D01*
X17184Y1390D01*
X17170Y1460D01*
X17130Y1520D01*
X17070Y1560D01*
X17000Y1574D01*
D02*
G37*
G36*
X18720Y1704D02*
X18650Y1690D01*
X18590Y1650D01*
X18550Y1590D01*
X18536Y1520D01*
X18550Y1450D01*
X18590Y1390D01*
X18650Y1350D01*
X18720Y1336D01*
X18790Y1350D01*
X18850Y1390D01*
X18890Y1450D01*
X18904Y1520D01*
X18890Y1590D01*
X18850Y1650D01*
X18790Y1690D01*
X18720Y1704D01*
D02*
G37*
G36*
X16330Y7034D02*
X16260Y7020D01*
X16200Y6980D01*
X16160Y6920D01*
X16146Y6850D01*
X16160Y6780D01*
X16200Y6720D01*
X16260Y6680D01*
X16330Y6666D01*
X16400Y6680D01*
X16406Y6684D01*
X16448Y6657D01*
X16446Y6650D01*
X16460Y6580D01*
X16500Y6520D01*
X16560Y6480D01*
X16630Y6466D01*
X16700Y6480D01*
X16760Y6520D01*
X16800Y6580D01*
X16814Y6650D01*
X16800Y6720D01*
X16760Y6780D01*
X16700Y6820D01*
X16630Y6834D01*
X16560Y6820D01*
X16554Y6816D01*
X16512Y6843D01*
X16514Y6850D01*
X16500Y6920D01*
X16460Y6980D01*
X16400Y7020D01*
X16330Y7034D01*
D02*
G37*
G36*
X17330Y7184D02*
X17260Y7170D01*
X17200Y7130D01*
X17160Y7070D01*
X17146Y7000D01*
X17160Y6930D01*
X17200Y6870D01*
X17260Y6830D01*
X17330Y6816D01*
X17400Y6830D01*
X17460Y6870D01*
X17500Y6930D01*
X17514Y7000D01*
X17500Y7070D01*
X17460Y7130D01*
X17400Y7170D01*
X17330Y7184D01*
D02*
G37*
G36*
Y6734D02*
X17260Y6720D01*
X17200Y6680D01*
X17160Y6620D01*
X17146Y6550D01*
X17160Y6480D01*
X17200Y6420D01*
X17260Y6380D01*
X17330Y6366D01*
X17400Y6380D01*
X17460Y6420D01*
X17500Y6480D01*
X17514Y6550D01*
X17500Y6620D01*
X17460Y6680D01*
X17400Y6720D01*
X17330Y6734D01*
D02*
G37*
G36*
X18420Y6774D02*
X18350Y6760D01*
X18290Y6720D01*
X18250Y6660D01*
X18236Y6590D01*
X18250Y6520D01*
X18290Y6460D01*
X18350Y6420D01*
X18420Y6406D01*
X18490Y6420D01*
X18550Y6460D01*
X18590Y6520D01*
X18604Y6590D01*
X18590Y6660D01*
X18550Y6720D01*
X18490Y6760D01*
X18420Y6774D01*
D02*
G37*
G36*
X15970Y7564D02*
X15900Y7550D01*
X15840Y7510D01*
X15800Y7450D01*
X15786Y7380D01*
X15800Y7310D01*
X15840Y7250D01*
X15900Y7210D01*
X15970Y7196D01*
X16040Y7210D01*
X16100Y7250D01*
X16140Y7310D01*
X16154Y7380D01*
X16140Y7450D01*
X16100Y7510D01*
X16040Y7550D01*
X15970Y7564D01*
D02*
G37*
G36*
X18980Y8234D02*
X18910Y8220D01*
X18850Y8180D01*
X18810Y8120D01*
X18796Y8050D01*
X18810Y7980D01*
X18850Y7920D01*
X18910Y7880D01*
X18980Y7866D01*
X19050Y7880D01*
X19110Y7920D01*
X19150Y7980D01*
X19164Y8050D01*
X19150Y8120D01*
X19110Y8180D01*
X19050Y8220D01*
X18980Y8234D01*
D02*
G37*
G36*
X16243Y8590D02*
X16020D01*
Y8367D01*
X16042Y8370D01*
X16110Y8398D01*
X16167Y8443D01*
X16212Y8500D01*
X16240Y8568D01*
X16243Y8590D01*
D02*
G37*
G36*
X14830Y7594D02*
X14760Y7580D01*
X14700Y7540D01*
X14660Y7480D01*
X14646Y7410D01*
X14660Y7340D01*
X14700Y7280D01*
X14760Y7240D01*
X14830Y7226D01*
X14900Y7240D01*
X14960Y7280D01*
X15000Y7340D01*
X15014Y7410D01*
X15000Y7480D01*
X14960Y7540D01*
X14900Y7580D01*
X14830Y7594D01*
D02*
G37*
G36*
X14220Y7604D02*
X14150Y7590D01*
X14090Y7550D01*
X14050Y7490D01*
X14036Y7420D01*
X14050Y7350D01*
X14090Y7290D01*
X14150Y7250D01*
X14220Y7236D01*
X14290Y7250D01*
X14350Y7290D01*
X14390Y7350D01*
X14404Y7420D01*
X14390Y7490D01*
X14350Y7550D01*
X14290Y7590D01*
X14220Y7604D01*
D02*
G37*
G36*
X18320Y5724D02*
X18250Y5710D01*
X18190Y5670D01*
X18150Y5610D01*
X18136Y5540D01*
X18150Y5470D01*
X18190Y5410D01*
X18250Y5370D01*
X18320Y5356D01*
X18390Y5370D01*
X18450Y5410D01*
X18490Y5470D01*
X18504Y5540D01*
X18490Y5610D01*
X18450Y5670D01*
X18390Y5710D01*
X18320Y5724D01*
D02*
G37*
G36*
X18220Y6174D02*
X18150Y6160D01*
X18090Y6120D01*
X18050Y6060D01*
X18036Y5990D01*
X18050Y5920D01*
X18090Y5860D01*
X18150Y5820D01*
X18220Y5806D01*
X18290Y5820D01*
X18350Y5860D01*
X18390Y5920D01*
X18404Y5990D01*
X18390Y6060D01*
X18350Y6120D01*
X18290Y6160D01*
X18220Y6174D01*
D02*
G37*
G36*
X13800Y5174D02*
X13730Y5160D01*
X13670Y5120D01*
X13630Y5060D01*
X13616Y4990D01*
X13630Y4920D01*
X13670Y4860D01*
X13730Y4820D01*
X13800Y4806D01*
X13870Y4820D01*
X13930Y4860D01*
X13970Y4920D01*
X13984Y4990D01*
X13970Y5060D01*
X13930Y5120D01*
X13870Y5160D01*
X13800Y5174D01*
D02*
G37*
G36*
X16553Y5591D02*
X16483Y5577D01*
X16423Y5537D01*
X16383Y5477D01*
X16369Y5407D01*
X16383Y5337D01*
X16423Y5277D01*
X16483Y5238D01*
X16553Y5224D01*
X16623Y5238D01*
X16683Y5277D01*
X16722Y5337D01*
X16736Y5407D01*
X16722Y5477D01*
X16683Y5537D01*
X16623Y5577D01*
X16553Y5591D01*
D02*
G37*
G36*
X17576Y5974D02*
X17506Y5960D01*
X17447Y5920D01*
X17407Y5860D01*
X17402Y5835D01*
X17356Y5816D01*
X17350Y5820D01*
X17280Y5834D01*
X17210Y5820D01*
X17150Y5780D01*
X17110Y5720D01*
X17096Y5650D01*
X17110Y5580D01*
X17150Y5520D01*
X17210Y5480D01*
X17280Y5466D01*
X17350Y5480D01*
X17410Y5520D01*
X17450Y5580D01*
X17455Y5605D01*
X17501Y5624D01*
X17506Y5620D01*
X17576Y5606D01*
X17647Y5620D01*
X17706Y5660D01*
X17746Y5720D01*
X17760Y5790D01*
X17746Y5860D01*
X17706Y5920D01*
X17647Y5960D01*
X17576Y5974D01*
D02*
G37*
G36*
X14840Y6454D02*
X14770Y6440D01*
X14710Y6400D01*
X14670Y6340D01*
X14656Y6270D01*
X14670Y6200D01*
X14710Y6140D01*
X14770Y6100D01*
X14840Y6086D01*
X14910Y6100D01*
X14970Y6140D01*
X15010Y6200D01*
X15024Y6270D01*
X15010Y6340D01*
X14970Y6400D01*
X14910Y6440D01*
X14840Y6454D01*
D02*
G37*
G36*
X20980Y6534D02*
X20910Y6520D01*
X20850Y6480D01*
X20810Y6420D01*
X20796Y6350D01*
X20810Y6280D01*
X20850Y6220D01*
X20910Y6180D01*
X20980Y6166D01*
X21050Y6180D01*
X21110Y6220D01*
X21150Y6280D01*
X21164Y6350D01*
X21150Y6420D01*
X21110Y6480D01*
X21050Y6520D01*
X20980Y6534D01*
D02*
G37*
G36*
X14140Y6314D02*
X14070Y6300D01*
X14010Y6260D01*
X13970Y6200D01*
X13956Y6130D01*
X13970Y6060D01*
X14010Y6000D01*
X14070Y5960D01*
X14140Y5946D01*
X14210Y5960D01*
X14270Y6000D01*
X14310Y6060D01*
X14324Y6130D01*
X14310Y6200D01*
X14270Y6260D01*
X14210Y6300D01*
X14140Y6314D01*
D02*
G37*
G36*
X20230Y6384D02*
X20160Y6370D01*
X20100Y6330D01*
X20060Y6270D01*
X20046Y6200D01*
X20060Y6130D01*
X20100Y6070D01*
X20160Y6030D01*
X20230Y6016D01*
X20300Y6030D01*
X20360Y6070D01*
X20400Y6130D01*
X20414Y6200D01*
X20400Y6270D01*
X20360Y6330D01*
X20300Y6370D01*
X20230Y6384D01*
D02*
G37*
%LPD*%
G36*
X32900Y8080D02*
X32851Y8070D01*
X32836Y8107D01*
X32767Y8197D01*
X32677Y8266D01*
X32572Y8309D01*
X32460Y8324D01*
X32348Y8309D01*
X32243Y8266D01*
X32153Y8197D01*
X32084Y8107D01*
X32041Y8002D01*
X32026Y7890D01*
X32041Y7778D01*
X32084Y7673D01*
X32153Y7583D01*
X32243Y7514D01*
X32348Y7471D01*
X32460Y7456D01*
X32572Y7471D01*
X32677Y7514D01*
X32767Y7583D01*
X32836Y7673D01*
X32851Y7710D01*
X32900Y7700D01*
Y5856D01*
X32856Y5832D01*
X32840Y5843D01*
X32760Y5859D01*
X32680Y5843D01*
X32612Y5798D01*
X32462Y5648D01*
X32417Y5580D01*
X32401Y5500D01*
X32401Y5500D01*
Y4637D01*
X32233Y4469D01*
X31255D01*
Y2911D01*
X32401D01*
Y2480D01*
X32401Y2480D01*
X32417Y2400D01*
X32462Y2332D01*
X32652Y2142D01*
X32720Y2097D01*
X32800Y2081D01*
X32861Y2093D01*
X32900Y2061D01*
Y680D01*
X32851Y670D01*
X32836Y707D01*
X32767Y797D01*
X32677Y866D01*
X32572Y909D01*
X32510Y917D01*
Y490D01*
Y63D01*
X32572Y71D01*
X32677Y114D01*
X32767Y183D01*
X32836Y273D01*
X32851Y310D01*
X32900Y300D01*
Y-659D01*
X32770D01*
Y-30D01*
X32110D01*
Y-150D01*
X32080D01*
Y-150D01*
X28669D01*
Y-659D01*
X26360D01*
Y720D01*
X22460D01*
Y4310D01*
X22790D01*
Y3740D01*
X23519D01*
Y4469D01*
X23528D01*
Y5514D01*
X23380D01*
Y6093D01*
X24219D01*
Y6768D01*
X23780Y7200D01*
Y8310D01*
X25524D01*
X25548Y8266D01*
X25530Y8240D01*
X25516Y8170D01*
X25530Y8100D01*
X25570Y8040D01*
X25630Y8000D01*
X25700Y7986D01*
X25770Y8000D01*
X25830Y8040D01*
X25870Y8100D01*
X25884Y8170D01*
X25870Y8240D01*
X25830Y8300D01*
X25833Y8310D01*
X26030D01*
Y8890D01*
X26597D01*
X26619Y8845D01*
X26582Y8796D01*
X26548Y8716D01*
X26537Y8632D01*
X26492Y8612D01*
X26485Y8616D01*
X26415Y8630D01*
X26345Y8616D01*
X26285Y8576D01*
X26245Y8517D01*
X26231Y8446D01*
X26245Y8376D01*
X26285Y8317D01*
X26345Y8277D01*
X26415Y8263D01*
X26485Y8277D01*
X26545Y8317D01*
X26584Y8376D01*
X26586Y8383D01*
X26635Y8395D01*
X26635Y8395D01*
X26704Y8342D01*
X26784Y8308D01*
X26870Y8297D01*
X26956Y8308D01*
X27036Y8342D01*
X27105Y8395D01*
X27158Y8464D01*
X27167Y8484D01*
X27216Y8490D01*
X27253Y8443D01*
X27310Y8398D01*
X27378Y8370D01*
X27400Y8367D01*
Y8640D01*
X27450D01*
Y8690D01*
X27723D01*
X27729Y8640D01*
X27725Y8608D01*
X27775D01*
X27780Y8568D01*
X27808Y8500D01*
X27853Y8443D01*
X27910Y8398D01*
X27978Y8370D01*
X28050Y8361D01*
X28122Y8370D01*
X28190Y8398D01*
X28247Y8443D01*
X28292Y8500D01*
X28320Y8568D01*
X28329Y8640D01*
X28320Y8712D01*
X28292Y8780D01*
X28247Y8837D01*
X28190Y8882D01*
X28191Y8890D01*
X29547D01*
X29579Y8851D01*
X29566Y8790D01*
X29580Y8720D01*
X29620Y8660D01*
X29680Y8620D01*
X29750Y8606D01*
X29820Y8620D01*
X29880Y8660D01*
X29920Y8720D01*
X29923Y8739D01*
X29973Y8734D01*
Y8393D01*
X31700D01*
Y8690D01*
X31800D01*
Y8393D01*
X32527D01*
Y8890D01*
X32900D01*
Y8080D01*
D02*
G37*
%LPC*%
G36*
X23519Y3640D02*
X22790D01*
Y2911D01*
X23519D01*
Y3640D01*
D02*
G37*
G36*
X24348D02*
X23619D01*
Y2911D01*
X24348D01*
Y3640D01*
D02*
G37*
G36*
X28200Y2914D02*
X28130Y2900D01*
X28070Y2860D01*
X28030Y2800D01*
X28016Y2730D01*
X28030Y2660D01*
X28070Y2600D01*
X28130Y2560D01*
X28200Y2546D01*
X28270Y2560D01*
X28330Y2600D01*
X28370Y2660D01*
X28384Y2730D01*
X28370Y2800D01*
X28330Y2860D01*
X28270Y2900D01*
X28200Y2914D01*
D02*
G37*
G36*
X30350Y2944D02*
X30280Y2930D01*
X30220Y2890D01*
X30180Y2830D01*
X30166Y2760D01*
X30180Y2690D01*
X30220Y2630D01*
X30280Y2590D01*
X30350Y2576D01*
X30420Y2590D01*
X30480Y2630D01*
X30520Y2690D01*
X30534Y2760D01*
X30520Y2830D01*
X30480Y2890D01*
X30420Y2930D01*
X30350Y2944D01*
D02*
G37*
G36*
X25390Y3954D02*
X25320Y3940D01*
X25260Y3900D01*
X25220Y3840D01*
X25206Y3770D01*
X25220Y3700D01*
X25260Y3640D01*
X25320Y3600D01*
X25390Y3586D01*
X25460Y3600D01*
X25520Y3640D01*
X25560Y3700D01*
X25574Y3770D01*
X25560Y3840D01*
X25520Y3900D01*
X25460Y3940D01*
X25390Y3954D01*
D02*
G37*
G36*
X30410Y4784D02*
X30340Y4770D01*
X30280Y4730D01*
X30240Y4670D01*
X30226Y4600D01*
X30240Y4530D01*
X30280Y4470D01*
X30340Y4430D01*
X30410Y4416D01*
X30480Y4430D01*
X30540Y4470D01*
X30573Y4520D01*
X30622Y4511D01*
X30630Y4470D01*
X30670Y4410D01*
X30730Y4370D01*
X30800Y4356D01*
X30870Y4370D01*
X30930Y4410D01*
X30970Y4470D01*
X30984Y4540D01*
X30970Y4610D01*
X30930Y4670D01*
X30870Y4710D01*
X30800Y4724D01*
X30730Y4710D01*
X30670Y4670D01*
X30637Y4620D01*
X30588Y4629D01*
X30580Y4670D01*
X30540Y4730D01*
X30480Y4770D01*
X30410Y4784D01*
D02*
G37*
G36*
X26660Y4834D02*
X26590Y4820D01*
X26530Y4780D01*
X26490Y4720D01*
X26476Y4650D01*
X26490Y4580D01*
X26530Y4520D01*
X26590Y4480D01*
X26660Y4466D01*
X26730Y4480D01*
X26790Y4520D01*
X26830Y4580D01*
X26844Y4650D01*
X26830Y4720D01*
X26790Y4780D01*
X26730Y4820D01*
X26660Y4834D01*
D02*
G37*
G36*
X24348Y4469D02*
X23619D01*
Y3740D01*
X24348D01*
Y4469D01*
D02*
G37*
G36*
X30690Y4114D02*
X30620Y4100D01*
X30560Y4060D01*
X30520Y4000D01*
X30506Y3930D01*
X30520Y3860D01*
X30560Y3800D01*
X30620Y3760D01*
X30690Y3746D01*
X30760Y3760D01*
X30820Y3800D01*
X30860Y3860D01*
X30874Y3930D01*
X30860Y4000D01*
X30820Y4060D01*
X30760Y4100D01*
X30690Y4114D01*
D02*
G37*
G36*
X32410Y917D02*
X32348Y909D01*
X32243Y866D01*
X32153Y797D01*
X32084Y707D01*
X32041Y602D01*
X32033Y540D01*
X32410D01*
Y917D01*
D02*
G37*
G36*
X31054Y1139D02*
X30984Y1125D01*
X30924Y1086D01*
X30885Y1026D01*
X30871Y956D01*
X30885Y886D01*
X30924Y826D01*
X30984Y786D01*
X31054Y772D01*
X31124Y786D01*
X31184Y826D01*
X31224Y886D01*
X31238Y956D01*
X31224Y1026D01*
X31184Y1086D01*
X31124Y1125D01*
X31054Y1139D01*
D02*
G37*
G36*
X27960Y194D02*
X27890Y180D01*
X27830Y140D01*
X27790Y80D01*
X27776Y10D01*
X27790Y-60D01*
X27830Y-120D01*
X27890Y-160D01*
X27960Y-174D01*
X28030Y-160D01*
X28090Y-120D01*
X28130Y-60D01*
X28144Y10D01*
X28130Y80D01*
X28090Y140D01*
X28030Y180D01*
X27960Y194D01*
D02*
G37*
G36*
X32410Y440D02*
X32033D01*
X32041Y378D01*
X32084Y273D01*
X32153Y183D01*
X32243Y114D01*
X32348Y71D01*
X32410Y63D01*
Y440D01*
D02*
G37*
G36*
X29480Y1414D02*
X29410Y1400D01*
X29350Y1360D01*
X29310Y1300D01*
X29296Y1230D01*
X29310Y1160D01*
X29350Y1100D01*
X29410Y1060D01*
X29480Y1046D01*
X29550Y1060D01*
X29610Y1100D01*
X29650Y1160D01*
X29664Y1230D01*
X29650Y1300D01*
X29610Y1360D01*
X29550Y1400D01*
X29480Y1414D01*
D02*
G37*
G36*
X31680Y1704D02*
X31610Y1690D01*
X31550Y1650D01*
X31510Y1590D01*
X31496Y1520D01*
X31510Y1450D01*
X31550Y1390D01*
X31610Y1350D01*
X31680Y1336D01*
X31750Y1350D01*
X31810Y1390D01*
X31850Y1450D01*
X31864Y1520D01*
X31850Y1590D01*
X31810Y1650D01*
X31750Y1690D01*
X31680Y1704D01*
D02*
G37*
G36*
X25160Y2544D02*
X25090Y2530D01*
X25030Y2490D01*
X24990Y2430D01*
X24976Y2360D01*
X24990Y2290D01*
X25030Y2230D01*
X25090Y2190D01*
X25160Y2176D01*
X25230Y2190D01*
X25290Y2230D01*
X25330Y2290D01*
X25344Y2360D01*
X25330Y2430D01*
X25290Y2490D01*
X25230Y2530D01*
X25160Y2544D01*
D02*
G37*
G36*
X28480Y1574D02*
X28410Y1560D01*
X28350Y1520D01*
X28310Y1460D01*
X28296Y1390D01*
X28310Y1320D01*
X28350Y1260D01*
X28410Y1220D01*
X28480Y1206D01*
X28550Y1220D01*
X28610Y1260D01*
X28650Y1320D01*
X28664Y1390D01*
X28650Y1460D01*
X28610Y1520D01*
X28550Y1560D01*
X28480Y1574D01*
D02*
G37*
G36*
X30200Y1704D02*
X30130Y1690D01*
X30070Y1650D01*
X30030Y1590D01*
X30016Y1520D01*
X30030Y1450D01*
X30070Y1390D01*
X30130Y1350D01*
X30200Y1336D01*
X30270Y1350D01*
X30330Y1390D01*
X30370Y1450D01*
X30384Y1520D01*
X30370Y1590D01*
X30330Y1650D01*
X30270Y1690D01*
X30200Y1704D01*
D02*
G37*
G36*
X27810Y7034D02*
X27740Y7020D01*
X27680Y6980D01*
X27640Y6920D01*
X27626Y6850D01*
X27640Y6780D01*
X27680Y6720D01*
X27740Y6680D01*
X27810Y6666D01*
X27880Y6680D01*
X27886Y6684D01*
X27928Y6657D01*
X27926Y6650D01*
X27940Y6580D01*
X27980Y6520D01*
X28040Y6480D01*
X28110Y6466D01*
X28180Y6480D01*
X28240Y6520D01*
X28280Y6580D01*
X28294Y6650D01*
X28280Y6720D01*
X28240Y6780D01*
X28180Y6820D01*
X28110Y6834D01*
X28040Y6820D01*
X28034Y6816D01*
X27992Y6843D01*
X27994Y6850D01*
X27980Y6920D01*
X27940Y6980D01*
X27880Y7020D01*
X27810Y7034D01*
D02*
G37*
G36*
X28810Y7184D02*
X28740Y7170D01*
X28680Y7130D01*
X28640Y7070D01*
X28626Y7000D01*
X28640Y6930D01*
X28680Y6870D01*
X28740Y6830D01*
X28810Y6816D01*
X28880Y6830D01*
X28940Y6870D01*
X28980Y6930D01*
X28994Y7000D01*
X28980Y7070D01*
X28940Y7130D01*
X28880Y7170D01*
X28810Y7184D01*
D02*
G37*
G36*
Y6734D02*
X28740Y6720D01*
X28680Y6680D01*
X28640Y6620D01*
X28626Y6550D01*
X28640Y6480D01*
X28680Y6420D01*
X28740Y6380D01*
X28810Y6366D01*
X28880Y6380D01*
X28940Y6420D01*
X28980Y6480D01*
X28994Y6550D01*
X28980Y6620D01*
X28940Y6680D01*
X28880Y6720D01*
X28810Y6734D01*
D02*
G37*
G36*
X29900Y6774D02*
X29830Y6760D01*
X29770Y6720D01*
X29730Y6660D01*
X29716Y6590D01*
X29730Y6520D01*
X29770Y6460D01*
X29830Y6420D01*
X29900Y6406D01*
X29970Y6420D01*
X30030Y6460D01*
X30070Y6520D01*
X30084Y6590D01*
X30070Y6660D01*
X30030Y6720D01*
X29970Y6760D01*
X29900Y6774D01*
D02*
G37*
G36*
X27450Y7564D02*
X27380Y7550D01*
X27320Y7510D01*
X27280Y7450D01*
X27266Y7380D01*
X27280Y7310D01*
X27320Y7250D01*
X27380Y7210D01*
X27450Y7196D01*
X27520Y7210D01*
X27580Y7250D01*
X27620Y7310D01*
X27634Y7380D01*
X27620Y7450D01*
X27580Y7510D01*
X27520Y7550D01*
X27450Y7564D01*
D02*
G37*
G36*
X30460Y8234D02*
X30390Y8220D01*
X30330Y8180D01*
X30290Y8120D01*
X30276Y8050D01*
X30290Y7980D01*
X30330Y7920D01*
X30390Y7880D01*
X30460Y7866D01*
X30530Y7880D01*
X30590Y7920D01*
X30630Y7980D01*
X30644Y8050D01*
X30630Y8120D01*
X30590Y8180D01*
X30530Y8220D01*
X30460Y8234D01*
D02*
G37*
G36*
X27723Y8590D02*
X27500D01*
Y8367D01*
X27522Y8370D01*
X27590Y8398D01*
X27647Y8443D01*
X27692Y8500D01*
X27720Y8568D01*
X27723Y8590D01*
D02*
G37*
G36*
X26310Y7594D02*
X26240Y7580D01*
X26180Y7540D01*
X26140Y7480D01*
X26126Y7410D01*
X26140Y7340D01*
X26180Y7280D01*
X26240Y7240D01*
X26310Y7226D01*
X26380Y7240D01*
X26440Y7280D01*
X26480Y7340D01*
X26494Y7410D01*
X26480Y7480D01*
X26440Y7540D01*
X26380Y7580D01*
X26310Y7594D01*
D02*
G37*
G36*
X25700Y7604D02*
X25630Y7590D01*
X25570Y7550D01*
X25530Y7490D01*
X25516Y7420D01*
X25530Y7350D01*
X25570Y7290D01*
X25630Y7250D01*
X25700Y7236D01*
X25770Y7250D01*
X25830Y7290D01*
X25870Y7350D01*
X25884Y7420D01*
X25870Y7490D01*
X25830Y7550D01*
X25770Y7590D01*
X25700Y7604D01*
D02*
G37*
G36*
X29800Y5724D02*
X29730Y5710D01*
X29670Y5670D01*
X29630Y5610D01*
X29616Y5540D01*
X29630Y5470D01*
X29670Y5410D01*
X29730Y5370D01*
X29800Y5356D01*
X29870Y5370D01*
X29930Y5410D01*
X29970Y5470D01*
X29984Y5540D01*
X29970Y5610D01*
X29930Y5670D01*
X29870Y5710D01*
X29800Y5724D01*
D02*
G37*
G36*
X29700Y6174D02*
X29630Y6160D01*
X29570Y6120D01*
X29530Y6060D01*
X29516Y5990D01*
X29530Y5920D01*
X29570Y5860D01*
X29630Y5820D01*
X29700Y5806D01*
X29770Y5820D01*
X29830Y5860D01*
X29870Y5920D01*
X29884Y5990D01*
X29870Y6060D01*
X29830Y6120D01*
X29770Y6160D01*
X29700Y6174D01*
D02*
G37*
G36*
X25280Y5174D02*
X25210Y5160D01*
X25150Y5120D01*
X25110Y5060D01*
X25096Y4990D01*
X25110Y4920D01*
X25150Y4860D01*
X25210Y4820D01*
X25280Y4806D01*
X25350Y4820D01*
X25410Y4860D01*
X25450Y4920D01*
X25464Y4990D01*
X25450Y5060D01*
X25410Y5120D01*
X25350Y5160D01*
X25280Y5174D01*
D02*
G37*
G36*
X28033Y5591D02*
X27963Y5577D01*
X27903Y5537D01*
X27863Y5477D01*
X27849Y5407D01*
X27863Y5337D01*
X27903Y5277D01*
X27963Y5238D01*
X28033Y5224D01*
X28103Y5238D01*
X28163Y5277D01*
X28202Y5337D01*
X28216Y5407D01*
X28202Y5477D01*
X28163Y5537D01*
X28103Y5577D01*
X28033Y5591D01*
D02*
G37*
G36*
X29056Y5974D02*
X28986Y5960D01*
X28927Y5920D01*
X28887Y5860D01*
X28882Y5835D01*
X28836Y5816D01*
X28830Y5820D01*
X28760Y5834D01*
X28690Y5820D01*
X28630Y5780D01*
X28590Y5720D01*
X28576Y5650D01*
X28590Y5580D01*
X28630Y5520D01*
X28690Y5480D01*
X28760Y5466D01*
X28830Y5480D01*
X28890Y5520D01*
X28930Y5580D01*
X28935Y5605D01*
X28981Y5624D01*
X28986Y5620D01*
X29056Y5606D01*
X29127Y5620D01*
X29186Y5660D01*
X29226Y5720D01*
X29240Y5790D01*
X29226Y5860D01*
X29186Y5920D01*
X29127Y5960D01*
X29056Y5974D01*
D02*
G37*
G36*
X26320Y6454D02*
X26250Y6440D01*
X26190Y6400D01*
X26150Y6340D01*
X26136Y6270D01*
X26150Y6200D01*
X26190Y6140D01*
X26250Y6100D01*
X26320Y6086D01*
X26390Y6100D01*
X26450Y6140D01*
X26490Y6200D01*
X26504Y6270D01*
X26490Y6340D01*
X26450Y6400D01*
X26390Y6440D01*
X26320Y6454D01*
D02*
G37*
G36*
X32460Y6534D02*
X32390Y6520D01*
X32330Y6480D01*
X32290Y6420D01*
X32276Y6350D01*
X32290Y6280D01*
X32330Y6220D01*
X32390Y6180D01*
X32460Y6166D01*
X32530Y6180D01*
X32590Y6220D01*
X32630Y6280D01*
X32644Y6350D01*
X32630Y6420D01*
X32590Y6480D01*
X32530Y6520D01*
X32460Y6534D01*
D02*
G37*
G36*
X25620Y6314D02*
X25550Y6300D01*
X25490Y6260D01*
X25450Y6200D01*
X25436Y6130D01*
X25450Y6060D01*
X25490Y6000D01*
X25550Y5960D01*
X25620Y5946D01*
X25690Y5960D01*
X25750Y6000D01*
X25790Y6060D01*
X25804Y6130D01*
X25790Y6200D01*
X25750Y6260D01*
X25690Y6300D01*
X25620Y6314D01*
D02*
G37*
G36*
X31710Y6384D02*
X31640Y6370D01*
X31580Y6330D01*
X31540Y6270D01*
X31526Y6200D01*
X31540Y6130D01*
X31580Y6070D01*
X31640Y6030D01*
X31710Y6016D01*
X31780Y6030D01*
X31840Y6070D01*
X31880Y6130D01*
X31894Y6200D01*
X31880Y6270D01*
X31840Y6330D01*
X31780Y6370D01*
X31710Y6384D01*
D02*
G37*
%LPD*%
G36*
X9940Y18670D02*
X9891Y18660D01*
X9876Y18697D01*
X9807Y18787D01*
X9717Y18856D01*
X9612Y18899D01*
X9500Y18914D01*
X9388Y18899D01*
X9283Y18856D01*
X9193Y18787D01*
X9124Y18697D01*
X9081Y18592D01*
X9066Y18480D01*
X9081Y18368D01*
X9124Y18263D01*
X9193Y18173D01*
X9283Y18104D01*
X9388Y18061D01*
X9500Y18046D01*
X9612Y18061D01*
X9717Y18104D01*
X9807Y18173D01*
X9876Y18263D01*
X9891Y18300D01*
X9940Y18290D01*
Y16446D01*
X9896Y16422D01*
X9880Y16433D01*
X9800Y16449D01*
X9720Y16433D01*
X9652Y16388D01*
X9502Y16238D01*
X9457Y16170D01*
X9441Y16090D01*
X9441Y16090D01*
Y15227D01*
X9273Y15059D01*
X8295D01*
Y13501D01*
X9441D01*
Y13070D01*
X9441Y13070D01*
X9457Y12990D01*
X9502Y12922D01*
X9692Y12732D01*
X9760Y12687D01*
X9840Y12671D01*
X9901Y12683D01*
X9940Y12651D01*
Y11270D01*
X9891Y11260D01*
X9876Y11297D01*
X9807Y11387D01*
X9717Y11456D01*
X9612Y11499D01*
X9550Y11507D01*
Y11080D01*
Y10653D01*
X9612Y10661D01*
X9717Y10704D01*
X9807Y10773D01*
X9876Y10863D01*
X9891Y10900D01*
X9940Y10890D01*
Y9931D01*
X9810D01*
Y10560D01*
X9150D01*
Y10440D01*
X9120D01*
Y10440D01*
X5709D01*
Y9931D01*
X3400D01*
Y11310D01*
X-500D01*
Y14900D01*
X-170D01*
Y14330D01*
X559D01*
Y15059D01*
X568D01*
Y16104D01*
X420D01*
Y16683D01*
X1259D01*
Y17358D01*
X820Y17790D01*
Y18900D01*
X2564D01*
X2588Y18856D01*
X2570Y18830D01*
X2556Y18760D01*
X2570Y18690D01*
X2610Y18630D01*
X2670Y18590D01*
X2740Y18576D01*
X2810Y18590D01*
X2870Y18630D01*
X2910Y18690D01*
X2924Y18760D01*
X2910Y18830D01*
X2870Y18890D01*
X2873Y18900D01*
X3070D01*
Y19480D01*
X3637D01*
X3659Y19435D01*
X3622Y19386D01*
X3588Y19306D01*
X3577Y19222D01*
X3532Y19202D01*
X3525Y19206D01*
X3455Y19220D01*
X3385Y19206D01*
X3325Y19166D01*
X3285Y19107D01*
X3271Y19036D01*
X3285Y18966D01*
X3325Y18907D01*
X3385Y18867D01*
X3455Y18853D01*
X3525Y18867D01*
X3585Y18907D01*
X3624Y18966D01*
X3626Y18973D01*
X3675Y18985D01*
X3675Y18985D01*
X3744Y18932D01*
X3824Y18898D01*
X3910Y18887D01*
X3996Y18898D01*
X4076Y18932D01*
X4145Y18985D01*
X4198Y19054D01*
X4207Y19074D01*
X4256Y19080D01*
X4293Y19033D01*
X4350Y18988D01*
X4418Y18960D01*
X4440Y18957D01*
Y19230D01*
X4490D01*
Y19280D01*
X4763D01*
X4769Y19230D01*
X4765Y19198D01*
X4815D01*
X4820Y19158D01*
X4848Y19090D01*
X4893Y19033D01*
X4950Y18988D01*
X5018Y18960D01*
X5090Y18951D01*
X5162Y18960D01*
X5230Y18988D01*
X5287Y19033D01*
X5332Y19090D01*
X5360Y19158D01*
X5369Y19230D01*
X5360Y19302D01*
X5332Y19370D01*
X5287Y19427D01*
X5230Y19472D01*
X5231Y19480D01*
X6587D01*
X6619Y19441D01*
X6606Y19380D01*
X6620Y19310D01*
X6660Y19250D01*
X6720Y19210D01*
X6790Y19196D01*
X6860Y19210D01*
X6920Y19250D01*
X6960Y19310D01*
X6963Y19329D01*
X7013Y19324D01*
Y18983D01*
X8740D01*
Y19280D01*
X8840D01*
Y18983D01*
X9567D01*
Y19480D01*
X9940D01*
Y18670D01*
D02*
G37*
%LPC*%
G36*
X559Y14230D02*
X-170D01*
Y13501D01*
X559D01*
Y14230D01*
D02*
G37*
G36*
X1388D02*
X659D01*
Y13501D01*
X1388D01*
Y14230D01*
D02*
G37*
G36*
X5240Y13504D02*
X5170Y13490D01*
X5110Y13450D01*
X5070Y13390D01*
X5056Y13320D01*
X5070Y13250D01*
X5110Y13190D01*
X5170Y13150D01*
X5240Y13136D01*
X5310Y13150D01*
X5370Y13190D01*
X5410Y13250D01*
X5424Y13320D01*
X5410Y13390D01*
X5370Y13450D01*
X5310Y13490D01*
X5240Y13504D01*
D02*
G37*
G36*
X7390Y13534D02*
X7320Y13520D01*
X7260Y13480D01*
X7220Y13420D01*
X7206Y13350D01*
X7220Y13280D01*
X7260Y13220D01*
X7320Y13180D01*
X7390Y13166D01*
X7460Y13180D01*
X7520Y13220D01*
X7560Y13280D01*
X7574Y13350D01*
X7560Y13420D01*
X7520Y13480D01*
X7460Y13520D01*
X7390Y13534D01*
D02*
G37*
G36*
X2430Y14544D02*
X2360Y14530D01*
X2300Y14490D01*
X2260Y14430D01*
X2246Y14360D01*
X2260Y14290D01*
X2300Y14230D01*
X2360Y14190D01*
X2430Y14176D01*
X2500Y14190D01*
X2560Y14230D01*
X2600Y14290D01*
X2614Y14360D01*
X2600Y14430D01*
X2560Y14490D01*
X2500Y14530D01*
X2430Y14544D01*
D02*
G37*
G36*
X7450Y15374D02*
X7380Y15360D01*
X7320Y15320D01*
X7280Y15260D01*
X7266Y15190D01*
X7280Y15120D01*
X7320Y15060D01*
X7380Y15020D01*
X7450Y15006D01*
X7520Y15020D01*
X7580Y15060D01*
X7613Y15110D01*
X7662Y15101D01*
X7670Y15060D01*
X7710Y15000D01*
X7770Y14960D01*
X7840Y14946D01*
X7910Y14960D01*
X7970Y15000D01*
X8010Y15060D01*
X8024Y15130D01*
X8010Y15200D01*
X7970Y15260D01*
X7910Y15300D01*
X7840Y15314D01*
X7770Y15300D01*
X7710Y15260D01*
X7677Y15210D01*
X7628Y15219D01*
X7620Y15260D01*
X7580Y15320D01*
X7520Y15360D01*
X7450Y15374D01*
D02*
G37*
G36*
X3700Y15424D02*
X3630Y15410D01*
X3570Y15370D01*
X3530Y15310D01*
X3516Y15240D01*
X3530Y15170D01*
X3570Y15110D01*
X3630Y15070D01*
X3700Y15056D01*
X3770Y15070D01*
X3830Y15110D01*
X3870Y15170D01*
X3884Y15240D01*
X3870Y15310D01*
X3830Y15370D01*
X3770Y15410D01*
X3700Y15424D01*
D02*
G37*
G36*
X1388Y15059D02*
X659D01*
Y14330D01*
X1388D01*
Y15059D01*
D02*
G37*
G36*
X7730Y14704D02*
X7660Y14690D01*
X7600Y14650D01*
X7560Y14590D01*
X7546Y14520D01*
X7560Y14450D01*
X7600Y14390D01*
X7660Y14350D01*
X7730Y14336D01*
X7800Y14350D01*
X7860Y14390D01*
X7900Y14450D01*
X7914Y14520D01*
X7900Y14590D01*
X7860Y14650D01*
X7800Y14690D01*
X7730Y14704D01*
D02*
G37*
G36*
X9450Y11507D02*
X9388Y11499D01*
X9283Y11456D01*
X9193Y11387D01*
X9124Y11297D01*
X9081Y11192D01*
X9073Y11130D01*
X9450D01*
Y11507D01*
D02*
G37*
G36*
X8094Y11729D02*
X8024Y11715D01*
X7964Y11676D01*
X7925Y11616D01*
X7911Y11546D01*
X7925Y11476D01*
X7964Y11416D01*
X8024Y11376D01*
X8094Y11362D01*
X8164Y11376D01*
X8224Y11416D01*
X8264Y11476D01*
X8278Y11546D01*
X8264Y11616D01*
X8224Y11676D01*
X8164Y11715D01*
X8094Y11729D01*
D02*
G37*
G36*
X5000Y10784D02*
X4930Y10770D01*
X4870Y10730D01*
X4830Y10670D01*
X4816Y10600D01*
X4830Y10530D01*
X4870Y10470D01*
X4930Y10430D01*
X5000Y10416D01*
X5070Y10430D01*
X5130Y10470D01*
X5170Y10530D01*
X5184Y10600D01*
X5170Y10670D01*
X5130Y10730D01*
X5070Y10770D01*
X5000Y10784D01*
D02*
G37*
G36*
X9450Y11030D02*
X9073D01*
X9081Y10968D01*
X9124Y10863D01*
X9193Y10773D01*
X9283Y10704D01*
X9388Y10661D01*
X9450Y10653D01*
Y11030D01*
D02*
G37*
G36*
X6520Y12004D02*
X6450Y11990D01*
X6390Y11950D01*
X6350Y11890D01*
X6336Y11820D01*
X6350Y11750D01*
X6390Y11690D01*
X6450Y11650D01*
X6520Y11636D01*
X6590Y11650D01*
X6650Y11690D01*
X6690Y11750D01*
X6704Y11820D01*
X6690Y11890D01*
X6650Y11950D01*
X6590Y11990D01*
X6520Y12004D01*
D02*
G37*
G36*
X8720Y12294D02*
X8650Y12280D01*
X8590Y12240D01*
X8550Y12180D01*
X8536Y12110D01*
X8550Y12040D01*
X8590Y11980D01*
X8650Y11940D01*
X8720Y11926D01*
X8790Y11940D01*
X8850Y11980D01*
X8890Y12040D01*
X8904Y12110D01*
X8890Y12180D01*
X8850Y12240D01*
X8790Y12280D01*
X8720Y12294D01*
D02*
G37*
G36*
X2200Y13134D02*
X2130Y13120D01*
X2070Y13080D01*
X2030Y13020D01*
X2016Y12950D01*
X2030Y12880D01*
X2070Y12820D01*
X2130Y12780D01*
X2200Y12766D01*
X2270Y12780D01*
X2330Y12820D01*
X2370Y12880D01*
X2384Y12950D01*
X2370Y13020D01*
X2330Y13080D01*
X2270Y13120D01*
X2200Y13134D01*
D02*
G37*
G36*
X5520Y12164D02*
X5450Y12150D01*
X5390Y12110D01*
X5350Y12050D01*
X5336Y11980D01*
X5350Y11910D01*
X5390Y11850D01*
X5450Y11810D01*
X5520Y11796D01*
X5590Y11810D01*
X5650Y11850D01*
X5690Y11910D01*
X5704Y11980D01*
X5690Y12050D01*
X5650Y12110D01*
X5590Y12150D01*
X5520Y12164D01*
D02*
G37*
G36*
X7240Y12294D02*
X7170Y12280D01*
X7110Y12240D01*
X7070Y12180D01*
X7056Y12110D01*
X7070Y12040D01*
X7110Y11980D01*
X7170Y11940D01*
X7240Y11926D01*
X7310Y11940D01*
X7370Y11980D01*
X7410Y12040D01*
X7424Y12110D01*
X7410Y12180D01*
X7370Y12240D01*
X7310Y12280D01*
X7240Y12294D01*
D02*
G37*
G36*
X4850Y17624D02*
X4780Y17610D01*
X4720Y17570D01*
X4680Y17510D01*
X4666Y17440D01*
X4680Y17370D01*
X4720Y17310D01*
X4780Y17270D01*
X4850Y17256D01*
X4920Y17270D01*
X4926Y17274D01*
X4968Y17247D01*
X4966Y17240D01*
X4980Y17170D01*
X5020Y17110D01*
X5080Y17070D01*
X5150Y17056D01*
X5220Y17070D01*
X5280Y17110D01*
X5320Y17170D01*
X5334Y17240D01*
X5320Y17310D01*
X5280Y17370D01*
X5220Y17410D01*
X5150Y17424D01*
X5080Y17410D01*
X5074Y17406D01*
X5032Y17433D01*
X5034Y17440D01*
X5020Y17510D01*
X4980Y17570D01*
X4920Y17610D01*
X4850Y17624D01*
D02*
G37*
G36*
X5850Y17774D02*
X5780Y17760D01*
X5720Y17720D01*
X5680Y17660D01*
X5666Y17590D01*
X5680Y17520D01*
X5720Y17460D01*
X5780Y17420D01*
X5850Y17406D01*
X5920Y17420D01*
X5980Y17460D01*
X6020Y17520D01*
X6034Y17590D01*
X6020Y17660D01*
X5980Y17720D01*
X5920Y17760D01*
X5850Y17774D01*
D02*
G37*
G36*
Y17324D02*
X5780Y17310D01*
X5720Y17270D01*
X5680Y17210D01*
X5666Y17140D01*
X5680Y17070D01*
X5720Y17010D01*
X5780Y16970D01*
X5850Y16956D01*
X5920Y16970D01*
X5980Y17010D01*
X6020Y17070D01*
X6034Y17140D01*
X6020Y17210D01*
X5980Y17270D01*
X5920Y17310D01*
X5850Y17324D01*
D02*
G37*
G36*
X6940Y17364D02*
X6870Y17350D01*
X6810Y17310D01*
X6770Y17250D01*
X6756Y17180D01*
X6770Y17110D01*
X6810Y17050D01*
X6870Y17010D01*
X6940Y16996D01*
X7010Y17010D01*
X7070Y17050D01*
X7110Y17110D01*
X7124Y17180D01*
X7110Y17250D01*
X7070Y17310D01*
X7010Y17350D01*
X6940Y17364D01*
D02*
G37*
G36*
X4490Y18154D02*
X4420Y18140D01*
X4360Y18100D01*
X4320Y18040D01*
X4306Y17970D01*
X4320Y17900D01*
X4360Y17840D01*
X4420Y17800D01*
X4490Y17786D01*
X4560Y17800D01*
X4620Y17840D01*
X4660Y17900D01*
X4674Y17970D01*
X4660Y18040D01*
X4620Y18100D01*
X4560Y18140D01*
X4490Y18154D01*
D02*
G37*
G36*
X7500Y18824D02*
X7430Y18810D01*
X7370Y18770D01*
X7330Y18710D01*
X7316Y18640D01*
X7330Y18570D01*
X7370Y18510D01*
X7430Y18470D01*
X7500Y18456D01*
X7570Y18470D01*
X7630Y18510D01*
X7670Y18570D01*
X7684Y18640D01*
X7670Y18710D01*
X7630Y18770D01*
X7570Y18810D01*
X7500Y18824D01*
D02*
G37*
G36*
X4763Y19180D02*
X4540D01*
Y18957D01*
X4562Y18960D01*
X4630Y18988D01*
X4687Y19033D01*
X4732Y19090D01*
X4760Y19158D01*
X4763Y19180D01*
D02*
G37*
G36*
X3350Y18184D02*
X3280Y18170D01*
X3220Y18130D01*
X3180Y18070D01*
X3166Y18000D01*
X3180Y17930D01*
X3220Y17870D01*
X3280Y17830D01*
X3350Y17816D01*
X3420Y17830D01*
X3480Y17870D01*
X3520Y17930D01*
X3534Y18000D01*
X3520Y18070D01*
X3480Y18130D01*
X3420Y18170D01*
X3350Y18184D01*
D02*
G37*
G36*
X2740Y18194D02*
X2670Y18180D01*
X2610Y18140D01*
X2570Y18080D01*
X2556Y18010D01*
X2570Y17940D01*
X2610Y17880D01*
X2670Y17840D01*
X2740Y17826D01*
X2810Y17840D01*
X2870Y17880D01*
X2910Y17940D01*
X2924Y18010D01*
X2910Y18080D01*
X2870Y18140D01*
X2810Y18180D01*
X2740Y18194D01*
D02*
G37*
G36*
X6840Y16314D02*
X6770Y16300D01*
X6710Y16260D01*
X6670Y16200D01*
X6656Y16130D01*
X6670Y16060D01*
X6710Y16000D01*
X6770Y15960D01*
X6840Y15946D01*
X6910Y15960D01*
X6970Y16000D01*
X7010Y16060D01*
X7024Y16130D01*
X7010Y16200D01*
X6970Y16260D01*
X6910Y16300D01*
X6840Y16314D01*
D02*
G37*
G36*
X6740Y16764D02*
X6670Y16750D01*
X6610Y16710D01*
X6570Y16650D01*
X6556Y16580D01*
X6570Y16510D01*
X6610Y16450D01*
X6670Y16410D01*
X6740Y16396D01*
X6810Y16410D01*
X6870Y16450D01*
X6910Y16510D01*
X6924Y16580D01*
X6910Y16650D01*
X6870Y16710D01*
X6810Y16750D01*
X6740Y16764D01*
D02*
G37*
G36*
X2320Y15764D02*
X2250Y15750D01*
X2190Y15710D01*
X2150Y15650D01*
X2136Y15580D01*
X2150Y15510D01*
X2190Y15450D01*
X2250Y15410D01*
X2320Y15396D01*
X2390Y15410D01*
X2450Y15450D01*
X2490Y15510D01*
X2504Y15580D01*
X2490Y15650D01*
X2450Y15710D01*
X2390Y15750D01*
X2320Y15764D01*
D02*
G37*
G36*
X5073Y16181D02*
X5003Y16167D01*
X4943Y16127D01*
X4903Y16067D01*
X4889Y15997D01*
X4903Y15927D01*
X4943Y15867D01*
X5003Y15828D01*
X5073Y15814D01*
X5143Y15828D01*
X5203Y15867D01*
X5242Y15927D01*
X5256Y15997D01*
X5242Y16067D01*
X5203Y16127D01*
X5143Y16167D01*
X5073Y16181D01*
D02*
G37*
G36*
X6096Y16564D02*
X6026Y16550D01*
X5967Y16510D01*
X5927Y16450D01*
X5922Y16425D01*
X5876Y16406D01*
X5870Y16410D01*
X5800Y16424D01*
X5730Y16410D01*
X5670Y16370D01*
X5630Y16310D01*
X5616Y16240D01*
X5630Y16170D01*
X5670Y16110D01*
X5730Y16070D01*
X5800Y16056D01*
X5870Y16070D01*
X5930Y16110D01*
X5970Y16170D01*
X5975Y16195D01*
X6021Y16214D01*
X6026Y16210D01*
X6096Y16196D01*
X6167Y16210D01*
X6226Y16250D01*
X6266Y16310D01*
X6280Y16380D01*
X6266Y16450D01*
X6226Y16510D01*
X6167Y16550D01*
X6096Y16564D01*
D02*
G37*
G36*
X3360Y17044D02*
X3290Y17030D01*
X3230Y16990D01*
X3190Y16930D01*
X3176Y16860D01*
X3190Y16790D01*
X3230Y16730D01*
X3290Y16690D01*
X3360Y16676D01*
X3430Y16690D01*
X3490Y16730D01*
X3530Y16790D01*
X3544Y16860D01*
X3530Y16930D01*
X3490Y16990D01*
X3430Y17030D01*
X3360Y17044D01*
D02*
G37*
G36*
X9500Y17124D02*
X9430Y17110D01*
X9370Y17070D01*
X9330Y17010D01*
X9316Y16940D01*
X9330Y16870D01*
X9370Y16810D01*
X9430Y16770D01*
X9500Y16756D01*
X9570Y16770D01*
X9630Y16810D01*
X9670Y16870D01*
X9684Y16940D01*
X9670Y17010D01*
X9630Y17070D01*
X9570Y17110D01*
X9500Y17124D01*
D02*
G37*
G36*
X2660Y16904D02*
X2590Y16890D01*
X2530Y16850D01*
X2490Y16790D01*
X2476Y16720D01*
X2490Y16650D01*
X2530Y16590D01*
X2590Y16550D01*
X2660Y16536D01*
X2730Y16550D01*
X2790Y16590D01*
X2830Y16650D01*
X2844Y16720D01*
X2830Y16790D01*
X2790Y16850D01*
X2730Y16890D01*
X2660Y16904D01*
D02*
G37*
G36*
X8750Y16974D02*
X8680Y16960D01*
X8620Y16920D01*
X8580Y16860D01*
X8566Y16790D01*
X8580Y16720D01*
X8620Y16660D01*
X8680Y16620D01*
X8750Y16606D01*
X8820Y16620D01*
X8880Y16660D01*
X8920Y16720D01*
X8934Y16790D01*
X8920Y16860D01*
X8880Y16920D01*
X8820Y16960D01*
X8750Y16974D01*
D02*
G37*
%LPD*%
G36*
X21420Y18670D02*
X21371Y18660D01*
X21356Y18697D01*
X21287Y18787D01*
X21197Y18856D01*
X21092Y18899D01*
X20980Y18914D01*
X20868Y18899D01*
X20763Y18856D01*
X20673Y18787D01*
X20604Y18697D01*
X20561Y18592D01*
X20546Y18480D01*
X20561Y18368D01*
X20604Y18263D01*
X20673Y18173D01*
X20763Y18104D01*
X20868Y18061D01*
X20980Y18046D01*
X21092Y18061D01*
X21197Y18104D01*
X21287Y18173D01*
X21356Y18263D01*
X21371Y18300D01*
X21420Y18290D01*
Y16446D01*
X21376Y16422D01*
X21360Y16433D01*
X21280Y16449D01*
X21200Y16433D01*
X21132Y16388D01*
X20982Y16238D01*
X20937Y16170D01*
X20921Y16090D01*
X20921Y16090D01*
Y15227D01*
X20753Y15059D01*
X19775D01*
Y13501D01*
X20921D01*
Y13070D01*
X20921Y13070D01*
X20937Y12990D01*
X20982Y12922D01*
X21172Y12732D01*
X21240Y12687D01*
X21320Y12671D01*
X21381Y12683D01*
X21420Y12651D01*
Y11270D01*
X21371Y11260D01*
X21356Y11297D01*
X21287Y11387D01*
X21197Y11456D01*
X21092Y11499D01*
X21030Y11507D01*
Y11080D01*
Y10653D01*
X21092Y10661D01*
X21197Y10704D01*
X21287Y10773D01*
X21356Y10863D01*
X21371Y10900D01*
X21420Y10890D01*
Y9931D01*
X21290D01*
Y10560D01*
X20630D01*
Y10440D01*
X20600D01*
Y10440D01*
X17189D01*
Y9931D01*
X14880D01*
Y11310D01*
X10980D01*
Y14900D01*
X11310D01*
Y14330D01*
X12039D01*
Y15059D01*
X12048D01*
Y16104D01*
X11900D01*
Y16683D01*
X12739D01*
Y17358D01*
X12300Y17790D01*
Y18900D01*
X14044D01*
X14068Y18856D01*
X14050Y18830D01*
X14036Y18760D01*
X14050Y18690D01*
X14090Y18630D01*
X14150Y18590D01*
X14220Y18576D01*
X14290Y18590D01*
X14350Y18630D01*
X14390Y18690D01*
X14404Y18760D01*
X14390Y18830D01*
X14350Y18890D01*
X14353Y18900D01*
X14550D01*
Y19480D01*
X15117D01*
X15139Y19435D01*
X15102Y19386D01*
X15068Y19306D01*
X15057Y19222D01*
X15012Y19202D01*
X15005Y19206D01*
X14935Y19220D01*
X14865Y19206D01*
X14805Y19166D01*
X14765Y19107D01*
X14751Y19036D01*
X14765Y18966D01*
X14805Y18907D01*
X14865Y18867D01*
X14935Y18853D01*
X15005Y18867D01*
X15065Y18907D01*
X15104Y18966D01*
X15106Y18973D01*
X15155Y18985D01*
X15155Y18985D01*
X15224Y18932D01*
X15304Y18898D01*
X15390Y18887D01*
X15476Y18898D01*
X15556Y18932D01*
X15625Y18985D01*
X15678Y19054D01*
X15687Y19074D01*
X15736Y19080D01*
X15773Y19033D01*
X15830Y18988D01*
X15898Y18960D01*
X15920Y18957D01*
Y19230D01*
X15970D01*
Y19280D01*
X16243D01*
X16249Y19230D01*
X16245Y19198D01*
X16295D01*
X16300Y19158D01*
X16328Y19090D01*
X16373Y19033D01*
X16430Y18988D01*
X16498Y18960D01*
X16570Y18951D01*
X16642Y18960D01*
X16710Y18988D01*
X16767Y19033D01*
X16812Y19090D01*
X16840Y19158D01*
X16849Y19230D01*
X16840Y19302D01*
X16812Y19370D01*
X16767Y19427D01*
X16710Y19472D01*
X16711Y19480D01*
X18067D01*
X18099Y19441D01*
X18086Y19380D01*
X18100Y19310D01*
X18140Y19250D01*
X18200Y19210D01*
X18270Y19196D01*
X18340Y19210D01*
X18400Y19250D01*
X18440Y19310D01*
X18443Y19329D01*
X18493Y19324D01*
Y18983D01*
X20220D01*
Y19280D01*
X20320D01*
Y18983D01*
X21047D01*
Y19480D01*
X21420D01*
Y18670D01*
D02*
G37*
%LPC*%
G36*
X12039Y14230D02*
X11310D01*
Y13501D01*
X12039D01*
Y14230D01*
D02*
G37*
G36*
X12868D02*
X12139D01*
Y13501D01*
X12868D01*
Y14230D01*
D02*
G37*
G36*
X16720Y13504D02*
X16650Y13490D01*
X16590Y13450D01*
X16550Y13390D01*
X16536Y13320D01*
X16550Y13250D01*
X16590Y13190D01*
X16650Y13150D01*
X16720Y13136D01*
X16790Y13150D01*
X16850Y13190D01*
X16890Y13250D01*
X16904Y13320D01*
X16890Y13390D01*
X16850Y13450D01*
X16790Y13490D01*
X16720Y13504D01*
D02*
G37*
G36*
X18870Y13534D02*
X18800Y13520D01*
X18740Y13480D01*
X18700Y13420D01*
X18686Y13350D01*
X18700Y13280D01*
X18740Y13220D01*
X18800Y13180D01*
X18870Y13166D01*
X18940Y13180D01*
X19000Y13220D01*
X19040Y13280D01*
X19054Y13350D01*
X19040Y13420D01*
X19000Y13480D01*
X18940Y13520D01*
X18870Y13534D01*
D02*
G37*
G36*
X13910Y14544D02*
X13840Y14530D01*
X13780Y14490D01*
X13740Y14430D01*
X13726Y14360D01*
X13740Y14290D01*
X13780Y14230D01*
X13840Y14190D01*
X13910Y14176D01*
X13980Y14190D01*
X14040Y14230D01*
X14080Y14290D01*
X14094Y14360D01*
X14080Y14430D01*
X14040Y14490D01*
X13980Y14530D01*
X13910Y14544D01*
D02*
G37*
G36*
X18930Y15374D02*
X18860Y15360D01*
X18800Y15320D01*
X18760Y15260D01*
X18746Y15190D01*
X18760Y15120D01*
X18800Y15060D01*
X18860Y15020D01*
X18930Y15006D01*
X19000Y15020D01*
X19060Y15060D01*
X19093Y15110D01*
X19142Y15101D01*
X19150Y15060D01*
X19190Y15000D01*
X19250Y14960D01*
X19320Y14946D01*
X19390Y14960D01*
X19450Y15000D01*
X19490Y15060D01*
X19504Y15130D01*
X19490Y15200D01*
X19450Y15260D01*
X19390Y15300D01*
X19320Y15314D01*
X19250Y15300D01*
X19190Y15260D01*
X19157Y15210D01*
X19108Y15219D01*
X19100Y15260D01*
X19060Y15320D01*
X19000Y15360D01*
X18930Y15374D01*
D02*
G37*
G36*
X15180Y15424D02*
X15110Y15410D01*
X15050Y15370D01*
X15010Y15310D01*
X14996Y15240D01*
X15010Y15170D01*
X15050Y15110D01*
X15110Y15070D01*
X15180Y15056D01*
X15250Y15070D01*
X15310Y15110D01*
X15350Y15170D01*
X15364Y15240D01*
X15350Y15310D01*
X15310Y15370D01*
X15250Y15410D01*
X15180Y15424D01*
D02*
G37*
G36*
X12868Y15059D02*
X12139D01*
Y14330D01*
X12868D01*
Y15059D01*
D02*
G37*
G36*
X19210Y14704D02*
X19140Y14690D01*
X19080Y14650D01*
X19040Y14590D01*
X19026Y14520D01*
X19040Y14450D01*
X19080Y14390D01*
X19140Y14350D01*
X19210Y14336D01*
X19280Y14350D01*
X19340Y14390D01*
X19380Y14450D01*
X19394Y14520D01*
X19380Y14590D01*
X19340Y14650D01*
X19280Y14690D01*
X19210Y14704D01*
D02*
G37*
G36*
X20930Y11507D02*
X20868Y11499D01*
X20763Y11456D01*
X20673Y11387D01*
X20604Y11297D01*
X20561Y11192D01*
X20553Y11130D01*
X20930D01*
Y11507D01*
D02*
G37*
G36*
X19574Y11729D02*
X19504Y11715D01*
X19444Y11676D01*
X19405Y11616D01*
X19391Y11546D01*
X19405Y11476D01*
X19444Y11416D01*
X19504Y11376D01*
X19574Y11362D01*
X19644Y11376D01*
X19704Y11416D01*
X19744Y11476D01*
X19758Y11546D01*
X19744Y11616D01*
X19704Y11676D01*
X19644Y11715D01*
X19574Y11729D01*
D02*
G37*
G36*
X16480Y10784D02*
X16410Y10770D01*
X16350Y10730D01*
X16310Y10670D01*
X16296Y10600D01*
X16310Y10530D01*
X16350Y10470D01*
X16410Y10430D01*
X16480Y10416D01*
X16550Y10430D01*
X16610Y10470D01*
X16650Y10530D01*
X16664Y10600D01*
X16650Y10670D01*
X16610Y10730D01*
X16550Y10770D01*
X16480Y10784D01*
D02*
G37*
G36*
X20930Y11030D02*
X20553D01*
X20561Y10968D01*
X20604Y10863D01*
X20673Y10773D01*
X20763Y10704D01*
X20868Y10661D01*
X20930Y10653D01*
Y11030D01*
D02*
G37*
G36*
X18000Y12004D02*
X17930Y11990D01*
X17870Y11950D01*
X17830Y11890D01*
X17816Y11820D01*
X17830Y11750D01*
X17870Y11690D01*
X17930Y11650D01*
X18000Y11636D01*
X18070Y11650D01*
X18130Y11690D01*
X18170Y11750D01*
X18184Y11820D01*
X18170Y11890D01*
X18130Y11950D01*
X18070Y11990D01*
X18000Y12004D01*
D02*
G37*
G36*
X20200Y12294D02*
X20130Y12280D01*
X20070Y12240D01*
X20030Y12180D01*
X20016Y12110D01*
X20030Y12040D01*
X20070Y11980D01*
X20130Y11940D01*
X20200Y11926D01*
X20270Y11940D01*
X20330Y11980D01*
X20370Y12040D01*
X20384Y12110D01*
X20370Y12180D01*
X20330Y12240D01*
X20270Y12280D01*
X20200Y12294D01*
D02*
G37*
G36*
X13680Y13134D02*
X13610Y13120D01*
X13550Y13080D01*
X13510Y13020D01*
X13496Y12950D01*
X13510Y12880D01*
X13550Y12820D01*
X13610Y12780D01*
X13680Y12766D01*
X13750Y12780D01*
X13810Y12820D01*
X13850Y12880D01*
X13864Y12950D01*
X13850Y13020D01*
X13810Y13080D01*
X13750Y13120D01*
X13680Y13134D01*
D02*
G37*
G36*
X17000Y12164D02*
X16930Y12150D01*
X16870Y12110D01*
X16830Y12050D01*
X16816Y11980D01*
X16830Y11910D01*
X16870Y11850D01*
X16930Y11810D01*
X17000Y11796D01*
X17070Y11810D01*
X17130Y11850D01*
X17170Y11910D01*
X17184Y11980D01*
X17170Y12050D01*
X17130Y12110D01*
X17070Y12150D01*
X17000Y12164D01*
D02*
G37*
G36*
X18720Y12294D02*
X18650Y12280D01*
X18590Y12240D01*
X18550Y12180D01*
X18536Y12110D01*
X18550Y12040D01*
X18590Y11980D01*
X18650Y11940D01*
X18720Y11926D01*
X18790Y11940D01*
X18850Y11980D01*
X18890Y12040D01*
X18904Y12110D01*
X18890Y12180D01*
X18850Y12240D01*
X18790Y12280D01*
X18720Y12294D01*
D02*
G37*
G36*
X16330Y17624D02*
X16260Y17610D01*
X16200Y17570D01*
X16160Y17510D01*
X16146Y17440D01*
X16160Y17370D01*
X16200Y17310D01*
X16260Y17270D01*
X16330Y17256D01*
X16400Y17270D01*
X16406Y17274D01*
X16448Y17247D01*
X16446Y17240D01*
X16460Y17170D01*
X16500Y17110D01*
X16560Y17070D01*
X16630Y17056D01*
X16700Y17070D01*
X16760Y17110D01*
X16800Y17170D01*
X16814Y17240D01*
X16800Y17310D01*
X16760Y17370D01*
X16700Y17410D01*
X16630Y17424D01*
X16560Y17410D01*
X16554Y17406D01*
X16512Y17433D01*
X16514Y17440D01*
X16500Y17510D01*
X16460Y17570D01*
X16400Y17610D01*
X16330Y17624D01*
D02*
G37*
G36*
X17330Y17774D02*
X17260Y17760D01*
X17200Y17720D01*
X17160Y17660D01*
X17146Y17590D01*
X17160Y17520D01*
X17200Y17460D01*
X17260Y17420D01*
X17330Y17406D01*
X17400Y17420D01*
X17460Y17460D01*
X17500Y17520D01*
X17514Y17590D01*
X17500Y17660D01*
X17460Y17720D01*
X17400Y17760D01*
X17330Y17774D01*
D02*
G37*
G36*
Y17324D02*
X17260Y17310D01*
X17200Y17270D01*
X17160Y17210D01*
X17146Y17140D01*
X17160Y17070D01*
X17200Y17010D01*
X17260Y16970D01*
X17330Y16956D01*
X17400Y16970D01*
X17460Y17010D01*
X17500Y17070D01*
X17514Y17140D01*
X17500Y17210D01*
X17460Y17270D01*
X17400Y17310D01*
X17330Y17324D01*
D02*
G37*
G36*
X18420Y17364D02*
X18350Y17350D01*
X18290Y17310D01*
X18250Y17250D01*
X18236Y17180D01*
X18250Y17110D01*
X18290Y17050D01*
X18350Y17010D01*
X18420Y16996D01*
X18490Y17010D01*
X18550Y17050D01*
X18590Y17110D01*
X18604Y17180D01*
X18590Y17250D01*
X18550Y17310D01*
X18490Y17350D01*
X18420Y17364D01*
D02*
G37*
G36*
X15970Y18154D02*
X15900Y18140D01*
X15840Y18100D01*
X15800Y18040D01*
X15786Y17970D01*
X15800Y17900D01*
X15840Y17840D01*
X15900Y17800D01*
X15970Y17786D01*
X16040Y17800D01*
X16100Y17840D01*
X16140Y17900D01*
X16154Y17970D01*
X16140Y18040D01*
X16100Y18100D01*
X16040Y18140D01*
X15970Y18154D01*
D02*
G37*
G36*
X18980Y18824D02*
X18910Y18810D01*
X18850Y18770D01*
X18810Y18710D01*
X18796Y18640D01*
X18810Y18570D01*
X18850Y18510D01*
X18910Y18470D01*
X18980Y18456D01*
X19050Y18470D01*
X19110Y18510D01*
X19150Y18570D01*
X19164Y18640D01*
X19150Y18710D01*
X19110Y18770D01*
X19050Y18810D01*
X18980Y18824D01*
D02*
G37*
G36*
X16243Y19180D02*
X16020D01*
Y18957D01*
X16042Y18960D01*
X16110Y18988D01*
X16167Y19033D01*
X16212Y19090D01*
X16240Y19158D01*
X16243Y19180D01*
D02*
G37*
G36*
X14830Y18184D02*
X14760Y18170D01*
X14700Y18130D01*
X14660Y18070D01*
X14646Y18000D01*
X14660Y17930D01*
X14700Y17870D01*
X14760Y17830D01*
X14830Y17816D01*
X14900Y17830D01*
X14960Y17870D01*
X15000Y17930D01*
X15014Y18000D01*
X15000Y18070D01*
X14960Y18130D01*
X14900Y18170D01*
X14830Y18184D01*
D02*
G37*
G36*
X14220Y18194D02*
X14150Y18180D01*
X14090Y18140D01*
X14050Y18080D01*
X14036Y18010D01*
X14050Y17940D01*
X14090Y17880D01*
X14150Y17840D01*
X14220Y17826D01*
X14290Y17840D01*
X14350Y17880D01*
X14390Y17940D01*
X14404Y18010D01*
X14390Y18080D01*
X14350Y18140D01*
X14290Y18180D01*
X14220Y18194D01*
D02*
G37*
G36*
X18320Y16314D02*
X18250Y16300D01*
X18190Y16260D01*
X18150Y16200D01*
X18136Y16130D01*
X18150Y16060D01*
X18190Y16000D01*
X18250Y15960D01*
X18320Y15946D01*
X18390Y15960D01*
X18450Y16000D01*
X18490Y16060D01*
X18504Y16130D01*
X18490Y16200D01*
X18450Y16260D01*
X18390Y16300D01*
X18320Y16314D01*
D02*
G37*
G36*
X18220Y16764D02*
X18150Y16750D01*
X18090Y16710D01*
X18050Y16650D01*
X18036Y16580D01*
X18050Y16510D01*
X18090Y16450D01*
X18150Y16410D01*
X18220Y16396D01*
X18290Y16410D01*
X18350Y16450D01*
X18390Y16510D01*
X18404Y16580D01*
X18390Y16650D01*
X18350Y16710D01*
X18290Y16750D01*
X18220Y16764D01*
D02*
G37*
G36*
X13800Y15764D02*
X13730Y15750D01*
X13670Y15710D01*
X13630Y15650D01*
X13616Y15580D01*
X13630Y15510D01*
X13670Y15450D01*
X13730Y15410D01*
X13800Y15396D01*
X13870Y15410D01*
X13930Y15450D01*
X13970Y15510D01*
X13984Y15580D01*
X13970Y15650D01*
X13930Y15710D01*
X13870Y15750D01*
X13800Y15764D01*
D02*
G37*
G36*
X16553Y16181D02*
X16483Y16167D01*
X16423Y16127D01*
X16383Y16067D01*
X16369Y15997D01*
X16383Y15927D01*
X16423Y15867D01*
X16483Y15828D01*
X16553Y15814D01*
X16623Y15828D01*
X16683Y15867D01*
X16722Y15927D01*
X16736Y15997D01*
X16722Y16067D01*
X16683Y16127D01*
X16623Y16167D01*
X16553Y16181D01*
D02*
G37*
G36*
X17576Y16564D02*
X17506Y16550D01*
X17447Y16510D01*
X17407Y16450D01*
X17402Y16425D01*
X17356Y16406D01*
X17350Y16410D01*
X17280Y16424D01*
X17210Y16410D01*
X17150Y16370D01*
X17110Y16310D01*
X17096Y16240D01*
X17110Y16170D01*
X17150Y16110D01*
X17210Y16070D01*
X17280Y16056D01*
X17350Y16070D01*
X17410Y16110D01*
X17450Y16170D01*
X17455Y16195D01*
X17501Y16214D01*
X17506Y16210D01*
X17576Y16196D01*
X17647Y16210D01*
X17706Y16250D01*
X17746Y16310D01*
X17760Y16380D01*
X17746Y16450D01*
X17706Y16510D01*
X17647Y16550D01*
X17576Y16564D01*
D02*
G37*
G36*
X14840Y17044D02*
X14770Y17030D01*
X14710Y16990D01*
X14670Y16930D01*
X14656Y16860D01*
X14670Y16790D01*
X14710Y16730D01*
X14770Y16690D01*
X14840Y16676D01*
X14910Y16690D01*
X14970Y16730D01*
X15010Y16790D01*
X15024Y16860D01*
X15010Y16930D01*
X14970Y16990D01*
X14910Y17030D01*
X14840Y17044D01*
D02*
G37*
G36*
X20980Y17124D02*
X20910Y17110D01*
X20850Y17070D01*
X20810Y17010D01*
X20796Y16940D01*
X20810Y16870D01*
X20850Y16810D01*
X20910Y16770D01*
X20980Y16756D01*
X21050Y16770D01*
X21110Y16810D01*
X21150Y16870D01*
X21164Y16940D01*
X21150Y17010D01*
X21110Y17070D01*
X21050Y17110D01*
X20980Y17124D01*
D02*
G37*
G36*
X14140Y16904D02*
X14070Y16890D01*
X14010Y16850D01*
X13970Y16790D01*
X13956Y16720D01*
X13970Y16650D01*
X14010Y16590D01*
X14070Y16550D01*
X14140Y16536D01*
X14210Y16550D01*
X14270Y16590D01*
X14310Y16650D01*
X14324Y16720D01*
X14310Y16790D01*
X14270Y16850D01*
X14210Y16890D01*
X14140Y16904D01*
D02*
G37*
G36*
X20230Y16974D02*
X20160Y16960D01*
X20100Y16920D01*
X20060Y16860D01*
X20046Y16790D01*
X20060Y16720D01*
X20100Y16660D01*
X20160Y16620D01*
X20230Y16606D01*
X20300Y16620D01*
X20360Y16660D01*
X20400Y16720D01*
X20414Y16790D01*
X20400Y16860D01*
X20360Y16920D01*
X20300Y16960D01*
X20230Y16974D01*
D02*
G37*
%LPD*%
G36*
X32900Y18670D02*
X32851Y18660D01*
X32836Y18697D01*
X32767Y18787D01*
X32677Y18856D01*
X32572Y18899D01*
X32460Y18914D01*
X32348Y18899D01*
X32243Y18856D01*
X32153Y18787D01*
X32084Y18697D01*
X32041Y18592D01*
X32026Y18480D01*
X32041Y18368D01*
X32084Y18263D01*
X32153Y18173D01*
X32243Y18104D01*
X32348Y18061D01*
X32460Y18046D01*
X32572Y18061D01*
X32677Y18104D01*
X32767Y18173D01*
X32836Y18263D01*
X32851Y18300D01*
X32900Y18290D01*
Y16446D01*
X32856Y16422D01*
X32840Y16433D01*
X32760Y16449D01*
X32680Y16433D01*
X32612Y16388D01*
X32462Y16238D01*
X32417Y16170D01*
X32401Y16090D01*
X32401Y16090D01*
Y15227D01*
X32233Y15059D01*
X31255D01*
Y13501D01*
X32401D01*
Y13070D01*
X32401Y13070D01*
X32417Y12990D01*
X32462Y12922D01*
X32652Y12732D01*
X32720Y12687D01*
X32800Y12671D01*
X32861Y12683D01*
X32900Y12651D01*
Y11270D01*
X32851Y11260D01*
X32836Y11297D01*
X32767Y11387D01*
X32677Y11456D01*
X32572Y11499D01*
X32510Y11507D01*
Y11080D01*
Y10653D01*
X32572Y10661D01*
X32677Y10704D01*
X32767Y10773D01*
X32836Y10863D01*
X32851Y10900D01*
X32900Y10890D01*
Y9931D01*
X32770D01*
Y10560D01*
X32110D01*
Y10440D01*
X32080D01*
Y10440D01*
X28669D01*
Y9931D01*
X26360D01*
Y11310D01*
X22460D01*
Y14900D01*
X22790D01*
Y14330D01*
X23519D01*
Y15059D01*
X23528D01*
Y16104D01*
X23380D01*
Y16683D01*
X24219D01*
Y17358D01*
X23780Y17790D01*
Y18900D01*
X25524D01*
X25548Y18856D01*
X25530Y18830D01*
X25516Y18760D01*
X25530Y18690D01*
X25570Y18630D01*
X25630Y18590D01*
X25700Y18576D01*
X25770Y18590D01*
X25830Y18630D01*
X25870Y18690D01*
X25884Y18760D01*
X25870Y18830D01*
X25830Y18890D01*
X25833Y18900D01*
X26030D01*
Y19480D01*
X26597D01*
X26619Y19435D01*
X26582Y19386D01*
X26548Y19306D01*
X26537Y19222D01*
X26492Y19202D01*
X26485Y19206D01*
X26415Y19220D01*
X26345Y19206D01*
X26285Y19166D01*
X26245Y19107D01*
X26231Y19036D01*
X26245Y18966D01*
X26285Y18907D01*
X26345Y18867D01*
X26415Y18853D01*
X26485Y18867D01*
X26545Y18907D01*
X26584Y18966D01*
X26586Y18973D01*
X26635Y18985D01*
X26635Y18985D01*
X26704Y18932D01*
X26784Y18898D01*
X26870Y18887D01*
X26956Y18898D01*
X27036Y18932D01*
X27105Y18985D01*
X27158Y19054D01*
X27167Y19074D01*
X27216Y19080D01*
X27253Y19033D01*
X27310Y18988D01*
X27378Y18960D01*
X27400Y18957D01*
Y19230D01*
X27450D01*
Y19280D01*
X27723D01*
X27729Y19230D01*
X27725Y19198D01*
X27775D01*
X27780Y19158D01*
X27808Y19090D01*
X27853Y19033D01*
X27910Y18988D01*
X27978Y18960D01*
X28050Y18951D01*
X28122Y18960D01*
X28190Y18988D01*
X28247Y19033D01*
X28292Y19090D01*
X28320Y19158D01*
X28329Y19230D01*
X28320Y19302D01*
X28292Y19370D01*
X28247Y19427D01*
X28190Y19472D01*
X28191Y19480D01*
X29547D01*
X29579Y19441D01*
X29566Y19380D01*
X29580Y19310D01*
X29620Y19250D01*
X29680Y19210D01*
X29750Y19196D01*
X29820Y19210D01*
X29880Y19250D01*
X29920Y19310D01*
X29923Y19329D01*
X29973Y19324D01*
Y18983D01*
X31700D01*
Y19280D01*
X31800D01*
Y18983D01*
X32527D01*
Y19480D01*
X32900D01*
Y18670D01*
D02*
G37*
%LPC*%
G36*
X23519Y14230D02*
X22790D01*
Y13501D01*
X23519D01*
Y14230D01*
D02*
G37*
G36*
X24348D02*
X23619D01*
Y13501D01*
X24348D01*
Y14230D01*
D02*
G37*
G36*
X28200Y13504D02*
X28130Y13490D01*
X28070Y13450D01*
X28030Y13390D01*
X28016Y13320D01*
X28030Y13250D01*
X28070Y13190D01*
X28130Y13150D01*
X28200Y13136D01*
X28270Y13150D01*
X28330Y13190D01*
X28370Y13250D01*
X28384Y13320D01*
X28370Y13390D01*
X28330Y13450D01*
X28270Y13490D01*
X28200Y13504D01*
D02*
G37*
G36*
X30350Y13534D02*
X30280Y13520D01*
X30220Y13480D01*
X30180Y13420D01*
X30166Y13350D01*
X30180Y13280D01*
X30220Y13220D01*
X30280Y13180D01*
X30350Y13166D01*
X30420Y13180D01*
X30480Y13220D01*
X30520Y13280D01*
X30534Y13350D01*
X30520Y13420D01*
X30480Y13480D01*
X30420Y13520D01*
X30350Y13534D01*
D02*
G37*
G36*
X25390Y14544D02*
X25320Y14530D01*
X25260Y14490D01*
X25220Y14430D01*
X25206Y14360D01*
X25220Y14290D01*
X25260Y14230D01*
X25320Y14190D01*
X25390Y14176D01*
X25460Y14190D01*
X25520Y14230D01*
X25560Y14290D01*
X25574Y14360D01*
X25560Y14430D01*
X25520Y14490D01*
X25460Y14530D01*
X25390Y14544D01*
D02*
G37*
G36*
X30410Y15374D02*
X30340Y15360D01*
X30280Y15320D01*
X30240Y15260D01*
X30226Y15190D01*
X30240Y15120D01*
X30280Y15060D01*
X30340Y15020D01*
X30410Y15006D01*
X30480Y15020D01*
X30540Y15060D01*
X30573Y15110D01*
X30622Y15101D01*
X30630Y15060D01*
X30670Y15000D01*
X30730Y14960D01*
X30800Y14946D01*
X30870Y14960D01*
X30930Y15000D01*
X30970Y15060D01*
X30984Y15130D01*
X30970Y15200D01*
X30930Y15260D01*
X30870Y15300D01*
X30800Y15314D01*
X30730Y15300D01*
X30670Y15260D01*
X30637Y15210D01*
X30588Y15219D01*
X30580Y15260D01*
X30540Y15320D01*
X30480Y15360D01*
X30410Y15374D01*
D02*
G37*
G36*
X26660Y15424D02*
X26590Y15410D01*
X26530Y15370D01*
X26490Y15310D01*
X26476Y15240D01*
X26490Y15170D01*
X26530Y15110D01*
X26590Y15070D01*
X26660Y15056D01*
X26730Y15070D01*
X26790Y15110D01*
X26830Y15170D01*
X26844Y15240D01*
X26830Y15310D01*
X26790Y15370D01*
X26730Y15410D01*
X26660Y15424D01*
D02*
G37*
G36*
X24348Y15059D02*
X23619D01*
Y14330D01*
X24348D01*
Y15059D01*
D02*
G37*
G36*
X30690Y14704D02*
X30620Y14690D01*
X30560Y14650D01*
X30520Y14590D01*
X30506Y14520D01*
X30520Y14450D01*
X30560Y14390D01*
X30620Y14350D01*
X30690Y14336D01*
X30760Y14350D01*
X30820Y14390D01*
X30860Y14450D01*
X30874Y14520D01*
X30860Y14590D01*
X30820Y14650D01*
X30760Y14690D01*
X30690Y14704D01*
D02*
G37*
G36*
X32410Y11507D02*
X32348Y11499D01*
X32243Y11456D01*
X32153Y11387D01*
X32084Y11297D01*
X32041Y11192D01*
X32033Y11130D01*
X32410D01*
Y11507D01*
D02*
G37*
G36*
X31054Y11729D02*
X30984Y11715D01*
X30924Y11676D01*
X30885Y11616D01*
X30871Y11546D01*
X30885Y11476D01*
X30924Y11416D01*
X30984Y11376D01*
X31054Y11362D01*
X31124Y11376D01*
X31184Y11416D01*
X31224Y11476D01*
X31238Y11546D01*
X31224Y11616D01*
X31184Y11676D01*
X31124Y11715D01*
X31054Y11729D01*
D02*
G37*
G36*
X27960Y10784D02*
X27890Y10770D01*
X27830Y10730D01*
X27790Y10670D01*
X27776Y10600D01*
X27790Y10530D01*
X27830Y10470D01*
X27890Y10430D01*
X27960Y10416D01*
X28030Y10430D01*
X28090Y10470D01*
X28130Y10530D01*
X28144Y10600D01*
X28130Y10670D01*
X28090Y10730D01*
X28030Y10770D01*
X27960Y10784D01*
D02*
G37*
G36*
X32410Y11030D02*
X32033D01*
X32041Y10968D01*
X32084Y10863D01*
X32153Y10773D01*
X32243Y10704D01*
X32348Y10661D01*
X32410Y10653D01*
Y11030D01*
D02*
G37*
G36*
X29480Y12004D02*
X29410Y11990D01*
X29350Y11950D01*
X29310Y11890D01*
X29296Y11820D01*
X29310Y11750D01*
X29350Y11690D01*
X29410Y11650D01*
X29480Y11636D01*
X29550Y11650D01*
X29610Y11690D01*
X29650Y11750D01*
X29664Y11820D01*
X29650Y11890D01*
X29610Y11950D01*
X29550Y11990D01*
X29480Y12004D01*
D02*
G37*
G36*
X31680Y12294D02*
X31610Y12280D01*
X31550Y12240D01*
X31510Y12180D01*
X31496Y12110D01*
X31510Y12040D01*
X31550Y11980D01*
X31610Y11940D01*
X31680Y11926D01*
X31750Y11940D01*
X31810Y11980D01*
X31850Y12040D01*
X31864Y12110D01*
X31850Y12180D01*
X31810Y12240D01*
X31750Y12280D01*
X31680Y12294D01*
D02*
G37*
G36*
X25160Y13134D02*
X25090Y13120D01*
X25030Y13080D01*
X24990Y13020D01*
X24976Y12950D01*
X24990Y12880D01*
X25030Y12820D01*
X25090Y12780D01*
X25160Y12766D01*
X25230Y12780D01*
X25290Y12820D01*
X25330Y12880D01*
X25344Y12950D01*
X25330Y13020D01*
X25290Y13080D01*
X25230Y13120D01*
X25160Y13134D01*
D02*
G37*
G36*
X28480Y12164D02*
X28410Y12150D01*
X28350Y12110D01*
X28310Y12050D01*
X28296Y11980D01*
X28310Y11910D01*
X28350Y11850D01*
X28410Y11810D01*
X28480Y11796D01*
X28550Y11810D01*
X28610Y11850D01*
X28650Y11910D01*
X28664Y11980D01*
X28650Y12050D01*
X28610Y12110D01*
X28550Y12150D01*
X28480Y12164D01*
D02*
G37*
G36*
X30200Y12294D02*
X30130Y12280D01*
X30070Y12240D01*
X30030Y12180D01*
X30016Y12110D01*
X30030Y12040D01*
X30070Y11980D01*
X30130Y11940D01*
X30200Y11926D01*
X30270Y11940D01*
X30330Y11980D01*
X30370Y12040D01*
X30384Y12110D01*
X30370Y12180D01*
X30330Y12240D01*
X30270Y12280D01*
X30200Y12294D01*
D02*
G37*
G36*
X27810Y17624D02*
X27740Y17610D01*
X27680Y17570D01*
X27640Y17510D01*
X27626Y17440D01*
X27640Y17370D01*
X27680Y17310D01*
X27740Y17270D01*
X27810Y17256D01*
X27880Y17270D01*
X27886Y17274D01*
X27928Y17247D01*
X27926Y17240D01*
X27940Y17170D01*
X27980Y17110D01*
X28040Y17070D01*
X28110Y17056D01*
X28180Y17070D01*
X28240Y17110D01*
X28280Y17170D01*
X28294Y17240D01*
X28280Y17310D01*
X28240Y17370D01*
X28180Y17410D01*
X28110Y17424D01*
X28040Y17410D01*
X28034Y17406D01*
X27992Y17433D01*
X27994Y17440D01*
X27980Y17510D01*
X27940Y17570D01*
X27880Y17610D01*
X27810Y17624D01*
D02*
G37*
G36*
X28810Y17774D02*
X28740Y17760D01*
X28680Y17720D01*
X28640Y17660D01*
X28626Y17590D01*
X28640Y17520D01*
X28680Y17460D01*
X28740Y17420D01*
X28810Y17406D01*
X28880Y17420D01*
X28940Y17460D01*
X28980Y17520D01*
X28994Y17590D01*
X28980Y17660D01*
X28940Y17720D01*
X28880Y17760D01*
X28810Y17774D01*
D02*
G37*
G36*
Y17324D02*
X28740Y17310D01*
X28680Y17270D01*
X28640Y17210D01*
X28626Y17140D01*
X28640Y17070D01*
X28680Y17010D01*
X28740Y16970D01*
X28810Y16956D01*
X28880Y16970D01*
X28940Y17010D01*
X28980Y17070D01*
X28994Y17140D01*
X28980Y17210D01*
X28940Y17270D01*
X28880Y17310D01*
X28810Y17324D01*
D02*
G37*
G36*
X29900Y17364D02*
X29830Y17350D01*
X29770Y17310D01*
X29730Y17250D01*
X29716Y17180D01*
X29730Y17110D01*
X29770Y17050D01*
X29830Y17010D01*
X29900Y16996D01*
X29970Y17010D01*
X30030Y17050D01*
X30070Y17110D01*
X30084Y17180D01*
X30070Y17250D01*
X30030Y17310D01*
X29970Y17350D01*
X29900Y17364D01*
D02*
G37*
G36*
X27450Y18154D02*
X27380Y18140D01*
X27320Y18100D01*
X27280Y18040D01*
X27266Y17970D01*
X27280Y17900D01*
X27320Y17840D01*
X27380Y17800D01*
X27450Y17786D01*
X27520Y17800D01*
X27580Y17840D01*
X27620Y17900D01*
X27634Y17970D01*
X27620Y18040D01*
X27580Y18100D01*
X27520Y18140D01*
X27450Y18154D01*
D02*
G37*
G36*
X30460Y18824D02*
X30390Y18810D01*
X30330Y18770D01*
X30290Y18710D01*
X30276Y18640D01*
X30290Y18570D01*
X30330Y18510D01*
X30390Y18470D01*
X30460Y18456D01*
X30530Y18470D01*
X30590Y18510D01*
X30630Y18570D01*
X30644Y18640D01*
X30630Y18710D01*
X30590Y18770D01*
X30530Y18810D01*
X30460Y18824D01*
D02*
G37*
G36*
X27723Y19180D02*
X27500D01*
Y18957D01*
X27522Y18960D01*
X27590Y18988D01*
X27647Y19033D01*
X27692Y19090D01*
X27720Y19158D01*
X27723Y19180D01*
D02*
G37*
G36*
X26310Y18184D02*
X26240Y18170D01*
X26180Y18130D01*
X26140Y18070D01*
X26126Y18000D01*
X26140Y17930D01*
X26180Y17870D01*
X26240Y17830D01*
X26310Y17816D01*
X26380Y17830D01*
X26440Y17870D01*
X26480Y17930D01*
X26494Y18000D01*
X26480Y18070D01*
X26440Y18130D01*
X26380Y18170D01*
X26310Y18184D01*
D02*
G37*
G36*
X25700Y18194D02*
X25630Y18180D01*
X25570Y18140D01*
X25530Y18080D01*
X25516Y18010D01*
X25530Y17940D01*
X25570Y17880D01*
X25630Y17840D01*
X25700Y17826D01*
X25770Y17840D01*
X25830Y17880D01*
X25870Y17940D01*
X25884Y18010D01*
X25870Y18080D01*
X25830Y18140D01*
X25770Y18180D01*
X25700Y18194D01*
D02*
G37*
G36*
X29800Y16314D02*
X29730Y16300D01*
X29670Y16260D01*
X29630Y16200D01*
X29616Y16130D01*
X29630Y16060D01*
X29670Y16000D01*
X29730Y15960D01*
X29800Y15946D01*
X29870Y15960D01*
X29930Y16000D01*
X29970Y16060D01*
X29984Y16130D01*
X29970Y16200D01*
X29930Y16260D01*
X29870Y16300D01*
X29800Y16314D01*
D02*
G37*
G36*
X29700Y16764D02*
X29630Y16750D01*
X29570Y16710D01*
X29530Y16650D01*
X29516Y16580D01*
X29530Y16510D01*
X29570Y16450D01*
X29630Y16410D01*
X29700Y16396D01*
X29770Y16410D01*
X29830Y16450D01*
X29870Y16510D01*
X29884Y16580D01*
X29870Y16650D01*
X29830Y16710D01*
X29770Y16750D01*
X29700Y16764D01*
D02*
G37*
G36*
X25280Y15764D02*
X25210Y15750D01*
X25150Y15710D01*
X25110Y15650D01*
X25096Y15580D01*
X25110Y15510D01*
X25150Y15450D01*
X25210Y15410D01*
X25280Y15396D01*
X25350Y15410D01*
X25410Y15450D01*
X25450Y15510D01*
X25464Y15580D01*
X25450Y15650D01*
X25410Y15710D01*
X25350Y15750D01*
X25280Y15764D01*
D02*
G37*
G36*
X28033Y16181D02*
X27963Y16167D01*
X27903Y16127D01*
X27863Y16067D01*
X27849Y15997D01*
X27863Y15927D01*
X27903Y15867D01*
X27963Y15828D01*
X28033Y15814D01*
X28103Y15828D01*
X28163Y15867D01*
X28202Y15927D01*
X28216Y15997D01*
X28202Y16067D01*
X28163Y16127D01*
X28103Y16167D01*
X28033Y16181D01*
D02*
G37*
G36*
X29056Y16564D02*
X28986Y16550D01*
X28927Y16510D01*
X28887Y16450D01*
X28882Y16425D01*
X28836Y16406D01*
X28830Y16410D01*
X28760Y16424D01*
X28690Y16410D01*
X28630Y16370D01*
X28590Y16310D01*
X28576Y16240D01*
X28590Y16170D01*
X28630Y16110D01*
X28690Y16070D01*
X28760Y16056D01*
X28830Y16070D01*
X28890Y16110D01*
X28930Y16170D01*
X28935Y16195D01*
X28981Y16214D01*
X28986Y16210D01*
X29056Y16196D01*
X29127Y16210D01*
X29186Y16250D01*
X29226Y16310D01*
X29240Y16380D01*
X29226Y16450D01*
X29186Y16510D01*
X29127Y16550D01*
X29056Y16564D01*
D02*
G37*
G36*
X26320Y17044D02*
X26250Y17030D01*
X26190Y16990D01*
X26150Y16930D01*
X26136Y16860D01*
X26150Y16790D01*
X26190Y16730D01*
X26250Y16690D01*
X26320Y16676D01*
X26390Y16690D01*
X26450Y16730D01*
X26490Y16790D01*
X26504Y16860D01*
X26490Y16930D01*
X26450Y16990D01*
X26390Y17030D01*
X26320Y17044D01*
D02*
G37*
G36*
X32460Y17124D02*
X32390Y17110D01*
X32330Y17070D01*
X32290Y17010D01*
X32276Y16940D01*
X32290Y16870D01*
X32330Y16810D01*
X32390Y16770D01*
X32460Y16756D01*
X32530Y16770D01*
X32590Y16810D01*
X32630Y16870D01*
X32644Y16940D01*
X32630Y17010D01*
X32590Y17070D01*
X32530Y17110D01*
X32460Y17124D01*
D02*
G37*
G36*
X25620Y16904D02*
X25550Y16890D01*
X25490Y16850D01*
X25450Y16790D01*
X25436Y16720D01*
X25450Y16650D01*
X25490Y16590D01*
X25550Y16550D01*
X25620Y16536D01*
X25690Y16550D01*
X25750Y16590D01*
X25790Y16650D01*
X25804Y16720D01*
X25790Y16790D01*
X25750Y16850D01*
X25690Y16890D01*
X25620Y16904D01*
D02*
G37*
G36*
X31710Y16974D02*
X31640Y16960D01*
X31580Y16920D01*
X31540Y16860D01*
X31526Y16790D01*
X31540Y16720D01*
X31580Y16660D01*
X31640Y16620D01*
X31710Y16606D01*
X31780Y16620D01*
X31840Y16660D01*
X31880Y16720D01*
X31894Y16790D01*
X31880Y16860D01*
X31840Y16920D01*
X31780Y16960D01*
X31710Y16974D01*
D02*
G37*
%LPD*%
G36*
X9940Y29260D02*
X9891Y29250D01*
X9876Y29287D01*
X9807Y29377D01*
X9717Y29446D01*
X9612Y29489D01*
X9500Y29504D01*
X9388Y29489D01*
X9283Y29446D01*
X9193Y29377D01*
X9124Y29287D01*
X9081Y29182D01*
X9066Y29070D01*
X9081Y28958D01*
X9124Y28853D01*
X9193Y28763D01*
X9283Y28694D01*
X9388Y28651D01*
X9500Y28636D01*
X9612Y28651D01*
X9717Y28694D01*
X9807Y28763D01*
X9876Y28853D01*
X9891Y28890D01*
X9940Y28880D01*
Y27036D01*
X9896Y27012D01*
X9880Y27023D01*
X9800Y27039D01*
X9720Y27023D01*
X9652Y26978D01*
X9502Y26828D01*
X9457Y26760D01*
X9441Y26680D01*
X9441Y26680D01*
Y25817D01*
X9273Y25649D01*
X8295D01*
Y24091D01*
X9441D01*
Y23660D01*
X9441Y23660D01*
X9457Y23580D01*
X9502Y23512D01*
X9692Y23322D01*
X9760Y23277D01*
X9840Y23261D01*
X9901Y23273D01*
X9940Y23241D01*
Y21860D01*
X9891Y21850D01*
X9876Y21887D01*
X9807Y21977D01*
X9717Y22046D01*
X9612Y22089D01*
X9550Y22097D01*
Y21670D01*
Y21243D01*
X9612Y21251D01*
X9717Y21294D01*
X9807Y21363D01*
X9876Y21453D01*
X9891Y21490D01*
X9940Y21480D01*
Y20521D01*
X9810D01*
Y21150D01*
X9150D01*
Y21030D01*
X9120D01*
Y21030D01*
X5709D01*
Y20521D01*
X3400D01*
Y21900D01*
X-500D01*
Y25490D01*
X-170D01*
Y24920D01*
X559D01*
Y25649D01*
X568D01*
Y26694D01*
X420D01*
Y27273D01*
X1259D01*
Y27948D01*
X820Y28380D01*
Y29490D01*
X2564D01*
X2588Y29446D01*
X2570Y29420D01*
X2556Y29350D01*
X2570Y29280D01*
X2610Y29220D01*
X2670Y29180D01*
X2740Y29166D01*
X2810Y29180D01*
X2870Y29220D01*
X2910Y29280D01*
X2924Y29350D01*
X2910Y29420D01*
X2870Y29480D01*
X2873Y29490D01*
X3070D01*
Y30070D01*
X3637D01*
X3659Y30025D01*
X3622Y29976D01*
X3588Y29896D01*
X3577Y29812D01*
X3532Y29792D01*
X3525Y29796D01*
X3455Y29810D01*
X3385Y29796D01*
X3325Y29756D01*
X3285Y29697D01*
X3271Y29626D01*
X3285Y29556D01*
X3325Y29497D01*
X3385Y29457D01*
X3455Y29443D01*
X3525Y29457D01*
X3585Y29497D01*
X3624Y29556D01*
X3626Y29563D01*
X3675Y29575D01*
X3675Y29575D01*
X3744Y29522D01*
X3824Y29488D01*
X3910Y29477D01*
X3996Y29488D01*
X4076Y29522D01*
X4145Y29575D01*
X4198Y29644D01*
X4207Y29664D01*
X4256Y29670D01*
X4293Y29623D01*
X4350Y29578D01*
X4418Y29550D01*
X4440Y29547D01*
Y29820D01*
X4490D01*
Y29870D01*
X4763D01*
X4769Y29820D01*
X4765Y29788D01*
X4815D01*
X4820Y29748D01*
X4848Y29680D01*
X4893Y29623D01*
X4950Y29578D01*
X5018Y29550D01*
X5090Y29541D01*
X5162Y29550D01*
X5230Y29578D01*
X5287Y29623D01*
X5332Y29680D01*
X5360Y29748D01*
X5369Y29820D01*
X5360Y29892D01*
X5332Y29960D01*
X5287Y30017D01*
X5230Y30062D01*
X5231Y30070D01*
X6587D01*
X6619Y30031D01*
X6606Y29970D01*
X6620Y29900D01*
X6660Y29840D01*
X6720Y29800D01*
X6790Y29786D01*
X6860Y29800D01*
X6920Y29840D01*
X6960Y29900D01*
X6963Y29919D01*
X7013Y29914D01*
Y29573D01*
X8740D01*
Y29870D01*
X8840D01*
Y29573D01*
X9567D01*
Y30070D01*
X9940D01*
Y29260D01*
D02*
G37*
%LPC*%
G36*
X559Y24820D02*
X-170D01*
Y24091D01*
X559D01*
Y24820D01*
D02*
G37*
G36*
X1388D02*
X659D01*
Y24091D01*
X1388D01*
Y24820D01*
D02*
G37*
G36*
X5240Y24094D02*
X5170Y24080D01*
X5110Y24040D01*
X5070Y23980D01*
X5056Y23910D01*
X5070Y23840D01*
X5110Y23780D01*
X5170Y23740D01*
X5240Y23726D01*
X5310Y23740D01*
X5370Y23780D01*
X5410Y23840D01*
X5424Y23910D01*
X5410Y23980D01*
X5370Y24040D01*
X5310Y24080D01*
X5240Y24094D01*
D02*
G37*
G36*
X7390Y24124D02*
X7320Y24110D01*
X7260Y24070D01*
X7220Y24010D01*
X7206Y23940D01*
X7220Y23870D01*
X7260Y23810D01*
X7320Y23770D01*
X7390Y23756D01*
X7460Y23770D01*
X7520Y23810D01*
X7560Y23870D01*
X7574Y23940D01*
X7560Y24010D01*
X7520Y24070D01*
X7460Y24110D01*
X7390Y24124D01*
D02*
G37*
G36*
X2430Y25134D02*
X2360Y25120D01*
X2300Y25080D01*
X2260Y25020D01*
X2246Y24950D01*
X2260Y24880D01*
X2300Y24820D01*
X2360Y24780D01*
X2430Y24766D01*
X2500Y24780D01*
X2560Y24820D01*
X2600Y24880D01*
X2614Y24950D01*
X2600Y25020D01*
X2560Y25080D01*
X2500Y25120D01*
X2430Y25134D01*
D02*
G37*
G36*
X7450Y25964D02*
X7380Y25950D01*
X7320Y25910D01*
X7280Y25850D01*
X7266Y25780D01*
X7280Y25710D01*
X7320Y25650D01*
X7380Y25610D01*
X7450Y25596D01*
X7520Y25610D01*
X7580Y25650D01*
X7613Y25700D01*
X7662Y25691D01*
X7670Y25650D01*
X7710Y25590D01*
X7770Y25550D01*
X7840Y25536D01*
X7910Y25550D01*
X7970Y25590D01*
X8010Y25650D01*
X8024Y25720D01*
X8010Y25790D01*
X7970Y25850D01*
X7910Y25890D01*
X7840Y25904D01*
X7770Y25890D01*
X7710Y25850D01*
X7677Y25800D01*
X7628Y25809D01*
X7620Y25850D01*
X7580Y25910D01*
X7520Y25950D01*
X7450Y25964D01*
D02*
G37*
G36*
X3700Y26014D02*
X3630Y26000D01*
X3570Y25960D01*
X3530Y25900D01*
X3516Y25830D01*
X3530Y25760D01*
X3570Y25700D01*
X3630Y25660D01*
X3700Y25646D01*
X3770Y25660D01*
X3830Y25700D01*
X3870Y25760D01*
X3884Y25830D01*
X3870Y25900D01*
X3830Y25960D01*
X3770Y26000D01*
X3700Y26014D01*
D02*
G37*
G36*
X1388Y25649D02*
X659D01*
Y24920D01*
X1388D01*
Y25649D01*
D02*
G37*
G36*
X7730Y25294D02*
X7660Y25280D01*
X7600Y25240D01*
X7560Y25180D01*
X7546Y25110D01*
X7560Y25040D01*
X7600Y24980D01*
X7660Y24940D01*
X7730Y24926D01*
X7800Y24940D01*
X7860Y24980D01*
X7900Y25040D01*
X7914Y25110D01*
X7900Y25180D01*
X7860Y25240D01*
X7800Y25280D01*
X7730Y25294D01*
D02*
G37*
G36*
X9450Y22097D02*
X9388Y22089D01*
X9283Y22046D01*
X9193Y21977D01*
X9124Y21887D01*
X9081Y21782D01*
X9073Y21720D01*
X9450D01*
Y22097D01*
D02*
G37*
G36*
X8094Y22319D02*
X8024Y22305D01*
X7964Y22266D01*
X7925Y22206D01*
X7911Y22136D01*
X7925Y22066D01*
X7964Y22006D01*
X8024Y21966D01*
X8094Y21952D01*
X8164Y21966D01*
X8224Y22006D01*
X8264Y22066D01*
X8278Y22136D01*
X8264Y22206D01*
X8224Y22266D01*
X8164Y22305D01*
X8094Y22319D01*
D02*
G37*
G36*
X5000Y21374D02*
X4930Y21360D01*
X4870Y21320D01*
X4830Y21260D01*
X4816Y21190D01*
X4830Y21120D01*
X4870Y21060D01*
X4930Y21020D01*
X5000Y21006D01*
X5070Y21020D01*
X5130Y21060D01*
X5170Y21120D01*
X5184Y21190D01*
X5170Y21260D01*
X5130Y21320D01*
X5070Y21360D01*
X5000Y21374D01*
D02*
G37*
G36*
X9450Y21620D02*
X9073D01*
X9081Y21558D01*
X9124Y21453D01*
X9193Y21363D01*
X9283Y21294D01*
X9388Y21251D01*
X9450Y21243D01*
Y21620D01*
D02*
G37*
G36*
X6520Y22594D02*
X6450Y22580D01*
X6390Y22540D01*
X6350Y22480D01*
X6336Y22410D01*
X6350Y22340D01*
X6390Y22280D01*
X6450Y22240D01*
X6520Y22226D01*
X6590Y22240D01*
X6650Y22280D01*
X6690Y22340D01*
X6704Y22410D01*
X6690Y22480D01*
X6650Y22540D01*
X6590Y22580D01*
X6520Y22594D01*
D02*
G37*
G36*
X8720Y22884D02*
X8650Y22870D01*
X8590Y22830D01*
X8550Y22770D01*
X8536Y22700D01*
X8550Y22630D01*
X8590Y22570D01*
X8650Y22530D01*
X8720Y22516D01*
X8790Y22530D01*
X8850Y22570D01*
X8890Y22630D01*
X8904Y22700D01*
X8890Y22770D01*
X8850Y22830D01*
X8790Y22870D01*
X8720Y22884D01*
D02*
G37*
G36*
X2200Y23724D02*
X2130Y23710D01*
X2070Y23670D01*
X2030Y23610D01*
X2016Y23540D01*
X2030Y23470D01*
X2070Y23410D01*
X2130Y23370D01*
X2200Y23356D01*
X2270Y23370D01*
X2330Y23410D01*
X2370Y23470D01*
X2384Y23540D01*
X2370Y23610D01*
X2330Y23670D01*
X2270Y23710D01*
X2200Y23724D01*
D02*
G37*
G36*
X5520Y22754D02*
X5450Y22740D01*
X5390Y22700D01*
X5350Y22640D01*
X5336Y22570D01*
X5350Y22500D01*
X5390Y22440D01*
X5450Y22400D01*
X5520Y22386D01*
X5590Y22400D01*
X5650Y22440D01*
X5690Y22500D01*
X5704Y22570D01*
X5690Y22640D01*
X5650Y22700D01*
X5590Y22740D01*
X5520Y22754D01*
D02*
G37*
G36*
X7240Y22884D02*
X7170Y22870D01*
X7110Y22830D01*
X7070Y22770D01*
X7056Y22700D01*
X7070Y22630D01*
X7110Y22570D01*
X7170Y22530D01*
X7240Y22516D01*
X7310Y22530D01*
X7370Y22570D01*
X7410Y22630D01*
X7424Y22700D01*
X7410Y22770D01*
X7370Y22830D01*
X7310Y22870D01*
X7240Y22884D01*
D02*
G37*
G36*
X4850Y28214D02*
X4780Y28200D01*
X4720Y28160D01*
X4680Y28100D01*
X4666Y28030D01*
X4680Y27960D01*
X4720Y27900D01*
X4780Y27860D01*
X4850Y27846D01*
X4920Y27860D01*
X4926Y27864D01*
X4968Y27837D01*
X4966Y27830D01*
X4980Y27760D01*
X5020Y27700D01*
X5080Y27660D01*
X5150Y27646D01*
X5220Y27660D01*
X5280Y27700D01*
X5320Y27760D01*
X5334Y27830D01*
X5320Y27900D01*
X5280Y27960D01*
X5220Y28000D01*
X5150Y28014D01*
X5080Y28000D01*
X5074Y27996D01*
X5032Y28023D01*
X5034Y28030D01*
X5020Y28100D01*
X4980Y28160D01*
X4920Y28200D01*
X4850Y28214D01*
D02*
G37*
G36*
X5850Y28364D02*
X5780Y28350D01*
X5720Y28310D01*
X5680Y28250D01*
X5666Y28180D01*
X5680Y28110D01*
X5720Y28050D01*
X5780Y28010D01*
X5850Y27996D01*
X5920Y28010D01*
X5980Y28050D01*
X6020Y28110D01*
X6034Y28180D01*
X6020Y28250D01*
X5980Y28310D01*
X5920Y28350D01*
X5850Y28364D01*
D02*
G37*
G36*
Y27914D02*
X5780Y27900D01*
X5720Y27860D01*
X5680Y27800D01*
X5666Y27730D01*
X5680Y27660D01*
X5720Y27600D01*
X5780Y27560D01*
X5850Y27546D01*
X5920Y27560D01*
X5980Y27600D01*
X6020Y27660D01*
X6034Y27730D01*
X6020Y27800D01*
X5980Y27860D01*
X5920Y27900D01*
X5850Y27914D01*
D02*
G37*
G36*
X6940Y27954D02*
X6870Y27940D01*
X6810Y27900D01*
X6770Y27840D01*
X6756Y27770D01*
X6770Y27700D01*
X6810Y27640D01*
X6870Y27600D01*
X6940Y27586D01*
X7010Y27600D01*
X7070Y27640D01*
X7110Y27700D01*
X7124Y27770D01*
X7110Y27840D01*
X7070Y27900D01*
X7010Y27940D01*
X6940Y27954D01*
D02*
G37*
G36*
X4490Y28744D02*
X4420Y28730D01*
X4360Y28690D01*
X4320Y28630D01*
X4306Y28560D01*
X4320Y28490D01*
X4360Y28430D01*
X4420Y28390D01*
X4490Y28376D01*
X4560Y28390D01*
X4620Y28430D01*
X4660Y28490D01*
X4674Y28560D01*
X4660Y28630D01*
X4620Y28690D01*
X4560Y28730D01*
X4490Y28744D01*
D02*
G37*
G36*
X7500Y29414D02*
X7430Y29400D01*
X7370Y29360D01*
X7330Y29300D01*
X7316Y29230D01*
X7330Y29160D01*
X7370Y29100D01*
X7430Y29060D01*
X7500Y29046D01*
X7570Y29060D01*
X7630Y29100D01*
X7670Y29160D01*
X7684Y29230D01*
X7670Y29300D01*
X7630Y29360D01*
X7570Y29400D01*
X7500Y29414D01*
D02*
G37*
G36*
X4763Y29770D02*
X4540D01*
Y29547D01*
X4562Y29550D01*
X4630Y29578D01*
X4687Y29623D01*
X4732Y29680D01*
X4760Y29748D01*
X4763Y29770D01*
D02*
G37*
G36*
X3350Y28774D02*
X3280Y28760D01*
X3220Y28720D01*
X3180Y28660D01*
X3166Y28590D01*
X3180Y28520D01*
X3220Y28460D01*
X3280Y28420D01*
X3350Y28406D01*
X3420Y28420D01*
X3480Y28460D01*
X3520Y28520D01*
X3534Y28590D01*
X3520Y28660D01*
X3480Y28720D01*
X3420Y28760D01*
X3350Y28774D01*
D02*
G37*
G36*
X2740Y28784D02*
X2670Y28770D01*
X2610Y28730D01*
X2570Y28670D01*
X2556Y28600D01*
X2570Y28530D01*
X2610Y28470D01*
X2670Y28430D01*
X2740Y28416D01*
X2810Y28430D01*
X2870Y28470D01*
X2910Y28530D01*
X2924Y28600D01*
X2910Y28670D01*
X2870Y28730D01*
X2810Y28770D01*
X2740Y28784D01*
D02*
G37*
G36*
X6840Y26904D02*
X6770Y26890D01*
X6710Y26850D01*
X6670Y26790D01*
X6656Y26720D01*
X6670Y26650D01*
X6710Y26590D01*
X6770Y26550D01*
X6840Y26536D01*
X6910Y26550D01*
X6970Y26590D01*
X7010Y26650D01*
X7024Y26720D01*
X7010Y26790D01*
X6970Y26850D01*
X6910Y26890D01*
X6840Y26904D01*
D02*
G37*
G36*
X6740Y27354D02*
X6670Y27340D01*
X6610Y27300D01*
X6570Y27240D01*
X6556Y27170D01*
X6570Y27100D01*
X6610Y27040D01*
X6670Y27000D01*
X6740Y26986D01*
X6810Y27000D01*
X6870Y27040D01*
X6910Y27100D01*
X6924Y27170D01*
X6910Y27240D01*
X6870Y27300D01*
X6810Y27340D01*
X6740Y27354D01*
D02*
G37*
G36*
X2320Y26354D02*
X2250Y26340D01*
X2190Y26300D01*
X2150Y26240D01*
X2136Y26170D01*
X2150Y26100D01*
X2190Y26040D01*
X2250Y26000D01*
X2320Y25986D01*
X2390Y26000D01*
X2450Y26040D01*
X2490Y26100D01*
X2504Y26170D01*
X2490Y26240D01*
X2450Y26300D01*
X2390Y26340D01*
X2320Y26354D01*
D02*
G37*
G36*
X5073Y26771D02*
X5003Y26757D01*
X4943Y26717D01*
X4903Y26657D01*
X4889Y26587D01*
X4903Y26517D01*
X4943Y26457D01*
X5003Y26418D01*
X5073Y26404D01*
X5143Y26418D01*
X5203Y26457D01*
X5242Y26517D01*
X5256Y26587D01*
X5242Y26657D01*
X5203Y26717D01*
X5143Y26757D01*
X5073Y26771D01*
D02*
G37*
G36*
X6096Y27154D02*
X6026Y27140D01*
X5967Y27100D01*
X5927Y27040D01*
X5922Y27015D01*
X5876Y26996D01*
X5870Y27000D01*
X5800Y27014D01*
X5730Y27000D01*
X5670Y26960D01*
X5630Y26900D01*
X5616Y26830D01*
X5630Y26760D01*
X5670Y26700D01*
X5730Y26660D01*
X5800Y26646D01*
X5870Y26660D01*
X5930Y26700D01*
X5970Y26760D01*
X5975Y26785D01*
X6021Y26804D01*
X6026Y26800D01*
X6096Y26786D01*
X6167Y26800D01*
X6226Y26840D01*
X6266Y26900D01*
X6280Y26970D01*
X6266Y27040D01*
X6226Y27100D01*
X6167Y27140D01*
X6096Y27154D01*
D02*
G37*
G36*
X3360Y27634D02*
X3290Y27620D01*
X3230Y27580D01*
X3190Y27520D01*
X3176Y27450D01*
X3190Y27380D01*
X3230Y27320D01*
X3290Y27280D01*
X3360Y27266D01*
X3430Y27280D01*
X3490Y27320D01*
X3530Y27380D01*
X3544Y27450D01*
X3530Y27520D01*
X3490Y27580D01*
X3430Y27620D01*
X3360Y27634D01*
D02*
G37*
G36*
X9500Y27714D02*
X9430Y27700D01*
X9370Y27660D01*
X9330Y27600D01*
X9316Y27530D01*
X9330Y27460D01*
X9370Y27400D01*
X9430Y27360D01*
X9500Y27346D01*
X9570Y27360D01*
X9630Y27400D01*
X9670Y27460D01*
X9684Y27530D01*
X9670Y27600D01*
X9630Y27660D01*
X9570Y27700D01*
X9500Y27714D01*
D02*
G37*
G36*
X2660Y27494D02*
X2590Y27480D01*
X2530Y27440D01*
X2490Y27380D01*
X2476Y27310D01*
X2490Y27240D01*
X2530Y27180D01*
X2590Y27140D01*
X2660Y27126D01*
X2730Y27140D01*
X2790Y27180D01*
X2830Y27240D01*
X2844Y27310D01*
X2830Y27380D01*
X2790Y27440D01*
X2730Y27480D01*
X2660Y27494D01*
D02*
G37*
G36*
X8750Y27564D02*
X8680Y27550D01*
X8620Y27510D01*
X8580Y27450D01*
X8566Y27380D01*
X8580Y27310D01*
X8620Y27250D01*
X8680Y27210D01*
X8750Y27196D01*
X8820Y27210D01*
X8880Y27250D01*
X8920Y27310D01*
X8934Y27380D01*
X8920Y27450D01*
X8880Y27510D01*
X8820Y27550D01*
X8750Y27564D01*
D02*
G37*
%LPD*%
G36*
X21420Y29260D02*
X21371Y29250D01*
X21356Y29287D01*
X21287Y29377D01*
X21197Y29446D01*
X21092Y29489D01*
X20980Y29504D01*
X20868Y29489D01*
X20763Y29446D01*
X20673Y29377D01*
X20604Y29287D01*
X20561Y29182D01*
X20546Y29070D01*
X20561Y28958D01*
X20604Y28853D01*
X20673Y28763D01*
X20763Y28694D01*
X20868Y28651D01*
X20980Y28636D01*
X21092Y28651D01*
X21197Y28694D01*
X21287Y28763D01*
X21356Y28853D01*
X21371Y28890D01*
X21420Y28880D01*
Y27036D01*
X21376Y27012D01*
X21360Y27023D01*
X21280Y27039D01*
X21200Y27023D01*
X21132Y26978D01*
X20982Y26828D01*
X20937Y26760D01*
X20921Y26680D01*
X20921Y26680D01*
Y25817D01*
X20753Y25649D01*
X19775D01*
Y24091D01*
X20921D01*
Y23660D01*
X20921Y23660D01*
X20937Y23580D01*
X20982Y23512D01*
X21172Y23322D01*
X21240Y23277D01*
X21320Y23261D01*
X21381Y23273D01*
X21420Y23241D01*
Y21860D01*
X21371Y21850D01*
X21356Y21887D01*
X21287Y21977D01*
X21197Y22046D01*
X21092Y22089D01*
X21030Y22097D01*
Y21670D01*
Y21243D01*
X21092Y21251D01*
X21197Y21294D01*
X21287Y21363D01*
X21356Y21453D01*
X21371Y21490D01*
X21420Y21480D01*
Y20521D01*
X21290D01*
Y21150D01*
X20630D01*
Y21030D01*
X20600D01*
Y21030D01*
X17189D01*
Y20521D01*
X14880D01*
Y21900D01*
X10980D01*
Y25490D01*
X11310D01*
Y24920D01*
X12039D01*
Y25649D01*
X12048D01*
Y26694D01*
X11900D01*
Y27273D01*
X12739D01*
Y27948D01*
X12300Y28380D01*
Y29490D01*
X14044D01*
X14068Y29446D01*
X14050Y29420D01*
X14036Y29350D01*
X14050Y29280D01*
X14090Y29220D01*
X14150Y29180D01*
X14220Y29166D01*
X14290Y29180D01*
X14350Y29220D01*
X14390Y29280D01*
X14404Y29350D01*
X14390Y29420D01*
X14350Y29480D01*
X14353Y29490D01*
X14550D01*
Y30070D01*
X15117D01*
X15139Y30025D01*
X15102Y29976D01*
X15068Y29896D01*
X15057Y29812D01*
X15012Y29792D01*
X15005Y29796D01*
X14935Y29810D01*
X14865Y29796D01*
X14805Y29756D01*
X14765Y29697D01*
X14751Y29626D01*
X14765Y29556D01*
X14805Y29497D01*
X14865Y29457D01*
X14935Y29443D01*
X15005Y29457D01*
X15065Y29497D01*
X15104Y29556D01*
X15106Y29563D01*
X15155Y29575D01*
X15155Y29575D01*
X15224Y29522D01*
X15304Y29488D01*
X15390Y29477D01*
X15476Y29488D01*
X15556Y29522D01*
X15625Y29575D01*
X15678Y29644D01*
X15687Y29664D01*
X15736Y29670D01*
X15773Y29623D01*
X15830Y29578D01*
X15898Y29550D01*
X15920Y29547D01*
Y29820D01*
X15970D01*
Y29870D01*
X16243D01*
X16249Y29820D01*
X16245Y29788D01*
X16295D01*
X16300Y29748D01*
X16328Y29680D01*
X16373Y29623D01*
X16430Y29578D01*
X16498Y29550D01*
X16570Y29541D01*
X16642Y29550D01*
X16710Y29578D01*
X16767Y29623D01*
X16812Y29680D01*
X16840Y29748D01*
X16849Y29820D01*
X16840Y29892D01*
X16812Y29960D01*
X16767Y30017D01*
X16710Y30062D01*
X16711Y30070D01*
X18067D01*
X18099Y30031D01*
X18086Y29970D01*
X18100Y29900D01*
X18140Y29840D01*
X18200Y29800D01*
X18270Y29786D01*
X18340Y29800D01*
X18400Y29840D01*
X18440Y29900D01*
X18443Y29919D01*
X18493Y29914D01*
Y29573D01*
X20220D01*
Y29870D01*
X20320D01*
Y29573D01*
X21047D01*
Y30070D01*
X21420D01*
Y29260D01*
D02*
G37*
%LPC*%
G36*
X12039Y24820D02*
X11310D01*
Y24091D01*
X12039D01*
Y24820D01*
D02*
G37*
G36*
X12868D02*
X12139D01*
Y24091D01*
X12868D01*
Y24820D01*
D02*
G37*
G36*
X16720Y24094D02*
X16650Y24080D01*
X16590Y24040D01*
X16550Y23980D01*
X16536Y23910D01*
X16550Y23840D01*
X16590Y23780D01*
X16650Y23740D01*
X16720Y23726D01*
X16790Y23740D01*
X16850Y23780D01*
X16890Y23840D01*
X16904Y23910D01*
X16890Y23980D01*
X16850Y24040D01*
X16790Y24080D01*
X16720Y24094D01*
D02*
G37*
G36*
X18870Y24124D02*
X18800Y24110D01*
X18740Y24070D01*
X18700Y24010D01*
X18686Y23940D01*
X18700Y23870D01*
X18740Y23810D01*
X18800Y23770D01*
X18870Y23756D01*
X18940Y23770D01*
X19000Y23810D01*
X19040Y23870D01*
X19054Y23940D01*
X19040Y24010D01*
X19000Y24070D01*
X18940Y24110D01*
X18870Y24124D01*
D02*
G37*
G36*
X13910Y25134D02*
X13840Y25120D01*
X13780Y25080D01*
X13740Y25020D01*
X13726Y24950D01*
X13740Y24880D01*
X13780Y24820D01*
X13840Y24780D01*
X13910Y24766D01*
X13980Y24780D01*
X14040Y24820D01*
X14080Y24880D01*
X14094Y24950D01*
X14080Y25020D01*
X14040Y25080D01*
X13980Y25120D01*
X13910Y25134D01*
D02*
G37*
G36*
X18930Y25964D02*
X18860Y25950D01*
X18800Y25910D01*
X18760Y25850D01*
X18746Y25780D01*
X18760Y25710D01*
X18800Y25650D01*
X18860Y25610D01*
X18930Y25596D01*
X19000Y25610D01*
X19060Y25650D01*
X19093Y25700D01*
X19142Y25691D01*
X19150Y25650D01*
X19190Y25590D01*
X19250Y25550D01*
X19320Y25536D01*
X19390Y25550D01*
X19450Y25590D01*
X19490Y25650D01*
X19504Y25720D01*
X19490Y25790D01*
X19450Y25850D01*
X19390Y25890D01*
X19320Y25904D01*
X19250Y25890D01*
X19190Y25850D01*
X19157Y25800D01*
X19108Y25809D01*
X19100Y25850D01*
X19060Y25910D01*
X19000Y25950D01*
X18930Y25964D01*
D02*
G37*
G36*
X15180Y26014D02*
X15110Y26000D01*
X15050Y25960D01*
X15010Y25900D01*
X14996Y25830D01*
X15010Y25760D01*
X15050Y25700D01*
X15110Y25660D01*
X15180Y25646D01*
X15250Y25660D01*
X15310Y25700D01*
X15350Y25760D01*
X15364Y25830D01*
X15350Y25900D01*
X15310Y25960D01*
X15250Y26000D01*
X15180Y26014D01*
D02*
G37*
G36*
X12868Y25649D02*
X12139D01*
Y24920D01*
X12868D01*
Y25649D01*
D02*
G37*
G36*
X19210Y25294D02*
X19140Y25280D01*
X19080Y25240D01*
X19040Y25180D01*
X19026Y25110D01*
X19040Y25040D01*
X19080Y24980D01*
X19140Y24940D01*
X19210Y24926D01*
X19280Y24940D01*
X19340Y24980D01*
X19380Y25040D01*
X19394Y25110D01*
X19380Y25180D01*
X19340Y25240D01*
X19280Y25280D01*
X19210Y25294D01*
D02*
G37*
G36*
X20930Y22097D02*
X20868Y22089D01*
X20763Y22046D01*
X20673Y21977D01*
X20604Y21887D01*
X20561Y21782D01*
X20553Y21720D01*
X20930D01*
Y22097D01*
D02*
G37*
G36*
X19574Y22319D02*
X19504Y22305D01*
X19444Y22266D01*
X19405Y22206D01*
X19391Y22136D01*
X19405Y22066D01*
X19444Y22006D01*
X19504Y21966D01*
X19574Y21952D01*
X19644Y21966D01*
X19704Y22006D01*
X19744Y22066D01*
X19758Y22136D01*
X19744Y22206D01*
X19704Y22266D01*
X19644Y22305D01*
X19574Y22319D01*
D02*
G37*
G36*
X16480Y21374D02*
X16410Y21360D01*
X16350Y21320D01*
X16310Y21260D01*
X16296Y21190D01*
X16310Y21120D01*
X16350Y21060D01*
X16410Y21020D01*
X16480Y21006D01*
X16550Y21020D01*
X16610Y21060D01*
X16650Y21120D01*
X16664Y21190D01*
X16650Y21260D01*
X16610Y21320D01*
X16550Y21360D01*
X16480Y21374D01*
D02*
G37*
G36*
X20930Y21620D02*
X20553D01*
X20561Y21558D01*
X20604Y21453D01*
X20673Y21363D01*
X20763Y21294D01*
X20868Y21251D01*
X20930Y21243D01*
Y21620D01*
D02*
G37*
G36*
X18000Y22594D02*
X17930Y22580D01*
X17870Y22540D01*
X17830Y22480D01*
X17816Y22410D01*
X17830Y22340D01*
X17870Y22280D01*
X17930Y22240D01*
X18000Y22226D01*
X18070Y22240D01*
X18130Y22280D01*
X18170Y22340D01*
X18184Y22410D01*
X18170Y22480D01*
X18130Y22540D01*
X18070Y22580D01*
X18000Y22594D01*
D02*
G37*
G36*
X20200Y22884D02*
X20130Y22870D01*
X20070Y22830D01*
X20030Y22770D01*
X20016Y22700D01*
X20030Y22630D01*
X20070Y22570D01*
X20130Y22530D01*
X20200Y22516D01*
X20270Y22530D01*
X20330Y22570D01*
X20370Y22630D01*
X20384Y22700D01*
X20370Y22770D01*
X20330Y22830D01*
X20270Y22870D01*
X20200Y22884D01*
D02*
G37*
G36*
X13680Y23724D02*
X13610Y23710D01*
X13550Y23670D01*
X13510Y23610D01*
X13496Y23540D01*
X13510Y23470D01*
X13550Y23410D01*
X13610Y23370D01*
X13680Y23356D01*
X13750Y23370D01*
X13810Y23410D01*
X13850Y23470D01*
X13864Y23540D01*
X13850Y23610D01*
X13810Y23670D01*
X13750Y23710D01*
X13680Y23724D01*
D02*
G37*
G36*
X17000Y22754D02*
X16930Y22740D01*
X16870Y22700D01*
X16830Y22640D01*
X16816Y22570D01*
X16830Y22500D01*
X16870Y22440D01*
X16930Y22400D01*
X17000Y22386D01*
X17070Y22400D01*
X17130Y22440D01*
X17170Y22500D01*
X17184Y22570D01*
X17170Y22640D01*
X17130Y22700D01*
X17070Y22740D01*
X17000Y22754D01*
D02*
G37*
G36*
X18720Y22884D02*
X18650Y22870D01*
X18590Y22830D01*
X18550Y22770D01*
X18536Y22700D01*
X18550Y22630D01*
X18590Y22570D01*
X18650Y22530D01*
X18720Y22516D01*
X18790Y22530D01*
X18850Y22570D01*
X18890Y22630D01*
X18904Y22700D01*
X18890Y22770D01*
X18850Y22830D01*
X18790Y22870D01*
X18720Y22884D01*
D02*
G37*
G36*
X16330Y28214D02*
X16260Y28200D01*
X16200Y28160D01*
X16160Y28100D01*
X16146Y28030D01*
X16160Y27960D01*
X16200Y27900D01*
X16260Y27860D01*
X16330Y27846D01*
X16400Y27860D01*
X16406Y27864D01*
X16448Y27837D01*
X16446Y27830D01*
X16460Y27760D01*
X16500Y27700D01*
X16560Y27660D01*
X16630Y27646D01*
X16700Y27660D01*
X16760Y27700D01*
X16800Y27760D01*
X16814Y27830D01*
X16800Y27900D01*
X16760Y27960D01*
X16700Y28000D01*
X16630Y28014D01*
X16560Y28000D01*
X16554Y27996D01*
X16512Y28023D01*
X16514Y28030D01*
X16500Y28100D01*
X16460Y28160D01*
X16400Y28200D01*
X16330Y28214D01*
D02*
G37*
G36*
X17330Y28364D02*
X17260Y28350D01*
X17200Y28310D01*
X17160Y28250D01*
X17146Y28180D01*
X17160Y28110D01*
X17200Y28050D01*
X17260Y28010D01*
X17330Y27996D01*
X17400Y28010D01*
X17460Y28050D01*
X17500Y28110D01*
X17514Y28180D01*
X17500Y28250D01*
X17460Y28310D01*
X17400Y28350D01*
X17330Y28364D01*
D02*
G37*
G36*
Y27914D02*
X17260Y27900D01*
X17200Y27860D01*
X17160Y27800D01*
X17146Y27730D01*
X17160Y27660D01*
X17200Y27600D01*
X17260Y27560D01*
X17330Y27546D01*
X17400Y27560D01*
X17460Y27600D01*
X17500Y27660D01*
X17514Y27730D01*
X17500Y27800D01*
X17460Y27860D01*
X17400Y27900D01*
X17330Y27914D01*
D02*
G37*
G36*
X18420Y27954D02*
X18350Y27940D01*
X18290Y27900D01*
X18250Y27840D01*
X18236Y27770D01*
X18250Y27700D01*
X18290Y27640D01*
X18350Y27600D01*
X18420Y27586D01*
X18490Y27600D01*
X18550Y27640D01*
X18590Y27700D01*
X18604Y27770D01*
X18590Y27840D01*
X18550Y27900D01*
X18490Y27940D01*
X18420Y27954D01*
D02*
G37*
G36*
X15970Y28744D02*
X15900Y28730D01*
X15840Y28690D01*
X15800Y28630D01*
X15786Y28560D01*
X15800Y28490D01*
X15840Y28430D01*
X15900Y28390D01*
X15970Y28376D01*
X16040Y28390D01*
X16100Y28430D01*
X16140Y28490D01*
X16154Y28560D01*
X16140Y28630D01*
X16100Y28690D01*
X16040Y28730D01*
X15970Y28744D01*
D02*
G37*
G36*
X18980Y29414D02*
X18910Y29400D01*
X18850Y29360D01*
X18810Y29300D01*
X18796Y29230D01*
X18810Y29160D01*
X18850Y29100D01*
X18910Y29060D01*
X18980Y29046D01*
X19050Y29060D01*
X19110Y29100D01*
X19150Y29160D01*
X19164Y29230D01*
X19150Y29300D01*
X19110Y29360D01*
X19050Y29400D01*
X18980Y29414D01*
D02*
G37*
G36*
X16243Y29770D02*
X16020D01*
Y29547D01*
X16042Y29550D01*
X16110Y29578D01*
X16167Y29623D01*
X16212Y29680D01*
X16240Y29748D01*
X16243Y29770D01*
D02*
G37*
G36*
X14830Y28774D02*
X14760Y28760D01*
X14700Y28720D01*
X14660Y28660D01*
X14646Y28590D01*
X14660Y28520D01*
X14700Y28460D01*
X14760Y28420D01*
X14830Y28406D01*
X14900Y28420D01*
X14960Y28460D01*
X15000Y28520D01*
X15014Y28590D01*
X15000Y28660D01*
X14960Y28720D01*
X14900Y28760D01*
X14830Y28774D01*
D02*
G37*
G36*
X14220Y28784D02*
X14150Y28770D01*
X14090Y28730D01*
X14050Y28670D01*
X14036Y28600D01*
X14050Y28530D01*
X14090Y28470D01*
X14150Y28430D01*
X14220Y28416D01*
X14290Y28430D01*
X14350Y28470D01*
X14390Y28530D01*
X14404Y28600D01*
X14390Y28670D01*
X14350Y28730D01*
X14290Y28770D01*
X14220Y28784D01*
D02*
G37*
G36*
X18320Y26904D02*
X18250Y26890D01*
X18190Y26850D01*
X18150Y26790D01*
X18136Y26720D01*
X18150Y26650D01*
X18190Y26590D01*
X18250Y26550D01*
X18320Y26536D01*
X18390Y26550D01*
X18450Y26590D01*
X18490Y26650D01*
X18504Y26720D01*
X18490Y26790D01*
X18450Y26850D01*
X18390Y26890D01*
X18320Y26904D01*
D02*
G37*
G36*
X18220Y27354D02*
X18150Y27340D01*
X18090Y27300D01*
X18050Y27240D01*
X18036Y27170D01*
X18050Y27100D01*
X18090Y27040D01*
X18150Y27000D01*
X18220Y26986D01*
X18290Y27000D01*
X18350Y27040D01*
X18390Y27100D01*
X18404Y27170D01*
X18390Y27240D01*
X18350Y27300D01*
X18290Y27340D01*
X18220Y27354D01*
D02*
G37*
G36*
X13800Y26354D02*
X13730Y26340D01*
X13670Y26300D01*
X13630Y26240D01*
X13616Y26170D01*
X13630Y26100D01*
X13670Y26040D01*
X13730Y26000D01*
X13800Y25986D01*
X13870Y26000D01*
X13930Y26040D01*
X13970Y26100D01*
X13984Y26170D01*
X13970Y26240D01*
X13930Y26300D01*
X13870Y26340D01*
X13800Y26354D01*
D02*
G37*
G36*
X16553Y26771D02*
X16483Y26757D01*
X16423Y26717D01*
X16383Y26657D01*
X16369Y26587D01*
X16383Y26517D01*
X16423Y26457D01*
X16483Y26418D01*
X16553Y26404D01*
X16623Y26418D01*
X16683Y26457D01*
X16722Y26517D01*
X16736Y26587D01*
X16722Y26657D01*
X16683Y26717D01*
X16623Y26757D01*
X16553Y26771D01*
D02*
G37*
G36*
X17576Y27154D02*
X17506Y27140D01*
X17447Y27100D01*
X17407Y27040D01*
X17402Y27015D01*
X17356Y26996D01*
X17350Y27000D01*
X17280Y27014D01*
X17210Y27000D01*
X17150Y26960D01*
X17110Y26900D01*
X17096Y26830D01*
X17110Y26760D01*
X17150Y26700D01*
X17210Y26660D01*
X17280Y26646D01*
X17350Y26660D01*
X17410Y26700D01*
X17450Y26760D01*
X17455Y26785D01*
X17501Y26804D01*
X17506Y26800D01*
X17576Y26786D01*
X17647Y26800D01*
X17706Y26840D01*
X17746Y26900D01*
X17760Y26970D01*
X17746Y27040D01*
X17706Y27100D01*
X17647Y27140D01*
X17576Y27154D01*
D02*
G37*
G36*
X14840Y27634D02*
X14770Y27620D01*
X14710Y27580D01*
X14670Y27520D01*
X14656Y27450D01*
X14670Y27380D01*
X14710Y27320D01*
X14770Y27280D01*
X14840Y27266D01*
X14910Y27280D01*
X14970Y27320D01*
X15010Y27380D01*
X15024Y27450D01*
X15010Y27520D01*
X14970Y27580D01*
X14910Y27620D01*
X14840Y27634D01*
D02*
G37*
G36*
X20980Y27714D02*
X20910Y27700D01*
X20850Y27660D01*
X20810Y27600D01*
X20796Y27530D01*
X20810Y27460D01*
X20850Y27400D01*
X20910Y27360D01*
X20980Y27346D01*
X21050Y27360D01*
X21110Y27400D01*
X21150Y27460D01*
X21164Y27530D01*
X21150Y27600D01*
X21110Y27660D01*
X21050Y27700D01*
X20980Y27714D01*
D02*
G37*
G36*
X14140Y27494D02*
X14070Y27480D01*
X14010Y27440D01*
X13970Y27380D01*
X13956Y27310D01*
X13970Y27240D01*
X14010Y27180D01*
X14070Y27140D01*
X14140Y27126D01*
X14210Y27140D01*
X14270Y27180D01*
X14310Y27240D01*
X14324Y27310D01*
X14310Y27380D01*
X14270Y27440D01*
X14210Y27480D01*
X14140Y27494D01*
D02*
G37*
G36*
X20230Y27564D02*
X20160Y27550D01*
X20100Y27510D01*
X20060Y27450D01*
X20046Y27380D01*
X20060Y27310D01*
X20100Y27250D01*
X20160Y27210D01*
X20230Y27196D01*
X20300Y27210D01*
X20360Y27250D01*
X20400Y27310D01*
X20414Y27380D01*
X20400Y27450D01*
X20360Y27510D01*
X20300Y27550D01*
X20230Y27564D01*
D02*
G37*
%LPD*%
G36*
X32900Y29260D02*
X32851Y29250D01*
X32836Y29287D01*
X32767Y29377D01*
X32677Y29446D01*
X32572Y29489D01*
X32460Y29504D01*
X32348Y29489D01*
X32243Y29446D01*
X32153Y29377D01*
X32084Y29287D01*
X32041Y29182D01*
X32026Y29070D01*
X32041Y28958D01*
X32084Y28853D01*
X32153Y28763D01*
X32243Y28694D01*
X32348Y28651D01*
X32460Y28636D01*
X32572Y28651D01*
X32677Y28694D01*
X32767Y28763D01*
X32836Y28853D01*
X32851Y28890D01*
X32900Y28880D01*
Y27036D01*
X32856Y27012D01*
X32840Y27023D01*
X32760Y27039D01*
X32680Y27023D01*
X32612Y26978D01*
X32462Y26828D01*
X32417Y26760D01*
X32401Y26680D01*
X32401Y26680D01*
Y25817D01*
X32233Y25649D01*
X31255D01*
Y24091D01*
X32401D01*
Y23660D01*
X32401Y23660D01*
X32417Y23580D01*
X32462Y23512D01*
X32652Y23322D01*
X32720Y23277D01*
X32800Y23261D01*
X32861Y23273D01*
X32900Y23241D01*
Y21860D01*
X32851Y21850D01*
X32836Y21887D01*
X32767Y21977D01*
X32677Y22046D01*
X32572Y22089D01*
X32510Y22097D01*
Y21670D01*
Y21243D01*
X32572Y21251D01*
X32677Y21294D01*
X32767Y21363D01*
X32836Y21453D01*
X32851Y21490D01*
X32900Y21480D01*
Y20521D01*
X32770D01*
Y21150D01*
X32110D01*
Y21030D01*
X32080D01*
Y21030D01*
X28669D01*
Y20521D01*
X26360D01*
Y21900D01*
X22460D01*
Y25490D01*
X22790D01*
Y24920D01*
X23519D01*
Y25649D01*
X23528D01*
Y26694D01*
X23380D01*
Y27273D01*
X24219D01*
Y27948D01*
X23780Y28380D01*
Y29490D01*
X25524D01*
X25548Y29446D01*
X25530Y29420D01*
X25516Y29350D01*
X25530Y29280D01*
X25570Y29220D01*
X25630Y29180D01*
X25700Y29166D01*
X25770Y29180D01*
X25830Y29220D01*
X25870Y29280D01*
X25884Y29350D01*
X25870Y29420D01*
X25830Y29480D01*
X25833Y29490D01*
X26030D01*
Y30070D01*
X26597D01*
X26619Y30025D01*
X26582Y29976D01*
X26548Y29896D01*
X26537Y29812D01*
X26492Y29792D01*
X26485Y29796D01*
X26415Y29810D01*
X26345Y29796D01*
X26285Y29756D01*
X26245Y29697D01*
X26231Y29626D01*
X26245Y29556D01*
X26285Y29497D01*
X26345Y29457D01*
X26415Y29443D01*
X26485Y29457D01*
X26545Y29497D01*
X26584Y29556D01*
X26586Y29563D01*
X26635Y29575D01*
X26635Y29575D01*
X26704Y29522D01*
X26784Y29488D01*
X26870Y29477D01*
X26956Y29488D01*
X27036Y29522D01*
X27105Y29575D01*
X27158Y29644D01*
X27167Y29664D01*
X27216Y29670D01*
X27253Y29623D01*
X27310Y29578D01*
X27378Y29550D01*
X27400Y29547D01*
Y29820D01*
X27450D01*
Y29870D01*
X27723D01*
X27729Y29820D01*
X27725Y29788D01*
X27775D01*
X27780Y29748D01*
X27808Y29680D01*
X27853Y29623D01*
X27910Y29578D01*
X27978Y29550D01*
X28050Y29541D01*
X28122Y29550D01*
X28190Y29578D01*
X28247Y29623D01*
X28292Y29680D01*
X28320Y29748D01*
X28329Y29820D01*
X28320Y29892D01*
X28292Y29960D01*
X28247Y30017D01*
X28190Y30062D01*
X28191Y30070D01*
X29547D01*
X29579Y30031D01*
X29566Y29970D01*
X29580Y29900D01*
X29620Y29840D01*
X29680Y29800D01*
X29750Y29786D01*
X29820Y29800D01*
X29880Y29840D01*
X29920Y29900D01*
X29923Y29919D01*
X29973Y29914D01*
Y29573D01*
X31700D01*
Y29870D01*
X31800D01*
Y29573D01*
X32527D01*
Y30070D01*
X32900D01*
Y29260D01*
D02*
G37*
%LPC*%
G36*
X23519Y24820D02*
X22790D01*
Y24091D01*
X23519D01*
Y24820D01*
D02*
G37*
G36*
X24348D02*
X23619D01*
Y24091D01*
X24348D01*
Y24820D01*
D02*
G37*
G36*
X28200Y24094D02*
X28130Y24080D01*
X28070Y24040D01*
X28030Y23980D01*
X28016Y23910D01*
X28030Y23840D01*
X28070Y23780D01*
X28130Y23740D01*
X28200Y23726D01*
X28270Y23740D01*
X28330Y23780D01*
X28370Y23840D01*
X28384Y23910D01*
X28370Y23980D01*
X28330Y24040D01*
X28270Y24080D01*
X28200Y24094D01*
D02*
G37*
G36*
X30350Y24124D02*
X30280Y24110D01*
X30220Y24070D01*
X30180Y24010D01*
X30166Y23940D01*
X30180Y23870D01*
X30220Y23810D01*
X30280Y23770D01*
X30350Y23756D01*
X30420Y23770D01*
X30480Y23810D01*
X30520Y23870D01*
X30534Y23940D01*
X30520Y24010D01*
X30480Y24070D01*
X30420Y24110D01*
X30350Y24124D01*
D02*
G37*
G36*
X25390Y25134D02*
X25320Y25120D01*
X25260Y25080D01*
X25220Y25020D01*
X25206Y24950D01*
X25220Y24880D01*
X25260Y24820D01*
X25320Y24780D01*
X25390Y24766D01*
X25460Y24780D01*
X25520Y24820D01*
X25560Y24880D01*
X25574Y24950D01*
X25560Y25020D01*
X25520Y25080D01*
X25460Y25120D01*
X25390Y25134D01*
D02*
G37*
G36*
X30410Y25964D02*
X30340Y25950D01*
X30280Y25910D01*
X30240Y25850D01*
X30226Y25780D01*
X30240Y25710D01*
X30280Y25650D01*
X30340Y25610D01*
X30410Y25596D01*
X30480Y25610D01*
X30540Y25650D01*
X30573Y25700D01*
X30622Y25691D01*
X30630Y25650D01*
X30670Y25590D01*
X30730Y25550D01*
X30800Y25536D01*
X30870Y25550D01*
X30930Y25590D01*
X30970Y25650D01*
X30984Y25720D01*
X30970Y25790D01*
X30930Y25850D01*
X30870Y25890D01*
X30800Y25904D01*
X30730Y25890D01*
X30670Y25850D01*
X30637Y25800D01*
X30588Y25809D01*
X30580Y25850D01*
X30540Y25910D01*
X30480Y25950D01*
X30410Y25964D01*
D02*
G37*
G36*
X26660Y26014D02*
X26590Y26000D01*
X26530Y25960D01*
X26490Y25900D01*
X26476Y25830D01*
X26490Y25760D01*
X26530Y25700D01*
X26590Y25660D01*
X26660Y25646D01*
X26730Y25660D01*
X26790Y25700D01*
X26830Y25760D01*
X26844Y25830D01*
X26830Y25900D01*
X26790Y25960D01*
X26730Y26000D01*
X26660Y26014D01*
D02*
G37*
G36*
X24348Y25649D02*
X23619D01*
Y24920D01*
X24348D01*
Y25649D01*
D02*
G37*
G36*
X30690Y25294D02*
X30620Y25280D01*
X30560Y25240D01*
X30520Y25180D01*
X30506Y25110D01*
X30520Y25040D01*
X30560Y24980D01*
X30620Y24940D01*
X30690Y24926D01*
X30760Y24940D01*
X30820Y24980D01*
X30860Y25040D01*
X30874Y25110D01*
X30860Y25180D01*
X30820Y25240D01*
X30760Y25280D01*
X30690Y25294D01*
D02*
G37*
G36*
X32410Y22097D02*
X32348Y22089D01*
X32243Y22046D01*
X32153Y21977D01*
X32084Y21887D01*
X32041Y21782D01*
X32033Y21720D01*
X32410D01*
Y22097D01*
D02*
G37*
G36*
X31054Y22319D02*
X30984Y22305D01*
X30924Y22266D01*
X30885Y22206D01*
X30871Y22136D01*
X30885Y22066D01*
X30924Y22006D01*
X30984Y21966D01*
X31054Y21952D01*
X31124Y21966D01*
X31184Y22006D01*
X31224Y22066D01*
X31238Y22136D01*
X31224Y22206D01*
X31184Y22266D01*
X31124Y22305D01*
X31054Y22319D01*
D02*
G37*
G36*
X27960Y21374D02*
X27890Y21360D01*
X27830Y21320D01*
X27790Y21260D01*
X27776Y21190D01*
X27790Y21120D01*
X27830Y21060D01*
X27890Y21020D01*
X27960Y21006D01*
X28030Y21020D01*
X28090Y21060D01*
X28130Y21120D01*
X28144Y21190D01*
X28130Y21260D01*
X28090Y21320D01*
X28030Y21360D01*
X27960Y21374D01*
D02*
G37*
G36*
X32410Y21620D02*
X32033D01*
X32041Y21558D01*
X32084Y21453D01*
X32153Y21363D01*
X32243Y21294D01*
X32348Y21251D01*
X32410Y21243D01*
Y21620D01*
D02*
G37*
G36*
X29480Y22594D02*
X29410Y22580D01*
X29350Y22540D01*
X29310Y22480D01*
X29296Y22410D01*
X29310Y22340D01*
X29350Y22280D01*
X29410Y22240D01*
X29480Y22226D01*
X29550Y22240D01*
X29610Y22280D01*
X29650Y22340D01*
X29664Y22410D01*
X29650Y22480D01*
X29610Y22540D01*
X29550Y22580D01*
X29480Y22594D01*
D02*
G37*
G36*
X31680Y22884D02*
X31610Y22870D01*
X31550Y22830D01*
X31510Y22770D01*
X31496Y22700D01*
X31510Y22630D01*
X31550Y22570D01*
X31610Y22530D01*
X31680Y22516D01*
X31750Y22530D01*
X31810Y22570D01*
X31850Y22630D01*
X31864Y22700D01*
X31850Y22770D01*
X31810Y22830D01*
X31750Y22870D01*
X31680Y22884D01*
D02*
G37*
G36*
X25160Y23724D02*
X25090Y23710D01*
X25030Y23670D01*
X24990Y23610D01*
X24976Y23540D01*
X24990Y23470D01*
X25030Y23410D01*
X25090Y23370D01*
X25160Y23356D01*
X25230Y23370D01*
X25290Y23410D01*
X25330Y23470D01*
X25344Y23540D01*
X25330Y23610D01*
X25290Y23670D01*
X25230Y23710D01*
X25160Y23724D01*
D02*
G37*
G36*
X28480Y22754D02*
X28410Y22740D01*
X28350Y22700D01*
X28310Y22640D01*
X28296Y22570D01*
X28310Y22500D01*
X28350Y22440D01*
X28410Y22400D01*
X28480Y22386D01*
X28550Y22400D01*
X28610Y22440D01*
X28650Y22500D01*
X28664Y22570D01*
X28650Y22640D01*
X28610Y22700D01*
X28550Y22740D01*
X28480Y22754D01*
D02*
G37*
G36*
X30200Y22884D02*
X30130Y22870D01*
X30070Y22830D01*
X30030Y22770D01*
X30016Y22700D01*
X30030Y22630D01*
X30070Y22570D01*
X30130Y22530D01*
X30200Y22516D01*
X30270Y22530D01*
X30330Y22570D01*
X30370Y22630D01*
X30384Y22700D01*
X30370Y22770D01*
X30330Y22830D01*
X30270Y22870D01*
X30200Y22884D01*
D02*
G37*
G36*
X27810Y28214D02*
X27740Y28200D01*
X27680Y28160D01*
X27640Y28100D01*
X27626Y28030D01*
X27640Y27960D01*
X27680Y27900D01*
X27740Y27860D01*
X27810Y27846D01*
X27880Y27860D01*
X27886Y27864D01*
X27928Y27837D01*
X27926Y27830D01*
X27940Y27760D01*
X27980Y27700D01*
X28040Y27660D01*
X28110Y27646D01*
X28180Y27660D01*
X28240Y27700D01*
X28280Y27760D01*
X28294Y27830D01*
X28280Y27900D01*
X28240Y27960D01*
X28180Y28000D01*
X28110Y28014D01*
X28040Y28000D01*
X28034Y27996D01*
X27992Y28023D01*
X27994Y28030D01*
X27980Y28100D01*
X27940Y28160D01*
X27880Y28200D01*
X27810Y28214D01*
D02*
G37*
G36*
X28810Y28364D02*
X28740Y28350D01*
X28680Y28310D01*
X28640Y28250D01*
X28626Y28180D01*
X28640Y28110D01*
X28680Y28050D01*
X28740Y28010D01*
X28810Y27996D01*
X28880Y28010D01*
X28940Y28050D01*
X28980Y28110D01*
X28994Y28180D01*
X28980Y28250D01*
X28940Y28310D01*
X28880Y28350D01*
X28810Y28364D01*
D02*
G37*
G36*
Y27914D02*
X28740Y27900D01*
X28680Y27860D01*
X28640Y27800D01*
X28626Y27730D01*
X28640Y27660D01*
X28680Y27600D01*
X28740Y27560D01*
X28810Y27546D01*
X28880Y27560D01*
X28940Y27600D01*
X28980Y27660D01*
X28994Y27730D01*
X28980Y27800D01*
X28940Y27860D01*
X28880Y27900D01*
X28810Y27914D01*
D02*
G37*
G36*
X29900Y27954D02*
X29830Y27940D01*
X29770Y27900D01*
X29730Y27840D01*
X29716Y27770D01*
X29730Y27700D01*
X29770Y27640D01*
X29830Y27600D01*
X29900Y27586D01*
X29970Y27600D01*
X30030Y27640D01*
X30070Y27700D01*
X30084Y27770D01*
X30070Y27840D01*
X30030Y27900D01*
X29970Y27940D01*
X29900Y27954D01*
D02*
G37*
G36*
X27450Y28744D02*
X27380Y28730D01*
X27320Y28690D01*
X27280Y28630D01*
X27266Y28560D01*
X27280Y28490D01*
X27320Y28430D01*
X27380Y28390D01*
X27450Y28376D01*
X27520Y28390D01*
X27580Y28430D01*
X27620Y28490D01*
X27634Y28560D01*
X27620Y28630D01*
X27580Y28690D01*
X27520Y28730D01*
X27450Y28744D01*
D02*
G37*
G36*
X30460Y29414D02*
X30390Y29400D01*
X30330Y29360D01*
X30290Y29300D01*
X30276Y29230D01*
X30290Y29160D01*
X30330Y29100D01*
X30390Y29060D01*
X30460Y29046D01*
X30530Y29060D01*
X30590Y29100D01*
X30630Y29160D01*
X30644Y29230D01*
X30630Y29300D01*
X30590Y29360D01*
X30530Y29400D01*
X30460Y29414D01*
D02*
G37*
G36*
X27723Y29770D02*
X27500D01*
Y29547D01*
X27522Y29550D01*
X27590Y29578D01*
X27647Y29623D01*
X27692Y29680D01*
X27720Y29748D01*
X27723Y29770D01*
D02*
G37*
G36*
X26310Y28774D02*
X26240Y28760D01*
X26180Y28720D01*
X26140Y28660D01*
X26126Y28590D01*
X26140Y28520D01*
X26180Y28460D01*
X26240Y28420D01*
X26310Y28406D01*
X26380Y28420D01*
X26440Y28460D01*
X26480Y28520D01*
X26494Y28590D01*
X26480Y28660D01*
X26440Y28720D01*
X26380Y28760D01*
X26310Y28774D01*
D02*
G37*
G36*
X25700Y28784D02*
X25630Y28770D01*
X25570Y28730D01*
X25530Y28670D01*
X25516Y28600D01*
X25530Y28530D01*
X25570Y28470D01*
X25630Y28430D01*
X25700Y28416D01*
X25770Y28430D01*
X25830Y28470D01*
X25870Y28530D01*
X25884Y28600D01*
X25870Y28670D01*
X25830Y28730D01*
X25770Y28770D01*
X25700Y28784D01*
D02*
G37*
G36*
X29800Y26904D02*
X29730Y26890D01*
X29670Y26850D01*
X29630Y26790D01*
X29616Y26720D01*
X29630Y26650D01*
X29670Y26590D01*
X29730Y26550D01*
X29800Y26536D01*
X29870Y26550D01*
X29930Y26590D01*
X29970Y26650D01*
X29984Y26720D01*
X29970Y26790D01*
X29930Y26850D01*
X29870Y26890D01*
X29800Y26904D01*
D02*
G37*
G36*
X29700Y27354D02*
X29630Y27340D01*
X29570Y27300D01*
X29530Y27240D01*
X29516Y27170D01*
X29530Y27100D01*
X29570Y27040D01*
X29630Y27000D01*
X29700Y26986D01*
X29770Y27000D01*
X29830Y27040D01*
X29870Y27100D01*
X29884Y27170D01*
X29870Y27240D01*
X29830Y27300D01*
X29770Y27340D01*
X29700Y27354D01*
D02*
G37*
G36*
X25280Y26354D02*
X25210Y26340D01*
X25150Y26300D01*
X25110Y26240D01*
X25096Y26170D01*
X25110Y26100D01*
X25150Y26040D01*
X25210Y26000D01*
X25280Y25986D01*
X25350Y26000D01*
X25410Y26040D01*
X25450Y26100D01*
X25464Y26170D01*
X25450Y26240D01*
X25410Y26300D01*
X25350Y26340D01*
X25280Y26354D01*
D02*
G37*
G36*
X28033Y26771D02*
X27963Y26757D01*
X27903Y26717D01*
X27863Y26657D01*
X27849Y26587D01*
X27863Y26517D01*
X27903Y26457D01*
X27963Y26418D01*
X28033Y26404D01*
X28103Y26418D01*
X28163Y26457D01*
X28202Y26517D01*
X28216Y26587D01*
X28202Y26657D01*
X28163Y26717D01*
X28103Y26757D01*
X28033Y26771D01*
D02*
G37*
G36*
X29056Y27154D02*
X28986Y27140D01*
X28927Y27100D01*
X28887Y27040D01*
X28882Y27015D01*
X28836Y26996D01*
X28830Y27000D01*
X28760Y27014D01*
X28690Y27000D01*
X28630Y26960D01*
X28590Y26900D01*
X28576Y26830D01*
X28590Y26760D01*
X28630Y26700D01*
X28690Y26660D01*
X28760Y26646D01*
X28830Y26660D01*
X28890Y26700D01*
X28930Y26760D01*
X28935Y26785D01*
X28981Y26804D01*
X28986Y26800D01*
X29056Y26786D01*
X29127Y26800D01*
X29186Y26840D01*
X29226Y26900D01*
X29240Y26970D01*
X29226Y27040D01*
X29186Y27100D01*
X29127Y27140D01*
X29056Y27154D01*
D02*
G37*
G36*
X26320Y27634D02*
X26250Y27620D01*
X26190Y27580D01*
X26150Y27520D01*
X26136Y27450D01*
X26150Y27380D01*
X26190Y27320D01*
X26250Y27280D01*
X26320Y27266D01*
X26390Y27280D01*
X26450Y27320D01*
X26490Y27380D01*
X26504Y27450D01*
X26490Y27520D01*
X26450Y27580D01*
X26390Y27620D01*
X26320Y27634D01*
D02*
G37*
G36*
X32460Y27714D02*
X32390Y27700D01*
X32330Y27660D01*
X32290Y27600D01*
X32276Y27530D01*
X32290Y27460D01*
X32330Y27400D01*
X32390Y27360D01*
X32460Y27346D01*
X32530Y27360D01*
X32590Y27400D01*
X32630Y27460D01*
X32644Y27530D01*
X32630Y27600D01*
X32590Y27660D01*
X32530Y27700D01*
X32460Y27714D01*
D02*
G37*
G36*
X25620Y27494D02*
X25550Y27480D01*
X25490Y27440D01*
X25450Y27380D01*
X25436Y27310D01*
X25450Y27240D01*
X25490Y27180D01*
X25550Y27140D01*
X25620Y27126D01*
X25690Y27140D01*
X25750Y27180D01*
X25790Y27240D01*
X25804Y27310D01*
X25790Y27380D01*
X25750Y27440D01*
X25690Y27480D01*
X25620Y27494D01*
D02*
G37*
G36*
X31710Y27564D02*
X31640Y27550D01*
X31580Y27510D01*
X31540Y27450D01*
X31526Y27380D01*
X31540Y27310D01*
X31580Y27250D01*
X31640Y27210D01*
X31710Y27196D01*
X31780Y27210D01*
X31840Y27250D01*
X31880Y27310D01*
X31894Y27380D01*
X31880Y27450D01*
X31840Y27510D01*
X31780Y27550D01*
X31710Y27564D01*
D02*
G37*
%LPD*%
D10*
X3910Y8630D02*
D03*
X15390D02*
D03*
X26870D02*
D03*
X3910Y19220D02*
D03*
X15390D02*
D03*
X26870D02*
D03*
X3910Y29810D02*
D03*
X15390D02*
D03*
X26870D02*
D03*
D11*
X19000Y-20860D02*
Y-21500D01*
Y-20860D02*
X19274D01*
X19366Y-20891D01*
X19396Y-20921D01*
X19427Y-20982D01*
Y-21043D01*
X19396Y-21104D01*
X19366Y-21134D01*
X19274Y-21165D01*
X19000D02*
X19274D01*
X19366Y-21195D01*
X19396Y-21226D01*
X19427Y-21287D01*
Y-21378D01*
X19396Y-21439D01*
X19366Y-21470D01*
X19274Y-21500D01*
X19000D01*
X19722Y-21073D02*
X19661Y-21104D01*
X19600Y-21165D01*
X19570Y-21256D01*
Y-21317D01*
X19600Y-21409D01*
X19661Y-21470D01*
X19722Y-21500D01*
X19814D01*
X19874Y-21470D01*
X19935Y-21409D01*
X19966Y-21317D01*
Y-21256D01*
X19935Y-21165D01*
X19874Y-21104D01*
X19814Y-21073D01*
X19722D01*
X20197Y-20860D02*
Y-21378D01*
X20228Y-21470D01*
X20289Y-21500D01*
X20350D01*
X20106Y-21073D02*
X20319D01*
X20533Y-20860D02*
Y-21378D01*
X20563Y-21470D01*
X20624Y-21500D01*
X20685D01*
X20441Y-21073D02*
X20654D01*
X20929D02*
X20868Y-21104D01*
X20807Y-21165D01*
X20776Y-21256D01*
Y-21317D01*
X20807Y-21409D01*
X20868Y-21470D01*
X20929Y-21500D01*
X21020D01*
X21081Y-21470D01*
X21142Y-21409D01*
X21172Y-21317D01*
Y-21256D01*
X21142Y-21165D01*
X21081Y-21104D01*
X21020Y-21073D01*
X20929D01*
X21313D02*
Y-21500D01*
Y-21195D02*
X21404Y-21104D01*
X21465Y-21073D01*
X21556D01*
X21617Y-21104D01*
X21648Y-21195D01*
Y-21500D01*
Y-21195D02*
X21739Y-21104D01*
X21800Y-21073D01*
X21892D01*
X21953Y-21104D01*
X21983Y-21195D01*
Y-21500D01*
X22184Y-20860D02*
Y-21500D01*
X22550D01*
X22985Y-21073D02*
Y-21500D01*
Y-21165D02*
X22924Y-21104D01*
X22864Y-21073D01*
X22772D01*
X22711Y-21104D01*
X22650Y-21165D01*
X22620Y-21256D01*
Y-21317D01*
X22650Y-21409D01*
X22711Y-21470D01*
X22772Y-21500D01*
X22864D01*
X22924Y-21470D01*
X22985Y-21409D01*
X23187Y-21073D02*
X23369Y-21500D01*
X23552Y-21073D02*
X23369Y-21500D01*
X23308Y-21622D01*
X23247Y-21683D01*
X23187Y-21713D01*
X23156D01*
X23659Y-21256D02*
X24024D01*
Y-21195D01*
X23994Y-21134D01*
X23964Y-21104D01*
X23903Y-21073D01*
X23811D01*
X23750Y-21104D01*
X23689Y-21165D01*
X23659Y-21256D01*
Y-21317D01*
X23689Y-21409D01*
X23750Y-21470D01*
X23811Y-21500D01*
X23903D01*
X23964Y-21470D01*
X24024Y-21409D01*
X24162Y-21073D02*
Y-21500D01*
Y-21256D02*
X24192Y-21165D01*
X24253Y-21104D01*
X24314Y-21073D01*
X24405D01*
X14409Y-20782D02*
G03*
X13909Y-20282I-500J0D01*
G01*
X13921Y-22282D02*
G03*
X14409Y-21785I8J480D01*
G01*
X15409Y-20282D02*
G03*
X14909Y-20782I0J-500D01*
G01*
Y-21782D02*
G03*
X15400Y-22282I500J0D01*
G01*
X32659Y-20782D02*
G03*
X32159Y-20282I-500J0D01*
G01*
X32171Y-22282D02*
G03*
X32659Y-21785I8J480D01*
G01*
X33159Y-21792D02*
G03*
X33658Y-22282I490J0D01*
G01*
X33659Y-20282D02*
G03*
X33159Y-20782I0J-500D01*
G01*
X5159Y-13272D02*
G03*
X4669Y-12782I-490J0D01*
G01*
X4679Y-16032D02*
G03*
X5159Y-15552I0J480D01*
G01*
Y-17022D02*
G03*
X4652Y-16532I-490J0D01*
G01*
X5659Y-16542D02*
G03*
X6149Y-17032I490J0D01*
G01*
X5659Y-19292D02*
G03*
X6149Y-19782I490J0D01*
G01*
X4669D02*
G03*
X5159Y-19292I0J490D01*
G01*
X22659Y-18022D02*
G03*
X22169Y-17532I-490J0D01*
G01*
Y-19782D02*
G03*
X22659Y-19283I0J490D01*
G01*
X23159Y-19272D02*
G03*
X23660Y-19782I510J0D01*
G01*
X23639Y-17532D02*
G03*
X23160Y-18037I0J-480D01*
G01*
X6159Y-17532D02*
G03*
X5659Y-18032I0J-500D01*
G01*
X6159Y-12782D02*
G03*
X5659Y-13282I0J-500D01*
G01*
X-3341Y-19282D02*
G03*
X-2850Y-19782I500J0D01*
G01*
X-2841Y-16532D02*
G03*
X-3341Y-17032I0J-500D01*
G01*
Y-15532D02*
G03*
X-2841Y-16032I500J0D01*
G01*
Y-12782D02*
G03*
X-3341Y-13282I0J-500D01*
G01*
Y-11782D02*
G03*
X-2841Y-12282I500J0D01*
G01*
Y-10282D02*
G03*
X-3341Y-10782I0J-500D01*
G01*
X27159D02*
G03*
X26659Y-10282I-500J0D01*
G01*
X28159D02*
G03*
X27659Y-10782I0J-500D01*
G01*
X26659Y-12282D02*
G03*
X27159Y-11782I0J500D01*
G01*
Y-13282D02*
G03*
X26659Y-12782I-500J0D01*
G01*
X-2841Y-20282D02*
G03*
X-3341Y-20782I0J-500D01*
G01*
X26668Y-17032D02*
G03*
X27159Y-16532I-9J500D01*
G01*
X-3341Y-21782D02*
G03*
X-2850Y-22282I500J0D01*
G01*
X27159Y-18022D02*
G03*
X26669Y-17532I-490J0D01*
G01*
X27659Y-19292D02*
G03*
X28158Y-19782I490J0D01*
G01*
X26659Y-19782D02*
G03*
X27159Y-19282I0J500D01*
G01*
X39159Y-22282D02*
G03*
X39659Y-21782I0J500D01*
G01*
X39659Y-20773D02*
G03*
X39159Y-20282I-500J-9D01*
G01*
Y-19782D02*
G03*
X39659Y-19282I0J500D01*
G01*
Y-10772D02*
G03*
X39152Y-10282I-490J0D01*
G01*
X40159Y-10782D02*
G03*
X39159Y-9782I-1000J0D01*
G01*
Y-22782D02*
G03*
X40159Y-21782I0J1000D01*
G01*
X-3841Y-21772D02*
G03*
X-2848Y-22782I1010J0D01*
G01*
X-2841Y-9782D02*
G03*
X-3841Y-10782I0J-1000D01*
G01*
X27659Y-16532D02*
G03*
X28159Y-17032I500J0D01*
G01*
X39159D02*
G03*
X39659Y-16532I0J500D01*
G01*
X28159Y-17532D02*
G03*
X27659Y-18032I0J-500D01*
G01*
X39659Y-18022D02*
G03*
X39169Y-17532I-490J0D01*
G01*
X15409Y-22282D02*
X32159D01*
X-2841D02*
X13909D01*
X-2841Y-20282D02*
X13909D01*
X15409D02*
X32159D01*
X33659Y-22282D02*
X39159D01*
X33659Y-20282D02*
X39159D01*
X-2841Y-10282D02*
X26659D01*
X-2841Y-22782D02*
X39159D01*
X-2841Y-9782D02*
X39159D01*
X-2841Y-19782D02*
X4659D01*
X-2841Y-16532D02*
X4659D01*
X-2841Y-16032D02*
X4659D01*
X-2841Y-12782D02*
X4659D01*
X-2841Y-12282D02*
X26659D01*
X6159Y-12782D02*
X26659D01*
X6159Y-17532D02*
X22159D01*
X6159Y-19782D02*
X22159D01*
X23659D02*
X26659D01*
X23659Y-17532D02*
X26659D01*
X28159Y-19782D02*
X39159D01*
X28159Y-10282D02*
X39159D01*
X6159Y-17032D02*
X26659D01*
X28159D02*
X39159D01*
X28159Y-17532D02*
X39159D01*
X14409Y-21782D02*
Y-20782D01*
X14909Y-21782D02*
Y-20782D01*
X32659Y-21782D02*
Y-20782D01*
X33159Y-21782D02*
Y-20782D01*
X40159Y-21782D02*
Y-10782D01*
X-3341Y-19282D02*
Y-17032D01*
X5159Y-19282D02*
Y-17032D01*
X-3341Y-15532D02*
Y-13282D01*
X5159Y-15532D02*
Y-13282D01*
X-3341Y-11782D02*
Y-10782D01*
X27159Y-11782D02*
Y-10782D01*
Y-16532D02*
Y-13282D01*
X5659Y-16532D02*
Y-13282D01*
X22659Y-19282D02*
Y-18032D01*
X5659Y-19282D02*
Y-18032D01*
X23159Y-19282D02*
Y-18032D01*
X27159Y-19282D02*
Y-18032D01*
X39659Y-21782D02*
Y-20782D01*
X-3341Y-21782D02*
Y-20782D01*
X-3841Y-21782D02*
Y-10782D01*
X27659Y-16532D02*
Y-10782D01*
X39659Y-16532D02*
Y-10782D01*
X27659Y-19282D02*
Y-18032D01*
X39659Y-19282D02*
Y-18022D01*
X29810Y-14420D02*
Y-15060D01*
Y-14420D02*
X30084D01*
X30176Y-14451D01*
X30206Y-14481D01*
X30237Y-14542D01*
Y-14603D01*
X30206Y-14664D01*
X30176Y-14694D01*
X30084Y-14725D01*
X29810D02*
X30084D01*
X30176Y-14755D01*
X30206Y-14786D01*
X30237Y-14847D01*
Y-14938D01*
X30206Y-14999D01*
X30176Y-15030D01*
X30084Y-15060D01*
X29810D01*
X30532Y-14633D02*
X30471Y-14664D01*
X30410Y-14725D01*
X30380Y-14816D01*
Y-14877D01*
X30410Y-14969D01*
X30471Y-15030D01*
X30532Y-15060D01*
X30624D01*
X30684Y-15030D01*
X30745Y-14969D01*
X30776Y-14877D01*
Y-14816D01*
X30745Y-14725D01*
X30684Y-14664D01*
X30624Y-14633D01*
X30532D01*
X31282Y-14725D02*
X31221Y-14664D01*
X31160Y-14633D01*
X31068D01*
X31007Y-14664D01*
X30947Y-14725D01*
X30916Y-14816D01*
Y-14877D01*
X30947Y-14969D01*
X31007Y-15030D01*
X31068Y-15060D01*
X31160D01*
X31221Y-15030D01*
X31282Y-14969D01*
X31784Y-14633D02*
Y-15060D01*
Y-14725D02*
X31723Y-14664D01*
X31663Y-14633D01*
X31571D01*
X31510Y-14664D01*
X31449Y-14725D01*
X31419Y-14816D01*
Y-14877D01*
X31449Y-14969D01*
X31510Y-15030D01*
X31571Y-15060D01*
X31663D01*
X31723Y-15030D01*
X31784Y-14969D01*
X32458Y-14420D02*
Y-15060D01*
Y-14420D02*
X32732D01*
X32823Y-14451D01*
X32854Y-14481D01*
X32884Y-14542D01*
Y-14603D01*
X32854Y-14664D01*
X32823Y-14694D01*
X32732Y-14725D01*
X32458D01*
X32671D02*
X32884Y-15060D01*
X33393Y-14633D02*
Y-15060D01*
Y-14725D02*
X33332Y-14664D01*
X33271Y-14633D01*
X33180D01*
X33119Y-14664D01*
X33058Y-14725D01*
X33028Y-14816D01*
Y-14877D01*
X33058Y-14969D01*
X33119Y-15030D01*
X33180Y-15060D01*
X33271D01*
X33332Y-15030D01*
X33393Y-14969D01*
X33655Y-14420D02*
Y-14938D01*
X33686Y-15030D01*
X33747Y-15060D01*
X33808D01*
X33564Y-14633D02*
X33777D01*
X34051D02*
X33990Y-14664D01*
X33930Y-14725D01*
X33899Y-14816D01*
Y-14877D01*
X33930Y-14969D01*
X33990Y-15030D01*
X34051Y-15060D01*
X34143D01*
X34204Y-15030D01*
X34265Y-14969D01*
X34295Y-14877D01*
Y-14816D01*
X34265Y-14725D01*
X34204Y-14664D01*
X34143Y-14633D01*
X34051D01*
X34435D02*
Y-15060D01*
Y-14755D02*
X34527Y-14664D01*
X34588Y-14633D01*
X34679D01*
X34740Y-14664D01*
X34770Y-14755D01*
Y-15060D01*
X35441Y-14420D02*
Y-15060D01*
Y-14420D02*
X35837D01*
X35441Y-14725D02*
X35685D01*
X35910Y-14420D02*
Y-15060D01*
X36276D01*
X36376Y-14999D02*
X36346Y-15030D01*
X36376Y-15060D01*
X36407Y-15030D01*
X36376Y-14999D01*
X29346Y-12663D02*
X29316Y-12755D01*
X29255Y-12816D01*
X29163Y-12846D01*
X29133D01*
X29041Y-12816D01*
X28980Y-12755D01*
X28950Y-12663D01*
Y-12633D01*
X28980Y-12542D01*
X29041Y-12481D01*
X29133Y-12450D01*
X29163D01*
X29255Y-12481D01*
X29316Y-12542D01*
X29346Y-12663D01*
Y-12816D01*
X29316Y-12968D01*
X29255Y-13060D01*
X29163Y-13090D01*
X29102D01*
X29011Y-13060D01*
X28980Y-12999D01*
X29703Y-12450D02*
X29611Y-12481D01*
X29550Y-12572D01*
X29520Y-12724D01*
Y-12816D01*
X29550Y-12968D01*
X29611Y-13060D01*
X29703Y-13090D01*
X29764D01*
X29855Y-13060D01*
X29916Y-12968D01*
X29946Y-12816D01*
Y-12724D01*
X29916Y-12572D01*
X29855Y-12481D01*
X29764Y-12450D01*
X29703D01*
X30120Y-12602D02*
Y-12572D01*
X30150Y-12511D01*
X30181Y-12481D01*
X30242Y-12450D01*
X30364D01*
X30425Y-12481D01*
X30455Y-12511D01*
X30486Y-12572D01*
Y-12633D01*
X30455Y-12694D01*
X30394Y-12785D01*
X30090Y-13090D01*
X30516D01*
X31619Y-12602D02*
X31589Y-12542D01*
X31528Y-12481D01*
X31467Y-12450D01*
X31345D01*
X31284Y-12481D01*
X31223Y-12542D01*
X31193Y-12602D01*
X31162Y-12694D01*
Y-12846D01*
X31193Y-12938D01*
X31223Y-12999D01*
X31284Y-13060D01*
X31345Y-13090D01*
X31467D01*
X31528Y-13060D01*
X31589Y-12999D01*
X31619Y-12938D01*
X31799Y-12450D02*
Y-13090D01*
X31994Y-12450D02*
X32024Y-12481D01*
X32055Y-12450D01*
X32024Y-12420D01*
X31994Y-12450D01*
X32024Y-12663D02*
Y-13090D01*
X32168Y-12663D02*
Y-13090D01*
Y-12785D02*
X32259Y-12694D01*
X32320Y-12663D01*
X32411D01*
X32472Y-12694D01*
X32503Y-12785D01*
Y-13090D01*
X32762Y-12450D02*
Y-12968D01*
X32792Y-13060D01*
X32853Y-13090D01*
X32914D01*
X32670Y-12663D02*
X32884D01*
X33508Y-12450D02*
Y-13090D01*
Y-12450D02*
X33752Y-13090D01*
X33996Y-12450D02*
X33752Y-13090D01*
X33996Y-12450D02*
Y-13090D01*
X34331Y-12663D02*
X34270Y-12694D01*
X34209Y-12755D01*
X34179Y-12846D01*
Y-12907D01*
X34209Y-12999D01*
X34270Y-13060D01*
X34331Y-13090D01*
X34422D01*
X34483Y-13060D01*
X34544Y-12999D01*
X34575Y-12907D01*
Y-12846D01*
X34544Y-12755D01*
X34483Y-12694D01*
X34422Y-12663D01*
X34331D01*
X34867D02*
X34806Y-12694D01*
X34745Y-12755D01*
X34715Y-12846D01*
Y-12907D01*
X34745Y-12999D01*
X34806Y-13060D01*
X34867Y-13090D01*
X34959D01*
X35020Y-13060D01*
X35080Y-12999D01*
X35111Y-12907D01*
Y-12846D01*
X35080Y-12755D01*
X35020Y-12694D01*
X34959Y-12663D01*
X34867D01*
X35251D02*
Y-13090D01*
Y-12846D02*
X35282Y-12755D01*
X35343Y-12694D01*
X35403Y-12663D01*
X35495D01*
X35553Y-12846D02*
X35918D01*
Y-12785D01*
X35888Y-12724D01*
X35857Y-12694D01*
X35797Y-12663D01*
X35705D01*
X35644Y-12694D01*
X35583Y-12755D01*
X35553Y-12846D01*
Y-12907D01*
X35583Y-12999D01*
X35644Y-13060D01*
X35705Y-13090D01*
X35797D01*
X35857Y-13060D01*
X35918Y-12999D01*
X36558Y-12450D02*
Y-13090D01*
Y-12450D02*
X36832D01*
X36924Y-12481D01*
X36954Y-12511D01*
X36985Y-12572D01*
Y-12633D01*
X36954Y-12694D01*
X36924Y-12724D01*
X36832Y-12755D01*
X36558D01*
X36772D02*
X36985Y-13090D01*
X37494Y-12450D02*
Y-13090D01*
Y-12755D02*
X37433Y-12694D01*
X37372Y-12663D01*
X37280D01*
X37219Y-12694D01*
X37159Y-12755D01*
X37128Y-12846D01*
Y-12907D01*
X37159Y-12999D01*
X37219Y-13060D01*
X37280Y-13090D01*
X37372D01*
X37433Y-13060D01*
X37494Y-12999D01*
X37695Y-13029D02*
X37664Y-13060D01*
X37695Y-13090D01*
X37725Y-13060D01*
X37695Y-13029D01*
X30466Y-15670D02*
X30161D01*
X30130Y-15944D01*
X30161Y-15914D01*
X30252Y-15883D01*
X30344D01*
X30435Y-15914D01*
X30496Y-15975D01*
X30527Y-16066D01*
Y-16127D01*
X30496Y-16219D01*
X30435Y-16280D01*
X30344Y-16310D01*
X30252D01*
X30161Y-16280D01*
X30130Y-16249D01*
X30100Y-16188D01*
X31035Y-15762D02*
X31005Y-15701D01*
X30914Y-15670D01*
X30853D01*
X30761Y-15701D01*
X30700Y-15792D01*
X30670Y-15944D01*
Y-16097D01*
X30700Y-16219D01*
X30761Y-16280D01*
X30853Y-16310D01*
X30883D01*
X30974Y-16280D01*
X31035Y-16219D01*
X31066Y-16127D01*
Y-16097D01*
X31035Y-16005D01*
X30974Y-15944D01*
X30883Y-15914D01*
X30853D01*
X30761Y-15944D01*
X30700Y-16005D01*
X30670Y-16097D01*
X31206Y-15792D02*
X31267Y-15762D01*
X31358Y-15670D01*
Y-16310D01*
X31675Y-16036D02*
X32224D01*
X32809Y-15883D02*
X32778Y-15975D01*
X32717Y-16036D01*
X32626Y-16066D01*
X32595D01*
X32504Y-16036D01*
X32443Y-15975D01*
X32413Y-15883D01*
Y-15853D01*
X32443Y-15762D01*
X32504Y-15701D01*
X32595Y-15670D01*
X32626D01*
X32717Y-15701D01*
X32778Y-15762D01*
X32809Y-15883D01*
Y-16036D01*
X32778Y-16188D01*
X32717Y-16280D01*
X32626Y-16310D01*
X32565D01*
X32474Y-16280D01*
X32443Y-16219D01*
X33379Y-15883D02*
X33348Y-15975D01*
X33287Y-16036D01*
X33196Y-16066D01*
X33165D01*
X33074Y-16036D01*
X33013Y-15975D01*
X32982Y-15883D01*
Y-15853D01*
X33013Y-15762D01*
X33074Y-15701D01*
X33165Y-15670D01*
X33196D01*
X33287Y-15701D01*
X33348Y-15762D01*
X33379Y-15883D01*
Y-16036D01*
X33348Y-16188D01*
X33287Y-16280D01*
X33196Y-16310D01*
X33135D01*
X33043Y-16280D01*
X33013Y-16219D01*
X33948Y-15883D02*
X33918Y-15975D01*
X33857Y-16036D01*
X33765Y-16066D01*
X33735D01*
X33644Y-16036D01*
X33583Y-15975D01*
X33552Y-15883D01*
Y-15853D01*
X33583Y-15762D01*
X33644Y-15701D01*
X33735Y-15670D01*
X33765D01*
X33857Y-15701D01*
X33918Y-15762D01*
X33948Y-15883D01*
Y-16036D01*
X33918Y-16188D01*
X33857Y-16280D01*
X33765Y-16310D01*
X33705D01*
X33613Y-16280D01*
X33583Y-16219D01*
X34122Y-16036D02*
X34670D01*
X35255Y-15883D02*
X35225Y-15975D01*
X35164Y-16036D01*
X35073Y-16066D01*
X35042D01*
X34951Y-16036D01*
X34890Y-15975D01*
X34859Y-15883D01*
Y-15853D01*
X34890Y-15762D01*
X34951Y-15701D01*
X35042Y-15670D01*
X35073D01*
X35164Y-15701D01*
X35225Y-15762D01*
X35255Y-15883D01*
Y-16036D01*
X35225Y-16188D01*
X35164Y-16280D01*
X35073Y-16310D01*
X35012D01*
X34920Y-16280D01*
X34890Y-16219D01*
X35734Y-15670D02*
X35429Y-16097D01*
X35886D01*
X35734Y-15670D02*
Y-16310D01*
X36029Y-15822D02*
Y-15792D01*
X36060Y-15731D01*
X36090Y-15701D01*
X36151Y-15670D01*
X36273D01*
X36334Y-15701D01*
X36365Y-15731D01*
X36395Y-15792D01*
Y-15853D01*
X36365Y-15914D01*
X36304Y-16005D01*
X35999Y-16310D01*
X36425D01*
X36599Y-15822D02*
Y-15792D01*
X36630Y-15731D01*
X36660Y-15701D01*
X36721Y-15670D01*
X36843D01*
X36904Y-15701D01*
X36934Y-15731D01*
X36965Y-15792D01*
Y-15853D01*
X36934Y-15914D01*
X36873Y-16005D01*
X36569Y-16310D01*
X36995D01*
X31487Y-13572D02*
X31426Y-13511D01*
X31334Y-13480D01*
X31212D01*
X31121Y-13511D01*
X31060Y-13572D01*
Y-13632D01*
X31090Y-13693D01*
X31121Y-13724D01*
X31182Y-13754D01*
X31365Y-13815D01*
X31426Y-13846D01*
X31456Y-13876D01*
X31487Y-13937D01*
Y-14029D01*
X31426Y-14090D01*
X31334Y-14120D01*
X31212D01*
X31121Y-14090D01*
X31060Y-14029D01*
X31630Y-13693D02*
Y-13998D01*
X31660Y-14090D01*
X31721Y-14120D01*
X31813D01*
X31874Y-14090D01*
X31965Y-13998D01*
Y-13693D02*
Y-14120D01*
X32193Y-13480D02*
X32224Y-13511D01*
X32254Y-13480D01*
X32224Y-13450D01*
X32193Y-13480D01*
X32224Y-13693D02*
Y-14120D01*
X32459Y-13480D02*
Y-13998D01*
X32489Y-14090D01*
X32550Y-14120D01*
X32611D01*
X32367Y-13693D02*
X32580D01*
X32702Y-13876D02*
X33068D01*
Y-13815D01*
X33037Y-13754D01*
X33007Y-13724D01*
X32946Y-13693D01*
X32855D01*
X32794Y-13724D01*
X32733Y-13785D01*
X32702Y-13876D01*
Y-13937D01*
X32733Y-14029D01*
X32794Y-14090D01*
X32855Y-14120D01*
X32946D01*
X33007Y-14090D01*
X33068Y-14029D01*
X33708Y-13602D02*
X33769Y-13572D01*
X33860Y-13480D01*
Y-14120D01*
X34177Y-13602D02*
X34238Y-13572D01*
X34329Y-13480D01*
Y-14120D01*
X34799Y-13480D02*
X34707Y-13511D01*
X34677Y-13572D01*
Y-13632D01*
X34707Y-13693D01*
X34768Y-13724D01*
X34890Y-13754D01*
X34981Y-13785D01*
X35042Y-13846D01*
X35073Y-13907D01*
Y-13998D01*
X35042Y-14059D01*
X35012Y-14090D01*
X34920Y-14120D01*
X34799D01*
X34707Y-14090D01*
X34677Y-14059D01*
X34646Y-13998D01*
Y-13907D01*
X34677Y-13846D01*
X34738Y-13785D01*
X34829Y-13754D01*
X34951Y-13724D01*
X35012Y-13693D01*
X35042Y-13632D01*
Y-13572D01*
X35012Y-13511D01*
X34920Y-13480D01*
X34799D01*
D12*
X29892Y-11980D02*
X29511Y-10980D01*
X29130Y-11980D01*
X29273Y-11647D02*
X29749D01*
X30696Y-11456D02*
X30601Y-11361D01*
X30506Y-11313D01*
X30363D01*
X30268Y-11361D01*
X30173Y-11456D01*
X30125Y-11599D01*
Y-11694D01*
X30173Y-11837D01*
X30268Y-11932D01*
X30363Y-11980D01*
X30506D01*
X30601Y-11932D01*
X30696Y-11837D01*
X31053Y-10980D02*
Y-11790D01*
X31101Y-11932D01*
X31196Y-11980D01*
X31291D01*
X30911Y-11313D02*
X31244D01*
X31529Y-10980D02*
X31577Y-11028D01*
X31625Y-10980D01*
X31577Y-10933D01*
X31529Y-10980D01*
X31577Y-11313D02*
Y-11980D01*
X31801Y-11313D02*
X32087Y-11980D01*
X32372Y-11313D02*
X32087Y-11980D01*
X32534Y-11599D02*
X33105D01*
Y-11504D01*
X33058Y-11409D01*
X33010Y-11361D01*
X32915Y-11313D01*
X32772D01*
X32677Y-11361D01*
X32582Y-11456D01*
X32534Y-11599D01*
Y-11694D01*
X32582Y-11837D01*
X32677Y-11932D01*
X32772Y-11980D01*
X32915D01*
X33010Y-11932D01*
X33105Y-11837D01*
X34105Y-10980D02*
X34343Y-11980D01*
X34581Y-10980D02*
X34343Y-11980D01*
X34581Y-10980D02*
X34819Y-11980D01*
X35057Y-10980D02*
X34819Y-11980D01*
X35829Y-11313D02*
Y-11980D01*
Y-11456D02*
X35733Y-11361D01*
X35638Y-11313D01*
X35495D01*
X35400Y-11361D01*
X35305Y-11456D01*
X35257Y-11599D01*
Y-11694D01*
X35305Y-11837D01*
X35400Y-11932D01*
X35495Y-11980D01*
X35638D01*
X35733Y-11932D01*
X35829Y-11837D01*
X36095Y-11313D02*
X36381Y-11980D01*
X36666Y-11313D02*
X36381Y-11980D01*
X36828Y-11599D02*
X37400D01*
Y-11504D01*
X37352Y-11409D01*
X37304Y-11361D01*
X37209Y-11313D01*
X37066D01*
X36971Y-11361D01*
X36876Y-11456D01*
X36828Y-11599D01*
Y-11694D01*
X36876Y-11837D01*
X36971Y-11932D01*
X37066Y-11980D01*
X37209D01*
X37304Y-11932D01*
X37400Y-11837D01*
D31*
X-370Y9030D02*
G03*
X-670Y8730I0J-300D01*
G01*
X10110D02*
G03*
X9810Y9030I-300J0D01*
G01*
Y-860D02*
G03*
X10110Y-560I0J300D01*
G01*
X-670D02*
G03*
X-370Y-860I300J0D01*
G01*
X-670Y-560D02*
Y8730D01*
X-370Y9030D02*
X9810D01*
X10110Y-560D02*
Y8730D01*
X-370Y-860D02*
X9810D01*
X11110Y9030D02*
G03*
X10810Y8730I0J-300D01*
G01*
X21590D02*
G03*
X21290Y9030I-300J0D01*
G01*
Y-860D02*
G03*
X21590Y-560I0J300D01*
G01*
X10810D02*
G03*
X11110Y-860I300J0D01*
G01*
X10810Y-560D02*
Y8730D01*
X11110Y9030D02*
X21290D01*
X21590Y-560D02*
Y8730D01*
X11110Y-860D02*
X21290D01*
X22590Y9030D02*
G03*
X22290Y8730I0J-300D01*
G01*
X33070D02*
G03*
X32770Y9030I-300J0D01*
G01*
Y-860D02*
G03*
X33070Y-560I0J300D01*
G01*
X22290D02*
G03*
X22590Y-860I300J0D01*
G01*
X22290Y-560D02*
Y8730D01*
X22590Y9030D02*
X32770D01*
X33070Y-560D02*
Y8730D01*
X22590Y-860D02*
X32770D01*
X-370Y19620D02*
G03*
X-670Y19320I0J-300D01*
G01*
X10110D02*
G03*
X9810Y19620I-300J0D01*
G01*
Y9730D02*
G03*
X10110Y10030I0J300D01*
G01*
X-670D02*
G03*
X-370Y9730I300J0D01*
G01*
X-670Y10030D02*
Y19320D01*
X-370Y19620D02*
X9810D01*
X10110Y10030D02*
Y19320D01*
X-370Y9730D02*
X9810D01*
X11110Y19620D02*
G03*
X10810Y19320I0J-300D01*
G01*
X21590D02*
G03*
X21290Y19620I-300J0D01*
G01*
Y9730D02*
G03*
X21590Y10030I0J300D01*
G01*
X10810D02*
G03*
X11110Y9730I300J0D01*
G01*
X10810Y10030D02*
Y19320D01*
X11110Y19620D02*
X21290D01*
X21590Y10030D02*
Y19320D01*
X11110Y9730D02*
X21290D01*
X22590Y19620D02*
G03*
X22290Y19320I0J-300D01*
G01*
X33070D02*
G03*
X32770Y19620I-300J0D01*
G01*
Y9730D02*
G03*
X33070Y10030I0J300D01*
G01*
X22290D02*
G03*
X22590Y9730I300J0D01*
G01*
X22290Y10030D02*
Y19320D01*
X22590Y19620D02*
X32770D01*
X33070Y10030D02*
Y19320D01*
X22590Y9730D02*
X32770D01*
X-370Y30210D02*
G03*
X-670Y29910I0J-300D01*
G01*
X10110D02*
G03*
X9810Y30210I-300J0D01*
G01*
Y20320D02*
G03*
X10110Y20620I0J300D01*
G01*
X-670D02*
G03*
X-370Y20320I300J0D01*
G01*
X-670Y20620D02*
Y29910D01*
X-370Y30210D02*
X9810D01*
X10110Y20620D02*
Y29910D01*
X-370Y20320D02*
X9810D01*
X11110Y30210D02*
G03*
X10810Y29910I0J-300D01*
G01*
X21590D02*
G03*
X21290Y30210I-300J0D01*
G01*
Y20320D02*
G03*
X21590Y20620I0J300D01*
G01*
X10810D02*
G03*
X11110Y20320I300J0D01*
G01*
X10810Y20620D02*
Y29910D01*
X11110Y30210D02*
X21290D01*
X21590Y20620D02*
Y29910D01*
X11110Y20320D02*
X21290D01*
X22590Y30210D02*
G03*
X22290Y29910I0J-300D01*
G01*
X33070D02*
G03*
X32770Y30210I-300J0D01*
G01*
Y20320D02*
G03*
X33070Y20620I0J300D01*
G01*
X22290D02*
G03*
X22590Y20320I300J0D01*
G01*
X22290Y20620D02*
Y29910D01*
X22590Y30210D02*
X32770D01*
X33070Y20620D02*
Y29910D01*
X22590Y20320D02*
X32770D01*
X1243Y-17059D02*
Y-17465D01*
X1217Y-17542D01*
X1192Y-17567D01*
X1141Y-17592D01*
X1090D01*
X1040Y-17567D01*
X1014Y-17542D01*
X989Y-17465D01*
Y-17415D01*
X1405Y-17542D02*
X1380Y-17567D01*
X1405Y-17592D01*
X1431Y-17567D01*
X1405Y-17542D01*
X1547Y-17059D02*
Y-17592D01*
Y-17059D02*
X1903Y-17592D01*
Y-17059D02*
Y-17592D01*
D32*
X9650Y2480D02*
X9840Y2290D01*
X9650Y4550D02*
Y5500D01*
X9074Y3974D02*
X9650Y4550D01*
Y2480D02*
Y3430D01*
X9074Y3690D02*
Y3974D01*
Y3690D02*
Y3774D01*
X9650Y5500D02*
X9800Y5650D01*
X9074Y3690D02*
X9334Y3430D01*
X9650D01*
X21130Y2480D02*
X21320Y2290D01*
X21130Y4550D02*
Y5500D01*
X20554Y3974D02*
X21130Y4550D01*
Y2480D02*
Y3430D01*
X20554Y3690D02*
Y3974D01*
Y3690D02*
Y3774D01*
X21130Y5500D02*
X21280Y5650D01*
X20554Y3690D02*
X20814Y3430D01*
X21130D01*
X32610Y2480D02*
X32800Y2290D01*
X32610Y4550D02*
Y5500D01*
X32034Y3974D02*
X32610Y4550D01*
Y2480D02*
Y3430D01*
X32034Y3690D02*
Y3974D01*
Y3690D02*
Y3774D01*
X32610Y5500D02*
X32760Y5650D01*
X32034Y3690D02*
X32294Y3430D01*
X32610D01*
X9650Y13070D02*
X9840Y12880D01*
X9650Y15140D02*
Y16090D01*
X9074Y14564D02*
X9650Y15140D01*
Y13070D02*
Y14020D01*
X9074Y14280D02*
Y14564D01*
Y14280D02*
Y14364D01*
X9650Y16090D02*
X9800Y16240D01*
X9074Y14280D02*
X9334Y14020D01*
X9650D01*
X21130Y13070D02*
X21320Y12880D01*
X21130Y15140D02*
Y16090D01*
X20554Y14564D02*
X21130Y15140D01*
Y13070D02*
Y14020D01*
X20554Y14280D02*
Y14564D01*
Y14280D02*
Y14364D01*
X21130Y16090D02*
X21280Y16240D01*
X20554Y14280D02*
X20814Y14020D01*
X21130D01*
X32610Y13070D02*
X32800Y12880D01*
X32610Y15140D02*
Y16090D01*
X32034Y14564D02*
X32610Y15140D01*
Y13070D02*
Y14020D01*
X32034Y14280D02*
Y14564D01*
Y14280D02*
Y14364D01*
X32610Y16090D02*
X32760Y16240D01*
X32034Y14280D02*
X32294Y14020D01*
X32610D01*
X9650Y23660D02*
X9840Y23470D01*
X9650Y25730D02*
Y26680D01*
X9074Y25154D02*
X9650Y25730D01*
Y23660D02*
Y24610D01*
X9074Y24870D02*
Y25154D01*
Y24870D02*
Y24954D01*
X9650Y26680D02*
X9800Y26830D01*
X9074Y24870D02*
X9334Y24610D01*
X9650D01*
X21130Y23660D02*
X21320Y23470D01*
X21130Y25730D02*
Y26680D01*
X20554Y25154D02*
X21130Y25730D01*
Y23660D02*
Y24610D01*
X20554Y24870D02*
Y25154D01*
Y24870D02*
Y24954D01*
X21130Y26680D02*
X21280Y26830D01*
X20554Y24870D02*
X20814Y24610D01*
X21130D01*
X32610Y23660D02*
X32800Y23470D01*
X32610Y25730D02*
Y26680D01*
X32034Y25154D02*
X32610Y25730D01*
Y23660D02*
Y24610D01*
X32034Y24870D02*
Y25154D01*
Y24870D02*
Y24954D01*
X32610Y26680D02*
X32760Y26830D01*
X32034Y24870D02*
X32294Y24610D01*
X32610D01*
D39*
X8890Y-280D02*
Y-580D01*
X8990Y-280D02*
X8790D01*
X8526Y-580D02*
X8640Y-280D01*
X8754Y-580D01*
X8711Y-480D02*
X8569D01*
X8242Y-351D02*
X8256Y-323D01*
X8284Y-294D01*
X8313Y-280D01*
X8370D01*
X8399Y-294D01*
X8427Y-323D01*
X8442Y-351D01*
X8456Y-394D01*
Y-466D01*
X8442Y-509D01*
X8427Y-537D01*
X8399Y-566D01*
X8370Y-580D01*
X8313D01*
X8284Y-566D01*
X8256Y-537D01*
X8242Y-509D01*
Y-466D01*
X8313D02*
X8242D01*
X8173Y-337D02*
X8144Y-323D01*
X8102Y-280D01*
Y-580D01*
X7867Y-280D02*
X7910Y-294D01*
X7939Y-337D01*
X7953Y-409D01*
Y-451D01*
X7939Y-523D01*
X7910Y-566D01*
X7867Y-580D01*
X7839D01*
X7796Y-566D01*
X7767Y-523D01*
X7753Y-451D01*
Y-409D01*
X7767Y-337D01*
X7796Y-294D01*
X7839Y-280D01*
X7867D01*
X7657D02*
X7500D01*
X7586Y-394D01*
X7543D01*
X7515Y-409D01*
X7500Y-423D01*
X7486Y-466D01*
Y-494D01*
X7500Y-537D01*
X7529Y-566D01*
X7572Y-580D01*
X7615D01*
X7657Y-566D01*
X7672Y-551D01*
X7686Y-523D01*
X7183Y-280D02*
Y-580D01*
Y-280D02*
X7055D01*
X7012Y-294D01*
X6998Y-309D01*
X6983Y-337D01*
Y-366D01*
X6998Y-394D01*
X7012Y-409D01*
X7055Y-423D01*
X7183D01*
X7083D02*
X6983Y-580D01*
X6730Y-280D02*
X6916D01*
Y-580D01*
X6730D01*
X6916Y-423D02*
X6802D01*
X6680Y-280D02*
X6566Y-580D01*
X6452Y-280D02*
X6566Y-580D01*
X6163Y-351D02*
Y-337D01*
X6149Y-309D01*
X6135Y-294D01*
X6106Y-280D01*
X6049D01*
X6021Y-294D01*
X6006Y-309D01*
X5992Y-337D01*
Y-366D01*
X6006Y-394D01*
X6035Y-437D01*
X6178Y-580D01*
X5978D01*
X5911Y-337D02*
X5882Y-323D01*
X5839Y-280D01*
Y-580D01*
X20370Y-280D02*
Y-580D01*
X20470Y-280D02*
X20270D01*
X20006Y-580D02*
X20120Y-280D01*
X20234Y-580D01*
X20191Y-480D02*
X20049D01*
X19722Y-351D02*
X19736Y-323D01*
X19764Y-294D01*
X19793Y-280D01*
X19850D01*
X19879Y-294D01*
X19907Y-323D01*
X19922Y-351D01*
X19936Y-394D01*
Y-466D01*
X19922Y-509D01*
X19907Y-537D01*
X19879Y-566D01*
X19850Y-580D01*
X19793D01*
X19764Y-566D01*
X19736Y-537D01*
X19722Y-509D01*
Y-466D01*
X19793D02*
X19722D01*
X19653Y-337D02*
X19624Y-323D01*
X19582Y-280D01*
Y-580D01*
X19347Y-280D02*
X19390Y-294D01*
X19419Y-337D01*
X19433Y-409D01*
Y-451D01*
X19419Y-523D01*
X19390Y-566D01*
X19347Y-580D01*
X19319D01*
X19276Y-566D01*
X19247Y-523D01*
X19233Y-451D01*
Y-409D01*
X19247Y-337D01*
X19276Y-294D01*
X19319Y-280D01*
X19347D01*
X19137D02*
X18980D01*
X19066Y-394D01*
X19023D01*
X18995Y-409D01*
X18980Y-423D01*
X18966Y-466D01*
Y-494D01*
X18980Y-537D01*
X19009Y-566D01*
X19052Y-580D01*
X19095D01*
X19137Y-566D01*
X19152Y-551D01*
X19166Y-523D01*
X18663Y-280D02*
Y-580D01*
Y-280D02*
X18535D01*
X18492Y-294D01*
X18478Y-309D01*
X18463Y-337D01*
Y-366D01*
X18478Y-394D01*
X18492Y-409D01*
X18535Y-423D01*
X18663D01*
X18563D02*
X18463Y-580D01*
X18210Y-280D02*
X18396D01*
Y-580D01*
X18210D01*
X18396Y-423D02*
X18282D01*
X18160Y-280D02*
X18046Y-580D01*
X17932Y-280D02*
X18046Y-580D01*
X17643Y-351D02*
Y-337D01*
X17629Y-309D01*
X17615Y-294D01*
X17586Y-280D01*
X17529D01*
X17501Y-294D01*
X17486Y-309D01*
X17472Y-337D01*
Y-366D01*
X17486Y-394D01*
X17515Y-437D01*
X17658Y-580D01*
X17458D01*
X17391Y-337D02*
X17362Y-323D01*
X17319Y-280D01*
Y-580D01*
X31850Y-280D02*
Y-580D01*
X31950Y-280D02*
X31750D01*
X31486Y-580D02*
X31600Y-280D01*
X31714Y-580D01*
X31671Y-480D02*
X31529D01*
X31202Y-351D02*
X31216Y-323D01*
X31244Y-294D01*
X31273Y-280D01*
X31330D01*
X31359Y-294D01*
X31387Y-323D01*
X31402Y-351D01*
X31416Y-394D01*
Y-466D01*
X31402Y-509D01*
X31387Y-537D01*
X31359Y-566D01*
X31330Y-580D01*
X31273D01*
X31244Y-566D01*
X31216Y-537D01*
X31202Y-509D01*
Y-466D01*
X31273D02*
X31202D01*
X31133Y-337D02*
X31104Y-323D01*
X31062Y-280D01*
Y-580D01*
X30827Y-280D02*
X30870Y-294D01*
X30899Y-337D01*
X30913Y-409D01*
Y-451D01*
X30899Y-523D01*
X30870Y-566D01*
X30827Y-580D01*
X30799D01*
X30756Y-566D01*
X30727Y-523D01*
X30713Y-451D01*
Y-409D01*
X30727Y-337D01*
X30756Y-294D01*
X30799Y-280D01*
X30827D01*
X30617D02*
X30460D01*
X30546Y-394D01*
X30503D01*
X30475Y-409D01*
X30460Y-423D01*
X30446Y-466D01*
Y-494D01*
X30460Y-537D01*
X30489Y-566D01*
X30532Y-580D01*
X30575D01*
X30617Y-566D01*
X30632Y-551D01*
X30646Y-523D01*
X30143Y-280D02*
Y-580D01*
Y-280D02*
X30015D01*
X29972Y-294D01*
X29958Y-309D01*
X29943Y-337D01*
Y-366D01*
X29958Y-394D01*
X29972Y-409D01*
X30015Y-423D01*
X30143D01*
X30043D02*
X29943Y-580D01*
X29690Y-280D02*
X29876D01*
Y-580D01*
X29690D01*
X29876Y-423D02*
X29762D01*
X29640Y-280D02*
X29526Y-580D01*
X29412Y-280D02*
X29526Y-580D01*
X29123Y-351D02*
Y-337D01*
X29109Y-309D01*
X29095Y-294D01*
X29066Y-280D01*
X29009D01*
X28981Y-294D01*
X28966Y-309D01*
X28952Y-337D01*
Y-366D01*
X28966Y-394D01*
X28995Y-437D01*
X29138Y-580D01*
X28938D01*
X28871Y-337D02*
X28842Y-323D01*
X28799Y-280D01*
Y-580D01*
X8890Y10310D02*
Y10010D01*
X8990Y10310D02*
X8790D01*
X8526Y10010D02*
X8640Y10310D01*
X8754Y10010D01*
X8711Y10110D02*
X8569D01*
X8242Y10239D02*
X8256Y10267D01*
X8284Y10296D01*
X8313Y10310D01*
X8370D01*
X8399Y10296D01*
X8427Y10267D01*
X8442Y10239D01*
X8456Y10196D01*
Y10124D01*
X8442Y10081D01*
X8427Y10053D01*
X8399Y10024D01*
X8370Y10010D01*
X8313D01*
X8284Y10024D01*
X8256Y10053D01*
X8242Y10081D01*
Y10124D01*
X8313D02*
X8242D01*
X8173Y10253D02*
X8144Y10267D01*
X8102Y10310D01*
Y10010D01*
X7867Y10310D02*
X7910Y10296D01*
X7939Y10253D01*
X7953Y10181D01*
Y10139D01*
X7939Y10067D01*
X7910Y10024D01*
X7867Y10010D01*
X7839D01*
X7796Y10024D01*
X7767Y10067D01*
X7753Y10139D01*
Y10181D01*
X7767Y10253D01*
X7796Y10296D01*
X7839Y10310D01*
X7867D01*
X7657D02*
X7500D01*
X7586Y10196D01*
X7543D01*
X7515Y10181D01*
X7500Y10167D01*
X7486Y10124D01*
Y10096D01*
X7500Y10053D01*
X7529Y10024D01*
X7572Y10010D01*
X7615D01*
X7657Y10024D01*
X7672Y10039D01*
X7686Y10067D01*
X7183Y10310D02*
Y10010D01*
Y10310D02*
X7055D01*
X7012Y10296D01*
X6998Y10281D01*
X6983Y10253D01*
Y10224D01*
X6998Y10196D01*
X7012Y10181D01*
X7055Y10167D01*
X7183D01*
X7083D02*
X6983Y10010D01*
X6730Y10310D02*
X6916D01*
Y10010D01*
X6730D01*
X6916Y10167D02*
X6802D01*
X6680Y10310D02*
X6566Y10010D01*
X6452Y10310D02*
X6566Y10010D01*
X6163Y10239D02*
Y10253D01*
X6149Y10281D01*
X6135Y10296D01*
X6106Y10310D01*
X6049D01*
X6021Y10296D01*
X6006Y10281D01*
X5992Y10253D01*
Y10224D01*
X6006Y10196D01*
X6035Y10153D01*
X6178Y10010D01*
X5978D01*
X5911Y10253D02*
X5882Y10267D01*
X5839Y10310D01*
Y10010D01*
X20370Y10310D02*
Y10010D01*
X20470Y10310D02*
X20270D01*
X20006Y10010D02*
X20120Y10310D01*
X20234Y10010D01*
X20191Y10110D02*
X20049D01*
X19722Y10239D02*
X19736Y10267D01*
X19764Y10296D01*
X19793Y10310D01*
X19850D01*
X19879Y10296D01*
X19907Y10267D01*
X19922Y10239D01*
X19936Y10196D01*
Y10124D01*
X19922Y10081D01*
X19907Y10053D01*
X19879Y10024D01*
X19850Y10010D01*
X19793D01*
X19764Y10024D01*
X19736Y10053D01*
X19722Y10081D01*
Y10124D01*
X19793D02*
X19722D01*
X19653Y10253D02*
X19624Y10267D01*
X19582Y10310D01*
Y10010D01*
X19347Y10310D02*
X19390Y10296D01*
X19419Y10253D01*
X19433Y10181D01*
Y10139D01*
X19419Y10067D01*
X19390Y10024D01*
X19347Y10010D01*
X19319D01*
X19276Y10024D01*
X19247Y10067D01*
X19233Y10139D01*
Y10181D01*
X19247Y10253D01*
X19276Y10296D01*
X19319Y10310D01*
X19347D01*
X19137D02*
X18980D01*
X19066Y10196D01*
X19023D01*
X18995Y10181D01*
X18980Y10167D01*
X18966Y10124D01*
Y10096D01*
X18980Y10053D01*
X19009Y10024D01*
X19052Y10010D01*
X19095D01*
X19137Y10024D01*
X19152Y10039D01*
X19166Y10067D01*
X18663Y10310D02*
Y10010D01*
Y10310D02*
X18535D01*
X18492Y10296D01*
X18478Y10281D01*
X18463Y10253D01*
Y10224D01*
X18478Y10196D01*
X18492Y10181D01*
X18535Y10167D01*
X18663D01*
X18563D02*
X18463Y10010D01*
X18210Y10310D02*
X18396D01*
Y10010D01*
X18210D01*
X18396Y10167D02*
X18282D01*
X18160Y10310D02*
X18046Y10010D01*
X17932Y10310D02*
X18046Y10010D01*
X17643Y10239D02*
Y10253D01*
X17629Y10281D01*
X17615Y10296D01*
X17586Y10310D01*
X17529D01*
X17501Y10296D01*
X17486Y10281D01*
X17472Y10253D01*
Y10224D01*
X17486Y10196D01*
X17515Y10153D01*
X17658Y10010D01*
X17458D01*
X17391Y10253D02*
X17362Y10267D01*
X17319Y10310D01*
Y10010D01*
X31850Y10310D02*
Y10010D01*
X31950Y10310D02*
X31750D01*
X31486Y10010D02*
X31600Y10310D01*
X31714Y10010D01*
X31671Y10110D02*
X31529D01*
X31202Y10239D02*
X31216Y10267D01*
X31244Y10296D01*
X31273Y10310D01*
X31330D01*
X31359Y10296D01*
X31387Y10267D01*
X31402Y10239D01*
X31416Y10196D01*
Y10124D01*
X31402Y10081D01*
X31387Y10053D01*
X31359Y10024D01*
X31330Y10010D01*
X31273D01*
X31244Y10024D01*
X31216Y10053D01*
X31202Y10081D01*
Y10124D01*
X31273D02*
X31202D01*
X31133Y10253D02*
X31104Y10267D01*
X31062Y10310D01*
Y10010D01*
X30827Y10310D02*
X30870Y10296D01*
X30899Y10253D01*
X30913Y10181D01*
Y10139D01*
X30899Y10067D01*
X30870Y10024D01*
X30827Y10010D01*
X30799D01*
X30756Y10024D01*
X30727Y10067D01*
X30713Y10139D01*
Y10181D01*
X30727Y10253D01*
X30756Y10296D01*
X30799Y10310D01*
X30827D01*
X30617D02*
X30460D01*
X30546Y10196D01*
X30503D01*
X30475Y10181D01*
X30460Y10167D01*
X30446Y10124D01*
Y10096D01*
X30460Y10053D01*
X30489Y10024D01*
X30532Y10010D01*
X30575D01*
X30617Y10024D01*
X30632Y10039D01*
X30646Y10067D01*
X30143Y10310D02*
Y10010D01*
Y10310D02*
X30015D01*
X29972Y10296D01*
X29958Y10281D01*
X29943Y10253D01*
Y10224D01*
X29958Y10196D01*
X29972Y10181D01*
X30015Y10167D01*
X30143D01*
X30043D02*
X29943Y10010D01*
X29690Y10310D02*
X29876D01*
Y10010D01*
X29690D01*
X29876Y10167D02*
X29762D01*
X29640Y10310D02*
X29526Y10010D01*
X29412Y10310D02*
X29526Y10010D01*
X29123Y10239D02*
Y10253D01*
X29109Y10281D01*
X29095Y10296D01*
X29066Y10310D01*
X29009D01*
X28981Y10296D01*
X28966Y10281D01*
X28952Y10253D01*
Y10224D01*
X28966Y10196D01*
X28995Y10153D01*
X29138Y10010D01*
X28938D01*
X28871Y10253D02*
X28842Y10267D01*
X28799Y10310D01*
Y10010D01*
X8890Y20900D02*
Y20600D01*
X8990Y20900D02*
X8790D01*
X8526Y20600D02*
X8640Y20900D01*
X8754Y20600D01*
X8711Y20700D02*
X8569D01*
X8242Y20829D02*
X8256Y20857D01*
X8284Y20886D01*
X8313Y20900D01*
X8370D01*
X8399Y20886D01*
X8427Y20857D01*
X8442Y20829D01*
X8456Y20786D01*
Y20714D01*
X8442Y20671D01*
X8427Y20643D01*
X8399Y20614D01*
X8370Y20600D01*
X8313D01*
X8284Y20614D01*
X8256Y20643D01*
X8242Y20671D01*
Y20714D01*
X8313D02*
X8242D01*
X8173Y20843D02*
X8144Y20857D01*
X8102Y20900D01*
Y20600D01*
X7867Y20900D02*
X7910Y20886D01*
X7939Y20843D01*
X7953Y20771D01*
Y20729D01*
X7939Y20657D01*
X7910Y20614D01*
X7867Y20600D01*
X7839D01*
X7796Y20614D01*
X7767Y20657D01*
X7753Y20729D01*
Y20771D01*
X7767Y20843D01*
X7796Y20886D01*
X7839Y20900D01*
X7867D01*
X7657D02*
X7500D01*
X7586Y20786D01*
X7543D01*
X7515Y20771D01*
X7500Y20757D01*
X7486Y20714D01*
Y20686D01*
X7500Y20643D01*
X7529Y20614D01*
X7572Y20600D01*
X7615D01*
X7657Y20614D01*
X7672Y20629D01*
X7686Y20657D01*
X7183Y20900D02*
Y20600D01*
Y20900D02*
X7055D01*
X7012Y20886D01*
X6998Y20871D01*
X6983Y20843D01*
Y20814D01*
X6998Y20786D01*
X7012Y20771D01*
X7055Y20757D01*
X7183D01*
X7083D02*
X6983Y20600D01*
X6730Y20900D02*
X6916D01*
Y20600D01*
X6730D01*
X6916Y20757D02*
X6802D01*
X6680Y20900D02*
X6566Y20600D01*
X6452Y20900D02*
X6566Y20600D01*
X6163Y20829D02*
Y20843D01*
X6149Y20871D01*
X6135Y20886D01*
X6106Y20900D01*
X6049D01*
X6021Y20886D01*
X6006Y20871D01*
X5992Y20843D01*
Y20814D01*
X6006Y20786D01*
X6035Y20743D01*
X6178Y20600D01*
X5978D01*
X5911Y20843D02*
X5882Y20857D01*
X5839Y20900D01*
Y20600D01*
X20370Y20900D02*
Y20600D01*
X20470Y20900D02*
X20270D01*
X20006Y20600D02*
X20120Y20900D01*
X20234Y20600D01*
X20191Y20700D02*
X20049D01*
X19722Y20829D02*
X19736Y20857D01*
X19764Y20886D01*
X19793Y20900D01*
X19850D01*
X19879Y20886D01*
X19907Y20857D01*
X19922Y20829D01*
X19936Y20786D01*
Y20714D01*
X19922Y20671D01*
X19907Y20643D01*
X19879Y20614D01*
X19850Y20600D01*
X19793D01*
X19764Y20614D01*
X19736Y20643D01*
X19722Y20671D01*
Y20714D01*
X19793D02*
X19722D01*
X19653Y20843D02*
X19624Y20857D01*
X19582Y20900D01*
Y20600D01*
X19347Y20900D02*
X19390Y20886D01*
X19419Y20843D01*
X19433Y20771D01*
Y20729D01*
X19419Y20657D01*
X19390Y20614D01*
X19347Y20600D01*
X19319D01*
X19276Y20614D01*
X19247Y20657D01*
X19233Y20729D01*
Y20771D01*
X19247Y20843D01*
X19276Y20886D01*
X19319Y20900D01*
X19347D01*
X19137D02*
X18980D01*
X19066Y20786D01*
X19023D01*
X18995Y20771D01*
X18980Y20757D01*
X18966Y20714D01*
Y20686D01*
X18980Y20643D01*
X19009Y20614D01*
X19052Y20600D01*
X19095D01*
X19137Y20614D01*
X19152Y20629D01*
X19166Y20657D01*
X18663Y20900D02*
Y20600D01*
Y20900D02*
X18535D01*
X18492Y20886D01*
X18478Y20871D01*
X18463Y20843D01*
Y20814D01*
X18478Y20786D01*
X18492Y20771D01*
X18535Y20757D01*
X18663D01*
X18563D02*
X18463Y20600D01*
X18210Y20900D02*
X18396D01*
Y20600D01*
X18210D01*
X18396Y20757D02*
X18282D01*
X18160Y20900D02*
X18046Y20600D01*
X17932Y20900D02*
X18046Y20600D01*
X17643Y20829D02*
Y20843D01*
X17629Y20871D01*
X17615Y20886D01*
X17586Y20900D01*
X17529D01*
X17501Y20886D01*
X17486Y20871D01*
X17472Y20843D01*
Y20814D01*
X17486Y20786D01*
X17515Y20743D01*
X17658Y20600D01*
X17458D01*
X17391Y20843D02*
X17362Y20857D01*
X17319Y20900D01*
Y20600D01*
X31850Y20900D02*
Y20600D01*
X31950Y20900D02*
X31750D01*
X31486Y20600D02*
X31600Y20900D01*
X31714Y20600D01*
X31671Y20700D02*
X31529D01*
X31202Y20829D02*
X31216Y20857D01*
X31244Y20886D01*
X31273Y20900D01*
X31330D01*
X31359Y20886D01*
X31387Y20857D01*
X31402Y20829D01*
X31416Y20786D01*
Y20714D01*
X31402Y20671D01*
X31387Y20643D01*
X31359Y20614D01*
X31330Y20600D01*
X31273D01*
X31244Y20614D01*
X31216Y20643D01*
X31202Y20671D01*
Y20714D01*
X31273D02*
X31202D01*
X31133Y20843D02*
X31104Y20857D01*
X31062Y20900D01*
Y20600D01*
X30827Y20900D02*
X30870Y20886D01*
X30899Y20843D01*
X30913Y20771D01*
Y20729D01*
X30899Y20657D01*
X30870Y20614D01*
X30827Y20600D01*
X30799D01*
X30756Y20614D01*
X30727Y20657D01*
X30713Y20729D01*
Y20771D01*
X30727Y20843D01*
X30756Y20886D01*
X30799Y20900D01*
X30827D01*
X30617D02*
X30460D01*
X30546Y20786D01*
X30503D01*
X30475Y20771D01*
X30460Y20757D01*
X30446Y20714D01*
Y20686D01*
X30460Y20643D01*
X30489Y20614D01*
X30532Y20600D01*
X30575D01*
X30617Y20614D01*
X30632Y20629D01*
X30646Y20657D01*
X30143Y20900D02*
Y20600D01*
Y20900D02*
X30015D01*
X29972Y20886D01*
X29958Y20871D01*
X29943Y20843D01*
Y20814D01*
X29958Y20786D01*
X29972Y20771D01*
X30015Y20757D01*
X30143D01*
X30043D02*
X29943Y20600D01*
X29690Y20900D02*
X29876D01*
Y20600D01*
X29690D01*
X29876Y20757D02*
X29762D01*
X29640Y20900D02*
X29526Y20600D01*
X29412Y20900D02*
X29526Y20600D01*
X29123Y20829D02*
Y20843D01*
X29109Y20871D01*
X29095Y20886D01*
X29066Y20900D01*
X29009D01*
X28981Y20886D01*
X28966Y20871D01*
X28952Y20843D01*
Y20814D01*
X28966Y20786D01*
X28995Y20743D01*
X29138Y20600D01*
X28938D01*
X28871Y20843D02*
X28842Y20857D01*
X28799Y20900D01*
Y20600D01*
X11110Y9030D02*
G03*
X10810Y8730I0J-300D01*
G01*
X10110D02*
G03*
X9810Y9030I-300J0D01*
G01*
Y9730D02*
G03*
X10110Y10030I0J300D01*
G01*
X10810D02*
G03*
X11110Y9730I300J0D01*
G01*
X21590Y8730D02*
G03*
X21290Y9030I-300J0D01*
G01*
X22590D02*
G03*
X22290Y8730I0J-300D01*
G01*
Y10030D02*
G03*
X22590Y9730I300J0D01*
G01*
X21290D02*
G03*
X21590Y10030I0J300D01*
G01*
X33070Y8730D02*
G03*
X32770Y9030I-300J0D01*
G01*
Y9730D02*
G03*
X33070Y10030I0J300D01*
G01*
X33470Y-1560D02*
G03*
X33770Y-1260I0J300D01*
G01*
X32770Y-860D02*
G03*
X33070Y-560I0J300D01*
G01*
X22290D02*
G03*
X22590Y-860I300J0D01*
G01*
X21290D02*
G03*
X21590Y-560I0J300D01*
G01*
X10810D02*
G03*
X11110Y-860I300J0D01*
G01*
X9810D02*
G03*
X10110Y-560I0J300D01*
G01*
X-1370Y-1260D02*
G03*
X-1070Y-1560I300J0D01*
G01*
X-670Y-560D02*
G03*
X-370Y-860I300J0D01*
G01*
Y9030D02*
G03*
X-670Y8730I0J-300D01*
G01*
Y10030D02*
G03*
X-370Y9730I300J0D01*
G01*
Y19620D02*
G03*
X-670Y19320I0J-300D01*
G01*
Y20620D02*
G03*
X-370Y20320I300J0D01*
G01*
X22590Y30210D02*
G03*
X22290Y29910I0J-300D01*
G01*
X21590D02*
G03*
X21290Y30210I-300J0D01*
G01*
X33070Y29910D02*
G03*
X32770Y30210I-300J0D01*
G01*
X33770Y30610D02*
G03*
X33470Y30910I-300J0D01*
G01*
X33070Y19320D02*
G03*
X32770Y19620I-300J0D01*
G01*
Y20320D02*
G03*
X33070Y20620I0J300D01*
G01*
X22590Y19620D02*
G03*
X22290Y19320I0J-300D01*
G01*
X21590D02*
G03*
X21290Y19620I-300J0D01*
G01*
Y20320D02*
G03*
X21590Y20620I0J300D01*
G01*
X22290D02*
G03*
X22590Y20320I300J0D01*
G01*
X10110Y19320D02*
G03*
X9810Y19620I-300J0D01*
G01*
X11110D02*
G03*
X10810Y19320I0J-300D01*
G01*
Y20620D02*
G03*
X11110Y20320I300J0D01*
G01*
X9810D02*
G03*
X10110Y20620I0J300D01*
G01*
X11110Y30210D02*
G03*
X10810Y29910I0J-300D01*
G01*
X10110D02*
G03*
X9810Y30210I-300J0D01*
G01*
X-370D02*
G03*
X-670Y29910I0J-300D01*
G01*
X-1070Y30910D02*
G03*
X-1370Y30610I0J-300D01*
G01*
X97Y0D02*
G03*
X97Y0I-97J0D01*
G01*
X31820Y-2610D02*
G03*
X31820Y-2610I-250J0D01*
G01*
X1080D02*
G03*
X1080Y-2610I-250J0D01*
G01*
X31820Y31960D02*
G03*
X31820Y31960I-250J0D01*
G01*
X1080D02*
G03*
X1080Y31960I-250J0D01*
G01*
X35190Y31740D02*
G03*
X35190Y31740I-590J0D01*
G01*
Y-2390D02*
G03*
X35190Y-2390I-590J0D01*
G01*
X-1610D02*
G03*
X-1610Y-2390I-590J0D01*
G01*
X-370Y9030D02*
X9810D01*
X-670Y-560D02*
Y8730D01*
X-370Y9730D02*
X9810D01*
X22590Y-860D02*
X32770D01*
X11110D02*
X21290D01*
X10810Y-560D02*
Y8730D01*
X11110Y9030D02*
X21290D01*
X10110Y-560D02*
Y8730D01*
X11110Y9730D02*
X21290D01*
X22590Y9030D02*
X32770D01*
X21590Y-560D02*
Y8730D01*
X22590Y9730D02*
X32770D01*
X22290Y-560D02*
Y8730D01*
X33070Y10030D02*
Y19320D01*
Y20620D02*
Y29910D01*
X22290Y10030D02*
Y19320D01*
X22590Y19620D02*
X32770D01*
X22590Y20320D02*
X32770D01*
X21590Y10030D02*
Y19320D01*
X10110Y10030D02*
Y19320D01*
X11110Y19620D02*
X21290D01*
X10810Y10030D02*
Y19320D01*
X11110Y30210D02*
X21290D01*
X22290Y20620D02*
Y29910D01*
X21590Y20620D02*
Y29910D01*
X10810Y20620D02*
Y29910D01*
X10110Y20620D02*
Y29910D01*
X-370Y19620D02*
X9810D01*
X-670Y10030D02*
Y19320D01*
X-370Y20320D02*
X9810D01*
X11110D02*
X21290D01*
X-370Y30210D02*
X9810D01*
X33770Y-1260D02*
Y30610D01*
X-1370Y-1260D02*
Y30610D01*
X-1070Y-1560D02*
X33470D01*
X-1070Y30910D02*
X33470D01*
X33070Y-560D02*
Y8730D01*
X22590Y30210D02*
X32770D01*
X-370Y-860D02*
X9810D01*
X-670Y20620D02*
Y29910D01*
X-4170Y-4360D02*
Y33710D01*
X36570D01*
Y-4360D02*
Y33710D01*
X-4170Y-4360D02*
X36570D01*
X34140Y-20776D02*
X34115Y-20725D01*
X34064Y-20674D01*
X34013Y-20649D01*
X33912D01*
X33861Y-20674D01*
X33810Y-20725D01*
X33785Y-20776D01*
X33759Y-20852D01*
Y-20979D01*
X33785Y-21055D01*
X33810Y-21106D01*
X33861Y-21156D01*
X33912Y-21182D01*
X34013D01*
X34064Y-21156D01*
X34115Y-21106D01*
X34140Y-21055D01*
Y-20979D01*
X34013D02*
X34140D01*
X34592Y-20649D02*
X34262D01*
Y-21182D01*
X34592D01*
X34262Y-20902D02*
X34465D01*
X34681Y-20649D02*
Y-21182D01*
Y-20649D02*
X34909D01*
X34986Y-20674D01*
X35011Y-20699D01*
X35036Y-20750D01*
Y-20801D01*
X35011Y-20852D01*
X34986Y-20877D01*
X34909Y-20902D01*
X34681D01*
X34859D02*
X35036Y-21182D01*
X35156Y-20649D02*
Y-21182D01*
Y-20649D02*
X35384D01*
X35460Y-20674D01*
X35486Y-20699D01*
X35511Y-20750D01*
Y-20801D01*
X35486Y-20852D01*
X35460Y-20877D01*
X35384Y-20902D01*
X35156D02*
X35384D01*
X35460Y-20928D01*
X35486Y-20953D01*
X35511Y-21004D01*
Y-21080D01*
X35486Y-21131D01*
X35460Y-21156D01*
X35384Y-21182D01*
X35156D01*
X35961Y-20649D02*
X35631D01*
Y-21182D01*
X35961D01*
X35631Y-20902D02*
X35834D01*
X36050Y-20649D02*
Y-21182D01*
Y-20649D02*
X36278D01*
X36354Y-20674D01*
X36380Y-20699D01*
X36405Y-20750D01*
Y-20801D01*
X36380Y-20852D01*
X36354Y-20877D01*
X36278Y-20902D01*
X36050D01*
X36227D02*
X36405Y-21182D01*
X36550Y-20826D02*
X36524Y-20852D01*
X36550Y-20877D01*
X36575Y-20852D01*
X36550Y-20826D01*
Y-21131D02*
X36524Y-21156D01*
X36550Y-21182D01*
X36575Y-21156D01*
X36550Y-21131D01*
X-2841Y-20649D02*
Y-21182D01*
Y-20649D02*
X-2511D01*
X-2841Y-20902D02*
X-2638D01*
X-2450Y-20649D02*
Y-21182D01*
X-2338Y-20649D02*
Y-21182D01*
X-2033D01*
X-1645Y-20649D02*
X-1975D01*
Y-21182D01*
X-1645D01*
X-1975Y-20902D02*
X-1772D01*
X-1137Y-20649D02*
Y-21182D01*
Y-20649D02*
X-782Y-21182D01*
Y-20649D02*
Y-21182D01*
X-228D02*
X-431Y-20649D01*
X-634Y-21182D01*
X-558Y-21004D02*
X-304D01*
X-104Y-20649D02*
Y-21182D01*
Y-20649D02*
X100Y-21182D01*
X303Y-20649D02*
X100Y-21182D01*
X303Y-20649D02*
Y-21182D01*
X785Y-20649D02*
X455D01*
Y-21182D01*
X785D01*
X455Y-20902D02*
X658D01*
X899Y-20826D02*
X874Y-20852D01*
X899Y-20877D01*
X925Y-20852D01*
X899Y-20826D01*
Y-21131D02*
X874Y-21156D01*
X899Y-21182D01*
X925Y-21156D01*
X899Y-21131D01*
X-2841Y-17049D02*
Y-17582D01*
Y-17049D02*
X-2663D01*
X-2587Y-17074D01*
X-2536Y-17125D01*
X-2511Y-17176D01*
X-2485Y-17252D01*
Y-17379D01*
X-2511Y-17455D01*
X-2536Y-17506D01*
X-2587Y-17556D01*
X-2663Y-17582D01*
X-2841D01*
X-2366Y-17226D02*
Y-17582D01*
Y-17379D02*
X-2341Y-17302D01*
X-2290Y-17252D01*
X-2239Y-17226D01*
X-2163D01*
X-1810D02*
Y-17582D01*
Y-17302D02*
X-1861Y-17252D01*
X-1911Y-17226D01*
X-1988D01*
X-2038Y-17252D01*
X-2089Y-17302D01*
X-2115Y-17379D01*
Y-17429D01*
X-2089Y-17506D01*
X-2038Y-17556D01*
X-1988Y-17582D01*
X-1911D01*
X-1861Y-17556D01*
X-1810Y-17506D01*
X-1668Y-17226D02*
X-1566Y-17582D01*
X-1465Y-17226D02*
X-1566Y-17582D01*
X-1465Y-17226D02*
X-1363Y-17582D01*
X-1261Y-17226D02*
X-1363Y-17582D01*
X-1137Y-17226D02*
Y-17582D01*
Y-17328D02*
X-1061Y-17252D01*
X-1010Y-17226D01*
X-934D01*
X-883Y-17252D01*
X-858Y-17328D01*
Y-17582D01*
X-299Y-17049D02*
Y-17582D01*
Y-17302D02*
X-248Y-17252D01*
X-198Y-17226D01*
X-121D01*
X-71Y-17252D01*
X-20Y-17302D01*
X6Y-17379D01*
Y-17429D01*
X-20Y-17506D01*
X-71Y-17556D01*
X-121Y-17582D01*
X-198D01*
X-248Y-17556D01*
X-299Y-17506D01*
X145Y-17226D02*
X298Y-17582D01*
X450Y-17226D02*
X298Y-17582D01*
X247Y-17683D01*
X196Y-17734D01*
X145Y-17760D01*
X120D01*
X564Y-17226D02*
X539Y-17252D01*
X564Y-17277D01*
X590Y-17252D01*
X564Y-17226D01*
Y-17531D02*
X539Y-17556D01*
X564Y-17582D01*
X590Y-17556D01*
X564Y-17531D01*
X6212Y-13124D02*
Y-13657D01*
X6034Y-13124D02*
X6390D01*
X6453D02*
Y-13657D01*
X6743Y-13124D02*
Y-13657D01*
X6565Y-13124D02*
X6920D01*
X6984D02*
Y-13657D01*
X7289D01*
X7677Y-13124D02*
X7347D01*
Y-13657D01*
X7677D01*
X7347Y-13377D02*
X7550D01*
X7791Y-13301D02*
X7766Y-13327D01*
X7791Y-13352D01*
X7817Y-13327D01*
X7791Y-13301D01*
Y-13606D02*
X7766Y-13631D01*
X7791Y-13657D01*
X7817Y-13631D01*
X7791Y-13606D01*
X6159Y-18153D02*
X6388D01*
X6464Y-18127D01*
X6489Y-18102D01*
X6515Y-18051D01*
Y-17975D01*
X6489Y-17924D01*
X6464Y-17899D01*
X6388Y-17874D01*
X6159D01*
Y-18407D01*
X7040D02*
X6837Y-17874D01*
X6634Y-18407D01*
X6710Y-18229D02*
X6964D01*
X7165Y-17874D02*
Y-18407D01*
Y-17874D02*
X7393D01*
X7469Y-17899D01*
X7495Y-17924D01*
X7520Y-17975D01*
Y-18026D01*
X7495Y-18077D01*
X7469Y-18102D01*
X7393Y-18127D01*
X7165D01*
X7342D02*
X7520Y-18407D01*
X7817Y-17874D02*
Y-18407D01*
X7640Y-17874D02*
X7995D01*
X8477D02*
Y-18407D01*
Y-17874D02*
X8833Y-18407D01*
Y-17874D02*
Y-18407D01*
X9133Y-17874D02*
X9082Y-17899D01*
X9031Y-17950D01*
X9006Y-18001D01*
X8980Y-18077D01*
Y-18204D01*
X9006Y-18280D01*
X9031Y-18331D01*
X9082Y-18381D01*
X9133Y-18407D01*
X9234D01*
X9285Y-18381D01*
X9336Y-18331D01*
X9361Y-18280D01*
X9386Y-18204D01*
Y-18077D01*
X9361Y-18001D01*
X9336Y-17950D01*
X9285Y-17899D01*
X9234Y-17874D01*
X9133D01*
X9536Y-18356D02*
X9511Y-18381D01*
X9536Y-18407D01*
X9562Y-18381D01*
X9536Y-18356D01*
X9704Y-18051D02*
X9678Y-18077D01*
X9704Y-18102D01*
X9729Y-18077D01*
X9704Y-18051D01*
Y-18356D02*
X9678Y-18381D01*
X9704Y-18407D01*
X9729Y-18381D01*
X9704Y-18356D01*
X-2511Y-13249D02*
X-2841D01*
Y-13782D01*
X-2511D01*
X-2841Y-13502D02*
X-2638D01*
X-2422Y-13249D02*
Y-13782D01*
Y-13249D02*
X-2066Y-13782D01*
Y-13249D02*
Y-13782D01*
X-1538Y-13376D02*
X-1564Y-13325D01*
X-1614Y-13274D01*
X-1665Y-13249D01*
X-1767D01*
X-1818Y-13274D01*
X-1868Y-13325D01*
X-1894Y-13376D01*
X-1919Y-13452D01*
Y-13579D01*
X-1894Y-13655D01*
X-1868Y-13706D01*
X-1818Y-13756D01*
X-1767Y-13782D01*
X-1665D01*
X-1614Y-13756D01*
X-1564Y-13706D01*
X-1538Y-13655D01*
Y-13579D01*
X-1665D02*
X-1538D01*
X-1416Y-13249D02*
Y-13782D01*
X-1305Y-13249D02*
Y-13782D01*
Y-13249D02*
X-949Y-13782D01*
Y-13249D02*
Y-13782D01*
X-472Y-13249D02*
X-802D01*
Y-13782D01*
X-472D01*
X-802Y-13502D02*
X-599D01*
X-53Y-13249D02*
X-383D01*
Y-13782D01*
X-53D01*
X-383Y-13502D02*
X-180D01*
X36Y-13249D02*
Y-13782D01*
Y-13249D02*
X265D01*
X341Y-13274D01*
X366Y-13299D01*
X392Y-13350D01*
Y-13401D01*
X366Y-13452D01*
X341Y-13477D01*
X265Y-13502D01*
X36D01*
X214D02*
X392Y-13782D01*
X536Y-13426D02*
X511Y-13452D01*
X536Y-13477D01*
X562Y-13452D01*
X536Y-13426D01*
Y-13731D02*
X511Y-13756D01*
X536Y-13782D01*
X562Y-13756D01*
X536Y-13731D01*
X15559Y-20649D02*
Y-21182D01*
X15864D01*
X16329D02*
X16125Y-20649D01*
X15922Y-21182D01*
X15998Y-21004D02*
X16252D01*
X16453Y-20649D02*
X16656Y-20902D01*
Y-21182D01*
X16859Y-20649D02*
X16656Y-20902D01*
X17258Y-20649D02*
X16928D01*
Y-21182D01*
X17258D01*
X16928Y-20902D02*
X17131D01*
X17347Y-20649D02*
Y-21182D01*
Y-20649D02*
X17575D01*
X17651Y-20674D01*
X17677Y-20699D01*
X17702Y-20750D01*
Y-20801D01*
X17677Y-20852D01*
X17651Y-20877D01*
X17575Y-20902D01*
X17347D01*
X17524D02*
X17702Y-21182D01*
X17847Y-20826D02*
X17822Y-20852D01*
X17847Y-20877D01*
X17872Y-20852D01*
X17847Y-20826D01*
Y-21131D02*
X17822Y-21156D01*
X17847Y-21182D01*
X17872Y-21156D01*
X17847Y-21131D01*
X-2841Y-19169D02*
X-2627D01*
X-2555Y-19145D01*
X-2531Y-19121D01*
X-2508Y-19074D01*
Y-19002D01*
X-2531Y-18954D01*
X-2555Y-18931D01*
X-2627Y-18907D01*
X-2841D01*
Y-19407D01*
X-2396Y-18907D02*
Y-19407D01*
X-2062Y-18907D02*
Y-19407D01*
X-2396Y-19145D02*
X-2062D01*
X-1781Y-18907D02*
X-1829Y-18931D01*
X-1877Y-18978D01*
X-1901Y-19026D01*
X-1924Y-19097D01*
Y-19216D01*
X-1901Y-19288D01*
X-1877Y-19335D01*
X-1829Y-19383D01*
X-1781Y-19407D01*
X-1686D01*
X-1639Y-19383D01*
X-1591Y-19335D01*
X-1567Y-19288D01*
X-1543Y-19216D01*
Y-19097D01*
X-1567Y-19026D01*
X-1591Y-18978D01*
X-1639Y-18931D01*
X-1686Y-18907D01*
X-1781D01*
X-1427D02*
Y-19407D01*
Y-18907D02*
X-1094Y-19407D01*
Y-18907D02*
Y-19407D01*
X-646Y-18907D02*
X-955D01*
Y-19407D01*
X-646D01*
X-955Y-19145D02*
X-765D01*
X-539Y-19074D02*
X-563Y-19097D01*
X-539Y-19121D01*
X-515Y-19097D01*
X-539Y-19074D01*
Y-19359D02*
X-563Y-19383D01*
X-539Y-19407D01*
X-515Y-19383D01*
X-539Y-19359D01*
X-2841Y-15419D02*
X-2627D01*
X-2555Y-15395D01*
X-2531Y-15371D01*
X-2508Y-15324D01*
Y-15252D01*
X-2531Y-15204D01*
X-2555Y-15181D01*
X-2627Y-15157D01*
X-2841D01*
Y-15657D01*
X-2396Y-15157D02*
Y-15657D01*
X-2062Y-15157D02*
Y-15657D01*
X-2396Y-15395D02*
X-2062D01*
X-1781Y-15157D02*
X-1829Y-15181D01*
X-1877Y-15228D01*
X-1901Y-15276D01*
X-1924Y-15347D01*
Y-15466D01*
X-1901Y-15538D01*
X-1877Y-15585D01*
X-1829Y-15633D01*
X-1781Y-15657D01*
X-1686D01*
X-1639Y-15633D01*
X-1591Y-15585D01*
X-1567Y-15538D01*
X-1543Y-15466D01*
Y-15347D01*
X-1567Y-15276D01*
X-1591Y-15228D01*
X-1639Y-15181D01*
X-1686Y-15157D01*
X-1781D01*
X-1427D02*
Y-15657D01*
Y-15157D02*
X-1094Y-15657D01*
Y-15157D02*
Y-15657D01*
X-646Y-15157D02*
X-955D01*
Y-15657D01*
X-646D01*
X-955Y-15395D02*
X-765D01*
X-539Y-15324D02*
X-563Y-15347D01*
X-539Y-15371D01*
X-515Y-15347D01*
X-539Y-15324D01*
Y-15609D02*
X-563Y-15633D01*
X-539Y-15657D01*
X-515Y-15633D01*
X-539Y-15609D01*
X23534Y-17874D02*
Y-18407D01*
Y-17874D02*
X23763D01*
X23839Y-17899D01*
X23864Y-17924D01*
X23890Y-17975D01*
Y-18026D01*
X23864Y-18077D01*
X23839Y-18102D01*
X23763Y-18127D01*
X23534D01*
X23712D02*
X23890Y-18407D01*
X24339Y-17874D02*
X24009D01*
Y-18407D01*
X24339D01*
X24009Y-18127D02*
X24212D01*
X24428Y-17874D02*
X24631Y-18407D01*
X24834Y-17874D02*
X24631Y-18407D01*
X24928Y-18051D02*
X24903Y-18077D01*
X24928Y-18102D01*
X24954Y-18077D01*
X24928Y-18051D01*
Y-18356D02*
X24903Y-18381D01*
X24928Y-18407D01*
X24954Y-18381D01*
X24928Y-18356D01*
X28159Y-17874D02*
Y-18407D01*
Y-17874D02*
X28337D01*
X28413Y-17899D01*
X28464Y-17950D01*
X28489Y-18001D01*
X28515Y-18077D01*
Y-18204D01*
X28489Y-18280D01*
X28464Y-18331D01*
X28413Y-18381D01*
X28337Y-18407D01*
X28159D01*
X29040D02*
X28837Y-17874D01*
X28634Y-18407D01*
X28710Y-18229D02*
X28964D01*
X29342Y-17874D02*
Y-18407D01*
X29165Y-17874D02*
X29520D01*
X29914D02*
X29584D01*
Y-18407D01*
X29914D01*
X29584Y-18127D02*
X29787D01*
X30028Y-18051D02*
X30003Y-18077D01*
X30028Y-18102D01*
X30053Y-18077D01*
X30028Y-18051D01*
Y-18356D02*
X30003Y-18381D01*
X30028Y-18407D01*
X30053Y-18381D01*
X30028Y-18356D01*
X1928Y-21217D02*
Y-21750D01*
X1750Y-21217D02*
X2105D01*
X2474Y-21395D02*
Y-21750D01*
Y-21471D02*
X2423Y-21420D01*
X2372Y-21395D01*
X2296D01*
X2245Y-21420D01*
X2194Y-21471D01*
X2169Y-21547D01*
Y-21598D01*
X2194Y-21674D01*
X2245Y-21725D01*
X2296Y-21750D01*
X2372D01*
X2423Y-21725D01*
X2474Y-21674D01*
X2921Y-21395D02*
Y-21801D01*
X2895Y-21877D01*
X2870Y-21902D01*
X2819Y-21928D01*
X2743D01*
X2692Y-21902D01*
X2921Y-21471D02*
X2870Y-21420D01*
X2819Y-21395D01*
X2743D01*
X2692Y-21420D01*
X2641Y-21471D01*
X2616Y-21547D01*
Y-21598D01*
X2641Y-21674D01*
X2692Y-21725D01*
X2743Y-21750D01*
X2819D01*
X2870Y-21725D01*
X2921Y-21674D01*
X3063Y-21318D02*
X3114Y-21293D01*
X3190Y-21217D01*
Y-21750D01*
X3606Y-21217D02*
X3530Y-21242D01*
X3479Y-21318D01*
X3454Y-21445D01*
Y-21521D01*
X3479Y-21648D01*
X3530Y-21725D01*
X3606Y-21750D01*
X3657D01*
X3733Y-21725D01*
X3784Y-21648D01*
X3809Y-21521D01*
Y-21445D01*
X3784Y-21318D01*
X3733Y-21242D01*
X3657Y-21217D01*
X3606D01*
X3979D02*
X4259D01*
X4106Y-21420D01*
X4183D01*
X4233Y-21445D01*
X4259Y-21471D01*
X4284Y-21547D01*
Y-21598D01*
X4259Y-21674D01*
X4208Y-21725D01*
X4132Y-21750D01*
X4056D01*
X3979Y-21725D01*
X3954Y-21699D01*
X3929Y-21648D01*
X4403Y-21521D02*
X4860D01*
X5018Y-21217D02*
Y-21750D01*
Y-21217D02*
X5246D01*
X5323Y-21242D01*
X5348Y-21268D01*
X5373Y-21318D01*
Y-21369D01*
X5348Y-21420D01*
X5323Y-21445D01*
X5246Y-21471D01*
X5018D01*
X5196D02*
X5373Y-21750D01*
X5493Y-21547D02*
X5797D01*
Y-21496D01*
X5772Y-21445D01*
X5747Y-21420D01*
X5696Y-21395D01*
X5620D01*
X5569Y-21420D01*
X5518Y-21471D01*
X5493Y-21547D01*
Y-21598D01*
X5518Y-21674D01*
X5569Y-21725D01*
X5620Y-21750D01*
X5696D01*
X5747Y-21725D01*
X5797Y-21674D01*
X5912Y-21395D02*
X6064Y-21750D01*
X6216Y-21395D02*
X6064Y-21750D01*
X6328Y-21344D02*
Y-21318D01*
X6353Y-21268D01*
X6379Y-21242D01*
X6430Y-21217D01*
X6531D01*
X6582Y-21242D01*
X6607Y-21268D01*
X6633Y-21318D01*
Y-21369D01*
X6607Y-21420D01*
X6557Y-21496D01*
X6303Y-21750D01*
X6658D01*
X6778Y-21318D02*
X6828Y-21293D01*
X6904Y-21217D01*
Y-21750D01*
X7169Y-21521D02*
X7626D01*
X7783Y-21496D02*
X8012D01*
X8088Y-21471D01*
X8113Y-21445D01*
X8138Y-21395D01*
Y-21318D01*
X8113Y-21268D01*
X8088Y-21242D01*
X8012Y-21217D01*
X7783D01*
Y-21750D01*
X8563Y-21395D02*
Y-21750D01*
Y-21471D02*
X8512Y-21420D01*
X8461Y-21395D01*
X8385D01*
X8334Y-21420D01*
X8283Y-21471D01*
X8258Y-21547D01*
Y-21598D01*
X8283Y-21674D01*
X8334Y-21725D01*
X8385Y-21750D01*
X8461D01*
X8512Y-21725D01*
X8563Y-21674D01*
X8705Y-21395D02*
Y-21750D01*
Y-21496D02*
X8781Y-21420D01*
X8832Y-21395D01*
X8908D01*
X8959Y-21420D01*
X8984Y-21496D01*
Y-21750D01*
X9124Y-21547D02*
X9428D01*
Y-21496D01*
X9403Y-21445D01*
X9378Y-21420D01*
X9327Y-21395D01*
X9251D01*
X9200Y-21420D01*
X9149Y-21471D01*
X9124Y-21547D01*
Y-21598D01*
X9149Y-21674D01*
X9200Y-21725D01*
X9251Y-21750D01*
X9327D01*
X9378Y-21725D01*
X9428Y-21674D01*
X9543Y-21217D02*
Y-21750D01*
X9680Y-21699D02*
X9654Y-21725D01*
X9680Y-21750D01*
X9705Y-21725D01*
X9680Y-21699D01*
X9822Y-21496D02*
X10050D01*
X10127Y-21471D01*
X10152Y-21445D01*
X10177Y-21395D01*
Y-21318D01*
X10152Y-21268D01*
X10127Y-21242D01*
X10050Y-21217D01*
X9822D01*
Y-21750D01*
X10678Y-21344D02*
X10652Y-21293D01*
X10601Y-21242D01*
X10551Y-21217D01*
X10449D01*
X10398Y-21242D01*
X10348Y-21293D01*
X10322Y-21344D01*
X10297Y-21420D01*
Y-21547D01*
X10322Y-21623D01*
X10348Y-21674D01*
X10398Y-21725D01*
X10449Y-21750D01*
X10551D01*
X10601Y-21725D01*
X10652Y-21674D01*
X10678Y-21623D01*
X10827Y-21217D02*
Y-21750D01*
Y-21217D02*
X11056D01*
X11132Y-21242D01*
X11158Y-21268D01*
X11183Y-21318D01*
Y-21369D01*
X11158Y-21420D01*
X11132Y-21445D01*
X11056Y-21471D01*
X10827D02*
X11056D01*
X11132Y-21496D01*
X11158Y-21521D01*
X11183Y-21572D01*
Y-21648D01*
X11158Y-21699D01*
X11132Y-21725D01*
X11056Y-21750D01*
X10827D01*
D40*
X14160Y-14400D02*
Y-15360D01*
X13840Y-14400D02*
X14480D01*
X15143Y-14720D02*
Y-15360D01*
Y-14857D02*
X15051Y-14766D01*
X14960Y-14720D01*
X14823D01*
X14731Y-14766D01*
X14640Y-14857D01*
X14594Y-14994D01*
Y-15086D01*
X14640Y-15223D01*
X14731Y-15314D01*
X14823Y-15360D01*
X14960D01*
X15051Y-15314D01*
X15143Y-15223D01*
X15947Y-14720D02*
Y-15451D01*
X15901Y-15589D01*
X15856Y-15634D01*
X15764Y-15680D01*
X15627D01*
X15536Y-15634D01*
X15947Y-14857D02*
X15856Y-14766D01*
X15764Y-14720D01*
X15627D01*
X15536Y-14766D01*
X15444Y-14857D01*
X15399Y-14994D01*
Y-15086D01*
X15444Y-15223D01*
X15536Y-15314D01*
X15627Y-15360D01*
X15764D01*
X15856Y-15314D01*
X15947Y-15223D01*
X16203Y-14583D02*
X16294Y-14537D01*
X16431Y-14400D01*
Y-15360D01*
X17181Y-14400D02*
X17044Y-14446D01*
X16952Y-14583D01*
X16907Y-14812D01*
Y-14949D01*
X16952Y-15177D01*
X17044Y-15314D01*
X17181Y-15360D01*
X17272D01*
X17410Y-15314D01*
X17501Y-15177D01*
X17547Y-14949D01*
Y-14812D01*
X17501Y-14583D01*
X17410Y-14446D01*
X17272Y-14400D01*
X17181D01*
X17853D02*
X18356D01*
X18081Y-14766D01*
X18218D01*
X18310Y-14812D01*
X18356Y-14857D01*
X18401Y-14994D01*
Y-15086D01*
X18356Y-15223D01*
X18264Y-15314D01*
X18127Y-15360D01*
X17990D01*
X17853Y-15314D01*
X17807Y-15269D01*
X17761Y-15177D01*
X8190Y-11732D02*
X7825Y-10772D01*
X7459Y-11732D01*
X7596Y-11412D02*
X8053D01*
X8963Y-11229D02*
X8871Y-11138D01*
X8780Y-11092D01*
X8643D01*
X8552Y-11138D01*
X8460Y-11229D01*
X8414Y-11366D01*
Y-11458D01*
X8460Y-11595D01*
X8552Y-11686D01*
X8643Y-11732D01*
X8780D01*
X8871Y-11686D01*
X8963Y-11595D01*
X9306Y-10772D02*
Y-11549D01*
X9351Y-11686D01*
X9443Y-11732D01*
X9534D01*
X9169Y-11092D02*
X9488D01*
X9763Y-10772D02*
X9808Y-10818D01*
X9854Y-10772D01*
X9808Y-10726D01*
X9763Y-10772D01*
X9808Y-11092D02*
Y-11732D01*
X10023Y-11092D02*
X10297Y-11732D01*
X10572Y-11092D02*
X10297Y-11732D01*
X10727Y-11366D02*
X11276D01*
Y-11275D01*
X11230Y-11183D01*
X11184Y-11138D01*
X11093Y-11092D01*
X10956D01*
X10864Y-11138D01*
X10773Y-11229D01*
X10727Y-11366D01*
Y-11458D01*
X10773Y-11595D01*
X10864Y-11686D01*
X10956Y-11732D01*
X11093D01*
X11184Y-11686D01*
X11276Y-11595D01*
X12235Y-10772D02*
X12464Y-11732D01*
X12692Y-10772D02*
X12464Y-11732D01*
X12692Y-10772D02*
X12921Y-11732D01*
X13149Y-10772D02*
X12921Y-11732D01*
X13890Y-11092D02*
Y-11732D01*
Y-11229D02*
X13798Y-11138D01*
X13707Y-11092D01*
X13570D01*
X13478Y-11138D01*
X13387Y-11229D01*
X13341Y-11366D01*
Y-11458D01*
X13387Y-11595D01*
X13478Y-11686D01*
X13570Y-11732D01*
X13707D01*
X13798Y-11686D01*
X13890Y-11595D01*
X14146Y-11092D02*
X14420Y-11732D01*
X14694Y-11092D02*
X14420Y-11732D01*
X14850Y-11366D02*
X15398D01*
Y-11275D01*
X15352Y-11183D01*
X15307Y-11138D01*
X15215Y-11092D01*
X15078D01*
X14987Y-11138D01*
X14895Y-11229D01*
X14850Y-11366D01*
Y-11458D01*
X14895Y-11595D01*
X14987Y-11686D01*
X15078Y-11732D01*
X15215D01*
X15307Y-11686D01*
X15398Y-11595D01*
X25310Y-18750D02*
Y-18725D01*
X25335Y-18674D01*
X25360Y-18649D01*
X25411Y-18624D01*
X25513D01*
X25563Y-18649D01*
X25589Y-18674D01*
X25614Y-18725D01*
Y-18776D01*
X25589Y-18827D01*
X25538Y-18903D01*
X25284Y-19157D01*
X25640D01*
X25759Y-18725D02*
X25810Y-18700D01*
X25886Y-18624D01*
Y-19157D01*
X32307Y-18505D02*
X32358Y-18479D01*
X32434Y-18403D01*
Y-18936D01*
X32723Y-18530D02*
Y-18505D01*
X32749Y-18454D01*
X32774Y-18429D01*
X32825Y-18403D01*
X32926D01*
X32977Y-18429D01*
X33003Y-18454D01*
X33028Y-18505D01*
Y-18555D01*
X33003Y-18606D01*
X32952Y-18682D01*
X32698Y-18936D01*
X33053D01*
X33173Y-19013D02*
X33528Y-18403D01*
X33589Y-18530D02*
Y-18505D01*
X33615Y-18454D01*
X33640Y-18429D01*
X33691Y-18403D01*
X33792D01*
X33843Y-18429D01*
X33869Y-18454D01*
X33894Y-18505D01*
Y-18555D01*
X33869Y-18606D01*
X33818Y-18682D01*
X33564Y-18936D01*
X33919D01*
X34039Y-18505D02*
X34089Y-18479D01*
X34166Y-18403D01*
Y-18936D01*
X34430Y-19013D02*
X34785Y-18403D01*
X34846Y-18530D02*
Y-18505D01*
X34871Y-18454D01*
X34897Y-18429D01*
X34948Y-18403D01*
X35049D01*
X35100Y-18429D01*
X35125Y-18454D01*
X35151Y-18505D01*
Y-18555D01*
X35125Y-18606D01*
X35075Y-18682D01*
X34821Y-18936D01*
X35176D01*
X35448Y-18403D02*
X35372Y-18429D01*
X35321Y-18505D01*
X35296Y-18632D01*
Y-18708D01*
X35321Y-18835D01*
X35372Y-18911D01*
X35448Y-18936D01*
X35499D01*
X35575Y-18911D01*
X35626Y-18835D01*
X35651Y-18708D01*
Y-18632D01*
X35626Y-18505D01*
X35575Y-18429D01*
X35499Y-18403D01*
X35448D01*
X35770Y-18505D02*
X35821Y-18479D01*
X35897Y-18403D01*
Y-18936D01*
X36314Y-18403D02*
X36238Y-18429D01*
X36187Y-18505D01*
X36161Y-18632D01*
Y-18708D01*
X36187Y-18835D01*
X36238Y-18911D01*
X36314Y-18936D01*
X36365D01*
X36441Y-18911D01*
X36491Y-18835D01*
X36517Y-18708D01*
Y-18632D01*
X36491Y-18505D01*
X36441Y-18429D01*
X36365Y-18403D01*
X36314D01*
D41*
X-2200Y-2390D02*
D03*
X34600D02*
D03*
Y31740D02*
D03*
D42*
X9500Y7890D02*
D03*
Y490D02*
D03*
X0Y0D02*
D03*
X20980Y7890D02*
D03*
Y490D02*
D03*
X11480Y0D02*
D03*
X32460Y7890D02*
D03*
Y490D02*
D03*
X22960Y0D02*
D03*
X9500Y18480D02*
D03*
Y11080D02*
D03*
X0Y10590D02*
D03*
X20980Y18480D02*
D03*
Y11080D02*
D03*
X11480Y10590D02*
D03*
X32460Y18480D02*
D03*
Y11080D02*
D03*
X22960Y10590D02*
D03*
X9500Y29070D02*
D03*
Y21670D02*
D03*
X0Y21180D02*
D03*
X20980Y29070D02*
D03*
Y21670D02*
D03*
X11480Y21180D02*
D03*
X32460Y29070D02*
D03*
Y21670D02*
D03*
X22960Y21180D02*
D03*
D43*
X9480Y-360D02*
D03*
X20960D02*
D03*
X32440D02*
D03*
X9480Y10230D02*
D03*
X20960D02*
D03*
X32440D02*
D03*
X9480Y20820D02*
D03*
X20960D02*
D03*
X32440D02*
D03*
D44*
X9290Y8690D02*
D03*
X8790D02*
D03*
X8290D02*
D03*
X7790D02*
D03*
X7290D02*
D03*
X20770D02*
D03*
X20270D02*
D03*
X19770D02*
D03*
X19270D02*
D03*
X18770D02*
D03*
X32250D02*
D03*
X31750D02*
D03*
X31250D02*
D03*
X30750D02*
D03*
X30250D02*
D03*
X9290Y19280D02*
D03*
X8790D02*
D03*
X8290D02*
D03*
X7790D02*
D03*
X7290D02*
D03*
X20770D02*
D03*
X20270D02*
D03*
X19770D02*
D03*
X19270D02*
D03*
X18770D02*
D03*
X32250D02*
D03*
X31750D02*
D03*
X31250D02*
D03*
X30750D02*
D03*
X30250D02*
D03*
X9290Y29870D02*
D03*
X8790D02*
D03*
X8290D02*
D03*
X7790D02*
D03*
X7290D02*
D03*
X20770D02*
D03*
X20270D02*
D03*
X19770D02*
D03*
X19270D02*
D03*
X18770D02*
D03*
X32250D02*
D03*
X31750D02*
D03*
X31250D02*
D03*
X30750D02*
D03*
X30250D02*
D03*
D46*
X4490Y8640D02*
D03*
X5090D02*
D03*
X15970D02*
D03*
X16570D02*
D03*
X27450D02*
D03*
X28050D02*
D03*
X4490Y19230D02*
D03*
X5090D02*
D03*
X15970D02*
D03*
X16570D02*
D03*
X27450D02*
D03*
X28050D02*
D03*
X4490Y29820D02*
D03*
X5090D02*
D03*
X15970D02*
D03*
X16570D02*
D03*
X27450D02*
D03*
X28050D02*
D03*
D47*
X9000Y2800D02*
D03*
X9840Y2290D02*
D03*
X6740Y5990D02*
D03*
X5150Y6650D02*
D03*
X4850Y6850D02*
D03*
X6790Y8790D02*
D03*
X6096Y5790D02*
D03*
X5520Y1390D02*
D03*
X8750Y6200D02*
D03*
X6940Y6590D02*
D03*
X8900Y5700D02*
D03*
X6840Y5540D02*
D03*
X2950Y3070D02*
D03*
X7730Y3930D02*
D03*
X3350Y7410D02*
D03*
X3700Y4650D02*
D03*
X5240Y2730D02*
D03*
X2430Y3770D02*
D03*
X2200Y2360D02*
D03*
X7240Y1520D02*
D03*
X6020D02*
D03*
X4010Y6270D02*
D03*
X3360D02*
D03*
X4900Y2400D02*
D03*
X130Y2530D02*
D03*
X650Y5910D02*
D03*
X2060Y6740D02*
D03*
X2320Y4990D02*
D03*
X1810Y3690D02*
D03*
X4900Y820D02*
D03*
X3944Y256D02*
D03*
X8094Y956D02*
D03*
X6520Y1230D02*
D03*
X750Y1500D02*
D03*
X3950Y1893D02*
D03*
X7300Y470D02*
D03*
X8094Y211D02*
D03*
X5440Y3690D02*
D03*
X8720Y1520D02*
D03*
X5000Y10D02*
D03*
X2660Y6130D02*
D03*
X7450Y4600D02*
D03*
X5073Y5407D02*
D03*
X6900Y3600D02*
D03*
X7390Y2760D02*
D03*
X7840Y4540D02*
D03*
X9800Y5650D02*
D03*
X5850Y7000D02*
D03*
Y6550D02*
D03*
X5800Y5650D02*
D03*
X980Y6280D02*
D03*
X9500Y6350D02*
D03*
X7500Y8050D02*
D03*
X2740Y7420D02*
D03*
X4490Y7380D02*
D03*
X3455Y8446D02*
D03*
X710Y8160D02*
D03*
X9000Y6930D02*
D03*
X2740Y8170D02*
D03*
X20480Y2800D02*
D03*
X21320Y2290D02*
D03*
X18220Y5990D02*
D03*
X16630Y6650D02*
D03*
X16330Y6850D02*
D03*
X18270Y8790D02*
D03*
X17576Y5790D02*
D03*
X17000Y1390D02*
D03*
X20230Y6200D02*
D03*
X18420Y6590D02*
D03*
X20380Y5700D02*
D03*
X18320Y5540D02*
D03*
X14430Y3070D02*
D03*
X19210Y3930D02*
D03*
X14830Y7410D02*
D03*
X15180Y4650D02*
D03*
X16720Y2730D02*
D03*
X13910Y3770D02*
D03*
X13680Y2360D02*
D03*
X18720Y1520D02*
D03*
X17500D02*
D03*
X15490Y6270D02*
D03*
X14840D02*
D03*
X16380Y2400D02*
D03*
X11610Y2530D02*
D03*
X12130Y5910D02*
D03*
X13540Y6740D02*
D03*
X13800Y4990D02*
D03*
X13290Y3690D02*
D03*
X16380Y820D02*
D03*
X15424Y256D02*
D03*
X19574Y956D02*
D03*
X18000Y1230D02*
D03*
X12230Y1500D02*
D03*
X15430Y1893D02*
D03*
X18780Y470D02*
D03*
X19574Y211D02*
D03*
X16920Y3690D02*
D03*
X20200Y1520D02*
D03*
X16480Y10D02*
D03*
X14140Y6130D02*
D03*
X18930Y4600D02*
D03*
X16553Y5407D02*
D03*
X18380Y3600D02*
D03*
X18870Y2760D02*
D03*
X19320Y4540D02*
D03*
X21280Y5650D02*
D03*
X17330Y7000D02*
D03*
Y6550D02*
D03*
X17280Y5650D02*
D03*
X12460Y6280D02*
D03*
X20980Y6350D02*
D03*
X18980Y8050D02*
D03*
X14220Y7420D02*
D03*
X15970Y7380D02*
D03*
X14935Y8446D02*
D03*
X12190Y8160D02*
D03*
X20480Y6930D02*
D03*
X14220Y8170D02*
D03*
X31960Y2800D02*
D03*
X32800Y2290D02*
D03*
X29700Y5990D02*
D03*
X28110Y6650D02*
D03*
X27810Y6850D02*
D03*
X29750Y8790D02*
D03*
X29056Y5790D02*
D03*
X28480Y1390D02*
D03*
X31710Y6200D02*
D03*
X29900Y6590D02*
D03*
X31860Y5700D02*
D03*
X29800Y5540D02*
D03*
X25910Y3070D02*
D03*
X30690Y3930D02*
D03*
X26310Y7410D02*
D03*
X26660Y4650D02*
D03*
X28200Y2730D02*
D03*
X25390Y3770D02*
D03*
X25160Y2360D02*
D03*
X30200Y1520D02*
D03*
X28980D02*
D03*
X26970Y6270D02*
D03*
X26320D02*
D03*
X27860Y2400D02*
D03*
X23090Y2530D02*
D03*
X23610Y5910D02*
D03*
X25020Y6740D02*
D03*
X25280Y4990D02*
D03*
X24770Y3690D02*
D03*
X27860Y820D02*
D03*
X26904Y256D02*
D03*
X31054Y956D02*
D03*
X29480Y1230D02*
D03*
X23710Y1500D02*
D03*
X26910Y1893D02*
D03*
X30260Y470D02*
D03*
X31054Y211D02*
D03*
X28400Y3690D02*
D03*
X31680Y1520D02*
D03*
X27960Y10D02*
D03*
X25620Y6130D02*
D03*
X30410Y4600D02*
D03*
X28033Y5407D02*
D03*
X29860Y3600D02*
D03*
X30350Y2760D02*
D03*
X30800Y4540D02*
D03*
X32760Y5650D02*
D03*
X28810Y7000D02*
D03*
Y6550D02*
D03*
X28760Y5650D02*
D03*
X23940Y6280D02*
D03*
X32460Y6350D02*
D03*
X30460Y8050D02*
D03*
X25700Y7420D02*
D03*
X27450Y7380D02*
D03*
X26415Y8446D02*
D03*
X23670Y8160D02*
D03*
X31960Y6930D02*
D03*
X25700Y8170D02*
D03*
X9000Y13390D02*
D03*
X9840Y12880D02*
D03*
X6740Y16580D02*
D03*
X5150Y17240D02*
D03*
X4850Y17440D02*
D03*
X6790Y19380D02*
D03*
X6096Y16380D02*
D03*
X5520Y11980D02*
D03*
X8750Y16790D02*
D03*
X6940Y17180D02*
D03*
X8900Y16290D02*
D03*
X6840Y16130D02*
D03*
X2950Y13660D02*
D03*
X7730Y14520D02*
D03*
X3350Y18000D02*
D03*
X3700Y15240D02*
D03*
X5240Y13320D02*
D03*
X2430Y14360D02*
D03*
X2200Y12950D02*
D03*
X7240Y12110D02*
D03*
X6020D02*
D03*
X4010Y16860D02*
D03*
X3360D02*
D03*
X4900Y12990D02*
D03*
X130Y13120D02*
D03*
X650Y16500D02*
D03*
X2060Y17330D02*
D03*
X2320Y15580D02*
D03*
X1810Y14280D02*
D03*
X4900Y11410D02*
D03*
X3944Y10846D02*
D03*
X8094Y11546D02*
D03*
X6520Y11820D02*
D03*
X750Y12090D02*
D03*
X3950Y12483D02*
D03*
X7300Y11060D02*
D03*
X8094Y10801D02*
D03*
X5440Y14280D02*
D03*
X8720Y12110D02*
D03*
X5000Y10600D02*
D03*
X2660Y16720D02*
D03*
X7450Y15190D02*
D03*
X5073Y15997D02*
D03*
X6900Y14190D02*
D03*
X7390Y13350D02*
D03*
X7840Y15130D02*
D03*
X9800Y16240D02*
D03*
X5850Y17590D02*
D03*
Y17140D02*
D03*
X5800Y16240D02*
D03*
X980Y16870D02*
D03*
X9500Y16940D02*
D03*
X7500Y18640D02*
D03*
X2740Y18010D02*
D03*
X4490Y17970D02*
D03*
X3455Y19036D02*
D03*
X710Y18750D02*
D03*
X9000Y17520D02*
D03*
X2740Y18760D02*
D03*
X20480Y13390D02*
D03*
X21320Y12880D02*
D03*
X18220Y16580D02*
D03*
X16630Y17240D02*
D03*
X16330Y17440D02*
D03*
X18270Y19380D02*
D03*
X17576Y16380D02*
D03*
X17000Y11980D02*
D03*
X20230Y16790D02*
D03*
X18420Y17180D02*
D03*
X20380Y16290D02*
D03*
X18320Y16130D02*
D03*
X14430Y13660D02*
D03*
X19210Y14520D02*
D03*
X14830Y18000D02*
D03*
X15180Y15240D02*
D03*
X16720Y13320D02*
D03*
X13910Y14360D02*
D03*
X13680Y12950D02*
D03*
X18720Y12110D02*
D03*
X17500D02*
D03*
X15490Y16860D02*
D03*
X14840D02*
D03*
X16380Y12990D02*
D03*
X11610Y13120D02*
D03*
X12130Y16500D02*
D03*
X13540Y17330D02*
D03*
X13800Y15580D02*
D03*
X13290Y14280D02*
D03*
X16380Y11410D02*
D03*
X15424Y10846D02*
D03*
X19574Y11546D02*
D03*
X18000Y11820D02*
D03*
X12230Y12090D02*
D03*
X15430Y12483D02*
D03*
X18780Y11060D02*
D03*
X19574Y10801D02*
D03*
X16920Y14280D02*
D03*
X20200Y12110D02*
D03*
X16480Y10600D02*
D03*
X14140Y16720D02*
D03*
X18930Y15190D02*
D03*
X16553Y15997D02*
D03*
X18380Y14190D02*
D03*
X18870Y13350D02*
D03*
X19320Y15130D02*
D03*
X21280Y16240D02*
D03*
X17330Y17590D02*
D03*
Y17140D02*
D03*
X17280Y16240D02*
D03*
X12460Y16870D02*
D03*
X20980Y16940D02*
D03*
X18980Y18640D02*
D03*
X14220Y18010D02*
D03*
X15970Y17970D02*
D03*
X14935Y19036D02*
D03*
X12190Y18750D02*
D03*
X20480Y17520D02*
D03*
X14220Y18760D02*
D03*
X31960Y13390D02*
D03*
X32800Y12880D02*
D03*
X29700Y16580D02*
D03*
X28110Y17240D02*
D03*
X27810Y17440D02*
D03*
X29750Y19380D02*
D03*
X29056Y16380D02*
D03*
X28480Y11980D02*
D03*
X31710Y16790D02*
D03*
X29900Y17180D02*
D03*
X31860Y16290D02*
D03*
X29800Y16130D02*
D03*
X25910Y13660D02*
D03*
X30690Y14520D02*
D03*
X26310Y18000D02*
D03*
X26660Y15240D02*
D03*
X28200Y13320D02*
D03*
X25390Y14360D02*
D03*
X25160Y12950D02*
D03*
X30200Y12110D02*
D03*
X28980D02*
D03*
X26970Y16860D02*
D03*
X26320D02*
D03*
X27860Y12990D02*
D03*
X23090Y13120D02*
D03*
X23610Y16500D02*
D03*
X25020Y17330D02*
D03*
X25280Y15580D02*
D03*
X24770Y14280D02*
D03*
X27860Y11410D02*
D03*
X26904Y10846D02*
D03*
X31054Y11546D02*
D03*
X29480Y11820D02*
D03*
X23710Y12090D02*
D03*
X26910Y12483D02*
D03*
X30260Y11060D02*
D03*
X31054Y10801D02*
D03*
X28400Y14280D02*
D03*
X31680Y12110D02*
D03*
X27960Y10600D02*
D03*
X25620Y16720D02*
D03*
X30410Y15190D02*
D03*
X28033Y15997D02*
D03*
X29860Y14190D02*
D03*
X30350Y13350D02*
D03*
X30800Y15130D02*
D03*
X32760Y16240D02*
D03*
X28810Y17590D02*
D03*
Y17140D02*
D03*
X28760Y16240D02*
D03*
X23940Y16870D02*
D03*
X32460Y16940D02*
D03*
X30460Y18640D02*
D03*
X25700Y18010D02*
D03*
X27450Y17970D02*
D03*
X26415Y19036D02*
D03*
X23670Y18750D02*
D03*
X31960Y17520D02*
D03*
X25700Y18760D02*
D03*
X9000Y23980D02*
D03*
X9840Y23470D02*
D03*
X6740Y27170D02*
D03*
X5150Y27830D02*
D03*
X4850Y28030D02*
D03*
X6790Y29970D02*
D03*
X6096Y26970D02*
D03*
X5520Y22570D02*
D03*
X8750Y27380D02*
D03*
X6940Y27770D02*
D03*
X8900Y26880D02*
D03*
X6840Y26720D02*
D03*
X2950Y24250D02*
D03*
X7730Y25110D02*
D03*
X3350Y28590D02*
D03*
X3700Y25830D02*
D03*
X5240Y23910D02*
D03*
X2430Y24950D02*
D03*
X2200Y23540D02*
D03*
X7240Y22700D02*
D03*
X6020D02*
D03*
X4010Y27450D02*
D03*
X3360D02*
D03*
X4900Y23580D02*
D03*
X130Y23710D02*
D03*
X650Y27090D02*
D03*
X2060Y27920D02*
D03*
X2320Y26170D02*
D03*
X1810Y24870D02*
D03*
X4900Y22000D02*
D03*
X3944Y21436D02*
D03*
X8094Y22136D02*
D03*
X6520Y22410D02*
D03*
X750Y22680D02*
D03*
X3950Y23073D02*
D03*
X7300Y21650D02*
D03*
X8094Y21391D02*
D03*
X5440Y24870D02*
D03*
X8720Y22700D02*
D03*
X5000Y21190D02*
D03*
X2660Y27310D02*
D03*
X7450Y25780D02*
D03*
X5073Y26587D02*
D03*
X6900Y24780D02*
D03*
X7390Y23940D02*
D03*
X7840Y25720D02*
D03*
X9800Y26830D02*
D03*
X5850Y28180D02*
D03*
Y27730D02*
D03*
X5800Y26830D02*
D03*
X980Y27460D02*
D03*
X9500Y27530D02*
D03*
X7500Y29230D02*
D03*
X2740Y28600D02*
D03*
X4490Y28560D02*
D03*
X3455Y29626D02*
D03*
X710Y29340D02*
D03*
X9000Y28110D02*
D03*
X2740Y29350D02*
D03*
X20480Y23980D02*
D03*
X21320Y23470D02*
D03*
X18220Y27170D02*
D03*
X16630Y27830D02*
D03*
X16330Y28030D02*
D03*
X18270Y29970D02*
D03*
X17576Y26970D02*
D03*
X17000Y22570D02*
D03*
X20230Y27380D02*
D03*
X18420Y27770D02*
D03*
X20380Y26880D02*
D03*
X18320Y26720D02*
D03*
X14430Y24250D02*
D03*
X19210Y25110D02*
D03*
X14830Y28590D02*
D03*
X15180Y25830D02*
D03*
X16720Y23910D02*
D03*
X13910Y24950D02*
D03*
X13680Y23540D02*
D03*
X18720Y22700D02*
D03*
X17500D02*
D03*
X15490Y27450D02*
D03*
X14840D02*
D03*
X16380Y23580D02*
D03*
X11610Y23710D02*
D03*
X12130Y27090D02*
D03*
X13540Y27920D02*
D03*
X13800Y26170D02*
D03*
X13290Y24870D02*
D03*
X16380Y22000D02*
D03*
X15424Y21436D02*
D03*
X19574Y22136D02*
D03*
X18000Y22410D02*
D03*
X12230Y22680D02*
D03*
X15430Y23073D02*
D03*
X18780Y21650D02*
D03*
X19574Y21391D02*
D03*
X16920Y24870D02*
D03*
X20200Y22700D02*
D03*
X16480Y21190D02*
D03*
X14140Y27310D02*
D03*
X18930Y25780D02*
D03*
X16553Y26587D02*
D03*
X18380Y24780D02*
D03*
X18870Y23940D02*
D03*
X19320Y25720D02*
D03*
X21280Y26830D02*
D03*
X17330Y28180D02*
D03*
Y27730D02*
D03*
X17280Y26830D02*
D03*
X12460Y27460D02*
D03*
X20980Y27530D02*
D03*
X18980Y29230D02*
D03*
X14220Y28600D02*
D03*
X15970Y28560D02*
D03*
X14935Y29626D02*
D03*
X12190Y29340D02*
D03*
X20480Y28110D02*
D03*
X14220Y29350D02*
D03*
X31960Y23980D02*
D03*
X32800Y23470D02*
D03*
X29700Y27170D02*
D03*
X28110Y27830D02*
D03*
X27810Y28030D02*
D03*
X29750Y29970D02*
D03*
X29056Y26970D02*
D03*
X28480Y22570D02*
D03*
X31710Y27380D02*
D03*
X29900Y27770D02*
D03*
X31860Y26880D02*
D03*
X29800Y26720D02*
D03*
X25910Y24250D02*
D03*
X30690Y25110D02*
D03*
X26310Y28590D02*
D03*
X26660Y25830D02*
D03*
X28200Y23910D02*
D03*
X25390Y24950D02*
D03*
X25160Y23540D02*
D03*
X30200Y22700D02*
D03*
X28980D02*
D03*
X26970Y27450D02*
D03*
X26320D02*
D03*
X27860Y23580D02*
D03*
X23090Y23710D02*
D03*
X23610Y27090D02*
D03*
X25020Y27920D02*
D03*
X25280Y26170D02*
D03*
X24770Y24870D02*
D03*
X27860Y22000D02*
D03*
X26904Y21436D02*
D03*
X31054Y22136D02*
D03*
X29480Y22410D02*
D03*
X23710Y22680D02*
D03*
X26910Y23073D02*
D03*
X30260Y21650D02*
D03*
X31054Y21391D02*
D03*
X28400Y24870D02*
D03*
X31680Y22700D02*
D03*
X27960Y21190D02*
D03*
X25620Y27310D02*
D03*
X30410Y25780D02*
D03*
X28033Y26587D02*
D03*
X29860Y24780D02*
D03*
X30350Y23940D02*
D03*
X30800Y25720D02*
D03*
X32760Y26830D02*
D03*
X28810Y28180D02*
D03*
Y27730D02*
D03*
X28760Y26830D02*
D03*
X23940Y27460D02*
D03*
X32460Y27530D02*
D03*
X30460Y29230D02*
D03*
X25700Y28600D02*
D03*
X27450Y28560D02*
D03*
X26415Y29626D02*
D03*
X23670Y29340D02*
D03*
X31960Y28110D02*
D03*
X25700Y29350D02*
D03*
D48*
X609Y3690D02*
D03*
X9074D02*
D03*
X12089D02*
D03*
X20554D02*
D03*
X23569D02*
D03*
X32034D02*
D03*
X609Y14280D02*
D03*
X9074D02*
D03*
X12089D02*
D03*
X20554D02*
D03*
X23569D02*
D03*
X32034D02*
D03*
X609Y24870D02*
D03*
X9074D02*
D03*
X12089D02*
D03*
X20554D02*
D03*
X23569D02*
D03*
X32034D02*
D03*
D49*
X8930Y490D02*
X9500D01*
X8094Y211D02*
X8651D01*
X8930Y490D01*
X20410Y490D02*
X20980D01*
X19574Y211D02*
X20131D01*
X20410Y490D01*
X31890Y490D02*
X32460D01*
X31054Y211D02*
X31611D01*
X31890Y490D01*
X8930Y11080D02*
X9500D01*
X8094Y10801D02*
X8651D01*
X8930Y11080D01*
X20410Y11080D02*
X20980D01*
X19574Y10801D02*
X20131D01*
X20410Y11080D01*
X31890Y11080D02*
X32460D01*
X31054Y10801D02*
X31611D01*
X31890Y11080D01*
X8930Y21670D02*
X9500D01*
X8094Y21391D02*
X8651D01*
X8930Y21670D01*
X20410Y21670D02*
X20980D01*
X19574Y21391D02*
X20131D01*
X20410Y21670D01*
X31890Y21670D02*
X32460D01*
X31054Y21391D02*
X31611D01*
X31890Y21670D01*
D50*
X220Y7740D02*
D03*
X11700D02*
D03*
X23180D02*
D03*
X220Y18330D02*
D03*
X11700D02*
D03*
X23180D02*
D03*
X220Y28920D02*
D03*
X11700D02*
D03*
X23180D02*
D03*
M02*
