%FSLAX23Y23*%
%MOIN*%
G70*
G01*
G75*
G04 Layer_Physical_Order=1*
G04 Layer_Color=255*
%ADD10R,0.024X0.024*%
%ADD11R,0.014X0.035*%
%ADD12R,0.014X0.035*%
%ADD13R,0.030X0.030*%
%ADD14R,0.030X0.030*%
%ADD15R,0.025X0.030*%
%ADD16R,0.074X0.045*%
%ADD17R,0.020X0.050*%
%ADD18O,0.016X0.060*%
%ADD19O,0.016X0.060*%
%ADD20R,0.024X0.100*%
%ADD21R,0.024X0.090*%
%ADD22R,0.070X0.024*%
%ADD23R,0.090X0.024*%
%ADD24R,0.075X0.043*%
%ADD25R,0.036X0.050*%
%ADD26R,0.036X0.036*%
%ADD27O,0.024X0.080*%
%ADD28C,0.010*%
%ADD29C,0.008*%
%ADD30C,0.020*%
%ADD31C,0.025*%
%ADD32C,0.012*%
%ADD33C,0.015*%
%ADD34C,0.016*%
%ADD35C,0.014*%
%ADD36C,0.026*%
%ADD37C,0.006*%
%ADD38C,0.005*%
%ADD39C,0.009*%
%ADD40C,0.039*%
%ADD41C,0.070*%
%ADD42R,0.050X0.050*%
%ADD43R,0.039X0.043*%
%ADD44C,0.024*%
D10*
X145Y32D02*
D03*
X184D02*
D03*
X165Y-19D02*
D03*
X200Y524D02*
D03*
X181Y473D02*
D03*
X161Y524D02*
D03*
D11*
X976Y403D02*
D03*
D12*
X976Y317D02*
D03*
X924D02*
D03*
X950Y403D02*
D03*
X924D02*
D03*
X723D02*
D03*
X697D02*
D03*
Y317D02*
D03*
X749D02*
D03*
Y403D02*
D03*
D13*
X400Y585D02*
D03*
X340D02*
D03*
X644Y414D02*
D03*
X584D02*
D03*
X864Y384D02*
D03*
X804D02*
D03*
Y314D02*
D03*
X864D02*
D03*
X85Y780D02*
D03*
X145D02*
D03*
X639Y864D02*
D03*
X789Y799D02*
D03*
X849D02*
D03*
X789Y579D02*
D03*
X849D02*
D03*
X640Y355D02*
D03*
X580D02*
D03*
Y305D02*
D03*
X640D02*
D03*
X400Y350D02*
D03*
X460D02*
D03*
Y405D02*
D03*
X400D02*
D03*
X909Y224D02*
D03*
X849D02*
D03*
X48Y354D02*
D03*
Y304D02*
D03*
Y403D02*
D03*
X266Y702D02*
D03*
Y644D02*
D03*
Y584D02*
D03*
X-12Y403D02*
D03*
Y354D02*
D03*
Y304D02*
D03*
X104Y587D02*
D03*
X205Y780D02*
D03*
X164Y587D02*
D03*
X206Y584D02*
D03*
Y702D02*
D03*
Y644D02*
D03*
X283Y33D02*
D03*
X223D02*
D03*
X284Y-24D02*
D03*
X579Y864D02*
D03*
X265Y780D02*
D03*
X909Y534D02*
D03*
X224Y-24D02*
D03*
X969Y534D02*
D03*
Y474D02*
D03*
X909D02*
D03*
D14*
X400Y525D02*
D03*
Y465D02*
D03*
X900Y645D02*
D03*
Y705D02*
D03*
X340Y465D02*
D03*
Y525D02*
D03*
X520Y335D02*
D03*
Y395D02*
D03*
X23Y591D02*
D03*
Y651D02*
D03*
X109Y90D02*
D03*
Y150D02*
D03*
X83Y531D02*
D03*
X266Y474D02*
D03*
X83Y471D02*
D03*
X266Y534D02*
D03*
X23Y471D02*
D03*
Y531D02*
D03*
X153Y706D02*
D03*
Y646D02*
D03*
X885Y52D02*
D03*
X255Y205D02*
D03*
X354Y26D02*
D03*
X959Y645D02*
D03*
X340Y347D02*
D03*
X48Y254D02*
D03*
X95Y40D02*
D03*
X35Y86D02*
D03*
X110Y210D02*
D03*
X35Y146D02*
D03*
X48Y194D02*
D03*
X254Y100D02*
D03*
X354Y-34D02*
D03*
X444D02*
D03*
X110Y270D02*
D03*
X185Y94D02*
D03*
Y205D02*
D03*
Y154D02*
D03*
X254Y160D02*
D03*
X340Y407D02*
D03*
X959Y705D02*
D03*
X255Y265D02*
D03*
X885Y-8D02*
D03*
X95Y-20D02*
D03*
X444Y26D02*
D03*
X185Y265D02*
D03*
D15*
X849Y489D02*
D03*
X789D02*
D03*
D16*
X770Y217D02*
D03*
D17*
X335Y690D02*
D03*
Y790D02*
D03*
X410D02*
D03*
X372Y690D02*
D03*
X410D02*
D03*
D18*
X712Y478D02*
D03*
X558Y785D02*
D03*
X661D02*
D03*
X584Y478D02*
D03*
X610D02*
D03*
X558D02*
D03*
X635Y785D02*
D03*
X661Y478D02*
D03*
X686D02*
D03*
X712Y785D02*
D03*
X482D02*
D03*
X507Y478D02*
D03*
X610Y785D02*
D03*
X584D02*
D03*
X686D02*
D03*
X533D02*
D03*
X507D02*
D03*
X482Y478D02*
D03*
X635D02*
D03*
X533D02*
D03*
D19*
X758Y153D02*
D03*
X784Y-34D02*
D03*
X809D02*
D03*
X758D02*
D03*
X835Y153D02*
D03*
X809D02*
D03*
X835Y-34D02*
D03*
X784Y153D02*
D03*
D20*
X395Y111D02*
D03*
X445D02*
D03*
X444Y274D02*
D03*
X395Y273D02*
D03*
X345D02*
D03*
D21*
Y116D02*
D03*
D22*
X467Y189D02*
D03*
D23*
X325Y189D02*
D03*
D24*
X809Y647D02*
D03*
Y741D02*
D03*
D25*
X242Y327D02*
D03*
D26*
X205Y407D02*
D03*
X280D02*
D03*
D27*
X702Y-6D02*
D03*
X602Y214D02*
D03*
X702D02*
D03*
X652D02*
D03*
X552D02*
D03*
X652Y-6D02*
D03*
X602D02*
D03*
X552D02*
D03*
D28*
X789Y761D02*
X809Y741D01*
X924Y327D02*
Y359D01*
X879Y369D02*
X914D01*
X864Y384D02*
X879Y369D01*
X914D02*
X924Y359D01*
X706Y734D02*
X749D01*
X686Y754D02*
X706Y734D01*
X749D02*
X756Y741D01*
X809D01*
X584Y785D02*
Y859D01*
X579Y864D02*
X584Y859D01*
X255Y205D02*
X293D01*
X686Y478D02*
Y552D01*
X684Y554D02*
X686Y552D01*
X661Y478D02*
Y586D01*
X674Y599D02*
X694D01*
X661Y586D02*
X674Y599D01*
X265Y780D02*
Y812D01*
X400Y525D02*
X428Y553D01*
X520Y393D02*
X544Y369D01*
X520Y393D02*
Y395D01*
X789Y761D02*
Y799D01*
X809Y647D02*
X849Y607D01*
Y579D02*
Y607D01*
X809Y647D02*
X898D01*
X697Y435D02*
X712Y450D01*
X670Y435D02*
X697D01*
X335Y790D02*
X410D01*
X505Y350D02*
X520Y335D01*
X460Y350D02*
X505D01*
X507Y478D02*
Y541D01*
X620Y384D02*
X667D01*
X676Y393D01*
X697Y403D02*
X697Y403D01*
X697Y393D02*
Y403D01*
X676Y393D02*
X697D01*
X609Y373D02*
X620Y384D01*
X609Y336D02*
Y373D01*
X804Y314D02*
X815D01*
X740Y353D02*
X828D01*
X835Y360D01*
X924Y404D02*
X924Y403D01*
X714Y327D02*
X740Y353D01*
X697Y273D02*
X729Y305D01*
X652Y123D02*
X652Y214D01*
X640Y355D02*
X668Y327D01*
X609Y336D02*
X640Y305D01*
X702Y214D02*
Y239D01*
X580Y305D02*
Y355D01*
X534Y305D02*
X580D01*
X520Y319D02*
X534Y305D01*
X520Y319D02*
Y335D01*
X243Y377D02*
X244Y376D01*
X371D01*
X400Y405D01*
X405Y350D02*
X460Y405D01*
X400Y350D02*
X405D01*
X90Y524D02*
X161D01*
X83Y531D02*
X90Y524D01*
X336Y589D02*
Y627D01*
Y589D02*
X340Y585D01*
X23Y438D02*
Y471D01*
X104Y586D02*
Y587D01*
X83Y772D02*
X110Y745D01*
X145Y780D02*
X153Y773D01*
Y646D02*
X161Y638D01*
Y590D02*
Y638D01*
X167Y584D02*
X206D01*
X200Y578D02*
X206Y584D01*
X200Y524D02*
Y578D01*
X161Y519D02*
X181Y499D01*
X241D02*
X266Y474D01*
X161Y519D02*
Y524D01*
X181Y383D02*
X205Y407D01*
X181Y369D02*
Y383D01*
X354Y26D02*
X394D01*
X314Y-24D02*
X324Y-34D01*
X284Y-24D02*
X314D01*
X219Y-19D02*
X224Y-24D01*
X809Y96D02*
Y153D01*
X255Y265D02*
X255Y265D01*
X185Y154D02*
Y205D01*
X248Y154D02*
X254Y160D01*
X185Y154D02*
X248D01*
X223Y69D02*
X254Y100D01*
X395Y72D02*
Y91D01*
X380Y57D02*
X395Y72D01*
X307Y57D02*
X380D01*
X283Y33D02*
X307Y57D01*
X23Y471D02*
X51Y499D01*
Y549D01*
X63Y561D01*
X78D01*
X104Y587D01*
X153Y751D02*
Y773D01*
Y734D02*
X162Y742D01*
X153Y751D02*
X162Y742D01*
X153Y706D02*
Y734D01*
X145Y780D02*
X205D01*
X162Y742D02*
X184D01*
X185Y741D01*
X686Y754D02*
Y785D01*
X524Y273D02*
X697D01*
X702Y239D02*
X739Y276D01*
X410Y658D02*
X428Y640D01*
Y553D02*
Y640D01*
X924Y317D02*
Y327D01*
X854Y374D02*
X864Y384D01*
X854Y353D02*
Y374D01*
X815Y314D02*
X854Y353D01*
X449Y758D02*
Y779D01*
X410Y719D02*
X449Y758D01*
X335Y790D02*
Y834D01*
X345Y845D01*
X835Y196D02*
X849Y210D01*
Y224D01*
X835Y152D02*
Y153D01*
Y196D01*
X324Y-34D02*
X354D01*
X444D01*
X184Y32D02*
X223D01*
Y33D01*
Y69D01*
X293Y205D02*
X295Y207D01*
X83Y772D02*
Y780D01*
Y783D01*
X784Y21D02*
X784Y21D01*
X164Y587D02*
X167Y584D01*
X161Y590D02*
X164Y587D01*
X-12Y386D02*
Y403D01*
Y438D01*
X266Y534D02*
Y584D01*
Y613D01*
Y644D01*
Y702D01*
X181Y499D02*
X232D01*
X241D01*
X410Y658D02*
Y690D01*
Y719D01*
X340Y465D02*
X370D01*
X400D01*
X729Y305D02*
X749D01*
X757D01*
X668Y327D02*
X697D01*
X714D01*
X-325Y-825D02*
Y-925D01*
X-268D01*
X-181D02*
X-219Y-825D01*
X-257Y-925D01*
X-243Y-892D02*
X-195D01*
X-157Y-825D02*
X-119Y-873D01*
Y-925D01*
X-81Y-825D02*
X-119Y-873D01*
X-6Y-825D02*
X-68D01*
Y-925D01*
X-6D01*
X-68Y-873D02*
X-30D01*
X10Y-825D02*
Y-925D01*
Y-825D02*
X53D01*
X67Y-830D01*
X72Y-835D01*
X77Y-844D01*
Y-854D01*
X72Y-863D01*
X67Y-868D01*
X53Y-873D01*
X10D01*
X43D02*
X77Y-925D01*
X178Y-844D02*
X187Y-839D01*
X202Y-825D01*
Y-925D01*
X480Y-849D02*
X475Y-839D01*
X465Y-830D01*
X456Y-825D01*
X437D01*
X427Y-830D01*
X418Y-839D01*
X413Y-849D01*
X408Y-863D01*
Y-887D01*
X413Y-901D01*
X418Y-911D01*
X427Y-920D01*
X437Y-925D01*
X456D01*
X465Y-920D01*
X475Y-911D01*
X480Y-901D01*
X536Y-825D02*
X527Y-830D01*
X517Y-839D01*
X512Y-849D01*
X508Y-863D01*
Y-887D01*
X512Y-901D01*
X517Y-911D01*
X527Y-920D01*
X536Y-925D01*
X555D01*
X565Y-920D01*
X574Y-911D01*
X579Y-901D01*
X584Y-887D01*
Y-863D01*
X579Y-849D01*
X574Y-839D01*
X565Y-830D01*
X555Y-825D01*
X536D01*
X607D02*
Y-925D01*
Y-825D02*
X645Y-925D01*
X683Y-825D02*
X645Y-925D01*
X683Y-825D02*
Y-925D01*
X712Y-877D02*
X755D01*
X769Y-873D01*
X774Y-868D01*
X779Y-858D01*
Y-844D01*
X774Y-835D01*
X769Y-830D01*
X755Y-825D01*
X712D01*
Y-925D01*
X830Y-825D02*
X820Y-830D01*
X810Y-839D01*
X806Y-849D01*
X801Y-863D01*
Y-887D01*
X806Y-901D01*
X810Y-911D01*
X820Y-920D01*
X830Y-925D01*
X849D01*
X858Y-920D01*
X868Y-911D01*
X872Y-901D01*
X877Y-887D01*
Y-863D01*
X872Y-849D01*
X868Y-839D01*
X858Y-830D01*
X849Y-825D01*
X830D01*
X900D02*
Y-925D01*
Y-825D02*
X967Y-925D01*
Y-825D02*
Y-925D01*
X1057Y-825D02*
X995D01*
Y-925D01*
X1057D01*
X995Y-873D02*
X1033D01*
X1073Y-825D02*
Y-925D01*
Y-825D02*
X1140Y-925D01*
Y-825D02*
Y-925D01*
X1201Y-825D02*
Y-925D01*
X1168Y-825D02*
X1234D01*
X1391Y-839D02*
X1382Y-830D01*
X1367Y-825D01*
X1348D01*
X1334Y-830D01*
X1325Y-839D01*
Y-849D01*
X1329Y-858D01*
X1334Y-863D01*
X1344Y-868D01*
X1372Y-877D01*
X1382Y-882D01*
X1387Y-887D01*
X1391Y-896D01*
Y-911D01*
X1382Y-920D01*
X1367Y-925D01*
X1348D01*
X1334Y-920D01*
X1325Y-911D01*
X1414Y-825D02*
Y-925D01*
X1435Y-825D02*
Y-925D01*
Y-825D02*
X1468D01*
X1482Y-830D01*
X1492Y-839D01*
X1497Y-849D01*
X1501Y-863D01*
Y-887D01*
X1497Y-901D01*
X1492Y-911D01*
X1482Y-920D01*
X1468Y-925D01*
X1435D01*
X1586Y-825D02*
X1524D01*
Y-925D01*
X1586D01*
X1524Y-873D02*
X1562D01*
X1714Y-806D02*
X1705Y-816D01*
X1695Y-830D01*
X1686Y-849D01*
X1681Y-873D01*
Y-892D01*
X1686Y-915D01*
X1695Y-935D01*
X1705Y-949D01*
X1714Y-958D01*
X1705Y-816D02*
X1695Y-835D01*
X1690Y-849D01*
X1686Y-873D01*
Y-892D01*
X1690Y-915D01*
X1695Y-930D01*
X1705Y-949D01*
X1816Y-915D02*
X1812Y-920D01*
X1816Y-925D01*
X1821Y-920D01*
X1816Y-915D01*
X1915Y-849D02*
X1910Y-839D01*
X1900Y-830D01*
X1891Y-825D01*
X1872D01*
X1862Y-830D01*
X1853Y-839D01*
X1848Y-849D01*
X1843Y-863D01*
Y-887D01*
X1848Y-901D01*
X1853Y-911D01*
X1862Y-920D01*
X1872Y-925D01*
X1891D01*
X1900Y-920D01*
X1910Y-911D01*
X1915Y-901D01*
Y-887D01*
X1891D02*
X1915D01*
X1971Y-825D02*
Y-925D01*
X1937Y-825D02*
X2004D01*
X2016D02*
Y-925D01*
X2073D01*
X2163Y-806D02*
X2172Y-816D01*
X2182Y-830D01*
X2191Y-849D01*
X2196Y-873D01*
Y-892D01*
X2191Y-915D01*
X2182Y-935D01*
X2172Y-949D01*
X2163Y-958D01*
X2172Y-816D02*
X2182Y-835D01*
X2186Y-849D01*
X2191Y-873D01*
Y-892D01*
X2186Y-915D01*
X2182Y-930D01*
X2172Y-949D01*
X-37Y903D02*
G03*
X-67Y873I0J-30D01*
G01*
X1011D02*
G03*
X981Y903I-30J0D01*
G01*
Y-86D02*
G03*
X1011Y-56I0J30D01*
G01*
X-67D02*
G03*
X-37Y-86I30J0D01*
G01*
X-67Y-56D02*
Y873D01*
X-37Y903D02*
X981D01*
X1011Y-56D02*
Y873D01*
X-37Y-86D02*
X981D01*
X3966Y-1802D02*
G03*
X3917Y-1753I-49J0D01*
G01*
X2816D02*
G03*
X2766Y-1803I0J-50D01*
G01*
X3916Y-1703D02*
G03*
X3966Y-1653I0J50D01*
G01*
X2766D02*
G03*
X2816Y-1703I50J0D01*
G01*
X-284Y-978D02*
G03*
X-384Y-1078I0J-100D01*
G01*
Y-2177D02*
G03*
X-285Y-2278I101J0D01*
G01*
X3916Y-2278D02*
G03*
X4016Y-2178I0J100D01*
G01*
Y-1078D02*
G03*
X3916Y-978I-100J0D01*
G01*
X3966Y-1077D02*
G03*
X3915Y-1028I-49J0D01*
G01*
X3916Y-1978D02*
G03*
X3966Y-1928I0J50D01*
G01*
X3966Y-2077D02*
G03*
X3916Y-2028I-50J-1D01*
G01*
Y-2228D02*
G03*
X3966Y-2178I0J50D01*
G01*
X2666Y-1978D02*
G03*
X2716Y-1928I0J50D01*
G01*
X2766Y-1929D02*
G03*
X2816Y-1978I49J0D01*
G01*
X2716Y-1802D02*
G03*
X2667Y-1753I-49J0D01*
G01*
X-334Y-2178D02*
G03*
X-285Y-2228I50J0D01*
G01*
X2667Y-1703D02*
G03*
X2716Y-1653I-1J50D01*
G01*
X-284Y-2028D02*
G03*
X-334Y-2078I0J-50D01*
G01*
X2716Y-1328D02*
G03*
X2666Y-1278I-50J0D01*
G01*
Y-1228D02*
G03*
X2716Y-1178I0J50D01*
G01*
X2816Y-1028D02*
G03*
X2766Y-1078I0J-50D01*
G01*
X2716D02*
G03*
X2666Y-1028I-50J0D01*
G01*
X-284D02*
G03*
X-334Y-1078I0J-50D01*
G01*
Y-1178D02*
G03*
X-284Y-1228I50J0D01*
G01*
Y-1278D02*
G03*
X-334Y-1328I0J-50D01*
G01*
Y-1553D02*
G03*
X-284Y-1603I50J0D01*
G01*
Y-1653D02*
G03*
X-334Y-1703I0J-50D01*
G01*
Y-1928D02*
G03*
X-285Y-1978I50J0D01*
G01*
X616Y-1278D02*
G03*
X566Y-1328I0J-50D01*
G01*
X616Y-1753D02*
G03*
X566Y-1803I0J-50D01*
G01*
X2364Y-1753D02*
G03*
X2316Y-1804I0J-48D01*
G01*
X2316Y-1927D02*
G03*
X2366Y-1978I51J0D01*
G01*
X2217Y-1978D02*
G03*
X2266Y-1928I0J49D01*
G01*
X2266Y-1802D02*
G03*
X2217Y-1753I-49J0D01*
G01*
X467Y-1978D02*
G03*
X516Y-1929I0J49D01*
G01*
X566D02*
G03*
X615Y-1978I49J0D01*
G01*
X566Y-1654D02*
G03*
X615Y-1703I49J0D01*
G01*
X516Y-1702D02*
G03*
X465Y-1653I-49J0D01*
G01*
X468Y-1603D02*
G03*
X516Y-1555I0J48D01*
G01*
Y-1327D02*
G03*
X467Y-1278I-49J0D01*
G01*
X3366Y-2028D02*
G03*
X3316Y-2078I0J-50D01*
G01*
Y-2179D02*
G03*
X3366Y-2228I49J0D01*
G01*
X3217Y-2228D02*
G03*
X3266Y-2179I1J48D01*
G01*
X3266Y-2078D02*
G03*
X3216Y-2028I-50J0D01*
G01*
X1491Y-2178D02*
G03*
X1540Y-2228I50J0D01*
G01*
X1541Y-2028D02*
G03*
X1491Y-2078I0J-50D01*
G01*
X1392Y-2228D02*
G03*
X1441Y-2179I1J48D01*
G01*
X1441Y-2078D02*
G03*
X1391Y-2028I-50J0D01*
G01*
X3966Y-1928D02*
Y-1802D01*
X2766Y-1928D02*
Y-1803D01*
X3966Y-1653D02*
Y-1078D01*
X2766Y-1653D02*
Y-1078D01*
X-384Y-2178D02*
Y-1078D01*
X-334Y-2178D02*
Y-2078D01*
X3966Y-2178D02*
Y-2078D01*
X2716Y-1928D02*
Y-1803D01*
X2316Y-1928D02*
Y-1803D01*
X566Y-1928D02*
Y-1803D01*
X2266Y-1928D02*
Y-1803D01*
X566Y-1653D02*
Y-1328D01*
X2716Y-1653D02*
Y-1328D01*
Y-1178D02*
Y-1078D01*
X-334Y-1178D02*
Y-1078D01*
X516Y-1553D02*
Y-1328D01*
X-334Y-1553D02*
Y-1328D01*
X516Y-1928D02*
Y-1703D01*
X-334Y-1928D02*
Y-1703D01*
X4016Y-2178D02*
Y-1078D01*
X3316Y-2178D02*
Y-2078D01*
X3266Y-2178D02*
Y-2078D01*
X1491Y-2178D02*
Y-2078D01*
X1441Y-2178D02*
Y-2078D01*
X2816Y-1753D02*
X3916D01*
X2816Y-1703D02*
X3916D01*
X616D02*
X2666D01*
X2816Y-1028D02*
X3916D01*
X2816Y-1978D02*
X3916D01*
X2366Y-1753D02*
X2666D01*
X2366Y-1978D02*
X2666D01*
X616D02*
X2216D01*
X616Y-1753D02*
X2216D01*
X616Y-1278D02*
X2666D01*
X-284Y-1228D02*
X2666D01*
X-284Y-1278D02*
X466D01*
X-284Y-1603D02*
X466D01*
X-284Y-1653D02*
X466D01*
X-284Y-1978D02*
X466D01*
X-284Y-978D02*
X3916D01*
X-284Y-2278D02*
X3916D01*
X-284Y-1028D02*
X2666D01*
X3366Y-2028D02*
X3916D01*
X3366Y-2228D02*
X3916D01*
X1541Y-2028D02*
X3216D01*
X-284D02*
X1391D01*
X-284Y-2228D02*
X1391D01*
X1541D02*
X3216D01*
X3145Y-1365D02*
X3135Y-1354D01*
X3113D01*
X3103Y-1365D01*
Y-1375D01*
X3113Y-1386D01*
X3135D01*
X3145Y-1397D01*
Y-1407D01*
X3135Y-1418D01*
X3113D01*
X3103Y-1407D01*
X3167Y-1375D02*
Y-1407D01*
X3177Y-1418D01*
X3209D01*
Y-1375D01*
X3230Y-1418D02*
X3252D01*
X3241D01*
Y-1375D01*
X3230D01*
X3294Y-1365D02*
Y-1375D01*
X3284D01*
X3305D01*
X3294D01*
Y-1407D01*
X3305Y-1418D01*
X3369D02*
X3348D01*
X3337Y-1407D01*
Y-1386D01*
X3348Y-1375D01*
X3369D01*
X3380Y-1386D01*
Y-1397D01*
X3337D01*
X3465Y-1418D02*
X3486D01*
X3476D01*
Y-1354D01*
X3465Y-1365D01*
X3518Y-1418D02*
X3540D01*
X3529D01*
Y-1354D01*
X3518Y-1365D01*
X3572D02*
X3582Y-1354D01*
X3604D01*
X3614Y-1365D01*
Y-1375D01*
X3604Y-1386D01*
X3614Y-1397D01*
Y-1407D01*
X3604Y-1418D01*
X3582D01*
X3572Y-1407D01*
Y-1397D01*
X3582Y-1386D01*
X3572Y-1375D01*
Y-1365D01*
X3582Y-1386D02*
X3604D01*
X3065Y-1569D02*
X3023D01*
Y-1601D01*
X3044Y-1590D01*
X3055D01*
X3065Y-1601D01*
Y-1622D01*
X3055Y-1633D01*
X3033D01*
X3023Y-1622D01*
X3129Y-1569D02*
X3108Y-1580D01*
X3087Y-1601D01*
Y-1622D01*
X3097Y-1633D01*
X3118D01*
X3129Y-1622D01*
Y-1612D01*
X3118Y-1601D01*
X3087D01*
X3150Y-1633D02*
X3172D01*
X3161D01*
Y-1569D01*
X3150Y-1580D01*
X3204Y-1601D02*
X3246D01*
X3268Y-1622D02*
X3278Y-1633D01*
X3300D01*
X3310Y-1622D01*
Y-1580D01*
X3300Y-1569D01*
X3278D01*
X3268Y-1580D01*
Y-1590D01*
X3278Y-1601D01*
X3310D01*
X3332Y-1622D02*
X3342Y-1633D01*
X3364D01*
X3374Y-1622D01*
Y-1580D01*
X3364Y-1569D01*
X3342D01*
X3332Y-1580D01*
Y-1590D01*
X3342Y-1601D01*
X3374D01*
X3396Y-1622D02*
X3406Y-1633D01*
X3428D01*
X3438Y-1622D01*
Y-1580D01*
X3428Y-1569D01*
X3406D01*
X3396Y-1580D01*
Y-1590D01*
X3406Y-1601D01*
X3438D01*
X3460D02*
X3502D01*
X3524Y-1622D02*
X3534Y-1633D01*
X3556D01*
X3566Y-1622D01*
Y-1580D01*
X3556Y-1569D01*
X3534D01*
X3524Y-1580D01*
Y-1590D01*
X3534Y-1601D01*
X3566D01*
X3620Y-1633D02*
Y-1569D01*
X3588Y-1601D01*
X3630D01*
X3694Y-1633D02*
X3652D01*
X3694Y-1590D01*
Y-1580D01*
X3684Y-1569D01*
X3662D01*
X3652Y-1580D01*
X3758Y-1633D02*
X3716D01*
X3758Y-1590D01*
Y-1580D01*
X3748Y-1569D01*
X3726D01*
X3716Y-1580D01*
X2808Y-1302D02*
X2818Y-1313D01*
X2840D01*
X2850Y-1302D01*
Y-1260D01*
X2840Y-1249D01*
X2818D01*
X2808Y-1260D01*
Y-1270D01*
X2818Y-1281D01*
X2850D01*
X2872Y-1260D02*
X2882Y-1249D01*
X2903D01*
X2914Y-1260D01*
Y-1302D01*
X2903Y-1313D01*
X2882D01*
X2872Y-1302D01*
Y-1260D01*
X2978Y-1313D02*
X2935D01*
X2978Y-1270D01*
Y-1260D01*
X2967Y-1249D01*
X2946D01*
X2935Y-1260D01*
X3106D02*
X3095Y-1249D01*
X3074D01*
X3063Y-1260D01*
Y-1302D01*
X3074Y-1313D01*
X3095D01*
X3106Y-1302D01*
X3127Y-1313D02*
X3149D01*
X3138D01*
Y-1249D01*
X3127D01*
X3181Y-1313D02*
X3202D01*
X3191D01*
Y-1270D01*
X3181D01*
X3234Y-1313D02*
Y-1270D01*
X3266D01*
X3277Y-1281D01*
Y-1313D01*
X3309Y-1260D02*
Y-1270D01*
X3298D01*
X3319D01*
X3309D01*
Y-1302D01*
X3319Y-1313D01*
X3415D02*
Y-1249D01*
X3437Y-1270D01*
X3458Y-1249D01*
Y-1313D01*
X3490D02*
X3511D01*
X3522Y-1302D01*
Y-1281D01*
X3511Y-1270D01*
X3490D01*
X3479Y-1281D01*
Y-1302D01*
X3490Y-1313D01*
X3554D02*
X3575D01*
X3586Y-1302D01*
Y-1281D01*
X3575Y-1270D01*
X3554D01*
X3543Y-1281D01*
Y-1302D01*
X3554Y-1313D01*
X3607Y-1270D02*
Y-1313D01*
Y-1292D01*
X3618Y-1281D01*
X3629Y-1270D01*
X3639D01*
X3703Y-1313D02*
X3682D01*
X3671Y-1302D01*
Y-1281D01*
X3682Y-1270D01*
X3703D01*
X3714Y-1281D01*
Y-1292D01*
X3671D01*
X3799Y-1313D02*
Y-1249D01*
X3831D01*
X3842Y-1260D01*
Y-1281D01*
X3831Y-1292D01*
X3799D01*
X3821D02*
X3842Y-1313D01*
X3906Y-1249D02*
Y-1313D01*
X3874D01*
X3863Y-1302D01*
Y-1281D01*
X3874Y-1270D01*
X3906D01*
X3927Y-1313D02*
Y-1302D01*
X3938D01*
Y-1313D01*
X3927D01*
X2968Y-1449D02*
Y-1513D01*
X3000D01*
X3010Y-1502D01*
Y-1492D01*
X3000Y-1481D01*
X2968D01*
X3000D01*
X3010Y-1470D01*
Y-1460D01*
X3000Y-1449D01*
X2968D01*
X3042Y-1513D02*
X3063D01*
X3074Y-1502D01*
Y-1481D01*
X3063Y-1470D01*
X3042D01*
X3032Y-1481D01*
Y-1502D01*
X3042Y-1513D01*
X3138Y-1470D02*
X3106D01*
X3095Y-1481D01*
Y-1502D01*
X3106Y-1513D01*
X3138D01*
X3170Y-1470D02*
X3191D01*
X3202Y-1481D01*
Y-1513D01*
X3170D01*
X3159Y-1502D01*
X3170Y-1492D01*
X3202D01*
X3287Y-1513D02*
Y-1449D01*
X3319D01*
X3330Y-1460D01*
Y-1481D01*
X3319Y-1492D01*
X3287D01*
X3309D02*
X3330Y-1513D01*
X3362Y-1470D02*
X3383D01*
X3394Y-1481D01*
Y-1513D01*
X3362D01*
X3351Y-1502D01*
X3362Y-1492D01*
X3394D01*
X3426Y-1460D02*
Y-1470D01*
X3415D01*
X3437D01*
X3426D01*
Y-1502D01*
X3437Y-1513D01*
X3479D02*
X3501D01*
X3511Y-1502D01*
Y-1481D01*
X3501Y-1470D01*
X3479D01*
X3469Y-1481D01*
Y-1502D01*
X3479Y-1513D01*
X3533D02*
Y-1470D01*
X3565D01*
X3575Y-1481D01*
Y-1513D01*
X3703Y-1449D02*
X3661D01*
Y-1481D01*
X3682D01*
X3661D01*
Y-1513D01*
X3725Y-1449D02*
Y-1513D01*
X3767D01*
X3789D02*
Y-1502D01*
X3799D01*
Y-1513D01*
X3789D01*
D29*
X674Y659D02*
X694D01*
X635Y620D02*
X674Y659D01*
X635Y478D02*
Y620D01*
X533Y478D02*
Y604D01*
X613Y684D02*
X704D01*
X757Y258D02*
X815D01*
X849Y224D01*
X781Y280D02*
X819D01*
Y279D02*
X844Y254D01*
X974Y315D02*
X976Y317D01*
X974Y276D02*
Y315D01*
X952Y254D02*
X974Y276D01*
X804Y829D02*
X829Y854D01*
Y869D01*
X650Y829D02*
X804D01*
X635Y814D02*
X650Y829D01*
X574Y724D02*
X589D01*
X610Y745D01*
Y785D01*
X507Y676D02*
Y785D01*
Y676D02*
X509Y674D01*
X844Y254D02*
X952D01*
X724Y569D02*
Y664D01*
X704Y684D02*
X724Y664D01*
X724Y699D02*
X744Y679D01*
X635Y729D02*
X665Y699D01*
X665D02*
X724D01*
X759Y609D02*
Y704D01*
X682Y718D02*
X745D01*
X661Y739D02*
X682Y718D01*
X745D02*
X759Y704D01*
X661Y739D02*
Y785D01*
X709Y544D02*
X764Y489D01*
X789D01*
X899Y544D02*
X909Y534D01*
X779Y544D02*
X899D01*
X744Y579D02*
X779Y544D01*
X744Y579D02*
Y679D01*
X759Y609D02*
X789Y579D01*
X724Y569D02*
X774Y519D01*
X871D01*
X909Y481D01*
Y474D02*
Y481D01*
X879Y439D02*
X962D01*
X869Y429D02*
X879Y439D01*
X774Y429D02*
X869D01*
X639Y864D02*
X664D01*
X679Y879D01*
X584Y414D02*
X610Y440D01*
X749Y454D02*
X774Y429D01*
X694Y599D02*
X709Y584D01*
Y544D02*
Y584D01*
X482Y572D02*
Y785D01*
X449Y539D02*
X482Y572D01*
X449Y464D02*
Y539D01*
X899Y599D02*
X929Y629D01*
X420Y435D02*
X449Y464D01*
X841Y414D02*
X889D01*
X900Y403D01*
X924D01*
X962Y439D02*
X976Y425D01*
X340Y407D02*
X368Y435D01*
X420D01*
X835Y360D02*
Y408D01*
X841Y414D01*
X757Y305D02*
X781Y280D01*
X739Y276D02*
X757Y258D01*
X976Y403D02*
Y425D01*
X929Y629D02*
Y675D01*
X449Y779D02*
Y805D01*
X398Y846D02*
X449Y805D01*
X533Y645D02*
X534Y644D01*
X533Y645D02*
Y785D01*
X635Y729D02*
Y785D01*
Y814D01*
X610Y440D02*
Y478D01*
Y579D01*
X533Y604D02*
X588Y659D01*
X588Y660D01*
X613Y684D01*
X588Y659D02*
X589D01*
X124Y-1706D02*
Y-1747D01*
X122Y-1754D01*
X119Y-1757D01*
X114Y-1759D01*
X109D01*
X104Y-1757D01*
X101Y-1754D01*
X99Y-1747D01*
Y-1741D01*
X141Y-1754D02*
X138Y-1757D01*
X141Y-1759D01*
X143Y-1757D01*
X141Y-1754D01*
X155Y-1706D02*
Y-1759D01*
Y-1706D02*
X190Y-1759D01*
Y-1706D02*
Y-1759D01*
D30*
X864Y279D02*
Y314D01*
X829Y454D02*
X849Y474D01*
X784Y454D02*
X829D01*
X849Y474D02*
Y489D01*
X345Y82D02*
Y116D01*
X445Y82D02*
Y111D01*
X395Y273D02*
Y306D01*
X340Y347D02*
X345Y342D01*
X335Y690D02*
Y741D01*
X602Y152D02*
X602Y152D01*
Y214D01*
X702Y-6D02*
Y19D01*
X730Y47D01*
X864Y689D02*
X880Y705D01*
X900D01*
X889Y716D02*
Y759D01*
Y716D02*
X900Y705D01*
X849Y799D02*
X889Y759D01*
X937Y599D02*
X959Y621D01*
Y645D01*
X372Y656D02*
Y690D01*
X400Y585D02*
Y626D01*
X372Y656D02*
X401Y627D01*
X340Y525D02*
X400Y585D01*
X552Y81D02*
X554Y79D01*
X48Y304D02*
Y354D01*
X552Y81D02*
Y139D01*
Y214D01*
X969Y474D02*
Y534D01*
Y564D01*
X345Y273D02*
Y307D01*
Y342D01*
X444Y273D02*
Y274D01*
Y307D01*
X206Y644D02*
Y674D01*
Y702D01*
D31*
X872Y152D02*
X909Y189D01*
Y224D01*
X979D02*
X984Y229D01*
X909Y224D02*
X979D01*
X848Y29D02*
Y83D01*
X872Y107D01*
Y152D01*
X695Y79D02*
X724Y108D01*
Y152D01*
X913Y-36D02*
X948D01*
X444Y26D02*
X475D01*
X500Y1D01*
Y25D01*
X554Y79D01*
X695D01*
X885Y-8D02*
X913Y-36D01*
X848Y29D02*
X885Y-8D01*
D32*
X809Y-34D02*
Y21D01*
X784Y-34D02*
Y21D01*
X758Y-34D02*
Y21D01*
X847Y-8D02*
X885D01*
X835Y-20D02*
X847Y-8D01*
X835Y-34D02*
Y-20D01*
X749Y403D02*
X759Y393D01*
X795D02*
X804Y384D01*
X712Y785D02*
X743D01*
X943Y285D02*
X950Y292D01*
Y403D01*
X893Y285D02*
X943D01*
X758Y21D02*
Y153D01*
X864Y314D02*
X893Y285D01*
X95Y40D02*
X109Y54D01*
Y90D01*
X280Y407D02*
X340D01*
X47Y62D02*
X77Y32D01*
X104Y95D02*
X109Y90D01*
X47Y95D02*
X104D01*
X75Y150D02*
X109D01*
X104Y204D02*
X110Y210D01*
Y270D02*
X150Y230D01*
Y129D02*
Y230D01*
Y129D02*
X185Y94D01*
X110Y270D02*
Y327D01*
X242D01*
X759Y393D02*
X773D01*
X795D01*
X44Y139D02*
Y146D01*
Y194D01*
Y198D01*
X48Y204D02*
X104D01*
X77Y32D02*
X95D01*
X145D01*
X47Y62D02*
Y86D01*
Y95D01*
X13Y253D02*
X48D01*
X758Y21D02*
X784D01*
X809D01*
D33*
X650Y414D02*
X670Y435D01*
X644Y414D02*
X650D01*
X0Y0D02*
X19Y-19D01*
X712Y450D02*
X723Y439D01*
X712Y450D02*
Y478D01*
X400Y626D02*
X401Y627D01*
X959Y705D02*
Y779D01*
X690Y360D02*
X708D01*
X723Y375D01*
X929Y675D02*
X959Y705D01*
X185Y265D02*
X220D01*
X255D01*
X220Y236D02*
Y265D01*
X19Y-19D02*
X95D01*
X165D01*
X219D01*
X950Y789D02*
X959Y779D01*
X949Y789D02*
X950Y789D01*
X295Y82D02*
X345D01*
X295D02*
Y189D01*
Y207D01*
Y307D01*
X313Y189D02*
X325D01*
X395D01*
X467D01*
X475D01*
X445Y82D02*
X490D01*
Y189D01*
Y240D01*
Y307D01*
X295D02*
X345D01*
X395D01*
X444D01*
X490D01*
X723Y375D02*
Y403D01*
Y439D01*
X2858Y-1208D02*
Y-1141D01*
X2891Y-1108D01*
X2924Y-1141D01*
Y-1208D01*
Y-1158D01*
X2858D01*
X3024Y-1141D02*
X2974D01*
X2957Y-1158D01*
Y-1191D01*
X2974Y-1208D01*
X3024D01*
X3074Y-1125D02*
Y-1141D01*
X3057D01*
X3091D01*
X3074D01*
Y-1191D01*
X3091Y-1208D01*
X3141D02*
X3174D01*
X3157D01*
Y-1141D01*
X3141D01*
X3224D02*
X3257Y-1208D01*
X3291Y-1141D01*
X3374Y-1208D02*
X3341D01*
X3324Y-1191D01*
Y-1158D01*
X3341Y-1141D01*
X3374D01*
X3391Y-1158D01*
Y-1175D01*
X3324D01*
X3524Y-1108D02*
Y-1208D01*
X3557Y-1175D01*
X3591Y-1208D01*
Y-1108D01*
X3641Y-1141D02*
X3674D01*
X3691Y-1158D01*
Y-1208D01*
X3641D01*
X3624Y-1191D01*
X3641Y-1175D01*
X3691D01*
X3724Y-1141D02*
X3757Y-1208D01*
X3791Y-1141D01*
X3874Y-1208D02*
X3841D01*
X3824Y-1191D01*
Y-1158D01*
X3841Y-1141D01*
X3874D01*
X3891Y-1158D01*
Y-1175D01*
X3824D01*
D34*
X300Y441D02*
Y844D01*
X758Y153D02*
Y217D01*
X770D01*
X-37Y438D02*
Y877D01*
X48Y413D02*
X77Y442D01*
X181Y473D02*
X182Y472D01*
X77Y442D02*
Y465D01*
X83Y471D01*
X-37Y438D02*
X-12D01*
X23D01*
X-37Y877D02*
X4D01*
X24D01*
X44D01*
X64D01*
X84D01*
X104D01*
X124D01*
X144D01*
X164D01*
X184D01*
X204D01*
X224D01*
X244D01*
X264D01*
X267D01*
X4Y844D02*
X24D01*
X44D01*
X64D01*
X84D01*
X104D01*
X124D01*
X144D01*
X164D01*
X184D01*
X204D01*
X224D01*
X244D01*
X264D01*
X300D01*
X77Y442D02*
X182D01*
X296D01*
X182D02*
Y472D01*
X48Y354D02*
Y403D01*
Y413D01*
D35*
X23Y591D02*
X65D01*
X38Y706D02*
X153D01*
X23Y691D02*
X38Y706D01*
X23Y651D02*
Y691D01*
X-12Y616D02*
X23Y651D01*
X-12Y566D02*
Y616D01*
Y566D02*
X23Y531D01*
X98Y646D02*
X153D01*
X-12Y304D02*
Y354D01*
Y403D01*
D36*
X885Y52D02*
X947D01*
X950Y49D01*
D37*
X4Y844D02*
Y877D01*
X44Y844D02*
Y877D01*
X24Y844D02*
Y877D01*
X64Y844D02*
Y877D01*
X144Y844D02*
Y877D01*
X164Y844D02*
Y877D01*
X84Y844D02*
Y877D01*
X124Y844D02*
Y877D01*
X104Y844D02*
Y877D01*
X244Y844D02*
Y877D01*
X264Y844D02*
Y877D01*
X184Y844D02*
Y877D01*
X224Y844D02*
Y877D01*
X204Y844D02*
Y877D01*
X180Y-230D02*
X165Y-190D01*
X150Y-230D01*
X156Y-217D02*
X175D01*
X218Y-200D02*
X216Y-196D01*
X213Y-192D01*
X209Y-190D01*
X201D01*
X197Y-192D01*
X194Y-196D01*
X192Y-200D01*
X190Y-205D01*
Y-215D01*
X192Y-220D01*
X194Y-224D01*
X197Y-228D01*
X201Y-230D01*
X209D01*
X213Y-228D01*
X216Y-224D01*
X218Y-220D01*
X243Y-190D02*
Y-230D01*
X230Y-190D02*
X256D01*
X261D02*
Y-230D01*
X269Y-190D02*
X285Y-230D01*
X300Y-190D02*
X285Y-230D01*
X330Y-190D02*
X305D01*
Y-230D01*
X330D01*
X305Y-209D02*
X320D01*
X336Y-190D02*
X346Y-230D01*
X355Y-190D02*
X346Y-230D01*
X355Y-190D02*
X365Y-230D01*
X375Y-190D02*
X365Y-230D01*
X413D02*
X398Y-190D01*
X383Y-230D01*
X388Y-217D02*
X407D01*
X422Y-190D02*
X438Y-230D01*
X453Y-190D02*
X438Y-230D01*
X483Y-190D02*
X458D01*
Y-230D01*
X483D01*
X458Y-209D02*
X473D01*
X489Y-190D02*
Y-230D01*
X498Y-190D02*
Y-230D01*
Y-190D02*
X524Y-230D01*
Y-190D02*
Y-230D01*
X564Y-200D02*
X562Y-196D01*
X558Y-192D01*
X554Y-190D01*
X547D01*
X543Y-192D01*
X539Y-196D01*
X537Y-200D01*
X535Y-205D01*
Y-215D01*
X537Y-220D01*
X539Y-224D01*
X543Y-228D01*
X547Y-230D01*
X554D01*
X558Y-228D01*
X562Y-224D01*
X564Y-220D01*
X577Y-226D02*
X575Y-228D01*
X577Y-230D01*
X579Y-228D01*
X577Y-226D01*
X616Y-200D02*
X614Y-196D01*
X611Y-192D01*
X607Y-190D01*
X599D01*
X595Y-192D01*
X592Y-196D01*
X590Y-200D01*
X588Y-205D01*
Y-215D01*
X590Y-220D01*
X592Y-224D01*
X595Y-228D01*
X599Y-230D01*
X607D01*
X611Y-228D01*
X614Y-224D01*
X616Y-220D01*
X639Y-190D02*
X635Y-192D01*
X631Y-196D01*
X630Y-200D01*
X628Y-205D01*
Y-215D01*
X630Y-220D01*
X631Y-224D01*
X635Y-228D01*
X639Y-230D01*
X647D01*
X650Y-228D01*
X654Y-224D01*
X656Y-220D01*
X658Y-215D01*
Y-205D01*
X656Y-200D01*
X654Y-196D01*
X650Y-192D01*
X647Y-190D01*
X639D01*
X667D02*
Y-230D01*
Y-190D02*
X683Y-230D01*
X698Y-190D02*
X683Y-230D01*
X698Y-190D02*
Y-230D01*
X253Y-260D02*
Y-300D01*
X240Y-260D02*
X267D01*
X302Y-300D02*
X287Y-260D01*
X271Y-300D01*
X277Y-287D02*
X296D01*
X340Y-270D02*
X338Y-266D01*
X334Y-262D01*
X330Y-260D01*
X323D01*
X319Y-262D01*
X315Y-266D01*
X313Y-270D01*
X311Y-275D01*
Y-285D01*
X313Y-290D01*
X315Y-294D01*
X319Y-298D01*
X323Y-300D01*
X330D01*
X334Y-298D01*
X338Y-294D01*
X340Y-290D01*
Y-285D01*
X330D02*
X340D01*
X349Y-268D02*
X353Y-266D01*
X358Y-260D01*
Y-300D01*
X390Y-260D02*
X384Y-262D01*
X380Y-268D01*
X378Y-277D01*
Y-283D01*
X380Y-292D01*
X384Y-298D01*
X390Y-300D01*
X393D01*
X399Y-298D01*
X403Y-292D01*
X405Y-283D01*
Y-277D01*
X403Y-268D01*
X399Y-262D01*
X393Y-260D01*
X390D01*
X418D02*
X439D01*
X427Y-275D01*
X433D01*
X437Y-277D01*
X439Y-279D01*
X441Y-285D01*
Y-289D01*
X439Y-294D01*
X435Y-298D01*
X429Y-300D01*
X423D01*
X418Y-298D01*
X416Y-296D01*
X414Y-292D01*
X481Y-260D02*
Y-300D01*
Y-260D02*
X498D01*
X504Y-262D01*
X506Y-264D01*
X508Y-268D01*
Y-271D01*
X506Y-275D01*
X504Y-277D01*
X498Y-279D01*
X481D01*
X494D02*
X508Y-300D01*
X541Y-260D02*
X517D01*
Y-300D01*
X541D01*
X517Y-279D02*
X532D01*
X548Y-260D02*
X563Y-300D01*
X578Y-260D02*
X563Y-300D01*
X584Y-268D02*
X587Y-266D01*
X593Y-260D01*
Y-300D01*
X636Y-260D02*
X617D01*
X615Y-277D01*
X617Y-275D01*
X622Y-273D01*
X628D01*
X634Y-275D01*
X638Y-279D01*
X640Y-285D01*
Y-289D01*
X638Y-294D01*
X634Y-298D01*
X628Y-300D01*
X622D01*
X617Y-298D01*
X615Y-296D01*
X613Y-292D01*
D38*
X193Y-2122D02*
Y-2175D01*
X175Y-2122D02*
X211D01*
X247Y-2139D02*
Y-2175D01*
Y-2147D02*
X242Y-2142D01*
X237Y-2139D01*
X230D01*
X225Y-2142D01*
X219Y-2147D01*
X217Y-2155D01*
Y-2160D01*
X219Y-2167D01*
X225Y-2172D01*
X230Y-2175D01*
X237D01*
X242Y-2172D01*
X247Y-2167D01*
X292Y-2139D02*
Y-2180D01*
X290Y-2188D01*
X287Y-2190D01*
X282Y-2193D01*
X274D01*
X269Y-2190D01*
X292Y-2147D02*
X287Y-2142D01*
X282Y-2139D01*
X274D01*
X269Y-2142D01*
X264Y-2147D01*
X262Y-2155D01*
Y-2160D01*
X264Y-2167D01*
X269Y-2172D01*
X274Y-2175D01*
X282D01*
X287Y-2172D01*
X292Y-2167D01*
X306Y-2132D02*
X311Y-2129D01*
X319Y-2122D01*
Y-2175D01*
X361Y-2122D02*
X353Y-2124D01*
X348Y-2132D01*
X345Y-2145D01*
Y-2152D01*
X348Y-2165D01*
X353Y-2172D01*
X361Y-2175D01*
X366D01*
X373Y-2172D01*
X378Y-2165D01*
X381Y-2152D01*
Y-2145D01*
X378Y-2132D01*
X373Y-2124D01*
X366Y-2122D01*
X361D01*
X398D02*
X426D01*
X411Y-2142D01*
X418D01*
X423Y-2145D01*
X426Y-2147D01*
X428Y-2155D01*
Y-2160D01*
X426Y-2167D01*
X421Y-2172D01*
X413Y-2175D01*
X406D01*
X398Y-2172D01*
X395Y-2170D01*
X393Y-2165D01*
X482Y-2122D02*
Y-2175D01*
Y-2122D02*
X505D01*
X513Y-2124D01*
X515Y-2127D01*
X518Y-2132D01*
Y-2137D01*
X515Y-2142D01*
X513Y-2145D01*
X505Y-2147D01*
X482D01*
X500D02*
X518Y-2175D01*
X530Y-2155D02*
X560D01*
Y-2150D01*
X558Y-2145D01*
X555Y-2142D01*
X550Y-2139D01*
X542D01*
X537Y-2142D01*
X532Y-2147D01*
X530Y-2155D01*
Y-2160D01*
X532Y-2167D01*
X537Y-2172D01*
X542Y-2175D01*
X550D01*
X555Y-2172D01*
X560Y-2167D01*
X572Y-2139D02*
X587Y-2175D01*
X602Y-2139D02*
X587Y-2175D01*
X611Y-2132D02*
X616Y-2129D01*
X623Y-2122D01*
Y-2175D01*
X680Y-2122D02*
X655D01*
X652Y-2145D01*
X655Y-2142D01*
X663Y-2139D01*
X670D01*
X678Y-2142D01*
X683Y-2147D01*
X685Y-2155D01*
Y-2160D01*
X683Y-2167D01*
X678Y-2172D01*
X670Y-2175D01*
X663D01*
X655Y-2172D01*
X652Y-2170D01*
X650Y-2165D01*
X700Y-2170D02*
X697Y-2172D01*
X700Y-2175D01*
X702Y-2172D01*
X700Y-2170D01*
X714Y-2150D02*
X737D01*
X745Y-2147D01*
X747Y-2145D01*
X750Y-2139D01*
Y-2132D01*
X747Y-2127D01*
X745Y-2124D01*
X737Y-2122D01*
X714D01*
Y-2175D01*
X800Y-2134D02*
X797Y-2129D01*
X792Y-2124D01*
X787Y-2122D01*
X777D01*
X772Y-2124D01*
X767Y-2129D01*
X764Y-2134D01*
X762Y-2142D01*
Y-2155D01*
X764Y-2162D01*
X767Y-2167D01*
X772Y-2172D01*
X777Y-2175D01*
X787D01*
X792Y-2172D01*
X797Y-2167D01*
X800Y-2162D01*
X815Y-2122D02*
Y-2175D01*
Y-2122D02*
X837D01*
X845Y-2124D01*
X848Y-2127D01*
X850Y-2132D01*
Y-2137D01*
X848Y-2142D01*
X845Y-2145D01*
X837Y-2147D01*
X815D02*
X837D01*
X845Y-2150D01*
X848Y-2152D01*
X850Y-2157D01*
Y-2165D01*
X848Y-2170D01*
X845Y-2172D01*
X837Y-2175D01*
X815D01*
X2816Y-1787D02*
Y-1841D01*
Y-1787D02*
X2834D01*
X2841Y-1790D01*
X2846Y-1795D01*
X2849Y-1800D01*
X2851Y-1808D01*
Y-1820D01*
X2849Y-1828D01*
X2846Y-1833D01*
X2841Y-1838D01*
X2834Y-1841D01*
X2816D01*
X2904D02*
X2884Y-1787D01*
X2863Y-1841D01*
X2871Y-1823D02*
X2896D01*
X2934Y-1787D02*
Y-1841D01*
X2916Y-1787D02*
X2952D01*
X2991D02*
X2958D01*
Y-1841D01*
X2991D01*
X2958Y-1813D02*
X2979D01*
X3003Y-1805D02*
X3000Y-1808D01*
X3003Y-1810D01*
X3005Y-1808D01*
X3003Y-1805D01*
Y-1836D02*
X3000Y-1838D01*
X3003Y-1841D01*
X3005Y-1838D01*
X3003Y-1836D01*
X2353Y-1787D02*
Y-1841D01*
Y-1787D02*
X2376D01*
X2384Y-1790D01*
X2386Y-1792D01*
X2389Y-1798D01*
Y-1803D01*
X2386Y-1808D01*
X2384Y-1810D01*
X2376Y-1813D01*
X2353D01*
X2371D02*
X2389Y-1841D01*
X2434Y-1787D02*
X2401D01*
Y-1841D01*
X2434D01*
X2401Y-1813D02*
X2421D01*
X2443Y-1787D02*
X2463Y-1841D01*
X2483Y-1787D02*
X2463Y-1841D01*
X2493Y-1805D02*
X2490Y-1808D01*
X2493Y-1810D01*
X2495Y-1808D01*
X2493Y-1805D01*
Y-1836D02*
X2490Y-1838D01*
X2493Y-1841D01*
X2495Y-1838D01*
X2493Y-1836D01*
X-284Y-1540D02*
X-261D01*
X-254Y-1538D01*
X-251Y-1535D01*
X-249Y-1530D01*
Y-1523D01*
X-251Y-1517D01*
X-254Y-1515D01*
X-261Y-1512D01*
X-284D01*
Y-1566D01*
X-237Y-1512D02*
Y-1566D01*
X-201Y-1512D02*
Y-1566D01*
X-237Y-1538D02*
X-201D01*
X-171Y-1512D02*
X-176Y-1515D01*
X-181Y-1520D01*
X-184Y-1525D01*
X-186Y-1533D01*
Y-1545D01*
X-184Y-1553D01*
X-181Y-1558D01*
X-176Y-1563D01*
X-171Y-1566D01*
X-161D01*
X-156Y-1563D01*
X-151Y-1558D01*
X-148Y-1553D01*
X-146Y-1545D01*
Y-1533D01*
X-148Y-1525D01*
X-151Y-1520D01*
X-156Y-1515D01*
X-161Y-1512D01*
X-171D01*
X-133D02*
Y-1566D01*
Y-1512D02*
X-98Y-1566D01*
Y-1512D02*
Y-1566D01*
X-50Y-1512D02*
X-83D01*
Y-1566D01*
X-50D01*
X-83Y-1538D02*
X-63D01*
X-39Y-1530D02*
X-41Y-1533D01*
X-39Y-1535D01*
X-36Y-1533D01*
X-39Y-1530D01*
Y-1561D02*
X-41Y-1563D01*
X-39Y-1566D01*
X-36Y-1563D01*
X-39Y-1561D01*
X-284Y-1915D02*
X-261D01*
X-254Y-1913D01*
X-251Y-1910D01*
X-249Y-1905D01*
Y-1898D01*
X-251Y-1892D01*
X-254Y-1890D01*
X-261Y-1887D01*
X-284D01*
Y-1941D01*
X-237Y-1887D02*
Y-1941D01*
X-201Y-1887D02*
Y-1941D01*
X-237Y-1913D02*
X-201D01*
X-171Y-1887D02*
X-176Y-1890D01*
X-181Y-1895D01*
X-184Y-1900D01*
X-186Y-1908D01*
Y-1920D01*
X-184Y-1928D01*
X-181Y-1933D01*
X-176Y-1938D01*
X-171Y-1941D01*
X-161D01*
X-156Y-1938D01*
X-151Y-1933D01*
X-148Y-1928D01*
X-146Y-1920D01*
Y-1908D01*
X-148Y-1900D01*
X-151Y-1895D01*
X-156Y-1890D01*
X-161Y-1887D01*
X-171D01*
X-133D02*
Y-1941D01*
Y-1887D02*
X-98Y-1941D01*
Y-1887D02*
Y-1941D01*
X-50Y-1887D02*
X-83D01*
Y-1941D01*
X-50D01*
X-83Y-1913D02*
X-63D01*
X-39Y-1905D02*
X-41Y-1908D01*
X-39Y-1910D01*
X-36Y-1908D01*
X-39Y-1905D01*
Y-1936D02*
X-41Y-1938D01*
X-39Y-1941D01*
X-36Y-1938D01*
X-39Y-1936D01*
X1556Y-2065D02*
Y-2118D01*
X1586D01*
X1633D02*
X1613Y-2065D01*
X1592Y-2118D01*
X1600Y-2100D02*
X1625D01*
X1645Y-2065D02*
X1666Y-2090D01*
Y-2118D01*
X1686Y-2065D02*
X1666Y-2090D01*
X1726Y-2065D02*
X1693D01*
Y-2118D01*
X1726D01*
X1693Y-2090D02*
X1713D01*
X1735Y-2065D02*
Y-2118D01*
Y-2065D02*
X1758D01*
X1765Y-2067D01*
X1768Y-2070D01*
X1770Y-2075D01*
Y-2080D01*
X1768Y-2085D01*
X1765Y-2088D01*
X1758Y-2090D01*
X1735D01*
X1752D02*
X1770Y-2118D01*
X1785Y-2083D02*
X1782Y-2085D01*
X1785Y-2088D01*
X1787Y-2085D01*
X1785Y-2083D01*
Y-2113D02*
X1782Y-2116D01*
X1785Y-2118D01*
X1787Y-2116D01*
X1785Y-2113D01*
X-251Y-1325D02*
X-284D01*
Y-1378D01*
X-251D01*
X-284Y-1350D02*
X-264D01*
X-242Y-1325D02*
Y-1378D01*
Y-1325D02*
X-207Y-1378D01*
Y-1325D02*
Y-1378D01*
X-154Y-1338D02*
X-156Y-1332D01*
X-161Y-1327D01*
X-167Y-1325D01*
X-177D01*
X-182Y-1327D01*
X-187Y-1332D01*
X-189Y-1338D01*
X-192Y-1345D01*
Y-1358D01*
X-189Y-1365D01*
X-187Y-1371D01*
X-182Y-1376D01*
X-177Y-1378D01*
X-167D01*
X-161Y-1376D01*
X-156Y-1371D01*
X-154Y-1365D01*
Y-1358D01*
X-167D02*
X-154D01*
X-142Y-1325D02*
Y-1378D01*
X-130Y-1325D02*
Y-1378D01*
Y-1325D02*
X-95Y-1378D01*
Y-1325D02*
Y-1378D01*
X-47Y-1325D02*
X-80D01*
Y-1378D01*
X-47D01*
X-80Y-1350D02*
X-60D01*
X-5Y-1325D02*
X-38D01*
Y-1378D01*
X-5D01*
X-38Y-1350D02*
X-18D01*
X4Y-1325D02*
Y-1378D01*
Y-1325D02*
X26D01*
X34Y-1327D01*
X37Y-1330D01*
X39Y-1335D01*
Y-1340D01*
X37Y-1345D01*
X34Y-1348D01*
X26Y-1350D01*
X4D01*
X21D02*
X39Y-1378D01*
X54Y-1343D02*
X51Y-1345D01*
X54Y-1348D01*
X56Y-1345D01*
X54Y-1343D01*
Y-1373D02*
X51Y-1376D01*
X54Y-1378D01*
X56Y-1376D01*
X54Y-1373D01*
X616Y-1815D02*
X639D01*
X646Y-1813D01*
X649Y-1810D01*
X651Y-1805D01*
Y-1798D01*
X649Y-1792D01*
X646Y-1790D01*
X639Y-1787D01*
X616D01*
Y-1841D01*
X704D02*
X684Y-1787D01*
X663Y-1841D01*
X671Y-1823D02*
X696D01*
X716Y-1787D02*
Y-1841D01*
Y-1787D02*
X739D01*
X747Y-1790D01*
X749Y-1792D01*
X752Y-1798D01*
Y-1803D01*
X749Y-1808D01*
X747Y-1810D01*
X739Y-1813D01*
X716D01*
X734D02*
X752Y-1841D01*
X782Y-1787D02*
Y-1841D01*
X764Y-1787D02*
X800D01*
X848D02*
Y-1841D01*
Y-1787D02*
X883Y-1841D01*
Y-1787D02*
Y-1841D01*
X913Y-1787D02*
X908Y-1790D01*
X903Y-1795D01*
X901Y-1800D01*
X898Y-1808D01*
Y-1820D01*
X901Y-1828D01*
X903Y-1833D01*
X908Y-1838D01*
X913Y-1841D01*
X923D01*
X928Y-1838D01*
X934Y-1833D01*
X936Y-1828D01*
X939Y-1820D01*
Y-1808D01*
X936Y-1800D01*
X934Y-1795D01*
X928Y-1790D01*
X923Y-1787D01*
X913D01*
X954Y-1836D02*
X951Y-1838D01*
X954Y-1841D01*
X956Y-1838D01*
X954Y-1836D01*
X970Y-1805D02*
X968Y-1808D01*
X970Y-1810D01*
X973Y-1808D01*
X970Y-1805D01*
Y-1836D02*
X968Y-1838D01*
X970Y-1841D01*
X973Y-1838D01*
X970Y-1836D01*
X621Y-1312D02*
Y-1366D01*
X603Y-1312D02*
X639D01*
X645D02*
Y-1366D01*
X674Y-1312D02*
Y-1366D01*
X656Y-1312D02*
X692D01*
X698D02*
Y-1366D01*
X729D01*
X768Y-1312D02*
X735D01*
Y-1366D01*
X768D01*
X735Y-1338D02*
X755D01*
X779Y-1330D02*
X777Y-1333D01*
X779Y-1335D01*
X782Y-1333D01*
X779Y-1330D01*
Y-1361D02*
X777Y-1363D01*
X779Y-1366D01*
X782Y-1363D01*
X779Y-1361D01*
X-284Y-1705D02*
Y-1758D01*
Y-1705D02*
X-266D01*
X-259Y-1707D01*
X-254Y-1712D01*
X-251Y-1718D01*
X-249Y-1725D01*
Y-1738D01*
X-251Y-1745D01*
X-254Y-1751D01*
X-259Y-1756D01*
X-266Y-1758D01*
X-284D01*
X-237Y-1723D02*
Y-1758D01*
Y-1738D02*
X-234Y-1730D01*
X-229Y-1725D01*
X-224Y-1723D01*
X-216D01*
X-181D02*
Y-1758D01*
Y-1730D02*
X-186Y-1725D01*
X-191Y-1723D01*
X-199D01*
X-204Y-1725D01*
X-209Y-1730D01*
X-211Y-1738D01*
Y-1743D01*
X-209Y-1751D01*
X-204Y-1756D01*
X-199Y-1758D01*
X-191D01*
X-186Y-1756D01*
X-181Y-1751D01*
X-167Y-1723D02*
X-157Y-1758D01*
X-146Y-1723D02*
X-157Y-1758D01*
X-146Y-1723D02*
X-136Y-1758D01*
X-126Y-1723D02*
X-136Y-1758D01*
X-114Y-1723D02*
Y-1758D01*
Y-1733D02*
X-106Y-1725D01*
X-101Y-1723D01*
X-93D01*
X-88Y-1725D01*
X-86Y-1733D01*
Y-1758D01*
X-30Y-1705D02*
Y-1758D01*
Y-1730D02*
X-25Y-1725D01*
X-20Y-1723D01*
X-12D01*
X-7Y-1725D01*
X-2Y-1730D01*
X1Y-1738D01*
Y-1743D01*
X-2Y-1751D01*
X-7Y-1756D01*
X-12Y-1758D01*
X-20D01*
X-25Y-1756D01*
X-30Y-1751D01*
X15Y-1723D02*
X30Y-1758D01*
X45Y-1723D02*
X30Y-1758D01*
X25Y-1768D01*
X20Y-1773D01*
X15Y-1776D01*
X12D01*
X56Y-1723D02*
X54Y-1725D01*
X56Y-1728D01*
X59Y-1725D01*
X56Y-1723D01*
Y-1753D02*
X54Y-1756D01*
X56Y-1758D01*
X59Y-1756D01*
X56Y-1753D01*
X-284Y-2065D02*
Y-2118D01*
Y-2065D02*
X-251D01*
X-284Y-2090D02*
X-264D01*
X-245Y-2065D02*
Y-2118D01*
X-234Y-2065D02*
Y-2118D01*
X-203D01*
X-164Y-2065D02*
X-197D01*
Y-2118D01*
X-164D01*
X-197Y-2090D02*
X-177D01*
X-114Y-2065D02*
Y-2118D01*
Y-2065D02*
X-78Y-2118D01*
Y-2065D02*
Y-2118D01*
X-23D02*
X-43Y-2065D01*
X-63Y-2118D01*
X-56Y-2100D02*
X-30D01*
X-10Y-2065D02*
Y-2118D01*
Y-2065D02*
X10Y-2118D01*
X30Y-2065D02*
X10Y-2118D01*
X30Y-2065D02*
Y-2118D01*
X79Y-2065D02*
X46D01*
Y-2118D01*
X79D01*
X46Y-2090D02*
X66D01*
X90Y-2083D02*
X87Y-2085D01*
X90Y-2088D01*
X92Y-2085D01*
X90Y-2083D01*
Y-2113D02*
X87Y-2116D01*
X90Y-2118D01*
X92Y-2116D01*
X90Y-2113D01*
X3414Y-2078D02*
X3411Y-2072D01*
X3406Y-2067D01*
X3401Y-2065D01*
X3391D01*
X3386Y-2067D01*
X3381Y-2072D01*
X3378Y-2078D01*
X3376Y-2085D01*
Y-2098D01*
X3378Y-2105D01*
X3381Y-2111D01*
X3386Y-2116D01*
X3391Y-2118D01*
X3401D01*
X3406Y-2116D01*
X3411Y-2111D01*
X3414Y-2105D01*
Y-2098D01*
X3401D02*
X3414D01*
X3459Y-2065D02*
X3426D01*
Y-2118D01*
X3459D01*
X3426Y-2090D02*
X3447D01*
X3468Y-2065D02*
Y-2118D01*
Y-2065D02*
X3491D01*
X3499Y-2067D01*
X3501Y-2070D01*
X3504Y-2075D01*
Y-2080D01*
X3501Y-2085D01*
X3499Y-2088D01*
X3491Y-2090D01*
X3468D01*
X3486D02*
X3504Y-2118D01*
X3516Y-2065D02*
Y-2118D01*
Y-2065D02*
X3538D01*
X3546Y-2067D01*
X3549Y-2070D01*
X3551Y-2075D01*
Y-2080D01*
X3549Y-2085D01*
X3546Y-2088D01*
X3538Y-2090D01*
X3516D02*
X3538D01*
X3546Y-2093D01*
X3549Y-2095D01*
X3551Y-2100D01*
Y-2108D01*
X3549Y-2113D01*
X3546Y-2116D01*
X3538Y-2118D01*
X3516D01*
X3596Y-2065D02*
X3563D01*
Y-2118D01*
X3596D01*
X3563Y-2090D02*
X3583D01*
X3605Y-2065D02*
Y-2118D01*
Y-2065D02*
X3628D01*
X3635Y-2067D01*
X3638Y-2070D01*
X3640Y-2075D01*
Y-2080D01*
X3638Y-2085D01*
X3635Y-2088D01*
X3628Y-2090D01*
X3605D01*
X3623D02*
X3640Y-2118D01*
X3655Y-2083D02*
X3652Y-2085D01*
X3655Y-2088D01*
X3658Y-2085D01*
X3655Y-2083D01*
Y-2113D02*
X3652Y-2116D01*
X3655Y-2118D01*
X3658Y-2116D01*
X3655Y-2113D01*
D39*
X3256Y-1840D02*
X3231Y-1876D01*
X3269D01*
X3256Y-1840D02*
Y-1894D01*
X3278Y-1901D02*
X3314Y-1840D01*
X3317Y-1850D02*
X3322Y-1848D01*
X3330Y-1840D01*
Y-1894D01*
X3392Y-1840D02*
X3367Y-1894D01*
X3356Y-1840D02*
X3392D01*
X3404Y-1901D02*
X3439Y-1840D01*
X3446Y-1853D02*
Y-1850D01*
X3448Y-1845D01*
X3451Y-1843D01*
X3456Y-1840D01*
X3466D01*
X3471Y-1843D01*
X3473Y-1845D01*
X3476Y-1850D01*
Y-1856D01*
X3473Y-1861D01*
X3468Y-1868D01*
X3443Y-1894D01*
X3479D01*
X3506Y-1840D02*
X3498Y-1843D01*
X3493Y-1850D01*
X3490Y-1863D01*
Y-1871D01*
X3493Y-1883D01*
X3498Y-1891D01*
X3506Y-1894D01*
X3511D01*
X3518Y-1891D01*
X3523Y-1883D01*
X3526Y-1871D01*
Y-1863D01*
X3523Y-1850D01*
X3518Y-1843D01*
X3511Y-1840D01*
X3506D01*
X3553D02*
X3546Y-1843D01*
X3540Y-1850D01*
X3538Y-1863D01*
Y-1871D01*
X3540Y-1883D01*
X3546Y-1891D01*
X3553Y-1894D01*
X3558D01*
X3566Y-1891D01*
X3571Y-1883D01*
X3573Y-1871D01*
Y-1863D01*
X3571Y-1850D01*
X3566Y-1843D01*
X3558Y-1840D01*
X3553D01*
X3598D02*
X3590Y-1843D01*
X3588Y-1848D01*
Y-1853D01*
X3590Y-1858D01*
X3596Y-1861D01*
X3606Y-1863D01*
X3613Y-1866D01*
X3618Y-1871D01*
X3621Y-1876D01*
Y-1883D01*
X3618Y-1889D01*
X3616Y-1891D01*
X3608Y-1894D01*
X3598D01*
X3590Y-1891D01*
X3588Y-1889D01*
X3585Y-1883D01*
Y-1876D01*
X3588Y-1871D01*
X3593Y-1866D01*
X3601Y-1863D01*
X3611Y-1861D01*
X3616Y-1858D01*
X3618Y-1853D01*
Y-1848D01*
X3616Y-1843D01*
X3608Y-1840D01*
X3598D01*
X2528Y-1873D02*
X2533Y-1870D01*
X2541Y-1862D01*
Y-1916D01*
X2598Y-1862D02*
X2573D01*
X2570Y-1885D01*
X2573Y-1883D01*
X2580Y-1880D01*
X2588D01*
X2595Y-1883D01*
X2601Y-1888D01*
X2603Y-1895D01*
Y-1900D01*
X2601Y-1908D01*
X2595Y-1913D01*
X2588Y-1916D01*
X2580D01*
X2573Y-1913D01*
X2570Y-1911D01*
X2568Y-1906D01*
X819Y-1173D02*
X782Y-1077D01*
X746Y-1173D01*
X760Y-1141D02*
X805D01*
X896Y-1123D02*
X887Y-1114D01*
X878Y-1109D01*
X864D01*
X855Y-1114D01*
X846Y-1123D01*
X841Y-1137D01*
Y-1146D01*
X846Y-1159D01*
X855Y-1169D01*
X864Y-1173D01*
X878D01*
X887Y-1169D01*
X896Y-1159D01*
X931Y-1077D02*
Y-1155D01*
X935Y-1169D01*
X944Y-1173D01*
X953D01*
X917Y-1109D02*
X949D01*
X976Y-1077D02*
X981Y-1082D01*
X985Y-1077D01*
X981Y-1073D01*
X976Y-1077D01*
X981Y-1109D02*
Y-1173D01*
X1002Y-1109D02*
X1030Y-1173D01*
X1057Y-1109D02*
X1030Y-1173D01*
X1073Y-1137D02*
X1128D01*
Y-1127D01*
X1123Y-1118D01*
X1118Y-1114D01*
X1109Y-1109D01*
X1096D01*
X1086Y-1114D01*
X1077Y-1123D01*
X1073Y-1137D01*
Y-1146D01*
X1077Y-1159D01*
X1086Y-1169D01*
X1096Y-1173D01*
X1109D01*
X1118Y-1169D01*
X1128Y-1159D01*
X1224Y-1077D02*
X1246Y-1173D01*
X1269Y-1077D02*
X1246Y-1173D01*
X1269Y-1077D02*
X1292Y-1173D01*
X1315Y-1077D02*
X1292Y-1173D01*
X1389Y-1109D02*
Y-1173D01*
Y-1123D02*
X1380Y-1114D01*
X1371Y-1109D01*
X1357D01*
X1348Y-1114D01*
X1339Y-1123D01*
X1334Y-1137D01*
Y-1146D01*
X1339Y-1159D01*
X1348Y-1169D01*
X1357Y-1173D01*
X1371D01*
X1380Y-1169D01*
X1389Y-1159D01*
X1415Y-1109D02*
X1442Y-1173D01*
X1469Y-1109D02*
X1442Y-1173D01*
X1485Y-1137D02*
X1540D01*
Y-1127D01*
X1535Y-1118D01*
X1531Y-1114D01*
X1522Y-1109D01*
X1508D01*
X1499Y-1114D01*
X1490Y-1123D01*
X1485Y-1137D01*
Y-1146D01*
X1490Y-1159D01*
X1499Y-1169D01*
X1508Y-1173D01*
X1522D01*
X1531Y-1169D01*
X1540Y-1159D01*
X1416Y-1440D02*
Y-1536D01*
X1384Y-1440D02*
X1448D01*
X1514Y-1472D02*
Y-1536D01*
Y-1486D02*
X1505Y-1477D01*
X1496Y-1472D01*
X1482D01*
X1473Y-1477D01*
X1464Y-1486D01*
X1459Y-1499D01*
Y-1509D01*
X1464Y-1522D01*
X1473Y-1531D01*
X1482Y-1536D01*
X1496D01*
X1505Y-1531D01*
X1514Y-1522D01*
X1595Y-1472D02*
Y-1545D01*
X1590Y-1559D01*
X1586Y-1563D01*
X1576Y-1568D01*
X1563D01*
X1554Y-1563D01*
X1595Y-1486D02*
X1586Y-1477D01*
X1576Y-1472D01*
X1563D01*
X1554Y-1477D01*
X1544Y-1486D01*
X1540Y-1499D01*
Y-1509D01*
X1544Y-1522D01*
X1554Y-1531D01*
X1563Y-1536D01*
X1576D01*
X1586Y-1531D01*
X1595Y-1522D01*
X1620Y-1458D02*
X1629Y-1454D01*
X1643Y-1440D01*
Y-1536D01*
X1718Y-1440D02*
X1704Y-1445D01*
X1695Y-1458D01*
X1691Y-1481D01*
Y-1495D01*
X1695Y-1518D01*
X1704Y-1531D01*
X1718Y-1536D01*
X1727D01*
X1741Y-1531D01*
X1750Y-1518D01*
X1755Y-1495D01*
Y-1481D01*
X1750Y-1458D01*
X1741Y-1445D01*
X1727Y-1440D01*
X1718D01*
X1785D02*
X1836D01*
X1808Y-1477D01*
X1822D01*
X1831Y-1481D01*
X1836Y-1486D01*
X1840Y-1499D01*
Y-1509D01*
X1836Y-1522D01*
X1826Y-1531D01*
X1813Y-1536D01*
X1799D01*
X1785Y-1531D01*
X1781Y-1527D01*
X1776Y-1518D01*
D40*
X509Y864D02*
D03*
X449D02*
D03*
D41*
X950Y789D02*
D03*
X22Y774D02*
D03*
X0Y0D02*
D03*
X950Y49D02*
D03*
D42*
X948Y-36D02*
D03*
D43*
X729Y869D02*
D03*
X779D02*
D03*
X829D02*
D03*
X879D02*
D03*
X929D02*
D03*
D44*
X784Y454D02*
D03*
X509Y674D02*
D03*
X984Y229D02*
D03*
X864Y279D02*
D03*
X679Y879D02*
D03*
X610Y579D02*
D03*
X864Y689D02*
D03*
X574Y724D02*
D03*
X552Y139D02*
D03*
X899Y599D02*
D03*
X694Y659D02*
D03*
X937Y599D02*
D03*
X969Y564D02*
D03*
X743Y785D02*
D03*
X694Y599D02*
D03*
X684Y554D02*
D03*
X749Y454D02*
D03*
X295Y307D02*
D03*
X507Y541D02*
D03*
X345Y845D02*
D03*
X398Y846D02*
D03*
X773Y393D02*
D03*
X335Y741D02*
D03*
X370Y465D02*
D03*
X524Y273D02*
D03*
X690Y360D02*
D03*
X243Y377D02*
D03*
X220Y236D02*
D03*
X724Y152D02*
D03*
X602D02*
D03*
X263Y814D02*
D03*
X401Y627D02*
D03*
X336D02*
D03*
X490Y240D02*
D03*
X13Y253D02*
D03*
X110Y745D02*
D03*
X65Y591D02*
D03*
X98Y646D02*
D03*
X185Y741D02*
D03*
X206Y674D02*
D03*
X232Y499D02*
D03*
X181Y369D02*
D03*
X490Y82D02*
D03*
X394Y26D02*
D03*
X809Y96D02*
D03*
X652Y123D02*
D03*
X75Y150D02*
D03*
X395Y189D02*
D03*
X730Y47D02*
D03*
X809Y21D02*
D03*
X449Y779D02*
D03*
X739Y276D02*
D03*
X544Y369D02*
D03*
X872Y152D02*
D03*
X500Y1D02*
D03*
X266Y613D02*
D03*
X589Y659D02*
D03*
X534Y644D02*
D03*
M02*
