%FSLAX23Y23*%
%MOIN*%
G70*
G01*
G75*
G04 Layer_Color=65535*
%ADD10R,0.024X0.024*%
%ADD11R,0.014X0.035*%
%ADD12R,0.014X0.035*%
%ADD13R,0.030X0.030*%
%ADD14R,0.030X0.030*%
%ADD15R,0.025X0.030*%
%ADD16R,0.074X0.045*%
%ADD17R,0.020X0.050*%
%ADD18O,0.016X0.060*%
%ADD19O,0.016X0.060*%
%ADD20R,0.024X0.100*%
%ADD21R,0.024X0.090*%
%ADD22R,0.070X0.024*%
%ADD23R,0.090X0.024*%
%ADD24R,0.075X0.043*%
%ADD25R,0.036X0.050*%
%ADD26R,0.036X0.036*%
%ADD27O,0.024X0.080*%
%ADD28C,0.010*%
%ADD29C,0.008*%
%ADD30C,0.020*%
%ADD31C,0.025*%
%ADD32C,0.012*%
%ADD33C,0.015*%
%ADD34C,0.016*%
%ADD35C,0.014*%
%ADD36C,0.026*%
%ADD37C,0.006*%
%ADD38C,0.005*%
%ADD39C,0.009*%
%ADD40C,0.039*%
%ADD41C,0.070*%
%ADD42R,0.050X0.050*%
%ADD43R,0.039X0.043*%
%ADD44C,0.024*%
%ADD45R,0.070X0.070*%
%ADD46R,0.140X0.140*%
%ADD47C,0.030*%
D28*
X750Y679D02*
G03*
X750Y584I0J-47D01*
G01*
X868Y92D02*
G03*
X868Y17I0J-37D01*
G01*
X530Y295D02*
G03*
X530Y295I-10J0D01*
G01*
X512Y74D02*
G03*
X512Y129I0J27D01*
G01*
X139Y-45D02*
X190D01*
X119Y-25D02*
Y58D01*
X210Y-25D02*
Y58D01*
X139Y-45D02*
Y-25D01*
X119D02*
X139D01*
X190Y-45D02*
Y-25D01*
X210D01*
X208Y58D02*
X210D01*
X119D02*
X208D01*
X897Y285D02*
Y360D01*
Y285D02*
X950D01*
X1003D02*
Y360D01*
X950Y285D02*
X1003D01*
Y360D02*
Y435D01*
X950D02*
X1003D01*
X897Y360D02*
Y435D01*
X950D01*
X430Y555D02*
Y585D01*
X310Y555D02*
X430D01*
X310D02*
Y615D01*
X430D01*
Y585D02*
Y615D01*
X674Y384D02*
Y414D01*
X554Y384D02*
X674D01*
X554D02*
Y444D01*
X674D01*
Y414D02*
Y444D01*
X370Y555D02*
X400D01*
X370Y435D02*
Y555D01*
Y435D02*
X430D01*
Y555D01*
X400D02*
X430D01*
X759Y459D02*
Y489D01*
Y459D02*
X879D01*
Y519D01*
X759D02*
X879D01*
X759Y489D02*
Y519D01*
X774Y384D02*
Y414D01*
X894D01*
Y354D02*
Y414D01*
X774Y354D02*
X894D01*
X774D02*
Y384D01*
Y314D02*
Y344D01*
X894D01*
Y284D02*
Y344D01*
X774Y284D02*
X894D01*
X774D02*
Y314D01*
X900Y735D02*
X930D01*
Y615D02*
Y735D01*
X870Y615D02*
X930D01*
X870D02*
Y735D01*
X900D01*
X55Y780D02*
Y810D01*
X175D01*
Y750D02*
Y810D01*
X55Y750D02*
X175D01*
X55D02*
Y780D01*
X750Y781D02*
Y828D01*
X722D02*
X750D01*
X879Y769D02*
Y799D01*
X759Y769D02*
X879D01*
X759D02*
Y829D01*
X879D01*
Y799D02*
Y829D01*
X759Y549D02*
Y579D01*
Y549D02*
X879D01*
Y609D01*
X759D02*
X879D01*
X759Y579D02*
Y609D01*
X550Y355D02*
Y385D01*
X670D01*
Y325D02*
Y385D01*
X550Y325D02*
X670D01*
X550D02*
Y355D01*
Y275D02*
Y305D01*
Y275D02*
X670D01*
Y335D01*
X550D02*
X670D01*
X550Y305D02*
Y335D01*
X520Y425D02*
X550D01*
Y305D02*
Y425D01*
X490Y305D02*
X550D01*
X490D02*
Y425D01*
X520D01*
X370Y320D02*
Y350D01*
Y320D02*
X490D01*
Y380D01*
X370D02*
X490D01*
X370Y350D02*
Y380D01*
Y405D02*
Y435D01*
X490D01*
Y375D02*
Y435D01*
X370Y375D02*
X490D01*
X370D02*
Y405D01*
X-7Y681D02*
X23D01*
X-7Y561D02*
Y681D01*
Y561D02*
X53D01*
Y681D01*
X23D02*
X53D01*
X819Y194D02*
Y224D01*
Y194D02*
X939D01*
Y254D01*
X819D02*
X939D01*
X819Y224D02*
Y254D01*
X109Y60D02*
X139D01*
Y180D01*
X79D02*
X139D01*
X79Y60D02*
Y180D01*
Y60D02*
X109D01*
X225Y295D02*
X255D01*
X225Y175D02*
Y295D01*
Y175D02*
X285D01*
Y295D01*
X255D02*
X285D01*
X340Y555D02*
X370D01*
Y435D02*
Y555D01*
X310Y435D02*
X370D01*
X310D02*
Y555D01*
X340D01*
X855Y-38D02*
X885D01*
X855D02*
Y82D01*
X915D01*
Y-38D02*
Y82D01*
X885Y-38D02*
X915D01*
X5Y176D02*
X35D01*
X5Y56D02*
Y176D01*
Y56D02*
X65D01*
Y176D01*
X35D02*
X65D01*
X236Y444D02*
X266D01*
X236D02*
Y564D01*
X296D01*
Y444D02*
Y564D01*
X266Y444D02*
X296D01*
X-42Y304D02*
Y334D01*
X78D01*
Y274D02*
Y334D01*
X-42Y274D02*
X78D01*
X-42D02*
Y304D01*
X310Y317D02*
X340D01*
X310D02*
Y437D01*
X370D01*
Y317D02*
Y437D01*
X340Y317D02*
X370D01*
X123Y616D02*
X153D01*
X123D02*
Y736D01*
X183D01*
Y616D02*
Y736D01*
X153Y616D02*
X183D01*
X23Y561D02*
X53D01*
Y441D02*
Y561D01*
X-7Y441D02*
X53D01*
X-7D02*
Y561D01*
X23D01*
X18Y284D02*
X48D01*
X18Y164D02*
Y284D01*
Y164D02*
X78D01*
Y284D01*
X48D02*
X78D01*
X296Y614D02*
Y644D01*
X176Y614D02*
X296D01*
X176D02*
Y674D01*
X296D01*
Y644D02*
Y674D01*
X193Y33D02*
Y63D01*
X313D01*
Y3D02*
Y63D01*
X193Y3D02*
X313D01*
X193D02*
Y33D01*
X176Y584D02*
Y614D01*
X296D01*
Y554D02*
Y614D01*
X176Y554D02*
X296D01*
X176D02*
Y584D01*
X929Y735D02*
X959D01*
X929Y615D02*
Y735D01*
Y615D02*
X989D01*
Y735D01*
X959D02*
X989D01*
X65Y-50D02*
X95D01*
X65D02*
Y70D01*
X125D01*
Y-50D02*
Y70D01*
X95Y-50D02*
X125D01*
X53Y441D02*
X83D01*
X53D02*
Y561D01*
X113D01*
Y441D02*
Y561D01*
X83Y441D02*
X113D01*
X296Y672D02*
Y702D01*
X176Y672D02*
X296D01*
X176D02*
Y732D01*
X296D01*
Y702D02*
Y732D01*
X414Y-64D02*
X444D01*
X414D02*
Y56D01*
X474D01*
Y-64D02*
Y56D01*
X444Y-64D02*
X474D01*
X314Y-54D02*
Y-24D01*
X194Y-54D02*
X314D01*
X194D02*
Y6D01*
X314D01*
Y-24D02*
Y6D01*
X-42Y403D02*
Y433D01*
X78D01*
Y373D02*
Y433D01*
X-42Y373D02*
X78D01*
X-42D02*
Y403D01*
X324Y-64D02*
X354D01*
X324D02*
Y56D01*
X384D01*
Y-64D02*
Y56D01*
X354Y-64D02*
X384D01*
X194Y587D02*
Y617D01*
X74D02*
X194D01*
X74Y557D02*
Y617D01*
Y557D02*
X194D01*
Y587D01*
X185Y184D02*
X215D01*
Y64D02*
Y184D01*
X155Y64D02*
X215D01*
X155D02*
Y184D01*
X185D01*
X879Y534D02*
Y564D01*
X999D01*
Y504D02*
Y564D01*
X879Y504D02*
X999D01*
X879D02*
Y534D01*
X669Y834D02*
Y864D01*
X549Y834D02*
X669D01*
X549D02*
Y894D01*
X669D01*
Y864D02*
Y894D01*
X224Y70D02*
X254D01*
X224D02*
Y190D01*
X284D01*
Y70D02*
Y190D01*
X254Y70D02*
X284D01*
X175Y780D02*
Y810D01*
X295D01*
Y750D02*
Y810D01*
X175Y750D02*
X295D01*
X175D02*
Y780D01*
X155Y295D02*
X185D01*
X155Y175D02*
Y295D01*
Y175D02*
X215D01*
Y295D01*
X185D02*
X215D01*
X80Y180D02*
X110D01*
X80D02*
Y300D01*
X140D01*
Y180D02*
Y300D01*
X110Y180D02*
X140D01*
X-42Y324D02*
Y354D01*
Y324D02*
X78D01*
Y384D01*
X-42D02*
X78D01*
X-42Y354D02*
Y384D01*
X443Y828D02*
X722D01*
X999Y444D02*
Y474D01*
X879Y444D02*
X999D01*
X879D02*
Y504D01*
X999D01*
Y474D02*
Y504D01*
X300Y650D02*
X410D01*
X300D02*
Y830D01*
X445D01*
Y650D02*
Y830D01*
X410Y650D02*
X445D01*
X443Y435D02*
Y513D01*
X750Y750D02*
Y781D01*
X443Y513D02*
Y828D01*
X750Y502D02*
Y584D01*
Y679D02*
Y750D01*
Y435D02*
Y502D01*
X443Y435D02*
X750D01*
X155Y447D02*
X206D01*
X135Y467D02*
Y550D01*
X226Y467D02*
Y550D01*
X155Y447D02*
Y467D01*
X135D02*
X155D01*
X206Y447D02*
Y467D01*
X226D01*
X224Y550D02*
X226D01*
X135D02*
X224D01*
X670Y285D02*
Y360D01*
Y285D02*
X723D01*
X776D02*
Y360D01*
X723Y285D02*
X776D01*
Y360D02*
Y435D01*
X723D02*
X776D01*
X670Y360D02*
Y435D01*
X723D01*
X868Y92D02*
Y192D01*
Y-83D02*
Y17D01*
X760Y-83D02*
X868D01*
X725Y192D02*
X833D01*
X725Y-1D02*
Y192D01*
X833D02*
X868D01*
X725Y-83D02*
X760D01*
X725D02*
Y-1D01*
X809Y609D02*
X862D01*
Y694D01*
X809Y779D02*
X862D01*
Y694D02*
Y779D01*
X756D02*
X809D01*
X756Y694D02*
Y779D01*
Y609D02*
X809D01*
X756D02*
Y694D01*
X210Y287D02*
X257D01*
X275D01*
Y317D01*
X320D01*
Y442D01*
X165D02*
X320D01*
X165Y317D02*
Y442D01*
Y317D02*
X210D01*
Y287D02*
Y317D01*
X512Y274D02*
X742D01*
Y-66D02*
Y274D01*
X512Y-66D02*
X742D01*
X512Y129D02*
Y274D01*
Y-66D02*
Y74D01*
X698Y857D02*
Y881D01*
X969Y830D02*
Y908D01*
X690D02*
X969D01*
X690Y830D02*
X969D01*
X690Y849D02*
X698Y857D01*
X690Y830D02*
Y849D01*
Y889D02*
X698Y881D01*
X690Y889D02*
Y908D01*
X-325Y-825D02*
Y-925D01*
X-268D01*
X-181D02*
X-219Y-825D01*
X-257Y-925D01*
X-243Y-892D02*
X-195D01*
X-157Y-825D02*
X-119Y-873D01*
Y-925D01*
X-81Y-825D02*
X-119Y-873D01*
X-6Y-825D02*
X-68D01*
Y-925D01*
X-6D01*
X-68Y-873D02*
X-30D01*
X10Y-825D02*
Y-925D01*
Y-825D02*
X53D01*
X67Y-830D01*
X72Y-835D01*
X77Y-844D01*
Y-854D01*
X72Y-863D01*
X67Y-868D01*
X53Y-873D01*
X10D01*
X43D02*
X77Y-925D01*
X178Y-844D02*
X187Y-839D01*
X202Y-825D01*
Y-925D01*
X480Y-849D02*
X475Y-839D01*
X465Y-830D01*
X456Y-825D01*
X437D01*
X427Y-830D01*
X418Y-839D01*
X413Y-849D01*
X408Y-863D01*
Y-887D01*
X413Y-901D01*
X418Y-911D01*
X427Y-920D01*
X437Y-925D01*
X456D01*
X465Y-920D01*
X475Y-911D01*
X480Y-901D01*
X536Y-825D02*
X527Y-830D01*
X517Y-839D01*
X512Y-849D01*
X508Y-863D01*
Y-887D01*
X512Y-901D01*
X517Y-911D01*
X527Y-920D01*
X536Y-925D01*
X555D01*
X565Y-920D01*
X574Y-911D01*
X579Y-901D01*
X584Y-887D01*
Y-863D01*
X579Y-849D01*
X574Y-839D01*
X565Y-830D01*
X555Y-825D01*
X536D01*
X607D02*
Y-925D01*
Y-825D02*
X645Y-925D01*
X683Y-825D02*
X645Y-925D01*
X683Y-825D02*
Y-925D01*
X712Y-877D02*
X755D01*
X769Y-873D01*
X774Y-868D01*
X779Y-858D01*
Y-844D01*
X774Y-835D01*
X769Y-830D01*
X755Y-825D01*
X712D01*
Y-925D01*
X830Y-825D02*
X820Y-830D01*
X810Y-839D01*
X806Y-849D01*
X801Y-863D01*
Y-887D01*
X806Y-901D01*
X810Y-911D01*
X820Y-920D01*
X830Y-925D01*
X849D01*
X858Y-920D01*
X868Y-911D01*
X872Y-901D01*
X877Y-887D01*
Y-863D01*
X872Y-849D01*
X868Y-839D01*
X858Y-830D01*
X849Y-825D01*
X830D01*
X900D02*
Y-925D01*
Y-825D02*
X967Y-925D01*
Y-825D02*
Y-925D01*
X1057Y-825D02*
X995D01*
Y-925D01*
X1057D01*
X995Y-873D02*
X1033D01*
X1073Y-825D02*
Y-925D01*
Y-825D02*
X1140Y-925D01*
Y-825D02*
Y-925D01*
X1201Y-825D02*
Y-925D01*
X1168Y-825D02*
X1234D01*
X1391Y-839D02*
X1382Y-830D01*
X1367Y-825D01*
X1348D01*
X1334Y-830D01*
X1325Y-839D01*
Y-849D01*
X1329Y-858D01*
X1334Y-863D01*
X1344Y-868D01*
X1372Y-877D01*
X1382Y-882D01*
X1387Y-887D01*
X1391Y-896D01*
Y-911D01*
X1382Y-920D01*
X1367Y-925D01*
X1348D01*
X1334Y-920D01*
X1325Y-911D01*
X1414Y-825D02*
Y-925D01*
X1435Y-825D02*
Y-925D01*
Y-825D02*
X1468D01*
X1482Y-830D01*
X1492Y-839D01*
X1497Y-849D01*
X1501Y-863D01*
Y-887D01*
X1497Y-901D01*
X1492Y-911D01*
X1482Y-920D01*
X1468Y-925D01*
X1435D01*
X1586Y-825D02*
X1524D01*
Y-925D01*
X1586D01*
X1524Y-873D02*
X1562D01*
X1747Y-839D02*
X1738Y-830D01*
X1724Y-825D01*
X1705D01*
X1690Y-830D01*
X1681Y-839D01*
Y-849D01*
X1686Y-858D01*
X1690Y-863D01*
X1700Y-868D01*
X1728Y-877D01*
X1738Y-882D01*
X1743Y-887D01*
X1747Y-896D01*
Y-911D01*
X1738Y-920D01*
X1724Y-925D01*
X1705D01*
X1690Y-920D01*
X1681Y-911D01*
X1770Y-825D02*
Y-925D01*
X1791Y-825D02*
Y-925D01*
X1848D01*
X1859Y-825D02*
Y-925D01*
X1925Y-825D02*
X1859Y-892D01*
X1883Y-868D02*
X1925Y-925D01*
X1948Y-882D02*
X2034D01*
X2130Y-839D02*
X2120Y-830D01*
X2106Y-825D01*
X2087D01*
X2073Y-830D01*
X2063Y-839D01*
Y-849D01*
X2068Y-858D01*
X2073Y-863D01*
X2082Y-868D01*
X2111Y-877D01*
X2120Y-882D01*
X2125Y-887D01*
X2130Y-896D01*
Y-911D01*
X2120Y-920D01*
X2106Y-925D01*
X2087D01*
X2073Y-920D01*
X2063Y-911D01*
X2224Y-849D02*
X2219Y-839D01*
X2209Y-830D01*
X2200Y-825D01*
X2181D01*
X2171Y-830D01*
X2162Y-839D01*
X2157Y-849D01*
X2152Y-863D01*
Y-887D01*
X2157Y-901D01*
X2162Y-911D01*
X2171Y-920D01*
X2181Y-925D01*
X2200D01*
X2209Y-920D01*
X2219Y-911D01*
X2224Y-901D01*
X2252Y-825D02*
Y-925D01*
Y-825D02*
X2294D01*
X2309Y-830D01*
X2313Y-835D01*
X2318Y-844D01*
Y-854D01*
X2313Y-863D01*
X2309Y-868D01*
X2294Y-873D01*
X2252D01*
X2285D02*
X2318Y-925D01*
X2403Y-825D02*
X2341D01*
Y-925D01*
X2403D01*
X2341Y-873D02*
X2379D01*
X2481Y-825D02*
X2419D01*
Y-925D01*
X2481D01*
X2419Y-873D02*
X2457D01*
X2498Y-825D02*
Y-925D01*
Y-825D02*
X2564Y-925D01*
Y-825D02*
Y-925D01*
X2704Y-806D02*
X2694Y-816D01*
X2685Y-830D01*
X2675Y-849D01*
X2671Y-873D01*
Y-892D01*
X2675Y-915D01*
X2685Y-935D01*
X2694Y-949D01*
X2704Y-958D01*
X2694Y-816D02*
X2685Y-835D01*
X2680Y-849D01*
X2675Y-873D01*
Y-892D01*
X2680Y-915D01*
X2685Y-930D01*
X2694Y-949D01*
X2806Y-915D02*
X2801Y-920D01*
X2806Y-925D01*
X2811Y-920D01*
X2806Y-915D01*
X2904Y-849D02*
X2900Y-839D01*
X2890Y-830D01*
X2881Y-825D01*
X2861D01*
X2852Y-830D01*
X2842Y-839D01*
X2838Y-849D01*
X2833Y-863D01*
Y-887D01*
X2838Y-901D01*
X2842Y-911D01*
X2852Y-920D01*
X2861Y-925D01*
X2881D01*
X2890Y-920D01*
X2900Y-911D01*
X2904Y-901D01*
Y-887D01*
X2881D02*
X2904D01*
X2960Y-825D02*
Y-925D01*
X2927Y-825D02*
X2994D01*
X3034D02*
X3025Y-830D01*
X3015Y-839D01*
X3010Y-849D01*
X3006Y-863D01*
Y-887D01*
X3010Y-901D01*
X3015Y-911D01*
X3025Y-920D01*
X3034Y-925D01*
X3053D01*
X3063Y-920D01*
X3072Y-911D01*
X3077Y-901D01*
X3082Y-887D01*
Y-863D01*
X3077Y-849D01*
X3072Y-839D01*
X3063Y-830D01*
X3053Y-825D01*
X3034D01*
X3184Y-806D02*
X3193Y-816D01*
X3203Y-830D01*
X3212Y-849D01*
X3217Y-873D01*
Y-892D01*
X3212Y-915D01*
X3203Y-935D01*
X3193Y-949D01*
X3184Y-958D01*
X3193Y-816D02*
X3203Y-835D01*
X3208Y-849D01*
X3212Y-873D01*
Y-892D01*
X3208Y-915D01*
X3203Y-930D01*
X3193Y-949D01*
X-37Y903D02*
G03*
X-67Y873I0J-30D01*
G01*
X1011D02*
G03*
X981Y903I-30J0D01*
G01*
Y-86D02*
G03*
X1011Y-56I0J30D01*
G01*
X-67D02*
G03*
X-37Y-86I30J0D01*
G01*
X-67Y-56D02*
Y873D01*
X-37Y903D02*
X981D01*
X1011Y-56D02*
Y873D01*
X-37Y-86D02*
X981D01*
X3966Y-1802D02*
G03*
X3917Y-1753I-49J0D01*
G01*
X2816D02*
G03*
X2766Y-1803I0J-50D01*
G01*
X3916Y-1703D02*
G03*
X3966Y-1653I0J50D01*
G01*
X2766D02*
G03*
X2816Y-1703I50J0D01*
G01*
X-284Y-978D02*
G03*
X-384Y-1078I0J-100D01*
G01*
Y-2177D02*
G03*
X-285Y-2278I101J0D01*
G01*
X3916Y-2278D02*
G03*
X4016Y-2178I0J100D01*
G01*
Y-1078D02*
G03*
X3916Y-978I-100J0D01*
G01*
X3966Y-1077D02*
G03*
X3915Y-1028I-49J0D01*
G01*
X3916Y-1978D02*
G03*
X3966Y-1928I0J50D01*
G01*
X3966Y-2077D02*
G03*
X3916Y-2028I-50J-1D01*
G01*
Y-2228D02*
G03*
X3966Y-2178I0J50D01*
G01*
X2666Y-1978D02*
G03*
X2716Y-1928I0J50D01*
G01*
X2766Y-1929D02*
G03*
X2816Y-1978I49J0D01*
G01*
X2716Y-1802D02*
G03*
X2667Y-1753I-49J0D01*
G01*
X-334Y-2178D02*
G03*
X-285Y-2228I50J0D01*
G01*
X2667Y-1703D02*
G03*
X2716Y-1653I-1J50D01*
G01*
X-284Y-2028D02*
G03*
X-334Y-2078I0J-50D01*
G01*
X2716Y-1328D02*
G03*
X2666Y-1278I-50J0D01*
G01*
Y-1228D02*
G03*
X2716Y-1178I0J50D01*
G01*
X2816Y-1028D02*
G03*
X2766Y-1078I0J-50D01*
G01*
X2716D02*
G03*
X2666Y-1028I-50J0D01*
G01*
X-284D02*
G03*
X-334Y-1078I0J-50D01*
G01*
Y-1178D02*
G03*
X-284Y-1228I50J0D01*
G01*
Y-1278D02*
G03*
X-334Y-1328I0J-50D01*
G01*
Y-1553D02*
G03*
X-284Y-1603I50J0D01*
G01*
Y-1653D02*
G03*
X-334Y-1703I0J-50D01*
G01*
Y-1928D02*
G03*
X-285Y-1978I50J0D01*
G01*
X616Y-1278D02*
G03*
X566Y-1328I0J-50D01*
G01*
X616Y-1753D02*
G03*
X566Y-1803I0J-50D01*
G01*
X2364Y-1753D02*
G03*
X2316Y-1804I0J-48D01*
G01*
X2316Y-1927D02*
G03*
X2366Y-1978I51J0D01*
G01*
X2217Y-1978D02*
G03*
X2266Y-1928I0J49D01*
G01*
X2266Y-1802D02*
G03*
X2217Y-1753I-49J0D01*
G01*
X467Y-1978D02*
G03*
X516Y-1929I0J49D01*
G01*
X566D02*
G03*
X615Y-1978I49J0D01*
G01*
X566Y-1654D02*
G03*
X615Y-1703I49J0D01*
G01*
X516Y-1702D02*
G03*
X465Y-1653I-49J0D01*
G01*
X468Y-1603D02*
G03*
X516Y-1555I0J48D01*
G01*
Y-1327D02*
G03*
X467Y-1278I-49J0D01*
G01*
X3366Y-2028D02*
G03*
X3316Y-2078I0J-50D01*
G01*
Y-2179D02*
G03*
X3366Y-2228I49J0D01*
G01*
X3217Y-2228D02*
G03*
X3266Y-2179I1J48D01*
G01*
X3266Y-2078D02*
G03*
X3216Y-2028I-50J0D01*
G01*
X1491Y-2178D02*
G03*
X1540Y-2228I50J0D01*
G01*
X1541Y-2028D02*
G03*
X1491Y-2078I0J-50D01*
G01*
X1392Y-2228D02*
G03*
X1441Y-2179I1J48D01*
G01*
X1441Y-2078D02*
G03*
X1391Y-2028I-50J0D01*
G01*
X3966Y-1928D02*
Y-1802D01*
X2766Y-1928D02*
Y-1803D01*
X3966Y-1653D02*
Y-1078D01*
X2766Y-1653D02*
Y-1078D01*
X-384Y-2178D02*
Y-1078D01*
X-334Y-2178D02*
Y-2078D01*
X3966Y-2178D02*
Y-2078D01*
X2716Y-1928D02*
Y-1803D01*
X2316Y-1928D02*
Y-1803D01*
X566Y-1928D02*
Y-1803D01*
X2266Y-1928D02*
Y-1803D01*
X566Y-1653D02*
Y-1328D01*
X2716Y-1653D02*
Y-1328D01*
Y-1178D02*
Y-1078D01*
X-334Y-1178D02*
Y-1078D01*
X516Y-1553D02*
Y-1328D01*
X-334Y-1553D02*
Y-1328D01*
X516Y-1928D02*
Y-1703D01*
X-334Y-1928D02*
Y-1703D01*
X4016Y-2178D02*
Y-1078D01*
X3316Y-2178D02*
Y-2078D01*
X3266Y-2178D02*
Y-2078D01*
X1491Y-2178D02*
Y-2078D01*
X1441Y-2178D02*
Y-2078D01*
X2816Y-1753D02*
X3916D01*
X2816Y-1703D02*
X3916D01*
X616D02*
X2666D01*
X2816Y-1028D02*
X3916D01*
X2816Y-1978D02*
X3916D01*
X2366Y-1753D02*
X2666D01*
X2366Y-1978D02*
X2666D01*
X616D02*
X2216D01*
X616Y-1753D02*
X2216D01*
X616Y-1278D02*
X2666D01*
X-284Y-1228D02*
X2666D01*
X-284Y-1278D02*
X466D01*
X-284Y-1603D02*
X466D01*
X-284Y-1653D02*
X466D01*
X-284Y-1978D02*
X466D01*
X-284Y-978D02*
X3916D01*
X-284Y-2278D02*
X3916D01*
X-284Y-1028D02*
X2666D01*
X3366Y-2028D02*
X3916D01*
X3366Y-2228D02*
X3916D01*
X1541Y-2028D02*
X3216D01*
X-284D02*
X1391D01*
X-284Y-2228D02*
X1391D01*
X1541D02*
X3216D01*
X3145Y-1365D02*
X3135Y-1354D01*
X3113D01*
X3103Y-1365D01*
Y-1375D01*
X3113Y-1386D01*
X3135D01*
X3145Y-1397D01*
Y-1407D01*
X3135Y-1418D01*
X3113D01*
X3103Y-1407D01*
X3167Y-1375D02*
Y-1407D01*
X3177Y-1418D01*
X3209D01*
Y-1375D01*
X3230Y-1418D02*
X3252D01*
X3241D01*
Y-1375D01*
X3230D01*
X3294Y-1365D02*
Y-1375D01*
X3284D01*
X3305D01*
X3294D01*
Y-1407D01*
X3305Y-1418D01*
X3369D02*
X3348D01*
X3337Y-1407D01*
Y-1386D01*
X3348Y-1375D01*
X3369D01*
X3380Y-1386D01*
Y-1397D01*
X3337D01*
X3465Y-1418D02*
X3486D01*
X3476D01*
Y-1354D01*
X3465Y-1365D01*
X3518Y-1418D02*
X3540D01*
X3529D01*
Y-1354D01*
X3518Y-1365D01*
X3572D02*
X3582Y-1354D01*
X3604D01*
X3614Y-1365D01*
Y-1375D01*
X3604Y-1386D01*
X3614Y-1397D01*
Y-1407D01*
X3604Y-1418D01*
X3582D01*
X3572Y-1407D01*
Y-1397D01*
X3582Y-1386D01*
X3572Y-1375D01*
Y-1365D01*
X3582Y-1386D02*
X3604D01*
X3065Y-1569D02*
X3023D01*
Y-1601D01*
X3044Y-1590D01*
X3055D01*
X3065Y-1601D01*
Y-1622D01*
X3055Y-1633D01*
X3033D01*
X3023Y-1622D01*
X3129Y-1569D02*
X3108Y-1580D01*
X3087Y-1601D01*
Y-1622D01*
X3097Y-1633D01*
X3118D01*
X3129Y-1622D01*
Y-1612D01*
X3118Y-1601D01*
X3087D01*
X3150Y-1633D02*
X3172D01*
X3161D01*
Y-1569D01*
X3150Y-1580D01*
X3204Y-1601D02*
X3246D01*
X3268Y-1622D02*
X3278Y-1633D01*
X3300D01*
X3310Y-1622D01*
Y-1580D01*
X3300Y-1569D01*
X3278D01*
X3268Y-1580D01*
Y-1590D01*
X3278Y-1601D01*
X3310D01*
X3332Y-1622D02*
X3342Y-1633D01*
X3364D01*
X3374Y-1622D01*
Y-1580D01*
X3364Y-1569D01*
X3342D01*
X3332Y-1580D01*
Y-1590D01*
X3342Y-1601D01*
X3374D01*
X3396Y-1622D02*
X3406Y-1633D01*
X3428D01*
X3438Y-1622D01*
Y-1580D01*
X3428Y-1569D01*
X3406D01*
X3396Y-1580D01*
Y-1590D01*
X3406Y-1601D01*
X3438D01*
X3460D02*
X3502D01*
X3524Y-1622D02*
X3534Y-1633D01*
X3556D01*
X3566Y-1622D01*
Y-1580D01*
X3556Y-1569D01*
X3534D01*
X3524Y-1580D01*
Y-1590D01*
X3534Y-1601D01*
X3566D01*
X3620Y-1633D02*
Y-1569D01*
X3588Y-1601D01*
X3630D01*
X3694Y-1633D02*
X3652D01*
X3694Y-1590D01*
Y-1580D01*
X3684Y-1569D01*
X3662D01*
X3652Y-1580D01*
X3758Y-1633D02*
X3716D01*
X3758Y-1590D01*
Y-1580D01*
X3748Y-1569D01*
X3726D01*
X3716Y-1580D01*
X2808Y-1302D02*
X2818Y-1313D01*
X2840D01*
X2850Y-1302D01*
Y-1260D01*
X2840Y-1249D01*
X2818D01*
X2808Y-1260D01*
Y-1270D01*
X2818Y-1281D01*
X2850D01*
X2872Y-1260D02*
X2882Y-1249D01*
X2903D01*
X2914Y-1260D01*
Y-1302D01*
X2903Y-1313D01*
X2882D01*
X2872Y-1302D01*
Y-1260D01*
X2978Y-1313D02*
X2935D01*
X2978Y-1270D01*
Y-1260D01*
X2967Y-1249D01*
X2946D01*
X2935Y-1260D01*
X3106D02*
X3095Y-1249D01*
X3074D01*
X3063Y-1260D01*
Y-1302D01*
X3074Y-1313D01*
X3095D01*
X3106Y-1302D01*
X3127Y-1313D02*
X3149D01*
X3138D01*
Y-1249D01*
X3127D01*
X3181Y-1313D02*
X3202D01*
X3191D01*
Y-1270D01*
X3181D01*
X3234Y-1313D02*
Y-1270D01*
X3266D01*
X3277Y-1281D01*
Y-1313D01*
X3309Y-1260D02*
Y-1270D01*
X3298D01*
X3319D01*
X3309D01*
Y-1302D01*
X3319Y-1313D01*
X3415D02*
Y-1249D01*
X3437Y-1270D01*
X3458Y-1249D01*
Y-1313D01*
X3490D02*
X3511D01*
X3522Y-1302D01*
Y-1281D01*
X3511Y-1270D01*
X3490D01*
X3479Y-1281D01*
Y-1302D01*
X3490Y-1313D01*
X3554D02*
X3575D01*
X3586Y-1302D01*
Y-1281D01*
X3575Y-1270D01*
X3554D01*
X3543Y-1281D01*
Y-1302D01*
X3554Y-1313D01*
X3607Y-1270D02*
Y-1313D01*
Y-1292D01*
X3618Y-1281D01*
X3629Y-1270D01*
X3639D01*
X3703Y-1313D02*
X3682D01*
X3671Y-1302D01*
Y-1281D01*
X3682Y-1270D01*
X3703D01*
X3714Y-1281D01*
Y-1292D01*
X3671D01*
X3799Y-1313D02*
Y-1249D01*
X3831D01*
X3842Y-1260D01*
Y-1281D01*
X3831Y-1292D01*
X3799D01*
X3821D02*
X3842Y-1313D01*
X3906Y-1249D02*
Y-1313D01*
X3874D01*
X3863Y-1302D01*
Y-1281D01*
X3874Y-1270D01*
X3906D01*
X3927Y-1313D02*
Y-1302D01*
X3938D01*
Y-1313D01*
X3927D01*
X2968Y-1449D02*
Y-1513D01*
X3000D01*
X3010Y-1502D01*
Y-1492D01*
X3000Y-1481D01*
X2968D01*
X3000D01*
X3010Y-1470D01*
Y-1460D01*
X3000Y-1449D01*
X2968D01*
X3042Y-1513D02*
X3063D01*
X3074Y-1502D01*
Y-1481D01*
X3063Y-1470D01*
X3042D01*
X3032Y-1481D01*
Y-1502D01*
X3042Y-1513D01*
X3138Y-1470D02*
X3106D01*
X3095Y-1481D01*
Y-1502D01*
X3106Y-1513D01*
X3138D01*
X3170Y-1470D02*
X3191D01*
X3202Y-1481D01*
Y-1513D01*
X3170D01*
X3159Y-1502D01*
X3170Y-1492D01*
X3202D01*
X3287Y-1513D02*
Y-1449D01*
X3319D01*
X3330Y-1460D01*
Y-1481D01*
X3319Y-1492D01*
X3287D01*
X3309D02*
X3330Y-1513D01*
X3362Y-1470D02*
X3383D01*
X3394Y-1481D01*
Y-1513D01*
X3362D01*
X3351Y-1502D01*
X3362Y-1492D01*
X3394D01*
X3426Y-1460D02*
Y-1470D01*
X3415D01*
X3437D01*
X3426D01*
Y-1502D01*
X3437Y-1513D01*
X3479D02*
X3501D01*
X3511Y-1502D01*
Y-1481D01*
X3501Y-1470D01*
X3479D01*
X3469Y-1481D01*
Y-1502D01*
X3479Y-1513D01*
X3533D02*
Y-1470D01*
X3565D01*
X3575Y-1481D01*
Y-1513D01*
X3703Y-1449D02*
X3661D01*
Y-1481D01*
X3682D01*
X3661D01*
Y-1513D01*
X3725Y-1449D02*
Y-1513D01*
X3767D01*
X3789D02*
Y-1502D01*
X3799D01*
Y-1513D01*
X3789D01*
D29*
X544Y864D02*
G03*
X544Y864I-35J0D01*
G01*
X484D02*
G03*
X484Y864I-35J0D01*
G01*
X124Y-1706D02*
Y-1747D01*
X122Y-1754D01*
X119Y-1757D01*
X114Y-1759D01*
X109D01*
X104Y-1757D01*
X101Y-1754D01*
X99Y-1747D01*
Y-1741D01*
X141Y-1754D02*
X138Y-1757D01*
X141Y-1759D01*
X143Y-1757D01*
X141Y-1754D01*
X155Y-1706D02*
Y-1759D01*
Y-1706D02*
X190Y-1759D01*
Y-1706D02*
Y-1759D01*
D33*
X2858Y-1208D02*
Y-1141D01*
X2891Y-1108D01*
X2924Y-1141D01*
Y-1208D01*
Y-1158D01*
X2858D01*
X3024Y-1141D02*
X2974D01*
X2957Y-1158D01*
Y-1191D01*
X2974Y-1208D01*
X3024D01*
X3074Y-1125D02*
Y-1141D01*
X3057D01*
X3091D01*
X3074D01*
Y-1191D01*
X3091Y-1208D01*
X3141D02*
X3174D01*
X3157D01*
Y-1141D01*
X3141D01*
X3224D02*
X3257Y-1208D01*
X3291Y-1141D01*
X3374Y-1208D02*
X3341D01*
X3324Y-1191D01*
Y-1158D01*
X3341Y-1141D01*
X3374D01*
X3391Y-1158D01*
Y-1175D01*
X3324D01*
X3524Y-1108D02*
Y-1208D01*
X3557Y-1175D01*
X3591Y-1208D01*
Y-1108D01*
X3641Y-1141D02*
X3674D01*
X3691Y-1158D01*
Y-1208D01*
X3641D01*
X3624Y-1191D01*
X3641Y-1175D01*
X3691D01*
X3724Y-1141D02*
X3757Y-1208D01*
X3791Y-1141D01*
X3874Y-1208D02*
X3841D01*
X3824Y-1191D01*
Y-1158D01*
X3841Y-1141D01*
X3874D01*
X3891Y-1158D01*
Y-1175D01*
X3824D01*
D38*
X193Y-2122D02*
Y-2175D01*
X175Y-2122D02*
X211D01*
X247Y-2139D02*
Y-2175D01*
Y-2147D02*
X242Y-2142D01*
X237Y-2139D01*
X230D01*
X225Y-2142D01*
X219Y-2147D01*
X217Y-2155D01*
Y-2160D01*
X219Y-2167D01*
X225Y-2172D01*
X230Y-2175D01*
X237D01*
X242Y-2172D01*
X247Y-2167D01*
X292Y-2139D02*
Y-2180D01*
X290Y-2188D01*
X287Y-2190D01*
X282Y-2193D01*
X274D01*
X269Y-2190D01*
X292Y-2147D02*
X287Y-2142D01*
X282Y-2139D01*
X274D01*
X269Y-2142D01*
X264Y-2147D01*
X262Y-2155D01*
Y-2160D01*
X264Y-2167D01*
X269Y-2172D01*
X274Y-2175D01*
X282D01*
X287Y-2172D01*
X292Y-2167D01*
X306Y-2132D02*
X311Y-2129D01*
X319Y-2122D01*
Y-2175D01*
X361Y-2122D02*
X353Y-2124D01*
X348Y-2132D01*
X345Y-2145D01*
Y-2152D01*
X348Y-2165D01*
X353Y-2172D01*
X361Y-2175D01*
X366D01*
X373Y-2172D01*
X378Y-2165D01*
X381Y-2152D01*
Y-2145D01*
X378Y-2132D01*
X373Y-2124D01*
X366Y-2122D01*
X361D01*
X398D02*
X426D01*
X411Y-2142D01*
X418D01*
X423Y-2145D01*
X426Y-2147D01*
X428Y-2155D01*
Y-2160D01*
X426Y-2167D01*
X421Y-2172D01*
X413Y-2175D01*
X406D01*
X398Y-2172D01*
X395Y-2170D01*
X393Y-2165D01*
X482Y-2122D02*
Y-2175D01*
Y-2122D02*
X505D01*
X513Y-2124D01*
X515Y-2127D01*
X518Y-2132D01*
Y-2137D01*
X515Y-2142D01*
X513Y-2145D01*
X505Y-2147D01*
X482D01*
X500D02*
X518Y-2175D01*
X530Y-2155D02*
X560D01*
Y-2150D01*
X558Y-2145D01*
X555Y-2142D01*
X550Y-2139D01*
X542D01*
X537Y-2142D01*
X532Y-2147D01*
X530Y-2155D01*
Y-2160D01*
X532Y-2167D01*
X537Y-2172D01*
X542Y-2175D01*
X550D01*
X555Y-2172D01*
X560Y-2167D01*
X572Y-2139D02*
X587Y-2175D01*
X602Y-2139D02*
X587Y-2175D01*
X611Y-2132D02*
X616Y-2129D01*
X623Y-2122D01*
Y-2175D01*
X680Y-2122D02*
X655D01*
X652Y-2145D01*
X655Y-2142D01*
X663Y-2139D01*
X670D01*
X678Y-2142D01*
X683Y-2147D01*
X685Y-2155D01*
Y-2160D01*
X683Y-2167D01*
X678Y-2172D01*
X670Y-2175D01*
X663D01*
X655Y-2172D01*
X652Y-2170D01*
X650Y-2165D01*
X700Y-2170D02*
X697Y-2172D01*
X700Y-2175D01*
X702Y-2172D01*
X700Y-2170D01*
X714Y-2150D02*
X737D01*
X745Y-2147D01*
X747Y-2145D01*
X750Y-2139D01*
Y-2132D01*
X747Y-2127D01*
X745Y-2124D01*
X737Y-2122D01*
X714D01*
Y-2175D01*
X800Y-2134D02*
X797Y-2129D01*
X792Y-2124D01*
X787Y-2122D01*
X777D01*
X772Y-2124D01*
X767Y-2129D01*
X764Y-2134D01*
X762Y-2142D01*
Y-2155D01*
X764Y-2162D01*
X767Y-2167D01*
X772Y-2172D01*
X777Y-2175D01*
X787D01*
X792Y-2172D01*
X797Y-2167D01*
X800Y-2162D01*
X815Y-2122D02*
Y-2175D01*
Y-2122D02*
X837D01*
X845Y-2124D01*
X848Y-2127D01*
X850Y-2132D01*
Y-2137D01*
X848Y-2142D01*
X845Y-2145D01*
X837Y-2147D01*
X815D02*
X837D01*
X845Y-2150D01*
X848Y-2152D01*
X850Y-2157D01*
Y-2165D01*
X848Y-2170D01*
X845Y-2172D01*
X837Y-2175D01*
X815D01*
X2816Y-1787D02*
Y-1841D01*
Y-1787D02*
X2834D01*
X2841Y-1790D01*
X2846Y-1795D01*
X2849Y-1800D01*
X2851Y-1808D01*
Y-1820D01*
X2849Y-1828D01*
X2846Y-1833D01*
X2841Y-1838D01*
X2834Y-1841D01*
X2816D01*
X2904D02*
X2884Y-1787D01*
X2863Y-1841D01*
X2871Y-1823D02*
X2896D01*
X2934Y-1787D02*
Y-1841D01*
X2916Y-1787D02*
X2952D01*
X2991D02*
X2958D01*
Y-1841D01*
X2991D01*
X2958Y-1813D02*
X2979D01*
X3003Y-1805D02*
X3000Y-1808D01*
X3003Y-1810D01*
X3005Y-1808D01*
X3003Y-1805D01*
Y-1836D02*
X3000Y-1838D01*
X3003Y-1841D01*
X3005Y-1838D01*
X3003Y-1836D01*
X2353Y-1787D02*
Y-1841D01*
Y-1787D02*
X2376D01*
X2384Y-1790D01*
X2386Y-1792D01*
X2389Y-1798D01*
Y-1803D01*
X2386Y-1808D01*
X2384Y-1810D01*
X2376Y-1813D01*
X2353D01*
X2371D02*
X2389Y-1841D01*
X2434Y-1787D02*
X2401D01*
Y-1841D01*
X2434D01*
X2401Y-1813D02*
X2421D01*
X2443Y-1787D02*
X2463Y-1841D01*
X2483Y-1787D02*
X2463Y-1841D01*
X2493Y-1805D02*
X2490Y-1808D01*
X2493Y-1810D01*
X2495Y-1808D01*
X2493Y-1805D01*
Y-1836D02*
X2490Y-1838D01*
X2493Y-1841D01*
X2495Y-1838D01*
X2493Y-1836D01*
X-284Y-1540D02*
X-261D01*
X-254Y-1538D01*
X-251Y-1535D01*
X-249Y-1530D01*
Y-1523D01*
X-251Y-1517D01*
X-254Y-1515D01*
X-261Y-1512D01*
X-284D01*
Y-1566D01*
X-237Y-1512D02*
Y-1566D01*
X-201Y-1512D02*
Y-1566D01*
X-237Y-1538D02*
X-201D01*
X-171Y-1512D02*
X-176Y-1515D01*
X-181Y-1520D01*
X-184Y-1525D01*
X-186Y-1533D01*
Y-1545D01*
X-184Y-1553D01*
X-181Y-1558D01*
X-176Y-1563D01*
X-171Y-1566D01*
X-161D01*
X-156Y-1563D01*
X-151Y-1558D01*
X-148Y-1553D01*
X-146Y-1545D01*
Y-1533D01*
X-148Y-1525D01*
X-151Y-1520D01*
X-156Y-1515D01*
X-161Y-1512D01*
X-171D01*
X-133D02*
Y-1566D01*
Y-1512D02*
X-98Y-1566D01*
Y-1512D02*
Y-1566D01*
X-50Y-1512D02*
X-83D01*
Y-1566D01*
X-50D01*
X-83Y-1538D02*
X-63D01*
X-39Y-1530D02*
X-41Y-1533D01*
X-39Y-1535D01*
X-36Y-1533D01*
X-39Y-1530D01*
Y-1561D02*
X-41Y-1563D01*
X-39Y-1566D01*
X-36Y-1563D01*
X-39Y-1561D01*
X-284Y-1915D02*
X-261D01*
X-254Y-1913D01*
X-251Y-1910D01*
X-249Y-1905D01*
Y-1898D01*
X-251Y-1892D01*
X-254Y-1890D01*
X-261Y-1887D01*
X-284D01*
Y-1941D01*
X-237Y-1887D02*
Y-1941D01*
X-201Y-1887D02*
Y-1941D01*
X-237Y-1913D02*
X-201D01*
X-171Y-1887D02*
X-176Y-1890D01*
X-181Y-1895D01*
X-184Y-1900D01*
X-186Y-1908D01*
Y-1920D01*
X-184Y-1928D01*
X-181Y-1933D01*
X-176Y-1938D01*
X-171Y-1941D01*
X-161D01*
X-156Y-1938D01*
X-151Y-1933D01*
X-148Y-1928D01*
X-146Y-1920D01*
Y-1908D01*
X-148Y-1900D01*
X-151Y-1895D01*
X-156Y-1890D01*
X-161Y-1887D01*
X-171D01*
X-133D02*
Y-1941D01*
Y-1887D02*
X-98Y-1941D01*
Y-1887D02*
Y-1941D01*
X-50Y-1887D02*
X-83D01*
Y-1941D01*
X-50D01*
X-83Y-1913D02*
X-63D01*
X-39Y-1905D02*
X-41Y-1908D01*
X-39Y-1910D01*
X-36Y-1908D01*
X-39Y-1905D01*
Y-1936D02*
X-41Y-1938D01*
X-39Y-1941D01*
X-36Y-1938D01*
X-39Y-1936D01*
X1556Y-2065D02*
Y-2118D01*
X1586D01*
X1633D02*
X1613Y-2065D01*
X1592Y-2118D01*
X1600Y-2100D02*
X1625D01*
X1645Y-2065D02*
X1666Y-2090D01*
Y-2118D01*
X1686Y-2065D02*
X1666Y-2090D01*
X1726Y-2065D02*
X1693D01*
Y-2118D01*
X1726D01*
X1693Y-2090D02*
X1713D01*
X1735Y-2065D02*
Y-2118D01*
Y-2065D02*
X1758D01*
X1765Y-2067D01*
X1768Y-2070D01*
X1770Y-2075D01*
Y-2080D01*
X1768Y-2085D01*
X1765Y-2088D01*
X1758Y-2090D01*
X1735D01*
X1752D02*
X1770Y-2118D01*
X1785Y-2083D02*
X1782Y-2085D01*
X1785Y-2088D01*
X1787Y-2085D01*
X1785Y-2083D01*
Y-2113D02*
X1782Y-2116D01*
X1785Y-2118D01*
X1787Y-2116D01*
X1785Y-2113D01*
X-251Y-1325D02*
X-284D01*
Y-1378D01*
X-251D01*
X-284Y-1350D02*
X-264D01*
X-242Y-1325D02*
Y-1378D01*
Y-1325D02*
X-207Y-1378D01*
Y-1325D02*
Y-1378D01*
X-154Y-1338D02*
X-156Y-1332D01*
X-161Y-1327D01*
X-167Y-1325D01*
X-177D01*
X-182Y-1327D01*
X-187Y-1332D01*
X-189Y-1338D01*
X-192Y-1345D01*
Y-1358D01*
X-189Y-1365D01*
X-187Y-1371D01*
X-182Y-1376D01*
X-177Y-1378D01*
X-167D01*
X-161Y-1376D01*
X-156Y-1371D01*
X-154Y-1365D01*
Y-1358D01*
X-167D02*
X-154D01*
X-142Y-1325D02*
Y-1378D01*
X-130Y-1325D02*
Y-1378D01*
Y-1325D02*
X-95Y-1378D01*
Y-1325D02*
Y-1378D01*
X-47Y-1325D02*
X-80D01*
Y-1378D01*
X-47D01*
X-80Y-1350D02*
X-60D01*
X-5Y-1325D02*
X-38D01*
Y-1378D01*
X-5D01*
X-38Y-1350D02*
X-18D01*
X4Y-1325D02*
Y-1378D01*
Y-1325D02*
X26D01*
X34Y-1327D01*
X37Y-1330D01*
X39Y-1335D01*
Y-1340D01*
X37Y-1345D01*
X34Y-1348D01*
X26Y-1350D01*
X4D01*
X21D02*
X39Y-1378D01*
X54Y-1343D02*
X51Y-1345D01*
X54Y-1348D01*
X56Y-1345D01*
X54Y-1343D01*
Y-1373D02*
X51Y-1376D01*
X54Y-1378D01*
X56Y-1376D01*
X54Y-1373D01*
X616Y-1815D02*
X639D01*
X646Y-1813D01*
X649Y-1810D01*
X651Y-1805D01*
Y-1798D01*
X649Y-1792D01*
X646Y-1790D01*
X639Y-1787D01*
X616D01*
Y-1841D01*
X704D02*
X684Y-1787D01*
X663Y-1841D01*
X671Y-1823D02*
X696D01*
X716Y-1787D02*
Y-1841D01*
Y-1787D02*
X739D01*
X747Y-1790D01*
X749Y-1792D01*
X752Y-1798D01*
Y-1803D01*
X749Y-1808D01*
X747Y-1810D01*
X739Y-1813D01*
X716D01*
X734D02*
X752Y-1841D01*
X782Y-1787D02*
Y-1841D01*
X764Y-1787D02*
X800D01*
X848D02*
Y-1841D01*
Y-1787D02*
X883Y-1841D01*
Y-1787D02*
Y-1841D01*
X913Y-1787D02*
X908Y-1790D01*
X903Y-1795D01*
X901Y-1800D01*
X898Y-1808D01*
Y-1820D01*
X901Y-1828D01*
X903Y-1833D01*
X908Y-1838D01*
X913Y-1841D01*
X923D01*
X928Y-1838D01*
X934Y-1833D01*
X936Y-1828D01*
X939Y-1820D01*
Y-1808D01*
X936Y-1800D01*
X934Y-1795D01*
X928Y-1790D01*
X923Y-1787D01*
X913D01*
X954Y-1836D02*
X951Y-1838D01*
X954Y-1841D01*
X956Y-1838D01*
X954Y-1836D01*
X970Y-1805D02*
X968Y-1808D01*
X970Y-1810D01*
X973Y-1808D01*
X970Y-1805D01*
Y-1836D02*
X968Y-1838D01*
X970Y-1841D01*
X973Y-1838D01*
X970Y-1836D01*
X621Y-1312D02*
Y-1366D01*
X603Y-1312D02*
X639D01*
X645D02*
Y-1366D01*
X674Y-1312D02*
Y-1366D01*
X656Y-1312D02*
X692D01*
X698D02*
Y-1366D01*
X729D01*
X768Y-1312D02*
X735D01*
Y-1366D01*
X768D01*
X735Y-1338D02*
X755D01*
X779Y-1330D02*
X777Y-1333D01*
X779Y-1335D01*
X782Y-1333D01*
X779Y-1330D01*
Y-1361D02*
X777Y-1363D01*
X779Y-1366D01*
X782Y-1363D01*
X779Y-1361D01*
X-284Y-1705D02*
Y-1758D01*
Y-1705D02*
X-266D01*
X-259Y-1707D01*
X-254Y-1712D01*
X-251Y-1718D01*
X-249Y-1725D01*
Y-1738D01*
X-251Y-1745D01*
X-254Y-1751D01*
X-259Y-1756D01*
X-266Y-1758D01*
X-284D01*
X-237Y-1723D02*
Y-1758D01*
Y-1738D02*
X-234Y-1730D01*
X-229Y-1725D01*
X-224Y-1723D01*
X-216D01*
X-181D02*
Y-1758D01*
Y-1730D02*
X-186Y-1725D01*
X-191Y-1723D01*
X-199D01*
X-204Y-1725D01*
X-209Y-1730D01*
X-211Y-1738D01*
Y-1743D01*
X-209Y-1751D01*
X-204Y-1756D01*
X-199Y-1758D01*
X-191D01*
X-186Y-1756D01*
X-181Y-1751D01*
X-167Y-1723D02*
X-157Y-1758D01*
X-146Y-1723D02*
X-157Y-1758D01*
X-146Y-1723D02*
X-136Y-1758D01*
X-126Y-1723D02*
X-136Y-1758D01*
X-114Y-1723D02*
Y-1758D01*
Y-1733D02*
X-106Y-1725D01*
X-101Y-1723D01*
X-93D01*
X-88Y-1725D01*
X-86Y-1733D01*
Y-1758D01*
X-30Y-1705D02*
Y-1758D01*
Y-1730D02*
X-25Y-1725D01*
X-20Y-1723D01*
X-12D01*
X-7Y-1725D01*
X-2Y-1730D01*
X1Y-1738D01*
Y-1743D01*
X-2Y-1751D01*
X-7Y-1756D01*
X-12Y-1758D01*
X-20D01*
X-25Y-1756D01*
X-30Y-1751D01*
X15Y-1723D02*
X30Y-1758D01*
X45Y-1723D02*
X30Y-1758D01*
X25Y-1768D01*
X20Y-1773D01*
X15Y-1776D01*
X12D01*
X56Y-1723D02*
X54Y-1725D01*
X56Y-1728D01*
X59Y-1725D01*
X56Y-1723D01*
Y-1753D02*
X54Y-1756D01*
X56Y-1758D01*
X59Y-1756D01*
X56Y-1753D01*
X-284Y-2065D02*
Y-2118D01*
Y-2065D02*
X-251D01*
X-284Y-2090D02*
X-264D01*
X-245Y-2065D02*
Y-2118D01*
X-234Y-2065D02*
Y-2118D01*
X-203D01*
X-164Y-2065D02*
X-197D01*
Y-2118D01*
X-164D01*
X-197Y-2090D02*
X-177D01*
X-114Y-2065D02*
Y-2118D01*
Y-2065D02*
X-78Y-2118D01*
Y-2065D02*
Y-2118D01*
X-23D02*
X-43Y-2065D01*
X-63Y-2118D01*
X-56Y-2100D02*
X-30D01*
X-10Y-2065D02*
Y-2118D01*
Y-2065D02*
X10Y-2118D01*
X30Y-2065D02*
X10Y-2118D01*
X30Y-2065D02*
Y-2118D01*
X79Y-2065D02*
X46D01*
Y-2118D01*
X79D01*
X46Y-2090D02*
X66D01*
X90Y-2083D02*
X87Y-2085D01*
X90Y-2088D01*
X92Y-2085D01*
X90Y-2083D01*
Y-2113D02*
X87Y-2116D01*
X90Y-2118D01*
X92Y-2116D01*
X90Y-2113D01*
X3414Y-2078D02*
X3411Y-2072D01*
X3406Y-2067D01*
X3401Y-2065D01*
X3391D01*
X3386Y-2067D01*
X3381Y-2072D01*
X3378Y-2078D01*
X3376Y-2085D01*
Y-2098D01*
X3378Y-2105D01*
X3381Y-2111D01*
X3386Y-2116D01*
X3391Y-2118D01*
X3401D01*
X3406Y-2116D01*
X3411Y-2111D01*
X3414Y-2105D01*
Y-2098D01*
X3401D02*
X3414D01*
X3459Y-2065D02*
X3426D01*
Y-2118D01*
X3459D01*
X3426Y-2090D02*
X3447D01*
X3468Y-2065D02*
Y-2118D01*
Y-2065D02*
X3491D01*
X3499Y-2067D01*
X3501Y-2070D01*
X3504Y-2075D01*
Y-2080D01*
X3501Y-2085D01*
X3499Y-2088D01*
X3491Y-2090D01*
X3468D01*
X3486D02*
X3504Y-2118D01*
X3516Y-2065D02*
Y-2118D01*
Y-2065D02*
X3538D01*
X3546Y-2067D01*
X3549Y-2070D01*
X3551Y-2075D01*
Y-2080D01*
X3549Y-2085D01*
X3546Y-2088D01*
X3538Y-2090D01*
X3516D02*
X3538D01*
X3546Y-2093D01*
X3549Y-2095D01*
X3551Y-2100D01*
Y-2108D01*
X3549Y-2113D01*
X3546Y-2116D01*
X3538Y-2118D01*
X3516D01*
X3596Y-2065D02*
X3563D01*
Y-2118D01*
X3596D01*
X3563Y-2090D02*
X3583D01*
X3605Y-2065D02*
Y-2118D01*
Y-2065D02*
X3628D01*
X3635Y-2067D01*
X3638Y-2070D01*
X3640Y-2075D01*
Y-2080D01*
X3638Y-2085D01*
X3635Y-2088D01*
X3628Y-2090D01*
X3605D01*
X3623D02*
X3640Y-2118D01*
X3655Y-2083D02*
X3652Y-2085D01*
X3655Y-2088D01*
X3658Y-2085D01*
X3655Y-2083D01*
Y-2113D02*
X3652Y-2116D01*
X3655Y-2118D01*
X3658Y-2116D01*
X3655Y-2113D01*
D39*
X3256Y-1840D02*
X3231Y-1876D01*
X3269D01*
X3256Y-1840D02*
Y-1894D01*
X3278Y-1901D02*
X3314Y-1840D01*
X3317Y-1850D02*
X3322Y-1848D01*
X3330Y-1840D01*
Y-1894D01*
X3392Y-1840D02*
X3367Y-1894D01*
X3356Y-1840D02*
X3392D01*
X3404Y-1901D02*
X3439Y-1840D01*
X3446Y-1853D02*
Y-1850D01*
X3448Y-1845D01*
X3451Y-1843D01*
X3456Y-1840D01*
X3466D01*
X3471Y-1843D01*
X3473Y-1845D01*
X3476Y-1850D01*
Y-1856D01*
X3473Y-1861D01*
X3468Y-1868D01*
X3443Y-1894D01*
X3479D01*
X3506Y-1840D02*
X3498Y-1843D01*
X3493Y-1850D01*
X3490Y-1863D01*
Y-1871D01*
X3493Y-1883D01*
X3498Y-1891D01*
X3506Y-1894D01*
X3511D01*
X3518Y-1891D01*
X3523Y-1883D01*
X3526Y-1871D01*
Y-1863D01*
X3523Y-1850D01*
X3518Y-1843D01*
X3511Y-1840D01*
X3506D01*
X3553D02*
X3546Y-1843D01*
X3540Y-1850D01*
X3538Y-1863D01*
Y-1871D01*
X3540Y-1883D01*
X3546Y-1891D01*
X3553Y-1894D01*
X3558D01*
X3566Y-1891D01*
X3571Y-1883D01*
X3573Y-1871D01*
Y-1863D01*
X3571Y-1850D01*
X3566Y-1843D01*
X3558Y-1840D01*
X3553D01*
X3598D02*
X3590Y-1843D01*
X3588Y-1848D01*
Y-1853D01*
X3590Y-1858D01*
X3596Y-1861D01*
X3606Y-1863D01*
X3613Y-1866D01*
X3618Y-1871D01*
X3621Y-1876D01*
Y-1883D01*
X3618Y-1889D01*
X3616Y-1891D01*
X3608Y-1894D01*
X3598D01*
X3590Y-1891D01*
X3588Y-1889D01*
X3585Y-1883D01*
Y-1876D01*
X3588Y-1871D01*
X3593Y-1866D01*
X3601Y-1863D01*
X3611Y-1861D01*
X3616Y-1858D01*
X3618Y-1853D01*
Y-1848D01*
X3616Y-1843D01*
X3608Y-1840D01*
X3598D01*
X2528Y-1873D02*
X2533Y-1870D01*
X2541Y-1862D01*
Y-1916D01*
X2598Y-1862D02*
X2573D01*
X2570Y-1885D01*
X2573Y-1883D01*
X2580Y-1880D01*
X2588D01*
X2595Y-1883D01*
X2601Y-1888D01*
X2603Y-1895D01*
Y-1900D01*
X2601Y-1908D01*
X2595Y-1913D01*
X2588Y-1916D01*
X2580D01*
X2573Y-1913D01*
X2570Y-1911D01*
X2568Y-1906D01*
X819Y-1173D02*
X782Y-1077D01*
X746Y-1173D01*
X760Y-1141D02*
X805D01*
X896Y-1123D02*
X887Y-1114D01*
X878Y-1109D01*
X864D01*
X855Y-1114D01*
X846Y-1123D01*
X841Y-1137D01*
Y-1146D01*
X846Y-1159D01*
X855Y-1169D01*
X864Y-1173D01*
X878D01*
X887Y-1169D01*
X896Y-1159D01*
X931Y-1077D02*
Y-1155D01*
X935Y-1169D01*
X944Y-1173D01*
X953D01*
X917Y-1109D02*
X949D01*
X976Y-1077D02*
X981Y-1082D01*
X985Y-1077D01*
X981Y-1073D01*
X976Y-1077D01*
X981Y-1109D02*
Y-1173D01*
X1002Y-1109D02*
X1030Y-1173D01*
X1057Y-1109D02*
X1030Y-1173D01*
X1073Y-1137D02*
X1128D01*
Y-1127D01*
X1123Y-1118D01*
X1118Y-1114D01*
X1109Y-1109D01*
X1096D01*
X1086Y-1114D01*
X1077Y-1123D01*
X1073Y-1137D01*
Y-1146D01*
X1077Y-1159D01*
X1086Y-1169D01*
X1096Y-1173D01*
X1109D01*
X1118Y-1169D01*
X1128Y-1159D01*
X1224Y-1077D02*
X1246Y-1173D01*
X1269Y-1077D02*
X1246Y-1173D01*
X1269Y-1077D02*
X1292Y-1173D01*
X1315Y-1077D02*
X1292Y-1173D01*
X1389Y-1109D02*
Y-1173D01*
Y-1123D02*
X1380Y-1114D01*
X1371Y-1109D01*
X1357D01*
X1348Y-1114D01*
X1339Y-1123D01*
X1334Y-1137D01*
Y-1146D01*
X1339Y-1159D01*
X1348Y-1169D01*
X1357Y-1173D01*
X1371D01*
X1380Y-1169D01*
X1389Y-1159D01*
X1415Y-1109D02*
X1442Y-1173D01*
X1469Y-1109D02*
X1442Y-1173D01*
X1485Y-1137D02*
X1540D01*
Y-1127D01*
X1535Y-1118D01*
X1531Y-1114D01*
X1522Y-1109D01*
X1508D01*
X1499Y-1114D01*
X1490Y-1123D01*
X1485Y-1137D01*
Y-1146D01*
X1490Y-1159D01*
X1499Y-1169D01*
X1508Y-1173D01*
X1522D01*
X1531Y-1169D01*
X1540Y-1159D01*
X1416Y-1440D02*
Y-1536D01*
X1384Y-1440D02*
X1448D01*
X1514Y-1472D02*
Y-1536D01*
Y-1486D02*
X1505Y-1477D01*
X1496Y-1472D01*
X1482D01*
X1473Y-1477D01*
X1464Y-1486D01*
X1459Y-1499D01*
Y-1509D01*
X1464Y-1522D01*
X1473Y-1531D01*
X1482Y-1536D01*
X1496D01*
X1505Y-1531D01*
X1514Y-1522D01*
X1595Y-1472D02*
Y-1545D01*
X1590Y-1559D01*
X1586Y-1563D01*
X1576Y-1568D01*
X1563D01*
X1554Y-1563D01*
X1595Y-1486D02*
X1586Y-1477D01*
X1576Y-1472D01*
X1563D01*
X1554Y-1477D01*
X1544Y-1486D01*
X1540Y-1499D01*
Y-1509D01*
X1544Y-1522D01*
X1554Y-1531D01*
X1563Y-1536D01*
X1576D01*
X1586Y-1531D01*
X1595Y-1522D01*
X1620Y-1458D02*
X1629Y-1454D01*
X1643Y-1440D01*
Y-1536D01*
X1718Y-1440D02*
X1704Y-1445D01*
X1695Y-1458D01*
X1691Y-1481D01*
Y-1495D01*
X1695Y-1518D01*
X1704Y-1531D01*
X1718Y-1536D01*
X1727D01*
X1741Y-1531D01*
X1750Y-1518D01*
X1755Y-1495D01*
Y-1481D01*
X1750Y-1458D01*
X1741Y-1445D01*
X1727Y-1440D01*
X1718D01*
X1785D02*
X1836D01*
X1808Y-1477D01*
X1822D01*
X1831Y-1481D01*
X1836Y-1486D01*
X1840Y-1499D01*
Y-1509D01*
X1836Y-1522D01*
X1826Y-1531D01*
X1813Y-1536D01*
X1799D01*
X1785Y-1531D01*
X1781Y-1527D01*
X1776Y-1518D01*
M02*
