M48
;Layer_Color=16711680
;FILE_FORMAT=2:3
INCH,LZ
;TYPE=PLATED
T1F00S00C0.012
T2F00S00C0.020
T3F00S00C0.028
T4F00S00C0.033
T5F00S00C0.040
%
T01
X00013Y00253
X00075Y0015
X0022Y00236
X00295Y00307
X00243Y00377
X00181Y00369
X00232Y00499
X00266Y00613
X00336Y00627
X00401
X00507Y00541
X0061Y00579
X00684Y00554
X00694Y00599
X00749Y00454
X00784
X00773Y00393
X0069Y0036
X00739Y00276
X00864Y00279
X00872Y00152
X00809Y00096
Y00021
X0073Y00047
X00724Y00152
X00652Y00123
X00602Y00152
X00552Y00139
X0049Y00082
X005Y00001
X00394Y00026
X00395Y00189
X0049Y0024
X00524Y00273
X00544Y00369
X0037Y00465
X00065Y00591
X00899Y00599
X00937
X00969Y00564
X00984Y00229
X00864Y00689
X00694Y00659
X00589Y00659
X00534Y00644
X00509Y00674
X00574Y00724
X00449Y00779
X00398Y00846
X00345Y00845
X00263Y00814
X00335Y00741
X00185
X0011Y00745
X00098Y00646
X00206Y00674
X00743Y00785
X00679Y00879
T02
X00449Y00864
X00509
T03
X00729Y00869
X00779
X00829
X00879
X00929
T04
X0Y0
X0095Y00049
Y00789
X00022Y00774
T05
X00948Y-00036
M30
