%FSLAX23Y23*%
%MOIN*%
G70*
G01*
G75*
G04 Layer_Physical_Order=2*
G04 Layer_Color=16711680*
%ADD10R,0.024X0.024*%
%ADD11R,0.014X0.035*%
%ADD12R,0.014X0.035*%
%ADD13R,0.030X0.030*%
%ADD14R,0.030X0.030*%
%ADD15R,0.025X0.030*%
%ADD16R,0.074X0.045*%
%ADD17R,0.020X0.050*%
%ADD18O,0.016X0.060*%
%ADD19O,0.016X0.060*%
%ADD20R,0.024X0.100*%
%ADD21R,0.024X0.090*%
%ADD22R,0.070X0.024*%
%ADD23R,0.090X0.024*%
%ADD24R,0.075X0.043*%
%ADD25R,0.036X0.050*%
%ADD26R,0.036X0.036*%
%ADD27O,0.024X0.080*%
%ADD28C,0.010*%
%ADD29C,0.008*%
%ADD30C,0.020*%
%ADD31C,0.025*%
%ADD32C,0.012*%
%ADD33C,0.015*%
%ADD34C,0.016*%
%ADD35C,0.014*%
%ADD36C,0.026*%
%ADD37C,0.006*%
%ADD38C,0.005*%
%ADD39C,0.009*%
%ADD40C,0.039*%
%ADD41C,0.070*%
%ADD42R,0.050X0.050*%
%ADD43R,0.039X0.043*%
%ADD44C,0.024*%
%ADD45R,0.070X0.070*%
%ADD46R,0.140X0.140*%
%ADD47C,0.030*%
G36*
X903Y851D02*
X882Y831D01*
X879Y825D01*
X878Y819D01*
Y743D01*
X808D01*
X760Y791D01*
X760Y792D01*
X756Y798D01*
X750Y802D01*
X743Y803D01*
X736Y802D01*
X730Y798D01*
X726Y792D01*
X725Y785D01*
X726Y778D01*
X730Y772D01*
X736Y768D01*
X737Y768D01*
X789Y716D01*
X795Y712D01*
X801Y711D01*
X887D01*
X953Y645D01*
Y574D01*
X894Y516D01*
X890Y510D01*
X889Y502D01*
Y445D01*
X834D01*
Y474D01*
X833Y478D01*
X831Y481D01*
X806Y506D01*
X803Y508D01*
X799Y509D01*
X613D01*
X544Y578D01*
Y629D01*
X547Y631D01*
X551Y637D01*
X552Y644D01*
X551Y651D01*
X547Y657D01*
X541Y661D01*
X534Y662D01*
X528Y661D01*
X525Y665D01*
X526Y667D01*
X527Y674D01*
X526Y681D01*
X522Y687D01*
X516Y691D01*
X509Y692D01*
X502Y691D01*
X496Y687D01*
X492Y681D01*
X491Y674D01*
X492Y667D01*
X496Y661D01*
X499Y659D01*
Y574D01*
X500Y570D01*
X502Y567D01*
X505Y563D01*
X504Y558D01*
X500Y558D01*
X494Y554D01*
X490Y548D01*
X489Y541D01*
X490Y534D01*
X494Y528D01*
X500Y524D01*
X507Y522D01*
X511Y523D01*
X587Y447D01*
X587Y447D01*
X587Y447D01*
X587Y447D01*
Y447D01*
X590Y445D01*
X594Y444D01*
X734D01*
X736Y441D01*
X742Y437D01*
X749Y436D01*
X756Y437D01*
X762Y441D01*
X764Y444D01*
X769D01*
X771Y441D01*
X773Y440D01*
Y411D01*
X766Y410D01*
X760Y406D01*
X759Y404D01*
X600D01*
X480Y524D01*
Y659D01*
X480Y659D01*
X479Y663D01*
X479D01*
X479Y663D01*
X479Y663D01*
Y663D01*
X479D01*
X477Y667D01*
X477Y667D01*
X380Y764D01*
Y821D01*
X380Y821D01*
X379Y825D01*
X377Y829D01*
X377Y829D01*
X363Y843D01*
X364Y845D01*
X362Y852D01*
X358Y858D01*
X353Y862D01*
X345Y863D01*
X338Y862D01*
X333Y858D01*
X331Y856D01*
X294D01*
X294Y856D01*
X289Y855D01*
X286Y853D01*
X286Y853D01*
X265Y832D01*
X263Y832D01*
X256Y831D01*
X250Y827D01*
X246Y821D01*
X245Y814D01*
X246Y807D01*
X250Y801D01*
X256Y797D01*
X263Y796D01*
X270Y797D01*
X276Y801D01*
X280Y807D01*
X281Y814D01*
X281Y816D01*
X298Y833D01*
X331D01*
X333Y832D01*
X338Y828D01*
X345Y826D01*
X348Y827D01*
X358Y816D01*
Y759D01*
X358Y759D01*
X359Y755D01*
X361Y751D01*
X458Y654D01*
Y519D01*
X458Y519D01*
X459Y515D01*
X461Y511D01*
X587Y385D01*
X587Y385D01*
X591Y383D01*
Y383D01*
X591Y383D01*
X591D01*
Y383D01*
X591Y383D01*
X591Y383D01*
X595Y382D01*
X595Y382D01*
X759D01*
X760Y380D01*
X766Y376D01*
X773Y375D01*
X780Y376D01*
X786Y380D01*
X790Y386D01*
X791Y393D01*
X791Y395D01*
X792Y396D01*
X792Y396D01*
X794Y399D01*
X799Y398D01*
Y350D01*
X742Y294D01*
X739Y294D01*
X732Y293D01*
X726Y289D01*
X722Y283D01*
X721Y276D01*
X722Y269D01*
X726Y263D01*
X732Y259D01*
X739Y258D01*
X746Y259D01*
X752Y263D01*
X756Y269D01*
X757Y276D01*
X757Y279D01*
X809Y332D01*
X814Y330D01*
Y269D01*
X814Y269D01*
X814D01*
X815Y265D01*
X817Y262D01*
X894Y185D01*
Y161D01*
X889Y160D01*
X885Y165D01*
X879Y169D01*
X872Y171D01*
X724D01*
X717Y169D01*
X711Y165D01*
X707Y159D01*
X705Y152D01*
X707Y145D01*
X711Y139D01*
X717Y135D01*
X724Y133D01*
X872D01*
X879Y135D01*
X885Y139D01*
X889Y144D01*
X894Y143D01*
Y125D01*
X875Y106D01*
X824D01*
X822Y109D01*
X816Y113D01*
X809Y114D01*
X802Y113D01*
X796Y109D01*
X795Y106D01*
X684D01*
X670Y120D01*
X670Y123D01*
X669Y130D01*
X665Y136D01*
X659Y140D01*
X652Y141D01*
X645Y140D01*
X639Y136D01*
X635Y130D01*
X634Y123D01*
X635Y116D01*
X639Y110D01*
X645Y106D01*
X652Y105D01*
X655Y105D01*
X672Y88D01*
X676Y86D01*
X679Y85D01*
X795D01*
X796Y83D01*
X802Y79D01*
X809Y77D01*
X816Y79D01*
X822Y83D01*
X824Y85D01*
X879D01*
X883Y86D01*
X886Y88D01*
Y88D01*
X886D01*
Y88D01*
Y88D01*
Y88D01*
X886D01*
X911Y113D01*
X913Y117D01*
X914Y121D01*
X914D01*
Y121D01*
X914D01*
Y121D01*
Y121D01*
X914D01*
X914Y121D01*
Y189D01*
X913Y193D01*
X911Y196D01*
X911Y196D01*
X911D01*
X911Y196D01*
Y196D01*
X834Y273D01*
Y293D01*
X893D01*
X894Y292D01*
X971Y216D01*
X977Y212D01*
X984Y210D01*
X990Y211D01*
X994Y208D01*
Y-66D01*
X979D01*
Y-5D01*
X917D01*
Y-66D01*
X910D01*
Y-17D01*
X518D01*
Y-66D01*
X180D01*
Y98D01*
X-67D01*
Y407D01*
X57D01*
Y551D01*
X42D01*
Y609D01*
X126D01*
Y677D01*
X81Y720D01*
Y889D01*
X492D01*
X493Y884D01*
X491Y882D01*
X487Y877D01*
X484Y871D01*
X483Y864D01*
X484Y857D01*
X487Y851D01*
X491Y846D01*
X496Y842D01*
X502Y839D01*
X509Y838D01*
X516Y839D01*
X522Y842D01*
X527Y846D01*
X531Y851D01*
X533Y854D01*
X565D01*
X589Y830D01*
Y741D01*
X584Y739D01*
X581Y741D01*
X574Y742D01*
X571Y742D01*
X526Y786D01*
X523Y788D01*
X519Y789D01*
X464D01*
X462Y792D01*
X456Y796D01*
X449Y797D01*
X442Y796D01*
X436Y792D01*
X432Y786D01*
X431Y779D01*
X432Y772D01*
X436Y766D01*
X442Y762D01*
X449Y761D01*
X456Y762D01*
X462Y766D01*
X464Y769D01*
X515D01*
X556Y727D01*
X556Y724D01*
X557Y717D01*
X561Y711D01*
X567Y707D01*
X574Y706D01*
X581Y707D01*
X584Y709D01*
X589Y707D01*
Y678D01*
X589Y678D01*
X582Y676D01*
X576Y672D01*
X572Y666D01*
X570Y659D01*
X572Y652D01*
X576Y646D01*
X582Y643D01*
X589Y641D01*
X596Y643D01*
X599Y645D01*
X604Y643D01*
Y596D01*
X603Y596D01*
X597Y592D01*
X593Y586D01*
X591Y579D01*
X593Y572D01*
X597Y566D01*
X603Y562D01*
X610Y561D01*
X617Y562D01*
X623Y566D01*
X627Y572D01*
X628Y579D01*
X627Y586D01*
X624Y590D01*
Y593D01*
X629Y595D01*
X666Y557D01*
X666Y554D01*
X667Y547D01*
X671Y541D01*
X677Y537D01*
X684Y536D01*
X691Y537D01*
X697Y541D01*
X701Y547D01*
X702Y554D01*
X701Y561D01*
X697Y567D01*
X691Y571D01*
X684Y572D01*
X681Y572D01*
X644Y608D01*
Y628D01*
X649Y630D01*
X676Y602D01*
X676Y599D01*
X677Y592D01*
X681Y586D01*
X687Y582D01*
X694Y581D01*
X701Y582D01*
X707Y586D01*
X711Y592D01*
X712Y599D01*
X711Y606D01*
X707Y612D01*
X701Y616D01*
X694Y617D01*
X691Y617D01*
X659Y648D01*
Y800D01*
X678Y819D01*
X749D01*
X753Y820D01*
X756Y822D01*
Y822D01*
X756D01*
Y822D01*
Y822D01*
Y822D01*
X756D01*
X776Y841D01*
X855D01*
Y889D01*
X903D01*
Y851D01*
D02*
G37*
%LPC*%
G36*
X232Y517D02*
X225Y516D01*
X219Y512D01*
X215Y506D01*
X214Y499D01*
X215Y492D01*
X219Y486D01*
X221Y485D01*
Y428D01*
X221Y428D01*
X222Y424D01*
X224Y420D01*
X232Y412D01*
Y391D01*
X230Y390D01*
X226Y384D01*
X225Y377D01*
X226Y370D01*
X230Y364D01*
X236Y360D01*
X243Y359D01*
X250Y360D01*
X256Y364D01*
X260Y370D01*
X261Y377D01*
X260Y384D01*
X256Y390D01*
X254Y391D01*
Y417D01*
X253Y421D01*
X251Y425D01*
X251Y425D01*
X243Y433D01*
Y485D01*
X245Y486D01*
X249Y492D01*
X250Y499D01*
X249Y506D01*
X245Y512D01*
X239Y516D01*
X232Y517D01*
D02*
G37*
G36*
X335Y759D02*
X328Y758D01*
X322Y754D01*
X318Y748D01*
X317Y741D01*
X318Y734D01*
X319Y733D01*
Y733D01*
X319Y733D01*
X319D01*
X320Y727D01*
X323Y721D01*
X418Y627D01*
Y434D01*
X418Y434D01*
X418D01*
X419Y428D01*
X422Y422D01*
X536Y309D01*
Y292D01*
X531Y290D01*
X531Y290D01*
X524Y291D01*
X517Y290D01*
X511Y286D01*
X510Y284D01*
X422D01*
X381Y325D01*
Y451D01*
X383Y452D01*
X387Y458D01*
X388Y465D01*
X387Y472D01*
X383Y478D01*
X377Y482D01*
X370Y483D01*
X363Y482D01*
X357Y478D01*
X353Y472D01*
X352Y465D01*
X353Y458D01*
X357Y452D01*
X359Y451D01*
Y320D01*
X359Y320D01*
X360Y316D01*
X362Y312D01*
X409Y265D01*
X409Y265D01*
X413Y263D01*
Y263D01*
X413Y263D01*
D01*
D01*
D01*
X413D01*
Y263D01*
D01*
X413Y263D01*
X413Y263D01*
X417Y262D01*
X510D01*
X511Y260D01*
X517Y256D01*
X524Y255D01*
X531Y256D01*
X531Y256D01*
X536Y254D01*
Y147D01*
X535Y146D01*
X534Y139D01*
X535Y132D01*
X539Y126D01*
X545Y122D01*
X552Y121D01*
X559Y122D01*
X565Y126D01*
X569Y132D01*
X570Y139D01*
X569Y146D01*
X568Y147D01*
Y316D01*
X567Y322D01*
X564Y328D01*
X450Y441D01*
Y634D01*
X449Y640D01*
X446Y646D01*
X446Y646D01*
X446D01*
D01*
X446Y646D01*
Y646D01*
X353Y738D01*
X353Y741D01*
X352Y748D01*
X348Y754D01*
X342Y758D01*
X335Y759D01*
D02*
G37*
G36*
X220Y254D02*
X213Y253D01*
X207Y249D01*
X203Y243D01*
X202Y236D01*
X203Y229D01*
X204Y228D01*
Y6D01*
X204Y6D01*
X204D01*
X205Y-0D01*
X208Y-6D01*
X243Y-41D01*
X249Y-44D01*
X255Y-45D01*
X470D01*
X476Y-44D01*
X482Y-41D01*
Y-41D01*
X482D01*
D01*
D01*
D01*
D01*
D01*
D01*
X482D01*
D01*
X482D01*
Y-41D01*
D01*
D01*
D01*
D01*
Y-41D01*
D01*
D01*
D01*
D01*
D01*
D01*
Y-41D01*
D01*
D01*
X482D01*
D01*
D01*
D01*
X506Y-16D01*
X507Y-16D01*
X513Y-12D01*
X517Y-6D01*
X518Y1D01*
X517Y8D01*
X513Y14D01*
X507Y18D01*
X500Y19D01*
X493Y18D01*
X487Y14D01*
X483Y8D01*
X483Y7D01*
X463Y-13D01*
X262D01*
X236Y13D01*
Y228D01*
X237Y229D01*
X238Y236D01*
X237Y243D01*
X233Y249D01*
X227Y253D01*
X220Y254D01*
D02*
G37*
G36*
X694Y677D02*
X687Y676D01*
X681Y672D01*
X677Y666D01*
X676Y659D01*
X677Y652D01*
X681Y646D01*
X687Y642D01*
X694Y641D01*
X701Y642D01*
X707Y646D01*
X709Y649D01*
X835D01*
X881Y602D01*
X881Y599D01*
X882Y592D01*
X886Y586D01*
X892Y582D01*
X899Y581D01*
X906Y582D01*
X912Y586D01*
X916Y592D01*
X917Y599D01*
X916Y606D01*
X912Y612D01*
X906Y616D01*
X899Y617D01*
X896Y617D01*
X846Y666D01*
X843Y668D01*
X839Y669D01*
X709D01*
X707Y672D01*
X701Y676D01*
X694Y677D01*
D02*
G37*
G36*
X398Y864D02*
X391Y863D01*
X385Y859D01*
X381Y853D01*
X380Y846D01*
X381Y839D01*
X385Y833D01*
X391Y829D01*
X398Y828D01*
X405Y829D01*
X411Y833D01*
X415Y839D01*
X416Y846D01*
X415Y853D01*
X411Y859D01*
X405Y863D01*
X398Y864D01*
D02*
G37*
G36*
X185Y759D02*
X178Y758D01*
X172Y754D01*
X168Y748D01*
X167Y741D01*
X168Y734D01*
X172Y728D01*
X178Y724D01*
X185Y723D01*
X192Y724D01*
X198Y728D01*
X199Y730D01*
X230D01*
X322Y638D01*
X319Y634D01*
X318Y627D01*
X319Y620D01*
X323Y614D01*
X329Y610D01*
X336Y609D01*
X343Y610D01*
X349Y614D01*
X353Y620D01*
X354Y627D01*
X353Y634D01*
X349Y640D01*
X347Y641D01*
X346Y644D01*
X344Y648D01*
X344Y648D01*
X243Y749D01*
X239Y751D01*
X235Y752D01*
X235Y752D01*
X199D01*
X198Y754D01*
X192Y758D01*
X185Y759D01*
D02*
G37*
G36*
X266Y631D02*
X259Y630D01*
X253Y626D01*
X249Y620D01*
X248Y613D01*
X249Y606D01*
X253Y600D01*
X259Y596D01*
X266Y595D01*
X273Y596D01*
X279Y600D01*
X283Y606D01*
X284Y613D01*
X283Y620D01*
X279Y626D01*
X273Y630D01*
X266Y631D01*
D02*
G37*
%LPD*%
D28*
X773Y393D02*
X784Y404D01*
Y454D01*
X595Y393D02*
X773D01*
X469Y519D02*
X595Y393D01*
X235Y741D02*
X336Y640D01*
X185Y741D02*
X235D01*
X336Y627D02*
Y640D01*
X369Y759D02*
X469Y659D01*
Y519D02*
Y659D01*
X243Y377D02*
Y417D01*
X232Y428D02*
X243Y417D01*
X232Y428D02*
Y499D01*
X417Y273D02*
X524D01*
X370Y320D02*
X417Y273D01*
X370Y320D02*
Y465D01*
X369Y759D02*
Y821D01*
X345Y845D02*
X369Y821D01*
X263Y814D02*
X294Y845D01*
X343D01*
X344Y846D02*
X345Y845D01*
X1888Y-825D02*
Y-925D01*
X1831D01*
X1744D02*
X1782Y-825D01*
X1820Y-925D01*
X1806Y-892D02*
X1758D01*
X1720Y-825D02*
X1682Y-873D01*
Y-925D01*
X1644Y-825D02*
X1682Y-873D01*
X1569Y-825D02*
X1631D01*
Y-925D01*
X1569D01*
X1631Y-873D02*
X1593D01*
X1553Y-825D02*
Y-925D01*
Y-825D02*
X1510D01*
X1496Y-830D01*
X1491Y-835D01*
X1486Y-844D01*
Y-854D01*
X1491Y-863D01*
X1496Y-868D01*
X1510Y-873D01*
X1553D01*
X1520D02*
X1486Y-925D01*
X1380Y-849D02*
Y-844D01*
X1376Y-835D01*
X1371Y-830D01*
X1361Y-825D01*
X1342D01*
X1333Y-830D01*
X1328Y-835D01*
X1323Y-844D01*
Y-854D01*
X1328Y-863D01*
X1338Y-877D01*
X1385Y-925D01*
X1319D01*
X1072Y-839D02*
X1082Y-830D01*
X1096Y-825D01*
X1115D01*
X1130Y-830D01*
X1139Y-839D01*
Y-849D01*
X1134Y-858D01*
X1130Y-863D01*
X1120Y-868D01*
X1092Y-877D01*
X1082Y-882D01*
X1077Y-887D01*
X1072Y-896D01*
Y-911D01*
X1082Y-920D01*
X1096Y-925D01*
X1115D01*
X1130Y-920D01*
X1139Y-911D01*
X1022Y-825D02*
X1031Y-830D01*
X1041Y-839D01*
X1045Y-849D01*
X1050Y-863D01*
Y-887D01*
X1045Y-901D01*
X1041Y-911D01*
X1031Y-920D01*
X1022Y-925D01*
X1002D01*
X993Y-920D01*
X983Y-911D01*
X979Y-901D01*
X974Y-887D01*
Y-863D01*
X979Y-849D01*
X983Y-839D01*
X993Y-830D01*
X1002Y-825D01*
X1022D01*
X951D02*
Y-925D01*
X893D01*
X883Y-825D02*
Y-925D01*
Y-825D02*
X849D01*
X835Y-830D01*
X825Y-839D01*
X821Y-849D01*
X816Y-863D01*
Y-887D01*
X821Y-901D01*
X825Y-911D01*
X835Y-920D01*
X849Y-925D01*
X883D01*
X732Y-825D02*
X793D01*
Y-925D01*
X732D01*
X793Y-873D02*
X755D01*
X715Y-825D02*
Y-925D01*
Y-825D02*
X672D01*
X658Y-830D01*
X653Y-835D01*
X648Y-844D01*
Y-854D01*
X653Y-863D01*
X658Y-868D01*
X672Y-873D01*
X715D01*
X682D02*
X648Y-925D01*
X481Y-839D02*
X490Y-830D01*
X504Y-825D01*
X524D01*
X538Y-830D01*
X547Y-839D01*
Y-849D01*
X543Y-858D01*
X538Y-863D01*
X528Y-868D01*
X500Y-877D01*
X490Y-882D01*
X485Y-887D01*
X481Y-896D01*
Y-911D01*
X490Y-920D01*
X504Y-925D01*
X524D01*
X538Y-920D01*
X547Y-911D01*
X458Y-825D02*
Y-925D01*
X437Y-825D02*
Y-925D01*
Y-825D02*
X404D01*
X390Y-830D01*
X380Y-839D01*
X375Y-849D01*
X371Y-863D01*
Y-887D01*
X375Y-901D01*
X380Y-911D01*
X390Y-920D01*
X404Y-925D01*
X437D01*
X286Y-825D02*
X348D01*
Y-925D01*
X286D01*
X348Y-873D02*
X310D01*
X158Y-806D02*
X167Y-816D01*
X177Y-830D01*
X186Y-849D01*
X191Y-873D01*
Y-892D01*
X186Y-915D01*
X177Y-935D01*
X167Y-949D01*
X158Y-958D01*
X167Y-816D02*
X177Y-835D01*
X182Y-849D01*
X186Y-873D01*
Y-892D01*
X182Y-915D01*
X177Y-930D01*
X167Y-949D01*
X56Y-915D02*
X60Y-920D01*
X56Y-925D01*
X51Y-920D01*
X56Y-915D01*
X-43Y-849D02*
X-38Y-839D01*
X-28Y-830D01*
X-19Y-825D01*
X0D01*
X10Y-830D01*
X19Y-839D01*
X24Y-849D01*
X29Y-863D01*
Y-887D01*
X24Y-901D01*
X19Y-911D01*
X10Y-920D01*
X0Y-925D01*
X-19D01*
X-28Y-920D01*
X-38Y-911D01*
X-43Y-901D01*
Y-887D01*
X-19D02*
X-43D01*
X-65Y-825D02*
Y-925D01*
Y-825D02*
X-108D01*
X-123Y-830D01*
X-127Y-835D01*
X-132Y-844D01*
Y-854D01*
X-127Y-863D01*
X-123Y-868D01*
X-108Y-873D01*
X-65D02*
X-108D01*
X-123Y-877D01*
X-127Y-882D01*
X-132Y-892D01*
Y-906D01*
X-127Y-915D01*
X-123Y-920D01*
X-108Y-925D01*
X-65D01*
X-154Y-825D02*
Y-925D01*
X-212D01*
X-301Y-806D02*
X-311Y-816D01*
X-320Y-830D01*
X-330Y-849D01*
X-334Y-873D01*
Y-892D01*
X-330Y-915D01*
X-320Y-935D01*
X-311Y-949D01*
X-301Y-958D01*
X-311Y-816D02*
X-320Y-835D01*
X-325Y-849D01*
X-330Y-873D01*
Y-892D01*
X-325Y-915D01*
X-320Y-930D01*
X-311Y-949D01*
X-37Y903D02*
G03*
X-67Y873I0J-30D01*
G01*
X1011D02*
G03*
X981Y903I-30J0D01*
G01*
Y-86D02*
G03*
X1011Y-56I0J30D01*
G01*
X-67D02*
G03*
X-37Y-86I30J0D01*
G01*
X-67Y-56D02*
Y873D01*
X-37Y903D02*
X981D01*
X1011Y-56D02*
Y873D01*
X-37Y-86D02*
X981D01*
X3966Y-1802D02*
G03*
X3917Y-1753I-49J0D01*
G01*
X2816D02*
G03*
X2766Y-1803I0J-50D01*
G01*
X3916Y-1703D02*
G03*
X3966Y-1653I0J50D01*
G01*
X2766D02*
G03*
X2816Y-1703I50J0D01*
G01*
X-284Y-978D02*
G03*
X-384Y-1078I0J-100D01*
G01*
Y-2177D02*
G03*
X-285Y-2278I101J0D01*
G01*
X3916Y-2278D02*
G03*
X4016Y-2178I0J100D01*
G01*
Y-1078D02*
G03*
X3916Y-978I-100J0D01*
G01*
X3966Y-1077D02*
G03*
X3915Y-1028I-49J0D01*
G01*
X3916Y-1978D02*
G03*
X3966Y-1928I0J50D01*
G01*
X3966Y-2077D02*
G03*
X3916Y-2028I-50J-1D01*
G01*
Y-2228D02*
G03*
X3966Y-2178I0J50D01*
G01*
X2666Y-1978D02*
G03*
X2716Y-1928I0J50D01*
G01*
X2766Y-1929D02*
G03*
X2816Y-1978I49J0D01*
G01*
X2716Y-1802D02*
G03*
X2667Y-1753I-49J0D01*
G01*
X-334Y-2178D02*
G03*
X-285Y-2228I50J0D01*
G01*
X2667Y-1703D02*
G03*
X2716Y-1653I-1J50D01*
G01*
X-284Y-2028D02*
G03*
X-334Y-2078I0J-50D01*
G01*
X2716Y-1328D02*
G03*
X2666Y-1278I-50J0D01*
G01*
Y-1228D02*
G03*
X2716Y-1178I0J50D01*
G01*
X2816Y-1028D02*
G03*
X2766Y-1078I0J-50D01*
G01*
X2716D02*
G03*
X2666Y-1028I-50J0D01*
G01*
X-284D02*
G03*
X-334Y-1078I0J-50D01*
G01*
Y-1178D02*
G03*
X-284Y-1228I50J0D01*
G01*
Y-1278D02*
G03*
X-334Y-1328I0J-50D01*
G01*
Y-1553D02*
G03*
X-284Y-1603I50J0D01*
G01*
Y-1653D02*
G03*
X-334Y-1703I0J-50D01*
G01*
Y-1928D02*
G03*
X-285Y-1978I50J0D01*
G01*
X616Y-1278D02*
G03*
X566Y-1328I0J-50D01*
G01*
X616Y-1753D02*
G03*
X566Y-1803I0J-50D01*
G01*
X2364Y-1753D02*
G03*
X2316Y-1804I0J-48D01*
G01*
X2316Y-1927D02*
G03*
X2366Y-1978I51J0D01*
G01*
X2217Y-1978D02*
G03*
X2266Y-1928I0J49D01*
G01*
X2266Y-1802D02*
G03*
X2217Y-1753I-49J0D01*
G01*
X467Y-1978D02*
G03*
X516Y-1929I0J49D01*
G01*
X566D02*
G03*
X615Y-1978I49J0D01*
G01*
X566Y-1654D02*
G03*
X615Y-1703I49J0D01*
G01*
X516Y-1702D02*
G03*
X465Y-1653I-49J0D01*
G01*
X468Y-1603D02*
G03*
X516Y-1555I0J48D01*
G01*
Y-1327D02*
G03*
X467Y-1278I-49J0D01*
G01*
X3366Y-2028D02*
G03*
X3316Y-2078I0J-50D01*
G01*
Y-2179D02*
G03*
X3366Y-2228I49J0D01*
G01*
X3217Y-2228D02*
G03*
X3266Y-2179I1J48D01*
G01*
X3266Y-2078D02*
G03*
X3216Y-2028I-50J0D01*
G01*
X1491Y-2178D02*
G03*
X1540Y-2228I50J0D01*
G01*
X1541Y-2028D02*
G03*
X1491Y-2078I0J-50D01*
G01*
X1392Y-2228D02*
G03*
X1441Y-2179I1J48D01*
G01*
X1441Y-2078D02*
G03*
X1391Y-2028I-50J0D01*
G01*
X3966Y-1928D02*
Y-1802D01*
X2766Y-1928D02*
Y-1803D01*
X3966Y-1653D02*
Y-1078D01*
X2766Y-1653D02*
Y-1078D01*
X-384Y-2178D02*
Y-1078D01*
X-334Y-2178D02*
Y-2078D01*
X3966Y-2178D02*
Y-2078D01*
X2716Y-1928D02*
Y-1803D01*
X2316Y-1928D02*
Y-1803D01*
X566Y-1928D02*
Y-1803D01*
X2266Y-1928D02*
Y-1803D01*
X566Y-1653D02*
Y-1328D01*
X2716Y-1653D02*
Y-1328D01*
Y-1178D02*
Y-1078D01*
X-334Y-1178D02*
Y-1078D01*
X516Y-1553D02*
Y-1328D01*
X-334Y-1553D02*
Y-1328D01*
X516Y-1928D02*
Y-1703D01*
X-334Y-1928D02*
Y-1703D01*
X4016Y-2178D02*
Y-1078D01*
X3316Y-2178D02*
Y-2078D01*
X3266Y-2178D02*
Y-2078D01*
X1491Y-2178D02*
Y-2078D01*
X1441Y-2178D02*
Y-2078D01*
X2816Y-1753D02*
X3916D01*
X2816Y-1703D02*
X3916D01*
X616D02*
X2666D01*
X2816Y-1028D02*
X3916D01*
X2816Y-1978D02*
X3916D01*
X2366Y-1753D02*
X2666D01*
X2366Y-1978D02*
X2666D01*
X616D02*
X2216D01*
X616Y-1753D02*
X2216D01*
X616Y-1278D02*
X2666D01*
X-284Y-1228D02*
X2666D01*
X-284Y-1278D02*
X466D01*
X-284Y-1603D02*
X466D01*
X-284Y-1653D02*
X466D01*
X-284Y-1978D02*
X466D01*
X-284Y-978D02*
X3916D01*
X-284Y-2278D02*
X3916D01*
X-284Y-1028D02*
X2666D01*
X3366Y-2028D02*
X3916D01*
X3366Y-2228D02*
X3916D01*
X1541Y-2028D02*
X3216D01*
X-284D02*
X1391D01*
X-284Y-2228D02*
X1391D01*
X1541D02*
X3216D01*
X3145Y-1365D02*
X3135Y-1354D01*
X3113D01*
X3103Y-1365D01*
Y-1375D01*
X3113Y-1386D01*
X3135D01*
X3145Y-1397D01*
Y-1407D01*
X3135Y-1418D01*
X3113D01*
X3103Y-1407D01*
X3167Y-1375D02*
Y-1407D01*
X3177Y-1418D01*
X3209D01*
Y-1375D01*
X3230Y-1418D02*
X3252D01*
X3241D01*
Y-1375D01*
X3230D01*
X3294Y-1365D02*
Y-1375D01*
X3284D01*
X3305D01*
X3294D01*
Y-1407D01*
X3305Y-1418D01*
X3369D02*
X3348D01*
X3337Y-1407D01*
Y-1386D01*
X3348Y-1375D01*
X3369D01*
X3380Y-1386D01*
Y-1397D01*
X3337D01*
X3465Y-1418D02*
X3486D01*
X3476D01*
Y-1354D01*
X3465Y-1365D01*
X3518Y-1418D02*
X3540D01*
X3529D01*
Y-1354D01*
X3518Y-1365D01*
X3572D02*
X3582Y-1354D01*
X3604D01*
X3614Y-1365D01*
Y-1375D01*
X3604Y-1386D01*
X3614Y-1397D01*
Y-1407D01*
X3604Y-1418D01*
X3582D01*
X3572Y-1407D01*
Y-1397D01*
X3582Y-1386D01*
X3572Y-1375D01*
Y-1365D01*
X3582Y-1386D02*
X3604D01*
X3065Y-1569D02*
X3023D01*
Y-1601D01*
X3044Y-1590D01*
X3055D01*
X3065Y-1601D01*
Y-1622D01*
X3055Y-1633D01*
X3033D01*
X3023Y-1622D01*
X3129Y-1569D02*
X3108Y-1580D01*
X3087Y-1601D01*
Y-1622D01*
X3097Y-1633D01*
X3118D01*
X3129Y-1622D01*
Y-1612D01*
X3118Y-1601D01*
X3087D01*
X3150Y-1633D02*
X3172D01*
X3161D01*
Y-1569D01*
X3150Y-1580D01*
X3204Y-1601D02*
X3246D01*
X3268Y-1622D02*
X3278Y-1633D01*
X3300D01*
X3310Y-1622D01*
Y-1580D01*
X3300Y-1569D01*
X3278D01*
X3268Y-1580D01*
Y-1590D01*
X3278Y-1601D01*
X3310D01*
X3332Y-1622D02*
X3342Y-1633D01*
X3364D01*
X3374Y-1622D01*
Y-1580D01*
X3364Y-1569D01*
X3342D01*
X3332Y-1580D01*
Y-1590D01*
X3342Y-1601D01*
X3374D01*
X3396Y-1622D02*
X3406Y-1633D01*
X3428D01*
X3438Y-1622D01*
Y-1580D01*
X3428Y-1569D01*
X3406D01*
X3396Y-1580D01*
Y-1590D01*
X3406Y-1601D01*
X3438D01*
X3460D02*
X3502D01*
X3524Y-1622D02*
X3534Y-1633D01*
X3556D01*
X3566Y-1622D01*
Y-1580D01*
X3556Y-1569D01*
X3534D01*
X3524Y-1580D01*
Y-1590D01*
X3534Y-1601D01*
X3566D01*
X3620Y-1633D02*
Y-1569D01*
X3588Y-1601D01*
X3630D01*
X3694Y-1633D02*
X3652D01*
X3694Y-1590D01*
Y-1580D01*
X3684Y-1569D01*
X3662D01*
X3652Y-1580D01*
X3758Y-1633D02*
X3716D01*
X3758Y-1590D01*
Y-1580D01*
X3748Y-1569D01*
X3726D01*
X3716Y-1580D01*
X2808Y-1302D02*
X2818Y-1313D01*
X2840D01*
X2850Y-1302D01*
Y-1260D01*
X2840Y-1249D01*
X2818D01*
X2808Y-1260D01*
Y-1270D01*
X2818Y-1281D01*
X2850D01*
X2872Y-1260D02*
X2882Y-1249D01*
X2903D01*
X2914Y-1260D01*
Y-1302D01*
X2903Y-1313D01*
X2882D01*
X2872Y-1302D01*
Y-1260D01*
X2978Y-1313D02*
X2935D01*
X2978Y-1270D01*
Y-1260D01*
X2967Y-1249D01*
X2946D01*
X2935Y-1260D01*
X3106D02*
X3095Y-1249D01*
X3074D01*
X3063Y-1260D01*
Y-1302D01*
X3074Y-1313D01*
X3095D01*
X3106Y-1302D01*
X3127Y-1313D02*
X3149D01*
X3138D01*
Y-1249D01*
X3127D01*
X3181Y-1313D02*
X3202D01*
X3191D01*
Y-1270D01*
X3181D01*
X3234Y-1313D02*
Y-1270D01*
X3266D01*
X3277Y-1281D01*
Y-1313D01*
X3309Y-1260D02*
Y-1270D01*
X3298D01*
X3319D01*
X3309D01*
Y-1302D01*
X3319Y-1313D01*
X3415D02*
Y-1249D01*
X3437Y-1270D01*
X3458Y-1249D01*
Y-1313D01*
X3490D02*
X3511D01*
X3522Y-1302D01*
Y-1281D01*
X3511Y-1270D01*
X3490D01*
X3479Y-1281D01*
Y-1302D01*
X3490Y-1313D01*
X3554D02*
X3575D01*
X3586Y-1302D01*
Y-1281D01*
X3575Y-1270D01*
X3554D01*
X3543Y-1281D01*
Y-1302D01*
X3554Y-1313D01*
X3607Y-1270D02*
Y-1313D01*
Y-1292D01*
X3618Y-1281D01*
X3629Y-1270D01*
X3639D01*
X3703Y-1313D02*
X3682D01*
X3671Y-1302D01*
Y-1281D01*
X3682Y-1270D01*
X3703D01*
X3714Y-1281D01*
Y-1292D01*
X3671D01*
X3799Y-1313D02*
Y-1249D01*
X3831D01*
X3842Y-1260D01*
Y-1281D01*
X3831Y-1292D01*
X3799D01*
X3821D02*
X3842Y-1313D01*
X3906Y-1249D02*
Y-1313D01*
X3874D01*
X3863Y-1302D01*
Y-1281D01*
X3874Y-1270D01*
X3906D01*
X3927Y-1313D02*
Y-1302D01*
X3938D01*
Y-1313D01*
X3927D01*
X2968Y-1449D02*
Y-1513D01*
X3000D01*
X3010Y-1502D01*
Y-1492D01*
X3000Y-1481D01*
X2968D01*
X3000D01*
X3010Y-1470D01*
Y-1460D01*
X3000Y-1449D01*
X2968D01*
X3042Y-1513D02*
X3063D01*
X3074Y-1502D01*
Y-1481D01*
X3063Y-1470D01*
X3042D01*
X3032Y-1481D01*
Y-1502D01*
X3042Y-1513D01*
X3138Y-1470D02*
X3106D01*
X3095Y-1481D01*
Y-1502D01*
X3106Y-1513D01*
X3138D01*
X3170Y-1470D02*
X3191D01*
X3202Y-1481D01*
Y-1513D01*
X3170D01*
X3159Y-1502D01*
X3170Y-1492D01*
X3202D01*
X3287Y-1513D02*
Y-1449D01*
X3319D01*
X3330Y-1460D01*
Y-1481D01*
X3319Y-1492D01*
X3287D01*
X3309D02*
X3330Y-1513D01*
X3362Y-1470D02*
X3383D01*
X3394Y-1481D01*
Y-1513D01*
X3362D01*
X3351Y-1502D01*
X3362Y-1492D01*
X3394D01*
X3426Y-1460D02*
Y-1470D01*
X3415D01*
X3437D01*
X3426D01*
Y-1502D01*
X3437Y-1513D01*
X3479D02*
X3501D01*
X3511Y-1502D01*
Y-1481D01*
X3501Y-1470D01*
X3479D01*
X3469Y-1481D01*
Y-1502D01*
X3479Y-1513D01*
X3533D02*
Y-1470D01*
X3565D01*
X3575Y-1481D01*
Y-1513D01*
X3703Y-1449D02*
X3661D01*
Y-1481D01*
X3682D01*
X3661D01*
Y-1513D01*
X3725Y-1449D02*
Y-1513D01*
X3767D01*
X3789D02*
Y-1502D01*
X3799D01*
Y-1513D01*
X3789D01*
D29*
X824Y269D02*
Y474D01*
X799Y499D02*
X824Y474D01*
X609Y499D02*
X799D01*
X809Y346D02*
Y465D01*
X790Y484D02*
X809Y465D01*
X599Y484D02*
X790D01*
X879Y96D02*
X904Y121D01*
Y189D01*
X824Y269D02*
X904Y189D01*
X739Y276D02*
X809Y346D01*
X614Y583D02*
Y824D01*
X610Y579D02*
X614Y583D01*
X669Y879D02*
X679D01*
X614Y824D02*
X669Y879D01*
X674Y829D02*
X749D01*
X779Y859D01*
Y869D01*
X694Y659D02*
X839D01*
X899Y599D01*
X534Y574D02*
Y644D01*
X509Y574D02*
Y674D01*
X634Y604D02*
Y814D01*
X669Y849D01*
X709D02*
X729Y869D01*
X669Y849D02*
X709D01*
X649Y644D02*
Y804D01*
X674Y829D01*
X634Y604D02*
X684Y554D01*
X649Y644D02*
X694Y599D01*
X509Y574D02*
X599Y484D01*
X594Y454D02*
X749D01*
X507Y541D02*
X594Y454D01*
X534Y574D02*
X609Y499D01*
X652Y123D02*
X679Y96D01*
X589Y659D02*
X599Y670D01*
X569Y864D02*
X599Y834D01*
X509Y864D02*
X569D01*
X599Y670D02*
Y834D01*
X449Y779D02*
X519D01*
X574Y724D01*
X679Y96D02*
X809D01*
X879D01*
X124Y-1706D02*
Y-1747D01*
X122Y-1754D01*
X119Y-1757D01*
X114Y-1759D01*
X109D01*
X104Y-1757D01*
X101Y-1754D01*
X99Y-1747D01*
Y-1741D01*
X141Y-1754D02*
X138Y-1757D01*
X141Y-1759D01*
X143Y-1757D01*
X141Y-1754D01*
X155Y-1706D02*
Y-1759D01*
Y-1706D02*
X190Y-1759D01*
Y-1706D02*
Y-1759D01*
D30*
X335Y733D02*
Y741D01*
Y733D02*
X434Y634D01*
X894Y819D02*
X929Y854D01*
X894Y727D02*
Y819D01*
X929Y854D02*
Y869D01*
X434Y434D02*
Y634D01*
X894Y727D02*
X969Y652D01*
X743Y785D02*
X801Y727D01*
X894D01*
X969Y564D02*
Y652D01*
X220Y6D02*
Y236D01*
Y6D02*
X255Y-29D01*
X470D02*
X500Y1D01*
X255Y-29D02*
X470D01*
X434Y434D02*
X552Y316D01*
Y139D02*
Y316D01*
D31*
X907Y306D02*
X984Y229D01*
X907Y502D02*
X969Y564D01*
X724Y152D02*
X872D01*
X907Y306D02*
Y369D01*
Y502D01*
D33*
X2858Y-1208D02*
Y-1141D01*
X2891Y-1108D01*
X2924Y-1141D01*
Y-1208D01*
Y-1158D01*
X2858D01*
X3024Y-1141D02*
X2974D01*
X2957Y-1158D01*
Y-1191D01*
X2974Y-1208D01*
X3024D01*
X3074Y-1125D02*
Y-1141D01*
X3057D01*
X3091D01*
X3074D01*
Y-1191D01*
X3091Y-1208D01*
X3141D02*
X3174D01*
X3157D01*
Y-1141D01*
X3141D01*
X3224D02*
X3257Y-1208D01*
X3291Y-1141D01*
X3374Y-1208D02*
X3341D01*
X3324Y-1191D01*
Y-1158D01*
X3341Y-1141D01*
X3374D01*
X3391Y-1158D01*
Y-1175D01*
X3324D01*
X3524Y-1108D02*
Y-1208D01*
X3557Y-1175D01*
X3591Y-1208D01*
Y-1108D01*
X3641Y-1141D02*
X3674D01*
X3691Y-1158D01*
Y-1208D01*
X3641D01*
X3624Y-1191D01*
X3641Y-1175D01*
X3691D01*
X3724Y-1141D02*
X3757Y-1208D01*
X3791Y-1141D01*
X3874Y-1208D02*
X3841D01*
X3824Y-1191D01*
Y-1158D01*
X3841Y-1141D01*
X3874D01*
X3891Y-1158D01*
Y-1175D01*
X3824D01*
D35*
X7Y774D02*
X22D01*
X-15Y752D02*
X7Y774D01*
X-15Y466D02*
Y752D01*
X8Y676D02*
X33Y701D01*
X8Y466D02*
Y676D01*
X33Y701D02*
X74D01*
X98Y677D01*
Y646D02*
Y677D01*
D38*
X899Y-28D02*
X879D01*
X889D01*
Y-58D01*
X869D02*
Y-38D01*
X859Y-28D01*
X849Y-38D01*
Y-58D01*
Y-43D01*
X869D01*
X819Y-33D02*
X824Y-28D01*
X834D01*
X839Y-33D01*
Y-53D01*
X834Y-58D01*
X824D01*
X819Y-53D01*
Y-43D01*
X829D01*
X809Y-58D02*
X799D01*
X804D01*
Y-28D01*
X809Y-33D01*
X784D02*
X779Y-28D01*
X769D01*
X764Y-33D01*
Y-53D01*
X769Y-58D01*
X779D01*
X784Y-53D01*
Y-33D01*
X754D02*
X749Y-28D01*
X739D01*
X734Y-33D01*
Y-38D01*
X739Y-43D01*
X744D01*
X739D01*
X734Y-48D01*
Y-53D01*
X739Y-58D01*
X749D01*
X754Y-53D01*
X694Y-58D02*
Y-28D01*
X679D01*
X674Y-33D01*
Y-43D01*
X679Y-48D01*
X694D01*
X684D02*
X674Y-58D01*
X644Y-28D02*
X664D01*
Y-58D01*
X644D01*
X664Y-43D02*
X654D01*
X634Y-28D02*
Y-48D01*
X624Y-58D01*
X614Y-48D01*
Y-28D01*
X574Y-58D02*
X564D01*
X569D01*
Y-28D01*
X574Y-33D01*
X529Y-28D02*
X549D01*
Y-43D01*
X539Y-38D01*
X534D01*
X529Y-43D01*
Y-53D01*
X534Y-58D01*
X544D01*
X549Y-53D01*
X193Y-2122D02*
Y-2175D01*
X175Y-2122D02*
X211D01*
X247Y-2139D02*
Y-2175D01*
Y-2147D02*
X242Y-2142D01*
X237Y-2139D01*
X230D01*
X225Y-2142D01*
X219Y-2147D01*
X217Y-2155D01*
Y-2160D01*
X219Y-2167D01*
X225Y-2172D01*
X230Y-2175D01*
X237D01*
X242Y-2172D01*
X247Y-2167D01*
X292Y-2139D02*
Y-2180D01*
X290Y-2188D01*
X287Y-2190D01*
X282Y-2193D01*
X274D01*
X269Y-2190D01*
X292Y-2147D02*
X287Y-2142D01*
X282Y-2139D01*
X274D01*
X269Y-2142D01*
X264Y-2147D01*
X262Y-2155D01*
Y-2160D01*
X264Y-2167D01*
X269Y-2172D01*
X274Y-2175D01*
X282D01*
X287Y-2172D01*
X292Y-2167D01*
X306Y-2132D02*
X311Y-2129D01*
X319Y-2122D01*
Y-2175D01*
X361Y-2122D02*
X353Y-2124D01*
X348Y-2132D01*
X345Y-2145D01*
Y-2152D01*
X348Y-2165D01*
X353Y-2172D01*
X361Y-2175D01*
X366D01*
X373Y-2172D01*
X378Y-2165D01*
X381Y-2152D01*
Y-2145D01*
X378Y-2132D01*
X373Y-2124D01*
X366Y-2122D01*
X361D01*
X398D02*
X426D01*
X411Y-2142D01*
X418D01*
X423Y-2145D01*
X426Y-2147D01*
X428Y-2155D01*
Y-2160D01*
X426Y-2167D01*
X421Y-2172D01*
X413Y-2175D01*
X406D01*
X398Y-2172D01*
X395Y-2170D01*
X393Y-2165D01*
X482Y-2122D02*
Y-2175D01*
Y-2122D02*
X505D01*
X513Y-2124D01*
X515Y-2127D01*
X518Y-2132D01*
Y-2137D01*
X515Y-2142D01*
X513Y-2145D01*
X505Y-2147D01*
X482D01*
X500D02*
X518Y-2175D01*
X530Y-2155D02*
X560D01*
Y-2150D01*
X558Y-2145D01*
X555Y-2142D01*
X550Y-2139D01*
X542D01*
X537Y-2142D01*
X532Y-2147D01*
X530Y-2155D01*
Y-2160D01*
X532Y-2167D01*
X537Y-2172D01*
X542Y-2175D01*
X550D01*
X555Y-2172D01*
X560Y-2167D01*
X572Y-2139D02*
X587Y-2175D01*
X602Y-2139D02*
X587Y-2175D01*
X611Y-2132D02*
X616Y-2129D01*
X623Y-2122D01*
Y-2175D01*
X680Y-2122D02*
X655D01*
X652Y-2145D01*
X655Y-2142D01*
X663Y-2139D01*
X670D01*
X678Y-2142D01*
X683Y-2147D01*
X685Y-2155D01*
Y-2160D01*
X683Y-2167D01*
X678Y-2172D01*
X670Y-2175D01*
X663D01*
X655Y-2172D01*
X652Y-2170D01*
X650Y-2165D01*
X700Y-2170D02*
X697Y-2172D01*
X700Y-2175D01*
X702Y-2172D01*
X700Y-2170D01*
X714Y-2150D02*
X737D01*
X745Y-2147D01*
X747Y-2145D01*
X750Y-2139D01*
Y-2132D01*
X747Y-2127D01*
X745Y-2124D01*
X737Y-2122D01*
X714D01*
Y-2175D01*
X800Y-2134D02*
X797Y-2129D01*
X792Y-2124D01*
X787Y-2122D01*
X777D01*
X772Y-2124D01*
X767Y-2129D01*
X764Y-2134D01*
X762Y-2142D01*
Y-2155D01*
X764Y-2162D01*
X767Y-2167D01*
X772Y-2172D01*
X777Y-2175D01*
X787D01*
X792Y-2172D01*
X797Y-2167D01*
X800Y-2162D01*
X815Y-2122D02*
Y-2175D01*
Y-2122D02*
X837D01*
X845Y-2124D01*
X848Y-2127D01*
X850Y-2132D01*
Y-2137D01*
X848Y-2142D01*
X845Y-2145D01*
X837Y-2147D01*
X815D02*
X837D01*
X845Y-2150D01*
X848Y-2152D01*
X850Y-2157D01*
Y-2165D01*
X848Y-2170D01*
X845Y-2172D01*
X837Y-2175D01*
X815D01*
X2816Y-1787D02*
Y-1841D01*
Y-1787D02*
X2834D01*
X2841Y-1790D01*
X2846Y-1795D01*
X2849Y-1800D01*
X2851Y-1808D01*
Y-1820D01*
X2849Y-1828D01*
X2846Y-1833D01*
X2841Y-1838D01*
X2834Y-1841D01*
X2816D01*
X2904D02*
X2884Y-1787D01*
X2863Y-1841D01*
X2871Y-1823D02*
X2896D01*
X2934Y-1787D02*
Y-1841D01*
X2916Y-1787D02*
X2952D01*
X2991D02*
X2958D01*
Y-1841D01*
X2991D01*
X2958Y-1813D02*
X2979D01*
X3003Y-1805D02*
X3000Y-1808D01*
X3003Y-1810D01*
X3005Y-1808D01*
X3003Y-1805D01*
Y-1836D02*
X3000Y-1838D01*
X3003Y-1841D01*
X3005Y-1838D01*
X3003Y-1836D01*
X2353Y-1787D02*
Y-1841D01*
Y-1787D02*
X2376D01*
X2384Y-1790D01*
X2386Y-1792D01*
X2389Y-1798D01*
Y-1803D01*
X2386Y-1808D01*
X2384Y-1810D01*
X2376Y-1813D01*
X2353D01*
X2371D02*
X2389Y-1841D01*
X2434Y-1787D02*
X2401D01*
Y-1841D01*
X2434D01*
X2401Y-1813D02*
X2421D01*
X2443Y-1787D02*
X2463Y-1841D01*
X2483Y-1787D02*
X2463Y-1841D01*
X2493Y-1805D02*
X2490Y-1808D01*
X2493Y-1810D01*
X2495Y-1808D01*
X2493Y-1805D01*
Y-1836D02*
X2490Y-1838D01*
X2493Y-1841D01*
X2495Y-1838D01*
X2493Y-1836D01*
X-284Y-1540D02*
X-261D01*
X-254Y-1538D01*
X-251Y-1535D01*
X-249Y-1530D01*
Y-1523D01*
X-251Y-1517D01*
X-254Y-1515D01*
X-261Y-1512D01*
X-284D01*
Y-1566D01*
X-237Y-1512D02*
Y-1566D01*
X-201Y-1512D02*
Y-1566D01*
X-237Y-1538D02*
X-201D01*
X-171Y-1512D02*
X-176Y-1515D01*
X-181Y-1520D01*
X-184Y-1525D01*
X-186Y-1533D01*
Y-1545D01*
X-184Y-1553D01*
X-181Y-1558D01*
X-176Y-1563D01*
X-171Y-1566D01*
X-161D01*
X-156Y-1563D01*
X-151Y-1558D01*
X-148Y-1553D01*
X-146Y-1545D01*
Y-1533D01*
X-148Y-1525D01*
X-151Y-1520D01*
X-156Y-1515D01*
X-161Y-1512D01*
X-171D01*
X-133D02*
Y-1566D01*
Y-1512D02*
X-98Y-1566D01*
Y-1512D02*
Y-1566D01*
X-50Y-1512D02*
X-83D01*
Y-1566D01*
X-50D01*
X-83Y-1538D02*
X-63D01*
X-39Y-1530D02*
X-41Y-1533D01*
X-39Y-1535D01*
X-36Y-1533D01*
X-39Y-1530D01*
Y-1561D02*
X-41Y-1563D01*
X-39Y-1566D01*
X-36Y-1563D01*
X-39Y-1561D01*
X-284Y-1915D02*
X-261D01*
X-254Y-1913D01*
X-251Y-1910D01*
X-249Y-1905D01*
Y-1898D01*
X-251Y-1892D01*
X-254Y-1890D01*
X-261Y-1887D01*
X-284D01*
Y-1941D01*
X-237Y-1887D02*
Y-1941D01*
X-201Y-1887D02*
Y-1941D01*
X-237Y-1913D02*
X-201D01*
X-171Y-1887D02*
X-176Y-1890D01*
X-181Y-1895D01*
X-184Y-1900D01*
X-186Y-1908D01*
Y-1920D01*
X-184Y-1928D01*
X-181Y-1933D01*
X-176Y-1938D01*
X-171Y-1941D01*
X-161D01*
X-156Y-1938D01*
X-151Y-1933D01*
X-148Y-1928D01*
X-146Y-1920D01*
Y-1908D01*
X-148Y-1900D01*
X-151Y-1895D01*
X-156Y-1890D01*
X-161Y-1887D01*
X-171D01*
X-133D02*
Y-1941D01*
Y-1887D02*
X-98Y-1941D01*
Y-1887D02*
Y-1941D01*
X-50Y-1887D02*
X-83D01*
Y-1941D01*
X-50D01*
X-83Y-1913D02*
X-63D01*
X-39Y-1905D02*
X-41Y-1908D01*
X-39Y-1910D01*
X-36Y-1908D01*
X-39Y-1905D01*
Y-1936D02*
X-41Y-1938D01*
X-39Y-1941D01*
X-36Y-1938D01*
X-39Y-1936D01*
X1556Y-2065D02*
Y-2118D01*
X1586D01*
X1633D02*
X1613Y-2065D01*
X1592Y-2118D01*
X1600Y-2100D02*
X1625D01*
X1645Y-2065D02*
X1666Y-2090D01*
Y-2118D01*
X1686Y-2065D02*
X1666Y-2090D01*
X1726Y-2065D02*
X1693D01*
Y-2118D01*
X1726D01*
X1693Y-2090D02*
X1713D01*
X1735Y-2065D02*
Y-2118D01*
Y-2065D02*
X1758D01*
X1765Y-2067D01*
X1768Y-2070D01*
X1770Y-2075D01*
Y-2080D01*
X1768Y-2085D01*
X1765Y-2088D01*
X1758Y-2090D01*
X1735D01*
X1752D02*
X1770Y-2118D01*
X1785Y-2083D02*
X1782Y-2085D01*
X1785Y-2088D01*
X1787Y-2085D01*
X1785Y-2083D01*
Y-2113D02*
X1782Y-2116D01*
X1785Y-2118D01*
X1787Y-2116D01*
X1785Y-2113D01*
X-251Y-1325D02*
X-284D01*
Y-1378D01*
X-251D01*
X-284Y-1350D02*
X-264D01*
X-242Y-1325D02*
Y-1378D01*
Y-1325D02*
X-207Y-1378D01*
Y-1325D02*
Y-1378D01*
X-154Y-1338D02*
X-156Y-1332D01*
X-161Y-1327D01*
X-167Y-1325D01*
X-177D01*
X-182Y-1327D01*
X-187Y-1332D01*
X-189Y-1338D01*
X-192Y-1345D01*
Y-1358D01*
X-189Y-1365D01*
X-187Y-1371D01*
X-182Y-1376D01*
X-177Y-1378D01*
X-167D01*
X-161Y-1376D01*
X-156Y-1371D01*
X-154Y-1365D01*
Y-1358D01*
X-167D02*
X-154D01*
X-142Y-1325D02*
Y-1378D01*
X-130Y-1325D02*
Y-1378D01*
Y-1325D02*
X-95Y-1378D01*
Y-1325D02*
Y-1378D01*
X-47Y-1325D02*
X-80D01*
Y-1378D01*
X-47D01*
X-80Y-1350D02*
X-60D01*
X-5Y-1325D02*
X-38D01*
Y-1378D01*
X-5D01*
X-38Y-1350D02*
X-18D01*
X4Y-1325D02*
Y-1378D01*
Y-1325D02*
X26D01*
X34Y-1327D01*
X37Y-1330D01*
X39Y-1335D01*
Y-1340D01*
X37Y-1345D01*
X34Y-1348D01*
X26Y-1350D01*
X4D01*
X21D02*
X39Y-1378D01*
X54Y-1343D02*
X51Y-1345D01*
X54Y-1348D01*
X56Y-1345D01*
X54Y-1343D01*
Y-1373D02*
X51Y-1376D01*
X54Y-1378D01*
X56Y-1376D01*
X54Y-1373D01*
X616Y-1815D02*
X639D01*
X646Y-1813D01*
X649Y-1810D01*
X651Y-1805D01*
Y-1798D01*
X649Y-1792D01*
X646Y-1790D01*
X639Y-1787D01*
X616D01*
Y-1841D01*
X704D02*
X684Y-1787D01*
X663Y-1841D01*
X671Y-1823D02*
X696D01*
X716Y-1787D02*
Y-1841D01*
Y-1787D02*
X739D01*
X747Y-1790D01*
X749Y-1792D01*
X752Y-1798D01*
Y-1803D01*
X749Y-1808D01*
X747Y-1810D01*
X739Y-1813D01*
X716D01*
X734D02*
X752Y-1841D01*
X782Y-1787D02*
Y-1841D01*
X764Y-1787D02*
X800D01*
X848D02*
Y-1841D01*
Y-1787D02*
X883Y-1841D01*
Y-1787D02*
Y-1841D01*
X913Y-1787D02*
X908Y-1790D01*
X903Y-1795D01*
X901Y-1800D01*
X898Y-1808D01*
Y-1820D01*
X901Y-1828D01*
X903Y-1833D01*
X908Y-1838D01*
X913Y-1841D01*
X923D01*
X928Y-1838D01*
X934Y-1833D01*
X936Y-1828D01*
X939Y-1820D01*
Y-1808D01*
X936Y-1800D01*
X934Y-1795D01*
X928Y-1790D01*
X923Y-1787D01*
X913D01*
X954Y-1836D02*
X951Y-1838D01*
X954Y-1841D01*
X956Y-1838D01*
X954Y-1836D01*
X970Y-1805D02*
X968Y-1808D01*
X970Y-1810D01*
X973Y-1808D01*
X970Y-1805D01*
Y-1836D02*
X968Y-1838D01*
X970Y-1841D01*
X973Y-1838D01*
X970Y-1836D01*
X621Y-1312D02*
Y-1366D01*
X603Y-1312D02*
X639D01*
X645D02*
Y-1366D01*
X674Y-1312D02*
Y-1366D01*
X656Y-1312D02*
X692D01*
X698D02*
Y-1366D01*
X729D01*
X768Y-1312D02*
X735D01*
Y-1366D01*
X768D01*
X735Y-1338D02*
X755D01*
X779Y-1330D02*
X777Y-1333D01*
X779Y-1335D01*
X782Y-1333D01*
X779Y-1330D01*
Y-1361D02*
X777Y-1363D01*
X779Y-1366D01*
X782Y-1363D01*
X779Y-1361D01*
X-284Y-1705D02*
Y-1758D01*
Y-1705D02*
X-266D01*
X-259Y-1707D01*
X-254Y-1712D01*
X-251Y-1718D01*
X-249Y-1725D01*
Y-1738D01*
X-251Y-1745D01*
X-254Y-1751D01*
X-259Y-1756D01*
X-266Y-1758D01*
X-284D01*
X-237Y-1723D02*
Y-1758D01*
Y-1738D02*
X-234Y-1730D01*
X-229Y-1725D01*
X-224Y-1723D01*
X-216D01*
X-181D02*
Y-1758D01*
Y-1730D02*
X-186Y-1725D01*
X-191Y-1723D01*
X-199D01*
X-204Y-1725D01*
X-209Y-1730D01*
X-211Y-1738D01*
Y-1743D01*
X-209Y-1751D01*
X-204Y-1756D01*
X-199Y-1758D01*
X-191D01*
X-186Y-1756D01*
X-181Y-1751D01*
X-167Y-1723D02*
X-157Y-1758D01*
X-146Y-1723D02*
X-157Y-1758D01*
X-146Y-1723D02*
X-136Y-1758D01*
X-126Y-1723D02*
X-136Y-1758D01*
X-114Y-1723D02*
Y-1758D01*
Y-1733D02*
X-106Y-1725D01*
X-101Y-1723D01*
X-93D01*
X-88Y-1725D01*
X-86Y-1733D01*
Y-1758D01*
X-30Y-1705D02*
Y-1758D01*
Y-1730D02*
X-25Y-1725D01*
X-20Y-1723D01*
X-12D01*
X-7Y-1725D01*
X-2Y-1730D01*
X1Y-1738D01*
Y-1743D01*
X-2Y-1751D01*
X-7Y-1756D01*
X-12Y-1758D01*
X-20D01*
X-25Y-1756D01*
X-30Y-1751D01*
X15Y-1723D02*
X30Y-1758D01*
X45Y-1723D02*
X30Y-1758D01*
X25Y-1768D01*
X20Y-1773D01*
X15Y-1776D01*
X12D01*
X56Y-1723D02*
X54Y-1725D01*
X56Y-1728D01*
X59Y-1725D01*
X56Y-1723D01*
Y-1753D02*
X54Y-1756D01*
X56Y-1758D01*
X59Y-1756D01*
X56Y-1753D01*
X-284Y-2065D02*
Y-2118D01*
Y-2065D02*
X-251D01*
X-284Y-2090D02*
X-264D01*
X-245Y-2065D02*
Y-2118D01*
X-234Y-2065D02*
Y-2118D01*
X-203D01*
X-164Y-2065D02*
X-197D01*
Y-2118D01*
X-164D01*
X-197Y-2090D02*
X-177D01*
X-114Y-2065D02*
Y-2118D01*
Y-2065D02*
X-78Y-2118D01*
Y-2065D02*
Y-2118D01*
X-23D02*
X-43Y-2065D01*
X-63Y-2118D01*
X-56Y-2100D02*
X-30D01*
X-10Y-2065D02*
Y-2118D01*
Y-2065D02*
X10Y-2118D01*
X30Y-2065D02*
X10Y-2118D01*
X30Y-2065D02*
Y-2118D01*
X79Y-2065D02*
X46D01*
Y-2118D01*
X79D01*
X46Y-2090D02*
X66D01*
X90Y-2083D02*
X87Y-2085D01*
X90Y-2088D01*
X92Y-2085D01*
X90Y-2083D01*
Y-2113D02*
X87Y-2116D01*
X90Y-2118D01*
X92Y-2116D01*
X90Y-2113D01*
X3414Y-2078D02*
X3411Y-2072D01*
X3406Y-2067D01*
X3401Y-2065D01*
X3391D01*
X3386Y-2067D01*
X3381Y-2072D01*
X3378Y-2078D01*
X3376Y-2085D01*
Y-2098D01*
X3378Y-2105D01*
X3381Y-2111D01*
X3386Y-2116D01*
X3391Y-2118D01*
X3401D01*
X3406Y-2116D01*
X3411Y-2111D01*
X3414Y-2105D01*
Y-2098D01*
X3401D02*
X3414D01*
X3459Y-2065D02*
X3426D01*
Y-2118D01*
X3459D01*
X3426Y-2090D02*
X3447D01*
X3468Y-2065D02*
Y-2118D01*
Y-2065D02*
X3491D01*
X3499Y-2067D01*
X3501Y-2070D01*
X3504Y-2075D01*
Y-2080D01*
X3501Y-2085D01*
X3499Y-2088D01*
X3491Y-2090D01*
X3468D01*
X3486D02*
X3504Y-2118D01*
X3516Y-2065D02*
Y-2118D01*
Y-2065D02*
X3538D01*
X3546Y-2067D01*
X3549Y-2070D01*
X3551Y-2075D01*
Y-2080D01*
X3549Y-2085D01*
X3546Y-2088D01*
X3538Y-2090D01*
X3516D02*
X3538D01*
X3546Y-2093D01*
X3549Y-2095D01*
X3551Y-2100D01*
Y-2108D01*
X3549Y-2113D01*
X3546Y-2116D01*
X3538Y-2118D01*
X3516D01*
X3596Y-2065D02*
X3563D01*
Y-2118D01*
X3596D01*
X3563Y-2090D02*
X3583D01*
X3605Y-2065D02*
Y-2118D01*
Y-2065D02*
X3628D01*
X3635Y-2067D01*
X3638Y-2070D01*
X3640Y-2075D01*
Y-2080D01*
X3638Y-2085D01*
X3635Y-2088D01*
X3628Y-2090D01*
X3605D01*
X3623D02*
X3640Y-2118D01*
X3655Y-2083D02*
X3652Y-2085D01*
X3655Y-2088D01*
X3658Y-2085D01*
X3655Y-2083D01*
Y-2113D02*
X3652Y-2116D01*
X3655Y-2118D01*
X3658Y-2116D01*
X3655Y-2113D01*
D39*
X3256Y-1840D02*
X3231Y-1876D01*
X3269D01*
X3256Y-1840D02*
Y-1894D01*
X3278Y-1901D02*
X3314Y-1840D01*
X3317Y-1850D02*
X3322Y-1848D01*
X3330Y-1840D01*
Y-1894D01*
X3392Y-1840D02*
X3367Y-1894D01*
X3356Y-1840D02*
X3392D01*
X3404Y-1901D02*
X3439Y-1840D01*
X3446Y-1853D02*
Y-1850D01*
X3448Y-1845D01*
X3451Y-1843D01*
X3456Y-1840D01*
X3466D01*
X3471Y-1843D01*
X3473Y-1845D01*
X3476Y-1850D01*
Y-1856D01*
X3473Y-1861D01*
X3468Y-1868D01*
X3443Y-1894D01*
X3479D01*
X3506Y-1840D02*
X3498Y-1843D01*
X3493Y-1850D01*
X3490Y-1863D01*
Y-1871D01*
X3493Y-1883D01*
X3498Y-1891D01*
X3506Y-1894D01*
X3511D01*
X3518Y-1891D01*
X3523Y-1883D01*
X3526Y-1871D01*
Y-1863D01*
X3523Y-1850D01*
X3518Y-1843D01*
X3511Y-1840D01*
X3506D01*
X3553D02*
X3546Y-1843D01*
X3540Y-1850D01*
X3538Y-1863D01*
Y-1871D01*
X3540Y-1883D01*
X3546Y-1891D01*
X3553Y-1894D01*
X3558D01*
X3566Y-1891D01*
X3571Y-1883D01*
X3573Y-1871D01*
Y-1863D01*
X3571Y-1850D01*
X3566Y-1843D01*
X3558Y-1840D01*
X3553D01*
X3598D02*
X3590Y-1843D01*
X3588Y-1848D01*
Y-1853D01*
X3590Y-1858D01*
X3596Y-1861D01*
X3606Y-1863D01*
X3613Y-1866D01*
X3618Y-1871D01*
X3621Y-1876D01*
Y-1883D01*
X3618Y-1889D01*
X3616Y-1891D01*
X3608Y-1894D01*
X3598D01*
X3590Y-1891D01*
X3588Y-1889D01*
X3585Y-1883D01*
Y-1876D01*
X3588Y-1871D01*
X3593Y-1866D01*
X3601Y-1863D01*
X3611Y-1861D01*
X3616Y-1858D01*
X3618Y-1853D01*
Y-1848D01*
X3616Y-1843D01*
X3608Y-1840D01*
X3598D01*
X2528Y-1873D02*
X2533Y-1870D01*
X2541Y-1862D01*
Y-1916D01*
X2598Y-1862D02*
X2573D01*
X2570Y-1885D01*
X2573Y-1883D01*
X2580Y-1880D01*
X2588D01*
X2595Y-1883D01*
X2601Y-1888D01*
X2603Y-1895D01*
Y-1900D01*
X2601Y-1908D01*
X2595Y-1913D01*
X2588Y-1916D01*
X2580D01*
X2573Y-1913D01*
X2570Y-1911D01*
X2568Y-1906D01*
X819Y-1173D02*
X782Y-1077D01*
X746Y-1173D01*
X760Y-1141D02*
X805D01*
X896Y-1123D02*
X887Y-1114D01*
X878Y-1109D01*
X864D01*
X855Y-1114D01*
X846Y-1123D01*
X841Y-1137D01*
Y-1146D01*
X846Y-1159D01*
X855Y-1169D01*
X864Y-1173D01*
X878D01*
X887Y-1169D01*
X896Y-1159D01*
X931Y-1077D02*
Y-1155D01*
X935Y-1169D01*
X944Y-1173D01*
X953D01*
X917Y-1109D02*
X949D01*
X976Y-1077D02*
X981Y-1082D01*
X985Y-1077D01*
X981Y-1073D01*
X976Y-1077D01*
X981Y-1109D02*
Y-1173D01*
X1002Y-1109D02*
X1030Y-1173D01*
X1057Y-1109D02*
X1030Y-1173D01*
X1073Y-1137D02*
X1128D01*
Y-1127D01*
X1123Y-1118D01*
X1118Y-1114D01*
X1109Y-1109D01*
X1096D01*
X1086Y-1114D01*
X1077Y-1123D01*
X1073Y-1137D01*
Y-1146D01*
X1077Y-1159D01*
X1086Y-1169D01*
X1096Y-1173D01*
X1109D01*
X1118Y-1169D01*
X1128Y-1159D01*
X1224Y-1077D02*
X1246Y-1173D01*
X1269Y-1077D02*
X1246Y-1173D01*
X1269Y-1077D02*
X1292Y-1173D01*
X1315Y-1077D02*
X1292Y-1173D01*
X1389Y-1109D02*
Y-1173D01*
Y-1123D02*
X1380Y-1114D01*
X1371Y-1109D01*
X1357D01*
X1348Y-1114D01*
X1339Y-1123D01*
X1334Y-1137D01*
Y-1146D01*
X1339Y-1159D01*
X1348Y-1169D01*
X1357Y-1173D01*
X1371D01*
X1380Y-1169D01*
X1389Y-1159D01*
X1415Y-1109D02*
X1442Y-1173D01*
X1469Y-1109D02*
X1442Y-1173D01*
X1485Y-1137D02*
X1540D01*
Y-1127D01*
X1535Y-1118D01*
X1531Y-1114D01*
X1522Y-1109D01*
X1508D01*
X1499Y-1114D01*
X1490Y-1123D01*
X1485Y-1137D01*
Y-1146D01*
X1490Y-1159D01*
X1499Y-1169D01*
X1508Y-1173D01*
X1522D01*
X1531Y-1169D01*
X1540Y-1159D01*
X1416Y-1440D02*
Y-1536D01*
X1384Y-1440D02*
X1448D01*
X1514Y-1472D02*
Y-1536D01*
Y-1486D02*
X1505Y-1477D01*
X1496Y-1472D01*
X1482D01*
X1473Y-1477D01*
X1464Y-1486D01*
X1459Y-1499D01*
Y-1509D01*
X1464Y-1522D01*
X1473Y-1531D01*
X1482Y-1536D01*
X1496D01*
X1505Y-1531D01*
X1514Y-1522D01*
X1595Y-1472D02*
Y-1545D01*
X1590Y-1559D01*
X1586Y-1563D01*
X1576Y-1568D01*
X1563D01*
X1554Y-1563D01*
X1595Y-1486D02*
X1586Y-1477D01*
X1576Y-1472D01*
X1563D01*
X1554Y-1477D01*
X1544Y-1486D01*
X1540Y-1499D01*
Y-1509D01*
X1544Y-1522D01*
X1554Y-1531D01*
X1563Y-1536D01*
X1576D01*
X1586Y-1531D01*
X1595Y-1522D01*
X1620Y-1458D02*
X1629Y-1454D01*
X1643Y-1440D01*
Y-1536D01*
X1718Y-1440D02*
X1704Y-1445D01*
X1695Y-1458D01*
X1691Y-1481D01*
Y-1495D01*
X1695Y-1518D01*
X1704Y-1531D01*
X1718Y-1536D01*
X1727D01*
X1741Y-1531D01*
X1750Y-1518D01*
X1755Y-1495D01*
Y-1481D01*
X1750Y-1458D01*
X1741Y-1445D01*
X1727Y-1440D01*
X1718D01*
X1785D02*
X1836D01*
X1808Y-1477D01*
X1822D01*
X1831Y-1481D01*
X1836Y-1486D01*
X1840Y-1499D01*
Y-1509D01*
X1836Y-1522D01*
X1826Y-1531D01*
X1813Y-1536D01*
X1799D01*
X1785Y-1531D01*
X1781Y-1527D01*
X1776Y-1518D01*
D40*
X509Y864D02*
D03*
X449D02*
D03*
D41*
X950Y789D02*
D03*
X22Y774D02*
D03*
X0Y0D02*
D03*
X950Y49D02*
D03*
D42*
X948Y-36D02*
D03*
D43*
X729Y869D02*
D03*
X779D02*
D03*
X829D02*
D03*
X879D02*
D03*
X929D02*
D03*
D44*
X784Y454D02*
D03*
X509Y674D02*
D03*
X984Y229D02*
D03*
X864Y279D02*
D03*
X679Y879D02*
D03*
X610Y579D02*
D03*
X864Y689D02*
D03*
X574Y724D02*
D03*
X552Y139D02*
D03*
X899Y599D02*
D03*
X694Y659D02*
D03*
X937Y599D02*
D03*
X969Y564D02*
D03*
X743Y785D02*
D03*
X694Y599D02*
D03*
X684Y554D02*
D03*
X749Y454D02*
D03*
X295Y307D02*
D03*
X507Y541D02*
D03*
X345Y845D02*
D03*
X398Y846D02*
D03*
X773Y393D02*
D03*
X335Y741D02*
D03*
X370Y465D02*
D03*
X524Y273D02*
D03*
X690Y360D02*
D03*
X243Y377D02*
D03*
X220Y236D02*
D03*
X724Y152D02*
D03*
X602D02*
D03*
X263Y814D02*
D03*
X401Y627D02*
D03*
X336D02*
D03*
X490Y240D02*
D03*
X13Y253D02*
D03*
X110Y745D02*
D03*
X65Y591D02*
D03*
X98Y646D02*
D03*
X185Y741D02*
D03*
X206Y674D02*
D03*
X232Y499D02*
D03*
X181Y369D02*
D03*
X490Y82D02*
D03*
X394Y26D02*
D03*
X809Y96D02*
D03*
X652Y123D02*
D03*
X75Y150D02*
D03*
X395Y189D02*
D03*
X730Y47D02*
D03*
X809Y21D02*
D03*
X449Y779D02*
D03*
X739Y276D02*
D03*
X544Y369D02*
D03*
X872Y152D02*
D03*
X500Y1D02*
D03*
X266Y613D02*
D03*
X589Y659D02*
D03*
X534Y644D02*
D03*
D45*
X22Y774D02*
D03*
D46*
X61Y369D02*
D03*
X907D02*
D03*
D47*
X893Y49D02*
X950D01*
X809Y21D02*
X865D01*
X893Y49D01*
M02*
