%FSLAX23Y23*%
%MOIN*%
G70*
G01*
G75*
G04 Layer_Color=16711935*
%ADD10R,0.030X0.030*%
%ADD11R,0.030X0.030*%
%ADD12R,0.025X0.055*%
%ADD13R,0.025X0.095*%
%ADD14R,0.040X0.055*%
%ADD15R,0.055X0.040*%
%ADD16R,0.036X0.050*%
%ADD17R,0.036X0.036*%
%ADD18R,0.060X0.050*%
%ADD19R,0.150X0.050*%
%ADD20C,0.012*%
%ADD21R,0.024X0.024*%
%ADD22R,0.036X0.036*%
%ADD23R,0.050X0.036*%
%ADD24R,0.047X0.047*%
%ADD25R,0.047X0.047*%
%ADD26R,0.039X0.039*%
%ADD27R,0.039X0.020*%
%ADD28O,0.016X0.060*%
%ADD29R,0.020X0.050*%
%ADD30O,0.016X0.060*%
%ADD31O,0.024X0.080*%
%ADD32O,0.060X0.016*%
%ADD33R,0.059X0.031*%
%ADD34R,0.031X0.059*%
%ADD35R,0.090X0.024*%
%ADD36R,0.024X0.100*%
%ADD37R,0.070X0.024*%
%ADD38R,0.024X0.090*%
%ADD39R,0.055X0.025*%
%ADD40R,0.095X0.025*%
%ADD41R,0.020X0.030*%
%ADD42C,0.014*%
%ADD43C,0.012*%
%ADD44C,0.010*%
%ADD45C,0.030*%
%ADD46C,0.020*%
%ADD47C,0.008*%
%ADD48C,0.009*%
%ADD49C,0.005*%
%ADD50C,0.015*%
%ADD51C,0.045*%
%ADD52C,0.075*%
%ADD53C,0.140*%
%ADD54C,0.060*%
%ADD55C,0.062*%
%ADD56R,0.062X0.062*%
%ADD57C,0.110*%
%ADD58C,0.022*%
%ADD59C,0.010*%
%ADD60C,0.006*%
%ADD61R,0.038X0.038*%
%ADD62R,0.038X0.038*%
%ADD63R,0.033X0.063*%
%ADD64R,0.033X0.103*%
%ADD65R,0.048X0.063*%
%ADD66R,0.063X0.048*%
%ADD67R,0.044X0.058*%
%ADD68R,0.044X0.044*%
%ADD69R,0.068X0.058*%
%ADD70R,0.158X0.058*%
%ADD71C,0.020*%
%ADD72R,0.032X0.032*%
%ADD73R,0.044X0.044*%
%ADD74R,0.058X0.044*%
%ADD75R,0.055X0.055*%
%ADD76R,0.055X0.055*%
%ADD77R,0.047X0.047*%
%ADD78R,0.047X0.028*%
%ADD79O,0.024X0.068*%
%ADD80R,0.028X0.058*%
%ADD81O,0.024X0.068*%
%ADD82O,0.032X0.088*%
%ADD83O,0.068X0.024*%
%ADD84R,0.067X0.039*%
%ADD85R,0.039X0.067*%
%ADD86R,0.098X0.032*%
%ADD87R,0.032X0.108*%
%ADD88R,0.078X0.032*%
%ADD89R,0.032X0.098*%
%ADD90R,0.063X0.033*%
%ADD91R,0.103X0.033*%
%ADD92R,0.028X0.038*%
%ADD93C,0.053*%
%ADD94C,0.083*%
%ADD95C,0.148*%
%ADD96C,0.068*%
%ADD97C,0.070*%
%ADD98R,0.070X0.070*%
%ADD99C,0.118*%
%ADD100C,0.030*%
D44*
X1080Y-275D02*
Y-375D01*
Y-275D02*
X1037D01*
X1023Y-280D01*
X1018Y-285D01*
X1013Y-294D01*
Y-304D01*
X1018Y-313D01*
X1023Y-318D01*
X1037Y-323D01*
X1080D02*
X1037D01*
X1023Y-327D01*
X1018Y-332D01*
X1013Y-342D01*
Y-356D01*
X1018Y-365D01*
X1023Y-370D01*
X1037Y-375D01*
X1080D01*
X967Y-308D02*
X977Y-313D01*
X986Y-323D01*
X991Y-337D01*
Y-346D01*
X986Y-361D01*
X977Y-370D01*
X967Y-375D01*
X953D01*
X943Y-370D01*
X934Y-361D01*
X929Y-346D01*
Y-337D01*
X934Y-323D01*
X943Y-313D01*
X953Y-308D01*
X967D01*
X893Y-275D02*
Y-356D01*
X888Y-370D01*
X879Y-375D01*
X869D01*
X907Y-308D02*
X874D01*
X841Y-275D02*
Y-356D01*
X836Y-370D01*
X826Y-375D01*
X817D01*
X855Y-308D02*
X821D01*
X779D02*
X788Y-313D01*
X798Y-323D01*
X802Y-337D01*
Y-346D01*
X798Y-361D01*
X788Y-370D01*
X779Y-375D01*
X764D01*
X755Y-370D01*
X745Y-361D01*
X741Y-346D01*
Y-337D01*
X745Y-323D01*
X755Y-313D01*
X764Y-308D01*
X779D01*
X719D02*
Y-375D01*
Y-327D02*
X704Y-313D01*
X695Y-308D01*
X681D01*
X671Y-313D01*
X666Y-327D01*
Y-375D01*
Y-327D02*
X652Y-313D01*
X642Y-308D01*
X628D01*
X619Y-313D01*
X614Y-327D01*
Y-375D01*
X516Y-289D02*
X525Y-280D01*
X540Y-275D01*
X559D01*
X573Y-280D01*
X582Y-289D01*
Y-299D01*
X578Y-308D01*
X573Y-313D01*
X563Y-318D01*
X535Y-327D01*
X525Y-332D01*
X521Y-337D01*
X516Y-346D01*
Y-361D01*
X525Y-370D01*
X540Y-375D01*
X559D01*
X573Y-370D01*
X582Y-361D01*
X470Y-308D02*
X479Y-313D01*
X489Y-323D01*
X493Y-337D01*
Y-346D01*
X489Y-361D01*
X479Y-370D01*
X470Y-375D01*
X455D01*
X446Y-370D01*
X436Y-361D01*
X432Y-346D01*
Y-337D01*
X436Y-323D01*
X446Y-313D01*
X455Y-308D01*
X470D01*
X410Y-275D02*
Y-375D01*
X332Y-275D02*
Y-375D01*
Y-323D02*
X341Y-313D01*
X351Y-308D01*
X365D01*
X374Y-313D01*
X384Y-323D01*
X389Y-337D01*
Y-346D01*
X384Y-361D01*
X374Y-370D01*
X365Y-375D01*
X351D01*
X341Y-370D01*
X332Y-361D01*
X305Y-337D02*
X248D01*
Y-327D01*
X253Y-318D01*
X257Y-313D01*
X267Y-308D01*
X281D01*
X291Y-313D01*
X300Y-323D01*
X305Y-337D01*
Y-346D01*
X300Y-361D01*
X291Y-370D01*
X281Y-375D01*
X267D01*
X257Y-370D01*
X248Y-361D01*
X226Y-308D02*
Y-375D01*
Y-337D02*
X222Y-323D01*
X212Y-313D01*
X203Y-308D01*
X188D01*
X2163Y1304D02*
G03*
X2163Y1304I-65J0D01*
G01*
X-50Y1910D02*
X2320D01*
Y-60D02*
Y1910D01*
X-50Y-60D02*
X2320D01*
X-50Y-60D02*
Y1910D01*
X3352Y-1301D02*
G03*
X3303Y-1252I-49J0D01*
G01*
X2202D02*
G03*
X2152Y-1302I0J-50D01*
G01*
X3302Y-1202D02*
G03*
X3352Y-1152I0J50D01*
G01*
X2152D02*
G03*
X2202Y-1202I50J0D01*
G01*
X-898Y-477D02*
G03*
X-998Y-577I0J-100D01*
G01*
Y-1676D02*
G03*
X-899Y-1777I101J0D01*
G01*
X3302Y-1777D02*
G03*
X3402Y-1677I0J100D01*
G01*
Y-577D02*
G03*
X3302Y-477I-100J0D01*
G01*
X3352Y-576D02*
G03*
X3301Y-527I-49J0D01*
G01*
X3302Y-1477D02*
G03*
X3352Y-1427I0J50D01*
G01*
X3352Y-1576D02*
G03*
X3302Y-1527I-50J-1D01*
G01*
Y-1727D02*
G03*
X3352Y-1677I0J50D01*
G01*
X2052Y-1477D02*
G03*
X2102Y-1427I0J50D01*
G01*
X2152Y-1428D02*
G03*
X2202Y-1477I49J0D01*
G01*
X2102Y-1301D02*
G03*
X2053Y-1252I-49J0D01*
G01*
X-948Y-1677D02*
G03*
X-899Y-1727I50J0D01*
G01*
X2053Y-1202D02*
G03*
X2102Y-1152I-1J50D01*
G01*
X-898Y-1527D02*
G03*
X-948Y-1577I0J-50D01*
G01*
X2102Y-827D02*
G03*
X2052Y-777I-50J0D01*
G01*
Y-727D02*
G03*
X2102Y-677I0J50D01*
G01*
X2202Y-527D02*
G03*
X2152Y-577I0J-50D01*
G01*
X2102D02*
G03*
X2052Y-527I-50J0D01*
G01*
X-898D02*
G03*
X-948Y-577I0J-50D01*
G01*
Y-677D02*
G03*
X-898Y-727I50J0D01*
G01*
Y-777D02*
G03*
X-948Y-827I0J-50D01*
G01*
Y-1052D02*
G03*
X-898Y-1102I50J0D01*
G01*
Y-1152D02*
G03*
X-948Y-1202I0J-50D01*
G01*
Y-1427D02*
G03*
X-899Y-1477I50J0D01*
G01*
X2Y-777D02*
G03*
X-48Y-827I0J-50D01*
G01*
X2Y-1252D02*
G03*
X-48Y-1302I0J-50D01*
G01*
X1750Y-1252D02*
G03*
X1702Y-1302I0J-48D01*
G01*
X1702Y-1426D02*
G03*
X1752Y-1477I51J0D01*
G01*
X1603Y-1477D02*
G03*
X1652Y-1427I0J49D01*
G01*
X1652Y-1301D02*
G03*
X1603Y-1252I-49J0D01*
G01*
X-147Y-1477D02*
G03*
X-98Y-1428I0J49D01*
G01*
X-48D02*
G03*
X1Y-1477I49J0D01*
G01*
X-48Y-1153D02*
G03*
X1Y-1202I49J0D01*
G01*
X-98Y-1201D02*
G03*
X-149Y-1152I-49J0D01*
G01*
X-146Y-1102D02*
G03*
X-98Y-1054I0J48D01*
G01*
Y-826D02*
G03*
X-147Y-777I-49J0D01*
G01*
X2752Y-1527D02*
G03*
X2702Y-1577I0J-50D01*
G01*
Y-1678D02*
G03*
X2752Y-1727I49J0D01*
G01*
X2603Y-1727D02*
G03*
X2652Y-1677I1J48D01*
G01*
X2652Y-1577D02*
G03*
X2602Y-1527I-50J0D01*
G01*
X877Y-1677D02*
G03*
X926Y-1727I50J0D01*
G01*
X927Y-1527D02*
G03*
X877Y-1577I0J-50D01*
G01*
X778Y-1727D02*
G03*
X827Y-1677I1J48D01*
G01*
X827Y-1577D02*
G03*
X777Y-1527I-50J0D01*
G01*
X3352Y-1427D02*
Y-1301D01*
X2152Y-1427D02*
Y-1302D01*
X3352Y-1152D02*
Y-577D01*
X2152Y-1152D02*
Y-577D01*
X-998Y-1677D02*
Y-577D01*
X-948Y-1677D02*
Y-1577D01*
X3352Y-1677D02*
Y-1577D01*
X2102Y-1427D02*
Y-1302D01*
X1702Y-1427D02*
Y-1302D01*
X-48Y-1427D02*
Y-1302D01*
X1652Y-1427D02*
Y-1302D01*
X-48Y-1152D02*
Y-827D01*
X2102Y-1152D02*
Y-827D01*
Y-677D02*
Y-577D01*
X-948Y-677D02*
Y-577D01*
X-98Y-1052D02*
Y-827D01*
X-948Y-1052D02*
Y-827D01*
X-98Y-1427D02*
Y-1202D01*
X-948Y-1427D02*
Y-1202D01*
X3402Y-1677D02*
Y-577D01*
X2702Y-1677D02*
Y-1577D01*
X2652Y-1677D02*
Y-1577D01*
X877Y-1677D02*
Y-1577D01*
X827Y-1677D02*
Y-1577D01*
X2202Y-1252D02*
X3302D01*
X2202Y-1202D02*
X3302D01*
X2D02*
X2052D01*
X2202Y-527D02*
X3302D01*
X2202Y-1477D02*
X3302D01*
X1752Y-1252D02*
X2052D01*
X1752Y-1477D02*
X2052D01*
X2D02*
X1602D01*
X2Y-1252D02*
X1602D01*
X2Y-777D02*
X2052D01*
X-898Y-727D02*
X2052D01*
X-898Y-777D02*
X-148D01*
X-898Y-1102D02*
X-148D01*
X-898Y-1152D02*
X-148D01*
X-898Y-1477D02*
X-148D01*
X-898Y-477D02*
X3302D01*
X-898Y-1777D02*
X3302D01*
X-898Y-527D02*
X2052D01*
X2752Y-1527D02*
X3302D01*
X2752Y-1727D02*
X3302D01*
X927Y-1527D02*
X2602D01*
X-898D02*
X777D01*
X-898Y-1727D02*
X777D01*
X927D02*
X2602D01*
X2353Y-929D02*
Y-993D01*
Y-929D02*
X2380D01*
X2389Y-932D01*
X2392Y-935D01*
X2396Y-941D01*
Y-947D01*
X2392Y-953D01*
X2389Y-956D01*
X2380Y-959D01*
X2353D02*
X2380D01*
X2389Y-962D01*
X2392Y-965D01*
X2396Y-971D01*
Y-981D01*
X2392Y-987D01*
X2389Y-990D01*
X2380Y-993D01*
X2353D01*
X2425Y-950D02*
X2419Y-953D01*
X2413Y-959D01*
X2410Y-968D01*
Y-974D01*
X2413Y-984D01*
X2419Y-990D01*
X2425Y-993D01*
X2434D01*
X2440Y-990D01*
X2446Y-984D01*
X2449Y-974D01*
Y-968D01*
X2446Y-959D01*
X2440Y-953D01*
X2434Y-950D01*
X2425D01*
X2500Y-959D02*
X2494Y-953D01*
X2488Y-950D01*
X2479D01*
X2473Y-953D01*
X2467Y-959D01*
X2463Y-968D01*
Y-974D01*
X2467Y-984D01*
X2473Y-990D01*
X2479Y-993D01*
X2488D01*
X2494Y-990D01*
X2500Y-984D01*
X2550Y-950D02*
Y-993D01*
Y-959D02*
X2544Y-953D01*
X2538Y-950D01*
X2529D01*
X2523Y-953D01*
X2517Y-959D01*
X2514Y-968D01*
Y-974D01*
X2517Y-984D01*
X2523Y-990D01*
X2529Y-993D01*
X2538D01*
X2544Y-990D01*
X2550Y-984D01*
X2618Y-929D02*
Y-993D01*
Y-929D02*
X2645D01*
X2654Y-932D01*
X2657Y-935D01*
X2660Y-941D01*
Y-947D01*
X2657Y-953D01*
X2654Y-956D01*
X2645Y-959D01*
X2618D01*
X2639D02*
X2660Y-993D01*
X2711Y-950D02*
Y-993D01*
Y-959D02*
X2705Y-953D01*
X2699Y-950D01*
X2690D01*
X2684Y-953D01*
X2678Y-959D01*
X2675Y-968D01*
Y-974D01*
X2678Y-984D01*
X2684Y-990D01*
X2690Y-993D01*
X2699D01*
X2705Y-990D01*
X2711Y-984D01*
X2737Y-929D02*
Y-981D01*
X2740Y-990D01*
X2747Y-993D01*
X2753D01*
X2728Y-950D02*
X2750D01*
X2777D02*
X2771Y-953D01*
X2765Y-959D01*
X2762Y-968D01*
Y-974D01*
X2765Y-984D01*
X2771Y-990D01*
X2777Y-993D01*
X2786D01*
X2792Y-990D01*
X2798Y-984D01*
X2801Y-974D01*
Y-968D01*
X2798Y-959D01*
X2792Y-953D01*
X2786Y-950D01*
X2777D01*
X2815D02*
Y-993D01*
Y-962D02*
X2825Y-953D01*
X2831Y-950D01*
X2840D01*
X2846Y-953D01*
X2849Y-962D01*
Y-993D01*
X2916Y-929D02*
Y-993D01*
Y-929D02*
X2956D01*
X2916Y-959D02*
X2940D01*
X2963Y-929D02*
Y-993D01*
X2999D01*
X3009Y-987D02*
X3006Y-990D01*
X3009Y-993D01*
X3013Y-990D01*
X3009Y-987D01*
X2232Y-750D02*
X2229Y-759D01*
X2223Y-765D01*
X2214Y-768D01*
X2211D01*
X2202Y-765D01*
X2196Y-759D01*
X2193Y-750D01*
Y-747D01*
X2196Y-738D01*
X2202Y-732D01*
X2211Y-729D01*
X2214D01*
X2223Y-732D01*
X2229Y-738D01*
X2232Y-750D01*
Y-765D01*
X2229Y-781D01*
X2223Y-790D01*
X2214Y-793D01*
X2208D01*
X2199Y-790D01*
X2196Y-784D01*
X2268Y-729D02*
X2259Y-732D01*
X2253Y-741D01*
X2250Y-756D01*
Y-765D01*
X2253Y-781D01*
X2259Y-790D01*
X2268Y-793D01*
X2274D01*
X2283Y-790D01*
X2289Y-781D01*
X2292Y-765D01*
Y-756D01*
X2289Y-741D01*
X2283Y-732D01*
X2274Y-729D01*
X2268D01*
X2310Y-744D02*
Y-741D01*
X2313Y-735D01*
X2316Y-732D01*
X2322Y-729D01*
X2334D01*
X2340Y-732D01*
X2343Y-735D01*
X2346Y-741D01*
Y-747D01*
X2343Y-753D01*
X2337Y-762D01*
X2307Y-793D01*
X2349D01*
X2460Y-744D02*
X2457Y-738D01*
X2451Y-732D01*
X2445Y-729D01*
X2432D01*
X2426Y-732D01*
X2420Y-738D01*
X2417Y-744D01*
X2414Y-753D01*
Y-768D01*
X2417Y-777D01*
X2420Y-784D01*
X2426Y-790D01*
X2432Y-793D01*
X2445D01*
X2451Y-790D01*
X2457Y-784D01*
X2460Y-777D01*
X2478Y-729D02*
Y-793D01*
X2497Y-729D02*
X2500Y-732D01*
X2503Y-729D01*
X2500Y-726D01*
X2497Y-729D01*
X2500Y-750D02*
Y-793D01*
X2515Y-750D02*
Y-793D01*
Y-762D02*
X2524Y-753D01*
X2530Y-750D01*
X2539D01*
X2545Y-753D01*
X2548Y-762D01*
Y-793D01*
X2574Y-729D02*
Y-781D01*
X2577Y-790D01*
X2583Y-793D01*
X2589D01*
X2565Y-750D02*
X2586D01*
X2649Y-729D02*
Y-793D01*
Y-729D02*
X2673Y-793D01*
X2697Y-729D02*
X2673Y-793D01*
X2697Y-729D02*
Y-793D01*
X2731Y-750D02*
X2725Y-753D01*
X2719Y-759D01*
X2716Y-768D01*
Y-774D01*
X2719Y-784D01*
X2725Y-790D01*
X2731Y-793D01*
X2740D01*
X2746Y-790D01*
X2752Y-784D01*
X2755Y-774D01*
Y-768D01*
X2752Y-759D01*
X2746Y-753D01*
X2740Y-750D01*
X2731D01*
X2785D02*
X2778Y-753D01*
X2772Y-759D01*
X2769Y-768D01*
Y-774D01*
X2772Y-784D01*
X2778Y-790D01*
X2785Y-793D01*
X2794D01*
X2800Y-790D01*
X2806Y-784D01*
X2809Y-774D01*
Y-768D01*
X2806Y-759D01*
X2800Y-753D01*
X2794Y-750D01*
X2785D01*
X2823D02*
Y-793D01*
Y-768D02*
X2826Y-759D01*
X2832Y-753D01*
X2838Y-750D01*
X2847D01*
X2853Y-768D02*
X2890D01*
Y-762D01*
X2887Y-756D01*
X2884Y-753D01*
X2878Y-750D01*
X2868D01*
X2862Y-753D01*
X2856Y-759D01*
X2853Y-768D01*
Y-774D01*
X2856Y-784D01*
X2862Y-790D01*
X2868Y-793D01*
X2878D01*
X2884Y-790D01*
X2890Y-784D01*
X2954Y-729D02*
Y-793D01*
Y-729D02*
X2981D01*
X2990Y-732D01*
X2993Y-735D01*
X2996Y-741D01*
Y-747D01*
X2993Y-753D01*
X2990Y-756D01*
X2981Y-759D01*
X2954D01*
X2975D02*
X2996Y-793D01*
X3047Y-729D02*
Y-793D01*
Y-759D02*
X3041Y-753D01*
X3035Y-750D01*
X3026D01*
X3020Y-753D01*
X3014Y-759D01*
X3011Y-768D01*
Y-774D01*
X3014Y-784D01*
X3020Y-790D01*
X3026Y-793D01*
X3035D01*
X3041Y-790D01*
X3047Y-784D01*
X3067Y-787D02*
X3064Y-790D01*
X3067Y-793D01*
X3070Y-790D01*
X3067Y-787D01*
X2444Y-1049D02*
X2414D01*
X2411Y-1076D01*
X2414Y-1073D01*
X2423Y-1070D01*
X2432D01*
X2441Y-1073D01*
X2447Y-1079D01*
X2451Y-1088D01*
Y-1094D01*
X2447Y-1104D01*
X2441Y-1110D01*
X2432Y-1113D01*
X2423D01*
X2414Y-1110D01*
X2411Y-1107D01*
X2408Y-1101D01*
X2501Y-1058D02*
X2498Y-1052D01*
X2489Y-1049D01*
X2483D01*
X2474Y-1052D01*
X2468Y-1061D01*
X2465Y-1076D01*
Y-1091D01*
X2468Y-1104D01*
X2474Y-1110D01*
X2483Y-1113D01*
X2486D01*
X2495Y-1110D01*
X2501Y-1104D01*
X2504Y-1094D01*
Y-1091D01*
X2501Y-1082D01*
X2495Y-1076D01*
X2486Y-1073D01*
X2483D01*
X2474Y-1076D01*
X2468Y-1082D01*
X2465Y-1091D01*
X2518Y-1061D02*
X2525Y-1058D01*
X2534Y-1049D01*
Y-1113D01*
X2565Y-1085D02*
X2620D01*
X2679Y-1070D02*
X2676Y-1079D01*
X2670Y-1085D01*
X2660Y-1088D01*
X2657D01*
X2648Y-1085D01*
X2642Y-1079D01*
X2639Y-1070D01*
Y-1067D01*
X2642Y-1058D01*
X2648Y-1052D01*
X2657Y-1049D01*
X2660D01*
X2670Y-1052D01*
X2676Y-1058D01*
X2679Y-1070D01*
Y-1085D01*
X2676Y-1101D01*
X2670Y-1110D01*
X2660Y-1113D01*
X2654D01*
X2645Y-1110D01*
X2642Y-1104D01*
X2736Y-1070D02*
X2733Y-1079D01*
X2727Y-1085D01*
X2717Y-1088D01*
X2714D01*
X2705Y-1085D01*
X2699Y-1079D01*
X2696Y-1070D01*
Y-1067D01*
X2699Y-1058D01*
X2705Y-1052D01*
X2714Y-1049D01*
X2717D01*
X2727Y-1052D01*
X2733Y-1058D01*
X2736Y-1070D01*
Y-1085D01*
X2733Y-1101D01*
X2727Y-1110D01*
X2717Y-1113D01*
X2711D01*
X2702Y-1110D01*
X2699Y-1104D01*
X2793Y-1070D02*
X2790Y-1079D01*
X2784Y-1085D01*
X2774Y-1088D01*
X2771D01*
X2762Y-1085D01*
X2756Y-1079D01*
X2753Y-1070D01*
Y-1067D01*
X2756Y-1058D01*
X2762Y-1052D01*
X2771Y-1049D01*
X2774D01*
X2784Y-1052D01*
X2790Y-1058D01*
X2793Y-1070D01*
Y-1085D01*
X2790Y-1101D01*
X2784Y-1110D01*
X2774Y-1113D01*
X2768D01*
X2759Y-1110D01*
X2756Y-1104D01*
X2810Y-1085D02*
X2865D01*
X2923Y-1070D02*
X2920Y-1079D01*
X2914Y-1085D01*
X2905Y-1088D01*
X2902D01*
X2893Y-1085D01*
X2887Y-1079D01*
X2884Y-1070D01*
Y-1067D01*
X2887Y-1058D01*
X2893Y-1052D01*
X2902Y-1049D01*
X2905D01*
X2914Y-1052D01*
X2920Y-1058D01*
X2923Y-1070D01*
Y-1085D01*
X2920Y-1101D01*
X2914Y-1110D01*
X2905Y-1113D01*
X2899D01*
X2890Y-1110D01*
X2887Y-1104D01*
X2971Y-1049D02*
X2941Y-1091D01*
X2986D01*
X2971Y-1049D02*
Y-1113D01*
X3001Y-1064D02*
Y-1061D01*
X3004Y-1055D01*
X3007Y-1052D01*
X3013Y-1049D01*
X3025D01*
X3031Y-1052D01*
X3034Y-1055D01*
X3037Y-1061D01*
Y-1067D01*
X3034Y-1073D01*
X3028Y-1082D01*
X2998Y-1113D01*
X3040D01*
X3058Y-1064D02*
Y-1061D01*
X3061Y-1055D01*
X3064Y-1052D01*
X3070Y-1049D01*
X3082D01*
X3088Y-1052D01*
X3091Y-1055D01*
X3094Y-1061D01*
Y-1067D01*
X3091Y-1073D01*
X3085Y-1082D01*
X3055Y-1113D01*
X3097D01*
X2531Y-843D02*
X2524Y-837D01*
X2515Y-834D01*
X2503D01*
X2494Y-837D01*
X2488Y-843D01*
Y-849D01*
X2491Y-855D01*
X2494Y-858D01*
X2500Y-861D01*
X2518Y-867D01*
X2524Y-870D01*
X2527Y-873D01*
X2531Y-879D01*
Y-889D01*
X2524Y-895D01*
X2515Y-898D01*
X2503D01*
X2494Y-895D01*
X2488Y-889D01*
X2545Y-855D02*
Y-886D01*
X2548Y-895D01*
X2554Y-898D01*
X2563D01*
X2569Y-895D01*
X2578Y-886D01*
Y-855D02*
Y-898D01*
X2601Y-834D02*
X2604Y-837D01*
X2607Y-834D01*
X2604Y-831D01*
X2601Y-834D01*
X2604Y-855D02*
Y-898D01*
X2628Y-834D02*
Y-886D01*
X2631Y-895D01*
X2637Y-898D01*
X2643D01*
X2619Y-855D02*
X2640D01*
X2652Y-873D02*
X2689D01*
Y-867D01*
X2686Y-861D01*
X2683Y-858D01*
X2676Y-855D01*
X2667D01*
X2661Y-858D01*
X2655Y-864D01*
X2652Y-873D01*
Y-879D01*
X2655Y-889D01*
X2661Y-895D01*
X2667Y-898D01*
X2676D01*
X2683Y-895D01*
X2689Y-889D01*
X2753Y-846D02*
X2759Y-843D01*
X2768Y-834D01*
Y-898D01*
X2800Y-846D02*
X2806Y-843D01*
X2815Y-834D01*
Y-898D01*
X2862Y-834D02*
X2853Y-837D01*
X2850Y-843D01*
Y-849D01*
X2853Y-855D01*
X2859Y-858D01*
X2871Y-861D01*
X2880Y-864D01*
X2886Y-870D01*
X2889Y-876D01*
Y-886D01*
X2886Y-892D01*
X2883Y-895D01*
X2874Y-898D01*
X2862D01*
X2853Y-895D01*
X2850Y-892D01*
X2846Y-886D01*
Y-876D01*
X2850Y-870D01*
X2856Y-864D01*
X2865Y-861D01*
X2877Y-858D01*
X2883Y-855D01*
X2886Y-849D01*
Y-843D01*
X2883Y-837D01*
X2874Y-834D01*
X2862D01*
D47*
X-490Y-1205D02*
Y-1245D01*
X-492Y-1253D01*
X-495Y-1255D01*
X-500Y-1258D01*
X-505D01*
X-510Y-1255D01*
X-513Y-1253D01*
X-515Y-1245D01*
Y-1240D01*
X-474Y-1253D02*
X-476Y-1255D01*
X-474Y-1258D01*
X-471Y-1255D01*
X-474Y-1253D01*
X-459Y-1205D02*
Y-1258D01*
Y-1205D02*
X-424Y-1258D01*
Y-1205D02*
Y-1258D01*
X675Y-1066D02*
Y-1146D01*
X648Y-1066D02*
X701D01*
X711D02*
Y-1146D01*
Y-1066D02*
X745D01*
X757Y-1070D01*
X760Y-1074D01*
X764Y-1081D01*
Y-1089D01*
X760Y-1096D01*
X757Y-1100D01*
X745Y-1104D01*
X711D01*
X738D02*
X764Y-1146D01*
X843D02*
X813Y-1066D01*
X782Y-1146D01*
X793Y-1119D02*
X832D01*
X862Y-1066D02*
Y-1146D01*
Y-1066D02*
X915Y-1146D01*
Y-1066D02*
Y-1146D01*
X990Y-1077D02*
X983Y-1070D01*
X971Y-1066D01*
X956D01*
X945Y-1070D01*
X937Y-1077D01*
Y-1085D01*
X941Y-1093D01*
X945Y-1096D01*
X952Y-1100D01*
X975Y-1108D01*
X983Y-1112D01*
X987Y-1116D01*
X990Y-1123D01*
Y-1135D01*
X983Y-1142D01*
X971Y-1146D01*
X956D01*
X945Y-1142D01*
X937Y-1135D01*
X1065Y-1085D02*
X1062Y-1077D01*
X1054Y-1070D01*
X1046Y-1066D01*
X1031D01*
X1024Y-1070D01*
X1016Y-1077D01*
X1012Y-1085D01*
X1008Y-1096D01*
Y-1116D01*
X1012Y-1127D01*
X1016Y-1135D01*
X1024Y-1142D01*
X1031Y-1146D01*
X1046D01*
X1054Y-1142D01*
X1062Y-1135D01*
X1065Y-1127D01*
X1137Y-1066D02*
X1088D01*
Y-1146D01*
X1137D01*
X1088Y-1104D02*
X1118D01*
X1151Y-1066D02*
Y-1146D01*
X1168Y-1066D02*
X1198Y-1146D01*
X1228Y-1066D02*
X1198Y-1146D01*
X1288Y-1066D02*
X1239D01*
Y-1146D01*
X1288D01*
X1239Y-1104D02*
X1269D01*
X1302Y-1066D02*
Y-1146D01*
Y-1066D02*
X1336D01*
X1347Y-1070D01*
X1351Y-1074D01*
X1355Y-1081D01*
Y-1089D01*
X1351Y-1096D01*
X1347Y-1100D01*
X1336Y-1104D01*
X1302D01*
X1328D02*
X1355Y-1146D01*
D48*
X1914Y-1371D02*
X1919Y-1369D01*
X1927Y-1361D01*
Y-1414D01*
X1966Y-1361D02*
X1958Y-1364D01*
X1956Y-1369D01*
Y-1374D01*
X1958Y-1379D01*
X1964Y-1381D01*
X1974Y-1384D01*
X1981Y-1386D01*
X1986Y-1392D01*
X1989Y-1397D01*
Y-1404D01*
X1986Y-1409D01*
X1984Y-1412D01*
X1976Y-1414D01*
X1966D01*
X1958Y-1412D01*
X1956Y-1409D01*
X1953Y-1404D01*
Y-1397D01*
X1956Y-1392D01*
X1961Y-1386D01*
X1969Y-1384D01*
X1979Y-1381D01*
X1984Y-1379D01*
X1986Y-1374D01*
Y-1369D01*
X1984Y-1364D01*
X1976Y-1361D01*
X1966D01*
X796Y-874D02*
Y-970D01*
X764Y-874D02*
X828D01*
X839D02*
Y-970D01*
Y-874D02*
X881D01*
X894Y-879D01*
X899Y-883D01*
X903Y-892D01*
Y-901D01*
X899Y-911D01*
X894Y-915D01*
X881Y-920D01*
X839D01*
X871D02*
X903Y-970D01*
X925Y-874D02*
X989Y-970D01*
Y-874D02*
X925Y-970D01*
X1010Y-929D02*
X1093D01*
X1121Y-892D02*
X1130Y-888D01*
X1144Y-874D01*
Y-970D01*
X1219Y-874D02*
X1205Y-879D01*
X1196Y-892D01*
X1191Y-915D01*
Y-929D01*
X1196Y-952D01*
X1205Y-965D01*
X1219Y-970D01*
X1228D01*
X1242Y-965D01*
X1251Y-952D01*
X1255Y-929D01*
Y-915D01*
X1251Y-892D01*
X1242Y-879D01*
X1228Y-874D01*
X1219D01*
X1277Y-892D02*
X1286Y-888D01*
X1300Y-874D01*
Y-970D01*
X205Y-672D02*
X168Y-576D01*
X132Y-672D01*
X145Y-640D02*
X191D01*
X282Y-622D02*
X273Y-612D01*
X264Y-608D01*
X250D01*
X241Y-612D01*
X232Y-622D01*
X227Y-635D01*
Y-644D01*
X232Y-658D01*
X241Y-667D01*
X250Y-672D01*
X264D01*
X273Y-667D01*
X282Y-658D01*
X316Y-576D02*
Y-654D01*
X321Y-667D01*
X330Y-672D01*
X339D01*
X303Y-608D02*
X335D01*
X362Y-576D02*
X367Y-580D01*
X371Y-576D01*
X367Y-571D01*
X362Y-576D01*
X367Y-608D02*
Y-672D01*
X388Y-608D02*
X416Y-672D01*
X443Y-608D02*
X416Y-672D01*
X459Y-635D02*
X513D01*
Y-626D01*
X509Y-617D01*
X504Y-612D01*
X495Y-608D01*
X481D01*
X472Y-612D01*
X463Y-622D01*
X459Y-635D01*
Y-644D01*
X463Y-658D01*
X472Y-667D01*
X481Y-672D01*
X495D01*
X504Y-667D01*
X513Y-658D01*
X609Y-576D02*
X632Y-672D01*
X655Y-576D02*
X632Y-672D01*
X655Y-576D02*
X678Y-672D01*
X701Y-576D02*
X678Y-672D01*
X775Y-608D02*
Y-672D01*
Y-622D02*
X766Y-612D01*
X757Y-608D01*
X743D01*
X734Y-612D01*
X725Y-622D01*
X720Y-635D01*
Y-644D01*
X725Y-658D01*
X734Y-667D01*
X743Y-672D01*
X757D01*
X766Y-667D01*
X775Y-658D01*
X800Y-608D02*
X828Y-672D01*
X855Y-608D02*
X828Y-672D01*
X871Y-635D02*
X926D01*
Y-626D01*
X921Y-617D01*
X917Y-612D01*
X907Y-608D01*
X894D01*
X885Y-612D01*
X875Y-622D01*
X871Y-635D01*
Y-644D01*
X875Y-658D01*
X885Y-667D01*
X894Y-672D01*
X907D01*
X917Y-667D01*
X926Y-658D01*
X2632Y-1339D02*
X2624Y-1342D01*
X2619Y-1349D01*
X2617Y-1362D01*
Y-1370D01*
X2619Y-1382D01*
X2624Y-1390D01*
X2632Y-1392D01*
X2637D01*
X2644Y-1390D01*
X2650Y-1382D01*
X2652Y-1370D01*
Y-1362D01*
X2650Y-1349D01*
X2644Y-1342D01*
X2637Y-1339D01*
X2632D01*
X2695D02*
X2669D01*
X2667Y-1362D01*
X2669Y-1359D01*
X2677Y-1357D01*
X2684D01*
X2692Y-1359D01*
X2697Y-1364D01*
X2700Y-1372D01*
Y-1377D01*
X2697Y-1385D01*
X2692Y-1390D01*
X2684Y-1392D01*
X2677D01*
X2669Y-1390D01*
X2667Y-1387D01*
X2664Y-1382D01*
X2712Y-1400D02*
X2747Y-1339D01*
X2753Y-1352D02*
Y-1349D01*
X2756Y-1344D01*
X2758Y-1342D01*
X2763Y-1339D01*
X2773D01*
X2779Y-1342D01*
X2781Y-1344D01*
X2784Y-1349D01*
Y-1354D01*
X2781Y-1359D01*
X2776Y-1367D01*
X2751Y-1392D01*
X2786D01*
X2831Y-1357D02*
X2829Y-1364D01*
X2823Y-1370D01*
X2816Y-1372D01*
X2813D01*
X2806Y-1370D01*
X2801Y-1364D01*
X2798Y-1357D01*
Y-1354D01*
X2801Y-1347D01*
X2806Y-1342D01*
X2813Y-1339D01*
X2816D01*
X2823Y-1342D01*
X2829Y-1347D01*
X2831Y-1357D01*
Y-1370D01*
X2829Y-1382D01*
X2823Y-1390D01*
X2816Y-1392D01*
X2811D01*
X2803Y-1390D01*
X2801Y-1385D01*
X2846Y-1400D02*
X2881Y-1339D01*
X2887Y-1352D02*
Y-1349D01*
X2890Y-1344D01*
X2892Y-1342D01*
X2897Y-1339D01*
X2908D01*
X2913Y-1342D01*
X2915Y-1344D01*
X2918Y-1349D01*
Y-1354D01*
X2915Y-1359D01*
X2910Y-1367D01*
X2885Y-1392D01*
X2920D01*
X2947Y-1339D02*
X2940Y-1342D01*
X2935Y-1349D01*
X2932Y-1362D01*
Y-1370D01*
X2935Y-1382D01*
X2940Y-1390D01*
X2947Y-1392D01*
X2952D01*
X2960Y-1390D01*
X2965Y-1382D01*
X2968Y-1370D01*
Y-1362D01*
X2965Y-1349D01*
X2960Y-1342D01*
X2952Y-1339D01*
X2947D01*
X2995D02*
X2987Y-1342D01*
X2982Y-1349D01*
X2980Y-1362D01*
Y-1370D01*
X2982Y-1382D01*
X2987Y-1390D01*
X2995Y-1392D01*
X3000D01*
X3008Y-1390D01*
X3013Y-1382D01*
X3015Y-1370D01*
Y-1362D01*
X3013Y-1349D01*
X3008Y-1342D01*
X3000Y-1339D01*
X2995D01*
X3060Y-1357D02*
X3058Y-1364D01*
X3053Y-1370D01*
X3045Y-1372D01*
X3042D01*
X3035Y-1370D01*
X3030Y-1364D01*
X3027Y-1357D01*
Y-1354D01*
X3030Y-1347D01*
X3035Y-1342D01*
X3042Y-1339D01*
X3045D01*
X3053Y-1342D01*
X3058Y-1347D01*
X3060Y-1357D01*
Y-1370D01*
X3058Y-1382D01*
X3053Y-1390D01*
X3045Y-1392D01*
X3040D01*
X3032Y-1390D01*
X3030Y-1385D01*
D49*
X2202Y-1286D02*
Y-1339D01*
Y-1286D02*
X2220D01*
X2227Y-1289D01*
X2232Y-1294D01*
X2235Y-1299D01*
X2237Y-1306D01*
Y-1319D01*
X2235Y-1327D01*
X2232Y-1332D01*
X2227Y-1337D01*
X2220Y-1339D01*
X2202D01*
X2290D02*
X2270Y-1286D01*
X2249Y-1339D01*
X2257Y-1322D02*
X2282D01*
X2320Y-1286D02*
Y-1339D01*
X2302Y-1286D02*
X2338D01*
X2377D02*
X2344D01*
Y-1339D01*
X2377D01*
X2344Y-1311D02*
X2365D01*
X2389Y-1304D02*
X2386Y-1306D01*
X2389Y-1309D01*
X2391Y-1306D01*
X2389Y-1304D01*
Y-1334D02*
X2386Y-1337D01*
X2389Y-1339D01*
X2391Y-1337D01*
X2389Y-1334D01*
X1739Y-1286D02*
Y-1339D01*
Y-1286D02*
X1762D01*
X1770Y-1289D01*
X1772Y-1291D01*
X1775Y-1296D01*
Y-1301D01*
X1772Y-1306D01*
X1770Y-1309D01*
X1762Y-1311D01*
X1739D01*
X1757D02*
X1775Y-1339D01*
X1820Y-1286D02*
X1787D01*
Y-1339D01*
X1820D01*
X1787Y-1311D02*
X1807D01*
X1829Y-1286D02*
X1849Y-1339D01*
X1869Y-1286D02*
X1849Y-1339D01*
X1879Y-1304D02*
X1876Y-1306D01*
X1879Y-1309D01*
X1881Y-1306D01*
X1879Y-1304D01*
Y-1334D02*
X1876Y-1337D01*
X1879Y-1339D01*
X1881Y-1337D01*
X1879Y-1334D01*
X-898Y-1039D02*
X-875D01*
X-868Y-1036D01*
X-865Y-1034D01*
X-863Y-1029D01*
Y-1021D01*
X-865Y-1016D01*
X-868Y-1014D01*
X-875Y-1011D01*
X-898D01*
Y-1064D01*
X-851Y-1011D02*
Y-1064D01*
X-815Y-1011D02*
Y-1064D01*
X-851Y-1036D02*
X-815D01*
X-785Y-1011D02*
X-790Y-1014D01*
X-795Y-1019D01*
X-798Y-1024D01*
X-800Y-1031D01*
Y-1044D01*
X-798Y-1052D01*
X-795Y-1057D01*
X-790Y-1062D01*
X-785Y-1064D01*
X-775D01*
X-770Y-1062D01*
X-765Y-1057D01*
X-762Y-1052D01*
X-760Y-1044D01*
Y-1031D01*
X-762Y-1024D01*
X-765Y-1019D01*
X-770Y-1014D01*
X-775Y-1011D01*
X-785D01*
X-747D02*
Y-1064D01*
Y-1011D02*
X-712Y-1064D01*
Y-1011D02*
Y-1064D01*
X-664Y-1011D02*
X-697D01*
Y-1064D01*
X-664D01*
X-697Y-1036D02*
X-677D01*
X-653Y-1029D02*
X-655Y-1031D01*
X-653Y-1034D01*
X-650Y-1031D01*
X-653Y-1029D01*
Y-1059D02*
X-655Y-1062D01*
X-653Y-1064D01*
X-650Y-1062D01*
X-653Y-1059D01*
X-898Y-1414D02*
X-875D01*
X-868Y-1411D01*
X-865Y-1409D01*
X-863Y-1404D01*
Y-1396D01*
X-865Y-1391D01*
X-868Y-1389D01*
X-875Y-1386D01*
X-898D01*
Y-1439D01*
X-851Y-1386D02*
Y-1439D01*
X-815Y-1386D02*
Y-1439D01*
X-851Y-1411D02*
X-815D01*
X-785Y-1386D02*
X-790Y-1389D01*
X-795Y-1394D01*
X-798Y-1399D01*
X-800Y-1406D01*
Y-1419D01*
X-798Y-1427D01*
X-795Y-1432D01*
X-790Y-1437D01*
X-785Y-1439D01*
X-775D01*
X-770Y-1437D01*
X-765Y-1432D01*
X-762Y-1427D01*
X-760Y-1419D01*
Y-1406D01*
X-762Y-1399D01*
X-765Y-1394D01*
X-770Y-1389D01*
X-775Y-1386D01*
X-785D01*
X-747D02*
Y-1439D01*
Y-1386D02*
X-712Y-1439D01*
Y-1386D02*
Y-1439D01*
X-664Y-1386D02*
X-697D01*
Y-1439D01*
X-664D01*
X-697Y-1411D02*
X-677D01*
X-653Y-1404D02*
X-655Y-1406D01*
X-653Y-1409D01*
X-650Y-1406D01*
X-653Y-1404D01*
Y-1434D02*
X-655Y-1437D01*
X-653Y-1439D01*
X-650Y-1437D01*
X-653Y-1434D01*
X942Y-1564D02*
Y-1617D01*
X972D01*
X1019D02*
X998Y-1564D01*
X978Y-1617D01*
X986Y-1599D02*
X1011D01*
X1031Y-1564D02*
X1051Y-1589D01*
Y-1617D01*
X1072Y-1564D02*
X1051Y-1589D01*
X1112Y-1564D02*
X1079D01*
Y-1617D01*
X1112D01*
X1079Y-1589D02*
X1099D01*
X1121Y-1564D02*
Y-1617D01*
Y-1564D02*
X1143D01*
X1151Y-1566D01*
X1154Y-1569D01*
X1156Y-1574D01*
Y-1579D01*
X1154Y-1584D01*
X1151Y-1586D01*
X1143Y-1589D01*
X1121D01*
X1138D02*
X1156Y-1617D01*
X1171Y-1581D02*
X1168Y-1584D01*
X1171Y-1586D01*
X1173Y-1584D01*
X1171Y-1581D01*
Y-1612D02*
X1168Y-1614D01*
X1171Y-1617D01*
X1173Y-1614D01*
X1171Y-1612D01*
X-865Y-824D02*
X-898D01*
Y-877D01*
X-865D01*
X-898Y-849D02*
X-878D01*
X-856Y-824D02*
Y-877D01*
Y-824D02*
X-821Y-877D01*
Y-824D02*
Y-877D01*
X-768Y-836D02*
X-771Y-831D01*
X-776Y-826D01*
X-781Y-824D01*
X-791D01*
X-796Y-826D01*
X-801Y-831D01*
X-804Y-836D01*
X-806Y-844D01*
Y-857D01*
X-804Y-864D01*
X-801Y-869D01*
X-796Y-874D01*
X-791Y-877D01*
X-781D01*
X-776Y-874D01*
X-771Y-869D01*
X-768Y-864D01*
Y-857D01*
X-781D02*
X-768D01*
X-756Y-824D02*
Y-877D01*
X-745Y-824D02*
Y-877D01*
Y-824D02*
X-709Y-877D01*
Y-824D02*
Y-877D01*
X-661Y-824D02*
X-694D01*
Y-877D01*
X-661D01*
X-694Y-849D02*
X-674D01*
X-619Y-824D02*
X-652D01*
Y-877D01*
X-619D01*
X-652Y-849D02*
X-632D01*
X-611Y-824D02*
Y-877D01*
Y-824D02*
X-588D01*
X-580Y-826D01*
X-578Y-829D01*
X-575Y-834D01*
Y-839D01*
X-578Y-844D01*
X-580Y-846D01*
X-588Y-849D01*
X-611D01*
X-593D02*
X-575Y-877D01*
X-561Y-841D02*
X-563Y-844D01*
X-561Y-846D01*
X-558Y-844D01*
X-561Y-841D01*
Y-872D02*
X-563Y-874D01*
X-561Y-877D01*
X-558Y-874D01*
X-561Y-872D01*
X2Y-1314D02*
X25D01*
X32Y-1311D01*
X35Y-1309D01*
X37Y-1304D01*
Y-1296D01*
X35Y-1291D01*
X32Y-1289D01*
X25Y-1286D01*
X2D01*
Y-1339D01*
X90D02*
X70Y-1286D01*
X49Y-1339D01*
X57Y-1322D02*
X82D01*
X102Y-1286D02*
Y-1339D01*
Y-1286D02*
X125D01*
X133Y-1289D01*
X135Y-1291D01*
X138Y-1296D01*
Y-1301D01*
X135Y-1306D01*
X133Y-1309D01*
X125Y-1311D01*
X102D01*
X120D02*
X138Y-1339D01*
X168Y-1286D02*
Y-1339D01*
X150Y-1286D02*
X185D01*
X234D02*
Y-1339D01*
Y-1286D02*
X269Y-1339D01*
Y-1286D02*
Y-1339D01*
X299Y-1286D02*
X294Y-1289D01*
X289Y-1294D01*
X286Y-1299D01*
X284Y-1306D01*
Y-1319D01*
X286Y-1327D01*
X289Y-1332D01*
X294Y-1337D01*
X299Y-1339D01*
X309D01*
X314Y-1337D01*
X319Y-1332D01*
X322Y-1327D01*
X325Y-1319D01*
Y-1306D01*
X322Y-1299D01*
X319Y-1294D01*
X314Y-1289D01*
X309Y-1286D01*
X299D01*
X339Y-1334D02*
X337Y-1337D01*
X339Y-1339D01*
X342Y-1337D01*
X339Y-1334D01*
X356Y-1304D02*
X354Y-1306D01*
X356Y-1309D01*
X359Y-1306D01*
X356Y-1304D01*
Y-1334D02*
X354Y-1337D01*
X356Y-1339D01*
X359Y-1337D01*
X356Y-1334D01*
X7Y-811D02*
Y-864D01*
X-11Y-811D02*
X25D01*
X31D02*
Y-864D01*
X60Y-811D02*
Y-864D01*
X42Y-811D02*
X78D01*
X84D02*
Y-864D01*
X115D01*
X154Y-811D02*
X121D01*
Y-864D01*
X154D01*
X121Y-836D02*
X141D01*
X165Y-829D02*
X162Y-831D01*
X165Y-834D01*
X168Y-831D01*
X165Y-829D01*
Y-859D02*
X162Y-862D01*
X165Y-864D01*
X168Y-862D01*
X165Y-859D01*
X-898Y-1204D02*
Y-1257D01*
Y-1204D02*
X-880D01*
X-873Y-1206D01*
X-868Y-1211D01*
X-865Y-1216D01*
X-863Y-1224D01*
Y-1237D01*
X-865Y-1244D01*
X-868Y-1249D01*
X-873Y-1254D01*
X-880Y-1257D01*
X-898D01*
X-851Y-1221D02*
Y-1257D01*
Y-1237D02*
X-848Y-1229D01*
X-843Y-1224D01*
X-838Y-1221D01*
X-830D01*
X-795D02*
Y-1257D01*
Y-1229D02*
X-800Y-1224D01*
X-805Y-1221D01*
X-813D01*
X-818Y-1224D01*
X-823Y-1229D01*
X-826Y-1237D01*
Y-1242D01*
X-823Y-1249D01*
X-818Y-1254D01*
X-813Y-1257D01*
X-805D01*
X-800Y-1254D01*
X-795Y-1249D01*
X-781Y-1221D02*
X-771Y-1257D01*
X-761Y-1221D02*
X-771Y-1257D01*
X-761Y-1221D02*
X-750Y-1257D01*
X-740Y-1221D02*
X-750Y-1257D01*
X-728Y-1221D02*
Y-1257D01*
Y-1232D02*
X-720Y-1224D01*
X-715Y-1221D01*
X-708D01*
X-702Y-1224D01*
X-700Y-1232D01*
Y-1257D01*
X-644Y-1204D02*
Y-1257D01*
Y-1229D02*
X-639Y-1224D01*
X-634Y-1221D01*
X-626D01*
X-621Y-1224D01*
X-616Y-1229D01*
X-614Y-1237D01*
Y-1242D01*
X-616Y-1249D01*
X-621Y-1254D01*
X-626Y-1257D01*
X-634D01*
X-639Y-1254D01*
X-644Y-1249D01*
X-600Y-1221D02*
X-584Y-1257D01*
X-569Y-1221D02*
X-584Y-1257D01*
X-589Y-1267D01*
X-595Y-1272D01*
X-600Y-1275D01*
X-602D01*
X-558Y-1221D02*
X-560Y-1224D01*
X-558Y-1226D01*
X-555Y-1224D01*
X-558Y-1221D01*
Y-1252D02*
X-560Y-1254D01*
X-558Y-1257D01*
X-555Y-1254D01*
X-558Y-1252D01*
X-898Y-1564D02*
Y-1617D01*
Y-1564D02*
X-865D01*
X-898Y-1589D02*
X-878D01*
X-859Y-1564D02*
Y-1617D01*
X-848Y-1564D02*
Y-1617D01*
X-817D01*
X-779Y-1564D02*
X-812D01*
Y-1617D01*
X-779D01*
X-812Y-1589D02*
X-791D01*
X-728Y-1564D02*
Y-1617D01*
Y-1564D02*
X-692Y-1617D01*
Y-1564D02*
Y-1617D01*
X-637D02*
X-657Y-1564D01*
X-678Y-1617D01*
X-670Y-1599D02*
X-645D01*
X-625Y-1564D02*
Y-1617D01*
Y-1564D02*
X-604Y-1617D01*
X-584Y-1564D02*
X-604Y-1617D01*
X-584Y-1564D02*
Y-1617D01*
X-536Y-1564D02*
X-569D01*
Y-1617D01*
X-536D01*
X-569Y-1589D02*
X-548D01*
X-524Y-1581D02*
X-527Y-1584D01*
X-524Y-1586D01*
X-522Y-1584D01*
X-524Y-1581D01*
Y-1612D02*
X-527Y-1614D01*
X-524Y-1617D01*
X-522Y-1614D01*
X-524Y-1612D01*
X2800Y-1576D02*
X2797Y-1571D01*
X2792Y-1566D01*
X2787Y-1564D01*
X2777D01*
X2772Y-1566D01*
X2767Y-1571D01*
X2764Y-1576D01*
X2762Y-1584D01*
Y-1597D01*
X2764Y-1604D01*
X2767Y-1609D01*
X2772Y-1614D01*
X2777Y-1617D01*
X2787D01*
X2792Y-1614D01*
X2797Y-1609D01*
X2800Y-1604D01*
Y-1597D01*
X2787D02*
X2800D01*
X2845Y-1564D02*
X2812D01*
Y-1617D01*
X2845D01*
X2812Y-1589D02*
X2832D01*
X2854Y-1564D02*
Y-1617D01*
Y-1564D02*
X2877D01*
X2884Y-1566D01*
X2887Y-1569D01*
X2889Y-1574D01*
Y-1579D01*
X2887Y-1584D01*
X2884Y-1586D01*
X2877Y-1589D01*
X2854D01*
X2872D02*
X2889Y-1617D01*
X2901Y-1564D02*
Y-1617D01*
Y-1564D02*
X2924D01*
X2932Y-1566D01*
X2934Y-1569D01*
X2937Y-1574D01*
Y-1579D01*
X2934Y-1584D01*
X2932Y-1586D01*
X2924Y-1589D01*
X2901D02*
X2924D01*
X2932Y-1592D01*
X2934Y-1594D01*
X2937Y-1599D01*
Y-1607D01*
X2934Y-1612D01*
X2932Y-1614D01*
X2924Y-1617D01*
X2901D01*
X2982Y-1564D02*
X2949D01*
Y-1617D01*
X2982D01*
X2949Y-1589D02*
X2969D01*
X2991Y-1564D02*
Y-1617D01*
Y-1564D02*
X3014D01*
X3021Y-1566D01*
X3024Y-1569D01*
X3026Y-1574D01*
Y-1579D01*
X3024Y-1584D01*
X3021Y-1586D01*
X3014Y-1589D01*
X2991D01*
X3009D02*
X3026Y-1617D01*
X3041Y-1581D02*
X3038Y-1584D01*
X3041Y-1586D01*
X3043Y-1584D01*
X3041Y-1581D01*
Y-1612D02*
X3038Y-1614D01*
X3041Y-1617D01*
X3043Y-1614D01*
X3041Y-1612D01*
D50*
X2319Y-688D02*
X2281Y-588D01*
X2243Y-688D01*
X2257Y-654D02*
X2305D01*
X2399Y-635D02*
X2390Y-626D01*
X2380Y-621D01*
X2366D01*
X2357Y-626D01*
X2347Y-635D01*
X2342Y-650D01*
Y-659D01*
X2347Y-673D01*
X2357Y-683D01*
X2366Y-688D01*
X2380D01*
X2390Y-683D01*
X2399Y-673D01*
X2435Y-588D02*
Y-669D01*
X2440Y-683D01*
X2449Y-688D01*
X2459D01*
X2421Y-621D02*
X2454D01*
X2483Y-588D02*
X2488Y-592D01*
X2492Y-588D01*
X2488Y-583D01*
X2483Y-588D01*
X2488Y-621D02*
Y-688D01*
X2510Y-621D02*
X2539Y-688D01*
X2567Y-621D02*
X2539Y-688D01*
X2583Y-650D02*
X2640D01*
Y-640D01*
X2636Y-631D01*
X2631Y-626D01*
X2621Y-621D01*
X2607D01*
X2598Y-626D01*
X2588Y-635D01*
X2583Y-650D01*
Y-659D01*
X2588Y-673D01*
X2598Y-683D01*
X2607Y-688D01*
X2621D01*
X2631Y-683D01*
X2640Y-673D01*
X2740Y-588D02*
X2764Y-688D01*
X2788Y-588D02*
X2764Y-688D01*
X2788Y-588D02*
X2812Y-688D01*
X2836Y-588D02*
X2812Y-688D01*
X2913Y-621D02*
Y-688D01*
Y-635D02*
X2903Y-626D01*
X2894Y-621D01*
X2879D01*
X2870Y-626D01*
X2860Y-635D01*
X2856Y-650D01*
Y-659D01*
X2860Y-673D01*
X2870Y-683D01*
X2879Y-688D01*
X2894D01*
X2903Y-683D01*
X2913Y-673D01*
X2939Y-621D02*
X2968Y-688D01*
X2997Y-621D02*
X2968Y-688D01*
X3013Y-650D02*
X3070D01*
Y-640D01*
X3065Y-631D01*
X3060Y-626D01*
X3051Y-621D01*
X3036D01*
X3027Y-626D01*
X3017Y-635D01*
X3013Y-650D01*
Y-659D01*
X3017Y-673D01*
X3027Y-683D01*
X3036Y-688D01*
X3051D01*
X3060Y-683D01*
X3070Y-673D01*
D93*
X850Y350D02*
D03*
X1310Y95D02*
D03*
X1655Y820D02*
D03*
X2190Y1160D02*
D03*
X2270Y575D02*
D03*
Y470D02*
D03*
D94*
X700Y1850D02*
D03*
X700Y0D02*
D03*
X700Y1060D02*
D03*
Y260D02*
D03*
Y660D02*
D03*
Y1460D02*
D03*
D95*
X2098Y1304D02*
D03*
D96*
X350Y-10D02*
D03*
Y1860D02*
D03*
X0Y0D02*
D03*
X1750Y-10D02*
D03*
X0Y1850D02*
D03*
X1050Y1860D02*
D03*
X2270Y0D02*
D03*
X1400Y-10D02*
D03*
X2270Y260D02*
D03*
X1400Y1860D02*
D03*
X2270Y660D02*
D03*
Y1060D02*
D03*
X1750Y1860D02*
D03*
X2270Y1460D02*
D03*
X0Y260D02*
D03*
Y1460D02*
D03*
Y660D02*
D03*
X2270Y1850D02*
D03*
X1050Y-10D02*
D03*
X0Y1060D02*
D03*
D97*
X118Y645D02*
D03*
Y1245D02*
D03*
Y445D02*
D03*
Y545D02*
D03*
Y1045D02*
D03*
Y1145D02*
D03*
Y845D02*
D03*
Y945D02*
D03*
Y745D02*
D03*
D98*
Y1345D02*
D03*
D99*
X1672Y1680D02*
D03*
X1872D02*
D03*
Y1480D02*
D03*
X1672D02*
D03*
X1772Y1580D02*
D03*
X163Y1680D02*
D03*
X363D02*
D03*
Y1480D02*
D03*
X163D02*
D03*
X263Y1580D02*
D03*
D100*
X291Y1207D02*
D03*
X2036Y1022D02*
D03*
X2061Y831D02*
D03*
X1080Y140D02*
D03*
X905Y595D02*
D03*
X635Y1085D02*
D03*
X680Y1190D02*
D03*
X520Y1200D02*
D03*
X635Y1595D02*
D03*
X580Y1510D02*
D03*
X480Y1770D02*
D03*
M02*
