%FSLAX23Y23*%
%MOIN*%
G70*
G01*
G75*
G04 Layer_Physical_Order=2*
G04 Layer_Color=16711680*
%ADD10R,0.030X0.030*%
%ADD11R,0.030X0.030*%
%ADD12R,0.025X0.055*%
%ADD13R,0.025X0.095*%
%ADD14R,0.040X0.055*%
%ADD15R,0.055X0.040*%
%ADD16R,0.036X0.050*%
%ADD17R,0.036X0.036*%
%ADD18R,0.060X0.050*%
%ADD19R,0.150X0.050*%
%ADD20C,0.012*%
%ADD21R,0.024X0.024*%
%ADD22R,0.036X0.036*%
%ADD23R,0.050X0.036*%
%ADD24R,0.047X0.047*%
%ADD25R,0.047X0.047*%
%ADD26R,0.039X0.039*%
%ADD27R,0.039X0.020*%
%ADD28O,0.016X0.060*%
%ADD29R,0.020X0.050*%
%ADD30O,0.016X0.060*%
%ADD31O,0.024X0.080*%
%ADD32O,0.060X0.016*%
%ADD33R,0.059X0.031*%
%ADD34R,0.031X0.059*%
%ADD35R,0.090X0.024*%
%ADD36R,0.024X0.100*%
%ADD37R,0.070X0.024*%
%ADD38R,0.024X0.090*%
%ADD39R,0.055X0.025*%
%ADD40R,0.095X0.025*%
%ADD41R,0.020X0.030*%
%ADD42C,0.014*%
%ADD43C,0.012*%
%ADD44C,0.010*%
%ADD45C,0.030*%
%ADD46C,0.020*%
%ADD47C,0.008*%
%ADD48C,0.009*%
%ADD49C,0.005*%
%ADD50C,0.015*%
%ADD51C,0.045*%
%ADD52C,0.075*%
%ADD53C,0.140*%
%ADD54C,0.060*%
%ADD55C,0.062*%
%ADD56R,0.062X0.062*%
%ADD57C,0.110*%
%ADD58C,0.022*%
G36*
X2303Y585D02*
X2298Y584D01*
X2296Y590D01*
X2291Y596D01*
X2285Y601D01*
X2278Y604D01*
X2270Y605D01*
X2262Y604D01*
X2255Y601D01*
X2249Y596D01*
X2244Y590D01*
X2241Y583D01*
X2240Y575D01*
X2241Y567D01*
X2244Y560D01*
X2249Y554D01*
X2255Y549D01*
X2262Y546D01*
X2270Y545D01*
X2278Y546D01*
X2285Y549D01*
X2291Y554D01*
X2296Y560D01*
X2298Y566D01*
X2303Y565D01*
Y-43D01*
X-32D01*
Y1893D01*
X2303D01*
Y585D01*
D02*
G37*
%LPC*%
G36*
X1836Y1077D02*
X1829Y1076D01*
X1823Y1072D01*
X1819Y1066D01*
X1818Y1060D01*
X1802Y1044D01*
X1789D01*
X1783Y1047D01*
X1776Y1049D01*
X1769Y1047D01*
X1763Y1043D01*
X1759Y1037D01*
X1758Y1030D01*
X1759Y1023D01*
X1763Y1017D01*
X1769Y1014D01*
X1776Y1012D01*
X1783Y1014D01*
X1789Y1017D01*
X1807D01*
X1813Y1018D01*
X1817Y1021D01*
X1837Y1041D01*
X1843Y1042D01*
X1849Y1046D01*
X1853Y1052D01*
X1855Y1059D01*
X1853Y1066D01*
X1849Y1072D01*
X1843Y1076D01*
X1836Y1077D01*
D02*
G37*
G36*
X1655Y850D02*
X1647Y849D01*
X1640Y846D01*
X1634Y841D01*
X1629Y835D01*
X1626Y828D01*
X1625Y820D01*
X1626Y812D01*
X1628Y808D01*
X1628Y808D01*
X1628D01*
X1625Y806D01*
X1623Y807D01*
X1620Y811D01*
X1614Y815D01*
X1609Y816D01*
X1596Y829D01*
X1591Y832D01*
X1586Y833D01*
X1586Y833D01*
X1477D01*
X1477Y833D01*
X1472Y832D01*
X1467Y829D01*
X1467Y829D01*
X1435Y797D01*
X1411D01*
X1407Y800D01*
X1400Y802D01*
X1393Y800D01*
X1387Y796D01*
X1383Y790D01*
X1382Y783D01*
X1383Y776D01*
X1387Y770D01*
X1393Y766D01*
X1400Y765D01*
X1407Y766D01*
X1411Y769D01*
X1441D01*
X1441Y769D01*
X1446Y770D01*
X1451Y773D01*
X1483Y805D01*
X1580D01*
X1589Y796D01*
X1590Y791D01*
X1593Y787D01*
Y659D01*
X1571Y637D01*
X1425D01*
X1421Y640D01*
X1414Y642D01*
X1407Y640D01*
X1401Y636D01*
X1397Y630D01*
X1396Y623D01*
X1397Y616D01*
X1401Y610D01*
X1407Y606D01*
X1414Y605D01*
X1421Y606D01*
X1425Y609D01*
X1577D01*
X1577Y609D01*
X1582Y610D01*
X1587Y613D01*
X1617Y643D01*
X1617Y643D01*
X1620Y648D01*
D01*
D01*
D01*
Y648D01*
X1620D01*
D01*
D01*
D01*
D01*
X1620D01*
D01*
D01*
D01*
D01*
Y648D01*
X1620D01*
D01*
Y648D01*
D01*
D01*
D01*
D01*
D01*
D01*
D01*
D01*
D01*
D01*
D01*
D01*
Y648D01*
D01*
X1620D01*
D01*
D01*
D01*
D01*
X1620Y648D01*
X1621Y653D01*
X1621Y653D01*
Y787D01*
X1624Y791D01*
X1625Y798D01*
X1624Y805D01*
X1627Y806D01*
X1629Y805D01*
D01*
X1634Y799D01*
X1640Y794D01*
X1647Y791D01*
X1655Y790D01*
X1663Y791D01*
X1670Y794D01*
X1676Y799D01*
X1681Y805D01*
X1684Y812D01*
X1685Y820D01*
X1684Y828D01*
X1681Y835D01*
X1676Y841D01*
X1670Y846D01*
X1663Y849D01*
X1655Y850D01*
D02*
G37*
G36*
X291Y1225D02*
X284Y1224D01*
X278Y1220D01*
X274Y1214D01*
X273Y1207D01*
X274Y1200D01*
X278Y1194D01*
X284Y1190D01*
X290Y1189D01*
X292Y1188D01*
Y1188D01*
X292Y1188D01*
D01*
D01*
D01*
X292D01*
Y1188D01*
D01*
X292Y1188D01*
X292Y1188D01*
X297Y1187D01*
X297Y1187D01*
X379D01*
X441Y1125D01*
X446Y1122D01*
X451Y1121D01*
X451Y1121D01*
X579D01*
X617Y1083D01*
X618Y1078D01*
X622Y1072D01*
X628Y1068D01*
X635Y1067D01*
X642Y1068D01*
X648Y1072D01*
X652Y1078D01*
X653Y1085D01*
X652Y1092D01*
X648Y1098D01*
X642Y1102D01*
X637Y1103D01*
X595Y1145D01*
X590Y1148D01*
X585Y1149D01*
X585Y1149D01*
X457D01*
X395Y1211D01*
X390Y1214D01*
X385Y1215D01*
X385Y1215D01*
X307D01*
X304Y1220D01*
X298Y1224D01*
X291Y1225D01*
D02*
G37*
G36*
X192Y1368D02*
X185Y1366D01*
X179Y1362D01*
X175Y1356D01*
X174Y1349D01*
X175Y1342D01*
X178Y1338D01*
Y1311D01*
X157Y1289D01*
X154Y1285D01*
X153Y1279D01*
X153Y1279D01*
Y1071D01*
X148Y1069D01*
X145Y1072D01*
X137Y1078D01*
X128Y1082D01*
X118Y1084D01*
X108Y1082D01*
X99Y1078D01*
X91Y1072D01*
X85Y1064D01*
X81Y1055D01*
X80Y1045D01*
X81Y1035D01*
X85Y1026D01*
X91Y1018D01*
X99Y1012D01*
X108Y1008D01*
X118Y1007D01*
X128Y1008D01*
X137Y1012D01*
X145Y1018D01*
X148Y1021D01*
X153Y1020D01*
Y971D01*
X148Y969D01*
X145Y972D01*
X137Y978D01*
X128Y982D01*
X118Y984D01*
X108Y982D01*
X99Y978D01*
X91Y972D01*
X85Y964D01*
X81Y955D01*
X80Y945D01*
X81Y935D01*
X85Y926D01*
X91Y918D01*
X99Y912D01*
X108Y908D01*
X118Y907D01*
X128Y908D01*
X137Y912D01*
X145Y918D01*
X148Y921D01*
X153Y920D01*
Y871D01*
X148Y869D01*
X145Y872D01*
X137Y878D01*
X128Y882D01*
X118Y884D01*
X108Y882D01*
X99Y878D01*
X91Y872D01*
X85Y864D01*
X81Y855D01*
X80Y845D01*
X81Y835D01*
X85Y826D01*
X91Y818D01*
X99Y812D01*
X108Y808D01*
X118Y807D01*
X128Y808D01*
X137Y812D01*
X145Y818D01*
X148Y821D01*
X153Y820D01*
Y771D01*
X148Y769D01*
X145Y772D01*
X137Y778D01*
X128Y782D01*
X118Y784D01*
X108Y782D01*
X99Y778D01*
X91Y772D01*
X85Y764D01*
X81Y755D01*
X80Y745D01*
X81Y735D01*
X83Y730D01*
X57Y704D01*
X54Y699D01*
X53Y694D01*
X53Y694D01*
Y108D01*
X53Y108D01*
X54Y103D01*
X57Y98D01*
X105Y50D01*
X105Y50D01*
X110Y47D01*
Y47D01*
X110Y47D01*
D01*
D01*
D01*
X110D01*
Y47D01*
D01*
X110Y47D01*
X110Y47D01*
X115Y46D01*
X115Y46D01*
X657D01*
X657Y46D01*
X662Y47D01*
X667Y50D01*
X692Y75D01*
X694Y75D01*
X697Y73D01*
X697Y73D01*
D01*
X693Y67D01*
X692Y60D01*
X693Y53D01*
X697Y47D01*
X703Y43D01*
X710Y42D01*
X717Y43D01*
X721Y46D01*
X762D01*
X762Y46D01*
X767Y47D01*
X772Y50D01*
X787Y65D01*
X790Y70D01*
X791Y75D01*
X791Y75D01*
Y116D01*
X791Y116D01*
Y116D01*
X791D01*
X791Y116D01*
D01*
D01*
D01*
D01*
X791Y116D01*
D01*
X790Y122D01*
X789Y123D01*
X787Y126D01*
X787Y126D01*
X766Y147D01*
Y154D01*
X769Y158D01*
X770Y165D01*
X769Y172D01*
X765Y178D01*
X759Y182D01*
X752Y184D01*
X745Y182D01*
X741Y179D01*
X736Y182D01*
Y185D01*
X757Y206D01*
X762Y207D01*
X768Y211D01*
X772Y217D01*
X773Y224D01*
X772Y231D01*
X768Y237D01*
X762Y241D01*
X755Y243D01*
X748Y241D01*
X742Y237D01*
X738Y231D01*
X737Y226D01*
X712Y201D01*
X709Y197D01*
X708Y191D01*
X708Y191D01*
Y172D01*
X639Y103D01*
X133D01*
X108Y128D01*
Y337D01*
X179Y408D01*
X179Y408D01*
X181Y411D01*
X182Y413D01*
X183Y418D01*
X183Y418D01*
Y446D01*
X276Y539D01*
X385D01*
X385Y539D01*
X390Y540D01*
X395Y543D01*
X406Y554D01*
X406Y554D01*
X409Y559D01*
X410Y564D01*
Y593D01*
X410Y593D01*
X409Y599D01*
X406Y603D01*
X406Y603D01*
X393Y616D01*
X388Y619D01*
X383Y621D01*
X383Y621D01*
X295D01*
X278Y637D01*
Y932D01*
X281Y936D01*
X282Y943D01*
X281Y950D01*
X277Y956D01*
X271Y960D01*
X264Y962D01*
X257Y960D01*
X256Y960D01*
X252Y962D01*
Y994D01*
X284Y1025D01*
X288Y1026D01*
X294Y1030D01*
X298Y1036D01*
X300Y1043D01*
X298Y1050D01*
X294Y1056D01*
X288Y1060D01*
X281Y1062D01*
X274Y1060D01*
X268Y1056D01*
X264Y1050D01*
X263Y1045D01*
X233Y1015D01*
X228Y1017D01*
Y1178D01*
X240Y1190D01*
X245Y1191D01*
X251Y1195D01*
X255Y1201D01*
X256Y1208D01*
X255Y1215D01*
X251Y1221D01*
X245Y1225D01*
X238Y1226D01*
X231Y1225D01*
X225Y1221D01*
X221Y1215D01*
X220Y1210D01*
X209Y1200D01*
X205Y1202D01*
Y1214D01*
X212Y1221D01*
X217Y1222D01*
X223Y1226D01*
X227Y1232D01*
X229Y1239D01*
X227Y1246D01*
X223Y1252D01*
X217Y1256D01*
X210Y1258D01*
X203Y1256D01*
X197Y1252D01*
X193Y1246D01*
X192Y1242D01*
X186Y1235D01*
X181Y1237D01*
Y1273D01*
X202Y1295D01*
X202Y1295D01*
X204Y1297D01*
X205Y1299D01*
X207Y1305D01*
Y1338D01*
X209Y1342D01*
X211Y1349D01*
X209Y1356D01*
X205Y1362D01*
X199Y1366D01*
X192Y1368D01*
D02*
G37*
G36*
X2129Y1076D02*
X2122Y1075D01*
X2118Y1072D01*
X2023D01*
X2023Y1072D01*
X2018Y1071D01*
X2013Y1068D01*
X1991Y1046D01*
X1988Y1041D01*
X1987Y1036D01*
X1987Y1036D01*
Y949D01*
X1884D01*
X1880Y951D01*
X1873Y953D01*
X1866Y951D01*
X1860Y948D01*
X1856Y942D01*
X1855Y935D01*
X1856Y928D01*
X1860Y922D01*
X1866Y918D01*
X1873Y916D01*
X1880Y918D01*
X1884Y920D01*
X1987D01*
Y914D01*
X1987Y914D01*
X1988Y908D01*
X1991Y904D01*
X2012Y882D01*
X2013Y877D01*
X2017Y872D01*
X2023Y868D01*
X2030Y866D01*
X2037Y868D01*
X2042Y871D01*
X2047Y869D01*
Y842D01*
X2044Y838D01*
X2043Y831D01*
X2044Y824D01*
X2048Y818D01*
X2054Y814D01*
X2061Y813D01*
X2068Y814D01*
X2074Y818D01*
X2078Y824D01*
X2079Y831D01*
X2078Y838D01*
X2075Y842D01*
Y997D01*
X2075Y997D01*
Y997D01*
X2075D01*
X2075Y997D01*
D01*
D01*
D01*
D01*
X2075Y997D01*
D01*
X2074Y1002D01*
X2073Y1004D01*
X2071Y1007D01*
X2071Y1007D01*
X2054Y1024D01*
X2053Y1029D01*
X2049Y1035D01*
X2043Y1039D01*
X2036Y1040D01*
X2039Y1044D01*
X2118D01*
X2122Y1041D01*
X2129Y1040D01*
X2136Y1041D01*
X2142Y1045D01*
X2146Y1051D01*
X2147Y1058D01*
X2146Y1065D01*
X2142Y1071D01*
X2136Y1075D01*
X2129Y1076D01*
D02*
G37*
G36*
X828Y760D02*
X821Y758D01*
X815Y754D01*
X811Y748D01*
X809Y741D01*
X811Y734D01*
X814Y730D01*
Y372D01*
X814Y372D01*
X815Y367D01*
X818Y362D01*
X822Y358D01*
X821Y358D01*
X820Y350D01*
X821Y342D01*
X824Y335D01*
X829Y329D01*
X835Y324D01*
X842Y321D01*
X850Y320D01*
X858Y321D01*
X865Y324D01*
X871Y329D01*
X876Y335D01*
X879Y342D01*
X880Y350D01*
X879Y358D01*
X876Y365D01*
X871Y371D01*
X865Y376D01*
X858Y379D01*
X850Y380D01*
X846Y379D01*
X842Y383D01*
Y730D01*
X845Y734D01*
X846Y741D01*
X845Y748D01*
X841Y754D01*
X835Y758D01*
X828Y760D01*
D02*
G37*
G36*
X1310Y125D02*
X1302Y124D01*
X1295Y121D01*
X1289Y116D01*
X1284Y110D01*
X1281Y103D01*
X1280Y95D01*
X1281Y87D01*
X1284Y80D01*
X1289Y74D01*
X1295Y69D01*
X1302Y66D01*
X1310Y65D01*
X1318Y66D01*
X1325Y69D01*
X1331Y74D01*
X1336Y80D01*
X1339Y87D01*
X1340Y95D01*
X1339Y103D01*
X1336Y110D01*
X1331Y116D01*
X1325Y121D01*
X1318Y124D01*
X1310Y125D01*
D02*
G37*
G36*
X905Y613D02*
X898Y612D01*
X892Y608D01*
X888Y602D01*
X887Y595D01*
X888Y588D01*
X892Y582D01*
X898Y578D01*
X903Y577D01*
X903Y577D01*
Y56D01*
X900Y52D01*
X899Y45D01*
X900Y38D01*
X904Y32D01*
X910Y28D01*
X917Y27D01*
X924Y28D01*
X928Y31D01*
X1139D01*
X1143Y28D01*
X1150Y27D01*
X1157Y28D01*
X1161Y31D01*
X1464D01*
X1466Y27D01*
X1472Y23D01*
X1479Y22D01*
X1486Y23D01*
X1492Y27D01*
X1496Y33D01*
X1497Y40D01*
X1496Y47D01*
X1492Y53D01*
X1486Y57D01*
X1479Y58D01*
X1479Y58D01*
X1474Y59D01*
X1474Y59D01*
X1161D01*
X1157Y62D01*
X1150Y63D01*
X1143Y62D01*
X1139Y59D01*
X931D01*
Y583D01*
X931Y583D01*
X930Y588D01*
X930D01*
D01*
D01*
X930Y588D01*
D01*
D01*
D01*
D01*
X930Y588D01*
D01*
D01*
Y588D01*
D01*
X930D01*
D01*
D01*
X930D01*
D01*
D01*
X927Y593D01*
X927Y593D01*
X923Y597D01*
X922Y602D01*
X918Y608D01*
X912Y612D01*
X905Y613D01*
D02*
G37*
G36*
X828Y1070D02*
X821Y1068D01*
X815Y1064D01*
X811Y1058D01*
X810Y1051D01*
X811Y1044D01*
X814Y1040D01*
Y973D01*
X814Y973D01*
X815Y968D01*
X818Y963D01*
X855Y926D01*
Y805D01*
X852Y801D01*
X851Y794D01*
X852Y787D01*
X856Y781D01*
X862Y777D01*
X869Y776D01*
X876Y777D01*
X882Y781D01*
X886Y787D01*
X887Y794D01*
X886Y801D01*
X883Y805D01*
Y932D01*
X883Y932D01*
X882Y938D01*
X879Y942D01*
X879Y942D01*
X842Y979D01*
Y1040D01*
X845Y1044D01*
X846Y1051D01*
X845Y1058D01*
X841Y1064D01*
X835Y1068D01*
X828Y1070D01*
D02*
G37*
G36*
X1917Y682D02*
X1910Y680D01*
X1906Y677D01*
X1882D01*
X1882Y677D01*
X1877Y676D01*
X1872Y673D01*
X1872Y673D01*
X1837Y638D01*
X1834Y634D01*
X1833Y628D01*
X1833Y628D01*
Y540D01*
X1830Y536D01*
X1829Y529D01*
X1830Y522D01*
X1834Y516D01*
X1840Y512D01*
X1847Y511D01*
X1854Y512D01*
X1860Y516D01*
X1864Y522D01*
X1865Y529D01*
X1864Y536D01*
X1861Y540D01*
Y622D01*
X1888Y649D01*
X1906D01*
X1910Y646D01*
X1917Y645D01*
X1924Y646D01*
X1930Y650D01*
X1934Y656D01*
X1935Y663D01*
X1934Y670D01*
X1930Y676D01*
X1924Y680D01*
X1917Y682D01*
D02*
G37*
G36*
X1772Y1642D02*
X1760Y1641D01*
X1748Y1638D01*
X1738Y1632D01*
X1728Y1624D01*
X1721Y1615D01*
X1715Y1604D01*
X1711Y1592D01*
X1710Y1580D01*
X1711Y1568D01*
X1715Y1556D01*
X1721Y1546D01*
X1728Y1536D01*
X1738Y1528D01*
X1748Y1523D01*
X1760Y1519D01*
X1772Y1518D01*
X1784Y1519D01*
X1796Y1523D01*
X1807Y1528D01*
X1816Y1536D01*
X1824Y1546D01*
X1830Y1556D01*
X1833Y1568D01*
X1835Y1580D01*
X1833Y1592D01*
X1830Y1604D01*
X1824Y1615D01*
X1816Y1624D01*
X1807Y1632D01*
X1796Y1638D01*
X1784Y1641D01*
X1772Y1642D01*
D02*
G37*
G36*
X263D02*
X251Y1641D01*
X239Y1638D01*
X229Y1632D01*
X219Y1624D01*
X212Y1615D01*
X206Y1604D01*
X202Y1592D01*
X201Y1580D01*
X202Y1568D01*
X206Y1556D01*
X212Y1546D01*
X219Y1536D01*
X229Y1528D01*
X239Y1523D01*
X251Y1519D01*
X263Y1518D01*
X275Y1519D01*
X287Y1523D01*
X298Y1528D01*
X307Y1536D01*
X315Y1546D01*
X321Y1556D01*
X324Y1568D01*
X326Y1580D01*
X324Y1592D01*
X321Y1604D01*
X315Y1615D01*
X307Y1624D01*
X298Y1632D01*
X287Y1638D01*
X275Y1641D01*
X263Y1642D01*
D02*
G37*
G36*
X1068Y1532D02*
X1061Y1530D01*
X1057Y1527D01*
X852D01*
X848Y1530D01*
X841Y1532D01*
X834Y1530D01*
X828Y1526D01*
X824Y1520D01*
X823Y1513D01*
X824Y1506D01*
X828Y1500D01*
X834Y1496D01*
X841Y1495D01*
X848Y1496D01*
X852Y1499D01*
X1057D01*
X1061Y1496D01*
X1068Y1495D01*
X1075Y1496D01*
X1081Y1500D01*
X1085Y1506D01*
X1086Y1513D01*
X1085Y1520D01*
X1081Y1526D01*
X1075Y1530D01*
X1068Y1532D01*
D02*
G37*
G36*
X480Y1788D02*
X473Y1787D01*
X467Y1783D01*
X463Y1777D01*
X462Y1770D01*
X463Y1763D01*
X467Y1757D01*
X473Y1753D01*
X480Y1752D01*
X487Y1753D01*
X493Y1757D01*
X497Y1763D01*
X498Y1770D01*
X497Y1777D01*
X493Y1783D01*
X487Y1787D01*
X480Y1788D01*
D02*
G37*
G36*
X1046Y1794D02*
X737D01*
Y1723D01*
X734D01*
Y1643D01*
X1002D01*
Y1714D01*
X1046D01*
Y1794D01*
D02*
G37*
G36*
X580Y1528D02*
X573Y1527D01*
X567Y1523D01*
X563Y1517D01*
X562Y1510D01*
X563Y1503D01*
X567Y1497D01*
X573Y1493D01*
X580Y1492D01*
X587Y1493D01*
X593Y1497D01*
X597Y1503D01*
X598Y1510D01*
X597Y1517D01*
X593Y1523D01*
X587Y1527D01*
X580Y1528D01*
D02*
G37*
G36*
X520Y1218D02*
X513Y1217D01*
X507Y1213D01*
X503Y1207D01*
X502Y1200D01*
X503Y1193D01*
X507Y1187D01*
X513Y1183D01*
X518Y1182D01*
X520Y1180D01*
X520Y1180D01*
X523Y1178D01*
X525Y1177D01*
X530Y1176D01*
X669D01*
X673Y1173D01*
X680Y1172D01*
X687Y1173D01*
X693Y1177D01*
X697Y1183D01*
X698Y1190D01*
X697Y1197D01*
X693Y1203D01*
X687Y1207D01*
X680Y1208D01*
X673Y1207D01*
X669Y1204D01*
X538D01*
X537Y1207D01*
X533Y1213D01*
X527Y1217D01*
X520Y1218D01*
D02*
G37*
G36*
X1040Y1113D02*
X1033Y1111D01*
X1029Y1108D01*
X987D01*
X983Y1111D01*
X976Y1113D01*
X969Y1111D01*
X963Y1107D01*
X959Y1101D01*
X958Y1094D01*
X959Y1087D01*
X963Y1081D01*
X969Y1077D01*
X976Y1076D01*
X983Y1077D01*
X987Y1080D01*
X1029D01*
X1033Y1077D01*
X1040Y1076D01*
X1047Y1077D01*
X1053Y1081D01*
X1057Y1087D01*
X1058Y1094D01*
X1057Y1101D01*
X1053Y1107D01*
X1047Y1111D01*
X1040Y1113D01*
D02*
G37*
G36*
X1563Y1321D02*
X1556Y1319D01*
X1550Y1315D01*
X1546Y1309D01*
X1545Y1303D01*
X1529Y1286D01*
X1502D01*
X1496Y1290D01*
X1489Y1292D01*
X1482Y1290D01*
X1476Y1286D01*
X1472Y1280D01*
X1471Y1273D01*
X1472Y1266D01*
X1476Y1260D01*
X1482Y1256D01*
X1489Y1255D01*
X1496Y1256D01*
X1502Y1260D01*
X1534D01*
X1539Y1261D01*
X1543Y1264D01*
Y1264D01*
X1543D01*
D01*
D01*
D01*
D01*
D01*
D01*
X1543D01*
D01*
X1543D01*
Y1264D01*
D01*
D01*
D01*
D01*
Y1264D01*
D01*
D01*
D01*
D01*
D01*
D01*
Y1264D01*
D01*
D01*
X1543D01*
D01*
D01*
D01*
X1563Y1284D01*
X1570Y1285D01*
X1576Y1289D01*
X1580Y1295D01*
X1581Y1302D01*
X1580Y1309D01*
X1576Y1315D01*
X1570Y1319D01*
X1563Y1321D01*
D02*
G37*
G36*
X1583Y1420D02*
X1576Y1418D01*
X1570Y1414D01*
X1172D01*
X1167Y1413D01*
X1163Y1411D01*
X1144Y1391D01*
X922D01*
X916Y1395D01*
X909Y1397D01*
X902Y1395D01*
X896Y1391D01*
X892Y1385D01*
X891Y1378D01*
X892Y1371D01*
X896Y1365D01*
X902Y1361D01*
X909Y1360D01*
X916Y1361D01*
X922Y1365D01*
X1149D01*
X1154Y1366D01*
X1158Y1369D01*
Y1369D01*
X1158D01*
D01*
D01*
D01*
D01*
D01*
D01*
X1158D01*
D01*
X1158D01*
Y1369D01*
D01*
D01*
D01*
D01*
Y1369D01*
D01*
D01*
D01*
D01*
D01*
D01*
Y1369D01*
D01*
D01*
X1158D01*
D01*
D01*
D01*
X1177Y1388D01*
X1570D01*
X1576Y1384D01*
X1583Y1383D01*
X1590Y1384D01*
X1596Y1388D01*
X1600Y1394D01*
X1601Y1401D01*
X1600Y1408D01*
X1596Y1414D01*
X1590Y1418D01*
X1583Y1420D01*
D02*
G37*
G36*
X156Y1383D02*
X80D01*
Y1307D01*
X156D01*
Y1383D01*
D02*
G37*
%LPD*%
D42*
X917Y45D02*
X917Y45D01*
X917Y45D02*
Y583D01*
X1474Y45D02*
X1479Y40D01*
X2023Y1058D02*
X2129D01*
X2001Y1036D02*
X2023Y1058D01*
X2001Y914D02*
X2030Y885D01*
X291Y1207D02*
X297Y1201D01*
X94Y343D02*
X169Y418D01*
X94Y122D02*
Y343D01*
X67Y694D02*
X118Y745D01*
X169Y418D02*
Y452D01*
X270Y553D01*
X385D01*
X396Y564D01*
Y593D01*
X383Y606D02*
X396Y593D01*
X289Y606D02*
X383D01*
X264Y631D02*
X289Y606D01*
X264Y631D02*
Y943D01*
X214Y541D02*
Y1184D01*
X238Y1208D01*
X190Y617D02*
Y1220D01*
X210Y1239D01*
X192Y1305D02*
Y1349D01*
X167Y694D02*
Y1279D01*
X192Y1305D01*
X1414Y623D02*
X1577D01*
X1607Y653D01*
Y798D01*
X1847Y529D02*
Y628D01*
X1882Y663D01*
X1917D01*
X118Y645D02*
X167Y694D01*
X118Y545D02*
X190Y617D01*
X118Y445D02*
X214Y541D01*
X238Y1000D02*
X281Y1043D01*
X238Y600D02*
X258Y580D01*
X369D01*
X238Y600D02*
Y1000D01*
X976Y1094D02*
X1040D01*
X1400Y783D02*
X1441D01*
X1477Y819D01*
X1586D01*
X1607Y798D01*
X94Y122D02*
X127Y89D01*
X67Y108D02*
X115Y60D01*
X67Y108D02*
Y694D01*
X127Y89D02*
X645D01*
X702Y105D02*
X750D01*
X657Y60D02*
X702Y105D01*
X115Y60D02*
X657D01*
X710D02*
X762D01*
X777Y75D01*
Y116D01*
X752Y141D02*
X777Y116D01*
X752Y141D02*
Y165D01*
X722Y191D02*
X755Y224D01*
X722Y166D02*
Y191D01*
X645Y89D02*
X722Y166D01*
X828Y973D02*
Y1051D01*
Y973D02*
X869Y932D01*
Y794D02*
Y932D01*
X841Y1513D02*
X1068D01*
X2036Y1022D02*
X2061Y997D01*
Y831D02*
Y997D01*
X828Y372D02*
X850Y350D01*
X828Y372D02*
Y741D01*
X905Y595D02*
X917Y583D01*
X451Y1135D02*
X585D01*
X635Y1085D01*
X385Y1201D02*
X451Y1135D01*
X297Y1201D02*
X385D01*
X530Y1190D02*
X680D01*
X520Y1200D02*
X530Y1190D01*
X917Y45D02*
X1150D01*
X1474D01*
X1873Y935D02*
X2001D01*
Y914D02*
Y935D01*
Y1036D01*
D43*
X1807Y1030D02*
X1836Y1059D01*
X1776Y1030D02*
X1807D01*
X1489Y1273D02*
X1534D01*
X1563Y1302D01*
X1172Y1401D02*
X1583D01*
X1149Y1378D02*
X1172Y1401D01*
X909Y1378D02*
X1149D01*
D44*
X1000Y-275D02*
Y-375D01*
Y-275D02*
X957D01*
X943Y-280D01*
X938Y-285D01*
X933Y-294D01*
Y-304D01*
X938Y-313D01*
X943Y-318D01*
X957Y-323D01*
X1000D02*
X957D01*
X943Y-327D01*
X938Y-332D01*
X933Y-342D01*
Y-356D01*
X938Y-365D01*
X943Y-370D01*
X957Y-375D01*
X1000D01*
X887Y-308D02*
X897Y-313D01*
X906Y-323D01*
X911Y-337D01*
Y-346D01*
X906Y-361D01*
X897Y-370D01*
X887Y-375D01*
X873D01*
X863Y-370D01*
X854Y-361D01*
X849Y-346D01*
Y-337D01*
X854Y-323D01*
X863Y-313D01*
X873Y-308D01*
X887D01*
X813Y-275D02*
Y-356D01*
X808Y-370D01*
X799Y-375D01*
X789D01*
X827Y-308D02*
X794D01*
X761Y-275D02*
Y-356D01*
X756Y-370D01*
X746Y-375D01*
X737D01*
X775Y-308D02*
X741D01*
X699D02*
X708Y-313D01*
X718Y-323D01*
X722Y-337D01*
Y-346D01*
X718Y-361D01*
X708Y-370D01*
X699Y-375D01*
X684D01*
X675Y-370D01*
X665Y-361D01*
X661Y-346D01*
Y-337D01*
X665Y-323D01*
X675Y-313D01*
X684Y-308D01*
X699D01*
X639D02*
Y-375D01*
Y-327D02*
X624Y-313D01*
X615Y-308D01*
X601D01*
X591Y-313D01*
X586Y-327D01*
Y-375D01*
Y-327D02*
X572Y-313D01*
X562Y-308D01*
X548D01*
X539Y-313D01*
X534Y-327D01*
Y-375D01*
X502Y-275D02*
Y-375D01*
X445D01*
X377Y-308D02*
Y-375D01*
Y-323D02*
X387Y-313D01*
X396Y-308D01*
X411D01*
X420Y-313D01*
X430Y-323D01*
X434Y-337D01*
Y-346D01*
X430Y-361D01*
X420Y-370D01*
X411Y-375D01*
X396D01*
X387Y-370D01*
X377Y-361D01*
X346Y-308D02*
X317Y-375D01*
X289Y-308D02*
X317Y-375D01*
X327Y-394D01*
X336Y-404D01*
X346Y-408D01*
X351D01*
X272Y-337D02*
X215D01*
Y-327D01*
X220Y-318D01*
X224Y-313D01*
X234Y-308D01*
X248D01*
X258Y-313D01*
X267Y-323D01*
X272Y-337D01*
Y-346D01*
X267Y-361D01*
X258Y-370D01*
X248Y-375D01*
X234D01*
X224Y-370D01*
X215Y-361D01*
X194Y-308D02*
Y-375D01*
Y-337D02*
X189Y-323D01*
X179Y-313D01*
X170Y-308D01*
X155D01*
X2163Y1304D02*
G03*
X2163Y1304I-65J0D01*
G01*
X-50Y1910D02*
X2320D01*
Y-60D02*
Y1910D01*
X-50Y-60D02*
X2320D01*
X-50Y-60D02*
Y1910D01*
X3352Y-1301D02*
G03*
X3303Y-1252I-49J0D01*
G01*
X2202D02*
G03*
X2152Y-1302I0J-50D01*
G01*
X3302Y-1202D02*
G03*
X3352Y-1152I0J50D01*
G01*
X2152D02*
G03*
X2202Y-1202I50J0D01*
G01*
X-898Y-477D02*
G03*
X-998Y-577I0J-100D01*
G01*
Y-1676D02*
G03*
X-899Y-1777I101J0D01*
G01*
X3302Y-1777D02*
G03*
X3402Y-1677I0J100D01*
G01*
Y-577D02*
G03*
X3302Y-477I-100J0D01*
G01*
X3352Y-576D02*
G03*
X3301Y-527I-49J0D01*
G01*
X3302Y-1477D02*
G03*
X3352Y-1427I0J50D01*
G01*
X3352Y-1576D02*
G03*
X3302Y-1527I-50J-1D01*
G01*
Y-1727D02*
G03*
X3352Y-1677I0J50D01*
G01*
X2052Y-1477D02*
G03*
X2102Y-1427I0J50D01*
G01*
X2152Y-1428D02*
G03*
X2202Y-1477I49J0D01*
G01*
X2102Y-1301D02*
G03*
X2053Y-1252I-49J0D01*
G01*
X-948Y-1677D02*
G03*
X-899Y-1727I50J0D01*
G01*
X2053Y-1202D02*
G03*
X2102Y-1152I-1J50D01*
G01*
X-898Y-1527D02*
G03*
X-948Y-1577I0J-50D01*
G01*
X2102Y-827D02*
G03*
X2052Y-777I-50J0D01*
G01*
Y-727D02*
G03*
X2102Y-677I0J50D01*
G01*
X2202Y-527D02*
G03*
X2152Y-577I0J-50D01*
G01*
X2102D02*
G03*
X2052Y-527I-50J0D01*
G01*
X-898D02*
G03*
X-948Y-577I0J-50D01*
G01*
Y-677D02*
G03*
X-898Y-727I50J0D01*
G01*
Y-777D02*
G03*
X-948Y-827I0J-50D01*
G01*
Y-1052D02*
G03*
X-898Y-1102I50J0D01*
G01*
Y-1152D02*
G03*
X-948Y-1202I0J-50D01*
G01*
Y-1427D02*
G03*
X-899Y-1477I50J0D01*
G01*
X2Y-777D02*
G03*
X-48Y-827I0J-50D01*
G01*
X2Y-1252D02*
G03*
X-48Y-1302I0J-50D01*
G01*
X1750Y-1252D02*
G03*
X1702Y-1302I0J-48D01*
G01*
X1702Y-1426D02*
G03*
X1752Y-1477I51J0D01*
G01*
X1603Y-1477D02*
G03*
X1652Y-1427I0J49D01*
G01*
X1652Y-1301D02*
G03*
X1603Y-1252I-49J0D01*
G01*
X-147Y-1477D02*
G03*
X-98Y-1428I0J49D01*
G01*
X-48D02*
G03*
X1Y-1477I49J0D01*
G01*
X-48Y-1153D02*
G03*
X1Y-1202I49J0D01*
G01*
X-98Y-1201D02*
G03*
X-149Y-1152I-49J0D01*
G01*
X-146Y-1102D02*
G03*
X-98Y-1054I0J48D01*
G01*
Y-826D02*
G03*
X-147Y-777I-49J0D01*
G01*
X2752Y-1527D02*
G03*
X2702Y-1577I0J-50D01*
G01*
Y-1678D02*
G03*
X2752Y-1727I49J0D01*
G01*
X2603Y-1727D02*
G03*
X2652Y-1677I1J48D01*
G01*
X2652Y-1577D02*
G03*
X2602Y-1527I-50J0D01*
G01*
X877Y-1677D02*
G03*
X926Y-1727I50J0D01*
G01*
X927Y-1527D02*
G03*
X877Y-1577I0J-50D01*
G01*
X778Y-1727D02*
G03*
X827Y-1677I1J48D01*
G01*
X827Y-1577D02*
G03*
X777Y-1527I-50J0D01*
G01*
X3352Y-1427D02*
Y-1301D01*
X2152Y-1427D02*
Y-1302D01*
X3352Y-1152D02*
Y-577D01*
X2152Y-1152D02*
Y-577D01*
X-998Y-1677D02*
Y-577D01*
X-948Y-1677D02*
Y-1577D01*
X3352Y-1677D02*
Y-1577D01*
X2102Y-1427D02*
Y-1302D01*
X1702Y-1427D02*
Y-1302D01*
X-48Y-1427D02*
Y-1302D01*
X1652Y-1427D02*
Y-1302D01*
X-48Y-1152D02*
Y-827D01*
X2102Y-1152D02*
Y-827D01*
Y-677D02*
Y-577D01*
X-948Y-677D02*
Y-577D01*
X-98Y-1052D02*
Y-827D01*
X-948Y-1052D02*
Y-827D01*
X-98Y-1427D02*
Y-1202D01*
X-948Y-1427D02*
Y-1202D01*
X3402Y-1677D02*
Y-577D01*
X2702Y-1677D02*
Y-1577D01*
X2652Y-1677D02*
Y-1577D01*
X877Y-1677D02*
Y-1577D01*
X827Y-1677D02*
Y-1577D01*
X2202Y-1252D02*
X3302D01*
X2202Y-1202D02*
X3302D01*
X2D02*
X2052D01*
X2202Y-527D02*
X3302D01*
X2202Y-1477D02*
X3302D01*
X1752Y-1252D02*
X2052D01*
X1752Y-1477D02*
X2052D01*
X2D02*
X1602D01*
X2Y-1252D02*
X1602D01*
X2Y-777D02*
X2052D01*
X-898Y-727D02*
X2052D01*
X-898Y-777D02*
X-148D01*
X-898Y-1102D02*
X-148D01*
X-898Y-1152D02*
X-148D01*
X-898Y-1477D02*
X-148D01*
X-898Y-477D02*
X3302D01*
X-898Y-1777D02*
X3302D01*
X-898Y-527D02*
X2052D01*
X2752Y-1527D02*
X3302D01*
X2752Y-1727D02*
X3302D01*
X927Y-1527D02*
X2602D01*
X-898D02*
X777D01*
X-898Y-1727D02*
X777D01*
X927D02*
X2602D01*
X2353Y-929D02*
Y-993D01*
Y-929D02*
X2380D01*
X2389Y-932D01*
X2392Y-935D01*
X2396Y-941D01*
Y-947D01*
X2392Y-953D01*
X2389Y-956D01*
X2380Y-959D01*
X2353D02*
X2380D01*
X2389Y-962D01*
X2392Y-965D01*
X2396Y-971D01*
Y-981D01*
X2392Y-987D01*
X2389Y-990D01*
X2380Y-993D01*
X2353D01*
X2425Y-950D02*
X2419Y-953D01*
X2413Y-959D01*
X2410Y-968D01*
Y-974D01*
X2413Y-984D01*
X2419Y-990D01*
X2425Y-993D01*
X2434D01*
X2440Y-990D01*
X2446Y-984D01*
X2449Y-974D01*
Y-968D01*
X2446Y-959D01*
X2440Y-953D01*
X2434Y-950D01*
X2425D01*
X2500Y-959D02*
X2494Y-953D01*
X2488Y-950D01*
X2479D01*
X2473Y-953D01*
X2467Y-959D01*
X2463Y-968D01*
Y-974D01*
X2467Y-984D01*
X2473Y-990D01*
X2479Y-993D01*
X2488D01*
X2494Y-990D01*
X2500Y-984D01*
X2550Y-950D02*
Y-993D01*
Y-959D02*
X2544Y-953D01*
X2538Y-950D01*
X2529D01*
X2523Y-953D01*
X2517Y-959D01*
X2514Y-968D01*
Y-974D01*
X2517Y-984D01*
X2523Y-990D01*
X2529Y-993D01*
X2538D01*
X2544Y-990D01*
X2550Y-984D01*
X2618Y-929D02*
Y-993D01*
Y-929D02*
X2645D01*
X2654Y-932D01*
X2657Y-935D01*
X2660Y-941D01*
Y-947D01*
X2657Y-953D01*
X2654Y-956D01*
X2645Y-959D01*
X2618D01*
X2639D02*
X2660Y-993D01*
X2711Y-950D02*
Y-993D01*
Y-959D02*
X2705Y-953D01*
X2699Y-950D01*
X2690D01*
X2684Y-953D01*
X2678Y-959D01*
X2675Y-968D01*
Y-974D01*
X2678Y-984D01*
X2684Y-990D01*
X2690Y-993D01*
X2699D01*
X2705Y-990D01*
X2711Y-984D01*
X2737Y-929D02*
Y-981D01*
X2740Y-990D01*
X2747Y-993D01*
X2753D01*
X2728Y-950D02*
X2750D01*
X2777D02*
X2771Y-953D01*
X2765Y-959D01*
X2762Y-968D01*
Y-974D01*
X2765Y-984D01*
X2771Y-990D01*
X2777Y-993D01*
X2786D01*
X2792Y-990D01*
X2798Y-984D01*
X2801Y-974D01*
Y-968D01*
X2798Y-959D01*
X2792Y-953D01*
X2786Y-950D01*
X2777D01*
X2815D02*
Y-993D01*
Y-962D02*
X2825Y-953D01*
X2831Y-950D01*
X2840D01*
X2846Y-953D01*
X2849Y-962D01*
Y-993D01*
X2916Y-929D02*
Y-993D01*
Y-929D02*
X2956D01*
X2916Y-959D02*
X2940D01*
X2963Y-929D02*
Y-993D01*
X2999D01*
X3009Y-987D02*
X3006Y-990D01*
X3009Y-993D01*
X3013Y-990D01*
X3009Y-987D01*
X2232Y-750D02*
X2229Y-759D01*
X2223Y-765D01*
X2214Y-768D01*
X2211D01*
X2202Y-765D01*
X2196Y-759D01*
X2193Y-750D01*
Y-747D01*
X2196Y-738D01*
X2202Y-732D01*
X2211Y-729D01*
X2214D01*
X2223Y-732D01*
X2229Y-738D01*
X2232Y-750D01*
Y-765D01*
X2229Y-781D01*
X2223Y-790D01*
X2214Y-793D01*
X2208D01*
X2199Y-790D01*
X2196Y-784D01*
X2268Y-729D02*
X2259Y-732D01*
X2253Y-741D01*
X2250Y-756D01*
Y-765D01*
X2253Y-781D01*
X2259Y-790D01*
X2268Y-793D01*
X2274D01*
X2283Y-790D01*
X2289Y-781D01*
X2292Y-765D01*
Y-756D01*
X2289Y-741D01*
X2283Y-732D01*
X2274Y-729D01*
X2268D01*
X2310Y-744D02*
Y-741D01*
X2313Y-735D01*
X2316Y-732D01*
X2322Y-729D01*
X2334D01*
X2340Y-732D01*
X2343Y-735D01*
X2346Y-741D01*
Y-747D01*
X2343Y-753D01*
X2337Y-762D01*
X2307Y-793D01*
X2349D01*
X2460Y-744D02*
X2457Y-738D01*
X2451Y-732D01*
X2445Y-729D01*
X2432D01*
X2426Y-732D01*
X2420Y-738D01*
X2417Y-744D01*
X2414Y-753D01*
Y-768D01*
X2417Y-777D01*
X2420Y-784D01*
X2426Y-790D01*
X2432Y-793D01*
X2445D01*
X2451Y-790D01*
X2457Y-784D01*
X2460Y-777D01*
X2478Y-729D02*
Y-793D01*
X2497Y-729D02*
X2500Y-732D01*
X2503Y-729D01*
X2500Y-726D01*
X2497Y-729D01*
X2500Y-750D02*
Y-793D01*
X2515Y-750D02*
Y-793D01*
Y-762D02*
X2524Y-753D01*
X2530Y-750D01*
X2539D01*
X2545Y-753D01*
X2548Y-762D01*
Y-793D01*
X2574Y-729D02*
Y-781D01*
X2577Y-790D01*
X2583Y-793D01*
X2589D01*
X2565Y-750D02*
X2586D01*
X2649Y-729D02*
Y-793D01*
Y-729D02*
X2673Y-793D01*
X2697Y-729D02*
X2673Y-793D01*
X2697Y-729D02*
Y-793D01*
X2731Y-750D02*
X2725Y-753D01*
X2719Y-759D01*
X2716Y-768D01*
Y-774D01*
X2719Y-784D01*
X2725Y-790D01*
X2731Y-793D01*
X2740D01*
X2746Y-790D01*
X2752Y-784D01*
X2755Y-774D01*
Y-768D01*
X2752Y-759D01*
X2746Y-753D01*
X2740Y-750D01*
X2731D01*
X2785D02*
X2778Y-753D01*
X2772Y-759D01*
X2769Y-768D01*
Y-774D01*
X2772Y-784D01*
X2778Y-790D01*
X2785Y-793D01*
X2794D01*
X2800Y-790D01*
X2806Y-784D01*
X2809Y-774D01*
Y-768D01*
X2806Y-759D01*
X2800Y-753D01*
X2794Y-750D01*
X2785D01*
X2823D02*
Y-793D01*
Y-768D02*
X2826Y-759D01*
X2832Y-753D01*
X2838Y-750D01*
X2847D01*
X2853Y-768D02*
X2890D01*
Y-762D01*
X2887Y-756D01*
X2884Y-753D01*
X2878Y-750D01*
X2868D01*
X2862Y-753D01*
X2856Y-759D01*
X2853Y-768D01*
Y-774D01*
X2856Y-784D01*
X2862Y-790D01*
X2868Y-793D01*
X2878D01*
X2884Y-790D01*
X2890Y-784D01*
X2954Y-729D02*
Y-793D01*
Y-729D02*
X2981D01*
X2990Y-732D01*
X2993Y-735D01*
X2996Y-741D01*
Y-747D01*
X2993Y-753D01*
X2990Y-756D01*
X2981Y-759D01*
X2954D01*
X2975D02*
X2996Y-793D01*
X3047Y-729D02*
Y-793D01*
Y-759D02*
X3041Y-753D01*
X3035Y-750D01*
X3026D01*
X3020Y-753D01*
X3014Y-759D01*
X3011Y-768D01*
Y-774D01*
X3014Y-784D01*
X3020Y-790D01*
X3026Y-793D01*
X3035D01*
X3041Y-790D01*
X3047Y-784D01*
X3067Y-787D02*
X3064Y-790D01*
X3067Y-793D01*
X3070Y-790D01*
X3067Y-787D01*
X2444Y-1049D02*
X2414D01*
X2411Y-1076D01*
X2414Y-1073D01*
X2423Y-1070D01*
X2432D01*
X2441Y-1073D01*
X2447Y-1079D01*
X2451Y-1088D01*
Y-1094D01*
X2447Y-1104D01*
X2441Y-1110D01*
X2432Y-1113D01*
X2423D01*
X2414Y-1110D01*
X2411Y-1107D01*
X2408Y-1101D01*
X2501Y-1058D02*
X2498Y-1052D01*
X2489Y-1049D01*
X2483D01*
X2474Y-1052D01*
X2468Y-1061D01*
X2465Y-1076D01*
Y-1091D01*
X2468Y-1104D01*
X2474Y-1110D01*
X2483Y-1113D01*
X2486D01*
X2495Y-1110D01*
X2501Y-1104D01*
X2504Y-1094D01*
Y-1091D01*
X2501Y-1082D01*
X2495Y-1076D01*
X2486Y-1073D01*
X2483D01*
X2474Y-1076D01*
X2468Y-1082D01*
X2465Y-1091D01*
X2518Y-1061D02*
X2525Y-1058D01*
X2534Y-1049D01*
Y-1113D01*
X2565Y-1085D02*
X2620D01*
X2679Y-1070D02*
X2676Y-1079D01*
X2670Y-1085D01*
X2660Y-1088D01*
X2657D01*
X2648Y-1085D01*
X2642Y-1079D01*
X2639Y-1070D01*
Y-1067D01*
X2642Y-1058D01*
X2648Y-1052D01*
X2657Y-1049D01*
X2660D01*
X2670Y-1052D01*
X2676Y-1058D01*
X2679Y-1070D01*
Y-1085D01*
X2676Y-1101D01*
X2670Y-1110D01*
X2660Y-1113D01*
X2654D01*
X2645Y-1110D01*
X2642Y-1104D01*
X2736Y-1070D02*
X2733Y-1079D01*
X2727Y-1085D01*
X2717Y-1088D01*
X2714D01*
X2705Y-1085D01*
X2699Y-1079D01*
X2696Y-1070D01*
Y-1067D01*
X2699Y-1058D01*
X2705Y-1052D01*
X2714Y-1049D01*
X2717D01*
X2727Y-1052D01*
X2733Y-1058D01*
X2736Y-1070D01*
Y-1085D01*
X2733Y-1101D01*
X2727Y-1110D01*
X2717Y-1113D01*
X2711D01*
X2702Y-1110D01*
X2699Y-1104D01*
X2793Y-1070D02*
X2790Y-1079D01*
X2784Y-1085D01*
X2774Y-1088D01*
X2771D01*
X2762Y-1085D01*
X2756Y-1079D01*
X2753Y-1070D01*
Y-1067D01*
X2756Y-1058D01*
X2762Y-1052D01*
X2771Y-1049D01*
X2774D01*
X2784Y-1052D01*
X2790Y-1058D01*
X2793Y-1070D01*
Y-1085D01*
X2790Y-1101D01*
X2784Y-1110D01*
X2774Y-1113D01*
X2768D01*
X2759Y-1110D01*
X2756Y-1104D01*
X2810Y-1085D02*
X2865D01*
X2923Y-1070D02*
X2920Y-1079D01*
X2914Y-1085D01*
X2905Y-1088D01*
X2902D01*
X2893Y-1085D01*
X2887Y-1079D01*
X2884Y-1070D01*
Y-1067D01*
X2887Y-1058D01*
X2893Y-1052D01*
X2902Y-1049D01*
X2905D01*
X2914Y-1052D01*
X2920Y-1058D01*
X2923Y-1070D01*
Y-1085D01*
X2920Y-1101D01*
X2914Y-1110D01*
X2905Y-1113D01*
X2899D01*
X2890Y-1110D01*
X2887Y-1104D01*
X2971Y-1049D02*
X2941Y-1091D01*
X2986D01*
X2971Y-1049D02*
Y-1113D01*
X3001Y-1064D02*
Y-1061D01*
X3004Y-1055D01*
X3007Y-1052D01*
X3013Y-1049D01*
X3025D01*
X3031Y-1052D01*
X3034Y-1055D01*
X3037Y-1061D01*
Y-1067D01*
X3034Y-1073D01*
X3028Y-1082D01*
X2998Y-1113D01*
X3040D01*
X3058Y-1064D02*
Y-1061D01*
X3061Y-1055D01*
X3064Y-1052D01*
X3070Y-1049D01*
X3082D01*
X3088Y-1052D01*
X3091Y-1055D01*
X3094Y-1061D01*
Y-1067D01*
X3091Y-1073D01*
X3085Y-1082D01*
X3055Y-1113D01*
X3097D01*
X2531Y-843D02*
X2524Y-837D01*
X2515Y-834D01*
X2503D01*
X2494Y-837D01*
X2488Y-843D01*
Y-849D01*
X2491Y-855D01*
X2494Y-858D01*
X2500Y-861D01*
X2518Y-867D01*
X2524Y-870D01*
X2527Y-873D01*
X2531Y-879D01*
Y-889D01*
X2524Y-895D01*
X2515Y-898D01*
X2503D01*
X2494Y-895D01*
X2488Y-889D01*
X2545Y-855D02*
Y-886D01*
X2548Y-895D01*
X2554Y-898D01*
X2563D01*
X2569Y-895D01*
X2578Y-886D01*
Y-855D02*
Y-898D01*
X2601Y-834D02*
X2604Y-837D01*
X2607Y-834D01*
X2604Y-831D01*
X2601Y-834D01*
X2604Y-855D02*
Y-898D01*
X2628Y-834D02*
Y-886D01*
X2631Y-895D01*
X2637Y-898D01*
X2643D01*
X2619Y-855D02*
X2640D01*
X2652Y-873D02*
X2689D01*
Y-867D01*
X2686Y-861D01*
X2683Y-858D01*
X2676Y-855D01*
X2667D01*
X2661Y-858D01*
X2655Y-864D01*
X2652Y-873D01*
Y-879D01*
X2655Y-889D01*
X2661Y-895D01*
X2667Y-898D01*
X2676D01*
X2683Y-895D01*
X2689Y-889D01*
X2753Y-846D02*
X2759Y-843D01*
X2768Y-834D01*
Y-898D01*
X2800Y-846D02*
X2806Y-843D01*
X2815Y-834D01*
Y-898D01*
X2862Y-834D02*
X2853Y-837D01*
X2850Y-843D01*
Y-849D01*
X2853Y-855D01*
X2859Y-858D01*
X2871Y-861D01*
X2880Y-864D01*
X2886Y-870D01*
X2889Y-876D01*
Y-886D01*
X2886Y-892D01*
X2883Y-895D01*
X2874Y-898D01*
X2862D01*
X2853Y-895D01*
X2850Y-892D01*
X2846Y-886D01*
Y-876D01*
X2850Y-870D01*
X2856Y-864D01*
X2865Y-861D01*
X2877Y-858D01*
X2883Y-855D01*
X2886Y-849D01*
Y-843D01*
X2883Y-837D01*
X2874Y-834D01*
X2862D01*
X-50Y-60D02*
Y1910D01*
X2270D02*
X2320D01*
X2270Y-60D02*
X2320D01*
Y1910D01*
X-50D02*
X2270D01*
X-50Y-60D02*
X2270D01*
D47*
X1014Y1779D02*
Y1729D01*
X1031Y1779D02*
X998D01*
X992D02*
Y1729D01*
Y1779D02*
X970D01*
X963Y1777D01*
X961Y1774D01*
X958Y1770D01*
Y1765D01*
X961Y1760D01*
X963Y1758D01*
X970Y1755D01*
X992D01*
X975D02*
X958Y1729D01*
X947Y1779D02*
X914Y1729D01*
Y1779D02*
X947Y1729D01*
X903Y1751D02*
X860D01*
X845Y1770D02*
X840Y1772D01*
X833Y1779D01*
Y1729D01*
X794Y1779D02*
X801Y1777D01*
X806Y1770D01*
X808Y1758D01*
Y1751D01*
X806Y1739D01*
X801Y1732D01*
X794Y1729D01*
X789D01*
X782Y1732D01*
X777Y1739D01*
X775Y1751D01*
Y1758D01*
X777Y1770D01*
X782Y1777D01*
X789Y1779D01*
X794D01*
X764Y1770D02*
X759Y1772D01*
X752Y1779D01*
Y1729D01*
X987Y1708D02*
Y1658D01*
Y1708D02*
X966D01*
X958Y1706D01*
X956Y1703D01*
X954Y1699D01*
Y1694D01*
X956Y1689D01*
X958Y1687D01*
X966Y1684D01*
X987D01*
X970D02*
X954Y1658D01*
X912Y1708D02*
X942D01*
Y1658D01*
X912D01*
X942Y1684D02*
X923D01*
X903Y1708D02*
X884Y1658D01*
X865Y1708D02*
X884Y1658D01*
X819Y1699D02*
X815Y1701D01*
X808Y1708D01*
Y1658D01*
X771Y1708D02*
X778Y1706D01*
X780Y1701D01*
Y1696D01*
X778Y1692D01*
X773Y1689D01*
X764Y1687D01*
X757Y1684D01*
X752Y1680D01*
X749Y1675D01*
Y1668D01*
X752Y1663D01*
X754Y1661D01*
X761Y1658D01*
X771D01*
X778Y1661D01*
X780Y1663D01*
X783Y1668D01*
Y1675D01*
X780Y1680D01*
X776Y1684D01*
X768Y1687D01*
X759Y1689D01*
X754Y1692D01*
X752Y1696D01*
Y1701D01*
X754Y1706D01*
X761Y1708D01*
X771D01*
X-490Y-1205D02*
Y-1245D01*
X-492Y-1253D01*
X-495Y-1255D01*
X-500Y-1258D01*
X-505D01*
X-510Y-1255D01*
X-513Y-1253D01*
X-515Y-1245D01*
Y-1240D01*
X-474Y-1253D02*
X-476Y-1255D01*
X-474Y-1258D01*
X-471Y-1255D01*
X-474Y-1253D01*
X-459Y-1205D02*
Y-1258D01*
Y-1205D02*
X-424Y-1258D01*
Y-1205D02*
Y-1258D01*
X675Y-1066D02*
Y-1146D01*
X648Y-1066D02*
X701D01*
X711D02*
Y-1146D01*
Y-1066D02*
X745D01*
X757Y-1070D01*
X760Y-1074D01*
X764Y-1081D01*
Y-1089D01*
X760Y-1096D01*
X757Y-1100D01*
X745Y-1104D01*
X711D01*
X738D02*
X764Y-1146D01*
X843D02*
X813Y-1066D01*
X782Y-1146D01*
X793Y-1119D02*
X832D01*
X862Y-1066D02*
Y-1146D01*
Y-1066D02*
X915Y-1146D01*
Y-1066D02*
Y-1146D01*
X990Y-1077D02*
X983Y-1070D01*
X971Y-1066D01*
X956D01*
X945Y-1070D01*
X937Y-1077D01*
Y-1085D01*
X941Y-1093D01*
X945Y-1096D01*
X952Y-1100D01*
X975Y-1108D01*
X983Y-1112D01*
X987Y-1116D01*
X990Y-1123D01*
Y-1135D01*
X983Y-1142D01*
X971Y-1146D01*
X956D01*
X945Y-1142D01*
X937Y-1135D01*
X1065Y-1085D02*
X1062Y-1077D01*
X1054Y-1070D01*
X1046Y-1066D01*
X1031D01*
X1024Y-1070D01*
X1016Y-1077D01*
X1012Y-1085D01*
X1008Y-1096D01*
Y-1116D01*
X1012Y-1127D01*
X1016Y-1135D01*
X1024Y-1142D01*
X1031Y-1146D01*
X1046D01*
X1054Y-1142D01*
X1062Y-1135D01*
X1065Y-1127D01*
X1137Y-1066D02*
X1088D01*
Y-1146D01*
X1137D01*
X1088Y-1104D02*
X1118D01*
X1151Y-1066D02*
Y-1146D01*
X1168Y-1066D02*
X1198Y-1146D01*
X1228Y-1066D02*
X1198Y-1146D01*
X1288Y-1066D02*
X1239D01*
Y-1146D01*
X1288D01*
X1239Y-1104D02*
X1269D01*
X1302Y-1066D02*
Y-1146D01*
Y-1066D02*
X1336D01*
X1347Y-1070D01*
X1351Y-1074D01*
X1355Y-1081D01*
Y-1089D01*
X1351Y-1096D01*
X1347Y-1100D01*
X1336Y-1104D01*
X1302D01*
X1328D02*
X1355Y-1146D01*
D48*
X1914Y-1371D02*
X1919Y-1369D01*
X1927Y-1361D01*
Y-1414D01*
X1966Y-1361D02*
X1958Y-1364D01*
X1956Y-1369D01*
Y-1374D01*
X1958Y-1379D01*
X1964Y-1381D01*
X1974Y-1384D01*
X1981Y-1386D01*
X1986Y-1392D01*
X1989Y-1397D01*
Y-1404D01*
X1986Y-1409D01*
X1984Y-1412D01*
X1976Y-1414D01*
X1966D01*
X1958Y-1412D01*
X1956Y-1409D01*
X1953Y-1404D01*
Y-1397D01*
X1956Y-1392D01*
X1961Y-1386D01*
X1969Y-1384D01*
X1979Y-1381D01*
X1984Y-1379D01*
X1986Y-1374D01*
Y-1369D01*
X1984Y-1364D01*
X1976Y-1361D01*
X1966D01*
X796Y-874D02*
Y-970D01*
X764Y-874D02*
X828D01*
X839D02*
Y-970D01*
Y-874D02*
X881D01*
X894Y-879D01*
X899Y-883D01*
X903Y-892D01*
Y-901D01*
X899Y-911D01*
X894Y-915D01*
X881Y-920D01*
X839D01*
X871D02*
X903Y-970D01*
X925Y-874D02*
X989Y-970D01*
Y-874D02*
X925Y-970D01*
X1010Y-929D02*
X1093D01*
X1121Y-892D02*
X1130Y-888D01*
X1144Y-874D01*
Y-970D01*
X1219Y-874D02*
X1205Y-879D01*
X1196Y-892D01*
X1191Y-915D01*
Y-929D01*
X1196Y-952D01*
X1205Y-965D01*
X1219Y-970D01*
X1228D01*
X1242Y-965D01*
X1251Y-952D01*
X1255Y-929D01*
Y-915D01*
X1251Y-892D01*
X1242Y-879D01*
X1228Y-874D01*
X1219D01*
X1277Y-892D02*
X1286Y-888D01*
X1300Y-874D01*
Y-970D01*
X205Y-672D02*
X168Y-576D01*
X132Y-672D01*
X145Y-640D02*
X191D01*
X282Y-622D02*
X273Y-612D01*
X264Y-608D01*
X250D01*
X241Y-612D01*
X232Y-622D01*
X227Y-635D01*
Y-644D01*
X232Y-658D01*
X241Y-667D01*
X250Y-672D01*
X264D01*
X273Y-667D01*
X282Y-658D01*
X316Y-576D02*
Y-654D01*
X321Y-667D01*
X330Y-672D01*
X339D01*
X303Y-608D02*
X335D01*
X362Y-576D02*
X367Y-580D01*
X371Y-576D01*
X367Y-571D01*
X362Y-576D01*
X367Y-608D02*
Y-672D01*
X388Y-608D02*
X416Y-672D01*
X443Y-608D02*
X416Y-672D01*
X459Y-635D02*
X513D01*
Y-626D01*
X509Y-617D01*
X504Y-612D01*
X495Y-608D01*
X481D01*
X472Y-612D01*
X463Y-622D01*
X459Y-635D01*
Y-644D01*
X463Y-658D01*
X472Y-667D01*
X481Y-672D01*
X495D01*
X504Y-667D01*
X513Y-658D01*
X609Y-576D02*
X632Y-672D01*
X655Y-576D02*
X632Y-672D01*
X655Y-576D02*
X678Y-672D01*
X701Y-576D02*
X678Y-672D01*
X775Y-608D02*
Y-672D01*
Y-622D02*
X766Y-612D01*
X757Y-608D01*
X743D01*
X734Y-612D01*
X725Y-622D01*
X720Y-635D01*
Y-644D01*
X725Y-658D01*
X734Y-667D01*
X743Y-672D01*
X757D01*
X766Y-667D01*
X775Y-658D01*
X800Y-608D02*
X828Y-672D01*
X855Y-608D02*
X828Y-672D01*
X871Y-635D02*
X926D01*
Y-626D01*
X921Y-617D01*
X917Y-612D01*
X907Y-608D01*
X894D01*
X885Y-612D01*
X875Y-622D01*
X871Y-635D01*
Y-644D01*
X875Y-658D01*
X885Y-667D01*
X894Y-672D01*
X907D01*
X917Y-667D01*
X926Y-658D01*
X2632Y-1339D02*
X2624Y-1342D01*
X2619Y-1349D01*
X2617Y-1362D01*
Y-1370D01*
X2619Y-1382D01*
X2624Y-1390D01*
X2632Y-1392D01*
X2637D01*
X2644Y-1390D01*
X2650Y-1382D01*
X2652Y-1370D01*
Y-1362D01*
X2650Y-1349D01*
X2644Y-1342D01*
X2637Y-1339D01*
X2632D01*
X2695D02*
X2669D01*
X2667Y-1362D01*
X2669Y-1359D01*
X2677Y-1357D01*
X2684D01*
X2692Y-1359D01*
X2697Y-1364D01*
X2700Y-1372D01*
Y-1377D01*
X2697Y-1385D01*
X2692Y-1390D01*
X2684Y-1392D01*
X2677D01*
X2669Y-1390D01*
X2667Y-1387D01*
X2664Y-1382D01*
X2712Y-1400D02*
X2747Y-1339D01*
X2753Y-1352D02*
Y-1349D01*
X2756Y-1344D01*
X2758Y-1342D01*
X2763Y-1339D01*
X2773D01*
X2779Y-1342D01*
X2781Y-1344D01*
X2784Y-1349D01*
Y-1354D01*
X2781Y-1359D01*
X2776Y-1367D01*
X2751Y-1392D01*
X2786D01*
X2831Y-1357D02*
X2829Y-1364D01*
X2823Y-1370D01*
X2816Y-1372D01*
X2813D01*
X2806Y-1370D01*
X2801Y-1364D01*
X2798Y-1357D01*
Y-1354D01*
X2801Y-1347D01*
X2806Y-1342D01*
X2813Y-1339D01*
X2816D01*
X2823Y-1342D01*
X2829Y-1347D01*
X2831Y-1357D01*
Y-1370D01*
X2829Y-1382D01*
X2823Y-1390D01*
X2816Y-1392D01*
X2811D01*
X2803Y-1390D01*
X2801Y-1385D01*
X2846Y-1400D02*
X2881Y-1339D01*
X2887Y-1352D02*
Y-1349D01*
X2890Y-1344D01*
X2892Y-1342D01*
X2897Y-1339D01*
X2908D01*
X2913Y-1342D01*
X2915Y-1344D01*
X2918Y-1349D01*
Y-1354D01*
X2915Y-1359D01*
X2910Y-1367D01*
X2885Y-1392D01*
X2920D01*
X2947Y-1339D02*
X2940Y-1342D01*
X2935Y-1349D01*
X2932Y-1362D01*
Y-1370D01*
X2935Y-1382D01*
X2940Y-1390D01*
X2947Y-1392D01*
X2952D01*
X2960Y-1390D01*
X2965Y-1382D01*
X2968Y-1370D01*
Y-1362D01*
X2965Y-1349D01*
X2960Y-1342D01*
X2952Y-1339D01*
X2947D01*
X2995D02*
X2987Y-1342D01*
X2982Y-1349D01*
X2980Y-1362D01*
Y-1370D01*
X2982Y-1382D01*
X2987Y-1390D01*
X2995Y-1392D01*
X3000D01*
X3008Y-1390D01*
X3013Y-1382D01*
X3015Y-1370D01*
Y-1362D01*
X3013Y-1349D01*
X3008Y-1342D01*
X3000Y-1339D01*
X2995D01*
X3060Y-1357D02*
X3058Y-1364D01*
X3053Y-1370D01*
X3045Y-1372D01*
X3042D01*
X3035Y-1370D01*
X3030Y-1364D01*
X3027Y-1357D01*
Y-1354D01*
X3030Y-1347D01*
X3035Y-1342D01*
X3042Y-1339D01*
X3045D01*
X3053Y-1342D01*
X3058Y-1347D01*
X3060Y-1357D01*
Y-1370D01*
X3058Y-1382D01*
X3053Y-1390D01*
X3045Y-1392D01*
X3040D01*
X3032Y-1390D01*
X3030Y-1385D01*
D49*
X2202Y-1286D02*
Y-1339D01*
Y-1286D02*
X2220D01*
X2227Y-1289D01*
X2232Y-1294D01*
X2235Y-1299D01*
X2237Y-1306D01*
Y-1319D01*
X2235Y-1327D01*
X2232Y-1332D01*
X2227Y-1337D01*
X2220Y-1339D01*
X2202D01*
X2290D02*
X2270Y-1286D01*
X2249Y-1339D01*
X2257Y-1322D02*
X2282D01*
X2320Y-1286D02*
Y-1339D01*
X2302Y-1286D02*
X2338D01*
X2377D02*
X2344D01*
Y-1339D01*
X2377D01*
X2344Y-1311D02*
X2365D01*
X2389Y-1304D02*
X2386Y-1306D01*
X2389Y-1309D01*
X2391Y-1306D01*
X2389Y-1304D01*
Y-1334D02*
X2386Y-1337D01*
X2389Y-1339D01*
X2391Y-1337D01*
X2389Y-1334D01*
X1739Y-1286D02*
Y-1339D01*
Y-1286D02*
X1762D01*
X1770Y-1289D01*
X1772Y-1291D01*
X1775Y-1296D01*
Y-1301D01*
X1772Y-1306D01*
X1770Y-1309D01*
X1762Y-1311D01*
X1739D01*
X1757D02*
X1775Y-1339D01*
X1820Y-1286D02*
X1787D01*
Y-1339D01*
X1820D01*
X1787Y-1311D02*
X1807D01*
X1829Y-1286D02*
X1849Y-1339D01*
X1869Y-1286D02*
X1849Y-1339D01*
X1879Y-1304D02*
X1876Y-1306D01*
X1879Y-1309D01*
X1881Y-1306D01*
X1879Y-1304D01*
Y-1334D02*
X1876Y-1337D01*
X1879Y-1339D01*
X1881Y-1337D01*
X1879Y-1334D01*
X-898Y-1039D02*
X-875D01*
X-868Y-1036D01*
X-865Y-1034D01*
X-863Y-1029D01*
Y-1021D01*
X-865Y-1016D01*
X-868Y-1014D01*
X-875Y-1011D01*
X-898D01*
Y-1064D01*
X-851Y-1011D02*
Y-1064D01*
X-815Y-1011D02*
Y-1064D01*
X-851Y-1036D02*
X-815D01*
X-785Y-1011D02*
X-790Y-1014D01*
X-795Y-1019D01*
X-798Y-1024D01*
X-800Y-1031D01*
Y-1044D01*
X-798Y-1052D01*
X-795Y-1057D01*
X-790Y-1062D01*
X-785Y-1064D01*
X-775D01*
X-770Y-1062D01*
X-765Y-1057D01*
X-762Y-1052D01*
X-760Y-1044D01*
Y-1031D01*
X-762Y-1024D01*
X-765Y-1019D01*
X-770Y-1014D01*
X-775Y-1011D01*
X-785D01*
X-747D02*
Y-1064D01*
Y-1011D02*
X-712Y-1064D01*
Y-1011D02*
Y-1064D01*
X-664Y-1011D02*
X-697D01*
Y-1064D01*
X-664D01*
X-697Y-1036D02*
X-677D01*
X-653Y-1029D02*
X-655Y-1031D01*
X-653Y-1034D01*
X-650Y-1031D01*
X-653Y-1029D01*
Y-1059D02*
X-655Y-1062D01*
X-653Y-1064D01*
X-650Y-1062D01*
X-653Y-1059D01*
X-898Y-1414D02*
X-875D01*
X-868Y-1411D01*
X-865Y-1409D01*
X-863Y-1404D01*
Y-1396D01*
X-865Y-1391D01*
X-868Y-1389D01*
X-875Y-1386D01*
X-898D01*
Y-1439D01*
X-851Y-1386D02*
Y-1439D01*
X-815Y-1386D02*
Y-1439D01*
X-851Y-1411D02*
X-815D01*
X-785Y-1386D02*
X-790Y-1389D01*
X-795Y-1394D01*
X-798Y-1399D01*
X-800Y-1406D01*
Y-1419D01*
X-798Y-1427D01*
X-795Y-1432D01*
X-790Y-1437D01*
X-785Y-1439D01*
X-775D01*
X-770Y-1437D01*
X-765Y-1432D01*
X-762Y-1427D01*
X-760Y-1419D01*
Y-1406D01*
X-762Y-1399D01*
X-765Y-1394D01*
X-770Y-1389D01*
X-775Y-1386D01*
X-785D01*
X-747D02*
Y-1439D01*
Y-1386D02*
X-712Y-1439D01*
Y-1386D02*
Y-1439D01*
X-664Y-1386D02*
X-697D01*
Y-1439D01*
X-664D01*
X-697Y-1411D02*
X-677D01*
X-653Y-1404D02*
X-655Y-1406D01*
X-653Y-1409D01*
X-650Y-1406D01*
X-653Y-1404D01*
Y-1434D02*
X-655Y-1437D01*
X-653Y-1439D01*
X-650Y-1437D01*
X-653Y-1434D01*
X942Y-1564D02*
Y-1617D01*
X972D01*
X1019D02*
X998Y-1564D01*
X978Y-1617D01*
X986Y-1599D02*
X1011D01*
X1031Y-1564D02*
X1051Y-1589D01*
Y-1617D01*
X1072Y-1564D02*
X1051Y-1589D01*
X1112Y-1564D02*
X1079D01*
Y-1617D01*
X1112D01*
X1079Y-1589D02*
X1099D01*
X1121Y-1564D02*
Y-1617D01*
Y-1564D02*
X1143D01*
X1151Y-1566D01*
X1154Y-1569D01*
X1156Y-1574D01*
Y-1579D01*
X1154Y-1584D01*
X1151Y-1586D01*
X1143Y-1589D01*
X1121D01*
X1138D02*
X1156Y-1617D01*
X1171Y-1581D02*
X1168Y-1584D01*
X1171Y-1586D01*
X1173Y-1584D01*
X1171Y-1581D01*
Y-1612D02*
X1168Y-1614D01*
X1171Y-1617D01*
X1173Y-1614D01*
X1171Y-1612D01*
X-865Y-824D02*
X-898D01*
Y-877D01*
X-865D01*
X-898Y-849D02*
X-878D01*
X-856Y-824D02*
Y-877D01*
Y-824D02*
X-821Y-877D01*
Y-824D02*
Y-877D01*
X-768Y-836D02*
X-771Y-831D01*
X-776Y-826D01*
X-781Y-824D01*
X-791D01*
X-796Y-826D01*
X-801Y-831D01*
X-804Y-836D01*
X-806Y-844D01*
Y-857D01*
X-804Y-864D01*
X-801Y-869D01*
X-796Y-874D01*
X-791Y-877D01*
X-781D01*
X-776Y-874D01*
X-771Y-869D01*
X-768Y-864D01*
Y-857D01*
X-781D02*
X-768D01*
X-756Y-824D02*
Y-877D01*
X-745Y-824D02*
Y-877D01*
Y-824D02*
X-709Y-877D01*
Y-824D02*
Y-877D01*
X-661Y-824D02*
X-694D01*
Y-877D01*
X-661D01*
X-694Y-849D02*
X-674D01*
X-619Y-824D02*
X-652D01*
Y-877D01*
X-619D01*
X-652Y-849D02*
X-632D01*
X-611Y-824D02*
Y-877D01*
Y-824D02*
X-588D01*
X-580Y-826D01*
X-578Y-829D01*
X-575Y-834D01*
Y-839D01*
X-578Y-844D01*
X-580Y-846D01*
X-588Y-849D01*
X-611D01*
X-593D02*
X-575Y-877D01*
X-561Y-841D02*
X-563Y-844D01*
X-561Y-846D01*
X-558Y-844D01*
X-561Y-841D01*
Y-872D02*
X-563Y-874D01*
X-561Y-877D01*
X-558Y-874D01*
X-561Y-872D01*
X2Y-1314D02*
X25D01*
X32Y-1311D01*
X35Y-1309D01*
X37Y-1304D01*
Y-1296D01*
X35Y-1291D01*
X32Y-1289D01*
X25Y-1286D01*
X2D01*
Y-1339D01*
X90D02*
X70Y-1286D01*
X49Y-1339D01*
X57Y-1322D02*
X82D01*
X102Y-1286D02*
Y-1339D01*
Y-1286D02*
X125D01*
X133Y-1289D01*
X135Y-1291D01*
X138Y-1296D01*
Y-1301D01*
X135Y-1306D01*
X133Y-1309D01*
X125Y-1311D01*
X102D01*
X120D02*
X138Y-1339D01*
X168Y-1286D02*
Y-1339D01*
X150Y-1286D02*
X185D01*
X234D02*
Y-1339D01*
Y-1286D02*
X269Y-1339D01*
Y-1286D02*
Y-1339D01*
X299Y-1286D02*
X294Y-1289D01*
X289Y-1294D01*
X286Y-1299D01*
X284Y-1306D01*
Y-1319D01*
X286Y-1327D01*
X289Y-1332D01*
X294Y-1337D01*
X299Y-1339D01*
X309D01*
X314Y-1337D01*
X319Y-1332D01*
X322Y-1327D01*
X325Y-1319D01*
Y-1306D01*
X322Y-1299D01*
X319Y-1294D01*
X314Y-1289D01*
X309Y-1286D01*
X299D01*
X339Y-1334D02*
X337Y-1337D01*
X339Y-1339D01*
X342Y-1337D01*
X339Y-1334D01*
X356Y-1304D02*
X354Y-1306D01*
X356Y-1309D01*
X359Y-1306D01*
X356Y-1304D01*
Y-1334D02*
X354Y-1337D01*
X356Y-1339D01*
X359Y-1337D01*
X356Y-1334D01*
X7Y-811D02*
Y-864D01*
X-11Y-811D02*
X25D01*
X31D02*
Y-864D01*
X60Y-811D02*
Y-864D01*
X42Y-811D02*
X78D01*
X84D02*
Y-864D01*
X115D01*
X154Y-811D02*
X121D01*
Y-864D01*
X154D01*
X121Y-836D02*
X141D01*
X165Y-829D02*
X162Y-831D01*
X165Y-834D01*
X168Y-831D01*
X165Y-829D01*
Y-859D02*
X162Y-862D01*
X165Y-864D01*
X168Y-862D01*
X165Y-859D01*
X-898Y-1204D02*
Y-1257D01*
Y-1204D02*
X-880D01*
X-873Y-1206D01*
X-868Y-1211D01*
X-865Y-1216D01*
X-863Y-1224D01*
Y-1237D01*
X-865Y-1244D01*
X-868Y-1249D01*
X-873Y-1254D01*
X-880Y-1257D01*
X-898D01*
X-851Y-1221D02*
Y-1257D01*
Y-1237D02*
X-848Y-1229D01*
X-843Y-1224D01*
X-838Y-1221D01*
X-830D01*
X-795D02*
Y-1257D01*
Y-1229D02*
X-800Y-1224D01*
X-805Y-1221D01*
X-813D01*
X-818Y-1224D01*
X-823Y-1229D01*
X-826Y-1237D01*
Y-1242D01*
X-823Y-1249D01*
X-818Y-1254D01*
X-813Y-1257D01*
X-805D01*
X-800Y-1254D01*
X-795Y-1249D01*
X-781Y-1221D02*
X-771Y-1257D01*
X-761Y-1221D02*
X-771Y-1257D01*
X-761Y-1221D02*
X-750Y-1257D01*
X-740Y-1221D02*
X-750Y-1257D01*
X-728Y-1221D02*
Y-1257D01*
Y-1232D02*
X-720Y-1224D01*
X-715Y-1221D01*
X-708D01*
X-702Y-1224D01*
X-700Y-1232D01*
Y-1257D01*
X-644Y-1204D02*
Y-1257D01*
Y-1229D02*
X-639Y-1224D01*
X-634Y-1221D01*
X-626D01*
X-621Y-1224D01*
X-616Y-1229D01*
X-614Y-1237D01*
Y-1242D01*
X-616Y-1249D01*
X-621Y-1254D01*
X-626Y-1257D01*
X-634D01*
X-639Y-1254D01*
X-644Y-1249D01*
X-600Y-1221D02*
X-584Y-1257D01*
X-569Y-1221D02*
X-584Y-1257D01*
X-589Y-1267D01*
X-595Y-1272D01*
X-600Y-1275D01*
X-602D01*
X-558Y-1221D02*
X-560Y-1224D01*
X-558Y-1226D01*
X-555Y-1224D01*
X-558Y-1221D01*
Y-1252D02*
X-560Y-1254D01*
X-558Y-1257D01*
X-555Y-1254D01*
X-558Y-1252D01*
X-898Y-1564D02*
Y-1617D01*
Y-1564D02*
X-865D01*
X-898Y-1589D02*
X-878D01*
X-859Y-1564D02*
Y-1617D01*
X-848Y-1564D02*
Y-1617D01*
X-817D01*
X-779Y-1564D02*
X-812D01*
Y-1617D01*
X-779D01*
X-812Y-1589D02*
X-791D01*
X-728Y-1564D02*
Y-1617D01*
Y-1564D02*
X-692Y-1617D01*
Y-1564D02*
Y-1617D01*
X-637D02*
X-657Y-1564D01*
X-678Y-1617D01*
X-670Y-1599D02*
X-645D01*
X-625Y-1564D02*
Y-1617D01*
Y-1564D02*
X-604Y-1617D01*
X-584Y-1564D02*
X-604Y-1617D01*
X-584Y-1564D02*
Y-1617D01*
X-536Y-1564D02*
X-569D01*
Y-1617D01*
X-536D01*
X-569Y-1589D02*
X-548D01*
X-524Y-1581D02*
X-527Y-1584D01*
X-524Y-1586D01*
X-522Y-1584D01*
X-524Y-1581D01*
Y-1612D02*
X-527Y-1614D01*
X-524Y-1617D01*
X-522Y-1614D01*
X-524Y-1612D01*
X2800Y-1576D02*
X2797Y-1571D01*
X2792Y-1566D01*
X2787Y-1564D01*
X2777D01*
X2772Y-1566D01*
X2767Y-1571D01*
X2764Y-1576D01*
X2762Y-1584D01*
Y-1597D01*
X2764Y-1604D01*
X2767Y-1609D01*
X2772Y-1614D01*
X2777Y-1617D01*
X2787D01*
X2792Y-1614D01*
X2797Y-1609D01*
X2800Y-1604D01*
Y-1597D01*
X2787D02*
X2800D01*
X2845Y-1564D02*
X2812D01*
Y-1617D01*
X2845D01*
X2812Y-1589D02*
X2832D01*
X2854Y-1564D02*
Y-1617D01*
Y-1564D02*
X2877D01*
X2884Y-1566D01*
X2887Y-1569D01*
X2889Y-1574D01*
Y-1579D01*
X2887Y-1584D01*
X2884Y-1586D01*
X2877Y-1589D01*
X2854D01*
X2872D02*
X2889Y-1617D01*
X2901Y-1564D02*
Y-1617D01*
Y-1564D02*
X2924D01*
X2932Y-1566D01*
X2934Y-1569D01*
X2937Y-1574D01*
Y-1579D01*
X2934Y-1584D01*
X2932Y-1586D01*
X2924Y-1589D01*
X2901D02*
X2924D01*
X2932Y-1592D01*
X2934Y-1594D01*
X2937Y-1599D01*
Y-1607D01*
X2934Y-1612D01*
X2932Y-1614D01*
X2924Y-1617D01*
X2901D01*
X2982Y-1564D02*
X2949D01*
Y-1617D01*
X2982D01*
X2949Y-1589D02*
X2969D01*
X2991Y-1564D02*
Y-1617D01*
Y-1564D02*
X3014D01*
X3021Y-1566D01*
X3024Y-1569D01*
X3026Y-1574D01*
Y-1579D01*
X3024Y-1584D01*
X3021Y-1586D01*
X3014Y-1589D01*
X2991D01*
X3009D02*
X3026Y-1617D01*
X3041Y-1581D02*
X3038Y-1584D01*
X3041Y-1586D01*
X3043Y-1584D01*
X3041Y-1581D01*
Y-1612D02*
X3038Y-1614D01*
X3041Y-1617D01*
X3043Y-1614D01*
X3041Y-1612D01*
D50*
X2319Y-688D02*
X2281Y-588D01*
X2243Y-688D01*
X2257Y-654D02*
X2305D01*
X2399Y-635D02*
X2390Y-626D01*
X2380Y-621D01*
X2366D01*
X2357Y-626D01*
X2347Y-635D01*
X2342Y-650D01*
Y-659D01*
X2347Y-673D01*
X2357Y-683D01*
X2366Y-688D01*
X2380D01*
X2390Y-683D01*
X2399Y-673D01*
X2435Y-588D02*
Y-669D01*
X2440Y-683D01*
X2449Y-688D01*
X2459D01*
X2421Y-621D02*
X2454D01*
X2483Y-588D02*
X2488Y-592D01*
X2492Y-588D01*
X2488Y-583D01*
X2483Y-588D01*
X2488Y-621D02*
Y-688D01*
X2510Y-621D02*
X2539Y-688D01*
X2567Y-621D02*
X2539Y-688D01*
X2583Y-650D02*
X2640D01*
Y-640D01*
X2636Y-631D01*
X2631Y-626D01*
X2621Y-621D01*
X2607D01*
X2598Y-626D01*
X2588Y-635D01*
X2583Y-650D01*
Y-659D01*
X2588Y-673D01*
X2598Y-683D01*
X2607Y-688D01*
X2621D01*
X2631Y-683D01*
X2640Y-673D01*
X2740Y-588D02*
X2764Y-688D01*
X2788Y-588D02*
X2764Y-688D01*
X2788Y-588D02*
X2812Y-688D01*
X2836Y-588D02*
X2812Y-688D01*
X2913Y-621D02*
Y-688D01*
Y-635D02*
X2903Y-626D01*
X2894Y-621D01*
X2879D01*
X2870Y-626D01*
X2860Y-635D01*
X2856Y-650D01*
Y-659D01*
X2860Y-673D01*
X2870Y-683D01*
X2879Y-688D01*
X2894D01*
X2903Y-683D01*
X2913Y-673D01*
X2939Y-621D02*
X2968Y-688D01*
X2997Y-621D02*
X2968Y-688D01*
X3013Y-650D02*
X3070D01*
Y-640D01*
X3065Y-631D01*
X3060Y-626D01*
X3051Y-621D01*
X3036D01*
X3027Y-626D01*
X3017Y-635D01*
X3013Y-650D01*
Y-659D01*
X3017Y-673D01*
X3027Y-683D01*
X3036Y-688D01*
X3051D01*
X3060Y-683D01*
X3070Y-673D01*
D51*
X850Y350D02*
D03*
X1310Y95D02*
D03*
X1655Y820D02*
D03*
X2190Y1160D02*
D03*
X2270Y575D02*
D03*
Y470D02*
D03*
D52*
X700Y1850D02*
D03*
X700Y0D02*
D03*
X700Y1060D02*
D03*
Y260D02*
D03*
Y660D02*
D03*
Y1460D02*
D03*
D53*
X2098Y1304D02*
D03*
D54*
X350Y-10D02*
D03*
Y1860D02*
D03*
X0Y0D02*
D03*
X1750Y-10D02*
D03*
X0Y1850D02*
D03*
X1050Y1860D02*
D03*
X2270Y0D02*
D03*
X1400Y-10D02*
D03*
X2270Y260D02*
D03*
X1400Y1860D02*
D03*
X2270Y660D02*
D03*
Y1060D02*
D03*
X1750Y1860D02*
D03*
X2270Y1460D02*
D03*
X0Y260D02*
D03*
Y1460D02*
D03*
Y660D02*
D03*
X2270Y1850D02*
D03*
X1050Y-10D02*
D03*
X0Y1060D02*
D03*
D55*
X118Y645D02*
D03*
Y1245D02*
D03*
Y445D02*
D03*
Y545D02*
D03*
Y1045D02*
D03*
Y1145D02*
D03*
Y845D02*
D03*
Y945D02*
D03*
Y745D02*
D03*
D56*
Y1345D02*
D03*
D57*
X1672Y1680D02*
D03*
X1872D02*
D03*
Y1480D02*
D03*
X1672D02*
D03*
X1772Y1580D02*
D03*
X163Y1680D02*
D03*
X363D02*
D03*
Y1480D02*
D03*
X163D02*
D03*
X263Y1580D02*
D03*
D58*
X1908Y115D02*
D03*
X291Y1207D02*
D03*
X540Y1534D02*
D03*
X1564Y1695D02*
D03*
X2104Y357D02*
D03*
X1150Y45D02*
D03*
X1163Y1259D02*
D03*
X264Y943D02*
D03*
X357Y1143D02*
D03*
X1836Y1059D02*
D03*
X1776Y1030D02*
D03*
X2030Y885D02*
D03*
X1773Y1154D02*
D03*
X1174Y1535D02*
D03*
Y1675D02*
D03*
X324Y301D02*
D03*
X184D02*
D03*
X602Y817D02*
D03*
X1869Y242D02*
D03*
X2223Y71D02*
D03*
X1772Y202D02*
D03*
X1758Y85D02*
D03*
X1479Y40D02*
D03*
X1962Y838D02*
D03*
X1857D02*
D03*
X1757D02*
D03*
X2129Y1058D02*
D03*
X1542Y443D02*
D03*
X1372Y471D02*
D03*
X281Y1043D02*
D03*
X369Y580D02*
D03*
X487Y452D02*
D03*
X603Y360D02*
D03*
X313Y853D02*
D03*
X437Y973D02*
D03*
X1389Y1622D02*
D03*
Y1682D02*
D03*
X1227Y947D02*
D03*
X1104Y1412D02*
D03*
X1563Y1302D02*
D03*
X1583Y1401D02*
D03*
X1630Y995D02*
D03*
X1697Y1038D02*
D03*
X1572D02*
D03*
X1497Y948D02*
D03*
X1607Y798D02*
D03*
X1421Y659D02*
D03*
X1515Y775D02*
D03*
X1667Y778D02*
D03*
X1592Y578D02*
D03*
X1784Y553D02*
D03*
X1917Y663D02*
D03*
X1847Y529D02*
D03*
X1876Y1118D02*
D03*
X525Y1050D02*
D03*
X192Y1349D02*
D03*
X261Y1420D02*
D03*
X419Y1277D02*
D03*
X486D02*
D03*
X238Y1208D02*
D03*
X210Y1239D02*
D03*
X1356Y1221D02*
D03*
Y1101D02*
D03*
X1105Y1205D02*
D03*
X1049Y1268D02*
D03*
X1489Y1273D02*
D03*
X909Y1378D02*
D03*
X841Y1513D02*
D03*
X1068D02*
D03*
X1040Y1094D02*
D03*
X976D02*
D03*
X1414Y623D02*
D03*
X1078Y1037D02*
D03*
X951Y1056D02*
D03*
X1049Y896D02*
D03*
X832Y895D02*
D03*
X1344Y882D02*
D03*
X1400Y783D02*
D03*
X408Y128D02*
D03*
X638Y138D02*
D03*
X917Y45D02*
D03*
X750Y105D02*
D03*
X755Y224D02*
D03*
X710Y60D02*
D03*
X752Y165D02*
D03*
X828Y1051D02*
D03*
X869Y794D02*
D03*
X1668Y586D02*
D03*
X1873Y935D02*
D03*
X2118Y250D02*
D03*
X2135Y54D02*
D03*
X848Y1380D02*
D03*
X1188Y1060D02*
D03*
X1248Y790D02*
D03*
X1923Y455D02*
D03*
X318Y942D02*
D03*
X1694Y1294D02*
D03*
X1520Y1221D02*
D03*
X2163Y195D02*
D03*
X2273Y397D02*
D03*
X2036Y1022D02*
D03*
X2164Y1056D02*
D03*
X2061Y831D02*
D03*
X2270Y967D02*
D03*
X2151Y640D02*
D03*
Y580D02*
D03*
Y520D02*
D03*
X828Y741D02*
D03*
X1080Y140D02*
D03*
X905Y595D02*
D03*
X635Y1085D02*
D03*
X680Y1190D02*
D03*
X520Y1200D02*
D03*
X635Y1595D02*
D03*
X580Y1510D02*
D03*
X480Y1770D02*
D03*
M02*
