%FSLAX23Y23*%
%MOIN*%
G70*
G01*
G75*
G04 Layer_Color=2752767*
%ADD10R,0.030X0.030*%
%ADD11R,0.030X0.030*%
%ADD12R,0.025X0.055*%
%ADD13R,0.025X0.095*%
%ADD14R,0.040X0.055*%
%ADD15R,0.055X0.040*%
%ADD16R,0.036X0.050*%
%ADD17R,0.036X0.036*%
%ADD18R,0.060X0.050*%
%ADD19R,0.150X0.050*%
%ADD20C,0.012*%
%ADD21R,0.024X0.024*%
%ADD22R,0.036X0.036*%
%ADD23R,0.050X0.036*%
%ADD24R,0.047X0.047*%
%ADD25R,0.047X0.047*%
%ADD26R,0.039X0.039*%
%ADD27R,0.039X0.020*%
%ADD28O,0.016X0.060*%
%ADD29R,0.020X0.050*%
%ADD30O,0.016X0.060*%
%ADD31O,0.024X0.080*%
%ADD32O,0.060X0.016*%
%ADD33R,0.059X0.031*%
%ADD34R,0.031X0.059*%
%ADD35R,0.090X0.024*%
%ADD36R,0.024X0.100*%
%ADD37R,0.070X0.024*%
%ADD38R,0.024X0.090*%
%ADD39R,0.055X0.025*%
%ADD40R,0.095X0.025*%
%ADD41R,0.020X0.030*%
%ADD42C,0.014*%
%ADD43C,0.012*%
%ADD44C,0.010*%
%ADD45C,0.030*%
%ADD46C,0.020*%
%ADD47C,0.008*%
%ADD48C,0.009*%
%ADD49C,0.005*%
%ADD50C,0.015*%
%ADD51C,0.045*%
%ADD52C,0.075*%
%ADD53C,0.140*%
%ADD54C,0.060*%
%ADD55C,0.062*%
%ADD56R,0.062X0.062*%
%ADD57C,0.110*%
%ADD58C,0.022*%
%ADD59C,0.010*%
%ADD60C,0.006*%
%ADD61R,0.038X0.038*%
%ADD62R,0.038X0.038*%
%ADD63R,0.033X0.063*%
%ADD64R,0.033X0.103*%
%ADD65R,0.048X0.063*%
%ADD66R,0.063X0.048*%
%ADD67R,0.044X0.058*%
%ADD68R,0.044X0.044*%
%ADD69R,0.068X0.058*%
%ADD70R,0.158X0.058*%
%ADD71C,0.020*%
%ADD72R,0.032X0.032*%
%ADD73R,0.044X0.044*%
%ADD74R,0.058X0.044*%
%ADD75R,0.055X0.055*%
%ADD76R,0.055X0.055*%
%ADD77R,0.047X0.047*%
%ADD78R,0.047X0.028*%
%ADD79O,0.024X0.068*%
%ADD80R,0.028X0.058*%
%ADD81O,0.024X0.068*%
%ADD82O,0.032X0.088*%
%ADD83O,0.068X0.024*%
%ADD84R,0.067X0.039*%
%ADD85R,0.039X0.067*%
%ADD86R,0.098X0.032*%
%ADD87R,0.032X0.108*%
%ADD88R,0.078X0.032*%
%ADD89R,0.032X0.098*%
%ADD90R,0.063X0.033*%
%ADD91R,0.103X0.033*%
%ADD92R,0.028X0.038*%
%ADD93C,0.053*%
%ADD94C,0.083*%
%ADD95C,0.148*%
%ADD96C,0.068*%
%ADD97C,0.070*%
%ADD98R,0.070X0.070*%
%ADD99C,0.118*%
%ADD100C,0.030*%
%ADD101C,0.025*%
%ADD102C,0.007*%
%ADD103C,0.010*%
D44*
X2163Y1304D02*
G03*
X2163Y1304I-65J0D01*
G01*
X-50Y1910D02*
X2320D01*
Y-60D02*
Y1910D01*
X-50Y-60D02*
X2320D01*
X-50Y-60D02*
Y1910D01*
X3352Y-1301D02*
G03*
X3303Y-1252I-49J0D01*
G01*
X2202D02*
G03*
X2152Y-1302I0J-50D01*
G01*
X3302Y-1202D02*
G03*
X3352Y-1152I0J50D01*
G01*
X2152D02*
G03*
X2202Y-1202I50J0D01*
G01*
X-898Y-477D02*
G03*
X-998Y-577I0J-100D01*
G01*
Y-1676D02*
G03*
X-899Y-1777I101J0D01*
G01*
X3302Y-1777D02*
G03*
X3402Y-1677I0J100D01*
G01*
Y-577D02*
G03*
X3302Y-477I-100J0D01*
G01*
X3352Y-576D02*
G03*
X3301Y-527I-49J0D01*
G01*
X3302Y-1477D02*
G03*
X3352Y-1427I0J50D01*
G01*
X3352Y-1576D02*
G03*
X3302Y-1527I-50J-1D01*
G01*
Y-1727D02*
G03*
X3352Y-1677I0J50D01*
G01*
X2052Y-1477D02*
G03*
X2102Y-1427I0J50D01*
G01*
X2152Y-1428D02*
G03*
X2202Y-1477I49J0D01*
G01*
X2102Y-1301D02*
G03*
X2053Y-1252I-49J0D01*
G01*
X-948Y-1677D02*
G03*
X-899Y-1727I50J0D01*
G01*
X2053Y-1202D02*
G03*
X2102Y-1152I-1J50D01*
G01*
X-898Y-1527D02*
G03*
X-948Y-1577I0J-50D01*
G01*
X2102Y-827D02*
G03*
X2052Y-777I-50J0D01*
G01*
Y-727D02*
G03*
X2102Y-677I0J50D01*
G01*
X2202Y-527D02*
G03*
X2152Y-577I0J-50D01*
G01*
X2102D02*
G03*
X2052Y-527I-50J0D01*
G01*
X-898D02*
G03*
X-948Y-577I0J-50D01*
G01*
Y-677D02*
G03*
X-898Y-727I50J0D01*
G01*
Y-777D02*
G03*
X-948Y-827I0J-50D01*
G01*
Y-1052D02*
G03*
X-898Y-1102I50J0D01*
G01*
Y-1152D02*
G03*
X-948Y-1202I0J-50D01*
G01*
Y-1427D02*
G03*
X-899Y-1477I50J0D01*
G01*
X2Y-777D02*
G03*
X-48Y-827I0J-50D01*
G01*
X2Y-1252D02*
G03*
X-48Y-1302I0J-50D01*
G01*
X1750Y-1252D02*
G03*
X1702Y-1302I0J-48D01*
G01*
X1702Y-1426D02*
G03*
X1752Y-1477I51J0D01*
G01*
X1603Y-1477D02*
G03*
X1652Y-1427I0J49D01*
G01*
X1652Y-1301D02*
G03*
X1603Y-1252I-49J0D01*
G01*
X-147Y-1477D02*
G03*
X-98Y-1428I0J49D01*
G01*
X-48D02*
G03*
X1Y-1477I49J0D01*
G01*
X-48Y-1153D02*
G03*
X1Y-1202I49J0D01*
G01*
X-98Y-1201D02*
G03*
X-149Y-1152I-49J0D01*
G01*
X-146Y-1102D02*
G03*
X-98Y-1054I0J48D01*
G01*
Y-826D02*
G03*
X-147Y-777I-49J0D01*
G01*
X2752Y-1527D02*
G03*
X2702Y-1577I0J-50D01*
G01*
Y-1678D02*
G03*
X2752Y-1727I49J0D01*
G01*
X2603Y-1727D02*
G03*
X2652Y-1677I1J48D01*
G01*
X2652Y-1577D02*
G03*
X2602Y-1527I-50J0D01*
G01*
X877Y-1677D02*
G03*
X926Y-1727I50J0D01*
G01*
X927Y-1527D02*
G03*
X877Y-1577I0J-50D01*
G01*
X778Y-1727D02*
G03*
X827Y-1677I1J48D01*
G01*
X827Y-1577D02*
G03*
X777Y-1527I-50J0D01*
G01*
X3352Y-1427D02*
Y-1301D01*
X2152Y-1427D02*
Y-1302D01*
X3352Y-1152D02*
Y-577D01*
X2152Y-1152D02*
Y-577D01*
X-998Y-1677D02*
Y-577D01*
X-948Y-1677D02*
Y-1577D01*
X3352Y-1677D02*
Y-1577D01*
X2102Y-1427D02*
Y-1302D01*
X1702Y-1427D02*
Y-1302D01*
X-48Y-1427D02*
Y-1302D01*
X1652Y-1427D02*
Y-1302D01*
X-48Y-1152D02*
Y-827D01*
X2102Y-1152D02*
Y-827D01*
Y-677D02*
Y-577D01*
X-948Y-677D02*
Y-577D01*
X-98Y-1052D02*
Y-827D01*
X-948Y-1052D02*
Y-827D01*
X-98Y-1427D02*
Y-1202D01*
X-948Y-1427D02*
Y-1202D01*
X3402Y-1677D02*
Y-577D01*
X2702Y-1677D02*
Y-1577D01*
X2652Y-1677D02*
Y-1577D01*
X877Y-1677D02*
Y-1577D01*
X827Y-1677D02*
Y-1577D01*
X2202Y-1252D02*
X3302D01*
X2202Y-1202D02*
X3302D01*
X2D02*
X2052D01*
X2202Y-527D02*
X3302D01*
X2202Y-1477D02*
X3302D01*
X1752Y-1252D02*
X2052D01*
X1752Y-1477D02*
X2052D01*
X2D02*
X1602D01*
X2Y-1252D02*
X1602D01*
X2Y-777D02*
X2052D01*
X-898Y-727D02*
X2052D01*
X-898Y-777D02*
X-148D01*
X-898Y-1102D02*
X-148D01*
X-898Y-1152D02*
X-148D01*
X-898Y-1477D02*
X-148D01*
X-898Y-477D02*
X3302D01*
X-898Y-1777D02*
X3302D01*
X-898Y-527D02*
X2052D01*
X2752Y-1527D02*
X3302D01*
X2752Y-1727D02*
X3302D01*
X927Y-1527D02*
X2602D01*
X-898D02*
X777D01*
X-898Y-1727D02*
X777D01*
X927D02*
X2602D01*
X2353Y-929D02*
Y-993D01*
Y-929D02*
X2380D01*
X2389Y-932D01*
X2392Y-935D01*
X2396Y-941D01*
Y-947D01*
X2392Y-953D01*
X2389Y-956D01*
X2380Y-959D01*
X2353D02*
X2380D01*
X2389Y-962D01*
X2392Y-965D01*
X2396Y-971D01*
Y-981D01*
X2392Y-987D01*
X2389Y-990D01*
X2380Y-993D01*
X2353D01*
X2425Y-950D02*
X2419Y-953D01*
X2413Y-959D01*
X2410Y-968D01*
Y-974D01*
X2413Y-984D01*
X2419Y-990D01*
X2425Y-993D01*
X2434D01*
X2440Y-990D01*
X2446Y-984D01*
X2449Y-974D01*
Y-968D01*
X2446Y-959D01*
X2440Y-953D01*
X2434Y-950D01*
X2425D01*
X2500Y-959D02*
X2494Y-953D01*
X2488Y-950D01*
X2479D01*
X2473Y-953D01*
X2467Y-959D01*
X2463Y-968D01*
Y-974D01*
X2467Y-984D01*
X2473Y-990D01*
X2479Y-993D01*
X2488D01*
X2494Y-990D01*
X2500Y-984D01*
X2550Y-950D02*
Y-993D01*
Y-959D02*
X2544Y-953D01*
X2538Y-950D01*
X2529D01*
X2523Y-953D01*
X2517Y-959D01*
X2514Y-968D01*
Y-974D01*
X2517Y-984D01*
X2523Y-990D01*
X2529Y-993D01*
X2538D01*
X2544Y-990D01*
X2550Y-984D01*
X2618Y-929D02*
Y-993D01*
Y-929D02*
X2645D01*
X2654Y-932D01*
X2657Y-935D01*
X2660Y-941D01*
Y-947D01*
X2657Y-953D01*
X2654Y-956D01*
X2645Y-959D01*
X2618D01*
X2639D02*
X2660Y-993D01*
X2711Y-950D02*
Y-993D01*
Y-959D02*
X2705Y-953D01*
X2699Y-950D01*
X2690D01*
X2684Y-953D01*
X2678Y-959D01*
X2675Y-968D01*
Y-974D01*
X2678Y-984D01*
X2684Y-990D01*
X2690Y-993D01*
X2699D01*
X2705Y-990D01*
X2711Y-984D01*
X2737Y-929D02*
Y-981D01*
X2740Y-990D01*
X2747Y-993D01*
X2753D01*
X2728Y-950D02*
X2750D01*
X2777D02*
X2771Y-953D01*
X2765Y-959D01*
X2762Y-968D01*
Y-974D01*
X2765Y-984D01*
X2771Y-990D01*
X2777Y-993D01*
X2786D01*
X2792Y-990D01*
X2798Y-984D01*
X2801Y-974D01*
Y-968D01*
X2798Y-959D01*
X2792Y-953D01*
X2786Y-950D01*
X2777D01*
X2815D02*
Y-993D01*
Y-962D02*
X2825Y-953D01*
X2831Y-950D01*
X2840D01*
X2846Y-953D01*
X2849Y-962D01*
Y-993D01*
X2916Y-929D02*
Y-993D01*
Y-929D02*
X2956D01*
X2916Y-959D02*
X2940D01*
X2963Y-929D02*
Y-993D01*
X2999D01*
X3009Y-987D02*
X3006Y-990D01*
X3009Y-993D01*
X3013Y-990D01*
X3009Y-987D01*
X2232Y-750D02*
X2229Y-759D01*
X2223Y-765D01*
X2214Y-768D01*
X2211D01*
X2202Y-765D01*
X2196Y-759D01*
X2193Y-750D01*
Y-747D01*
X2196Y-738D01*
X2202Y-732D01*
X2211Y-729D01*
X2214D01*
X2223Y-732D01*
X2229Y-738D01*
X2232Y-750D01*
Y-765D01*
X2229Y-781D01*
X2223Y-790D01*
X2214Y-793D01*
X2208D01*
X2199Y-790D01*
X2196Y-784D01*
X2268Y-729D02*
X2259Y-732D01*
X2253Y-741D01*
X2250Y-756D01*
Y-765D01*
X2253Y-781D01*
X2259Y-790D01*
X2268Y-793D01*
X2274D01*
X2283Y-790D01*
X2289Y-781D01*
X2292Y-765D01*
Y-756D01*
X2289Y-741D01*
X2283Y-732D01*
X2274Y-729D01*
X2268D01*
X2310Y-744D02*
Y-741D01*
X2313Y-735D01*
X2316Y-732D01*
X2322Y-729D01*
X2334D01*
X2340Y-732D01*
X2343Y-735D01*
X2346Y-741D01*
Y-747D01*
X2343Y-753D01*
X2337Y-762D01*
X2307Y-793D01*
X2349D01*
X2460Y-744D02*
X2457Y-738D01*
X2451Y-732D01*
X2445Y-729D01*
X2432D01*
X2426Y-732D01*
X2420Y-738D01*
X2417Y-744D01*
X2414Y-753D01*
Y-768D01*
X2417Y-777D01*
X2420Y-784D01*
X2426Y-790D01*
X2432Y-793D01*
X2445D01*
X2451Y-790D01*
X2457Y-784D01*
X2460Y-777D01*
X2478Y-729D02*
Y-793D01*
X2497Y-729D02*
X2500Y-732D01*
X2503Y-729D01*
X2500Y-726D01*
X2497Y-729D01*
X2500Y-750D02*
Y-793D01*
X2515Y-750D02*
Y-793D01*
Y-762D02*
X2524Y-753D01*
X2530Y-750D01*
X2539D01*
X2545Y-753D01*
X2548Y-762D01*
Y-793D01*
X2574Y-729D02*
Y-781D01*
X2577Y-790D01*
X2583Y-793D01*
X2589D01*
X2565Y-750D02*
X2586D01*
X2649Y-729D02*
Y-793D01*
Y-729D02*
X2673Y-793D01*
X2697Y-729D02*
X2673Y-793D01*
X2697Y-729D02*
Y-793D01*
X2731Y-750D02*
X2725Y-753D01*
X2719Y-759D01*
X2716Y-768D01*
Y-774D01*
X2719Y-784D01*
X2725Y-790D01*
X2731Y-793D01*
X2740D01*
X2746Y-790D01*
X2752Y-784D01*
X2755Y-774D01*
Y-768D01*
X2752Y-759D01*
X2746Y-753D01*
X2740Y-750D01*
X2731D01*
X2785D02*
X2778Y-753D01*
X2772Y-759D01*
X2769Y-768D01*
Y-774D01*
X2772Y-784D01*
X2778Y-790D01*
X2785Y-793D01*
X2794D01*
X2800Y-790D01*
X2806Y-784D01*
X2809Y-774D01*
Y-768D01*
X2806Y-759D01*
X2800Y-753D01*
X2794Y-750D01*
X2785D01*
X2823D02*
Y-793D01*
Y-768D02*
X2826Y-759D01*
X2832Y-753D01*
X2838Y-750D01*
X2847D01*
X2853Y-768D02*
X2890D01*
Y-762D01*
X2887Y-756D01*
X2884Y-753D01*
X2878Y-750D01*
X2868D01*
X2862Y-753D01*
X2856Y-759D01*
X2853Y-768D01*
Y-774D01*
X2856Y-784D01*
X2862Y-790D01*
X2868Y-793D01*
X2878D01*
X2884Y-790D01*
X2890Y-784D01*
X2954Y-729D02*
Y-793D01*
Y-729D02*
X2981D01*
X2990Y-732D01*
X2993Y-735D01*
X2996Y-741D01*
Y-747D01*
X2993Y-753D01*
X2990Y-756D01*
X2981Y-759D01*
X2954D01*
X2975D02*
X2996Y-793D01*
X3047Y-729D02*
Y-793D01*
Y-759D02*
X3041Y-753D01*
X3035Y-750D01*
X3026D01*
X3020Y-753D01*
X3014Y-759D01*
X3011Y-768D01*
Y-774D01*
X3014Y-784D01*
X3020Y-790D01*
X3026Y-793D01*
X3035D01*
X3041Y-790D01*
X3047Y-784D01*
X3067Y-787D02*
X3064Y-790D01*
X3067Y-793D01*
X3070Y-790D01*
X3067Y-787D01*
X2444Y-1049D02*
X2414D01*
X2411Y-1076D01*
X2414Y-1073D01*
X2423Y-1070D01*
X2432D01*
X2441Y-1073D01*
X2447Y-1079D01*
X2451Y-1088D01*
Y-1094D01*
X2447Y-1104D01*
X2441Y-1110D01*
X2432Y-1113D01*
X2423D01*
X2414Y-1110D01*
X2411Y-1107D01*
X2408Y-1101D01*
X2501Y-1058D02*
X2498Y-1052D01*
X2489Y-1049D01*
X2483D01*
X2474Y-1052D01*
X2468Y-1061D01*
X2465Y-1076D01*
Y-1091D01*
X2468Y-1104D01*
X2474Y-1110D01*
X2483Y-1113D01*
X2486D01*
X2495Y-1110D01*
X2501Y-1104D01*
X2504Y-1094D01*
Y-1091D01*
X2501Y-1082D01*
X2495Y-1076D01*
X2486Y-1073D01*
X2483D01*
X2474Y-1076D01*
X2468Y-1082D01*
X2465Y-1091D01*
X2518Y-1061D02*
X2525Y-1058D01*
X2534Y-1049D01*
Y-1113D01*
X2565Y-1085D02*
X2620D01*
X2679Y-1070D02*
X2676Y-1079D01*
X2670Y-1085D01*
X2660Y-1088D01*
X2657D01*
X2648Y-1085D01*
X2642Y-1079D01*
X2639Y-1070D01*
Y-1067D01*
X2642Y-1058D01*
X2648Y-1052D01*
X2657Y-1049D01*
X2660D01*
X2670Y-1052D01*
X2676Y-1058D01*
X2679Y-1070D01*
Y-1085D01*
X2676Y-1101D01*
X2670Y-1110D01*
X2660Y-1113D01*
X2654D01*
X2645Y-1110D01*
X2642Y-1104D01*
X2736Y-1070D02*
X2733Y-1079D01*
X2727Y-1085D01*
X2717Y-1088D01*
X2714D01*
X2705Y-1085D01*
X2699Y-1079D01*
X2696Y-1070D01*
Y-1067D01*
X2699Y-1058D01*
X2705Y-1052D01*
X2714Y-1049D01*
X2717D01*
X2727Y-1052D01*
X2733Y-1058D01*
X2736Y-1070D01*
Y-1085D01*
X2733Y-1101D01*
X2727Y-1110D01*
X2717Y-1113D01*
X2711D01*
X2702Y-1110D01*
X2699Y-1104D01*
X2793Y-1070D02*
X2790Y-1079D01*
X2784Y-1085D01*
X2774Y-1088D01*
X2771D01*
X2762Y-1085D01*
X2756Y-1079D01*
X2753Y-1070D01*
Y-1067D01*
X2756Y-1058D01*
X2762Y-1052D01*
X2771Y-1049D01*
X2774D01*
X2784Y-1052D01*
X2790Y-1058D01*
X2793Y-1070D01*
Y-1085D01*
X2790Y-1101D01*
X2784Y-1110D01*
X2774Y-1113D01*
X2768D01*
X2759Y-1110D01*
X2756Y-1104D01*
X2810Y-1085D02*
X2865D01*
X2923Y-1070D02*
X2920Y-1079D01*
X2914Y-1085D01*
X2905Y-1088D01*
X2902D01*
X2893Y-1085D01*
X2887Y-1079D01*
X2884Y-1070D01*
Y-1067D01*
X2887Y-1058D01*
X2893Y-1052D01*
X2902Y-1049D01*
X2905D01*
X2914Y-1052D01*
X2920Y-1058D01*
X2923Y-1070D01*
Y-1085D01*
X2920Y-1101D01*
X2914Y-1110D01*
X2905Y-1113D01*
X2899D01*
X2890Y-1110D01*
X2887Y-1104D01*
X2971Y-1049D02*
X2941Y-1091D01*
X2986D01*
X2971Y-1049D02*
Y-1113D01*
X3001Y-1064D02*
Y-1061D01*
X3004Y-1055D01*
X3007Y-1052D01*
X3013Y-1049D01*
X3025D01*
X3031Y-1052D01*
X3034Y-1055D01*
X3037Y-1061D01*
Y-1067D01*
X3034Y-1073D01*
X3028Y-1082D01*
X2998Y-1113D01*
X3040D01*
X3058Y-1064D02*
Y-1061D01*
X3061Y-1055D01*
X3064Y-1052D01*
X3070Y-1049D01*
X3082D01*
X3088Y-1052D01*
X3091Y-1055D01*
X3094Y-1061D01*
Y-1067D01*
X3091Y-1073D01*
X3085Y-1082D01*
X3055Y-1113D01*
X3097D01*
X2531Y-843D02*
X2524Y-837D01*
X2515Y-834D01*
X2503D01*
X2494Y-837D01*
X2488Y-843D01*
Y-849D01*
X2491Y-855D01*
X2494Y-858D01*
X2500Y-861D01*
X2518Y-867D01*
X2524Y-870D01*
X2527Y-873D01*
X2531Y-879D01*
Y-889D01*
X2524Y-895D01*
X2515Y-898D01*
X2503D01*
X2494Y-895D01*
X2488Y-889D01*
X2545Y-855D02*
Y-886D01*
X2548Y-895D01*
X2554Y-898D01*
X2563D01*
X2569Y-895D01*
X2578Y-886D01*
Y-855D02*
Y-898D01*
X2601Y-834D02*
X2604Y-837D01*
X2607Y-834D01*
X2604Y-831D01*
X2601Y-834D01*
X2604Y-855D02*
Y-898D01*
X2628Y-834D02*
Y-886D01*
X2631Y-895D01*
X2637Y-898D01*
X2643D01*
X2619Y-855D02*
X2640D01*
X2652Y-873D02*
X2689D01*
Y-867D01*
X2686Y-861D01*
X2683Y-858D01*
X2676Y-855D01*
X2667D01*
X2661Y-858D01*
X2655Y-864D01*
X2652Y-873D01*
Y-879D01*
X2655Y-889D01*
X2661Y-895D01*
X2667Y-898D01*
X2676D01*
X2683Y-895D01*
X2689Y-889D01*
X2753Y-846D02*
X2759Y-843D01*
X2768Y-834D01*
Y-898D01*
X2800Y-846D02*
X2806Y-843D01*
X2815Y-834D01*
Y-898D01*
X2862Y-834D02*
X2853Y-837D01*
X2850Y-843D01*
Y-849D01*
X2853Y-855D01*
X2859Y-858D01*
X2871Y-861D01*
X2880Y-864D01*
X2886Y-870D01*
X2889Y-876D01*
Y-886D01*
X2886Y-892D01*
X2883Y-895D01*
X2874Y-898D01*
X2862D01*
X2853Y-895D01*
X2850Y-892D01*
X2846Y-886D01*
Y-876D01*
X2850Y-870D01*
X2856Y-864D01*
X2865Y-861D01*
X2877Y-858D01*
X2883Y-855D01*
X2886Y-849D01*
Y-843D01*
X2883Y-837D01*
X2874Y-834D01*
X2862D01*
X-386Y-60D02*
X-50D01*
Y1910D02*
Y2170D01*
X2320Y1910D02*
Y2170D01*
Y2160D02*
Y2180D01*
X-50Y2160D02*
Y2180D01*
X2200Y2130D02*
X2320Y2170D01*
X2200Y2210D02*
X2320Y2170D01*
X-50D02*
X70Y2130D01*
X-50Y2170D02*
X70Y2210D01*
X1594Y2170D02*
X2320D01*
X-50D02*
X677D01*
X-386Y1910D02*
X-50D01*
X-396D02*
X-376D01*
X-396Y-60D02*
X-376D01*
X-386Y1910D02*
X-346Y1790D01*
X-426D02*
X-386Y1910D01*
Y-60D02*
X-346Y60D01*
X-426D02*
X-386Y-60D01*
Y1374D02*
Y1910D01*
Y-60D02*
Y476D01*
D46*
X693Y2150D02*
Y2156D01*
X698Y2167D01*
X704Y2173D01*
X715Y2179D01*
X738D01*
X750Y2173D01*
X755Y2167D01*
X761Y2156D01*
Y2144D01*
X755Y2133D01*
X744Y2116D01*
X687Y2059D01*
X767D01*
X805Y2179D02*
X868D01*
X834Y2133D01*
X851D01*
X862Y2127D01*
X868Y2121D01*
X874Y2104D01*
Y2093D01*
X868Y2076D01*
X857Y2064D01*
X839Y2059D01*
X822D01*
X805Y2064D01*
X799Y2070D01*
X794Y2081D01*
X980Y2179D02*
X923Y2059D01*
X901Y2179D02*
X980D01*
X1042D02*
X1024Y2173D01*
X1013Y2156D01*
X1007Y2127D01*
Y2110D01*
X1013Y2081D01*
X1024Y2064D01*
X1042Y2059D01*
X1053D01*
X1070Y2064D01*
X1082Y2081D01*
X1087Y2110D01*
Y2127D01*
X1082Y2156D01*
X1070Y2173D01*
X1053Y2179D01*
X1042D01*
X1248Y2201D02*
X1237Y2190D01*
X1226Y2173D01*
X1214Y2150D01*
X1208Y2121D01*
Y2099D01*
X1214Y2070D01*
X1226Y2047D01*
X1237Y2030D01*
X1248Y2019D01*
X1237Y2190D02*
X1226Y2167D01*
X1220Y2150D01*
X1214Y2121D01*
Y2099D01*
X1220Y2070D01*
X1226Y2053D01*
X1237Y2030D01*
X1271Y2139D02*
Y2059D01*
Y2116D02*
X1288Y2133D01*
X1300Y2139D01*
X1317D01*
X1328Y2133D01*
X1334Y2116D01*
Y2059D01*
Y2116D02*
X1351Y2133D01*
X1363Y2139D01*
X1380D01*
X1391Y2133D01*
X1397Y2116D01*
Y2059D01*
X1446Y2179D02*
X1452Y2173D01*
X1458Y2179D01*
X1452Y2184D01*
X1446Y2179D01*
X1452Y2139D02*
Y2059D01*
X1479Y2179D02*
Y2059D01*
X1504Y2201D02*
X1515Y2190D01*
X1527Y2173D01*
X1538Y2150D01*
X1544Y2121D01*
Y2099D01*
X1538Y2070D01*
X1527Y2047D01*
X1515Y2030D01*
X1504Y2019D01*
X1515Y2190D02*
X1527Y2167D01*
X1532Y2150D01*
X1538Y2121D01*
Y2099D01*
X1532Y2070D01*
X1527Y2053D01*
X1515Y2030D01*
X-371Y486D02*
X-377Y497D01*
X-394Y515D01*
X-274D01*
X-354Y648D02*
X-337Y642D01*
X-326Y631D01*
X-320Y614D01*
Y608D01*
X-326Y591D01*
X-337Y580D01*
X-354Y574D01*
X-360D01*
X-377Y580D01*
X-389Y591D01*
X-394Y608D01*
Y614D01*
X-389Y631D01*
X-377Y642D01*
X-354Y648D01*
X-326D01*
X-297Y642D01*
X-280Y631D01*
X-274Y614D01*
Y602D01*
X-280Y585D01*
X-291Y580D01*
X-394Y761D02*
X-274Y704D01*
X-394Y681D02*
Y761D01*
Y822D02*
X-389Y805D01*
X-371Y793D01*
X-343Y788D01*
X-326D01*
X-297Y793D01*
X-280Y805D01*
X-274Y822D01*
Y833D01*
X-280Y850D01*
X-297Y862D01*
X-326Y868D01*
X-343D01*
X-371Y862D01*
X-389Y850D01*
X-394Y833D01*
Y822D01*
X-417Y1029D02*
X-406Y1017D01*
X-389Y1006D01*
X-366Y994D01*
X-337Y989D01*
X-314D01*
X-286Y994D01*
X-263Y1006D01*
X-246Y1017D01*
X-234Y1029D01*
X-406Y1017D02*
X-383Y1006D01*
X-366Y1000D01*
X-337Y994D01*
X-314D01*
X-286Y1000D01*
X-269Y1006D01*
X-246Y1017D01*
X-354Y1052D02*
X-274D01*
X-331D02*
X-349Y1069D01*
X-354Y1080D01*
Y1097D01*
X-349Y1109D01*
X-331Y1114D01*
X-274D01*
X-331D02*
X-349Y1132D01*
X-354Y1143D01*
Y1160D01*
X-349Y1172D01*
X-331Y1177D01*
X-274D01*
X-394Y1226D02*
X-389Y1232D01*
X-394Y1238D01*
X-400Y1232D01*
X-394Y1226D01*
X-354Y1232D02*
X-274D01*
X-394Y1259D02*
X-274D01*
X-417Y1284D02*
X-406Y1295D01*
X-389Y1307D01*
X-366Y1318D01*
X-337Y1324D01*
X-314D01*
X-286Y1318D01*
X-263Y1307D01*
X-246Y1295D01*
X-234Y1284D01*
X-406Y1295D02*
X-383Y1307D01*
X-366Y1313D01*
X-337Y1318D01*
X-314D01*
X-286Y1313D01*
X-269Y1307D01*
X-246Y1295D01*
D47*
X-490Y-1205D02*
Y-1245D01*
X-492Y-1253D01*
X-495Y-1255D01*
X-500Y-1258D01*
X-505D01*
X-510Y-1255D01*
X-513Y-1253D01*
X-515Y-1245D01*
Y-1240D01*
X-474Y-1253D02*
X-476Y-1255D01*
X-474Y-1258D01*
X-471Y-1255D01*
X-474Y-1253D01*
X-459Y-1205D02*
Y-1258D01*
Y-1205D02*
X-424Y-1258D01*
Y-1205D02*
Y-1258D01*
X675Y-1066D02*
Y-1146D01*
X648Y-1066D02*
X701D01*
X711D02*
Y-1146D01*
Y-1066D02*
X745D01*
X757Y-1070D01*
X760Y-1074D01*
X764Y-1081D01*
Y-1089D01*
X760Y-1096D01*
X757Y-1100D01*
X745Y-1104D01*
X711D01*
X738D02*
X764Y-1146D01*
X843D02*
X813Y-1066D01*
X782Y-1146D01*
X793Y-1119D02*
X832D01*
X862Y-1066D02*
Y-1146D01*
Y-1066D02*
X915Y-1146D01*
Y-1066D02*
Y-1146D01*
X990Y-1077D02*
X983Y-1070D01*
X971Y-1066D01*
X956D01*
X945Y-1070D01*
X937Y-1077D01*
Y-1085D01*
X941Y-1093D01*
X945Y-1096D01*
X952Y-1100D01*
X975Y-1108D01*
X983Y-1112D01*
X987Y-1116D01*
X990Y-1123D01*
Y-1135D01*
X983Y-1142D01*
X971Y-1146D01*
X956D01*
X945Y-1142D01*
X937Y-1135D01*
X1065Y-1085D02*
X1062Y-1077D01*
X1054Y-1070D01*
X1046Y-1066D01*
X1031D01*
X1024Y-1070D01*
X1016Y-1077D01*
X1012Y-1085D01*
X1008Y-1096D01*
Y-1116D01*
X1012Y-1127D01*
X1016Y-1135D01*
X1024Y-1142D01*
X1031Y-1146D01*
X1046D01*
X1054Y-1142D01*
X1062Y-1135D01*
X1065Y-1127D01*
X1137Y-1066D02*
X1088D01*
Y-1146D01*
X1137D01*
X1088Y-1104D02*
X1118D01*
X1151Y-1066D02*
Y-1146D01*
X1168Y-1066D02*
X1198Y-1146D01*
X1228Y-1066D02*
X1198Y-1146D01*
X1288Y-1066D02*
X1239D01*
Y-1146D01*
X1288D01*
X1239Y-1104D02*
X1269D01*
X1302Y-1066D02*
Y-1146D01*
Y-1066D02*
X1336D01*
X1347Y-1070D01*
X1351Y-1074D01*
X1355Y-1081D01*
Y-1089D01*
X1351Y-1096D01*
X1347Y-1100D01*
X1336Y-1104D01*
X1302D01*
X1328D02*
X1355Y-1146D01*
D48*
X1914Y-1371D02*
X1919Y-1369D01*
X1927Y-1361D01*
Y-1414D01*
X1966Y-1361D02*
X1958Y-1364D01*
X1956Y-1369D01*
Y-1374D01*
X1958Y-1379D01*
X1964Y-1381D01*
X1974Y-1384D01*
X1981Y-1386D01*
X1986Y-1392D01*
X1989Y-1397D01*
Y-1404D01*
X1986Y-1409D01*
X1984Y-1412D01*
X1976Y-1414D01*
X1966D01*
X1958Y-1412D01*
X1956Y-1409D01*
X1953Y-1404D01*
Y-1397D01*
X1956Y-1392D01*
X1961Y-1386D01*
X1969Y-1384D01*
X1979Y-1381D01*
X1984Y-1379D01*
X1986Y-1374D01*
Y-1369D01*
X1984Y-1364D01*
X1976Y-1361D01*
X1966D01*
X796Y-874D02*
Y-970D01*
X764Y-874D02*
X828D01*
X839D02*
Y-970D01*
Y-874D02*
X881D01*
X894Y-879D01*
X899Y-883D01*
X903Y-892D01*
Y-901D01*
X899Y-911D01*
X894Y-915D01*
X881Y-920D01*
X839D01*
X871D02*
X903Y-970D01*
X925Y-874D02*
X989Y-970D01*
Y-874D02*
X925Y-970D01*
X1010Y-929D02*
X1093D01*
X1121Y-892D02*
X1130Y-888D01*
X1144Y-874D01*
Y-970D01*
X1219Y-874D02*
X1205Y-879D01*
X1196Y-892D01*
X1191Y-915D01*
Y-929D01*
X1196Y-952D01*
X1205Y-965D01*
X1219Y-970D01*
X1228D01*
X1242Y-965D01*
X1251Y-952D01*
X1255Y-929D01*
Y-915D01*
X1251Y-892D01*
X1242Y-879D01*
X1228Y-874D01*
X1219D01*
X1277Y-892D02*
X1286Y-888D01*
X1300Y-874D01*
Y-970D01*
X205Y-672D02*
X168Y-576D01*
X132Y-672D01*
X145Y-640D02*
X191D01*
X282Y-622D02*
X273Y-612D01*
X264Y-608D01*
X250D01*
X241Y-612D01*
X232Y-622D01*
X227Y-635D01*
Y-644D01*
X232Y-658D01*
X241Y-667D01*
X250Y-672D01*
X264D01*
X273Y-667D01*
X282Y-658D01*
X316Y-576D02*
Y-654D01*
X321Y-667D01*
X330Y-672D01*
X339D01*
X303Y-608D02*
X335D01*
X362Y-576D02*
X367Y-580D01*
X371Y-576D01*
X367Y-571D01*
X362Y-576D01*
X367Y-608D02*
Y-672D01*
X388Y-608D02*
X416Y-672D01*
X443Y-608D02*
X416Y-672D01*
X459Y-635D02*
X513D01*
Y-626D01*
X509Y-617D01*
X504Y-612D01*
X495Y-608D01*
X481D01*
X472Y-612D01*
X463Y-622D01*
X459Y-635D01*
Y-644D01*
X463Y-658D01*
X472Y-667D01*
X481Y-672D01*
X495D01*
X504Y-667D01*
X513Y-658D01*
X609Y-576D02*
X632Y-672D01*
X655Y-576D02*
X632Y-672D01*
X655Y-576D02*
X678Y-672D01*
X701Y-576D02*
X678Y-672D01*
X775Y-608D02*
Y-672D01*
Y-622D02*
X766Y-612D01*
X757Y-608D01*
X743D01*
X734Y-612D01*
X725Y-622D01*
X720Y-635D01*
Y-644D01*
X725Y-658D01*
X734Y-667D01*
X743Y-672D01*
X757D01*
X766Y-667D01*
X775Y-658D01*
X800Y-608D02*
X828Y-672D01*
X855Y-608D02*
X828Y-672D01*
X871Y-635D02*
X926D01*
Y-626D01*
X921Y-617D01*
X917Y-612D01*
X907Y-608D01*
X894D01*
X885Y-612D01*
X875Y-622D01*
X871Y-635D01*
Y-644D01*
X875Y-658D01*
X885Y-667D01*
X894Y-672D01*
X907D01*
X917Y-667D01*
X926Y-658D01*
X2632Y-1339D02*
X2624Y-1342D01*
X2619Y-1349D01*
X2617Y-1362D01*
Y-1370D01*
X2619Y-1382D01*
X2624Y-1390D01*
X2632Y-1392D01*
X2637D01*
X2644Y-1390D01*
X2650Y-1382D01*
X2652Y-1370D01*
Y-1362D01*
X2650Y-1349D01*
X2644Y-1342D01*
X2637Y-1339D01*
X2632D01*
X2695D02*
X2669D01*
X2667Y-1362D01*
X2669Y-1359D01*
X2677Y-1357D01*
X2684D01*
X2692Y-1359D01*
X2697Y-1364D01*
X2700Y-1372D01*
Y-1377D01*
X2697Y-1385D01*
X2692Y-1390D01*
X2684Y-1392D01*
X2677D01*
X2669Y-1390D01*
X2667Y-1387D01*
X2664Y-1382D01*
X2712Y-1400D02*
X2747Y-1339D01*
X2753Y-1352D02*
Y-1349D01*
X2756Y-1344D01*
X2758Y-1342D01*
X2763Y-1339D01*
X2773D01*
X2779Y-1342D01*
X2781Y-1344D01*
X2784Y-1349D01*
Y-1354D01*
X2781Y-1359D01*
X2776Y-1367D01*
X2751Y-1392D01*
X2786D01*
X2831Y-1357D02*
X2829Y-1364D01*
X2823Y-1370D01*
X2816Y-1372D01*
X2813D01*
X2806Y-1370D01*
X2801Y-1364D01*
X2798Y-1357D01*
Y-1354D01*
X2801Y-1347D01*
X2806Y-1342D01*
X2813Y-1339D01*
X2816D01*
X2823Y-1342D01*
X2829Y-1347D01*
X2831Y-1357D01*
Y-1370D01*
X2829Y-1382D01*
X2823Y-1390D01*
X2816Y-1392D01*
X2811D01*
X2803Y-1390D01*
X2801Y-1385D01*
X2846Y-1400D02*
X2881Y-1339D01*
X2887Y-1352D02*
Y-1349D01*
X2890Y-1344D01*
X2892Y-1342D01*
X2897Y-1339D01*
X2908D01*
X2913Y-1342D01*
X2915Y-1344D01*
X2918Y-1349D01*
Y-1354D01*
X2915Y-1359D01*
X2910Y-1367D01*
X2885Y-1392D01*
X2920D01*
X2947Y-1339D02*
X2940Y-1342D01*
X2935Y-1349D01*
X2932Y-1362D01*
Y-1370D01*
X2935Y-1382D01*
X2940Y-1390D01*
X2947Y-1392D01*
X2952D01*
X2960Y-1390D01*
X2965Y-1382D01*
X2968Y-1370D01*
Y-1362D01*
X2965Y-1349D01*
X2960Y-1342D01*
X2952Y-1339D01*
X2947D01*
X2995D02*
X2987Y-1342D01*
X2982Y-1349D01*
X2980Y-1362D01*
Y-1370D01*
X2982Y-1382D01*
X2987Y-1390D01*
X2995Y-1392D01*
X3000D01*
X3008Y-1390D01*
X3013Y-1382D01*
X3015Y-1370D01*
Y-1362D01*
X3013Y-1349D01*
X3008Y-1342D01*
X3000Y-1339D01*
X2995D01*
X3060Y-1357D02*
X3058Y-1364D01*
X3053Y-1370D01*
X3045Y-1372D01*
X3042D01*
X3035Y-1370D01*
X3030Y-1364D01*
X3027Y-1357D01*
Y-1354D01*
X3030Y-1347D01*
X3035Y-1342D01*
X3042Y-1339D01*
X3045D01*
X3053Y-1342D01*
X3058Y-1347D01*
X3060Y-1357D01*
Y-1370D01*
X3058Y-1382D01*
X3053Y-1390D01*
X3045Y-1392D01*
X3040D01*
X3032Y-1390D01*
X3030Y-1385D01*
D49*
X2202Y-1286D02*
Y-1339D01*
Y-1286D02*
X2220D01*
X2227Y-1289D01*
X2232Y-1294D01*
X2235Y-1299D01*
X2237Y-1306D01*
Y-1319D01*
X2235Y-1327D01*
X2232Y-1332D01*
X2227Y-1337D01*
X2220Y-1339D01*
X2202D01*
X2290D02*
X2270Y-1286D01*
X2249Y-1339D01*
X2257Y-1322D02*
X2282D01*
X2320Y-1286D02*
Y-1339D01*
X2302Y-1286D02*
X2338D01*
X2377D02*
X2344D01*
Y-1339D01*
X2377D01*
X2344Y-1311D02*
X2365D01*
X2389Y-1304D02*
X2386Y-1306D01*
X2389Y-1309D01*
X2391Y-1306D01*
X2389Y-1304D01*
Y-1334D02*
X2386Y-1337D01*
X2389Y-1339D01*
X2391Y-1337D01*
X2389Y-1334D01*
X1739Y-1286D02*
Y-1339D01*
Y-1286D02*
X1762D01*
X1770Y-1289D01*
X1772Y-1291D01*
X1775Y-1296D01*
Y-1301D01*
X1772Y-1306D01*
X1770Y-1309D01*
X1762Y-1311D01*
X1739D01*
X1757D02*
X1775Y-1339D01*
X1820Y-1286D02*
X1787D01*
Y-1339D01*
X1820D01*
X1787Y-1311D02*
X1807D01*
X1829Y-1286D02*
X1849Y-1339D01*
X1869Y-1286D02*
X1849Y-1339D01*
X1879Y-1304D02*
X1876Y-1306D01*
X1879Y-1309D01*
X1881Y-1306D01*
X1879Y-1304D01*
Y-1334D02*
X1876Y-1337D01*
X1879Y-1339D01*
X1881Y-1337D01*
X1879Y-1334D01*
X-898Y-1039D02*
X-875D01*
X-868Y-1036D01*
X-865Y-1034D01*
X-863Y-1029D01*
Y-1021D01*
X-865Y-1016D01*
X-868Y-1014D01*
X-875Y-1011D01*
X-898D01*
Y-1064D01*
X-851Y-1011D02*
Y-1064D01*
X-815Y-1011D02*
Y-1064D01*
X-851Y-1036D02*
X-815D01*
X-785Y-1011D02*
X-790Y-1014D01*
X-795Y-1019D01*
X-798Y-1024D01*
X-800Y-1031D01*
Y-1044D01*
X-798Y-1052D01*
X-795Y-1057D01*
X-790Y-1062D01*
X-785Y-1064D01*
X-775D01*
X-770Y-1062D01*
X-765Y-1057D01*
X-762Y-1052D01*
X-760Y-1044D01*
Y-1031D01*
X-762Y-1024D01*
X-765Y-1019D01*
X-770Y-1014D01*
X-775Y-1011D01*
X-785D01*
X-747D02*
Y-1064D01*
Y-1011D02*
X-712Y-1064D01*
Y-1011D02*
Y-1064D01*
X-664Y-1011D02*
X-697D01*
Y-1064D01*
X-664D01*
X-697Y-1036D02*
X-677D01*
X-653Y-1029D02*
X-655Y-1031D01*
X-653Y-1034D01*
X-650Y-1031D01*
X-653Y-1029D01*
Y-1059D02*
X-655Y-1062D01*
X-653Y-1064D01*
X-650Y-1062D01*
X-653Y-1059D01*
X-898Y-1414D02*
X-875D01*
X-868Y-1411D01*
X-865Y-1409D01*
X-863Y-1404D01*
Y-1396D01*
X-865Y-1391D01*
X-868Y-1389D01*
X-875Y-1386D01*
X-898D01*
Y-1439D01*
X-851Y-1386D02*
Y-1439D01*
X-815Y-1386D02*
Y-1439D01*
X-851Y-1411D02*
X-815D01*
X-785Y-1386D02*
X-790Y-1389D01*
X-795Y-1394D01*
X-798Y-1399D01*
X-800Y-1406D01*
Y-1419D01*
X-798Y-1427D01*
X-795Y-1432D01*
X-790Y-1437D01*
X-785Y-1439D01*
X-775D01*
X-770Y-1437D01*
X-765Y-1432D01*
X-762Y-1427D01*
X-760Y-1419D01*
Y-1406D01*
X-762Y-1399D01*
X-765Y-1394D01*
X-770Y-1389D01*
X-775Y-1386D01*
X-785D01*
X-747D02*
Y-1439D01*
Y-1386D02*
X-712Y-1439D01*
Y-1386D02*
Y-1439D01*
X-664Y-1386D02*
X-697D01*
Y-1439D01*
X-664D01*
X-697Y-1411D02*
X-677D01*
X-653Y-1404D02*
X-655Y-1406D01*
X-653Y-1409D01*
X-650Y-1406D01*
X-653Y-1404D01*
Y-1434D02*
X-655Y-1437D01*
X-653Y-1439D01*
X-650Y-1437D01*
X-653Y-1434D01*
X942Y-1564D02*
Y-1617D01*
X972D01*
X1019D02*
X998Y-1564D01*
X978Y-1617D01*
X986Y-1599D02*
X1011D01*
X1031Y-1564D02*
X1051Y-1589D01*
Y-1617D01*
X1072Y-1564D02*
X1051Y-1589D01*
X1112Y-1564D02*
X1079D01*
Y-1617D01*
X1112D01*
X1079Y-1589D02*
X1099D01*
X1121Y-1564D02*
Y-1617D01*
Y-1564D02*
X1143D01*
X1151Y-1566D01*
X1154Y-1569D01*
X1156Y-1574D01*
Y-1579D01*
X1154Y-1584D01*
X1151Y-1586D01*
X1143Y-1589D01*
X1121D01*
X1138D02*
X1156Y-1617D01*
X1171Y-1581D02*
X1168Y-1584D01*
X1171Y-1586D01*
X1173Y-1584D01*
X1171Y-1581D01*
Y-1612D02*
X1168Y-1614D01*
X1171Y-1617D01*
X1173Y-1614D01*
X1171Y-1612D01*
X-865Y-824D02*
X-898D01*
Y-877D01*
X-865D01*
X-898Y-849D02*
X-878D01*
X-856Y-824D02*
Y-877D01*
Y-824D02*
X-821Y-877D01*
Y-824D02*
Y-877D01*
X-768Y-836D02*
X-771Y-831D01*
X-776Y-826D01*
X-781Y-824D01*
X-791D01*
X-796Y-826D01*
X-801Y-831D01*
X-804Y-836D01*
X-806Y-844D01*
Y-857D01*
X-804Y-864D01*
X-801Y-869D01*
X-796Y-874D01*
X-791Y-877D01*
X-781D01*
X-776Y-874D01*
X-771Y-869D01*
X-768Y-864D01*
Y-857D01*
X-781D02*
X-768D01*
X-756Y-824D02*
Y-877D01*
X-745Y-824D02*
Y-877D01*
Y-824D02*
X-709Y-877D01*
Y-824D02*
Y-877D01*
X-661Y-824D02*
X-694D01*
Y-877D01*
X-661D01*
X-694Y-849D02*
X-674D01*
X-619Y-824D02*
X-652D01*
Y-877D01*
X-619D01*
X-652Y-849D02*
X-632D01*
X-611Y-824D02*
Y-877D01*
Y-824D02*
X-588D01*
X-580Y-826D01*
X-578Y-829D01*
X-575Y-834D01*
Y-839D01*
X-578Y-844D01*
X-580Y-846D01*
X-588Y-849D01*
X-611D01*
X-593D02*
X-575Y-877D01*
X-561Y-841D02*
X-563Y-844D01*
X-561Y-846D01*
X-558Y-844D01*
X-561Y-841D01*
Y-872D02*
X-563Y-874D01*
X-561Y-877D01*
X-558Y-874D01*
X-561Y-872D01*
X2Y-1314D02*
X25D01*
X32Y-1311D01*
X35Y-1309D01*
X37Y-1304D01*
Y-1296D01*
X35Y-1291D01*
X32Y-1289D01*
X25Y-1286D01*
X2D01*
Y-1339D01*
X90D02*
X70Y-1286D01*
X49Y-1339D01*
X57Y-1322D02*
X82D01*
X102Y-1286D02*
Y-1339D01*
Y-1286D02*
X125D01*
X133Y-1289D01*
X135Y-1291D01*
X138Y-1296D01*
Y-1301D01*
X135Y-1306D01*
X133Y-1309D01*
X125Y-1311D01*
X102D01*
X120D02*
X138Y-1339D01*
X168Y-1286D02*
Y-1339D01*
X150Y-1286D02*
X185D01*
X234D02*
Y-1339D01*
Y-1286D02*
X269Y-1339D01*
Y-1286D02*
Y-1339D01*
X299Y-1286D02*
X294Y-1289D01*
X289Y-1294D01*
X286Y-1299D01*
X284Y-1306D01*
Y-1319D01*
X286Y-1327D01*
X289Y-1332D01*
X294Y-1337D01*
X299Y-1339D01*
X309D01*
X314Y-1337D01*
X319Y-1332D01*
X322Y-1327D01*
X325Y-1319D01*
Y-1306D01*
X322Y-1299D01*
X319Y-1294D01*
X314Y-1289D01*
X309Y-1286D01*
X299D01*
X339Y-1334D02*
X337Y-1337D01*
X339Y-1339D01*
X342Y-1337D01*
X339Y-1334D01*
X356Y-1304D02*
X354Y-1306D01*
X356Y-1309D01*
X359Y-1306D01*
X356Y-1304D01*
Y-1334D02*
X354Y-1337D01*
X356Y-1339D01*
X359Y-1337D01*
X356Y-1334D01*
X7Y-811D02*
Y-864D01*
X-11Y-811D02*
X25D01*
X31D02*
Y-864D01*
X60Y-811D02*
Y-864D01*
X42Y-811D02*
X78D01*
X84D02*
Y-864D01*
X115D01*
X154Y-811D02*
X121D01*
Y-864D01*
X154D01*
X121Y-836D02*
X141D01*
X165Y-829D02*
X162Y-831D01*
X165Y-834D01*
X168Y-831D01*
X165Y-829D01*
Y-859D02*
X162Y-862D01*
X165Y-864D01*
X168Y-862D01*
X165Y-859D01*
X-898Y-1204D02*
Y-1257D01*
Y-1204D02*
X-880D01*
X-873Y-1206D01*
X-868Y-1211D01*
X-865Y-1216D01*
X-863Y-1224D01*
Y-1237D01*
X-865Y-1244D01*
X-868Y-1249D01*
X-873Y-1254D01*
X-880Y-1257D01*
X-898D01*
X-851Y-1221D02*
Y-1257D01*
Y-1237D02*
X-848Y-1229D01*
X-843Y-1224D01*
X-838Y-1221D01*
X-830D01*
X-795D02*
Y-1257D01*
Y-1229D02*
X-800Y-1224D01*
X-805Y-1221D01*
X-813D01*
X-818Y-1224D01*
X-823Y-1229D01*
X-826Y-1237D01*
Y-1242D01*
X-823Y-1249D01*
X-818Y-1254D01*
X-813Y-1257D01*
X-805D01*
X-800Y-1254D01*
X-795Y-1249D01*
X-781Y-1221D02*
X-771Y-1257D01*
X-761Y-1221D02*
X-771Y-1257D01*
X-761Y-1221D02*
X-750Y-1257D01*
X-740Y-1221D02*
X-750Y-1257D01*
X-728Y-1221D02*
Y-1257D01*
Y-1232D02*
X-720Y-1224D01*
X-715Y-1221D01*
X-708D01*
X-702Y-1224D01*
X-700Y-1232D01*
Y-1257D01*
X-644Y-1204D02*
Y-1257D01*
Y-1229D02*
X-639Y-1224D01*
X-634Y-1221D01*
X-626D01*
X-621Y-1224D01*
X-616Y-1229D01*
X-614Y-1237D01*
Y-1242D01*
X-616Y-1249D01*
X-621Y-1254D01*
X-626Y-1257D01*
X-634D01*
X-639Y-1254D01*
X-644Y-1249D01*
X-600Y-1221D02*
X-584Y-1257D01*
X-569Y-1221D02*
X-584Y-1257D01*
X-589Y-1267D01*
X-595Y-1272D01*
X-600Y-1275D01*
X-602D01*
X-558Y-1221D02*
X-560Y-1224D01*
X-558Y-1226D01*
X-555Y-1224D01*
X-558Y-1221D01*
Y-1252D02*
X-560Y-1254D01*
X-558Y-1257D01*
X-555Y-1254D01*
X-558Y-1252D01*
X-898Y-1564D02*
Y-1617D01*
Y-1564D02*
X-865D01*
X-898Y-1589D02*
X-878D01*
X-859Y-1564D02*
Y-1617D01*
X-848Y-1564D02*
Y-1617D01*
X-817D01*
X-779Y-1564D02*
X-812D01*
Y-1617D01*
X-779D01*
X-812Y-1589D02*
X-791D01*
X-728Y-1564D02*
Y-1617D01*
Y-1564D02*
X-692Y-1617D01*
Y-1564D02*
Y-1617D01*
X-637D02*
X-657Y-1564D01*
X-678Y-1617D01*
X-670Y-1599D02*
X-645D01*
X-625Y-1564D02*
Y-1617D01*
Y-1564D02*
X-604Y-1617D01*
X-584Y-1564D02*
X-604Y-1617D01*
X-584Y-1564D02*
Y-1617D01*
X-536Y-1564D02*
X-569D01*
Y-1617D01*
X-536D01*
X-569Y-1589D02*
X-548D01*
X-524Y-1581D02*
X-527Y-1584D01*
X-524Y-1586D01*
X-522Y-1584D01*
X-524Y-1581D01*
Y-1612D02*
X-527Y-1614D01*
X-524Y-1617D01*
X-522Y-1614D01*
X-524Y-1612D01*
X2800Y-1576D02*
X2797Y-1571D01*
X2792Y-1566D01*
X2787Y-1564D01*
X2777D01*
X2772Y-1566D01*
X2767Y-1571D01*
X2764Y-1576D01*
X2762Y-1584D01*
Y-1597D01*
X2764Y-1604D01*
X2767Y-1609D01*
X2772Y-1614D01*
X2777Y-1617D01*
X2787D01*
X2792Y-1614D01*
X2797Y-1609D01*
X2800Y-1604D01*
Y-1597D01*
X2787D02*
X2800D01*
X2845Y-1564D02*
X2812D01*
Y-1617D01*
X2845D01*
X2812Y-1589D02*
X2832D01*
X2854Y-1564D02*
Y-1617D01*
Y-1564D02*
X2877D01*
X2884Y-1566D01*
X2887Y-1569D01*
X2889Y-1574D01*
Y-1579D01*
X2887Y-1584D01*
X2884Y-1586D01*
X2877Y-1589D01*
X2854D01*
X2872D02*
X2889Y-1617D01*
X2901Y-1564D02*
Y-1617D01*
Y-1564D02*
X2924D01*
X2932Y-1566D01*
X2934Y-1569D01*
X2937Y-1574D01*
Y-1579D01*
X2934Y-1584D01*
X2932Y-1586D01*
X2924Y-1589D01*
X2901D02*
X2924D01*
X2932Y-1592D01*
X2934Y-1594D01*
X2937Y-1599D01*
Y-1607D01*
X2934Y-1612D01*
X2932Y-1614D01*
X2924Y-1617D01*
X2901D01*
X2982Y-1564D02*
X2949D01*
Y-1617D01*
X2982D01*
X2949Y-1589D02*
X2969D01*
X2991Y-1564D02*
Y-1617D01*
Y-1564D02*
X3014D01*
X3021Y-1566D01*
X3024Y-1569D01*
X3026Y-1574D01*
Y-1579D01*
X3024Y-1584D01*
X3021Y-1586D01*
X3014Y-1589D01*
X2991D01*
X3009D02*
X3026Y-1617D01*
X3041Y-1581D02*
X3038Y-1584D01*
X3041Y-1586D01*
X3043Y-1584D01*
X3041Y-1581D01*
Y-1612D02*
X3038Y-1614D01*
X3041Y-1617D01*
X3043Y-1614D01*
X3041Y-1612D01*
X830Y330D02*
Y370D01*
X870D01*
Y330D01*
X830D01*
X1290Y75D02*
Y115D01*
X1330D01*
Y75D01*
X1290D01*
X1635Y800D02*
Y840D01*
X1675D01*
Y800D01*
X1635D01*
X2170Y1140D02*
Y1180D01*
X2210D01*
Y1140D01*
X2170D01*
X2250Y555D02*
Y595D01*
X2290D01*
Y555D01*
X2250D01*
Y450D02*
Y490D01*
X2290D01*
Y450D01*
X2250D01*
X2098Y1284D02*
X2078Y1324D01*
X2118D01*
X2098Y1284D01*
X350Y-30D02*
X360Y-20D01*
X370D01*
X360Y-10D01*
X370Y0D01*
X360D01*
X350Y10D01*
X340Y0D01*
X330D01*
X340Y-10D01*
X330Y-20D01*
X340D01*
X350Y-30D01*
Y1840D02*
X360Y1850D01*
X370D01*
X360Y1860D01*
X370Y1870D01*
X360D01*
X350Y1880D01*
X340Y1870D01*
X330D01*
X340Y1860D01*
X330Y1850D01*
X340D01*
X350Y1840D01*
X0Y-20D02*
X10Y-10D01*
X20D01*
X10Y0D01*
X20Y10D01*
X10D01*
X0Y20D01*
X-10Y10D01*
X-20D01*
X-10Y0D01*
X-20Y-10D01*
X-10D01*
X0Y-20D01*
X1750Y-30D02*
X1760Y-20D01*
X1770D01*
X1760Y-10D01*
X1770Y0D01*
X1760D01*
X1750Y10D01*
X1740Y0D01*
X1730D01*
X1740Y-10D01*
X1730Y-20D01*
X1740D01*
X1750Y-30D01*
X0Y1830D02*
X10Y1840D01*
X20D01*
X10Y1850D01*
X20Y1860D01*
X10D01*
X0Y1870D01*
X-10Y1860D01*
X-20D01*
X-10Y1850D01*
X-20Y1840D01*
X-10D01*
X0Y1830D01*
X1050Y1840D02*
X1060Y1850D01*
X1070D01*
X1060Y1860D01*
X1070Y1870D01*
X1060D01*
X1050Y1880D01*
X1040Y1870D01*
X1030D01*
X1040Y1860D01*
X1030Y1850D01*
X1040D01*
X1050Y1840D01*
X2270Y-20D02*
X2280Y-10D01*
X2290D01*
X2280Y0D01*
X2290Y10D01*
X2280D01*
X2270Y20D01*
X2260Y10D01*
X2250D01*
X2260Y0D01*
X2250Y-10D01*
X2260D01*
X2270Y-20D01*
X1400Y-30D02*
X1410Y-20D01*
X1420D01*
X1410Y-10D01*
X1420Y0D01*
X1410D01*
X1400Y10D01*
X1390Y0D01*
X1380D01*
X1390Y-10D01*
X1380Y-20D01*
X1390D01*
X1400Y-30D01*
X2270Y240D02*
X2280Y250D01*
X2290D01*
X2280Y260D01*
X2290Y270D01*
X2280D01*
X2270Y280D01*
X2260Y270D01*
X2250D01*
X2260Y260D01*
X2250Y250D01*
X2260D01*
X2270Y240D01*
X1400Y1840D02*
X1410Y1850D01*
X1420D01*
X1410Y1860D01*
X1420Y1870D01*
X1410D01*
X1400Y1880D01*
X1390Y1870D01*
X1380D01*
X1390Y1860D01*
X1380Y1850D01*
X1390D01*
X1400Y1840D01*
X2270Y640D02*
X2280Y650D01*
X2290D01*
X2280Y660D01*
X2290Y670D01*
X2280D01*
X2270Y680D01*
X2260Y670D01*
X2250D01*
X2260Y660D01*
X2250Y650D01*
X2260D01*
X2270Y640D01*
Y1040D02*
X2280Y1050D01*
X2290D01*
X2280Y1060D01*
X2290Y1070D01*
X2280D01*
X2270Y1080D01*
X2260Y1070D01*
X2250D01*
X2260Y1060D01*
X2250Y1050D01*
X2260D01*
X2270Y1040D01*
X1750Y1840D02*
X1760Y1850D01*
X1770D01*
X1760Y1860D01*
X1770Y1870D01*
X1760D01*
X1750Y1880D01*
X1740Y1870D01*
X1730D01*
X1740Y1860D01*
X1730Y1850D01*
X1740D01*
X1750Y1840D01*
X2270Y1440D02*
X2280Y1450D01*
X2290D01*
X2280Y1460D01*
X2290Y1470D01*
X2280D01*
X2270Y1480D01*
X2260Y1470D01*
X2250D01*
X2260Y1460D01*
X2250Y1450D01*
X2260D01*
X2270Y1440D01*
X0Y240D02*
X10Y250D01*
X20D01*
X10Y260D01*
X20Y270D01*
X10D01*
X0Y280D01*
X-10Y270D01*
X-20D01*
X-10Y260D01*
X-20Y250D01*
X-10D01*
X0Y240D01*
Y1440D02*
X10Y1450D01*
X20D01*
X10Y1460D01*
X20Y1470D01*
X10D01*
X0Y1480D01*
X-10Y1470D01*
X-20D01*
X-10Y1460D01*
X-20Y1450D01*
X-10D01*
X0Y1440D01*
Y640D02*
X10Y650D01*
X20D01*
X10Y660D01*
X20Y670D01*
X10D01*
X0Y680D01*
X-10Y670D01*
X-20D01*
X-10Y660D01*
X-20Y650D01*
X-10D01*
X0Y640D01*
X2270Y1830D02*
X2280Y1840D01*
X2290D01*
X2280Y1850D01*
X2290Y1860D01*
X2280D01*
X2270Y1870D01*
X2260Y1860D01*
X2250D01*
X2260Y1850D01*
X2250Y1840D01*
X2260D01*
X2270Y1830D01*
X1050Y-30D02*
X1060Y-20D01*
X1070D01*
X1060Y-10D01*
X1070Y0D01*
X1060D01*
X1050Y10D01*
X1040Y0D01*
X1030D01*
X1040Y-10D01*
X1030Y-20D01*
X1040D01*
X1050Y-30D01*
X0Y1040D02*
X10Y1050D01*
X20D01*
X10Y1060D01*
X20Y1070D01*
X10D01*
X0Y1080D01*
X-10Y1070D01*
X-20D01*
X-10Y1060D01*
X-20Y1050D01*
X-10D01*
X0Y1040D01*
X98Y625D02*
X108Y645D01*
X98Y665D01*
X118Y655D01*
X138Y665D01*
X128Y645D01*
X138Y625D01*
X118Y635D01*
X98Y625D01*
Y1225D02*
X108Y1245D01*
X98Y1265D01*
X118Y1255D01*
X138Y1265D01*
X128Y1245D01*
X138Y1225D01*
X118Y1235D01*
X98Y1225D01*
Y425D02*
X108Y445D01*
X98Y465D01*
X118Y455D01*
X138Y465D01*
X128Y445D01*
X138Y425D01*
X118Y435D01*
X98Y425D01*
Y525D02*
X108Y545D01*
X98Y565D01*
X118Y555D01*
X138Y565D01*
X128Y545D01*
X138Y525D01*
X118Y535D01*
X98Y525D01*
Y1025D02*
X108Y1045D01*
X98Y1065D01*
X118Y1055D01*
X138Y1065D01*
X128Y1045D01*
X138Y1025D01*
X118Y1035D01*
X98Y1025D01*
Y1125D02*
X108Y1145D01*
X98Y1165D01*
X118Y1155D01*
X138Y1165D01*
X128Y1145D01*
X138Y1125D01*
X118Y1135D01*
X98Y1125D01*
Y1325D02*
X108Y1345D01*
X98Y1365D01*
X118Y1355D01*
X138Y1365D01*
X128Y1345D01*
X138Y1325D01*
X118Y1335D01*
X98Y1325D01*
Y825D02*
X108Y845D01*
X98Y865D01*
X118Y855D01*
X138Y865D01*
X128Y845D01*
X138Y825D01*
X118Y835D01*
X98Y825D01*
Y925D02*
X108Y945D01*
X98Y965D01*
X118Y955D01*
X138Y965D01*
X128Y945D01*
X138Y925D01*
X118Y935D01*
X98Y925D01*
Y725D02*
X108Y745D01*
X98Y765D01*
X118Y755D01*
X138Y765D01*
X128Y745D01*
X138Y725D01*
X118Y735D01*
X98Y725D01*
X1898Y105D02*
Y95D01*
X1918D01*
Y105D01*
X1928D01*
Y125D01*
X1918D01*
Y135D01*
X1898D01*
Y125D01*
X1888D01*
Y105D01*
X1898D01*
X281Y1197D02*
Y1187D01*
X301D01*
Y1197D01*
X311D01*
Y1217D01*
X301D01*
Y1227D01*
X281D01*
Y1217D01*
X271D01*
Y1197D01*
X281D01*
X530Y1524D02*
Y1514D01*
X550D01*
Y1524D01*
X560D01*
Y1544D01*
X550D01*
Y1554D01*
X530D01*
Y1544D01*
X520D01*
Y1524D01*
X530D01*
X1554Y1685D02*
Y1675D01*
X1574D01*
Y1685D01*
X1584D01*
Y1705D01*
X1574D01*
Y1715D01*
X1554D01*
Y1705D01*
X1544D01*
Y1685D01*
X1554D01*
X2094Y347D02*
Y337D01*
X2114D01*
Y347D01*
X2124D01*
Y367D01*
X2114D01*
Y377D01*
X2094D01*
Y367D01*
X2084D01*
Y347D01*
X2094D01*
X1140Y35D02*
Y25D01*
X1160D01*
Y35D01*
X1170D01*
Y55D01*
X1160D01*
Y65D01*
X1140D01*
Y55D01*
X1130D01*
Y35D01*
X1140D01*
X1153Y1249D02*
Y1239D01*
X1173D01*
Y1249D01*
X1183D01*
Y1269D01*
X1173D01*
Y1279D01*
X1153D01*
Y1269D01*
X1143D01*
Y1249D01*
X1153D01*
X254Y933D02*
Y923D01*
X274D01*
Y933D01*
X284D01*
Y953D01*
X274D01*
Y963D01*
X254D01*
Y953D01*
X244D01*
Y933D01*
X254D01*
X347Y1133D02*
Y1123D01*
X367D01*
Y1133D01*
X377D01*
Y1153D01*
X367D01*
Y1163D01*
X347D01*
Y1153D01*
X337D01*
Y1133D01*
X347D01*
X1826Y1049D02*
Y1039D01*
X1846D01*
Y1049D01*
X1856D01*
Y1069D01*
X1846D01*
Y1079D01*
X1826D01*
Y1069D01*
X1816D01*
Y1049D01*
X1826D01*
X1766Y1020D02*
Y1010D01*
X1786D01*
Y1020D01*
X1796D01*
Y1040D01*
X1786D01*
Y1050D01*
X1766D01*
Y1040D01*
X1756D01*
Y1020D01*
X1766D01*
X2020Y875D02*
Y865D01*
X2040D01*
Y875D01*
X2050D01*
Y895D01*
X2040D01*
Y905D01*
X2020D01*
Y895D01*
X2010D01*
Y875D01*
X2020D01*
X1763Y1144D02*
Y1134D01*
X1783D01*
Y1144D01*
X1793D01*
Y1164D01*
X1783D01*
Y1174D01*
X1763D01*
Y1164D01*
X1753D01*
Y1144D01*
X1763D01*
X1164Y1525D02*
Y1515D01*
X1184D01*
Y1525D01*
X1194D01*
Y1545D01*
X1184D01*
Y1555D01*
X1164D01*
Y1545D01*
X1154D01*
Y1525D01*
X1164D01*
Y1665D02*
Y1655D01*
X1184D01*
Y1665D01*
X1194D01*
Y1685D01*
X1184D01*
Y1695D01*
X1164D01*
Y1685D01*
X1154D01*
Y1665D01*
X1164D01*
X314Y291D02*
Y281D01*
X334D01*
Y291D01*
X344D01*
Y311D01*
X334D01*
Y321D01*
X314D01*
Y311D01*
X304D01*
Y291D01*
X314D01*
X174D02*
Y281D01*
X194D01*
Y291D01*
X204D01*
Y311D01*
X194D01*
Y321D01*
X174D01*
Y311D01*
X164D01*
Y291D01*
X174D01*
X592Y807D02*
Y797D01*
X612D01*
Y807D01*
X622D01*
Y827D01*
X612D01*
Y837D01*
X592D01*
Y827D01*
X582D01*
Y807D01*
X592D01*
X1859Y232D02*
Y222D01*
X1879D01*
Y232D01*
X1889D01*
Y252D01*
X1879D01*
Y262D01*
X1859D01*
Y252D01*
X1849D01*
Y232D01*
X1859D01*
X2213Y61D02*
Y51D01*
X2233D01*
Y61D01*
X2243D01*
Y81D01*
X2233D01*
Y91D01*
X2213D01*
Y81D01*
X2203D01*
Y61D01*
X2213D01*
X1762Y192D02*
Y182D01*
X1782D01*
Y192D01*
X1792D01*
Y212D01*
X1782D01*
Y222D01*
X1762D01*
Y212D01*
X1752D01*
Y192D01*
X1762D01*
X1748Y75D02*
Y65D01*
X1768D01*
Y75D01*
X1778D01*
Y95D01*
X1768D01*
Y105D01*
X1748D01*
Y95D01*
X1738D01*
Y75D01*
X1748D01*
X1469Y30D02*
Y20D01*
X1489D01*
Y30D01*
X1499D01*
Y50D01*
X1489D01*
Y60D01*
X1469D01*
Y50D01*
X1459D01*
Y30D01*
X1469D01*
X1952Y828D02*
Y818D01*
X1972D01*
Y828D01*
X1982D01*
Y848D01*
X1972D01*
Y858D01*
X1952D01*
Y848D01*
X1942D01*
Y828D01*
X1952D01*
X1847D02*
Y818D01*
X1867D01*
Y828D01*
X1877D01*
Y848D01*
X1867D01*
Y858D01*
X1847D01*
Y848D01*
X1837D01*
Y828D01*
X1847D01*
X1747D02*
Y818D01*
X1767D01*
Y828D01*
X1777D01*
Y848D01*
X1767D01*
Y858D01*
X1747D01*
Y848D01*
X1737D01*
Y828D01*
X1747D01*
X2119Y1048D02*
Y1038D01*
X2139D01*
Y1048D01*
X2149D01*
Y1068D01*
X2139D01*
Y1078D01*
X2119D01*
Y1068D01*
X2109D01*
Y1048D01*
X2119D01*
X1532Y433D02*
Y423D01*
X1552D01*
Y433D01*
X1562D01*
Y453D01*
X1552D01*
Y463D01*
X1532D01*
Y453D01*
X1522D01*
Y433D01*
X1532D01*
X1362Y461D02*
Y451D01*
X1382D01*
Y461D01*
X1392D01*
Y481D01*
X1382D01*
Y491D01*
X1362D01*
Y481D01*
X1352D01*
Y461D01*
X1362D01*
X271Y1033D02*
Y1023D01*
X291D01*
Y1033D01*
X301D01*
Y1053D01*
X291D01*
Y1063D01*
X271D01*
Y1053D01*
X261D01*
Y1033D01*
X271D01*
X359Y570D02*
Y560D01*
X379D01*
Y570D01*
X389D01*
Y590D01*
X379D01*
Y600D01*
X359D01*
Y590D01*
X349D01*
Y570D01*
X359D01*
X477Y442D02*
Y432D01*
X497D01*
Y442D01*
X507D01*
Y462D01*
X497D01*
Y472D01*
X477D01*
Y462D01*
X467D01*
Y442D01*
X477D01*
X593Y350D02*
Y340D01*
X613D01*
Y350D01*
X623D01*
Y370D01*
X613D01*
Y380D01*
X593D01*
Y370D01*
X583D01*
Y350D01*
X593D01*
X303Y843D02*
Y833D01*
X323D01*
Y843D01*
X333D01*
Y863D01*
X323D01*
Y873D01*
X303D01*
Y863D01*
X293D01*
Y843D01*
X303D01*
X427Y963D02*
Y953D01*
X447D01*
Y963D01*
X457D01*
Y983D01*
X447D01*
Y993D01*
X427D01*
Y983D01*
X417D01*
Y963D01*
X427D01*
X1379Y1612D02*
Y1602D01*
X1399D01*
Y1612D01*
X1409D01*
Y1632D01*
X1399D01*
Y1642D01*
X1379D01*
Y1632D01*
X1369D01*
Y1612D01*
X1379D01*
Y1672D02*
Y1662D01*
X1399D01*
Y1672D01*
X1409D01*
Y1692D01*
X1399D01*
Y1702D01*
X1379D01*
Y1692D01*
X1369D01*
Y1672D01*
X1379D01*
X1217Y937D02*
Y927D01*
X1237D01*
Y937D01*
X1247D01*
Y957D01*
X1237D01*
Y967D01*
X1217D01*
Y957D01*
X1207D01*
Y937D01*
X1217D01*
X1094Y1402D02*
Y1392D01*
X1114D01*
Y1402D01*
X1124D01*
Y1422D01*
X1114D01*
Y1432D01*
X1094D01*
Y1422D01*
X1084D01*
Y1402D01*
X1094D01*
X1553Y1292D02*
Y1282D01*
X1573D01*
Y1292D01*
X1583D01*
Y1312D01*
X1573D01*
Y1322D01*
X1553D01*
Y1312D01*
X1543D01*
Y1292D01*
X1553D01*
X1573Y1391D02*
Y1381D01*
X1593D01*
Y1391D01*
X1603D01*
Y1411D01*
X1593D01*
Y1421D01*
X1573D01*
Y1411D01*
X1563D01*
Y1391D01*
X1573D01*
X1620Y985D02*
Y975D01*
X1640D01*
Y985D01*
X1650D01*
Y1005D01*
X1640D01*
Y1015D01*
X1620D01*
Y1005D01*
X1610D01*
Y985D01*
X1620D01*
X1687Y1028D02*
Y1018D01*
X1707D01*
Y1028D01*
X1717D01*
Y1048D01*
X1707D01*
Y1058D01*
X1687D01*
Y1048D01*
X1677D01*
Y1028D01*
X1687D01*
X1562D02*
Y1018D01*
X1582D01*
Y1028D01*
X1592D01*
Y1048D01*
X1582D01*
Y1058D01*
X1562D01*
Y1048D01*
X1552D01*
Y1028D01*
X1562D01*
X1487Y938D02*
Y928D01*
X1507D01*
Y938D01*
X1517D01*
Y958D01*
X1507D01*
Y968D01*
X1487D01*
Y958D01*
X1477D01*
Y938D01*
X1487D01*
X1597Y788D02*
Y778D01*
X1617D01*
Y788D01*
X1627D01*
Y808D01*
X1617D01*
Y818D01*
X1597D01*
Y808D01*
X1587D01*
Y788D01*
X1597D01*
X1411Y649D02*
Y639D01*
X1431D01*
Y649D01*
X1441D01*
Y669D01*
X1431D01*
Y679D01*
X1411D01*
Y669D01*
X1401D01*
Y649D01*
X1411D01*
X1505Y765D02*
Y755D01*
X1525D01*
Y765D01*
X1535D01*
Y785D01*
X1525D01*
Y795D01*
X1505D01*
Y785D01*
X1495D01*
Y765D01*
X1505D01*
X1657Y768D02*
Y758D01*
X1677D01*
Y768D01*
X1687D01*
Y788D01*
X1677D01*
Y798D01*
X1657D01*
Y788D01*
X1647D01*
Y768D01*
X1657D01*
X1582Y568D02*
Y558D01*
X1602D01*
Y568D01*
X1612D01*
Y588D01*
X1602D01*
Y598D01*
X1582D01*
Y588D01*
X1572D01*
Y568D01*
X1582D01*
X1774Y543D02*
Y533D01*
X1794D01*
Y543D01*
X1804D01*
Y563D01*
X1794D01*
Y573D01*
X1774D01*
Y563D01*
X1764D01*
Y543D01*
X1774D01*
X1907Y653D02*
Y643D01*
X1927D01*
Y653D01*
X1937D01*
Y673D01*
X1927D01*
Y683D01*
X1907D01*
Y673D01*
X1897D01*
Y653D01*
X1907D01*
X1837Y519D02*
Y509D01*
X1857D01*
Y519D01*
X1867D01*
Y539D01*
X1857D01*
Y549D01*
X1837D01*
Y539D01*
X1827D01*
Y519D01*
X1837D01*
X1866Y1108D02*
Y1098D01*
X1886D01*
Y1108D01*
X1896D01*
Y1128D01*
X1886D01*
Y1138D01*
X1866D01*
Y1128D01*
X1856D01*
Y1108D01*
X1866D01*
X515Y1040D02*
Y1030D01*
X535D01*
Y1040D01*
X545D01*
Y1060D01*
X535D01*
Y1070D01*
X515D01*
Y1060D01*
X505D01*
Y1040D01*
X515D01*
X182Y1339D02*
Y1329D01*
X202D01*
Y1339D01*
X212D01*
Y1359D01*
X202D01*
Y1369D01*
X182D01*
Y1359D01*
X172D01*
Y1339D01*
X182D01*
X251Y1410D02*
Y1400D01*
X271D01*
Y1410D01*
X281D01*
Y1430D01*
X271D01*
Y1440D01*
X251D01*
Y1430D01*
X241D01*
Y1410D01*
X251D01*
X409Y1267D02*
Y1257D01*
X429D01*
Y1267D01*
X439D01*
Y1287D01*
X429D01*
Y1297D01*
X409D01*
Y1287D01*
X399D01*
Y1267D01*
X409D01*
X476D02*
Y1257D01*
X496D01*
Y1267D01*
X506D01*
Y1287D01*
X496D01*
Y1297D01*
X476D01*
Y1287D01*
X466D01*
Y1267D01*
X476D01*
X228Y1198D02*
Y1188D01*
X248D01*
Y1198D01*
X258D01*
Y1218D01*
X248D01*
Y1228D01*
X228D01*
Y1218D01*
X218D01*
Y1198D01*
X228D01*
X200Y1229D02*
Y1219D01*
X220D01*
Y1229D01*
X230D01*
Y1249D01*
X220D01*
Y1259D01*
X200D01*
Y1249D01*
X190D01*
Y1229D01*
X200D01*
X1346Y1211D02*
Y1201D01*
X1366D01*
Y1211D01*
X1376D01*
Y1231D01*
X1366D01*
Y1241D01*
X1346D01*
Y1231D01*
X1336D01*
Y1211D01*
X1346D01*
Y1091D02*
Y1081D01*
X1366D01*
Y1091D01*
X1376D01*
Y1111D01*
X1366D01*
Y1121D01*
X1346D01*
Y1111D01*
X1336D01*
Y1091D01*
X1346D01*
X1095Y1195D02*
Y1185D01*
X1115D01*
Y1195D01*
X1125D01*
Y1215D01*
X1115D01*
Y1225D01*
X1095D01*
Y1215D01*
X1085D01*
Y1195D01*
X1095D01*
X1039Y1258D02*
Y1248D01*
X1059D01*
Y1258D01*
X1069D01*
Y1278D01*
X1059D01*
Y1288D01*
X1039D01*
Y1278D01*
X1029D01*
Y1258D01*
X1039D01*
X1479Y1263D02*
Y1253D01*
X1499D01*
Y1263D01*
X1509D01*
Y1283D01*
X1499D01*
Y1293D01*
X1479D01*
Y1283D01*
X1469D01*
Y1263D01*
X1479D01*
X899Y1368D02*
Y1358D01*
X919D01*
Y1368D01*
X929D01*
Y1388D01*
X919D01*
Y1398D01*
X899D01*
Y1388D01*
X889D01*
Y1368D01*
X899D01*
X831Y1503D02*
Y1493D01*
X851D01*
Y1503D01*
X861D01*
Y1523D01*
X851D01*
Y1533D01*
X831D01*
Y1523D01*
X821D01*
Y1503D01*
X831D01*
X1058D02*
Y1493D01*
X1078D01*
Y1503D01*
X1088D01*
Y1523D01*
X1078D01*
Y1533D01*
X1058D01*
Y1523D01*
X1048D01*
Y1503D01*
X1058D01*
X1030Y1084D02*
Y1074D01*
X1050D01*
Y1084D01*
X1060D01*
Y1104D01*
X1050D01*
Y1114D01*
X1030D01*
Y1104D01*
X1020D01*
Y1084D01*
X1030D01*
X966D02*
Y1074D01*
X986D01*
Y1084D01*
X996D01*
Y1104D01*
X986D01*
Y1114D01*
X966D01*
Y1104D01*
X956D01*
Y1084D01*
X966D01*
X1404Y613D02*
Y603D01*
X1424D01*
Y613D01*
X1434D01*
Y633D01*
X1424D01*
Y643D01*
X1404D01*
Y633D01*
X1394D01*
Y613D01*
X1404D01*
X1068Y1027D02*
Y1017D01*
X1088D01*
Y1027D01*
X1098D01*
Y1047D01*
X1088D01*
Y1057D01*
X1068D01*
Y1047D01*
X1058D01*
Y1027D01*
X1068D01*
X941Y1046D02*
Y1036D01*
X961D01*
Y1046D01*
X971D01*
Y1066D01*
X961D01*
Y1076D01*
X941D01*
Y1066D01*
X931D01*
Y1046D01*
X941D01*
X1039Y886D02*
Y876D01*
X1059D01*
Y886D01*
X1069D01*
Y906D01*
X1059D01*
Y916D01*
X1039D01*
Y906D01*
X1029D01*
Y886D01*
X1039D01*
X822Y885D02*
Y875D01*
X842D01*
Y885D01*
X852D01*
Y905D01*
X842D01*
Y915D01*
X822D01*
Y905D01*
X812D01*
Y885D01*
X822D01*
X1334Y872D02*
Y862D01*
X1354D01*
Y872D01*
X1364D01*
Y892D01*
X1354D01*
Y902D01*
X1334D01*
Y892D01*
X1324D01*
Y872D01*
X1334D01*
X1390Y773D02*
Y763D01*
X1410D01*
Y773D01*
X1420D01*
Y793D01*
X1410D01*
Y803D01*
X1390D01*
Y793D01*
X1380D01*
Y773D01*
X1390D01*
X398Y118D02*
Y108D01*
X418D01*
Y118D01*
X428D01*
Y138D01*
X418D01*
Y148D01*
X398D01*
Y138D01*
X388D01*
Y118D01*
X398D01*
X628Y128D02*
Y118D01*
X648D01*
Y128D01*
X658D01*
Y148D01*
X648D01*
Y158D01*
X628D01*
Y148D01*
X618D01*
Y128D01*
X628D01*
X907Y35D02*
Y25D01*
X927D01*
Y35D01*
X937D01*
Y55D01*
X927D01*
Y65D01*
X907D01*
Y55D01*
X897D01*
Y35D01*
X907D01*
X740Y95D02*
Y85D01*
X760D01*
Y95D01*
X770D01*
Y115D01*
X760D01*
Y125D01*
X740D01*
Y115D01*
X730D01*
Y95D01*
X740D01*
X745Y214D02*
Y204D01*
X765D01*
Y214D01*
X775D01*
Y234D01*
X765D01*
Y244D01*
X745D01*
Y234D01*
X735D01*
Y214D01*
X745D01*
X700Y50D02*
Y40D01*
X720D01*
Y50D01*
X730D01*
Y70D01*
X720D01*
Y80D01*
X700D01*
Y70D01*
X690D01*
Y50D01*
X700D01*
X742Y155D02*
Y145D01*
X762D01*
Y155D01*
X772D01*
Y175D01*
X762D01*
Y185D01*
X742D01*
Y175D01*
X732D01*
Y155D01*
X742D01*
X818Y1041D02*
Y1031D01*
X838D01*
Y1041D01*
X848D01*
Y1061D01*
X838D01*
Y1071D01*
X818D01*
Y1061D01*
X808D01*
Y1041D01*
X818D01*
X859Y784D02*
Y774D01*
X879D01*
Y784D01*
X889D01*
Y804D01*
X879D01*
Y814D01*
X859D01*
Y804D01*
X849D01*
Y784D01*
X859D01*
X1658Y576D02*
Y566D01*
X1678D01*
Y576D01*
X1688D01*
Y596D01*
X1678D01*
Y606D01*
X1658D01*
Y596D01*
X1648D01*
Y576D01*
X1658D01*
X1863Y925D02*
Y915D01*
X1883D01*
Y925D01*
X1893D01*
Y945D01*
X1883D01*
Y955D01*
X1863D01*
Y945D01*
X1853D01*
Y925D01*
X1863D01*
X2108Y240D02*
Y230D01*
X2128D01*
Y240D01*
X2138D01*
Y260D01*
X2128D01*
Y270D01*
X2108D01*
Y260D01*
X2098D01*
Y240D01*
X2108D01*
X2125Y44D02*
Y34D01*
X2145D01*
Y44D01*
X2155D01*
Y64D01*
X2145D01*
Y74D01*
X2125D01*
Y64D01*
X2115D01*
Y44D01*
X2125D01*
X838Y1370D02*
Y1360D01*
X858D01*
Y1370D01*
X868D01*
Y1390D01*
X858D01*
Y1400D01*
X838D01*
Y1390D01*
X828D01*
Y1370D01*
X838D01*
X1178Y1050D02*
Y1040D01*
X1198D01*
Y1050D01*
X1208D01*
Y1070D01*
X1198D01*
Y1080D01*
X1178D01*
Y1070D01*
X1168D01*
Y1050D01*
X1178D01*
X1238Y780D02*
Y770D01*
X1258D01*
Y780D01*
X1268D01*
Y800D01*
X1258D01*
Y810D01*
X1238D01*
Y800D01*
X1228D01*
Y780D01*
X1238D01*
X1913Y445D02*
Y435D01*
X1933D01*
Y445D01*
X1943D01*
Y465D01*
X1933D01*
Y475D01*
X1913D01*
Y465D01*
X1903D01*
Y445D01*
X1913D01*
X308Y932D02*
Y922D01*
X328D01*
Y932D01*
X338D01*
Y952D01*
X328D01*
Y962D01*
X308D01*
Y952D01*
X298D01*
Y932D01*
X308D01*
X1684Y1284D02*
Y1274D01*
X1704D01*
Y1284D01*
X1714D01*
Y1304D01*
X1704D01*
Y1314D01*
X1684D01*
Y1304D01*
X1674D01*
Y1284D01*
X1684D01*
X1510Y1211D02*
Y1201D01*
X1530D01*
Y1211D01*
X1540D01*
Y1231D01*
X1530D01*
Y1241D01*
X1510D01*
Y1231D01*
X1500D01*
Y1211D01*
X1510D01*
X2153Y185D02*
Y175D01*
X2173D01*
Y185D01*
X2183D01*
Y205D01*
X2173D01*
Y215D01*
X2153D01*
Y205D01*
X2143D01*
Y185D01*
X2153D01*
X2263Y387D02*
Y377D01*
X2283D01*
Y387D01*
X2293D01*
Y407D01*
X2283D01*
Y417D01*
X2263D01*
Y407D01*
X2253D01*
Y387D01*
X2263D01*
X2026Y1012D02*
Y1002D01*
X2046D01*
Y1012D01*
X2056D01*
Y1032D01*
X2046D01*
Y1042D01*
X2026D01*
Y1032D01*
X2016D01*
Y1012D01*
X2026D01*
X2154Y1046D02*
Y1036D01*
X2174D01*
Y1046D01*
X2184D01*
Y1066D01*
X2174D01*
Y1076D01*
X2154D01*
Y1066D01*
X2144D01*
Y1046D01*
X2154D01*
X2051Y821D02*
Y811D01*
X2071D01*
Y821D01*
X2081D01*
Y841D01*
X2071D01*
Y851D01*
X2051D01*
Y841D01*
X2041D01*
Y821D01*
X2051D01*
X2260Y957D02*
Y947D01*
X2280D01*
Y957D01*
X2290D01*
Y977D01*
X2280D01*
Y987D01*
X2260D01*
Y977D01*
X2250D01*
Y957D01*
X2260D01*
X2141Y630D02*
Y620D01*
X2161D01*
Y630D01*
X2171D01*
Y650D01*
X2161D01*
Y660D01*
X2141D01*
Y650D01*
X2131D01*
Y630D01*
X2141D01*
Y570D02*
Y560D01*
X2161D01*
Y570D01*
X2171D01*
Y590D01*
X2161D01*
Y600D01*
X2141D01*
Y590D01*
X2131D01*
Y570D01*
X2141D01*
Y510D02*
Y500D01*
X2161D01*
Y510D01*
X2171D01*
Y530D01*
X2161D01*
Y540D01*
X2141D01*
Y530D01*
X2131D01*
Y510D01*
X2141D01*
X818Y731D02*
Y721D01*
X838D01*
Y731D01*
X848D01*
Y751D01*
X838D01*
Y761D01*
X818D01*
Y751D01*
X808D01*
Y731D01*
X818D01*
X1070Y130D02*
Y120D01*
X1090D01*
Y130D01*
X1100D01*
Y150D01*
X1090D01*
Y160D01*
X1070D01*
Y150D01*
X1060D01*
Y130D01*
X1070D01*
X895Y585D02*
Y575D01*
X915D01*
Y585D01*
X925D01*
Y605D01*
X915D01*
Y615D01*
X895D01*
Y605D01*
X885D01*
Y585D01*
X895D01*
X625Y1075D02*
Y1065D01*
X645D01*
Y1075D01*
X655D01*
Y1095D01*
X645D01*
Y1105D01*
X625D01*
Y1095D01*
X615D01*
Y1075D01*
X625D01*
X670Y1180D02*
Y1170D01*
X690D01*
Y1180D01*
X700D01*
Y1200D01*
X690D01*
Y1210D01*
X670D01*
Y1200D01*
X660D01*
Y1180D01*
X670D01*
X510Y1190D02*
Y1180D01*
X530D01*
Y1190D01*
X540D01*
Y1210D01*
X530D01*
Y1220D01*
X510D01*
Y1210D01*
X500D01*
Y1190D01*
X510D01*
X625Y1585D02*
Y1575D01*
X645D01*
Y1585D01*
X655D01*
Y1605D01*
X645D01*
Y1615D01*
X625D01*
Y1605D01*
X615D01*
Y1585D01*
X625D01*
X570Y1500D02*
Y1490D01*
X590D01*
Y1500D01*
X600D01*
Y1520D01*
X590D01*
Y1530D01*
X570D01*
Y1520D01*
X560D01*
Y1500D01*
X570D01*
X470Y1760D02*
Y1750D01*
X490D01*
Y1760D01*
X500D01*
Y1780D01*
X490D01*
Y1790D01*
X470D01*
Y1780D01*
X460D01*
Y1760D01*
X470D01*
X2804Y573D02*
Y563D01*
X2824D01*
Y573D01*
X2834D01*
Y593D01*
X2824D01*
Y603D01*
X2804D01*
Y593D01*
X2794D01*
Y573D01*
X2804D01*
X2814Y463D02*
X2824Y473D01*
X2834D01*
X2824Y483D01*
X2834Y493D01*
X2824D01*
X2814Y503D01*
X2804Y493D01*
X2794D01*
X2804Y483D01*
X2794Y473D01*
X2804D01*
X2814Y463D01*
X2794Y363D02*
Y403D01*
X2834D01*
Y363D01*
X2794D01*
Y263D02*
X2804Y283D01*
X2794Y303D01*
X2814Y293D01*
X2834Y303D01*
X2824Y283D01*
X2834Y263D01*
X2814Y273D01*
X2794Y263D01*
X2814Y63D02*
X2794Y103D01*
X2834D01*
X2814Y63D01*
D50*
X2319Y-688D02*
X2281Y-588D01*
X2243Y-688D01*
X2257Y-654D02*
X2305D01*
X2399Y-635D02*
X2390Y-626D01*
X2380Y-621D01*
X2366D01*
X2357Y-626D01*
X2347Y-635D01*
X2342Y-650D01*
Y-659D01*
X2347Y-673D01*
X2357Y-683D01*
X2366Y-688D01*
X2380D01*
X2390Y-683D01*
X2399Y-673D01*
X2435Y-588D02*
Y-669D01*
X2440Y-683D01*
X2449Y-688D01*
X2459D01*
X2421Y-621D02*
X2454D01*
X2483Y-588D02*
X2488Y-592D01*
X2492Y-588D01*
X2488Y-583D01*
X2483Y-588D01*
X2488Y-621D02*
Y-688D01*
X2510Y-621D02*
X2539Y-688D01*
X2567Y-621D02*
X2539Y-688D01*
X2583Y-650D02*
X2640D01*
Y-640D01*
X2636Y-631D01*
X2631Y-626D01*
X2621Y-621D01*
X2607D01*
X2598Y-626D01*
X2588Y-635D01*
X2583Y-650D01*
Y-659D01*
X2588Y-673D01*
X2598Y-683D01*
X2607Y-688D01*
X2621D01*
X2631Y-683D01*
X2640Y-673D01*
X2740Y-588D02*
X2764Y-688D01*
X2788Y-588D02*
X2764Y-688D01*
X2788Y-588D02*
X2812Y-688D01*
X2836Y-588D02*
X2812Y-688D01*
X2913Y-621D02*
Y-688D01*
Y-635D02*
X2903Y-626D01*
X2894Y-621D01*
X2879D01*
X2870Y-626D01*
X2860Y-635D01*
X2856Y-650D01*
Y-659D01*
X2860Y-673D01*
X2870Y-683D01*
X2879Y-688D01*
X2894D01*
X2903Y-683D01*
X2913Y-673D01*
X2939Y-621D02*
X2968Y-688D01*
X2997Y-621D02*
X2968Y-688D01*
X3013Y-650D02*
X3070D01*
Y-640D01*
X3065Y-631D01*
X3060Y-626D01*
X3051Y-621D01*
X3036D01*
X3027Y-626D01*
X3017Y-635D01*
X3013Y-650D01*
Y-659D01*
X3017Y-673D01*
X3027Y-683D01*
X3036Y-688D01*
X3051D01*
X3060Y-683D01*
X3070Y-673D01*
X-666Y2704D02*
X-657Y2709D01*
X-642Y2723D01*
Y2623D01*
X-593Y2704D02*
X-583Y2709D01*
X-569Y2723D01*
Y2623D01*
X-520Y2742D02*
X-510Y2733D01*
X-500Y2719D01*
X-491Y2699D01*
X-486Y2676D01*
Y2657D01*
X-491Y2633D01*
X-500Y2614D01*
X-510Y2599D01*
X-520Y2590D01*
X-510Y2733D02*
X-500Y2714D01*
X-496Y2699D01*
X-491Y2676D01*
Y2657D01*
X-496Y2633D01*
X-500Y2619D01*
X-510Y2599D01*
X-383Y2723D02*
Y2623D01*
X-317Y2723D02*
Y2623D01*
X-383Y2676D02*
X-317D01*
X-213Y2623D02*
X-251Y2723D01*
X-289Y2623D01*
X-275Y2657D02*
X-227D01*
X-123Y2709D02*
X-132Y2719D01*
X-147Y2723D01*
X-166D01*
X-180Y2719D01*
X-190Y2709D01*
Y2699D01*
X-185Y2690D01*
X-180Y2685D01*
X-171Y2680D01*
X-142Y2671D01*
X-132Y2666D01*
X-128Y2661D01*
X-123Y2652D01*
Y2638D01*
X-132Y2628D01*
X-147Y2623D01*
X-166D01*
X-180Y2628D01*
X-190Y2638D01*
X-101Y2723D02*
Y2623D01*
X-43D01*
X75Y2723D02*
X65Y2719D01*
X56Y2709D01*
X51Y2699D01*
X46Y2685D01*
Y2661D01*
X51Y2647D01*
X56Y2638D01*
X65Y2628D01*
X75Y2623D01*
X94D01*
X103Y2628D01*
X113Y2638D01*
X117Y2647D01*
X122Y2661D01*
Y2685D01*
X117Y2699D01*
X113Y2709D01*
X103Y2719D01*
X94Y2723D01*
X75D01*
X146D02*
Y2623D01*
Y2723D02*
X212Y2623D01*
Y2723D02*
Y2623D01*
X395D02*
X356Y2723D01*
X318Y2623D01*
X333Y2657D02*
X380D01*
X418Y2723D02*
Y2623D01*
X475D01*
X486Y2723D02*
Y2623D01*
X543D01*
X633Y2671D02*
X675D01*
X690Y2676D01*
X695Y2680D01*
X699Y2690D01*
Y2704D01*
X695Y2714D01*
X690Y2719D01*
X675Y2723D01*
X633D01*
Y2623D01*
X798D02*
X760Y2723D01*
X722Y2623D01*
X736Y2657D02*
X784D01*
X821Y2723D02*
Y2623D01*
Y2723D02*
X854D01*
X869Y2719D01*
X878Y2709D01*
X883Y2699D01*
X888Y2685D01*
Y2661D01*
X883Y2647D01*
X878Y2638D01*
X869Y2628D01*
X854Y2623D01*
X821D01*
X977Y2709D02*
X967Y2719D01*
X953Y2723D01*
X934D01*
X920Y2719D01*
X910Y2709D01*
Y2699D01*
X915Y2690D01*
X920Y2685D01*
X929Y2680D01*
X958Y2671D01*
X967Y2666D01*
X972Y2661D01*
X977Y2652D01*
Y2638D01*
X967Y2628D01*
X953Y2623D01*
X934D01*
X920Y2628D01*
X910Y2638D01*
X1154Y2623D02*
X1116Y2723D01*
X1078Y2623D01*
X1092Y2657D02*
X1140D01*
X1177Y2723D02*
Y2623D01*
Y2723D02*
X1244Y2623D01*
Y2723D02*
Y2623D01*
X1272Y2723D02*
Y2623D01*
Y2723D02*
X1305D01*
X1319Y2719D01*
X1329Y2709D01*
X1333Y2699D01*
X1338Y2685D01*
Y2661D01*
X1333Y2647D01*
X1329Y2638D01*
X1319Y2628D01*
X1305Y2623D01*
X1272D01*
X1439Y2723D02*
X1477Y2623D01*
X1515Y2723D02*
X1477Y2623D01*
X1528Y2723D02*
Y2623D01*
X1625D02*
X1587Y2723D01*
X1549Y2623D01*
X1563Y2657D02*
X1611D01*
X1715Y2709D02*
X1706Y2719D01*
X1691Y2723D01*
X1672D01*
X1658Y2719D01*
X1649Y2709D01*
Y2699D01*
X1653Y2690D01*
X1658Y2685D01*
X1668Y2680D01*
X1696Y2671D01*
X1706Y2666D01*
X1710Y2661D01*
X1715Y2652D01*
Y2638D01*
X1706Y2628D01*
X1691Y2623D01*
X1672D01*
X1658Y2628D01*
X1649Y2638D01*
X-666Y2904D02*
X-657Y2909D01*
X-642Y2923D01*
Y2823D01*
X-564Y2923D02*
X-579Y2919D01*
X-588Y2904D01*
X-593Y2880D01*
Y2866D01*
X-588Y2842D01*
X-579Y2828D01*
X-564Y2823D01*
X-555D01*
X-540Y2828D01*
X-531Y2842D01*
X-526Y2866D01*
Y2880D01*
X-531Y2904D01*
X-540Y2919D01*
X-555Y2923D01*
X-564D01*
X-504Y2942D02*
X-494Y2933D01*
X-485Y2919D01*
X-475Y2899D01*
X-470Y2876D01*
Y2857D01*
X-475Y2833D01*
X-485Y2814D01*
X-494Y2799D01*
X-504Y2790D01*
X-494Y2933D02*
X-485Y2914D01*
X-480Y2899D01*
X-475Y2876D01*
Y2857D01*
X-480Y2833D01*
X-485Y2819D01*
X-494Y2799D01*
X-296Y2899D02*
X-301Y2909D01*
X-311Y2919D01*
X-320Y2923D01*
X-339D01*
X-349Y2919D01*
X-358Y2909D01*
X-363Y2899D01*
X-368Y2885D01*
Y2861D01*
X-363Y2847D01*
X-358Y2838D01*
X-349Y2828D01*
X-339Y2823D01*
X-320D01*
X-311Y2828D01*
X-301Y2838D01*
X-296Y2847D01*
Y2861D01*
X-320D02*
X-296D01*
X-273Y2923D02*
Y2823D01*
Y2923D02*
X-231D01*
X-216Y2919D01*
X-211Y2914D01*
X-207Y2904D01*
Y2895D01*
X-211Y2885D01*
X-216Y2880D01*
X-231Y2876D01*
X-273D01*
X-240D02*
X-207Y2823D01*
X-122Y2923D02*
X-184D01*
Y2823D01*
X-122D01*
X-184Y2876D02*
X-146D01*
X-44Y2923D02*
X-106D01*
Y2823D01*
X-44D01*
X-106Y2876D02*
X-68D01*
X-27Y2923D02*
Y2823D01*
Y2923D02*
X39Y2823D01*
Y2923D02*
Y2823D01*
X212Y2909D02*
X203Y2919D01*
X188Y2923D01*
X169D01*
X155Y2919D01*
X146Y2909D01*
Y2899D01*
X150Y2890D01*
X155Y2885D01*
X165Y2880D01*
X193Y2871D01*
X203Y2866D01*
X207Y2861D01*
X212Y2852D01*
Y2838D01*
X203Y2828D01*
X188Y2823D01*
X169D01*
X155Y2828D01*
X146Y2838D01*
X263Y2923D02*
X254Y2919D01*
X244Y2909D01*
X239Y2899D01*
X235Y2885D01*
Y2861D01*
X239Y2847D01*
X244Y2838D01*
X254Y2828D01*
X263Y2823D01*
X282D01*
X292Y2828D01*
X301Y2838D01*
X306Y2847D01*
X311Y2861D01*
Y2885D01*
X306Y2899D01*
X301Y2909D01*
X292Y2919D01*
X282Y2923D01*
X263D01*
X334D02*
Y2823D01*
X391D01*
X402Y2923D02*
Y2823D01*
Y2923D02*
X436D01*
X450Y2919D01*
X459Y2909D01*
X464Y2899D01*
X469Y2885D01*
Y2861D01*
X464Y2847D01*
X459Y2838D01*
X450Y2828D01*
X436Y2823D01*
X402D01*
X553Y2923D02*
X491D01*
Y2823D01*
X553D01*
X491Y2876D02*
X529D01*
X570Y2923D02*
Y2823D01*
Y2923D02*
X613D01*
X627Y2919D01*
X632Y2914D01*
X636Y2904D01*
Y2895D01*
X632Y2885D01*
X627Y2880D01*
X613Y2876D01*
X570D01*
X603D02*
X636Y2823D01*
X737Y2923D02*
Y2823D01*
Y2923D02*
X775Y2823D01*
X814Y2923D02*
X775Y2823D01*
X814Y2923D02*
Y2823D01*
X918D02*
X880Y2923D01*
X842Y2823D01*
X856Y2857D02*
X904D01*
X1008Y2909D02*
X999Y2919D01*
X984Y2923D01*
X965D01*
X951Y2919D01*
X942Y2909D01*
Y2899D01*
X946Y2890D01*
X951Y2885D01*
X961Y2880D01*
X989Y2871D01*
X999Y2866D01*
X1003Y2861D01*
X1008Y2852D01*
Y2838D01*
X999Y2828D01*
X984Y2823D01*
X965D01*
X951Y2828D01*
X942Y2838D01*
X1031Y2923D02*
Y2823D01*
X1097Y2923D02*
X1031Y2857D01*
X1054Y2880D02*
X1097Y2823D01*
X1198Y2923D02*
Y2823D01*
Y2923D02*
X1241D01*
X1255Y2919D01*
X1260Y2914D01*
X1265Y2904D01*
Y2895D01*
X1260Y2885D01*
X1255Y2880D01*
X1241Y2876D01*
X1198D02*
X1241D01*
X1255Y2871D01*
X1260Y2866D01*
X1265Y2857D01*
Y2842D01*
X1260Y2833D01*
X1255Y2828D01*
X1241Y2823D01*
X1198D01*
X1316Y2923D02*
X1306Y2919D01*
X1297Y2909D01*
X1292Y2899D01*
X1287Y2885D01*
Y2861D01*
X1292Y2847D01*
X1297Y2838D01*
X1306Y2828D01*
X1316Y2823D01*
X1335D01*
X1344Y2828D01*
X1354Y2838D01*
X1359Y2847D01*
X1363Y2861D01*
Y2885D01*
X1359Y2899D01*
X1354Y2909D01*
X1344Y2919D01*
X1335Y2923D01*
X1316D01*
X1420D02*
Y2823D01*
X1387Y2923D02*
X1453D01*
X1465D02*
Y2823D01*
X1532Y2923D02*
Y2823D01*
X1465Y2876D02*
X1532D01*
X1705Y2909D02*
X1695Y2919D01*
X1681Y2923D01*
X1662D01*
X1648Y2919D01*
X1638Y2909D01*
Y2899D01*
X1643Y2890D01*
X1648Y2885D01*
X1657Y2880D01*
X1686Y2871D01*
X1695Y2866D01*
X1700Y2861D01*
X1705Y2852D01*
Y2838D01*
X1695Y2828D01*
X1681Y2823D01*
X1662D01*
X1648Y2828D01*
X1638Y2838D01*
X1727Y2923D02*
Y2823D01*
X1748Y2923D02*
Y2823D01*
Y2923D02*
X1781D01*
X1796Y2919D01*
X1805Y2909D01*
X1810Y2899D01*
X1815Y2885D01*
Y2861D01*
X1810Y2847D01*
X1805Y2838D01*
X1796Y2828D01*
X1781Y2823D01*
X1748D01*
X1899Y2923D02*
X1837D01*
Y2823D01*
X1899D01*
X1837Y2876D02*
X1875D01*
X1982Y2909D02*
X1973Y2919D01*
X1959Y2923D01*
X1939D01*
X1925Y2919D01*
X1916Y2909D01*
Y2899D01*
X1920Y2890D01*
X1925Y2885D01*
X1935Y2880D01*
X1963Y2871D01*
X1973Y2866D01*
X1978Y2861D01*
X1982Y2852D01*
Y2838D01*
X1973Y2828D01*
X1959Y2823D01*
X1939D01*
X1925Y2828D01*
X1916Y2838D01*
X-661Y4499D02*
Y4504D01*
X-657Y4514D01*
X-652Y4519D01*
X-642Y4523D01*
X-623D01*
X-614Y4519D01*
X-609Y4514D01*
X-604Y4504D01*
Y4495D01*
X-609Y4485D01*
X-619Y4471D01*
X-666Y4423D01*
X-599D01*
X-577Y4542D02*
X-568Y4533D01*
X-558Y4519D01*
X-549Y4499D01*
X-544Y4476D01*
Y4457D01*
X-549Y4433D01*
X-558Y4414D01*
X-568Y4399D01*
X-577Y4390D01*
X-568Y4533D02*
X-558Y4514D01*
X-553Y4499D01*
X-549Y4476D01*
Y4457D01*
X-553Y4433D01*
X-558Y4419D01*
X-568Y4399D01*
X-441Y4523D02*
Y4423D01*
Y4523D02*
X-403Y4423D01*
X-365Y4523D02*
X-403Y4423D01*
X-365Y4523D02*
Y4423D01*
X-260D02*
X-298Y4523D01*
X-336Y4423D01*
X-322Y4457D02*
X-274D01*
X-203Y4523D02*
Y4423D01*
X-237Y4523D02*
X-170D01*
X-96D02*
X-158D01*
Y4423D01*
X-96D01*
X-158Y4476D02*
X-120D01*
X-80Y4523D02*
Y4423D01*
Y4523D02*
X-37D01*
X-22Y4519D01*
X-18Y4514D01*
X-13Y4504D01*
Y4495D01*
X-18Y4485D01*
X-22Y4480D01*
X-37Y4476D01*
X-80D01*
X-46D02*
X-13Y4423D01*
X9Y4523D02*
Y4423D01*
X107D02*
X68Y4523D01*
X30Y4423D01*
X45Y4457D02*
X92D01*
X130Y4523D02*
Y4423D01*
X187D01*
X277Y4523D02*
Y4423D01*
X364Y4509D02*
X355Y4519D01*
X340Y4523D01*
X321D01*
X307Y4519D01*
X297Y4509D01*
Y4499D01*
X302Y4490D01*
X307Y4485D01*
X317Y4480D01*
X345Y4471D01*
X355Y4466D01*
X359Y4461D01*
X364Y4452D01*
Y4438D01*
X355Y4428D01*
X340Y4423D01*
X321D01*
X307Y4428D01*
X297Y4438D01*
X465Y4523D02*
Y4423D01*
Y4523D02*
X527D01*
X465Y4476D02*
X503D01*
X538Y4523D02*
Y4423D01*
Y4523D02*
X581D01*
X595Y4519D01*
X600Y4514D01*
X605Y4504D01*
Y4495D01*
X600Y4485D01*
X595Y4480D01*
X581Y4476D01*
X538D01*
X572D02*
X605Y4423D01*
X675Y4523D02*
X627Y4457D01*
X699D01*
X675Y4523D02*
Y4423D01*
X-666Y4704D02*
X-657Y4709D01*
X-642Y4723D01*
Y4623D01*
X-593Y4742D02*
X-583Y4733D01*
X-574Y4719D01*
X-564Y4699D01*
X-559Y4676D01*
Y4657D01*
X-564Y4633D01*
X-574Y4614D01*
X-583Y4599D01*
X-593Y4590D01*
X-583Y4733D02*
X-574Y4714D01*
X-569Y4699D01*
X-564Y4676D01*
Y4657D01*
X-569Y4633D01*
X-574Y4619D01*
X-583Y4599D01*
X-457Y4723D02*
Y4623D01*
Y4723D02*
X-414D01*
X-400Y4719D01*
X-395Y4714D01*
X-390Y4704D01*
Y4695D01*
X-395Y4685D01*
X-400Y4680D01*
X-414Y4676D01*
X-457D02*
X-414D01*
X-400Y4671D01*
X-395Y4666D01*
X-390Y4657D01*
Y4642D01*
X-395Y4633D01*
X-400Y4628D01*
X-414Y4623D01*
X-457D01*
X-339Y4723D02*
X-349Y4719D01*
X-358Y4709D01*
X-363Y4699D01*
X-368Y4685D01*
Y4661D01*
X-363Y4647D01*
X-358Y4638D01*
X-349Y4628D01*
X-339Y4623D01*
X-320D01*
X-311Y4628D01*
X-301Y4638D01*
X-296Y4647D01*
X-291Y4661D01*
Y4685D01*
X-296Y4699D01*
X-301Y4709D01*
X-311Y4719D01*
X-320Y4723D01*
X-339D01*
X-192Y4623D02*
X-230Y4723D01*
X-268Y4623D01*
X-254Y4657D02*
X-206D01*
X-169Y4723D02*
Y4623D01*
Y4723D02*
X-126D01*
X-111Y4719D01*
X-107Y4714D01*
X-102Y4704D01*
Y4695D01*
X-107Y4685D01*
X-111Y4680D01*
X-126Y4676D01*
X-169D01*
X-135D02*
X-102Y4623D01*
X-80Y4723D02*
Y4623D01*
Y4723D02*
X-46D01*
X-32Y4719D01*
X-22Y4709D01*
X-18Y4699D01*
X-13Y4685D01*
Y4661D01*
X-18Y4647D01*
X-22Y4638D01*
X-32Y4628D01*
X-46Y4623D01*
X-80D01*
X88Y4723D02*
Y4623D01*
Y4723D02*
X126Y4623D01*
X164Y4723D02*
X126Y4623D01*
X164Y4723D02*
Y4623D01*
X255Y4723D02*
X193D01*
Y4623D01*
X255D01*
X193Y4676D02*
X231D01*
X347Y4623D02*
X309Y4723D01*
X271Y4623D01*
X286Y4657D02*
X333D01*
X437Y4709D02*
X428Y4719D01*
X414Y4723D01*
X395D01*
X380Y4719D01*
X371Y4709D01*
Y4699D01*
X376Y4690D01*
X380Y4685D01*
X390Y4680D01*
X418Y4671D01*
X428Y4666D01*
X433Y4661D01*
X437Y4652D01*
Y4638D01*
X428Y4628D01*
X414Y4623D01*
X395D01*
X380Y4628D01*
X371Y4638D01*
X460Y4723D02*
Y4652D01*
X465Y4638D01*
X474Y4628D01*
X488Y4623D01*
X498D01*
X512Y4628D01*
X522Y4638D01*
X526Y4652D01*
Y4723D01*
X554D02*
Y4623D01*
Y4723D02*
X597D01*
X611Y4719D01*
X616Y4714D01*
X621Y4704D01*
Y4695D01*
X616Y4685D01*
X611Y4680D01*
X597Y4676D01*
X554D01*
X587D02*
X621Y4623D01*
X705Y4723D02*
X643D01*
Y4623D01*
X705D01*
X643Y4676D02*
X681D01*
X788Y4709D02*
X779Y4719D01*
X765Y4723D01*
X745D01*
X731Y4719D01*
X722Y4709D01*
Y4699D01*
X726Y4690D01*
X731Y4685D01*
X741Y4680D01*
X769Y4671D01*
X779Y4666D01*
X784Y4661D01*
X788Y4652D01*
Y4638D01*
X779Y4628D01*
X765Y4623D01*
X745D01*
X731Y4628D01*
X722Y4638D01*
X894Y4699D02*
Y4704D01*
X899Y4714D01*
X904Y4719D01*
X913Y4723D01*
X932D01*
X942Y4719D01*
X946Y4714D01*
X951Y4704D01*
Y4695D01*
X946Y4685D01*
X937Y4671D01*
X889Y4623D01*
X956D01*
X983Y4633D02*
X978Y4628D01*
X983Y4623D01*
X988Y4628D01*
X983Y4633D01*
X1019Y4723D02*
X1072D01*
X1043Y4685D01*
X1057D01*
X1067Y4680D01*
X1072Y4676D01*
X1076Y4661D01*
Y4652D01*
X1072Y4638D01*
X1062Y4628D01*
X1048Y4623D01*
X1033D01*
X1019Y4628D01*
X1014Y4633D01*
X1010Y4642D01*
X1165Y4723D02*
X1118Y4623D01*
X1099Y4723D02*
X1165D01*
X1216D02*
X1202Y4719D01*
X1193Y4704D01*
X1188Y4680D01*
Y4666D01*
X1193Y4642D01*
X1202Y4628D01*
X1216Y4623D01*
X1226D01*
X1240Y4628D01*
X1250Y4642D01*
X1254Y4666D01*
Y4680D01*
X1250Y4704D01*
X1240Y4719D01*
X1226Y4723D01*
X1216D01*
X1355D02*
X1422Y4623D01*
Y4723D02*
X1355Y4623D01*
X1601Y4704D02*
X1611Y4709D01*
X1625Y4723D01*
Y4623D01*
X1680Y4633D02*
X1675Y4628D01*
X1680Y4623D01*
X1684Y4628D01*
X1680Y4633D01*
X1768Y4690D02*
X1763Y4676D01*
X1754Y4666D01*
X1740Y4661D01*
X1735D01*
X1720Y4666D01*
X1711Y4676D01*
X1706Y4690D01*
Y4695D01*
X1711Y4709D01*
X1720Y4719D01*
X1735Y4723D01*
X1740D01*
X1754Y4719D01*
X1763Y4709D01*
X1768Y4690D01*
Y4666D01*
X1763Y4642D01*
X1754Y4628D01*
X1740Y4623D01*
X1730D01*
X1716Y4628D01*
X1711Y4638D01*
X1862Y4723D02*
X1814Y4623D01*
X1795Y4723D02*
X1862D01*
X1913D02*
X1899Y4719D01*
X1889Y4704D01*
X1884Y4680D01*
Y4666D01*
X1889Y4642D01*
X1899Y4628D01*
X1913Y4623D01*
X1922D01*
X1937Y4628D01*
X1946Y4642D01*
X1951Y4666D01*
Y4680D01*
X1946Y4704D01*
X1937Y4719D01*
X1922Y4723D01*
X1913D01*
X2052D02*
Y4623D01*
X2073Y4723D02*
Y4623D01*
Y4723D02*
X2139Y4623D01*
Y4723D02*
Y4623D01*
X-604Y3090D02*
X-609Y3076D01*
X-619Y3066D01*
X-633Y3061D01*
X-638D01*
X-652Y3066D01*
X-661Y3076D01*
X-666Y3090D01*
Y3095D01*
X-661Y3109D01*
X-652Y3119D01*
X-638Y3123D01*
X-633D01*
X-619Y3119D01*
X-609Y3109D01*
X-604Y3090D01*
Y3066D01*
X-609Y3042D01*
X-619Y3028D01*
X-633Y3023D01*
X-642D01*
X-657Y3028D01*
X-661Y3038D01*
X-577Y3142D02*
X-568Y3133D01*
X-558Y3119D01*
X-549Y3099D01*
X-544Y3076D01*
Y3057D01*
X-549Y3033D01*
X-558Y3014D01*
X-568Y2999D01*
X-577Y2990D01*
X-568Y3133D02*
X-558Y3114D01*
X-553Y3099D01*
X-549Y3076D01*
Y3057D01*
X-553Y3033D01*
X-558Y3019D01*
X-568Y2999D01*
X-441Y3123D02*
Y3023D01*
Y3123D02*
X-374Y3023D01*
Y3123D02*
Y3023D01*
X-318Y3123D02*
X-328Y3119D01*
X-337Y3109D01*
X-342Y3099D01*
X-347Y3085D01*
Y3061D01*
X-342Y3047D01*
X-337Y3038D01*
X-328Y3028D01*
X-318Y3023D01*
X-299D01*
X-290Y3028D01*
X-280Y3038D01*
X-275Y3047D01*
X-271Y3061D01*
Y3085D01*
X-275Y3099D01*
X-280Y3109D01*
X-290Y3119D01*
X-299Y3123D01*
X-318D01*
X-102Y3109D02*
X-111Y3119D01*
X-126Y3123D01*
X-145D01*
X-159Y3119D01*
X-169Y3109D01*
Y3099D01*
X-164Y3090D01*
X-159Y3085D01*
X-150Y3080D01*
X-121Y3071D01*
X-111Y3066D01*
X-107Y3061D01*
X-102Y3052D01*
Y3038D01*
X-111Y3028D01*
X-126Y3023D01*
X-145D01*
X-159Y3028D01*
X-169Y3038D01*
X-80Y3123D02*
Y3023D01*
X-59Y3123D02*
Y3023D01*
X-2D01*
X9Y3123D02*
Y3023D01*
X76Y3123D02*
X9Y3057D01*
X33Y3080D02*
X76Y3023D01*
X165Y3109D02*
X156Y3119D01*
X141Y3123D01*
X122D01*
X108Y3119D01*
X98Y3109D01*
Y3099D01*
X103Y3090D01*
X108Y3085D01*
X117Y3080D01*
X146Y3071D01*
X156Y3066D01*
X160Y3061D01*
X165Y3052D01*
Y3038D01*
X156Y3028D01*
X141Y3023D01*
X122D01*
X108Y3028D01*
X98Y3038D01*
X259Y3099D02*
X254Y3109D01*
X245Y3119D01*
X235Y3123D01*
X216D01*
X207Y3119D01*
X197Y3109D01*
X192Y3099D01*
X187Y3085D01*
Y3061D01*
X192Y3047D01*
X197Y3038D01*
X207Y3028D01*
X216Y3023D01*
X235D01*
X245Y3028D01*
X254Y3038D01*
X259Y3047D01*
X287Y3123D02*
Y3023D01*
Y3123D02*
X330D01*
X344Y3119D01*
X349Y3114D01*
X354Y3104D01*
Y3095D01*
X349Y3085D01*
X344Y3080D01*
X330Y3076D01*
X287D01*
X320D02*
X354Y3023D01*
X438Y3123D02*
X376D01*
Y3023D01*
X438D01*
X376Y3076D02*
X414D01*
X516Y3123D02*
X455D01*
Y3023D01*
X516D01*
X455Y3076D02*
X493D01*
X533Y3123D02*
Y3023D01*
Y3123D02*
X600Y3023D01*
Y3123D02*
Y3023D01*
X735Y3123D02*
X725Y3119D01*
X715Y3109D01*
X711Y3099D01*
X706Y3085D01*
Y3061D01*
X711Y3047D01*
X715Y3038D01*
X725Y3028D01*
X735Y3023D01*
X754D01*
X763Y3028D01*
X773Y3038D01*
X777Y3047D01*
X782Y3061D01*
Y3085D01*
X777Y3099D01*
X773Y3109D01*
X763Y3119D01*
X754Y3123D01*
X735D01*
X805D02*
Y3023D01*
Y3123D02*
X872Y3023D01*
Y3123D02*
Y3023D01*
X978Y3071D02*
X1021D01*
X1035Y3076D01*
X1040Y3080D01*
X1045Y3090D01*
Y3104D01*
X1040Y3114D01*
X1035Y3119D01*
X1021Y3123D01*
X978D01*
Y3023D01*
X1143D02*
X1105Y3123D01*
X1067Y3023D01*
X1082Y3057D02*
X1129D01*
X1167Y3123D02*
Y3023D01*
Y3123D02*
X1200D01*
X1214Y3119D01*
X1224Y3109D01*
X1229Y3099D01*
X1233Y3085D01*
Y3061D01*
X1229Y3047D01*
X1224Y3038D01*
X1214Y3028D01*
X1200Y3023D01*
X1167D01*
X1322Y3109D02*
X1313Y3119D01*
X1299Y3123D01*
X1280D01*
X1265Y3119D01*
X1256Y3109D01*
Y3099D01*
X1261Y3090D01*
X1265Y3085D01*
X1275Y3080D01*
X1303Y3071D01*
X1313Y3066D01*
X1318Y3061D01*
X1322Y3052D01*
Y3038D01*
X1313Y3028D01*
X1299Y3023D01*
X1280D01*
X1265Y3028D01*
X1256Y3038D01*
X-642Y3323D02*
X-657Y3319D01*
X-661Y3309D01*
Y3299D01*
X-657Y3290D01*
X-647Y3285D01*
X-628Y3280D01*
X-614Y3276D01*
X-604Y3266D01*
X-599Y3257D01*
Y3242D01*
X-604Y3233D01*
X-609Y3228D01*
X-623Y3223D01*
X-642D01*
X-657Y3228D01*
X-661Y3233D01*
X-666Y3242D01*
Y3257D01*
X-661Y3266D01*
X-652Y3276D01*
X-638Y3280D01*
X-619Y3285D01*
X-609Y3290D01*
X-604Y3299D01*
Y3309D01*
X-609Y3319D01*
X-623Y3323D01*
X-642D01*
X-577Y3342D02*
X-568Y3333D01*
X-558Y3319D01*
X-549Y3299D01*
X-544Y3276D01*
Y3257D01*
X-549Y3233D01*
X-558Y3214D01*
X-568Y3199D01*
X-577Y3190D01*
X-568Y3333D02*
X-558Y3314D01*
X-553Y3299D01*
X-549Y3276D01*
Y3257D01*
X-553Y3233D01*
X-558Y3219D01*
X-568Y3199D01*
X-365Y3223D02*
X-403Y3323D01*
X-441Y3223D01*
X-427Y3257D02*
X-379D01*
X-341Y3323D02*
Y3223D01*
Y3323D02*
X-308D01*
X-294Y3319D01*
X-284Y3309D01*
X-280Y3299D01*
X-275Y3285D01*
Y3261D01*
X-280Y3247D01*
X-284Y3238D01*
X-294Y3228D01*
X-308Y3223D01*
X-341D01*
X-252Y3323D02*
Y3223D01*
Y3323D02*
X-219D01*
X-205Y3319D01*
X-195Y3309D01*
X-191Y3299D01*
X-186Y3285D01*
Y3261D01*
X-191Y3247D01*
X-195Y3238D01*
X-205Y3228D01*
X-219Y3223D01*
X-252D01*
X-18Y3309D02*
X-28Y3319D01*
X-42Y3323D01*
X-61D01*
X-75Y3319D01*
X-85Y3309D01*
Y3299D01*
X-80Y3290D01*
X-75Y3285D01*
X-66Y3280D01*
X-37Y3271D01*
X-28Y3266D01*
X-23Y3261D01*
X-18Y3252D01*
Y3238D01*
X-28Y3228D01*
X-42Y3223D01*
X-61D01*
X-75Y3228D01*
X-85Y3238D01*
X4Y3323D02*
Y3223D01*
X25Y3323D02*
Y3223D01*
X82D01*
X93Y3323D02*
Y3223D01*
X160Y3323D02*
X93Y3257D01*
X117Y3280D02*
X160Y3223D01*
X249Y3309D02*
X239Y3319D01*
X225Y3323D01*
X206D01*
X192Y3319D01*
X182Y3309D01*
Y3299D01*
X187Y3290D01*
X192Y3285D01*
X201Y3280D01*
X230Y3271D01*
X239Y3266D01*
X244Y3261D01*
X249Y3252D01*
Y3238D01*
X239Y3228D01*
X225Y3223D01*
X206D01*
X192Y3228D01*
X182Y3238D01*
X343Y3299D02*
X338Y3309D01*
X328Y3319D01*
X319Y3323D01*
X300D01*
X290Y3319D01*
X281Y3309D01*
X276Y3299D01*
X271Y3285D01*
Y3261D01*
X276Y3247D01*
X281Y3238D01*
X290Y3228D01*
X300Y3223D01*
X319D01*
X328Y3228D01*
X338Y3238D01*
X343Y3247D01*
X371Y3323D02*
Y3223D01*
Y3323D02*
X414D01*
X428Y3319D01*
X433Y3314D01*
X437Y3304D01*
Y3295D01*
X433Y3285D01*
X428Y3280D01*
X414Y3276D01*
X371D01*
X404D02*
X437Y3223D01*
X522Y3323D02*
X460D01*
Y3223D01*
X522D01*
X460Y3276D02*
X498D01*
X600Y3323D02*
X538D01*
Y3223D01*
X600D01*
X538Y3276D02*
X576D01*
X617Y3323D02*
Y3223D01*
Y3323D02*
X684Y3223D01*
Y3323D02*
Y3223D01*
X-599Y3523D02*
X-647Y3423D01*
X-666Y3523D02*
X-599D01*
X-577Y3542D02*
X-568Y3533D01*
X-558Y3519D01*
X-549Y3499D01*
X-544Y3476D01*
Y3457D01*
X-549Y3433D01*
X-558Y3414D01*
X-568Y3399D01*
X-577Y3390D01*
X-568Y3533D02*
X-558Y3514D01*
X-553Y3499D01*
X-549Y3476D01*
Y3457D01*
X-553Y3433D01*
X-558Y3419D01*
X-568Y3399D01*
X-441Y3523D02*
Y3423D01*
Y3523D02*
X-398D01*
X-384Y3519D01*
X-379Y3514D01*
X-374Y3504D01*
Y3495D01*
X-379Y3485D01*
X-384Y3480D01*
X-398Y3476D01*
X-441D01*
X-408D02*
X-374Y3423D01*
X-323Y3523D02*
X-333Y3519D01*
X-342Y3509D01*
X-347Y3499D01*
X-352Y3485D01*
Y3461D01*
X-347Y3447D01*
X-342Y3438D01*
X-333Y3428D01*
X-323Y3423D01*
X-304D01*
X-295Y3428D01*
X-285Y3438D01*
X-281Y3447D01*
X-276Y3461D01*
Y3485D01*
X-281Y3499D01*
X-285Y3509D01*
X-295Y3519D01*
X-304Y3523D01*
X-323D01*
X-252D02*
Y3452D01*
X-248Y3438D01*
X-238Y3428D01*
X-224Y3423D01*
X-214D01*
X-200Y3428D01*
X-191Y3438D01*
X-186Y3452D01*
Y3523D01*
X-125D02*
Y3423D01*
X-158Y3523D02*
X-92D01*
X-18D02*
X-80D01*
Y3423D01*
X-18D01*
X-80Y3476D02*
X-42D01*
X111Y3523D02*
Y3423D01*
X78Y3523D02*
X144D01*
X185D02*
X175Y3519D01*
X166Y3509D01*
X161Y3499D01*
X156Y3485D01*
Y3461D01*
X161Y3447D01*
X166Y3438D01*
X175Y3428D01*
X185Y3423D01*
X204D01*
X213Y3428D01*
X223Y3438D01*
X227Y3447D01*
X232Y3461D01*
Y3485D01*
X227Y3499D01*
X223Y3509D01*
X213Y3519D01*
X204Y3523D01*
X185D01*
X334D02*
Y3423D01*
Y3523D02*
X377D01*
X391Y3519D01*
X396Y3514D01*
X401Y3504D01*
Y3495D01*
X396Y3485D01*
X391Y3480D01*
X377Y3476D01*
X334D02*
X377D01*
X391Y3471D01*
X396Y3466D01*
X401Y3457D01*
Y3442D01*
X396Y3433D01*
X391Y3428D01*
X377Y3423D01*
X334D01*
X452Y3523D02*
X442Y3519D01*
X433Y3509D01*
X428Y3499D01*
X423Y3485D01*
Y3461D01*
X428Y3447D01*
X433Y3438D01*
X442Y3428D01*
X452Y3423D01*
X471D01*
X480Y3428D01*
X490Y3438D01*
X495Y3447D01*
X499Y3461D01*
Y3485D01*
X495Y3499D01*
X490Y3509D01*
X480Y3519D01*
X471Y3523D01*
X452D01*
X599Y3423D02*
X561Y3523D01*
X523Y3423D01*
X537Y3457D02*
X585D01*
X622Y3523D02*
Y3423D01*
Y3523D02*
X665D01*
X679Y3519D01*
X684Y3514D01*
X689Y3504D01*
Y3495D01*
X684Y3485D01*
X679Y3480D01*
X665Y3476D01*
X622D01*
X655D02*
X689Y3423D01*
X711Y3523D02*
Y3423D01*
Y3523D02*
X745D01*
X759Y3519D01*
X768Y3509D01*
X773Y3499D01*
X778Y3485D01*
Y3461D01*
X773Y3447D01*
X768Y3438D01*
X759Y3428D01*
X745Y3423D01*
X711D01*
X907Y3523D02*
X898Y3519D01*
X888Y3509D01*
X884Y3499D01*
X879Y3485D01*
Y3461D01*
X884Y3447D01*
X888Y3438D01*
X898Y3428D01*
X907Y3423D01*
X926D01*
X936Y3428D01*
X945Y3438D01*
X950Y3447D01*
X955Y3461D01*
Y3485D01*
X950Y3499D01*
X945Y3509D01*
X936Y3519D01*
X926Y3523D01*
X907D01*
X978D02*
Y3452D01*
X983Y3438D01*
X993Y3428D01*
X1007Y3423D01*
X1016D01*
X1031Y3428D01*
X1040Y3438D01*
X1045Y3452D01*
Y3523D01*
X1106D02*
Y3423D01*
X1073Y3523D02*
X1139D01*
X1151D02*
Y3423D01*
X1208D01*
X1219Y3523D02*
Y3423D01*
X1240Y3523D02*
Y3423D01*
Y3523D02*
X1307Y3423D01*
Y3523D02*
Y3423D01*
X1396Y3523D02*
X1334D01*
Y3423D01*
X1396D01*
X1334Y3476D02*
X1372D01*
X-609Y3709D02*
X-614Y3719D01*
X-628Y3723D01*
X-638D01*
X-652Y3719D01*
X-661Y3704D01*
X-666Y3680D01*
Y3657D01*
X-661Y3638D01*
X-652Y3628D01*
X-638Y3623D01*
X-633D01*
X-619Y3628D01*
X-609Y3638D01*
X-604Y3652D01*
Y3657D01*
X-609Y3671D01*
X-619Y3680D01*
X-633Y3685D01*
X-638D01*
X-652Y3680D01*
X-661Y3671D01*
X-666Y3657D01*
X-582Y3742D02*
X-573Y3733D01*
X-563Y3719D01*
X-554Y3699D01*
X-549Y3676D01*
Y3657D01*
X-554Y3633D01*
X-563Y3614D01*
X-573Y3599D01*
X-582Y3590D01*
X-573Y3733D02*
X-563Y3714D01*
X-559Y3699D01*
X-554Y3676D01*
Y3657D01*
X-559Y3633D01*
X-563Y3619D01*
X-573Y3599D01*
X-446Y3723D02*
Y3623D01*
Y3723D02*
X-380Y3623D01*
Y3723D02*
Y3623D01*
X-323Y3723D02*
X-333Y3719D01*
X-342Y3709D01*
X-347Y3699D01*
X-352Y3685D01*
Y3661D01*
X-347Y3647D01*
X-342Y3638D01*
X-333Y3628D01*
X-323Y3623D01*
X-304D01*
X-295Y3628D01*
X-285Y3638D01*
X-281Y3647D01*
X-276Y3661D01*
Y3685D01*
X-281Y3699D01*
X-285Y3709D01*
X-295Y3719D01*
X-304Y3723D01*
X-323D01*
X-102Y3699D02*
X-107Y3709D01*
X-117Y3719D01*
X-126Y3723D01*
X-145D01*
X-155Y3719D01*
X-164Y3709D01*
X-169Y3699D01*
X-174Y3685D01*
Y3661D01*
X-169Y3647D01*
X-164Y3638D01*
X-155Y3628D01*
X-145Y3623D01*
X-126D01*
X-117Y3628D01*
X-107Y3638D01*
X-102Y3647D01*
X-74Y3723D02*
Y3652D01*
X-70Y3638D01*
X-60Y3628D01*
X-46Y3623D01*
X-36D01*
X-22Y3628D01*
X-12Y3638D01*
X-8Y3652D01*
Y3723D01*
X53D02*
Y3623D01*
X20Y3723D02*
X87D01*
X127D02*
X117Y3719D01*
X108Y3709D01*
X103Y3699D01*
X98Y3685D01*
Y3661D01*
X103Y3647D01*
X108Y3638D01*
X117Y3628D01*
X127Y3623D01*
X146D01*
X156Y3628D01*
X165Y3638D01*
X170Y3647D01*
X175Y3661D01*
Y3685D01*
X170Y3699D01*
X165Y3709D01*
X156Y3719D01*
X146Y3723D01*
X127D01*
X198D02*
Y3652D01*
X203Y3638D01*
X212Y3628D01*
X227Y3623D01*
X236D01*
X250Y3628D01*
X260Y3638D01*
X265Y3652D01*
Y3723D01*
X326D02*
Y3623D01*
X292Y3723D02*
X359D01*
X437Y3709D02*
X428Y3719D01*
X414Y3723D01*
X395D01*
X380Y3719D01*
X371Y3709D01*
Y3699D01*
X376Y3690D01*
X380Y3685D01*
X390Y3680D01*
X418Y3671D01*
X428Y3666D01*
X433Y3661D01*
X437Y3652D01*
Y3638D01*
X428Y3628D01*
X414Y3623D01*
X395D01*
X380Y3628D01*
X371Y3638D01*
X-609Y3923D02*
X-657D01*
X-661Y3880D01*
X-657Y3885D01*
X-642Y3890D01*
X-628D01*
X-614Y3885D01*
X-604Y3876D01*
X-599Y3861D01*
Y3852D01*
X-604Y3838D01*
X-614Y3828D01*
X-628Y3823D01*
X-642D01*
X-657Y3828D01*
X-661Y3833D01*
X-666Y3842D01*
X-577Y3942D02*
X-568Y3933D01*
X-558Y3919D01*
X-549Y3899D01*
X-544Y3876D01*
Y3857D01*
X-549Y3833D01*
X-558Y3814D01*
X-568Y3799D01*
X-577Y3790D01*
X-568Y3933D02*
X-558Y3914D01*
X-553Y3899D01*
X-549Y3876D01*
Y3857D01*
X-553Y3833D01*
X-558Y3819D01*
X-568Y3799D01*
X-441Y3923D02*
Y3823D01*
Y3923D02*
X-379D01*
X-441Y3876D02*
X-403D01*
X-368Y3923D02*
Y3823D01*
X-347Y3923D02*
Y3823D01*
Y3923D02*
X-280Y3823D01*
Y3923D02*
Y3823D01*
X-252Y3923D02*
Y3823D01*
X-165Y3909D02*
X-174Y3919D01*
X-189Y3923D01*
X-208D01*
X-222Y3919D01*
X-231Y3909D01*
Y3899D01*
X-227Y3890D01*
X-222Y3885D01*
X-212Y3880D01*
X-184Y3871D01*
X-174Y3866D01*
X-170Y3861D01*
X-165Y3852D01*
Y3838D01*
X-174Y3828D01*
X-189Y3823D01*
X-208D01*
X-222Y3828D01*
X-231Y3838D01*
X-142Y3923D02*
Y3823D01*
X-76Y3923D02*
Y3823D01*
X-142Y3876D02*
X-76D01*
X30Y3923D02*
Y3823D01*
X118Y3909D02*
X108Y3919D01*
X94Y3923D01*
X75D01*
X61Y3919D01*
X51Y3909D01*
Y3899D01*
X56Y3890D01*
X61Y3885D01*
X70Y3880D01*
X99Y3871D01*
X108Y3866D01*
X113Y3861D01*
X118Y3852D01*
Y3838D01*
X108Y3828D01*
X94Y3823D01*
X75D01*
X61Y3828D01*
X51Y3838D01*
X286Y3909D02*
X276Y3919D01*
X262Y3923D01*
X243D01*
X228Y3919D01*
X219Y3909D01*
Y3899D01*
X224Y3890D01*
X228Y3885D01*
X238Y3880D01*
X267Y3871D01*
X276Y3866D01*
X281Y3861D01*
X286Y3852D01*
Y3838D01*
X276Y3828D01*
X262Y3823D01*
X243D01*
X228Y3828D01*
X219Y3838D01*
X308Y3923D02*
Y3823D01*
Y3923D02*
X346Y3823D01*
X384Y3923D02*
X346Y3823D01*
X384Y3923D02*
Y3823D01*
X441Y3923D02*
X432Y3919D01*
X422Y3909D01*
X417Y3899D01*
X413Y3885D01*
Y3861D01*
X417Y3847D01*
X422Y3838D01*
X432Y3828D01*
X441Y3823D01*
X460D01*
X470Y3828D01*
X479Y3838D01*
X484Y3847D01*
X489Y3861D01*
Y3885D01*
X484Y3899D01*
X479Y3909D01*
X470Y3919D01*
X460Y3923D01*
X441D01*
X512D02*
Y3823D01*
Y3923D02*
X555D01*
X569Y3919D01*
X574Y3914D01*
X579Y3904D01*
Y3895D01*
X574Y3885D01*
X569Y3880D01*
X555Y3876D01*
X512D02*
X555D01*
X569Y3871D01*
X574Y3866D01*
X579Y3857D01*
Y3842D01*
X574Y3833D01*
X569Y3828D01*
X555Y3823D01*
X512D01*
X673Y3899D02*
X668Y3909D01*
X658Y3919D01*
X649Y3923D01*
X630D01*
X620Y3919D01*
X611Y3909D01*
X606Y3899D01*
X601Y3885D01*
Y3861D01*
X606Y3847D01*
X611Y3838D01*
X620Y3828D01*
X630Y3823D01*
X649D01*
X658Y3828D01*
X668Y3838D01*
X673Y3847D01*
X-619Y4123D02*
X-666Y4057D01*
X-595D01*
X-619Y4123D02*
Y4023D01*
X-577Y4142D02*
X-568Y4133D01*
X-558Y4119D01*
X-549Y4099D01*
X-544Y4076D01*
Y4057D01*
X-549Y4033D01*
X-558Y4014D01*
X-568Y3999D01*
X-577Y3990D01*
X-568Y4133D02*
X-558Y4114D01*
X-553Y4099D01*
X-549Y4076D01*
Y4057D01*
X-553Y4033D01*
X-558Y4019D01*
X-568Y3999D01*
X-370Y4099D02*
X-374Y4109D01*
X-384Y4119D01*
X-393Y4123D01*
X-412D01*
X-422Y4119D01*
X-431Y4109D01*
X-436Y4099D01*
X-441Y4085D01*
Y4061D01*
X-436Y4047D01*
X-431Y4038D01*
X-422Y4028D01*
X-412Y4023D01*
X-393D01*
X-384Y4028D01*
X-374Y4038D01*
X-370Y4047D01*
X-313Y4123D02*
X-322Y4119D01*
X-332Y4109D01*
X-337Y4099D01*
X-341Y4085D01*
Y4061D01*
X-337Y4047D01*
X-332Y4038D01*
X-322Y4028D01*
X-313Y4023D01*
X-294D01*
X-284Y4028D01*
X-275Y4038D01*
X-270Y4047D01*
X-265Y4061D01*
Y4085D01*
X-270Y4099D01*
X-275Y4109D01*
X-284Y4119D01*
X-294Y4123D01*
X-313D01*
X-242Y4071D02*
X-199D01*
X-185Y4076D01*
X-180Y4080D01*
X-175Y4090D01*
Y4104D01*
X-180Y4114D01*
X-185Y4119D01*
X-199Y4123D01*
X-242D01*
Y4023D01*
X-153Y4071D02*
X-110D01*
X-96Y4076D01*
X-91Y4080D01*
X-86Y4090D01*
Y4104D01*
X-91Y4114D01*
X-96Y4119D01*
X-110Y4123D01*
X-153D01*
Y4023D01*
X-2Y4123D02*
X-64D01*
Y4023D01*
X-2D01*
X-64Y4076D02*
X-26D01*
X15Y4123D02*
Y4023D01*
Y4123D02*
X58D01*
X72Y4119D01*
X77Y4114D01*
X81Y4104D01*
Y4095D01*
X77Y4085D01*
X72Y4080D01*
X58Y4076D01*
X15D01*
X48D02*
X81Y4023D01*
X182Y4123D02*
X206Y4023D01*
X230Y4123D02*
X206Y4023D01*
X230Y4123D02*
X254Y4023D01*
X277Y4123D02*
X254Y4023D01*
X359Y4123D02*
X297D01*
Y4023D01*
X359D01*
X297Y4076D02*
X336D01*
X376Y4123D02*
Y4023D01*
X468Y4099D02*
X464Y4109D01*
X454Y4119D01*
X445Y4123D01*
X426D01*
X416Y4119D01*
X406Y4109D01*
X402Y4099D01*
X397Y4085D01*
Y4061D01*
X402Y4047D01*
X406Y4038D01*
X416Y4028D01*
X426Y4023D01*
X445D01*
X454Y4028D01*
X464Y4038D01*
X468Y4047D01*
Y4061D01*
X445D02*
X468D01*
X491Y4123D02*
Y4023D01*
X558Y4123D02*
Y4023D01*
X491Y4076D02*
X558D01*
X619Y4123D02*
Y4023D01*
X585Y4123D02*
X652D01*
X743D02*
Y4023D01*
X830Y4109D02*
X821Y4119D01*
X806Y4123D01*
X787D01*
X773Y4119D01*
X764Y4109D01*
Y4099D01*
X768Y4090D01*
X773Y4085D01*
X783Y4080D01*
X811Y4071D01*
X821Y4066D01*
X825Y4061D01*
X830Y4052D01*
Y4038D01*
X821Y4028D01*
X806Y4023D01*
X787D01*
X773Y4028D01*
X764Y4038D01*
X931Y4104D02*
X941Y4109D01*
X955Y4123D01*
Y4023D01*
X1112Y4123D02*
X1102Y4119D01*
X1093Y4109D01*
X1088Y4099D01*
X1083Y4085D01*
Y4061D01*
X1088Y4047D01*
X1093Y4038D01*
X1102Y4028D01*
X1112Y4023D01*
X1131D01*
X1140Y4028D01*
X1150Y4038D01*
X1154Y4047D01*
X1159Y4061D01*
Y4085D01*
X1154Y4099D01*
X1150Y4109D01*
X1140Y4119D01*
X1131Y4123D01*
X1112D01*
X1183D02*
Y4052D01*
X1187Y4038D01*
X1197Y4028D01*
X1211Y4023D01*
X1221D01*
X1235Y4028D01*
X1244Y4038D01*
X1249Y4052D01*
Y4123D01*
X1277D02*
Y4023D01*
Y4123D02*
X1343Y4023D01*
Y4123D02*
Y4023D01*
X1442Y4099D02*
X1438Y4109D01*
X1428Y4119D01*
X1419Y4123D01*
X1400D01*
X1390Y4119D01*
X1381Y4109D01*
X1376Y4099D01*
X1371Y4085D01*
Y4061D01*
X1376Y4047D01*
X1381Y4038D01*
X1390Y4028D01*
X1400Y4023D01*
X1419D01*
X1428Y4028D01*
X1438Y4038D01*
X1442Y4047D01*
X1532Y4123D02*
X1471D01*
Y4023D01*
X1532D01*
X1471Y4076D02*
X1509D01*
X-657Y4323D02*
X-604D01*
X-633Y4285D01*
X-619D01*
X-609Y4280D01*
X-604Y4276D01*
X-599Y4261D01*
Y4252D01*
X-604Y4238D01*
X-614Y4228D01*
X-628Y4223D01*
X-642D01*
X-657Y4228D01*
X-661Y4233D01*
X-666Y4242D01*
X-577Y4342D02*
X-568Y4333D01*
X-558Y4319D01*
X-549Y4299D01*
X-544Y4276D01*
Y4257D01*
X-549Y4233D01*
X-558Y4214D01*
X-568Y4199D01*
X-577Y4190D01*
X-568Y4333D02*
X-558Y4314D01*
X-553Y4299D01*
X-549Y4276D01*
Y4257D01*
X-553Y4233D01*
X-558Y4219D01*
X-568Y4199D01*
X-441Y4323D02*
Y4223D01*
Y4323D02*
X-398D01*
X-384Y4319D01*
X-379Y4314D01*
X-374Y4304D01*
Y4295D01*
X-379Y4285D01*
X-384Y4280D01*
X-398Y4276D01*
X-441D02*
X-398D01*
X-384Y4271D01*
X-379Y4266D01*
X-374Y4257D01*
Y4242D01*
X-379Y4233D01*
X-384Y4228D01*
X-398Y4223D01*
X-441D01*
X-323Y4323D02*
X-333Y4319D01*
X-342Y4309D01*
X-347Y4299D01*
X-352Y4285D01*
Y4261D01*
X-347Y4247D01*
X-342Y4238D01*
X-333Y4228D01*
X-323Y4223D01*
X-304D01*
X-295Y4228D01*
X-285Y4238D01*
X-281Y4247D01*
X-276Y4261D01*
Y4285D01*
X-281Y4299D01*
X-285Y4309D01*
X-295Y4319D01*
X-304Y4323D01*
X-323D01*
X-176Y4223D02*
X-214Y4323D01*
X-252Y4223D01*
X-238Y4257D02*
X-191D01*
X-153Y4323D02*
Y4223D01*
Y4323D02*
X-110D01*
X-96Y4319D01*
X-91Y4314D01*
X-86Y4304D01*
Y4295D01*
X-91Y4285D01*
X-96Y4280D01*
X-110Y4276D01*
X-153D01*
X-120D02*
X-86Y4223D01*
X-64Y4323D02*
Y4223D01*
Y4323D02*
X-31D01*
X-16Y4319D01*
X-7Y4309D01*
X-2Y4299D01*
X3Y4285D01*
Y4261D01*
X-2Y4247D01*
X-7Y4238D01*
X-16Y4228D01*
X-31Y4223D01*
X-64D01*
X104Y4323D02*
Y4223D01*
X191Y4309D02*
X182Y4319D01*
X167Y4323D01*
X148D01*
X134Y4319D01*
X125Y4309D01*
Y4299D01*
X129Y4290D01*
X134Y4285D01*
X144Y4280D01*
X172Y4271D01*
X182Y4266D01*
X187Y4261D01*
X191Y4252D01*
Y4238D01*
X182Y4228D01*
X167Y4223D01*
X148D01*
X134Y4228D01*
X125Y4238D01*
X297Y4299D02*
Y4304D01*
X302Y4314D01*
X307Y4319D01*
X316Y4323D01*
X335D01*
X345Y4319D01*
X349Y4314D01*
X354Y4304D01*
Y4295D01*
X349Y4285D01*
X340Y4271D01*
X292Y4223D01*
X359D01*
X460Y4323D02*
Y4223D01*
X517D01*
X604D02*
X566Y4323D01*
X528Y4223D01*
X542Y4257D02*
X590D01*
X627Y4323D02*
X665Y4276D01*
Y4223D01*
X704Y4323D02*
X665Y4276D01*
X778Y4323D02*
X716D01*
Y4223D01*
X778D01*
X716Y4276D02*
X755D01*
X795Y4323D02*
Y4223D01*
Y4323D02*
X838D01*
X852Y4319D01*
X857Y4314D01*
X862Y4304D01*
Y4295D01*
X857Y4285D01*
X852Y4280D01*
X838Y4276D01*
X795D01*
X828D02*
X862Y4223D01*
X963Y4323D02*
X986Y4223D01*
X1010Y4323D02*
X986Y4223D01*
X1010Y4323D02*
X1034Y4223D01*
X1058Y4323D02*
X1034Y4223D01*
X1078Y4323D02*
Y4223D01*
X1132Y4323D02*
Y4223D01*
X1099Y4323D02*
X1165D01*
X1177D02*
Y4223D01*
X1244Y4323D02*
Y4223D01*
X1177Y4276D02*
X1244D01*
X1383Y4323D02*
Y4223D01*
X1350Y4323D02*
X1417D01*
X1429D02*
Y4223D01*
X1495Y4323D02*
Y4223D01*
X1429Y4276D02*
X1495D01*
X1523Y4323D02*
Y4223D01*
X1615Y4299D02*
X1611Y4309D01*
X1601Y4319D01*
X1591Y4323D01*
X1572D01*
X1563Y4319D01*
X1553Y4309D01*
X1549Y4299D01*
X1544Y4285D01*
Y4261D01*
X1549Y4247D01*
X1553Y4238D01*
X1563Y4228D01*
X1572Y4223D01*
X1591D01*
X1601Y4228D01*
X1611Y4238D01*
X1615Y4247D01*
X1643Y4323D02*
Y4223D01*
X1710Y4323D02*
X1643Y4257D01*
X1667Y4280D02*
X1710Y4223D01*
X1732Y4323D02*
Y4223D01*
Y4323D02*
X1799Y4223D01*
Y4323D02*
Y4223D01*
X1889Y4323D02*
X1827D01*
Y4223D01*
X1889D01*
X1827Y4276D02*
X1865D01*
X1972Y4309D02*
X1962Y4319D01*
X1948Y4323D01*
X1929D01*
X1915Y4319D01*
X1905Y4309D01*
Y4299D01*
X1910Y4290D01*
X1915Y4285D01*
X1924Y4280D01*
X1953Y4271D01*
X1962Y4266D01*
X1967Y4261D01*
X1972Y4252D01*
Y4238D01*
X1962Y4228D01*
X1948Y4223D01*
X1929D01*
X1915Y4228D01*
X1905Y4238D01*
X2061Y4309D02*
X2051Y4319D01*
X2037Y4323D01*
X2018D01*
X2004Y4319D01*
X1994Y4309D01*
Y4299D01*
X1999Y4290D01*
X2004Y4285D01*
X2013Y4280D01*
X2042Y4271D01*
X2051Y4266D01*
X2056Y4261D01*
X2061Y4252D01*
Y4238D01*
X2051Y4228D01*
X2037Y4223D01*
X2018D01*
X2004Y4228D01*
X1994Y4238D01*
X2190Y4323D02*
X2181Y4319D01*
X2171Y4309D01*
X2167Y4299D01*
X2162Y4285D01*
Y4261D01*
X2167Y4247D01*
X2171Y4238D01*
X2181Y4228D01*
X2190Y4223D01*
X2209D01*
X2219Y4228D01*
X2228Y4238D01*
X2233Y4247D01*
X2238Y4261D01*
Y4285D01*
X2233Y4299D01*
X2228Y4309D01*
X2219Y4319D01*
X2209Y4323D01*
X2190D01*
X2261D02*
Y4223D01*
Y4323D02*
X2323D01*
X2261Y4276D02*
X2299D01*
X2418Y4233D02*
X2413Y4228D01*
X2418Y4223D01*
X2423Y4228D01*
X2418Y4233D01*
X2473Y4323D02*
X2459Y4319D01*
X2449Y4304D01*
X2445Y4280D01*
Y4266D01*
X2449Y4242D01*
X2459Y4228D01*
X2473Y4223D01*
X2483D01*
X2497Y4228D01*
X2507Y4242D01*
X2511Y4266D01*
Y4280D01*
X2507Y4304D01*
X2497Y4319D01*
X2483Y4323D01*
X2473D01*
X2543D02*
X2596D01*
X2567Y4285D01*
X2581D01*
X2591Y4280D01*
X2596Y4276D01*
X2600Y4261D01*
Y4252D01*
X2596Y4238D01*
X2586Y4228D01*
X2572Y4223D01*
X2557D01*
X2543Y4228D01*
X2538Y4233D01*
X2534Y4242D01*
X2623Y4304D02*
X2632Y4309D01*
X2646Y4323D01*
Y4223D01*
X2775Y4323D02*
Y4223D01*
X2795Y4323D02*
Y4223D01*
Y4323D02*
X2862Y4223D01*
Y4323D02*
Y4223D01*
X-666Y4923D02*
Y4823D01*
Y4923D02*
X-599Y4823D01*
Y4923D02*
Y4823D01*
X-543Y4923D02*
X-553Y4919D01*
X-562Y4909D01*
X-567Y4899D01*
X-572Y4885D01*
Y4861D01*
X-567Y4847D01*
X-562Y4838D01*
X-553Y4828D01*
X-543Y4823D01*
X-524D01*
X-515Y4828D01*
X-505Y4838D01*
X-500Y4847D01*
X-496Y4861D01*
Y4885D01*
X-500Y4899D01*
X-505Y4909D01*
X-515Y4919D01*
X-524Y4923D01*
X-543D01*
X-439D02*
Y4823D01*
X-472Y4923D02*
X-406D01*
X-332D02*
X-394D01*
Y4823D01*
X-332D01*
X-394Y4876D02*
X-356D01*
X-249Y4909D02*
X-258Y4919D01*
X-272Y4923D01*
X-291D01*
X-306Y4919D01*
X-315Y4909D01*
Y4899D01*
X-311Y4890D01*
X-306Y4885D01*
X-296Y4880D01*
X-268Y4871D01*
X-258Y4866D01*
X-253Y4861D01*
X-249Y4852D01*
Y4838D01*
X-258Y4828D01*
X-272Y4823D01*
X-291D01*
X-306Y4828D01*
X-315Y4838D01*
D60*
X3162Y598D02*
X3167Y601D01*
X3174Y608D01*
Y558D01*
X3199Y598D02*
X3204Y601D01*
X3211Y608D01*
Y558D01*
X3264Y601D02*
X3262Y606D01*
X3255Y608D01*
X3250D01*
X3243Y606D01*
X3238Y598D01*
X3236Y587D01*
Y575D01*
X3238Y565D01*
X3243Y560D01*
X3250Y558D01*
X3252D01*
X3260Y560D01*
X3264Y565D01*
X3267Y572D01*
Y575D01*
X3264Y582D01*
X3260Y587D01*
X3252Y589D01*
X3250D01*
X3243Y587D01*
X3238Y582D01*
X3236Y575D01*
X3635Y598D02*
X3640Y601D01*
X3647Y608D01*
Y558D01*
X3686Y608D02*
X3679Y606D01*
X3674Y598D01*
X3672Y587D01*
Y579D01*
X3674Y568D01*
X3679Y560D01*
X3686Y558D01*
X3691D01*
X3698Y560D01*
X3703Y568D01*
X3705Y579D01*
Y587D01*
X3703Y598D01*
X3698Y606D01*
X3691Y608D01*
X3686D01*
X3717Y591D02*
Y558D01*
Y582D02*
X3724Y589D01*
X3729Y591D01*
X3736D01*
X3740Y589D01*
X3743Y582D01*
Y558D01*
Y582D02*
X3750Y589D01*
X3755Y591D01*
X3762D01*
X3767Y589D01*
X3769Y582D01*
Y558D01*
X3789Y608D02*
X3792Y606D01*
X3794Y608D01*
X3792Y610D01*
X3789Y608D01*
X3792Y591D02*
Y558D01*
X3803Y608D02*
Y558D01*
X3869Y618D02*
X3865Y613D01*
X3860Y606D01*
X3855Y596D01*
X3853Y584D01*
Y575D01*
X3855Y563D01*
X3860Y553D01*
X3865Y546D01*
X3869Y541D01*
X3865Y613D02*
X3860Y603D01*
X3858Y596D01*
X3855Y584D01*
Y575D01*
X3858Y563D01*
X3860Y556D01*
X3865Y546D01*
X3893Y608D02*
X3886Y606D01*
X3881Y598D01*
X3879Y587D01*
Y579D01*
X3881Y568D01*
X3886Y560D01*
X3893Y558D01*
X3898D01*
X3905Y560D01*
X3910Y568D01*
X3912Y579D01*
Y587D01*
X3910Y598D01*
X3905Y606D01*
X3898Y608D01*
X3893D01*
X3926Y563D02*
X3923Y560D01*
X3926Y558D01*
X3928Y560D01*
X3926Y563D01*
X3942Y596D02*
Y598D01*
X3944Y603D01*
X3946Y606D01*
X3951Y608D01*
X3961D01*
X3965Y606D01*
X3968Y603D01*
X3970Y598D01*
Y594D01*
X3968Y589D01*
X3963Y582D01*
X3939Y558D01*
X3973D01*
X4012Y608D02*
X3988D01*
X3986Y587D01*
X3988Y589D01*
X3996Y591D01*
X4003D01*
X4010Y589D01*
X4015Y584D01*
X4017Y577D01*
Y572D01*
X4015Y565D01*
X4010Y560D01*
X4003Y558D01*
X3996D01*
X3988Y560D01*
X3986Y563D01*
X3984Y568D01*
X4052Y608D02*
X4028Y575D01*
X4064D01*
X4052Y608D02*
Y558D01*
X4073Y591D02*
Y558D01*
Y582D02*
X4080Y589D01*
X4085Y591D01*
X4092D01*
X4097Y589D01*
X4099Y582D01*
Y558D01*
Y582D02*
X4106Y589D01*
X4111Y591D01*
X4118D01*
X4123Y589D01*
X4125Y582D01*
Y558D01*
X4141Y591D02*
Y558D01*
Y582D02*
X4148Y589D01*
X4153Y591D01*
X4160D01*
X4165Y589D01*
X4167Y582D01*
Y558D01*
Y582D02*
X4174Y589D01*
X4179Y591D01*
X4186D01*
X4191Y589D01*
X4193Y582D01*
Y558D01*
X4209Y618D02*
X4214Y613D01*
X4218Y606D01*
X4223Y596D01*
X4226Y584D01*
Y575D01*
X4223Y563D01*
X4218Y553D01*
X4214Y546D01*
X4209Y541D01*
X4214Y613D02*
X4218Y603D01*
X4221Y596D01*
X4223Y584D01*
Y575D01*
X4221Y563D01*
X4218Y556D01*
X4214Y546D01*
X4396Y582D02*
X4418D01*
X4425Y584D01*
X4427Y587D01*
X4430Y591D01*
Y598D01*
X4427Y603D01*
X4425Y606D01*
X4418Y608D01*
X4396D01*
Y558D01*
X4457Y608D02*
Y558D01*
X4441Y608D02*
X4474D01*
X4480D02*
Y558D01*
X4513Y608D02*
Y558D01*
X4480Y584D02*
X4513D01*
X4714Y608D02*
Y558D01*
Y608D02*
X4736D01*
X4743Y606D01*
X4745Y603D01*
X4747Y598D01*
Y594D01*
X4745Y589D01*
X4743Y587D01*
X4736Y584D01*
X4714D01*
X4731D02*
X4747Y558D01*
X4771Y591D02*
X4766Y589D01*
X4761Y584D01*
X4759Y577D01*
Y572D01*
X4761Y565D01*
X4766Y560D01*
X4771Y558D01*
X4778D01*
X4782Y560D01*
X4787Y565D01*
X4790Y572D01*
Y577D01*
X4787Y584D01*
X4782Y589D01*
X4778Y591D01*
X4771D01*
X4801D02*
Y568D01*
X4803Y560D01*
X4808Y558D01*
X4815D01*
X4820Y560D01*
X4827Y568D01*
Y591D02*
Y558D01*
X4840Y591D02*
Y558D01*
Y582D02*
X4847Y589D01*
X4852Y591D01*
X4859D01*
X4864Y589D01*
X4866Y582D01*
Y558D01*
X4908Y608D02*
Y558D01*
Y584D02*
X4903Y589D01*
X4898Y591D01*
X4891D01*
X4886Y589D01*
X4881Y584D01*
X4879Y577D01*
Y572D01*
X4881Y565D01*
X4886Y560D01*
X4891Y558D01*
X4898D01*
X4903Y560D01*
X4908Y565D01*
X3165Y496D02*
Y498D01*
X3167Y503D01*
X3170Y506D01*
X3174Y508D01*
X3184D01*
X3189Y506D01*
X3191Y503D01*
X3193Y498D01*
Y494D01*
X3191Y489D01*
X3186Y482D01*
X3162Y458D01*
X3196D01*
X3221Y508D02*
X3214Y506D01*
X3209Y498D01*
X3207Y487D01*
Y479D01*
X3209Y468D01*
X3214Y460D01*
X3221Y458D01*
X3226D01*
X3233Y460D01*
X3238Y468D01*
X3240Y479D01*
Y487D01*
X3238Y498D01*
X3233Y506D01*
X3226Y508D01*
X3221D01*
X3638Y496D02*
Y498D01*
X3640Y503D01*
X3643Y506D01*
X3647Y508D01*
X3657D01*
X3662Y506D01*
X3664Y503D01*
X3666Y498D01*
Y494D01*
X3664Y489D01*
X3659Y482D01*
X3635Y458D01*
X3669D01*
X3709Y508D02*
X3685D01*
X3682Y487D01*
X3685Y489D01*
X3692Y491D01*
X3699D01*
X3706Y489D01*
X3711Y484D01*
X3713Y477D01*
Y472D01*
X3711Y465D01*
X3706Y460D01*
X3699Y458D01*
X3692D01*
X3685Y460D01*
X3682Y463D01*
X3680Y468D01*
X3724Y491D02*
Y458D01*
Y482D02*
X3732Y489D01*
X3736Y491D01*
X3744D01*
X3748Y489D01*
X3751Y482D01*
Y458D01*
Y482D02*
X3758Y489D01*
X3763Y491D01*
X3770D01*
X3774Y489D01*
X3777Y482D01*
Y458D01*
X3797Y508D02*
X3800Y506D01*
X3802Y508D01*
X3800Y510D01*
X3797Y508D01*
X3800Y491D02*
Y458D01*
X3811Y508D02*
Y458D01*
X3877Y518D02*
X3873Y513D01*
X3868Y506D01*
X3863Y496D01*
X3861Y484D01*
Y475D01*
X3863Y463D01*
X3868Y453D01*
X3873Y446D01*
X3877Y441D01*
X3873Y513D02*
X3868Y503D01*
X3865Y496D01*
X3863Y484D01*
Y475D01*
X3865Y463D01*
X3868Y456D01*
X3873Y446D01*
X3901Y508D02*
X3894Y506D01*
X3889Y498D01*
X3887Y487D01*
Y479D01*
X3889Y468D01*
X3894Y460D01*
X3901Y458D01*
X3906D01*
X3913Y460D01*
X3918Y468D01*
X3920Y479D01*
Y487D01*
X3918Y498D01*
X3913Y506D01*
X3906Y508D01*
X3901D01*
X3934Y463D02*
X3931Y460D01*
X3934Y458D01*
X3936Y460D01*
X3934Y463D01*
X3976Y501D02*
X3973Y506D01*
X3966Y508D01*
X3961D01*
X3954Y506D01*
X3949Y498D01*
X3947Y487D01*
Y475D01*
X3949Y465D01*
X3954Y460D01*
X3961Y458D01*
X3964D01*
X3971Y460D01*
X3976Y465D01*
X3978Y472D01*
Y475D01*
X3976Y482D01*
X3971Y487D01*
X3964Y489D01*
X3961D01*
X3954Y487D01*
X3949Y482D01*
X3947Y475D01*
X3994Y508D02*
X4020D01*
X4006Y489D01*
X4013D01*
X4018Y487D01*
X4020Y484D01*
X4022Y477D01*
Y472D01*
X4020Y465D01*
X4015Y460D01*
X4008Y458D01*
X4001D01*
X3994Y460D01*
X3991Y463D01*
X3989Y468D01*
X4062Y508D02*
X4038D01*
X4036Y487D01*
X4038Y489D01*
X4045Y491D01*
X4053D01*
X4060Y489D01*
X4064Y484D01*
X4067Y477D01*
Y472D01*
X4064Y465D01*
X4060Y460D01*
X4053Y458D01*
X4045D01*
X4038Y460D01*
X4036Y463D01*
X4033Y468D01*
X4078Y491D02*
Y458D01*
Y482D02*
X4085Y489D01*
X4090Y491D01*
X4097D01*
X4102Y489D01*
X4104Y482D01*
Y458D01*
Y482D02*
X4111Y489D01*
X4116Y491D01*
X4123D01*
X4128Y489D01*
X4130Y482D01*
Y458D01*
X4146Y491D02*
Y458D01*
Y482D02*
X4153Y489D01*
X4158Y491D01*
X4165D01*
X4170Y489D01*
X4172Y482D01*
Y458D01*
Y482D02*
X4179Y489D01*
X4184Y491D01*
X4191D01*
X4196Y489D01*
X4198Y482D01*
Y458D01*
X4214Y518D02*
X4219Y513D01*
X4224Y506D01*
X4228Y496D01*
X4231Y484D01*
Y475D01*
X4228Y463D01*
X4224Y453D01*
X4219Y446D01*
X4214Y441D01*
X4219Y513D02*
X4224Y503D01*
X4226Y496D01*
X4228Y484D01*
Y475D01*
X4226Y463D01*
X4224Y456D01*
X4219Y446D01*
X4396Y482D02*
X4418D01*
X4425Y484D01*
X4427Y487D01*
X4430Y491D01*
Y498D01*
X4427Y503D01*
X4425Y506D01*
X4418Y508D01*
X4396D01*
Y458D01*
X4457Y508D02*
Y458D01*
X4441Y508D02*
X4474D01*
X4480D02*
Y458D01*
X4513Y508D02*
Y458D01*
X4480Y484D02*
X4513D01*
X4714Y508D02*
Y458D01*
Y508D02*
X4736D01*
X4743Y506D01*
X4745Y503D01*
X4747Y498D01*
Y494D01*
X4745Y489D01*
X4743Y487D01*
X4736Y484D01*
X4714D01*
X4731D02*
X4747Y458D01*
X4771Y491D02*
X4766Y489D01*
X4761Y484D01*
X4759Y477D01*
Y472D01*
X4761Y465D01*
X4766Y460D01*
X4771Y458D01*
X4778D01*
X4782Y460D01*
X4787Y465D01*
X4790Y472D01*
Y477D01*
X4787Y484D01*
X4782Y489D01*
X4778Y491D01*
X4771D01*
X4801D02*
Y468D01*
X4803Y460D01*
X4808Y458D01*
X4815D01*
X4820Y460D01*
X4827Y468D01*
Y491D02*
Y458D01*
X4840Y491D02*
Y458D01*
Y482D02*
X4847Y489D01*
X4852Y491D01*
X4859D01*
X4864Y489D01*
X4866Y482D01*
Y458D01*
X4908Y508D02*
Y458D01*
Y484D02*
X4903Y489D01*
X4898Y491D01*
X4891D01*
X4886Y489D01*
X4881Y484D01*
X4879Y477D01*
Y472D01*
X4881Y465D01*
X4886Y460D01*
X4891Y458D01*
X4898D01*
X4903Y460D01*
X4908Y465D01*
X3191Y401D02*
X3189Y406D01*
X3181Y408D01*
X3177D01*
X3170Y406D01*
X3165Y398D01*
X3162Y387D01*
Y375D01*
X3165Y365D01*
X3170Y360D01*
X3177Y358D01*
X3179D01*
X3186Y360D01*
X3191Y365D01*
X3193Y372D01*
Y375D01*
X3191Y382D01*
X3186Y387D01*
X3179Y389D01*
X3177D01*
X3170Y387D01*
X3165Y382D01*
X3162Y375D01*
X3640Y408D02*
X3666D01*
X3652Y389D01*
X3659D01*
X3664Y387D01*
X3666Y384D01*
X3669Y377D01*
Y372D01*
X3666Y365D01*
X3662Y360D01*
X3655Y358D01*
X3647D01*
X3640Y360D01*
X3638Y363D01*
X3635Y368D01*
X3694Y408D02*
X3687Y406D01*
X3682Y398D01*
X3680Y387D01*
Y379D01*
X3682Y368D01*
X3687Y360D01*
X3694Y358D01*
X3699D01*
X3706Y360D01*
X3711Y368D01*
X3713Y379D01*
Y387D01*
X3711Y398D01*
X3706Y406D01*
X3699Y408D01*
X3694D01*
X3724Y391D02*
Y358D01*
Y382D02*
X3732Y389D01*
X3736Y391D01*
X3744D01*
X3748Y389D01*
X3751Y382D01*
Y358D01*
Y382D02*
X3758Y389D01*
X3763Y391D01*
X3770D01*
X3774Y389D01*
X3777Y382D01*
Y358D01*
X3797Y408D02*
X3800Y406D01*
X3802Y408D01*
X3800Y410D01*
X3797Y408D01*
X3800Y391D02*
Y358D01*
X3811Y408D02*
Y358D01*
X3877Y418D02*
X3873Y413D01*
X3868Y406D01*
X3863Y396D01*
X3861Y384D01*
Y375D01*
X3863Y363D01*
X3868Y353D01*
X3873Y346D01*
X3877Y341D01*
X3873Y413D02*
X3868Y403D01*
X3865Y396D01*
X3863Y384D01*
Y375D01*
X3865Y363D01*
X3868Y356D01*
X3873Y346D01*
X3901Y408D02*
X3894Y406D01*
X3889Y398D01*
X3887Y387D01*
Y379D01*
X3889Y368D01*
X3894Y360D01*
X3901Y358D01*
X3906D01*
X3913Y360D01*
X3918Y368D01*
X3920Y379D01*
Y387D01*
X3918Y398D01*
X3913Y406D01*
X3906Y408D01*
X3901D01*
X3934Y363D02*
X3931Y360D01*
X3934Y358D01*
X3936Y360D01*
X3934Y363D01*
X3980Y408D02*
X3957Y358D01*
X3947Y408D02*
X3980D01*
X4020Y401D02*
X4018Y406D01*
X4011Y408D01*
X4006D01*
X3999Y406D01*
X3994Y398D01*
X3992Y387D01*
Y375D01*
X3994Y365D01*
X3999Y360D01*
X4006Y358D01*
X4008D01*
X4015Y360D01*
X4020Y365D01*
X4023Y372D01*
Y375D01*
X4020Y382D01*
X4015Y387D01*
X4008Y389D01*
X4006D01*
X3999Y387D01*
X3994Y382D01*
X3992Y375D01*
X4036Y396D02*
Y398D01*
X4038Y403D01*
X4041Y406D01*
X4045Y408D01*
X4055D01*
X4060Y406D01*
X4062Y403D01*
X4064Y398D01*
Y394D01*
X4062Y389D01*
X4057Y382D01*
X4033Y358D01*
X4067D01*
X4078Y391D02*
Y358D01*
Y382D02*
X4085Y389D01*
X4090Y391D01*
X4097D01*
X4102Y389D01*
X4104Y382D01*
Y358D01*
Y382D02*
X4111Y389D01*
X4116Y391D01*
X4123D01*
X4128Y389D01*
X4130Y382D01*
Y358D01*
X4146Y391D02*
Y358D01*
Y382D02*
X4153Y389D01*
X4158Y391D01*
X4165D01*
X4170Y389D01*
X4172Y382D01*
Y358D01*
Y382D02*
X4179Y389D01*
X4184Y391D01*
X4191D01*
X4196Y389D01*
X4198Y382D01*
Y358D01*
X4214Y418D02*
X4219Y413D01*
X4224Y406D01*
X4228Y396D01*
X4231Y384D01*
Y375D01*
X4228Y363D01*
X4224Y353D01*
X4219Y346D01*
X4214Y341D01*
X4219Y413D02*
X4224Y403D01*
X4226Y396D01*
X4228Y384D01*
Y375D01*
X4226Y363D01*
X4224Y356D01*
X4219Y346D01*
X4396Y382D02*
X4418D01*
X4425Y384D01*
X4427Y387D01*
X4430Y391D01*
Y398D01*
X4427Y403D01*
X4425Y406D01*
X4418Y408D01*
X4396D01*
Y358D01*
X4457Y408D02*
Y358D01*
X4441Y408D02*
X4474D01*
X4480D02*
Y358D01*
X4513Y408D02*
Y358D01*
X4480Y384D02*
X4513D01*
X4714Y408D02*
Y358D01*
Y408D02*
X4736D01*
X4743Y406D01*
X4745Y403D01*
X4747Y398D01*
Y394D01*
X4745Y389D01*
X4743Y387D01*
X4736Y384D01*
X4714D01*
X4731D02*
X4747Y358D01*
X4771Y391D02*
X4766Y389D01*
X4761Y384D01*
X4759Y377D01*
Y372D01*
X4761Y365D01*
X4766Y360D01*
X4771Y358D01*
X4778D01*
X4782Y360D01*
X4787Y365D01*
X4790Y372D01*
Y377D01*
X4787Y384D01*
X4782Y389D01*
X4778Y391D01*
X4771D01*
X4801D02*
Y368D01*
X4803Y360D01*
X4808Y358D01*
X4815D01*
X4820Y360D01*
X4827Y368D01*
Y391D02*
Y358D01*
X4840Y391D02*
Y358D01*
Y382D02*
X4847Y389D01*
X4852Y391D01*
X4859D01*
X4864Y389D01*
X4866Y382D01*
Y358D01*
X4908Y408D02*
Y358D01*
Y384D02*
X4903Y389D01*
X4898Y391D01*
X4891D01*
X4886Y389D01*
X4881Y384D01*
X4879Y377D01*
Y372D01*
X4881Y365D01*
X4886Y360D01*
X4891Y358D01*
X4898D01*
X4903Y360D01*
X4908Y365D01*
X3162Y298D02*
X3167Y301D01*
X3174Y308D01*
Y258D01*
X3213Y308D02*
X3206Y306D01*
X3201Y298D01*
X3199Y287D01*
Y279D01*
X3201Y268D01*
X3206Y260D01*
X3213Y258D01*
X3218D01*
X3225Y260D01*
X3230Y268D01*
X3232Y279D01*
Y287D01*
X3230Y298D01*
X3225Y306D01*
X3218Y308D01*
X3213D01*
X3640D02*
X3666D01*
X3652Y289D01*
X3659D01*
X3664Y287D01*
X3666Y284D01*
X3669Y277D01*
Y272D01*
X3666Y265D01*
X3662Y260D01*
X3655Y258D01*
X3647D01*
X3640Y260D01*
X3638Y263D01*
X3635Y268D01*
X3709Y308D02*
X3685D01*
X3682Y287D01*
X3685Y289D01*
X3692Y291D01*
X3699D01*
X3706Y289D01*
X3711Y284D01*
X3713Y277D01*
Y272D01*
X3711Y265D01*
X3706Y260D01*
X3699Y258D01*
X3692D01*
X3685Y260D01*
X3682Y263D01*
X3680Y268D01*
X3724Y291D02*
Y258D01*
Y282D02*
X3732Y289D01*
X3736Y291D01*
X3744D01*
X3748Y289D01*
X3751Y282D01*
Y258D01*
Y282D02*
X3758Y289D01*
X3763Y291D01*
X3770D01*
X3774Y289D01*
X3777Y282D01*
Y258D01*
X3797Y308D02*
X3800Y306D01*
X3802Y308D01*
X3800Y310D01*
X3797Y308D01*
X3800Y291D02*
Y258D01*
X3811Y308D02*
Y258D01*
X3877Y318D02*
X3873Y313D01*
X3868Y306D01*
X3863Y296D01*
X3861Y284D01*
Y275D01*
X3863Y263D01*
X3868Y253D01*
X3873Y246D01*
X3877Y241D01*
X3873Y313D02*
X3868Y303D01*
X3865Y296D01*
X3863Y284D01*
Y275D01*
X3865Y263D01*
X3868Y256D01*
X3873Y246D01*
X3901Y308D02*
X3894Y306D01*
X3889Y298D01*
X3887Y287D01*
Y279D01*
X3889Y268D01*
X3894Y260D01*
X3901Y258D01*
X3906D01*
X3913Y260D01*
X3918Y268D01*
X3920Y279D01*
Y287D01*
X3918Y298D01*
X3913Y306D01*
X3906Y308D01*
X3901D01*
X3934Y263D02*
X3931Y260D01*
X3934Y258D01*
X3936Y260D01*
X3934Y263D01*
X3959Y308D02*
X3952Y306D01*
X3949Y301D01*
Y296D01*
X3952Y291D01*
X3957Y289D01*
X3966Y287D01*
X3973Y284D01*
X3978Y279D01*
X3980Y275D01*
Y268D01*
X3978Y263D01*
X3976Y260D01*
X3968Y258D01*
X3959D01*
X3952Y260D01*
X3949Y263D01*
X3947Y268D01*
Y275D01*
X3949Y279D01*
X3954Y284D01*
X3961Y287D01*
X3971Y289D01*
X3976Y291D01*
X3978Y296D01*
Y301D01*
X3976Y306D01*
X3968Y308D01*
X3959D01*
X4003D02*
X3996Y306D01*
X3994Y301D01*
Y296D01*
X3996Y291D01*
X4001Y289D01*
X4011Y287D01*
X4018Y284D01*
X4023Y279D01*
X4025Y275D01*
Y268D01*
X4023Y263D01*
X4020Y260D01*
X4013Y258D01*
X4003D01*
X3996Y260D01*
X3994Y263D01*
X3992Y268D01*
Y275D01*
X3994Y279D01*
X3999Y284D01*
X4006Y287D01*
X4015Y289D01*
X4020Y291D01*
X4023Y296D01*
Y301D01*
X4020Y306D01*
X4013Y308D01*
X4003D01*
X4067Y291D02*
X4065Y284D01*
X4060Y279D01*
X4053Y277D01*
X4050D01*
X4043Y279D01*
X4038Y284D01*
X4036Y291D01*
Y294D01*
X4038Y301D01*
X4043Y306D01*
X4050Y308D01*
X4053D01*
X4060Y306D01*
X4065Y301D01*
X4067Y291D01*
Y279D01*
X4065Y268D01*
X4060Y260D01*
X4053Y258D01*
X4048D01*
X4041Y260D01*
X4038Y265D01*
X4081Y291D02*
Y258D01*
Y282D02*
X4088Y289D01*
X4093Y291D01*
X4100D01*
X4104Y289D01*
X4107Y282D01*
Y258D01*
Y282D02*
X4114Y289D01*
X4119Y291D01*
X4126D01*
X4131Y289D01*
X4133Y282D01*
Y258D01*
X4149Y291D02*
Y258D01*
Y282D02*
X4156Y289D01*
X4161Y291D01*
X4168D01*
X4172Y289D01*
X4175Y282D01*
Y258D01*
Y282D02*
X4182Y289D01*
X4187Y291D01*
X4194D01*
X4199Y289D01*
X4201Y282D01*
Y258D01*
X4217Y318D02*
X4222Y313D01*
X4226Y306D01*
X4231Y296D01*
X4233Y284D01*
Y275D01*
X4231Y263D01*
X4226Y253D01*
X4222Y246D01*
X4217Y241D01*
X4222Y313D02*
X4226Y303D01*
X4229Y296D01*
X4231Y284D01*
Y275D01*
X4229Y263D01*
X4226Y256D01*
X4222Y246D01*
X4396Y282D02*
X4418D01*
X4425Y284D01*
X4427Y287D01*
X4430Y291D01*
Y298D01*
X4427Y303D01*
X4425Y306D01*
X4418Y308D01*
X4396D01*
Y258D01*
X4457Y308D02*
Y258D01*
X4441Y308D02*
X4474D01*
X4480D02*
Y258D01*
X4513Y308D02*
Y258D01*
X4480Y284D02*
X4513D01*
X4714Y308D02*
Y258D01*
Y308D02*
X4736D01*
X4743Y306D01*
X4745Y303D01*
X4747Y298D01*
Y294D01*
X4745Y289D01*
X4743Y287D01*
X4736Y284D01*
X4714D01*
X4731D02*
X4747Y258D01*
X4771Y291D02*
X4766Y289D01*
X4761Y284D01*
X4759Y277D01*
Y272D01*
X4761Y265D01*
X4766Y260D01*
X4771Y258D01*
X4778D01*
X4782Y260D01*
X4787Y265D01*
X4790Y272D01*
Y277D01*
X4787Y284D01*
X4782Y289D01*
X4778Y291D01*
X4771D01*
X4801D02*
Y268D01*
X4803Y260D01*
X4808Y258D01*
X4815D01*
X4820Y260D01*
X4827Y268D01*
Y291D02*
Y258D01*
X4840Y291D02*
Y258D01*
Y282D02*
X4847Y289D01*
X4852Y291D01*
X4859D01*
X4864Y289D01*
X4866Y282D01*
Y258D01*
X4908Y308D02*
Y258D01*
Y284D02*
X4903Y289D01*
X4898Y291D01*
X4891D01*
X4886Y289D01*
X4881Y284D01*
X4879Y277D01*
Y272D01*
X4881Y265D01*
X4886Y260D01*
X4891Y258D01*
X4898D01*
X4903Y260D01*
X4908Y265D01*
X3162Y198D02*
X3167Y201D01*
X3174Y208D01*
Y158D01*
X3228Y201D02*
X3225Y206D01*
X3218Y208D01*
X3213D01*
X3206Y206D01*
X3201Y198D01*
X3199Y187D01*
Y175D01*
X3201Y165D01*
X3206Y160D01*
X3213Y158D01*
X3216D01*
X3223Y160D01*
X3228Y165D01*
X3230Y172D01*
Y175D01*
X3228Y182D01*
X3223Y187D01*
X3216Y189D01*
X3213D01*
X3206Y187D01*
X3201Y182D01*
X3199Y175D01*
X3664Y208D02*
X3640D01*
X3638Y187D01*
X3640Y189D01*
X3647Y191D01*
X3655D01*
X3662Y189D01*
X3666Y184D01*
X3669Y177D01*
Y172D01*
X3666Y165D01*
X3662Y160D01*
X3655Y158D01*
X3647D01*
X3640Y160D01*
X3638Y163D01*
X3635Y168D01*
X3713Y208D02*
X3689Y158D01*
X3680Y208D02*
X3713D01*
X3724Y191D02*
Y158D01*
Y182D02*
X3732Y189D01*
X3736Y191D01*
X3744D01*
X3748Y189D01*
X3751Y182D01*
Y158D01*
Y182D02*
X3758Y189D01*
X3763Y191D01*
X3770D01*
X3774Y189D01*
X3777Y182D01*
Y158D01*
X3797Y208D02*
X3800Y206D01*
X3802Y208D01*
X3800Y210D01*
X3797Y208D01*
X3800Y191D02*
Y158D01*
X3811Y208D02*
Y158D01*
X3877Y218D02*
X3873Y213D01*
X3868Y206D01*
X3863Y196D01*
X3861Y184D01*
Y175D01*
X3863Y163D01*
X3868Y153D01*
X3873Y146D01*
X3877Y141D01*
X3873Y213D02*
X3868Y203D01*
X3865Y196D01*
X3863Y184D01*
Y175D01*
X3865Y163D01*
X3868Y156D01*
X3873Y146D01*
X3887Y198D02*
X3892Y201D01*
X3899Y208D01*
Y158D01*
X3926Y163D02*
X3923Y160D01*
X3926Y158D01*
X3928Y160D01*
X3926Y163D01*
X3963Y208D02*
X3939Y175D01*
X3975D01*
X3963Y208D02*
Y158D01*
X4008Y208D02*
X3984Y175D01*
X4019D01*
X4008Y208D02*
Y158D01*
X4062Y208D02*
X4038Y158D01*
X4028Y208D02*
X4062D01*
X4085D02*
X4078Y206D01*
X4075Y201D01*
Y196D01*
X4078Y191D01*
X4082Y189D01*
X4092Y187D01*
X4099Y184D01*
X4104Y179D01*
X4106Y175D01*
Y168D01*
X4104Y163D01*
X4101Y160D01*
X4094Y158D01*
X4085D01*
X4078Y160D01*
X4075Y163D01*
X4073Y168D01*
Y175D01*
X4075Y179D01*
X4080Y184D01*
X4087Y187D01*
X4097Y189D01*
X4101Y191D01*
X4104Y196D01*
Y201D01*
X4101Y206D01*
X4094Y208D01*
X4085D01*
X4117Y191D02*
Y158D01*
Y182D02*
X4124Y189D01*
X4129Y191D01*
X4136D01*
X4141Y189D01*
X4143Y182D01*
Y158D01*
Y182D02*
X4151Y189D01*
X4155Y191D01*
X4162D01*
X4167Y189D01*
X4170Y182D01*
Y158D01*
X4185Y191D02*
Y158D01*
Y182D02*
X4192Y189D01*
X4197Y191D01*
X4204D01*
X4209Y189D01*
X4212Y182D01*
Y158D01*
Y182D02*
X4219Y189D01*
X4223Y191D01*
X4231D01*
X4235Y189D01*
X4238Y182D01*
Y158D01*
X4253Y218D02*
X4258Y213D01*
X4263Y206D01*
X4268Y196D01*
X4270Y184D01*
Y175D01*
X4268Y163D01*
X4263Y153D01*
X4258Y146D01*
X4253Y141D01*
X4258Y213D02*
X4263Y203D01*
X4265Y196D01*
X4268Y184D01*
Y175D01*
X4265Y163D01*
X4263Y156D01*
X4258Y146D01*
X4396Y182D02*
X4418D01*
X4425Y184D01*
X4427Y187D01*
X4430Y191D01*
Y198D01*
X4427Y203D01*
X4425Y206D01*
X4418Y208D01*
X4396D01*
Y158D01*
X4457Y208D02*
Y158D01*
X4441Y208D02*
X4474D01*
X4480D02*
Y158D01*
X4513Y208D02*
Y158D01*
X4480Y184D02*
X4513D01*
X4714Y208D02*
Y158D01*
Y208D02*
X4736D01*
X4743Y206D01*
X4745Y203D01*
X4747Y198D01*
Y194D01*
X4745Y189D01*
X4743Y187D01*
X4736Y184D01*
X4714D01*
X4731D02*
X4747Y158D01*
X4771Y191D02*
X4766Y189D01*
X4761Y184D01*
X4759Y177D01*
Y172D01*
X4761Y165D01*
X4766Y160D01*
X4771Y158D01*
X4778D01*
X4782Y160D01*
X4787Y165D01*
X4790Y172D01*
Y177D01*
X4787Y184D01*
X4782Y189D01*
X4778Y191D01*
X4771D01*
X4801D02*
Y168D01*
X4803Y160D01*
X4808Y158D01*
X4815D01*
X4820Y160D01*
X4827Y168D01*
Y191D02*
Y158D01*
X4840Y191D02*
Y158D01*
Y182D02*
X4847Y189D01*
X4852Y191D01*
X4859D01*
X4864Y189D01*
X4866Y182D01*
Y158D01*
X4908Y208D02*
Y158D01*
Y184D02*
X4903Y189D01*
X4898Y191D01*
X4891D01*
X4886Y189D01*
X4881Y184D01*
X4879Y177D01*
Y172D01*
X4881Y165D01*
X4886Y160D01*
X4891Y158D01*
X4898D01*
X4903Y160D01*
X4908Y165D01*
X3162Y98D02*
X3167Y101D01*
X3174Y108D01*
Y58D01*
X3635Y98D02*
X3640Y101D01*
X3647Y108D01*
Y58D01*
X3674Y96D02*
Y98D01*
X3677Y103D01*
X3679Y106D01*
X3684Y108D01*
X3694D01*
X3698Y106D01*
X3701Y103D01*
X3703Y98D01*
Y94D01*
X3701Y89D01*
X3696Y82D01*
X3672Y58D01*
X3705D01*
X3719Y96D02*
Y98D01*
X3721Y103D01*
X3724Y106D01*
X3729Y108D01*
X3738D01*
X3743Y106D01*
X3745Y103D01*
X3748Y98D01*
Y94D01*
X3745Y89D01*
X3740Y82D01*
X3717Y58D01*
X3750D01*
X3761Y91D02*
Y58D01*
Y82D02*
X3768Y89D01*
X3773Y91D01*
X3780D01*
X3785Y89D01*
X3787Y82D01*
Y58D01*
Y82D02*
X3794Y89D01*
X3799Y91D01*
X3806D01*
X3811Y89D01*
X3814Y82D01*
Y58D01*
X3834Y108D02*
X3836Y106D01*
X3839Y108D01*
X3836Y110D01*
X3834Y108D01*
X3836Y91D02*
Y58D01*
X3848Y108D02*
Y58D01*
X3914Y118D02*
X3909Y113D01*
X3904Y106D01*
X3900Y96D01*
X3897Y84D01*
Y75D01*
X3900Y63D01*
X3904Y53D01*
X3909Y46D01*
X3914Y41D01*
X3909Y113D02*
X3904Y103D01*
X3902Y96D01*
X3900Y84D01*
Y75D01*
X3902Y63D01*
X3904Y56D01*
X3909Y46D01*
X3928Y108D02*
X3954D01*
X3940Y89D01*
X3947D01*
X3952Y87D01*
X3954Y84D01*
X3957Y77D01*
Y72D01*
X3954Y65D01*
X3950Y60D01*
X3943Y58D01*
X3935D01*
X3928Y60D01*
X3926Y63D01*
X3923Y68D01*
X3970Y63D02*
X3968Y60D01*
X3970Y58D01*
X3973Y60D01*
X3970Y63D01*
X3998Y108D02*
X3991Y106D01*
X3986Y98D01*
X3984Y87D01*
Y79D01*
X3986Y68D01*
X3991Y60D01*
X3998Y58D01*
X4003D01*
X4010Y60D01*
X4015Y68D01*
X4017Y79D01*
Y87D01*
X4015Y98D01*
X4010Y106D01*
X4003Y108D01*
X3998D01*
X4059Y91D02*
X4057Y84D01*
X4052Y79D01*
X4045Y77D01*
X4043D01*
X4035Y79D01*
X4031Y84D01*
X4028Y91D01*
Y94D01*
X4031Y101D01*
X4035Y106D01*
X4043Y108D01*
X4045D01*
X4052Y106D01*
X4057Y101D01*
X4059Y91D01*
Y79D01*
X4057Y68D01*
X4052Y60D01*
X4045Y58D01*
X4040D01*
X4033Y60D01*
X4031Y65D01*
X4085Y108D02*
X4078Y106D01*
X4075Y101D01*
Y96D01*
X4078Y91D01*
X4082Y89D01*
X4092Y87D01*
X4099Y84D01*
X4104Y79D01*
X4106Y75D01*
Y68D01*
X4104Y63D01*
X4101Y60D01*
X4094Y58D01*
X4085D01*
X4078Y60D01*
X4075Y63D01*
X4073Y68D01*
Y75D01*
X4075Y79D01*
X4080Y84D01*
X4087Y87D01*
X4097Y89D01*
X4101Y91D01*
X4104Y96D01*
Y101D01*
X4101Y106D01*
X4094Y108D01*
X4085D01*
X4129D02*
X4122Y106D01*
X4120Y101D01*
Y96D01*
X4122Y91D01*
X4127Y89D01*
X4136Y87D01*
X4143Y84D01*
X4148Y79D01*
X4151Y75D01*
Y68D01*
X4148Y63D01*
X4146Y60D01*
X4139Y58D01*
X4129D01*
X4122Y60D01*
X4120Y63D01*
X4117Y68D01*
Y75D01*
X4120Y79D01*
X4124Y84D01*
X4132Y87D01*
X4141Y89D01*
X4146Y91D01*
X4148Y96D01*
Y101D01*
X4146Y106D01*
X4139Y108D01*
X4129D01*
X4162Y91D02*
Y58D01*
Y82D02*
X4169Y89D01*
X4174Y91D01*
X4181D01*
X4186Y89D01*
X4188Y82D01*
Y58D01*
Y82D02*
X4195Y89D01*
X4200Y91D01*
X4207D01*
X4212Y89D01*
X4214Y82D01*
Y58D01*
X4230Y91D02*
Y58D01*
Y82D02*
X4237Y89D01*
X4242Y91D01*
X4249D01*
X4254Y89D01*
X4256Y82D01*
Y58D01*
Y82D02*
X4263Y89D01*
X4268Y91D01*
X4275D01*
X4280Y89D01*
X4282Y82D01*
Y58D01*
X4298Y118D02*
X4303Y113D01*
X4307Y106D01*
X4312Y96D01*
X4315Y84D01*
Y75D01*
X4312Y63D01*
X4307Y53D01*
X4303Y46D01*
X4298Y41D01*
X4303Y113D02*
X4307Y103D01*
X4310Y96D01*
X4312Y84D01*
Y75D01*
X4310Y63D01*
X4307Y56D01*
X4303Y46D01*
X4396Y82D02*
X4418D01*
X4425Y84D01*
X4427Y87D01*
X4430Y91D01*
Y98D01*
X4427Y103D01*
X4425Y106D01*
X4418Y108D01*
X4396D01*
Y58D01*
X4457Y108D02*
Y58D01*
X4441Y108D02*
X4474D01*
X4480D02*
Y58D01*
X4513Y108D02*
Y58D01*
X4480Y84D02*
X4513D01*
X4714Y108D02*
Y58D01*
Y108D02*
X4736D01*
X4743Y106D01*
X4745Y103D01*
X4747Y98D01*
Y94D01*
X4745Y89D01*
X4743Y87D01*
X4736Y84D01*
X4714D01*
X4731D02*
X4747Y58D01*
X4771Y91D02*
X4766Y89D01*
X4761Y84D01*
X4759Y77D01*
Y72D01*
X4761Y65D01*
X4766Y60D01*
X4771Y58D01*
X4778D01*
X4782Y60D01*
X4787Y65D01*
X4790Y72D01*
Y77D01*
X4787Y84D01*
X4782Y89D01*
X4778Y91D01*
X4771D01*
X4801D02*
Y68D01*
X4803Y60D01*
X4808Y58D01*
X4815D01*
X4820Y60D01*
X4827Y68D01*
Y91D02*
Y58D01*
X4840Y91D02*
Y58D01*
Y82D02*
X4847Y89D01*
X4852Y91D01*
X4859D01*
X4864Y89D01*
X4866Y82D01*
Y58D01*
X4908Y108D02*
Y58D01*
Y84D02*
X4903Y89D01*
X4898Y91D01*
X4891D01*
X4886Y89D01*
X4881Y84D01*
X4879Y77D01*
Y72D01*
X4881Y65D01*
X4886Y60D01*
X4891Y58D01*
X4898D01*
X4903Y60D01*
X4908Y65D01*
X3162Y-2D02*
X3167Y1D01*
X3174Y8D01*
Y-42D01*
X3228Y1D02*
X3225Y6D01*
X3218Y8D01*
X3213D01*
X3206Y6D01*
X3201Y-2D01*
X3199Y-13D01*
Y-25D01*
X3201Y-35D01*
X3206Y-40D01*
X3213Y-42D01*
X3216D01*
X3223Y-40D01*
X3228Y-35D01*
X3230Y-28D01*
Y-25D01*
X3228Y-18D01*
X3223Y-13D01*
X3216Y-11D01*
X3213D01*
X3206Y-13D01*
X3201Y-18D01*
X3199Y-25D01*
X3272Y-9D02*
X3270Y-16D01*
X3265Y-21D01*
X3258Y-23D01*
X3255D01*
X3248Y-21D01*
X3243Y-16D01*
X3241Y-9D01*
Y-6D01*
X3243Y1D01*
X3248Y6D01*
X3255Y8D01*
X3258D01*
X3265Y6D01*
X3270Y1D01*
X3272Y-9D01*
Y-21D01*
X3270Y-32D01*
X3265Y-40D01*
X3258Y-42D01*
X3253D01*
X3246Y-40D01*
X3243Y-35D01*
X3370Y8D02*
Y-42D01*
X3354Y8D02*
X3387D01*
X3405Y-9D02*
X3400Y-11D01*
X3395Y-16D01*
X3393Y-23D01*
Y-28D01*
X3395Y-35D01*
X3400Y-40D01*
X3405Y-42D01*
X3412D01*
X3417Y-40D01*
X3421Y-35D01*
X3424Y-28D01*
Y-23D01*
X3421Y-16D01*
X3417Y-11D01*
X3412Y-9D01*
X3405D01*
X3442Y8D02*
Y-32D01*
X3444Y-40D01*
X3449Y-42D01*
X3454D01*
X3435Y-9D02*
X3451D01*
X3489D02*
Y-42D01*
Y-16D02*
X3485Y-11D01*
X3480Y-9D01*
X3473D01*
X3468Y-11D01*
X3463Y-16D01*
X3461Y-23D01*
Y-28D01*
X3463Y-35D01*
X3468Y-40D01*
X3473Y-42D01*
X3480D01*
X3485Y-40D01*
X3489Y-35D01*
X3503Y8D02*
Y-42D01*
D101*
X-686Y4778D02*
X-176D01*
D102*
X720Y1850D02*
G03*
X720Y1850I-20J0D01*
G01*
X720Y0D02*
G03*
X720Y0I-20J0D01*
G01*
X720Y1060D02*
G03*
X720Y1060I-20J0D01*
G01*
Y260D02*
G03*
X720Y260I-20J0D01*
G01*
Y660D02*
G03*
X720Y660I-20J0D01*
G01*
Y1460D02*
G03*
X720Y1460I-20J0D01*
G01*
X1692Y1680D02*
G03*
X1692Y1680I-20J0D01*
G01*
X1892D02*
G03*
X1892Y1680I-20J0D01*
G01*
Y1480D02*
G03*
X1892Y1480I-20J0D01*
G01*
X1692D02*
G03*
X1692Y1480I-20J0D01*
G01*
X1792Y1580D02*
G03*
X1792Y1580I-20J0D01*
G01*
X183Y1680D02*
G03*
X183Y1680I-20J0D01*
G01*
X383D02*
G03*
X383Y1680I-20J0D01*
G01*
Y1480D02*
G03*
X383Y1480I-20J0D01*
G01*
X183D02*
G03*
X183Y1480I-20J0D01*
G01*
X283Y1580D02*
G03*
X283Y1580I-20J0D01*
G01*
X2834Y183D02*
G03*
X2834Y183I-20J0D01*
G01*
D103*
X2834Y729D02*
X2828Y735D01*
X2820Y738D01*
X2808D01*
X2800Y735D01*
X2794Y729D01*
Y724D01*
X2797Y718D01*
X2800Y715D01*
X2805Y712D01*
X2823Y707D01*
X2828Y704D01*
X2831Y701D01*
X2834Y695D01*
Y687D01*
X2828Y681D01*
X2820Y678D01*
X2808D01*
X2800Y681D01*
X2794Y687D01*
X2850Y718D02*
X2867Y678D01*
X2885Y718D02*
X2867Y678D01*
X2862Y667D01*
X2856Y661D01*
X2850Y658D01*
X2847D01*
X2895Y718D02*
Y678D01*
Y707D02*
X2903Y715D01*
X2909Y718D01*
X2917D01*
X2923Y715D01*
X2926Y707D01*
Y678D01*
Y707D02*
X2935Y715D01*
X2940Y718D01*
X2949D01*
X2955Y715D01*
X2957Y707D01*
Y678D01*
X2976Y738D02*
Y678D01*
Y709D02*
X2982Y715D01*
X2988Y718D01*
X2996D01*
X3002Y715D01*
X3008Y709D01*
X3011Y701D01*
Y695D01*
X3008Y687D01*
X3002Y681D01*
X2996Y678D01*
X2988D01*
X2982Y681D01*
X2976Y687D01*
X3038Y718D02*
X3032Y715D01*
X3026Y709D01*
X3023Y701D01*
Y695D01*
X3026Y687D01*
X3032Y681D01*
X3038Y678D01*
X3046D01*
X3052Y681D01*
X3058Y687D01*
X3061Y695D01*
Y701D01*
X3058Y709D01*
X3052Y715D01*
X3046Y718D01*
X3038D01*
X3074Y738D02*
Y678D01*
X3162Y738D02*
Y678D01*
X3202Y738D02*
Y678D01*
X3162Y709D02*
X3202D01*
X3225Y738D02*
X3228Y735D01*
X3230Y738D01*
X3228Y741D01*
X3225Y738D01*
X3228Y718D02*
Y678D01*
X3250Y738D02*
Y689D01*
X3252Y681D01*
X3258Y678D01*
X3264D01*
X3241Y718D02*
X3261D01*
X3362Y724D02*
X3360Y729D01*
X3354Y735D01*
X3348Y738D01*
X3337D01*
X3331Y735D01*
X3325Y729D01*
X3322Y724D01*
X3320Y715D01*
Y701D01*
X3322Y692D01*
X3325Y687D01*
X3331Y681D01*
X3337Y678D01*
X3348D01*
X3354Y681D01*
X3360Y687D01*
X3362Y692D01*
X3394Y718D02*
X3388Y715D01*
X3382Y709D01*
X3379Y701D01*
Y695D01*
X3382Y687D01*
X3388Y681D01*
X3394Y678D01*
X3402D01*
X3408Y681D01*
X3414Y687D01*
X3416Y695D01*
Y701D01*
X3414Y709D01*
X3408Y715D01*
X3402Y718D01*
X3394D01*
X3430D02*
Y689D01*
X3432Y681D01*
X3438Y678D01*
X3447D01*
X3452Y681D01*
X3461Y689D01*
Y718D02*
Y678D01*
X3477Y718D02*
Y678D01*
Y707D02*
X3485Y715D01*
X3491Y718D01*
X3500D01*
X3505Y715D01*
X3508Y707D01*
Y678D01*
X3532Y738D02*
Y689D01*
X3535Y681D01*
X3541Y678D01*
X3547D01*
X3524Y718D02*
X3544D01*
X3655Y738D02*
Y678D01*
X3635Y738D02*
X3675D01*
X3697Y718D02*
X3691Y715D01*
X3685Y709D01*
X3683Y701D01*
Y695D01*
X3685Y687D01*
X3691Y681D01*
X3697Y678D01*
X3705D01*
X3711Y681D01*
X3717Y687D01*
X3720Y695D01*
Y701D01*
X3717Y709D01*
X3711Y715D01*
X3705Y718D01*
X3697D01*
X3747D02*
X3741Y715D01*
X3736Y709D01*
X3733Y701D01*
Y695D01*
X3736Y687D01*
X3741Y681D01*
X3747Y678D01*
X3756D01*
X3761Y681D01*
X3767Y687D01*
X3770Y695D01*
Y701D01*
X3767Y709D01*
X3761Y715D01*
X3756Y718D01*
X3747D01*
X3783Y738D02*
Y678D01*
X3883Y729D02*
X3877Y735D01*
X3869Y738D01*
X3857D01*
X3849Y735D01*
X3843Y729D01*
Y724D01*
X3846Y718D01*
X3849Y715D01*
X3854Y712D01*
X3871Y707D01*
X3877Y704D01*
X3880Y701D01*
X3883Y695D01*
Y687D01*
X3877Y681D01*
X3869Y678D01*
X3857D01*
X3849Y681D01*
X3843Y687D01*
X3902Y738D02*
X3905Y735D01*
X3908Y738D01*
X3905Y741D01*
X3902Y738D01*
X3905Y718D02*
Y678D01*
X3950Y718D02*
X3918Y678D01*
Y718D02*
X3950D01*
X3918Y678D02*
X3950D01*
X3962Y701D02*
X3997D01*
Y707D01*
X3994Y712D01*
X3991Y715D01*
X3985Y718D01*
X3977D01*
X3971Y715D01*
X3965Y709D01*
X3962Y701D01*
Y695D01*
X3965Y687D01*
X3971Y681D01*
X3977Y678D01*
X3985D01*
X3991Y681D01*
X3997Y687D01*
X4396Y707D02*
X4422D01*
X4430Y709D01*
X4433Y712D01*
X4436Y718D01*
Y727D01*
X4433Y732D01*
X4430Y735D01*
X4422Y738D01*
X4396D01*
Y678D01*
X4450Y738D02*
Y678D01*
X4496Y718D02*
Y678D01*
Y709D02*
X4491Y715D01*
X4485Y718D01*
X4476D01*
X4471Y715D01*
X4465Y709D01*
X4462Y701D01*
Y695D01*
X4465Y687D01*
X4471Y681D01*
X4476Y678D01*
X4485D01*
X4491Y681D01*
X4496Y687D01*
X4521Y738D02*
Y689D01*
X4524Y681D01*
X4530Y678D01*
X4535D01*
X4512Y718D02*
X4532D01*
X4544Y701D02*
X4578D01*
Y707D01*
X4575Y712D01*
X4572Y715D01*
X4567Y718D01*
X4558D01*
X4552Y715D01*
X4547Y709D01*
X4544Y701D01*
Y695D01*
X4547Y687D01*
X4552Y681D01*
X4558Y678D01*
X4567D01*
X4572Y681D01*
X4578Y687D01*
X4625Y738D02*
Y678D01*
Y709D02*
X4620Y715D01*
X4614Y718D01*
X4605D01*
X4600Y715D01*
X4594Y709D01*
X4591Y701D01*
Y695D01*
X4594Y687D01*
X4600Y681D01*
X4605Y678D01*
X4614D01*
X4620Y681D01*
X4625Y687D01*
X4714Y738D02*
Y678D01*
X4754Y738D02*
Y678D01*
X4714Y709D02*
X4754D01*
X4785Y718D02*
X4779Y715D01*
X4774Y709D01*
X4771Y701D01*
Y695D01*
X4774Y687D01*
X4779Y681D01*
X4785Y678D01*
X4794D01*
X4799Y681D01*
X4805Y687D01*
X4808Y695D01*
Y701D01*
X4805Y709D01*
X4799Y715D01*
X4794Y718D01*
X4785D01*
X4821Y738D02*
Y678D01*
X4833Y701D02*
X4868D01*
Y707D01*
X4865Y712D01*
X4862Y715D01*
X4856Y718D01*
X4848D01*
X4842Y715D01*
X4836Y709D01*
X4833Y701D01*
Y695D01*
X4836Y687D01*
X4842Y681D01*
X4848Y678D01*
X4856D01*
X4862Y681D01*
X4868Y687D01*
X4948Y738D02*
Y678D01*
X4928Y738D02*
X4968D01*
X4978Y718D02*
X4995Y678D01*
X5012Y718D02*
X4995Y678D01*
X4989Y667D01*
X4983Y661D01*
X4978Y658D01*
X4975D01*
X5022Y718D02*
Y658D01*
Y709D02*
X5028Y715D01*
X5033Y718D01*
X5042D01*
X5048Y715D01*
X5053Y709D01*
X5056Y701D01*
Y695D01*
X5053Y687D01*
X5048Y681D01*
X5042Y678D01*
X5033D01*
X5028Y681D01*
X5022Y687D01*
X5069Y701D02*
X5103D01*
Y707D01*
X5101Y712D01*
X5098Y715D01*
X5092Y718D01*
X5083D01*
X5078Y715D01*
X5072Y709D01*
X5069Y701D01*
Y695D01*
X5072Y687D01*
X5078Y681D01*
X5083Y678D01*
X5092D01*
X5098Y681D01*
X5103Y687D01*
X2724Y768D02*
X5192D01*
X2724Y633D02*
X5192D01*
X2724Y768D02*
Y-67D01*
X5192Y768D02*
Y-67D01*
X3128Y768D02*
Y-67D01*
X3601Y768D02*
Y-67D01*
X4361Y768D02*
Y-67D01*
X4679Y768D02*
Y-67D01*
X2724Y33D02*
X5192D01*
X2724Y-67D02*
X5192D01*
M02*
