%FSLAX23Y23*%
%MOIN*%
G70*
G01*
G75*
G04 Layer_Color=16711935*
%ADD10C,0.030*%
%ADD11R,0.030X0.030*%
%ADD12R,0.074X0.045*%
%ADD13C,0.040*%
%ADD14R,0.020X0.050*%
%ADD15O,0.016X0.060*%
%ADD16R,0.024X0.024*%
%ADD17O,0.016X0.060*%
%ADD18R,0.030X0.030*%
%ADD19R,0.024X0.100*%
%ADD20R,0.024X0.090*%
%ADD21R,0.070X0.024*%
%ADD22R,0.090X0.024*%
%ADD23O,0.024X0.080*%
%ADD24R,0.075X0.043*%
%ADD25R,0.014X0.035*%
%ADD26R,0.014X0.035*%
%ADD27R,0.050X0.036*%
%ADD28R,0.036X0.036*%
%ADD29R,0.036X0.036*%
%ADD30R,0.036X0.050*%
%ADD31R,0.063X0.051*%
%ADD32R,0.080X0.060*%
%ADD33C,0.010*%
%ADD34C,0.014*%
%ADD35C,0.006*%
%ADD36C,0.016*%
%ADD37C,0.015*%
%ADD38C,0.025*%
%ADD39C,0.012*%
%ADD40C,0.008*%
%ADD41C,0.020*%
%ADD42C,0.005*%
%ADD43C,0.009*%
%ADD44C,0.062*%
%ADD45R,0.062X0.062*%
%ADD46O,0.040X0.060*%
%ADD47C,0.070*%
%ADD48C,0.122*%
%ADD49C,0.028*%
%ADD50R,0.070X0.070*%
%ADD51R,0.067X0.091*%
%ADD52C,0.020*%
%ADD53R,0.200X0.100*%
%ADD54R,0.160X0.180*%
%ADD55R,0.098X0.138*%
%ADD56C,0.032*%
%ADD57C,0.010*%
%ADD58R,0.032X0.036*%
%ADD59R,0.273X0.018*%
%ADD60R,0.038X0.038*%
%ADD61R,0.082X0.053*%
%ADD62C,0.048*%
%ADD63R,0.028X0.058*%
%ADD64O,0.024X0.068*%
%ADD65R,0.032X0.032*%
%ADD66O,0.024X0.068*%
%ADD67R,0.038X0.038*%
%ADD68R,0.032X0.108*%
%ADD69R,0.032X0.098*%
%ADD70R,0.078X0.032*%
%ADD71R,0.098X0.032*%
%ADD72O,0.032X0.088*%
%ADD73R,0.083X0.051*%
%ADD74R,0.022X0.043*%
%ADD75R,0.022X0.043*%
%ADD76R,0.058X0.044*%
%ADD77R,0.044X0.044*%
%ADD78R,0.044X0.044*%
%ADD79R,0.044X0.058*%
%ADD80R,0.071X0.059*%
%ADD81R,0.088X0.068*%
%ADD82O,0.048X0.068*%
%ADD83C,0.090*%
%ADD84C,0.078*%
%ADD85C,0.130*%
%ADD86C,0.036*%
%ADD87C,0.060*%
%ADD88R,0.078X0.078*%
%ADD89R,0.075X0.099*%
%ADD90R,0.208X0.108*%
%ADD91R,0.168X0.188*%
%ADD92R,0.106X0.146*%
G36*
X7Y-34D02*
X-9D01*
Y-85D01*
X-17D01*
X-127Y25D01*
X-158D01*
Y72D01*
X7D01*
Y-34D01*
D02*
G37*
G36*
X-613Y41D02*
X-714Y-60D01*
X-755D01*
Y-31D01*
X-782D01*
Y82D01*
X-613D01*
Y41D01*
D02*
G37*
D33*
X-1854Y-811D02*
Y178D01*
Y-811D02*
X48D01*
X-1854Y178D02*
X48D01*
Y-811D02*
Y178D01*
X-706Y-852D02*
Y-912D01*
X-726Y-852D02*
X-686D01*
X-633Y-912D02*
X-656Y-852D01*
X-679Y-912D01*
X-670Y-892D02*
X-642D01*
X-576Y-866D02*
X-579Y-861D01*
X-585Y-855D01*
X-591Y-852D01*
X-602D01*
X-608Y-855D01*
X-613Y-861D01*
X-616Y-866D01*
X-619Y-875D01*
Y-889D01*
X-616Y-898D01*
X-613Y-903D01*
X-608Y-909D01*
X-602Y-912D01*
X-591D01*
X-585Y-909D01*
X-579Y-903D01*
X-576Y-898D01*
Y-889D01*
X-591D02*
X-576D01*
X-515Y-863D02*
X-510Y-861D01*
X-501Y-852D01*
Y-912D01*
X-454Y-852D02*
X-463Y-855D01*
X-469Y-863D01*
X-471Y-878D01*
Y-886D01*
X-469Y-901D01*
X-463Y-909D01*
X-454Y-912D01*
X-449D01*
X-440Y-909D01*
X-434Y-901D01*
X-431Y-886D01*
Y-878D01*
X-434Y-863D01*
X-440Y-855D01*
X-449Y-852D01*
X-454D01*
X-415Y-866D02*
Y-863D01*
X-412Y-858D01*
X-409Y-855D01*
X-404Y-852D01*
X-392D01*
X-387Y-855D01*
X-384Y-858D01*
X-381Y-863D01*
Y-869D01*
X-384Y-875D01*
X-390Y-883D01*
X-418Y-912D01*
X-378D01*
X-318Y-852D02*
Y-912D01*
Y-852D02*
X-292D01*
X-283Y-855D01*
X-280Y-858D01*
X-278Y-863D01*
Y-869D01*
X-280Y-875D01*
X-283Y-878D01*
X-292Y-881D01*
X-318D01*
X-298D02*
X-278Y-912D01*
X-227Y-852D02*
X-264D01*
Y-912D01*
X-227D01*
X-264Y-881D02*
X-241D01*
X-217Y-852D02*
X-194Y-912D01*
X-171Y-852D02*
X-194Y-912D01*
X-161Y-906D02*
X-164Y-909D01*
X-161Y-912D01*
X-158Y-909D01*
X-161Y-906D01*
X-145Y-863D02*
X-139Y-861D01*
X-130Y-852D01*
Y-912D01*
X-61Y-852D02*
X-89Y-912D01*
X-101Y-852D02*
X-61D01*
X2385Y-2020D02*
G03*
X2336Y-1971I-49J0D01*
G01*
X1235D02*
G03*
X1185Y-2021I0J-50D01*
G01*
X2335Y-1921D02*
G03*
X2385Y-1871I0J50D01*
G01*
X1185D02*
G03*
X1235Y-1921I50J0D01*
G01*
X-1865Y-1196D02*
G03*
X-1965Y-1296I0J-100D01*
G01*
Y-2395D02*
G03*
X-1866Y-2496I101J0D01*
G01*
X2335Y-2496D02*
G03*
X2435Y-2396I0J100D01*
G01*
Y-1296D02*
G03*
X2335Y-1196I-100J0D01*
G01*
X2385Y-1295D02*
G03*
X2334Y-1246I-49J0D01*
G01*
X2335Y-2196D02*
G03*
X2385Y-2146I0J50D01*
G01*
X2385Y-2295D02*
G03*
X2335Y-2246I-50J-1D01*
G01*
Y-2446D02*
G03*
X2385Y-2396I0J50D01*
G01*
X1085Y-2196D02*
G03*
X1135Y-2146I0J50D01*
G01*
X1185Y-2147D02*
G03*
X1235Y-2196I49J0D01*
G01*
X1135Y-2020D02*
G03*
X1086Y-1971I-49J0D01*
G01*
X-1915Y-2396D02*
G03*
X-1866Y-2446I50J0D01*
G01*
X1086Y-1921D02*
G03*
X1135Y-1871I-1J50D01*
G01*
X-1865Y-2246D02*
G03*
X-1915Y-2296I0J-50D01*
G01*
X1135Y-1546D02*
G03*
X1085Y-1496I-50J0D01*
G01*
Y-1446D02*
G03*
X1135Y-1396I0J50D01*
G01*
X1235Y-1246D02*
G03*
X1185Y-1296I0J-50D01*
G01*
X1135D02*
G03*
X1085Y-1246I-50J0D01*
G01*
X-1865D02*
G03*
X-1915Y-1296I0J-50D01*
G01*
Y-1396D02*
G03*
X-1865Y-1446I50J0D01*
G01*
Y-1496D02*
G03*
X-1915Y-1546I0J-50D01*
G01*
Y-1771D02*
G03*
X-1865Y-1821I50J0D01*
G01*
Y-1871D02*
G03*
X-1915Y-1921I0J-50D01*
G01*
Y-2146D02*
G03*
X-1866Y-2196I50J0D01*
G01*
X-965Y-1496D02*
G03*
X-1015Y-1546I0J-50D01*
G01*
X-965Y-1971D02*
G03*
X-1015Y-2021I0J-50D01*
G01*
X783Y-1971D02*
G03*
X735Y-2022I0J-48D01*
G01*
X735Y-2145D02*
G03*
X785Y-2196I51J0D01*
G01*
X636Y-2196D02*
G03*
X685Y-2146I0J49D01*
G01*
X685Y-2020D02*
G03*
X636Y-1971I-49J0D01*
G01*
X-1114Y-2196D02*
G03*
X-1065Y-2147I0J49D01*
G01*
X-1015D02*
G03*
X-966Y-2196I49J0D01*
G01*
X-1015Y-1872D02*
G03*
X-966Y-1921I49J0D01*
G01*
X-1065Y-1920D02*
G03*
X-1116Y-1871I-49J0D01*
G01*
X-1113Y-1821D02*
G03*
X-1065Y-1773I0J48D01*
G01*
Y-1545D02*
G03*
X-1114Y-1496I-49J0D01*
G01*
X1785Y-2246D02*
G03*
X1735Y-2296I0J-50D01*
G01*
Y-2397D02*
G03*
X1785Y-2446I49J0D01*
G01*
X1636Y-2446D02*
G03*
X1685Y-2397I1J48D01*
G01*
X1685Y-2296D02*
G03*
X1635Y-2246I-50J0D01*
G01*
X-90Y-2396D02*
G03*
X-41Y-2446I50J0D01*
G01*
X-40Y-2246D02*
G03*
X-90Y-2296I0J-50D01*
G01*
X-189Y-2446D02*
G03*
X-140Y-2397I1J48D01*
G01*
X-140Y-2296D02*
G03*
X-190Y-2246I-50J0D01*
G01*
X2385Y-2146D02*
Y-2020D01*
X1185Y-2146D02*
Y-2021D01*
X2385Y-1871D02*
Y-1296D01*
X1185Y-1871D02*
Y-1296D01*
X-1965Y-2396D02*
Y-1296D01*
X-1915Y-2396D02*
Y-2296D01*
X2385Y-2396D02*
Y-2296D01*
X1135Y-2146D02*
Y-2021D01*
X735Y-2146D02*
Y-2021D01*
X-1015Y-2146D02*
Y-2021D01*
X685Y-2146D02*
Y-2021D01*
X-1015Y-1871D02*
Y-1546D01*
X1135Y-1871D02*
Y-1546D01*
Y-1396D02*
Y-1296D01*
X-1915Y-1396D02*
Y-1296D01*
X-1065Y-1771D02*
Y-1546D01*
X-1915Y-1771D02*
Y-1546D01*
X-1065Y-2146D02*
Y-1921D01*
X-1915Y-2146D02*
Y-1921D01*
X2435Y-2396D02*
Y-1296D01*
X1735Y-2396D02*
Y-2296D01*
X1685Y-2396D02*
Y-2296D01*
X-90Y-2396D02*
Y-2296D01*
X-140Y-2396D02*
Y-2296D01*
X1235Y-1971D02*
X2335D01*
X1235Y-1921D02*
X2335D01*
X-965D02*
X1085D01*
X1235Y-1246D02*
X2335D01*
X1235Y-2196D02*
X2335D01*
X785Y-1971D02*
X1085D01*
X785Y-2196D02*
X1085D01*
X-965D02*
X635D01*
X-965Y-1971D02*
X635D01*
X-965Y-1496D02*
X1085D01*
X-1865Y-1446D02*
X1085D01*
X-1865Y-1496D02*
X-1115D01*
X-1865Y-1821D02*
X-1115D01*
X-1865Y-1871D02*
X-1115D01*
X-1865Y-2196D02*
X-1115D01*
X-1865Y-1196D02*
X2335D01*
X-1865Y-2496D02*
X2335D01*
X-1865Y-1246D02*
X1085D01*
X1785Y-2246D02*
X2335D01*
X1785Y-2446D02*
X2335D01*
X-40Y-2246D02*
X1635D01*
X-1865D02*
X-190D01*
X-1865Y-2446D02*
X-190D01*
X-40D02*
X1635D01*
X1564Y-1583D02*
X1554Y-1572D01*
X1532D01*
X1522Y-1583D01*
Y-1593D01*
X1532Y-1604D01*
X1554D01*
X1564Y-1615D01*
Y-1625D01*
X1554Y-1636D01*
X1532D01*
X1522Y-1625D01*
X1586Y-1593D02*
Y-1625D01*
X1596Y-1636D01*
X1628D01*
Y-1593D01*
X1649Y-1636D02*
X1671D01*
X1660D01*
Y-1593D01*
X1649D01*
X1713Y-1583D02*
Y-1593D01*
X1703D01*
X1724D01*
X1713D01*
Y-1625D01*
X1724Y-1636D01*
X1788D02*
X1767D01*
X1756Y-1625D01*
Y-1604D01*
X1767Y-1593D01*
X1788D01*
X1799Y-1604D01*
Y-1615D01*
X1756D01*
X1884Y-1636D02*
X1905D01*
X1895D01*
Y-1572D01*
X1884Y-1583D01*
X1937Y-1636D02*
X1959D01*
X1948D01*
Y-1572D01*
X1937Y-1583D01*
X1991D02*
X2001Y-1572D01*
X2023D01*
X2033Y-1583D01*
Y-1593D01*
X2023Y-1604D01*
X2033Y-1615D01*
Y-1625D01*
X2023Y-1636D01*
X2001D01*
X1991Y-1625D01*
Y-1615D01*
X2001Y-1604D01*
X1991Y-1593D01*
Y-1583D01*
X2001Y-1604D02*
X2023D01*
X1484Y-1787D02*
X1442D01*
Y-1819D01*
X1463Y-1808D01*
X1474D01*
X1484Y-1819D01*
Y-1840D01*
X1474Y-1851D01*
X1452D01*
X1442Y-1840D01*
X1548Y-1787D02*
X1527Y-1798D01*
X1506Y-1819D01*
Y-1840D01*
X1516Y-1851D01*
X1537D01*
X1548Y-1840D01*
Y-1830D01*
X1537Y-1819D01*
X1506D01*
X1569Y-1851D02*
X1591D01*
X1580D01*
Y-1787D01*
X1569Y-1798D01*
X1623Y-1819D02*
X1665D01*
X1687Y-1840D02*
X1697Y-1851D01*
X1719D01*
X1729Y-1840D01*
Y-1798D01*
X1719Y-1787D01*
X1697D01*
X1687Y-1798D01*
Y-1808D01*
X1697Y-1819D01*
X1729D01*
X1751Y-1840D02*
X1761Y-1851D01*
X1783D01*
X1793Y-1840D01*
Y-1798D01*
X1783Y-1787D01*
X1761D01*
X1751Y-1798D01*
Y-1808D01*
X1761Y-1819D01*
X1793D01*
X1815Y-1840D02*
X1825Y-1851D01*
X1847D01*
X1857Y-1840D01*
Y-1798D01*
X1847Y-1787D01*
X1825D01*
X1815Y-1798D01*
Y-1808D01*
X1825Y-1819D01*
X1857D01*
X1879D02*
X1921D01*
X1943Y-1840D02*
X1953Y-1851D01*
X1975D01*
X1985Y-1840D01*
Y-1798D01*
X1975Y-1787D01*
X1953D01*
X1943Y-1798D01*
Y-1808D01*
X1953Y-1819D01*
X1985D01*
X2039Y-1851D02*
Y-1787D01*
X2007Y-1819D01*
X2049D01*
X2113Y-1851D02*
X2071D01*
X2113Y-1808D01*
Y-1798D01*
X2103Y-1787D01*
X2081D01*
X2071Y-1798D01*
X2177Y-1851D02*
X2135D01*
X2177Y-1808D01*
Y-1798D01*
X2167Y-1787D01*
X2145D01*
X2135Y-1798D01*
X1227Y-1520D02*
X1237Y-1531D01*
X1259D01*
X1269Y-1520D01*
Y-1478D01*
X1259Y-1467D01*
X1237D01*
X1227Y-1478D01*
Y-1488D01*
X1237Y-1499D01*
X1269D01*
X1291Y-1478D02*
X1301Y-1467D01*
X1322D01*
X1333Y-1478D01*
Y-1520D01*
X1322Y-1531D01*
X1301D01*
X1291Y-1520D01*
Y-1478D01*
X1397Y-1531D02*
X1354D01*
X1397Y-1488D01*
Y-1478D01*
X1386Y-1467D01*
X1365D01*
X1354Y-1478D01*
X1525D02*
X1514Y-1467D01*
X1493D01*
X1482Y-1478D01*
Y-1520D01*
X1493Y-1531D01*
X1514D01*
X1525Y-1520D01*
X1546Y-1531D02*
X1568D01*
X1557D01*
Y-1467D01*
X1546D01*
X1600Y-1531D02*
X1621D01*
X1610D01*
Y-1488D01*
X1600D01*
X1653Y-1531D02*
Y-1488D01*
X1685D01*
X1696Y-1499D01*
Y-1531D01*
X1728Y-1478D02*
Y-1488D01*
X1717D01*
X1738D01*
X1728D01*
Y-1520D01*
X1738Y-1531D01*
X1834D02*
Y-1467D01*
X1856Y-1488D01*
X1877Y-1467D01*
Y-1531D01*
X1909D02*
X1930D01*
X1941Y-1520D01*
Y-1499D01*
X1930Y-1488D01*
X1909D01*
X1898Y-1499D01*
Y-1520D01*
X1909Y-1531D01*
X1973D02*
X1994D01*
X2005Y-1520D01*
Y-1499D01*
X1994Y-1488D01*
X1973D01*
X1962Y-1499D01*
Y-1520D01*
X1973Y-1531D01*
X2026Y-1488D02*
Y-1531D01*
Y-1510D01*
X2037Y-1499D01*
X2048Y-1488D01*
X2058D01*
X2122Y-1531D02*
X2101D01*
X2090Y-1520D01*
Y-1499D01*
X2101Y-1488D01*
X2122D01*
X2133Y-1499D01*
Y-1510D01*
X2090D01*
X2218Y-1531D02*
Y-1467D01*
X2250D01*
X2261Y-1478D01*
Y-1499D01*
X2250Y-1510D01*
X2218D01*
X2240D02*
X2261Y-1531D01*
X2325Y-1467D02*
Y-1531D01*
X2293D01*
X2282Y-1520D01*
Y-1499D01*
X2293Y-1488D01*
X2325D01*
X2346Y-1531D02*
Y-1520D01*
X2357D01*
Y-1531D01*
X2346D01*
X1387Y-1667D02*
Y-1731D01*
X1419D01*
X1429Y-1720D01*
Y-1710D01*
X1419Y-1699D01*
X1387D01*
X1419D01*
X1429Y-1688D01*
Y-1678D01*
X1419Y-1667D01*
X1387D01*
X1461Y-1731D02*
X1482D01*
X1493Y-1720D01*
Y-1699D01*
X1482Y-1688D01*
X1461D01*
X1451Y-1699D01*
Y-1720D01*
X1461Y-1731D01*
X1557Y-1688D02*
X1525D01*
X1514Y-1699D01*
Y-1720D01*
X1525Y-1731D01*
X1557D01*
X1589Y-1688D02*
X1610D01*
X1621Y-1699D01*
Y-1731D01*
X1589D01*
X1578Y-1720D01*
X1589Y-1710D01*
X1621D01*
X1706Y-1731D02*
Y-1667D01*
X1738D01*
X1749Y-1678D01*
Y-1699D01*
X1738Y-1710D01*
X1706D01*
X1728D02*
X1749Y-1731D01*
X1781Y-1688D02*
X1802D01*
X1813Y-1699D01*
Y-1731D01*
X1781D01*
X1770Y-1720D01*
X1781Y-1710D01*
X1813D01*
X1845Y-1678D02*
Y-1688D01*
X1834D01*
X1856D01*
X1845D01*
Y-1720D01*
X1856Y-1731D01*
X1898D02*
X1920D01*
X1930Y-1720D01*
Y-1699D01*
X1920Y-1688D01*
X1898D01*
X1888Y-1699D01*
Y-1720D01*
X1898Y-1731D01*
X1952D02*
Y-1688D01*
X1984D01*
X1994Y-1699D01*
Y-1731D01*
X2122Y-1667D02*
X2080D01*
Y-1699D01*
X2101D01*
X2080D01*
Y-1731D01*
X2144Y-1667D02*
Y-1731D01*
X2186D01*
X2208D02*
Y-1720D01*
X2218D01*
Y-1731D01*
X2208D01*
D37*
X1277Y-1426D02*
Y-1359D01*
X1310Y-1326D01*
X1343Y-1359D01*
Y-1426D01*
Y-1376D01*
X1277D01*
X1443Y-1359D02*
X1393D01*
X1376Y-1376D01*
Y-1409D01*
X1393Y-1426D01*
X1443D01*
X1493Y-1343D02*
Y-1359D01*
X1476D01*
X1510D01*
X1493D01*
Y-1409D01*
X1510Y-1426D01*
X1560D02*
X1593D01*
X1576D01*
Y-1359D01*
X1560D01*
X1643D02*
X1676Y-1426D01*
X1710Y-1359D01*
X1793Y-1426D02*
X1760D01*
X1743Y-1409D01*
Y-1376D01*
X1760Y-1359D01*
X1793D01*
X1810Y-1376D01*
Y-1393D01*
X1743D01*
X1943Y-1326D02*
Y-1426D01*
X1976Y-1393D01*
X2010Y-1426D01*
Y-1326D01*
X2060Y-1359D02*
X2093D01*
X2110Y-1376D01*
Y-1426D01*
X2060D01*
X2043Y-1409D01*
X2060Y-1393D01*
X2110D01*
X2143Y-1359D02*
X2176Y-1426D01*
X2210Y-1359D01*
X2293Y-1426D02*
X2260D01*
X2243Y-1409D01*
Y-1376D01*
X2260Y-1359D01*
X2293D01*
X2310Y-1376D01*
Y-1393D01*
X2243D01*
D40*
X-765Y-73D02*
X-745D01*
X-765Y-85D02*
X-757D01*
X-781Y-34D02*
X-765D01*
Y-68D02*
X-740D01*
X-765Y-63D02*
X-735D01*
X-781Y-33D02*
X-705D01*
X-781Y-28D02*
X-700D01*
X-781Y-23D02*
X-695D01*
X-781Y-18D02*
X-690D01*
X-765Y-78D02*
X-750D01*
X-765Y-83D02*
X-755D01*
X-765Y-85D02*
Y-34D01*
Y-58D02*
X-730D01*
X-765Y-53D02*
X-725D01*
X-765Y-48D02*
X-720D01*
X-765Y-43D02*
X-715D01*
X-765Y-38D02*
X-710D01*
X-691Y-19D02*
Y72D01*
X-756Y-84D02*
Y72D01*
X-751Y-79D02*
Y72D01*
X-761Y-85D02*
Y72D01*
X-741Y-69D02*
Y72D01*
X-746Y-74D02*
Y72D01*
X-776Y-34D02*
Y72D01*
X-781Y-34D02*
Y72D01*
X-766Y-34D02*
Y72D01*
X-771Y-34D02*
Y72D01*
X-731Y-59D02*
Y72D01*
X-726Y-54D02*
Y72D01*
X-736Y-64D02*
Y72D01*
X-716Y-44D02*
Y72D01*
X-721Y-49D02*
Y72D01*
X-706Y-34D02*
Y72D01*
X-711Y-39D02*
Y72D01*
X-696Y-24D02*
Y72D01*
X-701Y-29D02*
Y72D01*
X-781Y-8D02*
X-680D01*
X-781Y-13D02*
X-685D01*
X-781Y-3D02*
X-675D01*
X-781Y2D02*
X-670D01*
X-781Y7D02*
X-665D01*
X-781Y12D02*
X-660D01*
X-781Y17D02*
X-655D01*
X-781Y22D02*
X-650D01*
X-781Y52D02*
X-616D01*
X-757Y-85D02*
X-647Y25D01*
X-616D01*
X-781Y27D02*
X-616D01*
X-781Y32D02*
X-616D01*
X-781Y37D02*
X-616D01*
X-781Y57D02*
X-616D01*
X-781Y62D02*
X-616D01*
X-781Y42D02*
X-616D01*
X-781Y47D02*
X-616D01*
X-681Y-9D02*
Y72D01*
X-676Y-4D02*
Y72D01*
X-686Y-14D02*
Y72D01*
X-666Y6D02*
Y72D01*
X-671Y1D02*
Y72D01*
X-656Y16D02*
Y72D01*
X-661Y11D02*
Y72D01*
X-781Y67D02*
X-616D01*
X-781Y72D02*
X-616D01*
X-646Y25D02*
Y72D01*
X-641Y25D02*
Y72D01*
X-651Y21D02*
Y72D01*
X-631Y25D02*
Y72D01*
X-636Y25D02*
Y72D01*
X-621Y25D02*
Y72D01*
X-626Y25D02*
Y72D01*
X-616Y25D02*
Y72D01*
Y25D02*
Y72D01*
X-126Y6D02*
Y82D01*
X-121Y1D02*
Y82D01*
X-131Y11D02*
Y82D01*
X-161Y41D02*
X-60Y-60D01*
X-116Y-4D02*
Y82D01*
X-156Y36D02*
Y82D01*
X-161Y41D02*
Y82D01*
X-146Y26D02*
Y82D01*
X-151Y31D02*
Y82D01*
X-82Y-38D02*
X-19D01*
X-87Y-33D02*
X-19D01*
X-72Y-48D02*
X-19D01*
X-77Y-43D02*
X-19D01*
X-106Y-14D02*
Y82D01*
X-111Y-9D02*
Y82D01*
X-96Y-24D02*
Y82D01*
X-101Y-19D02*
Y82D01*
X-76Y-44D02*
Y82D01*
X-71Y-49D02*
Y82D01*
X-81Y-39D02*
Y82D01*
X-61Y-59D02*
Y82D01*
X-66Y-54D02*
Y82D01*
X-136Y16D02*
Y82D01*
X-141Y21D02*
Y82D01*
X-86Y-34D02*
Y82D01*
X-91Y-29D02*
Y82D01*
X-31Y-60D02*
Y82D01*
X-36Y-60D02*
Y82D01*
X-21Y-60D02*
Y82D01*
X-26Y-60D02*
Y82D01*
X-51Y-60D02*
Y82D01*
X-56Y-60D02*
Y82D01*
X-41Y-60D02*
Y82D01*
X-46Y-60D02*
Y82D01*
X-122Y2D02*
X8D01*
X-117Y-3D02*
X8D01*
X-127Y7D02*
X8D01*
X-107Y-13D02*
X8D01*
X-112Y-8D02*
X8D01*
X-142Y22D02*
X8D01*
X-147Y27D02*
X8D01*
X-132Y12D02*
X8D01*
X-137Y17D02*
X8D01*
X-62Y-58D02*
X-19D01*
X-67Y-53D02*
X-19D01*
X-60Y-60D02*
X-19D01*
Y-31D01*
X-97Y-23D02*
X8D01*
X-102Y-18D02*
X8D01*
X-19Y-31D02*
X8D01*
X-92Y-28D02*
X8D01*
X-161Y57D02*
X8D01*
X-161Y52D02*
X8D01*
X-161Y62D02*
X8D01*
X-161Y42D02*
X8D01*
X-161Y47D02*
X8D01*
X-161Y77D02*
X8D01*
X-161Y82D02*
X8D01*
X-161Y67D02*
X8D01*
X-161Y72D02*
X8D01*
X-1Y-31D02*
Y82D01*
X-6Y-31D02*
Y82D01*
X8Y-31D02*
Y82D01*
X4Y-31D02*
Y82D01*
X-11Y-31D02*
Y82D01*
X-16Y-31D02*
Y82D01*
X-152Y32D02*
X8D01*
X-157Y37D02*
X8D01*
X-1053Y-865D02*
Y-945D01*
Y-865D02*
X-1087D01*
X-1099Y-869D01*
X-1103Y-873D01*
X-1106Y-880D01*
Y-888D01*
X-1103Y-895D01*
X-1099Y-899D01*
X-1087Y-903D01*
X-1053D02*
X-1087D01*
X-1099Y-907D01*
X-1103Y-911D01*
X-1106Y-918D01*
Y-930D01*
X-1103Y-937D01*
X-1099Y-941D01*
X-1087Y-945D01*
X-1053D01*
X-1143Y-892D02*
X-1136Y-895D01*
X-1128Y-903D01*
X-1124Y-915D01*
Y-922D01*
X-1128Y-934D01*
X-1136Y-941D01*
X-1143Y-945D01*
X-1155D01*
X-1162Y-941D01*
X-1170Y-934D01*
X-1174Y-922D01*
Y-915D01*
X-1170Y-903D01*
X-1162Y-895D01*
X-1155Y-892D01*
X-1143D01*
X-1203Y-865D02*
Y-930D01*
X-1206Y-941D01*
X-1214Y-945D01*
X-1222D01*
X-1191Y-892D02*
X-1218D01*
X-1245Y-865D02*
Y-930D01*
X-1248Y-941D01*
X-1256Y-945D01*
X-1264D01*
X-1233Y-892D02*
X-1260D01*
X-1294D02*
X-1286Y-895D01*
X-1279Y-903D01*
X-1275Y-915D01*
Y-922D01*
X-1279Y-934D01*
X-1286Y-941D01*
X-1294Y-945D01*
X-1306D01*
X-1313Y-941D01*
X-1321Y-934D01*
X-1325Y-922D01*
Y-915D01*
X-1321Y-903D01*
X-1313Y-895D01*
X-1306Y-892D01*
X-1294D01*
X-1342D02*
Y-945D01*
Y-907D02*
X-1354Y-895D01*
X-1361Y-892D01*
X-1373D01*
X-1380Y-895D01*
X-1384Y-907D01*
Y-945D01*
Y-907D02*
X-1395Y-895D01*
X-1403Y-892D01*
X-1414D01*
X-1422Y-895D01*
X-1426Y-907D01*
Y-945D01*
X-1504Y-876D02*
X-1497Y-869D01*
X-1485Y-865D01*
X-1470D01*
X-1459Y-869D01*
X-1451Y-876D01*
Y-884D01*
X-1455Y-892D01*
X-1459Y-895D01*
X-1466Y-899D01*
X-1489Y-907D01*
X-1497Y-911D01*
X-1501Y-915D01*
X-1504Y-922D01*
Y-934D01*
X-1497Y-941D01*
X-1485Y-945D01*
X-1470D01*
X-1459Y-941D01*
X-1451Y-934D01*
X-1541Y-892D02*
X-1534Y-895D01*
X-1526Y-903D01*
X-1522Y-915D01*
Y-922D01*
X-1526Y-934D01*
X-1534Y-941D01*
X-1541Y-945D01*
X-1553D01*
X-1560Y-941D01*
X-1568Y-934D01*
X-1572Y-922D01*
Y-915D01*
X-1568Y-903D01*
X-1560Y-895D01*
X-1553Y-892D01*
X-1541D01*
X-1589Y-865D02*
Y-945D01*
X-1652Y-865D02*
Y-945D01*
Y-903D02*
X-1644Y-895D01*
X-1636Y-892D01*
X-1625D01*
X-1617Y-895D01*
X-1610Y-903D01*
X-1606Y-915D01*
Y-922D01*
X-1610Y-934D01*
X-1617Y-941D01*
X-1625Y-945D01*
X-1636D01*
X-1644Y-941D01*
X-1652Y-934D01*
X-1673Y-915D02*
X-1719D01*
Y-907D01*
X-1715Y-899D01*
X-1711Y-895D01*
X-1704Y-892D01*
X-1692D01*
X-1684Y-895D01*
X-1677Y-903D01*
X-1673Y-915D01*
Y-922D01*
X-1677Y-934D01*
X-1684Y-941D01*
X-1692Y-945D01*
X-1704D01*
X-1711Y-941D01*
X-1719Y-934D01*
X-1736Y-892D02*
Y-945D01*
Y-915D02*
X-1740Y-903D01*
X-1747Y-895D01*
X-1755Y-892D01*
X-1766D01*
X-1457Y-1924D02*
Y-1965D01*
X-1459Y-1972D01*
X-1462Y-1975D01*
X-1467Y-1977D01*
X-1472D01*
X-1477Y-1975D01*
X-1480Y-1972D01*
X-1482Y-1965D01*
Y-1959D01*
X-1440Y-1972D02*
X-1443Y-1975D01*
X-1440Y-1977D01*
X-1438Y-1975D01*
X-1440Y-1972D01*
X-1426Y-1924D02*
Y-1977D01*
Y-1924D02*
X-1391Y-1977D01*
Y-1924D02*
Y-1977D01*
D42*
X-1388Y-2340D02*
Y-2393D01*
X-1406Y-2340D02*
X-1370D01*
X-1334Y-2357D02*
Y-2393D01*
Y-2365D02*
X-1339Y-2360D01*
X-1344Y-2357D01*
X-1351D01*
X-1356Y-2360D01*
X-1362Y-2365D01*
X-1364Y-2373D01*
Y-2378D01*
X-1362Y-2385D01*
X-1356Y-2390D01*
X-1351Y-2393D01*
X-1344D01*
X-1339Y-2390D01*
X-1334Y-2385D01*
X-1289Y-2357D02*
Y-2398D01*
X-1291Y-2406D01*
X-1294Y-2408D01*
X-1299Y-2411D01*
X-1307D01*
X-1312Y-2408D01*
X-1289Y-2365D02*
X-1294Y-2360D01*
X-1299Y-2357D01*
X-1307D01*
X-1312Y-2360D01*
X-1317Y-2365D01*
X-1319Y-2373D01*
Y-2378D01*
X-1317Y-2385D01*
X-1312Y-2390D01*
X-1307Y-2393D01*
X-1299D01*
X-1294Y-2390D01*
X-1289Y-2385D01*
X-1275Y-2350D02*
X-1270Y-2347D01*
X-1262Y-2340D01*
Y-2393D01*
X-1220Y-2340D02*
X-1228Y-2342D01*
X-1233Y-2350D01*
X-1236Y-2363D01*
Y-2370D01*
X-1233Y-2383D01*
X-1228Y-2390D01*
X-1220Y-2393D01*
X-1215D01*
X-1208Y-2390D01*
X-1203Y-2383D01*
X-1200Y-2370D01*
Y-2363D01*
X-1203Y-2350D01*
X-1208Y-2342D01*
X-1215Y-2340D01*
X-1220D01*
X-1186Y-2352D02*
Y-2350D01*
X-1183Y-2345D01*
X-1181Y-2342D01*
X-1175Y-2340D01*
X-1165D01*
X-1160Y-2342D01*
X-1158Y-2345D01*
X-1155Y-2350D01*
Y-2355D01*
X-1158Y-2360D01*
X-1163Y-2368D01*
X-1188Y-2393D01*
X-1153D01*
X-1099Y-2340D02*
Y-2393D01*
Y-2340D02*
X-1076D01*
X-1068Y-2342D01*
X-1066Y-2345D01*
X-1063Y-2350D01*
Y-2355D01*
X-1066Y-2360D01*
X-1068Y-2363D01*
X-1076Y-2365D01*
X-1099D01*
X-1081D02*
X-1063Y-2393D01*
X-1051Y-2373D02*
X-1021D01*
Y-2368D01*
X-1023Y-2363D01*
X-1026Y-2360D01*
X-1031Y-2357D01*
X-1039D01*
X-1044Y-2360D01*
X-1049Y-2365D01*
X-1051Y-2373D01*
Y-2378D01*
X-1049Y-2385D01*
X-1044Y-2390D01*
X-1039Y-2393D01*
X-1031D01*
X-1026Y-2390D01*
X-1021Y-2385D01*
X-1009Y-2357D02*
X-994Y-2393D01*
X-979Y-2357D02*
X-994Y-2393D01*
X-970Y-2350D02*
X-965Y-2347D01*
X-958Y-2340D01*
Y-2393D01*
X-896Y-2340D02*
X-921Y-2393D01*
X-931Y-2340D02*
X-896D01*
X-881Y-2388D02*
X-884Y-2390D01*
X-881Y-2393D01*
X-879Y-2390D01*
X-881Y-2388D01*
X-867Y-2368D02*
X-844D01*
X-836Y-2365D01*
X-834Y-2363D01*
X-831Y-2357D01*
Y-2350D01*
X-834Y-2345D01*
X-836Y-2342D01*
X-844Y-2340D01*
X-867D01*
Y-2393D01*
X-789Y-2365D02*
X-794Y-2360D01*
X-799Y-2357D01*
X-807D01*
X-812Y-2360D01*
X-817Y-2365D01*
X-819Y-2373D01*
Y-2378D01*
X-817Y-2385D01*
X-812Y-2390D01*
X-807Y-2393D01*
X-799D01*
X-794Y-2390D01*
X-789Y-2385D01*
X-778Y-2340D02*
Y-2393D01*
Y-2365D02*
X-772Y-2360D01*
X-767Y-2357D01*
X-760D01*
X-755Y-2360D01*
X-750Y-2365D01*
X-747Y-2373D01*
Y-2378D01*
X-750Y-2385D01*
X-755Y-2390D01*
X-760Y-2393D01*
X-767D01*
X-772Y-2390D01*
X-778Y-2385D01*
X-736Y-2340D02*
Y-2393D01*
Y-2340D02*
X-718D01*
X-710Y-2342D01*
X-705Y-2347D01*
X-703Y-2352D01*
X-700Y-2360D01*
Y-2373D01*
X-703Y-2380D01*
X-705Y-2385D01*
X-710Y-2390D01*
X-718Y-2393D01*
X-736D01*
X-675Y-2357D02*
X-681Y-2360D01*
X-686Y-2365D01*
X-688Y-2373D01*
Y-2378D01*
X-686Y-2385D01*
X-681Y-2390D01*
X-675Y-2393D01*
X-668D01*
X-663Y-2390D01*
X-658Y-2385D01*
X-655Y-2378D01*
Y-2373D01*
X-658Y-2365D01*
X-663Y-2360D01*
X-668Y-2357D01*
X-675D01*
X-613Y-2365D02*
X-618Y-2360D01*
X-623Y-2357D01*
X-631D01*
X-636Y-2360D01*
X-641Y-2365D01*
X-643Y-2373D01*
Y-2378D01*
X-641Y-2385D01*
X-636Y-2390D01*
X-631Y-2393D01*
X-623D01*
X-618Y-2390D01*
X-613Y-2385D01*
X1235Y-2005D02*
Y-2059D01*
Y-2005D02*
X1253D01*
X1260Y-2008D01*
X1265Y-2013D01*
X1268Y-2018D01*
X1270Y-2026D01*
Y-2038D01*
X1268Y-2046D01*
X1265Y-2051D01*
X1260Y-2056D01*
X1253Y-2059D01*
X1235D01*
X1323D02*
X1303Y-2005D01*
X1282Y-2059D01*
X1290Y-2041D02*
X1315D01*
X1353Y-2005D02*
Y-2059D01*
X1335Y-2005D02*
X1371D01*
X1410D02*
X1377D01*
Y-2059D01*
X1410D01*
X1377Y-2031D02*
X1398D01*
X1422Y-2023D02*
X1419Y-2026D01*
X1422Y-2028D01*
X1424Y-2026D01*
X1422Y-2023D01*
Y-2054D02*
X1419Y-2056D01*
X1422Y-2059D01*
X1424Y-2056D01*
X1422Y-2054D01*
X772Y-2005D02*
Y-2059D01*
Y-2005D02*
X795D01*
X803Y-2008D01*
X805Y-2010D01*
X808Y-2016D01*
Y-2021D01*
X805Y-2026D01*
X803Y-2028D01*
X795Y-2031D01*
X772D01*
X790D02*
X808Y-2059D01*
X853Y-2005D02*
X820D01*
Y-2059D01*
X853D01*
X820Y-2031D02*
X840D01*
X862Y-2005D02*
X882Y-2059D01*
X902Y-2005D02*
X882Y-2059D01*
X912Y-2023D02*
X909Y-2026D01*
X912Y-2028D01*
X914Y-2026D01*
X912Y-2023D01*
Y-2054D02*
X909Y-2056D01*
X912Y-2059D01*
X914Y-2056D01*
X912Y-2054D01*
X-1865Y-1758D02*
X-1842D01*
X-1835Y-1756D01*
X-1832Y-1753D01*
X-1830Y-1748D01*
Y-1741D01*
X-1832Y-1735D01*
X-1835Y-1733D01*
X-1842Y-1730D01*
X-1865D01*
Y-1784D01*
X-1818Y-1730D02*
Y-1784D01*
X-1782Y-1730D02*
Y-1784D01*
X-1818Y-1756D02*
X-1782D01*
X-1752Y-1730D02*
X-1757Y-1733D01*
X-1762Y-1738D01*
X-1765Y-1743D01*
X-1767Y-1751D01*
Y-1763D01*
X-1765Y-1771D01*
X-1762Y-1776D01*
X-1757Y-1781D01*
X-1752Y-1784D01*
X-1742D01*
X-1737Y-1781D01*
X-1732Y-1776D01*
X-1729Y-1771D01*
X-1727Y-1763D01*
Y-1751D01*
X-1729Y-1743D01*
X-1732Y-1738D01*
X-1737Y-1733D01*
X-1742Y-1730D01*
X-1752D01*
X-1714D02*
Y-1784D01*
Y-1730D02*
X-1679Y-1784D01*
Y-1730D02*
Y-1784D01*
X-1631Y-1730D02*
X-1664D01*
Y-1784D01*
X-1631D01*
X-1664Y-1756D02*
X-1644D01*
X-1620Y-1748D02*
X-1622Y-1751D01*
X-1620Y-1753D01*
X-1617Y-1751D01*
X-1620Y-1748D01*
Y-1779D02*
X-1622Y-1781D01*
X-1620Y-1784D01*
X-1617Y-1781D01*
X-1620Y-1779D01*
X-1865Y-2133D02*
X-1842D01*
X-1835Y-2131D01*
X-1832Y-2128D01*
X-1830Y-2123D01*
Y-2116D01*
X-1832Y-2110D01*
X-1835Y-2108D01*
X-1842Y-2105D01*
X-1865D01*
Y-2159D01*
X-1818Y-2105D02*
Y-2159D01*
X-1782Y-2105D02*
Y-2159D01*
X-1818Y-2131D02*
X-1782D01*
X-1752Y-2105D02*
X-1757Y-2108D01*
X-1762Y-2113D01*
X-1765Y-2118D01*
X-1767Y-2126D01*
Y-2138D01*
X-1765Y-2146D01*
X-1762Y-2151D01*
X-1757Y-2156D01*
X-1752Y-2159D01*
X-1742D01*
X-1737Y-2156D01*
X-1732Y-2151D01*
X-1729Y-2146D01*
X-1727Y-2138D01*
Y-2126D01*
X-1729Y-2118D01*
X-1732Y-2113D01*
X-1737Y-2108D01*
X-1742Y-2105D01*
X-1752D01*
X-1714D02*
Y-2159D01*
Y-2105D02*
X-1679Y-2159D01*
Y-2105D02*
Y-2159D01*
X-1631Y-2105D02*
X-1664D01*
Y-2159D01*
X-1631D01*
X-1664Y-2131D02*
X-1644D01*
X-1620Y-2123D02*
X-1622Y-2126D01*
X-1620Y-2128D01*
X-1617Y-2126D01*
X-1620Y-2123D01*
Y-2154D02*
X-1622Y-2156D01*
X-1620Y-2159D01*
X-1617Y-2156D01*
X-1620Y-2154D01*
X-25Y-2283D02*
Y-2336D01*
X5D01*
X52D02*
X32Y-2283D01*
X11Y-2336D01*
X19Y-2318D02*
X44D01*
X64Y-2283D02*
X85Y-2308D01*
Y-2336D01*
X105Y-2283D02*
X85Y-2308D01*
X145Y-2283D02*
X112D01*
Y-2336D01*
X145D01*
X112Y-2308D02*
X132D01*
X154Y-2283D02*
Y-2336D01*
Y-2283D02*
X177D01*
X184Y-2285D01*
X187Y-2288D01*
X189Y-2293D01*
Y-2298D01*
X187Y-2303D01*
X184Y-2306D01*
X177Y-2308D01*
X154D01*
X171D02*
X189Y-2336D01*
X204Y-2301D02*
X201Y-2303D01*
X204Y-2306D01*
X206Y-2303D01*
X204Y-2301D01*
Y-2331D02*
X201Y-2334D01*
X204Y-2336D01*
X206Y-2334D01*
X204Y-2331D01*
X-1832Y-1543D02*
X-1865D01*
Y-1596D01*
X-1832D01*
X-1865Y-1568D02*
X-1845D01*
X-1823Y-1543D02*
Y-1596D01*
Y-1543D02*
X-1788Y-1596D01*
Y-1543D02*
Y-1596D01*
X-1735Y-1556D02*
X-1737Y-1550D01*
X-1742Y-1545D01*
X-1748Y-1543D01*
X-1758D01*
X-1763Y-1545D01*
X-1768Y-1550D01*
X-1770Y-1556D01*
X-1773Y-1563D01*
Y-1576D01*
X-1770Y-1583D01*
X-1768Y-1589D01*
X-1763Y-1594D01*
X-1758Y-1596D01*
X-1748D01*
X-1742Y-1594D01*
X-1737Y-1589D01*
X-1735Y-1583D01*
Y-1576D01*
X-1748D02*
X-1735D01*
X-1723Y-1543D02*
Y-1596D01*
X-1711Y-1543D02*
Y-1596D01*
Y-1543D02*
X-1676Y-1596D01*
Y-1543D02*
Y-1596D01*
X-1628Y-1543D02*
X-1661D01*
Y-1596D01*
X-1628D01*
X-1661Y-1568D02*
X-1641D01*
X-1586Y-1543D02*
X-1619D01*
Y-1596D01*
X-1586D01*
X-1619Y-1568D02*
X-1599D01*
X-1577Y-1543D02*
Y-1596D01*
Y-1543D02*
X-1555D01*
X-1547Y-1545D01*
X-1544Y-1548D01*
X-1542Y-1553D01*
Y-1558D01*
X-1544Y-1563D01*
X-1547Y-1566D01*
X-1555Y-1568D01*
X-1577D01*
X-1560D02*
X-1542Y-1596D01*
X-1527Y-1561D02*
X-1530Y-1563D01*
X-1527Y-1566D01*
X-1525Y-1563D01*
X-1527Y-1561D01*
Y-1591D02*
X-1530Y-1594D01*
X-1527Y-1596D01*
X-1525Y-1594D01*
X-1527Y-1591D01*
X-965Y-2033D02*
X-942D01*
X-935Y-2031D01*
X-932Y-2028D01*
X-930Y-2023D01*
Y-2016D01*
X-932Y-2010D01*
X-935Y-2008D01*
X-942Y-2005D01*
X-965D01*
Y-2059D01*
X-877D02*
X-897Y-2005D01*
X-918Y-2059D01*
X-910Y-2041D02*
X-885D01*
X-865Y-2005D02*
Y-2059D01*
Y-2005D02*
X-842D01*
X-834Y-2008D01*
X-832Y-2010D01*
X-829Y-2016D01*
Y-2021D01*
X-832Y-2026D01*
X-834Y-2028D01*
X-842Y-2031D01*
X-865D01*
X-847D02*
X-829Y-2059D01*
X-799Y-2005D02*
Y-2059D01*
X-817Y-2005D02*
X-781D01*
X-733D02*
Y-2059D01*
Y-2005D02*
X-698Y-2059D01*
Y-2005D02*
Y-2059D01*
X-668Y-2005D02*
X-673Y-2008D01*
X-678Y-2013D01*
X-680Y-2018D01*
X-683Y-2026D01*
Y-2038D01*
X-680Y-2046D01*
X-678Y-2051D01*
X-673Y-2056D01*
X-668Y-2059D01*
X-658D01*
X-653Y-2056D01*
X-647Y-2051D01*
X-645Y-2046D01*
X-642Y-2038D01*
Y-2026D01*
X-645Y-2018D01*
X-647Y-2013D01*
X-653Y-2008D01*
X-658Y-2005D01*
X-668D01*
X-627Y-2054D02*
X-630Y-2056D01*
X-627Y-2059D01*
X-625Y-2056D01*
X-627Y-2054D01*
X-611Y-2023D02*
X-613Y-2026D01*
X-611Y-2028D01*
X-608Y-2026D01*
X-611Y-2023D01*
Y-2054D02*
X-613Y-2056D01*
X-611Y-2059D01*
X-608Y-2056D01*
X-611Y-2054D01*
X-960Y-1530D02*
Y-1584D01*
X-978Y-1530D02*
X-942D01*
X-936D02*
Y-1584D01*
X-907Y-1530D02*
Y-1584D01*
X-925Y-1530D02*
X-889D01*
X-883D02*
Y-1584D01*
X-852D01*
X-813Y-1530D02*
X-846D01*
Y-1584D01*
X-813D01*
X-846Y-1556D02*
X-826D01*
X-802Y-1548D02*
X-804Y-1551D01*
X-802Y-1553D01*
X-799Y-1551D01*
X-802Y-1548D01*
Y-1579D02*
X-804Y-1581D01*
X-802Y-1584D01*
X-799Y-1581D01*
X-802Y-1579D01*
X-1865Y-1923D02*
Y-1976D01*
Y-1923D02*
X-1847D01*
X-1840Y-1925D01*
X-1835Y-1930D01*
X-1832Y-1936D01*
X-1830Y-1943D01*
Y-1956D01*
X-1832Y-1963D01*
X-1835Y-1969D01*
X-1840Y-1974D01*
X-1847Y-1976D01*
X-1865D01*
X-1818Y-1941D02*
Y-1976D01*
Y-1956D02*
X-1815Y-1948D01*
X-1810Y-1943D01*
X-1805Y-1941D01*
X-1797D01*
X-1762D02*
Y-1976D01*
Y-1948D02*
X-1767Y-1943D01*
X-1772Y-1941D01*
X-1780D01*
X-1785Y-1943D01*
X-1790Y-1948D01*
X-1792Y-1956D01*
Y-1961D01*
X-1790Y-1969D01*
X-1785Y-1974D01*
X-1780Y-1976D01*
X-1772D01*
X-1767Y-1974D01*
X-1762Y-1969D01*
X-1748Y-1941D02*
X-1738Y-1976D01*
X-1727Y-1941D02*
X-1738Y-1976D01*
X-1727Y-1941D02*
X-1717Y-1976D01*
X-1707Y-1941D02*
X-1717Y-1976D01*
X-1695Y-1941D02*
Y-1976D01*
Y-1951D02*
X-1687Y-1943D01*
X-1682Y-1941D01*
X-1674D01*
X-1669Y-1943D01*
X-1667Y-1951D01*
Y-1976D01*
X-1611Y-1923D02*
Y-1976D01*
Y-1948D02*
X-1606Y-1943D01*
X-1601Y-1941D01*
X-1593D01*
X-1588Y-1943D01*
X-1583Y-1948D01*
X-1580Y-1956D01*
Y-1961D01*
X-1583Y-1969D01*
X-1588Y-1974D01*
X-1593Y-1976D01*
X-1601D01*
X-1606Y-1974D01*
X-1611Y-1969D01*
X-1566Y-1941D02*
X-1551Y-1976D01*
X-1536Y-1941D02*
X-1551Y-1976D01*
X-1556Y-1986D01*
X-1561Y-1991D01*
X-1566Y-1994D01*
X-1569D01*
X-1525Y-1941D02*
X-1527Y-1943D01*
X-1525Y-1946D01*
X-1522Y-1943D01*
X-1525Y-1941D01*
Y-1971D02*
X-1527Y-1974D01*
X-1525Y-1976D01*
X-1522Y-1974D01*
X-1525Y-1971D01*
X-1865Y-2283D02*
Y-2336D01*
Y-2283D02*
X-1832D01*
X-1865Y-2308D02*
X-1845D01*
X-1826Y-2283D02*
Y-2336D01*
X-1815Y-2283D02*
Y-2336D01*
X-1784D01*
X-1745Y-2283D02*
X-1778D01*
Y-2336D01*
X-1745D01*
X-1778Y-2308D02*
X-1758D01*
X-1695Y-2283D02*
Y-2336D01*
Y-2283D02*
X-1659Y-2336D01*
Y-2283D02*
Y-2336D01*
X-1604D02*
X-1624Y-2283D01*
X-1644Y-2336D01*
X-1637Y-2318D02*
X-1611D01*
X-1591Y-2283D02*
Y-2336D01*
Y-2283D02*
X-1571Y-2336D01*
X-1551Y-2283D02*
X-1571Y-2336D01*
X-1551Y-2283D02*
Y-2336D01*
X-1502Y-2283D02*
X-1535D01*
Y-2336D01*
X-1502D01*
X-1535Y-2308D02*
X-1515D01*
X-1491Y-2301D02*
X-1494Y-2303D01*
X-1491Y-2306D01*
X-1489Y-2303D01*
X-1491Y-2301D01*
Y-2331D02*
X-1494Y-2334D01*
X-1491Y-2336D01*
X-1489Y-2334D01*
X-1491Y-2331D01*
X1833Y-2296D02*
X1830Y-2290D01*
X1825Y-2285D01*
X1820Y-2283D01*
X1810D01*
X1805Y-2285D01*
X1800Y-2290D01*
X1797Y-2296D01*
X1795Y-2303D01*
Y-2316D01*
X1797Y-2323D01*
X1800Y-2329D01*
X1805Y-2334D01*
X1810Y-2336D01*
X1820D01*
X1825Y-2334D01*
X1830Y-2329D01*
X1833Y-2323D01*
Y-2316D01*
X1820D02*
X1833D01*
X1878Y-2283D02*
X1845D01*
Y-2336D01*
X1878D01*
X1845Y-2308D02*
X1866D01*
X1887Y-2283D02*
Y-2336D01*
Y-2283D02*
X1910D01*
X1918Y-2285D01*
X1920Y-2288D01*
X1923Y-2293D01*
Y-2298D01*
X1920Y-2303D01*
X1918Y-2306D01*
X1910Y-2308D01*
X1887D01*
X1905D02*
X1923Y-2336D01*
X1935Y-2283D02*
Y-2336D01*
Y-2283D02*
X1957D01*
X1965Y-2285D01*
X1968Y-2288D01*
X1970Y-2293D01*
Y-2298D01*
X1968Y-2303D01*
X1965Y-2306D01*
X1957Y-2308D01*
X1935D02*
X1957D01*
X1965Y-2311D01*
X1968Y-2313D01*
X1970Y-2318D01*
Y-2326D01*
X1968Y-2331D01*
X1965Y-2334D01*
X1957Y-2336D01*
X1935D01*
X2015Y-2283D02*
X1982D01*
Y-2336D01*
X2015D01*
X1982Y-2308D02*
X2002D01*
X2024Y-2283D02*
Y-2336D01*
Y-2283D02*
X2047D01*
X2054Y-2285D01*
X2057Y-2288D01*
X2059Y-2293D01*
Y-2298D01*
X2057Y-2303D01*
X2054Y-2306D01*
X2047Y-2308D01*
X2024D01*
X2042D02*
X2059Y-2336D01*
X2074Y-2301D02*
X2071Y-2303D01*
X2074Y-2306D01*
X2077Y-2303D01*
X2074Y-2301D01*
Y-2331D02*
X2071Y-2334D01*
X2074Y-2336D01*
X2077Y-2334D01*
X2074Y-2331D01*
D43*
X1655Y-2058D02*
X1683D01*
X1667Y-2079D01*
X1675D01*
X1680Y-2081D01*
X1683Y-2084D01*
X1685Y-2091D01*
Y-2096D01*
X1683Y-2104D01*
X1678Y-2109D01*
X1670Y-2112D01*
X1662D01*
X1655Y-2109D01*
X1652Y-2107D01*
X1650Y-2101D01*
X1697Y-2119D02*
X1733Y-2058D01*
X1739Y-2071D02*
Y-2068D01*
X1741Y-2063D01*
X1744Y-2061D01*
X1749Y-2058D01*
X1759D01*
X1764Y-2061D01*
X1767Y-2063D01*
X1769Y-2068D01*
Y-2074D01*
X1767Y-2079D01*
X1762Y-2086D01*
X1736Y-2112D01*
X1772D01*
X1819Y-2058D02*
X1794Y-2112D01*
X1784Y-2058D02*
X1819D01*
X1831Y-2119D02*
X1867Y-2058D01*
X1873Y-2071D02*
Y-2068D01*
X1875Y-2063D01*
X1878Y-2061D01*
X1883Y-2058D01*
X1893D01*
X1898Y-2061D01*
X1901Y-2063D01*
X1903Y-2068D01*
Y-2074D01*
X1901Y-2079D01*
X1896Y-2086D01*
X1870Y-2112D01*
X1906D01*
X1933Y-2058D02*
X1925Y-2061D01*
X1920Y-2068D01*
X1918Y-2081D01*
Y-2089D01*
X1920Y-2101D01*
X1925Y-2109D01*
X1933Y-2112D01*
X1938D01*
X1946Y-2109D01*
X1951Y-2101D01*
X1953Y-2089D01*
Y-2081D01*
X1951Y-2068D01*
X1946Y-2061D01*
X1938Y-2058D01*
X1933D01*
X1981D02*
X1973Y-2061D01*
X1968Y-2068D01*
X1965Y-2081D01*
Y-2089D01*
X1968Y-2101D01*
X1973Y-2109D01*
X1981Y-2112D01*
X1986D01*
X1993Y-2109D01*
X1998Y-2101D01*
X2001Y-2089D01*
Y-2081D01*
X1998Y-2068D01*
X1993Y-2061D01*
X1986Y-2058D01*
X1981D01*
X2046Y-2076D02*
X2043Y-2084D01*
X2038Y-2089D01*
X2031Y-2091D01*
X2028D01*
X2020Y-2089D01*
X2015Y-2084D01*
X2013Y-2076D01*
Y-2074D01*
X2015Y-2066D01*
X2020Y-2061D01*
X2028Y-2058D01*
X2031D01*
X2038Y-2061D01*
X2043Y-2066D01*
X2046Y-2076D01*
Y-2089D01*
X2043Y-2101D01*
X2038Y-2109D01*
X2031Y-2112D01*
X2025D01*
X2018Y-2109D01*
X2015Y-2104D01*
X947Y-2091D02*
X952Y-2088D01*
X960Y-2080D01*
Y-2134D01*
X1022Y-2080D02*
X997Y-2134D01*
X987Y-2080D02*
X1022D01*
X-762Y-1391D02*
X-799Y-1295D01*
X-835Y-1391D01*
X-821Y-1359D02*
X-776D01*
X-685Y-1341D02*
X-694Y-1332D01*
X-703Y-1327D01*
X-717D01*
X-726Y-1332D01*
X-735Y-1341D01*
X-740Y-1355D01*
Y-1364D01*
X-735Y-1377D01*
X-726Y-1387D01*
X-717Y-1391D01*
X-703D01*
X-694Y-1387D01*
X-685Y-1377D01*
X-650Y-1295D02*
Y-1373D01*
X-646Y-1387D01*
X-637Y-1391D01*
X-628D01*
X-664Y-1327D02*
X-632D01*
X-605Y-1295D02*
X-600Y-1300D01*
X-596Y-1295D01*
X-600Y-1291D01*
X-605Y-1295D01*
X-600Y-1327D02*
Y-1391D01*
X-579Y-1327D02*
X-551Y-1391D01*
X-524Y-1327D02*
X-551Y-1391D01*
X-508Y-1355D02*
X-453D01*
Y-1345D01*
X-458Y-1336D01*
X-463Y-1332D01*
X-472Y-1327D01*
X-485D01*
X-495Y-1332D01*
X-504Y-1341D01*
X-508Y-1355D01*
Y-1364D01*
X-504Y-1377D01*
X-495Y-1387D01*
X-485Y-1391D01*
X-472D01*
X-463Y-1387D01*
X-453Y-1377D01*
X-357Y-1295D02*
X-335Y-1391D01*
X-312Y-1295D02*
X-335Y-1391D01*
X-312Y-1295D02*
X-289Y-1391D01*
X-266Y-1295D02*
X-289Y-1391D01*
X-192Y-1327D02*
Y-1391D01*
Y-1341D02*
X-201Y-1332D01*
X-210Y-1327D01*
X-224D01*
X-233Y-1332D01*
X-242Y-1341D01*
X-247Y-1355D01*
Y-1364D01*
X-242Y-1377D01*
X-233Y-1387D01*
X-224Y-1391D01*
X-210D01*
X-201Y-1387D01*
X-192Y-1377D01*
X-166Y-1327D02*
X-139Y-1391D01*
X-112Y-1327D02*
X-139Y-1391D01*
X-96Y-1355D02*
X-41D01*
Y-1345D01*
X-46Y-1336D01*
X-50Y-1332D01*
X-59Y-1327D01*
X-73D01*
X-82Y-1332D01*
X-91Y-1341D01*
X-96Y-1355D01*
Y-1364D01*
X-91Y-1377D01*
X-82Y-1387D01*
X-73Y-1391D01*
X-59D01*
X-50Y-1387D01*
X-41Y-1377D01*
X-165Y-1658D02*
Y-1754D01*
X-197Y-1658D02*
X-133D01*
X-67Y-1690D02*
Y-1754D01*
Y-1704D02*
X-76Y-1695D01*
X-85Y-1690D01*
X-99D01*
X-108Y-1695D01*
X-117Y-1704D01*
X-122Y-1717D01*
Y-1727D01*
X-117Y-1740D01*
X-108Y-1749D01*
X-99Y-1754D01*
X-85D01*
X-76Y-1749D01*
X-67Y-1740D01*
X14Y-1690D02*
Y-1763D01*
X9Y-1777D01*
X5Y-1781D01*
X-5Y-1786D01*
X-18D01*
X-27Y-1781D01*
X14Y-1704D02*
X5Y-1695D01*
X-5Y-1690D01*
X-18D01*
X-27Y-1695D01*
X-37Y-1704D01*
X-41Y-1717D01*
Y-1727D01*
X-37Y-1740D01*
X-27Y-1749D01*
X-18Y-1754D01*
X-5D01*
X5Y-1749D01*
X14Y-1740D01*
X39Y-1676D02*
X48Y-1672D01*
X62Y-1658D01*
Y-1754D01*
X137Y-1658D02*
X123Y-1663D01*
X114Y-1676D01*
X110Y-1699D01*
Y-1713D01*
X114Y-1736D01*
X123Y-1749D01*
X137Y-1754D01*
X146D01*
X160Y-1749D01*
X169Y-1736D01*
X174Y-1713D01*
Y-1699D01*
X169Y-1676D01*
X160Y-1663D01*
X146Y-1658D01*
X137D01*
X200Y-1681D02*
Y-1676D01*
X204Y-1667D01*
X209Y-1663D01*
X218Y-1658D01*
X236D01*
X245Y-1663D01*
X250Y-1667D01*
X255Y-1676D01*
Y-1685D01*
X250Y-1695D01*
X241Y-1708D01*
X195Y-1754D01*
X259D01*
D47*
X-538Y-196D02*
D03*
X-438D02*
D03*
X-637D02*
D03*
X-738D02*
D03*
D49*
X-702Y30D02*
D03*
X-72Y25D02*
D03*
D50*
X-338Y-196D02*
D03*
D62*
X-1521Y-112D02*
D03*
X-1031Y-250D02*
D03*
X-951Y-243D02*
D03*
X-1308Y-156D02*
D03*
X-1075Y-59D02*
D03*
X-1156Y-195D02*
D03*
X-1196Y-63D02*
D03*
X-1327Y-41D02*
D03*
X-1369Y113D02*
D03*
D82*
X-1787Y-725D02*
D03*
D83*
X-837Y-676D02*
D03*
D84*
X-1765Y49D02*
D03*
X-838Y64D02*
D03*
D85*
X-417Y-677D02*
D03*
D86*
X-990Y-520D02*
D03*
X-621Y-280D02*
D03*
X-641Y-424D02*
D03*
X-1330Y-80D02*
D03*
X-1275Y-120D02*
D03*
X-220Y-445D02*
D03*
X-180Y-285D02*
D03*
D87*
X-1287Y-724D02*
D03*
D88*
X-1765Y49D02*
D03*
D89*
X-1171Y-650D02*
D03*
X-919D02*
D03*
D90*
X-387Y110D02*
D03*
D91*
Y-414D02*
D03*
D92*
X-1690Y-349D02*
D03*
X-1265D02*
D03*
X-1690Y-601D02*
D03*
X-1265D02*
D03*
M02*
