%FSLAX23Y23*%
%MOIN*%
G70*
G01*
G75*
G04 Layer_Physical_Order=2*
G04 Layer_Color=16711680*
%ADD10C,0.030*%
%ADD11R,0.030X0.030*%
%ADD12R,0.074X0.045*%
%ADD13C,0.040*%
%ADD14R,0.020X0.050*%
%ADD15O,0.016X0.060*%
%ADD16R,0.024X0.024*%
%ADD17O,0.016X0.060*%
%ADD18R,0.030X0.030*%
%ADD19R,0.024X0.100*%
%ADD20R,0.024X0.090*%
%ADD21R,0.070X0.024*%
%ADD22R,0.090X0.024*%
%ADD23O,0.024X0.080*%
%ADD24R,0.075X0.043*%
%ADD25R,0.014X0.035*%
%ADD26R,0.014X0.035*%
%ADD27R,0.050X0.036*%
%ADD28R,0.036X0.036*%
%ADD29R,0.036X0.036*%
%ADD30R,0.036X0.050*%
%ADD31R,0.063X0.051*%
%ADD32R,0.080X0.060*%
%ADD33C,0.010*%
%ADD34C,0.014*%
%ADD35C,0.006*%
%ADD36C,0.016*%
%ADD37C,0.015*%
%ADD38C,0.025*%
%ADD39C,0.012*%
%ADD40C,0.008*%
%ADD41C,0.020*%
%ADD42C,0.005*%
%ADD43C,0.009*%
%ADD44C,0.062*%
%ADD45R,0.062X0.062*%
%ADD46O,0.040X0.060*%
%ADD47C,0.070*%
%ADD48C,0.122*%
%ADD49C,0.028*%
%ADD50R,0.070X0.070*%
%ADD51R,0.067X0.091*%
%ADD52C,0.020*%
%ADD53R,0.200X0.100*%
%ADD54R,0.160X0.180*%
%ADD55R,0.098X0.138*%
%ADD56C,0.032*%
G36*
X-613Y41D02*
X-714Y-60D01*
X-755D01*
Y-31D01*
X-782D01*
Y82D01*
X-613D01*
Y41D01*
D02*
G37*
G36*
X7Y-34D02*
X-9D01*
Y-85D01*
X-17D01*
X-127Y25D01*
X-158D01*
Y72D01*
X7D01*
Y-34D01*
D02*
G37*
G36*
X-778Y120D02*
X-778Y89D01*
X-782D01*
X-785Y89D01*
X-787Y87D01*
X-789Y85D01*
X-789Y82D01*
Y80D01*
X-791Y76D01*
X-792Y74D01*
X-797Y74D01*
X-797Y75D01*
X-801Y85D01*
X-808Y94D01*
X-817Y101D01*
X-827Y105D01*
X-838Y106D01*
X-849Y105D01*
X-859Y101D01*
X-868Y94D01*
X-875Y85D01*
X-879Y75D01*
X-880Y64D01*
X-879Y53D01*
X-875Y43D01*
X-868Y34D01*
X-859Y27D01*
X-849Y23D01*
X-838Y22D01*
X-827Y23D01*
X-817Y27D01*
X-808Y34D01*
X-801Y43D01*
X-797Y53D01*
X-792Y52D01*
Y-34D01*
X-792Y-34D01*
X-792D01*
X-791Y-38D01*
X-789Y-42D01*
X-785Y-44D01*
X-781Y-45D01*
X-778Y-48D01*
X-778Y-234D01*
X-763D01*
Y-290D01*
X-778D01*
X-778Y-550D01*
X-782Y-553D01*
X-907D01*
X-915Y-552D01*
X-923Y-553D01*
X-930Y-558D01*
X-935Y-565D01*
X-936Y-573D01*
X-935Y-581D01*
X-930Y-588D01*
X-923Y-593D01*
X-924Y-598D01*
X-959D01*
Y-702D01*
X-879D01*
Y-637D01*
X-874Y-632D01*
X-778D01*
X-778Y-724D01*
X-782Y-728D01*
X-1190D01*
X-1236Y-681D01*
X-1235Y-677D01*
X-1209D01*
Y-525D01*
X-1321D01*
Y-677D01*
X-1275D01*
X-1274Y-679D01*
X-1229Y-723D01*
X-1231Y-728D01*
X-1256D01*
X-1260Y-724D01*
X-1260Y-724D01*
X-1261Y-717D01*
X-1263Y-710D01*
X-1268Y-705D01*
X-1273Y-700D01*
X-1280Y-698D01*
X-1287Y-697D01*
X-1294Y-698D01*
X-1301Y-700D01*
X-1305Y-704D01*
X-1528D01*
X-1547Y-685D01*
Y-647D01*
X-1549Y-639D01*
X-1553Y-633D01*
X-1559Y-627D01*
X-1553Y-621D01*
X-1549Y-615D01*
X-1547Y-607D01*
Y-497D01*
X-1546Y-489D01*
X-1547Y-481D01*
X-1552Y-474D01*
X-1559Y-469D01*
X-1567Y-468D01*
X-1575Y-469D01*
X-1582Y-474D01*
X-1587Y-481D01*
X-1588Y-489D01*
X-1587Y-497D01*
Y-599D01*
X-1594Y-606D01*
X-1634D01*
Y-525D01*
X-1746D01*
Y-639D01*
X-1842D01*
Y-319D01*
X-1746D01*
Y-425D01*
X-1634D01*
Y-273D01*
X-1728D01*
Y-169D01*
X-1743D01*
Y-109D01*
X-1658D01*
Y-39D01*
X-1703Y6D01*
X-1703Y123D01*
X-1392D01*
X-1389Y119D01*
X-1390Y113D01*
X-1389Y105D01*
X-1384Y98D01*
X-1377Y93D01*
X-1369Y92D01*
X-1361Y93D01*
X-1354Y98D01*
X-1349Y105D01*
X-1348Y113D01*
X-1349Y121D01*
X-1348Y123D01*
X-782D01*
X-778Y120D01*
D02*
G37*
%LPC*%
G36*
X-1555Y-205D02*
X-1563Y-206D01*
X-1570Y-211D01*
X-1575Y-218D01*
X-1576Y-226D01*
X-1575Y-234D01*
X-1570Y-241D01*
X-1567Y-243D01*
Y-297D01*
X-1566Y-302D01*
X-1564Y-306D01*
X-1556Y-313D01*
Y-331D01*
X-1559Y-333D01*
X-1564Y-340D01*
X-1565Y-348D01*
X-1564Y-356D01*
X-1559Y-363D01*
X-1552Y-368D01*
X-1544Y-369D01*
X-1536Y-368D01*
X-1529Y-363D01*
X-1524Y-356D01*
X-1523Y-348D01*
X-1524Y-340D01*
X-1529Y-333D01*
X-1532Y-331D01*
Y-308D01*
X-1533Y-303D01*
X-1535Y-299D01*
X-1543Y-292D01*
Y-243D01*
X-1540Y-241D01*
X-1535Y-234D01*
X-1534Y-226D01*
X-1535Y-218D01*
X-1540Y-211D01*
X-1547Y-206D01*
X-1555Y-205D01*
D02*
G37*
G36*
X-1417Y-239D02*
X-1425Y-240D01*
X-1432Y-245D01*
X-1437Y-252D01*
X-1438Y-260D01*
X-1437Y-268D01*
X-1432Y-275D01*
X-1429Y-277D01*
Y-405D01*
X-1428Y-410D01*
X-1426Y-414D01*
X-1379Y-461D01*
X-1375Y-463D01*
X-1370Y-464D01*
X-1280D01*
X-1278Y-467D01*
X-1271Y-472D01*
X-1263Y-473D01*
X-1255Y-472D01*
X-1248Y-467D01*
X-1243Y-460D01*
X-1242Y-452D01*
X-1243Y-444D01*
X-1248Y-437D01*
X-1255Y-432D01*
X-1263Y-431D01*
X-1271Y-432D01*
X-1278Y-437D01*
X-1280Y-440D01*
X-1365D01*
X-1405Y-400D01*
Y-277D01*
X-1402Y-275D01*
X-1397Y-268D01*
X-1396Y-260D01*
X-1397Y-252D01*
X-1402Y-245D01*
X-1409Y-240D01*
X-1417Y-239D01*
D02*
G37*
G36*
X-1521Y-91D02*
X-1529Y-92D01*
X-1536Y-97D01*
X-1541Y-104D01*
X-1542Y-112D01*
X-1541Y-120D01*
X-1536Y-127D01*
X-1529Y-132D01*
X-1521Y-133D01*
X-1513Y-132D01*
X-1506Y-127D01*
X-1501Y-120D01*
X-1500Y-112D01*
X-1501Y-104D01*
X-1506Y-97D01*
X-1513Y-92D01*
X-1521Y-91D01*
D02*
G37*
G36*
X-1420Y113D02*
X-1428Y112D01*
X-1435Y107D01*
X-1437Y104D01*
X-1509D01*
X-1516Y109D01*
X-1524Y110D01*
X-1532Y109D01*
X-1539Y104D01*
X-1544Y97D01*
X-1545Y89D01*
X-1544Y81D01*
X-1539Y74D01*
X-1532Y69D01*
X-1524Y68D01*
X-1521Y68D01*
X-1511Y59D01*
Y25D01*
X-1516Y23D01*
X-1517Y25D01*
X-1521Y27D01*
X-1526Y28D01*
X-1585D01*
X-1587Y31D01*
X-1594Y36D01*
X-1602Y37D01*
X-1610Y36D01*
X-1617Y31D01*
X-1622Y24D01*
X-1623Y16D01*
X-1622Y8D01*
X-1617Y1D01*
X-1610Y-4D01*
X-1602Y-5D01*
X-1594Y-4D01*
X-1587Y1D01*
X-1585Y4D01*
X-1531D01*
Y-17D01*
X-1530Y-22D01*
X-1528Y-26D01*
X-1498Y-56D01*
X-1494Y-58D01*
X-1489Y-59D01*
X-1470D01*
X-1463Y-66D01*
Y-81D01*
X-1466Y-83D01*
X-1471Y-90D01*
X-1472Y-98D01*
X-1471Y-106D01*
X-1466Y-113D01*
X-1459Y-118D01*
X-1451Y-119D01*
X-1443Y-118D01*
X-1436Y-113D01*
X-1431Y-106D01*
X-1430Y-98D01*
X-1431Y-90D01*
X-1436Y-83D01*
X-1439Y-81D01*
Y-61D01*
X-1440Y-56D01*
X-1442Y-52D01*
X-1449Y-46D01*
X-1447Y-41D01*
X-1378D01*
X-1371Y-48D01*
Y-197D01*
X-1370Y-202D01*
X-1368Y-206D01*
X-1344Y-230D01*
X-1340Y-232D01*
X-1335Y-233D01*
X-1241D01*
X-1199Y-275D01*
X-1200Y-280D01*
X-1202Y-282D01*
X-1204Y-285D01*
X-1209Y-283D01*
Y-273D01*
X-1321D01*
Y-425D01*
X-1209D01*
Y-311D01*
X-1204Y-309D01*
X-1202Y-312D01*
X-1195Y-317D01*
X-1187Y-318D01*
X-1183Y-318D01*
X-1160Y-341D01*
X-1156Y-343D01*
X-1151Y-344D01*
X-1031D01*
X-1029Y-347D01*
X-1022Y-352D01*
X-1014Y-353D01*
X-1006Y-352D01*
X-999Y-347D01*
X-994Y-340D01*
X-993Y-332D01*
X-994Y-324D01*
X-999Y-317D01*
X-999Y-316D01*
X-908D01*
X-898Y-326D01*
Y-340D01*
X-901Y-342D01*
X-906Y-349D01*
X-907Y-357D01*
X-906Y-365D01*
X-901Y-372D01*
X-894Y-377D01*
X-886Y-378D01*
X-878Y-377D01*
X-875Y-375D01*
X-870Y-377D01*
Y-382D01*
X-926Y-438D01*
X-1030D01*
X-1033Y-434D01*
X-1040Y-429D01*
X-1048Y-428D01*
X-1056Y-429D01*
X-1063Y-434D01*
X-1068Y-441D01*
X-1069Y-449D01*
X-1068Y-457D01*
X-1063Y-464D01*
X-1056Y-469D01*
X-1048Y-470D01*
X-1040Y-469D01*
X-1033Y-464D01*
X-1030Y-460D01*
X-1013D01*
X-1011Y-465D01*
X-1033Y-487D01*
X-1035Y-491D01*
X-1036Y-495D01*
X-1036Y-495D01*
Y-520D01*
X-1080Y-565D01*
X-1085Y-564D01*
X-1093Y-565D01*
X-1100Y-570D01*
X-1105Y-577D01*
X-1106Y-585D01*
X-1105Y-593D01*
X-1100Y-600D01*
X-1093Y-605D01*
X-1085Y-606D01*
X-1077Y-605D01*
X-1070Y-600D01*
X-1065Y-593D01*
X-1064Y-585D01*
X-1065Y-580D01*
X-1017Y-533D01*
X-1017Y-533D01*
X-1015Y-529D01*
X-1014Y-525D01*
X-1014Y-525D01*
Y-500D01*
X-995Y-481D01*
X-921D01*
X-920Y-482D01*
X-915Y-481D01*
X-912Y-478D01*
X-833Y-400D01*
X-833Y-400D01*
X-831Y-396D01*
X-830Y-392D01*
Y-289D01*
X-830Y-289D01*
X-831Y-284D01*
X-833Y-281D01*
X-833Y-281D01*
X-1028Y-86D01*
Y-57D01*
X-1028Y-57D01*
X-1029Y-53D01*
X-1029D01*
D01*
D01*
X-1029Y-53D01*
D01*
D01*
D01*
D01*
X-1029Y-53D01*
D01*
D01*
Y-53D01*
D01*
X-1029D01*
D01*
D01*
X-1029D01*
D01*
D01*
X-1031Y-49D01*
X-1031Y-49D01*
X-1059Y-21D01*
X-1057Y-16D01*
X-1010D01*
X-1010Y-16D01*
X-1006Y-15D01*
X-1002Y-13D01*
X-990Y-0D01*
X-985Y-1D01*
X-977Y0D01*
X-970Y5D01*
X-965Y12D01*
X-964Y20D01*
X-965Y28D01*
X-970Y35D01*
X-977Y40D01*
X-985Y41D01*
X-993Y40D01*
X-1000Y35D01*
X-1005Y28D01*
X-1006Y20D01*
X-1005Y15D01*
X-1015Y6D01*
X-1200D01*
X-1217Y23D01*
X-1221Y25D01*
X-1225Y26D01*
X-1225Y26D01*
X-1292D01*
X-1292Y26D01*
X-1296Y25D01*
X-1300Y23D01*
X-1300Y23D01*
X-1313Y10D01*
X-1315Y6D01*
X-1316Y2D01*
X-1316Y2D01*
Y-18D01*
X-1320Y-21D01*
X-1327Y-20D01*
X-1335Y-21D01*
X-1342Y-26D01*
X-1347Y-33D01*
X-1347Y-33D01*
X-1353Y-32D01*
X-1364Y-20D01*
X-1368Y-18D01*
X-1373Y-17D01*
X-1472D01*
X-1487Y-2D01*
Y64D01*
X-1488Y69D01*
X-1490Y73D01*
X-1490Y73D01*
D01*
D01*
D01*
D01*
X-1490Y73D01*
X-1490D01*
X-1493Y75D01*
X-1491Y80D01*
X-1437D01*
X-1435Y77D01*
X-1428Y72D01*
X-1420Y71D01*
X-1412Y72D01*
X-1405Y77D01*
X-1400Y84D01*
X-1399Y92D01*
X-1400Y100D01*
X-1405Y107D01*
X-1412Y112D01*
X-1420Y113D01*
D02*
G37*
G36*
X-909D02*
X-917Y112D01*
X-1046D01*
X-1054Y113D01*
X-1062Y112D01*
X-1069Y107D01*
X-1069Y107D01*
X-1250D01*
X-1255Y106D01*
X-1256Y106D01*
X-1260Y102D01*
X-1288Y75D01*
X-1385D01*
X-1391Y74D01*
X-1395Y70D01*
X-1433Y33D01*
X-1439D01*
X-1439Y33D01*
X-1446Y38D01*
X-1454Y39D01*
X-1462Y38D01*
X-1469Y33D01*
X-1474Y26D01*
X-1475Y18D01*
X-1474Y10D01*
X-1469Y3D01*
X-1462Y-2D01*
X-1454Y-3D01*
X-1446Y-2D01*
X-1439Y3D01*
X-1439Y3D01*
X-1427D01*
X-1421Y4D01*
X-1417Y8D01*
X-1379Y45D01*
X-1282D01*
X-1276Y46D01*
X-1272Y50D01*
X-1244Y77D01*
X-1069D01*
X-1069Y77D01*
X-1062Y72D01*
X-1054Y71D01*
X-1046Y72D01*
X-917D01*
X-909Y71D01*
X-901Y72D01*
X-894Y77D01*
X-889Y84D01*
X-888Y92D01*
X-889Y100D01*
X-894Y107D01*
X-901Y112D01*
X-909Y113D01*
D02*
G37*
%LPD*%
D10*
X-1734Y150D02*
X-714D01*
X-1765Y119D02*
X-1734Y150D01*
X-1765Y49D02*
Y119D01*
D13*
X-1287Y-724D02*
D03*
D33*
X-914Y-655D02*
X-879Y-620D01*
X-919Y-660D02*
X-914Y-655D01*
X-1183Y-297D02*
Y-274D01*
Y-300D02*
Y-297D01*
X-1524Y92D02*
X-1420D01*
X-541Y-285D02*
X-180D01*
X-580Y-405D02*
Y-324D01*
X-665Y-490D02*
X-580Y-405D01*
Y-324D02*
X-541Y-285D01*
X-690Y-620D02*
X-665Y-595D01*
X-621Y-404D02*
Y-280D01*
X-641Y-424D02*
X-621Y-404D01*
X-1330Y-80D02*
X-1290Y-120D01*
X-1275D01*
X-1070Y-173D02*
Y-139D01*
Y-173D02*
X-1057Y-186D01*
X-1027D01*
X-1085Y-124D02*
X-1070Y-139D01*
X-1417Y-405D02*
Y-260D01*
Y-405D02*
X-1370Y-452D01*
X-1263D01*
X-1555Y-297D02*
Y-226D01*
Y-297D02*
X-1544Y-308D01*
Y-348D02*
Y-308D01*
X-1477Y-29D02*
X-1373D01*
X-1359Y-43D01*
X-1499Y-7D02*
X-1477Y-29D01*
X-1499Y-7D02*
Y64D01*
X-1524Y89D02*
X-1499Y64D01*
X-1519Y-17D02*
Y9D01*
X-1526Y16D02*
X-1519Y9D01*
X-1602Y16D02*
X-1526D01*
X-1465Y-47D02*
X-1451Y-61D01*
X-1519Y-17D02*
X-1489Y-47D01*
X-1465D01*
X-1451Y-98D02*
Y-61D01*
X-1183Y-300D02*
X-1151Y-332D01*
X-1014D01*
X-1090Y-182D02*
X-1058Y-214D01*
X-1278Y-11D02*
X-1278D01*
X-1001Y-283D02*
X-995Y-277D01*
X-903Y-304D02*
X-886Y-321D01*
Y-357D02*
Y-321D01*
X-1112Y-136D02*
X-1090Y-158D01*
X-1112Y-136D02*
Y-111D01*
X-1135Y-88D02*
Y-70D01*
Y-88D02*
X-1112Y-111D01*
X-1090Y-182D02*
Y-158D01*
X-1058Y-214D02*
X-1027D01*
X-998Y-243D02*
X-951D01*
X-1027Y-214D02*
X-998Y-243D01*
X-1196Y-63D02*
X-1178D01*
X-1162Y-79D01*
X-1213Y-92D02*
X-1201Y-104D01*
Y-136D02*
Y-104D01*
X-1308Y-156D02*
X-1247D01*
X-1178Y-225D02*
X-1095D01*
X-1037Y-283D01*
X-1001D01*
X-1247Y-156D02*
X-1178Y-225D01*
X-1315Y-193D02*
X-1237D01*
X-1187Y-243D01*
X-1105D01*
X-1044Y-304D02*
X-903D01*
X-1105Y-243D02*
X-1044Y-304D01*
X-1335Y-221D02*
X-1236D01*
X-1183Y-274D01*
X-1359Y-197D02*
X-1335Y-221D01*
X-1359Y-197D02*
Y-44D01*
X-1183Y-752D02*
X-592D01*
X-567Y-727D01*
Y-662D01*
X-1683Y-742D02*
Y-710D01*
X-1699Y-726D02*
X-1667D01*
X-1265Y-670D02*
Y-601D01*
Y-670D02*
X-1183Y-752D01*
X-1327Y-41D02*
X-1276Y-92D01*
X-1213D01*
X-1162Y-132D02*
X-1119Y-175D01*
Y-197D02*
Y-175D01*
X-1162Y-132D02*
Y-79D01*
X-665Y-595D02*
Y-490D01*
X-879Y-620D02*
X-690D01*
X-1854Y-811D02*
Y178D01*
Y-811D02*
X48D01*
X-1854Y178D02*
X48D01*
Y-811D02*
Y178D01*
X-706Y-852D02*
Y-912D01*
X-726Y-852D02*
X-686D01*
X-633Y-912D02*
X-656Y-852D01*
X-679Y-912D01*
X-670Y-892D02*
X-642D01*
X-576Y-866D02*
X-579Y-861D01*
X-585Y-855D01*
X-591Y-852D01*
X-602D01*
X-608Y-855D01*
X-613Y-861D01*
X-616Y-866D01*
X-619Y-875D01*
Y-889D01*
X-616Y-898D01*
X-613Y-903D01*
X-608Y-909D01*
X-602Y-912D01*
X-591D01*
X-585Y-909D01*
X-579Y-903D01*
X-576Y-898D01*
Y-889D01*
X-591D02*
X-576D01*
X-515Y-863D02*
X-510Y-861D01*
X-501Y-852D01*
Y-912D01*
X-454Y-852D02*
X-463Y-855D01*
X-469Y-863D01*
X-471Y-878D01*
Y-886D01*
X-469Y-901D01*
X-463Y-909D01*
X-454Y-912D01*
X-449D01*
X-440Y-909D01*
X-434Y-901D01*
X-431Y-886D01*
Y-878D01*
X-434Y-863D01*
X-440Y-855D01*
X-449Y-852D01*
X-454D01*
X-415Y-866D02*
Y-863D01*
X-412Y-858D01*
X-409Y-855D01*
X-404Y-852D01*
X-392D01*
X-387Y-855D01*
X-384Y-858D01*
X-381Y-863D01*
Y-869D01*
X-384Y-875D01*
X-390Y-883D01*
X-418Y-912D01*
X-378D01*
X-318Y-852D02*
Y-912D01*
Y-852D02*
X-292D01*
X-283Y-855D01*
X-280Y-858D01*
X-278Y-863D01*
Y-869D01*
X-280Y-875D01*
X-283Y-878D01*
X-292Y-881D01*
X-318D01*
X-298D02*
X-278Y-912D01*
X-227Y-852D02*
X-264D01*
Y-912D01*
X-227D01*
X-264Y-881D02*
X-241D01*
X-217Y-852D02*
X-194Y-912D01*
X-171Y-852D02*
X-194Y-912D01*
X-161Y-906D02*
X-164Y-909D01*
X-161Y-912D01*
X-158Y-909D01*
X-161Y-906D01*
X-145Y-863D02*
X-139Y-861D01*
X-130Y-852D01*
Y-912D01*
X-61Y-852D02*
X-89Y-912D01*
X-101Y-852D02*
X-61D01*
X2385Y-2020D02*
G03*
X2336Y-1971I-49J0D01*
G01*
X1235D02*
G03*
X1185Y-2021I0J-50D01*
G01*
X2335Y-1921D02*
G03*
X2385Y-1871I0J50D01*
G01*
X1185D02*
G03*
X1235Y-1921I50J0D01*
G01*
X-1865Y-1196D02*
G03*
X-1965Y-1296I0J-100D01*
G01*
Y-2395D02*
G03*
X-1866Y-2496I101J0D01*
G01*
X2335Y-2496D02*
G03*
X2435Y-2396I0J100D01*
G01*
Y-1296D02*
G03*
X2335Y-1196I-100J0D01*
G01*
X2385Y-1295D02*
G03*
X2334Y-1246I-49J0D01*
G01*
X2335Y-2196D02*
G03*
X2385Y-2146I0J50D01*
G01*
X2385Y-2295D02*
G03*
X2335Y-2246I-50J-1D01*
G01*
Y-2446D02*
G03*
X2385Y-2396I0J50D01*
G01*
X1085Y-2196D02*
G03*
X1135Y-2146I0J50D01*
G01*
X1185Y-2147D02*
G03*
X1235Y-2196I49J0D01*
G01*
X1135Y-2020D02*
G03*
X1086Y-1971I-49J0D01*
G01*
X-1915Y-2396D02*
G03*
X-1866Y-2446I50J0D01*
G01*
X1086Y-1921D02*
G03*
X1135Y-1871I-1J50D01*
G01*
X-1865Y-2246D02*
G03*
X-1915Y-2296I0J-50D01*
G01*
X1135Y-1546D02*
G03*
X1085Y-1496I-50J0D01*
G01*
Y-1446D02*
G03*
X1135Y-1396I0J50D01*
G01*
X1235Y-1246D02*
G03*
X1185Y-1296I0J-50D01*
G01*
X1135D02*
G03*
X1085Y-1246I-50J0D01*
G01*
X-1865D02*
G03*
X-1915Y-1296I0J-50D01*
G01*
Y-1396D02*
G03*
X-1865Y-1446I50J0D01*
G01*
Y-1496D02*
G03*
X-1915Y-1546I0J-50D01*
G01*
Y-1771D02*
G03*
X-1865Y-1821I50J0D01*
G01*
Y-1871D02*
G03*
X-1915Y-1921I0J-50D01*
G01*
Y-2146D02*
G03*
X-1866Y-2196I50J0D01*
G01*
X-965Y-1496D02*
G03*
X-1015Y-1546I0J-50D01*
G01*
X-965Y-1971D02*
G03*
X-1015Y-2021I0J-50D01*
G01*
X783Y-1971D02*
G03*
X735Y-2022I0J-48D01*
G01*
X735Y-2145D02*
G03*
X785Y-2196I51J0D01*
G01*
X636Y-2196D02*
G03*
X685Y-2146I0J49D01*
G01*
X685Y-2020D02*
G03*
X636Y-1971I-49J0D01*
G01*
X-1114Y-2196D02*
G03*
X-1065Y-2147I0J49D01*
G01*
X-1015D02*
G03*
X-966Y-2196I49J0D01*
G01*
X-1015Y-1872D02*
G03*
X-966Y-1921I49J0D01*
G01*
X-1065Y-1920D02*
G03*
X-1116Y-1871I-49J0D01*
G01*
X-1113Y-1821D02*
G03*
X-1065Y-1773I0J48D01*
G01*
Y-1545D02*
G03*
X-1114Y-1496I-49J0D01*
G01*
X1785Y-2246D02*
G03*
X1735Y-2296I0J-50D01*
G01*
Y-2397D02*
G03*
X1785Y-2446I49J0D01*
G01*
X1636Y-2446D02*
G03*
X1685Y-2397I1J48D01*
G01*
X1685Y-2296D02*
G03*
X1635Y-2246I-50J0D01*
G01*
X-90Y-2396D02*
G03*
X-41Y-2446I50J0D01*
G01*
X-40Y-2246D02*
G03*
X-90Y-2296I0J-50D01*
G01*
X-189Y-2446D02*
G03*
X-140Y-2397I1J48D01*
G01*
X-140Y-2296D02*
G03*
X-190Y-2246I-50J0D01*
G01*
X2385Y-2146D02*
Y-2020D01*
X1185Y-2146D02*
Y-2021D01*
X2385Y-1871D02*
Y-1296D01*
X1185Y-1871D02*
Y-1296D01*
X-1965Y-2396D02*
Y-1296D01*
X-1915Y-2396D02*
Y-2296D01*
X2385Y-2396D02*
Y-2296D01*
X1135Y-2146D02*
Y-2021D01*
X735Y-2146D02*
Y-2021D01*
X-1015Y-2146D02*
Y-2021D01*
X685Y-2146D02*
Y-2021D01*
X-1015Y-1871D02*
Y-1546D01*
X1135Y-1871D02*
Y-1546D01*
Y-1396D02*
Y-1296D01*
X-1915Y-1396D02*
Y-1296D01*
X-1065Y-1771D02*
Y-1546D01*
X-1915Y-1771D02*
Y-1546D01*
X-1065Y-2146D02*
Y-1921D01*
X-1915Y-2146D02*
Y-1921D01*
X2435Y-2396D02*
Y-1296D01*
X1735Y-2396D02*
Y-2296D01*
X1685Y-2396D02*
Y-2296D01*
X-90Y-2396D02*
Y-2296D01*
X-140Y-2396D02*
Y-2296D01*
X1235Y-1971D02*
X2335D01*
X1235Y-1921D02*
X2335D01*
X-965D02*
X1085D01*
X1235Y-1246D02*
X2335D01*
X1235Y-2196D02*
X2335D01*
X785Y-1971D02*
X1085D01*
X785Y-2196D02*
X1085D01*
X-965D02*
X635D01*
X-965Y-1971D02*
X635D01*
X-965Y-1496D02*
X1085D01*
X-1865Y-1446D02*
X1085D01*
X-1865Y-1496D02*
X-1115D01*
X-1865Y-1821D02*
X-1115D01*
X-1865Y-1871D02*
X-1115D01*
X-1865Y-2196D02*
X-1115D01*
X-1865Y-1196D02*
X2335D01*
X-1865Y-2496D02*
X2335D01*
X-1865Y-1246D02*
X1085D01*
X1785Y-2246D02*
X2335D01*
X1785Y-2446D02*
X2335D01*
X-40Y-2246D02*
X1635D01*
X-1865D02*
X-190D01*
X-1865Y-2446D02*
X-190D01*
X-40D02*
X1635D01*
X1564Y-1583D02*
X1554Y-1572D01*
X1532D01*
X1522Y-1583D01*
Y-1593D01*
X1532Y-1604D01*
X1554D01*
X1564Y-1615D01*
Y-1625D01*
X1554Y-1636D01*
X1532D01*
X1522Y-1625D01*
X1586Y-1593D02*
Y-1625D01*
X1596Y-1636D01*
X1628D01*
Y-1593D01*
X1649Y-1636D02*
X1671D01*
X1660D01*
Y-1593D01*
X1649D01*
X1713Y-1583D02*
Y-1593D01*
X1703D01*
X1724D01*
X1713D01*
Y-1625D01*
X1724Y-1636D01*
X1788D02*
X1767D01*
X1756Y-1625D01*
Y-1604D01*
X1767Y-1593D01*
X1788D01*
X1799Y-1604D01*
Y-1615D01*
X1756D01*
X1884Y-1636D02*
X1905D01*
X1895D01*
Y-1572D01*
X1884Y-1583D01*
X1937Y-1636D02*
X1959D01*
X1948D01*
Y-1572D01*
X1937Y-1583D01*
X1991D02*
X2001Y-1572D01*
X2023D01*
X2033Y-1583D01*
Y-1593D01*
X2023Y-1604D01*
X2033Y-1615D01*
Y-1625D01*
X2023Y-1636D01*
X2001D01*
X1991Y-1625D01*
Y-1615D01*
X2001Y-1604D01*
X1991Y-1593D01*
Y-1583D01*
X2001Y-1604D02*
X2023D01*
X1484Y-1787D02*
X1442D01*
Y-1819D01*
X1463Y-1808D01*
X1474D01*
X1484Y-1819D01*
Y-1840D01*
X1474Y-1851D01*
X1452D01*
X1442Y-1840D01*
X1548Y-1787D02*
X1527Y-1798D01*
X1506Y-1819D01*
Y-1840D01*
X1516Y-1851D01*
X1537D01*
X1548Y-1840D01*
Y-1830D01*
X1537Y-1819D01*
X1506D01*
X1569Y-1851D02*
X1591D01*
X1580D01*
Y-1787D01*
X1569Y-1798D01*
X1623Y-1819D02*
X1665D01*
X1687Y-1840D02*
X1697Y-1851D01*
X1719D01*
X1729Y-1840D01*
Y-1798D01*
X1719Y-1787D01*
X1697D01*
X1687Y-1798D01*
Y-1808D01*
X1697Y-1819D01*
X1729D01*
X1751Y-1840D02*
X1761Y-1851D01*
X1783D01*
X1793Y-1840D01*
Y-1798D01*
X1783Y-1787D01*
X1761D01*
X1751Y-1798D01*
Y-1808D01*
X1761Y-1819D01*
X1793D01*
X1815Y-1840D02*
X1825Y-1851D01*
X1847D01*
X1857Y-1840D01*
Y-1798D01*
X1847Y-1787D01*
X1825D01*
X1815Y-1798D01*
Y-1808D01*
X1825Y-1819D01*
X1857D01*
X1879D02*
X1921D01*
X1943Y-1840D02*
X1953Y-1851D01*
X1975D01*
X1985Y-1840D01*
Y-1798D01*
X1975Y-1787D01*
X1953D01*
X1943Y-1798D01*
Y-1808D01*
X1953Y-1819D01*
X1985D01*
X2039Y-1851D02*
Y-1787D01*
X2007Y-1819D01*
X2049D01*
X2113Y-1851D02*
X2071D01*
X2113Y-1808D01*
Y-1798D01*
X2103Y-1787D01*
X2081D01*
X2071Y-1798D01*
X2177Y-1851D02*
X2135D01*
X2177Y-1808D01*
Y-1798D01*
X2167Y-1787D01*
X2145D01*
X2135Y-1798D01*
X1227Y-1520D02*
X1237Y-1531D01*
X1259D01*
X1269Y-1520D01*
Y-1478D01*
X1259Y-1467D01*
X1237D01*
X1227Y-1478D01*
Y-1488D01*
X1237Y-1499D01*
X1269D01*
X1291Y-1478D02*
X1301Y-1467D01*
X1322D01*
X1333Y-1478D01*
Y-1520D01*
X1322Y-1531D01*
X1301D01*
X1291Y-1520D01*
Y-1478D01*
X1397Y-1531D02*
X1354D01*
X1397Y-1488D01*
Y-1478D01*
X1386Y-1467D01*
X1365D01*
X1354Y-1478D01*
X1525D02*
X1514Y-1467D01*
X1493D01*
X1482Y-1478D01*
Y-1520D01*
X1493Y-1531D01*
X1514D01*
X1525Y-1520D01*
X1546Y-1531D02*
X1568D01*
X1557D01*
Y-1467D01*
X1546D01*
X1600Y-1531D02*
X1621D01*
X1610D01*
Y-1488D01*
X1600D01*
X1653Y-1531D02*
Y-1488D01*
X1685D01*
X1696Y-1499D01*
Y-1531D01*
X1728Y-1478D02*
Y-1488D01*
X1717D01*
X1738D01*
X1728D01*
Y-1520D01*
X1738Y-1531D01*
X1834D02*
Y-1467D01*
X1856Y-1488D01*
X1877Y-1467D01*
Y-1531D01*
X1909D02*
X1930D01*
X1941Y-1520D01*
Y-1499D01*
X1930Y-1488D01*
X1909D01*
X1898Y-1499D01*
Y-1520D01*
X1909Y-1531D01*
X1973D02*
X1994D01*
X2005Y-1520D01*
Y-1499D01*
X1994Y-1488D01*
X1973D01*
X1962Y-1499D01*
Y-1520D01*
X1973Y-1531D01*
X2026Y-1488D02*
Y-1531D01*
Y-1510D01*
X2037Y-1499D01*
X2048Y-1488D01*
X2058D01*
X2122Y-1531D02*
X2101D01*
X2090Y-1520D01*
Y-1499D01*
X2101Y-1488D01*
X2122D01*
X2133Y-1499D01*
Y-1510D01*
X2090D01*
X2218Y-1531D02*
Y-1467D01*
X2250D01*
X2261Y-1478D01*
Y-1499D01*
X2250Y-1510D01*
X2218D01*
X2240D02*
X2261Y-1531D01*
X2325Y-1467D02*
Y-1531D01*
X2293D01*
X2282Y-1520D01*
Y-1499D01*
X2293Y-1488D01*
X2325D01*
X2346Y-1531D02*
Y-1520D01*
X2357D01*
Y-1531D01*
X2346D01*
X1387Y-1667D02*
Y-1731D01*
X1419D01*
X1429Y-1720D01*
Y-1710D01*
X1419Y-1699D01*
X1387D01*
X1419D01*
X1429Y-1688D01*
Y-1678D01*
X1419Y-1667D01*
X1387D01*
X1461Y-1731D02*
X1482D01*
X1493Y-1720D01*
Y-1699D01*
X1482Y-1688D01*
X1461D01*
X1451Y-1699D01*
Y-1720D01*
X1461Y-1731D01*
X1557Y-1688D02*
X1525D01*
X1514Y-1699D01*
Y-1720D01*
X1525Y-1731D01*
X1557D01*
X1589Y-1688D02*
X1610D01*
X1621Y-1699D01*
Y-1731D01*
X1589D01*
X1578Y-1720D01*
X1589Y-1710D01*
X1621D01*
X1706Y-1731D02*
Y-1667D01*
X1738D01*
X1749Y-1678D01*
Y-1699D01*
X1738Y-1710D01*
X1706D01*
X1728D02*
X1749Y-1731D01*
X1781Y-1688D02*
X1802D01*
X1813Y-1699D01*
Y-1731D01*
X1781D01*
X1770Y-1720D01*
X1781Y-1710D01*
X1813D01*
X1845Y-1678D02*
Y-1688D01*
X1834D01*
X1856D01*
X1845D01*
Y-1720D01*
X1856Y-1731D01*
X1898D02*
X1920D01*
X1930Y-1720D01*
Y-1699D01*
X1920Y-1688D01*
X1898D01*
X1888Y-1699D01*
Y-1720D01*
X1898Y-1731D01*
X1952D02*
Y-1688D01*
X1984D01*
X1994Y-1699D01*
Y-1731D01*
X2122Y-1667D02*
X2080D01*
Y-1699D01*
X2101D01*
X2080D01*
Y-1731D01*
X2144Y-1667D02*
Y-1731D01*
X2186D01*
X2208D02*
Y-1720D01*
X2218D01*
Y-1731D01*
X2208D01*
X48Y-811D02*
Y178D01*
X-1854D02*
X48D01*
X-1854Y-811D02*
X48D01*
X-1854D02*
Y178D01*
D34*
X-1689Y-79D02*
Y-48D01*
X-1713Y-24D02*
X-1689Y-48D01*
X-1754Y-24D02*
X-1713D01*
X-1779Y-259D02*
Y-49D01*
X-1754Y-24D01*
X-1802Y-259D02*
Y27D01*
X-1780Y49D01*
X-1765D01*
D35*
X-163Y-10D02*
Y-50D01*
X-150Y-10D02*
X-177D01*
X-212Y-50D02*
X-197Y-10D01*
X-181Y-50D01*
X-187Y-37D02*
X-206D01*
X-250Y-20D02*
X-248Y-16D01*
X-244Y-12D01*
X-240Y-10D01*
X-233D01*
X-229Y-12D01*
X-225Y-16D01*
X-223Y-20D01*
X-221Y-25D01*
Y-35D01*
X-223Y-40D01*
X-225Y-44D01*
X-229Y-48D01*
X-233Y-50D01*
X-240D01*
X-244Y-48D01*
X-248Y-44D01*
X-250Y-40D01*
Y-35D01*
X-240D02*
X-250D01*
X-259Y-18D02*
X-263Y-16D01*
X-268Y-10D01*
Y-50D01*
X-300Y-10D02*
X-294Y-12D01*
X-290Y-18D01*
X-288Y-27D01*
Y-33D01*
X-290Y-42D01*
X-294Y-48D01*
X-300Y-50D01*
X-303D01*
X-309Y-48D01*
X-313Y-42D01*
X-315Y-33D01*
Y-27D01*
X-313Y-18D01*
X-309Y-12D01*
X-303Y-10D01*
X-300D01*
X-326Y-20D02*
Y-18D01*
X-328Y-14D01*
X-330Y-12D01*
X-333Y-10D01*
X-341D01*
X-345Y-12D01*
X-347Y-14D01*
X-349Y-18D01*
Y-21D01*
X-347Y-25D01*
X-343Y-31D01*
X-324Y-50D01*
X-351D01*
X-391Y-10D02*
Y-50D01*
Y-10D02*
X-408D01*
X-414Y-12D01*
X-416Y-14D01*
X-418Y-18D01*
Y-21D01*
X-416Y-25D01*
X-414Y-27D01*
X-408Y-29D01*
X-391D01*
X-404D02*
X-418Y-50D01*
X-451Y-10D02*
X-427D01*
Y-50D01*
X-451D01*
X-427Y-29D02*
X-442D01*
X-458Y-10D02*
X-473Y-50D01*
X-488Y-10D02*
X-473Y-50D01*
X-525Y-18D02*
X-529Y-16D01*
X-534Y-10D01*
Y-50D01*
X-581Y-10D02*
X-562Y-50D01*
X-554Y-10D02*
X-581D01*
X-82Y-135D02*
X-68Y-100D01*
X-55Y-135D01*
X-60Y-123D02*
X-77D01*
X-115Y-108D02*
X-113Y-105D01*
X-110Y-102D01*
X-106Y-100D01*
X-100D01*
X-96Y-102D01*
X-93Y-105D01*
X-91Y-108D01*
X-90Y-113D01*
Y-122D01*
X-91Y-127D01*
X-93Y-130D01*
X-96Y-133D01*
X-100Y-135D01*
X-106D01*
X-110Y-133D01*
X-113Y-130D01*
X-115Y-127D01*
X-136Y-100D02*
Y-135D01*
X-125Y-100D02*
X-148D01*
X-152D02*
Y-135D01*
X-159Y-100D02*
X-173Y-135D01*
X-186Y-100D02*
X-173Y-135D01*
X-212Y-100D02*
X-191D01*
Y-135D01*
X-212D01*
X-191Y-117D02*
X-204D01*
X-218Y-100D02*
X-226Y-135D01*
X-235Y-100D02*
X-226Y-135D01*
X-235Y-100D02*
X-243Y-135D01*
X-251Y-100D02*
X-243Y-135D01*
X-285D02*
X-272Y-100D01*
X-258Y-135D01*
X-263Y-123D02*
X-280D01*
X-293Y-100D02*
X-307Y-135D01*
X-320Y-100D02*
X-307Y-135D01*
X-346Y-100D02*
X-324D01*
Y-135D01*
X-346D01*
X-324Y-117D02*
X-338D01*
X-352Y-100D02*
Y-135D01*
X-359Y-100D02*
Y-135D01*
Y-100D02*
X-383Y-135D01*
Y-100D02*
Y-135D01*
X-417Y-108D02*
X-416Y-105D01*
X-412Y-102D01*
X-409Y-100D01*
X-402D01*
X-399Y-102D01*
X-396Y-105D01*
X-394Y-108D01*
X-392Y-113D01*
Y-122D01*
X-394Y-127D01*
X-396Y-130D01*
X-399Y-133D01*
X-402Y-135D01*
X-409D01*
X-412Y-133D01*
X-416Y-130D01*
X-417Y-127D01*
X-429Y-132D02*
X-427Y-133D01*
X-429Y-135D01*
X-430Y-133D01*
X-429Y-132D01*
X-463Y-108D02*
X-461Y-105D01*
X-458Y-102D01*
X-455Y-100D01*
X-448D01*
X-445Y-102D01*
X-441Y-105D01*
X-440Y-108D01*
X-438Y-113D01*
Y-122D01*
X-440Y-127D01*
X-441Y-130D01*
X-445Y-133D01*
X-448Y-135D01*
X-455D01*
X-458Y-133D01*
X-461Y-130D01*
X-463Y-127D01*
X-483Y-100D02*
X-480Y-102D01*
X-476Y-105D01*
X-475Y-108D01*
X-473Y-113D01*
Y-122D01*
X-475Y-127D01*
X-476Y-130D01*
X-480Y-133D01*
X-483Y-135D01*
X-490D01*
X-493Y-133D01*
X-496Y-130D01*
X-498Y-127D01*
X-500Y-122D01*
Y-113D01*
X-498Y-108D01*
X-496Y-105D01*
X-493Y-102D01*
X-490Y-100D01*
X-483D01*
X-508D02*
Y-135D01*
Y-100D02*
X-521Y-135D01*
X-534Y-100D02*
X-521Y-135D01*
X-534Y-100D02*
Y-135D01*
D37*
X-1385Y60D02*
X-1282D01*
X-1427Y18D02*
X-1385Y60D01*
X-1454Y18D02*
X-1427D01*
X-1282Y60D02*
X-1250Y92D01*
X-1054D01*
X1277Y-1426D02*
Y-1359D01*
X1310Y-1326D01*
X1343Y-1359D01*
Y-1426D01*
Y-1376D01*
X1277D01*
X1443Y-1359D02*
X1393D01*
X1376Y-1376D01*
Y-1409D01*
X1393Y-1426D01*
X1443D01*
X1493Y-1343D02*
Y-1359D01*
X1476D01*
X1510D01*
X1493D01*
Y-1409D01*
X1510Y-1426D01*
X1560D02*
X1593D01*
X1576D01*
Y-1359D01*
X1560D01*
X1643D02*
X1676Y-1426D01*
X1710Y-1359D01*
X1793Y-1426D02*
X1760D01*
X1743Y-1409D01*
Y-1376D01*
X1760Y-1359D01*
X1793D01*
X1810Y-1376D01*
Y-1393D01*
X1743D01*
X1943Y-1326D02*
Y-1426D01*
X1976Y-1393D01*
X2010Y-1426D01*
Y-1326D01*
X2060Y-1359D02*
X2093D01*
X2110Y-1376D01*
Y-1426D01*
X2060D01*
X2043Y-1409D01*
X2060Y-1393D01*
X2110D01*
X2143Y-1359D02*
X2176Y-1426D01*
X2210Y-1359D01*
X2293Y-1426D02*
X2260D01*
X2243Y-1409D01*
Y-1376D01*
X2260Y-1359D01*
X2293D01*
X2310Y-1376D01*
Y-1393D01*
X2243D01*
D38*
X-387Y-495D02*
X-270D01*
X-615D02*
X-387D01*
Y122D02*
X-208D01*
X-568D02*
X-387D01*
X-738Y-174D02*
X-703Y-139D01*
X-738Y-196D02*
Y-174D01*
X-726Y-300D02*
Y-207D01*
X-738Y-196D02*
X-726Y-207D01*
X-747Y-321D02*
X-726Y-300D01*
X-703Y-139D02*
Y-9D01*
X-837Y-676D02*
X-666D01*
X-615Y-625D01*
X-915Y-573D02*
X-770D01*
X-747Y-550D02*
Y-321D01*
X-208Y122D02*
X-143Y57D01*
X-633D02*
X-568Y122D01*
X-1054Y92D02*
X-909D01*
X-1536Y-724D02*
X-1287D01*
X-1567Y-693D02*
X-1536Y-724D01*
X-1586Y-628D02*
X-1567Y-647D01*
X-1586Y-626D02*
X-1567Y-607D01*
Y-693D02*
Y-647D01*
Y-607D02*
Y-489D01*
X-1586Y-628D02*
Y-626D01*
X-1665D02*
X-1586D01*
X-1690Y-601D02*
X-1665Y-626D01*
X-770Y-573D02*
X-747Y-550D01*
X-270Y-495D02*
X-220Y-445D01*
X-615Y-625D02*
Y-495D01*
D40*
X-632Y-60D02*
Y-17D01*
Y-88D02*
Y-60D01*
X-690Y-379D02*
X-657Y-346D01*
X-580Y-100D02*
X-577Y-97D01*
X-595Y-218D02*
Y-125D01*
X-657Y-280D02*
X-595Y-218D01*
X-657Y-346D02*
Y-280D01*
X-690Y-309D02*
Y-178D01*
X-718Y-337D02*
X-690Y-309D01*
X-668Y-156D02*
Y-61D01*
X-690Y-178D02*
X-668Y-156D01*
X-632Y-17D02*
X-618Y-3D01*
X-718Y-535D02*
Y-337D01*
Y-535D02*
X-693Y-560D01*
X-580Y-240D02*
Y-100D01*
Y-240D02*
X-572Y-248D01*
X-632Y-88D02*
X-595Y-125D01*
X-1251Y-63D02*
X-1196D01*
X-1275Y-39D02*
X-1251Y-63D01*
X-1289Y-39D02*
X-1275D01*
X-1305Y-23D02*
X-1289Y-39D01*
X-1305Y-23D02*
Y2D01*
X-1292Y15D01*
X-1278Y-11D02*
X-1252Y-37D01*
X-1128D01*
X-1238Y-11D02*
X-1228Y-21D01*
X-1075D01*
X-1225Y15D02*
X-1205Y-5D01*
X-1292Y15D02*
X-1225D01*
X-1010Y-5D02*
X-985Y20D01*
X-1205Y-5D02*
X-1010D01*
X-1108Y-80D02*
Y-57D01*
Y-80D02*
X-1095Y-93D01*
X-1062D01*
X-859Y-296D01*
Y-387D02*
Y-296D01*
X-921Y-449D02*
X-859Y-387D01*
X-1048Y-449D02*
X-921D01*
X-1128Y-37D02*
X-1108Y-57D01*
X-1075Y-21D02*
X-1039Y-57D01*
Y-91D02*
Y-57D01*
Y-91D02*
X-841Y-289D01*
Y-392D02*
Y-289D01*
X-1000Y-470D02*
X-920D01*
X-1025Y-495D02*
X-1000Y-470D01*
X-1025Y-525D02*
Y-495D01*
X-920Y-470D02*
X-841Y-392D01*
X-1085Y-585D02*
X-1025Y-525D01*
X-1053Y-865D02*
Y-945D01*
Y-865D02*
X-1087D01*
X-1099Y-869D01*
X-1103Y-873D01*
X-1106Y-880D01*
Y-888D01*
X-1103Y-895D01*
X-1099Y-899D01*
X-1087Y-903D01*
X-1053D02*
X-1087D01*
X-1099Y-907D01*
X-1103Y-911D01*
X-1106Y-918D01*
Y-930D01*
X-1103Y-937D01*
X-1099Y-941D01*
X-1087Y-945D01*
X-1053D01*
X-1143Y-892D02*
X-1136Y-895D01*
X-1128Y-903D01*
X-1124Y-915D01*
Y-922D01*
X-1128Y-934D01*
X-1136Y-941D01*
X-1143Y-945D01*
X-1155D01*
X-1162Y-941D01*
X-1170Y-934D01*
X-1174Y-922D01*
Y-915D01*
X-1170Y-903D01*
X-1162Y-895D01*
X-1155Y-892D01*
X-1143D01*
X-1203Y-865D02*
Y-930D01*
X-1206Y-941D01*
X-1214Y-945D01*
X-1222D01*
X-1191Y-892D02*
X-1218D01*
X-1245Y-865D02*
Y-930D01*
X-1248Y-941D01*
X-1256Y-945D01*
X-1264D01*
X-1233Y-892D02*
X-1260D01*
X-1294D02*
X-1286Y-895D01*
X-1279Y-903D01*
X-1275Y-915D01*
Y-922D01*
X-1279Y-934D01*
X-1286Y-941D01*
X-1294Y-945D01*
X-1306D01*
X-1313Y-941D01*
X-1321Y-934D01*
X-1325Y-922D01*
Y-915D01*
X-1321Y-903D01*
X-1313Y-895D01*
X-1306Y-892D01*
X-1294D01*
X-1342D02*
Y-945D01*
Y-907D02*
X-1354Y-895D01*
X-1361Y-892D01*
X-1373D01*
X-1380Y-895D01*
X-1384Y-907D01*
Y-945D01*
Y-907D02*
X-1395Y-895D01*
X-1403Y-892D01*
X-1414D01*
X-1422Y-895D01*
X-1426Y-907D01*
Y-945D01*
X-1451Y-865D02*
Y-945D01*
X-1497D01*
X-1551Y-892D02*
Y-945D01*
Y-903D02*
X-1544Y-895D01*
X-1536Y-892D01*
X-1525D01*
X-1517Y-895D01*
X-1509Y-903D01*
X-1505Y-915D01*
Y-922D01*
X-1509Y-934D01*
X-1517Y-941D01*
X-1525Y-945D01*
X-1536D01*
X-1544Y-941D01*
X-1551Y-934D01*
X-1576Y-892D02*
X-1599Y-945D01*
X-1622Y-892D02*
X-1599Y-945D01*
X-1592Y-960D01*
X-1584Y-968D01*
X-1576Y-972D01*
X-1573D01*
X-1635Y-915D02*
X-1681D01*
Y-907D01*
X-1677Y-899D01*
X-1673Y-895D01*
X-1666Y-892D01*
X-1654D01*
X-1647Y-895D01*
X-1639Y-903D01*
X-1635Y-915D01*
Y-922D01*
X-1639Y-934D01*
X-1647Y-941D01*
X-1654Y-945D01*
X-1666D01*
X-1673Y-941D01*
X-1681Y-934D01*
X-1698Y-892D02*
Y-945D01*
Y-915D02*
X-1702Y-903D01*
X-1710Y-895D01*
X-1717Y-892D01*
X-1729D01*
X-1457Y-1924D02*
Y-1965D01*
X-1459Y-1972D01*
X-1462Y-1975D01*
X-1467Y-1977D01*
X-1472D01*
X-1477Y-1975D01*
X-1480Y-1972D01*
X-1482Y-1965D01*
Y-1959D01*
X-1440Y-1972D02*
X-1443Y-1975D01*
X-1440Y-1977D01*
X-1438Y-1975D01*
X-1440Y-1972D01*
X-1426Y-1924D02*
Y-1977D01*
Y-1924D02*
X-1391Y-1977D01*
Y-1924D02*
Y-1977D01*
D42*
X-1388Y-2340D02*
Y-2393D01*
X-1406Y-2340D02*
X-1370D01*
X-1334Y-2357D02*
Y-2393D01*
Y-2365D02*
X-1339Y-2360D01*
X-1344Y-2357D01*
X-1351D01*
X-1356Y-2360D01*
X-1362Y-2365D01*
X-1364Y-2373D01*
Y-2378D01*
X-1362Y-2385D01*
X-1356Y-2390D01*
X-1351Y-2393D01*
X-1344D01*
X-1339Y-2390D01*
X-1334Y-2385D01*
X-1289Y-2357D02*
Y-2398D01*
X-1291Y-2406D01*
X-1294Y-2408D01*
X-1299Y-2411D01*
X-1307D01*
X-1312Y-2408D01*
X-1289Y-2365D02*
X-1294Y-2360D01*
X-1299Y-2357D01*
X-1307D01*
X-1312Y-2360D01*
X-1317Y-2365D01*
X-1319Y-2373D01*
Y-2378D01*
X-1317Y-2385D01*
X-1312Y-2390D01*
X-1307Y-2393D01*
X-1299D01*
X-1294Y-2390D01*
X-1289Y-2385D01*
X-1275Y-2350D02*
X-1270Y-2347D01*
X-1262Y-2340D01*
Y-2393D01*
X-1220Y-2340D02*
X-1228Y-2342D01*
X-1233Y-2350D01*
X-1236Y-2363D01*
Y-2370D01*
X-1233Y-2383D01*
X-1228Y-2390D01*
X-1220Y-2393D01*
X-1215D01*
X-1208Y-2390D01*
X-1203Y-2383D01*
X-1200Y-2370D01*
Y-2363D01*
X-1203Y-2350D01*
X-1208Y-2342D01*
X-1215Y-2340D01*
X-1220D01*
X-1186Y-2352D02*
Y-2350D01*
X-1183Y-2345D01*
X-1181Y-2342D01*
X-1175Y-2340D01*
X-1165D01*
X-1160Y-2342D01*
X-1158Y-2345D01*
X-1155Y-2350D01*
Y-2355D01*
X-1158Y-2360D01*
X-1163Y-2368D01*
X-1188Y-2393D01*
X-1153D01*
X-1099Y-2340D02*
Y-2393D01*
Y-2340D02*
X-1076D01*
X-1068Y-2342D01*
X-1066Y-2345D01*
X-1063Y-2350D01*
Y-2355D01*
X-1066Y-2360D01*
X-1068Y-2363D01*
X-1076Y-2365D01*
X-1099D01*
X-1081D02*
X-1063Y-2393D01*
X-1051Y-2373D02*
X-1021D01*
Y-2368D01*
X-1023Y-2363D01*
X-1026Y-2360D01*
X-1031Y-2357D01*
X-1039D01*
X-1044Y-2360D01*
X-1049Y-2365D01*
X-1051Y-2373D01*
Y-2378D01*
X-1049Y-2385D01*
X-1044Y-2390D01*
X-1039Y-2393D01*
X-1031D01*
X-1026Y-2390D01*
X-1021Y-2385D01*
X-1009Y-2357D02*
X-994Y-2393D01*
X-979Y-2357D02*
X-994Y-2393D01*
X-970Y-2350D02*
X-965Y-2347D01*
X-958Y-2340D01*
Y-2393D01*
X-896Y-2340D02*
X-921Y-2393D01*
X-931Y-2340D02*
X-896D01*
X-881Y-2388D02*
X-884Y-2390D01*
X-881Y-2393D01*
X-879Y-2390D01*
X-881Y-2388D01*
X-867Y-2368D02*
X-844D01*
X-836Y-2365D01*
X-834Y-2363D01*
X-831Y-2357D01*
Y-2350D01*
X-834Y-2345D01*
X-836Y-2342D01*
X-844Y-2340D01*
X-867D01*
Y-2393D01*
X-789Y-2365D02*
X-794Y-2360D01*
X-799Y-2357D01*
X-807D01*
X-812Y-2360D01*
X-817Y-2365D01*
X-819Y-2373D01*
Y-2378D01*
X-817Y-2385D01*
X-812Y-2390D01*
X-807Y-2393D01*
X-799D01*
X-794Y-2390D01*
X-789Y-2385D01*
X-778Y-2340D02*
Y-2393D01*
Y-2365D02*
X-772Y-2360D01*
X-767Y-2357D01*
X-760D01*
X-755Y-2360D01*
X-750Y-2365D01*
X-747Y-2373D01*
Y-2378D01*
X-750Y-2385D01*
X-755Y-2390D01*
X-760Y-2393D01*
X-767D01*
X-772Y-2390D01*
X-778Y-2385D01*
X-736Y-2340D02*
Y-2393D01*
Y-2340D02*
X-718D01*
X-710Y-2342D01*
X-705Y-2347D01*
X-703Y-2352D01*
X-700Y-2360D01*
Y-2373D01*
X-703Y-2380D01*
X-705Y-2385D01*
X-710Y-2390D01*
X-718Y-2393D01*
X-736D01*
X-675Y-2357D02*
X-681Y-2360D01*
X-686Y-2365D01*
X-688Y-2373D01*
Y-2378D01*
X-686Y-2385D01*
X-681Y-2390D01*
X-675Y-2393D01*
X-668D01*
X-663Y-2390D01*
X-658Y-2385D01*
X-655Y-2378D01*
Y-2373D01*
X-658Y-2365D01*
X-663Y-2360D01*
X-668Y-2357D01*
X-675D01*
X-613Y-2365D02*
X-618Y-2360D01*
X-623Y-2357D01*
X-631D01*
X-636Y-2360D01*
X-641Y-2365D01*
X-643Y-2373D01*
Y-2378D01*
X-641Y-2385D01*
X-636Y-2390D01*
X-631Y-2393D01*
X-623D01*
X-618Y-2390D01*
X-613Y-2385D01*
X1235Y-2005D02*
Y-2059D01*
Y-2005D02*
X1253D01*
X1260Y-2008D01*
X1265Y-2013D01*
X1268Y-2018D01*
X1270Y-2026D01*
Y-2038D01*
X1268Y-2046D01*
X1265Y-2051D01*
X1260Y-2056D01*
X1253Y-2059D01*
X1235D01*
X1323D02*
X1303Y-2005D01*
X1282Y-2059D01*
X1290Y-2041D02*
X1315D01*
X1353Y-2005D02*
Y-2059D01*
X1335Y-2005D02*
X1371D01*
X1410D02*
X1377D01*
Y-2059D01*
X1410D01*
X1377Y-2031D02*
X1398D01*
X1422Y-2023D02*
X1419Y-2026D01*
X1422Y-2028D01*
X1424Y-2026D01*
X1422Y-2023D01*
Y-2054D02*
X1419Y-2056D01*
X1422Y-2059D01*
X1424Y-2056D01*
X1422Y-2054D01*
X772Y-2005D02*
Y-2059D01*
Y-2005D02*
X795D01*
X803Y-2008D01*
X805Y-2010D01*
X808Y-2016D01*
Y-2021D01*
X805Y-2026D01*
X803Y-2028D01*
X795Y-2031D01*
X772D01*
X790D02*
X808Y-2059D01*
X853Y-2005D02*
X820D01*
Y-2059D01*
X853D01*
X820Y-2031D02*
X840D01*
X862Y-2005D02*
X882Y-2059D01*
X902Y-2005D02*
X882Y-2059D01*
X912Y-2023D02*
X909Y-2026D01*
X912Y-2028D01*
X914Y-2026D01*
X912Y-2023D01*
Y-2054D02*
X909Y-2056D01*
X912Y-2059D01*
X914Y-2056D01*
X912Y-2054D01*
X-1865Y-1758D02*
X-1842D01*
X-1835Y-1756D01*
X-1832Y-1753D01*
X-1830Y-1748D01*
Y-1741D01*
X-1832Y-1735D01*
X-1835Y-1733D01*
X-1842Y-1730D01*
X-1865D01*
Y-1784D01*
X-1818Y-1730D02*
Y-1784D01*
X-1782Y-1730D02*
Y-1784D01*
X-1818Y-1756D02*
X-1782D01*
X-1752Y-1730D02*
X-1757Y-1733D01*
X-1762Y-1738D01*
X-1765Y-1743D01*
X-1767Y-1751D01*
Y-1763D01*
X-1765Y-1771D01*
X-1762Y-1776D01*
X-1757Y-1781D01*
X-1752Y-1784D01*
X-1742D01*
X-1737Y-1781D01*
X-1732Y-1776D01*
X-1729Y-1771D01*
X-1727Y-1763D01*
Y-1751D01*
X-1729Y-1743D01*
X-1732Y-1738D01*
X-1737Y-1733D01*
X-1742Y-1730D01*
X-1752D01*
X-1714D02*
Y-1784D01*
Y-1730D02*
X-1679Y-1784D01*
Y-1730D02*
Y-1784D01*
X-1631Y-1730D02*
X-1664D01*
Y-1784D01*
X-1631D01*
X-1664Y-1756D02*
X-1644D01*
X-1620Y-1748D02*
X-1622Y-1751D01*
X-1620Y-1753D01*
X-1617Y-1751D01*
X-1620Y-1748D01*
Y-1779D02*
X-1622Y-1781D01*
X-1620Y-1784D01*
X-1617Y-1781D01*
X-1620Y-1779D01*
X-1865Y-2133D02*
X-1842D01*
X-1835Y-2131D01*
X-1832Y-2128D01*
X-1830Y-2123D01*
Y-2116D01*
X-1832Y-2110D01*
X-1835Y-2108D01*
X-1842Y-2105D01*
X-1865D01*
Y-2159D01*
X-1818Y-2105D02*
Y-2159D01*
X-1782Y-2105D02*
Y-2159D01*
X-1818Y-2131D02*
X-1782D01*
X-1752Y-2105D02*
X-1757Y-2108D01*
X-1762Y-2113D01*
X-1765Y-2118D01*
X-1767Y-2126D01*
Y-2138D01*
X-1765Y-2146D01*
X-1762Y-2151D01*
X-1757Y-2156D01*
X-1752Y-2159D01*
X-1742D01*
X-1737Y-2156D01*
X-1732Y-2151D01*
X-1729Y-2146D01*
X-1727Y-2138D01*
Y-2126D01*
X-1729Y-2118D01*
X-1732Y-2113D01*
X-1737Y-2108D01*
X-1742Y-2105D01*
X-1752D01*
X-1714D02*
Y-2159D01*
Y-2105D02*
X-1679Y-2159D01*
Y-2105D02*
Y-2159D01*
X-1631Y-2105D02*
X-1664D01*
Y-2159D01*
X-1631D01*
X-1664Y-2131D02*
X-1644D01*
X-1620Y-2123D02*
X-1622Y-2126D01*
X-1620Y-2128D01*
X-1617Y-2126D01*
X-1620Y-2123D01*
Y-2154D02*
X-1622Y-2156D01*
X-1620Y-2159D01*
X-1617Y-2156D01*
X-1620Y-2154D01*
X-25Y-2283D02*
Y-2336D01*
X5D01*
X52D02*
X32Y-2283D01*
X11Y-2336D01*
X19Y-2318D02*
X44D01*
X64Y-2283D02*
X85Y-2308D01*
Y-2336D01*
X105Y-2283D02*
X85Y-2308D01*
X145Y-2283D02*
X112D01*
Y-2336D01*
X145D01*
X112Y-2308D02*
X132D01*
X154Y-2283D02*
Y-2336D01*
Y-2283D02*
X177D01*
X184Y-2285D01*
X187Y-2288D01*
X189Y-2293D01*
Y-2298D01*
X187Y-2303D01*
X184Y-2306D01*
X177Y-2308D01*
X154D01*
X171D02*
X189Y-2336D01*
X204Y-2301D02*
X201Y-2303D01*
X204Y-2306D01*
X206Y-2303D01*
X204Y-2301D01*
Y-2331D02*
X201Y-2334D01*
X204Y-2336D01*
X206Y-2334D01*
X204Y-2331D01*
X-1832Y-1543D02*
X-1865D01*
Y-1596D01*
X-1832D01*
X-1865Y-1568D02*
X-1845D01*
X-1823Y-1543D02*
Y-1596D01*
Y-1543D02*
X-1788Y-1596D01*
Y-1543D02*
Y-1596D01*
X-1735Y-1556D02*
X-1737Y-1550D01*
X-1742Y-1545D01*
X-1748Y-1543D01*
X-1758D01*
X-1763Y-1545D01*
X-1768Y-1550D01*
X-1770Y-1556D01*
X-1773Y-1563D01*
Y-1576D01*
X-1770Y-1583D01*
X-1768Y-1589D01*
X-1763Y-1594D01*
X-1758Y-1596D01*
X-1748D01*
X-1742Y-1594D01*
X-1737Y-1589D01*
X-1735Y-1583D01*
Y-1576D01*
X-1748D02*
X-1735D01*
X-1723Y-1543D02*
Y-1596D01*
X-1711Y-1543D02*
Y-1596D01*
Y-1543D02*
X-1676Y-1596D01*
Y-1543D02*
Y-1596D01*
X-1628Y-1543D02*
X-1661D01*
Y-1596D01*
X-1628D01*
X-1661Y-1568D02*
X-1641D01*
X-1586Y-1543D02*
X-1619D01*
Y-1596D01*
X-1586D01*
X-1619Y-1568D02*
X-1599D01*
X-1577Y-1543D02*
Y-1596D01*
Y-1543D02*
X-1555D01*
X-1547Y-1545D01*
X-1544Y-1548D01*
X-1542Y-1553D01*
Y-1558D01*
X-1544Y-1563D01*
X-1547Y-1566D01*
X-1555Y-1568D01*
X-1577D01*
X-1560D02*
X-1542Y-1596D01*
X-1527Y-1561D02*
X-1530Y-1563D01*
X-1527Y-1566D01*
X-1525Y-1563D01*
X-1527Y-1561D01*
Y-1591D02*
X-1530Y-1594D01*
X-1527Y-1596D01*
X-1525Y-1594D01*
X-1527Y-1591D01*
X-965Y-2033D02*
X-942D01*
X-935Y-2031D01*
X-932Y-2028D01*
X-930Y-2023D01*
Y-2016D01*
X-932Y-2010D01*
X-935Y-2008D01*
X-942Y-2005D01*
X-965D01*
Y-2059D01*
X-877D02*
X-897Y-2005D01*
X-918Y-2059D01*
X-910Y-2041D02*
X-885D01*
X-865Y-2005D02*
Y-2059D01*
Y-2005D02*
X-842D01*
X-834Y-2008D01*
X-832Y-2010D01*
X-829Y-2016D01*
Y-2021D01*
X-832Y-2026D01*
X-834Y-2028D01*
X-842Y-2031D01*
X-865D01*
X-847D02*
X-829Y-2059D01*
X-799Y-2005D02*
Y-2059D01*
X-817Y-2005D02*
X-781D01*
X-733D02*
Y-2059D01*
Y-2005D02*
X-698Y-2059D01*
Y-2005D02*
Y-2059D01*
X-668Y-2005D02*
X-673Y-2008D01*
X-678Y-2013D01*
X-680Y-2018D01*
X-683Y-2026D01*
Y-2038D01*
X-680Y-2046D01*
X-678Y-2051D01*
X-673Y-2056D01*
X-668Y-2059D01*
X-658D01*
X-653Y-2056D01*
X-647Y-2051D01*
X-645Y-2046D01*
X-642Y-2038D01*
Y-2026D01*
X-645Y-2018D01*
X-647Y-2013D01*
X-653Y-2008D01*
X-658Y-2005D01*
X-668D01*
X-627Y-2054D02*
X-630Y-2056D01*
X-627Y-2059D01*
X-625Y-2056D01*
X-627Y-2054D01*
X-611Y-2023D02*
X-613Y-2026D01*
X-611Y-2028D01*
X-608Y-2026D01*
X-611Y-2023D01*
Y-2054D02*
X-613Y-2056D01*
X-611Y-2059D01*
X-608Y-2056D01*
X-611Y-2054D01*
X-960Y-1530D02*
Y-1584D01*
X-978Y-1530D02*
X-942D01*
X-936D02*
Y-1584D01*
X-907Y-1530D02*
Y-1584D01*
X-925Y-1530D02*
X-889D01*
X-883D02*
Y-1584D01*
X-852D01*
X-813Y-1530D02*
X-846D01*
Y-1584D01*
X-813D01*
X-846Y-1556D02*
X-826D01*
X-802Y-1548D02*
X-804Y-1551D01*
X-802Y-1553D01*
X-799Y-1551D01*
X-802Y-1548D01*
Y-1579D02*
X-804Y-1581D01*
X-802Y-1584D01*
X-799Y-1581D01*
X-802Y-1579D01*
X-1865Y-1923D02*
Y-1976D01*
Y-1923D02*
X-1847D01*
X-1840Y-1925D01*
X-1835Y-1930D01*
X-1832Y-1936D01*
X-1830Y-1943D01*
Y-1956D01*
X-1832Y-1963D01*
X-1835Y-1969D01*
X-1840Y-1974D01*
X-1847Y-1976D01*
X-1865D01*
X-1818Y-1941D02*
Y-1976D01*
Y-1956D02*
X-1815Y-1948D01*
X-1810Y-1943D01*
X-1805Y-1941D01*
X-1797D01*
X-1762D02*
Y-1976D01*
Y-1948D02*
X-1767Y-1943D01*
X-1772Y-1941D01*
X-1780D01*
X-1785Y-1943D01*
X-1790Y-1948D01*
X-1792Y-1956D01*
Y-1961D01*
X-1790Y-1969D01*
X-1785Y-1974D01*
X-1780Y-1976D01*
X-1772D01*
X-1767Y-1974D01*
X-1762Y-1969D01*
X-1748Y-1941D02*
X-1738Y-1976D01*
X-1727Y-1941D02*
X-1738Y-1976D01*
X-1727Y-1941D02*
X-1717Y-1976D01*
X-1707Y-1941D02*
X-1717Y-1976D01*
X-1695Y-1941D02*
Y-1976D01*
Y-1951D02*
X-1687Y-1943D01*
X-1682Y-1941D01*
X-1674D01*
X-1669Y-1943D01*
X-1667Y-1951D01*
Y-1976D01*
X-1611Y-1923D02*
Y-1976D01*
Y-1948D02*
X-1606Y-1943D01*
X-1601Y-1941D01*
X-1593D01*
X-1588Y-1943D01*
X-1583Y-1948D01*
X-1580Y-1956D01*
Y-1961D01*
X-1583Y-1969D01*
X-1588Y-1974D01*
X-1593Y-1976D01*
X-1601D01*
X-1606Y-1974D01*
X-1611Y-1969D01*
X-1566Y-1941D02*
X-1551Y-1976D01*
X-1536Y-1941D02*
X-1551Y-1976D01*
X-1556Y-1986D01*
X-1561Y-1991D01*
X-1566Y-1994D01*
X-1569D01*
X-1525Y-1941D02*
X-1527Y-1943D01*
X-1525Y-1946D01*
X-1522Y-1943D01*
X-1525Y-1941D01*
Y-1971D02*
X-1527Y-1974D01*
X-1525Y-1976D01*
X-1522Y-1974D01*
X-1525Y-1971D01*
X-1865Y-2283D02*
Y-2336D01*
Y-2283D02*
X-1832D01*
X-1865Y-2308D02*
X-1845D01*
X-1826Y-2283D02*
Y-2336D01*
X-1815Y-2283D02*
Y-2336D01*
X-1784D01*
X-1745Y-2283D02*
X-1778D01*
Y-2336D01*
X-1745D01*
X-1778Y-2308D02*
X-1758D01*
X-1695Y-2283D02*
Y-2336D01*
Y-2283D02*
X-1659Y-2336D01*
Y-2283D02*
Y-2336D01*
X-1604D02*
X-1624Y-2283D01*
X-1644Y-2336D01*
X-1637Y-2318D02*
X-1611D01*
X-1591Y-2283D02*
Y-2336D01*
Y-2283D02*
X-1571Y-2336D01*
X-1551Y-2283D02*
X-1571Y-2336D01*
X-1551Y-2283D02*
Y-2336D01*
X-1502Y-2283D02*
X-1535D01*
Y-2336D01*
X-1502D01*
X-1535Y-2308D02*
X-1515D01*
X-1491Y-2301D02*
X-1494Y-2303D01*
X-1491Y-2306D01*
X-1489Y-2303D01*
X-1491Y-2301D01*
Y-2331D02*
X-1494Y-2334D01*
X-1491Y-2336D01*
X-1489Y-2334D01*
X-1491Y-2331D01*
X1833Y-2296D02*
X1830Y-2290D01*
X1825Y-2285D01*
X1820Y-2283D01*
X1810D01*
X1805Y-2285D01*
X1800Y-2290D01*
X1797Y-2296D01*
X1795Y-2303D01*
Y-2316D01*
X1797Y-2323D01*
X1800Y-2329D01*
X1805Y-2334D01*
X1810Y-2336D01*
X1820D01*
X1825Y-2334D01*
X1830Y-2329D01*
X1833Y-2323D01*
Y-2316D01*
X1820D02*
X1833D01*
X1878Y-2283D02*
X1845D01*
Y-2336D01*
X1878D01*
X1845Y-2308D02*
X1866D01*
X1887Y-2283D02*
Y-2336D01*
Y-2283D02*
X1910D01*
X1918Y-2285D01*
X1920Y-2288D01*
X1923Y-2293D01*
Y-2298D01*
X1920Y-2303D01*
X1918Y-2306D01*
X1910Y-2308D01*
X1887D01*
X1905D02*
X1923Y-2336D01*
X1935Y-2283D02*
Y-2336D01*
Y-2283D02*
X1957D01*
X1965Y-2285D01*
X1968Y-2288D01*
X1970Y-2293D01*
Y-2298D01*
X1968Y-2303D01*
X1965Y-2306D01*
X1957Y-2308D01*
X1935D02*
X1957D01*
X1965Y-2311D01*
X1968Y-2313D01*
X1970Y-2318D01*
Y-2326D01*
X1968Y-2331D01*
X1965Y-2334D01*
X1957Y-2336D01*
X1935D01*
X2015Y-2283D02*
X1982D01*
Y-2336D01*
X2015D01*
X1982Y-2308D02*
X2002D01*
X2024Y-2283D02*
Y-2336D01*
Y-2283D02*
X2047D01*
X2054Y-2285D01*
X2057Y-2288D01*
X2059Y-2293D01*
Y-2298D01*
X2057Y-2303D01*
X2054Y-2306D01*
X2047Y-2308D01*
X2024D01*
X2042D02*
X2059Y-2336D01*
X2074Y-2301D02*
X2071Y-2303D01*
X2074Y-2306D01*
X2077Y-2303D01*
X2074Y-2301D01*
Y-2331D02*
X2071Y-2334D01*
X2074Y-2336D01*
X2077Y-2334D01*
X2074Y-2331D01*
D43*
X1655Y-2058D02*
X1683D01*
X1667Y-2079D01*
X1675D01*
X1680Y-2081D01*
X1683Y-2084D01*
X1685Y-2091D01*
Y-2096D01*
X1683Y-2104D01*
X1678Y-2109D01*
X1670Y-2112D01*
X1662D01*
X1655Y-2109D01*
X1652Y-2107D01*
X1650Y-2101D01*
X1697Y-2119D02*
X1733Y-2058D01*
X1739Y-2071D02*
Y-2068D01*
X1741Y-2063D01*
X1744Y-2061D01*
X1749Y-2058D01*
X1759D01*
X1764Y-2061D01*
X1767Y-2063D01*
X1769Y-2068D01*
Y-2074D01*
X1767Y-2079D01*
X1762Y-2086D01*
X1736Y-2112D01*
X1772D01*
X1819Y-2058D02*
X1794Y-2112D01*
X1784Y-2058D02*
X1819D01*
X1831Y-2119D02*
X1867Y-2058D01*
X1873Y-2071D02*
Y-2068D01*
X1875Y-2063D01*
X1878Y-2061D01*
X1883Y-2058D01*
X1893D01*
X1898Y-2061D01*
X1901Y-2063D01*
X1903Y-2068D01*
Y-2074D01*
X1901Y-2079D01*
X1896Y-2086D01*
X1870Y-2112D01*
X1906D01*
X1933Y-2058D02*
X1925Y-2061D01*
X1920Y-2068D01*
X1918Y-2081D01*
Y-2089D01*
X1920Y-2101D01*
X1925Y-2109D01*
X1933Y-2112D01*
X1938D01*
X1946Y-2109D01*
X1951Y-2101D01*
X1953Y-2089D01*
Y-2081D01*
X1951Y-2068D01*
X1946Y-2061D01*
X1938Y-2058D01*
X1933D01*
X1981D02*
X1973Y-2061D01*
X1968Y-2068D01*
X1965Y-2081D01*
Y-2089D01*
X1968Y-2101D01*
X1973Y-2109D01*
X1981Y-2112D01*
X1986D01*
X1993Y-2109D01*
X1998Y-2101D01*
X2001Y-2089D01*
Y-2081D01*
X1998Y-2068D01*
X1993Y-2061D01*
X1986Y-2058D01*
X1981D01*
X2046Y-2076D02*
X2043Y-2084D01*
X2038Y-2089D01*
X2031Y-2091D01*
X2028D01*
X2020Y-2089D01*
X2015Y-2084D01*
X2013Y-2076D01*
Y-2074D01*
X2015Y-2066D01*
X2020Y-2061D01*
X2028Y-2058D01*
X2031D01*
X2038Y-2061D01*
X2043Y-2066D01*
X2046Y-2076D01*
Y-2089D01*
X2043Y-2101D01*
X2038Y-2109D01*
X2031Y-2112D01*
X2025D01*
X2018Y-2109D01*
X2015Y-2104D01*
X947Y-2091D02*
X952Y-2088D01*
X960Y-2080D01*
Y-2134D01*
X1022Y-2080D02*
X997Y-2134D01*
X987Y-2080D02*
X1022D01*
X-762Y-1391D02*
X-799Y-1295D01*
X-835Y-1391D01*
X-821Y-1359D02*
X-776D01*
X-685Y-1341D02*
X-694Y-1332D01*
X-703Y-1327D01*
X-717D01*
X-726Y-1332D01*
X-735Y-1341D01*
X-740Y-1355D01*
Y-1364D01*
X-735Y-1377D01*
X-726Y-1387D01*
X-717Y-1391D01*
X-703D01*
X-694Y-1387D01*
X-685Y-1377D01*
X-650Y-1295D02*
Y-1373D01*
X-646Y-1387D01*
X-637Y-1391D01*
X-628D01*
X-664Y-1327D02*
X-632D01*
X-605Y-1295D02*
X-600Y-1300D01*
X-596Y-1295D01*
X-600Y-1291D01*
X-605Y-1295D01*
X-600Y-1327D02*
Y-1391D01*
X-579Y-1327D02*
X-551Y-1391D01*
X-524Y-1327D02*
X-551Y-1391D01*
X-508Y-1355D02*
X-453D01*
Y-1345D01*
X-458Y-1336D01*
X-463Y-1332D01*
X-472Y-1327D01*
X-485D01*
X-495Y-1332D01*
X-504Y-1341D01*
X-508Y-1355D01*
Y-1364D01*
X-504Y-1377D01*
X-495Y-1387D01*
X-485Y-1391D01*
X-472D01*
X-463Y-1387D01*
X-453Y-1377D01*
X-357Y-1295D02*
X-335Y-1391D01*
X-312Y-1295D02*
X-335Y-1391D01*
X-312Y-1295D02*
X-289Y-1391D01*
X-266Y-1295D02*
X-289Y-1391D01*
X-192Y-1327D02*
Y-1391D01*
Y-1341D02*
X-201Y-1332D01*
X-210Y-1327D01*
X-224D01*
X-233Y-1332D01*
X-242Y-1341D01*
X-247Y-1355D01*
Y-1364D01*
X-242Y-1377D01*
X-233Y-1387D01*
X-224Y-1391D01*
X-210D01*
X-201Y-1387D01*
X-192Y-1377D01*
X-166Y-1327D02*
X-139Y-1391D01*
X-112Y-1327D02*
X-139Y-1391D01*
X-96Y-1355D02*
X-41D01*
Y-1345D01*
X-46Y-1336D01*
X-50Y-1332D01*
X-59Y-1327D01*
X-73D01*
X-82Y-1332D01*
X-91Y-1341D01*
X-96Y-1355D01*
Y-1364D01*
X-91Y-1377D01*
X-82Y-1387D01*
X-73Y-1391D01*
X-59D01*
X-50Y-1387D01*
X-41Y-1377D01*
X-165Y-1658D02*
Y-1754D01*
X-197Y-1658D02*
X-133D01*
X-67Y-1690D02*
Y-1754D01*
Y-1704D02*
X-76Y-1695D01*
X-85Y-1690D01*
X-99D01*
X-108Y-1695D01*
X-117Y-1704D01*
X-122Y-1717D01*
Y-1727D01*
X-117Y-1740D01*
X-108Y-1749D01*
X-99Y-1754D01*
X-85D01*
X-76Y-1749D01*
X-67Y-1740D01*
X14Y-1690D02*
Y-1763D01*
X9Y-1777D01*
X5Y-1781D01*
X-5Y-1786D01*
X-18D01*
X-27Y-1781D01*
X14Y-1704D02*
X5Y-1695D01*
X-5Y-1690D01*
X-18D01*
X-27Y-1695D01*
X-37Y-1704D01*
X-41Y-1717D01*
Y-1727D01*
X-37Y-1740D01*
X-27Y-1749D01*
X-18Y-1754D01*
X-5D01*
X5Y-1749D01*
X14Y-1740D01*
X39Y-1676D02*
X48Y-1672D01*
X62Y-1658D01*
Y-1754D01*
X137Y-1658D02*
X123Y-1663D01*
X114Y-1676D01*
X110Y-1699D01*
Y-1713D01*
X114Y-1736D01*
X123Y-1749D01*
X137Y-1754D01*
X146D01*
X160Y-1749D01*
X169Y-1736D01*
X174Y-1713D01*
Y-1699D01*
X169Y-1676D01*
X160Y-1663D01*
X146Y-1658D01*
X137D01*
X200Y-1681D02*
Y-1676D01*
X204Y-1667D01*
X209Y-1663D01*
X218Y-1658D01*
X236D01*
X245Y-1663D01*
X250Y-1667D01*
X255Y-1676D01*
Y-1685D01*
X250Y-1695D01*
X241Y-1708D01*
X195Y-1754D01*
X259D01*
D44*
X-538Y-196D02*
D03*
X-438D02*
D03*
X-637D02*
D03*
X-738D02*
D03*
D45*
X-338D02*
D03*
D46*
X-1787Y-725D02*
D03*
D47*
X-837Y-676D02*
D03*
X-1765Y49D02*
D03*
X-838Y64D02*
D03*
D48*
X-417Y-677D02*
D03*
D49*
X-1187Y-297D02*
D03*
X-692Y-377D02*
D03*
X-990Y-520D02*
D03*
X-621Y-280D02*
D03*
X-641Y-424D02*
D03*
X-572Y-248D02*
D03*
X-744Y34D02*
D03*
X-618Y-3D02*
D03*
X-577Y-97D02*
D03*
X-632Y-60D02*
D03*
X-668Y-61D02*
D03*
X-693Y-560D02*
D03*
X-615Y-495D02*
D03*
X-770Y-247D02*
D03*
X-1521Y-112D02*
D03*
X-1031Y-250D02*
D03*
X-915Y-573D02*
D03*
X-902Y-188D02*
D03*
X-951Y-243D02*
D03*
X-1085Y-124D02*
D03*
X-1048Y-449D02*
D03*
X-1135Y-70D02*
D03*
X-1119Y-197D02*
D03*
X-1027Y-186D02*
D03*
X-995Y-277D02*
D03*
X-911Y-44D02*
D03*
X-978Y-704D02*
D03*
X-1050Y-705D02*
D03*
X-1392Y-536D02*
D03*
X-1085Y-585D02*
D03*
X-1606Y-356D02*
D03*
X-1555Y-226D02*
D03*
X-1581Y-51D02*
D03*
X-1602Y16D02*
D03*
X-1689Y-79D02*
D03*
X-1722Y-134D02*
D03*
X-1677Y20D02*
D03*
X-1764Y-287D02*
D03*
X-1774Y-472D02*
D03*
X-1297Y-485D02*
D03*
X-1451Y-98D02*
D03*
X-1386D02*
D03*
X-1524Y89D02*
D03*
X-1185Y-573D02*
D03*
X-1567Y-489D02*
D03*
X-1544Y-348D02*
D03*
X-1097Y-365D02*
D03*
X-1263Y-452D02*
D03*
X-1417Y-260D02*
D03*
X-1454Y18D02*
D03*
X-1014Y-332D02*
D03*
X-837Y-475D02*
D03*
X-1278Y-11D02*
D03*
X-1238D02*
D03*
X-1308Y-156D02*
D03*
X-886Y-357D02*
D03*
X-785Y-350D02*
D03*
X-1075Y-59D02*
D03*
X-1201Y-136D02*
D03*
X-1315Y-193D02*
D03*
X-1156Y-195D02*
D03*
X-1196Y-63D02*
D03*
X-1327Y-41D02*
D03*
X-1492Y-418D02*
D03*
X-1054Y92D02*
D03*
X-909D02*
D03*
X-1035Y49D02*
D03*
X-1420Y92D02*
D03*
X-714Y150D02*
D03*
X-567Y-662D02*
D03*
X-985Y20D02*
D03*
X-1330Y-80D02*
D03*
X-1369Y113D02*
D03*
X-1275Y-120D02*
D03*
X-220Y-445D02*
D03*
X-180Y-285D02*
D03*
D50*
X-1765Y49D02*
D03*
D51*
X-1171Y-650D02*
D03*
X-919D02*
D03*
D52*
X-702Y30D02*
D03*
X-72Y25D02*
D03*
D53*
X-387Y110D02*
D03*
D54*
Y-414D02*
D03*
D55*
X-1690Y-349D02*
D03*
X-1265D02*
D03*
X-1690Y-601D02*
D03*
X-1265D02*
D03*
D56*
X-1786Y-726D02*
X-1730Y-782D01*
X14D01*
M02*
