%FSLAX24Y24*%
%MOIN*%
G70*
G01*
G75*
G04 Layer_Physical_Order=6*
G04 Layer_Color=65280*
%ADD10C,0.0120*%
%ADD11R,0.0394X0.0197*%
%ADD12R,0.0300X0.0300*%
%ADD13C,0.0400*%
%ADD14R,0.0200X0.0500*%
%ADD15R,0.0591X0.0315*%
%ADD16R,0.0300X0.0300*%
%ADD17R,0.0551X0.0354*%
%ADD18R,0.0354X0.0551*%
%ADD19R,0.0250X0.0550*%
%ADD20R,0.0250X0.0520*%
%ADD21R,0.0250X0.0950*%
%ADD22R,0.0550X0.0250*%
%ADD23R,0.0950X0.0250*%
%ADD24R,0.0600X0.0270*%
%ADD25R,0.0236X0.1100*%
%ADD26R,0.1000X0.0236*%
%ADD27R,0.0700X0.0500*%
%ADD28O,0.0160X0.0600*%
%ADD29R,0.0236X0.0236*%
%ADD30O,0.0160X0.0600*%
%ADD31R,0.0394X0.0394*%
%ADD32R,0.0200X0.0300*%
%ADD33O,0.0240X0.0800*%
%ADD34R,0.0472X0.0472*%
%ADD35R,0.0600X0.0500*%
%ADD36R,0.0360X0.0500*%
%ADD37R,0.0360X0.0360*%
%ADD38R,0.1500X0.0500*%
%ADD39R,0.0394X0.0413*%
%ADD40R,0.0413X0.0866*%
%ADD41R,0.0394X0.0413*%
%ADD42O,0.0600X0.0160*%
%ADD43R,0.0500X0.0200*%
%ADD44R,0.0360X0.0360*%
%ADD45R,0.0500X0.0360*%
%ADD46R,0.0315X0.0591*%
%ADD47R,0.0700X0.0236*%
%ADD48C,0.0120*%
%ADD49C,0.0500*%
%ADD50C,0.0140*%
%ADD51C,0.0100*%
%ADD52C,0.0150*%
%ADD53C,0.0200*%
%ADD54C,0.0080*%
%ADD55C,0.0250*%
%ADD56C,0.0300*%
%ADD57C,0.0090*%
%ADD58C,0.0050*%
%ADD59R,0.0620X0.0620*%
%ADD60C,0.0620*%
%ADD61R,0.0620X0.0620*%
%ADD62C,0.0200*%
%ADD63C,0.0180*%
%ADD64C,0.0400*%
G04:AMPARAMS|DCode=65|XSize=67mil|YSize=67mil|CornerRadius=0mil|HoleSize=0mil|Usage=FLASHONLY|Rotation=0.000|XOffset=0mil|YOffset=0mil|HoleType=Round|Shape=Relief|Width=8mil|Gap=8mil|Entries=4|*
%AMTHD65*
7,0,0,0.0670,0.0510,0.0080,45*
%
%ADD65THD65*%
%ADD66C,0.0750*%
%ADD67C,0.0500*%
G04:AMPARAMS|DCode=68|XSize=42mil|YSize=42mil|CornerRadius=0mil|HoleSize=0mil|Usage=FLASHONLY|Rotation=0.000|XOffset=0mil|YOffset=0mil|HoleType=Round|Shape=Relief|Width=8mil|Gap=8mil|Entries=4|*
%AMTHD68*
7,0,0,0.0420,0.0260,0.0080,45*
%
%ADD68THD68*%
%ADD69C,0.0600*%
G04:AMPARAMS|DCode=70|XSize=52mil|YSize=52mil|CornerRadius=0mil|HoleSize=0mil|Usage=FLASHONLY|Rotation=0.000|XOffset=0mil|YOffset=0mil|HoleType=Round|Shape=Relief|Width=8mil|Gap=8mil|Entries=4|*
%AMTHD70*
7,0,0,0.0520,0.0360,0.0080,45*
%
%ADD70THD70*%
%ADD71R,0.0748X0.0591*%
%ADD72O,0.0140X0.0600*%
%ADD73R,0.0800X0.0600*%
%ADD74O,0.0157X0.0472*%
%ADD75R,0.2500X0.1400*%
%ADD76R,0.2500X0.1500*%
%ADD77R,0.0400X0.0400*%
%ADD78R,0.0800X0.2700*%
%ADD79R,0.0800X0.1600*%
%ADD80C,0.0157*%
%ADD81C,0.0220*%
%ADD82C,0.0060*%
D12*
X24965Y11446D02*
D03*
Y3746D02*
D03*
Y10246D02*
D03*
Y9046D02*
D03*
Y6646D02*
D03*
Y7846D02*
D03*
Y6046D02*
D03*
Y4846D02*
D03*
X1164Y12400D02*
D03*
X1764D02*
D03*
X1544Y8358D02*
D03*
X2144D02*
D03*
X1544Y9058D02*
D03*
X2144D02*
D03*
X1519Y6793D02*
D03*
X919D02*
D03*
X2664Y6339D02*
D03*
X3264D02*
D03*
X2614Y2239D02*
D03*
X2014D02*
D03*
X10100Y3600D02*
D03*
X9500D02*
D03*
X10700D02*
D03*
X11300D02*
D03*
X10100Y3000D02*
D03*
X9500D02*
D03*
X16100Y12950D02*
D03*
X15500D02*
D03*
X24365Y6646D02*
D03*
Y7846D02*
D03*
Y3746D02*
D03*
Y6046D02*
D03*
Y9046D02*
D03*
Y10246D02*
D03*
Y11446D02*
D03*
X11000Y8350D02*
D03*
X10400D02*
D03*
X17150Y1700D02*
D03*
X17750D02*
D03*
X9855Y11975D02*
D03*
X10454D02*
D03*
X16750Y12950D02*
D03*
X17350D02*
D03*
X13950D02*
D03*
X14550D02*
D03*
X20319Y12265D02*
D03*
X19719D02*
D03*
X20380Y2481D02*
D03*
X19780D02*
D03*
X9800Y8350D02*
D03*
X9200D02*
D03*
X19780Y1751D02*
D03*
X20380D02*
D03*
X24965Y4296D02*
D03*
X24365D02*
D03*
X24965Y5446D02*
D03*
X24365D02*
D03*
Y7246D02*
D03*
X24965D02*
D03*
X24365Y9646D02*
D03*
X24965D02*
D03*
X24365Y10846D02*
D03*
X24965D02*
D03*
X24365Y12046D02*
D03*
X24965D02*
D03*
X27850Y2050D02*
D03*
X27250D02*
D03*
X26300Y12950D02*
D03*
X26900D02*
D03*
X24365Y4846D02*
D03*
X15950Y1700D02*
D03*
X16550D02*
D03*
X24965Y8446D02*
D03*
X24365D02*
D03*
D13*
X27800Y13550D02*
D03*
X0Y0D02*
D03*
X7150Y12100D02*
D03*
X16900Y1000D02*
D03*
X16686Y195D02*
D03*
X17686D02*
D03*
X10850Y12950D02*
D03*
X11850D02*
D03*
X23765Y12996D02*
D03*
X22765D02*
D03*
X18350Y12950D02*
D03*
X23315Y10896D02*
D03*
X21915D02*
D03*
Y11596D02*
D03*
X9500Y2250D02*
D03*
X11000Y5600D02*
D03*
X16690Y7041D02*
D03*
X23315Y11746D02*
D03*
X18300Y10600D02*
D03*
X19945Y10646D02*
D03*
X18794Y5495D02*
D03*
X8200Y6750D02*
D03*
X17500Y7050D02*
D03*
X22939Y5972D02*
D03*
X12200Y10150D02*
D03*
X14685Y195D02*
D03*
X17500Y6400D02*
D03*
X16688D02*
D03*
X8850Y12950D02*
D03*
X9850D02*
D03*
X15685Y195D02*
D03*
X20765Y12996D02*
D03*
X21765D02*
D03*
X394Y3808D02*
D03*
X2527Y12390D02*
D03*
X894Y8308D02*
D03*
X394Y7808D02*
D03*
Y8308D02*
D03*
Y9808D02*
D03*
Y10308D02*
D03*
Y10808D02*
D03*
Y11308D02*
D03*
Y12308D02*
D03*
Y12808D02*
D03*
Y13308D02*
D03*
X394Y4308D02*
D03*
X394Y11808D02*
D03*
D14*
X21080Y2001D02*
D03*
X21460D02*
D03*
X21830D02*
D03*
Y3001D02*
D03*
X21080D02*
D03*
D16*
X27766Y7001D02*
D03*
Y6401D02*
D03*
X15450Y6400D02*
D03*
Y7000D02*
D03*
X5564Y2832D02*
D03*
Y3432D02*
D03*
X2294Y1383D02*
D03*
Y783D02*
D03*
X1794Y789D02*
D03*
Y1389D02*
D03*
X387Y6346D02*
D03*
Y5746D02*
D03*
X987Y5046D02*
D03*
Y4446D02*
D03*
X7440Y7182D02*
D03*
Y6582D02*
D03*
X21265Y10646D02*
D03*
Y11246D02*
D03*
X14750Y6400D02*
D03*
Y7000D02*
D03*
X11300Y4300D02*
D03*
Y4900D02*
D03*
Y6350D02*
D03*
Y6950D02*
D03*
X8300Y8950D02*
D03*
Y9550D02*
D03*
X16069Y7000D02*
D03*
Y6400D02*
D03*
X19169Y10515D02*
D03*
Y11115D02*
D03*
X22515Y11496D02*
D03*
Y10896D02*
D03*
X25650Y13200D02*
D03*
Y12600D02*
D03*
X18815Y4646D02*
D03*
Y4046D02*
D03*
X7450Y8350D02*
D03*
Y8950D02*
D03*
X16500Y8350D02*
D03*
X15900D02*
D03*
X16500Y7750D02*
D03*
X15900D02*
D03*
X4450Y1400D02*
D03*
Y2000D02*
D03*
X27766Y4901D02*
D03*
Y5501D02*
D03*
Y8501D02*
D03*
Y7901D02*
D03*
D17*
X19950Y3506D02*
D03*
Y4294D02*
D03*
D18*
X21220Y4049D02*
D03*
X22008D02*
D03*
D24*
X-984Y11701D02*
D03*
Y11201D02*
D03*
Y10701D02*
D03*
Y10201D02*
D03*
Y9701D02*
D03*
Y9201D02*
D03*
Y8701D02*
D03*
Y8201D02*
D03*
Y7701D02*
D03*
Y7201D02*
D03*
Y6701D02*
D03*
Y6201D02*
D03*
Y5701D02*
D03*
Y5201D02*
D03*
Y4701D02*
D03*
Y4201D02*
D03*
Y3701D02*
D03*
Y3201D02*
D03*
Y2701D02*
D03*
Y2201D02*
D03*
Y1701D02*
D03*
Y1201D02*
D03*
Y701D02*
D03*
Y12201D02*
D03*
Y12701D02*
D03*
D36*
X27380Y600D02*
D03*
X26270Y12250D02*
D03*
D37*
X27750Y1400D02*
D03*
X27000D02*
D03*
X26650Y11450D02*
D03*
X25900D02*
D03*
D48*
X17500Y6400D02*
X17630Y6080D01*
X21263Y11247D02*
X21265Y11246D01*
X21167Y9767D02*
Y10220D01*
X21265Y10317D01*
X20911Y9482D02*
Y9767D01*
X20656D02*
Y10358D01*
X20368Y10646D02*
X20656Y10358D01*
X19829Y11185D02*
X19946Y11068D01*
X19829Y11185D02*
Y11775D01*
X20319Y12265D01*
X19946Y10646D02*
X20368D01*
X20914D02*
X21265D01*
Y10317D02*
Y10646D01*
X21120Y12011D02*
Y12350D01*
X20970Y12500D02*
X21120Y12350D01*
X20969Y12500D02*
Y12580D01*
Y12500D02*
X20970D01*
X20530Y11030D02*
Y11421D01*
Y11030D02*
X20914Y10646D01*
X20530Y11421D02*
X21120Y12011D01*
X22515Y11496D02*
Y11785D01*
X22410Y11890D02*
X22515Y11785D01*
X22200Y11890D02*
X22410D01*
X20911Y9261D02*
Y9767D01*
X20910Y9260D02*
X20911Y9261D01*
X15297Y12121D02*
Y12747D01*
X15398Y12848D01*
X15553Y12121D02*
Y12483D01*
X15670Y12600D01*
X16010D01*
X16110Y12700D01*
X15160Y13290D02*
X15500Y12950D01*
X14270Y13290D02*
X15160D01*
X13950Y12950D02*
Y13190D01*
X14050Y13290D01*
X14270D01*
X14270Y13290D01*
X16270Y13430D02*
X17030D01*
X16110Y13270D02*
X16270Y13430D01*
X16470Y12800D02*
X16600D01*
X16750Y12950D01*
X15809Y9050D02*
Y9531D01*
X15800Y9540D02*
X15809Y9531D01*
X19946Y10646D02*
Y11068D01*
X15809Y2059D02*
Y2400D01*
X15010Y1200D02*
Y1470D01*
X15170Y1630D01*
X15380D02*
X15809Y2059D01*
X15170Y1630D02*
X15380D01*
X16110Y12700D02*
Y13270D01*
D50*
X9800Y8350D02*
X10400D01*
X24365Y9046D02*
Y9646D01*
X24010Y9190D02*
X24154Y9046D01*
X24365D01*
D51*
X17110Y1660D02*
X17600Y2150D01*
X17110Y1480D02*
Y1660D01*
X16910Y1280D02*
X17110Y1480D01*
X28110Y4540D02*
Y10700D01*
X26050Y13200D02*
X26690Y12560D01*
X27980Y10830D02*
X28110Y10700D01*
X26690Y11960D02*
Y12560D01*
X26560Y11830D02*
X26690Y11960D01*
X26400Y11830D02*
X26560D01*
X26270Y11700D02*
X26400Y11830D01*
X26270Y11000D02*
Y11700D01*
Y11000D02*
X26440Y10830D01*
X27980D01*
X26650Y11450D02*
X26900Y11700D01*
Y12950D01*
X25650Y13200D02*
X26050D01*
X2012Y2896D02*
Y3186D01*
X19340Y10140D02*
X19595Y9885D01*
Y9276D02*
Y9885D01*
X20348Y10348D02*
X20350Y10350D01*
X20029Y10348D02*
X20348D01*
X19888Y10206D02*
X20029Y10348D01*
X20259Y9261D02*
X20911D01*
X20144Y9376D02*
X20259Y9261D01*
X20144Y9376D02*
Y9767D01*
X18794Y5495D02*
Y5906D01*
Y4667D02*
Y5495D01*
X16900Y1000D02*
X16910Y990D01*
X16900Y1000D02*
X16910Y1010D01*
Y1280D01*
Y1000D02*
Y1010D01*
Y990D02*
Y1000D01*
Y720D02*
Y990D01*
X19169Y11115D02*
Y13300D01*
Y11013D02*
Y11115D01*
X22455Y5976D02*
Y6688D01*
Y5726D02*
Y5976D01*
X22703Y6224D01*
X22191Y6240D02*
X22455Y5976D01*
X15297Y5471D02*
Y5773D01*
Y5043D02*
Y5471D01*
X22447Y9767D02*
Y10298D01*
Y9466D02*
Y9767D01*
X7390Y2360D02*
X7390D01*
X6830D02*
X7390D01*
X18880Y13730D02*
X22800D01*
X18700Y13550D02*
X18880Y13730D01*
X22800D02*
X22960Y13570D01*
X22627Y13560D02*
X22765Y13423D01*
X19429Y13560D02*
X22627D01*
X19169Y13300D02*
X19429Y13560D01*
X17030Y11480D02*
X18510D01*
X16832Y11678D02*
X17030Y11480D01*
X18700Y11670D02*
Y13550D01*
X18510Y11480D02*
X18700Y11670D01*
X16832Y11678D02*
Y12121D01*
X27460Y3890D02*
X28110Y4540D01*
X27460Y2440D02*
Y3890D01*
Y2440D02*
X27850Y2050D01*
X27370Y4900D02*
X27765D01*
X27766Y4901D01*
X25300Y13020D02*
X25430Y12890D01*
X26010Y12510D02*
X26270Y12250D01*
X26010Y12510D02*
Y12810D01*
X25930Y12890D02*
X26010Y12810D01*
X25430Y12890D02*
X25930D01*
X25300Y13020D02*
Y13150D01*
X22960Y13570D02*
X25280D01*
X25650Y13200D01*
X22765Y12996D02*
Y13423D01*
Y12996D02*
X23099Y13330D01*
X25120D01*
X25300Y13150D01*
X17760Y10740D02*
X17900Y10600D01*
X18300D01*
X15980Y10740D02*
X17760D01*
X15810Y10910D02*
X15980Y10740D01*
X15810Y10910D02*
Y11380D01*
X12170Y3950D02*
X12470Y3650D01*
X11000Y5600D02*
X11300Y5300D01*
Y4900D02*
Y5300D01*
X9180Y3790D02*
X9432Y4042D01*
X9180Y3320D02*
Y3790D01*
X9500Y2250D02*
Y3000D01*
X9180Y3320D02*
X9500Y3000D01*
X9432Y4042D02*
Y4330D01*
X9500Y3600D02*
X9540Y3640D01*
Y3880D01*
X9688Y4028D01*
Y4330D01*
X10060Y3640D02*
X10100Y3600D01*
X10060Y3640D02*
Y3900D01*
X9944Y4016D02*
X10060Y3900D01*
X9944Y4016D02*
Y4330D01*
X10600Y3700D02*
X10700Y3600D01*
X10600Y3700D02*
Y3880D01*
X10520Y3960D02*
X10600Y3880D01*
X10240Y3960D02*
X10520D01*
X10200Y4000D02*
X10240Y3960D01*
X10200Y4000D02*
Y4330D01*
X10590Y4900D02*
X11300D01*
X10455Y4765D02*
X10590Y4900D01*
X10455Y4330D02*
Y4765D01*
X11300Y3600D02*
X11320Y3620D01*
Y3870D01*
X11260Y3930D02*
X11320Y3870D01*
X10780Y3930D02*
X11260D01*
X10711Y3999D02*
X10780Y3930D01*
X10711Y3999D02*
Y4330D01*
X6840Y9630D02*
Y10170D01*
Y9630D02*
X6990Y9480D01*
X7310D01*
X7450Y9340D01*
Y8950D02*
Y9340D01*
X11180Y9170D02*
X11200Y9150D01*
X11030Y9170D02*
X11180D01*
X11000Y9140D02*
X11030Y9170D01*
X11000Y8350D02*
Y9140D01*
X11200Y9150D02*
X11290Y9240D01*
X11800D01*
X10454Y12190D02*
X10460D01*
X10454Y11975D02*
Y12190D01*
X10460D02*
X10850Y12580D01*
X11050Y12380D02*
X11540D01*
X10850Y12580D02*
Y12950D01*
X11930Y11350D02*
Y11990D01*
X10850Y12580D02*
X11050Y12380D01*
X11540D02*
X11930Y11990D01*
Y11350D02*
X12050Y11230D01*
X16300Y4660D02*
X16550Y4910D01*
X15980Y4660D02*
X16300D01*
X15870Y4770D02*
X15980Y4660D01*
X15870Y4770D02*
Y4990D01*
X15809Y5051D02*
X15870Y4990D01*
X15809Y5051D02*
Y5471D01*
X12430Y11650D02*
Y12210D01*
X13660D02*
X14270D01*
X14530Y12930D02*
X14550Y12950D01*
X14530Y12580D02*
Y12930D01*
X13320Y12410D02*
X13490Y12580D01*
X13320Y9030D02*
Y12410D01*
X14270Y12210D02*
X14273Y12207D01*
Y12121D02*
Y12207D01*
X11690Y7960D02*
X12620Y8890D01*
X11500Y7960D02*
X11690D01*
X15809Y11381D02*
X15810Y11380D01*
X15809Y11381D02*
Y12121D01*
X13120Y9120D02*
Y11300D01*
X12670Y11750D02*
X13120Y11300D01*
X14810Y10520D02*
X16670D01*
X14500Y10830D02*
X14810Y10520D01*
X12170Y8170D02*
X12980Y8980D01*
Y8980D02*
X13120Y9120D01*
X12170Y7050D02*
Y8170D01*
X12370Y8080D02*
X13320Y9030D01*
X12370Y6980D02*
Y8080D01*
X11580Y6460D02*
X12170Y7050D01*
X11770Y6380D02*
X12370Y6980D01*
X14050Y4390D02*
X14720Y3720D01*
X16160D01*
X16350Y3530D01*
Y3300D02*
Y3530D01*
Y3300D02*
X16832Y2818D01*
Y2400D02*
Y2818D01*
X15730Y3220D02*
X16100D01*
X16576Y2744D01*
Y2400D02*
Y2744D01*
X13900Y4150D02*
X14570Y3480D01*
X15470D01*
X15730Y3220D01*
X18799Y5490D02*
X19410D01*
X18794Y5495D02*
X18799Y5490D01*
X17360Y3110D02*
Y3310D01*
X17088Y2838D02*
X17360Y3110D01*
X17088Y2400D02*
Y2838D01*
X18530Y4710D02*
Y5250D01*
X18439Y5341D02*
X18530Y5250D01*
X18450Y4630D02*
X18530Y4710D01*
X18300Y4630D02*
X18450D01*
X18439Y5341D02*
Y5775D01*
X17330Y4110D02*
X17570Y3870D01*
Y2970D02*
Y3870D01*
X17344Y2744D02*
X17570Y2970D01*
X17344Y2400D02*
Y2744D01*
X14470Y6060D02*
Y6720D01*
Y6060D02*
X14640Y5890D01*
X14470Y6720D02*
X14750Y7000D01*
X14640Y5890D02*
X15180D01*
X15297Y5773D01*
Y5043D02*
X15440Y4900D01*
X15610D01*
X18460Y7270D02*
Y7870D01*
X18670Y8080D01*
X15450Y6760D02*
Y7000D01*
X18709Y9100D02*
X19030Y9421D01*
Y9646D01*
X19320Y8916D02*
Y9830D01*
X18779Y10371D02*
X19320Y9830D01*
X19214Y8810D02*
X19320Y8916D01*
X18779Y10371D02*
Y10623D01*
X16320Y8530D02*
X16500Y8350D01*
X16320Y8530D02*
Y9050D01*
X15900Y8350D02*
X16065Y8515D01*
Y9050D01*
X16690Y7041D02*
X17088Y6643D01*
Y5471D02*
Y6643D01*
X14050Y10340D02*
X16600D01*
X17344Y9596D01*
Y9050D02*
Y9596D01*
X14140Y10160D02*
X16548D01*
X17088Y9050D02*
Y9620D01*
X16548Y10160D02*
X17088Y9620D01*
X16832Y9050D02*
Y9620D01*
X14220Y9970D02*
X16482D01*
X16832Y9620D01*
X14280Y1360D02*
X14520Y1600D01*
X13520Y9810D02*
X14050Y10340D01*
X13670Y1620D02*
Y3230D01*
X12550Y4350D02*
Y5300D01*
Y4350D02*
X13670Y3230D01*
X13520Y8940D02*
Y9810D01*
X12860Y8280D02*
X13520Y8940D01*
X12860Y5610D02*
Y8280D01*
X12550Y5300D02*
X12860Y5610D01*
X13670Y1620D02*
X13930Y1360D01*
X14280D01*
X14520Y1600D02*
X14860D01*
X15041Y1781D01*
Y2400D01*
X14570Y1770D02*
X14785Y1985D01*
X13870Y1710D02*
Y3310D01*
X13700Y9720D02*
X14140Y10160D01*
X13700Y8840D02*
Y9720D01*
X13050Y8190D02*
X13700Y8840D01*
X13050Y5520D02*
Y8190D01*
X12750Y4430D02*
X13870Y3310D01*
X12750Y5220D02*
X13050Y5520D01*
X12750Y4430D02*
Y5220D01*
X14785Y1985D02*
Y2400D01*
X14410Y1770D02*
X14570D01*
X14190Y1550D02*
X14410Y1770D01*
X14030Y1550D02*
X14190D01*
X13870Y1710D02*
X14030Y1550D01*
X13890Y9640D02*
X14220Y9970D01*
X13890Y8750D02*
Y9640D01*
X13250Y5440D02*
Y8110D01*
X13890Y8750D01*
X14300Y9780D02*
X16420D01*
X13450Y4280D02*
Y8040D01*
X14080Y9560D02*
X14300Y9780D01*
X13450Y8040D02*
X14080Y8670D01*
Y9560D01*
X12950Y4510D02*
X14072Y3388D01*
X12950Y5140D02*
X13250Y5440D01*
X12950Y4510D02*
Y5140D01*
X14072Y2110D02*
Y3388D01*
Y2110D02*
X14212Y1970D01*
X14430D01*
X14529Y2069D01*
Y2400D01*
X13450Y4280D02*
X14273Y3457D01*
Y2400D02*
Y3457D01*
X16420Y9780D02*
X16576Y9624D01*
Y9050D02*
Y9624D01*
X14273Y7783D02*
X15041Y8551D01*
Y9050D01*
X14060Y7840D02*
X14785Y8565D01*
Y9050D01*
X14700Y4610D02*
X15041Y4951D01*
X13660Y7980D02*
X14273Y8593D01*
X13660Y4950D02*
Y7980D01*
X14273Y8593D02*
Y9050D01*
X13660Y4950D02*
X14000Y4610D01*
X14700D01*
X15041Y4951D02*
Y5471D01*
X14530Y4770D02*
X14785Y5025D01*
X14110Y4770D02*
X14530D01*
X13860Y7910D02*
X14529Y8579D01*
X13860Y5020D02*
Y7910D01*
Y5020D02*
X14110Y4770D01*
X14785Y5025D02*
Y5471D01*
X14529Y8579D02*
Y9050D01*
X14060Y5110D02*
Y7840D01*
Y5110D02*
X14210Y4960D01*
X14400D01*
X14529Y5089D01*
Y5471D01*
X14273D02*
Y7783D01*
X17500Y7050D02*
X18240D01*
X18460Y7270D01*
X15050Y6700D02*
X15390D01*
X15450Y6760D01*
X14750Y6400D02*
X15050Y6700D01*
X14750Y6140D02*
X14830Y6060D01*
X14750Y6140D02*
Y6400D01*
X14830Y6060D02*
X15440D01*
X15553Y5947D01*
Y5471D02*
Y5947D01*
X16320Y5471D02*
Y5990D01*
X15450Y6400D02*
X15730Y6120D01*
X16190D01*
X16320Y5990D01*
X16576Y5471D02*
Y6054D01*
X16069Y6400D02*
X16149Y6320D01*
X16310D01*
X16576Y6054D01*
X15720Y6670D02*
X16418D01*
X16688Y6400D01*
X15450D02*
X15720Y6670D01*
X16686Y195D02*
X16690Y200D01*
Y500D01*
X16910Y720D01*
X18794Y4667D02*
X18815Y4646D01*
X2294Y466D02*
X2428Y332D01*
X1799Y783D02*
X2294D01*
Y466D02*
Y783D01*
X2428Y332D02*
X2840D01*
X1222Y8680D02*
X1544Y8358D01*
X-489Y8201D02*
X-10Y8680D01*
X1222D01*
X-984Y8201D02*
X-489D01*
X1275Y9806D02*
X1467D01*
X16Y9401D02*
X870D01*
X1275Y9806D01*
X-284Y9701D02*
X16Y9401D01*
X-984Y9701D02*
X-284D01*
X1076Y9101D02*
X1382Y9407D01*
X-134Y9101D02*
X1076D01*
X-234Y9201D02*
X-134Y9101D01*
X-984Y9201D02*
X-234D01*
X1337Y8851D02*
X1544Y9058D01*
X-184Y8851D02*
X1337D01*
X-334Y8701D02*
X-184Y8851D01*
X-984Y8701D02*
X-334D01*
X3390Y280D02*
Y868D01*
X3140Y30D02*
X3390Y280D01*
X4394Y5864D02*
X4689D01*
Y5568D02*
Y5864D01*
Y2714D02*
X4689Y3009D01*
X4394Y2714D02*
X4689Y2714D01*
X1539Y5568D02*
Y5864D01*
X1835D01*
X1539Y2714D02*
X1835D01*
X1539D02*
Y3009D01*
X21423Y6282D02*
Y6696D01*
X2004Y4139D02*
X2012Y4131D01*
X1697Y4139D02*
X2004D01*
X18709Y8645D02*
Y9100D01*
Y8645D02*
X18884Y8470D01*
X18509Y6180D02*
X18884Y6555D01*
Y8470D01*
X18509Y5845D02*
Y6180D01*
X18975Y8655D02*
X19044Y8587D01*
X18975Y8655D02*
Y8998D01*
X19044Y6445D02*
Y8587D01*
X18848Y6250D02*
X19044Y6445D01*
X18848Y5960D02*
Y6250D01*
X4514Y4236D02*
X4714D01*
X4409Y4131D02*
X4514Y4236D01*
X4216Y4131D02*
X4409D01*
X2122Y1060D02*
X2802D01*
X2814Y1073D01*
X3264Y6704D02*
X3380Y6820D01*
Y7256D01*
X3264Y6339D02*
Y6704D01*
X987Y5046D02*
Y5616D01*
X1794Y789D02*
X1799Y783D01*
X1794Y1389D02*
X2122Y1060D01*
X3264Y6339D02*
X3272Y6336D01*
X3264Y6339D02*
X3272Y6331D01*
Y5391D02*
Y6331D01*
X2012Y2241D02*
X2014Y2239D01*
X1427Y4446D02*
X2012D01*
X1287Y4586D02*
X1427Y4446D01*
X1287Y4586D02*
Y4746D01*
X987Y5046D02*
X1287Y4746D01*
X2642Y6316D02*
X2664Y6339D01*
X2642Y6361D02*
X2664Y6339D01*
X2642Y6361D02*
Y6730D01*
X18794Y5906D02*
X18848Y5960D01*
X22805Y11236D02*
X23315Y11746D01*
X22805Y10656D02*
Y11236D01*
X22515Y10637D02*
Y10896D01*
X22191Y10314D02*
X22515Y10637D01*
X18439Y5775D02*
X18509Y5845D01*
X23955Y8446D02*
X24365D01*
X23965Y7246D02*
X24365D01*
X19595Y9276D02*
X19888Y8983D01*
Y6696D02*
Y8983D01*
Y9767D02*
Y10206D01*
X23212Y6694D02*
X23215Y6696D01*
X21676Y9764D02*
X21679Y9767D01*
X22703D02*
Y10284D01*
X23315Y10896D01*
X22191Y9767D02*
Y10314D01*
X21915Y11445D02*
Y11596D01*
Y11445D02*
X22243Y11116D01*
Y10716D02*
Y11116D01*
X21935Y10408D02*
X22243Y10716D01*
X21935Y9767D02*
Y10408D01*
X21679Y9767D02*
Y10661D01*
X21915Y10896D01*
X22959Y9767D02*
Y10231D01*
X23223Y10496D01*
X23483D01*
X23643Y10656D01*
X23215Y9767D02*
Y10167D01*
X23343Y10296D01*
X23563D01*
X23823Y10556D01*
X18685Y195D02*
Y195D01*
X18779Y10623D02*
X19169Y11013D01*
X22191Y6240D02*
Y6696D01*
X22447D02*
X22455Y6688D01*
X22703Y6224D02*
Y6696D01*
X21423Y6282D02*
X21555Y6151D01*
X21679Y6276D01*
Y6696D01*
X24415Y12996D02*
X24765D01*
X23823Y12405D02*
X24415Y12996D01*
X23823Y10556D02*
Y12405D01*
X23643Y12515D02*
X23765Y12636D01*
Y12996D01*
X23643Y10656D02*
Y12515D01*
X7390Y1982D02*
Y2360D01*
X7390Y1982D02*
X7390Y1982D01*
X7200Y3020D02*
Y4672D01*
X7380Y4852D01*
X24010Y9500D02*
Y9891D01*
X24365Y10246D01*
X24080Y11161D02*
X24365Y11446D01*
X24080Y10600D02*
Y11161D01*
X21423Y9223D02*
Y9767D01*
X21050Y8460D02*
Y8850D01*
X21423Y9223D01*
X22385Y9205D02*
Y9404D01*
X22370Y9190D02*
X22385Y9205D01*
Y9404D02*
X22447Y9466D01*
X22447Y10298D02*
X22805Y10656D01*
X23300Y8820D02*
X23670Y9190D01*
X23300Y7320D02*
X23589Y7031D01*
Y6570D02*
Y7031D01*
X23300Y7320D02*
Y8820D01*
X21050Y7460D02*
X21300D01*
X21423Y7337D01*
Y6696D02*
Y7337D01*
X23215Y6696D02*
Y7105D01*
X22870Y7230D02*
X23090D01*
X23215Y7105D01*
X19400Y7230D02*
Y7690D01*
X19214Y7876D02*
Y8810D01*
Y7876D02*
X19400Y7690D01*
X24359Y3740D02*
X24365Y3746D01*
X24365D02*
Y4296D01*
X16320Y2070D02*
Y2400D01*
X15950Y1700D02*
X16320Y2070D01*
X17600Y2150D02*
Y2400D01*
X16576Y12121D02*
Y12506D01*
X16690Y12620D01*
X17020D01*
X17350Y12950D01*
X17344Y12121D02*
Y12424D01*
X17630Y12710D01*
X17600Y12121D02*
Y12440D01*
X17810Y12650D01*
X17420Y13640D02*
X17630Y13430D01*
Y12710D02*
Y13430D01*
X12830Y13630D02*
X13010Y13810D01*
X12830Y12970D02*
Y13630D01*
Y12970D02*
X12850Y12950D01*
X13010Y13810D02*
X17490D01*
X17810Y13490D01*
Y12650D02*
Y13490D01*
X13230D02*
X13380Y13640D01*
X13230Y12700D02*
Y13490D01*
X13090Y12560D02*
X13230Y12700D01*
X12240Y12560D02*
X13090D01*
X11850Y12950D02*
X12240Y12560D01*
X13380Y13640D02*
X17420D01*
X17088Y11772D02*
Y12121D01*
Y11772D02*
X17180Y11680D01*
X17730D01*
X17850Y11800D01*
Y12430D01*
X18060Y12950D02*
X18350D01*
X17850Y12430D02*
X17980Y12560D01*
Y12870D01*
X18060Y12950D01*
X17600Y9050D02*
Y9560D01*
X17730Y9690D01*
Y9980D01*
X17580Y10130D02*
X17730Y9980D01*
X17060Y10130D02*
X17580D01*
X10454Y11975D02*
X10460Y11969D01*
X16670Y10520D02*
X17060Y10130D01*
X21486Y11596D02*
X21915D01*
X21490Y10950D02*
X21861D01*
X21915Y10896D01*
X22866Y11746D02*
X23315D01*
X16320Y11380D02*
Y12121D01*
X16320Y11380D02*
X16320Y11380D01*
X16065Y11165D02*
Y12121D01*
Y11165D02*
X16070Y11160D01*
X15041Y10831D02*
Y12121D01*
X15040Y10830D02*
X15041Y10831D01*
X15553Y8613D02*
Y9050D01*
X15300Y8360D02*
X15553Y8613D01*
X12590Y6490D02*
Y7880D01*
X12360Y4130D02*
X13290Y3200D01*
X15553Y2400D02*
Y2957D01*
X15310Y3200D02*
X15553Y2957D01*
X20750Y7460D02*
Y8760D01*
X21167Y6696D02*
Y7043D01*
X20750Y7460D02*
X21167Y7043D01*
X17686Y195D02*
Y706D01*
X18010Y1030D01*
X17344Y4406D02*
Y5471D01*
X17600Y4420D02*
Y5471D01*
X17344Y4406D02*
X17810Y3940D01*
X17775Y4245D02*
X17990Y4030D01*
X18190Y691D02*
X18685Y195D01*
X17600Y4420D02*
X17775Y4245D01*
X16500Y8350D02*
X17020D01*
X17270Y8100D01*
X21935Y8365D02*
X21940Y8370D01*
X21935Y6696D02*
Y8365D01*
X27000Y1400D02*
Y1800D01*
X27250Y2050D01*
X27240Y460D02*
X27380Y600D01*
X26960Y460D02*
X27240D01*
X16510Y680D02*
Y810D01*
Y680D02*
X16690Y500D01*
X20144Y5496D02*
X20380Y5260D01*
X22900D01*
X23090Y5070D01*
Y3850D02*
Y5070D01*
X20144Y5496D02*
Y6696D01*
X23090Y3850D02*
X23200Y3740D01*
X24359D01*
X20911Y5569D02*
Y6696D01*
Y5569D02*
X21020Y5460D01*
X23010D01*
X23270Y5200D01*
Y4810D02*
Y5200D01*
Y4810D02*
X23430Y4650D01*
X24115D01*
X24205Y4560D01*
X25300D01*
X25560Y4300D01*
Y2893D02*
X26035Y2417D01*
X25560Y2893D02*
Y4300D01*
X17810Y2090D02*
X18010Y1890D01*
X17810Y2090D02*
Y3940D01*
X18010Y1030D02*
Y1890D01*
X17990Y2180D02*
X18190Y1980D01*
X17990Y2180D02*
Y4030D01*
X18190Y691D02*
Y1980D01*
X12620Y8890D02*
Y9470D01*
X12920Y9770D02*
Y11160D01*
X12620Y9470D02*
X12920Y9770D01*
X12430Y11650D02*
X12920Y11160D01*
X11800Y9240D02*
Y9750D01*
X12200Y10150D01*
X11580Y5820D02*
X11660Y5740D01*
Y4830D02*
Y5740D01*
Y4830D02*
X11980Y4510D01*
Y3650D02*
Y4510D01*
X11580Y5820D02*
Y6460D01*
X11770Y5920D02*
X11850Y5840D01*
Y4930D02*
Y5840D01*
Y4930D02*
X12170Y4610D01*
X14529Y12121D02*
Y12580D01*
X12170Y3950D02*
Y4610D01*
X11770Y5920D02*
Y6380D01*
X13490Y12580D02*
X14530D01*
X12360Y4130D02*
Y4670D01*
X12010Y5020D02*
X12360Y4670D01*
X12010Y5020D02*
Y5910D01*
X12590Y6490D01*
X19743Y-1498D02*
Y-2564D01*
X19210D01*
X19032Y-2386D01*
Y-2209D01*
X19210Y-2031D01*
X19743D01*
X19210D01*
X19032Y-1853D01*
Y-1676D01*
X19210Y-1498D01*
X19743D01*
X18143D02*
X18499D01*
X18677Y-1676D01*
Y-2386D01*
X18499Y-2564D01*
X18143D01*
X17966Y-2386D01*
Y-1676D01*
X18143Y-1498D01*
X17610D02*
X16899D01*
X17255D01*
Y-2564D01*
X16544Y-1498D02*
X15833D01*
X16189D01*
Y-2564D01*
X14945Y-1498D02*
X15300D01*
X15478Y-1676D01*
Y-2386D01*
X15300Y-2564D01*
X14945D01*
X14767Y-2386D01*
Y-1676D01*
X14945Y-1498D01*
X14411Y-2564D02*
Y-1498D01*
X14056Y-1853D01*
X13700Y-1498D01*
Y-2564D01*
X12279Y-1498D02*
Y-2564D01*
X11568D01*
X11212D02*
Y-1853D01*
X10857Y-1498D01*
X10502Y-1853D01*
Y-2564D01*
Y-2031D01*
X11212D01*
X10146Y-1498D02*
Y-1676D01*
X9791Y-2031D01*
X9435Y-1676D01*
Y-1498D01*
X9791Y-2031D02*
Y-2564D01*
X8369Y-1498D02*
X9080D01*
Y-2564D01*
X8369D01*
X9080Y-2031D02*
X8724D01*
X8013Y-2564D02*
Y-1498D01*
X7480D01*
X7303Y-1676D01*
Y-2031D01*
X7480Y-2209D01*
X8013D01*
X7658D02*
X7303Y-2564D01*
X8250Y13340D02*
Y12740D01*
X7950D01*
X7850Y12840D01*
Y13240D01*
X7950Y13340D01*
X8250D01*
X13780Y20D02*
X13880Y120D01*
X14080D01*
X14180Y20D01*
Y-380D01*
X14080Y-480D01*
X13880D01*
X13780Y-380D01*
X26380Y14000D02*
X26780D01*
Y13400D01*
X26380D01*
X26780Y13700D02*
X26580D01*
X35851Y-13606D02*
G03*
X35361Y-13116I-490J0D01*
G01*
X24351D02*
G03*
X23851Y-13616I0J-500D01*
G01*
X35351Y-12616D02*
G03*
X35851Y-12116I0J500D01*
G01*
X23851D02*
G03*
X24351Y-12616I500J0D01*
G01*
X-6649Y-5366D02*
G03*
X-7649Y-6366I0J-1000D01*
G01*
Y-17356D02*
G03*
X-6656Y-18366I1010J0D01*
G01*
X35351Y-18366D02*
G03*
X36351Y-17366I0J1000D01*
G01*
Y-6366D02*
G03*
X35351Y-5366I-1000J0D01*
G01*
X35851Y-6356D02*
G03*
X35344Y-5866I-490J0D01*
G01*
X35351Y-15366D02*
G03*
X35851Y-14866I0J500D01*
G01*
X35851Y-16357D02*
G03*
X35351Y-15866I-500J-9D01*
G01*
Y-17866D02*
G03*
X35851Y-17366I0J500D01*
G01*
X22851Y-15366D02*
G03*
X23351Y-14866I0J500D01*
G01*
X23851Y-14876D02*
G03*
X24350Y-15366I490J0D01*
G01*
X23351Y-13606D02*
G03*
X22861Y-13116I-490J0D01*
G01*
X-7149Y-17366D02*
G03*
X-6658Y-17866I500J0D01*
G01*
X22860Y-12616D02*
G03*
X23351Y-12116I-9J500D01*
G01*
X-6649Y-15866D02*
G03*
X-7149Y-16366I0J-500D01*
G01*
X23351Y-8866D02*
G03*
X22851Y-8366I-500J0D01*
G01*
Y-7866D02*
G03*
X23351Y-7366I0J500D01*
G01*
X24351Y-5866D02*
G03*
X23851Y-6366I0J-500D01*
G01*
X23351D02*
G03*
X22851Y-5866I-500J0D01*
G01*
X-6649D02*
G03*
X-7149Y-6366I0J-500D01*
G01*
Y-7366D02*
G03*
X-6649Y-7866I500J0D01*
G01*
Y-8366D02*
G03*
X-7149Y-8866I0J-500D01*
G01*
Y-11116D02*
G03*
X-6649Y-11616I500J0D01*
G01*
Y-12116D02*
G03*
X-7149Y-12616I0J-500D01*
G01*
Y-14866D02*
G03*
X-6658Y-15366I500J0D01*
G01*
X2351Y-8366D02*
G03*
X1851Y-8866I0J-500D01*
G01*
X2351Y-13116D02*
G03*
X1851Y-13616I0J-500D01*
G01*
X19831Y-13116D02*
G03*
X19352Y-13621I0J-480D01*
G01*
X19351Y-14856D02*
G03*
X19852Y-15366I510J0D01*
G01*
X18361Y-15366D02*
G03*
X18851Y-14867I0J490D01*
G01*
X18851Y-13606D02*
G03*
X18361Y-13116I-490J0D01*
G01*
X861Y-15366D02*
G03*
X1351Y-14876I0J490D01*
G01*
X1851D02*
G03*
X2341Y-15366I490J0D01*
G01*
X1851Y-12126D02*
G03*
X2341Y-12616I490J0D01*
G01*
X1351Y-12606D02*
G03*
X844Y-12116I-490J0D01*
G01*
X871Y-11616D02*
G03*
X1351Y-11136I0J480D01*
G01*
Y-8856D02*
G03*
X861Y-8366I-490J0D01*
G01*
X29851Y-15866D02*
G03*
X29351Y-16366I0J-500D01*
G01*
Y-17376D02*
G03*
X29850Y-17866I490J0D01*
G01*
X28363Y-17866D02*
G03*
X28851Y-17369I8J480D01*
G01*
X28851Y-16366D02*
G03*
X28351Y-15866I-500J0D01*
G01*
X11101Y-17366D02*
G03*
X11592Y-17866I500J0D01*
G01*
X11601Y-15866D02*
G03*
X11101Y-16366I0J-500D01*
G01*
X10113Y-17866D02*
G03*
X10601Y-17369I8J480D01*
G01*
X10601Y-16366D02*
G03*
X10101Y-15866I-500J0D01*
G01*
X35851Y-14866D02*
Y-13606D01*
X23851Y-14866D02*
Y-13616D01*
X35851Y-12116D02*
Y-6366D01*
X23851Y-12116D02*
Y-6366D01*
X-7649Y-17366D02*
Y-6366D01*
X-7149Y-17366D02*
Y-16366D01*
X35851Y-17366D02*
Y-16366D01*
X23351Y-14866D02*
Y-13616D01*
X19351Y-14866D02*
Y-13616D01*
X1851Y-14866D02*
Y-13616D01*
X18851Y-14866D02*
Y-13616D01*
X1851Y-12116D02*
Y-8866D01*
X23351Y-12116D02*
Y-8866D01*
Y-7366D02*
Y-6366D01*
X-7149Y-7366D02*
Y-6366D01*
X1351Y-11116D02*
Y-8866D01*
X-7149Y-11116D02*
Y-8866D01*
X1351Y-14866D02*
Y-12616D01*
X-7149Y-14866D02*
Y-12616D01*
X36351Y-17366D02*
Y-6366D01*
X29351Y-17366D02*
Y-16366D01*
X28851Y-17366D02*
Y-16366D01*
X11101Y-17366D02*
Y-16366D01*
X10601Y-17366D02*
Y-16366D01*
X24351Y-13116D02*
X35351D01*
X24351Y-12616D02*
X35351D01*
X2351D02*
X22851D01*
X24351Y-5866D02*
X35351D01*
X24351Y-15366D02*
X35351D01*
X19851Y-13116D02*
X22851D01*
X19851Y-15366D02*
X22851D01*
X2351D02*
X18351D01*
X2351Y-13116D02*
X18351D01*
X2351Y-8366D02*
X22851D01*
X-6649Y-7866D02*
X22851D01*
X-6649Y-8366D02*
X851D01*
X-6649Y-11616D02*
X851D01*
X-6649Y-12116D02*
X851D01*
X-6649Y-15366D02*
X851D01*
X-6649Y-5366D02*
X35351D01*
X-6649Y-18366D02*
X35351D01*
X-6649Y-5866D02*
X22851D01*
X29851Y-15866D02*
X35351D01*
X29851Y-17866D02*
X35351D01*
X11601Y-15866D02*
X28351D01*
X-6649D02*
X10101D01*
X-6649Y-17866D02*
X10101D01*
X11601D02*
X28351D01*
X27710Y-9190D02*
X27604Y-9084D01*
X27391D01*
X27284Y-9190D01*
Y-9297D01*
X27391Y-9404D01*
X27604D01*
X27710Y-9510D01*
Y-9617D01*
X27604Y-9723D01*
X27391D01*
X27284Y-9617D01*
X27924Y-9297D02*
Y-9617D01*
X28030Y-9723D01*
X28350D01*
Y-9297D01*
X28564Y-9723D02*
X28777D01*
X28670D01*
Y-9297D01*
X28564D01*
X29203Y-9190D02*
Y-9297D01*
X29097D01*
X29310D01*
X29203D01*
Y-9617D01*
X29310Y-9723D01*
X29950D02*
X29737D01*
X29630Y-9617D01*
Y-9404D01*
X29737Y-9297D01*
X29950D01*
X30056Y-9404D01*
Y-9510D01*
X29630D01*
X30909Y-9723D02*
X31123D01*
X31016D01*
Y-9084D01*
X30909Y-9190D01*
X31443Y-9723D02*
X31656D01*
X31549D01*
Y-9084D01*
X31443Y-9190D01*
X31976D02*
X32082Y-9084D01*
X32296D01*
X32402Y-9190D01*
Y-9297D01*
X32296Y-9404D01*
X32402Y-9510D01*
Y-9617D01*
X32296Y-9723D01*
X32082D01*
X31976Y-9617D01*
Y-9510D01*
X32082Y-9404D01*
X31976Y-9297D01*
Y-9190D01*
X32082Y-9404D02*
X32296D01*
X26911Y-11234D02*
X26484D01*
Y-11554D01*
X26697Y-11447D01*
X26804D01*
X26911Y-11554D01*
Y-11767D01*
X26804Y-11873D01*
X26591D01*
X26484Y-11767D01*
X27550Y-11234D02*
X27337Y-11340D01*
X27124Y-11554D01*
Y-11767D01*
X27230Y-11873D01*
X27444D01*
X27550Y-11767D01*
Y-11660D01*
X27444Y-11554D01*
X27124D01*
X27764Y-11873D02*
X27977D01*
X27870D01*
Y-11234D01*
X27764Y-11340D01*
X28297Y-11554D02*
X28723D01*
X28937Y-11767D02*
X29043Y-11873D01*
X29256D01*
X29363Y-11767D01*
Y-11340D01*
X29256Y-11234D01*
X29043D01*
X28937Y-11340D01*
Y-11447D01*
X29043Y-11554D01*
X29363D01*
X29576Y-11767D02*
X29683Y-11873D01*
X29896D01*
X30003Y-11767D01*
Y-11340D01*
X29896Y-11234D01*
X29683D01*
X29576Y-11340D01*
Y-11447D01*
X29683Y-11554D01*
X30003D01*
X30216Y-11767D02*
X30323Y-11873D01*
X30536D01*
X30643Y-11767D01*
Y-11340D01*
X30536Y-11234D01*
X30323D01*
X30216Y-11340D01*
Y-11447D01*
X30323Y-11554D01*
X30643D01*
X30856D02*
X31282D01*
X31496Y-11767D02*
X31602Y-11873D01*
X31816D01*
X31922Y-11767D01*
Y-11340D01*
X31816Y-11234D01*
X31602D01*
X31496Y-11340D01*
Y-11447D01*
X31602Y-11554D01*
X31922D01*
X32455Y-11873D02*
Y-11234D01*
X32135Y-11554D01*
X32562D01*
X33202Y-11873D02*
X32775D01*
X33202Y-11447D01*
Y-11340D01*
X33095Y-11234D01*
X32882D01*
X32775Y-11340D01*
X33842Y-11873D02*
X33415D01*
X33842Y-11447D01*
Y-11340D01*
X33735Y-11234D01*
X33522D01*
X33415Y-11340D01*
X24334Y-8567D02*
X24441Y-8673D01*
X24654D01*
X24760Y-8567D01*
Y-8140D01*
X24654Y-8034D01*
X24441D01*
X24334Y-8140D01*
Y-8247D01*
X24441Y-8354D01*
X24760D01*
X24974Y-8140D02*
X25080Y-8034D01*
X25294D01*
X25400Y-8140D01*
Y-8567D01*
X25294Y-8673D01*
X25080D01*
X24974Y-8567D01*
Y-8140D01*
X26040Y-8673D02*
X25614D01*
X26040Y-8247D01*
Y-8140D01*
X25933Y-8034D01*
X25720D01*
X25614Y-8140D01*
X27320D02*
X27213Y-8034D01*
X27000D01*
X26893Y-8140D01*
Y-8567D01*
X27000Y-8673D01*
X27213D01*
X27320Y-8567D01*
X27533Y-8673D02*
X27746D01*
X27640D01*
Y-8034D01*
X27533D01*
X28066Y-8673D02*
X28279D01*
X28173D01*
Y-8247D01*
X28066D01*
X28599Y-8673D02*
Y-8247D01*
X28919D01*
X29026Y-8354D01*
Y-8673D01*
X29346Y-8140D02*
Y-8247D01*
X29239D01*
X29452D01*
X29346D01*
Y-8567D01*
X29452Y-8673D01*
X30412D02*
Y-8034D01*
X30625Y-8247D01*
X30839Y-8034D01*
Y-8673D01*
X31158D02*
X31372D01*
X31478Y-8567D01*
Y-8354D01*
X31372Y-8247D01*
X31158D01*
X31052Y-8354D01*
Y-8567D01*
X31158Y-8673D01*
X31798D02*
X32011D01*
X32118Y-8567D01*
Y-8354D01*
X32011Y-8247D01*
X31798D01*
X31692Y-8354D01*
Y-8567D01*
X31798Y-8673D01*
X32331Y-8247D02*
Y-8673D01*
Y-8460D01*
X32438Y-8354D01*
X32545Y-8247D01*
X32651D01*
X33291Y-8673D02*
X33078D01*
X32971Y-8567D01*
Y-8354D01*
X33078Y-8247D01*
X33291D01*
X33398Y-8354D01*
Y-8460D01*
X32971D01*
X34251Y-8673D02*
Y-8034D01*
X34571D01*
X34677Y-8140D01*
Y-8354D01*
X34571Y-8460D01*
X34251D01*
X34464D02*
X34677Y-8673D01*
X35317Y-8034D02*
Y-8673D01*
X34997D01*
X34891Y-8567D01*
Y-8354D01*
X34997Y-8247D01*
X35317D01*
X35530Y-8673D02*
Y-8567D01*
X35637D01*
Y-8673D01*
X35530D01*
X25934Y-10034D02*
Y-10673D01*
X26254D01*
X26360Y-10567D01*
Y-10460D01*
X26254Y-10354D01*
X25934D01*
X26254D01*
X26360Y-10247D01*
Y-10140D01*
X26254Y-10034D01*
X25934D01*
X26680Y-10673D02*
X26894D01*
X27000Y-10567D01*
Y-10354D01*
X26894Y-10247D01*
X26680D01*
X26574Y-10354D01*
Y-10567D01*
X26680Y-10673D01*
X27640Y-10247D02*
X27320D01*
X27214Y-10354D01*
Y-10567D01*
X27320Y-10673D01*
X27640D01*
X27960Y-10247D02*
X28173D01*
X28280Y-10354D01*
Y-10673D01*
X27960D01*
X27853Y-10567D01*
X27960Y-10460D01*
X28280D01*
X29133Y-10673D02*
Y-10034D01*
X29453D01*
X29559Y-10140D01*
Y-10354D01*
X29453Y-10460D01*
X29133D01*
X29346D02*
X29559Y-10673D01*
X29879Y-10247D02*
X30093D01*
X30199Y-10354D01*
Y-10673D01*
X29879D01*
X29773Y-10567D01*
X29879Y-10460D01*
X30199D01*
X30519Y-10140D02*
Y-10247D01*
X30413D01*
X30626D01*
X30519D01*
Y-10567D01*
X30626Y-10673D01*
X31052D02*
X31266D01*
X31372Y-10567D01*
Y-10354D01*
X31266Y-10247D01*
X31052D01*
X30946Y-10354D01*
Y-10567D01*
X31052Y-10673D01*
X31585D02*
Y-10247D01*
X31905D01*
X32012Y-10354D01*
Y-10673D01*
X33292Y-10034D02*
X32865D01*
Y-10354D01*
X33078D01*
X32865D01*
Y-10673D01*
X33505Y-10034D02*
Y-10673D01*
X33931D01*
X34145D02*
Y-10567D01*
X34251D01*
Y-10673D01*
X34145D01*
X-1484Y-349D02*
X-834D01*
Y-749D02*
Y-349D01*
Y-749D02*
X19466D01*
Y-549D01*
X20516D01*
Y-749D02*
Y-549D01*
Y-749D02*
X28416D01*
Y14151D01*
X20516D02*
X28416D01*
X20516Y13951D02*
Y14151D01*
X19466Y13951D02*
X20516D01*
X19466D02*
Y14151D01*
X-834D02*
X19466D01*
X-834Y13751D02*
Y14151D01*
X-1484Y13751D02*
X-834D01*
X-1484Y-349D02*
Y13751D01*
D52*
X10710Y6950D02*
X11300D01*
X11160Y690D02*
Y2150D01*
X21500Y12210D02*
Y12731D01*
X21765Y12996D01*
X10140Y12330D02*
Y12660D01*
Y11160D02*
Y12330D01*
X-984Y12701D02*
X-534D01*
X-1084D02*
X-984D01*
X25900Y11450D02*
Y11910D01*
X27000Y5501D02*
X27766D01*
X26760Y8501D02*
X27766D01*
X25630Y10600D02*
X26035Y10194D01*
X25630Y10600D02*
Y11136D01*
X26035Y9926D02*
Y10194D01*
X25320Y11446D02*
X25630Y11136D01*
X24965Y11446D02*
X25320D01*
X26035Y9417D02*
X26035Y9926D01*
X27060Y7001D02*
X27766D01*
X1022Y12808D02*
X1160Y12670D01*
Y12404D02*
X1164Y12400D01*
X1160Y12404D02*
Y12670D01*
X394Y12808D02*
X1022D01*
X11660Y2650D02*
Y3940D01*
X11160Y2150D02*
X11660Y2650D01*
X11300Y4300D02*
X11660Y3940D01*
X10690Y3000D02*
X10780Y3090D01*
Y3260D01*
X10100Y3000D02*
X10690D01*
X10450Y5780D02*
Y6190D01*
X10610Y6350D01*
X10455Y6505D02*
X10610Y6350D01*
X11300D01*
X10455Y6505D02*
Y6850D01*
X11180Y7340D02*
X11300Y7220D01*
Y6950D02*
Y7220D01*
X10710Y6851D02*
X10711Y6850D01*
X10710Y6851D02*
Y6950D01*
X9850Y12950D02*
X10140Y12660D01*
Y11160D02*
X10350Y10950D01*
X11200D01*
X9000Y8950D02*
X9200Y9150D01*
X8300Y8950D02*
X9000D01*
X8300Y9550D02*
Y10280D01*
X9270Y8010D02*
X9450D01*
X9200Y8080D02*
X9270Y8010D01*
X9200Y8080D02*
Y8350D01*
X11415Y12830D02*
Y13615D01*
Y12830D02*
X12150Y12095D01*
Y11580D02*
Y12095D01*
X11590Y8220D02*
X12370Y9000D01*
X11390Y8220D02*
X11590D01*
X11180Y8010D02*
X11390Y8220D01*
X15220Y7870D02*
X15450Y7640D01*
X14730Y7870D02*
X15220D01*
X14520Y7550D02*
X14750Y7320D01*
Y7000D02*
Y7320D01*
X15920Y7410D02*
X16069Y7261D01*
Y7000D02*
Y7261D01*
X4250Y2300D02*
X4380D01*
X4450Y2230D01*
Y2000D02*
Y2230D01*
X-1084Y8201D02*
X-984D01*
X-1084Y9701D02*
X-984D01*
X-1084Y9201D02*
X-984D01*
X-1084Y8701D02*
X-984D01*
X24965Y6646D02*
X25048D01*
X25288Y6406D01*
X24965Y7846D02*
X24968D01*
X25288Y7526D01*
X24965Y3746D02*
X25252Y3459D01*
X26035Y3417D02*
X26516Y3897D01*
Y5666D01*
X26266Y5916D02*
X26516Y5666D01*
X25601Y5916D02*
X26266D01*
X25471Y6046D02*
X25601Y5916D01*
X24965Y6046D02*
X25471D01*
X25589Y6864D02*
X26035Y6417D01*
X25589Y6864D02*
Y8422D01*
X24965Y9046D02*
X25589Y8422D01*
X25578Y8875D02*
X26036Y8417D01*
X72Y13308D02*
X394D01*
X-534Y12701D02*
X72Y13308D01*
X1651Y6661D02*
X1839D01*
X1519Y6793D02*
X1651Y6661D01*
X22959Y5992D02*
Y6696D01*
X22939Y5972D02*
X22959Y5992D01*
X22939Y5972D02*
X23464D01*
X23538Y6046D01*
X24365D01*
Y6646D02*
Y7246D01*
Y10246D02*
Y10846D01*
Y11446D02*
Y12046D01*
Y6046D02*
X24965Y5446D01*
X24365Y7846D02*
Y8446D01*
X7440Y5532D02*
Y6582D01*
Y7182D02*
X7830Y7180D01*
X20820Y11260D02*
X21251D01*
X21265Y11246D01*
X21265D01*
X24670Y9951D02*
X24965Y10246D01*
X24670Y9440D02*
X24750Y9360D01*
X25578Y8875D02*
Y9190D01*
X25408Y9360D02*
X25578Y9190D01*
X24670Y9440D02*
Y9951D01*
X24750Y9360D02*
X25408D01*
X23684Y7246D02*
X24365D01*
X23570Y7360D02*
X23684Y7246D01*
X24071Y5740D02*
X24365Y5446D01*
X23820Y5740D02*
X24071D01*
X23820Y4991D02*
Y5740D01*
Y4991D02*
X23964Y4847D01*
X24364D01*
X24365Y4846D01*
X24965Y4296D02*
X24974D01*
X25270Y4000D01*
X25252Y2728D02*
Y3459D01*
X25500Y953D02*
Y2480D01*
Y953D02*
X26035Y417D01*
X25252Y2728D02*
X25500Y2480D01*
X24660Y8141D02*
X24965Y8446D01*
X24660Y7551D02*
X24965Y7246D01*
X24660Y7551D02*
Y8141D01*
X8850Y12110D02*
Y12950D01*
Y12110D02*
X8980Y11980D01*
X9849D01*
X9855Y11975D01*
X8140Y10440D02*
X8300Y10280D01*
X7150Y12100D02*
X7860D01*
X8140Y11820D01*
Y10440D02*
Y11820D01*
X27750Y1400D02*
X27970D01*
X28160Y1590D02*
Y2430D01*
X27990Y2600D02*
X28160Y2430D01*
X27850Y2600D02*
X27990D01*
X27970Y1400D02*
X28160Y1590D01*
X8300Y9550D02*
X8510Y9760D01*
X8860D01*
X12150Y11580D02*
X12690Y11040D01*
X9200Y9150D02*
Y10210D01*
X11710Y10470D02*
X12000Y10760D01*
X9200Y10210D02*
X9460Y10470D01*
X11710D01*
X12370Y9000D02*
Y9540D01*
X12690Y9860D01*
X15240Y7760D02*
X15450Y7550D01*
X12000Y10760D02*
X12690D01*
X11180Y7340D02*
Y8010D01*
X15450Y7000D02*
Y7640D01*
X12690Y9860D02*
Y11040D01*
X24834Y-7623D02*
Y-6957D01*
X25167Y-6624D01*
X25500Y-6957D01*
Y-7623D01*
Y-7124D01*
X24834D01*
X26500Y-6957D02*
X26000D01*
X25834Y-7124D01*
Y-7457D01*
X26000Y-7623D01*
X26500D01*
X27000Y-6790D02*
Y-6957D01*
X26833D01*
X27167D01*
X27000D01*
Y-7457D01*
X27167Y-7623D01*
X27666D02*
X28000D01*
X27833D01*
Y-6957D01*
X27666D01*
X28499D02*
X28833Y-7623D01*
X29166Y-6957D01*
X29999Y-7623D02*
X29666D01*
X29499Y-7457D01*
Y-7124D01*
X29666Y-6957D01*
X29999D01*
X30166Y-7124D01*
Y-7290D01*
X29499D01*
X31498Y-6624D02*
Y-7623D01*
X31832Y-7290D01*
X32165Y-7623D01*
Y-6624D01*
X32665Y-6957D02*
X32998D01*
X33165Y-7124D01*
Y-7623D01*
X32665D01*
X32498Y-7457D01*
X32665Y-7290D01*
X33165D01*
X33498Y-6957D02*
X33831Y-7623D01*
X34164Y-6957D01*
X34997Y-7623D02*
X34664D01*
X34498Y-7457D01*
Y-7124D01*
X34664Y-6957D01*
X34997D01*
X35164Y-7124D01*
Y-7290D01*
X34498D01*
X-3394Y16348D02*
X-3060D01*
X-3227D01*
Y17348D01*
X-3394Y17181D01*
X-2561Y16348D02*
X-2227D01*
X-2394D01*
Y17348D01*
X-2561Y17181D01*
X-1728Y16348D02*
X-1394Y16681D01*
Y17014D01*
X-1728Y17348D01*
X105D02*
Y16348D01*
Y16848D01*
X772D01*
Y17348D01*
Y16348D01*
X1105D02*
Y17014D01*
X1438Y17348D01*
X1771Y17014D01*
Y16348D01*
Y16848D01*
X1105D01*
X2771Y17181D02*
X2604Y17348D01*
X2271D01*
X2105Y17181D01*
Y17014D01*
X2271Y16848D01*
X2604D01*
X2771Y16681D01*
Y16515D01*
X2604Y16348D01*
X2271D01*
X2105Y16515D01*
X3104Y17348D02*
Y16348D01*
X3771D01*
X5603Y17348D02*
X5270D01*
X5104Y17181D01*
Y16515D01*
X5270Y16348D01*
X5603D01*
X5770Y16515D01*
Y17181D01*
X5603Y17348D01*
X6103Y16348D02*
Y17348D01*
X6770Y16348D01*
Y17348D01*
X8103Y16348D02*
Y17014D01*
X8436Y17348D01*
X8769Y17014D01*
Y16348D01*
Y16848D01*
X8103D01*
X9102Y17348D02*
Y16348D01*
X9769D01*
X10102Y17348D02*
Y16348D01*
X10768D01*
X12101D02*
Y17348D01*
X12601D01*
X12768Y17181D01*
Y16848D01*
X12601Y16681D01*
X12101D01*
X13101Y16348D02*
Y17014D01*
X13434Y17348D01*
X13767Y17014D01*
Y16348D01*
Y16848D01*
X13101D01*
X14101Y17348D02*
Y16348D01*
X14601D01*
X14767Y16515D01*
Y17181D01*
X14601Y17348D01*
X14101D01*
X15767Y17181D02*
X15600Y17348D01*
X15267D01*
X15100Y17181D01*
Y17014D01*
X15267Y16848D01*
X15600D01*
X15767Y16681D01*
Y16515D01*
X15600Y16348D01*
X15267D01*
X15100Y16515D01*
X17100Y16348D02*
Y17014D01*
X17433Y17348D01*
X17766Y17014D01*
Y16348D01*
Y16848D01*
X17100D01*
X18099Y16348D02*
Y17348D01*
X18766Y16348D01*
Y17348D01*
X19099D02*
Y16348D01*
X19599D01*
X19766Y16515D01*
Y17181D01*
X19599Y17348D01*
X19099D01*
X21098D02*
Y16681D01*
X21432Y16348D01*
X21765Y16681D01*
Y17348D01*
X22098D02*
X22431D01*
X22265D01*
Y16348D01*
X22098D01*
X22431D01*
X22931D02*
Y17014D01*
X23264Y17348D01*
X23598Y17014D01*
Y16348D01*
Y16848D01*
X22931D01*
X24597Y17181D02*
X24431Y17348D01*
X24097D01*
X23931Y17181D01*
Y17014D01*
X24097Y16848D01*
X24431D01*
X24597Y16681D01*
Y16515D01*
X24431Y16348D01*
X24097D01*
X23931Y16515D01*
X-2727Y34348D02*
X-3394D01*
X-2727Y35014D01*
Y35181D01*
X-2894Y35348D01*
X-3227D01*
X-3394Y35181D01*
X-2394Y34348D02*
X-2061Y34681D01*
Y35014D01*
X-2394Y35348D01*
X-561Y34348D02*
Y35348D01*
X-228Y35014D01*
X105Y35348D01*
Y34348D01*
X438D02*
Y35014D01*
X772Y35348D01*
X1105Y35014D01*
Y34348D01*
Y34848D01*
X438D01*
X1438Y35348D02*
X2105D01*
X1771D01*
Y34348D01*
X3104Y35348D02*
X2438D01*
Y34348D01*
X3104D01*
X2438Y34848D02*
X2771D01*
X3437Y34348D02*
Y35348D01*
X3937D01*
X4104Y35181D01*
Y34848D01*
X3937Y34681D01*
X3437D01*
X3771D02*
X4104Y34348D01*
X4437Y35348D02*
X4770D01*
X4604D01*
Y34348D01*
X4437D01*
X4770D01*
X5270D02*
Y35014D01*
X5603Y35348D01*
X5937Y35014D01*
Y34348D01*
Y34848D01*
X5270D01*
X6270Y35348D02*
Y34348D01*
X6936D01*
X8269Y35348D02*
X8602D01*
X8436D01*
Y34348D01*
X8269D01*
X8602D01*
X9769Y35181D02*
X9602Y35348D01*
X9269D01*
X9102Y35181D01*
Y35014D01*
X9269Y34848D01*
X9602D01*
X9769Y34681D01*
Y34515D01*
X9602Y34348D01*
X9269D01*
X9102Y34515D01*
X11768Y35348D02*
X11102D01*
Y34848D01*
X11435D01*
X11102D01*
Y34348D01*
X12101D02*
Y35348D01*
X12601D01*
X12768Y35181D01*
Y34848D01*
X12601Y34681D01*
X12101D01*
X12435D02*
X12768Y34348D01*
X13601D02*
Y35348D01*
X13101Y34848D01*
X13767D01*
X14101Y35181D02*
X14267Y35348D01*
X14601D01*
X14767Y35181D01*
Y34515D01*
X14601Y34348D01*
X14267D01*
X14101Y34515D01*
Y35181D01*
X15100D02*
X15267Y35348D01*
X15600D01*
X15767Y35181D01*
Y35014D01*
X15600Y34848D01*
X15767Y34681D01*
Y34515D01*
X15600Y34348D01*
X15267D01*
X15100Y34515D01*
Y34681D01*
X15267Y34848D01*
X15100Y35014D01*
Y35181D01*
X15267Y34848D02*
X15600D01*
X-3394Y20515D02*
X-3227Y20348D01*
X-2894D01*
X-2727Y20515D01*
Y21181D01*
X-2894Y21348D01*
X-3227D01*
X-3394Y21181D01*
Y21014D01*
X-3227Y20848D01*
X-2727D01*
X-2394Y20348D02*
X-2061Y20681D01*
Y21014D01*
X-2394Y21348D01*
X-561Y20348D02*
Y21348D01*
X105Y20348D01*
Y21348D01*
X938D02*
X605D01*
X438Y21181D01*
Y20515D01*
X605Y20348D01*
X938D01*
X1105Y20515D01*
Y21181D01*
X938Y21348D01*
X3104Y21181D02*
X2938Y21348D01*
X2604D01*
X2438Y21181D01*
Y21014D01*
X2604Y20848D01*
X2938D01*
X3104Y20681D01*
Y20515D01*
X2938Y20348D01*
X2604D01*
X2438Y20515D01*
X3437Y21348D02*
X3771D01*
X3604D01*
Y20348D01*
X3437D01*
X3771D01*
X4271Y21348D02*
Y20348D01*
X4937D01*
X5270Y21348D02*
Y20348D01*
Y20681D01*
X5937Y21348D01*
X5437Y20848D01*
X5937Y20348D01*
X6936Y21181D02*
X6770Y21348D01*
X6436D01*
X6270Y21181D01*
Y21014D01*
X6436Y20848D01*
X6770D01*
X6936Y20681D01*
Y20515D01*
X6770Y20348D01*
X6436D01*
X6270Y20515D01*
X7936Y21181D02*
X7769Y21348D01*
X7436D01*
X7270Y21181D01*
Y20515D01*
X7436Y20348D01*
X7769D01*
X7936Y20515D01*
X8269Y20348D02*
Y21348D01*
X8769D01*
X8936Y21181D01*
Y20848D01*
X8769Y20681D01*
X8269D01*
X8602D02*
X8936Y20348D01*
X9935Y21348D02*
X9269D01*
Y20348D01*
X9935D01*
X9269Y20848D02*
X9602D01*
X10935Y21348D02*
X10269D01*
Y20348D01*
X10935D01*
X10269Y20848D02*
X10602D01*
X11268Y20348D02*
Y21348D01*
X11935Y20348D01*
Y21348D01*
X13767D02*
X13434D01*
X13268Y21181D01*
Y20515D01*
X13434Y20348D01*
X13767D01*
X13934Y20515D01*
Y21181D01*
X13767Y21348D01*
X14267Y20348D02*
Y21348D01*
X14934Y20348D01*
Y21348D01*
X16267Y20348D02*
Y21348D01*
X16766D01*
X16933Y21181D01*
Y20848D01*
X16766Y20681D01*
X16267D01*
X17266Y20348D02*
Y21014D01*
X17600Y21348D01*
X17933Y21014D01*
Y20348D01*
Y20848D01*
X17266D01*
X18266Y21348D02*
Y20348D01*
X18766D01*
X18932Y20515D01*
Y21181D01*
X18766Y21348D01*
X18266D01*
X19932Y21181D02*
X19766Y21348D01*
X19432D01*
X19266Y21181D01*
Y21014D01*
X19432Y20848D01*
X19766D01*
X19932Y20681D01*
Y20515D01*
X19766Y20348D01*
X19432D01*
X19266Y20515D01*
X-3394Y23181D02*
X-3227Y23348D01*
X-2894D01*
X-2727Y23181D01*
Y23014D01*
X-2894Y22848D01*
X-2727Y22681D01*
Y22515D01*
X-2894Y22348D01*
X-3227D01*
X-3394Y22515D01*
Y22681D01*
X-3227Y22848D01*
X-3394Y23014D01*
Y23181D01*
X-3227Y22848D02*
X-2894D01*
X-2394Y22348D02*
X-2061Y22681D01*
Y23014D01*
X-2394Y23348D01*
X-561Y22348D02*
Y23014D01*
X-228Y23348D01*
X105Y23014D01*
Y22348D01*
Y22848D01*
X-561D01*
X438Y23348D02*
Y22348D01*
X938D01*
X1105Y22515D01*
Y23181D01*
X938Y23348D01*
X438D01*
X1438D02*
Y22348D01*
X1938D01*
X2105Y22515D01*
Y23181D01*
X1938Y23348D01*
X1438D01*
X4104Y23181D02*
X3937Y23348D01*
X3604D01*
X3437Y23181D01*
Y23014D01*
X3604Y22848D01*
X3937D01*
X4104Y22681D01*
Y22515D01*
X3937Y22348D01*
X3604D01*
X3437Y22515D01*
X4437Y23348D02*
X4770D01*
X4604D01*
Y22348D01*
X4437D01*
X4770D01*
X5270Y23348D02*
Y22348D01*
X5937D01*
X6270Y23348D02*
Y22348D01*
Y22681D01*
X6936Y23348D01*
X6436Y22848D01*
X6936Y22348D01*
X7936Y23181D02*
X7769Y23348D01*
X7436D01*
X7270Y23181D01*
Y23014D01*
X7436Y22848D01*
X7769D01*
X7936Y22681D01*
Y22515D01*
X7769Y22348D01*
X7436D01*
X7270Y22515D01*
X8936Y23181D02*
X8769Y23348D01*
X8436D01*
X8269Y23181D01*
Y22515D01*
X8436Y22348D01*
X8769D01*
X8936Y22515D01*
X9269Y22348D02*
Y23348D01*
X9769D01*
X9935Y23181D01*
Y22848D01*
X9769Y22681D01*
X9269D01*
X9602D02*
X9935Y22348D01*
X10935Y23348D02*
X10269D01*
Y22348D01*
X10935D01*
X10269Y22848D02*
X10602D01*
X11935Y23348D02*
X11268D01*
Y22348D01*
X11935D01*
X11268Y22848D02*
X11601D01*
X12268Y22348D02*
Y23348D01*
X12934Y22348D01*
Y23348D01*
X14267D02*
Y22348D01*
X14767D01*
X14934Y22515D01*
Y22681D01*
X14767Y22848D01*
X14267D01*
X14767D01*
X14934Y23014D01*
Y23181D01*
X14767Y23348D01*
X14267D01*
X15767D02*
X15434D01*
X15267Y23181D01*
Y22515D01*
X15434Y22348D01*
X15767D01*
X15933Y22515D01*
Y23181D01*
X15767Y23348D01*
X16267D02*
X16933D01*
X16600D01*
Y22348D01*
X17266Y23348D02*
Y22348D01*
Y22848D01*
X17933D01*
Y23348D01*
Y22348D01*
X19932Y23181D02*
X19765Y23348D01*
X19432D01*
X19266Y23181D01*
Y23014D01*
X19432Y22848D01*
X19765D01*
X19932Y22681D01*
Y22515D01*
X19765Y22348D01*
X19432D01*
X19266Y22515D01*
X20265Y23348D02*
X20599D01*
X20432D01*
Y22348D01*
X20265D01*
X20599D01*
X21098Y23348D02*
Y22348D01*
X21598D01*
X21765Y22515D01*
Y23181D01*
X21598Y23348D01*
X21098D01*
X22765D02*
X22098D01*
Y22348D01*
X22765D01*
X22098Y22848D02*
X22431D01*
X23764Y23181D02*
X23598Y23348D01*
X23264D01*
X23098Y23181D01*
Y23014D01*
X23264Y22848D01*
X23598D01*
X23764Y22681D01*
Y22515D01*
X23598Y22348D01*
X23264D01*
X23098Y22515D01*
X-3394Y25348D02*
X-2727D01*
Y25181D01*
X-3394Y24515D01*
Y24348D01*
X-2394D02*
X-2061Y24681D01*
Y25014D01*
X-2394Y25348D01*
X-561Y24348D02*
Y25348D01*
X-61D01*
X105Y25181D01*
Y24848D01*
X-61Y24681D01*
X-561D01*
X-228D02*
X105Y24348D01*
X938Y25348D02*
X605D01*
X438Y25181D01*
Y24515D01*
X605Y24348D01*
X938D01*
X1105Y24515D01*
Y25181D01*
X938Y25348D01*
X1438D02*
Y24515D01*
X1605Y24348D01*
X1938D01*
X2105Y24515D01*
Y25348D01*
X2438D02*
X3104D01*
X2771D01*
Y24348D01*
X4104Y25348D02*
X3437D01*
Y24348D01*
X4104D01*
X3437Y24848D02*
X3771D01*
X5437Y25348D02*
X6103D01*
X5770D01*
Y24348D01*
X6936Y25348D02*
X6603D01*
X6436Y25181D01*
Y24515D01*
X6603Y24348D01*
X6936D01*
X7103Y24515D01*
Y25181D01*
X6936Y25348D01*
X8436D02*
Y24348D01*
X8936D01*
X9102Y24515D01*
Y24681D01*
X8936Y24848D01*
X8436D01*
X8936D01*
X9102Y25014D01*
Y25181D01*
X8936Y25348D01*
X8436D01*
X9935D02*
X9602D01*
X9436Y25181D01*
Y24515D01*
X9602Y24348D01*
X9935D01*
X10102Y24515D01*
Y25181D01*
X9935Y25348D01*
X10435Y24348D02*
Y25014D01*
X10768Y25348D01*
X11102Y25014D01*
Y24348D01*
Y24848D01*
X10435D01*
X11435Y24348D02*
Y25348D01*
X11935D01*
X12101Y25181D01*
Y24848D01*
X11935Y24681D01*
X11435D01*
X11768D02*
X12101Y24348D01*
X12435Y25348D02*
Y24348D01*
X12934D01*
X13101Y24515D01*
Y25181D01*
X12934Y25348D01*
X12435D01*
X14934D02*
X14601D01*
X14434Y25181D01*
Y24515D01*
X14601Y24348D01*
X14934D01*
X15100Y24515D01*
Y25181D01*
X14934Y25348D01*
X15434D02*
Y24515D01*
X15600Y24348D01*
X15933D01*
X16100Y24515D01*
Y25348D01*
X16433D02*
X17100D01*
X16766D01*
Y24348D01*
X17433Y25348D02*
Y24348D01*
X18099D01*
X18433Y25348D02*
X18766D01*
X18599D01*
Y24348D01*
X18433D01*
X18766D01*
X19266D02*
Y25348D01*
X19932Y24348D01*
Y25348D01*
X20932D02*
X20265D01*
Y24348D01*
X20932D01*
X20265Y24848D02*
X20599D01*
X-2727Y27348D02*
X-3060Y27181D01*
X-3394Y26848D01*
Y26515D01*
X-3227Y26348D01*
X-2894D01*
X-2727Y26515D01*
Y26681D01*
X-2894Y26848D01*
X-3394D01*
X-2394Y26348D02*
X-2061Y26681D01*
Y27014D01*
X-2394Y27348D01*
X-561Y26348D02*
Y27348D01*
X-61D01*
X105Y27181D01*
Y26848D01*
X-61Y26681D01*
X-561D01*
X-228D02*
X105Y26348D01*
X1105Y27348D02*
X438D01*
Y26348D01*
X1105D01*
X438Y26848D02*
X772D01*
X2105Y27181D02*
X1938Y27348D01*
X1605D01*
X1438Y27181D01*
Y26515D01*
X1605Y26348D01*
X1938D01*
X2105Y26515D01*
X2438Y27348D02*
X3104D01*
X2771D01*
Y26348D01*
X3437D02*
Y27014D01*
X3771Y27348D01*
X4104Y27014D01*
Y26348D01*
Y26848D01*
X3437D01*
X4437Y26348D02*
Y27348D01*
X5104Y26348D01*
Y27348D01*
X6103Y27181D02*
X5937Y27348D01*
X5603D01*
X5437Y27181D01*
Y26515D01*
X5603Y26348D01*
X5937D01*
X6103Y26515D01*
Y26848D01*
X5770D01*
X6436Y27348D02*
Y26515D01*
X6603Y26348D01*
X6936D01*
X7103Y26515D01*
Y27348D01*
X7436D02*
Y26348D01*
X8103D01*
X8436D02*
Y27014D01*
X8769Y27348D01*
X9102Y27014D01*
Y26348D01*
Y26848D01*
X8436D01*
X9436Y26348D02*
Y27348D01*
X9935D01*
X10102Y27181D01*
Y26848D01*
X9935Y26681D01*
X9436D01*
X9769D02*
X10102Y26348D01*
X11435Y27348D02*
Y26348D01*
X11935D01*
X12101Y26515D01*
Y26681D01*
X11935Y26848D01*
X11435D01*
X11935D01*
X12101Y27014D01*
Y27181D01*
X11935Y27348D01*
X11435D01*
X12934D02*
X12601D01*
X12435Y27181D01*
Y26515D01*
X12601Y26348D01*
X12934D01*
X13101Y26515D01*
Y27181D01*
X12934Y27348D01*
X13434Y26348D02*
Y27014D01*
X13767Y27348D01*
X14101Y27014D01*
Y26348D01*
Y26848D01*
X13434D01*
X14434Y26348D02*
Y27348D01*
X14934D01*
X15100Y27181D01*
Y26848D01*
X14934Y26681D01*
X14434D01*
X14767D02*
X15100Y26348D01*
X15434Y27348D02*
Y26348D01*
X15933D01*
X16100Y26515D01*
Y27181D01*
X15933Y27348D01*
X15434D01*
X17433D02*
Y26348D01*
X17766Y26681D01*
X18099Y26348D01*
Y27348D01*
X18433D02*
X18766D01*
X18599D01*
Y26348D01*
X18433D01*
X18766D01*
X19266Y27348D02*
X19932D01*
X19599D01*
Y26348D01*
X20265Y27348D02*
Y26348D01*
Y26848D01*
X20932D01*
Y27348D01*
Y26348D01*
X22931D02*
X22265D01*
X22931Y27014D01*
Y27181D01*
X22765Y27348D01*
X22431D01*
X22265Y27181D01*
X24931D02*
X24764Y27348D01*
X24431D01*
X24264Y27181D01*
Y26515D01*
X24431Y26348D01*
X24764D01*
X24931Y26515D01*
X25264Y27348D02*
Y26515D01*
X25430Y26348D01*
X25764D01*
X25930Y26515D01*
Y27348D01*
X26263D02*
X26930D01*
X26597D01*
Y26348D01*
X27763Y27348D02*
X27430D01*
X27263Y27181D01*
Y26515D01*
X27430Y26348D01*
X27763D01*
X27930Y26515D01*
Y27181D01*
X27763Y27348D01*
X28263D02*
Y26515D01*
X28429Y26348D01*
X28763D01*
X28929Y26515D01*
Y27348D01*
X29262D02*
X29929D01*
X29596D01*
Y26348D01*
X30929Y27181D02*
X30762Y27348D01*
X30429D01*
X30262Y27181D01*
Y27014D01*
X30429Y26848D01*
X30762D01*
X30929Y26681D01*
Y26515D01*
X30762Y26348D01*
X30429D01*
X30262Y26515D01*
X-2727Y29348D02*
X-3394D01*
Y28848D01*
X-3060Y29014D01*
X-2894D01*
X-2727Y28848D01*
Y28515D01*
X-2894Y28348D01*
X-3227D01*
X-3394Y28515D01*
X-2394Y28348D02*
X-2061Y28681D01*
Y29014D01*
X-2394Y29348D01*
X105D02*
X-561D01*
Y28848D01*
X-228D01*
X-561D01*
Y28348D01*
X438Y29348D02*
X772D01*
X605D01*
Y28348D01*
X438D01*
X772D01*
X1271D02*
Y29348D01*
X1938Y28348D01*
Y29348D01*
X2271D02*
X2604D01*
X2438D01*
Y28348D01*
X2271D01*
X2604D01*
X3771Y29181D02*
X3604Y29348D01*
X3271D01*
X3104Y29181D01*
Y29014D01*
X3271Y28848D01*
X3604D01*
X3771Y28681D01*
Y28515D01*
X3604Y28348D01*
X3271D01*
X3104Y28515D01*
X4104Y29348D02*
Y28348D01*
Y28848D01*
X4770D01*
Y29348D01*
Y28348D01*
X6103Y29348D02*
X6436D01*
X6270D01*
Y28348D01*
X6103D01*
X6436D01*
X7603Y29181D02*
X7436Y29348D01*
X7103D01*
X6936Y29181D01*
Y29014D01*
X7103Y28848D01*
X7436D01*
X7603Y28681D01*
Y28515D01*
X7436Y28348D01*
X7103D01*
X6936Y28515D01*
X9602Y29181D02*
X9436Y29348D01*
X9102D01*
X8936Y29181D01*
Y29014D01*
X9102Y28848D01*
X9436D01*
X9602Y28681D01*
Y28515D01*
X9436Y28348D01*
X9102D01*
X8936Y28515D01*
X9935Y28348D02*
Y29348D01*
X10269Y29014D01*
X10602Y29348D01*
Y28348D01*
X11435Y29348D02*
X11102D01*
X10935Y29181D01*
Y28515D01*
X11102Y28348D01*
X11435D01*
X11601Y28515D01*
Y29181D01*
X11435Y29348D01*
X11935D02*
Y28348D01*
X12435D01*
X12601Y28515D01*
Y28681D01*
X12435Y28848D01*
X11935D01*
X12435D01*
X12601Y29014D01*
Y29181D01*
X12435Y29348D01*
X11935D01*
X13601Y29181D02*
X13434Y29348D01*
X13101D01*
X12934Y29181D01*
Y28515D01*
X13101Y28348D01*
X13434D01*
X13601Y28515D01*
X-2894Y30348D02*
Y31348D01*
X-3394Y30848D01*
X-2727D01*
X-2394Y30348D02*
X-2061Y30681D01*
Y31014D01*
X-2394Y31348D01*
X105Y31181D02*
X-61Y31348D01*
X-395D01*
X-561Y31181D01*
Y30515D01*
X-395Y30348D01*
X-61D01*
X105Y30515D01*
X938Y31348D02*
X605D01*
X438Y31181D01*
Y30515D01*
X605Y30348D01*
X938D01*
X1105Y30515D01*
Y31181D01*
X938Y31348D01*
X1438Y30348D02*
Y31348D01*
X1938D01*
X2105Y31181D01*
Y30848D01*
X1938Y30681D01*
X1438D01*
X2438Y30348D02*
Y31348D01*
X2938D01*
X3104Y31181D01*
Y30848D01*
X2938Y30681D01*
X2438D01*
X4104Y31348D02*
X3437D01*
Y30348D01*
X4104D01*
X3437Y30848D02*
X3771D01*
X4437Y30348D02*
Y31348D01*
X4937D01*
X5104Y31181D01*
Y30848D01*
X4937Y30681D01*
X4437D01*
X4770D02*
X5104Y30348D01*
X6436Y31348D02*
Y30348D01*
X6770Y30681D01*
X7103Y30348D01*
Y31348D01*
X8103D02*
X7436D01*
Y30348D01*
X8103D01*
X7436Y30848D02*
X7769D01*
X8436Y31348D02*
X8769D01*
X8602D01*
Y30348D01*
X8436D01*
X8769D01*
X9935Y31181D02*
X9769Y31348D01*
X9436D01*
X9269Y31181D01*
Y30515D01*
X9436Y30348D01*
X9769D01*
X9935Y30515D01*
Y30848D01*
X9602D01*
X10269Y31348D02*
Y30348D01*
Y30848D01*
X10935D01*
Y31348D01*
Y30348D01*
X11268Y31348D02*
X11935D01*
X11601D01*
Y30348D01*
X13268Y31348D02*
X13601D01*
X13434D01*
Y30348D01*
X13268D01*
X13601D01*
X14767Y31181D02*
X14601Y31348D01*
X14267D01*
X14101Y31181D01*
Y31014D01*
X14267Y30848D01*
X14601D01*
X14767Y30681D01*
Y30515D01*
X14601Y30348D01*
X14267D01*
X14101Y30515D01*
X16100Y30348D02*
X16433D01*
X16267D01*
Y31348D01*
X16100Y31181D01*
X18433Y31348D02*
X18099D01*
X17933Y31181D01*
Y30515D01*
X18099Y30348D01*
X18433D01*
X18599Y30515D01*
Y31181D01*
X18433Y31348D01*
X18932D02*
Y30515D01*
X19099Y30348D01*
X19432D01*
X19599Y30515D01*
Y31348D01*
X19932Y30348D02*
Y31348D01*
X20599Y30348D01*
Y31348D01*
X21598Y31181D02*
X21432Y31348D01*
X21098D01*
X20932Y31181D01*
Y30515D01*
X21098Y30348D01*
X21432D01*
X21598Y30515D01*
X22598Y31348D02*
X21931D01*
Y30348D01*
X22598D01*
X21931Y30848D02*
X22265D01*
X-3394Y33181D02*
X-3227Y33348D01*
X-2894D01*
X-2727Y33181D01*
Y33014D01*
X-2894Y32848D01*
X-3060D01*
X-2894D01*
X-2727Y32681D01*
Y32515D01*
X-2894Y32348D01*
X-3227D01*
X-3394Y32515D01*
X-2394Y32348D02*
X-2061Y32681D01*
Y33014D01*
X-2394Y33348D01*
X105D02*
X-228Y33181D01*
X-561Y32848D01*
Y32515D01*
X-395Y32348D01*
X-61D01*
X105Y32515D01*
Y32681D01*
X-61Y32848D01*
X-561D01*
X1438Y33348D02*
Y32348D01*
X2105D01*
X2438D02*
Y33014D01*
X2771Y33348D01*
X3104Y33014D01*
Y32348D01*
Y32848D01*
X2438D01*
X3437Y33348D02*
Y33181D01*
X3771Y32848D01*
X4104Y33181D01*
Y33348D01*
X3771Y32848D02*
Y32348D01*
X5104Y33348D02*
X4437D01*
Y32348D01*
X5104D01*
X4437Y32848D02*
X4770D01*
X5437Y32348D02*
Y33348D01*
X5937D01*
X6103Y33181D01*
Y32848D01*
X5937Y32681D01*
X5437D01*
X5770D02*
X6103Y32348D01*
X7436Y33348D02*
Y32348D01*
X7936D01*
X8103Y32515D01*
Y32681D01*
X7936Y32848D01*
X7436D01*
X7936D01*
X8103Y33014D01*
Y33181D01*
X7936Y33348D01*
X7436D01*
X8936D02*
X8602D01*
X8436Y33181D01*
Y32515D01*
X8602Y32348D01*
X8936D01*
X9102Y32515D01*
Y33181D01*
X8936Y33348D01*
X9436Y32348D02*
Y33014D01*
X9769Y33348D01*
X10102Y33014D01*
Y32348D01*
Y32848D01*
X9436D01*
X10435Y32348D02*
Y33348D01*
X10935D01*
X11102Y33181D01*
Y32848D01*
X10935Y32681D01*
X10435D01*
X10768D02*
X11102Y32348D01*
X11435Y33348D02*
Y32348D01*
X11935D01*
X12101Y32515D01*
Y33181D01*
X11935Y33348D01*
X11435D01*
X13434D02*
Y32348D01*
X13767Y32681D01*
X14101Y32348D01*
Y33348D01*
X14434D02*
X14767D01*
X14601D01*
Y32348D01*
X14434D01*
X14767D01*
X15267Y33348D02*
X15933D01*
X15600D01*
Y32348D01*
X16267Y33348D02*
Y32348D01*
Y32848D01*
X16933D01*
Y33348D01*
Y32348D01*
X18266Y33348D02*
X18932D01*
X18599D01*
Y32348D01*
X19765Y33348D02*
X19432D01*
X19266Y33181D01*
Y32515D01*
X19432Y32348D01*
X19765D01*
X19932Y32515D01*
Y33181D01*
X19765Y33348D01*
X20265D02*
X20932D01*
X20599D01*
Y32348D01*
X21265D02*
Y33014D01*
X21598Y33348D01*
X21931Y33014D01*
Y32348D01*
Y32848D01*
X21265D01*
X22265Y33348D02*
Y32348D01*
X22931D01*
X24264Y33348D02*
X24931D01*
X24597D01*
Y32348D01*
X25264Y33348D02*
Y32348D01*
Y32848D01*
X25930D01*
Y33348D01*
Y32348D01*
X26263Y33348D02*
X26597D01*
X26430D01*
Y32348D01*
X26263D01*
X26597D01*
X27763Y33181D02*
X27596Y33348D01*
X27263D01*
X27096Y33181D01*
Y32515D01*
X27263Y32348D01*
X27596D01*
X27763Y32515D01*
X28096Y33348D02*
Y32348D01*
Y32681D01*
X28763Y33348D01*
X28263Y32848D01*
X28763Y32348D01*
X29096D02*
Y33348D01*
X29762Y32348D01*
Y33348D01*
X30762D02*
X30096D01*
Y32348D01*
X30762D01*
X30096Y32848D02*
X30429D01*
X31762Y33181D02*
X31595Y33348D01*
X31262D01*
X31095Y33181D01*
Y33014D01*
X31262Y32848D01*
X31595D01*
X31762Y32681D01*
Y32515D01*
X31595Y32348D01*
X31262D01*
X31095Y32515D01*
X32761Y33181D02*
X32595Y33348D01*
X32261D01*
X32095Y33181D01*
Y33014D01*
X32261Y32848D01*
X32595D01*
X32761Y32681D01*
Y32515D01*
X32595Y32348D01*
X32261D01*
X32095Y32515D01*
X34594Y33348D02*
X34261D01*
X34094Y33181D01*
Y32515D01*
X34261Y32348D01*
X34594D01*
X34761Y32515D01*
Y33181D01*
X34594Y33348D01*
X35760D02*
X35094D01*
Y32848D01*
X35427D01*
X35094D01*
Y32348D01*
X37093D02*
Y32515D01*
X37260D01*
Y32348D01*
X37093D01*
X37926Y33181D02*
X38093Y33348D01*
X38426D01*
X38593Y33181D01*
Y32515D01*
X38426Y32348D01*
X38093D01*
X37926Y32515D01*
Y33181D01*
X38926D02*
X39093Y33348D01*
X39426D01*
X39592Y33181D01*
Y33014D01*
X39426Y32848D01*
X39259D01*
X39426D01*
X39592Y32681D01*
Y32515D01*
X39426Y32348D01*
X39093D01*
X38926Y32515D01*
X40592Y33348D02*
X40259Y33181D01*
X39926Y32848D01*
Y32515D01*
X40092Y32348D01*
X40425D01*
X40592Y32515D01*
Y32681D01*
X40425Y32848D01*
X39926D01*
X-3394Y18348D02*
X-3060D01*
X-3227D01*
Y19348D01*
X-3394Y19181D01*
X-2561D02*
X-2394Y19348D01*
X-2061D01*
X-1894Y19181D01*
Y18515D01*
X-2061Y18348D01*
X-2394D01*
X-2561Y18515D01*
Y19181D01*
X-1561Y18348D02*
X-1228Y18681D01*
Y19014D01*
X-1561Y19348D01*
X938Y19181D02*
X772Y19348D01*
X438D01*
X272Y19181D01*
Y18515D01*
X438Y18348D01*
X772D01*
X938Y18515D01*
Y18848D01*
X605D01*
X1271Y18348D02*
Y19348D01*
X1771D01*
X1938Y19181D01*
Y18848D01*
X1771Y18681D01*
X1271D01*
X1605D02*
X1938Y18348D01*
X2938Y19348D02*
X2271D01*
Y18348D01*
X2938D01*
X2271Y18848D02*
X2604D01*
X3937Y19348D02*
X3271D01*
Y18348D01*
X3937D01*
X3271Y18848D02*
X3604D01*
X4271Y18348D02*
Y19348D01*
X4937Y18348D01*
Y19348D01*
X6936Y19181D02*
X6770Y19348D01*
X6436D01*
X6270Y19181D01*
Y19014D01*
X6436Y18848D01*
X6770D01*
X6936Y18681D01*
Y18515D01*
X6770Y18348D01*
X6436D01*
X6270Y18515D01*
X7769Y19348D02*
X7436D01*
X7270Y19181D01*
Y18515D01*
X7436Y18348D01*
X7769D01*
X7936Y18515D01*
Y19181D01*
X7769Y19348D01*
X8269D02*
Y18348D01*
X8936D01*
X9269Y19348D02*
Y18348D01*
X9769D01*
X9935Y18515D01*
Y19181D01*
X9769Y19348D01*
X9269D01*
X10935D02*
X10269D01*
Y18348D01*
X10935D01*
X10269Y18848D02*
X10602D01*
X11268Y18348D02*
Y19348D01*
X11768D01*
X11935Y19181D01*
Y18848D01*
X11768Y18681D01*
X11268D01*
X11601D02*
X11935Y18348D01*
X13268D02*
Y19348D01*
X13601Y19014D01*
X13934Y19348D01*
Y18348D01*
X14267D02*
Y19014D01*
X14601Y19348D01*
X14934Y19014D01*
Y18348D01*
Y18848D01*
X14267D01*
X15933Y19181D02*
X15767Y19348D01*
X15434D01*
X15267Y19181D01*
Y19014D01*
X15434Y18848D01*
X15767D01*
X15933Y18681D01*
Y18515D01*
X15767Y18348D01*
X15434D01*
X15267Y18515D01*
X16267Y19348D02*
Y18348D01*
Y18681D01*
X16933Y19348D01*
X16433Y18848D01*
X16933Y18348D01*
X18266Y19348D02*
Y18348D01*
X18766D01*
X18932Y18515D01*
Y18681D01*
X18766Y18848D01*
X18266D01*
X18766D01*
X18932Y19014D01*
Y19181D01*
X18766Y19348D01*
X18266D01*
X19766D02*
X19432D01*
X19266Y19181D01*
Y18515D01*
X19432Y18348D01*
X19766D01*
X19932Y18515D01*
Y19181D01*
X19766Y19348D01*
X20265D02*
X20932D01*
X20599D01*
Y18348D01*
X21265Y19348D02*
Y18348D01*
Y18848D01*
X21931D01*
Y19348D01*
Y18348D01*
X23931Y19181D02*
X23764Y19348D01*
X23431D01*
X23264Y19181D01*
Y19014D01*
X23431Y18848D01*
X23764D01*
X23931Y18681D01*
Y18515D01*
X23764Y18348D01*
X23431D01*
X23264Y18515D01*
X24264Y19348D02*
X24597D01*
X24431D01*
Y18348D01*
X24264D01*
X24597D01*
X25097Y19348D02*
Y18348D01*
X25597D01*
X25764Y18515D01*
Y19181D01*
X25597Y19348D01*
X25097D01*
X26763D02*
X26097D01*
Y18348D01*
X26763D01*
X26097Y18848D02*
X26430D01*
X27763Y19181D02*
X27596Y19348D01*
X27263D01*
X27096Y19181D01*
Y19014D01*
X27263Y18848D01*
X27596D01*
X27763Y18681D01*
Y18515D01*
X27596Y18348D01*
X27263D01*
X27096Y18515D01*
X-3394Y38348D02*
Y39348D01*
X-2727Y38348D01*
Y39348D01*
X-1894D02*
X-2227D01*
X-2394Y39181D01*
Y38515D01*
X-2227Y38348D01*
X-1894D01*
X-1728Y38515D01*
Y39181D01*
X-1894Y39348D01*
X-1394D02*
X-728D01*
X-1061D01*
Y38348D01*
X272Y39348D02*
X-395D01*
Y38348D01*
X272D01*
X-395Y38848D02*
X-61D01*
X1271Y39181D02*
X1105Y39348D01*
X772D01*
X605Y39181D01*
Y39014D01*
X772Y38848D01*
X1105D01*
X1271Y38681D01*
Y38515D01*
X1105Y38348D01*
X772D01*
X605Y38515D01*
X-3394Y36348D02*
X-3060D01*
X-3227D01*
Y37348D01*
X-3394Y37181D01*
X-2561Y36348D02*
X-2227Y36681D01*
Y37014D01*
X-2561Y37348D01*
X-728D02*
Y36348D01*
X-228D01*
X-61Y36515D01*
Y36681D01*
X-228Y36848D01*
X-728D01*
X-228D01*
X-61Y37014D01*
Y37181D01*
X-228Y37348D01*
X-728D01*
X772D02*
X438D01*
X272Y37181D01*
Y36515D01*
X438Y36348D01*
X772D01*
X938Y36515D01*
Y37181D01*
X772Y37348D01*
X1271Y36348D02*
Y37014D01*
X1605Y37348D01*
X1938Y37014D01*
Y36348D01*
Y36848D01*
X1271D01*
X2271Y36348D02*
Y37348D01*
X2771D01*
X2938Y37181D01*
Y36848D01*
X2771Y36681D01*
X2271D01*
X2604D02*
X2938Y36348D01*
X3271Y37348D02*
Y36348D01*
X3771D01*
X3937Y36515D01*
Y37181D01*
X3771Y37348D01*
X3271D01*
X5270Y36348D02*
Y37348D01*
X5603Y37014D01*
X5937Y37348D01*
Y36348D01*
X6936Y37348D02*
X6270D01*
Y36348D01*
X6936D01*
X6270Y36848D02*
X6603D01*
X7270Y36348D02*
Y37014D01*
X7603Y37348D01*
X7936Y37014D01*
Y36348D01*
Y36848D01*
X7270D01*
X8936Y37181D02*
X8769Y37348D01*
X8436D01*
X8269Y37181D01*
Y37014D01*
X8436Y36848D01*
X8769D01*
X8936Y36681D01*
Y36515D01*
X8769Y36348D01*
X8436D01*
X8269Y36515D01*
X9269Y37348D02*
Y36515D01*
X9436Y36348D01*
X9769D01*
X9935Y36515D01*
Y37348D01*
X10269Y36348D02*
Y37348D01*
X10768D01*
X10935Y37181D01*
Y36848D01*
X10768Y36681D01*
X10269D01*
X10602D02*
X10935Y36348D01*
X11935Y37348D02*
X11268D01*
Y36348D01*
X11935D01*
X11268Y36848D02*
X11601D01*
X12934Y37181D02*
X12768Y37348D01*
X12435D01*
X12268Y37181D01*
Y37014D01*
X12435Y36848D01*
X12768D01*
X12934Y36681D01*
Y36515D01*
X12768Y36348D01*
X12435D01*
X12268Y36515D01*
X14934Y36348D02*
X14267D01*
X14934Y37014D01*
Y37181D01*
X14767Y37348D01*
X14434D01*
X14267Y37181D01*
X15267Y36348D02*
Y36515D01*
X15434D01*
Y36348D01*
X15267D01*
X16100Y36515D02*
X16267Y36348D01*
X16600D01*
X16766Y36515D01*
Y37181D01*
X16600Y37348D01*
X16267D01*
X16100Y37181D01*
Y37014D01*
X16267Y36848D01*
X16766D01*
X17100Y36515D02*
X17266Y36348D01*
X17600D01*
X17766Y36515D01*
Y37181D01*
X17600Y37348D01*
X17266D01*
X17100Y37181D01*
Y37014D01*
X17266Y36848D01*
X17766D01*
X18099Y37181D02*
X18266Y37348D01*
X18599D01*
X18766Y37181D01*
Y36515D01*
X18599Y36348D01*
X18266D01*
X18099Y36515D01*
Y37181D01*
X20099Y37348D02*
X20765Y36348D01*
Y37348D02*
X20099Y36348D01*
X23098D02*
X23431D01*
X23264D01*
Y37348D01*
X23098Y37181D01*
X23931Y36348D02*
Y36515D01*
X24097D01*
Y36348D01*
X23931D01*
X25264D02*
Y37348D01*
X24764Y36848D01*
X25430D01*
X25764Y36515D02*
X25930Y36348D01*
X26263D01*
X26430Y36515D01*
Y37181D01*
X26263Y37348D01*
X25930D01*
X25764Y37181D01*
Y37014D01*
X25930Y36848D01*
X26430D01*
X26763Y37181D02*
X26930Y37348D01*
X27263D01*
X27430Y37181D01*
Y36515D01*
X27263Y36348D01*
X26930D01*
X26763Y36515D01*
Y37181D01*
X28763Y37348D02*
X29096D01*
X28929D01*
Y36348D01*
X28763D01*
X29096D01*
X29596D02*
Y37348D01*
X30262Y36348D01*
Y37348D01*
D53*
X2144Y8358D02*
Y11693D01*
X919Y6259D02*
Y7168D01*
X387Y5046D02*
X1294Y4139D01*
X1988Y2920D02*
X2158Y2750D01*
X19910Y13280D02*
X20189Y13001D01*
X20760Y12996D02*
X20765D01*
X19630Y13280D02*
X19910D01*
X20189Y13001D02*
X20760D01*
X19630Y12900D02*
X19719Y12811D01*
Y12265D02*
Y12811D01*
X19630Y12900D02*
Y13280D01*
X20760Y13001D02*
X20765Y12996D01*
X-30Y701D02*
X310D01*
X-370D02*
X-30D01*
X-984D02*
X-370D01*
X-1084D02*
X-984D01*
X26816Y5685D02*
Y6757D01*
Y5685D02*
X27000Y5501D01*
X26035Y7417D02*
X26644D01*
X27060Y7001D01*
X26816Y6757D02*
X27060Y7001D01*
X2158Y2698D02*
Y2750D01*
X1900Y2920D02*
X1988D01*
X2012Y2552D02*
X2158Y2698D01*
X2012Y2241D02*
Y2552D01*
X2014Y2239D02*
Y2241D01*
X3380Y868D02*
X3912Y1400D01*
X4450D01*
X2814Y1073D02*
X3019Y868D01*
X3380D01*
X18765Y4096D02*
X18815Y4046D01*
Y3795D02*
Y4046D01*
X18815Y3795D02*
X18990Y3620D01*
X19806D01*
X407Y5746D02*
X919Y6259D01*
X387Y5046D02*
Y5746D01*
X1764Y12073D02*
Y12400D01*
Y12073D02*
X2144Y11693D01*
X2404Y7373D02*
Y8098D01*
X2144Y8358D02*
X2404Y8098D01*
X1294Y4139D02*
X1697D01*
X387Y6346D02*
Y6772D01*
Y5746D02*
X407D01*
X19169Y10515D02*
X19539Y10885D01*
Y12085D02*
X19719Y12265D01*
X19539Y10885D02*
Y12085D01*
X20800Y1881D02*
X21050D01*
X20380Y1751D02*
X20670D01*
X20380D02*
Y1961D01*
X20215Y2126D02*
X20380Y1961D01*
X19865Y2126D02*
X20215D01*
X19780Y2211D02*
Y2481D01*
X20670Y1751D02*
X20800Y1881D01*
X19780Y2211D02*
X19865Y2126D01*
X20765Y12996D02*
X20969Y12792D01*
Y12580D02*
Y12792D01*
X17304Y1254D02*
X17750Y1700D01*
X19550Y3023D02*
Y3103D01*
X19530Y3123D02*
X19550Y3103D01*
X17304Y-200D02*
Y1254D01*
D54*
X21613Y4433D02*
G03*
X21632Y4503I-121J70D01*
G01*
X21613Y4433D02*
G03*
X21632Y4503I-121J70D01*
G01*
X21613Y4433D02*
G03*
X21632Y4503I-121J70D01*
G01*
X20295Y2753D02*
G03*
X20398Y2803I0J130D01*
G01*
X20295Y2753D02*
G03*
X20398Y2803I0J130D01*
G01*
X20415Y2833D02*
G03*
X20425Y2883I-120J50D01*
G01*
X20415Y2833D02*
G03*
X20425Y2883I-120J50D01*
G01*
Y3793D02*
G03*
X20415Y3843I-130J0D01*
G01*
X20425Y3793D02*
G03*
X20415Y3843I-130J0D01*
G01*
X21492Y4481D02*
G03*
X21483Y4433I121J-48D01*
G01*
X21492Y4481D02*
G03*
X21483Y4433I121J-48D01*
G01*
X21492Y4481D02*
G03*
X21483Y4433I121J-48D01*
G01*
X21492Y4481D02*
G03*
X21483Y4433I121J-48D01*
G01*
X22600Y3400D02*
X23853Y3397D01*
X23853Y2683D01*
X22600Y3400D02*
Y5060D01*
X22445Y2573D02*
X23853D01*
X22445Y2523D02*
X23853D01*
X21632Y4523D02*
X22600D01*
X21632Y4573D02*
X22600D01*
X22445Y2623D02*
X23853D01*
X22445Y2473D02*
X23853D01*
X22445Y2173D02*
X23853D01*
X22445Y2123D02*
X23853D01*
X22445Y2223D02*
X23853D01*
X22445Y2023D02*
X23853D01*
X22445Y2073D02*
X23853D01*
X22445Y2373D02*
X23853D01*
X22445Y2423D02*
X23853D01*
X22445Y2273D02*
X23853D01*
X22445Y2323D02*
X23853D01*
X21900Y2643D02*
Y5067D01*
X21950Y2643D02*
Y5067D01*
X21850Y2643D02*
Y5068D01*
X22050Y2643D02*
Y5066D01*
X22000Y2643D02*
Y5066D01*
X21700Y2643D02*
Y5069D01*
X21650Y2643D02*
Y5070D01*
X21800Y2643D02*
Y5068D01*
X21750Y2643D02*
Y5069D01*
X22300Y2643D02*
Y5063D01*
X22250Y2643D02*
Y5064D01*
X22400Y2643D02*
Y5062D01*
X22350Y2643D02*
Y5063D01*
X21632Y4623D02*
X22600D01*
X22100Y2643D02*
Y5065D01*
X22200Y2643D02*
Y5064D01*
X22150Y2643D02*
Y5065D01*
X23500Y1863D02*
Y3398D01*
X23550Y1863D02*
Y3398D01*
X23450Y1863D02*
Y3398D01*
X23650Y1863D02*
Y3397D01*
X23600Y1863D02*
Y3398D01*
X23300Y1863D02*
Y3398D01*
X23250Y1863D02*
Y3398D01*
X23400Y1863D02*
Y3398D01*
X23350Y1863D02*
Y3398D01*
X23750Y1863D02*
Y3397D01*
X23800Y1863D02*
Y3397D01*
X23700Y1863D02*
Y3397D01*
X23853Y1863D02*
X23853Y2683D01*
X23850Y1863D02*
Y3397D01*
X22445Y1923D02*
X23853D01*
X22445Y1973D02*
X23853D01*
X22445Y1863D02*
X23853D01*
X22445Y1873D02*
X23853D01*
X22700Y1863D02*
Y3400D01*
X22750Y1863D02*
Y3400D01*
X22650Y1863D02*
Y3400D01*
X22850Y1863D02*
Y3399D01*
X22800Y1863D02*
Y3400D01*
X22500Y1863D02*
Y5061D01*
X22450Y1863D02*
Y5062D01*
X22600Y1863D02*
Y3400D01*
X22550Y1863D02*
Y5060D01*
X23100Y1863D02*
Y3399D01*
X23050Y1863D02*
Y3399D01*
X23200Y1863D02*
Y3399D01*
X23150Y1863D02*
Y3399D01*
X22900Y1863D02*
Y3399D01*
X22445Y1863D02*
Y2643D01*
X23000Y1863D02*
Y3399D01*
X22950Y1863D02*
Y3399D01*
X21631Y4823D02*
X22600D01*
X21631Y4773D02*
X22600D01*
X21631Y4873D02*
X22600D01*
X21632Y4673D02*
X22600D01*
X21631Y4723D02*
X22600D01*
X21631Y5023D02*
X22600D01*
X21630Y5070D02*
X22600Y5060D01*
X21631Y4923D02*
X22600D01*
X21631Y4973D02*
X22600D01*
X21614Y4223D02*
X22600D01*
X21614Y4173D02*
X22600D01*
X21629Y4473D02*
X22600D01*
X21615Y3723D02*
X22600D01*
X21615Y3773D02*
X22600D01*
X21613Y4373D02*
X22600D01*
X21613Y4423D02*
X22600D01*
X21614Y4273D02*
X22600D01*
X21613Y4323D02*
X22600D01*
X21614Y4073D02*
X22600D01*
X21614Y4023D02*
X22600D01*
X21630Y5070D02*
X21632Y4504D01*
X21614Y3923D02*
X22600D01*
X21614Y3973D02*
X22600D01*
X21614Y4123D02*
X22600D01*
X21615Y3523D02*
X22600D01*
X21615Y3573D02*
X22600D01*
X21615Y3423D02*
X22600D01*
X21615Y3473D02*
X22600D01*
X21614Y3823D02*
X22600D01*
X21614Y3873D02*
X22600D01*
X21615Y3623D02*
X22600D01*
X21615Y3673D02*
X22600D01*
X21615Y3373D02*
X23853D01*
X20855Y3323D02*
X23853D01*
X20855Y3343D02*
X21615D01*
X20855Y3223D02*
X23853D01*
X20855Y3273D02*
X23853D01*
X20855Y3123D02*
X23853D01*
X20855Y3173D02*
X23853D01*
X20855Y3023D02*
X23853D01*
X20855Y3073D02*
X23853D01*
X20855Y2723D02*
X23853D01*
X20855Y2773D02*
X23853D01*
X20855Y2673D02*
X23853D01*
X20855Y2643D02*
X22445D01*
X20855Y2923D02*
X23853D01*
X20855Y2973D02*
X23853D01*
X20855Y2823D02*
X23853D01*
X20855Y2873D02*
X23853D01*
X21613Y4433D02*
X21615Y3343D01*
X21600Y2643D02*
Y3343D01*
X21550Y2643D02*
Y3343D01*
X21500Y2643D02*
Y3343D01*
X21450Y2643D02*
Y3343D01*
X21300Y2643D02*
Y3343D01*
X21250Y2643D02*
Y3343D01*
X21400Y2643D02*
Y3343D01*
X21350Y2643D02*
Y3343D01*
X21100Y2643D02*
Y3343D01*
X21050Y2643D02*
Y3343D01*
X21200Y2643D02*
Y3343D01*
X21150Y2643D02*
Y3343D01*
X20900Y2643D02*
Y3343D01*
X20855Y2643D02*
Y3343D01*
X21000Y2643D02*
Y3343D01*
X20950Y2643D02*
Y3343D01*
X5564Y2832D02*
X5940D01*
X1837Y7086D02*
Y7506D01*
X-984Y5201D02*
X-479D01*
X-1084D02*
X-984D01*
Y6201D02*
X-229D01*
X-1084D02*
X-984D01*
X2544Y5816D02*
Y5976D01*
X27300Y6540D02*
X27439Y6401D01*
X27300Y6540D02*
Y6710D01*
X27439Y6401D02*
X27766D01*
X27480Y7960D02*
X27539Y7901D01*
X27480Y7960D02*
Y8250D01*
X27539Y7901D02*
X27766D01*
X8200Y6750D02*
Y7200D01*
X7100Y7730D02*
Y8840D01*
X8280Y7280D02*
X9330D01*
X7360Y7470D02*
X7930D01*
X7100Y7730D02*
X7360Y7470D01*
X7930D02*
X8200Y7200D01*
X8280Y7280D01*
X2510Y12900D02*
X4000D01*
X2350Y13060D02*
Y13550D01*
Y13060D02*
X2510Y12900D01*
X4000D02*
X4470Y12430D01*
X1540Y12730D02*
X3900D01*
X1330Y13530D02*
X1350Y13550D01*
X1330Y12940D02*
Y13530D01*
Y12940D02*
X1540Y12730D01*
X3900D02*
X4370Y12260D01*
X4470Y12430D02*
X5480D01*
X5790Y12120D01*
X7630Y10930D02*
X7930Y10630D01*
X6080Y10930D02*
X7630D01*
X5790Y11220D02*
Y12120D01*
Y11220D02*
X6080Y10930D01*
X7770Y8260D02*
Y10510D01*
X7530Y10750D02*
X7770Y10510D01*
X4370Y12260D02*
X5380D01*
X5620Y12020D01*
Y11100D02*
Y12020D01*
Y11100D02*
X5970Y10750D01*
X7530D01*
X9176Y6436D02*
Y6850D01*
X9040Y6300D02*
X9176Y6436D01*
X8920Y6420D02*
X9040Y6300D01*
X8920Y6420D02*
Y6850D01*
X6910Y9030D02*
X7100Y8840D01*
X6200Y9030D02*
X6910D01*
X9330Y7280D02*
X9432Y7178D01*
Y6850D02*
Y7178D01*
X7450Y8350D02*
X7520Y8280D01*
Y8240D02*
Y8280D01*
Y8240D02*
X8030Y7730D01*
X8600D01*
X8890Y7440D01*
X7770Y8260D02*
X8120Y7910D01*
X8660D01*
X8960Y7610D01*
X7930Y8330D02*
X8190Y8070D01*
X8740D01*
X9050Y7760D01*
X4980Y11410D02*
X6200Y10190D01*
Y9030D02*
Y10190D01*
X4980Y11410D02*
Y12000D01*
X14785Y12455D02*
X14910Y12580D01*
X14785Y12121D02*
Y12455D01*
X2614Y2239D02*
Y2704D01*
X2567Y2286D02*
X2614Y2239D01*
Y2704D02*
X2850Y2940D01*
X2431Y1989D02*
X2470Y1950D01*
X2264Y1413D02*
Y1960D01*
X3400Y2018D02*
Y2456D01*
X3010Y1628D02*
X3400Y2018D01*
X3010Y1620D02*
Y1628D01*
X2264Y1413D02*
X2294Y1383D01*
X4926Y5076D02*
X5040Y5190D01*
X4216Y5076D02*
X4926D01*
X5040Y5190D02*
Y5450D01*
X5476Y4574D02*
Y5366D01*
X5250Y6060D02*
X5600Y5710D01*
X5250Y6060D02*
Y6324D01*
X5644Y6718D01*
X5600Y5490D02*
Y5710D01*
X5476Y5366D02*
X5600Y5490D01*
X4920Y6284D02*
X5469Y6833D01*
X4920Y5770D02*
Y6284D01*
X4017Y6204D02*
Y7890D01*
X3817Y6004D02*
X4017Y6204D01*
X4370Y7910D02*
Y8180D01*
X4317Y6056D02*
Y7856D01*
X4370Y7910D01*
X4768Y8150D02*
X4960Y7958D01*
Y6820D02*
Y7958D01*
X5644Y6718D02*
Y8126D01*
X5460Y8310D02*
X5644Y8126D01*
X5794Y6496D02*
Y8272D01*
X5237Y8830D02*
Y10134D01*
Y8830D02*
X5794Y8272D01*
X3890Y8016D02*
Y9750D01*
X3510Y10130D02*
X3890Y9750D01*
X3510Y10130D02*
Y11300D01*
X4296Y2499D02*
X4646D01*
X4216Y2578D02*
Y3186D01*
Y2578D02*
X4296Y2499D01*
X3030Y1310D02*
X3280D01*
X3550Y2390D02*
X3980Y2820D01*
X3280Y1310D02*
X3390Y1420D01*
Y1810D01*
X3550Y1970D01*
Y2390D01*
X3980Y2820D02*
Y2900D01*
X3684Y2740D02*
Y2920D01*
X3400Y2456D02*
X3684Y2740D01*
X3800Y7610D02*
Y7796D01*
X3870Y6450D02*
Y7540D01*
X3800Y7610D02*
X3870Y7540D01*
X3587Y7594D02*
Y8886D01*
X3661Y7356D02*
X3670Y7346D01*
X3661Y7356D02*
Y7520D01*
X3587Y7594D02*
X3661Y7520D01*
X4244Y8306D02*
X4370Y8180D01*
X4244Y8306D02*
Y8556D01*
X4960Y1050D02*
Y2960D01*
Y1050D02*
X5130Y880D01*
X5510D01*
X5290Y2632D02*
Y3158D01*
X5564Y3432D01*
X3980Y2900D02*
X3980Y2900D01*
X3684Y2920D02*
X3744Y2980D01*
Y3102D01*
X2730Y1314D02*
X2814Y1230D01*
Y1073D02*
Y1230D01*
X971Y3856D02*
X1577D01*
X335Y2476D02*
Y3220D01*
X971Y3856D01*
X-110Y4790D02*
Y5532D01*
X40Y4162D02*
Y4640D01*
X-110Y4790D02*
X40Y4640D01*
X-270Y4690D02*
Y4992D01*
X-479Y5201D02*
X-270Y4992D01*
Y4690D02*
X-130Y4550D01*
Y1560D02*
Y4550D01*
Y1560D02*
X-2Y1432D01*
X-480Y4640D02*
X-290Y4450D01*
X-923Y4640D02*
X-480D01*
X-136Y1286D02*
X705D01*
X-290Y1440D02*
X-136Y1286D01*
X-290Y1440D02*
Y4450D01*
X-1084Y4701D02*
X-984D01*
X-923Y4640D01*
X-984Y5701D02*
X-279D01*
X5564Y3432D02*
Y3761D01*
X2012Y5391D02*
Y5971D01*
X1717Y4916D02*
X1872Y4761D01*
X2012D01*
X1607Y5396D02*
X1717Y5286D01*
Y4916D02*
Y5286D01*
X1237Y5546D02*
X1387Y5396D01*
X1607D01*
X1237Y5546D02*
Y6456D01*
X1837Y6146D02*
X2012Y5971D01*
X2479Y5536D02*
Y5751D01*
X4374Y3974D02*
X5351D01*
X5564Y3761D01*
X1544Y8358D02*
X1616D01*
X1815Y8556D01*
X3272Y2871D02*
X3357Y2786D01*
X3272Y2871D02*
Y3186D01*
X3357Y2726D02*
Y2786D01*
X3060Y7056D02*
Y7440D01*
X3357Y7736D01*
X3267Y9096D02*
Y11806D01*
X3357Y7736D02*
Y9006D01*
X3267Y9096D02*
X3357Y9006D01*
X1327Y5196D02*
X1527Y4996D01*
X2169Y5549D02*
Y6934D01*
X2090Y7012D02*
X2169Y6934D01*
X2090Y7012D02*
Y7736D01*
X2327Y5391D02*
Y6776D01*
X2694Y7143D01*
X2479Y5751D02*
X2544Y5816D01*
X2767Y5806D02*
Y6336D01*
X2642Y5681D02*
X2767Y5806D01*
X2642Y5391D02*
Y5681D01*
X2977Y5776D02*
Y6760D01*
X2812Y5611D02*
X2977Y5776D01*
X2812Y5561D02*
Y5611D01*
X2664Y6339D02*
X2764D01*
X2767Y6336D01*
X5349Y4446D02*
X5476Y4574D01*
X2694Y7143D02*
Y7533D01*
X2957Y7796D01*
X2834Y6903D02*
Y7449D01*
X3107Y7722D01*
X2834Y6903D02*
X2977Y6760D01*
X3557Y6136D02*
X3870Y6450D01*
X3890Y8016D02*
X4017Y7890D01*
X4160Y6150D02*
Y8086D01*
X4059Y6049D02*
X4160Y6150D01*
X1535Y7808D02*
X1837Y7506D01*
X394Y7808D02*
X1535D01*
X3508Y8965D02*
Y9799D01*
Y8965D02*
X3587Y8886D01*
X4059Y5549D02*
Y6049D01*
X4216Y5956D02*
X4317Y6056D01*
X4216Y5391D02*
Y5956D01*
X4374Y4761D02*
X4453Y4682D01*
X4216Y4761D02*
X4374D01*
X1224Y3344D02*
X1776D01*
X3823Y5706D02*
X3902Y5627D01*
Y5391D02*
Y5627D01*
X2327Y4761D02*
X2642Y4446D01*
X4453Y3265D02*
X4610D01*
X4374Y3344D02*
X4453Y3265D01*
X4216Y4446D02*
X5349D01*
X1544Y8358D02*
Y8388D01*
X5476Y6178D02*
X5794Y6496D01*
X5469Y6833D02*
Y7743D01*
X5004Y8208D02*
X5469Y7743D01*
X5004Y8208D02*
Y9801D01*
X3747Y11624D02*
X5237Y10134D01*
X5564Y1707D02*
X5585Y1686D01*
X5290Y2632D02*
X5585Y2337D01*
Y1686D02*
Y2337D01*
X-229Y6201D02*
X40Y5932D01*
Y5032D02*
Y5932D01*
Y5032D02*
X394Y4678D01*
Y4308D02*
Y4678D01*
X-279Y5701D02*
X-110Y5532D01*
X40Y4162D02*
X394Y3808D01*
X-2Y1432D02*
X540D01*
X695Y1586D01*
X585Y2976D02*
X1265Y3656D01*
X1767D01*
X1010Y2701D02*
Y3129D01*
X1224Y3344D01*
X-352Y1201D02*
X-199Y1049D01*
X996D01*
X1196Y1249D01*
Y2199D01*
X1296Y2299D01*
Y3099D01*
X4646Y2499D02*
X4796Y2349D01*
X4596Y-201D02*
X4796Y-1D01*
Y2349D01*
X1499Y149D02*
X1849Y-201D01*
X4596D01*
X1630Y4600D02*
X1840D01*
X1527Y4703D02*
X1630Y4600D01*
X1527Y4703D02*
Y4996D01*
X2470Y1740D02*
Y1950D01*
X2730Y1314D02*
Y1480D01*
X2470Y1740D02*
X2730Y1480D01*
X16590Y1660D02*
X16840D01*
X16550Y1700D02*
X16590Y1660D01*
X15900Y7750D02*
X16270Y7380D01*
X16680D02*
X16870Y7570D01*
X17270D01*
X16270Y7380D02*
X16680D01*
X16590Y7840D02*
X17270D01*
X16500Y7750D02*
X16590Y7840D01*
X4110Y10280D02*
Y10500D01*
Y10280D02*
X4768Y9622D01*
Y8150D02*
Y9622D01*
X3710Y10400D02*
X4531Y9579D01*
X3710Y10400D02*
Y10770D01*
X4531Y7520D02*
Y9579D01*
X2507Y8970D02*
X2957Y8520D01*
Y7796D02*
Y8520D01*
X2507Y8970D02*
Y10808D01*
X2680Y9470D02*
X3017Y9806D01*
X2680Y9057D02*
X3107Y8630D01*
X2680Y9057D02*
Y9470D01*
X3107Y7722D02*
Y8630D01*
X21450Y573D02*
Y1280D01*
X21500Y573D02*
Y1280D01*
X21550Y573D02*
Y1280D01*
X21600Y573D02*
Y1280D01*
X21650Y573D02*
Y1280D01*
X21700Y573D02*
Y1280D01*
X21750Y573D02*
Y1280D01*
X21053Y573D02*
Y1280D01*
X21100Y573D02*
Y1280D01*
X21150Y573D02*
Y1280D01*
X21200Y573D02*
Y1280D01*
X21250Y573D02*
Y1280D01*
X21300Y573D02*
Y1280D01*
X21350Y573D02*
Y1280D01*
X21400Y573D02*
Y1280D01*
X21053Y723D02*
X24921D01*
X21053Y773D02*
X24921D01*
X21053Y823D02*
X24921D01*
X21053Y573D02*
X22307D01*
X21053Y573D02*
X24820Y574D01*
X21053Y623D02*
X24921D01*
X21053Y673D02*
X24921D01*
X21800Y573D02*
Y2373D01*
X21053Y873D02*
X24921D01*
X21053Y923D02*
X24922D01*
X21053Y973D02*
X24922D01*
X21850Y573D02*
Y2373D01*
X21900Y573D02*
Y2373D01*
X21950Y573D02*
Y2373D01*
X22000Y573D02*
Y2373D01*
X21053Y1280D02*
X21750D01*
Y1423D02*
X22245D01*
X21750Y1373D02*
X22245D01*
X21750Y1523D02*
X22245D01*
X21750Y1473D02*
X22245D01*
X21750Y1623D02*
X22245D01*
X21750Y1573D02*
X22245D01*
X21750Y1280D02*
Y2373D01*
Y1280D02*
Y2373D01*
Y2223D02*
X22245D01*
X21750Y2173D02*
X22245D01*
X21750Y1723D02*
X22245D01*
X21750Y1673D02*
X22245D01*
X21750Y2123D02*
X22245D01*
X21750Y1773D02*
X22245D01*
X21053Y1023D02*
X24922D01*
X21053Y1073D02*
X24922D01*
X21053Y1123D02*
X24922D01*
X21053Y1173D02*
X24923D01*
X21053Y1223D02*
X24923D01*
X21053Y1273D02*
X24923D01*
X21750Y1823D02*
X22245D01*
X21750Y1323D02*
X24923D01*
X21750Y2273D02*
X22245D01*
X21750Y2073D02*
X22245D01*
X21750Y2373D02*
X22245D01*
X21750Y2323D02*
X22245D01*
X21750Y1923D02*
X22245D01*
X21750Y1873D02*
X22245D01*
X21750Y2023D02*
X22245D01*
X21750Y1973D02*
X22245D01*
X22450Y573D02*
Y1353D01*
X22500Y573D02*
Y1353D01*
X22550Y574D02*
Y1353D01*
X22600Y574D02*
Y1353D01*
X22650Y574D02*
Y1353D01*
X22700Y574D02*
Y1353D01*
X22750Y574D02*
Y1353D01*
X22050Y573D02*
Y2373D01*
X22100Y573D02*
Y2373D01*
X22150Y573D02*
Y2373D01*
X22200Y573D02*
Y2373D01*
X22250Y573D02*
Y1353D01*
X22300Y573D02*
Y1353D01*
X22350Y573D02*
Y1353D01*
X22400Y573D02*
Y1353D01*
X23200Y574D02*
Y1353D01*
X23250Y574D02*
Y1353D01*
X23300Y574D02*
Y1353D01*
X23350Y574D02*
Y1353D01*
X23400Y574D02*
Y1353D01*
X23450Y574D02*
Y1353D01*
X23500Y574D02*
Y1353D01*
X23550Y574D02*
Y1353D01*
X22800Y574D02*
Y1353D01*
X22850Y574D02*
Y1353D01*
X22900Y574D02*
Y1353D01*
X22950Y574D02*
Y1353D01*
X23000Y574D02*
Y1353D01*
X23050Y574D02*
Y1353D01*
X23100Y574D02*
Y1353D01*
X23150Y574D02*
Y1353D01*
X23950Y574D02*
Y1353D01*
X24000Y574D02*
Y1353D01*
X24050Y574D02*
Y1353D01*
X24100Y574D02*
Y1353D01*
X24150Y574D02*
Y1353D01*
X24200Y574D02*
Y1353D01*
X24250Y574D02*
Y1353D01*
X23600Y574D02*
Y1353D01*
X23650Y574D02*
Y1353D01*
X22245D02*
Y2373D01*
X23700Y574D02*
Y1353D01*
X23750Y574D02*
Y1353D01*
X23800Y574D02*
Y1353D01*
X23850Y574D02*
Y1353D01*
X23900Y574D02*
Y1353D01*
X24300Y574D02*
Y1353D01*
X24350Y574D02*
Y1353D01*
X24400Y574D02*
Y1353D01*
X24450Y574D02*
Y1353D01*
X24500Y574D02*
Y1353D01*
X24550Y574D02*
Y1353D01*
X24600Y574D02*
Y1353D01*
X24820Y574D02*
X24920Y574D01*
X24650Y574D02*
Y1353D01*
X24700Y574D02*
Y1353D01*
X24750Y574D02*
Y1353D01*
X22245D02*
X24923D01*
X24800Y574D02*
Y1353D01*
X24850Y574D02*
Y1353D01*
X24900Y574D02*
Y1353D01*
X24920Y574D02*
X24923Y1353D01*
X20200Y2323D02*
Y2753D01*
X20250Y2323D02*
Y2753D01*
X20105Y2323D02*
Y2753D01*
X20295D01*
X20150Y2323D02*
Y2753D01*
X20300Y2323D02*
Y2753D01*
X20350Y2323D02*
Y2765D01*
X19650Y3973D02*
Y5083D01*
X19700Y3973D02*
Y5083D01*
X19385Y3973D02*
Y5083D01*
X19600Y3973D02*
Y5083D01*
X19400Y3973D02*
Y5083D01*
X20415Y3843D02*
Y3973D01*
X19750D02*
Y5083D01*
X19850Y3973D02*
Y5083D01*
X19800Y3973D02*
Y5083D01*
X20105Y2323D02*
X20530D01*
X20105Y2373D02*
X21595D01*
X20105Y2523D02*
X20715D01*
X20105Y2423D02*
X21595D01*
X20105Y2473D02*
X21595D01*
X20105Y2623D02*
X20715D01*
X20105Y2573D02*
X20715D01*
X20365Y2773D02*
X20715D01*
X20105Y2673D02*
X20715D01*
X20105Y2723D02*
X20715D01*
X20415Y3923D02*
X21484D01*
X20422Y3823D02*
X21484D01*
X20415Y3873D02*
X21484D01*
X20425Y2923D02*
X20715D01*
X20425Y2873D02*
X20715D01*
X20425Y3023D02*
X20715D01*
X20425Y3123D02*
X20715D01*
X20425Y3623D02*
X21485D01*
X20150Y3973D02*
Y5083D01*
X19385Y3973D02*
X20415D01*
X19385Y4423D02*
X21483D01*
X19385Y4323D02*
X21483D01*
X19385Y4373D02*
X21483D01*
X20350Y3973D02*
Y5083D01*
X20400Y3973D02*
Y5083D01*
X20200Y3973D02*
Y5083D01*
X20300Y3973D02*
Y5083D01*
X20250Y3973D02*
Y5083D01*
X19550Y3973D02*
Y5083D01*
X19900Y3973D02*
Y5083D01*
X19450Y3973D02*
Y5083D01*
X19385D02*
X20045D01*
X19500Y3973D02*
Y5083D01*
X19950Y3973D02*
Y5083D01*
X20000Y3973D02*
Y5083D01*
X20050Y3973D02*
Y5083D01*
X20100Y3973D02*
Y5083D01*
X20045Y5083D02*
X21290Y5083D01*
X19385Y4273D02*
X21484D01*
X19385Y4223D02*
X21484D01*
X19385Y4473D02*
X21490D01*
X19385Y4523D02*
X21492D01*
X19385Y4573D02*
X21492D01*
X19385Y4023D02*
X21484D01*
X19385Y3973D02*
X21484D01*
X19385Y4173D02*
X21484D01*
X19385Y4073D02*
X21484D01*
X19385Y4123D02*
X21484D01*
X19385Y4923D02*
X21491D01*
X19385Y4873D02*
X21491D01*
X19385Y5073D02*
X21490D01*
X19385Y4973D02*
X21491D01*
X19385Y5023D02*
X21491D01*
X19385Y4673D02*
X21492D01*
X19385Y4623D02*
X21492D01*
X19385Y4823D02*
X21491D01*
X19385Y4723D02*
X21491D01*
X19385Y4773D02*
X21491D01*
X20800Y2323D02*
Y2493D01*
X20850Y2323D02*
Y2493D01*
X20750Y2323D02*
Y2493D01*
X20770Y2323D02*
X20855D01*
X20530D02*
X20770D01*
X21300Y2353D02*
Y2493D01*
X21345Y1723D02*
Y2353D01*
X20900D02*
Y2493D01*
X21200Y2353D02*
Y2493D01*
X21100Y2353D02*
Y2493D01*
X20600Y2323D02*
Y5083D01*
X20650Y2323D02*
Y5083D01*
X20450Y2323D02*
Y5083D01*
X20550Y2323D02*
Y5083D01*
X20500Y2323D02*
Y5083D01*
X20700Y2323D02*
Y5083D01*
X20950Y2353D02*
Y2493D01*
X21000Y2353D02*
Y2493D01*
X21250Y2353D02*
Y2493D01*
X21050Y2353D02*
Y2493D01*
X21345Y2023D02*
X21595D01*
X21345Y1973D02*
X21595D01*
X21345Y2173D02*
X21595D01*
X21345Y2073D02*
X21595D01*
X21345Y2123D02*
X21595D01*
X21345Y1773D02*
X21595D01*
X21345Y1723D02*
X21595D01*
X21345Y1923D02*
X21595D01*
X21345Y1823D02*
X21595D01*
X21345Y1873D02*
X21595D01*
X21350Y1723D02*
Y2493D01*
X21345Y2223D02*
X21595D01*
X20855Y2353D02*
X21345D01*
Y2273D02*
X21595D01*
X21345Y2323D02*
X21595D01*
X21550Y1723D02*
Y2493D01*
X21595Y1723D02*
Y2493D01*
X21400Y1723D02*
Y2493D01*
X21500Y1723D02*
Y2493D01*
X21450Y1723D02*
Y2493D01*
X20425Y3323D02*
X20715D01*
X20425Y3273D02*
X20715D01*
X20425Y3473D02*
X20715D01*
X20425Y3373D02*
X20715D01*
X20425Y3423D02*
X20715D01*
X20425Y2973D02*
X20715D01*
X21150Y2353D02*
Y2493D01*
X20425Y3223D02*
X20715D01*
X20425Y3073D02*
X20715D01*
X20425Y3173D02*
X20715D01*
X20425Y2883D02*
Y3793D01*
X20715Y2493D02*
Y3483D01*
X20750D02*
Y5083D01*
X20850Y3483D02*
Y5083D01*
X20800Y3483D02*
Y5083D01*
X21050Y3483D02*
Y5083D01*
X21100Y3483D02*
Y5083D01*
X20900Y3483D02*
Y5083D01*
X21000Y3483D02*
Y5083D01*
X20950Y3483D02*
Y5083D01*
X20425Y3573D02*
X21485D01*
X20425Y3523D02*
X21485D01*
X20425Y3773D02*
X21485D01*
X20425Y3673D02*
X21485D01*
X20425Y3723D02*
X21485D01*
X21483Y4433D02*
X21485Y3483D01*
X20715Y2493D02*
X21595D01*
X20715Y3483D02*
X21485D01*
X21150D02*
Y5083D01*
X21200Y3483D02*
Y5083D01*
X21250Y3483D02*
Y5083D01*
X21290Y5083D02*
X21490D01*
X21300Y3483D02*
Y5083D01*
X21350Y3483D02*
Y5083D01*
X21450Y3483D02*
Y5083D01*
X21400Y3483D02*
Y5083D01*
X21490D02*
X21492Y4481D01*
X19375Y1923D02*
X19520D01*
X19375Y1973D02*
X19520D01*
X19375Y2023D02*
X19521D01*
X19375Y2073D02*
X19521D01*
X19550Y1240D02*
Y1923D01*
X19375Y2123D02*
X19521D01*
X19375Y2173D02*
X19521D01*
X19375Y1240D02*
Y3793D01*
Y2223D02*
X19522D01*
X19375Y2273D02*
X19522D01*
X19375Y2323D02*
X19522D01*
X19400Y1240D02*
Y3793D01*
X19450Y1240D02*
Y3793D01*
X19500Y1240D02*
Y3793D01*
X19520Y1923D02*
X19525Y2883D01*
X19375Y1473D02*
X20075D01*
X19375Y1423D02*
X20075D01*
X19375Y1573D02*
X20075D01*
X19375Y1523D02*
X20075D01*
X19375Y1240D02*
X19800D01*
X19375Y1273D02*
X20873D01*
X19375Y1373D02*
X20873D01*
X19375Y1323D02*
X20873D01*
X19375Y1673D02*
X20075D01*
X19375Y1623D02*
X20075D01*
X19375Y1773D02*
X20075D01*
X19375Y1723D02*
X20075D01*
X19375Y1873D02*
X20075D01*
X19375Y1823D02*
X20075D01*
X19520Y1923D02*
X20075D01*
X19520D02*
X20075D01*
X19375Y2573D02*
X19524D01*
X19375Y2623D02*
X19524D01*
X19375Y2673D02*
X19524D01*
X19375Y2373D02*
X19523D01*
X19375Y2423D02*
X19523D01*
X19375Y2473D02*
X19523D01*
X19375Y2523D02*
X19523D01*
X19375Y2723D02*
X19525D01*
X19375Y2773D02*
X19525D01*
X19375Y2823D02*
X19525D01*
X19375Y2873D02*
X19525D01*
X19375Y2923D02*
X20295D01*
X19525Y2883D02*
X20295D01*
X19375Y3023D02*
X20295D01*
X19375Y2973D02*
X20295D01*
X19375Y3323D02*
X20295D01*
X19375Y3273D02*
X20295D01*
X19375Y3423D02*
X20295D01*
X19375Y3373D02*
X20295D01*
X19375Y3123D02*
X20295D01*
X19375Y3073D02*
X20295D01*
X19375Y3223D02*
X20295D01*
X19375Y3173D02*
X20295D01*
X19375Y3723D02*
X20295D01*
X19375Y3673D02*
X20295D01*
X19375Y3793D02*
X20295D01*
X19375Y3773D02*
X20295D01*
X19375Y3523D02*
X20295D01*
X19375Y3473D02*
X20295D01*
X19375Y3623D02*
X20295D01*
X19375Y3573D02*
X20295D01*
X20100Y573D02*
Y1413D01*
X19800Y573D02*
Y1240D01*
Y573D02*
Y1240D01*
X20400Y573D02*
Y1413D01*
X20450Y573D02*
Y1413D01*
X20150Y573D02*
Y1413D01*
X20200Y573D02*
Y1413D01*
X19950Y573D02*
Y1923D01*
X20000Y573D02*
Y1923D01*
X19850Y573D02*
Y1923D01*
X19900Y573D02*
Y1923D01*
X20300Y573D02*
Y1413D01*
X20350Y573D02*
Y1413D01*
X20050Y573D02*
Y1923D01*
X20250Y573D02*
Y1413D01*
X19800Y573D02*
X20873D01*
X19800Y573D02*
X20873D01*
X19800Y673D02*
X20873D01*
X19800Y623D02*
X20873D01*
X20600Y573D02*
Y1413D01*
X19800Y723D02*
X20873D01*
X19800Y823D02*
X20873D01*
X19800Y773D02*
X20873D01*
X20650Y573D02*
Y1413D01*
X20700Y573D02*
Y1413D01*
X20500Y573D02*
Y1413D01*
X20550Y573D02*
Y1413D01*
X20850Y573D02*
Y1413D01*
X20873Y573D02*
Y1413D01*
X20750Y573D02*
Y1413D01*
X20800Y573D02*
Y1413D01*
X19650Y1240D02*
Y1923D01*
X19550Y2883D02*
Y3793D01*
X19600Y1240D02*
Y1923D01*
X19700Y1240D02*
Y1923D01*
X19750Y1240D02*
Y1923D01*
X19700Y2883D02*
Y3793D01*
X19800Y1240D02*
Y1923D01*
X19750Y2883D02*
Y3793D01*
X19800Y2883D02*
Y3793D01*
X19600Y2883D02*
Y3793D01*
X19650Y2883D02*
Y3793D01*
X19950Y2883D02*
Y3793D01*
X20000Y2883D02*
Y3793D01*
X19850Y2883D02*
Y3793D01*
X19900Y2883D02*
Y3793D01*
X19800Y1123D02*
X20873D01*
X19800Y1073D02*
X20873D01*
X19800Y1223D02*
X20873D01*
X19800Y1173D02*
X20873D01*
X19800Y923D02*
X20873D01*
X19800Y873D02*
X20873D01*
X19800Y1023D02*
X20873D01*
X19800Y973D02*
X20873D01*
X20075Y1413D02*
Y1923D01*
Y1413D02*
X20873D01*
X20050Y2883D02*
Y3793D01*
X20100Y2883D02*
Y3793D01*
X20250Y2883D02*
Y3793D01*
X20295Y2883D02*
Y3793D01*
X20150Y2883D02*
Y3793D01*
X20200Y2883D02*
Y3793D01*
X7930Y9290D02*
X7960Y9320D01*
X10000Y7760D02*
X10200Y7560D01*
Y6850D02*
Y7560D01*
X7930Y8330D02*
Y10630D01*
X9050Y7760D02*
X10000D01*
X9770Y7610D02*
X9944Y7436D01*
Y6850D02*
Y7436D01*
X8960Y7610D02*
X9770D01*
X8890Y7440D02*
X9560D01*
X9688Y6850D02*
Y7312D01*
X9560Y7440D02*
X9688Y7312D01*
X10740Y-550D02*
X10607D01*
X10673D01*
Y-150D01*
X10740Y-217D01*
X10407D02*
X10340Y-150D01*
X10207D01*
X10140Y-217D01*
Y-483D01*
X10207Y-550D01*
X10340D01*
X10407Y-483D01*
Y-217D01*
X10007D02*
X9940Y-150D01*
X9807D01*
X9740Y-217D01*
Y-483D01*
X9807Y-550D01*
X9940D01*
X10007Y-483D01*
Y-217D01*
X9607Y-150D02*
X9340D01*
Y-217D01*
X9607Y-483D01*
Y-550D01*
X9207Y-150D02*
Y-550D01*
Y-417D01*
X8941Y-150D01*
X9141Y-350D01*
X8941Y-550D01*
X8807Y-150D02*
Y-550D01*
Y-417D01*
X8541Y-150D01*
X8741Y-350D01*
X8541Y-550D01*
X-2819Y-12745D02*
X-2768Y-12719D01*
X-2692Y-12643D01*
Y-13176D01*
X-2276Y-12643D02*
X-2352Y-12669D01*
X-2403Y-12745D01*
X-2428Y-12872D01*
Y-12948D01*
X-2403Y-13075D01*
X-2352Y-13151D01*
X-2276Y-13176D01*
X-2225D01*
X-2149Y-13151D01*
X-2098Y-13075D01*
X-2073Y-12948D01*
Y-12872D01*
X-2098Y-12745D01*
X-2149Y-12669D01*
X-2225Y-12643D01*
X-2276D01*
X-1953Y-13253D02*
X-1598Y-12643D01*
X-1410D02*
X-1486Y-12669D01*
X-1537Y-12745D01*
X-1562Y-12872D01*
Y-12948D01*
X-1537Y-13075D01*
X-1486Y-13151D01*
X-1410Y-13176D01*
X-1359D01*
X-1283Y-13151D01*
X-1232Y-13075D01*
X-1207Y-12948D01*
Y-12872D01*
X-1232Y-12745D01*
X-1283Y-12669D01*
X-1359Y-12643D01*
X-1410D01*
X-732D02*
X-986Y-13176D01*
X-1087Y-12643D02*
X-732D01*
X225D02*
Y-13176D01*
X581Y-12643D02*
X225Y-12999D01*
X352Y-12872D02*
X581Y-13176D01*
X700Y-12643D02*
Y-13176D01*
X1056Y-12643D02*
X700Y-12999D01*
X827Y-12872D02*
X1056Y-13176D01*
D55*
X24990Y10846D02*
X25289Y10547D01*
X25400Y10436D01*
X26580Y7962D02*
Y8321D01*
Y8681D02*
X26760Y8501D01*
X26580Y8321D02*
X26760Y8501D01*
X24964Y12472D02*
X25092Y12600D01*
X25650D01*
X24990Y7246D02*
X25289Y6947D01*
X24965Y7246D02*
X24990D01*
X24965Y8446D02*
X24990D01*
X24964Y12047D02*
Y12472D01*
Y12047D02*
X24965Y12046D01*
X24965Y9646D02*
X25400Y10081D01*
Y10436D01*
X9015Y13615D02*
X11415D01*
X8850Y12950D02*
Y13450D01*
X9015Y13615D01*
X26035Y7417D02*
X26580Y7962D01*
Y8681D02*
Y9750D01*
X27070Y10240D01*
X27400D01*
X-3594Y37898D02*
X1506D01*
D57*
X21629Y-14208D02*
X21552Y-14233D01*
X21502Y-14309D01*
X21476Y-14436D01*
Y-14512D01*
X21502Y-14639D01*
X21552Y-14716D01*
X21629Y-14741D01*
X21679D01*
X21755Y-14716D01*
X21806Y-14639D01*
X21832Y-14512D01*
Y-14436D01*
X21806Y-14309D01*
X21755Y-14233D01*
X21679Y-14208D01*
X21629D01*
X21976Y-14335D02*
Y-14309D01*
X22002Y-14258D01*
X22027Y-14233D01*
X22078Y-14208D01*
X22180D01*
X22230Y-14233D01*
X22256Y-14258D01*
X22281Y-14309D01*
Y-14360D01*
X22256Y-14411D01*
X22205Y-14487D01*
X21951Y-14741D01*
X22306D01*
X6350Y-10396D02*
X6305Y-10305D01*
X6213Y-10213D01*
X6122Y-10168D01*
X5939D01*
X5848Y-10213D01*
X5756Y-10305D01*
X5711Y-10396D01*
X5665Y-10533D01*
Y-10762D01*
X5711Y-10899D01*
X5756Y-10990D01*
X5848Y-11082D01*
X5939Y-11127D01*
X6122D01*
X6213Y-11082D01*
X6305Y-10990D01*
X6350Y-10899D01*
X6849Y-10487D02*
X6757Y-10533D01*
X6666Y-10625D01*
X6620Y-10762D01*
Y-10853D01*
X6666Y-10990D01*
X6757Y-11082D01*
X6849Y-11127D01*
X6986D01*
X7077Y-11082D01*
X7169Y-10990D01*
X7214Y-10853D01*
Y-10762D01*
X7169Y-10625D01*
X7077Y-10533D01*
X6986Y-10487D01*
X6849D01*
X7425D02*
Y-11127D01*
Y-10670D02*
X7562Y-10533D01*
X7653Y-10487D01*
X7790D01*
X7882Y-10533D01*
X7927Y-10670D01*
Y-11127D01*
Y-10670D02*
X8064Y-10533D01*
X8156Y-10487D01*
X8293D01*
X8384Y-10533D01*
X8430Y-10670D01*
Y-11127D01*
X8732Y-10487D02*
Y-11447D01*
Y-10625D02*
X8823Y-10533D01*
X8914Y-10487D01*
X9052D01*
X9143Y-10533D01*
X9234Y-10625D01*
X9280Y-10762D01*
Y-10853D01*
X9234Y-10990D01*
X9143Y-11082D01*
X9052Y-11127D01*
X8914D01*
X8823Y-11082D01*
X8732Y-10990D01*
X10034Y-10487D02*
Y-11127D01*
Y-10625D02*
X9943Y-10533D01*
X9851Y-10487D01*
X9714D01*
X9623Y-10533D01*
X9532Y-10625D01*
X9486Y-10762D01*
Y-10853D01*
X9532Y-10990D01*
X9623Y-11082D01*
X9714Y-11127D01*
X9851D01*
X9943Y-11082D01*
X10034Y-10990D01*
X10839Y-10625D02*
X10747Y-10533D01*
X10656Y-10487D01*
X10519D01*
X10427Y-10533D01*
X10336Y-10625D01*
X10290Y-10762D01*
Y-10853D01*
X10336Y-10990D01*
X10427Y-11082D01*
X10519Y-11127D01*
X10656D01*
X10747Y-11082D01*
X10839Y-10990D01*
X11181Y-10168D02*
Y-10944D01*
X11227Y-11082D01*
X11319Y-11127D01*
X11410D01*
X11044Y-10487D02*
X11364D01*
X12301Y-10168D02*
Y-11127D01*
Y-10168D02*
X12895D01*
X12301Y-10625D02*
X12667D01*
X13005Y-10168D02*
Y-11127D01*
X13755Y-10487D02*
Y-11127D01*
Y-10625D02*
X13663Y-10533D01*
X13572Y-10487D01*
X13435D01*
X13343Y-10533D01*
X13252Y-10625D01*
X13206Y-10762D01*
Y-10853D01*
X13252Y-10990D01*
X13343Y-11082D01*
X13435Y-11127D01*
X13572D01*
X13663Y-11082D01*
X13755Y-10990D01*
X14513Y-10625D02*
X14468Y-10533D01*
X14330Y-10487D01*
X14193D01*
X14056Y-10533D01*
X14011Y-10625D01*
X14056Y-10716D01*
X14148Y-10762D01*
X14376Y-10807D01*
X14468Y-10853D01*
X14513Y-10944D01*
Y-10990D01*
X14468Y-11082D01*
X14330Y-11127D01*
X14193D01*
X14056Y-11082D01*
X14011Y-10990D01*
X14714Y-10168D02*
Y-11127D01*
Y-10670D02*
X14852Y-10533D01*
X14943Y-10487D01*
X15080D01*
X15171Y-10533D01*
X15217Y-10670D01*
Y-11127D01*
X16223Y-10168D02*
Y-11127D01*
Y-10168D02*
X16634D01*
X16771Y-10213D01*
X16817Y-10259D01*
X16863Y-10350D01*
Y-10442D01*
X16817Y-10533D01*
X16771Y-10579D01*
X16634Y-10625D01*
X16223D01*
X16543D02*
X16863Y-11127D01*
X17077Y-10762D02*
X17626D01*
Y-10670D01*
X17580Y-10579D01*
X17534Y-10533D01*
X17443Y-10487D01*
X17306D01*
X17214Y-10533D01*
X17123Y-10625D01*
X17077Y-10762D01*
Y-10853D01*
X17123Y-10990D01*
X17214Y-11082D01*
X17306Y-11127D01*
X17443D01*
X17534Y-11082D01*
X17626Y-10990D01*
X18380Y-10487D02*
Y-11127D01*
Y-10625D02*
X18288Y-10533D01*
X18197Y-10487D01*
X18060D01*
X17969Y-10533D01*
X17877Y-10625D01*
X17831Y-10762D01*
Y-10853D01*
X17877Y-10990D01*
X17969Y-11082D01*
X18060Y-11127D01*
X18197D01*
X18288Y-11082D01*
X18380Y-10990D01*
X19184Y-10168D02*
Y-11127D01*
Y-10625D02*
X19093Y-10533D01*
X19001Y-10487D01*
X18864D01*
X18773Y-10533D01*
X18682Y-10625D01*
X18636Y-10762D01*
Y-10853D01*
X18682Y-10990D01*
X18773Y-11082D01*
X18864Y-11127D01*
X19001D01*
X19093Y-11082D01*
X19184Y-10990D01*
X19440Y-10762D02*
X19989D01*
Y-10670D01*
X19943Y-10579D01*
X19897Y-10533D01*
X19806Y-10487D01*
X19669D01*
X19577Y-10533D01*
X19486Y-10625D01*
X19440Y-10762D01*
Y-10853D01*
X19486Y-10990D01*
X19577Y-11082D01*
X19669Y-11127D01*
X19806D01*
X19897Y-11082D01*
X19989Y-10990D01*
X20194Y-10487D02*
Y-11127D01*
Y-10762D02*
X20240Y-10625D01*
X20331Y-10533D01*
X20423Y-10487D01*
X20560D01*
X4382Y-7316D02*
X4017Y-6356D01*
X3651Y-7316D01*
X3788Y-6996D02*
X4245D01*
X5155Y-6813D02*
X5063Y-6722D01*
X4972Y-6676D01*
X4835D01*
X4744Y-6722D01*
X4652Y-6813D01*
X4606Y-6950D01*
Y-7042D01*
X4652Y-7179D01*
X4744Y-7270D01*
X4835Y-7316D01*
X4972D01*
X5063Y-7270D01*
X5155Y-7179D01*
X5498Y-6356D02*
Y-7133D01*
X5543Y-7270D01*
X5635Y-7316D01*
X5726D01*
X5361Y-6676D02*
X5680D01*
X5955Y-6356D02*
X6000Y-6402D01*
X6046Y-6356D01*
X6000Y-6310D01*
X5955Y-6356D01*
X6000Y-6676D02*
Y-7316D01*
X6215Y-6676D02*
X6489Y-7316D01*
X6764Y-6676D02*
X6489Y-7316D01*
X6919Y-6950D02*
X7467D01*
Y-6859D01*
X7422Y-6767D01*
X7376Y-6722D01*
X7285Y-6676D01*
X7148D01*
X7056Y-6722D01*
X6965Y-6813D01*
X6919Y-6950D01*
Y-7042D01*
X6965Y-7179D01*
X7056Y-7270D01*
X7148Y-7316D01*
X7285D01*
X7376Y-7270D01*
X7467Y-7179D01*
X8427Y-6356D02*
X8656Y-7316D01*
X8884Y-6356D02*
X8656Y-7316D01*
X8884Y-6356D02*
X9113Y-7316D01*
X9341Y-6356D02*
X9113Y-7316D01*
X10082Y-6676D02*
Y-7316D01*
Y-6813D02*
X9990Y-6722D01*
X9899Y-6676D01*
X9762D01*
X9670Y-6722D01*
X9579Y-6813D01*
X9533Y-6950D01*
Y-7042D01*
X9579Y-7179D01*
X9670Y-7270D01*
X9762Y-7316D01*
X9899D01*
X9990Y-7270D01*
X10082Y-7179D01*
X10338Y-6676D02*
X10612Y-7316D01*
X10886Y-6676D02*
X10612Y-7316D01*
X11042Y-6950D02*
X11590D01*
Y-6859D01*
X11544Y-6767D01*
X11499Y-6722D01*
X11407Y-6676D01*
X11270D01*
X11179Y-6722D01*
X11087Y-6813D01*
X11042Y-6950D01*
Y-7042D01*
X11087Y-7179D01*
X11179Y-7270D01*
X11270Y-7316D01*
X11407D01*
X11499Y-7270D01*
X11590Y-7179D01*
X28499Y-14089D02*
X28550Y-14063D01*
X28626Y-13987D01*
Y-14521D01*
X29042Y-13987D02*
X28966Y-14013D01*
X28915Y-14089D01*
X28890Y-14216D01*
Y-14292D01*
X28915Y-14419D01*
X28966Y-14495D01*
X29042Y-14521D01*
X29093D01*
X29169Y-14495D01*
X29220Y-14419D01*
X29245Y-14292D01*
Y-14216D01*
X29220Y-14089D01*
X29169Y-14013D01*
X29093Y-13987D01*
X29042D01*
X29365Y-14597D02*
X29720Y-13987D01*
X29756Y-14089D02*
X29807Y-14063D01*
X29883Y-13987D01*
Y-14521D01*
X30147Y-14597D02*
X30502Y-13987D01*
X30690D02*
X30614Y-14013D01*
X30563Y-14089D01*
X30538Y-14216D01*
Y-14292D01*
X30563Y-14419D01*
X30614Y-14495D01*
X30690Y-14521D01*
X30741D01*
X30817Y-14495D01*
X30868Y-14419D01*
X30893Y-14292D01*
Y-14216D01*
X30868Y-14089D01*
X30817Y-14013D01*
X30741Y-13987D01*
X30690D01*
X31368D02*
X31114Y-14521D01*
X31013Y-13987D02*
X31368D01*
D58*
X2802Y4916D02*
X2957Y4761D01*
X2957Y4761D01*
X2642Y2992D02*
Y3186D01*
X2470Y2820D02*
X2642Y2992D01*
X2470Y2593D02*
Y2820D01*
X2374Y2497D02*
X2470Y2593D01*
X2484Y3100D02*
Y3265D01*
X2360Y2638D02*
Y2976D01*
X2484Y3100D01*
X2264Y2542D02*
X2360Y2638D01*
X2374Y2046D02*
Y2497D01*
Y2046D02*
X2431Y1989D01*
X2264Y1960D02*
Y2542D01*
X2850Y2940D02*
X2957Y3047D01*
Y3186D01*
X3427Y5231D02*
Y6006D01*
X3557Y6136D01*
X4216Y3501D02*
X4639D01*
X4870Y3270D01*
X5080D01*
X2172Y4356D02*
Y4551D01*
Y4356D02*
X2242Y4286D01*
X3427D01*
X2487Y5231D02*
Y5536D01*
Y5231D02*
X2642Y5076D01*
X4059Y4604D02*
Y5549D01*
X3902Y4446D02*
X4059Y4604D01*
X2797Y4916D02*
X2802D01*
X1847Y5006D02*
Y5136D01*
X1947Y5236D01*
X2093D01*
X2169Y5312D01*
X1847Y5006D02*
X1937Y4916D01*
X2107D01*
X2262Y4761D01*
X2327D01*
X2099Y5076D02*
X2257Y4919D01*
X2012Y5076D02*
X2099D01*
X3427Y4286D02*
X3587Y4446D01*
X1577Y3856D02*
X1787D01*
X1907Y3976D01*
X2417D01*
X2487Y3906D01*
Y3656D02*
Y3906D01*
Y3656D02*
X2642Y3501D01*
X1767Y3656D02*
X2172D01*
X2327Y3501D01*
X2957D02*
X3117Y3341D01*
X3272Y5076D02*
X3427Y5231D01*
X3744Y3659D02*
X3902Y3816D01*
X3744Y3108D02*
Y3659D01*
X2169Y5312D02*
Y5549D01*
X4059Y3344D02*
X4374D01*
X3902Y3186D02*
X4059Y3344D01*
X3902Y3501D02*
X4059Y3659D01*
X4059Y3974D02*
X4374D01*
X3902Y4131D02*
X4059Y3974D01*
X2799Y5234D02*
Y5549D01*
Y5234D02*
X2957Y5076D01*
X1776Y3344D02*
X2169D01*
X2484Y3265D02*
X2563Y3344D01*
X2720D01*
X2799Y3423D01*
Y3659D01*
X2957Y3816D01*
X2169Y3344D02*
X2327Y3186D01*
X3745Y4919D02*
X3902Y5076D01*
X3745Y4366D02*
X3820Y4291D01*
X4060D01*
X3745Y4366D02*
Y4919D01*
X2123Y4600D02*
X2172Y4551D01*
X1840Y4600D02*
X2123D01*
X2484Y4919D02*
X2642Y4761D01*
X2257Y4919D02*
X2484D01*
X3172Y2422D02*
X3196Y2399D01*
X3172Y2422D02*
Y2725D01*
X3117Y2780D02*
X3172Y2725D01*
X3117Y2780D02*
Y3341D01*
X4825Y3605D02*
X4850Y3580D01*
X4675Y3605D02*
X4825D01*
X4621Y3659D02*
X4675Y3605D01*
X4059Y3659D02*
X4621D01*
X24351Y-13458D02*
Y-13991D01*
Y-13458D02*
X24529D01*
X24605Y-13483D01*
X24656Y-13534D01*
X24681Y-13585D01*
X24707Y-13661D01*
Y-13788D01*
X24681Y-13864D01*
X24656Y-13915D01*
X24605Y-13966D01*
X24529Y-13991D01*
X24351D01*
X25232D02*
X25029Y-13458D01*
X24826Y-13991D01*
X24902Y-13813D02*
X25156D01*
X25534Y-13458D02*
Y-13991D01*
X25357Y-13458D02*
X25712D01*
X26106D02*
X25776D01*
Y-13991D01*
X26106D01*
X25776Y-13712D02*
X25979D01*
X26220Y-13635D02*
X26195Y-13661D01*
X26220Y-13686D01*
X26245Y-13661D01*
X26220Y-13635D01*
Y-13940D02*
X26195Y-13966D01*
X26220Y-13991D01*
X26245Y-13966D01*
X26220Y-13940D01*
X19726Y-13458D02*
Y-13991D01*
Y-13458D02*
X19955D01*
X20031Y-13483D01*
X20056Y-13508D01*
X20082Y-13559D01*
Y-13610D01*
X20056Y-13661D01*
X20031Y-13686D01*
X19955Y-13712D01*
X19726D01*
X19904D02*
X20082Y-13991D01*
X20531Y-13458D02*
X20201D01*
Y-13991D01*
X20531D01*
X20201Y-13712D02*
X20404D01*
X20620Y-13458D02*
X20823Y-13991D01*
X21026Y-13458D02*
X20823Y-13991D01*
X21120Y-13635D02*
X21095Y-13661D01*
X21120Y-13686D01*
X21146Y-13661D01*
X21120Y-13635D01*
Y-13940D02*
X21095Y-13966D01*
X21120Y-13991D01*
X21146Y-13966D01*
X21120Y-13940D01*
X-6649Y-10987D02*
X-6420D01*
X-6344Y-10962D01*
X-6319Y-10936D01*
X-6293Y-10885D01*
Y-10809D01*
X-6319Y-10758D01*
X-6344Y-10733D01*
X-6420Y-10708D01*
X-6649D01*
Y-11241D01*
X-6174Y-10708D02*
Y-11241D01*
X-5819Y-10708D02*
Y-11241D01*
X-6174Y-10962D02*
X-5819D01*
X-5519Y-10708D02*
X-5570Y-10733D01*
X-5620Y-10784D01*
X-5646Y-10835D01*
X-5671Y-10911D01*
Y-11038D01*
X-5646Y-11114D01*
X-5620Y-11165D01*
X-5570Y-11216D01*
X-5519Y-11241D01*
X-5417D01*
X-5367Y-11216D01*
X-5316Y-11165D01*
X-5290Y-11114D01*
X-5265Y-11038D01*
Y-10911D01*
X-5290Y-10835D01*
X-5316Y-10784D01*
X-5367Y-10733D01*
X-5417Y-10708D01*
X-5519D01*
X-5141D02*
Y-11241D01*
Y-10708D02*
X-4785Y-11241D01*
Y-10708D02*
Y-11241D01*
X-4308Y-10708D02*
X-4638D01*
Y-11241D01*
X-4308D01*
X-4638Y-10962D02*
X-4435D01*
X-4193Y-10885D02*
X-4219Y-10911D01*
X-4193Y-10936D01*
X-4168Y-10911D01*
X-4193Y-10885D01*
Y-11190D02*
X-4219Y-11216D01*
X-4193Y-11241D01*
X-4168Y-11216D01*
X-4193Y-11190D01*
X-6649Y-14737D02*
X-6420D01*
X-6344Y-14712D01*
X-6319Y-14686D01*
X-6293Y-14635D01*
Y-14559D01*
X-6319Y-14508D01*
X-6344Y-14483D01*
X-6420Y-14458D01*
X-6649D01*
Y-14991D01*
X-6174Y-14458D02*
Y-14991D01*
X-5819Y-14458D02*
Y-14991D01*
X-6174Y-14712D02*
X-5819D01*
X-5519Y-14458D02*
X-5570Y-14483D01*
X-5620Y-14534D01*
X-5646Y-14585D01*
X-5671Y-14661D01*
Y-14788D01*
X-5646Y-14864D01*
X-5620Y-14915D01*
X-5570Y-14966D01*
X-5519Y-14991D01*
X-5417D01*
X-5367Y-14966D01*
X-5316Y-14915D01*
X-5290Y-14864D01*
X-5265Y-14788D01*
Y-14661D01*
X-5290Y-14585D01*
X-5316Y-14534D01*
X-5367Y-14483D01*
X-5417Y-14458D01*
X-5519D01*
X-5141D02*
Y-14991D01*
Y-14458D02*
X-4785Y-14991D01*
Y-14458D02*
Y-14991D01*
X-4308Y-14458D02*
X-4638D01*
Y-14991D01*
X-4308D01*
X-4638Y-14712D02*
X-4435D01*
X-4193Y-14635D02*
X-4219Y-14661D01*
X-4193Y-14686D01*
X-4168Y-14661D01*
X-4193Y-14635D01*
Y-14940D02*
X-4219Y-14966D01*
X-4193Y-14991D01*
X-4168Y-14966D01*
X-4193Y-14940D01*
X11751Y-16233D02*
Y-16766D01*
X12056D01*
X12521D02*
X12317Y-16233D01*
X12114Y-16766D01*
X12190Y-16588D02*
X12444D01*
X12645Y-16233D02*
X12848Y-16487D01*
Y-16766D01*
X13051Y-16233D02*
X12848Y-16487D01*
X13450Y-16233D02*
X13120D01*
Y-16766D01*
X13450D01*
X13120Y-16487D02*
X13323D01*
X13539Y-16233D02*
Y-16766D01*
Y-16233D02*
X13767D01*
X13843Y-16258D01*
X13869Y-16283D01*
X13894Y-16334D01*
Y-16385D01*
X13869Y-16436D01*
X13843Y-16461D01*
X13767Y-16487D01*
X13539D01*
X13716D02*
X13894Y-16766D01*
X14039Y-16410D02*
X14014Y-16436D01*
X14039Y-16461D01*
X14064Y-16436D01*
X14039Y-16410D01*
Y-16715D02*
X14014Y-16741D01*
X14039Y-16766D01*
X14064Y-16741D01*
X14039Y-16715D01*
X-6319Y-8833D02*
X-6649D01*
Y-9366D01*
X-6319D01*
X-6649Y-9087D02*
X-6446D01*
X-6230Y-8833D02*
Y-9366D01*
Y-8833D02*
X-5874Y-9366D01*
Y-8833D02*
Y-9366D01*
X-5346Y-8960D02*
X-5372Y-8909D01*
X-5422Y-8858D01*
X-5473Y-8833D01*
X-5575D01*
X-5626Y-8858D01*
X-5676Y-8909D01*
X-5702Y-8960D01*
X-5727Y-9036D01*
Y-9163D01*
X-5702Y-9239D01*
X-5676Y-9290D01*
X-5626Y-9341D01*
X-5575Y-9366D01*
X-5473D01*
X-5422Y-9341D01*
X-5372Y-9290D01*
X-5346Y-9239D01*
Y-9163D01*
X-5473D02*
X-5346D01*
X-5224Y-8833D02*
Y-9366D01*
X-5113Y-8833D02*
Y-9366D01*
Y-8833D02*
X-4757Y-9366D01*
Y-8833D02*
Y-9366D01*
X-4280Y-8833D02*
X-4610D01*
Y-9366D01*
X-4280D01*
X-4610Y-9087D02*
X-4407D01*
X-3861Y-8833D02*
X-4191D01*
Y-9366D01*
X-3861D01*
X-4191Y-9087D02*
X-3988D01*
X-3772Y-8833D02*
Y-9366D01*
Y-8833D02*
X-3543D01*
X-3467Y-8858D01*
X-3442Y-8883D01*
X-3416Y-8934D01*
Y-8985D01*
X-3442Y-9036D01*
X-3467Y-9061D01*
X-3543Y-9087D01*
X-3772D01*
X-3594D02*
X-3416Y-9366D01*
X-3272Y-9010D02*
X-3297Y-9036D01*
X-3272Y-9061D01*
X-3246Y-9036D01*
X-3272Y-9010D01*
Y-9315D02*
X-3297Y-9341D01*
X-3272Y-9366D01*
X-3246Y-9341D01*
X-3272Y-9315D01*
X2351Y-13737D02*
X2580D01*
X2656Y-13712D01*
X2681Y-13686D01*
X2707Y-13635D01*
Y-13559D01*
X2681Y-13508D01*
X2656Y-13483D01*
X2580Y-13458D01*
X2351D01*
Y-13991D01*
X3232D02*
X3029Y-13458D01*
X2826Y-13991D01*
X2902Y-13813D02*
X3156D01*
X3357Y-13458D02*
Y-13991D01*
Y-13458D02*
X3585D01*
X3661Y-13483D01*
X3687Y-13508D01*
X3712Y-13559D01*
Y-13610D01*
X3687Y-13661D01*
X3661Y-13686D01*
X3585Y-13712D01*
X3357D01*
X3534D02*
X3712Y-13991D01*
X4009Y-13458D02*
Y-13991D01*
X3832Y-13458D02*
X4187D01*
X4669D02*
Y-13991D01*
Y-13458D02*
X5025Y-13991D01*
Y-13458D02*
Y-13991D01*
X5325Y-13458D02*
X5274Y-13483D01*
X5223Y-13534D01*
X5198Y-13585D01*
X5172Y-13661D01*
Y-13788D01*
X5198Y-13864D01*
X5223Y-13915D01*
X5274Y-13966D01*
X5325Y-13991D01*
X5426D01*
X5477Y-13966D01*
X5528Y-13915D01*
X5553Y-13864D01*
X5578Y-13788D01*
Y-13661D01*
X5553Y-13585D01*
X5528Y-13534D01*
X5477Y-13483D01*
X5426Y-13458D01*
X5325D01*
X5728Y-13940D02*
X5703Y-13966D01*
X5728Y-13991D01*
X5754Y-13966D01*
X5728Y-13940D01*
X5896Y-13635D02*
X5870Y-13661D01*
X5896Y-13686D01*
X5921Y-13661D01*
X5896Y-13635D01*
Y-13940D02*
X5870Y-13966D01*
X5896Y-13991D01*
X5921Y-13966D01*
X5896Y-13940D01*
X2404Y-8708D02*
Y-9241D01*
X2226Y-8708D02*
X2582D01*
X2645D02*
Y-9241D01*
X2935Y-8708D02*
Y-9241D01*
X2757Y-8708D02*
X3112D01*
X3176D02*
Y-9241D01*
X3481D01*
X3869Y-8708D02*
X3539D01*
Y-9241D01*
X3869D01*
X3539Y-8962D02*
X3742D01*
X3983Y-8885D02*
X3958Y-8911D01*
X3983Y-8936D01*
X4009Y-8911D01*
X3983Y-8885D01*
Y-9190D02*
X3958Y-9216D01*
X3983Y-9241D01*
X4009Y-9216D01*
X3983Y-9190D01*
X-6649Y-12633D02*
Y-13166D01*
Y-12633D02*
X-6471D01*
X-6395Y-12658D01*
X-6344Y-12709D01*
X-6319Y-12760D01*
X-6293Y-12836D01*
Y-12963D01*
X-6319Y-13039D01*
X-6344Y-13090D01*
X-6395Y-13141D01*
X-6471Y-13166D01*
X-6649D01*
X-6174Y-12810D02*
Y-13166D01*
Y-12963D02*
X-6149Y-12887D01*
X-6098Y-12836D01*
X-6047Y-12810D01*
X-5971D01*
X-5618D02*
Y-13166D01*
Y-12887D02*
X-5669Y-12836D01*
X-5719Y-12810D01*
X-5796D01*
X-5846Y-12836D01*
X-5897Y-12887D01*
X-5923Y-12963D01*
Y-13014D01*
X-5897Y-13090D01*
X-5846Y-13141D01*
X-5796Y-13166D01*
X-5719D01*
X-5669Y-13141D01*
X-5618Y-13090D01*
X-5476Y-12810D02*
X-5374Y-13166D01*
X-5273Y-12810D02*
X-5374Y-13166D01*
X-5273Y-12810D02*
X-5171Y-13166D01*
X-5069Y-12810D02*
X-5171Y-13166D01*
X-4945Y-12810D02*
Y-13166D01*
Y-12912D02*
X-4869Y-12836D01*
X-4818Y-12810D01*
X-4742D01*
X-4691Y-12836D01*
X-4666Y-12912D01*
Y-13166D01*
X-4107Y-12633D02*
Y-13166D01*
Y-12887D02*
X-4056Y-12836D01*
X-4006Y-12810D01*
X-3929D01*
X-3879Y-12836D01*
X-3828Y-12887D01*
X-3802Y-12963D01*
Y-13014D01*
X-3828Y-13090D01*
X-3879Y-13141D01*
X-3929Y-13166D01*
X-4006D01*
X-4056Y-13141D01*
X-4107Y-13090D01*
X-3663Y-12810D02*
X-3510Y-13166D01*
X-3358Y-12810D02*
X-3510Y-13166D01*
X-3561Y-13267D01*
X-3612Y-13318D01*
X-3663Y-13344D01*
X-3688D01*
X-3244Y-12810D02*
X-3269Y-12836D01*
X-3244Y-12861D01*
X-3218Y-12836D01*
X-3244Y-12810D01*
Y-13115D02*
X-3269Y-13141D01*
X-3244Y-13166D01*
X-3218Y-13141D01*
X-3244Y-13115D01*
X-6649Y-16233D02*
Y-16766D01*
Y-16233D02*
X-6319D01*
X-6649Y-16487D02*
X-6446D01*
X-6258Y-16233D02*
Y-16766D01*
X-6146Y-16233D02*
Y-16766D01*
X-5841D01*
X-5453Y-16233D02*
X-5783D01*
Y-16766D01*
X-5453D01*
X-5783Y-16487D02*
X-5580D01*
X-4945Y-16233D02*
Y-16766D01*
Y-16233D02*
X-4590Y-16766D01*
Y-16233D02*
Y-16766D01*
X-4036D02*
X-4239Y-16233D01*
X-4442Y-16766D01*
X-4366Y-16588D02*
X-4112D01*
X-3912Y-16233D02*
Y-16766D01*
Y-16233D02*
X-3708Y-16766D01*
X-3505Y-16233D02*
X-3708Y-16766D01*
X-3505Y-16233D02*
Y-16766D01*
X-3023Y-16233D02*
X-3353D01*
Y-16766D01*
X-3023D01*
X-3353Y-16487D02*
X-3150D01*
X-2909Y-16410D02*
X-2934Y-16436D01*
X-2909Y-16461D01*
X-2883Y-16436D01*
X-2909Y-16410D01*
Y-16715D02*
X-2934Y-16741D01*
X-2909Y-16766D01*
X-2883Y-16741D01*
X-2909Y-16715D01*
X30332Y-16360D02*
X30307Y-16309D01*
X30256Y-16258D01*
X30205Y-16233D01*
X30104D01*
X30053Y-16258D01*
X30002Y-16309D01*
X29977Y-16360D01*
X29951Y-16436D01*
Y-16563D01*
X29977Y-16639D01*
X30002Y-16690D01*
X30053Y-16741D01*
X30104Y-16766D01*
X30205D01*
X30256Y-16741D01*
X30307Y-16690D01*
X30332Y-16639D01*
Y-16563D01*
X30205D02*
X30332D01*
X30784Y-16233D02*
X30454D01*
Y-16766D01*
X30784D01*
X30454Y-16487D02*
X30657D01*
X30873Y-16233D02*
Y-16766D01*
Y-16233D02*
X31101D01*
X31178Y-16258D01*
X31203Y-16283D01*
X31228Y-16334D01*
Y-16385D01*
X31203Y-16436D01*
X31178Y-16461D01*
X31101Y-16487D01*
X30873D01*
X31051D02*
X31228Y-16766D01*
X31348Y-16233D02*
Y-16766D01*
Y-16233D02*
X31576D01*
X31652Y-16258D01*
X31678Y-16283D01*
X31703Y-16334D01*
Y-16385D01*
X31678Y-16436D01*
X31652Y-16461D01*
X31576Y-16487D01*
X31348D02*
X31576D01*
X31652Y-16512D01*
X31678Y-16537D01*
X31703Y-16588D01*
Y-16664D01*
X31678Y-16715D01*
X31652Y-16741D01*
X31576Y-16766D01*
X31348D01*
X32153Y-16233D02*
X31823D01*
Y-16766D01*
X32153D01*
X31823Y-16487D02*
X32026D01*
X32241Y-16233D02*
Y-16766D01*
Y-16233D02*
X32470D01*
X32546Y-16258D01*
X32572Y-16283D01*
X32597Y-16334D01*
Y-16385D01*
X32572Y-16436D01*
X32546Y-16461D01*
X32470Y-16487D01*
X32241D01*
X32419D02*
X32597Y-16766D01*
X32742Y-16410D02*
X32716Y-16436D01*
X32742Y-16461D01*
X32767Y-16436D01*
X32742Y-16410D01*
Y-16715D02*
X32716Y-16741D01*
X32742Y-16766D01*
X32767Y-16741D01*
X32742Y-16715D01*
D59*
X3350Y13550D02*
D03*
D60*
X2350D02*
D03*
X1350D02*
D03*
X26035Y8417D02*
D03*
Y6417D02*
D03*
Y4417D02*
D03*
Y5417D02*
D03*
Y3417D02*
D03*
X26035Y1417D02*
D03*
X26035Y7417D02*
D03*
Y9417D02*
D03*
X26035Y2417D02*
D03*
D61*
Y417D02*
D03*
D62*
X12250Y5220D02*
D03*
X11600Y7260D02*
D03*
X4999Y338D02*
D03*
X22550Y4290D02*
D03*
X2660Y620D02*
D03*
X9430Y13170D02*
D03*
X11110Y240D02*
D03*
X9670Y420D02*
D03*
X25900Y11910D02*
D03*
X27300Y6710D02*
D03*
X27480Y8250D02*
D03*
X12470Y3650D02*
D03*
X10780Y3260D02*
D03*
X10450Y5780D02*
D03*
X6840Y10170D02*
D03*
X4980Y12000D02*
D03*
X14910Y12580D02*
D03*
X10140Y12330D02*
D03*
X8860Y9760D02*
D03*
X9450Y8010D02*
D03*
X11800Y9240D02*
D03*
X16550Y4910D02*
D03*
X12430Y12210D02*
D03*
X13660D02*
D03*
X11500Y7960D02*
D03*
X17088Y6643D02*
D03*
X15810Y11380D02*
D03*
X12670Y11750D02*
D03*
X12050Y11230D02*
D03*
X14500Y10830D02*
D03*
X11980Y3650D02*
D03*
X14050Y4390D02*
D03*
X17020Y3180D02*
D03*
X13900Y4150D02*
D03*
X11190Y7810D02*
D03*
X14730Y7870D02*
D03*
X15920Y7410D02*
D03*
X15610Y4900D02*
D03*
X17630Y6080D02*
D03*
X19410Y5490D02*
D03*
X17360Y3310D02*
D03*
X18300Y4630D02*
D03*
X17330Y4110D02*
D03*
X14520Y7550D02*
D03*
X17460Y9780D02*
D03*
X9000Y1310D02*
D03*
X1726Y410D02*
D03*
X1480Y780D02*
D03*
X4920Y5770D02*
D03*
X4250Y2300D02*
D03*
X4244Y8556D02*
D03*
X5590Y1310D02*
D03*
X4149Y297D02*
D03*
X-500Y4920D02*
D03*
X-515Y4226D02*
D03*
X6200Y9030D02*
D03*
X7413Y88D02*
D03*
X-15Y6876D02*
D03*
X11559Y11877D02*
D03*
X25288Y6406D02*
D03*
Y7526D02*
D03*
X7200Y3020D02*
D03*
X310Y701D02*
D03*
X-30D02*
D03*
X-370D02*
D03*
X18670Y3210D02*
D03*
X16090Y1210D02*
D03*
X21370Y3890D02*
D03*
X20570Y4290D02*
D03*
X19470Y5000D02*
D03*
Y4080D02*
D03*
X20600Y4960D02*
D03*
X7190Y13150D02*
D03*
X5000Y13240D02*
D03*
X1237Y6456D02*
D03*
X1837Y6146D02*
D03*
X18920Y13150D02*
D03*
X24420Y12580D02*
D03*
X23139Y12347D02*
D03*
X3480Y2960D02*
D03*
X5080Y3270D02*
D03*
X1839Y6661D02*
D03*
X5585Y1686D02*
D03*
X1815Y8556D02*
D03*
X3060Y7056D02*
D03*
X3267Y11806D02*
D03*
X1327Y5196D02*
D03*
X1839Y7086D02*
D03*
X2507Y10808D02*
D03*
X2404Y7373D02*
D03*
X919Y7168D02*
D03*
X3380Y7256D02*
D03*
X1900Y2920D02*
D03*
X1294Y4139D02*
D03*
X2537Y5976D02*
D03*
X3196Y2399D02*
D03*
X3017Y9806D02*
D03*
X1467D02*
D03*
X3800Y7796D02*
D03*
X1382Y9407D02*
D03*
X3508Y9799D02*
D03*
X3670Y7346D02*
D03*
X3010Y1620D02*
D03*
X3510Y11300D02*
D03*
X3817Y6004D02*
D03*
X3030Y1310D02*
D03*
X3980Y2900D02*
D03*
X3823Y5706D02*
D03*
X2090Y7736D02*
D03*
X4453Y4682D02*
D03*
X3357Y2726D02*
D03*
X3710Y10770D02*
D03*
X4531Y7520D02*
D03*
X4610Y3265D02*
D03*
X4110Y10500D02*
D03*
X4960Y6820D02*
D03*
X4850Y3580D02*
D03*
X4160Y8086D02*
D03*
X5004Y9801D02*
D03*
X5460Y8310D02*
D03*
X3747Y11624D02*
D03*
X5040Y5450D02*
D03*
X2850Y2940D02*
D03*
X5476Y6178D02*
D03*
X894Y9808D02*
D03*
X387Y6772D02*
D03*
X987Y5616D02*
D03*
X2642Y6730D02*
D03*
X5380Y11450D02*
D03*
X23955Y8446D02*
D03*
X19030Y9646D02*
D03*
X24010Y9190D02*
D03*
X18975Y8998D02*
D03*
X23570Y7360D02*
D03*
X24010Y9500D02*
D03*
X19340Y10140D02*
D03*
X20350Y10350D02*
D03*
X24080Y10600D02*
D03*
X22870Y7230D02*
D03*
X19400D02*
D03*
X21050Y8460D02*
D03*
X18670Y8080D02*
D03*
X23820Y5740D02*
D03*
X25289Y6947D02*
D03*
X24964Y12472D02*
D03*
X25289Y10547D02*
D03*
X20910Y9260D02*
D03*
X22200Y11890D02*
D03*
X20820Y11260D02*
D03*
X15010Y1200D02*
D03*
X11415Y13615D02*
D03*
X19630Y13280D02*
D03*
X22550Y4630D02*
D03*
Y4920D02*
D03*
X21420Y3070D02*
D03*
X20573Y3642D02*
D03*
X20573Y3266D02*
D03*
X21050Y7460D02*
D03*
X26875Y2028D02*
D03*
X28016Y328D02*
D03*
X18341Y6457D02*
D03*
X8130Y4590D02*
D03*
X9939Y8007D02*
D03*
X17929Y5927D02*
D03*
X18339Y3357D02*
D03*
X18919Y12467D02*
D03*
Y12067D02*
D03*
X18919Y12817D02*
D03*
X20849Y12167D02*
D03*
X15139Y6367D02*
D03*
X15519Y8047D02*
D03*
X17719Y10397D02*
D03*
X18059Y8097D02*
D03*
X12619Y6037D02*
D03*
X13179Y5047D02*
D03*
X18299Y4917D02*
D03*
X16129Y4907D02*
D03*
X16640Y4110D02*
D03*
X15839Y3497D02*
D03*
X16060Y2930D02*
D03*
X16070Y90D02*
D03*
X15310Y1880D02*
D03*
X13059Y2862D02*
D03*
Y1662D02*
D03*
X25200Y1450D02*
D03*
Y1790D02*
D03*
X21300Y110D02*
D03*
X15101Y12959D02*
D03*
X7850Y2990D02*
D03*
X8149Y8577D02*
D03*
X6820Y7300D02*
D03*
X8779Y8337D02*
D03*
X10900Y7960D02*
D03*
X9949Y6087D02*
D03*
X12000Y6250D02*
D03*
X11402Y5694D02*
D03*
X11649Y4500D02*
D03*
X9800Y3370D02*
D03*
X14349Y4397D02*
D03*
X2940Y2670D02*
D03*
X22852Y4137D02*
D03*
X23370Y5650D02*
D03*
X20900Y10380D02*
D03*
X21690Y9100D02*
D03*
X23526Y8067D02*
D03*
X24090Y3480D02*
D03*
X12850Y9340D02*
D03*
X10440Y9500D02*
D03*
X9049Y5487D02*
D03*
X8049D02*
D03*
X6760Y5600D02*
D03*
X5930Y5920D02*
D03*
X4683Y10017D02*
D03*
X7350Y11454D02*
D03*
X21201Y5702D02*
D03*
X25379Y10950D02*
D03*
X24630Y11150D02*
D03*
X8887Y2333D02*
D03*
X5326Y12951D02*
D03*
X5880Y5510D02*
D03*
X5327Y5665D02*
D03*
X14220Y10590D02*
D03*
X8859Y3564D02*
D03*
X8257Y3278D02*
D03*
X24010Y4440D02*
D03*
X4649Y6081D02*
D03*
X22455Y5726D02*
D03*
X6334Y1996D02*
D03*
X6333Y1297D02*
D03*
Y1636D02*
D03*
X21500Y12210D02*
D03*
X695Y1586D02*
D03*
X705Y1286D02*
D03*
X4960Y2960D02*
D03*
X5510Y880D02*
D03*
X4666Y12720D02*
D03*
X7830Y7180D02*
D03*
X6830Y2360D02*
D03*
X2840Y332D02*
D03*
X3140Y30D02*
D03*
X585Y2976D02*
D03*
X1010Y2701D02*
D03*
X335Y2476D02*
D03*
X-352Y1201D02*
D03*
X596Y2299D02*
D03*
X1296Y3099D02*
D03*
X1499Y149D02*
D03*
X14109Y1787D02*
D03*
X4450Y2950D02*
D03*
X13490Y70D02*
D03*
X27370Y4900D02*
D03*
X9653Y1266D02*
D03*
X11703Y2166D02*
D03*
X17420Y13310D02*
D03*
X26900Y10510D02*
D03*
X22370Y9190D02*
D03*
X23670D02*
D03*
X23589Y6570D02*
D03*
X25270Y4000D02*
D03*
X25200Y750D02*
D03*
X12180Y70D02*
D03*
X13089Y1267D02*
D03*
X11500Y1220D02*
D03*
X20573Y4006D02*
D03*
X26510Y6080D02*
D03*
X14270Y13290D02*
D03*
X17030Y13430D02*
D03*
X16470Y12800D02*
D03*
X15809Y9531D02*
D03*
X21486Y11596D02*
D03*
X21490Y10950D02*
D03*
X22866Y11746D02*
D03*
X14530Y12580D02*
D03*
X16320Y11380D02*
D03*
X16070Y11160D02*
D03*
X20368Y10646D02*
D03*
X15040Y10830D02*
D03*
X15300Y8360D02*
D03*
X12590Y7880D02*
D03*
X13290Y3200D02*
D03*
X15310D02*
D03*
X20750Y8760D02*
D03*
X17740Y1170D02*
D03*
X16840Y1660D02*
D03*
X21940Y8370D02*
D03*
X17270Y8100D02*
D03*
X17270Y7840D02*
D03*
X17270Y7570D02*
D03*
X27850Y2600D02*
D03*
X26960Y460D02*
D03*
X16510Y810D02*
D03*
X27400Y10240D02*
D03*
X27820Y11170D02*
D03*
X27420D02*
D03*
X25490Y4846D02*
D03*
X24310Y-100D02*
D03*
X15590Y1210D02*
D03*
X21070Y1530D02*
D03*
X21420Y1500D02*
D03*
Y2790D02*
D03*
X20880Y130D02*
D03*
D63*
X2800Y3970D02*
D03*
X3114Y3974D02*
D03*
X3429Y3659D02*
D03*
Y4919D02*
D03*
X2797Y4916D02*
D03*
Y4606D02*
D03*
X3417Y3356D02*
D03*
X3744Y3974D02*
D03*
X4060Y4291D02*
D03*
D64*
X3740Y12390D02*
X4285Y11845D01*
X2527Y12390D02*
X3740D01*
X4285Y11566D02*
Y11845D01*
X5635Y8906D02*
X6334Y8207D01*
X5635Y8906D02*
Y10216D01*
X4285Y11566D02*
X5635Y10216D01*
X6333Y1297D02*
X6333Y1636D01*
X6333Y1996D01*
X6334Y8207D01*
D71*
X11200Y10950D02*
D03*
Y9150D02*
D03*
X9200D02*
D03*
Y10950D02*
D03*
D72*
X17600Y12121D02*
D03*
X17344Y12121D02*
D03*
X17088D02*
D03*
X16832D02*
D03*
X16576D02*
D03*
X16320D02*
D03*
X16065D02*
D03*
X15809D02*
D03*
X15553D02*
D03*
X15297D02*
D03*
X15041D02*
D03*
X14785D02*
D03*
X14529D02*
D03*
X14273D02*
D03*
Y9050D02*
D03*
X14529D02*
D03*
X14785D02*
D03*
X15041D02*
D03*
X15297D02*
D03*
X15553D02*
D03*
X15809D02*
D03*
X16065D02*
D03*
X16320D02*
D03*
X16576D02*
D03*
X16832D02*
D03*
X17088D02*
D03*
X17344D02*
D03*
X17600D02*
D03*
X16065Y2400D02*
D03*
Y5471D02*
D03*
X16320D02*
D03*
X17600Y5471D02*
D03*
X17344Y5471D02*
D03*
X17088D02*
D03*
X16832D02*
D03*
X16576D02*
D03*
X15809D02*
D03*
X15553D02*
D03*
X15297D02*
D03*
X15041D02*
D03*
X14785D02*
D03*
X14529D02*
D03*
X14273D02*
D03*
Y2400D02*
D03*
X14529D02*
D03*
X14785D02*
D03*
X15041D02*
D03*
X15297D02*
D03*
X15553D02*
D03*
X15809D02*
D03*
X16320D02*
D03*
X16576D02*
D03*
X16832D02*
D03*
X17088D02*
D03*
X17344D02*
D03*
X17600D02*
D03*
X22447Y6696D02*
D03*
X22191D02*
D03*
X21679D02*
D03*
X22703D02*
D03*
X20144Y9767D02*
D03*
X23215Y6696D02*
D03*
X22959D02*
D03*
X21935D02*
D03*
X21423D02*
D03*
X21167D02*
D03*
X20911D02*
D03*
X20656D02*
D03*
X20400D02*
D03*
X20144D02*
D03*
X19888D02*
D03*
Y9767D02*
D03*
X20400D02*
D03*
X20656D02*
D03*
X20911D02*
D03*
X21167D02*
D03*
X21423D02*
D03*
X21679D02*
D03*
X21935D02*
D03*
X22191D02*
D03*
X22447D02*
D03*
X22703D02*
D03*
X22959D02*
D03*
X23215Y9767D02*
D03*
D73*
X20221Y962D02*
D03*
X21621D02*
D03*
D74*
X9944Y6850D02*
D03*
X10711Y4330D02*
D03*
X10455D02*
D03*
X10200D02*
D03*
X9944D02*
D03*
X9688D02*
D03*
X9432D02*
D03*
X9176D02*
D03*
X8920D02*
D03*
Y6850D02*
D03*
X9176D02*
D03*
X9432D02*
D03*
X9688D02*
D03*
X10200D02*
D03*
X10455D02*
D03*
X10711D02*
D03*
D75*
X23721Y782D02*
D03*
D76*
X23721Y2542D02*
D03*
D77*
X18685Y195D02*
D03*
X12850Y12950D02*
D03*
X24765Y12996D02*
D03*
D78*
X7380Y4852D02*
D03*
D79*
X7390Y1982D02*
D03*
D80*
X3272Y5391D02*
D03*
X2012Y3186D02*
D03*
Y4131D02*
D03*
X4216D02*
D03*
X2012Y5076D02*
D03*
Y4446D02*
D03*
Y3816D02*
D03*
Y3501D02*
D03*
X2327Y5391D02*
D03*
Y5076D02*
D03*
Y4761D02*
D03*
Y4446D02*
D03*
Y4131D02*
D03*
Y3816D02*
D03*
Y3501D02*
D03*
Y3186D02*
D03*
X4216Y5391D02*
D03*
Y5076D02*
D03*
Y4761D02*
D03*
Y4446D02*
D03*
Y3816D02*
D03*
X3901Y5391D02*
D03*
Y4761D02*
D03*
Y4446D02*
D03*
Y4131D02*
D03*
Y3816D02*
D03*
X3587Y5391D02*
D03*
Y5076D02*
D03*
Y4761D02*
D03*
Y4446D02*
D03*
Y4131D02*
D03*
Y3816D02*
D03*
X3272Y5076D02*
D03*
Y4761D02*
D03*
Y4446D02*
D03*
Y4131D02*
D03*
Y3816D02*
D03*
X2957Y5391D02*
D03*
Y5076D02*
D03*
Y4761D02*
D03*
Y4446D02*
D03*
Y3816D02*
D03*
X2642Y5391D02*
D03*
Y5076D02*
D03*
Y4761D02*
D03*
Y4446D02*
D03*
Y4131D02*
D03*
Y3816D02*
D03*
X2957Y4131D02*
D03*
X3587Y3501D02*
D03*
X3272D02*
D03*
X2957D02*
D03*
X2642D02*
D03*
X4216Y3186D02*
D03*
X3901D02*
D03*
X3587D02*
D03*
X3272D02*
D03*
X2957D02*
D03*
X2642D02*
D03*
X4216Y3501D02*
D03*
X3901D02*
D03*
Y5076D02*
D03*
X2012Y5391D02*
D03*
X2012Y4761D02*
D03*
D81*
X7970Y120D02*
X10590D01*
X5940Y532D02*
Y3960D01*
X11160Y690D02*
X14191D01*
X10590Y120D02*
X11160Y690D01*
X14191D02*
X14685Y195D01*
X6722Y-250D02*
X7600D01*
X7970Y120D01*
X14685Y195D02*
X15001D01*
X15685D02*
Y554D01*
X1444Y1180D02*
Y1993D01*
X1199Y-113D02*
Y935D01*
X1444Y1180D01*
X1689Y2239D02*
X2014D01*
X24965Y4846D02*
X25490D01*
X1444Y1993D02*
X1689Y2239D01*
X4714Y4236D02*
X5664D01*
X5940Y3960D01*
X4907Y-501D02*
X5940Y532D01*
X1199Y-113D02*
X1587Y-501D01*
X4907D01*
X15001Y195D02*
X15600Y-404D01*
X5940Y532D02*
X6722Y-250D01*
X19355Y186D02*
X19700D01*
X19910Y396D02*
Y773D01*
X26220Y-384D02*
X26610Y6D01*
Y2350D02*
X26816Y2556D01*
Y5317D01*
X27000Y5501D01*
X26610Y6D02*
Y2350D01*
X15600Y-404D02*
X17100D01*
X17304Y-210D02*
Y-200D01*
X18761Y-409D02*
X19355Y186D01*
X17100Y-404D02*
X17304Y-200D01*
X17503Y-409D02*
X18761D01*
X17304Y-210D02*
X17503Y-409D01*
X15410Y830D02*
X15685Y554D01*
X15010Y930D02*
X15110Y830D01*
X15010Y930D02*
Y1200D01*
X15110Y830D02*
X15410D01*
X19700Y186D02*
X20116Y-230D01*
X20720D02*
X20874Y-384D01*
X20116Y-230D02*
X20720D01*
X20874Y-384D02*
X26220D01*
X19700Y186D02*
X19910Y396D01*
D82*
X2957Y4761D02*
X2957Y4761D01*
X3429Y3659D02*
X3587Y3501D01*
X3272Y4761D02*
X3429Y4919D01*
X2799Y4604D02*
X2957Y4446D01*
X3272Y3501D02*
X3417Y3356D01*
X3587Y3501D02*
Y3501D01*
X3114Y3974D02*
X3272Y3816D01*
X3587D02*
X3744Y3974D01*
M02*
