%FSLAX24Y24*%
%MOIN*%
G70*
G01*
G75*
G04 Layer_Physical_Order=3*
G04 Layer_Color=32768*
%ADD10C,0.0120*%
%ADD11R,0.0394X0.0197*%
%ADD12R,0.0300X0.0300*%
%ADD13C,0.0400*%
%ADD14R,0.0200X0.0500*%
%ADD15R,0.0591X0.0315*%
%ADD16R,0.0300X0.0300*%
%ADD17R,0.0551X0.0354*%
%ADD18R,0.0354X0.0551*%
%ADD19R,0.0250X0.0550*%
%ADD20R,0.0250X0.0520*%
%ADD21R,0.0250X0.0950*%
%ADD22R,0.0550X0.0250*%
%ADD23R,0.0950X0.0250*%
%ADD24R,0.0600X0.0270*%
%ADD25R,0.0236X0.1100*%
%ADD26R,0.1000X0.0236*%
%ADD27R,0.0700X0.0500*%
%ADD28O,0.0160X0.0600*%
%ADD29R,0.0236X0.0236*%
%ADD30O,0.0160X0.0600*%
%ADD31R,0.0394X0.0394*%
%ADD32R,0.0200X0.0300*%
%ADD33O,0.0240X0.0800*%
%ADD34R,0.0472X0.0472*%
%ADD35R,0.0600X0.0500*%
%ADD36R,0.0360X0.0500*%
%ADD37R,0.0360X0.0360*%
%ADD38R,0.1500X0.0500*%
%ADD39R,0.0394X0.0413*%
%ADD40R,0.0413X0.0866*%
%ADD41R,0.0394X0.0413*%
%ADD42O,0.0600X0.0160*%
%ADD43R,0.0500X0.0200*%
%ADD44R,0.0360X0.0360*%
%ADD45R,0.0500X0.0360*%
%ADD46R,0.0315X0.0591*%
%ADD47R,0.0700X0.0236*%
%ADD48C,0.0120*%
%ADD49C,0.0500*%
%ADD50C,0.0140*%
%ADD51C,0.0100*%
%ADD52C,0.0150*%
%ADD53C,0.0200*%
%ADD54C,0.0080*%
%ADD55C,0.0250*%
%ADD56C,0.0300*%
%ADD57C,0.0090*%
%ADD58C,0.0050*%
%ADD59R,0.0620X0.0620*%
%ADD60C,0.0620*%
%ADD61R,0.0620X0.0620*%
%ADD62C,0.0200*%
%ADD63C,0.0180*%
%ADD64C,0.0400*%
G04:AMPARAMS|DCode=65|XSize=67mil|YSize=67mil|CornerRadius=0mil|HoleSize=0mil|Usage=FLASHONLY|Rotation=0.000|XOffset=0mil|YOffset=0mil|HoleType=Round|Shape=Relief|Width=8mil|Gap=8mil|Entries=4|*
%AMTHD65*
7,0,0,0.0670,0.0510,0.0080,45*
%
%ADD65THD65*%
%ADD66C,0.0750*%
%ADD67C,0.0500*%
G04:AMPARAMS|DCode=68|XSize=42mil|YSize=42mil|CornerRadius=0mil|HoleSize=0mil|Usage=FLASHONLY|Rotation=0.000|XOffset=0mil|YOffset=0mil|HoleType=Round|Shape=Relief|Width=8mil|Gap=8mil|Entries=4|*
%AMTHD68*
7,0,0,0.0420,0.0260,0.0080,45*
%
%ADD68THD68*%
%ADD69C,0.0600*%
G04:AMPARAMS|DCode=70|XSize=52mil|YSize=52mil|CornerRadius=0mil|HoleSize=0mil|Usage=FLASHONLY|Rotation=0.000|XOffset=0mil|YOffset=0mil|HoleType=Round|Shape=Relief|Width=8mil|Gap=8mil|Entries=4|*
%AMTHD70*
7,0,0,0.0520,0.0360,0.0080,45*
%
%ADD70THD70*%
D51*
X35851Y-13606D02*
G03*
X35361Y-13116I-490J0D01*
G01*
X24351D02*
G03*
X23851Y-13616I0J-500D01*
G01*
X35351Y-12616D02*
G03*
X35851Y-12116I0J500D01*
G01*
X23851D02*
G03*
X24351Y-12616I500J0D01*
G01*
X-6649Y-5366D02*
G03*
X-7649Y-6366I0J-1000D01*
G01*
Y-17356D02*
G03*
X-6656Y-18366I1010J0D01*
G01*
X35351Y-18366D02*
G03*
X36351Y-17366I0J1000D01*
G01*
Y-6366D02*
G03*
X35351Y-5366I-1000J0D01*
G01*
X35851Y-6356D02*
G03*
X35344Y-5866I-490J0D01*
G01*
X35351Y-15366D02*
G03*
X35851Y-14866I0J500D01*
G01*
X35851Y-16357D02*
G03*
X35351Y-15866I-500J-9D01*
G01*
Y-17866D02*
G03*
X35851Y-17366I0J500D01*
G01*
X22851Y-15366D02*
G03*
X23351Y-14866I0J500D01*
G01*
X23851Y-14876D02*
G03*
X24350Y-15366I490J0D01*
G01*
X23351Y-13606D02*
G03*
X22861Y-13116I-490J0D01*
G01*
X-7149Y-17366D02*
G03*
X-6658Y-17866I500J0D01*
G01*
X22860Y-12616D02*
G03*
X23351Y-12116I-9J500D01*
G01*
X-6649Y-15866D02*
G03*
X-7149Y-16366I0J-500D01*
G01*
X23351Y-8866D02*
G03*
X22851Y-8366I-500J0D01*
G01*
Y-7866D02*
G03*
X23351Y-7366I0J500D01*
G01*
X24351Y-5866D02*
G03*
X23851Y-6366I0J-500D01*
G01*
X23351D02*
G03*
X22851Y-5866I-500J0D01*
G01*
X-6649D02*
G03*
X-7149Y-6366I0J-500D01*
G01*
Y-7366D02*
G03*
X-6649Y-7866I500J0D01*
G01*
Y-8366D02*
G03*
X-7149Y-8866I0J-500D01*
G01*
Y-11116D02*
G03*
X-6649Y-11616I500J0D01*
G01*
Y-12116D02*
G03*
X-7149Y-12616I0J-500D01*
G01*
Y-14866D02*
G03*
X-6658Y-15366I500J0D01*
G01*
X2351Y-8366D02*
G03*
X1851Y-8866I0J-500D01*
G01*
X2351Y-13116D02*
G03*
X1851Y-13616I0J-500D01*
G01*
X19831Y-13116D02*
G03*
X19352Y-13621I0J-480D01*
G01*
X19351Y-14856D02*
G03*
X19852Y-15366I510J0D01*
G01*
X18361Y-15366D02*
G03*
X18851Y-14867I0J490D01*
G01*
X18851Y-13606D02*
G03*
X18361Y-13116I-490J0D01*
G01*
X861Y-15366D02*
G03*
X1351Y-14876I0J490D01*
G01*
X1851D02*
G03*
X2341Y-15366I490J0D01*
G01*
X1851Y-12126D02*
G03*
X2341Y-12616I490J0D01*
G01*
X1351Y-12606D02*
G03*
X844Y-12116I-490J0D01*
G01*
X871Y-11616D02*
G03*
X1351Y-11136I0J480D01*
G01*
Y-8856D02*
G03*
X861Y-8366I-490J0D01*
G01*
X29851Y-15866D02*
G03*
X29351Y-16366I0J-500D01*
G01*
Y-17376D02*
G03*
X29850Y-17866I490J0D01*
G01*
X28363Y-17866D02*
G03*
X28851Y-17369I8J480D01*
G01*
X28851Y-16366D02*
G03*
X28351Y-15866I-500J0D01*
G01*
X11101Y-17366D02*
G03*
X11592Y-17866I500J0D01*
G01*
X11601Y-15866D02*
G03*
X11101Y-16366I0J-500D01*
G01*
X10113Y-17866D02*
G03*
X10601Y-17369I8J480D01*
G01*
X10601Y-16366D02*
G03*
X10101Y-15866I-500J0D01*
G01*
X35851Y-14866D02*
Y-13606D01*
X23851Y-14866D02*
Y-13616D01*
X35851Y-12116D02*
Y-6366D01*
X23851Y-12116D02*
Y-6366D01*
X-7649Y-17366D02*
Y-6366D01*
X-7149Y-17366D02*
Y-16366D01*
X35851Y-17366D02*
Y-16366D01*
X23351Y-14866D02*
Y-13616D01*
X19351Y-14866D02*
Y-13616D01*
X1851Y-14866D02*
Y-13616D01*
X18851Y-14866D02*
Y-13616D01*
X1851Y-12116D02*
Y-8866D01*
X23351Y-12116D02*
Y-8866D01*
Y-7366D02*
Y-6366D01*
X-7149Y-7366D02*
Y-6366D01*
X1351Y-11116D02*
Y-8866D01*
X-7149Y-11116D02*
Y-8866D01*
X1351Y-14866D02*
Y-12616D01*
X-7149Y-14866D02*
Y-12616D01*
X36351Y-17366D02*
Y-6366D01*
X29351Y-17366D02*
Y-16366D01*
X28851Y-17366D02*
Y-16366D01*
X11101Y-17366D02*
Y-16366D01*
X10601Y-17366D02*
Y-16366D01*
X24351Y-13116D02*
X35351D01*
X24351Y-12616D02*
X35351D01*
X2351D02*
X22851D01*
X24351Y-5866D02*
X35351D01*
X24351Y-15366D02*
X35351D01*
X19851Y-13116D02*
X22851D01*
X19851Y-15366D02*
X22851D01*
X2351D02*
X18351D01*
X2351Y-13116D02*
X18351D01*
X2351Y-8366D02*
X22851D01*
X-6649Y-7866D02*
X22851D01*
X-6649Y-8366D02*
X851D01*
X-6649Y-11616D02*
X851D01*
X-6649Y-12116D02*
X851D01*
X-6649Y-15366D02*
X851D01*
X-6649Y-5366D02*
X35351D01*
X-6649Y-18366D02*
X35351D01*
X-6649Y-5866D02*
X22851D01*
X29851Y-15866D02*
X35351D01*
X29851Y-17866D02*
X35351D01*
X11601Y-15866D02*
X28351D01*
X-6649D02*
X10101D01*
X-6649Y-17866D02*
X10101D01*
X11601D02*
X28351D01*
X27710Y-9190D02*
X27604Y-9084D01*
X27391D01*
X27284Y-9190D01*
Y-9297D01*
X27391Y-9404D01*
X27604D01*
X27710Y-9510D01*
Y-9617D01*
X27604Y-9723D01*
X27391D01*
X27284Y-9617D01*
X27924Y-9297D02*
Y-9617D01*
X28030Y-9723D01*
X28350D01*
Y-9297D01*
X28564Y-9723D02*
X28777D01*
X28670D01*
Y-9297D01*
X28564D01*
X29203Y-9190D02*
Y-9297D01*
X29097D01*
X29310D01*
X29203D01*
Y-9617D01*
X29310Y-9723D01*
X29950D02*
X29737D01*
X29630Y-9617D01*
Y-9404D01*
X29737Y-9297D01*
X29950D01*
X30056Y-9404D01*
Y-9510D01*
X29630D01*
X30909Y-9723D02*
X31123D01*
X31016D01*
Y-9084D01*
X30909Y-9190D01*
X31443Y-9723D02*
X31656D01*
X31549D01*
Y-9084D01*
X31443Y-9190D01*
X31976D02*
X32082Y-9084D01*
X32296D01*
X32402Y-9190D01*
Y-9297D01*
X32296Y-9404D01*
X32402Y-9510D01*
Y-9617D01*
X32296Y-9723D01*
X32082D01*
X31976Y-9617D01*
Y-9510D01*
X32082Y-9404D01*
X31976Y-9297D01*
Y-9190D01*
X32082Y-9404D02*
X32296D01*
X26911Y-11234D02*
X26484D01*
Y-11554D01*
X26697Y-11447D01*
X26804D01*
X26911Y-11554D01*
Y-11767D01*
X26804Y-11873D01*
X26591D01*
X26484Y-11767D01*
X27550Y-11234D02*
X27337Y-11340D01*
X27124Y-11554D01*
Y-11767D01*
X27230Y-11873D01*
X27444D01*
X27550Y-11767D01*
Y-11660D01*
X27444Y-11554D01*
X27124D01*
X27764Y-11873D02*
X27977D01*
X27870D01*
Y-11234D01*
X27764Y-11340D01*
X28297Y-11554D02*
X28723D01*
X28937Y-11767D02*
X29043Y-11873D01*
X29256D01*
X29363Y-11767D01*
Y-11340D01*
X29256Y-11234D01*
X29043D01*
X28937Y-11340D01*
Y-11447D01*
X29043Y-11554D01*
X29363D01*
X29576Y-11767D02*
X29683Y-11873D01*
X29896D01*
X30003Y-11767D01*
Y-11340D01*
X29896Y-11234D01*
X29683D01*
X29576Y-11340D01*
Y-11447D01*
X29683Y-11554D01*
X30003D01*
X30216Y-11767D02*
X30323Y-11873D01*
X30536D01*
X30643Y-11767D01*
Y-11340D01*
X30536Y-11234D01*
X30323D01*
X30216Y-11340D01*
Y-11447D01*
X30323Y-11554D01*
X30643D01*
X30856D02*
X31282D01*
X31496Y-11767D02*
X31602Y-11873D01*
X31816D01*
X31922Y-11767D01*
Y-11340D01*
X31816Y-11234D01*
X31602D01*
X31496Y-11340D01*
Y-11447D01*
X31602Y-11554D01*
X31922D01*
X32455Y-11873D02*
Y-11234D01*
X32135Y-11554D01*
X32562D01*
X33202Y-11873D02*
X32775D01*
X33202Y-11447D01*
Y-11340D01*
X33095Y-11234D01*
X32882D01*
X32775Y-11340D01*
X33842Y-11873D02*
X33415D01*
X33842Y-11447D01*
Y-11340D01*
X33735Y-11234D01*
X33522D01*
X33415Y-11340D01*
X24334Y-8567D02*
X24441Y-8673D01*
X24654D01*
X24760Y-8567D01*
Y-8140D01*
X24654Y-8034D01*
X24441D01*
X24334Y-8140D01*
Y-8247D01*
X24441Y-8354D01*
X24760D01*
X24974Y-8140D02*
X25080Y-8034D01*
X25294D01*
X25400Y-8140D01*
Y-8567D01*
X25294Y-8673D01*
X25080D01*
X24974Y-8567D01*
Y-8140D01*
X26040Y-8673D02*
X25614D01*
X26040Y-8247D01*
Y-8140D01*
X25933Y-8034D01*
X25720D01*
X25614Y-8140D01*
X27320D02*
X27213Y-8034D01*
X27000D01*
X26893Y-8140D01*
Y-8567D01*
X27000Y-8673D01*
X27213D01*
X27320Y-8567D01*
X27533Y-8673D02*
X27746D01*
X27640D01*
Y-8034D01*
X27533D01*
X28066Y-8673D02*
X28279D01*
X28173D01*
Y-8247D01*
X28066D01*
X28599Y-8673D02*
Y-8247D01*
X28919D01*
X29026Y-8354D01*
Y-8673D01*
X29346Y-8140D02*
Y-8247D01*
X29239D01*
X29452D01*
X29346D01*
Y-8567D01*
X29452Y-8673D01*
X30412D02*
Y-8034D01*
X30625Y-8247D01*
X30839Y-8034D01*
Y-8673D01*
X31158D02*
X31372D01*
X31478Y-8567D01*
Y-8354D01*
X31372Y-8247D01*
X31158D01*
X31052Y-8354D01*
Y-8567D01*
X31158Y-8673D01*
X31798D02*
X32011D01*
X32118Y-8567D01*
Y-8354D01*
X32011Y-8247D01*
X31798D01*
X31692Y-8354D01*
Y-8567D01*
X31798Y-8673D01*
X32331Y-8247D02*
Y-8673D01*
Y-8460D01*
X32438Y-8354D01*
X32545Y-8247D01*
X32651D01*
X33291Y-8673D02*
X33078D01*
X32971Y-8567D01*
Y-8354D01*
X33078Y-8247D01*
X33291D01*
X33398Y-8354D01*
Y-8460D01*
X32971D01*
X34251Y-8673D02*
Y-8034D01*
X34571D01*
X34677Y-8140D01*
Y-8354D01*
X34571Y-8460D01*
X34251D01*
X34464D02*
X34677Y-8673D01*
X35317Y-8034D02*
Y-8673D01*
X34997D01*
X34891Y-8567D01*
Y-8354D01*
X34997Y-8247D01*
X35317D01*
X35530Y-8673D02*
Y-8567D01*
X35637D01*
Y-8673D01*
X35530D01*
X25934Y-10034D02*
Y-10673D01*
X26254D01*
X26360Y-10567D01*
Y-10460D01*
X26254Y-10354D01*
X25934D01*
X26254D01*
X26360Y-10247D01*
Y-10140D01*
X26254Y-10034D01*
X25934D01*
X26680Y-10673D02*
X26894D01*
X27000Y-10567D01*
Y-10354D01*
X26894Y-10247D01*
X26680D01*
X26574Y-10354D01*
Y-10567D01*
X26680Y-10673D01*
X27640Y-10247D02*
X27320D01*
X27214Y-10354D01*
Y-10567D01*
X27320Y-10673D01*
X27640D01*
X27960Y-10247D02*
X28173D01*
X28280Y-10354D01*
Y-10673D01*
X27960D01*
X27853Y-10567D01*
X27960Y-10460D01*
X28280D01*
X29133Y-10673D02*
Y-10034D01*
X29453D01*
X29559Y-10140D01*
Y-10354D01*
X29453Y-10460D01*
X29133D01*
X29346D02*
X29559Y-10673D01*
X29879Y-10247D02*
X30093D01*
X30199Y-10354D01*
Y-10673D01*
X29879D01*
X29773Y-10567D01*
X29879Y-10460D01*
X30199D01*
X30519Y-10140D02*
Y-10247D01*
X30413D01*
X30626D01*
X30519D01*
Y-10567D01*
X30626Y-10673D01*
X31052D02*
X31266D01*
X31372Y-10567D01*
Y-10354D01*
X31266Y-10247D01*
X31052D01*
X30946Y-10354D01*
Y-10567D01*
X31052Y-10673D01*
X31585D02*
Y-10247D01*
X31905D01*
X32012Y-10354D01*
Y-10673D01*
X33292Y-10034D02*
X32865D01*
Y-10354D01*
X33078D01*
X32865D01*
Y-10673D01*
X33505Y-10034D02*
Y-10673D01*
X33931D01*
X34145D02*
Y-10567D01*
X34251D01*
Y-10673D01*
X34145D01*
D52*
X24834Y-7623D02*
Y-6957D01*
X25167Y-6624D01*
X25500Y-6957D01*
Y-7623D01*
Y-7124D01*
X24834D01*
X26500Y-6957D02*
X26000D01*
X25834Y-7124D01*
Y-7457D01*
X26000Y-7623D01*
X26500D01*
X27000Y-6790D02*
Y-6957D01*
X26833D01*
X27167D01*
X27000D01*
Y-7457D01*
X27167Y-7623D01*
X27666D02*
X28000D01*
X27833D01*
Y-6957D01*
X27666D01*
X28499D02*
X28833Y-7623D01*
X29166Y-6957D01*
X29999Y-7623D02*
X29666D01*
X29499Y-7457D01*
Y-7124D01*
X29666Y-6957D01*
X29999D01*
X30166Y-7124D01*
Y-7290D01*
X29499D01*
X31498Y-6624D02*
Y-7623D01*
X31832Y-7290D01*
X32165Y-7623D01*
Y-6624D01*
X32665Y-6957D02*
X32998D01*
X33165Y-7124D01*
Y-7623D01*
X32665D01*
X32498Y-7457D01*
X32665Y-7290D01*
X33165D01*
X33498Y-6957D02*
X33831Y-7623D01*
X34164Y-6957D01*
X34997Y-7623D02*
X34664D01*
X34498Y-7457D01*
Y-7124D01*
X34664Y-6957D01*
X34997D01*
X35164Y-7124D01*
Y-7290D01*
X34498D01*
X-3394Y16348D02*
X-3060D01*
X-3227D01*
Y17348D01*
X-3394Y17181D01*
X-2561Y16348D02*
X-2227D01*
X-2394D01*
Y17348D01*
X-2561Y17181D01*
X-1728Y16348D02*
X-1394Y16681D01*
Y17014D01*
X-1728Y17348D01*
X105D02*
Y16348D01*
Y16848D01*
X772D01*
Y17348D01*
Y16348D01*
X1105D02*
Y17014D01*
X1438Y17348D01*
X1771Y17014D01*
Y16348D01*
Y16848D01*
X1105D01*
X2771Y17181D02*
X2604Y17348D01*
X2271D01*
X2105Y17181D01*
Y17014D01*
X2271Y16848D01*
X2604D01*
X2771Y16681D01*
Y16515D01*
X2604Y16348D01*
X2271D01*
X2105Y16515D01*
X3104Y17348D02*
Y16348D01*
X3771D01*
X5603Y17348D02*
X5270D01*
X5104Y17181D01*
Y16515D01*
X5270Y16348D01*
X5603D01*
X5770Y16515D01*
Y17181D01*
X5603Y17348D01*
X6103Y16348D02*
Y17348D01*
X6770Y16348D01*
Y17348D01*
X8103Y16348D02*
Y17014D01*
X8436Y17348D01*
X8769Y17014D01*
Y16348D01*
Y16848D01*
X8103D01*
X9102Y17348D02*
Y16348D01*
X9769D01*
X10102Y17348D02*
Y16348D01*
X10768D01*
X12101D02*
Y17348D01*
X12601D01*
X12768Y17181D01*
Y16848D01*
X12601Y16681D01*
X12101D01*
X13101Y16348D02*
Y17014D01*
X13434Y17348D01*
X13767Y17014D01*
Y16348D01*
Y16848D01*
X13101D01*
X14101Y17348D02*
Y16348D01*
X14601D01*
X14767Y16515D01*
Y17181D01*
X14601Y17348D01*
X14101D01*
X15767Y17181D02*
X15600Y17348D01*
X15267D01*
X15100Y17181D01*
Y17014D01*
X15267Y16848D01*
X15600D01*
X15767Y16681D01*
Y16515D01*
X15600Y16348D01*
X15267D01*
X15100Y16515D01*
X17100Y16348D02*
Y17014D01*
X17433Y17348D01*
X17766Y17014D01*
Y16348D01*
Y16848D01*
X17100D01*
X18099Y16348D02*
Y17348D01*
X18766Y16348D01*
Y17348D01*
X19099D02*
Y16348D01*
X19599D01*
X19766Y16515D01*
Y17181D01*
X19599Y17348D01*
X19099D01*
X21098D02*
Y16681D01*
X21432Y16348D01*
X21765Y16681D01*
Y17348D01*
X22098D02*
X22431D01*
X22265D01*
Y16348D01*
X22098D01*
X22431D01*
X22931D02*
Y17014D01*
X23264Y17348D01*
X23598Y17014D01*
Y16348D01*
Y16848D01*
X22931D01*
X24597Y17181D02*
X24431Y17348D01*
X24097D01*
X23931Y17181D01*
Y17014D01*
X24097Y16848D01*
X24431D01*
X24597Y16681D01*
Y16515D01*
X24431Y16348D01*
X24097D01*
X23931Y16515D01*
X-2727Y34348D02*
X-3394D01*
X-2727Y35014D01*
Y35181D01*
X-2894Y35348D01*
X-3227D01*
X-3394Y35181D01*
X-2394Y34348D02*
X-2061Y34681D01*
Y35014D01*
X-2394Y35348D01*
X-561Y34348D02*
Y35348D01*
X-228Y35014D01*
X105Y35348D01*
Y34348D01*
X438D02*
Y35014D01*
X772Y35348D01*
X1105Y35014D01*
Y34348D01*
Y34848D01*
X438D01*
X1438Y35348D02*
X2105D01*
X1771D01*
Y34348D01*
X3104Y35348D02*
X2438D01*
Y34348D01*
X3104D01*
X2438Y34848D02*
X2771D01*
X3437Y34348D02*
Y35348D01*
X3937D01*
X4104Y35181D01*
Y34848D01*
X3937Y34681D01*
X3437D01*
X3771D02*
X4104Y34348D01*
X4437Y35348D02*
X4770D01*
X4604D01*
Y34348D01*
X4437D01*
X4770D01*
X5270D02*
Y35014D01*
X5603Y35348D01*
X5937Y35014D01*
Y34348D01*
Y34848D01*
X5270D01*
X6270Y35348D02*
Y34348D01*
X6936D01*
X8269Y35348D02*
X8602D01*
X8436D01*
Y34348D01*
X8269D01*
X8602D01*
X9769Y35181D02*
X9602Y35348D01*
X9269D01*
X9102Y35181D01*
Y35014D01*
X9269Y34848D01*
X9602D01*
X9769Y34681D01*
Y34515D01*
X9602Y34348D01*
X9269D01*
X9102Y34515D01*
X11768Y35348D02*
X11102D01*
Y34848D01*
X11435D01*
X11102D01*
Y34348D01*
X12101D02*
Y35348D01*
X12601D01*
X12768Y35181D01*
Y34848D01*
X12601Y34681D01*
X12101D01*
X12435D02*
X12768Y34348D01*
X13601D02*
Y35348D01*
X13101Y34848D01*
X13767D01*
X14101Y35181D02*
X14267Y35348D01*
X14601D01*
X14767Y35181D01*
Y34515D01*
X14601Y34348D01*
X14267D01*
X14101Y34515D01*
Y35181D01*
X15100D02*
X15267Y35348D01*
X15600D01*
X15767Y35181D01*
Y35014D01*
X15600Y34848D01*
X15767Y34681D01*
Y34515D01*
X15600Y34348D01*
X15267D01*
X15100Y34515D01*
Y34681D01*
X15267Y34848D01*
X15100Y35014D01*
Y35181D01*
X15267Y34848D02*
X15600D01*
X-3394Y20515D02*
X-3227Y20348D01*
X-2894D01*
X-2727Y20515D01*
Y21181D01*
X-2894Y21348D01*
X-3227D01*
X-3394Y21181D01*
Y21014D01*
X-3227Y20848D01*
X-2727D01*
X-2394Y20348D02*
X-2061Y20681D01*
Y21014D01*
X-2394Y21348D01*
X-561Y20348D02*
Y21348D01*
X105Y20348D01*
Y21348D01*
X938D02*
X605D01*
X438Y21181D01*
Y20515D01*
X605Y20348D01*
X938D01*
X1105Y20515D01*
Y21181D01*
X938Y21348D01*
X3104Y21181D02*
X2938Y21348D01*
X2604D01*
X2438Y21181D01*
Y21014D01*
X2604Y20848D01*
X2938D01*
X3104Y20681D01*
Y20515D01*
X2938Y20348D01*
X2604D01*
X2438Y20515D01*
X3437Y21348D02*
X3771D01*
X3604D01*
Y20348D01*
X3437D01*
X3771D01*
X4271Y21348D02*
Y20348D01*
X4937D01*
X5270Y21348D02*
Y20348D01*
Y20681D01*
X5937Y21348D01*
X5437Y20848D01*
X5937Y20348D01*
X6936Y21181D02*
X6770Y21348D01*
X6436D01*
X6270Y21181D01*
Y21014D01*
X6436Y20848D01*
X6770D01*
X6936Y20681D01*
Y20515D01*
X6770Y20348D01*
X6436D01*
X6270Y20515D01*
X7936Y21181D02*
X7769Y21348D01*
X7436D01*
X7270Y21181D01*
Y20515D01*
X7436Y20348D01*
X7769D01*
X7936Y20515D01*
X8269Y20348D02*
Y21348D01*
X8769D01*
X8936Y21181D01*
Y20848D01*
X8769Y20681D01*
X8269D01*
X8602D02*
X8936Y20348D01*
X9935Y21348D02*
X9269D01*
Y20348D01*
X9935D01*
X9269Y20848D02*
X9602D01*
X10935Y21348D02*
X10269D01*
Y20348D01*
X10935D01*
X10269Y20848D02*
X10602D01*
X11268Y20348D02*
Y21348D01*
X11935Y20348D01*
Y21348D01*
X13767D02*
X13434D01*
X13268Y21181D01*
Y20515D01*
X13434Y20348D01*
X13767D01*
X13934Y20515D01*
Y21181D01*
X13767Y21348D01*
X14267Y20348D02*
Y21348D01*
X14934Y20348D01*
Y21348D01*
X16267Y20348D02*
Y21348D01*
X16766D01*
X16933Y21181D01*
Y20848D01*
X16766Y20681D01*
X16267D01*
X17266Y20348D02*
Y21014D01*
X17600Y21348D01*
X17933Y21014D01*
Y20348D01*
Y20848D01*
X17266D01*
X18266Y21348D02*
Y20348D01*
X18766D01*
X18932Y20515D01*
Y21181D01*
X18766Y21348D01*
X18266D01*
X19932Y21181D02*
X19766Y21348D01*
X19432D01*
X19266Y21181D01*
Y21014D01*
X19432Y20848D01*
X19766D01*
X19932Y20681D01*
Y20515D01*
X19766Y20348D01*
X19432D01*
X19266Y20515D01*
X-3394Y23181D02*
X-3227Y23348D01*
X-2894D01*
X-2727Y23181D01*
Y23014D01*
X-2894Y22848D01*
X-2727Y22681D01*
Y22515D01*
X-2894Y22348D01*
X-3227D01*
X-3394Y22515D01*
Y22681D01*
X-3227Y22848D01*
X-3394Y23014D01*
Y23181D01*
X-3227Y22848D02*
X-2894D01*
X-2394Y22348D02*
X-2061Y22681D01*
Y23014D01*
X-2394Y23348D01*
X-561Y22348D02*
Y23014D01*
X-228Y23348D01*
X105Y23014D01*
Y22348D01*
Y22848D01*
X-561D01*
X438Y23348D02*
Y22348D01*
X938D01*
X1105Y22515D01*
Y23181D01*
X938Y23348D01*
X438D01*
X1438D02*
Y22348D01*
X1938D01*
X2105Y22515D01*
Y23181D01*
X1938Y23348D01*
X1438D01*
X4104Y23181D02*
X3937Y23348D01*
X3604D01*
X3437Y23181D01*
Y23014D01*
X3604Y22848D01*
X3937D01*
X4104Y22681D01*
Y22515D01*
X3937Y22348D01*
X3604D01*
X3437Y22515D01*
X4437Y23348D02*
X4770D01*
X4604D01*
Y22348D01*
X4437D01*
X4770D01*
X5270Y23348D02*
Y22348D01*
X5937D01*
X6270Y23348D02*
Y22348D01*
Y22681D01*
X6936Y23348D01*
X6436Y22848D01*
X6936Y22348D01*
X7936Y23181D02*
X7769Y23348D01*
X7436D01*
X7270Y23181D01*
Y23014D01*
X7436Y22848D01*
X7769D01*
X7936Y22681D01*
Y22515D01*
X7769Y22348D01*
X7436D01*
X7270Y22515D01*
X8936Y23181D02*
X8769Y23348D01*
X8436D01*
X8269Y23181D01*
Y22515D01*
X8436Y22348D01*
X8769D01*
X8936Y22515D01*
X9269Y22348D02*
Y23348D01*
X9769D01*
X9935Y23181D01*
Y22848D01*
X9769Y22681D01*
X9269D01*
X9602D02*
X9935Y22348D01*
X10935Y23348D02*
X10269D01*
Y22348D01*
X10935D01*
X10269Y22848D02*
X10602D01*
X11935Y23348D02*
X11268D01*
Y22348D01*
X11935D01*
X11268Y22848D02*
X11601D01*
X12268Y22348D02*
Y23348D01*
X12934Y22348D01*
Y23348D01*
X14267D02*
Y22348D01*
X14767D01*
X14934Y22515D01*
Y22681D01*
X14767Y22848D01*
X14267D01*
X14767D01*
X14934Y23014D01*
Y23181D01*
X14767Y23348D01*
X14267D01*
X15767D02*
X15434D01*
X15267Y23181D01*
Y22515D01*
X15434Y22348D01*
X15767D01*
X15933Y22515D01*
Y23181D01*
X15767Y23348D01*
X16267D02*
X16933D01*
X16600D01*
Y22348D01*
X17266Y23348D02*
Y22348D01*
Y22848D01*
X17933D01*
Y23348D01*
Y22348D01*
X19932Y23181D02*
X19765Y23348D01*
X19432D01*
X19266Y23181D01*
Y23014D01*
X19432Y22848D01*
X19765D01*
X19932Y22681D01*
Y22515D01*
X19765Y22348D01*
X19432D01*
X19266Y22515D01*
X20265Y23348D02*
X20599D01*
X20432D01*
Y22348D01*
X20265D01*
X20599D01*
X21098Y23348D02*
Y22348D01*
X21598D01*
X21765Y22515D01*
Y23181D01*
X21598Y23348D01*
X21098D01*
X22765D02*
X22098D01*
Y22348D01*
X22765D01*
X22098Y22848D02*
X22431D01*
X23764Y23181D02*
X23598Y23348D01*
X23264D01*
X23098Y23181D01*
Y23014D01*
X23264Y22848D01*
X23598D01*
X23764Y22681D01*
Y22515D01*
X23598Y22348D01*
X23264D01*
X23098Y22515D01*
X-3394Y25348D02*
X-2727D01*
Y25181D01*
X-3394Y24515D01*
Y24348D01*
X-2394D02*
X-2061Y24681D01*
Y25014D01*
X-2394Y25348D01*
X-561Y24348D02*
Y25348D01*
X-61D01*
X105Y25181D01*
Y24848D01*
X-61Y24681D01*
X-561D01*
X-228D02*
X105Y24348D01*
X938Y25348D02*
X605D01*
X438Y25181D01*
Y24515D01*
X605Y24348D01*
X938D01*
X1105Y24515D01*
Y25181D01*
X938Y25348D01*
X1438D02*
Y24515D01*
X1605Y24348D01*
X1938D01*
X2105Y24515D01*
Y25348D01*
X2438D02*
X3104D01*
X2771D01*
Y24348D01*
X4104Y25348D02*
X3437D01*
Y24348D01*
X4104D01*
X3437Y24848D02*
X3771D01*
X5437Y25348D02*
X6103D01*
X5770D01*
Y24348D01*
X6936Y25348D02*
X6603D01*
X6436Y25181D01*
Y24515D01*
X6603Y24348D01*
X6936D01*
X7103Y24515D01*
Y25181D01*
X6936Y25348D01*
X8436D02*
Y24348D01*
X8936D01*
X9102Y24515D01*
Y24681D01*
X8936Y24848D01*
X8436D01*
X8936D01*
X9102Y25014D01*
Y25181D01*
X8936Y25348D01*
X8436D01*
X9935D02*
X9602D01*
X9436Y25181D01*
Y24515D01*
X9602Y24348D01*
X9935D01*
X10102Y24515D01*
Y25181D01*
X9935Y25348D01*
X10435Y24348D02*
Y25014D01*
X10768Y25348D01*
X11102Y25014D01*
Y24348D01*
Y24848D01*
X10435D01*
X11435Y24348D02*
Y25348D01*
X11935D01*
X12101Y25181D01*
Y24848D01*
X11935Y24681D01*
X11435D01*
X11768D02*
X12101Y24348D01*
X12435Y25348D02*
Y24348D01*
X12934D01*
X13101Y24515D01*
Y25181D01*
X12934Y25348D01*
X12435D01*
X14934D02*
X14601D01*
X14434Y25181D01*
Y24515D01*
X14601Y24348D01*
X14934D01*
X15100Y24515D01*
Y25181D01*
X14934Y25348D01*
X15434D02*
Y24515D01*
X15600Y24348D01*
X15933D01*
X16100Y24515D01*
Y25348D01*
X16433D02*
X17100D01*
X16766D01*
Y24348D01*
X17433Y25348D02*
Y24348D01*
X18099D01*
X18433Y25348D02*
X18766D01*
X18599D01*
Y24348D01*
X18433D01*
X18766D01*
X19266D02*
Y25348D01*
X19932Y24348D01*
Y25348D01*
X20932D02*
X20265D01*
Y24348D01*
X20932D01*
X20265Y24848D02*
X20599D01*
X-2727Y27348D02*
X-3060Y27181D01*
X-3394Y26848D01*
Y26515D01*
X-3227Y26348D01*
X-2894D01*
X-2727Y26515D01*
Y26681D01*
X-2894Y26848D01*
X-3394D01*
X-2394Y26348D02*
X-2061Y26681D01*
Y27014D01*
X-2394Y27348D01*
X-561Y26348D02*
Y27348D01*
X-61D01*
X105Y27181D01*
Y26848D01*
X-61Y26681D01*
X-561D01*
X-228D02*
X105Y26348D01*
X1105Y27348D02*
X438D01*
Y26348D01*
X1105D01*
X438Y26848D02*
X772D01*
X2105Y27181D02*
X1938Y27348D01*
X1605D01*
X1438Y27181D01*
Y26515D01*
X1605Y26348D01*
X1938D01*
X2105Y26515D01*
X2438Y27348D02*
X3104D01*
X2771D01*
Y26348D01*
X3437D02*
Y27014D01*
X3771Y27348D01*
X4104Y27014D01*
Y26348D01*
Y26848D01*
X3437D01*
X4437Y26348D02*
Y27348D01*
X5104Y26348D01*
Y27348D01*
X6103Y27181D02*
X5937Y27348D01*
X5603D01*
X5437Y27181D01*
Y26515D01*
X5603Y26348D01*
X5937D01*
X6103Y26515D01*
Y26848D01*
X5770D01*
X6436Y27348D02*
Y26515D01*
X6603Y26348D01*
X6936D01*
X7103Y26515D01*
Y27348D01*
X7436D02*
Y26348D01*
X8103D01*
X8436D02*
Y27014D01*
X8769Y27348D01*
X9102Y27014D01*
Y26348D01*
Y26848D01*
X8436D01*
X9436Y26348D02*
Y27348D01*
X9935D01*
X10102Y27181D01*
Y26848D01*
X9935Y26681D01*
X9436D01*
X9769D02*
X10102Y26348D01*
X11435Y27348D02*
Y26348D01*
X11935D01*
X12101Y26515D01*
Y26681D01*
X11935Y26848D01*
X11435D01*
X11935D01*
X12101Y27014D01*
Y27181D01*
X11935Y27348D01*
X11435D01*
X12934D02*
X12601D01*
X12435Y27181D01*
Y26515D01*
X12601Y26348D01*
X12934D01*
X13101Y26515D01*
Y27181D01*
X12934Y27348D01*
X13434Y26348D02*
Y27014D01*
X13767Y27348D01*
X14101Y27014D01*
Y26348D01*
Y26848D01*
X13434D01*
X14434Y26348D02*
Y27348D01*
X14934D01*
X15100Y27181D01*
Y26848D01*
X14934Y26681D01*
X14434D01*
X14767D02*
X15100Y26348D01*
X15434Y27348D02*
Y26348D01*
X15933D01*
X16100Y26515D01*
Y27181D01*
X15933Y27348D01*
X15434D01*
X17433D02*
Y26348D01*
X17766Y26681D01*
X18099Y26348D01*
Y27348D01*
X18433D02*
X18766D01*
X18599D01*
Y26348D01*
X18433D01*
X18766D01*
X19266Y27348D02*
X19932D01*
X19599D01*
Y26348D01*
X20265Y27348D02*
Y26348D01*
Y26848D01*
X20932D01*
Y27348D01*
Y26348D01*
X22931D02*
X22265D01*
X22931Y27014D01*
Y27181D01*
X22765Y27348D01*
X22431D01*
X22265Y27181D01*
X24931D02*
X24764Y27348D01*
X24431D01*
X24264Y27181D01*
Y26515D01*
X24431Y26348D01*
X24764D01*
X24931Y26515D01*
X25264Y27348D02*
Y26515D01*
X25430Y26348D01*
X25764D01*
X25930Y26515D01*
Y27348D01*
X26263D02*
X26930D01*
X26597D01*
Y26348D01*
X27763Y27348D02*
X27430D01*
X27263Y27181D01*
Y26515D01*
X27430Y26348D01*
X27763D01*
X27930Y26515D01*
Y27181D01*
X27763Y27348D01*
X28263D02*
Y26515D01*
X28429Y26348D01*
X28763D01*
X28929Y26515D01*
Y27348D01*
X29262D02*
X29929D01*
X29596D01*
Y26348D01*
X30929Y27181D02*
X30762Y27348D01*
X30429D01*
X30262Y27181D01*
Y27014D01*
X30429Y26848D01*
X30762D01*
X30929Y26681D01*
Y26515D01*
X30762Y26348D01*
X30429D01*
X30262Y26515D01*
X-2727Y29348D02*
X-3394D01*
Y28848D01*
X-3060Y29014D01*
X-2894D01*
X-2727Y28848D01*
Y28515D01*
X-2894Y28348D01*
X-3227D01*
X-3394Y28515D01*
X-2394Y28348D02*
X-2061Y28681D01*
Y29014D01*
X-2394Y29348D01*
X105D02*
X-561D01*
Y28848D01*
X-228D01*
X-561D01*
Y28348D01*
X438Y29348D02*
X772D01*
X605D01*
Y28348D01*
X438D01*
X772D01*
X1271D02*
Y29348D01*
X1938Y28348D01*
Y29348D01*
X2271D02*
X2604D01*
X2438D01*
Y28348D01*
X2271D01*
X2604D01*
X3771Y29181D02*
X3604Y29348D01*
X3271D01*
X3104Y29181D01*
Y29014D01*
X3271Y28848D01*
X3604D01*
X3771Y28681D01*
Y28515D01*
X3604Y28348D01*
X3271D01*
X3104Y28515D01*
X4104Y29348D02*
Y28348D01*
Y28848D01*
X4770D01*
Y29348D01*
Y28348D01*
X6103Y29348D02*
X6436D01*
X6270D01*
Y28348D01*
X6103D01*
X6436D01*
X7603Y29181D02*
X7436Y29348D01*
X7103D01*
X6936Y29181D01*
Y29014D01*
X7103Y28848D01*
X7436D01*
X7603Y28681D01*
Y28515D01*
X7436Y28348D01*
X7103D01*
X6936Y28515D01*
X9602Y29181D02*
X9436Y29348D01*
X9102D01*
X8936Y29181D01*
Y29014D01*
X9102Y28848D01*
X9436D01*
X9602Y28681D01*
Y28515D01*
X9436Y28348D01*
X9102D01*
X8936Y28515D01*
X9935Y28348D02*
Y29348D01*
X10269Y29014D01*
X10602Y29348D01*
Y28348D01*
X11435Y29348D02*
X11102D01*
X10935Y29181D01*
Y28515D01*
X11102Y28348D01*
X11435D01*
X11601Y28515D01*
Y29181D01*
X11435Y29348D01*
X11935D02*
Y28348D01*
X12435D01*
X12601Y28515D01*
Y28681D01*
X12435Y28848D01*
X11935D01*
X12435D01*
X12601Y29014D01*
Y29181D01*
X12435Y29348D01*
X11935D01*
X13601Y29181D02*
X13434Y29348D01*
X13101D01*
X12934Y29181D01*
Y28515D01*
X13101Y28348D01*
X13434D01*
X13601Y28515D01*
X-2894Y30348D02*
Y31348D01*
X-3394Y30848D01*
X-2727D01*
X-2394Y30348D02*
X-2061Y30681D01*
Y31014D01*
X-2394Y31348D01*
X105Y31181D02*
X-61Y31348D01*
X-395D01*
X-561Y31181D01*
Y30515D01*
X-395Y30348D01*
X-61D01*
X105Y30515D01*
X938Y31348D02*
X605D01*
X438Y31181D01*
Y30515D01*
X605Y30348D01*
X938D01*
X1105Y30515D01*
Y31181D01*
X938Y31348D01*
X1438Y30348D02*
Y31348D01*
X1938D01*
X2105Y31181D01*
Y30848D01*
X1938Y30681D01*
X1438D01*
X2438Y30348D02*
Y31348D01*
X2938D01*
X3104Y31181D01*
Y30848D01*
X2938Y30681D01*
X2438D01*
X4104Y31348D02*
X3437D01*
Y30348D01*
X4104D01*
X3437Y30848D02*
X3771D01*
X4437Y30348D02*
Y31348D01*
X4937D01*
X5104Y31181D01*
Y30848D01*
X4937Y30681D01*
X4437D01*
X4770D02*
X5104Y30348D01*
X6436Y31348D02*
Y30348D01*
X6770Y30681D01*
X7103Y30348D01*
Y31348D01*
X8103D02*
X7436D01*
Y30348D01*
X8103D01*
X7436Y30848D02*
X7769D01*
X8436Y31348D02*
X8769D01*
X8602D01*
Y30348D01*
X8436D01*
X8769D01*
X9935Y31181D02*
X9769Y31348D01*
X9436D01*
X9269Y31181D01*
Y30515D01*
X9436Y30348D01*
X9769D01*
X9935Y30515D01*
Y30848D01*
X9602D01*
X10269Y31348D02*
Y30348D01*
Y30848D01*
X10935D01*
Y31348D01*
Y30348D01*
X11268Y31348D02*
X11935D01*
X11601D01*
Y30348D01*
X13268Y31348D02*
X13601D01*
X13434D01*
Y30348D01*
X13268D01*
X13601D01*
X14767Y31181D02*
X14601Y31348D01*
X14267D01*
X14101Y31181D01*
Y31014D01*
X14267Y30848D01*
X14601D01*
X14767Y30681D01*
Y30515D01*
X14601Y30348D01*
X14267D01*
X14101Y30515D01*
X16100Y30348D02*
X16433D01*
X16267D01*
Y31348D01*
X16100Y31181D01*
X18433Y31348D02*
X18099D01*
X17933Y31181D01*
Y30515D01*
X18099Y30348D01*
X18433D01*
X18599Y30515D01*
Y31181D01*
X18433Y31348D01*
X18932D02*
Y30515D01*
X19099Y30348D01*
X19432D01*
X19599Y30515D01*
Y31348D01*
X19932Y30348D02*
Y31348D01*
X20599Y30348D01*
Y31348D01*
X21598Y31181D02*
X21432Y31348D01*
X21098D01*
X20932Y31181D01*
Y30515D01*
X21098Y30348D01*
X21432D01*
X21598Y30515D01*
X22598Y31348D02*
X21931D01*
Y30348D01*
X22598D01*
X21931Y30848D02*
X22265D01*
X-3394Y33181D02*
X-3227Y33348D01*
X-2894D01*
X-2727Y33181D01*
Y33014D01*
X-2894Y32848D01*
X-3060D01*
X-2894D01*
X-2727Y32681D01*
Y32515D01*
X-2894Y32348D01*
X-3227D01*
X-3394Y32515D01*
X-2394Y32348D02*
X-2061Y32681D01*
Y33014D01*
X-2394Y33348D01*
X105D02*
X-228Y33181D01*
X-561Y32848D01*
Y32515D01*
X-395Y32348D01*
X-61D01*
X105Y32515D01*
Y32681D01*
X-61Y32848D01*
X-561D01*
X1438Y33348D02*
Y32348D01*
X2105D01*
X2438D02*
Y33014D01*
X2771Y33348D01*
X3104Y33014D01*
Y32348D01*
Y32848D01*
X2438D01*
X3437Y33348D02*
Y33181D01*
X3771Y32848D01*
X4104Y33181D01*
Y33348D01*
X3771Y32848D02*
Y32348D01*
X5104Y33348D02*
X4437D01*
Y32348D01*
X5104D01*
X4437Y32848D02*
X4770D01*
X5437Y32348D02*
Y33348D01*
X5937D01*
X6103Y33181D01*
Y32848D01*
X5937Y32681D01*
X5437D01*
X5770D02*
X6103Y32348D01*
X7436Y33348D02*
Y32348D01*
X7936D01*
X8103Y32515D01*
Y32681D01*
X7936Y32848D01*
X7436D01*
X7936D01*
X8103Y33014D01*
Y33181D01*
X7936Y33348D01*
X7436D01*
X8936D02*
X8602D01*
X8436Y33181D01*
Y32515D01*
X8602Y32348D01*
X8936D01*
X9102Y32515D01*
Y33181D01*
X8936Y33348D01*
X9436Y32348D02*
Y33014D01*
X9769Y33348D01*
X10102Y33014D01*
Y32348D01*
Y32848D01*
X9436D01*
X10435Y32348D02*
Y33348D01*
X10935D01*
X11102Y33181D01*
Y32848D01*
X10935Y32681D01*
X10435D01*
X10768D02*
X11102Y32348D01*
X11435Y33348D02*
Y32348D01*
X11935D01*
X12101Y32515D01*
Y33181D01*
X11935Y33348D01*
X11435D01*
X13434D02*
Y32348D01*
X13767Y32681D01*
X14101Y32348D01*
Y33348D01*
X14434D02*
X14767D01*
X14601D01*
Y32348D01*
X14434D01*
X14767D01*
X15267Y33348D02*
X15933D01*
X15600D01*
Y32348D01*
X16267Y33348D02*
Y32348D01*
Y32848D01*
X16933D01*
Y33348D01*
Y32348D01*
X18266Y33348D02*
X18932D01*
X18599D01*
Y32348D01*
X19765Y33348D02*
X19432D01*
X19266Y33181D01*
Y32515D01*
X19432Y32348D01*
X19765D01*
X19932Y32515D01*
Y33181D01*
X19765Y33348D01*
X20265D02*
X20932D01*
X20599D01*
Y32348D01*
X21265D02*
Y33014D01*
X21598Y33348D01*
X21931Y33014D01*
Y32348D01*
Y32848D01*
X21265D01*
X22265Y33348D02*
Y32348D01*
X22931D01*
X24264Y33348D02*
X24931D01*
X24597D01*
Y32348D01*
X25264Y33348D02*
Y32348D01*
Y32848D01*
X25930D01*
Y33348D01*
Y32348D01*
X26263Y33348D02*
X26597D01*
X26430D01*
Y32348D01*
X26263D01*
X26597D01*
X27763Y33181D02*
X27596Y33348D01*
X27263D01*
X27096Y33181D01*
Y32515D01*
X27263Y32348D01*
X27596D01*
X27763Y32515D01*
X28096Y33348D02*
Y32348D01*
Y32681D01*
X28763Y33348D01*
X28263Y32848D01*
X28763Y32348D01*
X29096D02*
Y33348D01*
X29762Y32348D01*
Y33348D01*
X30762D02*
X30096D01*
Y32348D01*
X30762D01*
X30096Y32848D02*
X30429D01*
X31762Y33181D02*
X31595Y33348D01*
X31262D01*
X31095Y33181D01*
Y33014D01*
X31262Y32848D01*
X31595D01*
X31762Y32681D01*
Y32515D01*
X31595Y32348D01*
X31262D01*
X31095Y32515D01*
X32761Y33181D02*
X32595Y33348D01*
X32261D01*
X32095Y33181D01*
Y33014D01*
X32261Y32848D01*
X32595D01*
X32761Y32681D01*
Y32515D01*
X32595Y32348D01*
X32261D01*
X32095Y32515D01*
X34594Y33348D02*
X34261D01*
X34094Y33181D01*
Y32515D01*
X34261Y32348D01*
X34594D01*
X34761Y32515D01*
Y33181D01*
X34594Y33348D01*
X35760D02*
X35094D01*
Y32848D01*
X35427D01*
X35094D01*
Y32348D01*
X37093D02*
Y32515D01*
X37260D01*
Y32348D01*
X37093D01*
X37926Y33181D02*
X38093Y33348D01*
X38426D01*
X38593Y33181D01*
Y32515D01*
X38426Y32348D01*
X38093D01*
X37926Y32515D01*
Y33181D01*
X38926D02*
X39093Y33348D01*
X39426D01*
X39592Y33181D01*
Y33014D01*
X39426Y32848D01*
X39259D01*
X39426D01*
X39592Y32681D01*
Y32515D01*
X39426Y32348D01*
X39093D01*
X38926Y32515D01*
X40592Y33348D02*
X40259Y33181D01*
X39926Y32848D01*
Y32515D01*
X40092Y32348D01*
X40425D01*
X40592Y32515D01*
Y32681D01*
X40425Y32848D01*
X39926D01*
X-3394Y18348D02*
X-3060D01*
X-3227D01*
Y19348D01*
X-3394Y19181D01*
X-2561D02*
X-2394Y19348D01*
X-2061D01*
X-1894Y19181D01*
Y18515D01*
X-2061Y18348D01*
X-2394D01*
X-2561Y18515D01*
Y19181D01*
X-1561Y18348D02*
X-1228Y18681D01*
Y19014D01*
X-1561Y19348D01*
X938Y19181D02*
X772Y19348D01*
X438D01*
X272Y19181D01*
Y18515D01*
X438Y18348D01*
X772D01*
X938Y18515D01*
Y18848D01*
X605D01*
X1271Y18348D02*
Y19348D01*
X1771D01*
X1938Y19181D01*
Y18848D01*
X1771Y18681D01*
X1271D01*
X1605D02*
X1938Y18348D01*
X2938Y19348D02*
X2271D01*
Y18348D01*
X2938D01*
X2271Y18848D02*
X2604D01*
X3937Y19348D02*
X3271D01*
Y18348D01*
X3937D01*
X3271Y18848D02*
X3604D01*
X4271Y18348D02*
Y19348D01*
X4937Y18348D01*
Y19348D01*
X6936Y19181D02*
X6770Y19348D01*
X6436D01*
X6270Y19181D01*
Y19014D01*
X6436Y18848D01*
X6770D01*
X6936Y18681D01*
Y18515D01*
X6770Y18348D01*
X6436D01*
X6270Y18515D01*
X7769Y19348D02*
X7436D01*
X7270Y19181D01*
Y18515D01*
X7436Y18348D01*
X7769D01*
X7936Y18515D01*
Y19181D01*
X7769Y19348D01*
X8269D02*
Y18348D01*
X8936D01*
X9269Y19348D02*
Y18348D01*
X9769D01*
X9935Y18515D01*
Y19181D01*
X9769Y19348D01*
X9269D01*
X10935D02*
X10269D01*
Y18348D01*
X10935D01*
X10269Y18848D02*
X10602D01*
X11268Y18348D02*
Y19348D01*
X11768D01*
X11935Y19181D01*
Y18848D01*
X11768Y18681D01*
X11268D01*
X11601D02*
X11935Y18348D01*
X13268D02*
Y19348D01*
X13601Y19014D01*
X13934Y19348D01*
Y18348D01*
X14267D02*
Y19014D01*
X14601Y19348D01*
X14934Y19014D01*
Y18348D01*
Y18848D01*
X14267D01*
X15933Y19181D02*
X15767Y19348D01*
X15434D01*
X15267Y19181D01*
Y19014D01*
X15434Y18848D01*
X15767D01*
X15933Y18681D01*
Y18515D01*
X15767Y18348D01*
X15434D01*
X15267Y18515D01*
X16267Y19348D02*
Y18348D01*
Y18681D01*
X16933Y19348D01*
X16433Y18848D01*
X16933Y18348D01*
X18266Y19348D02*
Y18348D01*
X18766D01*
X18932Y18515D01*
Y18681D01*
X18766Y18848D01*
X18266D01*
X18766D01*
X18932Y19014D01*
Y19181D01*
X18766Y19348D01*
X18266D01*
X19766D02*
X19432D01*
X19266Y19181D01*
Y18515D01*
X19432Y18348D01*
X19766D01*
X19932Y18515D01*
Y19181D01*
X19766Y19348D01*
X20265D02*
X20932D01*
X20599D01*
Y18348D01*
X21265Y19348D02*
Y18348D01*
Y18848D01*
X21931D01*
Y19348D01*
Y18348D01*
X23931Y19181D02*
X23764Y19348D01*
X23431D01*
X23264Y19181D01*
Y19014D01*
X23431Y18848D01*
X23764D01*
X23931Y18681D01*
Y18515D01*
X23764Y18348D01*
X23431D01*
X23264Y18515D01*
X24264Y19348D02*
X24597D01*
X24431D01*
Y18348D01*
X24264D01*
X24597D01*
X25097Y19348D02*
Y18348D01*
X25597D01*
X25764Y18515D01*
Y19181D01*
X25597Y19348D01*
X25097D01*
X26763D02*
X26097D01*
Y18348D01*
X26763D01*
X26097Y18848D02*
X26430D01*
X27763Y19181D02*
X27596Y19348D01*
X27263D01*
X27096Y19181D01*
Y19014D01*
X27263Y18848D01*
X27596D01*
X27763Y18681D01*
Y18515D01*
X27596Y18348D01*
X27263D01*
X27096Y18515D01*
X-3394Y38348D02*
Y39348D01*
X-2727Y38348D01*
Y39348D01*
X-1894D02*
X-2227D01*
X-2394Y39181D01*
Y38515D01*
X-2227Y38348D01*
X-1894D01*
X-1728Y38515D01*
Y39181D01*
X-1894Y39348D01*
X-1394D02*
X-728D01*
X-1061D01*
Y38348D01*
X272Y39348D02*
X-395D01*
Y38348D01*
X272D01*
X-395Y38848D02*
X-61D01*
X1271Y39181D02*
X1105Y39348D01*
X772D01*
X605Y39181D01*
Y39014D01*
X772Y38848D01*
X1105D01*
X1271Y38681D01*
Y38515D01*
X1105Y38348D01*
X772D01*
X605Y38515D01*
X-3394Y36348D02*
X-3060D01*
X-3227D01*
Y37348D01*
X-3394Y37181D01*
X-2561Y36348D02*
X-2227Y36681D01*
Y37014D01*
X-2561Y37348D01*
X-728D02*
Y36348D01*
X-228D01*
X-61Y36515D01*
Y36681D01*
X-228Y36848D01*
X-728D01*
X-228D01*
X-61Y37014D01*
Y37181D01*
X-228Y37348D01*
X-728D01*
X772D02*
X438D01*
X272Y37181D01*
Y36515D01*
X438Y36348D01*
X772D01*
X938Y36515D01*
Y37181D01*
X772Y37348D01*
X1271Y36348D02*
Y37014D01*
X1605Y37348D01*
X1938Y37014D01*
Y36348D01*
Y36848D01*
X1271D01*
X2271Y36348D02*
Y37348D01*
X2771D01*
X2938Y37181D01*
Y36848D01*
X2771Y36681D01*
X2271D01*
X2604D02*
X2938Y36348D01*
X3271Y37348D02*
Y36348D01*
X3771D01*
X3937Y36515D01*
Y37181D01*
X3771Y37348D01*
X3271D01*
X5270Y36348D02*
Y37348D01*
X5603Y37014D01*
X5937Y37348D01*
Y36348D01*
X6936Y37348D02*
X6270D01*
Y36348D01*
X6936D01*
X6270Y36848D02*
X6603D01*
X7270Y36348D02*
Y37014D01*
X7603Y37348D01*
X7936Y37014D01*
Y36348D01*
Y36848D01*
X7270D01*
X8936Y37181D02*
X8769Y37348D01*
X8436D01*
X8269Y37181D01*
Y37014D01*
X8436Y36848D01*
X8769D01*
X8936Y36681D01*
Y36515D01*
X8769Y36348D01*
X8436D01*
X8269Y36515D01*
X9269Y37348D02*
Y36515D01*
X9436Y36348D01*
X9769D01*
X9935Y36515D01*
Y37348D01*
X10269Y36348D02*
Y37348D01*
X10768D01*
X10935Y37181D01*
Y36848D01*
X10768Y36681D01*
X10269D01*
X10602D02*
X10935Y36348D01*
X11935Y37348D02*
X11268D01*
Y36348D01*
X11935D01*
X11268Y36848D02*
X11601D01*
X12934Y37181D02*
X12768Y37348D01*
X12435D01*
X12268Y37181D01*
Y37014D01*
X12435Y36848D01*
X12768D01*
X12934Y36681D01*
Y36515D01*
X12768Y36348D01*
X12435D01*
X12268Y36515D01*
X14934Y36348D02*
X14267D01*
X14934Y37014D01*
Y37181D01*
X14767Y37348D01*
X14434D01*
X14267Y37181D01*
X15267Y36348D02*
Y36515D01*
X15434D01*
Y36348D01*
X15267D01*
X16100Y36515D02*
X16267Y36348D01*
X16600D01*
X16766Y36515D01*
Y37181D01*
X16600Y37348D01*
X16267D01*
X16100Y37181D01*
Y37014D01*
X16267Y36848D01*
X16766D01*
X17100Y36515D02*
X17266Y36348D01*
X17600D01*
X17766Y36515D01*
Y37181D01*
X17600Y37348D01*
X17266D01*
X17100Y37181D01*
Y37014D01*
X17266Y36848D01*
X17766D01*
X18099Y37181D02*
X18266Y37348D01*
X18599D01*
X18766Y37181D01*
Y36515D01*
X18599Y36348D01*
X18266D01*
X18099Y36515D01*
Y37181D01*
X20099Y37348D02*
X20765Y36348D01*
Y37348D02*
X20099Y36348D01*
X23098D02*
X23431D01*
X23264D01*
Y37348D01*
X23098Y37181D01*
X23931Y36348D02*
Y36515D01*
X24097D01*
Y36348D01*
X23931D01*
X25264D02*
Y37348D01*
X24764Y36848D01*
X25430D01*
X25764Y36515D02*
X25930Y36348D01*
X26263D01*
X26430Y36515D01*
Y37181D01*
X26263Y37348D01*
X25930D01*
X25764Y37181D01*
Y37014D01*
X25930Y36848D01*
X26430D01*
X26763Y37181D02*
X26930Y37348D01*
X27263D01*
X27430Y37181D01*
Y36515D01*
X27263Y36348D01*
X26930D01*
X26763Y36515D01*
Y37181D01*
X28763Y37348D02*
X29096D01*
X28929D01*
Y36348D01*
X28763D01*
X29096D01*
X29596D02*
Y37348D01*
X30262Y36348D01*
Y37348D01*
D54*
X-2819Y-12745D02*
X-2768Y-12719D01*
X-2692Y-12643D01*
Y-13176D01*
X-2276Y-12643D02*
X-2352Y-12669D01*
X-2403Y-12745D01*
X-2428Y-12872D01*
Y-12948D01*
X-2403Y-13075D01*
X-2352Y-13151D01*
X-2276Y-13176D01*
X-2225D01*
X-2149Y-13151D01*
X-2098Y-13075D01*
X-2073Y-12948D01*
Y-12872D01*
X-2098Y-12745D01*
X-2149Y-12669D01*
X-2225Y-12643D01*
X-2276D01*
X-1953Y-13253D02*
X-1598Y-12643D01*
X-1410D02*
X-1486Y-12669D01*
X-1537Y-12745D01*
X-1562Y-12872D01*
Y-12948D01*
X-1537Y-13075D01*
X-1486Y-13151D01*
X-1410Y-13176D01*
X-1359D01*
X-1283Y-13151D01*
X-1232Y-13075D01*
X-1207Y-12948D01*
Y-12872D01*
X-1232Y-12745D01*
X-1283Y-12669D01*
X-1359Y-12643D01*
X-1410D01*
X-732D02*
X-986Y-13176D01*
X-1087Y-12643D02*
X-732D01*
X225D02*
Y-13176D01*
X581Y-12643D02*
X225Y-12999D01*
X352Y-12872D02*
X581Y-13176D01*
X700Y-12643D02*
Y-13176D01*
X1056Y-12643D02*
X700Y-12999D01*
X827Y-12872D02*
X1056Y-13176D01*
D55*
X-3594Y37898D02*
X1506D01*
D57*
X21629Y-14208D02*
X21552Y-14233D01*
X21502Y-14309D01*
X21476Y-14436D01*
Y-14512D01*
X21502Y-14639D01*
X21552Y-14716D01*
X21629Y-14741D01*
X21679D01*
X21755Y-14716D01*
X21806Y-14639D01*
X21832Y-14512D01*
Y-14436D01*
X21806Y-14309D01*
X21755Y-14233D01*
X21679Y-14208D01*
X21629D01*
X21976Y-14335D02*
Y-14309D01*
X22002Y-14258D01*
X22027Y-14233D01*
X22078Y-14208D01*
X22180D01*
X22230Y-14233D01*
X22256Y-14258D01*
X22281Y-14309D01*
Y-14360D01*
X22256Y-14411D01*
X22205Y-14487D01*
X21951Y-14741D01*
X22306D01*
X6350Y-10396D02*
X6305Y-10305D01*
X6213Y-10213D01*
X6122Y-10168D01*
X5939D01*
X5848Y-10213D01*
X5756Y-10305D01*
X5711Y-10396D01*
X5665Y-10533D01*
Y-10762D01*
X5711Y-10899D01*
X5756Y-10990D01*
X5848Y-11082D01*
X5939Y-11127D01*
X6122D01*
X6213Y-11082D01*
X6305Y-10990D01*
X6350Y-10899D01*
X6849Y-10487D02*
X6757Y-10533D01*
X6666Y-10625D01*
X6620Y-10762D01*
Y-10853D01*
X6666Y-10990D01*
X6757Y-11082D01*
X6849Y-11127D01*
X6986D01*
X7077Y-11082D01*
X7169Y-10990D01*
X7214Y-10853D01*
Y-10762D01*
X7169Y-10625D01*
X7077Y-10533D01*
X6986Y-10487D01*
X6849D01*
X7425D02*
Y-11127D01*
Y-10670D02*
X7562Y-10533D01*
X7653Y-10487D01*
X7790D01*
X7882Y-10533D01*
X7927Y-10670D01*
Y-11127D01*
Y-10670D02*
X8064Y-10533D01*
X8156Y-10487D01*
X8293D01*
X8384Y-10533D01*
X8430Y-10670D01*
Y-11127D01*
X8732Y-10487D02*
Y-11447D01*
Y-10625D02*
X8823Y-10533D01*
X8914Y-10487D01*
X9052D01*
X9143Y-10533D01*
X9234Y-10625D01*
X9280Y-10762D01*
Y-10853D01*
X9234Y-10990D01*
X9143Y-11082D01*
X9052Y-11127D01*
X8914D01*
X8823Y-11082D01*
X8732Y-10990D01*
X10034Y-10487D02*
Y-11127D01*
Y-10625D02*
X9943Y-10533D01*
X9851Y-10487D01*
X9714D01*
X9623Y-10533D01*
X9532Y-10625D01*
X9486Y-10762D01*
Y-10853D01*
X9532Y-10990D01*
X9623Y-11082D01*
X9714Y-11127D01*
X9851D01*
X9943Y-11082D01*
X10034Y-10990D01*
X10839Y-10625D02*
X10747Y-10533D01*
X10656Y-10487D01*
X10519D01*
X10427Y-10533D01*
X10336Y-10625D01*
X10290Y-10762D01*
Y-10853D01*
X10336Y-10990D01*
X10427Y-11082D01*
X10519Y-11127D01*
X10656D01*
X10747Y-11082D01*
X10839Y-10990D01*
X11181Y-10168D02*
Y-10944D01*
X11227Y-11082D01*
X11319Y-11127D01*
X11410D01*
X11044Y-10487D02*
X11364D01*
X12301Y-10168D02*
Y-11127D01*
Y-10168D02*
X12895D01*
X12301Y-10625D02*
X12667D01*
X13005Y-10168D02*
Y-11127D01*
X13755Y-10487D02*
Y-11127D01*
Y-10625D02*
X13663Y-10533D01*
X13572Y-10487D01*
X13435D01*
X13343Y-10533D01*
X13252Y-10625D01*
X13206Y-10762D01*
Y-10853D01*
X13252Y-10990D01*
X13343Y-11082D01*
X13435Y-11127D01*
X13572D01*
X13663Y-11082D01*
X13755Y-10990D01*
X14513Y-10625D02*
X14468Y-10533D01*
X14330Y-10487D01*
X14193D01*
X14056Y-10533D01*
X14011Y-10625D01*
X14056Y-10716D01*
X14148Y-10762D01*
X14376Y-10807D01*
X14468Y-10853D01*
X14513Y-10944D01*
Y-10990D01*
X14468Y-11082D01*
X14330Y-11127D01*
X14193D01*
X14056Y-11082D01*
X14011Y-10990D01*
X14714Y-10168D02*
Y-11127D01*
Y-10670D02*
X14852Y-10533D01*
X14943Y-10487D01*
X15080D01*
X15171Y-10533D01*
X15217Y-10670D01*
Y-11127D01*
X16223Y-10168D02*
Y-11127D01*
Y-10168D02*
X16634D01*
X16771Y-10213D01*
X16817Y-10259D01*
X16863Y-10350D01*
Y-10442D01*
X16817Y-10533D01*
X16771Y-10579D01*
X16634Y-10625D01*
X16223D01*
X16543D02*
X16863Y-11127D01*
X17077Y-10762D02*
X17626D01*
Y-10670D01*
X17580Y-10579D01*
X17534Y-10533D01*
X17443Y-10487D01*
X17306D01*
X17214Y-10533D01*
X17123Y-10625D01*
X17077Y-10762D01*
Y-10853D01*
X17123Y-10990D01*
X17214Y-11082D01*
X17306Y-11127D01*
X17443D01*
X17534Y-11082D01*
X17626Y-10990D01*
X18380Y-10487D02*
Y-11127D01*
Y-10625D02*
X18288Y-10533D01*
X18197Y-10487D01*
X18060D01*
X17969Y-10533D01*
X17877Y-10625D01*
X17831Y-10762D01*
Y-10853D01*
X17877Y-10990D01*
X17969Y-11082D01*
X18060Y-11127D01*
X18197D01*
X18288Y-11082D01*
X18380Y-10990D01*
X19184Y-10168D02*
Y-11127D01*
Y-10625D02*
X19093Y-10533D01*
X19001Y-10487D01*
X18864D01*
X18773Y-10533D01*
X18682Y-10625D01*
X18636Y-10762D01*
Y-10853D01*
X18682Y-10990D01*
X18773Y-11082D01*
X18864Y-11127D01*
X19001D01*
X19093Y-11082D01*
X19184Y-10990D01*
X19440Y-10762D02*
X19989D01*
Y-10670D01*
X19943Y-10579D01*
X19897Y-10533D01*
X19806Y-10487D01*
X19669D01*
X19577Y-10533D01*
X19486Y-10625D01*
X19440Y-10762D01*
Y-10853D01*
X19486Y-10990D01*
X19577Y-11082D01*
X19669Y-11127D01*
X19806D01*
X19897Y-11082D01*
X19989Y-10990D01*
X20194Y-10487D02*
Y-11127D01*
Y-10762D02*
X20240Y-10625D01*
X20331Y-10533D01*
X20423Y-10487D01*
X20560D01*
X4382Y-7316D02*
X4017Y-6356D01*
X3651Y-7316D01*
X3788Y-6996D02*
X4245D01*
X5155Y-6813D02*
X5063Y-6722D01*
X4972Y-6676D01*
X4835D01*
X4744Y-6722D01*
X4652Y-6813D01*
X4606Y-6950D01*
Y-7042D01*
X4652Y-7179D01*
X4744Y-7270D01*
X4835Y-7316D01*
X4972D01*
X5063Y-7270D01*
X5155Y-7179D01*
X5498Y-6356D02*
Y-7133D01*
X5543Y-7270D01*
X5635Y-7316D01*
X5726D01*
X5361Y-6676D02*
X5680D01*
X5955Y-6356D02*
X6000Y-6402D01*
X6046Y-6356D01*
X6000Y-6310D01*
X5955Y-6356D01*
X6000Y-6676D02*
Y-7316D01*
X6215Y-6676D02*
X6489Y-7316D01*
X6764Y-6676D02*
X6489Y-7316D01*
X6919Y-6950D02*
X7467D01*
Y-6859D01*
X7422Y-6767D01*
X7376Y-6722D01*
X7285Y-6676D01*
X7148D01*
X7056Y-6722D01*
X6965Y-6813D01*
X6919Y-6950D01*
Y-7042D01*
X6965Y-7179D01*
X7056Y-7270D01*
X7148Y-7316D01*
X7285D01*
X7376Y-7270D01*
X7467Y-7179D01*
X8427Y-6356D02*
X8656Y-7316D01*
X8884Y-6356D02*
X8656Y-7316D01*
X8884Y-6356D02*
X9113Y-7316D01*
X9341Y-6356D02*
X9113Y-7316D01*
X10082Y-6676D02*
Y-7316D01*
Y-6813D02*
X9990Y-6722D01*
X9899Y-6676D01*
X9762D01*
X9670Y-6722D01*
X9579Y-6813D01*
X9533Y-6950D01*
Y-7042D01*
X9579Y-7179D01*
X9670Y-7270D01*
X9762Y-7316D01*
X9899D01*
X9990Y-7270D01*
X10082Y-7179D01*
X10338Y-6676D02*
X10612Y-7316D01*
X10886Y-6676D02*
X10612Y-7316D01*
X11042Y-6950D02*
X11590D01*
Y-6859D01*
X11544Y-6767D01*
X11499Y-6722D01*
X11407Y-6676D01*
X11270D01*
X11179Y-6722D01*
X11087Y-6813D01*
X11042Y-6950D01*
Y-7042D01*
X11087Y-7179D01*
X11179Y-7270D01*
X11270Y-7316D01*
X11407D01*
X11499Y-7270D01*
X11590Y-7179D01*
X28499Y-14089D02*
X28550Y-14063D01*
X28626Y-13987D01*
Y-14521D01*
X29042Y-13987D02*
X28966Y-14013D01*
X28915Y-14089D01*
X28890Y-14216D01*
Y-14292D01*
X28915Y-14419D01*
X28966Y-14495D01*
X29042Y-14521D01*
X29093D01*
X29169Y-14495D01*
X29220Y-14419D01*
X29245Y-14292D01*
Y-14216D01*
X29220Y-14089D01*
X29169Y-14013D01*
X29093Y-13987D01*
X29042D01*
X29365Y-14597D02*
X29720Y-13987D01*
X29756Y-14089D02*
X29807Y-14063D01*
X29883Y-13987D01*
Y-14521D01*
X30147Y-14597D02*
X30502Y-13987D01*
X30690D02*
X30614Y-14013D01*
X30563Y-14089D01*
X30538Y-14216D01*
Y-14292D01*
X30563Y-14419D01*
X30614Y-14495D01*
X30690Y-14521D01*
X30741D01*
X30817Y-14495D01*
X30868Y-14419D01*
X30893Y-14292D01*
Y-14216D01*
X30868Y-14089D01*
X30817Y-14013D01*
X30741Y-13987D01*
X30690D01*
X31368D02*
X31114Y-14521D01*
X31013Y-13987D02*
X31368D01*
D58*
X24351Y-13458D02*
Y-13991D01*
Y-13458D02*
X24529D01*
X24605Y-13483D01*
X24656Y-13534D01*
X24681Y-13585D01*
X24707Y-13661D01*
Y-13788D01*
X24681Y-13864D01*
X24656Y-13915D01*
X24605Y-13966D01*
X24529Y-13991D01*
X24351D01*
X25232D02*
X25029Y-13458D01*
X24826Y-13991D01*
X24902Y-13813D02*
X25156D01*
X25534Y-13458D02*
Y-13991D01*
X25357Y-13458D02*
X25712D01*
X26106D02*
X25776D01*
Y-13991D01*
X26106D01*
X25776Y-13712D02*
X25979D01*
X26220Y-13635D02*
X26195Y-13661D01*
X26220Y-13686D01*
X26245Y-13661D01*
X26220Y-13635D01*
Y-13940D02*
X26195Y-13966D01*
X26220Y-13991D01*
X26245Y-13966D01*
X26220Y-13940D01*
X19726Y-13458D02*
Y-13991D01*
Y-13458D02*
X19955D01*
X20031Y-13483D01*
X20056Y-13508D01*
X20082Y-13559D01*
Y-13610D01*
X20056Y-13661D01*
X20031Y-13686D01*
X19955Y-13712D01*
X19726D01*
X19904D02*
X20082Y-13991D01*
X20531Y-13458D02*
X20201D01*
Y-13991D01*
X20531D01*
X20201Y-13712D02*
X20404D01*
X20620Y-13458D02*
X20823Y-13991D01*
X21026Y-13458D02*
X20823Y-13991D01*
X21120Y-13635D02*
X21095Y-13661D01*
X21120Y-13686D01*
X21146Y-13661D01*
X21120Y-13635D01*
Y-13940D02*
X21095Y-13966D01*
X21120Y-13991D01*
X21146Y-13966D01*
X21120Y-13940D01*
X-6649Y-10987D02*
X-6420D01*
X-6344Y-10962D01*
X-6319Y-10936D01*
X-6293Y-10885D01*
Y-10809D01*
X-6319Y-10758D01*
X-6344Y-10733D01*
X-6420Y-10708D01*
X-6649D01*
Y-11241D01*
X-6174Y-10708D02*
Y-11241D01*
X-5819Y-10708D02*
Y-11241D01*
X-6174Y-10962D02*
X-5819D01*
X-5519Y-10708D02*
X-5570Y-10733D01*
X-5620Y-10784D01*
X-5646Y-10835D01*
X-5671Y-10911D01*
Y-11038D01*
X-5646Y-11114D01*
X-5620Y-11165D01*
X-5570Y-11216D01*
X-5519Y-11241D01*
X-5417D01*
X-5367Y-11216D01*
X-5316Y-11165D01*
X-5290Y-11114D01*
X-5265Y-11038D01*
Y-10911D01*
X-5290Y-10835D01*
X-5316Y-10784D01*
X-5367Y-10733D01*
X-5417Y-10708D01*
X-5519D01*
X-5141D02*
Y-11241D01*
Y-10708D02*
X-4785Y-11241D01*
Y-10708D02*
Y-11241D01*
X-4308Y-10708D02*
X-4638D01*
Y-11241D01*
X-4308D01*
X-4638Y-10962D02*
X-4435D01*
X-4193Y-10885D02*
X-4219Y-10911D01*
X-4193Y-10936D01*
X-4168Y-10911D01*
X-4193Y-10885D01*
Y-11190D02*
X-4219Y-11216D01*
X-4193Y-11241D01*
X-4168Y-11216D01*
X-4193Y-11190D01*
X-6649Y-14737D02*
X-6420D01*
X-6344Y-14712D01*
X-6319Y-14686D01*
X-6293Y-14635D01*
Y-14559D01*
X-6319Y-14508D01*
X-6344Y-14483D01*
X-6420Y-14458D01*
X-6649D01*
Y-14991D01*
X-6174Y-14458D02*
Y-14991D01*
X-5819Y-14458D02*
Y-14991D01*
X-6174Y-14712D02*
X-5819D01*
X-5519Y-14458D02*
X-5570Y-14483D01*
X-5620Y-14534D01*
X-5646Y-14585D01*
X-5671Y-14661D01*
Y-14788D01*
X-5646Y-14864D01*
X-5620Y-14915D01*
X-5570Y-14966D01*
X-5519Y-14991D01*
X-5417D01*
X-5367Y-14966D01*
X-5316Y-14915D01*
X-5290Y-14864D01*
X-5265Y-14788D01*
Y-14661D01*
X-5290Y-14585D01*
X-5316Y-14534D01*
X-5367Y-14483D01*
X-5417Y-14458D01*
X-5519D01*
X-5141D02*
Y-14991D01*
Y-14458D02*
X-4785Y-14991D01*
Y-14458D02*
Y-14991D01*
X-4308Y-14458D02*
X-4638D01*
Y-14991D01*
X-4308D01*
X-4638Y-14712D02*
X-4435D01*
X-4193Y-14635D02*
X-4219Y-14661D01*
X-4193Y-14686D01*
X-4168Y-14661D01*
X-4193Y-14635D01*
Y-14940D02*
X-4219Y-14966D01*
X-4193Y-14991D01*
X-4168Y-14966D01*
X-4193Y-14940D01*
X11751Y-16233D02*
Y-16766D01*
X12056D01*
X12521D02*
X12317Y-16233D01*
X12114Y-16766D01*
X12190Y-16588D02*
X12444D01*
X12645Y-16233D02*
X12848Y-16487D01*
Y-16766D01*
X13051Y-16233D02*
X12848Y-16487D01*
X13450Y-16233D02*
X13120D01*
Y-16766D01*
X13450D01*
X13120Y-16487D02*
X13323D01*
X13539Y-16233D02*
Y-16766D01*
Y-16233D02*
X13767D01*
X13843Y-16258D01*
X13869Y-16283D01*
X13894Y-16334D01*
Y-16385D01*
X13869Y-16436D01*
X13843Y-16461D01*
X13767Y-16487D01*
X13539D01*
X13716D02*
X13894Y-16766D01*
X14039Y-16410D02*
X14014Y-16436D01*
X14039Y-16461D01*
X14064Y-16436D01*
X14039Y-16410D01*
Y-16715D02*
X14014Y-16741D01*
X14039Y-16766D01*
X14064Y-16741D01*
X14039Y-16715D01*
X-6319Y-8833D02*
X-6649D01*
Y-9366D01*
X-6319D01*
X-6649Y-9087D02*
X-6446D01*
X-6230Y-8833D02*
Y-9366D01*
Y-8833D02*
X-5874Y-9366D01*
Y-8833D02*
Y-9366D01*
X-5346Y-8960D02*
X-5372Y-8909D01*
X-5422Y-8858D01*
X-5473Y-8833D01*
X-5575D01*
X-5626Y-8858D01*
X-5676Y-8909D01*
X-5702Y-8960D01*
X-5727Y-9036D01*
Y-9163D01*
X-5702Y-9239D01*
X-5676Y-9290D01*
X-5626Y-9341D01*
X-5575Y-9366D01*
X-5473D01*
X-5422Y-9341D01*
X-5372Y-9290D01*
X-5346Y-9239D01*
Y-9163D01*
X-5473D02*
X-5346D01*
X-5224Y-8833D02*
Y-9366D01*
X-5113Y-8833D02*
Y-9366D01*
Y-8833D02*
X-4757Y-9366D01*
Y-8833D02*
Y-9366D01*
X-4280Y-8833D02*
X-4610D01*
Y-9366D01*
X-4280D01*
X-4610Y-9087D02*
X-4407D01*
X-3861Y-8833D02*
X-4191D01*
Y-9366D01*
X-3861D01*
X-4191Y-9087D02*
X-3988D01*
X-3772Y-8833D02*
Y-9366D01*
Y-8833D02*
X-3543D01*
X-3467Y-8858D01*
X-3442Y-8883D01*
X-3416Y-8934D01*
Y-8985D01*
X-3442Y-9036D01*
X-3467Y-9061D01*
X-3543Y-9087D01*
X-3772D01*
X-3594D02*
X-3416Y-9366D01*
X-3272Y-9010D02*
X-3297Y-9036D01*
X-3272Y-9061D01*
X-3246Y-9036D01*
X-3272Y-9010D01*
Y-9315D02*
X-3297Y-9341D01*
X-3272Y-9366D01*
X-3246Y-9341D01*
X-3272Y-9315D01*
X2351Y-13737D02*
X2580D01*
X2656Y-13712D01*
X2681Y-13686D01*
X2707Y-13635D01*
Y-13559D01*
X2681Y-13508D01*
X2656Y-13483D01*
X2580Y-13458D01*
X2351D01*
Y-13991D01*
X3232D02*
X3029Y-13458D01*
X2826Y-13991D01*
X2902Y-13813D02*
X3156D01*
X3357Y-13458D02*
Y-13991D01*
Y-13458D02*
X3585D01*
X3661Y-13483D01*
X3687Y-13508D01*
X3712Y-13559D01*
Y-13610D01*
X3687Y-13661D01*
X3661Y-13686D01*
X3585Y-13712D01*
X3357D01*
X3534D02*
X3712Y-13991D01*
X4009Y-13458D02*
Y-13991D01*
X3832Y-13458D02*
X4187D01*
X4669D02*
Y-13991D01*
Y-13458D02*
X5025Y-13991D01*
Y-13458D02*
Y-13991D01*
X5325Y-13458D02*
X5274Y-13483D01*
X5223Y-13534D01*
X5198Y-13585D01*
X5172Y-13661D01*
Y-13788D01*
X5198Y-13864D01*
X5223Y-13915D01*
X5274Y-13966D01*
X5325Y-13991D01*
X5426D01*
X5477Y-13966D01*
X5528Y-13915D01*
X5553Y-13864D01*
X5578Y-13788D01*
Y-13661D01*
X5553Y-13585D01*
X5528Y-13534D01*
X5477Y-13483D01*
X5426Y-13458D01*
X5325D01*
X5728Y-13940D02*
X5703Y-13966D01*
X5728Y-13991D01*
X5754Y-13966D01*
X5728Y-13940D01*
X5896Y-13635D02*
X5870Y-13661D01*
X5896Y-13686D01*
X5921Y-13661D01*
X5896Y-13635D01*
Y-13940D02*
X5870Y-13966D01*
X5896Y-13991D01*
X5921Y-13966D01*
X5896Y-13940D01*
X2404Y-8708D02*
Y-9241D01*
X2226Y-8708D02*
X2582D01*
X2645D02*
Y-9241D01*
X2935Y-8708D02*
Y-9241D01*
X2757Y-8708D02*
X3112D01*
X3176D02*
Y-9241D01*
X3481D01*
X3869Y-8708D02*
X3539D01*
Y-9241D01*
X3869D01*
X3539Y-8962D02*
X3742D01*
X3983Y-8885D02*
X3958Y-8911D01*
X3983Y-8936D01*
X4009Y-8911D01*
X3983Y-8885D01*
Y-9190D02*
X3958Y-9216D01*
X3983Y-9241D01*
X4009Y-9216D01*
X3983Y-9190D01*
X-6649Y-12633D02*
Y-13166D01*
Y-12633D02*
X-6471D01*
X-6395Y-12658D01*
X-6344Y-12709D01*
X-6319Y-12760D01*
X-6293Y-12836D01*
Y-12963D01*
X-6319Y-13039D01*
X-6344Y-13090D01*
X-6395Y-13141D01*
X-6471Y-13166D01*
X-6649D01*
X-6174Y-12810D02*
Y-13166D01*
Y-12963D02*
X-6149Y-12887D01*
X-6098Y-12836D01*
X-6047Y-12810D01*
X-5971D01*
X-5618D02*
Y-13166D01*
Y-12887D02*
X-5669Y-12836D01*
X-5719Y-12810D01*
X-5796D01*
X-5846Y-12836D01*
X-5897Y-12887D01*
X-5923Y-12963D01*
Y-13014D01*
X-5897Y-13090D01*
X-5846Y-13141D01*
X-5796Y-13166D01*
X-5719D01*
X-5669Y-13141D01*
X-5618Y-13090D01*
X-5476Y-12810D02*
X-5374Y-13166D01*
X-5273Y-12810D02*
X-5374Y-13166D01*
X-5273Y-12810D02*
X-5171Y-13166D01*
X-5069Y-12810D02*
X-5171Y-13166D01*
X-4945Y-12810D02*
Y-13166D01*
Y-12912D02*
X-4869Y-12836D01*
X-4818Y-12810D01*
X-4742D01*
X-4691Y-12836D01*
X-4666Y-12912D01*
Y-13166D01*
X-4107Y-12633D02*
Y-13166D01*
Y-12887D02*
X-4056Y-12836D01*
X-4006Y-12810D01*
X-3929D01*
X-3879Y-12836D01*
X-3828Y-12887D01*
X-3802Y-12963D01*
Y-13014D01*
X-3828Y-13090D01*
X-3879Y-13141D01*
X-3929Y-13166D01*
X-4006D01*
X-4056Y-13141D01*
X-4107Y-13090D01*
X-3663Y-12810D02*
X-3510Y-13166D01*
X-3358Y-12810D02*
X-3510Y-13166D01*
X-3561Y-13267D01*
X-3612Y-13318D01*
X-3663Y-13344D01*
X-3688D01*
X-3244Y-12810D02*
X-3269Y-12836D01*
X-3244Y-12861D01*
X-3218Y-12836D01*
X-3244Y-12810D01*
Y-13115D02*
X-3269Y-13141D01*
X-3244Y-13166D01*
X-3218Y-13141D01*
X-3244Y-13115D01*
X-6649Y-16233D02*
Y-16766D01*
Y-16233D02*
X-6319D01*
X-6649Y-16487D02*
X-6446D01*
X-6258Y-16233D02*
Y-16766D01*
X-6146Y-16233D02*
Y-16766D01*
X-5841D01*
X-5453Y-16233D02*
X-5783D01*
Y-16766D01*
X-5453D01*
X-5783Y-16487D02*
X-5580D01*
X-4945Y-16233D02*
Y-16766D01*
Y-16233D02*
X-4590Y-16766D01*
Y-16233D02*
Y-16766D01*
X-4036D02*
X-4239Y-16233D01*
X-4442Y-16766D01*
X-4366Y-16588D02*
X-4112D01*
X-3912Y-16233D02*
Y-16766D01*
Y-16233D02*
X-3708Y-16766D01*
X-3505Y-16233D02*
X-3708Y-16766D01*
X-3505Y-16233D02*
Y-16766D01*
X-3023Y-16233D02*
X-3353D01*
Y-16766D01*
X-3023D01*
X-3353Y-16487D02*
X-3150D01*
X-2909Y-16410D02*
X-2934Y-16436D01*
X-2909Y-16461D01*
X-2883Y-16436D01*
X-2909Y-16410D01*
Y-16715D02*
X-2934Y-16741D01*
X-2909Y-16766D01*
X-2883Y-16741D01*
X-2909Y-16715D01*
X30332Y-16360D02*
X30307Y-16309D01*
X30256Y-16258D01*
X30205Y-16233D01*
X30104D01*
X30053Y-16258D01*
X30002Y-16309D01*
X29977Y-16360D01*
X29951Y-16436D01*
Y-16563D01*
X29977Y-16639D01*
X30002Y-16690D01*
X30053Y-16741D01*
X30104Y-16766D01*
X30205D01*
X30256Y-16741D01*
X30307Y-16690D01*
X30332Y-16639D01*
Y-16563D01*
X30205D02*
X30332D01*
X30784Y-16233D02*
X30454D01*
Y-16766D01*
X30784D01*
X30454Y-16487D02*
X30657D01*
X30873Y-16233D02*
Y-16766D01*
Y-16233D02*
X31101D01*
X31178Y-16258D01*
X31203Y-16283D01*
X31228Y-16334D01*
Y-16385D01*
X31203Y-16436D01*
X31178Y-16461D01*
X31101Y-16487D01*
X30873D01*
X31051D02*
X31228Y-16766D01*
X31348Y-16233D02*
Y-16766D01*
Y-16233D02*
X31576D01*
X31652Y-16258D01*
X31678Y-16283D01*
X31703Y-16334D01*
Y-16385D01*
X31678Y-16436D01*
X31652Y-16461D01*
X31576Y-16487D01*
X31348D02*
X31576D01*
X31652Y-16512D01*
X31678Y-16537D01*
X31703Y-16588D01*
Y-16664D01*
X31678Y-16715D01*
X31652Y-16741D01*
X31576Y-16766D01*
X31348D01*
X32153Y-16233D02*
X31823D01*
Y-16766D01*
X32153D01*
X31823Y-16487D02*
X32026D01*
X32241Y-16233D02*
Y-16766D01*
Y-16233D02*
X32470D01*
X32546Y-16258D01*
X32572Y-16283D01*
X32597Y-16334D01*
Y-16385D01*
X32572Y-16436D01*
X32546Y-16461D01*
X32470Y-16487D01*
X32241D01*
X32419D02*
X32597Y-16766D01*
X32742Y-16410D02*
X32716Y-16436D01*
X32742Y-16461D01*
X32767Y-16436D01*
X32742Y-16410D01*
Y-16715D02*
X32716Y-16741D01*
X32742Y-16766D01*
X32767Y-16741D01*
X32742Y-16715D01*
D64*
X-1484Y-349D02*
Y13751D01*
Y-349D02*
X-834D01*
Y-749D02*
Y-349D01*
Y-749D02*
X19466D01*
Y-549D01*
X20516D01*
Y-749D02*
Y-549D01*
Y-749D02*
X28416D01*
Y14151D01*
X20516D02*
X28416D01*
X20516Y13951D02*
Y14151D01*
X19466Y13951D02*
X20516D01*
X19466D02*
Y14151D01*
X-834D02*
X19466D01*
X-834Y13751D02*
Y14151D01*
X-1484Y13751D02*
X-834D01*
D65*
X3350Y13550D02*
D03*
D66*
X2350D02*
D03*
X1350D02*
D03*
X26035Y417D02*
D03*
X26035Y8417D02*
D03*
Y6417D02*
D03*
Y4417D02*
D03*
Y5417D02*
D03*
Y3417D02*
D03*
X26035Y1417D02*
D03*
X26035Y7417D02*
D03*
Y9417D02*
D03*
X26035Y2417D02*
D03*
D67*
X12250Y5220D02*
D03*
X11600Y7260D02*
D03*
X4999Y338D02*
D03*
X22550Y4290D02*
D03*
X2660Y620D02*
D03*
X9430Y13170D02*
D03*
X11110Y240D02*
D03*
X9670Y420D02*
D03*
X27300Y6710D02*
D03*
X27480Y8250D02*
D03*
X12470Y3650D02*
D03*
X6840Y10170D02*
D03*
X4980Y12000D02*
D03*
X14910Y12580D02*
D03*
X11800Y9240D02*
D03*
X16550Y4910D02*
D03*
X12430Y12210D02*
D03*
X13660D02*
D03*
X11500Y7960D02*
D03*
X17088Y6643D02*
D03*
X15810Y11380D02*
D03*
X12670Y11750D02*
D03*
X12050Y11230D02*
D03*
X14500Y10830D02*
D03*
X11980Y3650D02*
D03*
X14050Y4390D02*
D03*
X17020Y3180D02*
D03*
X13900Y4150D02*
D03*
X11190Y7810D02*
D03*
X14730Y7870D02*
D03*
X19410Y5490D02*
D03*
X17360Y3310D02*
D03*
X18300Y4630D02*
D03*
X17330Y4110D02*
D03*
X17460Y9780D02*
D03*
X9000Y1310D02*
D03*
X2800Y3970D02*
D03*
X3114Y3974D02*
D03*
X1726Y410D02*
D03*
X1480Y780D02*
D03*
X4920Y5770D02*
D03*
X4244Y8556D02*
D03*
X5590Y1310D02*
D03*
X4149Y297D02*
D03*
X-500Y4920D02*
D03*
X-515Y4226D02*
D03*
X6200Y9030D02*
D03*
X7413Y88D02*
D03*
X-15Y6876D02*
D03*
X11559Y11877D02*
D03*
X25288Y6406D02*
D03*
Y7526D02*
D03*
X7200Y3020D02*
D03*
X18670Y3210D02*
D03*
X16090Y1210D02*
D03*
X7190Y13150D02*
D03*
X5000Y13240D02*
D03*
X1237Y6456D02*
D03*
X1837Y6146D02*
D03*
X18920Y13150D02*
D03*
X24420Y12580D02*
D03*
X23139Y12347D02*
D03*
X3480Y2960D02*
D03*
X5080Y3270D02*
D03*
X5585Y1686D02*
D03*
X1815Y8556D02*
D03*
X3060Y7056D02*
D03*
X3267Y11806D02*
D03*
X1327Y5196D02*
D03*
X1839Y7086D02*
D03*
X2507Y10808D02*
D03*
X2404Y7373D02*
D03*
X919Y7168D02*
D03*
X3380Y7256D02*
D03*
X1900Y2920D02*
D03*
X1294Y4139D02*
D03*
X2537Y5976D02*
D03*
X3196Y2399D02*
D03*
X3017Y9806D02*
D03*
X1467D02*
D03*
X3800Y7796D02*
D03*
X1382Y9407D02*
D03*
X3508Y9799D02*
D03*
X3670Y7346D02*
D03*
X3429Y3659D02*
D03*
X3010Y1620D02*
D03*
X3510Y11300D02*
D03*
X3817Y6004D02*
D03*
X3030Y1310D02*
D03*
X3980Y2900D02*
D03*
X3823Y5706D02*
D03*
X2090Y7736D02*
D03*
X4453Y4682D02*
D03*
X3357Y2726D02*
D03*
X3710Y10770D02*
D03*
X4531Y7520D02*
D03*
X4610Y3265D02*
D03*
X4110Y10500D02*
D03*
X4960Y6820D02*
D03*
X4850Y3580D02*
D03*
X4160Y8086D02*
D03*
X5004Y9801D02*
D03*
X5460Y8310D02*
D03*
X3747Y11624D02*
D03*
X3429Y4919D02*
D03*
X2797Y4916D02*
D03*
Y4606D02*
D03*
X3417Y3356D02*
D03*
X3744Y3974D02*
D03*
X5476Y6178D02*
D03*
X894Y9808D02*
D03*
X5380Y11450D02*
D03*
X23955Y8446D02*
D03*
X19030Y9646D02*
D03*
X24010Y9190D02*
D03*
X18975Y8998D02*
D03*
X23570Y7360D02*
D03*
X24010Y9500D02*
D03*
X19340Y10140D02*
D03*
X20350Y10350D02*
D03*
X24080Y10600D02*
D03*
X22870Y7230D02*
D03*
X19400D02*
D03*
X21050Y8460D02*
D03*
X18670Y8080D02*
D03*
X11415Y13615D02*
D03*
X19630Y13280D02*
D03*
X22550Y4630D02*
D03*
Y4920D02*
D03*
X21420Y3070D02*
D03*
X26875Y2028D02*
D03*
X28016Y328D02*
D03*
X18341Y6457D02*
D03*
X8130Y4590D02*
D03*
X9939Y8007D02*
D03*
X17929Y5927D02*
D03*
X18339Y3357D02*
D03*
X18919Y12467D02*
D03*
Y12067D02*
D03*
X18919Y12817D02*
D03*
X20849Y12167D02*
D03*
X15139Y6367D02*
D03*
X15519Y8047D02*
D03*
X17719Y10397D02*
D03*
X18059Y8097D02*
D03*
X12619Y6037D02*
D03*
X13179Y5047D02*
D03*
X18299Y4917D02*
D03*
X16129Y4907D02*
D03*
X16640Y4110D02*
D03*
X15839Y3497D02*
D03*
X16060Y2930D02*
D03*
X16070Y90D02*
D03*
X15310Y1880D02*
D03*
X13059Y2862D02*
D03*
Y1662D02*
D03*
X25200Y1450D02*
D03*
Y1790D02*
D03*
X21300Y110D02*
D03*
X15101Y12959D02*
D03*
X7850Y2990D02*
D03*
X8149Y8577D02*
D03*
X6820Y7300D02*
D03*
X8779Y8337D02*
D03*
X10900Y7960D02*
D03*
X9949Y6087D02*
D03*
X12000Y6250D02*
D03*
X11402Y5694D02*
D03*
X11649Y4500D02*
D03*
X9800Y3370D02*
D03*
X14349Y4397D02*
D03*
X2940Y2670D02*
D03*
X22852Y4137D02*
D03*
X23370Y5650D02*
D03*
X20900Y10380D02*
D03*
X21690Y9100D02*
D03*
X23526Y8067D02*
D03*
X24090Y3480D02*
D03*
X12850Y9340D02*
D03*
X10440Y9500D02*
D03*
X9049Y5487D02*
D03*
X8049D02*
D03*
X6760Y5600D02*
D03*
X5930Y5920D02*
D03*
X4683Y10017D02*
D03*
X7350Y11454D02*
D03*
X21201Y5702D02*
D03*
X25379Y10950D02*
D03*
X24630Y11150D02*
D03*
X8887Y2333D02*
D03*
X5326Y12951D02*
D03*
X5880Y5510D02*
D03*
X5327Y5665D02*
D03*
X14220Y10590D02*
D03*
X8859Y3564D02*
D03*
X8257Y3278D02*
D03*
X24010Y4440D02*
D03*
X4649Y6081D02*
D03*
X6334Y1996D02*
D03*
X6333Y1297D02*
D03*
Y1636D02*
D03*
X695Y1586D02*
D03*
X705Y1286D02*
D03*
X4060Y4291D02*
D03*
X4960Y2960D02*
D03*
X5510Y880D02*
D03*
X4666Y12720D02*
D03*
X6830Y2360D02*
D03*
X2840Y332D02*
D03*
X3140Y30D02*
D03*
X585Y2976D02*
D03*
X1010Y2701D02*
D03*
X335Y2476D02*
D03*
X-352Y1201D02*
D03*
X596Y2299D02*
D03*
X1296Y3099D02*
D03*
X1499Y149D02*
D03*
X14109Y1787D02*
D03*
X4450Y2950D02*
D03*
X13490Y70D02*
D03*
X27370Y4900D02*
D03*
X9653Y1266D02*
D03*
X11703Y2166D02*
D03*
X17420Y13310D02*
D03*
X26900Y10510D02*
D03*
X22370Y9190D02*
D03*
X23670D02*
D03*
X23589Y6570D02*
D03*
X25200Y750D02*
D03*
X12180Y70D02*
D03*
X13089Y1267D02*
D03*
X11500Y1220D02*
D03*
X26510Y6080D02*
D03*
X17030Y13430D02*
D03*
X21486Y11596D02*
D03*
X21490Y10950D02*
D03*
X22866Y11746D02*
D03*
X14530Y12580D02*
D03*
X16320Y11380D02*
D03*
X16070Y11160D02*
D03*
X20368Y10646D02*
D03*
X15040Y10830D02*
D03*
X15300Y8360D02*
D03*
X12590Y7880D02*
D03*
X13290Y3200D02*
D03*
X15310D02*
D03*
X20750Y8760D02*
D03*
X17740Y1170D02*
D03*
X16840Y1660D02*
D03*
X21940Y8370D02*
D03*
X17270Y8100D02*
D03*
X17270Y7840D02*
D03*
X17270Y7570D02*
D03*
X26960Y460D02*
D03*
X16510Y810D02*
D03*
X27400Y10240D02*
D03*
X27820Y11170D02*
D03*
X27420D02*
D03*
X25490Y4846D02*
D03*
X24310Y-100D02*
D03*
X15590Y1210D02*
D03*
X21070Y1530D02*
D03*
X21420Y1500D02*
D03*
Y2790D02*
D03*
X20880Y130D02*
D03*
D68*
X25900Y11910D02*
D03*
X10780Y3260D02*
D03*
X10450Y5780D02*
D03*
X10140Y12330D02*
D03*
X8860Y9760D02*
D03*
X9450Y8010D02*
D03*
X15920Y7410D02*
D03*
X15610Y4900D02*
D03*
X17630Y6080D02*
D03*
X14520Y7550D02*
D03*
X4250Y2300D02*
D03*
X310Y701D02*
D03*
X-30D02*
D03*
X-370D02*
D03*
X21370Y3890D02*
D03*
X20570Y4290D02*
D03*
X19470Y5000D02*
D03*
Y4080D02*
D03*
X20600Y4960D02*
D03*
X1839Y6661D02*
D03*
X5040Y5450D02*
D03*
X2850Y2940D02*
D03*
X387Y6772D02*
D03*
X987Y5616D02*
D03*
X2642Y6730D02*
D03*
X23820Y5740D02*
D03*
X25289Y6947D02*
D03*
X24964Y12472D02*
D03*
X25289Y10547D02*
D03*
X20910Y9260D02*
D03*
X22200Y11890D02*
D03*
X20820Y11260D02*
D03*
X15010Y1200D02*
D03*
X20573Y3642D02*
D03*
X20573Y3266D02*
D03*
X21050Y7460D02*
D03*
X22455Y5726D02*
D03*
X21500Y12210D02*
D03*
X7830Y7180D02*
D03*
X25270Y4000D02*
D03*
X20573Y4006D02*
D03*
X14270Y13290D02*
D03*
X16470Y12800D02*
D03*
X15809Y9531D02*
D03*
X27850Y2600D02*
D03*
D69*
X394Y3808D02*
D03*
X2527Y12390D02*
D03*
X894Y8308D02*
D03*
X394Y7808D02*
D03*
Y8308D02*
D03*
Y9808D02*
D03*
Y10308D02*
D03*
Y10808D02*
D03*
Y11308D02*
D03*
Y12308D02*
D03*
Y12808D02*
D03*
X394Y4308D02*
D03*
X394Y11808D02*
D03*
D70*
Y13308D02*
D03*
M02*
