%FSLAX24Y24*%
%MOIN*%
G70*
G01*
G75*
G04 Layer_Color=16777215*
%ADD10C,0.0120*%
%ADD11R,0.0394X0.0197*%
%ADD12R,0.0300X0.0300*%
%ADD13C,0.0400*%
%ADD14R,0.0200X0.0500*%
%ADD15R,0.0591X0.0315*%
%ADD16R,0.0300X0.0300*%
%ADD17R,0.0551X0.0354*%
%ADD18R,0.0354X0.0551*%
%ADD19R,0.0250X0.0550*%
%ADD20R,0.0250X0.0520*%
%ADD21R,0.0250X0.0950*%
%ADD22R,0.0550X0.0250*%
%ADD23R,0.0950X0.0250*%
%ADD24R,0.0600X0.0270*%
%ADD25R,0.0236X0.1100*%
%ADD26R,0.1000X0.0236*%
%ADD27R,0.0700X0.0500*%
%ADD28O,0.0160X0.0600*%
%ADD29R,0.0236X0.0236*%
%ADD30O,0.0160X0.0600*%
%ADD31R,0.0394X0.0394*%
%ADD32R,0.0200X0.0300*%
%ADD33O,0.0240X0.0800*%
%ADD34R,0.0472X0.0472*%
%ADD35R,0.0600X0.0500*%
%ADD36R,0.0360X0.0500*%
%ADD37R,0.0360X0.0360*%
%ADD38R,0.1500X0.0500*%
%ADD39R,0.0394X0.0413*%
%ADD40R,0.0413X0.0866*%
%ADD41R,0.0394X0.0413*%
%ADD42O,0.0600X0.0160*%
%ADD43R,0.0500X0.0200*%
%ADD44R,0.0360X0.0360*%
%ADD45R,0.0500X0.0360*%
%ADD46R,0.0315X0.0591*%
%ADD47R,0.0700X0.0236*%
%ADD48C,0.0120*%
%ADD49C,0.0500*%
%ADD50C,0.0140*%
%ADD51C,0.0100*%
%ADD52C,0.0150*%
%ADD53C,0.0200*%
%ADD54C,0.0080*%
%ADD55C,0.0250*%
%ADD56C,0.0300*%
%ADD57C,0.0090*%
%ADD58C,0.0050*%
%ADD59R,0.0620X0.0620*%
%ADD60C,0.0620*%
%ADD61R,0.0620X0.0620*%
%ADD62C,0.0200*%
%ADD63C,0.0180*%
%ADD64C,0.0400*%
G04:AMPARAMS|DCode=65|XSize=67mil|YSize=67mil|CornerRadius=0mil|HoleSize=0mil|Usage=FLASHONLY|Rotation=0.000|XOffset=0mil|YOffset=0mil|HoleType=Round|Shape=Relief|Width=8mil|Gap=8mil|Entries=4|*
%AMTHD65*
7,0,0,0.0670,0.0510,0.0080,45*
%
%ADD65THD65*%
%ADD66C,0.0750*%
%ADD67C,0.0500*%
G04:AMPARAMS|DCode=68|XSize=42mil|YSize=42mil|CornerRadius=0mil|HoleSize=0mil|Usage=FLASHONLY|Rotation=0.000|XOffset=0mil|YOffset=0mil|HoleType=Round|Shape=Relief|Width=8mil|Gap=8mil|Entries=4|*
%AMTHD68*
7,0,0,0.0420,0.0260,0.0080,45*
%
%ADD68THD68*%
%ADD69C,0.0600*%
G04:AMPARAMS|DCode=70|XSize=52mil|YSize=52mil|CornerRadius=0mil|HoleSize=0mil|Usage=FLASHONLY|Rotation=0.000|XOffset=0mil|YOffset=0mil|HoleType=Round|Shape=Relief|Width=8mil|Gap=8mil|Entries=4|*
%AMTHD70*
7,0,0,0.0520,0.0360,0.0080,45*
%
%ADD70THD70*%
%ADD71R,0.0748X0.0591*%
%ADD72O,0.0140X0.0600*%
%ADD73R,0.0800X0.0600*%
%ADD74O,0.0157X0.0472*%
%ADD75R,0.2500X0.1400*%
%ADD76R,0.2500X0.1500*%
%ADD77R,0.0400X0.0400*%
%ADD78R,0.0800X0.2700*%
%ADD79R,0.0800X0.1600*%
%ADD80C,0.0157*%
%ADD81C,0.0220*%
%ADD82C,0.0060*%
D48*
X4900Y10800D02*
Y12400D01*
X7650Y10800D02*
Y14000D01*
X4900Y12400D02*
Y14000D01*
X18623Y3330D02*
Y4117D01*
X16575Y3330D02*
X18623D01*
X16575D02*
Y4117D01*
X18623D02*
Y4905D01*
X16575D02*
X18623D01*
X16575Y4117D02*
Y4905D01*
X22856Y5637D02*
Y6537D01*
X24755Y5637D02*
Y6537D01*
X22856Y5637D02*
X23605D01*
X22856Y6537D02*
X23605D01*
X24005D02*
X24755D01*
X24005Y5637D02*
X24755D01*
X4900Y10800D02*
X7650D01*
X4900Y14000D02*
X7650D01*
X8249Y10667D02*
Y11567D01*
X10149Y10667D02*
Y11567D01*
X8249Y10667D02*
X8999D01*
X8249Y11567D02*
X8999D01*
X9399D02*
X10149D01*
X9399Y10667D02*
X10149D01*
X14889Y6407D02*
X15639D01*
X14889Y7307D02*
X15639D01*
X13739D02*
X14489D01*
X13739Y6407D02*
X14489D01*
X15639D02*
Y7307D01*
X13739Y6407D02*
Y7307D01*
D51*
X5550Y11150D02*
G03*
X5550Y11150I-200J0D01*
G01*
X6317Y8684D02*
G03*
X5623Y9087I-695J-397D01*
G01*
Y7487D02*
G03*
X6317Y7890I0J800D01*
G01*
X4928D02*
G03*
X5623Y7487I695J397D01*
G01*
Y9087D02*
G03*
X4928Y8684I0J-800D01*
G01*
X9115Y5772D02*
G03*
X9115Y4904I0J-434D01*
G01*
X25153Y1736D02*
G03*
X25153Y988I0J-374D01*
G01*
X23609Y1812D02*
G03*
X23609Y1271I0J-270D01*
G01*
X14958Y1823D02*
G03*
X14210Y1823I-374J0D01*
G01*
X15438Y7713D02*
G03*
X14690Y7713I-374J0D01*
G01*
X18679Y5057D02*
X19029D01*
Y6857D01*
X17579D02*
X19029D01*
X17579Y5057D02*
Y6857D01*
Y5057D02*
X18679D01*
X16729Y5517D02*
X17079D01*
Y7317D01*
X15629D02*
X17079D01*
X15629Y5517D02*
Y7317D01*
Y5517D02*
X16729D01*
X7945Y1486D02*
Y2963D01*
Y1486D02*
X8870D01*
Y3179D02*
X9795D01*
Y1703D02*
Y3179D01*
Y1486D02*
Y1703D01*
X8870Y1486D02*
X9795D01*
X8161Y3179D02*
X8870D01*
X7945Y2963D02*
X8161Y3179D01*
X11219Y7927D02*
X11519D01*
Y9127D01*
X10919D02*
X11519D01*
X10919Y7927D02*
Y9127D01*
Y7927D02*
X11219D01*
X3217Y400D02*
Y774D01*
Y1109D01*
X3650D01*
X4083Y-309D02*
Y26D01*
X3650Y-309D02*
X4083D01*
X3217D02*
X3650D01*
X3217D02*
Y400D01*
X4083Y26D02*
Y1109D01*
X3650D02*
X4083D01*
Y-506D02*
Y-309D01*
X3552Y-506D02*
X4083D01*
X3217D02*
X3552D01*
X3217D02*
Y-309D01*
X8550Y13533D02*
X8924D01*
X9259D01*
Y13100D02*
Y13533D01*
X7841Y12667D02*
X8176D01*
X7841D02*
Y13100D01*
Y13533D01*
X8550D01*
X8176Y12667D02*
X9259D01*
Y13100D01*
X7644Y12667D02*
X7841D01*
X7644D02*
Y13198D01*
Y13533D01*
X7841D01*
X12717Y11444D02*
Y11641D01*
Y11444D02*
X13052D01*
X13583D01*
Y11641D01*
X13150Y13059D02*
X13583D01*
Y11976D02*
Y13059D01*
X12717Y11641D02*
Y12350D01*
Y11641D02*
X13150D01*
X13583D01*
Y11976D01*
X12717Y13059D02*
X13150D01*
X12717Y12724D02*
Y13059D01*
Y12350D02*
Y12724D01*
X10732Y4413D02*
Y4787D01*
Y4079D02*
Y4413D01*
X10299Y4079D02*
X10732D01*
X9866Y5161D02*
Y5496D01*
X10299D01*
X10732D01*
Y4787D02*
Y5496D01*
X9866Y4079D02*
Y5161D01*
Y4079D02*
X10299D01*
X9866Y5496D02*
Y5693D01*
X10397D01*
X10732D01*
Y5496D02*
Y5693D01*
X13476Y5117D02*
X13850D01*
X13141D02*
X13476D01*
X13141D02*
Y5550D01*
X14224Y5983D02*
X14559D01*
Y5550D02*
Y5983D01*
Y5117D02*
Y5550D01*
X13850Y5117D02*
X14559D01*
X13141Y5983D02*
X14224D01*
X13141Y5550D02*
Y5983D01*
X14559D02*
X14756D01*
Y5452D02*
Y5983D01*
Y5117D02*
Y5452D01*
X14559Y5117D02*
X14756D01*
X13119Y1212D02*
Y2362D01*
X12719Y1212D02*
X13119D01*
X11319Y2362D02*
Y3512D01*
X11719D01*
X11319Y1212D02*
X12719D01*
X11319D02*
Y2362D01*
X13119D02*
Y3262D01*
X12869Y3512D02*
X13119Y3262D01*
X11719Y3512D02*
X12869D01*
X950Y4700D02*
Y5000D01*
X2150D01*
Y4400D02*
Y5000D01*
X950Y4400D02*
X2150D01*
X950D02*
Y4700D01*
X4299Y1387D02*
Y2537D01*
X4049Y1137D02*
X4299Y1387D01*
X3149Y1137D02*
X4049D01*
X1999Y2937D02*
X3149D01*
X1999Y1537D02*
Y2937D01*
X4299Y2537D02*
Y2937D01*
X3149D02*
X4299D01*
X1999Y1137D02*
Y1537D01*
Y1137D02*
X3149D01*
X8825Y12364D02*
Y12664D01*
X10025D01*
Y12064D02*
Y12664D01*
X8825Y12064D02*
X10025D01*
X8825D02*
Y12364D01*
X-3234Y13951D02*
X-1834D01*
X-3234Y13451D02*
Y13951D01*
X-4334Y13451D02*
X-3234D01*
X-4334Y12901D02*
Y13451D01*
X-1834Y13951D02*
X-1684D01*
Y13051D02*
Y13951D01*
Y13051D02*
X-584D01*
Y12751D02*
Y13051D01*
X-4334Y-49D02*
X-3234D01*
X-4334D02*
Y501D01*
X-1684Y-549D02*
Y351D01*
X-584D01*
Y651D01*
X-3234Y-549D02*
Y-49D01*
Y-549D02*
X-1684D01*
X-4334Y501D02*
Y12901D01*
X-584Y651D02*
Y12751D01*
X6317Y8684D02*
X6873D01*
Y8287D02*
Y8684D01*
X6317Y7890D02*
X6873D01*
Y8287D01*
X4373Y7890D02*
X4928D01*
X4373D02*
Y8287D01*
Y8684D02*
X4928D01*
X4373Y8287D02*
Y8684D01*
X23529Y11197D02*
Y12347D01*
X23779Y12597D01*
X24679D01*
Y10797D02*
X25829D01*
Y12197D01*
X23529Y10797D02*
Y11197D01*
Y10797D02*
X24679D01*
X25829Y12197D02*
Y12597D01*
X24679D02*
X25829D01*
X9689Y1524D02*
X9892Y1727D01*
X11139D01*
X9689Y-73D02*
Y1524D01*
Y-73D02*
X11139D01*
Y1727D01*
X10039D02*
X11139D01*
X9115Y3586D02*
Y4904D01*
X8465Y3586D02*
X9115D01*
X6300Y5338D02*
Y7090D01*
X6949D01*
X6300Y3586D02*
X8465D01*
X6300D02*
Y5338D01*
X6949Y7090D02*
X9115D01*
Y5772D02*
Y7090D01*
X6873Y8261D02*
Y9147D01*
Y9167D01*
X7700Y8970D02*
Y9167D01*
Y8970D02*
X7896D01*
X7700Y8261D02*
Y8458D01*
X7896D01*
X6873Y9167D02*
X7700D01*
X6873Y8261D02*
X7700D01*
X7896Y8458D02*
Y8970D01*
X23716Y-16D02*
Y811D01*
Y-16D02*
X24071D01*
X24799Y2740D02*
X25153D01*
X23716Y811D02*
Y2740D01*
X24799D01*
X24071Y-16D02*
X25153D01*
Y988D01*
Y1736D02*
Y2740D01*
X11131Y6697D02*
Y7209D01*
X11899D01*
X11131Y6185D02*
Y6697D01*
Y6185D02*
X11899D01*
X12666Y6697D02*
Y7209D01*
X11899D02*
X12666D01*
Y6185D02*
Y6697D01*
X11899Y6185D02*
X12666D01*
X11009Y3847D02*
X11119D01*
X11009D02*
Y4487D01*
X11119D01*
X11289Y3847D02*
X12179D01*
Y4307D01*
X11119Y4487D02*
X12009D01*
X11119Y4027D02*
Y4487D01*
Y3847D02*
Y4027D01*
Y3847D02*
X11289D01*
X12179Y4307D02*
Y4487D01*
X12009D02*
X12179D01*
X21309Y-183D02*
X23609D01*
X21309D02*
Y3217D01*
X23609D01*
Y-183D02*
Y1271D01*
Y1812D02*
Y3217D01*
X24106Y8077D02*
X24576D01*
Y7777D02*
Y8077D01*
Y7777D02*
X25025D01*
Y6527D02*
Y7777D01*
X23475Y6527D02*
X25025D01*
X23475D02*
Y7777D01*
X23925D01*
Y8077D01*
X24106D01*
X8250Y10650D02*
X9750D01*
X8250Y9750D02*
Y10650D01*
X8550Y8850D02*
X10050D01*
Y9750D01*
X9750Y10650D02*
X10050D01*
Y9750D02*
Y10650D01*
X8250Y8850D02*
X8550D01*
X8250D02*
Y9750D01*
X14359Y11597D02*
X15459D01*
X14359D02*
Y13397D01*
X15809D01*
Y11597D02*
Y13397D01*
X15459Y11597D02*
X15809D01*
X28175Y11429D02*
Y12571D01*
X27585D02*
X28175D01*
X27585D02*
Y12984D01*
X27250D02*
X27585D01*
X27250Y11429D02*
X28175D01*
X26325D02*
Y12571D01*
X26915D01*
Y12984D01*
X27250D01*
X26325Y11429D02*
X27250D01*
X10469Y11659D02*
X10939D01*
X10469D02*
Y11959D01*
X10019D02*
X10469D01*
X10019D02*
Y13209D01*
X11569D01*
Y11959D02*
Y13209D01*
X11119Y11959D02*
X11569D01*
X11119Y11659D02*
Y11959D01*
X10939Y11659D02*
X11119D01*
X26520Y608D02*
Y1749D01*
Y608D02*
X27111D01*
Y194D02*
Y608D01*
Y194D02*
X27445D01*
X26520Y1749D02*
X27445D01*
X28371Y608D02*
Y1749D01*
X27780Y608D02*
X28371D01*
X27780Y194D02*
Y608D01*
X27445Y194D02*
X27780D01*
X27445Y1749D02*
X28371D01*
X8399Y737D02*
Y1037D01*
Y737D02*
X9599D01*
Y1337D01*
X8399D02*
X9599D01*
X8399Y1037D02*
Y1337D01*
X6886Y10220D02*
Y10520D01*
X5686Y10220D02*
X6886D01*
X5686D02*
Y10820D01*
X6886D01*
Y10520D02*
Y10820D01*
X11689Y1007D02*
Y1307D01*
X12889D01*
Y707D02*
Y1307D01*
X11689Y707D02*
X12889D01*
X11689D02*
Y1007D01*
X24615Y10577D02*
X25085D01*
Y10277D02*
Y10577D01*
Y10277D02*
X25536D01*
Y9027D02*
Y10277D01*
X23986Y9027D02*
X25536D01*
X23986D02*
Y10277D01*
X24436D01*
Y10577D01*
X24615D01*
X5849Y6269D02*
X6149D01*
Y7469D01*
X5549D02*
X6149D01*
X5549Y6269D02*
Y7469D01*
Y6269D02*
X5849D01*
X17159Y9489D02*
Y9789D01*
X15959Y9489D02*
X17159D01*
X15959D02*
Y10089D01*
X17159D01*
Y9789D02*
Y10089D01*
X15929Y12197D02*
X16229D01*
X15929D02*
Y13397D01*
X16529D01*
Y12197D02*
Y13397D01*
X16229Y12197D02*
X16529D01*
X15042Y10867D02*
Y11167D01*
X13842Y10867D02*
X15042D01*
X13842D02*
Y11467D01*
X15042D01*
Y11167D02*
Y11467D01*
X13939Y12797D02*
X14239D01*
Y11597D02*
Y12797D01*
X13639Y11597D02*
X14239D01*
X13639D02*
Y12797D01*
X13939D01*
X24859Y4037D02*
X25159D01*
Y2837D02*
Y4037D01*
X24559Y2837D02*
X25159D01*
X24559D02*
Y4037D01*
X24859D01*
X9119Y7387D02*
X9419D01*
X9119Y6187D02*
Y7387D01*
Y6187D02*
X9719D01*
Y7387D01*
X9419D02*
X9719D01*
X9169Y4897D02*
X9469D01*
X9169Y3697D02*
Y4897D01*
Y3697D02*
X9769D01*
Y4897D01*
X9469D02*
X9769D01*
X7198Y3587D02*
X7498D01*
X7198Y2387D02*
Y3587D01*
Y2387D02*
X7798D01*
Y3587D01*
X7498D02*
X7798D01*
X15539Y4747D02*
X15839D01*
X15539Y3547D02*
Y4747D01*
Y3547D02*
X16139D01*
Y4747D01*
X15839D02*
X16139D01*
X10799Y5057D02*
X11099D01*
X10799Y3857D02*
Y5057D01*
Y3857D02*
X11399D01*
Y5057D01*
X11099D02*
X11399D01*
X6598Y3587D02*
X6898D01*
X6598Y2387D02*
Y3587D01*
Y2387D02*
X7198D01*
Y3587D01*
X6898D02*
X7198D01*
X5998D02*
X6298D01*
X5998Y2387D02*
Y3587D01*
Y2387D02*
X6598D01*
Y3587D01*
X6298D02*
X6598D01*
X10025Y11854D02*
Y12154D01*
X8825D02*
X10025D01*
X8825Y11554D02*
Y12154D01*
Y11554D02*
X10025D01*
Y11854D01*
X4666Y11401D02*
X4966D01*
Y12601D01*
X4366D02*
X4966D01*
X4366Y11401D02*
Y12601D01*
Y11401D02*
X4666D01*
X24755Y6237D02*
X25055D01*
X24755Y5037D02*
Y6237D01*
Y5037D02*
X25356D01*
Y6237D01*
X25055D02*
X25356D01*
X1492Y3187D02*
Y3487D01*
Y3187D02*
X2692D01*
Y3787D01*
X1492D02*
X2692D01*
X1492Y3487D02*
Y3787D01*
X11359Y5737D02*
X11659D01*
X11359Y4537D02*
Y5737D01*
Y4537D02*
X11959D01*
Y5737D01*
X11659D02*
X11959D01*
X12339Y7927D02*
X12639D01*
Y9127D01*
X12039D02*
X12639D01*
X12039Y7927D02*
Y9127D01*
Y7927D02*
X12339D01*
X7799Y7757D02*
Y8057D01*
X6599D02*
X7799D01*
X6599Y7457D02*
Y8057D01*
Y7457D02*
X7799D01*
Y7757D01*
X6503Y9607D02*
Y9907D01*
X5303Y9607D02*
X6503D01*
X5303D02*
Y10207D01*
X6503D01*
Y9907D02*
Y10207D01*
X14090Y832D02*
Y1132D01*
X12890D02*
X14090D01*
X12890Y532D02*
Y1132D01*
Y532D02*
X14090D01*
Y832D01*
X10839Y9137D02*
X11139D01*
Y10337D01*
X10539D02*
X11139D01*
X10539Y9137D02*
Y10337D01*
Y9137D02*
X10839D01*
X16339Y4747D02*
X16639D01*
Y3547D02*
Y4747D01*
X16039Y3547D02*
X16639D01*
X16039D02*
Y4747D01*
X16339D01*
X12839Y10807D02*
X13139D01*
X12839Y9607D02*
Y10807D01*
Y9607D02*
X13439D01*
Y10807D01*
X13139D02*
X13439D01*
X22856Y5037D02*
Y5337D01*
Y5037D02*
X24056D01*
Y5637D01*
X22856D02*
X24056D01*
X22856Y5337D02*
Y5637D01*
X22445Y8967D02*
Y9267D01*
Y8967D02*
X23646D01*
Y9567D01*
X22445D02*
X23646D01*
X22445Y9267D02*
Y9567D01*
X21795Y10987D02*
X22095D01*
Y12187D01*
X21495D02*
X22095D01*
X21495Y10987D02*
Y12187D01*
Y10987D02*
X21795D01*
X21676Y9647D02*
X21976D01*
X21676Y8447D02*
Y9647D01*
Y8447D02*
X22276D01*
Y9647D01*
X21976D02*
X22276D01*
X23439Y11107D02*
Y11407D01*
X22239Y11107D02*
X23439D01*
X22239D02*
Y11707D01*
X23439D01*
Y11407D02*
Y11707D01*
X21825Y5387D02*
Y5687D01*
X20626D02*
X21825D01*
X20626Y5087D02*
Y5687D01*
Y5087D02*
X21825D01*
Y5387D01*
X21186Y11587D02*
X21486D01*
Y12787D01*
X20886D02*
X21486D01*
X20886Y11587D02*
Y12787D01*
Y11587D02*
X21186D01*
X4322Y2937D02*
X4622D01*
X4322Y1737D02*
Y2937D01*
Y1737D02*
X4922D01*
Y2937D01*
X4622D02*
X4922D01*
X15290Y832D02*
Y1132D01*
X14090D02*
X15290D01*
X14090Y532D02*
Y1132D01*
Y532D02*
X15290D01*
Y832D01*
X17319Y4907D02*
X17619D01*
Y6107D01*
X17019D02*
X17619D01*
X17019Y4907D02*
Y6107D01*
Y4907D02*
X17319D01*
X25905Y11087D02*
X26205D01*
X25905Y9887D02*
Y11087D01*
Y9887D02*
X26505D01*
Y11087D01*
X26205D02*
X26505D01*
X13209Y1147D02*
Y1447D01*
Y1147D02*
X14409D01*
Y1747D01*
X13209D02*
X14409D01*
X13209Y1447D02*
Y1747D01*
X17029Y5257D02*
Y5557D01*
X15829D02*
X17029D01*
X15829Y4957D02*
Y5557D01*
Y4957D02*
X17029D01*
Y5257D01*
X17449Y1587D02*
Y1887D01*
Y1587D02*
X18649D01*
Y2187D01*
X17449D02*
X18649D01*
X17449Y1887D02*
Y2187D01*
X7969Y8297D02*
X8269D01*
X7969Y7097D02*
Y8297D01*
Y7097D02*
X8569D01*
Y8297D01*
X8269D02*
X8569D01*
X17442Y2607D02*
Y2907D01*
Y2607D02*
X18642D01*
Y3207D01*
X17442D02*
X18642D01*
X17442Y2907D02*
Y3207D01*
X2692Y4087D02*
Y4387D01*
X1492D02*
X2692D01*
X1492Y3787D02*
Y4387D01*
Y3787D02*
X2692D01*
Y4087D01*
X11269Y7327D02*
Y7627D01*
Y7327D02*
X12469D01*
Y7927D01*
X11269D02*
X12469D01*
X11269Y7627D02*
Y7927D01*
X21489Y12307D02*
Y12607D01*
Y12307D02*
X22689D01*
Y12907D01*
X21489D02*
X22689D01*
X21489Y12607D02*
Y12907D01*
X5576Y10210D02*
Y10510D01*
X4376Y10210D02*
X5576D01*
X4376D02*
Y10810D01*
X5576D01*
Y10510D02*
Y10810D01*
X15339Y4857D02*
X15639D01*
Y6057D01*
X15039D02*
X15639D01*
X15039Y4857D02*
Y6057D01*
Y4857D02*
X15339D01*
X4349Y6569D02*
Y6869D01*
X5549D01*
Y6269D02*
Y6869D01*
X4349Y6269D02*
X5549D01*
X4349D02*
Y6569D01*
X20626Y6887D02*
X20926D01*
X20626Y5687D02*
Y6887D01*
Y5687D02*
X21226D01*
Y6887D01*
X20926D02*
X21226D01*
X11759Y11167D02*
X12229D01*
Y10867D02*
Y11167D01*
Y10867D02*
X12679D01*
Y9617D02*
Y10867D01*
X11129Y9617D02*
X12679D01*
X11129D02*
Y10867D01*
X11579D01*
Y11167D01*
X11759D01*
X15049Y3257D02*
X15349D01*
Y4457D01*
X14749D02*
X15349D01*
X14749Y3257D02*
Y4457D01*
Y3257D02*
X15049D01*
X21495Y10987D02*
X21795D01*
X21495Y9787D02*
Y10987D01*
Y9787D02*
X22095D01*
Y10987D01*
X21795D02*
X22095D01*
X24385Y7937D02*
X24685D01*
Y9137D01*
X24086D02*
X24685D01*
X24086Y7937D02*
Y9137D01*
Y7937D02*
X24385D01*
X12799Y5067D02*
X13099D01*
Y3867D02*
Y5067D01*
X12499Y3867D02*
X13099D01*
X12499D02*
Y5067D01*
X12799D01*
X23646Y8667D02*
Y8967D01*
X22445D02*
X23646D01*
X22445Y8367D02*
Y8967D01*
Y8367D02*
X23646D01*
Y8667D01*
X1426Y1411D02*
X1726D01*
X1426D02*
Y2611D01*
X2026D01*
Y1411D02*
Y2611D01*
X1726Y1411D02*
X2026D01*
X10799Y6187D02*
X11099D01*
X10799Y4987D02*
Y6187D01*
Y4987D02*
X11399D01*
Y6187D01*
X11099D02*
X11399D01*
X11779Y7927D02*
X12079D01*
Y9127D01*
X11479D02*
X12079D01*
X11479Y7927D02*
Y9127D01*
Y7927D02*
X11779D01*
X11889Y11307D02*
X12189D01*
Y12507D01*
X11589D02*
X12189D01*
X11589Y11307D02*
Y12507D01*
Y11307D02*
X11889D01*
X10459Y6187D02*
X10759D01*
Y7387D01*
X10159D02*
X10759D01*
X10159Y6187D02*
Y7387D01*
Y6187D02*
X10459D01*
X3766Y10801D02*
Y11101D01*
Y10801D02*
X4966D01*
Y11401D01*
X3766D02*
X4966D01*
X3766Y11101D02*
Y11401D01*
X15290Y482D02*
Y662D01*
Y482D02*
X15590D01*
Y32D02*
Y482D01*
Y32D02*
X16840D01*
Y1582D01*
X15590D02*
X16840D01*
X15590Y1132D02*
Y1582D01*
X15290Y1132D02*
X15590D01*
X15290Y662D02*
Y1132D01*
X18399Y947D02*
Y1127D01*
X18099D02*
X18399D01*
X18099D02*
Y1577D01*
X16849D02*
X18099D01*
X16849Y27D02*
Y1577D01*
Y27D02*
X18099D01*
Y477D01*
X18399D01*
Y947D01*
X22239Y12010D02*
Y12310D01*
X23439D01*
Y11710D02*
Y12310D01*
X22239Y11710D02*
X23439D01*
X22239D02*
Y12010D01*
X22856Y4437D02*
Y4737D01*
Y4437D02*
X24056D01*
Y5037D01*
X22856D02*
X24056D01*
X22856Y4737D02*
Y5037D01*
X8805Y11554D02*
Y11854D01*
X7605Y11554D02*
X8805D01*
X7605D02*
Y12154D01*
X8805D01*
Y11854D02*
Y12154D01*
X5398Y3587D02*
X5698D01*
X5398Y2387D02*
Y3587D01*
Y2387D02*
X5998D01*
Y3587D01*
X5698D02*
X5998D01*
X22875Y7547D02*
Y7847D01*
X21676D02*
X22875D01*
X21676Y7247D02*
Y7847D01*
Y7247D02*
X22875D01*
Y7547D01*
X6813Y9307D02*
Y9607D01*
X5613D02*
X6813D01*
X5613Y9007D02*
Y9607D01*
Y9007D02*
X6813D01*
Y9307D01*
X24776Y9137D02*
X25076D01*
X24776Y7937D02*
Y9137D01*
Y7937D02*
X25375D01*
Y9137D01*
X25076D02*
X25375D01*
X23175Y7167D02*
X23475D01*
Y8367D01*
X22875D02*
X23475D01*
X22875Y7167D02*
Y8367D01*
Y7167D02*
X23175D01*
X18639Y4400D02*
X18939D01*
X18639Y3200D02*
Y4400D01*
Y3200D02*
X19239D01*
Y4400D01*
X18939D02*
X19239D01*
X17139Y1587D02*
X17439D01*
Y2787D01*
X16839D02*
X17439D01*
X16839Y1587D02*
Y2787D01*
Y1587D02*
X17139D01*
X9649Y7387D02*
X9949D01*
X9649Y6187D02*
Y7387D01*
Y6187D02*
X10249D01*
Y7387D01*
X9949D02*
X10249D01*
X21075Y8447D02*
X21376D01*
X21075Y7247D02*
Y8447D01*
Y7247D02*
X21676D01*
Y8447D01*
X21376D02*
X21676D01*
X22856Y3237D02*
Y3537D01*
Y3237D02*
X24056D01*
Y3837D01*
X22856D02*
X24056D01*
X22856Y3537D02*
Y3837D01*
X21376Y8447D02*
X21676D01*
Y9647D01*
X21075D02*
X21676D01*
X21075Y8447D02*
Y9647D01*
Y8447D02*
X21376D01*
X27745Y-301D02*
Y-1D01*
X26546D02*
X27745D01*
X26546Y-601D02*
Y-1D01*
Y-601D02*
X27745D01*
Y-301D01*
X12199Y3867D02*
X12499D01*
Y5067D01*
X11899D02*
X12499D01*
X11899Y3867D02*
Y5067D01*
Y3867D02*
X12199D01*
X10003Y1716D02*
X10303D01*
Y2916D01*
X9703D02*
X10303D01*
X9703Y1716D02*
Y2916D01*
Y1716D02*
X10003D01*
X11119Y1137D02*
X11419D01*
X11119Y-63D02*
Y1137D01*
Y-63D02*
X11719D01*
Y1137D01*
X11419D02*
X11719D01*
X12899Y7927D02*
X13199D01*
Y9127D01*
X12599D02*
X13199D01*
X12599Y7927D02*
Y9127D01*
Y7927D02*
X12899D01*
X5549Y7169D02*
Y7469D01*
X4349D02*
X5549D01*
X4349Y6869D02*
Y7469D01*
Y6869D02*
X5549D01*
Y7169D01*
X10669Y7387D02*
X10969D01*
X10669Y6187D02*
Y7387D01*
Y6187D02*
X11269D01*
Y7387D01*
X10969D02*
X11269D01*
X21825Y4787D02*
Y5087D01*
X20626D02*
X21825D01*
X20626Y4487D02*
Y5087D01*
Y4487D02*
X21825D01*
Y4787D01*
X12890Y312D02*
Y612D01*
X14090D01*
Y12D02*
Y612D01*
X12890Y12D02*
X14090D01*
X12890D02*
Y312D01*
X4322Y537D02*
X4622D01*
X4322D02*
Y1737D01*
X4922D01*
Y537D02*
Y1737D01*
X4622Y537D02*
X4922D01*
X23449Y10687D02*
X23749D01*
X23449Y9487D02*
Y10687D01*
Y9487D02*
X24049D01*
Y10687D01*
X23749D02*
X24049D01*
X21925Y4497D02*
X22225D01*
X21925D02*
Y5697D01*
X22525D01*
Y4497D02*
Y5697D01*
X22225Y4497D02*
X22525D01*
X15290Y322D02*
Y622D01*
X14090D02*
X15290D01*
X14090Y22D02*
Y622D01*
Y22D02*
X15290D01*
Y322D01*
X21186Y10417D02*
X21486D01*
Y11617D01*
X20886D02*
X21486D01*
X20886Y10417D02*
Y11617D01*
Y10417D02*
X21186D01*
X24056Y3837D02*
Y4137D01*
X22856Y3837D02*
X24056D01*
X22856D02*
Y4437D01*
X24056D01*
Y4137D02*
Y4437D01*
X22826Y6617D02*
Y6797D01*
X22525D02*
X22826D01*
X22525D02*
Y7247D01*
X21275D02*
X22525D01*
X21275Y5697D02*
Y7247D01*
Y5697D02*
X22525D01*
Y6147D01*
X22826D01*
Y6617D01*
X22915Y9567D02*
X23096D01*
Y9867D01*
X23545D01*
Y11117D01*
X21995D02*
X23545D01*
X21995Y9867D02*
Y11117D01*
Y9867D02*
X22445D01*
Y9567D02*
Y9867D01*
Y9567D02*
X22915D01*
X14958Y1823D02*
X15962D01*
X13207D02*
X14210D01*
X13207D02*
Y2905D01*
X15962Y2177D02*
Y3260D01*
X14033D02*
X15962D01*
Y1823D02*
Y2177D01*
X13207Y2905D02*
Y3260D01*
X14033D01*
X12786Y-73D02*
Y813D01*
Y-92D02*
Y-73D01*
X11959Y-92D02*
Y104D01*
X11762D02*
X11959D01*
Y616D02*
Y813D01*
X11762Y616D02*
X11959D01*
Y-92D02*
X12786D01*
X11959Y813D02*
X12786D01*
X11762Y104D02*
Y616D01*
X22776Y3547D02*
Y4017D01*
X22476Y3547D02*
X22776D01*
X22476Y3097D02*
Y3547D01*
X21226Y3097D02*
X22476D01*
X21226D02*
Y4647D01*
X22476D01*
Y4197D02*
Y4647D01*
Y4197D02*
X22776D01*
Y4017D02*
Y4197D01*
X21049Y4496D02*
X21349D01*
Y3296D02*
Y4496D01*
X20749Y3296D02*
X21349D01*
X20749D02*
Y4496D01*
X21049D01*
X24559Y5047D02*
X24859D01*
X24559Y3847D02*
Y5047D01*
Y3847D02*
X25159D01*
Y5047D01*
X24859D02*
X25159D01*
X23999D02*
X24299D01*
X23999Y3847D02*
Y5047D01*
Y3847D02*
X24599D01*
Y5047D01*
X24299D02*
X24599D01*
X14749Y4177D02*
Y4357D01*
X14449D02*
X14749D01*
X14449D02*
Y4807D01*
X13199D02*
X14449D01*
X13199Y3257D02*
Y4807D01*
Y3257D02*
X14449D01*
Y3707D01*
X14749D01*
Y4177D01*
X16539Y1587D02*
X16839D01*
Y2787D01*
X16239D02*
X16839D01*
X16239Y1587D02*
Y2787D01*
Y1587D02*
X16539D01*
X18959Y9147D02*
Y9497D01*
X17159D02*
X18959D01*
X17159Y8047D02*
Y9497D01*
Y8047D02*
X18959D01*
Y9147D01*
X13429Y6397D02*
X13729D01*
Y7597D01*
X13129D02*
X13729D01*
X13129Y6397D02*
Y7597D01*
Y6397D02*
X13429D01*
X17749Y10697D02*
X18049D01*
X17749Y9497D02*
Y10697D01*
Y9497D02*
X18349D01*
Y10697D01*
X18049D02*
X18349D01*
X16529Y8707D02*
X16829D01*
X16529Y7507D02*
Y8707D01*
Y7507D02*
X17129D01*
Y8707D01*
X16829D02*
X17129D01*
X18649Y9497D02*
X18949D01*
Y10697D01*
X18349D02*
X18949D01*
X18349Y9497D02*
Y10697D01*
Y9497D02*
X18649D01*
X15438Y7713D02*
X16442D01*
X13687D02*
X14690D01*
X13687D02*
Y8795D01*
X16442Y8067D02*
Y9150D01*
X14513D02*
X16442D01*
Y7713D02*
Y8067D01*
X13687Y8795D02*
Y9150D01*
X14513D01*
X17619Y11917D02*
Y12217D01*
Y11917D02*
X18819D01*
Y12517D01*
X17619D02*
X18819D01*
X17619Y12217D02*
Y12517D01*
Y11317D02*
Y11617D01*
Y11317D02*
X18819D01*
Y11917D01*
X17619D02*
X18819D01*
X17619Y11617D02*
Y11917D01*
Y12517D02*
Y12817D01*
Y12517D02*
X18819D01*
Y13117D01*
X17619D02*
X18819D01*
X17619Y12817D02*
Y13117D01*
X18779Y6847D02*
Y7147D01*
X17579Y6847D02*
X18779D01*
X17579D02*
Y7447D01*
X18779D01*
Y7147D02*
Y7447D01*
X13439Y10809D02*
X13739D01*
X13439Y9609D02*
Y10809D01*
Y9609D02*
X14039D01*
Y10809D01*
X13739D02*
X14039D01*
X5613Y9007D02*
Y9307D01*
X4413Y9007D02*
X5613D01*
X4413D02*
Y9607D01*
X5613D01*
Y9307D02*
Y9607D01*
X17579Y7747D02*
Y8047D01*
X18779D01*
Y7447D02*
Y8047D01*
X17579Y7447D02*
X18779D01*
X17579D02*
Y7747D01*
X5957Y5457D02*
X6174Y5241D01*
Y4532D02*
Y5241D01*
X4481Y3607D02*
Y4532D01*
Y3607D02*
X4697D01*
X6174D01*
Y4532D01*
X4481D02*
Y5457D01*
X5957D01*
X5122Y1737D02*
X5422D01*
Y537D02*
Y1737D01*
X4822Y537D02*
X5422D01*
X4822D02*
Y1737D01*
X5122D01*
Y2937D02*
X5422D01*
Y1737D02*
Y2937D01*
X4822Y1737D02*
X5422D01*
X4822D02*
Y2937D01*
X5122D01*
X10779Y2929D02*
X11079D01*
X10779Y1729D02*
Y2929D01*
Y1729D02*
X11379D01*
Y2929D01*
X11079D02*
X11379D01*
X10259Y1729D02*
X10559D01*
X10259D02*
Y2929D01*
X10859D01*
Y1729D02*
Y2929D01*
X10559Y1729D02*
X10859D01*
X9600Y450D02*
Y750D01*
X8400D02*
X9600D01*
X8400Y150D02*
Y750D01*
Y150D02*
X9600D01*
Y450D01*
X18819Y13417D02*
Y13717D01*
X17619D02*
X18819D01*
X17619Y13117D02*
Y13717D01*
Y13117D02*
X18819D01*
Y13417D01*
X8779Y8297D02*
X9079D01*
Y7097D02*
Y8297D01*
X8479Y7097D02*
X9079D01*
X8479D02*
Y8297D01*
X8779D01*
X10239Y7317D02*
Y7617D01*
X9039Y7317D02*
X10239D01*
X9039D02*
Y7917D01*
X10239D01*
Y7617D02*
Y7917D01*
X26850Y7700D02*
X27150D01*
Y6500D02*
Y7700D01*
X26550Y6500D02*
X27150D01*
X26550D02*
Y7700D01*
X26850D01*
X10299Y11039D02*
Y11339D01*
Y11039D02*
X11499D01*
Y11639D01*
X10299D02*
X11499D01*
X10299Y11339D02*
Y11639D01*
X11950Y5250D02*
Y5550D01*
Y5250D02*
X13150D01*
Y5850D01*
X11950D02*
X13150D01*
X11950Y5550D02*
Y5850D01*
X15610Y1450D02*
Y1750D01*
X14410D02*
X15610D01*
X14410Y1150D02*
Y1750D01*
Y1150D02*
X15610D01*
Y1450D01*
X8188Y-1602D02*
X8010Y-1425D01*
X7654D01*
X7477Y-1602D01*
Y-1780D01*
X7654Y-1958D01*
X8010D01*
X8188Y-2136D01*
Y-2313D01*
X8010Y-2491D01*
X7654D01*
X7477Y-2313D01*
X8543Y-1425D02*
X8898D01*
X8721D01*
Y-2491D01*
X8543D01*
X8898D01*
X9432Y-1425D02*
Y-2491D01*
X10143D01*
X10498Y-1425D02*
Y-2491D01*
Y-2136D01*
X11209Y-1425D01*
X10676Y-1958D01*
X11209Y-2491D01*
X13341Y-1602D02*
X13164Y-1425D01*
X12808D01*
X12631Y-1602D01*
Y-1780D01*
X12808Y-1958D01*
X13164D01*
X13341Y-2136D01*
Y-2313D01*
X13164Y-2491D01*
X12808D01*
X12631Y-2313D01*
X14408Y-1602D02*
X14230Y-1425D01*
X13875D01*
X13697Y-1602D01*
Y-2313D01*
X13875Y-2491D01*
X14230D01*
X14408Y-2313D01*
X14763Y-2491D02*
Y-1425D01*
X15296D01*
X15474Y-1602D01*
Y-1958D01*
X15296Y-2136D01*
X14763D01*
X15119D02*
X15474Y-2491D01*
X16540Y-1425D02*
X15830D01*
Y-2491D01*
X16540D01*
X15830Y-1958D02*
X16185D01*
X17607Y-1425D02*
X16896D01*
Y-2491D01*
X17607D01*
X16896Y-1958D02*
X17251D01*
X17962Y-2491D02*
Y-1425D01*
X18673Y-2491D01*
Y-1425D01*
X35851Y-13606D02*
G03*
X35361Y-13116I-490J0D01*
G01*
X24351D02*
G03*
X23851Y-13616I0J-500D01*
G01*
X35351Y-12616D02*
G03*
X35851Y-12116I0J500D01*
G01*
X23851D02*
G03*
X24351Y-12616I500J0D01*
G01*
X-6649Y-5366D02*
G03*
X-7649Y-6366I0J-1000D01*
G01*
Y-17356D02*
G03*
X-6656Y-18366I1010J0D01*
G01*
X35351Y-18366D02*
G03*
X36351Y-17366I0J1000D01*
G01*
Y-6366D02*
G03*
X35351Y-5366I-1000J0D01*
G01*
X35851Y-6356D02*
G03*
X35344Y-5866I-490J0D01*
G01*
X35351Y-15366D02*
G03*
X35851Y-14866I0J500D01*
G01*
X35851Y-16357D02*
G03*
X35351Y-15866I-500J-9D01*
G01*
Y-17866D02*
G03*
X35851Y-17366I0J500D01*
G01*
X22851Y-15366D02*
G03*
X23351Y-14866I0J500D01*
G01*
X23851Y-14876D02*
G03*
X24350Y-15366I490J0D01*
G01*
X23351Y-13606D02*
G03*
X22861Y-13116I-490J0D01*
G01*
X-7149Y-17366D02*
G03*
X-6658Y-17866I500J0D01*
G01*
X22860Y-12616D02*
G03*
X23351Y-12116I-9J500D01*
G01*
X-6649Y-15866D02*
G03*
X-7149Y-16366I0J-500D01*
G01*
X23351Y-8866D02*
G03*
X22851Y-8366I-500J0D01*
G01*
Y-7866D02*
G03*
X23351Y-7366I0J500D01*
G01*
X24351Y-5866D02*
G03*
X23851Y-6366I0J-500D01*
G01*
X23351D02*
G03*
X22851Y-5866I-500J0D01*
G01*
X-6649D02*
G03*
X-7149Y-6366I0J-500D01*
G01*
Y-7366D02*
G03*
X-6649Y-7866I500J0D01*
G01*
Y-8366D02*
G03*
X-7149Y-8866I0J-500D01*
G01*
Y-11116D02*
G03*
X-6649Y-11616I500J0D01*
G01*
Y-12116D02*
G03*
X-7149Y-12616I0J-500D01*
G01*
Y-14866D02*
G03*
X-6658Y-15366I500J0D01*
G01*
X2351Y-8366D02*
G03*
X1851Y-8866I0J-500D01*
G01*
X2351Y-13116D02*
G03*
X1851Y-13616I0J-500D01*
G01*
X19831Y-13116D02*
G03*
X19352Y-13621I0J-480D01*
G01*
X19351Y-14856D02*
G03*
X19852Y-15366I510J0D01*
G01*
X18361Y-15366D02*
G03*
X18851Y-14867I0J490D01*
G01*
X18851Y-13606D02*
G03*
X18361Y-13116I-490J0D01*
G01*
X861Y-15366D02*
G03*
X1351Y-14876I0J490D01*
G01*
X1851D02*
G03*
X2341Y-15366I490J0D01*
G01*
X1851Y-12126D02*
G03*
X2341Y-12616I490J0D01*
G01*
X1351Y-12606D02*
G03*
X844Y-12116I-490J0D01*
G01*
X871Y-11616D02*
G03*
X1351Y-11136I0J480D01*
G01*
Y-8856D02*
G03*
X861Y-8366I-490J0D01*
G01*
X29851Y-15866D02*
G03*
X29351Y-16366I0J-500D01*
G01*
Y-17376D02*
G03*
X29850Y-17866I490J0D01*
G01*
X28363Y-17866D02*
G03*
X28851Y-17369I8J480D01*
G01*
X28851Y-16366D02*
G03*
X28351Y-15866I-500J0D01*
G01*
X11101Y-17366D02*
G03*
X11592Y-17866I500J0D01*
G01*
X11601Y-15866D02*
G03*
X11101Y-16366I0J-500D01*
G01*
X10113Y-17866D02*
G03*
X10601Y-17369I8J480D01*
G01*
X10601Y-16366D02*
G03*
X10101Y-15866I-500J0D01*
G01*
X35851Y-14866D02*
Y-13606D01*
X23851Y-14866D02*
Y-13616D01*
X35851Y-12116D02*
Y-6366D01*
X23851Y-12116D02*
Y-6366D01*
X-7649Y-17366D02*
Y-6366D01*
X-7149Y-17366D02*
Y-16366D01*
X35851Y-17366D02*
Y-16366D01*
X23351Y-14866D02*
Y-13616D01*
X19351Y-14866D02*
Y-13616D01*
X1851Y-14866D02*
Y-13616D01*
X18851Y-14866D02*
Y-13616D01*
X1851Y-12116D02*
Y-8866D01*
X23351Y-12116D02*
Y-8866D01*
Y-7366D02*
Y-6366D01*
X-7149Y-7366D02*
Y-6366D01*
X1351Y-11116D02*
Y-8866D01*
X-7149Y-11116D02*
Y-8866D01*
X1351Y-14866D02*
Y-12616D01*
X-7149Y-14866D02*
Y-12616D01*
X36351Y-17366D02*
Y-6366D01*
X29351Y-17366D02*
Y-16366D01*
X28851Y-17366D02*
Y-16366D01*
X11101Y-17366D02*
Y-16366D01*
X10601Y-17366D02*
Y-16366D01*
X24351Y-13116D02*
X35351D01*
X24351Y-12616D02*
X35351D01*
X2351D02*
X22851D01*
X24351Y-5866D02*
X35351D01*
X24351Y-15366D02*
X35351D01*
X19851Y-13116D02*
X22851D01*
X19851Y-15366D02*
X22851D01*
X2351D02*
X18351D01*
X2351Y-13116D02*
X18351D01*
X2351Y-8366D02*
X22851D01*
X-6649Y-7866D02*
X22851D01*
X-6649Y-8366D02*
X851D01*
X-6649Y-11616D02*
X851D01*
X-6649Y-12116D02*
X851D01*
X-6649Y-15366D02*
X851D01*
X-6649Y-5366D02*
X35351D01*
X-6649Y-18366D02*
X35351D01*
X-6649Y-5866D02*
X22851D01*
X29851Y-15866D02*
X35351D01*
X29851Y-17866D02*
X35351D01*
X11601Y-15866D02*
X28351D01*
X-6649D02*
X10101D01*
X-6649Y-17866D02*
X10101D01*
X11601D02*
X28351D01*
X27710Y-9190D02*
X27604Y-9084D01*
X27391D01*
X27284Y-9190D01*
Y-9297D01*
X27391Y-9404D01*
X27604D01*
X27710Y-9510D01*
Y-9617D01*
X27604Y-9723D01*
X27391D01*
X27284Y-9617D01*
X27924Y-9297D02*
Y-9617D01*
X28030Y-9723D01*
X28350D01*
Y-9297D01*
X28564Y-9723D02*
X28777D01*
X28670D01*
Y-9297D01*
X28564D01*
X29203Y-9190D02*
Y-9297D01*
X29097D01*
X29310D01*
X29203D01*
Y-9617D01*
X29310Y-9723D01*
X29950D02*
X29737D01*
X29630Y-9617D01*
Y-9404D01*
X29737Y-9297D01*
X29950D01*
X30056Y-9404D01*
Y-9510D01*
X29630D01*
X30909Y-9723D02*
X31123D01*
X31016D01*
Y-9084D01*
X30909Y-9190D01*
X31443Y-9723D02*
X31656D01*
X31549D01*
Y-9084D01*
X31443Y-9190D01*
X31976D02*
X32082Y-9084D01*
X32296D01*
X32402Y-9190D01*
Y-9297D01*
X32296Y-9404D01*
X32402Y-9510D01*
Y-9617D01*
X32296Y-9723D01*
X32082D01*
X31976Y-9617D01*
Y-9510D01*
X32082Y-9404D01*
X31976Y-9297D01*
Y-9190D01*
X32082Y-9404D02*
X32296D01*
X26911Y-11234D02*
X26484D01*
Y-11554D01*
X26697Y-11447D01*
X26804D01*
X26911Y-11554D01*
Y-11767D01*
X26804Y-11873D01*
X26591D01*
X26484Y-11767D01*
X27550Y-11234D02*
X27337Y-11340D01*
X27124Y-11554D01*
Y-11767D01*
X27230Y-11873D01*
X27444D01*
X27550Y-11767D01*
Y-11660D01*
X27444Y-11554D01*
X27124D01*
X27764Y-11873D02*
X27977D01*
X27870D01*
Y-11234D01*
X27764Y-11340D01*
X28297Y-11554D02*
X28723D01*
X28937Y-11767D02*
X29043Y-11873D01*
X29256D01*
X29363Y-11767D01*
Y-11340D01*
X29256Y-11234D01*
X29043D01*
X28937Y-11340D01*
Y-11447D01*
X29043Y-11554D01*
X29363D01*
X29576Y-11767D02*
X29683Y-11873D01*
X29896D01*
X30003Y-11767D01*
Y-11340D01*
X29896Y-11234D01*
X29683D01*
X29576Y-11340D01*
Y-11447D01*
X29683Y-11554D01*
X30003D01*
X30216Y-11767D02*
X30323Y-11873D01*
X30536D01*
X30643Y-11767D01*
Y-11340D01*
X30536Y-11234D01*
X30323D01*
X30216Y-11340D01*
Y-11447D01*
X30323Y-11554D01*
X30643D01*
X30856D02*
X31282D01*
X31496Y-11767D02*
X31602Y-11873D01*
X31816D01*
X31922Y-11767D01*
Y-11340D01*
X31816Y-11234D01*
X31602D01*
X31496Y-11340D01*
Y-11447D01*
X31602Y-11554D01*
X31922D01*
X32455Y-11873D02*
Y-11234D01*
X32135Y-11554D01*
X32562D01*
X33202Y-11873D02*
X32775D01*
X33202Y-11447D01*
Y-11340D01*
X33095Y-11234D01*
X32882D01*
X32775Y-11340D01*
X33842Y-11873D02*
X33415D01*
X33842Y-11447D01*
Y-11340D01*
X33735Y-11234D01*
X33522D01*
X33415Y-11340D01*
X24334Y-8567D02*
X24441Y-8673D01*
X24654D01*
X24760Y-8567D01*
Y-8140D01*
X24654Y-8034D01*
X24441D01*
X24334Y-8140D01*
Y-8247D01*
X24441Y-8354D01*
X24760D01*
X24974Y-8140D02*
X25080Y-8034D01*
X25294D01*
X25400Y-8140D01*
Y-8567D01*
X25294Y-8673D01*
X25080D01*
X24974Y-8567D01*
Y-8140D01*
X26040Y-8673D02*
X25614D01*
X26040Y-8247D01*
Y-8140D01*
X25933Y-8034D01*
X25720D01*
X25614Y-8140D01*
X27320D02*
X27213Y-8034D01*
X27000D01*
X26893Y-8140D01*
Y-8567D01*
X27000Y-8673D01*
X27213D01*
X27320Y-8567D01*
X27533Y-8673D02*
X27746D01*
X27640D01*
Y-8034D01*
X27533D01*
X28066Y-8673D02*
X28279D01*
X28173D01*
Y-8247D01*
X28066D01*
X28599Y-8673D02*
Y-8247D01*
X28919D01*
X29026Y-8354D01*
Y-8673D01*
X29346Y-8140D02*
Y-8247D01*
X29239D01*
X29452D01*
X29346D01*
Y-8567D01*
X29452Y-8673D01*
X30412D02*
Y-8034D01*
X30625Y-8247D01*
X30839Y-8034D01*
Y-8673D01*
X31158D02*
X31372D01*
X31478Y-8567D01*
Y-8354D01*
X31372Y-8247D01*
X31158D01*
X31052Y-8354D01*
Y-8567D01*
X31158Y-8673D01*
X31798D02*
X32011D01*
X32118Y-8567D01*
Y-8354D01*
X32011Y-8247D01*
X31798D01*
X31692Y-8354D01*
Y-8567D01*
X31798Y-8673D01*
X32331Y-8247D02*
Y-8673D01*
Y-8460D01*
X32438Y-8354D01*
X32545Y-8247D01*
X32651D01*
X33291Y-8673D02*
X33078D01*
X32971Y-8567D01*
Y-8354D01*
X33078Y-8247D01*
X33291D01*
X33398Y-8354D01*
Y-8460D01*
X32971D01*
X34251Y-8673D02*
Y-8034D01*
X34571D01*
X34677Y-8140D01*
Y-8354D01*
X34571Y-8460D01*
X34251D01*
X34464D02*
X34677Y-8673D01*
X35317Y-8034D02*
Y-8673D01*
X34997D01*
X34891Y-8567D01*
Y-8354D01*
X34997Y-8247D01*
X35317D01*
X35530Y-8673D02*
Y-8567D01*
X35637D01*
Y-8673D01*
X35530D01*
X25934Y-10034D02*
Y-10673D01*
X26254D01*
X26360Y-10567D01*
Y-10460D01*
X26254Y-10354D01*
X25934D01*
X26254D01*
X26360Y-10247D01*
Y-10140D01*
X26254Y-10034D01*
X25934D01*
X26680Y-10673D02*
X26894D01*
X27000Y-10567D01*
Y-10354D01*
X26894Y-10247D01*
X26680D01*
X26574Y-10354D01*
Y-10567D01*
X26680Y-10673D01*
X27640Y-10247D02*
X27320D01*
X27214Y-10354D01*
Y-10567D01*
X27320Y-10673D01*
X27640D01*
X27960Y-10247D02*
X28173D01*
X28280Y-10354D01*
Y-10673D01*
X27960D01*
X27853Y-10567D01*
X27960Y-10460D01*
X28280D01*
X29133Y-10673D02*
Y-10034D01*
X29453D01*
X29559Y-10140D01*
Y-10354D01*
X29453Y-10460D01*
X29133D01*
X29346D02*
X29559Y-10673D01*
X29879Y-10247D02*
X30093D01*
X30199Y-10354D01*
Y-10673D01*
X29879D01*
X29773Y-10567D01*
X29879Y-10460D01*
X30199D01*
X30519Y-10140D02*
Y-10247D01*
X30413D01*
X30626D01*
X30519D01*
Y-10567D01*
X30626Y-10673D01*
X31052D02*
X31266D01*
X31372Y-10567D01*
Y-10354D01*
X31266Y-10247D01*
X31052D01*
X30946Y-10354D01*
Y-10567D01*
X31052Y-10673D01*
X31585D02*
Y-10247D01*
X31905D01*
X32012Y-10354D01*
Y-10673D01*
X33292Y-10034D02*
X32865D01*
Y-10354D01*
X33078D01*
X32865D01*
Y-10673D01*
X33505Y-10034D02*
Y-10673D01*
X33931D01*
X34145D02*
Y-10567D01*
X34251D01*
Y-10673D01*
X34145D01*
D52*
X24834Y-7623D02*
Y-6957D01*
X25167Y-6624D01*
X25500Y-6957D01*
Y-7623D01*
Y-7124D01*
X24834D01*
X26500Y-6957D02*
X26000D01*
X25834Y-7124D01*
Y-7457D01*
X26000Y-7623D01*
X26500D01*
X27000Y-6790D02*
Y-6957D01*
X26833D01*
X27167D01*
X27000D01*
Y-7457D01*
X27167Y-7623D01*
X27666D02*
X28000D01*
X27833D01*
Y-6957D01*
X27666D01*
X28499D02*
X28833Y-7623D01*
X29166Y-6957D01*
X29999Y-7623D02*
X29666D01*
X29499Y-7457D01*
Y-7124D01*
X29666Y-6957D01*
X29999D01*
X30166Y-7124D01*
Y-7290D01*
X29499D01*
X31498Y-6624D02*
Y-7623D01*
X31832Y-7290D01*
X32165Y-7623D01*
Y-6624D01*
X32665Y-6957D02*
X32998D01*
X33165Y-7124D01*
Y-7623D01*
X32665D01*
X32498Y-7457D01*
X32665Y-7290D01*
X33165D01*
X33498Y-6957D02*
X33831Y-7623D01*
X34164Y-6957D01*
X34997Y-7623D02*
X34664D01*
X34498Y-7457D01*
Y-7124D01*
X34664Y-6957D01*
X34997D01*
X35164Y-7124D01*
Y-7290D01*
X34498D01*
X-3394Y16348D02*
X-3060D01*
X-3227D01*
Y17348D01*
X-3394Y17181D01*
X-2561Y16348D02*
X-2227D01*
X-2394D01*
Y17348D01*
X-2561Y17181D01*
X-1728Y16348D02*
X-1394Y16681D01*
Y17014D01*
X-1728Y17348D01*
X105D02*
Y16348D01*
Y16848D01*
X772D01*
Y17348D01*
Y16348D01*
X1105D02*
Y17014D01*
X1438Y17348D01*
X1771Y17014D01*
Y16348D01*
Y16848D01*
X1105D01*
X2771Y17181D02*
X2604Y17348D01*
X2271D01*
X2105Y17181D01*
Y17014D01*
X2271Y16848D01*
X2604D01*
X2771Y16681D01*
Y16515D01*
X2604Y16348D01*
X2271D01*
X2105Y16515D01*
X3104Y17348D02*
Y16348D01*
X3771D01*
X5603Y17348D02*
X5270D01*
X5104Y17181D01*
Y16515D01*
X5270Y16348D01*
X5603D01*
X5770Y16515D01*
Y17181D01*
X5603Y17348D01*
X6103Y16348D02*
Y17348D01*
X6770Y16348D01*
Y17348D01*
X8103Y16348D02*
Y17014D01*
X8436Y17348D01*
X8769Y17014D01*
Y16348D01*
Y16848D01*
X8103D01*
X9102Y17348D02*
Y16348D01*
X9769D01*
X10102Y17348D02*
Y16348D01*
X10768D01*
X12101D02*
Y17348D01*
X12601D01*
X12768Y17181D01*
Y16848D01*
X12601Y16681D01*
X12101D01*
X13101Y16348D02*
Y17014D01*
X13434Y17348D01*
X13767Y17014D01*
Y16348D01*
Y16848D01*
X13101D01*
X14101Y17348D02*
Y16348D01*
X14601D01*
X14767Y16515D01*
Y17181D01*
X14601Y17348D01*
X14101D01*
X15767Y17181D02*
X15600Y17348D01*
X15267D01*
X15100Y17181D01*
Y17014D01*
X15267Y16848D01*
X15600D01*
X15767Y16681D01*
Y16515D01*
X15600Y16348D01*
X15267D01*
X15100Y16515D01*
X17100Y16348D02*
Y17014D01*
X17433Y17348D01*
X17766Y17014D01*
Y16348D01*
Y16848D01*
X17100D01*
X18099Y16348D02*
Y17348D01*
X18766Y16348D01*
Y17348D01*
X19099D02*
Y16348D01*
X19599D01*
X19766Y16515D01*
Y17181D01*
X19599Y17348D01*
X19099D01*
X21098D02*
Y16681D01*
X21432Y16348D01*
X21765Y16681D01*
Y17348D01*
X22098D02*
X22431D01*
X22265D01*
Y16348D01*
X22098D01*
X22431D01*
X22931D02*
Y17014D01*
X23264Y17348D01*
X23598Y17014D01*
Y16348D01*
Y16848D01*
X22931D01*
X24597Y17181D02*
X24431Y17348D01*
X24097D01*
X23931Y17181D01*
Y17014D01*
X24097Y16848D01*
X24431D01*
X24597Y16681D01*
Y16515D01*
X24431Y16348D01*
X24097D01*
X23931Y16515D01*
X-2727Y34348D02*
X-3394D01*
X-2727Y35014D01*
Y35181D01*
X-2894Y35348D01*
X-3227D01*
X-3394Y35181D01*
X-2394Y34348D02*
X-2061Y34681D01*
Y35014D01*
X-2394Y35348D01*
X-561Y34348D02*
Y35348D01*
X-228Y35014D01*
X105Y35348D01*
Y34348D01*
X438D02*
Y35014D01*
X772Y35348D01*
X1105Y35014D01*
Y34348D01*
Y34848D01*
X438D01*
X1438Y35348D02*
X2105D01*
X1771D01*
Y34348D01*
X3104Y35348D02*
X2438D01*
Y34348D01*
X3104D01*
X2438Y34848D02*
X2771D01*
X3437Y34348D02*
Y35348D01*
X3937D01*
X4104Y35181D01*
Y34848D01*
X3937Y34681D01*
X3437D01*
X3771D02*
X4104Y34348D01*
X4437Y35348D02*
X4770D01*
X4604D01*
Y34348D01*
X4437D01*
X4770D01*
X5270D02*
Y35014D01*
X5603Y35348D01*
X5937Y35014D01*
Y34348D01*
Y34848D01*
X5270D01*
X6270Y35348D02*
Y34348D01*
X6936D01*
X8269Y35348D02*
X8602D01*
X8436D01*
Y34348D01*
X8269D01*
X8602D01*
X9769Y35181D02*
X9602Y35348D01*
X9269D01*
X9102Y35181D01*
Y35014D01*
X9269Y34848D01*
X9602D01*
X9769Y34681D01*
Y34515D01*
X9602Y34348D01*
X9269D01*
X9102Y34515D01*
X11768Y35348D02*
X11102D01*
Y34848D01*
X11435D01*
X11102D01*
Y34348D01*
X12101D02*
Y35348D01*
X12601D01*
X12768Y35181D01*
Y34848D01*
X12601Y34681D01*
X12101D01*
X12435D02*
X12768Y34348D01*
X13601D02*
Y35348D01*
X13101Y34848D01*
X13767D01*
X14101Y35181D02*
X14267Y35348D01*
X14601D01*
X14767Y35181D01*
Y34515D01*
X14601Y34348D01*
X14267D01*
X14101Y34515D01*
Y35181D01*
X15100D02*
X15267Y35348D01*
X15600D01*
X15767Y35181D01*
Y35014D01*
X15600Y34848D01*
X15767Y34681D01*
Y34515D01*
X15600Y34348D01*
X15267D01*
X15100Y34515D01*
Y34681D01*
X15267Y34848D01*
X15100Y35014D01*
Y35181D01*
X15267Y34848D02*
X15600D01*
X-3394Y20515D02*
X-3227Y20348D01*
X-2894D01*
X-2727Y20515D01*
Y21181D01*
X-2894Y21348D01*
X-3227D01*
X-3394Y21181D01*
Y21014D01*
X-3227Y20848D01*
X-2727D01*
X-2394Y20348D02*
X-2061Y20681D01*
Y21014D01*
X-2394Y21348D01*
X-561Y20348D02*
Y21348D01*
X105Y20348D01*
Y21348D01*
X938D02*
X605D01*
X438Y21181D01*
Y20515D01*
X605Y20348D01*
X938D01*
X1105Y20515D01*
Y21181D01*
X938Y21348D01*
X3104Y21181D02*
X2938Y21348D01*
X2604D01*
X2438Y21181D01*
Y21014D01*
X2604Y20848D01*
X2938D01*
X3104Y20681D01*
Y20515D01*
X2938Y20348D01*
X2604D01*
X2438Y20515D01*
X3437Y21348D02*
X3771D01*
X3604D01*
Y20348D01*
X3437D01*
X3771D01*
X4271Y21348D02*
Y20348D01*
X4937D01*
X5270Y21348D02*
Y20348D01*
Y20681D01*
X5937Y21348D01*
X5437Y20848D01*
X5937Y20348D01*
X6936Y21181D02*
X6770Y21348D01*
X6436D01*
X6270Y21181D01*
Y21014D01*
X6436Y20848D01*
X6770D01*
X6936Y20681D01*
Y20515D01*
X6770Y20348D01*
X6436D01*
X6270Y20515D01*
X7936Y21181D02*
X7769Y21348D01*
X7436D01*
X7270Y21181D01*
Y20515D01*
X7436Y20348D01*
X7769D01*
X7936Y20515D01*
X8269Y20348D02*
Y21348D01*
X8769D01*
X8936Y21181D01*
Y20848D01*
X8769Y20681D01*
X8269D01*
X8602D02*
X8936Y20348D01*
X9935Y21348D02*
X9269D01*
Y20348D01*
X9935D01*
X9269Y20848D02*
X9602D01*
X10935Y21348D02*
X10269D01*
Y20348D01*
X10935D01*
X10269Y20848D02*
X10602D01*
X11268Y20348D02*
Y21348D01*
X11935Y20348D01*
Y21348D01*
X13767D02*
X13434D01*
X13268Y21181D01*
Y20515D01*
X13434Y20348D01*
X13767D01*
X13934Y20515D01*
Y21181D01*
X13767Y21348D01*
X14267Y20348D02*
Y21348D01*
X14934Y20348D01*
Y21348D01*
X16267Y20348D02*
Y21348D01*
X16766D01*
X16933Y21181D01*
Y20848D01*
X16766Y20681D01*
X16267D01*
X17266Y20348D02*
Y21014D01*
X17600Y21348D01*
X17933Y21014D01*
Y20348D01*
Y20848D01*
X17266D01*
X18266Y21348D02*
Y20348D01*
X18766D01*
X18932Y20515D01*
Y21181D01*
X18766Y21348D01*
X18266D01*
X19932Y21181D02*
X19766Y21348D01*
X19432D01*
X19266Y21181D01*
Y21014D01*
X19432Y20848D01*
X19766D01*
X19932Y20681D01*
Y20515D01*
X19766Y20348D01*
X19432D01*
X19266Y20515D01*
X-3394Y23181D02*
X-3227Y23348D01*
X-2894D01*
X-2727Y23181D01*
Y23014D01*
X-2894Y22848D01*
X-2727Y22681D01*
Y22515D01*
X-2894Y22348D01*
X-3227D01*
X-3394Y22515D01*
Y22681D01*
X-3227Y22848D01*
X-3394Y23014D01*
Y23181D01*
X-3227Y22848D02*
X-2894D01*
X-2394Y22348D02*
X-2061Y22681D01*
Y23014D01*
X-2394Y23348D01*
X-561Y22348D02*
Y23014D01*
X-228Y23348D01*
X105Y23014D01*
Y22348D01*
Y22848D01*
X-561D01*
X438Y23348D02*
Y22348D01*
X938D01*
X1105Y22515D01*
Y23181D01*
X938Y23348D01*
X438D01*
X1438D02*
Y22348D01*
X1938D01*
X2105Y22515D01*
Y23181D01*
X1938Y23348D01*
X1438D01*
X4104Y23181D02*
X3937Y23348D01*
X3604D01*
X3437Y23181D01*
Y23014D01*
X3604Y22848D01*
X3937D01*
X4104Y22681D01*
Y22515D01*
X3937Y22348D01*
X3604D01*
X3437Y22515D01*
X4437Y23348D02*
X4770D01*
X4604D01*
Y22348D01*
X4437D01*
X4770D01*
X5270Y23348D02*
Y22348D01*
X5937D01*
X6270Y23348D02*
Y22348D01*
Y22681D01*
X6936Y23348D01*
X6436Y22848D01*
X6936Y22348D01*
X7936Y23181D02*
X7769Y23348D01*
X7436D01*
X7270Y23181D01*
Y23014D01*
X7436Y22848D01*
X7769D01*
X7936Y22681D01*
Y22515D01*
X7769Y22348D01*
X7436D01*
X7270Y22515D01*
X8936Y23181D02*
X8769Y23348D01*
X8436D01*
X8269Y23181D01*
Y22515D01*
X8436Y22348D01*
X8769D01*
X8936Y22515D01*
X9269Y22348D02*
Y23348D01*
X9769D01*
X9935Y23181D01*
Y22848D01*
X9769Y22681D01*
X9269D01*
X9602D02*
X9935Y22348D01*
X10935Y23348D02*
X10269D01*
Y22348D01*
X10935D01*
X10269Y22848D02*
X10602D01*
X11935Y23348D02*
X11268D01*
Y22348D01*
X11935D01*
X11268Y22848D02*
X11601D01*
X12268Y22348D02*
Y23348D01*
X12934Y22348D01*
Y23348D01*
X14267D02*
Y22348D01*
X14767D01*
X14934Y22515D01*
Y22681D01*
X14767Y22848D01*
X14267D01*
X14767D01*
X14934Y23014D01*
Y23181D01*
X14767Y23348D01*
X14267D01*
X15767D02*
X15434D01*
X15267Y23181D01*
Y22515D01*
X15434Y22348D01*
X15767D01*
X15933Y22515D01*
Y23181D01*
X15767Y23348D01*
X16267D02*
X16933D01*
X16600D01*
Y22348D01*
X17266Y23348D02*
Y22348D01*
Y22848D01*
X17933D01*
Y23348D01*
Y22348D01*
X19932Y23181D02*
X19765Y23348D01*
X19432D01*
X19266Y23181D01*
Y23014D01*
X19432Y22848D01*
X19765D01*
X19932Y22681D01*
Y22515D01*
X19765Y22348D01*
X19432D01*
X19266Y22515D01*
X20265Y23348D02*
X20599D01*
X20432D01*
Y22348D01*
X20265D01*
X20599D01*
X21098Y23348D02*
Y22348D01*
X21598D01*
X21765Y22515D01*
Y23181D01*
X21598Y23348D01*
X21098D01*
X22765D02*
X22098D01*
Y22348D01*
X22765D01*
X22098Y22848D02*
X22431D01*
X23764Y23181D02*
X23598Y23348D01*
X23264D01*
X23098Y23181D01*
Y23014D01*
X23264Y22848D01*
X23598D01*
X23764Y22681D01*
Y22515D01*
X23598Y22348D01*
X23264D01*
X23098Y22515D01*
X-3394Y25348D02*
X-2727D01*
Y25181D01*
X-3394Y24515D01*
Y24348D01*
X-2394D02*
X-2061Y24681D01*
Y25014D01*
X-2394Y25348D01*
X-561Y24348D02*
Y25348D01*
X-61D01*
X105Y25181D01*
Y24848D01*
X-61Y24681D01*
X-561D01*
X-228D02*
X105Y24348D01*
X938Y25348D02*
X605D01*
X438Y25181D01*
Y24515D01*
X605Y24348D01*
X938D01*
X1105Y24515D01*
Y25181D01*
X938Y25348D01*
X1438D02*
Y24515D01*
X1605Y24348D01*
X1938D01*
X2105Y24515D01*
Y25348D01*
X2438D02*
X3104D01*
X2771D01*
Y24348D01*
X4104Y25348D02*
X3437D01*
Y24348D01*
X4104D01*
X3437Y24848D02*
X3771D01*
X5437Y25348D02*
X6103D01*
X5770D01*
Y24348D01*
X6936Y25348D02*
X6603D01*
X6436Y25181D01*
Y24515D01*
X6603Y24348D01*
X6936D01*
X7103Y24515D01*
Y25181D01*
X6936Y25348D01*
X8436D02*
Y24348D01*
X8936D01*
X9102Y24515D01*
Y24681D01*
X8936Y24848D01*
X8436D01*
X8936D01*
X9102Y25014D01*
Y25181D01*
X8936Y25348D01*
X8436D01*
X9935D02*
X9602D01*
X9436Y25181D01*
Y24515D01*
X9602Y24348D01*
X9935D01*
X10102Y24515D01*
Y25181D01*
X9935Y25348D01*
X10435Y24348D02*
Y25014D01*
X10768Y25348D01*
X11102Y25014D01*
Y24348D01*
Y24848D01*
X10435D01*
X11435Y24348D02*
Y25348D01*
X11935D01*
X12101Y25181D01*
Y24848D01*
X11935Y24681D01*
X11435D01*
X11768D02*
X12101Y24348D01*
X12435Y25348D02*
Y24348D01*
X12934D01*
X13101Y24515D01*
Y25181D01*
X12934Y25348D01*
X12435D01*
X14934D02*
X14601D01*
X14434Y25181D01*
Y24515D01*
X14601Y24348D01*
X14934D01*
X15100Y24515D01*
Y25181D01*
X14934Y25348D01*
X15434D02*
Y24515D01*
X15600Y24348D01*
X15933D01*
X16100Y24515D01*
Y25348D01*
X16433D02*
X17100D01*
X16766D01*
Y24348D01*
X17433Y25348D02*
Y24348D01*
X18099D01*
X18433Y25348D02*
X18766D01*
X18599D01*
Y24348D01*
X18433D01*
X18766D01*
X19266D02*
Y25348D01*
X19932Y24348D01*
Y25348D01*
X20932D02*
X20265D01*
Y24348D01*
X20932D01*
X20265Y24848D02*
X20599D01*
X-2727Y27348D02*
X-3060Y27181D01*
X-3394Y26848D01*
Y26515D01*
X-3227Y26348D01*
X-2894D01*
X-2727Y26515D01*
Y26681D01*
X-2894Y26848D01*
X-3394D01*
X-2394Y26348D02*
X-2061Y26681D01*
Y27014D01*
X-2394Y27348D01*
X-561Y26348D02*
Y27348D01*
X-61D01*
X105Y27181D01*
Y26848D01*
X-61Y26681D01*
X-561D01*
X-228D02*
X105Y26348D01*
X1105Y27348D02*
X438D01*
Y26348D01*
X1105D01*
X438Y26848D02*
X772D01*
X2105Y27181D02*
X1938Y27348D01*
X1605D01*
X1438Y27181D01*
Y26515D01*
X1605Y26348D01*
X1938D01*
X2105Y26515D01*
X2438Y27348D02*
X3104D01*
X2771D01*
Y26348D01*
X3437D02*
Y27014D01*
X3771Y27348D01*
X4104Y27014D01*
Y26348D01*
Y26848D01*
X3437D01*
X4437Y26348D02*
Y27348D01*
X5104Y26348D01*
Y27348D01*
X6103Y27181D02*
X5937Y27348D01*
X5603D01*
X5437Y27181D01*
Y26515D01*
X5603Y26348D01*
X5937D01*
X6103Y26515D01*
Y26848D01*
X5770D01*
X6436Y27348D02*
Y26515D01*
X6603Y26348D01*
X6936D01*
X7103Y26515D01*
Y27348D01*
X7436D02*
Y26348D01*
X8103D01*
X8436D02*
Y27014D01*
X8769Y27348D01*
X9102Y27014D01*
Y26348D01*
Y26848D01*
X8436D01*
X9436Y26348D02*
Y27348D01*
X9935D01*
X10102Y27181D01*
Y26848D01*
X9935Y26681D01*
X9436D01*
X9769D02*
X10102Y26348D01*
X11435Y27348D02*
Y26348D01*
X11935D01*
X12101Y26515D01*
Y26681D01*
X11935Y26848D01*
X11435D01*
X11935D01*
X12101Y27014D01*
Y27181D01*
X11935Y27348D01*
X11435D01*
X12934D02*
X12601D01*
X12435Y27181D01*
Y26515D01*
X12601Y26348D01*
X12934D01*
X13101Y26515D01*
Y27181D01*
X12934Y27348D01*
X13434Y26348D02*
Y27014D01*
X13767Y27348D01*
X14101Y27014D01*
Y26348D01*
Y26848D01*
X13434D01*
X14434Y26348D02*
Y27348D01*
X14934D01*
X15100Y27181D01*
Y26848D01*
X14934Y26681D01*
X14434D01*
X14767D02*
X15100Y26348D01*
X15434Y27348D02*
Y26348D01*
X15933D01*
X16100Y26515D01*
Y27181D01*
X15933Y27348D01*
X15434D01*
X17433D02*
Y26348D01*
X17766Y26681D01*
X18099Y26348D01*
Y27348D01*
X18433D02*
X18766D01*
X18599D01*
Y26348D01*
X18433D01*
X18766D01*
X19266Y27348D02*
X19932D01*
X19599D01*
Y26348D01*
X20265Y27348D02*
Y26348D01*
Y26848D01*
X20932D01*
Y27348D01*
Y26348D01*
X22931D02*
X22265D01*
X22931Y27014D01*
Y27181D01*
X22765Y27348D01*
X22431D01*
X22265Y27181D01*
X24931D02*
X24764Y27348D01*
X24431D01*
X24264Y27181D01*
Y26515D01*
X24431Y26348D01*
X24764D01*
X24931Y26515D01*
X25264Y27348D02*
Y26515D01*
X25430Y26348D01*
X25764D01*
X25930Y26515D01*
Y27348D01*
X26263D02*
X26930D01*
X26597D01*
Y26348D01*
X27763Y27348D02*
X27430D01*
X27263Y27181D01*
Y26515D01*
X27430Y26348D01*
X27763D01*
X27930Y26515D01*
Y27181D01*
X27763Y27348D01*
X28263D02*
Y26515D01*
X28429Y26348D01*
X28763D01*
X28929Y26515D01*
Y27348D01*
X29262D02*
X29929D01*
X29596D01*
Y26348D01*
X30929Y27181D02*
X30762Y27348D01*
X30429D01*
X30262Y27181D01*
Y27014D01*
X30429Y26848D01*
X30762D01*
X30929Y26681D01*
Y26515D01*
X30762Y26348D01*
X30429D01*
X30262Y26515D01*
X-2727Y29348D02*
X-3394D01*
Y28848D01*
X-3060Y29014D01*
X-2894D01*
X-2727Y28848D01*
Y28515D01*
X-2894Y28348D01*
X-3227D01*
X-3394Y28515D01*
X-2394Y28348D02*
X-2061Y28681D01*
Y29014D01*
X-2394Y29348D01*
X105D02*
X-561D01*
Y28848D01*
X-228D01*
X-561D01*
Y28348D01*
X438Y29348D02*
X772D01*
X605D01*
Y28348D01*
X438D01*
X772D01*
X1271D02*
Y29348D01*
X1938Y28348D01*
Y29348D01*
X2271D02*
X2604D01*
X2438D01*
Y28348D01*
X2271D01*
X2604D01*
X3771Y29181D02*
X3604Y29348D01*
X3271D01*
X3104Y29181D01*
Y29014D01*
X3271Y28848D01*
X3604D01*
X3771Y28681D01*
Y28515D01*
X3604Y28348D01*
X3271D01*
X3104Y28515D01*
X4104Y29348D02*
Y28348D01*
Y28848D01*
X4770D01*
Y29348D01*
Y28348D01*
X6103Y29348D02*
X6436D01*
X6270D01*
Y28348D01*
X6103D01*
X6436D01*
X7603Y29181D02*
X7436Y29348D01*
X7103D01*
X6936Y29181D01*
Y29014D01*
X7103Y28848D01*
X7436D01*
X7603Y28681D01*
Y28515D01*
X7436Y28348D01*
X7103D01*
X6936Y28515D01*
X9602Y29181D02*
X9436Y29348D01*
X9102D01*
X8936Y29181D01*
Y29014D01*
X9102Y28848D01*
X9436D01*
X9602Y28681D01*
Y28515D01*
X9436Y28348D01*
X9102D01*
X8936Y28515D01*
X9935Y28348D02*
Y29348D01*
X10269Y29014D01*
X10602Y29348D01*
Y28348D01*
X11435Y29348D02*
X11102D01*
X10935Y29181D01*
Y28515D01*
X11102Y28348D01*
X11435D01*
X11601Y28515D01*
Y29181D01*
X11435Y29348D01*
X11935D02*
Y28348D01*
X12435D01*
X12601Y28515D01*
Y28681D01*
X12435Y28848D01*
X11935D01*
X12435D01*
X12601Y29014D01*
Y29181D01*
X12435Y29348D01*
X11935D01*
X13601Y29181D02*
X13434Y29348D01*
X13101D01*
X12934Y29181D01*
Y28515D01*
X13101Y28348D01*
X13434D01*
X13601Y28515D01*
X-2894Y30348D02*
Y31348D01*
X-3394Y30848D01*
X-2727D01*
X-2394Y30348D02*
X-2061Y30681D01*
Y31014D01*
X-2394Y31348D01*
X105Y31181D02*
X-61Y31348D01*
X-395D01*
X-561Y31181D01*
Y30515D01*
X-395Y30348D01*
X-61D01*
X105Y30515D01*
X938Y31348D02*
X605D01*
X438Y31181D01*
Y30515D01*
X605Y30348D01*
X938D01*
X1105Y30515D01*
Y31181D01*
X938Y31348D01*
X1438Y30348D02*
Y31348D01*
X1938D01*
X2105Y31181D01*
Y30848D01*
X1938Y30681D01*
X1438D01*
X2438Y30348D02*
Y31348D01*
X2938D01*
X3104Y31181D01*
Y30848D01*
X2938Y30681D01*
X2438D01*
X4104Y31348D02*
X3437D01*
Y30348D01*
X4104D01*
X3437Y30848D02*
X3771D01*
X4437Y30348D02*
Y31348D01*
X4937D01*
X5104Y31181D01*
Y30848D01*
X4937Y30681D01*
X4437D01*
X4770D02*
X5104Y30348D01*
X6436Y31348D02*
Y30348D01*
X6770Y30681D01*
X7103Y30348D01*
Y31348D01*
X8103D02*
X7436D01*
Y30348D01*
X8103D01*
X7436Y30848D02*
X7769D01*
X8436Y31348D02*
X8769D01*
X8602D01*
Y30348D01*
X8436D01*
X8769D01*
X9935Y31181D02*
X9769Y31348D01*
X9436D01*
X9269Y31181D01*
Y30515D01*
X9436Y30348D01*
X9769D01*
X9935Y30515D01*
Y30848D01*
X9602D01*
X10269Y31348D02*
Y30348D01*
Y30848D01*
X10935D01*
Y31348D01*
Y30348D01*
X11268Y31348D02*
X11935D01*
X11601D01*
Y30348D01*
X13268Y31348D02*
X13601D01*
X13434D01*
Y30348D01*
X13268D01*
X13601D01*
X14767Y31181D02*
X14601Y31348D01*
X14267D01*
X14101Y31181D01*
Y31014D01*
X14267Y30848D01*
X14601D01*
X14767Y30681D01*
Y30515D01*
X14601Y30348D01*
X14267D01*
X14101Y30515D01*
X16100Y30348D02*
X16433D01*
X16267D01*
Y31348D01*
X16100Y31181D01*
X18433Y31348D02*
X18099D01*
X17933Y31181D01*
Y30515D01*
X18099Y30348D01*
X18433D01*
X18599Y30515D01*
Y31181D01*
X18433Y31348D01*
X18932D02*
Y30515D01*
X19099Y30348D01*
X19432D01*
X19599Y30515D01*
Y31348D01*
X19932Y30348D02*
Y31348D01*
X20599Y30348D01*
Y31348D01*
X21598Y31181D02*
X21432Y31348D01*
X21098D01*
X20932Y31181D01*
Y30515D01*
X21098Y30348D01*
X21432D01*
X21598Y30515D01*
X22598Y31348D02*
X21931D01*
Y30348D01*
X22598D01*
X21931Y30848D02*
X22265D01*
X-3394Y33181D02*
X-3227Y33348D01*
X-2894D01*
X-2727Y33181D01*
Y33014D01*
X-2894Y32848D01*
X-3060D01*
X-2894D01*
X-2727Y32681D01*
Y32515D01*
X-2894Y32348D01*
X-3227D01*
X-3394Y32515D01*
X-2394Y32348D02*
X-2061Y32681D01*
Y33014D01*
X-2394Y33348D01*
X105D02*
X-228Y33181D01*
X-561Y32848D01*
Y32515D01*
X-395Y32348D01*
X-61D01*
X105Y32515D01*
Y32681D01*
X-61Y32848D01*
X-561D01*
X1438Y33348D02*
Y32348D01*
X2105D01*
X2438D02*
Y33014D01*
X2771Y33348D01*
X3104Y33014D01*
Y32348D01*
Y32848D01*
X2438D01*
X3437Y33348D02*
Y33181D01*
X3771Y32848D01*
X4104Y33181D01*
Y33348D01*
X3771Y32848D02*
Y32348D01*
X5104Y33348D02*
X4437D01*
Y32348D01*
X5104D01*
X4437Y32848D02*
X4770D01*
X5437Y32348D02*
Y33348D01*
X5937D01*
X6103Y33181D01*
Y32848D01*
X5937Y32681D01*
X5437D01*
X5770D02*
X6103Y32348D01*
X7436Y33348D02*
Y32348D01*
X7936D01*
X8103Y32515D01*
Y32681D01*
X7936Y32848D01*
X7436D01*
X7936D01*
X8103Y33014D01*
Y33181D01*
X7936Y33348D01*
X7436D01*
X8936D02*
X8602D01*
X8436Y33181D01*
Y32515D01*
X8602Y32348D01*
X8936D01*
X9102Y32515D01*
Y33181D01*
X8936Y33348D01*
X9436Y32348D02*
Y33014D01*
X9769Y33348D01*
X10102Y33014D01*
Y32348D01*
Y32848D01*
X9436D01*
X10435Y32348D02*
Y33348D01*
X10935D01*
X11102Y33181D01*
Y32848D01*
X10935Y32681D01*
X10435D01*
X10768D02*
X11102Y32348D01*
X11435Y33348D02*
Y32348D01*
X11935D01*
X12101Y32515D01*
Y33181D01*
X11935Y33348D01*
X11435D01*
X13434D02*
Y32348D01*
X13767Y32681D01*
X14101Y32348D01*
Y33348D01*
X14434D02*
X14767D01*
X14601D01*
Y32348D01*
X14434D01*
X14767D01*
X15267Y33348D02*
X15933D01*
X15600D01*
Y32348D01*
X16267Y33348D02*
Y32348D01*
Y32848D01*
X16933D01*
Y33348D01*
Y32348D01*
X18266Y33348D02*
X18932D01*
X18599D01*
Y32348D01*
X19765Y33348D02*
X19432D01*
X19266Y33181D01*
Y32515D01*
X19432Y32348D01*
X19765D01*
X19932Y32515D01*
Y33181D01*
X19765Y33348D01*
X20265D02*
X20932D01*
X20599D01*
Y32348D01*
X21265D02*
Y33014D01*
X21598Y33348D01*
X21931Y33014D01*
Y32348D01*
Y32848D01*
X21265D01*
X22265Y33348D02*
Y32348D01*
X22931D01*
X24264Y33348D02*
X24931D01*
X24597D01*
Y32348D01*
X25264Y33348D02*
Y32348D01*
Y32848D01*
X25930D01*
Y33348D01*
Y32348D01*
X26263Y33348D02*
X26597D01*
X26430D01*
Y32348D01*
X26263D01*
X26597D01*
X27763Y33181D02*
X27596Y33348D01*
X27263D01*
X27096Y33181D01*
Y32515D01*
X27263Y32348D01*
X27596D01*
X27763Y32515D01*
X28096Y33348D02*
Y32348D01*
Y32681D01*
X28763Y33348D01*
X28263Y32848D01*
X28763Y32348D01*
X29096D02*
Y33348D01*
X29762Y32348D01*
Y33348D01*
X30762D02*
X30096D01*
Y32348D01*
X30762D01*
X30096Y32848D02*
X30429D01*
X31762Y33181D02*
X31595Y33348D01*
X31262D01*
X31095Y33181D01*
Y33014D01*
X31262Y32848D01*
X31595D01*
X31762Y32681D01*
Y32515D01*
X31595Y32348D01*
X31262D01*
X31095Y32515D01*
X32761Y33181D02*
X32595Y33348D01*
X32261D01*
X32095Y33181D01*
Y33014D01*
X32261Y32848D01*
X32595D01*
X32761Y32681D01*
Y32515D01*
X32595Y32348D01*
X32261D01*
X32095Y32515D01*
X34594Y33348D02*
X34261D01*
X34094Y33181D01*
Y32515D01*
X34261Y32348D01*
X34594D01*
X34761Y32515D01*
Y33181D01*
X34594Y33348D01*
X35760D02*
X35094D01*
Y32848D01*
X35427D01*
X35094D01*
Y32348D01*
X37093D02*
Y32515D01*
X37260D01*
Y32348D01*
X37093D01*
X37926Y33181D02*
X38093Y33348D01*
X38426D01*
X38593Y33181D01*
Y32515D01*
X38426Y32348D01*
X38093D01*
X37926Y32515D01*
Y33181D01*
X38926D02*
X39093Y33348D01*
X39426D01*
X39592Y33181D01*
Y33014D01*
X39426Y32848D01*
X39259D01*
X39426D01*
X39592Y32681D01*
Y32515D01*
X39426Y32348D01*
X39093D01*
X38926Y32515D01*
X40592Y33348D02*
X40259Y33181D01*
X39926Y32848D01*
Y32515D01*
X40092Y32348D01*
X40425D01*
X40592Y32515D01*
Y32681D01*
X40425Y32848D01*
X39926D01*
X-3394Y18348D02*
X-3060D01*
X-3227D01*
Y19348D01*
X-3394Y19181D01*
X-2561D02*
X-2394Y19348D01*
X-2061D01*
X-1894Y19181D01*
Y18515D01*
X-2061Y18348D01*
X-2394D01*
X-2561Y18515D01*
Y19181D01*
X-1561Y18348D02*
X-1228Y18681D01*
Y19014D01*
X-1561Y19348D01*
X938Y19181D02*
X772Y19348D01*
X438D01*
X272Y19181D01*
Y18515D01*
X438Y18348D01*
X772D01*
X938Y18515D01*
Y18848D01*
X605D01*
X1271Y18348D02*
Y19348D01*
X1771D01*
X1938Y19181D01*
Y18848D01*
X1771Y18681D01*
X1271D01*
X1605D02*
X1938Y18348D01*
X2938Y19348D02*
X2271D01*
Y18348D01*
X2938D01*
X2271Y18848D02*
X2604D01*
X3937Y19348D02*
X3271D01*
Y18348D01*
X3937D01*
X3271Y18848D02*
X3604D01*
X4271Y18348D02*
Y19348D01*
X4937Y18348D01*
Y19348D01*
X6936Y19181D02*
X6770Y19348D01*
X6436D01*
X6270Y19181D01*
Y19014D01*
X6436Y18848D01*
X6770D01*
X6936Y18681D01*
Y18515D01*
X6770Y18348D01*
X6436D01*
X6270Y18515D01*
X7769Y19348D02*
X7436D01*
X7270Y19181D01*
Y18515D01*
X7436Y18348D01*
X7769D01*
X7936Y18515D01*
Y19181D01*
X7769Y19348D01*
X8269D02*
Y18348D01*
X8936D01*
X9269Y19348D02*
Y18348D01*
X9769D01*
X9935Y18515D01*
Y19181D01*
X9769Y19348D01*
X9269D01*
X10935D02*
X10269D01*
Y18348D01*
X10935D01*
X10269Y18848D02*
X10602D01*
X11268Y18348D02*
Y19348D01*
X11768D01*
X11935Y19181D01*
Y18848D01*
X11768Y18681D01*
X11268D01*
X11601D02*
X11935Y18348D01*
X13268D02*
Y19348D01*
X13601Y19014D01*
X13934Y19348D01*
Y18348D01*
X14267D02*
Y19014D01*
X14601Y19348D01*
X14934Y19014D01*
Y18348D01*
Y18848D01*
X14267D01*
X15933Y19181D02*
X15767Y19348D01*
X15434D01*
X15267Y19181D01*
Y19014D01*
X15434Y18848D01*
X15767D01*
X15933Y18681D01*
Y18515D01*
X15767Y18348D01*
X15434D01*
X15267Y18515D01*
X16267Y19348D02*
Y18348D01*
Y18681D01*
X16933Y19348D01*
X16433Y18848D01*
X16933Y18348D01*
X18266Y19348D02*
Y18348D01*
X18766D01*
X18932Y18515D01*
Y18681D01*
X18766Y18848D01*
X18266D01*
X18766D01*
X18932Y19014D01*
Y19181D01*
X18766Y19348D01*
X18266D01*
X19766D02*
X19432D01*
X19266Y19181D01*
Y18515D01*
X19432Y18348D01*
X19766D01*
X19932Y18515D01*
Y19181D01*
X19766Y19348D01*
X20265D02*
X20932D01*
X20599D01*
Y18348D01*
X21265Y19348D02*
Y18348D01*
Y18848D01*
X21931D01*
Y19348D01*
Y18348D01*
X23931Y19181D02*
X23764Y19348D01*
X23431D01*
X23264Y19181D01*
Y19014D01*
X23431Y18848D01*
X23764D01*
X23931Y18681D01*
Y18515D01*
X23764Y18348D01*
X23431D01*
X23264Y18515D01*
X24264Y19348D02*
X24597D01*
X24431D01*
Y18348D01*
X24264D01*
X24597D01*
X25097Y19348D02*
Y18348D01*
X25597D01*
X25764Y18515D01*
Y19181D01*
X25597Y19348D01*
X25097D01*
X26763D02*
X26097D01*
Y18348D01*
X26763D01*
X26097Y18848D02*
X26430D01*
X27763Y19181D02*
X27596Y19348D01*
X27263D01*
X27096Y19181D01*
Y19014D01*
X27263Y18848D01*
X27596D01*
X27763Y18681D01*
Y18515D01*
X27596Y18348D01*
X27263D01*
X27096Y18515D01*
X-3394Y38348D02*
Y39348D01*
X-2727Y38348D01*
Y39348D01*
X-1894D02*
X-2227D01*
X-2394Y39181D01*
Y38515D01*
X-2227Y38348D01*
X-1894D01*
X-1728Y38515D01*
Y39181D01*
X-1894Y39348D01*
X-1394D02*
X-728D01*
X-1061D01*
Y38348D01*
X272Y39348D02*
X-395D01*
Y38348D01*
X272D01*
X-395Y38848D02*
X-61D01*
X1271Y39181D02*
X1105Y39348D01*
X772D01*
X605Y39181D01*
Y39014D01*
X772Y38848D01*
X1105D01*
X1271Y38681D01*
Y38515D01*
X1105Y38348D01*
X772D01*
X605Y38515D01*
X-3394Y36348D02*
X-3060D01*
X-3227D01*
Y37348D01*
X-3394Y37181D01*
X-2561Y36348D02*
X-2227Y36681D01*
Y37014D01*
X-2561Y37348D01*
X-728D02*
Y36348D01*
X-228D01*
X-61Y36515D01*
Y36681D01*
X-228Y36848D01*
X-728D01*
X-228D01*
X-61Y37014D01*
Y37181D01*
X-228Y37348D01*
X-728D01*
X772D02*
X438D01*
X272Y37181D01*
Y36515D01*
X438Y36348D01*
X772D01*
X938Y36515D01*
Y37181D01*
X772Y37348D01*
X1271Y36348D02*
Y37014D01*
X1605Y37348D01*
X1938Y37014D01*
Y36348D01*
Y36848D01*
X1271D01*
X2271Y36348D02*
Y37348D01*
X2771D01*
X2938Y37181D01*
Y36848D01*
X2771Y36681D01*
X2271D01*
X2604D02*
X2938Y36348D01*
X3271Y37348D02*
Y36348D01*
X3771D01*
X3937Y36515D01*
Y37181D01*
X3771Y37348D01*
X3271D01*
X5270Y36348D02*
Y37348D01*
X5603Y37014D01*
X5937Y37348D01*
Y36348D01*
X6936Y37348D02*
X6270D01*
Y36348D01*
X6936D01*
X6270Y36848D02*
X6603D01*
X7270Y36348D02*
Y37014D01*
X7603Y37348D01*
X7936Y37014D01*
Y36348D01*
Y36848D01*
X7270D01*
X8936Y37181D02*
X8769Y37348D01*
X8436D01*
X8269Y37181D01*
Y37014D01*
X8436Y36848D01*
X8769D01*
X8936Y36681D01*
Y36515D01*
X8769Y36348D01*
X8436D01*
X8269Y36515D01*
X9269Y37348D02*
Y36515D01*
X9436Y36348D01*
X9769D01*
X9935Y36515D01*
Y37348D01*
X10269Y36348D02*
Y37348D01*
X10768D01*
X10935Y37181D01*
Y36848D01*
X10768Y36681D01*
X10269D01*
X10602D02*
X10935Y36348D01*
X11935Y37348D02*
X11268D01*
Y36348D01*
X11935D01*
X11268Y36848D02*
X11601D01*
X12934Y37181D02*
X12768Y37348D01*
X12435D01*
X12268Y37181D01*
Y37014D01*
X12435Y36848D01*
X12768D01*
X12934Y36681D01*
Y36515D01*
X12768Y36348D01*
X12435D01*
X12268Y36515D01*
X14934Y36348D02*
X14267D01*
X14934Y37014D01*
Y37181D01*
X14767Y37348D01*
X14434D01*
X14267Y37181D01*
X15267Y36348D02*
Y36515D01*
X15434D01*
Y36348D01*
X15267D01*
X16100Y36515D02*
X16267Y36348D01*
X16600D01*
X16766Y36515D01*
Y37181D01*
X16600Y37348D01*
X16267D01*
X16100Y37181D01*
Y37014D01*
X16267Y36848D01*
X16766D01*
X17100Y36515D02*
X17266Y36348D01*
X17600D01*
X17766Y36515D01*
Y37181D01*
X17600Y37348D01*
X17266D01*
X17100Y37181D01*
Y37014D01*
X17266Y36848D01*
X17766D01*
X18099Y37181D02*
X18266Y37348D01*
X18599D01*
X18766Y37181D01*
Y36515D01*
X18599Y36348D01*
X18266D01*
X18099Y36515D01*
Y37181D01*
X20099Y37348D02*
X20765Y36348D01*
Y37348D02*
X20099Y36348D01*
X23098D02*
X23431D01*
X23264D01*
Y37348D01*
X23098Y37181D01*
X23931Y36348D02*
Y36515D01*
X24097D01*
Y36348D01*
X23931D01*
X25264D02*
Y37348D01*
X24764Y36848D01*
X25430D01*
X25764Y36515D02*
X25930Y36348D01*
X26263D01*
X26430Y36515D01*
Y37181D01*
X26263Y37348D01*
X25930D01*
X25764Y37181D01*
Y37014D01*
X25930Y36848D01*
X26430D01*
X26763Y37181D02*
X26930Y37348D01*
X27263D01*
X27430Y37181D01*
Y36515D01*
X27263Y36348D01*
X26930D01*
X26763Y36515D01*
Y37181D01*
X28763Y37348D02*
X29096D01*
X28929D01*
Y36348D01*
X28763D01*
X29096D01*
X29596D02*
Y37348D01*
X30262Y36348D01*
Y37348D01*
D54*
X3511Y12323D02*
X3558Y12347D01*
X3606Y12394D01*
X3630Y12442D01*
Y12537D01*
X3606Y12585D01*
X3558Y12632D01*
X3511Y12656D01*
X3439Y12680D01*
X3320D01*
X3249Y12656D01*
X3201Y12632D01*
X3154Y12585D01*
X3130Y12537D01*
Y12442D01*
X3154Y12394D01*
X3201Y12347D01*
X3249Y12323D01*
X3463Y12063D02*
X3439Y12111D01*
X3392Y12159D01*
X3320Y12182D01*
X3273D01*
X3201Y12159D01*
X3154Y12111D01*
X3130Y12063D01*
Y11992D01*
X3154Y11944D01*
X3201Y11897D01*
X3273Y11873D01*
X3320D01*
X3392Y11897D01*
X3439Y11944D01*
X3463Y11992D01*
Y12063D01*
Y11764D02*
X3130D01*
X3368D02*
X3439Y11692D01*
X3463Y11645D01*
Y11573D01*
X3439Y11525D01*
X3368Y11502D01*
X3130D01*
X3368D02*
X3439Y11430D01*
X3463Y11383D01*
Y11311D01*
X3439Y11264D01*
X3368Y11240D01*
X3130D01*
X3463Y11083D02*
X2963D01*
X3392D02*
X3439Y11035D01*
X3463Y10988D01*
Y10916D01*
X3439Y10868D01*
X3392Y10821D01*
X3320Y10797D01*
X3273D01*
X3201Y10821D01*
X3154Y10868D01*
X3130Y10916D01*
Y10988D01*
X3154Y11035D01*
X3201Y11083D01*
X3463Y10404D02*
X3130D01*
X3392D02*
X3439Y10452D01*
X3463Y10500D01*
Y10571D01*
X3439Y10619D01*
X3392Y10666D01*
X3320Y10690D01*
X3273D01*
X3201Y10666D01*
X3154Y10619D01*
X3130Y10571D01*
Y10500D01*
X3154Y10452D01*
X3201Y10404D01*
X3392Y9985D02*
X3439Y10033D01*
X3463Y10081D01*
Y10152D01*
X3439Y10200D01*
X3392Y10247D01*
X3320Y10271D01*
X3273D01*
X3201Y10247D01*
X3154Y10200D01*
X3130Y10152D01*
Y10081D01*
X3154Y10033D01*
X3201Y9985D01*
X3630Y9807D02*
X3225D01*
X3154Y9783D01*
X3130Y9735D01*
Y9688D01*
X3463Y9878D02*
Y9712D01*
X3630Y9224D02*
X3130D01*
X3630D02*
Y8914D01*
X3392Y9224D02*
Y9033D01*
X3630Y8857D02*
X3130D01*
X3463Y8467D02*
X3130D01*
X3392D02*
X3439Y8514D01*
X3463Y8562D01*
Y8633D01*
X3439Y8681D01*
X3392Y8728D01*
X3320Y8752D01*
X3273D01*
X3201Y8728D01*
X3154Y8681D01*
X3130Y8633D01*
Y8562D01*
X3154Y8514D01*
X3201Y8467D01*
X3392Y8071D02*
X3439Y8095D01*
X3463Y8167D01*
Y8238D01*
X3439Y8310D01*
X3392Y8333D01*
X3344Y8310D01*
X3320Y8262D01*
X3297Y8143D01*
X3273Y8095D01*
X3225Y8071D01*
X3201D01*
X3154Y8095D01*
X3130Y8167D01*
Y8238D01*
X3154Y8310D01*
X3201Y8333D01*
X3630Y7967D02*
X3130D01*
X3368D02*
X3439Y7895D01*
X3463Y7848D01*
Y7776D01*
X3439Y7729D01*
X3368Y7705D01*
X3130D01*
X3630Y7181D02*
X3130D01*
X3630D02*
Y6967D01*
X3606Y6896D01*
X3582Y6872D01*
X3535Y6848D01*
X3487D01*
X3439Y6872D01*
X3416Y6896D01*
X3392Y6967D01*
Y7181D01*
Y7015D02*
X3130Y6848D01*
X3320Y6736D02*
Y6450D01*
X3368D01*
X3416Y6474D01*
X3439Y6498D01*
X3463Y6546D01*
Y6617D01*
X3439Y6665D01*
X3392Y6712D01*
X3320Y6736D01*
X3273D01*
X3201Y6712D01*
X3154Y6665D01*
X3130Y6617D01*
Y6546D01*
X3154Y6498D01*
X3201Y6450D01*
X3463Y6058D02*
X3130D01*
X3392D02*
X3439Y6105D01*
X3463Y6153D01*
Y6224D01*
X3439Y6272D01*
X3392Y6319D01*
X3320Y6343D01*
X3273D01*
X3201Y6319D01*
X3154Y6272D01*
X3130Y6224D01*
Y6153D01*
X3154Y6105D01*
X3201Y6058D01*
X3630Y5639D02*
X3130D01*
X3392D02*
X3439Y5686D01*
X3463Y5734D01*
Y5805D01*
X3439Y5853D01*
X3392Y5900D01*
X3320Y5924D01*
X3273D01*
X3201Y5900D01*
X3154Y5853D01*
X3130Y5805D01*
Y5734D01*
X3154Y5686D01*
X3201Y5639D01*
X3320Y5505D02*
Y5220D01*
X3368D01*
X3416Y5243D01*
X3439Y5267D01*
X3463Y5315D01*
Y5386D01*
X3439Y5434D01*
X3392Y5482D01*
X3320Y5505D01*
X3273D01*
X3201Y5482D01*
X3154Y5434D01*
X3130Y5386D01*
Y5315D01*
X3154Y5267D01*
X3201Y5220D01*
X3463Y5113D02*
X3130D01*
X3320D02*
X3392Y5089D01*
X3439Y5041D01*
X3463Y4994D01*
Y4922D01*
X2360Y11279D02*
X2860Y11470D01*
X2360Y11660D01*
X2527Y11589D02*
Y11351D01*
X2622Y10877D02*
X2669Y10924D01*
X2693Y10972D01*
Y11043D01*
X2669Y11091D01*
X2622Y11139D01*
X2550Y11162D01*
X2503D01*
X2431Y11139D01*
X2384Y11091D01*
X2360Y11043D01*
Y10972D01*
X2384Y10924D01*
X2431Y10877D01*
X2860Y10698D02*
X2455D01*
X2384Y10675D01*
X2360Y10627D01*
Y10579D01*
X2693Y10770D02*
Y10603D01*
X2860Y10460D02*
X2836Y10436D01*
X2860Y10413D01*
X2884Y10436D01*
X2860Y10460D01*
X2693Y10436D02*
X2360D01*
X2693Y10325D02*
X2360Y10182D01*
X2693Y10039D02*
X2360Y10182D01*
X2550Y9958D02*
Y9672D01*
X2598D01*
X2646Y9696D01*
X2669Y9720D01*
X2693Y9768D01*
Y9839D01*
X2669Y9887D01*
X2622Y9934D01*
X2550Y9958D01*
X2503D01*
X2431Y9934D01*
X2384Y9887D01*
X2360Y9839D01*
Y9768D01*
X2384Y9720D01*
X2431Y9672D01*
X2860Y9172D02*
X2360Y9053D01*
X2860Y8934D02*
X2360Y9053D01*
X2860Y8934D02*
X2360Y8815D01*
X2860Y8696D02*
X2360Y8815D01*
X2693Y8311D02*
X2360D01*
X2622D02*
X2669Y8358D01*
X2693Y8406D01*
Y8477D01*
X2669Y8525D01*
X2622Y8573D01*
X2550Y8596D01*
X2503D01*
X2431Y8573D01*
X2384Y8525D01*
X2360Y8477D01*
Y8406D01*
X2384Y8358D01*
X2431Y8311D01*
X2693Y8177D02*
X2360Y8035D01*
X2693Y7892D02*
X2360Y8035D01*
X2550Y7811D02*
Y7525D01*
X2598D01*
X2646Y7549D01*
X2669Y7573D01*
X2693Y7620D01*
Y7692D01*
X2669Y7739D01*
X2622Y7787D01*
X2550Y7811D01*
X2503D01*
X2431Y7787D01*
X2384Y7739D01*
X2360Y7692D01*
Y7620D01*
X2384Y7573D01*
X2431Y7525D01*
X2860Y7025D02*
X2360D01*
X2860Y6921D02*
X2360D01*
X2860D02*
X2360Y6587D01*
X2860D02*
X2360D01*
X2741Y6092D02*
X2788Y6116D01*
X2836Y6164D01*
X2860Y6211D01*
Y6306D01*
X2836Y6354D01*
X2788Y6402D01*
X2741Y6425D01*
X2669Y6449D01*
X2550D01*
X2479Y6425D01*
X2431Y6402D01*
X2384Y6354D01*
X2360Y6306D01*
Y6211D01*
X2384Y6164D01*
X2431Y6116D01*
X2479Y6092D01*
X2050Y11660D02*
X1550D01*
X2050D02*
Y11446D01*
X2026Y11374D01*
X2002Y11351D01*
X1955Y11327D01*
X1907D01*
X1859Y11351D01*
X1836Y11374D01*
X1812Y11446D01*
Y11660D01*
Y11493D02*
X1550Y11327D01*
X2050Y10905D02*
Y11215D01*
X1550D01*
Y10905D01*
X1812Y11215D02*
Y11024D01*
X2050Y10822D02*
X1550Y10632D01*
X2050Y10441D02*
X1550Y10632D01*
X1598Y10353D02*
X1574Y10377D01*
X1550Y10353D01*
X1574Y10329D01*
X1598Y10353D01*
X1931Y10196D02*
X1955D01*
X2002Y10172D01*
X2026Y10148D01*
X2050Y10101D01*
Y10006D01*
X2026Y9958D01*
X2002Y9934D01*
X1955Y9910D01*
X1907D01*
X1859Y9934D01*
X1788Y9982D01*
X1550Y10220D01*
Y9887D01*
X-2819Y-12745D02*
X-2768Y-12719D01*
X-2692Y-12643D01*
Y-13176D01*
X-2276Y-12643D02*
X-2352Y-12669D01*
X-2403Y-12745D01*
X-2428Y-12872D01*
Y-12948D01*
X-2403Y-13075D01*
X-2352Y-13151D01*
X-2276Y-13176D01*
X-2225D01*
X-2149Y-13151D01*
X-2098Y-13075D01*
X-2073Y-12948D01*
Y-12872D01*
X-2098Y-12745D01*
X-2149Y-12669D01*
X-2225Y-12643D01*
X-2276D01*
X-1953Y-13253D02*
X-1598Y-12643D01*
X-1410D02*
X-1486Y-12669D01*
X-1537Y-12745D01*
X-1562Y-12872D01*
Y-12948D01*
X-1537Y-13075D01*
X-1486Y-13151D01*
X-1410Y-13176D01*
X-1359D01*
X-1283Y-13151D01*
X-1232Y-13075D01*
X-1207Y-12948D01*
Y-12872D01*
X-1232Y-12745D01*
X-1283Y-12669D01*
X-1359Y-12643D01*
X-1410D01*
X-732D02*
X-986Y-13176D01*
X-1087Y-12643D02*
X-732D01*
X225D02*
Y-13176D01*
X581Y-12643D02*
X225Y-12999D01*
X352Y-12872D02*
X581Y-13176D01*
X700Y-12643D02*
Y-13176D01*
X1056Y-12643D02*
X700Y-12999D01*
X827Y-12872D02*
X1056Y-13176D01*
D55*
X-3594Y37898D02*
X1506D01*
D57*
X21629Y-14208D02*
X21552Y-14233D01*
X21502Y-14309D01*
X21476Y-14436D01*
Y-14512D01*
X21502Y-14639D01*
X21552Y-14716D01*
X21629Y-14741D01*
X21679D01*
X21755Y-14716D01*
X21806Y-14639D01*
X21832Y-14512D01*
Y-14436D01*
X21806Y-14309D01*
X21755Y-14233D01*
X21679Y-14208D01*
X21629D01*
X21976Y-14335D02*
Y-14309D01*
X22002Y-14258D01*
X22027Y-14233D01*
X22078Y-14208D01*
X22180D01*
X22230Y-14233D01*
X22256Y-14258D01*
X22281Y-14309D01*
Y-14360D01*
X22256Y-14411D01*
X22205Y-14487D01*
X21951Y-14741D01*
X22306D01*
X6350Y-10396D02*
X6305Y-10305D01*
X6213Y-10213D01*
X6122Y-10168D01*
X5939D01*
X5848Y-10213D01*
X5756Y-10305D01*
X5711Y-10396D01*
X5665Y-10533D01*
Y-10762D01*
X5711Y-10899D01*
X5756Y-10990D01*
X5848Y-11082D01*
X5939Y-11127D01*
X6122D01*
X6213Y-11082D01*
X6305Y-10990D01*
X6350Y-10899D01*
X6849Y-10487D02*
X6757Y-10533D01*
X6666Y-10625D01*
X6620Y-10762D01*
Y-10853D01*
X6666Y-10990D01*
X6757Y-11082D01*
X6849Y-11127D01*
X6986D01*
X7077Y-11082D01*
X7169Y-10990D01*
X7214Y-10853D01*
Y-10762D01*
X7169Y-10625D01*
X7077Y-10533D01*
X6986Y-10487D01*
X6849D01*
X7425D02*
Y-11127D01*
Y-10670D02*
X7562Y-10533D01*
X7653Y-10487D01*
X7790D01*
X7882Y-10533D01*
X7927Y-10670D01*
Y-11127D01*
Y-10670D02*
X8064Y-10533D01*
X8156Y-10487D01*
X8293D01*
X8384Y-10533D01*
X8430Y-10670D01*
Y-11127D01*
X8732Y-10487D02*
Y-11447D01*
Y-10625D02*
X8823Y-10533D01*
X8914Y-10487D01*
X9052D01*
X9143Y-10533D01*
X9234Y-10625D01*
X9280Y-10762D01*
Y-10853D01*
X9234Y-10990D01*
X9143Y-11082D01*
X9052Y-11127D01*
X8914D01*
X8823Y-11082D01*
X8732Y-10990D01*
X10034Y-10487D02*
Y-11127D01*
Y-10625D02*
X9943Y-10533D01*
X9851Y-10487D01*
X9714D01*
X9623Y-10533D01*
X9532Y-10625D01*
X9486Y-10762D01*
Y-10853D01*
X9532Y-10990D01*
X9623Y-11082D01*
X9714Y-11127D01*
X9851D01*
X9943Y-11082D01*
X10034Y-10990D01*
X10839Y-10625D02*
X10747Y-10533D01*
X10656Y-10487D01*
X10519D01*
X10427Y-10533D01*
X10336Y-10625D01*
X10290Y-10762D01*
Y-10853D01*
X10336Y-10990D01*
X10427Y-11082D01*
X10519Y-11127D01*
X10656D01*
X10747Y-11082D01*
X10839Y-10990D01*
X11181Y-10168D02*
Y-10944D01*
X11227Y-11082D01*
X11319Y-11127D01*
X11410D01*
X11044Y-10487D02*
X11364D01*
X12301Y-10168D02*
Y-11127D01*
Y-10168D02*
X12895D01*
X12301Y-10625D02*
X12667D01*
X13005Y-10168D02*
Y-11127D01*
X13755Y-10487D02*
Y-11127D01*
Y-10625D02*
X13663Y-10533D01*
X13572Y-10487D01*
X13435D01*
X13343Y-10533D01*
X13252Y-10625D01*
X13206Y-10762D01*
Y-10853D01*
X13252Y-10990D01*
X13343Y-11082D01*
X13435Y-11127D01*
X13572D01*
X13663Y-11082D01*
X13755Y-10990D01*
X14513Y-10625D02*
X14468Y-10533D01*
X14330Y-10487D01*
X14193D01*
X14056Y-10533D01*
X14011Y-10625D01*
X14056Y-10716D01*
X14148Y-10762D01*
X14376Y-10807D01*
X14468Y-10853D01*
X14513Y-10944D01*
Y-10990D01*
X14468Y-11082D01*
X14330Y-11127D01*
X14193D01*
X14056Y-11082D01*
X14011Y-10990D01*
X14714Y-10168D02*
Y-11127D01*
Y-10670D02*
X14852Y-10533D01*
X14943Y-10487D01*
X15080D01*
X15171Y-10533D01*
X15217Y-10670D01*
Y-11127D01*
X16223Y-10168D02*
Y-11127D01*
Y-10168D02*
X16634D01*
X16771Y-10213D01*
X16817Y-10259D01*
X16863Y-10350D01*
Y-10442D01*
X16817Y-10533D01*
X16771Y-10579D01*
X16634Y-10625D01*
X16223D01*
X16543D02*
X16863Y-11127D01*
X17077Y-10762D02*
X17626D01*
Y-10670D01*
X17580Y-10579D01*
X17534Y-10533D01*
X17443Y-10487D01*
X17306D01*
X17214Y-10533D01*
X17123Y-10625D01*
X17077Y-10762D01*
Y-10853D01*
X17123Y-10990D01*
X17214Y-11082D01*
X17306Y-11127D01*
X17443D01*
X17534Y-11082D01*
X17626Y-10990D01*
X18380Y-10487D02*
Y-11127D01*
Y-10625D02*
X18288Y-10533D01*
X18197Y-10487D01*
X18060D01*
X17969Y-10533D01*
X17877Y-10625D01*
X17831Y-10762D01*
Y-10853D01*
X17877Y-10990D01*
X17969Y-11082D01*
X18060Y-11127D01*
X18197D01*
X18288Y-11082D01*
X18380Y-10990D01*
X19184Y-10168D02*
Y-11127D01*
Y-10625D02*
X19093Y-10533D01*
X19001Y-10487D01*
X18864D01*
X18773Y-10533D01*
X18682Y-10625D01*
X18636Y-10762D01*
Y-10853D01*
X18682Y-10990D01*
X18773Y-11082D01*
X18864Y-11127D01*
X19001D01*
X19093Y-11082D01*
X19184Y-10990D01*
X19440Y-10762D02*
X19989D01*
Y-10670D01*
X19943Y-10579D01*
X19897Y-10533D01*
X19806Y-10487D01*
X19669D01*
X19577Y-10533D01*
X19486Y-10625D01*
X19440Y-10762D01*
Y-10853D01*
X19486Y-10990D01*
X19577Y-11082D01*
X19669Y-11127D01*
X19806D01*
X19897Y-11082D01*
X19989Y-10990D01*
X20194Y-10487D02*
Y-11127D01*
Y-10762D02*
X20240Y-10625D01*
X20331Y-10533D01*
X20423Y-10487D01*
X20560D01*
X4382Y-7316D02*
X4017Y-6356D01*
X3651Y-7316D01*
X3788Y-6996D02*
X4245D01*
X5155Y-6813D02*
X5063Y-6722D01*
X4972Y-6676D01*
X4835D01*
X4744Y-6722D01*
X4652Y-6813D01*
X4606Y-6950D01*
Y-7042D01*
X4652Y-7179D01*
X4744Y-7270D01*
X4835Y-7316D01*
X4972D01*
X5063Y-7270D01*
X5155Y-7179D01*
X5498Y-6356D02*
Y-7133D01*
X5543Y-7270D01*
X5635Y-7316D01*
X5726D01*
X5361Y-6676D02*
X5680D01*
X5955Y-6356D02*
X6000Y-6402D01*
X6046Y-6356D01*
X6000Y-6310D01*
X5955Y-6356D01*
X6000Y-6676D02*
Y-7316D01*
X6215Y-6676D02*
X6489Y-7316D01*
X6764Y-6676D02*
X6489Y-7316D01*
X6919Y-6950D02*
X7467D01*
Y-6859D01*
X7422Y-6767D01*
X7376Y-6722D01*
X7285Y-6676D01*
X7148D01*
X7056Y-6722D01*
X6965Y-6813D01*
X6919Y-6950D01*
Y-7042D01*
X6965Y-7179D01*
X7056Y-7270D01*
X7148Y-7316D01*
X7285D01*
X7376Y-7270D01*
X7467Y-7179D01*
X8427Y-6356D02*
X8656Y-7316D01*
X8884Y-6356D02*
X8656Y-7316D01*
X8884Y-6356D02*
X9113Y-7316D01*
X9341Y-6356D02*
X9113Y-7316D01*
X10082Y-6676D02*
Y-7316D01*
Y-6813D02*
X9990Y-6722D01*
X9899Y-6676D01*
X9762D01*
X9670Y-6722D01*
X9579Y-6813D01*
X9533Y-6950D01*
Y-7042D01*
X9579Y-7179D01*
X9670Y-7270D01*
X9762Y-7316D01*
X9899D01*
X9990Y-7270D01*
X10082Y-7179D01*
X10338Y-6676D02*
X10612Y-7316D01*
X10886Y-6676D02*
X10612Y-7316D01*
X11042Y-6950D02*
X11590D01*
Y-6859D01*
X11544Y-6767D01*
X11499Y-6722D01*
X11407Y-6676D01*
X11270D01*
X11179Y-6722D01*
X11087Y-6813D01*
X11042Y-6950D01*
Y-7042D01*
X11087Y-7179D01*
X11179Y-7270D01*
X11270Y-7316D01*
X11407D01*
X11499Y-7270D01*
X11590Y-7179D01*
X28499Y-14089D02*
X28550Y-14063D01*
X28626Y-13987D01*
Y-14521D01*
X29042Y-13987D02*
X28966Y-14013D01*
X28915Y-14089D01*
X28890Y-14216D01*
Y-14292D01*
X28915Y-14419D01*
X28966Y-14495D01*
X29042Y-14521D01*
X29093D01*
X29169Y-14495D01*
X29220Y-14419D01*
X29245Y-14292D01*
Y-14216D01*
X29220Y-14089D01*
X29169Y-14013D01*
X29093Y-13987D01*
X29042D01*
X29365Y-14597D02*
X29720Y-13987D01*
X29756Y-14089D02*
X29807Y-14063D01*
X29883Y-13987D01*
Y-14521D01*
X30147Y-14597D02*
X30502Y-13987D01*
X30690D02*
X30614Y-14013D01*
X30563Y-14089D01*
X30538Y-14216D01*
Y-14292D01*
X30563Y-14419D01*
X30614Y-14495D01*
X30690Y-14521D01*
X30741D01*
X30817Y-14495D01*
X30868Y-14419D01*
X30893Y-14292D01*
Y-14216D01*
X30868Y-14089D01*
X30817Y-14013D01*
X30741Y-13987D01*
X30690D01*
X31368D02*
X31114Y-14521D01*
X31013Y-13987D02*
X31368D01*
D58*
X24351Y-13458D02*
Y-13991D01*
Y-13458D02*
X24529D01*
X24605Y-13483D01*
X24656Y-13534D01*
X24681Y-13585D01*
X24707Y-13661D01*
Y-13788D01*
X24681Y-13864D01*
X24656Y-13915D01*
X24605Y-13966D01*
X24529Y-13991D01*
X24351D01*
X25232D02*
X25029Y-13458D01*
X24826Y-13991D01*
X24902Y-13813D02*
X25156D01*
X25534Y-13458D02*
Y-13991D01*
X25357Y-13458D02*
X25712D01*
X26106D02*
X25776D01*
Y-13991D01*
X26106D01*
X25776Y-13712D02*
X25979D01*
X26220Y-13635D02*
X26195Y-13661D01*
X26220Y-13686D01*
X26245Y-13661D01*
X26220Y-13635D01*
Y-13940D02*
X26195Y-13966D01*
X26220Y-13991D01*
X26245Y-13966D01*
X26220Y-13940D01*
X19726Y-13458D02*
Y-13991D01*
Y-13458D02*
X19955D01*
X20031Y-13483D01*
X20056Y-13508D01*
X20082Y-13559D01*
Y-13610D01*
X20056Y-13661D01*
X20031Y-13686D01*
X19955Y-13712D01*
X19726D01*
X19904D02*
X20082Y-13991D01*
X20531Y-13458D02*
X20201D01*
Y-13991D01*
X20531D01*
X20201Y-13712D02*
X20404D01*
X20620Y-13458D02*
X20823Y-13991D01*
X21026Y-13458D02*
X20823Y-13991D01*
X21120Y-13635D02*
X21095Y-13661D01*
X21120Y-13686D01*
X21146Y-13661D01*
X21120Y-13635D01*
Y-13940D02*
X21095Y-13966D01*
X21120Y-13991D01*
X21146Y-13966D01*
X21120Y-13940D01*
X-6649Y-10987D02*
X-6420D01*
X-6344Y-10962D01*
X-6319Y-10936D01*
X-6293Y-10885D01*
Y-10809D01*
X-6319Y-10758D01*
X-6344Y-10733D01*
X-6420Y-10708D01*
X-6649D01*
Y-11241D01*
X-6174Y-10708D02*
Y-11241D01*
X-5819Y-10708D02*
Y-11241D01*
X-6174Y-10962D02*
X-5819D01*
X-5519Y-10708D02*
X-5570Y-10733D01*
X-5620Y-10784D01*
X-5646Y-10835D01*
X-5671Y-10911D01*
Y-11038D01*
X-5646Y-11114D01*
X-5620Y-11165D01*
X-5570Y-11216D01*
X-5519Y-11241D01*
X-5417D01*
X-5367Y-11216D01*
X-5316Y-11165D01*
X-5290Y-11114D01*
X-5265Y-11038D01*
Y-10911D01*
X-5290Y-10835D01*
X-5316Y-10784D01*
X-5367Y-10733D01*
X-5417Y-10708D01*
X-5519D01*
X-5141D02*
Y-11241D01*
Y-10708D02*
X-4785Y-11241D01*
Y-10708D02*
Y-11241D01*
X-4308Y-10708D02*
X-4638D01*
Y-11241D01*
X-4308D01*
X-4638Y-10962D02*
X-4435D01*
X-4193Y-10885D02*
X-4219Y-10911D01*
X-4193Y-10936D01*
X-4168Y-10911D01*
X-4193Y-10885D01*
Y-11190D02*
X-4219Y-11216D01*
X-4193Y-11241D01*
X-4168Y-11216D01*
X-4193Y-11190D01*
X-6649Y-14737D02*
X-6420D01*
X-6344Y-14712D01*
X-6319Y-14686D01*
X-6293Y-14635D01*
Y-14559D01*
X-6319Y-14508D01*
X-6344Y-14483D01*
X-6420Y-14458D01*
X-6649D01*
Y-14991D01*
X-6174Y-14458D02*
Y-14991D01*
X-5819Y-14458D02*
Y-14991D01*
X-6174Y-14712D02*
X-5819D01*
X-5519Y-14458D02*
X-5570Y-14483D01*
X-5620Y-14534D01*
X-5646Y-14585D01*
X-5671Y-14661D01*
Y-14788D01*
X-5646Y-14864D01*
X-5620Y-14915D01*
X-5570Y-14966D01*
X-5519Y-14991D01*
X-5417D01*
X-5367Y-14966D01*
X-5316Y-14915D01*
X-5290Y-14864D01*
X-5265Y-14788D01*
Y-14661D01*
X-5290Y-14585D01*
X-5316Y-14534D01*
X-5367Y-14483D01*
X-5417Y-14458D01*
X-5519D01*
X-5141D02*
Y-14991D01*
Y-14458D02*
X-4785Y-14991D01*
Y-14458D02*
Y-14991D01*
X-4308Y-14458D02*
X-4638D01*
Y-14991D01*
X-4308D01*
X-4638Y-14712D02*
X-4435D01*
X-4193Y-14635D02*
X-4219Y-14661D01*
X-4193Y-14686D01*
X-4168Y-14661D01*
X-4193Y-14635D01*
Y-14940D02*
X-4219Y-14966D01*
X-4193Y-14991D01*
X-4168Y-14966D01*
X-4193Y-14940D01*
X11751Y-16233D02*
Y-16766D01*
X12056D01*
X12521D02*
X12317Y-16233D01*
X12114Y-16766D01*
X12190Y-16588D02*
X12444D01*
X12645Y-16233D02*
X12848Y-16487D01*
Y-16766D01*
X13051Y-16233D02*
X12848Y-16487D01*
X13450Y-16233D02*
X13120D01*
Y-16766D01*
X13450D01*
X13120Y-16487D02*
X13323D01*
X13539Y-16233D02*
Y-16766D01*
Y-16233D02*
X13767D01*
X13843Y-16258D01*
X13869Y-16283D01*
X13894Y-16334D01*
Y-16385D01*
X13869Y-16436D01*
X13843Y-16461D01*
X13767Y-16487D01*
X13539D01*
X13716D02*
X13894Y-16766D01*
X14039Y-16410D02*
X14014Y-16436D01*
X14039Y-16461D01*
X14064Y-16436D01*
X14039Y-16410D01*
Y-16715D02*
X14014Y-16741D01*
X14039Y-16766D01*
X14064Y-16741D01*
X14039Y-16715D01*
X-6319Y-8833D02*
X-6649D01*
Y-9366D01*
X-6319D01*
X-6649Y-9087D02*
X-6446D01*
X-6230Y-8833D02*
Y-9366D01*
Y-8833D02*
X-5874Y-9366D01*
Y-8833D02*
Y-9366D01*
X-5346Y-8960D02*
X-5372Y-8909D01*
X-5422Y-8858D01*
X-5473Y-8833D01*
X-5575D01*
X-5626Y-8858D01*
X-5676Y-8909D01*
X-5702Y-8960D01*
X-5727Y-9036D01*
Y-9163D01*
X-5702Y-9239D01*
X-5676Y-9290D01*
X-5626Y-9341D01*
X-5575Y-9366D01*
X-5473D01*
X-5422Y-9341D01*
X-5372Y-9290D01*
X-5346Y-9239D01*
Y-9163D01*
X-5473D02*
X-5346D01*
X-5224Y-8833D02*
Y-9366D01*
X-5113Y-8833D02*
Y-9366D01*
Y-8833D02*
X-4757Y-9366D01*
Y-8833D02*
Y-9366D01*
X-4280Y-8833D02*
X-4610D01*
Y-9366D01*
X-4280D01*
X-4610Y-9087D02*
X-4407D01*
X-3861Y-8833D02*
X-4191D01*
Y-9366D01*
X-3861D01*
X-4191Y-9087D02*
X-3988D01*
X-3772Y-8833D02*
Y-9366D01*
Y-8833D02*
X-3543D01*
X-3467Y-8858D01*
X-3442Y-8883D01*
X-3416Y-8934D01*
Y-8985D01*
X-3442Y-9036D01*
X-3467Y-9061D01*
X-3543Y-9087D01*
X-3772D01*
X-3594D02*
X-3416Y-9366D01*
X-3272Y-9010D02*
X-3297Y-9036D01*
X-3272Y-9061D01*
X-3246Y-9036D01*
X-3272Y-9010D01*
Y-9315D02*
X-3297Y-9341D01*
X-3272Y-9366D01*
X-3246Y-9341D01*
X-3272Y-9315D01*
X2351Y-13737D02*
X2580D01*
X2656Y-13712D01*
X2681Y-13686D01*
X2707Y-13635D01*
Y-13559D01*
X2681Y-13508D01*
X2656Y-13483D01*
X2580Y-13458D01*
X2351D01*
Y-13991D01*
X3232D02*
X3029Y-13458D01*
X2826Y-13991D01*
X2902Y-13813D02*
X3156D01*
X3357Y-13458D02*
Y-13991D01*
Y-13458D02*
X3585D01*
X3661Y-13483D01*
X3687Y-13508D01*
X3712Y-13559D01*
Y-13610D01*
X3687Y-13661D01*
X3661Y-13686D01*
X3585Y-13712D01*
X3357D01*
X3534D02*
X3712Y-13991D01*
X4009Y-13458D02*
Y-13991D01*
X3832Y-13458D02*
X4187D01*
X4669D02*
Y-13991D01*
Y-13458D02*
X5025Y-13991D01*
Y-13458D02*
Y-13991D01*
X5325Y-13458D02*
X5274Y-13483D01*
X5223Y-13534D01*
X5198Y-13585D01*
X5172Y-13661D01*
Y-13788D01*
X5198Y-13864D01*
X5223Y-13915D01*
X5274Y-13966D01*
X5325Y-13991D01*
X5426D01*
X5477Y-13966D01*
X5528Y-13915D01*
X5553Y-13864D01*
X5578Y-13788D01*
Y-13661D01*
X5553Y-13585D01*
X5528Y-13534D01*
X5477Y-13483D01*
X5426Y-13458D01*
X5325D01*
X5728Y-13940D02*
X5703Y-13966D01*
X5728Y-13991D01*
X5754Y-13966D01*
X5728Y-13940D01*
X5896Y-13635D02*
X5870Y-13661D01*
X5896Y-13686D01*
X5921Y-13661D01*
X5896Y-13635D01*
Y-13940D02*
X5870Y-13966D01*
X5896Y-13991D01*
X5921Y-13966D01*
X5896Y-13940D01*
X2404Y-8708D02*
Y-9241D01*
X2226Y-8708D02*
X2582D01*
X2645D02*
Y-9241D01*
X2935Y-8708D02*
Y-9241D01*
X2757Y-8708D02*
X3112D01*
X3176D02*
Y-9241D01*
X3481D01*
X3869Y-8708D02*
X3539D01*
Y-9241D01*
X3869D01*
X3539Y-8962D02*
X3742D01*
X3983Y-8885D02*
X3958Y-8911D01*
X3983Y-8936D01*
X4009Y-8911D01*
X3983Y-8885D01*
Y-9190D02*
X3958Y-9216D01*
X3983Y-9241D01*
X4009Y-9216D01*
X3983Y-9190D01*
X-6649Y-12633D02*
Y-13166D01*
Y-12633D02*
X-6471D01*
X-6395Y-12658D01*
X-6344Y-12709D01*
X-6319Y-12760D01*
X-6293Y-12836D01*
Y-12963D01*
X-6319Y-13039D01*
X-6344Y-13090D01*
X-6395Y-13141D01*
X-6471Y-13166D01*
X-6649D01*
X-6174Y-12810D02*
Y-13166D01*
Y-12963D02*
X-6149Y-12887D01*
X-6098Y-12836D01*
X-6047Y-12810D01*
X-5971D01*
X-5618D02*
Y-13166D01*
Y-12887D02*
X-5669Y-12836D01*
X-5719Y-12810D01*
X-5796D01*
X-5846Y-12836D01*
X-5897Y-12887D01*
X-5923Y-12963D01*
Y-13014D01*
X-5897Y-13090D01*
X-5846Y-13141D01*
X-5796Y-13166D01*
X-5719D01*
X-5669Y-13141D01*
X-5618Y-13090D01*
X-5476Y-12810D02*
X-5374Y-13166D01*
X-5273Y-12810D02*
X-5374Y-13166D01*
X-5273Y-12810D02*
X-5171Y-13166D01*
X-5069Y-12810D02*
X-5171Y-13166D01*
X-4945Y-12810D02*
Y-13166D01*
Y-12912D02*
X-4869Y-12836D01*
X-4818Y-12810D01*
X-4742D01*
X-4691Y-12836D01*
X-4666Y-12912D01*
Y-13166D01*
X-4107Y-12633D02*
Y-13166D01*
Y-12887D02*
X-4056Y-12836D01*
X-4006Y-12810D01*
X-3929D01*
X-3879Y-12836D01*
X-3828Y-12887D01*
X-3802Y-12963D01*
Y-13014D01*
X-3828Y-13090D01*
X-3879Y-13141D01*
X-3929Y-13166D01*
X-4006D01*
X-4056Y-13141D01*
X-4107Y-13090D01*
X-3663Y-12810D02*
X-3510Y-13166D01*
X-3358Y-12810D02*
X-3510Y-13166D01*
X-3561Y-13267D01*
X-3612Y-13318D01*
X-3663Y-13344D01*
X-3688D01*
X-3244Y-12810D02*
X-3269Y-12836D01*
X-3244Y-12861D01*
X-3218Y-12836D01*
X-3244Y-12810D01*
Y-13115D02*
X-3269Y-13141D01*
X-3244Y-13166D01*
X-3218Y-13141D01*
X-3244Y-13115D01*
X-6649Y-16233D02*
Y-16766D01*
Y-16233D02*
X-6319D01*
X-6649Y-16487D02*
X-6446D01*
X-6258Y-16233D02*
Y-16766D01*
X-6146Y-16233D02*
Y-16766D01*
X-5841D01*
X-5453Y-16233D02*
X-5783D01*
Y-16766D01*
X-5453D01*
X-5783Y-16487D02*
X-5580D01*
X-4945Y-16233D02*
Y-16766D01*
Y-16233D02*
X-4590Y-16766D01*
Y-16233D02*
Y-16766D01*
X-4036D02*
X-4239Y-16233D01*
X-4442Y-16766D01*
X-4366Y-16588D02*
X-4112D01*
X-3912Y-16233D02*
Y-16766D01*
Y-16233D02*
X-3708Y-16766D01*
X-3505Y-16233D02*
X-3708Y-16766D01*
X-3505Y-16233D02*
Y-16766D01*
X-3023Y-16233D02*
X-3353D01*
Y-16766D01*
X-3023D01*
X-3353Y-16487D02*
X-3150D01*
X-2909Y-16410D02*
X-2934Y-16436D01*
X-2909Y-16461D01*
X-2883Y-16436D01*
X-2909Y-16410D01*
Y-16715D02*
X-2934Y-16741D01*
X-2909Y-16766D01*
X-2883Y-16741D01*
X-2909Y-16715D01*
X30332Y-16360D02*
X30307Y-16309D01*
X30256Y-16258D01*
X30205Y-16233D01*
X30104D01*
X30053Y-16258D01*
X30002Y-16309D01*
X29977Y-16360D01*
X29951Y-16436D01*
Y-16563D01*
X29977Y-16639D01*
X30002Y-16690D01*
X30053Y-16741D01*
X30104Y-16766D01*
X30205D01*
X30256Y-16741D01*
X30307Y-16690D01*
X30332Y-16639D01*
Y-16563D01*
X30205D02*
X30332D01*
X30784Y-16233D02*
X30454D01*
Y-16766D01*
X30784D01*
X30454Y-16487D02*
X30657D01*
X30873Y-16233D02*
Y-16766D01*
Y-16233D02*
X31101D01*
X31178Y-16258D01*
X31203Y-16283D01*
X31228Y-16334D01*
Y-16385D01*
X31203Y-16436D01*
X31178Y-16461D01*
X31101Y-16487D01*
X30873D01*
X31051D02*
X31228Y-16766D01*
X31348Y-16233D02*
Y-16766D01*
Y-16233D02*
X31576D01*
X31652Y-16258D01*
X31678Y-16283D01*
X31703Y-16334D01*
Y-16385D01*
X31678Y-16436D01*
X31652Y-16461D01*
X31576Y-16487D01*
X31348D02*
X31576D01*
X31652Y-16512D01*
X31678Y-16537D01*
X31703Y-16588D01*
Y-16664D01*
X31678Y-16715D01*
X31652Y-16741D01*
X31576Y-16766D01*
X31348D01*
X32153Y-16233D02*
X31823D01*
Y-16766D01*
X32153D01*
X31823Y-16487D02*
X32026D01*
X32241Y-16233D02*
Y-16766D01*
Y-16233D02*
X32470D01*
X32546Y-16258D01*
X32572Y-16283D01*
X32597Y-16334D01*
Y-16385D01*
X32572Y-16436D01*
X32546Y-16461D01*
X32470Y-16487D01*
X32241D01*
X32419D02*
X32597Y-16766D01*
X32742Y-16410D02*
X32716Y-16436D01*
X32742Y-16461D01*
X32767Y-16436D01*
X32742Y-16410D01*
Y-16715D02*
X32716Y-16741D01*
X32742Y-16766D01*
X32767Y-16741D01*
X32742Y-16715D01*
M02*
