M72
M48
T1F00S00C0.0100
T2F00S00C0.0250
T3F00S00C0.0350
T4F00S00C0.0750
%
T01
X0004Y0
X-000045Y-00051
X-000567Y-001607
X-000917Y-001901
X-00133Y0
X-002697Y-000961
X-003017Y000999
X-004866Y000169
X-005536Y000549
X-006178Y-000237
X-00585Y-000871
X-007057Y000149
X001749Y-000965
X00175Y-00148
X00253Y-001033
X004423Y-001371
X004907Y-001907
X004423Y-000291
X007842Y-000587
X007707Y-001757
X008817Y-000187
X010569Y-000367
X012059
X012243Y002749
X008593Y002689
X008043Y003849
X009293Y004029
X010069Y005302
X009743Y005779
X008693
X007693
X006793Y005179
X006193Y005379
X006043Y003179
X005843Y007779
X006443Y008179
X007093Y007779
X008293Y008029
Y008579
X009593Y009329
X010893Y009029
X010443Y007579
X011019Y006402
X012019
X008857Y006743
X009173Y010629
X007253
X006703Y011409
X005953
X006144Y009479
X005543Y009979
X003693
X003273Y009419
X003693Y008029
X003593Y006429
X005093Y006879
X005543Y008029
X005043Y005229
X003893Y004379
X004143Y003629
X003843Y002109
X003143Y001639
X002303Y003109
X001083Y002129
X000353Y003599
X-001337Y002319
X-001707Y004739
X-002127Y005179
X-001357Y005489
X-000657Y006039
Y006839
X000553Y007709
X001143Y007329
X001743
X001643Y005479
X000564Y009749
X-000357Y010179
X-000957
X-001147Y009759
X-002127Y010699
X-003127Y010955
X-003835Y011211
X-003857Y010429
X-003357Y008939
X-005447Y009479
X-005557Y008419
X-00468Y00713
X-00587Y005929
X-00603Y00563
X-00641Y00619
X-006487Y004729
X-007297Y003629
X-007317Y002289
X-007337Y001649
X-004177Y001919
X-005357Y003199
X-005856Y011189
X-006998
X005543Y001829
T02
X-007781Y001652
X-007781Y002402
X-007781Y003152
Y003902
X-007781Y004652
Y005402
Y006152
X-007781Y006902
Y007652
Y008402
T03
X009772Y011373
X010772
X011772
T04
X-008008Y-000437
Y010013
M30
