M48
;Layer_Color=9474304
;FILE_FORMAT=2:5
INCH,LZ
;TYPE=PLATED
T1F00S00C0.01200
T2F00S00C0.02800
T3F00S00C0.03300
%
T01
X00179Y00174
Y00244
X0047Y00343
X00509Y00368
X0042Y0042
X00404Y00511
X0047Y00495
X005Y00585
X00599
X00697Y0055563
X00698Y00504
X00779Y00665
X00424Y0069
X00364Y00579
X00495Y0016
X00545
X00595Y0021
X00779Y00275
T02
X0046Y0075
X0051
X0056
X0061
X0071
X0076
T03
X00067Y00085
X00415Y0024
X00365Y003
X00615Y0053
X01017Y00875
Y00135
X00089Y0086
M30
