  0
SECTION
  2
HEADER
  9
$ACADVER
  1
AC1009
  9
$INSBASE
 10
0
 20
0
  9
$EXTMIN
 10
-4.62999950000009
 20
-18.27400379999997
  9
$EXTMAX
 10
43.00201290000068
 20
18.2740038
  9
$LIMMIN
 10
-4.62999950000009
 20
-18.27400379999997
  9
$LIMMAX
 10
43.00201290000068
 20
18.2740038
  9
$VIEWCTR
 10
10
 20
10
  9
$VIEWSIZE
 40
10
  9
$SNAPMODE
 70
0
  9
$SNAPUNIT
 10
1
 20
1
  9
$SNAPBASE
 10
0
 20
0
  9
$SNAPANG
 50
0
  9
$SNAPSTYLE
 70
0
  9
$SNAPISOPAIR
 70
0
  9
$GRIDMODE
 70
0
  9
$GRIDUNIT
 10
0
 20
0
  9
$ORTHOMODE
 70
0
  9
$REGENMODE
 70
1
  9
$FILLMODE
 70
1
  9
$QTEXTMODE
 70
0
  9
$DRAGMODE
 70
2
  9
$LTSCALE
 40
1
  9
$OSMODE
 70
0
  9
$ATTMODE
 70
1
  9
$TEXTSIZE
 40
3.5
  9
$TRACEWID
 40
0.5
  9
$TEXTSTYLE
  7
STANDARD
  9
$CLAYER
  8
0
  9
$CELTYPE
  6
BYLAYER
  9
$CECOLOR
 62
256
  9
$DIMSCALE
 40
1
  9
$DIMASZ
 40
0.18
  9
$DIMEXO
 40
0.0625
  9
$DIMDLI
 40
0.38
  9
$DIMRND
 40
0
  9
$DIMDLE
 40
0
  9
$DIMEXE
 40
0.18
  9
$DIMTP
 40
0
  9
$DIMTM
 40
0
  9
$DIMTXT
 40
0.18
  9
$DIMCEN
 40
0.09
  9
$DIMTSZ
 40
0
  9
$DIMTOL
 70
0
  9
$DIMLIM
 70
0
  9
$DIMTIH
 70
1
  9
$DIMTOH
 70
1
  9
$DIMSE1
 70
0
  9
$DIMSE2
 70
0
  9
$DIMTAD
 70
0
  9
$DIMZIN
 70
0
  9
$DIMBLK
  1

  9
$DIMASO
 70
1
  9
$DIMSHO
 70
1
  9
$DIMPOST
  1

  9
$DIMAPOST
  1

  9
$DIMALT
 70
0
  9
$DIMALTD
 70
2
  9
$DIMALTF
 40
25.4
  9
$DIMLFAC
 40
1
  9
$DIMTOFL
 70
0
  9
$DIMTVP
 40
0
  9
$DIMTIX
 70
0
  9
$DIMSOXD
 70
0
  9
$DIMSAH
 70
0
  9
$DIMBLK1
  1

  9
$DIMBLK2
  1

  9
$DIMSTYLE
  2
*UNNAMED
  9
$DIMCLRD
 70
0
  9
$DIMCLRE
 70
0
  9
$DIMCLRT
 70
0
  9
$DIMTFAC
 40
1
  9
$DIMGAP
 40
0.09
  9
$LUNITS
 70
2
  9
$LUPREC
 70
4
  9
$AXISMODE
 70
0
  9
$AXISUNIT
 10
0
 20
0
  9
$SKETCHINC
 40
0.1
  9
$FILLETRAD
 40
2
  9
$AUNITS
 70
0
  9
$AUPREC
 70
0
  9
$MENU
  1
ACAD
  9
$ELEVATION
 40
0
  9
$THICKNESS
 40
0
  9
$VIEWDIR
 10
0
 20
0
 30
1
  9
$LIMCHECK
 70
0
  9
$BLIPMODE
 70
1
  9
$CHAMFERA
 40
0
  9
$CHAMFERB
 40
0
  9
$FASTZOOM
 70
1
  9
$SKPOLY
 70
0
  9
$ANGBASE
 50
0
  9
$ANGDIR
 70
0
  9
$PDMODE
 70
0
  9
$PDSIZE
 40
0
  9
$PLINEWID
 40
0
  9
$COORDS
 70
2
  0
ENDSEC
  0
SECTION
  2
TABLES
  0
TABLE
  2
DIMSTYLE
 70
0
  0
ENDTAB
  0
TABLE
  2
LTYPE
 70
9
  0
LTYPE
  2
CONTINUOUS
 70
64
  3
Solid line
 72
65
 73
0
 40
0
  0
LTYPE
  2
BORDER
 70
64
  3
__ __ . __ __ .
 72
65
 73
6
 40
2.193579518421088
 49
0.626737005263168
 49
-0.313368502631584
 49
0.626737005263168
 49
-0.313368502631584
 49
0
 49
-0.313368502631584
  0
LTYPE
  2
CENTER
 70
64
  3
____ _ ____ _
 72
65
 73
4
 40
2.506948021052672
 49
1.56684251315792
 49
-0.313368502631584
 49
0.313368502631584
 49
-0.313368502631584
  0
LTYPE
  2
DASHDOT
 70
64
  3
__ . __ . __ .
 72
65
 73
4
 40
1.253474010526336
 49
0.626737005263168
 49
-0.313368502631584
 49
0
 49
-0.313368502631584
  0
LTYPE
  2
DASHED
 70
64
  3
__ __ __ __ __
 72
65
 73
2
 40
0.940105507894752
 49
0.626737005263168
 49
-0.313368502631584
  0
LTYPE
  2
DIVIDE
 70
64
  3
__ . . __ . . 
 72
65
 73
6
 40
1.56684251315792
 49
0.626737005263168
 49
-0.313368502631584
 49
0
 49
-0.313368502631584
 49
0
 49
-0.313368502631584
  0
LTYPE
  2
DOT
 70
64
  3
..............
 72
65
 73
4
 40
0.626737005263168
 49
0
 49
-0.313368502631584
 49
0
 49
-0.313368502631584
  0
LTYPE
  2
HIDDEN
 70
64
  3
_ _ _ _ _ _ _
 72
65
 73
2
 40
0.470052753947376
 49
0.313368502631584
 49
-0.156684251315792
  0
LTYPE
  2
PHANTOM
 70
64
  3
_____ _ _ _____ _ _ 
 72
65
 73
6
 40
3.13368502631584
 49
1.56684251315792
 49
-0.313368502631584
 49
0.313368502631584
 49
-0.313368502631584
 49
0.313368502631584
 49
-0.313368502631584
  0
ENDTAB
  0
TABLE
  2
LAYER
 70
2
  0
LAYER
  2
0
 70
0
 62
7
  6
CONTINUOUS
  0
ENDTAB
  0
TABLE
  2
STYLE
 70
4
  0
STYLE
  2
STANDARD
 70
0
 40
0
 41
1
 50
0
 71
0
 42
3.5
  3
txt
  4

  0
STYLE
  2
SIMPLEX
 70
0
 40
0
 41
1
 50
0
 71
0
 42
3.5
  3
simplex
  4

  0
STYLE
  2
COMPLEX
 70
0
 40
0
 41
1
 50
0
 71
0
 42
3.5
  3
complex
  4

  0
STYLE
  2
ITALIC
 70
0
 40
0
 41
1
 50
0
 71
0
 42
3.5
  3
italic
  4

  0
ENDTAB
  0
TABLE
  2
VIEW
 70
0
  0
ENDTAB
  0
ENDSEC
  0
SECTION
  2
BLOCKS
  0
BLOCK
  8
0
  2
MC_1_5-3-G-3_81__1
 70
0
 10
20.44800810000034
 20
-6.410000000000002
 30
0
  0
LINE
  8
0
 62
7
 10
21.61595729243168
 20
3.677949192431122
 30
0
 11
21.88005890756944
 21
3.677949192431122
 31
0
  0
LINE
  8
0
 62
7
 10
29.74800810000031
 20
5.514999999999999
 30
0
 11
29.74800810000034
 21
6.409999999999999
 31
0
  0
LINE
  8
0
 62
7
 10
29.74800810000034
 20
6.409999999999999
 30
0
 11
29.64800810000033
 21
6.41
 31
0
  0
LINE
  8
0
 62
7
 10
29.74800810000031
 20
5.065000000000098
 30
0
 11
29.74800810000042
 21
5.300000000000113
 31
0
  0
LINE
  8
0
 62
7
 10
29.74800810000031
 20
4.209999999999999
 30
0
 11
29.74800810000042
 21
4.409999999999999
 31
0
  0
LINE
  8
0
 62
7
 10
29.74800810000031
 20
2.554999999999924
 30
0
 11
29.74800810000032
 21
2.955824817578475
 31
0
  0
LINE
  8
0
 62
7
 10
29.74800810000042
 20
4.409999999999999
 30
0
 11
29.74800810000032
 21
4.664175182421523
 31
0
  0
LINE
  8
0
 62
7
 10
29.74800810000031
 20
3.409999999999999
 30
0
 11
29.74800810000031
 21
4.209999999999999
 31
0
  0
LINE
  8
0
 62
7
 10
29.74800810000031
 20
3.21
 30
0
 11
29.74800810000031
 21
3.409999999999999
 31
0
  0
LINE
  8
0
 62
7
 10
29.74800810000031
 20
2.104999999999999
 30
0
 11
29.74800810000031
 21
2.319999999999941
 31
0
  0
LINE
  8
0
 62
7
 10
29.74800810000031
 20
2.319999999999941
 30
0
 11
29.74800810000031
 21
2.554999999999924
 31
0
  0
LINE
  8
0
 62
7
 10
29.74800810000032
 20
4.664175182421523
 30
0
 11
29.74800810000031
 21
5.065000000000098
 31
0
  0
LINE
  8
0
 62
7
 10
29.74800810000042
 20
5.300000000000113
 30
0
 11
29.74800810000031
 21
5.514999999999999
 31
0
  0
LINE
  8
0
 62
7
 10
29.74800810000031
 20
1.490000000000112
 30
0
 11
29.74800810000034
 21
1.704999999999999
 31
0
  0
LINE
  8
0
 62
7
 10
29.74800810000031
 20
1.255000000000098
 30
0
 11
29.74800810000031
 21
1.490000000000112
 31
0
  0
LINE
  8
0
 62
7
 10
29.74800810000032
 20
2.955824817578475
 30
0
 11
29.74800810000031
 21
3.21
 31
0
  0
LINE
  8
0
 62
7
 10
24.04800810000034
 20
-6.410000000000002
 30
0
 11
26.14800810000032
 21
-6.410000000000002
 31
0
  0
LINE
  8
0
 62
7
 10
29.74800810000031
 20
-0.6000000000000001
 30
0
 11
29.74800810000031
 21
-0.4000000000000006
 31
0
  0
LINE
  8
0
 62
7
 10
26.34800810000032
 20
-6.410000000000002
 30
0
 11
26.14800810000032
 21
-6.410000000000002
 31
0
  0
LINE
  8
0
 62
7
 10
29.74800810000034
 20
-6.410000000000002
 30
0
 11
29.64800810000033
 21
-6.410000000000001
 31
0
  0
LINE
  8
0
 62
7
 10
29.74800810000031
 20
-2.319999999999888
 30
0
 11
29.74800810000034
 21
-2.105000000000001
 31
0
  0
LINE
  8
0
 62
7
 10
29.74800810000034
 20
-6.410000000000002
 30
0
 11
29.74800810000031
 21
-5.515000000000002
 31
0
  0
LINE
  8
0
 62
7
 10
29.74800810000031
 20
-5.065000000000078
 30
0
 11
29.74800809999935
 21
-4.664175182421655
 31
0
  0
LINE
  8
0
 62
7
 10
29.74800810000031
 20
-5.515000000000002
 30
0
 11
29.74800810000031
 21
-5.300000000000061
 31
0
  0
LINE
  8
0
 62
7
 10
29.74800810000031
 20
-5.300000000000061
 30
0
 11
29.74800810000031
 21
-5.065000000000078
 31
0
  0
LINE
  8
0
 62
7
 10
29.74800809999935
 20
-4.664175182421655
 30
0
 11
29.74800810000031
 21
-4.41
 31
0
  0
LINE
  8
0
 62
7
 10
29.74800810000031
 20
-4.41
 30
0
 11
29.74800810000031
 21
-4.210000000000003
 31
0
  0
LINE
  8
0
 62
7
 10
29.74800810000031
 20
-3.21
 30
0
 11
29.74800809999935
 21
-2.955824817578349
 31
0
  0
LINE
  8
0
 62
7
 10
29.74800810000031
 20
-4.210000000000003
 30
0
 11
29.74800810000031
 21
-3.410000000000001
 31
0
  0
LINE
  8
0
 62
7
 10
29.74800810000031
 20
-3.410000000000001
 30
0
 11
29.74800810000031
 21
-3.21
 31
0
  0
LINE
  8
0
 62
7
 10
29.74800810000031
 20
-2.554999999999902
 30
0
 11
29.74800810000031
 21
-2.319999999999888
 31
0
  0
LINE
  8
0
 62
7
 10
29.74800809999935
 20
-2.955824817578349
 30
0
 11
29.74800810000031
 21
-2.554999999999902
 31
0
  0
LINE
  8
0
 62
7
 10
26.54800810000035
 20
-6.410000000000002
 30
0
 11
29.64800810000033
 21
-6.410000000000001
 31
0
  0
LINE
  8
0
 62
7
 10
26.34800810000032
 20
-6.410000000000002
 30
0
 11
26.54800810000035
 21
-6.410000000000002
 31
0
  0
LINE
  8
0
 62
7
 10
29.74800810000031
 20
-1.490000000000059
 30
0
 11
29.74800810000031
 21
-1.255000000000076
 31
0
  0
LINE
  8
0
 62
7
 10
29.74800810000032
 20
-0.8541751824215242
 30
0
 11
29.74800810000031
 21
-0.6000000000000001
 31
0
  0
LINE
  8
0
 62
7
 10
29.74800810000031
 20
-1.255000000000076
 30
0
 11
29.74800810000032
 21
-0.8541751824215242
 31
0
  0
LINE
  8
0
 62
7
 10
29.74800810000034
 20
-1.705000000000001
 30
0
 11
29.74800810000031
 21
-1.490000000000059
 31
0
  0
LINE
  8
0
 62
7
 10
29.74800810000031
 20
-2.092564434701786
 30
0
 11
29.74800810000034
 21
-2.105000000000001
 31
0
  0
LINE
  8
0
 62
7
 10
29.74800810000034
 20
-1.705000000000001
 30
0
 11
29.74800810000031
 21
-1.717435565298215
 31
0
  0
LINE
  8
0
 62
7
 10
29.74800810000031
 20
-1.717435565298215
 30
0
 11
29.74800810000031
 21
-1.905000000000001
 31
0
  0
LINE
  8
0
 62
7
 10
29.74800810000031
 20
-1.905000000000001
 30
0
 11
29.74800810000031
 21
-2.092564434701786
 31
0
  0
LINE
  8
0
 62
7
 10
23.83721228742234
 20
-6.410000000000002
 30
0
 11
24.04800810000034
 21
-6.410000000000002
 31
0
  0
LINE
  8
0
 62
7
 10
23.54819326955916
 20
-6.410000000000002
 30
0
 11
23.7062901289926
 21
-6.410000000000002
 31
0
  0
LINE
  8
0
 62
7
 10
22.32210330365773
 20
-6.410000000000002
 30
0
 11
22.33475495347175
 21
-6.410000000000002
 31
0
  0
LINE
  8
0
 62
7
 10
22.14644012650948
 20
-6.410000000000002
 30
0
 11
22.32210330365773
 21
-6.410000000000002
 31
0
  0
LINE
  8
0
 62
7
 10
22.33475495347175
 20
-6.410000000000002
 30
0
 11
22.37480225680215
 21
-6.410000000000002
 31
0
  0
LINE
  8
0
 62
7
 10
22.83152651738774
 20
-6.410000000000002
 30
0
 11
22.87157382071805
 21
-6.410000000000002
 31
0
  0
LINE
  8
0
 62
7
 10
22.80255425207215
 20
-6.410000000000002
 30
0
 11
22.83152651738774
 21
-6.410000000000002
 31
0
  0
LINE
  8
0
 62
7
 10
22.40377452211774
 20
-6.410000000000002
 30
0
 11
22.49285181290534
 21
-6.410000000000002
 31
0
  0
LINE
  8
0
 62
7
 10
22.71347696128463
 20
-6.410000000000002
 30
0
 11
22.80255425207215
 21
-6.410000000000002
 31
0
  0
LINE
  8
0
 62
7
 10
22.49285181290534
 20
-6.410000000000002
 30
0
 11
22.71347696128463
 21
-6.410000000000002
 31
0
  0
LINE
  8
0
 62
7
 10
23.05988864768046
 20
-6.410000000000002
 30
0
 11
23.54819326955916
 21
-6.410000000000002
 31
0
  0
LINE
  8
0
 62
7
 10
22.87157382071805
 20
-6.410000000000002
 30
0
 11
23.05988864768046
 21
-6.410000000000002
 31
0
  0
LINE
  8
0
 62
7
 10
21.34800810000052
 20
-0.4000000000000008
 30
0
 11
22.14800810000043
 21
-0.4000000000000008
 31
0
  0
LINE
  8
0
 62
7
 10
21.61595729243168
 20
-0.1320508075688784
 30
0
 11
21.88005890756944
 21
-0.1320508075688784
 31
0
  0
LINE
  8
0
 62
7
 10
22.14800810000043
 20
-0.4000000000000008
 30
0
 11
22.14800810000043
 21
-8.881784197001252e-16
 31
0
  0
LINE
  8
0
 62
7
 10
21.88005890756944
 20
-0.1320508075688784
 30
0
 11
22.14800810000043
 21
-0.4000000000000008
 31
0
  0
LINE
  8
0
 62
7
 10
21.34800810000052
 20
-0.4000000000000008
 30
0
 11
21.34800810000043
 21
-8.881784197001252e-16
 31
0
  0
LINE
  8
0
 62
7
 10
21.34800810000052
 20
-0.4000000000000008
 30
0
 11
21.61595729243168
 21
-0.1320508075688784
 31
0
  0
LINE
  8
0
 62
7
 10
23.7062901289926
 20
-6.410000000000002
 30
0
 11
23.83721228742234
 21
-6.410000000000002
 31
0
  0
LINE
  8
0
 62
7
 10
22.37480225680215
 20
-6.410000000000002
 30
0
 11
22.40377452211774
 21
-6.410000000000002
 31
0
  0
LINE
  8
0
 62
7
 10
21.37091972961253
 20
-6.410000000000002
 30
0
 11
22.14644012650948
 21
-6.410000000000002
 31
0
  0
LINE
  8
0
 62
7
 10
21.25880391257834
 20
-6.410000000000002
 30
0
 11
21.37091972961253
 21
-6.410000000000002
 31
0
  0
LINE
  8
0
 62
7
 10
21.04800810000035
 20
-6.410000000000002
 30
0
 11
21.25880391257834
 21
-6.410000000000002
 31
0
  0
LINE
  8
0
 62
7
 10
22.14800810000043
 20
-8.881784197001252e-16
 30
0
 11
22.14800810000043
 21
0.399999999999999
 31
0
  0
LINE
  8
0
 62
7
 10
21.88005890756944
 20
0.1320508075688767
 30
0
 11
22.14800810000043
 21
0.399999999999999
 31
0
  0
LINE
  8
0
 62
7
 10
21.34800810000043
 20
0.399999999999999
 30
0
 11
21.34800810000043
 21
-8.881784197001252e-16
 31
0
  0
LINE
  8
0
 62
7
 10
22.14800810000043
 20
0.399999999999999
 30
0
 11
21.34800810000043
 21
0.399999999999999
 31
0
  0
LINE
  8
0
 62
7
 10
21.88005890756944
 20
0.1320508075688767
 30
0
 11
21.61595729243168
 21
0.1320508075688767
 31
0
  0
LINE
  8
0
 62
7
 10
21.34800810000043
 20
0.399999999999999
 30
0
 11
21.61595729243168
 21
0.1320508075688767
 31
0
  0
LINE
  8
0
 62
7
 10
21.88005890756944
 20
-0.1320508075688784
 30
0
 11
21.88005890756944
 21
0.1320508075688767
 31
0
  0
LINE
  8
0
 62
7
 10
29.74800809999935
 20
0.8541751824216517
 30
0
 11
29.74800810000031
 21
1.255000000000098
 31
0
  0
LINE
  8
0
 62
7
 10
29.74800810000031
 20
0.399999999999999
 30
0
 11
29.74800810000031
 21
0.5999999999999996
 31
0
  0
LINE
  8
0
 62
7
 10
29.74800810000031
 20
-0.4000000000000006
 30
0
 11
29.74800810000031
 21
0.399999999999999
 31
0
  0
LINE
  8
0
 62
7
 10
29.74800810000031
 20
0.5999999999999996
 30
0
 11
29.74800809999935
 21
0.8541751824216517
 31
0
  0
LINE
  8
0
 62
7
 10
21.61595729243168
 20
0.1320508075688767
 30
0
 11
21.61595729243168
 21
-0.1320508075688784
 31
0
  0
LINE
  8
0
 62
7
 10
20.54800810000035
 20
-2.510000000000001
 30
0
 11
20.54800810000035
 21
-1.300000000000001
 31
0
  0
LINE
  8
0
 62
7
 10
21.04800810000035
 20
-6.410000000000002
 30
0
 11
20.54800810000035
 21
-6.410000000000002
 31
0
  0
LINE
  8
0
 62
7
 10
20.54800810000035
 20
-4.435000000000002
 30
0
 11
20.54800810000035
 21
-3.185000000000001
 31
0
  0
LINE
  8
0
 62
7
 10
20.54800810000035
 20
-5.110000000000001
 30
0
 11
20.54800810000035
 21
-4.435000000000002
 31
0
  0
LINE
  8
0
 62
7
 10
20.54800810000035
 20
-6.410000000000002
 30
0
 11
20.54800810000035
 21
-5.110000000000001
 31
0
  0
LINE
  8
0
 62
7
 10
29.74800810000031
 20
1.717435565298213
 30
0
 11
29.74800810000034
 21
1.704999999999999
 31
0
  0
LINE
  8
0
 62
7
 10
29.74800810000031
 20
2.104999999999999
 30
0
 11
29.74800810000031
 21
2.092564434701785
 31
0
  0
LINE
  8
0
 62
7
 10
29.74800810000031
 20
2.092564434701785
 30
0
 11
29.74800810000031
 21
1.904999999999999
 31
0
  0
LINE
  8
0
 62
7
 10
29.74800810000031
 20
1.904999999999999
 30
0
 11
29.74800810000031
 21
1.717435565298213
 31
0
  0
LINE
  8
0
 62
7
 10
22.14800810000043
 20
3.809999999999999
 30
0
 11
22.14800810000043
 21
4.209999999999999
 31
0
  0
LINE
  8
0
 62
7
 10
22.14800810000052
 20
3.409999999999999
 30
0
 11
22.14800810000043
 21
3.809999999999999
 31
0
  0
LINE
  8
0
 62
7
 10
21.34800810000052
 20
3.409999999999999
 30
0
 11
21.61595729243168
 21
3.677949192431122
 31
0
  0
LINE
  8
0
 62
7
 10
21.61595729243168
 20
3.942050807568877
 30
0
 11
21.61595729243168
 21
3.677949192431122
 31
0
  0
LINE
  8
0
 62
7
 10
21.34800810000043
 20
4.209999999999999
 30
0
 11
21.61595729243168
 21
3.942050807568877
 31
0
  0
LINE
  8
0
 62
7
 10
21.88005890756944
 20
3.677949192431122
 30
0
 11
21.88005890756944
 21
3.942050807568877
 31
0
  0
LINE
  8
0
 62
7
 10
21.88005890756944
 20
3.942050807568877
 30
0
 11
21.61595729243168
 21
3.942050807568877
 31
0
  0
LINE
  8
0
 62
7
 10
22.14800810000052
 20
3.409999999999999
 30
0
 11
21.34800810000052
 21
3.409999999999999
 31
0
  0
LINE
  8
0
 62
7
 10
21.88005890756944
 20
3.677949192431122
 30
0
 11
22.14800810000052
 21
3.409999999999999
 31
0
  0
LINE
  8
0
 62
7
 10
21.34800810000052
 20
3.409999999999999
 30
0
 11
21.34800810000043
 21
3.809999999999999
 31
0
  0
LINE
  8
0
 62
7
 10
22.14800810000043
 20
4.209999999999999
 30
0
 11
21.34800810000043
 21
4.209999999999999
 31
0
  0
LINE
  8
0
 62
7
 10
21.34800810000043
 20
4.209999999999999
 30
0
 11
21.34800810000043
 21
3.809999999999999
 31
0
  0
LINE
  8
0
 62
7
 10
21.88005890756944
 20
3.942050807568877
 30
0
 11
22.14800810000043
 21
4.209999999999999
 31
0
  0
LINE
  8
0
 62
7
 10
21.88005890756944
 20
-3.942050807568879
 30
0
 11
21.88005890756944
 21
-3.677949192431123
 31
0
  0
LINE
  8
0
 62
7
 10
21.61595729243168
 20
-3.942050807568879
 30
0
 11
21.88005890756944
 21
-3.942050807568879
 31
0
  0
LINE
  8
0
 62
7
 10
21.61595729243168
 20
-3.677949192431123
 30
0
 11
21.61595729243168
 21
-3.942050807568879
 31
0
  0
LINE
  8
0
 62
7
 10
21.88005890756944
 20
-3.677949192431123
 30
0
 11
21.61595729243168
 21
-3.677949192431123
 31
0
  0
LINE
  8
0
 62
7
 10
21.34800810000052
 20
-4.210000000000003
 30
0
 11
21.61595729243168
 21
-3.942050807568879
 31
0
  0
LINE
  8
0
 62
7
 10
21.88005890756944
 20
-3.677949192431123
 30
0
 11
22.14800810000052
 21
-3.410000000000001
 31
0
  0
LINE
  8
0
 62
7
 10
22.14800810000052
 20
-3.410000000000001
 30
0
 11
22.14800810000043
 21
-3.810000000000001
 31
0
  0
LINE
  8
0
 62
7
 10
21.34800810000052
 20
-3.410000000000001
 30
0
 11
22.14800810000052
 21
-3.410000000000001
 31
0
  0
LINE
  8
0
 62
7
 10
22.14800810000052
 20
-4.210000000000001
 30
0
 11
21.34800810000052
 21
-4.210000000000003
 31
0
  0
LINE
  8
0
 62
7
 10
21.34800810000043
 20
-3.810000000000001
 30
0
 11
21.34800810000052
 21
-3.410000000000001
 31
0
  0
LINE
  8
0
 62
7
 10
21.34800810000052
 20
-4.210000000000003
 30
0
 11
21.34800810000043
 21
-3.810000000000001
 31
0
  0
LINE
  8
0
 62
7
 10
21.34800810000052
 20
-3.410000000000001
 30
0
 11
21.61595729243168
 21
-3.677949192431123
 31
0
  0
LINE
  8
0
 62
7
 10
21.88005890756944
 20
-3.942050807568879
 30
0
 11
22.14800810000052
 21
-4.210000000000001
 31
0
  0
LINE
  8
0
 62
7
 10
22.14800810000052
 20
-4.210000000000001
 30
0
 11
22.14800810000043
 21
-3.810000000000001
 31
0
  0
LINE
  8
0
 62
7
 10
20.54800810000035
 20
0.6249999999999991
 30
0
 11
20.54800810000035
 21
1.299999999999999
 31
0
  0
LINE
  8
0
 62
7
 10
20.54800810000035
 20
-1.300000000000001
 30
0
 11
20.54800810000035
 21
-0.6250000000000013
 31
0
  0
LINE
  8
0
 62
7
 10
20.54800810000035
 20
-0.6250000000000013
 30
0
 11
20.54800810000035
 21
0.6249999999999991
 31
0
  0
LINE
  8
0
 62
7
 10
20.54800810000035
 20
1.299999999999999
 30
0
 11
20.54800810000035
 21
2.509999999999999
 31
0
  0
LINE
  8
0
 62
7
 10
20.54800810000035
 20
2.509999999999999
 30
0
 11
20.54800810000035
 21
3.184999999999999
 31
0
  0
LINE
  8
0
 62
7
 10
20.54800810000035
 20
3.184999999999999
 30
0
 11
20.54800810000035
 21
4.434999999999999
 31
0
  0
LINE
  8
0
 62
7
 10
20.54800810000035
 20
-3.185000000000001
 30
0
 11
20.54800810000035
 21
-2.510000000000001
 31
0
  0
LINE
  8
0
 62
7
 10
20.54800810000035
 20
5.109999999999999
 30
0
 11
20.54800810000035
 21
6.409999999999999
 31
0
  0
LINE
  8
0
 62
7
 10
21.04800810000035
 20
6.409999999999999
 30
0
 11
20.54800810000035
 21
6.409999999999999
 31
0
  0
LINE
  8
0
 62
7
 10
26.54800810000035
 20
6.409999999999999
 30
0
 11
29.64800810000033
 21
6.41
 31
0
  0
LINE
  8
0
 62
7
 10
23.14800810000033
 20
6.409999999999999
 30
0
 11
26.14800810000032
 21
6.409999999999999
 31
0
  0
LINE
  8
0
 62
7
 10
22.39800810000033
 20
6.409999999999999
 30
0
 11
23.14800810000033
 21
6.409999999999999
 31
0
  0
LINE
  8
0
 62
7
 10
21.04800810000035
 20
6.409999999999999
 30
0
 11
22.39800810000033
 21
6.409999999999999
 31
0
  0
LINE
  8
0
 62
7
 10
26.34800810000032
 20
6.409999999999999
 30
0
 11
26.14800810000032
 21
6.409999999999999
 31
0
  0
LINE
  8
0
 62
7
 10
26.34800810000032
 20
6.409999999999999
 30
0
 11
26.54800810000035
 21
6.409999999999999
 31
0
  0
LINE
  8
0
 62
7
 10
20.54800810000035
 20
4.434999999999999
 30
0
 11
20.54800810000035
 21
5.109999999999999
 31
0
  0
ARC
  8
0
 62
7
 10
21.74800810000041
 20
-8.881784197001252e-16
 30
0
 40
0.5999999999999979
 50
180
 51
270
  0
ARC
  8
0
 62
7
 10
21.74800810000041
 20
-8.881784197001252e-16
 30
0
 40
0.5999999999999894
 50
270
 51
0
  0
ARC
  8
0
 62
7
 10
21.74800810000041
 20
-8.881784197001252e-16
 30
0
 40
0.6
 50
90
 51
180
  0
ARC
  8
0
 62
7
 10
21.74800810000041
 20
-8.881784197001252e-16
 30
0
 40
0.6000000000000014
 50
0
 51
90
  0
ARC
  8
0
 62
7
 10
21.74800810000041
 20
3.809999999999999
 30
0
 40
0.6000000000000001
 50
270
 51
0
  0
ARC
  8
0
 62
7
 10
21.74800810000041
 20
3.809999999999999
 30
0
 40
0.5999999999999979
 50
180
 51
270
  0
ARC
  8
0
 62
7
 10
21.74800810000041
 20
3.809999999999999
 30
0
 40
0.5999999999999894
 50
90
 51
180
  0
ARC
  8
0
 62
7
 10
21.74800810000041
 20
3.809999999999999
 30
0
 40
0.6000000000000014
 50
0
 51
90
  0
ARC
  8
0
 62
7
 10
21.74800810000041
 20
-3.810000000000001
 30
0
 40
0.6000000000000014
 50
0
 51
90
  0
ARC
  8
0
 62
7
 10
21.74800810000041
 20
-3.810000000000001
 30
0
 40
0.6000000000000001
 50
90
 51
180
  0
ARC
  8
0
 62
7
 10
21.74800810000041
 20
-3.810000000000001
 30
0
 40
0.5999999999999979
 50
180
 51
270
  0
ARC
  8
0
 62
7
 10
21.74800810000041
 20
-3.810000000000001
 30
0
 40
0.6000000000000001
 50
270
 51
0
  0
ARC
  8
0
 62
7
 10
20.84800810000034
 20
3.809999999999999
 30
0
 40
0.3999999999999926
 50
138.5903778907282
 51
221.4096221092718
  0
ARC
  8
0
 62
7
 10
20.84800810000034
 20
-3.810000000000001
 30
0
 40
0.3999999999999924
 50
138.5903778907282
 51
221.4096221092718
  0
ARC
  8
0
 62
7
 10
20.84800810000034
 20
-8.881784197001252e-16
 30
0
 40
0.3999999999999926
 50
138.5903778907282
 51
221.4096221092718
  0
ENDBLK
  8
0
  0
BLOCK
  8
0
  2
SA_LINKS1
 70
0
 10
20.44800810000034
 20
-6.410000000000002
 30
0
  0
INSERT
  8
0
  2
MC_1_5-3-G-3_81__1
 10
20.44800810000034
 20
-6.410000000000002
 30
0
  0
ENDBLK
  8
0
  0
BLOCK
  8
0
  2
MC_1_5-3-G-3_81__2
 70
0
 10
-4.62999950000009
 20
-6.410000000000002
 30
0
  0
LINE
  8
0
 62
7
 10
-4.529999500000002
 20
2.104999999999999
 30
0
 11
-4.529999500000002
 21
6.41
 31
0
  0
LINE
  8
0
 62
7
 10
-4.629999499999982
 20
5.514999999999999
 30
0
 11
-4.62999950000001
 21
6.409999999999999
 31
0
  0
LINE
  8
0
 62
7
 10
-4.62999950000001
 20
6.409999999999999
 30
0
 11
-4.529999500000002
 21
6.41
 31
0
  0
LINE
  8
0
 62
7
 10
-4.629999499999982
 20
5.065000000000098
 30
0
 11
-4.62999950000009
 21
5.300000000000113
 31
0
  0
LINE
  8
0
 62
7
 10
-4.629999499999982
 20
4.209999999999999
 30
0
 11
-4.62999950000009
 21
4.409999999999999
 31
0
  0
LINE
  8
0
 62
7
 10
-4.629999499999982
 20
2.554999999999924
 30
0
 11
-4.629999499999989
 21
2.955824817578475
 31
0
  0
LINE
  8
0
 62
7
 10
-4.62999950000009
 20
4.409999999999999
 30
0
 11
-4.629999499999987
 21
4.664175182421523
 31
0
  0
LINE
  8
0
 62
7
 10
-4.629999499999982
 20
3.409999999999999
 30
0
 11
-4.629999499999982
 21
4.209999999999999
 31
0
  0
LINE
  8
0
 62
7
 10
-4.629999499999982
 20
3.21
 30
0
 11
-4.629999499999982
 21
3.409999999999999
 31
0
  0
LINE
  8
0
 62
7
 10
-4.629999499999982
 20
2.104999999999999
 30
0
 11
-4.629999499999982
 21
2.319999999999941
 31
0
  0
LINE
  8
0
 62
7
 10
-4.629999499999982
 20
2.319999999999941
 30
0
 11
-4.629999499999982
 21
2.554999999999924
 31
0
  0
LINE
  8
0
 62
7
 10
-4.629999499999987
 20
4.664175182421523
 30
0
 11
-4.629999499999982
 21
5.065000000000098
 31
0
  0
LINE
  8
0
 62
7
 10
-4.62999950000009
 20
5.300000000000113
 30
0
 11
-4.629999499999982
 21
5.514999999999999
 31
0
  0
LINE
  8
0
 62
7
 10
-4.62999950000001
 20
1.704999999999999
 30
0
 11
-4.529999500000002
 21
1.704999999999999
 31
0
  0
LINE
  8
0
 62
7
 10
-4.629999499999982
 20
1.490000000000112
 30
0
 11
-4.62999950000001
 21
1.704999999999999
 31
0
  0
LINE
  8
0
 62
7
 10
-4.629999499999982
 20
1.255000000000098
 30
0
 11
-4.629999499999982
 21
1.490000000000112
 31
0
  0
LINE
  8
0
 62
7
 10
-4.629999499999989
 20
2.955824817578475
 30
0
 11
-4.629999499999982
 21
3.21
 31
0
  0
LINE
  8
0
 62
7
 10
1.070000499999991
 20
-6.410000000000002
 30
0
 11
-1.029999499999987
 21
-6.410000000000002
 31
0
  0
LINE
  8
0
 62
7
 10
2.970000499999899
 20
-8.881784197001252e-16
 30
0
 11
2.770000499999921
 21
-8.881784197001252e-16
 31
0
  0
LINE
  8
0
 62
7
 10
3.970000499999921
 20
-8.14699611751284e-16
 30
0
 11
3.770000499999898
 21
-8.881784197001252e-16
 31
0
  0
LINE
  8
0
 62
7
 10
1.411718471007732
 20
-6.410000000000002
 30
0
 11
1.28079631257799
 21
-6.410000000000002
 31
0
  0
LINE
  8
0
 62
7
 10
-4.629999499999982
 20
-0.6000000000000001
 30
0
 11
-4.629999499999982
 21
-0.4000000000000006
 31
0
  0
LINE
  8
0
 62
7
 10
-4.629999499999982
 20
-1.490000000000059
 30
0
 11
-4.629999499999982
 21
-1.255000000000076
 31
0
  0
LINE
  8
0
 62
7
 10
-4.629999499999989
 20
-0.8541751824215242
 30
0
 11
-4.629999499999982
 21
-0.6000000000000001
 31
0
  0
LINE
  8
0
 62
7
 10
-4.629999499999982
 20
-1.255000000000076
 30
0
 11
-4.629999499999989
 21
-0.8541751824215242
 31
0
  0
LINE
  8
0
 62
7
 10
-4.62999950000001
 20
-1.705000000000001
 30
0
 11
-4.629999499999982
 21
-1.490000000000059
 31
0
  0
LINE
  8
0
 62
7
 10
-4.62999950000001
 20
-1.705000000000001
 30
0
 11
-4.529999500000002
 21
-1.705000000000001
 31
0
  0
LINE
  8
0
 62
7
 10
-3.879898499999983
 20
-2.105961894323343
 30
0
 11
-3.879898499999983
 21
-1.704038105676659
 31
0
  0
LINE
  8
0
 62
7
 10
-3.879898499999983
 20
-1.704038105676659
 30
0
 11
-4.629898499999983
 21
-1.905000000000001
 31
0
  0
LINE
  8
0
 62
7
 10
-4.629999499999982
 20
-2.092564434701786
 30
0
 11
-4.62999950000001
 21
-2.105000000000001
 31
0
  0
LINE
  8
0
 62
7
 10
-4.62999950000001
 20
-1.705000000000001
 30
0
 11
-4.629999499999982
 21
-1.717435565298215
 31
0
  0
LINE
  8
0
 62
7
 10
-4.629999499999982
 20
-1.717435565298215
 30
0
 11
-4.629999499999982
 21
-1.905000000000001
 31
0
  0
LINE
  8
0
 62
7
 10
-4.629999499999982
 20
-1.905000000000001
 30
0
 11
-4.629999499999982
 21
-2.092564434701786
 31
0
  0
LINE
  8
0
 62
7
 10
-4.629898499999983
 20
-1.905000000000001
 30
0
 11
-3.879898499999983
 21
-2.105961894323343
 31
0
  0
LINE
  8
0
 62
7
 10
-1.22999949999999
 20
-6.410000000000002
 30
0
 11
-1.029999499999987
 21
-6.410000000000002
 31
0
  0
LINE
  8
0
 62
7
 10
-1.429999500000014
 20
-6.410000000000002
 30
0
 11
-4.529999500000002
 21
-6.410000000000001
 31
0
  0
LINE
  8
0
 62
7
 10
-1.22999949999999
 20
-6.410000000000002
 30
0
 11
-1.429999500000014
 21
-6.410000000000002
 31
0
  0
LINE
  8
0
 62
7
 10
-4.62999950000001
 20
-6.410000000000002
 30
0
 11
-4.529999500000002
 21
-6.410000000000001
 31
0
  0
LINE
  8
0
 62
7
 10
-4.62999950000001
 20
-2.105000000000001
 30
0
 11
-4.529999500000002
 21
-2.105000000000001
 31
0
  0
LINE
  8
0
 62
7
 10
-4.629999499999982
 20
-2.319999999999888
 30
0
 11
-4.62999950000001
 21
-2.105000000000001
 31
0
  0
LINE
  8
0
 62
7
 10
-4.62999950000001
 20
-6.410000000000002
 30
0
 11
-4.629999499999982
 21
-5.515000000000002
 31
0
  0
LINE
  8
0
 62
7
 10
-4.629999499999982
 20
-5.065000000000078
 30
0
 11
-4.629999499999017
 21
-4.664175182421655
 31
0
  0
LINE
  8
0
 62
7
 10
-4.629999499999982
 20
-5.515000000000002
 30
0
 11
-4.629999499999982
 21
-5.300000000000061
 31
0
  0
LINE
  8
0
 62
7
 10
-4.629999499999982
 20
-5.300000000000061
 30
0
 11
-4.629999499999982
 21
-5.065000000000078
 31
0
  0
LINE
  8
0
 62
7
 10
-4.629999499999017
 20
-4.664175182421655
 30
0
 11
-4.629999499999982
 21
-4.41
 31
0
  0
LINE
  8
0
 62
7
 10
-4.629999499999982
 20
-4.41
 30
0
 11
-4.629999499999982
 21
-4.210000000000003
 31
0
  0
LINE
  8
0
 62
7
 10
-4.629999499999982
 20
-3.21
 30
0
 11
-4.629999499999015
 21
-2.955824817578349
 31
0
  0
LINE
  8
0
 62
7
 10
-4.629999499999982
 20
-4.210000000000003
 30
0
 11
-4.629999499999982
 21
-3.410000000000001
 31
0
  0
LINE
  8
0
 62
7
 10
-4.629999499999982
 20
-3.410000000000001
 30
0
 11
-4.629999499999982
 21
-3.21
 31
0
  0
LINE
  8
0
 62
7
 10
-4.629999499999982
 20
-2.554999999999902
 30
0
 11
-4.629999499999982
 21
-2.319999999999888
 31
0
  0
LINE
  8
0
 62
7
 10
-4.629999499999015
 20
-2.955824817578349
 30
0
 11
-4.629999499999982
 21
-2.554999999999902
 31
0
  0
LINE
  8
0
 62
7
 10
1.28079631257799
 20
-6.410000000000002
 30
0
 11
1.070000499999991
 21
-6.410000000000002
 31
0
  0
LINE
  8
0
 62
7
 10
1.569815330441172
 20
-6.410000000000002
 30
0
 11
1.411718471007732
 21
-6.410000000000002
 31
0
  0
LINE
  8
0
 62
7
 10
2.058119952319868
 20
-6.410000000000002
 30
0
 11
1.569815330441172
 21
-6.410000000000002
 31
0
  0
LINE
  8
0
 62
7
 10
2.246434779282281
 20
-6.410000000000002
 30
0
 11
2.058119952319868
 21
-6.410000000000002
 31
0
  0
LINE
  8
0
 62
7
 10
2.404531638715702
 20
-6.410000000000002
 30
0
 11
2.31545434792818
 21
-6.410000000000002
 31
0
  0
LINE
  8
0
 62
7
 10
2.625156787094993
 20
-6.410000000000002
 30
0
 11
2.404531638715702
 21
-6.410000000000002
 31
0
  0
LINE
  8
0
 62
7
 10
2.286482082612593
 20
-6.410000000000002
 30
0
 11
2.246434779282281
 21
-6.410000000000002
 31
0
  0
LINE
  8
0
 62
7
 10
2.31545434792818
 20
-6.410000000000002
 30
0
 11
2.286482082612593
 21
-6.410000000000002
 31
0
  0
LINE
  8
0
 62
7
 10
2.795905296342595
 20
-6.410000000000002
 30
0
 11
2.783253646528578
 21
-6.410000000000002
 31
0
  0
LINE
  8
0
 62
7
 10
2.971568473490849
 20
-6.410000000000002
 30
0
 11
2.795905296342595
 21
-6.410000000000002
 31
0
  0
LINE
  8
0
 62
7
 10
2.783253646528578
 20
-6.410000000000002
 30
0
 11
2.743206343198181
 21
-6.410000000000002
 31
0
  0
LINE
  8
0
 62
7
 10
2.714234077882593
 20
-6.410000000000002
 30
0
 11
2.625156787094993
 21
-6.410000000000002
 31
0
  0
LINE
  8
0
 62
7
 10
2.743206343198181
 20
-6.410000000000002
 30
0
 11
2.714234077882593
 21
-6.410000000000002
 31
0
  0
LINE
  8
0
 62
7
 10
3.370000499999921
 20
-8.881784197001252e-16
 30
0
 11
2.970000499999899
 21
-8.881784197001252e-16
 31
0
  0
LINE
  8
0
 62
7
 10
3.770000499999898
 20
-8.881784197001252e-16
 30
0
 11
3.370000499999921
 21
-8.881784197001252e-16
 31
0
  0
LINE
  8
0
 62
7
 10
3.747088870387794
 20
-6.410000000000002
 30
0
 11
2.971568473490849
 21
-6.410000000000002
 31
0
  0
LINE
  8
0
 62
7
 10
3.859204687421992
 20
-6.410000000000002
 30
0
 11
3.747088870387794
 21
-6.410000000000002
 31
0
  0
LINE
  8
0
 62
7
 10
3.370000499999921
 20
-3.810000000000001
 30
0
 11
3.770000499999898
 21
-3.810000000000001
 31
0
  0
LINE
  8
0
 62
7
 10
4.070000499999986
 20
-6.410000000000002
 30
0
 11
3.859204687421992
 21
-6.410000000000002
 31
0
  0
LINE
  8
0
 62
7
 10
-4.629999499999015
 20
0.8541751824216517
 30
0
 11
-4.629999499999982
 21
1.255000000000098
 31
0
  0
LINE
  8
0
 62
7
 10
-4.629999499999982
 20
0.399999999999999
 30
0
 11
-4.629999499999982
 21
0.5999999999999996
 31
0
  0
LINE
  8
0
 62
7
 10
-4.629999499999982
 20
-0.4000000000000006
 30
0
 11
-4.629999499999982
 21
0.399999999999999
 31
0
  0
LINE
  8
0
 62
7
 10
-4.629999499999982
 20
0.5999999999999996
 30
0
 11
-4.629999499999015
 21
0.8541751824216517
 31
0
  0
LINE
  8
0
 62
7
 10
-1.029999499999987
 20
-6.410000000000002
 30
0
 11
-1.029999499999987
 21
6.409999999999999
 31
0
  0
LINE
  8
0
 62
7
 10
-1.22999949999999
 20
6.409999999999999
 30
0
 11
-1.22999949999999
 21
-6.410000000000002
 31
0
  0
LINE
  8
0
 62
7
 10
4.570000499999986
 20
-2.510000000000001
 30
0
 11
4.570000499999986
 21
-1.300000000000001
 31
0
  0
LINE
  8
0
 62
7
 10
4.070000499999913
 20
-6.310000000000002
 30
0
 11
4.070000499999986
 21
-6.410000000000002
 31
0
  0
LINE
  8
0
 62
7
 10
4.070000499999986
 20
-6.410000000000002
 30
0
 11
4.570000499999986
 21
-6.410000000000002
 31
0
  0
LINE
  8
0
 62
7
 10
4.570000499999986
 20
-4.435000000000002
 30
0
 11
4.570000499999986
 21
-3.185000000000001
 31
0
  0
LINE
  8
0
 62
7
 10
4.570000499999986
 20
-5.110000000000001
 30
0
 11
4.570000499999986
 21
-4.435000000000002
 31
0
  0
LINE
  8
0
 62
7
 10
4.570000499999986
 20
-6.410000000000002
 30
0
 11
4.570000499999986
 21
-5.110000000000001
 31
0
  0
LINE
  8
0
 62
7
 10
-1.429999500000014
 20
-6.410000000000002
 30
0
 11
-1.429999500000014
 21
6.409999999999999
 31
0
  0
LINE
  8
0
 62
7
 10
4.070000499999986
 20
6.409999999999999
 30
0
 11
4.070000499999913
 21
-6.310000000000002
 31
0
  0
LINE
  8
0
 62
7
 10
-4.629999499999982
 20
2.104999999999999
 30
0
 11
-4.529999500000002
 21
2.104999999999999
 31
0
  0
LINE
  8
0
 62
7
 10
-4.629999499999982
 20
1.717435565298213
 30
0
 11
-4.62999950000001
 21
1.704999999999999
 31
0
  0
LINE
  8
0
 62
7
 10
-4.629999499999982
 20
2.104999999999999
 30
0
 11
-4.629999499999982
 21
2.092564434701785
 31
0
  0
LINE
  8
0
 62
7
 10
-4.629999499999982
 20
2.092564434701785
 30
0
 11
-4.629999499999982
 21
1.904999999999999
 31
0
  0
LINE
  8
0
 62
7
 10
-4.629999499999982
 20
1.904999999999999
 30
0
 11
-4.629999499999982
 21
1.717435565298213
 31
0
  0
LINE
  8
0
 62
7
 10
-3.879898499999983
 20
2.105961894323341
 30
0
 11
-4.629898499999983
 21
1.904999999999999
 31
0
  0
LINE
  8
0
 62
7
 10
-4.629898499999983
 20
1.904999999999999
 30
0
 11
-3.879898499999983
 21
1.704038105676657
 31
0
  0
LINE
  8
0
 62
7
 10
-4.529999500000002
 20
-6.410000000000001
 30
0
 11
-4.529999500000002
 21
-2.105000000000001
 31
0
  0
LINE
  8
0
 62
7
 10
2.970000499999899
 20
3.809999999999999
 30
0
 11
3.370000499999921
 21
3.809999999999999
 31
0
  0
LINE
  8
0
 62
7
 10
3.970000499999921
 20
3.809999999999999
 30
0
 11
3.770000499999898
 21
3.809999999999999
 31
0
  0
LINE
  8
0
 62
7
 10
3.370000499999921
 20
3.809999999999999
 30
0
 11
3.770000499999898
 21
3.809999999999999
 31
0
  0
LINE
  8
0
 62
7
 10
2.970000499999899
 20
3.809999999999999
 30
0
 11
2.770000499999921
 21
3.809999999999999
 31
0
  0
LINE
  8
0
 62
7
 10
2.970000499999899
 20
-3.810000000000001
 30
0
 11
2.770000499999921
 21
-3.810000000000001
 31
0
  0
LINE
  8
0
 62
7
 10
3.370000499999921
 20
-3.810000000000001
 30
0
 11
2.970000499999899
 21
-3.810000000000001
 31
0
  0
LINE
  8
0
 62
7
 10
3.770000499999898
 20
-3.810000000000001
 30
0
 11
3.970000499999921
 21
-3.810000000000001
 31
0
  0
LINE
  8
0
 62
7
 10
-3.879898499999983
 20
1.704038105676657
 30
0
 11
-3.879898499999983
 21
2.105961894323341
 31
0
  0
LINE
  8
0
 62
7
 10
-4.529999500000002
 20
-1.705000000000001
 30
0
 11
-4.529999500000002
 21
1.704999999999999
 31
0
  0
LINE
  8
0
 62
7
 10
4.570000499999986
 20
0.6249999999999991
 30
0
 11
4.570000499999986
 21
1.299999999999999
 31
0
  0
LINE
  8
0
 62
7
 10
4.570000499999986
 20
-1.300000000000001
 30
0
 11
4.570000499999986
 21
-0.6250000000000013
 31
0
  0
LINE
  8
0
 62
7
 10
4.570000499999986
 20
-0.6250000000000013
 30
0
 11
4.570000499999986
 21
0.6249999999999991
 31
0
  0
LINE
  8
0
 62
7
 10
4.570000499999986
 20
2.509999999999999
 30
0
 11
4.570000499999986
 21
3.184999999999999
 31
0
  0
LINE
  8
0
 62
7
 10
4.570000499999986
 20
1.299999999999999
 30
0
 11
4.570000499999986
 21
2.509999999999999
 31
0
  0
LINE
  8
0
 62
7
 10
4.570000499999986
 20
3.184999999999999
 30
0
 11
4.570000499999986
 21
4.434999999999999
 31
0
  0
LINE
  8
0
 62
7
 10
4.570000499999986
 20
-3.185000000000001
 30
0
 11
4.570000499999986
 21
-2.510000000000001
 31
0
  0
LINE
  8
0
 62
7
 10
4.570000499999986
 20
5.109999999999999
 30
0
 11
4.570000499999986
 21
6.409999999999999
 31
0
  0
LINE
  8
0
 62
7
 10
4.070000499999986
 20
6.409999999999999
 30
0
 11
4.570000499999986
 21
6.409999999999999
 31
0
  0
LINE
  8
0
 62
7
 10
1.970000499999998
 20
6.409999999999999
 30
0
 11
-1.029999499999987
 21
6.409999999999999
 31
0
  0
LINE
  8
0
 62
7
 10
2.720000499999998
 20
6.409999999999999
 30
0
 11
1.970000499999998
 21
6.409999999999999
 31
0
  0
LINE
  8
0
 62
7
 10
4.070000499999986
 20
6.409999999999999
 30
0
 11
2.720000499999998
 21
6.409999999999999
 31
0
  0
LINE
  8
0
 62
7
 10
-1.429999500000014
 20
6.409999999999999
 30
0
 11
-4.529999500000002
 21
6.41
 31
0
  0
LINE
  8
0
 62
7
 10
-1.22999949999999
 20
6.409999999999999
 30
0
 11
-1.029999499999987
 21
6.409999999999999
 31
0
  0
LINE
  8
0
 62
7
 10
-1.22999949999999
 20
6.409999999999999
 30
0
 11
-1.429999500000014
 21
6.409999999999999
 31
0
  0
LINE
  8
0
 62
7
 10
4.570000499999986
 20
4.434999999999999
 30
0
 11
4.570000499999986
 21
5.109999999999999
 31
0
  0
ARC
  8
0
 62
7
 10
4.270000499999986
 20
3.809999999999999
 30
0
 40
0.4
 50
318.5903778907291
 51
41.40962210927089
  0
ARC
  8
0
 62
7
 10
3.370000499999921
 20
-8.881784197001252e-16
 30
0
 40
0.5999999999999894
 50
270
 51
0
  0
ARC
  8
0
 62
7
 10
3.370000499999921
 20
-8.881784197001252e-16
 30
0
 40
0.6000000000000001
 50
180
 51
270
  0
ARC
  8
0
 62
7
 10
3.370000499999921
 20
-8.881784197001252e-16
 30
0
 40
0.6000000000000001
 50
0
 51
90
  0
ARC
  8
0
 62
7
 10
3.370000499999921
 20
-8.881784197001252e-16
 30
0
 40
0.6
 50
90
 51
180
  0
ARC
  8
0
 62
7
 10
3.370000499999921
 20
3.809999999999999
 30
0
 40
0.6000000000000001
 50
180
 51
270
  0
ARC
  8
0
 62
7
 10
3.370000499999921
 20
3.809999999999999
 30
0
 40
0.6000000000000001
 50
270
 51
0
  0
ARC
  8
0
 62
7
 10
3.370000499999921
 20
3.809999999999999
 30
0
 40
0.6000000000000001
 50
0
 51
90
  0
ARC
  8
0
 62
7
 10
3.370000499999921
 20
3.809999999999999
 30
0
 40
0.5999999999999894
 50
90
 51
180
  0
ARC
  8
0
 62
7
 10
3.370000499999921
 20
-3.810000000000001
 30
0
 40
0.6000000000000001
 50
90
 51
180
  0
ARC
  8
0
 62
7
 10
3.370000499999921
 20
-3.810000000000001
 30
0
 40
0.6000000000000001
 50
0
 51
90
  0
ARC
  8
0
 62
7
 10
3.370000499999921
 20
-3.810000000000001
 30
0
 40
0.6000000000000001
 50
270
 51
0
  0
ARC
  8
0
 62
7
 10
3.370000499999921
 20
-3.810000000000001
 30
0
 40
0.6000000000000001
 50
180
 51
270
  0
ARC
  8
0
 62
7
 10
4.270000499999986
 20
-3.810000000000001
 30
0
 40
0.4
 50
318.5903778907291
 51
41.40962210927085
  0
ARC
  8
0
 62
7
 10
4.270000499999986
 20
-8.881784197001252e-16
 30
0
 40
0.3999999999999999
 50
318.5903778907291
 51
41.40962210927088
  0
ENDBLK
  8
0
  0
BLOCK
  8
0
  2
SA_RECHTS1
 70
0
 10
-4.62999950000009
 20
-6.410000000000002
 30
0
  0
INSERT
  8
0
  2
MC_1_5-3-G-3_81__2
 10
-4.62999950000009
 20
-6.410000000000002
 30
0
  0
ENDBLK
  8
0
  0
BLOCK
  8
0
  2
MC_1_5-3-G-3_81__3
 70
0
 10
7.234004299999986
 20
8.974003799999998
 30
0
  0
LINE
  8
0
 62
7
 10
17.03400430000006
 20
9.0740038
 30
0
 11
17.13400430000035
 21
9.0740038
 31
0
  0
LINE
  8
0
 62
7
 10
7.234004299999986
 20
10.14195299243134
 30
0
 11
7.234004299999999
 21
10.40605460756909
 31
0
  0
LINE
  8
0
 62
7
 10
7.234004299999999
 20
10.40605460756909
 30
0
 11
8.234004300000009
 21
10.67400380000017
 31
0
  0
LINE
  8
0
 62
7
 10
10.13400430000001
 20
10.67400380000009
 30
0
 11
8.234004300000009
 21
10.67400380000017
 31
0
  0
LINE
  8
0
 62
7
 10
10.13400429999999
 20
10.87400380000007
 30
0
 11
10.13400430000001
 21
10.67400380000009
 31
0
  0
LINE
  8
0
 62
7
 10
17.63400430000035
 20
14.67400379999999
 30
0
 11
17.68400430000035
 21
14.67400379999997
 31
0
  0
LINE
  8
0
 62
7
 10
17.63400430000037
 20
18.27400379999997
 30
0
 11
17.53400430000036
 21
18.27400379999997
 31
0
  0
LINE
  8
0
 62
7
 10
17.63400430000035
 20
18.27390279999997
 30
0
 11
17.63400430000037
 21
18.17400379999999
 31
0
  0
LINE
  8
0
 62
7
 10
17.63400430000037
 20
18.27400379999997
 30
0
 11
17.63400430000035
 21
18.27390279999997
 31
0
  0
LINE
  8
0
 62
7
 10
17.63400430000035
 20
17.52390279999997
 30
0
 11
17.63400430000037
 21
18.17400379999999
 31
0
  0
LINE
  8
0
 62
7
 10
17.63400430000035
 20
15.0740038
 30
0
 11
17.63400430000035
 21
17.52390279999997
 31
0
  0
LINE
  8
0
 62
7
 10
11.20002970378775
 20
18.274003799999
 30
0
 11
10.63400430000035
 21
18.27400379999997
 31
0
  0
LINE
  8
0
 62
7
 10
11.50002970378479
 20
18.27400379999997
 30
0
 11
11.20002970378775
 21
18.274003799999
 31
0
  0
LINE
  8
0
 62
7
 10
12.93400430000005
 20
18.27400379999997
 30
0
 11
11.50002970378479
 21
18.27400379999997
 31
0
  0
LINE
  8
0
 62
7
 10
13.63400430000006
 20
18.27400379999997
 30
0
 11
12.93400430000005
 21
18.27400379999997
 31
0
  0
LINE
  8
0
 62
7
 10
15.76797889621565
 20
18.27400379999997
 30
0
 11
13.63400430000006
 21
18.27400379999997
 31
0
  0
LINE
  8
0
 62
7
 10
11.34480011257786
 20
12.5740038
 30
0
 11
13.92320848742202
 21
12.5740038
 31
0
  0
LINE
  8
0
 62
7
 10
13.65089891438588
 20
12.23228582899231
 30
0
 11
11.61710968562182
 21
12.23228582899231
 31
0
  0
LINE
  8
0
 62
7
 10
13.65089891438578
 20
11.23947266128409
 30
0
 11
13.41094996341304
 21
11.23947266128409
 31
0
  0
LINE
  8
0
 62
7
 10
13.41094996341304
 20
11.01884751290499
 30
0
 11
13.65089891438578
 21
11.01884751290499
 31
0
  0
LINE
  8
0
 62
7
 10
10.63400429999999
 20
10.87400380000007
 30
0
 11
10.13400429999999
 21
10.87400380000007
 31
0
  0
LINE
  8
0
 62
7
 10
12.06472548516242
 20
11.0188475129048
 30
0
 11
12.30467443613528
 21
11.0188475129048
 31
0
  0
LINE
  8
0
 62
7
 10
11.45901282618838
 20
11.39756952071771
 30
0
 11
11.45901282618838
 21
12.07418896955881
 31
0
  0
LINE
  8
0
 62
7
 10
12.30467443613528
 20
11.23947266128441
 30
0
 11
11.61710968562182
 21
11.23947266128441
 31
0
  0
LINE
  8
0
 62
7
 10
13.80899577381932
 20
12.07418896955881
 30
0
 11
13.8089957738193
 21
11.39756952071771
 31
0
  0
LINE
  8
0
 62
7
 10
13.8089957738193
 20
10.84809900365739
 30
0
 11
13.8089957738193
 21
10.86075065347141
 31
0
  0
LINE
  8
0
 62
7
 10
11.90662862572892
 20
10.84809900365739
 30
0
 11
11.90662862572892
 21
10.86075065347141
 31
0
  0
LINE
  8
0
 62
7
 10
10.63400429999999
 20
10.87400380000007
 30
0
 11
10.63400430000035
 21
18.27400379999997
 31
0
  0
LINE
  8
0
 62
7
 10
10.63400429999997
 20
9.674003800000065
 30
0
 11
10.63400429999999
 21
10.87400380000007
 31
0
  0
LINE
  8
0
 62
7
 10
10.63400430000035
 20
9.0740038
 30
0
 11
10.63400429999997
 21
9.674003800000065
 31
0
  0
LINE
  8
0
 62
7
 10
16.10400430000318
 20
18.27400379999997
 30
0
 11
15.76797889621565
 21
18.27400379999997
 31
0
  0
LINE
  8
0
 62
7
 10
14.13400429999994
 20
12.363207987422
 30
0
 11
14.13400430000002
 21
9.784799612577995
 31
0
  0
LINE
  8
0
 62
7
 10
17.88400430000035
 20
14.87400379999998
 30
0
 11
17.88400430000035
 21
15.0740038
 31
0
  0
LINE
  8
0
 62
7
 10
17.88400430000035
 20
15.0740038
 30
0
 11
17.63400430000035
 21
15.0740038
 31
0
  0
LINE
  8
0
 62
7
 10
16.30400430000318
 20
18.27400379999997
 30
0
 11
16.10400430000318
 21
18.27400379999997
 31
0
  0
LINE
  8
0
 62
7
 10
17.53400430000036
 20
18.27400379999997
 30
0
 11
16.98400430000303
 21
18.27400379999997
 31
0
  0
LINE
  8
0
 62
7
 10
16.23400430000006
 20
9.0740038
 30
0
 11
17.03400430000006
 21
9.0740038
 31
0
  0
LINE
  8
0
 62
7
 10
16.98400430000303
 20
18.27400379999997
 30
0
 11
16.30400430000318
 21
18.27400379999997
 31
0
  0
LINE
  8
0
 62
7
 10
17.63400430000035
 20
9.5740038
 30
0
 11
17.63400430000035
 21
14.67400379999999
 31
0
  0
LINE
  8
0
 62
7
 10
11.13400429999994
 20
9.784799612577995
 30
0
 11
11.13400429999994
 21
12.363207987422
 31
0
  0
LINE
  8
0
 62
7
 10
15.88900430000005
 20
9.0740038
 30
0
 11
16.23400430000006
 21
9.0740038
 31
0
  0
LINE
  8
0
 62
7
 10
14.63900430000005
 20
9.0740038
 30
0
 11
15.88900430000005
 21
9.0740038
 31
0
  0
LINE
  8
0
 62
7
 10
10.63400430000035
 20
9.0740038
 30
0
 11
14.63900430000005
 21
9.0740038
 31
0
  0
LINE
  8
0
 62
7
 10
13.92320848742202
 20
9.574003799999996
 30
0
 11
11.34480011257786
 21
9.574003799999996
 31
0
  0
LINE
  8
0
 62
7
 10
10.63400429999997
 20
9.674003800000065
 30
0
 11
10.13400429999999
 21
9.674003800000065
 31
0
  0
LINE
  8
0
 62
7
 10
8.234004299999976
 20
9.874003800000173
 30
0
 11
7.234004299999986
 21
10.14195299243134
 31
0
  0
LINE
  8
0
 62
7
 10
10.13400429999998
 20
9.874003800000088
 30
0
 11
10.13400429999999
 21
9.674003800000065
 31
0
  0
LINE
  8
0
 62
7
 10
10.13400429999998
 20
9.874003800000088
 30
0
 11
8.234004299999976
 21
9.874003800000173
 31
0
  0
LINE
  8
0
 62
7
 10
10.13400429999998
 20
9.874003800000088
 30
0
 11
10.13400430000001
 21
10.67400380000009
 31
0
  0
LINE
  8
0
 62
7
 10
8.234004300000009
 20
10.67400380000017
 30
0
 11
8.234004299999976
 21
9.874003800000173
 31
0
  0
ARC
  8
0
 62
7
 10
12.85781219977412
 20
11.1291600870946
 30
0
 40
0.4567242605854656
 50
205.8849244575764
 51
334.1150755424275
  0
ARC
  8
0
 62
7
 10
17.68400430000035
 20
14.87400379999998
 30
0
 40
0.2000000000000099
 50
270
 51
0
  0
ARC
  8
0
 62
7
 10
13.65089891438586
 20
10.86075065347141
 30
0
 40
0.1580968594334404
 50
0
 51
90.00000000002898
  0
ARC
  8
0
 62
7
 10
12.06472548516236
 20
10.86075065347141
 30
0
 40
0.1580968594333907
 50
89.99999999997813
 51
180
  0
ARC
  8
0
 62
7
 10
12.85781219977412
 20
11.1291600870946
 30
0
 40
0.4567242605855198
 50
25.8849244575731
 51
154.1150755424241
  0
ARC
  8
0
 62
7
 10
13.41094996341304
 20
11.39756952071771
 30
0
 40
0.1580968594334207
 50
205.8849244575547
 51
270
  0
ARC
  8
0
 62
7
 10
13.41094996341304
 20
10.86075065347141
 30
0
 40
0.1580968594335808
 50
90
 51
154.1150755424169
  0
ARC
  8
0
 62
7
 10
11.61710968562182
 20
11.39756952071771
 30
0
 40
0.1580968594334404
 50
180
 51
270
  0
ARC
  8
0
 62
7
 10
11.34480011257786
 20
12.363207987422
 30
0
 40
0.2107958125780005
 50
90
 51
180
  0
ARC
  8
0
 62
7
 10
11.61710968562182
 20
12.07418896955881
 30
0
 40
0.1580968594335008
 50
90
 51
180
  0
ARC
  8
0
 62
7
 10
12.30467443613528
 20
11.39756952071771
 30
0
 40
0.1580968594333001
 50
270
 51
334.1150755424406
  0
ARC
  8
0
 62
7
 10
12.30467443613528
 20
10.86075065347141
 30
0
 40
0.1580968594334388
 50
25.88492445758445
 51
90
  0
ARC
  8
0
 62
7
 10
13.65089891438588
 20
12.07418896955881
 30
0
 40
0.1580968594334387
 50
0
 51
90
  0
ARC
  8
0
 62
7
 10
13.65089891438586
 20
11.39756952071771
 30
0
 40
0.1580968594336198
 50
269.9999999999711
 51
0
  0
ARC
  8
0
 62
7
 10
13.92320848742202
 20
12.363207987422
 30
0
 40
0.2107958125779206
 50
0
 51
90
  0
ARC
  8
0
 62
7
 10
13.92320848742202
 20
9.784799612577995
 30
0
 40
0.2107958125779987
 50
270
 51
0
  0
ARC
  8
0
 62
7
 10
17.53400430000036
 20
18.17400379999999
 30
0
 40
0.1000000000000121
 50
0
 51
90
  0
ARC
  8
0
 62
7
 10
17.13400430000035
 20
9.5740038
 30
0
 40
0.5
 50
270
 51
0
  0
ARC
  8
0
 62
7
 10
12.85781219977412
 20
10.84809900365739
 30
0
 40
0.9511835740451993
 50
180
 51
0
  0
ARC
  8
0
 62
7
 10
16.63400430000006
 20
9.374003800000001
 30
0
 40
0.4000000000000021
 50
228.5903778907289
 51
311.4096221092707
  0
ARC
  8
0
 62
7
 10
11.34480011257786
 20
9.784799612577995
 30
0
 40
0.2107958125779188
 50
180
 51
270
  0
CIRCLE
  8
0
 62
7
 10
12.85781219977412
 20
11.1291600870946
 30
0
 40
0.2283621302927905
  0
ENDBLK
  8
0
  0
BLOCK
  8
0
  2
UNTSICHT1
 70
0
 10
7.234004299999986
 20
8.974003799999998
 30
0
  0
INSERT
  8
0
  2
MC_1_5-3-G-3_81__3
 10
7.234004299999986
 20
8.974003799999998
 30
0
  0
ENDBLK
  8
0
  0
BLOCK
  8
0
  2
MC_1_5-3-G-3_81__4
 70
0
 10
32.35201290000032
 20
-6.410000000000002
 30
0
  0
LINE
  8
0
 62
7
 10
43.00201290000068
 20
3.942050807568877
 30
0
 11
43.00201290000068
 21
3.677949192431122
 31
0
  0
LINE
  8
0
 62
7
 10
32.60201290000032
 20
2.105961894323341
 30
0
 11
32.60201290000032
 21
6.409999999999999
 31
0
  0
LINE
  8
0
 62
7
 10
39.60201290000032
 20
6.409999999999999
 30
0
 11
39.60201290000067
 21
4.409999999999999
 31
0
  0
LINE
  8
0
 62
7
 10
32.60201290000032
 20
6.409999999999999
 30
0
 11
32.70201290000031
 21
6.41
 31
0
  0
LINE
  8
0
 62
7
 10
33.10201290000032
 20
6.409999999999999
 30
0
 11
36.40105100567727
 21
6.409999999999999
 31
0
  0
LINE
  8
0
 62
7
 10
36.80297479432395
 20
6.409999999999999
 30
0
 11
39.60201290000032
 21
6.409999999999999
 31
0
  0
LINE
  8
0
 62
7
 10
32.70201290000031
 20
6.41
 30
0
 11
33.10201290000032
 21
6.409999999999999
 31
0
  0
LINE
  8
0
 62
7
 10
36.40105100567727
 20
6.409999999999999
 30
0
 11
36.60201290000061
 21
6.409999999999999
 31
0
  0
LINE
  8
0
 62
7
 10
36.60201290000061
 20
6.409999999999999
 30
0
 11
36.80297479432395
 21
6.409999999999999
 31
0
  0
LINE
  8
0
 62
7
 10
32.70201290000031
 20
-6.410000000000001
 30
0
 11
32.6020129000003
 21
-6.410000000000002
 31
0
  0
LINE
  8
0
 62
7
 10
39.10201290000072
 20
-6.410000000000002
 30
0
 11
39.60201290000032
 21
-6.410000000000001
 31
0
  0
LINE
  8
0
 62
7
 10
32.70201290000031
 20
-6.410000000000001
 30
0
 11
33.10201290000032
 21
-6.410000000000002
 31
0
  0
LINE
  8
0
 62
7
 10
38.77700437381235
 20
-6.410000000000002
 30
0
 11
38.8912170874228
 21
-6.410000000000002
 31
0
  0
LINE
  8
0
 62
7
 10
36.10201290000072
 20
-6.410000000000002
 30
0
 11
36.31280871257864
 21
-6.410000000000002
 31
0
  0
LINE
  8
0
 62
7
 10
38.8912170874228
 20
-6.410000000000002
 30
0
 11
39.10201290000072
 21
-6.410000000000002
 31
0
  0
LINE
  8
0
 62
7
 10
33.10201290000032
 20
-6.410000000000002
 30
0
 11
36.10201290000072
 21
-6.410000000000002
 31
0
  0
LINE
  8
0
 62
7
 10
36.82506723658763
 20
-6.410000000000002
 30
0
 11
36.96730266152335
 21
-6.410000000000002
 31
0
  0
LINE
  8
0
 62
7
 10
37.60656713051934
 20
-6.410000000000002
 30
0
 11
37.78910733892968
 21
-6.410000000000002
 31
0
  0
LINE
  8
0
 62
7
 10
36.58511828561488
 20
-6.410000000000002
 30
0
 11
36.82506723658763
 21
-6.410000000000002
 31
0
  0
LINE
  8
0
 62
7
 10
37.78910733892968
 20
-6.410000000000002
 30
0
 11
37.93134276386539
 21
-6.410000000000002
 31
0
  0
LINE
  8
0
 62
7
 10
37.93134276386539
 20
-6.410000000000002
 30
0
 11
38.17129171483825
 21
-6.410000000000002
 31
0
  0
LINE
  8
0
 62
7
 10
38.17129171483825
 20
-6.410000000000002
 30
0
 11
38.32938857427169
 21
-6.410000000000002
 31
0
  0
LINE
  8
0
 62
7
 10
36.31280871257864
 20
-6.410000000000002
 30
0
 11
36.42702142618135
 21
-6.410000000000002
 31
0
  0
LINE
  8
0
 62
7
 10
36.42702142618135
 20
-6.410000000000002
 30
0
 11
36.58511828561488
 21
-6.410000000000002
 31
0
  0
LINE
  8
0
 62
7
 10
38.32938857427169
 20
-6.410000000000002
 30
0
 11
38.61890751437885
 21
-6.410000000000002
 31
0
  0
LINE
  8
0
 62
7
 10
38.61890751437885
 20
-6.410000000000002
 30
0
 11
38.77700437381235
 21
-6.410000000000002
 31
0
  0
LINE
  8
0
 62
7
 10
37.37820500022654
 20
-6.410000000000002
 30
0
 11
37.60656713051934
 21
-6.410000000000002
 31
0
  0
LINE
  8
0
 62
7
 10
37.14984286993375
 20
-6.410000000000002
 30
0
 11
37.37820500022654
 21
-6.410000000000002
 31
0
  0
LINE
  8
0
 62
7
 10
36.96730266152335
 20
-6.410000000000002
 30
0
 11
37.14984286993375
 21
-6.410000000000002
 31
0
  0
LINE
  8
0
 62
7
 10
32.60201290000032
 20
1.704038105676657
 30
0
 11
32.6020129000003
 21
1.704999999999999
 31
0
  0
LINE
  8
0
 62
7
 10
32.60201290000032
 20
-2.105961894323343
 30
0
 11
32.6020129000003
 21
-2.105000000000001
 31
0
  0
LINE
  8
0
 62
7
 10
32.6020129000003
 20
-6.410000000000002
 30
0
 11
32.60201290000032
 21
-2.105961894323343
 31
0
  0
LINE
  8
0
 62
7
 10
32.6020129000003
 20
-1.705000000000001
 30
0
 11
32.60201290000032
 21
-1.704038105676659
 31
0
  0
LINE
  8
0
 62
7
 10
32.60201290000032
 20
-1.905000000000001
 30
0
 11
32.6020129000003
 21
-2.105000000000001
 31
0
  0
LINE
  8
0
 62
7
 10
32.6020129000003
 20
-1.705000000000001
 30
0
 11
32.60201290000032
 21
-1.905000000000001
 31
0
  0
LINE
  8
0
 62
7
 10
32.60201290000032
 20
-1.704038105676659
 30
0
 11
32.60201290000032
 21
1.704038105676657
 31
0
  0
LINE
  8
0
 62
7
 10
39.60201290000067
 20
-4.410000000000002
 30
0
 11
39.60201290000032
 21
-6.410000000000001
 31
0
  0
LINE
  8
0
 62
7
 10
33.20201290000061
 20
-1.300000000000001
 30
0
 11
34.00201290000061
 21
-1.300000000000001
 31
0
  0
LINE
  8
0
 62
7
 10
34.00201290000061
 20
1.299999999999999
 30
0
 11
33.20201290000061
 21
1.299999999999999
 31
0
  0
LINE
  8
0
 62
7
 10
34.00201290000061
 20
-2.510000000000001
 30
0
 11
33.20201290000061
 21
-2.510000000000001
 31
0
  0
LINE
  8
0
 62
7
 10
34.00201290000061
 20
-9.371642916660194e-16
 30
0
 11
34.00201290000061
 21
1.299999999999999
 31
0
  0
LINE
  8
0
 62
7
 10
34.00201290000061
 20
-1.300000000000001
 30
0
 11
34.00201290000061
 21
-9.371642916660194e-16
 31
0
  0
LINE
  8
0
 62
7
 10
33.20201290000061
 20
-7.90206675768337e-16
 30
0
 11
33.20201290000061
 21
-1.300000000000001
 31
0
  0
LINE
  8
0
 62
7
 10
33.20201290000061
 20
1.299999999999999
 30
0
 11
33.20201290000061
 21
-7.90206675768337e-16
 31
0
  0
LINE
  8
0
 62
7
 10
32.60201290000032
 20
1.904999999999999
 30
0
 11
32.6020129000003
 21
1.704999999999999
 31
0
  0
LINE
  8
0
 62
7
 10
32.6020129000003
 20
2.104999999999999
 30
0
 11
32.60201290000032
 21
1.904999999999999
 31
0
  0
LINE
  8
0
 62
7
 10
34.00201290000061
 20
-3.810000000000001
 30
0
 11
34.00201290000061
 21
-2.510000000000001
 31
0
  0
LINE
  8
0
 62
7
 10
34.00201290000061
 20
-5.11
 30
0
 11
34.00201290000061
 21
-3.810000000000001
 31
0
  0
LINE
  8
0
 62
7
 10
33.20201290000061
 20
-5.110000000000001
 30
0
 11
34.00201290000061
 21
-5.11
 31
0
  0
LINE
  8
0
 62
7
 10
33.20201290000061
 20
-2.510000000000001
 30
0
 11
33.20201290000061
 21
-3.810000000000001
 31
0
  0
LINE
  8
0
 62
7
 10
33.20201290000061
 20
-3.810000000000001
 30
0
 11
33.20201290000061
 21
-5.110000000000001
 31
0
  0
LINE
  8
0
 62
7
 10
33.20201290000061
 20
2.509999999999999
 30
0
 11
34.00201290000061
 21
2.509999999999999
 31
0
  0
LINE
  8
0
 62
7
 10
39.60201290000067
 20
4.409999999999999
 30
0
 11
39.60201290000067
 21
3.209999999999999
 31
0
  0
LINE
  8
0
 62
7
 10
40.10201290000065
 20
3.409999999999999
 30
0
 11
40.10201290000067
 21
3.209999999999999
 31
0
  0
LINE
  8
0
 62
7
 10
40.10201290000067
 20
3.809999999999999
 30
0
 11
40.10201290000065
 21
3.409999999999999
 31
0
  0
LINE
  8
0
 62
7
 10
39.60201290000067
 20
-0.600000000000001
 30
0
 11
39.60201290000067
 21
-3.210000000000001
 31
0
  0
LINE
  8
0
 62
7
 10
39.60201290000067
 20
0.5999999999999992
 30
0
 11
39.60201290000067
 21
-0.600000000000001
 31
0
  0
LINE
  8
0
 62
7
 10
39.60201290000067
 20
3.209999999999999
 30
0
 11
40.10201290000067
 21
3.209999999999999
 31
0
  0
LINE
  8
0
 62
7
 10
40.10201290000065
 20
-0.4000000000000008
 30
0
 11
40.10201290000067
 21
-0.600000000000001
 31
0
  0
LINE
  8
0
 62
7
 10
40.10201290000067
 20
-8.881784197001252e-16
 30
0
 11
40.10201290000065
 21
-0.4000000000000008
 31
0
  0
LINE
  8
0
 62
7
 10
40.10201290000065
 20
-4.210000000000001
 30
0
 11
40.10201290000067
 21
-4.410000000000002
 31
0
  0
LINE
  8
0
 62
7
 10
40.10201290000067
 20
-3.810000000000001
 30
0
 11
40.10201290000065
 21
-4.210000000000001
 31
0
  0
LINE
  8
0
 62
7
 10
39.60201290000067
 20
-3.210000000000001
 30
0
 11
39.60201290000067
 21
-4.410000000000002
 31
0
  0
LINE
  8
0
 62
7
 10
39.60201290000067
 20
-4.410000000000002
 30
0
 11
40.10201290000067
 21
-4.410000000000002
 31
0
  0
LINE
  8
0
 62
7
 10
39.60201290000067
 20
-3.210000000000001
 30
0
 11
40.10201290000067
 21
-3.210000000000001
 31
0
  0
LINE
  8
0
 62
7
 10
40.10201290000065
 20
-3.410000000000001
 30
0
 11
40.10201290000067
 21
-3.810000000000001
 31
0
  0
LINE
  8
0
 62
7
 10
40.10201290000067
 20
-3.210000000000001
 30
0
 11
40.10201290000065
 21
-3.410000000000001
 31
0
  0
LINE
  8
0
 62
7
 10
39.60201290000067
 20
-0.600000000000001
 30
0
 11
40.10201290000067
 21
-0.600000000000001
 31
0
  0
LINE
  8
0
 62
7
 10
40.10201290000065
 20
0.399999999999999
 30
0
 11
40.10201290000067
 21
-8.881784197001252e-16
 31
0
  0
LINE
  8
0
 62
7
 10
40.10201290000067
 20
0.5999999999999992
 30
0
 11
40.10201290000065
 21
0.399999999999999
 31
0
  0
LINE
  8
0
 62
7
 10
39.60201290000067
 20
0.5999999999999992
 30
0
 11
40.10201290000067
 21
0.5999999999999992
 31
0
  0
LINE
  8
0
 62
7
 10
39.60201290000067
 20
3.209999999999999
 30
0
 11
39.60201290000067
 21
0.5999999999999992
 31
0
  0
LINE
  8
0
 62
7
 10
40.10201290000065
 20
3.409999999999999
 30
0
 11
42.00201290000069
 21
3.409999999999999
 31
0
  0
LINE
  8
0
 62
7
 10
40.10201290000065
 20
4.209999999999999
 30
0
 11
40.10201290000067
 21
3.809999999999999
 31
0
  0
LINE
  8
0
 62
7
 10
42.00201290000069
 20
3.409999999999999
 30
0
 11
42.00201290000069
 21
4.209999999999998
 31
0
  0
LINE
  8
0
 62
7
 10
42.00201290000069
 20
3.409999999999999
 30
0
 11
43.00201290000068
 21
3.677949192431122
 31
0
  0
LINE
  8
0
 62
7
 10
39.60201290000067
 20
4.409999999999999
 30
0
 11
40.10201290000067
 21
4.409999999999999
 31
0
  0
LINE
  8
0
 62
7
 10
42.00201290000069
 20
4.209999999999998
 30
0
 11
43.00201290000068
 21
3.942050807568877
 31
0
  0
LINE
  8
0
 62
7
 10
40.10201290000067
 20
4.409999999999999
 30
0
 11
40.10201290000065
 21
4.209999999999999
 31
0
  0
LINE
  8
0
 62
7
 10
40.10201290000065
 20
4.209999999999999
 30
0
 11
42.00201290000069
 21
4.209999999999998
 31
0
  0
LINE
  8
0
 62
7
 10
42.00201290000066
 20
-0.4000000000000008
 30
0
 11
43.00201290000068
 21
-0.1320508075688784
 31
0
  0
LINE
  8
0
 62
7
 10
43.00201290000068
 20
0.1320508075688767
 30
0
 11
43.00201290000068
 21
-0.1320508075688784
 31
0
  0
LINE
  8
0
 62
7
 10
40.10201290000065
 20
0.399999999999999
 30
0
 11
42.00201290000066
 21
0.399999999999999
 31
0
  0
LINE
  8
0
 62
7
 10
40.10201290000065
 20
-0.4000000000000008
 30
0
 11
42.00201290000066
 21
-0.4000000000000008
 31
0
  0
LINE
  8
0
 62
7
 10
42.00201290000066
 20
0.399999999999999
 30
0
 11
42.00201290000066
 21
-0.4000000000000008
 31
0
  0
LINE
  8
0
 62
7
 10
42.00201290000066
 20
0.399999999999999
 30
0
 11
43.00201290000068
 21
0.1320508075688767
 31
0
  0
LINE
  8
0
 62
7
 10
42.00201290000069
 20
-4.210000000000001
 30
0
 11
43.00201290000068
 21
-3.942050807568879
 31
0
  0
LINE
  8
0
 62
7
 10
42.00201290000069
 20
-4.210000000000001
 30
0
 11
42.00201290000069
 21
-3.410000000000001
 31
0
  0
LINE
  8
0
 62
7
 10
40.10201290000065
 20
-3.410000000000001
 30
0
 11
42.00201290000069
 21
-3.410000000000001
 31
0
  0
LINE
  8
0
 62
7
 10
43.00201290000068
 20
-3.677949192431123
 30
0
 11
43.00201290000068
 21
-3.942050807568879
 31
0
  0
LINE
  8
0
 62
7
 10
42.00201290000069
 20
-3.410000000000001
 30
0
 11
43.00201290000068
 21
-3.677949192431123
 31
0
  0
LINE
  8
0
 62
7
 10
40.10201290000065
 20
-4.210000000000001
 30
0
 11
42.00201290000069
 21
-4.210000000000001
 31
0
  0
LINE
  8
0
 62
7
 10
34.00201290000061
 20
2.509999999999999
 30
0
 11
34.00201290000061
 21
3.809999999999999
 31
0
  0
LINE
  8
0
 62
7
 10
33.20201290000061
 20
3.809999999999999
 30
0
 11
33.20201290000061
 21
2.509999999999999
 31
0
  0
LINE
  8
0
 62
7
 10
32.6020129000003
 20
2.104999999999999
 30
0
 11
32.60201290000032
 21
2.105961894323341
 31
0
  0
LINE
  8
0
 62
7
 10
33.20201290000061
 20
5.109999999999999
 30
0
 11
33.20201290000061
 21
3.809999999999999
 31
0
  0
LINE
  8
0
 62
7
 10
34.00201290000061
 20
5.109999999999999
 30
0
 11
33.20201290000061
 21
5.109999999999999
 31
0
  0
LINE
  8
0
 62
7
 10
34.00201290000061
 20
3.809999999999999
 30
0
 11
34.00201290000061
 21
5.109999999999999
 31
0
  0
LINE
  8
0
 62
7
 10
32.35201290000032
 20
6.409999999999999
 30
0
 11
32.55201290000032
 21
6.409999999999999
 31
0
  0
LINE
  8
0
 62
7
 10
32.35201290000032
 20
-6.410000000000002
 30
0
 11
32.35201290000032
 21
6.409999999999999
 31
0
  0
LINE
  8
0
 62
7
 10
32.35201290000032
 20
-6.410000000000002
 30
0
 11
32.55201290000032
 21
-6.410000000000001
 31
0
  0
LINE
  8
0
 62
7
 10
32.6020129000003
 20
-6.410000000000002
 30
0
 11
32.55201290000032
 21
-6.410000000000001
 31
0
  0
LINE
  8
0
 62
7
 10
32.60201290000032
 20
6.409999999999999
 30
0
 11
32.55201290000032
 21
6.409999999999999
 31
0
  0
ARC
  8
0
 62
7
 10
34.97201290000061
 20
3.809999999999999
 30
0
 40
0.625
 50
0
 51
180
  0
ARC
  8
0
 62
7
 10
33.60201290000061
 20
-8.881784197001252e-16
 30
0
 40
0.3999999999999986
 50
0
 51
180
  0
ARC
  8
0
 62
7
 10
33.60201290000061
 20
-8.881784197001252e-16
 30
0
 40
0.3999999999999986
 50
180
 51
0
  0
ARC
  8
0
 62
7
 10
33.60201290000061
 20
-3.810000000000001
 30
0
 40
0.3999999999999986
 50
0
 51
180
  0
ARC
  8
0
 62
7
 10
33.60201290000061
 20
-3.810000000000001
 30
0
 40
0.3999999999999986
 50
180
 51
0
  0
ARC
  8
0
 62
7
 10
33.60201290000061
 20
3.809999999999999
 30
0
 40
0.3999999999999986
 50
0
 51
180
  0
ARC
  8
0
 62
7
 10
33.60201290000061
 20
3.809999999999999
 30
0
 40
0.3999999999999986
 50
180
 51
0
  0
ARC
  8
0
 62
7
 10
34.97201290000061
 20
3.809999999999999
 30
0
 40
0.625
 50
180
 51
0
  0
CIRCLE
  8
0
 62
7
 10
34.97201290000061
 20
-8.881784197001252e-16
 30
0
 40
0.625
  0
CIRCLE
  8
0
 62
7
 10
34.97201290000061
 20
-3.810000000000001
 30
0
 40
0.625
  0
ENDBLK
  8
0
  0
BLOCK
  8
0
  2
R_CKANS1
 70
0
 10
32.35201290000032
 20
-6.410000000000002
 30
0
  0
INSERT
  8
0
  2
MC_1_5-3-G-3_81__4
 10
32.35201290000032
 20
-6.410000000000002
 30
0
  0
ENDBLK
  8
0
  0
BLOCK
  8
0
  2
MC_1_5-3-G-3_81__5
 70
0
 10
7.234004299999986
 20
-18.27400379999997
 30
0
  0
LINE
  8
0
 62
7
 10
17.03400430000006
 20
-9.0740038
 30
0
 11
17.13400430000035
 21
-9.0740038
 31
0
  0
LINE
  8
0
 62
7
 10
10.63400429999999
 20
-10.87400380000007
 30
0
 11
10.63400430000035
 21
-18.27400379999997
 31
0
  0
LINE
  8
0
 62
7
 10
10.63400429999997
 20
-9.674003800000065
 30
0
 11
10.63400429999999
 21
-10.87400380000007
 31
0
  0
LINE
  8
0
 62
7
 10
10.63400430000035
 20
-9.0740038
 30
0
 11
10.63400429999997
 21
-9.674003800000065
 31
0
  0
LINE
  8
0
 62
7
 10
13.8349661943234
 20
-10.92400379999999
 30
0
 11
13.43304240567671
 21
-10.92400379999999
 31
0
  0
LINE
  8
0
 62
7
 10
13.63400430000006
 20
-11.67400379999999
 30
0
 11
13.8349661943234
 21
-10.92400379999999
 31
0
  0
LINE
  8
0
 62
7
 10
16.10400430000318
 20
-18.27400379999997
 30
0
 11
15.76797889621565
 21
-18.27400379999997
 31
0
  0
LINE
  8
0
 62
7
 10
15.76797889621565
 20
-18.27400379999997
 30
0
 11
13.63400430000006
 21
-18.27400379999997
 31
0
  0
LINE
  8
0
 62
7
 10
17.88400430000035
 20
-14.87400379999998
 30
0
 11
17.88400430000035
 21
-15.0740038
 31
0
  0
LINE
  8
0
 62
7
 10
17.63400430000037
 20
-18.27400379999997
 30
0
 11
17.53400430000036
 21
-18.27400379999997
 31
0
  0
LINE
  8
0
 62
7
 10
17.63400430000035
 20
-18.27390279999997
 30
0
 11
17.63400430000037
 21
-18.17400379999999
 31
0
  0
LINE
  8
0
 62
7
 10
17.63400430000037
 20
-18.27400379999997
 30
0
 11
17.63400430000035
 21
-18.27390279999997
 31
0
  0
LINE
  8
0
 62
7
 10
17.88400430000035
 20
-15.0740038
 30
0
 11
17.63400430000035
 21
-15.0740038
 31
0
  0
LINE
  8
0
 62
7
 10
17.63400430000035
 20
-15.0740038
 30
0
 11
17.63400430000035
 21
-17.52390279999997
 31
0
  0
LINE
  8
0
 62
7
 10
17.53400430000036
 20
-18.27400379999997
 30
0
 11
16.98400430000303
 21
-18.27400379999997
 31
0
  0
LINE
  8
0
 62
7
 10
16.30400430000318
 20
-18.27400379999997
 30
0
 11
16.10400430000318
 21
-18.27400379999997
 31
0
  0
LINE
  8
0
 62
7
 10
16.23400430000006
 20
-9.0740038
 30
0
 11
17.03400430000006
 21
-9.0740038
 31
0
  0
LINE
  8
0
 62
7
 10
16.98400430000303
 20
-18.27400379999997
 30
0
 11
16.30400430000318
 21
-18.27400379999997
 31
0
  0
LINE
  8
0
 62
7
 10
17.63400430000035
 20
-9.5740038
 30
0
 11
17.63400430000035
 21
-14.67400379999999
 31
0
  0
LINE
  8
0
 62
7
 10
13.43304240567671
 20
-10.92400379999999
 30
0
 11
13.63400430000006
 21
-11.67400379999999
 31
0
  0
LINE
  8
0
 62
7
 10
15.88900430000005
 20
-9.0740038
 30
0
 11
16.23400430000006
 21
-9.0740038
 31
0
  0
LINE
  8
0
 62
7
 10
14.63900430000005
 20
-9.0740038
 30
0
 11
15.88900430000005
 21
-9.0740038
 31
0
  0
LINE
  8
0
 62
7
 10
10.63400430000035
 20
-9.0740038
 30
0
 11
14.63900430000005
 21
-9.0740038
 31
0
  0
LINE
  8
0
 62
7
 10
10.63400429999997
 20
-9.674003800000065
 30
0
 11
10.13400429999999
 21
-9.674003800000065
 31
0
  0
LINE
  8
0
 62
7
 10
8.234004299999976
 20
-9.874003800000173
 30
0
 11
7.234004299999986
 21
-10.14195299243134
 31
0
  0
LINE
  8
0
 62
7
 10
10.13400429999998
 20
-9.874003800000088
 30
0
 11
10.13400429999999
 21
-9.674003800000065
 31
0
  0
LINE
  8
0
 62
7
 10
10.13400429999998
 20
-9.874003800000088
 30
0
 11
8.234004299999976
 21
-9.874003800000173
 31
0
  0
LINE
  8
0
 62
7
 10
10.13400429999998
 20
-9.874003800000088
 30
0
 11
10.13400430000001
 21
-10.67400380000009
 31
0
  0
LINE
  8
0
 62
7
 10
8.234004300000009
 20
-10.67400380000017
 30
0
 11
8.234004299999976
 21
-9.874003800000173
 31
0
  0
LINE
  8
0
 62
7
 10
7.234004299999986
 20
-10.14195299243134
 30
0
 11
7.234004299999999
 21
-10.40605460756909
 31
0
  0
LINE
  8
0
 62
7
 10
7.234004299999999
 20
-10.40605460756909
 30
0
 11
8.234004300000009
 21
-10.67400380000017
 31
0
  0
LINE
  8
0
 62
7
 10
10.13400430000001
 20
-10.67400380000009
 30
0
 11
8.234004300000009
 21
-10.67400380000017
 31
0
  0
LINE
  8
0
 62
7
 10
10.13400429999999
 20
-10.87400380000007
 30
0
 11
10.13400430000001
 21
-10.67400380000009
 31
0
  0
LINE
  8
0
 62
7
 10
17.63400430000035
 20
-17.52390279999997
 30
0
 11
17.63400430000037
 21
-18.17400379999999
 31
0
  0
LINE
  8
0
 62
7
 10
11.20002970378775
 20
-18.274003799999
 30
0
 11
10.63400430000035
 21
-18.27400379999997
 31
0
  0
LINE
  8
0
 62
7
 10
11.50002970378479
 20
-18.27400379999997
 30
0
 11
11.20002970378775
 21
-18.274003799999
 31
0
  0
LINE
  8
0
 62
7
 10
12.93400430000005
 20
-18.27400379999997
 30
0
 11
11.50002970378479
 21
-18.27400379999997
 31
0
  0
LINE
  8
0
 62
7
 10
13.63400430000006
 20
-18.27400379999997
 30
0
 11
12.93400430000005
 21
-18.27400379999997
 31
0
  0
LINE
  8
0
 62
7
 10
17.63400430000035
 20
-14.67400379999999
 30
0
 11
17.68400430000035
 21
-14.67400379999997
 31
0
  0
LINE
  8
0
 62
7
 10
10.63400429999999
 20
-10.87400380000007
 30
0
 11
10.13400429999999
 21
-10.87400380000007
 31
0
  0
ARC
  8
0
 62
7
 10
17.53400430000036
 20
-18.17400379999999
 30
0
 40
0.0999999999999801
 50
270
 51
0
  0
ARC
  8
0
 62
7
 10
17.13400430000035
 20
-9.5740038
 30
0
 40
0.5
 50
0
 51
90
  0
ARC
  8
0
 62
7
 10
16.63400430000006
 20
-9.374003800000001
 30
0
 40
0.3999999999999998
 50
48.59037789072934
 51
131.4096221092711
  0
ARC
  8
0
 62
7
 10
17.68400430000035
 20
-14.87400379999998
 30
0
 40
0.1999999999999993
 50
0
 51
90
  0
ENDBLK
  8
0
  0
BLOCK
  8
0
  2
DRFSICHT1
 70
0
 10
7.234004299999986
 20
-18.27400379999997
 30
0
  0
INSERT
  8
0
  2
MC_1_5-3-G-3_81__5
 10
7.234004299999986
 20
-18.27400379999997
 30
0
  0
ENDBLK
  8
0
  0
BLOCK
  8
0
  2
MC_1_5-3-G-3_81__6
 70
0
 10
7.234004299999986
 20
-6.410000000000002
 30
0
  0
LINE
  8
0
 62
7
 10
7.234004299999986
 20
3.942050807568877
 30
0
 11
7.234004299999986
 21
3.677949192431122
 31
0
  0
LINE
  8
0
 62
7
 10
17.63400430000035
 20
2.105961894323341
 30
0
 11
17.63400430000035
 21
6.409999999999999
 31
0
  0
LINE
  8
0
 62
7
 10
10.63400430000035
 20
6.409999999999999
 30
0
 11
10.63400429999999
 21
4.409999999999999
 31
0
  0
LINE
  8
0
 62
7
 10
17.63400430000035
 20
6.409999999999999
 30
0
 11
17.53400430000036
 21
6.41
 31
0
  0
LINE
  8
0
 62
7
 10
17.13400430000035
 20
6.409999999999999
 30
0
 11
13.8349661943234
 21
6.409999999999999
 31
0
  0
LINE
  8
0
 62
7
 10
13.43304240567671
 20
6.409999999999999
 30
0
 11
10.63400430000035
 21
6.409999999999999
 31
0
  0
LINE
  8
0
 62
7
 10
17.53400430000036
 20
6.41
 30
0
 11
17.13400430000035
 21
6.409999999999999
 31
0
  0
LINE
  8
0
 62
7
 10
13.8349661943234
 20
6.409999999999999
 30
0
 11
13.63400430000006
 21
6.409999999999999
 31
0
  0
LINE
  8
0
 62
7
 10
13.63400430000006
 20
6.409999999999999
 30
0
 11
13.43304240567671
 21
6.409999999999999
 31
0
  0
LINE
  8
0
 62
7
 10
15.63400430000005
 20
5.514999999999999
 30
0
 11
15.63400430000005
 21
4.209999999999999
 31
0
  0
LINE
  8
0
 62
7
 10
16.30400430000318
 20
5.065000000000098
 30
0
 11
16.30400430000318
 21
4.41
 31
0
  0
LINE
  8
0
 62
7
 10
11.20002970378749
 20
5.514999999999999
 30
0
 11
11.20002970378752
 21
4.664175182421513
 31
0
  0
LINE
  8
0
 62
7
 10
11.33400430000304
 20
5.514999999999999
 30
0
 11
11.20002970378749
 21
5.514999999999999
 31
0
  0
LINE
  8
0
 62
7
 10
15.63400430000005
 20
5.514999999999999
 30
0
 11
11.33400430000304
 21
5.514999999999999
 31
0
  0
LINE
  8
0
 62
7
 10
15.76797889621565
 20
5.514999999999999
 30
0
 11
15.63400430000005
 21
5.514999999999999
 31
0
  0
LINE
  8
0
 62
7
 10
11.33400430000304
 20
4.709999999996415
 30
0
 11
11.33400430000304
 21
5.514999999999999
 31
0
  0
LINE
  8
0
 62
7
 10
16.98400430000303
 20
4.409999999999999
 30
0
 11
16.98400430000303
 21
5.300000000000113
 31
0
  0
LINE
  8
0
 62
7
 10
17.53400430000036
 20
-6.410000000000001
 30
0
 11
17.63400430000037
 21
-6.410000000000002
 31
0
  0
LINE
  8
0
 62
7
 10
16.30400430000318
 20
1.255000000000098
 30
0
 11
16.98400430000303
 21
1.490000000000113
 31
0
  0
LINE
  8
0
 62
7
 10
16.30400430000319
 20
-1.255000000000077
 30
0
 11
16.98400430000303
 21
-1.490000000000059
 31
0
  0
LINE
  8
0
 62
7
 10
16.30400430000319
 20
2.554999999999923
 30
0
 11
16.98400430000303
 21
2.319999999999941
 31
0
  0
LINE
  8
0
 62
7
 10
11.13400429999994
 20
-6.410000000000002
 30
0
 11
10.63400430000035
 21
-6.410000000000001
 31
0
  0
LINE
  8
0
 62
7
 10
17.53400430000036
 20
-6.410000000000001
 30
0
 11
17.13400430000035
 21
-6.410000000000002
 31
0
  0
LINE
  8
0
 62
7
 10
11.45901282618832
 20
-6.410000000000002
 30
0
 11
11.34480011257786
 21
-6.410000000000002
 31
0
  0
LINE
  8
0
 62
7
 10
14.13400429999994
 20
-6.410000000000002
 30
0
 11
13.92320848742202
 21
-6.410000000000002
 31
0
  0
LINE
  8
0
 62
7
 10
11.34480011257786
 20
-6.410000000000002
 30
0
 11
11.13400429999994
 21
-6.410000000000002
 31
0
  0
LINE
  8
0
 62
7
 10
17.13400430000035
 20
-6.410000000000002
 30
0
 11
14.13400429999994
 21
-6.410000000000002
 31
0
  0
LINE
  8
0
 62
7
 10
13.41094996341304
 20
-6.410000000000002
 30
0
 11
13.26871453847732
 21
-6.410000000000002
 31
0
  0
LINE
  8
0
 62
7
 10
12.62945006948133
 20
-6.410000000000002
 30
0
 11
12.44690986107098
 21
-6.410000000000002
 31
0
  0
LINE
  8
0
 62
7
 10
13.65089891438578
 20
-6.410000000000002
 30
0
 11
13.41094996341304
 21
-6.410000000000002
 31
0
  0
LINE
  8
0
 62
7
 10
12.44690986107098
 20
-6.410000000000002
 30
0
 11
12.30467443613528
 21
-6.410000000000002
 31
0
  0
LINE
  8
0
 62
7
 10
12.30467443613528
 20
-6.410000000000002
 30
0
 11
12.06472548516242
 21
-6.410000000000002
 31
0
  0
LINE
  8
0
 62
7
 10
12.06472548516242
 20
-6.410000000000002
 30
0
 11
11.90662862572898
 21
-6.410000000000002
 31
0
  0
LINE
  8
0
 62
7
 10
13.92320848742202
 20
-6.410000000000002
 30
0
 11
13.80899577381932
 21
-6.410000000000002
 31
0
  0
LINE
  8
0
 62
7
 10
13.80899577381932
 20
-6.410000000000002
 30
0
 11
13.65089891438578
 21
-6.410000000000002
 31
0
  0
LINE
  8
0
 62
7
 10
11.90662862572898
 20
-6.410000000000002
 30
0
 11
11.61710968562182
 21
-6.410000000000002
 31
0
  0
LINE
  8
0
 62
7
 10
11.61710968562182
 20
-6.410000000000002
 30
0
 11
11.45901282618832
 21
-6.410000000000002
 31
0
  0
LINE
  8
0
 62
7
 10
12.85781219977412
 20
-6.410000000000002
 30
0
 11
12.62945006948133
 21
-6.410000000000002
 31
0
  0
LINE
  8
0
 62
7
 10
13.08617433006691
 20
-6.410000000000002
 30
0
 11
12.85781219977412
 21
-6.410000000000002
 31
0
  0
LINE
  8
0
 62
7
 10
13.26871453847732
 20
-6.410000000000002
 30
0
 11
13.08617433006691
 21
-6.410000000000002
 31
0
  0
LINE
  8
0
 62
7
 10
17.63400430000037
 20
1.704999999999999
 30
0
 11
17.53400430000036
 21
1.704999999999998
 31
0
  0
LINE
  8
0
 62
7
 10
17.63400430000035
 20
1.704038105676657
 30
0
 11
17.63400430000037
 21
1.704999999999999
 31
0
  0
LINE
  8
0
 62
7
 10
17.63400430000035
 20
-2.105961894323343
 30
0
 11
17.63400430000037
 21
-2.105000000000001
 31
0
  0
LINE
  8
0
 62
7
 10
17.63400430000037
 20
-6.410000000000002
 30
0
 11
17.63400430000035
 21
-2.105961894323343
 31
0
  0
LINE
  8
0
 62
7
 10
17.63400430000037
 20
-1.705000000000001
 30
0
 11
17.63400430000035
 21
-1.704038105676659
 31
0
  0
LINE
  8
0
 62
7
 10
17.53400430000036
 20
-1.705000000000001
 30
0
 11
17.63400430000037
 21
-1.705000000000001
 31
0
  0
LINE
  8
0
 62
7
 10
17.63400430000035
 20
-1.905000000000001
 30
0
 11
17.63400430000037
 21
-2.105000000000001
 31
0
  0
LINE
  8
0
 62
7
 10
17.63400430000037
 20
-1.705000000000001
 30
0
 11
17.63400430000035
 21
-1.905000000000001
 31
0
  0
LINE
  8
0
 62
7
 10
17.63400430000035
 20
-1.704038105676659
 30
0
 11
17.63400430000035
 21
1.704038105676657
 31
0
  0
LINE
  8
0
 62
7
 10
10.63400429999999
 20
-4.410000000000002
 30
0
 11
10.63400430000035
 21
-6.410000000000001
 31
0
  0
LINE
  8
0
 62
7
 10
15.63400430000005
 20
2.104999999999999
 30
0
 11
11.33400430000304
 21
2.104999999999999
 31
0
  0
LINE
  8
0
 62
7
 10
15.76797889621565
 20
2.104999999999999
 30
0
 11
15.63400430000005
 21
2.104999999999999
 31
0
  0
LINE
  8
0
 62
7
 10
15.63400430000005
 20
-5.515000000000002
 30
0
 11
15.76797889621565
 21
-5.515000000000001
 31
0
  0
LINE
  8
0
 62
7
 10
11.20002970378749
 20
-5.515000000000002
 30
0
 11
11.33400430000304
 21
-5.515000000000002
 31
0
  0
LINE
  8
0
 62
7
 10
11.33400430000304
 20
-5.515000000000002
 30
0
 11
15.63400430000005
 21
-5.515000000000002
 31
0
  0
LINE
  8
0
 62
7
 10
15.76797889621565
 20
-4.21
 30
0
 11
15.76797889621565
 21
-5.515000000000001
 31
0
  0
LINE
  8
0
 62
7
 10
16.30400430000318
 20
-2.554999999999902
 30
0
 11
16.98400430000303
 21
-2.319999999999888
 31
0
  0
LINE
  8
0
 62
7
 10
17.53400430000036
 20
2.104999999999999
 30
0
 11
17.63400430000037
 21
2.104999999999999
 31
0
  0
LINE
  8
0
 62
7
 10
17.63400430000035
 20
1.904999999999999
 30
0
 11
17.63400430000037
 21
1.704999999999999
 31
0
  0
LINE
  8
0
 62
7
 10
17.63400430000037
 20
2.104999999999999
 30
0
 11
17.63400430000035
 21
1.904999999999999
 31
0
  0
LINE
  8
0
 62
7
 10
16.30400430000318
 20
-8.881784197001252e-16
 30
0
 11
16.30400430000318
 21
0.5999999999999996
 31
0
  0
LINE
  8
0
 62
7
 10
16.98400430000303
 20
-8.881784197001252e-16
 30
0
 11
16.98400430000303
 21
0.5999999999999992
 31
0
  0
LINE
  8
0
 62
7
 10
16.30400430000318
 20
-8.881784197001252e-16
 30
0
 11
16.30400430000318
 21
-0.6000000000000001
 31
0
  0
LINE
  8
0
 62
7
 10
16.98400430000303
 20
-0.600000000000001
 30
0
 11
16.98400430000303
 21
-8.881784197001252e-16
 31
0
  0
LINE
  8
0
 62
7
 10
16.98400430000303
 20
-1.490000000000059
 30
0
 11
16.98400430000303
 21
-0.600000000000001
 31
0
  0
LINE
  8
0
 62
7
 10
15.63400430000005
 20
0.399999999999999
 30
0
 11
15.76797889621565
 21
0.399999999999999
 31
0
  0
LINE
  8
0
 62
7
 10
15.76797889621565
 20
-0.4000000000000011
 30
0
 11
15.63400430000005
 21
-0.4000000000000007
 31
0
  0
LINE
  8
0
 62
7
 10
13.50195349243118
 20
-0.132050807568878
 30
0
 11
13.23400430000006
 21
-0.4000000000000004
 31
0
  0
LINE
  8
0
 62
7
 10
14.03400430000006
 20
-0.4000000000000008
 30
0
 11
13.23400430000006
 21
-0.4000000000000004
 31
0
  0
LINE
  8
0
 62
7
 10
15.63400430000005
 20
-0.4000000000000007
 30
0
 11
15.63400430000005
 21
-1.705000000000001
 31
0
  0
LINE
  8
0
 62
7
 10
15.76797889621565
 20
-1.705000000000001
 30
0
 11
15.63400430000005
 21
-1.705000000000001
 31
0
  0
LINE
  8
0
 62
7
 10
15.63400430000005
 20
-1.705000000000001
 30
0
 11
11.33400430000304
 21
-1.705000000000001
 31
0
  0
LINE
  8
0
 62
7
 10
17.53400430000036
 20
-2.105000000000001
 30
0
 11
17.63400430000037
 21
-2.105000000000001
 31
0
  0
LINE
  8
0
 62
7
 10
16.30400430000319
 20
-5.065000000000077
 30
0
 11
16.30400430000318
 21
-4.410000000000005
 31
0
  0
LINE
  8
0
 62
7
 10
16.30400430000319
 20
-5.065000000000077
 30
0
 11
16.98400430000303
 21
-5.300000000000061
 31
0
  0
LINE
  8
0
 62
7
 10
16.98400430000303
 20
-5.300000000000061
 30
0
 11
16.98400430000303
 21
-4.410000000000002
 31
0
  0
LINE
  8
0
 62
7
 10
11.33400430000304
 20
-5.515000000000002
 30
0
 11
11.33400430000304
 21
-4.709999999996416
 31
0
  0
LINE
  8
0
 62
7
 10
15.63400430000005
 20
-4.210000000000001
 30
0
 11
15.63400430000005
 21
-5.515000000000002
 31
0
  0
LINE
  8
0
 62
7
 10
11.33400430000304
 20
-1.705000000000001
 30
0
 11
11.3340043000026
 21
-0.8999999999977795
 31
0
  0
LINE
  8
0
 62
7
 10
14.03400430000006
 20
-0.4000000000000008
 30
0
 11
13.76605510756893
 21
-0.132050807568878
 31
0
  0
LINE
  8
0
 62
7
 10
13.23400430000006
 20
0.399999999999999
 30
0
 11
13.23400430000006
 21
-0.4000000000000004
 31
0
  0
LINE
  8
0
 62
7
 10
14.03400430000006
 20
0.399999999999999
 30
0
 11
13.23400430000006
 21
0.399999999999999
 31
0
  0
LINE
  8
0
 62
7
 10
14.03400430000006
 20
-0.4000000000000008
 30
0
 11
14.03400430000006
 21
0.399999999999999
 31
0
  0
LINE
  8
0
 62
7
 10
13.50195349243118
 20
0.1320508075688758
 30
0
 11
13.23400430000006
 21
0.399999999999999
 31
0
  0
LINE
  8
0
 62
7
 10
14.03400430000006
 20
0.399999999999999
 30
0
 11
13.76605510756893
 21
0.1320508075688762
 31
0
  0
LINE
  8
0
 62
7
 10
11.33400429999955
 20
0.8999999999968611
 30
0
 11
11.33400430000304
 21
1.704999999999999
 31
0
  0
LINE
  8
0
 62
7
 10
11.20002970378749
 20
-5.515000000000002
 30
0
 11
11.20002970378749
 21
-4.664175182421652
 31
0
  0
LINE
  8
0
 62
7
 10
11.20002970378749
 20
1.704999999999999
 30
0
 11
11.33400430000304
 21
1.704999999999999
 31
0
  0
LINE
  8
0
 62
7
 10
11.33400430000304
 20
1.704999999999999
 30
0
 11
15.63400430000005
 21
1.704999999999999
 31
0
  0
LINE
  8
0
 62
7
 10
15.63400430000005
 20
1.704999999999999
 30
0
 11
15.63400430000005
 21
0.399999999999999
 31
0
  0
LINE
  8
0
 62
7
 10
16.30400430000318
 20
-4.410000000000005
 30
0
 11
16.30400430000318
 21
-3.810000000000001
 31
0
  0
LINE
  8
0
 62
7
 10
16.98400430000303
 20
-4.410000000000002
 30
0
 11
16.98400430000303
 21
-3.810000000000001
 31
0
  0
LINE
  8
0
 62
7
 10
16.98400430000303
 20
0.5999999999999992
 30
0
 11
16.98400430000303
 21
1.490000000000113
 31
0
  0
LINE
  8
0
 62
7
 10
16.98400430000303
 20
-3.21
 30
0
 11
16.98400430000303
 21
-3.810000000000001
 31
0
  0
LINE
  8
0
 62
7
 10
16.98400430000303
 20
-2.319999999999888
 30
0
 11
16.98400430000303
 21
-3.21
 31
0
  0
LINE
  8
0
 62
7
 10
16.98400430000303
 20
3.209999999999999
 30
0
 11
16.98400430000303
 21
3.809999999999999
 31
0
  0
LINE
  8
0
 62
7
 10
16.98400430000303
 20
3.809999999999999
 30
0
 11
16.98400430000303
 21
4.409999999999999
 31
0
  0
LINE
  8
0
 62
7
 10
16.98400430000303
 20
2.319999999999941
 30
0
 11
16.98400430000303
 21
3.209999999999999
 31
0
  0
LINE
  8
0
 62
7
 10
11.20002970378754
 20
0.8541751824214899
 30
0
 11
11.20002970378749
 21
1.704999999999999
 31
0
  0
LINE
  8
0
 62
7
 10
11.20002970378749
 20
-0.8541751824215612
 30
0
 11
11.20002970378749
 21
-1.705000000000001
 31
0
  0
LINE
  8
0
 62
7
 10
11.20002970378754
 20
2.955824817578475
 30
0
 11
11.20002970378749
 21
2.104999999999999
 31
0
  0
LINE
  8
0
 62
7
 10
10.63400429999999
 20
4.409999999999999
 30
0
 11
10.63400429999999
 21
3.209999999999999
 31
0
  0
LINE
  8
0
 62
7
 10
10.13400430000001
 20
3.409999999999999
 30
0
 11
10.13400429999999
 21
3.209999999999999
 31
0
  0
LINE
  8
0
 62
7
 10
10.13400429999999
 20
3.809999999999999
 30
0
 11
10.13400430000001
 21
3.409999999999999
 31
0
  0
LINE
  8
0
 62
7
 10
10.63400429999999
 20
-0.600000000000001
 30
0
 11
10.63400429999999
 21
-3.210000000000001
 31
0
  0
LINE
  8
0
 62
7
 10
10.63400429999999
 20
0.5999999999999992
 30
0
 11
10.63400429999999
 21
-0.600000000000001
 31
0
  0
LINE
  8
0
 62
7
 10
10.63400429999999
 20
3.209999999999999
 30
0
 11
10.13400429999999
 21
3.209999999999999
 31
0
  0
LINE
  8
0
 62
7
 10
10.13400430000001
 20
-0.4000000000000008
 30
0
 11
10.13400429999999
 21
-0.600000000000001
 31
0
  0
LINE
  8
0
 62
7
 10
10.13400429999999
 20
-8.881784197001252e-16
 30
0
 11
10.13400430000001
 21
-0.4000000000000008
 31
0
  0
LINE
  8
0
 62
7
 10
10.13400430000001
 20
-4.210000000000001
 30
0
 11
10.13400429999999
 21
-4.410000000000002
 31
0
  0
LINE
  8
0
 62
7
 10
10.13400429999999
 20
-3.810000000000001
 30
0
 11
10.13400430000001
 21
-4.210000000000001
 31
0
  0
LINE
  8
0
 62
7
 10
10.63400429999999
 20
-3.210000000000001
 30
0
 11
10.63400429999999
 21
-4.410000000000002
 31
0
  0
LINE
  8
0
 62
7
 10
10.63400429999999
 20
-4.410000000000002
 30
0
 11
10.13400429999999
 21
-4.410000000000002
 31
0
  0
LINE
  8
0
 62
7
 10
10.63400429999999
 20
-3.210000000000001
 30
0
 11
10.13400429999999
 21
-3.210000000000001
 31
0
  0
LINE
  8
0
 62
7
 10
10.13400430000001
 20
-3.410000000000001
 30
0
 11
10.13400429999999
 21
-3.810000000000001
 31
0
  0
LINE
  8
0
 62
7
 10
10.13400429999999
 20
-3.210000000000001
 30
0
 11
10.13400430000001
 21
-3.410000000000001
 31
0
  0
LINE
  8
0
 62
7
 10
10.63400429999999
 20
-0.600000000000001
 30
0
 11
10.13400429999999
 21
-0.600000000000001
 31
0
  0
LINE
  8
0
 62
7
 10
10.13400430000001
 20
0.399999999999999
 30
0
 11
10.13400429999999
 21
-8.881784197001252e-16
 31
0
  0
LINE
  8
0
 62
7
 10
10.13400429999999
 20
0.5999999999999992
 30
0
 11
10.13400430000001
 21
0.399999999999999
 31
0
  0
LINE
  8
0
 62
7
 10
10.63400429999999
 20
0.5999999999999992
 30
0
 11
10.13400429999999
 21
0.5999999999999992
 31
0
  0
LINE
  8
0
 62
7
 10
10.63400429999999
 20
3.209999999999999
 30
0
 11
10.63400429999999
 21
0.5999999999999992
 31
0
  0
LINE
  8
0
 62
7
 10
11.20002970378775
 20
-2.955824817578349
 30
0
 11
11.20002970378749
 21
-2.105000000000001
 31
0
  0
LINE
  8
0
 62
7
 10
10.13400430000001
 20
3.409999999999999
 30
0
 11
8.234004299999974
 21
3.409999999999999
 31
0
  0
LINE
  8
0
 62
7
 10
10.13400430000001
 20
4.209999999999999
 30
0
 11
10.13400429999999
 21
3.809999999999999
 31
0
  0
LINE
  8
0
 62
7
 10
8.234004299999974
 20
3.409999999999999
 30
0
 11
8.234004299999974
 21
4.209999999999998
 31
0
  0
LINE
  8
0
 62
7
 10
8.234004299999974
 20
3.409999999999999
 30
0
 11
7.234004299999986
 21
3.677949192431122
 31
0
  0
LINE
  8
0
 62
7
 10
10.63400429999999
 20
4.409999999999999
 30
0
 11
10.13400429999999
 21
4.409999999999999
 31
0
  0
LINE
  8
0
 62
7
 10
8.234004299999974
 20
4.209999999999998
 30
0
 11
7.234004299999986
 21
3.942050807568877
 31
0
  0
LINE
  8
0
 62
7
 10
10.13400429999999
 20
4.409999999999999
 30
0
 11
10.13400430000001
 21
4.209999999999999
 31
0
  0
LINE
  8
0
 62
7
 10
10.13400430000001
 20
4.209999999999999
 30
0
 11
8.234004299999974
 21
4.209999999999998
 31
0
  0
LINE
  8
0
 62
7
 10
8.234004300000009
 20
-0.4000000000000008
 30
0
 11
7.234004299999986
 21
-0.1320508075688784
 31
0
  0
LINE
  8
0
 62
7
 10
7.234004299999986
 20
0.1320508075688767
 30
0
 11
7.234004299999986
 21
-0.1320508075688784
 31
0
  0
LINE
  8
0
 62
7
 10
10.13400430000001
 20
0.399999999999999
 30
0
 11
8.234004300000009
 21
0.399999999999999
 31
0
  0
LINE
  8
0
 62
7
 10
10.13400430000001
 20
-0.4000000000000008
 30
0
 11
8.234004300000009
 21
-0.4000000000000008
 31
0
  0
LINE
  8
0
 62
7
 10
8.234004300000009
 20
0.399999999999999
 30
0
 11
8.234004300000009
 21
-0.4000000000000008
 31
0
  0
LINE
  8
0
 62
7
 10
8.234004300000009
 20
0.399999999999999
 30
0
 11
7.234004299999986
 21
0.1320508075688767
 31
0
  0
LINE
  8
0
 62
7
 10
8.234004299999974
 20
-4.210000000000001
 30
0
 11
7.234004299999986
 21
-3.942050807568879
 31
0
  0
LINE
  8
0
 62
7
 10
8.234004299999974
 20
-4.210000000000001
 30
0
 11
8.234004299999974
 21
-3.410000000000001
 31
0
  0
LINE
  8
0
 62
7
 10
10.13400430000001
 20
-3.410000000000001
 30
0
 11
8.234004299999974
 21
-3.410000000000001
 31
0
  0
LINE
  8
0
 62
7
 10
7.234004299999986
 20
-3.677949192431123
 30
0
 11
7.234004299999986
 21
-3.942050807568879
 31
0
  0
LINE
  8
0
 62
7
 10
8.234004299999974
 20
-3.410000000000001
 30
0
 11
7.234004299999986
 21
-3.677949192431123
 31
0
  0
LINE
  8
0
 62
7
 10
10.13400430000001
 20
-4.210000000000001
 30
0
 11
8.234004299999974
 21
-4.210000000000001
 31
0
  0
LINE
  8
0
 62
7
 10
11.20002970378749
 20
-2.105000000000001
 30
0
 11
11.33400430000304
 21
-2.105000000000001
 31
0
  0
LINE
  8
0
 62
7
 10
11.33400429999955
 20
-2.91000000000314
 30
0
 11
11.33400430000304
 21
-2.105000000000001
 31
0
  0
LINE
  8
0
 62
7
 10
11.33400430000304
 20
2.104999999999999
 30
0
 11
11.33400430000304
 21
2.910000000003584
 31
0
  0
LINE
  8
0
 62
7
 10
16.30400430000318
 20
4.41
 30
0
 11
16.30400430000318
 21
3.809999999999999
 31
0
  0
LINE
  8
0
 62
7
 10
16.30400430000318
 20
-3.810000000000001
 30
0
 11
16.30400430000318
 21
-3.21
 31
0
  0
LINE
  8
0
 62
7
 10
15.63400430000005
 20
-4.210000000000001
 30
0
 11
15.76797889621565
 21
-4.21
 31
0
  0
LINE
  8
0
 62
7
 10
13.23400430000006
 20
-3.410000000000001
 30
0
 11
13.23400430000006
 21
-4.210000000000001
 31
0
  0
LINE
  8
0
 62
7
 10
14.03400430000006
 20
-4.210000000000001
 30
0
 11
14.03400430000006
 21
-3.410000000000001
 31
0
  0
LINE
  8
0
 62
7
 10
13.23400430000006
 20
-4.210000000000001
 30
0
 11
14.03400430000006
 21
-4.210000000000001
 31
0
  0
LINE
  8
0
 62
7
 10
14.03400430000006
 20
-4.210000000000001
 30
0
 11
13.76605510756893
 21
-3.942050807568878
 31
0
  0
LINE
  8
0
 62
7
 10
13.50195349243118
 20
-3.942050807568879
 30
0
 11
13.23400430000006
 21
-4.210000000000001
 31
0
  0
LINE
  8
0
 62
7
 10
16.10400430000318
 20
-4.210000000000002
 30
0
 11
15.76797889621565
 21
-4.21
 31
0
  0
LINE
  8
0
 62
7
 10
15.76797889621565
 20
-2.105000000000001
 30
0
 11
15.76797889621565
 21
-3.410000000000001
 31
0
  0
LINE
  8
0
 62
7
 10
15.63400430000005
 20
-3.410000000000001
 30
0
 11
15.76797889621565
 21
-3.410000000000001
 31
0
  0
LINE
  8
0
 62
7
 10
15.63400430000005
 20
-2.105000000000001
 30
0
 11
15.63400430000005
 21
-3.410000000000001
 31
0
  0
LINE
  8
0
 62
7
 10
12.93400430000005
 20
-1.717435565298215
 30
0
 11
13.63400430000006
 21
-1.905000000000001
 31
0
  0
LINE
  8
0
 62
7
 10
13.63400430000006
 20
-1.905000000000001
 30
0
 11
12.93400430000005
 21
-2.092564434701787
 31
0
  0
LINE
  8
0
 62
7
 10
14.03400430000006
 20
-3.410000000000001
 30
0
 11
13.23400430000006
 21
-3.410000000000001
 31
0
  0
LINE
  8
0
 62
7
 10
12.93400430000005
 20
-2.092564434701787
 30
0
 11
12.93400430000005
 21
-1.717435565298215
 31
0
  0
LINE
  8
0
 62
7
 10
13.76605510756893
 20
-3.942050807568878
 30
0
 11
13.76605510756893
 21
-3.677949192431125
 31
0
  0
LINE
  8
0
 62
7
 10
15.76797889621565
 20
-3.410000000000001
 30
0
 11
16.10400430000318
 21
-3.410000000000001
 31
0
  0
LINE
  8
0
 62
7
 10
14.03400430000006
 20
-3.410000000000001
 30
0
 11
13.76605510756893
 21
-3.677949192431125
 31
0
  0
LINE
  8
0
 62
7
 10
13.50195349243118
 20
-3.677949192431124
 30
0
 11
13.50195349243118
 21
-3.942050807568879
 31
0
  0
LINE
  8
0
 62
7
 10
13.50195349243118
 20
-3.677949192431124
 30
0
 11
13.23400430000006
 21
-3.410000000000001
 31
0
  0
LINE
  8
0
 62
7
 10
13.50195349243118
 20
-3.942050807568879
 30
0
 11
13.76605510756893
 21
-3.942050807568878
 31
0
  0
LINE
  8
0
 62
7
 10
13.76605510756893
 20
-3.677949192431125
 30
0
 11
13.50195349243118
 21
-3.677949192431124
 31
0
  0
LINE
  8
0
 62
7
 10
16.30400430000318
 20
-3.21
 30
0
 11
16.30400430000318
 21
-2.554999999999902
 31
0
  0
LINE
  8
0
 62
7
 10
15.63400430000005
 20
-2.105000000000001
 30
0
 11
15.76797889621565
 21
-2.105000000000001
 31
0
  0
LINE
  8
0
 62
7
 10
11.33400430000304
 20
-2.105000000000001
 30
0
 11
15.63400430000005
 21
-2.105000000000001
 31
0
  0
LINE
  8
0
 62
7
 10
16.30400430000318
 20
3.21
 30
0
 11
16.30400430000319
 21
2.554999999999923
 31
0
  0
LINE
  8
0
 62
7
 10
16.10400430000318
 20
4.209999999999999
 30
0
 11
15.76797889621565
 21
4.209999999999999
 31
0
  0
LINE
  8
0
 62
7
 10
15.63400430000005
 20
4.209999999999999
 30
0
 11
15.76797889621565
 21
4.209999999999999
 31
0
  0
LINE
  8
0
 62
7
 10
15.76797889621565
 20
3.409999999999999
 30
0
 11
15.63400430000005
 21
3.409999999999999
 31
0
  0
LINE
  8
0
 62
7
 10
15.76797889621565
 20
3.409999999999999
 30
0
 11
16.10400430000318
 21
3.409999999999999
 31
0
  0
LINE
  8
0
 62
7
 10
16.30400430000318
 20
0.5999999999999996
 30
0
 11
16.30400430000318
 21
1.255000000000098
 31
0
  0
LINE
  8
0
 62
7
 10
15.63400430000005
 20
1.704999999999999
 30
0
 11
15.76797889621565
 21
1.704999999999999
 31
0
  0
LINE
  8
0
 62
7
 10
11.33400430000304
 20
-1.705000000000001
 30
0
 11
11.20002970378749
 21
-1.705000000000001
 31
0
  0
LINE
  8
0
 62
7
 10
11.33400430000304
 20
2.104999999999999
 30
0
 11
11.20002970378749
 21
2.104999999999999
 31
0
  0
LINE
  8
0
 62
7
 10
12.93400430000005
 20
2.092564434701785
 30
0
 11
13.63400430000006
 21
1.904999999999999
 31
0
  0
LINE
  8
0
 62
7
 10
13.63400430000006
 20
1.904999999999999
 30
0
 11
12.93400430000005
 21
1.717435565298213
 31
0
  0
LINE
  8
0
 62
7
 10
12.93400430000005
 20
1.717435565298213
 30
0
 11
12.93400430000005
 21
2.092564434701785
 31
0
  0
LINE
  8
0
 62
7
 10
13.50195349243118
 20
0.1320508075688758
 30
0
 11
13.50195349243118
 21
-0.132050807568878
 31
0
  0
LINE
  8
0
 62
7
 10
13.50195349243118
 20
-0.132050807568878
 30
0
 11
13.76605510756893
 21
-0.132050807568878
 31
0
  0
LINE
  8
0
 62
7
 10
13.76605510756893
 20
-0.132050807568878
 30
0
 11
13.76605510756893
 21
0.1320508075688762
 31
0
  0
LINE
  8
0
 62
7
 10
15.63400430000005
 20
3.409999999999999
 30
0
 11
15.63400430000005
 21
2.104999999999999
 31
0
  0
LINE
  8
0
 62
7
 10
15.76797889621565
 20
-1.705000000000001
 30
0
 11
15.76797889621565
 21
-0.4000000000000011
 31
0
  0
LINE
  8
0
 62
7
 10
15.76797889621565
 20
2.104999999999999
 30
0
 11
15.76797889621565
 21
3.409999999999999
 31
0
  0
LINE
  8
0
 62
7
 10
13.76605510756893
 20
0.1320508075688762
 30
0
 11
13.50195349243118
 21
0.1320508075688758
 31
0
  0
LINE
  8
0
 62
7
 10
14.03400430000006
 20
3.41
 30
0
 11
13.23400430000006
 21
3.41
 31
0
  0
LINE
  8
0
 62
7
 10
13.23400430000006
 20
4.209999999999999
 30
0
 11
14.03400430000006
 21
4.209999999999999
 31
0
  0
LINE
  8
0
 62
7
 10
13.50195349243118
 20
3.942050807568876
 30
0
 11
13.50195349243118
 21
3.677949192431122
 31
0
  0
LINE
  8
0
 62
7
 10
13.76605510756893
 20
3.942050807568876
 30
0
 11
13.50195349243118
 21
3.942050807568876
 31
0
  0
LINE
  8
0
 62
7
 10
14.03400430000006
 20
3.41
 30
0
 11
13.76605510756893
 21
3.677949192431122
 31
0
  0
LINE
  8
0
 62
7
 10
13.76605510756893
 20
3.677949192431122
 30
0
 11
13.76605510756893
 21
3.942050807568876
 31
0
  0
LINE
  8
0
 62
7
 10
16.30400430000318
 20
-0.6000000000000001
 30
0
 11
16.30400430000319
 21
-1.255000000000077
 31
0
  0
LINE
  8
0
 62
7
 10
15.76797889621565
 20
0.399999999999999
 30
0
 11
16.10400430000318
 21
0.399999999999999
 31
0
  0
LINE
  8
0
 62
7
 10
15.76797889621565
 20
1.704999999999999
 30
0
 11
15.76797889621565
 21
0.399999999999999
 31
0
  0
LINE
  8
0
 62
7
 10
15.76797889621565
 20
-0.4000000000000011
 30
0
 11
16.10400430000318
 21
-0.400000000000001
 31
0
  0
LINE
  8
0
 62
7
 10
16.30400430000318
 20
3.809999999999999
 30
0
 11
16.30400430000318
 21
3.21
 31
0
  0
LINE
  8
0
 62
7
 10
13.50195349243118
 20
3.677949192431122
 30
0
 11
13.76605510756893
 21
3.677949192431122
 31
0
  0
LINE
  8
0
 62
7
 10
13.23400430000006
 20
3.41
 30
0
 11
13.23400430000006
 21
4.209999999999999
 31
0
  0
LINE
  8
0
 62
7
 10
14.03400430000006
 20
4.209999999999999
 30
0
 11
14.03400430000006
 21
3.41
 31
0
  0
LINE
  8
0
 62
7
 10
13.50195349243118
 20
3.677949192431122
 30
0
 11
13.23400430000006
 21
3.41
 31
0
  0
LINE
  8
0
 62
7
 10
14.03400430000006
 20
4.209999999999999
 30
0
 11
13.76605510756893
 21
3.942050807568876
 31
0
  0
LINE
  8
0
 62
7
 10
13.50195349243118
 20
3.942050807568876
 30
0
 11
13.23400430000006
 21
4.209999999999999
 31
0
  0
LINE
  8
0
 62
7
 10
13.00950450016021
 20
4.31
 30
0
 11
14.25850409983991
 21
4.309999999999999
 31
0
  0
LINE
  8
0
 62
7
 10
17.63400430000037
 20
2.104999999999999
 30
0
 11
17.63400430000035
 21
2.105961894323341
 31
0
  0
LINE
  8
0
 62
7
 10
16.98400430000303
 20
5.300000000000113
 30
0
 11
16.30400430000318
 21
5.065000000000098
 31
0
  0
LINE
  8
0
 62
7
 10
15.76797889621565
 20
4.209999999999999
 30
0
 11
15.76797889621565
 21
5.514999999999999
 31
0
  0
LINE
  8
0
 62
7
 10
17.88400430000035
 20
6.409999999999999
 30
0
 11
17.68400430000035
 21
6.409999999999999
 31
0
  0
LINE
  8
0
 62
7
 10
17.88400430000035
 20
-6.410000000000002
 30
0
 11
17.88400430000035
 21
6.409999999999999
 31
0
  0
LINE
  8
0
 62
7
 10
17.88400430000035
 20
-6.410000000000002
 30
0
 11
17.68400430000035
 21
-6.410000000000001
 31
0
  0
LINE
  8
0
 62
7
 10
17.63400430000037
 20
-6.410000000000002
 30
0
 11
17.68400430000035
 21
-6.410000000000001
 31
0
  0
LINE
  8
0
 62
7
 10
17.63400430000035
 20
6.409999999999999
 30
0
 11
17.68400430000035
 21
6.409999999999999
 31
0
  0
ARC
  8
0
 62
7
 10
10.13400429999999
 20
3.809999999999999
 30
0
 40
1.500000000000289
 50
323.1301023543354
 51
36.86989764566462
  0
ARC
  8
0
 62
7
 10
10.13400429999999
 20
3.809999999999999
 30
0
 40
1.366025403784736
 50
321.2958169670326
 51
38.70418303296758
  0
ARC
  8
0
 62
7
 10
16.10400430000318
 20
4.409999999999999
 30
0
 40
0.2000000000000002
 50
270
 51
0
  0
ARC
  8
0
 62
7
 10
10.13400429999999
 20
-3.810000000000001
 30
0
 40
1.366025403784777
 50
321.2958169670271
 51
38.70418303296606
  0
ARC
  8
0
 62
7
 10
10.13400429999999
 20
-8.881784197001252e-16
 30
0
 40
1.500000000000756
 50
323.1301023542837
 51
36.86989764575821
  0
ARC
  8
0
 62
7
 10
10.13400429999999
 20
-3.810000000000001
 30
0
 40
1.500000000000289
 50
323.1301023543354
 51
36.86989764575817
  0
ARC
  8
0
 62
7
 10
13.63400430000006
 20
-3.810000000000001
 30
0
 40
0.8000000000000007
 50
0
 51
180
  0
ARC
  8
0
 62
7
 10
13.63400430000006
 20
-3.810000000000001
 30
0
 40
0.8000000000000096
 50
180
 51
0
  0
ARC
  8
0
 62
7
 10
13.63400430000006
 20
-8.881784197001252e-16
 30
0
 40
0.8000000000000007
 50
0
 51
180
  0
ARC
  8
0
 62
7
 10
13.63400430000006
 20
-8.881784197001252e-16
 30
0
 40
0.8000000000000096
 50
180
 51
0
  0
ARC
  8
0
 62
7
 10
10.13400429999999
 20
-8.881784197001252e-16
 30
0
 40
1.366025403784719
 50
321.2958169670301
 51
38.70418303296632
  0
ARC
  8
0
 62
7
 10
16.10400430000318
 20
-4.410000000000002
 30
0
 40
0.1999999999999993
 50
0
 51
90
  0
ARC
  8
0
 62
7
 10
16.10400430000318
 20
-3.21
 30
0
 40
0.2000000000000011
 50
270
 51
0
  0
ARC
  8
0
 62
7
 10
13.63400430000006
 20
3.809999999999999
 30
0
 40
0.8000000000000078
 50
141.317812546511
 51
38.6821874534889
  0
ARC
  8
0
 62
7
 10
16.10400430000318
 20
3.209999999999999
 30
0
 40
0.1999999999999993
 50
0
 51
90
  0
ARC
  8
0
 62
7
 10
16.10400430000318
 20
0.5999999999999992
 30
0
 40
0.2000000000000002
 50
270
 51
0
  0
ARC
  8
0
 62
7
 10
16.10400430000318
 20
-0.600000000000001
 30
0
 40
0.1999999999999993
 50
0
 51
90
  0
POLYLINE
  8
0
 62
7
 66
1
  0
VERTEX
  8
0
 10
11.20002970378752
 20
4.664175182421513
 30
0
 42
-0.002083458410910541
  0
VERTEX
  8
0
 10
11.26701013801825
 20
4.687384466926222
 30
0
  0
VERTEX
  8
0
 10
11.3003570598905
 20
4.698713483597029
 30
0
  0
VERTEX
  8
0
 10
11.33400430000304
 20
4.709999999996415
 30
0
  0
SEQEND
  8
0
  0
POLYLINE
  8
0
 62
7
 66
1
  0
VERTEX
  8
0
 10
11.3340043000026
 20
-0.8999999999977795
 30
0
 42
-0.001920585624444077
  0
VERTEX
  8
0
 10
11.26701013801825
 20
-0.8773844669262227
 30
0
  0
VERTEX
  8
0
 10
11.23322138253518
 20
-0.8657541507341532
 30
0
  0
VERTEX
  8
0
 10
11.20002970378749
 20
-0.8541751824215612
 30
0
  0
SEQEND
  8
0
  0
POLYLINE
  8
0
 62
7
 66
1
  0
VERTEX
  8
0
 10
11.33400430000304
 20
-4.709999999996416
 30
0
 42
-0.001911534531281963
  0
VERTEX
  8
0
 10
11.2670101347882
 20
-4.687384465821822
 30
0
  0
VERTEX
  8
0
 10
11.23333146597723
 20
-4.675792295864689
 30
0
  0
VERTEX
  8
0
 10
11.20002970378749
 20
-4.664175182421652
 30
0
  0
SEQEND
  8
0
  0
POLYLINE
  8
0
 62
7
 66
1
  0
VERTEX
  8
0
 10
11.20002970378754
 20
0.8541751824214899
 30
0
 42
-0.00209029629710008
  0
VERTEX
  8
0
 10
11.2670101347882
 20
0.8773844658218195
 30
0
  0
VERTEX
  8
0
 10
11.30019800767474
 20
0.8886597912577056
 30
0
  0
VERTEX
  8
0
 10
11.33400429999955
 20
0.8999999999968611
 30
0
  0
SEQEND
  8
0
  0
POLYLINE
  8
0
 62
7
 66
1
  0
VERTEX
  8
0
 10
11.20002970378775
 20
-2.955824817578349
 30
0
 42
-0.002090307343044121
  0
VERTEX
  8
0
 10
11.2670101347882
 20
-2.93261553417818
 30
0
  0
VERTEX
  8
0
 10
11.30019806146132
 20
-2.921340190584644
 30
0
  0
VERTEX
  8
0
 10
11.33400429999955
 20
-2.91000000000314
 30
0
  0
SEQEND
  8
0
  0
POLYLINE
  8
0
 62
7
 66
1
  0
VERTEX
  8
0
 10
11.33400430000304
 20
2.910000000003584
 30
0
 42
-0.001911624939101549
  0
VERTEX
  8
0
 10
11.26701013801825
 20
2.932615533073777
 30
0
  0
VERTEX
  8
0
 10
11.23333250484811
 20
2.94420734416308
 30
0
  0
VERTEX
  8
0
 10
11.20002970378754
 20
2.955824817578475
 30
0
  0
SEQEND
  8
0
  0
ENDBLK
  8
0
  0
BLOCK
  8
0
  2
VORDANS1
 70
0
 10
7.234004299999986
 20
-6.410000000000002
 30
0
  0
INSERT
  8
0
  2
MC_1_5-3-G-3_81__6
 10
7.234004299999986
 20
-6.410000000000002
 30
0
  0
ENDBLK
  8
0
  0
ENDSEC
  0
SECTION
  2
ENTITIES
  0
INSERT
  8
0
  2
SA_LINKS1
 10
20.44800810000034
 20
-6.410000000000002
 30
0
  0
INSERT
  8
0
  2
SA_RECHTS1
 10
-4.62999950000009
 20
-6.410000000000002
 30
0
  0
INSERT
  8
0
  2
UNTSICHT1
 10
7.234004299999986
 20
8.974003799999998
 30
0
  0
INSERT
  8
0
  2
R_CKANS1
 10
32.35201290000032
 20
-6.410000000000002
 30
0
  0
INSERT
  8
0
  2
DRFSICHT1
 10
7.234004299999986
 20
-18.27400379999997
 30
0
  0
INSERT
  8
0
  2
VORDANS1
 10
7.234004299999986
 20
-6.410000000000002
 30
0
  0
ENDSEC
  0
EOF
