%FSLAX24Y24*%
%MOIN*%
G70*
G01*
G75*
G04 Layer_Color=8421504*
%ADD10R,0.0300X0.0300*%
%ADD11R,0.0200X0.0300*%
%ADD12R,0.0360X0.0360*%
%ADD13R,0.0500X0.0360*%
%ADD14R,0.0250X0.0950*%
%ADD15R,0.0250X0.0550*%
%ADD16R,0.0950X0.0250*%
%ADD17R,0.0550X0.0250*%
%ADD18R,0.0236X0.1000*%
%ADD19R,0.0236X0.0900*%
%ADD20R,0.0700X0.0236*%
%ADD21R,0.0900X0.0236*%
%ADD22R,0.0315X0.0591*%
%ADD23R,0.0591X0.0315*%
%ADD24O,0.0600X0.0160*%
%ADD25R,0.0200X0.0500*%
%ADD26O,0.0240X0.0800*%
%ADD27O,0.0160X0.0600*%
%ADD28O,0.0160X0.0600*%
%ADD29R,0.0394X0.0197*%
%ADD30R,0.0394X0.0394*%
%ADD31R,0.0300X0.0300*%
%ADD32R,0.0472X0.0472*%
%ADD33R,0.0472X0.0472*%
%ADD34R,0.0236X0.0236*%
%ADD35R,0.0360X0.0500*%
%ADD36R,0.0360X0.0360*%
%ADD37R,0.0600X0.0500*%
%ADD38C,0.0120*%
%ADD39R,0.1500X0.0500*%
%ADD40R,0.0550X0.0400*%
%ADD41R,0.0400X0.0550*%
%ADD42C,0.0140*%
%ADD43C,0.0120*%
%ADD44C,0.0300*%
%ADD45C,0.0100*%
%ADD46C,0.0200*%
%ADD47C,0.0080*%
%ADD48C,0.0090*%
%ADD49C,0.0150*%
%ADD50C,0.0050*%
%ADD51C,0.1100*%
%ADD52C,0.0620*%
%ADD53R,0.0620X0.0620*%
%ADD54C,0.0600*%
%ADD55C,0.0750*%
%ADD56C,0.1400*%
%ADD57C,0.0450*%
%ADD58C,0.0220*%
%ADD59C,0.0098*%
%ADD60C,0.0060*%
D10*
X5693Y8482D02*
D03*
X6293D02*
D03*
X8277Y10963D02*
D03*
X8877D02*
D03*
X13869Y17587D02*
D03*
X13269D02*
D03*
X9420Y14142D02*
D03*
X8820D02*
D03*
X10079Y14737D02*
D03*
X10679D02*
D03*
X12229Y13547D02*
D03*
X11629D02*
D03*
X12510Y12422D02*
D03*
X13110D02*
D03*
X11629Y14077D02*
D03*
X12229D02*
D03*
X12829D02*
D03*
X13429D02*
D03*
X12229Y14577D02*
D03*
X11629D02*
D03*
X4830Y1262D02*
D03*
X5430D02*
D03*
X6293Y9082D02*
D03*
X5693D02*
D03*
X4080Y1859D02*
D03*
X4680D02*
D03*
X5243Y6322D02*
D03*
X4643D02*
D03*
X4473Y5202D02*
D03*
X3873D02*
D03*
X20450Y5800D02*
D03*
X21050D02*
D03*
X22213Y3962D02*
D03*
X21613D02*
D03*
X20706Y4562D02*
D03*
X20106D02*
D03*
X21613Y3362D02*
D03*
X22213D02*
D03*
X10490Y8612D02*
D03*
X9890D02*
D03*
X16894Y1505D02*
D03*
X17494D02*
D03*
X13700Y2900D02*
D03*
X14300D02*
D03*
X13429Y13037D02*
D03*
X12829D02*
D03*
X3463Y9132D02*
D03*
X4063D02*
D03*
X3873Y4602D02*
D03*
X4473D02*
D03*
X21016Y3962D02*
D03*
X20416D02*
D03*
X14450Y6242D02*
D03*
X15050D02*
D03*
X8500Y452D02*
D03*
X7900D02*
D03*
Y1052D02*
D03*
X8500D02*
D03*
X7900Y2252D02*
D03*
X8500D02*
D03*
X7900Y1652D02*
D03*
X8500D02*
D03*
X20450Y6400D02*
D03*
X21050D02*
D03*
X12229Y13037D02*
D03*
X11629D02*
D03*
X12829Y13557D02*
D03*
X13429D02*
D03*
X12829Y14577D02*
D03*
X13429D02*
D03*
X14029Y13037D02*
D03*
X14629D02*
D03*
X14279Y16207D02*
D03*
X14879D02*
D03*
X4680Y2462D02*
D03*
X4080D02*
D03*
X4063Y9732D02*
D03*
X3463D02*
D03*
Y8532D02*
D03*
X4063D02*
D03*
X3463Y10332D02*
D03*
X4063D02*
D03*
X21050Y5200D02*
D03*
X20450D02*
D03*
X20632Y3349D02*
D03*
X20032D02*
D03*
X19720Y6112D02*
D03*
X19120D02*
D03*
X18714Y2015D02*
D03*
X18114D02*
D03*
X17494D02*
D03*
X16894D02*
D03*
X10679Y14137D02*
D03*
X10079D02*
D03*
X17280Y6252D02*
D03*
X16680D02*
D03*
X5400Y15800D02*
D03*
X4800D02*
D03*
X5400Y16500D02*
D03*
X4800D02*
D03*
X5400Y17200D02*
D03*
X4800D02*
D03*
D11*
X14680Y9702D02*
D03*
X15260D02*
D03*
D12*
X13070Y10212D02*
D03*
Y9462D02*
D03*
X5643Y9623D02*
D03*
Y10373D02*
D03*
X9420Y12692D02*
D03*
Y13442D02*
D03*
X10129Y13437D02*
D03*
Y12687D02*
D03*
X5593Y7022D02*
D03*
Y7772D02*
D03*
D13*
X12270Y9842D02*
D03*
X4843Y10003D02*
D03*
X8620Y13072D02*
D03*
X10929Y13057D02*
D03*
X4793Y7402D02*
D03*
D14*
X12329Y15550D02*
D03*
X13900Y11007D02*
D03*
D15*
X12829Y15350D02*
D03*
X13329D02*
D03*
X12829Y16750D02*
D03*
X13329D02*
D03*
X12329D02*
D03*
X14400Y10807D02*
D03*
X14900D02*
D03*
X14400Y12207D02*
D03*
X14900D02*
D03*
X13900D02*
D03*
D16*
X3040Y1673D02*
D03*
D17*
X3240Y2173D02*
D03*
Y2673D02*
D03*
X1840Y2173D02*
D03*
Y2673D02*
D03*
Y1673D02*
D03*
D18*
X20313Y741D02*
D03*
X20813D02*
D03*
X20803Y2372D02*
D03*
X20313Y2362D02*
D03*
X19813D02*
D03*
D19*
Y791D02*
D03*
D20*
X21034Y1525D02*
D03*
D21*
X19614Y1525D02*
D03*
D22*
X20740Y8845D02*
D03*
X21843D02*
D03*
X21292D02*
D03*
X20740Y9829D02*
D03*
X21843D02*
D03*
X21292D02*
D03*
D23*
X18241Y10985D02*
D03*
Y12087D02*
D03*
Y11536D02*
D03*
X17257Y10985D02*
D03*
Y12087D02*
D03*
Y11536D02*
D03*
D24*
X11050Y11200D02*
D03*
X12918Y11712D02*
D03*
X11050Y11456D02*
D03*
Y11712D02*
D03*
X12918Y10944D02*
D03*
Y11456D02*
D03*
Y11200D02*
D03*
X11050Y10944D02*
D03*
D25*
X11160Y872D02*
D03*
Y1872D02*
D03*
X10410Y872D02*
D03*
X10790Y1872D02*
D03*
X10410D02*
D03*
X16200Y13542D02*
D03*
X15830D02*
D03*
Y12542D02*
D03*
X16580Y13542D02*
D03*
X16200Y12542D02*
D03*
X16580D02*
D03*
X10640Y6952D02*
D03*
Y7952D02*
D03*
X9890Y6952D02*
D03*
X10270Y7952D02*
D03*
X9890D02*
D03*
X8690Y7412D02*
D03*
Y8412D02*
D03*
X7940Y7412D02*
D03*
X8320Y8412D02*
D03*
X7940D02*
D03*
D26*
X4010Y11253D02*
D03*
X4510D02*
D03*
X5010D02*
D03*
X4010Y13453D02*
D03*
X5010D02*
D03*
X5510D02*
D03*
X4510D02*
D03*
X5510Y11253D02*
D03*
D27*
X2912Y11523D02*
D03*
X2400Y13391D02*
D03*
X2656Y11523D02*
D03*
X2400D02*
D03*
X3168Y13391D02*
D03*
X2656D02*
D03*
X2912D02*
D03*
X3168Y11523D02*
D03*
D28*
X19807Y7232D02*
D03*
X18016Y9830D02*
D03*
X18784D02*
D03*
X18528D02*
D03*
X18272D02*
D03*
X19040D02*
D03*
X17760Y7232D02*
D03*
X18016D02*
D03*
X18272D02*
D03*
X18528D02*
D03*
X18784D02*
D03*
X19040D02*
D03*
X19295D02*
D03*
X19551D02*
D03*
X20063D02*
D03*
Y9830D02*
D03*
X19807D02*
D03*
X19551D02*
D03*
X19295D02*
D03*
X17760Y9830D02*
D03*
D29*
X15153Y6916D02*
D03*
Y7428D02*
D03*
X14287D02*
D03*
D30*
Y6975D02*
D03*
D31*
X6350Y11900D02*
D03*
Y11300D02*
D03*
X10080Y11382D02*
D03*
Y11982D02*
D03*
X9640Y772D02*
D03*
Y1372D02*
D03*
X10400Y3350D02*
D03*
Y2750D02*
D03*
X6293Y10303D02*
D03*
Y9703D02*
D03*
X13820Y9702D02*
D03*
Y9102D02*
D03*
X9480Y11382D02*
D03*
Y11982D02*
D03*
X11200Y2750D02*
D03*
Y3350D02*
D03*
X14879Y17407D02*
D03*
Y16807D02*
D03*
X1013Y3682D02*
D03*
Y3082D02*
D03*
X4993Y8472D02*
D03*
Y9072D02*
D03*
X6293Y7882D02*
D03*
Y7282D02*
D03*
X3470Y4083D02*
D03*
Y3483D02*
D03*
X4043Y5802D02*
D03*
Y6402D02*
D03*
X2833Y5032D02*
D03*
Y5632D02*
D03*
X2143D02*
D03*
Y5032D02*
D03*
X13000Y1750D02*
D03*
Y2350D02*
D03*
X11900Y3850D02*
D03*
Y3250D02*
D03*
X9300Y8062D02*
D03*
Y8662D02*
D03*
X13720Y5042D02*
D03*
Y5642D02*
D03*
X11280Y8112D02*
D03*
Y8712D02*
D03*
X14840Y5042D02*
D03*
Y5642D02*
D03*
X10280Y10022D02*
D03*
Y9422D02*
D03*
X20921Y11182D02*
D03*
Y10582D02*
D03*
X15520Y8582D02*
D03*
Y7982D02*
D03*
X15540Y11840D02*
D03*
Y11240D02*
D03*
X15639Y16450D02*
D03*
Y15850D02*
D03*
X2920Y9723D02*
D03*
Y9123D02*
D03*
X2360Y9723D02*
D03*
Y9123D02*
D03*
X5423Y1982D02*
D03*
Y2582D02*
D03*
X5843Y6322D02*
D03*
Y5722D02*
D03*
X16670Y7382D02*
D03*
Y6782D02*
D03*
X16060Y11240D02*
D03*
Y11840D02*
D03*
X15633Y14652D02*
D03*
Y15252D02*
D03*
X14280Y5042D02*
D03*
Y5642D02*
D03*
X14960Y9032D02*
D03*
Y8432D02*
D03*
X11570Y9712D02*
D03*
Y10312D02*
D03*
X2360Y10733D02*
D03*
Y10133D02*
D03*
X14279Y16807D02*
D03*
Y17407D02*
D03*
X15200Y13632D02*
D03*
Y13032D02*
D03*
X16610Y11240D02*
D03*
Y11840D02*
D03*
X14420Y9102D02*
D03*
Y9702D02*
D03*
X6033Y1382D02*
D03*
Y1982D02*
D03*
Y2552D02*
D03*
Y3152D02*
D03*
X5423Y3782D02*
D03*
Y3182D02*
D03*
X5843Y4522D02*
D03*
Y5122D02*
D03*
X5243D02*
D03*
Y4522D02*
D03*
X2163Y8532D02*
D03*
Y7932D02*
D03*
X22233Y1242D02*
D03*
Y1842D02*
D03*
X20321Y11182D02*
D03*
Y10582D02*
D03*
X15400Y5042D02*
D03*
Y5642D02*
D03*
X15780Y3832D02*
D03*
Y4432D02*
D03*
X19721Y11182D02*
D03*
Y10582D02*
D03*
X15520Y9712D02*
D03*
Y9112D02*
D03*
X18350Y6472D02*
D03*
Y5872D02*
D03*
X10780Y10022D02*
D03*
Y9422D02*
D03*
X19121Y11182D02*
D03*
Y10582D02*
D03*
X17150Y9872D02*
D03*
Y9272D02*
D03*
X17840Y6472D02*
D03*
Y5872D02*
D03*
X15650Y7382D02*
D03*
Y6782D02*
D03*
X17200Y7382D02*
D03*
Y6782D02*
D03*
X16160D02*
D03*
Y7382D02*
D03*
X6350Y13100D02*
D03*
Y12500D02*
D03*
X22700Y8600D02*
D03*
Y9200D02*
D03*
X21400Y7300D02*
D03*
Y7900D02*
D03*
X22700Y7300D02*
D03*
Y7900D02*
D03*
X22050D02*
D03*
Y7300D02*
D03*
Y5950D02*
D03*
Y6550D02*
D03*
X20750Y7300D02*
D03*
Y7900D02*
D03*
X6350Y14900D02*
D03*
Y15500D02*
D03*
Y14300D02*
D03*
Y13700D02*
D03*
X5350Y15050D02*
D03*
Y14450D02*
D03*
X4750Y15050D02*
D03*
Y14450D02*
D03*
X14560Y14760D02*
D03*
Y15360D02*
D03*
D32*
X16094Y2280D02*
D03*
X15306D02*
D03*
X15700Y1059D02*
D03*
D33*
X9630Y9358D02*
D03*
Y10146D02*
D03*
X8409Y9752D02*
D03*
D34*
X14631Y13794D02*
D03*
X14119Y13991D02*
D03*
Y13597D02*
D03*
X18978Y5155D02*
D03*
X19490Y4958D02*
D03*
Y5352D02*
D03*
D35*
X4453Y3902D02*
D03*
X2963Y6192D02*
D03*
X2453Y3692D02*
D03*
X14100Y2100D02*
D03*
X13070Y3500D02*
D03*
D36*
X4073Y3102D02*
D03*
X4823D02*
D03*
X3343Y6992D02*
D03*
X2593D02*
D03*
X2833Y4492D02*
D03*
X2083D02*
D03*
X13720Y1300D02*
D03*
X14470D02*
D03*
X13450Y4300D02*
D03*
X12700D02*
D03*
D37*
X3863Y7782D02*
D03*
X2963D02*
D03*
X17870Y3100D02*
D03*
X16970D02*
D03*
D38*
X18682Y2717D02*
D03*
X18932Y5131D02*
D03*
D39*
X17190Y3967D02*
D03*
Y4967D02*
D03*
D40*
X11089Y15657D02*
D03*
Y16957D02*
D03*
X12100Y2300D02*
D03*
Y1000D02*
D03*
X16320Y9082D02*
D03*
Y10382D02*
D03*
D41*
X18380Y922D02*
D03*
X17080D02*
D03*
X12140Y8312D02*
D03*
X13440D02*
D03*
D45*
X1833Y-2750D02*
Y-3750D01*
X1500Y-2750D02*
X2167D01*
X2524Y-3083D02*
X2428Y-3131D01*
X2333Y-3226D01*
X2286Y-3369D01*
Y-3464D01*
X2333Y-3607D01*
X2428Y-3702D01*
X2524Y-3750D01*
X2666D01*
X2762Y-3702D01*
X2857Y-3607D01*
X2904Y-3464D01*
Y-3369D01*
X2857Y-3226D01*
X2762Y-3131D01*
X2666Y-3083D01*
X2524D01*
X3123D02*
Y-4083D01*
Y-3226D02*
X3219Y-3131D01*
X3314Y-3083D01*
X3457D01*
X3552Y-3131D01*
X3647Y-3226D01*
X3695Y-3369D01*
Y-3464D01*
X3647Y-3607D01*
X3552Y-3702D01*
X3457Y-3750D01*
X3314D01*
X3219Y-3702D01*
X3123Y-3607D01*
X3909Y-3274D02*
X4337D01*
X4480Y-3226D01*
X4528Y-3179D01*
X4576Y-3083D01*
Y-2941D01*
X4528Y-2845D01*
X4480Y-2798D01*
X4337Y-2750D01*
X3909D01*
Y-3750D01*
X5371Y-3083D02*
Y-3750D01*
Y-3226D02*
X5275Y-3131D01*
X5180Y-3083D01*
X5037D01*
X4942Y-3131D01*
X4847Y-3226D01*
X4799Y-3369D01*
Y-3464D01*
X4847Y-3607D01*
X4942Y-3702D01*
X5037Y-3750D01*
X5180D01*
X5275Y-3702D01*
X5371Y-3607D01*
X6161Y-3226D02*
X6113Y-3131D01*
X5970Y-3083D01*
X5828D01*
X5685Y-3131D01*
X5637Y-3226D01*
X5685Y-3322D01*
X5780Y-3369D01*
X6018Y-3417D01*
X6113Y-3464D01*
X6161Y-3560D01*
Y-3607D01*
X6113Y-3702D01*
X5970Y-3750D01*
X5828D01*
X5685Y-3702D01*
X5637Y-3607D01*
X6513Y-2750D02*
Y-3560D01*
X6561Y-3702D01*
X6656Y-3750D01*
X6751D01*
X6370Y-3083D02*
X6704D01*
X6894Y-3369D02*
X7465D01*
Y-3274D01*
X7418Y-3179D01*
X7370Y-3131D01*
X7275Y-3083D01*
X7132D01*
X7037Y-3131D01*
X6942Y-3226D01*
X6894Y-3369D01*
Y-3464D01*
X6942Y-3607D01*
X7037Y-3702D01*
X7132Y-3750D01*
X7275D01*
X7370Y-3702D01*
X7465Y-3607D01*
X21633Y13042D02*
G03*
X21633Y13042I-650J0D01*
G01*
X-497Y-600D02*
Y19100D01*
X-497Y-600D02*
X23203D01*
Y19100D01*
X-497D02*
X23203D01*
X8268Y-15769D02*
G03*
X7768Y-15269I-500J0D01*
G01*
X7779Y-17269D02*
G03*
X8268Y-16772I8J480D01*
G01*
X9268Y-15269D02*
G03*
X8768Y-15769I0J-500D01*
G01*
Y-16769D02*
G03*
X9259Y-17269I500J0D01*
G01*
X26518Y-15769D02*
G03*
X26018Y-15269I-500J0D01*
G01*
X26029Y-17269D02*
G03*
X26518Y-16772I8J480D01*
G01*
X27018Y-16779D02*
G03*
X27516Y-17269I490J0D01*
G01*
X27518Y-15269D02*
G03*
X27018Y-15769I0J-500D01*
G01*
X-982Y-8259D02*
G03*
X-1472Y-7769I-490J0D01*
G01*
X-1462Y-11019D02*
G03*
X-982Y-10539I0J480D01*
G01*
Y-12009D02*
G03*
X-1489Y-11519I-490J0D01*
G01*
X-482Y-11529D02*
G03*
X8Y-12019I490J0D01*
G01*
X-482Y-14279D02*
G03*
X8Y-14769I490J0D01*
G01*
X-1472D02*
G03*
X-982Y-14279I0J490D01*
G01*
X16518Y-13009D02*
G03*
X16028Y-12519I-490J0D01*
G01*
Y-14769D02*
G03*
X16518Y-14270I0J490D01*
G01*
X17018Y-14259D02*
G03*
X17519Y-14769I510J0D01*
G01*
X17498Y-12519D02*
G03*
X17018Y-13024I0J-480D01*
G01*
X18Y-12519D02*
G03*
X-482Y-13019I0J-500D01*
G01*
X18Y-7769D02*
G03*
X-482Y-8269I0J-500D01*
G01*
X-9482Y-14269D02*
G03*
X-8991Y-14769I500J0D01*
G01*
X-8982Y-11519D02*
G03*
X-9482Y-12019I0J-500D01*
G01*
Y-10519D02*
G03*
X-8982Y-11019I500J0D01*
G01*
Y-7769D02*
G03*
X-9482Y-8269I0J-500D01*
G01*
Y-6769D02*
G03*
X-8982Y-7269I500J0D01*
G01*
Y-5269D02*
G03*
X-9482Y-5769I0J-500D01*
G01*
X21018D02*
G03*
X20518Y-5269I-500J0D01*
G01*
X22018D02*
G03*
X21518Y-5769I0J-500D01*
G01*
X20518Y-7269D02*
G03*
X21018Y-6769I0J500D01*
G01*
Y-8269D02*
G03*
X20518Y-7769I-500J0D01*
G01*
X-8982Y-15269D02*
G03*
X-9482Y-15769I0J-500D01*
G01*
X20527Y-12019D02*
G03*
X21018Y-11519I-9J500D01*
G01*
X-9482Y-16769D02*
G03*
X-8991Y-17269I500J0D01*
G01*
X21018Y-13009D02*
G03*
X20528Y-12519I-490J0D01*
G01*
X21518Y-14279D02*
G03*
X22016Y-14769I490J0D01*
G01*
X20518Y-14769D02*
G03*
X21018Y-14269I0J500D01*
G01*
X33018Y-17269D02*
G03*
X33518Y-16769I0J500D01*
G01*
X33518Y-15760D02*
G03*
X33018Y-15269I-500J-9D01*
G01*
Y-14769D02*
G03*
X33518Y-14269I0J500D01*
G01*
Y-5759D02*
G03*
X33011Y-5269I-490J0D01*
G01*
X34018Y-5769D02*
G03*
X33018Y-4769I-1000J0D01*
G01*
Y-17769D02*
G03*
X34018Y-16769I0J1000D01*
G01*
X-9982Y-16759D02*
G03*
X-8990Y-17769I1010J0D01*
G01*
X-8982Y-4769D02*
G03*
X-9982Y-5769I0J-1000D01*
G01*
X21518Y-11519D02*
G03*
X22018Y-12019I500J0D01*
G01*
X33018D02*
G03*
X33518Y-11519I0J500D01*
G01*
X22018Y-12519D02*
G03*
X21518Y-13019I0J-500D01*
G01*
X33518Y-13009D02*
G03*
X33028Y-12519I-490J0D01*
G01*
X9268Y-17269D02*
X26018D01*
X-8982D02*
X7768D01*
X-8982Y-15269D02*
X7768D01*
X9268D02*
X26018D01*
X27518Y-17269D02*
X33018D01*
X27518Y-15269D02*
X33018D01*
X-8982Y-5269D02*
X20518D01*
X-8982Y-17769D02*
X33018D01*
X-8982Y-4769D02*
X33018D01*
X-8982Y-14769D02*
X-1482D01*
X-8982Y-11519D02*
X-1482D01*
X-8982Y-11019D02*
X-1482D01*
X-8982Y-7769D02*
X-1482D01*
X-8982Y-7269D02*
X20518D01*
X18Y-7769D02*
X20518D01*
X18Y-12519D02*
X16018D01*
X18Y-14769D02*
X16018D01*
X17518D02*
X20518D01*
X17518Y-12519D02*
X20518D01*
X22018Y-14769D02*
X33018D01*
X22018Y-5269D02*
X33018D01*
X18Y-12019D02*
X20518D01*
X22018D02*
X33018D01*
X22018Y-12519D02*
X33018D01*
X8268Y-16769D02*
Y-15769D01*
X8768Y-16769D02*
Y-15769D01*
X26518Y-16769D02*
Y-15769D01*
X27018Y-16769D02*
Y-15769D01*
X34018Y-16769D02*
Y-5769D01*
X-9482Y-14269D02*
Y-12019D01*
X-982Y-14269D02*
Y-12019D01*
X-9482Y-10519D02*
Y-8269D01*
X-982Y-10519D02*
Y-8269D01*
X-9482Y-6769D02*
Y-5769D01*
X21018Y-6769D02*
Y-5769D01*
Y-11519D02*
Y-8269D01*
X-482Y-11519D02*
Y-8269D01*
X16518Y-14269D02*
Y-13019D01*
X-482Y-14269D02*
Y-13019D01*
X17018Y-14269D02*
Y-13019D01*
X21018Y-14269D02*
Y-13019D01*
X33518Y-16769D02*
Y-15769D01*
X-9482Y-16769D02*
Y-15769D01*
X-9982Y-16769D02*
Y-5769D01*
X21518Y-11519D02*
Y-5769D01*
X33518Y-11519D02*
Y-5769D01*
X21518Y-14269D02*
Y-13019D01*
X33518Y-14269D02*
Y-13009D01*
X25305Y-8429D02*
X25244Y-8368D01*
X25153Y-8337D01*
X25031D01*
X24940Y-8368D01*
X24879Y-8429D01*
Y-8490D01*
X24909Y-8551D01*
X24940Y-8581D01*
X25000Y-8612D01*
X25183Y-8672D01*
X25244Y-8703D01*
X25275Y-8733D01*
X25305Y-8794D01*
Y-8886D01*
X25244Y-8947D01*
X25153Y-8977D01*
X25031D01*
X24940Y-8947D01*
X24879Y-8886D01*
X25448Y-8551D02*
Y-8855D01*
X25479Y-8947D01*
X25540Y-8977D01*
X25631D01*
X25692Y-8947D01*
X25784Y-8855D01*
Y-8551D02*
Y-8977D01*
X26012Y-8337D02*
X26043Y-8368D01*
X26073Y-8337D01*
X26043Y-8307D01*
X26012Y-8337D01*
X26043Y-8551D02*
Y-8977D01*
X26277Y-8337D02*
Y-8855D01*
X26308Y-8947D01*
X26369Y-8977D01*
X26429D01*
X26186Y-8551D02*
X26399D01*
X26521Y-8733D02*
X26887D01*
Y-8672D01*
X26856Y-8612D01*
X26826Y-8581D01*
X26765Y-8551D01*
X26673D01*
X26612Y-8581D01*
X26551Y-8642D01*
X26521Y-8733D01*
Y-8794D01*
X26551Y-8886D01*
X26612Y-8947D01*
X26673Y-8977D01*
X26765D01*
X26826Y-8947D01*
X26887Y-8886D01*
X27526Y-8459D02*
X27587Y-8429D01*
X27679Y-8337D01*
Y-8977D01*
X27996Y-8459D02*
X28057Y-8429D01*
X28148Y-8337D01*
Y-8977D01*
X28617Y-8337D02*
X28526Y-8368D01*
X28495Y-8429D01*
Y-8490D01*
X28526Y-8551D01*
X28587Y-8581D01*
X28709Y-8612D01*
X28800Y-8642D01*
X28861Y-8703D01*
X28891Y-8764D01*
Y-8855D01*
X28861Y-8916D01*
X28830Y-8947D01*
X28739Y-8977D01*
X28617D01*
X28526Y-8947D01*
X28495Y-8916D01*
X28465Y-8855D01*
Y-8764D01*
X28495Y-8703D01*
X28556Y-8642D01*
X28648Y-8612D01*
X28770Y-8581D01*
X28830Y-8551D01*
X28861Y-8490D01*
Y-8429D01*
X28830Y-8368D01*
X28739Y-8337D01*
X28617D01*
X24444Y-10487D02*
X24140D01*
X24109Y-10762D01*
X24140Y-10731D01*
X24231Y-10701D01*
X24322D01*
X24414Y-10731D01*
X24475Y-10792D01*
X24505Y-10883D01*
Y-10944D01*
X24475Y-11036D01*
X24414Y-11097D01*
X24322Y-11127D01*
X24231D01*
X24140Y-11097D01*
X24109Y-11066D01*
X24079Y-11005D01*
X25014Y-10579D02*
X24984Y-10518D01*
X24892Y-10487D01*
X24831D01*
X24740Y-10518D01*
X24679Y-10609D01*
X24648Y-10762D01*
Y-10914D01*
X24679Y-11036D01*
X24740Y-11097D01*
X24831Y-11127D01*
X24862D01*
X24953Y-11097D01*
X25014Y-11036D01*
X25044Y-10944D01*
Y-10914D01*
X25014Y-10822D01*
X24953Y-10762D01*
X24862Y-10731D01*
X24831D01*
X24740Y-10762D01*
X24679Y-10822D01*
X24648Y-10914D01*
X25185Y-10609D02*
X25246Y-10579D01*
X25337Y-10487D01*
Y-11127D01*
X25654Y-10853D02*
X26202D01*
X26787Y-10701D02*
X26757Y-10792D01*
X26696Y-10853D01*
X26605Y-10883D01*
X26574D01*
X26483Y-10853D01*
X26422Y-10792D01*
X26391Y-10701D01*
Y-10670D01*
X26422Y-10579D01*
X26483Y-10518D01*
X26574Y-10487D01*
X26605D01*
X26696Y-10518D01*
X26757Y-10579D01*
X26787Y-10701D01*
Y-10853D01*
X26757Y-11005D01*
X26696Y-11097D01*
X26605Y-11127D01*
X26544D01*
X26452Y-11097D01*
X26422Y-11036D01*
X27357Y-10701D02*
X27327Y-10792D01*
X27266Y-10853D01*
X27174Y-10883D01*
X27144D01*
X27052Y-10853D01*
X26991Y-10792D01*
X26961Y-10701D01*
Y-10670D01*
X26991Y-10579D01*
X27052Y-10518D01*
X27144Y-10487D01*
X27174D01*
X27266Y-10518D01*
X27327Y-10579D01*
X27357Y-10701D01*
Y-10853D01*
X27327Y-11005D01*
X27266Y-11097D01*
X27174Y-11127D01*
X27113D01*
X27022Y-11097D01*
X26991Y-11036D01*
X27927Y-10701D02*
X27896Y-10792D01*
X27836Y-10853D01*
X27744Y-10883D01*
X27714D01*
X27622Y-10853D01*
X27561Y-10792D01*
X27531Y-10701D01*
Y-10670D01*
X27561Y-10579D01*
X27622Y-10518D01*
X27714Y-10487D01*
X27744D01*
X27836Y-10518D01*
X27896Y-10579D01*
X27927Y-10701D01*
Y-10853D01*
X27896Y-11005D01*
X27836Y-11097D01*
X27744Y-11127D01*
X27683D01*
X27592Y-11097D01*
X27561Y-11036D01*
X28101Y-10853D02*
X28649D01*
X29234Y-10701D02*
X29204Y-10792D01*
X29143Y-10853D01*
X29051Y-10883D01*
X29021D01*
X28929Y-10853D01*
X28868Y-10792D01*
X28838Y-10701D01*
Y-10670D01*
X28868Y-10579D01*
X28929Y-10518D01*
X29021Y-10487D01*
X29051D01*
X29143Y-10518D01*
X29204Y-10579D01*
X29234Y-10701D01*
Y-10853D01*
X29204Y-11005D01*
X29143Y-11097D01*
X29051Y-11127D01*
X28990D01*
X28899Y-11097D01*
X28868Y-11036D01*
X29712Y-10487D02*
X29408Y-10914D01*
X29865D01*
X29712Y-10487D02*
Y-11127D01*
X30008Y-10640D02*
Y-10609D01*
X30038Y-10548D01*
X30069Y-10518D01*
X30130Y-10487D01*
X30252D01*
X30313Y-10518D01*
X30343Y-10548D01*
X30374Y-10609D01*
Y-10670D01*
X30343Y-10731D01*
X30282Y-10822D01*
X29978Y-11127D01*
X30404D01*
X30578Y-10640D02*
Y-10609D01*
X30608Y-10548D01*
X30639Y-10518D01*
X30700Y-10487D01*
X30822D01*
X30882Y-10518D01*
X30913Y-10548D01*
X30943Y-10609D01*
Y-10670D01*
X30913Y-10731D01*
X30852Y-10822D01*
X30547Y-11127D01*
X30974D01*
X22325Y-7501D02*
X22294Y-7592D01*
X22233Y-7653D01*
X22142Y-7683D01*
X22111D01*
X22020Y-7653D01*
X21959Y-7592D01*
X21929Y-7501D01*
Y-7470D01*
X21959Y-7379D01*
X22020Y-7318D01*
X22111Y-7287D01*
X22142D01*
X22233Y-7318D01*
X22294Y-7379D01*
X22325Y-7501D01*
Y-7653D01*
X22294Y-7805D01*
X22233Y-7897D01*
X22142Y-7927D01*
X22081D01*
X21990Y-7897D01*
X21959Y-7836D01*
X22681Y-7287D02*
X22590Y-7318D01*
X22529Y-7409D01*
X22498Y-7562D01*
Y-7653D01*
X22529Y-7805D01*
X22590Y-7897D01*
X22681Y-7927D01*
X22742D01*
X22834Y-7897D01*
X22894Y-7805D01*
X22925Y-7653D01*
Y-7562D01*
X22894Y-7409D01*
X22834Y-7318D01*
X22742Y-7287D01*
X22681D01*
X23099Y-7440D02*
Y-7409D01*
X23129Y-7348D01*
X23160Y-7318D01*
X23221Y-7287D01*
X23342D01*
X23403Y-7318D01*
X23434Y-7348D01*
X23464Y-7409D01*
Y-7470D01*
X23434Y-7531D01*
X23373Y-7622D01*
X23068Y-7927D01*
X23495D01*
X24598Y-7440D02*
X24567Y-7379D01*
X24506Y-7318D01*
X24445Y-7287D01*
X24323D01*
X24263Y-7318D01*
X24202Y-7379D01*
X24171Y-7440D01*
X24141Y-7531D01*
Y-7683D01*
X24171Y-7775D01*
X24202Y-7836D01*
X24263Y-7897D01*
X24323Y-7927D01*
X24445D01*
X24506Y-7897D01*
X24567Y-7836D01*
X24598Y-7775D01*
X24778Y-7287D02*
Y-7927D01*
X24973Y-7287D02*
X25003Y-7318D01*
X25033Y-7287D01*
X25003Y-7257D01*
X24973Y-7287D01*
X25003Y-7501D02*
Y-7927D01*
X25146Y-7501D02*
Y-7927D01*
Y-7622D02*
X25238Y-7531D01*
X25299Y-7501D01*
X25390D01*
X25451Y-7531D01*
X25481Y-7622D01*
Y-7927D01*
X25740Y-7287D02*
Y-7805D01*
X25771Y-7897D01*
X25832Y-7927D01*
X25893D01*
X25649Y-7501D02*
X25862D01*
X26487Y-7287D02*
Y-7927D01*
Y-7287D02*
X26731Y-7927D01*
X26974Y-7287D02*
X26731Y-7927D01*
X26974Y-7287D02*
Y-7927D01*
X27310Y-7501D02*
X27249Y-7531D01*
X27188Y-7592D01*
X27157Y-7683D01*
Y-7744D01*
X27188Y-7836D01*
X27249Y-7897D01*
X27310Y-7927D01*
X27401D01*
X27462Y-7897D01*
X27523Y-7836D01*
X27553Y-7744D01*
Y-7683D01*
X27523Y-7592D01*
X27462Y-7531D01*
X27401Y-7501D01*
X27310D01*
X27846D02*
X27785Y-7531D01*
X27724Y-7592D01*
X27693Y-7683D01*
Y-7744D01*
X27724Y-7836D01*
X27785Y-7897D01*
X27846Y-7927D01*
X27937D01*
X27998Y-7897D01*
X28059Y-7836D01*
X28090Y-7744D01*
Y-7683D01*
X28059Y-7592D01*
X27998Y-7531D01*
X27937Y-7501D01*
X27846D01*
X28230D02*
Y-7927D01*
Y-7683D02*
X28260Y-7592D01*
X28321Y-7531D01*
X28382Y-7501D01*
X28473D01*
X28531Y-7683D02*
X28897D01*
Y-7622D01*
X28867Y-7562D01*
X28836Y-7531D01*
X28775Y-7501D01*
X28684D01*
X28623Y-7531D01*
X28562Y-7592D01*
X28531Y-7683D01*
Y-7744D01*
X28562Y-7836D01*
X28623Y-7897D01*
X28684Y-7927D01*
X28775D01*
X28836Y-7897D01*
X28897Y-7836D01*
X29537Y-7287D02*
Y-7927D01*
Y-7287D02*
X29811D01*
X29902Y-7318D01*
X29933Y-7348D01*
X29963Y-7409D01*
Y-7470D01*
X29933Y-7531D01*
X29902Y-7562D01*
X29811Y-7592D01*
X29537D01*
X29750D02*
X29963Y-7927D01*
X30472Y-7287D02*
Y-7927D01*
Y-7592D02*
X30411Y-7531D01*
X30350Y-7501D01*
X30259D01*
X30198Y-7531D01*
X30137Y-7592D01*
X30107Y-7683D01*
Y-7744D01*
X30137Y-7836D01*
X30198Y-7897D01*
X30259Y-7927D01*
X30350D01*
X30411Y-7897D01*
X30472Y-7836D01*
X30673Y-7866D02*
X30643Y-7897D01*
X30673Y-7927D01*
X30704Y-7897D01*
X30673Y-7866D01*
X23529Y-9287D02*
Y-9927D01*
Y-9287D02*
X23803D01*
X23894Y-9318D01*
X23925Y-9348D01*
X23955Y-9409D01*
Y-9470D01*
X23925Y-9531D01*
X23894Y-9562D01*
X23803Y-9592D01*
X23529D02*
X23803D01*
X23894Y-9622D01*
X23925Y-9653D01*
X23955Y-9714D01*
Y-9805D01*
X23925Y-9866D01*
X23894Y-9897D01*
X23803Y-9927D01*
X23529D01*
X24251Y-9501D02*
X24190Y-9531D01*
X24129Y-9592D01*
X24098Y-9683D01*
Y-9744D01*
X24129Y-9836D01*
X24190Y-9897D01*
X24251Y-9927D01*
X24342D01*
X24403Y-9897D01*
X24464Y-9836D01*
X24494Y-9744D01*
Y-9683D01*
X24464Y-9592D01*
X24403Y-9531D01*
X24342Y-9501D01*
X24251D01*
X25000Y-9592D02*
X24939Y-9531D01*
X24878Y-9501D01*
X24787D01*
X24726Y-9531D01*
X24665Y-9592D01*
X24635Y-9683D01*
Y-9744D01*
X24665Y-9836D01*
X24726Y-9897D01*
X24787Y-9927D01*
X24878D01*
X24939Y-9897D01*
X25000Y-9836D01*
X25503Y-9501D02*
Y-9927D01*
Y-9592D02*
X25442Y-9531D01*
X25381Y-9501D01*
X25290D01*
X25229Y-9531D01*
X25168Y-9592D01*
X25137Y-9683D01*
Y-9744D01*
X25168Y-9836D01*
X25229Y-9897D01*
X25290Y-9927D01*
X25381D01*
X25442Y-9897D01*
X25503Y-9836D01*
X26176Y-9287D02*
Y-9927D01*
Y-9287D02*
X26451D01*
X26542Y-9318D01*
X26572Y-9348D01*
X26603Y-9409D01*
Y-9470D01*
X26572Y-9531D01*
X26542Y-9562D01*
X26451Y-9592D01*
X26176D01*
X26390D02*
X26603Y-9927D01*
X27112Y-9501D02*
Y-9927D01*
Y-9592D02*
X27051Y-9531D01*
X26990Y-9501D01*
X26899D01*
X26838Y-9531D01*
X26777Y-9592D01*
X26746Y-9683D01*
Y-9744D01*
X26777Y-9836D01*
X26838Y-9897D01*
X26899Y-9927D01*
X26990D01*
X27051Y-9897D01*
X27112Y-9836D01*
X27374Y-9287D02*
Y-9805D01*
X27404Y-9897D01*
X27465Y-9927D01*
X27526D01*
X27282Y-9501D02*
X27496D01*
X27770D02*
X27709Y-9531D01*
X27648Y-9592D01*
X27618Y-9683D01*
Y-9744D01*
X27648Y-9836D01*
X27709Y-9897D01*
X27770Y-9927D01*
X27861D01*
X27922Y-9897D01*
X27983Y-9836D01*
X28014Y-9744D01*
Y-9683D01*
X27983Y-9592D01*
X27922Y-9531D01*
X27861Y-9501D01*
X27770D01*
X28154D02*
Y-9927D01*
Y-9622D02*
X28245Y-9531D01*
X28306Y-9501D01*
X28398D01*
X28459Y-9531D01*
X28489Y-9622D01*
Y-9927D01*
X29159Y-9287D02*
Y-9927D01*
Y-9287D02*
X29555D01*
X29159Y-9592D02*
X29403D01*
X29629Y-9287D02*
Y-9927D01*
X29994D01*
X30095Y-9866D02*
X30064Y-9897D01*
X30095Y-9927D01*
X30125Y-9897D01*
X30095Y-9866D01*
D47*
X-497Y-600D02*
Y-220D01*
Y-600D02*
Y-220D01*
Y-600D02*
X-197D01*
X6747Y-10660D02*
Y-11460D01*
X6480Y-10660D02*
X7013D01*
X7108D02*
Y-11460D01*
Y-10660D02*
X7451D01*
X7565Y-10698D01*
X7604Y-10736D01*
X7642Y-10813D01*
Y-10889D01*
X7604Y-10965D01*
X7565Y-11003D01*
X7451Y-11041D01*
X7108D01*
X7375D02*
X7642Y-11460D01*
X8430D02*
X8125Y-10660D01*
X7821Y-11460D01*
X7935Y-11193D02*
X8316D01*
X8617Y-10660D02*
Y-11460D01*
Y-10660D02*
X9150Y-11460D01*
Y-10660D02*
Y-11460D01*
X9904Y-10774D02*
X9828Y-10698D01*
X9714Y-10660D01*
X9561D01*
X9447Y-10698D01*
X9371Y-10774D01*
Y-10851D01*
X9409Y-10927D01*
X9447Y-10965D01*
X9523Y-11003D01*
X9752Y-11079D01*
X9828Y-11117D01*
X9866Y-11155D01*
X9904Y-11231D01*
Y-11346D01*
X9828Y-11422D01*
X9714Y-11460D01*
X9561D01*
X9447Y-11422D01*
X9371Y-11346D01*
X10654Y-10851D02*
X10616Y-10774D01*
X10540Y-10698D01*
X10464Y-10660D01*
X10312D01*
X10235Y-10698D01*
X10159Y-10774D01*
X10121Y-10851D01*
X10083Y-10965D01*
Y-11155D01*
X10121Y-11270D01*
X10159Y-11346D01*
X10235Y-11422D01*
X10312Y-11460D01*
X10464D01*
X10540Y-11422D01*
X10616Y-11346D01*
X10654Y-11270D01*
X11374Y-10660D02*
X10879D01*
Y-11460D01*
X11374D01*
X10879Y-11041D02*
X11184D01*
X11507Y-10660D02*
Y-11460D01*
X11675Y-10660D02*
X11980Y-11460D01*
X12284Y-10660D02*
X11980Y-11460D01*
X12882Y-10660D02*
X12387D01*
Y-11460D01*
X12882D01*
X12387Y-11041D02*
X12692D01*
X13016Y-10660D02*
Y-11460D01*
Y-10660D02*
X13359D01*
X13473Y-10698D01*
X13511Y-10736D01*
X13549Y-10813D01*
Y-10889D01*
X13511Y-10965D01*
X13473Y-11003D01*
X13359Y-11041D01*
X13016D01*
X13282D02*
X13549Y-11460D01*
X-4899Y-12046D02*
Y-12453D01*
X-4924Y-12529D01*
X-4949Y-12554D01*
X-5000Y-12579D01*
X-5051D01*
X-5102Y-12554D01*
X-5127Y-12529D01*
X-5153Y-12453D01*
Y-12402D01*
X-4736Y-12529D02*
X-4762Y-12554D01*
X-4736Y-12579D01*
X-4711Y-12554D01*
X-4736Y-12529D01*
X-4594Y-12046D02*
Y-12579D01*
Y-12046D02*
X-4238Y-12579D01*
Y-12046D02*
Y-12579D01*
D48*
X26318Y-13390D02*
X26242Y-13416D01*
X26191Y-13492D01*
X26165Y-13619D01*
Y-13695D01*
X26191Y-13822D01*
X26242Y-13898D01*
X26318Y-13924D01*
X26369D01*
X26445Y-13898D01*
X26496Y-13822D01*
X26521Y-13695D01*
Y-13619D01*
X26496Y-13492D01*
X26445Y-13416D01*
X26369Y-13390D01*
X26318D01*
X26996D02*
X26742Y-13924D01*
X26640Y-13390D02*
X26996D01*
X27115Y-14000D02*
X27471Y-13390D01*
X27532Y-13517D02*
Y-13492D01*
X27557Y-13441D01*
X27582Y-13416D01*
X27633Y-13390D01*
X27735D01*
X27785Y-13416D01*
X27811Y-13441D01*
X27836Y-13492D01*
Y-13543D01*
X27811Y-13593D01*
X27760Y-13670D01*
X27506Y-13924D01*
X27862D01*
X28311Y-13568D02*
X28286Y-13644D01*
X28235Y-13695D01*
X28159Y-13720D01*
X28133D01*
X28057Y-13695D01*
X28006Y-13644D01*
X27981Y-13568D01*
Y-13543D01*
X28006Y-13466D01*
X28057Y-13416D01*
X28133Y-13390D01*
X28159D01*
X28235Y-13416D01*
X28286Y-13466D01*
X28311Y-13568D01*
Y-13695D01*
X28286Y-13822D01*
X28235Y-13898D01*
X28159Y-13924D01*
X28108D01*
X28032Y-13898D01*
X28006Y-13847D01*
X28456Y-14000D02*
X28811Y-13390D01*
X28872Y-13517D02*
Y-13492D01*
X28898Y-13441D01*
X28923Y-13416D01*
X28974Y-13390D01*
X29075D01*
X29126Y-13416D01*
X29152Y-13441D01*
X29177Y-13492D01*
Y-13543D01*
X29152Y-13593D01*
X29101Y-13670D01*
X28847Y-13924D01*
X29202D01*
X29474Y-13390D02*
X29398Y-13416D01*
X29347Y-13492D01*
X29322Y-13619D01*
Y-13695D01*
X29347Y-13822D01*
X29398Y-13898D01*
X29474Y-13924D01*
X29525D01*
X29601Y-13898D01*
X29652Y-13822D01*
X29677Y-13695D01*
Y-13619D01*
X29652Y-13492D01*
X29601Y-13416D01*
X29525Y-13390D01*
X29474D01*
X29949D02*
X29873Y-13416D01*
X29822Y-13492D01*
X29797Y-13619D01*
Y-13695D01*
X29822Y-13822D01*
X29873Y-13898D01*
X29949Y-13924D01*
X30000D01*
X30076Y-13898D01*
X30127Y-13822D01*
X30152Y-13695D01*
Y-13619D01*
X30127Y-13492D01*
X30076Y-13416D01*
X30000Y-13390D01*
X29949D01*
X30601Y-13568D02*
X30576Y-13644D01*
X30525Y-13695D01*
X30449Y-13720D01*
X30424D01*
X30347Y-13695D01*
X30297Y-13644D01*
X30271Y-13568D01*
Y-13543D01*
X30297Y-13466D01*
X30347Y-13416D01*
X30424Y-13390D01*
X30449D01*
X30525Y-13416D01*
X30576Y-13466D01*
X30601Y-13568D01*
Y-13695D01*
X30576Y-13822D01*
X30525Y-13898D01*
X30449Y-13924D01*
X30398D01*
X30322Y-13898D01*
X30297Y-13847D01*
X2049Y-6719D02*
X1683Y-5759D01*
X1318Y-6719D01*
X1455Y-6399D02*
X1912D01*
X2821Y-6216D02*
X2730Y-6125D01*
X2639Y-6079D01*
X2502D01*
X2410Y-6125D01*
X2319Y-6216D01*
X2273Y-6353D01*
Y-6445D01*
X2319Y-6582D01*
X2410Y-6673D01*
X2502Y-6719D01*
X2639D01*
X2730Y-6673D01*
X2821Y-6582D01*
X3164Y-5759D02*
Y-6536D01*
X3210Y-6673D01*
X3301Y-6719D01*
X3393D01*
X3027Y-6079D02*
X3347D01*
X3621Y-5759D02*
X3667Y-5805D01*
X3713Y-5759D01*
X3667Y-5713D01*
X3621Y-5759D01*
X3667Y-6079D02*
Y-6719D01*
X3882Y-6079D02*
X4156Y-6719D01*
X4430Y-6079D02*
X4156Y-6719D01*
X4586Y-6353D02*
X5134D01*
Y-6262D01*
X5088Y-6170D01*
X5043Y-6125D01*
X4951Y-6079D01*
X4814D01*
X4723Y-6125D01*
X4631Y-6216D01*
X4586Y-6353D01*
Y-6445D01*
X4631Y-6582D01*
X4723Y-6673D01*
X4814Y-6719D01*
X4951D01*
X5043Y-6673D01*
X5134Y-6582D01*
X6094Y-5759D02*
X6322Y-6719D01*
X6551Y-5759D02*
X6322Y-6719D01*
X6551Y-5759D02*
X6779Y-6719D01*
X7008Y-5759D02*
X6779Y-6719D01*
X7748Y-6079D02*
Y-6719D01*
Y-6216D02*
X7657Y-6125D01*
X7566Y-6079D01*
X7428D01*
X7337Y-6125D01*
X7246Y-6216D01*
X7200Y-6353D01*
Y-6445D01*
X7246Y-6582D01*
X7337Y-6673D01*
X7428Y-6719D01*
X7566D01*
X7657Y-6673D01*
X7748Y-6582D01*
X8004Y-6079D02*
X8279Y-6719D01*
X8553Y-6079D02*
X8279Y-6719D01*
X8708Y-6353D02*
X9257D01*
Y-6262D01*
X9211Y-6170D01*
X9165Y-6125D01*
X9074Y-6079D01*
X8937D01*
X8845Y-6125D01*
X8754Y-6216D01*
X8708Y-6353D01*
Y-6445D01*
X8754Y-6582D01*
X8845Y-6673D01*
X8937Y-6719D01*
X9074D01*
X9165Y-6673D01*
X9257Y-6582D01*
X7960Y-8740D02*
Y-9700D01*
X7640Y-8740D02*
X8280D01*
X8394D02*
Y-9700D01*
Y-8740D02*
X8805D01*
X8943Y-8786D01*
X8988Y-8832D01*
X9034Y-8923D01*
Y-9014D01*
X8988Y-9106D01*
X8943Y-9152D01*
X8805Y-9197D01*
X8394D01*
X8714D02*
X9034Y-9700D01*
X9249Y-8740D02*
X9889Y-9700D01*
Y-8740D02*
X9249Y-9700D01*
X10103Y-9289D02*
X10926D01*
X11210Y-8923D02*
X11301Y-8877D01*
X11438Y-8740D01*
Y-9700D01*
X12188Y-8740D02*
X12050Y-8786D01*
X11959Y-8923D01*
X11913Y-9152D01*
Y-9289D01*
X11959Y-9517D01*
X12050Y-9654D01*
X12188Y-9700D01*
X12279D01*
X12416Y-9654D01*
X12508Y-9517D01*
X12553Y-9289D01*
Y-9152D01*
X12508Y-8923D01*
X12416Y-8786D01*
X12279Y-8740D01*
X12188D01*
X12768Y-8923D02*
X12859Y-8877D01*
X12997Y-8740D01*
Y-9700D01*
X19143Y-13712D02*
X19194Y-13687D01*
X19270Y-13611D01*
Y-14144D01*
X19864Y-13788D02*
X19839Y-13865D01*
X19788Y-13915D01*
X19712Y-13941D01*
X19686D01*
X19610Y-13915D01*
X19559Y-13865D01*
X19534Y-13788D01*
Y-13763D01*
X19559Y-13687D01*
X19610Y-13636D01*
X19686Y-13611D01*
X19712D01*
X19788Y-13636D01*
X19839Y-13687D01*
X19864Y-13788D01*
Y-13915D01*
X19839Y-14042D01*
X19788Y-14119D01*
X19712Y-14144D01*
X19661D01*
X19585Y-14119D01*
X19559Y-14068D01*
D49*
X23190Y-6877D02*
X22809Y-5877D01*
X22429Y-6877D01*
X22571Y-6544D02*
X23047D01*
X23995Y-6353D02*
X23900Y-6258D01*
X23804Y-6211D01*
X23662D01*
X23566Y-6258D01*
X23471Y-6353D01*
X23424Y-6496D01*
Y-6592D01*
X23471Y-6734D01*
X23566Y-6830D01*
X23662Y-6877D01*
X23804D01*
X23900Y-6830D01*
X23995Y-6734D01*
X24352Y-5877D02*
Y-6687D01*
X24400Y-6830D01*
X24495Y-6877D01*
X24590D01*
X24209Y-6211D02*
X24542D01*
X24828Y-5877D02*
X24876Y-5925D01*
X24923Y-5877D01*
X24876Y-5830D01*
X24828Y-5877D01*
X24876Y-6211D02*
Y-6877D01*
X25099Y-6211D02*
X25385Y-6877D01*
X25671Y-6211D02*
X25385Y-6877D01*
X25833Y-6496D02*
X26404D01*
Y-6401D01*
X26356Y-6306D01*
X26309Y-6258D01*
X26213Y-6211D01*
X26071D01*
X25975Y-6258D01*
X25880Y-6353D01*
X25833Y-6496D01*
Y-6592D01*
X25880Y-6734D01*
X25975Y-6830D01*
X26071Y-6877D01*
X26213D01*
X26309Y-6830D01*
X26404Y-6734D01*
X27404Y-5877D02*
X27642Y-6877D01*
X27880Y-5877D02*
X27642Y-6877D01*
X27880Y-5877D02*
X28118Y-6877D01*
X28356Y-5877D02*
X28118Y-6877D01*
X29127Y-6211D02*
Y-6877D01*
Y-6353D02*
X29032Y-6258D01*
X28937Y-6211D01*
X28794D01*
X28699Y-6258D01*
X28603Y-6353D01*
X28556Y-6496D01*
Y-6592D01*
X28603Y-6734D01*
X28699Y-6830D01*
X28794Y-6877D01*
X28937D01*
X29032Y-6830D01*
X29127Y-6734D01*
X29394Y-6211D02*
X29679Y-6877D01*
X29965Y-6211D02*
X29679Y-6877D01*
X30127Y-6496D02*
X30698D01*
Y-6401D01*
X30651Y-6306D01*
X30603Y-6258D01*
X30508Y-6211D01*
X30365D01*
X30270Y-6258D01*
X30175Y-6353D01*
X30127Y-6496D01*
Y-6592D01*
X30175Y-6734D01*
X30270Y-6830D01*
X30365Y-6877D01*
X30508D01*
X30603Y-6830D01*
X30698Y-6734D01*
D50*
X27999Y-15763D02*
X27973Y-15712D01*
X27922Y-15661D01*
X27872Y-15636D01*
X27770D01*
X27719Y-15661D01*
X27669Y-15712D01*
X27643Y-15763D01*
X27618Y-15839D01*
Y-15966D01*
X27643Y-16042D01*
X27669Y-16093D01*
X27719Y-16144D01*
X27770Y-16169D01*
X27872D01*
X27922Y-16144D01*
X27973Y-16093D01*
X27999Y-16042D01*
Y-15966D01*
X27872D02*
X27999D01*
X28451Y-15636D02*
X28121D01*
Y-16169D01*
X28451D01*
X28121Y-15890D02*
X28324D01*
X28540Y-15636D02*
Y-16169D01*
Y-15636D02*
X28768D01*
X28844Y-15661D01*
X28870Y-15687D01*
X28895Y-15737D01*
Y-15788D01*
X28870Y-15839D01*
X28844Y-15864D01*
X28768Y-15890D01*
X28540D01*
X28717D02*
X28895Y-16169D01*
X29014Y-15636D02*
Y-16169D01*
Y-15636D02*
X29243D01*
X29319Y-15661D01*
X29344Y-15687D01*
X29370Y-15737D01*
Y-15788D01*
X29344Y-15839D01*
X29319Y-15864D01*
X29243Y-15890D01*
X29014D02*
X29243D01*
X29319Y-15915D01*
X29344Y-15940D01*
X29370Y-15991D01*
Y-16067D01*
X29344Y-16118D01*
X29319Y-16144D01*
X29243Y-16169D01*
X29014D01*
X29819Y-15636D02*
X29489D01*
Y-16169D01*
X29819D01*
X29489Y-15890D02*
X29692D01*
X29908Y-15636D02*
Y-16169D01*
Y-15636D02*
X30137D01*
X30213Y-15661D01*
X30238Y-15687D01*
X30264Y-15737D01*
Y-15788D01*
X30238Y-15839D01*
X30213Y-15864D01*
X30137Y-15890D01*
X29908D01*
X30086D02*
X30264Y-16169D01*
X30408Y-15813D02*
X30383Y-15839D01*
X30408Y-15864D01*
X30434Y-15839D01*
X30408Y-15813D01*
Y-16118D02*
X30383Y-16144D01*
X30408Y-16169D01*
X30434Y-16144D01*
X30408Y-16118D01*
X-8982Y-15636D02*
Y-16169D01*
Y-15636D02*
X-8652D01*
X-8982Y-15890D02*
X-8779D01*
X-8591Y-15636D02*
Y-16169D01*
X-8479Y-15636D02*
Y-16169D01*
X-8175D01*
X-7786Y-15636D02*
X-8116D01*
Y-16169D01*
X-7786D01*
X-8116Y-15890D02*
X-7913D01*
X-7278Y-15636D02*
Y-16169D01*
Y-15636D02*
X-6923Y-16169D01*
Y-15636D02*
Y-16169D01*
X-6369D02*
X-6573Y-15636D01*
X-6776Y-16169D01*
X-6700Y-15991D02*
X-6446D01*
X-6245Y-15636D02*
Y-16169D01*
Y-15636D02*
X-6042Y-16169D01*
X-5839Y-15636D02*
X-6042Y-16169D01*
X-5839Y-15636D02*
Y-16169D01*
X-5356Y-15636D02*
X-5686D01*
Y-16169D01*
X-5356D01*
X-5686Y-15890D02*
X-5483D01*
X-5242Y-15813D02*
X-5267Y-15839D01*
X-5242Y-15864D01*
X-5217Y-15839D01*
X-5242Y-15813D01*
Y-16118D02*
X-5267Y-16144D01*
X-5242Y-16169D01*
X-5217Y-16144D01*
X-5242Y-16118D01*
X-8982Y-12036D02*
Y-12569D01*
Y-12036D02*
X-8804D01*
X-8728Y-12061D01*
X-8678Y-12112D01*
X-8652Y-12163D01*
X-8627Y-12239D01*
Y-12366D01*
X-8652Y-12442D01*
X-8678Y-12493D01*
X-8728Y-12544D01*
X-8804Y-12569D01*
X-8982D01*
X-8507Y-12213D02*
Y-12569D01*
Y-12366D02*
X-8482Y-12290D01*
X-8431Y-12239D01*
X-8380Y-12213D01*
X-8304D01*
X-7951D02*
Y-12569D01*
Y-12290D02*
X-8002Y-12239D01*
X-8053Y-12213D01*
X-8129D01*
X-8180Y-12239D01*
X-8231Y-12290D01*
X-8256Y-12366D01*
Y-12417D01*
X-8231Y-12493D01*
X-8180Y-12544D01*
X-8129Y-12569D01*
X-8053D01*
X-8002Y-12544D01*
X-7951Y-12493D01*
X-7809Y-12213D02*
X-7708Y-12569D01*
X-7606Y-12213D02*
X-7708Y-12569D01*
X-7606Y-12213D02*
X-7504Y-12569D01*
X-7403Y-12213D02*
X-7504Y-12569D01*
X-7278Y-12213D02*
Y-12569D01*
Y-12315D02*
X-7202Y-12239D01*
X-7151Y-12213D01*
X-7075D01*
X-7025Y-12239D01*
X-6999Y-12315D01*
Y-12569D01*
X-6441Y-12036D02*
Y-12569D01*
Y-12290D02*
X-6390Y-12239D01*
X-6339Y-12213D01*
X-6263D01*
X-6212Y-12239D01*
X-6161Y-12290D01*
X-6136Y-12366D01*
Y-12417D01*
X-6161Y-12493D01*
X-6212Y-12544D01*
X-6263Y-12569D01*
X-6339D01*
X-6390Y-12544D01*
X-6441Y-12493D01*
X-5996Y-12213D02*
X-5844Y-12569D01*
X-5691Y-12213D02*
X-5844Y-12569D01*
X-5895Y-12671D01*
X-5945Y-12721D01*
X-5996Y-12747D01*
X-6022D01*
X-5577Y-12213D02*
X-5603Y-12239D01*
X-5577Y-12264D01*
X-5552Y-12239D01*
X-5577Y-12213D01*
Y-12518D02*
X-5603Y-12544D01*
X-5577Y-12569D01*
X-5552Y-12544D01*
X-5577Y-12518D01*
X71Y-8111D02*
Y-8644D01*
X-107Y-8111D02*
X248D01*
X312D02*
Y-8644D01*
X601Y-8111D02*
Y-8644D01*
X423Y-8111D02*
X779D01*
X842D02*
Y-8644D01*
X1147D01*
X1536Y-8111D02*
X1206D01*
Y-8644D01*
X1536D01*
X1206Y-8365D02*
X1409D01*
X1650Y-8288D02*
X1624Y-8314D01*
X1650Y-8339D01*
X1675Y-8314D01*
X1650Y-8288D01*
Y-8593D02*
X1624Y-8619D01*
X1650Y-8644D01*
X1675Y-8619D01*
X1650Y-8593D01*
X18Y-13140D02*
X246D01*
X322Y-13115D01*
X348Y-13089D01*
X373Y-13038D01*
Y-12962D01*
X348Y-12911D01*
X322Y-12886D01*
X246Y-12861D01*
X18D01*
Y-13394D01*
X899D02*
X696Y-12861D01*
X493Y-13394D01*
X569Y-13216D02*
X823D01*
X1023Y-12861D02*
Y-13394D01*
Y-12861D02*
X1252D01*
X1328Y-12886D01*
X1353Y-12911D01*
X1379Y-12962D01*
Y-13013D01*
X1353Y-13064D01*
X1328Y-13089D01*
X1252Y-13115D01*
X1023D01*
X1201D02*
X1379Y-13394D01*
X1676Y-12861D02*
Y-13394D01*
X1498Y-12861D02*
X1854D01*
X2336D02*
Y-13394D01*
Y-12861D02*
X2692Y-13394D01*
Y-12861D02*
Y-13394D01*
X2991Y-12861D02*
X2940Y-12886D01*
X2890Y-12937D01*
X2864Y-12988D01*
X2839Y-13064D01*
Y-13191D01*
X2864Y-13267D01*
X2890Y-13318D01*
X2940Y-13369D01*
X2991Y-13394D01*
X3093D01*
X3143Y-13369D01*
X3194Y-13318D01*
X3220Y-13267D01*
X3245Y-13191D01*
Y-13064D01*
X3220Y-12988D01*
X3194Y-12937D01*
X3143Y-12886D01*
X3093Y-12861D01*
X2991D01*
X3395Y-13343D02*
X3369Y-13369D01*
X3395Y-13394D01*
X3420Y-13369D01*
X3395Y-13343D01*
X3562Y-13038D02*
X3537Y-13064D01*
X3562Y-13089D01*
X3588Y-13064D01*
X3562Y-13038D01*
Y-13343D02*
X3537Y-13369D01*
X3562Y-13394D01*
X3588Y-13369D01*
X3562Y-13343D01*
X-8652Y-8236D02*
X-8982D01*
Y-8769D01*
X-8652D01*
X-8982Y-8490D02*
X-8779D01*
X-8563Y-8236D02*
Y-8769D01*
Y-8236D02*
X-8208Y-8769D01*
Y-8236D02*
Y-8769D01*
X-7680Y-8363D02*
X-7705Y-8312D01*
X-7756Y-8261D01*
X-7807Y-8236D01*
X-7908D01*
X-7959Y-8261D01*
X-8010Y-8312D01*
X-8035Y-8363D01*
X-8061Y-8439D01*
Y-8566D01*
X-8035Y-8642D01*
X-8010Y-8693D01*
X-7959Y-8744D01*
X-7908Y-8769D01*
X-7807D01*
X-7756Y-8744D01*
X-7705Y-8693D01*
X-7680Y-8642D01*
Y-8566D01*
X-7807D02*
X-7680D01*
X-7558Y-8236D02*
Y-8769D01*
X-7446Y-8236D02*
Y-8769D01*
Y-8236D02*
X-7091Y-8769D01*
Y-8236D02*
Y-8769D01*
X-6613Y-8236D02*
X-6943D01*
Y-8769D01*
X-6613D01*
X-6943Y-8490D02*
X-6740D01*
X-6194Y-8236D02*
X-6524D01*
Y-8769D01*
X-6194D01*
X-6524Y-8490D02*
X-6321D01*
X-6105Y-8236D02*
Y-8769D01*
Y-8236D02*
X-5877D01*
X-5801Y-8261D01*
X-5775Y-8286D01*
X-5750Y-8337D01*
Y-8388D01*
X-5775Y-8439D01*
X-5801Y-8464D01*
X-5877Y-8490D01*
X-6105D01*
X-5928D02*
X-5750Y-8769D01*
X-5605Y-8413D02*
X-5631Y-8439D01*
X-5605Y-8464D01*
X-5580Y-8439D01*
X-5605Y-8413D01*
Y-8718D02*
X-5631Y-8744D01*
X-5605Y-8769D01*
X-5580Y-8744D01*
X-5605Y-8718D01*
X9418Y-15636D02*
Y-16169D01*
X9722D01*
X10187D02*
X9984Y-15636D01*
X9781Y-16169D01*
X9857Y-15991D02*
X10111D01*
X10312Y-15636D02*
X10515Y-15890D01*
Y-16169D01*
X10718Y-15636D02*
X10515Y-15890D01*
X11116Y-15636D02*
X10786D01*
Y-16169D01*
X11116D01*
X10786Y-15890D02*
X10990D01*
X11205Y-15636D02*
Y-16169D01*
Y-15636D02*
X11434D01*
X11510Y-15661D01*
X11535Y-15687D01*
X11561Y-15737D01*
Y-15788D01*
X11535Y-15839D01*
X11510Y-15864D01*
X11434Y-15890D01*
X11205D01*
X11383D02*
X11561Y-16169D01*
X11706Y-15813D02*
X11680Y-15839D01*
X11706Y-15864D01*
X11731Y-15839D01*
X11706Y-15813D01*
Y-16118D02*
X11680Y-16144D01*
X11706Y-16169D01*
X11731Y-16144D01*
X11706Y-16118D01*
X-8982Y-14140D02*
X-8754D01*
X-8678Y-14115D01*
X-8652Y-14089D01*
X-8627Y-14038D01*
Y-13962D01*
X-8652Y-13911D01*
X-8678Y-13886D01*
X-8754Y-13861D01*
X-8982D01*
Y-14394D01*
X-8507Y-13861D02*
Y-14394D01*
X-8152Y-13861D02*
Y-14394D01*
X-8507Y-14115D02*
X-8152D01*
X-7852Y-13861D02*
X-7903Y-13886D01*
X-7954Y-13937D01*
X-7979Y-13988D01*
X-8005Y-14064D01*
Y-14191D01*
X-7979Y-14267D01*
X-7954Y-14318D01*
X-7903Y-14369D01*
X-7852Y-14394D01*
X-7751D01*
X-7700Y-14369D01*
X-7649Y-14318D01*
X-7624Y-14267D01*
X-7598Y-14191D01*
Y-14064D01*
X-7624Y-13988D01*
X-7649Y-13937D01*
X-7700Y-13886D01*
X-7751Y-13861D01*
X-7852D01*
X-7474D02*
Y-14394D01*
Y-13861D02*
X-7118Y-14394D01*
Y-13861D02*
Y-14394D01*
X-6641Y-13861D02*
X-6971D01*
Y-14394D01*
X-6641D01*
X-6971Y-14115D02*
X-6768D01*
X-6527Y-14038D02*
X-6552Y-14064D01*
X-6527Y-14089D01*
X-6501Y-14064D01*
X-6527Y-14038D01*
Y-14343D02*
X-6552Y-14369D01*
X-6527Y-14394D01*
X-6501Y-14369D01*
X-6527Y-14343D01*
X-8982Y-10390D02*
X-8754D01*
X-8678Y-10365D01*
X-8652Y-10339D01*
X-8627Y-10288D01*
Y-10212D01*
X-8652Y-10161D01*
X-8678Y-10136D01*
X-8754Y-10111D01*
X-8982D01*
Y-10644D01*
X-8507Y-10111D02*
Y-10644D01*
X-8152Y-10111D02*
Y-10644D01*
X-8507Y-10365D02*
X-8152D01*
X-7852Y-10111D02*
X-7903Y-10136D01*
X-7954Y-10187D01*
X-7979Y-10238D01*
X-8005Y-10314D01*
Y-10441D01*
X-7979Y-10517D01*
X-7954Y-10568D01*
X-7903Y-10619D01*
X-7852Y-10644D01*
X-7751D01*
X-7700Y-10619D01*
X-7649Y-10568D01*
X-7624Y-10517D01*
X-7598Y-10441D01*
Y-10314D01*
X-7624Y-10238D01*
X-7649Y-10187D01*
X-7700Y-10136D01*
X-7751Y-10111D01*
X-7852D01*
X-7474D02*
Y-10644D01*
Y-10111D02*
X-7118Y-10644D01*
Y-10111D02*
Y-10644D01*
X-6641Y-10111D02*
X-6971D01*
Y-10644D01*
X-6641D01*
X-6971Y-10365D02*
X-6768D01*
X-6527Y-10288D02*
X-6552Y-10314D01*
X-6527Y-10339D01*
X-6501Y-10314D01*
X-6527Y-10288D01*
Y-10593D02*
X-6552Y-10619D01*
X-6527Y-10644D01*
X-6501Y-10619D01*
X-6527Y-10593D01*
X17393Y-12861D02*
Y-13394D01*
Y-12861D02*
X17621D01*
X17697Y-12886D01*
X17723Y-12911D01*
X17748Y-12962D01*
Y-13013D01*
X17723Y-13064D01*
X17697Y-13089D01*
X17621Y-13115D01*
X17393D01*
X17571D02*
X17748Y-13394D01*
X18198Y-12861D02*
X17868D01*
Y-13394D01*
X18198D01*
X17868Y-13115D02*
X18071D01*
X18287Y-12861D02*
X18490Y-13394D01*
X18693Y-12861D02*
X18490Y-13394D01*
X18787Y-13038D02*
X18761Y-13064D01*
X18787Y-13089D01*
X18812Y-13064D01*
X18787Y-13038D01*
Y-13343D02*
X18761Y-13369D01*
X18787Y-13394D01*
X18812Y-13369D01*
X18787Y-13343D01*
X22018Y-12861D02*
Y-13394D01*
Y-12861D02*
X22196D01*
X22272Y-12886D01*
X22322Y-12937D01*
X22348Y-12988D01*
X22373Y-13064D01*
Y-13191D01*
X22348Y-13267D01*
X22322Y-13318D01*
X22272Y-13369D01*
X22196Y-13394D01*
X22018D01*
X22899D02*
X22696Y-12861D01*
X22493Y-13394D01*
X22569Y-13216D02*
X22823D01*
X23201Y-12861D02*
Y-13394D01*
X23023Y-12861D02*
X23379D01*
X23772D02*
X23442D01*
Y-13394D01*
X23772D01*
X23442Y-13115D02*
X23645D01*
X23887Y-13038D02*
X23861Y-13064D01*
X23887Y-13089D01*
X23912Y-13064D01*
X23887Y-13038D01*
Y-13343D02*
X23861Y-13369D01*
X23887Y-13394D01*
X23912Y-13369D01*
X23887Y-13343D01*
M02*
