M48
;Layer_Color=9474304
;FILE_FORMAT=2:4
INCH,LZ
;TYPE=PLATED
T1F00S00C0.0100
T2F00S00C0.0250
T3F00S00C0.0300
T4F00S00C0.0350
T5F00S00C0.0570
T6F00S00C0.1220
%
T01
X00184Y003013
X00324
X00408Y001282
X00638Y001382
X00752Y001652
X00755Y002242
X0075Y001052
X0071Y000602
X00917Y000452
X0115Y00045
X0108Y0014
X01479Y0004
X017584Y000845
X017719Y002015
X018694Y002415
X019083Y001152
X006033Y003602
X021036Y003572
X021183Y002502
X021633Y001952
X02135Y00054
X022233Y000709
X02273Y00397
X02151Y0052
Y0058
Y0064
X02164Y01056
X02129Y01058
X0227Y00967
X02036Y01022
X020301Y008845
X02061Y00831
X01962Y008382
X01857
X01757
X01667Y007782
X01607Y007982
X01515Y007752
X014Y007832
X01421Y006592
X01414Y006232
X01372Y004712
X01542Y004432
X01592Y005782
X01668Y005862
X01784Y005532
X01847Y005292
X019233Y004552
X01917Y006632
X018734Y009345
X018362Y010591
X01776Y010305
X01697Y010382
X0163Y00995
X01572Y010382
X01497Y009482
X01344Y008822
X01227Y009472
X011883Y010602
X01078Y010372
X0104Y010942
X00976
X00951Y010562
X00828Y010512
X00832Y008952
X00869Y007942
X008278Y007412
X00905Y00595
X01049Y008962
X012483Y007902
X01356Y011007
Y012207
X0152
X01489Y012732
X01563Y013022
X01583Y014012
X01694Y01294
X017732Y011536
X018761Y011182
X011629Y012587
X01105Y012052
X01049Y012682
X011039Y014117
X01068Y015132
X011741Y01535
Y01675
X013889Y016817
Y016217
X015639Y01695
X00841Y015132
X008483Y013802
X00909Y013782
X0068Y0119
X00635Y01085
X00525Y0105
X0052Y012
X0054Y01534
X0058Y0151
X00635Y01595
X006018Y008167
X004366Y009732
X003183Y009422
X00264Y009433
X002813Y010432
X00291Y01207
X002377Y012078
X002102Y012393
X001923Y013493
X00261Y0142
X004188Y012775
X004857
X00357Y011433
X003125Y008532
X003693Y005802
X004873Y004522
X0048Y0177
T02
X0Y0
X000003Y0026
X003503Y-0001
X010503
X014003
X017503
X0227Y0
X022703Y0026
Y0066
Y0106
Y0146
X0227Y0185
X017503Y0186
X014003
X010503
X003503
X0Y0185
X000003Y0146
Y0106
Y0066
T03
X0085Y0035
X0131Y00095
X0227Y0047
Y00575
X0219Y0116
X01655Y0082
T04
X001183Y004452
Y005452
Y006452
Y007452
Y008452
Y009452
Y010452
Y011452
Y012452
Y013452
T05
X007Y0
X007003Y0026
Y0066
Y0106
Y0146
X007Y0185
X016723Y016802
X017723Y015802
X016723Y014802
X018723
Y016802
X003633
X002633Y015802
X001633Y014802
X003633
X001633Y016802
T06
X020983Y013042
M30
