
M48
INCH,LZ
T01C0.012
T02C0.028
T03C0.033
T04C0.12
%
T01
X00401Y05342
X00401Y05412
X00717Y05328
X00767Y05328
X00826Y05378
X00734Y05481
X00704Y05563
X00626Y05679
X00586Y05747
X00644Y05847
X00853Y05847
X00853Y05898
X0085Y05722
X0085Y05685
X0085Y0565
X00921Y05649
X00921Y05684
X00949Y05612
X01001Y05443
X01001Y05833
X014785Y05342
X014785Y05412
X017945Y05328
X018445Y05328
X019035Y05378
X018115Y05481
X017815Y05563
X017035Y05679
X016635Y05747
X017215Y05847
X019305Y05847
X019305Y05898
X019275Y05722
X019275Y05685
X019275Y0565
X019985Y05649
X019985Y05684
X020265Y05612
X020785Y05443
X020785Y05833
X02556Y05342
X02556Y05412
X02872Y05328
X02922Y05328
X02981Y05378
X02889Y05481
X02859Y05563
X02781Y05679
X02741Y05747
X02799Y05847
X03008Y05847
X03008Y05898
X03005Y05722
X03005Y05685
X03005Y0565
X03076Y05649
X03076Y05684
X03104Y05612
X03156Y05443
X03156Y05833
X036335Y05342
X036335Y05412
X039495Y05328
X039995Y05328
X040585Y05378
X039665Y05481
X039365Y05563
X038585Y05679
X038185Y05747
X038765Y05847
X040855Y05847
X040855Y05898
X040825Y05722
X040825Y05685
X040825Y0565
X041535Y05649
X041535Y05684
X041815Y05612
X042335Y05443
X042335Y05833
X04711Y05342
X04711Y05412
X05027Y05328
X05077Y05328
X05136Y05378
X05044Y05481
X05014Y05563
X04936Y05679
X04896Y05747
X04954Y05847
X05163Y05847
X05163Y05898
X0516Y05722
X0516Y05685
X0516Y0565
X05231Y05649
X05231Y05684
X05259Y05612
X05311Y05443
X05311Y05833
X057885Y05342
X057885Y05412
X061045Y05328
X061545Y05328
X062135Y05378
X061215Y05481
X060915Y05563
X060135Y05679
X059735Y05747
X060315Y05847
X062405Y05847
X062405Y05898
X062375Y05722
X062375Y05685
X062375Y0565
X063085Y05649
X063085Y05684
X063365Y05612
X063885Y05443
X063885Y05833
X06866Y05342
X06866Y05412
X07182Y05328
X07232Y05328
X07291Y05378
X07199Y05481
X07169Y05563
X07091Y05679
X07051Y05747
X07109Y05847
X07318Y05847
X07318Y05898
X07315Y05722
X07315Y05685
X07315Y0565
X07386Y05649
X07386Y05684
X07414Y05612
X07466Y05443
X07466Y05833
X079435Y05342
X079435Y05412
X082595Y05328
X083095Y05328
X083685Y05378
X082765Y05481
X082465Y05563
X081685Y05679
X081285Y05747
X081865Y05847
X083955Y05847
X083955Y05898
X083925Y05722
X083925Y05685
X083925Y0565
X084635Y05649
X084635Y05684
X084915Y05612
X085435Y05443
X085435Y05833
X09021Y05342
X09021Y05412
X09337Y05328
X09387Y05328
X09446Y05378
X09354Y05481
X09324Y05563
X09246Y05679
X09206Y05747
X09264Y05847
X09473Y05847
X09473Y05898
X0947Y05722
X0947Y05685
X0947Y0565
X09541Y05649
X09541Y05684
X09569Y05612
X09621Y05443
X09621Y05833
X09021Y04353
X09021Y04423
X09337Y04339
X09387Y04339
X09446Y04389
X09354Y04492
X09324Y04574
X09246Y0469
X09206Y04758
X09264Y04858
X09473Y04858
X09473Y04909
X0947Y04733
X0947Y04696
X0947Y04661
X09541Y0466
X09541Y04695
X09569Y04623
X09621Y04454
X09621Y04844
X079435Y04353
X079435Y04423
X082595Y04339
X083095Y04339
X083685Y04389
X082765Y04492
X082465Y04574
X081685Y0469
X081285Y04758
X081865Y04858
X083955Y04858
X083955Y04909
X083925Y04733
X083925Y04696
X083925Y04661
X084635Y0466
X084635Y04695
X084915Y04623
X085435Y04454
X085435Y04844
X06866Y04353
X06866Y04423
X07182Y04339
X07232Y04339
X07291Y04389
X07199Y04492
X07169Y04574
X07091Y0469
X07051Y04758
X07109Y04858
X07318Y04858
X07318Y04909
X07315Y04733
X07315Y04696
X07315Y04661
X07386Y0466
X07386Y04695
X07414Y04623
X07466Y04454
X07466Y04844
X057885Y04353
X057885Y04423
X061045Y04339
X061545Y04339
X062135Y04389
X061215Y04492
X060915Y04574
X060135Y0469
X059735Y04758
X060315Y04858
X062405Y04858
X062405Y04909
X062375Y04733
X062375Y04696
X062375Y04661
X063085Y0466
X063085Y04695
X063365Y04623
X063885Y04454
X063885Y04844
X04711Y04353
X04711Y04423
X05027Y04339
X05077Y04339
X05136Y04389
X05044Y04492
X05014Y04574
X04936Y0469
X04896Y04758
X04954Y04858
X05163Y04858
X05163Y04909
X0516Y04733
X0516Y04696
X0516Y04661
X05231Y0466
X05231Y04695
X05259Y04623
X05311Y04454
X05311Y04844
X036335Y04353
X036335Y04423
X039495Y04339
X039995Y04339
X040585Y04389
X039665Y04492
X039365Y04574
X038585Y0469
X038185Y04758
X038765Y04858
X040855Y04858
X040855Y04909
X040825Y04733
X040825Y04696
X040825Y04661
X041535Y0466
X041535Y04695
X041815Y04623
X042335Y04454
X042335Y04844
X02556Y04353
X02556Y04423
X02872Y04339
X02922Y04339
X02981Y04389
X02889Y04492
X02859Y04574
X02781Y0469
X02741Y04758
X02799Y04858
X03008Y04858
X03008Y04909
X03005Y04733
X03005Y04696
X03005Y04661
X03076Y0466
X03076Y04695
X03104Y04623
X03156Y04454
X03156Y04844
X014785Y04353
X014785Y04423
X017945Y04339
X018445Y04339
X019035Y04389
X018115Y04492
X017815Y04574
X017035Y0469
X016635Y04758
X017215Y04858
X019305Y04858
X019305Y04909
X019275Y04733
X019275Y04696
X019275Y04661
X019985Y0466
X019985Y04695
X020265Y04623
X020785Y04454
X020785Y04844
X00401Y04353
X00401Y04423
X00717Y04339
X00767Y04339
X00826Y04389
X00734Y04492
X00704Y04574
X00626Y0469
X00586Y04758
X00644Y04858
X00853Y04858
X00853Y04909
X0085Y04733
X0085Y04696
X0085Y04661
X00921Y0466
X00921Y04695
X00949Y04623
X01001Y04454
X01001Y04844
X00401Y03364
X00401Y03434
X00717Y0335
X00767Y0335
X00826Y034
X00734Y03503
X00704Y03585
X00626Y03701
X00586Y03769
X00644Y03869
X00853Y03869
X00853Y0392
X0085Y03744
X0085Y03707
X0085Y03672
X00921Y03671
X00921Y03706
X00949Y03634
X01001Y03465
X01001Y03855
X014785Y03364
X014785Y03434
X017945Y0335
X018445Y0335
X019035Y034
X018115Y03503
X017815Y03585
X017035Y03701
X016635Y03769
X017215Y03869
X019305Y03869
X019305Y0392
X019275Y03744
X019275Y03707
X019275Y03672
X019985Y03671
X019985Y03706
X020265Y03634
X020785Y03465
X020785Y03855
X02556Y03364
X02556Y03434
X02872Y0335
X02922Y0335
X02981Y034
X02889Y03503
X02859Y03585
X02781Y03701
X02741Y03769
X02799Y03869
X03008Y03869
X03008Y0392
X03005Y03744
X03005Y03707
X03005Y03672
X03076Y03671
X03076Y03706
X03104Y03634
X03156Y03465
X03156Y03855
X036335Y03364
X036335Y03434
X039495Y0335
X039995Y0335
X040585Y034
X039665Y03503
X039365Y03585
X038585Y03701
X038185Y03769
X038765Y03869
X040855Y03869
X040855Y0392
X040825Y03744
X040825Y03707
X040825Y03672
X041535Y03671
X041535Y03706
X041815Y03634
X042335Y03465
X042335Y03855
X04711Y03364
X04711Y03434
X05027Y0335
X05077Y0335
X05136Y034
X05044Y03503
X05014Y03585
X04936Y03701
X04896Y03769
X04954Y03869
X05163Y03869
X05163Y0392
X0516Y03744
X0516Y03707
X0516Y03672
X05231Y03671
X05231Y03706
X05259Y03634
X05311Y03465
X05311Y03855
X057885Y03364
X057885Y03434
X061045Y0335
X061545Y0335
X062135Y034
X061215Y03503
X060915Y03585
X060135Y03701
X059735Y03769
X060315Y03869
X062405Y03869
X062405Y0392
X062375Y03744
X062375Y03707
X062375Y03672
X063085Y03671
X063085Y03706
X063365Y03634
X063885Y03465
X063885Y03855
X06866Y03364
X06866Y03434
X07182Y0335
X07232Y0335
X07291Y034
X07199Y03503
X07169Y03585
X07091Y03701
X07051Y03769
X07109Y03869
X07318Y03869
X07318Y0392
X07315Y03744
X07315Y03707
X07315Y03672
X07386Y03671
X07386Y03706
X07414Y03634
X07466Y03465
X07466Y03855
X079435Y03364
X079435Y03434
X082595Y0335
X083095Y0335
X083685Y034
X082765Y03503
X082465Y03585
X081685Y03701
X081285Y03769
X081865Y03869
X083955Y03869
X083955Y0392
X083925Y03744
X083925Y03707
X083925Y03672
X084635Y03671
X084635Y03706
X084915Y03634
X085435Y03465
X085435Y03855
X09021Y03364
X09021Y03434
X09337Y0335
X09387Y0335
X09446Y034
X09354Y03503
X09324Y03585
X09246Y03701
X09206Y03769
X09264Y03869
X09473Y03869
X09473Y0392
X0947Y03744
X0947Y03707
X0947Y03672
X09541Y03671
X09541Y03706
X09569Y03634
X09621Y03465
X09621Y03855
X09021Y02375
X09021Y02445
X09337Y02361
X09387Y02361
X09446Y02411
X09354Y02514
X09324Y02596
X09246Y02712
X09206Y0278
X09264Y0288
X09473Y0288
X09473Y02931
X0947Y02755
X0947Y02718
X0947Y02683
X09541Y02682
X09541Y02717
X09569Y02645
X09621Y02476
X09621Y02866
X079435Y02375
X079435Y02445
X082595Y02361
X083095Y02361
X083685Y02411
X082765Y02514
X082465Y02596
X081685Y02712
X081285Y0278
X081865Y0288
X083955Y0288
X083955Y02931
X083925Y02755
X083925Y02718
X083925Y02683
X084635Y02682
X084635Y02717
X084915Y02645
X085435Y02476
X085435Y02866
X06866Y02375
X06866Y02445
X07182Y02361
X07232Y02361
X07291Y02411
X07199Y02514
X07169Y02596
X07091Y02712
X07051Y0278
X07109Y0288
X07318Y0288
X07318Y02931
X07315Y02755
X07315Y02718
X07315Y02683
X07386Y02682
X07386Y02717
X07414Y02645
X07466Y02476
X07466Y02866
X057885Y02375
X057885Y02445
X061045Y02361
X061545Y02361
X062135Y02411
X061215Y02514
X060915Y02596
X060135Y02712
X059735Y0278
X060315Y0288
X062405Y0288
X062405Y02931
X062375Y02755
X062375Y02718
X062375Y02683
X063085Y02682
X063085Y02717
X063365Y02645
X063885Y02476
X063885Y02866
X04711Y02375
X04711Y02445
X05027Y02361
X05077Y02361
X05136Y02411
X05044Y02514
X05014Y02596
X04936Y02712
X04896Y0278
X04954Y0288
X05163Y0288
X05163Y02931
X0516Y02755
X0516Y02718
X0516Y02683
X05231Y02682
X05231Y02717
X05259Y02645
X05311Y02476
X05311Y02866
X036335Y02375
X036335Y02445
X039495Y02361
X039995Y02361
X040585Y02411
X039665Y02514
X039365Y02596
X038585Y02712
X038185Y0278
X038765Y0288
X040855Y0288
X040855Y02931
X040825Y02755
X040825Y02718
X040825Y02683
X041535Y02682
X041535Y02717
X041815Y02645
X042335Y02476
X042335Y02866
X02556Y02375
X02556Y02445
X02872Y02361
X02922Y02361
X02981Y02411
X02889Y02514
X02859Y02596
X02781Y02712
X02741Y0278
X02799Y0288
X03008Y0288
X03008Y02931
X03005Y02755
X03005Y02718
X03005Y02683
X03076Y02682
X03076Y02717
X03104Y02645
X03156Y02476
X03156Y02866
X014785Y02375
X014785Y02445
X017945Y02361
X018445Y02361
X019035Y02411
X018115Y02514
X017815Y02596
X017035Y02712
X016635Y0278
X017215Y0288
X019305Y0288
X019305Y02931
X019275Y02755
X019275Y02718
X019275Y02683
X019985Y02682
X019985Y02717
X020265Y02645
X020785Y02476
X020785Y02866
X00401Y02375
X00401Y02445
X00717Y02361
X00767Y02361
X00826Y02411
X00734Y02514
X00704Y02596
X00626Y02712
X00586Y0278
X00644Y0288
X00853Y0288
X00853Y02931
X0085Y02755
X0085Y02718
X0085Y02683
X00921Y02682
X00921Y02717
X00949Y02645
X01001Y02476
X01001Y02866
X00401Y01386
X00401Y01456
X00717Y01372
X00767Y01372
X00826Y01422
X00734Y01525
X00704Y01607
X00626Y01723
X00586Y01791
X00644Y01891
X00853Y01891
X00853Y01942
X0085Y01766
X0085Y01729
X0085Y01694
X00921Y01693
X00921Y01728
X00949Y01656
X01001Y01487
X01001Y01877
X014785Y01386
X014785Y01456
X017945Y01372
X018445Y01372
X019035Y01422
X018115Y01525
X017815Y01607
X017035Y01723
X016635Y01791
X017215Y01891
X019305Y01891
X019305Y01942
X019275Y01766
X019275Y01729
X019275Y01694
X019985Y01693
X019985Y01728
X020265Y01656
X020785Y01487
X020785Y01877
X02556Y01386
X02556Y01456
X02872Y01372
X02922Y01372
X02981Y01422
X02889Y01525
X02859Y01607
X02781Y01723
X02741Y01791
X02799Y01891
X03008Y01891
X03008Y01942
X03005Y01766
X03005Y01729
X03005Y01694
X03076Y01693
X03076Y01728
X03104Y01656
X03156Y01487
X03156Y01877
X036335Y01386
X036335Y01456
X039495Y01372
X039995Y01372
X040585Y01422
X039665Y01525
X039365Y01607
X038585Y01723
X038185Y01791
X038765Y01891
X040855Y01891
X040855Y01942
X040825Y01766
X040825Y01729
X040825Y01694
X041535Y01693
X041535Y01728
X041815Y01656
X042335Y01487
X042335Y01877
X04711Y01386
X04711Y01456
X05027Y01372
X05077Y01372
X05136Y01422
X05044Y01525
X05014Y01607
X04936Y01723
X04896Y01791
X04954Y01891
X05163Y01891
X05163Y01942
X0516Y01766
X0516Y01729
X0516Y01694
X05231Y01693
X05231Y01728
X05259Y01656
X05311Y01487
X05311Y01877
X057885Y01386
X057885Y01456
X061045Y01372
X061545Y01372
X062135Y01422
X061215Y01525
X060915Y01607
X060135Y01723
X059735Y01791
X060315Y01891
X062405Y01891
X062405Y01942
X062375Y01766
X062375Y01729
X062375Y01694
X063085Y01693
X063085Y01728
X063365Y01656
X063885Y01487
X063885Y01877
X06866Y01386
X06866Y01456
X07182Y01372
X07232Y01372
X07291Y01422
X07199Y01525
X07169Y01607
X07091Y01723
X07051Y01791
X07109Y01891
X07318Y01891
X07318Y01942
X07315Y01766
X07315Y01729
X07315Y01694
X07386Y01693
X07386Y01728
X07414Y01656
X07466Y01487
X07466Y01877
X079435Y01386
X079435Y01456
X082595Y01372
X083095Y01372
X083685Y01422
X082765Y01525
X082465Y01607
X081685Y01723
X081285Y01791
X081865Y01891
X083955Y01891
X083955Y01942
X083925Y01766
X083925Y01729
X083925Y01694
X084635Y01693
X084635Y01728
X084915Y01656
X085435Y01487
X085435Y01877
X09021Y01386
X09021Y01456
X09337Y01372
X09387Y01372
X09446Y01422
X09354Y01525
X09324Y01607
X09246Y01723
X09206Y01791
X09264Y01891
X09473Y01891
X09473Y01942
X0947Y01766
X0947Y01729
X0947Y01694
X09541Y01693
X09541Y01728
X09569Y01656
X09621Y01487
X09621Y01877
X09021Y00397
X09021Y00467
X09337Y00383
X09387Y00383
X09446Y00433
X09354Y00536
X09324Y00618
X09246Y00734
X09206Y00802
X09264Y00902
X09473Y00902
X09473Y00953
X0947Y00777
X0947Y0074
X0947Y00705
X09541Y00704
X09541Y00739
X09569Y00667
X09621Y00498
X09621Y00888
X079435Y00397
X079435Y00467
X082595Y00383
X083095Y00383
X083685Y00433
X082765Y00536
X082465Y00618
X081685Y00734
X081285Y00802
X081865Y00902
X083955Y00902
X083955Y00953
X083925Y00777
X083925Y0074
X083925Y00705
X084635Y00704
X084635Y00739
X084915Y00667
X085435Y00498
X085435Y00888
X06866Y00397
X06866Y00467
X07182Y00383
X07232Y00383
X07291Y00433
X07199Y00536
X07169Y00618
X07091Y00734
X07051Y00802
X07109Y00902
X07318Y00902
X07318Y00953
X07315Y00777
X07315Y0074
X07315Y00705
X07386Y00704
X07386Y00739
X07414Y00667
X07466Y00498
X07466Y00888
X057885Y00397
X057885Y00467
X061045Y00383
X061545Y00383
X062135Y00433
X061215Y00536
X060915Y00618
X060135Y00734
X059735Y00802
X060315Y00902
X062405Y00902
X062405Y00953
X062375Y00777
X062375Y0074
X062375Y00705
X063085Y00704
X063085Y00739
X063365Y00667
X063885Y00498
X063885Y00888
X04711Y00397
X04711Y00467
X05027Y00383
X05077Y00383
X05136Y00433
X05044Y00536
X05014Y00618
X04936Y00734
X04896Y00802
X04954Y00902
X05163Y00902
X05163Y00953
X0516Y00777
X0516Y0074
X0516Y00705
X05231Y00704
X05231Y00739
X05259Y00667
X05311Y00498
X05311Y00888
X036335Y00397
X036335Y00467
X039495Y00383
X039995Y00383
X040585Y00433
X039665Y00536
X039365Y00618
X038585Y00734
X038185Y00802
X038765Y00902
X040855Y00902
X040855Y00953
X040825Y00777
X040825Y0074
X040825Y00705
X041535Y00704
X041535Y00739
X041815Y00667
X042335Y00498
X042335Y00888
X02556Y00397
X02556Y00467
X02872Y00383
X02922Y00383
X02981Y00433
X02889Y00536
X02859Y00618
X02781Y00734
X02741Y00802
X02799Y00902
X03008Y00902
X03008Y00953
X03005Y00777
X03005Y0074
X03005Y00705
X03076Y00704
X03076Y00739
X03104Y00667
X03156Y00498
X03156Y00888
X014785Y00397
X014785Y00467
X017945Y00383
X018445Y00383
X019035Y00433
X018115Y00536
X017815Y00618
X017035Y00734
X016635Y00802
X017215Y00902
X019305Y00902
X019305Y00953
X019275Y00777
X019275Y0074
X019275Y00705
X019985Y00704
X019985Y00739
X020265Y00667
X020785Y00498
X020785Y00888
X00401Y00397
X00401Y00467
X00717Y00383
X00767Y00383
X00826Y00433
X00734Y00536
X00704Y00618
X00626Y00734
X00586Y00802
X00644Y00902
X00853Y00902
X00853Y00953
X0085Y00777
X0085Y0074
X0085Y00705
X00921Y00704
X00921Y00739
X00949Y00667
X01001Y00498
X01001Y00888
T02
X00576Y05798
X00576Y05848
X00576Y05898
X00576Y05948
X00997Y05947
X00997Y05897
X016535Y05798
X016535Y05848
X016535Y05898
X016535Y05948
X020745Y05947
X020745Y05897
X02731Y05798
X02731Y05848
X02731Y05898
X02731Y05948
X03152Y05947
X03152Y05897
X038085Y05798
X038085Y05848
X038085Y05898
X038085Y05948
X042295Y05947
X042295Y05897
X04886Y05798
X04886Y05848
X04886Y05898
X04886Y05948
X05307Y05947
X05307Y05897
X059635Y05798
X059635Y05848
X059635Y05898
X059635Y05948
X063845Y05947
X063845Y05897
X07041Y05798
X07041Y05848
X07041Y05898
X07041Y05948
X07462Y05947
X07462Y05897
X081185Y05798
X081185Y05848
X081185Y05898
X081185Y05948
X085395Y05947
X085395Y05897
X09196Y05798
X09196Y05848
X09196Y05898
X09196Y05948
X09617Y05947
X09617Y05897
X09196Y04809
X09196Y04859
X09196Y04909
X09196Y04959
X09617Y04958
X09617Y04908
X081185Y04809
X081185Y04859
X081185Y04909
X081185Y04959
X085395Y04958
X085395Y04908
X07041Y04809
X07041Y04859
X07041Y04909
X07041Y04959
X07462Y04958
X07462Y04908
X059635Y04809
X059635Y04859
X059635Y04909
X059635Y04959
X063845Y04958
X063845Y04908
X04886Y04809
X04886Y04859
X04886Y04909
X04886Y04959
X05307Y04958
X05307Y04908
X038085Y04809
X038085Y04859
X038085Y04909
X038085Y04959
X042295Y04958
X042295Y04908
X02731Y04809
X02731Y04859
X02731Y04909
X02731Y04959
X03152Y04958
X03152Y04908
X016535Y04809
X016535Y04859
X016535Y04909
X016535Y04959
X020745Y04958
X020745Y04908
X00576Y04809
X00576Y04859
X00576Y04909
X00576Y04959
X00997Y04958
X00997Y04908
X00576Y0382
X00576Y0387
X00576Y0392
X00576Y0397
X00997Y03969
X00997Y03919
X016535Y0382
X016535Y0387
X016535Y0392
X016535Y0397
X020745Y03969
X020745Y03919
X02731Y0382
X02731Y0387
X02731Y0392
X02731Y0397
X03152Y03969
X03152Y03919
X038085Y0382
X038085Y0387
X038085Y0392
X038085Y0397
X042295Y03969
X042295Y03919
X04886Y0382
X04886Y0387
X04886Y0392
X04886Y0397
X05307Y03969
X05307Y03919
X059635Y0382
X059635Y0387
X059635Y0392
X059635Y0397
X063845Y03969
X063845Y03919
X07041Y0382
X07041Y0387
X07041Y0392
X07041Y0397
X07462Y03969
X07462Y03919
X081185Y0382
X081185Y0387
X081185Y0392
X081185Y0397
X085395Y03969
X085395Y03919
X09196Y0382
X09196Y0387
X09196Y0392
X09196Y0397
X09617Y03969
X09617Y03919
X09196Y02831
X09196Y02881
X09196Y02931
X09196Y02981
X09617Y0298
X09617Y0293
X081185Y02831
X081185Y02881
X081185Y02931
X081185Y02981
X085395Y0298
X085395Y0293
X07041Y02831
X07041Y02881
X07041Y02931
X07041Y02981
X07462Y0298
X07462Y0293
X059635Y02831
X059635Y02881
X059635Y02931
X059635Y02981
X063845Y0298
X063845Y0293
X04886Y02831
X04886Y02881
X04886Y02931
X04886Y02981
X05307Y0298
X05307Y0293
X038085Y02831
X038085Y02881
X038085Y02931
X038085Y02981
X042295Y0298
X042295Y0293
X02731Y02831
X02731Y02881
X02731Y02931
X02731Y02981
X03152Y0298
X03152Y0293
X016535Y02831
X016535Y02881
X016535Y02931
X016535Y02981
X020745Y0298
X020745Y0293
X00576Y02831
X00576Y02881
X00576Y02931
X00576Y02981
X00997Y0298
X00997Y0293
X00576Y01842
X00576Y01892
X00576Y01942
X00576Y01992
X00997Y01991
X00997Y01941
X016535Y01842
X016535Y01892
X016535Y01942
X016535Y01992
X020745Y01991
X020745Y01941
X02731Y01842
X02731Y01892
X02731Y01942
X02731Y01992
X03152Y01991
X03152Y01941
X038085Y01842
X038085Y01892
X038085Y01942
X038085Y01992
X042295Y01991
X042295Y01941
X04886Y01842
X04886Y01892
X04886Y01942
X04886Y01992
X05307Y01991
X05307Y01941
X059635Y01842
X059635Y01892
X059635Y01942
X059635Y01992
X063845Y01991
X063845Y01941
X07041Y01842
X07041Y01892
X07041Y01942
X07041Y01992
X07462Y01991
X07462Y01941
X081185Y01842
X081185Y01892
X081185Y01942
X081185Y01992
X085395Y01991
X085395Y01941
X09196Y01842
X09196Y01892
X09196Y01942
X09196Y01992
X09617Y01991
X09617Y01941
X09196Y00853
X09196Y00903
X09196Y00953
X09196Y01003
X09617Y01002
X09617Y00952
X081185Y00853
X081185Y00903
X081185Y00953
X081185Y01003
X085395Y01002
X085395Y00952
X07041Y00853
X07041Y00903
X07041Y00953
X07041Y01003
X07462Y01002
X07462Y00952
X059635Y00853
X059635Y00903
X059635Y00953
X059635Y01003
X063845Y01002
X063845Y00952
X04886Y00853
X04886Y00903
X04886Y00953
X04886Y01003
X05307Y01002
X05307Y00952
X038085Y00853
X038085Y00903
X038085Y00953
X038085Y01003
X042295Y01002
X042295Y00952
X02731Y00853
X02731Y00903
X02731Y00953
X02731Y01003
X03152Y01002
X03152Y00952
X016535Y00853
X016535Y00903
X016535Y00953
X016535Y01003
X020745Y01002
X020745Y00952
X00576Y00853
X00576Y00903
X00576Y00953
X00576Y01003
X00997Y01002
X00997Y00952
T03
X00637Y05408
X00586Y05464
X017145Y05408
X016635Y05464
X02792Y05408
X02741Y05464
X038695Y05408
X038185Y05464
X04947Y05408
X04896Y05464
X060245Y05408
X059735Y05464
X07102Y05408
X07051Y05464
X081795Y05408
X081285Y05464
X09257Y05408
X09206Y05464
X09257Y04419
X09206Y04475
X081795Y04419
X081285Y04475
X07102Y04419
X07051Y04475
X060245Y04419
X059735Y04475
X04947Y04419
X04896Y04475
X038695Y04419
X038185Y04475
X02792Y04419
X02741Y04475
X017145Y04419
X016635Y04475
X00637Y04419
X00586Y04475
X00637Y0343
X00586Y03486
X017145Y0343
X016635Y03486
X02792Y0343
X02741Y03486
X038695Y0343
X038185Y03486
X04947Y0343
X04896Y03486
X060245Y0343
X059735Y03486
X07102Y0343
X07051Y03486
X081795Y0343
X081285Y03486
X09257Y0343
X09206Y03486
X09257Y02441
X09206Y02497
X081795Y02441
X081285Y02497
X07102Y02441
X07051Y02497
X060245Y02441
X059735Y02497
X04947Y02441
X04896Y02497
X038695Y02441
X038185Y02497
X02792Y02441
X02741Y02497
X017145Y02441
X016635Y02497
X00637Y02441
X00586Y02497
X00637Y01452
X00586Y01508
X017145Y01452
X016635Y01508
X02792Y01452
X02741Y01508
X038695Y01452
X038185Y01508
X04947Y01452
X04896Y01508
X060245Y01452
X059735Y01508
X07102Y01452
X07051Y01508
X081795Y01452
X081285Y01508
X09257Y01452
X09206Y01508
X09257Y00463
X09206Y00519
X081795Y00463
X081285Y00519
X07102Y00463
X07051Y00519
X060245Y00463
X059735Y00519
X04947Y00463
X04896Y00519
X038695Y00463
X038185Y00519
X02792Y00463
X02741Y00519
X017145Y00463
X016635Y00519
X00637Y00463
X00586Y00519
T04
X00111Y06267
X100305Y06267
X100305Y00111
X00111Y00111
M30
