*%FSLAX24Y24*%
%MOIN*%
%IPPOS*%
%ADD10R,0.03X0.03*%
%ADD11R,0.03X0.03*%
%ADD12R,0.0155X0.05*%
%ADD13C,0.05*%
%ADD14R,0.0394X0.0709*%
%AMD15*
21,1,0.0206,0.01,0.0,0.0,0.0*
21,1,0.0256,0.005,0.0,0.0,0.0*
1,1,0.005,0.0103,0.0025*
1,1,0.005,-0.0103,0.0025*
1,1,0.005,0.0103,-0.0025*
1,1,0.005,-0.0103,-0.0025*%
%ADD15D15*%
G04:---LTIenv:A015:17,0.0256,0.01,0.0025 *
%AMD16*
21,1,0.005,0.0256,0.0,0.0,0.0*
21,1,0.01,0.0206,0.0,0.0,0.0*
1,1,0.005,0.0025,0.0103*
1,1,0.005,-0.0025,0.0103*
1,1,0.005,0.0025,-0.0103*
1,1,0.005,-0.0025,-0.0103*%
%ADD16D16*%
G04:---LTIenv:A016:17,0.01,0.0256,0.0025 *
%AMD17*
4,1,8
,0.0049,0.0103
,0.0049,-0.0103
,0.0025,-0.0128
,-0.0025,-0.0128
,-0.0049,-0.0103
,-0.0049,0.0103
,-0.0025,0.0128
,0.0025,0.0128,0.0049,0.0103,0.0*%
%ADD17D17*%
%AMD18*
4,1,8
,-0.0103,0.0049
,0.0103,0.0049
,0.0128,0.0025
,0.0128,-0.0025
,0.0103,-0.0049
,-0.0103,-0.0049
,-0.0128,-0.0025
,-0.0128,0.0025,-0.0103,0.0049,0.0*%
%ADD18D18*%
%ADD19C,0.012*%
%ADD20C,0.02*%
%ADD21C,0.008*%
%ADD22C,0.01*%
%ADD23C,0.009*%
%ADD24C,0.15*%
%ADD25C,0.075*%
%ADD26C,0.15*%
%ADD27C,0.052*%
%ADD28R,0.062X0.04*%
%ADD29O,0.062X0.04*%
%ADD30C,0.026*%
%ADD31C,0.092*%
%ADD32C,0.06*%
%ADD33R,0.13X0.15*%
%AMD34*
1,1,0.1,0.0,0.0*
1,0,0.0875,0.0,0.0*
1,1,0.05,0.0,0.0*
1,0,0.0375,0.0,0.0*
20,1,0.0062,0.0,-0.0969,0.0,0.0969,0.0*
20,1,0.0062,-0.0969,0.0,0.0969,0.0,0.0*%
%ADD34D34*%
G04:---LTIenv:A034:6,0.2,6 *
%ADD35C,0.07*%
%ADD36R,0.038X0.038*%
%ADD37R,0.038X0.038*%
%ADD38R,0.0185X0.053*%
%ADD39C,0.1*%
%ADD40R,0.0474X0.0789*%
%AMD41*
21,1,0.0206,0.014,0.0,0.0,0.0*
21,1,0.0296,0.005,0.0,0.0,0.0*
1,1,0.009,0.0103,0.0025*
1,1,0.009,-0.0103,0.0025*
1,1,0.009,0.0103,-0.0025*
1,1,0.009,-0.0103,-0.0025*%
%ADD41D41*%
G04:---LTIenv:A041:17,0.0296,0.014,0.0045 *
%AMD42*
21,1,0.005,0.0296,0.0,0.0,0.0*
21,1,0.014,0.0206,0.0,0.0,0.0*
1,1,0.009,0.0025,0.0103*
1,1,0.009,-0.0025,0.0103*
1,1,0.009,0.0025,-0.0103*
1,1,0.009,-0.0025,-0.0103*%
%ADD42D42*%
G04:---LTIenv:A042:17,0.014,0.0296,0.0045 *
%AMD43*
4,1,8
,0.0069,0.0113
,0.0069,-0.0113
,0.0035,-0.0148
,-0.0035,-0.0148
,-0.0069,-0.0113
,-0.0069,0.0113
,-0.0035,0.0148
,0.0035,0.0148,0.0069,0.0113,0.0*%
%ADD43D43*%
%AMD44*
4,1,8
,-0.0113,0.0069
,0.0113,0.0069
,0.0148,0.0035
,0.0148,-0.0035
,0.0113,-0.0069
,-0.0113,-0.0069
,-0.0148,-0.0035
,-0.0148,0.0035,-0.0113,0.0069,0.0*%
%ADD44D44*%
%ADD45R,0.066X0.044*%
%ADD46O,0.066X0.044*%
%ADD48C,0.1*%
%ADD49R,0.138X0.158*%
%AMD55*
4,1,8
,0.0049,0.0103
,0.0049,-0.0103
,0.0025,-0.0128
,-0.0025,-0.0128
,-0.0049,-0.0103
,-0.0049,0.0103
,-0.0025,0.0128
,0.0025,0.0128,0.0049,0.0103,0.0*%
%ADD55D55*%
%AMD56*
4,1,8
,-0.0103,0.0049
,0.0103,0.0049
,0.0128,0.0025
,0.0128,-0.0025
,0.0103,-0.0049
,-0.0103,-0.0049
,-0.0128,-0.0025
,-0.0128,0.0025,-0.0103,0.0049,0.0*%
%ADD56D56*%
%ADD200C,0.002*%
%ADD901C,0.012*%
G04:---LTIenv:A901:15,0.012,1 *
%ADD902C,0.028*%
G04:---LTIenv:A902:15,0.028,2 *
%ADD903C,0.033*%
G04:---LTIenv:A903:15,0.033,3 *
%ADD904C,0.12*%
G04:---LTIenv:A904:15,0.12,4 *

%LPD*%
D21*X126Y-13839D2*X724Y-14382D1*X126D2*X724Y-13839D1*X126Y-14115D2*X724D1*X425Y-14382D2*Y-13839D1*X1858Y-13957D2*X2252D1*X1858Y-14532D2*Y-13532D1*X2402*X2693Y-13689D2*Y-14382D1*X2843Y-14532*X3142*X3291Y-14382*Y-13689*X3142Y-13532*X2843*X2693Y-13689*X4110Y-14532D2*X3567D1*Y-13532*X4961Y-14532D2*X4417D1*Y-13532*X5244Y-13689D2*Y-14382D1*X5394Y-14532*X5693*X5843Y-14382*Y-13689*X5693Y-13532*X5394*X5244Y-13689*X6685Y-13532D2*X6559Y-14532D1*X6409Y-13934*X6260Y-14532*X6110Y-13532*X8362Y-14532D2*X7819D1*Y-13532*X8646Y-13957D2*X9094D1*X9244Y-14115*Y-14382*X9094Y-14532*X8795*X8646Y-14335*Y-13689*X8795Y-13532*X9094*X9244Y-13689*X9488Y-14532D2*X10087Y-13532D1*X9638D2*X9488Y-13689D1*Y-14382*X9638Y-14532*X9937*X10087Y-14382*Y-13689*X9937Y-13532*X9638*X10504Y-14532D2*X10654D1*Y-14382*X10504*Y-14532*X11480Y-14083D2*X11756D1*Y-14532*X11354*X11205Y-14382*Y-13689*X11354Y-13532*X11756*X12039Y-13957D2*X12488D1*X12039Y-14532D2*X12488D1*X12638Y-14382*Y-14083*X12488Y-13957*X12638Y-13839*Y-13689*X12488Y-13532*X12039*Y-14532*X13173Y-13989D2*X13472Y-14532D1*X12929Y-13989D2*X13323D1*X13472Y-13839*Y-13689*X13323Y-13532*X12929*Y-14532*X15024D2*X14898Y-14382D1*Y-13689*X15024Y-13532*X15449Y-13689D2*Y-14382D1*X15598Y-14532*X15898*X16047Y-14382*Y-13689*X15898Y-13532*X15598*X15449Y-13689*X16906Y-13532D2*Y-14382D1*X16756Y-14532*X16457*X16307Y-14382*Y-13532*X17465Y-14532D2*Y-13532D1*X17165D2*X17764D1*X18567Y-14532D2*X18024D1*Y-13532*X18843Y-14532D2*X19142D1*X18992D2*Y-13532D1*X18843D2*X19142D1*X20283D2*Y-14532D1*X19709Y-13532*Y-14532*X20567Y-13957D2*X21118D1*Y-13532D2*X20567D1*Y-14532*X21118*X21543D2*X21693Y-14382D1*Y-13689*X21543Y-13532*X23118Y-13957D2*X23512D1*X23118Y-14532D2*Y-13532D1*X23661*X23953Y-13689D2*Y-14382D1*X24102Y-14532*X24402*X24551Y-14382*Y-13689*X24402Y-13532*X24102*X23953Y-13689*X25079Y-13989D2*X25378Y-14532D1*X24835Y-13989D2*X25228D1*X25378Y-13839*Y-13689*X25228Y-13532*X24835*Y-14532*X26520Y-13957D2*X26945D1*X27094Y-13808*Y-13689*X26945Y-13532*X26520*Y-14532*X27354Y-14083D2*X27929D1*Y-14532D2*Y-13689D1*X27780Y-13532*X27504*X27354Y-13689*Y-14532*X28787Y-13532D2*Y-14532D1*X28213Y-13532*Y-14532*X29071Y-13957D2*X29622D1*Y-13532D2*X29071D1*Y-14532*X29622*X30472D2*X29929D1*Y-13532*X126Y-7461D2*X724Y-8004D1*X126D2*X724Y-7461D1*X126Y-7737D2*X724D1*X425Y-8004D2*Y-7461D1*X2425Y-7154D2*Y-8154D1*X1850Y-7154*Y-8154*X2709Y-7579D2*X3260D1*Y-7154D2*X2709D1*Y-8154*X3260*X3559Y-7579D2*X4110D1*Y-7154D2*X3559D1*Y-8154*X4110*X4819D2*X4969Y-8004D1*Y-7311*X4819Y-7154*X4394*Y-8154*X4819*X6701Y-7154D2*Y-8004D1*X6551Y-8154*X6252*X6102Y-8004*Y-7154*X7512Y-8154D2*X6969D1*Y-7154*X9213Y-8154D2*X8669D1*Y-7154*X9496Y-7311D2*Y-8004D1*X9646Y-8154*X9945*X10094Y-8004*Y-7311*X9945Y-7154*X9646*X9496Y-7311*X10630Y-7705D2*X10906D1*Y-8154*X10504*X10354Y-8004*Y-7311*X10504Y-7154*X10906*X11197Y-7311D2*Y-8004D1*X11346Y-8154*X11646*X11795Y-8004*Y-7311*X11646Y-7154*X11346*X11197Y-7311*X13457Y-8154D2*X12858Y-7461D1*Y-7311*X13024Y-7154*X13181Y-7311*Y-7461*X12858Y-7705*Y-8004*X13008Y-8154*X13157*X13307Y-8036*Y-7886*X13457Y-7737*X15024Y-8154D2*X15173Y-8004D1*Y-7311*X15024Y-7154*X14598*Y-8154*X15024*X15449Y-7705D2*X16024D1*Y-8154D2*Y-7311D1*X15874Y-7154*X15598*X15449Y-7311*Y-8154*X16614D2*Y-7154D1*X16315D2*X16913D1*X17165Y-7579D2*X17717D1*Y-7154D2*X17165D1*Y-8154*X17717*X19433D2*X18984D1*X18835Y-8004*Y-7311*X18984Y-7154*X19433*X19701Y-7311D2*Y-8004D1*X19850Y-8154*X20150*X20299Y-8004*Y-7311*X20150Y-7154*X19850*X19701Y-7311*X20976Y-8154D2*X21126Y-8004D1*Y-7311*X20976Y-7154*X20551*Y-8154*X20976*X21417Y-7579D2*X21969D1*Y-7154D2*X21417D1*Y-8154*X21969*X126Y-8737D2*X724Y-9280D1*X126D2*X724Y-8737D1*X126Y-9012D2*X724D1*X425Y-9280D2*Y-8737D1*X2402Y-8430D2*X1850D1*Y-8855*X2252*X2402Y-9012*Y-9280*X2252Y-9430*X2000*X1850Y-9280*X3283Y-9130D2*X2709D1*X3134Y-8430*Y-9430*X3559Y-9012D2*X4110D1*X5000Y-8430D2*Y-9280D1*X4850Y-9430*X4551*X4402Y-9280*Y-8430*X5260Y-8855D2*X5685D1*X5835Y-8705*Y-8587*X5685Y-8430*X5260*Y-9430*X6961Y-8855D2*X7386D1*X7535Y-8705*Y-8587*X7386Y-8430*X6961*Y-9430*X7811Y-8855D2*X8362D1*Y-8430D2*X7811D1*Y-9430*X8362*X8921Y-8886D2*X9220Y-9430D1*X8677Y-8886D2*X9071D1*X9220Y-8737*Y-8587*X9071Y-8430*X8677*Y-9430*X10362Y-8855D2*X10787D1*X10937Y-8705*Y-8587*X10787Y-8430*X10362*Y-9430*X11197Y-8981D2*X11772D1*Y-9430D2*Y-8587D1*X11622Y-8430*X11346*X11197Y-8587*Y-9430*X12630Y-8430D2*Y-9430D1*X12055Y-8430*Y-9430*X12913Y-8855D2*X13465D1*Y-8430D2*X12913D1*Y-9430*X13465*X14315D2*X13772D1*Y-8430*X16039D2*X15913Y-9430D1*X15764Y-8831*X15614Y-9430*X15465Y-8430*X16291Y-9430D2*X16591D1*X16441D2*Y-8430D1*X16291D2*X16591D1*X17465Y-9430D2*Y-8430D1*X17165D2*X17764D1*X18000Y-8855D2*X18575D1*Y-9430D2*Y-8430D1*X18000Y-9430D2*Y-8430D1*X19724Y-9430D2*X20126D1*X20276Y-9280*Y-8981*X20126Y-8831*X19874*X19724Y-8682*Y-8587*X19874Y-8430*X20276*X21134Y-9430D2*X20685D1*X20535Y-9280*Y-8587*X20685Y-8430*X21134*X21402Y-8587D2*Y-9280D1*X21551Y-9430*X21850*X22000Y-9280*Y-8587*X21850Y-8430*X21551*X21402Y-8587*X22528Y-8886D2*X22827Y-9430D1*X22283Y-8886D2*X22677D1*X22827Y-8737*Y-8587*X22677Y-8430*X22283*Y-9430*X23094D2*X23394D1*X23244D2*Y-8430D1*X23094D2*X23394D1*X24535D2*Y-9430D1*X23961Y-8430*Y-9430*X25087Y-8981D2*X25362D1*Y-9430*X24961*X24811Y-9280*Y-8587*X24961Y-8430*X25362*X126Y-10012D2*X724Y-10556D1*X126D2*X724Y-10012D1*X126Y-10288D2*X724D1*X425Y-10556D2*Y-10012D1*X1835Y-10705D2*X2433Y-9705D1*X1984D2*X1835Y-9863D1*Y-10556*X1984Y-10705*X2283*X2433Y-10556*Y-9863*X2283Y-9705*X1984*X2850Y-10705D2*X3000D1*Y-10556*X2850*Y-10705*X3535D2*X4134Y-9705D1*X3685D2*X3535Y-9863D1*Y-10556*X3685Y-10705*X3984*X4134Y-10556*Y-9863*X3984Y-9705*X3685*X4362Y-10556D2*X4512Y-10705D1*X4819*X4969Y-10556*Y-10311*X4819Y-10162*X4969Y-10012*Y-9863*X4819Y-9705*X4512*X4362Y-9863*X5378Y-10705D2*X5677D1*X5528D2*Y-9705D1*X5378Y-9863*X6535Y-9957D2*Y-9705D1*X6236Y-9957D2*Y-9705D1*X8110Y-10705D2*Y-9705D1*X7811D2*X8409D1*X8646Y-10130D2*X9220D1*Y-10705D2*Y-9705D1*X8646Y-10705D2*Y-9705D1*X9488Y-10705D2*X9787D1*X9638D2*Y-9705D1*X9488D2*X9787D1*X10929Y-10705D2*X10480D1*X10331Y-10556*Y-9863*X10480Y-9705*X10929*X11220Y-10705D2*Y-9705D1*X11772Y-10705D2*X11220Y-10130D1*X11772Y-9705*X12630D2*Y-10705D1*X12055Y-9705*Y-10705*X12913Y-10130D2*X13465D1*Y-9705D2*X12913D1*Y-10705*X13465*X13772D2*X14173D1*X14323Y-10556*Y-10256*X14173Y-10107*X13921*X13772Y-9957*Y-9863*X13921Y-9705*X14323*X14622Y-10705D2*X15024D1*X15173Y-10556*Y-10256*X15024Y-10107*X14772*X14622Y-9957*Y-9863*X14772Y-9705*X15173*X126Y-11288D2*X724Y-11831D1*X126D2*X724Y-11288D1*X126Y-11563D2*X724D1*X425Y-11831D2*Y-11288D1*X1858Y-11406D2*X2283D1*X2433Y-11256*Y-11138*X2283Y-10981*X1858*Y-11981*X2693Y-11532D2*X3268D1*Y-11981D2*Y-11138D1*X3118Y-10981*X2843*X2693Y-11138*Y-11981*X4126Y-10981D2*Y-11981D1*X3551Y-10981*Y-11981*X4409Y-11406D2*X4961D1*Y-10981D2*X4409D1*Y-11981*X4961*X5811D2*X5268D1*Y-10981*X7370Y-11981D2*X7520Y-11831D1*Y-11138*X7370Y-10981*X6945*Y-11981*X7370*X8071Y-11437D2*X8370Y-11981D1*X7827Y-11437D2*X8220D1*X8370Y-11288*Y-11138*X8220Y-10981*X7827*Y-11981*X9236Y-10981D2*X9110Y-11981D1*X8961Y-11382*X8811Y-11981*X8661Y-10981*X10339Y-11981D2*X10638D1*X10488D2*Y-10981D1*X10339D2*X10638D1*X11220Y-11981D2*X11622D1*X11772Y-11831*Y-11532*X11622Y-11382*X11370*X11220Y-11233*Y-11138*X11370Y-10981*X11772*X13480D2*Y-11981D1*X12906Y-10981*Y-11981*X13748Y-11138D2*Y-11831D1*X13898Y-11981*X14197*X14346Y-11831*Y-11138*X14197Y-10981*X13898*X13748Y-11138*X14913Y-11981D2*Y-10981D1*X14614D2*X15213D1*X16323Y-11981D2*X16724D1*X16874Y-11831*Y-11532*X16724Y-11382*X16472*X16323Y-11233*Y-11138*X16472Y-10981*X16874*X17732Y-11981D2*X17283D1*X17134Y-11831*Y-11138*X17283Y-10981*X17732*X18000Y-11532D2*X18575D1*Y-11981D2*Y-11138D1*X18425Y-10981*X18150*X18000Y-11138*Y-11981*X19417D2*X18874D1*Y-10981*X19717Y-11406D2*X20268D1*Y-10981D2*X19717D1*Y-11981*X20268*X20976D2*X21126Y-11831D1*Y-11138*X20976Y-10981*X20551*Y-11981*X20976*X21701Y-11847D2*Y-11737D1*X21819*X21543Y-11981*X1835Y-13256D2*X2134D1*X1984D2*Y-12256D1*X1835D2*X2134D1*X3008Y-13256D2*Y-12256D1*X2709D2*X3307D1*X4386Y-13256D2*X4685D1*X4535D2*Y-12256D1*X4386D2*X4685D1*X5268Y-13256D2*X5669D1*X5819Y-13107*Y-12808*X5669Y-12658*X5417*X5268Y-12508*Y-12414*X5417Y-12256*X5819*X6961Y-12682D2*X7354D1*X6961Y-13256D2*Y-12256D1*X7504*X7795Y-12414D2*Y-13107D1*X7945Y-13256*X8244*X8394Y-13107*Y-12414*X8244Y-12256*X7945*X7795Y-12414*X8921Y-12713D2*X9220Y-13256D1*X8677Y-12713D2*X9071D1*X9220Y-12563*Y-12414*X9071Y-12256*X8677*Y-13256*X10622Y-12713D2*X10921Y-13256D1*X10378Y-12713D2*X10772D1*X10921Y-12563*Y-12414*X10772Y-12256*X10378*Y-13256*X11213Y-12682D2*X11764D1*Y-12256D2*X11213D1*Y-13256*X11764*X12063Y-12682D2*X12457D1*X12063Y-13256D2*Y-12256D1*X12606*X12913Y-12682D2*X13465D1*Y-12256D2*X12913D1*Y-13256*X13465*X14024Y-12713D2*X14323Y-13256D1*X13780Y-12713D2*X14173D1*X14323Y-12563*Y-12414*X14173Y-12256*X13780*Y-13256*X14614Y-12682D2*X15165D1*Y-12256D2*X14614D1*Y-13256*X15165*X16031Y-12256D2*Y-13256D1*X15457Y-12256*Y-13256*X16882D2*X16433D1*X16283Y-13107*Y-12414*X16433Y-12256*X16882*X17165Y-12682D2*X17717D1*Y-12256D2*X17165D1*Y-13256*X17717*X18850Y-12414D2*Y-13107D1*X19000Y-13256*X19299*X19449Y-13107*Y-12414*X19299Y-12256*X19000*X18850Y-12414*X20283Y-12256D2*Y-13256D1*X19709Y-12256*Y-13256*X21118D2*X20575D1*Y-12256*X21433D2*X21709Y-12658D1*X21984Y-12256*X21709Y-13256D2*Y-12658D1*X9811Y-5602D2*Y-4602D1*X9511D2*X10110D1*X10346Y-4759D2*Y-5452D1*X10496Y-5602*X10795*X10945Y-5452*Y-4759*X10795Y-4602*X10496*X10346Y-4759*X11212Y-5027D2*X11637D1*X11787Y-4878*Y-4759*X11637Y-4602*X11212*Y-5602*X12921D2*X13323D1*X13472Y-5452*Y-5153*X13323Y-5004*X13071*X12921Y-4854*Y-4759*X13071Y-4602*X13472*X13740Y-5602D2*X14039D1*X13889D2*Y-4602D1*X13740D2*X14039D1*X15165Y-5602D2*X14622D1*Y-4602*X15472Y-5602D2*Y-4602D1*X16023Y-5602D2*X15472Y-5027D1*X16023Y-4602*X8380Y58460D2*Y59360D1*X6780*Y58460*X8380*X10470Y58570D2*X9470D1*Y59870*X10470*Y58570*X5260Y59880D2*Y57580D1*X6260*Y59880*X5260*X19155Y58460D2*Y59360D1*X17555*Y58460*X19155*X21245Y58570D2*X20245D1*Y59870*X21245*Y58570*X16035Y59880D2*Y57580D1*X17035*Y59880*X16035*X29930Y58460D2*Y59360D1*X28330*Y58460*X29930*X32020Y58570D2*X31020D1*Y59870*X32020*Y58570*X26810Y59880D2*Y57580D1*X27810*Y59880*X26810*X40705Y58460D2*Y59360D1*X39105*Y58460*X40705*X42795Y58570D2*X41795D1*Y59870*X42795*Y58570*X37585Y59880D2*Y57580D1*X38585*Y59880*X37585*X51480Y58460D2*Y59360D1*X49880*Y58460*X51480*X53570Y58570D2*X52570D1*Y59870*X53570*Y58570*X48360Y59880D2*Y57580D1*X49360*Y59880*X48360*X62255Y58460D2*Y59360D1*X60655*Y58460*X62255*X64345Y58570D2*X63345D1*Y59870*X64345*Y58570*X59135Y59880D2*Y57580D1*X60135*Y59880*X59135*X73030Y58460D2*Y59360D1*X71430*Y58460*X73030*X75120Y58570D2*X74120D1*Y59870*X75120*Y58570*X69910Y59880D2*Y57580D1*X70910*Y59880*X69910*X83805Y58460D2*Y59360D1*X82205*Y58460*X83805*X85895Y58570D2*X84895D1*Y59870*X85895*Y58570*X80685Y59880D2*Y57580D1*X81685*Y59880*X80685*X94580Y58460D2*Y59360D1*X92980*Y58460*X94580*X96670Y58570D2*X95670D1*Y59870*X96670*Y58570*X91460Y59880D2*Y57580D1*X92460*Y59880*X91460*X94580Y48570D2*Y49470D1*X92980*Y48570*X94580*X96670Y48680D2*X95670D1*Y49980*X96670*Y48680*X91460Y49990D2*Y47690D1*X92460*Y49990*X91460*X83805Y48570D2*Y49470D1*X82205*Y48570*X83805*X85895Y48680D2*X84895D1*Y49980*X85895*Y48680*X80685Y49990D2*Y47690D1*X81685*Y49990*X80685*X73030Y48570D2*Y49470D1*X71430*Y48570*X73030*X75120Y48680D2*X74120D1*Y49980*X75120*Y48680*X69910Y49990D2*Y47690D1*X70910*Y49990*X69910*X62255Y48570D2*Y49470D1*X60655*Y48570*X62255*X64345Y48680D2*X63345D1*Y49980*X64345*Y48680*X59135Y49990D2*Y47690D1*X60135*Y49990*X59135*X51480Y48570D2*Y49470D1*X49880*Y48570*X51480*X53570Y48680D2*X52570D1*Y49980*X53570*Y48680*X48360Y49990D2*Y47690D1*X49360*Y49990*X48360*X40705Y48570D2*Y49470D1*X39105*Y48570*X40705*X42795Y48680D2*X41795D1*Y49980*X42795*Y48680*X37585Y49990D2*Y47690D1*X38585*Y49990*X37585*X29930Y48570D2*Y49470D1*X28330*Y48570*X29930*X32020Y48680D2*X31020D1*Y49980*X32020*Y48680*X26810Y49990D2*Y47690D1*X27810*Y49990*X26810*X19155Y48570D2*Y49470D1*X17555*Y48570*X19155*X21245Y48680D2*X20245D1*Y49980*X21245*Y48680*X16035Y49990D2*Y47690D1*X17035*Y49990*X16035*X8380Y48570D2*Y49470D1*X6780*Y48570*X8380*X10470Y48680D2*X9470D1*Y49980*X10470*Y48680*X5260Y49990D2*Y47690D1*X6260*Y49990*X5260*X8380Y38680D2*Y39580D1*X6780*Y38680*X8380*X10470Y38790D2*X9470D1*Y40090*X10470*Y38790*X5260Y40100D2*Y37800D1*X6260*Y40100*X5260*X19155Y38680D2*Y39580D1*X17555*Y38680*X19155*X21245Y38790D2*X20245D1*Y40090*X21245*Y38790*X16035Y40100D2*Y37800D1*X17035*Y40100*X16035*X29930Y38680D2*Y39580D1*X28330*Y38680*X29930*X32020Y38790D2*X31020D1*Y40090*X32020*Y38790*X26810Y40100D2*Y37800D1*X27810*Y40100*X26810*X40705Y38680D2*Y39580D1*X39105*Y38680*X40705*X42795Y38790D2*X41795D1*Y40090*X42795*Y38790*X37585Y40100D2*Y37800D1*X38585*Y40100*X37585*X51480Y38680D2*Y39580D1*X49880*Y38680*X51480*X53570Y38790D2*X52570D1*Y40090*X53570*Y38790*X48360Y40100D2*Y37800D1*X49360*Y40100*X48360*X62255Y38680D2*Y39580D1*X60655*Y38680*X62255*X64345Y38790D2*X63345D1*Y40090*X64345*Y38790*X59135Y40100D2*Y37800D1*X60135*Y40100*X59135*X73030Y38680D2*Y39580D1*X71430*Y38680*X73030*X75120Y38790D2*X74120D1*Y40090*X75120*Y38790*X69910Y40100D2*Y37800D1*X70910*Y40100*X69910*X83805Y38680D2*Y39580D1*X82205*Y38680*X83805*X85895Y38790D2*X84895D1*Y40090*X85895*Y38790*X80685Y40100D2*Y37800D1*X81685*Y40100*X80685*X94580Y38680D2*Y39580D1*X92980*Y38680*X94580*X96670Y38790D2*X95670D1*Y40090*X96670*Y38790*X91460Y40100D2*Y37800D1*X92460*Y40100*X91460*X94580Y28790D2*Y29690D1*X92980*Y28790*X94580*X96670Y28900D2*X95670D1*Y30200*X96670*Y28900*X91460Y30210D2*Y27910D1*X92460*Y30210*X91460*X83805Y28790D2*Y29690D1*X82205*Y28790*X83805*X85895Y28900D2*X84895D1*Y30200*X85895*Y28900*X80685Y30210D2*Y27910D1*X81685*Y30210*X80685*X73030Y28790D2*Y29690D1*X71430*Y28790*X73030*X75120Y28900D2*X74120D1*Y30200*X75120*Y28900*X69910Y30210D2*Y27910D1*X70910*Y30210*X69910*X62255Y28790D2*Y29690D1*X60655*Y28790*X62255*X64345Y28900D2*X63345D1*Y30200*X64345*Y28900*X59135Y30210D2*Y27910D1*X60135*Y30210*X59135*X51480Y28790D2*Y29690D1*X49880*Y28790*X51480*X53570Y28900D2*X52570D1*Y30200*X53570*Y28900*X48360Y30210D2*Y27910D1*X49360*Y30210*X48360*X40705Y28790D2*Y29690D1*X39105*Y28790*X40705*X42795Y28900D2*X41795D1*Y30200*X42795*Y28900*X37585Y30210D2*Y27910D1*X38585*Y30210*X37585*X29930Y28790D2*Y29690D1*X28330*Y28790*X29930*X32020Y28900D2*X31020D1*Y30200*X32020*Y28900*X26810Y30210D2*Y27910D1*X27810*Y30210*X26810*X19155Y28790D2*Y29690D1*X17555*Y28790*X19155*X21245Y28900D2*X20245D1*Y30200*X21245*Y28900*X16035Y30210D2*Y27910D1*X17035*Y30210*X16035*X8380Y28790D2*Y29690D1*X6780*Y28790*X8380*X10470Y28900D2*X9470D1*Y30200*X10470*Y28900*X5260Y30210D2*Y27910D1*X6260*Y30210*X5260*X8380Y18900D2*Y19800D1*X6780*Y18900*X8380*X10470Y19010D2*X9470D1*Y20310*X10470*Y19010*X5260Y20320D2*Y18020D1*X6260*Y20320*X5260*X19155Y18900D2*Y19800D1*X17555*Y18900*X19155*X21245Y19010D2*X20245D1*Y20310*X21245*Y19010*X16035Y20320D2*Y18020D1*X17035*Y20320*X16035*X29930Y18900D2*Y19800D1*X28330*Y18900*X29930*X32020Y19010D2*X31020D1*Y20310*X32020*Y19010*X26810Y20320D2*Y18020D1*X27810*Y20320*X26810*X40705Y18900D2*Y19800D1*X39105*Y18900*X40705*X42795Y19010D2*X41795D1*Y20310*X42795*Y19010*X37585Y20320D2*Y18020D1*X38585*Y20320*X37585*X51480Y18900D2*Y19800D1*X49880*Y18900*X51480*X53570Y19010D2*X52570D1*Y20310*X53570*Y19010*X48360Y20320D2*Y18020D1*X49360*Y20320*X48360*X62255Y18900D2*Y19800D1*X60655*Y18900*X62255*X64345Y19010D2*X63345D1*Y20310*X64345*Y19010*X59135Y20320D2*Y18020D1*X60135*Y20320*X59135*X73030Y18900D2*Y19800D1*X71430*Y18900*X73030*X75120Y19010D2*X74120D1*Y20310*X75120*Y19010*X69910Y20320D2*Y18020D1*X70910*Y20320*X69910*X83805Y18900D2*Y19800D1*X82205*Y18900*X83805*X85895Y19010D2*X84895D1*Y20310*X85895*Y19010*X80685Y20320D2*Y18020D1*X81685*Y20320*X80685*X94580Y18900D2*Y19800D1*X92980*Y18900*X94580*X96670Y19010D2*X95670D1*Y20310*X96670*Y19010*X91460Y20320D2*Y18020D1*X92460*Y20320*X91460*X94580Y9010D2*Y9910D1*X92980*Y9010*X94580*X96670Y9120D2*X95670D1*Y10420*X96670*Y9120*X91460Y10430D2*Y8130D1*X92460*Y10430*X91460*X83805Y9010D2*Y9910D1*X82205*Y9010*X83805*X85895Y9120D2*X84895D1*Y10420*X85895*Y9120*X80685Y10430D2*Y8130D1*X81685*Y10430*X80685*X73030Y9010D2*Y9910D1*X71430*Y9010*X73030*X75120Y9120D2*X74120D1*Y10420*X75120*Y9120*X69910Y10430D2*Y8130D1*X70910*Y10430*X69910*X62255Y9010D2*Y9910D1*X60655*Y9010*X62255*X64345Y9120D2*X63345D1*Y10420*X64345*Y9120*X59135Y10430D2*Y8130D1*X60135*Y10430*X59135*X51480Y9010D2*Y9910D1*X49880*Y9010*X51480*X53570Y9120D2*X52570D1*Y10420*X53570*Y9120*X48360Y10430D2*Y8130D1*X49360*Y10430*X48360*X40705Y9010D2*Y9910D1*X39105*Y9010*X40705*X42795Y9120D2*X41795D1*Y10420*X42795*Y9120*X37585Y10430D2*Y8130D1*X38585*Y10430*X37585*X29930Y9010D2*Y9910D1*X28330*Y9010*X29930*X32020Y9120D2*X31020D1*Y10420*X32020*Y9120*X26810Y10430D2*Y8130D1*X27810*Y10430*X26810*X19155Y9010D2*Y9910D1*X17555*Y9010*X19155*X21245Y9120D2*X20245D1*Y10420*X21245*Y9120*X16035Y10430D2*Y8130D1*X17035*Y10430*X16035*X8380Y9010D2*Y9910D1*X6780*Y9010*X8380*X10470Y9120D2*X9470D1*Y10420*X10470*Y9120*X5260Y10430D2*Y8130D1*X6260*Y10430*X5260*D22*X6761Y54547D2*X6776D1*X6791Y54548*X6806Y54549*X6821Y54551*X6836Y54554*X6851Y54556*X6866Y54560*X6880Y54564*X6895Y54568*X6909Y54573*X6923Y54579*X6937Y54584*X6951Y54591*X6964Y54598*X6977Y54605*X6990Y54613*X7003Y54621*X7016Y54630*X7028Y54639*X7039Y54648*X7051Y54658*X7062Y54669*X7072Y54679*X7083Y54690*X7093Y54702*X7102Y54713*X7111Y54725*X7120Y54738*X7128Y54751*X7136Y54764*X7143Y54777*X7150Y54790*X7157Y54804*X7162Y54818*X7168Y54832*X7173Y54846*X7177Y54861*X7181Y54875*X7185Y54890*X7187Y54905*X7190Y54920*X7192Y54935*X7193Y54950*X7194Y54965*Y54980*Y54995*X7193Y55010*X7192Y55025*X7190Y55040*X7187Y55055*X7185Y55070*X7181Y55085*X7177Y55099*X7173Y55114*X7168Y55128*X7162Y55142*X7157Y55156*X7150Y55170*X7143Y55183*X7136Y55197*X7128Y55209*X7120Y55222*X7111Y55235*X7102Y55247*X7093Y55258*X7083Y55270*X7072Y55281*X7062Y55291*X7051Y55302*X7039Y55312*X7028Y55321*X7016Y55330*X7003Y55339*X6990Y55347*X6977Y55355*X6964Y55362*X6951Y55369*X6937Y55376*X6923Y55381*X6909Y55387*X6895Y55392*X6880Y55396*X6866Y55400*X6851Y55404*X6836Y55406*X6821Y55409*X6806Y55411*X6791Y55412*X6776Y55413*X6761*X7660Y59690D2*Y59390D1*X6460*Y59990*X7660*Y59690*X7730D2*Y59990D1*X8930*Y59390*X7730*Y59690*X5870Y56190D2*X6170D1*Y57390*X5570*Y56190*X5870*Y56180D2*X5570D1*Y54980*X6170*Y56180*X5870*X9410Y54580D2*X9710D1*Y55780*X9110*Y54580D2*X9410D1*X8500Y54210D2*Y53910D1*X9700*Y54510*X8500*Y54210*X8810Y54580D2*X9110D1*Y55780*X8510*Y54580*X8810*X10020Y56980D2*X10320D1*Y58180*X9720*Y56980*X10020*X9720D2*Y55780D1*X10320*Y56980*X9710Y55780D2*X10010D1*X9710Y54580D2*X10310D1*Y55780*X10010*X9380Y57430D2*X9080D1*Y58630*X9680*Y57430*X9380*X2870Y54330D2*X2570D1*Y53130*X3170*X2870Y54330D2*X3170D1*X3470Y53130D2*X3770D1*Y54330*X3170*Y53130*X3470*X6761Y53380D2*Y54547D1*Y55413D2*Y56580D1*X8036*X6761Y53380D2*X8036D1*Y56580*X6480Y56670D2*Y58170D1*X6780Y58470*X8280*X6480Y56670D2*X8280D1*Y58470*X5080Y57860D2*Y58027D1*Y57943*X4580*X4664Y57860*X17536Y54547D2*X17551D1*X17566Y54548*X17581Y54549*X17596Y54551*X17611Y54554*X17626Y54556*X17641Y54560*X17655Y54564*X17670Y54568*X17684Y54573*X17698Y54579*X17712Y54584*X17726Y54591*X17739Y54598*X17752Y54605*X17765Y54613*X17778Y54621*X17791Y54630*X17803Y54639*X17814Y54648*X17826Y54658*X17837Y54669*X17847Y54679*X17858Y54690*X17868Y54702*X17877Y54713*X17886Y54725*X17895Y54738*X17903Y54751*X17911Y54764*X17918Y54777*X17925Y54790*X17932Y54804*X17937Y54818*X17943Y54832*X17948Y54846*X17952Y54861*X17956Y54875*X17960Y54890*X17962Y54905*X17965Y54920*X17967Y54935*X17968Y54950*X17969Y54965*Y54980*Y54995*X17968Y55010*X17967Y55025*X17965Y55040*X17962Y55055*X17960Y55070*X17956Y55085*X17952Y55099*X17948Y55114*X17943Y55128*X17937Y55142*X17932Y55156*X17925Y55170*X17918Y55183*X17911Y55197*X17903Y55209*X17895Y55222*X17886Y55235*X17877Y55247*X17868Y55258*X17858Y55270*X17847Y55281*X17837Y55291*X17826Y55302*X17814Y55312*X17803Y55321*X17791Y55330*X17778Y55339*X17765Y55347*X17752Y55355*X17739Y55362*X17726Y55369*X17712Y55376*X17698Y55381*X17684Y55387*X17670Y55392*X17655Y55396*X17641Y55400*X17626Y55404*X17611Y55406*X17596Y55409*X17581Y55411*X17566Y55412*X17551Y55413*X17536*X18435Y59690D2*Y59390D1*X17235*Y59990*X18435*Y59690*X18505D2*Y59990D1*X19705*Y59390*X18505*Y59690*X16645Y56190D2*X16945D1*Y57390*X16345*Y56190*X16645*Y56180D2*X16345D1*Y54980*X16945*Y56180*X16645*X20185Y54580D2*X20485D1*Y55780*X19885*Y54580D2*X20185D1*X19275Y54210D2*Y53910D1*X20475*Y54510*X19275*Y54210*X19585Y54580D2*X19885D1*Y55780*X19285*Y54580*X19585*X20795Y56980D2*X21095D1*Y58180*X20495*Y56980*X20795*X20495D2*Y55780D1*X21095*Y56980*X20485Y55780D2*X20785D1*X20485Y54580D2*X21085D1*Y55780*X20785*X20155Y57430D2*X19855D1*Y58630*X20455*Y57430*X20155*X13645Y54330D2*X13345D1*Y53130*X13945*X13645Y54330D2*X13945D1*X14245Y53130D2*X14545D1*Y54330*X13945*Y53130*X14245*X17536Y53380D2*Y54547D1*Y55413D2*Y56580D1*X18811*X17536Y53380D2*X18811D1*Y56580*X17255Y56670D2*Y58170D1*X17555Y58470*X19055*X17255Y56670D2*X19055D1*Y58470*X15855Y57860D2*Y58027D1*Y57943*X15355*X15439Y57860*X28311Y54547D2*X28326D1*X28341Y54548*X28356Y54549*X28371Y54551*X28386Y54554*X28401Y54556*X28416Y54560*X28430Y54564*X28445Y54568*X28459Y54573*X28473Y54579*X28487Y54584*X28501Y54591*X28514Y54598*X28527Y54605*X28540Y54613*X28553Y54621*X28566Y54630*X28578Y54639*X28589Y54648*X28601Y54658*X28612Y54669*X28622Y54679*X28633Y54690*X28643Y54702*X28652Y54713*X28661Y54725*X28670Y54738*X28678Y54751*X28686Y54764*X28693Y54777*X28700Y54790*X28707Y54804*X28712Y54818*X28718Y54832*X28723Y54846*X28727Y54861*X28731Y54875*X28735Y54890*X28737Y54905*X28740Y54920*X28742Y54935*X28743Y54950*X28744Y54965*Y54980*Y54995*X28743Y55010*X28742Y55025*X28740Y55040*X28737Y55055*X28735Y55070*X28731Y55085*X28727Y55099*X28723Y55114*X28718Y55128*X28712Y55142*X28707Y55156*X28700Y55170*X28693Y55183*X28686Y55197*X28678Y55209*X28670Y55222*X28661Y55235*X28652Y55247*X28643Y55258*X28633Y55270*X28622Y55281*X28612Y55291*X28601Y55302*X28589Y55312*X28578Y55321*X28566Y55330*X28553Y55339*X28540Y55347*X28527Y55355*X28514Y55362*X28501Y55369*X28487Y55376*X28473Y55381*X28459Y55387*X28445Y55392*X28430Y55396*X28416Y55400*X28401Y55404*X28386Y55406*X28371Y55409*X28356Y55411*X28341Y55412*X28326Y55413*X28311*X29210Y59690D2*Y59390D1*X28010*Y59990*X29210*Y59690*X29280D2*Y59990D1*X30480*Y59390*X29280*Y59690*X27420Y56190D2*X27720D1*Y57390*X27120*Y56190*X27420*Y56180D2*X27120D1*Y54980*X27720*Y56180*X27420*X30960Y54580D2*X31260D1*Y55780*X30660*Y54580D2*X30960D1*X30050Y54210D2*Y53910D1*X31250*Y54510*X30050*Y54210*X30360Y54580D2*X30660D1*Y55780*X30060*Y54580*X30360*X31570Y56980D2*X31870D1*Y58180*X31270*Y56980*X31570*X31270D2*Y55780D1*X31870*Y56980*X31260Y55780D2*X31560D1*X31260Y54580D2*X31860D1*Y55780*X31560*X30930Y57430D2*X30630D1*Y58630*X31230*Y57430*X30930*X24420Y54330D2*X24120D1*Y53130*X24720*X24420Y54330D2*X24720D1*X25020Y53130D2*X25320D1*Y54330*X24720*Y53130*X25020*X28311Y53380D2*Y54547D1*Y55413D2*Y56580D1*X29586*X28311Y53380D2*X29586D1*Y56580*X28030Y56670D2*Y58170D1*X28330Y58470*X29830*X28030Y56670D2*X29830D1*Y58470*X26630Y57860D2*Y58027D1*Y57943*X26130*X26214Y57860*X39086Y54547D2*X39101D1*X39116Y54548*X39131Y54549*X39146Y54551*X39161Y54554*X39176Y54556*X39191Y54560*X39205Y54564*X39220Y54568*X39234Y54573*X39248Y54579*X39262Y54584*X39276Y54591*X39289Y54598*X39302Y54605*X39315Y54613*X39328Y54621*X39341Y54630*X39353Y54639*X39364Y54648*X39376Y54658*X39387Y54669*X39397Y54679*X39408Y54690*X39418Y54702*X39427Y54713*X39436Y54725*X39445Y54738*X39453Y54751*X39461Y54764*X39468Y54777*X39475Y54790*X39482Y54804*X39487Y54818*X39493Y54832*X39498Y54846*X39502Y54861*X39506Y54875*X39510Y54890*X39512Y54905*X39515Y54920*X39517Y54935*X39518Y54950*X39519Y54965*Y54980*Y54995*X39518Y55010*X39517Y55025*X39515Y55040*X39512Y55055*X39510Y55070*X39506Y55085*X39502Y55099*X39498Y55114*X39493Y55128*X39487Y55142*X39482Y55156*X39475Y55170*X39468Y55183*X39461Y55197*X39453Y55209*X39445Y55222*X39436Y55235*X39427Y55247*X39418Y55258*X39408Y55270*X39397Y55281*X39387Y55291*X39376Y55302*X39364Y55312*X39353Y55321*X39341Y55330*X39328Y55339*X39315Y55347*X39302Y55355*X39289Y55362*X39276Y55369*X39262Y55376*X39248Y55381*X39234Y55387*X39220Y55392*X39205Y55396*X39191Y55400*X39176Y55404*X39161Y55406*X39146Y55409*X39131Y55411*X39116Y55412*X39101Y55413*X39086*X39985Y59690D2*Y59390D1*X38785*Y59990*X39985*Y59690*X40055D2*Y59990D1*X41255*Y59390*X40055*Y59690*X38195Y56190D2*X38495D1*Y57390*X37895*Y56190*X38195*Y56180D2*X37895D1*Y54980*X38495*Y56180*X38195*X41735Y54580D2*X42035D1*Y55780*X41435*Y54580D2*X41735D1*X40825Y54210D2*Y53910D1*X42025*Y54510*X40825*Y54210*X41135Y54580D2*X41435D1*Y55780*X40835*Y54580*X41135*X42345Y56980D2*X42645D1*Y58180*X42045*Y56980*X42345*X42045D2*Y55780D1*X42645*Y56980*X42035Y55780D2*X42335D1*X42035Y54580D2*X42635D1*Y55780*X42335*X41705Y57430D2*X41405D1*Y58630*X42005*Y57430*X41705*X35195Y54330D2*X34895D1*Y53130*X35495*X35195Y54330D2*X35495D1*X35795Y53130D2*X36095D1*Y54330*X35495*Y53130*X35795*X39086Y53380D2*Y54547D1*Y55413D2*Y56580D1*X40361*X39086Y53380D2*X40361D1*Y56580*X38805Y56670D2*Y58170D1*X39105Y58470*X40605*X38805Y56670D2*X40605D1*Y58470*X37405Y57860D2*Y58027D1*Y57943*X36905*X36989Y57860*X49861Y54547D2*X49876D1*X49891Y54548*X49906Y54549*X49921Y54551*X49936Y54554*X49951Y54556*X49966Y54560*X49980Y54564*X49995Y54568*X50009Y54573*X50023Y54579*X50037Y54584*X50051Y54591*X50064Y54598*X50077Y54605*X50090Y54613*X50103Y54621*X50116Y54630*X50128Y54639*X50139Y54648*X50151Y54658*X50162Y54669*X50172Y54679*X50183Y54690*X50193Y54702*X50202Y54713*X50211Y54725*X50220Y54738*X50228Y54751*X50236Y54764*X50243Y54777*X50250Y54790*X50257Y54804*X50262Y54818*X50268Y54832*X50273Y54846*X50277Y54861*X50281Y54875*X50285Y54890*X50287Y54905*X50290Y54920*X50292Y54935*X50293Y54950*X50294Y54965*Y54980*Y54995*X50293Y55010*X50292Y55025*X50290Y55040*X50287Y55055*X50285Y55070*X50281Y55085*X50277Y55099*X50273Y55114*X50268Y55128*X50262Y55142*X50257Y55156*X50250Y55170*X50243Y55183*X50236Y55197*X50228Y55209*X50220Y55222*X50211Y55235*X50202Y55247*X50193Y55258*X50183Y55270*X50172Y55281*X50162Y55291*X50151Y55302*X50139Y55312*X50128Y55321*X50116Y55330*X50103Y55339*X50090Y55347*X50077Y55355*X50064Y55362*X50051Y55369*X50037Y55376*X50023Y55381*X50009Y55387*X49995Y55392*X49980Y55396*X49966Y55400*X49951Y55404*X49936Y55406*X49921Y55409*X49906Y55411*X49891Y55412*X49876Y55413*X49861*X50760Y59690D2*Y59390D1*X49560*Y59990*X50760*Y59690*X50830D2*Y59990D1*X52030*Y59390*X50830*Y59690*X48970Y56190D2*X49270D1*Y57390*X48670*Y56190*X48970*Y56180D2*X48670D1*Y54980*X49270*Y56180*X48970*X52510Y54580D2*X52810D1*Y55780*X52210*Y54580D2*X52510D1*X51600Y54210D2*Y53910D1*X52800*Y54510*X51600*Y54210*X51910Y54580D2*X52210D1*Y55780*X51610*Y54580*X51910*X53120Y56980D2*X53420D1*Y58180*X52820*Y56980*X53120*X52820D2*Y55780D1*X53420*Y56980*X52810Y55780D2*X53110D1*X52810Y54580D2*X53410D1*Y55780*X53110*X52480Y57430D2*X52180D1*Y58630*X52780*Y57430*X52480*X45970Y54330D2*X45670D1*Y53130*X46270*X45970Y54330D2*X46270D1*X46570Y53130D2*X46870D1*Y54330*X46270*Y53130*X46570*X49861Y53380D2*Y54547D1*Y55413D2*Y56580D1*X51136*X49861Y53380D2*X51136D1*Y56580*X49580Y56670D2*Y58170D1*X49880Y58470*X51380*X49580Y56670D2*X51380D1*Y58470*X48180Y57860D2*Y58027D1*Y57943*X47680*X47764Y57860*X60636Y54547D2*X60651D1*X60666Y54548*X60681Y54549*X60696Y54551*X60711Y54554*X60726Y54556*X60741Y54560*X60755Y54564*X60770Y54568*X60784Y54573*X60798Y54579*X60812Y54584*X60826Y54591*X60839Y54598*X60852Y54605*X60865Y54613*X60878Y54621*X60891Y54630*X60903Y54639*X60914Y54648*X60926Y54658*X60937Y54669*X60947Y54679*X60958Y54690*X60968Y54702*X60977Y54713*X60986Y54725*X60995Y54738*X61003Y54751*X61011Y54764*X61018Y54777*X61025Y54790*X61032Y54804*X61037Y54818*X61043Y54832*X61048Y54846*X61052Y54861*X61056Y54875*X61060Y54890*X61062Y54905*X61065Y54920*X61067Y54935*X61068Y54950*X61069Y54965*Y54980*Y54995*X61068Y55010*X61067Y55025*X61065Y55040*X61062Y55055*X61060Y55070*X61056Y55085*X61052Y55099*X61048Y55114*X61043Y55128*X61037Y55142*X61032Y55156*X61025Y55170*X61018Y55183*X61011Y55197*X61003Y55209*X60995Y55222*X60986Y55235*X60977Y55247*X60968Y55258*X60958Y55270*X60947Y55281*X60937Y55291*X60926Y55302*X60914Y55312*X60903Y55321*X60891Y55330*X60878Y55339*X60865Y55347*X60852Y55355*X60839Y55362*X60826Y55369*X60812Y55376*X60798Y55381*X60784Y55387*X60770Y55392*X60755Y55396*X60741Y55400*X60726Y55404*X60711Y55406*X60696Y55409*X60681Y55411*X60666Y55412*X60651Y55413*X60636*X61535Y59690D2*Y59390D1*X60335*Y59990*X61535*Y59690*X61605D2*Y59990D1*X62805*Y59390*X61605*Y59690*X59745Y56190D2*X60045D1*Y57390*X59445*Y56190*X59745*Y56180D2*X59445D1*Y54980*X60045*Y56180*X59745*X63285Y54580D2*X63585D1*Y55780*X62985*Y54580D2*X63285D1*X62375Y54210D2*Y53910D1*X63575*Y54510*X62375*Y54210*X62685Y54580D2*X62985D1*Y55780*X62385*Y54580*X62685*X63895Y56980D2*X64195D1*Y58180*X63595*Y56980*X63895*X63595D2*Y55780D1*X64195*Y56980*X63585Y55780D2*X63885D1*X63585Y54580D2*X64185D1*Y55780*X63885*X63255Y57430D2*X62955D1*Y58630*X63555*Y57430*X63255*X56745Y54330D2*X56445D1*Y53130*X57045*X56745Y54330D2*X57045D1*X57345Y53130D2*X57645D1*Y54330*X57045*Y53130*X57345*X60636Y53380D2*Y54547D1*Y55413D2*Y56580D1*X61911*X60636Y53380D2*X61911D1*Y56580*X60355Y56670D2*Y58170D1*X60655Y58470*X62155*X60355Y56670D2*X62155D1*Y58470*X58955Y57860D2*Y58027D1*Y57943*X58455*X58539Y57860*X71411Y54547D2*X71426D1*X71441Y54548*X71456Y54549*X71471Y54551*X71486Y54554*X71501Y54556*X71516Y54560*X71530Y54564*X71545Y54568*X71559Y54573*X71573Y54579*X71587Y54584*X71601Y54591*X71614Y54598*X71627Y54605*X71640Y54613*X71653Y54621*X71666Y54630*X71678Y54639*X71689Y54648*X71701Y54658*X71712Y54669*X71722Y54679*X71733Y54690*X71743Y54702*X71752Y54713*X71761Y54725*X71770Y54738*X71778Y54751*X71786Y54764*X71793Y54777*X71800Y54790*X71807Y54804*X71812Y54818*X71818Y54832*X71823Y54846*X71827Y54861*X71831Y54875*X71835Y54890*X71837Y54905*X71840Y54920*X71842Y54935*X71843Y54950*X71844Y54965*Y54980*Y54995*X71843Y55010*X71842Y55025*X71840Y55040*X71837Y55055*X71835Y55070*X71831Y55085*X71827Y55099*X71823Y55114*X71818Y55128*X71812Y55142*X71807Y55156*X71800Y55170*X71793Y55183*X71786Y55197*X71778Y55209*X71770Y55222*X71761Y55235*X71752Y55247*X71743Y55258*X71733Y55270*X71722Y55281*X71712Y55291*X71701Y55302*X71689Y55312*X71678Y55321*X71666Y55330*X71653Y55339*X71640Y55347*X71627Y55355*X71614Y55362*X71601Y55369*X71587Y55376*X71573Y55381*X71559Y55387*X71545Y55392*X71530Y55396*X71516Y55400*X71501Y55404*X71486Y55406*X71471Y55409*X71456Y55411*X71441Y55412*X71426Y55413*X71411*X72310Y59690D2*Y59390D1*X71110*Y59990*X72310*Y59690*X72380D2*Y59990D1*X73580*Y59390*X72380*Y59690*X70520Y56190D2*X70820D1*Y57390*X70220*Y56190*X70520*Y56180D2*X70220D1*Y54980*X70820*Y56180*X70520*X74060Y54580D2*X74360D1*Y55780*X73760*Y54580D2*X74060D1*X73150Y54210D2*Y53910D1*X74350*Y54510*X73150*Y54210*X73460Y54580D2*X73760D1*Y55780*X73160*Y54580*X73460*X74670Y56980D2*X74970D1*Y58180*X74370*Y56980*X74670*X74370D2*Y55780D1*X74970*Y56980*X74360Y55780D2*X74660D1*X74360Y54580D2*X74960D1*Y55780*X74660*X74030Y57430D2*X73730D1*Y58630*X74330*Y57430*X74030*X67520Y54330D2*X67220D1*Y53130*X67820*X67520Y54330D2*X67820D1*X68120Y53130D2*X68420D1*Y54330*X67820*Y53130*X68120*X71411Y53380D2*Y54547D1*Y55413D2*Y56580D1*X72686*X71411Y53380D2*X72686D1*Y56580*X71130Y56670D2*Y58170D1*X71430Y58470*X72930*X71130Y56670D2*X72930D1*Y58470*X69730Y57860D2*Y58027D1*Y57943*X69230*X69314Y57860*X82186Y54547D2*X82201D1*X82216Y54548*X82231Y54549*X82246Y54551*X82261Y54554*X82276Y54556*X82291Y54560*X82305Y54564*X82320Y54568*X82334Y54573*X82348Y54579*X82362Y54584*X82376Y54591*X82389Y54598*X82402Y54605*X82415Y54613*X82428Y54621*X82441Y54630*X82453Y54639*X82464Y54648*X82476Y54658*X82487Y54669*X82497Y54679*X82508Y54690*X82518Y54702*X82527Y54713*X82536Y54725*X82545Y54738*X82553Y54751*X82561Y54764*X82568Y54777*X82575Y54790*X82582Y54804*X82587Y54818*X82593Y54832*X82598Y54846*X82602Y54861*X82606Y54875*X82610Y54890*X82612Y54905*X82615Y54920*X82617Y54935*X82618Y54950*X82619Y54965*Y54980*Y54995*X82618Y55010*X82617Y55025*X82615Y55040*X82612Y55055*X82610Y55070*X82606Y55085*X82602Y55099*X82598Y55114*X82593Y55128*X82587Y55142*X82582Y55156*X82575Y55170*X82568Y55183*X82561Y55197*X82553Y55209*X82545Y55222*X82536Y55235*X82527Y55247*X82518Y55258*X82508Y55270*X82497Y55281*X82487Y55291*X82476Y55302*X82464Y55312*X82453Y55321*X82441Y55330*X82428Y55339*X82415Y55347*X82402Y55355*X82389Y55362*X82376Y55369*X82362Y55376*X82348Y55381*X82334Y55387*X82320Y55392*X82305Y55396*X82291Y55400*X82276Y55404*X82261Y55406*X82246Y55409*X82231Y55411*X82216Y55412*X82201Y55413*X82186*X83085Y59690D2*Y59390D1*X81885*Y59990*X83085*Y59690*X83155D2*Y59990D1*X84355*Y59390*X83155*Y59690*X81295Y56190D2*X81595D1*Y57390*X80995*Y56190*X81295*Y56180D2*X80995D1*Y54980*X81595*Y56180*X81295*X84835Y54580D2*X85135D1*Y55780*X84535*Y54580D2*X84835D1*X83925Y54210D2*Y53910D1*X85125*Y54510*X83925*Y54210*X84235Y54580D2*X84535D1*Y55780*X83935*Y54580*X84235*X85445Y56980D2*X85745D1*Y58180*X85145*Y56980*X85445*X85145D2*Y55780D1*X85745*Y56980*X85135Y55780D2*X85435D1*X85135Y54580D2*X85735D1*Y55780*X85435*X84805Y57430D2*X84505D1*Y58630*X85105*Y57430*X84805*X78295Y54330D2*X77995D1*Y53130*X78595*X78295Y54330D2*X78595D1*X78895Y53130D2*X79195D1*Y54330*X78595*Y53130*X78895*X82186Y53380D2*Y54547D1*Y55413D2*Y56580D1*X83461*X82186Y53380D2*X83461D1*Y56580*X81905Y56670D2*Y58170D1*X82205Y58470*X83705*X81905Y56670D2*X83705D1*Y58470*X80505Y57860D2*Y58027D1*Y57943*X80005*X80089Y57860*X92961Y54547D2*X92976D1*X92991Y54548*X93006Y54549*X93021Y54551*X93036Y54554*X93051Y54556*X93066Y54560*X93080Y54564*X93095Y54568*X93109Y54573*X93123Y54579*X93137Y54584*X93151Y54591*X93164Y54598*X93177Y54605*X93190Y54613*X93203Y54621*X93216Y54630*X93228Y54639*X93239Y54648*X93251Y54658*X93262Y54669*X93272Y54679*X93283Y54690*X93293Y54702*X93302Y54713*X93311Y54725*X93320Y54738*X93328Y54751*X93336Y54764*X93343Y54777*X93350Y54790*X93357Y54804*X93362Y54818*X93368Y54832*X93373Y54846*X93377Y54861*X93381Y54875*X93385Y54890*X93387Y54905*X93390Y54920*X93392Y54935*X93393Y54950*X93394Y54965*Y54980*Y54995*X93393Y55010*X93392Y55025*X93390Y55040*X93387Y55055*X93385Y55070*X93381Y55085*X93377Y55099*X93373Y55114*X93368Y55128*X93362Y55142*X93357Y55156*X93350Y55170*X93343Y55183*X93336Y55197*X93328Y55209*X93320Y55222*X93311Y55235*X93302Y55247*X93293Y55258*X93283Y55270*X93272Y55281*X93262Y55291*X93251Y55302*X93239Y55312*X93228Y55321*X93216Y55330*X93203Y55339*X93190Y55347*X93177Y55355*X93164Y55362*X93151Y55369*X93137Y55376*X93123Y55381*X93109Y55387*X93095Y55392*X93080Y55396*X93066Y55400*X93051Y55404*X93036Y55406*X93021Y55409*X93006Y55411*X92991Y55412*X92976Y55413*X92961*X93860Y59690D2*Y59390D1*X92660*Y59990*X93860*Y59690*X93930D2*Y59990D1*X95130*Y59390*X93930*Y59690*X92070Y56190D2*X92370D1*Y57390*X91770*Y56190*X92070*Y56180D2*X91770D1*Y54980*X92370*Y56180*X92070*X95610Y54580D2*X95910D1*Y55780*X95310*Y54580D2*X95610D1*X94700Y54210D2*Y53910D1*X95900*Y54510*X94700*Y54210*X95010Y54580D2*X95310D1*Y55780*X94710*Y54580*X95010*X96220Y56980D2*X96520D1*Y58180*X95920*Y56980*X96220*X95920D2*Y55780D1*X96520*Y56980*X95910Y55780D2*X96210D1*X95910Y54580D2*X96510D1*Y55780*X96210*X95580Y57430D2*X95280D1*Y58630*X95880*Y57430*X95580*X89070Y54330D2*X88770D1*Y53130*X89370*X89070Y54330D2*X89370D1*X89670Y53130D2*X89970D1*Y54330*X89370*Y53130*X89670*X92961Y53380D2*Y54547D1*Y55413D2*Y56580D1*X94236*X92961Y53380D2*X94236D1*Y56580*X92680Y56670D2*Y58170D1*X92980Y58470*X94480*X92680Y56670D2*X94480D1*Y58470*X91280Y57860D2*Y58027D1*Y57943*X90780*X90864Y57860*X92961Y44657D2*X92976D1*X92991Y44658*X93006Y44659*X93021Y44661*X93036Y44664*X93051Y44666*X93066Y44670*X93080Y44674*X93095Y44678*X93109Y44683*X93123Y44689*X93137Y44694*X93151Y44701*X93164Y44708*X93177Y44715*X93190Y44723*X93203Y44731*X93216Y44740*X93228Y44749*X93239Y44758*X93251Y44768*X93262Y44779*X93272Y44789*X93283Y44800*X93293Y44812*X93302Y44823*X93311Y44835*X93320Y44848*X93328Y44861*X93336Y44874*X93343Y44887*X93350Y44900*X93357Y44914*X93362Y44928*X93368Y44942*X93373Y44956*X93377Y44971*X93381Y44985*X93385Y45000*X93387Y45015*X93390Y45030*X93392Y45045*X93393Y45060*X93394Y45075*Y45090*Y45105*X93393Y45120*X93392Y45135*X93390Y45150*X93387Y45165*X93385Y45180*X93381Y45195*X93377Y45209*X93373Y45224*X93368Y45238*X93362Y45252*X93357Y45266*X93350Y45280*X93343Y45293*X93336Y45307*X93328Y45319*X93320Y45332*X93311Y45345*X93302Y45357*X93293Y45368*X93283Y45380*X93272Y45391*X93262Y45401*X93251Y45412*X93239Y45422*X93228Y45431*X93216Y45440*X93203Y45449*X93190Y45457*X93177Y45465*X93164Y45472*X93151Y45479*X93137Y45486*X93123Y45491*X93109Y45497*X93095Y45502*X93080Y45506*X93066Y45510*X93051Y45514*X93036Y45516*X93021Y45519*X93006Y45521*X92991Y45522*X92976Y45523*X92961*X93860Y49800D2*Y49500D1*X92660*Y50100*X93860*Y49800*X93930D2*Y50100D1*X95130*Y49500*X93930*Y49800*X92070Y46300D2*X92370D1*Y47500*X91770*Y46300*X92070*Y46290D2*X91770D1*Y45090*X92370*Y46290*X92070*X95610Y44690D2*X95910D1*Y45890*X95310*Y44690D2*X95610D1*X94700Y44320D2*Y44020D1*X95900*Y44620*X94700*Y44320*X95010Y44690D2*X95310D1*Y45890*X94710*Y44690*X95010*X96220Y47090D2*X96520D1*Y48290*X95920*Y47090*X96220*X95920D2*Y45890D1*X96520*Y47090*X95910Y45890D2*X96210D1*X95910Y44690D2*X96510D1*Y45890*X96210*X95580Y47540D2*X95280D1*Y48740*X95880*Y47540*X95580*X89070Y44440D2*X88770D1*Y43240*X89370*X89070Y44440D2*X89370D1*X89670Y43240D2*X89970D1*Y44440*X89370*Y43240*X89670*X92961Y43490D2*Y44657D1*Y45523D2*Y46690D1*X94236*X92961Y43490D2*X94236D1*Y46690*X92680Y46780D2*Y48280D1*X92980Y48580*X94480*X92680Y46780D2*X94480D1*Y48580*X91280Y47970D2*Y48137D1*Y48053*X90780*X90864Y47970*X82186Y44657D2*X82201D1*X82216Y44658*X82231Y44659*X82246Y44661*X82261Y44664*X82276Y44666*X82291Y44670*X82305Y44674*X82320Y44678*X82334Y44683*X82348Y44689*X82362Y44694*X82376Y44701*X82389Y44708*X82402Y44715*X82415Y44723*X82428Y44731*X82441Y44740*X82453Y44749*X82464Y44758*X82476Y44768*X82487Y44779*X82497Y44789*X82508Y44800*X82518Y44812*X82527Y44823*X82536Y44835*X82545Y44848*X82553Y44861*X82561Y44874*X82568Y44887*X82575Y44900*X82582Y44914*X82587Y44928*X82593Y44942*X82598Y44956*X82602Y44971*X82606Y44985*X82610Y45000*X82612Y45015*X82615Y45030*X82617Y45045*X82618Y45060*X82619Y45075*Y45090*Y45105*X82618Y45120*X82617Y45135*X82615Y45150*X82612Y45165*X82610Y45180*X82606Y45195*X82602Y45209*X82598Y45224*X82593Y45238*X82587Y45252*X82582Y45266*X82575Y45280*X82568Y45293*X82561Y45307*X82553Y45319*X82545Y45332*X82536Y45345*X82527Y45357*X82518Y45368*X82508Y45380*X82497Y45391*X82487Y45401*X82476Y45412*X82464Y45422*X82453Y45431*X82441Y45440*X82428Y45449*X82415Y45457*X82402Y45465*X82389Y45472*X82376Y45479*X82362Y45486*X82348Y45491*X82334Y45497*X82320Y45502*X82305Y45506*X82291Y45510*X82276Y45514*X82261Y45516*X82246Y45519*X82231Y45521*X82216Y45522*X82201Y45523*X82186*X83085Y49800D2*Y49500D1*X81885*Y50100*X83085*Y49800*X83155D2*Y50100D1*X84355*Y49500*X83155*Y49800*X81295Y46300D2*X81595D1*Y47500*X80995*Y46300*X81295*Y46290D2*X80995D1*Y45090*X81595*Y46290*X81295*X84835Y44690D2*X85135D1*Y45890*X84535*Y44690D2*X84835D1*X83925Y44320D2*Y44020D1*X85125*Y44620*X83925*Y44320*X84235Y44690D2*X84535D1*Y45890*X83935*Y44690*X84235*X85445Y47090D2*X85745D1*Y48290*X85145*Y47090*X85445*X85145D2*Y45890D1*X85745*Y47090*X85135Y45890D2*X85435D1*X85135Y44690D2*X85735D1*Y45890*X85435*X84805Y47540D2*X84505D1*Y48740*X85105*Y47540*X84805*X78295Y44440D2*X77995D1*Y43240*X78595*X78295Y44440D2*X78595D1*X78895Y43240D2*X79195D1*Y44440*X78595*Y43240*X78895*X82186Y43490D2*Y44657D1*Y45523D2*Y46690D1*X83461*X82186Y43490D2*X83461D1*Y46690*X81905Y46780D2*Y48280D1*X82205Y48580*X83705*X81905Y46780D2*X83705D1*Y48580*X80505Y47970D2*Y48137D1*Y48053*X80005*X80089Y47970*X71411Y44657D2*X71426D1*X71441Y44658*X71456Y44659*X71471Y44661*X71486Y44664*X71501Y44666*X71516Y44670*X71530Y44674*X71545Y44678*X71559Y44683*X71573Y44689*X71587Y44694*X71601Y44701*X71614Y44708*X71627Y44715*X71640Y44723*X71653Y44731*X71666Y44740*X71678Y44749*X71689Y44758*X71701Y44768*X71712Y44779*X71722Y44789*X71733Y44800*X71743Y44812*X71752Y44823*X71761Y44835*X71770Y44848*X71778Y44861*X71786Y44874*X71793Y44887*X71800Y44900*X71807Y44914*X71812Y44928*X71818Y44942*X71823Y44956*X71827Y44971*X71831Y44985*X71835Y45000*X71837Y45015*X71840Y45030*X71842Y45045*X71843Y45060*X71844Y45075*Y45090*Y45105*X71843Y45120*X71842Y45135*X71840Y45150*X71837Y45165*X71835Y45180*X71831Y45195*X71827Y45209*X71823Y45224*X71818Y45238*X71812Y45252*X71807Y45266*X71800Y45280*X71793Y45293*X71786Y45307*X71778Y45319*X71770Y45332*X71761Y45345*X71752Y45357*X71743Y45368*X71733Y45380*X71722Y45391*X71712Y45401*X71701Y45412*X71689Y45422*X71678Y45431*X71666Y45440*X71653Y45449*X71640Y45457*X71627Y45465*X71614Y45472*X71601Y45479*X71587Y45486*X71573Y45491*X71559Y45497*X71545Y45502*X71530Y45506*X71516Y45510*X71501Y45514*X71486Y45516*X71471Y45519*X71456Y45521*X71441Y45522*X71426Y45523*X71411*X72310Y49800D2*Y49500D1*X71110*Y50100*X72310*Y49800*X72380D2*Y50100D1*X73580*Y49500*X72380*Y49800*X70520Y46300D2*X70820D1*Y47500*X70220*Y46300*X70520*Y46290D2*X70220D1*Y45090*X70820*Y46290*X70520*X74060Y44690D2*X74360D1*Y45890*X73760*Y44690D2*X74060D1*X73150Y44320D2*Y44020D1*X74350*Y44620*X73150*Y44320*X73460Y44690D2*X73760D1*Y45890*X73160*Y44690*X73460*X74670Y47090D2*X74970D1*Y48290*X74370*Y47090*X74670*X74370D2*Y45890D1*X74970*Y47090*X74360Y45890D2*X74660D1*X74360Y44690D2*X74960D1*Y45890*X74660*X74030Y47540D2*X73730D1*Y48740*X74330*Y47540*X74030*X67520Y44440D2*X67220D1*Y43240*X67820*X67520Y44440D2*X67820D1*X68120Y43240D2*X68420D1*Y44440*X67820*Y43240*X68120*X71411Y43490D2*Y44657D1*Y45523D2*Y46690D1*X72686*X71411Y43490D2*X72686D1*Y46690*X71130Y46780D2*Y48280D1*X71430Y48580*X72930*X71130Y46780D2*X72930D1*Y48580*X69730Y47970D2*Y48137D1*Y48053*X69230*X69314Y47970*X60636Y44657D2*X60651D1*X60666Y44658*X60681Y44659*X60696Y44661*X60711Y44664*X60726Y44666*X60741Y44670*X60755Y44674*X60770Y44678*X60784Y44683*X60798Y44689*X60812Y44694*X60826Y44701*X60839Y44708*X60852Y44715*X60865Y44723*X60878Y44731*X60891Y44740*X60903Y44749*X60914Y44758*X60926Y44768*X60937Y44779*X60947Y44789*X60958Y44800*X60968Y44812*X60977Y44823*X60986Y44835*X60995Y44848*X61003Y44861*X61011Y44874*X61018Y44887*X61025Y44900*X61032Y44914*X61037Y44928*X61043Y44942*X61048Y44956*X61052Y44971*X61056Y44985*X61060Y45000*X61062Y45015*X61065Y45030*X61067Y45045*X61068Y45060*X61069Y45075*Y45090*Y45105*X61068Y45120*X61067Y45135*X61065Y45150*X61062Y45165*X61060Y45180*X61056Y45195*X61052Y45209*X61048Y45224*X61043Y45238*X61037Y45252*X61032Y45266*X61025Y45280*X61018Y45293*X61011Y45307*X61003Y45319*X60995Y45332*X60986Y45345*X60977Y45357*X60968Y45368*X60958Y45380*X60947Y45391*X60937Y45401*X60926Y45412*X60914Y45422*X60903Y45431*X60891Y45440*X60878Y45449*X60865Y45457*X60852Y45465*X60839Y45472*X60826Y45479*X60812Y45486*X60798Y45491*X60784Y45497*X60770Y45502*X60755Y45506*X60741Y45510*X60726Y45514*X60711Y45516*X60696Y45519*X60681Y45521*X60666Y45522*X60651Y45523*X60636*X61535Y49800D2*Y49500D1*X60335*Y50100*X61535*Y49800*X61605D2*Y50100D1*X62805*Y49500*X61605*Y49800*X59745Y46300D2*X60045D1*Y47500*X59445*Y46300*X59745*Y46290D2*X59445D1*Y45090*X60045*Y46290*X59745*X63285Y44690D2*X63585D1*Y45890*X62985*Y44690D2*X63285D1*X62375Y44320D2*Y44020D1*X63575*Y44620*X62375*Y44320*X62685Y44690D2*X62985D1*Y45890*X62385*Y44690*X62685*X63895Y47090D2*X64195D1*Y48290*X63595*Y47090*X63895*X63595D2*Y45890D1*X64195*Y47090*X63585Y45890D2*X63885D1*X63585Y44690D2*X64185D1*Y45890*X63885*X63255Y47540D2*X62955D1*Y48740*X63555*Y47540*X63255*X56745Y44440D2*X56445D1*Y43240*X57045*X56745Y44440D2*X57045D1*X57345Y43240D2*X57645D1*Y44440*X57045*Y43240*X57345*X60636Y43490D2*Y44657D1*Y45523D2*Y46690D1*X61911*X60636Y43490D2*X61911D1*Y46690*X60355Y46780D2*Y48280D1*X60655Y48580*X62155*X60355Y46780D2*X62155D1*Y48580*X58955Y47970D2*Y48137D1*Y48053*X58455*X58539Y47970*X49861Y44657D2*X49876D1*X49891Y44658*X49906Y44659*X49921Y44661*X49936Y44664*X49951Y44666*X49966Y44670*X49980Y44674*X49995Y44678*X50009Y44683*X50023Y44689*X50037Y44694*X50051Y44701*X50064Y44708*X50077Y44715*X50090Y44723*X50103Y44731*X50116Y44740*X50128Y44749*X50139Y44758*X50151Y44768*X50162Y44779*X50172Y44789*X50183Y44800*X50193Y44812*X50202Y44823*X50211Y44835*X50220Y44848*X50228Y44861*X50236Y44874*X50243Y44887*X50250Y44900*X50257Y44914*X50262Y44928*X50268Y44942*X50273Y44956*X50277Y44971*X50281Y44985*X50285Y45000*X50287Y45015*X50290Y45030*X50292Y45045*X50293Y45060*X50294Y45075*Y45090*Y45105*X50293Y45120*X50292Y45135*X50290Y45150*X50287Y45165*X50285Y45180*X50281Y45195*X50277Y45209*X50273Y45224*X50268Y45238*X50262Y45252*X50257Y45266*X50250Y45280*X50243Y45293*X50236Y45307*X50228Y45319*X50220Y45332*X50211Y45345*X50202Y45357*X50193Y45368*X50183Y45380*X50172Y45391*X50162Y45401*X50151Y45412*X50139Y45422*X50128Y45431*X50116Y45440*X50103Y45449*X50090Y45457*X50077Y45465*X50064Y45472*X50051Y45479*X50037Y45486*X50023Y45491*X50009Y45497*X49995Y45502*X49980Y45506*X49966Y45510*X49951Y45514*X49936Y45516*X49921Y45519*X49906Y45521*X49891Y45522*X49876Y45523*X49861*X50760Y49800D2*Y49500D1*X49560*Y50100*X50760*Y49800*X50830D2*Y50100D1*X52030*Y49500*X50830*Y49800*X48970Y46300D2*X49270D1*Y47500*X48670*Y46300*X48970*Y46290D2*X48670D1*Y45090*X49270*Y46290*X48970*X52510Y44690D2*X52810D1*Y45890*X52210*Y44690D2*X52510D1*X51600Y44320D2*Y44020D1*X52800*Y44620*X51600*Y44320*X51910Y44690D2*X52210D1*Y45890*X51610*Y44690*X51910*X53120Y47090D2*X53420D1*Y48290*X52820*Y47090*X53120*X52820D2*Y45890D1*X53420*Y47090*X52810Y45890D2*X53110D1*X52810Y44690D2*X53410D1*Y45890*X53110*X52480Y47540D2*X52180D1*Y48740*X52780*Y47540*X52480*X45970Y44440D2*X45670D1*Y43240*X46270*X45970Y44440D2*X46270D1*X46570Y43240D2*X46870D1*Y44440*X46270*Y43240*X46570*X49861Y43490D2*Y44657D1*Y45523D2*Y46690D1*X51136*X49861Y43490D2*X51136D1*Y46690*X49580Y46780D2*Y48280D1*X49880Y48580*X51380*X49580Y46780D2*X51380D1*Y48580*X48180Y47970D2*Y48137D1*Y48053*X47680*X47764Y47970*X39086Y44657D2*X39101D1*X39116Y44658*X39131Y44659*X39146Y44661*X39161Y44664*X39176Y44666*X39191Y44670*X39205Y44674*X39220Y44678*X39234Y44683*X39248Y44689*X39262Y44694*X39276Y44701*X39289Y44708*X39302Y44715*X39315Y44723*X39328Y44731*X39341Y44740*X39353Y44749*X39364Y44758*X39376Y44768*X39387Y44779*X39397Y44789*X39408Y44800*X39418Y44812*X39427Y44823*X39436Y44835*X39445Y44848*X39453Y44861*X39461Y44874*X39468Y44887*X39475Y44900*X39482Y44914*X39487Y44928*X39493Y44942*X39498Y44956*X39502Y44971*X39506Y44985*X39510Y45000*X39512Y45015*X39515Y45030*X39517Y45045*X39518Y45060*X39519Y45075*Y45090*Y45105*X39518Y45120*X39517Y45135*X39515Y45150*X39512Y45165*X39510Y45180*X39506Y45195*X39502Y45209*X39498Y45224*X39493Y45238*X39487Y45252*X39482Y45266*X39475Y45280*X39468Y45293*X39461Y45307*X39453Y45319*X39445Y45332*X39436Y45345*X39427Y45357*X39418Y45368*X39408Y45380*X39397Y45391*X39387Y45401*X39376Y45412*X39364Y45422*X39353Y45431*X39341Y45440*X39328Y45449*X39315Y45457*X39302Y45465*X39289Y45472*X39276Y45479*X39262Y45486*X39248Y45491*X39234Y45497*X39220Y45502*X39205Y45506*X39191Y45510*X39176Y45514*X39161Y45516*X39146Y45519*X39131Y45521*X39116Y45522*X39101Y45523*X39086*X39985Y49800D2*Y49500D1*X38785*Y50100*X39985*Y49800*X40055D2*Y50100D1*X41255*Y49500*X40055*Y49800*X38195Y46300D2*X38495D1*Y47500*X37895*Y46300*X38195*Y46290D2*X37895D1*Y45090*X38495*Y46290*X38195*X41735Y44690D2*X42035D1*Y45890*X41435*Y44690D2*X41735D1*X40825Y44320D2*Y44020D1*X42025*Y44620*X40825*Y44320*X41135Y44690D2*X41435D1*Y45890*X40835*Y44690*X41135*X42345Y47090D2*X42645D1*Y48290*X42045*Y47090*X42345*X42045D2*Y45890D1*X42645*Y47090*X42035Y45890D2*X42335D1*X42035Y44690D2*X42635D1*Y45890*X42335*X41705Y47540D2*X41405D1*Y48740*X42005*Y47540*X41705*X35195Y44440D2*X34895D1*Y43240*X35495*X35195Y44440D2*X35495D1*X35795Y43240D2*X36095D1*Y44440*X35495*Y43240*X35795*X39086Y43490D2*Y44657D1*Y45523D2*Y46690D1*X40361*X39086Y43490D2*X40361D1*Y46690*X38805Y46780D2*Y48280D1*X39105Y48580*X40605*X38805Y46780D2*X40605D1*Y48580*X37405Y47970D2*Y48137D1*Y48053*X36905*X36989Y47970*X28311Y44657D2*X28326D1*X28341Y44658*X28356Y44659*X28371Y44661*X28386Y44664*X28401Y44666*X28416Y44670*X28430Y44674*X28445Y44678*X28459Y44683*X28473Y44689*X28487Y44694*X28501Y44701*X28514Y44708*X28527Y44715*X28540Y44723*X28553Y44731*X28566Y44740*X28578Y44749*X28589Y44758*X28601Y44768*X28612Y44779*X28622Y44789*X28633Y44800*X28643Y44812*X28652Y44823*X28661Y44835*X28670Y44848*X28678Y44861*X28686Y44874*X28693Y44887*X28700Y44900*X28707Y44914*X28712Y44928*X28718Y44942*X28723Y44956*X28727Y44971*X28731Y44985*X28735Y45000*X28737Y45015*X28740Y45030*X28742Y45045*X28743Y45060*X28744Y45075*Y45090*Y45105*X28743Y45120*X28742Y45135*X28740Y45150*X28737Y45165*X28735Y45180*X28731Y45195*X28727Y45209*X28723Y45224*X28718Y45238*X28712Y45252*X28707Y45266*X28700Y45280*X28693Y45293*X28686Y45307*X28678Y45319*X28670Y45332*X28661Y45345*X28652Y45357*X28643Y45368*X28633Y45380*X28622Y45391*X28612Y45401*X28601Y45412*X28589Y45422*X28578Y45431*X28566Y45440*X28553Y45449*X28540Y45457*X28527Y45465*X28514Y45472*X28501Y45479*X28487Y45486*X28473Y45491*X28459Y45497*X28445Y45502*X28430Y45506*X28416Y45510*X28401Y45514*X28386Y45516*X28371Y45519*X28356Y45521*X28341Y45522*X28326Y45523*X28311*X29210Y49800D2*Y49500D1*X28010*Y50100*X29210*Y49800*X29280D2*Y50100D1*X30480*Y49500*X29280*Y49800*X27420Y46300D2*X27720D1*Y47500*X27120*Y46300*X27420*Y46290D2*X27120D1*Y45090*X27720*Y46290*X27420*X30960Y44690D2*X31260D1*Y45890*X30660*Y44690D2*X30960D1*X30050Y44320D2*Y44020D1*X31250*Y44620*X30050*Y44320*X30360Y44690D2*X30660D1*Y45890*X30060*Y44690*X30360*X31570Y47090D2*X31870D1*Y48290*X31270*Y47090*X31570*X31270D2*Y45890D1*X31870*Y47090*X31260Y45890D2*X31560D1*X31260Y44690D2*X31860D1*Y45890*X31560*X30930Y47540D2*X30630D1*Y48740*X31230*Y47540*X30930*X24420Y44440D2*X24120D1*Y43240*X24720*X24420Y44440D2*X24720D1*X25020Y43240D2*X25320D1*Y44440*X24720*Y43240*X25020*X28311Y43490D2*Y44657D1*Y45523D2*Y46690D1*X29586*X28311Y43490D2*X29586D1*Y46690*X28030Y46780D2*Y48280D1*X28330Y48580*X29830*X28030Y46780D2*X29830D1*Y48580*X26630Y47970D2*Y48137D1*Y48053*X26130*X26214Y47970*X17536Y44657D2*X17551D1*X17566Y44658*X17581Y44659*X17596Y44661*X17611Y44664*X17626Y44666*X17641Y44670*X17655Y44674*X17670Y44678*X17684Y44683*X17698Y44689*X17712Y44694*X17726Y44701*X17739Y44708*X17752Y44715*X17765Y44723*X17778Y44731*X17791Y44740*X17803Y44749*X17814Y44758*X17826Y44768*X17837Y44779*X17847Y44789*X17858Y44800*X17868Y44812*X17877Y44823*X17886Y44835*X17895Y44848*X17903Y44861*X17911Y44874*X17918Y44887*X17925Y44900*X17932Y44914*X17937Y44928*X17943Y44942*X17948Y44956*X17952Y44971*X17956Y44985*X17960Y45000*X17962Y45015*X17965Y45030*X17967Y45045*X17968Y45060*X17969Y45075*Y45090*Y45105*X17968Y45120*X17967Y45135*X17965Y45150*X17962Y45165*X17960Y45180*X17956Y45195*X17952Y45209*X17948Y45224*X17943Y45238*X17937Y45252*X17932Y45266*X17925Y45280*X17918Y45293*X17911Y45307*X17903Y45319*X17895Y45332*X17886Y45345*X17877Y45357*X17868Y45368*X17858Y45380*X17847Y45391*X17837Y45401*X17826Y45412*X17814Y45422*X17803Y45431*X17791Y45440*X17778Y45449*X17765Y45457*X17752Y45465*X17739Y45472*X17726Y45479*X17712Y45486*X17698Y45491*X17684Y45497*X17670Y45502*X17655Y45506*X17641Y45510*X17626Y45514*X17611Y45516*X17596Y45519*X17581Y45521*X17566Y45522*X17551Y45523*X17536*X18435Y49800D2*Y49500D1*X17235*Y50100*X18435*Y49800*X18505D2*Y50100D1*X19705*Y49500*X18505*Y49800*X16645Y46300D2*X16945D1*Y47500*X16345*Y46300*X16645*Y46290D2*X16345D1*Y45090*X16945*Y46290*X16645*X20185Y44690D2*X20485D1*Y45890*X19885*Y44690D2*X20185D1*X19275Y44320D2*Y44020D1*X20475*Y44620*X19275*Y44320*X19585Y44690D2*X19885D1*Y45890*X19285*Y44690*X19585*X20795Y47090D2*X21095D1*Y48290*X20495*Y47090*X20795*X20495D2*Y45890D1*X21095*Y47090*X20485Y45890D2*X20785D1*X20485Y44690D2*X21085D1*Y45890*X20785*X20155Y47540D2*X19855D1*Y48740*X20455*Y47540*X20155*X13645Y44440D2*X13345D1*Y43240*X13945*X13645Y44440D2*X13945D1*X14245Y43240D2*X14545D1*Y44440*X13945*Y43240*X14245*X17536Y43490D2*Y44657D1*Y45523D2*Y46690D1*X18811*X17536Y43490D2*X18811D1*Y46690*X17255Y46780D2*Y48280D1*X17555Y48580*X19055*X17255Y46780D2*X19055D1*Y48580*X15855Y47970D2*Y48137D1*Y48053*X15355*X15439Y47970*X6761Y44657D2*X6776D1*X6791Y44658*X6806Y44659*X6821Y44661*X6836Y44664*X6851Y44666*X6866Y44670*X6880Y44674*X6895Y44678*X6909Y44683*X6923Y44689*X6937Y44694*X6951Y44701*X6964Y44708*X6977Y44715*X6990Y44723*X7003Y44731*X7016Y44740*X7028Y44749*X7039Y44758*X7051Y44768*X7062Y44779*X7072Y44789*X7083Y44800*X7093Y44812*X7102Y44823*X7111Y44835*X7120Y44848*X7128Y44861*X7136Y44874*X7143Y44887*X7150Y44900*X7157Y44914*X7162Y44928*X7168Y44942*X7173Y44956*X7177Y44971*X7181Y44985*X7185Y45000*X7187Y45015*X7190Y45030*X7192Y45045*X7193Y45060*X7194Y45075*Y45090*Y45105*X7193Y45120*X7192Y45135*X7190Y45150*X7187Y45165*X7185Y45180*X7181Y45195*X7177Y45209*X7173Y45224*X7168Y45238*X7162Y45252*X7157Y45266*X7150Y45280*X7143Y45293*X7136Y45307*X7128Y45319*X7120Y45332*X7111Y45345*X7102Y45357*X7093Y45368*X7083Y45380*X7072Y45391*X7062Y45401*X7051Y45412*X7039Y45422*X7028Y45431*X7016Y45440*X7003Y45449*X6990Y45457*X6977Y45465*X6964Y45472*X6951Y45479*X6937Y45486*X6923Y45491*X6909Y45497*X6895Y45502*X6880Y45506*X6866Y45510*X6851Y45514*X6836Y45516*X6821Y45519*X6806Y45521*X6791Y45522*X6776Y45523*X6761*X7660Y49800D2*Y49500D1*X6460*Y50100*X7660*Y49800*X7730D2*Y50100D1*X8930*Y49500*X7730*Y49800*X5870Y46300D2*X6170D1*Y47500*X5570*Y46300*X5870*Y46290D2*X5570D1*Y45090*X6170*Y46290*X5870*X9410Y44690D2*X9710D1*Y45890*X9110*Y44690D2*X9410D1*X8500Y44320D2*Y44020D1*X9700*Y44620*X8500*Y44320*X8810Y44690D2*X9110D1*Y45890*X8510*Y44690*X8810*X10020Y47090D2*X10320D1*Y48290*X9720*Y47090*X10020*X9720D2*Y45890D1*X10320*Y47090*X9710Y45890D2*X10010D1*X9710Y44690D2*X10310D1*Y45890*X10010*X9380Y47540D2*X9080D1*Y48740*X9680*Y47540*X9380*X2870Y44440D2*X2570D1*Y43240*X3170*X2870Y44440D2*X3170D1*X3470Y43240D2*X3770D1*Y44440*X3170*Y43240*X3470*X6761Y43490D2*Y44657D1*Y45523D2*Y46690D1*X8036*X6761Y43490D2*X8036D1*Y46690*X6480Y46780D2*Y48280D1*X6780Y48580*X8280*X6480Y46780D2*X8280D1*Y48580*X5080Y47970D2*Y48137D1*Y48053*X4580*X4664Y47970*X6761Y34767D2*X6776D1*X6791Y34768*X6806Y34769*X6821Y34771*X6836Y34774*X6851Y34776*X6866Y34780*X6880Y34784*X6895Y34788*X6909Y34793*X6923Y34799*X6937Y34804*X6951Y34811*X6964Y34818*X6977Y34825*X6990Y34833*X7003Y34841*X7016Y34850*X7028Y34859*X7039Y34868*X7051Y34878*X7062Y34889*X7072Y34899*X7083Y34910*X7093Y34922*X7102Y34933*X7111Y34945*X7120Y34958*X7128Y34971*X7136Y34984*X7143Y34997*X7150Y35010*X7157Y35024*X7162Y35038*X7168Y35052*X7173Y35066*X7177Y35081*X7181Y35095*X7185Y35110*X7187Y35125*X7190Y35140*X7192Y35155*X7193Y35170*X7194Y35185*Y35200*Y35215*X7193Y35230*X7192Y35245*X7190Y35260*X7187Y35275*X7185Y35290*X7181Y35305*X7177Y35319*X7173Y35334*X7168Y35348*X7162Y35362*X7157Y35376*X7150Y35390*X7143Y35403*X7136Y35417*X7128Y35429*X7120Y35442*X7111Y35455*X7102Y35467*X7093Y35478*X7083Y35490*X7072Y35501*X7062Y35511*X7051Y35522*X7039Y35532*X7028Y35541*X7016Y35550*X7003Y35559*X6990Y35567*X6977Y35575*X6964Y35582*X6951Y35589*X6937Y35596*X6923Y35601*X6909Y35607*X6895Y35612*X6880Y35616*X6866Y35620*X6851Y35624*X6836Y35626*X6821Y35629*X6806Y35631*X6791Y35632*X6776Y35633*X6761*X7660Y39910D2*Y39610D1*X6460*Y40210*X7660*Y39910*X7730D2*Y40210D1*X8930*Y39610*X7730*Y39910*X5870Y36410D2*X6170D1*Y37610*X5570*Y36410*X5870*Y36400D2*X5570D1*Y35200*X6170*Y36400*X5870*X9410Y34800D2*X9710D1*Y36000*X9110*Y34800D2*X9410D1*X8500Y34430D2*Y34130D1*X9700*Y34730*X8500*Y34430*X8810Y34800D2*X9110D1*Y36000*X8510*Y34800*X8810*X10020Y37200D2*X10320D1*Y38400*X9720*Y37200*X10020*X9720D2*Y36000D1*X10320*Y37200*X9710Y36000D2*X10010D1*X9710Y34800D2*X10310D1*Y36000*X10010*X9380Y37650D2*X9080D1*Y38850*X9680*Y37650*X9380*X2870Y34550D2*X2570D1*Y33350*X3170*X2870Y34550D2*X3170D1*X3470Y33350D2*X3770D1*Y34550*X3170*Y33350*X3470*X6761Y33600D2*Y34767D1*Y35633D2*Y36800D1*X8036*X6761Y33600D2*X8036D1*Y36800*X6480Y36890D2*Y38390D1*X6780Y38690*X8280*X6480Y36890D2*X8280D1*Y38690*X5080Y38080D2*Y38247D1*Y38163*X4580*X4664Y38080*X17536Y34767D2*X17551D1*X17566Y34768*X17581Y34769*X17596Y34771*X17611Y34774*X17626Y34776*X17641Y34780*X17655Y34784*X17670Y34788*X17684Y34793*X17698Y34799*X17712Y34804*X17726Y34811*X17739Y34818*X17752Y34825*X17765Y34833*X17778Y34841*X17791Y34850*X17803Y34859*X17814Y34868*X17826Y34878*X17837Y34889*X17847Y34899*X17858Y34910*X17868Y34922*X17877Y34933*X17886Y34945*X17895Y34958*X17903Y34971*X17911Y34984*X17918Y34997*X17925Y35010*X17932Y35024*X17937Y35038*X17943Y35052*X17948Y35066*X17952Y35081*X17956Y35095*X17960Y35110*X17962Y35125*X17965Y35140*X17967Y35155*X17968Y35170*X17969Y35185*Y35200*Y35215*X17968Y35230*X17967Y35245*X17965Y35260*X17962Y35275*X17960Y35290*X17956Y35305*X17952Y35319*X17948Y35334*X17943Y35348*X17937Y35362*X17932Y35376*X17925Y35390*X17918Y35403*X17911Y35417*X17903Y35429*X17895Y35442*X17886Y35455*X17877Y35467*X17868Y35478*X17858Y35490*X17847Y35501*X17837Y35511*X17826Y35522*X17814Y35532*X17803Y35541*X17791Y35550*X17778Y35559*X17765Y35567*X17752Y35575*X17739Y35582*X17726Y35589*X17712Y35596*X17698Y35601*X17684Y35607*X17670Y35612*X17655Y35616*X17641Y35620*X17626Y35624*X17611Y35626*X17596Y35629*X17581Y35631*X17566Y35632*X17551Y35633*X17536*X18435Y39910D2*Y39610D1*X17235*Y40210*X18435*Y39910*X18505D2*Y40210D1*X19705*Y39610*X18505*Y39910*X16645Y36410D2*X16945D1*Y37610*X16345*Y36410*X16645*Y36400D2*X16345D1*Y35200*X16945*Y36400*X16645*X20185Y34800D2*X20485D1*Y36000*X19885*Y34800D2*X20185D1*X19275Y34430D2*Y34130D1*X20475*Y34730*X19275*Y34430*X19585Y34800D2*X19885D1*Y36000*X19285*Y34800*X19585*X20795Y37200D2*X21095D1*Y38400*X20495*Y37200*X20795*X20495D2*Y36000D1*X21095*Y37200*X20485Y36000D2*X20785D1*X20485Y34800D2*X21085D1*Y36000*X20785*X20155Y37650D2*X19855D1*Y38850*X20455*Y37650*X20155*X13645Y34550D2*X13345D1*Y33350*X13945*X13645Y34550D2*X13945D1*X14245Y33350D2*X14545D1*Y34550*X13945*Y33350*X14245*X17536Y33600D2*Y34767D1*Y35633D2*Y36800D1*X18811*X17536Y33600D2*X18811D1*Y36800*X17255Y36890D2*Y38390D1*X17555Y38690*X19055*X17255Y36890D2*X19055D1*Y38690*X15855Y38080D2*Y38247D1*Y38163*X15355*X15439Y38080*X28311Y34767D2*X28326D1*X28341Y34768*X28356Y34769*X28371Y34771*X28386Y34774*X28401Y34776*X28416Y34780*X28430Y34784*X28445Y34788*X28459Y34793*X28473Y34799*X28487Y34804*X28501Y34811*X28514Y34818*X28527Y34825*X28540Y34833*X28553Y34841*X28566Y34850*X28578Y34859*X28589Y34868*X28601Y34878*X28612Y34889*X28622Y34899*X28633Y34910*X28643Y34922*X28652Y34933*X28661Y34945*X28670Y34958*X28678Y34971*X28686Y34984*X28693Y34997*X28700Y35010*X28707Y35024*X28712Y35038*X28718Y35052*X28723Y35066*X28727Y35081*X28731Y35095*X28735Y35110*X28737Y35125*X28740Y35140*X28742Y35155*X28743Y35170*X28744Y35185*Y35200*Y35215*X28743Y35230*X28742Y35245*X28740Y35260*X28737Y35275*X28735Y35290*X28731Y35305*X28727Y35319*X28723Y35334*X28718Y35348*X28712Y35362*X28707Y35376*X28700Y35390*X28693Y35403*X28686Y35417*X28678Y35429*X28670Y35442*X28661Y35455*X28652Y35467*X28643Y35478*X28633Y35490*X28622Y35501*X28612Y35511*X28601Y35522*X28589Y35532*X28578Y35541*X28566Y35550*X28553Y35559*X28540Y35567*X28527Y35575*X28514Y35582*X28501Y35589*X28487Y35596*X28473Y35601*X28459Y35607*X28445Y35612*X28430Y35616*X28416Y35620*X28401Y35624*X28386Y35626*X28371Y35629*X28356Y35631*X28341Y35632*X28326Y35633*X28311*X29210Y39910D2*Y39610D1*X28010*Y40210*X29210*Y39910*X29280D2*Y40210D1*X30480*Y39610*X29280*Y39910*X27420Y36410D2*X27720D1*Y37610*X27120*Y36410*X27420*Y36400D2*X27120D1*Y35200*X27720*Y36400*X27420*X30960Y34800D2*X31260D1*Y36000*X30660*Y34800D2*X30960D1*X30050Y34430D2*Y34130D1*X31250*Y34730*X30050*Y34430*X30360Y34800D2*X30660D1*Y36000*X30060*Y34800*X30360*X31570Y37200D2*X31870D1*Y38400*X31270*Y37200*X31570*X31270D2*Y36000D1*X31870*Y37200*X31260Y36000D2*X31560D1*X31260Y34800D2*X31860D1*Y36000*X31560*X30930Y37650D2*X30630D1*Y38850*X31230*Y37650*X30930*X24420Y34550D2*X24120D1*Y33350*X24720*X24420Y34550D2*X24720D1*X25020Y33350D2*X25320D1*Y34550*X24720*Y33350*X25020*X28311Y33600D2*Y34767D1*Y35633D2*Y36800D1*X29586*X28311Y33600D2*X29586D1*Y36800*X28030Y36890D2*Y38390D1*X28330Y38690*X29830*X28030Y36890D2*X29830D1*Y38690*X26630Y38080D2*Y38247D1*Y38163*X26130*X26214Y38080*X39086Y34767D2*X39101D1*X39116Y34768*X39131Y34769*X39146Y34771*X39161Y34774*X39176Y34776*X39191Y34780*X39205Y34784*X39220Y34788*X39234Y34793*X39248Y34799*X39262Y34804*X39276Y34811*X39289Y34818*X39302Y34825*X39315Y34833*X39328Y34841*X39341Y34850*X39353Y34859*X39364Y34868*X39376Y34878*X39387Y34889*X39397Y34899*X39408Y34910*X39418Y34922*X39427Y34933*X39436Y34945*X39445Y34958*X39453Y34971*X39461Y34984*X39468Y34997*X39475Y35010*X39482Y35024*X39487Y35038*X39493Y35052*X39498Y35066*X39502Y35081*X39506Y35095*X39510Y35110*X39512Y35125*X39515Y35140*X39517Y35155*X39518Y35170*X39519Y35185*Y35200*Y35215*X39518Y35230*X39517Y35245*X39515Y35260*X39512Y35275*X39510Y35290*X39506Y35305*X39502Y35319*X39498Y35334*X39493Y35348*X39487Y35362*X39482Y35376*X39475Y35390*X39468Y35403*X39461Y35417*X39453Y35429*X39445Y35442*X39436Y35455*X39427Y35467*X39418Y35478*X39408Y35490*X39397Y35501*X39387Y35511*X39376Y35522*X39364Y35532*X39353Y35541*X39341Y35550*X39328Y35559*X39315Y35567*X39302Y35575*X39289Y35582*X39276Y35589*X39262Y35596*X39248Y35601*X39234Y35607*X39220Y35612*X39205Y35616*X39191Y35620*X39176Y35624*X39161Y35626*X39146Y35629*X39131Y35631*X39116Y35632*X39101Y35633*X39086*X39985Y39910D2*Y39610D1*X38785*Y40210*X39985*Y39910*X40055D2*Y40210D1*X41255*Y39610*X40055*Y39910*X38195Y36410D2*X38495D1*Y37610*X37895*Y36410*X38195*Y36400D2*X37895D1*Y35200*X38495*Y36400*X38195*X41735Y34800D2*X42035D1*Y36000*X41435*Y34800D2*X41735D1*X40825Y34430D2*Y34130D1*X42025*Y34730*X40825*Y34430*X41135Y34800D2*X41435D1*Y36000*X40835*Y34800*X41135*X42345Y37200D2*X42645D1*Y38400*X42045*Y37200*X42345*X42045D2*Y36000D1*X42645*Y37200*X42035Y36000D2*X42335D1*X42035Y34800D2*X42635D1*Y36000*X42335*X41705Y37650D2*X41405D1*Y38850*X42005*Y37650*X41705*X35195Y34550D2*X34895D1*Y33350*X35495*X35195Y34550D2*X35495D1*X35795Y33350D2*X36095D1*Y34550*X35495*Y33350*X35795*X39086Y33600D2*Y34767D1*Y35633D2*Y36800D1*X40361*X39086Y33600D2*X40361D1*Y36800*X38805Y36890D2*Y38390D1*X39105Y38690*X40605*X38805Y36890D2*X40605D1*Y38690*X37405Y38080D2*Y38247D1*Y38163*X36905*X36989Y38080*X49861Y34767D2*X49876D1*X49891Y34768*X49906Y34769*X49921Y34771*X49936Y34774*X49951Y34776*X49966Y34780*X49980Y34784*X49995Y34788*X50009Y34793*X50023Y34799*X50037Y34804*X50051Y34811*X50064Y34818*X50077Y34825*X50090Y34833*X50103Y34841*X50116Y34850*X50128Y34859*X50139Y34868*X50151Y34878*X50162Y34889*X50172Y34899*X50183Y34910*X50193Y34922*X50202Y34933*X50211Y34945*X50220Y34958*X50228Y34971*X50236Y34984*X50243Y34997*X50250Y35010*X50257Y35024*X50262Y35038*X50268Y35052*X50273Y35066*X50277Y35081*X50281Y35095*X50285Y35110*X50287Y35125*X50290Y35140*X50292Y35155*X50293Y35170*X50294Y35185*Y35200*Y35215*X50293Y35230*X50292Y35245*X50290Y35260*X50287Y35275*X50285Y35290*X50281Y35305*X50277Y35319*X50273Y35334*X50268Y35348*X50262Y35362*X50257Y35376*X50250Y35390*X50243Y35403*X50236Y35417*X50228Y35429*X50220Y35442*X50211Y35455*X50202Y35467*X50193Y35478*X50183Y35490*X50172Y35501*X50162Y35511*X50151Y35522*X50139Y35532*X50128Y35541*X50116Y35550*X50103Y35559*X50090Y35567*X50077Y35575*X50064Y35582*X50051Y35589*X50037Y35596*X50023Y35601*X50009Y35607*X49995Y35612*X49980Y35616*X49966Y35620*X49951Y35624*X49936Y35626*X49921Y35629*X49906Y35631*X49891Y35632*X49876Y35633*X49861*X50760Y39910D2*Y39610D1*X49560*Y40210*X50760*Y39910*X50830D2*Y40210D1*X52030*Y39610*X50830*Y39910*X48970Y36410D2*X49270D1*Y37610*X48670*Y36410*X48970*Y36400D2*X48670D1*Y35200*X49270*Y36400*X48970*X52510Y34800D2*X52810D1*Y36000*X52210*Y34800D2*X52510D1*X51600Y34430D2*Y34130D1*X52800*Y34730*X51600*Y34430*X51910Y34800D2*X52210D1*Y36000*X51610*Y34800*X51910*X53120Y37200D2*X53420D1*Y38400*X52820*Y37200*X53120*X52820D2*Y36000D1*X53420*Y37200*X52810Y36000D2*X53110D1*X52810Y34800D2*X53410D1*Y36000*X53110*X52480Y37650D2*X52180D1*Y38850*X52780*Y37650*X52480*X45970Y34550D2*X45670D1*Y33350*X46270*X45970Y34550D2*X46270D1*X46570Y33350D2*X46870D1*Y34550*X46270*Y33350*X46570*X49861Y33600D2*Y34767D1*Y35633D2*Y36800D1*X51136*X49861Y33600D2*X51136D1*Y36800*X49580Y36890D2*Y38390D1*X49880Y38690*X51380*X49580Y36890D2*X51380D1*Y38690*X48180Y38080D2*Y38247D1*Y38163*X47680*X47764Y38080*X60636Y34767D2*X60651D1*X60666Y34768*X60681Y34769*X60696Y34771*X60711Y34774*X60726Y34776*X60741Y34780*X60755Y34784*X60770Y34788*X60784Y34793*X60798Y34799*X60812Y34804*X60826Y34811*X60839Y34818*X60852Y34825*X60865Y34833*X60878Y34841*X60891Y34850*X60903Y34859*X60914Y34868*X60926Y34878*X60937Y34889*X60947Y34899*X60958Y34910*X60968Y34922*X60977Y34933*X60986Y34945*X60995Y34958*X61003Y34971*X61011Y34984*X61018Y34997*X61025Y35010*X61032Y35024*X61037Y35038*X61043Y35052*X61048Y35066*X61052Y35081*X61056Y35095*X61060Y35110*X61062Y35125*X61065Y35140*X61067Y35155*X61068Y35170*X61069Y35185*Y35200*Y35215*X61068Y35230*X61067Y35245*X61065Y35260*X61062Y35275*X61060Y35290*X61056Y35305*X61052Y35319*X61048Y35334*X61043Y35348*X61037Y35362*X61032Y35376*X61025Y35390*X61018Y35403*X61011Y35417*X61003Y35429*X60995Y35442*X60986Y35455*X60977Y35467*X60968Y35478*X60958Y35490*X60947Y35501*X60937Y35511*X60926Y35522*X60914Y35532*X60903Y35541*X60891Y35550*X60878Y35559*X60865Y35567*X60852Y35575*X60839Y35582*X60826Y35589*X60812Y35596*X60798Y35601*X60784Y35607*X60770Y35612*X60755Y35616*X60741Y35620*X60726Y35624*X60711Y35626*X60696Y35629*X60681Y35631*X60666Y35632*X60651Y35633*X60636*X61535Y39910D2*Y39610D1*X60335*Y40210*X61535*Y39910*X61605D2*Y40210D1*X62805*Y39610*X61605*Y39910*X59745Y36410D2*X60045D1*Y37610*X59445*Y36410*X59745*Y36400D2*X59445D1*Y35200*X60045*Y36400*X59745*X63285Y34800D2*X63585D1*Y36000*X62985*Y34800D2*X63285D1*X62375Y34430D2*Y34130D1*X63575*Y34730*X62375*Y34430*X62685Y34800D2*X62985D1*Y36000*X62385*Y34800*X62685*X63895Y37200D2*X64195D1*Y38400*X63595*Y37200*X63895*X63595D2*Y36000D1*X64195*Y37200*X63585Y36000D2*X63885D1*X63585Y34800D2*X64185D1*Y36000*X63885*X63255Y37650D2*X62955D1*Y38850*X63555*Y37650*X63255*X56745Y34550D2*X56445D1*Y33350*X57045*X56745Y34550D2*X57045D1*X57345Y33350D2*X57645D1*Y34550*X57045*Y33350*X57345*X60636Y33600D2*Y34767D1*Y35633D2*Y36800D1*X61911*X60636Y33600D2*X61911D1*Y36800*X60355Y36890D2*Y38390D1*X60655Y38690*X62155*X60355Y36890D2*X62155D1*Y38690*X58955Y38080D2*Y38247D1*Y38163*X58455*X58539Y38080*X71411Y34767D2*X71426D1*X71441Y34768*X71456Y34769*X71471Y34771*X71486Y34774*X71501Y34776*X71516Y34780*X71530Y34784*X71545Y34788*X71559Y34793*X71573Y34799*X71587Y34804*X71601Y34811*X71614Y34818*X71627Y34825*X71640Y34833*X71653Y34841*X71666Y34850*X71678Y34859*X71689Y34868*X71701Y34878*X71712Y34889*X71722Y34899*X71733Y34910*X71743Y34922*X71752Y34933*X71761Y34945*X71770Y34958*X71778Y34971*X71786Y34984*X71793Y34997*X71800Y35010*X71807Y35024*X71812Y35038*X71818Y35052*X71823Y35066*X71827Y35081*X71831Y35095*X71835Y35110*X71837Y35125*X71840Y35140*X71842Y35155*X71843Y35170*X71844Y35185*Y35200*Y35215*X71843Y35230*X71842Y35245*X71840Y35260*X71837Y35275*X71835Y35290*X71831Y35305*X71827Y35319*X71823Y35334*X71818Y35348*X71812Y35362*X71807Y35376*X71800Y35390*X71793Y35403*X71786Y35417*X71778Y35429*X71770Y35442*X71761Y35455*X71752Y35467*X71743Y35478*X71733Y35490*X71722Y35501*X71712Y35511*X71701Y35522*X71689Y35532*X71678Y35541*X71666Y35550*X71653Y35559*X71640Y35567*X71627Y35575*X71614Y35582*X71601Y35589*X71587Y35596*X71573Y35601*X71559Y35607*X71545Y35612*X71530Y35616*X71516Y35620*X71501Y35624*X71486Y35626*X71471Y35629*X71456Y35631*X71441Y35632*X71426Y35633*X71411*X72310Y39910D2*Y39610D1*X71110*Y40210*X72310*Y39910*X72380D2*Y40210D1*X73580*Y39610*X72380*Y39910*X70520Y36410D2*X70820D1*Y37610*X70220*Y36410*X70520*Y36400D2*X70220D1*Y35200*X70820*Y36400*X70520*X74060Y34800D2*X74360D1*Y36000*X73760*Y34800D2*X74060D1*X73150Y34430D2*Y34130D1*X74350*Y34730*X73150*Y34430*X73460Y34800D2*X73760D1*Y36000*X73160*Y34800*X73460*X74670Y37200D2*X74970D1*Y38400*X74370*Y37200*X74670*X74370D2*Y36000D1*X74970*Y37200*X74360Y36000D2*X74660D1*X74360Y34800D2*X74960D1*Y36000*X74660*X74030Y37650D2*X73730D1*Y38850*X74330*Y37650*X74030*X67520Y34550D2*X67220D1*Y33350*X67820*X67520Y34550D2*X67820D1*X68120Y33350D2*X68420D1*Y34550*X67820*Y33350*X68120*X71411Y33600D2*Y34767D1*Y35633D2*Y36800D1*X72686*X71411Y33600D2*X72686D1*Y36800*X71130Y36890D2*Y38390D1*X71430Y38690*X72930*X71130Y36890D2*X72930D1*Y38690*X69730Y38080D2*Y38247D1*Y38163*X69230*X69314Y38080*X82186Y34767D2*X82201D1*X82216Y34768*X82231Y34769*X82246Y34771*X82261Y34774*X82276Y34776*X82291Y34780*X82305Y34784*X82320Y34788*X82334Y34793*X82348Y34799*X82362Y34804*X82376Y34811*X82389Y34818*X82402Y34825*X82415Y34833*X82428Y34841*X82441Y34850*X82453Y34859*X82464Y34868*X82476Y34878*X82487Y34889*X82497Y34899*X82508Y34910*X82518Y34922*X82527Y34933*X82536Y34945*X82545Y34958*X82553Y34971*X82561Y34984*X82568Y34997*X82575Y35010*X82582Y35024*X82587Y35038*X82593Y35052*X82598Y35066*X82602Y35081*X82606Y35095*X82610Y35110*X82612Y35125*X82615Y35140*X82617Y35155*X82618Y35170*X82619Y35185*Y35200*Y35215*X82618Y35230*X82617Y35245*X82615Y35260*X82612Y35275*X82610Y35290*X82606Y35305*X82602Y35319*X82598Y35334*X82593Y35348*X82587Y35362*X82582Y35376*X82575Y35390*X82568Y35403*X82561Y35417*X82553Y35429*X82545Y35442*X82536Y35455*X82527Y35467*X82518Y35478*X82508Y35490*X82497Y35501*X82487Y35511*X82476Y35522*X82464Y35532*X82453Y35541*X82441Y35550*X82428Y35559*X82415Y35567*X82402Y35575*X82389Y35582*X82376Y35589*X82362Y35596*X82348Y35601*X82334Y35607*X82320Y35612*X82305Y35616*X82291Y35620*X82276Y35624*X82261Y35626*X82246Y35629*X82231Y35631*X82216Y35632*X82201Y35633*X82186*X83085Y39910D2*Y39610D1*X81885*Y40210*X83085*Y39910*X83155D2*Y40210D1*X84355*Y39610*X83155*Y39910*X81295Y36410D2*X81595D1*Y37610*X80995*Y36410*X81295*Y36400D2*X80995D1*Y35200*X81595*Y36400*X81295*X84835Y34800D2*X85135D1*Y36000*X84535*Y34800D2*X84835D1*X83925Y34430D2*Y34130D1*X85125*Y34730*X83925*Y34430*X84235Y34800D2*X84535D1*Y36000*X83935*Y34800*X84235*X85445Y37200D2*X85745D1*Y38400*X85145*Y37200*X85445*X85145D2*Y36000D1*X85745*Y37200*X85135Y36000D2*X85435D1*X85135Y34800D2*X85735D1*Y36000*X85435*X84805Y37650D2*X84505D1*Y38850*X85105*Y37650*X84805*X78295Y34550D2*X77995D1*Y33350*X78595*X78295Y34550D2*X78595D1*X78895Y33350D2*X79195D1*Y34550*X78595*Y33350*X78895*X82186Y33600D2*Y34767D1*Y35633D2*Y36800D1*X83461*X82186Y33600D2*X83461D1*Y36800*X81905Y36890D2*Y38390D1*X82205Y38690*X83705*X81905Y36890D2*X83705D1*Y38690*X80505Y38080D2*Y38247D1*Y38163*X80005*X80089Y38080*X92961Y34767D2*X92976D1*X92991Y34768*X93006Y34769*X93021Y34771*X93036Y34774*X93051Y34776*X93066Y34780*X93080Y34784*X93095Y34788*X93109Y34793*X93123Y34799*X93137Y34804*X93151Y34811*X93164Y34818*X93177Y34825*X93190Y34833*X93203Y34841*X93216Y34850*X93228Y34859*X93239Y34868*X93251Y34878*X93262Y34889*X93272Y34899*X93283Y34910*X93293Y34922*X93302Y34933*X93311Y34945*X93320Y34958*X93328Y34971*X93336Y34984*X93343Y34997*X93350Y35010*X93357Y35024*X93362Y35038*X93368Y35052*X93373Y35066*X93377Y35081*X93381Y35095*X93385Y35110*X93387Y35125*X93390Y35140*X93392Y35155*X93393Y35170*X93394Y35185*Y35200*Y35215*X93393Y35230*X93392Y35245*X93390Y35260*X93387Y35275*X93385Y35290*X93381Y35305*X93377Y35319*X93373Y35334*X93368Y35348*X93362Y35362*X93357Y35376*X93350Y35390*X93343Y35403*X93336Y35417*X93328Y35429*X93320Y35442*X93311Y35455*X93302Y35467*X93293Y35478*X93283Y35490*X93272Y35501*X93262Y35511*X93251Y35522*X93239Y35532*X93228Y35541*X93216Y35550*X93203Y35559*X93190Y35567*X93177Y35575*X93164Y35582*X93151Y35589*X93137Y35596*X93123Y35601*X93109Y35607*X93095Y35612*X93080Y35616*X93066Y35620*X93051Y35624*X93036Y35626*X93021Y35629*X93006Y35631*X92991Y35632*X92976Y35633*X92961*X93860Y39910D2*Y39610D1*X92660*Y40210*X93860*Y39910*X93930D2*Y40210D1*X95130*Y39610*X93930*Y39910*X92070Y36410D2*X92370D1*Y37610*X91770*Y36410*X92070*Y36400D2*X91770D1*Y35200*X92370*Y36400*X92070*X95610Y34800D2*X95910D1*Y36000*X95310*Y34800D2*X95610D1*X94700Y34430D2*Y34130D1*X95900*Y34730*X94700*Y34430*X95010Y34800D2*X95310D1*Y36000*X94710*Y34800*X95010*X96220Y37200D2*X96520D1*Y38400*X95920*Y37200*X96220*X95920D2*Y36000D1*X96520*Y37200*X95910Y36000D2*X96210D1*X95910Y34800D2*X96510D1*Y36000*X96210*X95580Y37650D2*X95280D1*Y38850*X95880*Y37650*X95580*X89070Y34550D2*X88770D1*Y33350*X89370*X89070Y34550D2*X89370D1*X89670Y33350D2*X89970D1*Y34550*X89370*Y33350*X89670*X92961Y33600D2*Y34767D1*Y35633D2*Y36800D1*X94236*X92961Y33600D2*X94236D1*Y36800*X92680Y36890D2*Y38390D1*X92980Y38690*X94480*X92680Y36890D2*X94480D1*Y38690*X91280Y38080D2*Y38247D1*Y38163*X90780*X90864Y38080*X92961Y24877D2*X92976D1*X92991Y24878*X93006Y24879*X93021Y24881*X93036Y24884*X93051Y24886*X93066Y24890*X93080Y24894*X93095Y24898*X93109Y24903*X93123Y24909*X93137Y24914*X93151Y24921*X93164Y24928*X93177Y24935*X93190Y24943*X93203Y24951*X93216Y24960*X93228Y24969*X93239Y24978*X93251Y24988*X93262Y24999*X93272Y25009*X93283Y25020*X93293Y25032*X93302Y25043*X93311Y25055*X93320Y25068*X93328Y25081*X93336Y25094*X93343Y25107*X93350Y25120*X93357Y25134*X93362Y25148*X93368Y25162*X93373Y25176*X93377Y25191*X93381Y25205*X93385Y25220*X93387Y25235*X93390Y25250*X93392Y25265*X93393Y25280*X93394Y25295*Y25310*Y25325*X93393Y25340*X93392Y25355*X93390Y25370*X93387Y25385*X93385Y25400*X93381Y25415*X93377Y25429*X93373Y25444*X93368Y25458*X93362Y25472*X93357Y25486*X93350Y25500*X93343Y25513*X93336Y25527*X93328Y25539*X93320Y25552*X93311Y25565*X93302Y25577*X93293Y25588*X93283Y25600*X93272Y25611*X93262Y25621*X93251Y25632*X93239Y25642*X93228Y25651*X93216Y25660*X93203Y25669*X93190Y25677*X93177Y25685*X93164Y25692*X93151Y25699*X93137Y25706*X93123Y25711*X93109Y25717*X93095Y25722*X93080Y25726*X93066Y25730*X93051Y25734*X93036Y25736*X93021Y25739*X93006Y25741*X92991Y25742*X92976Y25743*X92961*X93860Y30020D2*Y29720D1*X92660*Y30320*X93860*Y30020*X93930D2*Y30320D1*X95130*Y29720*X93930*Y30020*X92070Y26520D2*X92370D1*Y27720*X91770*Y26520*X92070*Y26510D2*X91770D1*Y25310*X92370*Y26510*X92070*X95610Y24910D2*X95910D1*Y26110*X95310*Y24910D2*X95610D1*X94700Y24540D2*Y24240D1*X95900*Y24840*X94700*Y24540*X95010Y24910D2*X95310D1*Y26110*X94710*Y24910*X95010*X96220Y27310D2*X96520D1*Y28510*X95920*Y27310*X96220*X95920D2*Y26110D1*X96520*Y27310*X95910Y26110D2*X96210D1*X95910Y24910D2*X96510D1*Y26110*X96210*X95580Y27760D2*X95280D1*Y28960*X95880*Y27760*X95580*X89070Y24660D2*X88770D1*Y23460*X89370*X89070Y24660D2*X89370D1*X89670Y23460D2*X89970D1*Y24660*X89370*Y23460*X89670*X92961Y23710D2*Y24877D1*Y25743D2*Y26910D1*X94236*X92961Y23710D2*X94236D1*Y26910*X92680Y27000D2*Y28500D1*X92980Y28800*X94480*X92680Y27000D2*X94480D1*Y28800*X91280Y28190D2*Y28357D1*Y28273*X90780*X90864Y28190*X82186Y24877D2*X82201D1*X82216Y24878*X82231Y24879*X82246Y24881*X82261Y24884*X82276Y24886*X82291Y24890*X82305Y24894*X82320Y24898*X82334Y24903*X82348Y24909*X82362Y24914*X82376Y24921*X82389Y24928*X82402Y24935*X82415Y24943*X82428Y24951*X82441Y24960*X82453Y24969*X82464Y24978*X82476Y24988*X82487Y24999*X82497Y25009*X82508Y25020*X82518Y25032*X82527Y25043*X82536Y25055*X82545Y25068*X82553Y25081*X82561Y25094*X82568Y25107*X82575Y25120*X82582Y25134*X82587Y25148*X82593Y25162*X82598Y25176*X82602Y25191*X82606Y25205*X82610Y25220*X82612Y25235*X82615Y25250*X82617Y25265*X82618Y25280*X82619Y25295*Y25310*Y25325*X82618Y25340*X82617Y25355*X82615Y25370*X82612Y25385*X82610Y25400*X82606Y25415*X82602Y25429*X82598Y25444*X82593Y25458*X82587Y25472*X82582Y25486*X82575Y25500*X82568Y25513*X82561Y25527*X82553Y25539*X82545Y25552*X82536Y25565*X82527Y25577*X82518Y25588*X82508Y25600*X82497Y25611*X82487Y25621*X82476Y25632*X82464Y25642*X82453Y25651*X82441Y25660*X82428Y25669*X82415Y25677*X82402Y25685*X82389Y25692*X82376Y25699*X82362Y25706*X82348Y25711*X82334Y25717*X82320Y25722*X82305Y25726*X82291Y25730*X82276Y25734*X82261Y25736*X82246Y25739*X82231Y25741*X82216Y25742*X82201Y25743*X82186*X83085Y30020D2*Y29720D1*X81885*Y30320*X83085*Y30020*X83155D2*Y30320D1*X84355*Y29720*X83155*Y30020*X81295Y26520D2*X81595D1*Y27720*X80995*Y26520*X81295*Y26510D2*X80995D1*Y25310*X81595*Y26510*X81295*X84835Y24910D2*X85135D1*Y26110*X84535*Y24910D2*X84835D1*X83925Y24540D2*Y24240D1*X85125*Y24840*X83925*Y24540*X84235Y24910D2*X84535D1*Y26110*X83935*Y24910*X84235*X85445Y27310D2*X85745D1*Y28510*X85145*Y27310*X85445*X85145D2*Y26110D1*X85745*Y27310*X85135Y26110D2*X85435D1*X85135Y24910D2*X85735D1*Y26110*X85435*X84805Y27760D2*X84505D1*Y28960*X85105*Y27760*X84805*X78295Y24660D2*X77995D1*Y23460*X78595*X78295Y24660D2*X78595D1*X78895Y23460D2*X79195D1*Y24660*X78595*Y23460*X78895*X82186Y23710D2*Y24877D1*Y25743D2*Y26910D1*X83461*X82186Y23710D2*X83461D1*Y26910*X81905Y27000D2*Y28500D1*X82205Y28800*X83705*X81905Y27000D2*X83705D1*Y28800*X80505Y28190D2*Y28357D1*Y28273*X80005*X80089Y28190*X71411Y24877D2*X71426D1*X71441Y24878*X71456Y24879*X71471Y24881*X71486Y24884*X71501Y24886*X71516Y24890*X71530Y24894*X71545Y24898*X71559Y24903*X71573Y24909*X71587Y24914*X71601Y24921*X71614Y24928*X71627Y24935*X71640Y24943*X71653Y24951*X71666Y24960*X71678Y24969*X71689Y24978*X71701Y24988*X71712Y24999*X71722Y25009*X71733Y25020*X71743Y25032*X71752Y25043*X71761Y25055*X71770Y25068*X71778Y25081*X71786Y25094*X71793Y25107*X71800Y25120*X71807Y25134*X71812Y25148*X71818Y25162*X71823Y25176*X71827Y25191*X71831Y25205*X71835Y25220*X71837Y25235*X71840Y25250*X71842Y25265*X71843Y25280*X71844Y25295*Y25310*Y25325*X71843Y25340*X71842Y25355*X71840Y25370*X71837Y25385*X71835Y25400*X71831Y25415*X71827Y25429*X71823Y25444*X71818Y25458*X71812Y25472*X71807Y25486*X71800Y25500*X71793Y25513*X71786Y25527*X71778Y25539*X71770Y25552*X71761Y25565*X71752Y25577*X71743Y25588*X71733Y25600*X71722Y25611*X71712Y25621*X71701Y25632*X71689Y25642*X71678Y25651*X71666Y25660*X71653Y25669*X71640Y25677*X71627Y25685*X71614Y25692*X71601Y25699*X71587Y25706*X71573Y25711*X71559Y25717*X71545Y25722*X71530Y25726*X71516Y25730*X71501Y25734*X71486Y25736*X71471Y25739*X71456Y25741*X71441Y25742*X71426Y25743*X71411*X72310Y30020D2*Y29720D1*X71110*Y30320*X72310*Y30020*X72380D2*Y30320D1*X73580*Y29720*X72380*Y30020*X70520Y26520D2*X70820D1*Y27720*X70220*Y26520*X70520*Y26510D2*X70220D1*Y25310*X70820*Y26510*X70520*X74060Y24910D2*X74360D1*Y26110*X73760*Y24910D2*X74060D1*X73150Y24540D2*Y24240D1*X74350*Y24840*X73150*Y24540*X73460Y24910D2*X73760D1*Y26110*X73160*Y24910*X73460*X74670Y27310D2*X74970D1*Y28510*X74370*Y27310*X74670*X74370D2*Y26110D1*X74970*Y27310*X74360Y26110D2*X74660D1*X74360Y24910D2*X74960D1*Y26110*X74660*X74030Y27760D2*X73730D1*Y28960*X74330*Y27760*X74030*X67520Y24660D2*X67220D1*Y23460*X67820*X67520Y24660D2*X67820D1*X68120Y23460D2*X68420D1*Y24660*X67820*Y23460*X68120*X71411Y23710D2*Y24877D1*Y25743D2*Y26910D1*X72686*X71411Y23710D2*X72686D1*Y26910*X71130Y27000D2*Y28500D1*X71430Y28800*X72930*X71130Y27000D2*X72930D1*Y28800*X69730Y28190D2*Y28357D1*Y28273*X69230*X69314Y28190*X60636Y24877D2*X60651D1*X60666Y24878*X60681Y24879*X60696Y24881*X60711Y24884*X60726Y24886*X60741Y24890*X60755Y24894*X60770Y24898*X60784Y24903*X60798Y24909*X60812Y24914*X60826Y24921*X60839Y24928*X60852Y24935*X60865Y24943*X60878Y24951*X60891Y24960*X60903Y24969*X60914Y24978*X60926Y24988*X60937Y24999*X60947Y25009*X60958Y25020*X60968Y25032*X60977Y25043*X60986Y25055*X60995Y25068*X61003Y25081*X61011Y25094*X61018Y25107*X61025Y25120*X61032Y25134*X61037Y25148*X61043Y25162*X61048Y25176*X61052Y25191*X61056Y25205*X61060Y25220*X61062Y25235*X61065Y25250*X61067Y25265*X61068Y25280*X61069Y25295*Y25310*Y25325*X61068Y25340*X61067Y25355*X61065Y25370*X61062Y25385*X61060Y25400*X61056Y25415*X61052Y25429*X61048Y25444*X61043Y25458*X61037Y25472*X61032Y25486*X61025Y25500*X61018Y25513*X61011Y25527*X61003Y25539*X60995Y25552*X60986Y25565*X60977Y25577*X60968Y25588*X60958Y25600*X60947Y25611*X60937Y25621*X60926Y25632*X60914Y25642*X60903Y25651*X60891Y25660*X60878Y25669*X60865Y25677*X60852Y25685*X60839Y25692*X60826Y25699*X60812Y25706*X60798Y25711*X60784Y25717*X60770Y25722*X60755Y25726*X60741Y25730*X60726Y25734*X60711Y25736*X60696Y25739*X60681Y25741*X60666Y25742*X60651Y25743*X60636*X61535Y30020D2*Y29720D1*X60335*Y30320*X61535*Y30020*X61605D2*Y30320D1*X62805*Y29720*X61605*Y30020*X59745Y26520D2*X60045D1*Y27720*X59445*Y26520*X59745*Y26510D2*X59445D1*Y25310*X60045*Y26510*X59745*X63285Y24910D2*X63585D1*Y26110*X62985*Y24910D2*X63285D1*X62375Y24540D2*Y24240D1*X63575*Y24840*X62375*Y24540*X62685Y24910D2*X62985D1*Y26110*X62385*Y24910*X62685*X63895Y27310D2*X64195D1*Y28510*X63595*Y27310*X63895*X63595D2*Y26110D1*X64195*Y27310*X63585Y26110D2*X63885D1*X63585Y24910D2*X64185D1*Y26110*X63885*X63255Y27760D2*X62955D1*Y28960*X63555*Y27760*X63255*X56745Y24660D2*X56445D1*Y23460*X57045*X56745Y24660D2*X57045D1*X57345Y23460D2*X57645D1*Y24660*X57045*Y23460*X57345*X60636Y23710D2*Y24877D1*Y25743D2*Y26910D1*X61911*X60636Y23710D2*X61911D1*Y26910*X60355Y27000D2*Y28500D1*X60655Y28800*X62155*X60355Y27000D2*X62155D1*Y28800*X58955Y28190D2*Y28357D1*Y28273*X58455*X58539Y28190*X49861Y24877D2*X49876D1*X49891Y24878*X49906Y24879*X49921Y24881*X49936Y24884*X49951Y24886*X49966Y24890*X49980Y24894*X49995Y24898*X50009Y24903*X50023Y24909*X50037Y24914*X50051Y24921*X50064Y24928*X50077Y24935*X50090Y24943*X50103Y24951*X50116Y24960*X50128Y24969*X50139Y24978*X50151Y24988*X50162Y24999*X50172Y25009*X50183Y25020*X50193Y25032*X50202Y25043*X50211Y25055*X50220Y25068*X50228Y25081*X50236Y25094*X50243Y25107*X50250Y25120*X50257Y25134*X50262Y25148*X50268Y25162*X50273Y25176*X50277Y25191*X50281Y25205*X50285Y25220*X50287Y25235*X50290Y25250*X50292Y25265*X50293Y25280*X50294Y25295*Y25310*Y25325*X50293Y25340*X50292Y25355*X50290Y25370*X50287Y25385*X50285Y25400*X50281Y25415*X50277Y25429*X50273Y25444*X50268Y25458*X50262Y25472*X50257Y25486*X50250Y25500*X50243Y25513*X50236Y25527*X50228Y25539*X50220Y25552*X50211Y25565*X50202Y25577*X50193Y25588*X50183Y25600*X50172Y25611*X50162Y25621*X50151Y25632*X50139Y25642*X50128Y25651*X50116Y25660*X50103Y25669*X50090Y25677*X50077Y25685*X50064Y25692*X50051Y25699*X50037Y25706*X50023Y25711*X50009Y25717*X49995Y25722*X49980Y25726*X49966Y25730*X49951Y25734*X49936Y25736*X49921Y25739*X49906Y25741*X49891Y25742*X49876Y25743*X49861*X50760Y30020D2*Y29720D1*X49560*Y30320*X50760*Y30020*X50830D2*Y30320D1*X52030*Y29720*X50830*Y30020*X48970Y26520D2*X49270D1*Y27720*X48670*Y26520*X48970*Y26510D2*X48670D1*Y25310*X49270*Y26510*X48970*X52510Y24910D2*X52810D1*Y26110*X52210*Y24910D2*X52510D1*X51600Y24540D2*Y24240D1*X52800*Y24840*X51600*Y24540*X51910Y24910D2*X52210D1*Y26110*X51610*Y24910*X51910*X53120Y27310D2*X53420D1*Y28510*X52820*Y27310*X53120*X52820D2*Y26110D1*X53420*Y27310*X52810Y26110D2*X53110D1*X52810Y24910D2*X53410D1*Y26110*X53110*X52480Y27760D2*X52180D1*Y28960*X52780*Y27760*X52480*X45970Y24660D2*X45670D1*Y23460*X46270*X45970Y24660D2*X46270D1*X46570Y23460D2*X46870D1*Y24660*X46270*Y23460*X46570*X49861Y23710D2*Y24877D1*Y25743D2*Y26910D1*X51136*X49861Y23710D2*X51136D1*Y26910*X49580Y27000D2*Y28500D1*X49880Y28800*X51380*X49580Y27000D2*X51380D1*Y28800*X48180Y28190D2*Y28357D1*Y28273*X47680*X47764Y28190*X39086Y24877D2*X39101D1*X39116Y24878*X39131Y24879*X39146Y24881*X39161Y24884*X39176Y24886*X39191Y24890*X39205Y24894*X39220Y24898*X39234Y24903*X39248Y24909*X39262Y24914*X39276Y24921*X39289Y24928*X39302Y24935*X39315Y24943*X39328Y24951*X39341Y24960*X39353Y24969*X39364Y24978*X39376Y24988*X39387Y24999*X39397Y25009*X39408Y25020*X39418Y25032*X39427Y25043*X39436Y25055*X39445Y25068*X39453Y25081*X39461Y25094*X39468Y25107*X39475Y25120*X39482Y25134*X39487Y25148*X39493Y25162*X39498Y25176*X39502Y25191*X39506Y25205*X39510Y25220*X39512Y25235*X39515Y25250*X39517Y25265*X39518Y25280*X39519Y25295*Y25310*Y25325*X39518Y25340*X39517Y25355*X39515Y25370*X39512Y25385*X39510Y25400*X39506Y25415*X39502Y25429*X39498Y25444*X39493Y25458*X39487Y25472*X39482Y25486*X39475Y25500*X39468Y25513*X39461Y25527*X39453Y25539*X39445Y25552*X39436Y25565*X39427Y25577*X39418Y25588*X39408Y25600*X39397Y25611*X39387Y25621*X39376Y25632*X39364Y25642*X39353Y25651*X39341Y25660*X39328Y25669*X39315Y25677*X39302Y25685*X39289Y25692*X39276Y25699*X39262Y25706*X39248Y25711*X39234Y25717*X39220Y25722*X39205Y25726*X39191Y25730*X39176Y25734*X39161Y25736*X39146Y25739*X39131Y25741*X39116Y25742*X39101Y25743*X39086*X39985Y30020D2*Y29720D1*X38785*Y30320*X39985*Y30020*X40055D2*Y30320D1*X41255*Y29720*X40055*Y30020*X38195Y26520D2*X38495D1*Y27720*X37895*Y26520*X38195*Y26510D2*X37895D1*Y25310*X38495*Y26510*X38195*X41735Y24910D2*X42035D1*Y26110*X41435*Y24910D2*X41735D1*X40825Y24540D2*Y24240D1*X42025*Y24840*X40825*Y24540*X41135Y24910D2*X41435D1*Y26110*X40835*Y24910*X41135*X42345Y27310D2*X42645D1*Y28510*X42045*Y27310*X42345*X42045D2*Y26110D1*X42645*Y27310*X42035Y26110D2*X42335D1*X42035Y24910D2*X42635D1*Y26110*X42335*X41705Y27760D2*X41405D1*Y28960*X42005*Y27760*X41705*X35195Y24660D2*X34895D1*Y23460*X35495*X35195Y24660D2*X35495D1*X35795Y23460D2*X36095D1*Y24660*X35495*Y23460*X35795*X39086Y23710D2*Y24877D1*Y25743D2*Y26910D1*X40361*X39086Y23710D2*X40361D1*Y26910*X38805Y27000D2*Y28500D1*X39105Y28800*X40605*X38805Y27000D2*X40605D1*Y28800*X37405Y28190D2*Y28357D1*Y28273*X36905*X36989Y28190*X28311Y24877D2*X28326D1*X28341Y24878*X28356Y24879*X28371Y24881*X28386Y24884*X28401Y24886*X28416Y24890*X28430Y24894*X28445Y24898*X28459Y24903*X28473Y24909*X28487Y24914*X28501Y24921*X28514Y24928*X28527Y24935*X28540Y24943*X28553Y24951*X28566Y24960*X28578Y24969*X28589Y24978*X28601Y24988*X28612Y24999*X28622Y25009*X28633Y25020*X28643Y25032*X28652Y25043*X28661Y25055*X28670Y25068*X28678Y25081*X28686Y25094*X28693Y25107*X28700Y25120*X28707Y25134*X28712Y25148*X28718Y25162*X28723Y25176*X28727Y25191*X28731Y25205*X28735Y25220*X28737Y25235*X28740Y25250*X28742Y25265*X28743Y25280*X28744Y25295*Y25310*Y25325*X28743Y25340*X28742Y25355*X28740Y25370*X28737Y25385*X28735Y25400*X28731Y25415*X28727Y25429*X28723Y25444*X28718Y25458*X28712Y25472*X28707Y25486*X28700Y25500*X28693Y25513*X28686Y25527*X28678Y25539*X28670Y25552*X28661Y25565*X28652Y25577*X28643Y25588*X28633Y25600*X28622Y25611*X28612Y25621*X28601Y25632*X28589Y25642*X28578Y25651*X28566Y25660*X28553Y25669*X28540Y25677*X28527Y25685*X28514Y25692*X28501Y25699*X28487Y25706*X28473Y25711*X28459Y25717*X28445Y25722*X28430Y25726*X28416Y25730*X28401Y25734*X28386Y25736*X28371Y25739*X28356Y25741*X28341Y25742*X28326Y25743*X28311*X29210Y30020D2*Y29720D1*X28010*Y30320*X29210*Y30020*X29280D2*Y30320D1*X30480*Y29720*X29280*Y30020*X27420Y26520D2*X27720D1*Y27720*X27120*Y26520*X27420*Y26510D2*X27120D1*Y25310*X27720*Y26510*X27420*X30960Y24910D2*X31260D1*Y26110*X30660*Y24910D2*X30960D1*X30050Y24540D2*Y24240D1*X31250*Y24840*X30050*Y24540*X30360Y24910D2*X30660D1*Y26110*X30060*Y24910*X30360*X31570Y27310D2*X31870D1*Y28510*X31270*Y27310*X31570*X31270D2*Y26110D1*X31870*Y27310*X31260Y26110D2*X31560D1*X31260Y24910D2*X31860D1*Y26110*X31560*X30930Y27760D2*X30630D1*Y28960*X31230*Y27760*X30930*X24420Y24660D2*X24120D1*Y23460*X24720*X24420Y24660D2*X24720D1*X25020Y23460D2*X25320D1*Y24660*X24720*Y23460*X25020*X28311Y23710D2*Y24877D1*Y25743D2*Y26910D1*X29586*X28311Y23710D2*X29586D1*Y26910*X28030Y27000D2*Y28500D1*X28330Y28800*X29830*X28030Y27000D2*X29830D1*Y28800*X26630Y28190D2*Y28357D1*Y28273*X26130*X26214Y28190*X17536Y24877D2*X17551D1*X17566Y24878*X17581Y24879*X17596Y24881*X17611Y24884*X17626Y24886*X17641Y24890*X17655Y24894*X17670Y24898*X17684Y24903*X17698Y24909*X17712Y24914*X17726Y24921*X17739Y24928*X17752Y24935*X17765Y24943*X17778Y24951*X17791Y24960*X17803Y24969*X17814Y24978*X17826Y24988*X17837Y24999*X17847Y25009*X17858Y25020*X17868Y25032*X17877Y25043*X17886Y25055*X17895Y25068*X17903Y25081*X17911Y25094*X17918Y25107*X17925Y25120*X17932Y25134*X17937Y25148*X17943Y25162*X17948Y25176*X17952Y25191*X17956Y25205*X17960Y25220*X17962Y25235*X17965Y25250*X17967Y25265*X17968Y25280*X17969Y25295*Y25310*Y25325*X17968Y25340*X17967Y25355*X17965Y25370*X17962Y25385*X17960Y25400*X17956Y25415*X17952Y25429*X17948Y25444*X17943Y25458*X17937Y25472*X17932Y25486*X17925Y25500*X17918Y25513*X17911Y25527*X17903Y25539*X17895Y25552*X17886Y25565*X17877Y25577*X17868Y25588*X17858Y25600*X17847Y25611*X17837Y25621*X17826Y25632*X17814Y25642*X17803Y25651*X17791Y25660*X17778Y25669*X17765Y25677*X17752Y25685*X17739Y25692*X17726Y25699*X17712Y25706*X17698Y25711*X17684Y25717*X17670Y25722*X17655Y25726*X17641Y25730*X17626Y25734*X17611Y25736*X17596Y25739*X17581Y25741*X17566Y25742*X17551Y25743*X17536*X18435Y30020D2*Y29720D1*X17235*Y30320*X18435*Y30020*X18505D2*Y30320D1*X19705*Y29720*X18505*Y30020*X16645Y26520D2*X16945D1*Y27720*X16345*Y26520*X16645*Y26510D2*X16345D1*Y25310*X16945*Y26510*X16645*X20185Y24910D2*X20485D1*Y26110*X19885*Y24910D2*X20185D1*X19275Y24540D2*Y24240D1*X20475*Y24840*X19275*Y24540*X19585Y24910D2*X19885D1*Y26110*X19285*Y24910*X19585*X20795Y27310D2*X21095D1*Y28510*X20495*Y27310*X20795*X20495D2*Y26110D1*X21095*Y27310*X20485Y26110D2*X20785D1*X20485Y24910D2*X21085D1*Y26110*X20785*X20155Y27760D2*X19855D1*Y28960*X20455*Y27760*X20155*X13645Y24660D2*X13345D1*Y23460*X13945*X13645Y24660D2*X13945D1*X14245Y23460D2*X14545D1*Y24660*X13945*Y23460*X14245*X17536Y23710D2*Y24877D1*Y25743D2*Y26910D1*X18811*X17536Y23710D2*X18811D1*Y26910*X17255Y27000D2*Y28500D1*X17555Y28800*X19055*X17255Y27000D2*X19055D1*Y28800*X15855Y28190D2*Y28357D1*Y28273*X15355*X15439Y28190*X6761Y24877D2*X6776D1*X6791Y24878*X6806Y24879*X6821Y24881*X6836Y24884*X6851Y24886*X6866Y24890*X6880Y24894*X6895Y24898*X6909Y24903*X6923Y24909*X6937Y24914*X6951Y24921*X6964Y24928*X6977Y24935*X6990Y24943*X7003Y24951*X7016Y24960*X7028Y24969*X7039Y24978*X7051Y24988*X7062Y24999*X7072Y25009*X7083Y25020*X7093Y25032*X7102Y25043*X7111Y25055*X7120Y25068*X7128Y25081*X7136Y25094*X7143Y25107*X7150Y25120*X7157Y25134*X7162Y25148*X7168Y25162*X7173Y25176*X7177Y25191*X7181Y25205*X7185Y25220*X7187Y25235*X7190Y25250*X7192Y25265*X7193Y25280*X7194Y25295*Y25310*Y25325*X7193Y25340*X7192Y25355*X7190Y25370*X7187Y25385*X7185Y25400*X7181Y25415*X7177Y25429*X7173Y25444*X7168Y25458*X7162Y25472*X7157Y25486*X7150Y25500*X7143Y25513*X7136Y25527*X7128Y25539*X7120Y25552*X7111Y25565*X7102Y25577*X7093Y25588*X7083Y25600*X7072Y25611*X7062Y25621*X7051Y25632*X7039Y25642*X7028Y25651*X7016Y25660*X7003Y25669*X6990Y25677*X6977Y25685*X6964Y25692*X6951Y25699*X6937Y25706*X6923Y25711*X6909Y25717*X6895Y25722*X6880Y25726*X6866Y25730*X6851Y25734*X6836Y25736*X6821Y25739*X6806Y25741*X6791Y25742*X6776Y25743*X6761*X7660Y30020D2*Y29720D1*X6460*Y30320*X7660*Y30020*X7730D2*Y30320D1*X8930*Y29720*X7730*Y30020*X5870Y26520D2*X6170D1*Y27720*X5570*Y26520*X5870*Y26510D2*X5570D1*Y25310*X6170*Y26510*X5870*X9410Y24910D2*X9710D1*Y26110*X9110*Y24910D2*X9410D1*X8500Y24540D2*Y24240D1*X9700*Y24840*X8500*Y24540*X8810Y24910D2*X9110D1*Y26110*X8510*Y24910*X8810*X10020Y27310D2*X10320D1*Y28510*X9720*Y27310*X10020*X9720D2*Y26110D1*X10320*Y27310*X9710Y26110D2*X10010D1*X9710Y24910D2*X10310D1*Y26110*X10010*X9380Y27760D2*X9080D1*Y28960*X9680*Y27760*X9380*X2870Y24660D2*X2570D1*Y23460*X3170*X2870Y24660D2*X3170D1*X3470Y23460D2*X3770D1*Y24660*X3170*Y23460*X3470*X6761Y23710D2*Y24877D1*Y25743D2*Y26910D1*X8036*X6761Y23710D2*X8036D1*Y26910*X6480Y27000D2*Y28500D1*X6780Y28800*X8280*X6480Y27000D2*X8280D1*Y28800*X5080Y28190D2*Y28357D1*Y28273*X4580*X4664Y28190*X6761Y14987D2*X6776D1*X6791Y14988*X6806Y14989*X6821Y14991*X6836Y14994*X6851Y14996*X6866Y15000*X6880Y15004*X6895Y15008*X6909Y15013*X6923Y15019*X6937Y15024*X6951Y15031*X6964Y15038*X6977Y15045*X6990Y15053*X7003Y15061*X7016Y15070*X7028Y15079*X7039Y15088*X7051Y15098*X7062Y15109*X7072Y15119*X7083Y15130*X7093Y15142*X7102Y15153*X7111Y15165*X7120Y15178*X7128Y15191*X7136Y15204*X7143Y15217*X7150Y15230*X7157Y15244*X7162Y15258*X7168Y15272*X7173Y15286*X7177Y15301*X7181Y15315*X7185Y15330*X7187Y15345*X7190Y15360*X7192Y15375*X7193Y15390*X7194Y15405*Y15420*Y15435*X7193Y15450*X7192Y15465*X7190Y15480*X7187Y15495*X7185Y15510*X7181Y15525*X7177Y15539*X7173Y15554*X7168Y15568*X7162Y15582*X7157Y15596*X7150Y15610*X7143Y15623*X7136Y15637*X7128Y15649*X7120Y15662*X7111Y15675*X7102Y15687*X7093Y15698*X7083Y15710*X7072Y15721*X7062Y15731*X7051Y15742*X7039Y15752*X7028Y15761*X7016Y15770*X7003Y15779*X6990Y15787*X6977Y15795*X6964Y15802*X6951Y15809*X6937Y15816*X6923Y15821*X6909Y15827*X6895Y15832*X6880Y15836*X6866Y15840*X6851Y15844*X6836Y15846*X6821Y15849*X6806Y15851*X6791Y15852*X6776Y15853*X6761*X7660Y20130D2*Y19830D1*X6460*Y20430*X7660*Y20130*X7730D2*Y20430D1*X8930*Y19830*X7730*Y20130*X5870Y16630D2*X6170D1*Y17830*X5570*Y16630*X5870*Y16620D2*X5570D1*Y15420*X6170*Y16620*X5870*X9410Y15020D2*X9710D1*Y16220*X9110*Y15020D2*X9410D1*X8500Y14650D2*Y14350D1*X9700*Y14950*X8500*Y14650*X8810Y15020D2*X9110D1*Y16220*X8510*Y15020*X8810*X10020Y17420D2*X10320D1*Y18620*X9720*Y17420*X10020*X9720D2*Y16220D1*X10320*Y17420*X9710Y16220D2*X10010D1*X9710Y15020D2*X10310D1*Y16220*X10010*X9380Y17870D2*X9080D1*Y19070*X9680*Y17870*X9380*X2870Y14770D2*X2570D1*Y13570*X3170*X2870Y14770D2*X3170D1*X3470Y13570D2*X3770D1*Y14770*X3170*Y13570*X3470*X6761Y13820D2*Y14987D1*Y15853D2*Y17020D1*X8036*X6761Y13820D2*X8036D1*Y17020*X6480Y17110D2*Y18610D1*X6780Y18910*X8280*X6480Y17110D2*X8280D1*Y18910*X5080Y18300D2*Y18467D1*Y18383*X4580*X4664Y18300*X17536Y14987D2*X17551D1*X17566Y14988*X17581Y14989*X17596Y14991*X17611Y14994*X17626Y14996*X17641Y15000*X17655Y15004*X17670Y15008*X17684Y15013*X17698Y15019*X17712Y15024*X17726Y15031*X17739Y15038*X17752Y15045*X17765Y15053*X17778Y15061*X17791Y15070*X17803Y15079*X17814Y15088*X17826Y15098*X17837Y15109*X17847Y15119*X17858Y15130*X17868Y15142*X17877Y15153*X17886Y15165*X17895Y15178*X17903Y15191*X17911Y15204*X17918Y15217*X17925Y15230*X17932Y15244*X17937Y15258*X17943Y15272*X17948Y15286*X17952Y15301*X17956Y15315*X17960Y15330*X17962Y15345*X17965Y15360*X17967Y15375*X17968Y15390*X17969Y15405*Y15420*Y15435*X17968Y15450*X17967Y15465*X17965Y15480*X17962Y15495*X17960Y15510*X17956Y15525*X17952Y15539*X17948Y15554*X17943Y15568*X17937Y15582*X17932Y15596*X17925Y15610*X17918Y15623*X17911Y15637*X17903Y15649*X17895Y15662*X17886Y15675*X17877Y15687*X17868Y15698*X17858Y15710*X17847Y15721*X17837Y15731*X17826Y15742*X17814Y15752*X17803Y15761*X17791Y15770*X17778Y15779*X17765Y15787*X17752Y15795*X17739Y15802*X17726Y15809*X17712Y15816*X17698Y15821*X17684Y15827*X17670Y15832*X17655Y15836*X17641Y15840*X17626Y15844*X17611Y15846*X17596Y15849*X17581Y15851*X17566Y15852*X17551Y15853*X17536*X18435Y20130D2*Y19830D1*X17235*Y20430*X18435*Y20130*X18505D2*Y20430D1*X19705*Y19830*X18505*Y20130*X16645Y16630D2*X16945D1*Y17830*X16345*Y16630*X16645*Y16620D2*X16345D1*Y15420*X16945*Y16620*X16645*X20185Y15020D2*X20485D1*Y16220*X19885*Y15020D2*X20185D1*X19275Y14650D2*Y14350D1*X20475*Y14950*X19275*Y14650*X19585Y15020D2*X19885D1*Y16220*X19285*Y15020*X19585*X20795Y17420D2*X21095D1*Y18620*X20495*Y17420*X20795*X20495D2*Y16220D1*X21095*Y17420*X20485Y16220D2*X20785D1*X20485Y15020D2*X21085D1*Y16220*X20785*X20155Y17870D2*X19855D1*Y19070*X20455*Y17870*X20155*X13645Y14770D2*X13345D1*Y13570*X13945*X13645Y14770D2*X13945D1*X14245Y13570D2*X14545D1*Y14770*X13945*Y13570*X14245*X17536Y13820D2*Y14987D1*Y15853D2*Y17020D1*X18811*X17536Y13820D2*X18811D1*Y17020*X17255Y17110D2*Y18610D1*X17555Y18910*X19055*X17255Y17110D2*X19055D1*Y18910*X15855Y18300D2*Y18467D1*Y18383*X15355*X15439Y18300*X28311Y14987D2*X28326D1*X28341Y14988*X28356Y14989*X28371Y14991*X28386Y14994*X28401Y14996*X28416Y15000*X28430Y15004*X28445Y15008*X28459Y15013*X28473Y15019*X28487Y15024*X28501Y15031*X28514Y15038*X28527Y15045*X28540Y15053*X28553Y15061*X28566Y15070*X28578Y15079*X28589Y15088*X28601Y15098*X28612Y15109*X28622Y15119*X28633Y15130*X28643Y15142*X28652Y15153*X28661Y15165*X28670Y15178*X28678Y15191*X28686Y15204*X28693Y15217*X28700Y15230*X28707Y15244*X28712Y15258*X28718Y15272*X28723Y15286*X28727Y15301*X28731Y15315*X28735Y15330*X28737Y15345*X28740Y15360*X28742Y15375*X28743Y15390*X28744Y15405*Y15420*Y15435*X28743Y15450*X28742Y15465*X28740Y15480*X28737Y15495*X28735Y15510*X28731Y15525*X28727Y15539*X28723Y15554*X28718Y15568*X28712Y15582*X28707Y15596*X28700Y15610*X28693Y15623*X28686Y15637*X28678Y15649*X28670Y15662*X28661Y15675*X28652Y15687*X28643Y15698*X28633Y15710*X28622Y15721*X28612Y15731*X28601Y15742*X28589Y15752*X28578Y15761*X28566Y15770*X28553Y15779*X28540Y15787*X28527Y15795*X28514Y15802*X28501Y15809*X28487Y15816*X28473Y15821*X28459Y15827*X28445Y15832*X28430Y15836*X28416Y15840*X28401Y15844*X28386Y15846*X28371Y15849*X28356Y15851*X28341Y15852*X28326Y15853*X28311*X29210Y20130D2*Y19830D1*X28010*Y20430*X29210*Y20130*X29280D2*Y20430D1*X30480*Y19830*X29280*Y20130*X27420Y16630D2*X27720D1*Y17830*X27120*Y16630*X27420*Y16620D2*X27120D1*Y15420*X27720*Y16620*X27420*X30960Y15020D2*X31260D1*Y16220*X30660*Y15020D2*X30960D1*X30050Y14650D2*Y14350D1*X31250*Y14950*X30050*Y14650*X30360Y15020D2*X30660D1*Y16220*X30060*Y15020*X30360*X31570Y17420D2*X31870D1*Y18620*X31270*Y17420*X31570*X31270D2*Y16220D1*X31870*Y17420*X31260Y16220D2*X31560D1*X31260Y15020D2*X31860D1*Y16220*X31560*X30930Y17870D2*X30630D1*Y19070*X31230*Y17870*X30930*X24420Y14770D2*X24120D1*Y13570*X24720*X24420Y14770D2*X24720D1*X25020Y13570D2*X25320D1*Y14770*X24720*Y13570*X25020*X28311Y13820D2*Y14987D1*Y15853D2*Y17020D1*X29586*X28311Y13820D2*X29586D1*Y17020*X28030Y17110D2*Y18610D1*X28330Y18910*X29830*X28030Y17110D2*X29830D1*Y18910*X26630Y18300D2*Y18467D1*Y18383*X26130*X26214Y18300*X39086Y14987D2*X39101D1*X39116Y14988*X39131Y14989*X39146Y14991*X39161Y14994*X39176Y14996*X39191Y15000*X39205Y15004*X39220Y15008*X39234Y15013*X39248Y15019*X39262Y15024*X39276Y15031*X39289Y15038*X39302Y15045*X39315Y15053*X39328Y15061*X39341Y15070*X39353Y15079*X39364Y15088*X39376Y15098*X39387Y15109*X39397Y15119*X39408Y15130*X39418Y15142*X39427Y15153*X39436Y15165*X39445Y15178*X39453Y15191*X39461Y15204*X39468Y15217*X39475Y15230*X39482Y15244*X39487Y15258*X39493Y15272*X39498Y15286*X39502Y15301*X39506Y15315*X39510Y15330*X39512Y15345*X39515Y15360*X39517Y15375*X39518Y15390*X39519Y15405*Y15420*Y15435*X39518Y15450*X39517Y15465*X39515Y15480*X39512Y15495*X39510Y15510*X39506Y15525*X39502Y15539*X39498Y15554*X39493Y15568*X39487Y15582*X39482Y15596*X39475Y15610*X39468Y15623*X39461Y15637*X39453Y15649*X39445Y15662*X39436Y15675*X39427Y15687*X39418Y15698*X39408Y15710*X39397Y15721*X39387Y15731*X39376Y15742*X39364Y15752*X39353Y15761*X39341Y15770*X39328Y15779*X39315Y15787*X39302Y15795*X39289Y15802*X39276Y15809*X39262Y15816*X39248Y15821*X39234Y15827*X39220Y15832*X39205Y15836*X39191Y15840*X39176Y15844*X39161Y15846*X39146Y15849*X39131Y15851*X39116Y15852*X39101Y15853*X39086*X39985Y20130D2*Y19830D1*X38785*Y20430*X39985*Y20130*X40055D2*Y20430D1*X41255*Y19830*X40055*Y20130*X38195Y16630D2*X38495D1*Y17830*X37895*Y16630*X38195*Y16620D2*X37895D1*Y15420*X38495*Y16620*X38195*X41735Y15020D2*X42035D1*Y16220*X41435*Y15020D2*X41735D1*X40825Y14650D2*Y14350D1*X42025*Y14950*X40825*Y14650*X41135Y15020D2*X41435D1*Y16220*X40835*Y15020*X41135*X42345Y17420D2*X42645D1*Y18620*X42045*Y17420*X42345*X42045D2*Y16220D1*X42645*Y17420*X42035Y16220D2*X42335D1*X42035Y15020D2*X42635D1*Y16220*X42335*X41705Y17870D2*X41405D1*Y19070*X42005*Y17870*X41705*X35195Y14770D2*X34895D1*Y13570*X35495*X35195Y14770D2*X35495D1*X35795Y13570D2*X36095D1*Y14770*X35495*Y13570*X35795*X39086Y13820D2*Y14987D1*Y15853D2*Y17020D1*X40361*X39086Y13820D2*X40361D1*Y17020*X38805Y17110D2*Y18610D1*X39105Y18910*X40605*X38805Y17110D2*X40605D1*Y18910*X37405Y18300D2*Y18467D1*Y18383*X36905*X36989Y18300*X49861Y14987D2*X49876D1*X49891Y14988*X49906Y14989*X49921Y14991*X49936Y14994*X49951Y14996*X49966Y15000*X49980Y15004*X49995Y15008*X50009Y15013*X50023Y15019*X50037Y15024*X50051Y15031*X50064Y15038*X50077Y15045*X50090Y15053*X50103Y15061*X50116Y15070*X50128Y15079*X50139Y15088*X50151Y15098*X50162Y15109*X50172Y15119*X50183Y15130*X50193Y15142*X50202Y15153*X50211Y15165*X50220Y15178*X50228Y15191*X50236Y15204*X50243Y15217*X50250Y15230*X50257Y15244*X50262Y15258*X50268Y15272*X50273Y15286*X50277Y15301*X50281Y15315*X50285Y15330*X50287Y15345*X50290Y15360*X50292Y15375*X50293Y15390*X50294Y15405*Y15420*Y15435*X50293Y15450*X50292Y15465*X50290Y15480*X50287Y15495*X50285Y15510*X50281Y15525*X50277Y15539*X50273Y15554*X50268Y15568*X50262Y15582*X50257Y15596*X50250Y15610*X50243Y15623*X50236Y15637*X50228Y15649*X50220Y15662*X50211Y15675*X50202Y15687*X50193Y15698*X50183Y15710*X50172Y15721*X50162Y15731*X50151Y15742*X50139Y15752*X50128Y15761*X50116Y15770*X50103Y15779*X50090Y15787*X50077Y15795*X50064Y15802*X50051Y15809*X50037Y15816*X50023Y15821*X50009Y15827*X49995Y15832*X49980Y15836*X49966Y15840*X49951Y15844*X49936Y15846*X49921Y15849*X49906Y15851*X49891Y15852*X49876Y15853*X49861*X50760Y20130D2*Y19830D1*X49560*Y20430*X50760*Y20130*X50830D2*Y20430D1*X52030*Y19830*X50830*Y20130*X48970Y16630D2*X49270D1*Y17830*X48670*Y16630*X48970*Y16620D2*X48670D1*Y15420*X49270*Y16620*X48970*X52510Y15020D2*X52810D1*Y16220*X52210*Y15020D2*X52510D1*X51600Y14650D2*Y14350D1*X52800*Y14950*X51600*Y14650*X51910Y15020D2*X52210D1*Y16220*X51610*Y15020*X51910*X53120Y17420D2*X53420D1*Y18620*X52820*Y17420*X53120*X52820D2*Y16220D1*X53420*Y17420*X52810Y16220D2*X53110D1*X52810Y15020D2*X53410D1*Y16220*X53110*X52480Y17870D2*X52180D1*Y19070*X52780*Y17870*X52480*X45970Y14770D2*X45670D1*Y13570*X46270*X45970Y14770D2*X46270D1*X46570Y13570D2*X46870D1*Y14770*X46270*Y13570*X46570*X49861Y13820D2*Y14987D1*Y15853D2*Y17020D1*X51136*X49861Y13820D2*X51136D1*Y17020*X49580Y17110D2*Y18610D1*X49880Y18910*X51380*X49580Y17110D2*X51380D1*Y18910*X48180Y18300D2*Y18467D1*Y18383*X47680*X47764Y18300*X60636Y14987D2*X60651D1*X60666Y14988*X60681Y14989*X60696Y14991*X60711Y14994*X60726Y14996*X60741Y15000*X60755Y15004*X60770Y15008*X60784Y15013*X60798Y15019*X60812Y15024*X60826Y15031*X60839Y15038*X60852Y15045*X60865Y15053*X60878Y15061*X60891Y15070*X60903Y15079*X60914Y15088*X60926Y15098*X60937Y15109*X60947Y15119*X60958Y15130*X60968Y15142*X60977Y15153*X60986Y15165*X60995Y15178*X61003Y15191*X61011Y15204*X61018Y15217*X61025Y15230*X61032Y15244*X61037Y15258*X61043Y15272*X61048Y15286*X61052Y15301*X61056Y15315*X61060Y15330*X61062Y15345*X61065Y15360*X61067Y15375*X61068Y15390*X61069Y15405*Y15420*Y15435*X61068Y15450*X61067Y15465*X61065Y15480*X61062Y15495*X61060Y15510*X61056Y15525*X61052Y15539*X61048Y15554*X61043Y15568*X61037Y15582*X61032Y15596*X61025Y15610*X61018Y15623*X61011Y15637*X61003Y15649*X60995Y15662*X60986Y15675*X60977Y15687*X60968Y15698*X60958Y15710*X60947Y15721*X60937Y15731*X60926Y15742*X60914Y15752*X60903Y15761*X60891Y15770*X60878Y15779*X60865Y15787*X60852Y15795*X60839Y15802*X60826Y15809*X60812Y15816*X60798Y15821*X60784Y15827*X60770Y15832*X60755Y15836*X60741Y15840*X60726Y15844*X60711Y15846*X60696Y15849*X60681Y15851*X60666Y15852*X60651Y15853*X60636*X61535Y20130D2*Y19830D1*X60335*Y20430*X61535*Y20130*X61605D2*Y20430D1*X62805*Y19830*X61605*Y20130*X59745Y16630D2*X60045D1*Y17830*X59445*Y16630*X59745*Y16620D2*X59445D1*Y15420*X60045*Y16620*X59745*X63285Y15020D2*X63585D1*Y16220*X62985*Y15020D2*X63285D1*X62375Y14650D2*Y14350D1*X63575*Y14950*X62375*Y14650*X62685Y15020D2*X62985D1*Y16220*X62385*Y15020*X62685*X63895Y17420D2*X64195D1*Y18620*X63595*Y17420*X63895*X63595D2*Y16220D1*X64195*Y17420*X63585Y16220D2*X63885D1*X63585Y15020D2*X64185D1*Y16220*X63885*X63255Y17870D2*X62955D1*Y19070*X63555*Y17870*X63255*X56745Y14770D2*X56445D1*Y13570*X57045*X56745Y14770D2*X57045D1*X57345Y13570D2*X57645D1*Y14770*X57045*Y13570*X57345*X60636Y13820D2*Y14987D1*Y15853D2*Y17020D1*X61911*X60636Y13820D2*X61911D1*Y17020*X60355Y17110D2*Y18610D1*X60655Y18910*X62155*X60355Y17110D2*X62155D1*Y18910*X58955Y18300D2*Y18467D1*Y18383*X58455*X58539Y18300*X71411Y14987D2*X71426D1*X71441Y14988*X71456Y14989*X71471Y14991*X71486Y14994*X71501Y14996*X71516Y15000*X71530Y15004*X71545Y15008*X71559Y15013*X71573Y15019*X71587Y15024*X71601Y15031*X71614Y15038*X71627Y15045*X71640Y15053*X71653Y15061*X71666Y15070*X71678Y15079*X71689Y15088*X71701Y15098*X71712Y15109*X71722Y15119*X71733Y15130*X71743Y15142*X71752Y15153*X71761Y15165*X71770Y15178*X71778Y15191*X71786Y15204*X71793Y15217*X71800Y15230*X71807Y15244*X71812Y15258*X71818Y15272*X71823Y15286*X71827Y15301*X71831Y15315*X71835Y15330*X71837Y15345*X71840Y15360*X71842Y15375*X71843Y15390*X71844Y15405*Y15420*Y15435*X71843Y15450*X71842Y15465*X71840Y15480*X71837Y15495*X71835Y15510*X71831Y15525*X71827Y15539*X71823Y15554*X71818Y15568*X71812Y15582*X71807Y15596*X71800Y15610*X71793Y15623*X71786Y15637*X71778Y15649*X71770Y15662*X71761Y15675*X71752Y15687*X71743Y15698*X71733Y15710*X71722Y15721*X71712Y15731*X71701Y15742*X71689Y15752*X71678Y15761*X71666Y15770*X71653Y15779*X71640Y15787*X71627Y15795*X71614Y15802*X71601Y15809*X71587Y15816*X71573Y15821*X71559Y15827*X71545Y15832*X71530Y15836*X71516Y15840*X71501Y15844*X71486Y15846*X71471Y15849*X71456Y15851*X71441Y15852*X71426Y15853*X71411*X72310Y20130D2*Y19830D1*X71110*Y20430*X72310*Y20130*X72380D2*Y20430D1*X73580*Y19830*X72380*Y20130*X70520Y16630D2*X70820D1*Y17830*X70220*Y16630*X70520*Y16620D2*X70220D1*Y15420*X70820*Y16620*X70520*X74060Y15020D2*X74360D1*Y16220*X73760*Y15020D2*X74060D1*X73150Y14650D2*Y14350D1*X74350*Y14950*X73150*Y14650*X73460Y15020D2*X73760D1*Y16220*X73160*Y15020*X73460*X74670Y17420D2*X74970D1*Y18620*X74370*Y17420*X74670*X74370D2*Y16220D1*X74970*Y17420*X74360Y16220D2*X74660D1*X74360Y15020D2*X74960D1*Y16220*X74660*X74030Y17870D2*X73730D1*Y19070*X74330*Y17870*X74030*X67520Y14770D2*X67220D1*Y13570*X67820*X67520Y14770D2*X67820D1*X68120Y13570D2*X68420D1*Y14770*X67820*Y13570*X68120*X71411Y13820D2*Y14987D1*Y15853D2*Y17020D1*X72686*X71411Y13820D2*X72686D1*Y17020*X71130Y17110D2*Y18610D1*X71430Y18910*X72930*X71130Y17110D2*X72930D1*Y18910*X69730Y18300D2*Y18467D1*Y18383*X69230*X69314Y18300*X82186Y14987D2*X82201D1*X82216Y14988*X82231Y14989*X82246Y14991*X82261Y14994*X82276Y14996*X82291Y15000*X82305Y15004*X82320Y15008*X82334Y15013*X82348Y15019*X82362Y15024*X82376Y15031*X82389Y15038*X82402Y15045*X82415Y15053*X82428Y15061*X82441Y15070*X82453Y15079*X82464Y15088*X82476Y15098*X82487Y15109*X82497Y15119*X82508Y15130*X82518Y15142*X82527Y15153*X82536Y15165*X82545Y15178*X82553Y15191*X82561Y15204*X82568Y15217*X82575Y15230*X82582Y15244*X82587Y15258*X82593Y15272*X82598Y15286*X82602Y15301*X82606Y15315*X82610Y15330*X82612Y15345*X82615Y15360*X82617Y15375*X82618Y15390*X82619Y15405*Y15420*Y15435*X82618Y15450*X82617Y15465*X82615Y15480*X82612Y15495*X82610Y15510*X82606Y15525*X82602Y15539*X82598Y15554*X82593Y15568*X82587Y15582*X82582Y15596*X82575Y15610*X82568Y15623*X82561Y15637*X82553Y15649*X82545Y15662*X82536Y15675*X82527Y15687*X82518Y15698*X82508Y15710*X82497Y15721*X82487Y15731*X82476Y15742*X82464Y15752*X82453Y15761*X82441Y15770*X82428Y15779*X82415Y15787*X82402Y15795*X82389Y15802*X82376Y15809*X82362Y15816*X82348Y15821*X82334Y15827*X82320Y15832*X82305Y15836*X82291Y15840*X82276Y15844*X82261Y15846*X82246Y15849*X82231Y15851*X82216Y15852*X82201Y15853*X82186*X83085Y20130D2*Y19830D1*X81885*Y20430*X83085*Y20130*X83155D2*Y20430D1*X84355*Y19830*X83155*Y20130*X81295Y16630D2*X81595D1*Y17830*X80995*Y16630*X81295*Y16620D2*X80995D1*Y15420*X81595*Y16620*X81295*X84835Y15020D2*X85135D1*Y16220*X84535*Y15020D2*X84835D1*X83925Y14650D2*Y14350D1*X85125*Y14950*X83925*Y14650*X84235Y15020D2*X84535D1*Y16220*X83935*Y15020*X84235*X85445Y17420D2*X85745D1*Y18620*X85145*Y17420*X85445*X85145D2*Y16220D1*X85745*Y17420*X85135Y16220D2*X85435D1*X85135Y15020D2*X85735D1*Y16220*X85435*X84805Y17870D2*X84505D1*Y19070*X85105*Y17870*X84805*X78295Y14770D2*X77995D1*Y13570*X78595*X78295Y14770D2*X78595D1*X78895Y13570D2*X79195D1*Y14770*X78595*Y13570*X78895*X82186Y13820D2*Y14987D1*Y15853D2*Y17020D1*X83461*X82186Y13820D2*X83461D1*Y17020*X81905Y17110D2*Y18610D1*X82205Y18910*X83705*X81905Y17110D2*X83705D1*Y18910*X80505Y18300D2*Y18467D1*Y18383*X80005*X80089Y18300*X92961Y14987D2*X92976D1*X92991Y14988*X93006Y14989*X93021Y14991*X93036Y14994*X93051Y14996*X93066Y15000*X93080Y15004*X93095Y15008*X93109Y15013*X93123Y15019*X93137Y15024*X93151Y15031*X93164Y15038*X93177Y15045*X93190Y15053*X93203Y15061*X93216Y15070*X93228Y15079*X93239Y15088*X93251Y15098*X93262Y15109*X93272Y15119*X93283Y15130*X93293Y15142*X93302Y15153*X93311Y15165*X93320Y15178*X93328Y15191*X93336Y15204*X93343Y15217*X93350Y15230*X93357Y15244*X93362Y15258*X93368Y15272*X93373Y15286*X93377Y15301*X93381Y15315*X93385Y15330*X93387Y15345*X93390Y15360*X93392Y15375*X93393Y15390*X93394Y15405*Y15420*Y15435*X93393Y15450*X93392Y15465*X93390Y15480*X93387Y15495*X93385Y15510*X93381Y15525*X93377Y15539*X93373Y15554*X93368Y15568*X93362Y15582*X93357Y15596*X93350Y15610*X93343Y15623*X93336Y15637*X93328Y15649*X93320Y15662*X93311Y15675*X93302Y15687*X93293Y15698*X93283Y15710*X93272Y15721*X93262Y15731*X93251Y15742*X93239Y15752*X93228Y15761*X93216Y15770*X93203Y15779*X93190Y15787*X93177Y15795*X93164Y15802*X93151Y15809*X93137Y15816*X93123Y15821*X93109Y15827*X93095Y15832*X93080Y15836*X93066Y15840*X93051Y15844*X93036Y15846*X93021Y15849*X93006Y15851*X92991Y15852*X92976Y15853*X92961*X93860Y20130D2*Y19830D1*X92660*Y20430*X93860*Y20130*X93930D2*Y20430D1*X95130*Y19830*X93930*Y20130*X92070Y16630D2*X92370D1*Y17830*X91770*Y16630*X92070*Y16620D2*X91770D1*Y15420*X92370*Y16620*X92070*X95610Y15020D2*X95910D1*Y16220*X95310*Y15020D2*X95610D1*X94700Y14650D2*Y14350D1*X95900*Y14950*X94700*Y14650*X95010Y15020D2*X95310D1*Y16220*X94710*Y15020*X95010*X96220Y17420D2*X96520D1*Y18620*X95920*Y17420*X96220*X95920D2*Y16220D1*X96520*Y17420*X95910Y16220D2*X96210D1*X95910Y15020D2*X96510D1*Y16220*X96210*X95580Y17870D2*X95280D1*Y19070*X95880*Y17870*X95580*X89070Y14770D2*X88770D1*Y13570*X89370*X89070Y14770D2*X89370D1*X89670Y13570D2*X89970D1*Y14770*X89370*Y13570*X89670*X92961Y13820D2*Y14987D1*Y15853D2*Y17020D1*X94236*X92961Y13820D2*X94236D1*Y17020*X92680Y17110D2*Y18610D1*X92980Y18910*X94480*X92680Y17110D2*X94480D1*Y18910*X91280Y18300D2*Y18467D1*Y18383*X90780*X90864Y18300*X92961Y5097D2*X92976D1*X92991Y5098*X93006Y5099*X93021Y5101*X93036Y5104*X93051Y5106*X93066Y5110*X93080Y5114*X93095Y5118*X93109Y5123*X93123Y5129*X93137Y5134*X93151Y5141*X93164Y5148*X93177Y5155*X93190Y5163*X93203Y5171*X93216Y5180*X93228Y5189*X93239Y5198*X93251Y5208*X93262Y5219*X93272Y5229*X93283Y5240*X93293Y5252*X93302Y5263*X93311Y5275*X93320Y5288*X93328Y5301*X93336Y5314*X93343Y5327*X93350Y5340*X93357Y5354*X93362Y5368*X93368Y5382*X93373Y5396*X93377Y5411*X93381Y5425*X93385Y5440*X93387Y5455*X93390Y5470*X93392Y5485*X93393Y5500*X93394Y5515*Y5530*Y5545*X93393Y5560*X93392Y5575*X93390Y5590*X93387Y5605*X93385Y5620*X93381Y5635*X93377Y5649*X93373Y5664*X93368Y5678*X93362Y5692*X93357Y5706*X93350Y5720*X93343Y5733*X93336Y5747*X93328Y5759*X93320Y5772*X93311Y5785*X93302Y5797*X93293Y5808*X93283Y5820*X93272Y5831*X93262Y5841*X93251Y5852*X93239Y5862*X93228Y5871*X93216Y5880*X93203Y5889*X93190Y5897*X93177Y5905*X93164Y5912*X93151Y5919*X93137Y5926*X93123Y5931*X93109Y5937*X93095Y5942*X93080Y5946*X93066Y5950*X93051Y5954*X93036Y5956*X93021Y5959*X93006Y5961*X92991Y5962*X92976Y5963*X92961*X93860Y10240D2*Y9940D1*X92660*Y10540*X93860*Y10240*X93930D2*Y10540D1*X95130*Y9940*X93930*Y10240*X92070Y6740D2*X92370D1*Y7940*X91770*Y6740*X92070*Y6730D2*X91770D1*Y5530*X92370*Y6730*X92070*X95610Y5130D2*X95910D1*Y6330*X95310*Y5130D2*X95610D1*X94700Y4760D2*Y4460D1*X95900*Y5060*X94700*Y4760*X95010Y5130D2*X95310D1*Y6330*X94710*Y5130*X95010*X96220Y7530D2*X96520D1*Y8730*X95920*Y7530*X96220*X95920D2*Y6330D1*X96520*Y7530*X95910Y6330D2*X96210D1*X95910Y5130D2*X96510D1*Y6330*X96210*X95580Y7980D2*X95280D1*Y9180*X95880*Y7980*X95580*X89070Y4880D2*X88770D1*Y3680*X89370*X89070Y4880D2*X89370D1*X89670Y3680D2*X89970D1*Y4880*X89370*Y3680*X89670*X92961Y3930D2*Y5097D1*Y5963D2*Y7130D1*X94236*X92961Y3930D2*X94236D1*Y7130*X92680Y7220D2*Y8720D1*X92980Y9020*X94480*X92680Y7220D2*X94480D1*Y9020*X91280Y8410D2*Y8577D1*Y8493*X90780*X90864Y8410*X82186Y5097D2*X82201D1*X82216Y5098*X82231Y5099*X82246Y5101*X82261Y5104*X82276Y5106*X82291Y5110*X82305Y5114*X82320Y5118*X82334Y5123*X82348Y5129*X82362Y5134*X82376Y5141*X82389Y5148*X82402Y5155*X82415Y5163*X82428Y5171*X82441Y5180*X82453Y5189*X82464Y5198*X82476Y5208*X82487Y5219*X82497Y5229*X82508Y5240*X82518Y5252*X82527Y5263*X82536Y5275*X82545Y5288*X82553Y5301*X82561Y5314*X82568Y5327*X82575Y5340*X82582Y5354*X82587Y5368*X82593Y5382*X82598Y5396*X82602Y5411*X82606Y5425*X82610Y5440*X82612Y5455*X82615Y5470*X82617Y5485*X82618Y5500*X82619Y5515*Y5530*Y5545*X82618Y5560*X82617Y5575*X82615Y5590*X82612Y5605*X82610Y5620*X82606Y5635*X82602Y5649*X82598Y5664*X82593Y5678*X82587Y5692*X82582Y5706*X82575Y5720*X82568Y5733*X82561Y5747*X82553Y5759*X82545Y5772*X82536Y5785*X82527Y5797*X82518Y5808*X82508Y5820*X82497Y5831*X82487Y5841*X82476Y5852*X82464Y5862*X82453Y5871*X82441Y5880*X82428Y5889*X82415Y5897*X82402Y5905*X82389Y5912*X82376Y5919*X82362Y5926*X82348Y5931*X82334Y5937*X82320Y5942*X82305Y5946*X82291Y5950*X82276Y5954*X82261Y5956*X82246Y5959*X82231Y5961*X82216Y5962*X82201Y5963*X82186*X83085Y10240D2*Y9940D1*X81885*Y10540*X83085*Y10240*X83155D2*Y10540D1*X84355*Y9940*X83155*Y10240*X81295Y6740D2*X81595D1*Y7940*X80995*Y6740*X81295*Y6730D2*X80995D1*Y5530*X81595*Y6730*X81295*X84835Y5130D2*X85135D1*Y6330*X84535*Y5130D2*X84835D1*X83925Y4760D2*Y4460D1*X85125*Y5060*X83925*Y4760*X84235Y5130D2*X84535D1*Y6330*X83935*Y5130*X84235*X85445Y7530D2*X85745D1*Y8730*X85145*Y7530*X85445*X85145D2*Y6330D1*X85745*Y7530*X85135Y6330D2*X85435D1*X85135Y5130D2*X85735D1*Y6330*X85435*X84805Y7980D2*X84505D1*Y9180*X85105*Y7980*X84805*X78295Y4880D2*X77995D1*Y3680*X78595*X78295Y4880D2*X78595D1*X78895Y3680D2*X79195D1*Y4880*X78595*Y3680*X78895*X82186Y3930D2*Y5097D1*Y5963D2*Y7130D1*X83461*X82186Y3930D2*X83461D1*Y7130*X81905Y7220D2*Y8720D1*X82205Y9020*X83705*X81905Y7220D2*X83705D1*Y9020*X80505Y8410D2*Y8577D1*Y8493*X80005*X80089Y8410*X71411Y5097D2*X71426D1*X71441Y5098*X71456Y5099*X71471Y5101*X71486Y5104*X71501Y5106*X71516Y5110*X71530Y5114*X71545Y5118*X71559Y5123*X71573Y5129*X71587Y5134*X71601Y5141*X71614Y5148*X71627Y5155*X71640Y5163*X71653Y5171*X71666Y5180*X71678Y5189*X71689Y5198*X71701Y5208*X71712Y5219*X71722Y5229*X71733Y5240*X71743Y5252*X71752Y5263*X71761Y5275*X71770Y5288*X71778Y5301*X71786Y5314*X71793Y5327*X71800Y5340*X71807Y5354*X71812Y5368*X71818Y5382*X71823Y5396*X71827Y5411*X71831Y5425*X71835Y5440*X71837Y5455*X71840Y5470*X71842Y5485*X71843Y5500*X71844Y5515*Y5530*Y5545*X71843Y5560*X71842Y5575*X71840Y5590*X71837Y5605*X71835Y5620*X71831Y5635*X71827Y5649*X71823Y5664*X71818Y5678*X71812Y5692*X71807Y5706*X71800Y5720*X71793Y5733*X71786Y5747*X71778Y5759*X71770Y5772*X71761Y5785*X71752Y5797*X71743Y5808*X71733Y5820*X71722Y5831*X71712Y5841*X71701Y5852*X71689Y5862*X71678Y5871*X71666Y5880*X71653Y5889*X71640Y5897*X71627Y5905*X71614Y5912*X71601Y5919*X71587Y5926*X71573Y5931*X71559Y5937*X71545Y5942*X71530Y5946*X71516Y5950*X71501Y5954*X71486Y5956*X71471Y5959*X71456Y5961*X71441Y5962*X71426Y5963*X71411*X72310Y10240D2*Y9940D1*X71110*Y10540*X72310*Y10240*X72380D2*Y10540D1*X73580*Y9940*X72380*Y10240*X70520Y6740D2*X70820D1*Y7940*X70220*Y6740*X70520*Y6730D2*X70220D1*Y5530*X70820*Y6730*X70520*X74060Y5130D2*X74360D1*Y6330*X73760*Y5130D2*X74060D1*X73150Y4760D2*Y4460D1*X74350*Y5060*X73150*Y4760*X73460Y5130D2*X73760D1*Y6330*X73160*Y5130*X73460*X74670Y7530D2*X74970D1*Y8730*X74370*Y7530*X74670*X74370D2*Y6330D1*X74970*Y7530*X74360Y6330D2*X74660D1*X74360Y5130D2*X74960D1*Y6330*X74660*X74030Y7980D2*X73730D1*Y9180*X74330*Y7980*X74030*X67520Y4880D2*X67220D1*Y3680*X67820*X67520Y4880D2*X67820D1*X68120Y3680D2*X68420D1*Y4880*X67820*Y3680*X68120*X71411Y3930D2*Y5097D1*Y5963D2*Y7130D1*X72686*X71411Y3930D2*X72686D1*Y7130*X71130Y7220D2*Y8720D1*X71430Y9020*X72930*X71130Y7220D2*X72930D1*Y9020*X69730Y8410D2*Y8577D1*Y8493*X69230*X69314Y8410*X60636Y5097D2*X60651D1*X60666Y5098*X60681Y5099*X60696Y5101*X60711Y5104*X60726Y5106*X60741Y5110*X60755Y5114*X60770Y5118*X60784Y5123*X60798Y5129*X60812Y5134*X60826Y5141*X60839Y5148*X60852Y5155*X60865Y5163*X60878Y5171*X60891Y5180*X60903Y5189*X60914Y5198*X60926Y5208*X60937Y5219*X60947Y5229*X60958Y5240*X60968Y5252*X60977Y5263*X60986Y5275*X60995Y5288*X61003Y5301*X61011Y5314*X61018Y5327*X61025Y5340*X61032Y5354*X61037Y5368*X61043Y5382*X61048Y5396*X61052Y5411*X61056Y5425*X61060Y5440*X61062Y5455*X61065Y5470*X61067Y5485*X61068Y5500*X61069Y5515*Y5530*Y5545*X61068Y5560*X61067Y5575*X61065Y5590*X61062Y5605*X61060Y5620*X61056Y5635*X61052Y5649*X61048Y5664*X61043Y5678*X61037Y5692*X61032Y5706*X61025Y5720*X61018Y5733*X61011Y5747*X61003Y5759*X60995Y5772*X60986Y5785*X60977Y5797*X60968Y5808*X60958Y5820*X60947Y5831*X60937Y5841*X60926Y5852*X60914Y5862*X60903Y5871*X60891Y5880*X60878Y5889*X60865Y5897*X60852Y5905*X60839Y5912*X60826Y5919*X60812Y5926*X60798Y5931*X60784Y5937*X60770Y5942*X60755Y5946*X60741Y5950*X60726Y5954*X60711Y5956*X60696Y5959*X60681Y5961*X60666Y5962*X60651Y5963*X60636*X61535Y10240D2*Y9940D1*X60335*Y10540*X61535*Y10240*X61605D2*Y10540D1*X62805*Y9940*X61605*Y10240*X59745Y6740D2*X60045D1*Y7940*X59445*Y6740*X59745*Y6730D2*X59445D1*Y5530*X60045*Y6730*X59745*X63285Y5130D2*X63585D1*Y6330*X62985*Y5130D2*X63285D1*X62375Y4760D2*Y4460D1*X63575*Y5060*X62375*Y4760*X62685Y5130D2*X62985D1*Y6330*X62385*Y5130*X62685*X63895Y7530D2*X64195D1*Y8730*X63595*Y7530*X63895*X63595D2*Y6330D1*X64195*Y7530*X63585Y6330D2*X63885D1*X63585Y5130D2*X64185D1*Y6330*X63885*X63255Y7980D2*X62955D1*Y9180*X63555*Y7980*X63255*X56745Y4880D2*X56445D1*Y3680*X57045*X56745Y4880D2*X57045D1*X57345Y3680D2*X57645D1*Y4880*X57045*Y3680*X57345*X60636Y3930D2*Y5097D1*Y5963D2*Y7130D1*X61911*X60636Y3930D2*X61911D1*Y7130*X60355Y7220D2*Y8720D1*X60655Y9020*X62155*X60355Y7220D2*X62155D1*Y9020*X58955Y8410D2*Y8577D1*Y8493*X58455*X58539Y8410*X49861Y5097D2*X49876D1*X49891Y5098*X49906Y5099*X49921Y5101*X49936Y5104*X49951Y5106*X49966Y5110*X49980Y5114*X49995Y5118*X50009Y5123*X50023Y5129*X50037Y5134*X50051Y5141*X50064Y5148*X50077Y5155*X50090Y5163*X50103Y5171*X50116Y5180*X50128Y5189*X50139Y5198*X50151Y5208*X50162Y5219*X50172Y5229*X50183Y5240*X50193Y5252*X50202Y5263*X50211Y5275*X50220Y5288*X50228Y5301*X50236Y5314*X50243Y5327*X50250Y5340*X50257Y5354*X50262Y5368*X50268Y5382*X50273Y5396*X50277Y5411*X50281Y5425*X50285Y5440*X50287Y5455*X50290Y5470*X50292Y5485*X50293Y5500*X50294Y5515*Y5530*Y5545*X50293Y5560*X50292Y5575*X50290Y5590*X50287Y5605*X50285Y5620*X50281Y5635*X50277Y5649*X50273Y5664*X50268Y5678*X50262Y5692*X50257Y5706*X50250Y5720*X50243Y5733*X50236Y5747*X50228Y5759*X50220Y5772*X50211Y5785*X50202Y5797*X50193Y5808*X50183Y5820*X50172Y5831*X50162Y5841*X50151Y5852*X50139Y5862*X50128Y5871*X50116Y5880*X50103Y5889*X50090Y5897*X50077Y5905*X50064Y5912*X50051Y5919*X50037Y5926*X50023Y5931*X50009Y5937*X49995Y5942*X49980Y5946*X49966Y5950*X49951Y5954*X49936Y5956*X49921Y5959*X49906Y5961*X49891Y5962*X49876Y5963*X49861*X50760Y10240D2*Y9940D1*X49560*Y10540*X50760*Y10240*X50830D2*Y10540D1*X52030*Y9940*X50830*Y10240*X48970Y6740D2*X49270D1*Y7940*X48670*Y6740*X48970*Y6730D2*X48670D1*Y5530*X49270*Y6730*X48970*X52510Y5130D2*X52810D1*Y6330*X52210*Y5130D2*X52510D1*X51600Y4760D2*Y4460D1*X52800*Y5060*X51600*Y4760*X51910Y5130D2*X52210D1*Y6330*X51610*Y5130*X51910*X53120Y7530D2*X53420D1*Y8730*X52820*Y7530*X53120*X52820D2*Y6330D1*X53420*Y7530*X52810Y6330D2*X53110D1*X52810Y5130D2*X53410D1*Y6330*X53110*X52480Y7980D2*X52180D1*Y9180*X52780*Y7980*X52480*X45970Y4880D2*X45670D1*Y3680*X46270*X45970Y4880D2*X46270D1*X46570Y3680D2*X46870D1*Y4880*X46270*Y3680*X46570*X49861Y3930D2*Y5097D1*Y5963D2*Y7130D1*X51136*X49861Y3930D2*X51136D1*Y7130*X49580Y7220D2*Y8720D1*X49880Y9020*X51380*X49580Y7220D2*X51380D1*Y9020*X48180Y8410D2*Y8577D1*Y8493*X47680*X47764Y8410*X39086Y5097D2*X39101D1*X39116Y5098*X39131Y5099*X39146Y5101*X39161Y5104*X39176Y5106*X39191Y5110*X39205Y5114*X39220Y5118*X39234Y5123*X39248Y5129*X39262Y5134*X39276Y5141*X39289Y5148*X39302Y5155*X39315Y5163*X39328Y5171*X39341Y5180*X39353Y5189*X39364Y5198*X39376Y5208*X39387Y5219*X39397Y5229*X39408Y5240*X39418Y5252*X39427Y5263*X39436Y5275*X39445Y5288*X39453Y5301*X39461Y5314*X39468Y5327*X39475Y5340*X39482Y5354*X39487Y5368*X39493Y5382*X39498Y5396*X39502Y5411*X39506Y5425*X39510Y5440*X39512Y5455*X39515Y5470*X39517Y5485*X39518Y5500*X39519Y5515*Y5530*Y5545*X39518Y5560*X39517Y5575*X39515Y5590*X39512Y5605*X39510Y5620*X39506Y5635*X39502Y5649*X39498Y5664*X39493Y5678*X39487Y5692*X39482Y5706*X39475Y5720*X39468Y5733*X39461Y5747*X39453Y5759*X39445Y5772*X39436Y5785*X39427Y5797*X39418Y5808*X39408Y5820*X39397Y5831*X39387Y5841*X39376Y5852*X39364Y5862*X39353Y5871*X39341Y5880*X39328Y5889*X39315Y5897*X39302Y5905*X39289Y5912*X39276Y5919*X39262Y5926*X39248Y5931*X39234Y5937*X39220Y5942*X39205Y5946*X39191Y5950*X39176Y5954*X39161Y5956*X39146Y5959*X39131Y5961*X39116Y5962*X39101Y5963*X39086*X39985Y10240D2*Y9940D1*X38785*Y10540*X39985*Y10240*X40055D2*Y10540D1*X41255*Y9940*X40055*Y10240*X38195Y6740D2*X38495D1*Y7940*X37895*Y6740*X38195*Y6730D2*X37895D1*Y5530*X38495*Y6730*X38195*X41735Y5130D2*X42035D1*Y6330*X41435*Y5130D2*X41735D1*X40825Y4760D2*Y4460D1*X42025*Y5060*X40825*Y4760*X41135Y5130D2*X41435D1*Y6330*X40835*Y5130*X41135*X42345Y7530D2*X42645D1*Y8730*X42045*Y7530*X42345*X42045D2*Y6330D1*X42645*Y7530*X42035Y6330D2*X42335D1*X42035Y5130D2*X42635D1*Y6330*X42335*X41705Y7980D2*X41405D1*Y9180*X42005*Y7980*X41705*X35195Y4880D2*X34895D1*Y3680*X35495*X35195Y4880D2*X35495D1*X35795Y3680D2*X36095D1*Y4880*X35495*Y3680*X35795*X39086Y3930D2*Y5097D1*Y5963D2*Y7130D1*X40361*X39086Y3930D2*X40361D1*Y7130*X38805Y7220D2*Y8720D1*X39105Y9020*X40605*X38805Y7220D2*X40605D1*Y9020*X37405Y8410D2*Y8577D1*Y8493*X36905*X36989Y8410*X28311Y5097D2*X28326D1*X28341Y5098*X28356Y5099*X28371Y5101*X28386Y5104*X28401Y5106*X28416Y5110*X28430Y5114*X28445Y5118*X28459Y5123*X28473Y5129*X28487Y5134*X28501Y5141*X28514Y5148*X28527Y5155*X28540Y5163*X28553Y5171*X28566Y5180*X28578Y5189*X28589Y5198*X28601Y5208*X28612Y5219*X28622Y5229*X28633Y5240*X28643Y5252*X28652Y5263*X28661Y5275*X28670Y5288*X28678Y5301*X28686Y5314*X28693Y5327*X28700Y5340*X28707Y5354*X28712Y5368*X28718Y5382*X28723Y5396*X28727Y5411*X28731Y5425*X28735Y5440*X28737Y5455*X28740Y5470*X28742Y5485*X28743Y5500*X28744Y5515*Y5530*Y5545*X28743Y5560*X28742Y5575*X28740Y5590*X28737Y5605*X28735Y5620*X28731Y5635*X28727Y5649*X28723Y5664*X28718Y5678*X28712Y5692*X28707Y5706*X28700Y5720*X28693Y5733*X28686Y5747*X28678Y5759*X28670Y5772*X28661Y5785*X28652Y5797*X28643Y5808*X28633Y5820*X28622Y5831*X28612Y5841*X28601Y5852*X28589Y5862*X28578Y5871*X28566Y5880*X28553Y5889*X28540Y5897*X28527Y5905*X28514Y5912*X28501Y5919*X28487Y5926*X28473Y5931*X28459Y5937*X28445Y5942*X28430Y5946*X28416Y5950*X28401Y5954*X28386Y5956*X28371Y5959*X28356Y5961*X28341Y5962*X28326Y5963*X28311*X29210Y10240D2*Y9940D1*X28010*Y10540*X29210*Y10240*X29280D2*Y10540D1*X30480*Y9940*X29280*Y10240*X27420Y6740D2*X27720D1*Y7940*X27120*Y6740*X27420*Y6730D2*X27120D1*Y5530*X27720*Y6730*X27420*X30960Y5130D2*X31260D1*Y6330*X30660*Y5130D2*X30960D1*X30050Y4760D2*Y4460D1*X31250*Y5060*X30050*Y4760*X30360Y5130D2*X30660D1*Y6330*X30060*Y5130*X30360*X31570Y7530D2*X31870D1*Y8730*X31270*Y7530*X31570*X31270D2*Y6330D1*X31870*Y7530*X31260Y6330D2*X31560D1*X31260Y5130D2*X31860D1*Y6330*X31560*X30930Y7980D2*X30630D1*Y9180*X31230*Y7980*X30930*X24420Y4880D2*X24120D1*Y3680*X24720*X24420Y4880D2*X24720D1*X25020Y3680D2*X25320D1*Y4880*X24720*Y3680*X25020*X28311Y3930D2*Y5097D1*Y5963D2*Y7130D1*X29586*X28311Y3930D2*X29586D1*Y7130*X28030Y7220D2*Y8720D1*X28330Y9020*X29830*X28030Y7220D2*X29830D1*Y9020*X26630Y8410D2*Y8577D1*Y8493*X26130*X26214Y8410*X17536Y5097D2*X17551D1*X17566Y5098*X17581Y5099*X17596Y5101*X17611Y5104*X17626Y5106*X17641Y5110*X17655Y5114*X17670Y5118*X17684Y5123*X17698Y5129*X17712Y5134*X17726Y5141*X17739Y5148*X17752Y5155*X17765Y5163*X17778Y5171*X17791Y5180*X17803Y5189*X17814Y5198*X17826Y5208*X17837Y5219*X17847Y5229*X17858Y5240*X17868Y5252*X17877Y5263*X17886Y5275*X17895Y5288*X17903Y5301*X17911Y5314*X17918Y5327*X17925Y5340*X17932Y5354*X17937Y5368*X17943Y5382*X17948Y5396*X17952Y5411*X17956Y5425*X17960Y5440*X17962Y5455*X17965Y5470*X17967Y5485*X17968Y5500*X17969Y5515*Y5530*Y5545*X17968Y5560*X17967Y5575*X17965Y5590*X17962Y5605*X17960Y5620*X17956Y5635*X17952Y5649*X17948Y5664*X17943Y5678*X17937Y5692*X17932Y5706*X17925Y5720*X17918Y5733*X17911Y5747*X17903Y5759*X17895Y5772*X17886Y5785*X17877Y5797*X17868Y5808*X17858Y5820*X17847Y5831*X17837Y5841*X17826Y5852*X17814Y5862*X17803Y5871*X17791Y5880*X17778Y5889*X17765Y5897*X17752Y5905*X17739Y5912*X17726Y5919*X17712Y5926*X17698Y5931*X17684Y5937*X17670Y5942*X17655Y5946*X17641Y5950*X17626Y5954*X17611Y5956*X17596Y5959*X17581Y5961*X17566Y5962*X17551Y5963*X17536*X18435Y10240D2*Y9940D1*X17235*Y10540*X18435*Y10240*X18505D2*Y10540D1*X19705*Y9940*X18505*Y10240*X16645Y6740D2*X16945D1*Y7940*X16345*Y6740*X16645*Y6730D2*X16345D1*Y5530*X16945*Y6730*X16645*X20185Y5130D2*X20485D1*Y6330*X19885*Y5130D2*X20185D1*X19275Y4760D2*Y4460D1*X20475*Y5060*X19275*Y4760*X19585Y5130D2*X19885D1*Y6330*X19285*Y5130*X19585*X20795Y7530D2*X21095D1*Y8730*X20495*Y7530*X20795*X20495D2*Y6330D1*X21095*Y7530*X20485Y6330D2*X20785D1*X20485Y5130D2*X21085D1*Y6330*X20785*X20155Y7980D2*X19855D1*Y9180*X20455*Y7980*X20155*X13645Y4880D2*X13345D1*Y3680*X13945*X13645Y4880D2*X13945D1*X14245Y3680D2*X14545D1*Y4880*X13945*Y3680*X14245*X17536Y3930D2*Y5097D1*Y5963D2*Y7130D1*X18811*X17536Y3930D2*X18811D1*Y7130*X17255Y7220D2*Y8720D1*X17555Y9020*X19055*X17255Y7220D2*X19055D1*Y9020*X15855Y8410D2*Y8577D1*Y8493*X15355*X15439Y8410*X6761Y5097D2*X6776D1*X6791Y5098*X6806Y5099*X6821Y5101*X6836Y5104*X6851Y5106*X6866Y5110*X6880Y5114*X6895Y5118*X6909Y5123*X6923Y5129*X6937Y5134*X6951Y5141*X6964Y5148*X6977Y5155*X6990Y5163*X7003Y5171*X7016Y5180*X7028Y5189*X7039Y5198*X7051Y5208*X7062Y5219*X7072Y5229*X7083Y5240*X7093Y5252*X7102Y5263*X7111Y5275*X7120Y5288*X7128Y5301*X7136Y5314*X7143Y5327*X7150Y5340*X7157Y5354*X7162Y5368*X7168Y5382*X7173Y5396*X7177Y5411*X7181Y5425*X7185Y5440*X7187Y5455*X7190Y5470*X7192Y5485*X7193Y5500*X7194Y5515*Y5530*Y5545*X7193Y5560*X7192Y5575*X7190Y5590*X7187Y5605*X7185Y5620*X7181Y5635*X7177Y5649*X7173Y5664*X7168Y5678*X7162Y5692*X7157Y5706*X7150Y5720*X7143Y5733*X7136Y5747*X7128Y5759*X7120Y5772*X7111Y5785*X7102Y5797*X7093Y5808*X7083Y5820*X7072Y5831*X7062Y5841*X7051Y5852*X7039Y5862*X7028Y5871*X7016Y5880*X7003Y5889*X6990Y5897*X6977Y5905*X6964Y5912*X6951Y5919*X6937Y5926*X6923Y5931*X6909Y5937*X6895Y5942*X6880Y5946*X6866Y5950*X6851Y5954*X6836Y5956*X6821Y5959*X6806Y5961*X6791Y5962*X6776Y5963*X6761*X7660Y10240D2*Y9940D1*X6460*Y10540*X7660*Y10240*X7730D2*Y10540D1*X8930*Y9940*X7730*Y10240*X5870Y6740D2*X6170D1*Y7940*X5570*Y6740*X5870*Y6730D2*X5570D1*Y5530*X6170*Y6730*X5870*X9410Y5130D2*X9710D1*Y6330*X9110*Y5130D2*X9410D1*X8500Y4760D2*Y4460D1*X9700*Y5060*X8500*Y4760*X8810Y5130D2*X9110D1*Y6330*X8510*Y5130*X8810*X10020Y7530D2*X10320D1*Y8730*X9720*Y7530*X10020*X9720D2*Y6330D1*X10320*Y7530*X9710Y6330D2*X10010D1*X9710Y5130D2*X10310D1*Y6330*X10010*X9380Y7980D2*X9080D1*Y9180*X9680*Y7980*X9380*X2870Y4880D2*X2570D1*Y3680*X3170*X2870Y4880D2*X3170D1*X3470Y3680D2*X3770D1*Y4880*X3170*Y3680*X3470*X6761Y3930D2*Y5097D1*Y5963D2*Y7130D1*X8036*X6761Y3930D2*X8036D1*Y7130*X6480Y7220D2*Y8720D1*X6780Y9020*X8280*X6480Y7220D2*X8280D1*Y9020*X5080Y8410D2*Y8577D1*Y8493*X4580*X4664Y8410*D23*X12080Y53930D2*Y54263D1*Y54097*X12580*X12247Y54513D2*Y54680D1*X12330Y54763*X12580*Y54513*X12497Y54430*X12413Y54513*Y54763*X12747Y55096D2*Y55180D1*X12663Y55263*X12247*Y55013*X12330Y54930*X12497*X12580Y55013*Y55263*Y55763D2*Y55430D1*X12247Y55763*X12164*X12080Y55679*Y55513*X12164Y55430*Y55929D2*X12080Y56013D1*Y56179*X12164Y56263*X12497*X12580Y56179*Y56013*X12497Y55929*X12164*X12580Y56429D2*Y56596D1*Y56513*X12080*X12164Y56429*X12330Y56846D2*Y57179D1*X12580Y57346D2*X12080D1*Y57596*X12164Y57679*X12330*X12413Y57596*Y57346*Y57512D2*X12580Y57679D1*Y58095D2*Y57929D1*X12497Y57845*X12330*X12247Y57929*Y58095*X12330Y58179*X12413*Y57845*X12247Y58345D2*X12580Y58512D1*X12247Y58679*X12580Y59095D2*X12080D1*X12330Y58845*Y59178*X22855Y53930D2*Y54263D1*Y54097*X23355*X23022Y54513D2*Y54680D1*X23105Y54763*X23355*Y54513*X23272Y54430*X23188Y54513*Y54763*X23522Y55096D2*Y55180D1*X23438Y55263*X23022*Y55013*X23105Y54930*X23272*X23355Y55013*Y55263*Y55763D2*Y55430D1*X23022Y55763*X22939*X22855Y55679*Y55513*X22939Y55430*Y55929D2*X22855Y56013D1*Y56179*X22939Y56263*X23272*X23355Y56179*Y56013*X23272Y55929*X22939*X23355Y56429D2*Y56596D1*Y56513*X22855*X22939Y56429*X23105Y56846D2*Y57179D1*X23355Y57346D2*X22855D1*Y57596*X22939Y57679*X23105*X23188Y57596*Y57346*Y57512D2*X23355Y57679D1*Y58095D2*Y57929D1*X23272Y57845*X23105*X23022Y57929*Y58095*X23105Y58179*X23188*Y57845*X23022Y58345D2*X23355Y58512D1*X23022Y58679*X23355Y59095D2*X22855D1*X23105Y58845*Y59178*X33630Y53930D2*Y54263D1*Y54097*X34130*X33797Y54513D2*Y54680D1*X33880Y54763*X34130*Y54513*X34047Y54430*X33963Y54513*Y54763*X34297Y55096D2*Y55180D1*X34213Y55263*X33797*Y55013*X33880Y54930*X34047*X34130Y55013*Y55263*Y55763D2*Y55430D1*X33797Y55763*X33714*X33630Y55679*Y55513*X33714Y55430*Y55929D2*X33630Y56013D1*Y56179*X33714Y56263*X34047*X34130Y56179*Y56013*X34047Y55929*X33714*X34130Y56429D2*Y56596D1*Y56513*X33630*X33714Y56429*X33880Y56846D2*Y57179D1*X34130Y57346D2*X33630D1*Y57596*X33714Y57679*X33880*X33963Y57596*Y57346*Y57512D2*X34130Y57679D1*Y58095D2*Y57929D1*X34047Y57845*X33880*X33797Y57929*Y58095*X33880Y58179*X33963*Y57845*X33797Y58345D2*X34130Y58512D1*X33797Y58679*X34130Y59095D2*X33630D1*X33880Y58845*Y59178*X44405Y53930D2*Y54263D1*Y54097*X44905*X44572Y54513D2*Y54680D1*X44655Y54763*X44905*Y54513*X44822Y54430*X44738Y54513*Y54763*X45072Y55096D2*Y55180D1*X44988Y55263*X44572*Y55013*X44655Y54930*X44822*X44905Y55013*Y55263*Y55763D2*Y55430D1*X44572Y55763*X44489*X44405Y55679*Y55513*X44489Y55430*Y55929D2*X44405Y56013D1*Y56179*X44489Y56263*X44822*X44905Y56179*Y56013*X44822Y55929*X44489*X44905Y56429D2*Y56596D1*Y56513*X44405*X44489Y56429*X44655Y56846D2*Y57179D1*X44905Y57346D2*X44405D1*Y57596*X44489Y57679*X44655*X44738Y57596*Y57346*Y57512D2*X44905Y57679D1*Y58095D2*Y57929D1*X44822Y57845*X44655*X44572Y57929*Y58095*X44655Y58179*X44738*Y57845*X44572Y58345D2*X44905Y58512D1*X44572Y58679*X44905Y59095D2*X44405D1*X44655Y58845*Y59178*X55180Y53930D2*Y54263D1*Y54097*X55680*X55347Y54513D2*Y54680D1*X55430Y54763*X55680*Y54513*X55597Y54430*X55513Y54513*Y54763*X55847Y55096D2*Y55180D1*X55763Y55263*X55347*Y55013*X55430Y54930*X55597*X55680Y55013*Y55263*Y55763D2*Y55430D1*X55347Y55763*X55264*X55180Y55679*Y55513*X55264Y55430*Y55929D2*X55180Y56013D1*Y56179*X55264Y56263*X55597*X55680Y56179*Y56013*X55597Y55929*X55264*X55680Y56429D2*Y56596D1*Y56513*X55180*X55264Y56429*X55430Y56846D2*Y57179D1*X55680Y57346D2*X55180D1*Y57596*X55264Y57679*X55430*X55513Y57596*Y57346*Y57512D2*X55680Y57679D1*Y58095D2*Y57929D1*X55597Y57845*X55430*X55347Y57929*Y58095*X55430Y58179*X55513*Y57845*X55347Y58345D2*X55680Y58512D1*X55347Y58679*X55680Y59095D2*X55180D1*X55430Y58845*Y59178*X65955Y53930D2*Y54263D1*Y54097*X66455*X66122Y54513D2*Y54680D1*X66205Y54763*X66455*Y54513*X66372Y54430*X66288Y54513*Y54763*X66622Y55096D2*Y55180D1*X66538Y55263*X66122*Y55013*X66205Y54930*X66372*X66455Y55013*Y55263*Y55763D2*Y55430D1*X66122Y55763*X66039*X65955Y55679*Y55513*X66039Y55430*Y55929D2*X65955Y56013D1*Y56179*X66039Y56263*X66372*X66455Y56179*Y56013*X66372Y55929*X66039*X66455Y56429D2*Y56596D1*Y56513*X65955*X66039Y56429*X66205Y56846D2*Y57179D1*X66455Y57346D2*X65955D1*Y57596*X66039Y57679*X66205*X66288Y57596*Y57346*Y57512D2*X66455Y57679D1*Y58095D2*Y57929D1*X66372Y57845*X66205*X66122Y57929*Y58095*X66205Y58179*X66288*Y57845*X66122Y58345D2*X66455Y58512D1*X66122Y58679*X66455Y59095D2*X65955D1*X66205Y58845*Y59178*X76730Y53930D2*Y54263D1*Y54097*X77230*X76897Y54513D2*Y54680D1*X76980Y54763*X77230*Y54513*X77147Y54430*X77063Y54513*Y54763*X77397Y55096D2*Y55180D1*X77313Y55263*X76897*Y55013*X76980Y54930*X77147*X77230Y55013*Y55263*Y55763D2*Y55430D1*X76897Y55763*X76814*X76730Y55679*Y55513*X76814Y55430*Y55929D2*X76730Y56013D1*Y56179*X76814Y56263*X77147*X77230Y56179*Y56013*X77147Y55929*X76814*X77230Y56429D2*Y56596D1*Y56513*X76730*X76814Y56429*X76980Y56846D2*Y57179D1*X77230Y57346D2*X76730D1*Y57596*X76814Y57679*X76980*X77063Y57596*Y57346*Y57512D2*X77230Y57679D1*Y58095D2*Y57929D1*X77147Y57845*X76980*X76897Y57929*Y58095*X76980Y58179*X77063*Y57845*X76897Y58345D2*X77230Y58512D1*X76897Y58679*X77230Y59095D2*X76730D1*X76980Y58845*Y59178*X87505Y53930D2*Y54263D1*Y54097*X88005*X87672Y54513D2*Y54680D1*X87755Y54763*X88005*Y54513*X87922Y54430*X87838Y54513*Y54763*X88172Y55096D2*Y55180D1*X88088Y55263*X87672*Y55013*X87755Y54930*X87922*X88005Y55013*Y55263*Y55763D2*Y55430D1*X87672Y55763*X87589*X87505Y55679*Y55513*X87589Y55430*Y55929D2*X87505Y56013D1*Y56179*X87589Y56263*X87922*X88005Y56179*Y56013*X87922Y55929*X87589*X88005Y56429D2*Y56596D1*Y56513*X87505*X87589Y56429*X87755Y56846D2*Y57179D1*X88005Y57346D2*X87505D1*Y57596*X87589Y57679*X87755*X87838Y57596*Y57346*Y57512D2*X88005Y57679D1*Y58095D2*Y57929D1*X87922Y57845*X87755*X87672Y57929*Y58095*X87755Y58179*X87838*Y57845*X87672Y58345D2*X88005Y58512D1*X87672Y58679*X88005Y59095D2*X87505D1*X87755Y58845*Y59178*X98280Y53930D2*Y54263D1*Y54097*X98780*X98447Y54513D2*Y54680D1*X98530Y54763*X98780*Y54513*X98697Y54430*X98613Y54513*Y54763*X98947Y55096D2*Y55180D1*X98863Y55263*X98447*Y55013*X98530Y54930*X98697*X98780Y55013*Y55263*Y55763D2*Y55430D1*X98447Y55763*X98364*X98280Y55679*Y55513*X98364Y55430*Y55929D2*X98280Y56013D1*Y56179*X98364Y56263*X98697*X98780Y56179*Y56013*X98697Y55929*X98364*X98780Y56429D2*Y56596D1*Y56513*X98280*X98364Y56429*X98530Y56846D2*Y57179D1*X98780Y57346D2*X98280D1*Y57596*X98364Y57679*X98530*X98613Y57596*Y57346*Y57512D2*X98780Y57679D1*Y58095D2*Y57929D1*X98697Y57845*X98530*X98447Y57929*Y58095*X98530Y58179*X98613*Y57845*X98447Y58345D2*X98780Y58512D1*X98447Y58679*X98780Y59095D2*X98280D1*X98530Y58845*Y59178*X98280Y44040D2*Y44373D1*Y44207*X98780*X98447Y44623D2*Y44790D1*X98530Y44873*X98780*Y44623*X98697Y44540*X98613Y44623*Y44873*X98947Y45206D2*Y45290D1*X98863Y45373*X98447*Y45123*X98530Y45040*X98697*X98780Y45123*Y45373*Y45873D2*Y45540D1*X98447Y45873*X98364*X98280Y45789*Y45623*X98364Y45540*Y46039D2*X98280Y46123D1*Y46289*X98364Y46373*X98697*X98780Y46289*Y46123*X98697Y46039*X98364*X98780Y46539D2*Y46706D1*Y46623*X98280*X98364Y46539*X98530Y46956D2*Y47289D1*X98780Y47456D2*X98280D1*Y47706*X98364Y47789*X98530*X98613Y47706*Y47456*Y47622D2*X98780Y47789D1*Y48205D2*Y48039D1*X98697Y47955*X98530*X98447Y48039*Y48205*X98530Y48289*X98613*Y47955*X98447Y48455D2*X98780Y48622D1*X98447Y48789*X98780Y49205D2*X98280D1*X98530Y48955*Y49288*X87505Y44040D2*Y44373D1*Y44207*X88005*X87672Y44623D2*Y44790D1*X87755Y44873*X88005*Y44623*X87922Y44540*X87838Y44623*Y44873*X88172Y45206D2*Y45290D1*X88088Y45373*X87672*Y45123*X87755Y45040*X87922*X88005Y45123*Y45373*Y45873D2*Y45540D1*X87672Y45873*X87589*X87505Y45789*Y45623*X87589Y45540*Y46039D2*X87505Y46123D1*Y46289*X87589Y46373*X87922*X88005Y46289*Y46123*X87922Y46039*X87589*X88005Y46539D2*Y46706D1*Y46623*X87505*X87589Y46539*X87755Y46956D2*Y47289D1*X88005Y47456D2*X87505D1*Y47706*X87589Y47789*X87755*X87838Y47706*Y47456*Y47622D2*X88005Y47789D1*Y48205D2*Y48039D1*X87922Y47955*X87755*X87672Y48039*Y48205*X87755Y48289*X87838*Y47955*X87672Y48455D2*X88005Y48622D1*X87672Y48789*X88005Y49205D2*X87505D1*X87755Y48955*Y49288*X76730Y44040D2*Y44373D1*Y44207*X77230*X76897Y44623D2*Y44790D1*X76980Y44873*X77230*Y44623*X77147Y44540*X77063Y44623*Y44873*X77397Y45206D2*Y45290D1*X77313Y45373*X76897*Y45123*X76980Y45040*X77147*X77230Y45123*Y45373*Y45873D2*Y45540D1*X76897Y45873*X76814*X76730Y45789*Y45623*X76814Y45540*Y46039D2*X76730Y46123D1*Y46289*X76814Y46373*X77147*X77230Y46289*Y46123*X77147Y46039*X76814*X77230Y46539D2*Y46706D1*Y46623*X76730*X76814Y46539*X76980Y46956D2*Y47289D1*X77230Y47456D2*X76730D1*Y47706*X76814Y47789*X76980*X77063Y47706*Y47456*Y47622D2*X77230Y47789D1*Y48205D2*Y48039D1*X77147Y47955*X76980*X76897Y48039*Y48205*X76980Y48289*X77063*Y47955*X76897Y48455D2*X77230Y48622D1*X76897Y48789*X77230Y49205D2*X76730D1*X76980Y48955*Y49288*X65955Y44040D2*Y44373D1*Y44207*X66455*X66122Y44623D2*Y44790D1*X66205Y44873*X66455*Y44623*X66372Y44540*X66288Y44623*Y44873*X66622Y45206D2*Y45290D1*X66538Y45373*X66122*Y45123*X66205Y45040*X66372*X66455Y45123*Y45373*Y45873D2*Y45540D1*X66122Y45873*X66039*X65955Y45789*Y45623*X66039Y45540*Y46039D2*X65955Y46123D1*Y46289*X66039Y46373*X66372*X66455Y46289*Y46123*X66372Y46039*X66039*X66455Y46539D2*Y46706D1*Y46623*X65955*X66039Y46539*X66205Y46956D2*Y47289D1*X66455Y47456D2*X65955D1*Y47706*X66039Y47789*X66205*X66288Y47706*Y47456*Y47622D2*X66455Y47789D1*Y48205D2*Y48039D1*X66372Y47955*X66205*X66122Y48039*Y48205*X66205Y48289*X66288*Y47955*X66122Y48455D2*X66455Y48622D1*X66122Y48789*X66455Y49205D2*X65955D1*X66205Y48955*Y49288*X55180Y44040D2*Y44373D1*Y44207*X55680*X55347Y44623D2*Y44790D1*X55430Y44873*X55680*Y44623*X55597Y44540*X55513Y44623*Y44873*X55847Y45206D2*Y45290D1*X55763Y45373*X55347*Y45123*X55430Y45040*X55597*X55680Y45123*Y45373*Y45873D2*Y45540D1*X55347Y45873*X55264*X55180Y45789*Y45623*X55264Y45540*Y46039D2*X55180Y46123D1*Y46289*X55264Y46373*X55597*X55680Y46289*Y46123*X55597Y46039*X55264*X55680Y46539D2*Y46706D1*Y46623*X55180*X55264Y46539*X55430Y46956D2*Y47289D1*X55680Y47456D2*X55180D1*Y47706*X55264Y47789*X55430*X55513Y47706*Y47456*Y47622D2*X55680Y47789D1*Y48205D2*Y48039D1*X55597Y47955*X55430*X55347Y48039*Y48205*X55430Y48289*X55513*Y47955*X55347Y48455D2*X55680Y48622D1*X55347Y48789*X55680Y49205D2*X55180D1*X55430Y48955*Y49288*X44405Y44040D2*Y44373D1*Y44207*X44905*X44572Y44623D2*Y44790D1*X44655Y44873*X44905*Y44623*X44822Y44540*X44738Y44623*Y44873*X45072Y45206D2*Y45290D1*X44988Y45373*X44572*Y45123*X44655Y45040*X44822*X44905Y45123*Y45373*Y45873D2*Y45540D1*X44572Y45873*X44489*X44405Y45789*Y45623*X44489Y45540*Y46039D2*X44405Y46123D1*Y46289*X44489Y46373*X44822*X44905Y46289*Y46123*X44822Y46039*X44489*X44905Y46539D2*Y46706D1*Y46623*X44405*X44489Y46539*X44655Y46956D2*Y47289D1*X44905Y47456D2*X44405D1*Y47706*X44489Y47789*X44655*X44738Y47706*Y47456*Y47622D2*X44905Y47789D1*Y48205D2*Y48039D1*X44822Y47955*X44655*X44572Y48039*Y48205*X44655Y48289*X44738*Y47955*X44572Y48455D2*X44905Y48622D1*X44572Y48789*X44905Y49205D2*X44405D1*X44655Y48955*Y49288*X33630Y44040D2*Y44373D1*Y44207*X34130*X33797Y44623D2*Y44790D1*X33880Y44873*X34130*Y44623*X34047Y44540*X33963Y44623*Y44873*X34297Y45206D2*Y45290D1*X34213Y45373*X33797*Y45123*X33880Y45040*X34047*X34130Y45123*Y45373*Y45873D2*Y45540D1*X33797Y45873*X33714*X33630Y45789*Y45623*X33714Y45540*Y46039D2*X33630Y46123D1*Y46289*X33714Y46373*X34047*X34130Y46289*Y46123*X34047Y46039*X33714*X34130Y46539D2*Y46706D1*Y46623*X33630*X33714Y46539*X33880Y46956D2*Y47289D1*X34130Y47456D2*X33630D1*Y47706*X33714Y47789*X33880*X33963Y47706*Y47456*Y47622D2*X34130Y47789D1*Y48205D2*Y48039D1*X34047Y47955*X33880*X33797Y48039*Y48205*X33880Y48289*X33963*Y47955*X33797Y48455D2*X34130Y48622D1*X33797Y48789*X34130Y49205D2*X33630D1*X33880Y48955*Y49288*X22855Y44040D2*Y44373D1*Y44207*X23355*X23022Y44623D2*Y44790D1*X23105Y44873*X23355*Y44623*X23272Y44540*X23188Y44623*Y44873*X23522Y45206D2*Y45290D1*X23438Y45373*X23022*Y45123*X23105Y45040*X23272*X23355Y45123*Y45373*Y45873D2*Y45540D1*X23022Y45873*X22939*X22855Y45789*Y45623*X22939Y45540*Y46039D2*X22855Y46123D1*Y46289*X22939Y46373*X23272*X23355Y46289*Y46123*X23272Y46039*X22939*X23355Y46539D2*Y46706D1*Y46623*X22855*X22939Y46539*X23105Y46956D2*Y47289D1*X23355Y47456D2*X22855D1*Y47706*X22939Y47789*X23105*X23188Y47706*Y47456*Y47622D2*X23355Y47789D1*Y48205D2*Y48039D1*X23272Y47955*X23105*X23022Y48039*Y48205*X23105Y48289*X23188*Y47955*X23022Y48455D2*X23355Y48622D1*X23022Y48789*X23355Y49205D2*X22855D1*X23105Y48955*Y49288*X12080Y44040D2*Y44373D1*Y44207*X12580*X12247Y44623D2*Y44790D1*X12330Y44873*X12580*Y44623*X12497Y44540*X12413Y44623*Y44873*X12747Y45206D2*Y45290D1*X12663Y45373*X12247*Y45123*X12330Y45040*X12497*X12580Y45123*Y45373*Y45873D2*Y45540D1*X12247Y45873*X12164*X12080Y45789*Y45623*X12164Y45540*Y46039D2*X12080Y46123D1*Y46289*X12164Y46373*X12497*X12580Y46289*Y46123*X12497Y46039*X12164*X12580Y46539D2*Y46706D1*Y46623*X12080*X12164Y46539*X12330Y46956D2*Y47289D1*X12580Y47456D2*X12080D1*Y47706*X12164Y47789*X12330*X12413Y47706*Y47456*Y47622D2*X12580Y47789D1*Y48205D2*Y48039D1*X12497Y47955*X12330*X12247Y48039*Y48205*X12330Y48289*X12413*Y47955*X12247Y48455D2*X12580Y48622D1*X12247Y48789*X12580Y49205D2*X12080D1*X12330Y48955*Y49288*X12080Y34150D2*Y34483D1*Y34317*X12580*X12247Y34733D2*Y34900D1*X12330Y34983*X12580*Y34733*X12497Y34650*X12413Y34733*Y34983*X12747Y35316D2*Y35400D1*X12663Y35483*X12247*Y35233*X12330Y35150*X12497*X12580Y35233*Y35483*Y35983D2*Y35650D1*X12247Y35983*X12164*X12080Y35899*Y35733*X12164Y35650*Y36149D2*X12080Y36233D1*Y36399*X12164Y36483*X12497*X12580Y36399*Y36233*X12497Y36149*X12164*X12580Y36649D2*Y36816D1*Y36733*X12080*X12164Y36649*X12330Y37066D2*Y37399D1*X12580Y37566D2*X12080D1*Y37816*X12164Y37899*X12330*X12413Y37816*Y37566*Y37732D2*X12580Y37899D1*Y38315D2*Y38149D1*X12497Y38065*X12330*X12247Y38149*Y38315*X12330Y38399*X12413*Y38065*X12247Y38565D2*X12580Y38732D1*X12247Y38899*X12580Y39315D2*X12080D1*X12330Y39065*Y39398*X22855Y34150D2*Y34483D1*Y34317*X23355*X23022Y34733D2*Y34900D1*X23105Y34983*X23355*Y34733*X23272Y34650*X23188Y34733*Y34983*X23522Y35316D2*Y35400D1*X23438Y35483*X23022*Y35233*X23105Y35150*X23272*X23355Y35233*Y35483*Y35983D2*Y35650D1*X23022Y35983*X22939*X22855Y35899*Y35733*X22939Y35650*Y36149D2*X22855Y36233D1*Y36399*X22939Y36483*X23272*X23355Y36399*Y36233*X23272Y36149*X22939*X23355Y36649D2*Y36816D1*Y36733*X22855*X22939Y36649*X23105Y37066D2*Y37399D1*X23355Y37566D2*X22855D1*Y37816*X22939Y37899*X23105*X23188Y37816*Y37566*Y37732D2*X23355Y37899D1*Y38315D2*Y38149D1*X23272Y38065*X23105*X23022Y38149*Y38315*X23105Y38399*X23188*Y38065*X23022Y38565D2*X23355Y38732D1*X23022Y38899*X23355Y39315D2*X22855D1*X23105Y39065*Y39398*X33630Y34150D2*Y34483D1*Y34317*X34130*X33797Y34733D2*Y34900D1*X33880Y34983*X34130*Y34733*X34047Y34650*X33963Y34733*Y34983*X34297Y35316D2*Y35400D1*X34213Y35483*X33797*Y35233*X33880Y35150*X34047*X34130Y35233*Y35483*Y35983D2*Y35650D1*X33797Y35983*X33714*X33630Y35899*Y35733*X33714Y35650*Y36149D2*X33630Y36233D1*Y36399*X33714Y36483*X34047*X34130Y36399*Y36233*X34047Y36149*X33714*X34130Y36649D2*Y36816D1*Y36733*X33630*X33714Y36649*X33880Y37066D2*Y37399D1*X34130Y37566D2*X33630D1*Y37816*X33714Y37899*X33880*X33963Y37816*Y37566*Y37732D2*X34130Y37899D1*Y38315D2*Y38149D1*X34047Y38065*X33880*X33797Y38149*Y38315*X33880Y38399*X33963*Y38065*X33797Y38565D2*X34130Y38732D1*X33797Y38899*X34130Y39315D2*X33630D1*X33880Y39065*Y39398*X44405Y34150D2*Y34483D1*Y34317*X44905*X44572Y34733D2*Y34900D1*X44655Y34983*X44905*Y34733*X44822Y34650*X44738Y34733*Y34983*X45072Y35316D2*Y35400D1*X44988Y35483*X44572*Y35233*X44655Y35150*X44822*X44905Y35233*Y35483*Y35983D2*Y35650D1*X44572Y35983*X44489*X44405Y35899*Y35733*X44489Y35650*Y36149D2*X44405Y36233D1*Y36399*X44489Y36483*X44822*X44905Y36399*Y36233*X44822Y36149*X44489*X44905Y36649D2*Y36816D1*Y36733*X44405*X44489Y36649*X44655Y37066D2*Y37399D1*X44905Y37566D2*X44405D1*Y37816*X44489Y37899*X44655*X44738Y37816*Y37566*Y37732D2*X44905Y37899D1*Y38315D2*Y38149D1*X44822Y38065*X44655*X44572Y38149*Y38315*X44655Y38399*X44738*Y38065*X44572Y38565D2*X44905Y38732D1*X44572Y38899*X44905Y39315D2*X44405D1*X44655Y39065*Y39398*X55180Y34150D2*Y34483D1*Y34317*X55680*X55347Y34733D2*Y34900D1*X55430Y34983*X55680*Y34733*X55597Y34650*X55513Y34733*Y34983*X55847Y35316D2*Y35400D1*X55763Y35483*X55347*Y35233*X55430Y35150*X55597*X55680Y35233*Y35483*Y35983D2*Y35650D1*X55347Y35983*X55264*X55180Y35899*Y35733*X55264Y35650*Y36149D2*X55180Y36233D1*Y36399*X55264Y36483*X55597*X55680Y36399*Y36233*X55597Y36149*X55264*X55680Y36649D2*Y36816D1*Y36733*X55180*X55264Y36649*X55430Y37066D2*Y37399D1*X55680Y37566D2*X55180D1*Y37816*X55264Y37899*X55430*X55513Y37816*Y37566*Y37732D2*X55680Y37899D1*Y38315D2*Y38149D1*X55597Y38065*X55430*X55347Y38149*Y38315*X55430Y38399*X55513*Y38065*X55347Y38565D2*X55680Y38732D1*X55347Y38899*X55680Y39315D2*X55180D1*X55430Y39065*Y39398*X65955Y34150D2*Y34483D1*Y34317*X66455*X66122Y34733D2*Y34900D1*X66205Y34983*X66455*Y34733*X66372Y34650*X66288Y34733*Y34983*X66622Y35316D2*Y35400D1*X66538Y35483*X66122*Y35233*X66205Y35150*X66372*X66455Y35233*Y35483*Y35983D2*Y35650D1*X66122Y35983*X66039*X65955Y35899*Y35733*X66039Y35650*Y36149D2*X65955Y36233D1*Y36399*X66039Y36483*X66372*X66455Y36399*Y36233*X66372Y36149*X66039*X66455Y36649D2*Y36816D1*Y36733*X65955*X66039Y36649*X66205Y37066D2*Y37399D1*X66455Y37566D2*X65955D1*Y37816*X66039Y37899*X66205*X66288Y37816*Y37566*Y37732D2*X66455Y37899D1*Y38315D2*Y38149D1*X66372Y38065*X66205*X66122Y38149*Y38315*X66205Y38399*X66288*Y38065*X66122Y38565D2*X66455Y38732D1*X66122Y38899*X66455Y39315D2*X65955D1*X66205Y39065*Y39398*X76730Y34150D2*Y34483D1*Y34317*X77230*X76897Y34733D2*Y34900D1*X76980Y34983*X77230*Y34733*X77147Y34650*X77063Y34733*Y34983*X77397Y35316D2*Y35400D1*X77313Y35483*X76897*Y35233*X76980Y35150*X77147*X77230Y35233*Y35483*Y35983D2*Y35650D1*X76897Y35983*X76814*X76730Y35899*Y35733*X76814Y35650*Y36149D2*X76730Y36233D1*Y36399*X76814Y36483*X77147*X77230Y36399*Y36233*X77147Y36149*X76814*X77230Y36649D2*Y36816D1*Y36733*X76730*X76814Y36649*X76980Y37066D2*Y37399D1*X77230Y37566D2*X76730D1*Y37816*X76814Y37899*X76980*X77063Y37816*Y37566*Y37732D2*X77230Y37899D1*Y38315D2*Y38149D1*X77147Y38065*X76980*X76897Y38149*Y38315*X76980Y38399*X77063*Y38065*X76897Y38565D2*X77230Y38732D1*X76897Y38899*X77230Y39315D2*X76730D1*X76980Y39065*Y39398*X87505Y34150D2*Y34483D1*Y34317*X88005*X87672Y34733D2*Y34900D1*X87755Y34983*X88005*Y34733*X87922Y34650*X87838Y34733*Y34983*X88172Y35316D2*Y35400D1*X88088Y35483*X87672*Y35233*X87755Y35150*X87922*X88005Y35233*Y35483*Y35983D2*Y35650D1*X87672Y35983*X87589*X87505Y35899*Y35733*X87589Y35650*Y36149D2*X87505Y36233D1*Y36399*X87589Y36483*X87922*X88005Y36399*Y36233*X87922Y36149*X87589*X88005Y36649D2*Y36816D1*Y36733*X87505*X87589Y36649*X87755Y37066D2*Y37399D1*X88005Y37566D2*X87505D1*Y37816*X87589Y37899*X87755*X87838Y37816*Y37566*Y37732D2*X88005Y37899D1*Y38315D2*Y38149D1*X87922Y38065*X87755*X87672Y38149*Y38315*X87755Y38399*X87838*Y38065*X87672Y38565D2*X88005Y38732D1*X87672Y38899*X88005Y39315D2*X87505D1*X87755Y39065*Y39398*X98280Y34150D2*Y34483D1*Y34317*X98780*X98447Y34733D2*Y34900D1*X98530Y34983*X98780*Y34733*X98697Y34650*X98613Y34733*Y34983*X98947Y35316D2*Y35400D1*X98863Y35483*X98447*Y35233*X98530Y35150*X98697*X98780Y35233*Y35483*Y35983D2*Y35650D1*X98447Y35983*X98364*X98280Y35899*Y35733*X98364Y35650*Y36149D2*X98280Y36233D1*Y36399*X98364Y36483*X98697*X98780Y36399*Y36233*X98697Y36149*X98364*X98780Y36649D2*Y36816D1*Y36733*X98280*X98364Y36649*X98530Y37066D2*Y37399D1*X98780Y37566D2*X98280D1*Y37816*X98364Y37899*X98530*X98613Y37816*Y37566*Y37732D2*X98780Y37899D1*Y38315D2*Y38149D1*X98697Y38065*X98530*X98447Y38149*Y38315*X98530Y38399*X98613*Y38065*X98447Y38565D2*X98780Y38732D1*X98447Y38899*X98780Y39315D2*X98280D1*X98530Y39065*Y39398*X98280Y24260D2*Y24593D1*Y24427*X98780*X98447Y24843D2*Y25010D1*X98530Y25093*X98780*Y24843*X98697Y24760*X98613Y24843*Y25093*X98947Y25426D2*Y25510D1*X98863Y25593*X98447*Y25343*X98530Y25260*X98697*X98780Y25343*Y25593*Y26093D2*Y25760D1*X98447Y26093*X98364*X98280Y26009*Y25843*X98364Y25760*Y26259D2*X98280Y26343D1*Y26509*X98364Y26593*X98697*X98780Y26509*Y26343*X98697Y26259*X98364*X98780Y26759D2*Y26926D1*Y26843*X98280*X98364Y26759*X98530Y27176D2*Y27509D1*X98780Y27676D2*X98280D1*Y27926*X98364Y28009*X98530*X98613Y27926*Y27676*Y27842D2*X98780Y28009D1*Y28425D2*Y28259D1*X98697Y28175*X98530*X98447Y28259*Y28425*X98530Y28509*X98613*Y28175*X98447Y28675D2*X98780Y28842D1*X98447Y29009*X98780Y29425D2*X98280D1*X98530Y29175*Y29508*X87505Y24260D2*Y24593D1*Y24427*X88005*X87672Y24843D2*Y25010D1*X87755Y25093*X88005*Y24843*X87922Y24760*X87838Y24843*Y25093*X88172Y25426D2*Y25510D1*X88088Y25593*X87672*Y25343*X87755Y25260*X87922*X88005Y25343*Y25593*Y26093D2*Y25760D1*X87672Y26093*X87589*X87505Y26009*Y25843*X87589Y25760*Y26259D2*X87505Y26343D1*Y26509*X87589Y26593*X87922*X88005Y26509*Y26343*X87922Y26259*X87589*X88005Y26759D2*Y26926D1*Y26843*X87505*X87589Y26759*X87755Y27176D2*Y27509D1*X88005Y27676D2*X87505D1*Y27926*X87589Y28009*X87755*X87838Y27926*Y27676*Y27842D2*X88005Y28009D1*Y28425D2*Y28259D1*X87922Y28175*X87755*X87672Y28259*Y28425*X87755Y28509*X87838*Y28175*X87672Y28675D2*X88005Y28842D1*X87672Y29009*X88005Y29425D2*X87505D1*X87755Y29175*Y29508*X76730Y24260D2*Y24593D1*Y24427*X77230*X76897Y24843D2*Y25010D1*X76980Y25093*X77230*Y24843*X77147Y24760*X77063Y24843*Y25093*X77397Y25426D2*Y25510D1*X77313Y25593*X76897*Y25343*X76980Y25260*X77147*X77230Y25343*Y25593*Y26093D2*Y25760D1*X76897Y26093*X76814*X76730Y26009*Y25843*X76814Y25760*Y26259D2*X76730Y26343D1*Y26509*X76814Y26593*X77147*X77230Y26509*Y26343*X77147Y26259*X76814*X77230Y26759D2*Y26926D1*Y26843*X76730*X76814Y26759*X76980Y27176D2*Y27509D1*X77230Y27676D2*X76730D1*Y27926*X76814Y28009*X76980*X77063Y27926*Y27676*Y27842D2*X77230Y28009D1*Y28425D2*Y28259D1*X77147Y28175*X76980*X76897Y28259*Y28425*X76980Y28509*X77063*Y28175*X76897Y28675D2*X77230Y28842D1*X76897Y29009*X77230Y29425D2*X76730D1*X76980Y29175*Y29508*X65955Y24260D2*Y24593D1*Y24427*X66455*X66122Y24843D2*Y25010D1*X66205Y25093*X66455*Y24843*X66372Y24760*X66288Y24843*Y25093*X66622Y25426D2*Y25510D1*X66538Y25593*X66122*Y25343*X66205Y25260*X66372*X66455Y25343*Y25593*Y26093D2*Y25760D1*X66122Y26093*X66039*X65955Y26009*Y25843*X66039Y25760*Y26259D2*X65955Y26343D1*Y26509*X66039Y26593*X66372*X66455Y26509*Y26343*X66372Y26259*X66039*X66455Y26759D2*Y26926D1*Y26843*X65955*X66039Y26759*X66205Y27176D2*Y27509D1*X66455Y27676D2*X65955D1*Y27926*X66039Y28009*X66205*X66288Y27926*Y27676*Y27842D2*X66455Y28009D1*Y28425D2*Y28259D1*X66372Y28175*X66205*X66122Y28259*Y28425*X66205Y28509*X66288*Y28175*X66122Y28675D2*X66455Y28842D1*X66122Y29009*X66455Y29425D2*X65955D1*X66205Y29175*Y29508*X55180Y24260D2*Y24593D1*Y24427*X55680*X55347Y24843D2*Y25010D1*X55430Y25093*X55680*Y24843*X55597Y24760*X55513Y24843*Y25093*X55847Y25426D2*Y25510D1*X55763Y25593*X55347*Y25343*X55430Y25260*X55597*X55680Y25343*Y25593*Y26093D2*Y25760D1*X55347Y26093*X55264*X55180Y26009*Y25843*X55264Y25760*Y26259D2*X55180Y26343D1*Y26509*X55264Y26593*X55597*X55680Y26509*Y26343*X55597Y26259*X55264*X55680Y26759D2*Y26926D1*Y26843*X55180*X55264Y26759*X55430Y27176D2*Y27509D1*X55680Y27676D2*X55180D1*Y27926*X55264Y28009*X55430*X55513Y27926*Y27676*Y27842D2*X55680Y28009D1*Y28425D2*Y28259D1*X55597Y28175*X55430*X55347Y28259*Y28425*X55430Y28509*X55513*Y28175*X55347Y28675D2*X55680Y28842D1*X55347Y29009*X55680Y29425D2*X55180D1*X55430Y29175*Y29508*X44405Y24260D2*Y24593D1*Y24427*X44905*X44572Y24843D2*Y25010D1*X44655Y25093*X44905*Y24843*X44822Y24760*X44738Y24843*Y25093*X45072Y25426D2*Y25510D1*X44988Y25593*X44572*Y25343*X44655Y25260*X44822*X44905Y25343*Y25593*Y26093D2*Y25760D1*X44572Y26093*X44489*X44405Y26009*Y25843*X44489Y25760*Y26259D2*X44405Y26343D1*Y26509*X44489Y26593*X44822*X44905Y26509*Y26343*X44822Y26259*X44489*X44905Y26759D2*Y26926D1*Y26843*X44405*X44489Y26759*X44655Y27176D2*Y27509D1*X44905Y27676D2*X44405D1*Y27926*X44489Y28009*X44655*X44738Y27926*Y27676*Y27842D2*X44905Y28009D1*Y28425D2*Y28259D1*X44822Y28175*X44655*X44572Y28259*Y28425*X44655Y28509*X44738*Y28175*X44572Y28675D2*X44905Y28842D1*X44572Y29009*X44905Y29425D2*X44405D1*X44655Y29175*Y29508*X33630Y24260D2*Y24593D1*Y24427*X34130*X33797Y24843D2*Y25010D1*X33880Y25093*X34130*Y24843*X34047Y24760*X33963Y24843*Y25093*X34297Y25426D2*Y25510D1*X34213Y25593*X33797*Y25343*X33880Y25260*X34047*X34130Y25343*Y25593*Y26093D2*Y25760D1*X33797Y26093*X33714*X33630Y26009*Y25843*X33714Y25760*Y26259D2*X33630Y26343D1*Y26509*X33714Y26593*X34047*X34130Y26509*Y26343*X34047Y26259*X33714*X34130Y26759D2*Y26926D1*Y26843*X33630*X33714Y26759*X33880Y27176D2*Y27509D1*X34130Y27676D2*X33630D1*Y27926*X33714Y28009*X33880*X33963Y27926*Y27676*Y27842D2*X34130Y28009D1*Y28425D2*Y28259D1*X34047Y28175*X33880*X33797Y28259*Y28425*X33880Y28509*X33963*Y28175*X33797Y28675D2*X34130Y28842D1*X33797Y29009*X34130Y29425D2*X33630D1*X33880Y29175*Y29508*X22855Y24260D2*Y24593D1*Y24427*X23355*X23022Y24843D2*Y25010D1*X23105Y25093*X23355*Y24843*X23272Y24760*X23188Y24843*Y25093*X23522Y25426D2*Y25510D1*X23438Y25593*X23022*Y25343*X23105Y25260*X23272*X23355Y25343*Y25593*Y26093D2*Y25760D1*X23022Y26093*X22939*X22855Y26009*Y25843*X22939Y25760*Y26259D2*X22855Y26343D1*Y26509*X22939Y26593*X23272*X23355Y26509*Y26343*X23272Y26259*X22939*X23355Y26759D2*Y26926D1*Y26843*X22855*X22939Y26759*X23105Y27176D2*Y27509D1*X23355Y27676D2*X22855D1*Y27926*X22939Y28009*X23105*X23188Y27926*Y27676*Y27842D2*X23355Y28009D1*Y28425D2*Y28259D1*X23272Y28175*X23105*X23022Y28259*Y28425*X23105Y28509*X23188*Y28175*X23022Y28675D2*X23355Y28842D1*X23022Y29009*X23355Y29425D2*X22855D1*X23105Y29175*Y29508*X12080Y24260D2*Y24593D1*Y24427*X12580*X12247Y24843D2*Y25010D1*X12330Y25093*X12580*Y24843*X12497Y24760*X12413Y24843*Y25093*X12747Y25426D2*Y25510D1*X12663Y25593*X12247*Y25343*X12330Y25260*X12497*X12580Y25343*Y25593*Y26093D2*Y25760D1*X12247Y26093*X12164*X12080Y26009*Y25843*X12164Y25760*Y26259D2*X12080Y26343D1*Y26509*X12164Y26593*X12497*X12580Y26509*Y26343*X12497Y26259*X12164*X12580Y26759D2*Y26926D1*Y26843*X12080*X12164Y26759*X12330Y27176D2*Y27509D1*X12580Y27676D2*X12080D1*Y27926*X12164Y28009*X12330*X12413Y27926*Y27676*Y27842D2*X12580Y28009D1*Y28425D2*Y28259D1*X12497Y28175*X12330*X12247Y28259*Y28425*X12330Y28509*X12413*Y28175*X12247Y28675D2*X12580Y28842D1*X12247Y29009*X12580Y29425D2*X12080D1*X12330Y29175*Y29508*X12080Y14370D2*Y14703D1*Y14537*X12580*X12247Y14953D2*Y15120D1*X12330Y15203*X12580*Y14953*X12497Y14870*X12413Y14953*Y15203*X12747Y15536D2*Y15620D1*X12663Y15703*X12247*Y15453*X12330Y15370*X12497*X12580Y15453*Y15703*Y16203D2*Y15870D1*X12247Y16203*X12164*X12080Y16119*Y15953*X12164Y15870*Y16369D2*X12080Y16453D1*Y16619*X12164Y16703*X12497*X12580Y16619*Y16453*X12497Y16369*X12164*X12580Y16869D2*Y17036D1*Y16953*X12080*X12164Y16869*X12330Y17286D2*Y17619D1*X12580Y17786D2*X12080D1*Y18036*X12164Y18119*X12330*X12413Y18036*Y17786*Y17952D2*X12580Y18119D1*Y18535D2*Y18369D1*X12497Y18285*X12330*X12247Y18369*Y18535*X12330Y18619*X12413*Y18285*X12247Y18785D2*X12580Y18952D1*X12247Y19119*X12580Y19535D2*X12080D1*X12330Y19285*Y19618*X22855Y14370D2*Y14703D1*Y14537*X23355*X23022Y14953D2*Y15120D1*X23105Y15203*X23355*Y14953*X23272Y14870*X23188Y14953*Y15203*X23522Y15536D2*Y15620D1*X23438Y15703*X23022*Y15453*X23105Y15370*X23272*X23355Y15453*Y15703*Y16203D2*Y15870D1*X23022Y16203*X22939*X22855Y16119*Y15953*X22939Y15870*Y16369D2*X22855Y16453D1*Y16619*X22939Y16703*X23272*X23355Y16619*Y16453*X23272Y16369*X22939*X23355Y16869D2*Y17036D1*Y16953*X22855*X22939Y16869*X23105Y17286D2*Y17619D1*X23355Y17786D2*X22855D1*Y18036*X22939Y18119*X23105*X23188Y18036*Y17786*Y17952D2*X23355Y18119D1*Y18535D2*Y18369D1*X23272Y18285*X23105*X23022Y18369*Y18535*X23105Y18619*X23188*Y18285*X23022Y18785D2*X23355Y18952D1*X23022Y19119*X23355Y19535D2*X22855D1*X23105Y19285*Y19618*X33630Y14370D2*Y14703D1*Y14537*X34130*X33797Y14953D2*Y15120D1*X33880Y15203*X34130*Y14953*X34047Y14870*X33963Y14953*Y15203*X34297Y15536D2*Y15620D1*X34213Y15703*X33797*Y15453*X33880Y15370*X34047*X34130Y15453*Y15703*Y16203D2*Y15870D1*X33797Y16203*X33714*X33630Y16119*Y15953*X33714Y15870*Y16369D2*X33630Y16453D1*Y16619*X33714Y16703*X34047*X34130Y16619*Y16453*X34047Y16369*X33714*X34130Y16869D2*Y17036D1*Y16953*X33630*X33714Y16869*X33880Y17286D2*Y17619D1*X34130Y17786D2*X33630D1*Y18036*X33714Y18119*X33880*X33963Y18036*Y17786*Y17952D2*X34130Y18119D1*Y18535D2*Y18369D1*X34047Y18285*X33880*X33797Y18369*Y18535*X33880Y18619*X33963*Y18285*X33797Y18785D2*X34130Y18952D1*X33797Y19119*X34130Y19535D2*X33630D1*X33880Y19285*Y19618*X44405Y14370D2*Y14703D1*Y14537*X44905*X44572Y14953D2*Y15120D1*X44655Y15203*X44905*Y14953*X44822Y14870*X44738Y14953*Y15203*X45072Y15536D2*Y15620D1*X44988Y15703*X44572*Y15453*X44655Y15370*X44822*X44905Y15453*Y15703*Y16203D2*Y15870D1*X44572Y16203*X44489*X44405Y16119*Y15953*X44489Y15870*Y16369D2*X44405Y16453D1*Y16619*X44489Y16703*X44822*X44905Y16619*Y16453*X44822Y16369*X44489*X44905Y16869D2*Y17036D1*Y16953*X44405*X44489Y16869*X44655Y17286D2*Y17619D1*X44905Y17786D2*X44405D1*Y18036*X44489Y18119*X44655*X44738Y18036*Y17786*Y17952D2*X44905Y18119D1*Y18535D2*Y18369D1*X44822Y18285*X44655*X44572Y18369*Y18535*X44655Y18619*X44738*Y18285*X44572Y18785D2*X44905Y18952D1*X44572Y19119*X44905Y19535D2*X44405D1*X44655Y19285*Y19618*X55180Y14370D2*Y14703D1*Y14537*X55680*X55347Y14953D2*Y15120D1*X55430Y15203*X55680*Y14953*X55597Y14870*X55513Y14953*Y15203*X55847Y15536D2*Y15620D1*X55763Y15703*X55347*Y15453*X55430Y15370*X55597*X55680Y15453*Y15703*Y16203D2*Y15870D1*X55347Y16203*X55264*X55180Y16119*Y15953*X55264Y15870*Y16369D2*X55180Y16453D1*Y16619*X55264Y16703*X55597*X55680Y16619*Y16453*X55597Y16369*X55264*X55680Y16869D2*Y17036D1*Y16953*X55180*X55264Y16869*X55430Y17286D2*Y17619D1*X55680Y17786D2*X55180D1*Y18036*X55264Y18119*X55430*X55513Y18036*Y17786*Y17952D2*X55680Y18119D1*Y18535D2*Y18369D1*X55597Y18285*X55430*X55347Y18369*Y18535*X55430Y18619*X55513*Y18285*X55347Y18785D2*X55680Y18952D1*X55347Y19119*X55680Y19535D2*X55180D1*X55430Y19285*Y19618*X65955Y14370D2*Y14703D1*Y14537*X66455*X66122Y14953D2*Y15120D1*X66205Y15203*X66455*Y14953*X66372Y14870*X66288Y14953*Y15203*X66622Y15536D2*Y15620D1*X66538Y15703*X66122*Y15453*X66205Y15370*X66372*X66455Y15453*Y15703*Y16203D2*Y15870D1*X66122Y16203*X66039*X65955Y16119*Y15953*X66039Y15870*Y16369D2*X65955Y16453D1*Y16619*X66039Y16703*X66372*X66455Y16619*Y16453*X66372Y16369*X66039*X66455Y16869D2*Y17036D1*Y16953*X65955*X66039Y16869*X66205Y17286D2*Y17619D1*X66455Y17786D2*X65955D1*Y18036*X66039Y18119*X66205*X66288Y18036*Y17786*Y17952D2*X66455Y18119D1*Y18535D2*Y18369D1*X66372Y18285*X66205*X66122Y18369*Y18535*X66205Y18619*X66288*Y18285*X66122Y18785D2*X66455Y18952D1*X66122Y19119*X66455Y19535D2*X65955D1*X66205Y19285*Y19618*X76730Y14370D2*Y14703D1*Y14537*X77230*X76897Y14953D2*Y15120D1*X76980Y15203*X77230*Y14953*X77147Y14870*X77063Y14953*Y15203*X77397Y15536D2*Y15620D1*X77313Y15703*X76897*Y15453*X76980Y15370*X77147*X77230Y15453*Y15703*Y16203D2*Y15870D1*X76897Y16203*X76814*X76730Y16119*Y15953*X76814Y15870*Y16369D2*X76730Y16453D1*Y16619*X76814Y16703*X77147*X77230Y16619*Y16453*X77147Y16369*X76814*X77230Y16869D2*Y17036D1*Y16953*X76730*X76814Y16869*X76980Y17286D2*Y17619D1*X77230Y17786D2*X76730D1*Y18036*X76814Y18119*X76980*X77063Y18036*Y17786*Y17952D2*X77230Y18119D1*Y18535D2*Y18369D1*X77147Y18285*X76980*X76897Y18369*Y18535*X76980Y18619*X77063*Y18285*X76897Y18785D2*X77230Y18952D1*X76897Y19119*X77230Y19535D2*X76730D1*X76980Y19285*Y19618*X87505Y14370D2*Y14703D1*Y14537*X88005*X87672Y14953D2*Y15120D1*X87755Y15203*X88005*Y14953*X87922Y14870*X87838Y14953*Y15203*X88172Y15536D2*Y15620D1*X88088Y15703*X87672*Y15453*X87755Y15370*X87922*X88005Y15453*Y15703*Y16203D2*Y15870D1*X87672Y16203*X87589*X87505Y16119*Y15953*X87589Y15870*Y16369D2*X87505Y16453D1*Y16619*X87589Y16703*X87922*X88005Y16619*Y16453*X87922Y16369*X87589*X88005Y16869D2*Y17036D1*Y16953*X87505*X87589Y16869*X87755Y17286D2*Y17619D1*X88005Y17786D2*X87505D1*Y18036*X87589Y18119*X87755*X87838Y18036*Y17786*Y17952D2*X88005Y18119D1*Y18535D2*Y18369D1*X87922Y18285*X87755*X87672Y18369*Y18535*X87755Y18619*X87838*Y18285*X87672Y18785D2*X88005Y18952D1*X87672Y19119*X88005Y19535D2*X87505D1*X87755Y19285*Y19618*X98280Y14370D2*Y14703D1*Y14537*X98780*X98447Y14953D2*Y15120D1*X98530Y15203*X98780*Y14953*X98697Y14870*X98613Y14953*Y15203*X98947Y15536D2*Y15620D1*X98863Y15703*X98447*Y15453*X98530Y15370*X98697*X98780Y15453*Y15703*Y16203D2*Y15870D1*X98447Y16203*X98364*X98280Y16119*Y15953*X98364Y15870*Y16369D2*X98280Y16453D1*Y16619*X98364Y16703*X98697*X98780Y16619*Y16453*X98697Y16369*X98364*X98780Y16869D2*Y17036D1*Y16953*X98280*X98364Y16869*X98530Y17286D2*Y17619D1*X98780Y17786D2*X98280D1*Y18036*X98364Y18119*X98530*X98613Y18036*Y17786*Y17952D2*X98780Y18119D1*Y18535D2*Y18369D1*X98697Y18285*X98530*X98447Y18369*Y18535*X98530Y18619*X98613*Y18285*X98447Y18785D2*X98780Y18952D1*X98447Y19119*X98780Y19535D2*X98280D1*X98530Y19285*Y19618*X98280Y4480D2*Y4813D1*Y4647*X98780*X98447Y5063D2*Y5230D1*X98530Y5313*X98780*Y5063*X98697Y4980*X98613Y5063*Y5313*X98947Y5646D2*Y5730D1*X98863Y5813*X98447*Y5563*X98530Y5480*X98697*X98780Y5563*Y5813*Y6313D2*Y5980D1*X98447Y6313*X98364*X98280Y6229*Y6063*X98364Y5980*Y6479D2*X98280Y6563D1*Y6729*X98364Y6813*X98697*X98780Y6729*Y6563*X98697Y6479*X98364*X98780Y6979D2*Y7146D1*Y7063*X98280*X98364Y6979*X98530Y7396D2*Y7729D1*X98780Y7896D2*X98280D1*Y8146*X98364Y8229*X98530*X98613Y8146*Y7896*Y8062D2*X98780Y8229D1*Y8645D2*Y8479D1*X98697Y8395*X98530*X98447Y8479*Y8645*X98530Y8729*X98613*Y8395*X98447Y8895D2*X98780Y9062D1*X98447Y9229*X98780Y9645D2*X98280D1*X98530Y9395*Y9728*X87505Y4480D2*Y4813D1*Y4647*X88005*X87672Y5063D2*Y5230D1*X87755Y5313*X88005*Y5063*X87922Y4980*X87838Y5063*Y5313*X88172Y5646D2*Y5730D1*X88088Y5813*X87672*Y5563*X87755Y5480*X87922*X88005Y5563*Y5813*Y6313D2*Y5980D1*X87672Y6313*X87589*X87505Y6229*Y6063*X87589Y5980*Y6479D2*X87505Y6563D1*Y6729*X87589Y6813*X87922*X88005Y6729*Y6563*X87922Y6479*X87589*X88005Y6979D2*Y7146D1*Y7063*X87505*X87589Y6979*X87755Y7396D2*Y7729D1*X88005Y7896D2*X87505D1*Y8146*X87589Y8229*X87755*X87838Y8146*Y7896*Y8062D2*X88005Y8229D1*Y8645D2*Y8479D1*X87922Y8395*X87755*X87672Y8479*Y8645*X87755Y8729*X87838*Y8395*X87672Y8895D2*X88005Y9062D1*X87672Y9229*X88005Y9645D2*X87505D1*X87755Y9395*Y9728*X76730Y4480D2*Y4813D1*Y4647*X77230*X76897Y5063D2*Y5230D1*X76980Y5313*X77230*Y5063*X77147Y4980*X77063Y5063*Y5313*X77397Y5646D2*Y5730D1*X77313Y5813*X76897*Y5563*X76980Y5480*X77147*X77230Y5563*Y5813*Y6313D2*Y5980D1*X76897Y6313*X76814*X76730Y6229*Y6063*X76814Y5980*Y6479D2*X76730Y6563D1*Y6729*X76814Y6813*X77147*X77230Y6729*Y6563*X77147Y6479*X76814*X77230Y6979D2*Y7146D1*Y7063*X76730*X76814Y6979*X76980Y7396D2*Y7729D1*X77230Y7896D2*X76730D1*Y8146*X76814Y8229*X76980*X77063Y8146*Y7896*Y8062D2*X77230Y8229D1*Y8645D2*Y8479D1*X77147Y8395*X76980*X76897Y8479*Y8645*X76980Y8729*X77063*Y8395*X76897Y8895D2*X77230Y9062D1*X76897Y9229*X77230Y9645D2*X76730D1*X76980Y9395*Y9728*X65955Y4480D2*Y4813D1*Y4647*X66455*X66122Y5063D2*Y5230D1*X66205Y5313*X66455*Y5063*X66372Y4980*X66288Y5063*Y5313*X66622Y5646D2*Y5730D1*X66538Y5813*X66122*Y5563*X66205Y5480*X66372*X66455Y5563*Y5813*Y6313D2*Y5980D1*X66122Y6313*X66039*X65955Y6229*Y6063*X66039Y5980*Y6479D2*X65955Y6563D1*Y6729*X66039Y6813*X66372*X66455Y6729*Y6563*X66372Y6479*X66039*X66455Y6979D2*Y7146D1*Y7063*X65955*X66039Y6979*X66205Y7396D2*Y7729D1*X66455Y7896D2*X65955D1*Y8146*X66039Y8229*X66205*X66288Y8146*Y7896*Y8062D2*X66455Y8229D1*Y8645D2*Y8479D1*X66372Y8395*X66205*X66122Y8479*Y8645*X66205Y8729*X66288*Y8395*X66122Y8895D2*X66455Y9062D1*X66122Y9229*X66455Y9645D2*X65955D1*X66205Y9395*Y9728*X55180Y4480D2*Y4813D1*Y4647*X55680*X55347Y5063D2*Y5230D1*X55430Y5313*X55680*Y5063*X55597Y4980*X55513Y5063*Y5313*X55847Y5646D2*Y5730D1*X55763Y5813*X55347*Y5563*X55430Y5480*X55597*X55680Y5563*Y5813*Y6313D2*Y5980D1*X55347Y6313*X55264*X55180Y6229*Y6063*X55264Y5980*Y6479D2*X55180Y6563D1*Y6729*X55264Y6813*X55597*X55680Y6729*Y6563*X55597Y6479*X55264*X55680Y6979D2*Y7146D1*Y7063*X55180*X55264Y6979*X55430Y7396D2*Y7729D1*X55680Y7896D2*X55180D1*Y8146*X55264Y8229*X55430*X55513Y8146*Y7896*Y8062D2*X55680Y8229D1*Y8645D2*Y8479D1*X55597Y8395*X55430*X55347Y8479*Y8645*X55430Y8729*X55513*Y8395*X55347Y8895D2*X55680Y9062D1*X55347Y9229*X55680Y9645D2*X55180D1*X55430Y9395*Y9728*X44405Y4480D2*Y4813D1*Y4647*X44905*X44572Y5063D2*Y5230D1*X44655Y5313*X44905*Y5063*X44822Y4980*X44738Y5063*Y5313*X45072Y5646D2*Y5730D1*X44988Y5813*X44572*Y5563*X44655Y5480*X44822*X44905Y5563*Y5813*Y6313D2*Y5980D1*X44572Y6313*X44489*X44405Y6229*Y6063*X44489Y5980*Y6479D2*X44405Y6563D1*Y6729*X44489Y6813*X44822*X44905Y6729*Y6563*X44822Y6479*X44489*X44905Y6979D2*Y7146D1*Y7063*X44405*X44489Y6979*X44655Y7396D2*Y7729D1*X44905Y7896D2*X44405D1*Y8146*X44489Y8229*X44655*X44738Y8146*Y7896*Y8062D2*X44905Y8229D1*Y8645D2*Y8479D1*X44822Y8395*X44655*X44572Y8479*Y8645*X44655Y8729*X44738*Y8395*X44572Y8895D2*X44905Y9062D1*X44572Y9229*X44905Y9645D2*X44405D1*X44655Y9395*Y9728*X33630Y4480D2*Y4813D1*Y4647*X34130*X33797Y5063D2*Y5230D1*X33880Y5313*X34130*Y5063*X34047Y4980*X33963Y5063*Y5313*X34297Y5646D2*Y5730D1*X34213Y5813*X33797*Y5563*X33880Y5480*X34047*X34130Y5563*Y5813*Y6313D2*Y5980D1*X33797Y6313*X33714*X33630Y6229*Y6063*X33714Y5980*Y6479D2*X33630Y6563D1*Y6729*X33714Y6813*X34047*X34130Y6729*Y6563*X34047Y6479*X33714*X34130Y6979D2*Y7146D1*Y7063*X33630*X33714Y6979*X33880Y7396D2*Y7729D1*X34130Y7896D2*X33630D1*Y8146*X33714Y8229*X33880*X33963Y8146*Y7896*Y8062D2*X34130Y8229D1*Y8645D2*Y8479D1*X34047Y8395*X33880*X33797Y8479*Y8645*X33880Y8729*X33963*Y8395*X33797Y8895D2*X34130Y9062D1*X33797Y9229*X34130Y9645D2*X33630D1*X33880Y9395*Y9728*X22855Y4480D2*Y4813D1*Y4647*X23355*X23022Y5063D2*Y5230D1*X23105Y5313*X23355*Y5063*X23272Y4980*X23188Y5063*Y5313*X23522Y5646D2*Y5730D1*X23438Y5813*X23022*Y5563*X23105Y5480*X23272*X23355Y5563*Y5813*Y6313D2*Y5980D1*X23022Y6313*X22939*X22855Y6229*Y6063*X22939Y5980*Y6479D2*X22855Y6563D1*Y6729*X22939Y6813*X23272*X23355Y6729*Y6563*X23272Y6479*X22939*X23355Y6979D2*Y7146D1*Y7063*X22855*X22939Y6979*X23105Y7396D2*Y7729D1*X23355Y7896D2*X22855D1*Y8146*X22939Y8229*X23105*X23188Y8146*Y7896*Y8062D2*X23355Y8229D1*Y8645D2*Y8479D1*X23272Y8395*X23105*X23022Y8479*Y8645*X23105Y8729*X23188*Y8395*X23022Y8895D2*X23355Y9062D1*X23022Y9229*X23355Y9645D2*X22855D1*X23105Y9395*Y9728*X12080Y4480D2*Y4813D1*Y4647*X12580*X12247Y5063D2*Y5230D1*X12330Y5313*X12580*Y5063*X12497Y4980*X12413Y5063*Y5313*X12747Y5646D2*Y5730D1*X12663Y5813*X12247*Y5563*X12330Y5480*X12497*X12580Y5563*Y5813*Y6313D2*Y5980D1*X12247Y6313*X12164*X12080Y6229*Y6063*X12164Y5980*Y6479D2*X12080Y6563D1*Y6729*X12164Y6813*X12497*X12580Y6729*Y6563*X12497Y6479*X12164*X12580Y6979D2*Y7146D1*Y7063*X12080*X12164Y6979*X12330Y7396D2*Y7729D1*X12580Y7896D2*X12080D1*Y8146*X12164Y8229*X12330*X12413Y8146*Y7896*Y8062D2*X12580Y8229D1*Y8645D2*Y8479D1*X12497Y8395*X12330*X12247Y8479*Y8645*X12330Y8729*X12413*Y8395*X12247Y8895D2*X12580Y9062D1*X12247Y9229*X12580Y9645D2*X12080D1*X12330Y9395*Y9728*D34*X-2540Y-2540D3*Y66320D3*X103955D3*X0Y0D2*M02*