*%FSLAX24Y24*%
%MOIN*%
%IPPOS*%
%ADD10R,0.03X0.03*%
%ADD11R,0.03X0.03*%
%ADD12R,0.0155X0.05*%
%ADD13C,0.05*%
%ADD14R,0.0394X0.0709*%
%AMD15*
21,1,0.0206,0.01,0.0,0.0,0.0*
21,1,0.0256,0.005,0.0,0.0,0.0*
1,1,0.005,0.0103,0.0025*
1,1,0.005,-0.0103,0.0025*
1,1,0.005,0.0103,-0.0025*
1,1,0.005,-0.0103,-0.0025*%
%ADD15D15*%
G04:---LTIenv:A015:17,0.0256,0.01,0.0025 *
%AMD16*
21,1,0.005,0.0256,0.0,0.0,0.0*
21,1,0.01,0.0206,0.0,0.0,0.0*
1,1,0.005,0.0025,0.0103*
1,1,0.005,-0.0025,0.0103*
1,1,0.005,0.0025,-0.0103*
1,1,0.005,-0.0025,-0.0103*%
%ADD16D16*%
G04:---LTIenv:A016:17,0.01,0.0256,0.0025 *
%AMD17*
4,1,8
,0.0049,0.0103
,0.0049,-0.0103
,0.0025,-0.0128
,-0.0025,-0.0128
,-0.0049,-0.0103
,-0.0049,0.0103
,-0.0025,0.0128
,0.0025,0.0128,0.0049,0.0103,0.0*%
%ADD17D17*%
%AMD18*
4,1,8
,-0.0103,0.0049
,0.0103,0.0049
,0.0128,0.0025
,0.0128,-0.0025
,0.0103,-0.0049
,-0.0103,-0.0049
,-0.0128,-0.0025
,-0.0128,0.0025,-0.0103,0.0049,0.0*%
%ADD18D18*%
%ADD19C,0.012*%
%ADD20C,0.02*%
%ADD21C,0.008*%
%ADD22C,0.01*%
%ADD23C,0.009*%
%ADD24C,0.15*%
%ADD25C,0.075*%
%ADD26C,0.15*%
%ADD27C,0.052*%
%ADD28R,0.062X0.04*%
%ADD29O,0.062X0.04*%
%ADD30C,0.026*%
%ADD31C,0.092*%
%ADD32C,0.06*%
%ADD33R,0.13X0.15*%
%AMD34*
1,1,0.1,0.0,0.0*
1,0,0.0875,0.0,0.0*
1,1,0.05,0.0,0.0*
1,0,0.0375,0.0,0.0*
20,1,0.0062,0.0,-0.0969,0.0,0.0969,0.0*
20,1,0.0062,-0.0969,0.0,0.0969,0.0,0.0*%
%ADD34D34*%
G04:---LTIenv:A034:6,0.2,6 *
%ADD35C,0.07*%
%ADD36R,0.038X0.038*%
%ADD37R,0.038X0.038*%
%ADD38R,0.0185X0.053*%
%ADD39C,0.1*%
%ADD40R,0.0474X0.0789*%
%AMD41*
21,1,0.0206,0.014,0.0,0.0,0.0*
21,1,0.0296,0.005,0.0,0.0,0.0*
1,1,0.009,0.0103,0.0025*
1,1,0.009,-0.0103,0.0025*
1,1,0.009,0.0103,-0.0025*
1,1,0.009,-0.0103,-0.0025*%
%ADD41D41*%
G04:---LTIenv:A041:17,0.0296,0.014,0.0045 *
%AMD42*
21,1,0.005,0.0296,0.0,0.0,0.0*
21,1,0.014,0.0206,0.0,0.0,0.0*
1,1,0.009,0.0025,0.0103*
1,1,0.009,-0.0025,0.0103*
1,1,0.009,0.0025,-0.0103*
1,1,0.009,-0.0025,-0.0103*%
%ADD42D42*%
G04:---LTIenv:A042:17,0.014,0.0296,0.0045 *
%AMD43*
4,1,8
,0.0069,0.0113
,0.0069,-0.0113
,0.0035,-0.0148
,-0.0035,-0.0148
,-0.0069,-0.0113
,-0.0069,0.0113
,-0.0035,0.0148
,0.0035,0.0148,0.0069,0.0113,0.0*%
%ADD43D43*%
%AMD44*
4,1,8
,-0.0113,0.0069
,0.0113,0.0069
,0.0148,0.0035
,0.0148,-0.0035
,0.0113,-0.0069
,-0.0113,-0.0069
,-0.0148,-0.0035
,-0.0148,0.0035,-0.0113,0.0069,0.0*%
%ADD44D44*%
%ADD45R,0.066X0.044*%
%ADD46O,0.066X0.044*%
%ADD48C,0.1*%
%ADD49R,0.138X0.158*%
%AMD55*
4,1,8
,0.0049,0.0103
,0.0049,-0.0103
,0.0025,-0.0128
,-0.0025,-0.0128
,-0.0049,-0.0103
,-0.0049,0.0103
,-0.0025,0.0128
,0.0025,0.0128,0.0049,0.0103,0.0*%
%ADD55D55*%
%AMD56*
4,1,8
,-0.0103,0.0049
,0.0103,0.0049
,0.0128,0.0025
,0.0128,-0.0025
,0.0103,-0.0049
,-0.0103,-0.0049
,-0.0128,-0.0025
,-0.0128,0.0025,-0.0103,0.0049,0.0*%
%ADD56D56*%
%ADD200C,0.002*%
%ADD901C,0.012*%
G04:---LTIenv:A901:15,0.012,1 *
%ADD902C,0.028*%
G04:---LTIenv:A902:15,0.028,2 *
%ADD903C,0.033*%
G04:---LTIenv:A903:15,0.033,3 *
%ADD904C,0.12*%
G04:---LTIenv:A904:15,0.12,4 *

%LPD*%
D21*X126Y-13839D2*X724Y-14382D1*X126D2*X724Y-13839D1*X126Y-14115D2*X724D1*X425Y-14382D2*Y-13839D1*X1858Y-13957D2*X2252D1*X1858Y-14532D2*Y-13532D1*X2402*X2693Y-13689D2*Y-14382D1*X2843Y-14532*X3142*X3291Y-14382*Y-13689*X3142Y-13532*X2843*X2693Y-13689*X4110Y-14532D2*X3567D1*Y-13532*X4961Y-14532D2*X4417D1*Y-13532*X5244Y-13689D2*Y-14382D1*X5394Y-14532*X5693*X5843Y-14382*Y-13689*X5693Y-13532*X5394*X5244Y-13689*X6685Y-13532D2*X6559Y-14532D1*X6409Y-13934*X6260Y-14532*X6110Y-13532*X8362Y-14532D2*X7819D1*Y-13532*X8646Y-13957D2*X9094D1*X9244Y-14115*Y-14382*X9094Y-14532*X8795*X8646Y-14335*Y-13689*X8795Y-13532*X9094*X9244Y-13689*X9488Y-14532D2*X10087Y-13532D1*X9638D2*X9488Y-13689D1*Y-14382*X9638Y-14532*X9937*X10087Y-14382*Y-13689*X9937Y-13532*X9638*X10504Y-14532D2*X10654D1*Y-14382*X10504*Y-14532*X11480Y-14083D2*X11756D1*Y-14532*X11354*X11205Y-14382*Y-13689*X11354Y-13532*X11756*X12039Y-13957D2*X12488D1*X12039Y-14532D2*X12488D1*X12638Y-14382*Y-14083*X12488Y-13957*X12638Y-13839*Y-13689*X12488Y-13532*X12039*Y-14532*X13173Y-13989D2*X13472Y-14532D1*X12929Y-13989D2*X13323D1*X13472Y-13839*Y-13689*X13323Y-13532*X12929*Y-14532*X15024D2*X14898Y-14382D1*Y-13689*X15024Y-13532*X15449Y-13689D2*Y-14382D1*X15598Y-14532*X15898*X16047Y-14382*Y-13689*X15898Y-13532*X15598*X15449Y-13689*X16906Y-13532D2*Y-14382D1*X16756Y-14532*X16457*X16307Y-14382*Y-13532*X17465Y-14532D2*Y-13532D1*X17165D2*X17764D1*X18567Y-14532D2*X18024D1*Y-13532*X18843Y-14532D2*X19142D1*X18992D2*Y-13532D1*X18843D2*X19142D1*X20283D2*Y-14532D1*X19709Y-13532*Y-14532*X20567Y-13957D2*X21118D1*Y-13532D2*X20567D1*Y-14532*X21118*X21543D2*X21693Y-14382D1*Y-13689*X21543Y-13532*X23118Y-13957D2*X23512D1*X23118Y-14532D2*Y-13532D1*X23661*X23953Y-13689D2*Y-14382D1*X24102Y-14532*X24402*X24551Y-14382*Y-13689*X24402Y-13532*X24102*X23953Y-13689*X25079Y-13989D2*X25378Y-14532D1*X24835Y-13989D2*X25228D1*X25378Y-13839*Y-13689*X25228Y-13532*X24835*Y-14532*X26520Y-13957D2*X26945D1*X27094Y-13808*Y-13689*X26945Y-13532*X26520*Y-14532*X27354Y-14083D2*X27929D1*Y-14532D2*Y-13689D1*X27780Y-13532*X27504*X27354Y-13689*Y-14532*X28787Y-13532D2*Y-14532D1*X28213Y-13532*Y-14532*X29071Y-13957D2*X29622D1*Y-13532D2*X29071D1*Y-14532*X29622*X30472D2*X29929D1*Y-13532*X299Y-6303D2*X725D1*X874Y-6154*Y-6035*X725Y-5878*X299*Y-6878*X1134Y-6429D2*X1709D1*Y-6878D2*Y-6035D1*X1559Y-5878*X1284*X1134Y-6035*Y-6878*X2567Y-5878D2*Y-6878D1*X1992Y-5878*Y-6878*X2851Y-6303D2*X3402D1*Y-5878D2*X2851D1*Y-6878*X3402*X4252D2*X3709D1*Y-5878*X126Y-7461D2*X724Y-8004D1*X126D2*X724Y-7461D1*X126Y-7737D2*X724D1*X425Y-8004D2*Y-7461D1*X2425Y-7154D2*Y-8154D1*X1850Y-7154*Y-8154*X2709Y-7579D2*X3260D1*Y-7154D2*X2709D1*Y-8154*X3260*X3559Y-7579D2*X4110D1*Y-7154D2*X3559D1*Y-8154*X4110*X4819D2*X4969Y-8004D1*Y-7311*X4819Y-7154*X4394*Y-8154*X4819*X6701Y-7154D2*Y-8004D1*X6551Y-8154*X6252*X6102Y-8004*Y-7154*X7512Y-8154D2*X6969D1*Y-7154*X9213Y-8154D2*X8669D1*Y-7154*X9496Y-7311D2*Y-8004D1*X9646Y-8154*X9945*X10094Y-8004*Y-7311*X9945Y-7154*X9646*X9496Y-7311*X10630Y-7705D2*X10906D1*Y-8154*X10504*X10354Y-8004*Y-7311*X10504Y-7154*X10906*X11197Y-7311D2*Y-8004D1*X11346Y-8154*X11646*X11795Y-8004*Y-7311*X11646Y-7154*X11346*X11197Y-7311*X13457Y-8154D2*X12858Y-7461D1*Y-7311*X13024Y-7154*X13181Y-7311*Y-7461*X12858Y-7705*Y-8004*X13008Y-8154*X13157*X13307Y-8036*Y-7886*X13457Y-7737*X15024Y-8154D2*X15173Y-8004D1*Y-7311*X15024Y-7154*X14598*Y-8154*X15024*X15449Y-7705D2*X16024D1*Y-8154D2*Y-7311D1*X15874Y-7154*X15598*X15449Y-7311*Y-8154*X16614D2*Y-7154D1*X16315D2*X16913D1*X17165Y-7579D2*X17717D1*Y-7154D2*X17165D1*Y-8154*X17717*X19433D2*X18984D1*X18835Y-8004*Y-7311*X18984Y-7154*X19433*X19701Y-7311D2*Y-8004D1*X19850Y-8154*X20150*X20299Y-8004*Y-7311*X20150Y-7154*X19850*X19701Y-7311*X20976Y-8154D2*X21126Y-8004D1*Y-7311*X20976Y-7154*X20551*Y-8154*X20976*X21417Y-7579D2*X21969D1*Y-7154D2*X21417D1*Y-8154*X21969*X126Y-8737D2*X724Y-9280D1*X126D2*X724Y-8737D1*X126Y-9012D2*X724D1*X425Y-9280D2*Y-8737D1*X2402Y-8430D2*X1850D1*Y-8855*X2252*X2402Y-9012*Y-9280*X2252Y-9430*X2000*X1850Y-9280*X3283Y-9130D2*X2709D1*X3134Y-8430*Y-9430*X3559Y-9012D2*X4110D1*X5000Y-8430D2*Y-9280D1*X4850Y-9430*X4551*X4402Y-9280*Y-8430*X5260Y-8855D2*X5685D1*X5835Y-8705*Y-8587*X5685Y-8430*X5260*Y-9430*X6961Y-8855D2*X7386D1*X7535Y-8705*Y-8587*X7386Y-8430*X6961*Y-9430*X7811Y-8855D2*X8362D1*Y-8430D2*X7811D1*Y-9430*X8362*X8921Y-8886D2*X9220Y-9430D1*X8677Y-8886D2*X9071D1*X9220Y-8737*Y-8587*X9071Y-8430*X8677*Y-9430*X10362Y-8855D2*X10787D1*X10937Y-8705*Y-8587*X10787Y-8430*X10362*Y-9430*X11197Y-8981D2*X11772D1*Y-9430D2*Y-8587D1*X11622Y-8430*X11346*X11197Y-8587*Y-9430*X12630Y-8430D2*Y-9430D1*X12055Y-8430*Y-9430*X12913Y-8855D2*X13465D1*Y-8430D2*X12913D1*Y-9430*X13465*X14315D2*X13772D1*Y-8430*X16039D2*X15913Y-9430D1*X15764Y-8831*X15614Y-9430*X15465Y-8430*X16291Y-9430D2*X16591D1*X16441D2*Y-8430D1*X16291D2*X16591D1*X17465Y-9430D2*Y-8430D1*X17165D2*X17764D1*X18000Y-8855D2*X18575D1*Y-9430D2*Y-8430D1*X18000Y-9430D2*Y-8430D1*X19724Y-9430D2*X20126D1*X20276Y-9280*Y-8981*X20126Y-8831*X19874*X19724Y-8682*Y-8587*X19874Y-8430*X20276*X21134Y-9430D2*X20685D1*X20535Y-9280*Y-8587*X20685Y-8430*X21134*X21402Y-8587D2*Y-9280D1*X21551Y-9430*X21850*X22000Y-9280*Y-8587*X21850Y-8430*X21551*X21402Y-8587*X22528Y-8886D2*X22827Y-9430D1*X22283Y-8886D2*X22677D1*X22827Y-8737*Y-8587*X22677Y-8430*X22283*Y-9430*X23094D2*X23394D1*X23244D2*Y-8430D1*X23094D2*X23394D1*X24535D2*Y-9430D1*X23961Y-8430*Y-9430*X25087Y-8981D2*X25362D1*Y-9430*X24961*X24811Y-9280*Y-8587*X24961Y-8430*X25362*X126Y-10012D2*X724Y-10556D1*X126D2*X724Y-10012D1*X126Y-10288D2*X724D1*X425Y-10556D2*Y-10012D1*X1835Y-10705D2*X2433Y-9705D1*X1984D2*X1835Y-9863D1*Y-10556*X1984Y-10705*X2283*X2433Y-10556*Y-9863*X2283Y-9705*X1984*X2850Y-10705D2*X3000D1*Y-10556*X2850*Y-10705*X3535D2*X4134Y-9705D1*X3685D2*X3535Y-9863D1*Y-10556*X3685Y-10705*X3984*X4134Y-10556*Y-9863*X3984Y-9705*X3685*X4362Y-10556D2*X4512Y-10705D1*X4819*X4969Y-10556*Y-10311*X4819Y-10162*X4969Y-10012*Y-9863*X4819Y-9705*X4512*X4362Y-9863*X5378Y-10705D2*X5677D1*X5528D2*Y-9705D1*X5378Y-9863*X6535Y-9957D2*Y-9705D1*X6236Y-9957D2*Y-9705D1*X8110Y-10705D2*Y-9705D1*X7811D2*X8409D1*X8646Y-10130D2*X9220D1*Y-10705D2*Y-9705D1*X8646Y-10705D2*Y-9705D1*X9488Y-10705D2*X9787D1*X9638D2*Y-9705D1*X9488D2*X9787D1*X10929Y-10705D2*X10480D1*X10331Y-10556*Y-9863*X10480Y-9705*X10929*X11220Y-10705D2*Y-9705D1*X11772Y-10705D2*X11220Y-10130D1*X11772Y-9705*X12630D2*Y-10705D1*X12055Y-9705*Y-10705*X12913Y-10130D2*X13465D1*Y-9705D2*X12913D1*Y-10705*X13465*X13772D2*X14173D1*X14323Y-10556*Y-10256*X14173Y-10107*X13921*X13772Y-9957*Y-9863*X13921Y-9705*X14323*X14622Y-10705D2*X15024D1*X15173Y-10556*Y-10256*X15024Y-10107*X14772*X14622Y-9957*Y-9863*X14772Y-9705*X15173*X126Y-11288D2*X724Y-11831D1*X126D2*X724Y-11288D1*X126Y-11563D2*X724D1*X425Y-11831D2*Y-11288D1*X1858Y-11406D2*X2283D1*X2433Y-11256*Y-11138*X2283Y-10981*X1858*Y-11981*X2693Y-11532D2*X3268D1*Y-11981D2*Y-11138D1*X3118Y-10981*X2843*X2693Y-11138*Y-11981*X4126Y-10981D2*Y-11981D1*X3551Y-10981*Y-11981*X4409Y-11406D2*X4961D1*Y-10981D2*X4409D1*Y-11981*X4961*X5811D2*X5268D1*Y-10981*X7370Y-11981D2*X7520Y-11831D1*Y-11138*X7370Y-10981*X6945*Y-11981*X7370*X8071Y-11437D2*X8370Y-11981D1*X7827Y-11437D2*X8220D1*X8370Y-11288*Y-11138*X8220Y-10981*X7827*Y-11981*X9236Y-10981D2*X9110Y-11981D1*X8961Y-11382*X8811Y-11981*X8661Y-10981*X10339Y-11981D2*X10638D1*X10488D2*Y-10981D1*X10339D2*X10638D1*X11220Y-11981D2*X11622D1*X11772Y-11831*Y-11532*X11622Y-11382*X11370*X11220Y-11233*Y-11138*X11370Y-10981*X11772*X13480D2*Y-11981D1*X12906Y-10981*Y-11981*X13748Y-11138D2*Y-11831D1*X13898Y-11981*X14197*X14346Y-11831*Y-11138*X14197Y-10981*X13898*X13748Y-11138*X14913Y-11981D2*Y-10981D1*X14614D2*X15213D1*X16323Y-11981D2*X16724D1*X16874Y-11831*Y-11532*X16724Y-11382*X16472*X16323Y-11233*Y-11138*X16472Y-10981*X16874*X17732Y-11981D2*X17283D1*X17134Y-11831*Y-11138*X17283Y-10981*X17732*X18000Y-11532D2*X18575D1*Y-11981D2*Y-11138D1*X18425Y-10981*X18150*X18000Y-11138*Y-11981*X19417D2*X18874D1*Y-10981*X19717Y-11406D2*X20268D1*Y-10981D2*X19717D1*Y-11981*X20268*X20976D2*X21126Y-11831D1*Y-11138*X20976Y-10981*X20551*Y-11981*X20976*X21701Y-11847D2*Y-11737D1*X21819*X21543Y-11981*X1835Y-13256D2*X2134D1*X1984D2*Y-12256D1*X1835D2*X2134D1*X3008Y-13256D2*Y-12256D1*X2709D2*X3307D1*X4386Y-13256D2*X4685D1*X4535D2*Y-12256D1*X4386D2*X4685D1*X5268Y-13256D2*X5669D1*X5819Y-13107*Y-12808*X5669Y-12658*X5417*X5268Y-12508*Y-12414*X5417Y-12256*X5819*X6961Y-12682D2*X7354D1*X6961Y-13256D2*Y-12256D1*X7504*X7795Y-12414D2*Y-13107D1*X7945Y-13256*X8244*X8394Y-13107*Y-12414*X8244Y-12256*X7945*X7795Y-12414*X8921Y-12713D2*X9220Y-13256D1*X8677Y-12713D2*X9071D1*X9220Y-12563*Y-12414*X9071Y-12256*X8677*Y-13256*X10622Y-12713D2*X10921Y-13256D1*X10378Y-12713D2*X10772D1*X10921Y-12563*Y-12414*X10772Y-12256*X10378*Y-13256*X11213Y-12682D2*X11764D1*Y-12256D2*X11213D1*Y-13256*X11764*X12063Y-12682D2*X12457D1*X12063Y-13256D2*Y-12256D1*X12606*X12913Y-12682D2*X13465D1*Y-12256D2*X12913D1*Y-13256*X13465*X14024Y-12713D2*X14323Y-13256D1*X13780Y-12713D2*X14173D1*X14323Y-12563*Y-12414*X14173Y-12256*X13780*Y-13256*X14614Y-12682D2*X15165D1*Y-12256D2*X14614D1*Y-13256*X15165*X16031Y-12256D2*Y-13256D1*X15457Y-12256*Y-13256*X16882D2*X16433D1*X16283Y-13107*Y-12414*X16433Y-12256*X16882*X17165Y-12682D2*X17717D1*Y-12256D2*X17165D1*Y-13256*X17717*X18850Y-12414D2*Y-13107D1*X19000Y-13256*X19299*X19449Y-13107*Y-12414*X19299Y-12256*X19000*X18850Y-12414*X20283Y-12256D2*Y-13256D1*X19709Y-12256*Y-13256*X21118D2*X20575D1*Y-12256*X21433D2*X21709Y-12658D1*X21984Y-12256*X21709Y-13256D2*Y-12658D1*X5669Y-6878D2*X5819Y-6728D1*Y-6035*X5669Y-5878*X5244*Y-6878*X5669*X6370Y-6335D2*X6669Y-6878D1*X6126Y-6335D2*X6520D1*X6669Y-6185*Y-6035*X6520Y-5878*X6126*Y-6878*X7535Y-5878D2*X7409Y-6878D1*X7260Y-6280*X7110Y-6878*X6961Y-5878*X36074Y-6348D2*X49968D1*X10170Y10020D2*Y10027D1*Y10034*X10169Y10041*X10168Y10048*X10167Y10055*X10166Y10062*X10164Y10068*X10162Y10075*X10160Y10082*X10158Y10088*X10155Y10095*X10153Y10101*X10150Y10108*X10147Y10114*X10143Y10120*X10140Y10126*X10136Y10132*X10132Y10138*X10128Y10143*X10123Y10149*X10119Y10154*X10114Y10159*X10109Y10164*X10104Y10169*X10099Y10173*X10093Y10178*X10088Y10182*X10082Y10186*X10076Y10190*X10070Y10193*X10064Y10197*X10058Y10200*X10051Y10203*X10045Y10205*X10038Y10208*X10032Y10210*X10025Y10212*X10018Y10214*X10012Y10216*X10005Y10217*X9998Y10218*X9991Y10219*X9984Y10220*X9977*X9970*X9963*X9956*X9949Y10219*X9942Y10218*X9935Y10217*X9928Y10216*X9922Y10214*X9915Y10212*X9908Y10210*X9902Y10208*X9895Y10205*X9889Y10203*X9882Y10200*X9876Y10197*X9870Y10193*X9864Y10190*X9858Y10186*X9852Y10182*X9847Y10178*X9841Y10173*X9836Y10169*X9831Y10164*X9826Y10159*X9821Y10154*X9817Y10149*X9812Y10143*X9808Y10138*X9804Y10132*X9800Y10126*X9797Y10120*X9793Y10114*X9790Y10108*X9787Y10101*X9785Y10095*X9782Y10088*X9780Y10082*X9778Y10075*X9776Y10068*X9774Y10062*X9773Y10055*X9772Y10048*X9771Y10041*X9770Y10034*Y10027*Y10020*Y10013*Y10006*X9771Y9999*X9772Y9992*X9773Y9985*X9774Y9978*X9776Y9972*X9778Y9965*X9780Y9958*X9782Y9952*X9785Y9945*X9787Y9939*X9790Y9932*X9793Y9926*X9797Y9920*X9800Y9914*X9804Y9908*X9808Y9902*X9812Y9897*X9817Y9891*X9821Y9886*X9826Y9881*X9831Y9876*X9836Y9871*X9841Y9867*X9847Y9862*X9852Y9858*X9858Y9854*X9864Y9850*X9870Y9847*X9876Y9843*X9882Y9840*X9889Y9837*X9895Y9835*X9902Y9832*X9908Y9830*X9915Y9828*X9922Y9826*X9928Y9824*X9935Y9823*X9942Y9822*X9949Y9821*X9956Y9820*X9963*X9970*X9977*X9984*X9991Y9821*X9998Y9822*X10005Y9823*X10012Y9824*X10018Y9826*X10025Y9828*X10032Y9830*X10038Y9832*X10045Y9835*X10051Y9837*X10058Y9840*X10064Y9843*X10070Y9847*X10076Y9850*X10082Y9854*X10088Y9858*X10093Y9862*X10099Y9867*X10104Y9871*X10109Y9876*X10114Y9881*X10119Y9886*X10123Y9891*X10128Y9897*X10132Y9902*X10136Y9908*X10140Y9914*X10143Y9920*X10147Y9926*X10150Y9932*X10153Y9939*X10155Y9945*X10158Y9952*X10160Y9958*X10162Y9965*X10164Y9972*X10166Y9978*X10167Y9985*X10168Y9992*X10169Y9999*X10170Y10006*Y10013*Y10020*Y9520D2*Y9527D1*Y9534*X10169Y9541*X10168Y9548*X10167Y9555*X10166Y9562*X10164Y9568*X10162Y9575*X10160Y9582*X10158Y9588*X10155Y9595*X10153Y9601*X10150Y9608*X10147Y9614*X10143Y9620*X10140Y9626*X10136Y9632*X10132Y9638*X10128Y9643*X10123Y9649*X10119Y9654*X10114Y9659*X10109Y9664*X10104Y9669*X10099Y9673*X10093Y9678*X10088Y9682*X10082Y9686*X10076Y9690*X10070Y9693*X10064Y9697*X10058Y9700*X10051Y9703*X10045Y9705*X10038Y9708*X10032Y9710*X10025Y9712*X10018Y9714*X10012Y9716*X10005Y9717*X9998Y9718*X9991Y9719*X9984Y9720*X9977*X9970*X9963*X9956*X9949Y9719*X9942Y9718*X9935Y9717*X9928Y9716*X9922Y9714*X9915Y9712*X9908Y9710*X9902Y9708*X9895Y9705*X9889Y9703*X9882Y9700*X9876Y9697*X9870Y9693*X9864Y9690*X9858Y9686*X9852Y9682*X9847Y9678*X9841Y9673*X9836Y9669*X9831Y9664*X9826Y9659*X9821Y9654*X9817Y9649*X9812Y9643*X9808Y9638*X9804Y9632*X9800Y9626*X9797Y9620*X9793Y9614*X9790Y9608*X9787Y9601*X9785Y9595*X9782Y9588*X9780Y9582*X9778Y9575*X9776Y9568*X9774Y9562*X9773Y9555*X9772Y9548*X9771Y9541*X9770Y9534*Y9527*Y9520*Y9513*Y9506*X9771Y9499*X9772Y9492*X9773Y9485*X9774Y9478*X9776Y9472*X9778Y9465*X9780Y9458*X9782Y9452*X9785Y9445*X9787Y9439*X9790Y9432*X9793Y9426*X9797Y9420*X9800Y9414*X9804Y9408*X9808Y9402*X9812Y9397*X9817Y9391*X9821Y9386*X9826Y9381*X9831Y9376*X9836Y9371*X9841Y9367*X9847Y9362*X9852Y9358*X9858Y9354*X9864Y9350*X9870Y9347*X9876Y9343*X9882Y9340*X9889Y9337*X9895Y9335*X9902Y9332*X9908Y9330*X9915Y9328*X9922Y9326*X9928Y9324*X9935Y9323*X9942Y9322*X9949Y9321*X9956Y9320*X9963*X9970*X9977*X9984*X9991Y9321*X9998Y9322*X10005Y9323*X10012Y9324*X10018Y9326*X10025Y9328*X10032Y9330*X10038Y9332*X10045Y9335*X10051Y9337*X10058Y9340*X10064Y9343*X10070Y9347*X10076Y9350*X10082Y9354*X10088Y9358*X10093Y9362*X10099Y9367*X10104Y9371*X10109Y9376*X10114Y9381*X10119Y9386*X10123Y9391*X10128Y9397*X10132Y9402*X10136Y9408*X10140Y9414*X10143Y9420*X10147Y9426*X10150Y9432*X10153Y9439*X10155Y9445*X10158Y9452*X10160Y9458*X10162Y9465*X10164Y9472*X10166Y9478*X10167Y9485*X10168Y9492*X10169Y9499*X10170Y9506*Y9513*Y9520*X5960Y10030D2*Y10037D1*Y10044*X5959Y10051*X5958Y10058*X5957Y10065*X5956Y10072*X5954Y10078*X5952Y10085*X5950Y10092*X5948Y10098*X5945Y10105*X5943Y10111*X5940Y10118*X5937Y10124*X5933Y10130*X5930Y10136*X5926Y10142*X5922Y10148*X5918Y10153*X5913Y10159*X5909Y10164*X5904Y10169*X5899Y10174*X5894Y10179*X5889Y10183*X5883Y10188*X5878Y10192*X5872Y10196*X5866Y10200*X5860Y10203*X5854Y10207*X5848Y10210*X5841Y10213*X5835Y10215*X5828Y10218*X5822Y10220*X5815Y10222*X5808Y10224*X5802Y10226*X5795Y10227*X5788Y10228*X5781Y10229*X5774Y10230*X5767*X5760*X5753*X5746*X5739Y10229*X5732Y10228*X5725Y10227*X5718Y10226*X5712Y10224*X5705Y10222*X5698Y10220*X5692Y10218*X5685Y10215*X5679Y10213*X5672Y10210*X5666Y10207*X5660Y10203*X5654Y10200*X5648Y10196*X5642Y10192*X5637Y10188*X5631Y10183*X5626Y10179*X5621Y10174*X5616Y10169*X5611Y10164*X5607Y10159*X5602Y10153*X5598Y10148*X5594Y10142*X5590Y10136*X5587Y10130*X5583Y10124*X5580Y10118*X5577Y10111*X5575Y10105*X5572Y10098*X5570Y10092*X5568Y10085*X5566Y10078*X5564Y10072*X5563Y10065*X5562Y10058*X5561Y10051*X5560Y10044*Y10037*Y10030*Y10023*Y10016*X5561Y10009*X5562Y10002*X5563Y9995*X5564Y9988*X5566Y9982*X5568Y9975*X5570Y9968*X5572Y9962*X5575Y9955*X5577Y9949*X5580Y9942*X5583Y9936*X5587Y9930*X5590Y9924*X5594Y9918*X5598Y9912*X5602Y9907*X5607Y9901*X5611Y9896*X5616Y9891*X5621Y9886*X5626Y9881*X5631Y9877*X5637Y9872*X5642Y9868*X5648Y9864*X5654Y9860*X5660Y9857*X5666Y9853*X5672Y9850*X5679Y9847*X5685Y9845*X5692Y9842*X5698Y9840*X5705Y9838*X5712Y9836*X5718Y9834*X5725Y9833*X5732Y9832*X5739Y9831*X5746Y9830*X5753*X5760*X5767*X5774*X5781Y9831*X5788Y9832*X5795Y9833*X5802Y9834*X5808Y9836*X5815Y9838*X5822Y9840*X5828Y9842*X5835Y9845*X5841Y9847*X5848Y9850*X5854Y9853*X5860Y9857*X5866Y9860*X5872Y9864*X5878Y9868*X5883Y9872*X5889Y9877*X5894Y9881*X5899Y9886*X5904Y9891*X5909Y9896*X5913Y9901*X5918Y9907*X5922Y9912*X5926Y9918*X5930Y9924*X5933Y9930*X5937Y9936*X5940Y9942*X5943Y9949*X5945Y9955*X5948Y9962*X5950Y9968*X5952Y9975*X5954Y9982*X5956Y9988*X5957Y9995*X5958Y10002*X5959Y10009*X5960Y10016*Y10023*Y10030*Y9530D2*Y9537D1*Y9544*X5959Y9551*X5958Y9558*X5957Y9565*X5956Y9572*X5954Y9578*X5952Y9585*X5950Y9592*X5948Y9598*X5945Y9605*X5943Y9611*X5940Y9618*X5937Y9624*X5933Y9630*X5930Y9636*X5926Y9642*X5922Y9648*X5918Y9653*X5913Y9659*X5909Y9664*X5904Y9669*X5899Y9674*X5894Y9679*X5889Y9683*X5883Y9688*X5878Y9692*X5872Y9696*X5866Y9700*X5860Y9703*X5854Y9707*X5848Y9710*X5841Y9713*X5835Y9715*X5828Y9718*X5822Y9720*X5815Y9722*X5808Y9724*X5802Y9726*X5795Y9727*X5788Y9728*X5781Y9729*X5774Y9730*X5767*X5760*X5753*X5746*X5739Y9729*X5732Y9728*X5725Y9727*X5718Y9726*X5712Y9724*X5705Y9722*X5698Y9720*X5692Y9718*X5685Y9715*X5679Y9713*X5672Y9710*X5666Y9707*X5660Y9703*X5654Y9700*X5648Y9696*X5642Y9692*X5637Y9688*X5631Y9683*X5626Y9679*X5621Y9674*X5616Y9669*X5611Y9664*X5607Y9659*X5602Y9653*X5598Y9648*X5594Y9642*X5590Y9636*X5587Y9630*X5583Y9624*X5580Y9618*X5577Y9611*X5575Y9605*X5572Y9598*X5570Y9592*X5568Y9585*X5566Y9578*X5564Y9572*X5563Y9565*X5562Y9558*X5561Y9551*X5560Y9544*Y9537*Y9530*Y9523*Y9516*X5561Y9509*X5562Y9502*X5563Y9495*X5564Y9488*X5566Y9482*X5568Y9475*X5570Y9468*X5572Y9462*X5575Y9455*X5577Y9449*X5580Y9442*X5583Y9436*X5587Y9430*X5590Y9424*X5594Y9418*X5598Y9412*X5602Y9407*X5607Y9401*X5611Y9396*X5616Y9391*X5621Y9386*X5626Y9381*X5631Y9377*X5637Y9372*X5642Y9368*X5648Y9364*X5654Y9360*X5660Y9357*X5666Y9353*X5672Y9350*X5679Y9347*X5685Y9345*X5692Y9342*X5698Y9340*X5705Y9338*X5712Y9336*X5718Y9334*X5725Y9333*X5732Y9332*X5739Y9331*X5746Y9330*X5753*X5760*X5767*X5774*X5781Y9331*X5788Y9332*X5795Y9333*X5802Y9334*X5808Y9336*X5815Y9338*X5822Y9340*X5828Y9342*X5835Y9345*X5841Y9347*X5848Y9350*X5854Y9353*X5860Y9357*X5866Y9360*X5872Y9364*X5878Y9368*X5883Y9372*X5889Y9377*X5894Y9381*X5899Y9386*X5904Y9391*X5909Y9396*X5913Y9401*X5918Y9407*X5922Y9412*X5926Y9418*X5930Y9424*X5933Y9430*X5937Y9436*X5940Y9442*X5943Y9449*X5945Y9455*X5948Y9462*X5950Y9468*X5952Y9475*X5954Y9482*X5956Y9488*X5957Y9495*X5958Y9502*X5959Y9509*X5960Y9516*Y9523*Y9530*Y9030D2*Y9037D1*Y9044*X5959Y9051*X5958Y9058*X5957Y9065*X5956Y9072*X5954Y9078*X5952Y9085*X5950Y9092*X5948Y9098*X5945Y9105*X5943Y9111*X5940Y9118*X5937Y9124*X5933Y9130*X5930Y9136*X5926Y9142*X5922Y9148*X5918Y9153*X5913Y9159*X5909Y9164*X5904Y9169*X5899Y9174*X5894Y9179*X5889Y9183*X5883Y9188*X5878Y9192*X5872Y9196*X5866Y9200*X5860Y9203*X5854Y9207*X5848Y9210*X5841Y9213*X5835Y9215*X5828Y9218*X5822Y9220*X5815Y9222*X5808Y9224*X5802Y9226*X5795Y9227*X5788Y9228*X5781Y9229*X5774Y9230*X5767*X5760*X5753*X5746*X5739Y9229*X5732Y9228*X5725Y9227*X5718Y9226*X5712Y9224*X5705Y9222*X5698Y9220*X5692Y9218*X5685Y9215*X5679Y9213*X5672Y9210*X5666Y9207*X5660Y9203*X5654Y9200*X5648Y9196*X5642Y9192*X5637Y9188*X5631Y9183*X5626Y9179*X5621Y9174*X5616Y9169*X5611Y9164*X5607Y9159*X5602Y9153*X5598Y9148*X5594Y9142*X5590Y9136*X5587Y9130*X5583Y9124*X5580Y9118*X5577Y9111*X5575Y9105*X5572Y9098*X5570Y9092*X5568Y9085*X5566Y9078*X5564Y9072*X5563Y9065*X5562Y9058*X5561Y9051*X5560Y9044*Y9037*Y9030*Y9023*Y9016*X5561Y9009*X5562Y9002*X5563Y8995*X5564Y8988*X5566Y8982*X5568Y8975*X5570Y8968*X5572Y8962*X5575Y8955*X5577Y8949*X5580Y8942*X5583Y8936*X5587Y8930*X5590Y8924*X5594Y8918*X5598Y8912*X5602Y8907*X5607Y8901*X5611Y8896*X5616Y8891*X5621Y8886*X5626Y8881*X5631Y8877*X5637Y8872*X5642Y8868*X5648Y8864*X5654Y8860*X5660Y8857*X5666Y8853*X5672Y8850*X5679Y8847*X5685Y8845*X5692Y8842*X5698Y8840*X5705Y8838*X5712Y8836*X5718Y8834*X5725Y8833*X5732Y8832*X5739Y8831*X5746Y8830*X5753*X5760*X5767*X5774*X5781Y8831*X5788Y8832*X5795Y8833*X5802Y8834*X5808Y8836*X5815Y8838*X5822Y8840*X5828Y8842*X5835Y8845*X5841Y8847*X5848Y8850*X5854Y8853*X5860Y8857*X5866Y8860*X5872Y8864*X5878Y8868*X5883Y8872*X5889Y8877*X5894Y8881*X5899Y8886*X5904Y8891*X5909Y8896*X5913Y8901*X5918Y8907*X5922Y8912*X5926Y8918*X5930Y8924*X5933Y8930*X5937Y8936*X5940Y8942*X5943Y8949*X5945Y8955*X5948Y8962*X5950Y8968*X5952Y8975*X5954Y8982*X5956Y8988*X5957Y8995*X5958Y9002*X5959Y9009*X5960Y9016*Y9023*Y9030*Y8530D2*Y8537D1*Y8544*X5959Y8551*X5958Y8558*X5957Y8565*X5956Y8572*X5954Y8578*X5952Y8585*X5950Y8592*X5948Y8598*X5945Y8605*X5943Y8611*X5940Y8618*X5937Y8624*X5933Y8630*X5930Y8636*X5926Y8642*X5922Y8648*X5918Y8653*X5913Y8659*X5909Y8664*X5904Y8669*X5899Y8674*X5894Y8679*X5889Y8683*X5883Y8688*X5878Y8692*X5872Y8696*X5866Y8700*X5860Y8703*X5854Y8707*X5848Y8710*X5841Y8713*X5835Y8715*X5828Y8718*X5822Y8720*X5815Y8722*X5808Y8724*X5802Y8726*X5795Y8727*X5788Y8728*X5781Y8729*X5774Y8730*X5767*X5760*X5753*X5746*X5739Y8729*X5732Y8728*X5725Y8727*X5718Y8726*X5712Y8724*X5705Y8722*X5698Y8720*X5692Y8718*X5685Y8715*X5679Y8713*X5672Y8710*X5666Y8707*X5660Y8703*X5654Y8700*X5648Y8696*X5642Y8692*X5637Y8688*X5631Y8683*X5626Y8679*X5621Y8674*X5616Y8669*X5611Y8664*X5607Y8659*X5602Y8653*X5598Y8648*X5594Y8642*X5590Y8636*X5587Y8630*X5583Y8624*X5580Y8618*X5577Y8611*X5575Y8605*X5572Y8598*X5570Y8592*X5568Y8585*X5566Y8578*X5564Y8572*X5563Y8565*X5562Y8558*X5561Y8551*X5560Y8544*Y8537*Y8530*Y8523*Y8516*X5561Y8509*X5562Y8502*X5563Y8495*X5564Y8488*X5566Y8482*X5568Y8475*X5570Y8468*X5572Y8462*X5575Y8455*X5577Y8449*X5580Y8442*X5583Y8436*X5587Y8430*X5590Y8424*X5594Y8418*X5598Y8412*X5602Y8407*X5607Y8401*X5611Y8396*X5616Y8391*X5621Y8386*X5626Y8381*X5631Y8377*X5637Y8372*X5642Y8368*X5648Y8364*X5654Y8360*X5660Y8357*X5666Y8353*X5672Y8350*X5679Y8347*X5685Y8345*X5692Y8342*X5698Y8340*X5705Y8338*X5712Y8336*X5718Y8334*X5725Y8333*X5732Y8332*X5739Y8331*X5746Y8330*X5753*X5760*X5767*X5774*X5781Y8331*X5788Y8332*X5795Y8333*X5802Y8334*X5808Y8336*X5815Y8338*X5822Y8340*X5828Y8342*X5835Y8345*X5841Y8347*X5848Y8350*X5854Y8353*X5860Y8357*X5866Y8360*X5872Y8364*X5878Y8368*X5883Y8372*X5889Y8377*X5894Y8381*X5899Y8386*X5904Y8391*X5909Y8396*X5913Y8401*X5918Y8407*X5922Y8412*X5926Y8418*X5930Y8424*X5933Y8430*X5937Y8436*X5940Y8442*X5943Y8449*X5945Y8455*X5948Y8462*X5950Y8468*X5952Y8475*X5954Y8482*X5956Y8488*X5957Y8495*X5958Y8502*X5959Y8509*X5960Y8516*Y8523*Y8530*X81980Y-11110D2*Y-11104D1*Y-11099*X81979Y-11093*X81978Y-11088*Y-11082*X81977Y-11077*X81975Y-11071*X81974Y-11066*X81972Y-11061*X81970Y-11055*X81968Y-11050*X81966Y-11045*X81964Y-11040*X81961Y-11035*X81959Y-11030*X81956Y-11025*X81953Y-11021*X81949Y-11016*X81946Y-11011*X81943Y-11007*X81939Y-11003*X81935Y-10999*X81931Y-10995*X81927Y-10991*X81923Y-10987*X81919Y-10984*X81914Y-10981*X81909Y-10977*X81905Y-10974*X81900Y-10971*X81895Y-10969*X81890Y-10966*X81885Y-10964*X81880Y-10962*X81875Y-10960*X81869Y-10958*X81864Y-10956*X81859Y-10955*X81853Y-10953*X81848Y-10952*X81842*X81837Y-10951*X81831Y-10950*X81826*X81820*X81814*X81809*X81803Y-10951*X81798Y-10952*X81792*X81787Y-10953*X81781Y-10955*X81776Y-10956*X81771Y-10958*X81765Y-10960*X81760Y-10962*X81755Y-10964*X81750Y-10966*X81745Y-10969*X81740Y-10971*X81735Y-10974*X81731Y-10977*X81726Y-10981*X81721Y-10984*X81717Y-10987*X81713Y-10991*X81709Y-10995*X81705Y-10999*X81701Y-11003*X81697Y-11007*X81694Y-11011*X81691Y-11016*X81687Y-11021*X81684Y-11025*X81681Y-11030*X81679Y-11035*X81676Y-11040*X81674Y-11045*X81672Y-11050*X81670Y-11055*X81668Y-11061*X81666Y-11066*X81665Y-11071*X81663Y-11077*X81662Y-11082*Y-11088*X81661Y-11093*X81660Y-11099*Y-11104*Y-11110*Y-11116*Y-11121*X81661Y-11127*X81662Y-11132*Y-11138*X81663Y-11143*X81665Y-11149*X81666Y-11154*X81668Y-11159*X81670Y-11165*X81672Y-11170*X81674Y-11175*X81676Y-11180*X81679Y-11185*X81681Y-11190*X81684Y-11195*X81687Y-11199*X81691Y-11204*X81694Y-11209*X81697Y-11213*X81701Y-11217*X81705Y-11221*X81709Y-11225*X81713Y-11229*X81717Y-11233*X81721Y-11236*X81726Y-11239*X81731Y-11243*X81735Y-11246*X81740Y-11249*X81745Y-11251*X81750Y-11254*X81755Y-11256*X81760Y-11258*X81765Y-11260*X81771Y-11262*X81776Y-11264*X81781Y-11265*X81787Y-11267*X81792Y-11268*X81798*X81803Y-11269*X81809Y-11270*X81814*X81820*X81826*X81831*X81837Y-11269*X81842Y-11268*X81848*X81853Y-11267*X81859Y-11265*X81864Y-11264*X81869Y-11262*X81875Y-11260*X81880Y-11258*X81885Y-11256*X81890Y-11254*X81895Y-11251*X81900Y-11249*X81905Y-11246*X81909Y-11243*X81914Y-11239*X81919Y-11236*X81923Y-11233*X81927Y-11229*X81931Y-11225*X81935Y-11221*X81939Y-11217*X81943Y-11213*X81946Y-11209*X81949Y-11204*X81953Y-11199*X81956Y-11195*X81959Y-11190*X81961Y-11185*X81964Y-11180*X81966Y-11175*X81968Y-11170*X81970Y-11165*X81972Y-11159*X81974Y-11154*X81975Y-11149*X81977Y-11143*X81978Y-11138*Y-11132*X81979Y-11127*X81980Y-11121*Y-11116*Y-11110*Y-9150D2*X81900Y-9070D1*X81740*X81660Y-9150*Y-9230*X81740Y-9310*X81900*X81980Y-9390*Y-9470*X81900Y-9550*X81740*X81660Y-9470*X82140Y-9230D2*Y-9470D1*X82220Y-9550*X82460*Y-9630*X82380Y-9710*X82300*X82460Y-9550D2*Y-9230D1*X82620Y-9550D2*Y-9230D1*X82700*X82780Y-9310*Y-9550*Y-9310D2*X82860Y-9230D1*X82940Y-9310*Y-9550*X83100Y-9070D2*Y-9550D1*X83340*X83419Y-9470*Y-9390*Y-9310*X83340Y-9230*X83100*X83659Y-9550D2*X83819D1*X83899Y-9470*Y-9310*X83819Y-9230*X83659*X83579Y-9310*Y-9470*X83659Y-9550*X84059D2*X84219D1*X84139*Y-9070*X84059*X85083D2*Y-9550D1*Y-9310*X85403*Y-9070*Y-9550*X85563D2*X85723D1*X85643*Y-9230*X85563*X86043Y-9150D2*Y-9230D1*X85963*X86123*X86043*Y-9470*X86123Y-9550*X87163Y-9150D2*X87083Y-9070D1*X86923*X86843Y-9150*Y-9470*X86923Y-9550*X87083*X87163Y-9470*X87402Y-9550D2*X87562D1*X87642Y-9470*Y-9310*X87562Y-9230*X87402*X87323Y-9310*Y-9470*X87402Y-9550*X87802Y-9230D2*Y-9470D1*X87882Y-9550*X88122*Y-9230*X88282Y-9550D2*Y-9230D1*X88522*X88602Y-9310*Y-9550*X88842Y-9150D2*Y-9230D1*X88762*X88922*X88842*Y-9470*X88922Y-9550*X89786Y-9070D2*X90106D1*X89946*Y-9550*X90346D2*X90506D1*X90586Y-9470*Y-9310*X90506Y-9230*X90346*X90266Y-9310*Y-9470*X90346Y-9550*X90826D2*X90986D1*X91066Y-9470*Y-9310*X90986Y-9230*X90826*X90746Y-9310*Y-9470*X90826Y-9550*X91226D2*X91385D1*X91305*Y-9070*X91226*X92425Y-9150D2*X92345Y-9070D1*X92185*X92105Y-9150*Y-9230*X92185Y-9310*X92345*X92425Y-9390*Y-9470*X92345Y-9550*X92185*X92105Y-9470*X92585Y-9550D2*X92745D1*X92665*Y-9230*X92585*X92985D2*X93305D1*X92985Y-9550*X93305*X93705D2*X93545D1*X93465Y-9470*Y-9310*X93545Y-9230*X93705*X93785Y-9310*Y-9390*X93465*X96352Y-9550D2*Y-9070D1*X96592*X96672Y-9150*Y-9310*X96592Y-9390*X96352*X96832Y-9550D2*X96992D1*X96912*Y-9070*X96832*X97312Y-9230D2*X97472D1*X97552Y-9310*Y-9550*X97312*X97232Y-9470*X97312Y-9390*X97552*X97792Y-9150D2*Y-9230D1*X97712*X97872*X97792*Y-9470*X97872Y-9550*X98351D2*X98192D1*X98112Y-9470*Y-9310*X98192Y-9230*X98351*X98431Y-9310*Y-9390*X98112*X98911Y-9070D2*Y-9550D1*X98671*X98591Y-9470*Y-9310*X98671Y-9230*X98911*X99775Y-9070D2*Y-9550D1*Y-9310*X100095*Y-9070*Y-9550*X100335D2*X100495D1*X100575Y-9470*Y-9310*X100495Y-9230*X100335*X100255Y-9310*Y-9470*X100335Y-9550*X100735D2*X100895D1*X100815*Y-9070*X100735*X101375Y-9550D2*X101215D1*X101135Y-9470*Y-9310*X101215Y-9230*X101375*X101455Y-9310*Y-9390*X101135*X102095Y-9070D2*X102414D1*X102254*Y-9550*X102574Y-9230D2*Y-9470D1*X102654Y-9550*X102894*Y-9630*X102814Y-9710*X102734*X102894Y-9550D2*Y-9230D1*X103054Y-9710D2*Y-9230D1*X103294*X103374Y-9310*Y-9470*X103294Y-9550*X103054*X103774D2*X103614D1*X103534Y-9470*Y-9310*X103614Y-9230*X103774*X103854Y-9310*Y-9390*X103534*X81052Y-8830D2*X104718D1*X81052Y-9910D2*X104718D1*X81052Y-13110D2*Y-8830D1*X104718Y-13110D2*Y-8830D1*X84779Y-13110D2*Y-8830D1*X89482Y-13110D2*Y-8830D1*X96048Y-13110D2*Y-8830D1*X99471Y-13110D2*Y-8830D1*X81052Y-12310D2*X104718D1*X81052Y-13110D2*X104718D1*X87591Y64695D2*X87691D1*Y64095*X87791*X87591*X87392Y64295D2*X87092D1*X86992Y64195*X87092Y64095*X87392*Y64395*X87292Y64495*X87092*X86492D2*X86592D1*Y64095*X86692*X86492*X86292D2*X85992D1*X85892Y64195*Y64395*X85992Y64495*X86292*X85692D2*Y64095D1*X85392*X85292Y64195*Y64495*X85092D2*X84792D1*X84692Y64395*Y64195*X84792Y64095*X85092*Y64695*X84193Y64495D2*X84293D1*Y64095*X84392*X84193*X83593D2*Y64395D1*X83793*X83593D2*Y64695D1*X83993*X83093D2*X83193D1*Y64095*X83293*X83093*X82493Y64295D2*X82893D1*Y64395*X82793Y64495*X82593*X82493Y64395*Y64195*X82593Y64095*X82793*X82293D2*Y64395D1*X82193Y64495*X81893*Y64095*X81693Y64295D2*X81393D1*X81293Y64195*X81393Y64095*X81693*Y64395*X81593Y64495*X81393*X80694Y64295D2*X80994D1*X81094Y64395*Y64595*X80994Y64695*X80694*Y64095*X114444Y62700D2*X114844D1*Y62800*X114744Y62900*X114544*X114444Y62800*Y62600*X114544Y62500*X114744*X113945Y63100D2*X114045D1*Y62500*X114145*X113945*X113445D2*X113345Y62600D1*Y62800*X113445Y62900*X113645*X113745Y62800*Y62600*X113645Y62500*X113445*X113145D2*Y63100D1*Y62800*X112745*Y62500*Y63100*X111945Y62500D2*X111645D1*X111545Y62600*Y62800*X111645Y62900*X111945*Y62400*X111845Y62300*X111745*X111345Y62500D2*Y62800D1*X111246Y62900*X110946*Y62500*X110446Y62900D2*X110546D1*Y62500*X110646*X110446*X109946Y63100D2*X110046D1*Y62500*X110146*X109946*X109446D2*X109346Y62600D1*Y62800*X109446Y62900*X109646*X109746Y62800*Y62600*X109646Y62500*X109446*X108846D2*X108746Y62600D1*Y62800*X108846Y62900*X109046*X109146Y62800*Y62600*X109046Y62500*X108846*X108346D2*Y63100D1*X108546*X108147*X106947D2*X107247D1*X107347Y63000*Y62600*X107247Y62500*X106947*Y63100*X105747Y63000D2*Y62600D1*X105847Y62500*X106047*X106147Y62600*Y63000*X106047Y63100*X105847*X105747Y63000*X105147D2*X105247Y63100D1*X105447*X105547Y63000*Y62900*X105147Y62500*X105547*X104648Y63000D2*X104748Y63100D1*Y62500*X104848*X104648*X104148D2*X104248D1*Y62600*X104148*Y62500*X103548Y63000D2*Y62600D1*X103648Y62500*X103848*X103948Y62600*Y63000*X103848Y63100*X103648*X103548Y63000*X10290Y-290D2*X10390D1*Y-890*X10490*X10290*X10090Y-690D2*X9790D1*X9690Y-790*X9790Y-890*X10090*Y-590*X9990Y-490*X9790*X9190D2*X9290D1*Y-890*X9390*X9190*X8991D2*X8691D1*X8591Y-790*Y-590*X8691Y-490*X8991*X8391D2*Y-890D1*X8091*X7991Y-790*Y-490*X7791D2*X7491D1*X7391Y-590*Y-790*X7491Y-890*X7791*Y-290*X6891Y-490D2*X6991D1*Y-890*X7091*X6891*X6291D2*Y-590D1*X6491*X6291D2*Y-290D1*X6691*X5192D2*X5292D1*Y-890*X5392*X5192*X4592Y-690D2*X4992D1*Y-590*X4892Y-490*X4692*X4592Y-590*Y-790*X4692Y-890*X4892*X4392D2*Y-590D1*X4292Y-490*X3992*Y-890*X3792Y-690D2*X3492D1*X3392Y-790*X3492Y-890*X3792*Y-590*X3692Y-490*X3492*X2793Y-690D2*X3092D1*X3192Y-590*Y-390*X3092Y-290*X2793*Y-890*X114537Y1200D2*X114936D1*Y1300*X114836Y1400*X114636*X114537Y1300*Y1100*X114636Y1000*X114836*X114037Y1600D2*X114137D1*Y1000*X114237*X114037*X113537D2*X113437Y1100D1*Y1300*X113537Y1400*X113737*X113837Y1300*Y1100*X113737Y1000*X113537*X113237D2*Y1600D1*Y1300*X112837*Y1000*Y1600*X112037Y1000D2*X111737D1*X111637Y1100*Y1300*X111737Y1400*X112037*Y900*X111937Y800*X111837*X111438Y1000D2*Y1300D1*X111338Y1400*X111038*Y1000*X110538Y1400D2*X110638D1*Y1000*X110738*X110538*X110038Y1600D2*X110138D1*Y1000*X110238*X110038*X109538D2*X109438Y1100D1*Y1300*X109538Y1400*X109738*X109838Y1300*Y1100*X109738Y1000*X109538*X108938D2*X108838Y1100D1*Y1300*X108938Y1400*X109138*X109238Y1300*Y1100*X109138Y1000*X108938*X108439D2*Y1600D1*X108638*X108239*X107039D2*X107339D1*X107439Y1500*Y1100*X107339Y1000*X107039*Y1600*X105839Y1500D2*Y1100D1*X105939Y1000*X106139*X106239Y1100*Y1500*X106139Y1600*X105939*X105839Y1500*X105240D2*X105339Y1600D1*X105539*X105639Y1500*Y1400*X105240Y1000*X105639*X104740Y1500D2*X104840Y1600D1*Y1000*X104940*X104740*X104240D2*X104340D1*Y1100*X104240*Y1000*X103640Y1500D2*Y1100D1*X103740Y1000*X103940*X104040Y1100*Y1500*X103940Y1600*X103740*X103640Y1500*X-2315Y62403D2*X-1915D1*Y62503*X-2015Y62603*X-2215*X-2315Y62503*Y62303*X-2215Y62203*X-2015*X-2815Y62803D2*X-2715D1*Y62203*X-2615*X-2815*X-3315D2*X-3415Y62303D1*Y62503*X-3315Y62603*X-3115*X-3015Y62503*Y62303*X-3115Y62203*X-3315*X-3615D2*Y62803D1*Y62503*X-4015*Y62203*Y62803*X-4814Y62203D2*X-5114D1*X-5214Y62303*Y62503*X-5114Y62603*X-4814*Y62103*X-4914Y62004*X-5014*X-5414Y62203D2*Y62503D1*X-5514Y62603*X-5814*Y62203*X-6314Y62603D2*X-6214D1*Y62203*X-6114*X-6314*X-6814Y62803D2*X-6714D1*Y62203*X-6614*X-6814*X-7314D2*X-7414Y62303D1*Y62503*X-7314Y62603*X-7114*X-7014Y62503*Y62303*X-7114Y62203*X-7314*X-7913D2*X-8013Y62303D1*Y62503*X-7913Y62603*X-7713*X-7614Y62503*Y62303*X-7713Y62203*X-7913*X-8413D2*Y62803D1*X-8213*X-8613*X-9813D2*X-9513D1*X-9413Y62703*Y62303*X-9513Y62203*X-9813*Y62803*X-11012Y62703D2*Y62303D1*X-10912Y62203*X-10713*X-10613Y62303*Y62703*X-10713Y62803*X-10912*X-11012Y62703*X-11612D2*X-11512Y62803D1*X-11312*X-11212Y62703*Y62603*X-11612Y62203*X-11212*X-12112Y62703D2*X-12012Y62803D1*Y62203*X-11912*X-12112*X-12612D2*X-12512D1*Y62303*X-12612*Y62203*X-13212Y62703D2*Y62303D1*X-13112Y62203*X-12912*X-12812Y62303*Y62703*X-12912Y62803*X-13112*X-13212Y62703*X-2320Y840D2*X-1920D1*Y940*X-2020Y1040*X-2220*X-2320Y940*Y740*X-2220Y640*X-2020*X-2820Y1240D2*X-2720D1*Y640*X-2620*X-2820*X-3320D2*X-3420Y740D1*Y940*X-3320Y1040*X-3120*X-3020Y940*Y740*X-3120Y640*X-3320*X-3619D2*Y1240D1*Y940*X-4019*Y640*Y1240*X-4819Y640D2*X-5119D1*X-5219Y740*Y940*X-5119Y1040*X-4819*Y540*X-4919Y440*X-5019*X-5419Y640D2*Y940D1*X-5519Y1040*X-5819*Y640*X-6319Y1040D2*X-6219D1*Y640*X-6119*X-6319*X-6818Y1240D2*X-6719D1*Y640*X-6619*X-6818*X-7318D2*X-7418Y740D1*Y940*X-7318Y1040*X-7118*X-7018Y940*Y740*X-7118Y640*X-7318*X-7918D2*X-8018Y740D1*Y940*X-7918Y1040*X-7718*X-7618Y940*Y740*X-7718Y640*X-7918*X-8418D2*Y1240D1*X-8218*X-8618*X-9818D2*X-9518D1*X-9418Y1140*Y740*X-9518Y640*X-9818*Y1240*X-11017Y1140D2*Y740D1*X-10917Y640*X-10717*X-10617Y740*Y1140*X-10717Y1240*X-10917*X-11017Y1140*X-11617D2*X-11517Y1240D1*X-11317*X-11217Y1140*Y1040*X-11617Y640*X-11217*X-12117Y1140D2*X-12017Y1240D1*Y640*X-11917*X-12117*X-12617D2*X-12517D1*Y740*X-12617*Y640*X-13216Y1140D2*Y740D1*X-13116Y640*X-12916*X-12817Y740*Y1140*X-12916Y1240*X-13116*X-13216Y1140*X10868Y64980D2*X10968D1*Y64380*X11068*X10868*X10668Y64580D2*X10368D1*X10268Y64480*X10368Y64380*X10668*Y64680*X10568Y64780*X10368*X9768D2*X9868D1*Y64380*X9968*X9768*X9568D2*X9268D1*X9168Y64480*Y64680*X9268Y64780*X9568*X8968D2*Y64380D1*X8668*X8568Y64480*Y64780*X8368D2*X8069D1*X7969Y64680*Y64480*X8069Y64380*X8368*Y64980*X7469Y64780D2*X7569D1*Y64380*X7669*X7469*X6869D2*Y64680D1*X7069*X6869D2*Y64980D1*X7269*X5769D2*X5869D1*Y64380*X5969*X5769*X5169Y64580D2*X5569D1*Y64680*X5469Y64780*X5269*X5169Y64680*Y64480*X5269Y64380*X5469*X4970D2*Y64680D1*X4870Y64780*X4570*Y64380*X4370Y64580D2*X4070D1*X3970Y64480*X4070Y64380*X4370*Y64680*X4270Y64780*X4070*X3370Y64580D2*X3670D1*X3770Y64680*Y64880*X3670Y64980*X3370*Y64380*X87908Y-730D2*X88008D1*Y-1330*X88108*X87908*X87708Y-1130D2*X87408D1*X87308Y-1230*X87408Y-1330*X87708*Y-1030*X87608Y-930*X87408*X86808D2*X86908D1*Y-1330*X87008*X86808*X86608D2*X86308D1*X86208Y-1230*Y-1030*X86308Y-930*X86608*X86008D2*Y-1330D1*X85709*X85609Y-1230*Y-930*X85409D2*X85109D1*X85009Y-1030*Y-1230*X85109Y-1330*X85409*Y-730*X84509Y-930D2*X84609D1*Y-1330*X84709*X84509*X83909D2*Y-1030D1*X84109*X83909D2*Y-730D1*X84309*X83409D2*X83509D1*Y-1330*X83609*X83409*X82809Y-1130D2*X83209D1*Y-1030*X83109Y-930*X82909*X82809Y-1030*Y-1230*X82909Y-1330*X83109*X82610D2*Y-1030D1*X82510Y-930*X82210*Y-1330*X82010Y-1130D2*X81710D1*X81610Y-1230*X81710Y-1330*X82010*Y-1030*X81910Y-930*X81710*X81010Y-1130D2*X81310D1*X81410Y-1030*Y-830*X81310Y-730*X81010*Y-1330*X109968Y11640D2*X110268D1*X110368Y11740*Y11940*X110268Y12040*X109968*Y11440*X109768Y11640D2*Y12040D1*X109568Y11440D2*X109668D1*X109768Y11540*Y11640*X109468*X109368Y11740*Y12040*X108968Y11640D2*Y12240D1*X109168*X108769*X107569Y11840D2*X107969D1*Y11940*X107869Y12040*X107669*X107569Y11940*Y11740*X107669Y11640*X107869*X107269Y12040D2*X107169D1*X107069Y11940*X106969Y11840*Y11640*Y12040*X106469Y11640D2*X106369Y11740D1*Y11940*X106469Y12040*X106669*X106769Y11940*Y11740*X106669Y11640*X106469*X106169D2*X105869D1*X105769Y11740*Y11940*X105869Y12040*X106169*X105170Y11740D2*X105270Y11640D1*X105470*X105570Y11740*Y11840*X105470Y11940*X105270*X105170Y12040*Y12140*X105270Y12240*X105470*X105570Y12140*X104570Y11940D2*X104970D1*X104370Y12240D2*Y11840D1*X104170Y11640*X103970Y11840*Y12240*X-2040Y33776D2*X-1940Y33876D1*X-2040Y33576D2*Y33476D1*X-1640*Y33276D2*X-1940D1*X-2040Y33176*X-1940Y33076*X-2040Y32976*X-2140Y32277D2*X-2040D1*X-1940Y32376*X-1740Y32277D2*X-1640Y32376D1*Y32576*X-1940D2*X-2040Y32676D1*X-2140*X-2240Y32576D2*Y32376D1*X-2140Y32277*X-1940Y31777D2*Y32077D1*X-2140Y31677D2*X-2040D1*X-2140Y32077D2*X-1740D1*Y31677D2*X-1640Y31777D1*Y31277D2*X-1740D1*Y31177*X-2240Y30777D2*X-1640D1*Y30877*Y30677*X-1940Y30077D2*Y30377D1*X-1840Y30477*X-1740*X-1940Y30077D2*X-1740D1*X-2240Y30477D2*X-2140Y30277D1*X-2240Y29677D2*X-2140Y29577D1*X-1640D2*Y29777D1*X52369Y-2420D2*X52469D1*X52170Y-2520D2*X52070Y-2420D1*X51970Y-2520*X51770Y-2820D2*Y-2420D1*X50670Y-2820D2*Y-2720D1*X51070Y-2320*X50170Y-2820D2*X50270D1*X49570D2*Y-2720D1*X49970Y-2320*X48971Y-2720D2*X49071Y-2820D1*X49270*X49370Y-2720D2*Y-2520D1*X49170Y-2420D2*X48971Y-2520D1*Y-2220*X49370*X48671D2*X48771Y-2320D1*Y-2420*X48371Y-2820D2*X48771D1*X13770Y8905D2*X13670Y8805D1*X13770Y8705*X14070*X13670Y8605D2*X13770Y8705D1*X14070Y8105D2*X13770D1*X13670Y8005*Y7905D2*X14070D1*X13470Y7605D2*X13570Y7705D1*X13670*X13470Y6905D2*X13570Y6805D1*X14070D2*Y7005D1*Y6305D2*Y6405D1*X13970Y6305D2*Y6405D1*X14070Y6006D2*X13970Y6105D1*X13770*X13670Y6006*X13470Y5706D2*X13770D1*X13470Y5206D2*Y5406D1*X14070Y5106D2*Y5506D1*X9197Y-1810D2*X9297Y-1710D1*X8797Y-2110D2*Y-1810D1*X7798Y-2010D2*X8197Y-1610D1*Y-1510*X7498Y-2110D2*X7598Y-2010D1*Y-1910D2*X7498Y-1810D1*X7598Y-1710*Y-1610*X6698Y-2110D2*X6798D1*Y-2010*X6698Y-2110D2*Y-2010D1*X6098Y-2110D2*Y-2010D1*X5498Y-1610D2*X5598Y-1510D1*X5798*X5898Y-1610*Y-1710D2*X5498Y-2110D1*X5898*Y-1710D2*Y-1610D1*X6098Y-1510D2*X6498D1*Y-1610*X6098Y-2010*X6698D2*X6798D1*X7198Y-1610D2*X7298Y-1510D1*X7498*X7598Y-1610*X7398Y-1810D2*X7498D1*X7598Y-2010D2*Y-1910D1*X7498Y-2110D2*X7298D1*X7198Y-2010*X7798Y-1510D2*X8197D1*X7798Y-2110D2*Y-2010D1*X8397Y-2110D2*Y-1710D1*X8497*X8597Y-1810*Y-2110*Y-1810D2*X8697Y-1710D1*X8797Y-1810*X8997Y-2110D2*Y-1710D1*X9097*X9197Y-1810*Y-2110*X9297Y-1710D2*X9397Y-1810D1*Y-2110*X14070Y5106D2*X13670Y5506D1*X13570*X13470Y5406*Y5206D2*X13570Y5106D1*X13470Y5706D2*Y6105D1*X13770Y5706D2*X13670Y5906D1*Y6006*X14070D2*Y5806D1*X13970Y5706*Y6305D2*X14070D1*X13970Y6405D2*X14070D1*Y7005D2*Y6905D1*X13470*X14070Y7705D2*Y7305D1*X13670Y7705*X13470Y7605D2*Y7405D1*X13570Y7305*X13670Y7905D2*Y8005D1*X13770Y8105D2*X13670Y8205D1*X13770Y8305*X14070*Y8505D2*X13670D1*Y8605*X13770Y8905D2*X14070D1*X48371Y-2820D2*X48771Y-2420D1*X48671Y-2220D2*X48471D1*X48371Y-2320*X49170Y-2420D2*X49270D1*X49370Y-2520*X49270Y-2820D2*X49370Y-2720D1*X49570Y-2220D2*X49970D1*Y-2320*X50170Y-2820D2*Y-2720D1*X50270*Y-2820*X50670Y-2220D2*X51070D1*Y-2320*X51270Y-2820D2*X51470D1*X51370*Y-2220*X51270Y-2320*X51770Y-2420D2*X51870D1*X51970Y-2520*Y-2820*X52170D2*Y-2520D1*X52369Y-2820D2*Y-2420D1*X52469D2*X52569Y-2520D1*Y-2820*Y-2520D2*X52669Y-2420D1*X52769Y-2520*Y-2820*X-1640Y29777D2*Y29677D1*X-2240*X-2140Y30277D2*X-1940Y30077D1*X-1740D2*X-1640Y30177D1*Y30377*X-1740Y30477*X-2240Y30777D2*X-2140Y30677D1*X-1740Y31177D2*X-1640D1*Y31277*Y31777D2*Y31977D1*X-1740Y32077*X-2140D2*X-2240Y31977D1*Y31777*X-2140Y31677*X-2040D2*X-1940Y31777D1*X-2240Y32576D2*X-2140Y32676D1*X-1940Y32576D2*X-1840Y32676D1*X-1740*X-1640Y32576*X-1740Y32277D2*X-1840D1*X-1940Y32376*Y32576*X-1640Y32876D2*X-2040D1*Y32976*X-1940Y33076D2*X-1640D1*X-2040Y33576D2*X-1940Y33676D1*X-1640*X-2040Y33776D2*X-1940Y33676D1*Y33876D2*X-1640D1*X2220Y12110D2*X12995D1*Y2220*X2220*X-2200Y600D2*X-2000Y0D1*Y63773D2*X-1800Y63173D1*X-2000Y0D2*Y29417D1*X-2100Y0D2*X-125D1*X0Y-2460D2*X600Y-2260D1*X52929Y-2460D2*X101460D1*X13510Y2820D2*X13710Y2220D1*X13910Y2820*X13710Y2220D2*Y4946D1*X13145Y12110D2*X13810D1*X2220Y-1750D2*X5338D1*X9557D2*X12995D1*X2220Y-1850D2*Y2070D1*X12995Y-1850D2*Y2070D1*X74426Y-12810D2*X74474Y-12905D1*X74617Y-12953*X74759*X74902Y-12905*X74950Y-12810*Y-12762*X74902Y-12667*X74807Y-12619*X74569Y-12572*X74474Y-12524*X74426Y-12429*X74474Y-12334*X74617Y-12286*X74759*X74902Y-12334*X74950Y-12429*X74212Y-12810D2*X74117Y-12905D1*X74021Y-12953*X73879*X73783Y-12905*X73688Y-12810*X73641Y-12667*Y-12572*X73688Y-12429*X73783Y-12334*X73879Y-12286*X74021*X74117Y-12334*X74164Y-12381*X74212Y-12477*Y-12572*X73641*X73374Y-12810D2*X73279Y-12905D1*X73184Y-12953*X73041*X72945Y-12905*X72850Y-12810*X72803Y-12667*Y-12572*X72850Y-12429*X72945Y-12334*X73041Y-12286*X73184*X73279Y-12334*X73374Y-12429*Y-12953D2*Y-11953D1*X72579Y-12953D2*Y-12286D1*X72531Y-11953D2*X72579Y-11905D1*X72626Y-11953*X72579Y-12000*X72531Y-11953*X71703Y-12810D2*X71750Y-12905D1*X71893Y-12953*X72036*X72179Y-12905*X72227Y-12810*Y-12762*X72179Y-12667*X72084Y-12619*X71846Y-12572*X71750Y-12524*X71703Y-12429*X71750Y-12334*X71893Y-12286*X72036*X72179Y-12334*X72227Y-12429*X70655Y-12953D2*Y-12477D1*X70608Y-12334*X70513Y-12286*X70370*X70275Y-12334*X70132Y-12477*Y-12953D2*Y-11953D1*X69608Y-12286D2*X69941D1*X69989Y-12953D2*X69894D1*X69799Y-12905*X69751Y-12762*Y-11953*X69008Y-12286D2*X69151D1*X69246Y-12334*X69341Y-12429*X69389Y-12572*Y-12667*X69341Y-12810*X69246Y-12905*X69151Y-12953*X69008*X68913Y-12905*X68818Y-12810*X68770Y-12667*Y-12572*X68818Y-12429*X68913Y-12334*X69008Y-12286*X67985Y-12810D2*X68080Y-12905D1*X68175Y-12953*X68318*X68413Y-12905*X68508Y-12810*X68556Y-12667*Y-12572*X68508Y-12429*X68413Y-12334*X68318Y-12286*X68175*X68080Y-12334*X67985Y-12429*Y-12953D2*Y-11953D1*X66937Y-12953D2*Y-12477D1*X66890Y-12334*X66794Y-12286*X66652*X66556Y-12334*X66414Y-12477*Y-12953D2*Y-12286D1*X65814D2*X65956D1*X66052Y-12334*X66147Y-12429*X66195Y-12572*Y-12667*X66147Y-12810*X66052Y-12905*X65956Y-12953*X65814*X65718Y-12905*X65623Y-12810*X65576Y-12667*Y-12572*X65623Y-12429*X65718Y-12334*X65814Y-12286*X64523Y-12810D2*X64428Y-12905D1*X64333Y-12953*X64190*X64095Y-12905*X64000Y-12810*X63952Y-12667*Y-12572*X64000Y-12429*X64095Y-12334*X64190Y-12286*X64333*X64428Y-12334*X64523Y-12429*Y-12953D2*Y-11953D1*X63686Y-12810D2*X63590Y-12905D1*X63495Y-12953*X63352*X63257Y-12905*X63162Y-12810*X63114Y-12667*Y-12572*X63162Y-12429*X63257Y-12334*X63352Y-12286*X63495*X63590Y-12334*X63686Y-12429*Y-12953D2*Y-12286D1*X62329Y-12810D2*X62424Y-12905D1*X62519Y-12953*X62662*X62757Y-12905*X62852Y-12810*X62900Y-12667*Y-12572*X62852Y-12429*X62757Y-12334*X62662Y-12286*X62519*X62424Y-12334*X62329Y-12429*Y-13286D2*Y-12286D1*X61277Y-12810D2*X61181Y-12905D1*X61086Y-12953*X60943*X60848Y-12905*X60753Y-12810*X60705Y-12667*Y-12572*X60753Y-12429*X60848Y-12334*X60943Y-12286*X61086*X61181Y-12334*X61277Y-12429*Y-12953D2*Y-11953D1*X60443Y-12953D2*Y-12477D1*X60396Y-12334*X60301Y-12286*X60158*X60063Y-12334*X59920Y-12477*Y-12953D2*Y-12286D1*X59658Y-12953D2*Y-12286D1*Y-12762D2*X59515Y-12905D1*X59420Y-12953*X59277*X59182Y-12905*X59134Y-12762*Y-12286*X58534D2*X58677D1*X58772Y-12334*X58868Y-12429*X58915Y-12572*Y-12667*X58868Y-12810*X58772Y-12905*X58677Y-12953*X58534*X58439Y-12905*X58344Y-12810*X58296Y-12667*Y-12572*X58344Y-12429*X58439Y-12334*X58534Y-12286*X58206D2*X58063D1*X57968Y-12334*X57873Y-12429*X57825Y-12572*Y-12953D2*Y-12286D1*X56254Y-11953D2*X56920D1*X56587Y-12953D2*Y-11953D1*X55968Y-12953D2*Y-11953D1*X55587Y-12953*X55206Y-11953*Y-12953*X54316Y-12810D2*X54411Y-12905D1*X54554Y-12953*X54745*X54887Y-12905*X54983Y-12810*Y-12667*X54935Y-12572*X54887Y-12524*X54792Y-12477*X54507Y-12381*X54411Y-12334*X54364Y-12286*X54316Y-12191*Y-12096*X54411Y-12000*X54554Y-11953*X54745*X54887Y-12000*X54983Y-12096*X52640Y-12953D2*X52974D1*X53116Y-12905*X53212Y-12810*X53259Y-12715*X53307Y-12572*Y-12334*X53259Y-12191*X53212Y-12096*X53116Y-12000*X52974Y-11953*X52640*Y-12953*X51645D2*Y-11953D1*X51422Y-12953D2*Y-12286D1*X51374Y-11953D2*X51422Y-11905D1*X51469Y-11953*X51422Y-12000*X51374Y-11953*X50964Y-12953D2*Y-12477D1*X50917Y-12334*X50822Y-12286*X50679*X50584Y-12334*X50441Y-12477*Y-12953*Y-12477D2*X50393Y-12334D1*X50298Y-12286*X50155*X50060Y-12334*X49917Y-12477*Y-12953D2*Y-12286D1*X49027Y-12762D2*X49074Y-12857D1*X49122Y-12905*X49265Y-12953*X49408*X49550Y-12905*X49646Y-12810*X49693Y-12667*Y-12572*X49646Y-12429*X49550Y-12334*X49408Y-12286*X49265*X49122Y-12334*X49074Y-12381*X49122Y-11953*X49598*X48136D2*X48803D1*X48327Y-12953*X46618Y-12810D2*X46665Y-12905D1*X46808Y-12953*X46951*X47094Y-12905*X47141Y-12810*Y-12762*X47094Y-12667*X46999Y-12619*X46761Y-12572*X46665Y-12524*X46618Y-12429*X46665Y-12334*X46808Y-12286*X46951*X47094Y-12334*X47141Y-12429*X46394Y-12953D2*Y-12286D1*X46346Y-11953D2*X46394Y-11905D1*X46442Y-11953*X46394Y-12000*X46346Y-11953*X45256Y-12953D2*Y-11953D1*X44990Y-12810D2*X44894Y-12905D1*X44799Y-12953*X44656*X44561Y-12905*X44466Y-12810*X44418Y-12667*Y-12572*X44466Y-12429*X44561Y-12334*X44656Y-12286*X44799*X44894Y-12334*X44990Y-12429*Y-12953D2*Y-12286D1*X44194Y-12953D2*Y-12286D1*X44147Y-11953D2*X44194Y-11905D1*X44242Y-11953*X44194Y-12000*X44147Y-11953*X43837Y-12810D2*X43742Y-12905D1*X43647Y-12953*X43504*X43409Y-12905*X43314Y-12810*X43266Y-12667*Y-12572*X43314Y-12429*X43409Y-12334*X43504Y-12286*X43647*X43742Y-12334*X43837Y-12429*X43004Y-12953D2*Y-12286D1*Y-12762D2*X42861Y-12905D1*X42766Y-12953*X42623*X42528Y-12905*X42481Y-12762*Y-12286*X42214Y-12810D2*X42119Y-12905D1*X42024Y-12953*X41881*X41785Y-12905*X41690Y-12810*X41643Y-12667*Y-12572*X41690Y-12429*X41785Y-12334*X41881Y-12286*X42024*X42119Y-12334*X42214Y-12429*Y-12953D2*Y-11953D1*X41419Y-12953D2*Y-12286D1*X41371Y-11953D2*X41419Y-11905D1*X41466Y-11953*X41419Y-12000*X41371Y-11953*X40543Y-12429D2*X40924D1*X41162Y-11953D2*X40543D1*Y-12953*X39548D2*Y-11953D1*X39334Y-12810D2*X39238Y-12905D1*X39143Y-12953*X39000*X38905Y-12905*X38810Y-12810*X38762Y-12667*Y-12572*X38810Y-12429*X38905Y-12334*X39000Y-12286*X39143*X39238Y-12334*X39286Y-12381*X39334Y-12477*Y-12572*X38762*X38500Y-12953D2*Y-12477D1*X38453Y-12334*X38358Y-12286*X38215*X38120Y-12334*X37977Y-12477*Y-12953D2*Y-12286D1*X37710Y-12810D2*X37615Y-12905D1*X37520Y-12953*X37377*X37282Y-12905*X37186Y-12810*X37139Y-12667*Y-12572*X37186Y-12429*X37282Y-12334*X37377Y-12286*X37520*X37615Y-12334*X37710Y-12429*Y-12953D2*Y-12286D1*X36249Y-12953D2*Y-11953D1*X36677*X36820Y-12000*X36867Y-12048*X36915Y-12143*Y-12286*X36867Y-12381*X36820Y-12429*X36677Y-12477*X36249*X34982Y-13191D2*X35077Y-13000D1*X35125Y-12857*X35173Y-12619*Y-12429*X35125Y-12191*X35077Y-12048*X34982Y-11858*X34887Y-13286D2*X34982Y-13191D1*X35077Y-13048*X35173Y-12857*X35220Y-12619*Y-12429*X35173Y-12191*X35077Y-12000*X34982Y-11858*X34887Y-11762*X33997Y-12762D2*X34044Y-12857D1*X34092Y-12905*X34235Y-12953*X34378*X34520Y-12905*X34616Y-12810*X34663Y-12667*Y-12572*X34616Y-12429*X34520Y-12334*X34378Y-12286*X34235*X34092Y-12334*X34044Y-12381*X34092Y-11953*X34568*X67354Y-14910D2*X67259Y-15005D1*X67164Y-15053*X67021*X66926Y-15005*X66831Y-14910*X66783Y-14767*Y-14672*X66831Y-14529*X66926Y-14434*X67021Y-14386*X67164*X67259Y-14434*X67307Y-14481*X67354Y-14577*Y-14672*X66783*X66569Y-14910D2*X66473Y-15005D1*X66378Y-15053*X66235*X66140Y-15005*X66045Y-14910*X65997Y-14767*Y-14672*X66045Y-14529*X66140Y-14434*X66235Y-14386*X66378*X66473Y-14434*X66569Y-14529*X65736Y-15053D2*Y-14577D1*X65688Y-14434*X65593Y-14386*X65450*X65355Y-14434*X65212Y-14577*Y-15053D2*Y-14386D1*X64945Y-14910D2*X64850Y-15005D1*X64755Y-15053*X64612*X64517Y-15005*X64422Y-14910*X64374Y-14767*Y-14672*X64422Y-14529*X64517Y-14434*X64612Y-14386*X64755*X64850Y-14434*X64945Y-14529*Y-15053D2*Y-14386D1*X64283D2*X64141D1*X64045Y-14434*X63950Y-14529*X63903Y-14672*Y-15053D2*Y-14386D1*X63636Y-14910D2*X63541Y-15005D1*X63446Y-15053*X63303*X63208Y-15005*X63112Y-14910*X63065Y-14767*Y-14672*X63112Y-14529*X63208Y-14434*X63303Y-14386*X63446*X63541Y-14434*X63636Y-14529*Y-15053D2*Y-14386D1*X62850Y-14910D2*X62755Y-15005D1*X62660Y-15053*X62517*X62422Y-15005*X62327Y-14910*X62279Y-14767*Y-14672*X62327Y-14529*X62422Y-14434*X62517Y-14386*X62660*X62755Y-14434*X62803Y-14481*X62850Y-14577*Y-14672*X62279*X62070Y-15053D2*Y-14053D1*X61855Y-14910D2*X61760Y-15005D1*X61665Y-15053*X61522*X61427Y-15005*X61332Y-14910*X61284Y-14767*Y-14672*X61332Y-14529*X61427Y-14434*X61522Y-14386*X61665*X61760Y-14434*X61855Y-14529*X60008Y-14672D2*X60341Y-15053D1*X59818Y-14862D2*X60294Y-14386D1*X59818Y-15053D2*Y-14053D1*X59085Y-14910D2*X59132Y-15005D1*X59275Y-15053*X59418*X59561Y-15005*X59608Y-14910*Y-14862*X59561Y-14767*X59465Y-14719*X59227Y-14672*X59132Y-14624*X59085Y-14529*X59132Y-14434*X59275Y-14386*X59418*X59561Y-14434*X59608Y-14529*X58818Y-14910D2*X58723Y-15005D1*X58628Y-15053*X58485*X58390Y-15005*X58294Y-14910*X58247Y-14767*Y-14672*X58294Y-14529*X58390Y-14434*X58485Y-14386*X58628*X58723Y-14434*X58818Y-14529*Y-15053D2*Y-14386D1*X57932Y-15053D2*Y-14577D1*X57885Y-14434*X57790Y-14386*X57647*X57552Y-14434*X57409Y-14577*Y-15053*Y-14577D2*X57361Y-14434D1*X57266Y-14386*X57123*X57028Y-14434*X56885Y-14577*Y-15053D2*Y-14386D1*X56009D2*X55866D1*X55771Y-14434*X55676Y-14529*X55628Y-14672*Y-15053D2*Y-14386D1*X55414Y-14910D2*X55319Y-15005D1*X55224Y-15053*X55081*X54985Y-15005*X54890Y-14910*X54843Y-14767*Y-14672*X54890Y-14529*X54985Y-14434*X55081Y-14386*X55224*X55319Y-14434*X55366Y-14481*X55414Y-14577*Y-14672*X54843*X54576Y-14910D2*X54481Y-15005D1*X54386Y-15053*X54243*X54148Y-15005*X54052Y-14910*X54005Y-14767*Y-14672*X54052Y-14529*X54148Y-14434*X54243Y-14386*X54386*X54481Y-14434*X54576Y-14529*Y-15053D2*Y-14053D1*X53795Y-15053D2*Y-14053D1*X53195Y-14386D2*X53338D1*X53433Y-14434*X53529Y-14529*X53576Y-14672*Y-14767*X53529Y-14910*X53433Y-15005*X53338Y-15053*X53195*X53100Y-15005*X53005Y-14910*X52957Y-14767*Y-14672*X53005Y-14529*X53100Y-14434*X53195Y-14386*X52224Y-14910D2*X52272Y-15005D1*X52415Y-15053*X52557*X52700Y-15005*X52748Y-14910*Y-14862*X52700Y-14767*X52605Y-14719*X52367Y-14672*X52272Y-14624*X52224Y-14529*X52272Y-14434*X52415Y-14386*X52557*X52700Y-14434*X52748Y-14529*X50548Y-15053D2*X50882D1*X51024Y-15005*X51120Y-14910*X51167Y-14815*X51215Y-14672*Y-14434*X51167Y-14291*X51120Y-14196*X51024Y-14100*X50882Y-14053*X50548*Y-15053*X49553D2*Y-14053D1*X49330Y-15053D2*Y-14386D1*X49282Y-14053D2*X49330Y-14005D1*X49377Y-14053*X49330Y-14100*X49282Y-14053*X48873Y-15053D2*Y-14577D1*X48825Y-14434*X48730Y-14386*X48587*X48492Y-14434*X48349Y-14577*Y-15053*Y-14577D2*X48301Y-14434D1*X48206Y-14386*X48063*X47968Y-14434*X47825Y-14577*Y-15053D2*Y-14386D1*X47220Y-14053D2*X47316D1*X47459Y-14100*X47554Y-14243*X47601Y-14481*Y-14624*X47554Y-14862*X47459Y-15005*X47316Y-15053*X47220*X47078Y-15005*X46982Y-14862*X46935Y-14624*Y-14481*X46982Y-14243*X47078Y-14100*X47220Y-14053*X46045Y-14862D2*X46092Y-14957D1*X46140Y-15005*X46283Y-15053*X46425*X46568Y-15005*X46663Y-14910*X46711Y-14767*Y-14672*X46663Y-14529*X46568Y-14434*X46425Y-14386*X46283*X46140Y-14434*X46092Y-14481*X46140Y-14053*X46616*X45549Y-15053D2*Y-14053D1*X45407Y-14196*X45311Y-14243*X44264Y-15053D2*Y-14577D1*X44216Y-14434*X44121Y-14386*X43978*X43883Y-14434*X43740Y-14577*Y-15053D2*Y-14053D1*X43217Y-14386D2*X43550D1*X43597Y-15053D2*X43502D1*X43407Y-15005*X43359Y-14862*Y-14053*X42993Y-15053D2*Y-14386D1*X42945Y-14053D2*X42993Y-14005D1*X43040Y-14053*X42993Y-14100*X42945Y-14053*X42617Y-14386D2*X42426Y-15053D1*X42236Y-14386*X42045Y-15053*X41855Y-14386*X40179Y-15053D2*X40608D1*X40750Y-15005*X40798Y-14957*X40846Y-14862*Y-14719*X40798Y-14624*X40750Y-14577*X40608Y-14529*X40179*X40608D2*X40750Y-14481D1*X40798Y-14434*X40846Y-14339*Y-14243*X40798Y-14148*X40750Y-14100*X40608Y-14053*X40179*Y-15053*X39898Y-14815D2*X39851Y-14910D1*X39755Y-15005*X39660Y-15053*X39470*X39375Y-15005*X39279Y-14910*X39232Y-14815*X39184Y-14672*Y-14434*X39232Y-14291*X39279Y-14196*X39375Y-14100*X39470Y-14053*X39660*X39755Y-14100*X39851Y-14196*X39898Y-14291*X38294Y-15053D2*Y-14053D1*X38722*X38865Y-14100*X38913Y-14148*X38960Y-14243*Y-14386*X38913Y-14481*X38865Y-14529*X38722Y-14577*X38294*X36985Y-14386D2*X37318D1*X37127Y-15053D2*Y-14243D1*X37175Y-14100*X37270Y-14053*X37365*X36385Y-14386D2*X36528D1*X36623Y-14434*X36718Y-14529*X36766Y-14672*Y-14767*X36718Y-14910*X36623Y-15005*X36528Y-15053*X36385*X36289Y-15005*X36194Y-14910*X36147Y-14767*Y-14672*X36194Y-14529*X36289Y-14434*X36385Y-14386*X79918Y63907D2*X79710Y63310D1*X80235Y63663*X79710Y63310D2*X80594Y64455D1*X102291Y62919D2*X101698Y62700D1*X102304Y62519*X101698Y62700D2*X103298Y62750D1*X11411Y-162D2*X11720Y390D1*X11142Y134*X10710Y-530D2*X11720Y390D1*X102384Y1419D2*X101790Y1200D1*X102396Y1019*X101790Y1200D2*X103390Y1250D1*X-845Y62463D2*X-245Y62663D1*X-845Y62863*X-1695Y62663D2*X-245D1*X-850Y900D2*X-250Y1100D1*X-850Y1300*X-1700Y1100D2*X-250D1*X11481Y63923D2*X11960Y63510D1*X11825Y64128*X11240Y64720D2*X11960Y63510D1*X80256Y135D2*X79720Y470D1*X79948Y-120*X79720Y470D2*X80910Y-970D1*X102270Y12300D2*X101670Y12100D1*X102270Y11900*X103870Y12100D2*X103800D1*X101670*X56509Y-10755D2*X56651Y-10803D1*X56794D2*X56937Y-10755D1*X56985Y-10660*Y-10612*X56842Y-10469D2*X56604Y-10422D1*X56509Y-10374*X56461Y-10279D2*X56509Y-10184D1*X56651Y-10136D2*X56794D1*X56937Y-10184*X56985Y-10279*X56151Y-10755D2*X56056Y-10803D1*X55913*X55818Y-10755D2*X55723Y-10660D1*X55675Y-10517*Y-10422*X55723Y-10279*X55818Y-10184D2*X55913Y-10136D1*X56056*X56151Y-10184D2*X56199Y-10231D1*X56247Y-10327*X55675Y-10422D2*X56247D1*X55075Y-10803D2*X54980Y-10755D1*X54885Y-10660*X54837Y-10517*Y-10422D2*X54885Y-10279D1*X54980Y-10184*X55075Y-10136*X55218*X54614Y-10803D2*Y-10136D1*Y-9755D2*X54661Y-9803D1*X53819Y-10803D2*X54009D1*X54152Y-10755D2*X54247Y-10660D1*X54199Y-10422D2*X54247Y-10517D1*X53771Y-10231D2*X54057Y-10327D1*X53581Y-10041D2*X53628Y-10136D1*X53676Y-9850D2*X53819Y-9803D1*X54009*X54152Y-9850*X54247Y-9946*X52533Y-10803D2*Y-10327D1*X52486Y-10184*X52390Y-10136*X52248*X52152Y-10184*X52009Y-10327*Y-10803D2*Y-9803D1*X51486Y-10136D2*X51819D1*X51676Y-10755D2*X51629Y-10612D1*Y-9803*X51029Y-10136D2*X51124Y-10184D1*X51219Y-10279D2*X51267Y-10422D1*Y-10517*X51029Y-10803D2*X50886D1*X50791Y-10755*X50695Y-10279D2*X50791Y-10184D1*X50329Y-10755D2*X50377Y-10707D1*X50424Y-10612*X50377Y-10374D2*X50329Y-10327D1*X50186Y-10279*X49758*X50186D2*X50329Y-10231D1*X50377Y-10184D2*X50424Y-10089D1*X50377Y-9898D2*X50329Y-9850D1*X50186Y-9803*X49758*Y-10803*X47748D2*X47891D1*X48082Y-10660D2*Y-10612D1*X47701Y-10422D2*X47939Y-10469D1*X47558Y-10279D2*X47606Y-10374D1*Y-10184D2*X47748Y-10136D1*X47891*X48034Y-10184*X46768Y-10660D2*X46863Y-10755D1*X46720Y-10517D2*Y-10422D1*X46768Y-10279*X46863Y-10184*X46958Y-10136*X47101D2*X47196Y-10184D1*X47291Y-10279*Y-10803D2*Y-10136D1*X46434Y-9803D2*X46054Y-10803D1*X45673Y-9803*Y-10803*X44654Y-10136D2*X44797D1*X44463Y-10279D2*X44559Y-10184D1*X44106Y-10755D2*X44011Y-10803D1*X43868*X43773Y-10755D2*X43678Y-10660D1*X43630Y-10517*Y-10422D2*X43678Y-10279D1*X43773Y-10184*X43868Y-10136D2*X44011D1*X44106Y-10184*X43630Y-10422D2*X44202D1*X43269Y-10755D2*X43173Y-10803D1*X43030*X42935Y-10755*X42840Y-10660*X42792Y-10517*Y-10422D2*X42840Y-10279D1*X43269Y-10184D2*X43364Y-10279D1*X42583Y-10803D2*Y-9803D1*X42316Y-10660D2*X42364Y-10517D1*X42126Y-10803D2*X42221Y-10755D1*X41745Y-10422D2*X41793Y-10279D1*X41888Y-10184*X41093Y-10803D2*X41283D1*X41521Y-10660D2*Y-10517D1*X41331Y-10327D2*X41045Y-10231D1*X40950Y-10184*X40855Y-10041D2*Y-9946D1*X40950Y-9850D2*X41093Y-9803D1*X41283*X41426Y-9850*X41521Y-9946*X39665Y-10136D2*X39760Y-10184D1*X39522Y-10136D2*X39426Y-10184D1*X39284Y-10327*X38974Y-10755D2*X39069Y-10660D1*X38546D2*X38641Y-10755D1*X38974Y-10184D2*X39022Y-10231D1*X39069Y-10327*Y-10422*X38498*X38284Y-10660D2*X38189Y-10755D1*X38093Y-10803*X37951*X37760Y-10660D2*X37713Y-10517D1*Y-10422*X37951Y-10136D2*X38093D1*X38189Y-10184D2*X38236Y-10231D1*X38284Y-10327*X37479Y-10136D2*X37622D1*X37289Y-10279D2*X37384Y-10184D1*X37241Y-10803D2*Y-10136D1*X36775Y-10422D2*X37013D1*X36965Y-10660D2*X37013Y-10565D1*X36584Y-10803D2*X36775D1*X36394Y-10660D2*X36489Y-10755D1*X36299Y-10422D2*X36346Y-10565D1*X36584Y-9803D2*X36775D1*X36870Y-9850*X36965Y-9946*X37013Y-10041*X35032Y-11041D2*X35127Y-10850D1*X35175Y-10707D2*X35223Y-10469D1*X35127Y-9898D2*X35175Y-10041D1*X35223Y-10707D2*X35270Y-10469D1*Y-10279*X35223Y-10041*X35127Y-9850*X34523Y-10803D2*Y-9803D1*X34047Y-10469*X47139Y-1533D2*X47306D1*Y-1366*X47139*X47306Y-1033D2*Y-866D1*X46806D2*X46306D1*X46140Y-1033*X46306Y-1199*X45806D2*Y-1033D1*X45640Y-866*X45140Y-1033D2*X45306Y-866D1*X45140Y-1366D2*X45306Y-1533D1*X44473Y-1366D2*X44640Y-1533D1*Y-866D2*X44473D1*Y-700*X43474Y-1533D2*X43307Y-1366D1*Y-1033*X43474Y-866D2*X43807D1*X43974Y-1033*Y-1366D2*X43807Y-1533D1*X43474*X42307Y-533D2*X42974Y-1533D1*X60085Y-4536D2*X60180Y-4441D1*X59657D2*X59752Y-4536D1*X59609Y-4298D2*Y-4203D1*X59657Y-4060D2*X59752Y-3965D1*X59990Y-3917D2*X60085Y-3965D1*X60133Y-4012*X59609Y-4203D2*X60180D1*X59347Y-4107D2*X59299Y-3965D1*X59204Y-3917*X59061*X58823Y-4107D2*X58966Y-3965D1*X58823Y-4584D2*Y-3917D1*X58462Y-4536D2*X58557Y-4441D1*X58224Y-4584D2*X58128Y-4536D1*X58033Y-4441*X57985Y-4298D2*Y-4203D1*X58128Y-3965D2*X58224Y-3917D1*X57095Y-3584D2*X57524D1*X57714Y-3679D2*X57762Y-3774D1*Y-3917*X57714Y-4012*X57667Y-4060*X55519Y-4441D2*X55615Y-4536D1*X55519Y-4060D2*X55615Y-3965D1*X55258Y-4441D2*X55162Y-4536D1*X55067Y-4584*X54924*X54829Y-4536*X54734Y-4441*X54686Y-4203D2*X54734Y-4060D1*X54829Y-3965*X54924Y-3917D2*X55067D1*X55210Y-4012D2*X55258Y-4107D1*Y-4203*X54686*X54453Y-3917D2*X54596D1*X54262Y-4060D2*X54358Y-3965D1*X53948Y-4060D2*X53996Y-4203D1*Y-4298*X53853Y-4536D2*X53948Y-4441D1*X53758Y-4584D2*X53615D1*X53520Y-4536*X53425Y-4060D2*X53520Y-3965D1*X53163Y-4441D2*X53067Y-4536D1*X52972Y-4584*X52829*X52734Y-4536*X52639Y-4441*X52734Y-3965D2*X52829Y-3917D1*X52972*X53067Y-3965D2*X53163Y-4060D1*X51701Y-4441D2*X51796Y-4536D1*X51939Y-4584*X52320Y-4203D2*X52272Y-4155D1*X52177Y-4107*X51749Y-3917D2*X51701Y-3822D1*Y-3727*X51796Y-3631*X51939Y-3584*X52130D2*X52272Y-3631D1*X50682Y-3917D2*X50825D1*X50587Y-3965D2*X50492Y-4060D1*X50444Y-4203*X49802Y-4536D2*X49706Y-4441D1*X49659Y-4298*Y-4203D2*X49706Y-4060D1*X49802Y-3965*X49897Y-3917D2*X50040D1*X50135Y-3965*X50230Y-4107D2*Y-4203D1*X49659*X49016Y-4869D2*X49111Y-4774D1*X49492Y-3917D2*X49206Y-4584D1*X48921Y-3917*X48607Y-4441D2*X48511Y-4536D1*X48416Y-4584*X48273*X48178Y-4536*X48035Y-4298D2*X48083Y-4441D1*X48035Y-4203D2*X48083Y-4060D1*X48178Y-3965*X48273Y-3917*X48511Y-3965D2*X48607Y-4060D1*X47354Y-4584D2*X47926D1*X46345D2*X45679D1*X46155Y-4107*X46250Y-3965D2*X46298Y-3869D1*Y-3774D2*X46250Y-3679D1*X46202Y-3631*X46107Y-3584*X45774Y-3679D2*X45726Y-3774D1*Y-3822*X44212Y-4393D2*X44688Y-3917D1*X44212Y-4584D2*Y-3584D1*X43808Y-4584D2*X43665D1*X43570Y-4536*X43474Y-4441*X43427Y-4298D2*Y-4203D1*X43474Y-4060D2*X43570Y-3965D1*X43665Y-3917D2*X43808D1*X43203Y-4584D2*Y-3917D1*X43155Y-3584D2*X43203Y-3536D1*X43251Y-3584*X42798Y-4584D2*Y-4107D1*X42751Y-3965*X42655Y-3917*X41822Y-4584D2*Y-3584D1*X40399Y-3917D2*X40494Y-3631D1*X40446Y-3584*X40399Y-3917D2*X40446Y-3631D1*X40018Y-3584D2*X40066Y-3631D1*X39970Y-3917D2*X40018Y-3631D1*X39970D2*X40018Y-3584D1*X39475D2*X39332Y-3727D1*X39237Y-3774*X38347Y-4393D2*X38394Y-4488D1*X38442Y-4536*X38585Y-4584*X38728*X38966Y-4441D2*X39013Y-4298D1*Y-4203*X38966Y-4060*X38918Y-4012*X38680Y-3965D2*X38823D1*X38442Y-3584D2*X38966D1*X37742D2*X37837D1*X37980Y-3631*X38075Y-3774*X37980Y-4536D2*X38075Y-4393D1*X37742Y-4584D2*X37599Y-4536D1*X37504Y-4393*X37457Y-4012D2*X37504Y-3774D1*X37599Y-3631*X37742Y-3584*X37238Y-4536D2*X37190Y-4488D1*X37142Y-4536*X36538Y-3584D2*X36633D1*X36776Y-3631D2*X36871Y-3774D1*Y-4393D2*X36919Y-4155D1*X36633Y-4584D2*X36776Y-4536D1*X36538Y-4584D2*X36395Y-4536D1*X36300Y-4393*X36252Y-4155*Y-4012*X36300Y-3774*X36395Y-3631D2*X36538Y-3584D1*X34986Y-4822D2*X35081Y-4631D1*X35128Y-4488*X35176Y-4250*Y-4060*X35128Y-3822D2*X35081Y-3679D1*X34986Y-3489*X34890Y-4917D2*X34986Y-4822D1*X35176Y-4488D2*X35224Y-4250D1*Y-4060D2*X35176Y-3822D1*X35081Y-3631*X34890Y-3393D2*X34986Y-3489D1*X34395Y-3584D2*X34252Y-3727D1*X34157Y-3774*X63444Y-8407D2*X63492Y-8502D1*X63635Y-8550*X63777D2*X63920Y-8502D1*Y-8264D2*X63968Y-8360D1*X63587Y-8169D2*X63492Y-8122D1*X63444Y-8026*X63635Y-7884D2*X63777D1*X63920Y-7931*X63968Y-8026*X63178Y-8407D2*X63082Y-8502D1*X62987Y-8550*X62844*X62749Y-8502D2*X62654Y-8407D1*X62606Y-8264*Y-8169*X62654Y-8026D2*X62749Y-7931D1*X62844Y-7884*X62987D2*X63082Y-7931D1*X63178Y-8026*Y-8550D2*Y-7884D1*X62383Y-8550D2*Y-7884D1*X61730Y-8550D2*X62111Y-7550D1*X60202Y-8502D2*X60107Y-8550D1*X59964*X59869Y-8502*X59726Y-8264D2*Y-8169D1*X59774Y-8026D2*X59869Y-7931D1*X59964Y-7884*X60107D2*X60202Y-7931D1*X60297Y-8026*Y-8550D2*Y-7550D1*X59512Y-8407D2*X59417Y-8502D1*X59321Y-8550*X59178*X59083Y-8502*X58988Y-8407*X58940Y-8264*Y-8169D2*X58988Y-8026D1*X59083Y-7931*X59512Y-8169D2*Y-8074D1*X58607Y-8502D2*X58702Y-8550D1*X57631Y-8074D2*X57774Y-7931D1*X57417Y-8407D2*X57322Y-8502D1*X57226Y-8550*X57084*X56988Y-8502*X56893Y-8407*X56846Y-8264*Y-8169*X56893Y-8026D2*X56988Y-7931D1*X57226Y-7884D2*X57322Y-7931D1*X56846Y-8169D2*X57417D1*X56060Y-7550D2*X56727D1*X56393Y-8550D2*Y-7550D1*X55041Y-7884D2*X54946Y-7931D1*X54851Y-8026*X54803Y-8169*X54065Y-8407D2*X54160Y-8502D1*X54018Y-8264D2*Y-8169D1*X54065Y-8026*X54160Y-7931*X54256Y-7884D2*X54399D1*X54494Y-7931D2*X54541Y-7979D1*X54589Y-8074*Y-8169*X54018*X52575Y-7550D2*X52766D1*X52861Y-7598*X52956Y-7693*X53004Y-7788*X53051Y-7931*Y-8169*X53004Y-8312*X52766Y-8550D2*X52861Y-8502D1*X52575Y-8550D2*X52480Y-8502D1*X52385Y-8407*X52289Y-8169D2*X52337Y-8312D1*X52289Y-7931D2*X52337Y-7788D1*X52385Y-7693*X51242Y-8550D2*Y-8074D1*X51194Y-7931*X51099Y-7884*X50861Y-7931D2*X50956Y-7884D1*X50171Y-8550D2*X50314D1*X49933Y-8264D2*X49980Y-8407D1*X49933Y-8169D2*X49980Y-8026D1*X50171Y-7884D2*X50314D1*X50409Y-7931D2*X50457Y-7979D1*X49933Y-8169D2*X50504D1*X49385Y-8550D2*X49528D1*X49195Y-8407D2*X49290Y-8502D1*X49147Y-8264D2*Y-8169D1*X49290Y-7931D2*X49385Y-7884D1*X49623Y-7931D2*X49671Y-7979D1*X49719Y-8074*X48724Y-8026D2*X48819Y-7931D1*X48366Y-8502D2*X48271Y-8550D1*X48128*X48033Y-8502*X47938Y-8407D2*X47890Y-8264D1*Y-8169*X47938Y-8026*X48128Y-7884D2*X48271D1*X48366Y-7931*X47667Y-8407D2*Y-8264D1*X47571Y-8122D2*X47619Y-8169D1*X47476Y-8074D2*X47191Y-7979D1*X47095Y-7931*X47048Y-7884*X47095Y-7598D2*X47238Y-7550D1*X45724Y-8169D2*X46057Y-8550D1*X45534D2*Y-7550D1*X45324Y-8550D2*Y-7550D1*X45101Y-8550D2*Y-7884D1*X45053Y-7550D2*X45101Y-7598D1*X44067Y-8407D2*X44163Y-8502D1*X44305Y-8550D2*X44496D1*X44639Y-8502D2*X44734Y-8407D1*Y-8264*X44544Y-8074D2*X44639Y-8122D1*X44258Y-7979D2*X44163Y-7931D1*X44115Y-7884*X44067Y-7788D2*Y-7693D1*X44163Y-7598*X44305Y-7550*X42734Y-8550D2*X42877D1*X42496Y-8264D2*X42544Y-8407D1*X42496Y-8169D2*X42544Y-8026D1*X42639Y-7931D2*X42734Y-7884D1*X42877D2*X42972Y-7931D1*X43020Y-7979*X43068Y-8074*Y-8169*X42496*X41973Y-7884D2*X42306D1*X42258Y-8550D2*X42353D1*X42115Y-8360D2*Y-7550D1*X41701D2*X41749Y-7503D1*X41796Y-7550*X41344Y-8550D2*Y-8074D1*X41059Y-7884D2*X40963Y-7931D1*X40820Y-8074*X40382Y-8550D2*X40621Y-7550D1*X39906Y-8550D2*X40144Y-7550D1*X38616Y-8407D2*X38521Y-8502D1*X38426Y-8550*X38188Y-8502D2*X38283Y-8550D1*X38045Y-8264D2*X38092Y-8407D1*X38045Y-8169D2*X38092Y-8026D1*X38188Y-7931*X38283Y-7884*X38521Y-7931D2*X38616Y-8026D1*X37207Y-8264D2*Y-8169D1*X37255Y-8026*X37350Y-7931*X37445Y-7884D2*X37588D1*X37778Y-8550D2*Y-7550D1*X36212Y-8550D2*X36593Y-7550D1*X36974Y-8550*X34946Y-8788D2*X35041Y-8598D1*X35136Y-8217D2*Y-8026D1*X35088Y-7788*X34946Y-7455D2*X35041Y-7645D1*X34850Y-8883D2*X34946Y-8788D1*X35041Y-8645*X35136Y-8455*X35184Y-8217*X35136Y-7788D2*X35184Y-8026D1*X35041Y-7598D2*X34946Y-7455D1*X34850Y-7360*X34055Y-8502D2*X34198Y-8550D1*X34484Y-8502D2*X34579Y-8407D1*X34627Y-8264D2*Y-8169D1*X34531Y-7979D2*X34579Y-8026D1*X34293Y-7931D2*X34436D1*X76619Y-5998D2*X76786D1*X76286Y-6664D2*Y-6331D1*X75786Y-5998D2*X75453D1*X75286Y-6164*X75453Y-6664D2*X75786D1*X74787D2*X74953Y-6498D1*X74287Y-5998D2*X74787D1*X73787Y-6664D2*X73954Y-6498D1*Y-6164*X73787Y-5998*X72287Y-6498D2*Y-6164D1*X72954Y-6498D2*Y-6164D1*X71954Y-6664D2*X71454D1*X71288Y-6498*Y-6164*X71454Y-5998*X69622Y-6664D2*Y-6498D1*X69455*Y-6664*X68455D2*X69122D1*X67456Y-6498D2*X67622Y-6664D1*Y-5998D2*X67956D1*Y-6664D2*X68122Y-6498D1*X66789Y-6664D2*X66956D1*X66623*X65290Y-5998D2*Y-6498D1*X65123Y-6664*X64956Y-6498*X64790Y-6664*X61791Y-5665D2*X61957D1*Y-6664D2*X62124D1*X60791Y-6498D2*X60958Y-6331D1*X61458Y-6664D2*Y-6164D1*X60958Y-5998D2*X61291D1*X59958D2*X60125D1*Y-6664D2*X60291D1*X59958*X59458Y-5998D2*X59292D1*X59125Y-6164*X58958Y-6331*Y-6664*Y-5998*X57959Y-6331D2*X58625D1*Y-6164*X58459Y-5998*X58125*X57959Y-6498D2*Y-6164D1*X58125Y-6664D2*X58459D1*X57459D2*X57292Y-6498D1*Y-5998*X57126*X56126Y-6498D2*X56293Y-6664D1*X56626Y-5998D2*X56792Y-6164D1*X55793Y-6664D2*Y-6164D1*X55626Y-5998*X55460Y-6164*X55126Y-5998D2*X55293D1*X53127Y-6164D2*X53627Y-5665D1*Y-6664*X52461Y-6331D2*X52794Y-6664D1*X52627Y-6331D2*X52794Y-6164D1*Y-5831*X52627Y-5665*X52127*Y-6664*X51461Y-6164D2*X51128D1*Y-5665*X49461Y-6498D2*Y-5998D1*X49295*X49461D2*Y-5831D1*X48962Y-6664D2*Y-6164D1*X48795Y-5998*X48295Y-6664D2*Y-5998D1*X47462Y-6331D2*X47962D1*Y-6664D2*Y-6164D1*X47462Y-5998D2*X47795D1*X46462D2*X46629D1*Y-6664*X46796*X45629Y-5665D2*X45796D1*X45629Y-6664D2*X45963D1*X44630D2*X45130D1*X45296Y-6498*Y-6164*X45130Y-5998*X44630*X44130D2*X43963Y-6164D1*Y-6664*X43630Y-5998D2*X43797D1*X42630Y-6498D2*Y-6164D1*X42797Y-5998*X43130*X43297Y-6498D2*Y-6164D1*X41797Y-6664D2*X42131D1*Y-5665D2*X42297Y-5831D1*X39631Y-6498D2*X39798Y-6664D1*X40131D2*X40298Y-6498D1*Y-6331*X40131Y-6164D2*X39798D1*X39631Y-5998*Y-5831D2*X39798Y-5665D1*X39298Y-6664D2*Y-5665D1*X38632Y-6164D2*X39298D1*X37632Y-6498D2*X37799Y-6664D1*X37632Y-6164D2*X37799Y-5998D1*X38132*X38298Y-6164*Y-6498*X37799Y-6664D2*X38132D1*X36966Y-6331D2*X37299Y-6664D1*X36632Y-6331D2*X37132D1*X37299Y-5831D2*X37132Y-5665D1*X36632*Y-6664*X35133Y-5998D2*Y-6331D1*X34800Y-6664*X34466Y-5998D2*Y-5831D1*Y-6664D2*X33800D1*X34466Y-5998*Y-5831D2*X34300Y-5665D1*X33967*X33800Y-5831*X34800Y-5665D2*X35133Y-5998D1*X37299Y-5831D2*Y-6164D1*X37132Y-6331*X38132Y-6664D2*X38298Y-6498D1*X37632D2*Y-6164D1*X38632Y-5665D2*Y-6664D1*Y-6164*X39298D2*Y-5665D1*X40298Y-5831D2*X40131Y-5665D1*X39798*X39631Y-5998D2*Y-5831D1*X40131Y-6164D2*X40298Y-6331D1*X39798Y-6664D2*X40131D1*X42131Y-5665D2*X41797D1*X41631Y-5831*Y-6498*X41797Y-6664*X42131D2*X42297Y-6498D1*X42797Y-6664D2*X43130D1*X43297Y-6498*X43130Y-5998D2*X43297Y-6164D1*X42630Y-6498D2*X42797Y-6664D1*X43630D2*Y-5998D1*X43797D2*X43963Y-6164D1*X44130Y-5998D2*X44296Y-6164D1*Y-6664*X44630Y-6998D2*Y-5998D1*X45963Y-6664D2*X45796D1*Y-5665*X46462Y-6664D2*X46796D1*X47795Y-5998D2*X47962Y-6164D1*Y-6664D2*X47462D1*X47296Y-6498*X47462Y-6331*X48295Y-5998D2*X48795D1*X49295D2*X49628D1*X49461*Y-6498D2*X49628Y-6664D1*X51128Y-5665D2*X51794D1*X51128Y-6664D2*Y-6164D1*X52127Y-6331D2*X52627D1*X53127Y-6164D2*X53793D1*X55126Y-6664D2*Y-5998D1*X55293D2*X55460Y-6164D1*Y-6664*X56293Y-5998D2*X56626D1*X56792Y-6164D2*Y-6664D1*X56293*X56126Y-6498D2*X56293Y-6331D1*X56792*X57292Y-5998D2*Y-5831D1*X57126Y-5998D2*X57459D1*X57292*X57959Y-6498D2*X58125Y-6664D1*X57959Y-6164D2*X58125Y-5998D1*X60125Y-6664D2*Y-5998D1*X61291D2*X61458Y-6164D1*Y-6664D2*X60958D1*X60791Y-6498*X60958Y-6331D2*X61458D1*X61791Y-6664D2*X62124D1*X61957D2*Y-5665D1*X63624Y-6664D2*X64290Y-5998D1*X64623D2*Y-6498D1*X64790Y-6664*X66789D2*Y-5665D1*X66623Y-5831*X67622Y-6664D2*X67956D1*X68122Y-6498D2*Y-6164D1*X67956Y-5998*X67622D2*X67456Y-6164D1*Y-6498*X68455Y-5998D2*X69122D1*X68455Y-6664*X69455D2*X69622D1*X71454Y-5998D2*X71954D1*X72454Y-6664D2*X72787D1*X72954Y-6498*Y-6164D2*X72787Y-5998D1*X72454*X72287Y-6164*Y-6498D2*X72454Y-6664D1*X73287Y-6998D2*Y-5998D1*X73787*X73287Y-6664D2*X73787D1*X74287Y-6998D2*Y-5998D1*X74787D2*X74953Y-6164D1*Y-6498*X74287Y-6664D2*X74787D1*X75453D2*X75286Y-6498D1*Y-6164*X75786Y-5998D2*X75953Y-6164D1*Y-6331*X75286*X76286Y-6664D2*Y-5998D1*Y-6331D2*X76453Y-6164D1*X76619Y-5998*X34055Y-7550D2*X34579D1*X34293Y-7931*X34436D2*X34531Y-7979D1*X34579Y-8026D2*X34627Y-8169D1*X34579Y-8407D2*X34627Y-8264D1*X34484Y-8502D2*X34341Y-8550D1*X34198*X34055Y-8502D2*X34008Y-8455D1*X33960Y-8360*X35041Y-7598D2*X35136Y-7788D1*X35184Y-8217D2*Y-8026D1*X35041Y-7645D2*X35088Y-7788D1*X35136Y-8217D2*X35088Y-8455D1*X35041Y-8598*X36355Y-8217D2*X36831D1*X37778Y-8026D2*X37683Y-7931D1*X37588Y-7884*X37350Y-7931D2*X37445Y-7884D1*X37207Y-8264D2*X37255Y-8407D1*X37350Y-8502*X37445Y-8550*X37588*X37683Y-8502*X37778Y-8407*X38616Y-8550D2*Y-7550D1*X38521Y-7931D2*X38426Y-7884D1*X38283*X38045Y-8264D2*Y-8169D1*X38092Y-8407D2*X38188Y-8502D1*X38283Y-8550D2*X38426D1*X39668Y-7550D2*X39906Y-8550D1*X40144Y-7550D2*X40382Y-8550D1*X40820D2*Y-7550D1*X41059Y-7884D2*X41201D1*X41297Y-7931*X41344Y-8074*X41701Y-7550D2*X41749Y-7598D1*X41796Y-7550*X41749Y-8550D2*Y-7884D1*X42115Y-8360D2*X42163Y-8502D1*X42258Y-8550*X42734Y-7884D2*X42877D1*X42544Y-8026D2*X42639Y-7931D1*X42496Y-8264D2*Y-8169D1*X42544Y-8407D2*X42639Y-8502D1*X42734Y-8550*X42877D2*X42972Y-8502D1*X43068Y-8407*X44734Y-7693D2*X44639Y-7598D1*X44496Y-7550*X44305*X44067Y-7788D2*X44115Y-7884D1*X44258Y-7979D2*X44544Y-8074D1*X44639Y-8122D2*X44686Y-8169D1*X44734Y-8264*X44496Y-8550D2*X44639Y-8502D1*X44163D2*X44305Y-8550D1*X45101Y-7598D2*X45148Y-7550D1*X45101Y-7503*X45053Y-7550*X45534Y-8360D2*X46010Y-7884D1*X47667Y-7693D2*X47571Y-7598D1*X47429Y-7550*X47238*X47095Y-7598D2*X47000Y-7693D1*Y-7788*X47048Y-7884*X47476Y-8074D2*X47571Y-8122D1*X47619Y-8169D2*X47667Y-8264D1*Y-8407D2*X47571Y-8502D1*X47429Y-8550*X47238*X47095Y-8502*X47000Y-8407*X48366Y-7931D2*X48462Y-8026D1*X48128Y-7884D2*X48033Y-7931D1*X47938Y-8026*Y-8407D2*X48033Y-8502D1*X48366D2*X48462Y-8407D1*X48676Y-8550D2*Y-7884D1*Y-8169D2*X48724Y-8026D1*X48819Y-7931D2*X48914Y-7884D1*X49057*X49147Y-8169D2*X49719D1*Y-8074*X49623Y-7931D2*X49528Y-7884D1*X49385*X49290Y-7931D2*X49195Y-8026D1*X49147Y-8169*Y-8264D2*X49195Y-8407D1*X49290Y-8502D2*X49385Y-8550D1*X49528D2*X49623Y-8502D1*X49719Y-8407*X50504Y-8169D2*Y-8074D1*X50457Y-7979*X50314Y-7884D2*X50409Y-7931D1*X50171Y-7884D2*X50076Y-7931D1*X49980Y-8026*X49933Y-8264D2*Y-8169D1*X49980Y-8407D2*X50076Y-8502D1*X50171Y-8550*X50314D2*X50409Y-8502D1*X50504Y-8407*X50718Y-8550D2*Y-7884D1*Y-8074D2*X50861Y-7931D1*X50956Y-7884D2*X51099D1*X52575Y-7550D2*X52480Y-7598D1*X52385Y-7693*X52289Y-8169D2*Y-7931D1*X52337Y-8312D2*X52385Y-8407D1*X52575Y-8550D2*X52766D1*X52861Y-8502D2*X52956Y-8407D1*X53004Y-8312*X53284Y-7884D2*X53570Y-8550D1*X53856Y-7884*X54399D2*X54494Y-7931D1*X54160D2*X54256Y-7884D1*X54018Y-8264D2*X54065Y-8407D1*X54160Y-8502D2*X54256Y-8550D1*X54399*X54494Y-8502*X54589Y-8407*X54803Y-8550D2*Y-7884D1*X55041D2*X55184D1*X57417Y-8169D2*Y-8074D1*X57369Y-7979*X57322Y-7931*X57226Y-7884D2*X57084D1*X56988Y-7931*X56846Y-8169D2*X56893Y-8026D1*X57631Y-8550D2*Y-7884D1*X57774Y-7931D2*X57869Y-7884D1*X58012*X58107Y-7931*X58155Y-8074*Y-8550*X58560Y-7550D2*Y-8360D1*X58607Y-8502*X58702Y-8550D2*X58798D1*X58417Y-7884D2*X58750D1*X58940Y-8169D2*X59512D1*Y-8074D2*X59464Y-7979D1*X59417Y-7931*X59321Y-7884*X59178*X59083Y-7931*X58940Y-8264D2*Y-8169D1*X59964Y-7884D2*X60107D1*X59726Y-8169D2*X59774Y-8026D1*X59726Y-8264D2*X59774Y-8407D1*X59869Y-8502*X60202D2*X60297Y-8407D1*X61349Y-7550D2*X61730Y-8550D1*X62335Y-7550D2*X62383Y-7598D1*X62430Y-7550*X62383Y-7503*X62335Y-7550*X62844Y-7884D2*X62987D1*X62606Y-8169D2*X62654Y-8026D1*X62749Y-8502D2*X62844Y-8550D1*X63635Y-7884D2*X63492Y-7931D1*X63444Y-8026*X63587Y-8169D2*X63825Y-8217D1*X63920Y-8264*X63968Y-8360D2*Y-8407D1*X63920Y-8502*X63635Y-8550D2*X63777D1*X34395Y-4584D2*Y-3584D1*X34986Y-3489D2*X35081Y-3631D1*X35224Y-4250D2*Y-4060D1*X35176Y-4488D2*X35081Y-4679D1*X34986Y-4822*X35128Y-3822D2*X35176Y-4060D1*X36300Y-3774D2*X36395Y-3631D1*X36538Y-4584D2*X36633D1*X36776Y-4536D2*X36871Y-4393D1*X36919Y-4155D2*Y-4012D1*X36871Y-3774*X36633Y-3584D2*X36776Y-3631D1*X37142Y-4536D2*X37190Y-4584D1*X37238Y-4536*X37457Y-4012D2*Y-4155D1*X37504Y-4393*X37742Y-4584D2*X37837D1*X37980Y-4536*X38075Y-4393D2*X38123Y-4155D1*Y-4012*X38075Y-3774*X38680Y-3965D2*X38966Y-3584D1*X38823Y-3965D2*X38918Y-4012D1*X38966Y-4441D2*X38871Y-4536D1*X38728Y-4584*X39475D2*Y-3584D1*X39970Y-3631D2*Y-3917D1*X40066Y-3631*X40446Y-3584D2*X40399Y-3631D1*Y-3917*X41489Y-3584D2*X42156D1*X42275Y-4584D2*Y-3584D1*Y-4107D2*X42417Y-3965D1*X42513Y-3917*X42655*X43155Y-3584D2*X43203Y-3631D1*X43251Y-3584*X43998Y-4060D2*X43903Y-3965D1*X43808Y-3917*X43570Y-3965D2*X43665Y-3917D1*X43427Y-4203D2*X43474Y-4060D1*X43427Y-4298D2*X43474Y-4441D1*X43808Y-4584D2*X43903Y-4536D1*X43998Y-4441*X44403Y-4203D2*X44736Y-4584D1*X45774Y-3679D2*X45821Y-3631D1*X45917Y-3584*X46107*X46298Y-3869D2*Y-3774D1*X46155Y-4107D2*X46250Y-3965D1*X47354Y-4584D2*Y-3584D1*X48607Y-4584D2*Y-3917D1*X48511Y-3965D2*X48416Y-3917D1*X48273*X48035Y-4298D2*Y-4203D1*X48083Y-4441D2*X48178Y-4536D1*X49111Y-4774D2*X49206Y-4584D1*X49016Y-4869D2*X48921Y-4917D1*X48873*X50230Y-4107D2*X50182Y-4012D1*X50135Y-3965*X49802D2*X49897Y-3917D1*X49659Y-4298D2*Y-4203D1*X49802Y-4536D2*X49897Y-4584D1*X50040*X50135Y-4536*X50230Y-4441*X50444Y-4584D2*Y-3917D1*X50587Y-3965D2*X50682Y-3917D1*X52272Y-3631D2*X52368Y-3727D1*X51939Y-3584D2*X52130D1*X51749Y-3917D2*X51796Y-3965D1*X51892Y-4012*X52177Y-4107*X52320Y-4203D2*X52368Y-4298D1*Y-4441*X52272Y-4536*X52130Y-4584*X51939*X52972Y-3917D2*X53067Y-3965D1*X52734D2*X52639Y-4060D1*X52591Y-4203*Y-4298*X52639Y-4441*X53520Y-3965D2*X53615Y-3917D1*X53425Y-4060D2*X53377Y-4203D1*Y-4298*X53425Y-4441*X53520Y-4536*X53758Y-4584D2*X53853Y-4536D1*X53948Y-4441D2*X53996Y-4298D1*X53948Y-4060D2*X53853Y-3965D1*X53758Y-3917*X53615*X54215Y-4584D2*Y-3917D1*Y-4203D2*X54262Y-4060D1*X54358Y-3965D2*X54453Y-3917D1*X55210Y-4012D2*X55162Y-3965D1*X55067Y-3917*X54829Y-3965D2*X54924Y-3917D1*X54686Y-4203D2*Y-4298D1*X54734Y-4441*X56043Y-4584D2*Y-3584D1*Y-4060D2*X55948Y-3965D1*X55853Y-3917*X55710*X55615Y-3965*X55519Y-4060D2*X55472Y-4203D1*Y-4298*X55519Y-4441*X55615Y-4536D2*X55710Y-4584D1*X55853*X55948Y-4536*X56043Y-4441*X57095Y-4107D2*X57524D1*X57667Y-4060*X57714Y-3679D2*X57667Y-3631D1*X57524Y-3584*X57095Y-4584D2*Y-3584D1*X58557Y-4584D2*Y-3917D1*Y-4060D2*X58462Y-3965D1*X58366Y-3917*X58224*X58128Y-3965D2*X58033Y-4060D1*X57985Y-4203*Y-4298D2*X58033Y-4441D1*X58224Y-4584D2*X58366D1*X58462Y-4536*X58966Y-3965D2*X59061Y-3917D1*X59347Y-4584D2*Y-4107D1*X60180Y-4203D2*Y-4107D1*X60133Y-4012*X59990Y-3917D2*X59847D1*X59752Y-3965*X59609Y-4203D2*X59657Y-4060D1*X59609Y-4298D2*X59657Y-4441D1*X59752Y-4536D2*X59847Y-4584D1*X59990*X60085Y-4536*X60395Y-4584D2*Y-3584D1*X42307Y-1533D2*Y-533D1*X42974Y-1533D2*Y-533D1*X43974Y-1366D2*Y-1033D1*X43307D2*X43474Y-866D1*X44473D2*X44307D1*X44640*X44473Y-1366D2*Y-866D1*X45306Y-1533D2*X45640D1*X45140Y-1366D2*Y-1033D1*X45306Y-866D2*X45640D1*X45140Y-1199D2*X45806D1*X46140Y-1533D2*X46639D1*X46806Y-1366*X46639Y-1199*X46306*X47139Y-866D2*X47306D1*Y-1033D2*X47139D1*Y-866*Y-1533D2*Y-1366D1*X34047Y-10469D2*X34761D1*X34937Y-9612D2*X35032Y-9708D1*X35127Y-9850*X35223Y-10707D2*X35127Y-10898D1*X35032Y-11041*X34937Y-11136*X35032Y-9708D2*X35127Y-9898D1*X35175Y-10041D2*X35223Y-10279D1*Y-10469*X35127Y-10850D2*X35175Y-10707D1*X36584Y-9803D2*X36489Y-9850D1*X36394Y-9946*X36346Y-10041*X36299Y-10184*Y-10422*X36346Y-10565D2*X36394Y-10660D1*X36489Y-10755D2*X36584Y-10803D1*X36775D2*X36870Y-10755D1*X36965Y-10660*X37013Y-10565D2*Y-10422D1*X37241D2*X37289Y-10279D1*X37384Y-10184D2*X37479Y-10136D1*X37713Y-10422D2*X38284D1*Y-10327*X38093Y-10136D2*X38189Y-10184D1*X37951Y-10136D2*X37855Y-10184D1*X37760Y-10279*X37713Y-10422*X37760Y-10660D2*X37855Y-10755D1*X37951Y-10803*X38974Y-10184D2*X38879Y-10136D1*X38736*X38641Y-10184*X38546Y-10279*X38498Y-10422*Y-10517*X38546Y-10660*X38641Y-10755D2*X38736Y-10803D1*X38879*X38974Y-10755*X39284Y-10803D2*Y-10136D1*X39522D2*X39665D1*X39760Y-10184D2*X39807Y-10327D1*Y-10803*X40855Y-9946D2*X40950Y-9850D1*X40855Y-10041D2*X40902Y-10136D1*X40950Y-10184*X41331Y-10327D2*X41426Y-10374D1*X41474Y-10422*X41521Y-10517*Y-10660D2*X41426Y-10755D1*X41283Y-10803*X41093D2*X40950Y-10755D1*X40855Y-10660*X41888Y-10184D2*X41983Y-10136D1*X41745Y-10422D2*Y-10517D1*X41793Y-10660*X41888Y-10755*X41983Y-10803*X42126*X42221Y-10755D2*X42316Y-10660D1*X42364Y-10517D2*Y-10422D1*X42316Y-10279*X42221Y-10184*X42126Y-10136*X41983*X43364Y-10803D2*Y-9803D1*X43269Y-10184D2*X43173Y-10136D1*X43030*X42935Y-10184*X42840Y-10279*X42792Y-10517D2*Y-10422D1*X43269Y-10755D2*X43364Y-10660D1*X44202Y-10422D2*Y-10327D1*X44154Y-10231*X44106Y-10184*X43773D2*X43868Y-10136D1*X43630Y-10517D2*Y-10422D1*X43773Y-10755D2*X43868Y-10803D1*X44106Y-10755D2*X44202Y-10660D1*X44416Y-10803D2*Y-10136D1*Y-10422D2*X44463Y-10279D1*X44559Y-10184D2*X44654Y-10136D1*X46434Y-10803D2*Y-9803D1*X46958Y-10136D2*X47101D1*X46720Y-10517D2*X46768Y-10660D1*X46863Y-10755D2*X46958Y-10803D1*X47101*X47196Y-10755*X47291Y-10660*X48034Y-10184D2*X48082Y-10279D1*X47558D2*X47606Y-10184D1*Y-10374D2*X47701Y-10422D1*X47939Y-10469D2*X48034Y-10517D1*X48082Y-10612*Y-10660D2*X48034Y-10755D1*X47891Y-10803*X47748D2*X47606Y-10755D1*X47558Y-10660*X48291Y-10803D2*Y-9803D1*Y-10612D2*X48767Y-10136D1*X48482Y-10422D2*X48815Y-10803D1*X50377Y-9898D2*X50424Y-9993D1*Y-10089*X50329Y-10231D2*X50377Y-10184D1*Y-10374D2*X50424Y-10469D1*Y-10612*X50329Y-10755D2*X50186Y-10803D1*X49758*X50791Y-10184D2*X50886Y-10136D1*X50695Y-10279D2*X50648Y-10422D1*Y-10517*X50695Y-10660*X50791Y-10755*X51029Y-10803D2*X51124Y-10755D1*X51219Y-10660*X51267Y-10517*X51124Y-10184D2*X51219Y-10279D1*X50886Y-10136D2*X51029D1*X51676Y-10755D2*X51771Y-10803D1*X51867*X53676Y-9850D2*X53581Y-9946D1*Y-10041*X53628Y-10136D2*X53676Y-10184D1*X53771Y-10231*X54057Y-10327D2*X54152Y-10374D1*X54199Y-10422*X54247Y-10660D2*Y-10517D1*X54009Y-10803D2*X54152Y-10755D1*X53819Y-10803D2*X53676Y-10755D1*X53581Y-10660*X54566Y-9803D2*X54614Y-9850D1*X54661Y-9803*X54566D2*X54614Y-9755D1*X55409Y-10803D2*Y-9803D1*Y-10279D2*X55314Y-10184D1*X55218Y-10136*X54837Y-10517D2*Y-10422D1*X55075Y-10803D2*X55218D1*X55314Y-10755*X55409Y-10660*X56247Y-10422D2*Y-10327D1*X56056Y-10136D2*X56151Y-10184D1*X55723Y-10279D2*X55818Y-10184D1*Y-10755D2*X55913Y-10803D1*X56151Y-10755D2*X56247Y-10660D1*X56509Y-10184D2*X56651Y-10136D1*X56461Y-10279D2*X56509Y-10374D1*X56842Y-10469D2*X56937Y-10517D1*X56985Y-10612*X56651Y-10803D2*X56794D1*X56461Y-10660D2*X56509Y-10755D1*X12395Y-1550D2*X12995Y-1750D1*X12395Y-1950*X2820D2*X2220Y-1750D1*X2820Y-1550*X13145Y2220D2*X13810D1*X13710Y9065D2*Y12110D1*X13510Y11510*X13710Y12110D2*X13910Y11510D1*X101460Y-2560D2*Y-125D1*X0Y-2560D2*Y-125D1*Y-2460D2*X48211D1*X100860Y-2260D2*X101460Y-2460D1*X100860Y-2660*X0Y-2460D2*X600Y-2660D1*X-2100Y63773D2*X-120D1*X-2000Y34036D2*Y63773D1*X-2200Y63173*X-2000Y0D2*X-1800Y600D1*X79845Y62663D2*Y62684D1*X79844Y62705*X79842Y62726*X79839Y62747*X79836Y62767*X79832Y62788*X79827Y62808*X79822Y62828*X79816Y62848*X79809Y62868*X79801Y62888*X79793Y62907*X79784Y62926*X79775Y62945*X79765Y62963*X79754Y62981*X79742Y62999*X79730Y63016*X79718Y63032*X79705Y63049*X79691Y63064*X79677Y63080*X79662Y63095*X79646Y63109*X79631Y63123*X79614Y63136*X79598Y63148*X79581Y63160*X79563Y63172*X79545Y63183*X79527Y63193*X79508Y63202*X79489Y63211*X79470Y63219*X79450Y63227*X79430Y63234*X79410Y63240*X79390Y63245*X79370Y63250*X79349Y63254*X79329Y63257*X79308Y63260*X79287Y63262*X79266Y63263*X79245*X79224*X79203Y63262*X79182Y63260*X79161Y63257*X79141Y63254*X79120Y63250*X79100Y63245*X79080Y63240*X79060Y63234*X79040Y63227*X79020Y63219*X79001Y63211*X78982Y63202*X78963Y63193*X78945Y63183*X78927Y63172*X78909Y63160*X78892Y63148*X78876Y63136*X78859Y63123*X78844Y63109*X78828Y63095*X78813Y63080*X78799Y63064*X78785Y63049*X78772Y63032*X78760Y63016*X78748Y62999*X78736Y62981*X78725Y62963*X78715Y62945*X78706Y62926*X78697Y62907*X78689Y62888*X78681Y62868*X78674Y62848*X78668Y62828*X78663Y62808*X78658Y62788*X78654Y62767*X78651Y62747*X78648Y62726*X78646Y62705*X78645Y62684*Y62663*Y62642*X78646Y62621*X78648Y62600*X78651Y62579*X78654Y62559*X78658Y62538*X78663Y62518*X78668Y62498*X78674Y62478*X78681Y62458*X78689Y62438*X78697Y62419*X78706Y62400*X78715Y62381*X78725Y62363*X78736Y62345*X78748Y62327*X78760Y62310*X78772Y62294*X78785Y62277*X78799Y62262*X78813Y62246*X78828Y62231*X78844Y62217*X78859Y62203*X78876Y62190*X78892Y62178*X78909Y62166*X78927Y62154*X78945Y62143*X78963Y62133*X78982Y62124*X79001Y62115*X79020Y62107*X79040Y62099*X79060Y62092*X79080Y62086*X79100Y62081*X79120Y62076*X79141Y62072*X79161Y62069*X79182Y62066*X79203Y62064*X79224Y62063*X79245*X79266*X79287Y62064*X79308Y62066*X79329Y62069*X79349Y62072*X79370Y62076*X79390Y62081*X79410Y62086*X79430Y62092*X79450Y62099*X79470Y62107*X79489Y62115*X79508Y62124*X79527Y62133*X79545Y62143*X79563Y62154*X79581Y62166*X79598Y62178*X79614Y62190*X79631Y62203*X79646Y62217*X79662Y62231*X79677Y62246*X79691Y62262*X79705Y62277*X79718Y62294*X79730Y62310*X79742Y62327*X79754Y62345*X79765Y62363*X79775Y62381*X79784Y62400*X79793Y62419*X79801Y62438*X79809Y62458*X79816Y62478*X79822Y62498*X79827Y62518*X79832Y62538*X79836Y62559*X79839Y62579*X79842Y62600*X79844Y62621*X79845Y62642*Y62663*X100958Y62660D2*Y62681D1*X100957Y62702*X100955Y62723*X100952Y62744*X100949Y62764*X100945Y62785*X100940Y62805*X100935Y62825*X100929Y62845*X100922Y62865*X100914Y62885*X100906Y62904*X100897Y62923*X100888Y62942*X100878Y62960*X100867Y62978*X100855Y62996*X100843Y63013*X100831Y63029*X100818Y63046*X100804Y63061*X100790Y63077*X100775Y63092*X100759Y63106*X100744Y63120*X100727Y63133*X100711Y63145*X100694Y63157*X100676Y63169*X100658Y63180*X100640Y63190*X100621Y63199*X100602Y63208*X100583Y63216*X100563Y63224*X100543Y63231*X100523Y63237*X100503Y63242*X100483Y63247*X100462Y63251*X100442Y63254*X100421Y63257*X100400Y63259*X100379Y63260*X100358*X100337*X100316Y63259*X100295Y63257*X100274Y63254*X100254Y63251*X100233Y63247*X100213Y63242*X100193Y63237*X100173Y63231*X100153Y63224*X100133Y63216*X100114Y63208*X100095Y63199*X100076Y63190*X100058Y63180*X100040Y63169*X100022Y63157*X100005Y63145*X99989Y63133*X99972Y63120*X99957Y63106*X99941Y63092*X99926Y63077*X99912Y63061*X99898Y63046*X99885Y63029*X99873Y63013*X99861Y62996*X99849Y62978*X99838Y62960*X99828Y62942*X99819Y62923*X99810Y62904*X99802Y62885*X99794Y62865*X99787Y62845*X99781Y62825*X99776Y62805*X99771Y62785*X99767Y62764*X99764Y62744*X99761Y62723*X99759Y62702*X99758Y62681*Y62660*Y62639*X99759Y62618*X99761Y62597*X99764Y62576*X99767Y62556*X99771Y62535*X99776Y62515*X99781Y62495*X99787Y62475*X99794Y62455*X99802Y62435*X99810Y62416*X99819Y62397*X99828Y62378*X99838Y62360*X99849Y62342*X99861Y62324*X99873Y62307*X99885Y62291*X99898Y62274*X99912Y62259*X99926Y62243*X99941Y62228*X99957Y62214*X99972Y62200*X99989Y62187*X100005Y62175*X100022Y62163*X100040Y62151*X100058Y62140*X100076Y62130*X100095Y62121*X100114Y62112*X100133Y62104*X100153Y62096*X100173Y62089*X100193Y62083*X100213Y62078*X100233Y62073*X100254Y62069*X100274Y62066*X100295Y62063*X100316Y62061*X100337Y62060*X100358*X100379*X100400Y62061*X100421Y62063*X100442Y62066*X100462Y62069*X100483Y62073*X100503Y62078*X100523Y62083*X100543Y62089*X100563Y62096*X100583Y62104*X100602Y62112*X100621Y62121*X100640Y62130*X100658Y62140*X100676Y62151*X100694Y62163*X100711Y62175*X100727Y62187*X100744Y62200*X100759Y62214*X100775Y62228*X100790Y62243*X100804Y62259*X100818Y62274*X100831Y62291*X100843Y62307*X100855Y62324*X100867Y62342*X100878Y62360*X100888Y62378*X100897Y62397*X100906Y62416*X100914Y62435*X100922Y62455*X100929Y62475*X100935Y62495*X100940Y62515*X100945Y62535*X100949Y62556*X100952Y62576*X100955Y62597*X100957Y62618*X100958Y62639*Y62660*X100950Y1110D2*Y1131D1*X100949Y1152*X100947Y1173*X100944Y1194*X100941Y1214*X100937Y1235*X100932Y1255*X100927Y1275*X100921Y1295*X100914Y1315*X100906Y1335*X100898Y1354*X100889Y1373*X100880Y1392*X100870Y1410*X100859Y1428*X100847Y1446*X100835Y1463*X100823Y1479*X100810Y1496*X100796Y1511*X100782Y1527*X100767Y1542*X100751Y1556*X100736Y1570*X100719Y1583*X100703Y1595*X100686Y1607*X100668Y1619*X100650Y1630*X100632Y1640*X100613Y1649*X100594Y1658*X100575Y1666*X100555Y1674*X100535Y1681*X100515Y1687*X100495Y1692*X100475Y1697*X100454Y1701*X100434Y1704*X100413Y1707*X100392Y1709*X100371Y1710*X100350*X100329*X100308Y1709*X100287Y1707*X100266Y1704*X100246Y1701*X100225Y1697*X100205Y1692*X100185Y1687*X100165Y1681*X100145Y1674*X100125Y1666*X100106Y1658*X100087Y1649*X100068Y1640*X100050Y1630*X100032Y1619*X100014Y1607*X99997Y1595*X99981Y1583*X99964Y1570*X99949Y1556*X99933Y1542*X99918Y1527*X99904Y1511*X99890Y1496*X99877Y1479*X99865Y1463*X99853Y1446*X99841Y1428*X99830Y1410*X99820Y1392*X99811Y1373*X99802Y1354*X99794Y1335*X99786Y1315*X99779Y1295*X99773Y1275*X99768Y1255*X99763Y1235*X99759Y1214*X99756Y1194*X99753Y1173*X99751Y1152*X99750Y1131*Y1110*Y1089*X99751Y1068*X99753Y1047*X99756Y1026*X99759Y1006*X99763Y985*X99768Y965*X99773Y945*X99779Y925*X99786Y905*X99794Y885*X99802Y866*X99811Y847*X99820Y828*X99830Y810*X99841Y792*X99853Y774*X99865Y757*X99877Y741*X99890Y724*X99904Y709*X99918Y693*X99933Y678*X99949Y664*X99964Y650*X99981Y637*X99997Y625*X100014Y613*X100032Y601*X100050Y590*X100068Y580*X100087Y571*X100106Y562*X100125Y554*X100145Y546*X100165Y539*X100185Y533*X100205Y528*X100225Y523*X100246Y519*X100266Y516*X100287Y513*X100308Y511*X100329Y510*X100350*X100371*X100392Y511*X100413Y513*X100434Y516*X100454Y519*X100475Y523*X100495Y528*X100515Y533*X100535Y539*X100555Y546*X100575Y554*X100594Y562*X100613Y571*X100632Y580*X100650Y590*X100668Y601*X100686Y613*X100703Y625*X100719Y637*X100736Y650*X100751Y664*X100767Y678*X100782Y693*X100796Y709*X100810Y724*X100823Y741*X100835Y757*X100847Y774*X100859Y792*X100870Y810*X100880Y828*X100889Y847*X100898Y866*X100906Y885*X100914Y905*X100921Y925*X100927Y945*X100932Y965*X100937Y985*X100941Y1006*X100944Y1026*X100947Y1047*X100949Y1068*X100950Y1089*Y1110*X12820D2*Y1131D1*X12819Y1152*X12817Y1173*X12814Y1194*X12811Y1214*X12807Y1235*X12802Y1255*X12797Y1275*X12791Y1295*X12784Y1315*X12776Y1335*X12768Y1354*X12759Y1373*X12750Y1392*X12740Y1410*X12729Y1428*X12717Y1446*X12705Y1463*X12693Y1479*X12680Y1496*X12666Y1511*X12652Y1527*X12637Y1542*X12621Y1556*X12606Y1570*X12589Y1583*X12573Y1595*X12556Y1607*X12538Y1619*X12520Y1630*X12502Y1640*X12483Y1649*X12464Y1658*X12445Y1666*X12425Y1674*X12405Y1681*X12385Y1687*X12365Y1692*X12345Y1697*X12324Y1701*X12304Y1704*X12283Y1707*X12262Y1709*X12241Y1710*X12220*X12199*X12178Y1709*X12157Y1707*X12136Y1704*X12116Y1701*X12095Y1697*X12075Y1692*X12055Y1687*X12035Y1681*X12015Y1674*X11995Y1666*X11976Y1658*X11957Y1649*X11938Y1640*X11920Y1630*X11902Y1619*X11884Y1607*X11867Y1595*X11851Y1583*X11834Y1570*X11819Y1556*X11803Y1542*X11788Y1527*X11774Y1511*X11760Y1496*X11747Y1479*X11735Y1463*X11723Y1446*X11711Y1428*X11700Y1410*X11690Y1392*X11681Y1373*X11672Y1354*X11664Y1335*X11656Y1315*X11649Y1295*X11643Y1275*X11638Y1255*X11633Y1235*X11629Y1214*X11626Y1194*X11623Y1173*X11621Y1152*X11620Y1131*Y1110*Y1089*X11621Y1068*X11623Y1047*X11626Y1026*X11629Y1006*X11633Y985*X11638Y965*X11643Y945*X11649Y925*X11656Y905*X11664Y885*X11672Y866*X11681Y847*X11690Y828*X11700Y810*X11711Y792*X11723Y774*X11735Y757*X11747Y741*X11760Y724*X11774Y709*X11788Y693*X11803Y678*X11819Y664*X11834Y650*X11851Y637*X11867Y625*X11884Y613*X11902Y601*X11920Y590*X11938Y580*X11957Y571*X11976Y562*X11995Y554*X12015Y546*X12035Y539*X12055Y533*X12075Y528*X12095Y523*X12116Y519*X12136Y516*X12157Y513*X12178Y511*X12199Y510*X12220*X12241*X12262Y511*X12283Y513*X12304Y516*X12324Y519*X12345Y523*X12365Y528*X12385Y533*X12405Y539*X12425Y546*X12445Y554*X12464Y562*X12483Y571*X12502Y580*X12520Y590*X12538Y601*X12556Y613*X12573Y625*X12589Y637*X12606Y650*X12621Y664*X12637Y678*X12652Y693*X12666Y709*X12680Y724*X12693Y741*X12705Y757*X12717Y774*X12729Y792*X12740Y810*X12750Y828*X12759Y847*X12768Y866*X12776Y885*X12784Y905*X12791Y925*X12797Y945*X12802Y965*X12807Y985*X12811Y1006*X12814Y1026*X12817Y1047*X12819Y1068*X12820Y1089*Y1110*X79840D2*Y1131D1*X79839Y1152*X79837Y1173*X79834Y1194*X79831Y1214*X79827Y1235*X79822Y1255*X79817Y1275*X79811Y1295*X79804Y1315*X79796Y1335*X79788Y1354*X79779Y1373*X79770Y1392*X79760Y1410*X79749Y1428*X79737Y1446*X79725Y1463*X79713Y1479*X79700Y1496*X79686Y1511*X79672Y1527*X79657Y1542*X79641Y1556*X79626Y1570*X79609Y1583*X79593Y1595*X79576Y1607*X79558Y1619*X79540Y1630*X79522Y1640*X79503Y1649*X79484Y1658*X79465Y1666*X79445Y1674*X79425Y1681*X79405Y1687*X79385Y1692*X79365Y1697*X79344Y1701*X79324Y1704*X79303Y1707*X79282Y1709*X79261Y1710*X79240*X79219*X79198Y1709*X79177Y1707*X79156Y1704*X79136Y1701*X79115Y1697*X79095Y1692*X79075Y1687*X79055Y1681*X79035Y1674*X79015Y1666*X78996Y1658*X78977Y1649*X78958Y1640*X78940Y1630*X78922Y1619*X78904Y1607*X78887Y1595*X78871Y1583*X78854Y1570*X78839Y1556*X78823Y1542*X78808Y1527*X78794Y1511*X78780Y1496*X78767Y1479*X78755Y1463*X78743Y1446*X78731Y1428*X78720Y1410*X78710Y1392*X78701Y1373*X78692Y1354*X78684Y1335*X78676Y1315*X78669Y1295*X78663Y1275*X78658Y1255*X78653Y1235*X78649Y1214*X78646Y1194*X78643Y1173*X78641Y1152*X78640Y1131*Y1110*Y1089*X78641Y1068*X78643Y1047*X78646Y1026*X78649Y1006*X78653Y985*X78658Y965*X78663Y945*X78669Y925*X78676Y905*X78684Y885*X78692Y866*X78701Y847*X78710Y828*X78720Y810*X78731Y792*X78743Y774*X78755Y757*X78767Y741*X78780Y724*X78794Y709*X78808Y693*X78823Y678*X78839Y664*X78854Y650*X78871Y637*X78887Y625*X78904Y613*X78922Y601*X78940Y590*X78958Y580*X78977Y571*X78996Y562*X79015Y554*X79035Y546*X79055Y539*X79075Y533*X79095Y528*X79115Y523*X79136Y519*X79156Y516*X79177Y513*X79198Y511*X79219Y510*X79240*X79261*X79282Y511*X79303Y513*X79324Y516*X79344Y519*X79365Y523*X79385Y528*X79405Y533*X79425Y539*X79445Y546*X79465Y554*X79484Y562*X79503Y571*X79522Y580*X79540Y590*X79558Y601*X79576Y613*X79593Y625*X79609Y637*X79626Y650*X79641Y664*X79657Y678*X79672Y693*X79686Y709*X79700Y724*X79713Y741*X79725Y757*X79737Y774*X79749Y792*X79760Y810*X79770Y828*X79779Y847*X79788Y866*X79796Y885*X79804Y905*X79811Y925*X79817Y945*X79822Y965*X79827Y985*X79831Y1006*X79834Y1026*X79837Y1047*X79839Y1068*X79840Y1089*Y1110*X12820Y62663D2*Y62684D1*X12819Y62705*X12817Y62726*X12814Y62747*X12811Y62767*X12807Y62788*X12802Y62808*X12797Y62828*X12791Y62848*X12784Y62868*X12776Y62888*X12768Y62907*X12759Y62926*X12750Y62945*X12740Y62963*X12729Y62981*X12717Y62999*X12705Y63016*X12693Y63032*X12680Y63049*X12666Y63064*X12652Y63080*X12637Y63095*X12621Y63109*X12606Y63123*X12589Y63136*X12573Y63148*X12556Y63160*X12538Y63172*X12520Y63183*X12502Y63193*X12483Y63202*X12464Y63211*X12445Y63219*X12425Y63227*X12405Y63234*X12385Y63240*X12365Y63245*X12345Y63250*X12324Y63254*X12304Y63257*X12283Y63260*X12262Y63262*X12241Y63263*X12220*X12199*X12178Y63262*X12157Y63260*X12136Y63257*X12116Y63254*X12095Y63250*X12075Y63245*X12055Y63240*X12035Y63234*X12015Y63227*X11995Y63219*X11976Y63211*X11957Y63202*X11938Y63193*X11920Y63183*X11902Y63172*X11884Y63160*X11867Y63148*X11851Y63136*X11834Y63123*X11819Y63109*X11803Y63095*X11788Y63080*X11774Y63064*X11760Y63049*X11747Y63032*X11735Y63016*X11723Y62999*X11711Y62981*X11700Y62963*X11690Y62945*X11681Y62926*X11672Y62907*X11664Y62888*X11656Y62868*X11649Y62848*X11643Y62828*X11638Y62808*X11633Y62788*X11629Y62767*X11626Y62747*X11623Y62726*X11621Y62705*X11620Y62684*Y62663*Y62642*X11621Y62621*X11623Y62600*X11626Y62579*X11629Y62559*X11633Y62538*X11638Y62518*X11643Y62498*X11649Y62478*X11656Y62458*X11664Y62438*X11672Y62419*X11681Y62400*X11690Y62381*X11700Y62363*X11711Y62345*X11723Y62327*X11735Y62310*X11747Y62294*X11760Y62277*X11774Y62262*X11788Y62246*X11803Y62231*X11819Y62217*X11834Y62203*X11851Y62190*X11867Y62178*X11884Y62166*X11902Y62154*X11920Y62143*X11938Y62133*X11957Y62124*X11976Y62115*X11995Y62107*X12015Y62099*X12035Y62092*X12055Y62086*X12075Y62081*X12095Y62076*X12116Y62072*X12136Y62069*X12157Y62066*X12178Y62064*X12199Y62063*X12220*X12241*X12262Y62064*X12283Y62066*X12304Y62069*X12324Y62072*X12345Y62076*X12365Y62081*X12385Y62086*X12405Y62092*X12425Y62099*X12445Y62107*X12464Y62115*X12483Y62124*X12502Y62133*X12520Y62143*X12538Y62154*X12556Y62166*X12573Y62178*X12589Y62190*X12606Y62203*X12621Y62217*X12637Y62231*X12652Y62246*X12666Y62262*X12680Y62277*X12693Y62294*X12705Y62310*X12717Y62327*X12729Y62345*X12740Y62363*X12750Y62381*X12759Y62400*X12768Y62419*X12776Y62438*X12784Y62458*X12791Y62478*X12797Y62498*X12802Y62518*X12807Y62538*X12811Y62559*X12814Y62579*X12817Y62600*X12819Y62621*X12820Y62642*Y62663*X1710Y1110D2*Y1131D1*X1709Y1152*X1707Y1173*X1704Y1194*X1701Y1214*X1697Y1235*X1692Y1255*X1687Y1275*X1681Y1295*X1674Y1315*X1666Y1335*X1658Y1354*X1649Y1373*X1640Y1392*X1630Y1410*X1619Y1428*X1607Y1446*X1595Y1463*X1583Y1479*X1570Y1496*X1556Y1511*X1542Y1527*X1527Y1542*X1511Y1556*X1496Y1570*X1479Y1583*X1463Y1595*X1446Y1607*X1428Y1619*X1410Y1630*X1392Y1640*X1373Y1649*X1354Y1658*X1335Y1666*X1315Y1674*X1295Y1681*X1275Y1687*X1255Y1692*X1235Y1697*X1214Y1701*X1194Y1704*X1173Y1707*X1152Y1709*X1131Y1710*X1110*X1089*X1068Y1709*X1047Y1707*X1026Y1704*X1006Y1701*X985Y1697*X965Y1692*X945Y1687*X925Y1681*X905Y1674*X885Y1666*X866Y1658*X847Y1649*X828Y1640*X810Y1630*X792Y1619*X774Y1607*X757Y1595*X741Y1583*X724Y1570*X709Y1556*X693Y1542*X678Y1527*X664Y1511*X650Y1496*X637Y1479*X625Y1463*X613Y1446*X601Y1428*X590Y1410*X580Y1392*X571Y1373*X562Y1354*X554Y1335*X546Y1315*X539Y1295*X533Y1275*X528Y1255*X523Y1235*X519Y1214*X516Y1194*X513Y1173*X511Y1152*X510Y1131*Y1110*Y1089*X511Y1068*X513Y1047*X516Y1026*X519Y1006*X523Y985*X528Y965*X533Y945*X539Y925*X546Y905*X554Y885*X562Y866*X571Y847*X580Y828*X590Y810*X601Y792*X613Y774*X625Y757*X637Y741*X650Y724*X664Y709*X678Y693*X693Y678*X709Y664*X724Y650*X741Y637*X757Y625*X774Y613*X792Y601*X810Y590*X828Y580*X847Y571*X866Y562*X885Y554*X905Y546*X925Y539*X945Y533*X965Y528*X985Y523*X1006Y519*X1026Y516*X1047Y513*X1068Y511*X1089Y510*X1110*X1131*X1152Y511*X1173Y513*X1194Y516*X1214Y519*X1235Y523*X1255Y528*X1275Y533*X1295Y539*X1315Y546*X1335Y554*X1354Y562*X1373Y571*X1392Y580*X1410Y590*X1428Y601*X1446Y613*X1463Y625*X1479Y637*X1496Y650*X1511Y664*X1527Y678*X1542Y693*X1556Y709*X1570Y724*X1583Y741*X1595Y757*X1607Y774*X1619Y792*X1630Y810*X1640Y828*X1649Y847*X1658Y866*X1666Y885*X1674Y905*X1681Y925*X1687Y945*X1692Y965*X1697Y985*X1701Y1006*X1704Y1026*X1707Y1047*X1709Y1068*X1710Y1089*Y1110*X1715Y62663D2*Y62684D1*X1714Y62705*X1712Y62726*X1709Y62747*X1706Y62767*X1702Y62788*X1697Y62808*X1692Y62828*X1686Y62848*X1679Y62868*X1671Y62888*X1663Y62907*X1654Y62926*X1645Y62945*X1635Y62963*X1624Y62981*X1612Y62999*X1600Y63016*X1588Y63032*X1575Y63049*X1561Y63064*X1547Y63080*X1532Y63095*X1516Y63109*X1501Y63123*X1484Y63136*X1468Y63148*X1451Y63160*X1433Y63172*X1415Y63183*X1397Y63193*X1378Y63202*X1359Y63211*X1340Y63219*X1320Y63227*X1300Y63234*X1280Y63240*X1260Y63245*X1240Y63250*X1219Y63254*X1199Y63257*X1178Y63260*X1157Y63262*X1136Y63263*X1115*X1094*X1073Y63262*X1052Y63260*X1031Y63257*X1011Y63254*X990Y63250*X970Y63245*X950Y63240*X930Y63234*X910Y63227*X890Y63219*X871Y63211*X852Y63202*X833Y63193*X815Y63183*X797Y63172*X779Y63160*X762Y63148*X746Y63136*X729Y63123*X714Y63109*X698Y63095*X683Y63080*X669Y63064*X655Y63049*X642Y63032*X630Y63016*X618Y62999*X606Y62981*X595Y62963*X585Y62945*X576Y62926*X567Y62907*X559Y62888*X551Y62868*X544Y62848*X538Y62828*X533Y62808*X528Y62788*X524Y62767*X521Y62747*X518Y62726*X516Y62705*X515Y62684*Y62663*Y62642*X516Y62621*X518Y62600*X521Y62579*X524Y62559*X528Y62538*X533Y62518*X538Y62498*X544Y62478*X551Y62458*X559Y62438*X567Y62419*X576Y62400*X585Y62381*X595Y62363*X606Y62345*X618Y62327*X630Y62310*X642Y62294*X655Y62277*X669Y62262*X683Y62246*X698Y62231*X714Y62217*X729Y62203*X746Y62190*X762Y62178*X779Y62166*X797Y62154*X815Y62143*X833Y62133*X852Y62124*X871Y62115*X890Y62107*X910Y62099*X930Y62092*X950Y62086*X970Y62081*X990Y62076*X1011Y62072*X1031Y62069*X1052Y62066*X1073Y62064*X1094Y62063*X1115*X1136*X1157Y62064*X1178Y62066*X1199Y62069*X1219Y62072*X1240Y62076*X1260Y62081*X1280Y62086*X1300Y62092*X1320Y62099*X1340Y62107*X1359Y62115*X1378Y62124*X1397Y62133*X1415Y62143*X1433Y62154*X1451Y62166*X1468Y62178*X1484Y62190*X1501Y62203*X1516Y62217*X1532Y62231*X1547Y62246*X1561Y62262*X1575Y62277*X1588Y62294*X1600Y62310*X1612Y62327*X1624Y62345*X1635Y62363*X1645Y62381*X1654Y62400*X1663Y62419*X1671Y62438*X1679Y62458*X1686Y62478*X1692Y62498*X1697Y62518*X1702Y62538*X1706Y62559*X1709Y62579*X1712Y62600*X1714Y62621*X1715Y62642*Y62663*X99245Y61553D2*Y63773D1*X88465Y61553D2*Y63773D1*X77685Y61553D2*Y63773D1*X66905Y61553D2*Y63773D1*X56125Y61553D2*Y63773D1*X45345Y61553D2*Y63773D1*X34565Y61553D2*Y63773D1*X99248Y61550D2*X101460D1*X99248Y51660D2*X101460D1*X99248Y41770D2*X101460D1*X99243Y31887D2*X101455D1*X99243Y21997D2*X101455D1*X99243Y12107D2*X101455D1*X101460Y0D2*X66900D1*X34560*Y2220*X0Y0D2*X34560D1*X45340Y-7D2*Y2213D1*X56120Y-7D2*Y2213D1*X66900Y-7D2*Y2213D1*X77680Y-7D2*Y2213D1*X88460Y-7D2*Y2213D1*X99243Y-10D2*Y2210D1*Y2217D2*X101460D1*X5Y51663D2*X2225D1*X0Y41780D2*X2220D1*X5Y31883D2*X2225D1*X13005Y41773D2*X2225D1*Y31883*X13005D2*Y41773D1*X23785*Y31883*Y41773D2*X34565D1*Y31883*X13005Y51663D2*X2225D1*Y41773*X13005D2*Y51663D1*X23785*Y41773*Y51663D2*X34565D1*Y41773*X13005Y61553D2*X2225D1*Y51663*X13005D2*Y61553D1*X23785*Y51663*Y61553D2*X34565D1*Y51663*X2220Y31890D2*Y41780D1*X13000Y31890D2*Y41780D1*X2225*X45345Y51663D2*Y61553D1*X34565*X45345Y41773D2*Y51663D1*X34565*X45345Y31883D2*Y41773D1*X34565*X45345D2*X56125D1*Y31883*X45345Y51663D2*X56125D1*Y41773*X45345Y61553D2*X56125D1*Y51663*Y41773D2*X66905D1*Y31883*X56125Y51663D2*X66905D1*Y41773*X56125Y61553D2*X66905D1*Y51663*X99245D2*Y61553D1*X88465*X99245Y41773D2*Y51663D1*X88465*X99245Y31883D2*Y41773D1*X88465*Y51663D2*Y61553D1*X77685*X88465Y41773D2*Y51663D1*X77685*X88465Y31883D2*Y41773D1*X77685*X66905*X77685Y31883D2*Y41773D1*X66905Y51663D2*X77685D1*Y41773*X66905Y61553D2*X77685D1*Y51663*X77680Y22000D2*Y31890D1*X66900*X77680Y12110D2*Y22000D1*X66900*X77680Y12110D2*Y2220D1*X66900*Y12110D2*X77680D1*X88460*X77680Y2220D2*X88460D1*Y12110*X77680Y22000D2*X88460D1*Y12110*X77680Y31890D2*X88460D1*Y22000*Y12110D2*X99240D1*X88460Y2220D2*X99240D1*Y12110*X88460Y22000D2*X99240D1*Y12110*X88460Y31890D2*X99240D1*Y22000*X66900D2*Y31890D1*X56120*X66900Y12110D2*Y22000D1*X56120*X66900Y12110D2*Y2220D1*X56120*Y12110D2*X66900D1*X56120Y22000D2*Y31890D1*X45340*X56120Y12110D2*Y22000D1*X45340*X56120Y12110D2*Y2220D1*X45340*X56120Y12110D2*X45340D1*X34560*Y2220D2*X45340D1*Y12110*X34560Y22000D2*X45340D1*Y12110*X34560Y31890D2*X45340D1*Y22000*X34560D2*Y31890D1*X23780*Y22000*Y31890D2*X13000D1*Y22000*X2220D2*Y31890D1*X13000*X34560Y12110D2*Y22000D1*X23780*Y12110*Y22000D2*X13000D1*Y12110*X2220D2*Y22000D1*X13000*X34560Y12110D2*Y2220D1*X23780*X34560Y12110D2*X23780D1*Y2220*X13000*X23780Y12110D2*X13000D1*Y2220*X2220*Y12110*X13000*X0Y0D2*Y63773D1*X5D2*X101460D1*Y0*X3Y12117D2*X2215D1*X0Y22000D2*X2220D1*X5Y61553D2*X2225D1*Y63773*X13005Y61553D2*Y63773D1*X23785Y61553D2*Y63773D1*X23780Y0D2*Y2220D1*X13000Y0D2*Y2220D1*X2220Y0D2*Y2220D1*X3Y2227D2*X2220D1*X5660Y4990D2*Y5390D1*X6060*Y4990*X5660*X6170Y4430D2*Y4830D1*X6570*Y4430*X6170*X9490Y6470D2*X9290Y6870D1*X9690*X9490Y6470*X8530Y9330D2*X8330Y9730D1*X8730*X8530Y9330*Y8820D2*X8330Y9220D1*X8730*X8530Y8820*X7340Y5160D2*X7140Y5560D1*X7540*X7340Y5160*X8500Y6850D2*X8300Y7250D1*X8700*X8500Y6850*Y7200D2*X8300Y7600D1*X8700*X8500Y7200*X10010Y8680D2*X9810Y9080D1*X10210*X10010Y8680*X9210Y7190D2*X9010Y7590D1*X9410*X9210Y7190*X4010Y3770D2*X3810Y4170D1*X4210*X4010Y3770*X7670Y3630D2*X7470Y4030D1*X7870*X7670Y3630*X7170D2*X6970Y4030D1*X7370*X7170Y3630*X4010Y4470D2*X3810Y4870D1*X4210*X4010Y4470*X6260Y7140D2*X6060Y7540D1*X6460*X6260Y7140*X6440Y8820D2*X6240Y9220D1*X6640*X6440Y8820*X8260Y4130D2*X8060Y4530D1*X8460*X8260Y4130*X5860Y7820D2*X5660Y8220D1*X6060*X5860Y7820*X10010Y4780D2*X9810Y5180D1*X10210*X10010Y4780*X8500Y7570D2*X8300Y7970D1*X8700*X8500Y7570*X7040Y5980D2*X6840Y6380D1*X7240*X7040Y5980*X9210Y6840D2*X9010Y7240D1*X9410*X9210Y6840*X81820Y-10470D2*X81660Y-10150D1*X81980*X81820Y-10470*X81660Y-12070D2*Y-11750D1*X81980*Y-12070*X81660*X42057Y-2027D2*X47807D1*X85350Y-10510D2*X85083D1*X85350Y-10243*Y-10177*X85283Y-10110*X85150*X85083Y-10177*X85483D2*X85550Y-10110D1*X85683*X85750Y-10177*Y-10443*X85683Y-10510*X85550*X85483Y-10443*Y-10177*X89786Y-10510D2*X89919D1*X89853*Y-10110*X89786Y-10177*X90386Y-10510D2*X90119D1*X90386Y-10243*Y-10177*X90319Y-10110*X90186*X90119Y-10177*X90519Y-10510D2*Y-10243D1*X90586*X90652Y-10310*Y-10510*Y-10310D2*X90719Y-10243D1*X90786Y-10310*Y-10510*X90919D2*X91052D1*X90986*Y-10243*X90919*X91252Y-10510D2*X91385D1*X91319*Y-10110*X91252*X92119Y-10510D2*X91985Y-10377D1*Y-10243*X92119Y-10110*X92318Y-10177D2*X92385Y-10110D1*X92518*X92585Y-10177*Y-10443*X92518Y-10510*X92385*X92318Y-10443*Y-10177*X92718Y-10510D2*Y-10443D1*X92785*Y-10510*X92718*X93052Y-10177D2*X93118Y-10110D1*X93252*X93318Y-10177*Y-10243*X93252Y-10310*X93185*X93252D2*X93318Y-10377D1*Y-10443*X93252Y-10510*X93118*X93052Y-10443*X93451Y-10177D2*X93518Y-10110D1*X93651*X93718Y-10177*Y-10443*X93651Y-10510*X93518*X93451Y-10443*Y-10177*X94051Y-10510D2*Y-10110D1*X93851Y-10310*X94118*X94251Y-10177D2*X94318Y-10110D1*X94451*X94518Y-10177*Y-10243*X94451Y-10310*X94518Y-10377*Y-10443*X94451Y-10510*X94318*X94251Y-10443*Y-10377*X94318Y-10310*X94251Y-10243*Y-10177*X94318Y-10310D2*X94451D1*X94651Y-10510D2*Y-10243D1*X94718*X94784Y-10310*Y-10510*Y-10310D2*X94851Y-10243D1*X94918Y-10310*Y-10510*X95051D2*Y-10243D1*X95118*X95184Y-10310*Y-10510*Y-10310D2*X95251Y-10243D1*X95318Y-10310*Y-10510*X95451D2*X95584Y-10377D1*Y-10243*X95451Y-10110*X96352Y-10510D2*Y-10110D1*X96552*X96619Y-10177*Y-10310*X96552Y-10377*X96352*X96752Y-10110D2*X97019D1*X96885*Y-10510*X97152Y-10110D2*Y-10510D1*Y-10310*X97418*Y-10110*Y-10510*X99775D2*Y-10110D1*X99975*X100042Y-10177*Y-10310*X99975Y-10377*X99775*X99909D2*X100042Y-10510D1*X100242D2*X100375D1*X100442Y-10443*Y-10310*X100375Y-10243*X100242*X100175Y-10310*Y-10443*X100242Y-10510*X100575Y-10243D2*Y-10443D1*X100642Y-10510*X100842*Y-10243*X100975Y-10510D2*Y-10243D1*X101175*X101241Y-10310*Y-10510*X101641Y-10110D2*Y-10510D1*X101441*X101375Y-10443*Y-10310*X101441Y-10243*X101641*X85350Y-10910D2*X85217Y-10977D1*X85083Y-11110*Y-11243*X85150Y-11310*X85283*X85350Y-11243*Y-11177*X85283Y-11110*X85083*X90053Y-11310D2*X89786D1*X90053Y-11043*Y-10977*X89986Y-10910*X89853*X89786Y-10977*X90186D2*X90252Y-10910D1*X90386*X90452Y-10977*Y-11043*X90386Y-11110*X90452Y-11177*Y-11243*X90386Y-11310*X90252*X90186Y-11243*Y-11177*X90252Y-11110*X90186Y-11043*Y-10977*X90252Y-11110D2*X90386D1*X90586Y-11310D2*Y-11043D1*X90652*X90719Y-11110*Y-11310*Y-11110D2*X90786Y-11043D1*X90852Y-11110*Y-11310*X90986D2*X91119D1*X91052*Y-11043*X90986*X91319Y-11310D2*X91452D1*X91385*Y-10910*X91319*X92185Y-11310D2*X92052Y-11177D1*Y-11043*X92185Y-10910*X92385Y-10977D2*X92452Y-10910D1*X92585*X92652Y-10977*Y-11243*X92585Y-11310*X92452*X92385Y-11243*Y-10977*X92785Y-11310D2*Y-11243D1*X92852*Y-11310*X92785*X93118Y-10910D2*X93385D1*Y-10977*X93118Y-11243*Y-11310*X93518D2*X93651D1*X93585*Y-10910*X93518Y-10977*X93851Y-11310D2*X93985D1*X93918*Y-10910*X93851Y-10977*X94451Y-11310D2*X94185D1*X94451Y-11043*Y-10977*X94384Y-10910*X94251*X94185Y-10977*X94584Y-11310D2*Y-11043D1*X94651*X94718Y-11110*Y-11310*Y-11110D2*X94784Y-11043D1*X94851Y-11110*Y-11310*X94984D2*Y-11043D1*X95051*X95118Y-11110*Y-11310*Y-11110D2*X95184Y-11043D1*X95251Y-11110*Y-11310*X95384D2*X95517Y-11177D1*Y-11043*X95384Y-10910*X96352Y-11310D2*Y-10910D1*X96552*X96619Y-10977*Y-11110*X96552Y-11177*X96352*X96752Y-10910D2*X97019D1*X96885*Y-11310*X97152Y-10910D2*Y-11310D1*Y-11110*X97418*Y-10910*Y-11310*X99775D2*Y-10910D1*X99975*X100042Y-10977*Y-11110*X99975Y-11177*X99775*X99909D2*X100042Y-11310D1*X100242D2*X100375D1*X100442Y-11243*Y-11110*X100375Y-11043*X100242*X100175Y-11110*Y-11243*X100242Y-11310*X100575Y-11043D2*Y-11243D1*X100642Y-11310*X100842*Y-11043*X100975Y-11310D2*Y-11043D1*X101175*X101241Y-11110*Y-11310*X101641Y-10910D2*Y-11310D1*X101441*X101375Y-11243*Y-11110*X101441Y-11043*X101641*X85350Y-12110D2*X85083D1*X85350Y-11843*Y-11777*X85283Y-11710*X85150*X85083Y-11777*X89786D2*X89853Y-11710D1*X89986*X90053Y-11777*Y-11843*X89986Y-11910*X89919*X89986D2*X90053Y-11977D1*Y-12043*X89986Y-12110*X89853*X89786Y-12043*X90186Y-11777D2*X90252Y-11710D1*X90386*X90452Y-11777*Y-11843*X90386Y-11910*X90319*X90386D2*X90452Y-11977D1*Y-12043*X90386Y-12110*X90252*X90186Y-12043*X90586Y-12110D2*Y-11843D1*X90652*X90719Y-11910*Y-12110*Y-11910D2*X90786Y-11843D1*X90852Y-11910*Y-12110*X90986D2*X91119D1*X91052*Y-11843*X90986*X91319Y-12110D2*X91452D1*X91385*Y-11710*X91319*X92185Y-12110D2*X92052Y-11977D1*Y-11843*X92185Y-11710*X92385Y-11777D2*X92452Y-11710D1*X92585*X92652Y-11777*Y-12043*X92585Y-12110*X92452*X92385Y-12043*Y-11777*X92785Y-12110D2*Y-12043D1*X92852*Y-12110*X92785*X93118Y-11777D2*X93185Y-11710D1*X93318*X93385Y-11777*Y-11843*X93318Y-11910*X93385Y-11977*Y-12043*X93318Y-12110*X93185*X93118Y-12043*Y-11977*X93185Y-11910*X93118Y-11843*Y-11777*X93185Y-11910D2*X93318D1*X93518Y-11777D2*X93585Y-11710D1*X93718*X93785Y-11777*Y-11843*X93718Y-11910*X93651*X93718D2*X93785Y-11977D1*Y-12043*X93718Y-12110*X93585*X93518Y-12043*X93918Y-11777D2*X93985Y-11710D1*X94118*X94185Y-11777*Y-11843*X94118Y-11910*X94185Y-11977*Y-12043*X94118Y-12110*X93985*X93918Y-12043*Y-11977*X93985Y-11910*X93918Y-11843*Y-11777*X93985Y-11910D2*X94118D1*X94584Y-12110D2*X94318D1*X94584Y-11843*Y-11777*X94518Y-11710*X94384*X94318Y-11777*X94718Y-12110D2*Y-11843D1*X94784*X94851Y-11910*Y-12110*Y-11910D2*X94918Y-11843D1*X94984Y-11910*Y-12110*X95118D2*Y-11843D1*X95184*X95251Y-11910*Y-12110*Y-11910D2*X95318Y-11843D1*X95384Y-11910*Y-12110*X95517D2*X95651Y-11977D1*Y-11843*X95517Y-11710*X96352Y-12110D2*Y-11710D1*X96552*X96619Y-11777*Y-11910*X96552Y-11977*X96352*X96752Y-11710D2*X97019D1*X96885*Y-12110*X97152Y-11710D2*Y-12110D1*Y-11910*X97418*Y-11710*Y-12110*X99775D2*Y-11710D1*X99975*X100042Y-11777*Y-11910*X99975Y-11977*X99775*X99909D2*X100042Y-12110D1*X100242D2*X100375D1*X100442Y-12043*Y-11910*X100375Y-11843*X100242*X100175Y-11910*Y-12043*X100242Y-12110*X100575Y-11843D2*Y-12043D1*X100642Y-12110*X100842*Y-11843*X100975Y-12110D2*Y-11843D1*X101175*X101241Y-11910*Y-12110*X101641Y-11710D2*Y-12110D1*X101441*X101375Y-12043*Y-11910*X101441Y-11843*X101641*X85350Y-12910D2*X85083D1*X85350Y-12643*Y-12577*X85283Y-12510*X85150*X85083Y-12577*X85483D2*X85550Y-12510D1*X85683*X85750Y-12577*Y-12643*X85683Y-12710*X85750Y-12777*Y-12843*X85683Y-12910*X85550*X85483Y-12843*Y-12777*X85550Y-12710*X85483Y-12643*Y-12577*X85550Y-12710D2*X85683D1*X86518Y-12510D2*X86784D1*X86651*Y-12910*X86984D2*X87117D1*X87184Y-12843*Y-12710*X87117Y-12643*X86984*X86918Y-12710*Y-12843*X86984Y-12910*X87384Y-12577D2*Y-12643D1*X87317*X87451*X87384*Y-12843*X87451Y-12910*X87717Y-12643D2*X87851D1*X87917Y-12710*Y-12910*X87717*X87651Y-12843*X87717Y-12777*X87917*X88051Y-12910D2*X88184D1*X88117*Y-12510*X88051*X0Y0D2*M02*