M72
M48
T1F00S00C0.0180
T2F00S00C0.0310
T3F00S00C0.0340
T4F00S00C0.0350
T5F00S00C0.0360
T6F00S00C0.0380
T7F00S00C0.0400
T8F00S00C0.0450
T9F00S00C0.0460
T10F00S00C0.0472
T11F00S00C0.0630
T12F00S00C0.1183
T13F00S00C0.1250
T14F00S00C0.1300
T15F00S00C0.2100
T16F00S00C0.1280
%
T01
X026258Y-000497
X030758Y-000939
X031208
X031658
X035908Y-000339
Y-003739
X019809Y-001947
X019209
X018609
X016809Y-000139
X016309
X015809
X009183Y-000169
Y-000669
X009258Y-001389
X008908Y-001739
X007109Y-000669
Y-000169
X005983Y-002969
X-006352Y001303
X-007092
X-006042Y002923
X-005582Y002463
X-007152Y006083
X-007467Y009202
X-009348Y0092
X-008867Y011698
X-008492Y012903
X-009342Y013402
X-008867Y014023
X-008492Y015653
X-009572Y015431
X-010092
X-005789Y0129
X-006437Y011698
X-006437Y010888
X-004365Y011369
X-003565Y011569
X-003715Y012169
X-003392Y012503
X-003287Y010388
X-004117Y010019
X-002517Y009202
X000028Y008363
X000435Y008719
X000483Y009831
X001008Y010923
X000857Y011354
X001708Y012103
X003198Y011853
Y011313
X003327Y01035
Y0099
X003328Y0094
X003008Y008533
X003698Y008123
X004695Y007875
X005088Y007523
X005535Y008369
X005885Y008019
X006335Y007669
X005533Y006331
X004928Y006241
X005868Y005673
X006388Y005003
X005843Y004503
Y004003
Y003503
Y003003
X006593Y002503
X008093Y002273
Y002753
Y003353
Y003953
X008088Y004553
X008433Y005481
X008883
X009383Y006781
X009185Y008019
X008835Y008369
X008485Y008719
X008135Y009069
X007777Y0094
X007948Y010123
X007598Y010533
X006988Y011023
X005838Y010563
X003778Y010353
X004133Y011981
X006607Y01233
X008033Y011902
X008883Y011452
X009273Y013201
X008268Y015443
X006433Y015102
X-000247Y015448
X-001597Y015308
X-002137Y015298
X-000282Y013783
X000008Y007508
X000358Y007153
X000328Y006278
X000508Y003958
X000358Y002728
X-001472Y003163
X-002322Y003063
X-00373Y003055
X-003722Y004713
X-004472
X-005167Y005181
X-002717Y004731
X-000722Y004813
X002534Y004003
X002618Y005803
X001998Y008273
X001938Y009263
X004985Y008719
X009535Y009069
X009388Y001303
X008888
X009183Y000331
X007109
X004293Y002003
X002578Y001303
X011858Y006603
X012133Y008628
X010588Y008533
Y008033
X010585Y009269
X010733Y011187
X010985Y011919
X010733Y012652
X011635Y012569
X011327Y01075
X013258Y010503
X015233Y010331
X015783
X015683Y011431
X015735Y011969
X015233Y012202
X017108Y012053
Y012603
X018763Y012853
X020963Y012503
X023013Y013353
Y014353
X025254Y014503
X022108Y009903
Y009353
X018558Y008403
X015658Y009053
X014378Y014383
Y014983
X016513Y014853
X016963
X013135Y013219
X017858Y004353
Y003903
Y003433
X022138Y003003
X022688
X023188
X023038Y001903
X023588
X022438
X022608Y001153
X034758Y000911
X035108Y000561
X030898Y007811
X028083Y008853
Y009303
X028283Y012653
Y013153
X027483Y012653
X026104Y014153
X026858Y015053
X026878Y015653
X029933Y014853
X031328Y015303
X033558Y015511
X031908Y011853
Y011303
X031328Y017303
X029904Y017053
X029208Y016653
X026128Y017053
X026078Y018053
Y018553
X027604Y020503
X028208
X032158Y018561
X034958Y018111
Y016911
X035308Y019161
X034958Y019611
X035308Y020211
X035708Y022011
X035458Y022511
X035158Y022861
X035708Y023261
X033923Y024108
X034008Y025311
X033958Y022011
X036458Y021361
X038708Y021111
X025504Y018053
X022458Y017253
X018283Y017402
X016478Y019333
X015278
X014078
X012283Y019328
X011083Y019328
Y017402
X011683
X013478Y017407
X010338Y021293
X010648Y022938
X011048
X011123Y024688
X010733
X008518Y024573
Y024003
X009353Y022178
X009418Y021603
X008013Y020818
Y019618
X009443Y017782
X008993Y016302
X004813Y017188
X003273Y016163
X002553
X000843Y016763
X000413Y017158
X-000217Y017358
Y016488
X-001267Y017202
X-001217Y019093
X-001637Y020063
X-001717Y022483
X-002167Y022352
X-001317Y022258
X-001122Y023413
X000088Y023653
X000113Y025068
X000733Y025063
X001073Y024513
X002493Y025663
X004983
Y025063
X005723Y024438
X000558Y021331
X000463Y020583
X-003387Y022408
X-003337Y022858
X-004462Y022483
X-004187Y019123
X-004787
X-005291Y017452
Y016902
Y016402
X-003317Y016403
Y017453
X-006742Y018778
X-008142
X-007742Y018078
X-008542Y017728
X-008167Y016052
X-008942Y020606
X-007142Y020603
X-006092Y020953
X-006437Y021808
X-007742Y021653
X-006637Y023608
T02
X011503Y022438
X019603
T03
X011503Y025438
X019603
T04
X0Y0
X001092
X002183
X001633Y-001
X000542
X-00055
X-001642
X-002183Y0
X-001092
X-000322Y005308
X-000593Y009304
X-001468Y011429
X-000442Y012803
X003007Y013629
X003957
X-003242Y007678
X-005042
X011398Y008853
X013458Y008978
X013808Y010153
X013807Y011704
Y012904
X019758Y004853
X032798Y005221
Y004221
Y003221
Y002221
X033798Y002721
Y003721
Y004721
Y001721
X031704Y020503
X030654
X026858Y020403
X024658
X017678Y016203
X016478
X015278
X006333Y016613
X005333
X007083Y017663
Y018663
X-000917Y024413
X-001917
X-002917
X-003917
X-004917
Y025413
X-003917
X-002917
X-001917
X-000917
T05
X006813Y-002447
X007813
X008813
Y-003447
X007813
X006813
X-005542Y014653
X-004542
X-003542
X-002542
X-001542
X001508
X002508
X003508
X004508
X005508
X009058Y014553
X010058
X011058
X012058
X013058
X032968Y010721
Y009721
Y008721
X033968Y009225
Y010225
Y011225
T06
X010733Y019978
X011733
X012733
X013733
X014733
X015733
X016733
X017733
X018733
X019733
T07
X-009882Y001003
Y002003
X-009892Y007403
Y008403
Y013703
Y014703
Y020003
Y021003
T08
X035468Y014801
X036918
Y016151
Y017501
X035468
Y016151
T09
X026603Y022438
Y025438
X024603
X022603
Y022438
X024603
X018503
X016503
X014503
Y025438
X016503
X018503
T10
X037428Y-001151
Y-002529
Y020371
Y021749
Y023127
Y024505
T11
X031618Y000311
Y006631
T12
X-004917Y-0005
X004925
T13
X019323Y000168
T14
X036468Y007971
Y011971
T15
X-009542Y-001247
X-009392Y023153
T16
X036298Y001051
Y005891
M30
