%FSLAX24Y24*%
%MOIN*%
G70*
G01*
G75*
%ADD10C,0.0080*%
%ADD11R,0.0550X0.0400*%
%ADD12R,0.0300X0.0300*%
%ADD13R,0.0900X0.0550*%
%ADD14R,0.0900X0.1800*%
%ADD15R,0.0630X0.0118*%
%ADD16O,0.0630X0.0118*%
%ADD17O,0.0118X0.0630*%
%ADD18R,0.0780X0.0780*%
%ADD19R,0.0900X0.0350*%
%ADD20O,0.0800X0.0240*%
%ADD21R,0.0360X0.0500*%
%ADD22R,0.0360X0.0360*%
%ADD23R,0.1800X0.0900*%
%ADD24O,0.0900X0.0240*%
%ADD25R,0.0240X0.0700*%
%ADD26R,0.0800X0.0140*%
%ADD27O,0.0800X0.0300*%
%ADD28R,0.0400X0.0300*%
%ADD29R,0.1102X0.0790*%
%ADD30R,0.0550X0.0900*%
%ADD31R,0.0400X0.0550*%
%ADD32R,0.3949X0.1752*%
%ADD33R,0.0600X0.0800*%
%ADD34O,0.0240X0.0800*%
%ADD35R,0.0945X0.0591*%
%ADD36R,0.0350X0.0700*%
%ADD37R,0.1102X0.0709*%
%ADD38R,0.0709X0.1102*%
%ADD39C,0.0300*%
%ADD40C,0.0220*%
%ADD41C,0.0250*%
%ADD42C,0.0120*%
%ADD43C,0.0100*%
%ADD44C,0.0150*%
%ADD45C,0.0200*%
%ADD46C,0.0400*%
%ADD47C,0.0140*%
%ADD48C,0.0090*%
%ADD49C,0.0050*%
%ADD50R,0.0620X0.0620*%
%ADD51C,0.0620*%
%ADD52C,0.1967*%
%ADD53C,0.0650*%
%ADD54C,0.0550*%
%ADD55R,0.0650X0.0650*%
%ADD56R,0.0600X0.0600*%
%ADD57C,0.0600*%
%ADD58R,0.0520X0.0520*%
%ADD59C,0.0670*%
%ADD60C,0.2100*%
%ADD61C,0.1400*%
%ADD62C,0.1300*%
%ADD63C,0.1280*%
%ADD64C,0.0900*%
%ADD65C,0.0787*%
%ADD66R,0.0787X0.0787*%
%ADD67R,0.0850X0.0850*%
%ADD68C,0.0850*%
%ADD69C,0.0350*%
%ADD70C,0.0060*%
%ADD71C,0.0125*%
%ADD72R,0.0630X0.0480*%
%ADD73R,0.0380X0.0380*%
%ADD74R,0.0980X0.0630*%
%ADD75R,0.0980X0.1880*%
%ADD76R,0.0670X0.0158*%
%ADD77O,0.0670X0.0158*%
%ADD78O,0.0158X0.0670*%
%ADD79R,0.0860X0.0860*%
%ADD80R,0.0980X0.0430*%
%ADD81O,0.0880X0.0320*%
%ADD82R,0.0440X0.0580*%
%ADD83R,0.0440X0.0440*%
%ADD84R,0.1880X0.0980*%
%ADD85O,0.0980X0.0320*%
%ADD86R,0.0320X0.0780*%
%ADD87R,0.0880X0.0220*%
%ADD88O,0.0880X0.0380*%
%ADD89R,0.0480X0.0380*%
%ADD90R,0.1182X0.0870*%
%ADD91R,0.0630X0.0980*%
%ADD92R,0.0480X0.0630*%
%ADD93R,0.4029X0.1832*%
%ADD94R,0.0680X0.0880*%
%ADD95O,0.0320X0.0880*%
%ADD96R,0.1025X0.0671*%
%ADD97R,0.0430X0.0780*%
%ADD98R,0.1182X0.0789*%
%ADD99R,0.0789X0.1182*%
%ADD100R,0.0700X0.0700*%
%ADD101C,0.0700*%
%ADD102C,0.2047*%
%ADD103C,0.0730*%
%ADD104C,0.0630*%
%ADD105R,0.0730X0.0730*%
%ADD106R,0.0680X0.0680*%
%ADD107C,0.0680*%
%ADD108C,0.0750*%
%ADD109C,0.2180*%
%ADD110C,0.1480*%
%ADD111C,0.1380*%
%ADD112C,0.1360*%
%ADD113C,0.0980*%
%ADD114C,0.0867*%
%ADD115R,0.0867X0.0867*%
%ADD116R,0.0930X0.0930*%
%ADD117C,0.0930*%
%ADD118C,0.0430*%
%ADD119C,0.0067*%
%ADD120C,0.0040*%
D10*
X83586Y46964D02*
X83332D01*
X83306Y46736D01*
X83332Y46761D01*
X83408Y46787D01*
X83484D01*
X83560Y46761D01*
X83611Y46711D01*
X83636Y46634D01*
Y46584D01*
X83611Y46507D01*
X83560Y46457D01*
X83484Y46431D01*
X83408D01*
X83332Y46457D01*
X83306Y46482D01*
X83281Y46533D01*
X83756Y46355D02*
X84111Y46964D01*
X84299D02*
X84223Y46939D01*
X84172Y46863D01*
X84147Y46736D01*
Y46660D01*
X84172Y46533D01*
X84223Y46457D01*
X84299Y46431D01*
X84350D01*
X84426Y46457D01*
X84477Y46533D01*
X84502Y46660D01*
Y46736D01*
X84477Y46863D01*
X84426Y46939D01*
X84350Y46964D01*
X84299D01*
X84926D02*
X84672D01*
X84647Y46736D01*
X84672Y46761D01*
X84748Y46787D01*
X84825D01*
X84901Y46761D01*
X84952Y46711D01*
X84977Y46634D01*
Y46584D01*
X84952Y46507D01*
X84901Y46457D01*
X84825Y46431D01*
X84748D01*
X84672Y46457D01*
X84647Y46482D01*
X84622Y46533D01*
X85934Y46964D02*
Y46431D01*
X86290Y46964D02*
X85934Y46609D01*
X86061Y46736D02*
X86290Y46431D01*
X86409Y46964D02*
Y46431D01*
X86765Y46964D02*
X86409Y46609D01*
X86536Y46736D02*
X86765Y46431D01*
D41*
X81762Y117224D02*
X86862D01*
D43*
X96701Y43242D02*
X96692Y43339D01*
X96663Y43433D01*
X96617Y43520D01*
X96555Y43595D01*
X96479Y43658D01*
X96393Y43704D01*
X96299Y43732D01*
X96201Y43742D01*
X96213Y41742D02*
X96310Y41750D01*
X96403Y41777D01*
X96489Y41823D01*
X96564Y41885D01*
X96624Y41961D01*
X96669Y42048D01*
X96695Y42142D01*
X96701Y42239D01*
X97701Y43742D02*
X97604Y43732D01*
X97510Y43704D01*
X97423Y43658D01*
X97348Y43595D01*
X97285Y43520D01*
X97239Y43433D01*
X97211Y43339D01*
X97201Y43242D01*
Y42242D02*
X97211Y42145D01*
X97238Y42052D01*
X97284Y41967D01*
X97345Y41891D01*
X97419Y41829D01*
X97504Y41782D01*
X97596Y41753D01*
X97692Y41742D01*
X114951Y43242D02*
X114942Y43339D01*
X114913Y43433D01*
X114867Y43520D01*
X114805Y43595D01*
X114729Y43658D01*
X114643Y43704D01*
X114549Y43732D01*
X114451Y43742D01*
X114463Y41742D02*
X114560Y41750D01*
X114653Y41777D01*
X114739Y41823D01*
X114814Y41885D01*
X114874Y41961D01*
X114919Y42048D01*
X114945Y42142D01*
X114951Y42239D01*
X115451Y42232D02*
X115461Y42135D01*
X115489Y42042D01*
X115536Y41957D01*
X115598Y41882D01*
X115673Y41821D01*
X115760Y41777D01*
X115853Y41750D01*
X115950Y41742D01*
X115951Y43742D02*
X115854Y43732D01*
X115760Y43704D01*
X115673Y43658D01*
X115598Y43595D01*
X115535Y43520D01*
X115489Y43433D01*
X115461Y43339D01*
X115451Y43242D01*
X87451Y50752D02*
X87442Y50847D01*
X87414Y50939D01*
X87369Y51024D01*
X87308Y51098D01*
X87233Y51159D01*
X87149Y51205D01*
X87057Y51232D01*
X86961Y51242D01*
X86971Y47992D02*
X87065Y48001D01*
X87155Y48028D01*
X87238Y48073D01*
X87311Y48132D01*
X87370Y48205D01*
X87415Y48288D01*
X87442Y48378D01*
X87451Y48472D01*
Y47002D02*
X87441Y47099D01*
X87412Y47193D01*
X87365Y47279D01*
X87302Y47354D01*
X87224Y47415D01*
X87137Y47459D01*
X87042Y47485D01*
X86944Y47491D01*
X87951Y47482D02*
X87961Y47386D01*
X87988Y47294D01*
X88034Y47210D01*
X88095Y47135D01*
X88169Y47074D01*
X88254Y47029D01*
X88346Y47001D01*
X88441Y46992D01*
X87951Y44732D02*
X87961Y44636D01*
X87988Y44544D01*
X88034Y44460D01*
X88095Y44385D01*
X88169Y44324D01*
X88254Y44279D01*
X88346Y44251D01*
X88441Y44242D01*
X86961D02*
X87057Y44251D01*
X87149Y44279D01*
X87233Y44324D01*
X87308Y44385D01*
X87369Y44460D01*
X87414Y44544D01*
X87442Y44636D01*
X87451Y44732D01*
X104951Y46002D02*
X104942Y46097D01*
X104914Y46189D01*
X104869Y46274D01*
X104808Y46348D01*
X104733Y46409D01*
X104649Y46455D01*
X104557Y46482D01*
X104461Y46492D01*
Y44242D02*
X104558Y44251D01*
X104651Y44280D01*
X104736Y44326D01*
X104811Y44388D01*
X104872Y44464D01*
X104916Y44550D01*
X104943Y44644D01*
X104951Y44740D01*
X105451Y44752D02*
X105461Y44653D01*
X105489Y44559D01*
X105535Y44471D01*
X105597Y44394D01*
X105673Y44331D01*
X105760Y44283D01*
X105854Y44253D01*
X105952Y44242D01*
X105931Y46492D02*
X105834Y46482D01*
X105742Y46453D01*
X105657Y46406D01*
X105583Y46342D01*
X105524Y46265D01*
X105481Y46178D01*
X105457Y46084D01*
X105452Y45987D01*
X88451Y46492D02*
X88354Y46482D01*
X88260Y46454D01*
X88173Y46408D01*
X88098Y46345D01*
X88035Y46270D01*
X87989Y46183D01*
X87961Y46089D01*
X87951Y45992D01*
X88451Y51242D02*
X88354Y51232D01*
X88260Y51204D01*
X88173Y51158D01*
X88098Y51095D01*
X88035Y51020D01*
X87989Y50933D01*
X87961Y50839D01*
X87951Y50742D01*
X78951Y44742D02*
X78961Y44645D01*
X78988Y44552D01*
X79034Y44467D01*
X79095Y44391D01*
X79169Y44329D01*
X79254Y44282D01*
X79346Y44253D01*
X79442Y44242D01*
X79451Y47492D02*
X79354Y47482D01*
X79260Y47454D01*
X79173Y47408D01*
X79098Y47345D01*
X79035Y47270D01*
X78989Y47183D01*
X78961Y47089D01*
X78951Y46992D01*
Y48492D02*
X78961Y48394D01*
X78989Y48300D01*
X79035Y48214D01*
X79098Y48138D01*
X79173Y48076D01*
X79260Y48030D01*
X79354Y48001D01*
X79451Y47992D01*
Y51242D02*
X79354Y51232D01*
X79260Y51204D01*
X79173Y51158D01*
X79098Y51095D01*
X79035Y51020D01*
X78989Y50933D01*
X78961Y50839D01*
X78951Y50742D01*
Y52242D02*
X78961Y52144D01*
X78989Y52050D01*
X79035Y51964D01*
X79098Y51888D01*
X79173Y51826D01*
X79260Y51780D01*
X79354Y51751D01*
X79451Y51742D01*
Y53742D02*
X79354Y53732D01*
X79260Y53704D01*
X79173Y53658D01*
X79098Y53595D01*
X79035Y53520D01*
X78989Y53433D01*
X78961Y53339D01*
X78951Y53242D01*
X109451D02*
X109442Y53339D01*
X109413Y53433D01*
X109367Y53520D01*
X109305Y53595D01*
X109229Y53658D01*
X109143Y53704D01*
X109049Y53732D01*
X108951Y53742D01*
X110451D02*
X110354Y53732D01*
X110260Y53704D01*
X110173Y53658D01*
X110098Y53595D01*
X110035Y53520D01*
X109989Y53433D01*
X109961Y53339D01*
X109951Y53242D01*
X108951Y51742D02*
X109049Y51751D01*
X109143Y51780D01*
X109229Y51826D01*
X109305Y51888D01*
X109367Y51964D01*
X109413Y52050D01*
X109442Y52144D01*
X109451Y52242D01*
Y50742D02*
X109442Y50839D01*
X109413Y50933D01*
X109367Y51020D01*
X109305Y51095D01*
X109229Y51158D01*
X109143Y51204D01*
X109049Y51232D01*
X108951Y51242D01*
X79451Y43742D02*
X79354Y43732D01*
X79260Y43704D01*
X79173Y43658D01*
X79098Y43595D01*
X79035Y43520D01*
X78989Y43433D01*
X78961Y43339D01*
X78951Y43242D01*
X108960Y46992D02*
X109056Y47003D01*
X109149Y47032D01*
X109234Y47079D01*
X109308Y47141D01*
X109369Y47217D01*
X109414Y47302D01*
X109442Y47395D01*
X109451Y47492D01*
X78951Y42242D02*
X78961Y42145D01*
X78988Y42052D01*
X79034Y41967D01*
X79095Y41891D01*
X79169Y41829D01*
X79254Y41782D01*
X79346Y41753D01*
X79442Y41742D01*
X109451Y46002D02*
X109442Y46097D01*
X109414Y46189D01*
X109369Y46274D01*
X109308Y46348D01*
X109233Y46409D01*
X109149Y46455D01*
X109057Y46482D01*
X108961Y46492D01*
X109951Y44732D02*
X109961Y44635D01*
X109989Y44542D01*
X110036Y44457D01*
X110098Y44382D01*
X110173Y44321D01*
X110260Y44277D01*
X110353Y44250D01*
X110450Y44242D01*
X108951Y44242D02*
X109049Y44251D01*
X109143Y44280D01*
X109229Y44326D01*
X109305Y44388D01*
X109367Y44464D01*
X109413Y44550D01*
X109442Y44644D01*
X109451Y44742D01*
X121451Y41742D02*
X121549Y41751D01*
X121643Y41780D01*
X121729Y41826D01*
X121805Y41888D01*
X121867Y41964D01*
X121913Y42050D01*
X121942Y42144D01*
X121951Y42242D01*
X121951Y43251D02*
X121940Y43347D01*
X121911Y43439D01*
X121864Y43524D01*
X121802Y43598D01*
X121726Y43659D01*
X121641Y43705D01*
X121548Y43733D01*
X121451Y43742D01*
Y44242D02*
X121549Y44251D01*
X121643Y44280D01*
X121729Y44326D01*
X121805Y44388D01*
X121867Y44464D01*
X121913Y44550D01*
X121942Y44644D01*
X121951Y44742D01*
Y53252D02*
X121941Y53349D01*
X121912Y53443D01*
X121865Y53529D01*
X121802Y53604D01*
X121724Y53665D01*
X121637Y53709D01*
X121542Y53735D01*
X121444Y53741D01*
X122451Y53242D02*
X122446Y53340D01*
X122432Y53437D01*
X122408Y53532D01*
X122375Y53624D01*
X122333Y53713D01*
X122283Y53797D01*
X122224Y53876D01*
X122158Y53949D01*
X122086Y54015D01*
X122007Y54073D01*
X121923Y54124D01*
X121834Y54166D01*
X121741Y54199D01*
X121646Y54223D01*
X121549Y54237D01*
X121451Y54242D01*
Y41242D02*
X121549Y41247D01*
X121646Y41261D01*
X121741Y41285D01*
X121834Y41318D01*
X121923Y41360D01*
X122007Y41410D01*
X122086Y41469D01*
X122158Y41535D01*
X122224Y41607D01*
X122283Y41686D01*
X122333Y41770D01*
X122375Y41859D01*
X122408Y41952D01*
X122432Y42047D01*
X122446Y42144D01*
X122451Y42242D01*
X78451Y42252D02*
X78456Y42154D01*
X78470Y42057D01*
X78494Y41962D01*
X78526Y41869D01*
X78568Y41781D01*
X78618Y41696D01*
X78676Y41617D01*
X78741Y41544D01*
X78813Y41477D01*
X78891Y41418D01*
X78974Y41367D01*
X79062Y41324D01*
X79154Y41290D01*
X79249Y41264D01*
X79346Y41248D01*
X79444Y41242D01*
X79451Y54242D02*
X79353Y54237D01*
X79256Y54223D01*
X79161Y54199D01*
X79069Y54166D01*
X78980Y54124D01*
X78896Y54073D01*
X78817Y54015D01*
X78744Y53949D01*
X78678Y53876D01*
X78620Y53797D01*
X78569Y53713D01*
X78527Y53624D01*
X78494Y53532D01*
X78470Y53437D01*
X78456Y53340D01*
X78451Y53242D01*
X109951Y47492D02*
X109961Y47394D01*
X109989Y47300D01*
X110035Y47214D01*
X110098Y47138D01*
X110173Y47076D01*
X110260Y47030D01*
X110354Y47001D01*
X110451Y46992D01*
X121451D02*
X121549Y47001D01*
X121643Y47030D01*
X121729Y47076D01*
X121805Y47138D01*
X121867Y47214D01*
X121913Y47300D01*
X121942Y47394D01*
X121951Y47492D01*
X110451Y46492D02*
X110354Y46482D01*
X110260Y46454D01*
X110173Y46408D01*
X110098Y46345D01*
X110035Y46270D01*
X109989Y46183D01*
X109961Y46089D01*
X109951Y45992D01*
X121951Y46002D02*
X121942Y46097D01*
X121914Y46189D01*
X121869Y46274D01*
X121808Y46348D01*
X121733Y46409D01*
X121649Y46455D01*
X121557Y46482D01*
X121461Y46492D01*
X97701Y41742D02*
X114451D01*
X79451D02*
X96201D01*
X79451Y43742D02*
X96201D01*
X97701D02*
X114451D01*
X115951Y41742D02*
X121451D01*
X115951Y43742D02*
X121451D01*
X79451Y53742D02*
X108951D01*
X79451Y41242D02*
X121451D01*
X79451Y54242D02*
X121451D01*
X79451Y44242D02*
X86951D01*
X79451Y47492D02*
X86951D01*
X79451Y47992D02*
X86951D01*
X79451Y51242D02*
X86951D01*
X79451Y51742D02*
X108951D01*
X88451Y51242D02*
X108951D01*
X88451Y46492D02*
X104451D01*
X88451Y44242D02*
X104451D01*
X105951D02*
X108951D01*
X105951Y46492D02*
X108951D01*
X110451Y44242D02*
X121451D01*
X110451Y53742D02*
X121451D01*
X88451Y46992D02*
X108951D01*
X110451D02*
X121451D01*
X110451Y46492D02*
X121451D01*
X96701Y42242D02*
Y43242D01*
X97201Y42242D02*
Y43242D01*
X114951Y42242D02*
Y43242D01*
X115451Y42242D02*
Y43242D01*
X122451Y42242D02*
Y53242D01*
X78951Y44742D02*
Y46992D01*
X87451Y44742D02*
Y46992D01*
X78951Y48492D02*
Y50742D01*
X87451Y48492D02*
Y50742D01*
X78951Y52242D02*
Y53242D01*
X109451Y52242D02*
Y53242D01*
Y47492D02*
Y50742D01*
X87951Y47492D02*
Y50742D01*
X104951Y44742D02*
Y45992D01*
X87951Y44742D02*
Y45992D01*
X105451Y44742D02*
Y45992D01*
X109451Y44742D02*
Y45992D01*
X121951Y42242D02*
Y43242D01*
X78951Y42242D02*
Y43242D01*
X78451Y42242D02*
Y53242D01*
X109951Y47492D02*
Y53242D01*
X121951Y47492D02*
Y53242D01*
X109951Y44742D02*
Y45992D01*
X121951Y44742D02*
Y46002D01*
X113739Y50567D02*
X113632Y50673D01*
X113419D01*
X113312Y50567D01*
Y50460D01*
X113419Y50353D01*
X113632D01*
X113739Y50247D01*
Y50140D01*
X113632Y50034D01*
X113419D01*
X113312Y50140D01*
X113952Y50460D02*
Y50140D01*
X114058Y50034D01*
X114378D01*
Y50460D01*
X114592Y50034D02*
X114805D01*
X114698D01*
Y50460D01*
X114592D01*
X115231Y50567D02*
Y50460D01*
X115125D01*
X115338D01*
X115231D01*
Y50140D01*
X115338Y50034D01*
X115978D02*
X115765D01*
X115658Y50140D01*
Y50353D01*
X115765Y50460D01*
X115978D01*
X116084Y50353D01*
Y50247D01*
X115658D01*
X116937Y50034D02*
X117151D01*
X117044D01*
Y50673D01*
X116937Y50567D01*
X117471Y50034D02*
X117684D01*
X117577D01*
Y50673D01*
X117471Y50567D01*
X118004D02*
X118110Y50673D01*
X118324D01*
X118430Y50567D01*
Y50460D01*
X118324Y50353D01*
X118430Y50247D01*
Y50140D01*
X118324Y50034D01*
X118110D01*
X118004Y50140D01*
Y50247D01*
X118110Y50353D01*
X118004Y50460D01*
Y50567D01*
X118110Y50353D02*
X118324D01*
X112939Y48523D02*
X112512D01*
Y48203D01*
X112725Y48310D01*
X112832D01*
X112939Y48203D01*
Y47990D01*
X112832Y47884D01*
X112619D01*
X112512Y47990D01*
X113578Y48523D02*
X113365Y48417D01*
X113152Y48203D01*
Y47990D01*
X113258Y47884D01*
X113472D01*
X113578Y47990D01*
Y48097D01*
X113472Y48203D01*
X113152D01*
X113792Y47884D02*
X114005D01*
X113898D01*
Y48523D01*
X113792Y48417D01*
X114325Y48203D02*
X114751D01*
X114965Y47990D02*
X115071Y47884D01*
X115284D01*
X115391Y47990D01*
Y48417D01*
X115284Y48523D01*
X115071D01*
X114965Y48417D01*
Y48310D01*
X115071Y48203D01*
X115391D01*
X115604Y47990D02*
X115711Y47884D01*
X115924D01*
X116031Y47990D01*
Y48417D01*
X115924Y48523D01*
X115711D01*
X115604Y48417D01*
Y48310D01*
X115711Y48203D01*
X116031D01*
X116244Y47990D02*
X116351Y47884D01*
X116564D01*
X116671Y47990D01*
Y48417D01*
X116564Y48523D01*
X116351D01*
X116244Y48417D01*
Y48310D01*
X116351Y48203D01*
X116671D01*
X116884D02*
X117310D01*
X117524Y47990D02*
X117630Y47884D01*
X117844D01*
X117950Y47990D01*
Y48417D01*
X117844Y48523D01*
X117630D01*
X117524Y48417D01*
Y48310D01*
X117630Y48203D01*
X117950D01*
X118483Y47884D02*
Y48523D01*
X118163Y48203D01*
X118590D01*
X119230Y47884D02*
X118803D01*
X119230Y48310D01*
Y48417D01*
X119123Y48523D01*
X118910D01*
X118803Y48417D01*
X119870Y47884D02*
X119443D01*
X119870Y48310D01*
Y48417D01*
X119763Y48523D01*
X119550D01*
X119443Y48417D01*
X110362Y51190D02*
X110469Y51084D01*
X110682D01*
X110789Y51190D01*
Y51617D01*
X110682Y51723D01*
X110469D01*
X110362Y51617D01*
Y51510D01*
X110469Y51403D01*
X110789D01*
X111002Y51617D02*
X111108Y51723D01*
X111322D01*
X111428Y51617D01*
Y51190D01*
X111322Y51084D01*
X111108D01*
X111002Y51190D01*
Y51617D01*
X112068Y51084D02*
X111642D01*
X112068Y51510D01*
Y51617D01*
X111961Y51723D01*
X111748D01*
X111642Y51617D01*
X113348D02*
X113241Y51723D01*
X113028D01*
X112921Y51617D01*
Y51190D01*
X113028Y51084D01*
X113241D01*
X113348Y51190D01*
X113561Y51084D02*
X113774D01*
X113668D01*
Y51723D01*
X113561D01*
X114094Y51084D02*
X114307D01*
X114201D01*
Y51510D01*
X114094D01*
X114627Y51084D02*
Y51510D01*
X114947D01*
X115054Y51403D01*
Y51084D01*
X115374Y51617D02*
Y51510D01*
X115267D01*
X115480D01*
X115374D01*
Y51190D01*
X115480Y51084D01*
X116440D02*
Y51723D01*
X116653Y51510D01*
X116867Y51723D01*
Y51084D01*
X117186D02*
X117400D01*
X117506Y51190D01*
Y51403D01*
X117400Y51510D01*
X117186D01*
X117080Y51403D01*
Y51190D01*
X117186Y51084D01*
X117826D02*
X118040D01*
X118146Y51190D01*
Y51403D01*
X118040Y51510D01*
X117826D01*
X117720Y51403D01*
Y51190D01*
X117826Y51084D01*
X118359Y51510D02*
Y51084D01*
Y51297D01*
X118466Y51403D01*
X118573Y51510D01*
X118679D01*
X119319Y51084D02*
X119106D01*
X118999Y51190D01*
Y51403D01*
X119106Y51510D01*
X119319D01*
X119426Y51403D01*
Y51297D01*
X118999D01*
X120279Y51084D02*
Y51723D01*
X120599D01*
X120705Y51617D01*
Y51403D01*
X120599Y51297D01*
X120279D01*
X120492D02*
X120705Y51084D01*
X121345Y51723D02*
Y51084D01*
X121025D01*
X120919Y51190D01*
Y51403D01*
X121025Y51510D01*
X121345D01*
X121558Y51084D02*
Y51190D01*
X121665D01*
Y51084D01*
X121558D01*
X111962Y49723D02*
Y49084D01*
X112282D01*
X112389Y49190D01*
Y49297D01*
X112282Y49403D01*
X111962D01*
X112282D01*
X112389Y49510D01*
Y49617D01*
X112282Y49723D01*
X111962D01*
X112708Y49084D02*
X112922D01*
X113028Y49190D01*
Y49403D01*
X112922Y49510D01*
X112708D01*
X112602Y49403D01*
Y49190D01*
X112708Y49084D01*
X113668Y49510D02*
X113348D01*
X113242Y49403D01*
Y49190D01*
X113348Y49084D01*
X113668D01*
X113988Y49510D02*
X114201D01*
X114308Y49403D01*
Y49084D01*
X113988D01*
X113881Y49190D01*
X113988Y49297D01*
X114308D01*
X115161Y49084D02*
Y49723D01*
X115481D01*
X115587Y49617D01*
Y49403D01*
X115481Y49297D01*
X115161D01*
X115374D02*
X115587Y49084D01*
X115907Y49510D02*
X116121D01*
X116227Y49403D01*
Y49084D01*
X115907D01*
X115801Y49190D01*
X115907Y49297D01*
X116227D01*
X116547Y49617D02*
Y49510D01*
X116441D01*
X116654D01*
X116547D01*
Y49190D01*
X116654Y49084D01*
X117080D02*
X117294D01*
X117400Y49190D01*
Y49403D01*
X117294Y49510D01*
X117080D01*
X116974Y49403D01*
Y49190D01*
X117080Y49084D01*
X117613D02*
Y49510D01*
X117933D01*
X118040Y49403D01*
Y49084D01*
X119320Y49723D02*
X118893D01*
Y49403D01*
X119106D01*
X118893D01*
Y49084D01*
X119533Y49723D02*
Y49084D01*
X119959D01*
X120173D02*
Y49190D01*
X120279D01*
Y49084D01*
X120173D01*
X95424Y59192D02*
X95829Y56434D01*
X95424Y59192D02*
X95829Y58908D01*
X95140Y58787D02*
X95424Y59192D01*
X107374Y62059D02*
X108754Y57584D01*
X107374Y62059D02*
X107823Y61850D01*
X107165Y61611D02*
X107374Y62059D01*
X91624Y56259D02*
X91824D01*
X91724D01*
Y55659D01*
X91624D01*
X91824D01*
X92124D02*
Y56259D01*
X92524Y55659D01*
Y56259D01*
X93124Y56159D02*
X93024Y56259D01*
X92824D01*
X92724Y56159D01*
Y56059D01*
X92824Y55959D01*
X93024D01*
X93124Y55859D01*
Y55759D01*
X93024Y55659D01*
X92824D01*
X92724Y55759D01*
X93323Y56259D02*
X93723D01*
X93523D01*
Y55659D01*
X93923D02*
Y56059D01*
X94123Y56259D01*
X94323Y56059D01*
Y55659D01*
Y55959D01*
X93923D01*
X94523Y56259D02*
Y55659D01*
X94923D01*
X95123Y56259D02*
Y55659D01*
X95523D01*
X96722D02*
X96323D01*
X96722Y56059D01*
Y56159D01*
X96622Y56259D01*
X96422D01*
X96323Y56159D01*
X97922Y56259D02*
X97722D01*
X97822D01*
Y55759D01*
X97722Y55659D01*
X97622D01*
X97522Y55759D01*
X98122Y56259D02*
Y55759D01*
X98222Y55659D01*
X98422D01*
X98522Y55759D01*
Y56259D01*
X98722Y55659D02*
Y56259D01*
X98922Y56059D01*
X99122Y56259D01*
Y55659D01*
X99322D02*
Y56259D01*
X99621D01*
X99721Y56159D01*
Y55959D01*
X99621Y55859D01*
X99322D01*
X100321Y56259D02*
X99921D01*
Y55659D01*
X100321D01*
X99921Y55959D02*
X100121D01*
X100521Y55659D02*
Y56259D01*
X100821D01*
X100921Y56159D01*
Y55959D01*
X100821Y55859D01*
X100521D01*
X100721D02*
X100921Y55659D01*
X101521Y56159D02*
X101421Y56259D01*
X101221D01*
X101121Y56159D01*
Y56059D01*
X101221Y55959D01*
X101421D01*
X101521Y55859D01*
Y55759D01*
X101421Y55659D01*
X101221D01*
X101121Y55759D01*
X92874Y55209D02*
X92674D01*
X92574Y55109D01*
Y54709D01*
X92674Y54609D01*
X92874D01*
X92974Y54709D01*
Y55109D01*
X92874Y55209D01*
X93174Y54609D02*
Y55209D01*
X93574Y54609D01*
Y55209D01*
X94773Y55109D02*
X94673Y55209D01*
X94473D01*
X94373Y55109D01*
Y54709D01*
X94473Y54609D01*
X94673D01*
X94773Y54709D01*
X95273Y55209D02*
X95073D01*
X94973Y55109D01*
Y54709D01*
X95073Y54609D01*
X95273D01*
X95373Y54709D01*
Y55109D01*
X95273Y55209D01*
X95573Y54609D02*
Y55209D01*
X95973Y54609D01*
Y55209D01*
X96173Y54609D02*
Y55209D01*
X96573Y54609D01*
Y55209D01*
X97173D02*
X96773D01*
Y54609D01*
X97173D01*
X96773Y54909D02*
X96973D01*
X97772Y55109D02*
X97672Y55209D01*
X97472D01*
X97372Y55109D01*
Y54709D01*
X97472Y54609D01*
X97672D01*
X97772Y54709D01*
X97972Y55209D02*
X98372D01*
X98172D01*
Y54609D01*
X98872Y55209D02*
X98672D01*
X98572Y55109D01*
Y54709D01*
X98672Y54609D01*
X98872D01*
X98972Y54709D01*
Y55109D01*
X98872Y55209D01*
X99172Y54609D02*
Y55209D01*
X99472D01*
X99572Y55109D01*
Y54909D01*
X99472Y54809D01*
X99172D01*
X99372D02*
X99572Y54609D01*
X82124Y71709D02*
Y72109D01*
X82324Y72309D01*
X82524Y72109D01*
Y71709D01*
Y72009D01*
X82124D01*
X85674Y69709D02*
Y70109D01*
X85874Y70309D01*
X86074Y70109D01*
Y69709D01*
Y70009D01*
X85674D01*
X86624Y71809D02*
Y72209D01*
X86824Y72409D01*
X87024Y72209D01*
Y71809D01*
Y72109D01*
X86624D01*
X89724Y68709D02*
Y69109D01*
X89924Y69309D01*
X90124Y69109D01*
Y68709D01*
Y69009D01*
X89724D01*
X86424Y74809D02*
Y75209D01*
X86624Y75409D01*
X86824Y75209D01*
Y74809D01*
Y75109D01*
X86424D01*
X86774Y76859D02*
Y77259D01*
X86974Y77459D01*
X87174Y77259D01*
Y76859D01*
Y77159D01*
X86774D01*
X90224Y76159D02*
Y76559D01*
X90424Y76759D01*
X90624Y76559D01*
Y76159D01*
Y76459D01*
X90224D01*
X91174Y76159D02*
Y76559D01*
X91374Y76759D01*
X91574Y76559D01*
Y76159D01*
Y76459D01*
X91174D01*
X98424Y72909D02*
Y73309D01*
X98624Y73509D01*
X98824Y73309D01*
Y72909D01*
Y73209D01*
X98424D01*
X100674Y71459D02*
Y71859D01*
X100874Y72059D01*
X101074Y71859D01*
Y71459D01*
Y71759D01*
X100674D01*
X101674Y73559D02*
Y73959D01*
X101874Y74159D01*
X102074Y73959D01*
Y73559D01*
Y73859D01*
X101674D01*
Y75109D02*
Y75509D01*
X101874Y75709D01*
X102074Y75509D01*
Y75109D01*
Y75409D01*
X101674D01*
X101724Y76309D02*
Y76709D01*
X101924Y76909D01*
X102124Y76709D01*
Y76309D01*
Y76609D01*
X101724D01*
X102524Y78459D02*
Y78859D01*
X102724Y79059D01*
X102924Y78859D01*
Y78459D01*
Y78759D01*
X102524D01*
X103724Y78459D02*
Y78859D01*
X103924Y79059D01*
X104124Y78859D01*
Y78459D01*
Y78759D01*
X103724D01*
X104924Y78459D02*
Y78859D01*
X105124Y79059D01*
X105324Y78859D01*
Y78459D01*
Y78759D01*
X104924D01*
X111874Y82809D02*
Y83209D01*
X112074Y83409D01*
X112274Y83209D01*
Y82809D01*
Y83109D01*
X111874D01*
X114074Y82809D02*
Y83209D01*
X114274Y83409D01*
X114474Y83209D01*
Y82809D01*
Y83109D01*
X114074D01*
X117874Y82809D02*
Y83209D01*
X118074Y83409D01*
X118274Y83209D01*
Y82809D01*
Y83109D01*
X117874D01*
X118924Y82809D02*
Y83209D01*
X119124Y83409D01*
X119324Y83209D01*
Y82809D01*
Y83109D01*
X118924D01*
X113474Y61159D02*
Y61559D01*
X113674Y61759D01*
X113874Y61559D01*
Y61159D01*
Y61459D01*
X113474D01*
X106504Y61334D02*
Y61734D01*
X106704Y61934D01*
X106904Y61734D01*
Y61334D01*
Y61634D01*
X106504D01*
X79174Y62009D02*
Y62409D01*
X79374Y62609D01*
X79574Y62409D01*
Y62009D01*
Y62309D01*
X79174D01*
X79324Y86509D02*
Y86909D01*
X79524Y87109D01*
X79724Y86909D01*
Y86509D01*
Y86809D01*
X79324D01*
X105374Y57109D02*
X105574D01*
X105474D01*
Y56509D01*
X105374D01*
X105574D01*
X105874D02*
Y57109D01*
X106274Y56509D01*
Y57109D01*
X106874Y57009D02*
X106774Y57109D01*
X106574D01*
X106474Y57009D01*
Y56909D01*
X106574Y56809D01*
X106774D01*
X106874Y56709D01*
Y56609D01*
X106774Y56509D01*
X106574D01*
X106474Y56609D01*
X107073Y57109D02*
X107473D01*
X107273D01*
Y56509D01*
X107673D02*
Y56909D01*
X107873Y57109D01*
X108073Y56909D01*
Y56509D01*
Y56809D01*
X107673D01*
X108273Y57109D02*
Y56509D01*
X108673D01*
X108873Y57109D02*
Y56509D01*
X109273D01*
X110472Y57009D02*
X110372Y57109D01*
X110172D01*
X110073Y57009D01*
Y56909D01*
X110172Y56809D01*
X110372D01*
X110472Y56709D01*
Y56609D01*
X110372Y56509D01*
X110172D01*
X110073Y56609D01*
X110672Y57109D02*
X111072D01*
X110872D01*
Y56509D01*
X111272D02*
Y56909D01*
X111472Y57109D01*
X111672Y56909D01*
Y56509D01*
Y56809D01*
X111272D01*
X111872Y56509D02*
Y57109D01*
X112272Y56509D01*
Y57109D01*
X112472D02*
Y56509D01*
X112772D01*
X112872Y56609D01*
Y57009D01*
X112772Y57109D01*
X112472D01*
X113371D02*
X113172D01*
X113072Y57009D01*
Y56609D01*
X113172Y56509D01*
X113371D01*
X113471Y56609D01*
Y57009D01*
X113371Y57109D01*
X114071D02*
X113671D01*
Y56809D01*
X113871D01*
X113671D01*
Y56509D01*
X114671Y57109D02*
X114271D01*
Y56809D01*
X114471D01*
X114271D01*
Y56509D01*
X115471Y57109D02*
Y56509D01*
X115671Y56709D01*
X115871Y56509D01*
Y57109D01*
X116071D02*
X116271D01*
X116171D01*
Y56509D01*
X116071D01*
X116271D01*
X116570Y57109D02*
X116970D01*
X116770D01*
Y56509D01*
X117170Y57109D02*
Y56509D01*
Y56809D01*
X117570D01*
Y57109D01*
Y56509D01*
X118770D02*
X118370D01*
X118770Y56909D01*
Y57009D01*
X118670Y57109D01*
X118470D01*
X118370Y57009D01*
X119969D02*
X119869Y57109D01*
X119669D01*
X119569Y57009D01*
Y56909D01*
X119669Y56809D01*
X119869D01*
X119969Y56709D01*
Y56609D01*
X119869Y56509D01*
X119669D01*
X119569Y56609D01*
X120169Y57109D02*
X120569D01*
X120369D01*
Y56509D01*
X120769D02*
Y56909D01*
X120969Y57109D01*
X121169Y56909D01*
Y56509D01*
Y56809D01*
X120769D01*
X121369Y57109D02*
X121569D01*
X121469D01*
Y56509D01*
X121369D01*
X121569D01*
X121869D02*
Y57109D01*
X122269Y56509D01*
Y57109D01*
X122469D02*
Y56509D01*
X122868D01*
X123468Y57109D02*
X123068D01*
Y56509D01*
X123468D01*
X123068Y56809D02*
X123268D01*
X124068Y57009D02*
X123968Y57109D01*
X123768D01*
X123668Y57009D01*
Y56909D01*
X123768Y56809D01*
X123968D01*
X124068Y56709D01*
Y56609D01*
X123968Y56509D01*
X123768D01*
X123668Y56609D01*
X124668Y57009D02*
X124568Y57109D01*
X124368D01*
X124268Y57009D01*
Y56909D01*
X124368Y56809D01*
X124568D01*
X124668Y56709D01*
Y56609D01*
X124568Y56509D01*
X124368D01*
X124268Y56609D01*
X125867Y57009D02*
X125767Y57109D01*
X125568D01*
X125468Y57009D01*
Y56909D01*
X125568Y56809D01*
X125767D01*
X125867Y56709D01*
Y56609D01*
X125767Y56509D01*
X125568D01*
X125468Y56609D01*
X126067Y57109D02*
X126467D01*
X126267D01*
Y56509D01*
X127067Y57109D02*
X126667D01*
Y56509D01*
X127067D01*
X126667Y56809D02*
X126867D01*
X127667Y57109D02*
X127267D01*
Y56509D01*
X127667D01*
X127267Y56809D02*
X127467D01*
X127867Y57109D02*
Y56509D01*
X128267D01*
X105374Y56109D02*
Y55509D01*
X105574Y55709D01*
X105774Y55509D01*
Y56109D01*
X105974Y55509D02*
Y55909D01*
X106174Y56109D01*
X106374Y55909D01*
Y55509D01*
Y55809D01*
X105974D01*
X106974Y56009D02*
X106874Y56109D01*
X106674D01*
X106574Y56009D01*
Y55909D01*
X106674Y55809D01*
X106874D01*
X106974Y55709D01*
Y55609D01*
X106874Y55509D01*
X106674D01*
X106574Y55609D01*
X107173Y56109D02*
Y55509D01*
Y55809D01*
X107573D01*
Y56109D01*
Y55509D01*
X108173Y56109D02*
X107773D01*
Y55509D01*
X108173D01*
X107773Y55809D02*
X107973D01*
X108373Y55509D02*
Y56109D01*
X108673D01*
X108773Y56009D01*
Y55809D01*
X108673Y55709D01*
X108373D01*
X108573D02*
X108773Y55509D01*
X109373Y56009D02*
X109273Y56109D01*
X109073D01*
X108973Y56009D01*
Y55909D01*
X109073Y55809D01*
X109273D01*
X109373Y55709D01*
Y55609D01*
X109273Y55509D01*
X109073D01*
X108973Y55609D01*
X110472Y56109D02*
X110272D01*
X110172Y56009D01*
Y55609D01*
X110272Y55509D01*
X110472D01*
X110572Y55609D01*
Y56009D01*
X110472Y56109D01*
X110772Y55509D02*
Y56109D01*
X111172Y55509D01*
Y56109D01*
X111972D02*
X112372D01*
X112172D01*
Y55509D01*
X112872Y56109D02*
X112672D01*
X112572Y56009D01*
Y55609D01*
X112672Y55509D01*
X112872D01*
X112972Y55609D01*
Y56009D01*
X112872Y56109D01*
X113172Y55509D02*
Y56109D01*
X113471D01*
X113571Y56009D01*
Y55809D01*
X113471Y55709D01*
X113172D01*
X114371Y55509D02*
Y55909D01*
X114571Y56109D01*
X114771Y55909D01*
Y55509D01*
Y55809D01*
X114371D01*
X114971Y55509D02*
Y56109D01*
X115371Y55509D01*
Y56109D01*
X115571D02*
Y55509D01*
X115871D01*
X115971Y55609D01*
Y56009D01*
X115871Y56109D01*
X115571D01*
X116770Y55509D02*
X116970D01*
X116870D01*
Y56109D01*
X116770Y56009D01*
X117870Y56109D02*
Y55509D01*
X118270D01*
X118770Y56109D02*
X118570D01*
X118470Y56009D01*
Y55609D01*
X118570Y55509D01*
X118770D01*
X118870Y55609D01*
Y56009D01*
X118770Y56109D01*
X119469Y56009D02*
X119370Y56109D01*
X119170D01*
X119070Y56009D01*
Y55609D01*
X119170Y55509D01*
X119370D01*
X119469Y55609D01*
X119669Y56109D02*
Y55509D01*
Y55709D01*
X120069Y56109D01*
X119769Y55809D01*
X120069Y55509D01*
X120869Y56109D02*
Y55509D01*
X121069Y55709D01*
X121269Y55509D01*
Y56109D01*
X121469Y55509D02*
Y55909D01*
X121669Y56109D01*
X121869Y55909D01*
Y55509D01*
Y55809D01*
X121469D01*
X122469Y56009D02*
X122369Y56109D01*
X122169D01*
X122069Y56009D01*
Y55909D01*
X122169Y55809D01*
X122369D01*
X122469Y55709D01*
Y55609D01*
X122369Y55509D01*
X122169D01*
X122069Y55609D01*
X122668Y56109D02*
Y55509D01*
Y55809D01*
X123068D01*
Y56109D01*
Y55509D01*
X123668Y56109D02*
X123268D01*
Y55509D01*
X123668D01*
X123268Y55809D02*
X123468D01*
X123868Y55509D02*
Y56109D01*
X124168D01*
X124268Y56009D01*
Y55809D01*
X124168Y55709D01*
X123868D01*
X124068D02*
X124268Y55509D01*
X125368Y56109D02*
X125168D01*
X125068Y56009D01*
Y55609D01*
X125168Y55509D01*
X125368D01*
X125468Y55609D01*
Y56009D01*
X125368Y56109D01*
X125667Y55509D02*
Y56109D01*
X126067Y55509D01*
Y56109D01*
X126867D02*
Y55509D01*
X127167D01*
X127267Y55609D01*
Y55709D01*
X127167Y55809D01*
X126867D01*
X127167D01*
X127267Y55909D01*
Y56009D01*
X127167Y56109D01*
X126867D01*
X127767D02*
X127567D01*
X127467Y56009D01*
Y55609D01*
X127567Y55509D01*
X127767D01*
X127867Y55609D01*
Y56009D01*
X127767Y56109D01*
X128067D02*
X128467D01*
X128267D01*
Y55509D01*
X128667Y56109D02*
X129066D01*
X128866D01*
Y55509D01*
X129566Y56109D02*
X129366D01*
X129266Y56009D01*
Y55609D01*
X129366Y55509D01*
X129566D01*
X129666Y55609D01*
Y56009D01*
X129566Y56109D01*
X129866Y55509D02*
Y56109D01*
X130066Y55909D01*
X130266Y56109D01*
Y55509D01*
X105374Y54509D02*
Y54909D01*
X105574Y55109D01*
X105774Y54909D01*
Y54509D01*
Y54809D01*
X105374D01*
X105974Y54509D02*
Y55109D01*
X106374Y54509D01*
Y55109D01*
X106574D02*
Y54509D01*
X106874D01*
X106974Y54609D01*
Y55009D01*
X106874Y55109D01*
X106574D01*
X107773D02*
X108173D01*
X107973D01*
Y54509D01*
X108373Y55109D02*
X108573D01*
X108473D01*
Y54509D01*
X108373D01*
X108573D01*
X109273Y55009D02*
X109173Y55109D01*
X108973D01*
X108873Y55009D01*
Y54609D01*
X108973Y54509D01*
X109173D01*
X109273Y54609D01*
Y54809D01*
X109073D01*
X109473Y55109D02*
Y54509D01*
Y54809D01*
X109873D01*
Y55109D01*
Y54509D01*
X110073Y55109D02*
X110472D01*
X110272D01*
Y54509D01*
X111072Y55109D02*
X110672D01*
Y54509D01*
X111072D01*
X110672Y54809D02*
X110872D01*
X111272Y54509D02*
Y55109D01*
X111672Y54509D01*
Y55109D01*
X112872Y55009D02*
X112772Y55109D01*
X112572D01*
X112472Y55009D01*
Y54909D01*
X112572Y54809D01*
X112772D01*
X112872Y54709D01*
Y54609D01*
X112772Y54509D01*
X112572D01*
X112472Y54609D01*
X113471Y55009D02*
X113371Y55109D01*
X113172D01*
X113072Y55009D01*
Y54609D01*
X113172Y54509D01*
X113371D01*
X113471Y54609D01*
X113671Y54509D02*
Y55109D01*
X113971D01*
X114071Y55009D01*
Y54809D01*
X113971Y54709D01*
X113671D01*
X113871D02*
X114071Y54509D01*
X114671Y55109D02*
X114271D01*
Y54509D01*
X114671D01*
X114271Y54809D02*
X114471D01*
X114871Y55109D02*
Y54509D01*
X115071Y54709D01*
X115271Y54509D01*
Y55109D01*
X81624Y78809D02*
Y79209D01*
X81824Y79409D01*
X82024Y79209D01*
Y78809D01*
Y79109D01*
X81624D01*
X82674Y78809D02*
Y79209D01*
X82874Y79409D01*
X83074Y79209D01*
Y78809D01*
Y79109D01*
X82674D01*
X83674Y78809D02*
Y79209D01*
X83874Y79409D01*
X84074Y79209D01*
Y78809D01*
Y79109D01*
X83674D01*
X84624Y78809D02*
Y79209D01*
X84824Y79409D01*
X85024Y79209D01*
Y78809D01*
Y79109D01*
X84624D01*
X85624Y78809D02*
Y79209D01*
X85824Y79409D01*
X86024Y79209D01*
Y78809D01*
Y79109D01*
X85624D01*
X88674Y78809D02*
Y79209D01*
X88874Y79409D01*
X89074Y79209D01*
Y78809D01*
Y79109D01*
X88674D01*
X89724Y78809D02*
Y79209D01*
X89924Y79409D01*
X90124Y79209D01*
Y78809D01*
Y79109D01*
X89724D01*
X90724Y78809D02*
Y79209D01*
X90924Y79409D01*
X91124Y79209D01*
Y78809D01*
Y79109D01*
X90724D01*
X91674Y78809D02*
Y79209D01*
X91874Y79409D01*
X92074Y79209D01*
Y78809D01*
Y79109D01*
X91674D01*
X92674Y78809D02*
Y79209D01*
X92874Y79409D01*
X93074Y79209D01*
Y78809D01*
Y79109D01*
X92674D01*
X96224Y78709D02*
Y79109D01*
X96424Y79309D01*
X96624Y79109D01*
Y78709D01*
Y79009D01*
X96224D01*
X97274Y78709D02*
Y79109D01*
X97474Y79309D01*
X97674Y79109D01*
Y78709D01*
Y79009D01*
X97274D01*
X98274Y78709D02*
Y79109D01*
X98474Y79309D01*
X98674Y79109D01*
Y78709D01*
Y79009D01*
X98274D01*
X99224Y78709D02*
Y79109D01*
X99424Y79309D01*
X99624Y79109D01*
Y78709D01*
Y79009D01*
X99224D01*
X100224Y78709D02*
Y79109D01*
X100424Y79309D01*
X100624Y79109D01*
Y78709D01*
Y79009D01*
X100224D01*
X83579Y67134D02*
Y67534D01*
X83779Y67734D01*
X83979Y67534D01*
Y67134D01*
Y67434D01*
X83579D01*
D44*
X110862Y52134D02*
Y52800D01*
X111195Y53133D01*
X111528Y52800D01*
Y52134D01*
Y52633D01*
X110862D01*
X112528Y52800D02*
X112028D01*
X111862Y52633D01*
Y52300D01*
X112028Y52134D01*
X112528D01*
X113028Y52967D02*
Y52800D01*
X112861D01*
X113195D01*
X113028D01*
Y52300D01*
X113195Y52134D01*
X113694D02*
X114028D01*
X113861D01*
Y52800D01*
X113694D01*
X114527D02*
X114861Y52134D01*
X115194Y52800D01*
X116027Y52134D02*
X115694D01*
X115527Y52300D01*
Y52633D01*
X115694Y52800D01*
X116027D01*
X116194Y52633D01*
Y52467D01*
X115527D01*
X117527Y53133D02*
Y52134D01*
X117860Y52467D01*
X118193Y52134D01*
Y53133D01*
X118693Y52800D02*
X119026D01*
X119193Y52633D01*
Y52134D01*
X118693D01*
X118526Y52300D01*
X118693Y52467D01*
X119193D01*
X119526Y52800D02*
X119859Y52134D01*
X120192Y52800D01*
X121025Y52134D02*
X120692D01*
X120526Y52300D01*
Y52633D01*
X120692Y52800D01*
X121025D01*
X121192Y52633D01*
Y52467D01*
X120526D01*
X81974Y93759D02*
X82307D01*
X82141D01*
Y94759D01*
X81974Y94592D01*
X83474Y93759D02*
X82807D01*
X83474Y94426D01*
Y94592D01*
X83307Y94759D01*
X82974D01*
X82807Y94592D01*
X83807Y93759D02*
X84140Y94093D01*
Y94426D01*
X83807Y94759D01*
X86306D02*
X85640D01*
Y94259D01*
X85973Y94426D01*
X86139D01*
X86306Y94259D01*
Y93926D01*
X86139Y93759D01*
X85806D01*
X85640Y93926D01*
X86639Y94592D02*
X86806Y94759D01*
X87139D01*
X87306Y94592D01*
Y93926D01*
X87139Y93759D01*
X86806D01*
X86639Y93926D01*
Y94592D01*
X88639Y94759D02*
Y93759D01*
Y94259D01*
X89305D01*
Y94759D01*
Y93759D01*
X90138Y94759D02*
X89805D01*
X89638Y94592D01*
Y93926D01*
X89805Y93759D01*
X90138D01*
X90305Y93926D01*
Y94592D01*
X90138Y94759D01*
X90638D02*
Y93759D01*
X91304D01*
X92304Y94759D02*
X91638D01*
Y93759D01*
X92304D01*
X91638Y94259D02*
X91971D01*
X93304Y94592D02*
X93137Y94759D01*
X92804D01*
X92637Y94592D01*
Y94426D01*
X92804Y94259D01*
X93137D01*
X93304Y94093D01*
Y93926D01*
X93137Y93759D01*
X92804D01*
X92637Y93926D01*
X94970Y93759D02*
X94637Y94093D01*
Y94426D01*
X94970Y94759D01*
X95470Y93759D02*
Y94426D01*
X95803Y94759D01*
X96136Y94426D01*
Y93759D01*
Y94259D01*
X95470D01*
X96469Y93759D02*
X96803Y94093D01*
Y94426D01*
X96469Y94759D01*
X98302Y93759D02*
Y94759D01*
X98635Y94426D01*
X98969Y94759D01*
Y93759D01*
X99302Y94759D02*
Y93926D01*
X99468Y93759D01*
X99802D01*
X99968Y93926D01*
Y94759D01*
X100968Y94592D02*
X100801Y94759D01*
X100468D01*
X100301Y94592D01*
Y94426D01*
X100468Y94259D01*
X100801D01*
X100968Y94093D01*
Y93926D01*
X100801Y93759D01*
X100468D01*
X100301Y93926D01*
X101301Y94759D02*
X101968D01*
X101634D01*
Y93759D01*
X103300D02*
Y94759D01*
X103800D01*
X103967Y94592D01*
Y94259D01*
X103800Y94093D01*
X103300D01*
X103634D02*
X103967Y93759D01*
X104967Y94759D02*
X104300D01*
Y93759D01*
X104967D01*
X104300Y94259D02*
X104633D01*
X105300Y93759D02*
Y94759D01*
X105633Y94426D01*
X105966Y94759D01*
Y93759D01*
X106300D02*
Y94426D01*
X106633Y94759D01*
X106966Y94426D01*
Y93759D01*
Y94259D01*
X106300D01*
X107299Y94759D02*
X107632D01*
X107466D01*
Y93759D01*
X107299D01*
X107632D01*
X108132D02*
Y94759D01*
X108799Y93759D01*
Y94759D01*
X110798Y94592D02*
X110631Y94759D01*
X110298D01*
X110132Y94592D01*
Y93926D01*
X110298Y93759D01*
X110631D01*
X110798Y93926D01*
X111131Y94759D02*
Y93759D01*
X111798D01*
X112797Y94759D02*
X112131D01*
Y93759D01*
X112797D01*
X112131Y94259D02*
X112464D01*
X113131Y93759D02*
Y94426D01*
X113464Y94759D01*
X113797Y94426D01*
Y93759D01*
Y94259D01*
X113131D01*
X114130Y93759D02*
Y94759D01*
X114630D01*
X114797Y94592D01*
Y94259D01*
X114630Y94093D01*
X114130D01*
X114464D02*
X114797Y93759D01*
X116630Y94759D02*
X116296D01*
X116130Y94592D01*
Y93926D01*
X116296Y93759D01*
X116630D01*
X116796Y93926D01*
Y94592D01*
X116630Y94759D01*
X117796D02*
X117129D01*
Y94259D01*
X117463D01*
X117129D01*
Y93759D01*
X119795Y94592D02*
X119629Y94759D01*
X119295D01*
X119129Y94592D01*
Y94426D01*
X119295Y94259D01*
X119629D01*
X119795Y94093D01*
Y93926D01*
X119629Y93759D01*
X119295D01*
X119129Y93926D01*
X120628Y94759D02*
X120295D01*
X120128Y94592D01*
Y93926D01*
X120295Y93759D01*
X120628D01*
X120795Y93926D01*
Y94592D01*
X120628Y94759D01*
X121128D02*
Y93759D01*
X121795D01*
X122128Y94759D02*
Y93759D01*
X122628D01*
X122794Y93926D01*
Y94592D01*
X122628Y94759D01*
X122128D01*
X123794D02*
X123127D01*
Y93759D01*
X123794D01*
X123127Y94259D02*
X123461D01*
X124127Y93759D02*
Y94759D01*
X124627D01*
X124794Y94592D01*
Y94259D01*
X124627Y94093D01*
X124127D01*
X124460D02*
X124794Y93759D01*
X81962Y97674D02*
X82295D01*
X82129D01*
Y98673D01*
X81962Y98507D01*
X82795D02*
X82962Y98673D01*
X83295D01*
X83462Y98507D01*
Y97840D01*
X83295Y97674D01*
X82962D01*
X82795Y97840D01*
Y98507D01*
X83795Y97674D02*
X84128Y98007D01*
Y98340D01*
X83795Y98673D01*
X86294Y98507D02*
X86127Y98673D01*
X85794D01*
X85627Y98507D01*
Y97840D01*
X85794Y97674D01*
X86127D01*
X86294Y97840D01*
Y98173D01*
X85961D01*
X86627Y97674D02*
Y98673D01*
X87127D01*
X87294Y98507D01*
Y98173D01*
X87127Y98007D01*
X86627D01*
X86960D02*
X87294Y97674D01*
X88293Y98673D02*
X87627D01*
Y97674D01*
X88293D01*
X87627Y98173D02*
X87960D01*
X89293Y98673D02*
X88627D01*
Y97674D01*
X89293D01*
X88627Y98173D02*
X88960D01*
X89626Y97674D02*
Y98673D01*
X90293Y97674D01*
Y98673D01*
X92292Y98507D02*
X92125Y98673D01*
X91792D01*
X91626Y98507D01*
Y98340D01*
X91792Y98173D01*
X92125D01*
X92292Y98007D01*
Y97840D01*
X92125Y97674D01*
X91792D01*
X91626Y97840D01*
X93125Y98673D02*
X92792D01*
X92625Y98507D01*
Y97840D01*
X92792Y97674D01*
X93125D01*
X93292Y97840D01*
Y98507D01*
X93125Y98673D01*
X93625D02*
Y97674D01*
X94291D01*
X94625Y98673D02*
Y97674D01*
X95124D01*
X95291Y97840D01*
Y98507D01*
X95124Y98673D01*
X94625D01*
X96291D02*
X95624D01*
Y97674D01*
X96291D01*
X95624Y98173D02*
X95957D01*
X96624Y97674D02*
Y98673D01*
X97124D01*
X97290Y98507D01*
Y98173D01*
X97124Y98007D01*
X96624D01*
X96957D02*
X97290Y97674D01*
X98623D02*
Y98673D01*
X98956Y98340D01*
X99290Y98673D01*
Y97674D01*
X99623D02*
Y98340D01*
X99956Y98673D01*
X100289Y98340D01*
Y97674D01*
Y98173D01*
X99623D01*
X101289Y98507D02*
X101122Y98673D01*
X100789D01*
X100623Y98507D01*
Y98340D01*
X100789Y98173D01*
X101122D01*
X101289Y98007D01*
Y97840D01*
X101122Y97674D01*
X100789D01*
X100623Y97840D01*
X101622Y98673D02*
Y97674D01*
Y98007D01*
X102289Y98673D01*
X101789Y98173D01*
X102289Y97674D01*
X103622Y98673D02*
Y97674D01*
X104122D01*
X104288Y97840D01*
Y98007D01*
X104122Y98173D01*
X103622D01*
X104122D01*
X104288Y98340D01*
Y98507D01*
X104122Y98673D01*
X103622D01*
X105121D02*
X104788D01*
X104621Y98507D01*
Y97840D01*
X104788Y97674D01*
X105121D01*
X105288Y97840D01*
Y98507D01*
X105121Y98673D01*
X105621D02*
X106287D01*
X105954D01*
Y97674D01*
X106621Y98673D02*
Y97674D01*
Y98173D01*
X107287D01*
Y98673D01*
Y97674D01*
X109286Y98507D02*
X109120Y98673D01*
X108787D01*
X108620Y98507D01*
Y98340D01*
X108787Y98173D01*
X109120D01*
X109286Y98007D01*
Y97840D01*
X109120Y97674D01*
X108787D01*
X108620Y97840D01*
X109620Y98673D02*
X109953D01*
X109786D01*
Y97674D01*
X109620D01*
X109953D01*
X110453Y98673D02*
Y97674D01*
X110953D01*
X111119Y97840D01*
Y98507D01*
X110953Y98673D01*
X110453D01*
X112119D02*
X111452D01*
Y97674D01*
X112119D01*
X111452Y98173D02*
X111786D01*
X113119Y98507D02*
X112952Y98673D01*
X112619D01*
X112452Y98507D01*
Y98340D01*
X112619Y98173D01*
X112952D01*
X113119Y98007D01*
Y97840D01*
X112952Y97674D01*
X112619D01*
X112452Y97840D01*
X81962Y95674D02*
X82295D01*
X82129D01*
Y96673D01*
X81962Y96507D01*
X82795Y95674D02*
X83128D01*
X82962D01*
Y96673D01*
X82795Y96507D01*
X83628Y95674D02*
X83961Y96007D01*
Y96340D01*
X83628Y96673D01*
X85461D02*
Y95674D01*
Y96173D01*
X86127D01*
Y96673D01*
Y95674D01*
X86461D02*
Y96340D01*
X86794Y96673D01*
X87127Y96340D01*
Y95674D01*
Y96173D01*
X86461D01*
X88127Y96507D02*
X87960Y96673D01*
X87627D01*
X87460Y96507D01*
Y96340D01*
X87627Y96173D01*
X87960D01*
X88127Y96007D01*
Y95840D01*
X87960Y95674D01*
X87627D01*
X87460Y95840D01*
X88460Y96673D02*
Y95674D01*
X89126D01*
X90959Y96673D02*
X90626D01*
X90459Y96507D01*
Y95840D01*
X90626Y95674D01*
X90959D01*
X91126Y95840D01*
Y96507D01*
X90959Y96673D01*
X91459Y95674D02*
Y96673D01*
X92125Y95674D01*
Y96673D01*
X93458Y95674D02*
Y96340D01*
X93792Y96673D01*
X94125Y96340D01*
Y95674D01*
Y96173D01*
X93458D01*
X94458Y96673D02*
Y95674D01*
X95124D01*
X95458Y96673D02*
Y95674D01*
X96124D01*
X97457D02*
Y96673D01*
X97957D01*
X98123Y96507D01*
Y96173D01*
X97957Y96007D01*
X97457D01*
X98457Y95674D02*
Y96340D01*
X98790Y96673D01*
X99123Y96340D01*
Y95674D01*
Y96173D01*
X98457D01*
X99456Y96673D02*
Y95674D01*
X99956D01*
X100123Y95840D01*
Y96507D01*
X99956Y96673D01*
X99456D01*
X101122Y96507D02*
X100956Y96673D01*
X100623D01*
X100456Y96507D01*
Y96340D01*
X100623Y96173D01*
X100956D01*
X101122Y96007D01*
Y95840D01*
X100956Y95674D01*
X100623D01*
X100456Y95840D01*
X102455Y95674D02*
Y96340D01*
X102789Y96673D01*
X103122Y96340D01*
Y95674D01*
Y96173D01*
X102455D01*
X103455Y95674D02*
Y96673D01*
X104122Y95674D01*
Y96673D01*
X104455D02*
Y95674D01*
X104955D01*
X105121Y95840D01*
Y96507D01*
X104955Y96673D01*
X104455D01*
X106454D02*
Y96007D01*
X106787Y95674D01*
X107121Y96007D01*
Y96673D01*
X107454D02*
X107787D01*
X107620D01*
Y95674D01*
X107454D01*
X107787D01*
X108287D02*
Y96340D01*
X108620Y96673D01*
X108953Y96340D01*
Y95674D01*
Y96173D01*
X108287D01*
X109953Y96507D02*
X109786Y96673D01*
X109453D01*
X109286Y96507D01*
Y96340D01*
X109453Y96173D01*
X109786D01*
X109953Y96007D01*
Y95840D01*
X109786Y95674D01*
X109453D01*
X109286Y95840D01*
X82628Y113674D02*
X81962D01*
X82628Y114340D01*
Y114507D01*
X82462Y114673D01*
X82129D01*
X81962Y114507D01*
X82962Y113674D02*
X83295Y114007D01*
Y114340D01*
X82962Y114673D01*
X84794Y113674D02*
Y114673D01*
X85128Y114340D01*
X85461Y114673D01*
Y113674D01*
X85794D02*
Y114340D01*
X86127Y114673D01*
X86461Y114340D01*
Y113674D01*
Y114173D01*
X85794D01*
X86794Y114673D02*
X87460D01*
X87127D01*
Y113674D01*
X88460Y114673D02*
X87793D01*
Y113674D01*
X88460D01*
X87793Y114173D02*
X88127D01*
X88793Y113674D02*
Y114673D01*
X89293D01*
X89460Y114507D01*
Y114173D01*
X89293Y114007D01*
X88793D01*
X89126D02*
X89460Y113674D01*
X89793Y114673D02*
X90126D01*
X89959D01*
Y113674D01*
X89793D01*
X90126D01*
X90626D02*
Y114340D01*
X90959Y114673D01*
X91292Y114340D01*
Y113674D01*
Y114173D01*
X90626D01*
X91626Y114673D02*
Y113674D01*
X92292D01*
X93625Y114673D02*
X93958D01*
X93792D01*
Y113674D01*
X93625D01*
X93958D01*
X95124Y114507D02*
X94958Y114673D01*
X94625D01*
X94458Y114507D01*
Y114340D01*
X94625Y114173D01*
X94958D01*
X95124Y114007D01*
Y113840D01*
X94958Y113674D01*
X94625D01*
X94458Y113840D01*
X97124Y114673D02*
X96457D01*
Y114173D01*
X96791D01*
X96457D01*
Y113674D01*
X97457D02*
Y114673D01*
X97957D01*
X98123Y114507D01*
Y114173D01*
X97957Y114007D01*
X97457D01*
X97790D02*
X98123Y113674D01*
X98956D02*
Y114673D01*
X98457Y114173D01*
X99123D01*
X81962Y115674D02*
X82295D01*
X82129D01*
Y116673D01*
X81962Y116507D01*
X82795Y115674D02*
X83128Y116007D01*
Y116340D01*
X82795Y116673D01*
X84628D02*
Y115674D01*
X85128D01*
X85294Y115840D01*
Y116007D01*
X85128Y116173D01*
X84628D01*
X85128D01*
X85294Y116340D01*
Y116507D01*
X85128Y116673D01*
X84628D01*
X86127D02*
X85794D01*
X85627Y116507D01*
Y115840D01*
X85794Y115674D01*
X86127D01*
X86294Y115840D01*
Y116507D01*
X86127Y116673D01*
X86627Y115674D02*
Y116340D01*
X86960Y116673D01*
X87294Y116340D01*
Y115674D01*
Y116173D01*
X86627D01*
X87627Y115674D02*
Y116673D01*
X88127D01*
X88293Y116507D01*
Y116173D01*
X88127Y116007D01*
X87627D01*
X87960D02*
X88293Y115674D01*
X88626Y116673D02*
Y115674D01*
X89126D01*
X89293Y115840D01*
Y116507D01*
X89126Y116673D01*
X88626D01*
X90626Y115674D02*
Y116673D01*
X90959Y116340D01*
X91292Y116673D01*
Y115674D01*
X92292Y116673D02*
X91626D01*
Y115674D01*
X92292D01*
X91626Y116173D02*
X91959D01*
X92625Y115674D02*
Y116340D01*
X92958Y116673D01*
X93292Y116340D01*
Y115674D01*
Y116173D01*
X92625D01*
X94291Y116507D02*
X94125Y116673D01*
X93792D01*
X93625Y116507D01*
Y116340D01*
X93792Y116173D01*
X94125D01*
X94291Y116007D01*
Y115840D01*
X94125Y115674D01*
X93792D01*
X93625Y115840D01*
X94625Y116673D02*
Y115840D01*
X94791Y115674D01*
X95124D01*
X95291Y115840D01*
Y116673D01*
X95624Y115674D02*
Y116673D01*
X96124D01*
X96291Y116507D01*
Y116173D01*
X96124Y116007D01*
X95624D01*
X95957D02*
X96291Y115674D01*
X97290Y116673D02*
X96624D01*
Y115674D01*
X97290D01*
X96624Y116173D02*
X96957D01*
X98290Y116507D02*
X98123Y116673D01*
X97790D01*
X97624Y116507D01*
Y116340D01*
X97790Y116173D01*
X98123D01*
X98290Y116007D01*
Y115840D01*
X98123Y115674D01*
X97790D01*
X97624Y115840D01*
X100289Y116673D02*
X99623D01*
Y116173D01*
X99956Y116340D01*
X100123D01*
X100289Y116173D01*
Y115840D01*
X100123Y115674D01*
X99790D01*
X99623Y115840D01*
X100623Y115674D02*
Y115840D01*
X100789D01*
Y115674D01*
X100623D01*
X101456D02*
X101789D01*
X101622D01*
Y116673D01*
X101456Y116507D01*
X102289Y115674D02*
X102622D01*
X102455D01*
Y116673D01*
X102289Y116507D01*
X103122D02*
X103288Y116673D01*
X103622D01*
X103788Y116507D01*
Y115840D01*
X103622Y115674D01*
X103288D01*
X103122Y115840D01*
Y116507D01*
X105121Y116673D02*
X105788Y115674D01*
Y116673D02*
X105121Y115674D01*
X108120Y116507D02*
X108287Y116673D01*
X108620D01*
X108787Y116507D01*
Y116340D01*
X108620Y116173D01*
X108453D01*
X108620D01*
X108787Y116007D01*
Y115840D01*
X108620Y115674D01*
X108287D01*
X108120Y115840D01*
X109120Y115674D02*
Y115840D01*
X109286D01*
Y115674D01*
X109120D01*
X109953Y116507D02*
X110120Y116673D01*
X110453D01*
X110619Y116507D01*
Y115840D01*
X110453Y115674D01*
X110120D01*
X109953Y115840D01*
Y116507D01*
X110953D02*
X111119Y116673D01*
X111452D01*
X111619Y116507D01*
Y116340D01*
X111452Y116173D01*
X111286D01*
X111452D01*
X111619Y116007D01*
Y115840D01*
X111452Y115674D01*
X111119D01*
X110953Y115840D01*
X112619Y116673D02*
X111952D01*
Y116173D01*
X112286Y116340D01*
X112452D01*
X112619Y116173D01*
Y115840D01*
X112452Y115674D01*
X112119D01*
X111952Y115840D01*
X113952Y116673D02*
X114285D01*
X114118D01*
Y115674D01*
X113952D01*
X114285D01*
X114785D02*
Y116673D01*
X115451Y115674D01*
Y116673D01*
X81962Y99840D02*
X82129Y99674D01*
X82462D01*
X82628Y99840D01*
Y100507D01*
X82462Y100673D01*
X82129D01*
X81962Y100507D01*
Y100340D01*
X82129Y100173D01*
X82628D01*
X82962Y99674D02*
X83295Y100007D01*
Y100340D01*
X82962Y100673D01*
X84794Y99674D02*
Y100673D01*
X85461Y99674D01*
Y100673D01*
X86294D02*
X85961D01*
X85794Y100507D01*
Y99840D01*
X85961Y99674D01*
X86294D01*
X86461Y99840D01*
Y100507D01*
X86294Y100673D01*
X88460Y100507D02*
X88293Y100673D01*
X87960D01*
X87793Y100507D01*
Y100340D01*
X87960Y100173D01*
X88293D01*
X88460Y100007D01*
Y99840D01*
X88293Y99674D01*
X87960D01*
X87793Y99840D01*
X88793Y100673D02*
X89126D01*
X88960D01*
Y99674D01*
X88793D01*
X89126D01*
X89626Y100673D02*
Y99674D01*
X90293D01*
X90626Y100673D02*
Y99674D01*
Y100007D01*
X91292Y100673D01*
X90792Y100173D01*
X91292Y99674D01*
X92292Y100507D02*
X92125Y100673D01*
X91792D01*
X91626Y100507D01*
Y100340D01*
X91792Y100173D01*
X92125D01*
X92292Y100007D01*
Y99840D01*
X92125Y99674D01*
X91792D01*
X91626Y99840D01*
X93292Y100507D02*
X93125Y100673D01*
X92792D01*
X92625Y100507D01*
Y99840D01*
X92792Y99674D01*
X93125D01*
X93292Y99840D01*
X93625Y99674D02*
Y100673D01*
X94125D01*
X94291Y100507D01*
Y100173D01*
X94125Y100007D01*
X93625D01*
X93958D02*
X94291Y99674D01*
X95291Y100673D02*
X94625D01*
Y99674D01*
X95291D01*
X94625Y100173D02*
X94958D01*
X96291Y100673D02*
X95624D01*
Y99674D01*
X96291D01*
X95624Y100173D02*
X95957D01*
X96624Y99674D02*
Y100673D01*
X97290Y99674D01*
Y100673D01*
X99123D02*
X98790D01*
X98623Y100507D01*
Y99840D01*
X98790Y99674D01*
X99123D01*
X99290Y99840D01*
Y100507D01*
X99123Y100673D01*
X99623Y99674D02*
Y100673D01*
X100289Y99674D01*
Y100673D01*
X101622Y99674D02*
Y100673D01*
X102122D01*
X102289Y100507D01*
Y100173D01*
X102122Y100007D01*
X101622D01*
X102622Y99674D02*
Y100340D01*
X102955Y100673D01*
X103288Y100340D01*
Y99674D01*
Y100173D01*
X102622D01*
X103622Y100673D02*
Y99674D01*
X104122D01*
X104288Y99840D01*
Y100507D01*
X104122Y100673D01*
X103622D01*
X105288Y100507D02*
X105121Y100673D01*
X104788D01*
X104621Y100507D01*
Y100340D01*
X104788Y100173D01*
X105121D01*
X105288Y100007D01*
Y99840D01*
X105121Y99674D01*
X104788D01*
X104621Y99840D01*
X81962Y102507D02*
X82129Y102673D01*
X82462D01*
X82628Y102507D01*
Y102340D01*
X82462Y102173D01*
X82628Y102007D01*
Y101840D01*
X82462Y101674D01*
X82129D01*
X81962Y101840D01*
Y102007D01*
X82129Y102173D01*
X81962Y102340D01*
Y102507D01*
X82129Y102173D02*
X82462D01*
X82962Y101674D02*
X83295Y102007D01*
Y102340D01*
X82962Y102673D01*
X84794Y101674D02*
Y102340D01*
X85128Y102673D01*
X85461Y102340D01*
Y101674D01*
Y102173D01*
X84794D01*
X85794Y102673D02*
Y101674D01*
X86294D01*
X86461Y101840D01*
Y102507D01*
X86294Y102673D01*
X85794D01*
X86794D02*
Y101674D01*
X87294D01*
X87460Y101840D01*
Y102507D01*
X87294Y102673D01*
X86794D01*
X89460Y102507D02*
X89293Y102673D01*
X88960D01*
X88793Y102507D01*
Y102340D01*
X88960Y102173D01*
X89293D01*
X89460Y102007D01*
Y101840D01*
X89293Y101674D01*
X88960D01*
X88793Y101840D01*
X89793Y102673D02*
X90126D01*
X89959D01*
Y101674D01*
X89793D01*
X90126D01*
X90626Y102673D02*
Y101674D01*
X91292D01*
X91626Y102673D02*
Y101674D01*
Y102007D01*
X92292Y102673D01*
X91792Y102173D01*
X92292Y101674D01*
X93292Y102507D02*
X93125Y102673D01*
X92792D01*
X92625Y102507D01*
Y102340D01*
X92792Y102173D01*
X93125D01*
X93292Y102007D01*
Y101840D01*
X93125Y101674D01*
X92792D01*
X92625Y101840D01*
X94291Y102507D02*
X94125Y102673D01*
X93792D01*
X93625Y102507D01*
Y101840D01*
X93792Y101674D01*
X94125D01*
X94291Y101840D01*
X94625Y101674D02*
Y102673D01*
X95124D01*
X95291Y102507D01*
Y102173D01*
X95124Y102007D01*
X94625D01*
X94958D02*
X95291Y101674D01*
X96291Y102673D02*
X95624D01*
Y101674D01*
X96291D01*
X95624Y102173D02*
X95957D01*
X97290Y102673D02*
X96624D01*
Y101674D01*
X97290D01*
X96624Y102173D02*
X96957D01*
X97624Y101674D02*
Y102673D01*
X98290Y101674D01*
Y102673D01*
X100123D02*
X99790D01*
X99623Y102507D01*
Y101840D01*
X99790Y101674D01*
X100123D01*
X100289Y101840D01*
Y102507D01*
X100123Y102673D01*
X100623D02*
Y102007D01*
X100956Y101674D01*
X101289Y102007D01*
Y102673D01*
X102289D02*
X101622D01*
Y101674D01*
X102289D01*
X101622Y102173D02*
X101956D01*
X102622Y101674D02*
Y102673D01*
X103122D01*
X103288Y102507D01*
Y102173D01*
X103122Y102007D01*
X102622D01*
X102955D02*
X103288Y101674D01*
X104621Y102673D02*
X105288D01*
X104955D01*
Y101674D01*
X106287Y102673D02*
X105621D01*
Y101674D01*
X106287D01*
X105621Y102173D02*
X105954D01*
X106621Y101674D02*
Y102673D01*
X107287Y101674D01*
Y102673D01*
X107620D02*
X108287D01*
X107954D01*
Y101674D01*
X109286Y102673D02*
X108620D01*
Y101674D01*
X109286D01*
X108620Y102173D02*
X108953D01*
X109620Y102673D02*
Y101674D01*
X110120D01*
X110286Y101840D01*
Y102507D01*
X110120Y102673D01*
X109620D01*
X111619D02*
Y102007D01*
X111952Y101674D01*
X112286Y102007D01*
Y102673D01*
X112619D02*
X112952D01*
X112785D01*
Y101674D01*
X112619D01*
X112952D01*
X113452D02*
Y102340D01*
X113785Y102673D01*
X114118Y102340D01*
Y101674D01*
Y102173D01*
X113452D01*
X115118Y102507D02*
X114951Y102673D01*
X114618D01*
X114451Y102507D01*
Y102340D01*
X114618Y102173D01*
X114951D01*
X115118Y102007D01*
Y101840D01*
X114951Y101674D01*
X114618D01*
X114451Y101840D01*
X81962Y104673D02*
X82628D01*
Y104507D01*
X81962Y103840D01*
Y103674D01*
X82962D02*
X83295Y104007D01*
Y104340D01*
X82962Y104673D01*
X84794Y103674D02*
Y104673D01*
X85294D01*
X85461Y104507D01*
Y104173D01*
X85294Y104007D01*
X84794D01*
X85128D02*
X85461Y103674D01*
X86294Y104673D02*
X85961D01*
X85794Y104507D01*
Y103840D01*
X85961Y103674D01*
X86294D01*
X86461Y103840D01*
Y104507D01*
X86294Y104673D01*
X86794D02*
Y103840D01*
X86960Y103674D01*
X87294D01*
X87460Y103840D01*
Y104673D01*
X87793D02*
X88460D01*
X88127D01*
Y103674D01*
X89460Y104673D02*
X88793D01*
Y103674D01*
X89460D01*
X88793Y104173D02*
X89126D01*
X90792Y104673D02*
X91459D01*
X91126D01*
Y103674D01*
X92292Y104673D02*
X91959D01*
X91792Y104507D01*
Y103840D01*
X91959Y103674D01*
X92292D01*
X92459Y103840D01*
Y104507D01*
X92292Y104673D01*
X93792D02*
Y103674D01*
X94291D01*
X94458Y103840D01*
Y104007D01*
X94291Y104173D01*
X93792D01*
X94291D01*
X94458Y104340D01*
Y104507D01*
X94291Y104673D01*
X93792D01*
X95291D02*
X94958D01*
X94791Y104507D01*
Y103840D01*
X94958Y103674D01*
X95291D01*
X95458Y103840D01*
Y104507D01*
X95291Y104673D01*
X95791Y103674D02*
Y104340D01*
X96124Y104673D01*
X96457Y104340D01*
Y103674D01*
Y104173D01*
X95791D01*
X96791Y103674D02*
Y104673D01*
X97290D01*
X97457Y104507D01*
Y104173D01*
X97290Y104007D01*
X96791D01*
X97124D02*
X97457Y103674D01*
X97790Y104673D02*
Y103674D01*
X98290D01*
X98457Y103840D01*
Y104507D01*
X98290Y104673D01*
X97790D01*
X100289D02*
X99956D01*
X99790Y104507D01*
Y103840D01*
X99956Y103674D01*
X100289D01*
X100456Y103840D01*
Y104507D01*
X100289Y104673D01*
X100789D02*
Y103840D01*
X100956Y103674D01*
X101289D01*
X101456Y103840D01*
Y104673D01*
X101789D02*
X102455D01*
X102122D01*
Y103674D01*
X102789Y104673D02*
Y103674D01*
X103455D01*
X103788Y104673D02*
X104122D01*
X103955D01*
Y103674D01*
X103788D01*
X104122D01*
X104621D02*
Y104673D01*
X105288Y103674D01*
Y104673D01*
X106287D02*
X105621D01*
Y103674D01*
X106287D01*
X105621Y104173D02*
X105954D01*
X82628Y106673D02*
X82295Y106507D01*
X81962Y106173D01*
Y105840D01*
X82129Y105674D01*
X82462D01*
X82628Y105840D01*
Y106007D01*
X82462Y106173D01*
X81962D01*
X82962Y105674D02*
X83295Y106007D01*
Y106340D01*
X82962Y106673D01*
X85461Y105674D02*
X84794D01*
X85461Y106340D01*
Y106507D01*
X85294Y106673D01*
X84961D01*
X84794Y106507D01*
X87460D02*
X87294Y106673D01*
X86960D01*
X86794Y106507D01*
Y105840D01*
X86960Y105674D01*
X87294D01*
X87460Y105840D01*
X87793Y106673D02*
Y105840D01*
X87960Y105674D01*
X88293D01*
X88460Y105840D01*
Y106673D01*
X88793D02*
X89460D01*
X89126D01*
Y105674D01*
X90293Y106673D02*
X89959D01*
X89793Y106507D01*
Y105840D01*
X89959Y105674D01*
X90293D01*
X90459Y105840D01*
Y106507D01*
X90293Y106673D01*
X90792D02*
Y105840D01*
X90959Y105674D01*
X91292D01*
X91459Y105840D01*
Y106673D01*
X91792D02*
X92459D01*
X92125D01*
Y105674D01*
X93458Y106507D02*
X93292Y106673D01*
X92958D01*
X92792Y106507D01*
Y106340D01*
X92958Y106173D01*
X93292D01*
X93458Y106007D01*
Y105840D01*
X93292Y105674D01*
X92958D01*
X92792Y105840D01*
X95291Y106673D02*
X94958D01*
X94791Y106507D01*
Y105840D01*
X94958Y105674D01*
X95291D01*
X95458Y105840D01*
Y106507D01*
X95291Y106673D01*
X95791Y105674D02*
Y106673D01*
X96457Y105674D01*
Y106673D01*
X98457Y105674D02*
X97790D01*
X98457Y106340D01*
Y106507D01*
X98290Y106673D01*
X97957D01*
X97790Y106507D01*
X100456D02*
X100289Y106673D01*
X99956D01*
X99790Y106507D01*
Y106340D01*
X99956Y106173D01*
X100289D01*
X100456Y106007D01*
Y105840D01*
X100289Y105674D01*
X99956D01*
X99790Y105840D01*
X100789Y106673D02*
X101122D01*
X100956D01*
Y105674D01*
X100789D01*
X101122D01*
X101622Y106673D02*
Y105674D01*
X102122D01*
X102289Y105840D01*
Y106507D01*
X102122Y106673D01*
X101622D01*
X103288D02*
X102622D01*
Y105674D01*
X103288D01*
X102622Y106173D02*
X102955D01*
X104288Y106507D02*
X104122Y106673D01*
X103788D01*
X103622Y106507D01*
Y106340D01*
X103788Y106173D01*
X104122D01*
X104288Y106007D01*
Y105840D01*
X104122Y105674D01*
X103788D01*
X103622Y105840D01*
X82628Y108673D02*
X81962D01*
Y108173D01*
X82295Y108340D01*
X82462D01*
X82628Y108173D01*
Y107840D01*
X82462Y107674D01*
X82129D01*
X81962Y107840D01*
X82962Y107674D02*
X83295Y108007D01*
Y108340D01*
X82962Y108673D01*
X85461D02*
X84794D01*
Y108173D01*
X85128D01*
X84794D01*
Y107674D01*
X85794Y108673D02*
X86127D01*
X85961D01*
Y107674D01*
X85794D01*
X86127D01*
X86627D02*
Y108673D01*
X87294Y107674D01*
Y108673D01*
X87627D02*
X87960D01*
X87793D01*
Y107674D01*
X87627D01*
X87960D01*
X89126Y108507D02*
X88960Y108673D01*
X88627D01*
X88460Y108507D01*
Y108340D01*
X88627Y108173D01*
X88960D01*
X89126Y108007D01*
Y107840D01*
X88960Y107674D01*
X88627D01*
X88460Y107840D01*
X89460Y108673D02*
Y107674D01*
Y108173D01*
X90126D01*
Y108673D01*
Y107674D01*
X91459Y108673D02*
X91792D01*
X91626D01*
Y107674D01*
X91459D01*
X91792D01*
X92958Y108507D02*
X92792Y108673D01*
X92459D01*
X92292Y108507D01*
Y108340D01*
X92459Y108173D01*
X92792D01*
X92958Y108007D01*
Y107840D01*
X92792Y107674D01*
X92459D01*
X92292Y107840D01*
X94958Y108507D02*
X94791Y108673D01*
X94458D01*
X94291Y108507D01*
Y108340D01*
X94458Y108173D01*
X94791D01*
X94958Y108007D01*
Y107840D01*
X94791Y107674D01*
X94458D01*
X94291Y107840D01*
X95291Y107674D02*
Y108673D01*
X95624Y108340D01*
X95957Y108673D01*
Y107674D01*
X96791Y108673D02*
X96457D01*
X96291Y108507D01*
Y107840D01*
X96457Y107674D01*
X96791D01*
X96957Y107840D01*
Y108507D01*
X96791Y108673D01*
X97290D02*
Y107674D01*
X97790D01*
X97957Y107840D01*
Y108007D01*
X97790Y108173D01*
X97290D01*
X97790D01*
X97957Y108340D01*
Y108507D01*
X97790Y108673D01*
X97290D01*
X98956Y108507D02*
X98790Y108673D01*
X98457D01*
X98290Y108507D01*
Y107840D01*
X98457Y107674D01*
X98790D01*
X98956Y107840D01*
X82462Y109674D02*
Y110673D01*
X81962Y110173D01*
X82628D01*
X82962Y109674D02*
X83295Y110007D01*
Y110340D01*
X82962Y110673D01*
X85461Y110507D02*
X85294Y110673D01*
X84961D01*
X84794Y110507D01*
Y109840D01*
X84961Y109674D01*
X85294D01*
X85461Y109840D01*
X86294Y110673D02*
X85961D01*
X85794Y110507D01*
Y109840D01*
X85961Y109674D01*
X86294D01*
X86461Y109840D01*
Y110507D01*
X86294Y110673D01*
X86794Y109674D02*
Y110673D01*
X87294D01*
X87460Y110507D01*
Y110173D01*
X87294Y110007D01*
X86794D01*
X87793Y109674D02*
Y110673D01*
X88293D01*
X88460Y110507D01*
Y110173D01*
X88293Y110007D01*
X87793D01*
X89460Y110673D02*
X88793D01*
Y109674D01*
X89460D01*
X88793Y110173D02*
X89126D01*
X89793Y109674D02*
Y110673D01*
X90293D01*
X90459Y110507D01*
Y110173D01*
X90293Y110007D01*
X89793D01*
X90126D02*
X90459Y109674D01*
X91792Y110673D02*
Y109674D01*
X92125Y110007D01*
X92459Y109674D01*
Y110673D01*
X93458D02*
X92792D01*
Y109674D01*
X93458D01*
X92792Y110173D02*
X93125D01*
X93792Y110673D02*
X94125D01*
X93958D01*
Y109674D01*
X93792D01*
X94125D01*
X95291Y110507D02*
X95124Y110673D01*
X94791D01*
X94625Y110507D01*
Y109840D01*
X94791Y109674D01*
X95124D01*
X95291Y109840D01*
Y110173D01*
X94958D01*
X95624Y110673D02*
Y109674D01*
Y110173D01*
X96291D01*
Y110673D01*
Y109674D01*
X96624Y110673D02*
X97290D01*
X96957D01*
Y109674D01*
X98623Y110673D02*
X98956D01*
X98790D01*
Y109674D01*
X98623D01*
X98956D01*
X100123Y110507D02*
X99956Y110673D01*
X99623D01*
X99456Y110507D01*
Y110340D01*
X99623Y110173D01*
X99956D01*
X100123Y110007D01*
Y109840D01*
X99956Y109674D01*
X99623D01*
X99456Y109840D01*
X101456Y109674D02*
X101789D01*
X101622D01*
Y110673D01*
X101456Y110507D01*
X103788Y110673D02*
X103455D01*
X103288Y110507D01*
Y109840D01*
X103455Y109674D01*
X103788D01*
X103955Y109840D01*
Y110507D01*
X103788Y110673D01*
X104288D02*
Y109840D01*
X104455Y109674D01*
X104788D01*
X104955Y109840D01*
Y110673D01*
X105288Y109674D02*
Y110673D01*
X105954Y109674D01*
Y110673D01*
X106954Y110507D02*
X106787Y110673D01*
X106454D01*
X106287Y110507D01*
Y109840D01*
X106454Y109674D01*
X106787D01*
X106954Y109840D01*
X107954Y110673D02*
X107287D01*
Y109674D01*
X107954D01*
X107287Y110173D02*
X107620D01*
X81962Y112507D02*
X82129Y112673D01*
X82462D01*
X82628Y112507D01*
Y112340D01*
X82462Y112173D01*
X82295D01*
X82462D01*
X82628Y112007D01*
Y111840D01*
X82462Y111674D01*
X82129D01*
X81962Y111840D01*
X82962Y111674D02*
X83295Y112007D01*
Y112340D01*
X82962Y112673D01*
X84794D02*
Y111674D01*
X85294D01*
X85461Y111840D01*
Y112007D01*
X85294Y112173D01*
X84794D01*
X85294D01*
X85461Y112340D01*
Y112507D01*
X85294Y112673D01*
X84794D01*
X86294D02*
X85961D01*
X85794Y112507D01*
Y111840D01*
X85961Y111674D01*
X86294D01*
X86461Y111840D01*
Y112507D01*
X86294Y112673D01*
X86794Y111674D02*
Y112340D01*
X87127Y112673D01*
X87460Y112340D01*
Y111674D01*
Y112173D01*
X86794D01*
X87793Y111674D02*
Y112673D01*
X88293D01*
X88460Y112507D01*
Y112173D01*
X88293Y112007D01*
X87793D01*
X88127D02*
X88460Y111674D01*
X88793Y112673D02*
Y111674D01*
X89293D01*
X89460Y111840D01*
Y112507D01*
X89293Y112673D01*
X88793D01*
X90792D02*
X91126D01*
X90959D01*
Y111674D01*
X90792D01*
X91126D01*
X92292Y112507D02*
X92125Y112673D01*
X91792D01*
X91626Y112507D01*
Y112340D01*
X91792Y112173D01*
X92125D01*
X92292Y112007D01*
Y111840D01*
X92125Y111674D01*
X91792D01*
X91626Y111840D01*
X94291Y111674D02*
X93625D01*
X94291Y112340D01*
Y112507D01*
X94125Y112673D01*
X93792D01*
X93625Y112507D01*
X95624Y112673D02*
Y111674D01*
X96291D01*
X96624D02*
Y112340D01*
X96957Y112673D01*
X97290Y112340D01*
Y111674D01*
Y112173D01*
X96624D01*
X97624Y112673D02*
Y112507D01*
X97957Y112173D01*
X98290Y112507D01*
Y112673D01*
X97957Y112173D02*
Y111674D01*
X99290Y112673D02*
X98623D01*
Y111674D01*
X99290D01*
X98623Y112173D02*
X98956D01*
X99623Y111674D02*
Y112673D01*
X100123D01*
X100289Y112507D01*
Y112173D01*
X100123Y112007D01*
X99623D01*
X99956D02*
X100289Y111674D01*
X101622Y112673D02*
Y111674D01*
X101956Y112007D01*
X102289Y111674D01*
Y112673D01*
X102622D02*
X102955D01*
X102789D01*
Y111674D01*
X102622D01*
X102955D01*
X103455Y112673D02*
X104122D01*
X103788D01*
Y111674D01*
X104455Y112673D02*
Y111674D01*
Y112173D01*
X105121D01*
Y112673D01*
Y111674D01*
X106454Y112673D02*
X107121D01*
X106787D01*
Y111674D01*
X107454Y112673D02*
Y111674D01*
Y112173D01*
X108120D01*
Y112673D01*
Y111674D01*
X108453Y112673D02*
X108787D01*
X108620D01*
Y111674D01*
X108453D01*
X108787D01*
X109953Y112507D02*
X109786Y112673D01*
X109453D01*
X109286Y112507D01*
Y111840D01*
X109453Y111674D01*
X109786D01*
X109953Y111840D01*
X110286Y112673D02*
Y111674D01*
Y112007D01*
X110953Y112673D01*
X110453Y112173D01*
X110953Y111674D01*
X111286D02*
Y112673D01*
X111952Y111674D01*
Y112673D01*
X112952D02*
X112286D01*
Y111674D01*
X112952D01*
X112286Y112173D02*
X112619D01*
X113952Y112507D02*
X113785Y112673D01*
X113452D01*
X113285Y112507D01*
Y112340D01*
X113452Y112173D01*
X113785D01*
X113952Y112007D01*
Y111840D01*
X113785Y111674D01*
X113452D01*
X113285Y111840D01*
X114951Y112507D02*
X114785Y112673D01*
X114452D01*
X114285Y112507D01*
Y112340D01*
X114452Y112173D01*
X114785D01*
X114951Y112007D01*
Y111840D01*
X114785Y111674D01*
X114452D01*
X114285Y111840D01*
X116784Y112673D02*
X116451D01*
X116284Y112507D01*
Y111840D01*
X116451Y111674D01*
X116784D01*
X116951Y111840D01*
Y112507D01*
X116784Y112673D01*
X117950D02*
X117284D01*
Y112173D01*
X117617D01*
X117284D01*
Y111674D01*
X119283D02*
Y111840D01*
X119450D01*
Y111674D01*
X119283D01*
X120116Y112507D02*
X120283Y112673D01*
X120616D01*
X120783Y112507D01*
Y111840D01*
X120616Y111674D01*
X120283D01*
X120116Y111840D01*
Y112507D01*
X121782Y112673D02*
X121449Y112507D01*
X121116Y112173D01*
Y111840D01*
X121283Y111674D01*
X121616D01*
X121782Y111840D01*
Y112007D01*
X121616Y112173D01*
X121116D01*
X122782Y111674D02*
X122116D01*
X122782Y112340D01*
Y112507D01*
X122616Y112673D01*
X122282D01*
X122116Y112507D01*
X124115Y112673D02*
X124448D01*
X124282D01*
Y111674D01*
X124115D01*
X124448D01*
X124948D02*
Y112673D01*
X125615Y111674D01*
Y112673D01*
X81962Y117674D02*
Y118673D01*
X82628Y117674D01*
Y118673D01*
X83462D02*
X83128D01*
X82962Y118507D01*
Y117840D01*
X83128Y117674D01*
X83462D01*
X83628Y117840D01*
Y118507D01*
X83462Y118673D01*
X83961D02*
X84628D01*
X84295D01*
Y117674D01*
X85627Y118673D02*
X84961D01*
Y117674D01*
X85627D01*
X84961Y118173D02*
X85294D01*
X86627Y118507D02*
X86461Y118673D01*
X86127D01*
X85961Y118507D01*
Y118340D01*
X86127Y118173D01*
X86461D01*
X86627Y118007D01*
Y117840D01*
X86461Y117674D01*
X86127D01*
X85961Y117840D01*
D48*
X107729Y45400D02*
X107652Y45375D01*
X107602Y45298D01*
X107576Y45171D01*
Y45095D01*
X107602Y44968D01*
X107652Y44892D01*
X107729Y44867D01*
X107779D01*
X107855Y44892D01*
X107906Y44968D01*
X107932Y45095D01*
Y45171D01*
X107906Y45298D01*
X107855Y45375D01*
X107779Y45400D01*
X107729D01*
X108356D02*
X108102D01*
X108076Y45171D01*
X108102Y45197D01*
X108178Y45222D01*
X108254D01*
X108330Y45197D01*
X108381Y45146D01*
X108406Y45070D01*
Y45019D01*
X108381Y44943D01*
X108330Y44892D01*
X108254Y44867D01*
X108178D01*
X108102Y44892D01*
X108076Y44918D01*
X108051Y44968D01*
X92024Y49502D02*
Y48542D01*
Y49502D02*
X92435D01*
X92572Y49456D01*
X92618Y49411D01*
X92664Y49319D01*
Y49228D01*
X92618Y49136D01*
X92572Y49091D01*
X92435Y49045D01*
X92024D01*
X92344D02*
X92664Y48542D01*
X93473Y49502D02*
X92879D01*
Y48542D01*
X93473D01*
X92879Y49045D02*
X93244D01*
X94364Y48542D02*
X93998Y49502D01*
X93633Y48542D01*
X93770Y48862D02*
X94227D01*
X94588Y49502D02*
Y48542D01*
Y49502D02*
X94908D01*
X95045Y49456D01*
X95137Y49365D01*
X95182Y49274D01*
X95228Y49136D01*
Y48908D01*
X95182Y48771D01*
X95137Y48679D01*
X95045Y48588D01*
X94908Y48542D01*
X94588D01*
X96037Y49502D02*
X95443D01*
Y48542D01*
X96037D01*
X95443Y49045D02*
X95808D01*
X96197Y49502D02*
Y48542D01*
Y49502D02*
X96608D01*
X96745Y49456D01*
X96791Y49411D01*
X96837Y49319D01*
Y49228D01*
X96791Y49136D01*
X96745Y49091D01*
X96608Y49045D01*
X96197D01*
X96517D02*
X96837Y48542D01*
X97052Y48954D02*
X97874D01*
X98158Y49319D02*
X98249Y49365D01*
X98386Y49502D01*
Y48542D01*
X99136Y49502D02*
X98999Y49456D01*
X98907Y49319D01*
X98861Y49091D01*
Y48954D01*
X98907Y48725D01*
X98999Y48588D01*
X99136Y48542D01*
X99227D01*
X99364Y48588D01*
X99456Y48725D01*
X99501Y48954D01*
Y49091D01*
X99456Y49319D01*
X99364Y49456D01*
X99227Y49502D01*
X99136D01*
X99808D02*
X100310D01*
X100036Y49136D01*
X100173D01*
X100265Y49091D01*
X100310Y49045D01*
X100356Y48908D01*
Y48816D01*
X100310Y48679D01*
X100219Y48588D01*
X100082Y48542D01*
X99945D01*
X99808Y48588D01*
X99762Y48634D01*
X99716Y48725D01*
X100571Y48954D02*
X101393D01*
X101677Y49502D02*
Y48542D01*
Y49502D02*
X102088D01*
X102225Y49456D01*
X102271Y49411D01*
X102317Y49319D01*
Y49228D01*
X102271Y49136D01*
X102225Y49091D01*
X102088Y49045D01*
X101677D01*
X101997D02*
X102317Y48542D01*
X103171Y49365D02*
X103080Y49456D01*
X102943Y49502D01*
X102760D01*
X102623Y49456D01*
X102531Y49365D01*
Y49274D01*
X102577Y49182D01*
X102623Y49136D01*
X102714Y49091D01*
X102989Y48999D01*
X103080Y48954D01*
X103126Y48908D01*
X103171Y48816D01*
Y48679D01*
X103080Y48588D01*
X102943Y48542D01*
X102760D01*
X102623Y48588D01*
X102531Y48679D01*
X103432Y49274D02*
Y49319D01*
X103478Y49411D01*
X103523Y49456D01*
X103615Y49502D01*
X103798D01*
X103889Y49456D01*
X103935Y49411D01*
X103980Y49319D01*
Y49228D01*
X103935Y49136D01*
X103843Y48999D01*
X103386Y48542D01*
X104026D01*
X104332Y49502D02*
X104835D01*
X104561Y49136D01*
X104698D01*
X104789Y49091D01*
X104835Y49045D01*
X104881Y48908D01*
Y48816D01*
X104835Y48679D01*
X104744Y48588D01*
X104606Y48542D01*
X104469D01*
X104332Y48588D01*
X104287Y48634D01*
X104241Y48725D01*
X105141Y49274D02*
Y49319D01*
X105187Y49411D01*
X105233Y49456D01*
X105324Y49502D01*
X105507D01*
X105598Y49456D01*
X105644Y49411D01*
X105690Y49319D01*
Y49228D01*
X105644Y49136D01*
X105553Y48999D01*
X105096Y48542D01*
X105735D01*
X114904Y45620D02*
X114650D01*
X114624Y45392D01*
X114650Y45417D01*
X114726Y45443D01*
X114802D01*
X114878Y45417D01*
X114929Y45367D01*
X114954Y45290D01*
Y45240D01*
X114929Y45163D01*
X114878Y45113D01*
X114802Y45087D01*
X114726D01*
X114650Y45113D01*
X114624Y45138D01*
X114599Y45189D01*
X115074Y45011D02*
X115429Y45620D01*
X115490Y45493D02*
Y45519D01*
X115516Y45570D01*
X115541Y45595D01*
X115592Y45620D01*
X115693D01*
X115744Y45595D01*
X115769Y45570D01*
X115795Y45519D01*
Y45468D01*
X115769Y45417D01*
X115719Y45341D01*
X115465Y45087D01*
X115820D01*
X115990Y45620D02*
X116270D01*
X116117Y45417D01*
X116194D01*
X116244Y45392D01*
X116270Y45367D01*
X116295Y45290D01*
Y45240D01*
X116270Y45163D01*
X116219Y45113D01*
X116143Y45087D01*
X116067D01*
X115990Y45113D01*
X115965Y45138D01*
X115940Y45189D01*
X116414Y45011D02*
X116770Y45620D01*
X116958D02*
X116882Y45595D01*
X116831Y45519D01*
X116805Y45392D01*
Y45316D01*
X116831Y45189D01*
X116882Y45113D01*
X116958Y45087D01*
X117009D01*
X117085Y45113D01*
X117136Y45189D01*
X117161Y45316D01*
Y45392D01*
X117136Y45519D01*
X117085Y45595D01*
X117009Y45620D01*
X116958D01*
X117585D02*
X117331D01*
X117306Y45392D01*
X117331Y45417D01*
X117407Y45443D01*
X117483D01*
X117560Y45417D01*
X117610Y45367D01*
X117636Y45290D01*
Y45240D01*
X117610Y45163D01*
X117560Y45113D01*
X117483Y45087D01*
X117407D01*
X117331Y45113D01*
X117306Y45138D01*
X117280Y45189D01*
X90482Y52292D02*
X90117Y53252D01*
X89751Y52292D01*
X89888Y52612D02*
X90345D01*
X91255Y52795D02*
X91163Y52886D01*
X91072Y52932D01*
X90935D01*
X90844Y52886D01*
X90752Y52795D01*
X90706Y52657D01*
Y52566D01*
X90752Y52429D01*
X90844Y52337D01*
X90935Y52292D01*
X91072D01*
X91163Y52337D01*
X91255Y52429D01*
X91598Y53252D02*
Y52475D01*
X91643Y52337D01*
X91735Y52292D01*
X91826D01*
X91461Y52932D02*
X91780D01*
X92055Y53252D02*
X92100Y53206D01*
X92146Y53252D01*
X92100Y53297D01*
X92055Y53252D01*
X92100Y52932D02*
Y52292D01*
X92315Y52932D02*
X92589Y52292D01*
X92864Y52932D02*
X92589Y52292D01*
X93019Y52657D02*
X93568D01*
Y52749D01*
X93522Y52840D01*
X93476Y52886D01*
X93385Y52932D01*
X93248D01*
X93156Y52886D01*
X93065Y52795D01*
X93019Y52657D01*
Y52566D01*
X93065Y52429D01*
X93156Y52337D01*
X93248Y52292D01*
X93385D01*
X93476Y52337D01*
X93568Y52429D01*
X94527Y53252D02*
X94756Y52292D01*
X94984Y53252D02*
X94756Y52292D01*
X94984Y53252D02*
X95213Y52292D01*
X95441Y53252D02*
X95213Y52292D01*
X96182Y52932D02*
Y52292D01*
Y52795D02*
X96090Y52886D01*
X95999Y52932D01*
X95862D01*
X95770Y52886D01*
X95679Y52795D01*
X95633Y52657D01*
Y52566D01*
X95679Y52429D01*
X95770Y52337D01*
X95862Y52292D01*
X95999D01*
X96090Y52337D01*
X96182Y52429D01*
X96438Y52932D02*
X96712Y52292D01*
X96986Y52932D02*
X96712Y52292D01*
X97142Y52657D02*
X97690D01*
Y52749D01*
X97644Y52840D01*
X97599Y52886D01*
X97507Y52932D01*
X97370D01*
X97279Y52886D01*
X97187Y52795D01*
X97142Y52657D01*
Y52566D01*
X97187Y52429D01*
X97279Y52337D01*
X97370Y52292D01*
X97507D01*
X97599Y52337D01*
X97690Y52429D01*
D49*
X116432Y43248D02*
X116407Y43299D01*
X116356Y43350D01*
X116305Y43375D01*
X116204D01*
X116153Y43350D01*
X116102Y43299D01*
X116077Y43248D01*
X116051Y43172D01*
Y43045D01*
X116077Y42969D01*
X116102Y42918D01*
X116153Y42867D01*
X116204Y42842D01*
X116305D01*
X116356Y42867D01*
X116407Y42918D01*
X116432Y42969D01*
Y43045D01*
X116305D02*
X116432D01*
X116884Y43375D02*
X116554D01*
Y42842D01*
X116884D01*
X116554Y43121D02*
X116757D01*
X116973Y43375D02*
Y42842D01*
Y43375D02*
X117201D01*
X117278Y43350D01*
X117303Y43324D01*
X117328Y43273D01*
Y43223D01*
X117303Y43172D01*
X117278Y43147D01*
X117201Y43121D01*
X116973D01*
X117151D02*
X117328Y42842D01*
X117448Y43375D02*
Y42842D01*
Y43375D02*
X117676D01*
X117752Y43350D01*
X117778Y43324D01*
X117803Y43273D01*
Y43223D01*
X117778Y43172D01*
X117752Y43147D01*
X117676Y43121D01*
X117448D02*
X117676D01*
X117752Y43096D01*
X117778Y43070D01*
X117803Y43020D01*
Y42943D01*
X117778Y42893D01*
X117752Y42867D01*
X117676Y42842D01*
X117448D01*
X118253Y43375D02*
X117923D01*
Y42842D01*
X118253D01*
X117923Y43121D02*
X118126D01*
X118342Y43375D02*
Y42842D01*
Y43375D02*
X118570D01*
X118646Y43350D01*
X118672Y43324D01*
X118697Y43273D01*
Y43223D01*
X118672Y43172D01*
X118646Y43147D01*
X118570Y43121D01*
X118342D01*
X118519D02*
X118697Y42842D01*
X118842Y43197D02*
X118816Y43172D01*
X118842Y43147D01*
X118867Y43172D01*
X118842Y43197D01*
Y42893D02*
X118816Y42867D01*
X118842Y42842D01*
X118867Y42867D01*
X118842Y42893D01*
X79451Y43375D02*
Y42842D01*
Y43375D02*
X79781D01*
X79451Y43121D02*
X79654D01*
X79842Y43375D02*
Y42842D01*
X79954Y43375D02*
Y42842D01*
X80259D01*
X80647Y43375D02*
X80317D01*
Y42842D01*
X80647D01*
X80317Y43121D02*
X80520D01*
X81155Y43375D02*
Y42842D01*
Y43375D02*
X81510Y42842D01*
Y43375D02*
Y42842D01*
X82064D02*
X81861Y43375D01*
X81658Y42842D01*
X81734Y43020D02*
X81988D01*
X82188Y43375D02*
Y42842D01*
Y43375D02*
X82392Y42842D01*
X82595Y43375D02*
X82392Y42842D01*
X82595Y43375D02*
Y42842D01*
X83077Y43375D02*
X82747D01*
Y42842D01*
X83077D01*
X82747Y43121D02*
X82950D01*
X83191Y43197D02*
X83166Y43172D01*
X83191Y43147D01*
X83217Y43172D01*
X83191Y43197D01*
Y42893D02*
X83166Y42867D01*
X83191Y42842D01*
X83217Y42867D01*
X83191Y42893D01*
X79451Y46975D02*
Y46442D01*
Y46975D02*
X79629D01*
X79705Y46950D01*
X79756Y46899D01*
X79781Y46848D01*
X79807Y46772D01*
Y46645D01*
X79781Y46569D01*
X79756Y46518D01*
X79705Y46467D01*
X79629Y46442D01*
X79451D01*
X79926Y46797D02*
Y46442D01*
Y46645D02*
X79951Y46721D01*
X80002Y46772D01*
X80053Y46797D01*
X80129D01*
X80482D02*
Y46442D01*
Y46721D02*
X80431Y46772D01*
X80381Y46797D01*
X80304D01*
X80254Y46772D01*
X80203Y46721D01*
X80177Y46645D01*
Y46594D01*
X80203Y46518D01*
X80254Y46467D01*
X80304Y46442D01*
X80381D01*
X80431Y46467D01*
X80482Y46518D01*
X80624Y46797D02*
X80726Y46442D01*
X80827Y46797D02*
X80726Y46442D01*
X80827Y46797D02*
X80929Y46442D01*
X81031Y46797D02*
X80929Y46442D01*
X81155Y46797D02*
Y46442D01*
Y46696D02*
X81231Y46772D01*
X81282Y46797D01*
X81358D01*
X81409Y46772D01*
X81434Y46696D01*
Y46442D01*
X81993Y46975D02*
Y46442D01*
Y46721D02*
X82044Y46772D01*
X82094Y46797D01*
X82171D01*
X82221Y46772D01*
X82272Y46721D01*
X82298Y46645D01*
Y46594D01*
X82272Y46518D01*
X82221Y46467D01*
X82171Y46442D01*
X82094D01*
X82044Y46467D01*
X81993Y46518D01*
X82437Y46797D02*
X82590Y46442D01*
X82742Y46797D02*
X82590Y46442D01*
X82539Y46340D01*
X82488Y46289D01*
X82437Y46264D01*
X82412D01*
X82856Y46797D02*
X82831Y46772D01*
X82856Y46747D01*
X82882Y46772D01*
X82856Y46797D01*
Y46493D02*
X82831Y46467D01*
X82856Y46442D01*
X82882Y46467D01*
X82856Y46493D01*
X88504Y50900D02*
Y50367D01*
X88326Y50900D02*
X88682D01*
X88745D02*
Y50367D01*
X89035Y50900D02*
Y50367D01*
X88857Y50900D02*
X89212D01*
X89276D02*
Y50367D01*
X89581D01*
X89969Y50900D02*
X89639D01*
Y50367D01*
X89969D01*
X89639Y50646D02*
X89842D01*
X90083Y50722D02*
X90058Y50697D01*
X90083Y50672D01*
X90109Y50697D01*
X90083Y50722D01*
Y50418D02*
X90058Y50392D01*
X90083Y50367D01*
X90109Y50392D01*
X90083Y50418D01*
X88451Y45871D02*
X88680D01*
X88756Y45896D01*
X88781Y45922D01*
X88807Y45972D01*
Y46048D01*
X88781Y46099D01*
X88756Y46125D01*
X88680Y46150D01*
X88451D01*
Y45617D01*
X89332D02*
X89129Y46150D01*
X88926Y45617D01*
X89002Y45795D02*
X89256D01*
X89457Y46150D02*
Y45617D01*
Y46150D02*
X89685D01*
X89761Y46125D01*
X89787Y46099D01*
X89812Y46048D01*
Y45998D01*
X89787Y45947D01*
X89761Y45922D01*
X89685Y45896D01*
X89457D01*
X89634D02*
X89812Y45617D01*
X90109Y46150D02*
Y45617D01*
X89932Y46150D02*
X90287D01*
X90769D02*
Y45617D01*
Y46150D02*
X91125Y45617D01*
Y46150D02*
Y45617D01*
X91425Y46150D02*
X91374Y46125D01*
X91323Y46074D01*
X91298Y46023D01*
X91272Y45947D01*
Y45820D01*
X91298Y45744D01*
X91323Y45693D01*
X91374Y45642D01*
X91425Y45617D01*
X91526D01*
X91577Y45642D01*
X91628Y45693D01*
X91653Y45744D01*
X91678Y45820D01*
Y45947D01*
X91653Y46023D01*
X91628Y46074D01*
X91577Y46125D01*
X91526Y46150D01*
X91425D01*
X91828Y45668D02*
X91803Y45642D01*
X91828Y45617D01*
X91854Y45642D01*
X91828Y45668D01*
X91996Y45972D02*
X91970Y45947D01*
X91996Y45922D01*
X92021Y45947D01*
X91996Y45972D01*
Y45668D02*
X91970Y45642D01*
X91996Y45617D01*
X92021Y45642D01*
X91996Y45668D01*
X79781Y50775D02*
X79451D01*
Y50242D01*
X79781D01*
X79451Y50521D02*
X79654D01*
X79870Y50775D02*
Y50242D01*
Y50775D02*
X80226Y50242D01*
Y50775D02*
Y50242D01*
X80754Y50648D02*
X80728Y50699D01*
X80678Y50750D01*
X80627Y50775D01*
X80525D01*
X80474Y50750D01*
X80424Y50699D01*
X80398Y50648D01*
X80373Y50572D01*
Y50445D01*
X80398Y50369D01*
X80424Y50318D01*
X80474Y50267D01*
X80525Y50242D01*
X80627D01*
X80678Y50267D01*
X80728Y50318D01*
X80754Y50369D01*
Y50445D01*
X80627D02*
X80754D01*
X80876Y50775D02*
Y50242D01*
X80987Y50775D02*
Y50242D01*
Y50775D02*
X81343Y50242D01*
Y50775D02*
Y50242D01*
X81820Y50775D02*
X81490D01*
Y50242D01*
X81820D01*
X81490Y50521D02*
X81693D01*
X82239Y50775D02*
X81909D01*
Y50242D01*
X82239D01*
X81909Y50521D02*
X82112D01*
X82328Y50775D02*
Y50242D01*
Y50775D02*
X82557D01*
X82633Y50750D01*
X82658Y50724D01*
X82684Y50673D01*
Y50623D01*
X82658Y50572D01*
X82633Y50546D01*
X82557Y50521D01*
X82328D01*
X82506D02*
X82684Y50242D01*
X82828Y50597D02*
X82803Y50572D01*
X82828Y50546D01*
X82854Y50572D01*
X82828Y50597D01*
Y50293D02*
X82803Y50267D01*
X82828Y50242D01*
X82854Y50267D01*
X82828Y50293D01*
X97851Y43375D02*
Y42842D01*
X98156D01*
X98621D02*
X98417Y43375D01*
X98214Y42842D01*
X98290Y43020D02*
X98544D01*
X98745Y43375D02*
X98948Y43121D01*
Y42842D01*
X99151Y43375D02*
X98948Y43121D01*
X99550Y43375D02*
X99220D01*
Y42842D01*
X99550D01*
X99220Y43121D02*
X99423D01*
X99639Y43375D02*
Y42842D01*
Y43375D02*
X99867D01*
X99943Y43350D01*
X99969Y43324D01*
X99994Y43273D01*
Y43223D01*
X99969Y43172D01*
X99943Y43147D01*
X99867Y43121D01*
X99639D01*
X99817D02*
X99994Y42842D01*
X100139Y43197D02*
X100114Y43172D01*
X100139Y43147D01*
X100164Y43172D01*
X100139Y43197D01*
Y42893D02*
X100114Y42867D01*
X100139Y42842D01*
X100164Y42867D01*
X100139Y42893D01*
X79451Y44871D02*
X79680D01*
X79756Y44896D01*
X79781Y44921D01*
X79807Y44972D01*
Y45048D01*
X79781Y45099D01*
X79756Y45125D01*
X79680Y45150D01*
X79451D01*
Y44617D01*
X79926Y45150D02*
Y44617D01*
X80281Y45150D02*
Y44617D01*
X79926Y44896D02*
X80281D01*
X80581Y45150D02*
X80530Y45125D01*
X80480Y45074D01*
X80454Y45023D01*
X80429Y44947D01*
Y44820D01*
X80454Y44744D01*
X80480Y44693D01*
X80530Y44642D01*
X80581Y44617D01*
X80683D01*
X80733Y44642D01*
X80784Y44693D01*
X80810Y44744D01*
X80835Y44820D01*
Y44947D01*
X80810Y45023D01*
X80784Y45074D01*
X80733Y45125D01*
X80683Y45150D01*
X80581D01*
X80959D02*
Y44617D01*
Y45150D02*
X81315Y44617D01*
Y45150D02*
Y44617D01*
X81792Y45150D02*
X81462D01*
Y44617D01*
X81792D01*
X81462Y44896D02*
X81665D01*
X81907Y44972D02*
X81881Y44947D01*
X81907Y44921D01*
X81932Y44947D01*
X81907Y44972D01*
Y44668D02*
X81881Y44642D01*
X81907Y44617D01*
X81932Y44642D01*
X81907Y44668D01*
X79451Y48621D02*
X79680D01*
X79756Y48646D01*
X79781Y48671D01*
X79807Y48722D01*
Y48798D01*
X79781Y48849D01*
X79756Y48875D01*
X79680Y48900D01*
X79451D01*
Y48367D01*
X79926Y48900D02*
Y48367D01*
X80281Y48900D02*
Y48367D01*
X79926Y48646D02*
X80281D01*
X80581Y48900D02*
X80530Y48875D01*
X80480Y48824D01*
X80454Y48773D01*
X80429Y48697D01*
Y48570D01*
X80454Y48494D01*
X80480Y48443D01*
X80530Y48392D01*
X80581Y48367D01*
X80683D01*
X80733Y48392D01*
X80784Y48443D01*
X80810Y48494D01*
X80835Y48570D01*
Y48697D01*
X80810Y48773D01*
X80784Y48824D01*
X80733Y48875D01*
X80683Y48900D01*
X80581D01*
X80959D02*
Y48367D01*
Y48900D02*
X81315Y48367D01*
Y48900D02*
Y48367D01*
X81792Y48900D02*
X81462D01*
Y48367D01*
X81792D01*
X81462Y48646D02*
X81665D01*
X81907Y48722D02*
X81881Y48697D01*
X81907Y48671D01*
X81932Y48697D01*
X81907Y48722D01*
Y48418D02*
X81881Y48392D01*
X81907Y48367D01*
X81932Y48392D01*
X81907Y48418D01*
X105826Y46150D02*
Y45617D01*
Y46150D02*
X106055D01*
X106131Y46125D01*
X106156Y46099D01*
X106182Y46048D01*
Y45998D01*
X106156Y45947D01*
X106131Y45922D01*
X106055Y45896D01*
X105826D01*
X106004D02*
X106182Y45617D01*
X106631Y46150D02*
X106301D01*
Y45617D01*
X106631D01*
X106301Y45896D02*
X106504D01*
X106720Y46150D02*
X106923Y45617D01*
X107126Y46150D02*
X106923Y45617D01*
X107220Y45972D02*
X107195Y45947D01*
X107220Y45922D01*
X107246Y45947D01*
X107220Y45972D01*
Y45668D02*
X107195Y45642D01*
X107220Y45617D01*
X107246Y45642D01*
X107220Y45668D01*
X110451Y46150D02*
Y45617D01*
Y46150D02*
X110629D01*
X110705Y46125D01*
X110756Y46074D01*
X110781Y46023D01*
X110807Y45947D01*
Y45820D01*
X110781Y45744D01*
X110756Y45693D01*
X110705Y45642D01*
X110629Y45617D01*
X110451D01*
X111332D02*
X111129Y46150D01*
X110926Y45617D01*
X111002Y45795D02*
X111256D01*
X111634Y46150D02*
Y45617D01*
X111457Y46150D02*
X111812D01*
X112206D02*
X111876D01*
Y45617D01*
X112206D01*
X111876Y45896D02*
X112079D01*
X112320Y45972D02*
X112295Y45947D01*
X112320Y45922D01*
X112345Y45947D01*
X112320Y45972D01*
Y45668D02*
X112295Y45642D01*
X112320Y45617D01*
X112345Y45642D01*
X112320Y45668D01*
X89399Y63381D02*
Y63781D01*
X89799D01*
Y63381D01*
X89399D01*
X88307D02*
Y63781D01*
X88707D01*
Y63381D01*
X88307D01*
X87216D02*
Y63781D01*
X87616D01*
Y63381D01*
X87216D01*
X86124D02*
Y63781D01*
X86524D01*
Y63381D01*
X86124D01*
X85032D02*
Y63781D01*
X85432D01*
Y63381D01*
X85032D01*
X88849Y62381D02*
Y62781D01*
X89249D01*
Y62381D01*
X88849D01*
X87757D02*
Y62781D01*
X88157D01*
Y62381D01*
X87757D01*
X86666D02*
Y62781D01*
X87066D01*
Y62381D01*
X86666D01*
X85574D02*
Y62781D01*
X85974D01*
Y62381D01*
X85574D01*
X90223Y77010D02*
Y77410D01*
X90623D01*
Y77010D01*
X90223D01*
X82299Y87794D02*
Y88194D01*
X82699D01*
Y87794D01*
X82299D01*
Y88794D02*
Y89194D01*
X82699D01*
Y88794D01*
X82299D01*
X83299Y87794D02*
Y88194D01*
X83699D01*
Y87794D01*
X83299D01*
Y88794D02*
Y89194D01*
X83699D01*
Y88794D01*
X83299D01*
X84299Y87794D02*
Y88194D01*
X84699D01*
Y87794D01*
X84299D01*
Y88794D02*
Y89194D01*
X84699D01*
Y88794D01*
X84299D01*
X85299Y87794D02*
Y88194D01*
X85699D01*
Y87794D01*
X85299D01*
Y88794D02*
Y89194D01*
X85699D01*
Y88794D01*
X85299D01*
X86299Y87794D02*
Y88194D01*
X86699D01*
Y87794D01*
X86299D01*
Y88794D02*
Y89194D01*
X86699D01*
Y88794D01*
X86299D01*
X82174Y71059D02*
Y71459D01*
X82574D01*
Y71059D01*
X82174D01*
X94299Y82044D02*
Y82444D01*
X94699D01*
Y82044D01*
X94299D01*
Y81044D02*
Y81444D01*
X94699D01*
Y81044D01*
X94299D01*
X93549Y79994D02*
Y80394D01*
X93949D01*
Y79994D01*
X93549D01*
X92549D02*
Y80394D01*
X92949D01*
Y79994D01*
X92549D01*
X98919Y88819D02*
X98719Y89219D01*
X99119D01*
X98919Y88819D01*
X107019D02*
X106819Y89219D01*
X107219D01*
X107019Y88819D01*
X77534Y64384D02*
X77634Y64484D01*
X77734D01*
X77634Y64584D01*
X77734Y64684D01*
X77634D01*
X77534Y64784D01*
X77434Y64684D01*
X77334D01*
X77434Y64584D01*
X77334Y64484D01*
X77434D01*
X77534Y64384D01*
Y65384D02*
X77634Y65484D01*
X77734D01*
X77634Y65584D01*
X77734Y65684D01*
X77634D01*
X77534Y65784D01*
X77434Y65684D01*
X77334D01*
X77434Y65584D01*
X77334Y65484D01*
X77434D01*
X77534Y65384D01*
X96029Y60934D02*
X96129Y61134D01*
X96029Y61334D01*
X96229Y61234D01*
X96429Y61334D01*
X96329Y61134D01*
X96429Y60934D01*
X96229Y61034D01*
X96029Y60934D01*
Y59934D02*
X96129Y60134D01*
X96029Y60334D01*
X96229Y60234D01*
X96429Y60334D01*
X96329Y60134D01*
X96429Y59934D01*
X96229Y60034D01*
X96029Y59934D01*
X95029Y60934D02*
X95129Y61134D01*
X95029Y61334D01*
X95229Y61234D01*
X95429Y61334D01*
X95329Y61134D01*
X95429Y60934D01*
X95229Y61034D01*
X95029Y60934D01*
Y59934D02*
X95129Y60134D01*
X95029Y60334D01*
X95229Y60234D01*
X95429Y60334D01*
X95329Y60134D01*
X95429Y59934D01*
X95229Y60034D01*
X95029Y59934D01*
X94029Y60934D02*
X94129Y61134D01*
X94029Y61334D01*
X94229Y61234D01*
X94429Y61334D01*
X94329Y61134D01*
X94429Y60934D01*
X94229Y61034D01*
X94029Y60934D01*
Y59934D02*
X94129Y60134D01*
X94029Y60334D01*
X94229Y60234D01*
X94429Y60334D01*
X94329Y60134D01*
X94429Y59934D01*
X94229Y60034D01*
X94029Y59934D01*
X107049Y83459D02*
Y83359D01*
X107249D01*
Y83459D01*
X107349D01*
Y83659D01*
X107249D01*
Y83759D01*
X107049D01*
Y83659D01*
X106949D01*
Y83459D01*
X107049D01*
X98049D02*
Y83359D01*
X98249D01*
Y83459D01*
X98349D01*
Y83659D01*
X98249D01*
Y83759D01*
X98049D01*
Y83659D01*
X97949D01*
Y83459D01*
X98049D01*
X106049D02*
Y83359D01*
X106249D01*
Y83459D01*
X106349D01*
Y83659D01*
X106249D01*
Y83759D01*
X106049D01*
Y83659D01*
X105949D01*
Y83459D01*
X106049D01*
X105049D02*
Y83359D01*
X105249D01*
Y83459D01*
X105349D01*
Y83659D01*
X105249D01*
Y83759D01*
X105049D01*
Y83659D01*
X104949D01*
Y83459D01*
X105049D01*
X104049D02*
Y83359D01*
X104249D01*
Y83459D01*
X104349D01*
Y83659D01*
X104249D01*
Y83759D01*
X104049D01*
Y83659D01*
X103949D01*
Y83459D01*
X104049D01*
X103049D02*
Y83359D01*
X103249D01*
Y83459D01*
X103349D01*
Y83659D01*
X103249D01*
Y83759D01*
X103049D01*
Y83659D01*
X102949D01*
Y83459D01*
X103049D01*
X102049D02*
Y83359D01*
X102249D01*
Y83459D01*
X102349D01*
Y83659D01*
X102249D01*
Y83759D01*
X102049D01*
Y83659D01*
X101949D01*
Y83459D01*
X102049D01*
X101049D02*
Y83359D01*
X101249D01*
Y83459D01*
X101349D01*
Y83659D01*
X101249D01*
Y83759D01*
X101049D01*
Y83659D01*
X100949D01*
Y83459D01*
X101049D01*
X99049D02*
Y83359D01*
X99249D01*
Y83459D01*
X99349D01*
Y83659D01*
X99249D01*
Y83759D01*
X99049D01*
Y83659D01*
X98949D01*
Y83459D01*
X99049D01*
X98719Y85819D02*
X98819D01*
X98919Y85919D01*
X99019Y85819D01*
X99119D01*
Y85919D01*
X99019Y86019D01*
X99119Y86119D01*
Y86219D01*
X99019D01*
X98919Y86119D01*
X98819Y86219D01*
X98719D01*
Y86119D01*
X98819Y86019D01*
X98719Y85919D01*
Y85819D01*
X105719Y86019D02*
X105919Y86219D01*
X106119Y86019D01*
X105919Y85819D01*
X105719Y86019D01*
X103719D02*
X103919Y86219D01*
X104119Y86019D01*
X103919Y85819D01*
X103719Y86019D01*
X101719D02*
X101919Y86219D01*
X102119Y86019D01*
X101919Y85819D01*
X101719Y86019D01*
X105719Y89019D02*
X105919Y89219D01*
X106119Y89019D01*
X105919Y88819D01*
X105719Y89019D01*
X103719D02*
X103919Y89219D01*
X104119Y89019D01*
X103919Y88819D01*
X103719Y89019D01*
X101719D02*
X101919Y89219D01*
X102119Y89019D01*
X101919Y88819D01*
X101719Y89019D01*
X106819Y85819D02*
X106919D01*
X107019Y85919D01*
X107119Y85819D01*
X107219D01*
Y85919D01*
X107119Y86019D01*
X107219Y86119D01*
Y86219D01*
X107119D01*
X107019Y86119D01*
X106919Y86219D01*
X106819D01*
Y86119D01*
X106919Y86019D01*
X106819Y85919D01*
Y85819D01*
X81674Y78034D02*
X81774Y78234D01*
X81674Y78434D01*
X81874Y78334D01*
X82074Y78434D01*
X81974Y78234D01*
X82074Y78034D01*
X81874Y78134D01*
X81674Y78034D01*
X88724D02*
X88824Y78234D01*
X88724Y78434D01*
X88924Y78334D01*
X89124Y78434D01*
X89024Y78234D01*
X89124Y78034D01*
X88924Y78134D01*
X88724Y78034D01*
X113819Y86019D02*
X114019Y86219D01*
X114219Y86019D01*
X114019Y85819D01*
X113819Y86019D01*
X111819D02*
X112019Y86219D01*
X112219Y86019D01*
X112019Y85819D01*
X111819Y86019D01*
X109819D02*
X110019Y86219D01*
X110219Y86019D01*
X110019Y85819D01*
X109819Y86019D01*
X113819Y89019D02*
X114019Y89219D01*
X114219Y89019D01*
X114019Y88819D01*
X113819Y89019D01*
X111819D02*
X112019Y89219D01*
X112219Y89019D01*
X112019Y88819D01*
X111819Y89019D01*
X109819D02*
X110019Y89219D01*
X110219Y89019D01*
X110019Y88819D01*
X109819Y89019D01*
X114074Y83784D02*
Y84184D01*
X114474D01*
Y83784D01*
X114074D01*
X118919Y83884D02*
Y84284D01*
X119319D01*
Y83884D01*
X118919D01*
X117869D02*
Y84284D01*
X118269D01*
Y83884D01*
X117869D01*
X111874Y83784D02*
Y84184D01*
X112274D01*
Y83784D01*
X111874D01*
X77674Y62134D02*
Y62534D01*
X78074D01*
Y62134D01*
X77674D01*
X77754Y62214D02*
Y62454D01*
X77994D01*
Y62214D01*
X77754D01*
X77824Y86534D02*
Y86934D01*
X78224D01*
Y86534D01*
X77824D01*
X77904Y86614D02*
Y86854D01*
X78144D01*
Y86614D01*
X77904D01*
X86623Y72685D02*
Y73085D01*
X87023D01*
Y72685D01*
X86623D01*
X98614Y72234D02*
Y72634D01*
X99014D01*
Y72234D01*
X98614D01*
X101024Y73534D02*
Y73934D01*
X101424D01*
Y73534D01*
X101024D01*
X85748Y74810D02*
Y75210D01*
X86148D01*
Y74810D01*
X85748D01*
X86774Y76184D02*
Y76584D01*
X87174D01*
Y76184D01*
X86774D01*
X86894Y68689D02*
Y69089D01*
X87294D01*
Y68689D01*
X86894D01*
X106974Y68234D02*
Y68634D01*
X107374D01*
Y68234D01*
X106974D01*
X104894Y79584D02*
Y79984D01*
X105294D01*
Y79584D01*
X104894D01*
X100674Y72359D02*
Y72759D01*
X101074D01*
Y72359D01*
X100674D01*
X101023Y75085D02*
Y75485D01*
X101423D01*
Y75085D01*
X101023D01*
X82674Y78034D02*
X82774Y78234D01*
X82674Y78434D01*
X82874Y78334D01*
X83074Y78434D01*
X82974Y78234D01*
X83074Y78034D01*
X82874Y78134D01*
X82674Y78034D01*
X83674D02*
X83774Y78234D01*
X83674Y78434D01*
X83874Y78334D01*
X84074Y78434D01*
X83974Y78234D01*
X84074Y78034D01*
X83874Y78134D01*
X83674Y78034D01*
X84674D02*
X84774Y78234D01*
X84674Y78434D01*
X84874Y78334D01*
X85074Y78434D01*
X84974Y78234D01*
X85074Y78034D01*
X84874Y78134D01*
X84674Y78034D01*
X85674D02*
X85774Y78234D01*
X85674Y78434D01*
X85874Y78334D01*
X86074Y78434D01*
X85974Y78234D01*
X86074Y78034D01*
X85874Y78134D01*
X85674Y78034D01*
X92724D02*
X92824Y78234D01*
X92724Y78434D01*
X92924Y78334D01*
X93124Y78434D01*
X93024Y78234D01*
X93124Y78034D01*
X92924Y78134D01*
X92724Y78034D01*
X91724D02*
X91824Y78234D01*
X91724Y78434D01*
X91924Y78334D01*
X92124Y78434D01*
X92024Y78234D01*
X92124Y78034D01*
X91924Y78134D01*
X91724Y78034D01*
X90724D02*
X90824Y78234D01*
X90724Y78434D01*
X90924Y78334D01*
X91124Y78434D01*
X91024Y78234D01*
X91124Y78034D01*
X90924Y78134D01*
X90724Y78034D01*
X89724D02*
X89824Y78234D01*
X89724Y78434D01*
X89924Y78334D01*
X90124Y78434D01*
X90024Y78234D01*
X90124Y78034D01*
X89924Y78134D01*
X89724Y78034D01*
X77524Y84384D02*
X77624Y84484D01*
X77724D01*
X77624Y84584D01*
X77724Y84684D01*
X77624D01*
X77524Y84784D01*
X77424Y84684D01*
X77324D01*
X77424Y84584D01*
X77324Y84484D01*
X77424D01*
X77524Y84384D01*
Y83384D02*
X77624Y83484D01*
X77724D01*
X77624Y83584D01*
X77724Y83684D01*
X77624D01*
X77524Y83784D01*
X77424Y83684D01*
X77324D01*
X77424Y83584D01*
X77324Y83484D01*
X77424D01*
X77524Y83384D01*
Y78084D02*
X77624Y78184D01*
X77724D01*
X77624Y78284D01*
X77724Y78384D01*
X77624D01*
X77524Y78484D01*
X77424Y78384D01*
X77324D01*
X77424Y78284D01*
X77324Y78184D01*
X77424D01*
X77524Y78084D01*
Y77084D02*
X77624Y77184D01*
X77724D01*
X77624Y77284D01*
X77724Y77384D01*
X77624D01*
X77524Y77484D01*
X77424Y77384D01*
X77324D01*
X77424Y77284D01*
X77324Y77184D01*
X77424D01*
X77524Y77084D01*
Y71784D02*
X77624Y71884D01*
X77724D01*
X77624Y71984D01*
X77724Y72084D01*
X77624D01*
X77524Y72184D01*
X77424Y72084D01*
X77324D01*
X77424Y71984D01*
X77324Y71884D01*
X77424D01*
X77524Y71784D01*
Y70784D02*
X77624Y70884D01*
X77724D01*
X77624Y70984D01*
X77724Y71084D01*
X77624D01*
X77524Y71184D01*
X77424Y71084D01*
X77324D01*
X77424Y70984D01*
X77324Y70884D01*
X77424D01*
X77524Y70784D01*
D119*
X92541Y63081D02*
X92518Y63174D01*
X92454Y63246D01*
X92365Y63280D01*
X92270Y63268D01*
X92191Y63214D01*
X92147Y63129D01*
Y63033D01*
X92191Y62949D01*
X92270Y62894D01*
X92365Y62883D01*
X92454Y62917D01*
X92518Y62988D01*
X92541Y63081D01*
X82699D02*
X82676Y63174D01*
X82613Y63246D01*
X82523Y63280D01*
X82428Y63268D01*
X82349Y63214D01*
X82305Y63129D01*
Y63033D01*
X82349Y62949D01*
X82428Y62894D01*
X82523Y62883D01*
X82613Y62917D01*
X82676Y62988D01*
X82699Y63081D01*
X106939Y63749D02*
X106916Y63842D01*
X106853Y63914D01*
X106763Y63948D01*
X106668Y63936D01*
X106589Y63882D01*
X106545Y63797D01*
Y63701D01*
X106589Y63617D01*
X106668Y63562D01*
X106763Y63551D01*
X106853Y63585D01*
X106916Y63656D01*
X106939Y63749D01*
D120*
X106859D02*
X106824Y63834D01*
X106739Y63869D01*
X106654Y63834D01*
X106619Y63749D01*
X106654Y63664D01*
X106739Y63629D01*
X106824Y63664D01*
X106859Y63749D01*
X103694Y79584D02*
Y79984D01*
X104094D01*
Y79584D01*
X103694D01*
X100274Y77934D02*
X100374Y78134D01*
X100274Y78334D01*
X100474Y78234D01*
X100674Y78334D01*
X100574Y78134D01*
X100674Y77934D01*
X100474Y78034D01*
X100274Y77934D01*
X99274D02*
X99374Y78134D01*
X99274Y78334D01*
X99474Y78234D01*
X99674Y78334D01*
X99574Y78134D01*
X99674Y77934D01*
X99474Y78034D01*
X99274Y77934D01*
X98274D02*
X98374Y78134D01*
X98274Y78334D01*
X98474Y78234D01*
X98674Y78334D01*
X98574Y78134D01*
X98674Y77934D01*
X98474Y78034D01*
X98274Y77934D01*
X97274D02*
X97374Y78134D01*
X97274Y78334D01*
X97474Y78234D01*
X97674Y78334D01*
X97574Y78134D01*
X97674Y77934D01*
X97474Y78034D01*
X97274Y77934D01*
X96274D02*
X96374Y78134D01*
X96274Y78334D01*
X96474Y78234D01*
X96674Y78334D01*
X96574Y78134D01*
X96674Y77934D01*
X96474Y78034D01*
X96274Y77934D01*
X101023Y76285D02*
Y76685D01*
X101423D01*
Y76285D01*
X101023D01*
X91173Y77010D02*
Y77410D01*
X91573D01*
Y77010D01*
X91173D01*
X100049Y83459D02*
Y83359D01*
X100249D01*
Y83459D01*
X100349D01*
Y83659D01*
X100249D01*
Y83759D01*
X100049D01*
Y83659D01*
X99949D01*
Y83459D01*
X100049D01*
X121184Y72606D02*
X121284Y72806D01*
X121184Y73006D01*
X121384Y72906D01*
X121584Y73006D01*
X121484Y72806D01*
X121584Y72606D01*
X121384Y72706D01*
X121184Y72606D01*
X120184Y73102D02*
X120284Y73302D01*
X120184Y73502D01*
X120384Y73402D01*
X120584Y73502D01*
X120484Y73302D01*
X120584Y73102D01*
X120384Y73202D01*
X120184Y73102D01*
Y72102D02*
X120284Y72302D01*
X120184Y72502D01*
X120384Y72402D01*
X120584Y72502D01*
X120484Y72302D01*
X120584Y72102D01*
X120384Y72202D01*
X120184Y72102D01*
X123884Y75352D02*
X123684Y75752D01*
X124084D01*
X123884Y75352D01*
Y75432D02*
X123764Y75672D01*
X124004D01*
X123884Y75432D01*
Y71352D02*
X123684Y71752D01*
X124084D01*
X123884Y71352D01*
Y71432D02*
X123764Y71672D01*
X124004D01*
X123884Y71432D01*
X121184Y74606D02*
X121284Y74806D01*
X121184Y75006D01*
X121384Y74906D01*
X121584Y75006D01*
X121484Y74806D01*
X121584Y74606D01*
X121384Y74706D01*
X121184Y74606D01*
X120184Y74102D02*
X120284Y74302D01*
X120184Y74502D01*
X120384Y74402D01*
X120584Y74502D01*
X120484Y74302D01*
X120584Y74102D01*
X120384Y74202D01*
X120184Y74102D01*
X121184Y73606D02*
X121284Y73806D01*
X121184Y74006D01*
X121384Y73906D01*
X121584Y74006D01*
X121484Y73806D01*
X121584Y73606D01*
X121384Y73706D01*
X121184Y73606D01*
X120014Y66602D02*
Y67002D01*
X120414D01*
Y66602D01*
X120014D01*
Y68602D02*
Y69002D01*
X120414D01*
Y68602D01*
X120014D01*
X121014Y68102D02*
Y68502D01*
X121414D01*
Y68102D01*
X121014D01*
X120014Y67602D02*
Y68002D01*
X120414D01*
Y67602D01*
X120014D01*
X121014Y67102D02*
Y67502D01*
X121414D01*
Y67102D01*
X121014D01*
Y66102D02*
Y66502D01*
X121414D01*
Y66102D01*
X121014D01*
X120014Y65602D02*
Y66002D01*
X120414D01*
Y65602D01*
X120014D01*
X121014Y65102D02*
Y65502D01*
X121414D01*
Y65102D01*
X121014D01*
X123714Y64432D02*
X123814Y64532D01*
X123914D01*
X123814Y64632D01*
X123914Y64732D01*
X123814D01*
X123714Y64832D01*
X123614Y64732D01*
X123514D01*
X123614Y64632D01*
X123514Y64532D01*
X123614D01*
X123714Y64432D01*
Y64512D02*
X123774Y64572D01*
X123834D01*
X123774Y64632D01*
X123834Y64692D01*
X123774D01*
X123714Y64752D01*
X123654Y64692D01*
X123594D01*
X123654Y64632D01*
X123594Y64572D01*
X123654D01*
X123714Y64512D01*
X118834Y63692D02*
X118934Y63892D01*
X118834Y64092D01*
X119034Y63992D01*
X119234Y64092D01*
X119134Y63892D01*
X119234Y63692D01*
X119034Y63792D01*
X118834Y63692D01*
X118914Y63772D02*
X118974Y63892D01*
X118914Y64012D01*
X119034Y63952D01*
X119154Y64012D01*
X119094Y63892D01*
X119154Y63772D01*
X119034Y63832D01*
X118914Y63772D01*
X123714Y69272D02*
X123814Y69372D01*
X123914D01*
X123814Y69472D01*
X123914Y69572D01*
X123814D01*
X123714Y69672D01*
X123614Y69572D01*
X123514D01*
X123614Y69472D01*
X123514Y69372D01*
X123614D01*
X123714Y69272D01*
Y69352D02*
X123774Y69412D01*
X123834D01*
X123774Y69472D01*
X123834Y69532D01*
X123774D01*
X123714Y69592D01*
X123654Y69532D01*
X123594D01*
X123654Y69472D01*
X123594Y69412D01*
X123654D01*
X123714Y69352D01*
X118834Y70012D02*
X118934Y70212D01*
X118834Y70412D01*
X119034Y70312D01*
X119234Y70412D01*
X119134Y70212D01*
X119234Y70012D01*
X119034Y70112D01*
X118834Y70012D01*
X118914Y70092D02*
X118974Y70212D01*
X118914Y70332D01*
X119034Y70272D01*
X119154Y70332D01*
X119094Y70212D01*
X119154Y70092D01*
X119034Y70152D01*
X118914Y70092D01*
X102494Y79584D02*
Y79984D01*
X102894D01*
Y79584D01*
X102494D01*
X83974Y71059D02*
Y71459D01*
X84374D01*
Y71059D01*
X83974D01*
X124744Y85230D02*
Y85130D01*
X124944D01*
Y85230D01*
X125044D01*
Y85430D01*
X124944D01*
Y85530D01*
X124744D01*
Y85430D01*
X124644D01*
Y85230D01*
X124744D01*
X124784Y85270D02*
Y85210D01*
X124904D01*
Y85270D01*
X124964D01*
Y85390D01*
X124904D01*
Y85450D01*
X124784D01*
Y85390D01*
X124724D01*
Y85270D01*
X124784D01*
X124744Y83852D02*
Y83752D01*
X124944D01*
Y83852D01*
X125044D01*
Y84052D01*
X124944D01*
Y84152D01*
X124744D01*
Y84052D01*
X124644D01*
Y83852D01*
X124744D01*
X124784Y83892D02*
Y83832D01*
X124904D01*
Y83892D01*
X124964D01*
Y84012D01*
X124904D01*
Y84072D01*
X124784D01*
Y84012D01*
X124724D01*
Y83892D01*
X124784D01*
X124744Y86608D02*
Y86508D01*
X124944D01*
Y86608D01*
X125044D01*
Y86808D01*
X124944D01*
Y86908D01*
X124744D01*
Y86808D01*
X124644D01*
Y86608D01*
X124744D01*
X124784Y86648D02*
Y86588D01*
X124904D01*
Y86648D01*
X124964D01*
Y86768D01*
X124904D01*
Y86828D01*
X124784D01*
Y86768D01*
X124724D01*
Y86648D01*
X124784D01*
X124744Y87986D02*
Y87886D01*
X124944D01*
Y87986D01*
X125044D01*
Y88186D01*
X124944D01*
Y88286D01*
X124744D01*
Y88186D01*
X124644D01*
Y87986D01*
X124744D01*
X124784Y88026D02*
Y87966D01*
X124904D01*
Y88026D01*
X124964D01*
Y88146D01*
X124904D01*
Y88206D01*
X124784D01*
Y88146D01*
X124724D01*
Y88026D01*
X124784D01*
X124134Y78182D02*
X124234D01*
X124334Y78282D01*
X124434Y78182D01*
X124534D01*
Y78282D01*
X124434Y78382D01*
X124534Y78482D01*
Y78582D01*
X124434D01*
X124334Y78482D01*
X124234Y78582D01*
X124134D01*
Y78482D01*
X124234Y78382D01*
X124134Y78282D01*
Y78182D01*
X124214Y78262D02*
X124274D01*
X124334Y78322D01*
X124394Y78262D01*
X124454D01*
Y78322D01*
X124394Y78382D01*
X124454Y78442D01*
Y78502D01*
X124394D01*
X124334Y78442D01*
X124274Y78502D01*
X124214D01*
Y78442D01*
X124274Y78382D01*
X124214Y78322D01*
Y78262D01*
X124134Y80882D02*
X124234D01*
X124334Y80982D01*
X124434Y80882D01*
X124534D01*
Y80982D01*
X124434Y81082D01*
X124534Y81182D01*
Y81282D01*
X124434D01*
X124334Y81182D01*
X124234Y81282D01*
X124134D01*
Y81182D01*
X124234Y81082D01*
X124134Y80982D01*
Y80882D01*
X124214Y80962D02*
X124274D01*
X124334Y81022D01*
X124394Y80962D01*
X124454D01*
Y81022D01*
X124394Y81082D01*
X124454Y81142D01*
Y81202D01*
X124394D01*
X124334Y81142D01*
X124274Y81202D01*
X124214D01*
Y81142D01*
X124274Y81082D01*
X124214Y81022D01*
Y80962D01*
X124134Y79532D02*
X124234D01*
X124334Y79632D01*
X124434Y79532D01*
X124534D01*
Y79632D01*
X124434Y79732D01*
X124534Y79832D01*
Y79932D01*
X124434D01*
X124334Y79832D01*
X124234Y79932D01*
X124134D01*
Y79832D01*
X124234Y79732D01*
X124134Y79632D01*
Y79532D01*
X124214Y79612D02*
X124274D01*
X124334Y79672D01*
X124394Y79612D01*
X124454D01*
Y79672D01*
X124394Y79732D01*
X124454Y79792D01*
Y79852D01*
X124394D01*
X124334Y79792D01*
X124274Y79852D01*
X124214D01*
Y79792D01*
X124274Y79732D01*
X124214Y79672D01*
Y79612D01*
X122684Y80882D02*
X122784D01*
X122884Y80982D01*
X122984Y80882D01*
X123084D01*
Y80982D01*
X122984Y81082D01*
X123084Y81182D01*
Y81282D01*
X122984D01*
X122884Y81182D01*
X122784Y81282D01*
X122684D01*
Y81182D01*
X122784Y81082D01*
X122684Y80982D01*
Y80882D01*
X122764Y80962D02*
X122824D01*
X122884Y81022D01*
X122944Y80962D01*
X123004D01*
Y81022D01*
X122944Y81082D01*
X123004Y81142D01*
Y81202D01*
X122944D01*
X122884Y81142D01*
X122824Y81202D01*
X122764D01*
Y81142D01*
X122824Y81082D01*
X122764Y81022D01*
Y80962D01*
X122684Y79532D02*
X122784D01*
X122884Y79632D01*
X122984Y79532D01*
X123084D01*
Y79632D01*
X122984Y79732D01*
X123084Y79832D01*
Y79932D01*
X122984D01*
X122884Y79832D01*
X122784Y79932D01*
X122684D01*
Y79832D01*
X122784Y79732D01*
X122684Y79632D01*
Y79532D01*
X122764Y79612D02*
X122824D01*
X122884Y79672D01*
X122944Y79612D01*
X123004D01*
Y79672D01*
X122944Y79732D01*
X123004Y79792D01*
Y79852D01*
X122944D01*
X122884Y79792D01*
X122824Y79852D01*
X122764D01*
Y79792D01*
X122824Y79732D01*
X122764Y79672D01*
Y79612D01*
X122684Y78182D02*
X122784D01*
X122884Y78282D01*
X122984Y78182D01*
X123084D01*
Y78282D01*
X122984Y78382D01*
X123084Y78482D01*
Y78582D01*
X122984D01*
X122884Y78482D01*
X122784Y78582D01*
X122684D01*
Y78482D01*
X122784Y78382D01*
X122684Y78282D01*
Y78182D01*
X122764Y78262D02*
X122824D01*
X122884Y78322D01*
X122944Y78262D01*
X123004D01*
Y78322D01*
X122944Y78382D01*
X123004Y78442D01*
Y78502D01*
X122944D01*
X122884Y78442D01*
X122824Y78502D01*
X122764D01*
Y78442D01*
X122824Y78382D01*
X122764Y78322D01*
Y78262D01*
X124744Y60952D02*
Y60852D01*
X124944D01*
Y60952D01*
X125044D01*
Y61152D01*
X124944D01*
Y61252D01*
X124744D01*
Y61152D01*
X124644D01*
Y60952D01*
X124744D01*
X124784Y60992D02*
Y60932D01*
X124904D01*
Y60992D01*
X124964D01*
Y61112D01*
X124904D01*
Y61172D01*
X124784D01*
Y61112D01*
X124724D01*
Y60992D01*
X124784D01*
X124744Y62330D02*
Y62230D01*
X124944D01*
Y62330D01*
X125044D01*
Y62530D01*
X124944D01*
Y62630D01*
X124744D01*
Y62530D01*
X124644D01*
Y62330D01*
X124744D01*
X124784Y62370D02*
Y62310D01*
X124904D01*
Y62370D01*
X124964D01*
Y62490D01*
X124904D01*
Y62550D01*
X124784D01*
Y62490D01*
X124724D01*
Y62370D01*
X124784D01*
X115499Y76234D02*
X115699Y76434D01*
X115899Y76234D01*
X115699Y76034D01*
X115499Y76234D01*
X115579D02*
X115699Y76354D01*
X115819Y76234D01*
X115699Y76114D01*
X115579Y76234D01*
X115499Y76734D02*
X115699Y76934D01*
X115899Y76734D01*
X115699Y76534D01*
X115499Y76734D01*
X115579D02*
X115699Y76854D01*
X115819Y76734D01*
X115699Y76614D01*
X115579Y76734D01*
X78274Y84187D02*
X78474Y84387D01*
X78674Y84187D01*
X78474Y83987D01*
X78274Y84187D01*
X78354D02*
X78474Y84307D01*
X78594Y84187D01*
X78474Y84067D01*
X78354Y84187D01*
X87774Y84912D02*
X87974Y85112D01*
X88174Y84912D01*
X87974Y84712D01*
X87774Y84912D01*
X87854D02*
X87974Y85032D01*
X88094Y84912D01*
X87974Y84792D01*
X87854Y84912D01*
X78674Y81309D02*
X78874Y81509D01*
X79074Y81309D01*
X78874Y81109D01*
X78674Y81309D01*
X78754D02*
X78874Y81429D01*
X78994Y81309D01*
X78874Y81189D01*
X78754Y81309D01*
X79474Y81659D02*
X79674Y81859D01*
X79874Y81659D01*
X79674Y81459D01*
X79474Y81659D01*
X79554D02*
X79674Y81779D01*
X79794Y81659D01*
X79674Y81539D01*
X79554Y81659D01*
X79074Y82359D02*
X79274Y82559D01*
X79474Y82359D01*
X79274Y82159D01*
X79074Y82359D01*
X79154D02*
X79274Y82479D01*
X79394Y82359D01*
X79274Y82239D01*
X79154Y82359D01*
X87949Y88644D02*
X88149Y88844D01*
X88349Y88644D01*
X88149Y88444D01*
X87949Y88644D01*
X88029D02*
X88149Y88764D01*
X88269Y88644D01*
X88149Y88524D01*
X88029Y88644D01*
X88289Y88094D02*
X88489Y88294D01*
X88689Y88094D01*
X88489Y87894D01*
X88289Y88094D01*
X88369D02*
X88489Y88214D01*
X88609Y88094D01*
X88489Y87974D01*
X88369Y88094D01*
X83029Y82704D02*
X83229Y82904D01*
X83429Y82704D01*
X83229Y82504D01*
X83029Y82704D01*
X83109D02*
X83229Y82824D01*
X83349Y82704D01*
X83229Y82584D01*
X83109Y82704D01*
X82429D02*
X82629Y82904D01*
X82829Y82704D01*
X82629Y82504D01*
X82429Y82704D01*
X82509D02*
X82629Y82824D01*
X82749Y82704D01*
X82629Y82584D01*
X82509Y82704D01*
X83879Y86439D02*
X84079Y86639D01*
X84279Y86439D01*
X84079Y86239D01*
X83879Y86439D01*
X83959D02*
X84079Y86559D01*
X84199Y86439D01*
X84079Y86319D01*
X83959Y86439D01*
X85499Y86064D02*
X85699Y86264D01*
X85899Y86064D01*
X85699Y85864D01*
X85499Y86064D01*
X85579D02*
X85699Y86184D01*
X85819Y86064D01*
X85699Y85944D01*
X85579Y86064D01*
X87679Y84164D02*
X87879Y84364D01*
X88079Y84164D01*
X87879Y83964D01*
X87679Y84164D01*
X87759D02*
X87879Y84284D01*
X87999Y84164D01*
X87879Y84044D01*
X87759Y84164D01*
X85579Y83644D02*
X85779Y83844D01*
X85979Y83644D01*
X85779Y83444D01*
X85579Y83644D01*
X85659D02*
X85779Y83764D01*
X85899Y83644D01*
X85779Y83524D01*
X85659Y83644D01*
X85999Y82674D02*
X86199Y82874D01*
X86399Y82674D01*
X86199Y82474D01*
X85999Y82674D01*
X86079D02*
X86199Y82794D01*
X86319Y82674D01*
X86199Y82554D01*
X86079Y82674D01*
X89709Y89244D02*
X89909Y89444D01*
X90109Y89244D01*
X89909Y89044D01*
X89709Y89244D01*
X89789D02*
X89909Y89364D01*
X90029Y89244D01*
X89909Y89124D01*
X89789Y89244D01*
X92199D02*
X92399Y89444D01*
X92599Y89244D01*
X92399Y89044D01*
X92199Y89244D01*
X92279D02*
X92399Y89364D01*
X92519Y89244D01*
X92399Y89124D01*
X92279Y89244D01*
X92199Y88644D02*
X92399Y88844D01*
X92599Y88644D01*
X92399Y88444D01*
X92199Y88644D01*
X92279D02*
X92399Y88764D01*
X92519Y88644D01*
X92399Y88524D01*
X92279Y88644D01*
X88059Y80344D02*
X88259Y80544D01*
X88459Y80344D01*
X88259Y80144D01*
X88059Y80344D01*
X88139D02*
X88259Y80464D01*
X88379Y80344D01*
X88259Y80224D01*
X88139Y80344D01*
X89769Y79744D02*
X89969Y79944D01*
X90169Y79744D01*
X89969Y79544D01*
X89769Y79744D01*
X89849D02*
X89969Y79864D01*
X90089Y79744D01*
X89969Y79624D01*
X89849Y79744D01*
X90489D02*
X90689Y79944D01*
X90889Y79744D01*
X90689Y79544D01*
X90489Y79744D01*
X90569D02*
X90689Y79864D01*
X90809Y79744D01*
X90689Y79624D01*
X90569Y79744D01*
X95229Y84399D02*
X95429Y84599D01*
X95629Y84399D01*
X95429Y84199D01*
X95229Y84399D01*
X95309D02*
X95429Y84519D01*
X95549Y84399D01*
X95429Y84279D01*
X95309Y84399D01*
X95229Y83199D02*
X95429Y83399D01*
X95629Y83199D01*
X95429Y82999D01*
X95229Y83199D01*
X95309D02*
X95429Y83319D01*
X95549Y83199D01*
X95429Y83079D01*
X95309Y83199D01*
X96569Y85759D02*
X96769Y85959D01*
X96969Y85759D01*
X96769Y85559D01*
X96569Y85759D01*
X96649D02*
X96769Y85879D01*
X96889Y85759D01*
X96769Y85639D01*
X96649Y85759D01*
X98264Y86519D02*
X98464Y86719D01*
X98664Y86519D01*
X98464Y86319D01*
X98264Y86519D01*
X98344D02*
X98464Y86639D01*
X98584Y86519D01*
X98464Y86399D01*
X98344Y86519D01*
X97864D02*
X98064Y86719D01*
X98264Y86519D01*
X98064Y86319D01*
X97864Y86519D01*
X97944D02*
X98064Y86639D01*
X98184Y86519D01*
X98064Y86399D01*
X97944Y86519D01*
X97949Y88269D02*
X98149Y88469D01*
X98349Y88269D01*
X98149Y88069D01*
X97949Y88269D01*
X98029D02*
X98149Y88389D01*
X98269Y88269D01*
X98149Y88149D01*
X98029Y88269D01*
X98339D02*
X98539Y88469D01*
X98739Y88269D01*
X98539Y88069D01*
X98339Y88269D01*
X98419D02*
X98539Y88389D01*
X98659Y88269D01*
X98539Y88149D01*
X98419Y88269D01*
X90914Y71704D02*
X91114Y71904D01*
X91314Y71704D01*
X91114Y71504D01*
X90914Y71704D01*
X90994D02*
X91114Y71824D01*
X91234Y71704D01*
X91114Y71584D01*
X90994Y71704D01*
X96599Y70362D02*
X96799Y70562D01*
X96999Y70362D01*
X96799Y70162D01*
X96599Y70362D01*
X96679D02*
X96799Y70482D01*
X96919Y70362D01*
X96799Y70242D01*
X96679Y70362D01*
X77644Y79012D02*
X77844Y79212D01*
X78044Y79012D01*
X77844Y78812D01*
X77644Y79012D01*
X77724D02*
X77844Y79132D01*
X77964Y79012D01*
X77844Y78892D01*
X77724Y79012D01*
X116424Y80234D02*
X116624Y80434D01*
X116824Y80234D01*
X116624Y80034D01*
X116424Y80234D01*
X116504D02*
X116624Y80354D01*
X116744Y80234D01*
X116624Y80114D01*
X116504Y80234D01*
X109674Y80834D02*
X109874Y81034D01*
X110074Y80834D01*
X109874Y80634D01*
X109674Y80834D01*
X109754D02*
X109874Y80954D01*
X109994Y80834D01*
X109874Y80714D01*
X109754Y80834D01*
X112469Y78084D02*
X112669Y78284D01*
X112869Y78084D01*
X112669Y77884D01*
X112469Y78084D01*
X112549D02*
X112669Y78204D01*
X112789Y78084D01*
X112669Y77964D01*
X112549Y78084D01*
X119374Y82142D02*
X119574Y82342D01*
X119774Y82142D01*
X119574Y81942D01*
X119374Y82142D01*
X119454D02*
X119574Y82262D01*
X119694Y82142D01*
X119574Y82022D01*
X119454Y82142D01*
X81174Y66504D02*
X81374Y66704D01*
X81574Y66504D01*
X81374Y66304D01*
X81174Y66504D01*
X81254D02*
X81374Y66624D01*
X81494Y66504D01*
X81374Y66384D01*
X81254Y66504D01*
X80064Y69664D02*
X80264Y69864D01*
X80464Y69664D01*
X80264Y69464D01*
X80064Y69664D01*
X80144D02*
X80264Y69784D01*
X80384Y69664D01*
X80264Y69544D01*
X80144Y69664D01*
X87574Y66309D02*
X87774Y66509D01*
X87974Y66309D01*
X87774Y66109D01*
X87574Y66309D01*
X87654D02*
X87774Y66429D01*
X87894Y66309D01*
X87774Y66189D01*
X87654Y66309D01*
X85744Y66744D02*
X85944Y66944D01*
X86144Y66744D01*
X85944Y66544D01*
X85744Y66744D01*
X85824D02*
X85944Y66864D01*
X86064Y66744D01*
X85944Y66624D01*
X85824Y66744D01*
X89214Y71854D02*
X89414Y72054D01*
X89614Y71854D01*
X89414Y71654D01*
X89214Y71854D01*
X89294D02*
X89414Y71974D01*
X89534Y71854D01*
X89414Y71734D01*
X89294Y71854D01*
X89749Y67584D02*
X89949Y67784D01*
X90149Y67584D01*
X89949Y67384D01*
X89749Y67584D01*
X89829D02*
X89949Y67704D01*
X90069Y67584D01*
X89949Y67464D01*
X89829Y67584D01*
X103694Y82914D02*
X103894Y83114D01*
X104094Y82914D01*
X103894Y82714D01*
X103694Y82914D01*
X103774D02*
X103894Y83034D01*
X104014Y82914D01*
X103894Y82794D01*
X103774Y82914D01*
X102494D02*
X102694Y83114D01*
X102894Y82914D01*
X102694Y82714D01*
X102494Y82914D01*
X102574D02*
X102694Y83034D01*
X102814Y82914D01*
X102694Y82794D01*
X102574Y82914D01*
X101294D02*
X101494Y83114D01*
X101694Y82914D01*
X101494Y82714D01*
X101294Y82914D01*
X101374D02*
X101494Y83034D01*
X101614Y82914D01*
X101494Y82794D01*
X101374Y82914D01*
X99499Y82909D02*
X99699Y83109D01*
X99899Y82909D01*
X99699Y82709D01*
X99499Y82909D01*
X99579D02*
X99699Y83029D01*
X99819Y82909D01*
X99699Y82789D01*
X99579Y82909D01*
X98299Y82909D02*
X98499Y83109D01*
X98699Y82909D01*
X98499Y82709D01*
X98299Y82909D01*
X98379D02*
X98499Y83029D01*
X98619Y82909D01*
X98499Y82789D01*
X98379Y82909D01*
X119124Y74884D02*
X119324Y75084D01*
X119524Y74884D01*
X119324Y74684D01*
X119124Y74884D01*
X119204D02*
X119324Y75004D01*
X119444Y74884D01*
X119324Y74764D01*
X119204Y74884D01*
X104179Y78434D02*
X104379Y78634D01*
X104579Y78434D01*
X104379Y78234D01*
X104179Y78434D01*
X104259D02*
X104379Y78554D01*
X104499Y78434D01*
X104379Y78314D01*
X104259Y78434D01*
X103729D02*
X103929Y78634D01*
X104129Y78434D01*
X103929Y78234D01*
X103729Y78434D01*
X103809D02*
X103929Y78554D01*
X104049Y78434D01*
X103929Y78314D01*
X103809Y78434D01*
X119124Y75434D02*
X119324Y75634D01*
X119524Y75434D01*
X119324Y75234D01*
X119124Y75434D01*
X119204D02*
X119324Y75554D01*
X119444Y75434D01*
X119324Y75314D01*
X119204Y75434D01*
X110229Y76934D02*
X110429Y77134D01*
X110629Y76934D01*
X110429Y76734D01*
X110229Y76934D01*
X110309D02*
X110429Y77054D01*
X110549Y76934D01*
X110429Y76814D01*
X110309Y76934D01*
X110229Y77934D02*
X110429Y78134D01*
X110629Y77934D01*
X110429Y77734D01*
X110229Y77934D01*
X110309D02*
X110429Y78054D01*
X110549Y77934D01*
X110429Y77814D01*
X110309Y77934D01*
X82744Y68294D02*
X82944Y68494D01*
X83144Y68294D01*
X82944Y68094D01*
X82744Y68294D01*
X82824D02*
X82944Y68414D01*
X83064Y68294D01*
X82944Y68174D01*
X82824Y68294D01*
X84894Y66644D02*
X85094Y66844D01*
X85294Y66644D01*
X85094Y66444D01*
X84894Y66644D01*
X84974D02*
X85094Y66764D01*
X85214Y66644D01*
X85094Y66524D01*
X84974Y66644D01*
X83486Y66636D02*
X83686Y66836D01*
X83886Y66636D01*
X83686Y66436D01*
X83486Y66636D01*
X83566D02*
X83686Y66756D01*
X83806Y66636D01*
X83686Y66516D01*
X83566Y66636D01*
X83494Y68294D02*
X83694Y68494D01*
X83894Y68294D01*
X83694Y68094D01*
X83494Y68294D01*
X83574D02*
X83694Y68414D01*
X83814Y68294D01*
X83694Y68174D01*
X83574Y68294D01*
X89794Y64884D02*
X89994Y65084D01*
X90194Y64884D01*
X89994Y64684D01*
X89794Y64884D01*
X89874D02*
X89994Y65004D01*
X90114Y64884D01*
X89994Y64764D01*
X89874Y64884D01*
X80864D02*
X81064Y65084D01*
X81264Y64884D01*
X81064Y64684D01*
X80864Y64884D01*
X80944D02*
X81064Y65004D01*
X81184Y64884D01*
X81064Y64764D01*
X80944Y64884D01*
X83929Y73969D02*
X84129Y74169D01*
X84329Y73969D01*
X84129Y73769D01*
X83929Y73969D01*
X84009D02*
X84129Y74089D01*
X84249Y73969D01*
X84129Y73849D01*
X84009Y73969D01*
X93823Y75912D02*
X94023Y76112D01*
X94223Y75912D01*
X94023Y75712D01*
X93823Y75912D01*
X93903D02*
X94023Y76032D01*
X94143Y75912D01*
X94023Y75792D01*
X93903Y75912D01*
X97949Y74768D02*
X98149Y74968D01*
X98349Y74768D01*
X98149Y74568D01*
X97949Y74768D01*
X98029D02*
X98149Y74888D01*
X98269Y74768D01*
X98149Y74648D01*
X98029Y74768D01*
X100474Y74084D02*
X100674Y74284D01*
X100874Y74084D01*
X100674Y73884D01*
X100474Y74084D01*
X100554D02*
X100674Y74204D01*
X100794Y74084D01*
X100674Y73964D01*
X100554Y74084D01*
X102449Y73912D02*
X102649Y74112D01*
X102849Y73912D01*
X102649Y73712D01*
X102449Y73912D01*
X102529D02*
X102649Y74032D01*
X102769Y73912D01*
X102649Y73792D01*
X102529Y73912D01*
X102449Y75783D02*
X102649Y75983D01*
X102849Y75783D01*
X102649Y75583D01*
X102449Y75783D01*
X102529D02*
X102649Y75903D01*
X102769Y75783D01*
X102649Y75663D01*
X102529Y75783D01*
X113294Y81634D02*
X113494Y81834D01*
X113694Y81634D01*
X113494Y81434D01*
X113294Y81634D01*
X113374D02*
X113494Y81754D01*
X113614Y81634D01*
X113494Y81514D01*
X113374Y81634D01*
X114074Y78634D02*
X114274Y78834D01*
X114474Y78634D01*
X114274Y78434D01*
X114074Y78634D01*
X114154D02*
X114274Y78754D01*
X114394Y78634D01*
X114274Y78514D01*
X114154Y78634D01*
X113294Y82134D02*
X113494Y82334D01*
X113694Y82134D01*
X113494Y81934D01*
X113294Y82134D01*
X113374D02*
X113494Y82254D01*
X113614Y82134D01*
X113494Y82014D01*
X113374Y82134D01*
X113344Y80634D02*
X113544Y80834D01*
X113744Y80634D01*
X113544Y80434D01*
X113344Y80634D01*
X113424D02*
X113544Y80754D01*
X113664Y80634D01*
X113544Y80514D01*
X113424Y80634D01*
X114094Y79234D02*
X114294Y79434D01*
X114494Y79234D01*
X114294Y79034D01*
X114094Y79234D01*
X114174D02*
X114294Y79354D01*
X114414Y79234D01*
X114294Y79114D01*
X114174Y79234D01*
X118544Y78884D02*
X118744Y79084D01*
X118944Y78884D01*
X118744Y78684D01*
X118544Y78884D01*
X118624D02*
X118744Y79004D01*
X118864Y78884D01*
X118744Y78764D01*
X118624Y78884D01*
X118544Y80884D02*
X118744Y81084D01*
X118944Y80884D01*
X118744Y80684D01*
X118544Y80884D01*
X118624D02*
X118744Y81004D01*
X118864Y80884D01*
X118744Y80764D01*
X118624Y80884D01*
X112719Y81634D02*
X112919Y81834D01*
X113119Y81634D01*
X112919Y81434D01*
X112719Y81634D01*
X112799D02*
X112919Y81754D01*
X113039Y81634D01*
X112919Y81514D01*
X112799Y81634D01*
X113319Y77734D02*
X113519Y77934D01*
X113719Y77734D01*
X113519Y77534D01*
X113319Y77734D01*
X113399D02*
X113519Y77854D01*
X113639Y77734D01*
X113519Y77614D01*
X113399Y77734D01*
X117149Y78434D02*
X117349Y78634D01*
X117549Y78434D01*
X117349Y78234D01*
X117149Y78434D01*
X117229D02*
X117349Y78554D01*
X117469Y78434D01*
X117349Y78314D01*
X117229Y78434D01*
X117119Y80634D02*
X117319Y80834D01*
X117519Y80634D01*
X117319Y80434D01*
X117119Y80634D01*
X117199D02*
X117319Y80754D01*
X117439Y80634D01*
X117319Y80514D01*
X117199Y80634D01*
X95309Y67534D02*
X95509Y67734D01*
X95709Y67534D01*
X95509Y67334D01*
X95309Y67534D01*
X95389D02*
X95509Y67654D01*
X95629Y67534D01*
X95509Y67414D01*
X95389Y67534D01*
X93059Y68084D02*
X93259Y68284D01*
X93459Y68084D01*
X93259Y67884D01*
X93059Y68084D01*
X93139D02*
X93259Y68204D01*
X93379Y68084D01*
X93259Y67964D01*
X93139Y68084D01*
X95309Y66934D02*
X95509Y67134D01*
X95709Y66934D01*
X95509Y66734D01*
X95309Y66934D01*
X95389D02*
X95509Y67054D01*
X95629Y66934D01*
X95509Y66814D01*
X95389Y66934D01*
X93059Y67584D02*
X93259Y67784D01*
X93459Y67584D01*
X93259Y67384D01*
X93059Y67584D01*
X93139D02*
X93259Y67704D01*
X93379Y67584D01*
X93259Y67464D01*
X93139Y67584D01*
X95309Y66334D02*
X95509Y66534D01*
X95709Y66334D01*
X95509Y66134D01*
X95309Y66334D01*
X95389D02*
X95509Y66454D01*
X95629Y66334D01*
X95509Y66214D01*
X95389Y66334D01*
X93059Y67084D02*
X93259Y67284D01*
X93459Y67084D01*
X93259Y66884D01*
X93059Y67084D01*
X93139D02*
X93259Y67204D01*
X93379Y67084D01*
X93259Y66964D01*
X93139Y67084D01*
X95309Y65854D02*
X95509Y66054D01*
X95709Y65854D01*
X95509Y65654D01*
X95309Y65854D01*
X95389D02*
X95509Y65974D01*
X95629Y65854D01*
X95509Y65734D01*
X95389Y65854D01*
X93059Y66584D02*
X93259Y66784D01*
X93459Y66584D01*
X93259Y66384D01*
X93059Y66584D01*
X93139D02*
X93259Y66704D01*
X93379Y66584D01*
X93259Y66464D01*
X93139Y66584D01*
X96659Y81363D02*
X96859Y81563D01*
X97059Y81363D01*
X96859Y81163D01*
X96659Y81363D01*
X96739D02*
X96859Y81483D01*
X96979Y81363D01*
X96859Y81243D01*
X96739Y81363D01*
X79474Y85234D02*
X79674Y85434D01*
X79874Y85234D01*
X79674Y85034D01*
X79474Y85234D01*
X79554D02*
X79674Y85354D01*
X79794Y85234D01*
X79674Y85114D01*
X79554Y85234D01*
X80779Y85389D02*
X80979Y85589D01*
X81179Y85389D01*
X80979Y85189D01*
X80779Y85389D01*
X80859D02*
X80979Y85509D01*
X81099Y85389D01*
X80979Y85269D01*
X80859Y85389D01*
X81124Y84534D02*
X81324Y84734D01*
X81524Y84534D01*
X81324Y84334D01*
X81124Y84534D01*
X81204D02*
X81324Y84654D01*
X81444Y84534D01*
X81324Y84414D01*
X81204Y84534D01*
X114819Y84084D02*
X115019Y84284D01*
X115219Y84084D01*
X115019Y83884D01*
X114819Y84084D01*
X114899D02*
X115019Y84204D01*
X115139Y84084D01*
X115019Y83964D01*
X114899Y84084D01*
X80074Y84184D02*
X80274Y84384D01*
X80474Y84184D01*
X80274Y83984D01*
X80074Y84184D01*
X80154D02*
X80274Y84304D01*
X80394Y84184D01*
X80274Y84064D01*
X80154Y84184D01*
X115424Y84084D02*
X115624Y84284D01*
X115824Y84084D01*
X115624Y83884D01*
X115424Y84084D01*
X115504D02*
X115624Y84204D01*
X115744Y84084D01*
X115624Y83964D01*
X115504Y84084D01*
X79749Y72783D02*
X79949Y72983D01*
X80149Y72783D01*
X79949Y72583D01*
X79749Y72783D01*
X79829D02*
X79949Y72903D01*
X80069Y72783D01*
X79949Y72663D01*
X79829Y72783D01*
X84699D02*
X84899Y72983D01*
X85099Y72783D01*
X84899Y72583D01*
X84699Y72783D01*
X84779D02*
X84899Y72903D01*
X85019Y72783D01*
X84899Y72663D01*
X84779Y72783D01*
X98899Y80983D02*
X99099Y81183D01*
X99299Y80983D01*
X99099Y80783D01*
X98899Y80983D01*
X98979D02*
X99099Y81103D01*
X99219Y80983D01*
X99099Y80863D01*
X98979Y80983D01*
X100694Y80988D02*
X100894Y81188D01*
X101094Y80988D01*
X100894Y80788D01*
X100694Y80988D01*
X100774D02*
X100894Y81108D01*
X101014Y80988D01*
X100894Y80868D01*
X100774Y80988D01*
X87629Y80739D02*
X87829Y80939D01*
X88029Y80739D01*
X87829Y80539D01*
X87629Y80739D01*
X87709D02*
X87829Y80859D01*
X87949Y80739D01*
X87829Y80619D01*
X87709Y80739D01*
X105499Y80983D02*
X105699Y81183D01*
X105899Y80983D01*
X105699Y80783D01*
X105499Y80983D01*
X105579D02*
X105699Y81103D01*
X105819Y80983D01*
X105699Y80863D01*
X105579Y80983D01*
X79049Y79633D02*
X79249Y79833D01*
X79449Y79633D01*
X79249Y79433D01*
X79049Y79633D01*
X79129D02*
X79249Y79753D01*
X79369Y79633D01*
X79249Y79513D01*
X79129Y79633D01*
X93649Y78683D02*
X93849Y78883D01*
X94049Y78683D01*
X93849Y78483D01*
X93649Y78683D01*
X93729D02*
X93849Y78803D01*
X93969Y78683D01*
X93849Y78563D01*
X93729Y78683D01*
X78724Y79234D02*
X78924Y79434D01*
X79124Y79234D01*
X78924Y79034D01*
X78724Y79234D01*
X78804D02*
X78924Y79354D01*
X79044Y79234D01*
X78924Y79114D01*
X78804Y79234D01*
X78724Y76484D02*
X78924Y76684D01*
X79124Y76484D01*
X78924Y76284D01*
X78724Y76484D01*
X78804D02*
X78924Y76604D01*
X79044Y76484D01*
X78924Y76364D01*
X78804Y76484D01*
X105979Y76434D02*
X106179Y76634D01*
X106379Y76434D01*
X106179Y76234D01*
X105979Y76434D01*
X106059D02*
X106179Y76554D01*
X106299Y76434D01*
X106179Y76314D01*
X106059Y76434D01*
X102874Y72634D02*
X103074Y72834D01*
X103274Y72634D01*
X103074Y72434D01*
X102874Y72634D01*
X102954D02*
X103074Y72754D01*
X103194Y72634D01*
X103074Y72514D01*
X102954Y72634D01*
X108179Y76084D02*
X108379Y76284D01*
X108579Y76084D01*
X108379Y75884D01*
X108179Y76084D01*
X108259D02*
X108379Y76204D01*
X108499Y76084D01*
X108379Y75964D01*
X108259Y76084D01*
X97804Y71614D02*
X98004Y71814D01*
X98204Y71614D01*
X98004Y71414D01*
X97804Y71614D01*
X97884D02*
X98004Y71734D01*
X98124Y71614D01*
X98004Y71494D01*
X97884Y71614D01*
X86494Y68394D02*
X86694Y68594D01*
X86894Y68394D01*
X86694Y68194D01*
X86494Y68394D01*
X86574D02*
X86694Y68514D01*
X86814Y68394D01*
X86694Y68274D01*
X86574Y68394D01*
X97804Y72114D02*
X98004Y72314D01*
X98204Y72114D01*
X98004Y71914D01*
X97804Y72114D01*
X97884D02*
X98004Y72234D01*
X98124Y72114D01*
X98004Y71994D01*
X97884Y72114D01*
X83099Y73600D02*
X83299Y73800D01*
X83499Y73600D01*
X83299Y73400D01*
X83099Y73600D01*
X83179D02*
X83299Y73720D01*
X83419Y73600D01*
X83299Y73480D01*
X83179Y73600D01*
X89154Y72844D02*
X89354Y73044D01*
X89554Y72844D01*
X89354Y72644D01*
X89154Y72844D01*
X89234D02*
X89354Y72964D01*
X89474Y72844D01*
X89354Y72724D01*
X89234Y72844D01*
X95351Y72650D02*
X95551Y72850D01*
X95751Y72650D01*
X95551Y72450D01*
X95351Y72650D01*
X95431D02*
X95551Y72770D01*
X95671Y72650D01*
X95551Y72530D01*
X95431Y72650D01*
X92749Y69912D02*
X92949Y70112D01*
X93149Y69912D01*
X92949Y69712D01*
X92749Y69912D01*
X92829D02*
X92949Y70032D01*
X93069Y69912D01*
X92949Y69792D01*
X92829Y69912D01*
X80779Y75280D02*
X80979Y75480D01*
X81179Y75280D01*
X80979Y75080D01*
X80779Y75280D01*
X80859D02*
X80979Y75400D01*
X81099Y75280D01*
X80979Y75160D01*
X80859Y75280D01*
X78349D02*
X78549Y75480D01*
X78749Y75280D01*
X78549Y75080D01*
X78349Y75280D01*
X78429D02*
X78549Y75400D01*
X78669Y75280D01*
X78549Y75160D01*
X78429Y75280D01*
X77124Y79012D02*
X77324Y79212D01*
X77524Y79012D01*
X77324Y78812D01*
X77124Y79012D01*
X77204D02*
X77324Y79132D01*
X77444Y79012D01*
X77324Y78892D01*
X77204Y79012D01*
X92201Y72300D02*
X92401Y72500D01*
X92601Y72300D01*
X92401Y72100D01*
X92201Y72300D01*
X92281D02*
X92401Y72420D01*
X92521Y72300D01*
X92401Y72180D01*
X92281Y72300D01*
X95701D02*
X95901Y72500D01*
X96101Y72300D01*
X95901Y72100D01*
X95701Y72300D01*
X95781D02*
X95901Y72420D01*
X96021Y72300D01*
X95901Y72180D01*
X95781Y72300D01*
X92751Y71950D02*
X92951Y72150D01*
X93151Y71950D01*
X92951Y71750D01*
X92751Y71950D01*
X92831D02*
X92951Y72070D01*
X93071Y71950D01*
X92951Y71830D01*
X92831Y71950D01*
X96051D02*
X96251Y72150D01*
X96451Y71950D01*
X96251Y71750D01*
X96051Y71950D01*
X96131D02*
X96251Y72070D01*
X96371Y71950D01*
X96251Y71830D01*
X96131Y71950D01*
X93101Y71600D02*
X93301Y71800D01*
X93501Y71600D01*
X93301Y71400D01*
X93101Y71600D01*
X93181D02*
X93301Y71720D01*
X93421Y71600D01*
X93301Y71480D01*
X93181Y71600D01*
X96401D02*
X96601Y71800D01*
X96801Y71600D01*
X96601Y71400D01*
X96401Y71600D01*
X96481D02*
X96601Y71720D01*
X96721Y71600D01*
X96601Y71480D01*
X96481Y71600D01*
X93551Y71250D02*
X93751Y71450D01*
X93951Y71250D01*
X93751Y71050D01*
X93551Y71250D01*
X93631D02*
X93751Y71370D01*
X93871Y71250D01*
X93751Y71130D01*
X93631Y71250D01*
X96751Y72650D02*
X96951Y72850D01*
X97151Y72650D01*
X96951Y72450D01*
X96751Y72650D01*
X96831D02*
X96951Y72770D01*
X97071Y72650D01*
X96951Y72530D01*
X96831Y72650D01*
X90544Y72981D02*
X90744Y73181D01*
X90944Y72981D01*
X90744Y72781D01*
X90544Y72981D01*
X90624D02*
X90744Y73101D01*
X90864Y72981D01*
X90744Y72861D01*
X90624Y72981D01*
X94993D02*
X95193Y73181D01*
X95393Y72981D01*
X95193Y72781D01*
X94993Y72981D01*
X95073D02*
X95193Y73101D01*
X95313Y72981D01*
X95193Y72861D01*
X95073Y72981D01*
X90543Y73481D02*
X90743Y73681D01*
X90943Y73481D01*
X90743Y73281D01*
X90543Y73481D01*
X90623D02*
X90743Y73601D01*
X90863Y73481D01*
X90743Y73361D01*
X90623Y73481D01*
X98543Y74331D02*
X98743Y74531D01*
X98943Y74331D01*
X98743Y74131D01*
X98543Y74331D01*
X98623D02*
X98743Y74451D01*
X98863Y74331D01*
X98743Y74211D01*
X98623Y74331D01*
X90543Y73931D02*
X90743Y74131D01*
X90943Y73931D01*
X90743Y73731D01*
X90543Y73931D01*
X90623D02*
X90743Y74051D01*
X90863Y73931D01*
X90743Y73811D01*
X90623Y73931D01*
X95164Y73704D02*
X95364Y73904D01*
X95564Y73704D01*
X95364Y73504D01*
X95164Y73704D01*
X95244D02*
X95364Y73824D01*
X95484Y73704D01*
X95364Y73584D01*
X95244Y73704D01*
X94814Y74114D02*
X95014Y74314D01*
X95214Y74114D01*
X95014Y73914D01*
X94814Y74114D01*
X94894D02*
X95014Y74234D01*
X95134Y74114D01*
X95014Y73994D01*
X94894Y74114D01*
X81427Y76481D02*
X81627Y76681D01*
X81827Y76481D01*
X81627Y76281D01*
X81427Y76481D01*
X81507D02*
X81627Y76601D01*
X81747Y76481D01*
X81627Y76361D01*
X81507Y76481D01*
X87244Y71944D02*
X87444Y72144D01*
X87644Y71944D01*
X87444Y71744D01*
X87244Y71944D01*
X87324D02*
X87444Y72064D01*
X87564Y71944D01*
X87444Y71824D01*
X87324Y71944D01*
X77868Y72781D02*
X78068Y72981D01*
X78268Y72781D01*
X78068Y72581D01*
X77868Y72781D01*
X77948D02*
X78068Y72901D01*
X78188Y72781D01*
X78068Y72661D01*
X77948Y72781D01*
X86934Y77364D02*
X87134Y77564D01*
X87334Y77364D01*
X87134Y77164D01*
X86934Y77364D01*
X87014D02*
X87134Y77484D01*
X87254Y77364D01*
X87134Y77244D01*
X87014Y77364D01*
X96099Y75033D02*
X96299Y75233D01*
X96499Y75033D01*
X96299Y74833D01*
X96099Y75033D01*
X96179D02*
X96299Y75153D01*
X96419Y75033D01*
X96299Y74913D01*
X96179Y75033D01*
X95249Y75483D02*
X95449Y75683D01*
X95649Y75483D01*
X95449Y75283D01*
X95249Y75483D01*
X95329D02*
X95449Y75603D01*
X95569Y75483D01*
X95449Y75363D01*
X95329Y75483D01*
X77874Y76983D02*
X78074Y77183D01*
X78274Y76983D01*
X78074Y76783D01*
X77874Y76983D01*
X77954D02*
X78074Y77103D01*
X78194Y76983D01*
X78074Y76863D01*
X77954Y76983D01*
X83824Y76084D02*
X84024Y76284D01*
X84224Y76084D01*
X84024Y75884D01*
X83824Y76084D01*
X83904D02*
X84024Y76204D01*
X84144Y76084D01*
X84024Y75964D01*
X83904Y76084D01*
X88924Y75684D02*
X89124Y75884D01*
X89324Y75684D01*
X89124Y75484D01*
X88924Y75684D01*
X89004D02*
X89124Y75804D01*
X89244Y75684D01*
X89124Y75564D01*
X89004Y75684D01*
X83501Y75750D02*
X83701Y75950D01*
X83901Y75750D01*
X83701Y75550D01*
X83501Y75750D01*
X83581D02*
X83701Y75870D01*
X83821Y75750D01*
X83701Y75630D01*
X83581Y75750D01*
X83651Y75150D02*
X83851Y75350D01*
X84051Y75150D01*
X83851Y74950D01*
X83651Y75150D01*
X83731D02*
X83851Y75270D01*
X83971Y75150D01*
X83851Y75030D01*
X83731Y75150D01*
X88073Y74935D02*
X88273Y75135D01*
X88473Y74935D01*
X88273Y74735D01*
X88073Y74935D01*
X88153D02*
X88273Y75055D01*
X88393Y74935D01*
X88273Y74815D01*
X88153Y74935D01*
X91349Y75562D02*
X91549Y75762D01*
X91749Y75562D01*
X91549Y75362D01*
X91349Y75562D01*
X91429D02*
X91549Y75682D01*
X91669Y75562D01*
X91549Y75442D01*
X91429Y75562D01*
X87699Y73412D02*
X87899Y73612D01*
X88099Y73412D01*
X87899Y73212D01*
X87699Y73412D01*
X87779D02*
X87899Y73532D01*
X88019Y73412D01*
X87899Y73292D01*
X87779Y73412D01*
X97949Y76233D02*
X98149Y76433D01*
X98349Y76233D01*
X98149Y76033D01*
X97949Y76233D01*
X98029D02*
X98149Y76353D01*
X98269Y76233D01*
X98149Y76113D01*
X98029Y76233D01*
X91911Y71456D02*
X92111Y71656D01*
X92311Y71456D01*
X92111Y71256D01*
X91911Y71456D01*
X91991D02*
X92111Y71576D01*
X92231Y71456D01*
X92111Y71336D01*
X91991Y71456D01*
X99349Y72210D02*
X99549Y72410D01*
X99749Y72210D01*
X99549Y72010D01*
X99349Y72210D01*
X99429D02*
X99549Y72330D01*
X99669Y72210D01*
X99549Y72090D01*
X99429Y72210D01*
X80579Y87189D02*
X80779Y87389D01*
X80979Y87189D01*
X80779Y86989D01*
X80579Y87189D01*
X80659D02*
X80779Y87309D01*
X80899Y87189D01*
X80779Y87069D01*
X80659Y87189D01*
X114699Y76234D02*
X114899Y76434D01*
X115099Y76234D01*
X114899Y76034D01*
X114699Y76234D01*
X114779D02*
X114899Y76354D01*
X115019Y76234D01*
X114899Y76114D01*
X114779Y76234D01*
X115299Y72884D02*
X115499Y73084D01*
X115699Y72884D01*
X115499Y72684D01*
X115299Y72884D01*
X115379D02*
X115499Y73004D01*
X115619Y72884D01*
X115499Y72764D01*
X115379Y72884D01*
X115299Y72434D02*
X115499Y72634D01*
X115699Y72434D01*
X115499Y72234D01*
X115299Y72434D01*
X115379D02*
X115499Y72554D01*
X115619Y72434D01*
X115499Y72314D01*
X115379Y72434D01*
X109324Y73484D02*
X109524Y73684D01*
X109724Y73484D01*
X109524Y73284D01*
X109324Y73484D01*
X109404D02*
X109524Y73604D01*
X109644Y73484D01*
X109524Y73364D01*
X109404Y73484D01*
X109324Y72934D02*
X109524Y73134D01*
X109724Y72934D01*
X109524Y72734D01*
X109324Y72934D01*
X109404D02*
X109524Y73054D01*
X109644Y72934D01*
X109524Y72814D01*
X109404Y72934D01*
X105774Y71984D02*
X105974Y72184D01*
X106174Y71984D01*
X105974Y71784D01*
X105774Y71984D01*
X105854D02*
X105974Y72104D01*
X106094Y71984D01*
X105974Y71864D01*
X105854Y71984D01*
X104324Y76184D02*
X104524Y76384D01*
X104724Y76184D01*
X104524Y75984D01*
X104324Y76184D01*
X104404D02*
X104524Y76304D01*
X104644Y76184D01*
X104524Y76064D01*
X104404Y76184D01*
X101594Y78564D02*
X101794Y78764D01*
X101994Y78564D01*
X101794Y78364D01*
X101594Y78564D01*
X101674D02*
X101794Y78684D01*
X101914Y78564D01*
X101794Y78444D01*
X101674Y78564D01*
X101594Y77964D02*
X101794Y78164D01*
X101994Y77964D01*
X101794Y77764D01*
X101594Y77964D01*
X101674D02*
X101794Y78084D01*
X101914Y77964D01*
X101794Y77844D01*
X101674Y77964D01*
X104324Y75634D02*
X104524Y75834D01*
X104724Y75634D01*
X104524Y75434D01*
X104324Y75634D01*
X104404D02*
X104524Y75754D01*
X104644Y75634D01*
X104524Y75514D01*
X104404Y75634D01*
X103025Y63442D02*
X103225Y63642D01*
X103425Y63442D01*
X103225Y63242D01*
X103025Y63442D01*
X103105D02*
X103225Y63562D01*
X103345Y63442D01*
X103225Y63322D01*
X103105Y63442D01*
X103525D02*
X103725Y63642D01*
X103925Y63442D01*
X103725Y63242D01*
X103525Y63442D01*
X103605D02*
X103725Y63562D01*
X103845Y63442D01*
X103725Y63322D01*
X103605Y63442D01*
X104025D02*
X104225Y63642D01*
X104425Y63442D01*
X104225Y63242D01*
X104025Y63442D01*
X104105D02*
X104225Y63562D01*
X104345Y63442D01*
X104225Y63322D01*
X104105Y63442D01*
X107025Y61634D02*
X107225Y61834D01*
X107425Y61634D01*
X107225Y61434D01*
X107025Y61634D01*
X107105D02*
X107225Y61754D01*
X107345Y61634D01*
X107225Y61514D01*
X107105Y61634D01*
X105825D02*
X106025Y61834D01*
X106225Y61634D01*
X106025Y61434D01*
X105825Y61634D01*
X105905D02*
X106025Y61754D01*
X106145Y61634D01*
X106025Y61514D01*
X105905Y61634D01*
X106425D02*
X106625Y61834D01*
X106825Y61634D01*
X106625Y61434D01*
X106425Y61634D01*
X106505D02*
X106625Y61754D01*
X106745Y61634D01*
X106625Y61514D01*
X106505Y61634D01*
X99074Y70184D02*
X99274Y70384D01*
X99474Y70184D01*
X99274Y69984D01*
X99074Y70184D01*
X99154D02*
X99274Y70304D01*
X99394Y70184D01*
X99274Y70064D01*
X99154Y70184D01*
X109824Y64734D02*
X110024Y64934D01*
X110224Y64734D01*
X110024Y64534D01*
X109824Y64734D01*
X109904D02*
X110024Y64854D01*
X110144Y64734D01*
X110024Y64614D01*
X109904Y64734D01*
X113474Y63084D02*
X113674Y63284D01*
X113874Y63084D01*
X113674Y62884D01*
X113474Y63084D01*
X113554D02*
X113674Y63204D01*
X113794Y63084D01*
X113674Y62964D01*
X113554Y63084D01*
X118424Y62642D02*
X118624Y62842D01*
X118824Y62642D01*
X118624Y62442D01*
X118424Y62642D01*
X118504D02*
X118624Y62762D01*
X118744Y62642D01*
X118624Y62522D01*
X118504Y62642D01*
X96104Y64884D02*
X96304Y65084D01*
X96504Y64884D01*
X96304Y64684D01*
X96104Y64884D01*
X96184D02*
X96304Y65004D01*
X96424Y64884D01*
X96304Y64764D01*
X96184Y64884D01*
X110804Y65484D02*
X111004Y65684D01*
X111204Y65484D01*
X111004Y65284D01*
X110804Y65484D01*
X110884D02*
X111004Y65604D01*
X111124Y65484D01*
X111004Y65364D01*
X110884Y65484D01*
X110254D02*
X110454Y65684D01*
X110654Y65484D01*
X110454Y65284D01*
X110254Y65484D01*
X110334D02*
X110454Y65604D01*
X110574Y65484D01*
X110454Y65364D01*
X110334Y65484D01*
X109654D02*
X109854Y65684D01*
X110054Y65484D01*
X109854Y65284D01*
X109654Y65484D01*
X109734D02*
X109854Y65604D01*
X109974Y65484D01*
X109854Y65364D01*
X109734Y65484D01*
X96604Y64884D02*
X96804Y65084D01*
X97004Y64884D01*
X96804Y64684D01*
X96604Y64884D01*
X96684D02*
X96804Y65004D01*
X96924Y64884D01*
X96804Y64764D01*
X96684Y64884D01*
X105074Y67934D02*
X105274Y68134D01*
X105474Y67934D01*
X105274Y67734D01*
X105074Y67934D01*
X105154D02*
X105274Y68054D01*
X105394Y67934D01*
X105274Y67814D01*
X105154Y67934D01*
X109354Y66584D02*
X109554Y66784D01*
X109754Y66584D01*
X109554Y66384D01*
X109354Y66584D01*
X109434D02*
X109554Y66704D01*
X109674Y66584D01*
X109554Y66464D01*
X109434Y66584D01*
X110404D02*
X110604Y66784D01*
X110804Y66584D01*
X110604Y66384D01*
X110404Y66584D01*
X110484D02*
X110604Y66704D01*
X110724Y66584D01*
X110604Y66464D01*
X110484Y66584D01*
X109904D02*
X110104Y66784D01*
X110304Y66584D01*
X110104Y66384D01*
X109904Y66584D01*
X109984D02*
X110104Y66704D01*
X110224Y66584D01*
X110104Y66464D01*
X109984Y66584D01*
X105074Y67014D02*
X105274Y67214D01*
X105474Y67014D01*
X105274Y66814D01*
X105074Y67014D01*
X105154D02*
X105274Y67134D01*
X105394Y67014D01*
X105274Y66894D01*
X105154Y67014D01*
X105074Y67484D02*
X105274Y67684D01*
X105474Y67484D01*
X105274Y67284D01*
X105074Y67484D01*
X105154D02*
X105274Y67604D01*
X105394Y67484D01*
X105274Y67364D01*
X105154Y67484D01*
X121139Y87689D02*
X121339Y87889D01*
X121539Y87689D01*
X121339Y87489D01*
X121139Y87689D01*
X121219D02*
X121339Y87809D01*
X121459Y87689D01*
X121339Y87569D01*
X121219Y87689D01*
X121224Y88892D02*
X121424Y89092D01*
X121624Y88892D01*
X121424Y88692D01*
X121224Y88892D01*
X121304D02*
X121424Y89012D01*
X121544Y88892D01*
X121424Y88772D01*
X121304Y88892D01*
X123124Y59842D02*
X123324Y60042D01*
X123524Y59842D01*
X123324Y59642D01*
X123124Y59842D01*
X123204D02*
X123324Y59962D01*
X123444Y59842D01*
X123324Y59722D01*
X123204Y59842D01*
X123124Y63242D02*
X123324Y63442D01*
X123524Y63242D01*
X123324Y63042D01*
X123124Y63242D01*
X123204D02*
X123324Y63362D01*
X123444Y63242D01*
X123324Y63122D01*
X123204Y63242D01*
X117974Y62642D02*
X118174Y62842D01*
X118374Y62642D01*
X118174Y62442D01*
X117974Y62642D01*
X118054D02*
X118174Y62762D01*
X118294Y62642D01*
X118174Y62522D01*
X118054Y62642D01*
X118874D02*
X119074Y62842D01*
X119274Y62642D01*
X119074Y62442D01*
X118874Y62642D01*
X118954D02*
X119074Y62762D01*
X119194Y62642D01*
X119074Y62522D01*
X118954Y62642D01*
X122374Y86442D02*
X122574Y86642D01*
X122774Y86442D01*
X122574Y86242D01*
X122374Y86442D01*
X122454D02*
X122574Y86562D01*
X122694Y86442D01*
X122574Y86322D01*
X122454Y86442D01*
X122174Y83192D02*
X122374Y83392D01*
X122574Y83192D01*
X122374Y82992D01*
X122174Y83192D01*
X122254D02*
X122374Y83312D01*
X122494Y83192D01*
X122374Y83072D01*
X122254Y83192D01*
X122674Y86092D02*
X122874Y86292D01*
X123074Y86092D01*
X122874Y85892D01*
X122674Y86092D01*
X122754D02*
X122874Y86212D01*
X122994Y86092D01*
X122874Y85972D01*
X122754Y86092D01*
X122524Y83792D02*
X122724Y83992D01*
X122924Y83792D01*
X122724Y83592D01*
X122524Y83792D01*
X122604D02*
X122724Y83912D01*
X122844Y83792D01*
X122724Y83672D01*
X122604Y83792D01*
X122174Y81692D02*
X122374Y81892D01*
X122574Y81692D01*
X122374Y81492D01*
X122174Y81692D01*
X122254D02*
X122374Y81812D01*
X122494Y81692D01*
X122374Y81572D01*
X122254Y81692D01*
X122174Y80492D02*
X122374Y80692D01*
X122574Y80492D01*
X122374Y80292D01*
X122174Y80492D01*
X122254D02*
X122374Y80612D01*
X122494Y80492D01*
X122374Y80372D01*
X122254Y80492D01*
X121174Y85592D02*
X121374Y85792D01*
X121574Y85592D01*
X121374Y85392D01*
X121174Y85592D01*
X121254D02*
X121374Y85712D01*
X121494Y85592D01*
X121374Y85472D01*
X121254Y85592D01*
X122924D02*
X123124Y85792D01*
X123324Y85592D01*
X123124Y85392D01*
X122924Y85592D01*
X123004D02*
X123124Y85712D01*
X123244Y85592D01*
X123124Y85472D01*
X123004Y85592D01*
X122524Y82742D02*
X122724Y82942D01*
X122924Y82742D01*
X122724Y82542D01*
X122524Y82742D01*
X122604D02*
X122724Y82862D01*
X122844Y82742D01*
X122724Y82622D01*
X122604Y82742D01*
X122924Y86842D02*
X123124Y87042D01*
X123324Y86842D01*
X123124Y86642D01*
X122924Y86842D01*
X123004D02*
X123124Y86962D01*
X123244Y86842D01*
X123124Y86722D01*
X123004Y86842D01*
X120774Y79092D02*
X120974Y79292D01*
X121174Y79092D01*
X120974Y78892D01*
X120774Y79092D01*
X120854D02*
X120974Y79212D01*
X121094Y79092D01*
X120974Y78972D01*
X120854Y79092D01*
X125924Y84692D02*
X126124Y84892D01*
X126324Y84692D01*
X126124Y84492D01*
X125924Y84692D01*
X126004D02*
X126124Y84812D01*
X126244Y84692D01*
X126124Y84572D01*
X126004Y84692D01*
X123674Y84942D02*
X123874Y85142D01*
X124074Y84942D01*
X123874Y84742D01*
X123674Y84942D01*
X123754D02*
X123874Y85062D01*
X123994Y84942D01*
X123874Y84822D01*
X123754Y84942D01*
X96474Y62192D02*
X96674Y62392D01*
X96874Y62192D01*
X96674Y61992D01*
X96474Y62192D01*
X96554D02*
X96674Y62312D01*
X96794Y62192D01*
X96674Y62072D01*
X96554Y62192D01*
X96124Y61842D02*
X96324Y62042D01*
X96524Y61842D01*
X96324Y61642D01*
X96124Y61842D01*
X96204D02*
X96324Y61962D01*
X96444Y61842D01*
X96324Y61722D01*
X96204Y61842D01*
X121974Y64492D02*
X122174Y64692D01*
X122374Y64492D01*
X122174Y64292D01*
X121974Y64492D01*
X122054D02*
X122174Y64612D01*
X122294Y64492D01*
X122174Y64372D01*
X122054Y64492D01*
X122324Y64142D02*
X122524Y64342D01*
X122724Y64142D01*
X122524Y63942D01*
X122324Y64142D01*
X122404D02*
X122524Y64262D01*
X122644Y64142D01*
X122524Y64022D01*
X122404Y64142D01*
X92144Y69822D02*
X92344Y70022D01*
X92544Y69822D01*
X92344Y69622D01*
X92144Y69822D01*
X92224D02*
X92344Y69942D01*
X92464Y69822D01*
X92344Y69702D01*
X92224Y69822D01*
X118114Y71392D02*
X118314Y71592D01*
X118514Y71392D01*
X118314Y71192D01*
X118114Y71392D01*
X118194D02*
X118314Y71512D01*
X118434Y71392D01*
X118314Y71272D01*
X118194Y71392D01*
X80779Y74469D02*
X80979Y74669D01*
X81179Y74469D01*
X80979Y74269D01*
X80779Y74469D01*
X80859D02*
X80979Y74589D01*
X81099Y74469D01*
X80979Y74349D01*
X80859Y74469D01*
X86969Y79029D02*
X87169Y79229D01*
X87369Y79029D01*
X87169Y78829D01*
X86969Y79029D01*
X87049D02*
X87169Y79149D01*
X87289Y79029D01*
X87169Y78909D01*
X87049Y79029D01*
X78349Y77605D02*
X78549Y77805D01*
X78749Y77605D01*
X78549Y77405D01*
X78349Y77605D01*
X78429D02*
X78549Y77725D01*
X78669Y77605D01*
X78549Y77485D01*
X78429Y77605D01*
X80474Y82359D02*
X80674Y82559D01*
X80874Y82359D01*
X80674Y82159D01*
X80474Y82359D01*
X80554D02*
X80674Y82479D01*
X80794Y82359D01*
X80674Y82239D01*
X80554Y82359D01*
X92029Y80769D02*
X92229Y80969D01*
X92429Y80769D01*
X92229Y80569D01*
X92029Y80769D01*
X92109D02*
X92229Y80889D01*
X92349Y80769D01*
X92229Y80649D01*
X92109Y80769D01*
X85619Y78889D02*
X85819Y79089D01*
X86019Y78889D01*
X85819Y78689D01*
X85619Y78889D01*
X85699D02*
X85819Y79009D01*
X85939Y78889D01*
X85819Y78769D01*
X85699Y78889D01*
X85079Y78879D02*
X85279Y79079D01*
X85479Y78879D01*
X85279Y78679D01*
X85079Y78879D01*
X85159D02*
X85279Y78999D01*
X85399Y78879D01*
X85279Y78759D01*
X85159Y78879D01*
X86999Y80939D02*
X87199Y81139D01*
X87399Y80939D01*
X87199Y80739D01*
X86999Y80939D01*
X87079D02*
X87199Y81059D01*
X87319Y80939D01*
X87199Y80819D01*
X87079Y80939D01*
X86999Y80069D02*
X87199Y80269D01*
X87399Y80069D01*
X87199Y79869D01*
X86999Y80069D01*
X87079D02*
X87199Y80189D01*
X87319Y80069D01*
X87199Y79949D01*
X87079Y80069D01*
X87329Y88649D02*
X87529Y88849D01*
X87729Y88649D01*
X87529Y88449D01*
X87329Y88649D01*
X87409D02*
X87529Y88769D01*
X87649Y88649D01*
X87529Y88529D01*
X87409Y88649D01*
X92939Y88019D02*
X93139Y88219D01*
X93339Y88019D01*
X93139Y87819D01*
X92939Y88019D01*
X93019D02*
X93139Y88139D01*
X93259Y88019D01*
X93139Y87899D01*
X93019Y88019D01*
X86094Y86994D02*
X86294Y87194D01*
X86494Y86994D01*
X86294Y86794D01*
X86094Y86994D01*
X86174D02*
X86294Y87114D01*
X86414Y86994D01*
X86294Y86874D01*
X86174Y86994D01*
X85899Y85839D02*
X86099Y86039D01*
X86299Y85839D01*
X86099Y85639D01*
X85899Y85839D01*
X85979D02*
X86099Y85959D01*
X86219Y85839D01*
X86099Y85719D01*
X85979Y85839D01*
X82754Y86064D02*
X82954Y86264D01*
X83154Y86064D01*
X82954Y85864D01*
X82754Y86064D01*
X82834D02*
X82954Y86184D01*
X83074Y86064D01*
X82954Y85944D01*
X82834Y86064D01*
X80124Y64884D02*
X80324Y65084D01*
X80524Y64884D01*
X80324Y64684D01*
X80124Y64884D01*
X80204D02*
X80324Y65004D01*
X80444Y64884D01*
X80324Y64764D01*
X80204Y64884D01*
X95734Y88154D02*
X95934Y88354D01*
X96134Y88154D01*
X95934Y87954D01*
X95734Y88154D01*
X95814D02*
X95934Y88274D01*
X96054Y88154D01*
X95934Y88034D01*
X95814Y88154D01*
X95734Y87584D02*
X95934Y87784D01*
X96134Y87584D01*
X95934Y87384D01*
X95734Y87584D01*
X95814D02*
X95934Y87704D01*
X96054Y87584D01*
X95934Y87464D01*
X95814Y87584D01*
X95484Y79024D02*
X95684Y79224D01*
X95884Y79024D01*
X95684Y78824D01*
X95484Y79024D01*
X95564D02*
X95684Y79144D01*
X95804Y79024D01*
X95684Y78904D01*
X95564Y79024D01*
X87651Y72300D02*
X87851Y72500D01*
X88051Y72300D01*
X87851Y72100D01*
X87651Y72300D01*
X87731D02*
X87851Y72420D01*
X87971Y72300D01*
X87851Y72180D01*
X87731Y72300D01*
X92304Y71104D02*
X92504Y71304D01*
X92704Y71104D01*
X92504Y70904D01*
X92304Y71104D01*
X92384D02*
X92504Y71224D01*
X92624Y71104D01*
X92504Y70984D01*
X92384Y71104D01*
X88224Y74504D02*
X88424Y74704D01*
X88624Y74504D01*
X88424Y74304D01*
X88224Y74504D01*
X88304D02*
X88424Y74624D01*
X88544Y74504D01*
X88424Y74384D01*
X88304Y74504D01*
X90414Y75434D02*
X90614Y75634D01*
X90814Y75434D01*
X90614Y75234D01*
X90414Y75434D01*
X90494D02*
X90614Y75554D01*
X90734Y75434D01*
X90614Y75314D01*
X90494Y75434D01*
X97554Y84874D02*
X97754Y85074D01*
X97954Y84874D01*
X97754Y84674D01*
X97554Y84874D01*
X97634D02*
X97754Y84994D01*
X97874Y84874D01*
X97754Y84754D01*
X97634Y84874D01*
X96634Y85184D02*
X96834Y85384D01*
X97034Y85184D01*
X96834Y84984D01*
X96634Y85184D01*
X96714D02*
X96834Y85304D01*
X96954Y85184D01*
X96834Y85064D01*
X96714Y85184D01*
X81634Y66044D02*
X81834Y66244D01*
X82034Y66044D01*
X81834Y65844D01*
X81634Y66044D01*
X81714D02*
X81834Y66164D01*
X81954Y66044D01*
X81834Y65924D01*
X81714Y66044D01*
X87544Y69859D02*
X87744Y70059D01*
X87944Y69859D01*
X87744Y69659D01*
X87544Y69859D01*
X87624D02*
X87744Y69979D01*
X87864Y69859D01*
X87744Y69739D01*
X87624Y69859D01*
X87724Y67539D02*
X87924Y67739D01*
X88124Y67539D01*
X87924Y67339D01*
X87724Y67539D01*
X87804D02*
X87924Y67659D01*
X88044Y67539D01*
X87924Y67419D01*
X87804Y67539D01*
X87224Y71089D02*
X87424Y71289D01*
X87624Y71089D01*
X87424Y70889D01*
X87224Y71089D01*
X87304D02*
X87424Y71209D01*
X87544Y71089D01*
X87424Y70969D01*
X87304Y71089D01*
X87574Y70734D02*
X87774Y70934D01*
X87974Y70734D01*
X87774Y70534D01*
X87574Y70734D01*
X87654D02*
X87774Y70854D01*
X87894Y70734D01*
X87774Y70614D01*
X87654Y70734D01*
X93809Y66084D02*
X94009Y66284D01*
X94209Y66084D01*
X94009Y65884D01*
X93809Y66084D01*
X93889D02*
X94009Y66204D01*
X94129Y66084D01*
X94009Y65964D01*
X93889Y66084D01*
X91509Y65584D02*
X91709Y65784D01*
X91909Y65584D01*
X91709Y65384D01*
X91509Y65584D01*
X91589D02*
X91709Y65704D01*
X91829Y65584D01*
X91709Y65464D01*
X91589Y65584D01*
X95304Y68134D02*
X95504Y68334D01*
X95704Y68134D01*
X95504Y67934D01*
X95304Y68134D01*
X95384D02*
X95504Y68254D01*
X95624Y68134D01*
X95504Y68014D01*
X95384Y68134D01*
X96099Y69062D02*
X96299Y69262D01*
X96499Y69062D01*
X96299Y68862D01*
X96099Y69062D01*
X96179D02*
X96299Y69182D01*
X96419Y69062D01*
X96299Y68942D01*
X96179Y69062D01*
X95649D02*
X95849Y69262D01*
X96049Y69062D01*
X95849Y68862D01*
X95649Y69062D01*
X95729D02*
X95849Y69182D01*
X95969Y69062D01*
X95849Y68942D01*
X95729Y69062D01*
X89834Y69384D02*
X90034Y69584D01*
X90234Y69384D01*
X90034Y69184D01*
X89834Y69384D01*
X89914D02*
X90034Y69504D01*
X90154Y69384D01*
X90034Y69264D01*
X89914Y69384D01*
X90224Y72114D02*
X90424Y72314D01*
X90624Y72114D01*
X90424Y71914D01*
X90224Y72114D01*
X90304D02*
X90424Y72234D01*
X90544Y72114D01*
X90424Y71994D01*
X90304Y72114D01*
X93604Y68584D02*
X93804Y68784D01*
X94004Y68584D01*
X93804Y68384D01*
X93604Y68584D01*
X93684D02*
X93804Y68704D01*
X93924Y68584D01*
X93804Y68464D01*
X93684Y68584D01*
X93084Y69254D02*
X93284Y69454D01*
X93484Y69254D01*
X93284Y69054D01*
X93084Y69254D01*
X93164D02*
X93284Y69374D01*
X93404Y69254D01*
X93284Y69134D01*
X93164Y69254D01*
X94204Y74604D02*
X94404Y74804D01*
X94604Y74604D01*
X94404Y74404D01*
X94204Y74604D01*
X94284D02*
X94404Y74724D01*
X94524Y74604D01*
X94404Y74484D01*
X94284Y74604D01*
X90994Y73934D02*
X91194Y74134D01*
X91394Y73934D01*
X91194Y73734D01*
X90994Y73934D01*
X91074D02*
X91194Y74054D01*
X91314Y73934D01*
X91194Y73814D01*
X91074Y73934D01*
X90414Y74894D02*
X90614Y75094D01*
X90814Y74894D01*
X90614Y74694D01*
X90414Y74894D01*
X90494D02*
X90614Y75014D01*
X90734Y74894D01*
X90614Y74774D01*
X90494Y74894D01*
X87304Y87234D02*
X87504Y87434D01*
X87704Y87234D01*
X87504Y87034D01*
X87304Y87234D01*
X87384D02*
X87504Y87354D01*
X87624Y87234D01*
X87504Y87114D01*
X87384Y87234D01*
X85049Y85933D02*
X85249Y86133D01*
X85449Y85933D01*
X85249Y85733D01*
X85049Y85933D01*
X85129D02*
X85249Y86053D01*
X85369Y85933D01*
X85249Y85813D01*
X85129Y85933D01*
X83829Y85989D02*
X84029Y86189D01*
X84229Y85989D01*
X84029Y85789D01*
X83829Y85989D01*
X83909D02*
X84029Y86109D01*
X84149Y85989D01*
X84029Y85869D01*
X83909Y85989D01*
X98299Y80983D02*
X98499Y81183D01*
X98699Y80983D01*
X98499Y80783D01*
X98299Y80983D01*
X98379D02*
X98499Y81103D01*
X98619Y80983D01*
X98499Y80863D01*
X98379Y80983D01*
X96209Y79883D02*
X96409Y80083D01*
X96609Y79883D01*
X96409Y79683D01*
X96209Y79883D01*
X96289D02*
X96409Y80003D01*
X96529Y79883D01*
X96409Y79763D01*
X96289Y79883D01*
X81925Y81033D02*
X82125Y81233D01*
X82325Y81033D01*
X82125Y80833D01*
X81925Y81033D01*
X82005D02*
X82125Y81153D01*
X82245Y81033D01*
X82125Y80913D01*
X82005Y81033D01*
X83899Y81034D02*
X84099Y81234D01*
X84299Y81034D01*
X84099Y80834D01*
X83899Y81034D01*
X83979D02*
X84099Y81154D01*
X84219Y81034D01*
X84099Y80914D01*
X83979Y81034D01*
X83899Y79984D02*
X84099Y80184D01*
X84299Y79984D01*
X84099Y79784D01*
X83899Y79984D01*
X83979D02*
X84099Y80104D01*
X84219Y79984D01*
X84099Y79864D01*
X83979Y79984D01*
X81925Y80483D02*
X82125Y80683D01*
X82325Y80483D01*
X82125Y80283D01*
X81925Y80483D01*
X82005D02*
X82125Y80603D01*
X82245Y80483D01*
X82125Y80363D01*
X82005Y80483D01*
X81925Y79983D02*
X82125Y80183D01*
X82325Y79983D01*
X82125Y79783D01*
X81925Y79983D01*
X82005D02*
X82125Y80103D01*
X82245Y79983D01*
X82125Y79863D01*
X82005Y79983D01*
X85949Y80783D02*
X86149Y80983D01*
X86349Y80783D01*
X86149Y80583D01*
X85949Y80783D01*
X86029D02*
X86149Y80903D01*
X86269Y80783D01*
X86149Y80663D01*
X86029Y80783D01*
X93054Y74144D02*
X93254Y74344D01*
X93454Y74144D01*
X93254Y73944D01*
X93054Y74144D01*
X93134D02*
X93254Y74264D01*
X93374Y74144D01*
X93254Y74024D01*
X93134Y74144D01*
X82851Y74950D02*
X83051Y75150D01*
X83251Y74950D01*
X83051Y74750D01*
X82851Y74950D01*
X82931D02*
X83051Y75070D01*
X83171Y74950D01*
X83051Y74830D01*
X82931Y74950D01*
X97801Y72850D02*
X98001Y73050D01*
X98201Y72850D01*
X98001Y72650D01*
X97801Y72850D01*
X97881D02*
X98001Y72970D01*
X98121Y72850D01*
X98001Y72730D01*
X97881Y72850D01*
X98201Y75500D02*
X98401Y75700D01*
X98601Y75500D01*
X98401Y75300D01*
X98201Y75500D01*
X98281D02*
X98401Y75620D01*
X98521Y75500D01*
X98401Y75380D01*
X98281Y75500D01*
X98851Y76150D02*
X99051Y76350D01*
X99251Y76150D01*
X99051Y75950D01*
X98851Y76150D01*
X98931D02*
X99051Y76270D01*
X99171Y76150D01*
X99051Y76030D01*
X98931Y76150D01*
X100351Y76800D02*
X100551Y77000D01*
X100751Y76800D01*
X100551Y76600D01*
X100351Y76800D01*
X100431D02*
X100551Y76920D01*
X100671Y76800D01*
X100551Y76680D01*
X100431Y76800D01*
X102951Y75550D02*
X103151Y75750D01*
X103351Y75550D01*
X103151Y75350D01*
X102951Y75550D01*
X103031D02*
X103151Y75670D01*
X103271Y75550D01*
X103151Y75430D01*
X103031Y75550D01*
X102999Y73912D02*
X103199Y74112D01*
X103399Y73912D01*
X103199Y73712D01*
X102999Y73912D01*
X103079D02*
X103199Y74032D01*
X103319Y73912D01*
X103199Y73792D01*
X103079Y73912D01*
X93199Y60612D02*
X93399Y60812D01*
X93599Y60612D01*
X93399Y60412D01*
X93199Y60612D01*
X93279D02*
X93399Y60732D01*
X93519Y60612D01*
X93399Y60492D01*
X93279Y60612D01*
X96489Y76782D02*
X96689Y76982D01*
X96889Y76782D01*
X96689Y76582D01*
X96489Y76782D01*
X96569D02*
X96689Y76902D01*
X96809Y76782D01*
X96689Y76662D01*
X96569Y76782D01*
X94325Y62912D02*
X94525Y63112D01*
X94725Y62912D01*
X94525Y62712D01*
X94325Y62912D01*
X94405D02*
X94525Y63032D01*
X94645Y62912D01*
X94525Y62792D01*
X94405Y62912D01*
X94325Y63412D02*
X94525Y63612D01*
X94725Y63412D01*
X94525Y63212D01*
X94325Y63412D01*
X94405D02*
X94525Y63532D01*
X94645Y63412D01*
X94525Y63292D01*
X94405Y63412D01*
X96399Y63912D02*
X96599Y64112D01*
X96799Y63912D01*
X96599Y63712D01*
X96399Y63912D01*
X96479D02*
X96599Y64032D01*
X96719Y63912D01*
X96599Y63792D01*
X96479Y63912D01*
X96399Y63412D02*
X96599Y63612D01*
X96799Y63412D01*
X96599Y63212D01*
X96399Y63412D01*
X96479D02*
X96599Y63532D01*
X96719Y63412D01*
X96599Y63292D01*
X96479Y63412D01*
X96399Y62912D02*
X96599Y63112D01*
X96799Y62912D01*
X96599Y62712D01*
X96399Y62912D01*
X96479D02*
X96599Y63032D01*
X96719Y62912D01*
X96599Y62792D01*
X96479Y62912D01*
X94325Y63912D02*
X94525Y64112D01*
X94725Y63912D01*
X94525Y63712D01*
X94325Y63912D01*
X94405D02*
X94525Y64032D01*
X94645Y63912D01*
X94525Y63792D01*
X94405Y63912D01*
X82049Y68762D02*
X82249Y68962D01*
X82449Y68762D01*
X82249Y68562D01*
X82049Y68762D01*
X82129D02*
X82249Y68882D01*
X82369Y68762D01*
X82249Y68642D01*
X82129Y68762D01*
X84499Y68312D02*
X84699Y68512D01*
X84899Y68312D01*
X84699Y68112D01*
X84499Y68312D01*
X84579D02*
X84699Y68432D01*
X84819Y68312D01*
X84699Y68192D01*
X84579Y68312D01*
X102899Y75012D02*
X103099Y75212D01*
X103299Y75012D01*
X103099Y74812D01*
X102899Y75012D01*
X102979D02*
X103099Y75132D01*
X103219Y75012D01*
X103099Y74892D01*
X102979Y75012D01*
M02*
