%FSLAX23Y23*%
%MOIN*%
G70*
G01*
G75*
G04 Layer_Physical_Order=6*
G04 Layer_Color=16711680*
%ADD10R,0.050X0.020*%
%ADD11R,0.030X0.030*%
%ADD12R,0.030X0.030*%
%ADD13R,0.059X0.031*%
%ADD14R,0.040X0.055*%
%ADD15R,0.050X0.036*%
%ADD16R,0.036X0.036*%
%ADD17R,0.050X0.150*%
%ADD18R,0.030X0.020*%
%ADD19R,0.024X0.024*%
%ADD20O,0.080X0.024*%
%ADD21O,0.060X0.016*%
%ADD22R,0.024X0.090*%
%ADD23R,0.100X0.024*%
%ADD24R,0.024X0.070*%
%ADD25R,0.090X0.024*%
%ADD26R,0.025X0.055*%
%ADD27R,0.025X0.095*%
%ADD28O,0.060X0.016*%
%ADD29R,0.020X0.039*%
%ADD30R,0.039X0.039*%
%ADD31R,0.047X0.047*%
%ADD32C,0.050*%
%ADD33R,0.031X0.059*%
%ADD34R,0.055X0.040*%
%ADD35R,0.036X0.036*%
%ADD36R,0.036X0.050*%
%ADD37R,0.095X0.025*%
%ADD38R,0.055X0.025*%
%ADD39R,0.047X0.047*%
%ADD40O,0.016X0.060*%
%ADD41R,0.050X0.060*%
%ADD42C,0.008*%
%ADD43C,0.014*%
%ADD44C,0.012*%
%ADD45C,0.030*%
%ADD46C,0.010*%
%ADD47C,0.020*%
%ADD48C,0.006*%
%ADD49C,0.009*%
%ADD50C,0.005*%
%ADD51C,0.015*%
%ADD52C,0.025*%
%ADD53R,0.062X0.062*%
%ADD54C,0.062*%
%ADD55C,0.110*%
%ADD56C,0.045*%
%ADD57C,0.022*%
%ADD58C,0.060*%
%ADD59R,0.014X0.035*%
%ADD60R,0.014X0.035*%
%ADD61R,0.059X0.075*%
%ADD62R,0.250X0.150*%
%ADD63R,0.250X0.140*%
%ADD64R,0.080X0.060*%
%ADD65R,0.063X0.051*%
%ADD66O,0.060X0.014*%
%ADD67R,0.060X0.060*%
G36*
X-299Y357D02*
Y322D01*
X-413D01*
X-414Y287D01*
X-431D01*
X-462Y318D01*
Y359D01*
X-301D01*
X-299Y357D01*
D02*
G37*
G36*
X-212Y436D02*
Y323D01*
X-288D01*
Y361D01*
X-308Y381D01*
X-376D01*
X-388Y393D01*
Y439D01*
X-375Y452D01*
X-228D01*
X-212Y436D01*
D02*
G37*
G36*
X370Y264D02*
X258D01*
Y332D01*
X370D01*
Y264D01*
D02*
G37*
G36*
X-315Y100D02*
X-384D01*
Y295D01*
X-315D01*
Y100D01*
D02*
G37*
G36*
X40Y239D02*
X347D01*
Y193D01*
X125D01*
X99Y167D01*
Y101D01*
X-1D01*
X-2Y171D01*
X-109Y278D01*
X-181D01*
Y361D01*
X-81D01*
X40Y239D01*
D02*
G37*
G36*
X545Y543D02*
X543Y539D01*
X342D01*
X330Y551D01*
Y636D01*
X371Y677D01*
X411D01*
X545Y543D01*
D02*
G37*
G36*
X645Y769D02*
Y675D01*
X611Y641D01*
X522D01*
X499Y664D01*
Y700D01*
X524D01*
Y672D01*
X535Y661D01*
X596D01*
X604Y669D01*
Y749D01*
X586Y767D01*
X548D01*
Y785D01*
X629D01*
X645Y769D01*
D02*
G37*
G36*
X756Y814D02*
X752Y812D01*
X745Y813D01*
X738Y812D01*
X732Y808D01*
X730Y805D01*
X526D01*
Y921D01*
X756D01*
Y814D01*
D02*
G37*
G36*
X267Y652D02*
X248D01*
X229Y633D01*
Y603D01*
X218Y592D01*
X143D01*
Y616D01*
X201Y674D01*
X267D01*
Y652D01*
D02*
G37*
G36*
X463Y682D02*
X515Y629D01*
X615D01*
X656Y670D01*
Y752D01*
X791D01*
Y604D01*
X628D01*
X589Y565D01*
X541D01*
X432Y674D01*
Y822D01*
X463D01*
Y682D01*
D02*
G37*
G36*
X452Y869D02*
X340D01*
X339Y868D01*
Y796D01*
X381D01*
Y709D01*
X304Y632D01*
Y591D01*
X247D01*
X243Y594D01*
X244Y608D01*
X308Y672D01*
Y690D01*
X308Y692D01*
X308Y693D01*
Y885D01*
X346Y923D01*
X452D01*
Y869D01*
D02*
G37*
D10*
X549Y813D02*
D03*
X449D02*
D03*
Y738D02*
D03*
X549Y776D02*
D03*
Y738D02*
D03*
D11*
X-69Y2310D02*
D03*
X-129D02*
D03*
X179Y1504D02*
D03*
X119D02*
D03*
X512Y687D02*
D03*
X572D02*
D03*
X734Y1515D02*
D03*
X794D02*
D03*
X120Y1639D02*
D03*
X180D02*
D03*
X-664Y2178D02*
D03*
X-604D02*
D03*
X-129Y2422D02*
D03*
X-69D02*
D03*
X-465Y2455D02*
D03*
X-525D02*
D03*
X658Y1632D02*
D03*
X718D02*
D03*
X-658Y2092D02*
D03*
X-598D02*
D03*
X-587Y2356D02*
D03*
X-647D02*
D03*
X742Y1382D02*
D03*
X682D02*
D03*
Y1444D02*
D03*
X742D02*
D03*
X-454Y1054D02*
D03*
X-394D02*
D03*
X-395Y986D02*
D03*
X-455D02*
D03*
X-454Y1246D02*
D03*
X-514D02*
D03*
X-69Y2115D02*
D03*
X-129D02*
D03*
X-652Y1870D02*
D03*
X-592D02*
D03*
X-454Y1191D02*
D03*
X-514D02*
D03*
X140Y1919D02*
D03*
X200D02*
D03*
X-167Y337D02*
D03*
X-227D02*
D03*
X556Y983D02*
D03*
X496D02*
D03*
X610Y1901D02*
D03*
X550D02*
D03*
X-69Y2363D02*
D03*
X-129D02*
D03*
X-587Y2455D02*
D03*
X-647D02*
D03*
X718Y1698D02*
D03*
X658D02*
D03*
X734Y1578D02*
D03*
X794D02*
D03*
X120Y1583D02*
D03*
X180D02*
D03*
X-598Y2039D02*
D03*
X-658D02*
D03*
X-647Y2407D02*
D03*
X-587D02*
D03*
X577Y2012D02*
D03*
X517D02*
D03*
X-514Y1138D02*
D03*
X-454D02*
D03*
X-69Y2232D02*
D03*
X-129D02*
D03*
X344Y1641D02*
D03*
X404D02*
D03*
D12*
X368Y783D02*
D03*
Y843D02*
D03*
X493Y1901D02*
D03*
Y1961D02*
D03*
X-461Y1729D02*
D03*
Y1669D02*
D03*
X152Y2024D02*
D03*
Y2084D02*
D03*
X157Y1169D02*
D03*
Y1229D02*
D03*
X-18Y1458D02*
D03*
Y1398D02*
D03*
X-358Y281D02*
D03*
Y341D02*
D03*
X316Y279D02*
D03*
Y219D02*
D03*
X256Y604D02*
D03*
Y664D02*
D03*
X-706Y1012D02*
D03*
Y952D02*
D03*
X-527Y912D02*
D03*
Y852D02*
D03*
X207Y1355D02*
D03*
Y1295D02*
D03*
X313Y2260D02*
D03*
Y2200D02*
D03*
D14*
X567Y601D02*
D03*
X437D02*
D03*
D32*
X-824Y561D02*
D03*
D34*
X354Y731D02*
D03*
Y601D02*
D03*
D35*
X235Y2084D02*
D03*
X310D02*
D03*
X-461Y1790D02*
D03*
X-536D02*
D03*
D36*
X273Y2004D02*
D03*
X-499Y1870D02*
D03*
D42*
X83Y1542D02*
X163D01*
X69Y1528D02*
X83Y1542D01*
X40Y1501D02*
X67Y1528D01*
X69D01*
X40Y1461D02*
Y1501D01*
X312Y1603D02*
Y1668D01*
X317Y1673D01*
Y1775D01*
X273Y1819D02*
X317Y1775D01*
X-290Y2038D02*
X-219D01*
X-323Y2005D02*
X-290Y2038D01*
X-323Y1863D02*
Y2005D01*
X-374Y1812D02*
X-323Y1863D01*
X-314Y1796D02*
X-238Y1872D01*
Y1966D01*
X-219Y2013D02*
X-219Y2013D01*
X-219Y1985D02*
Y2013D01*
X-238Y1966D02*
X-219Y1985D01*
X-218Y1887D02*
X-180Y1925D01*
X-218Y1738D02*
Y1887D01*
X-287Y1669D02*
X-218Y1738D01*
X-314Y1772D02*
Y1796D01*
X-278Y1016D02*
X-177D01*
X-273Y713D02*
Y893D01*
X-186Y626D02*
X15D01*
X-316Y936D02*
X-273Y893D01*
Y713D02*
X-186Y626D01*
X15D02*
X198Y443D01*
Y330D02*
Y443D01*
X-608Y804D02*
Y915D01*
Y804D02*
X-312Y508D01*
X-25D01*
X-2Y485D01*
Y337D02*
Y485D01*
X635Y1225D02*
Y1249D01*
X625Y1259D02*
X635Y1249D01*
X580Y1259D02*
X625D01*
X655Y1216D02*
Y1270D01*
X640Y1284D02*
X655Y1270D01*
X580Y1284D02*
X640D01*
X674Y1206D02*
Y1285D01*
X649Y1310D02*
X674Y1285D01*
X580Y1310D02*
X649D01*
X532Y1355D02*
X538Y1361D01*
X580D01*
X3Y1067D02*
X29D01*
X273Y1144D02*
Y1233D01*
X29Y1041D02*
X196D01*
X324Y1170D01*
X3Y1041D02*
X29D01*
X324Y1170D02*
Y1248D01*
X313Y1259D02*
X324Y1248D01*
X273Y1259D02*
X313D01*
X29Y1016D02*
X196D01*
X346Y1166D02*
Y1256D01*
X3Y1016D02*
X29D01*
X196D02*
X346Y1166D01*
X318Y1284D02*
X346Y1256D01*
X273Y1284D02*
X318D01*
X29Y990D02*
X199D01*
X367Y1158D02*
Y1271D01*
X3Y990D02*
X29D01*
X199D02*
X367Y1158D01*
X329Y1310D02*
X367Y1271D01*
X273Y1310D02*
X329D01*
X29Y1067D02*
X66D01*
X90Y1091D01*
X220D02*
X273Y1144D01*
X90Y1091D02*
X220D01*
X-7Y1118D02*
X29D01*
X-18Y1107D02*
X-7Y1118D01*
X137Y1274D02*
Y1306D01*
Y1274D02*
X157Y1254D01*
Y1229D02*
Y1254D01*
X29Y1169D02*
X73D01*
X87Y1183D02*
X112D01*
X126Y1169D02*
X157D01*
X73D02*
X87Y1183D01*
X112D02*
X126Y1169D01*
X29Y1195D02*
X69D01*
X77Y1203D01*
X122D01*
X127Y1198D01*
X196D01*
X225Y1169D01*
X-9Y1220D02*
X29D01*
X-19Y1211D02*
X-9Y1220D01*
X-34Y1122D02*
X-19Y1137D01*
Y1211D01*
X-17Y1246D02*
X29D01*
X-38Y1149D02*
Y1225D01*
X-50Y1137D02*
X-38Y1149D01*
Y1225D02*
X-17Y1246D01*
X3D01*
X-18Y983D02*
Y1107D01*
Y983D02*
X0Y964D01*
X249D01*
X-34Y974D02*
Y1122D01*
Y974D02*
X-8Y948D01*
X-50Y967D02*
Y1137D01*
Y967D02*
X-13Y930D01*
X249Y964D02*
X270Y985D01*
Y1034D01*
X532Y1241D02*
Y1355D01*
X-8Y948D02*
X260D01*
X289Y977D01*
Y1026D01*
X-13Y930D02*
X271D01*
X309Y968D01*
Y1020D01*
X618Y1208D02*
X635Y1225D01*
X-311Y1220D02*
X-278D01*
X-323Y1209D02*
X-311Y1220D01*
X-318Y1323D02*
X-278D01*
X-350Y1355D02*
X-318Y1323D01*
X-350Y1355D02*
Y1407D01*
X-278Y1297D02*
X-240D01*
X-231Y1306D01*
Y1335D01*
X-304Y1408D02*
X-231Y1335D01*
X-304Y1408D02*
Y1461D01*
X-350Y1507D02*
X-304Y1461D01*
X-409Y1179D02*
X-353D01*
X-421Y1191D02*
X-409Y1179D01*
X-454Y1191D02*
X-421D01*
X-353Y1179D02*
X-323Y1209D01*
X-310Y1246D02*
X-278D01*
X-324Y1260D02*
X-310Y1246D01*
X-374Y1260D02*
X-324D01*
X-388Y1246D02*
X-374Y1260D01*
X-454Y1246D02*
X-388D01*
X-212Y1220D02*
Y1562D01*
X-304Y1195D02*
X-278D01*
X-237D01*
X-212Y1220D01*
X-44Y1271D02*
X29D01*
X-89Y928D02*
X-75Y914D01*
X283D01*
X-89Y1227D02*
X-44Y1271D01*
X-46Y1297D02*
X29D01*
X-82Y897D02*
X294D01*
X-107Y922D02*
X-82Y897D01*
X-107Y1236D02*
X-46Y1297D01*
X3D01*
X283Y914D02*
X560Y1191D01*
X630D01*
X655Y1216D01*
X294Y897D02*
X569Y1172D01*
X640D01*
X674Y1206D01*
X82Y1409D02*
X104Y1386D01*
X27Y1409D02*
X82D01*
X-304Y990D02*
X-278D01*
X104Y1386D02*
X273D01*
X10Y1426D02*
X27Y1409D01*
X-5Y1323D02*
X29D01*
X-18Y1336D02*
X-5Y1323D01*
X-18Y1336D02*
Y1398D01*
X237Y1438D02*
X273D01*
X230Y1445D02*
X237Y1438D01*
X230Y1445D02*
Y1478D01*
X204Y1504D02*
X230Y1478D01*
X179Y1504D02*
X204D01*
X273Y1463D02*
X337D01*
X230Y1514D02*
X273D01*
X337Y1463D02*
X383Y1510D01*
Y1573D01*
X344Y1612D02*
Y1642D01*
Y1612D02*
X383Y1573D01*
X273Y1540D02*
X311D01*
X325Y1554D01*
Y1590D01*
X312Y1603D02*
X325Y1590D01*
X-278Y1169D02*
X-232D01*
X-304D02*
X-278D01*
X-232D02*
X-193Y1208D01*
X-333Y1040D02*
X-306Y1067D01*
X-357Y1040D02*
X-333D01*
X-371Y1054D02*
X-357Y1040D01*
X-394Y1054D02*
X-371D01*
X-305Y1041D02*
X-278D01*
X-325Y1022D02*
X-305Y1041D01*
X-414Y1022D02*
X-325D01*
X-425Y1011D02*
X-414Y1022D01*
X-425Y940D02*
Y1011D01*
X-436Y929D02*
X-425Y940D01*
X-436Y888D02*
Y929D01*
X-454D02*
X-436D01*
X-462Y921D02*
X-454Y929D01*
X-462Y888D02*
Y921D01*
X-395Y986D02*
X-345D01*
X-326Y1005D01*
X-317D01*
X-306Y1016D01*
X-278D01*
Y990D02*
X-143D01*
X-247Y1067D02*
X-226Y1046D01*
X-152D01*
X-278Y1067D02*
X-247D01*
X-394Y1054D02*
Y1075D01*
X-403Y1084D02*
X-394Y1075D01*
X-518Y1084D02*
X-403D01*
X-531Y1097D02*
X-518Y1084D01*
X-639Y1097D02*
X-531D01*
X-660Y1076D02*
X-639Y1097D01*
X-660Y1038D02*
Y1076D01*
X-634Y924D02*
Y951D01*
Y924D02*
X-625Y915D01*
X-608D02*
Y951D01*
X-625Y915D02*
X-608D01*
X-410Y740D02*
Y801D01*
X-140Y1256D02*
X-127Y1269D01*
X-74Y1426D02*
X10D01*
X-54Y1398D02*
X-18D01*
X-64Y1388D02*
X-54Y1398D01*
X-398Y1607D02*
X-350D01*
X553Y1208D02*
X618D01*
X309Y1020D02*
X401Y1112D01*
X457D01*
X553Y1208D01*
X550Y1233D02*
X580D01*
X392Y1129D02*
X446D01*
X289Y1026D02*
X392Y1129D01*
X446D02*
X550Y1233D01*
X437Y1146D02*
X532Y1241D01*
X270Y1034D02*
X381Y1146D01*
X437D01*
X423Y1181D02*
X445D01*
X498Y1463D02*
X580D01*
X494Y1489D02*
X580D01*
X-89Y928D02*
Y963D01*
X-67Y985D02*
Y1179D01*
X-89Y1201D02*
Y1227D01*
Y963D02*
X-67Y985D01*
X-89Y1201D02*
X-67Y1179D01*
X-107Y922D02*
Y973D01*
X-84Y996D02*
Y1171D01*
X-107Y1194D02*
Y1236D01*
Y973D02*
X-84Y996D01*
X-107Y1194D02*
X-84Y1171D01*
X-143Y990D02*
X-100Y1033D01*
Y1162D01*
X-124Y1186D02*
Y1246D01*
Y1186D02*
X-100Y1162D01*
X-152Y1046D02*
X-118Y1080D01*
Y1155D01*
X-140Y1177D02*
Y1256D01*
Y1177D02*
X-118Y1155D01*
X-278Y1143D02*
X-165D01*
X-146Y1125D01*
X438Y1433D02*
X494Y1489D01*
X438Y1318D02*
Y1433D01*
X416Y1296D02*
X438Y1318D01*
X416Y1222D02*
Y1296D01*
Y1222D02*
X423Y1215D01*
X457Y1423D02*
X498Y1463D01*
X457Y1282D02*
Y1423D01*
Y1282D02*
X468Y1271D01*
X445Y1181D02*
X468Y1204D01*
Y1271D01*
X180Y1639D02*
X224Y1595D01*
X234D01*
X120Y1639D02*
X176Y1583D01*
Y1569D02*
X230Y1514D01*
X176Y1569D02*
Y1579D01*
Y1583D02*
X180D01*
X179Y1504D02*
Y1526D01*
X163Y1542D02*
X179Y1526D01*
X580Y1514D02*
X734D01*
X682Y1444D02*
X734Y1496D01*
Y1515D01*
Y1578D01*
X580Y1540D02*
X657D01*
X671Y1554D01*
Y1595D01*
X658Y1608D02*
X671Y1595D01*
X658Y1608D02*
Y1632D01*
Y1698D01*
X794Y1515D02*
X844D01*
X718Y1632D02*
X739Y1653D01*
X778D01*
X808Y1623D01*
X273Y1919D02*
Y2004D01*
X200Y1919D02*
X273D01*
X273Y1566D02*
Y1719D01*
X742Y1382D02*
X759D01*
X784Y1357D01*
Y1310D02*
Y1357D01*
X580Y1438D02*
X626D01*
X682Y1382D01*
X580Y1361D02*
X650D01*
X709Y1302D01*
X-124Y1246D02*
X-80Y1290D01*
X-94Y1376D02*
X-80Y1362D01*
X-94Y1406D02*
X-74Y1426D01*
X-94Y1376D02*
Y1406D01*
X-80Y1290D02*
Y1310D01*
Y1362D01*
X-127Y1269D02*
Y1317D01*
X-136Y1326D02*
X-127Y1317D01*
X-461Y1315D02*
Y1669D01*
X-454Y1246D02*
Y1308D01*
X-461Y1315D02*
X-454Y1308D01*
X-136Y1326D02*
Y1374D01*
X-114Y1396D01*
X-193Y1208D02*
Y1488D01*
X-136Y1545D01*
X-212Y1562D02*
X-155Y1619D01*
X-114Y1396D02*
Y1672D01*
X-155Y1619D02*
Y1694D01*
X-136Y1545D02*
Y1681D01*
X-219Y2115D02*
X-129D01*
X-219Y2141D02*
X-160D01*
X-155Y1694D02*
X-112Y1737D01*
Y2062D02*
X-98Y2076D01*
X-112Y1737D02*
Y2062D01*
X-136Y1681D02*
X-42Y1775D01*
X-218Y2167D02*
X-101D01*
X-81Y2147D01*
X-114Y1672D02*
X-21Y1765D01*
X-100Y2209D02*
X-59Y2168D01*
X-219Y2320D02*
X-193D01*
X-177Y2304D01*
X-159D01*
X-153Y2310D01*
X-129D01*
X-219Y2345D02*
X-190D01*
X-173Y2363D01*
X-129D01*
Y2422D01*
X-100Y2209D02*
Y2259D01*
X-110Y2269D02*
X-100Y2259D01*
X-219Y2269D02*
X-110D01*
X-98Y2076D02*
Y2134D01*
X-109Y2145D02*
X-98Y2134D01*
X-160Y2141D02*
X-156Y2145D01*
X-109D01*
X-349Y2192D02*
X-219D01*
X-374Y1712D02*
X-314Y1772D01*
X-416Y1870D02*
X-374Y1912D01*
X-499Y1870D02*
X-416D01*
X-592D02*
X-499D01*
X-526Y1995D02*
Y2013D01*
X-461Y1729D02*
Y1790D01*
X-587Y2330D02*
X-577Y2320D01*
X-526D01*
X-587Y2330D02*
Y2356D01*
Y2407D01*
X-526Y2345D02*
Y2454D01*
X-527Y2455D02*
X-526Y2454D01*
X-587Y2455D02*
X-527D01*
X-465D02*
X28D01*
X121Y2429D02*
X188D01*
X28Y2455D02*
X37Y2464D01*
X86D02*
X121Y2429D01*
X37Y2464D02*
X86D01*
X-670Y2356D02*
X-647D01*
X-688Y2374D02*
X-670Y2356D01*
X-740Y2374D02*
X-688D01*
X-526Y2141D02*
X-494D01*
X-475Y2122D01*
X-465D01*
X-598Y2038D02*
X-526D01*
X-598D02*
Y2091D01*
X-750Y2178D02*
X-664D01*
X-604D02*
X-567Y2141D01*
X-526D01*
X-754Y2092D02*
X-658D01*
X-906Y2244D02*
X-754Y2092D01*
X-920Y2244D02*
X-906D01*
X-526Y2217D02*
X-416D01*
X-391Y2193D01*
X-302Y2089D02*
X-219D01*
X-366Y2026D02*
X-302Y2089D01*
X-461Y1669D02*
X-287D01*
X-526Y1995D02*
X-475Y1944D01*
X-406D01*
X-374Y1912D01*
X-558Y1917D02*
X-434D01*
X-603Y1962D02*
X-558Y1917D01*
X-776Y1962D02*
X-603D01*
X-859Y1879D02*
X-776Y1962D01*
X98Y330D02*
Y493D01*
X6Y585D02*
X98Y493D01*
X-410Y740D02*
X-255Y585D01*
X6D01*
X-318Y2320D02*
X-219D01*
X25Y2168D02*
X42Y2151D01*
X-59Y2168D02*
X25D01*
X546Y1785D02*
X580Y1751D01*
Y1566D02*
Y1751D01*
X336Y1829D02*
X380Y1785D01*
X546D01*
X273Y1919D02*
X320D01*
X336Y1903D01*
Y1829D02*
Y1903D01*
X152Y1996D02*
Y2024D01*
Y1996D02*
X155Y1993D01*
X199D01*
X-81Y2147D02*
X12D01*
X21Y2138D01*
X152Y2084D02*
X235D01*
X-42Y1775D02*
Y2047D01*
X-21Y1765D02*
Y2039D01*
X-42Y2047D02*
X21Y2110D01*
Y2138D01*
X-21Y2039D02*
X42Y2102D01*
Y2151D01*
X-757Y1739D02*
X-759Y1732D01*
X-767Y1727D01*
X-778Y1725D01*
X-786D01*
X-797Y1727D01*
X-805Y1732D01*
X-807Y1739D01*
Y1744D01*
X-805Y1751D01*
X-797Y1756D01*
X-786Y1758D01*
X-778D01*
X-767Y1756D01*
X-759Y1751D01*
X-757Y1744D01*
Y1739D01*
X-769Y1772D02*
X-767D01*
X-762Y1774D01*
X-759Y1777D01*
X-757Y1781D01*
Y1791D01*
X-759Y1796D01*
X-762Y1798D01*
X-767Y1800D01*
X-771D01*
X-776Y1798D01*
X-783Y1793D01*
X-807Y1770D01*
Y1803D01*
X-767Y1814D02*
X-764Y1819D01*
X-757Y1826D01*
X-807D01*
X-769Y1853D02*
X-767D01*
X-762Y1855D01*
X-759Y1858D01*
X-757Y1863D01*
Y1872D01*
X-759Y1877D01*
X-762Y1879D01*
X-767Y1882D01*
X-771D01*
X-776Y1879D01*
X-783Y1874D01*
X-807Y1851D01*
Y1884D01*
X-1115Y-1372D02*
Y-1412D01*
X-1117Y-1420D01*
X-1120Y-1422D01*
X-1125Y-1425D01*
X-1130D01*
X-1135Y-1422D01*
X-1137Y-1420D01*
X-1140Y-1412D01*
Y-1407D01*
X-1063Y-1384D02*
X-1065Y-1379D01*
X-1070Y-1374D01*
X-1076Y-1372D01*
X-1086D01*
X-1091Y-1374D01*
X-1096Y-1379D01*
X-1098Y-1384D01*
X-1101Y-1392D01*
Y-1405D01*
X-1098Y-1412D01*
X-1096Y-1417D01*
X-1091Y-1422D01*
X-1086Y-1425D01*
X-1076D01*
X-1070Y-1422D01*
X-1065Y-1417D01*
X-1063Y-1412D01*
X-1048Y-1372D02*
Y-1425D01*
Y-1372D02*
X-1028Y-1425D01*
X-1007Y-1372D02*
X-1028Y-1425D01*
X-1007Y-1372D02*
Y-1425D01*
X-992Y-1372D02*
Y-1425D01*
X-981Y-1372D02*
Y-1425D01*
X220Y-1184D02*
Y-1264D01*
Y-1184D02*
X254D01*
X266Y-1188D01*
X270Y-1192D01*
X273Y-1200D01*
Y-1207D01*
X270Y-1215D01*
X266Y-1219D01*
X254Y-1222D01*
X220D01*
X247D02*
X273Y-1264D01*
X341Y-1184D02*
X291D01*
Y-1264D01*
X341D01*
X291Y-1222D02*
X322D01*
X415Y-1264D02*
X385Y-1184D01*
X354Y-1264D01*
X365Y-1238D02*
X404D01*
X434Y-1184D02*
Y-1264D01*
Y-1184D02*
X460D01*
X472Y-1188D01*
X479Y-1196D01*
X483Y-1203D01*
X487Y-1215D01*
Y-1234D01*
X483Y-1245D01*
X479Y-1253D01*
X472Y-1261D01*
X460Y-1264D01*
X434D01*
X554Y-1184D02*
X505D01*
Y-1264D01*
X554D01*
X505Y-1222D02*
X535D01*
X568Y-1184D02*
Y-1264D01*
Y-1184D02*
X602D01*
X613Y-1188D01*
X617Y-1192D01*
X621Y-1200D01*
Y-1207D01*
X617Y-1215D01*
X613Y-1219D01*
X602Y-1222D01*
X568D01*
X594D02*
X621Y-1264D01*
D43*
X29Y1143D02*
X92D01*
X97Y1149D01*
X42Y2422D02*
X59Y2439D01*
X-69Y2422D02*
X42D01*
D44*
X13Y1534D02*
X40Y1561D01*
X13Y1512D02*
Y1534D01*
X-18Y1576D02*
X40Y1634D01*
X-18Y1552D02*
Y1576D01*
Y1458D02*
Y1552D01*
X40Y1634D02*
Y1661D01*
X213Y1361D02*
X273D01*
X207Y1355D02*
X213Y1361D01*
X243Y1335D02*
X273D01*
X207Y1300D02*
X243Y1335D01*
X207Y1295D02*
Y1300D01*
X273Y1361D02*
X312D01*
X318Y1355D01*
X390D01*
X413Y1332D01*
X207Y1260D02*
Y1295D01*
Y1260D02*
X222Y1245D01*
X119Y1484D02*
Y1504D01*
Y1484D02*
X137Y1466D01*
Y1436D02*
Y1466D01*
X171Y1470D02*
X205D01*
X137Y1436D02*
X171Y1470D01*
X-361Y1118D02*
X-278D01*
X-381Y1138D02*
X-361Y1118D01*
X-454Y1138D02*
X-381D01*
X-514D02*
Y1191D01*
X-278Y1118D02*
X-196D01*
X-177Y1099D01*
Y1071D02*
Y1099D01*
X-514Y1191D02*
Y1246D01*
X-530Y1191D02*
X-514D01*
X-548Y1209D02*
X-530Y1191D01*
X-531Y1054D02*
X-454D01*
X-548Y1071D02*
X-531Y1054D01*
X-514Y1114D02*
Y1138D01*
X-504Y1104D02*
X-382D01*
X-371Y1092D01*
X-514Y1114D02*
X-504Y1104D01*
X-371Y1092D02*
X-278D01*
X-410Y856D02*
Y888D01*
X-419Y848D02*
X-410Y856D01*
X-469Y848D02*
X-419D01*
X-491Y870D02*
X-469Y848D01*
X-491Y870D02*
Y903D01*
X-500Y912D02*
X-491Y903D01*
X-527Y912D02*
X-500D01*
X-527Y852D02*
X-509D01*
X-493Y836D01*
Y809D02*
Y836D01*
Y809D02*
X-486Y801D01*
X-462D01*
X-399Y845D02*
X-385D01*
X-410Y856D02*
X-399Y845D01*
X-706Y952D02*
X-660D01*
X-706Y887D02*
Y952D01*
Y887D02*
X-675Y856D01*
X-636D01*
X-505Y986D02*
X-455D01*
X-527Y964D02*
X-505Y986D01*
X-527Y912D02*
Y964D01*
X515Y1386D02*
X580D01*
X496Y1368D02*
X515Y1386D01*
X496Y1250D02*
Y1368D01*
X791Y1126D02*
Y1173D01*
X40Y1561D02*
X71D01*
X92Y1582D01*
X119D01*
X794Y1578D02*
X821D01*
X825Y1582D01*
X845D01*
X718Y1698D02*
X792D01*
X816Y1674D01*
Y1656D02*
Y1674D01*
X675Y1801D02*
Y1847D01*
X850Y1657D02*
Y1796D01*
X855Y1801D01*
X787Y1819D02*
Y1864D01*
Y1819D02*
X805Y1801D01*
X855D01*
X627Y2001D02*
X675D01*
X616Y2012D02*
X627Y2001D01*
X577Y2012D02*
X616D01*
X517D02*
Y2027D01*
X494Y2050D02*
X517Y2027D01*
X649Y1873D02*
X675Y1847D01*
X649Y1873D02*
Y1889D01*
X637Y1901D02*
X649Y1889D01*
X610Y1901D02*
X637D01*
X610Y1863D02*
Y1901D01*
X493D02*
X550D01*
X493Y1961D02*
Y1988D01*
X517Y2012D01*
X348Y1711D02*
X377D01*
X404Y1684D01*
Y1641D02*
Y1684D01*
X152Y1961D02*
X200D01*
X140Y1949D02*
X152Y1961D01*
X140Y1919D02*
Y1949D01*
X-69Y2115D02*
X-12D01*
X-4Y2123D01*
X-69Y2232D02*
X-41D01*
X-4Y2195D01*
X-219Y2217D02*
X-180D01*
X-161Y2199D01*
X-69Y2310D02*
X-43D01*
X-37Y2316D01*
Y2331D01*
X-153Y2232D02*
X-129D01*
X-161Y2224D02*
X-153Y2232D01*
X-161Y2199D02*
Y2224D01*
X-526Y2192D02*
X-482D01*
X-466Y2176D01*
Y2155D02*
Y2176D01*
X-526Y2166D02*
X-490D01*
X-478Y2155D01*
X-466D01*
X-526Y2064D02*
X-472D01*
X-465Y2071D01*
Y2089D01*
X-526Y2115D02*
X-497D01*
X-485Y2103D01*
Y2089D02*
Y2103D01*
X-526Y2089D02*
X-485D01*
X-466D01*
X-750Y2258D02*
Y2308D01*
X-659Y1998D02*
Y2038D01*
X-680Y2455D02*
X-647D01*
X-693Y2442D02*
X-680Y2455D01*
X-693Y2427D02*
Y2442D01*
X-673Y2407D02*
X-647D01*
X-693Y2427D02*
X-673Y2407D01*
X-652Y1870D02*
Y1907D01*
X-536Y1667D02*
Y1790D01*
X556Y983D02*
X594D01*
X453Y940D02*
X496Y983D01*
X453Y896D02*
Y940D01*
X-69Y2363D02*
X62D01*
X71Y2354D01*
X-369Y2243D02*
X-219D01*
X742Y1444D02*
X845D01*
X404Y2131D02*
Y2178D01*
X310Y2084D02*
X357D01*
X405Y2131D01*
X85Y1919D02*
X140D01*
X65Y2160D02*
X104Y2199D01*
Y2200D01*
X313D01*
X65Y1939D02*
X85Y1919D01*
X65Y1939D02*
Y2160D01*
X313Y2260D02*
Y2296D01*
X325Y2308D01*
X404D01*
X404Y2308D01*
D46*
X572Y687D02*
Y704D01*
X549Y727D02*
X572Y704D01*
X368Y843D02*
X483D01*
X499Y827D01*
X-608Y1038D02*
Y1062D01*
X-600Y1071D01*
X-548D01*
X-706Y1012D02*
X-692D01*
X-678Y998D01*
X-618D01*
X-608Y1007D01*
Y1038D01*
X526Y738D02*
X549D01*
X499Y765D02*
Y827D01*
Y765D02*
X526Y738D01*
X1301Y-1741D02*
Y-1821D01*
Y-1741D02*
X1267D01*
X1255Y-1745D01*
X1251Y-1749D01*
X1248Y-1756D01*
Y-1764D01*
X1251Y-1771D01*
X1255Y-1775D01*
X1267Y-1779D01*
X1301D02*
X1267D01*
X1255Y-1783D01*
X1251Y-1787D01*
X1248Y-1794D01*
Y-1806D01*
X1251Y-1813D01*
X1255Y-1817D01*
X1267Y-1821D01*
X1301D01*
X1211Y-1768D02*
X1218Y-1771D01*
X1226Y-1779D01*
X1230Y-1791D01*
Y-1798D01*
X1226Y-1810D01*
X1218Y-1817D01*
X1211Y-1821D01*
X1199D01*
X1192Y-1817D01*
X1184Y-1810D01*
X1180Y-1798D01*
Y-1791D01*
X1184Y-1779D01*
X1192Y-1771D01*
X1199Y-1768D01*
X1211D01*
X1151Y-1741D02*
Y-1806D01*
X1148Y-1817D01*
X1140Y-1821D01*
X1132D01*
X1163Y-1768D02*
X1136D01*
X1109Y-1741D02*
Y-1806D01*
X1106Y-1817D01*
X1098Y-1821D01*
X1090D01*
X1121Y-1768D02*
X1094D01*
X1060D02*
X1068Y-1771D01*
X1075Y-1779D01*
X1079Y-1791D01*
Y-1798D01*
X1075Y-1810D01*
X1068Y-1817D01*
X1060Y-1821D01*
X1048D01*
X1041Y-1817D01*
X1033Y-1810D01*
X1029Y-1798D01*
Y-1791D01*
X1033Y-1779D01*
X1041Y-1771D01*
X1048Y-1768D01*
X1060D01*
X1012D02*
Y-1821D01*
Y-1783D02*
X1000Y-1771D01*
X993Y-1768D01*
X981D01*
X974Y-1771D01*
X970Y-1783D01*
Y-1821D01*
Y-1783D02*
X959Y-1771D01*
X951Y-1768D01*
X940D01*
X932Y-1771D01*
X928Y-1783D01*
Y-1821D01*
X903Y-1741D02*
Y-1821D01*
X857D01*
X803Y-1768D02*
Y-1821D01*
Y-1779D02*
X810Y-1771D01*
X818Y-1768D01*
X829D01*
X837Y-1771D01*
X845Y-1779D01*
X849Y-1791D01*
Y-1798D01*
X845Y-1810D01*
X837Y-1817D01*
X829Y-1821D01*
X818D01*
X810Y-1817D01*
X803Y-1810D01*
X778Y-1768D02*
X755Y-1821D01*
X732Y-1768D02*
X755Y-1821D01*
X762Y-1836D01*
X770Y-1844D01*
X778Y-1848D01*
X781D01*
X719Y-1791D02*
X673D01*
Y-1783D01*
X677Y-1775D01*
X681Y-1771D01*
X688Y-1768D01*
X700D01*
X707Y-1771D01*
X715Y-1779D01*
X719Y-1791D01*
Y-1798D01*
X715Y-1810D01*
X707Y-1817D01*
X700Y-1821D01*
X688D01*
X681Y-1817D01*
X673Y-1810D01*
X656Y-1768D02*
Y-1821D01*
Y-1791D02*
X652Y-1779D01*
X644Y-1771D01*
X637Y-1768D01*
X625D01*
X984Y-126D02*
Y417D01*
X-984Y-126D02*
Y435D01*
X135Y-116D02*
X984D01*
X-984D02*
X-167D01*
X924Y-96D02*
X984Y-116D01*
X924Y-136D02*
X984Y-116D01*
X-984D02*
X-924Y-136D01*
X-984Y-116D02*
X-924Y-96D01*
X1000Y2520D02*
X1108D01*
X369Y-0D02*
X1108D01*
X1098Y1395D02*
Y2520D01*
Y-0D02*
Y1093D01*
X1078Y2460D02*
X1098Y2520D01*
X1118Y2460D01*
X1098Y-0D02*
X1118Y60D01*
X1078D02*
X1098Y-0D01*
X354D02*
G03*
X433Y79I0J79D01*
G01*
X-433D02*
G03*
X-354Y-0I79J0D01*
G01*
X787Y433D02*
G03*
X433Y79I0J-354D01*
G01*
X-433D02*
G03*
X-787Y433I-354J0D01*
G01*
X-985Y2520D02*
X985D01*
X984Y432D02*
Y2520D01*
X787Y433D02*
X985Y433D01*
X-354Y0D02*
X354D01*
X-985Y433D02*
Y2520D01*
Y433D02*
X-787D01*
X2727Y-1468D02*
G03*
X2678Y-1419I-49J0D01*
G01*
X1577D02*
G03*
X1527Y-1469I0J-50D01*
G01*
X2677Y-1369D02*
G03*
X2727Y-1319I0J50D01*
G01*
X1527D02*
G03*
X1577Y-1369I50J0D01*
G01*
X-1523Y-644D02*
G03*
X-1623Y-744I0J-100D01*
G01*
Y-1843D02*
G03*
X-1524Y-1944I101J0D01*
G01*
X2677Y-1944D02*
G03*
X2777Y-1844I0J100D01*
G01*
Y-744D02*
G03*
X2677Y-644I-100J0D01*
G01*
X2727Y-743D02*
G03*
X2676Y-694I-49J0D01*
G01*
X2677Y-1644D02*
G03*
X2727Y-1594I0J50D01*
G01*
X2727Y-1743D02*
G03*
X2677Y-1694I-50J-1D01*
G01*
Y-1894D02*
G03*
X2727Y-1844I0J50D01*
G01*
X1427Y-1644D02*
G03*
X1477Y-1594I0J50D01*
G01*
X1527Y-1595D02*
G03*
X1577Y-1644I49J0D01*
G01*
X1477Y-1468D02*
G03*
X1428Y-1419I-49J0D01*
G01*
X-1573Y-1844D02*
G03*
X-1524Y-1894I50J0D01*
G01*
X1428Y-1369D02*
G03*
X1477Y-1319I-1J50D01*
G01*
X-1523Y-1694D02*
G03*
X-1573Y-1744I0J-50D01*
G01*
X1477Y-994D02*
G03*
X1427Y-944I-50J0D01*
G01*
Y-894D02*
G03*
X1477Y-844I0J50D01*
G01*
X1577Y-694D02*
G03*
X1527Y-744I0J-50D01*
G01*
X1477D02*
G03*
X1427Y-694I-50J0D01*
G01*
X-1523D02*
G03*
X-1573Y-744I0J-50D01*
G01*
Y-844D02*
G03*
X-1523Y-894I50J0D01*
G01*
Y-944D02*
G03*
X-1573Y-994I0J-50D01*
G01*
Y-1219D02*
G03*
X-1523Y-1269I50J0D01*
G01*
Y-1319D02*
G03*
X-1573Y-1369I0J-50D01*
G01*
Y-1594D02*
G03*
X-1524Y-1644I50J0D01*
G01*
X-623Y-944D02*
G03*
X-673Y-994I0J-50D01*
G01*
X-623Y-1419D02*
G03*
X-673Y-1469I0J-50D01*
G01*
X1125Y-1419D02*
G03*
X1077Y-1469I0J-48D01*
G01*
X1077Y-1593D02*
G03*
X1127Y-1644I51J0D01*
G01*
X978Y-1644D02*
G03*
X1027Y-1594I0J49D01*
G01*
X1027Y-1468D02*
G03*
X978Y-1419I-49J0D01*
G01*
X-772Y-1644D02*
G03*
X-723Y-1595I0J49D01*
G01*
X-673D02*
G03*
X-624Y-1644I49J0D01*
G01*
X-673Y-1320D02*
G03*
X-624Y-1369I49J0D01*
G01*
X-723Y-1368D02*
G03*
X-774Y-1319I-49J0D01*
G01*
X-771Y-1269D02*
G03*
X-723Y-1221I0J48D01*
G01*
Y-993D02*
G03*
X-772Y-944I-49J0D01*
G01*
X2127Y-1694D02*
G03*
X2077Y-1744I0J-50D01*
G01*
Y-1845D02*
G03*
X2127Y-1894I49J0D01*
G01*
X1978Y-1894D02*
G03*
X2027Y-1844I1J48D01*
G01*
X2027Y-1744D02*
G03*
X1977Y-1694I-50J0D01*
G01*
X252Y-1844D02*
G03*
X301Y-1894I50J0D01*
G01*
X302Y-1694D02*
G03*
X252Y-1744I0J-50D01*
G01*
X153Y-1894D02*
G03*
X202Y-1844I1J48D01*
G01*
X202Y-1744D02*
G03*
X152Y-1694I-50J0D01*
G01*
X2727Y-1594D02*
Y-1468D01*
X1527Y-1594D02*
Y-1469D01*
X2727Y-1319D02*
Y-744D01*
X1527Y-1319D02*
Y-744D01*
X-1623Y-1844D02*
Y-744D01*
X-1573Y-1844D02*
Y-1744D01*
X2727Y-1844D02*
Y-1744D01*
X1477Y-1594D02*
Y-1469D01*
X1077Y-1594D02*
Y-1469D01*
X-673Y-1594D02*
Y-1469D01*
X1027Y-1594D02*
Y-1469D01*
X-673Y-1319D02*
Y-994D01*
X1477Y-1319D02*
Y-994D01*
Y-844D02*
Y-744D01*
X-1573Y-844D02*
Y-744D01*
X-723Y-1219D02*
Y-994D01*
X-1573Y-1219D02*
Y-994D01*
X-723Y-1594D02*
Y-1369D01*
X-1573Y-1594D02*
Y-1369D01*
X2777Y-1844D02*
Y-744D01*
X2077Y-1844D02*
Y-1744D01*
X2027Y-1844D02*
Y-1744D01*
X252Y-1844D02*
Y-1744D01*
X202Y-1844D02*
Y-1744D01*
X1577Y-1419D02*
X2677D01*
X1577Y-1369D02*
X2677D01*
X-623D02*
X1427D01*
X1577Y-694D02*
X2677D01*
X1577Y-1644D02*
X2677D01*
X1127Y-1419D02*
X1427D01*
X1127Y-1644D02*
X1427D01*
X-623D02*
X977D01*
X-623Y-1419D02*
X977D01*
X-623Y-944D02*
X1427D01*
X-1523Y-894D02*
X1427D01*
X-1523Y-944D02*
X-773D01*
X-1523Y-1269D02*
X-773D01*
X-1523Y-1319D02*
X-773D01*
X-1523Y-1644D02*
X-773D01*
X-1523Y-644D02*
X2677D01*
X-1523Y-1944D02*
X2677D01*
X-1523Y-694D02*
X1427D01*
X2127Y-1694D02*
X2677D01*
X2127Y-1894D02*
X2677D01*
X302Y-1694D02*
X1977D01*
X-1523D02*
X152D01*
X-1523Y-1894D02*
X152D01*
X302D02*
X1977D01*
X1728Y-1096D02*
Y-1160D01*
Y-1096D02*
X1756D01*
X1765Y-1099D01*
X1768Y-1102D01*
X1771Y-1108D01*
Y-1114D01*
X1768Y-1120D01*
X1765Y-1123D01*
X1756Y-1126D01*
X1728D02*
X1756D01*
X1765Y-1129D01*
X1768Y-1132D01*
X1771Y-1138D01*
Y-1148D01*
X1768Y-1154D01*
X1765Y-1157D01*
X1756Y-1160D01*
X1728D01*
X1800Y-1117D02*
X1794Y-1120D01*
X1788Y-1126D01*
X1785Y-1135D01*
Y-1141D01*
X1788Y-1151D01*
X1794Y-1157D01*
X1800Y-1160D01*
X1809D01*
X1816Y-1157D01*
X1822Y-1151D01*
X1825Y-1141D01*
Y-1135D01*
X1822Y-1126D01*
X1816Y-1120D01*
X1809Y-1117D01*
X1800D01*
X1875Y-1126D02*
X1869Y-1120D01*
X1863Y-1117D01*
X1854D01*
X1848Y-1120D01*
X1842Y-1126D01*
X1839Y-1135D01*
Y-1141D01*
X1842Y-1151D01*
X1848Y-1157D01*
X1854Y-1160D01*
X1863D01*
X1869Y-1157D01*
X1875Y-1151D01*
X1926Y-1117D02*
Y-1160D01*
Y-1126D02*
X1919Y-1120D01*
X1913Y-1117D01*
X1904D01*
X1898Y-1120D01*
X1892Y-1126D01*
X1889Y-1135D01*
Y-1141D01*
X1892Y-1151D01*
X1898Y-1157D01*
X1904Y-1160D01*
X1913D01*
X1919Y-1157D01*
X1926Y-1151D01*
X1993Y-1096D02*
Y-1160D01*
Y-1096D02*
X2020D01*
X2029Y-1099D01*
X2032Y-1102D01*
X2036Y-1108D01*
Y-1114D01*
X2032Y-1120D01*
X2029Y-1123D01*
X2020Y-1126D01*
X1993D01*
X2014D02*
X2036Y-1160D01*
X2086Y-1117D02*
Y-1160D01*
Y-1126D02*
X2080Y-1120D01*
X2074Y-1117D01*
X2065D01*
X2059Y-1120D01*
X2053Y-1126D01*
X2050Y-1135D01*
Y-1141D01*
X2053Y-1151D01*
X2059Y-1157D01*
X2065Y-1160D01*
X2074D01*
X2080Y-1157D01*
X2086Y-1151D01*
X2113Y-1096D02*
Y-1148D01*
X2116Y-1157D01*
X2122Y-1160D01*
X2128D01*
X2103Y-1117D02*
X2125D01*
X2152D02*
X2146Y-1120D01*
X2140Y-1126D01*
X2137Y-1135D01*
Y-1141D01*
X2140Y-1151D01*
X2146Y-1157D01*
X2152Y-1160D01*
X2161D01*
X2167Y-1157D01*
X2174Y-1151D01*
X2177Y-1141D01*
Y-1135D01*
X2174Y-1126D01*
X2167Y-1120D01*
X2161Y-1117D01*
X2152D01*
X2191D02*
Y-1160D01*
Y-1129D02*
X2200Y-1120D01*
X2206Y-1117D01*
X2215D01*
X2221Y-1120D01*
X2224Y-1129D01*
Y-1160D01*
X2291Y-1096D02*
Y-1160D01*
Y-1096D02*
X2331D01*
X2291Y-1126D02*
X2316D01*
X2338Y-1096D02*
Y-1160D01*
X2375D01*
X2385Y-1154D02*
X2382Y-1157D01*
X2385Y-1160D01*
X2388Y-1157D01*
X2385Y-1154D01*
X1608Y-917D02*
X1605Y-926D01*
X1599Y-932D01*
X1589Y-935D01*
X1586D01*
X1577Y-932D01*
X1571Y-926D01*
X1568Y-917D01*
Y-914D01*
X1571Y-905D01*
X1577Y-899D01*
X1586Y-896D01*
X1589D01*
X1599Y-899D01*
X1605Y-905D01*
X1608Y-917D01*
Y-932D01*
X1605Y-948D01*
X1599Y-957D01*
X1589Y-960D01*
X1583D01*
X1574Y-957D01*
X1571Y-951D01*
X1643Y-896D02*
X1634Y-899D01*
X1628Y-908D01*
X1625Y-923D01*
Y-932D01*
X1628Y-948D01*
X1634Y-957D01*
X1643Y-960D01*
X1649D01*
X1659Y-957D01*
X1665Y-948D01*
X1668Y-932D01*
Y-923D01*
X1665Y-908D01*
X1659Y-899D01*
X1649Y-896D01*
X1643D01*
X1685Y-911D02*
Y-908D01*
X1688Y-902D01*
X1691Y-899D01*
X1697Y-896D01*
X1709D01*
X1716Y-899D01*
X1719Y-902D01*
X1722Y-908D01*
Y-914D01*
X1719Y-920D01*
X1713Y-929D01*
X1682Y-960D01*
X1725D01*
X1835Y-911D02*
X1832Y-905D01*
X1826Y-899D01*
X1820Y-896D01*
X1808D01*
X1801Y-899D01*
X1795Y-905D01*
X1792Y-911D01*
X1789Y-920D01*
Y-935D01*
X1792Y-945D01*
X1795Y-951D01*
X1801Y-957D01*
X1808Y-960D01*
X1820D01*
X1826Y-957D01*
X1832Y-951D01*
X1835Y-945D01*
X1853Y-896D02*
Y-960D01*
X1872Y-896D02*
X1876Y-899D01*
X1879Y-896D01*
X1876Y-893D01*
X1872Y-896D01*
X1876Y-917D02*
Y-960D01*
X1890Y-917D02*
Y-960D01*
Y-929D02*
X1899Y-920D01*
X1905Y-917D01*
X1914D01*
X1920Y-920D01*
X1923Y-929D01*
Y-960D01*
X1949Y-896D02*
Y-948D01*
X1952Y-957D01*
X1958Y-960D01*
X1965D01*
X1940Y-917D02*
X1961D01*
X2024Y-896D02*
Y-960D01*
Y-896D02*
X2048Y-960D01*
X2073Y-896D02*
X2048Y-960D01*
X2073Y-896D02*
Y-960D01*
X2106Y-917D02*
X2100Y-920D01*
X2094Y-926D01*
X2091Y-935D01*
Y-941D01*
X2094Y-951D01*
X2100Y-957D01*
X2106Y-960D01*
X2115D01*
X2121Y-957D01*
X2128Y-951D01*
X2131Y-941D01*
Y-935D01*
X2128Y-926D01*
X2121Y-920D01*
X2115Y-917D01*
X2106D01*
X2160D02*
X2154Y-920D01*
X2148Y-926D01*
X2145Y-935D01*
Y-941D01*
X2148Y-951D01*
X2154Y-957D01*
X2160Y-960D01*
X2169D01*
X2175Y-957D01*
X2181Y-951D01*
X2184Y-941D01*
Y-935D01*
X2181Y-926D01*
X2175Y-920D01*
X2169Y-917D01*
X2160D01*
X2198D02*
Y-960D01*
Y-935D02*
X2201Y-926D01*
X2207Y-920D01*
X2213Y-917D01*
X2223D01*
X2228Y-935D02*
X2265D01*
Y-929D01*
X2262Y-923D01*
X2259Y-920D01*
X2253Y-917D01*
X2244D01*
X2238Y-920D01*
X2231Y-926D01*
X2228Y-935D01*
Y-941D01*
X2231Y-951D01*
X2238Y-957D01*
X2244Y-960D01*
X2253D01*
X2259Y-957D01*
X2265Y-951D01*
X2329Y-896D02*
Y-960D01*
Y-896D02*
X2356D01*
X2365Y-899D01*
X2369Y-902D01*
X2372Y-908D01*
Y-914D01*
X2369Y-920D01*
X2365Y-923D01*
X2356Y-926D01*
X2329D01*
X2350D02*
X2372Y-960D01*
X2422Y-896D02*
Y-960D01*
Y-926D02*
X2416Y-920D01*
X2410Y-917D01*
X2401D01*
X2395Y-920D01*
X2389Y-926D01*
X2386Y-935D01*
Y-941D01*
X2389Y-951D01*
X2395Y-957D01*
X2401Y-960D01*
X2410D01*
X2416Y-957D01*
X2422Y-951D01*
X2443Y-954D02*
X2440Y-957D01*
X2443Y-960D01*
X2446Y-957D01*
X2443Y-954D01*
X1820Y-1216D02*
X1789D01*
X1786Y-1243D01*
X1789Y-1240D01*
X1798Y-1237D01*
X1807D01*
X1817Y-1240D01*
X1823Y-1246D01*
X1826Y-1255D01*
Y-1261D01*
X1823Y-1271D01*
X1817Y-1277D01*
X1807Y-1280D01*
X1798D01*
X1789Y-1277D01*
X1786Y-1274D01*
X1783Y-1268D01*
X1877Y-1225D02*
X1874Y-1219D01*
X1864Y-1216D01*
X1858D01*
X1849Y-1219D01*
X1843Y-1228D01*
X1840Y-1243D01*
Y-1258D01*
X1843Y-1271D01*
X1849Y-1277D01*
X1858Y-1280D01*
X1861D01*
X1871Y-1277D01*
X1877Y-1271D01*
X1880Y-1261D01*
Y-1258D01*
X1877Y-1249D01*
X1871Y-1243D01*
X1861Y-1240D01*
X1858D01*
X1849Y-1243D01*
X1843Y-1249D01*
X1840Y-1258D01*
X1894Y-1228D02*
X1900Y-1225D01*
X1909Y-1216D01*
Y-1280D01*
X1941Y-1252D02*
X1995D01*
X2054Y-1237D02*
X2051Y-1246D01*
X2045Y-1252D01*
X2036Y-1255D01*
X2033D01*
X2023Y-1252D01*
X2017Y-1246D01*
X2014Y-1237D01*
Y-1234D01*
X2017Y-1225D01*
X2023Y-1219D01*
X2033Y-1216D01*
X2036D01*
X2045Y-1219D01*
X2051Y-1225D01*
X2054Y-1237D01*
Y-1252D01*
X2051Y-1268D01*
X2045Y-1277D01*
X2036Y-1280D01*
X2030D01*
X2020Y-1277D01*
X2017Y-1271D01*
X2111Y-1237D02*
X2108Y-1246D01*
X2102Y-1252D01*
X2093Y-1255D01*
X2090D01*
X2080Y-1252D01*
X2074Y-1246D01*
X2071Y-1237D01*
Y-1234D01*
X2074Y-1225D01*
X2080Y-1219D01*
X2090Y-1216D01*
X2093D01*
X2102Y-1219D01*
X2108Y-1225D01*
X2111Y-1237D01*
Y-1252D01*
X2108Y-1268D01*
X2102Y-1277D01*
X2093Y-1280D01*
X2087D01*
X2077Y-1277D01*
X2074Y-1271D01*
X2168Y-1237D02*
X2165Y-1246D01*
X2159Y-1252D01*
X2150Y-1255D01*
X2147D01*
X2137Y-1252D01*
X2131Y-1246D01*
X2128Y-1237D01*
Y-1234D01*
X2131Y-1225D01*
X2137Y-1219D01*
X2147Y-1216D01*
X2150D01*
X2159Y-1219D01*
X2165Y-1225D01*
X2168Y-1237D01*
Y-1252D01*
X2165Y-1268D01*
X2159Y-1277D01*
X2150Y-1280D01*
X2144D01*
X2134Y-1277D01*
X2131Y-1271D01*
X2185Y-1252D02*
X2240D01*
X2299Y-1237D02*
X2296Y-1246D01*
X2290Y-1252D01*
X2280Y-1255D01*
X2277D01*
X2268Y-1252D01*
X2262Y-1246D01*
X2259Y-1237D01*
Y-1234D01*
X2262Y-1225D01*
X2268Y-1219D01*
X2277Y-1216D01*
X2280D01*
X2290Y-1219D01*
X2296Y-1225D01*
X2299Y-1237D01*
Y-1252D01*
X2296Y-1268D01*
X2290Y-1277D01*
X2280Y-1280D01*
X2274D01*
X2265Y-1277D01*
X2262Y-1271D01*
X2346Y-1216D02*
X2316Y-1258D01*
X2362D01*
X2346Y-1216D02*
Y-1280D01*
X2376Y-1231D02*
Y-1228D01*
X2379Y-1222D01*
X2382Y-1219D01*
X2388Y-1216D01*
X2400D01*
X2407Y-1219D01*
X2410Y-1222D01*
X2413Y-1228D01*
Y-1234D01*
X2410Y-1240D01*
X2403Y-1249D01*
X2373Y-1280D01*
X2416D01*
X2433Y-1231D02*
Y-1228D01*
X2436Y-1222D01*
X2439Y-1219D01*
X2445Y-1216D01*
X2457D01*
X2463Y-1219D01*
X2467Y-1222D01*
X2470Y-1228D01*
Y-1234D01*
X2467Y-1240D01*
X2460Y-1249D01*
X2430Y-1280D01*
X2473D01*
X1906Y-1010D02*
X1900Y-1004D01*
X1891Y-1001D01*
X1878D01*
X1869Y-1004D01*
X1863Y-1010D01*
Y-1016D01*
X1866Y-1022D01*
X1869Y-1025D01*
X1875Y-1028D01*
X1894Y-1034D01*
X1900Y-1037D01*
X1903Y-1040D01*
X1906Y-1046D01*
Y-1056D01*
X1900Y-1062D01*
X1891Y-1065D01*
X1878D01*
X1869Y-1062D01*
X1863Y-1056D01*
X1920Y-1022D02*
Y-1053D01*
X1923Y-1062D01*
X1929Y-1065D01*
X1938D01*
X1944Y-1062D01*
X1954Y-1053D01*
Y-1022D02*
Y-1065D01*
X1976Y-1001D02*
X1979Y-1004D01*
X1983Y-1001D01*
X1979Y-998D01*
X1976Y-1001D01*
X1979Y-1022D02*
Y-1065D01*
X2003Y-1001D02*
Y-1053D01*
X2006Y-1062D01*
X2012Y-1065D01*
X2018D01*
X1994Y-1022D02*
X2015D01*
X2027Y-1040D02*
X2064D01*
Y-1034D01*
X2061Y-1028D01*
X2058Y-1025D01*
X2052Y-1022D01*
X2043D01*
X2036Y-1025D01*
X2030Y-1031D01*
X2027Y-1040D01*
Y-1046D01*
X2030Y-1056D01*
X2036Y-1062D01*
X2043Y-1065D01*
X2052D01*
X2058Y-1062D01*
X2064Y-1056D01*
X2128Y-1013D02*
X2134Y-1010D01*
X2143Y-1001D01*
Y-1065D01*
X2178Y-1016D02*
Y-1013D01*
X2181Y-1007D01*
X2184Y-1004D01*
X2190Y-1001D01*
X2202D01*
X2208Y-1004D01*
X2211Y-1007D01*
X2214Y-1013D01*
Y-1019D01*
X2211Y-1025D01*
X2205Y-1034D01*
X2175Y-1065D01*
X2217D01*
X2268Y-1010D02*
X2265Y-1004D01*
X2256Y-1001D01*
X2250D01*
X2241Y-1004D01*
X2235Y-1013D01*
X2232Y-1028D01*
Y-1043D01*
X2235Y-1056D01*
X2241Y-1062D01*
X2250Y-1065D01*
X2253D01*
X2262Y-1062D01*
X2268Y-1056D01*
X2271Y-1046D01*
Y-1043D01*
X2268Y-1034D01*
X2262Y-1028D01*
X2253Y-1025D01*
X2250D01*
X2241Y-1028D01*
X2235Y-1034D01*
X2232Y-1043D01*
D47*
X250Y417D02*
X302Y469D01*
Y639D01*
D48*
X-111Y-92D02*
X-151D01*
Y-122D01*
X-131Y-112D01*
X-121D01*
X-111Y-122D01*
Y-142D01*
X-121Y-152D01*
X-141D01*
X-151Y-142D01*
X-91Y-102D02*
X-81Y-92D01*
X-61D01*
X-51Y-102D01*
Y-142D01*
X-61Y-152D01*
X-81D01*
X-91Y-142D01*
Y-102D01*
X-31Y-152D02*
Y-142D01*
X-21D01*
Y-152D01*
X-31D01*
X19Y-102D02*
X29Y-92D01*
X49D01*
X59Y-102D01*
Y-142D01*
X49Y-152D01*
X29D01*
X19Y-142D01*
Y-102D01*
X79D02*
X89Y-92D01*
X109D01*
X119Y-102D01*
Y-142D01*
X109Y-152D01*
X89D01*
X79Y-142D01*
Y-102D01*
X1074Y1149D02*
X1084Y1129D01*
X1104Y1109D01*
X1124D01*
X1134Y1119D01*
Y1139D01*
X1124Y1149D01*
X1114D01*
X1104Y1139D01*
Y1109D01*
X1134Y1199D02*
X1074D01*
X1104Y1169D01*
Y1209D01*
X1134Y1229D02*
X1124D01*
Y1239D01*
X1134D01*
Y1229D01*
X1084Y1279D02*
X1074Y1289D01*
Y1309D01*
X1084Y1319D01*
X1124D01*
X1134Y1309D01*
Y1289D01*
X1124Y1279D01*
X1084D01*
Y1339D02*
X1074Y1349D01*
Y1369D01*
X1084Y1379D01*
X1124D01*
X1134Y1369D01*
Y1349D01*
X1124Y1339D01*
X1084D01*
D49*
X1305Y-1528D02*
X1297Y-1531D01*
X1292Y-1538D01*
X1290Y-1551D01*
Y-1559D01*
X1292Y-1571D01*
X1297Y-1579D01*
X1305Y-1581D01*
X1310D01*
X1317Y-1579D01*
X1323Y-1571D01*
X1325Y-1559D01*
Y-1551D01*
X1323Y-1538D01*
X1317Y-1531D01*
X1310Y-1528D01*
X1305D01*
X139Y-1041D02*
Y-1137D01*
X203Y-1041D02*
Y-1137D01*
X139Y-1087D02*
X203D01*
X303Y-1137D02*
X266Y-1041D01*
X230Y-1137D01*
X243Y-1105D02*
X289D01*
X325Y-1041D02*
Y-1137D01*
Y-1041D02*
X389Y-1137D01*
Y-1041D02*
Y-1137D01*
X416Y-1041D02*
Y-1137D01*
Y-1041D02*
X448D01*
X461Y-1046D01*
X471Y-1055D01*
X475Y-1064D01*
X480Y-1078D01*
Y-1100D01*
X475Y-1114D01*
X471Y-1123D01*
X461Y-1132D01*
X448Y-1137D01*
X416D01*
X501Y-1041D02*
Y-1137D01*
X565Y-1041D02*
Y-1137D01*
X501Y-1087D02*
X565D01*
X651Y-1041D02*
X592D01*
Y-1137D01*
X651D01*
X592Y-1087D02*
X628D01*
X667Y-1041D02*
Y-1137D01*
X722D01*
X732Y-1041D02*
Y-1137D01*
Y-1041D02*
X764D01*
X778Y-1046D01*
X787Y-1055D01*
X792Y-1064D01*
X796Y-1078D01*
Y-1100D01*
X792Y-1114D01*
X787Y-1123D01*
X778Y-1132D01*
X764Y-1137D01*
X732D01*
X-420Y-839D02*
X-456Y-743D01*
X-493Y-839D01*
X-479Y-807D02*
X-434D01*
X-343Y-789D02*
X-352Y-780D01*
X-361Y-775D01*
X-375D01*
X-384Y-780D01*
X-393Y-789D01*
X-397Y-802D01*
Y-812D01*
X-393Y-825D01*
X-384Y-834D01*
X-375Y-839D01*
X-361D01*
X-352Y-834D01*
X-343Y-825D01*
X-308Y-743D02*
Y-821D01*
X-304Y-834D01*
X-295Y-839D01*
X-285D01*
X-322Y-775D02*
X-290D01*
X-263Y-743D02*
X-258Y-748D01*
X-253Y-743D01*
X-258Y-738D01*
X-263Y-743D01*
X-258Y-775D02*
Y-839D01*
X-237Y-775D02*
X-209Y-839D01*
X-182Y-775D02*
X-209Y-839D01*
X-166Y-802D02*
X-111D01*
Y-793D01*
X-116Y-784D01*
X-120Y-780D01*
X-130Y-775D01*
X-143D01*
X-152Y-780D01*
X-162Y-789D01*
X-166Y-802D01*
Y-812D01*
X-162Y-825D01*
X-152Y-834D01*
X-143Y-839D01*
X-130D01*
X-120Y-834D01*
X-111Y-825D01*
X-15Y-743D02*
X7Y-839D01*
X30Y-743D02*
X7Y-839D01*
X30Y-743D02*
X53Y-839D01*
X76Y-743D02*
X53Y-839D01*
X150Y-775D02*
Y-839D01*
Y-789D02*
X141Y-780D01*
X132Y-775D01*
X118D01*
X109Y-780D01*
X100Y-789D01*
X95Y-802D01*
Y-812D01*
X100Y-825D01*
X109Y-834D01*
X118Y-839D01*
X132D01*
X141Y-834D01*
X150Y-825D01*
X176Y-775D02*
X203Y-839D01*
X231Y-775D02*
X203Y-839D01*
X246Y-802D02*
X301D01*
Y-793D01*
X296Y-784D01*
X292Y-780D01*
X283Y-775D01*
X269D01*
X260Y-780D01*
X251Y-789D01*
X246Y-802D01*
Y-812D01*
X251Y-825D01*
X260Y-834D01*
X269Y-839D01*
X283D01*
X292Y-834D01*
X301Y-825D01*
X1992Y-1516D02*
X1997Y-1514D01*
X2004Y-1506D01*
Y-1559D01*
X2033Y-1519D02*
Y-1516D01*
X2036Y-1511D01*
X2039Y-1509D01*
X2044Y-1506D01*
X2054D01*
X2059Y-1509D01*
X2061Y-1511D01*
X2064Y-1516D01*
Y-1521D01*
X2061Y-1526D01*
X2056Y-1534D01*
X2031Y-1559D01*
X2066D01*
X2109Y-1506D02*
X2083D01*
X2081Y-1529D01*
X2083Y-1526D01*
X2091Y-1524D01*
X2099D01*
X2106Y-1526D01*
X2111Y-1531D01*
X2114Y-1539D01*
Y-1544D01*
X2111Y-1552D01*
X2106Y-1557D01*
X2099Y-1559D01*
X2091D01*
X2083Y-1557D01*
X2081Y-1554D01*
X2078Y-1549D01*
X2126Y-1567D02*
X2161Y-1506D01*
X2167Y-1519D02*
Y-1516D01*
X2170Y-1511D01*
X2173Y-1509D01*
X2178Y-1506D01*
X2188D01*
X2193Y-1509D01*
X2195Y-1511D01*
X2198Y-1516D01*
Y-1521D01*
X2195Y-1526D01*
X2190Y-1534D01*
X2165Y-1559D01*
X2201D01*
X2228Y-1506D02*
X2220Y-1509D01*
X2215Y-1516D01*
X2212Y-1529D01*
Y-1537D01*
X2215Y-1549D01*
X2220Y-1557D01*
X2228Y-1559D01*
X2233D01*
X2240Y-1557D01*
X2245Y-1549D01*
X2248Y-1537D01*
Y-1529D01*
X2245Y-1516D01*
X2240Y-1509D01*
X2233Y-1506D01*
X2228D01*
X2260Y-1516D02*
X2265Y-1514D01*
X2273Y-1506D01*
Y-1559D01*
X2302Y-1519D02*
Y-1516D01*
X2304Y-1511D01*
X2307Y-1509D01*
X2312Y-1506D01*
X2322D01*
X2327Y-1509D01*
X2329Y-1511D01*
X2332Y-1516D01*
Y-1521D01*
X2329Y-1526D01*
X2324Y-1534D01*
X2299Y-1559D01*
X2335D01*
D50*
X1577Y-1453D02*
Y-1506D01*
Y-1453D02*
X1595D01*
X1602Y-1456D01*
X1607Y-1461D01*
X1610Y-1466D01*
X1613Y-1473D01*
Y-1486D01*
X1610Y-1494D01*
X1607Y-1499D01*
X1602Y-1504D01*
X1595Y-1506D01*
X1577D01*
X1665D02*
X1645Y-1453D01*
X1624Y-1506D01*
X1632Y-1489D02*
X1658D01*
X1695Y-1453D02*
Y-1506D01*
X1678Y-1453D02*
X1713D01*
X1752D02*
X1719D01*
Y-1506D01*
X1752D01*
X1719Y-1479D02*
X1740D01*
X1764Y-1471D02*
X1761Y-1473D01*
X1764Y-1476D01*
X1766Y-1473D01*
X1764Y-1471D01*
Y-1501D02*
X1761Y-1504D01*
X1764Y-1506D01*
X1766Y-1504D01*
X1764Y-1501D01*
X1115Y-1453D02*
Y-1506D01*
Y-1453D02*
X1137D01*
X1145Y-1456D01*
X1148Y-1458D01*
X1150Y-1463D01*
Y-1468D01*
X1148Y-1473D01*
X1145Y-1476D01*
X1137Y-1479D01*
X1115D01*
X1132D02*
X1150Y-1506D01*
X1195Y-1453D02*
X1162D01*
Y-1506D01*
X1195D01*
X1162Y-1479D02*
X1182D01*
X1204Y-1453D02*
X1224Y-1506D01*
X1245Y-1453D02*
X1224Y-1506D01*
X1254Y-1471D02*
X1251Y-1473D01*
X1254Y-1476D01*
X1256Y-1473D01*
X1254Y-1471D01*
Y-1501D02*
X1251Y-1504D01*
X1254Y-1506D01*
X1256Y-1504D01*
X1254Y-1501D01*
X-1523Y-1206D02*
X-1500D01*
X-1493Y-1204D01*
X-1490Y-1201D01*
X-1487Y-1196D01*
Y-1188D01*
X-1490Y-1183D01*
X-1493Y-1181D01*
X-1500Y-1178D01*
X-1523D01*
Y-1231D01*
X-1476Y-1178D02*
Y-1231D01*
X-1440Y-1178D02*
Y-1231D01*
X-1476Y-1204D02*
X-1440D01*
X-1410Y-1178D02*
X-1415Y-1181D01*
X-1420Y-1186D01*
X-1423Y-1191D01*
X-1425Y-1198D01*
Y-1211D01*
X-1423Y-1219D01*
X-1420Y-1224D01*
X-1415Y-1229D01*
X-1410Y-1231D01*
X-1400D01*
X-1395Y-1229D01*
X-1390Y-1224D01*
X-1387Y-1219D01*
X-1385Y-1211D01*
Y-1198D01*
X-1387Y-1191D01*
X-1390Y-1186D01*
X-1395Y-1181D01*
X-1400Y-1178D01*
X-1410D01*
X-1372D02*
Y-1231D01*
Y-1178D02*
X-1337Y-1231D01*
Y-1178D02*
Y-1231D01*
X-1289Y-1178D02*
X-1322D01*
Y-1231D01*
X-1289D01*
X-1322Y-1204D02*
X-1302D01*
X-1277Y-1196D02*
X-1280Y-1198D01*
X-1277Y-1201D01*
X-1275Y-1198D01*
X-1277Y-1196D01*
Y-1226D02*
X-1280Y-1229D01*
X-1277Y-1231D01*
X-1275Y-1229D01*
X-1277Y-1226D01*
X-1523Y-1581D02*
X-1500D01*
X-1493Y-1579D01*
X-1490Y-1576D01*
X-1487Y-1571D01*
Y-1563D01*
X-1490Y-1558D01*
X-1493Y-1556D01*
X-1500Y-1553D01*
X-1523D01*
Y-1606D01*
X-1476Y-1553D02*
Y-1606D01*
X-1440Y-1553D02*
Y-1606D01*
X-1476Y-1579D02*
X-1440D01*
X-1410Y-1553D02*
X-1415Y-1556D01*
X-1420Y-1561D01*
X-1423Y-1566D01*
X-1425Y-1573D01*
Y-1586D01*
X-1423Y-1594D01*
X-1420Y-1599D01*
X-1415Y-1604D01*
X-1410Y-1606D01*
X-1400D01*
X-1395Y-1604D01*
X-1390Y-1599D01*
X-1387Y-1594D01*
X-1385Y-1586D01*
Y-1573D01*
X-1387Y-1566D01*
X-1390Y-1561D01*
X-1395Y-1556D01*
X-1400Y-1553D01*
X-1410D01*
X-1372D02*
Y-1606D01*
Y-1553D02*
X-1337Y-1606D01*
Y-1553D02*
Y-1606D01*
X-1289Y-1553D02*
X-1322D01*
Y-1606D01*
X-1289D01*
X-1322Y-1579D02*
X-1302D01*
X-1277Y-1571D02*
X-1280Y-1573D01*
X-1277Y-1576D01*
X-1275Y-1573D01*
X-1277Y-1571D01*
Y-1601D02*
X-1280Y-1604D01*
X-1277Y-1606D01*
X-1275Y-1604D01*
X-1277Y-1601D01*
X317Y-1731D02*
Y-1784D01*
X347D01*
X394D02*
X374Y-1731D01*
X353Y-1784D01*
X361Y-1766D02*
X386D01*
X406Y-1731D02*
X427Y-1756D01*
Y-1784D01*
X447Y-1731D02*
X427Y-1756D01*
X487Y-1731D02*
X454D01*
Y-1784D01*
X487D01*
X454Y-1756D02*
X474D01*
X496Y-1731D02*
Y-1784D01*
Y-1731D02*
X519D01*
X526Y-1733D01*
X529Y-1736D01*
X531Y-1741D01*
Y-1746D01*
X529Y-1751D01*
X526Y-1753D01*
X519Y-1756D01*
X496D01*
X514D02*
X531Y-1784D01*
X546Y-1748D02*
X543Y-1751D01*
X546Y-1753D01*
X548Y-1751D01*
X546Y-1748D01*
Y-1779D02*
X543Y-1781D01*
X546Y-1784D01*
X548Y-1781D01*
X546Y-1779D01*
X-1490Y-991D02*
X-1523D01*
Y-1044D01*
X-1490D01*
X-1523Y-1016D02*
X-1503D01*
X-1481Y-991D02*
Y-1044D01*
Y-991D02*
X-1446Y-1044D01*
Y-991D02*
Y-1044D01*
X-1393Y-1003D02*
X-1395Y-998D01*
X-1400Y-993D01*
X-1405Y-991D01*
X-1416D01*
X-1421Y-993D01*
X-1426Y-998D01*
X-1428Y-1003D01*
X-1431Y-1011D01*
Y-1024D01*
X-1428Y-1031D01*
X-1426Y-1036D01*
X-1421Y-1041D01*
X-1416Y-1044D01*
X-1405D01*
X-1400Y-1041D01*
X-1395Y-1036D01*
X-1393Y-1031D01*
Y-1024D01*
X-1405D02*
X-1393D01*
X-1381Y-991D02*
Y-1044D01*
X-1369Y-991D02*
Y-1044D01*
Y-991D02*
X-1334Y-1044D01*
Y-991D02*
Y-1044D01*
X-1286Y-991D02*
X-1319D01*
Y-1044D01*
X-1286D01*
X-1319Y-1016D02*
X-1299D01*
X-1244Y-991D02*
X-1277D01*
Y-1044D01*
X-1244D01*
X-1277Y-1016D02*
X-1257D01*
X-1235Y-991D02*
Y-1044D01*
Y-991D02*
X-1212D01*
X-1205Y-993D01*
X-1202Y-996D01*
X-1200Y-1001D01*
Y-1006D01*
X-1202Y-1011D01*
X-1205Y-1013D01*
X-1212Y-1016D01*
X-1235D01*
X-1218D02*
X-1200Y-1044D01*
X-1185Y-1008D02*
X-1188Y-1011D01*
X-1185Y-1013D01*
X-1183Y-1011D01*
X-1185Y-1008D01*
Y-1039D02*
X-1188Y-1041D01*
X-1185Y-1044D01*
X-1183Y-1041D01*
X-1185Y-1039D01*
X-623Y-1481D02*
X-600D01*
X-593Y-1479D01*
X-590Y-1476D01*
X-587Y-1471D01*
Y-1463D01*
X-590Y-1458D01*
X-593Y-1456D01*
X-600Y-1453D01*
X-623D01*
Y-1506D01*
X-535D02*
X-555Y-1453D01*
X-576Y-1506D01*
X-568Y-1489D02*
X-542D01*
X-522Y-1453D02*
Y-1506D01*
Y-1453D02*
X-500D01*
X-492Y-1456D01*
X-489Y-1458D01*
X-487Y-1463D01*
Y-1468D01*
X-489Y-1473D01*
X-492Y-1476D01*
X-500Y-1479D01*
X-522D01*
X-505D02*
X-487Y-1506D01*
X-457Y-1453D02*
Y-1506D01*
X-475Y-1453D02*
X-439D01*
X-391D02*
Y-1506D01*
Y-1453D02*
X-356Y-1506D01*
Y-1453D02*
Y-1506D01*
X-326Y-1453D02*
X-331Y-1456D01*
X-336Y-1461D01*
X-338Y-1466D01*
X-341Y-1473D01*
Y-1486D01*
X-338Y-1494D01*
X-336Y-1499D01*
X-331Y-1504D01*
X-326Y-1506D01*
X-315D01*
X-310Y-1504D01*
X-305Y-1499D01*
X-303Y-1494D01*
X-300Y-1486D01*
Y-1473D01*
X-303Y-1466D01*
X-305Y-1461D01*
X-310Y-1456D01*
X-315Y-1453D01*
X-326D01*
X-285Y-1501D02*
X-288Y-1504D01*
X-285Y-1506D01*
X-283Y-1504D01*
X-285Y-1501D01*
X-269Y-1471D02*
X-271Y-1473D01*
X-269Y-1476D01*
X-266Y-1473D01*
X-269Y-1471D01*
Y-1501D02*
X-271Y-1504D01*
X-269Y-1506D01*
X-266Y-1504D01*
X-269Y-1501D01*
X-618Y-978D02*
Y-1031D01*
X-635Y-978D02*
X-600D01*
X-594D02*
Y-1031D01*
X-565Y-978D02*
Y-1031D01*
X-582Y-978D02*
X-547D01*
X-541D02*
Y-1031D01*
X-510D01*
X-471Y-978D02*
X-504D01*
Y-1031D01*
X-471D01*
X-504Y-1004D02*
X-484D01*
X-460Y-996D02*
X-462Y-998D01*
X-460Y-1001D01*
X-457Y-998D01*
X-460Y-996D01*
Y-1026D02*
X-462Y-1029D01*
X-460Y-1031D01*
X-457Y-1029D01*
X-460Y-1026D01*
X-1523Y-1371D02*
Y-1424D01*
Y-1371D02*
X-1505D01*
X-1498Y-1373D01*
X-1493Y-1378D01*
X-1490Y-1383D01*
X-1487Y-1391D01*
Y-1404D01*
X-1490Y-1411D01*
X-1493Y-1416D01*
X-1498Y-1421D01*
X-1505Y-1424D01*
X-1523D01*
X-1476Y-1388D02*
Y-1424D01*
Y-1404D02*
X-1473Y-1396D01*
X-1468Y-1391D01*
X-1463Y-1388D01*
X-1455D01*
X-1420D02*
Y-1424D01*
Y-1396D02*
X-1425Y-1391D01*
X-1430Y-1388D01*
X-1438D01*
X-1443Y-1391D01*
X-1448Y-1396D01*
X-1450Y-1404D01*
Y-1409D01*
X-1448Y-1416D01*
X-1443Y-1421D01*
X-1438Y-1424D01*
X-1430D01*
X-1425Y-1421D01*
X-1420Y-1416D01*
X-1406Y-1388D02*
X-1396Y-1424D01*
X-1385Y-1388D02*
X-1396Y-1424D01*
X-1385Y-1388D02*
X-1375Y-1424D01*
X-1365Y-1388D02*
X-1375Y-1424D01*
X-1353Y-1388D02*
Y-1424D01*
Y-1399D02*
X-1345Y-1391D01*
X-1340Y-1388D01*
X-1332D01*
X-1327Y-1391D01*
X-1325Y-1399D01*
Y-1424D01*
X-1269Y-1371D02*
Y-1424D01*
Y-1396D02*
X-1264Y-1391D01*
X-1259Y-1388D01*
X-1251D01*
X-1246Y-1391D01*
X-1241Y-1396D01*
X-1238Y-1404D01*
Y-1409D01*
X-1241Y-1416D01*
X-1246Y-1421D01*
X-1251Y-1424D01*
X-1259D01*
X-1264Y-1421D01*
X-1269Y-1416D01*
X-1224Y-1388D02*
X-1209Y-1424D01*
X-1194Y-1388D02*
X-1209Y-1424D01*
X-1214Y-1434D01*
X-1219Y-1439D01*
X-1224Y-1442D01*
X-1227D01*
X-1182Y-1388D02*
X-1185Y-1391D01*
X-1182Y-1393D01*
X-1180Y-1391D01*
X-1182Y-1388D01*
Y-1419D02*
X-1185Y-1421D01*
X-1182Y-1424D01*
X-1180Y-1421D01*
X-1182Y-1419D01*
X-1523Y-1731D02*
Y-1784D01*
Y-1731D02*
X-1490D01*
X-1523Y-1756D02*
X-1503D01*
X-1484Y-1731D02*
Y-1784D01*
X-1473Y-1731D02*
Y-1784D01*
X-1442D01*
X-1403Y-1731D02*
X-1436D01*
Y-1784D01*
X-1403D01*
X-1436Y-1756D02*
X-1416D01*
X-1353Y-1731D02*
Y-1784D01*
Y-1731D02*
X-1317Y-1784D01*
Y-1731D02*
Y-1784D01*
X-1262D02*
X-1282Y-1731D01*
X-1302Y-1784D01*
X-1295Y-1766D02*
X-1269D01*
X-1249Y-1731D02*
Y-1784D01*
Y-1731D02*
X-1229Y-1784D01*
X-1209Y-1731D02*
X-1229Y-1784D01*
X-1209Y-1731D02*
Y-1784D01*
X-1160Y-1731D02*
X-1193D01*
Y-1784D01*
X-1160D01*
X-1193Y-1756D02*
X-1173D01*
X-1149Y-1748D02*
X-1152Y-1751D01*
X-1149Y-1753D01*
X-1146Y-1751D01*
X-1149Y-1748D01*
Y-1779D02*
X-1152Y-1781D01*
X-1149Y-1784D01*
X-1146Y-1781D01*
X-1149Y-1779D01*
X2175Y-1743D02*
X2173Y-1738D01*
X2167Y-1733D01*
X2162Y-1731D01*
X2152D01*
X2147Y-1733D01*
X2142Y-1738D01*
X2140Y-1743D01*
X2137Y-1751D01*
Y-1764D01*
X2140Y-1771D01*
X2142Y-1776D01*
X2147Y-1781D01*
X2152Y-1784D01*
X2162D01*
X2167Y-1781D01*
X2173Y-1776D01*
X2175Y-1771D01*
Y-1764D01*
X2162D02*
X2175D01*
X2220Y-1731D02*
X2187D01*
Y-1784D01*
X2220D01*
X2187Y-1756D02*
X2208D01*
X2229Y-1731D02*
Y-1784D01*
Y-1731D02*
X2252D01*
X2260Y-1733D01*
X2262Y-1736D01*
X2265Y-1741D01*
Y-1746D01*
X2262Y-1751D01*
X2260Y-1753D01*
X2252Y-1756D01*
X2229D01*
X2247D02*
X2265Y-1784D01*
X2277Y-1731D02*
Y-1784D01*
Y-1731D02*
X2300D01*
X2307Y-1733D01*
X2310Y-1736D01*
X2312Y-1741D01*
Y-1746D01*
X2310Y-1751D01*
X2307Y-1753D01*
X2300Y-1756D01*
X2277D02*
X2300D01*
X2307Y-1759D01*
X2310Y-1761D01*
X2312Y-1766D01*
Y-1774D01*
X2310Y-1779D01*
X2307Y-1781D01*
X2300Y-1784D01*
X2277D01*
X2357Y-1731D02*
X2324D01*
Y-1784D01*
X2357D01*
X2324Y-1756D02*
X2344D01*
X2366Y-1731D02*
Y-1784D01*
Y-1731D02*
X2389D01*
X2397Y-1733D01*
X2399Y-1736D01*
X2402Y-1741D01*
Y-1746D01*
X2399Y-1751D01*
X2397Y-1753D01*
X2389Y-1756D01*
X2366D01*
X2384D02*
X2402Y-1784D01*
X2416Y-1748D02*
X2414Y-1751D01*
X2416Y-1753D01*
X2419Y-1751D01*
X2416Y-1748D01*
Y-1779D02*
X2414Y-1781D01*
X2416Y-1784D01*
X2419Y-1781D01*
X2416Y-1779D01*
D51*
X1694Y-855D02*
X1656Y-755D01*
X1618Y-855D01*
X1632Y-821D02*
X1680D01*
X1775Y-802D02*
X1765Y-793D01*
X1756Y-788D01*
X1741D01*
X1732Y-793D01*
X1722Y-802D01*
X1718Y-817D01*
Y-826D01*
X1722Y-840D01*
X1732Y-850D01*
X1741Y-855D01*
X1756D01*
X1765Y-850D01*
X1775Y-840D01*
X1810Y-755D02*
Y-836D01*
X1815Y-850D01*
X1825Y-855D01*
X1834D01*
X1796Y-788D02*
X1829D01*
X1858Y-755D02*
X1863Y-760D01*
X1868Y-755D01*
X1863Y-750D01*
X1858Y-755D01*
X1863Y-788D02*
Y-855D01*
X1885Y-788D02*
X1914Y-855D01*
X1942Y-788D02*
X1914Y-855D01*
X1958Y-817D02*
X2016D01*
Y-807D01*
X2011Y-798D01*
X2006Y-793D01*
X1997Y-788D01*
X1982D01*
X1973Y-793D01*
X1963Y-802D01*
X1958Y-817D01*
Y-826D01*
X1963Y-840D01*
X1973Y-850D01*
X1982Y-855D01*
X1997D01*
X2006Y-850D01*
X2016Y-840D01*
X2116Y-755D02*
X2139Y-855D01*
X2163Y-755D02*
X2139Y-855D01*
X2163Y-755D02*
X2187Y-855D01*
X2211Y-755D02*
X2187Y-855D01*
X2288Y-788D02*
Y-855D01*
Y-802D02*
X2278Y-793D01*
X2269Y-788D01*
X2255D01*
X2245Y-793D01*
X2236Y-802D01*
X2231Y-817D01*
Y-826D01*
X2236Y-840D01*
X2245Y-850D01*
X2255Y-855D01*
X2269D01*
X2278Y-850D01*
X2288Y-840D01*
X2315Y-788D02*
X2343Y-855D01*
X2372Y-788D02*
X2343Y-855D01*
X2388Y-817D02*
X2445D01*
Y-807D01*
X2440Y-798D01*
X2436Y-793D01*
X2426Y-788D01*
X2412D01*
X2402Y-793D01*
X2393Y-802D01*
X2388Y-817D01*
Y-826D01*
X2393Y-840D01*
X2402Y-850D01*
X2412Y-855D01*
X2426D01*
X2436Y-850D01*
X2445Y-840D01*
X3611Y-1651D02*
X3606Y-1665D01*
X3597Y-1675D01*
X3582Y-1679D01*
X3578D01*
X3563Y-1675D01*
X3554Y-1665D01*
X3549Y-1651D01*
Y-1646D01*
X3554Y-1632D01*
X3563Y-1622D01*
X3578Y-1617D01*
X3582D01*
X3597Y-1622D01*
X3606Y-1632D01*
X3611Y-1651D01*
Y-1675D01*
X3606Y-1698D01*
X3597Y-1713D01*
X3582Y-1717D01*
X3573D01*
X3559Y-1713D01*
X3554Y-1703D01*
X3638Y-1598D02*
X3648Y-1608D01*
X3657Y-1622D01*
X3667Y-1641D01*
X3671Y-1665D01*
Y-1684D01*
X3667Y-1708D01*
X3657Y-1727D01*
X3648Y-1741D01*
X3638Y-1751D01*
X3648Y-1608D02*
X3657Y-1627D01*
X3662Y-1641D01*
X3667Y-1665D01*
Y-1684D01*
X3662Y-1708D01*
X3657Y-1722D01*
X3648Y-1741D01*
X3846Y-1641D02*
X3841Y-1632D01*
X3831Y-1622D01*
X3822Y-1617D01*
X3803D01*
X3793Y-1622D01*
X3784Y-1632D01*
X3779Y-1641D01*
X3774Y-1655D01*
Y-1679D01*
X3779Y-1694D01*
X3784Y-1703D01*
X3793Y-1713D01*
X3803Y-1717D01*
X3822D01*
X3831Y-1713D01*
X3841Y-1703D01*
X3846Y-1694D01*
Y-1679D01*
X3822D02*
X3846D01*
X3868Y-1617D02*
Y-1717D01*
Y-1617D02*
X3911D01*
X3926Y-1622D01*
X3930Y-1627D01*
X3935Y-1636D01*
Y-1646D01*
X3930Y-1655D01*
X3926Y-1660D01*
X3911Y-1665D01*
X3868D01*
X3902D02*
X3935Y-1717D01*
X4019Y-1617D02*
X3957D01*
Y-1717D01*
X4019D01*
X3957Y-1665D02*
X3996D01*
X4098Y-1617D02*
X4036D01*
Y-1717D01*
X4098D01*
X4036Y-1665D02*
X4074D01*
X4115Y-1617D02*
Y-1717D01*
Y-1617D02*
X4181Y-1717D01*
Y-1617D02*
Y-1717D01*
X4354Y-1632D02*
X4345Y-1622D01*
X4330Y-1617D01*
X4311D01*
X4297Y-1622D01*
X4287Y-1632D01*
Y-1641D01*
X4292Y-1651D01*
X4297Y-1655D01*
X4306Y-1660D01*
X4335Y-1670D01*
X4345Y-1675D01*
X4349Y-1679D01*
X4354Y-1689D01*
Y-1703D01*
X4345Y-1713D01*
X4330Y-1717D01*
X4311D01*
X4297Y-1713D01*
X4287Y-1703D01*
X4405Y-1617D02*
X4395Y-1622D01*
X4386Y-1632D01*
X4381Y-1641D01*
X4376Y-1655D01*
Y-1679D01*
X4381Y-1694D01*
X4386Y-1703D01*
X4395Y-1713D01*
X4405Y-1717D01*
X4424D01*
X4434Y-1713D01*
X4443Y-1703D01*
X4448Y-1694D01*
X4453Y-1679D01*
Y-1655D01*
X4448Y-1641D01*
X4443Y-1632D01*
X4434Y-1622D01*
X4424Y-1617D01*
X4405D01*
X4476D02*
Y-1717D01*
X4533D01*
X4544Y-1617D02*
Y-1717D01*
Y-1617D02*
X4577D01*
X4592Y-1622D01*
X4601Y-1632D01*
X4606Y-1641D01*
X4611Y-1655D01*
Y-1679D01*
X4606Y-1694D01*
X4601Y-1703D01*
X4592Y-1713D01*
X4577Y-1717D01*
X4544D01*
X4695Y-1617D02*
X4633D01*
Y-1717D01*
X4695D01*
X4633Y-1665D02*
X4671D01*
X4712Y-1617D02*
Y-1717D01*
Y-1617D02*
X4754D01*
X4769Y-1622D01*
X4773Y-1627D01*
X4778Y-1636D01*
Y-1646D01*
X4773Y-1655D01*
X4769Y-1660D01*
X4754Y-1665D01*
X4712D01*
X4745D02*
X4778Y-1717D01*
X4879Y-1617D02*
Y-1717D01*
Y-1617D02*
X4917Y-1717D01*
X4955Y-1617D02*
X4917Y-1717D01*
X4955Y-1617D02*
Y-1717D01*
X5060D02*
X5022Y-1617D01*
X4984Y-1717D01*
X4998Y-1684D02*
X5046D01*
X5150Y-1632D02*
X5141Y-1622D01*
X5126Y-1617D01*
X5107D01*
X5093Y-1622D01*
X5083Y-1632D01*
Y-1641D01*
X5088Y-1651D01*
X5093Y-1655D01*
X5102Y-1660D01*
X5131Y-1670D01*
X5141Y-1675D01*
X5145Y-1679D01*
X5150Y-1689D01*
Y-1703D01*
X5141Y-1713D01*
X5126Y-1717D01*
X5107D01*
X5093Y-1713D01*
X5083Y-1703D01*
X5172Y-1617D02*
Y-1717D01*
X5239Y-1617D02*
X5172Y-1684D01*
X5196Y-1660D02*
X5239Y-1717D01*
X5340Y-1617D02*
Y-1717D01*
Y-1617D02*
X5383D01*
X5397Y-1622D01*
X5402Y-1627D01*
X5407Y-1636D01*
Y-1646D01*
X5402Y-1655D01*
X5397Y-1660D01*
X5383Y-1665D01*
X5340D02*
X5383D01*
X5397Y-1670D01*
X5402Y-1675D01*
X5407Y-1684D01*
Y-1698D01*
X5402Y-1708D01*
X5397Y-1713D01*
X5383Y-1717D01*
X5340D01*
X5458Y-1617D02*
X5448Y-1622D01*
X5439Y-1632D01*
X5434Y-1641D01*
X5429Y-1655D01*
Y-1679D01*
X5434Y-1694D01*
X5439Y-1703D01*
X5448Y-1713D01*
X5458Y-1717D01*
X5477D01*
X5486Y-1713D01*
X5496Y-1703D01*
X5500Y-1694D01*
X5505Y-1679D01*
Y-1655D01*
X5500Y-1641D01*
X5496Y-1632D01*
X5486Y-1622D01*
X5477Y-1617D01*
X5458D01*
X5562D02*
Y-1717D01*
X5529Y-1617D02*
X5595D01*
X5607D02*
Y-1717D01*
X5674Y-1617D02*
Y-1717D01*
X5607Y-1665D02*
X5674D01*
X5847Y-1632D02*
X5837Y-1622D01*
X5823Y-1617D01*
X5804D01*
X5789Y-1622D01*
X5780Y-1632D01*
Y-1641D01*
X5785Y-1651D01*
X5789Y-1655D01*
X5799Y-1660D01*
X5828Y-1670D01*
X5837Y-1675D01*
X5842Y-1679D01*
X5847Y-1689D01*
Y-1703D01*
X5837Y-1713D01*
X5823Y-1717D01*
X5804D01*
X5789Y-1713D01*
X5780Y-1703D01*
X5869Y-1617D02*
Y-1717D01*
X5890Y-1617D02*
Y-1717D01*
Y-1617D02*
X5923D01*
X5938Y-1622D01*
X5947Y-1632D01*
X5952Y-1641D01*
X5957Y-1655D01*
Y-1679D01*
X5952Y-1694D01*
X5947Y-1703D01*
X5938Y-1713D01*
X5923Y-1717D01*
X5890D01*
X6041Y-1617D02*
X5979D01*
Y-1717D01*
X6041D01*
X5979Y-1665D02*
X6017D01*
X6124Y-1632D02*
X6115Y-1622D01*
X6100Y-1617D01*
X6081D01*
X6067Y-1622D01*
X6058Y-1632D01*
Y-1641D01*
X6062Y-1651D01*
X6067Y-1655D01*
X6077Y-1660D01*
X6105Y-1670D01*
X6115Y-1675D01*
X6119Y-1679D01*
X6124Y-1689D01*
Y-1703D01*
X6115Y-1713D01*
X6100Y-1717D01*
X6081D01*
X6067Y-1713D01*
X6058Y-1703D01*
X3578Y-1401D02*
X3564Y-1406D01*
X3559Y-1416D01*
Y-1425D01*
X3564Y-1435D01*
X3573Y-1439D01*
X3592Y-1444D01*
X3606Y-1449D01*
X3616Y-1459D01*
X3621Y-1468D01*
Y-1482D01*
X3616Y-1492D01*
X3611Y-1497D01*
X3597Y-1501D01*
X3578D01*
X3564Y-1497D01*
X3559Y-1492D01*
X3554Y-1482D01*
Y-1468D01*
X3559Y-1459D01*
X3568Y-1449D01*
X3583Y-1444D01*
X3602Y-1439D01*
X3611Y-1435D01*
X3616Y-1425D01*
Y-1416D01*
X3611Y-1406D01*
X3597Y-1401D01*
X3578D01*
X3643Y-1382D02*
X3653Y-1392D01*
X3662Y-1406D01*
X3672Y-1425D01*
X3676Y-1449D01*
Y-1468D01*
X3672Y-1492D01*
X3662Y-1511D01*
X3653Y-1525D01*
X3643Y-1535D01*
X3653Y-1392D02*
X3662Y-1411D01*
X3667Y-1425D01*
X3672Y-1449D01*
Y-1468D01*
X3667Y-1492D01*
X3662Y-1506D01*
X3653Y-1525D01*
X3846Y-1416D02*
X3836Y-1406D01*
X3822Y-1401D01*
X3803D01*
X3789Y-1406D01*
X3779Y-1416D01*
Y-1425D01*
X3784Y-1435D01*
X3789Y-1439D01*
X3798Y-1444D01*
X3827Y-1454D01*
X3836Y-1459D01*
X3841Y-1463D01*
X3846Y-1473D01*
Y-1487D01*
X3836Y-1497D01*
X3822Y-1501D01*
X3803D01*
X3789Y-1497D01*
X3779Y-1487D01*
X3868Y-1401D02*
Y-1501D01*
X3889Y-1401D02*
Y-1501D01*
X3946D01*
X3957Y-1401D02*
Y-1501D01*
X4024Y-1401D02*
X3957Y-1468D01*
X3981Y-1444D02*
X4024Y-1501D01*
X4113Y-1416D02*
X4103Y-1406D01*
X4089Y-1401D01*
X4070D01*
X4056Y-1406D01*
X4046Y-1416D01*
Y-1425D01*
X4051Y-1435D01*
X4056Y-1439D01*
X4065Y-1444D01*
X4094Y-1454D01*
X4103Y-1459D01*
X4108Y-1463D01*
X4113Y-1473D01*
Y-1487D01*
X4103Y-1497D01*
X4089Y-1501D01*
X4070D01*
X4056Y-1497D01*
X4046Y-1487D01*
X4207Y-1425D02*
X4202Y-1416D01*
X4192Y-1406D01*
X4183Y-1401D01*
X4164D01*
X4154Y-1406D01*
X4145Y-1416D01*
X4140Y-1425D01*
X4135Y-1439D01*
Y-1463D01*
X4140Y-1478D01*
X4145Y-1487D01*
X4154Y-1497D01*
X4164Y-1501D01*
X4183D01*
X4192Y-1497D01*
X4202Y-1487D01*
X4207Y-1478D01*
X4235Y-1401D02*
Y-1501D01*
Y-1401D02*
X4278D01*
X4292Y-1406D01*
X4297Y-1411D01*
X4301Y-1420D01*
Y-1430D01*
X4297Y-1439D01*
X4292Y-1444D01*
X4278Y-1449D01*
X4235D01*
X4268D02*
X4301Y-1501D01*
X4386Y-1401D02*
X4324D01*
Y-1501D01*
X4386D01*
X4324Y-1449D02*
X4362D01*
X4464Y-1401D02*
X4402D01*
Y-1501D01*
X4464D01*
X4402Y-1449D02*
X4440D01*
X4481Y-1401D02*
Y-1501D01*
Y-1401D02*
X4548Y-1501D01*
Y-1401D02*
Y-1501D01*
X4682Y-1401D02*
X4673Y-1406D01*
X4663Y-1416D01*
X4659Y-1425D01*
X4654Y-1439D01*
Y-1463D01*
X4659Y-1478D01*
X4663Y-1487D01*
X4673Y-1497D01*
X4682Y-1501D01*
X4701D01*
X4711Y-1497D01*
X4720Y-1487D01*
X4725Y-1478D01*
X4730Y-1463D01*
Y-1439D01*
X4725Y-1425D01*
X4720Y-1416D01*
X4711Y-1406D01*
X4701Y-1401D01*
X4682D01*
X4753D02*
X4791Y-1501D01*
X4829Y-1401D02*
X4791Y-1501D01*
X4904Y-1401D02*
X4842D01*
Y-1501D01*
X4904D01*
X4842Y-1449D02*
X4880D01*
X4921Y-1401D02*
Y-1501D01*
Y-1401D02*
X4964D01*
X4978Y-1406D01*
X4983Y-1411D01*
X4988Y-1420D01*
Y-1430D01*
X4983Y-1439D01*
X4978Y-1444D01*
X4964Y-1449D01*
X4921D01*
X4954D02*
X4988Y-1501D01*
X5122Y-1401D02*
Y-1501D01*
X5088Y-1401D02*
X5155D01*
X5229D02*
X5167D01*
Y-1501D01*
X5229D01*
X5167Y-1449D02*
X5205D01*
X5246Y-1401D02*
Y-1501D01*
Y-1401D02*
X5312Y-1501D01*
Y-1401D02*
Y-1501D01*
X5373Y-1401D02*
Y-1501D01*
X5340Y-1401D02*
X5406D01*
X5480D02*
X5418D01*
Y-1501D01*
X5480D01*
X5418Y-1449D02*
X5456D01*
X5497Y-1401D02*
Y-1501D01*
Y-1401D02*
X5530D01*
X5545Y-1406D01*
X5554Y-1416D01*
X5559Y-1425D01*
X5564Y-1439D01*
Y-1463D01*
X5559Y-1478D01*
X5554Y-1487D01*
X5545Y-1497D01*
X5530Y-1501D01*
X5497D01*
X5665Y-1401D02*
X5703Y-1501D01*
X5741Y-1401D02*
X5703Y-1501D01*
X5754Y-1401D02*
Y-1501D01*
X5851D02*
X5813Y-1401D01*
X5774Y-1501D01*
X5789Y-1468D02*
X5836D01*
X5941Y-1416D02*
X5931Y-1406D01*
X5917Y-1401D01*
X5898D01*
X5884Y-1406D01*
X5874Y-1416D01*
Y-1425D01*
X5879Y-1435D01*
X5884Y-1439D01*
X5893Y-1444D01*
X5922Y-1454D01*
X5931Y-1459D01*
X5936Y-1463D01*
X5941Y-1473D01*
Y-1487D01*
X5931Y-1497D01*
X5917Y-1501D01*
X5898D01*
X5884Y-1497D01*
X5874Y-1487D01*
X3621Y-1174D02*
X3573Y-1274D01*
X3554Y-1174D02*
X3621D01*
X3643Y-1155D02*
X3653Y-1165D01*
X3662Y-1179D01*
X3672Y-1198D01*
X3676Y-1222D01*
Y-1241D01*
X3672Y-1265D01*
X3662Y-1284D01*
X3653Y-1298D01*
X3643Y-1308D01*
X3653Y-1165D02*
X3662Y-1184D01*
X3667Y-1198D01*
X3672Y-1222D01*
Y-1241D01*
X3667Y-1265D01*
X3662Y-1279D01*
X3653Y-1298D01*
X3779Y-1174D02*
Y-1274D01*
Y-1174D02*
X3822D01*
X3836Y-1179D01*
X3841Y-1184D01*
X3846Y-1193D01*
Y-1203D01*
X3841Y-1212D01*
X3836Y-1217D01*
X3822Y-1222D01*
X3779D01*
X3813D02*
X3846Y-1274D01*
X3930Y-1174D02*
X3868D01*
Y-1274D01*
X3930D01*
X3868Y-1222D02*
X3906D01*
X3947Y-1174D02*
Y-1274D01*
Y-1174D02*
X3985Y-1274D01*
X4023Y-1174D02*
X3985Y-1274D01*
X4023Y-1174D02*
Y-1274D01*
X4080Y-1174D02*
X4071Y-1179D01*
X4061Y-1189D01*
X4056Y-1198D01*
X4052Y-1212D01*
Y-1236D01*
X4056Y-1251D01*
X4061Y-1260D01*
X4071Y-1270D01*
X4080Y-1274D01*
X4099D01*
X4109Y-1270D01*
X4118Y-1260D01*
X4123Y-1251D01*
X4128Y-1236D01*
Y-1212D01*
X4123Y-1198D01*
X4118Y-1189D01*
X4109Y-1179D01*
X4099Y-1174D01*
X4080D01*
X4151D02*
X4189Y-1274D01*
X4227Y-1174D02*
X4189Y-1274D01*
X4302Y-1174D02*
X4240D01*
Y-1274D01*
X4302D01*
X4240Y-1222D02*
X4278D01*
X4464Y-1189D02*
X4454Y-1179D01*
X4440Y-1174D01*
X4421D01*
X4407Y-1179D01*
X4397Y-1189D01*
Y-1198D01*
X4402Y-1208D01*
X4407Y-1212D01*
X4416Y-1217D01*
X4445Y-1227D01*
X4454Y-1232D01*
X4459Y-1236D01*
X4464Y-1246D01*
Y-1260D01*
X4454Y-1270D01*
X4440Y-1274D01*
X4421D01*
X4407Y-1270D01*
X4397Y-1260D01*
X4486Y-1174D02*
Y-1274D01*
X4507Y-1174D02*
Y-1274D01*
X4564D01*
X4575Y-1174D02*
Y-1274D01*
X4642Y-1174D02*
X4575Y-1241D01*
X4599Y-1217D02*
X4642Y-1274D01*
X4731Y-1189D02*
X4721Y-1179D01*
X4707Y-1174D01*
X4688D01*
X4674Y-1179D01*
X4664Y-1189D01*
Y-1198D01*
X4669Y-1208D01*
X4674Y-1212D01*
X4683Y-1217D01*
X4712Y-1227D01*
X4721Y-1232D01*
X4726Y-1236D01*
X4731Y-1246D01*
Y-1260D01*
X4721Y-1270D01*
X4707Y-1274D01*
X4688D01*
X4674Y-1270D01*
X4664Y-1260D01*
X4825Y-1198D02*
X4820Y-1189D01*
X4810Y-1179D01*
X4801Y-1174D01*
X4782D01*
X4772Y-1179D01*
X4763Y-1189D01*
X4758Y-1198D01*
X4753Y-1212D01*
Y-1236D01*
X4758Y-1251D01*
X4763Y-1260D01*
X4772Y-1270D01*
X4782Y-1274D01*
X4801D01*
X4810Y-1270D01*
X4820Y-1260D01*
X4825Y-1251D01*
X4853Y-1174D02*
Y-1274D01*
Y-1174D02*
X4896D01*
X4910Y-1179D01*
X4915Y-1184D01*
X4919Y-1193D01*
Y-1203D01*
X4915Y-1212D01*
X4910Y-1217D01*
X4896Y-1222D01*
X4853D01*
X4886D02*
X4919Y-1274D01*
X5004Y-1174D02*
X4942D01*
Y-1274D01*
X5004D01*
X4942Y-1222D02*
X4980D01*
X5082Y-1174D02*
X5020D01*
Y-1274D01*
X5082D01*
X5020Y-1222D02*
X5058D01*
X5099Y-1174D02*
Y-1274D01*
Y-1174D02*
X5166Y-1274D01*
Y-1174D02*
Y-1274D01*
X5272Y-1174D02*
Y-1274D01*
Y-1174D02*
X5334D01*
X5272Y-1222D02*
X5310D01*
X5345Y-1174D02*
Y-1274D01*
Y-1174D02*
X5388D01*
X5402Y-1179D01*
X5407Y-1184D01*
X5412Y-1193D01*
Y-1203D01*
X5407Y-1212D01*
X5402Y-1217D01*
X5388Y-1222D01*
X5345D01*
X5378D02*
X5412Y-1274D01*
X5463Y-1174D02*
X5453Y-1179D01*
X5444Y-1189D01*
X5439Y-1198D01*
X5434Y-1212D01*
Y-1236D01*
X5439Y-1251D01*
X5444Y-1260D01*
X5453Y-1270D01*
X5463Y-1274D01*
X5482D01*
X5491Y-1270D01*
X5501Y-1260D01*
X5505Y-1251D01*
X5510Y-1236D01*
Y-1212D01*
X5505Y-1198D01*
X5501Y-1189D01*
X5491Y-1179D01*
X5482Y-1174D01*
X5463D01*
X5534D02*
Y-1274D01*
Y-1174D02*
X5572Y-1274D01*
X5610Y-1174D02*
X5572Y-1274D01*
X5610Y-1174D02*
Y-1274D01*
X5717Y-1227D02*
X5760D01*
X5774Y-1222D01*
X5779Y-1217D01*
X5784Y-1208D01*
Y-1193D01*
X5779Y-1184D01*
X5774Y-1179D01*
X5760Y-1174D01*
X5717D01*
Y-1274D01*
X5882D02*
X5844Y-1174D01*
X5806Y-1274D01*
X5820Y-1241D02*
X5868D01*
X5905Y-1174D02*
Y-1274D01*
Y-1174D02*
X5939D01*
X5953Y-1179D01*
X5963Y-1189D01*
X5967Y-1198D01*
X5972Y-1212D01*
Y-1236D01*
X5967Y-1251D01*
X5963Y-1260D01*
X5953Y-1270D01*
X5939Y-1274D01*
X5905D01*
X6061Y-1189D02*
X6052Y-1179D01*
X6037Y-1174D01*
X6018D01*
X6004Y-1179D01*
X5994Y-1189D01*
Y-1198D01*
X5999Y-1208D01*
X6004Y-1212D01*
X6013Y-1217D01*
X6042Y-1227D01*
X6052Y-1232D01*
X6056Y-1236D01*
X6061Y-1246D01*
Y-1260D01*
X6052Y-1270D01*
X6037Y-1274D01*
X6018D01*
X6004Y-1270D01*
X5994Y-1260D01*
X3616Y-967D02*
X3611Y-957D01*
X3597Y-952D01*
X3588D01*
X3573Y-957D01*
X3564Y-971D01*
X3559Y-995D01*
Y-1019D01*
X3564Y-1038D01*
X3573Y-1048D01*
X3588Y-1052D01*
X3592D01*
X3607Y-1048D01*
X3616Y-1038D01*
X3621Y-1024D01*
Y-1019D01*
X3616Y-1005D01*
X3607Y-995D01*
X3592Y-990D01*
X3588D01*
X3573Y-995D01*
X3564Y-1005D01*
X3559Y-1019D01*
X3643Y-933D02*
X3652Y-943D01*
X3662Y-957D01*
X3671Y-976D01*
X3676Y-1000D01*
Y-1019D01*
X3671Y-1043D01*
X3662Y-1062D01*
X3652Y-1076D01*
X3643Y-1086D01*
X3652Y-943D02*
X3662Y-962D01*
X3667Y-976D01*
X3671Y-1000D01*
Y-1019D01*
X3667Y-1043D01*
X3662Y-1057D01*
X3652Y-1076D01*
X3779Y-952D02*
X3803Y-1052D01*
X3827Y-952D02*
X3803Y-1052D01*
X3827Y-952D02*
X3850Y-1052D01*
X3874Y-952D02*
X3850Y-1052D01*
X3894Y-952D02*
Y-1052D01*
X3961Y-952D02*
Y-1052D01*
X3894Y-1000D02*
X3961D01*
X3988Y-952D02*
Y-1052D01*
X4043Y-952D02*
Y-1052D01*
X4009Y-952D02*
X4076D01*
X4150D02*
X4088D01*
Y-1052D01*
X4150D01*
X4088Y-1000D02*
X4126D01*
X4312Y-967D02*
X4302Y-957D01*
X4288Y-952D01*
X4269D01*
X4255Y-957D01*
X4245Y-967D01*
Y-976D01*
X4250Y-986D01*
X4255Y-990D01*
X4264Y-995D01*
X4293Y-1005D01*
X4302Y-1010D01*
X4307Y-1014D01*
X4312Y-1024D01*
Y-1038D01*
X4302Y-1048D01*
X4288Y-1052D01*
X4269D01*
X4255Y-1048D01*
X4245Y-1038D01*
X4334Y-952D02*
Y-1052D01*
X4355Y-952D02*
Y-1052D01*
X4412D01*
X4423Y-952D02*
Y-1052D01*
X4490Y-952D02*
X4423Y-1019D01*
X4447Y-995D02*
X4490Y-1052D01*
X4579Y-967D02*
X4569Y-957D01*
X4555Y-952D01*
X4536D01*
X4522Y-957D01*
X4512Y-967D01*
Y-976D01*
X4517Y-986D01*
X4522Y-990D01*
X4531Y-995D01*
X4560Y-1005D01*
X4569Y-1010D01*
X4574Y-1014D01*
X4579Y-1024D01*
Y-1038D01*
X4569Y-1048D01*
X4555Y-1052D01*
X4536D01*
X4522Y-1048D01*
X4512Y-1038D01*
X4673Y-976D02*
X4668Y-967D01*
X4658Y-957D01*
X4649Y-952D01*
X4630D01*
X4620Y-957D01*
X4611Y-967D01*
X4606Y-976D01*
X4601Y-990D01*
Y-1014D01*
X4606Y-1029D01*
X4611Y-1038D01*
X4620Y-1048D01*
X4630Y-1052D01*
X4649D01*
X4658Y-1048D01*
X4668Y-1038D01*
X4673Y-1029D01*
X4701Y-952D02*
Y-1052D01*
Y-952D02*
X4744D01*
X4758Y-957D01*
X4763Y-962D01*
X4767Y-971D01*
Y-981D01*
X4763Y-990D01*
X4758Y-995D01*
X4744Y-1000D01*
X4701D01*
X4734D02*
X4767Y-1052D01*
X4852Y-952D02*
X4790D01*
Y-1052D01*
X4852D01*
X4790Y-1000D02*
X4828D01*
X4930Y-952D02*
X4868D01*
Y-1052D01*
X4930D01*
X4868Y-1000D02*
X4906D01*
X4947Y-952D02*
Y-1052D01*
Y-952D02*
X5013Y-1052D01*
Y-952D02*
Y-1052D01*
X5120Y-952D02*
Y-1052D01*
Y-952D02*
X5162D01*
X5177Y-957D01*
X5182Y-962D01*
X5186Y-971D01*
Y-981D01*
X5182Y-990D01*
X5177Y-995D01*
X5162Y-1000D01*
X5120D02*
X5162D01*
X5177Y-1005D01*
X5182Y-1010D01*
X5186Y-1019D01*
Y-1033D01*
X5182Y-1043D01*
X5177Y-1048D01*
X5162Y-1052D01*
X5120D01*
X5237Y-952D02*
X5228Y-957D01*
X5218Y-967D01*
X5213Y-976D01*
X5209Y-990D01*
Y-1014D01*
X5213Y-1029D01*
X5218Y-1038D01*
X5228Y-1048D01*
X5237Y-1052D01*
X5256D01*
X5266Y-1048D01*
X5275Y-1038D01*
X5280Y-1029D01*
X5285Y-1014D01*
Y-990D01*
X5280Y-976D01*
X5275Y-967D01*
X5266Y-957D01*
X5256Y-952D01*
X5237D01*
X5341D02*
Y-1052D01*
X5308Y-952D02*
X5375D01*
X5387D02*
Y-1052D01*
X5453Y-952D02*
Y-1052D01*
X5387Y-1000D02*
X5453D01*
X5626Y-967D02*
X5617Y-957D01*
X5602Y-952D01*
X5583D01*
X5569Y-957D01*
X5560Y-967D01*
Y-976D01*
X5564Y-986D01*
X5569Y-990D01*
X5579Y-995D01*
X5607Y-1005D01*
X5617Y-1010D01*
X5621Y-1014D01*
X5626Y-1024D01*
Y-1038D01*
X5617Y-1048D01*
X5602Y-1052D01*
X5583D01*
X5569Y-1048D01*
X5560Y-1038D01*
X5649Y-952D02*
Y-1052D01*
X5669Y-952D02*
Y-1052D01*
Y-952D02*
X5703D01*
X5717Y-957D01*
X5727Y-967D01*
X5731Y-976D01*
X5736Y-990D01*
Y-1014D01*
X5731Y-1029D01*
X5727Y-1038D01*
X5717Y-1048D01*
X5703Y-1052D01*
X5669D01*
X5820Y-952D02*
X5759D01*
Y-1052D01*
X5820D01*
X5759Y-1000D02*
X5797D01*
X5904Y-967D02*
X5894Y-957D01*
X5880Y-952D01*
X5861D01*
X5847Y-957D01*
X5837Y-967D01*
Y-976D01*
X5842Y-986D01*
X5847Y-990D01*
X5856Y-995D01*
X5885Y-1005D01*
X5894Y-1010D01*
X5899Y-1014D01*
X5904Y-1024D01*
Y-1038D01*
X5894Y-1048D01*
X5880Y-1052D01*
X5861D01*
X5847Y-1048D01*
X5837Y-1038D01*
X3621Y-731D02*
X3574D01*
X3569Y-774D01*
X3574Y-769D01*
X3588Y-765D01*
X3602D01*
X3616Y-769D01*
X3626Y-779D01*
X3631Y-793D01*
Y-803D01*
X3626Y-817D01*
X3616Y-827D01*
X3602Y-831D01*
X3588D01*
X3574Y-827D01*
X3569Y-822D01*
X3564Y-812D01*
X3653Y-712D02*
X3663Y-722D01*
X3672Y-736D01*
X3682Y-755D01*
X3686Y-779D01*
Y-798D01*
X3682Y-822D01*
X3672Y-841D01*
X3663Y-855D01*
X3653Y-865D01*
X3663Y-722D02*
X3672Y-741D01*
X3677Y-755D01*
X3682Y-779D01*
Y-798D01*
X3677Y-822D01*
X3672Y-836D01*
X3663Y-855D01*
X3837Y-731D02*
X3789Y-798D01*
X3861D01*
X3837Y-731D02*
Y-831D01*
X3957Y-731D02*
Y-803D01*
X3962Y-817D01*
X3971Y-827D01*
X3985Y-831D01*
X3995D01*
X4009Y-827D01*
X4019Y-817D01*
X4023Y-803D01*
Y-731D01*
X4051Y-784D02*
X4094D01*
X4108Y-779D01*
X4113Y-774D01*
X4118Y-765D01*
Y-750D01*
X4113Y-741D01*
X4108Y-736D01*
X4094Y-731D01*
X4051D01*
Y-831D01*
X4219Y-731D02*
X4242Y-831D01*
X4266Y-731D02*
X4242Y-831D01*
X4266Y-731D02*
X4290Y-831D01*
X4314Y-731D02*
X4290Y-831D01*
X4396Y-731D02*
X4334D01*
Y-831D01*
X4396D01*
X4334Y-779D02*
X4372D01*
X4412Y-731D02*
Y-831D01*
Y-731D02*
X4455D01*
X4470Y-736D01*
X4474Y-741D01*
X4479Y-750D01*
Y-760D01*
X4474Y-769D01*
X4470Y-774D01*
X4455Y-779D01*
X4412D02*
X4455D01*
X4470Y-784D01*
X4474Y-789D01*
X4479Y-798D01*
Y-812D01*
X4474Y-822D01*
X4470Y-827D01*
X4455Y-831D01*
X4412D01*
X4580Y-731D02*
Y-831D01*
Y-731D02*
X4623D01*
X4637Y-736D01*
X4642Y-741D01*
X4647Y-750D01*
Y-760D01*
X4642Y-769D01*
X4637Y-774D01*
X4623Y-779D01*
X4580D01*
X4613D02*
X4647Y-831D01*
X4698Y-731D02*
X4688Y-736D01*
X4679Y-746D01*
X4674Y-755D01*
X4669Y-769D01*
Y-793D01*
X4674Y-808D01*
X4679Y-817D01*
X4688Y-827D01*
X4698Y-831D01*
X4717D01*
X4726Y-827D01*
X4736Y-817D01*
X4740Y-808D01*
X4745Y-793D01*
Y-769D01*
X4740Y-755D01*
X4736Y-746D01*
X4726Y-736D01*
X4717Y-731D01*
X4698D01*
X4769D02*
Y-803D01*
X4773Y-817D01*
X4783Y-827D01*
X4797Y-831D01*
X4807D01*
X4821Y-827D01*
X4830Y-817D01*
X4835Y-803D01*
Y-731D01*
X4896D02*
Y-831D01*
X4863Y-731D02*
X4929D01*
X5003D02*
X4941D01*
Y-831D01*
X5003D01*
X4941Y-779D02*
X4979D01*
X5020Y-731D02*
Y-831D01*
Y-731D02*
X5053D01*
X5067Y-736D01*
X5077Y-746D01*
X5082Y-755D01*
X5087Y-769D01*
Y-793D01*
X5082Y-808D01*
X5077Y-817D01*
X5067Y-827D01*
X5053Y-831D01*
X5020D01*
X5187Y-784D02*
X5230D01*
X5245Y-779D01*
X5249Y-774D01*
X5254Y-765D01*
Y-750D01*
X5249Y-741D01*
X5245Y-736D01*
X5230Y-731D01*
X5187D01*
Y-831D01*
X5353D02*
X5315Y-731D01*
X5276Y-831D01*
X5291Y-798D02*
X5338D01*
X5376Y-731D02*
Y-831D01*
Y-731D02*
X5443Y-831D01*
Y-731D02*
Y-831D01*
X5532Y-731D02*
X5470D01*
Y-831D01*
X5532D01*
X5470Y-779D02*
X5508D01*
X5549Y-731D02*
Y-831D01*
X5606D01*
X3612Y-499D02*
X3564Y-566D01*
X3635D01*
X3612Y-499D02*
Y-599D01*
X3653Y-480D02*
X3663Y-490D01*
X3672Y-504D01*
X3682Y-523D01*
X3686Y-547D01*
Y-566D01*
X3682Y-590D01*
X3672Y-609D01*
X3663Y-623D01*
X3653Y-633D01*
X3663Y-490D02*
X3672Y-509D01*
X3677Y-523D01*
X3682Y-547D01*
Y-566D01*
X3677Y-590D01*
X3672Y-604D01*
X3663Y-623D01*
X3789Y-499D02*
Y-599D01*
X3856Y-499D02*
Y-599D01*
X3789Y-547D02*
X3856D01*
X3960Y-599D02*
X3922Y-499D01*
X3883Y-599D01*
X3898Y-566D02*
X3945D01*
X4050Y-514D02*
X4040Y-504D01*
X4026Y-499D01*
X4007D01*
X3992Y-504D01*
X3983Y-514D01*
Y-523D01*
X3988Y-533D01*
X3992Y-537D01*
X4002Y-542D01*
X4031Y-552D01*
X4040Y-557D01*
X4045Y-561D01*
X4050Y-571D01*
Y-585D01*
X4040Y-595D01*
X4026Y-599D01*
X4007D01*
X3992Y-595D01*
X3983Y-585D01*
X4072Y-499D02*
Y-599D01*
X4129D01*
X4285Y-514D02*
X4276Y-504D01*
X4261Y-499D01*
X4242D01*
X4228Y-504D01*
X4219Y-514D01*
Y-523D01*
X4223Y-533D01*
X4228Y-537D01*
X4238Y-542D01*
X4266Y-552D01*
X4276Y-557D01*
X4281Y-561D01*
X4285Y-571D01*
Y-585D01*
X4276Y-595D01*
X4261Y-599D01*
X4242D01*
X4228Y-595D01*
X4219Y-585D01*
X4308Y-499D02*
Y-599D01*
Y-499D02*
X4346Y-599D01*
X4384Y-499D02*
X4346Y-599D01*
X4384Y-499D02*
Y-599D01*
X4441Y-499D02*
X4431Y-504D01*
X4422Y-514D01*
X4417Y-523D01*
X4412Y-537D01*
Y-561D01*
X4417Y-576D01*
X4422Y-585D01*
X4431Y-595D01*
X4441Y-599D01*
X4460D01*
X4470Y-595D01*
X4479Y-585D01*
X4484Y-576D01*
X4489Y-561D01*
Y-537D01*
X4484Y-523D01*
X4479Y-514D01*
X4470Y-504D01*
X4460Y-499D01*
X4441D01*
X4512D02*
Y-599D01*
Y-499D02*
X4555D01*
X4569Y-504D01*
X4574Y-509D01*
X4579Y-518D01*
Y-528D01*
X4574Y-537D01*
X4569Y-542D01*
X4555Y-547D01*
X4512D02*
X4555D01*
X4569Y-552D01*
X4574Y-557D01*
X4579Y-566D01*
Y-580D01*
X4574Y-590D01*
X4569Y-595D01*
X4555Y-599D01*
X4512D01*
X4672Y-523D02*
X4668Y-514D01*
X4658Y-504D01*
X4649Y-499D01*
X4629D01*
X4620Y-504D01*
X4610Y-514D01*
X4606Y-523D01*
X4601Y-537D01*
Y-561D01*
X4606Y-576D01*
X4610Y-585D01*
X4620Y-595D01*
X4629Y-599D01*
X4649D01*
X4658Y-595D01*
X4668Y-585D01*
X4672Y-576D01*
X3574Y-257D02*
X3626D01*
X3597Y-295D01*
X3612D01*
X3621Y-300D01*
X3626Y-305D01*
X3631Y-319D01*
Y-329D01*
X3626Y-343D01*
X3616Y-353D01*
X3602Y-357D01*
X3588D01*
X3574Y-353D01*
X3569Y-348D01*
X3564Y-338D01*
X3653Y-238D02*
X3663Y-248D01*
X3672Y-262D01*
X3682Y-281D01*
X3686Y-305D01*
Y-324D01*
X3682Y-348D01*
X3672Y-367D01*
X3663Y-381D01*
X3653Y-391D01*
X3663Y-248D02*
X3672Y-267D01*
X3677Y-281D01*
X3682Y-305D01*
Y-324D01*
X3677Y-348D01*
X3672Y-362D01*
X3663Y-381D01*
X3789Y-276D02*
X3799Y-272D01*
X3813Y-257D01*
Y-357D01*
X3970Y-257D02*
X3960Y-262D01*
X3951Y-272D01*
X3946Y-281D01*
X3941Y-295D01*
Y-319D01*
X3946Y-334D01*
X3951Y-343D01*
X3960Y-353D01*
X3970Y-357D01*
X3989D01*
X3998Y-353D01*
X4008Y-343D01*
X4012Y-334D01*
X4017Y-319D01*
Y-295D01*
X4012Y-281D01*
X4008Y-272D01*
X3998Y-262D01*
X3989Y-257D01*
X3970D01*
X4041D02*
Y-329D01*
X4045Y-343D01*
X4055Y-353D01*
X4069Y-357D01*
X4079D01*
X4093Y-353D01*
X4102Y-343D01*
X4107Y-329D01*
Y-257D01*
X4135D02*
Y-357D01*
Y-257D02*
X4201Y-357D01*
Y-257D02*
Y-357D01*
X4301Y-281D02*
X4296Y-272D01*
X4286Y-262D01*
X4277Y-257D01*
X4258D01*
X4248Y-262D01*
X4239Y-272D01*
X4234Y-281D01*
X4229Y-295D01*
Y-319D01*
X4234Y-334D01*
X4239Y-343D01*
X4248Y-353D01*
X4258Y-357D01*
X4277D01*
X4286Y-353D01*
X4296Y-343D01*
X4301Y-334D01*
X4390Y-257D02*
X4329D01*
Y-357D01*
X4390D01*
X4329Y-305D02*
X4367D01*
X4557Y-281D02*
X4552Y-272D01*
X4543Y-262D01*
X4533Y-257D01*
X4514D01*
X4505Y-262D01*
X4495Y-272D01*
X4490Y-281D01*
X4486Y-295D01*
Y-319D01*
X4490Y-334D01*
X4495Y-343D01*
X4505Y-353D01*
X4514Y-357D01*
X4533D01*
X4543Y-353D01*
X4552Y-343D01*
X4557Y-334D01*
X4614Y-257D02*
X4604Y-262D01*
X4595Y-272D01*
X4590Y-281D01*
X4585Y-295D01*
Y-319D01*
X4590Y-334D01*
X4595Y-343D01*
X4604Y-353D01*
X4614Y-357D01*
X4633D01*
X4642Y-353D01*
X4652Y-343D01*
X4657Y-334D01*
X4661Y-319D01*
Y-295D01*
X4657Y-281D01*
X4652Y-272D01*
X4642Y-262D01*
X4633Y-257D01*
X4614D01*
X4685Y-310D02*
X4728D01*
X4742Y-305D01*
X4747Y-300D01*
X4751Y-291D01*
Y-276D01*
X4747Y-267D01*
X4742Y-262D01*
X4728Y-257D01*
X4685D01*
Y-357D01*
X4774Y-310D02*
X4817D01*
X4831Y-305D01*
X4836Y-300D01*
X4840Y-291D01*
Y-276D01*
X4836Y-267D01*
X4831Y-262D01*
X4817Y-257D01*
X4774D01*
Y-357D01*
X4925Y-257D02*
X4863D01*
Y-357D01*
X4925D01*
X4863Y-305D02*
X4901D01*
X4941Y-257D02*
Y-357D01*
Y-257D02*
X4984D01*
X4998Y-262D01*
X5003Y-267D01*
X5008Y-276D01*
Y-286D01*
X5003Y-295D01*
X4998Y-300D01*
X4984Y-305D01*
X4941D01*
X4975D02*
X5008Y-357D01*
X3564Y-61D02*
Y-56D01*
X3569Y-47D01*
X3573Y-42D01*
X3583Y-37D01*
X3602D01*
X3611Y-42D01*
X3616Y-47D01*
X3621Y-56D01*
Y-66D01*
X3616Y-75D01*
X3607Y-89D01*
X3559Y-137D01*
X3626D01*
X3648Y-18D02*
X3658Y-27D01*
X3667Y-42D01*
X3677Y-61D01*
X3681Y-85D01*
Y-104D01*
X3677Y-127D01*
X3667Y-147D01*
X3658Y-161D01*
X3648Y-170D01*
X3658Y-27D02*
X3667Y-47D01*
X3672Y-61D01*
X3677Y-85D01*
Y-104D01*
X3672Y-127D01*
X3667Y-142D01*
X3658Y-161D01*
X3813Y-37D02*
X3798Y-42D01*
X3789Y-56D01*
X3784Y-80D01*
Y-94D01*
X3789Y-118D01*
X3798Y-132D01*
X3813Y-137D01*
X3822D01*
X3837Y-132D01*
X3846Y-118D01*
X3851Y-94D01*
Y-80D01*
X3846Y-56D01*
X3837Y-42D01*
X3822Y-37D01*
X3813D01*
X3878Y-127D02*
X3873Y-132D01*
X3878Y-137D01*
X3883Y-132D01*
X3878Y-127D01*
X3933Y-37D02*
X3919Y-42D01*
X3909Y-56D01*
X3905Y-80D01*
Y-94D01*
X3909Y-118D01*
X3919Y-132D01*
X3933Y-137D01*
X3943D01*
X3957Y-132D01*
X3967Y-118D01*
X3971Y-94D01*
Y-80D01*
X3967Y-56D01*
X3957Y-42D01*
X3943Y-37D01*
X3933D01*
X4003D02*
X4056D01*
X4027Y-75D01*
X4041D01*
X4051Y-80D01*
X4056Y-85D01*
X4060Y-99D01*
Y-108D01*
X4056Y-123D01*
X4046Y-132D01*
X4032Y-137D01*
X4017D01*
X4003Y-132D01*
X3998Y-127D01*
X3994Y-118D01*
X4083Y-56D02*
X4092Y-51D01*
X4107Y-37D01*
Y-137D01*
X4161Y-37D02*
X4156Y-42D01*
Y-70D01*
X4161Y-42D02*
X4156Y-70D01*
X4161Y-37D02*
X4166Y-42D01*
X4156Y-70D01*
X4204Y-37D02*
X4199Y-42D01*
Y-70D01*
X4204Y-42D02*
X4199Y-70D01*
X4204Y-37D02*
X4208Y-42D01*
X4199Y-70D01*
X4341Y-37D02*
Y-137D01*
X4308Y-37D02*
X4375D01*
X4386D02*
Y-137D01*
X4453Y-37D02*
Y-137D01*
X4386Y-85D02*
X4453D01*
X4481Y-37D02*
Y-137D01*
X4573Y-61D02*
X4568Y-51D01*
X4559Y-42D01*
X4549Y-37D01*
X4530D01*
X4521Y-42D01*
X4511Y-51D01*
X4506Y-61D01*
X4502Y-75D01*
Y-99D01*
X4506Y-113D01*
X4511Y-123D01*
X4521Y-132D01*
X4530Y-137D01*
X4549D01*
X4559Y-132D01*
X4568Y-123D01*
X4573Y-113D01*
X4601Y-37D02*
Y-137D01*
X4668Y-37D02*
X4601Y-104D01*
X4625Y-80D02*
X4668Y-137D01*
X4826Y-51D02*
X4821Y-42D01*
X4807Y-37D01*
X4797D01*
X4783Y-42D01*
X4774Y-56D01*
X4769Y-80D01*
Y-104D01*
X4774Y-123D01*
X4783Y-132D01*
X4797Y-137D01*
X4802D01*
X4816Y-132D01*
X4826Y-123D01*
X4831Y-108D01*
Y-104D01*
X4826Y-89D01*
X4816Y-80D01*
X4802Y-75D01*
X4797D01*
X4783Y-80D01*
X4774Y-89D01*
X4769Y-104D01*
X4931Y-37D02*
Y-137D01*
X4988D01*
X5075D02*
X5037Y-37D01*
X4999Y-137D01*
X5013Y-104D02*
X5061D01*
X5099Y-37D02*
X5137Y-85D01*
Y-137D01*
X5175Y-37D02*
X5137Y-85D01*
X5250Y-37D02*
X5188D01*
Y-137D01*
X5250D01*
X5188Y-85D02*
X5226D01*
X5266Y-37D02*
Y-137D01*
Y-37D02*
X5309D01*
X5323Y-42D01*
X5328Y-47D01*
X5333Y-56D01*
Y-66D01*
X5328Y-75D01*
X5323Y-80D01*
X5309Y-85D01*
X5266D01*
X5300D02*
X5333Y-137D01*
X5434Y-37D02*
Y-137D01*
Y-37D02*
X5477D01*
X5491Y-42D01*
X5496Y-47D01*
X5500Y-56D01*
Y-66D01*
X5496Y-75D01*
X5491Y-80D01*
X5477Y-85D01*
X5434D02*
X5477D01*
X5491Y-89D01*
X5496Y-94D01*
X5500Y-104D01*
Y-118D01*
X5496Y-127D01*
X5491Y-132D01*
X5477Y-137D01*
X5434D01*
X5551Y-37D02*
X5542Y-42D01*
X5532Y-51D01*
X5528Y-61D01*
X5523Y-75D01*
Y-99D01*
X5528Y-113D01*
X5532Y-123D01*
X5542Y-132D01*
X5551Y-137D01*
X5570D01*
X5580Y-132D01*
X5590Y-123D01*
X5594Y-113D01*
X5599Y-99D01*
Y-75D01*
X5594Y-61D01*
X5590Y-51D01*
X5580Y-42D01*
X5570Y-37D01*
X5551D01*
X5699Y-137D02*
X5660Y-37D01*
X5622Y-137D01*
X5637Y-104D02*
X5684D01*
X5722Y-37D02*
Y-137D01*
Y-37D02*
X5765D01*
X5779Y-42D01*
X5784Y-47D01*
X5789Y-56D01*
Y-66D01*
X5784Y-75D01*
X5779Y-80D01*
X5765Y-85D01*
X5722D01*
X5755D02*
X5789Y-137D01*
X5811Y-37D02*
Y-137D01*
Y-37D02*
X5844D01*
X5859Y-42D01*
X5868Y-51D01*
X5873Y-61D01*
X5878Y-75D01*
Y-99D01*
X5873Y-113D01*
X5868Y-123D01*
X5859Y-132D01*
X5844Y-137D01*
X5811D01*
X3572Y163D02*
X3582Y168D01*
X3596Y182D01*
Y82D01*
X3645Y201D02*
X3655Y191D01*
X3664Y177D01*
X3674Y158D01*
X3679Y134D01*
Y115D01*
X3674Y92D01*
X3664Y72D01*
X3655Y58D01*
X3645Y49D01*
X3655Y191D02*
X3664Y172D01*
X3669Y158D01*
X3674Y134D01*
Y115D01*
X3669Y92D01*
X3664Y77D01*
X3655Y58D01*
X3781Y182D02*
Y82D01*
Y182D02*
X3820Y82D01*
X3858Y182D02*
X3820Y82D01*
X3858Y182D02*
Y82D01*
X3962D02*
X3924Y182D01*
X3886Y82D01*
X3901Y115D02*
X3948D01*
X4019Y182D02*
Y82D01*
X3986Y182D02*
X4052D01*
X4126D02*
X4064D01*
Y82D01*
X4126D01*
X4064Y134D02*
X4102D01*
X4143Y182D02*
Y82D01*
Y182D02*
X4186D01*
X4200Y177D01*
X4205Y172D01*
X4209Y163D01*
Y153D01*
X4205Y144D01*
X4200Y139D01*
X4186Y134D01*
X4143D01*
X4176D02*
X4209Y82D01*
X4232Y182D02*
Y82D01*
X4329D02*
X4291Y182D01*
X4253Y82D01*
X4267Y115D02*
X4315D01*
X4352Y182D02*
Y82D01*
X4409D01*
X4499Y182D02*
Y82D01*
X4587Y168D02*
X4577Y177D01*
X4563Y182D01*
X4544D01*
X4529Y177D01*
X4520Y168D01*
Y158D01*
X4525Y149D01*
X4529Y144D01*
X4539Y139D01*
X4568Y130D01*
X4577Y125D01*
X4582Y120D01*
X4587Y111D01*
Y96D01*
X4577Y87D01*
X4563Y82D01*
X4544D01*
X4529Y87D01*
X4520Y96D01*
X4687Y182D02*
Y82D01*
Y182D02*
X4749D01*
X4687Y134D02*
X4726D01*
X4761Y182D02*
Y82D01*
Y182D02*
X4804D01*
X4818Y177D01*
X4823Y172D01*
X4827Y163D01*
Y153D01*
X4823Y144D01*
X4818Y139D01*
X4804Y134D01*
X4761D01*
X4794D02*
X4827Y82D01*
X4897Y182D02*
X4850Y115D01*
X4921D01*
X4897Y182D02*
Y82D01*
X3565Y426D02*
Y326D01*
Y426D02*
X3632Y326D01*
Y426D02*
Y326D01*
X3688Y426D02*
X3678Y421D01*
X3669Y412D01*
X3664Y402D01*
X3659Y388D01*
Y364D01*
X3664Y350D01*
X3669Y340D01*
X3678Y331D01*
X3688Y326D01*
X3707D01*
X3716Y331D01*
X3726Y340D01*
X3731Y350D01*
X3735Y364D01*
Y388D01*
X3731Y402D01*
X3726Y412D01*
X3716Y421D01*
X3707Y426D01*
X3688D01*
X3792D02*
Y326D01*
X3759Y426D02*
X3825D01*
X3899D02*
X3837D01*
Y326D01*
X3899D01*
X3837Y378D02*
X3875D01*
X3983Y412D02*
X3973Y421D01*
X3959Y426D01*
X3940D01*
X3925Y421D01*
X3916Y412D01*
Y402D01*
X3921Y393D01*
X3925Y388D01*
X3935Y383D01*
X3963Y374D01*
X3973Y369D01*
X3978Y364D01*
X3983Y355D01*
Y340D01*
X3973Y331D01*
X3959Y326D01*
X3940D01*
X3925Y331D01*
X3916Y340D01*
D52*
X3572Y265D02*
X4082D01*
D53*
X-351Y137D02*
D03*
X-450Y417D02*
D03*
D54*
X-251Y137D02*
D03*
X-151D02*
D03*
X-51D02*
D03*
X49D02*
D03*
X149D02*
D03*
X150Y417D02*
D03*
X-50D02*
D03*
X50D02*
D03*
X-250D02*
D03*
X-150D02*
D03*
X350D02*
D03*
X450D02*
D03*
X-350D02*
D03*
X250D02*
D03*
D55*
X738Y2371D02*
D03*
Y2171D02*
D03*
X538D02*
D03*
Y2371D02*
D03*
X638Y2271D02*
D03*
X-695Y1487D02*
D03*
X-595Y1387D02*
D03*
Y1587D02*
D03*
X-795D02*
D03*
Y1387D02*
D03*
D56*
X249Y521D02*
D03*
X40Y1461D02*
D03*
X395Y2006D02*
D03*
Y1906D02*
D03*
X-275Y1905D02*
D03*
X65Y1370D02*
D03*
X790Y1025D02*
D03*
D57*
X-19Y1551D02*
D03*
X13Y1512D02*
D03*
X83Y273D02*
D03*
X-316Y936D02*
D03*
X198Y330D02*
D03*
X-356Y333D02*
D03*
X201Y615D02*
D03*
X160D02*
D03*
X212Y647D02*
D03*
X-2Y330D02*
D03*
X98D02*
D03*
X630Y571D02*
D03*
X902Y1206D02*
D03*
X698Y571D02*
D03*
X-633Y1934D02*
D03*
X-859Y1879D02*
D03*
X-434Y1917D02*
D03*
X40Y2020D02*
D03*
X188Y2429D02*
D03*
X59Y2439D02*
D03*
X94Y2102D02*
D03*
X193Y2142D02*
D03*
X185Y2232D02*
D03*
X-174Y1551D02*
D03*
X-146Y1491D02*
D03*
X0Y1745D02*
D03*
X-173Y1844D02*
D03*
X-417Y1278D02*
D03*
X-850Y1256D02*
D03*
X87Y1322D02*
D03*
X222Y1632D02*
D03*
X356Y1562D02*
D03*
X-388Y1204D02*
D03*
X-493Y624D02*
D03*
X-665Y713D02*
D03*
X-628Y783D02*
D03*
X-209Y755D02*
D03*
Y691D02*
D03*
X102Y1115D02*
D03*
X-166Y543D02*
D03*
X91Y584D02*
D03*
X-50Y1588D02*
D03*
X-178Y913D02*
D03*
X-137Y1751D02*
D03*
X54Y1776D02*
D03*
X-398Y2327D02*
D03*
X-740Y2413D02*
D03*
X-839Y2118D02*
D03*
X-787Y2354D02*
D03*
X-602Y2134D02*
D03*
X-839Y1976D02*
D03*
X-697Y2020D02*
D03*
X305Y1866D02*
D03*
X-87Y1965D02*
D03*
X-171Y1879D02*
D03*
X445Y1925D02*
D03*
X690Y1878D02*
D03*
X-336Y1235D02*
D03*
X-386Y1461D02*
D03*
X831Y1865D02*
D03*
X617Y1828D02*
D03*
X334Y1384D02*
D03*
X115Y1066D02*
D03*
X-10Y547D02*
D03*
X-11Y764D02*
D03*
X-171Y666D02*
D03*
X-152Y793D02*
D03*
X-383Y764D02*
D03*
X-320Y820D02*
D03*
X-216Y1071D02*
D03*
X-233Y1591D02*
D03*
X332Y1499D02*
D03*
X351Y1327D02*
D03*
X112Y1357D02*
D03*
X110Y1230D02*
D03*
X226Y1136D02*
D03*
X-63Y1212D02*
D03*
X-153Y1287D02*
D03*
Y1412D02*
D03*
X-110Y1345D02*
D03*
X-527Y817D02*
D03*
X-62Y942D02*
D03*
X-797Y1104D02*
D03*
X-746Y1077D02*
D03*
X414Y1087D02*
D03*
X442Y1257D02*
D03*
X800Y1473D02*
D03*
X683Y1487D02*
D03*
X814Y1938D02*
D03*
X-790Y889D02*
D03*
X-650D02*
D03*
X-269Y1488D02*
D03*
X-374Y878D02*
D03*
X528Y1819D02*
D03*
X-816Y1290D02*
D03*
X770Y1623D02*
D03*
X-213Y2382D02*
D03*
X31Y2331D02*
D03*
X41Y2063D02*
D03*
X-197Y1965D02*
D03*
X-138D02*
D03*
X494Y725D02*
D03*
X-168Y2331D02*
D03*
X-42Y2268D02*
D03*
X-389Y1979D02*
D03*
X-462D02*
D03*
X-280Y1780D02*
D03*
X-306Y1702D02*
D03*
X-180Y1925D02*
D03*
X-431Y1555D02*
D03*
X-705Y1661D02*
D03*
X-536Y1667D02*
D03*
X-659Y1998D02*
D03*
X-555Y1976D02*
D03*
X710Y976D02*
D03*
X645Y1066D02*
D03*
X616Y664D02*
D03*
X254Y862D02*
D03*
X238Y991D02*
D03*
X185Y861D02*
D03*
X623Y714D02*
D03*
X269Y569D02*
D03*
X-360Y591D02*
D03*
X-305D02*
D03*
X-794Y630D02*
D03*
X-792Y709D02*
D03*
X-745Y831D02*
D03*
X815Y1094D02*
D03*
X804Y1375D02*
D03*
X843Y1280D02*
D03*
X736Y542D02*
D03*
X825D02*
D03*
X181Y1066D02*
D03*
X97Y1149D02*
D03*
X225Y1169D02*
D03*
X-14Y1620D02*
D03*
X94Y1734D02*
D03*
X72Y1608D02*
D03*
Y1502D02*
D03*
X413Y1332D02*
D03*
X222Y1245D02*
D03*
X205Y1470D02*
D03*
X234Y1595D02*
D03*
X-345Y1063D02*
D03*
X-80Y1310D02*
D03*
X-177Y1016D02*
D03*
X-146Y1125D02*
D03*
X-177Y1069D02*
D03*
X-548Y1209D02*
D03*
Y1071D02*
D03*
X-486Y801D02*
D03*
X-385Y845D02*
D03*
X-636Y856D02*
D03*
X-64Y1388D02*
D03*
X-398Y1607D02*
D03*
X423Y1181D02*
D03*
Y1215D02*
D03*
X496Y1250D02*
D03*
X791Y1126D02*
D03*
X816Y1623D02*
D03*
X844Y1515D02*
D03*
X846Y1583D02*
D03*
X816Y1656D02*
D03*
X610Y1863D02*
D03*
X787Y1864D02*
D03*
X850Y1657D02*
D03*
X616Y2012D02*
D03*
X494Y2050D02*
D03*
X348Y1711D02*
D03*
X404Y2131D02*
D03*
X200Y1961D02*
D03*
X709Y1302D02*
D03*
X-4Y2123D02*
D03*
Y2195D02*
D03*
X-318Y2320D02*
D03*
X-349Y2192D02*
D03*
X-161Y2199D02*
D03*
X-37Y2331D02*
D03*
X-740Y2374D02*
D03*
X-750Y2258D02*
D03*
X-465Y2122D02*
D03*
X-466Y2155D02*
D03*
X-465Y2089D02*
D03*
X-920Y2244D02*
D03*
X-391Y2193D02*
D03*
X-693Y2427D02*
D03*
X-652Y1907D02*
D03*
X-366Y2026D02*
D03*
X445Y507D02*
D03*
X-603Y2288D02*
D03*
X540Y652D02*
D03*
X-692Y1156D02*
D03*
X594Y983D02*
D03*
X524Y549D02*
D03*
X486Y587D02*
D03*
X398Y556D02*
D03*
X345D02*
D03*
X392Y655D02*
D03*
X274Y278D02*
D03*
Y320D02*
D03*
X317Y321D02*
D03*
X359D02*
D03*
Y279D02*
D03*
X290Y692D02*
D03*
X384Y898D02*
D03*
X342D02*
D03*
X324Y848D02*
D03*
Y785D02*
D03*
X329Y682D02*
D03*
X304Y649D02*
D03*
X71Y2354D02*
D03*
X-369Y2243D02*
D03*
X845Y1444D02*
D03*
X642Y633D02*
D03*
X608Y612D02*
D03*
X478Y649D02*
D03*
X449Y702D02*
D03*
X448Y774D02*
D03*
X-310Y334D02*
D03*
X-402Y333D02*
D03*
X-449Y334D02*
D03*
X-425Y301D02*
D03*
X365Y1866D02*
D03*
X245D02*
D03*
X199Y1993D02*
D03*
X114Y2343D02*
D03*
X645Y1584D02*
D03*
X697D02*
D03*
X524Y1583D02*
D03*
X440Y1584D02*
D03*
D58*
X40Y1561D02*
D03*
Y1661D02*
D03*
X-374Y1911D02*
D03*
Y1811D02*
D03*
X-350Y1507D02*
D03*
Y1607D02*
D03*
X273Y1919D02*
D03*
Y1819D02*
D03*
D59*
X-608Y951D02*
D03*
X-462Y888D02*
D03*
D60*
X-608Y1038D02*
D03*
X-660D02*
D03*
X-634Y951D02*
D03*
X-660D02*
D03*
X-410Y888D02*
D03*
X-436D02*
D03*
X-410Y801D02*
D03*
X-462D02*
D03*
D61*
X855Y2001D02*
D03*
X675D02*
D03*
Y1801D02*
D03*
X855D02*
D03*
D62*
X782Y679D02*
D03*
D63*
X782Y855D02*
D03*
D64*
X593Y896D02*
D03*
X453D02*
D03*
D65*
X784Y1310D02*
D03*
Y1180D02*
D03*
X137Y1436D02*
D03*
Y1306D02*
D03*
X-750Y2308D02*
D03*
Y2178D02*
D03*
X404Y2178D02*
D03*
Y2308D02*
D03*
D66*
X-526Y2089D02*
D03*
Y2115D02*
D03*
Y2166D02*
D03*
Y2064D02*
D03*
X-219Y2320D02*
D03*
X-526Y2013D02*
D03*
Y2038D02*
D03*
Y2141D02*
D03*
Y2192D02*
D03*
Y2217D02*
D03*
Y2243D02*
D03*
Y2269D02*
D03*
Y2294D02*
D03*
Y2320D02*
D03*
Y2345D02*
D03*
X-219D02*
D03*
Y2294D02*
D03*
Y2269D02*
D03*
Y2243D02*
D03*
Y2217D02*
D03*
Y2192D02*
D03*
Y2166D02*
D03*
Y2141D02*
D03*
Y2115D02*
D03*
Y2089D02*
D03*
Y2064D02*
D03*
Y2038D02*
D03*
X-219Y2013D02*
D03*
X-278Y1323D02*
D03*
X-278Y1297D02*
D03*
Y1271D02*
D03*
Y1246D02*
D03*
Y1220D02*
D03*
Y1195D02*
D03*
Y1169D02*
D03*
Y1143D02*
D03*
Y1118D02*
D03*
Y1092D02*
D03*
Y1067D02*
D03*
Y1041D02*
D03*
Y990D02*
D03*
X29D02*
D03*
Y1016D02*
D03*
Y1041D02*
D03*
Y1067D02*
D03*
Y1092D02*
D03*
Y1118D02*
D03*
Y1143D02*
D03*
Y1195D02*
D03*
Y1297D02*
D03*
Y1323D02*
D03*
X-278Y1016D02*
D03*
X29Y1271D02*
D03*
Y1169D02*
D03*
Y1220D02*
D03*
Y1246D02*
D03*
X580Y1489D02*
D03*
Y1463D02*
D03*
Y1412D02*
D03*
Y1514D02*
D03*
X273Y1259D02*
D03*
X580Y1566D02*
D03*
Y1540D02*
D03*
Y1438D02*
D03*
Y1386D02*
D03*
Y1361D02*
D03*
Y1335D02*
D03*
Y1310D02*
D03*
Y1284D02*
D03*
Y1259D02*
D03*
Y1233D02*
D03*
X273D02*
D03*
Y1284D02*
D03*
Y1310D02*
D03*
Y1335D02*
D03*
Y1361D02*
D03*
Y1386D02*
D03*
Y1412D02*
D03*
Y1438D02*
D03*
Y1463D02*
D03*
Y1489D02*
D03*
Y1514D02*
D03*
Y1540D02*
D03*
X273Y1566D02*
D03*
D67*
X-374Y1711D02*
D03*
X-350Y1407D02*
D03*
X273Y1719D02*
D03*
M02*
