%FSLAX23Y23*%
%MOIN*%
G70*
G01*
G75*
G04 Layer_Color=2752767*
%ADD10R,0.050X0.020*%
%ADD11R,0.030X0.030*%
%ADD12R,0.030X0.030*%
%ADD13R,0.059X0.031*%
%ADD14R,0.040X0.055*%
%ADD15R,0.050X0.036*%
%ADD16R,0.036X0.036*%
%ADD17R,0.050X0.150*%
%ADD18R,0.030X0.020*%
%ADD19R,0.024X0.024*%
%ADD20O,0.080X0.024*%
%ADD21O,0.060X0.016*%
%ADD22R,0.024X0.090*%
%ADD23R,0.100X0.024*%
%ADD24R,0.024X0.070*%
%ADD25R,0.090X0.024*%
%ADD26R,0.025X0.055*%
%ADD27R,0.025X0.095*%
%ADD28O,0.060X0.016*%
%ADD29R,0.020X0.039*%
%ADD30R,0.039X0.039*%
%ADD31R,0.047X0.047*%
%ADD32C,0.050*%
%ADD33R,0.031X0.059*%
%ADD34R,0.055X0.040*%
%ADD35R,0.036X0.036*%
%ADD36R,0.036X0.050*%
%ADD37R,0.095X0.025*%
%ADD38R,0.055X0.025*%
%ADD39R,0.047X0.047*%
%ADD40O,0.016X0.060*%
%ADD41R,0.050X0.060*%
%ADD42C,0.008*%
%ADD43C,0.014*%
%ADD44C,0.012*%
%ADD45C,0.030*%
%ADD46C,0.010*%
%ADD47C,0.020*%
%ADD48C,0.006*%
%ADD49C,0.009*%
%ADD50C,0.005*%
%ADD51C,0.015*%
%ADD52C,0.025*%
%ADD53R,0.062X0.062*%
%ADD54C,0.062*%
%ADD55C,0.110*%
%ADD56C,0.045*%
%ADD57C,0.022*%
%ADD58C,0.060*%
%ADD59R,0.014X0.035*%
%ADD60R,0.014X0.035*%
%ADD61R,0.059X0.075*%
%ADD62R,0.250X0.150*%
%ADD63R,0.250X0.140*%
%ADD64R,0.080X0.060*%
%ADD65R,0.063X0.051*%
%ADD66O,0.060X0.014*%
%ADD67R,0.060X0.060*%
%ADD68C,0.010*%
%ADD69R,0.058X0.028*%
%ADD70R,0.038X0.038*%
%ADD71R,0.038X0.038*%
%ADD72R,0.067X0.039*%
%ADD73R,0.048X0.063*%
%ADD74R,0.058X0.044*%
%ADD75R,0.044X0.044*%
%ADD76R,0.058X0.158*%
%ADD77R,0.038X0.028*%
%ADD78R,0.032X0.032*%
%ADD79O,0.088X0.032*%
%ADD80O,0.064X0.020*%
%ADD81R,0.032X0.098*%
%ADD82R,0.108X0.032*%
%ADD83R,0.032X0.078*%
%ADD84R,0.098X0.032*%
%ADD85R,0.033X0.063*%
%ADD86R,0.033X0.103*%
%ADD87O,0.064X0.020*%
%ADD88R,0.028X0.047*%
%ADD89R,0.047X0.047*%
%ADD90R,0.055X0.055*%
%ADD91C,0.058*%
%ADD92R,0.039X0.067*%
%ADD93R,0.063X0.048*%
%ADD94R,0.044X0.044*%
%ADD95R,0.044X0.058*%
%ADD96R,0.103X0.033*%
%ADD97R,0.063X0.033*%
%ADD98R,0.055X0.055*%
%ADD99O,0.020X0.064*%
%ADD100R,0.058X0.068*%
%ADD101R,0.070X0.070*%
%ADD102C,0.070*%
%ADD103C,0.118*%
%ADD104C,0.053*%
%ADD105C,0.030*%
%ADD106C,0.068*%
%ADD107R,0.022X0.043*%
%ADD108R,0.022X0.043*%
%ADD109R,0.067X0.083*%
%ADD110R,0.258X0.158*%
%ADD111R,0.258X0.148*%
%ADD112R,0.088X0.068*%
%ADD113R,0.071X0.059*%
%ADD114O,0.068X0.022*%
%ADD115R,0.068X0.068*%
%ADD116C,0.010*%
%ADD117C,0.003*%
%ADD118C,0.002*%
%ADD119C,0.005*%
%ADD120C,0.010*%
%ADD121C,0.007*%
D42*
X-1115Y-1372D02*
Y-1412D01*
X-1117Y-1420D01*
X-1120Y-1422D01*
X-1125Y-1425D01*
X-1130D01*
X-1135Y-1422D01*
X-1137Y-1420D01*
X-1140Y-1412D01*
Y-1407D01*
X-1063Y-1384D02*
X-1065Y-1379D01*
X-1070Y-1374D01*
X-1076Y-1372D01*
X-1086D01*
X-1091Y-1374D01*
X-1096Y-1379D01*
X-1098Y-1384D01*
X-1101Y-1392D01*
Y-1405D01*
X-1098Y-1412D01*
X-1096Y-1417D01*
X-1091Y-1422D01*
X-1086Y-1425D01*
X-1076D01*
X-1070Y-1422D01*
X-1065Y-1417D01*
X-1063Y-1412D01*
X-1048Y-1372D02*
Y-1425D01*
Y-1372D02*
X-1028Y-1425D01*
X-1007Y-1372D02*
X-1028Y-1425D01*
X-1007Y-1372D02*
Y-1425D01*
X-992Y-1372D02*
Y-1425D01*
X-981Y-1372D02*
Y-1425D01*
X220Y-1184D02*
Y-1264D01*
Y-1184D02*
X254D01*
X266Y-1188D01*
X270Y-1192D01*
X273Y-1200D01*
Y-1207D01*
X270Y-1215D01*
X266Y-1219D01*
X254Y-1222D01*
X220D01*
X247D02*
X273Y-1264D01*
X341Y-1184D02*
X291D01*
Y-1264D01*
X341D01*
X291Y-1222D02*
X322D01*
X415Y-1264D02*
X385Y-1184D01*
X354Y-1264D01*
X365Y-1238D02*
X404D01*
X434Y-1184D02*
Y-1264D01*
Y-1184D02*
X460D01*
X472Y-1188D01*
X479Y-1196D01*
X483Y-1203D01*
X487Y-1215D01*
Y-1234D01*
X483Y-1245D01*
X479Y-1253D01*
X472Y-1261D01*
X460Y-1264D01*
X434D01*
X554Y-1184D02*
X505D01*
Y-1264D01*
X554D01*
X505Y-1222D02*
X535D01*
X568Y-1184D02*
Y-1264D01*
Y-1184D02*
X602D01*
X613Y-1188D01*
X617Y-1192D01*
X621Y-1200D01*
Y-1207D01*
X617Y-1215D01*
X613Y-1219D01*
X602Y-1222D01*
X568D01*
X594D02*
X621Y-1264D01*
D46*
X984Y-126D02*
Y417D01*
X-984Y-126D02*
Y435D01*
X135Y-116D02*
X984D01*
X-984D02*
X-167D01*
X924Y-96D02*
X984Y-116D01*
X924Y-136D02*
X984Y-116D01*
X-984D02*
X-924Y-136D01*
X-984Y-116D02*
X-924Y-96D01*
X1000Y2520D02*
X1108D01*
X369Y-0D02*
X1108D01*
X1098Y1395D02*
Y2520D01*
Y-0D02*
Y1093D01*
X1078Y2460D02*
X1098Y2520D01*
X1118Y2460D01*
X1098Y-0D02*
X1118Y60D01*
X1078D02*
X1098Y-0D01*
X354D02*
G03*
X433Y79I0J79D01*
G01*
X-433D02*
G03*
X-354Y-0I79J0D01*
G01*
X787Y433D02*
G03*
X433Y79I0J-354D01*
G01*
X-433D02*
G03*
X-787Y433I-354J0D01*
G01*
X-985Y2520D02*
X985D01*
X984Y432D02*
Y2520D01*
X787Y433D02*
X985Y433D01*
X-354Y0D02*
X354D01*
X-985Y433D02*
Y2520D01*
Y433D02*
X-787D01*
X2727Y-1468D02*
G03*
X2678Y-1419I-49J0D01*
G01*
X1577D02*
G03*
X1527Y-1469I0J-50D01*
G01*
X2677Y-1369D02*
G03*
X2727Y-1319I0J50D01*
G01*
X1527D02*
G03*
X1577Y-1369I50J0D01*
G01*
X-1523Y-644D02*
G03*
X-1623Y-744I0J-100D01*
G01*
Y-1843D02*
G03*
X-1524Y-1944I101J0D01*
G01*
X2677Y-1944D02*
G03*
X2777Y-1844I0J100D01*
G01*
Y-744D02*
G03*
X2677Y-644I-100J0D01*
G01*
X2727Y-743D02*
G03*
X2676Y-694I-49J0D01*
G01*
X2677Y-1644D02*
G03*
X2727Y-1594I0J50D01*
G01*
X2727Y-1743D02*
G03*
X2677Y-1694I-50J-1D01*
G01*
Y-1894D02*
G03*
X2727Y-1844I0J50D01*
G01*
X1427Y-1644D02*
G03*
X1477Y-1594I0J50D01*
G01*
X1527Y-1595D02*
G03*
X1577Y-1644I49J0D01*
G01*
X1477Y-1468D02*
G03*
X1428Y-1419I-49J0D01*
G01*
X-1573Y-1844D02*
G03*
X-1524Y-1894I50J0D01*
G01*
X1428Y-1369D02*
G03*
X1477Y-1319I-1J50D01*
G01*
X-1523Y-1694D02*
G03*
X-1573Y-1744I0J-50D01*
G01*
X1477Y-994D02*
G03*
X1427Y-944I-50J0D01*
G01*
Y-894D02*
G03*
X1477Y-844I0J50D01*
G01*
X1577Y-694D02*
G03*
X1527Y-744I0J-50D01*
G01*
X1477D02*
G03*
X1427Y-694I-50J0D01*
G01*
X-1523D02*
G03*
X-1573Y-744I0J-50D01*
G01*
Y-844D02*
G03*
X-1523Y-894I50J0D01*
G01*
Y-944D02*
G03*
X-1573Y-994I0J-50D01*
G01*
Y-1219D02*
G03*
X-1523Y-1269I50J0D01*
G01*
Y-1319D02*
G03*
X-1573Y-1369I0J-50D01*
G01*
Y-1594D02*
G03*
X-1524Y-1644I50J0D01*
G01*
X-623Y-944D02*
G03*
X-673Y-994I0J-50D01*
G01*
X-623Y-1419D02*
G03*
X-673Y-1469I0J-50D01*
G01*
X1125Y-1419D02*
G03*
X1077Y-1469I0J-48D01*
G01*
X1077Y-1593D02*
G03*
X1127Y-1644I51J0D01*
G01*
X978Y-1644D02*
G03*
X1027Y-1594I0J49D01*
G01*
X1027Y-1468D02*
G03*
X978Y-1419I-49J0D01*
G01*
X-772Y-1644D02*
G03*
X-723Y-1595I0J49D01*
G01*
X-673D02*
G03*
X-624Y-1644I49J0D01*
G01*
X-673Y-1320D02*
G03*
X-624Y-1369I49J0D01*
G01*
X-723Y-1368D02*
G03*
X-774Y-1319I-49J0D01*
G01*
X-771Y-1269D02*
G03*
X-723Y-1221I0J48D01*
G01*
Y-993D02*
G03*
X-772Y-944I-49J0D01*
G01*
X2127Y-1694D02*
G03*
X2077Y-1744I0J-50D01*
G01*
Y-1845D02*
G03*
X2127Y-1894I49J0D01*
G01*
X1978Y-1894D02*
G03*
X2027Y-1844I1J48D01*
G01*
X2027Y-1744D02*
G03*
X1977Y-1694I-50J0D01*
G01*
X252Y-1844D02*
G03*
X301Y-1894I50J0D01*
G01*
X302Y-1694D02*
G03*
X252Y-1744I0J-50D01*
G01*
X153Y-1894D02*
G03*
X202Y-1844I1J48D01*
G01*
X202Y-1744D02*
G03*
X152Y-1694I-50J0D01*
G01*
X2727Y-1594D02*
Y-1468D01*
X1527Y-1594D02*
Y-1469D01*
X2727Y-1319D02*
Y-744D01*
X1527Y-1319D02*
Y-744D01*
X-1623Y-1844D02*
Y-744D01*
X-1573Y-1844D02*
Y-1744D01*
X2727Y-1844D02*
Y-1744D01*
X1477Y-1594D02*
Y-1469D01*
X1077Y-1594D02*
Y-1469D01*
X-673Y-1594D02*
Y-1469D01*
X1027Y-1594D02*
Y-1469D01*
X-673Y-1319D02*
Y-994D01*
X1477Y-1319D02*
Y-994D01*
Y-844D02*
Y-744D01*
X-1573Y-844D02*
Y-744D01*
X-723Y-1219D02*
Y-994D01*
X-1573Y-1219D02*
Y-994D01*
X-723Y-1594D02*
Y-1369D01*
X-1573Y-1594D02*
Y-1369D01*
X2777Y-1844D02*
Y-744D01*
X2077Y-1844D02*
Y-1744D01*
X2027Y-1844D02*
Y-1744D01*
X252Y-1844D02*
Y-1744D01*
X202Y-1844D02*
Y-1744D01*
X1577Y-1419D02*
X2677D01*
X1577Y-1369D02*
X2677D01*
X-623D02*
X1427D01*
X1577Y-694D02*
X2677D01*
X1577Y-1644D02*
X2677D01*
X1127Y-1419D02*
X1427D01*
X1127Y-1644D02*
X1427D01*
X-623D02*
X977D01*
X-623Y-1419D02*
X977D01*
X-623Y-944D02*
X1427D01*
X-1523Y-894D02*
X1427D01*
X-1523Y-944D02*
X-773D01*
X-1523Y-1269D02*
X-773D01*
X-1523Y-1319D02*
X-773D01*
X-1523Y-1644D02*
X-773D01*
X-1523Y-644D02*
X2677D01*
X-1523Y-1944D02*
X2677D01*
X-1523Y-694D02*
X1427D01*
X2127Y-1694D02*
X2677D01*
X2127Y-1894D02*
X2677D01*
X302Y-1694D02*
X1977D01*
X-1523D02*
X152D01*
X-1523Y-1894D02*
X152D01*
X302D02*
X1977D01*
X1728Y-1096D02*
Y-1160D01*
Y-1096D02*
X1756D01*
X1765Y-1099D01*
X1768Y-1102D01*
X1771Y-1108D01*
Y-1114D01*
X1768Y-1120D01*
X1765Y-1123D01*
X1756Y-1126D01*
X1728D02*
X1756D01*
X1765Y-1129D01*
X1768Y-1132D01*
X1771Y-1138D01*
Y-1148D01*
X1768Y-1154D01*
X1765Y-1157D01*
X1756Y-1160D01*
X1728D01*
X1800Y-1117D02*
X1794Y-1120D01*
X1788Y-1126D01*
X1785Y-1135D01*
Y-1141D01*
X1788Y-1151D01*
X1794Y-1157D01*
X1800Y-1160D01*
X1809D01*
X1816Y-1157D01*
X1822Y-1151D01*
X1825Y-1141D01*
Y-1135D01*
X1822Y-1126D01*
X1816Y-1120D01*
X1809Y-1117D01*
X1800D01*
X1875Y-1126D02*
X1869Y-1120D01*
X1863Y-1117D01*
X1854D01*
X1848Y-1120D01*
X1842Y-1126D01*
X1839Y-1135D01*
Y-1141D01*
X1842Y-1151D01*
X1848Y-1157D01*
X1854Y-1160D01*
X1863D01*
X1869Y-1157D01*
X1875Y-1151D01*
X1926Y-1117D02*
Y-1160D01*
Y-1126D02*
X1919Y-1120D01*
X1913Y-1117D01*
X1904D01*
X1898Y-1120D01*
X1892Y-1126D01*
X1889Y-1135D01*
Y-1141D01*
X1892Y-1151D01*
X1898Y-1157D01*
X1904Y-1160D01*
X1913D01*
X1919Y-1157D01*
X1926Y-1151D01*
X1993Y-1096D02*
Y-1160D01*
Y-1096D02*
X2020D01*
X2029Y-1099D01*
X2032Y-1102D01*
X2036Y-1108D01*
Y-1114D01*
X2032Y-1120D01*
X2029Y-1123D01*
X2020Y-1126D01*
X1993D01*
X2014D02*
X2036Y-1160D01*
X2086Y-1117D02*
Y-1160D01*
Y-1126D02*
X2080Y-1120D01*
X2074Y-1117D01*
X2065D01*
X2059Y-1120D01*
X2053Y-1126D01*
X2050Y-1135D01*
Y-1141D01*
X2053Y-1151D01*
X2059Y-1157D01*
X2065Y-1160D01*
X2074D01*
X2080Y-1157D01*
X2086Y-1151D01*
X2113Y-1096D02*
Y-1148D01*
X2116Y-1157D01*
X2122Y-1160D01*
X2128D01*
X2103Y-1117D02*
X2125D01*
X2152D02*
X2146Y-1120D01*
X2140Y-1126D01*
X2137Y-1135D01*
Y-1141D01*
X2140Y-1151D01*
X2146Y-1157D01*
X2152Y-1160D01*
X2161D01*
X2167Y-1157D01*
X2174Y-1151D01*
X2177Y-1141D01*
Y-1135D01*
X2174Y-1126D01*
X2167Y-1120D01*
X2161Y-1117D01*
X2152D01*
X2191D02*
Y-1160D01*
Y-1129D02*
X2200Y-1120D01*
X2206Y-1117D01*
X2215D01*
X2221Y-1120D01*
X2224Y-1129D01*
Y-1160D01*
X2291Y-1096D02*
Y-1160D01*
Y-1096D02*
X2331D01*
X2291Y-1126D02*
X2316D01*
X2338Y-1096D02*
Y-1160D01*
X2375D01*
X2385Y-1154D02*
X2382Y-1157D01*
X2385Y-1160D01*
X2388Y-1157D01*
X2385Y-1154D01*
X1608Y-917D02*
X1605Y-926D01*
X1599Y-932D01*
X1589Y-935D01*
X1586D01*
X1577Y-932D01*
X1571Y-926D01*
X1568Y-917D01*
Y-914D01*
X1571Y-905D01*
X1577Y-899D01*
X1586Y-896D01*
X1589D01*
X1599Y-899D01*
X1605Y-905D01*
X1608Y-917D01*
Y-932D01*
X1605Y-948D01*
X1599Y-957D01*
X1589Y-960D01*
X1583D01*
X1574Y-957D01*
X1571Y-951D01*
X1643Y-896D02*
X1634Y-899D01*
X1628Y-908D01*
X1625Y-923D01*
Y-932D01*
X1628Y-948D01*
X1634Y-957D01*
X1643Y-960D01*
X1649D01*
X1659Y-957D01*
X1665Y-948D01*
X1668Y-932D01*
Y-923D01*
X1665Y-908D01*
X1659Y-899D01*
X1649Y-896D01*
X1643D01*
X1685Y-911D02*
Y-908D01*
X1688Y-902D01*
X1691Y-899D01*
X1697Y-896D01*
X1709D01*
X1716Y-899D01*
X1719Y-902D01*
X1722Y-908D01*
Y-914D01*
X1719Y-920D01*
X1713Y-929D01*
X1682Y-960D01*
X1725D01*
X1835Y-911D02*
X1832Y-905D01*
X1826Y-899D01*
X1820Y-896D01*
X1808D01*
X1801Y-899D01*
X1795Y-905D01*
X1792Y-911D01*
X1789Y-920D01*
Y-935D01*
X1792Y-945D01*
X1795Y-951D01*
X1801Y-957D01*
X1808Y-960D01*
X1820D01*
X1826Y-957D01*
X1832Y-951D01*
X1835Y-945D01*
X1853Y-896D02*
Y-960D01*
X1872Y-896D02*
X1876Y-899D01*
X1879Y-896D01*
X1876Y-893D01*
X1872Y-896D01*
X1876Y-917D02*
Y-960D01*
X1890Y-917D02*
Y-960D01*
Y-929D02*
X1899Y-920D01*
X1905Y-917D01*
X1914D01*
X1920Y-920D01*
X1923Y-929D01*
Y-960D01*
X1949Y-896D02*
Y-948D01*
X1952Y-957D01*
X1958Y-960D01*
X1965D01*
X1940Y-917D02*
X1961D01*
X2024Y-896D02*
Y-960D01*
Y-896D02*
X2048Y-960D01*
X2073Y-896D02*
X2048Y-960D01*
X2073Y-896D02*
Y-960D01*
X2106Y-917D02*
X2100Y-920D01*
X2094Y-926D01*
X2091Y-935D01*
Y-941D01*
X2094Y-951D01*
X2100Y-957D01*
X2106Y-960D01*
X2115D01*
X2121Y-957D01*
X2128Y-951D01*
X2131Y-941D01*
Y-935D01*
X2128Y-926D01*
X2121Y-920D01*
X2115Y-917D01*
X2106D01*
X2160D02*
X2154Y-920D01*
X2148Y-926D01*
X2145Y-935D01*
Y-941D01*
X2148Y-951D01*
X2154Y-957D01*
X2160Y-960D01*
X2169D01*
X2175Y-957D01*
X2181Y-951D01*
X2184Y-941D01*
Y-935D01*
X2181Y-926D01*
X2175Y-920D01*
X2169Y-917D01*
X2160D01*
X2198D02*
Y-960D01*
Y-935D02*
X2201Y-926D01*
X2207Y-920D01*
X2213Y-917D01*
X2223D01*
X2228Y-935D02*
X2265D01*
Y-929D01*
X2262Y-923D01*
X2259Y-920D01*
X2253Y-917D01*
X2244D01*
X2238Y-920D01*
X2231Y-926D01*
X2228Y-935D01*
Y-941D01*
X2231Y-951D01*
X2238Y-957D01*
X2244Y-960D01*
X2253D01*
X2259Y-957D01*
X2265Y-951D01*
X2329Y-896D02*
Y-960D01*
Y-896D02*
X2356D01*
X2365Y-899D01*
X2369Y-902D01*
X2372Y-908D01*
Y-914D01*
X2369Y-920D01*
X2365Y-923D01*
X2356Y-926D01*
X2329D01*
X2350D02*
X2372Y-960D01*
X2422Y-896D02*
Y-960D01*
Y-926D02*
X2416Y-920D01*
X2410Y-917D01*
X2401D01*
X2395Y-920D01*
X2389Y-926D01*
X2386Y-935D01*
Y-941D01*
X2389Y-951D01*
X2395Y-957D01*
X2401Y-960D01*
X2410D01*
X2416Y-957D01*
X2422Y-951D01*
X2443Y-954D02*
X2440Y-957D01*
X2443Y-960D01*
X2446Y-957D01*
X2443Y-954D01*
X1820Y-1216D02*
X1789D01*
X1786Y-1243D01*
X1789Y-1240D01*
X1798Y-1237D01*
X1807D01*
X1817Y-1240D01*
X1823Y-1246D01*
X1826Y-1255D01*
Y-1261D01*
X1823Y-1271D01*
X1817Y-1277D01*
X1807Y-1280D01*
X1798D01*
X1789Y-1277D01*
X1786Y-1274D01*
X1783Y-1268D01*
X1877Y-1225D02*
X1874Y-1219D01*
X1864Y-1216D01*
X1858D01*
X1849Y-1219D01*
X1843Y-1228D01*
X1840Y-1243D01*
Y-1258D01*
X1843Y-1271D01*
X1849Y-1277D01*
X1858Y-1280D01*
X1861D01*
X1871Y-1277D01*
X1877Y-1271D01*
X1880Y-1261D01*
Y-1258D01*
X1877Y-1249D01*
X1871Y-1243D01*
X1861Y-1240D01*
X1858D01*
X1849Y-1243D01*
X1843Y-1249D01*
X1840Y-1258D01*
X1894Y-1228D02*
X1900Y-1225D01*
X1909Y-1216D01*
Y-1280D01*
X1941Y-1252D02*
X1995D01*
X2054Y-1237D02*
X2051Y-1246D01*
X2045Y-1252D01*
X2036Y-1255D01*
X2033D01*
X2023Y-1252D01*
X2017Y-1246D01*
X2014Y-1237D01*
Y-1234D01*
X2017Y-1225D01*
X2023Y-1219D01*
X2033Y-1216D01*
X2036D01*
X2045Y-1219D01*
X2051Y-1225D01*
X2054Y-1237D01*
Y-1252D01*
X2051Y-1268D01*
X2045Y-1277D01*
X2036Y-1280D01*
X2030D01*
X2020Y-1277D01*
X2017Y-1271D01*
X2111Y-1237D02*
X2108Y-1246D01*
X2102Y-1252D01*
X2093Y-1255D01*
X2090D01*
X2080Y-1252D01*
X2074Y-1246D01*
X2071Y-1237D01*
Y-1234D01*
X2074Y-1225D01*
X2080Y-1219D01*
X2090Y-1216D01*
X2093D01*
X2102Y-1219D01*
X2108Y-1225D01*
X2111Y-1237D01*
Y-1252D01*
X2108Y-1268D01*
X2102Y-1277D01*
X2093Y-1280D01*
X2087D01*
X2077Y-1277D01*
X2074Y-1271D01*
X2168Y-1237D02*
X2165Y-1246D01*
X2159Y-1252D01*
X2150Y-1255D01*
X2147D01*
X2137Y-1252D01*
X2131Y-1246D01*
X2128Y-1237D01*
Y-1234D01*
X2131Y-1225D01*
X2137Y-1219D01*
X2147Y-1216D01*
X2150D01*
X2159Y-1219D01*
X2165Y-1225D01*
X2168Y-1237D01*
Y-1252D01*
X2165Y-1268D01*
X2159Y-1277D01*
X2150Y-1280D01*
X2144D01*
X2134Y-1277D01*
X2131Y-1271D01*
X2185Y-1252D02*
X2240D01*
X2299Y-1237D02*
X2296Y-1246D01*
X2290Y-1252D01*
X2280Y-1255D01*
X2277D01*
X2268Y-1252D01*
X2262Y-1246D01*
X2259Y-1237D01*
Y-1234D01*
X2262Y-1225D01*
X2268Y-1219D01*
X2277Y-1216D01*
X2280D01*
X2290Y-1219D01*
X2296Y-1225D01*
X2299Y-1237D01*
Y-1252D01*
X2296Y-1268D01*
X2290Y-1277D01*
X2280Y-1280D01*
X2274D01*
X2265Y-1277D01*
X2262Y-1271D01*
X2346Y-1216D02*
X2316Y-1258D01*
X2362D01*
X2346Y-1216D02*
Y-1280D01*
X2376Y-1231D02*
Y-1228D01*
X2379Y-1222D01*
X2382Y-1219D01*
X2388Y-1216D01*
X2400D01*
X2407Y-1219D01*
X2410Y-1222D01*
X2413Y-1228D01*
Y-1234D01*
X2410Y-1240D01*
X2403Y-1249D01*
X2373Y-1280D01*
X2416D01*
X2433Y-1231D02*
Y-1228D01*
X2436Y-1222D01*
X2439Y-1219D01*
X2445Y-1216D01*
X2457D01*
X2463Y-1219D01*
X2467Y-1222D01*
X2470Y-1228D01*
Y-1234D01*
X2467Y-1240D01*
X2460Y-1249D01*
X2430Y-1280D01*
X2473D01*
X1906Y-1010D02*
X1900Y-1004D01*
X1891Y-1001D01*
X1878D01*
X1869Y-1004D01*
X1863Y-1010D01*
Y-1016D01*
X1866Y-1022D01*
X1869Y-1025D01*
X1875Y-1028D01*
X1894Y-1034D01*
X1900Y-1037D01*
X1903Y-1040D01*
X1906Y-1046D01*
Y-1056D01*
X1900Y-1062D01*
X1891Y-1065D01*
X1878D01*
X1869Y-1062D01*
X1863Y-1056D01*
X1920Y-1022D02*
Y-1053D01*
X1923Y-1062D01*
X1929Y-1065D01*
X1938D01*
X1944Y-1062D01*
X1954Y-1053D01*
Y-1022D02*
Y-1065D01*
X1976Y-1001D02*
X1979Y-1004D01*
X1983Y-1001D01*
X1979Y-998D01*
X1976Y-1001D01*
X1979Y-1022D02*
Y-1065D01*
X2003Y-1001D02*
Y-1053D01*
X2006Y-1062D01*
X2012Y-1065D01*
X2018D01*
X1994Y-1022D02*
X2015D01*
X2027Y-1040D02*
X2064D01*
Y-1034D01*
X2061Y-1028D01*
X2058Y-1025D01*
X2052Y-1022D01*
X2043D01*
X2036Y-1025D01*
X2030Y-1031D01*
X2027Y-1040D01*
Y-1046D01*
X2030Y-1056D01*
X2036Y-1062D01*
X2043Y-1065D01*
X2052D01*
X2058Y-1062D01*
X2064Y-1056D01*
X2128Y-1013D02*
X2134Y-1010D01*
X2143Y-1001D01*
Y-1065D01*
X2178Y-1016D02*
Y-1013D01*
X2181Y-1007D01*
X2184Y-1004D01*
X2190Y-1001D01*
X2202D01*
X2208Y-1004D01*
X2211Y-1007D01*
X2214Y-1013D01*
Y-1019D01*
X2211Y-1025D01*
X2205Y-1034D01*
X2175Y-1065D01*
X2217D01*
X2268Y-1010D02*
X2265Y-1004D01*
X2256Y-1001D01*
X2250D01*
X2241Y-1004D01*
X2235Y-1013D01*
X2232Y-1028D01*
Y-1043D01*
X2235Y-1056D01*
X2241Y-1062D01*
X2250Y-1065D01*
X2253D01*
X2262Y-1062D01*
X2268Y-1056D01*
X2271Y-1046D01*
Y-1043D01*
X2268Y-1034D01*
X2262Y-1028D01*
X2253Y-1025D01*
X2250D01*
X2241Y-1028D01*
X2235Y-1034D01*
X2232Y-1043D01*
X649Y-1743D02*
Y-1823D01*
Y-1743D02*
X676D01*
X687Y-1747D01*
X695Y-1754D01*
X699Y-1762D01*
X702Y-1773D01*
Y-1793D01*
X699Y-1804D01*
X695Y-1812D01*
X687Y-1819D01*
X676Y-1823D01*
X649D01*
X720Y-1770D02*
Y-1823D01*
Y-1793D02*
X724Y-1781D01*
X732Y-1773D01*
X739Y-1770D01*
X751D01*
X766Y-1743D02*
X769Y-1747D01*
X773Y-1743D01*
X769Y-1739D01*
X766Y-1743D01*
X769Y-1770D02*
Y-1823D01*
X787Y-1743D02*
Y-1823D01*
X804Y-1743D02*
Y-1823D01*
X821Y-1743D02*
Y-1823D01*
Y-1743D02*
X847D01*
X859Y-1747D01*
X866Y-1754D01*
X870Y-1762D01*
X874Y-1773D01*
Y-1793D01*
X870Y-1804D01*
X866Y-1812D01*
X859Y-1819D01*
X847Y-1823D01*
X821D01*
X892Y-1770D02*
Y-1823D01*
Y-1793D02*
X896Y-1781D01*
X903Y-1773D01*
X911Y-1770D01*
X922D01*
X975D02*
Y-1823D01*
Y-1781D02*
X968Y-1773D01*
X960Y-1770D01*
X949D01*
X941Y-1773D01*
X934Y-1781D01*
X930Y-1793D01*
Y-1800D01*
X934Y-1812D01*
X941Y-1819D01*
X949Y-1823D01*
X960D01*
X968Y-1819D01*
X975Y-1812D01*
X997Y-1770D02*
X1012Y-1823D01*
X1027Y-1770D02*
X1012Y-1823D01*
X1027Y-1770D02*
X1042Y-1823D01*
X1058Y-1770D02*
X1042Y-1823D01*
X1084Y-1743D02*
X1088Y-1747D01*
X1092Y-1743D01*
X1088Y-1739D01*
X1084Y-1743D01*
X1088Y-1770D02*
Y-1823D01*
X1106Y-1770D02*
Y-1823D01*
Y-1785D02*
X1117Y-1773D01*
X1125Y-1770D01*
X1136D01*
X1144Y-1773D01*
X1148Y-1785D01*
Y-1823D01*
X1214Y-1770D02*
Y-1831D01*
X1210Y-1842D01*
X1207Y-1846D01*
X1199Y-1850D01*
X1188D01*
X1180Y-1846D01*
X1214Y-1781D02*
X1207Y-1773D01*
X1199Y-1770D01*
X1188D01*
X1180Y-1773D01*
X1172Y-1781D01*
X1169Y-1793D01*
Y-1800D01*
X1172Y-1812D01*
X1180Y-1819D01*
X1188Y-1823D01*
X1199D01*
X1207Y-1819D01*
X1214Y-1812D01*
D48*
X-111Y-92D02*
X-151D01*
Y-122D01*
X-131Y-112D01*
X-121D01*
X-111Y-122D01*
Y-142D01*
X-121Y-152D01*
X-141D01*
X-151Y-142D01*
X-91Y-102D02*
X-81Y-92D01*
X-61D01*
X-51Y-102D01*
Y-142D01*
X-61Y-152D01*
X-81D01*
X-91Y-142D01*
Y-102D01*
X-31Y-152D02*
Y-142D01*
X-21D01*
Y-152D01*
X-31D01*
X19Y-102D02*
X29Y-92D01*
X49D01*
X59Y-102D01*
Y-142D01*
X49Y-152D01*
X29D01*
X19Y-142D01*
Y-102D01*
X79D02*
X89Y-92D01*
X109D01*
X119Y-102D01*
Y-142D01*
X109Y-152D01*
X89D01*
X79Y-142D01*
Y-102D01*
X1074Y1149D02*
X1084Y1129D01*
X1104Y1109D01*
X1124D01*
X1134Y1119D01*
Y1139D01*
X1124Y1149D01*
X1114D01*
X1104Y1139D01*
Y1109D01*
X1134Y1199D02*
X1074D01*
X1104Y1169D01*
Y1209D01*
X1134Y1229D02*
X1124D01*
Y1239D01*
X1134D01*
Y1229D01*
X1084Y1279D02*
X1074Y1289D01*
Y1309D01*
X1084Y1319D01*
X1124D01*
X1134Y1309D01*
Y1289D01*
X1124Y1279D01*
X1084D01*
Y1339D02*
X1074Y1349D01*
Y1369D01*
X1084Y1379D01*
X1124D01*
X1134Y1369D01*
Y1349D01*
X1124Y1339D01*
X1084D01*
X1822Y1167D02*
Y1169D01*
X1824Y1174D01*
X1827Y1177D01*
X1831Y1179D01*
X1841D01*
X1846Y1177D01*
X1848Y1174D01*
X1850Y1169D01*
Y1165D01*
X1848Y1160D01*
X1843Y1153D01*
X1819Y1129D01*
X1853D01*
X1869Y1179D02*
X1895D01*
X1881Y1160D01*
X1888D01*
X1893Y1158D01*
X1895Y1155D01*
X1897Y1148D01*
Y1143D01*
X1895Y1136D01*
X1890Y1131D01*
X1883Y1129D01*
X1876D01*
X1869Y1131D01*
X1866Y1134D01*
X1864Y1139D01*
X1923Y1179D02*
X1916Y1177D01*
X1911Y1169D01*
X1908Y1158D01*
Y1150D01*
X1911Y1139D01*
X1916Y1131D01*
X1923Y1129D01*
X1928D01*
X1935Y1131D01*
X1939Y1139D01*
X1942Y1150D01*
Y1158D01*
X1939Y1169D01*
X1935Y1177D01*
X1928Y1179D01*
X1923D01*
X2292Y1169D02*
X2297Y1172D01*
X2304Y1179D01*
Y1129D01*
X2343Y1179D02*
X2336Y1177D01*
X2331Y1169D01*
X2329Y1158D01*
Y1150D01*
X2331Y1139D01*
X2336Y1131D01*
X2343Y1129D01*
X2348D01*
X2355Y1131D01*
X2360Y1139D01*
X2362Y1150D01*
Y1158D01*
X2360Y1169D01*
X2355Y1177D01*
X2348Y1179D01*
X2343D01*
X2374Y1162D02*
Y1129D01*
Y1153D02*
X2381Y1160D01*
X2386Y1162D01*
X2393D01*
X2397Y1160D01*
X2400Y1153D01*
Y1129D01*
Y1153D02*
X2407Y1160D01*
X2412Y1162D01*
X2419D01*
X2424Y1160D01*
X2426Y1153D01*
Y1129D01*
X2446Y1179D02*
X2449Y1177D01*
X2451Y1179D01*
X2449Y1181D01*
X2446Y1179D01*
X2449Y1162D02*
Y1129D01*
X2460Y1179D02*
Y1129D01*
X2526Y1189D02*
X2522Y1184D01*
X2517Y1177D01*
X2512Y1167D01*
X2510Y1155D01*
Y1146D01*
X2512Y1134D01*
X2517Y1124D01*
X2522Y1117D01*
X2526Y1112D01*
X2522Y1184D02*
X2517Y1174D01*
X2515Y1167D01*
X2512Y1155D01*
Y1146D01*
X2515Y1134D01*
X2517Y1127D01*
X2522Y1117D01*
X2550Y1179D02*
X2543Y1177D01*
X2538Y1169D01*
X2536Y1158D01*
Y1150D01*
X2538Y1139D01*
X2543Y1131D01*
X2550Y1129D01*
X2555D01*
X2562Y1131D01*
X2567Y1139D01*
X2569Y1150D01*
Y1158D01*
X2567Y1169D01*
X2562Y1177D01*
X2555Y1179D01*
X2550D01*
X2583Y1134D02*
X2580Y1131D01*
X2583Y1129D01*
X2585Y1131D01*
X2583Y1134D01*
X2599Y1167D02*
Y1169D01*
X2601Y1174D01*
X2603Y1177D01*
X2608Y1179D01*
X2618D01*
X2622Y1177D01*
X2625Y1174D01*
X2627Y1169D01*
Y1165D01*
X2625Y1160D01*
X2620Y1153D01*
X2596Y1129D01*
X2630D01*
X2669Y1179D02*
X2645D01*
X2643Y1158D01*
X2645Y1160D01*
X2653Y1162D01*
X2660D01*
X2667Y1160D01*
X2672Y1155D01*
X2674Y1148D01*
Y1143D01*
X2672Y1136D01*
X2667Y1131D01*
X2660Y1129D01*
X2653D01*
X2645Y1131D01*
X2643Y1134D01*
X2641Y1139D01*
X2709Y1179D02*
X2685Y1146D01*
X2721D01*
X2709Y1179D02*
Y1129D01*
X2730Y1162D02*
Y1129D01*
Y1153D02*
X2737Y1160D01*
X2742Y1162D01*
X2749D01*
X2754Y1160D01*
X2756Y1153D01*
Y1129D01*
Y1153D02*
X2763Y1160D01*
X2768Y1162D01*
X2775D01*
X2780Y1160D01*
X2782Y1153D01*
Y1129D01*
X2798Y1162D02*
Y1129D01*
Y1153D02*
X2805Y1160D01*
X2810Y1162D01*
X2817D01*
X2822Y1160D01*
X2824Y1153D01*
Y1129D01*
Y1153D02*
X2831Y1160D01*
X2836Y1162D01*
X2843D01*
X2848Y1160D01*
X2850Y1153D01*
Y1129D01*
X2866Y1189D02*
X2871Y1184D01*
X2875Y1177D01*
X2880Y1167D01*
X2883Y1155D01*
Y1146D01*
X2880Y1134D01*
X2875Y1124D01*
X2871Y1117D01*
X2866Y1112D01*
X2871Y1184D02*
X2875Y1174D01*
X2878Y1167D01*
X2880Y1155D01*
Y1146D01*
X2878Y1134D01*
X2875Y1127D01*
X2871Y1117D01*
X2964Y1153D02*
X2986D01*
X2993Y1155D01*
X2995Y1158D01*
X2997Y1162D01*
Y1169D01*
X2995Y1174D01*
X2993Y1177D01*
X2986Y1179D01*
X2964D01*
Y1129D01*
X3025Y1179D02*
Y1129D01*
X3009Y1179D02*
X3042D01*
X3048D02*
Y1129D01*
X3081Y1179D02*
Y1129D01*
X3048Y1155D02*
X3081D01*
X3282Y1179D02*
Y1129D01*
Y1179D02*
X3303D01*
X3311Y1177D01*
X3313Y1174D01*
X3315Y1169D01*
Y1165D01*
X3313Y1160D01*
X3311Y1158D01*
X3303Y1155D01*
X3282D01*
X3299D02*
X3315Y1129D01*
X3338Y1162D02*
X3334Y1160D01*
X3329Y1155D01*
X3327Y1148D01*
Y1143D01*
X3329Y1136D01*
X3334Y1131D01*
X3338Y1129D01*
X3346D01*
X3350Y1131D01*
X3355Y1136D01*
X3358Y1143D01*
Y1148D01*
X3355Y1155D01*
X3350Y1160D01*
X3346Y1162D01*
X3338D01*
X3368D02*
Y1139D01*
X3371Y1131D01*
X3376Y1129D01*
X3383D01*
X3388Y1131D01*
X3395Y1139D01*
Y1162D02*
Y1129D01*
X3408Y1162D02*
Y1129D01*
Y1153D02*
X3415Y1160D01*
X3420Y1162D01*
X3427D01*
X3432Y1160D01*
X3434Y1153D01*
Y1129D01*
X3476Y1179D02*
Y1129D01*
Y1155D02*
X3471Y1160D01*
X3466Y1162D01*
X3459D01*
X3454Y1160D01*
X3449Y1155D01*
X3447Y1148D01*
Y1143D01*
X3449Y1136D01*
X3454Y1131D01*
X3459Y1129D01*
X3466D01*
X3471Y1131D01*
X3476Y1136D01*
X1853Y1079D02*
X1829Y1029D01*
X1819Y1079D02*
X1853D01*
X2297D02*
X2323D01*
X2309Y1060D01*
X2316D01*
X2321Y1058D01*
X2323Y1055D01*
X2326Y1048D01*
Y1043D01*
X2323Y1036D01*
X2319Y1031D01*
X2312Y1029D01*
X2304D01*
X2297Y1031D01*
X2295Y1034D01*
X2292Y1039D01*
X2351Y1079D02*
X2344Y1077D01*
X2339Y1069D01*
X2337Y1058D01*
Y1050D01*
X2339Y1039D01*
X2344Y1031D01*
X2351Y1029D01*
X2356D01*
X2363Y1031D01*
X2368Y1039D01*
X2370Y1050D01*
Y1058D01*
X2368Y1069D01*
X2363Y1077D01*
X2356Y1079D01*
X2351D01*
X2381Y1062D02*
Y1029D01*
Y1053D02*
X2389Y1060D01*
X2393Y1062D01*
X2401D01*
X2405Y1060D01*
X2408Y1053D01*
Y1029D01*
Y1053D02*
X2415Y1060D01*
X2420Y1062D01*
X2427D01*
X2431Y1060D01*
X2434Y1053D01*
Y1029D01*
X2454Y1079D02*
X2457Y1077D01*
X2459Y1079D01*
X2457Y1081D01*
X2454Y1079D01*
X2457Y1062D02*
Y1029D01*
X2468Y1079D02*
Y1029D01*
X2534Y1089D02*
X2530Y1084D01*
X2525Y1077D01*
X2520Y1067D01*
X2518Y1055D01*
Y1046D01*
X2520Y1034D01*
X2525Y1024D01*
X2530Y1017D01*
X2534Y1012D01*
X2530Y1084D02*
X2525Y1074D01*
X2522Y1067D01*
X2520Y1055D01*
Y1046D01*
X2522Y1034D01*
X2525Y1027D01*
X2530Y1017D01*
X2558Y1079D02*
X2551Y1077D01*
X2546Y1069D01*
X2544Y1058D01*
Y1050D01*
X2546Y1039D01*
X2551Y1031D01*
X2558Y1029D01*
X2563D01*
X2570Y1031D01*
X2575Y1039D01*
X2577Y1050D01*
Y1058D01*
X2575Y1069D01*
X2570Y1077D01*
X2563Y1079D01*
X2558D01*
X2591Y1034D02*
X2588Y1031D01*
X2591Y1029D01*
X2593Y1031D01*
X2591Y1034D01*
X2637Y1079D02*
X2614Y1029D01*
X2604Y1079D02*
X2637D01*
X2677Y1072D02*
X2675Y1077D01*
X2668Y1079D01*
X2663D01*
X2656Y1077D01*
X2651Y1069D01*
X2649Y1058D01*
Y1046D01*
X2651Y1036D01*
X2656Y1031D01*
X2663Y1029D01*
X2665D01*
X2672Y1031D01*
X2677Y1036D01*
X2680Y1043D01*
Y1046D01*
X2677Y1053D01*
X2672Y1058D01*
X2665Y1060D01*
X2663D01*
X2656Y1058D01*
X2651Y1053D01*
X2649Y1046D01*
X2693Y1067D02*
Y1069D01*
X2695Y1074D01*
X2698Y1077D01*
X2702Y1079D01*
X2712D01*
X2717Y1077D01*
X2719Y1074D01*
X2721Y1069D01*
Y1065D01*
X2719Y1060D01*
X2714Y1053D01*
X2690Y1029D01*
X2724D01*
X2735Y1062D02*
Y1029D01*
Y1053D02*
X2742Y1060D01*
X2747Y1062D01*
X2754D01*
X2759Y1060D01*
X2761Y1053D01*
Y1029D01*
Y1053D02*
X2768Y1060D01*
X2773Y1062D01*
X2780D01*
X2785Y1060D01*
X2787Y1053D01*
Y1029D01*
X2803Y1062D02*
Y1029D01*
Y1053D02*
X2810Y1060D01*
X2815Y1062D01*
X2822D01*
X2827Y1060D01*
X2829Y1053D01*
Y1029D01*
Y1053D02*
X2836Y1060D01*
X2841Y1062D01*
X2848D01*
X2853Y1060D01*
X2855Y1053D01*
Y1029D01*
X2871Y1089D02*
X2876Y1084D01*
X2881Y1077D01*
X2885Y1067D01*
X2888Y1055D01*
Y1046D01*
X2885Y1034D01*
X2881Y1024D01*
X2876Y1017D01*
X2871Y1012D01*
X2876Y1084D02*
X2881Y1074D01*
X2883Y1067D01*
X2885Y1055D01*
Y1046D01*
X2883Y1034D01*
X2881Y1027D01*
X2876Y1017D01*
X2964Y1053D02*
X2986D01*
X2993Y1055D01*
X2995Y1058D01*
X2997Y1062D01*
Y1069D01*
X2995Y1074D01*
X2993Y1077D01*
X2986Y1079D01*
X2964D01*
Y1029D01*
X3025Y1079D02*
Y1029D01*
X3009Y1079D02*
X3042D01*
X3048D02*
Y1029D01*
X3081Y1079D02*
Y1029D01*
X3048Y1055D02*
X3081D01*
X3282Y1079D02*
Y1029D01*
Y1079D02*
X3303D01*
X3311Y1077D01*
X3313Y1074D01*
X3315Y1069D01*
Y1065D01*
X3313Y1060D01*
X3311Y1058D01*
X3303Y1055D01*
X3282D01*
X3299D02*
X3315Y1029D01*
X3338Y1062D02*
X3334Y1060D01*
X3329Y1055D01*
X3327Y1048D01*
Y1043D01*
X3329Y1036D01*
X3334Y1031D01*
X3338Y1029D01*
X3346D01*
X3350Y1031D01*
X3355Y1036D01*
X3358Y1043D01*
Y1048D01*
X3355Y1055D01*
X3350Y1060D01*
X3346Y1062D01*
X3338D01*
X3368D02*
Y1039D01*
X3371Y1031D01*
X3376Y1029D01*
X3383D01*
X3388Y1031D01*
X3395Y1039D01*
Y1062D02*
Y1029D01*
X3408Y1062D02*
Y1029D01*
Y1053D02*
X3415Y1060D01*
X3420Y1062D01*
X3427D01*
X3432Y1060D01*
X3434Y1053D01*
Y1029D01*
X3476Y1079D02*
Y1029D01*
Y1055D02*
X3471Y1060D01*
X3466Y1062D01*
X3459D01*
X3454Y1060D01*
X3449Y1055D01*
X3447Y1048D01*
Y1043D01*
X3449Y1036D01*
X3454Y1031D01*
X3459Y1029D01*
X3466D01*
X3471Y1031D01*
X3476Y1036D01*
X1819Y969D02*
X1824Y972D01*
X1831Y979D01*
Y929D01*
X1885Y972D02*
X1882Y977D01*
X1875Y979D01*
X1870D01*
X1863Y977D01*
X1858Y969D01*
X1856Y958D01*
Y946D01*
X1858Y936D01*
X1863Y931D01*
X1870Y929D01*
X1873D01*
X1880Y931D01*
X1885Y936D01*
X1887Y943D01*
Y946D01*
X1885Y953D01*
X1880Y958D01*
X1873Y960D01*
X1870D01*
X1863Y958D01*
X1858Y953D01*
X1856Y946D01*
X2297Y979D02*
X2323D01*
X2309Y960D01*
X2316D01*
X2321Y958D01*
X2323Y955D01*
X2326Y948D01*
Y943D01*
X2323Y936D01*
X2319Y931D01*
X2312Y929D01*
X2304D01*
X2297Y931D01*
X2295Y934D01*
X2292Y939D01*
X2366Y979D02*
X2342D01*
X2339Y958D01*
X2342Y960D01*
X2349Y962D01*
X2356D01*
X2363Y960D01*
X2368Y955D01*
X2370Y948D01*
Y943D01*
X2368Y936D01*
X2363Y931D01*
X2356Y929D01*
X2349D01*
X2342Y931D01*
X2339Y934D01*
X2337Y939D01*
X2381Y962D02*
Y929D01*
Y953D02*
X2389Y960D01*
X2393Y962D01*
X2401D01*
X2405Y960D01*
X2408Y953D01*
Y929D01*
Y953D02*
X2415Y960D01*
X2420Y962D01*
X2427D01*
X2431Y960D01*
X2434Y953D01*
Y929D01*
X2454Y979D02*
X2457Y977D01*
X2459Y979D01*
X2457Y981D01*
X2454Y979D01*
X2457Y962D02*
Y929D01*
X2468Y979D02*
Y929D01*
X2534Y989D02*
X2530Y984D01*
X2525Y977D01*
X2520Y967D01*
X2518Y955D01*
Y946D01*
X2520Y934D01*
X2525Y924D01*
X2530Y917D01*
X2534Y912D01*
X2530Y984D02*
X2525Y974D01*
X2522Y967D01*
X2520Y955D01*
Y946D01*
X2522Y934D01*
X2525Y927D01*
X2530Y917D01*
X2558Y979D02*
X2551Y977D01*
X2546Y969D01*
X2544Y958D01*
Y950D01*
X2546Y939D01*
X2551Y931D01*
X2558Y929D01*
X2563D01*
X2570Y931D01*
X2575Y939D01*
X2577Y950D01*
Y958D01*
X2575Y969D01*
X2570Y977D01*
X2563Y979D01*
X2558D01*
X2591Y934D02*
X2588Y931D01*
X2591Y929D01*
X2593Y931D01*
X2591Y934D01*
X2616Y979D02*
X2609Y977D01*
X2606Y972D01*
Y967D01*
X2609Y962D01*
X2614Y960D01*
X2623Y958D01*
X2630Y955D01*
X2635Y950D01*
X2637Y946D01*
Y939D01*
X2635Y934D01*
X2633Y931D01*
X2625Y929D01*
X2616D01*
X2609Y931D01*
X2606Y934D01*
X2604Y939D01*
Y946D01*
X2606Y950D01*
X2611Y955D01*
X2618Y958D01*
X2628Y960D01*
X2633Y962D01*
X2635Y967D01*
Y972D01*
X2633Y977D01*
X2625Y979D01*
X2616D01*
X2660D02*
X2653Y977D01*
X2651Y972D01*
Y967D01*
X2653Y962D01*
X2658Y960D01*
X2668Y958D01*
X2675Y955D01*
X2680Y950D01*
X2682Y946D01*
Y939D01*
X2680Y934D01*
X2677Y931D01*
X2670Y929D01*
X2660D01*
X2653Y931D01*
X2651Y934D01*
X2649Y939D01*
Y946D01*
X2651Y950D01*
X2656Y955D01*
X2663Y958D01*
X2672Y960D01*
X2677Y962D01*
X2680Y967D01*
Y972D01*
X2677Y977D01*
X2670Y979D01*
X2660D01*
X2724Y962D02*
X2722Y955D01*
X2717Y950D01*
X2710Y948D01*
X2707D01*
X2700Y950D01*
X2695Y955D01*
X2693Y962D01*
Y965D01*
X2695Y972D01*
X2700Y977D01*
X2707Y979D01*
X2710D01*
X2717Y977D01*
X2722Y972D01*
X2724Y962D01*
Y950D01*
X2722Y939D01*
X2717Y931D01*
X2710Y929D01*
X2705D01*
X2698Y931D01*
X2695Y936D01*
X2738Y962D02*
Y929D01*
Y953D02*
X2745Y960D01*
X2750Y962D01*
X2757D01*
X2761Y960D01*
X2764Y953D01*
Y929D01*
Y953D02*
X2771Y960D01*
X2776Y962D01*
X2783D01*
X2788Y960D01*
X2790Y953D01*
Y929D01*
X2806Y962D02*
Y929D01*
Y953D02*
X2813Y960D01*
X2818Y962D01*
X2825D01*
X2829Y960D01*
X2832Y953D01*
Y929D01*
Y953D02*
X2839Y960D01*
X2844Y962D01*
X2851D01*
X2856Y960D01*
X2858Y953D01*
Y929D01*
X2874Y989D02*
X2879Y984D01*
X2883Y977D01*
X2888Y967D01*
X2890Y955D01*
Y946D01*
X2888Y934D01*
X2883Y924D01*
X2879Y917D01*
X2874Y912D01*
X2879Y984D02*
X2883Y974D01*
X2886Y967D01*
X2888Y955D01*
Y946D01*
X2886Y934D01*
X2883Y927D01*
X2879Y917D01*
X2964Y953D02*
X2986D01*
X2993Y955D01*
X2995Y958D01*
X2997Y962D01*
Y969D01*
X2995Y974D01*
X2993Y977D01*
X2986Y979D01*
X2964D01*
Y929D01*
X3025Y979D02*
Y929D01*
X3009Y979D02*
X3042D01*
X3048D02*
Y929D01*
X3081Y979D02*
Y929D01*
X3048Y955D02*
X3081D01*
X3282Y979D02*
Y929D01*
Y979D02*
X3303D01*
X3311Y977D01*
X3313Y974D01*
X3315Y969D01*
Y965D01*
X3313Y960D01*
X3311Y958D01*
X3303Y955D01*
X3282D01*
X3299D02*
X3315Y929D01*
X3338Y962D02*
X3334Y960D01*
X3329Y955D01*
X3327Y948D01*
Y943D01*
X3329Y936D01*
X3334Y931D01*
X3338Y929D01*
X3346D01*
X3350Y931D01*
X3355Y936D01*
X3358Y943D01*
Y948D01*
X3355Y955D01*
X3350Y960D01*
X3346Y962D01*
X3338D01*
X3368D02*
Y939D01*
X3371Y931D01*
X3376Y929D01*
X3383D01*
X3388Y931D01*
X3395Y939D01*
Y962D02*
Y929D01*
X3408Y962D02*
Y929D01*
Y953D02*
X3415Y960D01*
X3420Y962D01*
X3427D01*
X3432Y960D01*
X3434Y953D01*
Y929D01*
X3476Y979D02*
Y929D01*
Y955D02*
X3471Y960D01*
X3466Y962D01*
X3459D01*
X3454Y960D01*
X3449Y955D01*
X3447Y948D01*
Y943D01*
X3449Y936D01*
X3454Y931D01*
X3459Y929D01*
X3466D01*
X3471Y931D01*
X3476Y936D01*
X1819Y869D02*
X1824Y872D01*
X1831Y879D01*
Y829D01*
X1870Y879D02*
X1863Y877D01*
X1858Y869D01*
X1856Y858D01*
Y850D01*
X1858Y839D01*
X1863Y831D01*
X1870Y829D01*
X1875D01*
X1882Y831D01*
X1887Y839D01*
X1889Y850D01*
Y858D01*
X1887Y869D01*
X1882Y877D01*
X1875Y879D01*
X1870D01*
X2321D02*
X2297D01*
X2295Y858D01*
X2297Y860D01*
X2304Y862D01*
X2312D01*
X2319Y860D01*
X2323Y855D01*
X2326Y848D01*
Y843D01*
X2323Y836D01*
X2319Y831D01*
X2312Y829D01*
X2304D01*
X2297Y831D01*
X2295Y834D01*
X2292Y839D01*
X2370Y879D02*
X2346Y829D01*
X2337Y879D02*
X2370D01*
X2381Y862D02*
Y829D01*
Y853D02*
X2389Y860D01*
X2393Y862D01*
X2401D01*
X2405Y860D01*
X2408Y853D01*
Y829D01*
Y853D02*
X2415Y860D01*
X2420Y862D01*
X2427D01*
X2431Y860D01*
X2434Y853D01*
Y829D01*
X2454Y879D02*
X2457Y877D01*
X2459Y879D01*
X2457Y881D01*
X2454Y879D01*
X2457Y862D02*
Y829D01*
X2468Y879D02*
Y829D01*
X2534Y889D02*
X2530Y884D01*
X2525Y877D01*
X2520Y867D01*
X2518Y855D01*
Y846D01*
X2520Y834D01*
X2525Y824D01*
X2530Y817D01*
X2534Y812D01*
X2530Y884D02*
X2525Y874D01*
X2522Y867D01*
X2520Y855D01*
Y846D01*
X2522Y834D01*
X2525Y827D01*
X2530Y817D01*
X2544Y869D02*
X2549Y872D01*
X2556Y879D01*
Y829D01*
X2583Y834D02*
X2580Y831D01*
X2583Y829D01*
X2585Y831D01*
X2583Y834D01*
X2620Y879D02*
X2596Y846D01*
X2632D01*
X2620Y879D02*
Y829D01*
X2665Y879D02*
X2641Y846D01*
X2676D01*
X2665Y879D02*
Y829D01*
X2719Y879D02*
X2695Y829D01*
X2685Y879D02*
X2719D01*
X2742D02*
X2735Y877D01*
X2732Y872D01*
Y867D01*
X2735Y862D01*
X2739Y860D01*
X2749Y858D01*
X2756Y855D01*
X2761Y850D01*
X2763Y846D01*
Y839D01*
X2761Y834D01*
X2758Y831D01*
X2751Y829D01*
X2742D01*
X2735Y831D01*
X2732Y834D01*
X2730Y839D01*
Y846D01*
X2732Y850D01*
X2737Y855D01*
X2744Y858D01*
X2754Y860D01*
X2758Y862D01*
X2761Y867D01*
Y872D01*
X2758Y877D01*
X2751Y879D01*
X2742D01*
X2774Y862D02*
Y829D01*
Y853D02*
X2781Y860D01*
X2786Y862D01*
X2793D01*
X2798Y860D01*
X2800Y853D01*
Y829D01*
Y853D02*
X2808Y860D01*
X2812Y862D01*
X2819D01*
X2824Y860D01*
X2827Y853D01*
Y829D01*
X2842Y862D02*
Y829D01*
Y853D02*
X2849Y860D01*
X2854Y862D01*
X2861D01*
X2866Y860D01*
X2869Y853D01*
Y829D01*
Y853D02*
X2876Y860D01*
X2880Y862D01*
X2888D01*
X2892Y860D01*
X2895Y853D01*
Y829D01*
X2910Y889D02*
X2915Y884D01*
X2920Y877D01*
X2925Y867D01*
X2927Y855D01*
Y846D01*
X2925Y834D01*
X2920Y824D01*
X2915Y817D01*
X2910Y812D01*
X2915Y884D02*
X2920Y874D01*
X2922Y867D01*
X2925Y855D01*
Y846D01*
X2922Y834D01*
X2920Y827D01*
X2915Y817D01*
X2964Y853D02*
X2986D01*
X2993Y855D01*
X2995Y858D01*
X2997Y862D01*
Y869D01*
X2995Y874D01*
X2993Y877D01*
X2986Y879D01*
X2964D01*
Y829D01*
X3025Y879D02*
Y829D01*
X3009Y879D02*
X3042D01*
X3048D02*
Y829D01*
X3081Y879D02*
Y829D01*
X3048Y855D02*
X3081D01*
X3282Y879D02*
Y829D01*
Y879D02*
X3303D01*
X3311Y877D01*
X3313Y874D01*
X3315Y869D01*
Y865D01*
X3313Y860D01*
X3311Y858D01*
X3303Y855D01*
X3282D01*
X3299D02*
X3315Y829D01*
X3338Y862D02*
X3334Y860D01*
X3329Y855D01*
X3327Y848D01*
Y843D01*
X3329Y836D01*
X3334Y831D01*
X3338Y829D01*
X3346D01*
X3350Y831D01*
X3355Y836D01*
X3358Y843D01*
Y848D01*
X3355Y855D01*
X3350Y860D01*
X3346Y862D01*
X3338D01*
X3368D02*
Y839D01*
X3371Y831D01*
X3376Y829D01*
X3383D01*
X3388Y831D01*
X3395Y839D01*
Y862D02*
Y829D01*
X3408Y862D02*
Y829D01*
Y853D02*
X3415Y860D01*
X3420Y862D01*
X3427D01*
X3432Y860D01*
X3434Y853D01*
Y829D01*
X3476Y879D02*
Y829D01*
Y855D02*
X3471Y860D01*
X3466Y862D01*
X3459D01*
X3454Y860D01*
X3449Y855D01*
X3447Y848D01*
Y843D01*
X3449Y836D01*
X3454Y831D01*
X3459Y829D01*
X3466D01*
X3471Y831D01*
X3476Y836D01*
X1822Y767D02*
Y769D01*
X1824Y774D01*
X1827Y777D01*
X1831Y779D01*
X1841D01*
X1846Y777D01*
X1848Y774D01*
X1850Y769D01*
Y765D01*
X1848Y760D01*
X1843Y753D01*
X1819Y729D01*
X1853D01*
X1893Y772D02*
X1890Y777D01*
X1883Y779D01*
X1878D01*
X1871Y777D01*
X1866Y769D01*
X1864Y758D01*
Y746D01*
X1866Y736D01*
X1871Y731D01*
X1878Y729D01*
X1881D01*
X1888Y731D01*
X1893Y736D01*
X1895Y743D01*
Y746D01*
X1893Y753D01*
X1888Y758D01*
X1881Y760D01*
X1878D01*
X1871Y758D01*
X1866Y753D01*
X1864Y746D01*
X1911Y779D02*
X1937D01*
X1923Y760D01*
X1930D01*
X1934Y758D01*
X1937Y755D01*
X1939Y748D01*
Y743D01*
X1937Y736D01*
X1932Y731D01*
X1925Y729D01*
X1918D01*
X1911Y731D01*
X1908Y734D01*
X1906Y739D01*
X2037Y779D02*
Y729D01*
X2021Y779D02*
X2054D01*
X2072Y762D02*
X2067Y760D01*
X2062Y755D01*
X2060Y748D01*
Y743D01*
X2062Y736D01*
X2067Y731D01*
X2072Y729D01*
X2079D01*
X2084Y731D01*
X2089Y736D01*
X2091Y743D01*
Y748D01*
X2089Y755D01*
X2084Y760D01*
X2079Y762D01*
X2072D01*
X2109Y779D02*
Y739D01*
X2111Y731D01*
X2116Y729D01*
X2121D01*
X2102Y762D02*
X2119D01*
X2157D02*
Y729D01*
Y755D02*
X2152Y760D01*
X2147Y762D01*
X2140D01*
X2135Y760D01*
X2131Y755D01*
X2128Y748D01*
Y743D01*
X2131Y736D01*
X2135Y731D01*
X2140Y729D01*
X2147D01*
X2152Y731D01*
X2157Y736D01*
X2170Y779D02*
Y729D01*
D49*
X1305Y-1528D02*
X1297Y-1531D01*
X1292Y-1538D01*
X1290Y-1551D01*
Y-1559D01*
X1292Y-1571D01*
X1297Y-1579D01*
X1305Y-1581D01*
X1310D01*
X1317Y-1579D01*
X1323Y-1571D01*
X1325Y-1559D01*
Y-1551D01*
X1323Y-1538D01*
X1317Y-1531D01*
X1310Y-1528D01*
X1305D01*
X139Y-1041D02*
Y-1137D01*
X203Y-1041D02*
Y-1137D01*
X139Y-1087D02*
X203D01*
X303Y-1137D02*
X266Y-1041D01*
X230Y-1137D01*
X243Y-1105D02*
X289D01*
X325Y-1041D02*
Y-1137D01*
Y-1041D02*
X389Y-1137D01*
Y-1041D02*
Y-1137D01*
X416Y-1041D02*
Y-1137D01*
Y-1041D02*
X448D01*
X461Y-1046D01*
X471Y-1055D01*
X475Y-1064D01*
X480Y-1078D01*
Y-1100D01*
X475Y-1114D01*
X471Y-1123D01*
X461Y-1132D01*
X448Y-1137D01*
X416D01*
X501Y-1041D02*
Y-1137D01*
X565Y-1041D02*
Y-1137D01*
X501Y-1087D02*
X565D01*
X651Y-1041D02*
X592D01*
Y-1137D01*
X651D01*
X592Y-1087D02*
X628D01*
X667Y-1041D02*
Y-1137D01*
X722D01*
X732Y-1041D02*
Y-1137D01*
Y-1041D02*
X764D01*
X778Y-1046D01*
X787Y-1055D01*
X792Y-1064D01*
X796Y-1078D01*
Y-1100D01*
X792Y-1114D01*
X787Y-1123D01*
X778Y-1132D01*
X764Y-1137D01*
X732D01*
X-420Y-839D02*
X-456Y-743D01*
X-493Y-839D01*
X-479Y-807D02*
X-434D01*
X-343Y-789D02*
X-352Y-780D01*
X-361Y-775D01*
X-375D01*
X-384Y-780D01*
X-393Y-789D01*
X-397Y-802D01*
Y-812D01*
X-393Y-825D01*
X-384Y-834D01*
X-375Y-839D01*
X-361D01*
X-352Y-834D01*
X-343Y-825D01*
X-308Y-743D02*
Y-821D01*
X-304Y-834D01*
X-295Y-839D01*
X-285D01*
X-322Y-775D02*
X-290D01*
X-263Y-743D02*
X-258Y-748D01*
X-253Y-743D01*
X-258Y-738D01*
X-263Y-743D01*
X-258Y-775D02*
Y-839D01*
X-237Y-775D02*
X-209Y-839D01*
X-182Y-775D02*
X-209Y-839D01*
X-166Y-802D02*
X-111D01*
Y-793D01*
X-116Y-784D01*
X-120Y-780D01*
X-130Y-775D01*
X-143D01*
X-152Y-780D01*
X-162Y-789D01*
X-166Y-802D01*
Y-812D01*
X-162Y-825D01*
X-152Y-834D01*
X-143Y-839D01*
X-130D01*
X-120Y-834D01*
X-111Y-825D01*
X-15Y-743D02*
X7Y-839D01*
X30Y-743D02*
X7Y-839D01*
X30Y-743D02*
X53Y-839D01*
X76Y-743D02*
X53Y-839D01*
X150Y-775D02*
Y-839D01*
Y-789D02*
X141Y-780D01*
X132Y-775D01*
X118D01*
X109Y-780D01*
X100Y-789D01*
X95Y-802D01*
Y-812D01*
X100Y-825D01*
X109Y-834D01*
X118Y-839D01*
X132D01*
X141Y-834D01*
X150Y-825D01*
X176Y-775D02*
X203Y-839D01*
X231Y-775D02*
X203Y-839D01*
X246Y-802D02*
X301D01*
Y-793D01*
X296Y-784D01*
X292Y-780D01*
X283Y-775D01*
X269D01*
X260Y-780D01*
X251Y-789D01*
X246Y-802D01*
Y-812D01*
X251Y-825D01*
X260Y-834D01*
X269Y-839D01*
X283D01*
X292Y-834D01*
X301Y-825D01*
X1992Y-1516D02*
X1997Y-1514D01*
X2004Y-1506D01*
Y-1559D01*
X2033Y-1519D02*
Y-1516D01*
X2036Y-1511D01*
X2039Y-1509D01*
X2044Y-1506D01*
X2054D01*
X2059Y-1509D01*
X2061Y-1511D01*
X2064Y-1516D01*
Y-1521D01*
X2061Y-1526D01*
X2056Y-1534D01*
X2031Y-1559D01*
X2066D01*
X2109Y-1506D02*
X2083D01*
X2081Y-1529D01*
X2083Y-1526D01*
X2091Y-1524D01*
X2099D01*
X2106Y-1526D01*
X2111Y-1531D01*
X2114Y-1539D01*
Y-1544D01*
X2111Y-1552D01*
X2106Y-1557D01*
X2099Y-1559D01*
X2091D01*
X2083Y-1557D01*
X2081Y-1554D01*
X2078Y-1549D01*
X2126Y-1567D02*
X2161Y-1506D01*
X2167Y-1519D02*
Y-1516D01*
X2170Y-1511D01*
X2173Y-1509D01*
X2178Y-1506D01*
X2188D01*
X2193Y-1509D01*
X2195Y-1511D01*
X2198Y-1516D01*
Y-1521D01*
X2195Y-1526D01*
X2190Y-1534D01*
X2165Y-1559D01*
X2201D01*
X2228Y-1506D02*
X2220Y-1509D01*
X2215Y-1516D01*
X2212Y-1529D01*
Y-1537D01*
X2215Y-1549D01*
X2220Y-1557D01*
X2228Y-1559D01*
X2233D01*
X2240Y-1557D01*
X2245Y-1549D01*
X2248Y-1537D01*
Y-1529D01*
X2245Y-1516D01*
X2240Y-1509D01*
X2233Y-1506D01*
X2228D01*
X2260Y-1516D02*
X2265Y-1514D01*
X2273Y-1506D01*
Y-1559D01*
X2302Y-1519D02*
Y-1516D01*
X2304Y-1511D01*
X2307Y-1509D01*
X2312Y-1506D01*
X2322D01*
X2327Y-1509D01*
X2329Y-1511D01*
X2332Y-1516D01*
Y-1521D01*
X2329Y-1526D01*
X2324Y-1534D01*
X2299Y-1559D01*
X2335D01*
D50*
X1577Y-1453D02*
Y-1506D01*
Y-1453D02*
X1595D01*
X1602Y-1456D01*
X1607Y-1461D01*
X1610Y-1466D01*
X1613Y-1473D01*
Y-1486D01*
X1610Y-1494D01*
X1607Y-1499D01*
X1602Y-1504D01*
X1595Y-1506D01*
X1577D01*
X1665D02*
X1645Y-1453D01*
X1624Y-1506D01*
X1632Y-1489D02*
X1658D01*
X1695Y-1453D02*
Y-1506D01*
X1678Y-1453D02*
X1713D01*
X1752D02*
X1719D01*
Y-1506D01*
X1752D01*
X1719Y-1479D02*
X1740D01*
X1764Y-1471D02*
X1761Y-1473D01*
X1764Y-1476D01*
X1766Y-1473D01*
X1764Y-1471D01*
Y-1501D02*
X1761Y-1504D01*
X1764Y-1506D01*
X1766Y-1504D01*
X1764Y-1501D01*
X1115Y-1453D02*
Y-1506D01*
Y-1453D02*
X1137D01*
X1145Y-1456D01*
X1148Y-1458D01*
X1150Y-1463D01*
Y-1468D01*
X1148Y-1473D01*
X1145Y-1476D01*
X1137Y-1479D01*
X1115D01*
X1132D02*
X1150Y-1506D01*
X1195Y-1453D02*
X1162D01*
Y-1506D01*
X1195D01*
X1162Y-1479D02*
X1182D01*
X1204Y-1453D02*
X1224Y-1506D01*
X1245Y-1453D02*
X1224Y-1506D01*
X1254Y-1471D02*
X1251Y-1473D01*
X1254Y-1476D01*
X1256Y-1473D01*
X1254Y-1471D01*
Y-1501D02*
X1251Y-1504D01*
X1254Y-1506D01*
X1256Y-1504D01*
X1254Y-1501D01*
X-1523Y-1206D02*
X-1500D01*
X-1493Y-1204D01*
X-1490Y-1201D01*
X-1487Y-1196D01*
Y-1188D01*
X-1490Y-1183D01*
X-1493Y-1181D01*
X-1500Y-1178D01*
X-1523D01*
Y-1231D01*
X-1476Y-1178D02*
Y-1231D01*
X-1440Y-1178D02*
Y-1231D01*
X-1476Y-1204D02*
X-1440D01*
X-1410Y-1178D02*
X-1415Y-1181D01*
X-1420Y-1186D01*
X-1423Y-1191D01*
X-1425Y-1198D01*
Y-1211D01*
X-1423Y-1219D01*
X-1420Y-1224D01*
X-1415Y-1229D01*
X-1410Y-1231D01*
X-1400D01*
X-1395Y-1229D01*
X-1390Y-1224D01*
X-1387Y-1219D01*
X-1385Y-1211D01*
Y-1198D01*
X-1387Y-1191D01*
X-1390Y-1186D01*
X-1395Y-1181D01*
X-1400Y-1178D01*
X-1410D01*
X-1372D02*
Y-1231D01*
Y-1178D02*
X-1337Y-1231D01*
Y-1178D02*
Y-1231D01*
X-1289Y-1178D02*
X-1322D01*
Y-1231D01*
X-1289D01*
X-1322Y-1204D02*
X-1302D01*
X-1277Y-1196D02*
X-1280Y-1198D01*
X-1277Y-1201D01*
X-1275Y-1198D01*
X-1277Y-1196D01*
Y-1226D02*
X-1280Y-1229D01*
X-1277Y-1231D01*
X-1275Y-1229D01*
X-1277Y-1226D01*
X-1523Y-1581D02*
X-1500D01*
X-1493Y-1579D01*
X-1490Y-1576D01*
X-1487Y-1571D01*
Y-1563D01*
X-1490Y-1558D01*
X-1493Y-1556D01*
X-1500Y-1553D01*
X-1523D01*
Y-1606D01*
X-1476Y-1553D02*
Y-1606D01*
X-1440Y-1553D02*
Y-1606D01*
X-1476Y-1579D02*
X-1440D01*
X-1410Y-1553D02*
X-1415Y-1556D01*
X-1420Y-1561D01*
X-1423Y-1566D01*
X-1425Y-1573D01*
Y-1586D01*
X-1423Y-1594D01*
X-1420Y-1599D01*
X-1415Y-1604D01*
X-1410Y-1606D01*
X-1400D01*
X-1395Y-1604D01*
X-1390Y-1599D01*
X-1387Y-1594D01*
X-1385Y-1586D01*
Y-1573D01*
X-1387Y-1566D01*
X-1390Y-1561D01*
X-1395Y-1556D01*
X-1400Y-1553D01*
X-1410D01*
X-1372D02*
Y-1606D01*
Y-1553D02*
X-1337Y-1606D01*
Y-1553D02*
Y-1606D01*
X-1289Y-1553D02*
X-1322D01*
Y-1606D01*
X-1289D01*
X-1322Y-1579D02*
X-1302D01*
X-1277Y-1571D02*
X-1280Y-1573D01*
X-1277Y-1576D01*
X-1275Y-1573D01*
X-1277Y-1571D01*
Y-1601D02*
X-1280Y-1604D01*
X-1277Y-1606D01*
X-1275Y-1604D01*
X-1277Y-1601D01*
X317Y-1731D02*
Y-1784D01*
X347D01*
X394D02*
X374Y-1731D01*
X353Y-1784D01*
X361Y-1766D02*
X386D01*
X406Y-1731D02*
X427Y-1756D01*
Y-1784D01*
X447Y-1731D02*
X427Y-1756D01*
X487Y-1731D02*
X454D01*
Y-1784D01*
X487D01*
X454Y-1756D02*
X474D01*
X496Y-1731D02*
Y-1784D01*
Y-1731D02*
X519D01*
X526Y-1733D01*
X529Y-1736D01*
X531Y-1741D01*
Y-1746D01*
X529Y-1751D01*
X526Y-1753D01*
X519Y-1756D01*
X496D01*
X514D02*
X531Y-1784D01*
X546Y-1748D02*
X543Y-1751D01*
X546Y-1753D01*
X548Y-1751D01*
X546Y-1748D01*
Y-1779D02*
X543Y-1781D01*
X546Y-1784D01*
X548Y-1781D01*
X546Y-1779D01*
X-1490Y-991D02*
X-1523D01*
Y-1044D01*
X-1490D01*
X-1523Y-1016D02*
X-1503D01*
X-1481Y-991D02*
Y-1044D01*
Y-991D02*
X-1446Y-1044D01*
Y-991D02*
Y-1044D01*
X-1393Y-1003D02*
X-1395Y-998D01*
X-1400Y-993D01*
X-1405Y-991D01*
X-1416D01*
X-1421Y-993D01*
X-1426Y-998D01*
X-1428Y-1003D01*
X-1431Y-1011D01*
Y-1024D01*
X-1428Y-1031D01*
X-1426Y-1036D01*
X-1421Y-1041D01*
X-1416Y-1044D01*
X-1405D01*
X-1400Y-1041D01*
X-1395Y-1036D01*
X-1393Y-1031D01*
Y-1024D01*
X-1405D02*
X-1393D01*
X-1381Y-991D02*
Y-1044D01*
X-1369Y-991D02*
Y-1044D01*
Y-991D02*
X-1334Y-1044D01*
Y-991D02*
Y-1044D01*
X-1286Y-991D02*
X-1319D01*
Y-1044D01*
X-1286D01*
X-1319Y-1016D02*
X-1299D01*
X-1244Y-991D02*
X-1277D01*
Y-1044D01*
X-1244D01*
X-1277Y-1016D02*
X-1257D01*
X-1235Y-991D02*
Y-1044D01*
Y-991D02*
X-1212D01*
X-1205Y-993D01*
X-1202Y-996D01*
X-1200Y-1001D01*
Y-1006D01*
X-1202Y-1011D01*
X-1205Y-1013D01*
X-1212Y-1016D01*
X-1235D01*
X-1218D02*
X-1200Y-1044D01*
X-1185Y-1008D02*
X-1188Y-1011D01*
X-1185Y-1013D01*
X-1183Y-1011D01*
X-1185Y-1008D01*
Y-1039D02*
X-1188Y-1041D01*
X-1185Y-1044D01*
X-1183Y-1041D01*
X-1185Y-1039D01*
X-623Y-1481D02*
X-600D01*
X-593Y-1479D01*
X-590Y-1476D01*
X-587Y-1471D01*
Y-1463D01*
X-590Y-1458D01*
X-593Y-1456D01*
X-600Y-1453D01*
X-623D01*
Y-1506D01*
X-535D02*
X-555Y-1453D01*
X-576Y-1506D01*
X-568Y-1489D02*
X-542D01*
X-522Y-1453D02*
Y-1506D01*
Y-1453D02*
X-500D01*
X-492Y-1456D01*
X-489Y-1458D01*
X-487Y-1463D01*
Y-1468D01*
X-489Y-1473D01*
X-492Y-1476D01*
X-500Y-1479D01*
X-522D01*
X-505D02*
X-487Y-1506D01*
X-457Y-1453D02*
Y-1506D01*
X-475Y-1453D02*
X-439D01*
X-391D02*
Y-1506D01*
Y-1453D02*
X-356Y-1506D01*
Y-1453D02*
Y-1506D01*
X-326Y-1453D02*
X-331Y-1456D01*
X-336Y-1461D01*
X-338Y-1466D01*
X-341Y-1473D01*
Y-1486D01*
X-338Y-1494D01*
X-336Y-1499D01*
X-331Y-1504D01*
X-326Y-1506D01*
X-315D01*
X-310Y-1504D01*
X-305Y-1499D01*
X-303Y-1494D01*
X-300Y-1486D01*
Y-1473D01*
X-303Y-1466D01*
X-305Y-1461D01*
X-310Y-1456D01*
X-315Y-1453D01*
X-326D01*
X-285Y-1501D02*
X-288Y-1504D01*
X-285Y-1506D01*
X-283Y-1504D01*
X-285Y-1501D01*
X-269Y-1471D02*
X-271Y-1473D01*
X-269Y-1476D01*
X-266Y-1473D01*
X-269Y-1471D01*
Y-1501D02*
X-271Y-1504D01*
X-269Y-1506D01*
X-266Y-1504D01*
X-269Y-1501D01*
X-618Y-978D02*
Y-1031D01*
X-635Y-978D02*
X-600D01*
X-594D02*
Y-1031D01*
X-565Y-978D02*
Y-1031D01*
X-582Y-978D02*
X-547D01*
X-541D02*
Y-1031D01*
X-510D01*
X-471Y-978D02*
X-504D01*
Y-1031D01*
X-471D01*
X-504Y-1004D02*
X-484D01*
X-460Y-996D02*
X-462Y-998D01*
X-460Y-1001D01*
X-457Y-998D01*
X-460Y-996D01*
Y-1026D02*
X-462Y-1029D01*
X-460Y-1031D01*
X-457Y-1029D01*
X-460Y-1026D01*
X-1523Y-1371D02*
Y-1424D01*
Y-1371D02*
X-1505D01*
X-1498Y-1373D01*
X-1493Y-1378D01*
X-1490Y-1383D01*
X-1487Y-1391D01*
Y-1404D01*
X-1490Y-1411D01*
X-1493Y-1416D01*
X-1498Y-1421D01*
X-1505Y-1424D01*
X-1523D01*
X-1476Y-1388D02*
Y-1424D01*
Y-1404D02*
X-1473Y-1396D01*
X-1468Y-1391D01*
X-1463Y-1388D01*
X-1455D01*
X-1420D02*
Y-1424D01*
Y-1396D02*
X-1425Y-1391D01*
X-1430Y-1388D01*
X-1438D01*
X-1443Y-1391D01*
X-1448Y-1396D01*
X-1450Y-1404D01*
Y-1409D01*
X-1448Y-1416D01*
X-1443Y-1421D01*
X-1438Y-1424D01*
X-1430D01*
X-1425Y-1421D01*
X-1420Y-1416D01*
X-1406Y-1388D02*
X-1396Y-1424D01*
X-1385Y-1388D02*
X-1396Y-1424D01*
X-1385Y-1388D02*
X-1375Y-1424D01*
X-1365Y-1388D02*
X-1375Y-1424D01*
X-1353Y-1388D02*
Y-1424D01*
Y-1399D02*
X-1345Y-1391D01*
X-1340Y-1388D01*
X-1332D01*
X-1327Y-1391D01*
X-1325Y-1399D01*
Y-1424D01*
X-1269Y-1371D02*
Y-1424D01*
Y-1396D02*
X-1264Y-1391D01*
X-1259Y-1388D01*
X-1251D01*
X-1246Y-1391D01*
X-1241Y-1396D01*
X-1238Y-1404D01*
Y-1409D01*
X-1241Y-1416D01*
X-1246Y-1421D01*
X-1251Y-1424D01*
X-1259D01*
X-1264Y-1421D01*
X-1269Y-1416D01*
X-1224Y-1388D02*
X-1209Y-1424D01*
X-1194Y-1388D02*
X-1209Y-1424D01*
X-1214Y-1434D01*
X-1219Y-1439D01*
X-1224Y-1442D01*
X-1227D01*
X-1182Y-1388D02*
X-1185Y-1391D01*
X-1182Y-1393D01*
X-1180Y-1391D01*
X-1182Y-1388D01*
Y-1419D02*
X-1185Y-1421D01*
X-1182Y-1424D01*
X-1180Y-1421D01*
X-1182Y-1419D01*
X-1523Y-1731D02*
Y-1784D01*
Y-1731D02*
X-1490D01*
X-1523Y-1756D02*
X-1503D01*
X-1484Y-1731D02*
Y-1784D01*
X-1473Y-1731D02*
Y-1784D01*
X-1442D01*
X-1403Y-1731D02*
X-1436D01*
Y-1784D01*
X-1403D01*
X-1436Y-1756D02*
X-1416D01*
X-1353Y-1731D02*
Y-1784D01*
Y-1731D02*
X-1317Y-1784D01*
Y-1731D02*
Y-1784D01*
X-1262D02*
X-1282Y-1731D01*
X-1302Y-1784D01*
X-1295Y-1766D02*
X-1269D01*
X-1249Y-1731D02*
Y-1784D01*
Y-1731D02*
X-1229Y-1784D01*
X-1209Y-1731D02*
X-1229Y-1784D01*
X-1209Y-1731D02*
Y-1784D01*
X-1160Y-1731D02*
X-1193D01*
Y-1784D01*
X-1160D01*
X-1193Y-1756D02*
X-1173D01*
X-1149Y-1748D02*
X-1152Y-1751D01*
X-1149Y-1753D01*
X-1146Y-1751D01*
X-1149Y-1748D01*
Y-1779D02*
X-1152Y-1781D01*
X-1149Y-1784D01*
X-1146Y-1781D01*
X-1149Y-1779D01*
X2175Y-1743D02*
X2173Y-1738D01*
X2167Y-1733D01*
X2162Y-1731D01*
X2152D01*
X2147Y-1733D01*
X2142Y-1738D01*
X2140Y-1743D01*
X2137Y-1751D01*
Y-1764D01*
X2140Y-1771D01*
X2142Y-1776D01*
X2147Y-1781D01*
X2152Y-1784D01*
X2162D01*
X2167Y-1781D01*
X2173Y-1776D01*
X2175Y-1771D01*
Y-1764D01*
X2162D02*
X2175D01*
X2220Y-1731D02*
X2187D01*
Y-1784D01*
X2220D01*
X2187Y-1756D02*
X2208D01*
X2229Y-1731D02*
Y-1784D01*
Y-1731D02*
X2252D01*
X2260Y-1733D01*
X2262Y-1736D01*
X2265Y-1741D01*
Y-1746D01*
X2262Y-1751D01*
X2260Y-1753D01*
X2252Y-1756D01*
X2229D01*
X2247D02*
X2265Y-1784D01*
X2277Y-1731D02*
Y-1784D01*
Y-1731D02*
X2300D01*
X2307Y-1733D01*
X2310Y-1736D01*
X2312Y-1741D01*
Y-1746D01*
X2310Y-1751D01*
X2307Y-1753D01*
X2300Y-1756D01*
X2277D02*
X2300D01*
X2307Y-1759D01*
X2310Y-1761D01*
X2312Y-1766D01*
Y-1774D01*
X2310Y-1779D01*
X2307Y-1781D01*
X2300Y-1784D01*
X2277D01*
X2357Y-1731D02*
X2324D01*
Y-1784D01*
X2357D01*
X2324Y-1756D02*
X2344D01*
X2366Y-1731D02*
Y-1784D01*
Y-1731D02*
X2389D01*
X2397Y-1733D01*
X2399Y-1736D01*
X2402Y-1741D01*
Y-1746D01*
X2399Y-1751D01*
X2397Y-1753D01*
X2389Y-1756D01*
X2366D01*
X2384D02*
X2402Y-1784D01*
X2416Y-1748D02*
X2414Y-1751D01*
X2416Y-1753D01*
X2419Y-1751D01*
X2416Y-1748D01*
Y-1779D02*
X2414Y-1781D01*
X2416Y-1784D01*
X2419Y-1781D01*
X2416Y-1779D01*
D51*
X1694Y-855D02*
X1656Y-755D01*
X1618Y-855D01*
X1632Y-821D02*
X1680D01*
X1775Y-802D02*
X1765Y-793D01*
X1756Y-788D01*
X1741D01*
X1732Y-793D01*
X1722Y-802D01*
X1718Y-817D01*
Y-826D01*
X1722Y-840D01*
X1732Y-850D01*
X1741Y-855D01*
X1756D01*
X1765Y-850D01*
X1775Y-840D01*
X1810Y-755D02*
Y-836D01*
X1815Y-850D01*
X1825Y-855D01*
X1834D01*
X1796Y-788D02*
X1829D01*
X1858Y-755D02*
X1863Y-760D01*
X1868Y-755D01*
X1863Y-750D01*
X1858Y-755D01*
X1863Y-788D02*
Y-855D01*
X1885Y-788D02*
X1914Y-855D01*
X1942Y-788D02*
X1914Y-855D01*
X1958Y-817D02*
X2016D01*
Y-807D01*
X2011Y-798D01*
X2006Y-793D01*
X1997Y-788D01*
X1982D01*
X1973Y-793D01*
X1963Y-802D01*
X1958Y-817D01*
Y-826D01*
X1963Y-840D01*
X1973Y-850D01*
X1982Y-855D01*
X1997D01*
X2006Y-850D01*
X2016Y-840D01*
X2116Y-755D02*
X2139Y-855D01*
X2163Y-755D02*
X2139Y-855D01*
X2163Y-755D02*
X2187Y-855D01*
X2211Y-755D02*
X2187Y-855D01*
X2288Y-788D02*
Y-855D01*
Y-802D02*
X2278Y-793D01*
X2269Y-788D01*
X2255D01*
X2245Y-793D01*
X2236Y-802D01*
X2231Y-817D01*
Y-826D01*
X2236Y-840D01*
X2245Y-850D01*
X2255Y-855D01*
X2269D01*
X2278Y-850D01*
X2288Y-840D01*
X2315Y-788D02*
X2343Y-855D01*
X2372Y-788D02*
X2343Y-855D01*
X2388Y-817D02*
X2445D01*
Y-807D01*
X2440Y-798D01*
X2436Y-793D01*
X2426Y-788D01*
X2412D01*
X2402Y-793D01*
X2393Y-802D01*
X2388Y-817D01*
Y-826D01*
X2393Y-840D01*
X2402Y-850D01*
X2412Y-855D01*
X2426D01*
X2436Y-850D01*
X2445Y-840D01*
X3611Y-1651D02*
X3606Y-1665D01*
X3597Y-1675D01*
X3582Y-1679D01*
X3578D01*
X3563Y-1675D01*
X3554Y-1665D01*
X3549Y-1651D01*
Y-1646D01*
X3554Y-1632D01*
X3563Y-1622D01*
X3578Y-1617D01*
X3582D01*
X3597Y-1622D01*
X3606Y-1632D01*
X3611Y-1651D01*
Y-1675D01*
X3606Y-1698D01*
X3597Y-1713D01*
X3582Y-1717D01*
X3573D01*
X3559Y-1713D01*
X3554Y-1703D01*
X3638Y-1598D02*
X3648Y-1608D01*
X3657Y-1622D01*
X3667Y-1641D01*
X3671Y-1665D01*
Y-1684D01*
X3667Y-1708D01*
X3657Y-1727D01*
X3648Y-1741D01*
X3638Y-1751D01*
X3648Y-1608D02*
X3657Y-1627D01*
X3662Y-1641D01*
X3667Y-1665D01*
Y-1684D01*
X3662Y-1708D01*
X3657Y-1722D01*
X3648Y-1741D01*
X3846Y-1641D02*
X3841Y-1632D01*
X3831Y-1622D01*
X3822Y-1617D01*
X3803D01*
X3793Y-1622D01*
X3784Y-1632D01*
X3779Y-1641D01*
X3774Y-1655D01*
Y-1679D01*
X3779Y-1694D01*
X3784Y-1703D01*
X3793Y-1713D01*
X3803Y-1717D01*
X3822D01*
X3831Y-1713D01*
X3841Y-1703D01*
X3846Y-1694D01*
Y-1679D01*
X3822D02*
X3846D01*
X3868Y-1617D02*
Y-1717D01*
Y-1617D02*
X3911D01*
X3926Y-1622D01*
X3930Y-1627D01*
X3935Y-1636D01*
Y-1646D01*
X3930Y-1655D01*
X3926Y-1660D01*
X3911Y-1665D01*
X3868D01*
X3902D02*
X3935Y-1717D01*
X4019Y-1617D02*
X3957D01*
Y-1717D01*
X4019D01*
X3957Y-1665D02*
X3996D01*
X4098Y-1617D02*
X4036D01*
Y-1717D01*
X4098D01*
X4036Y-1665D02*
X4074D01*
X4115Y-1617D02*
Y-1717D01*
Y-1617D02*
X4181Y-1717D01*
Y-1617D02*
Y-1717D01*
X4354Y-1632D02*
X4345Y-1622D01*
X4330Y-1617D01*
X4311D01*
X4297Y-1622D01*
X4287Y-1632D01*
Y-1641D01*
X4292Y-1651D01*
X4297Y-1655D01*
X4306Y-1660D01*
X4335Y-1670D01*
X4345Y-1675D01*
X4349Y-1679D01*
X4354Y-1689D01*
Y-1703D01*
X4345Y-1713D01*
X4330Y-1717D01*
X4311D01*
X4297Y-1713D01*
X4287Y-1703D01*
X4405Y-1617D02*
X4395Y-1622D01*
X4386Y-1632D01*
X4381Y-1641D01*
X4376Y-1655D01*
Y-1679D01*
X4381Y-1694D01*
X4386Y-1703D01*
X4395Y-1713D01*
X4405Y-1717D01*
X4424D01*
X4434Y-1713D01*
X4443Y-1703D01*
X4448Y-1694D01*
X4453Y-1679D01*
Y-1655D01*
X4448Y-1641D01*
X4443Y-1632D01*
X4434Y-1622D01*
X4424Y-1617D01*
X4405D01*
X4476D02*
Y-1717D01*
X4533D01*
X4544Y-1617D02*
Y-1717D01*
Y-1617D02*
X4577D01*
X4592Y-1622D01*
X4601Y-1632D01*
X4606Y-1641D01*
X4611Y-1655D01*
Y-1679D01*
X4606Y-1694D01*
X4601Y-1703D01*
X4592Y-1713D01*
X4577Y-1717D01*
X4544D01*
X4695Y-1617D02*
X4633D01*
Y-1717D01*
X4695D01*
X4633Y-1665D02*
X4671D01*
X4712Y-1617D02*
Y-1717D01*
Y-1617D02*
X4754D01*
X4769Y-1622D01*
X4773Y-1627D01*
X4778Y-1636D01*
Y-1646D01*
X4773Y-1655D01*
X4769Y-1660D01*
X4754Y-1665D01*
X4712D01*
X4745D02*
X4778Y-1717D01*
X4879Y-1617D02*
Y-1717D01*
Y-1617D02*
X4917Y-1717D01*
X4955Y-1617D02*
X4917Y-1717D01*
X4955Y-1617D02*
Y-1717D01*
X5060D02*
X5022Y-1617D01*
X4984Y-1717D01*
X4998Y-1684D02*
X5046D01*
X5150Y-1632D02*
X5141Y-1622D01*
X5126Y-1617D01*
X5107D01*
X5093Y-1622D01*
X5083Y-1632D01*
Y-1641D01*
X5088Y-1651D01*
X5093Y-1655D01*
X5102Y-1660D01*
X5131Y-1670D01*
X5141Y-1675D01*
X5145Y-1679D01*
X5150Y-1689D01*
Y-1703D01*
X5141Y-1713D01*
X5126Y-1717D01*
X5107D01*
X5093Y-1713D01*
X5083Y-1703D01*
X5172Y-1617D02*
Y-1717D01*
X5239Y-1617D02*
X5172Y-1684D01*
X5196Y-1660D02*
X5239Y-1717D01*
X5340Y-1617D02*
Y-1717D01*
Y-1617D02*
X5383D01*
X5397Y-1622D01*
X5402Y-1627D01*
X5407Y-1636D01*
Y-1646D01*
X5402Y-1655D01*
X5397Y-1660D01*
X5383Y-1665D01*
X5340D02*
X5383D01*
X5397Y-1670D01*
X5402Y-1675D01*
X5407Y-1684D01*
Y-1698D01*
X5402Y-1708D01*
X5397Y-1713D01*
X5383Y-1717D01*
X5340D01*
X5458Y-1617D02*
X5448Y-1622D01*
X5439Y-1632D01*
X5434Y-1641D01*
X5429Y-1655D01*
Y-1679D01*
X5434Y-1694D01*
X5439Y-1703D01*
X5448Y-1713D01*
X5458Y-1717D01*
X5477D01*
X5486Y-1713D01*
X5496Y-1703D01*
X5500Y-1694D01*
X5505Y-1679D01*
Y-1655D01*
X5500Y-1641D01*
X5496Y-1632D01*
X5486Y-1622D01*
X5477Y-1617D01*
X5458D01*
X5562D02*
Y-1717D01*
X5529Y-1617D02*
X5595D01*
X5607D02*
Y-1717D01*
X5674Y-1617D02*
Y-1717D01*
X5607Y-1665D02*
X5674D01*
X5847Y-1632D02*
X5837Y-1622D01*
X5823Y-1617D01*
X5804D01*
X5789Y-1622D01*
X5780Y-1632D01*
Y-1641D01*
X5785Y-1651D01*
X5789Y-1655D01*
X5799Y-1660D01*
X5828Y-1670D01*
X5837Y-1675D01*
X5842Y-1679D01*
X5847Y-1689D01*
Y-1703D01*
X5837Y-1713D01*
X5823Y-1717D01*
X5804D01*
X5789Y-1713D01*
X5780Y-1703D01*
X5869Y-1617D02*
Y-1717D01*
X5890Y-1617D02*
Y-1717D01*
Y-1617D02*
X5923D01*
X5938Y-1622D01*
X5947Y-1632D01*
X5952Y-1641D01*
X5957Y-1655D01*
Y-1679D01*
X5952Y-1694D01*
X5947Y-1703D01*
X5938Y-1713D01*
X5923Y-1717D01*
X5890D01*
X6041Y-1617D02*
X5979D01*
Y-1717D01*
X6041D01*
X5979Y-1665D02*
X6017D01*
X6124Y-1632D02*
X6115Y-1622D01*
X6100Y-1617D01*
X6081D01*
X6067Y-1622D01*
X6058Y-1632D01*
Y-1641D01*
X6062Y-1651D01*
X6067Y-1655D01*
X6077Y-1660D01*
X6105Y-1670D01*
X6115Y-1675D01*
X6119Y-1679D01*
X6124Y-1689D01*
Y-1703D01*
X6115Y-1713D01*
X6100Y-1717D01*
X6081D01*
X6067Y-1713D01*
X6058Y-1703D01*
X3578Y-1401D02*
X3564Y-1406D01*
X3559Y-1416D01*
Y-1425D01*
X3564Y-1435D01*
X3573Y-1439D01*
X3592Y-1444D01*
X3606Y-1449D01*
X3616Y-1459D01*
X3621Y-1468D01*
Y-1482D01*
X3616Y-1492D01*
X3611Y-1497D01*
X3597Y-1501D01*
X3578D01*
X3564Y-1497D01*
X3559Y-1492D01*
X3554Y-1482D01*
Y-1468D01*
X3559Y-1459D01*
X3568Y-1449D01*
X3583Y-1444D01*
X3602Y-1439D01*
X3611Y-1435D01*
X3616Y-1425D01*
Y-1416D01*
X3611Y-1406D01*
X3597Y-1401D01*
X3578D01*
X3643Y-1382D02*
X3653Y-1392D01*
X3662Y-1406D01*
X3672Y-1425D01*
X3676Y-1449D01*
Y-1468D01*
X3672Y-1492D01*
X3662Y-1511D01*
X3653Y-1525D01*
X3643Y-1535D01*
X3653Y-1392D02*
X3662Y-1411D01*
X3667Y-1425D01*
X3672Y-1449D01*
Y-1468D01*
X3667Y-1492D01*
X3662Y-1506D01*
X3653Y-1525D01*
X3846Y-1416D02*
X3836Y-1406D01*
X3822Y-1401D01*
X3803D01*
X3789Y-1406D01*
X3779Y-1416D01*
Y-1425D01*
X3784Y-1435D01*
X3789Y-1439D01*
X3798Y-1444D01*
X3827Y-1454D01*
X3836Y-1459D01*
X3841Y-1463D01*
X3846Y-1473D01*
Y-1487D01*
X3836Y-1497D01*
X3822Y-1501D01*
X3803D01*
X3789Y-1497D01*
X3779Y-1487D01*
X3868Y-1401D02*
Y-1501D01*
X3889Y-1401D02*
Y-1501D01*
X3946D01*
X3957Y-1401D02*
Y-1501D01*
X4024Y-1401D02*
X3957Y-1468D01*
X3981Y-1444D02*
X4024Y-1501D01*
X4113Y-1416D02*
X4103Y-1406D01*
X4089Y-1401D01*
X4070D01*
X4056Y-1406D01*
X4046Y-1416D01*
Y-1425D01*
X4051Y-1435D01*
X4056Y-1439D01*
X4065Y-1444D01*
X4094Y-1454D01*
X4103Y-1459D01*
X4108Y-1463D01*
X4113Y-1473D01*
Y-1487D01*
X4103Y-1497D01*
X4089Y-1501D01*
X4070D01*
X4056Y-1497D01*
X4046Y-1487D01*
X4207Y-1425D02*
X4202Y-1416D01*
X4192Y-1406D01*
X4183Y-1401D01*
X4164D01*
X4154Y-1406D01*
X4145Y-1416D01*
X4140Y-1425D01*
X4135Y-1439D01*
Y-1463D01*
X4140Y-1478D01*
X4145Y-1487D01*
X4154Y-1497D01*
X4164Y-1501D01*
X4183D01*
X4192Y-1497D01*
X4202Y-1487D01*
X4207Y-1478D01*
X4235Y-1401D02*
Y-1501D01*
Y-1401D02*
X4278D01*
X4292Y-1406D01*
X4297Y-1411D01*
X4301Y-1420D01*
Y-1430D01*
X4297Y-1439D01*
X4292Y-1444D01*
X4278Y-1449D01*
X4235D01*
X4268D02*
X4301Y-1501D01*
X4386Y-1401D02*
X4324D01*
Y-1501D01*
X4386D01*
X4324Y-1449D02*
X4362D01*
X4464Y-1401D02*
X4402D01*
Y-1501D01*
X4464D01*
X4402Y-1449D02*
X4440D01*
X4481Y-1401D02*
Y-1501D01*
Y-1401D02*
X4548Y-1501D01*
Y-1401D02*
Y-1501D01*
X4682Y-1401D02*
X4673Y-1406D01*
X4663Y-1416D01*
X4659Y-1425D01*
X4654Y-1439D01*
Y-1463D01*
X4659Y-1478D01*
X4663Y-1487D01*
X4673Y-1497D01*
X4682Y-1501D01*
X4701D01*
X4711Y-1497D01*
X4720Y-1487D01*
X4725Y-1478D01*
X4730Y-1463D01*
Y-1439D01*
X4725Y-1425D01*
X4720Y-1416D01*
X4711Y-1406D01*
X4701Y-1401D01*
X4682D01*
X4753D02*
X4791Y-1501D01*
X4829Y-1401D02*
X4791Y-1501D01*
X4904Y-1401D02*
X4842D01*
Y-1501D01*
X4904D01*
X4842Y-1449D02*
X4880D01*
X4921Y-1401D02*
Y-1501D01*
Y-1401D02*
X4964D01*
X4978Y-1406D01*
X4983Y-1411D01*
X4988Y-1420D01*
Y-1430D01*
X4983Y-1439D01*
X4978Y-1444D01*
X4964Y-1449D01*
X4921D01*
X4954D02*
X4988Y-1501D01*
X5122Y-1401D02*
Y-1501D01*
X5088Y-1401D02*
X5155D01*
X5229D02*
X5167D01*
Y-1501D01*
X5229D01*
X5167Y-1449D02*
X5205D01*
X5246Y-1401D02*
Y-1501D01*
Y-1401D02*
X5312Y-1501D01*
Y-1401D02*
Y-1501D01*
X5373Y-1401D02*
Y-1501D01*
X5340Y-1401D02*
X5406D01*
X5480D02*
X5418D01*
Y-1501D01*
X5480D01*
X5418Y-1449D02*
X5456D01*
X5497Y-1401D02*
Y-1501D01*
Y-1401D02*
X5530D01*
X5545Y-1406D01*
X5554Y-1416D01*
X5559Y-1425D01*
X5564Y-1439D01*
Y-1463D01*
X5559Y-1478D01*
X5554Y-1487D01*
X5545Y-1497D01*
X5530Y-1501D01*
X5497D01*
X5665Y-1401D02*
X5703Y-1501D01*
X5741Y-1401D02*
X5703Y-1501D01*
X5754Y-1401D02*
Y-1501D01*
X5851D02*
X5813Y-1401D01*
X5774Y-1501D01*
X5789Y-1468D02*
X5836D01*
X5941Y-1416D02*
X5931Y-1406D01*
X5917Y-1401D01*
X5898D01*
X5884Y-1406D01*
X5874Y-1416D01*
Y-1425D01*
X5879Y-1435D01*
X5884Y-1439D01*
X5893Y-1444D01*
X5922Y-1454D01*
X5931Y-1459D01*
X5936Y-1463D01*
X5941Y-1473D01*
Y-1487D01*
X5931Y-1497D01*
X5917Y-1501D01*
X5898D01*
X5884Y-1497D01*
X5874Y-1487D01*
X3621Y-1174D02*
X3573Y-1274D01*
X3554Y-1174D02*
X3621D01*
X3643Y-1155D02*
X3653Y-1165D01*
X3662Y-1179D01*
X3672Y-1198D01*
X3676Y-1222D01*
Y-1241D01*
X3672Y-1265D01*
X3662Y-1284D01*
X3653Y-1298D01*
X3643Y-1308D01*
X3653Y-1165D02*
X3662Y-1184D01*
X3667Y-1198D01*
X3672Y-1222D01*
Y-1241D01*
X3667Y-1265D01*
X3662Y-1279D01*
X3653Y-1298D01*
X3779Y-1174D02*
Y-1274D01*
Y-1174D02*
X3822D01*
X3836Y-1179D01*
X3841Y-1184D01*
X3846Y-1193D01*
Y-1203D01*
X3841Y-1212D01*
X3836Y-1217D01*
X3822Y-1222D01*
X3779D01*
X3813D02*
X3846Y-1274D01*
X3930Y-1174D02*
X3868D01*
Y-1274D01*
X3930D01*
X3868Y-1222D02*
X3906D01*
X3947Y-1174D02*
Y-1274D01*
Y-1174D02*
X3985Y-1274D01*
X4023Y-1174D02*
X3985Y-1274D01*
X4023Y-1174D02*
Y-1274D01*
X4080Y-1174D02*
X4071Y-1179D01*
X4061Y-1189D01*
X4056Y-1198D01*
X4052Y-1212D01*
Y-1236D01*
X4056Y-1251D01*
X4061Y-1260D01*
X4071Y-1270D01*
X4080Y-1274D01*
X4099D01*
X4109Y-1270D01*
X4118Y-1260D01*
X4123Y-1251D01*
X4128Y-1236D01*
Y-1212D01*
X4123Y-1198D01*
X4118Y-1189D01*
X4109Y-1179D01*
X4099Y-1174D01*
X4080D01*
X4151D02*
X4189Y-1274D01*
X4227Y-1174D02*
X4189Y-1274D01*
X4302Y-1174D02*
X4240D01*
Y-1274D01*
X4302D01*
X4240Y-1222D02*
X4278D01*
X4464Y-1189D02*
X4454Y-1179D01*
X4440Y-1174D01*
X4421D01*
X4407Y-1179D01*
X4397Y-1189D01*
Y-1198D01*
X4402Y-1208D01*
X4407Y-1212D01*
X4416Y-1217D01*
X4445Y-1227D01*
X4454Y-1232D01*
X4459Y-1236D01*
X4464Y-1246D01*
Y-1260D01*
X4454Y-1270D01*
X4440Y-1274D01*
X4421D01*
X4407Y-1270D01*
X4397Y-1260D01*
X4486Y-1174D02*
Y-1274D01*
X4507Y-1174D02*
Y-1274D01*
X4564D01*
X4575Y-1174D02*
Y-1274D01*
X4642Y-1174D02*
X4575Y-1241D01*
X4599Y-1217D02*
X4642Y-1274D01*
X4731Y-1189D02*
X4721Y-1179D01*
X4707Y-1174D01*
X4688D01*
X4674Y-1179D01*
X4664Y-1189D01*
Y-1198D01*
X4669Y-1208D01*
X4674Y-1212D01*
X4683Y-1217D01*
X4712Y-1227D01*
X4721Y-1232D01*
X4726Y-1236D01*
X4731Y-1246D01*
Y-1260D01*
X4721Y-1270D01*
X4707Y-1274D01*
X4688D01*
X4674Y-1270D01*
X4664Y-1260D01*
X4825Y-1198D02*
X4820Y-1189D01*
X4810Y-1179D01*
X4801Y-1174D01*
X4782D01*
X4772Y-1179D01*
X4763Y-1189D01*
X4758Y-1198D01*
X4753Y-1212D01*
Y-1236D01*
X4758Y-1251D01*
X4763Y-1260D01*
X4772Y-1270D01*
X4782Y-1274D01*
X4801D01*
X4810Y-1270D01*
X4820Y-1260D01*
X4825Y-1251D01*
X4853Y-1174D02*
Y-1274D01*
Y-1174D02*
X4896D01*
X4910Y-1179D01*
X4915Y-1184D01*
X4919Y-1193D01*
Y-1203D01*
X4915Y-1212D01*
X4910Y-1217D01*
X4896Y-1222D01*
X4853D01*
X4886D02*
X4919Y-1274D01*
X5004Y-1174D02*
X4942D01*
Y-1274D01*
X5004D01*
X4942Y-1222D02*
X4980D01*
X5082Y-1174D02*
X5020D01*
Y-1274D01*
X5082D01*
X5020Y-1222D02*
X5058D01*
X5099Y-1174D02*
Y-1274D01*
Y-1174D02*
X5166Y-1274D01*
Y-1174D02*
Y-1274D01*
X5272Y-1174D02*
Y-1274D01*
Y-1174D02*
X5334D01*
X5272Y-1222D02*
X5310D01*
X5345Y-1174D02*
Y-1274D01*
Y-1174D02*
X5388D01*
X5402Y-1179D01*
X5407Y-1184D01*
X5412Y-1193D01*
Y-1203D01*
X5407Y-1212D01*
X5402Y-1217D01*
X5388Y-1222D01*
X5345D01*
X5378D02*
X5412Y-1274D01*
X5463Y-1174D02*
X5453Y-1179D01*
X5444Y-1189D01*
X5439Y-1198D01*
X5434Y-1212D01*
Y-1236D01*
X5439Y-1251D01*
X5444Y-1260D01*
X5453Y-1270D01*
X5463Y-1274D01*
X5482D01*
X5491Y-1270D01*
X5501Y-1260D01*
X5505Y-1251D01*
X5510Y-1236D01*
Y-1212D01*
X5505Y-1198D01*
X5501Y-1189D01*
X5491Y-1179D01*
X5482Y-1174D01*
X5463D01*
X5534D02*
Y-1274D01*
Y-1174D02*
X5572Y-1274D01*
X5610Y-1174D02*
X5572Y-1274D01*
X5610Y-1174D02*
Y-1274D01*
X5717Y-1227D02*
X5760D01*
X5774Y-1222D01*
X5779Y-1217D01*
X5784Y-1208D01*
Y-1193D01*
X5779Y-1184D01*
X5774Y-1179D01*
X5760Y-1174D01*
X5717D01*
Y-1274D01*
X5882D02*
X5844Y-1174D01*
X5806Y-1274D01*
X5820Y-1241D02*
X5868D01*
X5905Y-1174D02*
Y-1274D01*
Y-1174D02*
X5939D01*
X5953Y-1179D01*
X5963Y-1189D01*
X5967Y-1198D01*
X5972Y-1212D01*
Y-1236D01*
X5967Y-1251D01*
X5963Y-1260D01*
X5953Y-1270D01*
X5939Y-1274D01*
X5905D01*
X6061Y-1189D02*
X6052Y-1179D01*
X6037Y-1174D01*
X6018D01*
X6004Y-1179D01*
X5994Y-1189D01*
Y-1198D01*
X5999Y-1208D01*
X6004Y-1212D01*
X6013Y-1217D01*
X6042Y-1227D01*
X6052Y-1232D01*
X6056Y-1236D01*
X6061Y-1246D01*
Y-1260D01*
X6052Y-1270D01*
X6037Y-1274D01*
X6018D01*
X6004Y-1270D01*
X5994Y-1260D01*
X3616Y-967D02*
X3611Y-957D01*
X3597Y-952D01*
X3588D01*
X3573Y-957D01*
X3564Y-971D01*
X3559Y-995D01*
Y-1019D01*
X3564Y-1038D01*
X3573Y-1048D01*
X3588Y-1052D01*
X3592D01*
X3607Y-1048D01*
X3616Y-1038D01*
X3621Y-1024D01*
Y-1019D01*
X3616Y-1005D01*
X3607Y-995D01*
X3592Y-990D01*
X3588D01*
X3573Y-995D01*
X3564Y-1005D01*
X3559Y-1019D01*
X3643Y-933D02*
X3652Y-943D01*
X3662Y-957D01*
X3671Y-976D01*
X3676Y-1000D01*
Y-1019D01*
X3671Y-1043D01*
X3662Y-1062D01*
X3652Y-1076D01*
X3643Y-1086D01*
X3652Y-943D02*
X3662Y-962D01*
X3667Y-976D01*
X3671Y-1000D01*
Y-1019D01*
X3667Y-1043D01*
X3662Y-1057D01*
X3652Y-1076D01*
X3779Y-952D02*
X3803Y-1052D01*
X3827Y-952D02*
X3803Y-1052D01*
X3827Y-952D02*
X3850Y-1052D01*
X3874Y-952D02*
X3850Y-1052D01*
X3894Y-952D02*
Y-1052D01*
X3961Y-952D02*
Y-1052D01*
X3894Y-1000D02*
X3961D01*
X3988Y-952D02*
Y-1052D01*
X4043Y-952D02*
Y-1052D01*
X4009Y-952D02*
X4076D01*
X4150D02*
X4088D01*
Y-1052D01*
X4150D01*
X4088Y-1000D02*
X4126D01*
X4312Y-967D02*
X4302Y-957D01*
X4288Y-952D01*
X4269D01*
X4255Y-957D01*
X4245Y-967D01*
Y-976D01*
X4250Y-986D01*
X4255Y-990D01*
X4264Y-995D01*
X4293Y-1005D01*
X4302Y-1010D01*
X4307Y-1014D01*
X4312Y-1024D01*
Y-1038D01*
X4302Y-1048D01*
X4288Y-1052D01*
X4269D01*
X4255Y-1048D01*
X4245Y-1038D01*
X4334Y-952D02*
Y-1052D01*
X4355Y-952D02*
Y-1052D01*
X4412D01*
X4423Y-952D02*
Y-1052D01*
X4490Y-952D02*
X4423Y-1019D01*
X4447Y-995D02*
X4490Y-1052D01*
X4579Y-967D02*
X4569Y-957D01*
X4555Y-952D01*
X4536D01*
X4522Y-957D01*
X4512Y-967D01*
Y-976D01*
X4517Y-986D01*
X4522Y-990D01*
X4531Y-995D01*
X4560Y-1005D01*
X4569Y-1010D01*
X4574Y-1014D01*
X4579Y-1024D01*
Y-1038D01*
X4569Y-1048D01*
X4555Y-1052D01*
X4536D01*
X4522Y-1048D01*
X4512Y-1038D01*
X4673Y-976D02*
X4668Y-967D01*
X4658Y-957D01*
X4649Y-952D01*
X4630D01*
X4620Y-957D01*
X4611Y-967D01*
X4606Y-976D01*
X4601Y-990D01*
Y-1014D01*
X4606Y-1029D01*
X4611Y-1038D01*
X4620Y-1048D01*
X4630Y-1052D01*
X4649D01*
X4658Y-1048D01*
X4668Y-1038D01*
X4673Y-1029D01*
X4701Y-952D02*
Y-1052D01*
Y-952D02*
X4744D01*
X4758Y-957D01*
X4763Y-962D01*
X4767Y-971D01*
Y-981D01*
X4763Y-990D01*
X4758Y-995D01*
X4744Y-1000D01*
X4701D01*
X4734D02*
X4767Y-1052D01*
X4852Y-952D02*
X4790D01*
Y-1052D01*
X4852D01*
X4790Y-1000D02*
X4828D01*
X4930Y-952D02*
X4868D01*
Y-1052D01*
X4930D01*
X4868Y-1000D02*
X4906D01*
X4947Y-952D02*
Y-1052D01*
Y-952D02*
X5013Y-1052D01*
Y-952D02*
Y-1052D01*
X5120Y-952D02*
Y-1052D01*
Y-952D02*
X5162D01*
X5177Y-957D01*
X5182Y-962D01*
X5186Y-971D01*
Y-981D01*
X5182Y-990D01*
X5177Y-995D01*
X5162Y-1000D01*
X5120D02*
X5162D01*
X5177Y-1005D01*
X5182Y-1010D01*
X5186Y-1019D01*
Y-1033D01*
X5182Y-1043D01*
X5177Y-1048D01*
X5162Y-1052D01*
X5120D01*
X5237Y-952D02*
X5228Y-957D01*
X5218Y-967D01*
X5213Y-976D01*
X5209Y-990D01*
Y-1014D01*
X5213Y-1029D01*
X5218Y-1038D01*
X5228Y-1048D01*
X5237Y-1052D01*
X5256D01*
X5266Y-1048D01*
X5275Y-1038D01*
X5280Y-1029D01*
X5285Y-1014D01*
Y-990D01*
X5280Y-976D01*
X5275Y-967D01*
X5266Y-957D01*
X5256Y-952D01*
X5237D01*
X5341D02*
Y-1052D01*
X5308Y-952D02*
X5375D01*
X5387D02*
Y-1052D01*
X5453Y-952D02*
Y-1052D01*
X5387Y-1000D02*
X5453D01*
X5626Y-967D02*
X5617Y-957D01*
X5602Y-952D01*
X5583D01*
X5569Y-957D01*
X5560Y-967D01*
Y-976D01*
X5564Y-986D01*
X5569Y-990D01*
X5579Y-995D01*
X5607Y-1005D01*
X5617Y-1010D01*
X5621Y-1014D01*
X5626Y-1024D01*
Y-1038D01*
X5617Y-1048D01*
X5602Y-1052D01*
X5583D01*
X5569Y-1048D01*
X5560Y-1038D01*
X5649Y-952D02*
Y-1052D01*
X5669Y-952D02*
Y-1052D01*
Y-952D02*
X5703D01*
X5717Y-957D01*
X5727Y-967D01*
X5731Y-976D01*
X5736Y-990D01*
Y-1014D01*
X5731Y-1029D01*
X5727Y-1038D01*
X5717Y-1048D01*
X5703Y-1052D01*
X5669D01*
X5820Y-952D02*
X5759D01*
Y-1052D01*
X5820D01*
X5759Y-1000D02*
X5797D01*
X5904Y-967D02*
X5894Y-957D01*
X5880Y-952D01*
X5861D01*
X5847Y-957D01*
X5837Y-967D01*
Y-976D01*
X5842Y-986D01*
X5847Y-990D01*
X5856Y-995D01*
X5885Y-1005D01*
X5894Y-1010D01*
X5899Y-1014D01*
X5904Y-1024D01*
Y-1038D01*
X5894Y-1048D01*
X5880Y-1052D01*
X5861D01*
X5847Y-1048D01*
X5837Y-1038D01*
X3621Y-731D02*
X3574D01*
X3569Y-774D01*
X3574Y-769D01*
X3588Y-765D01*
X3602D01*
X3616Y-769D01*
X3626Y-779D01*
X3631Y-793D01*
Y-803D01*
X3626Y-817D01*
X3616Y-827D01*
X3602Y-831D01*
X3588D01*
X3574Y-827D01*
X3569Y-822D01*
X3564Y-812D01*
X3653Y-712D02*
X3663Y-722D01*
X3672Y-736D01*
X3682Y-755D01*
X3686Y-779D01*
Y-798D01*
X3682Y-822D01*
X3672Y-841D01*
X3663Y-855D01*
X3653Y-865D01*
X3663Y-722D02*
X3672Y-741D01*
X3677Y-755D01*
X3682Y-779D01*
Y-798D01*
X3677Y-822D01*
X3672Y-836D01*
X3663Y-855D01*
X3837Y-731D02*
X3789Y-798D01*
X3861D01*
X3837Y-731D02*
Y-831D01*
X3957Y-731D02*
Y-803D01*
X3962Y-817D01*
X3971Y-827D01*
X3985Y-831D01*
X3995D01*
X4009Y-827D01*
X4019Y-817D01*
X4023Y-803D01*
Y-731D01*
X4051Y-784D02*
X4094D01*
X4108Y-779D01*
X4113Y-774D01*
X4118Y-765D01*
Y-750D01*
X4113Y-741D01*
X4108Y-736D01*
X4094Y-731D01*
X4051D01*
Y-831D01*
X4219Y-731D02*
X4242Y-831D01*
X4266Y-731D02*
X4242Y-831D01*
X4266Y-731D02*
X4290Y-831D01*
X4314Y-731D02*
X4290Y-831D01*
X4396Y-731D02*
X4334D01*
Y-831D01*
X4396D01*
X4334Y-779D02*
X4372D01*
X4412Y-731D02*
Y-831D01*
Y-731D02*
X4455D01*
X4470Y-736D01*
X4474Y-741D01*
X4479Y-750D01*
Y-760D01*
X4474Y-769D01*
X4470Y-774D01*
X4455Y-779D01*
X4412D02*
X4455D01*
X4470Y-784D01*
X4474Y-789D01*
X4479Y-798D01*
Y-812D01*
X4474Y-822D01*
X4470Y-827D01*
X4455Y-831D01*
X4412D01*
X4580Y-731D02*
Y-831D01*
Y-731D02*
X4623D01*
X4637Y-736D01*
X4642Y-741D01*
X4647Y-750D01*
Y-760D01*
X4642Y-769D01*
X4637Y-774D01*
X4623Y-779D01*
X4580D01*
X4613D02*
X4647Y-831D01*
X4698Y-731D02*
X4688Y-736D01*
X4679Y-746D01*
X4674Y-755D01*
X4669Y-769D01*
Y-793D01*
X4674Y-808D01*
X4679Y-817D01*
X4688Y-827D01*
X4698Y-831D01*
X4717D01*
X4726Y-827D01*
X4736Y-817D01*
X4740Y-808D01*
X4745Y-793D01*
Y-769D01*
X4740Y-755D01*
X4736Y-746D01*
X4726Y-736D01*
X4717Y-731D01*
X4698D01*
X4769D02*
Y-803D01*
X4773Y-817D01*
X4783Y-827D01*
X4797Y-831D01*
X4807D01*
X4821Y-827D01*
X4830Y-817D01*
X4835Y-803D01*
Y-731D01*
X4896D02*
Y-831D01*
X4863Y-731D02*
X4929D01*
X5003D02*
X4941D01*
Y-831D01*
X5003D01*
X4941Y-779D02*
X4979D01*
X5020Y-731D02*
Y-831D01*
Y-731D02*
X5053D01*
X5067Y-736D01*
X5077Y-746D01*
X5082Y-755D01*
X5087Y-769D01*
Y-793D01*
X5082Y-808D01*
X5077Y-817D01*
X5067Y-827D01*
X5053Y-831D01*
X5020D01*
X5187Y-784D02*
X5230D01*
X5245Y-779D01*
X5249Y-774D01*
X5254Y-765D01*
Y-750D01*
X5249Y-741D01*
X5245Y-736D01*
X5230Y-731D01*
X5187D01*
Y-831D01*
X5353D02*
X5315Y-731D01*
X5276Y-831D01*
X5291Y-798D02*
X5338D01*
X5376Y-731D02*
Y-831D01*
Y-731D02*
X5443Y-831D01*
Y-731D02*
Y-831D01*
X5532Y-731D02*
X5470D01*
Y-831D01*
X5532D01*
X5470Y-779D02*
X5508D01*
X5549Y-731D02*
Y-831D01*
X5606D01*
X3612Y-499D02*
X3564Y-566D01*
X3635D01*
X3612Y-499D02*
Y-599D01*
X3653Y-480D02*
X3663Y-490D01*
X3672Y-504D01*
X3682Y-523D01*
X3686Y-547D01*
Y-566D01*
X3682Y-590D01*
X3672Y-609D01*
X3663Y-623D01*
X3653Y-633D01*
X3663Y-490D02*
X3672Y-509D01*
X3677Y-523D01*
X3682Y-547D01*
Y-566D01*
X3677Y-590D01*
X3672Y-604D01*
X3663Y-623D01*
X3789Y-499D02*
Y-599D01*
X3856Y-499D02*
Y-599D01*
X3789Y-547D02*
X3856D01*
X3960Y-599D02*
X3922Y-499D01*
X3883Y-599D01*
X3898Y-566D02*
X3945D01*
X4050Y-514D02*
X4040Y-504D01*
X4026Y-499D01*
X4007D01*
X3992Y-504D01*
X3983Y-514D01*
Y-523D01*
X3988Y-533D01*
X3992Y-537D01*
X4002Y-542D01*
X4031Y-552D01*
X4040Y-557D01*
X4045Y-561D01*
X4050Y-571D01*
Y-585D01*
X4040Y-595D01*
X4026Y-599D01*
X4007D01*
X3992Y-595D01*
X3983Y-585D01*
X4072Y-499D02*
Y-599D01*
X4129D01*
X4285Y-514D02*
X4276Y-504D01*
X4261Y-499D01*
X4242D01*
X4228Y-504D01*
X4219Y-514D01*
Y-523D01*
X4223Y-533D01*
X4228Y-537D01*
X4238Y-542D01*
X4266Y-552D01*
X4276Y-557D01*
X4281Y-561D01*
X4285Y-571D01*
Y-585D01*
X4276Y-595D01*
X4261Y-599D01*
X4242D01*
X4228Y-595D01*
X4219Y-585D01*
X4308Y-499D02*
Y-599D01*
Y-499D02*
X4346Y-599D01*
X4384Y-499D02*
X4346Y-599D01*
X4384Y-499D02*
Y-599D01*
X4441Y-499D02*
X4431Y-504D01*
X4422Y-514D01*
X4417Y-523D01*
X4412Y-537D01*
Y-561D01*
X4417Y-576D01*
X4422Y-585D01*
X4431Y-595D01*
X4441Y-599D01*
X4460D01*
X4470Y-595D01*
X4479Y-585D01*
X4484Y-576D01*
X4489Y-561D01*
Y-537D01*
X4484Y-523D01*
X4479Y-514D01*
X4470Y-504D01*
X4460Y-499D01*
X4441D01*
X4512D02*
Y-599D01*
Y-499D02*
X4555D01*
X4569Y-504D01*
X4574Y-509D01*
X4579Y-518D01*
Y-528D01*
X4574Y-537D01*
X4569Y-542D01*
X4555Y-547D01*
X4512D02*
X4555D01*
X4569Y-552D01*
X4574Y-557D01*
X4579Y-566D01*
Y-580D01*
X4574Y-590D01*
X4569Y-595D01*
X4555Y-599D01*
X4512D01*
X4672Y-523D02*
X4668Y-514D01*
X4658Y-504D01*
X4649Y-499D01*
X4629D01*
X4620Y-504D01*
X4610Y-514D01*
X4606Y-523D01*
X4601Y-537D01*
Y-561D01*
X4606Y-576D01*
X4610Y-585D01*
X4620Y-595D01*
X4629Y-599D01*
X4649D01*
X4658Y-595D01*
X4668Y-585D01*
X4672Y-576D01*
X3574Y-257D02*
X3626D01*
X3597Y-295D01*
X3612D01*
X3621Y-300D01*
X3626Y-305D01*
X3631Y-319D01*
Y-329D01*
X3626Y-343D01*
X3616Y-353D01*
X3602Y-357D01*
X3588D01*
X3574Y-353D01*
X3569Y-348D01*
X3564Y-338D01*
X3653Y-238D02*
X3663Y-248D01*
X3672Y-262D01*
X3682Y-281D01*
X3686Y-305D01*
Y-324D01*
X3682Y-348D01*
X3672Y-367D01*
X3663Y-381D01*
X3653Y-391D01*
X3663Y-248D02*
X3672Y-267D01*
X3677Y-281D01*
X3682Y-305D01*
Y-324D01*
X3677Y-348D01*
X3672Y-362D01*
X3663Y-381D01*
X3789Y-276D02*
X3799Y-272D01*
X3813Y-257D01*
Y-357D01*
X3970Y-257D02*
X3960Y-262D01*
X3951Y-272D01*
X3946Y-281D01*
X3941Y-295D01*
Y-319D01*
X3946Y-334D01*
X3951Y-343D01*
X3960Y-353D01*
X3970Y-357D01*
X3989D01*
X3998Y-353D01*
X4008Y-343D01*
X4012Y-334D01*
X4017Y-319D01*
Y-295D01*
X4012Y-281D01*
X4008Y-272D01*
X3998Y-262D01*
X3989Y-257D01*
X3970D01*
X4041D02*
Y-329D01*
X4045Y-343D01*
X4055Y-353D01*
X4069Y-357D01*
X4079D01*
X4093Y-353D01*
X4102Y-343D01*
X4107Y-329D01*
Y-257D01*
X4135D02*
Y-357D01*
Y-257D02*
X4201Y-357D01*
Y-257D02*
Y-357D01*
X4301Y-281D02*
X4296Y-272D01*
X4286Y-262D01*
X4277Y-257D01*
X4258D01*
X4248Y-262D01*
X4239Y-272D01*
X4234Y-281D01*
X4229Y-295D01*
Y-319D01*
X4234Y-334D01*
X4239Y-343D01*
X4248Y-353D01*
X4258Y-357D01*
X4277D01*
X4286Y-353D01*
X4296Y-343D01*
X4301Y-334D01*
X4390Y-257D02*
X4329D01*
Y-357D01*
X4390D01*
X4329Y-305D02*
X4367D01*
X4557Y-281D02*
X4552Y-272D01*
X4543Y-262D01*
X4533Y-257D01*
X4514D01*
X4505Y-262D01*
X4495Y-272D01*
X4490Y-281D01*
X4486Y-295D01*
Y-319D01*
X4490Y-334D01*
X4495Y-343D01*
X4505Y-353D01*
X4514Y-357D01*
X4533D01*
X4543Y-353D01*
X4552Y-343D01*
X4557Y-334D01*
X4614Y-257D02*
X4604Y-262D01*
X4595Y-272D01*
X4590Y-281D01*
X4585Y-295D01*
Y-319D01*
X4590Y-334D01*
X4595Y-343D01*
X4604Y-353D01*
X4614Y-357D01*
X4633D01*
X4642Y-353D01*
X4652Y-343D01*
X4657Y-334D01*
X4661Y-319D01*
Y-295D01*
X4657Y-281D01*
X4652Y-272D01*
X4642Y-262D01*
X4633Y-257D01*
X4614D01*
X4685Y-310D02*
X4728D01*
X4742Y-305D01*
X4747Y-300D01*
X4751Y-291D01*
Y-276D01*
X4747Y-267D01*
X4742Y-262D01*
X4728Y-257D01*
X4685D01*
Y-357D01*
X4774Y-310D02*
X4817D01*
X4831Y-305D01*
X4836Y-300D01*
X4840Y-291D01*
Y-276D01*
X4836Y-267D01*
X4831Y-262D01*
X4817Y-257D01*
X4774D01*
Y-357D01*
X4925Y-257D02*
X4863D01*
Y-357D01*
X4925D01*
X4863Y-305D02*
X4901D01*
X4941Y-257D02*
Y-357D01*
Y-257D02*
X4984D01*
X4998Y-262D01*
X5003Y-267D01*
X5008Y-276D01*
Y-286D01*
X5003Y-295D01*
X4998Y-300D01*
X4984Y-305D01*
X4941D01*
X4975D02*
X5008Y-357D01*
X3564Y-61D02*
Y-56D01*
X3569Y-47D01*
X3573Y-42D01*
X3583Y-37D01*
X3602D01*
X3611Y-42D01*
X3616Y-47D01*
X3621Y-56D01*
Y-66D01*
X3616Y-75D01*
X3607Y-89D01*
X3559Y-137D01*
X3626D01*
X3648Y-18D02*
X3658Y-27D01*
X3667Y-42D01*
X3677Y-61D01*
X3681Y-85D01*
Y-104D01*
X3677Y-127D01*
X3667Y-147D01*
X3658Y-161D01*
X3648Y-170D01*
X3658Y-27D02*
X3667Y-47D01*
X3672Y-61D01*
X3677Y-85D01*
Y-104D01*
X3672Y-127D01*
X3667Y-142D01*
X3658Y-161D01*
X3813Y-37D02*
X3798Y-42D01*
X3789Y-56D01*
X3784Y-80D01*
Y-94D01*
X3789Y-118D01*
X3798Y-132D01*
X3813Y-137D01*
X3822D01*
X3837Y-132D01*
X3846Y-118D01*
X3851Y-94D01*
Y-80D01*
X3846Y-56D01*
X3837Y-42D01*
X3822Y-37D01*
X3813D01*
X3878Y-127D02*
X3873Y-132D01*
X3878Y-137D01*
X3883Y-132D01*
X3878Y-127D01*
X3933Y-37D02*
X3919Y-42D01*
X3909Y-56D01*
X3905Y-80D01*
Y-94D01*
X3909Y-118D01*
X3919Y-132D01*
X3933Y-137D01*
X3943D01*
X3957Y-132D01*
X3967Y-118D01*
X3971Y-94D01*
Y-80D01*
X3967Y-56D01*
X3957Y-42D01*
X3943Y-37D01*
X3933D01*
X4003D02*
X4056D01*
X4027Y-75D01*
X4041D01*
X4051Y-80D01*
X4056Y-85D01*
X4060Y-99D01*
Y-108D01*
X4056Y-123D01*
X4046Y-132D01*
X4032Y-137D01*
X4017D01*
X4003Y-132D01*
X3998Y-127D01*
X3994Y-118D01*
X4083Y-56D02*
X4092Y-51D01*
X4107Y-37D01*
Y-137D01*
X4161Y-37D02*
X4156Y-42D01*
Y-70D01*
X4161Y-42D02*
X4156Y-70D01*
X4161Y-37D02*
X4166Y-42D01*
X4156Y-70D01*
X4204Y-37D02*
X4199Y-42D01*
Y-70D01*
X4204Y-42D02*
X4199Y-70D01*
X4204Y-37D02*
X4208Y-42D01*
X4199Y-70D01*
X4341Y-37D02*
Y-137D01*
X4308Y-37D02*
X4375D01*
X4386D02*
Y-137D01*
X4453Y-37D02*
Y-137D01*
X4386Y-85D02*
X4453D01*
X4481Y-37D02*
Y-137D01*
X4573Y-61D02*
X4568Y-51D01*
X4559Y-42D01*
X4549Y-37D01*
X4530D01*
X4521Y-42D01*
X4511Y-51D01*
X4506Y-61D01*
X4502Y-75D01*
Y-99D01*
X4506Y-113D01*
X4511Y-123D01*
X4521Y-132D01*
X4530Y-137D01*
X4549D01*
X4559Y-132D01*
X4568Y-123D01*
X4573Y-113D01*
X4601Y-37D02*
Y-137D01*
X4668Y-37D02*
X4601Y-104D01*
X4625Y-80D02*
X4668Y-137D01*
X4826Y-51D02*
X4821Y-42D01*
X4807Y-37D01*
X4797D01*
X4783Y-42D01*
X4774Y-56D01*
X4769Y-80D01*
Y-104D01*
X4774Y-123D01*
X4783Y-132D01*
X4797Y-137D01*
X4802D01*
X4816Y-132D01*
X4826Y-123D01*
X4831Y-108D01*
Y-104D01*
X4826Y-89D01*
X4816Y-80D01*
X4802Y-75D01*
X4797D01*
X4783Y-80D01*
X4774Y-89D01*
X4769Y-104D01*
X4931Y-37D02*
Y-137D01*
X4988D01*
X5075D02*
X5037Y-37D01*
X4999Y-137D01*
X5013Y-104D02*
X5061D01*
X5099Y-37D02*
X5137Y-85D01*
Y-137D01*
X5175Y-37D02*
X5137Y-85D01*
X5250Y-37D02*
X5188D01*
Y-137D01*
X5250D01*
X5188Y-85D02*
X5226D01*
X5266Y-37D02*
Y-137D01*
Y-37D02*
X5309D01*
X5323Y-42D01*
X5328Y-47D01*
X5333Y-56D01*
Y-66D01*
X5328Y-75D01*
X5323Y-80D01*
X5309Y-85D01*
X5266D01*
X5300D02*
X5333Y-137D01*
X5434Y-37D02*
Y-137D01*
Y-37D02*
X5477D01*
X5491Y-42D01*
X5496Y-47D01*
X5500Y-56D01*
Y-66D01*
X5496Y-75D01*
X5491Y-80D01*
X5477Y-85D01*
X5434D02*
X5477D01*
X5491Y-89D01*
X5496Y-94D01*
X5500Y-104D01*
Y-118D01*
X5496Y-127D01*
X5491Y-132D01*
X5477Y-137D01*
X5434D01*
X5551Y-37D02*
X5542Y-42D01*
X5532Y-51D01*
X5528Y-61D01*
X5523Y-75D01*
Y-99D01*
X5528Y-113D01*
X5532Y-123D01*
X5542Y-132D01*
X5551Y-137D01*
X5570D01*
X5580Y-132D01*
X5590Y-123D01*
X5594Y-113D01*
X5599Y-99D01*
Y-75D01*
X5594Y-61D01*
X5590Y-51D01*
X5580Y-42D01*
X5570Y-37D01*
X5551D01*
X5699Y-137D02*
X5660Y-37D01*
X5622Y-137D01*
X5637Y-104D02*
X5684D01*
X5722Y-37D02*
Y-137D01*
Y-37D02*
X5765D01*
X5779Y-42D01*
X5784Y-47D01*
X5789Y-56D01*
Y-66D01*
X5784Y-75D01*
X5779Y-80D01*
X5765Y-85D01*
X5722D01*
X5755D02*
X5789Y-137D01*
X5811Y-37D02*
Y-137D01*
Y-37D02*
X5844D01*
X5859Y-42D01*
X5868Y-51D01*
X5873Y-61D01*
X5878Y-75D01*
Y-99D01*
X5873Y-113D01*
X5868Y-123D01*
X5859Y-132D01*
X5844Y-137D01*
X5811D01*
X3572Y163D02*
X3582Y168D01*
X3596Y182D01*
Y82D01*
X3645Y201D02*
X3655Y191D01*
X3664Y177D01*
X3674Y158D01*
X3679Y134D01*
Y115D01*
X3674Y92D01*
X3664Y72D01*
X3655Y58D01*
X3645Y49D01*
X3655Y191D02*
X3664Y172D01*
X3669Y158D01*
X3674Y134D01*
Y115D01*
X3669Y92D01*
X3664Y77D01*
X3655Y58D01*
X3781Y182D02*
Y82D01*
Y182D02*
X3820Y82D01*
X3858Y182D02*
X3820Y82D01*
X3858Y182D02*
Y82D01*
X3962D02*
X3924Y182D01*
X3886Y82D01*
X3901Y115D02*
X3948D01*
X4019Y182D02*
Y82D01*
X3986Y182D02*
X4052D01*
X4126D02*
X4064D01*
Y82D01*
X4126D01*
X4064Y134D02*
X4102D01*
X4143Y182D02*
Y82D01*
Y182D02*
X4186D01*
X4200Y177D01*
X4205Y172D01*
X4209Y163D01*
Y153D01*
X4205Y144D01*
X4200Y139D01*
X4186Y134D01*
X4143D01*
X4176D02*
X4209Y82D01*
X4232Y182D02*
Y82D01*
X4329D02*
X4291Y182D01*
X4253Y82D01*
X4267Y115D02*
X4315D01*
X4352Y182D02*
Y82D01*
X4409D01*
X4499Y182D02*
Y82D01*
X4587Y168D02*
X4577Y177D01*
X4563Y182D01*
X4544D01*
X4529Y177D01*
X4520Y168D01*
Y158D01*
X4525Y149D01*
X4529Y144D01*
X4539Y139D01*
X4568Y130D01*
X4577Y125D01*
X4582Y120D01*
X4587Y111D01*
Y96D01*
X4577Y87D01*
X4563Y82D01*
X4544D01*
X4529Y87D01*
X4520Y96D01*
X4687Y182D02*
Y82D01*
Y182D02*
X4749D01*
X4687Y134D02*
X4726D01*
X4761Y182D02*
Y82D01*
Y182D02*
X4804D01*
X4818Y177D01*
X4823Y172D01*
X4827Y163D01*
Y153D01*
X4823Y144D01*
X4818Y139D01*
X4804Y134D01*
X4761D01*
X4794D02*
X4827Y82D01*
X4897Y182D02*
X4850Y115D01*
X4921D01*
X4897Y182D02*
Y82D01*
X3565Y426D02*
Y326D01*
Y426D02*
X3632Y326D01*
Y426D02*
Y326D01*
X3688Y426D02*
X3678Y421D01*
X3669Y412D01*
X3664Y402D01*
X3659Y388D01*
Y364D01*
X3664Y350D01*
X3669Y340D01*
X3678Y331D01*
X3688Y326D01*
X3707D01*
X3716Y331D01*
X3726Y340D01*
X3731Y350D01*
X3735Y364D01*
Y388D01*
X3731Y402D01*
X3726Y412D01*
X3716Y421D01*
X3707Y426D01*
X3688D01*
X3792D02*
Y326D01*
X3759Y426D02*
X3825D01*
X3899D02*
X3837D01*
Y326D01*
X3899D01*
X3837Y378D02*
X3875D01*
X3983Y412D02*
X3973Y421D01*
X3959Y426D01*
X3940D01*
X3925Y421D01*
X3916Y412D01*
Y402D01*
X3921Y393D01*
X3925Y388D01*
X3935Y383D01*
X3963Y374D01*
X3973Y369D01*
X3978Y364D01*
X3983Y355D01*
Y340D01*
X3973Y331D01*
X3959Y326D01*
X3940D01*
X3925Y331D01*
X3916Y340D01*
D52*
X3572Y265D02*
X4082D01*
D117*
X2478Y-389D02*
G03*
X2496Y-371I0J18D01*
G01*
X1507D02*
G03*
X1525Y-389I18J0D01*
G01*
Y101D02*
G03*
X1507Y83I0J-18D01*
G01*
X2496D02*
G03*
X2478Y101I-18J0D01*
G01*
X1525D02*
X2478D01*
X1525Y-389D02*
X2478D01*
X1507Y-371D02*
Y83D01*
X2496Y-371D02*
Y83D01*
X1567Y36D02*
X2436D01*
X1567Y-20D02*
X2436D01*
X1567Y73D02*
Y57D01*
X1578D01*
X1586Y68D02*
X1591D01*
X1594Y65D01*
Y57D01*
X1586D01*
X1583Y60D01*
X1586Y63D01*
X1594D01*
X1599Y68D02*
Y60D01*
X1602Y57D01*
X1610D01*
Y55D01*
X1607Y52D01*
X1604D01*
X1610Y57D02*
Y68D01*
X1623Y57D02*
X1618D01*
X1615Y60D01*
Y65D01*
X1618Y68D01*
X1623D01*
X1626Y65D01*
Y63D01*
X1615D01*
X1631Y68D02*
Y57D01*
Y63D01*
X1634Y65D01*
X1636Y68D01*
X1639D01*
X1674Y71D02*
X1671Y73D01*
X1666D01*
X1663Y71D01*
Y68D01*
X1666Y65D01*
X1671D01*
X1674Y63D01*
Y60D01*
X1671Y57D01*
X1666D01*
X1663Y60D01*
X1682Y71D02*
Y68D01*
X1679D01*
X1684D01*
X1682D01*
Y60D01*
X1684Y57D01*
X1695Y68D02*
X1700D01*
X1703Y65D01*
Y57D01*
X1695D01*
X1692Y60D01*
X1695Y63D01*
X1703D01*
X1719Y68D02*
X1711D01*
X1708Y65D01*
Y60D01*
X1711Y57D01*
X1719D01*
X1724D02*
Y73D01*
Y63D02*
X1732Y68D01*
X1724Y63D02*
X1732Y57D01*
X1756Y73D02*
Y60D01*
X1759Y57D01*
X1764D01*
X1767Y60D01*
Y73D01*
X1772Y52D02*
Y68D01*
X1780D01*
X1783Y65D01*
Y60D01*
X1780Y57D01*
X1772D01*
X1804Y73D02*
Y57D01*
X1812D01*
X1815Y60D01*
Y71D01*
X1812Y73D01*
X1804D01*
X1828Y57D02*
X1823D01*
X1820Y60D01*
Y65D01*
X1823Y68D01*
X1828D01*
X1831Y65D01*
Y63D01*
X1820D01*
X1839Y71D02*
Y68D01*
X1836D01*
X1842D01*
X1839D01*
Y60D01*
X1842Y57D01*
X1852Y68D02*
X1858D01*
X1860Y65D01*
Y57D01*
X1852D01*
X1850Y60D01*
X1852Y63D01*
X1860D01*
X1866Y57D02*
X1871D01*
X1868D01*
Y68D01*
X1866D01*
X1879Y57D02*
X1884D01*
X1882D01*
Y73D01*
X1879D01*
X1911Y57D02*
Y71D01*
Y65D01*
X1908D01*
X1914D01*
X1911D01*
Y71D01*
X1914Y73D01*
X1924Y57D02*
X1930D01*
X1932Y60D01*
Y65D01*
X1930Y68D01*
X1924D01*
X1922Y65D01*
Y60D01*
X1924Y57D01*
X1938Y68D02*
Y57D01*
Y63D01*
X1940Y65D01*
X1943Y68D01*
X1946D01*
X1954D02*
X1956D01*
Y65D01*
X1954D01*
Y68D01*
Y60D02*
X1956D01*
Y57D01*
X1954D01*
Y60D01*
X1994Y71D02*
X1991Y73D01*
X1986D01*
X1983Y71D01*
Y68D01*
X1986Y65D01*
X1991D01*
X1994Y63D01*
Y60D01*
X1991Y57D01*
X1986D01*
X1983Y60D01*
X1999Y57D02*
Y68D01*
X2002D01*
X2004Y65D01*
Y57D01*
Y65D01*
X2007Y68D01*
X2010Y65D01*
Y57D01*
X2018Y68D02*
X2023D01*
X2026Y65D01*
Y57D01*
X2018D01*
X2015Y60D01*
X2018Y63D01*
X2026D01*
X2031Y57D02*
X2036D01*
X2034D01*
Y73D01*
X2031D01*
X2044Y57D02*
X2050D01*
X2047D01*
Y73D01*
X2044D01*
X2058D02*
Y57D01*
Y65D01*
X2068D01*
Y73D01*
Y57D01*
X2076Y68D02*
X2081D01*
X2084Y65D01*
Y57D01*
X2076D01*
X2074Y60D01*
X2076Y63D01*
X2084D01*
X2089Y57D02*
Y68D01*
X2097D01*
X2100Y65D01*
Y57D01*
X2116Y73D02*
Y57D01*
X2108D01*
X2105Y60D01*
Y65D01*
X2108Y68D01*
X2116D01*
X2121Y73D02*
Y57D01*
Y65D01*
X2124Y68D01*
X2129D01*
X2132Y65D01*
Y57D01*
X2145D02*
X2140D01*
X2137Y60D01*
Y65D01*
X2140Y68D01*
X2145D01*
X2148Y65D01*
Y63D01*
X2137D01*
X2153Y57D02*
X2159D01*
X2156D01*
Y73D01*
X2153D01*
X2177D02*
Y57D01*
X2169D01*
X2167Y60D01*
Y65D01*
X2169Y68D01*
X2177D01*
X2183Y57D02*
Y73D01*
X2191D01*
X2193Y71D01*
Y65D01*
X2191Y63D01*
X2183D01*
X2188D02*
X2193Y57D01*
X2207D02*
X2201D01*
X2199Y60D01*
Y65D01*
X2201Y68D01*
X2207D01*
X2209Y65D01*
Y63D01*
X2199D01*
X2215Y68D02*
X2220Y57D01*
X2225Y68D01*
X2231Y71D02*
X2233Y73D01*
X2239D01*
X2241Y71D01*
Y60D01*
X2239Y57D01*
X2233D01*
X2231Y60D01*
Y71D01*
X2247Y55D02*
X2257D01*
X2263Y68D02*
X2273Y57D01*
X2268Y63D01*
X2273Y68D01*
X2263Y57D01*
X2279D02*
X2284D01*
X2281D01*
Y73D01*
X2279Y71D01*
X2292Y57D02*
Y60D01*
X2295D01*
Y57D01*
X2292D01*
X2305D02*
Y73D01*
X2313D01*
X2316Y71D01*
Y65D01*
X2313Y63D01*
X2305D01*
X2332Y68D02*
X2324D01*
X2321Y65D01*
Y60D01*
X2324Y57D01*
X2332D01*
X2337Y73D02*
Y57D01*
X2345D01*
X2348Y60D01*
Y63D01*
Y65D01*
X2345Y68D01*
X2337D01*
X2353Y73D02*
Y57D01*
X2361D01*
X2364Y60D01*
Y71D01*
X2361Y73D01*
X2353D01*
X2372Y57D02*
X2377D01*
X2380Y60D01*
Y65D01*
X2377Y68D01*
X2372D01*
X2369Y65D01*
Y60D01*
X2372Y57D01*
X2396Y68D02*
X2388D01*
X2385Y65D01*
Y60D01*
X2388Y57D01*
X2396D01*
X1567Y-29D02*
X1579D01*
X1573D01*
Y-47D01*
X1588D02*
X1594D01*
X1597Y-44D01*
Y-38D01*
X1594Y-35D01*
X1588D01*
X1585Y-38D01*
Y-44D01*
X1588Y-47D01*
X1603Y-53D02*
Y-35D01*
X1612D01*
X1615Y-38D01*
Y-44D01*
X1612Y-47D01*
X1603D01*
X1621Y-29D02*
Y-47D01*
X1633D01*
X1642Y-35D02*
X1648D01*
X1651Y-38D01*
Y-47D01*
X1642D01*
X1639Y-44D01*
X1642Y-41D01*
X1651D01*
X1657Y-35D02*
Y-44D01*
X1660Y-47D01*
X1669D01*
Y-50D01*
X1666Y-53D01*
X1663D01*
X1669Y-47D02*
Y-35D01*
X1684Y-47D02*
X1678D01*
X1675Y-44D01*
Y-38D01*
X1678Y-35D01*
X1684D01*
X1687Y-38D01*
Y-41D01*
X1675D01*
X1693Y-35D02*
Y-47D01*
Y-41D01*
X1696Y-38D01*
X1699Y-35D01*
X1702D01*
X1567Y-98D02*
Y-80D01*
X1573Y-86D01*
X1579Y-80D01*
Y-98D01*
X1585D02*
X1591D01*
X1588D01*
Y-86D01*
X1585D01*
X1612Y-80D02*
Y-98D01*
X1603D01*
X1600Y-95D01*
Y-89D01*
X1603Y-86D01*
X1612D01*
X1618Y-80D02*
Y-98D01*
X1630D01*
X1639Y-86D02*
X1645D01*
X1648Y-89D01*
Y-98D01*
X1639D01*
X1636Y-95D01*
X1639Y-92D01*
X1648D01*
X1654Y-86D02*
Y-95D01*
X1657Y-98D01*
X1666D01*
Y-101D01*
X1663Y-104D01*
X1660D01*
X1666Y-98D02*
Y-86D01*
X1681Y-98D02*
X1675D01*
X1672Y-95D01*
Y-89D01*
X1675Y-86D01*
X1681D01*
X1684Y-89D01*
Y-92D01*
X1672D01*
X1690Y-86D02*
Y-98D01*
Y-92D01*
X1693Y-89D01*
X1696Y-86D01*
X1699D01*
X1708Y-98D02*
X1714D01*
X1711D01*
Y-80D01*
X1708Y-83D01*
X1567Y-149D02*
Y-131D01*
X1573Y-137D01*
X1579Y-131D01*
Y-149D01*
X1585D02*
X1591D01*
X1588D01*
Y-137D01*
X1585D01*
X1612Y-131D02*
Y-149D01*
X1603D01*
X1600Y-146D01*
Y-140D01*
X1603Y-137D01*
X1612D01*
X1618Y-131D02*
Y-149D01*
X1630D01*
X1639Y-137D02*
X1645D01*
X1648Y-140D01*
Y-149D01*
X1639D01*
X1636Y-146D01*
X1639Y-143D01*
X1648D01*
X1654Y-137D02*
Y-146D01*
X1657Y-149D01*
X1666D01*
Y-152D01*
X1663Y-155D01*
X1660D01*
X1666Y-149D02*
Y-137D01*
X1681Y-149D02*
X1675D01*
X1672Y-146D01*
Y-140D01*
X1675Y-137D01*
X1681D01*
X1684Y-140D01*
Y-143D01*
X1672D01*
X1690Y-137D02*
Y-149D01*
Y-143D01*
X1693Y-140D01*
X1696Y-137D01*
X1699D01*
X1720Y-149D02*
X1708D01*
X1720Y-137D01*
Y-134D01*
X1717Y-131D01*
X1711D01*
X1708Y-134D01*
X1567Y-200D02*
Y-182D01*
X1573Y-188D01*
X1579Y-182D01*
Y-200D01*
X1585D02*
X1591D01*
X1588D01*
Y-188D01*
X1585D01*
X1612Y-182D02*
Y-200D01*
X1603D01*
X1600Y-197D01*
Y-191D01*
X1603Y-188D01*
X1612D01*
X1618Y-182D02*
Y-200D01*
X1630D01*
X1639Y-188D02*
X1645D01*
X1648Y-191D01*
Y-200D01*
X1639D01*
X1636Y-197D01*
X1639Y-194D01*
X1648D01*
X1654Y-188D02*
Y-197D01*
X1657Y-200D01*
X1666D01*
Y-203D01*
X1663Y-206D01*
X1660D01*
X1666Y-200D02*
Y-188D01*
X1681Y-200D02*
X1675D01*
X1672Y-197D01*
Y-191D01*
X1675Y-188D01*
X1681D01*
X1684Y-191D01*
Y-194D01*
X1672D01*
X1690Y-188D02*
Y-200D01*
Y-194D01*
X1693Y-191D01*
X1696Y-188D01*
X1699D01*
X1708Y-185D02*
X1711Y-182D01*
X1717D01*
X1720Y-185D01*
Y-188D01*
X1717Y-191D01*
X1714D01*
X1717D01*
X1720Y-194D01*
Y-197D01*
X1717Y-200D01*
X1711D01*
X1708Y-197D01*
X1567Y-251D02*
Y-233D01*
X1573Y-239D01*
X1579Y-233D01*
Y-251D01*
X1585D02*
X1591D01*
X1588D01*
Y-239D01*
X1585D01*
X1612Y-233D02*
Y-251D01*
X1603D01*
X1600Y-248D01*
Y-242D01*
X1603Y-239D01*
X1612D01*
X1618Y-233D02*
Y-251D01*
X1630D01*
X1639Y-239D02*
X1645D01*
X1648Y-242D01*
Y-251D01*
X1639D01*
X1636Y-248D01*
X1639Y-245D01*
X1648D01*
X1654Y-239D02*
Y-248D01*
X1657Y-251D01*
X1666D01*
Y-254D01*
X1663Y-257D01*
X1660D01*
X1666Y-251D02*
Y-239D01*
X1681Y-251D02*
X1675D01*
X1672Y-248D01*
Y-242D01*
X1675Y-239D01*
X1681D01*
X1684Y-242D01*
Y-245D01*
X1672D01*
X1690Y-239D02*
Y-251D01*
Y-245D01*
X1693Y-242D01*
X1696Y-239D01*
X1699D01*
X1717Y-251D02*
Y-233D01*
X1708Y-242D01*
X1720D01*
X1567Y-284D02*
Y-302D01*
X1576D01*
X1579Y-299D01*
Y-296D01*
X1576Y-293D01*
X1567D01*
X1576D01*
X1579Y-290D01*
Y-287D01*
X1576Y-284D01*
X1567D01*
X1588Y-302D02*
X1594D01*
X1597Y-299D01*
Y-293D01*
X1594Y-290D01*
X1588D01*
X1585Y-293D01*
Y-299D01*
X1588Y-302D01*
X1606Y-287D02*
Y-290D01*
X1603D01*
X1609D01*
X1606D01*
Y-299D01*
X1609Y-302D01*
X1621Y-287D02*
Y-290D01*
X1618D01*
X1624D01*
X1621D01*
Y-299D01*
X1624Y-302D01*
X1636D02*
X1642D01*
X1645Y-299D01*
Y-293D01*
X1642Y-290D01*
X1636D01*
X1633Y-293D01*
Y-299D01*
X1636Y-302D01*
X1651D02*
Y-290D01*
X1654D01*
X1657Y-293D01*
Y-302D01*
Y-293D01*
X1660Y-290D01*
X1663Y-293D01*
Y-302D01*
X1669Y-284D02*
Y-302D01*
X1681D01*
X1690Y-290D02*
X1696D01*
X1699Y-293D01*
Y-302D01*
X1690D01*
X1687Y-299D01*
X1690Y-296D01*
X1699D01*
X1705Y-290D02*
Y-299D01*
X1708Y-302D01*
X1717D01*
Y-305D01*
X1714Y-308D01*
X1711D01*
X1717Y-302D02*
Y-290D01*
X1732Y-302D02*
X1726D01*
X1723Y-299D01*
Y-293D01*
X1726Y-290D01*
X1732D01*
X1735Y-293D01*
Y-296D01*
X1723D01*
X1741Y-290D02*
Y-302D01*
Y-296D01*
X1744Y-293D01*
X1747Y-290D01*
X1750D01*
D118*
X1567Y28D02*
Y15D01*
X1576D01*
X1582Y24D02*
X1586D01*
X1589Y22D01*
Y15D01*
X1582D01*
X1580Y17D01*
X1582Y20D01*
X1589D01*
X1593Y24D02*
Y17D01*
X1595Y15D01*
X1602D01*
Y13D01*
X1599Y11D01*
X1597D01*
X1602Y15D02*
Y24D01*
X1612Y15D02*
X1608D01*
X1606Y17D01*
Y22D01*
X1608Y24D01*
X1612D01*
X1615Y22D01*
Y20D01*
X1606D01*
X1619Y24D02*
Y15D01*
Y20D01*
X1621Y22D01*
X1623Y24D01*
X1625D01*
X1567Y-11D02*
Y2D01*
X1576Y-11D01*
Y2D01*
X1582Y-2D02*
X1586D01*
X1589Y-4D01*
Y-11D01*
X1582D01*
X1580Y-9D01*
X1582Y-6D01*
X1589D01*
X1593Y-11D02*
Y-2D01*
X1595D01*
X1597Y-4D01*
Y-11D01*
Y-4D01*
X1599Y-2D01*
X1602Y-4D01*
Y-11D01*
X1612D02*
X1608D01*
X1606Y-9D01*
Y-4D01*
X1608Y-2D01*
X1612D01*
X1615Y-4D01*
Y-6D01*
X1606D01*
X-367Y121D02*
Y153D01*
X-335D01*
Y121D01*
X-367D01*
X-267D02*
Y153D01*
X-235D01*
Y121D01*
X-267D01*
X-167D02*
Y153D01*
X-135D01*
Y121D01*
X-167D01*
X-67D02*
Y153D01*
X-35D01*
Y121D01*
X-67D01*
X33D02*
Y153D01*
X65D01*
Y121D01*
X33D01*
X133D02*
Y153D01*
X165D01*
Y121D01*
X133D01*
X134Y401D02*
Y433D01*
X166D01*
Y401D01*
X134D01*
X-66D02*
Y433D01*
X-34D01*
Y401D01*
X-66D01*
X34D02*
Y433D01*
X66D01*
Y401D01*
X34D01*
X-466D02*
Y433D01*
X-434D01*
Y401D01*
X-466D01*
X-266D02*
Y433D01*
X-234D01*
Y401D01*
X-266D01*
X-166D02*
Y433D01*
X-134D01*
Y401D01*
X-166D01*
X334D02*
Y433D01*
X366D01*
Y401D01*
X334D01*
X434D02*
Y433D01*
X466D01*
Y401D01*
X434D01*
X-366D02*
Y433D01*
X-334D01*
Y401D01*
X-366D01*
X234D02*
Y433D01*
X266D01*
Y401D01*
X234D01*
X249Y505D02*
X233Y537D01*
X265D01*
X249Y505D01*
X40Y1445D02*
X24Y1477D01*
X56D01*
X40Y1445D01*
X395Y1990D02*
X379Y2022D01*
X411D01*
X395Y1990D01*
Y1890D02*
X379Y1922D01*
X411D01*
X395Y1890D01*
X-275Y1889D02*
X-291Y1921D01*
X-259D01*
X-275Y1889D01*
X65Y1354D02*
X49Y1386D01*
X81D01*
X65Y1354D01*
X790Y1009D02*
X774Y1041D01*
X806D01*
X790Y1009D01*
X-19Y1535D02*
X-11Y1543D01*
X-3D01*
X-11Y1551D01*
X-3Y1559D01*
X-11D01*
X-19Y1567D01*
X-27Y1559D01*
X-35D01*
X-27Y1551D01*
X-35Y1543D01*
X-27D01*
X-19Y1535D01*
X13Y1496D02*
X21Y1504D01*
X29D01*
X21Y1512D01*
X29Y1520D01*
X21D01*
X13Y1528D01*
X5Y1520D01*
X-3D01*
X5Y1512D01*
X-3Y1504D01*
X5D01*
X13Y1496D01*
X83Y257D02*
X91Y265D01*
X99D01*
X91Y273D01*
X99Y281D01*
X91D01*
X83Y289D01*
X75Y281D01*
X67D01*
X75Y273D01*
X67Y265D01*
X75D01*
X83Y257D01*
X-316Y920D02*
X-308Y928D01*
X-300D01*
X-308Y936D01*
X-300Y944D01*
X-308D01*
X-316Y952D01*
X-324Y944D01*
X-332D01*
X-324Y936D01*
X-332Y928D01*
X-324D01*
X-316Y920D01*
X198Y314D02*
X206Y322D01*
X214D01*
X206Y330D01*
X214Y338D01*
X206D01*
X198Y346D01*
X190Y338D01*
X182D01*
X190Y330D01*
X182Y322D01*
X190D01*
X198Y314D01*
X-356Y317D02*
X-348Y325D01*
X-340D01*
X-348Y333D01*
X-340Y341D01*
X-348D01*
X-356Y349D01*
X-364Y341D01*
X-372D01*
X-364Y333D01*
X-372Y325D01*
X-364D01*
X-356Y317D01*
X201Y599D02*
X209Y607D01*
X217D01*
X209Y615D01*
X217Y623D01*
X209D01*
X201Y631D01*
X193Y623D01*
X185D01*
X193Y615D01*
X185Y607D01*
X193D01*
X201Y599D01*
X160D02*
X168Y607D01*
X176D01*
X168Y615D01*
X176Y623D01*
X168D01*
X160Y631D01*
X152Y623D01*
X144D01*
X152Y615D01*
X144Y607D01*
X152D01*
X160Y599D01*
X212Y631D02*
X220Y639D01*
X228D01*
X220Y647D01*
X228Y655D01*
X220D01*
X212Y663D01*
X204Y655D01*
X196D01*
X204Y647D01*
X196Y639D01*
X204D01*
X212Y631D01*
X-2Y314D02*
X6Y322D01*
X14D01*
X6Y330D01*
X14Y338D01*
X6D01*
X-2Y346D01*
X-10Y338D01*
X-18D01*
X-10Y330D01*
X-18Y322D01*
X-10D01*
X-2Y314D01*
X98D02*
X106Y322D01*
X114D01*
X106Y330D01*
X114Y338D01*
X106D01*
X98Y346D01*
X90Y338D01*
X82D01*
X90Y330D01*
X82Y322D01*
X90D01*
X98Y314D01*
X630Y555D02*
X638Y563D01*
X646D01*
X638Y571D01*
X646Y579D01*
X638D01*
X630Y587D01*
X622Y579D01*
X614D01*
X622Y571D01*
X614Y563D01*
X622D01*
X630Y555D01*
X902Y1190D02*
X910Y1198D01*
X918D01*
X910Y1206D01*
X918Y1214D01*
X910D01*
X902Y1222D01*
X894Y1214D01*
X886D01*
X894Y1206D01*
X886Y1198D01*
X894D01*
X902Y1190D01*
X698Y555D02*
X706Y563D01*
X714D01*
X706Y571D01*
X714Y579D01*
X706D01*
X698Y587D01*
X690Y579D01*
X682D01*
X690Y571D01*
X682Y563D01*
X690D01*
X698Y555D01*
X-633Y1918D02*
X-625Y1926D01*
X-617D01*
X-625Y1934D01*
X-617Y1942D01*
X-625D01*
X-633Y1950D01*
X-641Y1942D01*
X-649D01*
X-641Y1934D01*
X-649Y1926D01*
X-641D01*
X-633Y1918D01*
X-859Y1863D02*
X-851Y1871D01*
X-843D01*
X-851Y1879D01*
X-843Y1887D01*
X-851D01*
X-859Y1895D01*
X-867Y1887D01*
X-875D01*
X-867Y1879D01*
X-875Y1871D01*
X-867D01*
X-859Y1863D01*
X-434Y1901D02*
X-426Y1909D01*
X-418D01*
X-426Y1917D01*
X-418Y1925D01*
X-426D01*
X-434Y1933D01*
X-442Y1925D01*
X-450D01*
X-442Y1917D01*
X-450Y1909D01*
X-442D01*
X-434Y1901D01*
X40Y2004D02*
X48Y2012D01*
X56D01*
X48Y2020D01*
X56Y2028D01*
X48D01*
X40Y2036D01*
X32Y2028D01*
X24D01*
X32Y2020D01*
X24Y2012D01*
X32D01*
X40Y2004D01*
X188Y2413D02*
X196Y2421D01*
X204D01*
X196Y2429D01*
X204Y2437D01*
X196D01*
X188Y2445D01*
X180Y2437D01*
X172D01*
X180Y2429D01*
X172Y2421D01*
X180D01*
X188Y2413D01*
X59Y2423D02*
X67Y2431D01*
X75D01*
X67Y2439D01*
X75Y2447D01*
X67D01*
X59Y2455D01*
X51Y2447D01*
X43D01*
X51Y2439D01*
X43Y2431D01*
X51D01*
X59Y2423D01*
X94Y2086D02*
X102Y2094D01*
X110D01*
X102Y2102D01*
X110Y2110D01*
X102D01*
X94Y2118D01*
X86Y2110D01*
X78D01*
X86Y2102D01*
X78Y2094D01*
X86D01*
X94Y2086D01*
X193Y2126D02*
X201Y2134D01*
X209D01*
X201Y2142D01*
X209Y2150D01*
X201D01*
X193Y2158D01*
X185Y2150D01*
X177D01*
X185Y2142D01*
X177Y2134D01*
X185D01*
X193Y2126D01*
X185Y2216D02*
X193Y2224D01*
X201D01*
X193Y2232D01*
X201Y2240D01*
X193D01*
X185Y2248D01*
X177Y2240D01*
X169D01*
X177Y2232D01*
X169Y2224D01*
X177D01*
X185Y2216D01*
X-174Y1535D02*
X-166Y1543D01*
X-158D01*
X-166Y1551D01*
X-158Y1559D01*
X-166D01*
X-174Y1567D01*
X-182Y1559D01*
X-190D01*
X-182Y1551D01*
X-190Y1543D01*
X-182D01*
X-174Y1535D01*
X-146Y1475D02*
X-138Y1483D01*
X-130D01*
X-138Y1491D01*
X-130Y1499D01*
X-138D01*
X-146Y1507D01*
X-154Y1499D01*
X-162D01*
X-154Y1491D01*
X-162Y1483D01*
X-154D01*
X-146Y1475D01*
X0Y1729D02*
X8Y1737D01*
X16D01*
X8Y1745D01*
X16Y1753D01*
X8D01*
X0Y1761D01*
X-8Y1753D01*
X-16D01*
X-8Y1745D01*
X-16Y1737D01*
X-8D01*
X0Y1729D01*
X-173Y1828D02*
X-165Y1836D01*
X-157D01*
X-165Y1844D01*
X-157Y1852D01*
X-165D01*
X-173Y1860D01*
X-181Y1852D01*
X-189D01*
X-181Y1844D01*
X-189Y1836D01*
X-181D01*
X-173Y1828D01*
X-417Y1262D02*
X-409Y1270D01*
X-401D01*
X-409Y1278D01*
X-401Y1286D01*
X-409D01*
X-417Y1294D01*
X-425Y1286D01*
X-433D01*
X-425Y1278D01*
X-433Y1270D01*
X-425D01*
X-417Y1262D01*
X-850Y1240D02*
X-842Y1248D01*
X-834D01*
X-842Y1256D01*
X-834Y1264D01*
X-842D01*
X-850Y1272D01*
X-858Y1264D01*
X-866D01*
X-858Y1256D01*
X-866Y1248D01*
X-858D01*
X-850Y1240D01*
X87Y1306D02*
X95Y1314D01*
X103D01*
X95Y1322D01*
X103Y1330D01*
X95D01*
X87Y1338D01*
X79Y1330D01*
X71D01*
X79Y1322D01*
X71Y1314D01*
X79D01*
X87Y1306D01*
X222Y1616D02*
X230Y1624D01*
X238D01*
X230Y1632D01*
X238Y1640D01*
X230D01*
X222Y1648D01*
X214Y1640D01*
X206D01*
X214Y1632D01*
X206Y1624D01*
X214D01*
X222Y1616D01*
X356Y1546D02*
X364Y1554D01*
X372D01*
X364Y1562D01*
X372Y1570D01*
X364D01*
X356Y1578D01*
X348Y1570D01*
X340D01*
X348Y1562D01*
X340Y1554D01*
X348D01*
X356Y1546D01*
X-388Y1188D02*
X-380Y1196D01*
X-372D01*
X-380Y1204D01*
X-372Y1212D01*
X-380D01*
X-388Y1220D01*
X-396Y1212D01*
X-404D01*
X-396Y1204D01*
X-404Y1196D01*
X-396D01*
X-388Y1188D01*
X-493Y608D02*
X-485Y616D01*
X-477D01*
X-485Y624D01*
X-477Y632D01*
X-485D01*
X-493Y640D01*
X-501Y632D01*
X-509D01*
X-501Y624D01*
X-509Y616D01*
X-501D01*
X-493Y608D01*
X-665Y697D02*
X-657Y705D01*
X-649D01*
X-657Y713D01*
X-649Y721D01*
X-657D01*
X-665Y729D01*
X-673Y721D01*
X-681D01*
X-673Y713D01*
X-681Y705D01*
X-673D01*
X-665Y697D01*
X-628Y767D02*
X-620Y775D01*
X-612D01*
X-620Y783D01*
X-612Y791D01*
X-620D01*
X-628Y799D01*
X-636Y791D01*
X-644D01*
X-636Y783D01*
X-644Y775D01*
X-636D01*
X-628Y767D01*
X-209Y739D02*
X-201Y747D01*
X-193D01*
X-201Y755D01*
X-193Y763D01*
X-201D01*
X-209Y771D01*
X-217Y763D01*
X-225D01*
X-217Y755D01*
X-225Y747D01*
X-217D01*
X-209Y739D01*
Y675D02*
X-201Y683D01*
X-193D01*
X-201Y691D01*
X-193Y699D01*
X-201D01*
X-209Y707D01*
X-217Y699D01*
X-225D01*
X-217Y691D01*
X-225Y683D01*
X-217D01*
X-209Y675D01*
X102Y1099D02*
X110Y1107D01*
X118D01*
X110Y1115D01*
X118Y1123D01*
X110D01*
X102Y1131D01*
X94Y1123D01*
X86D01*
X94Y1115D01*
X86Y1107D01*
X94D01*
X102Y1099D01*
X-166Y527D02*
X-158Y535D01*
X-150D01*
X-158Y543D01*
X-150Y551D01*
X-158D01*
X-166Y559D01*
X-174Y551D01*
X-182D01*
X-174Y543D01*
X-182Y535D01*
X-174D01*
X-166Y527D01*
X91Y568D02*
X99Y576D01*
X107D01*
X99Y584D01*
X107Y592D01*
X99D01*
X91Y600D01*
X83Y592D01*
X75D01*
X83Y584D01*
X75Y576D01*
X83D01*
X91Y568D01*
X-50Y1572D02*
X-42Y1580D01*
X-34D01*
X-42Y1588D01*
X-34Y1596D01*
X-42D01*
X-50Y1604D01*
X-58Y1596D01*
X-66D01*
X-58Y1588D01*
X-66Y1580D01*
X-58D01*
X-50Y1572D01*
X-178Y897D02*
X-170Y905D01*
X-162D01*
X-170Y913D01*
X-162Y921D01*
X-170D01*
X-178Y929D01*
X-186Y921D01*
X-194D01*
X-186Y913D01*
X-194Y905D01*
X-186D01*
X-178Y897D01*
X-137Y1735D02*
X-129Y1743D01*
X-121D01*
X-129Y1751D01*
X-121Y1759D01*
X-129D01*
X-137Y1767D01*
X-145Y1759D01*
X-153D01*
X-145Y1751D01*
X-153Y1743D01*
X-145D01*
X-137Y1735D01*
X54Y1760D02*
X62Y1768D01*
X70D01*
X62Y1776D01*
X70Y1784D01*
X62D01*
X54Y1792D01*
X46Y1784D01*
X38D01*
X46Y1776D01*
X38Y1768D01*
X46D01*
X54Y1760D01*
X-398Y2311D02*
X-390Y2319D01*
X-382D01*
X-390Y2327D01*
X-382Y2335D01*
X-390D01*
X-398Y2343D01*
X-406Y2335D01*
X-414D01*
X-406Y2327D01*
X-414Y2319D01*
X-406D01*
X-398Y2311D01*
X-740Y2397D02*
X-732Y2405D01*
X-724D01*
X-732Y2413D01*
X-724Y2421D01*
X-732D01*
X-740Y2429D01*
X-748Y2421D01*
X-756D01*
X-748Y2413D01*
X-756Y2405D01*
X-748D01*
X-740Y2397D01*
X-839Y2102D02*
X-831Y2110D01*
X-823D01*
X-831Y2118D01*
X-823Y2126D01*
X-831D01*
X-839Y2134D01*
X-847Y2126D01*
X-855D01*
X-847Y2118D01*
X-855Y2110D01*
X-847D01*
X-839Y2102D01*
X-787Y2338D02*
X-779Y2346D01*
X-771D01*
X-779Y2354D01*
X-771Y2362D01*
X-779D01*
X-787Y2370D01*
X-795Y2362D01*
X-803D01*
X-795Y2354D01*
X-803Y2346D01*
X-795D01*
X-787Y2338D01*
X-602Y2118D02*
X-594Y2126D01*
X-586D01*
X-594Y2134D01*
X-586Y2142D01*
X-594D01*
X-602Y2150D01*
X-610Y2142D01*
X-618D01*
X-610Y2134D01*
X-618Y2126D01*
X-610D01*
X-602Y2118D01*
X-839Y1960D02*
X-831Y1968D01*
X-823D01*
X-831Y1976D01*
X-823Y1984D01*
X-831D01*
X-839Y1992D01*
X-847Y1984D01*
X-855D01*
X-847Y1976D01*
X-855Y1968D01*
X-847D01*
X-839Y1960D01*
X-697Y2004D02*
X-689Y2012D01*
X-681D01*
X-689Y2020D01*
X-681Y2028D01*
X-689D01*
X-697Y2036D01*
X-705Y2028D01*
X-713D01*
X-705Y2020D01*
X-713Y2012D01*
X-705D01*
X-697Y2004D01*
X305Y1850D02*
X313Y1858D01*
X321D01*
X313Y1866D01*
X321Y1874D01*
X313D01*
X305Y1882D01*
X297Y1874D01*
X289D01*
X297Y1866D01*
X289Y1858D01*
X297D01*
X305Y1850D01*
X-87Y1949D02*
X-79Y1957D01*
X-71D01*
X-79Y1965D01*
X-71Y1973D01*
X-79D01*
X-87Y1981D01*
X-95Y1973D01*
X-103D01*
X-95Y1965D01*
X-103Y1957D01*
X-95D01*
X-87Y1949D01*
X-171Y1863D02*
X-163Y1871D01*
X-155D01*
X-163Y1879D01*
X-155Y1887D01*
X-163D01*
X-171Y1895D01*
X-179Y1887D01*
X-187D01*
X-179Y1879D01*
X-187Y1871D01*
X-179D01*
X-171Y1863D01*
X445Y1909D02*
X453Y1917D01*
X461D01*
X453Y1925D01*
X461Y1933D01*
X453D01*
X445Y1941D01*
X437Y1933D01*
X429D01*
X437Y1925D01*
X429Y1917D01*
X437D01*
X445Y1909D01*
X690Y1862D02*
X698Y1870D01*
X706D01*
X698Y1878D01*
X706Y1886D01*
X698D01*
X690Y1894D01*
X682Y1886D01*
X674D01*
X682Y1878D01*
X674Y1870D01*
X682D01*
X690Y1862D01*
X-336Y1219D02*
X-328Y1227D01*
X-320D01*
X-328Y1235D01*
X-320Y1243D01*
X-328D01*
X-336Y1251D01*
X-344Y1243D01*
X-352D01*
X-344Y1235D01*
X-352Y1227D01*
X-344D01*
X-336Y1219D01*
X-386Y1445D02*
X-378Y1453D01*
X-370D01*
X-378Y1461D01*
X-370Y1469D01*
X-378D01*
X-386Y1477D01*
X-394Y1469D01*
X-402D01*
X-394Y1461D01*
X-402Y1453D01*
X-394D01*
X-386Y1445D01*
X831Y1849D02*
X839Y1857D01*
X847D01*
X839Y1865D01*
X847Y1873D01*
X839D01*
X831Y1881D01*
X823Y1873D01*
X815D01*
X823Y1865D01*
X815Y1857D01*
X823D01*
X831Y1849D01*
X617Y1812D02*
X625Y1820D01*
X633D01*
X625Y1828D01*
X633Y1836D01*
X625D01*
X617Y1844D01*
X609Y1836D01*
X601D01*
X609Y1828D01*
X601Y1820D01*
X609D01*
X617Y1812D01*
X334Y1368D02*
X342Y1376D01*
X350D01*
X342Y1384D01*
X350Y1392D01*
X342D01*
X334Y1400D01*
X326Y1392D01*
X318D01*
X326Y1384D01*
X318Y1376D01*
X326D01*
X334Y1368D01*
X115Y1050D02*
X123Y1058D01*
X131D01*
X123Y1066D01*
X131Y1074D01*
X123D01*
X115Y1082D01*
X107Y1074D01*
X99D01*
X107Y1066D01*
X99Y1058D01*
X107D01*
X115Y1050D01*
X-10Y531D02*
X-2Y539D01*
X6D01*
X-2Y547D01*
X6Y555D01*
X-2D01*
X-10Y563D01*
X-18Y555D01*
X-26D01*
X-18Y547D01*
X-26Y539D01*
X-18D01*
X-10Y531D01*
X-11Y748D02*
X-3Y756D01*
X5D01*
X-3Y764D01*
X5Y772D01*
X-3D01*
X-11Y780D01*
X-19Y772D01*
X-27D01*
X-19Y764D01*
X-27Y756D01*
X-19D01*
X-11Y748D01*
X-171Y650D02*
X-163Y658D01*
X-155D01*
X-163Y666D01*
X-155Y674D01*
X-163D01*
X-171Y682D01*
X-179Y674D01*
X-187D01*
X-179Y666D01*
X-187Y658D01*
X-179D01*
X-171Y650D01*
X-152Y777D02*
X-144Y785D01*
X-136D01*
X-144Y793D01*
X-136Y801D01*
X-144D01*
X-152Y809D01*
X-160Y801D01*
X-168D01*
X-160Y793D01*
X-168Y785D01*
X-160D01*
X-152Y777D01*
X-383Y748D02*
X-375Y756D01*
X-367D01*
X-375Y764D01*
X-367Y772D01*
X-375D01*
X-383Y780D01*
X-391Y772D01*
X-399D01*
X-391Y764D01*
X-399Y756D01*
X-391D01*
X-383Y748D01*
X-320Y804D02*
X-312Y812D01*
X-304D01*
X-312Y820D01*
X-304Y828D01*
X-312D01*
X-320Y836D01*
X-328Y828D01*
X-336D01*
X-328Y820D01*
X-336Y812D01*
X-328D01*
X-320Y804D01*
X-216Y1055D02*
X-208Y1063D01*
X-200D01*
X-208Y1071D01*
X-200Y1079D01*
X-208D01*
X-216Y1087D01*
X-224Y1079D01*
X-232D01*
X-224Y1071D01*
X-232Y1063D01*
X-224D01*
X-216Y1055D01*
X-233Y1575D02*
X-225Y1583D01*
X-217D01*
X-225Y1591D01*
X-217Y1599D01*
X-225D01*
X-233Y1607D01*
X-241Y1599D01*
X-249D01*
X-241Y1591D01*
X-249Y1583D01*
X-241D01*
X-233Y1575D01*
X332Y1483D02*
X340Y1491D01*
X348D01*
X340Y1499D01*
X348Y1507D01*
X340D01*
X332Y1515D01*
X324Y1507D01*
X316D01*
X324Y1499D01*
X316Y1491D01*
X324D01*
X332Y1483D01*
X351Y1311D02*
X359Y1319D01*
X367D01*
X359Y1327D01*
X367Y1335D01*
X359D01*
X351Y1343D01*
X343Y1335D01*
X335D01*
X343Y1327D01*
X335Y1319D01*
X343D01*
X351Y1311D01*
X112Y1341D02*
X120Y1349D01*
X128D01*
X120Y1357D01*
X128Y1365D01*
X120D01*
X112Y1373D01*
X104Y1365D01*
X96D01*
X104Y1357D01*
X96Y1349D01*
X104D01*
X112Y1341D01*
X110Y1214D02*
X118Y1222D01*
X126D01*
X118Y1230D01*
X126Y1238D01*
X118D01*
X110Y1246D01*
X102Y1238D01*
X94D01*
X102Y1230D01*
X94Y1222D01*
X102D01*
X110Y1214D01*
X226Y1120D02*
X234Y1128D01*
X242D01*
X234Y1136D01*
X242Y1144D01*
X234D01*
X226Y1152D01*
X218Y1144D01*
X210D01*
X218Y1136D01*
X210Y1128D01*
X218D01*
X226Y1120D01*
X-63Y1196D02*
X-55Y1204D01*
X-47D01*
X-55Y1212D01*
X-47Y1220D01*
X-55D01*
X-63Y1228D01*
X-71Y1220D01*
X-79D01*
X-71Y1212D01*
X-79Y1204D01*
X-71D01*
X-63Y1196D01*
X-153Y1271D02*
X-145Y1279D01*
X-137D01*
X-145Y1287D01*
X-137Y1295D01*
X-145D01*
X-153Y1303D01*
X-161Y1295D01*
X-169D01*
X-161Y1287D01*
X-169Y1279D01*
X-161D01*
X-153Y1271D01*
Y1396D02*
X-145Y1404D01*
X-137D01*
X-145Y1412D01*
X-137Y1420D01*
X-145D01*
X-153Y1428D01*
X-161Y1420D01*
X-169D01*
X-161Y1412D01*
X-169Y1404D01*
X-161D01*
X-153Y1396D01*
X-110Y1329D02*
X-102Y1337D01*
X-94D01*
X-102Y1345D01*
X-94Y1353D01*
X-102D01*
X-110Y1361D01*
X-118Y1353D01*
X-126D01*
X-118Y1345D01*
X-126Y1337D01*
X-118D01*
X-110Y1329D01*
X-527Y801D02*
X-519Y809D01*
X-511D01*
X-519Y817D01*
X-511Y825D01*
X-519D01*
X-527Y833D01*
X-535Y825D01*
X-543D01*
X-535Y817D01*
X-543Y809D01*
X-535D01*
X-527Y801D01*
X-62Y926D02*
X-54Y934D01*
X-46D01*
X-54Y942D01*
X-46Y950D01*
X-54D01*
X-62Y958D01*
X-70Y950D01*
X-78D01*
X-70Y942D01*
X-78Y934D01*
X-70D01*
X-62Y926D01*
X-797Y1088D02*
X-789Y1096D01*
X-781D01*
X-789Y1104D01*
X-781Y1112D01*
X-789D01*
X-797Y1120D01*
X-805Y1112D01*
X-813D01*
X-805Y1104D01*
X-813Y1096D01*
X-805D01*
X-797Y1088D01*
X-746Y1061D02*
X-738Y1069D01*
X-730D01*
X-738Y1077D01*
X-730Y1085D01*
X-738D01*
X-746Y1093D01*
X-754Y1085D01*
X-762D01*
X-754Y1077D01*
X-762Y1069D01*
X-754D01*
X-746Y1061D01*
X414Y1071D02*
X422Y1079D01*
X430D01*
X422Y1087D01*
X430Y1095D01*
X422D01*
X414Y1103D01*
X406Y1095D01*
X398D01*
X406Y1087D01*
X398Y1079D01*
X406D01*
X414Y1071D01*
X442Y1241D02*
X450Y1249D01*
X458D01*
X450Y1257D01*
X458Y1265D01*
X450D01*
X442Y1273D01*
X434Y1265D01*
X426D01*
X434Y1257D01*
X426Y1249D01*
X434D01*
X442Y1241D01*
X800Y1457D02*
X808Y1465D01*
X816D01*
X808Y1473D01*
X816Y1481D01*
X808D01*
X800Y1489D01*
X792Y1481D01*
X784D01*
X792Y1473D01*
X784Y1465D01*
X792D01*
X800Y1457D01*
X683Y1471D02*
X691Y1479D01*
X699D01*
X691Y1487D01*
X699Y1495D01*
X691D01*
X683Y1503D01*
X675Y1495D01*
X667D01*
X675Y1487D01*
X667Y1479D01*
X675D01*
X683Y1471D01*
X814Y1922D02*
X822Y1930D01*
X830D01*
X822Y1938D01*
X830Y1946D01*
X822D01*
X814Y1954D01*
X806Y1946D01*
X798D01*
X806Y1938D01*
X798Y1930D01*
X806D01*
X814Y1922D01*
X-790Y873D02*
X-782Y881D01*
X-774D01*
X-782Y889D01*
X-774Y897D01*
X-782D01*
X-790Y905D01*
X-798Y897D01*
X-806D01*
X-798Y889D01*
X-806Y881D01*
X-798D01*
X-790Y873D01*
X-650D02*
X-642Y881D01*
X-634D01*
X-642Y889D01*
X-634Y897D01*
X-642D01*
X-650Y905D01*
X-658Y897D01*
X-666D01*
X-658Y889D01*
X-666Y881D01*
X-658D01*
X-650Y873D01*
X-269Y1472D02*
X-261Y1480D01*
X-253D01*
X-261Y1488D01*
X-253Y1496D01*
X-261D01*
X-269Y1504D01*
X-277Y1496D01*
X-285D01*
X-277Y1488D01*
X-285Y1480D01*
X-277D01*
X-269Y1472D01*
X-374Y862D02*
X-366Y870D01*
X-358D01*
X-366Y878D01*
X-358Y886D01*
X-366D01*
X-374Y894D01*
X-382Y886D01*
X-390D01*
X-382Y878D01*
X-390Y870D01*
X-382D01*
X-374Y862D01*
X528Y1803D02*
X536Y1811D01*
X544D01*
X536Y1819D01*
X544Y1827D01*
X536D01*
X528Y1835D01*
X520Y1827D01*
X512D01*
X520Y1819D01*
X512Y1811D01*
X520D01*
X528Y1803D01*
X-816Y1274D02*
X-808Y1282D01*
X-800D01*
X-808Y1290D01*
X-800Y1298D01*
X-808D01*
X-816Y1306D01*
X-824Y1298D01*
X-832D01*
X-824Y1290D01*
X-832Y1282D01*
X-824D01*
X-816Y1274D01*
X770Y1607D02*
X778Y1615D01*
X786D01*
X778Y1623D01*
X786Y1631D01*
X778D01*
X770Y1639D01*
X762Y1631D01*
X754D01*
X762Y1623D01*
X754Y1615D01*
X762D01*
X770Y1607D01*
X-213Y2366D02*
X-205Y2374D01*
X-197D01*
X-205Y2382D01*
X-197Y2390D01*
X-205D01*
X-213Y2398D01*
X-221Y2390D01*
X-229D01*
X-221Y2382D01*
X-229Y2374D01*
X-221D01*
X-213Y2366D01*
X31Y2315D02*
X39Y2323D01*
X47D01*
X39Y2331D01*
X47Y2339D01*
X39D01*
X31Y2347D01*
X23Y2339D01*
X15D01*
X23Y2331D01*
X15Y2323D01*
X23D01*
X31Y2315D01*
X41Y2047D02*
X49Y2055D01*
X57D01*
X49Y2063D01*
X57Y2071D01*
X49D01*
X41Y2079D01*
X33Y2071D01*
X25D01*
X33Y2063D01*
X25Y2055D01*
X33D01*
X41Y2047D01*
X-197Y1949D02*
X-189Y1957D01*
X-181D01*
X-189Y1965D01*
X-181Y1973D01*
X-189D01*
X-197Y1981D01*
X-205Y1973D01*
X-213D01*
X-205Y1965D01*
X-213Y1957D01*
X-205D01*
X-197Y1949D01*
X-138D02*
X-130Y1957D01*
X-122D01*
X-130Y1965D01*
X-122Y1973D01*
X-130D01*
X-138Y1981D01*
X-146Y1973D01*
X-154D01*
X-146Y1965D01*
X-154Y1957D01*
X-146D01*
X-138Y1949D01*
X494Y709D02*
X502Y717D01*
X510D01*
X502Y725D01*
X510Y733D01*
X502D01*
X494Y741D01*
X486Y733D01*
X478D01*
X486Y725D01*
X478Y717D01*
X486D01*
X494Y709D01*
X-168Y2315D02*
X-160Y2323D01*
X-152D01*
X-160Y2331D01*
X-152Y2339D01*
X-160D01*
X-168Y2347D01*
X-176Y2339D01*
X-184D01*
X-176Y2331D01*
X-184Y2323D01*
X-176D01*
X-168Y2315D01*
X-42Y2252D02*
X-34Y2260D01*
X-26D01*
X-34Y2268D01*
X-26Y2276D01*
X-34D01*
X-42Y2284D01*
X-50Y2276D01*
X-58D01*
X-50Y2268D01*
X-58Y2260D01*
X-50D01*
X-42Y2252D01*
X-389Y1963D02*
X-381Y1971D01*
X-373D01*
X-381Y1979D01*
X-373Y1987D01*
X-381D01*
X-389Y1995D01*
X-397Y1987D01*
X-405D01*
X-397Y1979D01*
X-405Y1971D01*
X-397D01*
X-389Y1963D01*
X-462D02*
X-454Y1971D01*
X-446D01*
X-454Y1979D01*
X-446Y1987D01*
X-454D01*
X-462Y1995D01*
X-470Y1987D01*
X-478D01*
X-470Y1979D01*
X-478Y1971D01*
X-470D01*
X-462Y1963D01*
X-280Y1764D02*
X-272Y1772D01*
X-264D01*
X-272Y1780D01*
X-264Y1788D01*
X-272D01*
X-280Y1796D01*
X-288Y1788D01*
X-296D01*
X-288Y1780D01*
X-296Y1772D01*
X-288D01*
X-280Y1764D01*
X-306Y1686D02*
X-298Y1694D01*
X-290D01*
X-298Y1702D01*
X-290Y1710D01*
X-298D01*
X-306Y1718D01*
X-314Y1710D01*
X-322D01*
X-314Y1702D01*
X-322Y1694D01*
X-314D01*
X-306Y1686D01*
X-180Y1909D02*
X-172Y1917D01*
X-164D01*
X-172Y1925D01*
X-164Y1933D01*
X-172D01*
X-180Y1941D01*
X-188Y1933D01*
X-196D01*
X-188Y1925D01*
X-196Y1917D01*
X-188D01*
X-180Y1909D01*
X-431Y1539D02*
X-423Y1547D01*
X-415D01*
X-423Y1555D01*
X-415Y1563D01*
X-423D01*
X-431Y1571D01*
X-439Y1563D01*
X-447D01*
X-439Y1555D01*
X-447Y1547D01*
X-439D01*
X-431Y1539D01*
X-705Y1645D02*
X-697Y1653D01*
X-689D01*
X-697Y1661D01*
X-689Y1669D01*
X-697D01*
X-705Y1677D01*
X-713Y1669D01*
X-721D01*
X-713Y1661D01*
X-721Y1653D01*
X-713D01*
X-705Y1645D01*
X-536Y1651D02*
X-528Y1659D01*
X-520D01*
X-528Y1667D01*
X-520Y1675D01*
X-528D01*
X-536Y1683D01*
X-544Y1675D01*
X-552D01*
X-544Y1667D01*
X-552Y1659D01*
X-544D01*
X-536Y1651D01*
X-659Y1982D02*
X-651Y1990D01*
X-643D01*
X-651Y1998D01*
X-643Y2006D01*
X-651D01*
X-659Y2014D01*
X-667Y2006D01*
X-675D01*
X-667Y1998D01*
X-675Y1990D01*
X-667D01*
X-659Y1982D01*
X-555Y1960D02*
X-547Y1968D01*
X-539D01*
X-547Y1976D01*
X-539Y1984D01*
X-547D01*
X-555Y1992D01*
X-563Y1984D01*
X-571D01*
X-563Y1976D01*
X-571Y1968D01*
X-563D01*
X-555Y1960D01*
X710Y960D02*
X718Y968D01*
X726D01*
X718Y976D01*
X726Y984D01*
X718D01*
X710Y992D01*
X702Y984D01*
X694D01*
X702Y976D01*
X694Y968D01*
X702D01*
X710Y960D01*
X645Y1050D02*
X653Y1058D01*
X661D01*
X653Y1066D01*
X661Y1074D01*
X653D01*
X645Y1082D01*
X637Y1074D01*
X629D01*
X637Y1066D01*
X629Y1058D01*
X637D01*
X645Y1050D01*
X616Y648D02*
X624Y656D01*
X632D01*
X624Y664D01*
X632Y672D01*
X624D01*
X616Y680D01*
X608Y672D01*
X600D01*
X608Y664D01*
X600Y656D01*
X608D01*
X616Y648D01*
X254Y846D02*
X262Y854D01*
X270D01*
X262Y862D01*
X270Y870D01*
X262D01*
X254Y878D01*
X246Y870D01*
X238D01*
X246Y862D01*
X238Y854D01*
X246D01*
X254Y846D01*
X238Y975D02*
X246Y983D01*
X254D01*
X246Y991D01*
X254Y999D01*
X246D01*
X238Y1007D01*
X230Y999D01*
X222D01*
X230Y991D01*
X222Y983D01*
X230D01*
X238Y975D01*
X185Y845D02*
X193Y853D01*
X201D01*
X193Y861D01*
X201Y869D01*
X193D01*
X185Y877D01*
X177Y869D01*
X169D01*
X177Y861D01*
X169Y853D01*
X177D01*
X185Y845D01*
X623Y698D02*
X631Y706D01*
X639D01*
X631Y714D01*
X639Y722D01*
X631D01*
X623Y730D01*
X615Y722D01*
X607D01*
X615Y714D01*
X607Y706D01*
X615D01*
X623Y698D01*
X269Y553D02*
X277Y561D01*
X285D01*
X277Y569D01*
X285Y577D01*
X277D01*
X269Y585D01*
X261Y577D01*
X253D01*
X261Y569D01*
X253Y561D01*
X261D01*
X269Y553D01*
X-360Y575D02*
X-352Y583D01*
X-344D01*
X-352Y591D01*
X-344Y599D01*
X-352D01*
X-360Y607D01*
X-368Y599D01*
X-376D01*
X-368Y591D01*
X-376Y583D01*
X-368D01*
X-360Y575D01*
X-305D02*
X-297Y583D01*
X-289D01*
X-297Y591D01*
X-289Y599D01*
X-297D01*
X-305Y607D01*
X-313Y599D01*
X-321D01*
X-313Y591D01*
X-321Y583D01*
X-313D01*
X-305Y575D01*
X-794Y614D02*
X-786Y622D01*
X-778D01*
X-786Y630D01*
X-778Y638D01*
X-786D01*
X-794Y646D01*
X-802Y638D01*
X-810D01*
X-802Y630D01*
X-810Y622D01*
X-802D01*
X-794Y614D01*
X-792Y693D02*
X-784Y701D01*
X-776D01*
X-784Y709D01*
X-776Y717D01*
X-784D01*
X-792Y725D01*
X-800Y717D01*
X-808D01*
X-800Y709D01*
X-808Y701D01*
X-800D01*
X-792Y693D01*
X-745Y815D02*
X-737Y823D01*
X-729D01*
X-737Y831D01*
X-729Y839D01*
X-737D01*
X-745Y847D01*
X-753Y839D01*
X-761D01*
X-753Y831D01*
X-761Y823D01*
X-753D01*
X-745Y815D01*
X815Y1078D02*
X823Y1086D01*
X831D01*
X823Y1094D01*
X831Y1102D01*
X823D01*
X815Y1110D01*
X807Y1102D01*
X799D01*
X807Y1094D01*
X799Y1086D01*
X807D01*
X815Y1078D01*
X804Y1359D02*
X812Y1367D01*
X820D01*
X812Y1375D01*
X820Y1383D01*
X812D01*
X804Y1391D01*
X796Y1383D01*
X788D01*
X796Y1375D01*
X788Y1367D01*
X796D01*
X804Y1359D01*
X843Y1264D02*
X851Y1272D01*
X859D01*
X851Y1280D01*
X859Y1288D01*
X851D01*
X843Y1296D01*
X835Y1288D01*
X827D01*
X835Y1280D01*
X827Y1272D01*
X835D01*
X843Y1264D01*
X736Y526D02*
X744Y534D01*
X752D01*
X744Y542D01*
X752Y550D01*
X744D01*
X736Y558D01*
X728Y550D01*
X720D01*
X728Y542D01*
X720Y534D01*
X728D01*
X736Y526D01*
X825D02*
X833Y534D01*
X841D01*
X833Y542D01*
X841Y550D01*
X833D01*
X825Y558D01*
X817Y550D01*
X809D01*
X817Y542D01*
X809Y534D01*
X817D01*
X825Y526D01*
X181Y1050D02*
X189Y1058D01*
X197D01*
X189Y1066D01*
X197Y1074D01*
X189D01*
X181Y1082D01*
X173Y1074D01*
X165D01*
X173Y1066D01*
X165Y1058D01*
X173D01*
X181Y1050D01*
X97Y1133D02*
X105Y1141D01*
X113D01*
X105Y1149D01*
X113Y1157D01*
X105D01*
X97Y1165D01*
X89Y1157D01*
X81D01*
X89Y1149D01*
X81Y1141D01*
X89D01*
X97Y1133D01*
X225Y1153D02*
X233Y1161D01*
X241D01*
X233Y1169D01*
X241Y1177D01*
X233D01*
X225Y1185D01*
X217Y1177D01*
X209D01*
X217Y1169D01*
X209Y1161D01*
X217D01*
X225Y1153D01*
X-14Y1604D02*
X-6Y1612D01*
X2D01*
X-6Y1620D01*
X2Y1628D01*
X-6D01*
X-14Y1636D01*
X-22Y1628D01*
X-30D01*
X-22Y1620D01*
X-30Y1612D01*
X-22D01*
X-14Y1604D01*
X94Y1718D02*
X102Y1726D01*
X110D01*
X102Y1734D01*
X110Y1742D01*
X102D01*
X94Y1750D01*
X86Y1742D01*
X78D01*
X86Y1734D01*
X78Y1726D01*
X86D01*
X94Y1718D01*
X72Y1592D02*
X80Y1600D01*
X88D01*
X80Y1608D01*
X88Y1616D01*
X80D01*
X72Y1624D01*
X64Y1616D01*
X56D01*
X64Y1608D01*
X56Y1600D01*
X64D01*
X72Y1592D01*
Y1486D02*
X80Y1494D01*
X88D01*
X80Y1502D01*
X88Y1510D01*
X80D01*
X72Y1518D01*
X64Y1510D01*
X56D01*
X64Y1502D01*
X56Y1494D01*
X64D01*
X72Y1486D01*
X413Y1316D02*
X421Y1324D01*
X429D01*
X421Y1332D01*
X429Y1340D01*
X421D01*
X413Y1348D01*
X405Y1340D01*
X397D01*
X405Y1332D01*
X397Y1324D01*
X405D01*
X413Y1316D01*
X222Y1229D02*
X230Y1237D01*
X238D01*
X230Y1245D01*
X238Y1253D01*
X230D01*
X222Y1261D01*
X214Y1253D01*
X206D01*
X214Y1245D01*
X206Y1237D01*
X214D01*
X222Y1229D01*
X205Y1454D02*
X213Y1462D01*
X221D01*
X213Y1470D01*
X221Y1478D01*
X213D01*
X205Y1486D01*
X197Y1478D01*
X189D01*
X197Y1470D01*
X189Y1462D01*
X197D01*
X205Y1454D01*
X234Y1579D02*
X242Y1587D01*
X250D01*
X242Y1595D01*
X250Y1603D01*
X242D01*
X234Y1611D01*
X226Y1603D01*
X218D01*
X226Y1595D01*
X218Y1587D01*
X226D01*
X234Y1579D01*
X-345Y1047D02*
X-337Y1055D01*
X-329D01*
X-337Y1063D01*
X-329Y1071D01*
X-337D01*
X-345Y1079D01*
X-353Y1071D01*
X-361D01*
X-353Y1063D01*
X-361Y1055D01*
X-353D01*
X-345Y1047D01*
X-80Y1294D02*
X-72Y1302D01*
X-64D01*
X-72Y1310D01*
X-64Y1318D01*
X-72D01*
X-80Y1326D01*
X-88Y1318D01*
X-96D01*
X-88Y1310D01*
X-96Y1302D01*
X-88D01*
X-80Y1294D01*
X-177Y1000D02*
X-169Y1008D01*
X-161D01*
X-169Y1016D01*
X-161Y1024D01*
X-169D01*
X-177Y1032D01*
X-185Y1024D01*
X-193D01*
X-185Y1016D01*
X-193Y1008D01*
X-185D01*
X-177Y1000D01*
X-146Y1109D02*
X-138Y1117D01*
X-130D01*
X-138Y1125D01*
X-130Y1133D01*
X-138D01*
X-146Y1141D01*
X-154Y1133D01*
X-162D01*
X-154Y1125D01*
X-162Y1117D01*
X-154D01*
X-146Y1109D01*
X-177Y1053D02*
X-169Y1061D01*
X-161D01*
X-169Y1069D01*
X-161Y1077D01*
X-169D01*
X-177Y1085D01*
X-185Y1077D01*
X-193D01*
X-185Y1069D01*
X-193Y1061D01*
X-185D01*
X-177Y1053D01*
X-548Y1193D02*
X-540Y1201D01*
X-532D01*
X-540Y1209D01*
X-532Y1217D01*
X-540D01*
X-548Y1225D01*
X-556Y1217D01*
X-564D01*
X-556Y1209D01*
X-564Y1201D01*
X-556D01*
X-548Y1193D01*
Y1055D02*
X-540Y1063D01*
X-532D01*
X-540Y1071D01*
X-532Y1079D01*
X-540D01*
X-548Y1087D01*
X-556Y1079D01*
X-564D01*
X-556Y1071D01*
X-564Y1063D01*
X-556D01*
X-548Y1055D01*
X-486Y785D02*
X-478Y793D01*
X-470D01*
X-478Y801D01*
X-470Y809D01*
X-478D01*
X-486Y817D01*
X-494Y809D01*
X-502D01*
X-494Y801D01*
X-502Y793D01*
X-494D01*
X-486Y785D01*
X-385Y829D02*
X-377Y837D01*
X-369D01*
X-377Y845D01*
X-369Y853D01*
X-377D01*
X-385Y861D01*
X-393Y853D01*
X-401D01*
X-393Y845D01*
X-401Y837D01*
X-393D01*
X-385Y829D01*
X-636Y840D02*
X-628Y848D01*
X-620D01*
X-628Y856D01*
X-620Y864D01*
X-628D01*
X-636Y872D01*
X-644Y864D01*
X-652D01*
X-644Y856D01*
X-652Y848D01*
X-644D01*
X-636Y840D01*
X-64Y1372D02*
X-56Y1380D01*
X-48D01*
X-56Y1388D01*
X-48Y1396D01*
X-56D01*
X-64Y1404D01*
X-72Y1396D01*
X-80D01*
X-72Y1388D01*
X-80Y1380D01*
X-72D01*
X-64Y1372D01*
X-398Y1591D02*
X-390Y1599D01*
X-382D01*
X-390Y1607D01*
X-382Y1615D01*
X-390D01*
X-398Y1623D01*
X-406Y1615D01*
X-414D01*
X-406Y1607D01*
X-414Y1599D01*
X-406D01*
X-398Y1591D01*
X423Y1165D02*
X431Y1173D01*
X439D01*
X431Y1181D01*
X439Y1189D01*
X431D01*
X423Y1197D01*
X415Y1189D01*
X407D01*
X415Y1181D01*
X407Y1173D01*
X415D01*
X423Y1165D01*
Y1199D02*
X431Y1207D01*
X439D01*
X431Y1215D01*
X439Y1223D01*
X431D01*
X423Y1231D01*
X415Y1223D01*
X407D01*
X415Y1215D01*
X407Y1207D01*
X415D01*
X423Y1199D01*
X496Y1234D02*
X504Y1242D01*
X512D01*
X504Y1250D01*
X512Y1258D01*
X504D01*
X496Y1266D01*
X488Y1258D01*
X480D01*
X488Y1250D01*
X480Y1242D01*
X488D01*
X496Y1234D01*
X791Y1110D02*
X799Y1118D01*
X807D01*
X799Y1126D01*
X807Y1134D01*
X799D01*
X791Y1142D01*
X783Y1134D01*
X775D01*
X783Y1126D01*
X775Y1118D01*
X783D01*
X791Y1110D01*
X816Y1607D02*
X824Y1615D01*
X832D01*
X824Y1623D01*
X832Y1631D01*
X824D01*
X816Y1639D01*
X808Y1631D01*
X800D01*
X808Y1623D01*
X800Y1615D01*
X808D01*
X816Y1607D01*
X844Y1499D02*
X852Y1507D01*
X860D01*
X852Y1515D01*
X860Y1523D01*
X852D01*
X844Y1531D01*
X836Y1523D01*
X828D01*
X836Y1515D01*
X828Y1507D01*
X836D01*
X844Y1499D01*
X846Y1567D02*
X854Y1575D01*
X862D01*
X854Y1583D01*
X862Y1591D01*
X854D01*
X846Y1599D01*
X838Y1591D01*
X830D01*
X838Y1583D01*
X830Y1575D01*
X838D01*
X846Y1567D01*
X816Y1640D02*
X824Y1648D01*
X832D01*
X824Y1656D01*
X832Y1664D01*
X824D01*
X816Y1672D01*
X808Y1664D01*
X800D01*
X808Y1656D01*
X800Y1648D01*
X808D01*
X816Y1640D01*
X610Y1847D02*
X618Y1855D01*
X626D01*
X618Y1863D01*
X626Y1871D01*
X618D01*
X610Y1879D01*
X602Y1871D01*
X594D01*
X602Y1863D01*
X594Y1855D01*
X602D01*
X610Y1847D01*
X787Y1848D02*
X795Y1856D01*
X803D01*
X795Y1864D01*
X803Y1872D01*
X795D01*
X787Y1880D01*
X779Y1872D01*
X771D01*
X779Y1864D01*
X771Y1856D01*
X779D01*
X787Y1848D01*
X850Y1641D02*
X858Y1649D01*
X866D01*
X858Y1657D01*
X866Y1665D01*
X858D01*
X850Y1673D01*
X842Y1665D01*
X834D01*
X842Y1657D01*
X834Y1649D01*
X842D01*
X850Y1641D01*
X616Y1996D02*
X624Y2004D01*
X632D01*
X624Y2012D01*
X632Y2020D01*
X624D01*
X616Y2028D01*
X608Y2020D01*
X600D01*
X608Y2012D01*
X600Y2004D01*
X608D01*
X616Y1996D01*
X494Y2034D02*
X502Y2042D01*
X510D01*
X502Y2050D01*
X510Y2058D01*
X502D01*
X494Y2066D01*
X486Y2058D01*
X478D01*
X486Y2050D01*
X478Y2042D01*
X486D01*
X494Y2034D01*
X348Y1695D02*
X356Y1703D01*
X364D01*
X356Y1711D01*
X364Y1719D01*
X356D01*
X348Y1727D01*
X340Y1719D01*
X332D01*
X340Y1711D01*
X332Y1703D01*
X340D01*
X348Y1695D01*
X404Y2115D02*
X412Y2123D01*
X420D01*
X412Y2131D01*
X420Y2139D01*
X412D01*
X404Y2147D01*
X396Y2139D01*
X388D01*
X396Y2131D01*
X388Y2123D01*
X396D01*
X404Y2115D01*
X200Y1945D02*
X208Y1953D01*
X216D01*
X208Y1961D01*
X216Y1969D01*
X208D01*
X200Y1977D01*
X192Y1969D01*
X184D01*
X192Y1961D01*
X184Y1953D01*
X192D01*
X200Y1945D01*
X709Y1286D02*
X717Y1294D01*
X725D01*
X717Y1302D01*
X725Y1310D01*
X717D01*
X709Y1318D01*
X701Y1310D01*
X693D01*
X701Y1302D01*
X693Y1294D01*
X701D01*
X709Y1286D01*
X-4Y2107D02*
X4Y2115D01*
X12D01*
X4Y2123D01*
X12Y2131D01*
X4D01*
X-4Y2139D01*
X-12Y2131D01*
X-20D01*
X-12Y2123D01*
X-20Y2115D01*
X-12D01*
X-4Y2107D01*
Y2179D02*
X4Y2187D01*
X12D01*
X4Y2195D01*
X12Y2203D01*
X4D01*
X-4Y2211D01*
X-12Y2203D01*
X-20D01*
X-12Y2195D01*
X-20Y2187D01*
X-12D01*
X-4Y2179D01*
X-318Y2304D02*
X-310Y2312D01*
X-302D01*
X-310Y2320D01*
X-302Y2328D01*
X-310D01*
X-318Y2336D01*
X-326Y2328D01*
X-334D01*
X-326Y2320D01*
X-334Y2312D01*
X-326D01*
X-318Y2304D01*
X-349Y2176D02*
X-341Y2184D01*
X-333D01*
X-341Y2192D01*
X-333Y2200D01*
X-341D01*
X-349Y2208D01*
X-357Y2200D01*
X-365D01*
X-357Y2192D01*
X-365Y2184D01*
X-357D01*
X-349Y2176D01*
X-161Y2183D02*
X-153Y2191D01*
X-145D01*
X-153Y2199D01*
X-145Y2207D01*
X-153D01*
X-161Y2215D01*
X-169Y2207D01*
X-177D01*
X-169Y2199D01*
X-177Y2191D01*
X-169D01*
X-161Y2183D01*
X-37Y2315D02*
X-29Y2323D01*
X-21D01*
X-29Y2331D01*
X-21Y2339D01*
X-29D01*
X-37Y2347D01*
X-45Y2339D01*
X-53D01*
X-45Y2331D01*
X-53Y2323D01*
X-45D01*
X-37Y2315D01*
X-740Y2358D02*
X-732Y2366D01*
X-724D01*
X-732Y2374D01*
X-724Y2382D01*
X-732D01*
X-740Y2390D01*
X-748Y2382D01*
X-756D01*
X-748Y2374D01*
X-756Y2366D01*
X-748D01*
X-740Y2358D01*
X-750Y2242D02*
X-742Y2250D01*
X-734D01*
X-742Y2258D01*
X-734Y2266D01*
X-742D01*
X-750Y2274D01*
X-758Y2266D01*
X-766D01*
X-758Y2258D01*
X-766Y2250D01*
X-758D01*
X-750Y2242D01*
X-465Y2106D02*
X-457Y2114D01*
X-449D01*
X-457Y2122D01*
X-449Y2130D01*
X-457D01*
X-465Y2138D01*
X-473Y2130D01*
X-481D01*
X-473Y2122D01*
X-481Y2114D01*
X-473D01*
X-465Y2106D01*
X-466Y2139D02*
X-458Y2147D01*
X-450D01*
X-458Y2155D01*
X-450Y2163D01*
X-458D01*
X-466Y2171D01*
X-474Y2163D01*
X-482D01*
X-474Y2155D01*
X-482Y2147D01*
X-474D01*
X-466Y2139D01*
X-465Y2073D02*
X-457Y2081D01*
X-449D01*
X-457Y2089D01*
X-449Y2097D01*
X-457D01*
X-465Y2105D01*
X-473Y2097D01*
X-481D01*
X-473Y2089D01*
X-481Y2081D01*
X-473D01*
X-465Y2073D01*
X-920Y2228D02*
X-912Y2236D01*
X-904D01*
X-912Y2244D01*
X-904Y2252D01*
X-912D01*
X-920Y2260D01*
X-928Y2252D01*
X-936D01*
X-928Y2244D01*
X-936Y2236D01*
X-928D01*
X-920Y2228D01*
X-391Y2177D02*
X-383Y2185D01*
X-375D01*
X-383Y2193D01*
X-375Y2201D01*
X-383D01*
X-391Y2209D01*
X-399Y2201D01*
X-407D01*
X-399Y2193D01*
X-407Y2185D01*
X-399D01*
X-391Y2177D01*
X-693Y2411D02*
X-685Y2419D01*
X-677D01*
X-685Y2427D01*
X-677Y2435D01*
X-685D01*
X-693Y2443D01*
X-701Y2435D01*
X-709D01*
X-701Y2427D01*
X-709Y2419D01*
X-701D01*
X-693Y2411D01*
X-652Y1891D02*
X-644Y1899D01*
X-636D01*
X-644Y1907D01*
X-636Y1915D01*
X-644D01*
X-652Y1923D01*
X-660Y1915D01*
X-668D01*
X-660Y1907D01*
X-668Y1899D01*
X-660D01*
X-652Y1891D01*
X-366Y2010D02*
X-358Y2018D01*
X-350D01*
X-358Y2026D01*
X-350Y2034D01*
X-358D01*
X-366Y2042D01*
X-374Y2034D01*
X-382D01*
X-374Y2026D01*
X-382Y2018D01*
X-374D01*
X-366Y2010D01*
X445Y491D02*
X453Y499D01*
X461D01*
X453Y507D01*
X461Y515D01*
X453D01*
X445Y523D01*
X437Y515D01*
X429D01*
X437Y507D01*
X429Y499D01*
X437D01*
X445Y491D01*
X-603Y2272D02*
X-595Y2280D01*
X-587D01*
X-595Y2288D01*
X-587Y2296D01*
X-595D01*
X-603Y2304D01*
X-611Y2296D01*
X-619D01*
X-611Y2288D01*
X-619Y2280D01*
X-611D01*
X-603Y2272D01*
X540Y636D02*
X548Y644D01*
X556D01*
X548Y652D01*
X556Y660D01*
X548D01*
X540Y668D01*
X532Y660D01*
X524D01*
X532Y652D01*
X524Y644D01*
X532D01*
X540Y636D01*
X-692Y1140D02*
X-684Y1148D01*
X-676D01*
X-684Y1156D01*
X-676Y1164D01*
X-684D01*
X-692Y1172D01*
X-700Y1164D01*
X-708D01*
X-700Y1156D01*
X-708Y1148D01*
X-700D01*
X-692Y1140D01*
X594Y967D02*
X602Y975D01*
X610D01*
X602Y983D01*
X610Y991D01*
X602D01*
X594Y999D01*
X586Y991D01*
X578D01*
X586Y983D01*
X578Y975D01*
X586D01*
X594Y967D01*
X524Y533D02*
X532Y541D01*
X540D01*
X532Y549D01*
X540Y557D01*
X532D01*
X524Y565D01*
X516Y557D01*
X508D01*
X516Y549D01*
X508Y541D01*
X516D01*
X524Y533D01*
X486Y571D02*
X494Y579D01*
X502D01*
X494Y587D01*
X502Y595D01*
X494D01*
X486Y603D01*
X478Y595D01*
X470D01*
X478Y587D01*
X470Y579D01*
X478D01*
X486Y571D01*
X398Y540D02*
X406Y548D01*
X414D01*
X406Y556D01*
X414Y564D01*
X406D01*
X398Y572D01*
X390Y564D01*
X382D01*
X390Y556D01*
X382Y548D01*
X390D01*
X398Y540D01*
X345D02*
X353Y548D01*
X361D01*
X353Y556D01*
X361Y564D01*
X353D01*
X345Y572D01*
X337Y564D01*
X329D01*
X337Y556D01*
X329Y548D01*
X337D01*
X345Y540D01*
X392Y639D02*
X400Y647D01*
X408D01*
X400Y655D01*
X408Y663D01*
X400D01*
X392Y671D01*
X384Y663D01*
X376D01*
X384Y655D01*
X376Y647D01*
X384D01*
X392Y639D01*
X274Y262D02*
X282Y270D01*
X290D01*
X282Y278D01*
X290Y286D01*
X282D01*
X274Y294D01*
X266Y286D01*
X258D01*
X266Y278D01*
X258Y270D01*
X266D01*
X274Y262D01*
Y304D02*
X282Y312D01*
X290D01*
X282Y320D01*
X290Y328D01*
X282D01*
X274Y336D01*
X266Y328D01*
X258D01*
X266Y320D01*
X258Y312D01*
X266D01*
X274Y304D01*
X317Y305D02*
X325Y313D01*
X333D01*
X325Y321D01*
X333Y329D01*
X325D01*
X317Y337D01*
X309Y329D01*
X301D01*
X309Y321D01*
X301Y313D01*
X309D01*
X317Y305D01*
X359D02*
X367Y313D01*
X375D01*
X367Y321D01*
X375Y329D01*
X367D01*
X359Y337D01*
X351Y329D01*
X343D01*
X351Y321D01*
X343Y313D01*
X351D01*
X359Y305D01*
Y263D02*
X367Y271D01*
X375D01*
X367Y279D01*
X375Y287D01*
X367D01*
X359Y295D01*
X351Y287D01*
X343D01*
X351Y279D01*
X343Y271D01*
X351D01*
X359Y263D01*
X290Y676D02*
X298Y684D01*
X306D01*
X298Y692D01*
X306Y700D01*
X298D01*
X290Y708D01*
X282Y700D01*
X274D01*
X282Y692D01*
X274Y684D01*
X282D01*
X290Y676D01*
X384Y882D02*
X392Y890D01*
X400D01*
X392Y898D01*
X400Y906D01*
X392D01*
X384Y914D01*
X376Y906D01*
X368D01*
X376Y898D01*
X368Y890D01*
X376D01*
X384Y882D01*
X342D02*
X350Y890D01*
X358D01*
X350Y898D01*
X358Y906D01*
X350D01*
X342Y914D01*
X334Y906D01*
X326D01*
X334Y898D01*
X326Y890D01*
X334D01*
X342Y882D01*
X324Y832D02*
X332Y840D01*
X340D01*
X332Y848D01*
X340Y856D01*
X332D01*
X324Y864D01*
X316Y856D01*
X308D01*
X316Y848D01*
X308Y840D01*
X316D01*
X324Y832D01*
Y769D02*
X332Y777D01*
X340D01*
X332Y785D01*
X340Y793D01*
X332D01*
X324Y801D01*
X316Y793D01*
X308D01*
X316Y785D01*
X308Y777D01*
X316D01*
X324Y769D01*
X329Y666D02*
X337Y674D01*
X345D01*
X337Y682D01*
X345Y690D01*
X337D01*
X329Y698D01*
X321Y690D01*
X313D01*
X321Y682D01*
X313Y674D01*
X321D01*
X329Y666D01*
X304Y633D02*
X312Y641D01*
X320D01*
X312Y649D01*
X320Y657D01*
X312D01*
X304Y665D01*
X296Y657D01*
X288D01*
X296Y649D01*
X288Y641D01*
X296D01*
X304Y633D01*
X71Y2338D02*
X79Y2346D01*
X87D01*
X79Y2354D01*
X87Y2362D01*
X79D01*
X71Y2370D01*
X63Y2362D01*
X55D01*
X63Y2354D01*
X55Y2346D01*
X63D01*
X71Y2338D01*
X-369Y2227D02*
X-361Y2235D01*
X-353D01*
X-361Y2243D01*
X-353Y2251D01*
X-361D01*
X-369Y2259D01*
X-377Y2251D01*
X-385D01*
X-377Y2243D01*
X-385Y2235D01*
X-377D01*
X-369Y2227D01*
X845Y1428D02*
X853Y1436D01*
X861D01*
X853Y1444D01*
X861Y1452D01*
X853D01*
X845Y1460D01*
X837Y1452D01*
X829D01*
X837Y1444D01*
X829Y1436D01*
X837D01*
X845Y1428D01*
X642Y617D02*
X650Y625D01*
X658D01*
X650Y633D01*
X658Y641D01*
X650D01*
X642Y649D01*
X634Y641D01*
X626D01*
X634Y633D01*
X626Y625D01*
X634D01*
X642Y617D01*
X608Y596D02*
X616Y604D01*
X624D01*
X616Y612D01*
X624Y620D01*
X616D01*
X608Y628D01*
X600Y620D01*
X592D01*
X600Y612D01*
X592Y604D01*
X600D01*
X608Y596D01*
X478Y633D02*
X486Y641D01*
X494D01*
X486Y649D01*
X494Y657D01*
X486D01*
X478Y665D01*
X470Y657D01*
X462D01*
X470Y649D01*
X462Y641D01*
X470D01*
X478Y633D01*
X449Y686D02*
X457Y694D01*
X465D01*
X457Y702D01*
X465Y710D01*
X457D01*
X449Y718D01*
X441Y710D01*
X433D01*
X441Y702D01*
X433Y694D01*
X441D01*
X449Y686D01*
X448Y758D02*
X456Y766D01*
X464D01*
X456Y774D01*
X464Y782D01*
X456D01*
X448Y790D01*
X440Y782D01*
X432D01*
X440Y774D01*
X432Y766D01*
X440D01*
X448Y758D01*
X-310Y318D02*
X-302Y326D01*
X-294D01*
X-302Y334D01*
X-294Y342D01*
X-302D01*
X-310Y350D01*
X-318Y342D01*
X-326D01*
X-318Y334D01*
X-326Y326D01*
X-318D01*
X-310Y318D01*
X-402Y317D02*
X-394Y325D01*
X-386D01*
X-394Y333D01*
X-386Y341D01*
X-394D01*
X-402Y349D01*
X-410Y341D01*
X-418D01*
X-410Y333D01*
X-418Y325D01*
X-410D01*
X-402Y317D01*
X-449Y318D02*
X-441Y326D01*
X-433D01*
X-441Y334D01*
X-433Y342D01*
X-441D01*
X-449Y350D01*
X-457Y342D01*
X-465D01*
X-457Y334D01*
X-465Y326D01*
X-457D01*
X-449Y318D01*
X-425Y285D02*
X-417Y293D01*
X-409D01*
X-417Y301D01*
X-409Y309D01*
X-417D01*
X-425Y317D01*
X-433Y309D01*
X-441D01*
X-433Y301D01*
X-441Y293D01*
X-433D01*
X-425Y285D01*
X365Y1850D02*
X373Y1858D01*
X381D01*
X373Y1866D01*
X381Y1874D01*
X373D01*
X365Y1882D01*
X357Y1874D01*
X349D01*
X357Y1866D01*
X349Y1858D01*
X357D01*
X365Y1850D01*
X245D02*
X253Y1858D01*
X261D01*
X253Y1866D01*
X261Y1874D01*
X253D01*
X245Y1882D01*
X237Y1874D01*
X229D01*
X237Y1866D01*
X229Y1858D01*
X237D01*
X245Y1850D01*
X199Y1977D02*
X207Y1985D01*
X215D01*
X207Y1993D01*
X215Y2001D01*
X207D01*
X199Y2009D01*
X191Y2001D01*
X183D01*
X191Y1993D01*
X183Y1985D01*
X191D01*
X199Y1977D01*
X114Y2327D02*
X122Y2335D01*
X130D01*
X122Y2343D01*
X130Y2351D01*
X122D01*
X114Y2359D01*
X106Y2351D01*
X98D01*
X106Y2343D01*
X98Y2335D01*
X106D01*
X114Y2327D01*
X645Y1568D02*
X653Y1576D01*
X661D01*
X653Y1584D01*
X661Y1592D01*
X653D01*
X645Y1600D01*
X637Y1592D01*
X629D01*
X637Y1584D01*
X629Y1576D01*
X637D01*
X645Y1568D01*
X697D02*
X705Y1576D01*
X713D01*
X705Y1584D01*
X713Y1592D01*
X705D01*
X697Y1600D01*
X689Y1592D01*
X681D01*
X689Y1584D01*
X681Y1576D01*
X689D01*
X697Y1568D01*
X524Y1567D02*
X532Y1575D01*
X540D01*
X532Y1583D01*
X540Y1591D01*
X532D01*
X524Y1599D01*
X516Y1591D01*
X508D01*
X516Y1583D01*
X508Y1575D01*
X516D01*
X524Y1567D01*
X440Y1568D02*
X448Y1576D01*
X456D01*
X448Y1584D01*
X456Y1592D01*
X448D01*
X440Y1600D01*
X432Y1592D01*
X424D01*
X432Y1584D01*
X424Y1576D01*
X432D01*
X440Y1568D01*
X1471Y1134D02*
X1481Y1144D01*
X1491D01*
X1481Y1154D01*
X1491Y1164D01*
X1481D01*
X1471Y1174D01*
X1461Y1164D01*
X1451D01*
X1461Y1154D01*
X1451Y1144D01*
X1461D01*
X1471Y1134D01*
Y1034D02*
X1451Y1074D01*
X1491D01*
X1471Y1034D01*
X1451Y934D02*
Y974D01*
X1491D01*
Y934D01*
X1451D01*
D119*
X754Y2371D02*
G03*
X754Y2371I-16J0D01*
G01*
Y2171D02*
G03*
X754Y2171I-16J0D01*
G01*
X554D02*
G03*
X554Y2171I-16J0D01*
G01*
Y2371D02*
G03*
X554Y2371I-16J0D01*
G01*
X654Y2271D02*
G03*
X654Y2271I-16J0D01*
G01*
X-679Y1487D02*
G03*
X-679Y1487I-16J0D01*
G01*
X-579Y1387D02*
G03*
X-579Y1387I-16J0D01*
G01*
Y1587D02*
G03*
X-579Y1587I-16J0D01*
G01*
X-779D02*
G03*
X-779Y1587I-16J0D01*
G01*
Y1387D02*
G03*
X-779Y1387I-16J0D01*
G01*
D120*
X1491Y1300D02*
X1485Y1306D01*
X1477Y1309D01*
X1465D01*
X1457Y1306D01*
X1451Y1300D01*
Y1295D01*
X1454Y1289D01*
X1457Y1286D01*
X1462Y1283D01*
X1480Y1278D01*
X1485Y1275D01*
X1488Y1272D01*
X1491Y1266D01*
Y1258D01*
X1485Y1252D01*
X1477Y1249D01*
X1465D01*
X1457Y1252D01*
X1451Y1258D01*
X1507Y1289D02*
X1524Y1249D01*
X1542Y1289D02*
X1524Y1249D01*
X1519Y1238D01*
X1513Y1232D01*
X1507Y1229D01*
X1504D01*
X1552Y1289D02*
Y1249D01*
Y1278D02*
X1560Y1286D01*
X1566Y1289D01*
X1574D01*
X1580Y1286D01*
X1583Y1278D01*
Y1249D01*
Y1278D02*
X1592Y1286D01*
X1597Y1289D01*
X1606D01*
X1612Y1286D01*
X1614Y1278D01*
Y1249D01*
X1633Y1309D02*
Y1249D01*
Y1280D02*
X1639Y1286D01*
X1645Y1289D01*
X1653D01*
X1659Y1286D01*
X1665Y1280D01*
X1668Y1272D01*
Y1266D01*
X1665Y1258D01*
X1659Y1252D01*
X1653Y1249D01*
X1645D01*
X1639Y1252D01*
X1633Y1258D01*
X1695Y1289D02*
X1689Y1286D01*
X1683Y1280D01*
X1680Y1272D01*
Y1266D01*
X1683Y1258D01*
X1689Y1252D01*
X1695Y1249D01*
X1703D01*
X1709Y1252D01*
X1715Y1258D01*
X1718Y1266D01*
Y1272D01*
X1715Y1280D01*
X1709Y1286D01*
X1703Y1289D01*
X1695D01*
X1731Y1309D02*
Y1249D01*
X1819Y1309D02*
Y1249D01*
X1859Y1309D02*
Y1249D01*
X1819Y1280D02*
X1859D01*
X1882Y1309D02*
X1885Y1306D01*
X1887Y1309D01*
X1885Y1312D01*
X1882Y1309D01*
X1885Y1289D02*
Y1249D01*
X1907Y1309D02*
Y1260D01*
X1909Y1252D01*
X1915Y1249D01*
X1921D01*
X1898Y1289D02*
X1918D01*
X2019Y1295D02*
X2017Y1300D01*
X2011Y1306D01*
X2005Y1309D01*
X1994D01*
X1988Y1306D01*
X1982Y1300D01*
X1979Y1295D01*
X1977Y1286D01*
Y1272D01*
X1979Y1263D01*
X1982Y1258D01*
X1988Y1252D01*
X1994Y1249D01*
X2005D01*
X2011Y1252D01*
X2017Y1258D01*
X2019Y1263D01*
X2051Y1289D02*
X2045Y1286D01*
X2039Y1280D01*
X2036Y1272D01*
Y1266D01*
X2039Y1258D01*
X2045Y1252D01*
X2051Y1249D01*
X2059D01*
X2065Y1252D01*
X2071Y1258D01*
X2073Y1266D01*
Y1272D01*
X2071Y1280D01*
X2065Y1286D01*
X2059Y1289D01*
X2051D01*
X2087D02*
Y1260D01*
X2089Y1252D01*
X2095Y1249D01*
X2104D01*
X2109Y1252D01*
X2118Y1260D01*
Y1289D02*
Y1249D01*
X2134Y1289D02*
Y1249D01*
Y1278D02*
X2142Y1286D01*
X2148Y1289D01*
X2157D01*
X2162Y1286D01*
X2165Y1278D01*
Y1249D01*
X2189Y1309D02*
Y1260D01*
X2192Y1252D01*
X2198Y1249D01*
X2204D01*
X2181Y1289D02*
X2201D01*
X2312Y1309D02*
Y1249D01*
X2292Y1309D02*
X2332D01*
X2354Y1289D02*
X2348Y1286D01*
X2342Y1280D01*
X2340Y1272D01*
Y1266D01*
X2342Y1258D01*
X2348Y1252D01*
X2354Y1249D01*
X2362D01*
X2368Y1252D01*
X2374Y1258D01*
X2377Y1266D01*
Y1272D01*
X2374Y1280D01*
X2368Y1286D01*
X2362Y1289D01*
X2354D01*
X2404D02*
X2398Y1286D01*
X2393Y1280D01*
X2390Y1272D01*
Y1266D01*
X2393Y1258D01*
X2398Y1252D01*
X2404Y1249D01*
X2413D01*
X2418Y1252D01*
X2424Y1258D01*
X2427Y1266D01*
Y1272D01*
X2424Y1280D01*
X2418Y1286D01*
X2413Y1289D01*
X2404D01*
X2440Y1309D02*
Y1249D01*
X2540Y1300D02*
X2534Y1306D01*
X2526Y1309D01*
X2514D01*
X2506Y1306D01*
X2500Y1300D01*
Y1295D01*
X2503Y1289D01*
X2506Y1286D01*
X2511Y1283D01*
X2528Y1278D01*
X2534Y1275D01*
X2537Y1272D01*
X2540Y1266D01*
Y1258D01*
X2534Y1252D01*
X2526Y1249D01*
X2514D01*
X2506Y1252D01*
X2500Y1258D01*
X2559Y1309D02*
X2562Y1306D01*
X2565Y1309D01*
X2562Y1312D01*
X2559Y1309D01*
X2562Y1289D02*
Y1249D01*
X2607Y1289D02*
X2575Y1249D01*
Y1289D02*
X2607D01*
X2575Y1249D02*
X2607D01*
X2619Y1272D02*
X2654D01*
Y1278D01*
X2651Y1283D01*
X2648Y1286D01*
X2642Y1289D01*
X2634D01*
X2628Y1286D01*
X2622Y1280D01*
X2619Y1272D01*
Y1266D01*
X2622Y1258D01*
X2628Y1252D01*
X2634Y1249D01*
X2642D01*
X2648Y1252D01*
X2654Y1258D01*
X2964Y1278D02*
X2990D01*
X2998Y1280D01*
X3001Y1283D01*
X3004Y1289D01*
Y1298D01*
X3001Y1303D01*
X2998Y1306D01*
X2990Y1309D01*
X2964D01*
Y1249D01*
X3018Y1309D02*
Y1249D01*
X3064Y1289D02*
Y1249D01*
Y1280D02*
X3059Y1286D01*
X3053Y1289D01*
X3044D01*
X3039Y1286D01*
X3033Y1280D01*
X3030Y1272D01*
Y1266D01*
X3033Y1258D01*
X3039Y1252D01*
X3044Y1249D01*
X3053D01*
X3059Y1252D01*
X3064Y1258D01*
X3089Y1309D02*
Y1260D01*
X3092Y1252D01*
X3098Y1249D01*
X3103D01*
X3080Y1289D02*
X3100D01*
X3112Y1272D02*
X3146D01*
Y1278D01*
X3143Y1283D01*
X3140Y1286D01*
X3135Y1289D01*
X3126D01*
X3120Y1286D01*
X3115Y1280D01*
X3112Y1272D01*
Y1266D01*
X3115Y1258D01*
X3120Y1252D01*
X3126Y1249D01*
X3135D01*
X3140Y1252D01*
X3146Y1258D01*
X3193Y1309D02*
Y1249D01*
Y1280D02*
X3188Y1286D01*
X3182Y1289D01*
X3173D01*
X3168Y1286D01*
X3162Y1280D01*
X3159Y1272D01*
Y1266D01*
X3162Y1258D01*
X3168Y1252D01*
X3173Y1249D01*
X3182D01*
X3188Y1252D01*
X3193Y1258D01*
X3282Y1309D02*
Y1249D01*
X3322Y1309D02*
Y1249D01*
X3282Y1280D02*
X3322D01*
X3353Y1289D02*
X3347Y1286D01*
X3341Y1280D01*
X3339Y1272D01*
Y1266D01*
X3341Y1258D01*
X3347Y1252D01*
X3353Y1249D01*
X3361D01*
X3367Y1252D01*
X3373Y1258D01*
X3376Y1266D01*
Y1272D01*
X3373Y1280D01*
X3367Y1286D01*
X3361Y1289D01*
X3353D01*
X3389Y1309D02*
Y1249D01*
X3401Y1272D02*
X3436D01*
Y1278D01*
X3433Y1283D01*
X3430Y1286D01*
X3424Y1289D01*
X3416D01*
X3410Y1286D01*
X3404Y1280D01*
X3401Y1272D01*
Y1266D01*
X3404Y1258D01*
X3410Y1252D01*
X3416Y1249D01*
X3424D01*
X3430Y1252D01*
X3436Y1258D01*
X3516Y1309D02*
Y1249D01*
X3496Y1309D02*
X3536D01*
X3546Y1289D02*
X3563Y1249D01*
X3580Y1289D02*
X3563Y1249D01*
X3557Y1238D01*
X3551Y1232D01*
X3546Y1229D01*
X3543D01*
X3590Y1289D02*
Y1229D01*
Y1280D02*
X3596Y1286D01*
X3601Y1289D01*
X3610D01*
X3616Y1286D01*
X3621Y1280D01*
X3624Y1272D01*
Y1266D01*
X3621Y1258D01*
X3616Y1252D01*
X3610Y1249D01*
X3601D01*
X3596Y1252D01*
X3590Y1258D01*
X3637Y1272D02*
X3671D01*
Y1278D01*
X3669Y1283D01*
X3666Y1286D01*
X3660Y1289D01*
X3651D01*
X3646Y1286D01*
X3640Y1280D01*
X3637Y1272D01*
Y1266D01*
X3640Y1258D01*
X3646Y1252D01*
X3651Y1249D01*
X3660D01*
X3666Y1252D01*
X3671Y1258D01*
X1381Y1339D02*
X3760D01*
X1381Y1204D02*
X3760D01*
X1381Y1339D02*
Y704D01*
X3760Y1339D02*
Y704D01*
X1785Y1339D02*
Y704D01*
X2258Y1339D02*
Y704D01*
X2929Y1339D02*
Y704D01*
X3247Y1339D02*
Y704D01*
X1381Y804D02*
X3760D01*
X1381Y704D02*
X3760D01*
D121*
X1491Y854D02*
G03*
X1491Y854I-20J0D01*
G01*
M02*
