%FSLAX23Y23*%
%MOIN*%
G70*
G01*
G75*
G04 Layer_Physical_Order=1*
G04 Layer_Color=255*
%ADD10R,0.050X0.020*%
%ADD11R,0.030X0.030*%
%ADD12R,0.030X0.030*%
%ADD13R,0.059X0.031*%
%ADD14R,0.040X0.055*%
%ADD15R,0.050X0.036*%
%ADD16R,0.036X0.036*%
%ADD17R,0.050X0.150*%
%ADD18R,0.030X0.020*%
%ADD19R,0.024X0.024*%
%ADD20O,0.080X0.024*%
%ADD21O,0.060X0.016*%
%ADD22R,0.024X0.090*%
%ADD23R,0.100X0.024*%
%ADD24R,0.024X0.070*%
%ADD25R,0.090X0.024*%
%ADD26R,0.025X0.055*%
%ADD27R,0.025X0.095*%
%ADD28O,0.060X0.016*%
%ADD29R,0.020X0.039*%
%ADD30R,0.039X0.039*%
%ADD31R,0.047X0.047*%
%ADD32C,0.050*%
%ADD33R,0.031X0.059*%
%ADD34R,0.055X0.040*%
%ADD35R,0.036X0.036*%
%ADD36R,0.036X0.050*%
%ADD37R,0.095X0.025*%
%ADD38R,0.055X0.025*%
%ADD39R,0.047X0.047*%
%ADD40O,0.016X0.060*%
%ADD41R,0.050X0.060*%
%ADD42C,0.008*%
%ADD43C,0.014*%
%ADD44C,0.012*%
%ADD45C,0.030*%
%ADD46C,0.010*%
%ADD47C,0.020*%
%ADD48C,0.006*%
%ADD49C,0.009*%
%ADD50C,0.005*%
%ADD51C,0.015*%
%ADD52C,0.025*%
%ADD53R,0.062X0.062*%
%ADD54C,0.062*%
%ADD55C,0.110*%
%ADD56C,0.045*%
%ADD57C,0.022*%
G36*
X-57Y1487D02*
Y1452D01*
X-64D01*
Y1408D01*
X-64D01*
Y1406D01*
X-71Y1405D01*
X-77Y1401D01*
X-81Y1395D01*
X-82Y1388D01*
X-81Y1381D01*
X-77Y1375D01*
X-71Y1371D01*
X-64Y1369D01*
X-57Y1371D01*
X-55Y1372D01*
X-50Y1370D01*
Y1313D01*
X-48D01*
Y1289D01*
X-48D01*
Y1245D01*
X-48D01*
Y1243D01*
X47D01*
X49Y1239D01*
X44Y1233D01*
X20D01*
Y1196D01*
X-46D01*
X-51Y1195D01*
X-55Y1193D01*
X-59Y1188D01*
X-64Y1190D01*
Y1199D01*
X-108D01*
Y1169D01*
X-161D01*
Y1175D01*
X-230D01*
Y1136D01*
X-169D01*
X-163Y1132D01*
X-164Y1125D01*
X-163Y1118D01*
X-159Y1112D01*
X-153Y1108D01*
X-146Y1106D01*
X-139Y1108D01*
X-133Y1112D01*
X-129Y1118D01*
X-128Y1125D01*
X-129Y1132D01*
X-133Y1138D01*
X-132Y1141D01*
X-107D01*
Y1135D01*
X-100D01*
Y1119D01*
X-107D01*
Y1075D01*
X-63D01*
Y1094D01*
X-59Y1096D01*
X-51Y1088D01*
X-48Y1087D01*
X-47Y1086D01*
Y1075D01*
X-3D01*
Y1119D01*
X-43D01*
Y1135D01*
X-3D01*
Y1143D01*
X68D01*
X68Y1143D01*
X74Y1144D01*
X75Y1145D01*
X80Y1143D01*
X80Y1142D01*
X84Y1136D01*
X90Y1132D01*
X90Y1132D01*
X89Y1128D01*
X89Y1128D01*
X89D01*
X85Y1122D01*
X83Y1115D01*
X85Y1108D01*
X89Y1102D01*
X95Y1098D01*
X99Y1097D01*
X108Y1088D01*
X108Y1088D01*
X113Y1085D01*
Y1085D01*
X113Y1085D01*
D01*
D01*
D01*
X113D01*
Y1085D01*
D01*
X113Y1085D01*
X113Y1085D01*
X118Y1084D01*
X118Y1084D01*
X134D01*
Y1045D01*
X119Y1029D01*
X102D01*
X102Y1029D01*
X96Y1028D01*
X92Y1025D01*
X92Y1025D01*
X44Y977D01*
X41Y973D01*
X39Y967D01*
X39Y967D01*
Y956D01*
X19D01*
Y943D01*
X2D01*
X-4Y942D01*
X-6Y941D01*
X-8Y939D01*
X-13Y942D01*
Y988D01*
X-13Y988D01*
X-14Y994D01*
X-17Y998D01*
X-17Y998D01*
X-36Y1017D01*
Y1047D01*
X-86D01*
Y997D01*
X-56D01*
X-42Y982D01*
Y939D01*
X-65Y915D01*
X-68Y911D01*
X-70Y905D01*
X-70Y905D01*
Y859D01*
X-79Y849D01*
X-124D01*
Y850D01*
X-124D01*
Y894D01*
X-133D01*
Y947D01*
X-134Y952D01*
X-137Y956D01*
X-144Y963D01*
X-126Y981D01*
X-126Y981D01*
X-123Y986D01*
X-122Y991D01*
X-122Y991D01*
Y997D01*
X-111D01*
Y1047D01*
X-161D01*
Y1032D01*
X-166Y1030D01*
X-170Y1033D01*
X-177Y1034D01*
X-184Y1033D01*
X-190Y1029D01*
X-190Y1029D01*
X-195Y1032D01*
X-195Y1035D01*
X-199Y1040D01*
X-204Y1043D01*
X-210Y1044D01*
X-215Y1043D01*
X-220Y1040D01*
X-224D01*
X-229Y1043D01*
X-235Y1044D01*
X-241Y1043D01*
X-242Y1042D01*
X-246Y1045D01*
Y1052D01*
X-246Y1052D01*
X-248Y1057D01*
X-251Y1062D01*
X-263Y1074D01*
X-268Y1077D01*
X-273Y1078D01*
X-273Y1078D01*
X-296D01*
X-296Y1078D01*
X-302Y1077D01*
X-304Y1076D01*
X-306Y1074D01*
X-306Y1074D01*
X-333Y1047D01*
X-335D01*
Y1048D01*
X-375D01*
Y1136D01*
X-370D01*
Y1136D01*
X-301D01*
Y1141D01*
X-290D01*
X-290Y1141D01*
X-285Y1142D01*
X-280Y1145D01*
X-230Y1195D01*
X-230Y1195D01*
X-227Y1200D01*
X-226Y1205D01*
X-226Y1205D01*
Y1219D01*
X-224Y1221D01*
X-200D01*
X-200Y1221D01*
X-195Y1222D01*
X-190Y1225D01*
X-180Y1235D01*
X-180Y1235D01*
X-178Y1238D01*
X-177Y1240D01*
X-176Y1245D01*
Y1327D01*
X-176Y1327D01*
X-177Y1333D01*
X-180Y1337D01*
X-180Y1337D01*
X-199Y1356D01*
X-197Y1360D01*
X-177D01*
Y1439D01*
X-161Y1455D01*
X-158Y1460D01*
X-157Y1465D01*
D01*
D01*
D01*
D01*
D01*
X-157D01*
D01*
D01*
D01*
D01*
Y1465D01*
X-157D01*
D01*
Y1465D01*
D01*
D01*
D01*
D01*
D01*
D01*
D01*
D01*
D01*
D01*
D01*
D01*
Y1465D01*
D01*
X-157D01*
D01*
D01*
D01*
D01*
X-157Y1465D01*
Y1472D01*
X-153Y1474D01*
X-153Y1474D01*
X-146Y1473D01*
X-139Y1474D01*
X-133Y1478D01*
X-127D01*
X-126Y1477D01*
X-120Y1476D01*
X-76D01*
X-70Y1477D01*
X-65Y1480D01*
X-62Y1485D01*
X-62Y1488D01*
X-57Y1487D01*
D02*
G37*
G36*
X456Y1516D02*
X456D01*
Y1352D01*
X474D01*
Y1345D01*
X474Y1345D01*
X475Y1340D01*
X478Y1335D01*
X487Y1326D01*
Y1315D01*
X480D01*
Y1271D01*
X487D01*
X489Y1266D01*
X483Y1263D01*
X479Y1257D01*
X478Y1250D01*
X479Y1243D01*
X483Y1237D01*
X489Y1233D01*
X496Y1231D01*
X500Y1232D01*
X502Y1228D01*
X445Y1170D01*
X442Y1166D01*
X441Y1160D01*
X441Y1160D01*
Y1085D01*
X430D01*
Y1035D01*
X441D01*
Y1010D01*
X430D01*
Y960D01*
X463D01*
X464Y959D01*
X461Y954D01*
X391D01*
X365Y980D01*
X362Y982D01*
Y1121D01*
X403D01*
Y1165D01*
X395D01*
Y1177D01*
X402D01*
X406Y1174D01*
X406Y1174D01*
X410Y1168D01*
X416Y1164D01*
X423Y1162D01*
X430Y1164D01*
X436Y1168D01*
X440Y1174D01*
X441Y1181D01*
X440Y1188D01*
X436Y1194D01*
X430Y1198D01*
X430D01*
D01*
D01*
X436Y1202D01*
X436Y1202D01*
Y1202D01*
X436Y1202D01*
X436Y1202D01*
X436Y1202D01*
X436Y1202D01*
D01*
X440Y1208D01*
X441Y1215D01*
X440Y1222D01*
X436Y1228D01*
X430Y1232D01*
X423Y1233D01*
X416Y1232D01*
X410Y1228D01*
X406Y1222D01*
X406Y1221D01*
X403D01*
X403D01*
X402Y1221D01*
Y1221D01*
D01*
X402D01*
Y1221D01*
D01*
X395D01*
Y1233D01*
X403D01*
Y1277D01*
X395D01*
Y1318D01*
X400Y1319D01*
X400Y1319D01*
X406Y1315D01*
X413Y1313D01*
X420Y1315D01*
X426Y1319D01*
X430Y1325D01*
X431Y1332D01*
X430Y1339D01*
X426Y1345D01*
X420Y1349D01*
X413Y1350D01*
X415Y1352D01*
X420D01*
Y1516D01*
D01*
Y1516D01*
X421Y1517D01*
X456D01*
Y1516D01*
D02*
G37*
G36*
X712Y1382D02*
X720D01*
Y1330D01*
X720Y1330D01*
X721Y1324D01*
X724Y1320D01*
X748Y1296D01*
Y1254D01*
X790D01*
X836Y1209D01*
Y853D01*
X831Y848D01*
X830Y848D01*
Y848D01*
X830Y848D01*
X766D01*
Y814D01*
X830D01*
X830Y814D01*
Y814D01*
X831Y815D01*
X836Y809D01*
Y596D01*
X833Y593D01*
X831Y594D01*
X831D01*
X828Y595D01*
X828D01*
D01*
D01*
Y639D01*
X822D01*
Y657D01*
X830D01*
Y701D01*
X822D01*
Y739D01*
X830D01*
Y773D01*
X766D01*
Y739D01*
X793D01*
Y701D01*
X786D01*
Y657D01*
X793D01*
Y639D01*
X784D01*
Y595D01*
X826D01*
X828Y594D01*
X829Y591D01*
X830Y590D01*
X825Y585D01*
X709D01*
X705Y588D01*
X698Y589D01*
X692Y588D01*
X690Y592D01*
X699Y602D01*
X724D01*
Y595D01*
X768D01*
Y639D01*
X724D01*
Y631D01*
X695D01*
X690Y630D01*
X685Y627D01*
X682Y622D01*
X656Y596D01*
X653Y592D01*
X652Y587D01*
Y579D01*
X647Y578D01*
X647D01*
X643Y584D01*
X637Y588D01*
X630Y589D01*
X623Y588D01*
X619Y585D01*
X564D01*
X520Y629D01*
X515Y632D01*
X510Y633D01*
X510Y633D01*
X494D01*
X492Y637D01*
X495Y642D01*
X496Y649D01*
X495Y656D01*
X491Y662D01*
X485Y666D01*
X478Y667D01*
X471Y666D01*
X465Y662D01*
X461Y656D01*
X460Y649D01*
X461Y642D01*
X464Y637D01*
X462Y633D01*
X400D01*
X399Y638D01*
X405Y642D01*
X409Y648D01*
X410Y655D01*
X409Y662D01*
X405Y668D01*
X399Y672D01*
X392Y673D01*
X385Y672D01*
X379Y668D01*
X375Y662D01*
X374Y655D01*
X375Y648D01*
X379Y642D01*
X385Y638D01*
X384Y633D01*
X320D01*
X318Y637D01*
X321Y642D01*
X322Y649D01*
X321Y656D01*
X317Y662D01*
X311Y666D01*
X304Y667D01*
X297Y666D01*
X291Y662D01*
X287Y656D01*
X286Y649D01*
X287Y642D01*
X290Y637D01*
X288Y633D01*
X254D01*
Y763D01*
X254Y763D01*
X253Y769D01*
X250Y773D01*
X250Y773D01*
X245Y779D01*
X245Y779D01*
X238Y785D01*
X238Y785D01*
X235Y789D01*
X230Y792D01*
X224Y793D01*
D01*
D01*
D01*
X224Y793D01*
D01*
X222Y796D01*
Y796D01*
X158D01*
Y762D01*
X221D01*
X225Y758D01*
X225Y758D01*
X226Y757D01*
Y721D01*
X222D01*
Y721D01*
X158D01*
Y687D01*
X175D01*
Y673D01*
X162Y659D01*
X101D01*
Y667D01*
X57D01*
Y643D01*
X48Y634D01*
X45Y631D01*
X41Y632D01*
Y667D01*
X38D01*
Y682D01*
X46D01*
Y690D01*
X58D01*
Y687D01*
X122D01*
Y721D01*
X58D01*
Y718D01*
X46D01*
Y726D01*
X2D01*
Y682D01*
X9D01*
Y667D01*
X-3D01*
Y623D01*
X40D01*
X43Y620D01*
Y601D01*
X12D01*
Y567D01*
X76D01*
Y567D01*
X80Y570D01*
X84Y567D01*
X91Y566D01*
X98Y567D01*
X102Y570D01*
X112D01*
Y567D01*
X176D01*
Y570D01*
X218D01*
X218Y570D01*
X223Y571D01*
X228Y574D01*
X250Y596D01*
X250Y596D01*
X253Y601D01*
D01*
D01*
D01*
Y601D01*
X253D01*
D01*
D01*
D01*
D01*
X253D01*
D01*
D01*
D01*
D01*
Y601D01*
X253D01*
D01*
Y601D01*
D01*
D01*
D01*
D01*
D01*
D01*
D01*
D01*
D01*
D01*
D01*
D01*
Y601D01*
D01*
X253D01*
D01*
D01*
D01*
D01*
X253Y601D01*
X254Y604D01*
X470D01*
X473Y600D01*
X469Y594D01*
X468Y587D01*
X469Y580D01*
X473Y574D01*
X479Y570D01*
X486Y568D01*
X493Y570D01*
X499Y574D01*
X503Y580D01*
X504Y587D01*
X503Y594D01*
X499Y600D01*
X494Y603D01*
Y603D01*
X494D01*
X493Y604D01*
Y604D01*
X493Y604D01*
X504D01*
X548Y561D01*
X548Y561D01*
X553Y557D01*
X558Y556D01*
X558Y556D01*
X619D01*
X623Y554D01*
X630Y552D01*
X637Y554D01*
X643Y558D01*
X647Y564D01*
X647D01*
X652Y562D01*
Y537D01*
X486Y371D01*
X214D01*
X185Y401D01*
X187Y407D01*
X188Y417D01*
X187Y427D01*
X183Y436D01*
X177Y444D01*
X169Y450D01*
X160Y454D01*
X150Y455D01*
X140Y454D01*
X131Y450D01*
X123Y444D01*
X117Y436D01*
X113Y427D01*
X112Y417D01*
X113Y407D01*
X117Y397D01*
X123Y390D01*
X131Y383D01*
X140Y380D01*
X150Y378D01*
X160Y380D01*
X166Y382D01*
X188Y360D01*
X186Y356D01*
X-12D01*
X-15Y357D01*
X-19Y358D01*
X-19Y358D01*
X-197D01*
X-201Y357D01*
X-204Y356D01*
X-495D01*
X-615Y476D01*
X-905D01*
X-935Y506D01*
Y1028D01*
X-930Y1029D01*
X-927Y1025D01*
X-915Y1013D01*
X-915Y1013D01*
X-910Y1010D01*
X-905Y1009D01*
X-905Y1009D01*
X-895D01*
Y1001D01*
X-888D01*
Y983D01*
X-888Y983D01*
X-887Y977D01*
X-884Y973D01*
X-863Y952D01*
Y790D01*
X-863Y790D01*
X-862Y784D01*
X-859Y779D01*
X-824Y745D01*
X-824Y745D01*
X-820Y742D01*
Y742D01*
X-820Y742D01*
D01*
D01*
D01*
X-820D01*
Y742D01*
D01*
X-820Y742D01*
X-820Y742D01*
X-814Y741D01*
X-814Y741D01*
X-697D01*
X-697Y741D01*
X-692Y742D01*
X-687Y745D01*
X-681Y751D01*
X-674Y745D01*
X-674Y745D01*
X-670Y742D01*
X-664Y741D01*
X-664Y741D01*
X-655D01*
X-644Y730D01*
Y722D01*
X-649Y720D01*
X-652Y726D01*
X-658Y730D01*
X-665Y731D01*
X-672Y730D01*
X-676Y727D01*
X-687D01*
Y734D01*
X-731D01*
Y690D01*
X-687D01*
Y698D01*
X-676D01*
X-672Y696D01*
X-665Y694D01*
X-658Y696D01*
X-652Y700D01*
X-649Y705D01*
X-644Y703D01*
Y695D01*
X-644Y695D01*
X-643Y689D01*
X-640Y685D01*
X-625Y669D01*
X-627Y665D01*
X-632Y666D01*
X-632Y666D01*
X-687D01*
Y674D01*
X-731D01*
Y630D01*
X-687D01*
Y637D01*
X-638D01*
X-621Y620D01*
Y575D01*
X-621Y575D01*
X-619Y569D01*
X-616Y565D01*
X-573Y521D01*
X-573Y521D01*
X-568Y518D01*
X-563Y517D01*
X-563Y517D01*
X-502D01*
X-479Y494D01*
X-479Y494D01*
X-474Y491D01*
X-469Y490D01*
X-469Y490D01*
X-143D01*
X-85Y431D01*
X-87Y427D01*
X-88Y417D01*
X-87Y407D01*
X-83Y397D01*
X-77Y390D01*
X-69Y383D01*
X-60Y380D01*
X-50Y378D01*
X-40Y380D01*
X-31Y383D01*
X-23Y390D01*
X-17Y397D01*
X-13Y407D01*
X-12Y417D01*
X-13Y427D01*
X-17Y436D01*
X-23Y444D01*
X-31Y450D01*
X-40Y454D01*
X-50Y455D01*
X-60Y454D01*
X-65Y452D01*
X-127Y514D01*
X-132Y517D01*
X-137Y518D01*
X-137Y518D01*
X-189D01*
Y521D01*
X-189D01*
Y529D01*
X-177D01*
X-173Y526D01*
X-166Y525D01*
X-159Y526D01*
X-153Y530D01*
X-149Y536D01*
X-148Y543D01*
X-149Y550D01*
X-153Y556D01*
X-159Y560D01*
X-166Y561D01*
X-173Y560D01*
X-178Y557D01*
X-189D01*
Y565D01*
X-233D01*
Y557D01*
X-238D01*
X-243Y562D01*
Y603D01*
X-238Y608D01*
X-233Y606D01*
Y581D01*
X-189D01*
Y589D01*
X-124D01*
X-121Y585D01*
Y525D01*
X-80D01*
X-53Y499D01*
X-53Y499D01*
X-51Y497D01*
X-49Y496D01*
X-43Y495D01*
X-43Y495D01*
X12D01*
Y492D01*
X76D01*
Y526D01*
X12D01*
Y523D01*
X-37D01*
X-60Y546D01*
Y587D01*
X-64D01*
X-65Y591D01*
X-64Y593D01*
X-41Y615D01*
X-41Y615D01*
X-38Y620D01*
X-37Y625D01*
X-37Y625D01*
Y647D01*
X-20D01*
Y709D01*
X-82D01*
Y647D01*
X-65D01*
Y631D01*
X-80Y617D01*
X-189D01*
Y625D01*
X-215D01*
X-217Y629D01*
X-199Y647D01*
X-199Y647D01*
X-196Y652D01*
X-195Y657D01*
X-195Y657D01*
Y677D01*
X-189D01*
X-189Y677D01*
X-184Y678D01*
X-179Y681D01*
X-139Y721D01*
X-95D01*
Y765D01*
X-139D01*
Y757D01*
X-143Y756D01*
X-147Y753D01*
X-159Y741D01*
X-164Y743D01*
Y803D01*
X-146Y821D01*
X-75D01*
X-74Y820D01*
X-76Y815D01*
X-77Y815D01*
X-79D01*
Y771D01*
X-72D01*
Y765D01*
X-79D01*
Y721D01*
X-35D01*
Y765D01*
X-43D01*
Y771D01*
X-35D01*
Y815D01*
X-35Y815D01*
X-35D01*
X-36Y817D01*
X-20Y833D01*
X-20Y833D01*
X-17Y838D01*
X-16Y843D01*
X-16Y843D01*
Y891D01*
X8Y915D01*
X19D01*
Y902D01*
X20D01*
X22Y897D01*
X22Y897D01*
X22Y897D01*
X4Y879D01*
X1Y875D01*
X-1Y869D01*
X-1Y869D01*
Y865D01*
X-8D01*
Y821D01*
X36D01*
Y865D01*
X36Y865D01*
X36D01*
X34Y869D01*
X38Y873D01*
X84D01*
X84Y873D01*
X89Y874D01*
X94Y877D01*
X290Y1073D01*
X299D01*
Y1065D01*
X338D01*
Y975D01*
X338Y975D01*
X338D01*
X339Y970D01*
X341Y966D01*
X341Y966D01*
X342Y965D01*
X345Y960D01*
X375Y930D01*
X375Y930D01*
X379Y927D01*
X385Y926D01*
X385Y926D01*
X470D01*
X470Y926D01*
X474Y927D01*
X477Y924D01*
X478Y923D01*
Y883D01*
X522D01*
Y927D01*
X519D01*
X517Y932D01*
X545Y960D01*
X545Y960D01*
X548Y965D01*
D01*
D01*
D01*
Y965D01*
X548D01*
D01*
D01*
D01*
D01*
X548D01*
D01*
D01*
D01*
D01*
Y965D01*
X548D01*
D01*
Y965D01*
D01*
D01*
D01*
D01*
D01*
D01*
D01*
D01*
D01*
D01*
D01*
D01*
Y965D01*
D01*
X548D01*
D01*
D01*
D01*
D01*
X548Y965D01*
X549Y970D01*
X549Y970D01*
Y997D01*
X567D01*
Y1047D01*
X504D01*
Y1094D01*
X541Y1131D01*
X573D01*
Y1123D01*
X617D01*
Y1131D01*
X643D01*
Y1100D01*
X707D01*
Y1150D01*
X670D01*
X665Y1155D01*
X660Y1158D01*
X655Y1159D01*
X655Y1159D01*
X617D01*
Y1167D01*
X573D01*
Y1159D01*
X535D01*
X535Y1159D01*
X529Y1158D01*
X525Y1155D01*
X525Y1155D01*
X480Y1110D01*
X477Y1106D01*
X476Y1100D01*
X476Y1100D01*
Y1085D01*
X469D01*
Y1154D01*
X540Y1225D01*
X585Y1180D01*
X585Y1180D01*
X588Y1178D01*
X589Y1177D01*
X595Y1176D01*
X714D01*
X730Y1160D01*
Y1137D01*
X741D01*
Y1112D01*
X730D01*
Y1062D01*
X731D01*
X741Y1060D01*
X742Y1055D01*
X745Y1050D01*
X761Y1033D01*
X761Y1033D01*
X760Y1025D01*
X761Y1017D01*
X764Y1010D01*
X769Y1004D01*
X775Y999D01*
X782Y996D01*
X790Y995D01*
X798Y996D01*
X805Y999D01*
X811Y1004D01*
X816Y1010D01*
X819Y1017D01*
X820Y1025D01*
X819Y1033D01*
X816Y1040D01*
X811Y1046D01*
X805Y1051D01*
X798Y1054D01*
X790Y1055D01*
X782Y1054D01*
X782Y1054D01*
X778Y1057D01*
X780Y1062D01*
X780D01*
Y1106D01*
X784Y1109D01*
X791Y1107D01*
X798Y1109D01*
X804Y1113D01*
X808Y1119D01*
X809Y1126D01*
X808Y1133D01*
X804Y1139D01*
X798Y1143D01*
X791Y1144D01*
X784Y1143D01*
X780Y1145D01*
Y1187D01*
X743D01*
X730Y1200D01*
X725Y1203D01*
X720Y1204D01*
X720Y1204D01*
X601D01*
X554Y1251D01*
Y1284D01*
X622Y1352D01*
X626Y1350D01*
Y1294D01*
X688D01*
Y1300D01*
X688Y1300D01*
X692Y1295D01*
Y1295D01*
D01*
D01*
D01*
X692Y1295D01*
X696Y1289D01*
X702Y1285D01*
X709Y1283D01*
X716Y1285D01*
X722Y1289D01*
X726Y1295D01*
X727Y1302D01*
X726Y1309D01*
X722Y1315D01*
X716Y1319D01*
X709Y1320D01*
X702Y1319D01*
X696Y1315D01*
X695Y1314D01*
X691Y1315D01*
X688Y1355D01*
Y1355D01*
X671D01*
Y1363D01*
D01*
D01*
D01*
D01*
X671D01*
D01*
D01*
D01*
D01*
D01*
X671D01*
Y1363D01*
D01*
D01*
Y1363D01*
D01*
D01*
D01*
D01*
D01*
D01*
D01*
D01*
D01*
D01*
D01*
D01*
Y1363D01*
D01*
X671D01*
D01*
D01*
D01*
D01*
D01*
D01*
D01*
X671Y1363D01*
D01*
D01*
D01*
D01*
D01*
D01*
D01*
D01*
X670Y1369D01*
X669Y1370D01*
X667Y1373D01*
X667Y1373D01*
X659Y1381D01*
Y1382D01*
X661D01*
Y1382D01*
X705D01*
Y1390D01*
X712D01*
Y1382D01*
D02*
G37*
G36*
X184Y1476D02*
X184Y1476D01*
D01*
X187Y1472D01*
X187Y1470D01*
X188Y1463D01*
X189Y1462D01*
X186Y1457D01*
X185D01*
Y1413D01*
X192D01*
Y1404D01*
X185D01*
Y1383D01*
X91D01*
X91Y1385D01*
X88Y1388D01*
X117Y1417D01*
X120Y1422D01*
X125Y1421D01*
Y1413D01*
X169D01*
Y1457D01*
X168D01*
X167Y1462D01*
X172Y1467D01*
X175Y1472D01*
X176Y1476D01*
X184D01*
D01*
D02*
G37*
G36*
X890Y1594D02*
X866Y1570D01*
X861Y1571D01*
X860Y1572D01*
X863Y1576D01*
X864Y1583D01*
X863Y1590D01*
X859Y1596D01*
X853Y1600D01*
X846Y1601D01*
X839Y1600D01*
X833Y1596D01*
X829Y1590D01*
X828Y1583D01*
X815Y1580D01*
X758D01*
Y1559D01*
X749D01*
X744Y1558D01*
X742Y1556D01*
X739Y1555D01*
X739Y1555D01*
X725Y1541D01*
X689D01*
X666Y1564D01*
X662Y1567D01*
X656Y1568D01*
X656Y1568D01*
X628D01*
X627Y1568D01*
Y1606D01*
X808D01*
X809Y1606D01*
X816Y1604D01*
X823Y1606D01*
X824Y1606D01*
X890D01*
Y1594D01*
D02*
G37*
G36*
X217Y2007D02*
Y2007D01*
X218Y2006D01*
X218Y2006D01*
X221Y2004D01*
X223Y2003D01*
X228Y2001D01*
X228Y2001D01*
X301D01*
X342Y1961D01*
X340Y1956D01*
X278D01*
Y1942D01*
X268D01*
Y1898D01*
X278D01*
Y1739D01*
X264Y1725D01*
X261Y1720D01*
X259Y1715D01*
X259Y1715D01*
Y1709D01*
X252D01*
Y1738D01*
X267D01*
Y1782D01*
X223D01*
D01*
X223D01*
X222Y1783D01*
Y1892D01*
X228Y1898D01*
X252D01*
Y1942D01*
X213D01*
X212Y1947D01*
X213Y1948D01*
X217Y1954D01*
X218Y1961D01*
X217Y1968D01*
X213Y1974D01*
X212Y1974D01*
Y1979D01*
X212Y1980D01*
X216Y1986D01*
X217Y1993D01*
X216Y2000D01*
X213Y2003D01*
X217Y2007D01*
D01*
D02*
G37*
G36*
X923Y1582D02*
Y1449D01*
X892Y1418D01*
X889Y1414D01*
X888Y1408D01*
X888Y1408D01*
Y1341D01*
X880D01*
Y1333D01*
X812D01*
X812Y1333D01*
X807Y1332D01*
X805Y1331D01*
X802Y1329D01*
X802Y1329D01*
X789Y1316D01*
X769D01*
X749Y1336D01*
Y1382D01*
X756D01*
Y1426D01*
X712D01*
Y1419D01*
X705D01*
Y1426D01*
X661D01*
D01*
X661D01*
X659Y1429D01*
Y1506D01*
X667Y1514D01*
X677D01*
X678Y1513D01*
X683Y1512D01*
X683Y1512D01*
X720D01*
Y1486D01*
X712D01*
Y1442D01*
X756D01*
Y1486D01*
X749D01*
Y1523D01*
X749Y1524D01*
X754Y1529D01*
X758Y1527D01*
Y1526D01*
X825D01*
X827Y1522D01*
X827Y1522D01*
X826Y1515D01*
X827Y1508D01*
X831Y1502D01*
X837Y1498D01*
X844Y1496D01*
X851Y1498D01*
X857Y1502D01*
X861Y1508D01*
X862Y1515D01*
X861Y1522D01*
X857Y1528D01*
X851Y1532D01*
X844Y1533D01*
X837Y1532D01*
X832Y1528D01*
X827Y1530D01*
Y1539D01*
X869D01*
X869Y1539D01*
X875Y1540D01*
X879Y1543D01*
X915Y1578D01*
X915Y1578D01*
X918Y1583D01*
X923Y1582D01*
D02*
G37*
G36*
X599Y1562D02*
X599Y1562D01*
X600Y1557D01*
X603Y1552D01*
X612Y1543D01*
X612Y1543D01*
X615Y1541D01*
X617Y1540D01*
X622Y1539D01*
X645D01*
X647Y1535D01*
X635Y1522D01*
X632Y1517D01*
X631Y1512D01*
X631Y1512D01*
Y1473D01*
X626Y1471D01*
X607Y1490D01*
Y1539D01*
X543D01*
Y1538D01*
X538Y1537D01*
X533Y1542D01*
X528Y1545D01*
X523Y1546D01*
X523Y1546D01*
X392D01*
X374Y1564D01*
X373Y1569D01*
X369Y1575D01*
X363Y1579D01*
X356Y1580D01*
X349Y1579D01*
X343Y1575D01*
X339Y1569D01*
X337Y1562D01*
X339Y1555D01*
X343Y1549D01*
X349Y1545D01*
X353Y1544D01*
X376Y1522D01*
X376Y1522D01*
X377Y1521D01*
X376Y1516D01*
X356D01*
Y1352D01*
X366D01*
Y1277D01*
X359D01*
Y1233D01*
X366D01*
Y1221D01*
X359D01*
Y1180D01*
X354Y1178D01*
X354Y1179D01*
X350Y1181D01*
X345Y1182D01*
X305D01*
X289Y1199D01*
X285Y1201D01*
Y1201D01*
X285D01*
D01*
D01*
D01*
D01*
X285D01*
Y1201D01*
D01*
D01*
D01*
D01*
X283Y1203D01*
Y1242D01*
D01*
Y1242D01*
X284Y1243D01*
X312D01*
Y1383D01*
X229D01*
Y1404D01*
X221D01*
Y1413D01*
X229D01*
Y1457D01*
X224D01*
X221Y1462D01*
X222Y1463D01*
X223Y1470D01*
X222Y1477D01*
X222Y1477D01*
X240D01*
X245Y1471D01*
Y1465D01*
X238D01*
Y1421D01*
X282D01*
Y1465D01*
X274D01*
Y1477D01*
X274Y1477D01*
X273Y1483D01*
X270Y1487D01*
X260Y1497D01*
Y1521D01*
X216D01*
X210Y1527D01*
X206Y1530D01*
X200Y1531D01*
X200Y1531D01*
X199D01*
X197Y1535D01*
X198Y1536D01*
X199Y1542D01*
X199Y1543D01*
X203Y1545D01*
X209Y1540D01*
X209Y1540D01*
X213Y1537D01*
X216Y1536D01*
Y1528D01*
X260D01*
Y1572D01*
X239D01*
X238Y1577D01*
X241Y1578D01*
X247Y1582D01*
X251Y1588D01*
X252Y1595D01*
X251Y1601D01*
X252Y1602D01*
X256Y1605D01*
X290D01*
X292Y1600D01*
X288Y1596D01*
X285Y1591D01*
X283Y1586D01*
X283Y1586D01*
Y1572D01*
X276D01*
Y1528D01*
X320D01*
Y1572D01*
X312D01*
Y1580D01*
X331Y1599D01*
X351D01*
Y1594D01*
X388D01*
Y1599D01*
X403D01*
X403Y1599D01*
X408Y1600D01*
X413Y1603D01*
X417Y1606D01*
X599D01*
Y1562D01*
D02*
G37*
G36*
X-261Y1354D02*
X-237D01*
X-230Y1347D01*
X-232Y1342D01*
X-261D01*
Y1319D01*
X-272Y1308D01*
X-277Y1310D01*
Y1342D01*
X-321D01*
Y1319D01*
X-328Y1312D01*
X-337D01*
Y1315D01*
X-369D01*
Y1356D01*
X-338D01*
X-335Y1353D01*
X-330Y1350D01*
X-324Y1349D01*
X-324Y1349D01*
X-299D01*
X-293Y1350D01*
X-289Y1353D01*
X-288Y1354D01*
X-277D01*
Y1360D01*
X-261D01*
Y1354D01*
D02*
G37*
G36*
X-160Y941D02*
Y894D01*
X-168D01*
Y850D01*
X-164D01*
X-162Y845D01*
X-162Y845D01*
X-162Y845D01*
X-188Y819D01*
X-189Y818D01*
X-194Y819D01*
Y842D01*
X-195Y847D01*
Y916D01*
X-196Y922D01*
X-198Y924D01*
X-199Y926D01*
X-199Y926D01*
X-213Y940D01*
X-213Y941D01*
X-213Y941D01*
X-172D01*
X-172Y941D01*
X-167Y942D01*
X-164Y944D01*
X-160Y941D01*
D02*
G37*
G36*
X291Y1161D02*
X295Y1159D01*
X299Y1158D01*
Y1121D01*
X306D01*
Y1109D01*
X299D01*
Y1101D01*
X284D01*
X284Y1101D01*
X278Y1100D01*
X277Y1099D01*
X274Y1097D01*
X274Y1097D01*
X93Y916D01*
X88Y918D01*
Y956D01*
X68D01*
Y961D01*
X108Y1001D01*
X124D01*
X124Y1001D01*
X130Y1002D01*
X135Y1005D01*
X158Y1029D01*
X158Y1029D01*
X161Y1033D01*
X162Y1039D01*
X162Y1039D01*
Y1084D01*
X236D01*
X236Y1084D01*
X242Y1085D01*
X246Y1088D01*
X272Y1114D01*
X272Y1114D01*
X274Y1117D01*
X275Y1118D01*
X276Y1124D01*
Y1138D01*
X283D01*
Y1163D01*
X287Y1165D01*
X291Y1161D01*
D02*
G37*
G36*
X240Y608D02*
X213Y581D01*
X143D01*
Y627D01*
X176D01*
X222Y673D01*
X240D01*
Y608D01*
D02*
G37*
G36*
X-275Y857D02*
Y847D01*
X-276Y842D01*
Y798D01*
X-275Y792D01*
X-272Y787D01*
X-272Y787D01*
X-275Y782D01*
X-275Y782D01*
X-280Y779D01*
X-294Y765D01*
X-297Y761D01*
X-297Y761D01*
X-302Y760D01*
X-303Y762D01*
X-303Y762D01*
X-342Y801D01*
Y832D01*
X-315Y859D01*
X-277D01*
X-275Y857D01*
D02*
G37*
G36*
X-204Y1321D02*
Y1251D01*
X-206Y1249D01*
X-230D01*
X-236Y1248D01*
X-237Y1247D01*
X-240Y1245D01*
X-240Y1245D01*
X-250Y1235D01*
X-253Y1231D01*
X-254Y1225D01*
X-254Y1225D01*
Y1211D01*
X-296Y1169D01*
X-301D01*
Y1175D01*
X-370D01*
Y1175D01*
X-372D01*
X-375Y1178D01*
Y1192D01*
X-371Y1197D01*
X-370Y1204D01*
X-371Y1211D01*
X-375Y1217D01*
X-376Y1217D01*
X-375Y1221D01*
X-370Y1222D01*
X-365Y1225D01*
X-335Y1255D01*
X-321D01*
Y1247D01*
X-277D01*
Y1263D01*
X-242Y1298D01*
X-217D01*
Y1327D01*
X-212Y1329D01*
X-204Y1321D01*
D02*
G37*
G36*
X945Y1424D02*
Y551D01*
X885Y491D01*
Y486D01*
X645D01*
X643Y490D01*
X674Y522D01*
X677Y526D01*
X678Y531D01*
Y559D01*
X683Y561D01*
X685Y558D01*
X691Y554D01*
X698Y553D01*
X705Y554D01*
X709Y557D01*
X831D01*
X831Y557D01*
X836Y558D01*
X841Y561D01*
X860Y580D01*
X860Y580D01*
X862Y583D01*
X864Y585D01*
X865Y591D01*
Y815D01*
X865Y815D01*
X864Y820D01*
X860Y825D01*
X860Y825D01*
X854Y831D01*
X860Y837D01*
X860Y837D01*
X864Y842D01*
X865Y847D01*
X865Y847D01*
Y1215D01*
D01*
D01*
D01*
D01*
X865D01*
D01*
D01*
D01*
D01*
D01*
X865D01*
Y1215D01*
D01*
D01*
Y1215D01*
D01*
D01*
D01*
D01*
D01*
D01*
D01*
D01*
D01*
D01*
D01*
D01*
Y1215D01*
D01*
X865D01*
D01*
D01*
D01*
D01*
D01*
D01*
D01*
X865Y1215D01*
D01*
D01*
D01*
D01*
D01*
D01*
D01*
D01*
X864Y1220D01*
X862Y1222D01*
X860Y1225D01*
X860Y1225D01*
X810Y1276D01*
Y1296D01*
X818Y1304D01*
X880D01*
Y1297D01*
X924D01*
Y1341D01*
X916D01*
Y1402D01*
X940Y1426D01*
X945Y1424D01*
D02*
G37*
G36*
X209Y1177D02*
X208Y1176D01*
X207Y1169D01*
X208Y1162D01*
X212Y1156D01*
X218Y1152D01*
X225Y1150D01*
X232Y1152D01*
X234Y1153D01*
X239Y1151D01*
Y1138D01*
X247D01*
Y1130D01*
X230Y1113D01*
X159D01*
Y1117D01*
X159D01*
Y1170D01*
X154D01*
X152Y1173D01*
X152Y1173D01*
X148Y1177D01*
X150Y1181D01*
X207D01*
X209Y1177D01*
D02*
G37*
G36*
X176Y1206D02*
X128D01*
X124Y1210D01*
X120Y1213D01*
X115Y1214D01*
X84D01*
X79Y1213D01*
X75Y1210D01*
X68Y1204D01*
X64Y1206D01*
Y1213D01*
X94Y1243D01*
X176D01*
Y1206D01*
D02*
G37*
G36*
X-891Y2478D02*
Y2114D01*
X-865D01*
Y2101D01*
X-879D01*
Y2092D01*
X-907D01*
Y2100D01*
X-935D01*
Y2227D01*
X-931Y2229D01*
X-927Y2227D01*
X-920Y2225D01*
X-913Y2227D01*
X-907Y2231D01*
X-903Y2237D01*
X-902Y2244D01*
X-903Y2251D01*
X-907Y2257D01*
X-913Y2261D01*
X-920Y2262D01*
X-927Y2261D01*
X-931Y2258D01*
X-935Y2261D01*
Y2441D01*
X-896Y2480D01*
X-891Y2478D01*
D02*
G37*
G36*
X23Y2242D02*
X18Y2241D01*
X12Y2247D01*
X9Y2249D01*
Y2259D01*
X-35D01*
Y2215D01*
X-35D01*
X-17Y2213D01*
X-16Y2209D01*
X-17Y2208D01*
X-21Y2202D01*
X-22Y2195D01*
X-25Y2191D01*
X-70D01*
Y2158D01*
X-117D01*
Y2166D01*
X-161D01*
Y2122D01*
X-117D01*
Y2130D01*
X-70D01*
Y2127D01*
X-25D01*
X-22Y2123D01*
X-22Y2123D01*
X-21Y2116D01*
X-17Y2110D01*
X-11Y2106D01*
X-4Y2104D01*
X3Y2106D01*
X9Y2110D01*
X13Y2116D01*
X14Y2123D01*
X13Y2130D01*
X9Y2136D01*
X3Y2140D01*
X-4Y2141D01*
X-11Y2140D01*
X-16Y2136D01*
X-20Y2139D01*
Y2179D01*
X-16Y2181D01*
X-11Y2178D01*
X-4Y2176D01*
X3Y2178D01*
X9Y2182D01*
X13Y2188D01*
X14Y2195D01*
X14Y2198D01*
X18Y2200D01*
X23Y2196D01*
Y2095D01*
X78D01*
X80Y2091D01*
Y2083D01*
X71D01*
Y2039D01*
X115D01*
Y2083D01*
X109D01*
Y2091D01*
X111Y2095D01*
X167D01*
X168Y2094D01*
X168Y2094D01*
X173Y2091D01*
X178Y2090D01*
X178Y2090D01*
X237D01*
X251Y2075D01*
Y2039D01*
X295D01*
Y2046D01*
X311D01*
Y2039D01*
X355D01*
Y2083D01*
X350D01*
X348Y2087D01*
X348Y2088D01*
X432D01*
Y2052D01*
X466D01*
X474Y2050D01*
X476Y2048D01*
X477Y2043D01*
X481Y2037D01*
X487Y2033D01*
X494Y2031D01*
X501Y2033D01*
X507Y2037D01*
X511Y2043D01*
X512Y2050D01*
X511Y2057D01*
X515Y2059D01*
X523Y2052D01*
X523Y2052D01*
X527Y2048D01*
Y2048D01*
X527Y2048D01*
D01*
D01*
D01*
X527D01*
Y2048D01*
D01*
X527Y2048D01*
X527Y2048D01*
X533Y2047D01*
X533Y2047D01*
X556D01*
Y2040D01*
X600D01*
Y2084D01*
X556D01*
Y2076D01*
X539D01*
X502Y2112D01*
X502Y2112D01*
X496Y2119D01*
X496Y2119D01*
X387Y2228D01*
Y2359D01*
X423D01*
Y2403D01*
X387D01*
Y2466D01*
X439D01*
X447Y2458D01*
X447Y2458D01*
X451Y2455D01*
X457Y2454D01*
X457Y2454D01*
X805D01*
X919Y2341D01*
Y2030D01*
X880Y1991D01*
X626D01*
X624Y1995D01*
X629Y1999D01*
X633Y2005D01*
X634Y2012D01*
X633Y2019D01*
X629Y2025D01*
X623Y2029D01*
X616Y2030D01*
X609Y2029D01*
X603Y2025D01*
X599Y2019D01*
X598Y2012D01*
X599Y2005D01*
X603Y1999D01*
X608Y1995D01*
X606Y1991D01*
X449D01*
X443Y1990D01*
X442Y1988D01*
X439Y1986D01*
X439Y1986D01*
X427Y1975D01*
X368D01*
X317Y2026D01*
X313Y2029D01*
X307Y2030D01*
X307Y2030D01*
X234D01*
X227Y2037D01*
Y2039D01*
X235D01*
Y2083D01*
X191D01*
Y2075D01*
X175D01*
Y2083D01*
X131D01*
Y2039D01*
X175D01*
Y2046D01*
X191D01*
Y2039D01*
X199D01*
Y2031D01*
X199Y2031D01*
X200Y2026D01*
X203Y2021D01*
X213Y2011D01*
X210Y2007D01*
X206Y2010D01*
X199Y2011D01*
X192Y2010D01*
X186Y2006D01*
X182Y2000D01*
X182Y1999D01*
X177Y1999D01*
Y2007D01*
X133D01*
Y1963D01*
X141D01*
Y1942D01*
X133D01*
Y1898D01*
X141D01*
Y1877D01*
X133D01*
Y1833D01*
X141D01*
Y1812D01*
X133D01*
Y1768D01*
X141D01*
Y1743D01*
Y1737D01*
X140D01*
X134Y1736D01*
X129Y1732D01*
X126Y1727D01*
X124Y1721D01*
X126Y1716D01*
X129Y1711D01*
Y1707D01*
X126Y1702D01*
X124Y1696D01*
X126Y1690D01*
X126Y1689D01*
X124Y1685D01*
X120D01*
X114Y1683D01*
X113Y1682D01*
X110Y1680D01*
X110Y1680D01*
X97Y1667D01*
X94Y1663D01*
X92Y1657D01*
X92Y1657D01*
Y1607D01*
X92Y1607D01*
X94Y1602D01*
X97Y1597D01*
X98Y1596D01*
Y1591D01*
X97Y1590D01*
X94Y1585D01*
X92Y1580D01*
X92Y1580D01*
Y1433D01*
X58Y1399D01*
X57Y1399D01*
X50Y1396D01*
X44Y1391D01*
X39Y1385D01*
X38Y1383D01*
X-43D01*
X-46Y1387D01*
X-46Y1388D01*
X-47Y1395D01*
X-51Y1401D01*
X-57Y1405D01*
X-64Y1406D01*
X-62Y1408D01*
X-20D01*
Y1452D01*
X-28D01*
Y1506D01*
X-28Y1506D01*
X-29Y1512D01*
X-29D01*
D01*
D01*
X-29Y1512D01*
D01*
D01*
D01*
D01*
X-29Y1512D01*
D01*
D01*
Y1512D01*
D01*
X-29D01*
D01*
D01*
X-29D01*
D01*
D01*
X-32Y1516D01*
X-32Y1516D01*
X-43Y1527D01*
X-47Y1530D01*
X-53Y1531D01*
X-53Y1531D01*
X-60D01*
X-63Y1535D01*
X-62Y1536D01*
X-61Y1542D01*
X-62Y1548D01*
X-65Y1553D01*
Y1557D01*
X-62Y1562D01*
X-61Y1568D01*
X-61Y1569D01*
X-57Y1572D01*
X-57Y1572D01*
X-50Y1570D01*
X-43Y1572D01*
X-37Y1575D01*
X-33Y1581D01*
X-31Y1588D01*
X-33Y1595D01*
X-37Y1601D01*
X-43Y1605D01*
X-50Y1607D01*
X-50Y1607D01*
X-55Y1608D01*
X-71D01*
X-76Y1609D01*
X-120D01*
X-126Y1608D01*
X-131Y1604D01*
X-134Y1599D01*
X-135Y1593D01*
X-134Y1588D01*
X-139Y1586D01*
X-154Y1601D01*
X-152Y1605D01*
X-151D01*
Y1649D01*
X-195D01*
Y1612D01*
X-368D01*
Y1417D01*
X-542D01*
Y1337D01*
X-578Y1300D01*
X-602D01*
Y1256D01*
D01*
Y1256D01*
X-605Y1254D01*
X-618D01*
Y1254D01*
Y1256D01*
X-618Y1257D01*
X-618D01*
D01*
Y1257D01*
X-618D01*
D01*
Y1276D01*
X-618Y1278D01*
X-618Y1281D01*
Y1300D01*
X-638D01*
X-640Y1301D01*
X-648Y1301D01*
Y1310D01*
X-649Y1319D01*
X-654Y1326D01*
Y1326D01*
X-654D01*
D01*
D01*
D01*
D01*
D01*
D01*
X-654Y1326D01*
D01*
X-654Y1326D01*
D01*
D01*
X-654D01*
D01*
D01*
Y1326D01*
D01*
X-673Y1344D01*
X-673Y1429D01*
X-671Y1430D01*
X-661Y1436D01*
X-651Y1443D01*
X-643Y1453D01*
X-638Y1464D01*
X-634Y1475D01*
X-633Y1487D01*
X-634Y1500D01*
X-638Y1511D01*
X-643Y1522D01*
X-651Y1531D01*
X-661Y1539D01*
X-671Y1545D01*
X-683Y1549D01*
X-695Y1550D01*
X-707Y1549D01*
X-719Y1545D01*
X-730Y1539D01*
X-739Y1531D01*
X-747Y1522D01*
X-753Y1511D01*
X-756Y1500D01*
X-758Y1487D01*
X-756Y1475D01*
X-753Y1464D01*
X-747Y1453D01*
X-739Y1443D01*
X-730Y1436D01*
X-719Y1430D01*
X-718Y1429D01*
X-718Y1335D01*
X-717Y1331D01*
X-716Y1327D01*
X-716Y1327D01*
X-716Y1327D01*
X-713Y1323D01*
X-711Y1319D01*
X-698Y1306D01*
X-700Y1301D01*
X-700Y1301D01*
X-702Y1301D01*
X-722D01*
Y1281D01*
X-723Y1279D01*
X-722Y1277D01*
Y1257D01*
X-722Y1257D01*
X-722D01*
X-722Y1257D01*
X-725Y1254D01*
X-828D01*
X-832Y1258D01*
X-833Y1263D01*
X-837Y1269D01*
X-843Y1273D01*
X-850Y1274D01*
X-857Y1273D01*
X-863Y1269D01*
X-867Y1263D01*
X-869Y1256D01*
X-867Y1249D01*
X-863Y1243D01*
X-857Y1239D01*
X-853Y1238D01*
X-844Y1230D01*
X-844Y1229D01*
X-847Y1225D01*
X-878D01*
Y1181D01*
X-870D01*
Y1165D01*
X-878D01*
Y1121D01*
X-878Y1121D01*
X-878D01*
X-877Y1120D01*
X-883Y1114D01*
X-886Y1109D01*
X-887Y1105D01*
X-895D01*
Y1061D01*
X-851D01*
Y1105D01*
X-851Y1105D01*
X-851D01*
X-851Y1105D01*
X-846Y1111D01*
X-846Y1111D01*
X-844Y1114D01*
X-843Y1116D01*
X-842Y1121D01*
X-834D01*
Y1165D01*
X-842D01*
Y1181D01*
X-834D01*
Y1225D01*
D01*
Y1225D01*
X-833Y1225D01*
X-818D01*
Y1225D01*
X-818D01*
Y1213D01*
X-827D01*
Y905D01*
X-595D01*
Y891D01*
X-551D01*
Y898D01*
X-544D01*
Y891D01*
X-500D01*
Y935D01*
X-509D01*
Y951D01*
X-500D01*
Y995D01*
X-514D01*
Y1011D01*
X-500D01*
Y1055D01*
X-505D01*
Y1108D01*
X-495D01*
Y1108D01*
X-495D01*
X-495Y1108D01*
X-494D01*
D01*
X-489Y1108D01*
Y1080D01*
X-493D01*
Y1059D01*
X-493Y1058D01*
X-493Y1057D01*
Y1036D01*
X-449D01*
Y1044D01*
X-441D01*
Y1036D01*
X-402D01*
Y1020D01*
X-441D01*
Y976D01*
X-433D01*
Y960D01*
X-441D01*
Y952D01*
X-448D01*
Y960D01*
X-492D01*
Y944D01*
X-492Y943D01*
X-493Y938D01*
X-492Y933D01*
X-492Y932D01*
Y916D01*
X-448D01*
Y924D01*
X-441D01*
Y916D01*
X-397D01*
X-397Y916D01*
Y916D01*
X-393Y918D01*
X-371Y896D01*
X-367Y893D01*
X-362Y892D01*
X-322D01*
X-322Y887D01*
X-327Y886D01*
X-331Y883D01*
X-331Y883D01*
X-362Y853D01*
X-367Y852D01*
X-368Y852D01*
X-372Y858D01*
X-378Y862D01*
X-385Y863D01*
X-392Y862D01*
X-398Y858D01*
X-402Y852D01*
X-403Y845D01*
X-403Y844D01*
X-406Y840D01*
X-446D01*
Y830D01*
X-450Y828D01*
X-456Y833D01*
Y856D01*
X-448D01*
Y900D01*
X-492D01*
Y856D01*
X-484D01*
Y827D01*
X-484Y827D01*
X-483Y824D01*
X-486Y820D01*
X-493Y818D01*
X-499Y814D01*
X-503Y808D01*
X-504Y801D01*
X-503Y794D01*
X-499Y788D01*
X-493Y784D01*
X-486Y783D01*
X-479Y784D01*
X-473Y788D01*
X-469Y794D01*
X-468Y799D01*
X-463Y800D01*
X-461Y798D01*
X-461Y798D01*
X-456Y795D01*
Y795D01*
X-456Y795D01*
D01*
D01*
D01*
X-456D01*
Y795D01*
D01*
X-456Y795D01*
X-456Y795D01*
X-451Y794D01*
X-451Y794D01*
X-446D01*
Y776D01*
X-396D01*
Y781D01*
X-362D01*
X-331Y750D01*
X-333Y745D01*
X-335D01*
Y701D01*
X-298D01*
Y694D01*
X-297Y689D01*
X-299Y685D01*
X-335D01*
Y676D01*
X-359D01*
Y682D01*
X-409D01*
Y632D01*
X-359D01*
Y650D01*
X-335D01*
Y641D01*
X-291D01*
Y676D01*
X-287Y678D01*
X-275Y666D01*
Y641D01*
X-252D01*
X-250Y636D01*
X-267Y619D01*
X-270Y615D01*
X-272Y609D01*
X-272Y609D01*
Y562D01*
X-277Y557D01*
X-289D01*
X-289Y557D01*
X-294Y556D01*
X-299Y553D01*
X-299Y553D01*
X-305Y546D01*
X-397D01*
Y609D01*
X-447D01*
Y606D01*
X-480D01*
Y612D01*
X-476Y617D01*
X-475Y624D01*
X-476Y631D01*
X-480Y637D01*
X-486Y641D01*
X-493Y642D01*
X-500Y641D01*
X-503Y639D01*
X-507Y642D01*
Y679D01*
X-551D01*
Y671D01*
X-560D01*
X-560Y671D01*
X-566Y670D01*
X-568Y669D01*
X-570Y667D01*
X-570Y667D01*
X-576Y661D01*
X-611Y696D01*
Y701D01*
X-611Y701D01*
Y701D01*
X-611D01*
X-611D01*
Y701D01*
D01*
D01*
Y701D01*
D01*
D01*
D01*
D01*
X-567D01*
Y709D01*
X-551D01*
Y701D01*
X-507D01*
Y709D01*
X-484D01*
Y703D01*
X-434D01*
Y753D01*
X-484D01*
Y737D01*
X-507D01*
Y745D01*
X-551D01*
Y737D01*
X-567D01*
Y745D01*
X-611D01*
Y738D01*
X-616Y737D01*
X-617Y742D01*
X-620Y746D01*
X-620Y746D01*
X-635Y761D01*
X-632Y766D01*
X-628Y765D01*
X-621Y766D01*
X-617Y769D01*
X-611D01*
Y761D01*
X-567D01*
Y805D01*
X-593D01*
X-593Y810D01*
X-589Y811D01*
X-584Y814D01*
X-568Y831D01*
X-551D01*
Y875D01*
X-595D01*
Y844D01*
X-600Y838D01*
X-620D01*
X-623Y843D01*
X-623Y843D01*
X-619Y849D01*
X-618Y856D01*
X-619Y863D01*
X-623Y869D01*
X-629Y873D01*
X-636Y874D01*
X-643Y873D01*
X-649Y869D01*
X-653Y863D01*
X-654Y858D01*
X-654Y858D01*
X-654Y858D01*
X-654Y858D01*
X-708D01*
Y789D01*
X-695D01*
Y777D01*
X-703Y769D01*
X-808D01*
X-834Y795D01*
Y958D01*
X-836Y963D01*
X-839Y968D01*
X-839Y968D01*
X-860Y989D01*
Y1001D01*
X-851D01*
Y1045D01*
X-895D01*
Y1040D01*
X-900Y1038D01*
X-903Y1041D01*
Y1870D01*
X-855Y1918D01*
X-671D01*
X-669Y1914D01*
X-669Y1914D01*
X-670Y1907D01*
X-669Y1900D01*
X-665Y1894D01*
X-659Y1890D01*
X-652Y1888D01*
X-645Y1890D01*
X-639Y1894D01*
X-635Y1900D01*
X-634Y1907D01*
X-634Y1909D01*
X-633Y1915D01*
X-626Y1917D01*
X-620Y1921D01*
X-616Y1927D01*
X-615Y1934D01*
X-616Y1941D01*
X-620Y1947D01*
X-626Y1951D01*
X-633Y1952D01*
X-640Y1951D01*
X-646Y1947D01*
X-861D01*
X-861Y1947D01*
X-866Y1946D01*
X-871Y1943D01*
X-871Y1943D01*
X-927Y1886D01*
X-930Y1882D01*
X-935Y1884D01*
Y2056D01*
X-907D01*
Y2064D01*
X-879D01*
Y2057D01*
X-872D01*
Y2040D01*
X-879D01*
Y1996D01*
X-835D01*
Y2040D01*
X-843D01*
Y2057D01*
X-835D01*
Y2067D01*
X-819D01*
Y2057D01*
X-814D01*
Y2040D01*
X-822D01*
Y1996D01*
X-778D01*
Y2040D01*
X-786D01*
Y2057D01*
X-775D01*
Y2062D01*
X-759D01*
Y2057D01*
X-715D01*
Y2101D01*
X-726D01*
Y2112D01*
X-691D01*
Y2101D01*
X-699D01*
Y2057D01*
X-691D01*
Y2051D01*
X-691Y2051D01*
X-690Y2045D01*
X-687Y2041D01*
X-673Y2027D01*
X-673Y2027D01*
X-668Y2024D01*
X-663Y2023D01*
X-663Y2023D01*
X-625D01*
Y2015D01*
X-581D01*
Y2059D01*
X-625D01*
Y2051D01*
X-657D01*
X-663Y2057D01*
Y2057D01*
X-655D01*
Y2101D01*
X-663D01*
Y2112D01*
X-622D01*
Y2067D01*
X-437D01*
Y2059D01*
X-445D01*
Y2015D01*
X-401D01*
Y2059D01*
X-409D01*
Y2067D01*
X-369D01*
Y2059D01*
X-358D01*
X-357Y2055D01*
X-354Y2050D01*
X-340Y2036D01*
Y1992D01*
X-296D01*
Y2036D01*
X-304D01*
X-304Y2040D01*
X-307Y2044D01*
X-307Y2044D01*
X-320Y2056D01*
X-319Y2059D01*
X-319D01*
X-319Y2059D01*
Y2067D01*
X-309D01*
Y2132D01*
X-281D01*
Y2195D01*
X-257Y2218D01*
X-257Y2218D01*
X-256Y2220D01*
X-236D01*
Y2223D01*
X-215D01*
Y2215D01*
X-177D01*
X-175Y2211D01*
X-178Y2206D01*
X-179Y2199D01*
X-178Y2192D01*
X-174Y2186D01*
X-168Y2182D01*
X-161Y2180D01*
X-154Y2182D01*
X-148Y2186D01*
X-144Y2192D01*
X-143Y2199D01*
X-144Y2206D01*
X-148Y2212D01*
X-147Y2215D01*
X-111D01*
Y2259D01*
X-155D01*
Y2251D01*
X-171D01*
Y2259D01*
X-215D01*
Y2251D01*
X-236D01*
Y2294D01*
X-300D01*
Y2220D01*
X-300Y2220D01*
X-300D01*
X-299Y2218D01*
X-305Y2212D01*
X-309Y2214D01*
Y2304D01*
X-305Y2307D01*
X-303Y2310D01*
X-300Y2310D01*
Y2310D01*
X-236D01*
Y2333D01*
X-204D01*
X-204Y2333D01*
X-198Y2334D01*
X-194Y2337D01*
X-170Y2361D01*
X-170Y2361D01*
X-167Y2365D01*
D01*
D01*
D01*
Y2365D01*
X-167D01*
D01*
D01*
D01*
D01*
X-167D01*
D01*
D01*
D01*
D01*
Y2365D01*
X-167D01*
D01*
Y2365D01*
D01*
D01*
D01*
D01*
D01*
D01*
D01*
D01*
D01*
D01*
D01*
D01*
Y2365D01*
D01*
X-167D01*
D01*
D01*
D01*
D01*
X-167Y2365D01*
X-166Y2371D01*
X-166Y2371D01*
Y2401D01*
X-166Y2401D01*
X-167Y2406D01*
X-167D01*
D01*
D01*
X-167Y2406D01*
D01*
D01*
D01*
D01*
X-167Y2406D01*
D01*
D01*
Y2406D01*
D01*
X-167D01*
D01*
D01*
X-167D01*
D01*
D01*
X-170Y2411D01*
X-170Y2411D01*
X-173Y2413D01*
Y2415D01*
X-165D01*
Y2459D01*
X-209D01*
Y2415D01*
X-201D01*
Y2407D01*
X-201Y2407D01*
X-200Y2402D01*
X-197Y2397D01*
X-194Y2395D01*
Y2377D01*
X-210Y2361D01*
X-236D01*
Y2384D01*
X-253D01*
Y2390D01*
X-253Y2390D01*
X-254Y2395D01*
X-257Y2400D01*
X-257Y2400D01*
X-269Y2412D01*
X-274Y2415D01*
X-280Y2416D01*
X-280Y2416D01*
X-366D01*
X-366Y2416D01*
X-372Y2415D01*
X-376Y2412D01*
X-376Y2412D01*
X-380Y2407D01*
X-385Y2409D01*
X-385Y2486D01*
X23D01*
Y2242D01*
D02*
G37*
G36*
X923Y1919D02*
Y1870D01*
X918Y1869D01*
X915Y1874D01*
X915Y1874D01*
X870Y1919D01*
X865Y1922D01*
X860Y1923D01*
X860Y1923D01*
X737D01*
X723Y1937D01*
Y1960D01*
D01*
Y1960D01*
X724Y1962D01*
X880D01*
X923Y1919D01*
D02*
G37*
%LPC*%
G36*
X324Y803D02*
X317Y802D01*
X311Y798D01*
X307Y792D01*
X306Y785D01*
X307Y778D01*
X311Y772D01*
X317Y768D01*
X324Y766D01*
X331Y768D01*
X337Y772D01*
X341Y778D01*
X342Y785D01*
X341Y792D01*
X337Y798D01*
X331Y802D01*
X324Y803D01*
D02*
G37*
G36*
X449Y720D02*
X442Y719D01*
X436Y715D01*
X432Y709D01*
X431Y702D01*
X432Y695D01*
X436Y689D01*
X442Y685D01*
X449Y683D01*
X456Y685D01*
X462Y689D01*
X466Y695D01*
X467Y702D01*
X466Y709D01*
X462Y715D01*
X456Y719D01*
X449Y720D01*
D02*
G37*
G36*
X96Y865D02*
X52D01*
Y821D01*
X59D01*
Y796D01*
X58D01*
Y762D01*
X122D01*
Y796D01*
X88D01*
Y821D01*
X96D01*
Y865D01*
D02*
G37*
G36*
X-10Y2429D02*
X-95D01*
Y2385D01*
X-47D01*
Y2380D01*
X-47Y2380D01*
X-46Y2374D01*
X-43Y2370D01*
X-18Y2345D01*
X-19Y2340D01*
X-21Y2339D01*
X-24Y2344D01*
X-30Y2348D01*
X-37Y2349D01*
X-44Y2348D01*
X-47Y2346D01*
X-51Y2348D01*
Y2373D01*
X-95D01*
Y2329D01*
X-88D01*
Y2319D01*
X-95D01*
Y2275D01*
X-51D01*
Y2313D01*
X-46Y2315D01*
X-44Y2314D01*
X-37Y2312D01*
X-35Y2310D01*
Y2275D01*
X9D01*
Y2316D01*
X10Y2316D01*
X11Y2318D01*
X12Y2324D01*
X12Y2324D01*
Y2349D01*
X12Y2349D01*
X11Y2355D01*
X11D01*
D01*
D01*
X11Y2355D01*
D01*
D01*
D01*
D01*
X11Y2355D01*
D01*
D01*
Y2355D01*
D01*
X11D01*
D01*
D01*
X11D01*
D01*
D01*
X8Y2359D01*
X8Y2359D01*
X-13Y2381D01*
X-11Y2385D01*
X-10D01*
Y2429D01*
D02*
G37*
G36*
X448Y792D02*
X441Y791D01*
X435Y787D01*
X431Y781D01*
X430Y774D01*
X431Y767D01*
X435Y761D01*
X441Y757D01*
X448Y755D01*
X455Y757D01*
X461Y761D01*
X465Y767D01*
X466Y774D01*
X465Y781D01*
X461Y787D01*
X455Y791D01*
X448Y792D01*
D02*
G37*
G36*
X384Y916D02*
X377Y915D01*
X371Y911D01*
X367Y905D01*
X366Y898D01*
X367Y891D01*
X371Y885D01*
X377Y881D01*
X384Y879D01*
X391Y881D01*
X397Y885D01*
X401Y891D01*
X402Y898D01*
X401Y905D01*
X397Y911D01*
X391Y915D01*
X384Y916D01*
D02*
G37*
G36*
X-111Y2429D02*
X-155D01*
Y2385D01*
X-148D01*
Y2373D01*
X-155D01*
Y2329D01*
X-148D01*
Y2319D01*
X-155D01*
Y2275D01*
X-111D01*
Y2319D01*
X-119D01*
Y2329D01*
X-111D01*
Y2373D01*
X-119D01*
Y2385D01*
X-111D01*
Y2429D01*
D02*
G37*
G36*
X672Y1037D02*
X628D01*
Y993D01*
X641D01*
Y960D01*
X628D01*
Y949D01*
X590D01*
X590Y949D01*
X584Y948D01*
X580Y945D01*
X580Y945D01*
X562Y927D01*
X538D01*
Y902D01*
X537Y901D01*
X536Y895D01*
X536Y895D01*
Y857D01*
X528D01*
Y813D01*
X572D01*
Y857D01*
X564D01*
Y883D01*
X582D01*
Y907D01*
X596Y921D01*
X628D01*
Y891D01*
X682D01*
Y960D01*
X669D01*
Y993D01*
X672D01*
Y1037D01*
D02*
G37*
G36*
X632Y857D02*
X588D01*
Y813D01*
X632D01*
Y817D01*
X666D01*
Y814D01*
X730D01*
Y848D01*
X666D01*
Y845D01*
X632D01*
Y857D01*
D02*
G37*
G36*
X324Y866D02*
X317Y865D01*
X311Y861D01*
X307Y855D01*
X306Y848D01*
X307Y841D01*
X311Y835D01*
X317Y831D01*
X324Y829D01*
X331Y831D01*
X337Y835D01*
X341Y841D01*
X342Y848D01*
X341Y855D01*
X337Y861D01*
X331Y865D01*
X324Y866D01*
D02*
G37*
G36*
X342Y916D02*
X335Y915D01*
X329Y911D01*
X325Y905D01*
X324Y898D01*
X325Y891D01*
X329Y885D01*
X335Y881D01*
X342Y879D01*
X349Y881D01*
X355Y885D01*
X359Y891D01*
X360Y898D01*
X359Y905D01*
X355Y911D01*
X349Y915D01*
X342Y916D01*
D02*
G37*
G36*
X329Y700D02*
X322Y699D01*
X316Y695D01*
X312Y689D01*
X311Y682D01*
X312Y675D01*
X316Y669D01*
X322Y665D01*
X329Y663D01*
X336Y665D01*
X342Y669D01*
X346Y675D01*
X347Y682D01*
X346Y689D01*
X342Y695D01*
X336Y699D01*
X329Y700D01*
D02*
G37*
G36*
X450Y455D02*
X440Y454D01*
X431Y450D01*
X423Y444D01*
X417Y436D01*
X413Y427D01*
X412Y417D01*
X413Y407D01*
X417Y397D01*
X423Y390D01*
X431Y383D01*
X440Y380D01*
X450Y378D01*
X460Y380D01*
X469Y383D01*
X477Y390D01*
X483Y397D01*
X487Y407D01*
X488Y417D01*
X487Y427D01*
X483Y436D01*
X477Y444D01*
X469Y450D01*
X460Y454D01*
X450Y455D01*
D02*
G37*
G36*
X-412Y455D02*
X-488D01*
Y379D01*
X-412D01*
Y455D01*
D02*
G37*
G36*
X398Y574D02*
X391Y573D01*
X385Y569D01*
X381Y563D01*
X380Y556D01*
X381Y549D01*
X383Y546D01*
X380Y542D01*
X379D01*
Y498D01*
X384D01*
X386Y493D01*
X380Y487D01*
X257D01*
X257Y492D01*
X257Y492D01*
X264Y495D01*
X270Y500D01*
X275Y506D01*
X275Y506D01*
X319D01*
Y498D01*
X363D01*
Y542D01*
X363D01*
X360Y546D01*
X362Y549D01*
X363Y556D01*
X362Y563D01*
X358Y569D01*
X352Y573D01*
X345Y574D01*
X338Y573D01*
X332Y569D01*
X328Y563D01*
X327Y556D01*
X328Y549D01*
X330Y546D01*
X327Y542D01*
X319D01*
Y535D01*
X275D01*
X275Y536D01*
X270Y542D01*
X264Y546D01*
X257Y549D01*
X249Y550D01*
X241Y549D01*
X234Y546D01*
X228Y542D01*
X223Y536D01*
X223Y535D01*
X202D01*
X202Y535D01*
X196Y534D01*
X194Y533D01*
X192Y531D01*
X192Y531D01*
X184Y523D01*
X176D01*
Y526D01*
X112D01*
Y492D01*
X176D01*
Y495D01*
X190D01*
X190Y495D01*
X196Y496D01*
X200Y499D01*
X208Y506D01*
X223D01*
X223Y506D01*
X228Y500D01*
X234Y495D01*
X241Y492D01*
X241Y492D01*
X241Y487D01*
X107D01*
X102Y486D01*
X98Y483D01*
X66Y451D01*
X60Y454D01*
X50Y455D01*
X40Y454D01*
X31Y450D01*
X23Y444D01*
X17Y436D01*
X13Y427D01*
X12Y417D01*
X13Y407D01*
X17Y397D01*
X23Y390D01*
X31Y383D01*
X40Y380D01*
X50Y378D01*
X60Y380D01*
X69Y383D01*
X77Y390D01*
X83Y397D01*
X87Y407D01*
X88Y417D01*
X87Y427D01*
X85Y432D01*
X112Y460D01*
X385D01*
X390Y461D01*
X394Y464D01*
X410Y480D01*
Y480D01*
X410D01*
X410D01*
D01*
Y480D01*
X410D01*
D01*
D01*
Y480D01*
D01*
D01*
D01*
D01*
D01*
D01*
D01*
D01*
D01*
Y480D01*
X410D01*
D01*
D01*
D01*
X413Y485D01*
X414Y490D01*
Y498D01*
X423D01*
Y499D01*
X428Y500D01*
X428Y500D01*
X432Y494D01*
X438Y490D01*
X445Y488D01*
X452Y490D01*
X458Y494D01*
X462Y500D01*
X463Y507D01*
X462Y514D01*
X458Y520D01*
X452Y524D01*
X445Y525D01*
X441Y529D01*
X437Y532D01*
X432Y533D01*
X423D01*
Y542D01*
X416D01*
X413Y546D01*
X415Y549D01*
X416Y556D01*
X415Y563D01*
X411Y569D01*
X405Y573D01*
X398Y574D01*
D02*
G37*
G36*
X-150Y455D02*
X-160Y454D01*
X-169Y450D01*
X-177Y444D01*
X-183Y436D01*
X-187Y427D01*
X-188Y417D01*
X-187Y407D01*
X-183Y397D01*
X-177Y390D01*
X-169Y383D01*
X-160Y380D01*
X-150Y378D01*
X-140Y380D01*
X-131Y383D01*
X-123Y390D01*
X-117Y397D01*
X-113Y407D01*
X-112Y417D01*
X-113Y427D01*
X-117Y436D01*
X-123Y444D01*
X-131Y450D01*
X-140Y454D01*
X-150Y455D01*
D02*
G37*
G36*
X250D02*
X240Y454D01*
X231Y450D01*
X223Y444D01*
X217Y436D01*
X213Y427D01*
X212Y417D01*
X213Y407D01*
X217Y397D01*
X223Y390D01*
X231Y383D01*
X240Y380D01*
X250Y378D01*
X260Y380D01*
X269Y383D01*
X277Y390D01*
X283Y397D01*
X287Y407D01*
X288Y417D01*
X287Y427D01*
X283Y436D01*
X277Y444D01*
X269Y450D01*
X260Y454D01*
X250Y455D01*
D02*
G37*
G36*
X350D02*
X340Y454D01*
X331Y450D01*
X323Y444D01*
X317Y436D01*
X313Y427D01*
X312Y417D01*
X313Y407D01*
X317Y397D01*
X323Y390D01*
X331Y383D01*
X340Y380D01*
X350Y378D01*
X360Y380D01*
X369Y383D01*
X377Y390D01*
X383Y397D01*
X387Y407D01*
X388Y417D01*
X387Y427D01*
X383Y436D01*
X377Y444D01*
X369Y450D01*
X360Y454D01*
X350Y455D01*
D02*
G37*
G36*
X616Y682D02*
X609Y681D01*
X603Y677D01*
X599Y671D01*
X598Y664D01*
X599Y657D01*
X603Y651D01*
X609Y647D01*
X616Y645D01*
X623Y647D01*
X624Y648D01*
X628Y644D01*
X625Y640D01*
X624Y633D01*
X625Y628D01*
X620Y625D01*
X615Y629D01*
X608Y630D01*
X601Y629D01*
X595Y625D01*
X591Y619D01*
X590Y612D01*
X591Y605D01*
X595Y599D01*
X601Y595D01*
X608Y593D01*
X615Y595D01*
X621Y599D01*
X625Y605D01*
X626Y612D01*
X625Y617D01*
X630Y619D01*
X635Y616D01*
X642Y614D01*
X649Y616D01*
X655Y620D01*
X659Y626D01*
X660Y633D01*
X659Y640D01*
X655Y646D01*
X649Y650D01*
X642Y651D01*
X635Y650D01*
X634Y649D01*
X630Y652D01*
X633Y657D01*
X634Y664D01*
X633Y671D01*
X629Y677D01*
X623Y681D01*
X616Y682D01*
D02*
G37*
G36*
X540Y670D02*
X533Y669D01*
X527Y665D01*
X523Y659D01*
X522Y652D01*
X523Y645D01*
X527Y639D01*
X533Y635D01*
X540Y633D01*
X547Y635D01*
X553Y639D01*
X557Y645D01*
X558Y652D01*
X557Y659D01*
X553Y665D01*
X547Y669D01*
X540Y670D01*
D02*
G37*
G36*
X632Y777D02*
X588D01*
Y733D01*
X611D01*
X613Y728D01*
X610Y727D01*
X606Y721D01*
X605Y714D01*
X606Y707D01*
X610Y701D01*
X616Y697D01*
X623Y695D01*
X630Y697D01*
X636Y701D01*
X640Y707D01*
X641Y714D01*
X640Y721D01*
X636Y727D01*
X633Y729D01*
X632Y733D01*
Y733D01*
X632Y734D01*
X632D01*
D01*
Y734D01*
X632D01*
Y742D01*
X666D01*
Y739D01*
X683D01*
Y729D01*
X683Y729D01*
X685Y724D01*
X688Y719D01*
X726Y681D01*
Y657D01*
X770D01*
Y701D01*
X746D01*
X712Y735D01*
Y739D01*
X730D01*
Y773D01*
X666D01*
Y770D01*
X632D01*
Y777D01*
D02*
G37*
G36*
X524Y567D02*
X517Y566D01*
X511Y562D01*
X507Y556D01*
X506Y549D01*
X507Y542D01*
X511Y536D01*
X517Y532D01*
X524Y530D01*
X531Y532D01*
X537Y536D01*
X541Y542D01*
X542Y549D01*
X541Y556D01*
X537Y562D01*
X531Y566D01*
X524Y567D01*
D02*
G37*
G36*
X-360Y609D02*
X-367Y608D01*
X-373Y604D01*
X-377Y598D01*
X-378Y591D01*
X-377Y584D01*
X-373Y578D01*
X-367Y574D01*
X-360Y572D01*
X-353Y574D01*
X-347Y578D01*
X-343Y584D01*
X-342Y591D01*
X-343Y598D01*
X-347Y604D01*
X-353Y608D01*
X-360Y609D01*
D02*
G37*
G36*
X-305D02*
X-312Y608D01*
X-318Y604D01*
X-322Y598D01*
X-323Y591D01*
X-322Y584D01*
X-318Y578D01*
X-312Y574D01*
X-305Y572D01*
X-298Y574D01*
X-292Y578D01*
X-288Y584D01*
X-287Y591D01*
X-288Y598D01*
X-292Y604D01*
X-298Y608D01*
X-305Y609D01*
D02*
G37*
G36*
X-659Y2016D02*
X-666Y2015D01*
X-672Y2011D01*
X-676Y2005D01*
X-677Y1998D01*
X-676Y1991D01*
X-672Y1985D01*
X-666Y1981D01*
X-659Y1979D01*
X-652Y1981D01*
X-646Y1985D01*
X-642Y1991D01*
X-641Y1998D01*
X-642Y2005D01*
X-646Y2011D01*
X-652Y2015D01*
X-659Y2016D01*
D02*
G37*
G36*
X-19Y1569D02*
X-26Y1568D01*
X-32Y1564D01*
X-36Y1558D01*
X-37Y1551D01*
X-36Y1544D01*
X-32Y1538D01*
X-26Y1534D01*
X-19Y1533D01*
X-19D01*
D01*
X-12Y1534D01*
X-6Y1538D01*
X-2Y1544D01*
X-1Y1551D01*
X-2Y1558D01*
X-6Y1564D01*
X-12Y1568D01*
X-19Y1569D01*
D02*
G37*
G36*
X-398Y1625D02*
X-405Y1624D01*
X-411Y1620D01*
X-415Y1614D01*
X-416Y1607D01*
X-415Y1600D01*
X-411Y1594D01*
X-405Y1590D01*
X-398Y1588D01*
X-391Y1590D01*
X-385Y1594D01*
X-381Y1600D01*
X-380Y1607D01*
X-381Y1614D01*
X-385Y1620D01*
X-391Y1624D01*
X-398Y1625D01*
D02*
G37*
G36*
X40Y1490D02*
X32Y1489D01*
X25Y1486D01*
X19Y1482D01*
X14Y1476D01*
X11Y1468D01*
X10Y1461D01*
X11Y1453D01*
X14Y1446D01*
X19Y1440D01*
X25Y1435D01*
X32Y1432D01*
X40Y1431D01*
X48Y1432D01*
X55Y1435D01*
X61Y1440D01*
X66Y1446D01*
X69Y1453D01*
X70Y1461D01*
X69Y1468D01*
X66Y1476D01*
X61Y1482D01*
X55Y1486D01*
X48Y1489D01*
X40Y1490D01*
D02*
G37*
G36*
X117Y2007D02*
X73D01*
Y1999D01*
X72D01*
X66Y1998D01*
X64Y1997D01*
X62Y1995D01*
X62Y1995D01*
X48Y1981D01*
X43Y1983D01*
Y1985D01*
X-1D01*
Y1941D01*
X43D01*
Y1948D01*
X49D01*
X49Y1948D01*
X55Y1949D01*
X59Y1953D01*
X71Y1964D01*
X73Y1963D01*
Y1963D01*
X73Y1963D01*
X81D01*
Y1942D01*
X73D01*
Y1922D01*
X-136D01*
Y1770D01*
X-137Y1769D01*
X-144Y1768D01*
X-147Y1766D01*
X-151Y1769D01*
Y1769D01*
X-195D01*
Y1725D01*
X-174D01*
X-163Y1714D01*
X-165Y1709D01*
X-195D01*
Y1665D01*
X-170D01*
X-166Y1661D01*
X-166D01*
X-166Y1661D01*
X-166D01*
X-166Y1661D01*
Y1661D01*
X-166Y1661D01*
Y1661D01*
X-161Y1658D01*
X-156Y1657D01*
X-135D01*
X-135Y1657D01*
X-133Y1652D01*
X-134Y1651D01*
X-135Y1645D01*
X-134Y1639D01*
X-131Y1634D01*
X-126Y1631D01*
X-120Y1629D01*
X-76D01*
X-71Y1630D01*
X-56D01*
X-56Y1630D01*
X-51Y1631D01*
X-46Y1635D01*
X-20Y1661D01*
X-17Y1665D01*
X-16Y1671D01*
X-16Y1671D01*
Y1687D01*
Y1729D01*
X-11Y1731D01*
X-7Y1728D01*
X0Y1727D01*
X7Y1728D01*
X13Y1732D01*
X17Y1738D01*
X19Y1745D01*
X18Y1748D01*
X21Y1751D01*
X73D01*
Y1768D01*
X117D01*
Y1780D01*
Y1812D01*
X73D01*
Y1833D01*
X117D01*
Y1877D01*
X109D01*
Y1898D01*
X117D01*
Y1942D01*
X109D01*
Y1963D01*
X117D01*
Y2007D01*
D02*
G37*
G36*
X13Y1530D02*
X6Y1529D01*
X0Y1525D01*
X-4Y1519D01*
X-5Y1512D01*
X-4Y1505D01*
X0Y1499D01*
X6Y1495D01*
X13Y1494D01*
X20Y1495D01*
X26Y1499D01*
X30Y1505D01*
X31Y1512D01*
X30Y1519D01*
X26Y1525D01*
X20Y1529D01*
X13Y1530D01*
D02*
G37*
G36*
X-859Y1897D02*
X-866Y1896D01*
X-872Y1892D01*
X-876Y1886D01*
X-877Y1879D01*
X-876Y1872D01*
X-872Y1866D01*
X-866Y1862D01*
X-859Y1860D01*
X-852Y1862D01*
X-846Y1866D01*
X-842Y1872D01*
X-841Y1879D01*
X-842Y1886D01*
X-846Y1892D01*
X-852Y1896D01*
X-859Y1897D01*
D02*
G37*
G36*
X-797Y1799D02*
X-805Y1798D01*
X-813Y1795D01*
X-820Y1789D01*
X-825Y1783D01*
X-828Y1775D01*
X-829Y1767D01*
X-828Y1758D01*
X-825Y1750D01*
X-820Y1744D01*
X-813Y1739D01*
X-805Y1735D01*
X-797Y1734D01*
X-789Y1735D01*
X-781Y1739D01*
X-774Y1744D01*
X-769Y1750D01*
X-766Y1758D01*
X-765Y1767D01*
X-766Y1775D01*
X-769Y1783D01*
X-774Y1789D01*
X-781Y1795D01*
X-789Y1798D01*
X-797Y1799D01*
D02*
G37*
G36*
X-173Y1862D02*
X-180Y1861D01*
X-186Y1857D01*
X-190Y1851D01*
X-191Y1844D01*
X-190Y1837D01*
X-188Y1834D01*
X-190Y1829D01*
X-195D01*
Y1785D01*
X-151D01*
Y1829D01*
X-156D01*
X-159Y1834D01*
X-156Y1837D01*
X-155Y1844D01*
X-156Y1851D01*
X-160Y1857D01*
X-166Y1861D01*
X-173Y1862D01*
D02*
G37*
G36*
X-180Y1943D02*
X-187Y1942D01*
X-193Y1938D01*
X-197Y1932D01*
X-198Y1925D01*
X-197Y1918D01*
X-193Y1912D01*
X-187Y1908D01*
X-180Y1906D01*
X-173Y1908D01*
X-167Y1912D01*
X-163Y1918D01*
X-162Y1925D01*
X-163Y1932D01*
X-167Y1938D01*
X-173Y1942D01*
X-180Y1943D01*
D02*
G37*
G36*
X-434Y1935D02*
X-441Y1934D01*
X-447Y1930D01*
X-451Y1924D01*
X-452Y1917D01*
X-451Y1910D01*
X-447Y1904D01*
X-441Y1900D01*
X-434Y1898D01*
X-427Y1900D01*
X-421Y1904D01*
X-417Y1910D01*
X-416Y1917D01*
X-417Y1924D01*
X-421Y1930D01*
X-427Y1934D01*
X-434Y1935D01*
D02*
G37*
G36*
X-396Y1870D02*
X-700D01*
Y1800D01*
X-672D01*
Y1741D01*
X-649D01*
Y1678D01*
X-555D01*
X-553Y1674D01*
X-554Y1667D01*
X-553Y1660D01*
X-549Y1654D01*
X-543Y1650D01*
X-536Y1648D01*
X-529Y1650D01*
X-523Y1654D01*
X-519Y1660D01*
X-518Y1667D01*
X-519Y1674D01*
X-517Y1678D01*
X-475D01*
Y1741D01*
X-442D01*
Y1800D01*
X-396D01*
Y1870D01*
D02*
G37*
G36*
X845Y1462D02*
X838Y1461D01*
X832Y1457D01*
X828Y1451D01*
X827Y1444D01*
X828Y1437D01*
X832Y1431D01*
X838Y1427D01*
X845Y1425D01*
X852Y1427D01*
X858Y1431D01*
X862Y1437D01*
X863Y1444D01*
X862Y1451D01*
X858Y1457D01*
X852Y1461D01*
X845Y1462D01*
D02*
G37*
G36*
X924Y1281D02*
X880D01*
Y1237D01*
X888D01*
Y1217D01*
X885Y1213D01*
X884Y1206D01*
X885Y1199D01*
X889Y1193D01*
X895Y1189D01*
X902Y1187D01*
X909Y1189D01*
X915Y1193D01*
X919Y1199D01*
X920Y1206D01*
X919Y1213D01*
X916Y1217D01*
Y1237D01*
X924D01*
Y1281D01*
D02*
G37*
G36*
X-177Y2166D02*
X-221D01*
Y2122D01*
X-213D01*
Y2096D01*
X-220D01*
Y2088D01*
X-244D01*
Y2109D01*
X-294D01*
Y2059D01*
X-244D01*
Y2060D01*
X-220D01*
Y2052D01*
X-176D01*
Y2060D01*
X-160D01*
Y2052D01*
X-116D01*
Y2096D01*
X-160D01*
Y2088D01*
X-176D01*
Y2096D01*
X-184D01*
Y2122D01*
X-177D01*
Y2166D01*
D02*
G37*
G36*
X688Y1276D02*
X626D01*
Y1215D01*
X688D01*
Y1276D01*
D02*
G37*
G36*
X594Y1001D02*
X587Y1000D01*
X581Y996D01*
X577Y990D01*
X576Y983D01*
X577Y976D01*
X581Y970D01*
X587Y966D01*
X594Y964D01*
X601Y966D01*
X607Y970D01*
X611Y976D01*
X612Y983D01*
X611Y990D01*
X607Y996D01*
X601Y1000D01*
X594Y1001D01*
D02*
G37*
G36*
X-177Y1087D02*
X-184Y1086D01*
X-190Y1082D01*
X-194Y1076D01*
X-195Y1069D01*
X-194Y1062D01*
X-190Y1056D01*
X-184Y1052D01*
X-177Y1050D01*
X-170Y1052D01*
X-164Y1056D01*
X-160Y1062D01*
X-159Y1069D01*
X-160Y1076D01*
X-164Y1082D01*
X-170Y1086D01*
X-177Y1087D01*
D02*
G37*
G36*
X638Y2333D02*
X626Y2332D01*
X614Y2328D01*
X603Y2322D01*
X594Y2315D01*
X586Y2305D01*
X580Y2294D01*
X577Y2283D01*
X576Y2271D01*
X577Y2258D01*
X580Y2247D01*
X586Y2236D01*
X594Y2227D01*
X603Y2219D01*
X614Y2213D01*
X616Y2213D01*
Y2062D01*
X616Y2059D01*
Y2040D01*
X632D01*
X639Y2038D01*
X702D01*
X704Y2039D01*
X724D01*
Y2058D01*
X724Y2061D01*
X724Y2063D01*
Y2083D01*
X704D01*
X702Y2083D01*
X660D01*
Y2213D01*
X662Y2213D01*
X673Y2219D01*
X682Y2227D01*
X690Y2236D01*
X696Y2247D01*
X696Y2248D01*
X799D01*
X808Y2250D01*
X815Y2255D01*
Y2255D01*
X815D01*
D01*
D01*
D01*
D01*
D01*
D01*
X815D01*
D01*
X815D01*
Y2255D01*
D01*
D01*
D01*
D01*
Y2255D01*
D01*
D01*
D01*
D01*
D01*
D01*
Y2255D01*
D01*
D01*
X815D01*
D01*
D01*
D01*
X820Y2260D01*
X866D01*
X868Y2261D01*
X888D01*
Y2280D01*
X888Y2283D01*
X888Y2285D01*
Y2305D01*
X868D01*
X866Y2305D01*
X811D01*
X802Y2303D01*
X795Y2298D01*
X790Y2293D01*
X696D01*
X696Y2294D01*
X690Y2305D01*
X682Y2315D01*
X678Y2318D01*
X675Y2322D01*
X668Y2327D01*
X659Y2329D01*
X659Y2329D01*
X650Y2332D01*
X638Y2333D01*
D02*
G37*
G36*
X-366Y2044D02*
X-373Y2043D01*
X-379Y2039D01*
X-383Y2033D01*
X-384Y2026D01*
X-383Y2019D01*
X-379Y2013D01*
X-373Y2009D01*
X-366Y2007D01*
X-359Y2009D01*
X-353Y2013D01*
X-349Y2019D01*
X-348Y2026D01*
X-349Y2033D01*
X-353Y2039D01*
X-359Y2043D01*
X-366Y2044D01*
D02*
G37*
G36*
X10Y2042D02*
X-34D01*
Y1998D01*
X10D01*
Y2006D01*
X27D01*
X33Y2003D01*
X40Y2001D01*
X47Y2003D01*
X53Y2007D01*
X57Y2013D01*
X58Y2020D01*
X57Y2027D01*
X53Y2033D01*
X47Y2037D01*
X40Y2038D01*
X33Y2037D01*
X27Y2033D01*
X10D01*
Y2042D01*
D02*
G37*
G36*
X-58Y2104D02*
X-108D01*
Y2054D01*
X-86D01*
Y2042D01*
X-94D01*
Y1998D01*
X-50D01*
Y2042D01*
X-58D01*
Y2068D01*
X-58Y2068D01*
X-58Y2071D01*
Y2104D01*
D02*
G37*
G36*
X888Y2083D02*
X844D01*
Y2075D01*
X784D01*
Y2083D01*
X740D01*
Y2039D01*
X784D01*
Y2046D01*
X844D01*
Y2039D01*
X888D01*
Y2083D01*
D02*
G37*
G36*
X-80Y1328D02*
X-87Y1327D01*
X-93Y1323D01*
X-97Y1317D01*
X-98Y1310D01*
X-97Y1303D01*
X-93Y1297D01*
X-87Y1293D01*
X-80Y1291D01*
X-73Y1293D01*
X-67Y1297D01*
X-63Y1303D01*
X-62Y1310D01*
X-63Y1317D01*
X-67Y1323D01*
X-73Y1327D01*
X-80Y1328D01*
D02*
G37*
G36*
X-461Y2059D02*
X-505D01*
Y2051D01*
X-521D01*
Y2059D01*
X-565D01*
Y2015D01*
X-521D01*
Y2023D01*
X-505D01*
Y2015D01*
X-461D01*
Y2059D01*
D02*
G37*
%LPD*%
D10*
X-469Y1335D02*
D03*
Y1298D02*
D03*
X-369D02*
D03*
X-469Y1373D02*
D03*
X-369Y1335D02*
D03*
Y1373D02*
D03*
X44Y509D02*
D03*
Y547D02*
D03*
X144Y509D02*
D03*
X44Y584D02*
D03*
X144D02*
D03*
X190Y779D02*
D03*
X90D02*
D03*
X190Y704D02*
D03*
X90Y742D02*
D03*
Y704D02*
D03*
X798Y831D02*
D03*
X698D02*
D03*
X798Y756D02*
D03*
X698Y794D02*
D03*
Y756D02*
D03*
D11*
X748Y679D02*
D03*
X808D02*
D03*
X-483Y2229D02*
D03*
X-423D02*
D03*
X-647Y1097D02*
D03*
X-587D02*
D03*
X273Y2061D02*
D03*
X213D02*
D03*
X333D02*
D03*
X393D02*
D03*
X290Y1920D02*
D03*
X230D02*
D03*
X702Y2061D02*
D03*
X762D02*
D03*
X-856Y1143D02*
D03*
X-796D02*
D03*
X147Y1435D02*
D03*
X207D02*
D03*
X-102Y1430D02*
D03*
X-42D02*
D03*
X-117Y793D02*
D03*
X-57D02*
D03*
X-26Y1267D02*
D03*
X-86D02*
D03*
X701Y1938D02*
D03*
X761D02*
D03*
X-247Y2437D02*
D03*
X-187D02*
D03*
X-146Y872D02*
D03*
X-86D02*
D03*
X-18Y1211D02*
D03*
X42D02*
D03*
X321Y1143D02*
D03*
X381D02*
D03*
X321Y1255D02*
D03*
X381D02*
D03*
X442Y1293D02*
D03*
X502D02*
D03*
X560Y905D02*
D03*
X500D02*
D03*
X-857Y2079D02*
D03*
X-797D02*
D03*
X-543Y2097D02*
D03*
X-603D02*
D03*
X-857Y2018D02*
D03*
X-917D02*
D03*
X-25Y1157D02*
D03*
X-85D02*
D03*
X-299Y1376D02*
D03*
X-239D02*
D03*
X-580Y1278D02*
D03*
X-640D02*
D03*
X79Y645D02*
D03*
X19D02*
D03*
X550Y755D02*
D03*
X610D02*
D03*
X321Y1087D02*
D03*
X381D02*
D03*
X14Y843D02*
D03*
X74D02*
D03*
X-318Y2014D02*
D03*
X-258D02*
D03*
X610Y835D02*
D03*
X550D02*
D03*
X-72Y2020D02*
D03*
X-12D02*
D03*
X-677Y2079D02*
D03*
X-737D02*
D03*
X-492Y2338D02*
D03*
X-552D02*
D03*
X-85Y1097D02*
D03*
X-25D02*
D03*
X-57Y743D02*
D03*
X-117D02*
D03*
X-796Y1203D02*
D03*
X-856D02*
D03*
X-133Y2407D02*
D03*
X-73D02*
D03*
X207Y1331D02*
D03*
X147D02*
D03*
X93Y2061D02*
D03*
X153D02*
D03*
X-32Y2407D02*
D03*
X28D02*
D03*
X-700Y1279D02*
D03*
X-760D02*
D03*
X-492Y2407D02*
D03*
X-552D02*
D03*
X-338Y2275D02*
D03*
X-398D02*
D03*
X-253Y723D02*
D03*
X-313D02*
D03*
X207Y1382D02*
D03*
X147D02*
D03*
X-299Y1269D02*
D03*
X-239D02*
D03*
X-483Y2037D02*
D03*
X-423D02*
D03*
X-603D02*
D03*
X-543D02*
D03*
X-418Y1235D02*
D03*
X-478D02*
D03*
X381Y1199D02*
D03*
X321D02*
D03*
X147Y1280D02*
D03*
X207D02*
D03*
X87Y1267D02*
D03*
X27D02*
D03*
X-239Y1320D02*
D03*
X-299D02*
D03*
X-73Y2351D02*
D03*
X-133D02*
D03*
X-707Y2274D02*
D03*
X-647D02*
D03*
X-199Y2144D02*
D03*
X-139D02*
D03*
X-800Y2018D02*
D03*
X-740D02*
D03*
X341Y520D02*
D03*
X401D02*
D03*
X746Y617D02*
D03*
X806D02*
D03*
X155Y1790D02*
D03*
X95D02*
D03*
Y1985D02*
D03*
X155D02*
D03*
X21Y1963D02*
D03*
X-39D02*
D03*
X95Y1855D02*
D03*
X155D02*
D03*
X95Y1920D02*
D03*
X155D02*
D03*
X578Y2062D02*
D03*
X638D02*
D03*
X-313Y663D02*
D03*
X-253D02*
D03*
X710Y1015D02*
D03*
X650D02*
D03*
X238Y1499D02*
D03*
X298D02*
D03*
Y1550D02*
D03*
X238D02*
D03*
X522Y1639D02*
D03*
X462D02*
D03*
X-233Y1807D02*
D03*
X-173D02*
D03*
X-233Y1747D02*
D03*
X-173D02*
D03*
Y1687D02*
D03*
X-233D02*
D03*
Y1627D02*
D03*
X-173D02*
D03*
D12*
X148Y293D02*
D03*
Y233D02*
D03*
X-151Y293D02*
D03*
Y233D02*
D03*
X-251D02*
D03*
Y293D02*
D03*
X454Y2074D02*
D03*
Y2014D02*
D03*
X866Y2283D02*
D03*
Y2223D02*
D03*
X401Y2441D02*
D03*
Y2381D02*
D03*
X274Y1687D02*
D03*
Y1627D02*
D03*
X-419Y1058D02*
D03*
Y998D02*
D03*
X866Y2121D02*
D03*
Y2061D02*
D03*
X-193Y2297D02*
D03*
Y2237D02*
D03*
X-595Y2174D02*
D03*
Y2234D02*
D03*
X550Y1718D02*
D03*
Y1778D02*
D03*
X-809Y2213D02*
D03*
Y2153D02*
D03*
X-198Y2014D02*
D03*
Y2074D02*
D03*
X-575Y974D02*
D03*
Y1034D02*
D03*
X-419Y878D02*
D03*
Y938D02*
D03*
X245Y1820D02*
D03*
Y1760D02*
D03*
X902Y1319D02*
D03*
Y1259D02*
D03*
X260Y1443D02*
D03*
Y1383D02*
D03*
X24Y704D02*
D03*
Y764D02*
D03*
X-357Y966D02*
D03*
Y1026D02*
D03*
X-529Y597D02*
D03*
Y657D02*
D03*
X-211Y543D02*
D03*
Y603D02*
D03*
X261Y1220D02*
D03*
Y1160D02*
D03*
X-929Y2138D02*
D03*
Y2078D02*
D03*
X305Y1760D02*
D03*
Y1820D02*
D03*
X-535Y2174D02*
D03*
Y2234D02*
D03*
X-873Y1083D02*
D03*
Y1023D02*
D03*
X-419Y1118D02*
D03*
Y1178D02*
D03*
X-869Y2213D02*
D03*
Y2153D02*
D03*
X-529Y783D02*
D03*
Y723D02*
D03*
X579Y1641D02*
D03*
Y1581D02*
D03*
X-737Y1202D02*
D03*
Y1142D02*
D03*
X489Y1936D02*
D03*
Y1876D02*
D03*
X-522Y913D02*
D03*
Y853D02*
D03*
X-13Y2297D02*
D03*
Y2237D02*
D03*
X428Y1758D02*
D03*
Y1818D02*
D03*
X-522Y973D02*
D03*
Y1033D02*
D03*
X-589Y783D02*
D03*
Y723D02*
D03*
X-423Y2157D02*
D03*
Y2097D02*
D03*
X365Y1820D02*
D03*
Y1760D02*
D03*
X-73Y2297D02*
D03*
Y2237D02*
D03*
X-138Y2074D02*
D03*
Y2014D02*
D03*
X-471Y1058D02*
D03*
Y998D02*
D03*
X-133Y2237D02*
D03*
Y2297D02*
D03*
X549Y1936D02*
D03*
Y1876D02*
D03*
X-573Y913D02*
D03*
Y853D02*
D03*
X-470Y878D02*
D03*
Y938D02*
D03*
X489Y1757D02*
D03*
Y1817D02*
D03*
X595Y1085D02*
D03*
Y1145D02*
D03*
X-709Y712D02*
D03*
Y652D02*
D03*
X-51Y223D02*
D03*
Y283D02*
D03*
X683Y1404D02*
D03*
Y1464D02*
D03*
X734D02*
D03*
Y1404D02*
D03*
D13*
X-98Y1844D02*
D03*
Y1899D02*
D03*
Y1789D02*
D03*
X0Y1844D02*
D03*
Y1899D02*
D03*
Y1789D02*
D03*
D14*
X-811Y824D02*
D03*
X-681D02*
D03*
X655Y925D02*
D03*
X785D02*
D03*
X-23Y1347D02*
D03*
X-153D02*
D03*
D15*
X675Y1125D02*
D03*
X-665Y2176D02*
D03*
X535Y1022D02*
D03*
X-418Y2399D02*
D03*
X-686Y2376D02*
D03*
D16*
X755Y1162D02*
D03*
Y1087D02*
D03*
X-745Y2139D02*
D03*
Y2214D02*
D03*
X455Y1060D02*
D03*
Y985D02*
D03*
X-338Y2361D02*
D03*
Y2436D02*
D03*
X-606Y2338D02*
D03*
Y2413D02*
D03*
D17*
X388Y1434D02*
D03*
X488D02*
D03*
D18*
X-86Y1182D02*
D03*
Y1240D02*
D03*
D19*
X-475Y1127D02*
D03*
X-514D02*
D03*
X-495Y1178D02*
D03*
X369Y1613D02*
D03*
X389Y1664D02*
D03*
X350D02*
D03*
D20*
X88Y2145D02*
D03*
X308Y2245D02*
D03*
Y2145D02*
D03*
Y2195D02*
D03*
Y2295D02*
D03*
X88Y2195D02*
D03*
Y2245D02*
D03*
Y2295D02*
D03*
D21*
X115Y2379D02*
D03*
X302Y2404D02*
D03*
Y2430D02*
D03*
Y2379D02*
D03*
X115Y2456D02*
D03*
Y2430D02*
D03*
X302Y2456D02*
D03*
X115Y2404D02*
D03*
D22*
X732Y1677D02*
D03*
D23*
X649Y1696D02*
D03*
Y1746D02*
D03*
X648Y1795D02*
D03*
X811Y1796D02*
D03*
Y1746D02*
D03*
D24*
X732Y1819D02*
D03*
D25*
X806Y1696D02*
D03*
D26*
X-888Y2437D02*
D03*
X-788D02*
D03*
X-838D02*
D03*
X-788Y2297D02*
D03*
X-838D02*
D03*
D27*
X-888Y2317D02*
D03*
D28*
X-98Y1491D02*
D03*
X-98Y1645D02*
D03*
Y1670D02*
D03*
Y1696D02*
D03*
Y1721D02*
D03*
X162D02*
D03*
Y1670D02*
D03*
Y1645D02*
D03*
Y1619D02*
D03*
Y1593D02*
D03*
Y1568D02*
D03*
Y1542D02*
D03*
Y1517D02*
D03*
Y1491D02*
D03*
X-98Y1619D02*
D03*
Y1542D02*
D03*
Y1568D02*
D03*
Y1593D02*
D03*
Y1517D02*
D03*
X162Y1696D02*
D03*
D29*
X193Y1230D02*
D03*
X142D02*
D03*
Y1144D02*
D03*
D30*
X187D02*
D03*
D31*
X657Y1324D02*
D03*
Y1246D02*
D03*
X779Y1285D02*
D03*
D32*
X-797Y1767D02*
D03*
D33*
X-214Y1539D02*
D03*
X-324D02*
D03*
X-269D02*
D03*
X-214Y1441D02*
D03*
X-324D02*
D03*
X-269D02*
D03*
D34*
X54Y1059D02*
D03*
Y929D02*
D03*
X793Y1423D02*
D03*
Y1553D02*
D03*
D35*
X-136Y1022D02*
D03*
X-61D02*
D03*
X-384Y657D02*
D03*
X-459D02*
D03*
X-459Y728D02*
D03*
X-384D02*
D03*
X-344Y2084D02*
D03*
X-269D02*
D03*
X-83Y2079D02*
D03*
X-8D02*
D03*
D36*
X-99Y942D02*
D03*
X-422Y577D02*
D03*
X-421Y808D02*
D03*
X-306Y2164D02*
D03*
X-45Y2159D02*
D03*
D37*
X-216Y1105D02*
D03*
X-670Y923D02*
D03*
D38*
X-196Y1155D02*
D03*
Y1205D02*
D03*
X-336Y1155D02*
D03*
Y1205D02*
D03*
Y1105D02*
D03*
X-650Y973D02*
D03*
Y1023D02*
D03*
X-790Y973D02*
D03*
Y1023D02*
D03*
Y923D02*
D03*
D39*
X-90Y556D02*
D03*
X-130Y678D02*
D03*
X-51D02*
D03*
D40*
X-235Y820D02*
D03*
X-286Y1007D02*
D03*
X-261Y820D02*
D03*
X-286D02*
D03*
X-210Y1007D02*
D03*
X-261D02*
D03*
X-235D02*
D03*
X-210Y820D02*
D03*
D41*
X-268Y2257D02*
D03*
Y2347D02*
D03*
X575Y1502D02*
D03*
Y1412D02*
D03*
D42*
X-51Y283D02*
X-24D01*
X-14Y273D01*
X83D01*
X-51Y137D02*
Y223D01*
X148Y233D02*
X149Y232D01*
Y137D02*
Y232D01*
X148Y293D02*
Y319D01*
X159Y330D01*
X198D01*
X-19Y347D02*
X-2Y330D01*
X-197Y347D02*
X-19D01*
X-251Y293D02*
X-197Y347D01*
X68Y300D02*
X98Y330D01*
X-9Y300D02*
X68D01*
X-37Y328D02*
X-9Y300D01*
X-116Y328D02*
X-37D01*
X-151Y293D02*
X-116Y328D01*
X-151Y137D02*
Y233D01*
X-251Y137D02*
Y233D01*
X-685Y1855D02*
Y1815D01*
X-658Y1855D02*
Y1815D01*
X-685Y1836D02*
X-658D01*
X-617Y1815D02*
X-632Y1855D01*
X-647Y1815D01*
X-642Y1828D02*
X-623D01*
X-608Y1855D02*
Y1815D01*
Y1855D02*
X-581Y1815D01*
Y1855D02*
Y1815D01*
X-570Y1855D02*
Y1815D01*
Y1855D02*
X-556D01*
X-551Y1853D01*
X-547Y1849D01*
X-545Y1845D01*
X-543Y1840D01*
Y1830D01*
X-545Y1824D01*
X-547Y1821D01*
X-551Y1817D01*
X-556Y1815D01*
X-570D01*
X-534Y1855D02*
Y1815D01*
X-508Y1855D02*
Y1815D01*
X-534Y1836D02*
X-508D01*
X-472Y1855D02*
X-497D01*
Y1815D01*
X-472D01*
X-497Y1836D02*
X-481D01*
X-465Y1855D02*
Y1815D01*
X-442D01*
X-438Y1855D02*
Y1815D01*
Y1855D02*
X-425D01*
X-419Y1853D01*
X-415Y1849D01*
X-413Y1845D01*
X-411Y1840D01*
Y1830D01*
X-413Y1824D01*
X-415Y1821D01*
X-419Y1817D01*
X-425Y1815D01*
X-438D01*
X-657Y1796D02*
Y1756D01*
Y1796D02*
X-640D01*
X-635Y1794D01*
X-633Y1792D01*
X-631Y1788D01*
Y1784D01*
X-633Y1781D01*
X-635Y1779D01*
X-640Y1777D01*
X-657D01*
X-644D02*
X-631Y1756D01*
X-597Y1796D02*
X-622D01*
Y1756D01*
X-597D01*
X-622Y1777D02*
X-607D01*
X-560Y1756D02*
X-575Y1796D01*
X-590Y1756D01*
X-585Y1769D02*
X-566D01*
X-551Y1796D02*
Y1756D01*
Y1796D02*
X-537D01*
X-532Y1794D01*
X-528Y1790D01*
X-526Y1786D01*
X-524Y1781D01*
Y1771D01*
X-526Y1765D01*
X-528Y1762D01*
X-532Y1758D01*
X-537Y1756D01*
X-551D01*
X-490Y1796D02*
X-515D01*
Y1756D01*
X-490D01*
X-515Y1777D02*
X-500D01*
X-484Y1796D02*
Y1756D01*
Y1796D02*
X-466D01*
X-461Y1794D01*
X-459Y1792D01*
X-457Y1788D01*
Y1784D01*
X-459Y1781D01*
X-461Y1779D01*
X-466Y1777D01*
X-484D01*
X-470D02*
X-457Y1756D01*
X-634Y1733D02*
Y1693D01*
Y1733D02*
X-617D01*
X-611Y1731D01*
X-609Y1729D01*
X-607Y1725D01*
Y1721D01*
X-609Y1718D01*
X-611Y1716D01*
X-617Y1714D01*
X-634D01*
X-621D02*
X-607Y1693D01*
X-573Y1733D02*
X-598D01*
Y1693D01*
X-573D01*
X-598Y1714D02*
X-583D01*
X-567Y1733D02*
X-552Y1693D01*
X-536Y1733D02*
X-552Y1693D01*
X-500Y1725D02*
X-496Y1727D01*
X-490Y1733D01*
Y1693D01*
X-1115Y-1372D02*
Y-1412D01*
X-1117Y-1420D01*
X-1120Y-1422D01*
X-1125Y-1425D01*
X-1130D01*
X-1135Y-1422D01*
X-1137Y-1420D01*
X-1140Y-1412D01*
Y-1407D01*
X-1063Y-1384D02*
X-1065Y-1379D01*
X-1070Y-1374D01*
X-1076Y-1372D01*
X-1086D01*
X-1091Y-1374D01*
X-1096Y-1379D01*
X-1098Y-1384D01*
X-1101Y-1392D01*
Y-1405D01*
X-1098Y-1412D01*
X-1096Y-1417D01*
X-1091Y-1422D01*
X-1086Y-1425D01*
X-1076D01*
X-1070Y-1422D01*
X-1065Y-1417D01*
X-1063Y-1412D01*
X-1048Y-1372D02*
Y-1425D01*
Y-1372D02*
X-1028Y-1425D01*
X-1007Y-1372D02*
X-1028Y-1425D01*
X-1007Y-1372D02*
Y-1425D01*
X-992Y-1372D02*
Y-1425D01*
X-981Y-1372D02*
Y-1425D01*
X220Y-1184D02*
Y-1264D01*
Y-1184D02*
X254D01*
X266Y-1188D01*
X270Y-1192D01*
X273Y-1200D01*
Y-1207D01*
X270Y-1215D01*
X266Y-1219D01*
X254Y-1222D01*
X220D01*
X247D02*
X273Y-1264D01*
X341Y-1184D02*
X291D01*
Y-1264D01*
X341D01*
X291Y-1222D02*
X322D01*
X415Y-1264D02*
X385Y-1184D01*
X354Y-1264D01*
X365Y-1238D02*
X404D01*
X434Y-1184D02*
Y-1264D01*
Y-1184D02*
X460D01*
X472Y-1188D01*
X479Y-1196D01*
X483Y-1203D01*
X487Y-1215D01*
Y-1234D01*
X483Y-1245D01*
X479Y-1253D01*
X472Y-1261D01*
X460Y-1264D01*
X434D01*
X554Y-1184D02*
X505D01*
Y-1264D01*
X554D01*
X505Y-1222D02*
X535D01*
X568Y-1184D02*
Y-1264D01*
Y-1184D02*
X602D01*
X613Y-1188D01*
X617Y-1192D01*
X621Y-1200D01*
Y-1207D01*
X617Y-1215D01*
X613Y-1219D01*
X602Y-1222D01*
X568D01*
X594D02*
X621Y-1264D01*
D43*
X635Y1828D02*
X641D01*
X617D02*
X635D01*
X648Y1795D02*
Y1821D01*
X641Y1828D02*
X648Y1821D01*
X193Y1230D02*
X210Y1214D01*
X255D01*
X261Y1220D01*
X-826Y1240D02*
X-812D01*
X-834D02*
X-812D01*
X-850Y1256D02*
X-834Y1240D01*
X-505Y1298D02*
X-469D01*
X-668Y1097D02*
X-647D01*
X-677D02*
X-668D01*
X-796Y1203D02*
X-689Y1097D01*
X-668D01*
X-650Y889D02*
Y921D01*
X-790Y889D02*
X-650D01*
X492Y2102D02*
X533Y2062D01*
X578D01*
X485Y2109D02*
X492Y2102D01*
X350Y2245D02*
X485Y2109D01*
X393Y2004D02*
Y2061D01*
X441Y2006D02*
X453Y2018D01*
X395Y2006D02*
X441D01*
X240Y606D02*
Y763D01*
X695Y617D02*
X746D01*
X834Y831D02*
X850Y815D01*
Y591D02*
Y815D01*
X831Y571D02*
X850Y591D01*
X698Y571D02*
X831D01*
X-469Y504D02*
X-159D01*
X-137D02*
X-50Y417D01*
X-159Y504D02*
X-137D01*
X902Y1206D02*
Y1259D01*
X115Y2430D02*
X187D01*
X256Y2456D02*
X302D01*
X238Y2438D02*
X256Y2456D01*
X213Y2375D02*
X238Y2401D01*
Y2438D01*
X213Y2346D02*
Y2375D01*
X478Y2186D02*
X493Y2171D01*
X369Y2295D02*
X478Y2186D01*
X493Y2171D02*
X538D01*
X481Y2386D02*
X496Y2371D01*
X426Y2441D02*
X481Y2386D01*
X496Y2371D02*
X538D01*
X820Y2121D02*
X866D01*
X788D02*
X820D01*
X738Y2186D02*
X755D01*
X738Y2171D02*
X788Y2121D01*
X-917Y1876D02*
X-861Y1933D01*
X902Y1408D02*
X937Y1443D01*
X902Y1319D02*
Y1408D01*
X812Y1319D02*
X902D01*
X779Y1285D02*
X812Y1319D01*
X811Y2469D02*
X933Y2346D01*
X457Y2469D02*
X811D01*
X933Y2024D02*
Y2346D01*
X866Y2196D02*
Y2223D01*
X856Y2186D02*
X866Y2196D01*
X755Y2186D02*
X856D01*
X-73Y2237D02*
Y2237D01*
X-42Y2268D01*
X-193Y2296D02*
Y2297D01*
X550Y755D02*
X551Y754D01*
X-398Y2275D02*
X-398Y2275D01*
Y2327D01*
X-386Y2358D02*
X-374Y2370D01*
X228Y775D02*
X235Y768D01*
X240Y763D01*
X224Y779D02*
X235Y768D01*
X190Y779D02*
X224D01*
X218Y584D02*
X240Y606D01*
X144Y584D02*
X218D01*
X102Y1115D02*
X118Y1098D01*
X236D02*
X262Y1124D01*
X84Y887D02*
X284Y1087D01*
X321D01*
X780Y1285D02*
X850Y1215D01*
Y847D02*
Y1215D01*
X834Y831D02*
X850Y847D01*
X798Y831D02*
X834D01*
X492Y1718D02*
X550D01*
X483D02*
X492D01*
X470D02*
X483D01*
X416Y1664D02*
X470Y1718D01*
X389Y1664D02*
X416D01*
X389Y1719D02*
X428Y1758D01*
X389Y1664D02*
Y1719D01*
X428Y1818D02*
Y1845D01*
X459Y1876D01*
X489D01*
X-138Y1965D02*
Y2014D01*
X-197Y1965D02*
Y2013D01*
X-275Y1905D02*
Y1957D01*
X-258Y1975D01*
Y2014D01*
X-247Y2428D02*
Y2437D01*
Y2428D02*
X-213Y2394D01*
Y2382D02*
Y2394D01*
X-764Y2437D02*
X-740Y2413D01*
X-788Y2437D02*
X-764D01*
X886Y1976D02*
X933Y2024D01*
X290Y1920D02*
X339D01*
X353Y1906D01*
X395D01*
X154Y2181D02*
X193Y2142D01*
X178Y2104D02*
X242D01*
X273Y2074D01*
X138Y2145D02*
X178Y2104D01*
X88Y2145D02*
X138D01*
X185Y2319D02*
X213Y2346D01*
X185Y2232D02*
Y2319D01*
X254Y2333D02*
Y2364D01*
X269Y2379D01*
X217Y2295D02*
X254Y2333D01*
X217Y2173D02*
Y2295D01*
X154Y2343D02*
X169Y2358D01*
Y2394D01*
X154Y2181D02*
Y2343D01*
X-423Y2157D02*
X-306D01*
Y2164D02*
Y2191D01*
X-268Y2229D01*
Y2257D01*
X445Y2480D02*
X457Y2469D01*
X358Y2480D02*
X445D01*
X334Y2456D02*
X358Y2480D01*
X302Y2456D02*
X334D01*
X401Y2441D02*
X426D01*
X308Y2245D02*
X350D01*
X449Y1976D02*
X886D01*
X937Y1925D01*
X456Y1936D02*
X489D01*
X445Y1925D02*
X456Y1936D01*
X937Y1443D02*
Y1925D01*
X433Y1961D02*
X449Y1976D01*
X362Y1961D02*
X433D01*
X213Y2031D02*
Y2061D01*
X762Y2061D02*
X864D01*
X115Y2343D02*
Y2379D01*
X31Y2331D02*
Y2366D01*
X28Y2370D02*
X31Y2366D01*
X28Y2370D02*
Y2407D01*
X31Y2306D02*
Y2331D01*
Y2306D02*
X43Y2295D01*
X93Y2061D02*
X94Y2062D01*
Y2102D01*
X159Y2404D02*
X169Y2394D01*
X115Y2404D02*
X159D01*
X43Y2245D02*
X88D01*
X28Y2260D02*
X43Y2245D01*
X28Y2260D02*
Y2280D01*
X43Y2295D01*
X88D01*
X-280Y2402D02*
X-268Y2390D01*
Y2347D02*
Y2390D01*
X-338Y2437D02*
X-247D01*
X-902Y1976D02*
X-839D01*
X-917Y1992D02*
X-902Y1976D01*
X-917Y1992D02*
Y2018D01*
X-929Y2138D02*
X-910D01*
X-890Y2118D01*
X-839D01*
X-814Y755D02*
X-697D01*
X202Y521D02*
X249D01*
X190Y509D02*
X202Y521D01*
X144Y509D02*
X190D01*
X249Y521D02*
X340D01*
X806Y617D02*
X808Y618D01*
Y679D01*
X-496Y531D02*
X-469Y504D01*
X-709Y652D02*
X-632D01*
X-606Y626D01*
Y575D02*
Y626D01*
Y575D02*
X-563Y531D01*
X-496D01*
X-484Y559D02*
X-457Y532D01*
X-576Y587D02*
X-549Y559D01*
X-576Y587D02*
Y641D01*
X-549Y559D02*
X-484D01*
X-457Y532D02*
X-299D01*
X-709Y712D02*
X-708Y713D01*
X-665D01*
X-681Y772D02*
X-664Y755D01*
X-649D01*
X-630Y736D01*
Y695D02*
Y736D01*
X-917Y2017D02*
X-917Y2018D01*
X-740D02*
X-738Y2020D01*
X-697D01*
X-602Y2097D02*
Y2134D01*
X-929Y2138D02*
Y2213D01*
X-870D01*
X-787Y2297D02*
Y2354D01*
X-425Y2407D02*
X-418Y2399D01*
X-492Y2407D02*
X-425D01*
X800Y830D02*
X805D01*
X274Y1687D02*
X297Y1664D01*
X-13Y1367D02*
X62D01*
X65Y1370D01*
Y1385D01*
X107Y1427D01*
X325Y1613D02*
X369D01*
X732Y1626D02*
X735Y1623D01*
X732Y1626D02*
Y1650D01*
X735Y1623D02*
X770D01*
X-107Y1721D02*
X-98D01*
X-98Y1789D02*
X-78D01*
X489Y1817D02*
X491Y1819D01*
X528D01*
X489Y1876D02*
X549D01*
X489Y1757D02*
X510Y1778D01*
X550D01*
X683Y1404D02*
X734D01*
X-419Y878D02*
X-374D01*
X0Y1745D02*
Y1789D01*
X-30Y1671D02*
Y1741D01*
X-78Y1789D02*
X-30Y1741D01*
X-334Y1373D02*
X-324Y1363D01*
X-369Y1373D02*
X-334D01*
X297Y1664D02*
X350D01*
X381Y1427D02*
X388Y1434D01*
X488D02*
X541D01*
X563Y1412D01*
X488Y1345D02*
Y1434D01*
Y1345D02*
X502Y1332D01*
Y1293D02*
Y1332D01*
X-336Y1205D02*
Y1235D01*
X-216Y1071D02*
Y1105D01*
X-196Y1155D02*
X-87D01*
X-56Y1645D02*
X-30Y1671D01*
X-98Y1645D02*
X-56D01*
X-650Y973D02*
X-573D01*
X-86Y1267D02*
X-85Y1266D01*
Y1241D02*
Y1266D01*
X298Y1586D02*
X325Y1613D01*
X298Y1550D02*
Y1586D01*
X311Y1627D02*
X325Y1613D01*
X274Y1627D02*
X311D01*
X761Y1938D02*
X814D01*
X801Y1552D02*
X811D01*
X622Y1553D02*
X656D01*
X613Y1562D02*
X622Y1553D01*
X681Y1584D02*
X683Y1586D01*
X801Y1546D02*
Y1552D01*
Y1546D02*
X803Y1544D01*
X731Y1526D02*
X749Y1544D01*
X683Y1526D02*
X731D01*
X734Y1523D01*
Y1464D02*
Y1523D01*
X800Y1423D02*
Y1473D01*
Y1423D02*
X801Y1422D01*
X-98Y1619D02*
X-35Y1619D01*
X-98Y1593D02*
X-55D01*
X-135Y1430D02*
X-102D01*
X-153Y1412D02*
X-135Y1430D01*
X-98Y1517D02*
X-53D01*
X-42Y1506D01*
Y1430D02*
Y1506D01*
X-130Y1670D02*
X-98D01*
X442Y1257D02*
Y1293D01*
X321Y1087D02*
Y1143D01*
X381Y1087D02*
X414D01*
X-475Y1127D02*
X-472Y1124D01*
X-425D01*
X-419Y1118D01*
X-796Y1203D02*
X-796Y1203D01*
X-797Y1142D02*
X-796Y1143D01*
X-419Y1058D02*
Y1118D01*
X-475Y1062D02*
Y1127D01*
X-419Y938D02*
Y998D01*
X-464Y723D02*
X-459Y728D01*
X-589Y783D02*
X-587Y785D01*
X-575Y1034D02*
X-525D01*
X-519Y1122D02*
X-514Y1127D01*
X-519Y1034D02*
Y1122D01*
X-873Y1104D02*
X-856Y1121D01*
X-523Y913D02*
Y973D01*
X-573Y913D02*
X-523D01*
X-470Y827D02*
Y878D01*
X-451Y808D02*
X-421D01*
X-470Y827D02*
X-451Y808D01*
X162Y1619D02*
X209D01*
X120Y1670D02*
X162D01*
X107Y1657D02*
X120Y1670D01*
X107Y1607D02*
Y1657D01*
Y1607D02*
X120Y1593D01*
X162D01*
X107Y1580D02*
X120Y1593D01*
X107Y1427D02*
Y1580D01*
X-150Y1345D02*
X-110D01*
X-23Y1347D02*
Y1357D01*
X-13Y1367D01*
X-133Y1267D02*
X-86D01*
X-26D02*
Y1344D01*
X-23Y1347D01*
X-26Y1267D02*
X27D01*
X-19Y1212D02*
X-18Y1211D01*
X-63Y1212D02*
X-19D01*
X42Y1211D02*
X87Y1256D01*
X261Y1160D02*
X262Y1159D01*
X191Y1136D02*
X226D01*
X193Y1221D02*
X194Y1220D01*
X142Y1276D02*
X147Y1280D01*
X193Y1254D02*
X202Y1262D01*
Y1275D01*
X207Y1280D01*
X204D02*
X207D01*
X153Y1331D02*
X204Y1280D01*
X147Y1331D02*
X153D01*
X162Y1477D02*
Y1491D01*
X147Y1462D02*
X162Y1477D01*
X147Y1435D02*
Y1462D01*
X219Y1550D02*
X238D01*
X201Y1568D02*
X219Y1550D01*
X162Y1568D02*
X201D01*
X-173Y1627D02*
X-173Y1627D01*
X683Y1464D02*
Y1487D01*
X-874Y983D02*
X-849Y958D01*
Y790D02*
Y958D01*
X-421Y795D02*
X-421Y796D01*
Y808D01*
X-320Y820D02*
X-286D01*
X-357Y966D02*
X-297D01*
X-286Y977D01*
X-273Y1064D02*
X-261Y1052D01*
X-296Y1064D02*
X-273D01*
X-327Y1033D02*
X-296Y1064D01*
X-350Y1033D02*
X-327D01*
X-357Y1026D02*
X-350Y1033D01*
X-261Y977D02*
X-248Y964D01*
X-235Y977D01*
X-99Y942D02*
X-62D01*
X-136Y991D02*
Y1022D01*
X-235Y977D02*
X-213Y955D01*
X-90Y876D02*
X-86Y872D01*
X-90Y876D02*
Y933D01*
X-99Y942D02*
X-90Y933D01*
X-261Y820D02*
Y863D01*
X-271Y873D02*
X-261Y863D01*
X-321Y873D02*
X-271D01*
X-356Y838D02*
X-321Y873D01*
X-356Y795D02*
Y838D01*
X-313Y723D02*
Y752D01*
X-356Y795D02*
X-313Y752D01*
X-681Y824D02*
X-594D01*
X-573Y846D01*
Y852D01*
X-811Y869D02*
X-790Y889D01*
X-811Y824D02*
Y869D01*
X-849Y790D02*
X-814Y755D01*
X-697D02*
X-681Y772D01*
Y824D01*
X-213Y955D02*
X-172D01*
X-231Y938D02*
X-210Y916D01*
X-269Y938D02*
X-231D01*
X-297Y966D02*
X-269Y938D01*
X-628Y783D02*
X-589D01*
X-589Y783D01*
X-61Y1022D02*
X-27Y988D01*
X-560Y657D02*
X-529D01*
X-576Y641D02*
X-560Y657D01*
X-630Y695D02*
X-576Y641D01*
X262Y1124D02*
Y1159D01*
X-299Y532D02*
X-289Y543D01*
X-253Y723D02*
X-196D01*
X-178Y741D02*
Y809D01*
X-152Y835D01*
X-196Y723D02*
X-178Y741D01*
X-137Y743D02*
X-117D01*
X-189Y691D02*
X-137Y743D01*
X-209Y691D02*
X-189D01*
X-209Y657D02*
Y691D01*
X-257Y609D02*
X-209Y657D01*
X-289Y543D02*
X-271D01*
X-257Y556D02*
X-244Y543D01*
X-271D02*
X-257Y556D01*
Y609D01*
X-152Y793D02*
X-117D01*
X-142Y666D02*
X-130Y678D01*
X-171Y666D02*
X-142D01*
X-11Y764D02*
X24D01*
X46Y742D02*
X90D01*
X24Y764D02*
X46Y742D01*
X74Y780D02*
Y843D01*
Y780D02*
X75Y779D01*
X90D01*
X24Y704D02*
X90D01*
X24Y650D02*
Y704D01*
X19Y645D02*
X24Y650D01*
X-55Y853D02*
Y905D01*
X-27Y933D01*
X-73Y835D02*
X-55Y853D01*
X-152Y835D02*
X-73D01*
X-27Y933D02*
Y988D01*
X-57Y816D02*
X-30Y843D01*
Y897D01*
X2Y929D01*
X54D01*
X-211Y603D02*
X-74D01*
X-51Y625D01*
Y678D01*
X-43Y509D02*
X44D01*
X-90Y556D02*
X-43Y509D01*
X-10Y547D02*
X44D01*
X58Y624D02*
X79Y645D01*
X44Y584D02*
X58D01*
X190Y667D02*
Y704D01*
X168Y645D02*
X190Y667D01*
X79Y645D02*
X168D01*
X54Y929D02*
Y967D01*
X102Y1015D01*
X110Y1230D02*
X110Y1230D01*
X14Y843D02*
Y869D01*
X32Y887D01*
X316Y1082D02*
X321Y1087D01*
X-167Y543D02*
X-166Y543D01*
X162Y1517D02*
X200D01*
X218Y1499D01*
X238D01*
X298D02*
X332D01*
X260Y1443D02*
Y1477D01*
X238Y1499D02*
X260Y1477D01*
Y1383D02*
X334D01*
X162Y1645D02*
X209D01*
X793Y1553D02*
X869D01*
X558Y1938D02*
X701D01*
X731Y1908D01*
X860D01*
X905Y1588D02*
Y1863D01*
X869Y1553D02*
X905Y1588D01*
X860Y1908D02*
X905Y1863D01*
X582Y1746D02*
X635D01*
X550Y1778D02*
X582Y1746D01*
X-580Y1278D02*
X-524Y1335D01*
X-469D01*
X-196Y1205D02*
X-165D01*
X-153Y1217D01*
X-190Y1245D02*
Y1327D01*
X-200Y1235D02*
X-190Y1245D01*
X-239Y1376D02*
X-190Y1327D01*
X-369Y1298D02*
X-322D01*
X-299Y1321D01*
X-291Y1269D02*
X-239Y1321D01*
X-246Y1269D02*
X-239D01*
X-310Y1205D02*
X-246Y1269D01*
X-336Y1205D02*
X-310D01*
X-375Y1235D02*
X-341Y1269D01*
X-418Y1235D02*
X-375D01*
X-290Y1155D02*
X-240Y1205D01*
Y1225D01*
X-230Y1235D01*
X-336Y1155D02*
X-290D01*
X-230Y1235D02*
X-200D01*
X-137Y1751D02*
X-107Y1721D01*
X305Y1746D02*
Y1760D01*
X274Y1715D02*
X305Y1746D01*
X274Y1687D02*
Y1715D01*
X305Y1760D02*
X365D01*
X238Y1648D02*
Y1753D01*
X245Y1760D01*
X-155Y1879D02*
X-120Y1844D01*
X-171Y1879D02*
X-155D01*
X162Y1696D02*
X197D01*
X208Y1707D01*
Y1898D01*
X230Y1920D01*
X155Y1728D02*
X162Y1721D01*
X245Y1820D02*
Y1866D01*
X305Y1820D02*
Y1866D01*
X365Y1820D02*
Y1866D01*
X54Y1776D02*
X68Y1790D01*
X95D01*
X-87Y1965D02*
X-40D01*
X732Y1827D02*
Y1859D01*
X713Y1878D02*
X732Y1859D01*
X690Y1878D02*
X713D01*
X698Y729D02*
Y756D01*
Y729D02*
X748Y679D01*
X798Y756D02*
X808Y746D01*
X611Y756D02*
X698D01*
X610Y755D02*
X611Y756D01*
X614Y831D02*
X698D01*
X610Y835D02*
X614Y831D01*
X535Y970D02*
Y1022D01*
X500Y935D02*
X535Y970D01*
X500Y905D02*
Y935D01*
X550Y835D02*
Y895D01*
X655Y1145D02*
X675Y1125D01*
X455Y1160D02*
X540Y1245D01*
Y1290D01*
X650Y1015D02*
X655Y1010D01*
X755Y1060D02*
X790Y1025D01*
X490Y1100D02*
X535Y1145D01*
X490Y960D02*
Y1100D01*
X470Y940D02*
X490Y960D01*
X385Y940D02*
X470D01*
X355Y970D02*
X385Y940D01*
X748Y1162D02*
X755D01*
X720Y1190D02*
X748Y1162D01*
X595Y1190D02*
X720D01*
X540Y1245D02*
X595Y1190D01*
X683Y1404D02*
X685Y1403D01*
X563Y1412D02*
X575D01*
X620Y1370D02*
Y1457D01*
X540Y1290D02*
X620Y1370D01*
X734Y1330D02*
Y1404D01*
Y1330D02*
X779Y1285D01*
X780D01*
X657Y1324D02*
Y1363D01*
X645Y1375D02*
X657Y1363D01*
X645Y1375D02*
Y1512D01*
X661Y1528D01*
X95Y1855D02*
Y1920D01*
Y1985D01*
X155Y1728D02*
Y1790D01*
Y1855D01*
Y1920D01*
Y1985D01*
X-299Y1269D02*
X-291D01*
X-341D02*
X-299D01*
X-304Y1274D02*
X-299Y1269D01*
X808Y679D02*
Y746D01*
X-163Y964D02*
X-136Y991D01*
X-172Y955D02*
X-163Y964D01*
X-235Y977D02*
Y1007D01*
Y1017D01*
X-261Y977D02*
Y1007D01*
Y1052D01*
X-856Y1121D02*
Y1143D01*
Y1203D01*
X-529Y723D02*
X-464D01*
X-589D02*
X-529D01*
X-470Y938D02*
X-419D01*
X-479D02*
X-470D01*
X-471Y1058D02*
X-419D01*
X-479D02*
X-471D01*
X-479D02*
X-475Y1062D01*
X-421Y795D02*
X-356D01*
X-421D02*
X-421D01*
X-57Y743D02*
Y793D01*
Y816D01*
X87Y1256D02*
Y1267D01*
Y1322D01*
X-211Y543D02*
X-167D01*
X-244D02*
X-211D01*
X91Y584D02*
X144D01*
X-210Y755D02*
Y820D01*
Y916D01*
X-286Y977D02*
Y1007D01*
Y1017D01*
X793Y1544D02*
X803D01*
X661Y1528D02*
X682D01*
X683Y1526D01*
X656Y1553D02*
X682Y1528D01*
X193Y1221D02*
Y1230D01*
Y1254D01*
X207Y1331D02*
Y1382D01*
Y1435D01*
X755Y1060D02*
Y1087D01*
Y1162D01*
X455Y985D02*
Y1060D01*
Y1160D01*
X575Y1502D02*
X620Y1457D01*
X209Y1645D02*
X222Y1632D01*
X238Y1648D01*
X209Y1619D02*
X222Y1632D01*
X560Y905D02*
X590Y935D01*
X550Y895D02*
X560Y905D01*
X655Y935D02*
X660D01*
X590D02*
X655D01*
Y925D02*
Y935D01*
Y1010D01*
X381Y1143D02*
Y1199D01*
Y1255D01*
Y1427D01*
Y1434D02*
Y1437D01*
X-85Y1097D02*
Y1157D01*
Y1183D01*
X-87Y1155D02*
X-85Y1157D01*
X58Y584D02*
Y624D01*
X-383Y729D02*
X-383Y729D01*
X-384Y728D02*
X-383Y729D01*
Y764D01*
X-670Y923D02*
X-650D01*
X-790Y889D02*
Y948D01*
Y971D01*
X321Y1199D02*
Y1255D01*
X110Y1230D02*
X142D01*
Y1218D02*
Y1230D01*
Y1276D01*
X831Y1696D02*
Y1746D01*
Y1796D01*
Y1865D01*
X-153Y1287D02*
X-133Y1267D01*
X-790Y1023D02*
X-650D01*
X-797D02*
Y1142D01*
X-153Y1217D02*
Y1287D01*
Y1347D01*
Y1412D01*
X-98Y1844D02*
X0D01*
X-120D02*
X-98D01*
X-269Y1429D02*
Y1441D01*
Y1488D01*
Y1528D01*
X-233Y1591D02*
Y1627D01*
Y1687D01*
Y1747D01*
Y1807D01*
X-299Y1363D02*
X-299D01*
X-324D02*
X-299D01*
X595Y1145D02*
X655D01*
X535D02*
X595D01*
X-888Y2317D02*
Y2437D01*
X-838D01*
X-788D01*
X-838Y2242D02*
Y2297D01*
Y2242D02*
X-809Y2213D01*
X-888Y2262D02*
Y2317D01*
X-869Y2213D02*
Y2243D01*
X-888Y2262D02*
X-869Y2243D01*
Y2153D02*
X-809D01*
X-748Y2214D01*
X-745D02*
X-707D01*
X-748D02*
X-745D01*
X-707D02*
X-647Y2274D01*
X-707D02*
X-686Y2295D01*
Y2376D01*
X-929Y2078D02*
X-857D01*
Y2018D02*
Y2078D01*
X-800Y2018D02*
Y2076D01*
X-740D01*
Y2134D01*
X-745Y2139D02*
X-740Y2134D01*
X-663Y2037D02*
X-603D01*
X-677Y2051D02*
X-663Y2037D01*
X-677Y2164D02*
X-665Y2176D01*
Y2209D01*
X-640Y2234D01*
X-595D01*
X-677Y2051D02*
Y2079D01*
Y2164D01*
X-595Y2174D02*
X-535D01*
Y2105D02*
Y2174D01*
X-543Y2097D02*
X-535Y2105D01*
X-543Y2037D02*
X-483D01*
X-606Y2338D02*
X-552D01*
X-606Y2413D02*
X-600Y2407D01*
X-492Y2338D02*
Y2407D01*
X-248Y2237D02*
X-193D01*
X-133D01*
X-73Y2407D02*
X-32D01*
X-133Y2298D02*
Y2351D01*
Y2407D01*
X-73Y2298D02*
Y2351D01*
X-139Y2144D02*
X-60D01*
X-45Y2159D01*
X-199Y2075D02*
Y2144D01*
X-269Y2084D02*
X-259Y2074D01*
X-198D01*
X-138D01*
X-375Y2084D02*
X-344D01*
X-388Y2097D02*
X-375Y2084D01*
X-423Y2097D02*
X-388D01*
X-423Y2037D02*
Y2097D01*
X-318Y2014D02*
Y2034D01*
X-344Y2060D02*
X-318Y2034D01*
X-344Y2060D02*
Y2084D01*
X21Y1963D02*
X49D01*
X72Y1985D01*
X95D01*
X-72Y2020D02*
Y2068D01*
X-83Y2079D02*
X-72Y2068D01*
X308Y2295D02*
X369D01*
X262Y2195D02*
X308D01*
X244Y2213D02*
X262Y2195D01*
X244Y2213D02*
Y2276D01*
X263Y2295D01*
X308D01*
X269Y2379D02*
X302D01*
X217Y2173D02*
X245Y2145D01*
X308D01*
X302Y2430D02*
X351D01*
X362Y2441D01*
X401D01*
X153Y2061D02*
X213D01*
X273D02*
X333D01*
Y2093D01*
X343Y2102D01*
X445D01*
X453Y2094D01*
Y2081D02*
Y2094D01*
X273Y2061D02*
Y2074D01*
X-187Y2407D02*
Y2437D01*
X-366Y2402D02*
X-280D01*
X-374Y2394D02*
X-366Y2402D01*
X-374Y2370D02*
Y2394D01*
X-535Y2234D02*
X-530Y2229D01*
X-483Y2253D02*
X-442Y2294D01*
Y2341D01*
X-425Y2358D01*
X-386D01*
X-535Y2234D02*
X-488D01*
X-483Y2229D02*
Y2253D01*
X-600Y2407D02*
X-552D01*
X-423Y2223D02*
Y2229D01*
X-484Y2186D02*
X-460D01*
X-423Y2223D01*
X-374Y1434D02*
Y1448D01*
X321Y1296D02*
X351Y1327D01*
X321Y1255D02*
Y1292D01*
Y1296D01*
X148Y1098D02*
X236D01*
X54Y1059D02*
X108D01*
X115Y1066D01*
X32Y887D02*
X84D01*
X102Y1015D02*
X124D01*
X148Y1039D01*
Y1098D01*
X118D02*
X148D01*
X142Y1144D02*
Y1163D01*
X133Y1172D02*
X142Y1163D01*
X118Y1172D02*
X133D01*
X111Y1179D02*
X118Y1172D01*
X90Y1179D02*
X111D01*
X68Y1157D02*
X90Y1179D01*
X-25Y1157D02*
X68D01*
X123Y1382D02*
X147D01*
X112Y1371D02*
X123Y1382D01*
X112Y1357D02*
Y1371D01*
X-336Y1072D02*
Y1105D01*
X-344Y1064D02*
X-336Y1072D01*
X553Y1502D02*
X575D01*
X523Y1532D02*
X553Y1502D01*
X386Y1532D02*
X523D01*
X356Y1562D02*
X386Y1532D01*
X-8Y2079D02*
X25D01*
X41Y2063D01*
X-13Y2237D02*
X2D01*
X44Y2195D02*
X88D01*
X2Y2237D02*
X44Y2195D01*
X-268Y2347D02*
X-204D01*
X-187Y2407D02*
X-180Y2401D01*
X-204Y2347D02*
X-180Y2371D01*
Y2401D01*
X-193Y2297D02*
Y2306D01*
X-168Y2331D01*
X-13Y2297D02*
Y2313D01*
X-2Y2324D02*
Y2349D01*
X-32Y2380D02*
X-2Y2349D01*
X-32Y2380D02*
Y2407D01*
X-13Y2313D02*
X-2Y2324D01*
X-338Y2275D02*
Y2296D01*
X-349Y2307D02*
X-338Y2296D01*
X-349Y2307D02*
Y2329D01*
X-338Y2340D01*
Y2361D01*
X59Y2439D02*
X76Y2456D01*
X115D01*
X510Y619D02*
X558Y571D01*
X630D01*
X241Y619D02*
X510D01*
X-917Y1035D02*
X-905Y1023D01*
X-874D01*
X-873D01*
X-874Y983D02*
Y1023D01*
X-917Y1035D02*
Y1876D01*
X-861Y1933D02*
X-632D01*
X-873Y1083D02*
Y1104D01*
X307Y2016D02*
X362Y1961D01*
X213Y2031D02*
X228Y2016D01*
X307D01*
X369Y1613D02*
X403D01*
X429Y1639D01*
X462D01*
X522D02*
X581D01*
X582Y1640D01*
X649Y1588D02*
Y1696D01*
Y1588D02*
X652Y1584D01*
X681D01*
X613Y1562D02*
Y1632D01*
X583Y1639D02*
X606D01*
X582Y1640D02*
X583Y1639D01*
X606D02*
X613Y1632D01*
X749Y1544D02*
X793D01*
X-812Y1240D02*
X-563D01*
X-505Y1298D01*
X-409Y1399D02*
X-374Y1434D01*
X-400Y1335D02*
X-369D01*
X-409Y1344D02*
X-400Y1335D01*
X-409Y1344D02*
Y1387D01*
Y1399D01*
D44*
X-737Y1202D02*
X-690Y1156D01*
X-532Y1178D02*
X-495D01*
X-547Y1163D02*
X-532Y1178D01*
X-547Y1109D02*
Y1163D01*
X-559Y1097D02*
X-547Y1109D01*
X-587Y1097D02*
X-559D01*
X-650Y1023D02*
X-615D01*
X-596Y1004D01*
X-476D01*
X-471Y998D01*
X665Y587D02*
X695Y617D01*
X665Y531D02*
Y587D01*
X491Y358D02*
X665Y531D01*
X209Y358D02*
X491D01*
X150Y417D02*
X209Y358D01*
X385Y474D02*
X401Y490D01*
Y520D01*
X107Y474D02*
X385D01*
X50Y417D02*
X107Y474D01*
X-12Y2020D02*
X39D01*
X-494Y1198D02*
X-478Y1214D01*
X-494Y1178D02*
X-419D01*
X-478Y1214D02*
Y1235D01*
X-173Y1807D02*
Y1844D01*
Y1687D02*
X-156Y1670D01*
X-98D01*
X-214Y1539D02*
Y1547D01*
X-210Y1551D01*
X-174D01*
X-146Y1491D02*
X-98D01*
X-144Y1542D02*
X-98D01*
X-170Y1516D02*
X-144Y1542D01*
X-170Y1465D02*
Y1516D01*
X-194Y1441D02*
X-170Y1465D01*
X-214Y1441D02*
X-194D01*
X-173Y1601D02*
X-140Y1568D01*
X-173Y1601D02*
Y1627D01*
X-140Y1568D02*
X-98D01*
X-173Y1743D02*
Y1747D01*
Y1743D02*
X-126Y1696D01*
X-98D01*
X-247Y770D02*
X-235Y782D01*
X-270Y770D02*
X-247D01*
X-284Y756D02*
X-270Y770D01*
X-284Y694D02*
Y756D01*
Y694D02*
X-253Y663D01*
X-459Y657D02*
X-455D01*
X-384Y728D01*
X-529Y597D02*
X-525Y593D01*
X-422Y577D02*
Y591D01*
X-378Y663D02*
X-313D01*
X-384Y657D02*
X-378Y663D01*
X-388Y932D02*
Y1204D01*
X-146Y872D02*
Y947D01*
X-417Y1278D02*
Y1307D01*
X-430Y1320D02*
X-417Y1307D01*
X-235Y782D02*
Y820D01*
Y893D01*
X-493Y593D02*
X-424D01*
X-525D02*
X-493D01*
Y624D01*
X-163Y964D02*
X-146Y947D01*
X-494Y1178D02*
Y1198D01*
X-642Y2377D02*
X-606Y2413D01*
X-642Y2316D02*
Y2377D01*
Y2316D02*
X-630Y2304D01*
X-619D01*
X-603Y2288D01*
X-591D01*
X-565Y2262D01*
Y2211D02*
X-558Y2204D01*
X-513D01*
X-565Y2211D02*
Y2262D01*
X-513Y2204D02*
X-495Y2186D01*
X-484D01*
X-248Y905D02*
X-235Y893D01*
X-362Y905D02*
X-248D01*
X-388Y932D02*
X-362Y905D01*
X401Y520D02*
X432D01*
X445Y507D01*
X-430Y1320D02*
Y1365D01*
X-436Y1371D02*
X-430Y1365D01*
X-467Y1371D02*
X-436D01*
X-469Y1373D02*
X-467Y1371D01*
D45*
X811Y2283D02*
X866D01*
X799Y2271D02*
X811Y2283D01*
X638Y2271D02*
X799D01*
X638D02*
Y2286D01*
Y2062D02*
Y2271D01*
Y2286D02*
X659Y2307D01*
X-695Y1335D02*
X-670Y1310D01*
X-695Y1487D02*
X-695Y1335D01*
X-670Y1280D02*
Y1310D01*
X-700Y1279D02*
X-640Y1278D01*
X639Y2061D02*
X702D01*
D46*
X-55Y1110D02*
X-42Y1097D01*
X345Y1170D02*
X350Y1165D01*
X300Y1170D02*
X345D01*
X280Y1190D02*
X300Y1170D01*
X-55Y1175D02*
X-46Y1184D01*
X-55Y1110D02*
Y1175D01*
X-42Y1097D02*
X-25D01*
X350Y975D02*
X355Y970D01*
X350Y975D02*
Y1165D01*
X302Y2404D02*
X344D01*
X367Y2381D01*
X401D01*
X-46Y1184D02*
X66D01*
X84Y1202D01*
X115D01*
X123Y1194D01*
X237D01*
X241Y1190D02*
X280D01*
X237Y1194D02*
X241Y1190D01*
X-105Y-532D02*
Y-612D01*
X-132Y-532D02*
X-79D01*
X-50Y-559D02*
X-58Y-562D01*
X-65Y-570D01*
X-69Y-582D01*
Y-589D01*
X-65Y-601D01*
X-58Y-608D01*
X-50Y-612D01*
X-39D01*
X-31Y-608D01*
X-23Y-601D01*
X-20Y-589D01*
Y-582D01*
X-23Y-570D01*
X-31Y-562D01*
X-39Y-559D01*
X-50D01*
X-2D02*
Y-639D01*
Y-570D02*
X5Y-562D01*
X13Y-559D01*
X25D01*
X32Y-562D01*
X40Y-570D01*
X44Y-582D01*
Y-589D01*
X40Y-601D01*
X32Y-608D01*
X25Y-612D01*
X13D01*
X5Y-608D01*
X-2Y-601D01*
X61Y-532D02*
Y-612D01*
X106D01*
X161Y-559D02*
Y-612D01*
Y-570D02*
X153Y-562D01*
X146Y-559D01*
X134D01*
X127Y-562D01*
X119Y-570D01*
X115Y-582D01*
Y-589D01*
X119Y-601D01*
X127Y-608D01*
X134Y-612D01*
X146D01*
X153Y-608D01*
X161Y-601D01*
X186Y-559D02*
X209Y-612D01*
X232Y-559D02*
X209Y-612D01*
X201Y-627D01*
X194Y-635D01*
X186Y-639D01*
X182D01*
X245Y-582D02*
X291D01*
Y-574D01*
X287Y-566D01*
X283Y-562D01*
X276Y-559D01*
X264D01*
X256Y-562D01*
X249Y-570D01*
X245Y-582D01*
Y-589D01*
X249Y-601D01*
X256Y-608D01*
X264Y-612D01*
X276D01*
X283Y-608D01*
X291Y-601D01*
X308Y-559D02*
Y-612D01*
Y-582D02*
X312Y-570D01*
X319Y-562D01*
X327Y-559D01*
X338D01*
X984Y-126D02*
Y417D01*
X-984Y-126D02*
Y435D01*
X135Y-116D02*
X984D01*
X-984D02*
X-167D01*
X924Y-96D02*
X984Y-116D01*
X924Y-136D02*
X984Y-116D01*
X-984D02*
X-924Y-136D01*
X-984Y-116D02*
X-924Y-96D01*
X1000Y2520D02*
X1108D01*
X369Y-0D02*
X1108D01*
X1098Y1395D02*
Y2520D01*
Y-0D02*
Y1093D01*
X1078Y2460D02*
X1098Y2520D01*
X1118Y2460D01*
X1098Y-0D02*
X1118Y60D01*
X1078D02*
X1098Y-0D01*
X354D02*
G03*
X433Y79I0J79D01*
G01*
X-433D02*
G03*
X-354Y-0I79J0D01*
G01*
X787Y433D02*
G03*
X433Y79I0J-354D01*
G01*
X-433D02*
G03*
X-787Y433I-354J0D01*
G01*
X-985Y2520D02*
X985D01*
X984Y432D02*
Y2520D01*
X787Y433D02*
X985Y433D01*
X-354Y0D02*
X354D01*
X-985Y433D02*
Y2520D01*
Y433D02*
X-787D01*
X2727Y-1468D02*
G03*
X2678Y-1419I-49J0D01*
G01*
X1577D02*
G03*
X1527Y-1469I0J-50D01*
G01*
X2677Y-1369D02*
G03*
X2727Y-1319I0J50D01*
G01*
X1527D02*
G03*
X1577Y-1369I50J0D01*
G01*
X-1523Y-644D02*
G03*
X-1623Y-744I0J-100D01*
G01*
Y-1843D02*
G03*
X-1524Y-1944I101J0D01*
G01*
X2677Y-1944D02*
G03*
X2777Y-1844I0J100D01*
G01*
Y-744D02*
G03*
X2677Y-644I-100J0D01*
G01*
X2727Y-743D02*
G03*
X2676Y-694I-49J0D01*
G01*
X2677Y-1644D02*
G03*
X2727Y-1594I0J50D01*
G01*
X2727Y-1743D02*
G03*
X2677Y-1694I-50J-1D01*
G01*
Y-1894D02*
G03*
X2727Y-1844I0J50D01*
G01*
X1427Y-1644D02*
G03*
X1477Y-1594I0J50D01*
G01*
X1527Y-1595D02*
G03*
X1577Y-1644I49J0D01*
G01*
X1477Y-1468D02*
G03*
X1428Y-1419I-49J0D01*
G01*
X-1573Y-1844D02*
G03*
X-1524Y-1894I50J0D01*
G01*
X1428Y-1369D02*
G03*
X1477Y-1319I-1J50D01*
G01*
X-1523Y-1694D02*
G03*
X-1573Y-1744I0J-50D01*
G01*
X1477Y-994D02*
G03*
X1427Y-944I-50J0D01*
G01*
Y-894D02*
G03*
X1477Y-844I0J50D01*
G01*
X1577Y-694D02*
G03*
X1527Y-744I0J-50D01*
G01*
X1477D02*
G03*
X1427Y-694I-50J0D01*
G01*
X-1523D02*
G03*
X-1573Y-744I0J-50D01*
G01*
Y-844D02*
G03*
X-1523Y-894I50J0D01*
G01*
Y-944D02*
G03*
X-1573Y-994I0J-50D01*
G01*
Y-1219D02*
G03*
X-1523Y-1269I50J0D01*
G01*
Y-1319D02*
G03*
X-1573Y-1369I0J-50D01*
G01*
Y-1594D02*
G03*
X-1524Y-1644I50J0D01*
G01*
X-623Y-944D02*
G03*
X-673Y-994I0J-50D01*
G01*
X-623Y-1419D02*
G03*
X-673Y-1469I0J-50D01*
G01*
X1125Y-1419D02*
G03*
X1077Y-1469I0J-48D01*
G01*
X1077Y-1593D02*
G03*
X1127Y-1644I51J0D01*
G01*
X978Y-1644D02*
G03*
X1027Y-1594I0J49D01*
G01*
X1027Y-1468D02*
G03*
X978Y-1419I-49J0D01*
G01*
X-772Y-1644D02*
G03*
X-723Y-1595I0J49D01*
G01*
X-673D02*
G03*
X-624Y-1644I49J0D01*
G01*
X-673Y-1320D02*
G03*
X-624Y-1369I49J0D01*
G01*
X-723Y-1368D02*
G03*
X-774Y-1319I-49J0D01*
G01*
X-771Y-1269D02*
G03*
X-723Y-1221I0J48D01*
G01*
Y-993D02*
G03*
X-772Y-944I-49J0D01*
G01*
X2127Y-1694D02*
G03*
X2077Y-1744I0J-50D01*
G01*
Y-1845D02*
G03*
X2127Y-1894I49J0D01*
G01*
X1978Y-1894D02*
G03*
X2027Y-1844I1J48D01*
G01*
X2027Y-1744D02*
G03*
X1977Y-1694I-50J0D01*
G01*
X252Y-1844D02*
G03*
X301Y-1894I50J0D01*
G01*
X302Y-1694D02*
G03*
X252Y-1744I0J-50D01*
G01*
X153Y-1894D02*
G03*
X202Y-1844I1J48D01*
G01*
X202Y-1744D02*
G03*
X152Y-1694I-50J0D01*
G01*
X2727Y-1594D02*
Y-1468D01*
X1527Y-1594D02*
Y-1469D01*
X2727Y-1319D02*
Y-744D01*
X1527Y-1319D02*
Y-744D01*
X-1623Y-1844D02*
Y-744D01*
X-1573Y-1844D02*
Y-1744D01*
X2727Y-1844D02*
Y-1744D01*
X1477Y-1594D02*
Y-1469D01*
X1077Y-1594D02*
Y-1469D01*
X-673Y-1594D02*
Y-1469D01*
X1027Y-1594D02*
Y-1469D01*
X-673Y-1319D02*
Y-994D01*
X1477Y-1319D02*
Y-994D01*
Y-844D02*
Y-744D01*
X-1573Y-844D02*
Y-744D01*
X-723Y-1219D02*
Y-994D01*
X-1573Y-1219D02*
Y-994D01*
X-723Y-1594D02*
Y-1369D01*
X-1573Y-1594D02*
Y-1369D01*
X2777Y-1844D02*
Y-744D01*
X2077Y-1844D02*
Y-1744D01*
X2027Y-1844D02*
Y-1744D01*
X252Y-1844D02*
Y-1744D01*
X202Y-1844D02*
Y-1744D01*
X1577Y-1419D02*
X2677D01*
X1577Y-1369D02*
X2677D01*
X-623D02*
X1427D01*
X1577Y-694D02*
X2677D01*
X1577Y-1644D02*
X2677D01*
X1127Y-1419D02*
X1427D01*
X1127Y-1644D02*
X1427D01*
X-623D02*
X977D01*
X-623Y-1419D02*
X977D01*
X-623Y-944D02*
X1427D01*
X-1523Y-894D02*
X1427D01*
X-1523Y-944D02*
X-773D01*
X-1523Y-1269D02*
X-773D01*
X-1523Y-1319D02*
X-773D01*
X-1523Y-1644D02*
X-773D01*
X-1523Y-644D02*
X2677D01*
X-1523Y-1944D02*
X2677D01*
X-1523Y-694D02*
X1427D01*
X2127Y-1694D02*
X2677D01*
X2127Y-1894D02*
X2677D01*
X302Y-1694D02*
X1977D01*
X-1523D02*
X152D01*
X-1523Y-1894D02*
X152D01*
X302D02*
X1977D01*
X1728Y-1096D02*
Y-1160D01*
Y-1096D02*
X1756D01*
X1765Y-1099D01*
X1768Y-1102D01*
X1771Y-1108D01*
Y-1114D01*
X1768Y-1120D01*
X1765Y-1123D01*
X1756Y-1126D01*
X1728D02*
X1756D01*
X1765Y-1129D01*
X1768Y-1132D01*
X1771Y-1138D01*
Y-1148D01*
X1768Y-1154D01*
X1765Y-1157D01*
X1756Y-1160D01*
X1728D01*
X1800Y-1117D02*
X1794Y-1120D01*
X1788Y-1126D01*
X1785Y-1135D01*
Y-1141D01*
X1788Y-1151D01*
X1794Y-1157D01*
X1800Y-1160D01*
X1809D01*
X1816Y-1157D01*
X1822Y-1151D01*
X1825Y-1141D01*
Y-1135D01*
X1822Y-1126D01*
X1816Y-1120D01*
X1809Y-1117D01*
X1800D01*
X1875Y-1126D02*
X1869Y-1120D01*
X1863Y-1117D01*
X1854D01*
X1848Y-1120D01*
X1842Y-1126D01*
X1839Y-1135D01*
Y-1141D01*
X1842Y-1151D01*
X1848Y-1157D01*
X1854Y-1160D01*
X1863D01*
X1869Y-1157D01*
X1875Y-1151D01*
X1926Y-1117D02*
Y-1160D01*
Y-1126D02*
X1919Y-1120D01*
X1913Y-1117D01*
X1904D01*
X1898Y-1120D01*
X1892Y-1126D01*
X1889Y-1135D01*
Y-1141D01*
X1892Y-1151D01*
X1898Y-1157D01*
X1904Y-1160D01*
X1913D01*
X1919Y-1157D01*
X1926Y-1151D01*
X1993Y-1096D02*
Y-1160D01*
Y-1096D02*
X2020D01*
X2029Y-1099D01*
X2032Y-1102D01*
X2036Y-1108D01*
Y-1114D01*
X2032Y-1120D01*
X2029Y-1123D01*
X2020Y-1126D01*
X1993D01*
X2014D02*
X2036Y-1160D01*
X2086Y-1117D02*
Y-1160D01*
Y-1126D02*
X2080Y-1120D01*
X2074Y-1117D01*
X2065D01*
X2059Y-1120D01*
X2053Y-1126D01*
X2050Y-1135D01*
Y-1141D01*
X2053Y-1151D01*
X2059Y-1157D01*
X2065Y-1160D01*
X2074D01*
X2080Y-1157D01*
X2086Y-1151D01*
X2113Y-1096D02*
Y-1148D01*
X2116Y-1157D01*
X2122Y-1160D01*
X2128D01*
X2103Y-1117D02*
X2125D01*
X2152D02*
X2146Y-1120D01*
X2140Y-1126D01*
X2137Y-1135D01*
Y-1141D01*
X2140Y-1151D01*
X2146Y-1157D01*
X2152Y-1160D01*
X2161D01*
X2167Y-1157D01*
X2174Y-1151D01*
X2177Y-1141D01*
Y-1135D01*
X2174Y-1126D01*
X2167Y-1120D01*
X2161Y-1117D01*
X2152D01*
X2191D02*
Y-1160D01*
Y-1129D02*
X2200Y-1120D01*
X2206Y-1117D01*
X2215D01*
X2221Y-1120D01*
X2224Y-1129D01*
Y-1160D01*
X2291Y-1096D02*
Y-1160D01*
Y-1096D02*
X2331D01*
X2291Y-1126D02*
X2316D01*
X2338Y-1096D02*
Y-1160D01*
X2375D01*
X2385Y-1154D02*
X2382Y-1157D01*
X2385Y-1160D01*
X2388Y-1157D01*
X2385Y-1154D01*
X1608Y-917D02*
X1605Y-926D01*
X1599Y-932D01*
X1589Y-935D01*
X1586D01*
X1577Y-932D01*
X1571Y-926D01*
X1568Y-917D01*
Y-914D01*
X1571Y-905D01*
X1577Y-899D01*
X1586Y-896D01*
X1589D01*
X1599Y-899D01*
X1605Y-905D01*
X1608Y-917D01*
Y-932D01*
X1605Y-948D01*
X1599Y-957D01*
X1589Y-960D01*
X1583D01*
X1574Y-957D01*
X1571Y-951D01*
X1643Y-896D02*
X1634Y-899D01*
X1628Y-908D01*
X1625Y-923D01*
Y-932D01*
X1628Y-948D01*
X1634Y-957D01*
X1643Y-960D01*
X1649D01*
X1659Y-957D01*
X1665Y-948D01*
X1668Y-932D01*
Y-923D01*
X1665Y-908D01*
X1659Y-899D01*
X1649Y-896D01*
X1643D01*
X1685Y-911D02*
Y-908D01*
X1688Y-902D01*
X1691Y-899D01*
X1697Y-896D01*
X1709D01*
X1716Y-899D01*
X1719Y-902D01*
X1722Y-908D01*
Y-914D01*
X1719Y-920D01*
X1713Y-929D01*
X1682Y-960D01*
X1725D01*
X1835Y-911D02*
X1832Y-905D01*
X1826Y-899D01*
X1820Y-896D01*
X1808D01*
X1801Y-899D01*
X1795Y-905D01*
X1792Y-911D01*
X1789Y-920D01*
Y-935D01*
X1792Y-945D01*
X1795Y-951D01*
X1801Y-957D01*
X1808Y-960D01*
X1820D01*
X1826Y-957D01*
X1832Y-951D01*
X1835Y-945D01*
X1853Y-896D02*
Y-960D01*
X1872Y-896D02*
X1876Y-899D01*
X1879Y-896D01*
X1876Y-893D01*
X1872Y-896D01*
X1876Y-917D02*
Y-960D01*
X1890Y-917D02*
Y-960D01*
Y-929D02*
X1899Y-920D01*
X1905Y-917D01*
X1914D01*
X1920Y-920D01*
X1923Y-929D01*
Y-960D01*
X1949Y-896D02*
Y-948D01*
X1952Y-957D01*
X1958Y-960D01*
X1965D01*
X1940Y-917D02*
X1961D01*
X2024Y-896D02*
Y-960D01*
Y-896D02*
X2048Y-960D01*
X2073Y-896D02*
X2048Y-960D01*
X2073Y-896D02*
Y-960D01*
X2106Y-917D02*
X2100Y-920D01*
X2094Y-926D01*
X2091Y-935D01*
Y-941D01*
X2094Y-951D01*
X2100Y-957D01*
X2106Y-960D01*
X2115D01*
X2121Y-957D01*
X2128Y-951D01*
X2131Y-941D01*
Y-935D01*
X2128Y-926D01*
X2121Y-920D01*
X2115Y-917D01*
X2106D01*
X2160D02*
X2154Y-920D01*
X2148Y-926D01*
X2145Y-935D01*
Y-941D01*
X2148Y-951D01*
X2154Y-957D01*
X2160Y-960D01*
X2169D01*
X2175Y-957D01*
X2181Y-951D01*
X2184Y-941D01*
Y-935D01*
X2181Y-926D01*
X2175Y-920D01*
X2169Y-917D01*
X2160D01*
X2198D02*
Y-960D01*
Y-935D02*
X2201Y-926D01*
X2207Y-920D01*
X2213Y-917D01*
X2223D01*
X2228Y-935D02*
X2265D01*
Y-929D01*
X2262Y-923D01*
X2259Y-920D01*
X2253Y-917D01*
X2244D01*
X2238Y-920D01*
X2231Y-926D01*
X2228Y-935D01*
Y-941D01*
X2231Y-951D01*
X2238Y-957D01*
X2244Y-960D01*
X2253D01*
X2259Y-957D01*
X2265Y-951D01*
X2329Y-896D02*
Y-960D01*
Y-896D02*
X2356D01*
X2365Y-899D01*
X2369Y-902D01*
X2372Y-908D01*
Y-914D01*
X2369Y-920D01*
X2365Y-923D01*
X2356Y-926D01*
X2329D01*
X2350D02*
X2372Y-960D01*
X2422Y-896D02*
Y-960D01*
Y-926D02*
X2416Y-920D01*
X2410Y-917D01*
X2401D01*
X2395Y-920D01*
X2389Y-926D01*
X2386Y-935D01*
Y-941D01*
X2389Y-951D01*
X2395Y-957D01*
X2401Y-960D01*
X2410D01*
X2416Y-957D01*
X2422Y-951D01*
X2443Y-954D02*
X2440Y-957D01*
X2443Y-960D01*
X2446Y-957D01*
X2443Y-954D01*
X1820Y-1216D02*
X1789D01*
X1786Y-1243D01*
X1789Y-1240D01*
X1798Y-1237D01*
X1807D01*
X1817Y-1240D01*
X1823Y-1246D01*
X1826Y-1255D01*
Y-1261D01*
X1823Y-1271D01*
X1817Y-1277D01*
X1807Y-1280D01*
X1798D01*
X1789Y-1277D01*
X1786Y-1274D01*
X1783Y-1268D01*
X1877Y-1225D02*
X1874Y-1219D01*
X1864Y-1216D01*
X1858D01*
X1849Y-1219D01*
X1843Y-1228D01*
X1840Y-1243D01*
Y-1258D01*
X1843Y-1271D01*
X1849Y-1277D01*
X1858Y-1280D01*
X1861D01*
X1871Y-1277D01*
X1877Y-1271D01*
X1880Y-1261D01*
Y-1258D01*
X1877Y-1249D01*
X1871Y-1243D01*
X1861Y-1240D01*
X1858D01*
X1849Y-1243D01*
X1843Y-1249D01*
X1840Y-1258D01*
X1894Y-1228D02*
X1900Y-1225D01*
X1909Y-1216D01*
Y-1280D01*
X1941Y-1252D02*
X1995D01*
X2054Y-1237D02*
X2051Y-1246D01*
X2045Y-1252D01*
X2036Y-1255D01*
X2033D01*
X2023Y-1252D01*
X2017Y-1246D01*
X2014Y-1237D01*
Y-1234D01*
X2017Y-1225D01*
X2023Y-1219D01*
X2033Y-1216D01*
X2036D01*
X2045Y-1219D01*
X2051Y-1225D01*
X2054Y-1237D01*
Y-1252D01*
X2051Y-1268D01*
X2045Y-1277D01*
X2036Y-1280D01*
X2030D01*
X2020Y-1277D01*
X2017Y-1271D01*
X2111Y-1237D02*
X2108Y-1246D01*
X2102Y-1252D01*
X2093Y-1255D01*
X2090D01*
X2080Y-1252D01*
X2074Y-1246D01*
X2071Y-1237D01*
Y-1234D01*
X2074Y-1225D01*
X2080Y-1219D01*
X2090Y-1216D01*
X2093D01*
X2102Y-1219D01*
X2108Y-1225D01*
X2111Y-1237D01*
Y-1252D01*
X2108Y-1268D01*
X2102Y-1277D01*
X2093Y-1280D01*
X2087D01*
X2077Y-1277D01*
X2074Y-1271D01*
X2168Y-1237D02*
X2165Y-1246D01*
X2159Y-1252D01*
X2150Y-1255D01*
X2147D01*
X2137Y-1252D01*
X2131Y-1246D01*
X2128Y-1237D01*
Y-1234D01*
X2131Y-1225D01*
X2137Y-1219D01*
X2147Y-1216D01*
X2150D01*
X2159Y-1219D01*
X2165Y-1225D01*
X2168Y-1237D01*
Y-1252D01*
X2165Y-1268D01*
X2159Y-1277D01*
X2150Y-1280D01*
X2144D01*
X2134Y-1277D01*
X2131Y-1271D01*
X2185Y-1252D02*
X2240D01*
X2299Y-1237D02*
X2296Y-1246D01*
X2290Y-1252D01*
X2280Y-1255D01*
X2277D01*
X2268Y-1252D01*
X2262Y-1246D01*
X2259Y-1237D01*
Y-1234D01*
X2262Y-1225D01*
X2268Y-1219D01*
X2277Y-1216D01*
X2280D01*
X2290Y-1219D01*
X2296Y-1225D01*
X2299Y-1237D01*
Y-1252D01*
X2296Y-1268D01*
X2290Y-1277D01*
X2280Y-1280D01*
X2274D01*
X2265Y-1277D01*
X2262Y-1271D01*
X2346Y-1216D02*
X2316Y-1258D01*
X2362D01*
X2346Y-1216D02*
Y-1280D01*
X2376Y-1231D02*
Y-1228D01*
X2379Y-1222D01*
X2382Y-1219D01*
X2388Y-1216D01*
X2400D01*
X2407Y-1219D01*
X2410Y-1222D01*
X2413Y-1228D01*
Y-1234D01*
X2410Y-1240D01*
X2403Y-1249D01*
X2373Y-1280D01*
X2416D01*
X2433Y-1231D02*
Y-1228D01*
X2436Y-1222D01*
X2439Y-1219D01*
X2445Y-1216D01*
X2457D01*
X2463Y-1219D01*
X2467Y-1222D01*
X2470Y-1228D01*
Y-1234D01*
X2467Y-1240D01*
X2460Y-1249D01*
X2430Y-1280D01*
X2473D01*
X1906Y-1010D02*
X1900Y-1004D01*
X1891Y-1001D01*
X1878D01*
X1869Y-1004D01*
X1863Y-1010D01*
Y-1016D01*
X1866Y-1022D01*
X1869Y-1025D01*
X1875Y-1028D01*
X1894Y-1034D01*
X1900Y-1037D01*
X1903Y-1040D01*
X1906Y-1046D01*
Y-1056D01*
X1900Y-1062D01*
X1891Y-1065D01*
X1878D01*
X1869Y-1062D01*
X1863Y-1056D01*
X1920Y-1022D02*
Y-1053D01*
X1923Y-1062D01*
X1929Y-1065D01*
X1938D01*
X1944Y-1062D01*
X1954Y-1053D01*
Y-1022D02*
Y-1065D01*
X1976Y-1001D02*
X1979Y-1004D01*
X1983Y-1001D01*
X1979Y-998D01*
X1976Y-1001D01*
X1979Y-1022D02*
Y-1065D01*
X2003Y-1001D02*
Y-1053D01*
X2006Y-1062D01*
X2012Y-1065D01*
X2018D01*
X1994Y-1022D02*
X2015D01*
X2027Y-1040D02*
X2064D01*
Y-1034D01*
X2061Y-1028D01*
X2058Y-1025D01*
X2052Y-1022D01*
X2043D01*
X2036Y-1025D01*
X2030Y-1031D01*
X2027Y-1040D01*
Y-1046D01*
X2030Y-1056D01*
X2036Y-1062D01*
X2043Y-1065D01*
X2052D01*
X2058Y-1062D01*
X2064Y-1056D01*
X2128Y-1013D02*
X2134Y-1010D01*
X2143Y-1001D01*
Y-1065D01*
X2178Y-1016D02*
Y-1013D01*
X2181Y-1007D01*
X2184Y-1004D01*
X2190Y-1001D01*
X2202D01*
X2208Y-1004D01*
X2211Y-1007D01*
X2214Y-1013D01*
Y-1019D01*
X2211Y-1025D01*
X2205Y-1034D01*
X2175Y-1065D01*
X2217D01*
X2268Y-1010D02*
X2265Y-1004D01*
X2256Y-1001D01*
X2250D01*
X2241Y-1004D01*
X2235Y-1013D01*
X2232Y-1028D01*
Y-1043D01*
X2235Y-1056D01*
X2241Y-1062D01*
X2250Y-1065D01*
X2253D01*
X2262Y-1062D01*
X2268Y-1056D01*
X2271Y-1046D01*
Y-1043D01*
X2268Y-1034D01*
X2262Y-1028D01*
X2253Y-1025D01*
X2250D01*
X2241Y-1028D01*
X2235Y-1034D01*
X2232Y-1043D01*
D47*
X-35Y1619D02*
X-0D01*
D48*
X-111Y-92D02*
X-151D01*
Y-122D01*
X-131Y-112D01*
X-121D01*
X-111Y-122D01*
Y-142D01*
X-121Y-152D01*
X-141D01*
X-151Y-142D01*
X-91Y-102D02*
X-81Y-92D01*
X-61D01*
X-51Y-102D01*
Y-142D01*
X-61Y-152D01*
X-81D01*
X-91Y-142D01*
Y-102D01*
X-31Y-152D02*
Y-142D01*
X-21D01*
Y-152D01*
X-31D01*
X19Y-102D02*
X29Y-92D01*
X49D01*
X59Y-102D01*
Y-142D01*
X49Y-152D01*
X29D01*
X19Y-142D01*
Y-102D01*
X79D02*
X89Y-92D01*
X109D01*
X119Y-102D01*
Y-142D01*
X109Y-152D01*
X89D01*
X79Y-142D01*
Y-102D01*
X1074Y1149D02*
X1084Y1129D01*
X1104Y1109D01*
X1124D01*
X1134Y1119D01*
Y1139D01*
X1124Y1149D01*
X1114D01*
X1104Y1139D01*
Y1109D01*
X1134Y1199D02*
X1074D01*
X1104Y1169D01*
Y1209D01*
X1134Y1229D02*
X1124D01*
Y1239D01*
X1134D01*
Y1229D01*
X1084Y1279D02*
X1074Y1289D01*
Y1309D01*
X1084Y1319D01*
X1124D01*
X1134Y1309D01*
Y1289D01*
X1124Y1279D01*
X1084D01*
Y1339D02*
X1074Y1349D01*
Y1369D01*
X1084Y1379D01*
X1124D01*
X1134Y1369D01*
Y1349D01*
X1124Y1339D01*
X1084D01*
D49*
X1305Y-1528D02*
X1297Y-1531D01*
X1292Y-1538D01*
X1290Y-1551D01*
Y-1559D01*
X1292Y-1571D01*
X1297Y-1579D01*
X1305Y-1581D01*
X1310D01*
X1317Y-1579D01*
X1323Y-1571D01*
X1325Y-1559D01*
Y-1551D01*
X1323Y-1538D01*
X1317Y-1531D01*
X1310Y-1528D01*
X1305D01*
X139Y-1041D02*
Y-1137D01*
X203Y-1041D02*
Y-1137D01*
X139Y-1087D02*
X203D01*
X303Y-1137D02*
X266Y-1041D01*
X230Y-1137D01*
X243Y-1105D02*
X289D01*
X325Y-1041D02*
Y-1137D01*
Y-1041D02*
X389Y-1137D01*
Y-1041D02*
Y-1137D01*
X416Y-1041D02*
Y-1137D01*
Y-1041D02*
X448D01*
X461Y-1046D01*
X471Y-1055D01*
X475Y-1064D01*
X480Y-1078D01*
Y-1100D01*
X475Y-1114D01*
X471Y-1123D01*
X461Y-1132D01*
X448Y-1137D01*
X416D01*
X501Y-1041D02*
Y-1137D01*
X565Y-1041D02*
Y-1137D01*
X501Y-1087D02*
X565D01*
X651Y-1041D02*
X592D01*
Y-1137D01*
X651D01*
X592Y-1087D02*
X628D01*
X667Y-1041D02*
Y-1137D01*
X722D01*
X732Y-1041D02*
Y-1137D01*
Y-1041D02*
X764D01*
X778Y-1046D01*
X787Y-1055D01*
X792Y-1064D01*
X796Y-1078D01*
Y-1100D01*
X792Y-1114D01*
X787Y-1123D01*
X778Y-1132D01*
X764Y-1137D01*
X732D01*
X-420Y-839D02*
X-456Y-743D01*
X-493Y-839D01*
X-479Y-807D02*
X-434D01*
X-343Y-789D02*
X-352Y-780D01*
X-361Y-775D01*
X-375D01*
X-384Y-780D01*
X-393Y-789D01*
X-397Y-802D01*
Y-812D01*
X-393Y-825D01*
X-384Y-834D01*
X-375Y-839D01*
X-361D01*
X-352Y-834D01*
X-343Y-825D01*
X-308Y-743D02*
Y-821D01*
X-304Y-834D01*
X-295Y-839D01*
X-285D01*
X-322Y-775D02*
X-290D01*
X-263Y-743D02*
X-258Y-748D01*
X-253Y-743D01*
X-258Y-738D01*
X-263Y-743D01*
X-258Y-775D02*
Y-839D01*
X-237Y-775D02*
X-209Y-839D01*
X-182Y-775D02*
X-209Y-839D01*
X-166Y-802D02*
X-111D01*
Y-793D01*
X-116Y-784D01*
X-120Y-780D01*
X-130Y-775D01*
X-143D01*
X-152Y-780D01*
X-162Y-789D01*
X-166Y-802D01*
Y-812D01*
X-162Y-825D01*
X-152Y-834D01*
X-143Y-839D01*
X-130D01*
X-120Y-834D01*
X-111Y-825D01*
X-15Y-743D02*
X7Y-839D01*
X30Y-743D02*
X7Y-839D01*
X30Y-743D02*
X53Y-839D01*
X76Y-743D02*
X53Y-839D01*
X150Y-775D02*
Y-839D01*
Y-789D02*
X141Y-780D01*
X132Y-775D01*
X118D01*
X109Y-780D01*
X100Y-789D01*
X95Y-802D01*
Y-812D01*
X100Y-825D01*
X109Y-834D01*
X118Y-839D01*
X132D01*
X141Y-834D01*
X150Y-825D01*
X176Y-775D02*
X203Y-839D01*
X231Y-775D02*
X203Y-839D01*
X246Y-802D02*
X301D01*
Y-793D01*
X296Y-784D01*
X292Y-780D01*
X283Y-775D01*
X269D01*
X260Y-780D01*
X251Y-789D01*
X246Y-802D01*
Y-812D01*
X251Y-825D01*
X260Y-834D01*
X269Y-839D01*
X283D01*
X292Y-834D01*
X301Y-825D01*
X1992Y-1516D02*
X1997Y-1514D01*
X2004Y-1506D01*
Y-1559D01*
X2033Y-1519D02*
Y-1516D01*
X2036Y-1511D01*
X2039Y-1509D01*
X2044Y-1506D01*
X2054D01*
X2059Y-1509D01*
X2061Y-1511D01*
X2064Y-1516D01*
Y-1521D01*
X2061Y-1526D01*
X2056Y-1534D01*
X2031Y-1559D01*
X2066D01*
X2109Y-1506D02*
X2083D01*
X2081Y-1529D01*
X2083Y-1526D01*
X2091Y-1524D01*
X2099D01*
X2106Y-1526D01*
X2111Y-1531D01*
X2114Y-1539D01*
Y-1544D01*
X2111Y-1552D01*
X2106Y-1557D01*
X2099Y-1559D01*
X2091D01*
X2083Y-1557D01*
X2081Y-1554D01*
X2078Y-1549D01*
X2126Y-1567D02*
X2161Y-1506D01*
X2167Y-1519D02*
Y-1516D01*
X2170Y-1511D01*
X2173Y-1509D01*
X2178Y-1506D01*
X2188D01*
X2193Y-1509D01*
X2195Y-1511D01*
X2198Y-1516D01*
Y-1521D01*
X2195Y-1526D01*
X2190Y-1534D01*
X2165Y-1559D01*
X2201D01*
X2228Y-1506D02*
X2220Y-1509D01*
X2215Y-1516D01*
X2212Y-1529D01*
Y-1537D01*
X2215Y-1549D01*
X2220Y-1557D01*
X2228Y-1559D01*
X2233D01*
X2240Y-1557D01*
X2245Y-1549D01*
X2248Y-1537D01*
Y-1529D01*
X2245Y-1516D01*
X2240Y-1509D01*
X2233Y-1506D01*
X2228D01*
X2260Y-1516D02*
X2265Y-1514D01*
X2273Y-1506D01*
Y-1559D01*
X2302Y-1519D02*
Y-1516D01*
X2304Y-1511D01*
X2307Y-1509D01*
X2312Y-1506D01*
X2322D01*
X2327Y-1509D01*
X2329Y-1511D01*
X2332Y-1516D01*
Y-1521D01*
X2329Y-1526D01*
X2324Y-1534D01*
X2299Y-1559D01*
X2335D01*
D50*
X1577Y-1453D02*
Y-1506D01*
Y-1453D02*
X1595D01*
X1602Y-1456D01*
X1607Y-1461D01*
X1610Y-1466D01*
X1613Y-1473D01*
Y-1486D01*
X1610Y-1494D01*
X1607Y-1499D01*
X1602Y-1504D01*
X1595Y-1506D01*
X1577D01*
X1665D02*
X1645Y-1453D01*
X1624Y-1506D01*
X1632Y-1489D02*
X1658D01*
X1695Y-1453D02*
Y-1506D01*
X1678Y-1453D02*
X1713D01*
X1752D02*
X1719D01*
Y-1506D01*
X1752D01*
X1719Y-1479D02*
X1740D01*
X1764Y-1471D02*
X1761Y-1473D01*
X1764Y-1476D01*
X1766Y-1473D01*
X1764Y-1471D01*
Y-1501D02*
X1761Y-1504D01*
X1764Y-1506D01*
X1766Y-1504D01*
X1764Y-1501D01*
X1115Y-1453D02*
Y-1506D01*
Y-1453D02*
X1137D01*
X1145Y-1456D01*
X1148Y-1458D01*
X1150Y-1463D01*
Y-1468D01*
X1148Y-1473D01*
X1145Y-1476D01*
X1137Y-1479D01*
X1115D01*
X1132D02*
X1150Y-1506D01*
X1195Y-1453D02*
X1162D01*
Y-1506D01*
X1195D01*
X1162Y-1479D02*
X1182D01*
X1204Y-1453D02*
X1224Y-1506D01*
X1245Y-1453D02*
X1224Y-1506D01*
X1254Y-1471D02*
X1251Y-1473D01*
X1254Y-1476D01*
X1256Y-1473D01*
X1254Y-1471D01*
Y-1501D02*
X1251Y-1504D01*
X1254Y-1506D01*
X1256Y-1504D01*
X1254Y-1501D01*
X-1523Y-1206D02*
X-1500D01*
X-1493Y-1204D01*
X-1490Y-1201D01*
X-1487Y-1196D01*
Y-1188D01*
X-1490Y-1183D01*
X-1493Y-1181D01*
X-1500Y-1178D01*
X-1523D01*
Y-1231D01*
X-1476Y-1178D02*
Y-1231D01*
X-1440Y-1178D02*
Y-1231D01*
X-1476Y-1204D02*
X-1440D01*
X-1410Y-1178D02*
X-1415Y-1181D01*
X-1420Y-1186D01*
X-1423Y-1191D01*
X-1425Y-1198D01*
Y-1211D01*
X-1423Y-1219D01*
X-1420Y-1224D01*
X-1415Y-1229D01*
X-1410Y-1231D01*
X-1400D01*
X-1395Y-1229D01*
X-1390Y-1224D01*
X-1387Y-1219D01*
X-1385Y-1211D01*
Y-1198D01*
X-1387Y-1191D01*
X-1390Y-1186D01*
X-1395Y-1181D01*
X-1400Y-1178D01*
X-1410D01*
X-1372D02*
Y-1231D01*
Y-1178D02*
X-1337Y-1231D01*
Y-1178D02*
Y-1231D01*
X-1289Y-1178D02*
X-1322D01*
Y-1231D01*
X-1289D01*
X-1322Y-1204D02*
X-1302D01*
X-1277Y-1196D02*
X-1280Y-1198D01*
X-1277Y-1201D01*
X-1275Y-1198D01*
X-1277Y-1196D01*
Y-1226D02*
X-1280Y-1229D01*
X-1277Y-1231D01*
X-1275Y-1229D01*
X-1277Y-1226D01*
X-1523Y-1581D02*
X-1500D01*
X-1493Y-1579D01*
X-1490Y-1576D01*
X-1487Y-1571D01*
Y-1563D01*
X-1490Y-1558D01*
X-1493Y-1556D01*
X-1500Y-1553D01*
X-1523D01*
Y-1606D01*
X-1476Y-1553D02*
Y-1606D01*
X-1440Y-1553D02*
Y-1606D01*
X-1476Y-1579D02*
X-1440D01*
X-1410Y-1553D02*
X-1415Y-1556D01*
X-1420Y-1561D01*
X-1423Y-1566D01*
X-1425Y-1573D01*
Y-1586D01*
X-1423Y-1594D01*
X-1420Y-1599D01*
X-1415Y-1604D01*
X-1410Y-1606D01*
X-1400D01*
X-1395Y-1604D01*
X-1390Y-1599D01*
X-1387Y-1594D01*
X-1385Y-1586D01*
Y-1573D01*
X-1387Y-1566D01*
X-1390Y-1561D01*
X-1395Y-1556D01*
X-1400Y-1553D01*
X-1410D01*
X-1372D02*
Y-1606D01*
Y-1553D02*
X-1337Y-1606D01*
Y-1553D02*
Y-1606D01*
X-1289Y-1553D02*
X-1322D01*
Y-1606D01*
X-1289D01*
X-1322Y-1579D02*
X-1302D01*
X-1277Y-1571D02*
X-1280Y-1573D01*
X-1277Y-1576D01*
X-1275Y-1573D01*
X-1277Y-1571D01*
Y-1601D02*
X-1280Y-1604D01*
X-1277Y-1606D01*
X-1275Y-1604D01*
X-1277Y-1601D01*
X317Y-1731D02*
Y-1784D01*
X347D01*
X394D02*
X374Y-1731D01*
X353Y-1784D01*
X361Y-1766D02*
X386D01*
X406Y-1731D02*
X427Y-1756D01*
Y-1784D01*
X447Y-1731D02*
X427Y-1756D01*
X487Y-1731D02*
X454D01*
Y-1784D01*
X487D01*
X454Y-1756D02*
X474D01*
X496Y-1731D02*
Y-1784D01*
Y-1731D02*
X519D01*
X526Y-1733D01*
X529Y-1736D01*
X531Y-1741D01*
Y-1746D01*
X529Y-1751D01*
X526Y-1753D01*
X519Y-1756D01*
X496D01*
X514D02*
X531Y-1784D01*
X546Y-1748D02*
X543Y-1751D01*
X546Y-1753D01*
X548Y-1751D01*
X546Y-1748D01*
Y-1779D02*
X543Y-1781D01*
X546Y-1784D01*
X548Y-1781D01*
X546Y-1779D01*
X-1490Y-991D02*
X-1523D01*
Y-1044D01*
X-1490D01*
X-1523Y-1016D02*
X-1503D01*
X-1481Y-991D02*
Y-1044D01*
Y-991D02*
X-1446Y-1044D01*
Y-991D02*
Y-1044D01*
X-1393Y-1003D02*
X-1395Y-998D01*
X-1400Y-993D01*
X-1405Y-991D01*
X-1416D01*
X-1421Y-993D01*
X-1426Y-998D01*
X-1428Y-1003D01*
X-1431Y-1011D01*
Y-1024D01*
X-1428Y-1031D01*
X-1426Y-1036D01*
X-1421Y-1041D01*
X-1416Y-1044D01*
X-1405D01*
X-1400Y-1041D01*
X-1395Y-1036D01*
X-1393Y-1031D01*
Y-1024D01*
X-1405D02*
X-1393D01*
X-1381Y-991D02*
Y-1044D01*
X-1369Y-991D02*
Y-1044D01*
Y-991D02*
X-1334Y-1044D01*
Y-991D02*
Y-1044D01*
X-1286Y-991D02*
X-1319D01*
Y-1044D01*
X-1286D01*
X-1319Y-1016D02*
X-1299D01*
X-1244Y-991D02*
X-1277D01*
Y-1044D01*
X-1244D01*
X-1277Y-1016D02*
X-1257D01*
X-1235Y-991D02*
Y-1044D01*
Y-991D02*
X-1212D01*
X-1205Y-993D01*
X-1202Y-996D01*
X-1200Y-1001D01*
Y-1006D01*
X-1202Y-1011D01*
X-1205Y-1013D01*
X-1212Y-1016D01*
X-1235D01*
X-1218D02*
X-1200Y-1044D01*
X-1185Y-1008D02*
X-1188Y-1011D01*
X-1185Y-1013D01*
X-1183Y-1011D01*
X-1185Y-1008D01*
Y-1039D02*
X-1188Y-1041D01*
X-1185Y-1044D01*
X-1183Y-1041D01*
X-1185Y-1039D01*
X-623Y-1481D02*
X-600D01*
X-593Y-1479D01*
X-590Y-1476D01*
X-587Y-1471D01*
Y-1463D01*
X-590Y-1458D01*
X-593Y-1456D01*
X-600Y-1453D01*
X-623D01*
Y-1506D01*
X-535D02*
X-555Y-1453D01*
X-576Y-1506D01*
X-568Y-1489D02*
X-542D01*
X-522Y-1453D02*
Y-1506D01*
Y-1453D02*
X-500D01*
X-492Y-1456D01*
X-489Y-1458D01*
X-487Y-1463D01*
Y-1468D01*
X-489Y-1473D01*
X-492Y-1476D01*
X-500Y-1479D01*
X-522D01*
X-505D02*
X-487Y-1506D01*
X-457Y-1453D02*
Y-1506D01*
X-475Y-1453D02*
X-439D01*
X-391D02*
Y-1506D01*
Y-1453D02*
X-356Y-1506D01*
Y-1453D02*
Y-1506D01*
X-326Y-1453D02*
X-331Y-1456D01*
X-336Y-1461D01*
X-338Y-1466D01*
X-341Y-1473D01*
Y-1486D01*
X-338Y-1494D01*
X-336Y-1499D01*
X-331Y-1504D01*
X-326Y-1506D01*
X-315D01*
X-310Y-1504D01*
X-305Y-1499D01*
X-303Y-1494D01*
X-300Y-1486D01*
Y-1473D01*
X-303Y-1466D01*
X-305Y-1461D01*
X-310Y-1456D01*
X-315Y-1453D01*
X-326D01*
X-285Y-1501D02*
X-288Y-1504D01*
X-285Y-1506D01*
X-283Y-1504D01*
X-285Y-1501D01*
X-269Y-1471D02*
X-271Y-1473D01*
X-269Y-1476D01*
X-266Y-1473D01*
X-269Y-1471D01*
Y-1501D02*
X-271Y-1504D01*
X-269Y-1506D01*
X-266Y-1504D01*
X-269Y-1501D01*
X-618Y-978D02*
Y-1031D01*
X-635Y-978D02*
X-600D01*
X-594D02*
Y-1031D01*
X-565Y-978D02*
Y-1031D01*
X-582Y-978D02*
X-547D01*
X-541D02*
Y-1031D01*
X-510D01*
X-471Y-978D02*
X-504D01*
Y-1031D01*
X-471D01*
X-504Y-1004D02*
X-484D01*
X-460Y-996D02*
X-462Y-998D01*
X-460Y-1001D01*
X-457Y-998D01*
X-460Y-996D01*
Y-1026D02*
X-462Y-1029D01*
X-460Y-1031D01*
X-457Y-1029D01*
X-460Y-1026D01*
X-1523Y-1371D02*
Y-1424D01*
Y-1371D02*
X-1505D01*
X-1498Y-1373D01*
X-1493Y-1378D01*
X-1490Y-1383D01*
X-1487Y-1391D01*
Y-1404D01*
X-1490Y-1411D01*
X-1493Y-1416D01*
X-1498Y-1421D01*
X-1505Y-1424D01*
X-1523D01*
X-1476Y-1388D02*
Y-1424D01*
Y-1404D02*
X-1473Y-1396D01*
X-1468Y-1391D01*
X-1463Y-1388D01*
X-1455D01*
X-1420D02*
Y-1424D01*
Y-1396D02*
X-1425Y-1391D01*
X-1430Y-1388D01*
X-1438D01*
X-1443Y-1391D01*
X-1448Y-1396D01*
X-1450Y-1404D01*
Y-1409D01*
X-1448Y-1416D01*
X-1443Y-1421D01*
X-1438Y-1424D01*
X-1430D01*
X-1425Y-1421D01*
X-1420Y-1416D01*
X-1406Y-1388D02*
X-1396Y-1424D01*
X-1385Y-1388D02*
X-1396Y-1424D01*
X-1385Y-1388D02*
X-1375Y-1424D01*
X-1365Y-1388D02*
X-1375Y-1424D01*
X-1353Y-1388D02*
Y-1424D01*
Y-1399D02*
X-1345Y-1391D01*
X-1340Y-1388D01*
X-1332D01*
X-1327Y-1391D01*
X-1325Y-1399D01*
Y-1424D01*
X-1269Y-1371D02*
Y-1424D01*
Y-1396D02*
X-1264Y-1391D01*
X-1259Y-1388D01*
X-1251D01*
X-1246Y-1391D01*
X-1241Y-1396D01*
X-1238Y-1404D01*
Y-1409D01*
X-1241Y-1416D01*
X-1246Y-1421D01*
X-1251Y-1424D01*
X-1259D01*
X-1264Y-1421D01*
X-1269Y-1416D01*
X-1224Y-1388D02*
X-1209Y-1424D01*
X-1194Y-1388D02*
X-1209Y-1424D01*
X-1214Y-1434D01*
X-1219Y-1439D01*
X-1224Y-1442D01*
X-1227D01*
X-1182Y-1388D02*
X-1185Y-1391D01*
X-1182Y-1393D01*
X-1180Y-1391D01*
X-1182Y-1388D01*
Y-1419D02*
X-1185Y-1421D01*
X-1182Y-1424D01*
X-1180Y-1421D01*
X-1182Y-1419D01*
X-1523Y-1731D02*
Y-1784D01*
Y-1731D02*
X-1490D01*
X-1523Y-1756D02*
X-1503D01*
X-1484Y-1731D02*
Y-1784D01*
X-1473Y-1731D02*
Y-1784D01*
X-1442D01*
X-1403Y-1731D02*
X-1436D01*
Y-1784D01*
X-1403D01*
X-1436Y-1756D02*
X-1416D01*
X-1353Y-1731D02*
Y-1784D01*
Y-1731D02*
X-1317Y-1784D01*
Y-1731D02*
Y-1784D01*
X-1262D02*
X-1282Y-1731D01*
X-1302Y-1784D01*
X-1295Y-1766D02*
X-1269D01*
X-1249Y-1731D02*
Y-1784D01*
Y-1731D02*
X-1229Y-1784D01*
X-1209Y-1731D02*
X-1229Y-1784D01*
X-1209Y-1731D02*
Y-1784D01*
X-1160Y-1731D02*
X-1193D01*
Y-1784D01*
X-1160D01*
X-1193Y-1756D02*
X-1173D01*
X-1149Y-1748D02*
X-1152Y-1751D01*
X-1149Y-1753D01*
X-1146Y-1751D01*
X-1149Y-1748D01*
Y-1779D02*
X-1152Y-1781D01*
X-1149Y-1784D01*
X-1146Y-1781D01*
X-1149Y-1779D01*
X2175Y-1743D02*
X2173Y-1738D01*
X2167Y-1733D01*
X2162Y-1731D01*
X2152D01*
X2147Y-1733D01*
X2142Y-1738D01*
X2140Y-1743D01*
X2137Y-1751D01*
Y-1764D01*
X2140Y-1771D01*
X2142Y-1776D01*
X2147Y-1781D01*
X2152Y-1784D01*
X2162D01*
X2167Y-1781D01*
X2173Y-1776D01*
X2175Y-1771D01*
Y-1764D01*
X2162D02*
X2175D01*
X2220Y-1731D02*
X2187D01*
Y-1784D01*
X2220D01*
X2187Y-1756D02*
X2208D01*
X2229Y-1731D02*
Y-1784D01*
Y-1731D02*
X2252D01*
X2260Y-1733D01*
X2262Y-1736D01*
X2265Y-1741D01*
Y-1746D01*
X2262Y-1751D01*
X2260Y-1753D01*
X2252Y-1756D01*
X2229D01*
X2247D02*
X2265Y-1784D01*
X2277Y-1731D02*
Y-1784D01*
Y-1731D02*
X2300D01*
X2307Y-1733D01*
X2310Y-1736D01*
X2312Y-1741D01*
Y-1746D01*
X2310Y-1751D01*
X2307Y-1753D01*
X2300Y-1756D01*
X2277D02*
X2300D01*
X2307Y-1759D01*
X2310Y-1761D01*
X2312Y-1766D01*
Y-1774D01*
X2310Y-1779D01*
X2307Y-1781D01*
X2300Y-1784D01*
X2277D01*
X2357Y-1731D02*
X2324D01*
Y-1784D01*
X2357D01*
X2324Y-1756D02*
X2344D01*
X2366Y-1731D02*
Y-1784D01*
Y-1731D02*
X2389D01*
X2397Y-1733D01*
X2399Y-1736D01*
X2402Y-1741D01*
Y-1746D01*
X2399Y-1751D01*
X2397Y-1753D01*
X2389Y-1756D01*
X2366D01*
X2384D02*
X2402Y-1784D01*
X2416Y-1748D02*
X2414Y-1751D01*
X2416Y-1753D01*
X2419Y-1751D01*
X2416Y-1748D01*
Y-1779D02*
X2414Y-1781D01*
X2416Y-1784D01*
X2419Y-1781D01*
X2416Y-1779D01*
D51*
X1694Y-855D02*
X1656Y-755D01*
X1618Y-855D01*
X1632Y-821D02*
X1680D01*
X1775Y-802D02*
X1765Y-793D01*
X1756Y-788D01*
X1741D01*
X1732Y-793D01*
X1722Y-802D01*
X1718Y-817D01*
Y-826D01*
X1722Y-840D01*
X1732Y-850D01*
X1741Y-855D01*
X1756D01*
X1765Y-850D01*
X1775Y-840D01*
X1810Y-755D02*
Y-836D01*
X1815Y-850D01*
X1825Y-855D01*
X1834D01*
X1796Y-788D02*
X1829D01*
X1858Y-755D02*
X1863Y-760D01*
X1868Y-755D01*
X1863Y-750D01*
X1858Y-755D01*
X1863Y-788D02*
Y-855D01*
X1885Y-788D02*
X1914Y-855D01*
X1942Y-788D02*
X1914Y-855D01*
X1958Y-817D02*
X2016D01*
Y-807D01*
X2011Y-798D01*
X2006Y-793D01*
X1997Y-788D01*
X1982D01*
X1973Y-793D01*
X1963Y-802D01*
X1958Y-817D01*
Y-826D01*
X1963Y-840D01*
X1973Y-850D01*
X1982Y-855D01*
X1997D01*
X2006Y-850D01*
X2016Y-840D01*
X2116Y-755D02*
X2139Y-855D01*
X2163Y-755D02*
X2139Y-855D01*
X2163Y-755D02*
X2187Y-855D01*
X2211Y-755D02*
X2187Y-855D01*
X2288Y-788D02*
Y-855D01*
Y-802D02*
X2278Y-793D01*
X2269Y-788D01*
X2255D01*
X2245Y-793D01*
X2236Y-802D01*
X2231Y-817D01*
Y-826D01*
X2236Y-840D01*
X2245Y-850D01*
X2255Y-855D01*
X2269D01*
X2278Y-850D01*
X2288Y-840D01*
X2315Y-788D02*
X2343Y-855D01*
X2372Y-788D02*
X2343Y-855D01*
X2388Y-817D02*
X2445D01*
Y-807D01*
X2440Y-798D01*
X2436Y-793D01*
X2426Y-788D01*
X2412D01*
X2402Y-793D01*
X2393Y-802D01*
X2388Y-817D01*
Y-826D01*
X2393Y-840D01*
X2402Y-850D01*
X2412Y-855D01*
X2426D01*
X2436Y-850D01*
X2445Y-840D01*
X3611Y-1651D02*
X3606Y-1665D01*
X3597Y-1675D01*
X3582Y-1679D01*
X3578D01*
X3563Y-1675D01*
X3554Y-1665D01*
X3549Y-1651D01*
Y-1646D01*
X3554Y-1632D01*
X3563Y-1622D01*
X3578Y-1617D01*
X3582D01*
X3597Y-1622D01*
X3606Y-1632D01*
X3611Y-1651D01*
Y-1675D01*
X3606Y-1698D01*
X3597Y-1713D01*
X3582Y-1717D01*
X3573D01*
X3559Y-1713D01*
X3554Y-1703D01*
X3638Y-1598D02*
X3648Y-1608D01*
X3657Y-1622D01*
X3667Y-1641D01*
X3671Y-1665D01*
Y-1684D01*
X3667Y-1708D01*
X3657Y-1727D01*
X3648Y-1741D01*
X3638Y-1751D01*
X3648Y-1608D02*
X3657Y-1627D01*
X3662Y-1641D01*
X3667Y-1665D01*
Y-1684D01*
X3662Y-1708D01*
X3657Y-1722D01*
X3648Y-1741D01*
X3846Y-1641D02*
X3841Y-1632D01*
X3831Y-1622D01*
X3822Y-1617D01*
X3803D01*
X3793Y-1622D01*
X3784Y-1632D01*
X3779Y-1641D01*
X3774Y-1655D01*
Y-1679D01*
X3779Y-1694D01*
X3784Y-1703D01*
X3793Y-1713D01*
X3803Y-1717D01*
X3822D01*
X3831Y-1713D01*
X3841Y-1703D01*
X3846Y-1694D01*
Y-1679D01*
X3822D02*
X3846D01*
X3868Y-1617D02*
Y-1717D01*
Y-1617D02*
X3911D01*
X3926Y-1622D01*
X3930Y-1627D01*
X3935Y-1636D01*
Y-1646D01*
X3930Y-1655D01*
X3926Y-1660D01*
X3911Y-1665D01*
X3868D01*
X3902D02*
X3935Y-1717D01*
X4019Y-1617D02*
X3957D01*
Y-1717D01*
X4019D01*
X3957Y-1665D02*
X3996D01*
X4098Y-1617D02*
X4036D01*
Y-1717D01*
X4098D01*
X4036Y-1665D02*
X4074D01*
X4115Y-1617D02*
Y-1717D01*
Y-1617D02*
X4181Y-1717D01*
Y-1617D02*
Y-1717D01*
X4354Y-1632D02*
X4345Y-1622D01*
X4330Y-1617D01*
X4311D01*
X4297Y-1622D01*
X4287Y-1632D01*
Y-1641D01*
X4292Y-1651D01*
X4297Y-1655D01*
X4306Y-1660D01*
X4335Y-1670D01*
X4345Y-1675D01*
X4349Y-1679D01*
X4354Y-1689D01*
Y-1703D01*
X4345Y-1713D01*
X4330Y-1717D01*
X4311D01*
X4297Y-1713D01*
X4287Y-1703D01*
X4405Y-1617D02*
X4395Y-1622D01*
X4386Y-1632D01*
X4381Y-1641D01*
X4376Y-1655D01*
Y-1679D01*
X4381Y-1694D01*
X4386Y-1703D01*
X4395Y-1713D01*
X4405Y-1717D01*
X4424D01*
X4434Y-1713D01*
X4443Y-1703D01*
X4448Y-1694D01*
X4453Y-1679D01*
Y-1655D01*
X4448Y-1641D01*
X4443Y-1632D01*
X4434Y-1622D01*
X4424Y-1617D01*
X4405D01*
X4476D02*
Y-1717D01*
X4533D01*
X4544Y-1617D02*
Y-1717D01*
Y-1617D02*
X4577D01*
X4592Y-1622D01*
X4601Y-1632D01*
X4606Y-1641D01*
X4611Y-1655D01*
Y-1679D01*
X4606Y-1694D01*
X4601Y-1703D01*
X4592Y-1713D01*
X4577Y-1717D01*
X4544D01*
X4695Y-1617D02*
X4633D01*
Y-1717D01*
X4695D01*
X4633Y-1665D02*
X4671D01*
X4712Y-1617D02*
Y-1717D01*
Y-1617D02*
X4754D01*
X4769Y-1622D01*
X4773Y-1627D01*
X4778Y-1636D01*
Y-1646D01*
X4773Y-1655D01*
X4769Y-1660D01*
X4754Y-1665D01*
X4712D01*
X4745D02*
X4778Y-1717D01*
X4879Y-1617D02*
Y-1717D01*
Y-1617D02*
X4917Y-1717D01*
X4955Y-1617D02*
X4917Y-1717D01*
X4955Y-1617D02*
Y-1717D01*
X5060D02*
X5022Y-1617D01*
X4984Y-1717D01*
X4998Y-1684D02*
X5046D01*
X5150Y-1632D02*
X5141Y-1622D01*
X5126Y-1617D01*
X5107D01*
X5093Y-1622D01*
X5083Y-1632D01*
Y-1641D01*
X5088Y-1651D01*
X5093Y-1655D01*
X5102Y-1660D01*
X5131Y-1670D01*
X5141Y-1675D01*
X5145Y-1679D01*
X5150Y-1689D01*
Y-1703D01*
X5141Y-1713D01*
X5126Y-1717D01*
X5107D01*
X5093Y-1713D01*
X5083Y-1703D01*
X5172Y-1617D02*
Y-1717D01*
X5239Y-1617D02*
X5172Y-1684D01*
X5196Y-1660D02*
X5239Y-1717D01*
X5340Y-1617D02*
Y-1717D01*
Y-1617D02*
X5383D01*
X5397Y-1622D01*
X5402Y-1627D01*
X5407Y-1636D01*
Y-1646D01*
X5402Y-1655D01*
X5397Y-1660D01*
X5383Y-1665D01*
X5340D02*
X5383D01*
X5397Y-1670D01*
X5402Y-1675D01*
X5407Y-1684D01*
Y-1698D01*
X5402Y-1708D01*
X5397Y-1713D01*
X5383Y-1717D01*
X5340D01*
X5458Y-1617D02*
X5448Y-1622D01*
X5439Y-1632D01*
X5434Y-1641D01*
X5429Y-1655D01*
Y-1679D01*
X5434Y-1694D01*
X5439Y-1703D01*
X5448Y-1713D01*
X5458Y-1717D01*
X5477D01*
X5486Y-1713D01*
X5496Y-1703D01*
X5500Y-1694D01*
X5505Y-1679D01*
Y-1655D01*
X5500Y-1641D01*
X5496Y-1632D01*
X5486Y-1622D01*
X5477Y-1617D01*
X5458D01*
X5562D02*
Y-1717D01*
X5529Y-1617D02*
X5595D01*
X5607D02*
Y-1717D01*
X5674Y-1617D02*
Y-1717D01*
X5607Y-1665D02*
X5674D01*
X5847Y-1632D02*
X5837Y-1622D01*
X5823Y-1617D01*
X5804D01*
X5789Y-1622D01*
X5780Y-1632D01*
Y-1641D01*
X5785Y-1651D01*
X5789Y-1655D01*
X5799Y-1660D01*
X5828Y-1670D01*
X5837Y-1675D01*
X5842Y-1679D01*
X5847Y-1689D01*
Y-1703D01*
X5837Y-1713D01*
X5823Y-1717D01*
X5804D01*
X5789Y-1713D01*
X5780Y-1703D01*
X5869Y-1617D02*
Y-1717D01*
X5890Y-1617D02*
Y-1717D01*
Y-1617D02*
X5923D01*
X5938Y-1622D01*
X5947Y-1632D01*
X5952Y-1641D01*
X5957Y-1655D01*
Y-1679D01*
X5952Y-1694D01*
X5947Y-1703D01*
X5938Y-1713D01*
X5923Y-1717D01*
X5890D01*
X6041Y-1617D02*
X5979D01*
Y-1717D01*
X6041D01*
X5979Y-1665D02*
X6017D01*
X6124Y-1632D02*
X6115Y-1622D01*
X6100Y-1617D01*
X6081D01*
X6067Y-1622D01*
X6058Y-1632D01*
Y-1641D01*
X6062Y-1651D01*
X6067Y-1655D01*
X6077Y-1660D01*
X6105Y-1670D01*
X6115Y-1675D01*
X6119Y-1679D01*
X6124Y-1689D01*
Y-1703D01*
X6115Y-1713D01*
X6100Y-1717D01*
X6081D01*
X6067Y-1713D01*
X6058Y-1703D01*
X3578Y-1401D02*
X3564Y-1406D01*
X3559Y-1416D01*
Y-1425D01*
X3564Y-1435D01*
X3573Y-1439D01*
X3592Y-1444D01*
X3606Y-1449D01*
X3616Y-1459D01*
X3621Y-1468D01*
Y-1482D01*
X3616Y-1492D01*
X3611Y-1497D01*
X3597Y-1501D01*
X3578D01*
X3564Y-1497D01*
X3559Y-1492D01*
X3554Y-1482D01*
Y-1468D01*
X3559Y-1459D01*
X3568Y-1449D01*
X3583Y-1444D01*
X3602Y-1439D01*
X3611Y-1435D01*
X3616Y-1425D01*
Y-1416D01*
X3611Y-1406D01*
X3597Y-1401D01*
X3578D01*
X3643Y-1382D02*
X3653Y-1392D01*
X3662Y-1406D01*
X3672Y-1425D01*
X3676Y-1449D01*
Y-1468D01*
X3672Y-1492D01*
X3662Y-1511D01*
X3653Y-1525D01*
X3643Y-1535D01*
X3653Y-1392D02*
X3662Y-1411D01*
X3667Y-1425D01*
X3672Y-1449D01*
Y-1468D01*
X3667Y-1492D01*
X3662Y-1506D01*
X3653Y-1525D01*
X3846Y-1416D02*
X3836Y-1406D01*
X3822Y-1401D01*
X3803D01*
X3789Y-1406D01*
X3779Y-1416D01*
Y-1425D01*
X3784Y-1435D01*
X3789Y-1439D01*
X3798Y-1444D01*
X3827Y-1454D01*
X3836Y-1459D01*
X3841Y-1463D01*
X3846Y-1473D01*
Y-1487D01*
X3836Y-1497D01*
X3822Y-1501D01*
X3803D01*
X3789Y-1497D01*
X3779Y-1487D01*
X3868Y-1401D02*
Y-1501D01*
X3889Y-1401D02*
Y-1501D01*
X3946D01*
X3957Y-1401D02*
Y-1501D01*
X4024Y-1401D02*
X3957Y-1468D01*
X3981Y-1444D02*
X4024Y-1501D01*
X4113Y-1416D02*
X4103Y-1406D01*
X4089Y-1401D01*
X4070D01*
X4056Y-1406D01*
X4046Y-1416D01*
Y-1425D01*
X4051Y-1435D01*
X4056Y-1439D01*
X4065Y-1444D01*
X4094Y-1454D01*
X4103Y-1459D01*
X4108Y-1463D01*
X4113Y-1473D01*
Y-1487D01*
X4103Y-1497D01*
X4089Y-1501D01*
X4070D01*
X4056Y-1497D01*
X4046Y-1487D01*
X4207Y-1425D02*
X4202Y-1416D01*
X4192Y-1406D01*
X4183Y-1401D01*
X4164D01*
X4154Y-1406D01*
X4145Y-1416D01*
X4140Y-1425D01*
X4135Y-1439D01*
Y-1463D01*
X4140Y-1478D01*
X4145Y-1487D01*
X4154Y-1497D01*
X4164Y-1501D01*
X4183D01*
X4192Y-1497D01*
X4202Y-1487D01*
X4207Y-1478D01*
X4235Y-1401D02*
Y-1501D01*
Y-1401D02*
X4278D01*
X4292Y-1406D01*
X4297Y-1411D01*
X4301Y-1420D01*
Y-1430D01*
X4297Y-1439D01*
X4292Y-1444D01*
X4278Y-1449D01*
X4235D01*
X4268D02*
X4301Y-1501D01*
X4386Y-1401D02*
X4324D01*
Y-1501D01*
X4386D01*
X4324Y-1449D02*
X4362D01*
X4464Y-1401D02*
X4402D01*
Y-1501D01*
X4464D01*
X4402Y-1449D02*
X4440D01*
X4481Y-1401D02*
Y-1501D01*
Y-1401D02*
X4548Y-1501D01*
Y-1401D02*
Y-1501D01*
X4682Y-1401D02*
X4673Y-1406D01*
X4663Y-1416D01*
X4659Y-1425D01*
X4654Y-1439D01*
Y-1463D01*
X4659Y-1478D01*
X4663Y-1487D01*
X4673Y-1497D01*
X4682Y-1501D01*
X4701D01*
X4711Y-1497D01*
X4720Y-1487D01*
X4725Y-1478D01*
X4730Y-1463D01*
Y-1439D01*
X4725Y-1425D01*
X4720Y-1416D01*
X4711Y-1406D01*
X4701Y-1401D01*
X4682D01*
X4753D02*
X4791Y-1501D01*
X4829Y-1401D02*
X4791Y-1501D01*
X4904Y-1401D02*
X4842D01*
Y-1501D01*
X4904D01*
X4842Y-1449D02*
X4880D01*
X4921Y-1401D02*
Y-1501D01*
Y-1401D02*
X4964D01*
X4978Y-1406D01*
X4983Y-1411D01*
X4988Y-1420D01*
Y-1430D01*
X4983Y-1439D01*
X4978Y-1444D01*
X4964Y-1449D01*
X4921D01*
X4954D02*
X4988Y-1501D01*
X5122Y-1401D02*
Y-1501D01*
X5088Y-1401D02*
X5155D01*
X5229D02*
X5167D01*
Y-1501D01*
X5229D01*
X5167Y-1449D02*
X5205D01*
X5246Y-1401D02*
Y-1501D01*
Y-1401D02*
X5312Y-1501D01*
Y-1401D02*
Y-1501D01*
X5373Y-1401D02*
Y-1501D01*
X5340Y-1401D02*
X5406D01*
X5480D02*
X5418D01*
Y-1501D01*
X5480D01*
X5418Y-1449D02*
X5456D01*
X5497Y-1401D02*
Y-1501D01*
Y-1401D02*
X5530D01*
X5545Y-1406D01*
X5554Y-1416D01*
X5559Y-1425D01*
X5564Y-1439D01*
Y-1463D01*
X5559Y-1478D01*
X5554Y-1487D01*
X5545Y-1497D01*
X5530Y-1501D01*
X5497D01*
X5665Y-1401D02*
X5703Y-1501D01*
X5741Y-1401D02*
X5703Y-1501D01*
X5754Y-1401D02*
Y-1501D01*
X5851D02*
X5813Y-1401D01*
X5774Y-1501D01*
X5789Y-1468D02*
X5836D01*
X5941Y-1416D02*
X5931Y-1406D01*
X5917Y-1401D01*
X5898D01*
X5884Y-1406D01*
X5874Y-1416D01*
Y-1425D01*
X5879Y-1435D01*
X5884Y-1439D01*
X5893Y-1444D01*
X5922Y-1454D01*
X5931Y-1459D01*
X5936Y-1463D01*
X5941Y-1473D01*
Y-1487D01*
X5931Y-1497D01*
X5917Y-1501D01*
X5898D01*
X5884Y-1497D01*
X5874Y-1487D01*
X3621Y-1174D02*
X3573Y-1274D01*
X3554Y-1174D02*
X3621D01*
X3643Y-1155D02*
X3653Y-1165D01*
X3662Y-1179D01*
X3672Y-1198D01*
X3676Y-1222D01*
Y-1241D01*
X3672Y-1265D01*
X3662Y-1284D01*
X3653Y-1298D01*
X3643Y-1308D01*
X3653Y-1165D02*
X3662Y-1184D01*
X3667Y-1198D01*
X3672Y-1222D01*
Y-1241D01*
X3667Y-1265D01*
X3662Y-1279D01*
X3653Y-1298D01*
X3779Y-1174D02*
Y-1274D01*
Y-1174D02*
X3822D01*
X3836Y-1179D01*
X3841Y-1184D01*
X3846Y-1193D01*
Y-1203D01*
X3841Y-1212D01*
X3836Y-1217D01*
X3822Y-1222D01*
X3779D01*
X3813D02*
X3846Y-1274D01*
X3930Y-1174D02*
X3868D01*
Y-1274D01*
X3930D01*
X3868Y-1222D02*
X3906D01*
X3947Y-1174D02*
Y-1274D01*
Y-1174D02*
X3985Y-1274D01*
X4023Y-1174D02*
X3985Y-1274D01*
X4023Y-1174D02*
Y-1274D01*
X4080Y-1174D02*
X4071Y-1179D01*
X4061Y-1189D01*
X4056Y-1198D01*
X4052Y-1212D01*
Y-1236D01*
X4056Y-1251D01*
X4061Y-1260D01*
X4071Y-1270D01*
X4080Y-1274D01*
X4099D01*
X4109Y-1270D01*
X4118Y-1260D01*
X4123Y-1251D01*
X4128Y-1236D01*
Y-1212D01*
X4123Y-1198D01*
X4118Y-1189D01*
X4109Y-1179D01*
X4099Y-1174D01*
X4080D01*
X4151D02*
X4189Y-1274D01*
X4227Y-1174D02*
X4189Y-1274D01*
X4302Y-1174D02*
X4240D01*
Y-1274D01*
X4302D01*
X4240Y-1222D02*
X4278D01*
X4464Y-1189D02*
X4454Y-1179D01*
X4440Y-1174D01*
X4421D01*
X4407Y-1179D01*
X4397Y-1189D01*
Y-1198D01*
X4402Y-1208D01*
X4407Y-1212D01*
X4416Y-1217D01*
X4445Y-1227D01*
X4454Y-1232D01*
X4459Y-1236D01*
X4464Y-1246D01*
Y-1260D01*
X4454Y-1270D01*
X4440Y-1274D01*
X4421D01*
X4407Y-1270D01*
X4397Y-1260D01*
X4486Y-1174D02*
Y-1274D01*
X4507Y-1174D02*
Y-1274D01*
X4564D01*
X4575Y-1174D02*
Y-1274D01*
X4642Y-1174D02*
X4575Y-1241D01*
X4599Y-1217D02*
X4642Y-1274D01*
X4731Y-1189D02*
X4721Y-1179D01*
X4707Y-1174D01*
X4688D01*
X4674Y-1179D01*
X4664Y-1189D01*
Y-1198D01*
X4669Y-1208D01*
X4674Y-1212D01*
X4683Y-1217D01*
X4712Y-1227D01*
X4721Y-1232D01*
X4726Y-1236D01*
X4731Y-1246D01*
Y-1260D01*
X4721Y-1270D01*
X4707Y-1274D01*
X4688D01*
X4674Y-1270D01*
X4664Y-1260D01*
X4825Y-1198D02*
X4820Y-1189D01*
X4810Y-1179D01*
X4801Y-1174D01*
X4782D01*
X4772Y-1179D01*
X4763Y-1189D01*
X4758Y-1198D01*
X4753Y-1212D01*
Y-1236D01*
X4758Y-1251D01*
X4763Y-1260D01*
X4772Y-1270D01*
X4782Y-1274D01*
X4801D01*
X4810Y-1270D01*
X4820Y-1260D01*
X4825Y-1251D01*
X4853Y-1174D02*
Y-1274D01*
Y-1174D02*
X4896D01*
X4910Y-1179D01*
X4915Y-1184D01*
X4919Y-1193D01*
Y-1203D01*
X4915Y-1212D01*
X4910Y-1217D01*
X4896Y-1222D01*
X4853D01*
X4886D02*
X4919Y-1274D01*
X5004Y-1174D02*
X4942D01*
Y-1274D01*
X5004D01*
X4942Y-1222D02*
X4980D01*
X5082Y-1174D02*
X5020D01*
Y-1274D01*
X5082D01*
X5020Y-1222D02*
X5058D01*
X5099Y-1174D02*
Y-1274D01*
Y-1174D02*
X5166Y-1274D01*
Y-1174D02*
Y-1274D01*
X5272Y-1174D02*
Y-1274D01*
Y-1174D02*
X5334D01*
X5272Y-1222D02*
X5310D01*
X5345Y-1174D02*
Y-1274D01*
Y-1174D02*
X5388D01*
X5402Y-1179D01*
X5407Y-1184D01*
X5412Y-1193D01*
Y-1203D01*
X5407Y-1212D01*
X5402Y-1217D01*
X5388Y-1222D01*
X5345D01*
X5378D02*
X5412Y-1274D01*
X5463Y-1174D02*
X5453Y-1179D01*
X5444Y-1189D01*
X5439Y-1198D01*
X5434Y-1212D01*
Y-1236D01*
X5439Y-1251D01*
X5444Y-1260D01*
X5453Y-1270D01*
X5463Y-1274D01*
X5482D01*
X5491Y-1270D01*
X5501Y-1260D01*
X5505Y-1251D01*
X5510Y-1236D01*
Y-1212D01*
X5505Y-1198D01*
X5501Y-1189D01*
X5491Y-1179D01*
X5482Y-1174D01*
X5463D01*
X5534D02*
Y-1274D01*
Y-1174D02*
X5572Y-1274D01*
X5610Y-1174D02*
X5572Y-1274D01*
X5610Y-1174D02*
Y-1274D01*
X5717Y-1227D02*
X5760D01*
X5774Y-1222D01*
X5779Y-1217D01*
X5784Y-1208D01*
Y-1193D01*
X5779Y-1184D01*
X5774Y-1179D01*
X5760Y-1174D01*
X5717D01*
Y-1274D01*
X5882D02*
X5844Y-1174D01*
X5806Y-1274D01*
X5820Y-1241D02*
X5868D01*
X5905Y-1174D02*
Y-1274D01*
Y-1174D02*
X5939D01*
X5953Y-1179D01*
X5963Y-1189D01*
X5967Y-1198D01*
X5972Y-1212D01*
Y-1236D01*
X5967Y-1251D01*
X5963Y-1260D01*
X5953Y-1270D01*
X5939Y-1274D01*
X5905D01*
X6061Y-1189D02*
X6052Y-1179D01*
X6037Y-1174D01*
X6018D01*
X6004Y-1179D01*
X5994Y-1189D01*
Y-1198D01*
X5999Y-1208D01*
X6004Y-1212D01*
X6013Y-1217D01*
X6042Y-1227D01*
X6052Y-1232D01*
X6056Y-1236D01*
X6061Y-1246D01*
Y-1260D01*
X6052Y-1270D01*
X6037Y-1274D01*
X6018D01*
X6004Y-1270D01*
X5994Y-1260D01*
X3616Y-967D02*
X3611Y-957D01*
X3597Y-952D01*
X3588D01*
X3573Y-957D01*
X3564Y-971D01*
X3559Y-995D01*
Y-1019D01*
X3564Y-1038D01*
X3573Y-1048D01*
X3588Y-1052D01*
X3592D01*
X3607Y-1048D01*
X3616Y-1038D01*
X3621Y-1024D01*
Y-1019D01*
X3616Y-1005D01*
X3607Y-995D01*
X3592Y-990D01*
X3588D01*
X3573Y-995D01*
X3564Y-1005D01*
X3559Y-1019D01*
X3643Y-933D02*
X3652Y-943D01*
X3662Y-957D01*
X3671Y-976D01*
X3676Y-1000D01*
Y-1019D01*
X3671Y-1043D01*
X3662Y-1062D01*
X3652Y-1076D01*
X3643Y-1086D01*
X3652Y-943D02*
X3662Y-962D01*
X3667Y-976D01*
X3671Y-1000D01*
Y-1019D01*
X3667Y-1043D01*
X3662Y-1057D01*
X3652Y-1076D01*
X3779Y-952D02*
X3803Y-1052D01*
X3827Y-952D02*
X3803Y-1052D01*
X3827Y-952D02*
X3850Y-1052D01*
X3874Y-952D02*
X3850Y-1052D01*
X3894Y-952D02*
Y-1052D01*
X3961Y-952D02*
Y-1052D01*
X3894Y-1000D02*
X3961D01*
X3988Y-952D02*
Y-1052D01*
X4043Y-952D02*
Y-1052D01*
X4009Y-952D02*
X4076D01*
X4150D02*
X4088D01*
Y-1052D01*
X4150D01*
X4088Y-1000D02*
X4126D01*
X4312Y-967D02*
X4302Y-957D01*
X4288Y-952D01*
X4269D01*
X4255Y-957D01*
X4245Y-967D01*
Y-976D01*
X4250Y-986D01*
X4255Y-990D01*
X4264Y-995D01*
X4293Y-1005D01*
X4302Y-1010D01*
X4307Y-1014D01*
X4312Y-1024D01*
Y-1038D01*
X4302Y-1048D01*
X4288Y-1052D01*
X4269D01*
X4255Y-1048D01*
X4245Y-1038D01*
X4334Y-952D02*
Y-1052D01*
X4355Y-952D02*
Y-1052D01*
X4412D01*
X4423Y-952D02*
Y-1052D01*
X4490Y-952D02*
X4423Y-1019D01*
X4447Y-995D02*
X4490Y-1052D01*
X4579Y-967D02*
X4569Y-957D01*
X4555Y-952D01*
X4536D01*
X4522Y-957D01*
X4512Y-967D01*
Y-976D01*
X4517Y-986D01*
X4522Y-990D01*
X4531Y-995D01*
X4560Y-1005D01*
X4569Y-1010D01*
X4574Y-1014D01*
X4579Y-1024D01*
Y-1038D01*
X4569Y-1048D01*
X4555Y-1052D01*
X4536D01*
X4522Y-1048D01*
X4512Y-1038D01*
X4673Y-976D02*
X4668Y-967D01*
X4658Y-957D01*
X4649Y-952D01*
X4630D01*
X4620Y-957D01*
X4611Y-967D01*
X4606Y-976D01*
X4601Y-990D01*
Y-1014D01*
X4606Y-1029D01*
X4611Y-1038D01*
X4620Y-1048D01*
X4630Y-1052D01*
X4649D01*
X4658Y-1048D01*
X4668Y-1038D01*
X4673Y-1029D01*
X4701Y-952D02*
Y-1052D01*
Y-952D02*
X4744D01*
X4758Y-957D01*
X4763Y-962D01*
X4767Y-971D01*
Y-981D01*
X4763Y-990D01*
X4758Y-995D01*
X4744Y-1000D01*
X4701D01*
X4734D02*
X4767Y-1052D01*
X4852Y-952D02*
X4790D01*
Y-1052D01*
X4852D01*
X4790Y-1000D02*
X4828D01*
X4930Y-952D02*
X4868D01*
Y-1052D01*
X4930D01*
X4868Y-1000D02*
X4906D01*
X4947Y-952D02*
Y-1052D01*
Y-952D02*
X5013Y-1052D01*
Y-952D02*
Y-1052D01*
X5120Y-952D02*
Y-1052D01*
Y-952D02*
X5162D01*
X5177Y-957D01*
X5182Y-962D01*
X5186Y-971D01*
Y-981D01*
X5182Y-990D01*
X5177Y-995D01*
X5162Y-1000D01*
X5120D02*
X5162D01*
X5177Y-1005D01*
X5182Y-1010D01*
X5186Y-1019D01*
Y-1033D01*
X5182Y-1043D01*
X5177Y-1048D01*
X5162Y-1052D01*
X5120D01*
X5237Y-952D02*
X5228Y-957D01*
X5218Y-967D01*
X5213Y-976D01*
X5209Y-990D01*
Y-1014D01*
X5213Y-1029D01*
X5218Y-1038D01*
X5228Y-1048D01*
X5237Y-1052D01*
X5256D01*
X5266Y-1048D01*
X5275Y-1038D01*
X5280Y-1029D01*
X5285Y-1014D01*
Y-990D01*
X5280Y-976D01*
X5275Y-967D01*
X5266Y-957D01*
X5256Y-952D01*
X5237D01*
X5341D02*
Y-1052D01*
X5308Y-952D02*
X5375D01*
X5387D02*
Y-1052D01*
X5453Y-952D02*
Y-1052D01*
X5387Y-1000D02*
X5453D01*
X5626Y-967D02*
X5617Y-957D01*
X5602Y-952D01*
X5583D01*
X5569Y-957D01*
X5560Y-967D01*
Y-976D01*
X5564Y-986D01*
X5569Y-990D01*
X5579Y-995D01*
X5607Y-1005D01*
X5617Y-1010D01*
X5621Y-1014D01*
X5626Y-1024D01*
Y-1038D01*
X5617Y-1048D01*
X5602Y-1052D01*
X5583D01*
X5569Y-1048D01*
X5560Y-1038D01*
X5649Y-952D02*
Y-1052D01*
X5669Y-952D02*
Y-1052D01*
Y-952D02*
X5703D01*
X5717Y-957D01*
X5727Y-967D01*
X5731Y-976D01*
X5736Y-990D01*
Y-1014D01*
X5731Y-1029D01*
X5727Y-1038D01*
X5717Y-1048D01*
X5703Y-1052D01*
X5669D01*
X5820Y-952D02*
X5759D01*
Y-1052D01*
X5820D01*
X5759Y-1000D02*
X5797D01*
X5904Y-967D02*
X5894Y-957D01*
X5880Y-952D01*
X5861D01*
X5847Y-957D01*
X5837Y-967D01*
Y-976D01*
X5842Y-986D01*
X5847Y-990D01*
X5856Y-995D01*
X5885Y-1005D01*
X5894Y-1010D01*
X5899Y-1014D01*
X5904Y-1024D01*
Y-1038D01*
X5894Y-1048D01*
X5880Y-1052D01*
X5861D01*
X5847Y-1048D01*
X5837Y-1038D01*
X3621Y-731D02*
X3574D01*
X3569Y-774D01*
X3574Y-769D01*
X3588Y-765D01*
X3602D01*
X3616Y-769D01*
X3626Y-779D01*
X3631Y-793D01*
Y-803D01*
X3626Y-817D01*
X3616Y-827D01*
X3602Y-831D01*
X3588D01*
X3574Y-827D01*
X3569Y-822D01*
X3564Y-812D01*
X3653Y-712D02*
X3663Y-722D01*
X3672Y-736D01*
X3682Y-755D01*
X3686Y-779D01*
Y-798D01*
X3682Y-822D01*
X3672Y-841D01*
X3663Y-855D01*
X3653Y-865D01*
X3663Y-722D02*
X3672Y-741D01*
X3677Y-755D01*
X3682Y-779D01*
Y-798D01*
X3677Y-822D01*
X3672Y-836D01*
X3663Y-855D01*
X3837Y-731D02*
X3789Y-798D01*
X3861D01*
X3837Y-731D02*
Y-831D01*
X3957Y-731D02*
Y-803D01*
X3962Y-817D01*
X3971Y-827D01*
X3985Y-831D01*
X3995D01*
X4009Y-827D01*
X4019Y-817D01*
X4023Y-803D01*
Y-731D01*
X4051Y-784D02*
X4094D01*
X4108Y-779D01*
X4113Y-774D01*
X4118Y-765D01*
Y-750D01*
X4113Y-741D01*
X4108Y-736D01*
X4094Y-731D01*
X4051D01*
Y-831D01*
X4219Y-731D02*
X4242Y-831D01*
X4266Y-731D02*
X4242Y-831D01*
X4266Y-731D02*
X4290Y-831D01*
X4314Y-731D02*
X4290Y-831D01*
X4396Y-731D02*
X4334D01*
Y-831D01*
X4396D01*
X4334Y-779D02*
X4372D01*
X4412Y-731D02*
Y-831D01*
Y-731D02*
X4455D01*
X4470Y-736D01*
X4474Y-741D01*
X4479Y-750D01*
Y-760D01*
X4474Y-769D01*
X4470Y-774D01*
X4455Y-779D01*
X4412D02*
X4455D01*
X4470Y-784D01*
X4474Y-789D01*
X4479Y-798D01*
Y-812D01*
X4474Y-822D01*
X4470Y-827D01*
X4455Y-831D01*
X4412D01*
X4580Y-731D02*
Y-831D01*
Y-731D02*
X4623D01*
X4637Y-736D01*
X4642Y-741D01*
X4647Y-750D01*
Y-760D01*
X4642Y-769D01*
X4637Y-774D01*
X4623Y-779D01*
X4580D01*
X4613D02*
X4647Y-831D01*
X4698Y-731D02*
X4688Y-736D01*
X4679Y-746D01*
X4674Y-755D01*
X4669Y-769D01*
Y-793D01*
X4674Y-808D01*
X4679Y-817D01*
X4688Y-827D01*
X4698Y-831D01*
X4717D01*
X4726Y-827D01*
X4736Y-817D01*
X4740Y-808D01*
X4745Y-793D01*
Y-769D01*
X4740Y-755D01*
X4736Y-746D01*
X4726Y-736D01*
X4717Y-731D01*
X4698D01*
X4769D02*
Y-803D01*
X4773Y-817D01*
X4783Y-827D01*
X4797Y-831D01*
X4807D01*
X4821Y-827D01*
X4830Y-817D01*
X4835Y-803D01*
Y-731D01*
X4896D02*
Y-831D01*
X4863Y-731D02*
X4929D01*
X5003D02*
X4941D01*
Y-831D01*
X5003D01*
X4941Y-779D02*
X4979D01*
X5020Y-731D02*
Y-831D01*
Y-731D02*
X5053D01*
X5067Y-736D01*
X5077Y-746D01*
X5082Y-755D01*
X5087Y-769D01*
Y-793D01*
X5082Y-808D01*
X5077Y-817D01*
X5067Y-827D01*
X5053Y-831D01*
X5020D01*
X5187Y-784D02*
X5230D01*
X5245Y-779D01*
X5249Y-774D01*
X5254Y-765D01*
Y-750D01*
X5249Y-741D01*
X5245Y-736D01*
X5230Y-731D01*
X5187D01*
Y-831D01*
X5353D02*
X5315Y-731D01*
X5276Y-831D01*
X5291Y-798D02*
X5338D01*
X5376Y-731D02*
Y-831D01*
Y-731D02*
X5443Y-831D01*
Y-731D02*
Y-831D01*
X5532Y-731D02*
X5470D01*
Y-831D01*
X5532D01*
X5470Y-779D02*
X5508D01*
X5549Y-731D02*
Y-831D01*
X5606D01*
X3612Y-499D02*
X3564Y-566D01*
X3635D01*
X3612Y-499D02*
Y-599D01*
X3653Y-480D02*
X3663Y-490D01*
X3672Y-504D01*
X3682Y-523D01*
X3686Y-547D01*
Y-566D01*
X3682Y-590D01*
X3672Y-609D01*
X3663Y-623D01*
X3653Y-633D01*
X3663Y-490D02*
X3672Y-509D01*
X3677Y-523D01*
X3682Y-547D01*
Y-566D01*
X3677Y-590D01*
X3672Y-604D01*
X3663Y-623D01*
X3789Y-499D02*
Y-599D01*
X3856Y-499D02*
Y-599D01*
X3789Y-547D02*
X3856D01*
X3960Y-599D02*
X3922Y-499D01*
X3883Y-599D01*
X3898Y-566D02*
X3945D01*
X4050Y-514D02*
X4040Y-504D01*
X4026Y-499D01*
X4007D01*
X3992Y-504D01*
X3983Y-514D01*
Y-523D01*
X3988Y-533D01*
X3992Y-537D01*
X4002Y-542D01*
X4031Y-552D01*
X4040Y-557D01*
X4045Y-561D01*
X4050Y-571D01*
Y-585D01*
X4040Y-595D01*
X4026Y-599D01*
X4007D01*
X3992Y-595D01*
X3983Y-585D01*
X4072Y-499D02*
Y-599D01*
X4129D01*
X4285Y-514D02*
X4276Y-504D01*
X4261Y-499D01*
X4242D01*
X4228Y-504D01*
X4219Y-514D01*
Y-523D01*
X4223Y-533D01*
X4228Y-537D01*
X4238Y-542D01*
X4266Y-552D01*
X4276Y-557D01*
X4281Y-561D01*
X4285Y-571D01*
Y-585D01*
X4276Y-595D01*
X4261Y-599D01*
X4242D01*
X4228Y-595D01*
X4219Y-585D01*
X4308Y-499D02*
Y-599D01*
Y-499D02*
X4346Y-599D01*
X4384Y-499D02*
X4346Y-599D01*
X4384Y-499D02*
Y-599D01*
X4441Y-499D02*
X4431Y-504D01*
X4422Y-514D01*
X4417Y-523D01*
X4412Y-537D01*
Y-561D01*
X4417Y-576D01*
X4422Y-585D01*
X4431Y-595D01*
X4441Y-599D01*
X4460D01*
X4470Y-595D01*
X4479Y-585D01*
X4484Y-576D01*
X4489Y-561D01*
Y-537D01*
X4484Y-523D01*
X4479Y-514D01*
X4470Y-504D01*
X4460Y-499D01*
X4441D01*
X4512D02*
Y-599D01*
Y-499D02*
X4555D01*
X4569Y-504D01*
X4574Y-509D01*
X4579Y-518D01*
Y-528D01*
X4574Y-537D01*
X4569Y-542D01*
X4555Y-547D01*
X4512D02*
X4555D01*
X4569Y-552D01*
X4574Y-557D01*
X4579Y-566D01*
Y-580D01*
X4574Y-590D01*
X4569Y-595D01*
X4555Y-599D01*
X4512D01*
X4672Y-523D02*
X4668Y-514D01*
X4658Y-504D01*
X4649Y-499D01*
X4629D01*
X4620Y-504D01*
X4610Y-514D01*
X4606Y-523D01*
X4601Y-537D01*
Y-561D01*
X4606Y-576D01*
X4610Y-585D01*
X4620Y-595D01*
X4629Y-599D01*
X4649D01*
X4658Y-595D01*
X4668Y-585D01*
X4672Y-576D01*
X3574Y-257D02*
X3626D01*
X3597Y-295D01*
X3612D01*
X3621Y-300D01*
X3626Y-305D01*
X3631Y-319D01*
Y-329D01*
X3626Y-343D01*
X3616Y-353D01*
X3602Y-357D01*
X3588D01*
X3574Y-353D01*
X3569Y-348D01*
X3564Y-338D01*
X3653Y-238D02*
X3663Y-248D01*
X3672Y-262D01*
X3682Y-281D01*
X3686Y-305D01*
Y-324D01*
X3682Y-348D01*
X3672Y-367D01*
X3663Y-381D01*
X3653Y-391D01*
X3663Y-248D02*
X3672Y-267D01*
X3677Y-281D01*
X3682Y-305D01*
Y-324D01*
X3677Y-348D01*
X3672Y-362D01*
X3663Y-381D01*
X3789Y-276D02*
X3799Y-272D01*
X3813Y-257D01*
Y-357D01*
X3970Y-257D02*
X3960Y-262D01*
X3951Y-272D01*
X3946Y-281D01*
X3941Y-295D01*
Y-319D01*
X3946Y-334D01*
X3951Y-343D01*
X3960Y-353D01*
X3970Y-357D01*
X3989D01*
X3998Y-353D01*
X4008Y-343D01*
X4012Y-334D01*
X4017Y-319D01*
Y-295D01*
X4012Y-281D01*
X4008Y-272D01*
X3998Y-262D01*
X3989Y-257D01*
X3970D01*
X4041D02*
Y-329D01*
X4045Y-343D01*
X4055Y-353D01*
X4069Y-357D01*
X4079D01*
X4093Y-353D01*
X4102Y-343D01*
X4107Y-329D01*
Y-257D01*
X4135D02*
Y-357D01*
Y-257D02*
X4201Y-357D01*
Y-257D02*
Y-357D01*
X4301Y-281D02*
X4296Y-272D01*
X4286Y-262D01*
X4277Y-257D01*
X4258D01*
X4248Y-262D01*
X4239Y-272D01*
X4234Y-281D01*
X4229Y-295D01*
Y-319D01*
X4234Y-334D01*
X4239Y-343D01*
X4248Y-353D01*
X4258Y-357D01*
X4277D01*
X4286Y-353D01*
X4296Y-343D01*
X4301Y-334D01*
X4390Y-257D02*
X4329D01*
Y-357D01*
X4390D01*
X4329Y-305D02*
X4367D01*
X4557Y-281D02*
X4552Y-272D01*
X4543Y-262D01*
X4533Y-257D01*
X4514D01*
X4505Y-262D01*
X4495Y-272D01*
X4490Y-281D01*
X4486Y-295D01*
Y-319D01*
X4490Y-334D01*
X4495Y-343D01*
X4505Y-353D01*
X4514Y-357D01*
X4533D01*
X4543Y-353D01*
X4552Y-343D01*
X4557Y-334D01*
X4614Y-257D02*
X4604Y-262D01*
X4595Y-272D01*
X4590Y-281D01*
X4585Y-295D01*
Y-319D01*
X4590Y-334D01*
X4595Y-343D01*
X4604Y-353D01*
X4614Y-357D01*
X4633D01*
X4642Y-353D01*
X4652Y-343D01*
X4657Y-334D01*
X4661Y-319D01*
Y-295D01*
X4657Y-281D01*
X4652Y-272D01*
X4642Y-262D01*
X4633Y-257D01*
X4614D01*
X4685Y-310D02*
X4728D01*
X4742Y-305D01*
X4747Y-300D01*
X4751Y-291D01*
Y-276D01*
X4747Y-267D01*
X4742Y-262D01*
X4728Y-257D01*
X4685D01*
Y-357D01*
X4774Y-310D02*
X4817D01*
X4831Y-305D01*
X4836Y-300D01*
X4840Y-291D01*
Y-276D01*
X4836Y-267D01*
X4831Y-262D01*
X4817Y-257D01*
X4774D01*
Y-357D01*
X4925Y-257D02*
X4863D01*
Y-357D01*
X4925D01*
X4863Y-305D02*
X4901D01*
X4941Y-257D02*
Y-357D01*
Y-257D02*
X4984D01*
X4998Y-262D01*
X5003Y-267D01*
X5008Y-276D01*
Y-286D01*
X5003Y-295D01*
X4998Y-300D01*
X4984Y-305D01*
X4941D01*
X4975D02*
X5008Y-357D01*
X3564Y-61D02*
Y-56D01*
X3569Y-47D01*
X3573Y-42D01*
X3583Y-37D01*
X3602D01*
X3611Y-42D01*
X3616Y-47D01*
X3621Y-56D01*
Y-66D01*
X3616Y-75D01*
X3607Y-89D01*
X3559Y-137D01*
X3626D01*
X3648Y-18D02*
X3658Y-27D01*
X3667Y-42D01*
X3677Y-61D01*
X3681Y-85D01*
Y-104D01*
X3677Y-127D01*
X3667Y-147D01*
X3658Y-161D01*
X3648Y-170D01*
X3658Y-27D02*
X3667Y-47D01*
X3672Y-61D01*
X3677Y-85D01*
Y-104D01*
X3672Y-127D01*
X3667Y-142D01*
X3658Y-161D01*
X3813Y-37D02*
X3798Y-42D01*
X3789Y-56D01*
X3784Y-80D01*
Y-94D01*
X3789Y-118D01*
X3798Y-132D01*
X3813Y-137D01*
X3822D01*
X3837Y-132D01*
X3846Y-118D01*
X3851Y-94D01*
Y-80D01*
X3846Y-56D01*
X3837Y-42D01*
X3822Y-37D01*
X3813D01*
X3878Y-127D02*
X3873Y-132D01*
X3878Y-137D01*
X3883Y-132D01*
X3878Y-127D01*
X3933Y-37D02*
X3919Y-42D01*
X3909Y-56D01*
X3905Y-80D01*
Y-94D01*
X3909Y-118D01*
X3919Y-132D01*
X3933Y-137D01*
X3943D01*
X3957Y-132D01*
X3967Y-118D01*
X3971Y-94D01*
Y-80D01*
X3967Y-56D01*
X3957Y-42D01*
X3943Y-37D01*
X3933D01*
X4003D02*
X4056D01*
X4027Y-75D01*
X4041D01*
X4051Y-80D01*
X4056Y-85D01*
X4060Y-99D01*
Y-108D01*
X4056Y-123D01*
X4046Y-132D01*
X4032Y-137D01*
X4017D01*
X4003Y-132D01*
X3998Y-127D01*
X3994Y-118D01*
X4083Y-56D02*
X4092Y-51D01*
X4107Y-37D01*
Y-137D01*
X4161Y-37D02*
X4156Y-42D01*
Y-70D01*
X4161Y-42D02*
X4156Y-70D01*
X4161Y-37D02*
X4166Y-42D01*
X4156Y-70D01*
X4204Y-37D02*
X4199Y-42D01*
Y-70D01*
X4204Y-42D02*
X4199Y-70D01*
X4204Y-37D02*
X4208Y-42D01*
X4199Y-70D01*
X4341Y-37D02*
Y-137D01*
X4308Y-37D02*
X4375D01*
X4386D02*
Y-137D01*
X4453Y-37D02*
Y-137D01*
X4386Y-85D02*
X4453D01*
X4481Y-37D02*
Y-137D01*
X4573Y-61D02*
X4568Y-51D01*
X4559Y-42D01*
X4549Y-37D01*
X4530D01*
X4521Y-42D01*
X4511Y-51D01*
X4506Y-61D01*
X4502Y-75D01*
Y-99D01*
X4506Y-113D01*
X4511Y-123D01*
X4521Y-132D01*
X4530Y-137D01*
X4549D01*
X4559Y-132D01*
X4568Y-123D01*
X4573Y-113D01*
X4601Y-37D02*
Y-137D01*
X4668Y-37D02*
X4601Y-104D01*
X4625Y-80D02*
X4668Y-137D01*
X4826Y-51D02*
X4821Y-42D01*
X4807Y-37D01*
X4797D01*
X4783Y-42D01*
X4774Y-56D01*
X4769Y-80D01*
Y-104D01*
X4774Y-123D01*
X4783Y-132D01*
X4797Y-137D01*
X4802D01*
X4816Y-132D01*
X4826Y-123D01*
X4831Y-108D01*
Y-104D01*
X4826Y-89D01*
X4816Y-80D01*
X4802Y-75D01*
X4797D01*
X4783Y-80D01*
X4774Y-89D01*
X4769Y-104D01*
X4931Y-37D02*
Y-137D01*
X4988D01*
X5075D02*
X5037Y-37D01*
X4999Y-137D01*
X5013Y-104D02*
X5061D01*
X5099Y-37D02*
X5137Y-85D01*
Y-137D01*
X5175Y-37D02*
X5137Y-85D01*
X5250Y-37D02*
X5188D01*
Y-137D01*
X5250D01*
X5188Y-85D02*
X5226D01*
X5266Y-37D02*
Y-137D01*
Y-37D02*
X5309D01*
X5323Y-42D01*
X5328Y-47D01*
X5333Y-56D01*
Y-66D01*
X5328Y-75D01*
X5323Y-80D01*
X5309Y-85D01*
X5266D01*
X5300D02*
X5333Y-137D01*
X5434Y-37D02*
Y-137D01*
Y-37D02*
X5477D01*
X5491Y-42D01*
X5496Y-47D01*
X5500Y-56D01*
Y-66D01*
X5496Y-75D01*
X5491Y-80D01*
X5477Y-85D01*
X5434D02*
X5477D01*
X5491Y-89D01*
X5496Y-94D01*
X5500Y-104D01*
Y-118D01*
X5496Y-127D01*
X5491Y-132D01*
X5477Y-137D01*
X5434D01*
X5551Y-37D02*
X5542Y-42D01*
X5532Y-51D01*
X5528Y-61D01*
X5523Y-75D01*
Y-99D01*
X5528Y-113D01*
X5532Y-123D01*
X5542Y-132D01*
X5551Y-137D01*
X5570D01*
X5580Y-132D01*
X5590Y-123D01*
X5594Y-113D01*
X5599Y-99D01*
Y-75D01*
X5594Y-61D01*
X5590Y-51D01*
X5580Y-42D01*
X5570Y-37D01*
X5551D01*
X5699Y-137D02*
X5660Y-37D01*
X5622Y-137D01*
X5637Y-104D02*
X5684D01*
X5722Y-37D02*
Y-137D01*
Y-37D02*
X5765D01*
X5779Y-42D01*
X5784Y-47D01*
X5789Y-56D01*
Y-66D01*
X5784Y-75D01*
X5779Y-80D01*
X5765Y-85D01*
X5722D01*
X5755D02*
X5789Y-137D01*
X5811Y-37D02*
Y-137D01*
Y-37D02*
X5844D01*
X5859Y-42D01*
X5868Y-51D01*
X5873Y-61D01*
X5878Y-75D01*
Y-99D01*
X5873Y-113D01*
X5868Y-123D01*
X5859Y-132D01*
X5844Y-137D01*
X5811D01*
X3572Y163D02*
X3582Y168D01*
X3596Y182D01*
Y82D01*
X3645Y201D02*
X3655Y191D01*
X3664Y177D01*
X3674Y158D01*
X3679Y134D01*
Y115D01*
X3674Y92D01*
X3664Y72D01*
X3655Y58D01*
X3645Y49D01*
X3655Y191D02*
X3664Y172D01*
X3669Y158D01*
X3674Y134D01*
Y115D01*
X3669Y92D01*
X3664Y77D01*
X3655Y58D01*
X3781Y182D02*
Y82D01*
Y182D02*
X3820Y82D01*
X3858Y182D02*
X3820Y82D01*
X3858Y182D02*
Y82D01*
X3962D02*
X3924Y182D01*
X3886Y82D01*
X3901Y115D02*
X3948D01*
X4019Y182D02*
Y82D01*
X3986Y182D02*
X4052D01*
X4126D02*
X4064D01*
Y82D01*
X4126D01*
X4064Y134D02*
X4102D01*
X4143Y182D02*
Y82D01*
Y182D02*
X4186D01*
X4200Y177D01*
X4205Y172D01*
X4209Y163D01*
Y153D01*
X4205Y144D01*
X4200Y139D01*
X4186Y134D01*
X4143D01*
X4176D02*
X4209Y82D01*
X4232Y182D02*
Y82D01*
X4329D02*
X4291Y182D01*
X4253Y82D01*
X4267Y115D02*
X4315D01*
X4352Y182D02*
Y82D01*
X4409D01*
X4499Y182D02*
Y82D01*
X4587Y168D02*
X4577Y177D01*
X4563Y182D01*
X4544D01*
X4529Y177D01*
X4520Y168D01*
Y158D01*
X4525Y149D01*
X4529Y144D01*
X4539Y139D01*
X4568Y130D01*
X4577Y125D01*
X4582Y120D01*
X4587Y111D01*
Y96D01*
X4577Y87D01*
X4563Y82D01*
X4544D01*
X4529Y87D01*
X4520Y96D01*
X4687Y182D02*
Y82D01*
Y182D02*
X4749D01*
X4687Y134D02*
X4726D01*
X4761Y182D02*
Y82D01*
Y182D02*
X4804D01*
X4818Y177D01*
X4823Y172D01*
X4827Y163D01*
Y153D01*
X4823Y144D01*
X4818Y139D01*
X4804Y134D01*
X4761D01*
X4794D02*
X4827Y82D01*
X4897Y182D02*
X4850Y115D01*
X4921D01*
X4897Y182D02*
Y82D01*
X3565Y426D02*
Y326D01*
Y426D02*
X3632Y326D01*
Y426D02*
Y326D01*
X3688Y426D02*
X3678Y421D01*
X3669Y412D01*
X3664Y402D01*
X3659Y388D01*
Y364D01*
X3664Y350D01*
X3669Y340D01*
X3678Y331D01*
X3688Y326D01*
X3707D01*
X3716Y331D01*
X3726Y340D01*
X3731Y350D01*
X3735Y364D01*
Y388D01*
X3731Y402D01*
X3726Y412D01*
X3716Y421D01*
X3707Y426D01*
X3688D01*
X3792D02*
Y326D01*
X3759Y426D02*
X3825D01*
X3899D02*
X3837D01*
Y326D01*
X3899D01*
X3837Y378D02*
X3875D01*
X3983Y412D02*
X3973Y421D01*
X3959Y426D01*
X3940D01*
X3925Y421D01*
X3916Y412D01*
Y402D01*
X3921Y393D01*
X3925Y388D01*
X3935Y383D01*
X3963Y374D01*
X3973Y369D01*
X3978Y364D01*
X3983Y355D01*
Y340D01*
X3973Y331D01*
X3959Y326D01*
X3940D01*
X3925Y331D01*
X3916Y340D01*
D52*
X3572Y265D02*
X4082D01*
D53*
X-351Y137D02*
D03*
X-450Y417D02*
D03*
D54*
X-251Y137D02*
D03*
X-151D02*
D03*
X-51D02*
D03*
X49D02*
D03*
X149D02*
D03*
X150Y417D02*
D03*
X-50D02*
D03*
X50D02*
D03*
X-250D02*
D03*
X-150D02*
D03*
X350D02*
D03*
X450D02*
D03*
X-350D02*
D03*
X250D02*
D03*
D55*
X738Y2371D02*
D03*
Y2171D02*
D03*
X538D02*
D03*
Y2371D02*
D03*
X638Y2271D02*
D03*
X-695Y1487D02*
D03*
X-595Y1387D02*
D03*
Y1587D02*
D03*
X-795D02*
D03*
Y1387D02*
D03*
D56*
X249Y521D02*
D03*
X40Y1461D02*
D03*
X395Y2006D02*
D03*
Y1906D02*
D03*
X-275Y1905D02*
D03*
X65Y1370D02*
D03*
X790Y1025D02*
D03*
D57*
X-19Y1551D02*
D03*
X13Y1512D02*
D03*
X83Y273D02*
D03*
X-316Y936D02*
D03*
X198Y330D02*
D03*
X-356Y333D02*
D03*
X201Y615D02*
D03*
X160D02*
D03*
X212Y647D02*
D03*
X-2Y330D02*
D03*
X98D02*
D03*
X630Y571D02*
D03*
X902Y1206D02*
D03*
X698Y571D02*
D03*
X-633Y1934D02*
D03*
X-859Y1879D02*
D03*
X-434Y1917D02*
D03*
X40Y2020D02*
D03*
X188Y2429D02*
D03*
X59Y2439D02*
D03*
X94Y2102D02*
D03*
X193Y2142D02*
D03*
X185Y2232D02*
D03*
X-174Y1551D02*
D03*
X-146Y1491D02*
D03*
X0Y1745D02*
D03*
X-173Y1844D02*
D03*
X-417Y1278D02*
D03*
X-850Y1256D02*
D03*
X87Y1322D02*
D03*
X222Y1632D02*
D03*
X356Y1562D02*
D03*
X-388Y1204D02*
D03*
X-493Y624D02*
D03*
X-665Y713D02*
D03*
X-628Y783D02*
D03*
X-209Y755D02*
D03*
Y691D02*
D03*
X102Y1115D02*
D03*
X-166Y543D02*
D03*
X91Y584D02*
D03*
X-50Y1588D02*
D03*
X-178Y913D02*
D03*
X-137Y1751D02*
D03*
X54Y1776D02*
D03*
X-398Y2327D02*
D03*
X-740Y2413D02*
D03*
X-839Y2118D02*
D03*
X-787Y2354D02*
D03*
X-602Y2134D02*
D03*
X-839Y1976D02*
D03*
X-697Y2020D02*
D03*
X305Y1866D02*
D03*
X-87Y1965D02*
D03*
X-171Y1879D02*
D03*
X445Y1925D02*
D03*
X690Y1878D02*
D03*
X-336Y1235D02*
D03*
X-386Y1461D02*
D03*
X831Y1865D02*
D03*
X617Y1828D02*
D03*
X334Y1384D02*
D03*
X115Y1066D02*
D03*
X-10Y547D02*
D03*
X-11Y764D02*
D03*
X-171Y666D02*
D03*
X-152Y793D02*
D03*
X-383Y764D02*
D03*
X-320Y820D02*
D03*
X-216Y1071D02*
D03*
X-233Y1591D02*
D03*
X332Y1499D02*
D03*
X351Y1327D02*
D03*
X112Y1357D02*
D03*
X110Y1230D02*
D03*
X226Y1136D02*
D03*
X-63Y1212D02*
D03*
X-153Y1287D02*
D03*
Y1412D02*
D03*
X-110Y1345D02*
D03*
X-527Y817D02*
D03*
X-62Y942D02*
D03*
X-797Y1104D02*
D03*
X-746Y1077D02*
D03*
X414Y1087D02*
D03*
X442Y1257D02*
D03*
X800Y1473D02*
D03*
X683Y1487D02*
D03*
X814Y1938D02*
D03*
X-790Y889D02*
D03*
X-650D02*
D03*
X-269Y1488D02*
D03*
X-374Y878D02*
D03*
X528Y1819D02*
D03*
X-816Y1290D02*
D03*
X770Y1623D02*
D03*
X-213Y2382D02*
D03*
X31Y2331D02*
D03*
X41Y2063D02*
D03*
X-197Y1965D02*
D03*
X-138D02*
D03*
X494Y725D02*
D03*
X-168Y2331D02*
D03*
X-42Y2268D02*
D03*
X-389Y1979D02*
D03*
X-462D02*
D03*
X-280Y1780D02*
D03*
X-306Y1702D02*
D03*
X-180Y1925D02*
D03*
X-431Y1555D02*
D03*
X-705Y1661D02*
D03*
X-536Y1667D02*
D03*
X-659Y1998D02*
D03*
X-555Y1976D02*
D03*
X710Y976D02*
D03*
X645Y1066D02*
D03*
X616Y664D02*
D03*
X254Y862D02*
D03*
X238Y991D02*
D03*
X185Y861D02*
D03*
X623Y714D02*
D03*
X269Y569D02*
D03*
X-360Y591D02*
D03*
X-305D02*
D03*
X-794Y630D02*
D03*
X-792Y709D02*
D03*
X-745Y831D02*
D03*
X815Y1094D02*
D03*
X804Y1375D02*
D03*
X843Y1280D02*
D03*
X736Y542D02*
D03*
X825D02*
D03*
X181Y1066D02*
D03*
X97Y1149D02*
D03*
X225Y1169D02*
D03*
X-14Y1620D02*
D03*
X94Y1734D02*
D03*
X72Y1608D02*
D03*
Y1502D02*
D03*
X413Y1332D02*
D03*
X222Y1245D02*
D03*
X205Y1470D02*
D03*
X234Y1595D02*
D03*
X-345Y1063D02*
D03*
X-80Y1310D02*
D03*
X-177Y1016D02*
D03*
X-146Y1125D02*
D03*
X-177Y1069D02*
D03*
X-548Y1209D02*
D03*
Y1071D02*
D03*
X-486Y801D02*
D03*
X-385Y845D02*
D03*
X-636Y856D02*
D03*
X-64Y1388D02*
D03*
X-398Y1607D02*
D03*
X423Y1181D02*
D03*
Y1215D02*
D03*
X496Y1250D02*
D03*
X791Y1126D02*
D03*
X816Y1623D02*
D03*
X844Y1515D02*
D03*
X846Y1583D02*
D03*
X816Y1656D02*
D03*
X610Y1863D02*
D03*
X787Y1864D02*
D03*
X850Y1657D02*
D03*
X616Y2012D02*
D03*
X494Y2050D02*
D03*
X348Y1711D02*
D03*
X404Y2131D02*
D03*
X200Y1961D02*
D03*
X709Y1302D02*
D03*
X-4Y2123D02*
D03*
Y2195D02*
D03*
X-318Y2320D02*
D03*
X-349Y2192D02*
D03*
X-161Y2199D02*
D03*
X-37Y2331D02*
D03*
X-740Y2374D02*
D03*
X-750Y2258D02*
D03*
X-465Y2122D02*
D03*
X-466Y2155D02*
D03*
X-465Y2089D02*
D03*
X-920Y2244D02*
D03*
X-391Y2193D02*
D03*
X-693Y2427D02*
D03*
X-652Y1907D02*
D03*
X-366Y2026D02*
D03*
X445Y507D02*
D03*
X-603Y2288D02*
D03*
X540Y652D02*
D03*
X-692Y1156D02*
D03*
X594Y983D02*
D03*
X524Y549D02*
D03*
X486Y587D02*
D03*
X398Y556D02*
D03*
X345D02*
D03*
X392Y655D02*
D03*
X274Y278D02*
D03*
Y320D02*
D03*
X317Y321D02*
D03*
X359D02*
D03*
Y279D02*
D03*
X290Y692D02*
D03*
X384Y898D02*
D03*
X342D02*
D03*
X324Y848D02*
D03*
Y785D02*
D03*
X329Y682D02*
D03*
X304Y649D02*
D03*
X71Y2354D02*
D03*
X-369Y2243D02*
D03*
X845Y1444D02*
D03*
X642Y633D02*
D03*
X608Y612D02*
D03*
X478Y649D02*
D03*
X449Y702D02*
D03*
X448Y774D02*
D03*
X-310Y334D02*
D03*
X-402Y333D02*
D03*
X-449Y334D02*
D03*
X-425Y301D02*
D03*
X365Y1866D02*
D03*
X245D02*
D03*
X199Y1993D02*
D03*
X114Y2343D02*
D03*
X645Y1584D02*
D03*
X697D02*
D03*
X524Y1583D02*
D03*
X440Y1584D02*
D03*
M02*
