M48
;Layer_Color=9474304
;FILE_FORMAT=2:3
INCH,LZ
;TYPE=PLATED
T1F00S00C0.010
T2F00S00C0.030
T3F00S00C0.035
T4F00S00C0.057
%
T01
X00083Y00273
X00274Y00278
X00359Y00279
Y00321
X00317
X00274Y0032
X00198Y0033
X00098
X-00002
X-0001Y00547
X00091Y00584
X0016Y00615
X00201
X00212Y00647
X00304Y00649
X0029Y00692
X00329Y00682
X00392Y00655
X00478Y00649
X0054Y00652
X00616Y00664
X00623Y00714
X00642Y00633
X00608Y00612
X0063Y00571
X00698Y00571
X00736Y00542
X00825
X00524Y00549
X00486Y00587
X00398Y00556
X00345
X00269Y00569
X00445Y00507
X00449Y00702
X00494Y00725
X00448Y00774
X00324Y00785
Y00848
X00342Y00898
X00384
X00254Y00862
X00185Y00861
X00238Y00991
X00181Y01066
X00115
X00102Y01115
X00097Y01149
X0011Y0123
X00087Y01322
X00112Y01357
X00072Y01502
X00013Y01512
X-00019Y01551
X-0005Y01588
X-00014Y0162
X00072Y01608
X00094Y01734
X00054Y01776
X0Y01745
X-00137Y01751
X-0028Y0178
X-00306Y01702
X-00233Y01591
X-00174Y01551
X-00146Y01491
X-00153Y01412
X-0011Y01345
X-0008Y0131
X-00064Y01388
X-00063Y01212
X-00153Y01287
X-00146Y01125
X-00177Y01069
X-00216Y01071
X-00177Y01016
X-00178Y00913
X-00062Y00942
X-00011Y00764
X-00152Y00793
X-00209Y00755
Y00691
X-00171Y00666
X-00166Y00543
X-00305Y00591
X-0036
X-00493Y00624
X-00486Y00801
X-00527Y00817
X-00385Y00845
X-00374Y00878
X-0032Y0082
X-00383Y00764
X-00316Y00936
X-00345Y01063
X-00336Y01235
X-00388Y01204
X-00417Y01278
X-00548Y01209
Y01071
X-00386Y01461
X-00431Y01555
X-00398Y01607
X-00536Y01667
X-00269Y01488
X00205Y0147
X00234Y01595
X00222Y01632
X00356Y01562
X00332Y01499
X00334Y01384
X00351Y01327
X00413Y01332
X00442Y01257
X00423Y01215
Y01181
X00414Y01087
X00226Y01136
X00225Y01169
X00222Y01245
X00496Y0125
X00709Y01302
X00843Y0128
X00902Y01206
X00791Y01126
X00815Y01094
X00645Y01066
X00594Y00983
X0071Y00976
X00804Y01375
X008Y01473
X00845Y01444
X00844Y01515
X00846Y01583
X00816Y01623
Y01656
X0085Y01657
X0077Y01623
X00697Y01584
X00645
X00524Y01583
X0044Y01584
X00348Y01711
X00528Y01819
X00617Y01828
X00683Y01487
X-0031Y00334
X-00356Y00333
X-00402Y00333
X-00449Y00334
X-00425Y00301
X-00665Y00713
X-00628Y00783
X-00636Y00856
X-0065Y00889
X-0079
X-00745Y00831
X-00792Y00709
X-00794Y0063
X-00797Y01104
X-00746Y01077
X-00692Y01156
X-00816Y0129
X-0085Y01256
X-00705Y01661
X-00652Y01907
X-00633Y01934
X-00659Y01998
X-00697Y0202
X-00839Y01976
X-00859Y01879
X-00839Y02118
X-0092Y02244
X-0075Y02258
X-0074Y02374
X-0074Y02413
X-00693Y02427
X-00787Y02354
X-00603Y02288
X-00602Y02134
X-00465Y02122
Y02089
X-00466Y02155
X-00391Y02193
X-00349Y02192
X-00369Y02243
X-00398Y02327
X-00318Y0232
X-00168Y02331
X-00213Y02382
X-00037Y02331
X-00042Y02268
X-00004Y02195
Y02123
X00041Y02063
X0004Y0202
X00094Y02102
X00193Y02142
X00185Y02232
X00114Y02343
X00071Y02354
X00031Y02331
X00059Y02439
X00188Y02429
X00199Y01993
X002Y01961
X00245Y01866
X00305
X00365
X00445Y01925
X00494Y0205
X00616Y02012
X0061Y01863
X0069Y01878
X00787Y01864
X00831Y01865
X00814Y01938
X00404Y02131
X-00161Y02199
X-00138Y01965
X-00087
X-00197
X-0018Y01925
X-00171Y01879
X-00173Y01844
X-00434Y01917
X-00462Y01979
X-00389
X-00366Y02026
X-00555Y01976
T02
X00249Y00521
X00065Y0137
X0004Y01461
X0079Y01025
X00395Y01906
Y02006
X-00275Y01905
T03
X-00351Y00137
X-00251
X-00151
X-00051
X00049
X00149
X0015Y00417
X0005
X-0005
X-0015
X-0025
X-0035
X-0045
X0025
X0035
X0045
T04
X-00595Y01387
Y01587
X-00695Y01487
X-00795Y01587
Y01387
X00538Y02171
X00738
Y02371
X00538
X00638Y02271
M30
