M48
;Layer_Color=9474304
;FILE_FORMAT=2:5
INCH,LZ
;TYPE=PLATED
T1F00S00C0.01200
T2F00S00C0.02800
T3F00S00C0.03300
%
T01
X00179Y00174
Y00244
X00495Y0016
X00545
X00604Y0021
X00512Y00313
X00482Y00395
X00404Y00511
X00364Y00579
X00422Y00679
X00631
Y0073
X00628Y00554
Y00517
Y00482
X00699Y00481
Y00516
X00727Y00444
X00779Y00275
Y00665
T02
X00354Y0063
Y0068
Y0073
Y0078
X00775Y00779
Y00729
T03
X00415Y0024
X00364Y00296
M30
